# https://github.com/mikedh/trimesh
v -0.09171600 0.10376378 0.03125000 0.87058824 1.78039216 1.92156862
v -0.13328400 0.10376378 0.03125000 0.87058824 1.78039216 1.92156862
v -0.09171600 0.09374898 0.03125000 0.87058824 1.78039216 1.92156862
v -0.09171600 0.10376378 -0.03125000 0.87058824 1.78039216 1.92156862
v -0.13328400 0.09374898 0.03125000 0.87058824 1.78039216 1.92156862
v -0.13328400 0.10376378 -0.03125000 0.87058824 1.78039216 1.92156862
v -0.09171600 0.09374898 -0.03125000 0.87058824 1.78039216 1.92156862
v -0.13328400 0.09374898 -0.03125000 0.87058824 1.78039216 1.92156862
f 1 2 5
f 1 5 3
f 1 3 7
f 1 7 4
f 1 4 6
f 1 6 2
f 2 6 8
f 2 8 5
f 3 5 8
f 3 8 7
f 4 7 8
f 4 8 6