# L-shaped peg mesh in meters, matching peg_L.urdf visual boxes.
o peg_L

v -0.125 -0.015 -0.010
v  0.125 -0.015 -0.010
v  0.125  0.015 -0.010
v -0.125  0.015 -0.010
v -0.125 -0.015  0.010
v  0.125 -0.015  0.010
v  0.125  0.015  0.010
v -0.125  0.015  0.010

v  0.105  0.000 -0.010
v  0.125  0.000 -0.010
v  0.125  0.050 -0.010
v  0.105  0.050 -0.010
v  0.105  0.000  0.010
v  0.125  0.000  0.010
v  0.125  0.050  0.010
v  0.105  0.050  0.010

g long_bar
f 1 2 3 4
f 5 8 7 6
f 1 5 6 2
f 2 6 7 3
f 3 7 8 4
f 4 8 5 1

g short_leg
f 9 10 11 12
f 13 16 15 14
f 9 13 14 10
f 10 14 15 11
f 11 15 16 12
f 12 16 13 9
