# https://github.com/mikedh/trimesh
mtllib ../material.mtl
usemtl material_0
v -0.01000000 -0.03158869 -0.00158855
v -0.01000000 -0.03131828 -0.00247995
v -0.01000000 -0.03087915 -0.00330155
v -0.01000000 0.03168000 -0.00066145
v -0.01000000 0.03131827 -0.00247995
v -0.01000000 0.03158869 -0.00158855
v -0.05000000 -0.00278366 -0.02955785
v -0.05000000 -0.00371073 -0.02946655
v -0.05000000 -0.00460217 -0.02919615
v -0.05000000 -0.03168000 -0.00066145
v -0.05000000 -0.03131828 -0.00247995
v -0.05000000 -0.03158869 -0.00158855
v -0.05000000 0.00542372 -0.02875695
v -0.05000000 0.00460217 -0.02919615
v -0.05000000 0.00371072 -0.02946655
v -0.05000000 0.03168000 -0.00066145
v -0.05000000 0.03158869 -0.00158855
v -0.05000000 0.03131827 -0.00247995
v -0.05000000 0.00614383 -0.02816595
v -0.05000000 -0.00614383 -0.02816595
v -0.05000000 -0.03028817 -0.00402165
v -0.05000000 0.03028817 -0.00402165
v -0.05000000 -0.02692800 0.02955785
v -0.05000000 0.02692800 0.02955785
v -0.05000000 0.03168000 -0.00066145
v -0.05000000 0.03087914 -0.00330155
v -0.05000000 0.03131827 -0.00247995
v -0.05000000 0.03168000 0.02480585
v -0.05000000 0.03156086 0.02586325
v -0.05000000 0.03064326 0.02776865
v -0.05000000 0.02989082 0.02852115
v -0.05000000 0.02898981 0.02908725
v -0.05000000 0.02798542 0.02943875
v -0.05000000 0.03120940 0.02686765
v -0.05000000 -0.03168000 -0.00066145
v -0.05000000 -0.03168000 0.02480585
v -0.05000000 -0.03156086 0.02586325
v -0.05000000 -0.02798542 0.02943875
v -0.05000000 -0.03120941 0.02686765
v -0.05000000 -0.03064326 0.02776865
v -0.05000000 -0.02898982 0.02908725
v -0.05000000 -0.02989083 0.02852115
v -0.05000000 -0.03087915 -0.00330155
v -0.05000000 -0.03131828 -0.00247995
v -0.05000000 0.00278365 -0.02955785
v -0.05000000 -0.00278366 -0.02955785
v -0.05000000 -0.00542373 -0.02875695
v -0.05000000 -0.00460217 -0.02919615
v -0.05000000 0.00542372 -0.02875695
v -0.05000000 0.00371072 -0.02946655
v -0.01000000 -0.00330079 -0.02263025
v -0.01000000 -0.00614383 -0.02816595
v -0.01000000 -0.00542373 -0.02875695
v -0.01000000 -0.00460217 -0.02919615
v -0.01000000 -0.00143917 -0.02311225
v -0.01000000 -0.00371073 -0.02946655
v -0.01000000 -0.00278366 -0.02955785
v -0.01000000 0.00048137 -0.02320965
v -0.01000000 0.00278365 -0.02955785
v -0.01000000 0.00238220 -0.02291845
v -0.01000000 0.00371072 -0.02946655
v -0.01000000 0.00460217 -0.02919615
v -0.01000000 0.00542372 -0.02875695
v -0.01000000 0.00614383 -0.02816595
v -0.01000000 0.00418550 -0.02225055
v -0.01000000 0.00581745 -0.02123335
v -0.01000000 0.00721123 -0.01990845
v -0.01000000 0.00830979 -0.01833015
v -0.01000000 0.03028817 -0.00402165
v -0.01000000 0.00906814 -0.01656295
v -0.01000000 0.00945524 -0.01467935
v -0.01000000 0.00945524 -0.01275635
v -0.01000000 0.00906814 -0.01087265
v -0.01000000 0.01822220 0.00451725
v -0.01000000 0.01632137 0.00422605
v -0.01000000 0.00830979 -0.00910555
v -0.01000000 0.01440083 0.00432345
v -0.01000000 0.00721123 -0.00752715
v -0.01000000 0.01253921 0.00480545
v -0.01000000 0.00581745 -0.00620225
v -0.01000000 0.01081272 0.00565235
v -0.01000000 0.00418550 -0.00518505
v -0.01000000 0.00929206 0.00682945
v -0.01000000 0.00238220 -0.00451725
v -0.01000000 0.00803946 0.00828855
v -0.01000000 0.00048137 -0.00422605
v -0.01000000 -0.00753021 0.00910555
v -0.01000000 -0.00143917 -0.00432345
v -0.01000000 -0.00862877 0.00752725
v -0.01000000 -0.00330079 -0.00480545
v -0.01000000 -0.01002255 0.00620235
v -0.01000000 -0.00502728 -0.00565235
v -0.01000000 -0.01165450 0.00518515
v -0.01000000 -0.00654794 -0.00682935
v -0.01000000 -0.01345780 0.00451725
v -0.01000000 -0.00780054 -0.00828845
v -0.01000000 -0.01535863 0.00422605
v -0.01000000 -0.00873378 -0.00996985
v -0.01000000 -0.01727917 0.00432345
v -0.01000000 -0.03028817 -0.00402165
v -0.01000000 -0.00930945 -0.01180465
v -0.01000000 -0.00950400 -0.01371785
v -0.01000000 -0.00930945 -0.01563095
v -0.01000000 -0.00873378 -0.01746575
v -0.01000000 -0.00780054 -0.01914715
v -0.01000000 -0.00654794 -0.02060625
v -0.01000000 -0.00502728 -0.02178335
v -0.01000000 -0.01914079 0.00480545
v -0.01000000 -0.02086728 0.00565235
v -0.01000000 -0.03168000 -0.00066145
v -0.01000000 -0.03087915 -0.00330155
v -0.01000000 -0.03158869 -0.00158855
v -0.01000000 -0.02238794 0.00682945
v -0.01000000 -0.02364054 0.00828855
v -0.01000000 -0.02457378 0.00996995
v -0.01000000 -0.02514945 0.01180475
v -0.01000000 -0.02534400 0.01371785
v -0.01000000 -0.03168000 0.02480585
v -0.01000000 -0.02514945 0.01563105
v -0.01000000 -0.02457378 0.01746585
v -0.01000000 -0.02364054 0.01914715
v -0.01000000 -0.02238794 0.02060625
v -0.01000000 -0.02692800 0.02955785
v -0.01000000 -0.02086728 0.02178335
v -0.01000000 -0.01914079 0.02263025
v -0.01000000 -0.01727917 0.02311225
v -0.01000000 -0.01535863 0.02320965
v -0.01000000 -0.01345780 0.02291845
v -0.01000000 0.01253921 0.02263025
v -0.01000000 -0.01165450 0.02225055
v -0.01000000 0.01081272 0.02178335
v -0.01000000 -0.01002255 0.02123335
v -0.01000000 0.00929206 0.02060625
v -0.01000000 -0.00862877 0.01990855
v -0.01000000 0.00803946 0.01914715
v -0.01000000 -0.00753021 0.01833015
v -0.01000000 0.00710622 0.01746585
v -0.01000000 -0.00677186 0.01656305
v -0.01000000 0.00653055 0.01563105
v -0.01000000 -0.00638476 0.01467935
v -0.01000000 0.00633600 0.01371785
v -0.01000000 -0.00638476 0.01275635
v -0.01000000 0.00653055 0.01180475
v -0.01000000 -0.00677186 0.01087275
v -0.01000000 0.00710622 0.00996995
v -0.01000000 0.01440083 0.02311225
v -0.01000000 0.02692800 0.02955785
v -0.01000000 0.01632137 0.02320965
v -0.01000000 0.01822220 0.02291845
v -0.01000000 0.02002550 0.02225055
v -0.01000000 0.02165745 0.02123335
v -0.01000000 0.02305123 0.01990855
v -0.01000000 0.03168000 0.02480585
v -0.01000000 0.02414979 0.01833015
v -0.01000000 0.02490814 0.01656305
v -0.01000000 0.02529524 0.01467935
v -0.01000000 0.02529524 0.01275635
v -0.01000000 0.03168000 -0.00066145
v -0.01000000 0.02490814 0.01087275
v -0.01000000 0.02414979 0.00910555
v -0.01000000 0.02305123 0.00752725
v -0.01000000 0.02165745 0.00620235
v -0.01000000 0.03087914 -0.00330155
v -0.01000000 0.03131827 -0.00247995
v -0.01000000 0.02002550 0.00518515
v -0.01000000 0.02989082 0.02852115
v -0.01000000 0.03156086 0.02586325
v -0.01000000 0.03064326 0.02776865
v -0.01000000 0.03120940 0.02686765
v -0.01000000 0.02798542 0.02943875
v -0.01000000 0.02898981 0.02908725
v -0.01000000 -0.03156086 0.02586325
v -0.01000000 -0.02798542 0.02943875
v -0.01000000 -0.03120941 0.02686765
v -0.01000000 -0.03064326 0.02776865
v -0.01000000 -0.02898982 0.02908725
v -0.01000000 -0.02989083 0.02852115
v 0.05000000 0.00633600 0.01371785
v 0.05000000 0.00929206 0.00682945
v 0.05000000 0.01081272 0.00565235
v 0.05000000 0.00710622 0.01746585
v 0.05000000 0.01822220 0.02291845
v 0.05000000 0.01253921 0.00480545
v 0.05000000 0.02305123 0.00752725
v 0.05000000 0.02529524 0.01275635
v 0.05000000 0.02414979 0.01833015
v 0.05000000 0.02490814 0.01656305
v 0.05000000 0.02529524 0.01467935
v 0.05000000 0.02305123 0.01990855
v 0.05000000 0.02165745 0.02123335
v 0.05000000 0.02002550 0.02225055
v 0.05000000 0.02414979 0.00910555
v 0.05000000 0.02490814 0.01087275
v 0.05000000 0.01632137 0.00422605
v 0.05000000 0.01822220 0.00451725
v 0.05000000 0.02002550 0.00518515
v 0.05000000 0.02165745 0.00620235
v 0.05000000 0.01440083 0.00432345
v 0.05000000 0.01081272 0.02178335
v 0.05000000 0.00803946 0.01914715
v 0.05000000 0.00929206 0.02060625
v 0.05000000 0.01632137 0.02320965
v 0.05000000 0.01253921 0.02263025
v 0.05000000 0.01440083 0.02311225
v 0.05000000 0.00653055 0.01563105
v 0.05000000 0.00803946 0.00828855
v 0.05000000 0.00710622 0.00996995
v 0.05000000 0.00653055 0.01180475
v 0.05000000 -0.00677186 0.01087275
v 0.05000000 -0.01002255 0.00620235
v 0.05000000 -0.00753021 0.00910555
v 0.05000000 -0.00862877 0.00752725
v 0.05000000 -0.01165450 0.00518515
v 0.05000000 -0.02238794 0.00682945
v 0.05000000 -0.02086728 0.00565235
v 0.05000000 -0.01727917 0.00432345
v 0.05000000 -0.01535863 0.00422605
v 0.05000000 -0.01345780 0.00451725
v 0.05000000 -0.01914079 0.00480545
v 0.05000000 -0.02364054 0.00828855
v 0.05000000 -0.02457378 0.00996995
v 0.05000000 -0.02514945 0.01180475
v 0.05000000 -0.02534400 0.01371785
v 0.05000000 -0.00677186 0.01656305
v 0.05000000 -0.00638476 0.01467935
v 0.05000000 -0.00638476 0.01275635
v 0.05000000 -0.02457378 0.01746585
v 0.05000000 -0.02514945 0.01563105
v 0.05000000 -0.00862877 0.01990855
v 0.05000000 -0.00753021 0.01833015
v 0.05000000 -0.01914079 0.02263025
v 0.05000000 -0.02086728 0.02178335
v 0.05000000 -0.02364054 0.01914715
v 0.05000000 -0.02238794 0.02060625
v 0.05000000 -0.01727917 0.02311225
v 0.05000000 -0.01002255 0.02123335
v 0.05000000 -0.01535863 0.02320965
v 0.05000000 -0.01345780 0.02291845
v 0.05000000 -0.01165450 0.02225055
v 0.05000000 0.00906814 -0.01656295
v 0.05000000 0.00581745 -0.02123335
v 0.05000000 0.00830979 -0.01833015
v 0.05000000 0.00721123 -0.01990845
v 0.05000000 0.00945524 -0.01467935
v 0.05000000 -0.00873378 -0.01746575
v 0.05000000 -0.00780054 -0.01914715
v 0.05000000 -0.00654794 -0.02060625
v 0.05000000 -0.00502728 -0.02178335
v 0.05000000 -0.00143917 -0.02311225
v 0.05000000 0.00418550 -0.02225055
v 0.05000000 0.00048137 -0.02320965
v 0.05000000 0.00238220 -0.02291845
v 0.05000000 -0.00330079 -0.02263025
v 0.05000000 -0.00930945 -0.01563095
v 0.05000000 0.00906814 -0.01087265
v 0.05000000 0.00945524 -0.01275635
v 0.05000000 -0.00950400 -0.01371785
v 0.05000000 0.00830979 -0.00910555
v 0.05000000 -0.00780054 -0.00828845
v 0.05000000 -0.00930945 -0.01180465
v 0.05000000 -0.00873378 -0.00996985
v 0.05000000 0.00581745 -0.00620225
v 0.05000000 0.00721123 -0.00752715
v 0.05000000 -0.00654794 -0.00682935
v 0.05000000 0.00418550 -0.00518505
v 0.05000000 -0.00502728 -0.00565235
v 0.05000000 0.00238220 -0.00451725
v 0.05000000 -0.00330079 -0.00480545
v 0.05000000 -0.00143917 -0.00432345
v 0.05000000 0.00048137 -0.00422605
v -0.01000000 -0.02692800 0.02955785
v -0.05000000 0.02692800 0.02955785
v -0.05000000 -0.02692800 0.02955785
v -0.01000000 0.02692800 0.02955785
v -0.05000000 0.02798542 0.02943875
v -0.01000000 0.02798542 0.02943875
v -0.01000000 -0.02798542 0.02943875
v -0.05000000 -0.02798542 0.02943875
v -0.01000000 -0.02898982 0.02908725
v -0.05000000 -0.02898982 0.02908725
v -0.01000000 0.02898981 0.02908725
v -0.05000000 0.02898981 0.02908725
v -0.05000000 0.02989082 0.02852115
v -0.01000000 0.02989082 0.02852115
v -0.01000000 -0.02989083 0.02852115
v -0.05000000 -0.02989083 0.02852115
v -0.05000000 0.03064326 0.02776865
v -0.01000000 0.03064326 0.02776865
v -0.01000000 -0.03064326 0.02776865
v -0.05000000 -0.03064326 0.02776865
v -0.05000000 0.03120940 0.02686765
v -0.01000000 0.03120940 0.02686765
v -0.05000000 -0.03120941 0.02686765
v -0.01000000 -0.03120941 0.02686765
v -0.01000000 -0.00614383 -0.02816595
v -0.01000000 -0.03028817 -0.00402165
v -0.05000000 -0.03028817 -0.00402165
v -0.05000000 -0.00614383 -0.02816595
v -0.01000000 -0.00542373 -0.02875695
v -0.05000000 -0.00542373 -0.02875695
v -0.05000000 -0.03087915 -0.00330155
v -0.01000000 -0.03087915 -0.00330155
v -0.01000000 -0.00460217 -0.02919615
v -0.05000000 -0.00460217 -0.02919615
v -0.05000000 -0.03131828 -0.00247995
v -0.01000000 -0.03131828 -0.00247995
v -0.05000000 -0.03158869 -0.00158855
v -0.01000000 -0.03158869 -0.00158855
v -0.01000000 -0.00371073 -0.02946655
v -0.05000000 -0.00371073 -0.02946655
v -0.05000000 -0.03168000 -0.00066145
v -0.01000000 -0.03168000 -0.00066145
v -0.01000000 -0.00278366 -0.02955785
v -0.05000000 -0.00278366 -0.02955785
v -0.05000000 -0.03168000 0.02480585
v -0.01000000 -0.03168000 0.02480585
v -0.05000000 -0.03156086 0.02586325
v -0.01000000 -0.03156086 0.02586325
v -0.01000000 -0.03120941 0.02686765
v -0.05000000 -0.03120941 0.02686765
v -0.01000000 0.03028817 -0.00402165
v -0.05000000 0.00614383 -0.02816595
v -0.05000000 0.03028817 -0.00402165
v -0.01000000 0.00614383 -0.02816595
v -0.05000000 0.00542372 -0.02875695
v -0.01000000 0.00542372 -0.02875695
v -0.01000000 0.03087914 -0.00330155
v -0.05000000 0.03087914 -0.00330155
v -0.05000000 0.00460217 -0.02919615
v -0.01000000 0.00460217 -0.02919615
v -0.01000000 0.03131827 -0.00247995
v -0.05000000 0.03131827 -0.00247995
v -0.05000000 0.03158869 -0.00158855
v -0.01000000 0.03158869 -0.00158855
v -0.05000000 0.00371072 -0.02946655
v -0.01000000 0.00371072 -0.02946655
v -0.01000000 0.03168000 -0.00066145
v -0.05000000 0.03168000 -0.00066145
v -0.01000000 0.00278365 -0.02955785
v -0.05000000 0.00278365 -0.02955785
v -0.05000000 -0.00278366 -0.02955785
v -0.01000000 -0.00278366 -0.02955785
v -0.05000000 0.03168000 0.02480585
v -0.01000000 0.03168000 0.02480585
v -0.01000000 0.03156086 0.02586325
v -0.05000000 0.03156086 0.02586325
v -0.01000000 0.03120940 0.02686765
v -0.05000000 0.03120940 0.02686765
v 0.05000000 0.00929206 0.00682945
v 0.05000000 0.00803946 0.00828855
v -0.01000000 0.00803946 0.00828855
v -0.01000000 0.00929206 0.00682945
v 0.05000000 0.01081272 0.00565235
v -0.01000000 0.01081272 0.00565235
v -0.01000000 0.01253921 0.00480545
v 0.05000000 0.01253921 0.00480545
v 0.05000000 0.01440083 0.00432345
v -0.01000000 0.01440083 0.00432345
v 0.05000000 0.01632137 0.00422605
v -0.01000000 0.01632137 0.00422605
v -0.01000000 0.00710622 0.00996995
v 0.05000000 0.00710622 0.00996995
v -0.01000000 0.00653055 0.01180475
v 0.05000000 0.00653055 0.01180475
v -0.01000000 0.00633600 0.01371785
v 0.05000000 0.00633600 0.01371785
v 0.05000000 -0.02238794 0.00682945
v 0.05000000 -0.02364054 0.00828855
v -0.01000000 -0.02364054 0.00828855
v -0.01000000 -0.02238794 0.00682945
v 0.05000000 -0.02086728 0.00565235
v -0.01000000 -0.02086728 0.00565235
v -0.01000000 -0.01914079 0.00480545
v 0.05000000 -0.01914079 0.00480545
v 0.05000000 -0.01727917 0.00432345
v -0.01000000 -0.01727917 0.00432345
v 0.05000000 -0.01535863 0.00422605
v -0.01000000 -0.01535863 0.00422605
v -0.01000000 -0.02457378 0.00996995
v 0.05000000 -0.02457378 0.00996995
v -0.01000000 -0.02514945 0.01180475
v 0.05000000 -0.02514945 0.01180475
v -0.01000000 -0.02534400 0.01371785
v 0.05000000 -0.02534400 0.01371785
v 0.05000000 -0.00873378 -0.01746575
v 0.05000000 -0.00930945 -0.01563095
v -0.01000000 -0.00930945 -0.01563095
v -0.01000000 -0.00873378 -0.01746575
v 0.05000000 -0.00780054 -0.01914715
v -0.01000000 -0.00780054 -0.01914715
v -0.01000000 -0.00950400 -0.01371785
v 0.05000000 -0.00950400 -0.01371785
v -0.01000000 -0.00930945 -0.01180465
v 0.05000000 -0.00930945 -0.01180465
v -0.01000000 -0.00873378 -0.00996985
v 0.05000000 -0.00873378 -0.00996985
v -0.01000000 -0.00780054 -0.00828845
v 0.05000000 -0.00780054 -0.00828845
v 0.05000000 0.02490814 0.01656305
v 0.05000000 0.02529524 0.01467935
v -0.01000000 0.02490814 0.01656305
v -0.01000000 0.02529524 0.01467935
v -0.01000000 0.02529524 0.01275635
v 0.05000000 0.02529524 0.01275635
v 0.05000000 0.02490814 0.01087275
v -0.01000000 0.02490814 0.01087275
v 0.05000000 0.02414979 0.00910555
v -0.01000000 0.02414979 0.00910555
v 0.05000000 0.02414979 0.01833015
v -0.01000000 0.02414979 0.01833015
v -0.01000000 0.02305123 0.01990855
v 0.05000000 0.02305123 0.01990855
v 0.05000000 0.02165745 0.02123335
v -0.01000000 0.02165745 0.02123335
v 0.05000000 0.02002550 0.02225055
v -0.01000000 0.02002550 0.02225055
v 0.05000000 0.01822220 0.02291845
v -0.01000000 0.01822220 0.02291845
v 0.05000000 -0.00677186 0.01656305
v 0.05000000 -0.00638476 0.01467935
v -0.01000000 -0.00677186 0.01656305
v -0.01000000 -0.00638476 0.01467935
v -0.01000000 -0.00638476 0.01275635
v 0.05000000 -0.00638476 0.01275635
v 0.05000000 -0.00677186 0.01087275
v -0.01000000 -0.00677186 0.01087275
v 0.05000000 -0.00753021 0.00910555
v -0.01000000 -0.00753021 0.00910555
v 0.05000000 -0.00753021 0.01833015
v -0.01000000 -0.00753021 0.01833015
v -0.01000000 -0.00862877 0.01990855
v 0.05000000 -0.00862877 0.01990855
v 0.05000000 -0.01002255 0.02123335
v -0.01000000 -0.01002255 0.02123335
v 0.05000000 -0.01165450 0.02225055
v -0.01000000 -0.01165450 0.02225055
v 0.05000000 -0.01345780 0.02291845
v -0.01000000 -0.01345780 0.02291845
v 0.05000000 0.00945524 -0.01275635
v -0.01000000 0.00945524 -0.01275635
v -0.01000000 0.00906814 -0.01087265
v 0.05000000 0.00906814 -0.01087265
v -0.01000000 0.00945524 -0.01467935
v 0.05000000 0.00945524 -0.01467935
v 0.05000000 0.00906814 -0.01656295
v -0.01000000 0.00906814 -0.01656295
v 0.05000000 0.00830979 -0.01833015
v -0.01000000 0.00830979 -0.01833015
v 0.05000000 0.00830979 -0.00910555
v -0.01000000 0.00830979 -0.00910555
v -0.01000000 0.00721123 -0.00752715
v 0.05000000 0.00721123 -0.00752715
v 0.05000000 0.00581745 -0.00620225
v -0.01000000 0.00581745 -0.00620225
v 0.05000000 0.00418550 -0.00518505
v -0.01000000 0.00418550 -0.00518505
v -0.01000000 0.00721123 -0.01990845
v 0.05000000 0.00721123 -0.01990845
v 0.05000000 -0.02086728 0.02178335
v -0.01000000 -0.01914079 0.02263025
v -0.01000000 -0.02086728 0.02178335
v 0.05000000 -0.01914079 0.02263025
v 0.05000000 -0.02238794 0.02060625
v -0.01000000 -0.02238794 0.02060625
v 0.05000000 -0.02364054 0.01914715
v -0.01000000 -0.02364054 0.01914715
v 0.05000000 -0.02457378 0.01746585
v -0.01000000 -0.02457378 0.01746585
v -0.01000000 -0.01727917 0.02311225
v 0.05000000 -0.01727917 0.02311225
v -0.01000000 -0.01535863 0.02320965
v 0.05000000 -0.01535863 0.02320965
v 0.05000000 -0.02514945 0.01563105
v -0.01000000 -0.02514945 0.01563105
v -0.01000000 -0.01345780 0.02291845
v 0.05000000 -0.01345780 0.02291845
v 0.05000000 -0.02534400 0.01371785
v -0.01000000 -0.02534400 0.01371785
v 0.05000000 -0.00330079 -0.00480545
v 0.05000000 -0.00143917 -0.00432345
v -0.01000000 -0.00143917 -0.00432345
v -0.01000000 -0.00330079 -0.00480545
v -0.01000000 0.00048137 -0.00422605
v 0.05000000 0.00048137 -0.00422605
v -0.01000000 0.00238220 -0.00451725
v 0.05000000 0.00238220 -0.00451725
v -0.01000000 0.00418550 -0.00518505
v 0.05000000 0.00418550 -0.00518505
v 0.05000000 -0.00502728 -0.00565235
v -0.01000000 -0.00502728 -0.00565235
v 0.05000000 -0.00654794 -0.00682935
v -0.01000000 -0.00654794 -0.00682935
v 0.05000000 -0.00780054 -0.00828845
v -0.01000000 -0.00780054 -0.00828845
v 0.05000000 0.01081272 0.02178335
v -0.01000000 0.01253921 0.02263025
v -0.01000000 0.01081272 0.02178335
v 0.05000000 0.01253921 0.02263025
v 0.05000000 0.00929206 0.02060625
v -0.01000000 0.00929206 0.02060625
v 0.05000000 0.00803946 0.01914715
v -0.01000000 0.00803946 0.01914715
v 0.05000000 0.00710622 0.01746585
v -0.01000000 0.00710622 0.01746585
v -0.01000000 0.01440083 0.02311225
v 0.05000000 0.01440083 0.02311225
v -0.01000000 0.01632137 0.02320965
v 0.05000000 0.01632137 0.02320965
v 0.05000000 0.00653055 0.01563105
v -0.01000000 0.00653055 0.01563105
v -0.01000000 0.01822220 0.02291845
v 0.05000000 0.01822220 0.02291845
v 0.05000000 0.00633600 0.01371785
v -0.01000000 0.00633600 0.01371785
v 0.05000000 -0.01002255 0.00620235
v 0.05000000 -0.01165450 0.00518515
v -0.01000000 -0.01165450 0.00518515
v -0.01000000 -0.01002255 0.00620235
v -0.01000000 -0.01345780 0.00451725
v 0.05000000 -0.01345780 0.00451725
v 0.05000000 -0.00862877 0.00752725
v -0.01000000 -0.00862877 0.00752725
v 0.05000000 -0.00753021 0.00910555
v -0.01000000 -0.00753021 0.00910555
v -0.01000000 -0.01535863 0.00422605
v 0.05000000 -0.01535863 0.00422605
v 0.05000000 0.02002550 0.00518515
v -0.01000000 0.01822220 0.00451725
v -0.01000000 0.02002550 0.00518515
v 0.05000000 0.01822220 0.00451725
v 0.05000000 0.02165745 0.00620235
v -0.01000000 0.02165745 0.00620235
v 0.05000000 0.02305123 0.00752725
v -0.01000000 0.02305123 0.00752725
v 0.05000000 0.02414979 0.00910555
v -0.01000000 0.02414979 0.00910555
v -0.01000000 0.01632137 0.00422605
v 0.05000000 0.01632137 0.00422605
v 0.05000000 0.00238220 -0.02291845
v 0.05000000 0.00048137 -0.02320965
v -0.01000000 0.00048137 -0.02320965
v -0.01000000 0.00238220 -0.02291845
v -0.01000000 -0.00143917 -0.02311225
v 0.05000000 -0.00143917 -0.02311225
v -0.01000000 -0.00330079 -0.02263025
v 0.05000000 -0.00330079 -0.02263025
v 0.05000000 -0.00502728 -0.02178335
v -0.01000000 -0.00502728 -0.02178335
v -0.01000000 -0.00654794 -0.02060625
v 0.05000000 -0.00654794 -0.02060625
v -0.01000000 -0.00780054 -0.01914715
v 0.05000000 -0.00780054 -0.01914715
v 0.05000000 0.00418550 -0.02225055
v -0.01000000 0.00418550 -0.02225055
v 0.05000000 0.00581745 -0.02123335
v -0.01000000 0.00581745 -0.02123335
v 0.05000000 0.00721123 -0.01990845
v -0.01000000 0.00721123 -0.01990845
vt 0.00000000 0.00000000
vt 0.00000000 0.00000000
vt 0.00000000 0.00000000
vt 0.00000000 0.00000000
vt 0.00000000 0.00000000
vt 0.00000000 0.00000000
vt 0.00000000 0.00000000
vt 0.00000000 0.00000000
vt 0.00000000 0.00000000
vt 0.00000000 0.00000000
vt 0.00000000 0.00000000
vt 0.00000000 0.00000000
vt 0.00000000 0.00000000
vt 0.00000000 0.00000000
vt 0.00000000 0.00000000
vt 0.00000000 0.00000000
vt 0.00000000 0.00000000
vt 0.00000000 0.00000000
vt 0.20774668 0.32291046
vt 0.14276877 0.32291046
vt 0.01509204 0.44873819
vt 0.33542341 0.44873819
vt 0.03286082 0.62373739
vt 0.31765464 0.62373739
vt 0.34278351 0.46624982
vt 0.33854851 0.45249099
vt 0.34087065 0.45677274
vt 0.34278351 0.59897238
vt 0.34215349 0.60448301
vt 0.33730116 0.61441296
vt 0.33332223 0.61833459
vt 0.32855764 0.62128484
vt 0.32324633 0.62311667
vt 0.34029496 0.60971737
vt 0.00773196 0.46624982
vt 0.00773196 0.59897238
vt 0.00836197 0.60448301
vt 0.02726912 0.62311667
vt 0.01022047 0.60971737
vt 0.01321430 0.61441296
vt 0.02195779 0.62128484
vt 0.01719320 0.61833459
vt 0.01196690 0.45249099
vt 0.00964475 0.45677274
vt 0.18997784 0.31565657
vt 0.16053757 0.31565657
vt 0.14657672 0.31983045
vt 0.15092117 0.31754157
vt 0.20393871 0.31983045
vt 0.19488026 0.31613237
vt 0.19190685 0.03874203
vt 0.20737016 0.01013848
vt 0.20354328 0.00704001
vt 0.19916664 0.00472488
vt 0.18196645 0.03615936
vt 0.19440846 0.00328269
vt 0.18945152 0.00276841
vt 0.17169343 0.03557003
vt 0.15965910 0.00252525
vt 0.16150837 0.03699820
vt 0.15469393 0.00295857
vt 0.14991134 0.00432288
vt 0.14549518 0.00656625
vt 0.14161503 0.00960181
vt 0.15182826 0.04038554
vt 0.14304937 0.04559305
vt 0.13553114 0.05240780
vt 0.12958132 0.06055047
vt 0.01132372 0.13384508
vt 0.12544359 0.06968830
vt 0.12328726 0.07944641
vt 0.12320064 0.08942590
vt 0.12518731 0.09921832
vt 0.07550795 0.17868498
vt 0.08569299 0.17725681
vt 0.12916589 0.10842188
vt 0.09596603 0.17784616
vt 0.13497354 0.11666103
vt 0.10590643 0.18042882
vt 0.14237243 0.12359751
vt 0.11510728 0.18489924
vt 0.15105969 0.12894759
vt 0.12319180 0.19107425
vt 0.16067965 0.13249192
vt 0.12982914 0.19870101
vt 0.17083846 0.13408613
vt 0.21311054 0.20362087
vt 0.18112028 0.13366455
vt 0.21906036 0.19547820
vt 0.19110407 0.13124450
vt 0.22657858 0.18866347
vt 0.20038120 0.12692489
vt 0.23535748 0.18345594
vt 0.20857176 0.12088322
vt 0.24503759 0.18006860
vt 0.21534052 0.11336587
vt 0.25522262 0.17864043
vt 0.22041030 0.10468094
vt 0.26549569 0.17922978
vt 0.33548674 0.13649073
vt 0.22357352 0.09518432
vt 0.22470079 0.08526418
vt 0.22374585 0.07532760
vt 0.22074787 0.06578068
vt 0.21582958 0.05701424
vt 0.20919222 0.04938747
vt 0.20110770 0.04321246
vt 0.27543607 0.18181244
vt 0.28463691 0.18628286
vt 0.34278351 0.15398939
vt 0.33861685 0.14025351
vt 0.34233668 0.14917418
vt 0.29272145 0.19245787
vt 0.29935876 0.20008464
vt 0.30427709 0.20885107
vt 0.30727506 0.21839799
vt 0.30822998 0.22833461
vt 0.34163654 0.28615290
vt 0.30710274 0.23825473
vt 0.30393949 0.24775133
vt 0.29886973 0.25643575
vt 0.29210100 0.26395309
vt 0.31599313 0.31060606
vt 0.28391042 0.26999527
vt 0.27463329 0.27431491
vt 0.26464945 0.27673495
vt 0.25436768 0.27715653
vt 0.24420887 0.27556232
vt 0.10510367 0.27293128
vt 0.23458889 0.27201745
vt 0.11438081 0.26861167
vt 0.22590165 0.26666743
vt 0.12257135 0.26256946
vt 0.21850276 0.25973144
vt 0.12934013 0.25505212
vt 0.21269509 0.25149229
vt 0.13440989 0.24636774
vt 0.20871653 0.24228872
vt 0.13757311 0.23687111
vt 0.20672984 0.23249628
vt 0.13870038 0.22695096
vt 0.20681646 0.22251682
vt 0.13774544 0.21701437
vt 0.20897280 0.21275871
vt 0.13474748 0.20746748
vt 0.09511986 0.27535135
vt 0.02779274 0.30825388
vt 0.08483804 0.27577293
vt 0.07467923 0.27417871
vt 0.06505928 0.27063385
vt 0.05637201 0.26528376
vt 0.04897312 0.25834781
vt 0.00257732 0.28338566
vt 0.04316547 0.25010869
vt 0.03918688 0.24090512
vt 0.03720023 0.23111266
vt 0.03728683 0.22113320
vt 0.00372427 0.15122215
vt 0.03944315 0.21137507
vt 0.04358091 0.20223725
vt 0.04953074 0.19409458
vt 0.05704895 0.18727982
vt 0.00812882 0.13755624
vt 0.00574188 0.14180079
vt 0.06582785 0.18207233
vt 0.01198445 0.30274451
vt 0.00316722 0.28887829
vt 0.00799179 0.29880652
vt 0.00500278 0.29410601
vt 0.02213952 0.30758965
vt 0.01678055 0.30572164
vt 0.34095138 0.29163516
vt 0.32165706 0.31003416
vt 0.33902544 0.29683214
vt 0.33595520 0.30148318
vt 0.32704777 0.30825388
vt 0.33189487 0.30535546
vt 0.73127407 0.91402978
vt 0.76786846 0.89646465
vt 0.77831161 0.89698285
vt 0.72117680 0.93183106
vt 0.74772686 0.99237174
vt 0.78843445 0.89954746
vt 0.82216495 0.94696987
vt 0.81290233 0.97585881
vt 0.78843445 0.99439186
vt 0.79782224 0.98988599
vt 0.80609125 0.98362255
vt 0.77831143 0.99695688
vt 0.76786858 0.99747473
vt 0.75753260 0.99592531
vt 0.82110721 0.95714945
vt 0.81797683 0.96691257
vt 0.80609125 0.91031682
vt 0.81290233 0.91808063
vt 0.81797683 0.92702723
vt 0.82110715 0.93679017
vt 0.79782236 0.90405375
vt 0.72117704 0.96210843
vt 0.71907216 0.94185346
vt 0.71907216 0.95208573
vt 0.73885292 0.98695928
vt 0.72530061 0.97151148
vt 0.73127407 0.97990966
vt 0.72530043 0.92242819
vt 0.75753242 0.89801413
vt 0.74772662 0.90156788
vt 0.73885280 0.90698028
vt 0.99323452 0.92650849
vt 0.99636489 0.89638615
vt 0.99636495 0.91674542
vt 0.99742270 0.90656579
vt 0.99323452 0.88662320
vt 0.94312614 0.85606062
vt 0.95356929 0.85657877
vt 0.97308010 0.86364967
vt 0.98134899 0.86991280
vt 0.98816007 0.87767661
vt 0.96369219 0.85914344
vt 0.93279016 0.85761005
vt 0.92298430 0.86116379
vt 0.91411054 0.86657619
vt 0.90653181 0.87362570
vt 0.97307998 0.94948190
vt 0.98134899 0.94321853
vt 0.98816007 0.93545479
vt 0.89643449 0.89142704
vt 0.90055817 0.88202411
vt 0.95356917 0.95655280
vt 0.96369219 0.95398784
vt 0.90055829 0.93110740
vt 0.89643472 0.92170435
vt 0.89432991 0.90144944
vt 0.89432991 0.91168165
vt 0.90653181 0.93950558
vt 0.94312632 0.95707071
vt 0.91411066 0.94655526
vt 0.92298454 0.95196772
vt 0.93279040 0.95552123
vt 0.96361327 0.75005257
vt 0.93302852 0.74546766
vt 0.95380753 0.74649882
vt 0.94347167 0.74494952
vt 0.97248709 0.75546485
vt 0.89336348 0.81539708
vt 0.89023316 0.80563414
vt 0.88917524 0.79545444
vt 0.89023298 0.78527480
vt 0.89843792 0.76656532
vt 0.92290574 0.74803239
vt 0.90524900 0.75880164
vt 0.91351777 0.75253850
vt 0.89336324 0.77551174
vt 0.89843804 0.82434344
vt 0.98603952 0.77091289
vt 0.98006582 0.76251441
vt 0.90524900 0.83210707
vt 0.99016285 0.78031552
vt 0.93302864 0.84544134
vt 0.91351795 0.83837044
vt 0.92290586 0.84287655
vt 0.99226803 0.80057073
vt 0.99226797 0.79033846
vt 0.94347185 0.84595960
vt 0.99016309 0.81059337
vt 0.95380741 0.84440988
vt 0.98603928 0.81999600
vt 0.96361315 0.84085625
vt 0.97248697 0.83544379
vt 0.98006582 0.82839417
vt 0.56443298 0.04559119
vt 0.77577311 0.32814622
vt 0.77577311 0.04559121
vt 0.56443298 0.32814622
vt 0.77577311 0.33372882
vt 0.56443298 0.33372906
vt 0.56443304 0.04000836
vt 0.77577311 0.04000861
vt 0.56443304 0.03442541
vt 0.77577311 0.03442601
vt 0.56443298 0.33931193
vt 0.77577311 0.33931139
vt 0.77577311 0.34489402
vt 0.56443298 0.34489471
vt 0.56443304 0.02884266
vt 0.77577311 0.02884341
vt 0.77577317 0.35047662
vt 0.56443304 0.35047781
vt 0.56443310 0.02325959
vt 0.77577317 0.02326082
vt 0.77577317 0.35605919
vt 0.56443310 0.35606059
vt 0.77577317 0.01767822
vt 0.56443310 0.01767677
vt 0.69936299 0.62373680
vt 0.51876098 0.62373739
vt 0.51876026 0.41666737
vt 0.69936240 0.41666678
vt 0.70429033 0.62373680
vt 0.70428908 0.41666678
vt 0.51383352 0.41666737
vt 0.51383370 0.62373739
vt 0.70921773 0.62373674
vt 0.70921642 0.41666675
vt 0.50890684 0.41666737
vt 0.50890630 0.62373739
vt 0.50398010 0.41666731
vt 0.50397933 0.62373739
vt 0.71414500 0.62373674
vt 0.71414310 0.41666675
vt 0.49905282 0.41666728
vt 0.49905190 0.62373728
vt 0.71907216 0.62373668
vt 0.71907043 0.41666672
vt 0.36435032 0.41666675
vt 0.36434937 0.62373674
vt 0.35872221 0.41666672
vt 0.35872111 0.62373674
vt 0.35309279 0.62373668
vt 0.35309416 0.41666666
vt 0.55927837 0.24363638
vt 0.34793851 0.06602058
vt 0.34793893 0.24363689
vt 0.55927789 0.06602009
vt 0.34793845 0.06117530
vt 0.55927789 0.06117423
vt 0.55927837 0.24848214
vt 0.34793893 0.24848214
vt 0.34793845 0.05632950
vt 0.55927789 0.05632830
vt 0.55927837 0.25332811
vt 0.34793893 0.25332743
vt 0.34793893 0.25817269
vt 0.55927837 0.25817364
vt 0.34793842 0.05148420
vt 0.55927777 0.05148253
vt 0.55927831 0.26301959
vt 0.34793890 0.26301852
vt 0.55927777 0.04663676
vt 0.34793833 0.04663840
vt 0.34793815 0.01767834
vt 0.55927753 0.01767677
vt 0.34793821 0.39549404
vt 0.55927759 0.39549518
vt 0.55927753 0.40103033
vt 0.34793818 0.40102911
vt 0.55927753 0.40656567
vt 0.34793815 0.40656415
vt 0.35824743 0.85858095
vt 0.35824651 0.84806097
vt 0.02320826 0.84806097
vt 0.02320913 0.85858095
vt 0.35824651 0.86910141
vt 0.02320826 0.86910141
vt 0.02320568 0.87919194
vt 0.35824397 0.87919194
vt 0.35823980 0.88843912
vt 0.02320151 0.88843912
vt 0.35823420 0.89646465
vt 0.02319590 0.89646465
vt 0.02320568 0.83797240
vt 0.35824397 0.83797240
vt 0.02320149 0.82872826
vt 0.35823980 0.82872826
vt 0.02319588 0.82070708
vt 0.35823420 0.82070708
vt 0.86597437 0.75000000
vt 0.85523748 0.74999905
vt 0.85523748 0.42172930
vt 0.86597437 0.42173016
vt 0.87671173 0.74999917
vt 0.87671173 0.42172930
vt 0.88701034 0.42172676
vt 0.88701034 0.74999660
vt 0.89644819 0.74999255
vt 0.89644819 0.42172268
vt 0.90463918 0.74998707
vt 0.90463918 0.42171720
vt 0.84494090 0.42172676
vt 0.84494090 0.74999660
vt 0.83550614 0.42172268
vt 0.83550626 0.74999255
vt 0.82731956 0.42171717
vt 0.82731956 0.74998707
vt 0.89875323 0.00252525
vt 0.90920502 0.00252525
vt 0.90920502 0.32575756
vt 0.89875323 0.32575756
vt 0.88917524 0.00252525
vt 0.88917524 0.32575756
vt 0.92010278 0.32575756
vt 0.92010278 0.00252527
vt 0.93100119 0.32575756
vt 0.93100119 0.00252525
vt 0.94145298 0.32575756
vt 0.94145298 0.00252525
vt 0.95103091 0.32575756
vt 0.95103091 0.00252525
vt 0.83247453 0.33080801
vt 0.82216525 0.33080801
vt 0.83247441 0.01767677
vt 0.82216430 0.01767679
vt 0.81185544 0.01767682
vt 0.81185627 0.33080804
vt 0.80154741 0.33080804
vt 0.80154657 0.01767684
vt 0.79123819 0.33080807
vt 0.79123712 0.01767687
vt 0.84278327 0.33080801
vt 0.84278327 0.01767678
vt 0.85309279 0.01767677
vt 0.85309261 0.33080801
vt 0.86340135 0.33080804
vt 0.86340165 0.01767679
vt 0.87371039 0.33080807
vt 0.87371117 0.01767681
vt 0.88401943 0.33080807
vt 0.88402063 0.01767683
vt 0.46649492 0.77525234
vt 0.46649498 0.78535336
vt 0.78608245 0.77525234
vt 0.78608245 0.78535414
vt 0.78608245 0.79545480
vt 0.46649492 0.79545408
vt 0.46649492 0.80555469
vt 0.78608239 0.80555540
vt 0.46649489 0.81565565
vt 0.78608239 0.81565654
vt 0.46649492 0.76515192
vt 0.78608245 0.76515168
vt 0.78608245 0.75505048
vt 0.46649492 0.75505084
vt 0.46649489 0.74495035
vt 0.78608245 0.74494988
vt 0.46649489 0.73484957
vt 0.78608239 0.73484874
vt 0.46649486 0.72474879
vt 0.78608239 0.72474748
vt 0.36855552 0.77525336
vt 0.04896956 0.77525383
vt 0.04896936 0.76515198
vt 0.36855567 0.76515222
vt 0.04896976 0.78535438
vt 0.36855537 0.78535426
vt 0.36855528 0.79545486
vt 0.04896999 0.79545492
vt 0.36855522 0.80555588
vt 0.04897025 0.80555612
vt 0.36855590 0.75505149
vt 0.04896924 0.75505137
vt 0.04896915 0.74495012
vt 0.36855620 0.74495029
vt 0.36855638 0.73484927
vt 0.04896909 0.73484880
vt 0.36855671 0.72474819
vt 0.04896907 0.72474748
vt 0.04897052 0.81565654
vt 0.36855522 0.81565654
vt 0.77061981 0.37121236
vt 0.76030904 0.68434304
vt 0.77061838 0.68434310
vt 0.76031077 0.37121230
vt 0.78092885 0.37121230
vt 0.78092784 0.68434322
vt 0.79123789 0.37121230
vt 0.79123729 0.68434328
vt 0.80154663 0.37121224
vt 0.80154610 0.68434334
vt 0.74999958 0.68434292
vt 0.75000179 0.37121230
vt 0.73969024 0.68434274
vt 0.73969275 0.37121224
vt 0.81185549 0.37121218
vt 0.81185490 0.68434346
vt 0.72938144 0.68434256
vt 0.72938383 0.37121218
vt 0.82216495 0.37121212
vt 0.82216495 0.68434346
vt 0.54896909 0.86155170
vt 0.54896909 0.85056973
vt 0.88402063 0.85056973
vt 0.88402063 0.86155170
vt 0.88402063 0.83981264
vt 0.54896909 0.83981264
vt 0.88402063 0.82972068
vt 0.54896909 0.82972068
vt 0.88402063 0.82070708
vt 0.54896909 0.82070708
vt 0.54896909 0.87230885
vt 0.88402063 0.87230885
vt 0.54896909 0.88240057
vt 0.88402063 0.88240057
vt 0.54896909 0.89141417
vt 0.88402063 0.89141417
vt 0.37371159 0.66919321
vt 0.69329852 0.65909058
vt 0.69329864 0.66919178
vt 0.37371153 0.65909237
vt 0.37371153 0.67929399
vt 0.69329882 0.67929292
vt 0.37371153 0.68939477
vt 0.69329882 0.68939412
vt 0.37371147 0.69949520
vt 0.69329888 0.69949466
vt 0.69329840 0.64898950
vt 0.37371150 0.64899164
vt 0.69329828 0.63888836
vt 0.37371147 0.63889092
vt 0.37371141 0.70959586
vt 0.69329900 0.70959520
vt 0.69329810 0.62878788
vt 0.37371141 0.62879020
vt 0.37371135 0.71969700
vt 0.69329900 0.71969700
vt 0.37371135 0.91645288
vt 0.37371135 0.92698139
vt 0.69845361 0.92698139
vt 0.69845361 0.91645288
vt 0.69845361 0.93729448
vt 0.37371135 0.93729448
vt 0.37371135 0.90613985
vt 0.69845361 0.90613985
vt 0.37371135 0.89646465
vt 0.69845361 0.89646465
vt 0.69845361 0.94696969
vt 0.37371135 0.94696969
vt 0.94093978 0.37121215
vt 0.95146549 0.68939394
vt 0.94093978 0.68939394
vt 0.95146549 0.37121215
vt 0.93019420 0.37121215
vt 0.93019420 0.68939394
vt 0.91966856 0.37121215
vt 0.91966856 0.68939394
vt 0.90979379 0.37121212
vt 0.90979379 0.68939394
vt 0.96134019 0.68939394
vt 0.96134019 0.37121215
vt 0.32731885 0.65909201
vt 0.32731864 0.66919285
vt 0.00773226 0.66919190
vt 0.00773216 0.65909135
vt 0.00773242 0.67929298
vt 0.32731843 0.67929369
vt 0.00773259 0.68939400
vt 0.32731828 0.68939453
vt 0.32731816 0.69949543
vt 0.00773281 0.69949502
vt 0.00773304 0.70959604
vt 0.32731807 0.70959622
vt 0.00773327 0.71969700
vt 0.32731798 0.71969700
vt 0.32731909 0.64899105
vt 0.00773205 0.64899021
vt 0.32731932 0.63889009
vt 0.00773199 0.63888901
vt 0.32731959 0.62878907
vt 0.00773196 0.62878788
f 295/295 297/297 298/298
f 295/295 296/296 297/297
f 308/308 311/311 307/307
f 308/308 312/312 311/311
f 306/306 307/307 305/305
f 306/306 308/308 307/307
f 302/302 305/305 301/301
f 302/302 306/306 305/305
f 296/296 301/301 297/297
f 296/296 302/302 301/301
f 312/312 315/315 311/311
f 312/312 316/316 315/315
f 277/277 273/273 278/278
f 277/277 271/271 273/273
f 279/279 278/278 280/280
f 279/279 277/277 278/278
f 285/285 280/280 286/286
f 285/285 279/279 280/280
f 289/289 286/286 290/290
f 289/289 290/290 293/293
f 289/289 285/285 286/286
f 319/319 320/320 317/317
f 294/294 289/289 293/293
f 318/318 319/319 317/317
f 316/316 317/317 315/315
f 316/316 318/318 317/317
f 271/271 272/272 273/273
f 271/271 274/274 272/272
f 345/345 343/343 346/346
f 345/345 344/344 343/343
f 347/347 346/346 348/348
f 347/347 345/345 346/346
f 288/288 291/291 287/287
f 288/288 292/292 291/291
f 284/284 287/287 283/283
f 284/284 288/288 287/287
f 281/281 283/283 282/282
f 281/281 282/282 275/275
f 281/281 284/284 283/283
f 276/276 281/281 275/275
f 274/274 275/275 272/272
f 274/274 276/276 275/275
f 337/337 338/338 343/343
f 344/344 337/337 343/343
f 327/327 323/323 328/328
f 327/327 321/321 323/323
f 331/331 328/328 332/332
f 331/331 332/332 333/333
f 331/331 327/327 328/328
f 334/334 331/331 333/333
f 337/337 333/333 338/338
f 337/337 334/334 333/333
f 321/321 322/322 323/323
f 321/321 324/324 322/322
f 339/339 340/340 335/335
f 336/336 339/339 335/335
f 330/330 335/335 329/329
f 330/330 336/336 335/335
f 326/326 329/329 325/325
f 326/326 330/330 329/329
f 324/324 325/325 322/322
f 324/324 326/326 325/325
f 339/339 341/341 340/340
f 339/339 342/342 341/341
f 299/299 298/298 300/300
f 299/299 295/295 298/298
f 303/303 300/300 304/304
f 303/303 299/299 300/300
f 309/309 304/304 310/310
f 309/309 303/303 304/304
f 313/313 310/310 314/314
f 313/313 309/309 310/310
f 1/1 2/2 3/3
f 110/110 111/111 100/100
f 110/110 112/112 111/111
f 105/105 52/52 106/106
f 107/107 106/106 52/52
f 104/104 100/100 52/52
f 104/104 52/52 105/105
f 51/51 52/52 53/53
f 51/51 53/53 54/54
f 51/51 107/107 52/52
f 103/103 100/100 104/104
f 55/55 54/54 56/56
f 55/55 56/56 57/57
f 55/55 51/51 54/54
f 102/102 100/100 103/103
f 58/58 57/57 59/59
f 58/58 55/55 57/57
f 101/101 100/100 102/102
f 60/60 59/59 61/61
f 60/60 61/61 62/62
f 60/60 62/62 63/63
f 60/60 63/63 64/64
f 60/60 58/58 59/59
f 98/98 100/100 101/101
f 65/65 60/60 64/64
f 66/66 65/65 64/64
f 114/114 110/110 113/113
f 109/109 110/110 100/100
f 109/109 113/113 110/110
f 115/115 110/110 114/114
f 108/108 109/109 100/100
f 116/116 110/110 115/115
f 99/99 100/100 98/98
f 99/99 108/108 100/100
f 67/67 66/66 64/64
f 117/117 110/110 116/116
f 97/97 98/98 96/96
f 97/97 99/99 98/98
f 68/68 67/67 64/64
f 95/95 97/97 96/96
f 95/95 96/96 94/94
f 118/118 110/110 117/117
f 118/118 119/119 120/120
f 118/118 117/117 119/119
f 93/93 95/95 94/94
f 93/93 94/94 92/92
f 121/121 118/118 120/120
f 91/91 93/93 92/92
f 91/91 92/92 90/90
f 122/122 118/118 121/121
f 89/89 91/91 90/90
f 89/89 90/90 88/88
f 176/176 177/177 175/175
f 173/173 175/175 174/174
f 173/173 174/174 172/172
f 173/173 176/176 175/175
f 87/87 89/89 88/88
f 87/87 88/88 86/86
f 123/123 172/172 118/118
f 123/123 118/118 122/122
f 123/123 173/173 172/172
f 123/123 122/122 124/124
f 125/125 123/123 124/124
f 126/126 123/123 125/125
f 127/127 123/123 126/126
f 128/128 123/123 127/127
f 83/83 84/84 82/82
f 85/85 84/84 83/83
f 85/85 87/87 86/86
f 85/85 86/86 84/84
f 81/81 83/83 82/82
f 81/81 82/82 80/80
f 145/145 144/144 87/87
f 145/145 87/87 85/85
f 79/79 81/81 80/80
f 79/79 80/80 78/78
f 143/143 144/144 145/145
f 143/143 142/142 144/144
f 77/77 79/79 78/78
f 77/77 78/78 76/76
f 141/141 140/140 142/142
f 141/141 142/142 143/143
f 75/75 77/77 76/76
f 75/75 76/76 73/73
f 139/139 140/140 141/141
f 139/139 138/138 140/140
f 74/74 75/75 73/73
f 137/137 138/138 139/139
f 137/137 136/136 138/138
f 69/69 68/68 64/64
f 69/69 165/165 74/74
f 69/69 74/74 73/73
f 69/69 70/70 68/68
f 69/69 71/71 70/70
f 69/69 72/72 71/71
f 69/69 73/73 72/72
f 135/135 134/134 136/136
f 135/135 136/136 137/137
f 162/162 165/165 69/69
f 133/133 134/134 135/135
f 133/133 132/132 134/134
f 158/158 161/161 162/162
f 158/158 69/69 163/163
f 158/158 163/163 164/164
f 4/4 5/5 6/6
f 158/158 162/162 69/69
f 131/131 132/132 133/133
f 131/131 130/130 132/132
f 160/160 161/161 158/158
f 129/129 130/130 131/131
f 129/129 128/128 130/130
f 159/159 160/160 158/158
f 157/157 159/159 158/158
f 147/147 151/151 152/152
f 147/147 150/150 151/151
f 147/147 149/149 150/150
f 147/147 148/148 149/149
f 147/147 146/146 148/148
f 153/153 156/156 157/157
f 153/153 155/155 156/156
f 153/153 154/154 155/155
f 153/153 152/152 154/154
f 153/153 147/147 152/152
f 153/153 157/157 158/158
f 168/168 167/167 169/169
f 166/166 153/153 167/167
f 166/166 171/171 170/170
f 166/166 170/170 147/147
f 166/166 147/147 153/153
f 166/166 167/167 168/168
f 147/147 123/123 146/146
f 146/146 123/123 129/129
f 129/129 123/123 128/128
f 364/364 366/366 365/365
f 364/364 365/365 363/363
f 362/362 363/363 361/361
f 362/362 364/364 363/363
f 350/350 361/361 351/351
f 350/350 362/362 361/361
f 349/349 351/351 352/352
f 349/349 350/350 351/351
f 353/353 352/352 354/354
f 353/353 354/354 355/355
f 353/353 349/349 352/352
f 356/356 353/353 355/355
f 357/357 355/355 358/358
f 357/357 356/356 355/355
f 359/359 358/358 360/360
f 359/359 357/357 358/358
f 530/530 538/538 537/537
f 530/530 537/537 528/528
f 527/527 530/530 528/528
f 527/527 528/528 529/529
f 531/531 527/527 529/529
f 531/531 529/529 532/532
f 533/533 531/531 532/532
f 533/533 532/532 534/534
f 535/535 533/533 534/534
f 535/535 534/534 536/536
f 407/407 408/408 406/406
f 405/405 407/407 406/406
f 405/405 406/406 403/403
f 404/404 405/405 403/403
f 400/400 404/404 403/403
f 400/400 403/403 402/402
f 400/400 402/402 401/401
f 399/399 400/400 401/401
f 409/409 399/399 401/401
f 409/409 401/401 410/410
f 409/409 410/410 411/411
f 412/412 409/409 411/411
f 413/413 412/412 411/411
f 413/413 411/411 414/414
f 415/415 414/414 416/416
f 415/415 413/413 414/414
f 417/417 415/415 416/416
f 417/417 416/416 418/418
f 508/508 511/511 507/507
f 508/508 512/512 511/511
f 506/506 507/507 505/505
f 506/506 508/508 507/507
f 498/498 505/505 496/496
f 498/498 506/506 505/505
f 495/495 496/496 497/497
f 495/495 498/498 496/496
f 499/499 497/497 500/500
f 499/499 495/495 497/497
f 501/501 500/500 502/502
f 501/501 499/499 500/500
f 503/503 502/502 504/504
f 503/503 501/501 502/502
f 509/509 504/504 510/510
f 509/509 503/503 504/504
f 513/513 510/510 514/514
f 513/513 509/509 510/510
f 178/178 208/208 207/207
f 178/178 207/207 206/206
f 178/178 206/206 179/179
f 178/178 179/179 180/180
f 194/194 183/183 198/198
f 181/181 205/205 178/178
f 181/181 178/178 180/180
f 184/184 194/194 195/195
f 184/184 195/195 196/196
f 184/184 196/196 197/197
f 184/184 183/183 194/194
f 199/199 201/201 200/200
f 199/199 200/200 181/181
f 185/185 184/184 192/192
f 185/185 192/192 193/193
f 202/202 204/204 203/203
f 202/202 203/203 199/199
f 182/182 180/180 183/183
f 182/182 181/181 180/180
f 182/182 199/199 181/181
f 182/182 183/183 184/184
f 182/182 202/202 199/199
f 182/182 184/184 185/185
f 187/187 185/185 188/188
f 186/186 182/182 185/185
f 186/186 185/185 187/187
f 190/190 191/191 182/182
f 189/189 182/182 186/186
f 189/189 190/190 182/182
f 382/382 384/384 383/383
f 382/382 383/383 381/381
f 380/380 381/381 379/379
f 380/380 382/382 381/381
f 368/368 379/379 369/369
f 368/368 380/380 379/379
f 367/367 369/369 370/370
f 367/367 368/368 369/369
f 371/371 370/370 372/372
f 371/371 372/372 373/373
f 371/371 367/367 370/370
f 374/374 371/371 373/373
f 375/375 373/373 376/376
f 375/375 374/374 373/373
f 377/377 376/376 378/378
f 377/377 375/375 376/376
f 520/520 526/526 525/525
f 520/520 525/525 519/519
f 516/516 520/520 519/519
f 516/516 519/519 517/517
f 515/515 516/516 517/517
f 515/515 517/517 518/518
f 521/521 515/515 518/518
f 521/521 518/518 522/522
f 523/523 521/521 522/522
f 523/523 522/522 524/524
f 427/427 428/428 426/426
f 425/425 427/427 426/426
f 425/425 426/426 423/423
f 424/424 425/425 423/423
f 420/420 424/424 423/423
f 420/420 423/423 422/422
f 420/420 422/422 421/421
f 419/419 420/420 421/421
f 429/429 419/419 421/421
f 429/429 421/421 430/430
f 429/429 430/430 431/431
f 432/432 429/429 431/431
f 433/433 432/432 431/431
f 433/433 431/431 434/434
f 435/435 434/434 436/436
f 435/435 433/433 434/434
f 437/437 435/435 436/436
f 437/437 436/436 438/438
f 472/472 475/475 471/471
f 472/472 476/476 475/475
f 470/470 471/471 469/469
f 470/470 472/472 471/471
f 462/462 469/469 460/460
f 462/462 470/470 469/469
f 459/459 460/460 461/461
f 459/459 462/462 460/460
f 463/463 461/461 464/464
f 463/463 459/459 461/461
f 465/465 464/464 466/466
f 465/465 463/463 464/464
f 467/467 466/466 468/468
f 467/467 465/465 466/466
f 473/473 468/468 474/474
f 473/473 467/467 468/468
f 477/477 474/474 478/478
f 477/477 473/473 474/474
f 216/216 215/215 219/219
f 227/227 228/228 223/223
f 213/213 214/214 215/215
f 213/213 216/216 217/217
f 213/213 217/217 218/218
f 213/213 215/215 216/216
f 232/232 234/234 233/233
f 232/232 233/233 227/227
f 211/211 210/210 212/212
f 231/231 232/232 227/227
f 209/209 223/223 222/222
f 209/209 222/222 221/221
f 209/209 221/221 220/220
f 209/209 220/220 214/214
f 209/209 213/213 210/210
f 209/209 214/214 213/213
f 209/209 210/210 211/211
f 225/225 209/209 226/226
f 224/224 227/227 223/223
f 224/224 223/223 209/209
f 224/224 209/209 225/225
f 236/236 239/239 238/238
f 236/236 238/238 237/237
f 236/236 237/237 235/235
f 229/229 224/224 230/230
f 229/229 235/235 231/231
f 229/229 231/231 227/227
f 229/229 227/227 224/224
f 229/229 236/236 235/235
f 386/386 392/392 391/391
f 386/386 391/391 387/387
f 385/385 387/387 388/388
f 385/385 386/386 387/387
f 389/389 388/388 390/390
f 389/389 385/385 388/388
f 550/550 551/551 549/549
f 550/550 552/552 551/551
f 547/547 549/549 548/548
f 547/547 548/548 545/545
f 547/547 550/550 549/549
f 546/546 547/547 545/545
f 544/544 545/545 543/543
f 544/544 546/546 545/545
f 540/540 543/543 541/541
f 540/540 544/544 543/543
f 539/539 540/540 541/541
f 539/539 541/541 542/542
f 553/553 539/539 542/542
f 553/553 542/542 554/554
f 555/555 553/553 554/554
f 555/555 554/554 556/556
f 557/557 555/555 556/556
f 557/557 556/556 558/558
f 447/447 458/458 457/457
f 447/447 457/457 448/448
f 447/447 448/448 446/446
f 445/445 447/447 446/446
f 445/445 446/446 443/443
f 444/444 445/445 443/443
f 439/439 444/444 443/443
f 439/439 443/443 440/440
f 439/439 440/440 441/441
f 442/442 439/439 441/441
f 449/449 442/442 441/441
f 449/449 441/441 450/450
f 449/449 450/450 451/451
f 452/452 449/449 451/451
f 453/453 452/452 451/451
f 453/453 451/451 454/454
f 455/455 454/454 456/456
f 455/455 453/453 454/454
f 486/486 488/488 487/487
f 486/486 487/487 485/485
f 484/484 485/485 483/483
f 484/484 486/486 485/485
f 480/480 483/483 481/481
f 480/480 484/484 483/483
f 479/479 481/481 482/482
f 479/479 480/480 481/481
f 489/489 482/482 490/490
f 489/489 479/479 482/482
f 491/491 490/490 492/492
f 491/491 489/489 490/490
f 493/493 492/492 494/494
f 493/493 491/491 492/492
f 396/396 397/397 395/395
f 396/396 398/398 397/397
f 394/394 395/395 393/393
f 394/394 396/396 395/395
f 392/392 393/393 391/391
f 392/392 394/394 393/393
f 249/249 248/248 253/253
f 250/250 249/249 251/251
f 250/250 251/251 252/252
f 259/259 261/261 260/260
f 259/259 260/260 257/257
f 241/241 245/245 246/246
f 241/241 246/246 247/247
f 241/241 247/247 248/248
f 241/241 249/249 250/250
f 241/241 248/248 249/249
f 242/242 241/241 243/243
f 240/240 241/241 242/242
f 244/244 254/254 245/245
f 244/244 245/245 241/241
f 244/244 241/241 240/240
f 267/267 270/270 269/269
f 267/267 269/269 268/268
f 267/267 268/268 266/266
f 255/255 257/257 254/254
f 255/255 244/244 256/256
f 255/255 254/254 244/244
f 265/265 266/266 264/264
f 265/265 267/267 266/266
f 258/258 259/259 257/257
f 258/258 257/257 255/255
f 262/262 264/264 259/259
f 262/262 265/265 264/264
f 262/262 259/259 258/258
f 263/263 262/262 258/258
f 46/46 47/47 20/20
f 46/46 48/48 47/47
f 7/7 8/8 9/9
f 10/10 11/11 12/12
f 35/35 43/43 44/44
f 35/35 21/21 43/43
f 45/45 46/46 20/20
f 49/49 50/50 45/45
f 13/13 14/14 15/15
f 19/19 20/20 21/21
f 19/19 45/45 20/20
f 19/19 49/49 45/45
f 41/41 40/40 42/42
f 38/38 39/39 40/40
f 38/38 37/37 39/39
f 38/38 40/40 41/41
f 23/23 36/36 37/37
f 23/23 35/35 36/36
f 23/23 21/21 35/35
f 23/23 37/37 38/38
f 22/22 19/19 21/21
f 22/22 21/21 23/23
f 25/25 26/26 22/22
f 25/25 27/27 26/26
f 16/16 17/17 18/18
f 24/24 22/22 23/23
f 24/24 25/25 22/22
f 28/28 25/25 24/24
f 29/29 28/28 24/24
f 32/32 24/24 33/33
f 31/31 24/24 32/32
f 30/30 29/29 24/24
f 30/30 24/24 31/31
f 30/30 34/34 29/29
