# https://github.com/mikedh/trimesh
v 0.00911601 -0.02319833 0.00060415 0.54509804 0.71372549 0.60000000
v 0.00911601 -0.02313474 0.00181244 0.54509804 0.71372549 0.60000000
v 0.00603596 -0.02299392 0.00018624 0.54509804 0.71372549 0.60000000
v 0.00603596 -0.02299392 -0.00018624 0.54509804 0.71372549 0.60000000
v 0.00911601 -0.02319379 -0.00060414 0.54509804 0.71372549 0.60000000
v 0.00911601 -0.02299392 0.00302074 0.54509804 0.71372549 0.60000000
v 0.00665482 -0.02279860 0.00302074 0.54509804 0.71372549 0.60000000
v 0.00665482 -0.02293033 0.00181244 0.54509804 0.71372549 0.60000000
v 0.00557584 -0.02206272 0.00544187 0.54509804 0.71372549 0.60000000
v 0.00552437 -0.02218991 0.00423358 0.54509804 0.71372549 0.60000000
v 0.00550949 -0.02228984 0.00302074 0.54509804 0.71372549 0.60000000
v 0.00550515 -0.02235344 0.00181244 0.54509804 0.71372549 0.60000000
v 0.00560622 -0.02249880 0.00059506 0.54509804 0.71372549 0.60000000
v 0.00560622 -0.02249880 -0.00059506 0.54509804 0.71372549 0.60000000
v 0.00550515 -0.02235344 -0.00181244 0.54509804 0.71372549 0.60000000
v 0.00550949 -0.02228984 -0.00302073 0.54509804 0.71372549 0.60000000
v 0.00552437 -0.02218991 -0.00423357 0.54509804 0.71372549 0.60000000
v 0.00557584 -0.02206272 -0.00544186 0.54509804 0.71372549 0.60000000
v 0.00665482 -0.02279860 -0.00302073 0.54509804 0.71372549 0.60000000
v 0.00665482 -0.02293033 -0.00181244 0.54509804 0.71372549 0.60000000
v 0.00911601 -0.02313474 -0.00181244 0.54509804 0.71372549 0.60000000
v 0.00911601 -0.02281223 0.00415635 0.54509804 0.71372549 0.60000000
v 0.00665482 -0.02260327 0.00423358 0.54509804 0.71372549 0.60000000
v 0.00579102 -0.02189919 0.00665471 0.54509804 0.71372549 0.60000000
v 0.00278103 -0.01842423 0.01372277 0.54509804 0.71372549 0.60000000
v 0.00278103 -0.01846965 0.01270072 0.54509804 0.71372549 0.60000000
v 0.00278103 -0.01846965 -0.01270072 0.54509804 0.71372549 0.60000000
v 0.00278103 -0.01846056 -0.01290967 0.54509804 0.71372549 0.60000000
v 0.00278103 -0.01842423 -0.01372277 0.54509804 0.71372549 0.60000000
v 0.00579102 -0.02189919 -0.00665470 0.54509804 0.71372549 0.60000000
v 0.00665482 -0.02260327 -0.00423357 0.54509804 0.71372549 0.60000000
v 0.00911601 -0.02295304 -0.00329328 0.54509804 0.71372549 0.60000000
v 0.00911601 -0.02302572 -0.00275727 0.54509804 0.71372549 0.60000000
v 0.00911601 -0.02253968 0.00544187 0.54509804 0.71372549 0.60000000
v 0.00665482 -0.02234435 0.00544187 0.54509804 0.71372549 0.60000000
v 0.00599317 -0.02179472 0.00730882 0.54509804 0.71372549 0.60000000
v 0.00582450 -0.02066819 0.00988440 0.54509804 0.71372549 0.60000000
v 0.00665482 -0.02071816 0.00998887 0.54509804 0.71372549 0.60000000
v 0.00665482 -0.02041836 0.01059302 0.54509804 0.71372549 0.60000000
v 0.00911601 -0.02020032 0.01139249 0.54509804 0.71372549 0.60000000
v 0.00911601 -0.01957801 0.01243726 0.54509804 0.71372549 0.60000000
v 0.00911601 -0.01917827 0.01304141 0.54509804 0.71372549 0.60000000
v 0.00278103 -0.01799724 0.01432692 0.54509804 0.71372549 0.60000000
v 0.00278103 -0.01833792 -0.01384542 0.54509804 0.71372549 0.60000000
v 0.00911601 -0.01919190 -0.01302323 0.54509804 0.71372549 0.60000000
v 0.00911601 -0.01957801 -0.01243725 0.54509804 0.71372549 0.60000000
v 0.00911601 -0.02020032 -0.01139249 0.54509804 0.71372549 0.60000000
v 0.00911601 -0.02052737 -0.01080197 0.54509804 0.71372549 0.60000000
v 0.00665482 -0.02041836 -0.01059301 0.54509804 0.71372549 0.60000000
v 0.00665482 -0.02071816 -0.00998887 0.54509804 0.71372549 0.60000000
v 0.00582450 -0.02066819 -0.00988439 0.54509804 0.71372549 0.60000000
v 0.00599317 -0.02179472 -0.00730882 0.54509804 0.71372549 0.60000000
v 0.00665482 -0.02234435 -0.00544186 0.54509804 0.71372549 0.60000000
v 0.00911601 -0.02253968 -0.00544186 0.54509804 0.71372549 0.60000000
v 0.00911601 -0.02280314 -0.00419723 0.54509804 0.71372549 0.60000000
v 0.00911601 -0.02253059 0.00547821 0.54509804 0.71372549 0.60000000
v 0.00911601 -0.02222171 0.00665016 0.54509804 0.71372549 0.60000000
v 0.00911601 -0.02190828 0.00761317 0.54509804 0.71372549 0.60000000
v 0.00911601 -0.02167661 0.00824002 0.54509804 0.71372549 0.60000000
v 0.00911601 -0.02132230 0.00911218 0.54509804 0.71372549 0.60000000
v 0.00665482 -0.02112698 0.00907130 0.54509804 0.71372549 0.60000000
v 0.00911601 -0.02077721 0.01030230 0.54509804 0.71372549 0.60000000
v 0.00911601 -0.01850145 0.01397261 0.54509804 0.71372549 0.60000000
v 0.00911601 -0.01848782 0.01399078 0.54509804 0.71372549 0.60000000
v 0.00911601 -0.01756116 0.01514002 0.54509804 0.71372549 0.60000000
v 0.00278103 -0.01738855 0.01504463 0.54509804 0.71372549 0.60000000
v 0.00278103 -0.01799724 -0.01432692 0.54509804 0.71372549 0.60000000
v 0.00911601 -0.01850145 -0.01397260 0.54509804 0.71372549 0.60000000
v 0.00911601 -0.02077721 -0.01030230 0.54509804 0.71372549 0.60000000
v 0.00911601 -0.02133593 -0.00907583 0.54509804 0.71372549 0.60000000
v 0.00665482 -0.02112698 -0.00907129 0.54509804 0.71372549 0.60000000
v 0.00911601 -0.02169479 -0.00819459 0.54509804 0.71372549 0.60000000
v 0.00911601 -0.02192645 -0.00756774 0.54509804 0.71372549 0.60000000
v 0.00911601 -0.02222171 -0.00665016 0.54509804 0.71372549 0.60000000
v 0.00911601 -0.01753391 0.01517182 0.54509804 0.71372549 0.60000000
v 0.00278103 -0.01697064 0.01552613 0.54509804 0.71372549 0.60000000
v 0.00911601 -0.01848782 -0.01399077 0.54509804 0.71372549 0.60000000
v 0.00278103 -0.01787459 -0.01447227 0.54509804 0.71372549 0.60000000
v 0.00911601 -0.01756116 -0.01514002 0.54509804 0.71372549 0.60000000
v 0.00911601 -0.01811534 -0.01448136 0.54509804 0.71372549 0.60000000
v 0.00278103 -0.01686162 0.01564878 0.54509804 0.71372549 0.60000000
v 0.00911601 -0.01640284 0.01640737 0.54509804 0.71372549 0.60000000
v 0.00278103 -0.01738855 -0.01504462 0.54509804 0.71372549 0.60000000
v 0.00278103 -0.01686162 -0.01564877 0.54509804 0.71372549 0.60000000
v 0.00911601 -0.01699335 -0.01578959 0.54509804 0.71372549 0.60000000
v 0.00278103 -0.01638013 0.01613482 0.54509804 0.71372549 0.60000000
v 0.00911601 -0.01633016 0.01647551 0.54509804 0.71372549 0.60000000
v 0.00278103 -0.01564879 0.01686616 0.54509804 0.71372549 0.60000000
v 0.00278103 -0.01674352 -0.01577142 0.54509804 0.71372549 0.60000000
v 0.00911601 -0.01640284 -0.01640736 0.54509804 0.71372549 0.60000000
v 0.00911601 -0.01514458 0.01756570 0.54509804 0.71372549 0.60000000
v 0.00278103 -0.01516729 0.01728861 0.54509804 0.71372549 0.60000000
v 0.00278103 -0.01564879 -0.01686615 0.54509804 0.71372549 0.60000000
v 0.00911601 -0.01578961 -0.01699788 0.54509804 0.71372549 0.60000000
v 0.00278103 -0.01433148 0.01799723 0.54509804 0.71372549 0.60000000
v 0.00278103 -0.01447684 0.01787913 0.54509804 0.71372549 0.60000000
v 0.00911601 -0.01399080 0.01849236 0.54509804 0.71372549 0.60000000
v 0.00278103 -0.01504465 -0.01739308 0.54509804 0.71372549 0.60000000
v 0.00911601 -0.01514458 -0.01756569 0.54509804 0.71372549 0.60000000
v 0.00911601 -0.01302326 0.01919644 0.54509804 0.71372549 0.60000000
v 0.00278103 -0.01384998 0.01833791 0.54509804 0.71372549 0.60000000
v 0.00278103 -0.01433148 -0.01799722 0.54509804 0.71372549 0.60000000
v 0.00911601 -0.01448138 -0.01811987 0.54509804 0.71372549 0.60000000
v 0.00278103 -0.01372734 0.01842422 0.54509804 0.71372549 0.60000000
v 0.00911601 -0.01244183 0.01957801 0.54509804 0.71372549 0.60000000
v 0.00278103 -0.01372734 -0.01842421 0.54509804 0.71372549 0.60000000
v 0.00911601 -0.01306414 -0.01916918 0.54509804 0.71372549 0.60000000
v 0.00911601 -0.01399080 -0.01849235 0.54509804 0.71372549 0.60000000
v 0.00278103 -0.01270075 0.01847873 0.54509804 0.71372549 0.60000000
v 0.00911601 -0.01240549 0.01960072 0.54509804 0.71372549 0.60000000
v 0.00911601 -0.01139252 0.02020032 0.54509804 0.71372549 0.60000000
v 0.00665482 -0.01059305 0.02041836 0.54509804 0.71372549 0.60000000
v 0.00665482 -0.00998891 0.02072271 0.54509804 0.71372549 0.60000000
v 0.00582202 -0.00988443 0.02066820 0.54509804 0.71372549 0.60000000
v 0.00598573 -0.00731795 0.02179927 0.54509804 0.71372549 0.60000000
v 0.00578419 -0.00665475 0.02189920 0.54509804 0.71372549 0.60000000
v 0.00557336 -0.00544192 0.02206273 0.54509804 0.71372549 0.60000000
v 0.00552375 -0.00423363 0.02219446 0.54509804 0.71372549 0.60000000
v 0.00550949 -0.00302080 0.02229440 0.54509804 0.71372549 0.60000000
v 0.00550515 -0.00181251 0.02235799 0.54509804 0.71372549 0.60000000
v 0.00278103 -0.01270075 -0.01847872 0.54509804 0.71372549 0.60000000
v 0.00550515 -0.00181251 -0.02235798 0.54509804 0.71372549 0.60000000
v 0.00550949 -0.00302080 -0.02229439 0.54509804 0.71372549 0.60000000
v 0.00552375 -0.00423363 -0.02219445 0.54509804 0.71372549 0.60000000
v 0.00557336 -0.00544192 -0.02206272 0.54509804 0.71372549 0.60000000
v 0.00578419 -0.00665475 -0.02189920 0.54509804 0.71372549 0.60000000
v 0.00598573 -0.00731795 -0.02179926 0.54509804 0.71372549 0.60000000
v 0.00582202 -0.00988443 -0.02066819 0.54509804 0.71372549 0.60000000
v 0.00665482 -0.00998891 -0.02072270 0.54509804 0.71372549 0.60000000
v 0.00665482 -0.01059305 -0.02041836 0.54509804 0.71372549 0.60000000
v 0.00911601 -0.01080200 -0.02052737 0.54509804 0.71372549 0.60000000
v 0.00911601 -0.01139252 -0.02020032 0.54509804 0.71372549 0.60000000
v 0.00911601 -0.01244183 -0.01957800 0.54509804 0.71372549 0.60000000
v 0.00278103 0.01270060 0.01847873 0.54509804 0.71372549 0.60000000
v 0.00559878 -0.00069507 0.02250335 0.54509804 0.71372549 0.60000000
v 0.00911601 -0.01032051 0.02076813 0.54509804 0.71372549 0.60000000
v 0.00911601 -0.01030234 0.02077721 0.54509804 0.71372549 0.60000000
v 0.00911601 -0.00907588 0.02134048 0.54509804 0.71372549 0.60000000
v 0.00665482 -0.00907133 0.02113607 0.54509804 0.71372549 0.60000000
v 0.00911601 -0.00822644 0.02168571 0.54509804 0.71372549 0.60000000
v 0.00911601 -0.00820373 0.02169479 0.54509804 0.71372549 0.60000000
v 0.00911601 -0.00761775 0.02191283 0.54509804 0.71372549 0.60000000
v 0.00911601 -0.00665021 0.02222626 0.54509804 0.71372549 0.60000000
v 0.00665482 -0.00544192 0.02234891 0.54509804 0.71372549 0.60000000
v 0.00665482 -0.00423363 0.02261237 0.54509804 0.71372549 0.60000000
v 0.00665482 -0.00302080 0.02280769 0.54509804 0.71372549 0.60000000
v 0.00602417 -0.00034984 0.02299393 0.54509804 0.71372549 0.60000000
v 0.00278103 0.01270060 -0.01847872 0.54509804 0.71372549 0.60000000
v 0.00559878 -0.00069507 -0.02250334 0.54509804 0.71372549 0.60000000
v 0.00602417 -0.00034984 -0.02299393 0.54509804 0.71372549 0.60000000
v 0.00665482 -0.00302080 -0.02280769 0.54509804 0.71372549 0.60000000
v 0.00665482 -0.00423363 -0.02261236 0.54509804 0.71372549 0.60000000
v 0.00665482 -0.00544192 -0.02234890 0.54509804 0.71372549 0.60000000
v 0.00911601 -0.00665021 -0.02222625 0.54509804 0.71372549 0.60000000
v 0.00911601 -0.00761775 -0.02191282 0.54509804 0.71372549 0.60000000
v 0.00911601 -0.00822644 -0.02168570 0.54509804 0.71372549 0.60000000
v 0.00911601 -0.00907588 -0.02134047 0.54509804 0.71372549 0.60000000
v 0.00665482 -0.00907133 -0.02113606 0.54509804 0.71372549 0.60000000
v 0.00911601 -0.01027508 -0.02079083 0.54509804 0.71372549 0.60000000
v 0.00278103 0.01373628 0.01842876 0.54509804 0.71372549 0.60000000
v 0.00559878 0.00070401 0.02250335 0.54509804 0.71372549 0.60000000
v 0.00550515 0.00181236 0.02235799 0.54509804 0.71372549 0.60000000
v 0.00911601 -0.00544192 0.02254423 0.54509804 0.71372549 0.60000000
v 0.00911601 -0.00419729 0.02281224 0.54509804 0.71372549 0.60000000
v 0.00911601 -0.00417004 0.02281678 0.54509804 0.71372549 0.60000000
v 0.00911601 -0.00302080 0.02300302 0.54509804 0.71372549 0.60000000
v 0.00911601 -0.00183068 0.02314384 0.54509804 0.71372549 0.60000000
v 0.00665482 -0.00181251 0.02293488 0.54509804 0.71372549 0.60000000
v 0.00911601 -0.00060422 0.02320289 0.54509804 0.71372549 0.60000000
v 0.00602417 0.00036786 0.02299393 0.54509804 0.71372549 0.60000000
v 0.00278103 0.01290955 -0.01846964 0.54509804 0.71372549 0.60000000
v 0.00550515 0.00181236 -0.02235798 0.54509804 0.71372549 0.60000000
v 0.00559878 0.00070401 -0.02250334 0.54509804 0.71372549 0.60000000
v 0.00602417 0.00036786 -0.02299393 0.54509804 0.71372549 0.60000000
v 0.00911601 -0.00060422 -0.02320288 0.54509804 0.71372549 0.60000000
v 0.00911601 -0.00183068 -0.02314383 0.54509804 0.71372549 0.60000000
v 0.00665482 -0.00181251 -0.02293488 0.54509804 0.71372549 0.60000000
v 0.00911601 -0.00194878 -0.02313020 0.54509804 0.71372549 0.60000000
v 0.00911601 -0.00279368 -0.02303027 0.54509804 0.71372549 0.60000000
v 0.00911601 -0.00302080 -0.02300301 0.54509804 0.71372549 0.60000000
v 0.00911601 -0.00332060 -0.02296213 0.54509804 0.71372549 0.60000000
v 0.00911601 -0.00544192 -0.02254423 0.54509804 0.71372549 0.60000000
v 0.00911601 -0.00417004 -0.02281677 0.54509804 0.71372549 0.60000000
v 0.00911601 -0.00547826 -0.02253514 0.54509804 0.71372549 0.60000000
v 0.00911601 0.01305491 0.01918735 0.54509804 0.71372549 0.60000000
v 0.00278103 0.01421777 0.01809262 0.54509804 0.71372549 0.60000000
v 0.00550949 0.00302065 0.02229440 0.54509804 0.71372549 0.60000000
v 0.00552313 0.00423348 0.02219446 0.54509804 0.71372549 0.60000000
v 0.00557212 0.00544177 0.02206727 0.54509804 0.71372549 0.60000000
v 0.00577923 0.00665461 0.02190374 0.54509804 0.71372549 0.60000000
v 0.00598139 0.00732235 0.02179927 0.54509804 0.71372549 0.60000000
v 0.00581830 0.00989337 0.02067274 0.54509804 0.71372549 0.60000000
v 0.00665482 0.00999785 0.02072271 0.54509804 0.71372549 0.60000000
v 0.00665482 0.01060199 0.02042290 0.54509804 0.71372549 0.60000000
v 0.00911601 0.01081548 0.02053192 0.54509804 0.71372549 0.60000000
v 0.00911601 0.01139692 0.02020941 0.54509804 0.71372549 0.60000000
v 0.00911601 0.01245076 0.01958255 0.54509804 0.71372549 0.60000000
v 0.00911601 0.00060407 0.02319834 0.54509804 0.71372549 0.60000000
v 0.00911601 0.00182145 0.02313930 0.54509804 0.71372549 0.60000000
v 0.00665482 0.00181236 0.02293488 0.54509804 0.71372549 0.60000000
v 0.00665482 0.00302065 0.02280769 0.54509804 0.71372549 0.60000000
v 0.00278103 0.01373628 -0.01842876 0.54509804 0.71372549 0.60000000
v 0.00550949 0.00302065 -0.02229439 0.54509804 0.71372549 0.60000000
v 0.00911601 0.00182145 -0.02313929 0.54509804 0.71372549 0.60000000
v 0.00911601 0.00060407 -0.02319834 0.54509804 0.71372549 0.60000000
v 0.00552313 0.00423348 -0.02219445 0.54509804 0.71372549 0.60000000
v 0.00557212 0.00544177 -0.02206727 0.54509804 0.71372549 0.60000000
v 0.00665482 0.00302065 -0.02280769 0.54509804 0.71372549 0.60000000
v 0.00665482 0.00181236 -0.02293488 0.54509804 0.71372549 0.60000000
v 0.00911601 0.01398157 0.01851053 0.54509804 0.71372549 0.60000000
v 0.00911539 0.01398157 0.01851053 0.54509804 0.71372549 0.60000000
v 0.00278103 0.01434042 0.01800631 0.54509804 0.71372549 0.60000000
v 0.00665482 0.00423348 0.02261691 0.54509804 0.71372549 0.60000000
v 0.00665482 0.00544177 0.02235345 0.54509804 0.71372549 0.60000000
v 0.00911601 0.00665006 0.02223080 0.54509804 0.71372549 0.60000000
v 0.00911601 0.00670003 0.02221717 0.54509804 0.71372549 0.60000000
v 0.00911601 0.00763123 0.02191737 0.54509804 0.71372549 0.60000000
v 0.00911601 0.00826263 0.02168571 0.54509804 0.71372549 0.60000000
v 0.00911601 0.00907573 0.02135411 0.54509804 0.71372549 0.60000000
v 0.00665482 0.00907119 0.02114061 0.54509804 0.71372549 0.60000000
v 0.00911601 0.01031127 0.02078630 0.54509804 0.71372549 0.60000000
v 0.00911601 0.00277536 0.02303028 0.54509804 0.71372549 0.60000000
v 0.00911601 0.00302065 0.02299848 0.54509804 0.71372549 0.60000000
v 0.00911601 0.00331591 0.02295760 0.54509804 0.71372549 0.60000000
v 0.00278103 0.01434042 -0.01800631 0.54509804 0.71372549 0.60000000
v 0.00911601 0.01303674 -0.01920098 0.54509804 0.71372549 0.60000000
v 0.00911601 0.01241897 -0.01960525 0.54509804 0.71372549 0.60000000
v 0.00911601 0.01139692 -0.02020940 0.54509804 0.71372549 0.60000000
v 0.00911601 0.01032490 -0.02078175 0.54509804 0.71372549 0.60000000
v 0.00665482 0.01060199 -0.02042290 0.54509804 0.71372549 0.60000000
v 0.00665482 0.00999785 -0.02072270 0.54509804 0.71372549 0.60000000
v 0.00581830 0.00989337 -0.02067273 0.54509804 0.71372549 0.60000000
v 0.00598139 0.00732235 -0.02179926 0.54509804 0.71372549 0.60000000
v 0.00577923 0.00665461 -0.02190374 0.54509804 0.71372549 0.60000000
v 0.00911601 0.00302065 -0.02299847 0.54509804 0.71372549 0.60000000
v 0.00665482 0.00423348 -0.02261690 0.54509804 0.71372549 0.60000000
v 0.00911601 0.01449032 0.01812442 0.54509804 0.71372549 0.60000000
v 0.00911601 0.01514898 0.01757024 0.54509804 0.71372549 0.60000000
v 0.00278103 0.01505358 0.01740217 0.54509804 0.71372549 0.60000000
v 0.00911601 0.00544177 0.02254877 0.54509804 0.71372549 0.60000000
v 0.00911601 0.00416989 0.02281678 0.54509804 0.71372549 0.60000000
v 0.00911601 0.00547811 0.02253969 0.54509804 0.71372549 0.60000000
v 0.00278103 0.01505358 -0.01740216 0.54509804 0.71372549 0.60000000
v 0.00911601 0.01511264 -0.01760203 0.54509804 0.71372549 0.60000000
v 0.00911539 0.01398157 -0.01851052 0.54509804 0.71372549 0.60000000
v 0.00911601 0.01398157 -0.01851052 0.54509804 0.71372549 0.60000000
v 0.00911601 0.00907573 -0.02135410 0.54509804 0.71372549 0.60000000
v 0.00665482 0.00907119 -0.02114061 0.54509804 0.71372549 0.60000000
v 0.00911601 0.00821266 -0.02170387 0.54509804 0.71372549 0.60000000
v 0.00911601 0.00763123 -0.02191737 0.54509804 0.71372549 0.60000000
v 0.00911601 0.00665006 -0.02223080 0.54509804 0.71372549 0.60000000
v 0.00911601 0.00660464 -0.02224442 0.54509804 0.71372549 0.60000000
v 0.00665482 0.00544177 -0.02235344 0.54509804 0.71372549 0.60000000
v 0.00911601 0.00420169 -0.02281223 0.54509804 0.71372549 0.60000000
v 0.00911601 0.00544177 -0.02254877 0.54509804 0.71372549 0.60000000
v 0.00911601 0.01579400 0.01700243 0.54509804 0.71372549 0.60000000
v 0.00278103 0.01553508 0.01697972 0.54509804 0.71372549 0.60000000
v 0.00278103 0.01565773 -0.01687069 0.54509804 0.71372549 0.60000000
v 0.00911601 0.01514898 -0.01757023 0.54509804 0.71372549 0.60000000
v 0.00911601 0.01641178 0.01641191 0.54509804 0.71372549 0.60000000
v 0.00278103 0.01565773 0.01687070 0.54509804 0.71372549 0.60000000
v 0.00278103 0.01626642 -0.01626654 0.54509804 0.71372549 0.60000000
v 0.00911601 0.01633456 -0.01648913 0.54509804 0.71372549 0.60000000
v 0.00911601 0.01700229 0.01579414 0.54509804 0.71372549 0.60000000
v 0.00278103 0.01687056 0.01565786 0.54509804 0.71372549 0.60000000
v 0.00278103 0.01626642 0.01626655 0.54509804 0.71372549 0.60000000
v 0.00278103 0.01614377 0.01638920 0.54509804 0.71372549 0.60000000
v 0.00278103 0.01638906 -0.01614390 0.54509804 0.71372549 0.60000000
v 0.00911601 0.01641178 -0.01641191 0.54509804 0.71372549 0.60000000
v 0.00911601 0.01757464 0.01514911 0.54509804 0.71372549 0.60000000
v 0.00911601 0.01760644 0.01511277 0.54509804 0.71372549 0.60000000
v 0.00278103 0.01729301 0.01517182 0.54509804 0.71372549 0.60000000
v 0.00278103 0.01687056 -0.01565786 0.54509804 0.71372549 0.60000000
v 0.00911601 0.01753376 -0.01519453 0.54509804 0.71372549 0.60000000
v 0.00911601 0.01812882 0.01449499 0.54509804 0.71372549 0.60000000
v 0.00278103 0.01788353 0.01448137 0.54509804 0.71372549 0.60000000
v 0.00278103 0.01697958 -0.01553521 0.54509804 0.71372549 0.60000000
v 0.00911601 0.01757464 -0.01514910 0.54509804 0.71372549 0.60000000
v 0.00911601 0.01851947 0.01397715 0.54509804 0.71372549 0.60000000
v 0.00278103 0.01800163 0.01433601 0.54509804 0.71372549 0.60000000
v 0.00278103 0.01752013 -0.01490835 0.54509804 0.71372549 0.60000000
v 0.00278103 0.01800163 -0.01433600 0.54509804 0.71372549 0.60000000
v 0.00911167 0.01851493 -0.01398169 0.54509804 0.71372549 0.60000000
v 0.00911601 0.01851493 -0.01398169 0.54509804 0.71372549 0.60000000
v 0.00911601 0.01920083 0.01303686 0.54509804 0.71372549 0.60000000
v 0.00278103 0.01834231 0.01385451 0.54509804 0.71372549 0.60000000
v 0.00278103 0.01842862 -0.01373185 0.54509804 0.71372549 0.60000000
v 0.00911601 0.01918721 -0.01305503 0.54509804 0.71372549 0.60000000
v 0.00911601 0.01958694 0.01245089 0.54509804 0.71372549 0.60000000
v 0.00278103 0.01842862 0.01373186 0.54509804 0.71372549 0.60000000
v 0.00581582 0.02067259 -0.00989348 0.54509804 0.71372549 0.60000000
v 0.00665482 0.02072710 -0.01000249 0.54509804 0.71372549 0.60000000
v 0.00665482 0.02042729 -0.01061118 0.54509804 0.71372549 0.60000000
v 0.00911601 0.02022288 -0.01137886 0.54509804 0.71372549 0.60000000
v 0.00911601 0.01958694 -0.01245088 0.54509804 0.71372549 0.60000000
v 0.00278103 0.01844225 -0.01352290 0.54509804 0.71372549 0.60000000
v 0.00550949 0.02229424 -0.00302073 0.54509804 0.71372549 0.60000000
v 0.00552313 0.02219885 -0.00423357 0.54509804 0.71372549 0.60000000
v 0.00557088 0.02206712 -0.00544186 0.54509804 0.71372549 0.60000000
v 0.00577613 0.02190359 -0.00665470 0.54509804 0.71372549 0.60000000
v 0.00597829 0.02180366 -0.00732244 0.54509804 0.71372549 0.60000000
v 0.00911601 0.02020017 0.01141520 0.54509804 0.71372549 0.60000000
v 0.00278103 0.01848767 0.01270072 0.54509804 0.71372549 0.60000000
v 0.00911601 0.02053177 0.01082014 0.54509804 0.71372549 0.60000000
v 0.00665482 0.02042729 0.01061119 0.54509804 0.71372549 0.60000000
v 0.00665482 0.02072710 0.01000250 0.54509804 0.71372549 0.60000000
v 0.00581582 0.02067259 0.00989348 0.54509804 0.71372549 0.60000000
v 0.00597829 0.02180366 0.00732245 0.54509804 0.71372549 0.60000000
v 0.00577613 0.02190359 0.00665471 0.54509804 0.71372549 0.60000000
v 0.00557088 0.02206712 0.00544187 0.54509804 0.71372549 0.60000000
v 0.00552313 0.02219885 0.00423358 0.54509804 0.71372549 0.60000000
v 0.00550949 0.02229424 0.00302074 0.54509804 0.71372549 0.60000000
v 0.00665482 0.02114500 -0.00907129 0.54509804 0.71372549 0.60000000
v 0.00911601 0.02134033 -0.00911217 0.54509804 0.71372549 0.60000000
v 0.00911601 0.02079977 -0.01028867 0.54509804 0.71372549 0.60000000
v 0.00911601 0.02076798 -0.01035226 0.54509804 0.71372549 0.60000000
v 0.00278103 0.01848767 -0.01270072 0.54509804 0.71372549 0.60000000
v 0.00548034 0.02238055 -0.00060414 0.54509804 0.71372549 0.60000000
v 0.00561243 0.02248502 -0.00169888 0.54509804 0.71372549 0.60000000
v 0.00604712 0.02298924 -0.00121738 0.54509804 0.71372549 0.60000000
v 0.00665482 0.02261675 -0.00423357 0.54509804 0.71372549 0.60000000
v 0.00665482 0.02236238 -0.00544186 0.54509804 0.71372549 0.60000000
v 0.00911601 0.02223973 -0.00665016 0.54509804 0.71372549 0.60000000
v 0.00911601 0.02192176 -0.00764041 0.54509804 0.71372549 0.60000000
v 0.00911601 0.02168555 -0.00826727 0.54509804 0.71372549 0.60000000
v 0.00548034 0.02238055 0.00060415 0.54509804 0.71372549 0.60000000
v 0.00911601 0.02079069 0.01031139 0.54509804 0.71372549 0.60000000
v 0.00911601 0.02135395 0.00907584 0.54509804 0.71372549 0.60000000
v 0.00665482 0.02114500 0.00907130 0.54509804 0.71372549 0.60000000
v 0.00911601 0.02170372 0.00822185 0.54509804 0.71372549 0.60000000
v 0.00911601 0.02192176 0.00764042 0.54509804 0.71372549 0.60000000
v 0.00911601 0.02223973 0.00665016 0.54509804 0.71372549 0.60000000
v 0.00665482 0.02236238 0.00544187 0.54509804 0.71372549 0.60000000
v 0.00665482 0.02261675 0.00423358 0.54509804 0.71372549 0.60000000
v 0.00604712 0.02298924 0.00121738 0.54509804 0.71372549 0.60000000
v 0.00561243 0.02248502 0.00169888 0.54509804 0.71372549 0.60000000
v 0.00602479 0.02299378 -0.00060414 0.54509804 0.71372549 0.60000000
v 0.00911601 0.02320273 -0.00064503 0.54509804 0.71372549 0.60000000
v 0.00911601 0.02314822 -0.00183969 0.54509804 0.71372549 0.60000000
v 0.00911601 0.02313459 -0.00196234 0.54509804 0.71372549 0.60000000
v 0.00911601 0.02301195 -0.00302073 0.54509804 0.71372549 0.60000000
v 0.00665482 0.02281208 -0.00302073 0.54509804 0.71372549 0.60000000
v 0.00911601 0.02283025 -0.00416089 0.54509804 0.71372549 0.60000000
v 0.00911601 0.02255770 -0.00544186 0.54509804 0.71372549 0.60000000
v 0.00911601 0.02254862 -0.00547820 0.54509804 0.71372549 0.60000000
v 0.00602479 0.02299378 0.00060415 0.54509804 0.71372549 0.60000000
v 0.00911601 0.02255770 0.00544187 0.54509804 0.71372549 0.60000000
v 0.00911601 0.02282116 0.00420178 0.54509804 0.71372549 0.60000000
v 0.00911601 0.02282571 0.00417907 0.54509804 0.71372549 0.60000000
v 0.00911601 0.02296652 0.00334325 0.54509804 0.71372549 0.60000000
v 0.00665482 0.02281208 0.00302074 0.54509804 0.71372549 0.60000000
v 0.00911601 0.02320727 0.00060415 0.54509804 0.71372549 0.60000000
v 0.00911601 0.02301195 0.00302074 0.54509804 0.71372549 0.60000000
v 0.00911601 0.02314822 0.00183970 0.54509804 0.71372549 0.60000000
v 0.00911601 0.02320727 0.00056327 0.54509804 0.71372549 0.60000000
f 1 2 3
f 1 3 4
f 1 4 5
f 1 5 21
f 1 21 33
f 1 33 32
f 1 32 55
f 1 55 54
f 1 54 74
f 1 74 73
f 1 73 72
f 1 72 70
f 1 70 69
f 1 69 48
f 1 48 47
f 1 47 46
f 1 46 45
f 1 45 68
f 1 68 77
f 1 77 80
f 1 80 79
f 1 79 85
f 1 85 90
f 1 90 94
f 1 94 99
f 1 99 103
f 1 103 108
f 1 108 107
f 1 107 133
f 1 133 132
f 1 132 131
f 1 131 159
f 1 159 157
f 1 157 156
f 1 156 155
f 1 155 154
f 1 154 184
f 1 184 182
f 1 182 183
f 1 183 181
f 1 181 180
f 1 180 179
f 1 179 178
f 1 178 176
f 1 176 175
f 1 175 205
f 1 205 204
f 1 204 235
f 1 235 254
f 1 254 255
f 1 255 252
f 1 252 251
f 1 251 250
f 1 250 249
f 1 249 247
f 1 247 229
f 1 229 228
f 1 228 227
f 1 227 226
f 1 226 246
f 1 246 244
f 1 244 259
f 1 259 263
f 1 263 269
f 1 269 274
f 1 274 278
f 1 278 284
f 1 284 288
f 1 288 295
f 1 295 294
f 1 294 316
f 1 316 315
f 1 315 314
f 1 314 325
f 1 325 324
f 1 324 323
f 1 323 345
f 1 345 344
f 1 344 343
f 1 343 341
f 1 341 340
f 1 340 339
f 1 339 338
f 1 338 355
f 1 355 352
f 1 352 354
f 1 354 353
f 1 353 350
f 1 350 349
f 1 349 348
f 1 348 347
f 1 347 332
f 1 332 331
f 1 331 330
f 1 330 328
f 1 328 327
f 1 327 304
f 1 304 302
f 1 302 289
f 1 289 285
f 1 285 279
f 1 279 275
f 1 275 271
f 1 271 270
f 1 270 264
f 1 264 260
f 1 260 256
f 1 256 238
f 1 238 237
f 1 237 210
f 1 210 185
f 1 185 197
f 1 197 196
f 1 196 195
f 1 195 221
f 1 221 219
f 1 219 218
f 1 218 217
f 1 217 216
f 1 216 215
f 1 215 242
f 1 242 240
f 1 240 241
f 1 241 224
f 1 224 223
f 1 223 222
f 1 222 199
f 1 199 198
f 1 198 169
f 1 169 167
f 1 167 166
f 1 166 165
f 1 165 164
f 1 164 163
f 1 163 143
f 1 143 142
f 1 142 141
f 1 141 140
f 1 140 138
f 1 138 137
f 1 137 136
f 1 136 111
f 1 111 110
f 1 110 105
f 1 105 100
f 1 100 97
f 1 97 91
f 1 91 87
f 1 87 82
f 1 82 75
f 1 75 65
f 1 65 64
f 1 64 63
f 1 63 42
f 1 42 41
f 1 41 40
f 1 40 62
f 1 62 60
f 1 60 59
f 1 59 58
f 1 58 57
f 1 57 56
f 1 56 34
f 1 34 22
f 1 22 6
f 1 6 2
f 2 6 7
f 2 7 8
f 2 8 3
f 3 8 7
f 3 7 9
f 3 9 10
f 3 10 11
f 3 11 12
f 3 12 13
f 3 13 14
f 3 14 4
f 4 14 15
f 4 15 16
f 4 16 17
f 4 17 18
f 4 18 19
f 4 19 20
f 4 20 21
f 4 21 5
f 6 22 7
f 7 22 23
f 7 23 9
f 9 23 24
f 9 24 25
f 9 25 10
f 10 25 11
f 11 25 12
f 12 25 26
f 12 26 13
f 13 26 27
f 13 27 14
f 14 27 15
f 15 27 28
f 15 28 29
f 15 29 16
f 16 29 17
f 17 29 18
f 18 30 31
f 18 31 19
f 18 29 30
f 19 32 33
f 19 33 21
f 19 21 20
f 19 31 32
f 22 34 23
f 23 34 35
f 23 35 24
f 24 35 36
f 24 36 25
f 25 37 38
f 25 38 39
f 25 39 40
f 25 40 41
f 25 41 42
f 25 42 43
f 25 43 66
f 25 66 76
f 25 76 81
f 25 81 86
f 25 86 88
f 25 88 92
f 25 92 96
f 25 96 95
f 25 95 101
f 25 101 104
f 25 104 109
f 25 109 134
f 25 134 160
f 25 160 186
f 25 186 212
f 25 212 239
f 25 239 257
f 25 257 261
f 25 261 267
f 25 267 266
f 25 266 265
f 25 265 272
f 25 272 276
f 25 276 280
f 25 280 286
f 25 286 290
f 25 290 303
f 25 303 317
f 25 317 296
f 25 296 287
f 25 287 282
f 25 282 281
f 25 281 277
f 25 277 273
f 25 273 268
f 25 268 262
f 25 262 258
f 25 258 243
f 25 243 225
f 25 225 202
f 25 202 171
f 25 171 148
f 25 148 121
f 25 121 106
f 25 106 102
f 25 102 98
f 25 98 93
f 25 93 89
f 25 89 84
f 25 84 83
f 25 83 78
f 25 78 67
f 25 67 44
f 25 44 29
f 25 29 28
f 25 28 27
f 25 27 26
f 25 36 37
f 29 44 45
f 29 45 46
f 29 46 47
f 29 47 48
f 29 48 49
f 29 49 50
f 29 50 51
f 29 51 52
f 29 52 30
f 30 52 53
f 30 53 31
f 31 53 54
f 31 54 55
f 31 55 32
f 34 56 35
f 35 56 57
f 35 57 36
f 36 57 58
f 36 58 59
f 36 59 60
f 36 60 61
f 36 61 37
f 37 61 38
f 38 61 60
f 38 60 62
f 38 62 39
f 39 62 40
f 42 63 43
f 43 63 64
f 43 64 65
f 43 65 66
f 44 67 45
f 45 67 68
f 48 69 49
f 49 69 50
f 50 69 70
f 50 70 71
f 50 71 51
f 51 71 52
f 52 72 73
f 52 73 74
f 52 74 53
f 52 71 70
f 52 70 72
f 53 74 54
f 65 75 66
f 66 75 76
f 67 77 68
f 67 78 79
f 67 79 80
f 67 80 77
f 75 81 76
f 75 82 81
f 78 83 79
f 79 83 84
f 79 84 85
f 81 82 86
f 82 87 88
f 82 88 86
f 84 89 90
f 84 90 85
f 87 91 88
f 88 91 92
f 89 93 90
f 90 93 94
f 91 95 96
f 91 96 92
f 91 97 95
f 93 98 99
f 93 99 94
f 95 97 100
f 95 100 101
f 98 102 99
f 99 102 103
f 100 104 101
f 100 105 104
f 102 106 107
f 102 107 108
f 102 108 103
f 104 105 110
f 104 110 111
f 104 111 112
f 104 112 113
f 104 113 114
f 104 114 115
f 104 115 116
f 104 116 117
f 104 117 118
f 104 118 119
f 104 119 120
f 104 120 109
f 106 121 122
f 106 122 123
f 106 123 124
f 106 124 125
f 106 125 126
f 106 126 127
f 106 127 128
f 106 128 129
f 106 129 130
f 106 130 131
f 106 131 132
f 106 132 133
f 106 133 107
f 109 120 135
f 109 135 161
f 109 161 134
f 111 136 112
f 112 136 113
f 113 136 137
f 113 137 138
f 113 138 139
f 113 139 114
f 114 139 115
f 115 139 138
f 115 138 140
f 115 140 141
f 115 141 142
f 115 142 143
f 115 143 144
f 115 144 145
f 115 145 116
f 116 145 117
f 117 145 146
f 117 146 147
f 117 147 118
f 118 147 119
f 119 147 120
f 120 147 135
f 121 148 173
f 121 173 149
f 121 149 122
f 122 149 150
f 122 150 123
f 123 150 124
f 124 150 125
f 125 150 151
f 125 151 152
f 125 152 126
f 126 152 127
f 127 152 153
f 127 153 154
f 127 154 155
f 127 155 156
f 127 156 157
f 127 157 158
f 127 158 128
f 128 158 129
f 129 159 131
f 129 131 130
f 129 158 157
f 129 157 159
f 134 161 162
f 134 162 160
f 135 147 170
f 135 170 161
f 143 163 144
f 144 163 145
f 145 163 164
f 145 164 165
f 145 165 166
f 145 166 146
f 146 166 167
f 146 167 168
f 146 168 147
f 147 167 169
f 147 169 170
f 147 168 167
f 148 171 172
f 148 172 173
f 149 173 174
f 149 174 150
f 150 174 175
f 150 175 176
f 150 176 177
f 150 177 151
f 151 177 176
f 151 176 178
f 151 178 179
f 151 179 180
f 151 180 181
f 151 181 152
f 152 182 153
f 152 181 183
f 152 183 182
f 153 182 184
f 153 184 154
f 160 185 186
f 160 162 187
f 160 187 188
f 160 188 189
f 160 189 190
f 160 190 191
f 160 191 192
f 160 192 193
f 160 193 194
f 160 194 195
f 160 195 196
f 160 196 197
f 160 197 185
f 161 170 162
f 162 170 187
f 169 198 170
f 170 198 199
f 170 199 200
f 170 200 201
f 170 201 189
f 170 189 188
f 170 188 187
f 171 202 172
f 172 203 174
f 172 174 173
f 172 202 203
f 174 204 205
f 174 205 175
f 174 203 206
f 174 206 207
f 174 207 208
f 174 208 209
f 174 209 204
f 185 210 211
f 185 211 212
f 185 212 186
f 189 201 213
f 189 213 190
f 190 213 214
f 190 214 191
f 191 214 215
f 191 215 216
f 191 216 217
f 191 217 218
f 191 218 219
f 191 219 220
f 191 220 192
f 192 220 193
f 193 221 194
f 193 220 219
f 193 219 221
f 194 221 195
f 199 222 201
f 199 201 200
f 201 222 223
f 201 223 224
f 201 224 213
f 202 225 226
f 202 226 227
f 202 227 228
f 202 228 229
f 202 229 230
f 202 230 231
f 202 231 232
f 202 232 233
f 202 233 234
f 202 234 207
f 202 207 206
f 202 206 203
f 204 209 208
f 204 208 235
f 207 234 236
f 207 236 208
f 208 236 235
f 210 237 211
f 211 237 212
f 212 237 238
f 212 238 239
f 213 240 214
f 213 224 241
f 213 241 240
f 214 240 242
f 214 242 215
f 225 243 244
f 225 244 245
f 225 245 226
f 226 245 246
f 229 247 231
f 229 231 230
f 231 247 248
f 231 248 232
f 232 248 233
f 233 248 247
f 233 247 249
f 233 249 250
f 233 250 251
f 233 251 252
f 233 252 253
f 233 253 234
f 234 253 236
f 235 236 254
f 236 253 255
f 236 255 254
f 238 256 257
f 238 257 239
f 243 258 259
f 243 259 244
f 244 246 245
f 252 255 253
f 256 260 261
f 256 261 257
f 258 262 263
f 258 263 259
f 260 264 265
f 260 265 266
f 260 266 267
f 260 267 261
f 262 268 269
f 262 269 263
f 264 270 265
f 265 270 271
f 265 271 272
f 268 273 269
f 269 273 274
f 271 275 276
f 271 276 272
f 273 277 278
f 273 278 274
f 275 279 280
f 275 280 276
f 277 281 278
f 278 281 282
f 278 282 283
f 278 283 284
f 279 285 280
f 280 285 286
f 282 287 288
f 282 288 283
f 283 288 284
f 285 289 290
f 285 290 286
f 287 291 292
f 287 292 293
f 287 293 294
f 287 294 295
f 287 295 288
f 287 296 297
f 287 297 298
f 287 298 299
f 287 299 300
f 287 300 301
f 287 301 291
f 289 302 290
f 290 302 304
f 290 304 305
f 290 305 306
f 290 306 307
f 290 307 308
f 290 308 309
f 290 309 310
f 290 310 311
f 290 311 312
f 290 312 303
f 291 313 292
f 291 301 313
f 292 313 314
f 292 314 315
f 292 315 293
f 293 315 316
f 293 316 294
f 296 317 297
f 297 318 319
f 297 319 320
f 297 320 298
f 297 317 318
f 298 320 299
f 299 320 321
f 299 321 300
f 300 321 322
f 300 322 301
f 301 322 323
f 301 323 324
f 301 324 325
f 301 325 314
f 301 314 313
f 303 312 326
f 303 326 318
f 303 318 317
f 304 327 305
f 305 327 306
f 306 327 328
f 306 328 329
f 306 329 307
f 307 329 308
f 308 330 331
f 308 331 332
f 308 332 333
f 308 333 309
f 308 329 328
f 308 328 330
f 309 333 334
f 309 334 310
f 310 334 335
f 310 335 311
f 311 335 312
f 312 335 336
f 312 336 326
f 318 337 319
f 318 326 346
f 318 346 337
f 319 337 320
f 320 337 338
f 320 338 339
f 320 339 340
f 320 340 341
f 320 341 342
f 320 342 321
f 321 342 343
f 321 343 322
f 322 344 345
f 322 345 323
f 322 343 344
f 326 336 346
f 332 347 333
f 333 347 348
f 333 348 334
f 334 348 349
f 334 349 350
f 334 350 351
f 334 351 335
f 335 352 346
f 335 346 336
f 335 351 353
f 335 353 354
f 335 354 352
f 337 346 352
f 337 352 355
f 337 355 338
f 341 343 342
f 350 353 351

