# https://github.com/mikedh/trimesh
v -0.04537650 -0.00060387 0.01269592 0.08627451 0.01960784 0.83137255
v -0.04658557 -0.00060387 0.01262042 0.08627451 0.01960784 0.83137255
v -0.04537650 -0.00181326 0.01260212 0.08627451 0.01960784 0.83137255
v -0.04504029 -0.00181326 0.01250374 0.08627451 0.01960784 0.83137255
v -0.04504029 -0.00060387 0.01257466 0.08627451 0.01960784 0.83137255
v -0.04537650 0.00060307 0.01266160 0.08627451 0.01960784 0.83137255
v -0.04658557 0.00060307 0.01266160 0.08627451 0.01960784 0.83137255
v -0.05747356 -0.00060387 0.01046518 0.08627451 0.01960784 0.83137255
v -0.05747356 -0.00181326 0.01031876 0.08627451 0.01960784 0.83137255
v -0.04658557 -0.00181326 0.01245798 0.08627451 0.01960784 0.83137255
v -0.04537650 -0.00302266 0.01238248 0.08627451 0.01960784 0.83137255
v -0.04504029 -0.00302266 0.01232070 0.08627451 0.01960784 0.83137255
v -0.04504029 0.00060307 0.01253119 0.08627451 0.01960784 0.83137255
v -0.04504029 0.00113540 0.01246255 0.08627451 0.01960784 0.83137255
v -0.04504029 0.00181492 0.01237332 0.08627451 0.01960784 0.83137255
v -0.04537650 0.00181492 0.01250145 0.08627451 0.01960784 0.83137255
v -0.04658557 0.00181492 0.01257238 0.08627451 0.01960784 0.83137255
v -0.05747356 0.00060307 0.01046747 0.08627451 0.01960784 0.83137255
v -0.05879155 -0.00058915 0.00994811 0.08627451 0.01960784 0.83137255
v -0.05855636 -0.00181326 0.00993209 0.08627451 0.01960784 0.83137255
v -0.05829276 -0.00302266 0.00979024 0.08627451 0.01960784 0.83137255
v -0.05810967 -0.00366292 0.00969415 0.08627451 0.01960784 0.83137255
v -0.05747356 -0.00302266 0.01003276 0.08627451 0.01960784 0.83137255
v -0.04611520 -0.00377822 0.01215368 0.08627451 0.01960784 0.83137255
v -0.04537650 -0.00383710 0.01217199 0.08627451 0.01960784 0.83137255
v -0.04504029 -0.00380030 0.01215597 0.08627451 0.01960784 0.83137255
v -0.04504029 0.00218289 0.01231155 0.08627451 0.01960784 0.83137255
v -0.04504029 0.00273484 0.01218800 0.08627451 0.01960784 0.83137255
v -0.04539702 0.00296789 0.01224978 0.08627451 0.01960784 0.83137255
v -0.04581372 0.00378969 0.01215597 0.08627451 0.01960784 0.83137255
v -0.04658557 0.00302431 0.01235502 0.08627451 0.01960784 0.83137255
v -0.04723430 0.00370137 0.01212165 0.08627451 0.01960784 0.83137255
v -0.05747356 0.00181492 0.01031876 0.08627451 0.01960784 0.83137255
v -0.05878997 0.00058590 0.00994811 0.08627451 0.01960784 0.83137255
v -0.05855321 0.00181492 0.00993209 0.08627451 0.01960784 0.83137255
v -0.05930296 0.00017132 0.00968957 0.08627451 0.01960784 0.83137255
v -0.05930296 -0.00017703 0.00968957 0.08627451 0.01960784 0.83137255
v -0.05926666 -0.00098411 0.00966440 0.08627451 0.01960784 0.83137255
v -0.05916248 -0.00181326 0.00959577 0.08627451 0.01960784 0.83137255
v -0.05889888 -0.00302266 0.00943561 0.08627451 0.01960784 0.83137255
v -0.05747356 -0.00383464 0.00976736 0.08627451 0.01960784 0.83137255
v -0.05868580 -0.00423205 0.00907412 0.08627451 0.01960784 0.83137255
v -0.05845534 -0.00522066 0.00869889 0.08627451 0.01960784 0.83137255
v -0.05802759 -0.00602774 0.00845408 0.08627451 0.01960784 0.83137255
v -0.05747356 -0.00444057 0.00949281 0.08627451 0.01960784 0.83137255
v -0.04537650 -0.00544390 0.01151077 0.08627451 0.01960784 0.83137255
v -0.04537650 -0.00444302 0.01195234 0.08627451 0.01960784 0.83137255
v -0.04504029 -0.00411430 0.01204386 0.08627451 0.01960784 0.83137255
v -0.04504029 0.00330397 0.01201412 0.08627451 0.01960784 0.83137255
v -0.04658557 0.00380441 0.01215826 0.08627451 0.01960784 0.83137255
v -0.04504029 0.00341191 0.01197522 0.08627451 0.01960784 0.83137255
v -0.04539702 0.00420917 0.01180592 0.08627451 0.01960784 0.83137255
v -0.04577110 0.00623055 0.01100056 0.08627451 0.01960784 0.83137255
v -0.04658557 0.00544310 0.01152450 0.08627451 0.01960784 0.83137255
v -0.04658557 0.00441033 0.01195234 0.08627451 0.01960784 0.83137255
v -0.04745213 0.00625999 0.01101200 0.08627451 0.01960784 0.83137255
v -0.05747356 0.00383875 0.00976736 0.08627451 0.01960784 0.83137255
v -0.05810651 0.00366212 0.00969186 0.08627451 0.01960784 0.83137255
v -0.05747356 0.00302431 0.01003276 0.08627451 0.01960784 0.83137255
v -0.05828961 0.00302431 0.00978795 0.08627451 0.01960784 0.83137255
v -0.05926508 0.00097595 0.00966212 0.08627451 0.01960784 0.83137255
v -0.05915774 0.00181492 0.00959348 0.08627451 0.01960784 0.83137255
v -0.06045521 -0.00060387 0.00838545 0.08627451 0.01960784 0.83137255
v -0.05974334 0.00058590 0.00918623 0.08627451 0.01960784 0.83137255
v -0.06045363 0.00060307 0.00838316 0.08627451 0.01960784 0.83137255
v -0.05974492 -0.00058915 0.00918623 0.08627451 0.01960784 0.83137255
v -0.05978596 -0.00181326 0.00898946 0.08627451 0.01960784 0.83137255
v -0.05964863 -0.00302266 0.00883159 0.08627451 0.01960784 0.83137255
v -0.05947185 -0.00399410 0.00864398 0.08627451 0.01960784 0.83137255
v -0.05926350 -0.00480118 0.00844951 0.08627451 0.01960784 0.83137255
v -0.05878997 -0.00555183 0.00827105 0.08627451 0.01960784 0.83137255
v -0.05939135 -0.00617493 0.00736731 0.08627451 0.01960784 0.83137255
v -0.05860529 -0.00660913 0.00758467 0.08627451 0.01960784 0.83137255
v -0.05814913 -0.00730337 0.00730554 0.08627451 0.01960784 0.83137255
v -0.05756511 -0.00660177 0.00809945 0.08627451 0.01960784 0.83137255
v -0.05722101 -0.00616512 0.00855475 0.08627451 0.01960784 0.83137255
v -0.05756511 -0.00555183 0.00885447 0.08627451 0.01960784 0.83137255
v -0.04614203 -0.00619701 0.01098226 0.08627451 0.01960784 0.83137255
v -0.04537650 -0.00632457 0.01105318 0.08627451 0.01960784 0.83137255
v -0.04504029 -0.00630495 0.01103946 0.08627451 0.01960784 0.83137255
v -0.04504029 -0.00545862 0.01143527 0.08627451 0.01960784 0.83137255
v -0.04504029 0.00460903 0.01141697 0.08627451 0.01960784 0.83137255
v -0.04537176 0.00543819 0.01121105 0.08627451 0.01960784 0.83137255
v -0.04658557 0.00634340 0.01106462 0.08627451 0.01960784 0.83137255
v -0.04504029 0.00576446 0.01082210 0.08627451 0.01960784 0.83137255
v -0.04504029 0.00603185 0.01064135 0.08627451 0.01960784 0.83137255
v -0.04530705 0.00669910 0.01033020 0.08627451 0.01960784 0.83137255
v -0.04564956 0.00755279 0.00992523 0.08627451 0.01960784 0.83137255
v -0.04658557 0.00776621 0.01007852 0.08627451 0.01960784 0.83137255
v -0.04658557 0.00694932 0.01068254 0.08627451 0.01960784 0.83137255
v -0.05803548 0.00602940 0.00845637 0.08627451 0.01960784 0.83137255
v -0.05756985 0.00555349 0.00886134 0.08627451 0.01960784 0.83137255
v -0.05747356 0.00444222 0.00949739 0.08627451 0.01960784 0.83137255
v -0.04779622 0.00766563 0.00997328 0.08627451 0.01960784 0.83137255
v -0.05889415 0.00302431 0.00943561 0.08627451 0.01960784 0.83137255
v -0.05846166 0.00522477 0.00870118 0.08627451 0.01960784 0.83137255
v -0.05868737 0.00423616 0.00907640 0.08627451 0.01960784 0.83137255
v -0.05978438 0.00181492 0.00898946 0.08627451 0.01960784 0.83137255
v -0.05965021 0.00302431 0.00883159 0.08627451 0.01960784 0.83137255
v -0.06072986 0.00060307 0.00777914 0.08627451 0.01960784 0.83137255
v -0.06072986 -0.00060387 0.00778143 0.08627451 0.01960784 0.83137255
v -0.06069671 -0.00181326 0.00768076 0.08627451 0.01960784 0.83137255
v -0.06039049 -0.00181326 0.00828478 0.08627451 0.01960784 0.83137255
v -0.06038891 0.00181492 0.00828249 0.08627451 0.01960784 0.83137255
v -0.06069829 0.00181492 0.00767847 0.08627451 0.01960784 0.83137255
v -0.06025317 -0.00302266 0.00809945 0.08627451 0.01960784 0.83137255
v -0.05994380 -0.00429338 0.00789583 0.08627451 0.01960784 0.83137255
v -0.05960602 -0.00544390 0.00762814 0.08627451 0.01960784 0.83137255
v -0.06024212 -0.00550032 0.00667636 0.08627451 0.01960784 0.83137255
v -0.05962654 -0.00660913 0.00660772 0.08627451 0.01960784 0.83137255
v -0.05938819 -0.00736715 0.00617301 0.08627451 0.01960784 0.83137255
v -0.05895570 -0.00698201 0.00698065 0.08627451 0.01960784 0.83137255
v -0.05860529 -0.00758548 0.00660772 0.08627451 0.01960784 0.83137255
v -0.05803232 -0.00845634 0.00603116 0.08627451 0.01960784 0.83137255
v -0.05756669 -0.00810064 0.00660314 0.08627451 0.01960784 0.83137255
v -0.05747356 -0.00741376 0.00741536 0.08627451 0.01960784 0.83137255
v -0.04537650 -0.00835331 0.00956602 0.08627451 0.01960784 0.83137255
v -0.04537650 -0.00774984 0.01006022 0.08627451 0.01960784 0.83137255
v -0.04537650 -0.00693049 0.01066423 0.08627451 0.01960784 0.83137255
v -0.04504029 -0.00669009 0.01079236 0.08627451 0.01960784 0.83137255
v -0.04504029 0.00524930 0.01111267 0.08627451 0.01960784 0.83137255
v -0.04504029 0.00696894 0.00990235 0.08627451 0.01960784 0.83137255
v -0.04504029 0.00753316 0.00939214 0.08627451 0.01960784 0.83137255
v -0.04568429 0.00874501 0.00876524 0.08627451 0.01960784 0.83137255
v -0.04658557 0.00837214 0.00958433 0.08627451 0.01960784 0.83137255
v -0.04779622 0.00827156 0.00953170 0.08627451 0.01960784 0.83137255
v -0.05756985 0.00660588 0.00810861 0.08627451 0.01960784 0.83137255
v -0.05816176 0.00731238 0.00731240 0.08627451 0.01960784 0.83137255
v -0.05861319 0.00661324 0.00759153 0.08627451 0.01960784 0.83137255
v -0.05939293 0.00618149 0.00736960 0.08627451 0.01960784 0.83137255
v -0.05879313 0.00555349 0.00827563 0.08627451 0.01960784 0.83137255
v -0.05926823 0.00481019 0.00845180 0.08627451 0.01960784 0.83137255
v -0.05947343 0.00400311 0.00864627 0.08627451 0.01960784 0.83137255
v -0.06025633 0.00302431 0.00810174 0.08627451 0.01960784 0.83137255
v -0.06101713 0.00181492 0.00665348 0.08627451 0.01960784 0.83137255
v -0.06105817 0.00060307 0.00665348 0.08627451 0.01960784 0.83137255
v -0.06105817 -0.00060387 0.00665348 0.08627451 0.01960784 0.83137255
v -0.06101555 -0.00181326 0.00665348 0.08627451 0.01960784 0.83137255
v -0.06090664 -0.00302266 0.00665348 0.08627451 0.01960784 0.83137255
v -0.06061937 -0.00302266 0.00749315 0.08627451 0.01960784 0.83137255
v -0.06062095 0.00302431 0.00749544 0.08627451 0.01960784 0.83137255
v -0.06090980 0.00302431 0.00665348 0.08627451 0.01960784 0.83137255
v -0.06054518 -0.00378803 0.00734215 0.08627451 0.01960784 0.83137255
v -0.06041575 -0.00459266 0.00709276 0.08627451 0.01960784 0.83137255
v -0.06045679 -0.00593943 0.00593964 0.08627451 0.01960784 0.83137255
v -0.06023897 -0.00667291 0.00550035 0.08627451 0.01960784 0.83137255
v -0.05960128 -0.00762964 0.00544316 0.08627451 0.01960784 0.83137255
v -0.05926666 -0.00845144 0.00480711 0.08627451 0.01960784 0.83137255
v -0.05879155 -0.00827236 0.00555298 0.08627451 0.01960784 0.83137255
v -0.05846008 -0.00869675 0.00522351 0.08627451 0.01960784 0.83137255
v -0.05810020 -0.00968781 0.00365170 0.08627451 0.01960784 0.83137255
v -0.05747356 -0.00949156 0.00442960 0.08627451 0.01960784 0.83137255
v -0.05756669 -0.00885375 0.00555298 0.08627451 0.01960784 0.83137255
v -0.05722575 -0.00855447 0.00616386 0.08627451 0.01960784 0.83137255
v -0.04537650 -0.00954062 0.00828478 0.08627451 0.01960784 0.83137255
v -0.04537650 -0.00893470 0.00895972 0.08627451 0.01960784 0.83137255
v -0.04504029 -0.00894451 0.00895972 0.08627451 0.01960784 0.83137255
v -0.04504029 -0.00834104 0.00956374 0.08627451 0.01960784 0.83137255
v -0.04504029 -0.00773512 0.01004192 0.08627451 0.01960784 0.83137255
v -0.04504029 0.00816607 0.00866686 0.08627451 0.01960784 0.83137255
v -0.04504029 0.00859782 0.00814979 0.08627451 0.01960784 0.83137255
v -0.04533861 0.00908600 0.00789125 0.08627451 0.01960784 0.83137255
v -0.04580109 0.00983665 0.00749086 0.08627451 0.01960784 0.83137255
v -0.04658557 0.00957907 0.00833511 0.08627451 0.01960784 0.83137255
v -0.04658557 0.00897315 0.00898031 0.08627451 0.01960784 0.83137255
v -0.04779622 0.00955700 0.00835113 0.08627451 0.01960784 0.83137255
v -0.04779622 0.00895353 0.00892540 0.08627451 0.01960784 0.83137255
v -0.05747356 0.00742523 0.00742451 0.08627451 0.01960784 0.83137255
v -0.05756985 0.00810965 0.00660543 0.08627451 0.01960784 0.83137255
v -0.05803706 0.00845554 0.00603116 0.08627451 0.01960784 0.83137255
v -0.05861319 0.00759449 0.00661458 0.08627451 0.01960784 0.83137255
v -0.05896833 0.00698857 0.00699209 0.08627451 0.01960784 0.83137255
v -0.06024686 0.00550688 0.00667636 0.08627451 0.01960784 0.83137255
v -0.05960760 0.00544310 0.00763271 0.08627451 0.01960784 0.83137255
v -0.05939766 0.00737371 0.00618445 0.08627451 0.01960784 0.83137255
v -0.05963600 0.00661324 0.00661458 0.08627451 0.01960784 0.83137255
v -0.05994538 0.00429994 0.00789812 0.08627451 0.01960784 0.83137255
v -0.06054676 0.00378723 0.00734443 0.08627451 0.01960784 0.83137255
v -0.06102029 0.00423370 0.00544316 0.08627451 0.01960784 0.83137255
v -0.06111973 0.00302431 0.00544316 0.08627451 0.01960784 0.83137255
v -0.06115129 0.00181492 0.00544316 0.08627451 0.01960784 0.83137255
v -0.06116076 0.00060307 0.00544316 0.08627451 0.01960784 0.83137255
v -0.06116076 -0.00060387 0.00544316 0.08627451 0.01960784 0.83137255
v -0.06115129 -0.00181326 0.00544316 0.08627451 0.01960784 0.83137255
v -0.06111815 -0.00302266 0.00544316 0.08627451 0.01960784 0.83137255
v -0.06101713 -0.00423450 0.00544316 0.08627451 0.01960784 0.83137255
v -0.06069355 -0.00420752 0.00667636 0.08627451 0.01960784 0.83137255
v -0.06069513 0.00420917 0.00667636 0.08627451 0.01960784 0.83137255
v -0.06060042 -0.00513480 0.00628741 0.08627451 0.01960784 0.83137255
v -0.06073617 -0.00550032 0.00550035 0.08627451 0.01960784 0.83137255
v -0.06060042 -0.00628287 0.00513428 0.08627451 0.01960784 0.83137255
v -0.06041259 -0.00708995 0.00458747 0.08627451 0.01960784 0.83137255
v -0.05994222 -0.00789703 0.00429461 0.08627451 0.01960784 0.83137255
v -0.05947343 -0.00864278 0.00400175 0.08627451 0.01960784 0.83137255
v -0.05888467 -0.00943269 0.00302480 0.08627451 0.01960784 0.83137255
v -0.05868264 -0.00907208 0.00423055 0.08627451 0.01960784 0.83137255
v -0.05828014 -0.00978349 0.00302480 0.08627451 0.01960784 0.83137255
v -0.05747356 -0.01002389 0.00302480 0.08627451 0.01960784 0.83137255
v -0.05747356 -0.00976141 0.00382330 0.08627451 0.01960784 0.83137255
v -0.04504029 -0.01101005 0.00625995 0.08627451 0.01960784 0.83137255
v -0.04537650 -0.00998464 0.00768076 0.08627451 0.01960784 0.83137255
v -0.04504029 -0.00954798 0.00830537 0.08627451 0.01960784 0.83137255
v -0.04504029 -0.01000917 0.00769906 0.08627451 0.01960784 0.83137255
v -0.04504029 0.00901976 0.00755721 0.08627451 0.01960784 0.83137255
v -0.04558169 0.01008442 0.00665348 0.08627451 0.01960784 0.83137255
v -0.04602365 0.01086942 0.00600370 0.08627451 0.01960784 0.83137255
v -0.04649087 0.01066581 0.00667407 0.08627451 0.01960784 0.83137255
v -0.04658557 0.01002064 0.00772881 0.08627451 0.01960784 0.83137255
v -0.04779622 0.01066581 0.00693261 0.08627451 0.01960784 0.83137255
v -0.04779622 0.01005989 0.00774711 0.08627451 0.01960784 0.83137255
v -0.05879155 0.00827892 0.00555298 0.08627451 0.01960784 0.83137255
v -0.04854440 0.01097736 0.00618445 0.08627451 0.01960784 0.83137255
v -0.05756985 0.00886276 0.00555298 0.08627451 0.01960784 0.83137255
v -0.05747356 0.00949812 0.00445019 0.08627451 0.01960784 0.83137255
v -0.05811440 0.00969683 0.00367229 0.08627451 0.01960784 0.83137255
v -0.05846008 0.00870331 0.00522351 0.08627451 0.01960784 0.83137255
v -0.06045994 0.00595090 0.00595108 0.08627451 0.01960784 0.83137255
v -0.06041575 0.00459431 0.00709505 0.08627451 0.01960784 0.83137255
v -0.05926666 0.00845309 0.00480711 0.08627451 0.01960784 0.83137255
v -0.05961233 0.00763374 0.00544316 0.08627451 0.01960784 0.83137255
v -0.06025002 0.00667947 0.00550722 0.08627451 0.01960784 0.83137255
v -0.06060200 0.00514382 0.00628969 0.08627451 0.01960784 0.83137255
v -0.06102029 0.00544310 0.00423284 0.08627451 0.01960784 0.83137255
v -0.06114182 0.00423370 0.00423284 0.08627451 0.01960784 0.83137255
v -0.06073933 0.00550688 0.00550722 0.08627451 0.01960784 0.83137255
v -0.06116392 0.00302431 0.00423284 0.08627451 0.01960784 0.83137255
v -0.06116550 0.00181492 0.00423284 0.08627451 0.01960784 0.83137255
v -0.06116550 -0.00181326 0.00423284 0.08627451 0.01960784 0.83137255
v -0.06116392 -0.00302266 0.00423284 0.08627451 0.01960784 0.83137255
v -0.06114025 -0.00423450 0.00423284 0.08627451 0.01960784 0.83137255
v -0.06101713 -0.00544390 0.00423284 0.08627451 0.01960784 0.83137255
v -0.06069197 -0.00667291 0.00420538 0.08627451 0.01960784 0.83137255
v -0.06054360 -0.00734017 0.00378211 0.08627451 0.01960784 0.83137255
v -0.06025475 -0.00809818 0.00302480 0.08627451 0.01960784 0.83137255
v -0.05965021 -0.00882676 0.00302480 0.08627451 0.01960784 0.83137255
v -0.05914985 -0.00958969 0.00181448 0.08627451 0.01960784 0.83137255
v -0.05854373 -0.00992577 0.00181448 0.08627451 0.01960784 0.83137255
v -0.05747356 -0.01030845 0.00181448 0.08627451 0.01960784 0.83137255
v -0.04504029 -0.01193488 0.00392397 0.08627451 0.01960784 0.83137255
v -0.04504029 0.00952020 0.00665348 0.08627451 0.01960784 0.83137255
v -0.04504029 0.01023161 0.00523724 0.08627451 0.01960784 0.83137255
v -0.04583424 0.01102642 0.00519606 0.08627451 0.01960784 0.83137255
v -0.04663924 0.01178689 0.00420309 0.08627451 0.01960784 0.83137255
v -0.04707804 0.01214750 0.00377982 0.08627451 0.01960784 0.83137255
v -0.04649087 0.01124230 0.00553696 0.08627451 0.01960784 0.83137255
v -0.04683023 0.01102397 0.00628283 0.08627451 0.01960784 0.83137255
v -0.04779622 0.01105586 0.00632630 0.08627451 0.01960784 0.83137255
v -0.04779622 0.01151705 0.00544316 0.08627451 0.01960784 0.83137255
v -0.04852072 0.01214996 0.00377296 0.08627451 0.01960784 0.83137255
v -0.05747356 0.01004272 0.00302480 0.08627451 0.01960784 0.83137255
v -0.05830066 0.00979495 0.00302480 0.08627451 0.01960784 0.83137255
v -0.05890520 0.00943925 0.00302480 0.08627451 0.01960784 0.83137255
v -0.05869053 0.00907864 0.00423970 0.08627451 0.01960784 0.83137255
v -0.06060200 0.00629188 0.00514344 0.08627451 0.01960784 0.83137255
v -0.06041733 0.00709896 0.00460120 0.08627451 0.01960784 0.83137255
v -0.05994538 0.00789868 0.00430147 0.08627451 0.01960784 0.83137255
v -0.05947343 0.00864689 0.00400175 0.08627451 0.01960784 0.83137255
v -0.06111973 0.00544310 0.00302480 0.08627451 0.01960784 0.83137255
v -0.06069671 0.00667947 0.00421225 0.08627451 0.01960784 0.83137255
v -0.06091137 0.00665494 0.00302480 0.08627451 0.01960784 0.83137255
v -0.06101713 0.00665494 0.00181448 0.08627451 0.01960784 0.83137255
v -0.06115129 0.00544310 0.00181448 0.08627451 0.01960784 0.83137255
v -0.06116392 0.00423370 0.00302480 0.08627451 0.01960784 0.83137255
v -0.06116550 0.00302431 0.00302480 0.08627451 0.01960784 0.83137255
v -0.06116550 -0.00423450 0.00181448 0.08627451 0.01960784 0.83137255
v -0.06116392 -0.00423450 0.00302480 0.08627451 0.01960784 0.83137255
v -0.06114971 -0.00544390 0.00181448 0.08627451 0.01960784 0.83137255
v -0.06111815 -0.00544390 0.00302480 0.08627451 0.01960784 0.83137255
v -0.06101397 -0.00665329 0.00181448 0.08627451 0.01960784 0.83137255
v -0.06090506 -0.00665329 0.00302480 0.08627451 0.01960784 0.83137255
v -0.06061779 -0.00749226 0.00302480 0.08627451 0.01960784 0.83137255
v -0.06038734 -0.00827972 0.00181448 0.08627451 0.01960784 0.83137255
v -0.05978280 -0.00898376 0.00181448 0.08627451 0.01960784 0.83137255
v -0.05925876 -0.00965837 0.00091532 0.08627451 0.01960784 0.83137255
v -0.05878681 -0.00993558 0.00054925 0.08627451 0.01960784 0.83137255
v -0.05747356 -0.01044828 0.00060645 0.08627451 0.01960784 0.83137255
v -0.04504029 -0.01225624 0.00227894 0.08627451 0.01960784 0.83137255
v -0.04504029 -0.01214585 0.00302480 0.08627451 0.01960784 0.83137255
v -0.04504029 0.01049900 0.00414590 0.08627451 0.01960784 0.83137255
v -0.04571586 0.01116870 0.00423284 0.08627451 0.01960784 0.83137255
v -0.04630461 0.01189483 0.00302480 0.08627451 0.01960784 0.83137255
v -0.04690915 0.01223582 0.00302480 0.08627451 0.01960784 0.83137255
v -0.04779622 0.01261605 0.00181448 0.08627451 0.01960784 0.83137255
v -0.04779622 0.01239282 0.00302480 0.08627451 0.01960784 0.83137255
v -0.04779622 0.01217449 0.00385075 0.08627451 0.01960784 0.83137255
v -0.04779622 0.01195616 0.00445477 0.08627451 0.01960784 0.83137255
v -0.04877643 0.01225544 0.00302480 0.08627451 0.01960784 0.83137255
v -0.05747356 0.01032973 0.00181448 0.08627451 0.01960784 0.83137255
v -0.05917037 0.00960115 0.00181448 0.08627451 0.01960784 0.83137255
v -0.05856583 0.00993723 0.00181448 0.08627451 0.01960784 0.83137255
v -0.05965179 0.00883578 0.00302480 0.08627451 0.01960784 0.83137255
v -0.06054834 0.00734673 0.00379355 0.08627451 0.01960784 0.83137255
v -0.06025633 0.00810474 0.00302480 0.08627451 0.01960784 0.83137255
v -0.06105975 0.00665494 0.00060645 0.08627451 0.01960784 0.83137255
v -0.06062252 0.00749882 0.00302480 0.08627451 0.01960784 0.83137255
v -0.06069829 0.00768281 0.00181448 0.08627451 0.01960784 0.83137255
v -0.06073144 0.00778584 0.00060645 0.08627451 0.01960784 0.83137255
v -0.06116076 0.00544310 0.00060645 0.08627451 0.01960784 0.83137255
v -0.06116550 0.00423370 0.00181448 0.08627451 0.01960784 0.83137255
v -0.06116550 -0.00423450 -0.00181419 0.08627451 0.01960784 0.83137255
v -0.06116076 -0.00544390 0.00060645 0.08627451 0.01960784 0.83137255
v -0.06105659 -0.00665329 0.00060645 0.08627451 0.01960784 0.83137255
v -0.06072828 -0.00777192 0.00060645 0.08627451 0.01960784 0.83137255
v -0.06069671 -0.00767379 0.00181448 0.08627451 0.01960784 0.83137255
v -0.06044889 -0.00837784 0.00060645 0.08627451 0.01960784 0.83137255
v -0.05973860 -0.00918247 0.00054925 0.08627451 0.01960784 0.83137255
v -0.05929664 -0.00968536 0.00010997 0.08627451 0.01960784 0.83137255
v -0.05878681 -0.00993558 -0.00054667 0.08627451 0.01960784 0.83137255
v -0.05747356 -0.01044828 -0.00060387 0.08627451 0.01960784 0.83137255
v -0.04504029 -0.01234455 0.00060645 0.08627451 0.01960784 0.83137255
v -0.04504029 -0.01230776 0.00181448 0.08627451 0.01960784 0.83137255
v -0.04504029 0.01061430 0.00301337 0.08627451 0.01960784 0.83137255
v -0.04565430 0.01128891 0.00302480 0.08627451 0.01960784 0.83137255
v -0.04616571 0.01195125 0.00181448 0.08627451 0.01960784 0.83137255
v -0.04677025 0.01233149 0.00181448 0.08627451 0.01960784 0.83137255
v -0.04779622 0.01271172 0.00060645 0.08627451 0.01960784 0.83137255
v -0.04900530 0.01260133 0.00060645 0.08627451 0.01960784 0.83137255
v -0.04911263 0.01237319 0.00190600 0.08627451 0.01960784 0.83137255
v -0.05747356 0.01047447 0.00060645 0.08627451 0.01960784 0.83137255
v -0.05927297 0.00966739 0.00106404 0.08627451 0.01960784 0.83137255
v -0.05978596 0.00899523 0.00181448 0.08627451 0.01960784 0.83137255
v -0.05879628 0.00995686 0.00064077 0.08627451 0.01960784 0.83137255
v -0.06039049 0.00828627 0.00181448 0.08627451 0.01960784 0.83137255
v -0.06105975 0.00665494 -0.00060387 0.08627451 0.01960784 0.83137255
v -0.06045837 0.00839176 0.00060645 0.08627451 0.01960784 0.83137255
v -0.06073144 0.00778584 -0.00060387 0.08627451 0.01960784 0.83137255
v -0.06116076 0.00544310 -0.00060387 0.08627451 0.01960784 0.83137255
v -0.06116550 0.00423370 -0.00181419 0.08627451 0.01960784 0.83137255
v -0.06116392 -0.00423450 -0.00302451 0.08627451 0.01960784 0.83137255
v -0.06116076 -0.00544390 -0.00060387 0.08627451 0.01960784 0.83137255
v -0.06116550 -0.00181326 -0.00423483 0.08627451 0.01960784 0.83137255
v -0.06105659 -0.00665329 -0.00060387 0.08627451 0.01960784 0.83137255
v -0.06072828 -0.00777192 -0.00060387 0.08627451 0.01960784 0.83137255
v -0.06044889 -0.00837784 -0.00060387 0.08627451 0.01960784 0.83137255
v -0.05929664 -0.00968536 -0.00010738 0.08627451 0.01960784 0.83137255
v -0.05925876 -0.00965837 -0.00091274 0.08627451 0.01960784 0.83137255
v -0.05854373 -0.00992577 -0.00181419 0.08627451 0.01960784 0.83137255
v -0.04504029 -0.01228322 -0.00059014 0.08627451 0.01960784 0.83137255
v -0.04504029 -0.01229058 -0.00047117 0.08627451 0.01960784 0.83137255
v -0.05747356 -0.01030845 -0.00181419 0.08627451 0.01960784 0.83137255
v -0.04504029 0.01072223 0.00181448 0.08627451 0.01960784 0.83137255
v -0.04560852 0.01134533 0.00181448 0.08627451 0.01960784 0.83137255
v -0.04615939 0.01192182 0.00060645 0.08627451 0.01960784 0.83137255
v -0.04676393 0.01236583 0.00060645 0.08627451 0.01960784 0.83137255
v -0.04504029 0.01081545 0.00060645 0.08627451 0.01960784 0.83137255
v -0.04692020 0.01227997 -0.00019204 0.08627451 0.01960784 0.83137255
v -0.04779622 0.01241244 -0.00031101 0.08627451 0.01960784 0.83137255
v -0.04900530 0.01237319 -0.00027669 0.08627451 0.01960784 0.83137255
v -0.05747356 0.01004272 -0.00302451 0.08627451 0.01960784 0.83137255
v -0.05747356 0.01032973 -0.00181419 0.08627451 0.01960784 0.83137255
v -0.05747356 0.01047447 -0.00060387 0.08627451 0.01960784 0.83137255
v -0.05930927 0.00969683 0.00026097 0.08627451 0.01960784 0.83137255
v -0.05975281 0.00918903 0.00064077 0.08627451 0.01960784 0.83137255
v -0.05879628 0.00995686 -0.00063819 0.08627451 0.01960784 0.83137255
v -0.06101713 0.00665494 -0.00181419 0.08627451 0.01960784 0.83137255
v -0.06111973 0.00544310 -0.00302451 0.08627451 0.01960784 0.83137255
v -0.06115129 0.00544310 -0.00181419 0.08627451 0.01960784 0.83137255
v -0.06045837 0.00839176 -0.00060387 0.08627451 0.01960784 0.83137255
v -0.06069829 0.00768281 -0.00181419 0.08627451 0.01960784 0.83137255
v -0.06116392 0.00423370 -0.00302451 0.08627451 0.01960784 0.83137255
v -0.06116550 0.00181492 -0.00423483 0.08627451 0.01960784 0.83137255
v -0.06114025 -0.00423450 -0.00423483 0.08627451 0.01960784 0.83137255
v -0.06114971 -0.00544390 -0.00181419 0.08627451 0.01960784 0.83137255
v -0.06116392 -0.00302266 -0.00423483 0.08627451 0.01960784 0.83137255
v -0.06116076 -0.00060387 -0.00544286 0.08627451 0.01960784 0.83137255
v -0.06111815 -0.00544390 -0.00302451 0.08627451 0.01960784 0.83137255
v -0.06101397 -0.00665329 -0.00181419 0.08627451 0.01960784 0.83137255
v -0.06069671 -0.00767379 -0.00181419 0.08627451 0.01960784 0.83137255
v -0.06038734 -0.00827972 -0.00181419 0.08627451 0.01960784 0.83137255
v -0.05978280 -0.00898376 -0.00181419 0.08627451 0.01960784 0.83137255
v -0.05973860 -0.00918247 -0.00054667 0.08627451 0.01960784 0.83137255
v -0.05914985 -0.00958723 -0.00181419 0.08627451 0.01960784 0.83137255
v -0.05828014 -0.00978349 -0.00302451 0.08627451 0.01960784 0.83137255
v -0.04504029 -0.01228077 -0.00060387 0.08627451 0.01960784 0.83137255
v -0.05747356 -0.01002389 -0.00302451 0.08627451 0.01960784 0.83137255
v -0.04504029 -0.01210660 -0.00157167 0.08627451 0.01960784 0.83137255
v -0.04504029 0.01069770 -0.00062217 0.08627451 0.01960784 0.83137255
v -0.04504029 0.01066091 -0.00092418 0.08627451 0.01960784 0.83137255
v -0.04504029 0.01047937 -0.00181419 0.08627451 0.01960784 0.83137255
v -0.04504029 0.01040333 -0.00214823 0.08627451 0.01960784 0.83137255
v -0.04504029 0.01019727 -0.00302451 0.08627451 0.01960784 0.83137255
v -0.04504029 0.01010159 -0.00330135 0.08627451 0.01960784 0.83137255
v -0.04504029 0.00984892 -0.00402662 0.08627451 0.01960784 0.83137255
v -0.04504029 0.00958643 -0.00463293 0.08627451 0.01960784 0.83137255
v -0.04504029 0.00913506 -0.00544286 0.08627451 0.01960784 0.83137255
v -0.04504029 0.00899523 -0.00566936 0.08627451 0.01960784 0.83137255
v -0.04504029 0.00862481 -0.00625737 0.08627451 0.01960784 0.83137255
v -0.05505383 0.00862235 -0.00625737 0.08627451 0.01960784 0.83137255
v -0.05505383 0.00913506 -0.00544286 0.08627451 0.01960784 0.83137255
v -0.05626448 0.00911789 -0.00544286 0.08627451 0.01960784 0.83137255
v -0.05747356 0.00977042 -0.00384588 0.08627451 0.01960784 0.83137255
v -0.05626448 0.00957907 -0.00461691 0.08627451 0.01960784 0.83137255
v -0.05811440 0.00969683 -0.00367199 0.08627451 0.01960784 0.83137255
v -0.05830066 0.00979495 -0.00302451 0.08627451 0.01960784 0.83137255
v -0.05856583 0.00993723 -0.00181419 0.08627451 0.01960784 0.83137255
v -0.05930927 0.00969683 -0.00025839 0.08627451 0.01960784 0.83137255
v -0.05927297 0.00966739 -0.00106374 0.08627451 0.01960784 0.83137255
v -0.06091137 0.00665494 -0.00302451 0.08627451 0.01960784 0.83137255
v -0.06102029 0.00544310 -0.00423483 0.08627451 0.01960784 0.83137255
v -0.06114182 0.00423370 -0.00423483 0.08627451 0.01960784 0.83137255
v -0.06039049 0.00828627 -0.00181419 0.08627451 0.01960784 0.83137255
v -0.05975281 0.00918903 -0.00063819 0.08627451 0.01960784 0.83137255
v -0.05978596 0.00899523 -0.00181419 0.08627451 0.01960784 0.83137255
v -0.06062252 0.00749882 -0.00302451 0.08627451 0.01960784 0.83137255
v -0.06116392 0.00302431 -0.00423483 0.08627451 0.01960784 0.83137255
v -0.06116076 0.00060307 -0.00544286 0.08627451 0.01960784 0.83137255
v -0.06101713 -0.00423450 -0.00544286 0.08627451 0.01960784 0.83137255
v -0.06101713 -0.00544390 -0.00423483 0.08627451 0.01960784 0.83137255
v -0.06115129 -0.00181326 -0.00544286 0.08627451 0.01960784 0.83137255
v -0.06111815 -0.00302266 -0.00544286 0.08627451 0.01960784 0.83137255
v -0.06105817 -0.00060387 -0.00665318 0.08627451 0.01960784 0.83137255
v -0.06090506 -0.00665329 -0.00302451 0.08627451 0.01960784 0.83137255
v -0.06061779 -0.00749226 -0.00302451 0.08627451 0.01960784 0.83137255
v -0.05965021 -0.00882676 -0.00302451 0.08627451 0.01960784 0.83137255
v -0.06025475 -0.00809818 -0.00302451 0.08627451 0.01960784 0.83137255
v -0.05888467 -0.00943269 -0.00302451 0.08627451 0.01960784 0.83137255
v -0.05810020 -0.00968781 -0.00365369 0.08627451 0.01960784 0.83137255
v -0.05747356 -0.00976141 -0.00382300 0.08627451 0.01960784 0.83137255
v -0.04504029 -0.01191035 -0.00229694 0.08627451 0.01960784 0.83137255
v -0.04504029 0.00812927 -0.00686138 0.08627451 0.01960784 0.83137255
v -0.05505383 0.00812927 -0.00686138 0.08627451 0.01960784 0.83137255
v -0.05626448 0.00812191 -0.00684994 0.08627451 0.01960784 0.83137255
v -0.05626448 0.00861254 -0.00624364 0.08627451 0.01960784 0.83137255
v -0.05723048 0.00855857 -0.00617042 0.08627451 0.01960784 0.83137255
v -0.05756985 0.00886276 -0.00555497 0.08627451 0.01960784 0.83137255
v -0.05747356 0.00949812 -0.00444989 0.08627451 0.01960784 0.83137255
v -0.05803706 0.00845554 -0.00603086 0.08627451 0.01960784 0.83137255
v -0.05846008 0.00870331 -0.00522322 0.08627451 0.01960784 0.83137255
v -0.05869053 0.00907864 -0.00423940 0.08627451 0.01960784 0.83137255
v -0.05890520 0.00943925 -0.00302451 0.08627451 0.01960784 0.83137255
v -0.05917037 0.00960115 -0.00181419 0.08627451 0.01960784 0.83137255
v -0.06054834 0.00734673 -0.00379554 0.08627451 0.01960784 0.83137255
v -0.06069671 0.00667947 -0.00421195 0.08627451 0.01960784 0.83137255
v -0.06102029 0.00423370 -0.00544286 0.08627451 0.01960784 0.83137255
v -0.06073933 0.00550688 -0.00550692 0.08627451 0.01960784 0.83137255
v -0.06111973 0.00302431 -0.00544286 0.08627451 0.01960784 0.83137255
v -0.06115129 0.00181492 -0.00544286 0.08627451 0.01960784 0.83137255
v -0.06025633 0.00810474 -0.00302451 0.08627451 0.01960784 0.83137255
v -0.05965179 0.00883578 -0.00302451 0.08627451 0.01960784 0.83137255
v -0.06105817 0.00060307 -0.00665318 0.08627451 0.01960784 0.83137255
v -0.06101555 -0.00181326 -0.00665318 0.08627451 0.01960784 0.83137255
v -0.06090664 -0.00302266 -0.00665318 0.08627451 0.01960784 0.83137255
v -0.06069355 -0.00420752 -0.00667606 0.08627451 0.01960784 0.83137255
v -0.06073617 -0.00550032 -0.00550006 0.08627451 0.01960784 0.83137255
v -0.06069197 -0.00667291 -0.00420508 0.08627451 0.01960784 0.83137255
v -0.06072986 -0.00060387 -0.00778113 0.08627451 0.01960784 0.83137255
v -0.06054360 -0.00734017 -0.00378181 0.08627451 0.01960784 0.83137255
v -0.05947343 -0.00864278 -0.00400146 0.08627451 0.01960784 0.83137255
v -0.05994222 -0.00789703 -0.00429431 0.08627451 0.01960784 0.83137255
v -0.05926666 -0.00845144 -0.00480681 0.08627451 0.01960784 0.83137255
v -0.05868264 -0.00907208 -0.00423025 0.08627451 0.01960784 0.83137255
v -0.05846008 -0.00869675 -0.00522322 0.08627451 0.01960784 0.83137255
v -0.05803232 -0.00845634 -0.00603086 0.08627451 0.01960784 0.83137255
v -0.05747356 -0.00949156 -0.00442930 0.08627451 0.01960784 0.83137255
v -0.05626448 -0.00983745 -0.00400374 0.08627451 0.01960784 0.83137255
v -0.04504029 -0.01172146 -0.00278885 0.08627451 0.01960784 0.83137255
v -0.05626448 -0.00957497 -0.00460776 0.08627451 0.01960784 0.83137255
v -0.04504029 0.00796246 -0.00704670 0.08627451 0.01960784 0.83137255
v -0.04504029 0.00752580 -0.00752946 0.08627451 0.01960784 0.83137255
v -0.05505383 0.00752335 -0.00752717 0.08627451 0.01960784 0.83137255
v -0.05626448 0.00751599 -0.00751802 0.08627451 0.01960784 0.83137255
v -0.05747356 0.00742523 -0.00742421 0.08627451 0.01960784 0.83137255
v -0.05756985 0.00810965 -0.00660513 0.08627451 0.01960784 0.83137255
v -0.05816176 0.00731238 -0.00731211 0.08627451 0.01960784 0.83137255
v -0.05861319 0.00759449 -0.00661428 0.08627451 0.01960784 0.83137255
v -0.05939766 0.00737371 -0.00618415 0.08627451 0.01960784 0.83137255
v -0.05879155 0.00827892 -0.00555497 0.08627451 0.01960784 0.83137255
v -0.05926666 0.00845063 -0.00480910 0.08627451 0.01960784 0.83137255
v -0.05947343 0.00864689 -0.00400146 0.08627451 0.01960784 0.83137255
v -0.05994538 0.00789868 -0.00430118 0.08627451 0.01960784 0.83137255
v -0.06041733 0.00709896 -0.00460090 0.08627451 0.01960784 0.83137255
v -0.06060200 0.00629188 -0.00514543 0.08627451 0.01960784 0.83137255
v -0.06069513 0.00420917 -0.00667606 0.08627451 0.01960784 0.83137255
v -0.06090980 0.00302431 -0.00665318 0.08627451 0.01960784 0.83137255
v -0.06101713 0.00181492 -0.00665318 0.08627451 0.01960784 0.83137255
v -0.06045994 0.00595090 -0.00595078 0.08627451 0.01960784 0.83137255
v -0.06060200 0.00514382 -0.00628940 0.08627451 0.01960784 0.83137255
v -0.06072986 0.00060307 -0.00777885 0.08627451 0.01960784 0.83137255
v -0.06069671 -0.00181326 -0.00768046 0.08627451 0.01960784 0.83137255
v -0.06061937 -0.00302266 -0.00749285 0.08627451 0.01960784 0.83137255
v -0.06054518 -0.00378803 -0.00734185 0.08627451 0.01960784 0.83137255
v -0.06060042 -0.00513480 -0.00628711 0.08627451 0.01960784 0.83137255
v -0.06045521 -0.00593943 -0.00593934 0.08627451 0.01960784 0.83137255
v -0.06060042 -0.00628287 -0.00513399 0.08627451 0.01960784 0.83137255
v -0.06045521 -0.00060387 -0.00838744 0.08627451 0.01960784 0.83137255
v -0.06041259 -0.00708995 -0.00458717 0.08627451 0.01960784 0.83137255
v -0.05960128 -0.00762964 -0.00544286 0.08627451 0.01960784 0.83137255
v -0.05879155 -0.00827236 -0.00555268 0.08627451 0.01960784 0.83137255
v -0.05938819 -0.00736715 -0.00617271 0.08627451 0.01960784 0.83137255
v -0.05722575 -0.00855447 -0.00616356 0.08627451 0.01960784 0.83137255
v -0.05756669 -0.00885375 -0.00555268 0.08627451 0.01960784 0.83137255
v -0.05860529 -0.00758548 -0.00660742 0.08627451 0.01960784 0.83137255
v -0.05814913 -0.00730337 -0.00730524 0.08627451 0.01960784 0.83137255
v -0.05756669 -0.00810064 -0.00660284 0.08627451 0.01960784 0.83137255
v -0.04504029 -0.01114007 -0.00418220 0.08627451 0.01960784 0.83137255
v -0.04504029 -0.01124555 -0.00393053 0.08627451 0.01960784 0.83137255
v -0.05626448 -0.00910397 -0.00544286 0.08627451 0.01960784 0.83137255
v -0.04504029 -0.01081380 -0.00482740 0.08627451 0.01960784 0.83137255
v -0.04504029 0.00734427 -0.00769648 0.08627451 0.01960784 0.83137255
v -0.05505383 0.00686101 -0.00813348 0.08627451 0.01960784 0.83137255
v -0.05626448 0.00684874 -0.00812432 0.08627451 0.01960784 0.83137255
v -0.05722891 0.00617168 -0.00855903 0.08627451 0.01960784 0.83137255
v -0.05756985 0.00660588 -0.00810831 0.08627451 0.01960784 0.83137255
v -0.05803548 0.00602940 -0.00845608 0.08627451 0.01960784 0.83137255
v -0.05861319 0.00661324 -0.00759123 0.08627451 0.01960784 0.83137255
v -0.05896833 0.00698857 -0.00699179 0.08627451 0.01960784 0.83137255
v -0.05961233 0.00763374 -0.00544286 0.08627451 0.01960784 0.83137255
v -0.05939293 0.00618149 -0.00736930 0.08627451 0.01960784 0.83137255
v -0.05963600 0.00661324 -0.00661428 0.08627451 0.01960784 0.83137255
v -0.06025002 0.00667947 -0.00550692 0.08627451 0.01960784 0.83137255
v -0.06054676 0.00378723 -0.00734414 0.08627451 0.01960784 0.83137255
v -0.06062095 0.00302431 -0.00749743 0.08627451 0.01960784 0.83137255
v -0.06069829 0.00181492 -0.00767817 0.08627451 0.01960784 0.83137255
v -0.06024686 0.00550688 -0.00667606 0.08627451 0.01960784 0.83137255
v -0.06041575 0.00459431 -0.00709475 0.08627451 0.01960784 0.83137255
v -0.06045363 0.00060307 -0.00838286 0.08627451 0.01960784 0.83137255
v -0.06039049 -0.00181326 -0.00828448 0.08627451 0.01960784 0.83137255
v -0.06025317 -0.00302266 -0.00809916 0.08627451 0.01960784 0.83137255
v -0.05994380 -0.00429338 -0.00789553 0.08627451 0.01960784 0.83137255
v -0.06041575 -0.00459266 -0.00709246 0.08627451 0.01960784 0.83137255
v -0.06024212 -0.00550032 -0.00667606 0.08627451 0.01960784 0.83137255
v -0.05962654 -0.00660913 -0.00660742 0.08627451 0.01960784 0.83137255
v -0.06023897 -0.00667291 -0.00550006 0.08627451 0.01960784 0.83137255
v -0.05930296 0.00017132 -0.00968927 0.08627451 0.01960784 0.83137255
v -0.05930296 -0.00017703 -0.00968927 0.08627451 0.01960784 0.83137255
v -0.05974492 -0.00058915 -0.00918593 0.08627451 0.01960784 0.83137255
v -0.05978596 -0.00181326 -0.00899145 0.08627451 0.01960784 0.83137255
v -0.05895570 -0.00698201 -0.00698035 0.08627451 0.01960784 0.83137255
v -0.05939135 -0.00617493 -0.00736930 0.08627451 0.01960784 0.83137255
v -0.05626448 -0.00860353 -0.00622991 0.08627451 0.01960784 0.83137255
v -0.04504029 -0.00964611 -0.00641294 0.08627451 0.01960784 0.83137255
v -0.04504029 -0.00982519 -0.00618415 0.08627451 0.01960784 0.83137255
v -0.04504029 -0.01049489 -0.00528499 0.08627451 0.01960784 0.83137255
v -0.05747356 -0.00741376 -0.00741506 0.08627451 0.01960784 0.83137255
v -0.05626448 -0.00811536 -0.00683621 0.08627451 0.01960784 0.83137255
v -0.05860529 -0.00660913 -0.00758437 0.08627451 0.01960784 0.83137255
v -0.05802759 -0.00602774 -0.00845379 0.08627451 0.01960784 0.83137255
v -0.05756511 -0.00660177 -0.00810144 0.08627451 0.01960784 0.83137255
v -0.04504029 0.00686346 -0.00813348 0.08627451 0.01960784 0.83137255
v -0.04504029 0.00669665 -0.00827304 0.08627451 0.01960784 0.83137255
v -0.04504029 0.00625754 -0.00862538 0.08627451 0.01960784 0.83137255
v -0.05505383 0.00625508 -0.00861852 0.08627451 0.01960784 0.83137255
v -0.05626448 0.00624282 -0.00861166 0.08627451 0.01960784 0.83137255
v -0.05626448 0.00544310 -0.00911729 0.08627451 0.01960784 0.83137255
v -0.05756985 0.00555349 -0.00886104 0.08627451 0.01960784 0.83137255
v -0.05747356 0.00444222 -0.00949709 0.08627451 0.01960784 0.83137255
v -0.05810651 0.00366212 -0.00969156 0.08627451 0.01960784 0.83137255
v -0.05846166 0.00522477 -0.00870088 0.08627451 0.01960784 0.83137255
v -0.05926823 0.00481019 -0.00845379 0.08627451 0.01960784 0.83137255
v -0.05879313 0.00555349 -0.00827762 0.08627451 0.01960784 0.83137255
v -0.05960760 0.00544310 -0.00763242 0.08627451 0.01960784 0.83137255
v -0.06025633 0.00302431 -0.00810144 0.08627451 0.01960784 0.83137255
v -0.05994538 0.00429994 -0.00789782 0.08627451 0.01960784 0.83137255
v -0.06038891 0.00181492 -0.00828219 0.08627451 0.01960784 0.83137255
v -0.05978438 0.00181492 -0.00898916 0.08627451 0.01960784 0.83137255
v -0.05974334 0.00058590 -0.00918593 0.08627451 0.01960784 0.83137255
v -0.05964863 -0.00302266 -0.00883130 0.08627451 0.01960784 0.83137255
v -0.05947185 -0.00399410 -0.00864369 0.08627451 0.01960784 0.83137255
v -0.05926192 -0.00480118 -0.00844921 0.08627451 0.01960784 0.83137255
v -0.05960602 -0.00544390 -0.00762784 0.08627451 0.01960784 0.83137255
v -0.05926508 0.00097595 -0.00966182 0.08627451 0.01960784 0.83137255
v -0.05878997 0.00058590 -0.00995010 0.08627451 0.01960784 0.83137255
v -0.05879155 -0.00058915 -0.00994781 0.08627451 0.01960784 0.83137255
v -0.05926666 -0.00098411 -0.00966411 0.08627451 0.01960784 0.83137255
v -0.05916248 -0.00181326 -0.00959547 0.08627451 0.01960784 0.83137255
v -0.05878997 -0.00555183 -0.00827075 0.08627451 0.01960784 0.83137255
v -0.04504029 -0.00926833 -0.00685681 0.08627451 0.01960784 0.83137255
v -0.05626448 -0.00751189 -0.00750887 0.08627451 0.01960784 0.83137255
v -0.05722101 -0.00616512 -0.00855674 0.08627451 0.01960784 0.83137255
v -0.05626448 -0.00683727 -0.00811517 0.08627451 0.01960784 0.83137255
v -0.05756511 -0.00555183 -0.00885646 0.08627451 0.01960784 0.83137255
v -0.05845534 -0.00522066 -0.00869860 0.08627451 0.01960784 0.83137255
v -0.05810967 -0.00366292 -0.00969385 0.08627451 0.01960784 0.83137255
v -0.05747356 -0.00444057 -0.00949251 0.08627451 0.01960784 0.83137255
v -0.04504029 0.00603185 -0.00877410 0.08627451 0.01960784 0.83137255
v -0.05505383 0.00544310 -0.00913102 0.08627451 0.01960784 0.83137255
v -0.05505383 0.00463602 -0.00958632 0.08627451 0.01960784 0.83137255
v -0.05626448 0.00461885 -0.00957945 0.08627451 0.01960784 0.83137255
v -0.05747356 0.00383875 -0.00976706 0.08627451 0.01960784 0.83137255
v -0.05747356 0.00302431 -0.01003475 0.08627451 0.01960784 0.83137255
v -0.05828961 0.00302431 -0.00978766 0.08627451 0.01960784 0.83137255
v -0.05889415 0.00302431 -0.00943531 0.08627451 0.01960784 0.83137255
v -0.05868737 0.00423616 -0.00907611 0.08627451 0.01960784 0.83137255
v -0.05947343 0.00400311 -0.00864597 0.08627451 0.01960784 0.83137255
v -0.05965021 0.00302431 -0.00883130 0.08627451 0.01960784 0.83137255
v -0.05915774 0.00181492 -0.00959318 0.08627451 0.01960784 0.83137255
v -0.05889888 -0.00302266 -0.00943531 0.08627451 0.01960784 0.83137255
v -0.05868580 -0.00423205 -0.00907382 0.08627451 0.01960784 0.83137255
v -0.05855321 0.00181492 -0.00993180 0.08627451 0.01960784 0.83137255
v -0.05747356 -0.00060387 -0.01046717 0.08627451 0.01960784 0.83137255
v -0.05747356 0.00060307 -0.01046717 0.08627451 0.01960784 0.83137255
v -0.05855636 -0.00181326 -0.00993180 0.08627451 0.01960784 0.83137255
v -0.05829276 -0.00302266 -0.00978994 0.08627451 0.01960784 0.83137255
v -0.04504029 -0.00867222 -0.00742879 0.08627451 0.01960784 0.83137255
v -0.04504029 -0.00800496 -0.00804196 0.08627451 0.01960784 0.83137255
v -0.04504029 -0.00849804 -0.00758895 0.08627451 0.01960784 0.83137255
v -0.05626448 -0.00544390 -0.00910585 0.08627451 0.01960784 0.83137255
v -0.05626448 -0.00623135 -0.00860708 0.08627451 0.01960784 0.83137255
v -0.05747356 -0.00181326 -0.01031846 0.08627451 0.01960784 0.83137255
v -0.05747356 -0.00302266 -0.01003247 0.08627451 0.01960784 0.83137255
v -0.05747356 -0.00383464 -0.00976706 0.08627451 0.01960784 0.83137255
v -0.05626448 -0.00460738 -0.00957259 0.08627451 0.01960784 0.83137255
v -0.04504029 0.00544310 -0.00914474 0.08627451 0.01960784 0.83137255
v -0.04504029 0.00523949 -0.00926372 0.08627451 0.01960784 0.83137255
v -0.04504029 0.00465564 -0.00959318 0.08627451 0.01960784 0.83137255
v -0.04504029 0.00448883 -0.00968699 0.08627451 0.01960784 0.83137255
v -0.04504029 0.00375044 -0.01002331 0.08627451 0.01960784 0.83137255
v -0.05505383 0.00403009 -0.00984943 0.08627451 0.01960784 0.83137255
v -0.05626448 0.00401538 -0.00984257 0.08627451 0.01960784 0.83137255
v -0.05626448 0.00302431 -0.01018347 0.08627451 0.01960784 0.83137255
v -0.05747356 0.00181492 -0.01031846 0.08627451 0.01960784 0.83137255
v -0.05626448 -0.00060387 -0.01060674 0.08627451 0.01960784 0.83137255
v -0.05626448 -0.00181326 -0.01046489 0.08627451 0.01960784 0.83137255
v -0.05626448 0.00181492 -0.01046717 0.08627451 0.01960784 0.83137255
v -0.05626448 0.00060307 -0.01060674 0.08627451 0.01960784 0.83137255
v -0.04504029 -0.00691823 -0.00885646 0.08627451 0.01960784 0.83137255
v -0.05626448 -0.00302266 -0.01017889 0.08627451 0.01960784 0.83137255
v -0.05626448 -0.00400146 -0.00983799 0.08627451 0.01960784 0.83137255
v -0.04504029 -0.00456322 -0.00997984 0.08627451 0.01960784 0.83137255
v -0.04504029 -0.00584376 -0.00940557 0.08627451 0.01960784 0.83137255
v -0.04504029 -0.00662631 -0.00900747 0.08627451 0.01960784 0.83137255
v -0.04504029 0.00299978 -0.01028414 0.08627451 0.01960784 0.83137255
v -0.05505383 0.00302431 -0.01019720 0.08627451 0.01960784 0.83137255
v -0.05505383 -0.00060387 -0.01061818 0.08627451 0.01960784 0.83137255
v -0.04504029 -0.00225728 -0.01052437 0.08627451 0.01960784 0.83137255
v -0.04504029 -0.00343478 -0.01031617 0.08627451 0.01960784 0.83137255
v -0.05505383 0.00181492 -0.01047861 0.08627451 0.01960784 0.83137255
v -0.05505383 0.00060307 -0.01061818 0.08627451 0.01960784 0.83137255
v -0.04504029 0.00181492 -0.01054954 0.08627451 0.01960784 0.83137255
v -0.04504029 -0.00060387 -0.01067538 0.08627451 0.01960784 0.83137255
v -0.04504029 -0.00107732 -0.01064563 0.08627451 0.01960784 0.83137255
v -0.04504029 0.00010018 -0.01067766 0.08627451 0.01960784 0.83137255
v -0.04504029 0.00060307 -0.01067538 0.08627451 0.01960784 0.83137255
f 1 2 3
f 1 3 4
f 1 4 5
f 1 5 6
f 1 6 7
f 1 7 2
f 2 8 9
f 2 9 10
f 2 10 3
f 2 7 8
f 3 10 11
f 3 11 12
f 3 12 4
f 4 12 26
f 4 26 48
f 4 48 81
f 4 81 80
f 4 80 120
f 4 120 159
f 4 159 158
f 4 158 157
f 4 157 202
f 4 202 203
f 4 203 200
f 4 200 239
f 4 239 278
f 4 278 277
f 4 277 311
f 4 311 310
f 4 310 339
f 4 339 338
f 4 338 374
f 4 374 376
f 4 376 419
f 4 419 456
f 4 456 496
f 4 496 495
f 4 495 498
f 4 498 533
f 4 533 532
f 4 532 531
f 4 531 567
f 4 567 594
f 4 594 596
f 4 596 595
f 4 595 616
f 4 616 621
f 4 621 620
f 4 620 619
f 4 619 626
f 4 626 625
f 4 625 631
f 4 631 630
f 4 630 632
f 4 632 633
f 4 633 629
f 4 629 622
f 4 622 607
f 4 607 606
f 4 606 605
f 4 605 604
f 4 604 603
f 4 603 575
f 4 575 541
f 4 541 540
f 4 540 539
f 4 539 499
f 4 499 459
f 4 459 458
f 4 458 420
f 4 420 387
f 4 387 386
f 4 386 385
f 4 385 384
f 4 384 383
f 4 383 382
f 4 382 381
f 4 381 380
f 4 380 379
f 4 379 378
f 4 378 377
f 4 377 345
f 4 345 341
f 4 341 312
f 4 312 279
f 4 279 241
f 4 241 240
f 4 240 204
f 4 204 161
f 4 161 160
f 4 160 123
f 4 123 122
f 4 122 86
f 4 86 85
f 4 85 121
f 4 121 82
f 4 82 51
f 4 51 49
f 4 49 28
f 4 28 27
f 4 27 15
f 4 15 14
f 4 14 13
f 4 13 5
f 5 13 6
f 6 13 14
f 6 14 15
f 6 15 16
f 6 16 17
f 6 17 7
f 7 17 18
f 7 18 8
f 8 19 20
f 8 20 9
f 8 18 19
f 9 20 21
f 9 21 22
f 9 22 23
f 9 23 24
f 9 24 10
f 10 24 11
f 11 24 25
f 11 25 26
f 11 26 12
f 15 27 16
f 16 27 28
f 16 28 29
f 16 29 30
f 16 30 31
f 16 31 17
f 17 31 32
f 17 32 33
f 17 33 18
f 18 34 19
f 18 33 35
f 18 35 34
f 19 34 36
f 19 36 37
f 19 37 38
f 19 38 20
f 20 39 21
f 20 38 39
f 21 40 22
f 21 39 40
f 22 41 24
f 22 24 23
f 22 40 42
f 22 42 43
f 22 43 44
f 22 44 45
f 22 45 41
f 24 41 45
f 24 45 46
f 24 46 47
f 24 47 25
f 25 47 48
f 25 48 26
f 28 49 30
f 28 30 29
f 30 50 31
f 30 49 51
f 30 51 52
f 30 52 53
f 30 53 54
f 30 54 55
f 30 55 50
f 31 50 32
f 32 50 55
f 32 55 54
f 32 54 56
f 32 56 57
f 32 57 58
f 32 58 59
f 32 59 33
f 33 59 60
f 33 60 35
f 34 35 61
f 34 61 36
f 35 62 61
f 35 60 62
f 36 63 37
f 36 61 64
f 36 64 65
f 36 65 63
f 37 66 38
f 37 63 66
f 38 67 39
f 38 66 67
f 39 67 68
f 39 68 40
f 40 68 69
f 40 69 70
f 40 70 42
f 42 70 43
f 43 70 71
f 43 71 44
f 44 72 73
f 44 73 74
f 44 74 75
f 44 75 76
f 44 76 77
f 44 77 45
f 44 71 72
f 45 77 78
f 45 78 46
f 46 48 47
f 46 78 79
f 46 79 80
f 46 80 81
f 46 81 48
f 51 82 52
f 52 82 83
f 52 83 53
f 53 84 54
f 53 83 85
f 53 85 86
f 53 86 87
f 53 87 88
f 53 88 89
f 53 89 90
f 53 90 84
f 54 84 56
f 56 91 92
f 56 92 93
f 56 93 57
f 56 84 90
f 56 90 94
f 56 94 91
f 57 93 58
f 58 95 60
f 58 60 59
f 58 93 91
f 58 91 96
f 58 96 97
f 58 97 95
f 60 95 62
f 61 62 98
f 61 98 64
f 62 95 99
f 62 99 98
f 63 65 100
f 63 100 101
f 63 101 102
f 63 102 103
f 63 103 67
f 63 67 66
f 64 98 65
f 65 98 104
f 65 104 105
f 65 105 100
f 67 103 68
f 68 106 69
f 68 103 106
f 69 106 107
f 69 107 70
f 70 108 72
f 70 72 71
f 70 107 108
f 72 108 109
f 72 109 110
f 72 110 111
f 72 111 112
f 72 112 73
f 73 112 74
f 74 112 113
f 74 113 114
f 74 114 115
f 74 115 116
f 74 116 75
f 75 116 117
f 75 117 76
f 76 78 77
f 76 117 118
f 76 118 119
f 76 119 78
f 78 119 79
f 79 120 80
f 79 119 120
f 82 121 83
f 83 121 85
f 86 122 87
f 87 122 88
f 88 123 124
f 88 124 125
f 88 125 89
f 88 122 123
f 89 125 126
f 89 126 90
f 90 126 94
f 91 127 128
f 91 128 129
f 91 129 130
f 91 130 131
f 91 131 132
f 91 132 96
f 91 93 92
f 91 94 126
f 91 126 127
f 95 97 133
f 95 133 99
f 96 132 97
f 97 132 133
f 98 99 104
f 99 133 134
f 99 134 104
f 100 105 135
f 100 135 136
f 100 136 101
f 101 137 138
f 101 138 102
f 101 136 137
f 102 138 139
f 102 139 140
f 102 140 103
f 103 140 106
f 104 134 141
f 104 141 105
f 105 141 142
f 105 142 135
f 106 140 143
f 106 143 107
f 107 144 108
f 107 143 144
f 108 144 109
f 109 145 110
f 109 144 145
f 110 145 146
f 110 146 111
f 111 147 148
f 111 148 149
f 111 149 114
f 111 114 113
f 111 113 112
f 111 146 147
f 114 149 148
f 114 148 150
f 114 150 151
f 114 151 152
f 114 152 153
f 114 153 154
f 114 154 115
f 115 154 155
f 115 155 116
f 116 155 156
f 116 156 117
f 117 156 157
f 117 157 158
f 117 158 118
f 118 158 159
f 118 159 119
f 119 159 120
f 123 160 124
f 124 161 162
f 124 162 163
f 124 163 164
f 124 164 165
f 124 165 125
f 124 160 161
f 125 165 166
f 125 166 167
f 125 167 126
f 126 168 127
f 126 167 168
f 127 168 128
f 128 168 169
f 128 169 170
f 128 170 171
f 128 171 172
f 128 172 129
f 129 172 130
f 130 173 174
f 130 174 132
f 130 132 131
f 130 172 175
f 130 175 176
f 130 176 173
f 132 174 177
f 132 177 133
f 133 177 134
f 134 177 178
f 134 178 141
f 135 142 179
f 135 179 180
f 135 180 136
f 136 180 181
f 136 181 182
f 136 182 183
f 136 183 137
f 137 183 184
f 137 184 185
f 137 185 138
f 138 185 186
f 138 186 139
f 139 143 140
f 139 186 187
f 139 187 143
f 141 178 142
f 142 178 188
f 142 188 179
f 143 187 189
f 143 189 144
f 144 189 145
f 145 189 190
f 145 190 191
f 145 191 192
f 145 192 146
f 146 192 147
f 147 192 193
f 147 193 148
f 148 194 195
f 148 195 196
f 148 196 150
f 148 193 194
f 150 196 151
f 151 197 198
f 151 198 199
f 151 199 152
f 151 196 195
f 151 195 197
f 152 199 200
f 152 200 153
f 153 200 154
f 154 200 201
f 154 201 155
f 155 202 156
f 155 201 203
f 155 203 202
f 156 202 157
f 161 204 162
f 162 204 163
f 163 205 206
f 163 206 207
f 163 207 208
f 163 208 164
f 163 204 205
f 164 166 165
f 164 208 209
f 164 209 210
f 164 210 166
f 166 170 169
f 166 169 168
f 166 168 167
f 166 210 170
f 170 211 175
f 170 175 171
f 170 210 209
f 170 209 212
f 170 212 213
f 170 213 214
f 170 214 215
f 170 215 216
f 170 216 211
f 171 175 172
f 173 176 217
f 173 217 218
f 173 218 174
f 174 218 177
f 175 211 219
f 175 219 220
f 175 220 221
f 175 221 217
f 175 217 176
f 177 218 178
f 178 218 222
f 178 222 188
f 179 223 224
f 179 224 180
f 179 188 225
f 179 225 223
f 180 224 181
f 181 224 226
f 181 226 182
f 182 226 227
f 182 227 228
f 182 228 183
f 183 228 229
f 183 229 184
f 184 229 230
f 184 230 185
f 185 230 186
f 186 230 231
f 186 231 190
f 186 190 187
f 187 190 189
f 188 222 225
f 190 232 191
f 190 231 232
f 191 232 233
f 191 233 192
f 192 233 193
f 193 233 234
f 193 234 194
f 194 235 195
f 194 234 235
f 195 235 236
f 195 236 197
f 197 236 237
f 197 237 238
f 197 238 198
f 198 238 239
f 198 239 199
f 199 239 200
f 200 203 201
f 204 240 205
f 205 241 206
f 205 240 241
f 206 242 243
f 206 243 244
f 206 244 245
f 206 245 246
f 206 246 207
f 206 241 242
f 207 246 208
f 208 246 209
f 209 246 247
f 209 247 212
f 211 216 219
f 212 247 248
f 212 248 249
f 212 249 214
f 212 214 213
f 214 249 215
f 215 249 250
f 215 250 251
f 215 251 252
f 215 252 253
f 215 253 216
f 216 253 219
f 217 254 225
f 217 225 222
f 217 222 218
f 217 221 255
f 217 255 254
f 219 256 220
f 219 253 252
f 219 252 257
f 219 257 256
f 220 255 221
f 220 256 255
f 223 258 224
f 223 225 259
f 223 259 260
f 223 260 261
f 223 261 258
f 224 258 262
f 224 262 263
f 224 263 226
f 225 254 259
f 226 263 264
f 226 264 227
f 227 264 299
f 227 299 328
f 227 328 361
f 227 361 331
f 227 331 300
f 227 300 265
f 227 265 228
f 228 265 266
f 228 266 229
f 229 266 230
f 230 266 267
f 230 267 268
f 230 268 231
f 231 268 269
f 231 269 270
f 231 270 232
f 232 270 233
f 233 271 234
f 233 270 271
f 234 271 272
f 234 272 235
f 235 272 273
f 235 273 236
f 236 274 237
f 236 273 274
f 237 275 276
f 237 276 238
f 237 274 275
f 238 276 277
f 238 277 278
f 238 278 239
f 241 279 280
f 241 280 242
f 242 280 281
f 242 281 243
f 243 281 244
f 244 281 282
f 244 282 283
f 244 283 284
f 244 284 285
f 244 285 286
f 244 286 246
f 244 246 245
f 246 286 248
f 246 248 247
f 248 286 249
f 249 286 285
f 249 285 284
f 249 284 287
f 249 287 288
f 249 288 250
f 250 288 251
f 251 289 252
f 251 288 290
f 251 290 289
f 252 291 257
f 252 289 291
f 254 255 292
f 254 292 259
f 255 256 292
f 256 257 293
f 256 293 292
f 257 291 293
f 258 261 294
f 258 294 262
f 259 292 260
f 260 292 295
f 260 295 296
f 260 296 261
f 261 296 297
f 261 297 294
f 262 294 298
f 262 298 263
f 263 298 299
f 263 299 264
f 265 300 330
f 265 330 301
f 265 301 266
f 266 301 267
f 267 301 302
f 267 302 268
f 268 302 269
f 269 302 303
f 269 303 304
f 269 304 270
f 270 304 271
f 271 304 272
f 272 305 273
f 272 304 305
f 273 305 306
f 273 306 274
f 274 307 275
f 274 306 307
f 275 307 335
f 275 335 308
f 275 308 309
f 275 309 276
f 276 309 310
f 276 310 311
f 276 311 277
f 279 312 313
f 279 313 280
f 280 313 314
f 280 314 281
f 281 314 315
f 281 315 282
f 282 315 283
f 283 315 316
f 283 316 317
f 283 317 287
f 283 287 284
f 287 317 318
f 287 318 288
f 288 319 290
f 288 318 317
f 288 317 319
f 289 290 320
f 289 320 321
f 289 321 291
f 290 322 320
f 290 319 322
f 291 321 323
f 291 323 293
f 292 293 295
f 293 323 295
f 294 324 327
f 294 327 298
f 294 297 326
f 294 326 324
f 295 323 296
f 296 323 325
f 296 325 297
f 297 325 358
f 297 358 326
f 298 327 328
f 298 328 299
f 300 329 330
f 300 331 329
f 301 330 332
f 301 332 302
f 302 332 333
f 302 333 303
f 303 333 334
f 303 334 305
f 303 305 304
f 305 334 335
f 305 335 307
f 305 307 306
f 308 335 336
f 308 336 337
f 308 337 309
f 309 338 339
f 309 339 310
f 309 337 340
f 309 340 338
f 312 341 313
f 313 342 314
f 313 341 342
f 314 343 344
f 314 344 315
f 314 342 345
f 314 345 343
f 315 344 316
f 316 344 346
f 316 346 347
f 316 347 348
f 316 348 317
f 317 348 349
f 317 349 350
f 317 350 351
f 317 351 319
f 319 351 354
f 319 354 322
f 320 322 352
f 320 352 353
f 320 353 321
f 321 353 325
f 321 325 323
f 322 354 396
f 322 396 352
f 324 355 356
f 324 356 357
f 324 357 327
f 324 326 355
f 325 353 352
f 325 352 396
f 325 396 358
f 326 358 359
f 326 359 355
f 327 357 360
f 327 360 328
f 328 360 405
f 328 405 361
f 329 362 363
f 329 363 330
f 329 331 364
f 329 364 362
f 330 363 332
f 331 365 364
f 331 361 406
f 331 406 365
f 332 363 366
f 332 366 367
f 332 367 333
f 333 367 368
f 333 368 334
f 334 368 369
f 334 369 370
f 334 370 371
f 334 371 335
f 335 371 336
f 336 372 337
f 336 371 370
f 336 370 372
f 337 372 373
f 337 373 340
f 338 340 374
f 340 373 375
f 340 375 376
f 340 376 374
f 341 345 342
f 343 345 377
f 343 377 378
f 343 378 379
f 343 379 380
f 343 380 381
f 343 381 344
f 344 381 346
f 346 381 382
f 346 382 383
f 346 383 384
f 346 384 347
f 347 384 385
f 347 385 386
f 347 386 387
f 347 387 388
f 347 388 389
f 347 389 390
f 347 390 348
f 348 391 349
f 348 390 392
f 348 392 391
f 349 391 393
f 349 393 394
f 349 394 350
f 350 394 395
f 350 395 351
f 351 395 354
f 354 395 397
f 354 397 396
f 355 398 399
f 355 399 356
f 355 359 398
f 356 399 400
f 356 400 357
f 357 400 360
f 358 401 359
f 358 396 402
f 358 402 403
f 358 403 401
f 359 401 404
f 359 404 398
f 360 400 405
f 361 405 406
f 362 407 408
f 362 408 366
f 362 366 363
f 362 364 409
f 362 409 410
f 362 410 407
f 364 365 409
f 365 411 409
f 365 406 440
f 365 440 411
f 366 408 367
f 367 408 412
f 367 412 368
f 368 413 369
f 368 412 413
f 369 414 370
f 369 413 415
f 369 415 414
f 370 414 372
f 372 414 416
f 372 416 373
f 373 416 417
f 373 417 375
f 375 417 418
f 375 418 419
f 375 419 376
f 387 420 421
f 387 421 388
f 388 421 422
f 388 422 423
f 388 423 390
f 388 390 389
f 390 423 424
f 390 424 425
f 390 425 426
f 390 426 392
f 391 392 426
f 391 426 393
f 393 426 427
f 393 427 428
f 393 428 429
f 393 429 430
f 393 430 394
f 394 430 431
f 394 431 395
f 395 431 397
f 396 397 402
f 397 431 403
f 397 403 402
f 398 404 432
f 398 432 433
f 398 433 399
f 399 434 400
f 399 433 435
f 399 435 434
f 400 434 436
f 400 436 437
f 400 437 405
f 401 438 404
f 401 403 439
f 401 439 438
f 403 431 439
f 404 438 432
f 405 437 406
f 406 437 440
f 407 410 441
f 407 441 442
f 407 442 443
f 407 443 444
f 407 444 408
f 408 444 445
f 408 445 412
f 409 411 410
f 410 411 441
f 411 446 441
f 411 440 446
f 412 445 447
f 412 447 413
f 413 447 415
f 414 415 448
f 414 448 416
f 415 447 449
f 415 449 448
f 416 448 450
f 416 450 451
f 416 451 417
f 417 451 452
f 417 452 453
f 417 453 454
f 417 454 418
f 418 455 456
f 418 456 419
f 418 454 457
f 418 457 455
f 420 458 421
f 421 458 459
f 421 459 460
f 421 460 461
f 421 461 422
f 422 461 462
f 422 462 424
f 422 424 423
f 424 462 463
f 424 463 427
f 424 427 425
f 425 427 426
f 427 463 464
f 427 464 465
f 427 465 466
f 427 466 467
f 427 467 428
f 428 467 468
f 428 468 429
f 429 468 430
f 430 468 469
f 430 469 439
f 430 439 431
f 432 438 470
f 432 470 471
f 432 471 472
f 432 472 433
f 433 472 435
f 434 473 474
f 434 474 475
f 434 475 436
f 434 435 473
f 435 472 476
f 435 476 477
f 435 477 473
f 436 475 440
f 436 440 437
f 438 439 469
f 438 469 470
f 440 475 478
f 440 478 446
f 441 446 479
f 441 479 442
f 442 479 480
f 442 480 481
f 442 481 443
f 443 482 444
f 443 481 482
f 444 483 484
f 444 484 445
f 444 482 483
f 445 484 447
f 446 485 479
f 446 478 485
f 447 486 449
f 447 484 486
f 448 449 450
f 449 486 487
f 449 487 450
f 450 488 453
f 450 453 452
f 450 452 451
f 450 487 489
f 450 489 488
f 453 490 491
f 453 491 454
f 453 488 489
f 453 489 492
f 453 492 493
f 453 493 494
f 453 494 490
f 454 491 457
f 455 495 496
f 455 496 456
f 455 457 495
f 457 491 497
f 457 497 498
f 457 498 495
f 459 499 460
f 460 499 500
f 460 500 461
f 461 500 501
f 461 501 462
f 462 464 463
f 462 501 502
f 462 502 503
f 462 503 464
f 464 503 504
f 464 504 505
f 464 505 506
f 464 506 465
f 465 506 466
f 466 507 468
f 466 468 467
f 466 506 508
f 466 508 509
f 466 509 476
f 466 476 510
f 466 510 507
f 468 507 470
f 468 470 469
f 470 507 471
f 471 507 510
f 471 510 476
f 471 476 472
f 473 477 511
f 473 511 474
f 474 511 512
f 474 512 513
f 474 513 475
f 475 513 478
f 476 514 515
f 476 515 477
f 476 509 514
f 477 515 511
f 478 513 516
f 478 516 485
f 479 517 480
f 479 485 517
f 480 518 481
f 480 517 518
f 481 518 519
f 481 519 520
f 481 520 482
f 482 520 483
f 483 520 521
f 483 521 522
f 483 522 523
f 483 523 486
f 483 486 484
f 485 524 525
f 485 525 526
f 485 526 527
f 485 527 517
f 485 516 524
f 486 523 487
f 487 523 489
f 489 528 492
f 489 523 522
f 489 522 529
f 489 529 528
f 490 530 531
f 490 531 532
f 490 532 533
f 490 533 498
f 490 498 497
f 490 497 491
f 490 494 534
f 490 534 535
f 490 535 530
f 492 528 493
f 493 534 494
f 493 528 536
f 493 536 537
f 493 537 538
f 493 538 534
f 499 539 500
f 500 539 540
f 500 540 541
f 500 541 542
f 500 542 543
f 500 543 501
f 501 543 502
f 502 543 544
f 502 544 545
f 502 545 504
f 502 504 503
f 504 508 505
f 504 545 546
f 504 546 547
f 504 547 548
f 504 548 549
f 504 549 550
f 504 550 508
f 505 508 506
f 508 550 549
f 508 549 551
f 508 551 514
f 508 514 509
f 511 552 512
f 511 515 553
f 511 553 552
f 512 552 554
f 512 554 513
f 513 554 516
f 514 551 515
f 515 551 553
f 516 554 555
f 516 555 556
f 516 556 524
f 517 527 557
f 517 557 518
f 518 557 558
f 518 558 519
f 519 559 560
f 519 560 520
f 519 558 559
f 520 560 521
f 521 560 529
f 521 529 522
f 524 556 561
f 524 561 562
f 524 562 525
f 525 562 563
f 525 563 564
f 525 564 526
f 526 564 527
f 527 564 565
f 527 565 557
f 528 529 536
f 529 560 559
f 529 559 566
f 529 566 537
f 529 537 536
f 530 535 531
f 531 535 567
f 534 568 535
f 534 538 569
f 534 569 570
f 534 570 568
f 535 568 567
f 537 571 569
f 537 569 538
f 537 566 572
f 537 572 573
f 537 573 574
f 537 574 571
f 541 575 542
f 542 575 576
f 542 576 544
f 542 544 543
f 544 576 577
f 544 577 578
f 544 578 545
f 545 578 546
f 546 578 579
f 546 579 547
f 547 579 580
f 547 580 581
f 547 581 582
f 547 582 583
f 547 583 548
f 548 583 549
f 549 583 582
f 549 582 584
f 549 584 553
f 549 553 551
f 552 553 584
f 552 584 585
f 552 585 554
f 554 585 555
f 555 586 561
f 555 561 556
f 555 585 586
f 557 587 558
f 557 565 587
f 558 587 559
f 559 587 588
f 559 588 572
f 559 572 566
f 561 586 589
f 561 589 562
f 562 590 563
f 562 589 591
f 562 591 590
f 563 590 592
f 563 592 564
f 564 592 565
f 565 592 593
f 565 593 587
f 567 568 594
f 568 595 596
f 568 596 594
f 568 570 595
f 569 571 597
f 569 597 598
f 569 598 570
f 570 598 595
f 571 574 597
f 572 588 573
f 573 587 593
f 573 593 599
f 573 599 600
f 573 600 601
f 573 601 574
f 573 588 587
f 574 602 597
f 574 601 602
f 575 603 576
f 576 603 604
f 576 604 605
f 576 605 577
f 577 605 606
f 577 606 607
f 577 607 608
f 577 608 609
f 577 609 578
f 578 609 579
f 579 609 610
f 579 610 580
f 580 610 614
f 580 614 611
f 580 611 581
f 581 611 589
f 581 589 586
f 581 586 582
f 582 585 584
f 582 586 585
f 589 611 591
f 590 591 615
f 590 615 612
f 590 612 613
f 590 613 599
f 590 599 592
f 591 611 614
f 591 614 615
f 592 599 593
f 595 598 616
f 597 602 616
f 597 616 598
f 599 613 617
f 599 617 600
f 600 617 601
f 601 617 618
f 601 618 602
f 602 619 620
f 602 620 621
f 602 621 616
f 602 618 619
f 607 622 608
f 608 622 623
f 608 623 609
f 609 623 610
f 610 623 614
f 612 624 625
f 612 625 613
f 612 615 628
f 612 628 624
f 613 625 626
f 613 626 617
f 614 623 627
f 614 627 628
f 614 628 615
f 617 626 619
f 617 619 618
f 622 629 627
f 622 627 623
f 624 630 631
f 624 631 625
f 624 628 632
f 624 632 630
f 627 629 628
f 628 629 633
f 628 633 632

