# https://github.com/mikedh/trimesh
v -0.03448453 -0.01271179 0.00060357 0.77647059 0.86666667 0.97647059
v -0.03448453 -0.01261318 0.00181332 0.77647059 0.86666667 0.97647059
v -0.03558089 -0.01234769 0.00181332 0.77647059 0.86666667 0.97647059
v -0.03558798 -0.01238056 0.00060357 0.77647059 0.86666667 0.97647059
v -0.03448453 -0.01268903 -0.00060358 0.77647059 0.86666667 0.97647059
v -0.03042946 -0.01256261 -0.00181333 0.77647059 0.86666667 0.97647059
v -0.03042946 -0.01256261 -0.00177965 0.77647059 0.86666667 0.97647059
v -0.03042946 -0.01251204 -0.00060358 0.77647059 0.86666667 0.97647059
v -0.03042946 -0.01233758 0.00060875 0.77647059 0.86666667 0.97647059
v -0.03448453 -0.01238309 0.00302307 0.77647059 0.86666667 0.97647059
v -0.03522982 -0.01215300 0.00379243 0.77647059 0.86666667 0.97647059
v -0.03542367 -0.01224656 0.00302307 0.77647059 0.86666667 0.97647059
v -0.03602830 -0.01195326 0.00302307 0.77647059 0.86666667 0.97647059
v -0.03618610 -0.01201900 0.00181332 0.77647059 0.86666667 0.97647059
v -0.03619261 -0.01200888 0.00060357 0.77647059 0.86666667 0.97647059
v -0.03550110 -0.01235275 -0.00060358 0.77647059 0.86666667 0.97647059
v -0.03448453 -0.01255250 -0.00181333 0.77647059 0.86666667 0.97647059
v -0.03042946 -0.01246906 -0.00302308 0.77647059 0.86666667 0.97647059
v -0.03042946 -0.01200635 0.00171747 0.77647059 0.86666667 0.97647059
v -0.03380366 -0.01213530 0.00372508 0.77647059 0.86666667 0.97647059
v -0.03448453 -0.01216565 0.00382352 0.77647059 0.86666667 0.97647059
v -0.03448453 -0.01194061 0.00442969 0.77647059 0.86666667 0.97647059
v -0.03569496 -0.01136160 0.00544256 0.77647059 0.86666667 0.97647059
v -0.03631377 -0.01089889 0.00606945 0.77647059 0.86666667 0.97647059
v -0.03565772 -0.01182936 0.00420950 0.77647059 0.86666667 0.97647059
v -0.03644852 -0.01102279 0.00544256 0.77647059 0.86666667 0.97647059
v -0.03646744 -0.01104302 0.00531822 0.77647059 0.86666667 0.97647059
v -0.03646744 -0.01132115 0.00423022 0.77647059 0.86666667 0.97647059
v -0.03646744 -0.01155376 0.00302307 0.77647059 0.86666667 0.97647059
v -0.03646744 -0.01169536 0.00181332 0.77647059 0.86666667 0.97647059
v -0.03646744 -0.01170547 0.00119938 0.77647059 0.86666667 0.97647059
v -0.03646744 -0.01170547 0.00060357 0.77647059 0.86666667 0.97647059
v -0.03646744 -0.01164984 -0.00002850 0.77647059 0.86666667 0.97647059
v -0.03646744 -0.01157146 -0.00060358 0.77647059 0.86666667 0.97647059
v -0.03610632 -0.01192797 -0.00060358 0.77647059 0.86666667 0.97647059
v -0.03534802 -0.01226678 -0.00181333 0.77647059 0.86666667 0.97647059
v -0.03519967 -0.01217070 -0.00266559 0.77647059 0.86666667 0.97647059
v -0.03450699 -0.01227943 -0.00305157 0.77647059 0.86666667 0.97647059
v -0.03411809 -0.01216312 -0.00380540 0.77647059 0.86666667 0.97647059
v -0.03042946 -0.01217576 -0.00534672 0.77647059 0.86666667 0.97647059
v -0.03042946 -0.01178385 0.00244798 0.77647059 0.86666667 0.97647059
v -0.03042946 -0.01060560 0.00509026 0.77647059 0.86666667 0.97647059
v -0.03448453 -0.01148044 0.00544256 0.77647059 0.86666667 0.97647059
v -0.03569496 -0.01099750 0.00624042 0.77647059 0.86666667 0.97647059
v -0.03569496 -0.01064605 0.00684659 0.77647059 0.86666667 0.97647059
v -0.03646744 -0.00987740 0.00753824 0.77647059 0.86666667 0.97647059
v -0.03646744 -0.01068145 0.00618861 0.77647059 0.86666667 0.97647059
v -0.03646744 -0.01100256 0.00544256 0.77647059 0.86666667 0.97647059
v -0.03646744 -0.01136160 -0.00150765 0.77647059 0.86666667 0.97647059
v -0.03595265 -0.01177627 -0.00181333 0.77647059 0.86666667 0.97647059
v -0.03646744 -0.01091154 -0.00306970 0.77647059 0.86666667 0.97647059
v -0.03548396 -0.01127563 -0.00423282 0.77647059 0.86666667 0.97647059
v -0.03492484 -0.01204428 -0.00347382 0.77647059 0.86666667 0.97647059
v -0.03450699 -0.01187488 -0.00421987 0.77647059 0.86666667 0.97647059
v -0.03415710 -0.01101268 -0.00625079 0.77647059 0.86666667 0.97647059
v -0.03042946 -0.01097222 -0.00783357 0.77647059 0.86666667 0.97647059
v -0.03042946 -0.01017323 0.00584408 0.77647059 0.86666667 0.97647059
v -0.03379006 -0.01094694 0.00613939 0.77647059 0.86666667 0.97647059
v -0.03448453 -0.01103290 0.00629482 0.77647059 0.86666667 0.97647059
v -0.03448453 -0.01063594 0.00690099 0.77647059 0.86666667 0.97647059
v -0.03569496 -0.01004175 0.00774289 0.77647059 0.86666667 0.97647059
v -0.03646744 -0.00984453 0.00758228 0.77647059 0.86666667 0.97647059
v -0.03646744 -0.01128575 -0.00181333 0.77647059 0.86666667 0.97647059
v -0.03646744 -0.01034264 -0.00425095 0.77647059 0.86666667 0.97647059
v -0.03526410 -0.01105566 -0.00512912 0.77647059 0.86666667 0.97647059
v -0.03453004 -0.01125288 -0.00549697 0.77647059 0.86666667 0.97647059
v -0.03496385 -0.01080787 -0.00593735 0.77647059 0.86666667 0.97647059
v -0.03453004 -0.01052721 -0.00665231 0.77647059 0.86666667 0.97647059
v -0.03448453 -0.00989257 -0.00752271 0.77647059 0.86666667 0.97647059
v -0.03042946 -0.00992292 -0.00914693 0.77647059 0.86666667 0.97647059
v -0.03042946 -0.00911381 0.00737504 0.77647059 0.86666667 0.97647059
v -0.03448453 -0.01003164 0.00769885 0.77647059 0.86666667 0.97647059
v -0.03569496 -0.00958411 0.00834647 0.77647059 0.86666667 0.97647059
v -0.03646744 -0.00880787 0.00883088 0.77647059 0.86666667 0.97647059
v -0.03646744 -0.00967513 -0.00541148 0.77647059 0.86666667 0.97647059
v -0.03510570 -0.00969788 -0.00727921 0.77647059 0.86666667 0.97647059
v -0.03327528 -0.00959928 -0.00838015 0.77647059 0.86666667 0.97647059
v -0.03426052 -0.00880534 -0.00878168 0.77647059 0.86666667 0.97647059
v -0.03042946 -0.00872191 -0.01036186 0.77647059 0.86666667 0.97647059
v -0.03042946 -0.00791786 0.00866250 0.77647059 0.86666667 0.97647059
v -0.03448453 -0.00951584 0.00830502 0.77647059 0.86666667 0.97647059
v -0.03569496 -0.00897981 0.00898890 0.77647059 0.86666667 0.97647059
v -0.03569496 -0.00837804 0.00959507 0.77647059 0.86666667 0.97647059
v -0.03646744 -0.00869156 0.00894746 0.77647059 0.86666667 0.97647059
v -0.03646744 -0.00883568 -0.00642435 0.77647059 0.86666667 0.97647059
v -0.03646744 -0.00851963 -0.00677666 0.77647059 0.86666667 0.97647059
v -0.03646744 -0.00767513 -0.00767555 0.77647059 0.86666667 0.97647059
v -0.03646744 -0.00724277 -0.00806153 0.77647059 0.86666667 0.97647059
v -0.03506728 -0.00843113 -0.00844232 0.77647059 0.86666667 0.97647059
v -0.03327528 -0.00899498 -0.00898891 0.77647059 0.86666667 0.97647059
v -0.03413345 -0.00754365 -0.00988003 0.77647059 0.86666667 0.97647059
v -0.03327528 -0.00836034 -0.00959508 0.77647059 0.86666667 0.97647059
v -0.03042946 -0.00733126 -0.01151980 0.77647059 0.86666667 0.97647059
v -0.03042946 -0.00663341 0.00977122 0.77647059 0.86666667 0.97647059
v -0.03448453 -0.00821116 0.00948886 0.77647059 0.86666667 0.97647059
v -0.03448453 -0.00890901 0.00888270 0.77647059 0.86666667 0.97647059
v -0.03569496 -0.00777121 0.01008208 0.77647059 0.86666667 0.97647059
v -0.03646744 -0.00762203 0.00997328 0.77647059 0.86666667 0.97647059
v -0.03646744 -0.00635022 -0.00876095 0.77647059 0.86666667 0.97647059
v -0.03646744 -0.00581925 -0.00909512 0.77647059 0.86666667 0.97647059
v -0.03392246 -0.00610497 -0.01091881 0.77647059 0.86666667 0.97647059
v -0.03042946 -0.00501268 -0.01287979 0.77647059 0.86666667 0.97647059
v -0.03042946 -0.00422128 0.01105350 0.77647059 0.86666667 0.97647059
v -0.03488879 -0.00623644 0.01099392 0.77647059 0.86666667 0.97647059
v -0.03569496 -0.00694188 0.01068566 0.77647059 0.86666667 0.97647059
v -0.03646744 -0.00625414 0.01101465 0.77647059 0.86666667 0.97647059
v -0.03646744 -0.00499498 -0.00949923 0.77647059 0.86666667 0.97647059
v -0.03407081 -0.00544251 -0.01105092 0.77647059 0.86666667 0.97647059
v -0.03325341 -0.00421875 -0.01185656 0.77647059 0.86666667 0.97647059
v -0.03646744 -0.00411002 -0.00992407 0.77647059 0.86666667 0.97647059
v -0.03304832 -0.00302279 -0.01225549 0.77647059 0.86666667 0.97647059
v -0.03042946 -0.00181420 -0.01357144 0.77647059 0.86666667 0.97647059
v -0.03283555 -0.00380408 -0.01215705 0.77647059 0.86666667 0.97647059
v -0.03042946 -0.00181420 0.01161563 0.77647059 0.86666667 0.97647059
v -0.03509684 -0.00362203 0.01209746 0.77647059 0.86666667 0.97647059
v -0.03557793 -0.00421622 0.01197053 0.77647059 0.86666667 0.97647059
v -0.03569496 -0.00544251 0.01150424 0.77647059 0.86666667 0.97647059
v -0.03569496 -0.00633758 0.01105868 0.77647059 0.86666667 0.97647059
v -0.03646744 -0.00616818 0.01105609 0.77647059 0.86666667 0.97647059
v -0.03365236 -0.00302279 -0.01198867 0.77647059 0.86666667 0.97647059
v -0.03646744 -0.00349561 -0.01013649 0.77647059 0.86666667 0.97647059
v -0.03042946 -0.00066123 -0.01376573 0.77647059 0.86666667 0.97647059
v -0.03042946 -0.00060307 0.01175293 0.77647059 0.86666667 0.97647059
v -0.03569496 -0.00181420 0.01253525 0.77647059 0.86666667 0.97647059
v -0.03557793 -0.00314163 0.01228397 0.77647059 0.86666667 0.97647059
v -0.03590359 -0.00380155 0.01215963 0.77647059 0.86666667 0.97647059
v -0.03646744 -0.00380155 0.01215963 0.77647059 0.86666667 0.97647059
v -0.03381902 -0.00181420 -0.01205861 0.77647059 0.86666667 0.97647059
v -0.03321440 -0.00181420 -0.01235911 0.77647059 0.86666667 0.97647059
v -0.03646744 -0.00302279 -0.01025824 0.77647059 0.86666667 0.97647059
v -0.03646744 -0.00225162 -0.01043957 0.77647059 0.86666667 0.97647059
v -0.03042946 -0.00060307 -0.01377091 0.77647059 0.86666667 0.97647059
v -0.03042946 0.00060300 0.01175293 0.77647059 0.86666667 0.97647059
v -0.03569496 -0.00060307 0.01261037 0.77647059 0.86666667 0.97647059
v -0.03646744 -0.00060307 0.01266218 0.77647059 0.86666667 0.97647059
v -0.03646744 -0.00181420 0.01254302 0.77647059 0.86666667 0.97647059
v -0.03646744 -0.00376868 0.01216740 0.77647059 0.86666667 0.97647059
v -0.03322386 -0.00060307 -0.01239796 0.77647059 0.86666667 0.97647059
v -0.03646744 -0.00181420 -0.01049397 0.77647059 0.86666667 0.97647059
v -0.03646744 -0.00104049 -0.01058464 0.77647059 0.86666667 0.97647059
v -0.03646744 -0.00060307 -0.01062090 0.77647059 0.86666667 0.97647059
v -0.03042946 0.00049933 -0.01379940 0.77647059 0.86666667 0.97647059
v -0.03042946 0.00125281 0.01172961 0.77647059 0.86666667 0.97647059
v -0.03569496 0.00060300 0.01256115 0.77647059 0.86666667 0.97647059
v -0.03646744 0.00060300 0.01265441 0.77647059 0.86666667 0.97647059
v -0.03042946 0.00060300 -0.01380199 0.77647059 0.86666667 0.97647059
v -0.03646744 0.00060300 -0.01062090 0.77647059 0.86666667 0.97647059
v -0.03042946 0.00226671 0.01155346 0.77647059 0.86666667 0.97647059
v -0.03646744 0.00238302 0.01243940 0.77647059 0.86666667 0.97647059
v -0.03646744 0.00182423 0.01252230 0.77647059 0.86666667 0.97647059
v -0.03042946 0.00313650 -0.01354295 0.77647059 0.86666667 0.97647059
v -0.03646744 0.00137670 -0.01053283 0.77647059 0.86666667 0.97647059
v -0.03620383 0.00375091 0.01214409 0.77647059 0.86666667 0.97647059
v -0.03646744 0.00302272 0.01232024 0.77647059 0.86666667 0.97647059
v -0.03042946 0.00502272 0.01057686 0.77647059 0.86666667 0.97647059
v -0.03042946 0.00544497 -0.01271659 0.77647059 0.86666667 0.97647059
v -0.03646744 0.00181412 -0.01047843 0.77647059 0.86666667 0.97647059
v -0.03646744 0.00258530 -0.01031523 0.77647059 0.86666667 0.97647059
v -0.03646744 0.00302272 -0.01021420 0.77647059 0.86666667 0.97647059
v -0.03646744 0.00371045 -0.00999142 0.77647059 0.86666667 0.97647059
v -0.03646744 0.00407455 -0.00986708 0.77647059 0.86666667 0.97647059
v -0.03646744 0.00588239 0.01117525 0.77647059 0.86666667 0.97647059
v -0.03646744 0.00378378 0.01215186 0.77647059 0.86666667 0.97647059
v -0.03646744 0.00347784 0.01223475 0.77647059 0.86666667 0.97647059
v -0.03042946 0.00583435 0.01016238 0.77647059 0.86666667 0.97647059
v -0.03042946 0.00666620 -0.01225290 0.77647059 0.86666667 0.97647059
v -0.03646744 0.00445887 -0.00970388 0.77647059 0.86666667 0.97647059
v -0.03646744 0.00622625 0.01099392 0.77647059 0.86666667 0.97647059
v -0.03042946 0.00738428 0.00911584 0.77647059 0.86666667 0.97647059
v -0.03042946 0.00799364 -0.01124521 0.77647059 0.86666667 0.97647059
v -0.03646744 0.00467885 -0.00960544 0.77647059 0.86666667 0.97647059
v -0.03646744 0.00515167 -0.00938784 0.77647059 0.86666667 0.97647059
v -0.03646744 0.00614282 -0.00888011 0.77647059 0.86666667 0.97647059
v -0.03646744 0.00646899 -0.00867288 0.77647059 0.86666667 0.97647059
v -0.03646744 0.00722499 0.01024528 0.77647059 0.86666667 0.97647059
v -0.03646744 0.00760173 0.00996033 0.77647059 0.86666667 0.97647059
v -0.03042946 0.00867126 0.00792163 0.77647059 0.86666667 0.97647059
v -0.03646744 0.00740704 -0.00795791 0.77647059 0.86666667 0.97647059
v -0.03646744 0.00768011 -0.00770922 0.77647059 0.86666667 0.97647059
v -0.03042946 0.01003156 -0.00934899 0.77647059 0.86666667 0.97647059
v -0.03646744 0.00851955 0.00908216 0.77647059 0.86666667 0.97647059
v -0.03042946 0.00977872 0.00663676 0.77647059 0.86666667 0.97647059
v -0.03646744 0.00878251 0.00880757 0.77647059 0.86666667 0.97647059
v -0.03646744 0.00866620 -0.00671190 0.77647059 0.86666667 0.97647059
v -0.03042946 0.01052714 -0.00874800 0.77647059 0.86666667 0.97647059
v -0.03646744 0.00886595 -0.00647098 0.77647059 0.86666667 0.97647059
v -0.03646744 0.01077998 0.00575341 0.77647059 0.86666667 0.97647059
v -0.03646744 0.00983434 0.00747866 0.77647059 0.86666667 0.97647059
v -0.03646744 0.00967252 0.00770144 0.77647059 0.86666667 0.97647059
v -0.03042946 0.01105558 0.00422245 0.77647059 0.86666667 0.97647059
v -0.03042946 0.01153093 -0.00735951 0.77647059 0.86666667 0.97647059
v -0.03646744 0.01012259 -0.00438048 0.77647059 0.86666667 0.97647059
v -0.03042946 0.01281791 0.00060357 0.77647059 0.86666667 0.97647059
v -0.03646744 0.01101007 0.00510839 0.77647059 0.86666667 0.97647059
v -0.03646744 0.01019086 -0.00424836 0.77647059 0.86666667 0.97647059
v -0.03042946 0.01274964 -0.00473537 0.77647059 0.86666667 0.97647059
v -0.03042946 0.01311879 -0.00059063 0.77647059 0.86666667 0.97647059
v -0.03646744 0.01124522 0.00420173 0.77647059 0.86666667 0.97647059
v -0.03646744 0.01119970 -0.00182369 0.77647059 0.86666667 0.97647059
v -0.03042946 0.01298984 -0.00375877 0.77647059 0.86666667 0.97647059
v -0.03042946 0.01310615 -0.00181592 0.77647059 0.86666667 0.97647059
v -0.03646744 0.01162954 0.00060357 0.77647059 0.86666667 0.97647059
v -0.03646744 0.01163460 0.00150765 0.77647059 0.86666667 0.97647059
v -0.03646744 0.01162448 0.00181332 0.77647059 0.86666667 0.97647059
v -0.03646744 0.01147278 0.00302307 0.77647059 0.86666667 0.97647059
v -0.03646744 0.01146266 -0.00060358 0.77647059 0.86666667 0.97647059
v -0.03042946 0.01307075 -0.00268632 0.77647059 0.86666667 0.97647059
f 1 2 3
f 1 3 4
f 1 4 5
f 1 5 6
f 1 6 7
f 1 7 8
f 1 8 2
f 2 9 10
f 2 10 11
f 2 11 12
f 2 12 3
f 2 8 9
f 3 12 13
f 3 13 14
f 3 14 4
f 4 14 15
f 4 15 16
f 4 16 5
f 5 16 17
f 5 17 18
f 5 18 6
f 6 18 40
f 6 40 56
f 6 56 70
f 6 70 79
f 6 79 93
f 6 93 102
f 6 102 112
f 6 112 122
f 6 122 132
f 6 132 142
f 6 142 146
f 6 146 151
f 6 151 156
f 6 156 166
f 6 166 170
f 6 170 180
f 6 180 185
f 6 185 191
f 6 191 196
f 6 196 200
f 6 200 207
f 6 207 201
f 6 201 197
f 6 197 193
f 6 193 190
f 6 190 182
f 6 182 177
f 6 177 169
f 6 169 165
f 6 165 155
f 6 155 148
f 6 148 143
f 6 143 133
f 6 133 123
f 6 123 114
f 6 114 103
f 6 103 94
f 6 94 80
f 6 80 71
f 6 71 57
f 6 57 42
f 6 42 41
f 6 41 19
f 6 19 9
f 6 9 8
f 6 8 7
f 9 19 20
f 9 20 10
f 10 20 21
f 10 21 11
f 11 21 22
f 11 22 23
f 11 23 24
f 11 24 25
f 11 25 13
f 11 13 12
f 13 25 26
f 13 26 27
f 13 27 28
f 13 28 29
f 13 29 14
f 14 29 30
f 14 30 31
f 14 31 32
f 14 32 15
f 15 32 33
f 15 33 34
f 15 34 35
f 15 35 16
f 16 35 36
f 16 36 17
f 17 36 37
f 17 37 38
f 17 38 39
f 17 39 40
f 17 40 18
f 19 41 20
f 20 41 42
f 20 42 43
f 20 43 22
f 20 22 21
f 22 43 23
f 23 43 44
f 23 44 24
f 24 44 45
f 24 45 46
f 24 46 47
f 24 47 48
f 24 48 26
f 24 26 25
f 26 48 27
f 27 48 47
f 27 47 46
f 27 46 62
f 27 62 74
f 27 74 84
f 27 84 98
f 27 98 106
f 27 106 119
f 27 119 127
f 27 127 137
f 27 137 136
f 27 136 135
f 27 135 145
f 27 145 150
f 27 150 149
f 27 149 154
f 27 154 164
f 27 164 163
f 27 163 162
f 27 162 168
f 27 168 175
f 27 175 176
f 27 176 181
f 27 181 183
f 27 183 189
f 27 189 188
f 27 188 187
f 27 187 194
f 27 194 198
f 27 198 205
f 27 205 204
f 27 204 203
f 27 203 202
f 27 202 206
f 27 206 199
f 27 199 195
f 27 195 192
f 27 192 186
f 27 186 184
f 27 184 179
f 27 179 178
f 27 178 174
f 27 174 173
f 27 173 172
f 27 172 171
f 27 171 167
f 27 167 161
f 27 161 160
f 27 160 159
f 27 159 158
f 27 158 157
f 27 157 152
f 27 152 147
f 27 147 141
f 27 141 140
f 27 140 139
f 27 139 131
f 27 131 130
f 27 130 121
f 27 121 110
f 27 110 107
f 27 107 100
f 27 100 99
f 27 99 88
f 27 88 87
f 27 87 86
f 27 86 85
f 27 85 75
f 27 75 64
f 27 64 51
f 27 51 63
f 27 63 49
f 27 49 34
f 27 34 33
f 27 33 32
f 27 32 31
f 27 31 30
f 27 30 29
f 27 29 28
f 34 49 35
f 35 49 50
f 35 50 36
f 36 50 37
f 37 50 51
f 37 51 52
f 37 52 53
f 37 53 38
f 38 53 39
f 39 53 54
f 39 54 55
f 39 55 40
f 40 55 56
f 42 57 58
f 42 58 43
f 43 58 59
f 43 59 44
f 44 59 45
f 45 59 60
f 45 60 61
f 45 61 46
f 46 61 62
f 49 63 50
f 50 63 51
f 51 64 65
f 51 65 52
f 52 65 53
f 53 65 66
f 53 66 54
f 54 66 55
f 55 66 67
f 55 67 68
f 55 68 69
f 55 69 56
f 56 69 70
f 57 71 60
f 57 60 58
f 58 60 59
f 60 71 72
f 60 72 61
f 61 72 73
f 61 73 62
f 62 73 74
f 64 75 65
f 65 75 67
f 65 67 66
f 67 75 76
f 67 76 69
f 67 69 68
f 69 77 70
f 69 76 78
f 69 78 77
f 70 77 79
f 71 80 81
f 71 81 72
f 72 81 73
f 73 81 82
f 73 82 74
f 74 82 83
f 74 83 84
f 75 85 76
f 76 85 86
f 76 86 87
f 76 87 88
f 76 88 89
f 76 89 78
f 77 78 90
f 77 90 79
f 78 89 91
f 78 91 92
f 78 92 90
f 79 90 92
f 79 92 93
f 80 94 95
f 80 95 96
f 80 96 81
f 81 96 83
f 81 83 82
f 83 97 98
f 83 98 84
f 83 96 95
f 83 95 97
f 88 99 89
f 89 99 91
f 91 99 100
f 91 100 101
f 91 101 93
f 91 93 92
f 93 101 102
f 94 97 95
f 94 103 104
f 94 104 105
f 94 105 97
f 97 105 106
f 97 106 98
f 100 107 101
f 101 108 109
f 101 109 102
f 101 107 110
f 101 110 108
f 102 111 112
f 102 109 113
f 102 113 111
f 103 114 115
f 103 115 116
f 103 116 117
f 103 117 104
f 104 117 118
f 104 118 105
f 105 118 106
f 106 118 117
f 106 117 119
f 108 120 109
f 108 110 121
f 108 121 120
f 109 120 113
f 111 122 112
f 111 113 120
f 111 120 122
f 114 123 124
f 114 124 125
f 114 125 115
f 115 125 126
f 115 126 116
f 116 126 117
f 117 126 127
f 117 127 119
f 120 128 129
f 120 129 122
f 120 121 130
f 120 130 131
f 120 131 128
f 122 129 132
f 123 133 134
f 123 134 124
f 124 134 135
f 124 135 136
f 124 136 125
f 125 136 126
f 126 136 137
f 126 137 127
f 128 138 129
f 128 131 139
f 128 139 140
f 128 140 141
f 128 141 138
f 129 138 132
f 132 138 142
f 133 143 134
f 134 144 145
f 134 145 135
f 134 143 144
f 138 146 142
f 138 141 147
f 138 147 146
f 143 148 149
f 143 149 150
f 143 150 144
f 144 150 145
f 146 147 151
f 147 152 151
f 148 153 154
f 148 154 149
f 148 155 153
f 151 152 157
f 151 157 158
f 151 158 159
f 151 159 160
f 151 160 161
f 151 161 156
f 153 162 163
f 153 163 164
f 153 164 154
f 153 155 162
f 155 165 162
f 156 161 166
f 161 167 166
f 162 165 168
f 165 169 168
f 166 167 171
f 166 171 172
f 166 172 173
f 166 173 174
f 166 174 170
f 168 169 175
f 169 176 175
f 169 177 176
f 170 174 178
f 170 178 179
f 170 179 180
f 176 177 181
f 177 182 183
f 177 183 181
f 179 184 180
f 180 184 186
f 180 186 185
f 182 187 188
f 182 188 189
f 182 189 183
f 182 190 187
f 185 186 191
f 186 192 191
f 187 193 194
f 187 190 193
f 191 192 195
f 191 195 196
f 193 197 198
f 193 198 194
f 195 199 196
f 196 199 200
f 197 201 202
f 197 202 203
f 197 203 204
f 197 204 205
f 197 205 198
f 199 206 200
f 200 206 202
f 200 202 207
f 201 207 202

