# https://github.com/mikedh/trimesh
v -0.03646785 -0.01170702 0.00119959 0.38039216 0.78823529 0.52549020
v -0.03646785 -0.01169507 0.00181290 0.38039216 0.78823529 0.52549020
v -0.04070890 -0.01121957 -0.00060308 0.38039216 0.78823529 0.52549020
v -0.03646785 -0.01170463 0.00060367 0.38039216 0.78823529 0.52549020
v -0.04070890 -0.01111444 0.00060367 0.38039216 0.78823529 0.52549020
v -0.03646785 -0.01155409 0.00302461 0.38039216 0.78823529 0.52549020
v -0.04070890 -0.01116462 -0.00181480 0.38039216 0.78823529 0.52549020
v -0.03646785 -0.01164967 -0.00002454 0.38039216 0.78823529 0.52549020
v -0.03646785 -0.01131993 0.00422888 0.38039216 0.78823529 0.52549020
v -0.04070890 -0.01083966 0.00189980 0.38039216 0.78823529 0.52549020
v -0.04070890 -0.01102842 -0.00302403 0.38039216 0.78823529 0.52549020
v -0.03646785 -0.01157082 -0.00060308 0.38039216 0.78823529 0.52549020
v -0.03646785 -0.01104276 0.00531892 0.38039216 0.78823529 0.52549020
v -0.03646785 -0.01100453 0.00544307 0.38039216 0.78823529 0.52549020
v -0.04070890 -0.01046929 0.00302461 0.38039216 0.78823529 0.52549020
v -0.04070890 -0.01079187 -0.00427299 0.38039216 0.78823529 0.52549020
v -0.03646785 -0.01136055 -0.00150939 0.38039216 0.78823529 0.52549020
v -0.03646785 -0.01068195 0.00618798 0.38039216 0.78823529 0.52549020
v -0.04070890 -0.00999619 0.00412459 0.38039216 0.78823529 0.52549020
v -0.03646785 -0.01091134 -0.00306872 0.38039216 0.78823529 0.52549020
v -0.03646785 -0.01128648 -0.00181480 0.38039216 0.78823529 0.52549020
v -0.04070890 -0.01040956 -0.00543504 0.38039216 0.78823529 0.52549020
v -0.03646785 -0.00987671 0.00753874 0.38039216 0.78823529 0.52549020
v -0.03652680 -0.00986477 0.00752385 0.38039216 0.78823529 0.52549020
v -0.04070890 -0.00973096 0.00461623 0.38039216 0.78823529 0.52549020
v -0.04070890 -0.00987910 -0.00665421 0.38039216 0.78823529 0.52549020
v -0.03646785 -0.01034265 -0.00425064 0.38039216 0.78823529 0.52549020
v -0.03646785 -0.00984565 0.00758095 0.38039216 0.78823529 0.52549020
v -0.04070890 -0.00868439 0.00630220 0.38039216 0.78823529 0.52549020
v -0.03665302 -0.00876563 0.00879267 0.38039216 0.78823529 0.52549020
v -0.04070890 -0.00929369 -0.00768466 0.38039216 0.78823529 0.52549020
v -0.03646785 -0.00967600 -0.00541270 0.38039216 0.78823529 0.52549020
v -0.03646785 -0.00880864 0.00882991 0.38039216 0.78823529 0.52549020
v -0.04070890 -0.00825907 0.00682363 0.38039216 0.78823529 0.52549020
v -0.03646785 -0.00869156 0.00894662 0.38039216 0.78823529 0.52549020
v -0.03669288 -0.00757808 0.00993983 0.38039216 0.78823529 0.52549020
v -0.04070890 -0.00756852 0.00756854 0.38039216 0.78823529 0.52549020
v -0.04070890 -0.00888510 -0.00822844 0.38039216 0.78823529 0.52549020
v -0.04070890 -0.00833553 -0.00890134 0.38039216 0.78823529 0.52549020
v -0.03646785 -0.00883492 -0.00642328 0.38039216 0.78823529 0.52549020
v -0.03646785 -0.00762109 0.00997210 0.38039216 0.78823529 0.52549020
v -0.04070890 -0.00629257 0.00863872 0.38039216 0.78823529 0.52549020
v -0.04070890 -0.00698311 0.00808997 0.38039216 0.78823529 0.52549020
v -0.03655130 -0.00624478 0.01100752 0.38039216 0.78823529 0.52549020
v -0.04070890 -0.00767366 -0.00956679 0.38039216 0.78823529 0.52549020
v -0.03646785 -0.00767605 -0.00767473 0.38039216 0.78823529 0.52549020
v -0.03646785 -0.00851952 -0.00677587 0.38039216 0.78823529 0.52549020
v -0.03646785 -0.00625434 0.01101249 0.38039216 0.78823529 0.52549020
v -0.03735799 -0.00590309 0.01078405 0.38039216 0.78823529 0.52549020
v -0.04070890 -0.00560441 0.00907325 0.38039216 0.78823529 0.52549020
v -0.03646785 -0.00616832 0.01105718 0.38039216 0.78823529 0.52549020
v -0.03651352 -0.00380039 0.01215965 0.38039216 0.78823529 0.52549020
v -0.03691209 -0.00421615 0.01185175 0.38039216 0.78823529 0.52549020
v -0.03693492 -0.00547777 0.01124093 0.38039216 0.78823529 0.52549020
v -0.04070890 -0.00709542 -0.01008077 0.38039216 0.78823529 0.52549020
v -0.03646785 -0.00724356 -0.00805960 0.38039216 0.78823529 0.52549020
v -0.04070890 -0.00472510 0.00955496 0.38039216 0.78823529 0.52549020
v -0.03646785 -0.00380039 0.01215965 0.38039216 0.78823529 0.52549020
v -0.03646785 -0.00376694 0.01216709 0.38039216 0.78823529 0.52549020
v -0.03690503 -0.00181477 0.01254451 0.38039216 0.78823529 0.52549020
v -0.03691209 -0.00302860 0.01227138 0.38039216 0.78823529 0.52549020
v -0.03732021 -0.00343481 0.01203053 0.38039216 0.78823529 0.52549020
v -0.03766024 -0.00509546 0.01103732 0.38039216 0.78823529 0.52549020
v -0.03646785 -0.00634991 -0.00875981 0.38039216 0.78823529 0.52549020
v -0.04070890 -0.00645744 -0.01055503 0.38039216 0.78823529 0.52549020
v -0.04070890 -0.00404889 0.00985044 0.38039216 0.78823529 0.52549020
v -0.03646785 -0.00181477 0.01254203 0.38039216 0.78823529 0.52549020
v -0.03690503 -0.00060333 0.01268853 0.38039216 0.78823529 0.52549020
v -0.03773913 -0.00181477 0.01225400 0.38039216 0.78823529 0.52549020
v -0.03760129 -0.00262957 0.01216213 0.38039216 0.78823529 0.52549020
v -0.04070890 -0.00565459 -0.01109633 0.38039216 0.78823529 0.52549020
v -0.03646785 -0.00581946 -0.00909502 0.38039216 0.78823529 0.52549020
v -0.04070890 -0.00319586 0.01015088 0.38039216 0.78823529 0.52549020
v -0.03646785 -0.00060333 0.01266122 0.38039216 0.78823529 0.52549020
v -0.03690503 0.00060333 0.01271088 0.38039216 0.78823529 0.52549020
v -0.03796789 0.00060333 0.01237070 0.38039216 0.78823529 0.52549020
v -0.03788818 -0.00060333 0.01234339 0.38039216 0.78823529 0.52549020
v -0.04070890 -0.00181477 0.01047864 0.38039216 0.78823529 0.52549020
v -0.04070890 -0.00198681 0.01044388 0.38039216 0.78823529 0.52549020
v -0.04070890 -0.00302383 0.01020303 0.38039216 0.78823529 0.52549020
v -0.04070890 -0.00407040 -0.01185613 0.38039216 0.78823529 0.52549020
v -0.03646785 -0.00499511 -0.00949975 0.38039216 0.78823529 0.52549020
v -0.03646785 0.00060333 0.01265625 0.38039216 0.78823529 0.52549020
v -0.03690503 0.00181477 0.01260907 0.38039216 0.78823529 0.52549020
v -0.03795917 0.00181477 0.01233594 0.38039216 0.78823529 0.52549020
v -0.03856409 0.00181477 0.01198087 0.38039216 0.78823529 0.52549020
v -0.04070890 -0.00060333 0.01062017 0.38039216 0.78823529 0.52549020
v -0.04070890 -0.00077776 0.01060031 0.38039216 0.78823529 0.52549020
v -0.04070890 -0.00302383 -0.01223604 0.38039216 0.78823529 0.52549020
v -0.04014052 -0.00302383 -0.01198277 0.38039216 0.78823529 0.52549020
v -0.03646785 -0.00411102 -0.00992186 0.38039216 0.78823529 0.52549020
v -0.03646785 0.00182433 0.01252217 0.38039216 0.78823529 0.52549020
v -0.03690503 0.00302383 0.01238560 0.38039216 0.78823529 0.52549020
v -0.03763118 0.00378605 0.01214971 0.38039216 0.78823529 0.52549020
v -0.03780929 0.00302383 0.01223910 0.38039216 0.78823529 0.52549020
v -0.03646785 0.00238346 0.01243774 0.38039216 0.78823529 0.52549020
v -0.03841462 0.00302383 0.01192127 0.38039216 0.78823529 0.52549020
v -0.04070890 0.00181477 0.01047367 0.38039216 0.78823529 0.52549020
v -0.04070890 0.00164034 0.01049602 0.38039216 0.78823529 0.52549020
v -0.04070890 0.00060333 0.01060528 0.38039216 0.78823529 0.52549020
v -0.04070890 -0.00290196 -0.01226583 0.38039216 0.78823529 0.52549020
v -0.03993086 -0.00241691 -0.01209699 0.38039216 0.78823529 0.52549020
v -0.03646785 -0.00349454 -0.01013788 0.38039216 0.78823529 0.52549020
v -0.03690503 0.00383862 0.01216958 0.38039216 0.78823529 0.52549020
v -0.03646785 0.00347782 0.01223414 0.38039216 0.78823529 0.52549020
v -0.03690503 0.00444315 0.01195107 0.38039216 0.78823529 0.52549020
v -0.03790395 0.00629018 0.01102491 0.38039216 0.78823529 0.52549020
v -0.03823028 0.00555901 0.01125334 0.38039216 0.78823529 0.52549020
v -0.03871023 0.00603929 0.01088586 0.38039216 0.78823529 0.52549020
v -0.03806670 0.00420659 0.01180706 0.38039216 0.78823529 0.52549020
v -0.03888294 0.00523166 0.01103980 0.38039216 0.78823529 0.52549020
v -0.04070890 0.00302383 0.01028496 0.38039216 0.78823529 0.52549020
v -0.04070890 0.00284940 0.01032469 0.38039216 0.78823529 0.52549020
v -0.04070890 -0.00190796 -0.01242226 0.38039216 0.78823529 0.52549020
v -0.04053494 -0.00060333 -0.01260849 0.38039216 0.78823529 0.52549020
v -0.04041454 -0.00193424 -0.01237509 0.38039216 0.78823529 0.52549020
v -0.03981668 -0.00160928 -0.01218638 0.38039216 0.78823529 0.52549020
v -0.03646785 -0.00225204 -0.01043833 0.38039216 0.78823529 0.52549020
v -0.03646785 -0.00302383 -0.01025955 0.38039216 0.78823529 0.52549020
v -0.03646785 0.00378366 0.01215220 0.38039216 0.78823529 0.52549020
v -0.03690503 0.00544432 0.01150165 0.38039216 0.78823529 0.52549020
v -0.03690503 0.00631885 0.01104477 0.38039216 0.78823529 0.52549020
v -0.03690503 0.00692338 0.01065990 0.38039216 0.78823529 0.52549020
v -0.03811528 0.00774056 0.01003915 0.38039216 0.78823529 0.52549020
v -0.03823028 0.00667727 0.01069218 0.38039216 0.78823529 0.52549020
v -0.03892654 0.00750879 0.00985540 0.38039216 0.78823529 0.52549020
v -0.04070890 0.00643115 0.00891434 0.38039216 0.78823529 0.52549020
v -0.04070890 0.00552317 0.00941591 0.38039216 0.78823529 0.52549020
v -0.04070890 0.00542998 0.00946557 0.38039216 0.78823529 0.52549020
v -0.04070890 0.00488041 0.00969649 0.38039216 0.78823529 0.52549020
v -0.04070890 0.00424482 0.00996217 0.38039216 0.78823529 0.52549020
v -0.04070890 0.00413013 0.01000190 0.38039216 0.78823529 0.52549020
v -0.04070890 -0.00060333 -0.01262090 0.38039216 0.78823529 0.52549020
v -0.04053494 0.00060333 -0.01265318 0.38039216 0.78823529 0.52549020
v -0.03963567 0.00060333 -0.01230308 0.38039216 0.78823529 0.52549020
v -0.03970791 -0.00060333 -0.01226335 0.38039216 0.78823529 0.52549020
v -0.03646785 -0.00181477 -0.01049544 0.38039216 0.78823529 0.52549020
v -0.03646785 0.00588158 0.01117389 0.38039216 0.78823529 0.52549020
v -0.03646785 0.00622566 0.01099511 0.38039216 0.78823529 0.52549020
v -0.03690503 0.00772623 0.01005653 0.38039216 0.78823529 0.52549020
v -0.03646785 0.00722445 0.01024524 0.38039216 0.78823529 0.52549020
v -0.03811528 0.00834509 0.00958475 0.38039216 0.78823529 0.52549020
v -0.03905068 0.00878235 0.00875791 0.38039216 0.78823529 0.52549020
v -0.03985737 0.00834987 0.00837304 0.38039216 0.78823529 0.52549020
v -0.04070890 0.00656018 0.00883240 0.38039216 0.78823529 0.52549020
v -0.04070890 0.00060333 -0.01265567 0.38039216 0.78823529 0.52549020
v -0.04053494 0.00181477 -0.01257125 0.38039216 0.78823529 0.52549020
v -0.03964314 0.00181477 -0.01228073 0.38039216 0.78823529 0.52549020
v -0.03646785 0.00060333 -0.01061959 0.38039216 0.78823529 0.52549020
v -0.03646785 -0.00060333 -0.01061959 0.38039216 0.78823529 0.52549020
v -0.03646785 -0.00104060 -0.01058483 0.38039216 0.78823529 0.52549020
v -0.03646785 0.00760198 0.00995969 0.38039216 0.78823529 0.52549020
v -0.03690503 0.00833075 0.00954006 0.38039216 0.78823529 0.52549020
v -0.03811528 0.00899023 0.00897889 0.38039216 0.78823529 0.52549020
v -0.03811528 0.00959476 0.00837552 0.38039216 0.78823529 0.52549020
v -0.03907932 0.00993645 0.00756854 0.38039216 0.78823529 0.52549020
v -0.03988602 0.00962343 0.00720850 0.38039216 0.78823529 0.52549020
v -0.04070890 0.00773100 0.00794348 0.38039216 0.78823529 0.52549020
v -0.04070890 0.00181477 -0.01256131 0.38039216 0.78823529 0.52549020
v -0.04053494 0.00302383 -0.01236019 0.38039216 0.78823529 0.52549020
v -0.03988560 0.00370720 -0.01212182 0.38039216 0.78823529 0.52549020
v -0.03976686 0.00302383 -0.01219134 0.38039216 0.78823529 0.52549020
v -0.03646785 0.00181477 -0.01048054 0.38039216 0.78823529 0.52549020
v -0.03646785 0.00137512 -0.01053268 0.38039216 0.78823529 0.52549020
v -0.03646785 0.00851952 0.00908318 0.38039216 0.78823529 0.52549020
v -0.03690503 0.00890899 0.00893668 0.38039216 0.78823529 0.52549020
v -0.03811528 0.01008459 0.00777215 0.38039216 0.78823529 0.52549020
v -0.03690503 0.00951352 0.00824144 0.38039216 0.78823529 0.52549020
v -0.03895394 0.01100930 0.00624509 0.38039216 0.78823529 0.52549020
v -0.03942019 0.01034982 0.00672680 0.38039216 0.78823529 0.52549020
v -0.03976063 0.01076080 0.00587512 0.38039216 0.78823529 0.52549020
v -0.04006081 0.01102364 0.00506814 0.38039216 0.78823529 0.52549020
v -0.04012226 0.00995556 0.00640152 0.38039216 0.78823529 0.52549020
v -0.04070890 0.00904997 0.00664237 0.38039216 0.78823529 0.52549020
v -0.04070890 0.00897351 0.00673424 0.38039216 0.78823529 0.52549020
v -0.04070890 0.00783853 0.00784664 0.38039216 0.78823529 0.52549020
v -0.04070890 0.00319586 -0.01231550 0.38039216 0.78823529 0.52549020
v -0.04053494 0.00381473 -0.01216155 0.38039216 0.78823529 0.52549020
v -0.04053494 0.00441925 -0.01195794 0.38039216 0.78823529 0.52549020
v -0.03967178 0.00626628 -0.01101191 0.38039216 0.78823529 0.52549020
v -0.03929107 0.00543476 -0.01118572 0.38039216 0.78823529 0.52549020
v -0.03865294 0.00502378 -0.01095728 0.38039216 0.78823529 0.52549020
v -0.03646785 0.00302383 -0.01021486 0.38039216 0.78823529 0.52549020
v -0.03646785 0.00258656 -0.01031418 0.38039216 0.78823529 0.52549020
v -0.03646785 0.00878235 0.00880757 0.38039216 0.78823529 0.52549020
v -0.03811528 0.01068912 0.00695523 0.38039216 0.78823529 0.52549020
v -0.03646785 0.00967361 0.00770262 0.38039216 0.78823529 0.52549020
v -0.03690503 0.00995556 0.00763558 0.38039216 0.78823529 0.52549020
v -0.03811528 0.01106665 0.00634938 0.38039216 0.78823529 0.52549020
v -0.03811528 0.01152781 0.00544307 0.38039216 0.78823529 0.52549020
v -0.03892280 0.01216340 0.00380925 0.38039216 0.78823529 0.52549020
v -0.03932553 0.01183844 0.00422143 0.38039216 0.78823529 0.52549020
v -0.03934421 0.01123391 0.00546045 0.38039216 0.78823529 0.52549020
v -0.03972950 0.01201764 0.00340203 0.38039216 0.78823529 0.52549020
v -0.04000310 0.01215145 0.00259505 0.38039216 0.78823529 0.52549020
v -0.04024639 0.01123152 0.00423384 0.38039216 0.78823529 0.52549020
v -0.04070890 0.01095435 0.00371241 0.38039216 0.78823529 0.52549020
v -0.04070890 0.01048841 0.00450946 0.38039216 0.78823529 0.52549020
v -0.04070890 0.00381234 -0.01215906 0.38039216 0.78823529 0.52549020
v -0.04070890 0.00439058 -0.01193559 0.38039216 0.78823529 0.52549020
v -0.04053494 0.00544432 -0.01153086 0.38039216 0.78823529 0.52549020
v -0.04053494 0.00635230 -0.01106653 0.38039216 0.78823529 0.52549020
v -0.04053494 0.00695683 -0.01068663 0.38039216 0.78823529 0.52549020
v -0.03932470 0.00765932 -0.00997401 0.38039216 0.78823529 0.52549020
v -0.03929107 0.00666293 -0.01058731 0.38039216 0.78823529 0.52549020
v -0.03886509 0.00583141 -0.01080085 0.38039216 0.78823529 0.52549020
v -0.03646785 0.00407279 -0.00986723 0.38039216 0.78823529 0.52549020
v -0.03646785 0.00370959 -0.00999139 0.38039216 0.78823529 0.52549020
v -0.03727828 0.01100691 0.00625502 0.38039216 0.78823529 0.52549020
v -0.03646785 0.00983370 0.00747915 0.38039216 0.78823529 0.52549020
v -0.03811528 0.01195313 0.00440517 0.38039216 0.78823529 0.52549020
v -0.03748338 0.01211322 0.00367765 0.38039216 0.78823529 0.52549020
v -0.03811528 0.01215862 0.00379931 0.38039216 0.78823529 0.52549020
v -0.03811528 0.01235455 0.00302461 0.38039216 0.78823529 0.52549020
v -0.03932470 0.01253615 0.00181290 0.38039216 0.78823529 0.52549020
v -0.03932553 0.01227092 0.00300723 0.38039216 0.78823529 0.52549020
v -0.04012890 0.01223747 0.00181290 0.38039216 0.78823529 0.52549020
v -0.04070890 0.01172135 0.00181290 0.38039216 0.78823529 0.52549020
v -0.04070890 0.01171419 0.00184021 0.38039216 0.78823529 0.52549020
v -0.04070890 0.01132949 0.00297495 0.38039216 0.78823529 0.52549020
v -0.04070890 0.00561158 -0.01141912 0.38039216 0.78823529 0.52549020
v -0.04070890 0.00632841 -0.01105164 0.38039216 0.78823529 0.52549020
v -0.04070890 0.00706913 -0.01054510 0.38039216 0.78823529 0.52549020
v -0.04053494 0.00776446 -0.01008326 0.38039216 0.78823529 0.52549020
v -0.03932470 0.00826385 -0.00952955 0.38039216 0.78823529 0.52549020
v -0.03861225 0.00741321 -0.00978281 0.38039216 0.78823529 0.52549020
v -0.03646785 0.00614203 -0.00887899 0.38039216 0.78823529 0.52549020
v -0.03646785 0.00515281 -0.00938801 0.38039216 0.78823529 0.52549020
v -0.03646785 0.00467731 -0.00960652 0.38039216 0.78823529 0.52549020
v -0.03646785 0.00445987 -0.00970336 0.38039216 0.78823529 0.52549020
v -0.03688718 0.01055770 0.00665727 0.38039216 0.78823529 0.52549020
v -0.03647159 0.01077753 0.00576835 0.38039216 0.78823529 0.52549020
v -0.03688718 0.01116223 0.00539590 0.38039216 0.78823529 0.52549020
v -0.03646785 0.01077992 0.00575345 0.38039216 0.78823529 0.52549020
v -0.03676927 0.01173808 0.00302461 0.38039216 0.78823529 0.52549020
v -0.03737418 0.01218013 0.00302461 0.38039216 0.78823529 0.52549020
v -0.03811528 0.01256482 0.00181290 0.38039216 0.78823529 0.52549020
v -0.03646785 0.01100930 0.00510787 0.38039216 0.78823529 0.52549020
v -0.03701007 0.01165923 0.00414197 0.38039216 0.78823529 0.52549020
v -0.03932470 0.01268191 0.00060367 0.38039216 0.78823529 0.52549020
v -0.04027297 0.01233066 0.00060367 0.38039216 0.78823529 0.52549020
v -0.04070890 0.01194357 0.00087680 0.38039216 0.78823529 0.52549020
v -0.04070890 0.00772384 -0.01005346 0.38039216 0.78823529 0.52549020
v -0.04053494 0.00836898 -0.00958665 0.38039216 0.78823529 0.52549020
v -0.03932470 0.00894723 -0.00892369 0.38039216 0.78823529 0.52549020
v -0.03849849 0.00871545 -0.00869277 0.38039216 0.78823529 0.52549020
v -0.03646785 0.00740843 -0.00795779 0.38039216 0.78823529 0.52549020
v -0.03646785 0.00646939 -0.00867290 0.38039216 0.78823529 0.52549020
v -0.03646785 0.01147285 0.00302461 0.38039216 0.78823529 0.52549020
v -0.03664845 0.01179065 0.00181290 0.38039216 0.78823529 0.52549020
v -0.03725337 0.01226853 0.00181290 0.38039216 0.78823529 0.52549020
v -0.03646785 0.01124586 0.00420156 0.38039216 0.78823529 0.52549020
v -0.03811528 0.01264129 0.00060367 0.38039216 0.78823529 0.52549020
v -0.03932470 0.01270341 -0.00060308 0.38039216 0.78823529 0.52549020
v -0.04034728 0.01235933 -0.00060308 0.38039216 0.78823529 0.52549020
v -0.04070890 0.01198897 0.00060367 0.38039216 0.78823529 0.52549020
v -0.04070890 0.01210605 -0.00060308 0.38039216 0.78823529 0.52549020
v -0.04070890 0.01207499 -0.00016855 0.38039216 0.78823529 0.52549020
v -0.04070890 0.00844067 -0.00942774 0.38039216 0.78823529 0.52549020
v -0.04070890 0.00892572 -0.00894107 0.38039216 0.78823529 0.52549020
v -0.04053494 0.00896873 -0.00898080 0.38039216 0.78823529 0.52549020
v -0.03932470 0.00955175 -0.00834266 0.38039216 0.78823529 0.52549020
v -0.03847483 0.00989105 -0.00750837 0.38039216 0.78823529 0.52549020
v -0.03646785 0.00768083 -0.00770949 0.38039216 0.78823529 0.52549020
v -0.03646785 0.01162339 0.00181290 0.38039216 0.78823529 0.52549020
v -0.03646785 0.01163295 0.00150748 0.38039216 0.78823529 0.52549020
v -0.03646785 0.01163056 0.00060367 0.38039216 0.78823529 0.52549020
v -0.03664306 0.01177870 0.00060367 0.38039216 0.78823529 0.52549020
v -0.03724797 0.01228765 0.00060367 0.38039216 0.78823529 0.52549020
v -0.03811528 0.01258872 -0.00060308 0.38039216 0.78823529 0.52549020
v -0.03932470 0.01260305 -0.00181480 0.38039216 0.78823529 0.52549020
v -0.04033898 0.01232588 -0.00181480 0.38039216 0.78823529 0.52549020
v -0.04070890 0.01210844 -0.00133557 0.38039216 0.78823529 0.52549020
v -0.04053494 0.00957326 -0.00832776 0.38039216 0.78823529 0.52549020
v -0.04070890 0.00963060 -0.00814154 0.38039216 0.78823529 0.52549020
v -0.03932470 0.01006309 -0.00773680 0.38039216 0.78823529 0.52549020
v -0.03858194 0.01097346 -0.00618243 0.38039216 0.78823529 0.52549020
v -0.03812524 0.01026380 -0.00660703 0.38039216 0.78823529 0.52549020
v -0.03646785 0.00886598 -0.00647046 0.38039216 0.78823529 0.52549020
v -0.03646785 0.00866766 -0.00671132 0.38039216 0.78823529 0.52549020
v -0.03646785 0.01146330 -0.00060308 0.38039216 0.78823529 0.52549020
v -0.03731938 0.01224464 -0.00060308 0.38039216 0.78823529 0.52549020
v -0.03741778 0.01217296 -0.00154167 0.38039216 0.78823529 0.52549020
v -0.03801398 0.01236411 -0.00189177 0.38039216 0.78823529 0.52549020
v -0.03835567 0.01225181 -0.00302403 0.38039216 0.78823529 0.52549020
v -0.03932470 0.01238562 -0.00302403 0.38039216 0.78823529 0.52549020
v -0.04003839 0.01214667 -0.00377887 0.38039216 0.78823529 0.52549020
v -0.04020155 0.01223269 -0.00302403 0.38039216 0.78823529 0.52549020
v -0.04070890 0.01209172 -0.00181480 0.38039216 0.78823529 0.52549020
v -0.04070890 0.01194596 -0.00302403 0.38039216 0.78823529 0.52549020
v -0.04070890 0.01197941 -0.00277076 0.38039216 0.78823529 0.52549020
v -0.04070890 0.00998185 -0.00766976 0.38039216 0.78823529 0.52549020
v -0.04053494 0.01002247 -0.00772191 0.38039216 0.78823529 0.52549020
v -0.03932470 0.01066762 -0.00692982 0.38039216 0.78823529 0.52549020
v -0.03777525 0.01063416 -0.00570817 0.38039216 0.78823529 0.52549020
v -0.03932470 0.01105470 -0.00632396 0.38039216 0.78823529 0.52549020
v -0.03932470 0.01151586 -0.00544497 0.38039216 0.78823529 0.52549020
v -0.03860436 0.01214906 -0.00376894 0.38039216 0.78823529 0.52549020
v -0.03816676 0.01171180 -0.00419850 0.38039216 0.78823529 0.52549020
v -0.03815306 0.01114072 -0.00536055 0.38039216 0.78823529 0.52549020
v -0.03747881 0.01092567 -0.00490119 0.38039216 0.78823529 0.52549020
v -0.03646785 0.01012283 -0.00438224 0.38039216 0.78823529 0.52549020
v -0.03646785 0.01120046 -0.00182473 0.38039216 0.78823529 0.52549020
v -0.03754316 0.01207977 -0.00234865 0.38039216 0.78823529 0.52549020
v -0.03932470 0.01217296 -0.00384591 0.38039216 0.78823529 0.52549020
v -0.03932470 0.01195552 -0.00445177 0.38039216 0.78823529 0.52549020
v -0.04028417 0.01102364 -0.00628175 0.38039216 0.78823529 0.52549020
v -0.04062628 0.01124347 -0.00553188 0.38039216 0.78823529 0.52549020
v -0.04070890 0.01117656 -0.00561382 0.38039216 0.78823529 0.52549020
v -0.04047889 0.01178587 -0.00420346 0.38039216 0.78823529 0.52549020
v -0.04070890 0.01185755 -0.00337662 0.38039216 0.78823529 0.52549020
v -0.04062628 0.01066762 -0.00667407 0.38039216 0.78823529 0.52549020
v -0.04070890 0.01070107 -0.00655240 0.38039216 0.78823529 0.52549020
v -0.03775075 0.01195313 -0.00302403 0.38039216 0.78823529 0.52549020
v -0.03734305 0.01108816 -0.00423326 0.38039216 0.78823529 0.52549020
v -0.03646785 0.01018973 -0.00424816 0.38039216 0.78823529 0.52549020
v -0.04070890 0.01163295 -0.00421091 0.38039216 0.78823529 0.52549020
f 1 2 3
f 1 3 4
f 1 4 8
f 1 8 12
f 1 12 17
f 1 17 21
f 1 21 20
f 1 20 27
f 1 27 32
f 1 32 40
f 1 40 47
f 1 47 46
f 1 46 56
f 1 56 64
f 1 64 72
f 1 72 82
f 1 82 91
f 1 91 103
f 1 103 119
f 1 119 118
f 1 118 137
f 1 137 151
f 1 151 150
f 1 150 149
f 1 149 164
f 1 164 163
f 1 163 184
f 1 184 183
f 1 183 208
f 1 208 207
f 1 207 230
f 1 230 229
f 1 229 228
f 1 228 227
f 1 227 248
f 1 248 247
f 1 247 264
f 1 264 280
f 1 280 279
f 1 279 302
f 1 302 316
f 1 316 303
f 1 303 281
f 1 281 267
f 1 267 266
f 1 266 265
f 1 265 249
f 1 249 252
f 1 252 238
f 1 238 234
f 1 234 210
f 1 210 187
f 1 187 185
f 1 185 165
f 1 165 152
f 1 152 141
f 1 141 139
f 1 139 138
f 1 138 120
f 1 120 105
f 1 105 96
f 1 96 92
f 1 92 83
f 1 83 74
f 1 74 67
f 1 67 59
f 1 59 58
f 1 58 51
f 1 51 48
f 1 48 41
f 1 41 35
f 1 35 33
f 1 33 28
f 1 28 23
f 1 23 18
f 1 18 14
f 1 14 13
f 1 13 9
f 1 9 6
f 1 6 2
f 2 5 3
f 2 6 5
f 3 7 4
f 3 5 10
f 3 10 15
f 3 15 19
f 3 19 25
f 3 25 29
f 3 29 34
f 3 34 37
f 3 37 43
f 3 43 42
f 3 42 50
f 3 50 57
f 3 57 66
f 3 66 73
f 3 73 80
f 3 80 79
f 3 79 78
f 3 78 88
f 3 88 87
f 3 87 100
f 3 100 99
f 3 99 98
f 3 98 113
f 3 113 112
f 3 112 132
f 3 132 131
f 3 131 130
f 3 130 129
f 3 129 128
f 3 128 127
f 3 127 145
f 3 145 158
f 3 158 176
f 3 176 175
f 3 175 174
f 3 174 198
f 3 198 197
f 3 197 220
f 3 220 219
f 3 219 218
f 3 218 242
f 3 242 256
f 3 256 258
f 3 258 257
f 3 257 273
f 3 273 289
f 3 289 291
f 3 291 290
f 3 290 311
f 3 311 317
f 3 317 309
f 3 309 313
f 3 313 292
f 3 292 275
f 3 275 260
f 3 260 259
f 3 259 243
f 3 243 223
f 3 223 222
f 3 222 221
f 3 221 200
f 3 200 199
f 3 199 177
f 3 177 159
f 3 159 146
f 3 146 133
f 3 133 114
f 3 114 101
f 3 101 89
f 3 89 81
f 3 81 71
f 3 71 65
f 3 65 55
f 3 55 45
f 3 45 39
f 3 39 38
f 3 38 31
f 3 31 26
f 3 26 22
f 3 22 16
f 3 16 11
f 3 11 7
f 4 7 8
f 5 6 9
f 5 9 10
f 7 11 8
f 8 11 12
f 9 13 10
f 10 13 14
f 10 14 15
f 11 16 12
f 12 16 17
f 14 18 19
f 14 19 15
f 16 20 21
f 16 21 17
f 16 22 20
f 18 23 24
f 18 24 25
f 18 25 19
f 20 22 26
f 20 26 27
f 23 28 24
f 24 29 25
f 24 28 30
f 24 30 29
f 26 31 27
f 27 31 32
f 28 33 30
f 29 30 34
f 30 33 35
f 30 35 36
f 30 36 37
f 30 37 34
f 31 38 32
f 32 38 39
f 32 39 40
f 35 41 36
f 36 42 43
f 36 43 37
f 36 41 44
f 36 44 42
f 39 45 46
f 39 46 47
f 39 47 40
f 41 48 44
f 42 44 49
f 42 49 50
f 44 48 51
f 44 51 52
f 44 52 53
f 44 53 54
f 44 54 49
f 45 55 56
f 45 56 46
f 49 54 57
f 49 57 50
f 51 58 52
f 52 58 59
f 52 59 60
f 52 60 61
f 52 61 62
f 52 62 53
f 53 62 54
f 54 63 57
f 54 62 63
f 55 64 56
f 55 65 64
f 57 63 62
f 57 62 66
f 59 67 60
f 60 67 68
f 60 68 69
f 60 69 70
f 60 70 61
f 61 70 62
f 62 70 66
f 64 65 71
f 64 71 72
f 66 70 73
f 67 74 68
f 68 74 75
f 68 75 76
f 68 76 77
f 68 77 69
f 69 77 78
f 69 78 79
f 69 79 70
f 70 79 80
f 70 80 73
f 71 81 82
f 71 82 72
f 74 83 75
f 75 83 84
f 75 84 85
f 75 85 76
f 76 85 86
f 76 86 87
f 76 87 77
f 77 87 88
f 77 88 78
f 81 89 90
f 81 90 91
f 81 91 82
f 83 92 84
f 84 93 94
f 84 94 95
f 84 95 85
f 84 92 96
f 84 96 93
f 85 95 97
f 85 97 86
f 86 97 98
f 86 98 99
f 86 99 100
f 86 100 87
f 89 101 102
f 89 102 90
f 90 102 103
f 90 103 91
f 93 104 94
f 93 96 105
f 93 105 104
f 94 104 106
f 94 106 107
f 94 107 108
f 94 108 109
f 94 109 110
f 94 110 97
f 94 97 95
f 97 110 111
f 97 111 112
f 97 112 113
f 97 113 98
f 101 114 115
f 101 115 116
f 101 116 102
f 102 116 117
f 102 117 118
f 102 118 119
f 102 119 103
f 104 105 120
f 104 120 106
f 106 121 107
f 106 120 121
f 107 121 122
f 107 122 123
f 107 123 124
f 107 124 125
f 107 125 109
f 107 109 108
f 109 111 110
f 109 125 126
f 109 126 127
f 109 127 128
f 109 128 129
f 109 129 130
f 109 130 131
f 109 131 111
f 111 131 132
f 111 132 112
f 114 133 115
f 115 133 134
f 115 134 135
f 115 135 136
f 115 136 117
f 115 117 116
f 117 136 137
f 117 137 118
f 120 138 121
f 121 138 139
f 121 139 122
f 122 139 123
f 123 140 124
f 123 139 141
f 123 141 140
f 124 140 142
f 124 142 126
f 124 126 125
f 126 142 143
f 126 143 144
f 126 144 145
f 126 145 127
f 133 146 134
f 134 146 147
f 134 147 148
f 134 148 135
f 135 148 149
f 135 149 150
f 135 150 136
f 136 150 151
f 136 151 137
f 140 141 152
f 140 152 153
f 140 153 142
f 142 153 154
f 142 154 143
f 143 154 155
f 143 155 156
f 143 156 157
f 143 157 144
f 144 157 158
f 144 158 145
f 146 159 147
f 147 159 160
f 147 160 161
f 147 161 162
f 147 162 148
f 148 162 163
f 148 163 164
f 148 164 149
f 152 165 153
f 153 165 166
f 153 166 155
f 153 155 154
f 155 167 156
f 155 166 168
f 155 168 167
f 156 167 169
f 156 169 170
f 156 170 157
f 157 170 171
f 157 171 172
f 157 172 173
f 157 173 174
f 157 174 175
f 157 175 176
f 157 176 158
f 159 177 160
f 160 177 178
f 160 178 161
f 161 178 179
f 161 179 180
f 161 180 181
f 161 181 182
f 161 182 183
f 161 183 184
f 161 184 163
f 161 163 162
f 165 185 166
f 166 185 168
f 167 168 186
f 167 186 169
f 168 187 188
f 168 188 186
f 168 185 187
f 169 171 170
f 169 186 189
f 169 189 190
f 169 190 191
f 169 191 192
f 169 192 193
f 169 193 171
f 171 193 172
f 172 194 195
f 172 195 196
f 172 196 197
f 172 197 198
f 172 198 174
f 172 174 173
f 172 193 194
f 177 199 178
f 178 199 179
f 179 199 200
f 179 200 201
f 179 201 180
f 180 202 203
f 180 203 204
f 180 204 205
f 180 205 206
f 180 206 181
f 180 201 202
f 181 206 182
f 182 206 207
f 182 207 208
f 182 208 183
f 186 188 209
f 186 209 189
f 187 210 188
f 188 210 209
f 189 209 190
f 190 211 191
f 190 209 212
f 190 212 211
f 191 213 214
f 191 214 215
f 191 215 216
f 191 216 194
f 191 194 192
f 191 211 213
f 192 194 193
f 194 216 195
f 195 216 215
f 195 215 217
f 195 217 218
f 195 218 219
f 195 219 220
f 195 220 196
f 196 220 197
f 200 221 201
f 201 221 202
f 202 221 222
f 202 222 203
f 203 222 223
f 203 223 224
f 203 224 225
f 203 225 204
f 204 225 226
f 204 226 205
f 205 226 206
f 206 226 227
f 206 227 228
f 206 228 229
f 206 229 230
f 206 230 207
f 209 210 231
f 209 231 232
f 209 232 233
f 209 233 212
f 210 234 232
f 210 232 231
f 211 212 213
f 212 235 236
f 212 236 237
f 212 237 214
f 212 214 213
f 212 233 238
f 212 238 239
f 212 239 235
f 214 237 215
f 215 237 240
f 215 240 241
f 215 241 217
f 217 241 242
f 217 242 218
f 223 243 224
f 224 243 244
f 224 244 225
f 225 245 246
f 225 246 226
f 225 244 245
f 226 246 247
f 226 247 248
f 226 248 227
f 232 234 238
f 232 238 233
f 235 249 250
f 235 250 251
f 235 251 236
f 235 239 252
f 235 252 249
f 236 251 237
f 237 251 253
f 237 253 240
f 238 252 239
f 240 253 254
f 240 254 255
f 240 255 241
f 241 256 242
f 241 255 257
f 241 257 258
f 241 258 256
f 243 259 244
f 244 259 260
f 244 260 261
f 244 261 262
f 244 262 245
f 245 262 246
f 246 262 263
f 246 263 264
f 246 264 247
f 249 265 250
f 250 265 266
f 250 266 267
f 250 267 268
f 250 268 269
f 250 269 251
f 251 269 253
f 253 269 270
f 253 270 254
f 254 270 271
f 254 271 272
f 254 272 255
f 255 272 273
f 255 273 257
f 260 274 261
f 260 275 274
f 261 274 262
f 262 274 276
f 262 276 263
f 263 276 277
f 263 277 278
f 263 278 279
f 263 279 280
f 263 280 264
f 267 281 282
f 267 282 268
f 268 282 269
f 269 282 270
f 270 282 283
f 270 283 284
f 270 284 285
f 270 285 271
f 271 286 287
f 271 287 288
f 271 288 272
f 271 285 286
f 272 289 273
f 272 288 290
f 272 290 291
f 272 291 289
f 274 275 292
f 274 292 293
f 274 293 294
f 274 294 276
f 276 294 277
f 277 295 278
f 277 294 296
f 277 296 297
f 277 297 298
f 277 298 299
f 277 299 300
f 277 300 301
f 277 301 295
f 278 295 279
f 279 295 301
f 279 301 302
f 281 303 283
f 281 283 282
f 283 303 304
f 283 304 284
f 284 304 285
f 285 298 286
f 285 304 298
f 286 298 305
f 286 305 287
f 287 305 306
f 287 306 307
f 287 307 308
f 287 308 309
f 287 309 310
f 287 310 290
f 287 290 288
f 290 310 311
f 292 312 293
f 292 313 312
f 293 312 307
f 293 307 294
f 294 307 296
f 296 307 297
f 297 307 306
f 297 306 298
f 298 306 305
f 298 304 314
f 298 314 299
f 299 314 301
f 299 301 300
f 301 314 304
f 301 304 315
f 301 315 316
f 301 316 302
f 303 316 304
f 304 316 315
f 307 312 313
f 307 313 309
f 307 309 308
f 309 317 310
f 310 317 311

