# https://github.com/mikedh/trimesh
v -0.04295473 -0.01267210 -0.00060435 0.79607843 0.45882353 0.78039216
v -0.04201943 -0.01232037 -0.00060435 0.79607843 0.45882353 0.78039216
v -0.04295473 -0.01263086 0.00060491 0.79607843 0.45882353 0.78039216
v -0.04416477 -0.01266967 0.00060491 0.79607843 0.45882353 0.78039216
v -0.04416477 -0.01263571 -0.00060435 0.79607843 0.45882353 0.78039216
v -0.04295473 -0.01257992 -0.00181360 0.79607843 0.45882353 0.78039216
v -0.04202876 -0.01229368 -0.00181360 0.79607843 0.45882353 0.78039216
v -0.04141441 -0.01185220 -0.00060435 0.79607843 0.45882353 0.78039216
v -0.04209278 -0.01228398 0.00060491 0.79607843 0.45882353 0.78039216
v -0.04142373 -0.01185705 -0.00181360 0.79607843 0.45882353 0.78039216
v -0.04223566 -0.01218452 0.00181416 0.79607843 0.45882353 0.78039216
v -0.04295473 -0.01246348 0.00181416 0.79607843 0.45882353 0.78039216
v -0.04416477 -0.01257264 0.00181416 0.79607843 0.45882353 0.78039216
v -0.04504029 -0.01230824 0.00181416 0.79607843 0.45882353 0.78039216
v -0.04504029 -0.01234462 0.00060491 0.79607843 0.45882353 0.78039216
v -0.04504029 -0.01229126 -0.00047081 0.79607843 0.45882353 0.78039216
v -0.04503223 -0.01228640 -0.00060435 0.79607843 0.45882353 0.78039216
v -0.04489105 -0.01218938 -0.00181360 0.79607843 0.45882353 0.78039216
v -0.04416477 -0.01247319 -0.00181360 0.79607843 0.45882353 0.78039216
v -0.04295473 -0.01236160 -0.00302286 0.79607843 0.45882353 0.78039216
v -0.04228950 -0.01212873 -0.00372517 0.79607843 0.45882353 0.78039216
v -0.04215807 -0.01220393 -0.00302286 0.79607843 0.45882353 0.78039216
v -0.04155305 -0.01180368 -0.00302286 0.79607843 0.45882353 0.78039216
v -0.04070890 -0.01121908 -0.00060435 0.79607843 0.45882353 0.78039216
v -0.04070890 -0.01111235 0.00060491 0.79607843 0.45882353 0.78039216
v -0.04070890 -0.01116572 -0.00181360 0.79607843 0.45882353 0.78039216
v -0.04087468 -0.01119968 -0.00302286 0.79607843 0.45882353 0.78039216
v -0.04070890 -0.01084067 0.00190071 0.79607843 0.45882353 0.78039216
v -0.04233275 -0.01211175 0.00246206 0.79607843 0.45882353 0.78039216
v -0.04299628 -0.01222819 0.00292944 0.79607843 0.45882353 0.78039216
v -0.04342705 -0.01214814 0.00376776 0.79607843 0.45882353 0.78039216
v -0.04416477 -0.01235190 0.00302341 0.79607843 0.45882353 0.78039216
v -0.04482406 -0.01212631 0.00371336 0.79607843 0.45882353 0.78039216
v -0.04495677 -0.01219908 0.00302341 0.79607843 0.45882353 0.78039216
v -0.04504029 -0.01225730 0.00227907 0.79607843 0.45882353 0.78039216
v -0.04504029 -0.01228155 -0.00060435 0.79607843 0.45882353 0.78039216
v -0.04479269 -0.01211660 -0.00247634 0.79607843 0.45882353 0.78039216
v -0.04504029 -0.01210690 -0.00157126 0.79607843 0.45882353 0.78039216
v -0.04413170 -0.01223546 -0.00293631 0.79607843 0.45882353 0.78039216
v -0.04370602 -0.01215299 -0.00377957 0.79607843 0.45882353 0.78039216
v -0.04295473 -0.01216269 -0.00381419 0.79607843 0.45882353 0.78039216
v -0.04295473 -0.01194923 -0.00441758 0.79607843 0.45882353 0.78039216
v -0.04207200 -0.01101047 -0.00626485 0.79607843 0.45882353 0.78039216
v -0.04169932 -0.01119725 -0.00546362 0.79607843 0.45882353 0.78039216
v -0.04126559 -0.01081884 -0.00587907 0.79607843 0.45882353 0.78039216
v -0.04105148 -0.01097651 -0.00507290 0.79607843 0.45882353 0.78039216
v -0.04182991 -0.01171636 -0.00417029 0.79607843 0.45882353 0.78039216
v -0.04095524 -0.01109052 -0.00423459 0.79607843 0.45882353 0.78039216
v -0.04070890 -0.01102988 -0.00302286 0.79607843 0.45882353 0.78039216
v -0.04070890 -0.01046953 0.00302341 0.79607843 0.45882353 0.78039216
v -0.04262106 -0.01196378 0.00326823 0.79607843 0.45882353 0.78039216
v -0.04070890 -0.00999652 0.00412386 0.79607843 0.45882353 0.78039216
v -0.04227339 -0.01097166 0.00498196 0.79607843 0.45882353 0.78039216
v -0.04299628 -0.01176487 0.00419558 0.79607843 0.45882353 0.78039216
v -0.04338549 -0.01098621 0.00620605 0.79607843 0.45882353 0.78039216
v -0.04416477 -0.01150289 0.00544440 0.79607843 0.45882353 0.78039216
v -0.04416477 -0.01194438 0.00440083 0.79607843 0.45882353 0.78039216
v -0.04416477 -0.01215542 0.00379496 0.79607843 0.45882353 0.78039216
v -0.04504029 -0.01193467 0.00392355 0.79607843 0.45882353 0.78039216
v -0.04504029 -0.01214571 0.00302341 0.79607843 0.45882353 0.78039216
v -0.04504029 -0.01100805 0.00625799 0.79607843 0.45882353 0.78039216
v -0.04504029 -0.01191042 -0.00229830 0.79607843 0.45882353 0.78039216
v -0.04504029 -0.01172121 -0.00279041 0.79607843 0.45882353 0.78039216
v -0.04500468 -0.01115844 -0.00423459 0.79607843 0.45882353 0.78039216
v -0.04484823 -0.01097409 -0.00498635 0.79607843 0.45882353 0.78039216
v -0.04451286 -0.01196863 -0.00328251 0.79607843 0.45882353 0.78039216
v -0.04413170 -0.01176972 -0.00420244 0.79607843 0.45882353 0.78039216
v -0.04374206 -0.01098864 -0.00621292 0.79607843 0.45882353 0.78039216
v -0.04295473 -0.01151017 -0.00544384 0.79607843 0.45882353 0.78039216
v -0.04295473 -0.01105656 -0.00633409 0.79607843 0.45882353 0.78039216
v -0.04295473 -0.01067572 -0.00693995 0.79607843 0.45882353 0.78039216
v -0.04174511 -0.00998439 -0.00767936 0.79607843 0.45882353 0.78039216
v -0.04169932 -0.01060780 -0.00666299 0.79607843 0.45882353 0.78039216
v -0.04101290 -0.00980003 -0.00743454 0.79607843 0.45882353 0.78039216
v -0.04083398 -0.01001835 -0.00665310 0.79607843 0.45882353 0.78039216
v -0.04070890 -0.01079216 -0.00427415 0.79607843 0.45882353 0.78039216
v -0.04070890 -0.00988008 -0.00665310 0.79607843 0.45882353 0.78039216
v -0.04070890 -0.01040889 -0.00543395 0.79607843 0.45882353 0.78039216
v -0.04070890 -0.00972969 0.00461597 0.79607843 0.45882353 0.78039216
v -0.04070890 -0.00868420 0.00630250 0.79607843 0.45882353 0.78039216
v -0.04257908 -0.01069755 0.00578813 0.79607843 0.45882353 0.78039216
v -0.04297127 -0.01117785 0.00540730 0.79607843 0.45882353 0.78039216
v -0.04292081 -0.01030458 0.00666354 0.79607843 0.45882353 0.78039216
v -0.04326254 -0.00991162 0.00753401 0.79607843 0.45882353 0.78039216
v -0.04416477 -0.01006686 0.00775162 0.79607843 0.45882353 0.78039216
v -0.04416477 -0.01067330 0.00693062 0.79607843 0.45882353 0.78039216
v -0.04416477 -0.01105171 0.00632475 0.79607843 0.45882353 0.78039216
v -0.04504029 -0.01000865 0.00769969 0.79607843 0.45882353 0.78039216
v -0.04504029 -0.01124577 -0.00393042 0.79607843 0.45882353 0.78039216
v -0.04504029 -0.01113904 -0.00418266 0.79607843 0.45882353 0.78039216
v -0.04504029 -0.01111235 -0.00423706 0.79607843 0.45882353 0.78039216
v -0.04504029 -0.01081399 -0.00482809 0.79607843 0.45882353 0.78039216
v -0.04504029 -0.01049379 -0.00528557 0.79607843 0.45882353 0.78039216
v -0.04504029 -0.00982672 -0.00618571 0.79607843 0.45882353 0.78039216
v -0.04491649 -0.00989464 -0.00631183 0.79607843 0.45882353 0.78039216
v -0.04454890 -0.01070240 -0.00579499 0.79607843 0.45882353 0.78039216
v -0.04415332 -0.01118270 -0.00541169 0.79607843 0.45882353 0.78039216
v -0.04420208 -0.01030701 -0.00666546 0.79607843 0.45882353 0.78039216
v -0.04385484 -0.00991162 -0.00753593 0.79607843 0.45882353 0.78039216
v -0.04295473 -0.01006929 -0.00775354 0.79607843 0.45882353 0.78039216
v -0.04174511 -0.00954291 -0.00828275 0.79607843 0.45882353 0.78039216
v -0.04089800 -0.00870846 -0.00872787 0.79607843 0.45882353 0.78039216
v -0.04070890 -0.00888553 -0.00822834 0.79607843 0.45882353 0.78039216
v -0.04070890 -0.00929306 -0.00768430 0.79607843 0.45882353 0.78039216
v -0.04070890 -0.00825970 0.00682428 0.79607843 0.45882353 0.78039216
v -0.04070890 -0.00756836 0.00756863 0.79607843 0.45882353 0.78039216
v -0.04329222 -0.00874484 0.00872348 0.79607843 0.45882353 0.78039216
v -0.04416477 -0.00956959 0.00835749 0.79607843 0.45882353 0.78039216
v -0.04504029 -0.00954776 0.00830556 0.79607843 0.45882353 0.78039216
v -0.04504029 -0.00964721 -0.00641322 0.79607843 0.45882353 0.78039216
v -0.04466168 -0.00953806 -0.00712048 0.79607843 0.45882353 0.78039216
v -0.04382940 -0.00874969 -0.00872292 0.79607843 0.45882353 0.78039216
v -0.04295473 -0.00957444 -0.00835941 0.79607843 0.45882353 0.78039216
v -0.04174511 -0.00893890 -0.00895291 0.79607843 0.45882353 0.78039216
v -0.04174511 -0.00834460 -0.00955877 0.79607843 0.45882353 0.78039216
v -0.04087341 -0.00751742 -0.00989756 0.79607843 0.45882353 0.78039216
v -0.04070890 -0.00767510 -0.00956619 0.79607843 0.45882353 0.78039216
v -0.04070890 -0.00833489 -0.00890345 0.79607843 0.45882353 0.78039216
v -0.04070890 -0.00698376 0.00809041 0.79607843 0.45882353 0.78039216
v -0.04070890 -0.00629243 0.00863693 0.79607843 0.45882353 0.78039216
v -0.04340966 -0.00745921 0.00981651 0.79607843 0.45882353 0.78039216
v -0.04416477 -0.00830579 0.00955932 0.79607843 0.45882353 0.78039216
v -0.04416477 -0.00896316 0.00895346 0.79607843 0.45882353 0.78039216
v -0.04504029 -0.00834217 0.00956427 0.79607843 0.45882353 0.78039216
v -0.04504029 -0.00894375 0.00895841 0.79607843 0.45882353 0.78039216
v -0.04504029 -0.00926880 -0.00685587 0.79607843 0.45882353 0.78039216
v -0.04504029 -0.00867207 -0.00742712 0.79607843 0.45882353 0.78039216
v -0.04504029 -0.00849742 -0.00758786 0.79607843 0.45882353 0.78039216
v -0.04504029 -0.00800500 -0.00804040 0.79607843 0.45882353 0.78039216
v -0.04463581 -0.00824272 -0.00829511 0.79607843 0.45882353 0.78039216
v -0.04295473 -0.00897043 -0.00895043 0.79607843 0.45882353 0.78039216
v -0.04417537 -0.00785217 -0.00905924 0.79607843 0.45882353 0.78039216
v -0.04371450 -0.00745921 -0.00981842 0.79607843 0.45882353 0.78039216
v -0.04295473 -0.00830336 -0.00955382 0.79607843 0.45882353 0.78039216
v -0.04174511 -0.00774059 -0.01005830 0.79607843 0.45882353 0.78039216
v -0.04098958 -0.00618813 -0.01097822 0.79607843 0.45882353 0.78039216
v -0.04070890 -0.00645738 -0.01055535 0.79607843 0.45882353 0.78039216
v -0.04070890 -0.00709535 -0.01008055 0.79607843 0.45882353 0.78039216
v -0.04070890 -0.00560595 0.00907216 0.79607843 0.45882353 0.78039216
v -0.04416477 -0.00770178 0.00999703 0.79607843 0.45882353 0.78039216
v -0.04364921 -0.00594070 0.01084277 0.79607843 0.45882353 0.78039216
v -0.04409736 -0.00666599 0.01063257 0.79607843 0.45882353 0.78039216
v -0.04504029 -0.00773574 0.01004154 0.79607843 0.45882353 0.78039216
v -0.04504029 -0.00691827 -0.00885646 0.79607843 0.45882353 0.78039216
v -0.04391547 -0.00665387 -0.01004841 0.79607843 0.45882353 0.78039216
v -0.04346181 -0.00593585 -0.01083974 0.79607843 0.45882353 0.78039216
v -0.04301706 -0.00666114 -0.01063201 0.79607843 0.45882353 0.78039216
v -0.04295473 -0.00769693 -0.00999895 0.79607843 0.45882353 0.78039216
v -0.04174511 -0.00692070 -0.01066416 0.79607843 0.45882353 0.78039216
v -0.04174511 -0.00631669 -0.01104746 0.79607843 0.45882353 0.78039216
v -0.04174511 -0.00544343 -0.01150495 0.79607843 0.45882353 0.78039216
v -0.04101672 -0.00376725 -0.01214791 0.79607843 0.45882353 0.78039216
v -0.04070890 -0.00407047 -0.01185611 0.79607843 0.45882353 0.78039216
v -0.04070890 -0.00565689 -0.01109692 0.79607843 0.45882353 0.78039216
v -0.04070890 -0.00472541 0.00955438 0.79607843 0.45882353 0.78039216
v -0.04445604 -0.00627060 0.01101587 0.79607843 0.45882353 0.78039216
v -0.04504029 -0.00669025 0.01079331 0.79607843 0.45882353 0.78039216
v -0.04344358 -0.00513293 0.01100351 0.79607843 0.45882353 0.78039216
v -0.04423091 -0.00419175 0.01175280 0.79607843 0.45882353 0.78039216
v -0.04467779 -0.00375997 0.01214105 0.79607843 0.45882353 0.78039216
v -0.04409736 -0.00549922 0.01121865 0.79607843 0.45882353 0.78039216
v -0.04070890 -0.00404863 0.00985113 0.79607843 0.45882353 0.78039216
v -0.04070890 -0.00319478 0.01015035 0.79607843 0.45882353 0.78039216
v -0.04504029 -0.00662718 -0.00900731 0.79607843 0.45882353 0.78039216
v -0.04367677 -0.00512808 -0.01100295 0.79607843 0.45882353 0.78039216
v -0.04288350 -0.00418447 -0.01174977 0.79607843 0.45882353 0.78039216
v -0.04243323 -0.00374784 -0.01213802 0.79607843 0.45882353 0.78039216
v -0.04301706 -0.00549679 -0.01121562 0.79607843 0.45882353 0.78039216
v -0.04265540 -0.00626332 -0.01101284 0.79607843 0.45882353 0.78039216
v -0.04504029 -0.00584367 -0.00940545 0.79607843 0.45882353 0.78039216
v -0.04174511 -0.00442705 -0.01195008 0.79607843 0.45882353 0.78039216
v -0.04174511 -0.00382304 -0.01216522 0.79607843 0.45882353 0.78039216
v -0.04174511 -0.00302498 -0.01237047 0.79607843 0.45882353 0.78039216
v -0.04074579 -0.00302498 -0.01225177 0.79607843 0.45882353 0.78039216
v -0.04070890 -0.00302498 -0.01223693 0.79607843 0.45882353 0.78039216
v -0.04504029 -0.00630456 0.01104060 0.79607843 0.45882353 0.78039216
v -0.04504029 -0.00411413 0.01204213 0.79607843 0.45882353 0.78039216
v -0.04504029 -0.00545798 0.01143379 0.79607843 0.45882353 0.78039216
v -0.04452770 -0.00302498 0.01222265 0.79607843 0.45882353 0.78039216
v -0.04504029 -0.00181454 0.01250209 0.79607843 0.45882353 0.78039216
v -0.04504029 -0.00302498 0.01231910 0.79607843 0.45882353 0.78039216
v -0.04504029 -0.00379878 0.01215588 0.79607843 0.45882353 0.78039216
v -0.04070890 -0.00302498 0.01020228 0.79607843 0.45882353 0.78039216
v -0.04070890 -0.00198677 0.01044463 0.79607843 0.45882353 0.78039216
v -0.04378616 -0.00423299 -0.01112907 0.79607843 0.45882353 0.78039216
v -0.04318622 -0.00302498 -0.01184869 0.79607843 0.45882353 0.78039216
v -0.04504029 -0.00456289 -0.00998164 0.79607843 0.45882353 0.78039216
v -0.04504029 -0.00343492 -0.01031548 0.79607843 0.45882353 0.78039216
v -0.04258163 -0.00302498 -0.01221715 0.79607843 0.45882353 0.78039216
v -0.04174511 -0.00181454 -0.01258809 0.79607843 0.45882353 0.78039216
v -0.04070890 -0.00290369 -0.01226661 0.79607843 0.45882353 0.78039216
v -0.04439881 -0.00181454 0.01231415 0.79607843 0.45882353 0.78039216
v -0.04070890 -0.00181454 0.01047925 0.79607843 0.45882353 0.78039216
v -0.04504029 -0.00060410 0.01257628 0.79607843 0.45882353 0.78039216
v -0.04332020 -0.00181454 -0.01190309 0.79607843 0.45882353 0.78039216
v -0.04271561 -0.00181454 -0.01230865 0.79607843 0.45882353 0.78039216
v -0.04504029 -0.00225845 -0.01052321 0.79607843 0.45882353 0.78039216
v -0.04174511 -0.00060410 -0.01268700 0.79607843 0.45882353 0.78039216
v -0.04070890 -0.00060410 -0.01262024 0.79607843 0.45882353 0.78039216
v -0.04070890 -0.00190672 -0.01242240 0.79607843 0.45882353 0.78039216
v -0.04439329 -0.00060410 0.01234382 0.79607843 0.45882353 0.78039216
v -0.04070890 -0.00077875 0.01060042 0.79607843 0.45882353 0.78039216
v -0.04070890 -0.00060410 0.01062020 0.79607843 0.45882353 0.78039216
v -0.04504029 0.00060391 0.01253177 0.79607843 0.45882353 0.78039216
v -0.04272493 -0.00060410 -0.01234080 0.79607843 0.45882353 0.78039216
v -0.04504029 -0.00107712 -0.01064685 0.79607843 0.45882353 0.78039216
v -0.04504029 -0.00060410 -0.01067653 0.79607843 0.45882353 0.78039216
v -0.04174511 0.00060391 -0.01265733 0.79607843 0.45882353 0.78039216
v -0.04070890 0.00060391 -0.01265486 0.79607843 0.45882353 0.78039216
v -0.04446919 0.00060391 0.01230920 0.79607843 0.45882353 0.78039216
v -0.04070890 0.00060391 0.01060289 0.79607843 0.45882353 0.78039216
v -0.04504029 0.00113515 0.01246252 0.79607843 0.45882353 0.78039216
v -0.04461334 0.00181435 0.01221276 0.79607843 0.45882353 0.78039216
v -0.04265116 0.00060391 -0.01230865 0.79607843 0.45882353 0.78039216
v -0.04504029 0.00009936 -0.01067653 0.79607843 0.45882353 0.78039216
v -0.04504029 0.00060391 -0.01067405 0.79607843 0.45882353 0.78039216
v -0.04250828 0.00181435 -0.01221220 0.79607843 0.45882353 0.78039216
v -0.04174511 0.00181435 -0.01250401 0.79607843 0.45882353 0.78039216
v -0.04070890 0.00181435 -0.01256089 0.79607843 0.45882353 0.78039216
v -0.04070890 0.00163970 0.01049409 0.79607843 0.45882353 0.78039216
v -0.04070890 0.00181435 0.01047430 0.79607843 0.45882353 0.78039216
v -0.04504029 0.00181435 0.01237350 0.79607843 0.45882353 0.78039216
v -0.04472485 0.00252994 0.01213115 0.79607843 0.45882353 0.78039216
v -0.04504029 0.00218306 0.01231168 0.79607843 0.45882353 0.78039216
v -0.04070890 0.00285014 0.01032345 0.79607843 0.45882353 0.78039216
v -0.04504029 0.00181435 -0.01054793 0.79607843 0.45882353 0.78039216
v -0.04239720 0.00253479 -0.01213307 0.79607843 0.45882353 0.78039216
v -0.04172900 0.00297142 -0.01225424 0.79607843 0.45882353 0.78039216
v -0.04131435 0.00380102 -0.01215780 0.79607843 0.45882353 0.78039216
v -0.04070890 0.00319701 -0.01231359 0.79607843 0.45882353 0.78039216
v -0.04500595 0.00333528 0.01199267 0.79607843 0.45882353 0.78039216
v -0.04504029 0.00273613 0.01218803 0.79607843 0.45882353 0.78039216
v -0.04070890 0.00302479 0.01028636 0.79607843 0.45882353 0.78039216
v -0.04070890 0.00413092 0.01000198 0.79607843 0.45882353 0.78039216
v -0.04504029 0.00300053 -0.01028333 0.79607843 0.45882353 0.78039216
v -0.04212118 0.00334256 -0.01199459 0.79607843 0.45882353 0.78039216
v -0.04504029 0.00375008 -0.01002368 0.79607843 0.45882353 0.78039216
v -0.04070890 0.00439047 -0.01193771 0.79607843 0.45882353 0.78039216
v -0.04070890 0.00381072 -0.01216027 0.79607843 0.45882353 0.78039216
v -0.04172900 0.00421582 -0.01181159 0.79607843 0.45882353 0.78039216
v -0.04135293 0.00623645 -0.01100295 0.79607843 0.45882353 0.78039216
v -0.04070890 0.00561304 -0.01141840 0.79607843 0.45882353 0.78039216
v -0.04504029 0.00341290 0.01197536 0.79607843 0.45882353 0.78039216
v -0.04504029 0.00330375 0.01201493 0.79607843 0.45882353 0.78039216
v -0.04070890 0.00424493 0.00996241 0.79607843 0.45882353 0.78039216
v -0.04504029 0.00448750 -0.00968736 0.79607843 0.45882353 0.78039216
v -0.04245740 0.00503329 -0.01100295 0.79607843 0.45882353 0.78039216
v -0.04175190 0.00544081 -0.01121562 0.79607843 0.45882353 0.78039216
v -0.04070890 0.00632863 -0.01105241 0.79607843 0.45882353 0.78039216
v -0.04215977 0.00584106 -0.01073588 0.79607843 0.45882353 0.78039216
v -0.04504029 0.00603026 -0.00877486 0.79607843 0.45882353 0.78039216
v -0.04504029 0.00625828 -0.00862648 0.79607843 0.45882353 0.78039216
v -0.04146783 0.00755362 -0.00992971 0.79607843 0.45882353 0.78039216
v -0.04070890 0.00772342 -0.01005335 0.79607843 0.45882353 0.78039216
v -0.04070890 0.00706848 -0.01054546 0.79607843 0.45882353 0.78039216
v -0.04504029 0.00460879 0.01141648 0.79607843 0.45882353 0.78039216
v -0.04070890 0.00543111 0.00946783 0.79607843 0.45882353 0.78039216
v -0.04504029 0.00465488 -0.00959339 0.79607843 0.45882353 0.78039216
v -0.04504029 0.00523948 -0.00926449 0.79607843 0.45882353 0.78039216
v -0.04504029 0.00544324 -0.00914332 0.79607843 0.45882353 0.78039216
v -0.04504029 0.00669491 -0.00827285 0.79607843 0.45882353 0.78039216
v -0.04504029 0.00686229 -0.00813437 0.79607843 0.45882353 0.78039216
v -0.04504029 0.00734258 -0.00769667 0.79607843 0.45882353 0.78039216
v -0.04504029 0.00752451 -0.00752851 0.79607843 0.45882353 0.78039216
v -0.04144112 0.00874223 -0.00876744 0.79607843 0.45882353 0.78039216
v -0.04070890 0.00844144 -0.00942770 0.79607843 0.45882353 0.78039216
v -0.04504029 0.00524918 0.01111231 0.79607843 0.45882353 0.78039216
v -0.04070890 0.00643051 0.00891389 0.79607843 0.45882353 0.78039216
v -0.04504029 0.00796357 -0.00704629 0.79607843 0.45882353 0.78039216
v -0.04070890 0.00892416 -0.00894054 0.79607843 0.45882353 0.78039216
v -0.04504029 0.00813094 -0.00686082 0.79607843 0.45882353 0.78039216
v -0.04504029 0.00862337 -0.00625743 0.79607843 0.45882353 0.78039216
v -0.04132240 0.00983866 -0.00748647 0.79607843 0.45882353 0.78039216
v -0.04070890 0.00963247 -0.00814179 0.79607843 0.45882353 0.78039216
v -0.04504029 0.00576343 0.01082298 0.79607843 0.45882353 0.78039216
v -0.04070890 0.00655907 0.00883229 0.79607843 0.45882353 0.78039216
v -0.04504029 0.00899450 -0.00566888 0.79607843 0.45882353 0.78039216
v -0.04504029 0.00913520 -0.00544384 0.79607843 0.45882353 0.78039216
v -0.04109134 0.01086716 -0.00599530 0.79607843 0.45882353 0.78039216
v -0.04070890 0.01070222 -0.00655418 0.79607843 0.45882353 0.78039216
v -0.04070890 0.00998177 -0.00766946 0.79607843 0.45882353 0.78039216
v -0.04504029 0.00603269 0.01064246 0.79607843 0.45882353 0.78039216
v -0.04070890 0.00773312 0.00794451 0.79607843 0.45882353 0.78039216
v -0.04504029 0.00946267 -0.00485529 0.79607843 0.45882353 0.78039216
v -0.04504029 0.00958638 -0.00463273 0.79607843 0.45882353 0.78039216
v -0.04504029 0.00984836 -0.00402686 0.79607843 0.45882353 0.78039216
v -0.04070890 0.01117523 -0.00561447 0.79607843 0.45882353 0.78039216
v -0.04504029 0.00696902 0.00990306 0.79607843 0.45882353 0.78039216
v -0.04504029 0.00753421 0.00939364 0.79607843 0.45882353 0.78039216
v -0.04070890 0.00783743 0.00784807 0.79607843 0.45882353 0.78039216
v -0.04504029 0.01010063 -0.00330230 0.79607843 0.45882353 0.78039216
v -0.04504029 0.01019766 -0.00302286 0.79607843 0.45882353 0.78039216
v -0.04070890 0.01163127 -0.00420986 0.79607843 0.45882353 0.78039216
v -0.04070890 0.00897267 0.00673278 0.79607843 0.45882353 0.78039216
v -0.04070890 0.00905030 0.00664376 0.79607843 0.45882353 0.78039216
v -0.04504029 0.00816733 0.00866660 0.79607843 0.45882353 0.78039216
v -0.04070890 0.01185929 -0.00337649 0.79607843 0.45882353 0.78039216
v -0.04504029 0.01040385 -0.00214745 0.79607843 0.45882353 0.78039216
v -0.04070890 0.01194419 -0.00302286 0.79607843 0.45882353 0.78039216
v -0.04070890 0.01048875 0.00450964 0.79607843 0.45882353 0.78039216
v -0.04504029 0.00902119 0.00755874 0.79607843 0.45882353 0.78039216
v -0.04504029 0.00859911 0.00814976 0.79607843 0.45882353 0.78039216
v -0.04504029 0.01047905 -0.00181360 0.79607843 0.45882353 0.78039216
v -0.04504029 0.01066098 -0.00092583 0.79607843 0.45882353 0.78039216
v -0.04070890 0.01198057 -0.00277062 0.79607843 0.45882353 0.78039216
v -0.04070890 0.01095449 0.00371336 0.79607843 0.45882353 0.78039216
v -0.04504029 0.00952089 0.00665365 0.79607843 0.45882353 0.78039216
v -0.04504029 0.01069736 -0.00062166 0.79607843 0.45882353 0.78039216
v -0.04070890 0.01209216 -0.00181360 0.79607843 0.45882353 0.78039216
v -0.04070890 0.01132805 0.00297396 0.79607843 0.45882353 0.78039216
v -0.04504029 0.01023162 0.00523914 0.79607843 0.45882353 0.78039216
v -0.04504029 0.01081380 0.00060491 0.79607843 0.45882353 0.78039216
v -0.04070890 0.01210914 -0.00133633 0.79607843 0.45882353 0.78039216
v -0.04070890 0.01171374 0.00184136 0.79607843 0.45882353 0.78039216
v -0.04070890 0.01172102 0.00181416 0.79607843 0.45882353 0.78039216
v -0.04504029 0.01047662 0.00423761 0.79607843 0.45882353 0.78039216
v -0.04504029 0.01072162 0.00181416 0.79607843 0.45882353 0.78039216
v -0.04070890 0.01207518 -0.00016912 0.79607843 0.45882353 0.78039216
v -0.04070890 0.01210429 -0.00060435 0.79607843 0.45882353 0.78039216
v -0.04070890 0.01194419 0.00087693 0.79607843 0.45882353 0.78039216
v -0.04504029 0.01049845 0.00414612 0.79607843 0.45882353 0.78039216
v -0.04504029 0.01061489 0.00301105 0.79607843 0.45882353 0.78039216
v -0.04070890 0.01199028 0.00060491 0.79607843 0.45882353 0.78039216
f 1 2 3
f 1 3 4
f 1 4 5
f 1 5 6
f 1 6 7
f 1 7 2
f 2 8 9
f 2 9 3
f 2 7 10
f 2 10 8
f 3 9 11
f 3 11 12
f 3 12 13
f 3 13 4
f 4 13 14
f 4 14 15
f 4 15 5
f 5 15 16
f 5 16 17
f 5 17 18
f 5 18 19
f 5 19 6
f 6 19 20
f 6 20 21
f 6 21 22
f 6 22 7
f 7 22 23
f 7 23 10
f 8 24 25
f 8 25 9
f 8 10 24
f 9 25 11
f 10 26 24
f 10 23 27
f 10 27 26
f 11 25 28
f 11 28 29
f 11 29 12
f 12 29 30
f 12 30 31
f 12 31 32
f 12 32 13
f 13 32 33
f 13 33 34
f 13 34 35
f 13 35 14
f 14 35 60
f 14 60 59
f 14 59 61
f 14 61 88
f 14 88 109
f 14 109 125
f 14 125 124
f 14 124 143
f 14 143 157
f 14 157 176
f 14 176 178
f 14 178 177
f 14 177 182
f 14 182 181
f 14 181 180
f 14 180 194
f 14 194 204
f 14 204 212
f 14 212 222
f 14 222 224
f 14 224 232
f 14 232 244
f 14 244 243
f 14 243 256
f 14 256 267
f 14 267 275
f 14 275 282
f 14 282 288
f 14 288 289
f 14 289 296
f 14 296 302
f 14 302 301
f 14 301 307
f 14 307 311
f 14 311 316
f 14 316 321
f 14 321 322
f 14 322 317
f 14 317 312
f 14 312 308
f 14 308 304
f 14 304 303
f 14 303 298
f 14 298 292
f 14 292 291
f 14 291 286
f 14 286 285
f 14 285 284
f 14 284 278
f 14 278 277
f 14 277 272
f 14 272 271
f 14 271 269
f 14 269 264
f 14 264 263
f 14 263 262
f 14 262 261
f 14 261 252
f 14 252 251
f 14 251 260
f 14 260 259
f 14 259 258
f 14 258 246
f 14 246 237
f 14 237 235
f 14 235 226
f 14 226 216
f 14 216 215
f 14 215 207
f 14 207 206
f 14 206 197
f 14 197 188
f 14 188 187
f 14 187 170
f 14 170 164
f 14 164 144
f 14 144 129
f 14 129 128
f 14 128 127
f 14 127 126
f 14 126 110
f 14 110 94
f 14 94 93
f 14 93 92
f 14 92 91
f 14 91 90
f 14 90 89
f 14 89 63
f 14 63 62
f 14 62 38
f 14 38 36
f 14 36 16
f 14 16 15
f 16 36 17
f 17 36 18
f 18 37 19
f 18 36 38
f 18 38 37
f 19 37 39
f 19 39 40
f 19 40 20
f 20 40 41
f 20 41 21
f 21 23 22
f 21 41 42
f 21 42 43
f 21 43 44
f 21 44 45
f 21 45 46
f 21 46 47
f 21 47 23
f 23 47 46
f 23 46 48
f 23 48 27
f 24 26 49
f 24 49 76
f 24 76 78
f 24 78 77
f 24 77 104
f 24 104 103
f 24 103 118
f 24 118 117
f 24 117 138
f 24 138 137
f 24 137 154
f 24 154 153
f 24 153 175
f 24 175 191
f 24 191 200
f 24 200 199
f 24 199 209
f 24 209 219
f 24 219 230
f 24 230 239
f 24 239 238
f 24 238 242
f 24 242 249
f 24 249 255
f 24 255 254
f 24 254 266
f 24 266 270
f 24 270 274
f 24 274 281
f 24 281 280
f 24 280 287
f 24 287 293
f 24 293 297
f 24 297 299
f 24 299 305
f 24 305 309
f 24 309 313
f 24 313 319
f 24 319 318
f 24 318 323
f 24 323 320
f 24 320 315
f 24 315 314
f 24 314 310
f 24 310 306
f 24 306 300
f 24 300 295
f 24 295 294
f 24 294 290
f 24 290 283
f 24 283 276
f 24 276 268
f 24 268 257
f 24 257 245
f 24 245 234
f 24 234 233
f 24 233 225
f 24 225 221
f 24 221 220
f 24 220 211
f 24 211 203
f 24 203 202
f 24 202 193
f 24 193 184
f 24 184 183
f 24 183 163
f 24 163 162
f 24 162 155
f 24 155 139
f 24 139 120
f 24 120 119
f 24 119 106
f 24 106 105
f 24 105 80
f 24 80 79
f 24 79 52
f 24 52 50
f 24 50 28
f 24 28 25
f 26 27 49
f 27 48 49
f 28 50 29
f 29 51 31
f 29 31 30
f 29 50 52
f 29 52 53
f 29 53 51
f 31 51 54
f 31 54 55
f 31 55 56
f 31 56 57
f 31 57 58
f 31 58 32
f 32 58 33
f 33 59 60
f 33 60 34
f 33 58 57
f 33 57 56
f 33 56 61
f 33 61 59
f 34 60 35
f 37 38 62
f 37 62 63
f 37 63 64
f 37 64 65
f 37 65 66
f 37 66 40
f 37 40 39
f 40 66 67
f 40 67 68
f 40 68 69
f 40 69 42
f 40 42 41
f 42 69 43
f 43 45 44
f 43 69 70
f 43 70 71
f 43 71 72
f 43 72 73
f 43 73 45
f 45 73 74
f 45 74 75
f 45 75 46
f 46 76 48
f 46 75 77
f 46 77 78
f 46 78 76
f 48 76 49
f 51 53 54
f 52 79 53
f 53 79 80
f 53 80 81
f 53 81 55
f 53 55 82
f 53 82 54
f 54 82 55
f 55 81 83
f 55 83 84
f 55 84 85
f 55 85 86
f 55 86 87
f 55 87 56
f 56 87 61
f 61 87 86
f 61 86 88
f 63 89 64
f 64 89 90
f 64 90 91
f 64 91 92
f 64 92 65
f 65 67 66
f 65 92 93
f 65 93 94
f 65 94 95
f 65 95 96
f 65 96 68
f 65 68 97
f 65 97 67
f 67 97 68
f 68 70 69
f 68 96 98
f 68 98 99
f 68 99 100
f 68 100 71
f 68 71 70
f 71 100 101
f 71 101 72
f 72 74 73
f 72 101 74
f 74 101 102
f 74 102 103
f 74 103 104
f 74 104 77
f 74 77 75
f 80 105 84
f 80 84 83
f 80 83 81
f 84 105 106
f 84 106 107
f 84 107 108
f 84 108 85
f 85 88 86
f 85 108 109
f 85 109 88
f 94 110 95
f 95 110 111
f 95 111 96
f 96 111 98
f 98 111 99
f 99 111 112
f 99 112 113
f 99 113 100
f 100 113 101
f 101 113 114
f 101 114 102
f 102 114 115
f 102 115 116
f 102 116 117
f 102 117 118
f 102 118 103
f 106 119 107
f 107 119 120
f 107 120 121
f 107 121 122
f 107 122 123
f 107 123 108
f 108 123 124
f 108 124 125
f 108 125 109
f 110 126 111
f 111 126 127
f 111 127 128
f 111 128 129
f 111 129 130
f 111 130 112
f 112 131 113
f 112 130 132
f 112 132 133
f 112 133 134
f 112 134 131
f 113 131 115
f 113 115 114
f 115 131 134
f 115 134 135
f 115 135 116
f 116 135 136
f 116 136 137
f 116 137 138
f 116 138 117
f 120 139 121
f 121 140 122
f 121 139 141
f 121 141 142
f 121 142 140
f 122 140 143
f 122 143 124
f 122 124 123
f 129 144 130
f 130 144 132
f 132 144 133
f 133 145 146
f 133 146 147
f 133 147 148
f 133 148 134
f 133 144 145
f 134 148 149
f 134 149 135
f 135 149 136
f 136 149 150
f 136 150 151
f 136 151 152
f 136 152 153
f 136 153 154
f 136 154 137
f 139 155 141
f 140 142 156
f 140 156 157
f 140 157 143
f 141 158 159
f 141 159 160
f 141 160 161
f 141 161 156
f 141 156 142
f 141 155 162
f 141 162 163
f 141 163 158
f 144 164 145
f 145 164 146
f 146 165 166
f 146 166 167
f 146 167 168
f 146 168 169
f 146 169 147
f 146 164 170
f 146 170 165
f 147 169 148
f 148 169 149
f 149 169 150
f 150 169 151
f 151 169 171
f 151 171 152
f 152 172 173
f 152 173 174
f 152 174 175
f 152 175 153
f 152 171 172
f 156 176 157
f 156 161 160
f 156 160 177
f 156 177 178
f 156 178 176
f 158 163 159
f 159 163 160
f 160 179 180
f 160 180 181
f 160 181 182
f 160 182 177
f 160 163 183
f 160 183 184
f 160 184 179
f 165 185 186
f 165 186 166
f 165 170 187
f 165 187 188
f 165 188 185
f 166 186 167
f 167 189 190
f 167 190 173
f 167 173 172
f 167 172 171
f 167 171 169
f 167 169 168
f 167 186 189
f 173 190 174
f 174 190 191
f 174 191 175
f 179 192 180
f 179 184 193
f 179 193 192
f 180 192 194
f 185 188 186
f 186 195 196
f 186 196 189
f 186 188 197
f 186 197 195
f 189 196 190
f 190 198 199
f 190 199 200
f 190 200 191
f 190 196 198
f 192 201 194
f 192 193 202
f 192 202 203
f 192 203 201
f 194 201 204
f 195 205 196
f 195 197 206
f 195 206 207
f 195 207 205
f 196 205 198
f 198 208 209
f 198 209 199
f 198 205 208
f 201 210 204
f 201 203 211
f 201 211 210
f 204 210 213
f 204 213 212
f 205 214 208
f 205 207 215
f 205 215 216
f 205 216 214
f 208 214 217
f 208 217 218
f 208 218 219
f 208 219 209
f 210 211 220
f 210 220 221
f 210 221 213
f 212 213 222
f 213 223 224
f 213 224 222
f 213 221 225
f 213 225 223
f 214 216 226
f 214 226 217
f 217 227 218
f 217 226 227
f 218 228 229
f 218 229 230
f 218 230 219
f 218 227 228
f 223 231 232
f 223 232 224
f 223 225 233
f 223 233 234
f 223 234 231
f 226 235 227
f 227 236 228
f 227 235 237
f 227 237 236
f 228 236 229
f 229 238 239
f 229 239 230
f 229 236 240
f 229 240 241
f 229 241 242
f 229 242 238
f 231 243 244
f 231 244 232
f 231 234 245
f 231 245 243
f 236 237 246
f 236 246 247
f 236 247 240
f 240 247 248
f 240 248 241
f 241 249 242
f 241 248 250
f 241 250 251
f 241 251 252
f 241 252 253
f 241 253 254
f 241 254 255
f 241 255 249
f 243 245 257
f 243 257 256
f 246 258 247
f 247 250 248
f 247 258 250
f 250 258 259
f 250 259 260
f 250 260 251
f 252 261 253
f 253 261 262
f 253 262 263
f 253 263 264
f 253 264 265
f 253 265 266
f 253 266 254
f 256 257 267
f 257 268 267
f 264 269 265
f 265 270 266
f 265 269 271
f 265 271 272
f 265 272 273
f 265 273 274
f 265 274 270
f 267 268 275
f 268 276 275
f 272 277 273
f 273 277 278
f 273 278 279
f 273 279 280
f 273 280 281
f 273 281 274
f 275 276 282
f 276 283 282
f 278 284 279
f 279 284 285
f 279 285 286
f 279 286 287
f 279 287 280
f 282 283 288
f 283 289 288
f 283 290 289
f 286 291 287
f 287 291 292
f 287 292 293
f 289 290 294
f 289 294 295
f 289 295 296
f 292 297 293
f 292 298 299
f 292 299 297
f 295 300 301
f 295 301 302
f 295 302 296
f 298 303 299
f 299 303 304
f 299 304 305
f 300 306 301
f 301 306 307
f 304 308 305
f 305 308 309
f 306 310 307
f 307 310 311
f 308 312 309
f 309 312 313
f 310 314 311
f 311 314 315
f 311 315 316
f 312 317 318
f 312 318 319
f 312 319 313
f 315 320 321
f 315 321 316
f 317 322 318
f 318 322 321
f 318 321 323
f 320 323 321

