# https://github.com/mikedh/trimesh
v 0.02500000 -0.01745907 -0.01010455
v 0.02500000 -0.01588630 -0.01243625
v 0.02500000 -0.01184975 -0.01633435
v 0.02500000 -0.01400431 -0.01452645
v 0.02500000 -0.01869203 -0.00757665
v 0.02500000 -0.01956116 -0.00490165
v 0.02500000 -0.02004956 -0.00213185
v 0.02500000 -0.00946455 -0.01782475
v 0.02500000 -0.00689513 -0.01896875
v 0.02500000 -0.00419150 -0.01974405
v 0.02500000 -0.00140629 -0.02013545
v 0.02500000 -0.02014772 0.00067905
v 0.02500000 -0.01985372 0.00347615
v 0.02500000 -0.01917330 0.00620525
v 0.02500000 -0.01811969 0.00881305
v 0.02500000 -0.01671340 0.01124875
v 0.02500000 -0.01498180 0.01346515
v 0.02500000 -0.01295860 0.01541895
v 0.02500000 -0.01068317 0.01707205
v 0.02500000 -0.00819981 0.01839255
v 0.02500000 -0.00555685 0.01935445
v 0.02500000 -0.00280573 0.01993925
v 0.02500000 0.00140629 -0.02013545
v 0.02500000 0.00419150 -0.01974405
v 0.02500000 0.00689513 -0.01896875
v 0.02500000 0.00946455 -0.01782475
v 0.02500000 0.01184975 -0.01633435
v 0.02500000 0.01400431 -0.01452645
v 0.02500000 0.01588630 -0.01243625
v 0.02500000 0.01745907 -0.01010455
v 0.02500000 0.01869203 -0.00757665
v 0.02500000 0.01956116 -0.00490165
v 0.02500000 0.02004956 -0.00213185
v 0.02500000 0.00000000 0.02013545
v 0.02500000 0.00280573 0.01993925
v 0.02500000 0.00555685 0.01935445
v 0.02500000 0.00819981 0.01839255
v 0.02500000 0.02014772 0.00067905
v 0.02500000 0.01985372 0.00347615
v 0.02500000 0.01917330 0.00620525
v 0.02500000 0.01811969 0.00881305
v 0.02500000 0.01498180 0.01346515
v 0.02500000 0.01068317 0.01707205
v 0.02500000 0.01295860 0.01541895
v 0.02500000 0.01671340 0.01124875
v 0.07500000 -0.01745907 -0.01010455
v 0.07500000 -0.01588630 -0.01243625
v 0.07500000 -0.01184975 -0.01633435
v 0.07500000 -0.01400431 -0.01452645
v 0.07500000 -0.01869203 -0.00757665
v 0.07500000 -0.01956116 -0.00490165
v 0.07500000 -0.02004956 -0.00213185
v 0.07500000 -0.00946455 -0.01782475
v 0.07500000 -0.00689513 -0.01896875
v 0.07500000 -0.00419150 -0.01974405
v 0.07500000 -0.00140629 -0.02013545
v 0.07500000 -0.02014772 0.00067905
v 0.07500000 -0.01985372 0.00347615
v 0.07500000 -0.01917330 0.00620525
v 0.07500000 -0.01811969 0.00881305
v 0.07500000 -0.01671340 0.01124875
v 0.07500000 -0.01498180 0.01346515
v 0.07500000 -0.01295860 0.01541895
v 0.07500000 -0.01068317 0.01707205
v 0.07500000 -0.00819981 0.01839255
v 0.07500000 -0.00555685 0.01935445
v 0.07500000 -0.00280573 0.01993925
v 0.07500000 0.00140629 -0.02013545
v 0.07500000 0.00419150 -0.01974405
v 0.07500000 0.00689513 -0.01896875
v 0.07500000 0.00946455 -0.01782475
v 0.07500000 0.01184975 -0.01633435
v 0.07500000 0.01400431 -0.01452645
v 0.07500000 0.01588630 -0.01243625
v 0.07500000 0.01745907 -0.01010455
v 0.07500000 0.01869203 -0.00757665
v 0.07500000 0.01956116 -0.00490165
v 0.07500000 0.02004956 -0.00213185
v 0.07500000 0.00000000 0.02013545
v 0.07500000 0.00280573 0.01993925
v 0.07500000 0.00555685 0.01935445
v 0.07500000 0.00819981 0.01839255
v 0.07500000 0.02014772 0.00067905
v 0.07500000 0.01985372 0.00347615
v 0.07500000 0.01917330 0.00620525
v 0.07500000 0.01811969 0.00881305
v 0.07500000 0.01498180 0.01346515
v 0.07500000 0.01068317 0.01707205
v 0.07500000 0.01295860 0.01541895
v 0.07500000 0.01671340 0.01124875
f 47 2 4
f 46 1 2
f 49 4 3
f 48 3 8
f 50 5 1
f 51 6 5
f 52 7 6
f 57 12 7
f 53 8 9
f 54 9 10
f 55 10 11
f 56 11 23
f 58 13 12
f 59 14 13
f 60 15 14
f 61 16 15
f 62 17 16
f 63 18 17
f 64 19 18
f 65 20 19
f 66 21 20
f 67 22 21
f 79 34 22
f 68 23 24
f 69 24 25
f 70 25 26
f 71 26 27
f 72 27 28
f 73 28 29
f 74 29 30
f 75 30 31
f 76 31 32
f 77 32 33
f 78 33 38
f 80 35 34
f 81 36 35
f 82 37 36
f 88 43 37
f 83 38 39
f 84 39 40
f 85 40 41
f 86 41 45
f 87 42 44
f 89 44 43
f 90 45 42
f 46 2 47
f 48 49 3
f 48 8 53
f 47 4 49
f 46 50 1
f 50 51 5
f 51 52 6
f 52 57 7
f 53 9 54
f 54 10 55
f 55 11 56
f 48 53 54
f 55 56 69
f 48 54 75
f 48 76 49
f 46 47 87
f 46 87 50
f 47 49 85
f 57 58 12
f 58 59 13
f 59 60 14
f 60 61 15
f 61 62 16
f 62 63 17
f 63 64 18
f 64 65 19
f 65 66 20
f 66 67 21
f 67 79 22
f 51 60 52
f 52 59 57
f 57 59 58
f 52 60 59
f 60 62 61
f 60 63 62
f 63 65 64
f 50 87 51
f 51 87 60
f 60 87 63
f 63 67 65
f 65 67 66
f 63 87 67
f 56 23 68
f 68 24 69
f 69 25 70
f 70 26 71
f 71 27 72
f 72 28 73
f 73 29 74
f 74 30 75
f 75 31 76
f 76 32 77
f 77 33 78
f 78 38 83
f 54 55 73
f 56 68 69
f 55 69 70
f 55 70 71
f 55 71 72
f 55 72 73
f 54 73 75
f 48 75 76
f 49 76 85
f 73 74 75
f 76 77 78
f 76 78 85
f 79 80 34
f 80 81 35
f 81 82 36
f 82 88 37
f 83 39 84
f 84 40 85
f 85 41 86
f 87 44 89
f 88 89 43
f 86 45 90
f 87 90 42
f 47 85 87
f 67 81 79
f 79 81 80
f 67 82 81
f 67 87 82
f 78 83 84
f 78 84 85
f 85 86 87
f 82 87 88
f 87 89 88
f 86 90 87
f 1 21 2
f 2 22 4
f 4 42 3
f 8 42 9
f 3 42 8
f 12 18 7
f 6 19 5
f 7 18 6
f 14 15 13
f 13 17 12
f 15 16 13
f 13 16 17
f 12 17 18
f 5 21 1
f 18 19 6
f 19 20 5
f 5 20 21
f 21 22 2
f 22 34 4
f 35 4 34
f 4 35 36
f 36 37 4
f 9 32 10
f 10 32 11
f 23 11 31
f 23 30 24
f 24 29 25
f 28 26 25
f 27 26 28
f 25 29 28
f 24 30 29
f 23 31 30
f 11 32 31
f 9 33 32
f 9 38 33
f 9 39 38
f 9 40 39
f 9 41 40
f 4 44 42
f 43 4 37
f 4 43 44
f 9 42 45
f 9 45 41