# https://github.com/mikedh/trimesh
v -0.09996300 0.07782284 -0.02343750 0.81176471 0.63529411 0.96470587
v -0.09996300 0.09279082 -0.02343750 0.81176471 0.63529411 0.96470587
v -0.09246374 0.07782284 -0.02343750 0.81176471 0.63529411 0.96470587
v -0.09996300 0.07782284 0.02343750 0.81176471 0.63529411 0.96470587
v -0.09246374 0.09279082 -0.02343750 0.81176471 0.63529411 0.96470587
v -0.09996300 0.09279082 0.02343750 0.81176471 0.63529411 0.96470587
v -0.09246374 0.07782284 0.02343291 0.81176471 0.63529411 0.96470587
v -0.09246374 0.09279082 0.02343291 0.81176471 0.63529411 0.96470587
f 1 2 5
f 1 5 3
f 1 3 7
f 1 7 4
f 1 4 6
f 1 6 2
f 2 6 8
f 2 8 5
f 3 5 8
f 3 8 7
f 4 7 8
f 4 8 6