# https://github.com/mikedh/trimesh

o geometry_0
v -0.06878700 0.10029150 0.02343750 0.81764706 1.07058823 0.90000000
v -0.09996300 0.10029150 0.02343750 0.81764706 1.07058823 0.90000000
v -0.06878700 0.09279082 0.02343750 0.81764706 1.07058823 0.90000000
v -0.06878700 0.10029150 -0.02343750 0.81764706 1.07058823 0.90000000
v -0.09996300 0.09279082 0.02343750 0.81764706 1.07058823 0.90000000
v -0.09996300 0.10029150 -0.02343750 0.81764706 1.07058823 0.90000000
v -0.06878700 0.09279082 -0.02343750 0.81764706 1.07058823 0.90000000
v -0.09996300 0.09279082 -0.02343750 0.81764706 1.07058823 0.90000000
f 1 2 5
f 1 5 3
f 1 3 7
f 1 7 4
f 1 4 6
f 1 6 2
f 2 6 8
f 2 8 5
f 3 5 8
f 3 8 7
f 4 7 8
f 4 8 6

o geometry_1
v -0.09996300 0.07782284 -0.02343750 0.81176471 0.63529411 0.96470587
v -0.09996300 0.09279082 -0.02343750 0.81176471 0.63529411 0.96470587
v -0.09246374 0.07782284 -0.02343750 0.81176471 0.63529411 0.96470587
v -0.09996300 0.07782284 0.02343750 0.81176471 0.63529411 0.96470587
v -0.09246374 0.09279082 -0.02343750 0.81176471 0.63529411 0.96470587
v -0.09996300 0.09279082 0.02343750 0.81176471 0.63529411 0.96470587
v -0.09246374 0.07782284 0.02343291 0.81176471 0.63529411 0.96470587
v -0.09246374 0.09279082 0.02343291 0.81176471 0.63529411 0.96470587
f 9 10 13
f 9 13 11
f 9 11 15
f 9 15 12
f 9 12 14
f 9 14 10
f 10 14 16
f 10 16 13
f 11 13 16
f 11 16 15
f 12 15 16
f 12 16 14

o geometry_2
v -0.06878700 0.07782284 0.02343750 0.65294118 1.33529412 1.44117646
v -0.09996300 0.07782284 0.02343750 0.65294118 1.33529412 1.44117646
v -0.06878700 0.07031174 0.02343750 0.65294118 1.33529412 1.44117646
v -0.06878700 0.07782284 -0.02343750 0.65294118 1.33529412 1.44117646
v -0.09996300 0.07031174 0.02343750 0.65294118 1.33529412 1.44117646
v -0.09996300 0.07782284 -0.02343750 0.65294118 1.33529412 1.44117646
v -0.06878700 0.07031174 -0.02343750 0.65294118 1.33529412 1.44117646
v -0.09996300 0.07031174 -0.02343750 0.65294118 1.33529412 1.44117646
f 17 18 21
f 17 21 19
f 17 19 23
f 17 23 20
f 17 20 22
f 17 22 18
f 18 22 24
f 18 24 21
f 19 21 24
f 19 24 23
f 20 23 24
f 20 24 22

o geometry_3
v -0.07628627 0.07782284 -0.02343750 0.57058824 1.18235293 0.78823530
v -0.07628627 0.09279082 -0.02343750 0.57058824 1.18235293 0.78823530
v -0.06878700 0.07782284 -0.02343750 0.57058824 1.18235293 0.78823530
v -0.07628627 0.07782284 0.02343750 0.57058824 1.18235293 0.78823530
v -0.06878700 0.09279082 -0.02343750 0.57058824 1.18235293 0.78823530
v -0.07628627 0.09279082 0.02343750 0.57058824 1.18235293 0.78823530
v -0.06878700 0.07782284 0.02343750 0.57058824 1.18235293 0.78823530
v -0.06878700 0.09279082 0.02343750 0.57058824 1.18235293 0.78823530
f 25 26 29
f 25 29 27
f 25 27 31
f 25 31 28
f 25 28 30
f 25 30 26
f 26 30 32
f 26 32 29
f 27 29 32
f 27 32 31
f 28 31 32
f 28 32 30