# https://github.com/mikedh/trimesh
v -0.00417714 -0.00752814 0.01522443 1.83529413 1.84705881 2.82352941
v -0.00417714 -0.00754251 0.01539087 1.83529413 1.84705881 2.82352941
v -0.00417714 -0.00752916 0.01505718 1.83529413 1.84705881 2.82352941
v -0.01782705 -0.00752814 0.01522443 1.83529413 1.84705881 2.82352941
v -0.00417714 -0.00756915 0.01555560 1.83529413 1.84705881 2.82352941
v -0.03149304 -0.00754251 0.01539087 1.83529413 1.84705881 2.82352941
v -0.00417714 -0.00782349 0.00858855 1.83529413 1.84705881 2.82352941
v -0.03149304 -0.00752916 0.01505718 1.83529413 1.84705881 2.82352941
v -0.03149304 -0.00752916 0.01522359 1.83529413 1.84705881 2.82352941
v -0.00417714 -0.00761121 0.01571781 1.83529413 1.84705881 2.82352941
v -0.01782705 -0.00756915 0.01555560 1.83529413 1.84705881 2.82352941
v -0.03149304 -0.00761121 0.01571949 1.83529413 1.84705881 2.82352941
v -0.03149304 -0.00757020 0.01555644 1.83529413 1.84705881 2.82352941
v -0.00417714 -0.01800498 0.00858855 1.83529413 1.84705881 2.82352941
v -0.03149304 -0.00782349 0.00858855 1.83529413 1.84705881 2.82352941
v -0.00417714 -0.00766557 0.01587663 1.83529413 1.84705881 2.82352941
v -0.01779765 -0.00763788 0.01579722 1.83529413 1.84705881 2.82352941
v -0.03149304 -0.00766659 0.01587831 1.83529413 1.84705881 2.82352941
v -0.01782705 -0.00766557 0.01587663 1.83529413 1.84705881 2.82352941
v -0.00417714 -0.01800498 0.01514757 1.83529413 1.84705881 2.82352941
v -0.03149304 -0.01800498 0.00858855 1.83529413 1.84705881 2.82352941
v -0.00417714 -0.00773325 0.01603038 1.83529413 1.84705881 2.82352941
v -0.03149304 -0.00773529 0.01603293 1.83529413 1.84705881 2.82352941
v -0.01782705 -0.00773325 0.01603038 1.83529413 1.84705881 2.82352941
v -0.00417714 -0.01797318 0.01549395 1.83529413 1.84705881 2.82352941
v -0.01725486 -0.01797627 0.01546182 1.83529413 1.84705881 2.82352941
v -0.01725486 -0.01798446 0.01537230 1.83529413 1.84705881 2.82352941
v -0.01725486 -0.01800498 0.01514757 1.83529413 1.84705881 2.82352941
v -0.03149304 -0.01800498 0.01427658 1.83529413 1.84705881 2.82352941
v -0.00417714 -0.00781425 0.01617822 1.83529413 1.84705881 2.82352941
v -0.03149304 -0.00781530 0.01617990 1.83529413 1.84705881 2.82352941
v -0.01782705 -0.00781425 0.01617822 1.83529413 1.84705881 2.82352941
v -0.00417714 -0.01797114 0.01550661 1.83529413 1.84705881 2.82352941
v -0.01725486 -0.01797114 0.01550661 1.83529413 1.84705881 2.82352941
v -0.03149304 -0.01797216 0.01549647 1.83529413 1.84705881 2.82352941
v -0.03149304 -0.01797933 0.01542720 1.83529413 1.84705881 2.82352941
v -0.03149304 -0.01800396 0.01515771 1.83529413 1.84705881 2.82352941
v -0.00417714 -0.00791067 0.01632354 1.83529413 1.84705881 2.82352941
v -0.01787253 -0.00786042 0.01624920 1.83529413 1.84705881 2.82352941
v -0.03149304 -0.00791067 0.01632354 1.83529413 1.84705881 2.82352941
v -0.00417714 -0.01796805 0.01551927 1.83529413 1.84705881 2.82352941
v -0.03149304 -0.01796910 0.01551675 1.83529413 1.84705881 2.82352941
v -0.00417714 -0.00813321 0.01658457 1.83529413 1.84705881 2.82352941
v -0.01782705 -0.00790758 0.01632015 1.83529413 1.84705881 2.82352941
v -0.01782705 -0.00812706 0.01657866 1.83529413 1.84705881 2.82352941
v -0.03149304 -0.00813321 0.01658373 1.83529413 1.84705881 2.82352941
v -0.01793937 -0.00801732 0.01644939 1.83529413 1.84705881 2.82352941
v -0.00417714 -0.01791987 0.01569414 1.83529413 1.84705881 2.82352941
v -0.01725486 -0.01795986 0.01555053 1.83529413 1.84705881 2.82352941
v -0.03149304 -0.01790139 0.01575837 1.83529413 1.84705881 2.82352941
v -0.00417714 -0.00839676 0.01680675 1.83529413 1.84705881 2.82352941
v -0.03149304 -0.00837933 0.01679409 1.83529413 1.84705881 2.82352941
v -0.01782705 -0.00838755 0.01680084 1.83529413 1.84705881 2.82352941
v -0.00417714 -0.01788498 0.01581750 1.83529413 1.84705881 2.82352941
v -0.03149304 -0.01787679 0.01584537 1.83529413 1.84705881 2.82352941
v -0.00417714 -0.00868185 0.01697994 1.83529413 1.84705881 2.82352941
v -0.03149304 -0.00839676 0.01680675 1.83529413 1.84705881 2.82352941
v -0.01797948 -0.00853419 0.01689039 1.83529413 1.84705881 2.82352941
v -0.00417714 -0.01787781 0.01584285 1.83529413 1.84705881 2.82352941
v -0.03149304 -0.01786962 0.01586481 1.83529413 1.84705881 2.82352941
v -0.01725486 -0.01787370 0.01585551 1.83529413 1.84705881 2.82352941
v -0.00417714 -0.00870852 0.01699092 1.83529413 1.84705881 2.82352941
v -0.03149304 -0.00868185 0.01697994 1.83529413 1.84705881 2.82352941
v -0.00417714 -0.01787370 0.01585551 1.83529413 1.84705881 2.82352941
v -0.03149304 -0.01775988 0.01609122 1.83529413 1.84705881 2.82352941
v -0.00417714 -0.01786857 0.01586733 1.83529413 1.84705881 2.82352941
v -0.00417714 -0.00900183 0.01711089 1.83529413 1.84705881 2.82352941
v -0.03149304 -0.00900183 0.01711089 1.83529413 1.84705881 2.82352941
v -0.03149304 -0.01771989 0.01617315 1.83529413 1.84705881 2.82352941
v -0.01725486 -0.01773525 0.01614189 1.83529413 1.84705881 2.82352941
v -0.00417714 -0.01780089 0.01600674 1.83529413 1.84705881 2.82352941
v -0.00417714 -0.00901926 0.01711509 1.83529413 1.84705881 2.82352941
v -0.03149304 -0.00934026 0.01719114 1.83529413 1.84705881 2.82352941
v -0.03149304 -0.01770861 0.01619088 1.83529413 1.84705881 2.82352941
v -0.00417714 -0.01772091 0.01617063 1.83529413 1.84705881 2.82352941
v -0.00417714 -0.01771476 0.01618245 1.83529413 1.84705881 2.82352941
v -0.01725486 -0.01771476 0.01618245 1.83529413 1.84705881 2.82352941
v -0.00417714 -0.00934026 0.01719114 1.83529413 1.84705881 2.82352941
v -0.03149304 -0.00936180 0.01719282 1.83529413 1.84705881 2.82352941
v -0.03149304 -0.01766757 0.01624833 1.83529413 1.84705881 2.82352941
v -0.00417714 -0.01763067 0.01629819 1.83529413 1.84705881 2.82352941
v -0.01725486 -0.01768809 0.01621962 1.83529413 1.84705881 2.82352941
v -0.00417714 -0.00936180 0.01719282 1.83529413 1.84705881 2.82352941
v -0.03149304 -0.00968790 0.01721817 1.83529413 1.84705881 2.82352941
v -0.03149304 -0.01765527 0.01626525 1.83529413 1.84705881 2.82352941
v -0.00417714 -0.01752297 0.01644603 1.83529413 1.84705881 2.82352941
v -0.00417714 -0.00968790 0.01721817 1.83529413 1.84705881 2.82352941
v -0.03149304 -0.01507299 0.01721817 1.83529413 1.84705881 2.82352941
v -0.03149304 -0.01750554 0.01646967 1.83529413 1.84705881 2.82352941
v -0.00417714 -0.01750656 0.01646715 1.83529413 1.84705881 2.82352941
v -0.01725486 -0.01749939 0.01647813 1.83529413 1.84705881 2.82352941
v -0.00417714 -0.01584417 0.01721817 1.83529413 1.84705881 2.82352941
v -0.03149304 -0.01585443 0.01721649 1.83529413 1.84705881 2.82352941
v -0.01725486 -0.01584417 0.01721817 1.83529413 1.84705881 2.82352941
v -0.03149304 -0.01749120 0.01648572 1.83529413 1.84705881 2.82352941
v -0.00417714 -0.01748913 0.01648743 1.83529413 1.84705881 2.82352941
v -0.00417714 -0.01737531 0.01659639 1.83529413 1.84705881 2.82352941
v -0.01725486 -0.01723275 0.01673325 1.83529413 1.84705881 2.82352941
v -0.03149304 -0.01740915 0.01656429 1.83529413 1.84705881 2.82352941
v -0.03149304 -0.01613646 0.01719366 1.83529413 1.84705881 2.82352941
v -0.00417714 -0.01604520 0.01720128 1.83529413 1.84705881 2.82352941
v -0.03149304 -0.01597032 0.01720719 1.83529413 1.84705881 2.82352941
v -0.00417714 -0.01724199 0.01672395 1.83529413 1.84705881 2.82352941
v -0.00417714 -0.01722147 0.01674087 1.83529413 1.84705881 2.82352941
v -0.00417714 -0.01709019 0.01682955 1.83529413 1.84705881 2.82352941
v -0.00417714 -0.01704507 0.01685997 1.83529413 1.84705881 2.82352941
v -0.03149304 -0.01722351 0.01673916 1.83529413 1.84705881 2.82352941
v -0.03149304 -0.01723992 0.01672566 1.83529413 1.84705881 2.82352941
v -0.03149304 -0.01730658 0.01666230 1.83529413 1.84705881 2.82352941
v -0.03149304 -0.01620825 0.01718691 1.83529413 1.84705881 2.82352941
v -0.00417714 -0.01620516 0.01718775 1.83529413 1.84705881 2.82352941
v -0.00417714 -0.01693536 0.01693263 1.83529413 1.84705881 2.82352941
v -0.01725486 -0.01696305 0.01691490 1.83529413 1.84705881 2.82352941
v -0.03149304 -0.01699278 0.01689462 1.83529413 1.84705881 2.82352941
v -0.03149304 -0.01622979 0.01718352 1.83529413 1.84705881 2.82352941
v -0.01725486 -0.01621953 0.01718607 1.83529413 1.84705881 2.82352941
v -0.00417714 -0.01621953 0.01718607 1.83529413 1.84705881 2.82352941
v -0.00417714 -0.01691175 0.01694616 1.83529413 1.84705881 2.82352941
v -0.01725486 -0.01692408 0.01694022 1.83529413 1.84705881 2.82352941
v -0.03149304 -0.01693329 0.01693431 1.83529413 1.84705881 2.82352941
v -0.03149304 -0.01629951 0.01716579 1.83529413 1.84705881 2.82352941
v -0.01725486 -0.01635591 0.01715142 1.83529413 1.84705881 2.82352941
v -0.00417714 -0.01644105 0.01712946 1.83529413 1.84705881 2.82352941
v -0.00417714 -0.01679076 0.01700022 1.83529413 1.84705881 2.82352941
v -0.03149304 -0.01659282 0.01708893 1.83529413 1.84705881 2.82352941
v -0.03149304 -0.01691484 0.01694445 1.83529413 1.84705881 2.82352941
v -0.03149304 -0.01648104 0.01711932 1.83529413 1.84705881 2.82352941
v -0.01725486 -0.01653744 0.01710498 1.83529413 1.84705881 2.82352941
v -0.00417714 -0.01658256 0.01709313 1.83529413 1.84705881 2.82352941
v -0.00417714 -0.01662051 0.01707624 1.83529413 1.84705881 2.82352941
v -0.03149304 -0.01657230 0.01709568 1.83529413 1.84705881 2.82352941
v -0.01725486 -0.01658256 0.01709313 1.83529413 1.84705881 2.82352941
f 1 2 5
f 1 5 10
f 1 10 16
f 1 16 22
f 1 22 30
f 1 30 38
f 1 38 43
f 1 43 51
f 1 51 56
f 1 56 62
f 1 62 67
f 1 67 72
f 1 72 78
f 1 78 83
f 1 83 87
f 1 87 92
f 1 92 101
f 1 101 111
f 1 111 117
f 1 117 123
f 1 123 129
f 1 129 130
f 1 130 124
f 1 124 118
f 1 118 112
f 1 112 106
f 1 106 105
f 1 105 104
f 1 104 103
f 1 103 97
f 1 97 96
f 1 96 90
f 1 90 86
f 1 86 81
f 1 81 76
f 1 76 75
f 1 75 71
f 1 71 66
f 1 66 64
f 1 64 59
f 1 59 54
f 1 54 48
f 1 48 41
f 1 41 33
f 1 33 25
f 1 25 20
f 1 20 14
f 1 14 7
f 1 7 3
f 1 3 8
f 1 8 4
f 1 4 6
f 1 6 2
f 2 6 11
f 2 11 5
f 3 7 15
f 3 15 8
f 4 8 9
f 4 9 6
f 5 11 12
f 5 12 10
f 6 9 8
f 6 8 15
f 6 15 21
f 6 21 29
f 6 29 37
f 6 37 36
f 6 36 35
f 6 35 42
f 6 42 50
f 6 50 55
f 6 55 60
f 6 60 65
f 6 65 69
f 6 69 74
f 6 74 80
f 6 80 85
f 6 85 89
f 6 89 95
f 6 95 99
f 6 99 109
f 6 109 108
f 6 108 107
f 6 107 114
f 6 114 120
f 6 120 126
f 6 126 125
f 6 125 131
f 6 131 127
f 6 127 121
f 6 121 115
f 6 115 110
f 6 110 100
f 6 100 102
f 6 102 93
f 6 93 88
f 6 88 84
f 6 84 79
f 6 79 73
f 6 73 68
f 6 68 63
f 6 63 57
f 6 57 52
f 6 52 46
f 6 46 40
f 6 40 31
f 6 31 23
f 6 23 18
f 6 18 12
f 6 12 13
f 6 13 11
f 7 14 21
f 7 21 15
f 10 12 17
f 10 17 16
f 11 13 12
f 12 18 19
f 12 19 17
f 14 20 28
f 14 28 29
f 14 29 21
f 16 17 19
f 16 19 24
f 16 24 22
f 18 23 24
f 18 24 19
f 20 25 26
f 20 26 27
f 20 27 28
f 22 24 32
f 22 32 30
f 23 31 24
f 24 31 32
f 25 33 34
f 25 34 35
f 25 35 26
f 26 35 36
f 26 36 27
f 27 36 37
f 27 37 28
f 28 37 29
f 30 32 31
f 30 31 39
f 30 39 38
f 31 40 39
f 33 41 42
f 33 42 34
f 34 42 35
f 38 39 44
f 38 44 45
f 38 45 43
f 39 40 44
f 40 46 45
f 40 45 47
f 40 47 44
f 41 48 49
f 41 49 42
f 42 49 48
f 42 48 50
f 43 45 46
f 43 46 52
f 43 52 53
f 43 53 51
f 44 47 45
f 48 54 50
f 50 54 55
f 51 53 57
f 51 57 58
f 51 58 56
f 52 57 53
f 54 59 55
f 55 59 61
f 55 61 60
f 56 58 63
f 56 63 62
f 57 63 58
f 59 64 61
f 60 61 66
f 60 66 65
f 61 64 66
f 62 63 68
f 62 68 67
f 65 66 71
f 65 71 70
f 65 70 69
f 67 68 72
f 68 73 72
f 69 70 75
f 69 75 76
f 69 76 77
f 69 77 74
f 70 71 75
f 72 73 78
f 73 79 83
f 73 83 78
f 74 77 80
f 76 81 82
f 76 82 80
f 76 80 77
f 79 84 87
f 79 87 83
f 80 82 81
f 80 81 86
f 80 86 85
f 84 88 94
f 84 94 92
f 84 92 87
f 85 86 89
f 86 90 91
f 86 91 89
f 88 93 94
f 89 91 95
f 90 96 91
f 91 96 97
f 91 97 103
f 91 103 98
f 91 98 99
f 91 99 95
f 92 94 100
f 92 100 101
f 93 102 94
f 94 102 100
f 98 103 104
f 98 104 105
f 98 105 106
f 98 106 107
f 98 107 108
f 98 108 109
f 98 109 99
f 100 110 111
f 100 111 101
f 106 112 113
f 106 113 114
f 106 114 107
f 110 115 116
f 110 116 111
f 111 116 117
f 112 118 119
f 112 119 113
f 113 119 120
f 113 120 114
f 115 121 122
f 115 122 117
f 115 117 116
f 117 122 123
f 118 124 125
f 118 125 126
f 118 126 119
f 119 126 120
f 121 127 128
f 121 128 122
f 122 128 123
f 123 128 129
f 124 130 125
f 125 130 129
f 125 129 132
f 125 132 131
f 127 131 128
f 128 131 132
f 128 132 129