# https://github.com/mikedh/trimesh
v -0.03149304 0.01800498 0.01427661 2.38823529 1.37647059 2.34117648
v -0.03149304 0.01800498 0.00858771 2.38823529 1.37647059 2.34117648
v -0.03573618 0.01800498 0.01514760 2.38823529 1.37647059 2.34117648
v -0.03149304 0.01800147 0.01515774 2.38823529 1.37647059 2.34117648
v -0.03149304 -0.01800498 0.00858771 2.38823529 1.37647059 2.34117648
v -0.07268781 0.01800498 0.00858771 2.38823529 1.37647059 2.34117648
v -0.03573618 0.01798032 0.01541709 2.38823529 1.37647059 2.34117648
v -0.03149304 0.01798032 0.01540695 2.38823529 1.37647059 2.34117648
v -0.03149304 0.01799442 0.01524729 2.38823529 1.37647059 2.34117648
v -0.07268781 0.01800498 0.01514760 2.38823529 1.37647059 2.34117648
v -0.03149304 -0.01800498 0.01427661 2.38823529 1.37647059 2.34117648
v -0.07268781 -0.01800498 0.00858771 2.38823529 1.37647059 2.34117648
v -0.07308441 0.01796973 0.00858771 2.38823529 1.37647059 2.34117648
v -0.05420985 0.01798383 0.01537230 2.38823529 1.37647059 2.34117648
v -0.07268781 0.01796973 0.01550664 2.38823529 1.37647059 2.34117648
v -0.03573618 0.01796973 0.01550664 2.38823529 1.37647059 2.34117648
v -0.03149304 0.01796973 0.01549650 2.38823529 1.37647059 2.34117648
v -0.07308441 0.01796973 0.01514760 2.38823529 1.37647059 2.34117648
v -0.07308015 0.01796973 0.01521012 2.38823529 1.37647059 2.34117648
v -0.07305882 0.01796973 0.01527009 2.38823529 1.37647059 2.34117648
v -0.07302897 0.01796973 0.01532670 2.38823529 1.37647059 2.34117648
v -0.07299060 0.01796973 0.01537821 2.38823529 1.37647059 2.34117648
v -0.07294368 0.01796973 0.01542300 2.38823529 1.37647059 2.34117648
v -0.07288398 0.01796973 0.01545849 2.38823529 1.37647059 2.34117648
v -0.07282428 0.01796973 0.01548552 2.38823529 1.37647059 2.34117648
v -0.07275603 0.01796973 0.01550157 2.38823529 1.37647059 2.34117648
v -0.03149304 -0.01800147 0.01515774 2.38823529 1.37647059 2.34117648
v -0.03573618 -0.01800498 0.01514760 2.38823529 1.37647059 2.34117648
v -0.07268781 -0.01800498 0.01514760 2.38823529 1.37647059 2.34117648
v -0.07308441 -0.01796973 0.00858771 2.38823529 1.37647059 2.34117648
v -0.07338720 0.01789572 0.00858771 2.38823529 1.37647059 2.34117648
v -0.07268781 0.01787457 0.01585554 2.38823529 1.37647059 2.34117648
v -0.05420985 0.01795917 0.01555056 2.38823529 1.37647059 2.34117648
v -0.03149304 0.01794858 0.01558434 2.38823529 1.37647059 2.34117648
v -0.03149304 0.01796622 0.01551678 2.38823529 1.37647059 2.34117648
v -0.07346820 0.01787457 0.01514760 2.38823529 1.37647059 2.34117648
v -0.07345542 0.01787457 0.01527009 2.38823529 1.37647059 2.34117648
v -0.07342131 0.01787457 0.01538922 2.38823529 1.37647059 2.34117648
v -0.07336587 0.01787457 0.01550157 2.38823529 1.37647059 2.34117648
v -0.07328484 0.01787457 0.01560210 2.38823529 1.37647059 2.34117648
v -0.07319103 0.01787457 0.01568994 2.38823529 1.37647059 2.34117648
v -0.07308015 0.01787457 0.01576092 2.38823529 1.37647059 2.34117648
v -0.07295646 0.01787457 0.01581246 2.38823529 1.37647059 2.34117648
v -0.07282428 0.01787457 0.01584456 2.38823529 1.37647059 2.34117648
v -0.03149304 -0.01799442 0.01524729 2.38823529 1.37647059 2.34117648
v -0.03149304 -0.01798032 0.01540695 2.38823529 1.37647059 2.34117648
v -0.03573618 -0.01798032 0.01541709 2.38823529 1.37647059 2.34117648
v -0.05420985 -0.01798383 0.01537230 2.38823529 1.37647059 2.34117648
v -0.07268781 -0.01796973 0.01550664 2.38823529 1.37647059 2.34117648
v -0.07308015 -0.01793802 0.01550664 2.38823529 1.37647059 2.34117648
v -0.07308441 -0.01796973 0.01514760 2.38823529 1.37647059 2.34117648
v -0.07338720 -0.01789572 0.00858771 2.38823529 1.37647059 2.34117648
v -0.07346820 0.01787457 0.00858771 2.38823529 1.37647059 2.34117648
v -0.07268781 0.01771242 0.01618248 2.38823529 1.37647059 2.34117648
v -0.03149304 0.01771947 0.01617318 2.38823529 1.37647059 2.34117648
v -0.03149304 0.01783932 0.01592820 2.38823529 1.37647059 2.34117648
v -0.03573618 0.01787457 0.01585554 2.38823529 1.37647059 2.34117648
v -0.03149304 0.01789572 0.01577865 2.38823529 1.37647059 2.34117648
v -0.07375392 0.01774767 0.00858771 2.38823529 1.37647059 2.34117648
v -0.07383069 0.01771242 0.01514760 2.38823529 1.37647059 2.34117648
v -0.07381362 0.01771242 0.01532670 2.38823529 1.37647059 2.34117648
v -0.07376247 0.01771242 0.01550157 2.38823529 1.37647059 2.34117648
v -0.07367718 0.01771242 0.01566462 2.38823529 1.37647059 2.34117648
v -0.07356204 0.01771242 0.01581246 2.38823529 1.37647059 2.34117648
v -0.07342131 0.01771242 0.01594002 2.38823529 1.37647059 2.34117648
v -0.07325925 0.01771242 0.01604394 2.38823529 1.37647059 2.34117648
v -0.07308015 0.01771242 0.01611996 2.38823529 1.37647059 2.34117648
v -0.07288398 0.01771242 0.01616643 2.38823529 1.37647059 2.34117648
v -0.03149304 -0.01796973 0.01549650 2.38823529 1.37647059 2.34117648
v -0.03573618 -0.01796973 0.01550664 2.38823529 1.37647059 2.34117648
v -0.05420985 -0.01795917 0.01555056 2.38823529 1.37647059 2.34117648
v -0.07268781 -0.01787457 0.01585554 2.38823529 1.37647059 2.34117648
v -0.07305882 -0.01784283 0.01585554 2.38823529 1.37647059 2.34117648
v -0.07342131 -0.01775118 0.01585554 2.38823529 1.37647059 2.34117648
v -0.07345542 -0.01784283 0.01550664 2.38823529 1.37647059 2.34117648
v -0.07346820 -0.01787457 0.01514760 2.38823529 1.37647059 2.34117648
v -0.07346820 -0.01787457 0.00858771 2.38823529 1.37647059 2.34117648
v -0.07294368 0.01749741 0.01645788 2.38823529 1.37647059 2.34117648
v -0.07268781 0.01749741 0.01647816 2.38823529 1.37647059 2.34117648
v -0.05420985 0.01768773 0.01621965 2.38823529 1.37647059 2.34117648
v -0.03149304 0.01770888 0.01619091 2.38823529 1.37647059 2.34117648
v -0.03149304 0.01786752 0.01586484 2.38823529 1.37647059 2.34117648
v -0.03149304 0.01787457 0.01584540 2.38823529 1.37647059 2.34117648
v -0.07383069 0.01771242 0.00858771 2.38823529 1.37647059 2.34117648
v -0.07408656 0.01754322 0.00858771 2.38823529 1.37647059 2.34117648
v -0.07415478 0.01749741 0.01514760 2.38823529 1.37647059 2.34117648
v -0.07413348 0.01749741 0.01537821 2.38823529 1.37647059 2.34117648
v -0.07406949 0.01749741 0.01560210 2.38823529 1.37647059 2.34117648
v -0.07395861 0.01749741 0.01581246 2.38823529 1.37647059 2.34117648
v -0.07381362 0.01749741 0.01600254 2.38823529 1.37647059 2.34117648
v -0.07363026 0.01749741 0.01616643 2.38823529 1.37647059 2.34117648
v -0.07319103 0.01749741 0.01639791 2.38823529 1.37647059 2.34117648
v -0.07342131 0.01749741 0.01629990 2.38823529 1.37647059 2.34117648
v -0.03149304 -0.01796622 0.01551678 2.38823529 1.37647059 2.34117648
v -0.03149304 -0.01794858 0.01558434 2.38823529 1.37647059 2.34117648
v -0.03149304 -0.01789572 0.01577865 2.38823529 1.37647059 2.34117648
v -0.03573618 -0.01787457 0.01585554 2.38823529 1.37647059 2.34117648
v -0.07268781 -0.01771242 0.01618248 2.38823529 1.37647059 2.34117648
v -0.07302897 -0.01768422 0.01618248 2.38823529 1.37647059 2.34117648
v -0.03149304 -0.01783932 0.01592820 2.38823529 1.37647059 2.34117648
v -0.03149304 -0.01776882 0.01607265 2.38823529 1.37647059 2.34117648
v -0.03149304 -0.01771947 0.01617318 2.38823529 1.37647059 2.34117648
v -0.07336587 -0.01759962 0.01618248 2.38823529 1.37647059 2.34117648
v -0.07367718 -0.01746216 0.01618248 2.38823529 1.37647059 2.34117648
v -0.07376247 -0.01759962 0.01585554 2.38823529 1.37647059 2.34117648
v -0.07381362 -0.01768422 0.01550664 2.38823529 1.37647059 2.34117648
v -0.07383069 -0.01771242 0.01514760 2.38823529 1.37647059 2.34117648
v -0.07375392 -0.01774767 0.00858771 2.38823529 1.37647059 2.34117648
v -0.07299060 0.01723305 0.01670964 2.38823529 1.37647059 2.34117648
v -0.07268781 0.01723305 0.01673328 2.38823529 1.37647059 2.34117648
v -0.05420985 0.01746567 0.01651026 2.38823529 1.37647059 2.34117648
v -0.03149304 0.01749036 0.01648575 2.38823529 1.37647059 2.34117648
v -0.03573618 0.01749741 0.01647816 2.38823529 1.37647059 2.34117648
v -0.03149304 0.01750446 0.01646970 2.38823529 1.37647059 2.34117648
v -0.05420985 0.01752561 0.01644099 2.38823529 1.37647059 2.34117648
v -0.03149304 0.01754676 0.01641309 2.38823529 1.37647059 2.34117648
v -0.07415478 0.01749741 0.00858771 2.38823529 1.37647059 2.34117648
v -0.07421877 0.01744101 0.00858771 2.38823529 1.37647059 2.34117648
v -0.07444050 0.01723305 0.01514760 2.38823529 1.37647059 2.34117648
v -0.07441065 0.01723305 0.01542300 2.38823529 1.37647059 2.34117648
v -0.07433391 0.01723305 0.01568994 2.38823529 1.37647059 2.34117648
v -0.07420170 0.01723305 0.01594002 2.38823529 1.37647059 2.34117648
v -0.07402686 0.01723305 0.01616643 2.38823529 1.37647059 2.34117648
v -0.07381362 0.01723305 0.01636242 2.38823529 1.37647059 2.34117648
v -0.07356204 0.01723305 0.01652124 2.38823529 1.37647059 2.34117648
v -0.07328484 0.01723305 0.01663782 2.38823529 1.37647059 2.34117648
v -0.03149304 -0.01787457 0.01584540 2.38823529 1.37647059 2.34117648
v -0.03149304 -0.01786752 0.01586484 2.38823529 1.37647059 2.34117648
v -0.05420985 -0.01768773 0.01621965 2.38823529 1.37647059 2.34117648
v -0.07268781 -0.01749741 0.01647816 2.38823529 1.37647059 2.34117648
v -0.07299060 -0.01747272 0.01647816 2.38823529 1.37647059 2.34117648
v -0.03149304 -0.01770888 0.01619091 2.38823529 1.37647059 2.34117648
v -0.07328484 -0.01739871 0.01647816 2.38823529 1.37647059 2.34117648
v -0.07356204 -0.01727532 0.01647816 2.38823529 1.37647059 2.34117648
v -0.07381362 -0.01710966 0.01647816 2.38823529 1.37647059 2.34117648
v -0.07395861 -0.01727532 0.01618248 2.38823529 1.37647059 2.34117648
v -0.07406949 -0.01739871 0.01585554 2.38823529 1.37647059 2.34117648
v -0.07413348 -0.01747272 0.01550664 2.38823529 1.37647059 2.34117648
v -0.07415478 -0.01749741 0.01514760 2.38823529 1.37647059 2.34117648
v -0.07408656 -0.01754322 0.00858771 2.38823529 1.37647059 2.34117648
v -0.07383069 -0.01771242 0.00858771 2.38823529 1.37647059 2.34117648
v -0.07336587 0.01692285 0.01683213 2.38823529 1.37647059 2.34117648
v -0.07302897 0.01692285 0.01691322 2.38823529 1.37647059 2.34117648
v -0.07268781 0.01692285 0.01694025 2.38823529 1.37647059 2.34117648
v -0.05420985 0.01696161 0.01691493 2.38823529 1.37647059 2.34117648
v -0.03149304 0.01693341 0.01693434 2.38823529 1.37647059 2.34117648
v -0.05420985 0.01719426 0.01675947 2.38823529 1.37647059 2.34117648
v -0.03573618 0.01723305 0.01673328 2.38823529 1.37647059 2.34117648
v -0.03149304 0.01730706 0.01666233 2.38823529 1.37647059 2.34117648
v -0.07444050 0.01723305 0.00858771 2.38823529 1.37647059 2.34117648
v -0.07461963 0.01698981 0.00858771 2.38823529 1.37647059 2.34117648
v -0.07466652 0.01692285 0.01514760 2.38823529 1.37647059 2.34117648
v -0.07463667 0.01692285 0.01545849 2.38823529 1.37647059 2.34117648
v -0.07454712 0.01692285 0.01576092 2.38823529 1.37647059 2.34117648
v -0.07440213 0.01692285 0.01604394 2.38823529 1.37647059 2.34117648
v -0.07420170 0.01692285 0.01629990 2.38823529 1.37647059 2.34117648
v -0.07395861 0.01692285 0.01652124 2.38823529 1.37647059 2.34117648
v -0.07367718 0.01692285 0.01670034 2.38823529 1.37647059 2.34117648
v -0.05420985 -0.01752561 0.01644099 2.38823529 1.37647059 2.34117648
v -0.03149304 -0.01754676 0.01641309 2.38823529 1.37647059 2.34117648
v -0.05420985 -0.01746567 0.01651026 2.38823529 1.37647059 2.34117648
v -0.07268781 -0.01723305 0.01673328 2.38823529 1.37647059 2.34117648
v -0.03149304 -0.01750446 0.01646970 2.38823529 1.37647059 2.34117648
v -0.03573618 -0.01749741 0.01647816 2.38823529 1.37647059 2.34117648
v -0.03149304 -0.01749036 0.01648575 2.38823529 1.37647059 2.34117648
v -0.07294368 -0.01721190 0.01673328 2.38823529 1.37647059 2.34117648
v -0.07319103 -0.01714845 0.01673328 2.38823529 1.37647059 2.34117648
v -0.07342131 -0.01704621 0.01673328 2.38823529 1.37647059 2.34117648
v -0.07363026 -0.01690521 0.01673328 2.38823529 1.37647059 2.34117648
v -0.07381362 -0.01673604 0.01673328 2.38823529 1.37647059 2.34117648
v -0.07402686 -0.01690521 0.01647816 2.38823529 1.37647059 2.34117648
v -0.07420170 -0.01704621 0.01618248 2.38823529 1.37647059 2.34117648
v -0.07433391 -0.01714845 0.01585554 2.38823529 1.37647059 2.34117648
v -0.07441065 -0.01721190 0.01550664 2.38823529 1.37647059 2.34117648
v -0.07444050 -0.01723305 0.01514760 2.38823529 1.37647059 2.34117648
v -0.07421877 -0.01744101 0.00858771 2.38823529 1.37647059 2.34117648
v -0.07415478 -0.01749741 0.00858771 2.38823529 1.37647059 2.34117648
v -0.07342131 0.01658094 0.01697574 2.38823529 1.37647059 2.34117648
v -0.07305882 0.01658094 0.01706361 2.38823529 1.37647059 2.34117648
v -0.07376247 0.01658094 0.01683213 2.38823529 1.37647059 2.34117648
v -0.07268781 0.01658094 0.01709316 2.38823529 1.37647059 2.34117648
v -0.05420985 0.01679595 0.01699770 2.38823529 1.37647059 2.34117648
v -0.05420985 0.01688055 0.01695969 2.38823529 1.37647059 2.34117648
v -0.03573618 0.01692285 0.01694025 2.38823529 1.37647059 2.34117648
v -0.03149304 0.01691226 0.01694448 2.38823529 1.37647059 2.34117648
v -0.03149304 0.01722246 0.01673919 2.38823529 1.37647059 2.34117648
v -0.03149304 0.01724010 0.01672569 2.38823529 1.37647059 2.34117648
v -0.07466652 0.01692285 0.00858771 2.38823529 1.37647059 2.34117648
v -0.07470492 0.01684884 0.00858771 2.38823529 1.37647059 2.34117648
v -0.07483710 0.01658094 0.01514760 2.38823529 1.37647059 2.34117648
v -0.07480299 0.01658094 0.01548552 2.38823529 1.37647059 2.34117648
v -0.07470492 0.01658094 0.01581246 2.38823529 1.37647059 2.34117648
v -0.07433391 0.01658094 0.01639791 2.38823529 1.37647059 2.34117648
v -0.07454712 0.01658094 0.01611996 2.38823529 1.37647059 2.34117648
v -0.07406949 0.01658094 0.01663782 2.38823529 1.37647059 2.34117648
v -0.03149304 -0.01730706 0.01666233 2.38823529 1.37647059 2.34117648
v -0.05420985 -0.01719426 0.01675947 2.38823529 1.37647059 2.34117648
v -0.03149304 -0.01693341 0.01693434 2.38823529 1.37647059 2.34117648
v -0.07268781 -0.01692285 0.01694025 2.38823529 1.37647059 2.34117648
v -0.03573618 -0.01723305 0.01673328 2.38823529 1.37647059 2.34117648
v -0.07288398 -0.01690521 0.01694025 2.38823529 1.37647059 2.34117648
v -0.07308015 -0.01685940 0.01694025 2.38823529 1.37647059 2.34117648
v -0.07325925 -0.01677834 0.01694025 2.38823529 1.37647059 2.34117648
v -0.07342131 -0.01666905 0.01694025 2.38823529 1.37647059 2.34117648
v -0.07395861 -0.01653864 0.01673328 2.38823529 1.37647059 2.34117648
v -0.07420170 -0.01666905 0.01647816 2.38823529 1.37647059 2.34117648
v -0.07356204 -0.01653864 0.01694025 2.38823529 1.37647059 2.34117648
v -0.07367718 -0.01638354 0.01694025 2.38823529 1.37647059 2.34117648
v -0.07440213 -0.01677834 0.01618248 2.38823529 1.37647059 2.34117648
v -0.07454712 -0.01685940 0.01585554 2.38823529 1.37647059 2.34117648
v -0.07463667 -0.01690521 0.01550664 2.38823529 1.37647059 2.34117648
v -0.07466652 -0.01692285 0.01514760 2.38823529 1.37647059 2.34117648
v -0.07461963 -0.01698981 0.00858771 2.38823529 1.37647059 2.34117648
v -0.07444050 -0.01723305 0.00858771 2.38823529 1.37647059 2.34117648
v -0.07345542 0.01621788 0.01706361 2.38823529 1.37647059 2.34117648
v -0.07308015 0.01621788 0.01715568 2.38823529 1.37647059 2.34117648
v -0.07381362 0.01621788 0.01691322 2.38823529 1.37647059 2.34117648
v -0.07268781 0.01621788 0.01718610 2.38823529 1.37647059 2.34117648
v -0.05420985 0.01635534 0.01715145 2.38823529 1.37647059 2.34117648
v -0.03573618 0.01658094 0.01709316 2.38823529 1.37647059 2.34117648
v -0.03149304 0.01659150 0.01708896 2.38823529 1.37647059 2.34117648
v -0.03149304 0.01665849 0.01705938 2.38823529 1.37647059 2.34117648
v -0.03149304 0.01684884 0.01697406 2.38823529 1.37647059 2.34117648
v -0.07483710 0.01658094 0.00858771 2.38823529 1.37647059 2.34117648
v -0.07491813 0.01629543 0.00858771 2.38823529 1.37647059 2.34117648
v -0.07493946 0.01621788 0.01514760 2.38823529 1.37647059 2.34117648
v -0.07490535 0.01621788 0.01550157 2.38823529 1.37647059 2.34117648
v -0.07480299 0.01621788 0.01584456 2.38823529 1.37647059 2.34117648
v -0.07463667 0.01621788 0.01616643 2.38823529 1.37647059 2.34117648
v -0.07441065 0.01621788 0.01645788 2.38823529 1.37647059 2.34117648
v -0.07413348 0.01621788 0.01670964 2.38823529 1.37647059 2.34117648
v -0.03149304 -0.01724010 0.01672569 2.38823529 1.37647059 2.34117648
v -0.03149304 -0.01722246 0.01673919 2.38823529 1.37647059 2.34117648
v -0.03149304 -0.01691226 0.01694448 2.38823529 1.37647059 2.34117648
v -0.03573618 -0.01692285 0.01694025 2.38823529 1.37647059 2.34117648
v -0.05420985 -0.01688055 0.01695969 2.38823529 1.37647059 2.34117648
v -0.07268781 -0.01658094 0.01709316 2.38823529 1.37647059 2.34117648
v -0.07282428 -0.01657035 0.01709316 2.38823529 1.37647059 2.34117648
v -0.07295646 -0.01653864 0.01709316 2.38823529 1.37647059 2.34117648
v -0.07319103 -0.01640823 0.01709316 2.38823529 1.37647059 2.34117648
v -0.07308015 -0.01648224 0.01709316 2.38823529 1.37647059 2.34117648
v -0.07406949 -0.01631658 0.01673328 2.38823529 1.37647059 2.34117648
v -0.07433391 -0.01640823 0.01647816 2.38823529 1.37647059 2.34117648
v -0.07328484 -0.01631658 0.01709316 2.38823529 1.37647059 2.34117648
v -0.07336587 -0.01621083 0.01709316 2.38823529 1.37647059 2.34117648
v -0.07376247 -0.01621083 0.01694025 2.38823529 1.37647059 2.34117648
v -0.07454712 -0.01648224 0.01618248 2.38823529 1.37647059 2.34117648
v -0.07470492 -0.01653864 0.01585554 2.38823529 1.37647059 2.34117648
v -0.07480299 -0.01657035 0.01550664 2.38823529 1.37647059 2.34117648
v -0.07483710 -0.01658094 0.01514760 2.38823529 1.37647059 2.34117648
v -0.07470492 -0.01684884 0.00858771 2.38823529 1.37647059 2.34117648
v -0.07466652 -0.01692285 0.00858771 2.38823529 1.37647059 2.34117648
v -0.07346820 0.01584423 0.01709316 2.38823529 1.37647059 2.34117648
v -0.07308441 0.01584423 0.01718610 2.38823529 1.37647059 2.34117648
v -0.07268781 0.01584423 0.01721736 2.38823529 1.37647059 2.34117648
v -0.07383069 0.01584423 0.01694025 2.38823529 1.37647059 2.34117648
v -0.05420985 0.01589007 0.01721397 2.38823529 1.37647059 2.34117648
v -0.05420985 0.01617204 0.01719033 2.38823529 1.37647059 2.34117648
v -0.03573618 0.01621788 0.01718610 2.38823529 1.37647059 2.34117648
v -0.03149304 0.01622844 0.01718355 2.38823529 1.37647059 2.34117648
v -0.03573618 0.01630953 0.01716330 2.38823529 1.37647059 2.34117648
v -0.03149304 0.01657035 0.01709571 2.38823529 1.37647059 2.34117648
v -0.07493946 0.01621788 0.00858771 2.38823529 1.37647059 2.34117648
v -0.07494798 0.01613679 0.00858771 2.38823529 1.37647059 2.34117648
v -0.07497357 0.01584423 0.01514760 2.38823529 1.37647059 2.34117648
v -0.07493946 0.01584423 0.01550664 2.38823529 1.37647059 2.34117648
v -0.07483710 0.01584423 0.01585554 2.38823529 1.37647059 2.34117648
v -0.07444050 0.01584423 0.01647816 2.38823529 1.37647059 2.34117648
v -0.07466652 0.01584423 0.01618248 2.38823529 1.37647059 2.34117648
v -0.07415478 0.01584423 0.01673328 2.38823529 1.37647059 2.34117648
v -0.03149304 -0.01684884 0.01697406 2.38823529 1.37647059 2.34117648
v -0.03149304 -0.01665849 0.01705938 2.38823529 1.37647059 2.34117648
v -0.05420985 -0.01635534 0.01715145 2.38823529 1.37647059 2.34117648
v -0.07268781 -0.01621788 0.01718610 2.38823529 1.37647059 2.34117648
v -0.03573618 -0.01658094 0.01709316 2.38823529 1.37647059 2.34117648
v -0.07282428 -0.01619673 0.01718610 2.38823529 1.37647059 2.34117648
v -0.07275603 -0.01621083 0.01718610 2.38823529 1.37647059 2.34117648
v -0.07294368 -0.01612977 0.01718610 2.38823529 1.37647059 2.34117648
v -0.07288398 -0.01616853 0.01718610 2.38823529 1.37647059 2.34117648
v -0.07413348 -0.01608393 0.01673328 2.38823529 1.37647059 2.34117648
v -0.07441065 -0.01612977 0.01647816 2.38823529 1.37647059 2.34117648
v -0.07381362 -0.01603107 0.01694025 2.38823529 1.37647059 2.34117648
v -0.07463667 -0.01616853 0.01618248 2.38823529 1.37647059 2.34117648
v -0.07299060 -0.01608393 0.01718610 2.38823529 1.37647059 2.34117648
v -0.07302897 -0.01603107 0.01718610 2.38823529 1.37647059 2.34117648
v -0.07305882 -0.01597113 0.01718610 2.38823529 1.37647059 2.34117648
v -0.07342131 -0.01609452 0.01709316 2.38823529 1.37647059 2.34117648
v -0.07480299 -0.01619673 0.01585554 2.38823529 1.37647059 2.34117648
v -0.07490535 -0.01621083 0.01550664 2.38823529 1.37647059 2.34117648
v -0.07493946 -0.01621788 0.01514760 2.38823529 1.37647059 2.34117648
v -0.07491813 -0.01629543 0.00858771 2.38823529 1.37647059 2.34117648
v -0.07483710 -0.01658094 0.00858771 2.38823529 1.37647059 2.34117648
v -0.07346820 -0.01584423 0.01709316 2.38823529 1.37647059 2.34117648
v -0.07365159 0.00000000 0.01701630 2.38823529 1.37647059 2.34117648
v -0.07288398 0.00000000 0.01720215 2.38823529 1.37647059 2.34117648
v -0.07308441 -0.01584423 0.01718610 2.38823529 1.37647059 2.34117648
v -0.07268781 -0.01584423 0.01721736 2.38823529 1.37647059 2.34117648
v -0.03573618 0.01584423 0.01721736 2.38823529 1.37647059 2.34117648
v -0.07383069 -0.01584423 0.01694025 2.38823529 1.37647059 2.34117648
v -0.07399275 0.00000000 0.01683720 2.38823529 1.37647059 2.34117648
v -0.03149304 0.01585482 0.01721652 2.38823529 1.37647059 2.34117648
v -0.03149304 0.01613328 0.01719369 2.38823529 1.37647059 2.34117648
v -0.03149304 0.01620729 0.01718694 2.38823529 1.37647059 2.34117648
v -0.03149304 0.01629894 0.01716582 2.38823529 1.37647059 2.34117648
v -0.07497357 0.01584423 0.00858771 2.38823529 1.37647059 2.34117648
v -0.07505886 0.01439904 0.00858771 2.38823529 1.37647059 2.34117648
v -0.07497357 -0.01584423 0.01514760 2.38823529 1.37647059 2.34117648
v -0.07493946 -0.01584423 0.01550664 2.38823529 1.37647059 2.34117648
v -0.07488828 0.00000000 0.01568151 2.38823529 1.37647059 2.34117648
v -0.07483710 -0.01584423 0.01585554 2.38823529 1.37647059 2.34117648
v -0.07444050 -0.01584423 0.01647816 2.38823529 1.37647059 2.34117648
v -0.07466652 -0.01584423 0.01618248 2.38823529 1.37647059 2.34117648
v -0.07415478 -0.01584423 0.01673328 2.38823529 1.37647059 2.34117648
v -0.03149304 -0.01659150 0.01708809 2.38823529 1.37647059 2.34117648
v -0.03573618 -0.01630953 0.01716330 2.38823529 1.37647059 2.34117648
v -0.05420985 -0.01617204 0.01719033 2.38823529 1.37647059 2.34117648
v -0.05420985 -0.01598172 0.01720638 2.38823529 1.37647059 2.34117648
v -0.03149304 -0.01622844 0.01718355 2.38823529 1.37647059 2.34117648
v -0.03573618 -0.01621788 0.01718610 2.38823529 1.37647059 2.34117648
v -0.03149304 -0.01657035 0.01709571 2.38823529 1.37647059 2.34117648
v -0.07345542 -0.01597113 0.01709316 2.38823529 1.37647059 2.34117648
v -0.07308015 -0.01590768 0.01718610 2.38823529 1.37647059 2.34117648
v -0.07494798 -0.01613679 0.00858771 2.38823529 1.37647059 2.34117648
v -0.07493946 -0.01621788 0.00858771 2.38823529 1.37647059 2.34117648
v -0.05420985 -0.01589007 0.01721397 2.38823529 1.37647059 2.34117648
v -0.03573618 -0.01584423 0.01721736 2.38823529 1.37647059 2.34117648
v -0.03149304 0.01507230 0.01721736 2.38823529 1.37647059 2.34117648
v -0.07505886 -0.01439904 0.00858771 2.38823529 1.37647059 2.34117648
v -0.07497357 -0.01584423 0.00858771 2.38823529 1.37647059 2.34117648
v -0.03149304 -0.01629894 0.01716582 2.38823529 1.37647059 2.34117648
v -0.03573618 -0.01612272 0.01719456 2.38823529 1.37647059 2.34117648
v -0.03149304 -0.01620729 0.01718694 2.38823529 1.37647059 2.34117648
v -0.03149304 -0.01611213 0.01719540 2.38823529 1.37647059 2.34117648
v -0.03149304 -0.01585482 0.01721652 2.38823529 1.37647059 2.34117648
v -0.03149304 -0.01507230 0.01721736 2.38823529 1.37647059 2.34117648
f 1 2 6
f 1 6 10
f 1 10 3
f 1 3 4
f 1 4 9
f 1 9 8
f 1 8 17
f 1 17 35
f 1 35 34
f 1 34 58
f 1 58 83
f 1 83 82
f 1 82 56
f 1 56 55
f 1 55 81
f 1 81 116
f 1 116 114
f 1 114 112
f 1 112 149
f 1 149 187
f 1 187 186
f 1 186 146
f 1 146 185
f 1 185 223
f 1 223 222
f 1 222 221
f 1 221 262
f 1 262 304
f 1 304 260
f 1 260 303
f 1 303 302
f 1 302 301
f 1 301 327
f 1 327 335
f 1 335 334
f 1 334 333
f 1 333 332
f 1 332 318
f 1 318 330
f 1 330 320
f 1 320 314
f 1 314 272
f 1 272 271
f 1 271 234
f 1 234 198
f 1 198 233
f 1 233 232
f 1 232 196
f 1 196 165
f 1 165 163
f 1 163 160
f 1 160 132
f 1 132 102
f 1 102 101
f 1 101 100
f 1 100 128
f 1 128 127
f 1 127 96
f 1 96 95
f 1 95 94
f 1 94 69
f 1 69 46
f 1 46 45
f 1 45 27
f 1 27 11
f 1 11 5
f 1 5 2
f 2 5 12
f 2 12 30
f 2 30 52
f 2 52 77
f 2 77 108
f 2 108 141
f 2 141 140
f 2 140 177
f 2 177 176
f 2 176 214
f 2 214 213
f 2 213 252
f 2 252 251
f 2 251 292
f 2 292 291
f 2 291 324
f 2 324 323
f 2 323 329
f 2 329 328
f 2 328 306
f 2 306 305
f 2 305 264
f 2 264 263
f 2 263 225
f 2 225 224
f 2 224 189
f 2 189 188
f 2 188 151
f 2 151 150
f 2 150 118
f 2 118 117
f 2 117 85
f 2 85 84
f 2 84 59
f 2 59 53
f 2 53 31
f 2 31 13
f 2 13 6
f 3 7 8
f 3 8 9
f 3 9 4
f 3 10 7
f 5 11 28
f 5 28 29
f 5 29 12
f 6 13 18
f 6 18 10
f 7 14 15
f 7 15 16
f 7 16 17
f 7 17 8
f 7 10 14
f 10 18 19
f 10 19 20
f 10 20 21
f 10 21 22
f 10 22 23
f 10 23 24
f 10 24 25
f 10 25 26
f 10 26 15
f 10 15 14
f 11 27 28
f 12 29 51
f 12 51 30
f 13 31 18
f 15 26 32
f 15 32 33
f 15 33 16
f 16 33 34
f 16 34 35
f 16 35 17
f 18 31 36
f 18 36 19
f 19 36 37
f 19 37 38
f 19 38 20
f 20 38 39
f 20 39 21
f 21 39 22
f 22 39 40
f 22 40 23
f 23 40 41
f 23 41 42
f 23 42 24
f 24 42 25
f 25 42 43
f 25 43 44
f 25 44 26
f 26 44 32
f 27 45 28
f 28 45 46
f 28 46 47
f 28 47 29
f 29 47 48
f 29 48 49
f 29 49 50
f 29 50 51
f 30 51 52
f 31 53 36
f 32 44 54
f 32 54 55
f 32 55 56
f 32 56 57
f 32 57 33
f 33 57 58
f 33 58 34
f 36 53 59
f 36 59 60
f 36 60 61
f 36 61 37
f 37 61 38
f 38 61 62
f 38 62 39
f 39 62 63
f 39 63 64
f 39 64 40
f 40 64 41
f 41 64 65
f 41 65 66
f 41 66 42
f 42 67 43
f 42 66 67
f 43 67 44
f 44 67 68
f 44 68 54
f 46 69 70
f 46 70 47
f 47 70 49
f 47 49 48
f 49 71 72
f 49 72 50
f 49 70 71
f 50 73 74
f 50 74 75
f 50 75 76
f 50 76 51
f 50 72 73
f 51 76 52
f 52 76 77
f 54 68 78
f 54 78 79
f 54 79 80
f 54 80 81
f 54 81 55
f 56 82 57
f 57 82 83
f 57 83 58
f 59 84 60
f 60 84 85
f 60 85 86
f 60 86 87
f 60 87 61
f 61 87 88
f 61 88 62
f 62 88 63
f 63 88 89
f 63 89 90
f 63 90 64
f 64 90 65
f 65 90 91
f 65 91 66
f 66 92 67
f 66 91 93
f 66 93 92
f 67 78 68
f 67 92 78
f 69 94 70
f 70 94 95
f 70 95 71
f 71 95 96
f 71 96 97
f 71 97 72
f 72 98 99
f 72 99 73
f 72 97 100
f 72 100 101
f 72 101 102
f 72 102 98
f 73 99 103
f 73 103 74
f 74 103 104
f 74 104 105
f 74 105 106
f 74 106 75
f 75 106 76
f 76 106 107
f 76 107 108
f 76 108 77
f 78 109 79
f 78 92 109
f 79 109 110
f 79 110 111
f 79 111 112
f 79 112 113
f 79 113 114
f 79 114 115
f 79 115 80
f 80 115 116
f 80 116 81
f 85 117 86
f 86 117 118
f 86 118 119
f 86 119 87
f 87 119 120
f 87 120 88
f 88 120 121
f 88 121 89
f 89 121 122
f 89 122 90
f 90 122 123
f 90 123 124
f 90 124 91
f 91 124 93
f 92 93 125
f 92 125 126
f 92 126 109
f 93 124 125
f 96 127 97
f 97 127 128
f 97 128 100
f 98 129 130
f 98 130 131
f 98 131 99
f 98 102 132
f 98 132 129
f 99 131 103
f 103 131 133
f 103 133 104
f 104 134 135
f 104 135 136
f 104 136 137
f 104 137 105
f 104 133 134
f 105 137 106
f 106 137 138
f 106 138 107
f 107 138 139
f 107 139 140
f 107 140 141
f 107 141 108
f 109 126 142
f 109 142 143
f 109 143 144
f 109 144 110
f 110 144 145
f 110 145 146
f 110 146 147
f 110 147 148
f 110 148 149
f 110 149 111
f 111 149 112
f 112 114 113
f 114 116 115
f 118 150 119
f 119 150 151
f 119 151 152
f 119 152 153
f 119 153 120
f 120 153 121
f 121 153 154
f 121 154 155
f 121 155 122
f 122 155 123
f 123 155 156
f 123 156 124
f 124 157 158
f 124 158 125
f 124 156 157
f 125 158 142
f 125 142 126
f 129 159 130
f 129 132 160
f 129 160 159
f 130 161 162
f 130 162 131
f 130 159 163
f 130 163 164
f 130 164 165
f 130 165 161
f 131 166 133
f 131 162 166
f 133 167 168
f 133 168 134
f 133 166 167
f 134 168 135
f 135 168 169
f 135 169 170
f 135 170 171
f 135 171 172
f 135 172 136
f 136 172 137
f 137 172 173
f 137 173 174
f 137 174 138
f 138 174 175
f 138 175 139
f 139 176 177
f 139 177 140
f 139 175 176
f 142 178 179
f 142 179 143
f 142 158 180
f 142 180 178
f 143 179 181
f 143 181 144
f 144 181 182
f 144 182 183
f 144 183 184
f 144 184 146
f 144 146 145
f 146 184 185
f 146 186 148
f 146 148 147
f 148 186 187
f 148 187 149
f 151 188 152
f 152 188 189
f 152 189 190
f 152 190 153
f 153 190 191
f 153 191 154
f 154 191 192
f 154 192 155
f 155 193 156
f 155 192 194
f 155 194 193
f 156 193 157
f 157 193 195
f 157 195 158
f 158 195 180
f 159 160 163
f 161 165 196
f 161 196 200
f 161 200 162
f 162 197 198
f 162 198 199
f 162 199 166
f 162 200 197
f 163 165 164
f 166 199 201
f 166 201 202
f 166 202 167
f 167 202 168
f 168 202 203
f 168 203 204
f 168 204 169
f 169 204 170
f 170 205 206
f 170 206 171
f 170 204 207
f 170 207 208
f 170 208 205
f 171 206 209
f 171 209 172
f 172 209 173
f 173 209 210
f 173 210 174
f 174 210 211
f 174 211 175
f 175 211 212
f 175 212 213
f 175 213 214
f 175 214 176
f 178 215 216
f 178 216 179
f 178 180 217
f 178 217 215
f 179 216 181
f 180 195 217
f 181 218 219
f 181 219 220
f 181 220 221
f 181 221 222
f 181 222 182
f 181 216 218
f 182 222 223
f 182 223 183
f 183 223 184
f 184 223 185
f 189 224 190
f 190 224 225
f 190 225 226
f 190 226 227
f 190 227 191
f 191 227 228
f 191 228 192
f 192 228 194
f 193 194 229
f 193 229 230
f 193 230 231
f 193 231 195
f 194 228 229
f 195 231 217
f 196 232 200
f 197 200 198
f 198 200 233
f 198 234 235
f 198 235 199
f 199 236 237
f 199 237 238
f 199 238 201
f 199 235 236
f 200 232 233
f 201 238 202
f 202 238 239
f 202 239 203
f 203 240 204
f 203 239 241
f 203 241 240
f 204 240 207
f 205 208 242
f 205 242 243
f 205 243 206
f 206 243 209
f 207 240 244
f 207 244 245
f 207 245 208
f 208 246 242
f 208 245 246
f 209 243 247
f 209 247 248
f 209 248 210
f 210 248 249
f 210 249 211
f 211 249 250
f 211 250 212
f 212 251 252
f 212 252 213
f 212 250 251
f 215 253 216
f 215 217 253
f 216 253 254
f 216 254 255
f 216 255 218
f 217 231 256
f 217 256 253
f 218 255 257
f 218 257 258
f 218 258 259
f 218 259 260
f 218 260 261
f 218 261 219
f 219 261 220
f 220 261 304
f 220 304 262
f 220 262 221
f 225 263 226
f 226 263 264
f 226 264 265
f 226 265 266
f 226 266 227
f 227 266 267
f 227 267 228
f 228 267 229
f 229 268 230
f 229 267 269
f 229 269 268
f 230 268 231
f 231 268 270
f 231 270 256
f 234 271 235
f 235 271 236
f 236 271 272
f 236 272 237
f 237 273 274
f 237 274 238
f 237 272 275
f 237 275 273
f 238 276 239
f 238 274 277
f 238 277 276
f 239 276 241
f 240 241 278
f 240 278 284
f 240 284 244
f 241 276 279
f 241 279 278
f 242 280 281
f 242 281 243
f 242 246 282
f 242 282 280
f 243 281 283
f 243 283 247
f 244 284 245
f 245 284 285
f 245 285 286
f 245 286 287
f 245 287 246
f 246 287 282
f 247 283 288
f 247 288 248
f 248 288 249
f 249 288 289
f 249 289 250
f 250 289 290
f 250 290 291
f 250 291 292
f 250 292 251
f 253 293 296
f 253 296 254
f 253 256 294
f 253 294 293
f 254 295 255
f 254 296 295
f 255 295 297
f 255 297 326
f 255 326 335
f 255 335 327
f 255 327 298
f 255 298 257
f 256 299 294
f 256 270 300
f 256 300 299
f 257 298 301
f 257 301 302
f 257 302 258
f 258 302 259
f 259 302 303
f 259 303 260
f 260 304 261
f 264 305 265
f 265 305 306
f 265 306 328
f 265 328 307
f 265 307 308
f 265 308 266
f 266 308 309
f 266 309 267
f 267 309 310
f 267 310 312
f 267 312 269
f 268 269 312
f 268 312 311
f 268 311 313
f 268 313 270
f 270 313 300
f 272 314 275
f 273 275 315
f 273 315 274
f 274 316 317
f 274 317 297
f 274 297 277
f 274 315 318
f 274 318 319
f 274 319 316
f 275 314 320
f 275 320 330
f 275 330 315
f 276 277 297
f 276 297 279
f 278 279 297
f 278 297 284
f 280 313 311
f 280 311 281
f 280 282 299
f 280 299 313
f 281 311 283
f 282 287 321
f 282 321 293
f 282 293 299
f 283 311 312
f 283 312 310
f 283 310 288
f 284 297 285
f 285 297 286
f 286 322 287
f 286 297 322
f 287 322 321
f 288 310 289
f 289 310 308
f 289 308 290
f 290 308 307
f 290 307 323
f 290 323 324
f 290 324 291
f 293 321 322
f 293 322 296
f 293 294 299
f 295 296 297
f 296 322 297
f 297 317 325
f 297 325 326
f 298 327 301
f 299 300 313
f 307 328 329
f 307 329 323
f 308 310 309
f 315 330 318
f 316 319 331
f 316 331 317
f 317 331 325
f 318 332 319
f 319 332 333
f 319 333 331
f 325 331 333
f 325 333 334
f 325 334 326
f 326 334 335