# https://github.com/mikedh/trimesh
v -0.07505637 0.01440081 -0.00091905 1.30588236 2.67058824 2.88235293
v -0.07505637 0.01440081 -0.00865953 1.30588236 2.67058824 2.88235293
v -0.08987172 0.01378902 -0.00091905 1.30588236 2.67058824 2.88235293
v -0.07516800 0.01439517 0.00857850 1.30588236 2.67058824 2.88235293
v -0.07516800 0.01432749 0.00858357 1.30588236 2.67058824 2.88235293
v -0.07505637 -0.01440081 -0.00091905 1.30588236 2.67058824 2.88235293
v -0.07505637 -0.01440081 -0.00865953 1.30588236 2.67058824 2.88235293
v -0.11088336 0.01292070 -0.00724173 1.30588236 2.67058824 2.88235293
v -0.11088336 0.01292070 -0.00091905 1.30588236 2.67058824 2.88235293
v -0.11088336 0.01291788 0.00716913 1.30588236 2.67058824 2.88235293
v -0.09293823 0.01365933 0.00787971 1.30588236 2.67058824 2.88235293
v -0.07516800 -0.01439235 0.00858357 1.30588236 2.67058824 2.88235293
v -0.07516800 -0.01439517 0.00848904 1.30588236 2.67058824 2.88235293
v -0.09254376 -0.01367907 -0.00091905 1.30588236 2.67058824 2.88235293
v -0.11088336 -0.01292070 -0.00724173 1.30588236 2.67058824 2.88235293
v -0.11107689 0.01290378 -0.00722655 1.30588236 2.67058824 2.88235293
v -0.11107689 0.01290378 0.00715395 1.30588236 2.67058824 2.88235293
v -0.11088336 -0.01291788 0.00716913 1.30588236 2.67058824 2.88235293
v -0.09293823 -0.01365933 0.00787971 1.30588236 2.67058824 2.88235293
v -0.11088336 -0.01292070 -0.00091905 1.30588236 2.67058824 2.88235293
v -0.11096898 -0.01291506 -0.00091905 1.30588236 2.67058824 2.88235293
v -0.11107689 -0.01290378 -0.00722655 1.30588236 2.67058824 2.88235293
v -0.11116248 0.01289250 -0.00091905 1.30588236 2.67058824 2.88235293
v -0.11117364 0.00001410 -0.00721134 1.30588236 2.67058824 2.88235293
v -0.11126670 0.01287276 -0.00719616 1.30588236 2.67058824 2.88235293
v -0.11107689 -0.01290378 0.00715395 1.30588236 2.67058824 2.88235293
v -0.11127042 0.01287276 0.00712356 1.30588236 2.67058824 2.88235293
v -0.11116248 -0.01289250 -0.00091905 1.30588236 2.67058824 2.88235293
v -0.11126670 -0.01287276 -0.00719616 1.30588236 2.67058824 2.88235293
v -0.11127042 0.01287276 -0.00091734 1.30588236 2.67058824 2.88235293
v -0.11136345 0.00002256 -0.00717423 1.30588236 2.67058824 2.88235293
v -0.11145648 0.01282764 -0.00715227 1.30588236 2.67058824 2.88235293
v -0.11127042 -0.01287276 0.00712356 1.30588236 2.67058824 2.88235293
v -0.11145648 0.01282764 -0.00091905 1.30588236 2.67058824 2.88235293
v -0.11145648 0.01282482 0.00708138 1.30588236 2.67058824 2.88235293
v -0.11127042 -0.01287276 -0.00091734 1.30588236 2.67058824 2.88235293
v -0.11145648 -0.01282764 -0.00715227 1.30588236 2.67058824 2.88235293
v -0.11163885 0.01276563 -0.00709320 1.30588236 2.67058824 2.88235293
v -0.11164257 0.01276563 -0.00091734 1.30588236 2.67058824 2.88235293
v -0.11145648 -0.01282482 0.00708138 1.30588236 2.67058824 2.88235293
v -0.11145648 -0.01282764 -0.00091905 1.30588236 2.67058824 2.88235293
v -0.11164257 0.01276563 0.00702060 1.30588236 2.67058824 2.88235293
v -0.11163885 -0.01276563 -0.00709320 1.30588236 2.67058824 2.88235293
v -0.11172816 0.00003666 -0.00705777 1.30588236 2.67058824 2.88235293
v -0.11181375 0.01268952 -0.00702063 1.30588236 2.67058824 2.88235293
v -0.11172072 0.01273179 -0.00091734 1.30588236 2.67058824 2.88235293
v -0.11164257 -0.01276281 0.00702060 1.30588236 2.67058824 2.88235293
v -0.11163885 -0.01276563 -0.00091905 1.30588236 2.67058824 2.88235293
v -0.11181375 0.01268952 0.00694971 1.30588236 2.67058824 2.88235293
v -0.11173932 -0.01272333 -0.00091905 1.30588236 2.67058824 2.88235293
v -0.11181375 -0.01268952 -0.00702063 1.30588236 2.67058824 2.88235293
v -0.11198493 0.01260210 -0.00693624 1.30588236 2.67058824 2.88235293
v -0.11181375 0.00000000 0.00694971 1.30588236 2.67058824 2.88235293
v -0.11181375 -0.01268952 0.00694803 1.30588236 2.67058824 2.88235293
v -0.11198493 0.01260210 -0.00091905 1.30588236 2.67058824 2.88235293
v -0.11198493 0.01259928 0.00686364 1.30588236 2.67058824 2.88235293
v -0.11198493 -0.01260210 -0.00693624 1.30588236 2.67058824 2.88235293
v -0.11214498 0.01249779 -0.00683664 1.30588236 2.67058824 2.88235293
v -0.11205564 0.01255701 -0.00091905 1.30588236 2.67058824 2.88235293
v -0.11198493 -0.01259928 0.00686364 1.30588236 2.67058824 2.88235293
v -0.11198493 -0.01260210 -0.00091905 1.30588236 2.67058824 2.88235293
v -0.11214498 0.01249779 0.00676404 1.30588236 2.67058824 2.88235293
v -0.11206680 -0.00005076 0.00681300 1.30588236 2.67058824 2.88235293
v -0.11214498 -0.01249779 -0.00683664 1.30588236 2.67058824 2.88235293
v -0.11229384 0.01238220 -0.00672693 1.30588236 2.67058824 2.88235293
v -0.11229756 0.01238220 -0.00091734 1.30588236 2.67058824 2.88235293
v -0.11214498 -0.01249497 0.00676404 1.30588236 2.67058824 2.88235293
v -0.11214498 -0.01249779 -0.00091905 1.30588236 2.67058824 2.88235293
v -0.11229756 0.01238220 0.00665433 1.30588236 2.67058824 2.88235293
v -0.11229756 -0.01238220 -0.00091734 1.30588236 2.67058824 2.88235293
v -0.11229384 -0.01238220 -0.00672693 1.30588236 2.67058824 2.88235293
v -0.11256177 0.01211721 -0.00647376 1.30588236 2.67058824 2.88235293
v -0.11256549 0.01211721 -0.00091734 1.30588236 2.67058824 2.88235293
v -0.11229756 -0.01238220 0.00665433 1.30588236 2.67058824 2.88235293
v -0.11256549 0.01211721 0.00640116 1.30588236 2.67058824 2.88235293
v -0.11256549 -0.01211721 -0.00091734 1.30588236 2.67058824 2.88235293
v -0.11256177 -0.01211721 -0.00647376 1.30588236 2.67058824 2.88235293
v -0.11278134 0.01181553 -0.00618177 1.30588236 2.67058824 2.88235293
v -0.11256549 -0.01211721 0.00640116 1.30588236 2.67058824 2.88235293
v -0.11278134 0.01181553 -0.00091905 1.30588236 2.67058824 2.88235293
v -0.11278134 0.01181271 0.00611085 1.30588236 2.67058824 2.88235293
v -0.11278134 -0.01181553 -0.00618177 1.30588236 2.67058824 2.88235293
v -0.11293764 0.01148004 -0.00586275 1.30588236 2.67058824 2.88235293
v -0.11287809 0.01161819 -0.00091734 1.30588236 2.67058824 2.88235293
v -0.11278134 -0.01181271 0.00611085 1.30588236 2.67058824 2.88235293
v -0.11278134 -0.01181553 -0.00091905 1.30588236 2.67058824 2.88235293
v -0.11294136 0.01148004 0.00579015 1.30588236 2.67058824 2.88235293
v -0.11286321 -0.00016635 0.00595050 1.30588236 2.67058824 2.88235293
v -0.11294136 -0.01148004 -0.00091734 1.30588236 2.67058824 2.88235293
v -0.11293764 -0.01148004 -0.00586275 1.30588236 2.67058824 2.88235293
v -0.11294136 0.01148004 -0.00091734 1.30588236 2.67058824 2.88235293
v -0.11298975 0.00017478 -0.00569229 1.30588236 2.67058824 2.88235293
v -0.11303814 0.01112763 -0.00552351 1.30588236 2.67058824 2.88235293
v -0.11294136 -0.01148004 0.00579015 1.30588236 2.67058824 2.88235293
v -0.11304186 0.01112481 0.00545091 1.30588236 2.67058824 2.88235293
v -0.11299347 -0.00017478 0.00561969 1.30588236 2.67058824 2.88235293
v -0.11298603 -0.01132497 -0.00091734 1.30588236 2.67058824 2.88235293
v -0.11303814 -0.01112763 -0.00552351 1.30588236 2.67058824 2.88235293
v -0.11304186 0.01112481 -0.00091734 1.30588236 2.67058824 2.88235293
v -0.11307162 0.01076112 -0.00517410 1.30588236 2.67058824 2.88235293
v -0.11304186 -0.01112481 0.00545091 1.30588236 2.67058824 2.88235293
v -0.11307162 0.01076112 0.00510153 1.30588236 2.67058824 2.88235293
v -0.11304186 -0.01112481 -0.00091734 1.30588236 2.67058824 2.88235293
v -0.11307162 -0.01076112 -0.00517410 1.30588236 2.67058824 2.88235293
v -0.11307162 -0.01075830 0.00510153 1.30588236 2.67058824 2.88235293
v -0.11307162 -0.01076112 -0.00091905 1.30588236 2.67058824 2.88235293
f 1 2 3
f 1 3 4
f 1 4 5
f 1 5 12
f 1 12 6
f 1 6 7
f 1 7 2
f 2 7 15
f 2 15 8
f 2 8 3
f 3 8 9
f 3 9 4
f 4 9 10
f 4 10 11
f 4 11 5
f 5 11 10
f 5 10 18
f 5 18 12
f 6 12 13
f 6 13 14
f 6 14 7
f 7 14 15
f 8 15 22
f 8 22 16
f 8 16 17
f 8 17 9
f 9 17 10
f 10 17 26
f 10 26 18
f 12 18 19
f 12 19 13
f 13 19 18
f 13 18 20
f 13 20 14
f 14 20 15
f 15 20 21
f 15 21 22
f 16 23 17
f 16 22 24
f 16 24 25
f 16 25 23
f 17 23 27
f 17 27 33
f 17 33 26
f 18 21 20
f 18 26 21
f 21 26 22
f 22 28 29
f 22 29 24
f 22 26 28
f 23 25 30
f 23 30 27
f 24 29 25
f 25 29 31
f 25 31 32
f 25 32 30
f 26 33 28
f 27 30 32
f 27 32 34
f 27 34 35
f 27 35 40
f 27 40 33
f 28 33 36
f 28 36 29
f 29 36 37
f 29 37 31
f 31 37 32
f 32 37 43
f 32 43 38
f 32 38 39
f 32 39 42
f 32 42 34
f 33 40 41
f 33 41 37
f 33 37 36
f 34 42 35
f 35 42 47
f 35 47 40
f 37 41 48
f 37 48 43
f 38 43 44
f 38 44 45
f 38 45 46
f 38 46 39
f 39 46 42
f 40 47 41
f 41 47 48
f 42 46 49
f 42 49 53
f 42 53 47
f 43 48 50
f 43 50 51
f 43 51 44
f 44 51 45
f 45 49 46
f 45 51 57
f 45 57 52
f 45 52 55
f 45 55 49
f 47 53 54
f 47 54 50
f 47 50 48
f 49 55 56
f 49 56 60
f 49 60 53
f 50 54 51
f 51 54 61
f 51 61 57
f 52 57 64
f 52 64 58
f 52 58 59
f 52 59 55
f 53 60 54
f 54 60 61
f 55 59 62
f 55 62 56
f 56 62 63
f 56 63 60
f 57 61 68
f 57 68 64
f 58 62 59
f 58 64 71
f 58 71 65
f 58 65 66
f 58 66 69
f 58 69 62
f 60 63 67
f 60 67 68
f 60 68 61
f 62 67 63
f 62 69 74
f 62 74 67
f 64 68 74
f 64 74 70
f 64 70 71
f 65 71 77
f 65 77 72
f 65 72 73
f 65 73 66
f 66 73 75
f 66 75 69
f 67 74 68
f 69 75 79
f 69 79 74
f 70 74 79
f 70 79 76
f 70 76 71
f 71 76 77
f 72 77 82
f 72 82 78
f 72 78 73
f 73 78 80
f 73 80 75
f 75 80 81
f 75 81 85
f 75 85 79
f 76 79 86
f 76 86 82
f 76 82 77
f 78 82 90
f 78 90 83
f 78 83 84
f 78 84 80
f 79 85 86
f 80 84 81
f 81 84 87
f 81 87 88
f 81 88 85
f 82 86 94
f 82 94 89
f 82 89 90
f 83 91 84
f 83 90 92
f 83 92 93
f 83 93 91
f 84 91 87
f 85 88 94
f 85 94 86
f 87 94 88
f 87 91 99
f 87 99 95
f 87 95 96
f 87 96 94
f 89 94 97
f 89 97 90
f 90 97 98
f 90 98 92
f 91 93 99
f 92 98 93
f 93 98 104
f 93 104 100
f 93 100 99
f 94 96 101
f 94 101 97
f 95 99 100
f 95 100 102
f 95 102 105
f 95 105 101
f 95 101 96
f 97 101 103
f 97 103 98
f 98 103 104
f 100 104 106
f 100 106 105
f 100 105 102
f 101 105 106
f 101 106 104
f 101 104 103