# https://github.com/mikedh/trimesh
v -0.07267782 -0.01584402 -0.01728894 1.63529412 2.14117647 1.80000000
v -0.03572616 -0.01612419 -0.01726650 1.63529412 2.14117647 1.80000000
v -0.07267782 -0.01621884 -0.01725687 1.63529412 2.14117647 1.80000000
v -0.07275249 -0.01621311 -0.01725687 1.63529412 2.14117647 1.80000000
v -0.07281225 -0.01619589 -0.01725687 1.63529412 2.14117647 1.80000000
v -0.07287198 -0.01616913 -0.01725687 1.63529412 2.14117647 1.80000000
v -0.07297653 -0.01608498 -0.01725687 1.63529412 2.14117647 1.80000000
v -0.07300641 -0.01603047 -0.01725687 1.63529412 2.14117647 1.80000000
v -0.07303629 -0.01597215 -0.01725687 1.63529412 2.14117647 1.80000000
v -0.07306617 -0.01584402 -0.01725687 1.63529412 2.14117647 1.80000000
v -0.07297653 -0.00860484 -0.01726488 1.63529412 2.14117647 1.80000000
v -0.07267782 -0.00860484 -0.01728894 1.63529412 2.14117647 1.80000000
v 0.07511385 -0.01584402 -0.01728894 1.63529412 2.14117647 1.80000000
v 0.03816219 -0.01612419 -0.01726650 1.63529412 2.14117647 1.80000000
v -0.03572616 -0.01630968 -0.01723443 1.63529412 2.14117647 1.80000000
v -0.07267782 -0.01658316 -0.01716552 1.63529412 2.14117647 1.80000000
v 0.07511385 -0.01621884 -0.01725687 1.63529412 2.14117647 1.80000000
v -0.07281225 -0.01657071 -0.01716552 1.63529412 2.14117647 1.80000000
v -0.07293174 -0.01653726 -0.01716552 1.63529412 2.14117647 1.80000000
v -0.07305123 -0.01648371 -0.01716552 1.63529412 2.14117647 1.80000000
v -0.07317072 -0.01641009 -0.01716552 1.63529412 2.14117647 1.80000000
v -0.07326033 -0.01631829 -0.01716552 1.63529412 2.14117647 1.80000000
v -0.07334994 -0.01621311 -0.01716552 1.63529412 2.14117647 1.80000000
v -0.07340970 -0.01609647 -0.01716552 1.63529412 2.14117647 1.80000000
v -0.07343955 -0.01597215 -0.01716552 1.63529412 2.14117647 1.80000000
v -0.07345449 -0.01584402 -0.01716552 1.63529412 2.14117647 1.80000000
v -0.07315578 -0.00860484 -0.01723605 1.63529412 2.14117647 1.80000000
v -0.07306617 -0.00860484 -0.01725687 1.63529412 2.14117647 1.80000000
v -0.07496304 -0.00823671 -0.00867030 1.63529412 2.14117647 1.80000000
v 0.07511385 -0.00860484 -0.01728894 1.63529412 2.14117647 1.80000000
v 0.07542750 -0.00860484 -0.01726488 1.63529412 2.14117647 1.80000000
v 0.07551711 -0.01584402 -0.01725687 1.63529412 2.14117647 1.80000000
v 0.07551711 -0.01621311 -0.01722804 1.63529412 2.14117647 1.80000000
v 0.03816219 -0.01630968 -0.01723443 1.63529412 2.14117647 1.80000000
v -0.07267782 -0.01692450 -0.01701168 1.63529412 2.14117647 1.80000000
v -0.07287198 -0.01690728 -0.01701168 1.63529412 2.14117647 1.80000000
v 0.07511385 -0.01658316 -0.01716552 1.63529412 2.14117647 1.80000000
v -0.07305123 -0.01685853 -0.01701168 1.63529412 2.14117647 1.80000000
v -0.07324539 -0.01677915 -0.01701168 1.63529412 2.14117647 1.80000000
v -0.07340970 -0.01667112 -0.01701168 1.63529412 2.14117647 1.80000000
v -0.07354410 -0.01653726 -0.01701168 1.63529412 2.14117647 1.80000000
v -0.07366359 -0.01638426 -0.01701168 1.63529412 2.14117647 1.80000000
v -0.07373829 -0.01621311 -0.01701168 1.63529412 2.14117647 1.80000000
v -0.07379802 -0.01603047 -0.01701168 1.63529412 2.14117647 1.80000000
v -0.07345449 -0.00860484 -0.01716552 1.63529412 2.14117647 1.80000000
v -0.07381296 -0.01584402 -0.01701168 1.63529412 2.14117647 1.80000000
v -0.07505265 -0.00823671 -0.00866067 1.63529412 2.14117647 1.80000000
v 0.07741398 -0.00823671 -0.00867030 1.63529412 2.14117647 1.80000000
v 0.07551711 -0.00860484 -0.01725687 1.63529412 2.14117647 1.80000000
v 0.07560672 -0.00860484 -0.01723605 1.63529412 2.14117647 1.80000000
v 0.07590546 -0.01584402 -0.01716552 1.63529412 2.14117647 1.80000000
v 0.07551711 -0.01657071 -0.01713507 1.63529412 2.14117647 1.80000000
v 0.07590546 -0.01619589 -0.01713507 1.63529412 2.14117647 1.80000000
v 0.07590546 -0.01653726 -0.01704693 1.63529412 2.14117647 1.80000000
v -0.07267782 -0.01723239 -0.01680495 1.63529412 2.14117647 1.80000000
v -0.07291680 -0.01721136 -0.01680495 1.63529412 2.14117647 1.80000000
v 0.07511385 -0.01692450 -0.01701168 1.63529412 2.14117647 1.80000000
v -0.07317072 -0.01714920 -0.01680495 1.63529412 2.14117647 1.80000000
v 0.07551711 -0.01690728 -0.01698444 1.63529412 2.14117647 1.80000000
v -0.07340970 -0.01704690 -0.01680495 1.63529412 2.14117647 1.80000000
v -0.07361880 -0.01690728 -0.01680495 1.63529412 2.14117647 1.80000000
v -0.07379802 -0.01673613 -0.01680495 1.63529412 2.14117647 1.80000000
v -0.07394739 -0.01653726 -0.01680495 1.63529412 2.14117647 1.80000000
v -0.07405194 -0.01631829 -0.01680495 1.63529412 2.14117647 1.80000000
v -0.07411167 -0.01608498 -0.01680495 1.63529412 2.14117647 1.80000000
v -0.07414155 -0.01584402 -0.01680495 1.63529412 2.14117647 1.80000000
v -0.07381296 -0.00860484 -0.01701168 1.63529412 2.14117647 1.80000000
v -0.07406688 -0.00860484 -0.01685304 1.63529412 2.14117647 1.80000000
v -0.07505265 -0.01439925 -0.00866067 1.63529412 2.14117647 1.80000000
v -0.07505265 -0.00823671 -0.00091863 1.63529412 2.14117647 1.80000000
v -0.07414155 -0.00860484 -0.01680495 1.63529412 2.14117647 1.80000000
v -0.07442535 -0.00860484 -0.01655013 1.63529412 2.14117647 1.80000000
v -0.07464936 -0.00860484 -0.01625367 1.63529412 2.14117647 1.80000000
v -0.07469418 -0.00860484 -0.01617996 1.63529412 2.14117647 1.80000000
v -0.07478379 -0.00860484 -0.01600206 1.63529412 2.14117647 1.80000000
v -0.07481367 -0.00860484 -0.01592673 1.63529412 2.14117647 1.80000000
v -0.07484355 -0.00860484 -0.01584822 1.63529412 2.14117647 1.80000000
v -0.07490328 -0.00860484 -0.01565751 1.63529412 2.14117647 1.80000000
v -0.07491822 -0.00860484 -0.01557897 1.63529412 2.14117647 1.80000000
v -0.07493316 -0.00860484 -0.01549725 1.63529412 2.14117647 1.80000000
v -0.07496304 -0.00860484 -0.01521840 1.63529412 2.14117647 1.80000000
v 0.07753347 -0.00823671 -0.00865908 1.63529412 2.14117647 1.80000000
v 0.07590546 -0.00860484 -0.01716552 1.63529412 2.14117647 1.80000000
v 0.07626393 -0.01584402 -0.01701168 1.63529412 2.14117647 1.80000000
v 0.07626393 -0.01616913 -0.01698444 1.63529412 2.14117647 1.80000000
v 0.07590546 -0.01685853 -0.01690431 1.63529412 2.14117647 1.80000000
v 0.07626393 -0.01648371 -0.01690431 1.63529412 2.14117647 1.80000000
v -0.03572616 -0.01743222 -0.01661424 1.63529412 2.14117647 1.80000000
v -0.05420199 -0.01746570 -0.01658220 1.63529412 2.14117647 1.80000000
v -0.07267782 -0.01749822 -0.01655013 1.63529412 2.14117647 1.80000000
v -0.07297653 -0.01747335 -0.01655013 1.63529412 2.14117647 1.80000000
v 0.07511385 -0.01723239 -0.01680495 1.63529412 2.14117647 1.80000000
v 0.07551711 -0.01721136 -0.01678092 1.63529412 2.14117647 1.80000000
v -0.07326033 -0.01739877 -0.01655013 1.63529412 2.14117647 1.80000000
v -0.07354410 -0.01727637 -0.01655013 1.63529412 2.14117647 1.80000000
v -0.07379802 -0.01711095 -0.01655013 1.63529412 2.14117647 1.80000000
v -0.07400712 -0.01690728 -0.01655013 1.63529412 2.14117647 1.80000000
v -0.07418637 -0.01667112 -0.01655013 1.63529412 2.14117647 1.80000000
v -0.07432077 -0.01641009 -0.01655013 1.63529412 2.14117647 1.80000000
v -0.07439547 -0.01613088 -0.01655013 1.63529412 2.14117647 1.80000000
v -0.07442535 -0.01584402 -0.01655013 1.63529412 2.14117647 1.80000000
v -0.07496304 -0.01584402 -0.01521840 1.63529412 2.14117647 1.80000000
v -0.07505265 -0.01439925 -0.00091863 1.63529412 2.14117647 1.80000000
v 0.07753347 -0.00823671 -0.00091863 1.63529412 2.14117647 1.80000000
v -0.07464936 -0.01584402 -0.01625367 1.63529412 2.14117647 1.80000000
v -0.07481367 -0.01584402 -0.01592673 1.63529412 2.14117647 1.80000000
v -0.07491822 -0.01584402 -0.01557897 1.63529412 2.14117647 1.80000000
v 0.07753347 -0.01439733 -0.00865908 1.63529412 2.14117647 1.80000000
v 0.07741398 -0.00860484 -0.01521840 1.63529412 2.14117647 1.80000000
v 0.07738413 -0.00860484 -0.01549725 1.63529412 2.14117647 1.80000000
v 0.07736919 -0.00860484 -0.01557897 1.63529412 2.14117647 1.80000000
v 0.07735425 -0.00860484 -0.01565751 1.63529412 2.14117647 1.80000000
v 0.07729449 -0.00860484 -0.01584822 1.63529412 2.14117647 1.80000000
v 0.07726464 -0.00860484 -0.01592673 1.63529412 2.14117647 1.80000000
v 0.07723476 -0.00860484 -0.01600206 1.63529412 2.14117647 1.80000000
v 0.07714515 -0.00860484 -0.01617996 1.63529412 2.14117647 1.80000000
v 0.07710033 -0.00860484 -0.01625367 1.63529412 2.14117647 1.80000000
v 0.07687629 -0.00860484 -0.01655013 1.63529412 2.14117647 1.80000000
v 0.07659252 -0.00860484 -0.01680495 1.63529412 2.14117647 1.80000000
v 0.07651782 -0.00860484 -0.01685304 1.63529412 2.14117647 1.80000000
v 0.07626393 -0.00860484 -0.01701168 1.63529412 2.14117647 1.80000000
v 0.07659252 -0.01584402 -0.01680495 1.63529412 2.14117647 1.80000000
v 0.07659252 -0.01613088 -0.01678092 1.63529412 2.14117647 1.80000000
v 0.07626393 -0.01677915 -0.01677129 1.63529412 2.14117647 1.80000000
v 0.07626393 -0.01704690 -0.01659342 1.63529412 2.14117647 1.80000000
v 0.07590546 -0.01714920 -0.01670880 1.63529412 2.14117647 1.80000000
v 0.07659252 -0.01641009 -0.01670880 1.63529412 2.14117647 1.80000000
v 0.07659252 -0.01667112 -0.01659342 1.63529412 2.14117647 1.80000000
v 0.03816219 -0.01743222 -0.01661424 1.63529412 2.14117647 1.80000000
v 0.05665296 -0.01746570 -0.01658220 1.63529412 2.14117647 1.80000000
v 0.07511385 -0.01749822 -0.01655013 1.63529412 2.14117647 1.80000000
v -0.05420199 -0.01752594 -0.01651329 1.63529412 2.14117647 1.80000000
v -0.05420199 -0.01768752 -0.01629213 1.63529412 2.14117647 1.80000000
v -0.07267782 -0.01771431 -0.01625367 1.63529412 2.14117647 1.80000000
v -0.07300641 -0.01768656 -0.01625367 1.63529412 2.14117647 1.80000000
v -0.07334994 -0.01760148 -0.01625367 1.63529412 2.14117647 1.80000000
v 0.07551711 -0.01747335 -0.01652931 1.63529412 2.14117647 1.80000000
v 0.07590546 -0.01739877 -0.01647000 1.63529412 2.14117647 1.80000000
v -0.07366359 -0.01746474 -0.01625367 1.63529412 2.14117647 1.80000000
v -0.07394739 -0.01727637 -0.01625367 1.63529412 2.14117647 1.80000000
v -0.07418637 -0.01704690 -0.01625367 1.63529412 2.14117647 1.80000000
v -0.07438053 -0.01677915 -0.01625367 1.63529412 2.14117647 1.80000000
v -0.07452987 -0.01648371 -0.01625367 1.63529412 2.14117647 1.80000000
v -0.07461951 -0.01616913 -0.01625367 1.63529412 2.14117647 1.80000000
v -0.07488834 -0.01621311 -0.01557897 1.63529412 2.14117647 1.80000000
v -0.07491822 -0.01621884 -0.01521840 1.63529412 2.14117647 1.80000000
v -0.07493316 -0.01621788 -0.00867030 1.63529412 2.14117647 1.80000000
v -0.07496304 -0.01584402 -0.00867030 1.63529412 2.14117647 1.80000000
v -0.07496304 -0.01584306 -0.00091863 1.63529412 2.14117647 1.80000000
v 0.07753347 -0.01439733 -0.00091863 1.63529412 2.14117647 1.80000000
v -0.07478379 -0.01619589 -0.01592673 1.63529412 2.14117647 1.80000000
v 0.07739907 -0.01604196 -0.00091863 1.63529412 2.14117647 1.80000000
v 0.07741398 -0.01584402 -0.01521840 1.63529412 2.14117647 1.80000000
v 0.07736919 -0.01584402 -0.01557897 1.63529412 2.14117647 1.80000000
v 0.07726464 -0.01584402 -0.01592673 1.63529412 2.14117647 1.80000000
v 0.07710033 -0.01584402 -0.01625367 1.63529412 2.14117647 1.80000000
v 0.07687629 -0.01584402 -0.01655013 1.63529412 2.14117647 1.80000000
v 0.07687629 -0.01608498 -0.01652931 1.63529412 2.14117647 1.80000000
v 0.07687629 -0.01631829 -0.01647000 1.63529412 2.14117647 1.80000000
v 0.07659252 -0.01690728 -0.01643475 1.63529412 2.14117647 1.80000000
v 0.07626393 -0.01727637 -0.01637226 1.63529412 2.14117647 1.80000000
v 0.07687629 -0.01653726 -0.01637226 1.63529412 2.14117647 1.80000000
v 0.07551711 -0.01768656 -0.01623765 1.63529412 2.14117647 1.80000000
v 0.07511385 -0.01771431 -0.01625367 1.63529412 2.14117647 1.80000000
v 0.05665296 -0.01768752 -0.01629213 1.63529412 2.14117647 1.80000000
v 0.05665296 -0.01752594 -0.01651329 1.63529412 2.14117647 1.80000000
v -0.05420199 -0.01773534 -0.01621359 1.63529412 2.14117647 1.80000000
v -0.07267782 -0.01787397 -0.01592673 1.63529412 2.14117647 1.80000000
v -0.07303629 -0.01784244 -0.01592673 1.63529412 2.14117647 1.80000000
v -0.07340970 -0.01775160 -0.01592673 1.63529412 2.14117647 1.80000000
v 0.07590546 -0.01760148 -0.01619118 1.63529412 2.14117647 1.80000000
v 0.07626393 -0.01746474 -0.01611423 1.63529412 2.14117647 1.80000000
v -0.07373829 -0.01760148 -0.01592673 1.63529412 2.14117647 1.80000000
v -0.07405194 -0.01739877 -0.01592673 1.63529412 2.14117647 1.80000000
v -0.07432077 -0.01714920 -0.01592673 1.63529412 2.14117647 1.80000000
v -0.07452987 -0.01685853 -0.01592673 1.63529412 2.14117647 1.80000000
v -0.07469418 -0.01653726 -0.01592673 1.63529412 2.14117647 1.80000000
v -0.07478379 -0.01657071 -0.01557897 1.63529412 2.14117647 1.80000000
v -0.07481367 -0.01658316 -0.01521840 1.63529412 2.14117647 1.80000000
v -0.07491822 -0.01629534 -0.00867030 1.63529412 2.14117647 1.80000000
v -0.07493316 -0.01621788 -0.00091863 1.63529412 2.14117647 1.80000000
v 0.07736919 -0.01621788 -0.00091863 1.63529412 2.14117647 1.80000000
v 0.07738413 -0.01613757 -0.00867030 1.63529412 2.14117647 1.80000000
v 0.07736919 -0.01621884 -0.01521840 1.63529412 2.14117647 1.80000000
v 0.07736919 -0.01621311 -0.01528089 1.63529412 2.14117647 1.80000000
v 0.07736919 -0.01619589 -0.01534179 1.63529412 2.14117647 1.80000000
v 0.07736919 -0.01616913 -0.01539789 1.63529412 2.14117647 1.80000000
v 0.07736919 -0.01613088 -0.01545078 1.63529412 2.14117647 1.80000000
v 0.07736919 -0.01608498 -0.01549404 1.63529412 2.14117647 1.80000000
v 0.07736919 -0.01603047 -0.01553091 1.63529412 2.14117647 1.80000000
v 0.07736919 -0.01597215 -0.01555653 1.63529412 2.14117647 1.80000000
v 0.07736919 -0.01590810 -0.01557258 1.63529412 2.14117647 1.80000000
v 0.07726464 -0.01597215 -0.01591551 1.63529412 2.14117647 1.80000000
v 0.07710033 -0.01603047 -0.01623765 1.63529412 2.14117647 1.80000000
v 0.07710033 -0.01621311 -0.01619118 1.63529412 2.14117647 1.80000000
v 0.07687629 -0.01673613 -0.01623765 1.63529412 2.14117647 1.80000000
v 0.07687629 -0.01690728 -0.01607418 1.63529412 2.14117647 1.80000000
v 0.07659252 -0.01711095 -0.01623765 1.63529412 2.14117647 1.80000000
v 0.07659252 -0.01727637 -0.01601169 1.63529412 2.14117647 1.80000000
v 0.07710033 -0.01638426 -0.01611423 1.63529412 2.14117647 1.80000000
v 0.07710033 -0.01653726 -0.01601169 1.63529412 2.14117647 1.80000000
v 0.07551711 -0.01784244 -0.01591551 1.63529412 2.14117647 1.80000000
v 0.07511385 -0.01787397 -0.01592673 1.63529412 2.14117647 1.80000000
v 0.07590546 -0.01775160 -0.01588347 1.63529412 2.14117647 1.80000000
v 0.05665296 -0.01773534 -0.01621359 1.63529412 2.14117647 1.80000000
v -0.07267782 -0.01797150 -0.01557897 1.63529412 2.14117647 1.80000000
v -0.07305123 -0.01793901 -0.01557897 1.63529412 2.14117647 1.80000000
v -0.07343955 -0.01784244 -0.01557897 1.63529412 2.14117647 1.80000000
v -0.07379802 -0.01768656 -0.01557897 1.63529412 2.14117647 1.80000000
v 0.07626393 -0.01760148 -0.01583220 1.63529412 2.14117647 1.80000000
v 0.07659252 -0.01739877 -0.01576167 1.63529412 2.14117647 1.80000000
v -0.07411167 -0.01747335 -0.01557897 1.63529412 2.14117647 1.80000000
v -0.07439547 -0.01721136 -0.01557897 1.63529412 2.14117647 1.80000000
v -0.07461951 -0.01690728 -0.01557897 1.63529412 2.14117647 1.80000000
v -0.07464936 -0.01692450 -0.01521840 1.63529412 2.14117647 1.80000000
v -0.07479873 -0.01665582 -0.00867030 1.63529412 2.14117647 1.80000000
v -0.07482861 -0.01658124 -0.00867030 1.63529412 2.14117647 1.80000000
v -0.07482861 -0.01658124 -0.00091863 1.63529412 2.14117647 1.80000000
v -0.07488834 -0.01638906 -0.00091863 1.63529412 2.14117647 1.80000000
v 0.07727958 -0.01658124 -0.00091863 1.63529412 2.14117647 1.80000000
v 0.07735425 -0.01629726 -0.00867030 1.63529412 2.14117647 1.80000000
v 0.07736919 -0.01621884 -0.00867030 1.63529412 2.14117647 1.80000000
v 0.07727958 -0.01658124 -0.00867030 1.63529412 2.14117647 1.80000000
v 0.07726464 -0.01658316 -0.01521840 1.63529412 2.14117647 1.80000000
v 0.07726464 -0.01657071 -0.01534179 1.63529412 2.14117647 1.80000000
v 0.07726464 -0.01653726 -0.01546038 1.63529412 2.14117647 1.80000000
v 0.07726464 -0.01648371 -0.01557258 1.63529412 2.14117647 1.80000000
v 0.07726464 -0.01641009 -0.01567353 1.63529412 2.14117647 1.80000000
v 0.07726464 -0.01631829 -0.01576167 1.63529412 2.14117647 1.80000000
v 0.07726464 -0.01621311 -0.01583220 1.63529412 2.14117647 1.80000000
v 0.07726464 -0.01609647 -0.01588347 1.63529412 2.14117647 1.80000000
v 0.07710033 -0.01667112 -0.01588347 1.63529412 2.14117647 1.80000000
v 0.07710033 -0.01677915 -0.01573602 1.63529412 2.14117647 1.80000000
v 0.07687629 -0.01704690 -0.01588347 1.63529412 2.14117647 1.80000000
v 0.07551711 -0.01793901 -0.01557258 1.63529412 2.14117647 1.80000000
v 0.07511385 -0.01797150 -0.01557897 1.63529412 2.14117647 1.80000000
v 0.07590546 -0.01784244 -0.01555653 1.63529412 2.14117647 1.80000000
v 0.07626393 -0.01768656 -0.01553091 1.63529412 2.14117647 1.80000000
v -0.07267782 -0.01800498 -0.01521840 1.63529412 2.14117647 1.80000000
v -0.07306617 -0.01797150 -0.01521840 1.63529412 2.14117647 1.80000000
v -0.07345449 -0.01787397 -0.01521840 1.63529412 2.14117647 1.80000000
v -0.07381296 -0.01771431 -0.01521840 1.63529412 2.14117647 1.80000000
v -0.07414155 -0.01749822 -0.01521840 1.63529412 2.14117647 1.80000000
v 0.07687629 -0.01714920 -0.01567353 1.63529412 2.14117647 1.80000000
v 0.07687629 -0.01721136 -0.01545078 1.63529412 2.14117647 1.80000000
v 0.07659252 -0.01747335 -0.01549404 1.63529412 2.14117647 1.80000000
v -0.07442535 -0.01723239 -0.01521840 1.63529412 2.14117647 1.80000000
v -0.07466430 -0.01692258 -0.00867030 1.63529412 2.14117647 1.80000000
v -0.07466430 -0.01692258 -0.00091863 1.63529412 2.14117647 1.80000000
v -0.07475391 -0.01674186 -0.00091863 1.63529412 2.14117647 1.80000000
v 0.07718994 -0.01676196 -0.00091863 1.63529412 2.14117647 1.80000000
v 0.07714515 -0.01684992 -0.00867030 1.63529412 2.14117647 1.80000000
v 0.07710033 -0.01692450 -0.01521840 1.63529412 2.14117647 1.80000000
v 0.07710033 -0.01690728 -0.01539789 1.63529412 2.14117647 1.80000000
v 0.07710033 -0.01685853 -0.01557258 1.63529412 2.14117647 1.80000000
v 0.07551711 -0.01797150 -0.01521840 1.63529412 2.14117647 1.80000000
v 0.07511385 -0.01800498 -0.01521840 1.63529412 2.14117647 1.80000000
v 0.07590546 -0.01787397 -0.01521840 1.63529412 2.14117647 1.80000000
v 0.07626393 -0.01771431 -0.01521840 1.63529412 2.14117647 1.80000000
v 0.07659252 -0.01749822 -0.01521840 1.63529412 2.14117647 1.80000000
v -0.07267782 -0.01800498 -0.00091863 1.63529412 2.14117647 1.80000000
v -0.07308108 -0.01797057 -0.00867030 1.63529412 2.14117647 1.80000000
v -0.07345449 -0.01787397 -0.00867030 1.63529412 2.14117647 1.80000000
v -0.07382790 -0.01771431 -0.00867030 1.63529412 2.14117647 1.80000000
v -0.07415649 -0.01749726 -0.00867030 1.63529412 2.14117647 1.80000000
v 0.07687629 -0.01723239 -0.01521840 1.63529412 2.14117647 1.80000000
v -0.07430586 -0.01735764 -0.00091863 1.63529412 2.14117647 1.80000000
v -0.07442535 -0.01723239 -0.00867030 1.63529412 2.14117647 1.80000000
v -0.07448508 -0.01716546 -0.00867030 1.63529412 2.14117647 1.80000000
v -0.07421622 -0.01743987 -0.00867030 1.63529412 2.14117647 1.80000000
v -0.07455975 -0.01706889 -0.00091863 1.63529412 2.14117647 1.80000000
v 0.07710033 -0.01692258 -0.00091863 1.63529412 2.14117647 1.80000000
v 0.07710033 -0.01692450 -0.00867030 1.63529412 2.14117647 1.80000000
v 0.07705554 -0.01699047 -0.00867030 1.63529412 2.14117647 1.80000000
v 0.07583076 -0.01789407 -0.00867030 1.63529412 2.14117647 1.80000000
v 0.07551711 -0.01797150 -0.00867030 1.63529412 2.14117647 1.80000000
v 0.07512879 -0.01800498 -0.00867030 1.63529412 2.14117647 1.80000000
v 0.07608468 -0.01779846 -0.00091863 1.63529412 2.14117647 1.80000000
v 0.07590546 -0.01787397 -0.00867030 1.63529412 2.14117647 1.80000000
v 0.07653276 -0.01754505 -0.00867030 1.63529412 2.14117647 1.80000000
v 0.07642821 -0.01761198 -0.00091863 1.63529412 2.14117647 1.80000000
v 0.07626393 -0.01771431 -0.00091863 1.63529412 2.14117647 1.80000000
v 0.07681656 -0.01728975 -0.00867030 1.63529412 2.14117647 1.80000000
v 0.07659252 -0.01749822 -0.00867030 1.63529412 2.14117647 1.80000000
v -0.07308108 -0.01797057 -0.00091863 1.63529412 2.14117647 1.80000000
v 0.07512879 -0.01800498 -0.00091863 1.63529412 2.14117647 1.80000000
v -0.07345449 -0.01787304 -0.00091863 1.63529412 2.14117647 1.80000000
v -0.07382790 -0.01771431 -0.00091863 1.63529412 2.14117647 1.80000000
v -0.07415649 -0.01749726 -0.00091863 1.63529412 2.14117647 1.80000000
v 0.07687629 -0.01723239 -0.00867030 1.63529412 2.14117647 1.80000000
v -0.07442535 -0.01723047 -0.00091863 1.63529412 2.14117647 1.80000000
v 0.07699578 -0.01706889 -0.00091863 1.63529412 2.14117647 1.80000000
v 0.07687629 -0.01723047 -0.00091863 1.63529412 2.14117647 1.80000000
v 0.07551711 -0.01797057 -0.00091863 1.63529412 2.14117647 1.80000000
v 0.07590546 -0.01787304 -0.00091863 1.63529412 2.14117647 1.80000000
v 0.07659252 -0.01749726 -0.00091863 1.63529412 2.14117647 1.80000000
v 0.07672695 -0.01737294 -0.00091863 1.63529412 2.14117647 1.80000000
f 1 2 3
f 1 3 4
f 1 4 5
f 1 5 6
f 1 6 7
f 1 7 8
f 1 8 9
f 1 9 10
f 1 10 11
f 1 11 12
f 1 12 30
f 1 30 13
f 1 13 14
f 1 14 2
f 2 14 17
f 2 17 3
f 3 15 16
f 3 16 4
f 3 17 34
f 3 34 15
f 4 16 18
f 4 18 19
f 4 19 5
f 5 19 20
f 5 20 6
f 6 20 21
f 6 21 7
f 7 21 22
f 7 22 23
f 7 23 8
f 8 23 24
f 8 24 9
f 9 24 25
f 9 25 10
f 10 25 26
f 10 26 27
f 10 27 28
f 10 28 11
f 11 28 29
f 11 29 12
f 12 29 48
f 12 48 30
f 13 30 31
f 13 31 32
f 13 32 33
f 13 33 17
f 13 17 14
f 15 34 37
f 15 37 16
f 16 35 36
f 16 36 18
f 16 37 57
f 16 57 35
f 17 33 37
f 17 37 34
f 18 36 38
f 18 38 19
f 19 38 39
f 19 39 20
f 20 39 21
f 21 39 40
f 21 40 41
f 21 41 22
f 22 41 23
f 23 41 42
f 23 42 24
f 24 42 43
f 24 43 44
f 24 44 25
f 25 44 26
f 26 45 27
f 26 44 46
f 26 46 67
f 26 67 45
f 27 45 47
f 27 47 28
f 28 47 29
f 29 47 70
f 29 70 104
f 29 104 82
f 29 82 48
f 30 48 31
f 31 49 32
f 31 48 49
f 32 49 50
f 32 50 51
f 32 51 33
f 33 52 37
f 33 51 53
f 33 53 54
f 33 54 52
f 35 55 56
f 35 56 36
f 35 57 92
f 35 92 55
f 36 56 58
f 36 58 38
f 37 52 59
f 37 59 57
f 38 58 39
f 39 60 40
f 39 58 60
f 40 60 61
f 40 61 62
f 40 62 41
f 41 62 42
f 42 62 63
f 42 63 64
f 42 64 43
f 43 64 44
f 44 64 65
f 44 65 66
f 44 66 46
f 45 67 47
f 46 66 68
f 46 68 67
f 47 69 103
f 47 103 70
f 47 67 68
f 47 68 71
f 47 71 72
f 47 72 73
f 47 73 74
f 47 74 75
f 47 75 76
f 47 76 77
f 47 77 78
f 47 78 79
f 47 79 80
f 47 80 81
f 47 81 102
f 47 102 69
f 48 82 49
f 49 82 50
f 50 82 83
f 50 83 51
f 51 83 121
f 51 121 84
f 51 84 85
f 51 85 53
f 52 54 86
f 52 86 59
f 53 85 87
f 53 87 54
f 54 87 86
f 55 88 89
f 55 89 90
f 55 90 91
f 55 91 56
f 55 92 129
f 55 129 88
f 56 91 58
f 57 59 93
f 57 93 92
f 58 94 60
f 58 91 94
f 59 86 93
f 60 94 95
f 60 95 96
f 60 96 61
f 61 96 62
f 62 96 97
f 62 97 98
f 62 98 63
f 63 98 99
f 63 99 64
f 64 99 100
f 64 100 65
f 65 100 66
f 66 71 68
f 66 100 101
f 66 101 72
f 66 72 71
f 69 102 148
f 69 148 103
f 70 103 149
f 70 149 181
f 70 181 219
f 70 219 218
f 70 218 250
f 70 250 249
f 70 249 271
f 70 271 291
f 70 291 267
f 70 267 289
f 70 289 288
f 70 288 287
f 70 287 285
f 70 285 261
f 70 261 286
f 70 286 294
f 70 294 295
f 70 295 278
f 70 278 282
f 70 282 281
f 70 281 296
f 70 296 297
f 70 297 293
f 70 293 292
f 70 292 272
f 70 272 251
f 70 251 220
f 70 220 182
f 70 182 152
f 70 152 150
f 70 150 104
f 72 101 105
f 72 105 73
f 73 105 74
f 74 105 75
f 75 105 106
f 75 106 76
f 76 106 77
f 77 106 78
f 78 107 79
f 78 106 107
f 79 107 80
f 80 107 102
f 80 102 81
f 82 104 150
f 82 150 108
f 82 108 153
f 82 153 109
f 82 109 110
f 82 110 111
f 82 111 112
f 82 112 113
f 82 113 114
f 82 114 115
f 82 115 116
f 82 116 117
f 82 117 118
f 82 118 119
f 82 119 120
f 82 120 121
f 82 121 83
f 84 121 120
f 84 120 122
f 84 122 123
f 84 123 85
f 85 123 87
f 86 87 124
f 86 124 125
f 86 125 126
f 86 126 93
f 87 123 127
f 87 127 128
f 87 128 124
f 88 129 130
f 88 130 89
f 89 130 131
f 89 131 90
f 90 131 166
f 90 166 132
f 90 132 133
f 90 133 134
f 90 134 91
f 91 134 135
f 91 135 136
f 91 136 94
f 92 93 131
f 92 131 130
f 92 130 129
f 93 137 131
f 93 126 138
f 93 138 137
f 94 136 95
f 95 139 96
f 95 136 139
f 96 139 140
f 96 140 141
f 96 141 97
f 97 141 98
f 98 141 142
f 98 142 99
f 99 142 143
f 99 143 144
f 99 144 100
f 100 144 101
f 101 144 105
f 102 107 145
f 102 145 146
f 102 146 147
f 102 147 181
f 102 181 148
f 103 148 149
f 105 151 106
f 105 144 151
f 106 145 107
f 106 151 145
f 108 150 152
f 108 152 153
f 109 153 110
f 110 153 154
f 110 154 111
f 111 154 112
f 112 154 155
f 112 155 113
f 113 155 114
f 114 155 115
f 115 155 156
f 115 156 116
f 116 156 117
f 117 156 157
f 117 157 118
f 118 157 122
f 118 122 119
f 119 122 120
f 122 157 123
f 123 157 158
f 123 158 159
f 123 159 127
f 124 128 125
f 125 128 160
f 125 160 161
f 125 161 138
f 125 138 126
f 127 159 128
f 128 159 162
f 128 162 160
f 131 137 163
f 131 163 164
f 131 164 165
f 131 165 166
f 132 166 165
f 132 165 133
f 133 165 164
f 133 164 134
f 134 164 205
f 134 205 167
f 134 167 168
f 134 168 135
f 135 168 169
f 135 169 170
f 135 170 136
f 136 170 139
f 137 138 163
f 138 171 163
f 138 161 172
f 138 172 171
f 139 173 174
f 139 174 140
f 139 170 173
f 140 174 175
f 140 175 141
f 141 175 142
f 142 175 176
f 142 176 177
f 142 177 143
f 143 177 144
f 144 177 151
f 145 151 177
f 145 177 178
f 145 178 179
f 145 179 146
f 146 180 147
f 146 179 180
f 147 180 181
f 148 181 149
f 152 182 183
f 152 183 153
f 153 183 184
f 153 184 185
f 153 185 186
f 153 186 187
f 153 187 188
f 153 188 189
f 153 189 190
f 153 190 191
f 153 191 192
f 153 192 154
f 154 192 193
f 154 193 155
f 155 194 156
f 155 193 194
f 156 194 157
f 157 194 158
f 158 194 159
f 159 194 195
f 159 195 162
f 160 162 196
f 160 196 197
f 160 197 198
f 160 198 161
f 161 198 199
f 161 199 172
f 162 195 200
f 162 200 201
f 162 201 196
f 163 202 203
f 163 203 164
f 163 171 204
f 163 204 202
f 164 203 205
f 167 205 203
f 167 203 168
f 168 206 207
f 168 207 169
f 168 203 236
f 168 236 206
f 169 207 170
f 170 208 209
f 170 209 173
f 170 207 208
f 171 172 204
f 172 210 204
f 172 199 211
f 172 211 210
f 173 209 174
f 174 212 213
f 174 213 175
f 174 209 212
f 175 213 214
f 175 214 176
f 176 214 177
f 177 214 178
f 178 214 215
f 178 215 179
f 179 216 217
f 179 217 180
f 179 215 216
f 180 217 218
f 180 218 219
f 180 219 181
f 182 220 221
f 182 221 222
f 182 222 183
f 183 222 184
f 184 222 221
f 184 221 223
f 184 223 224
f 184 224 185
f 185 224 225
f 185 225 226
f 185 226 186
f 186 226 227
f 186 227 187
f 187 227 188
f 188 227 228
f 188 228 229
f 188 229 189
f 189 229 190
f 190 229 230
f 190 230 231
f 190 231 191
f 191 231 193
f 191 193 192
f 193 231 195
f 193 195 194
f 195 231 230
f 195 230 200
f 196 201 197
f 197 201 232
f 197 232 233
f 197 233 234
f 197 234 199
f 197 199 198
f 199 234 211
f 200 230 229
f 200 229 201
f 201 229 232
f 202 235 203
f 202 204 235
f 203 235 236
f 204 237 235
f 204 210 238
f 204 238 237
f 206 239 240
f 206 240 207
f 206 236 257
f 206 257 239
f 207 240 208
f 208 241 209
f 208 240 241
f 209 241 242
f 209 242 243
f 209 243 212
f 210 211 238
f 211 234 244
f 211 244 245
f 211 245 246
f 211 246 238
f 212 243 213
f 213 247 214
f 213 243 247
f 214 247 215
f 215 247 248
f 215 248 216
f 216 218 217
f 216 248 249
f 216 249 250
f 216 250 218
f 220 251 223
f 220 223 221
f 223 251 252
f 223 252 253
f 223 253 224
f 224 253 254
f 224 254 225
f 225 254 255
f 225 255 226
f 226 255 227
f 227 255 233
f 227 233 228
f 228 233 232
f 228 232 229
f 233 255 244
f 233 244 234
f 235 256 257
f 235 257 236
f 235 237 258
f 235 258 256
f 237 238 258
f 238 259 258
f 238 246 260
f 238 260 259
f 239 261 285
f 239 285 262
f 239 262 240
f 239 257 277
f 239 277 286
f 239 286 261
f 240 262 241
f 241 262 285
f 241 285 263
f 241 263 288
f 241 288 264
f 241 264 242
f 242 264 243
f 243 264 265
f 243 265 247
f 244 255 254
f 244 254 245
f 245 266 246
f 245 254 253
f 245 253 266
f 246 266 260
f 247 267 268
f 247 268 269
f 247 269 248
f 247 265 270
f 247 270 267
f 248 269 271
f 248 271 249
f 251 272 252
f 252 272 273
f 252 273 253
f 253 273 274
f 253 274 266
f 256 258 275
f 256 275 276
f 256 276 286
f 256 286 277
f 256 277 257
f 258 278 279
f 258 279 275
f 258 259 278
f 259 280 281
f 259 281 282
f 259 282 278
f 259 260 280
f 260 266 283
f 260 283 284
f 260 284 280
f 263 285 287
f 263 287 288
f 264 288 289
f 264 289 265
f 265 289 267
f 265 267 270
f 266 290 283
f 266 274 290
f 267 291 268
f 268 291 269
f 269 291 271
f 272 292 274
f 272 274 273
f 274 292 293
f 274 293 290
f 275 294 276
f 275 279 295
f 275 295 294
f 276 294 286
f 278 295 279
f 280 284 296
f 280 296 281
f 283 297 284
f 283 290 293
f 283 293 297
f 284 297 296