# https://github.com/mikedh/trimesh
v -0.03181980 0.00723048 0.00858678 2.03529411 1.07058825 1.30588236
v -0.03178584 -0.00782286 0.00858678 2.03529411 1.07058825 1.30588236
v -0.03178584 -0.00782286 0.00856536 2.03529411 1.07058825 1.30588236
v -0.03178584 -0.00821808 -0.00012582 2.03529411 1.07058825 1.30588236
v -0.03178584 -0.00824031 -0.00060690 2.03529411 1.07058825 1.30588236
v -0.03178584 -0.00825513 -0.00091770 2.03529411 1.07058825 1.30588236
v -0.03224445 0.00723048 -0.00021888 2.03529411 1.07058825 1.30588236
v -0.07505763 0.00723048 0.00858678 2.03529411 1.07058825 1.30588236
v -0.03178584 -0.01800498 0.00858678 2.03529411 1.07058825 1.30588236
v -0.03178584 -0.01800498 -0.00091770 2.03529411 1.07058825 1.30588236
v -0.03227844 0.00723048 -0.00091770 2.03529411 1.07058825 1.30588236
v -0.07516380 0.00723048 0.00858306 2.03529411 1.07058825 1.30588236
v -0.07505763 -0.01439850 0.00858678 2.03529411 1.07058825 1.30588236
v -0.07268811 -0.01800498 0.00858678 2.03529411 1.07058825 1.30588236
v -0.07268811 -0.01800498 -0.00091770 2.03529411 1.07058825 1.30588236
v -0.07516380 0.00723048 -0.00091770 2.03529411 1.07058825 1.30588236
v -0.07516380 -0.01439604 0.00858306 2.03529411 1.07058825 1.30588236
v -0.07497270 -0.01584357 0.00858678 2.03529411 1.07058825 1.30588236
v -0.07277301 -0.01799757 0.00858678 2.03529411 1.07058825 1.30588236
v -0.07288767 -0.01798770 -0.00003555 2.03529411 1.07058825 1.30588236
v -0.07308303 -0.01797039 -0.00091770 2.03529411 1.07058825 1.30588236
v -0.07516380 -0.01439604 -0.00091770 2.03529411 1.07058825 1.30588236
v -0.07493874 -0.01621902 0.00858678 2.03529411 1.07058825 1.30588236
v -0.07494723 -0.01613751 0.00858678 2.03529411 1.07058825 1.30588236
v -0.07308303 -0.01797039 0.00858678 2.03529411 1.07058825 1.30588236
v -0.07316796 -0.01795065 0.00858678 2.03529411 1.07058825 1.30588236
v -0.07326561 -0.01792593 -0.00091770 2.03529411 1.07058825 1.30588236
v -0.07493874 -0.01621902 -0.00091770 2.03529411 1.07058825 1.30588236
v -0.07491750 -0.01629807 0.00858678 2.03529411 1.07058825 1.30588236
v -0.07346946 -0.01787406 0.00858678 2.03529411 1.07058825 1.30588236
v -0.07346946 -0.01787406 -0.00091770 2.03529411 1.07058825 1.30588236
v -0.07489203 -0.01638948 -0.00091770 2.03529411 1.07058825 1.30588236
v -0.07483683 -0.01658214 0.00858678 2.03529411 1.07058825 1.30588236
v -0.07375398 -0.01774809 0.00858678 2.03529411 1.07058825 1.30588236
v -0.07366053 -0.01779006 -0.00091770 2.03529411 1.07058825 1.30588236
v -0.07483683 -0.01658214 -0.00091770 2.03529411 1.07058825 1.30588236
v -0.07470519 -0.01684893 0.00858678 2.03529411 1.07058825 1.30588236
v -0.07383039 -0.01771350 0.00858678 2.03529411 1.07058825 1.30588236
v -0.07383039 -0.01771350 -0.00091770 2.03529411 1.07058825 1.30588236
v -0.07474764 -0.01676247 -0.00091770 2.03529411 1.07058825 1.30588236
v -0.07466697 -0.01692303 0.00858678 2.03529411 1.07058825 1.30588236
v -0.07466697 -0.01692303 -0.00091770 2.03529411 1.07058825 1.30588236
v -0.07390260 -0.01766655 0.00858678 2.03529411 1.07058825 1.30588236
v -0.07400451 -0.01759986 -0.00091770 2.03529411 1.07058825 1.30588236
v -0.07456080 -0.01706877 -0.00091770 2.03529411 1.07058825 1.30588236
v -0.07448862 -0.01716510 0.00858678 2.03529411 1.07058825 1.30588236
v -0.07415739 -0.01749858 0.00858678 2.03529411 1.07058825 1.30588236
v -0.07415739 -0.01749858 -0.00091770 2.03529411 1.07058825 1.30588236
v -0.07454805 -0.01708608 -0.00091770 2.03529411 1.07058825 1.30588236
v -0.07443765 -0.01723182 0.00858678 2.03529411 1.07058825 1.30588236
v -0.07443765 -0.01723182 -0.00091770 2.03529411 1.07058825 1.30588236
v -0.07437819 -0.01728861 0.00858678 2.03529411 1.07058825 1.30588236
v -0.07430601 -0.01735779 -0.00091770 2.03529411 1.07058825 1.30588236
f 1 2 3
f 1 3 4
f 1 4 5
f 1 5 6
f 1 6 7
f 1 7 11
f 1 11 16
f 1 16 12
f 1 12 8
f 1 8 13
f 1 13 18
f 1 18 24
f 1 24 23
f 1 23 29
f 1 29 33
f 1 33 37
f 1 37 41
f 1 41 46
f 1 46 50
f 1 50 52
f 1 52 47
f 1 47 43
f 1 43 38
f 1 38 34
f 1 34 30
f 1 30 26
f 1 26 25
f 1 25 19
f 1 19 14
f 1 14 9
f 1 9 2
f 2 9 10
f 2 10 6
f 2 6 5
f 2 5 4
f 2 4 3
f 6 10 15
f 6 15 21
f 6 21 27
f 6 27 31
f 6 31 35
f 6 35 39
f 6 39 44
f 6 44 48
f 6 48 53
f 6 53 51
f 6 51 49
f 6 49 45
f 6 45 42
f 6 42 40
f 6 40 36
f 6 36 32
f 6 32 28
f 6 28 22
f 6 22 16
f 6 16 11
f 6 11 7
f 8 12 17
f 8 17 13
f 9 14 15
f 9 15 10
f 12 16 22
f 12 22 17
f 13 17 18
f 14 19 20
f 14 20 15
f 15 20 21
f 17 22 28
f 17 28 23
f 17 23 24
f 17 24 18
f 19 25 20
f 20 25 21
f 21 26 27
f 21 25 26
f 23 28 29
f 26 30 27
f 27 30 31
f 28 32 29
f 29 32 33
f 30 34 35
f 30 35 31
f 32 36 33
f 33 36 37
f 34 38 39
f 34 39 35
f 36 40 37
f 37 40 42
f 37 42 41
f 38 43 39
f 39 43 44
f 41 42 45
f 41 45 49
f 41 49 46
f 43 47 44
f 44 47 48
f 46 49 51
f 46 51 50
f 47 52 53
f 47 53 48
f 50 53 52
f 50 51 53