# https://github.com/mikedh/trimesh
v 0.07753350 0.01439667 -0.00091773 1.14117648 2.36470587 1.57647060
v 0.07753350 0.01439667 -0.00865905 1.14117648 2.36470587 1.57647060
v 0.07753350 -0.01439667 -0.00091773 1.14117648 2.36470587 1.57647060
v 0.07971270 0.01430931 0.00849981 1.14117648 2.36470587 1.57647060
v 0.08641023 0.00682911 -0.00830799 1.14117648 2.36470587 1.57647060
v 0.07753350 -0.01439667 -0.00865905 1.14117648 2.36470587 1.57647060
v 0.07971270 0.01430931 -0.00091605 1.14117648 2.36470587 1.57647060
v 0.11333427 0.01291980 -0.00091605 1.14117648 2.36470587 1.57647060
v 0.11333799 0.01291698 -0.00724146 1.14117648 2.36470587 1.57647060
v 0.07971270 -0.01430931 0.00849645 1.14117648 2.36470587 1.57647060
v 0.07971270 -0.01425012 0.00849981 1.14117648 2.36470587 1.57647060
v 0.09538368 0.01366107 0.00788004 1.14117648 2.36470587 1.57647060
v 0.11333427 0.01291980 0.00716955 1.14117648 2.36470587 1.57647060
v 0.08641023 -0.00757038 -0.00830799 1.14117648 2.36470587 1.57647060
v 0.11333427 -0.01291980 -0.00091605 1.14117648 2.36470587 1.57647060
v 0.07971270 -0.01430931 -0.00091605 1.14117648 2.36470587 1.57647060
v 0.11333799 -0.01291698 -0.00724146 1.14117648 2.36470587 1.57647060
v 0.11344212 0.01291134 -0.00091605 1.14117648 2.36470587 1.57647060
v 0.11353137 0.01290291 -0.00722634 1.14117648 2.36470587 1.57647060
v 0.11333427 -0.01291980 0.00716955 1.14117648 2.36470587 1.57647060
v 0.09538368 -0.01366107 0.00788004 1.14117648 2.36470587 1.57647060
v 0.11352765 0.01290291 0.00715443 1.14117648 2.36470587 1.57647060
v 0.11353137 -0.01290291 -0.00722634 1.14117648 2.36470587 1.57647060
v 0.11344212 -0.01291134 -0.00091605 1.14117648 2.36470587 1.57647060
v 0.11353137 0.01290291 -0.00091773 1.14117648 2.36470587 1.57647060
v 0.11363550 0.01288599 -0.00091773 1.14117648 2.36470587 1.57647060
v 0.11372103 0.01287189 -0.00719610 1.14117648 2.36470587 1.57647060
v 0.11352765 -0.01290291 0.00715443 1.14117648 2.36470587 1.57647060
v 0.11372103 0.01287189 0.00712422 1.14117648 2.36470587 1.57647060
v 0.11372103 -0.01287189 -0.00719610 1.14117648 2.36470587 1.57647060
v 0.11363550 -0.01288599 -0.00091773 1.14117648 2.36470587 1.57647060
v 0.11353137 -0.01290291 -0.00091773 1.14117648 2.36470587 1.57647060
v 0.11363550 0.01288599 -0.00091605 1.14117648 2.36470587 1.57647060
v 0.11390697 0.01282680 -0.00091605 1.14117648 2.36470587 1.57647060
v 0.11390697 0.01282398 -0.00715242 1.14117648 2.36470587 1.57647060
v 0.11372103 -0.01287189 0.00712422 1.14117648 2.36470587 1.57647060
v 0.11390697 0.01282680 0.00708054 1.14117648 2.36470587 1.57647060
v 0.11390697 -0.01282398 -0.00715242 1.14117648 2.36470587 1.57647060
v 0.11390697 -0.01282680 -0.00091605 1.14117648 2.36470587 1.57647060
v 0.11380284 -0.01285218 -0.00091773 1.14117648 2.36470587 1.57647060
v 0.11363550 -0.01288599 -0.00091605 1.14117648 2.36470587 1.57647060
v 0.11409291 0.01276479 -0.00709365 1.14117648 2.36470587 1.57647060
v 0.11390697 -0.01282680 0.00708054 1.14117648 2.36470587 1.57647060
v 0.11408919 0.01276479 0.00702177 1.14117648 2.36470587 1.57647060
v 0.11409291 0.01276479 -0.00091773 1.14117648 2.36470587 1.57647060
v 0.11409291 -0.01276479 -0.00709365 1.14117648 2.36470587 1.57647060
v 0.11426769 0.01268871 -0.00702141 1.14117648 2.36470587 1.57647060
v 0.11409291 -0.01276479 -0.00091773 1.14117648 2.36470587 1.57647060
v 0.11408919 -0.01276479 0.00702177 1.14117648 2.36470587 1.57647060
v 0.11426769 0.01268871 0.00694953 1.14117648 2.36470587 1.57647060
v 0.11426769 -0.01268871 -0.00702141 1.14117648 2.36470587 1.57647060
v 0.11443875 0.01259850 -0.00693576 1.14117648 2.36470587 1.57647060
v 0.11426769 -0.01268871 0.00694953 1.14117648 2.36470587 1.57647060
v 0.11443503 0.01259850 0.00686388 1.14117648 2.36470587 1.57647060
v 0.11443875 0.01259850 -0.00091773 1.14117648 2.36470587 1.57647060
v 0.11443875 -0.01259850 -0.00693576 1.14117648 2.36470587 1.57647060
v 0.11459865 0.01249704 -0.00683835 1.14117648 2.36470587 1.57647060
v 0.11443875 -0.01259850 -0.00091773 1.14117648 2.36470587 1.57647060
v 0.11443503 -0.01259850 0.00686388 1.14117648 2.36470587 1.57647060
v 0.11451684 -0.00004791 0.00681516 1.14117648 2.36470587 1.57647060
v 0.11459865 0.01249704 0.00676479 1.14117648 2.36470587 1.57647060
v 0.11459865 -0.01249704 -0.00683835 1.14117648 2.36470587 1.57647060
v 0.11474739 0.01238148 -0.00672750 1.14117648 2.36470587 1.57647060
v 0.11459865 -0.01249704 0.00676479 1.14117648 2.36470587 1.57647060
v 0.11474739 0.01238148 0.00665391 1.14117648 2.36470587 1.57647060
v 0.11474739 -0.01238148 -0.00672750 1.14117648 2.36470587 1.57647060
v 0.11501514 0.01211655 -0.00647388 1.14117648 2.36470587 1.57647060
v 0.11474739 -0.01238148 0.00665391 1.14117648 2.36470587 1.57647060
v 0.11488128 0.00012966 0.00652794 1.14117648 2.36470587 1.57647060
v 0.11501514 0.01211655 0.00640029 1.14117648 2.36470587 1.57647060
v 0.11501514 -0.01211655 -0.00647388 1.14117648 2.36470587 1.57647060
v 0.11490360 -0.01222929 -0.00091773 1.14117648 2.36470587 1.57647060
v 0.11523456 0.01181214 -0.00618162 1.14117648 2.36470587 1.57647060
v 0.11490360 -0.01222929 -0.00091605 1.14117648 2.36470587 1.57647060
v 0.11501514 -0.01211655 0.00640029 1.14117648 2.36470587 1.57647060
v 0.11512299 0.00014937 0.00625587 1.14117648 2.36470587 1.57647060
v 0.11523084 0.01181214 0.00610974 1.14117648 2.36470587 1.57647060
v 0.11523456 0.01181214 -0.00091773 1.14117648 2.36470587 1.57647060
v 0.11514159 -0.01194180 -0.00091605 1.14117648 2.36470587 1.57647060
v 0.11523456 -0.01181214 -0.00618162 1.14117648 2.36470587 1.57647060
v 0.11539077 0.01147959 -0.00586248 1.14117648 2.36470587 1.57647060
v 0.11523456 -0.01181214 -0.00091773 1.14117648 2.36470587 1.57647060
v 0.11523084 -0.01181214 0.00610974 1.14117648 2.36470587 1.57647060
v 0.11531265 0.00016347 0.00595017 1.14117648 2.36470587 1.57647060
v 0.11539077 0.01147959 0.00579060 1.14117648 2.36470587 1.57647060
v 0.11539077 -0.01147959 -0.00586248 1.14117648 2.36470587 1.57647060
v 0.11532753 -0.01161768 -0.00091773 1.14117648 2.36470587 1.57647060
v 0.11543538 0.01132455 -0.00091773 1.14117648 2.36470587 1.57647060
v 0.11549118 0.01112445 -0.00552321 1.14117648 2.36470587 1.57647060
v 0.11544282 -0.00017475 -0.00569286 1.14117648 2.36470587 1.57647060
v 0.11532753 -0.01161768 -0.00091605 1.14117648 2.36470587 1.57647060
v 0.11539077 -0.01147959 0.00579060 1.14117648 2.36470587 1.57647060
v 0.11548746 0.01112727 0.00545133 1.14117648 2.36470587 1.57647060
v 0.11549118 0.01112445 -0.00091773 1.14117648 2.36470587 1.57647060
v 0.11549118 -0.01112445 -0.00552321 1.14117648 2.36470587 1.57647060
v 0.11552463 0.01076088 -0.00091605 1.14117648 2.36470587 1.57647060
v 0.11551719 0.01076088 -0.00517386 1.14117648 2.36470587 1.57647060
v 0.11549118 -0.01112445 -0.00091773 1.14117648 2.36470587 1.57647060
v 0.11548746 -0.01112727 0.00545133 1.14117648 2.36470587 1.57647060
v 0.11552463 0.01076088 0.00510198 1.14117648 2.36470587 1.57647060
v 0.11551719 -0.01076088 -0.00517386 1.14117648 2.36470587 1.57647060
v 0.11552463 -0.01076088 -0.00091605 1.14117648 2.36470587 1.57647060
v 0.11552463 -0.01076088 0.00510198 1.14117648 2.36470587 1.57647060
f 1 2 6
f 1 6 3
f 1 3 11
f 1 11 4
f 1 4 7
f 1 7 2
f 2 5 14
f 2 14 6
f 2 7 8
f 2 8 9
f 2 9 5
f 3 10 11
f 3 6 16
f 3 16 10
f 4 11 21
f 4 21 12
f 4 12 13
f 4 13 8
f 4 8 7
f 5 9 17
f 5 17 14
f 6 15 16
f 6 14 17
f 6 17 15
f 8 13 18
f 8 18 19
f 8 19 9
f 9 19 23
f 9 23 17
f 10 20 21
f 10 21 11
f 10 16 15
f 10 15 20
f 12 21 20
f 12 20 13
f 13 20 28
f 13 28 22
f 13 22 18
f 15 17 23
f 15 23 24
f 15 24 20
f 18 22 25
f 18 25 19
f 19 25 33
f 19 33 26
f 19 26 27
f 19 27 30
f 19 30 23
f 20 24 28
f 22 28 36
f 22 36 29
f 22 29 25
f 23 30 31
f 23 31 41
f 23 41 32
f 23 32 24
f 24 32 28
f 25 29 33
f 26 33 29
f 26 29 27
f 27 29 37
f 27 37 34
f 27 34 35
f 27 35 38
f 27 38 30
f 28 32 36
f 29 36 43
f 29 43 37
f 30 38 39
f 30 39 40
f 30 40 36
f 30 36 41
f 30 41 31
f 32 41 36
f 34 37 45
f 34 45 42
f 34 42 35
f 35 42 46
f 35 46 38
f 36 40 43
f 37 43 49
f 37 49 44
f 37 44 45
f 38 46 39
f 39 46 48
f 39 48 43
f 39 43 40
f 42 45 50
f 42 50 47
f 42 47 51
f 42 51 46
f 43 48 49
f 44 49 53
f 44 53 50
f 44 50 45
f 46 51 53
f 46 53 48
f 47 50 55
f 47 55 52
f 47 52 56
f 47 56 51
f 48 53 49
f 50 53 59
f 50 59 54
f 50 54 55
f 51 56 58
f 51 58 53
f 52 55 61
f 52 61 57
f 52 57 62
f 52 62 56
f 53 58 59
f 54 59 60
f 54 60 61
f 54 61 55
f 56 62 64
f 56 64 58
f 57 61 65
f 57 65 63
f 57 63 66
f 57 66 62
f 58 64 59
f 59 64 60
f 60 64 61
f 61 64 68
f 61 68 65
f 62 66 68
f 62 68 64
f 63 65 70
f 63 70 67
f 63 67 71
f 63 71 66
f 65 69 70
f 65 68 69
f 66 71 72
f 66 72 74
f 66 74 68
f 67 70 78
f 67 78 73
f 67 73 80
f 67 80 71
f 68 74 75
f 68 75 69
f 69 75 70
f 70 75 76
f 70 76 77
f 70 77 78
f 71 79 75
f 71 75 74
f 71 74 72
f 71 80 79
f 73 78 85
f 73 85 81
f 73 81 86
f 73 86 80
f 75 79 82
f 75 82 83
f 75 83 76
f 76 83 77
f 77 83 84
f 77 84 85
f 77 85 78
f 79 80 82
f 80 86 87
f 80 87 91
f 80 91 82
f 81 85 88
f 81 88 89
f 81 89 90
f 81 90 86
f 82 91 92
f 82 92 83
f 83 92 84
f 84 92 85
f 85 92 99
f 85 99 93
f 85 93 94
f 85 94 88
f 86 92 91
f 86 91 87
f 86 90 95
f 86 95 98
f 86 98 92
f 88 94 89
f 89 94 100
f 89 100 96
f 89 96 97
f 89 97 101
f 89 101 95
f 89 95 90
f 92 98 99
f 93 99 103
f 93 103 100
f 93 100 94
f 95 101 102
f 95 102 103
f 95 103 98
f 96 100 103
f 96 103 102
f 96 102 101
f 96 101 97
f 98 103 99