# https://github.com/mikedh/trimesh
v -0.07497303 0.00825141 -0.00866934 2.82352941 1.56470589 1.23529413
v -0.07516380 0.00723048 -0.00091626 2.82352941 1.56470589 1.23529413
v -0.07505157 0.00825141 -0.00865920 2.82352941 1.56470589 1.23529413
v -0.07497303 0.01584396 -0.00866934 2.82352941 1.56470589 1.23529413
v -0.03265362 0.00825141 -0.00866934 2.82352941 1.56470589 1.23529413
v -0.07516380 0.00723048 0.00858171 2.82352941 1.56470589 1.23529413
v -0.07516380 0.01439484 -0.00091626 2.82352941 1.56470589 1.23529413
v -0.03228330 0.00723048 -0.00091626 2.82352941 1.56470589 1.23529413
v -0.07505157 0.01440012 -0.00865920 2.82352941 1.56470589 1.23529413
v -0.07494498 0.01613820 -0.00866934 2.82352941 1.56470589 1.23529413
v -0.01784016 0.00861105 -0.00866934 2.82352941 1.56470589 1.23529413
v -0.07516380 0.01432947 0.00858171 2.82352941 1.56470589 1.23529413
v -0.07505157 0.00723048 0.00858678 2.82352941 1.56470589 1.23529413
v -0.07516380 0.01439484 0.00858003 2.82352941 1.56470589 1.23529413
v -0.01784016 0.00825666 -0.00091626 2.82352941 1.56470589 1.23529413
v -0.01784016 0.00782427 0.00858678 2.82352941 1.56470589 1.23529413
v -0.03223842 0.00723048 -0.00012573 2.82352941 1.56470589 1.23529413
v -0.07493376 0.01621836 0.00858678 2.82352941 1.56470589 1.23529413
v -0.07493376 0.01621941 -0.00091794 2.82352941 1.56470589 1.23529413
v -0.07493376 0.01621941 -0.00866934 2.82352941 1.56470589 1.23529413
v -0.01784016 0.01800498 -0.00866934 2.82352941 1.56470589 1.23529413
v -0.07505157 0.01439907 0.00858678 2.82352941 1.56470589 1.23529413
v -0.07497303 0.01584396 0.00858678 2.82352941 1.56470589 1.23529413
v -0.03182319 0.00723048 0.00858678 2.82352941 1.56470589 1.23529413
v -0.01784016 0.01800393 0.00858678 2.82352941 1.56470589 1.23529413
v -0.07491690 0.01629747 0.00858678 2.82352941 1.56470589 1.23529413
v -0.07491690 0.01629747 -0.00866934 2.82352941 1.56470589 1.23529413
v -0.01784016 0.01800498 -0.00091794 2.82352941 1.56470589 1.23529413
v -0.07268928 0.01800498 -0.00866934 2.82352941 1.56470589 1.23529413
v -0.07268928 0.01800393 0.00858678 2.82352941 1.56470589 1.23529413
v -0.07483275 0.01658328 0.00858678 2.82352941 1.56470589 1.23529413
v -0.07488885 0.01640082 -0.00003621 2.82352941 1.56470589 1.23529413
v -0.07483275 0.01658328 -0.00866934 2.82352941 1.56470589 1.23529413
v -0.07268928 0.01800498 -0.00091794 2.82352941 1.56470589 1.23529413
v -0.07299228 0.01797861 -0.00866934 2.82352941 1.56470589 1.23529413
v -0.07308207 0.01797123 -0.00091626 2.82352941 1.56470589 1.23529413
v -0.07299789 0.01797861 0.00858678 2.82352941 1.56470589 1.23529413
v -0.07277346 0.01799760 0.00858678 2.82352941 1.56470589 1.23529413
v -0.07479909 0.01665501 0.00858678 2.82352941 1.56470589 1.23529413
v -0.07479909 0.01665606 -0.00866934 2.82352941 1.56470589 1.23529413
v -0.07307646 0.01797123 -0.00866934 2.82352941 1.56470589 1.23529413
v -0.07326723 0.01792587 -0.00091626 2.82352941 1.56470589 1.23529413
v -0.07308207 0.01797123 0.00858678 2.82352941 1.56470589 1.23529413
v -0.07470369 0.01684905 0.00858678 2.82352941 1.56470589 1.23529413
v -0.07466442 0.01692393 -0.00866934 2.82352941 1.56470589 1.23529413
v -0.07316061 0.01795014 -0.00866934 2.82352941 1.56470589 1.23529413
v -0.07346361 0.01787313 -0.00866934 2.82352941 1.56470589 1.23529413
v -0.07346922 0.01787421 -0.00091626 2.82352941 1.56470589 1.23529413
v -0.07346922 0.01787421 0.00858678 2.82352941 1.56470589 1.23529413
v -0.07466442 0.01692393 0.00858678 2.82352941 1.56470589 1.23529413
v -0.07461951 0.01699038 0.00858678 2.82352941 1.56470589 1.23529413
v -0.07443996 0.01723296 -0.00091626 2.82352941 1.56470589 1.23529413
v -0.07448484 0.01716546 -0.00866934 2.82352941 1.56470589 1.23529413
v -0.07374978 0.01774869 -0.00866934 2.82352941 1.56470589 1.23529413
v -0.07364880 0.01779510 -0.00003621 2.82352941 1.56470589 1.23529413
v -0.07354779 0.01783941 0.00858678 2.82352941 1.56470589 1.23529413
v -0.07443996 0.01723296 0.00858678 2.82352941 1.56470589 1.23529413
v -0.07430529 0.01735848 -0.00091794 2.82352941 1.56470589 1.23529413
v -0.07415379 0.01749873 -0.00866934 2.82352941 1.56470589 1.23529413
v -0.07421553 0.01744074 -0.00866934 2.82352941 1.56470589 1.23529413
v -0.07443435 0.01723191 -0.00866934 2.82352941 1.56470589 1.23529413
v -0.07382835 0.01771389 -0.00866934 2.82352941 1.56470589 1.23529413
v -0.07382835 0.01771494 -0.00091626 2.82352941 1.56470589 1.23529413
v -0.07382835 0.01771494 0.00858678 2.82352941 1.56470589 1.23529413
v -0.07421553 0.01744179 0.00858678 2.82352941 1.56470589 1.23529413
v -0.07415379 0.01749873 0.00858678 2.82352941 1.56470589 1.23529413
v -0.07408647 0.01754514 0.00858678 2.82352941 1.56470589 1.23529413
v -0.07398546 0.01761369 -0.00091626 2.82352941 1.56470589 1.23529413
v -0.07390128 0.01766853 0.00858678 2.82352941 1.56470589 1.23529413
f 1 2 3
f 1 3 9
f 1 9 4
f 1 4 10
f 1 10 20
f 1 20 27
f 1 27 33
f 1 33 40
f 1 40 45
f 1 45 53
f 1 53 61
f 1 61 60
f 1 60 59
f 1 59 62
f 1 62 54
f 1 54 47
f 1 47 46
f 1 46 41
f 1 41 35
f 1 35 29
f 1 29 21
f 1 21 11
f 1 11 5
f 1 5 8
f 1 8 2
f 2 6 12
f 2 12 14
f 2 14 7
f 2 7 9
f 2 9 3
f 2 8 17
f 2 17 24
f 2 24 13
f 2 13 6
f 4 9 7
f 4 7 10
f 5 11 8
f 6 13 22
f 6 22 12
f 7 14 10
f 8 11 15
f 8 15 16
f 8 16 17
f 10 18 19
f 10 19 20
f 10 14 18
f 11 21 28
f 11 28 25
f 11 25 16
f 11 16 15
f 12 22 23
f 12 23 18
f 12 18 14
f 13 24 16
f 13 16 25
f 13 25 30
f 13 30 38
f 13 38 37
f 13 37 43
f 13 43 49
f 13 49 56
f 13 56 64
f 13 64 69
f 13 69 67
f 13 67 66
f 13 66 65
f 13 65 57
f 13 57 51
f 13 51 50
f 13 50 44
f 13 44 39
f 13 39 31
f 13 31 26
f 13 26 18
f 13 18 23
f 13 23 22
f 16 24 17
f 18 26 19
f 19 26 27
f 19 27 20
f 21 29 34
f 21 34 28
f 25 28 34
f 25 34 30
f 26 31 32
f 26 32 27
f 27 32 33
f 29 35 36
f 29 36 37
f 29 37 34
f 30 34 38
f 31 39 40
f 31 40 33
f 31 33 32
f 34 37 38
f 35 41 36
f 36 42 43
f 36 43 37
f 36 41 42
f 39 44 40
f 40 44 45
f 41 46 42
f 42 46 47
f 42 47 48
f 42 48 49
f 42 49 43
f 44 50 45
f 45 50 51
f 45 51 52
f 45 52 53
f 47 54 48
f 48 54 55
f 48 55 49
f 49 55 56
f 51 57 52
f 52 57 58
f 52 58 59
f 52 59 60
f 52 60 61
f 52 61 53
f 54 62 55
f 55 62 63
f 55 63 64
f 55 64 56
f 57 65 58
f 58 65 59
f 59 65 66
f 59 66 67
f 59 67 68
f 59 68 62
f 62 68 63
f 63 68 69
f 63 69 64
f 67 69 68