# https://github.com/mikedh/trimesh
v -0.03227616 0.00825102 -0.00091863 1.69411764 0.04705881 1.84705881
v -0.03227616 -0.00823575 -0.00091863 1.69411764 0.04705881 1.84705881
v -0.03263208 -0.00823575 -0.00828165 1.69411764 0.04705881 1.84705881
v -0.03265302 0.00825102 -0.00866934 1.69411764 0.04705881 1.84705881
v -0.07505265 0.00825102 -0.00091863 1.69411764 0.04705881 1.84705881
v -0.07505265 -0.00823575 -0.00091863 1.69411764 0.04705881 1.84705881
v -0.03265302 -0.00823575 -0.00866934 1.69411764 0.04705881 1.84705881
v -0.07497309 0.00825102 -0.00866934 1.69411764 0.04705881 1.84705881
v -0.07505265 0.00825102 -0.00866025 1.69411764 0.04705881 1.84705881
v -0.07505265 -0.00823575 -0.00866025 1.69411764 0.04705881 1.84705881
v -0.07497309 -0.00823575 -0.00866934 1.69411764 0.04705881 1.84705881
f 1 2 3
f 1 3 4
f 1 4 8
f 1 8 9
f 1 9 5
f 1 5 6
f 1 6 2
f 2 6 10
f 2 10 11
f 2 11 7
f 2 7 3
f 3 7 4
f 4 7 11
f 4 11 8
f 5 9 10
f 5 10 6
f 8 11 10
f 8 10 9