# https://github.com/mikedh/trimesh
v 0.07970769 -0.00777483 0.00849933 2.01176472 0.62352942 0.37647060
v 0.07970769 -0.00777483 -0.00091770 2.01176472 0.62352942 0.37647060
v 0.07749231 -0.00777483 0.00858678 2.01176472 0.62352942 0.37647060
v 0.07970769 -0.01425078 0.00849933 2.01176472 0.62352942 0.37647060
v 0.07970769 -0.01430886 -0.00091770 2.01176472 0.62352942 0.37647060
v -0.00337350 -0.00777483 -0.00091770 2.01176472 0.62352942 0.37647060
v 0.07749231 -0.01439898 0.00858678 2.01176472 0.62352942 0.37647060
v -0.00383187 -0.00777483 0.00858678 2.01176472 0.62352942 0.37647060
v 0.07970769 -0.01430886 0.00849654 2.01176472 0.62352942 0.37647060
v 0.07741593 -0.01592409 0.00858678 2.01176472 0.62352942 0.37647060
v 0.07739412 -0.01613841 0.00858678 2.01176472 0.62352942 0.37647060
v 0.07738320 -0.01621851 0.00858678 2.01176472 0.62352942 0.37647060
v 0.07727406 -0.01658202 0.00858678 2.01176472 0.62352942 0.37647060
v 0.07711038 -0.01692348 0.00858678 2.01176472 0.62352942 0.37647060
v 0.07688118 -0.01723191 -0.00091770 2.01176472 0.62352942 0.37647060
v -0.03178023 -0.00825750 -0.00091770 2.01176472 0.62352942 0.37647060
v -0.03178023 -0.00782490 0.00856446 2.01176472 0.62352942 0.37647060
v -0.03178023 -0.00782490 0.00858678 2.01176472 0.62352942 0.37647060
v 0.07693575 -0.01716483 0.00858678 2.01176472 0.62352942 0.37647060
v 0.07688118 -0.01723191 0.00858678 2.01176472 0.62352942 0.37647060
v 0.07673931 -0.01736610 -0.00003480 2.01176472 0.62352942 0.37647060
v 0.07659744 -0.01749828 -0.00091770 2.01176472 0.62352942 0.37647060
v -0.03178023 -0.01800498 -0.00091770 2.01176472 0.62352942 0.37647060
v -0.03178023 -0.01800498 0.00858678 2.01176472 0.62352942 0.37647060
v 0.07659744 -0.01749828 0.00858678 2.01176472 0.62352942 0.37647060
v 0.07643376 -0.01760742 -0.00003480 2.01176472 0.62352942 0.37647060
v 0.07627005 -0.01771458 -0.00091770 2.01176472 0.62352942 0.37647060
v 0.07512420 -0.01800498 -0.00091770 2.01176472 0.62352942 0.37647060
v 0.07512420 -0.01800498 0.00858678 2.01176472 0.62352942 0.37647060
v 0.07627005 -0.01771458 0.00858678 2.01176472 0.62352942 0.37647060
v 0.07608453 -0.01779969 -0.00091770 2.01176472 0.62352942 0.37647060
v 0.07552797 -0.01797192 -0.00091770 2.01176472 0.62352942 0.37647060
v 0.07552797 -0.01797192 0.00858678 2.01176472 0.62352942 0.37647060
v 0.07619367 -0.01774962 0.00858678 2.01176472 0.62352942 0.37647060
v 0.07590993 -0.01787379 0.00858678 2.01176472 0.62352942 0.37647060
v 0.07590993 -0.01787379 -0.00091770 2.01176472 0.62352942 0.37647060
v 0.07571349 -0.01792488 -0.00091770 2.01176472 0.62352942 0.37647060
f 1 2 6
f 1 6 8
f 1 8 3
f 1 3 7
f 1 7 4
f 1 4 9
f 1 9 5
f 1 5 2
f 2 5 15
f 2 15 22
f 2 22 27
f 2 27 31
f 2 31 36
f 2 36 37
f 2 37 32
f 2 32 28
f 2 28 23
f 2 23 16
f 2 16 6
f 3 8 18
f 3 18 24
f 3 24 29
f 3 29 33
f 3 33 35
f 3 35 34
f 3 34 30
f 3 30 25
f 3 25 20
f 3 20 19
f 3 19 14
f 3 14 13
f 3 13 12
f 3 12 11
f 3 11 10
f 3 10 7
f 4 7 10
f 4 10 11
f 4 11 12
f 4 12 13
f 4 13 14
f 4 14 9
f 5 9 20
f 5 20 15
f 6 16 17
f 6 17 8
f 8 17 18
f 9 14 19
f 9 19 20
f 15 20 21
f 15 21 22
f 16 23 24
f 16 24 18
f 16 18 17
f 20 25 21
f 21 25 22
f 22 25 26
f 22 26 27
f 23 28 29
f 23 29 24
f 25 30 26
f 26 30 27
f 27 30 34
f 27 34 31
f 28 32 33
f 28 33 29
f 31 34 35
f 31 35 36
f 32 37 33
f 33 37 35
f 35 37 36