# https://github.com/mikedh/trimesh
v 0.07513419 0.01800498 -0.00091863 1.69411764 2.77647060 0.21176472
v 0.07552629 0.01797156 -0.00091863 1.69411764 2.77647060 0.21176472
v 0.07544229 0.01797921 -0.00866934 1.69411764 2.77647060 0.21176472
v 0.07513419 0.01800498 -0.00866934 1.69411764 2.77647060 0.21176472
v -0.01784016 0.01800498 -0.00091863 1.69411764 2.77647060 0.21176472
v 0.07552629 0.01797156 -0.00866934 1.69411764 2.77647060 0.21176472
v 0.07571301 0.01792572 -0.00091863 1.69411764 2.77647060 0.21176472
v -0.01784016 0.01800498 -0.00866934 1.69411764 2.77647060 0.21176472
v -0.01784016 0.00825675 -0.00091863 1.69411764 2.77647060 0.21176472
v 0.07583439 0.01789518 -0.00866934 1.69411764 2.77647060 0.21176472
v 0.07591839 0.01787418 -0.00091863 1.69411764 2.77647060 0.21176472
v 0.07591839 0.01787418 -0.00866934 1.69411764 2.77647060 0.21176472
v -0.01784016 0.00861003 -0.00866934 1.69411764 2.77647060 0.21176472
v -0.00336981 0.00825102 -0.00091863 1.69411764 2.77647060 0.21176472
v -0.00299637 0.00825102 -0.00866934 1.69411764 2.77647060 0.21176472
v -0.00301506 0.00825102 -0.00829758 1.69411764 2.77647060 0.21176472
v 0.07608645 0.01779969 -0.00091863 1.69411764 2.77647060 0.21176472
v 0.07619847 0.01774911 -0.00866934 1.69411764 2.77647060 0.21176472
v 0.07753347 0.00825102 -0.00091863 1.69411764 2.77647060 0.21176472
v 0.07742145 0.00825102 -0.00866934 1.69411764 2.77647060 0.21176472
v 0.07627317 0.01771473 -0.00091863 1.69411764 2.77647060 0.21176472
v 0.07627317 0.01771473 -0.00866934 1.69411764 2.77647060 0.21176472
v 0.07753347 0.00825102 -0.00865872 1.69411764 2.77647060 0.21176472
v 0.07753347 0.01439880 -0.00091863 1.69411764 2.77647060 0.21176472
v 0.07742145 0.01584432 -0.00866934 1.69411764 2.77647060 0.21176472
v 0.07634784 0.01766889 -0.00866934 1.69411764 2.77647060 0.21176472
v 0.07643187 0.01761351 -0.00091863 1.69411764 2.77647060 0.21176472
v 0.07753347 0.01439880 -0.00865872 1.69411764 2.77647060 0.21176472
v 0.07742145 0.01584432 -0.00091863 1.69411764 2.77647060 0.21176472
v 0.07739343 0.01613841 -0.00866934 1.69411764 2.77647060 0.21176472
v 0.07740276 0.01604196 -0.00091863 1.69411764 2.77647060 0.21176472
v 0.07653456 0.01754574 -0.00866934 1.69411764 2.77647060 0.21176472
v 0.07645053 0.01760112 -0.00091863 1.69411764 2.77647060 0.21176472
v 0.07738410 0.01621956 -0.00866934 1.69411764 2.77647060 0.21176472
v 0.07738410 0.01621956 -0.00091863 1.69411764 2.77647060 0.21176472
v 0.07659990 0.01749894 -0.00091863 1.69411764 2.77647060 0.21176472
v 0.07659990 0.01749894 -0.00866934 1.69411764 2.77647060 0.21176472
v 0.07736544 0.01629786 -0.00866934 1.69411764 2.77647060 0.21176472
v 0.07733742 0.01639047 -0.00091863 1.69411764 2.77647060 0.21176472
v 0.07666527 0.01744167 -0.00866934 1.69411764 2.77647060 0.21176472
v 0.07673994 0.01737387 -0.00091863 1.69411764 2.77647060 0.21176472
v 0.07728141 0.01658331 -0.00866934 1.69411764 2.77647060 0.21176472
v 0.07728141 0.01658331 -0.00091863 1.69411764 2.77647060 0.21176472
v 0.07688931 0.01723257 -0.00866934 1.69411764 2.77647060 0.21176472
v 0.07688931 0.01723257 -0.00091863 1.69411764 2.77647060 0.21176472
v 0.07715070 0.01685067 -0.00866934 1.69411764 2.77647060 0.21176472
v 0.07719741 0.01676379 -0.00091863 1.69411764 2.77647060 0.21176472
v 0.07701069 0.01706931 -0.00091863 1.69411764 2.77647060 0.21176472
v 0.07706670 0.01699101 -0.00866934 1.69411764 2.77647060 0.21176472
v 0.07711338 0.01692417 -0.00866934 1.69411764 2.77647060 0.21176472
v 0.07711338 0.01692417 -0.00091863 1.69411764 2.77647060 0.21176472
f 1 2 3
f 1 3 4
f 1 4 8
f 1 8 5
f 1 5 9
f 1 9 14
f 1 14 19
f 1 19 24
f 1 24 29
f 1 29 31
f 1 31 35
f 1 35 39
f 1 39 43
f 1 43 47
f 1 47 51
f 1 51 48
f 1 48 45
f 1 45 41
f 1 41 36
f 1 36 33
f 1 33 27
f 1 27 21
f 1 21 17
f 1 17 11
f 1 11 7
f 1 7 2
f 2 6 3
f 2 7 6
f 3 6 10
f 3 10 12
f 3 12 18
f 3 18 22
f 3 22 26
f 3 26 32
f 3 32 37
f 3 37 40
f 3 40 44
f 3 44 49
f 3 49 50
f 3 50 46
f 3 46 42
f 3 42 38
f 3 38 34
f 3 34 30
f 3 30 25
f 3 25 20
f 3 20 15
f 3 15 13
f 3 13 8
f 3 8 4
f 5 8 13
f 5 13 9
f 6 7 10
f 7 11 12
f 7 12 10
f 9 13 15
f 9 15 16
f 9 16 14
f 11 17 12
f 12 17 18
f 14 16 15
f 14 15 20
f 14 20 23
f 14 23 19
f 17 21 18
f 18 21 22
f 19 23 28
f 19 28 24
f 20 25 28
f 20 28 23
f 21 26 22
f 21 27 26
f 24 28 25
f 24 25 29
f 25 30 31
f 25 31 29
f 26 27 32
f 27 33 32
f 30 34 35
f 30 35 31
f 32 33 36
f 32 36 37
f 34 38 35
f 35 38 39
f 36 40 37
f 36 41 40
f 38 42 43
f 38 43 39
f 40 41 44
f 41 45 44
f 42 46 47
f 42 47 43
f 44 45 48
f 44 48 49
f 46 50 47
f 47 50 51
f 48 51 49
f 49 51 50