# https://github.com/mikedh/trimesh
v 0.07500000 0.00000000 0.02013545
v -0.07500000 0.00000000 0.02013545
v -0.07500000 -0.00280573 0.01993925
v 0.07500000 -0.00280573 0.01993925
v -0.07500000 -0.00555685 0.01935445
v 0.07500000 -0.00555685 0.01935445
v 0.07500000 -0.00819981 0.01839255
v -0.07500000 -0.00819981 0.01839255
v -0.07500000 -0.01068317 0.01707205
v 0.07500000 -0.01068317 0.01707205
v -0.07500000 -0.01295860 0.01541895
v 0.07500000 -0.01295860 0.01541895
v 0.07500000 -0.01498180 0.01346515
v -0.07500000 -0.01498180 0.01346515
v 0.07500000 -0.01671340 0.01124875
v -0.07500000 -0.01671340 0.01124875
v -0.07500000 -0.01811969 0.00881305
v 0.07500000 -0.01811969 0.00881305
v 0.07500000 -0.01917330 0.00620525
v -0.07500000 -0.01917330 0.00620525
v 0.07500000 -0.01985372 0.00347615
v -0.07500000 -0.01985372 0.00347615
v 0.07500000 -0.02014772 0.00067905
v -0.07500000 -0.02014772 0.00067905
v 0.07500000 -0.02004956 -0.00213185
v -0.07500000 -0.02004956 -0.00213185
v 0.07500000 -0.01956116 -0.00490165
v -0.07500000 -0.01956116 -0.00490165
v 0.07500000 -0.01869203 -0.00757665
v -0.07500000 -0.01869203 -0.00757665
v 0.07500000 -0.01745907 -0.01010455
v -0.07500000 -0.01745907 -0.01010455
v 0.07500000 -0.01588630 -0.01243625
v -0.07500000 -0.01588630 -0.01243625
v 0.07500000 -0.01400431 -0.01452645
v -0.07500000 -0.01400431 -0.01452645
v 0.07500000 -0.01184975 -0.01633435
v -0.07500000 -0.01184975 -0.01633435
v 0.07500000 -0.00946455 -0.01782475
v -0.07500000 -0.00946455 -0.01782475
v -0.07500000 -0.00689513 -0.01896875
v 0.07500000 -0.00689513 -0.01896875
v 0.07500000 -0.00419150 -0.01974405
v -0.07500000 -0.00419150 -0.01974405
v -0.07500000 -0.00140629 -0.02013545
v 0.07500000 -0.00140629 -0.02013545
v -0.07500000 0.00140629 -0.02013545
v 0.07500000 0.00140629 -0.02013545
v 0.07500000 0.00419150 -0.01974405
v -0.07500000 0.00419150 -0.01974405
v -0.07500000 0.00689513 -0.01896875
v 0.07500000 0.00689513 -0.01896875
v 0.07500000 0.00946455 -0.01782475
v -0.07500000 0.00946455 -0.01782475
v 0.07500000 0.01184975 -0.01633435
v -0.07500000 0.01184975 -0.01633435
v -0.07500000 0.01400431 -0.01452645
v 0.07500000 0.01400431 -0.01452645
v -0.07500000 0.01588630 -0.01243625
v 0.07500000 0.01588630 -0.01243625
v 0.07500000 0.01745907 -0.01010455
v -0.07500000 0.01745907 -0.01010455
v 0.07500000 0.01869203 -0.00757665
v -0.07500000 0.01869203 -0.00757665
v -0.07500000 0.01956116 -0.00490165
v 0.07500000 0.01956116 -0.00490165
v 0.07500000 0.02004956 -0.00213185
v -0.07500000 0.02004956 -0.00213185
v 0.07500000 0.02014772 0.00067905
v -0.07500000 0.02014772 0.00067905
v 0.07500000 0.01985372 0.00347615
v -0.07500000 0.01985372 0.00347615
v -0.07500000 0.01917330 0.00620525
v 0.07500000 0.01917330 0.00620525
v 0.07500000 0.01811969 0.00881305
v -0.07500000 0.01811969 0.00881305
v -0.07500000 0.01671340 0.01124875
v 0.07500000 0.01671340 0.01124875
v 0.07500000 0.01498180 0.01346515
v -0.07500000 0.01498180 0.01346515
v -0.07500000 0.01295860 0.01541895
v 0.07500000 0.01295860 0.01541895
v 0.07500000 0.01068317 0.01707205
v -0.07500000 0.01068317 0.01707205
v 0.07500000 0.00819981 0.01839255
v -0.07500000 0.00819981 0.01839255
v -0.07500000 0.00555685 0.01935445
v 0.07500000 0.00555685 0.01935445
v 0.07500000 0.00280573 0.01993925
v -0.07500000 0.00280573 0.01993925
f 1 2 3
f 4 3 5
f 4 1 3
f 6 4 5
f 7 6 5
f 7 5 8
f 7 8 9
f 10 7 9
f 10 9 11
f 12 10 11
f 13 12 11
f 13 11 14
f 15 13 14
f 15 14 16
f 15 16 17
f 18 15 17
f 19 18 17
f 19 17 20
f 21 19 20
f 21 20 22
f 23 21 22
f 23 22 24
f 25 23 24
f 25 24 26
f 27 25 26
f 27 26 28
f 29 27 28
f 29 28 30
f 31 29 30
f 31 30 32
f 33 31 32
f 33 32 34
f 35 34 36
f 35 33 34
f 37 36 38
f 37 35 36
f 39 38 40
f 39 40 41
f 39 37 38
f 42 39 41
f 43 41 44
f 43 44 45
f 43 42 41
f 46 45 47
f 46 43 45
f 48 46 47
f 49 47 50
f 49 50 51
f 49 48 47
f 52 49 51
f 53 51 54
f 53 52 51
f 55 53 54
f 55 54 56
f 55 56 57
f 58 57 59
f 58 55 57
f 60 58 59
f 61 60 59
f 61 59 62
f 63 61 62
f 63 62 64
f 63 64 65
f 66 63 65
f 67 66 65
f 67 65 68
f 69 67 68
f 69 68 70
f 71 69 70
f 71 70 72
f 71 72 73
f 74 71 73
f 75 74 73
f 75 73 76
f 75 76 77
f 78 75 77
f 79 78 77
f 79 77 80
f 79 80 81
f 82 79 81
f 83 82 81
f 83 81 84
f 85 83 84
f 85 84 86
f 85 86 87
f 88 85 87
f 89 88 87
f 89 87 90
f 1 89 90
f 1 90 2
f 18 12 13
f 18 13 15
f 7 10 12
f 4 6 7
f 4 7 12
f 23 19 21
f 25 18 19
f 25 19 23
f 27 18 25
f 88 1 4
f 88 89 1
f 85 88 4
f 79 27 29
f 79 29 31
f 79 31 33
f 79 82 83
f 79 83 85
f 79 12 18
f 79 4 12
f 79 18 27
f 79 85 4
f 75 78 79
f 42 37 39
f 74 75 79
f 74 33 35
f 74 79 33
f 67 69 71
f 67 71 74
f 49 43 46
f 49 46 48
f 52 43 49
f 63 74 35
f 63 67 74
f 63 35 37
f 63 66 67
f 53 43 52
f 61 37 42
f 61 63 37
f 55 43 53
f 58 61 42
f 58 42 43
f 58 60 61
f 58 43 55
f 17 14 11
f 17 16 14
f 8 11 9
f 3 8 5
f 3 11 8
f 24 22 20
f 26 20 17
f 26 24 20
f 28 26 17
f 87 3 2
f 87 2 90
f 86 3 87
f 80 30 28
f 80 32 30
f 80 34 32
f 80 84 81
f 80 86 84
f 80 17 11
f 80 11 3
f 80 28 17
f 80 3 86
f 76 80 77
f 41 40 38
f 73 80 76
f 73 36 34
f 73 34 80
f 68 72 70
f 68 73 72
f 50 45 44
f 50 47 45
f 51 50 44
f 64 36 73
f 64 73 68
f 64 38 36
f 64 68 65
f 54 51 44
f 62 41 38
f 62 38 64
f 56 54 44
f 57 41 62
f 57 44 41
f 57 62 59
f 57 56 44