# https://github.com/mikedh/trimesh
v -0.02100582 -0.00500427 0.01014889 0.38039216 0.78823529 0.52549020
v -0.02101038 -0.00500427 0.01000431 0.38039216 0.78823529 0.52549020
v -0.02101494 -0.00500427 0.01025971 0.38039216 0.78823529 0.52549020
v -0.00280468 -0.00501934 0.01014889 0.38039216 0.78823529 0.52549020
v -0.02121555 -0.00500427 0.00573107 0.38039216 0.78823529 0.52549020
v -0.02103774 -0.00500427 0.01036941 0.38039216 0.78823529 0.52549020
v -0.00280468 -0.00502893 0.01026028 0.38039216 0.78823529 0.52549020
v -0.00280468 -0.00502003 0.01003750 0.38039216 0.78823529 0.52549020
v -0.02106510 -0.00500427 0.01047799 0.38039216 0.78823529 0.52549020
v -0.02110613 -0.00500427 0.01058263 0.38039216 0.78823529 0.52549020
v -0.02115172 -0.00500427 0.01068670 0.38039216 0.78823529 0.52549020
v -0.02120644 -0.00500427 0.01078346 0.38039216 0.78823529 0.52549020
v -0.02127483 -0.00500427 0.01087966 0.38039216 0.78823529 0.52549020
v -0.02142985 -0.00500427 0.01105237 0.38039216 0.78823529 0.52549020
v -0.02161223 -0.00500427 0.01119976 0.38039216 0.78823529 0.52549020
v -0.02182196 -0.00500427 0.01131902 0.38039216 0.78823529 0.52549020
v -0.02183564 -0.00500427 0.01132521 0.38039216 0.78823529 0.52549020
v -0.02204537 -0.00500427 0.01140678 0.38039216 0.78823529 0.52549020
v -0.02228246 -0.00500427 0.01146023 0.38039216 0.78823529 0.52549020
v -0.04938356 -0.00500427 0.00573107 0.38039216 0.78823529 0.52549020
v -0.00280468 -0.00502208 0.00998856 0.38039216 0.78823529 0.52549020
v -0.00280468 -0.00521597 0.00573107 0.38039216 0.78823529 0.52549020
v -0.00280468 -0.00504675 0.01036998 0.38039216 0.78823529 0.52549020
v -0.02252866 -0.00500427 0.01147767 0.38039216 0.78823529 0.52549020
v -0.04938356 -0.01170187 0.00573107 0.38039216 0.78823529 0.52549020
v -0.04938356 -0.00500427 0.01119020 0.38039216 0.78823529 0.52549020
v -0.00280468 -0.01200332 0.00573107 0.38039216 0.78823529 0.52549020
v -0.00280468 -0.00507415 0.01047799 0.38039216 0.78823529 0.52549020
v -0.04845344 -0.00500427 0.01147767 0.38039216 0.78823529 0.52549020
v -0.00280468 -0.00645875 0.01147767 0.38039216 0.78823529 0.52549020
v -0.00280468 -0.00624157 0.01146135 0.38039216 0.78823529 0.52549020
v -0.00280468 -0.00622719 0.01146023 0.38039216 0.78823529 0.52549020
v -0.00280468 -0.00600179 0.01140678 0.38039216 0.78823529 0.52549020
v -0.00280468 -0.00580653 0.01132690 0.38039216 0.78823529 0.52549020
v -0.00280468 -0.00579694 0.01132296 0.38039216 0.78823529 0.52549020
v -0.00280468 -0.00578803 0.01131902 0.38039216 0.78823529 0.52549020
v -0.00280468 -0.00560511 0.01120820 0.38039216 0.78823529 0.52549020
v -0.00280468 -0.00559209 0.01119976 0.38039216 0.78823529 0.52549020
v -0.00280468 -0.00542219 0.01105574 0.38039216 0.78823529 0.52549020
v -0.00280468 -0.00527420 0.01088247 0.38039216 0.78823529 0.52549020
v -0.00280468 -0.00521049 0.01078627 0.38039216 0.78823529 0.52549020
v -0.00280468 -0.00515636 0.01068726 0.38039216 0.78823529 0.52549020
v -0.00280468 -0.00511046 0.01058375 0.38039216 0.78823529 0.52549020
v -0.04938356 -0.01170187 0.01009769 0.38039216 0.78823529 0.52549020
v -0.04921486 -0.01181012 0.00573107 0.38039216 0.78823529 0.52549020
v -0.04938356 -0.01056186 0.01119020 0.38039216 0.78823529 0.52549020
v -0.04921486 -0.00500427 0.01129314 0.38039216 0.78823529 0.52549020
v -0.00280468 -0.01200332 0.01009769 0.38039216 0.78823529 0.52549020
v -0.04845344 -0.01200332 0.00573107 0.38039216 0.78823529 0.52549020
v -0.04852639 -0.00500427 0.01147260 0.38039216 0.78823529 0.52549020
v -0.04845344 -0.01056186 0.01147767 0.38039216 0.78823529 0.52549020
v -0.00280468 -0.01056254 0.01147767 0.38039216 0.78823529 0.52549020
v -0.04921486 -0.01181012 0.01009769 0.38039216 0.78823529 0.52549020
v -0.04938356 -0.01167652 0.01033735 0.38039216 0.78823529 0.52549020
v -0.04897777 -0.01191631 0.00573107 0.38039216 0.78823529 0.52549020
v -0.04938356 -0.01071669 0.01118119 0.38039216 0.78823529 0.52549020
v -0.04920574 -0.01068723 0.01129314 0.38039216 0.78823529 0.52549020
v -0.04921486 -0.01056186 0.01129314 0.38039216 0.78823529 0.52549020
v -0.04897777 -0.00500427 0.01139497 0.38039216 0.78823529 0.52549020
v -0.00280468 -0.01198208 0.01032835 0.38039216 0.78823529 0.52549020
v -0.01150402 -0.01198414 0.01030753 0.38039216 0.78823529 0.52549020
v -0.01150402 -0.01199510 0.01018771 0.38039216 0.78823529 0.52549020
v -0.04845344 -0.01200332 0.01009769 0.38039216 0.78823529 0.52549020
v -0.04851271 -0.01199852 0.00573107 0.38039216 0.78823529 0.52549020
v -0.04871789 -0.00500427 0.01145685 0.38039216 0.78823529 0.52549020
v -0.04871789 -0.01060570 0.01145685 0.38039216 0.78823529 0.52549020
v -0.04870421 -0.01064818 0.01145685 0.38039216 0.78823529 0.52549020
v -0.04868141 -0.01068723 0.01145685 0.38039216 0.78823529 0.52549020
v -0.04865861 -0.01072286 0.01145685 0.38039216 0.78823529 0.52549020
v -0.04862670 -0.01075437 0.01145685 0.38039216 0.78823529 0.52549020
v -0.04858566 -0.01077835 0.01145685 0.38039216 0.78823529 0.52549020
v -0.04854919 -0.01079685 0.01145685 0.38039216 0.78823529 0.52549020
v -0.04849904 -0.01080849 0.01145685 0.38039216 0.78823529 0.52549020
v -0.04845344 -0.01081261 0.01145685 0.38039216 0.78823529 0.52549020
v -0.03613849 -0.01065572 0.01147035 0.38039216 0.78823529 0.52549020
v -0.03613849 -0.01059337 0.01147542 0.38039216 0.78823529 0.52549020
v -0.01185510 -0.01059474 0.01147542 0.38039216 0.78823529 0.52549020
v -0.00280468 -0.01057145 0.01147710 0.38039216 0.78823529 0.52549020
v -0.01185510 -0.01056254 0.01147767 0.38039216 0.78823529 0.52549020
v -0.04897777 -0.01191631 0.01009769 0.38039216 0.78823529 0.52549020
v -0.04920574 -0.01179025 0.01033735 0.38039216 0.78823529 0.52549020
v -0.04938356 -0.01160322 0.01055168 0.38039216 0.78823529 0.52549020
v -0.04917383 -0.01173476 0.01056969 0.38039216 0.78823529 0.52549020
v -0.04871789 -0.01198140 0.00573107 0.38039216 0.78823529 0.52549020
v -0.04938356 -0.01086673 0.01115532 0.38039216 0.78823529 0.52549020
v -0.04917383 -0.01080849 0.01129314 0.38039216 0.78823529 0.52549020
v -0.04896865 -0.01064818 0.01139497 0.38039216 0.78823529 0.52549020
v -0.04897777 -0.01056186 0.01139497 0.38039216 0.78823529 0.52549020
v -0.00280468 -0.01198071 0.01033735 0.38039216 0.78823529 0.52549020
v -0.01185966 -0.01198140 0.01033735 0.38039216 0.78823529 0.52549020
v -0.02382354 -0.01198688 0.01027772 0.38039216 0.78823529 0.52549020
v -0.04845344 -0.01198140 0.01033735 0.38039216 0.78823529 0.52549020
v -0.04871789 -0.01198140 0.01009769 0.38039216 0.78823529 0.52549020
v -0.04894586 -0.01073039 0.01139497 0.38039216 0.78823529 0.52549020
v -0.04890938 -0.01080849 0.01139497 0.38039216 0.78823529 0.52549020
v -0.04885467 -0.01087838 0.01139497 0.38039216 0.78823529 0.52549020
v -0.04879084 -0.01094003 0.01139497 0.38039216 0.78823529 0.52549020
v -0.04871789 -0.01098868 0.01139497 0.38039216 0.78823529 0.52549020
v -0.04863582 -0.01102567 0.01139497 0.38039216 0.78823529 0.52549020
v -0.04854919 -0.01104691 0.01139497 0.38039216 0.78823529 0.52549020
v -0.04845344 -0.01105513 0.01139497 0.38039216 0.78823529 0.52549020
v -0.02382354 -0.01087289 0.01144166 0.38039216 0.78823529 0.52549020
v -0.01185966 -0.01084412 0.01144898 0.38039216 0.78823529 0.52549020
v -0.00280468 -0.01081261 0.01145685 0.38039216 0.78823529 0.52549020
v -0.00280468 -0.01080301 0.01145798 0.38039216 0.78823529 0.52549020
v -0.02382354 -0.01074957 0.01146248 0.38039216 0.78823529 0.52549020
v -0.01150402 -0.01065640 0.01147035 0.38039216 0.78823529 0.52549020
v -0.00280468 -0.01069614 0.01146698 0.38039216 0.78823529 0.52549020
v -0.04871789 -0.01195879 0.01033735 0.38039216 0.78823529 0.52549020
v -0.04896865 -0.01189576 0.01033735 0.38039216 0.78823529 0.52549020
v -0.04938356 -0.01159637 0.01056969 0.38039216 0.78823529 0.52549020
v -0.04894586 -0.01183478 0.01056969 0.38039216 0.78823529 0.52549020
v -0.04890938 -0.01173476 0.01078796 0.38039216 0.78823529 0.52549020
v -0.04911456 -0.01164227 0.01078796 0.38039216 0.78823529 0.52549020
v -0.04930605 -0.01151758 0.01078796 0.38039216 0.78823529 0.52549020
v -0.04938356 -0.01087975 0.01115194 0.38039216 0.78823529 0.52549020
v -0.04937900 -0.01087838 0.01115532 0.38039216 0.78823529 0.52549020
v -0.04911456 -0.01092291 0.01129314 0.38039216 0.78823529 0.52549020
v -0.04930605 -0.01102567 0.01115532 0.38039216 0.78823529 0.52549020
v -0.00280468 -0.01197866 0.01034579 0.38039216 0.78823529 0.52549020
v -0.01185966 -0.01191631 0.01056969 0.38039216 0.78823529 0.52549020
v -0.03613849 -0.01192453 0.01054100 0.38039216 0.78823529 0.52549020
v -0.00280468 -0.01192316 0.01054437 0.38039216 0.78823529 0.52549020
v -0.04845344 -0.01191631 0.01056969 0.38039216 0.78823529 0.52549020
v -0.04870421 -0.01189576 0.01056969 0.38039216 0.78823529 0.52549020
v -0.04904161 -0.01102567 0.01129314 0.38039216 0.78823529 0.52549020
v -0.04894586 -0.01111405 0.01129314 0.38039216 0.78823529 0.52549020
v -0.04883643 -0.01118530 0.01129314 0.38039216 0.78823529 0.52549020
v -0.04871789 -0.01123943 0.01129314 0.38039216 0.78823529 0.52549020
v -0.04858566 -0.01127094 0.01129314 0.38039216 0.78823529 0.52549020
v -0.04845344 -0.01128190 0.01129314 0.38039216 0.78823529 0.52549020
v -0.03613849 -0.01114077 0.01135672 0.38039216 0.78823529 0.52549020
v -0.01185966 -0.01105513 0.01139497 0.38039216 0.78823529 0.52549020
v -0.01185966 -0.01096538 0.01141803 0.38039216 0.78823529 0.52549020
v -0.01150402 -0.01090372 0.01143379 0.38039216 0.78823529 0.52549020
v -0.00280468 -0.01083932 0.01145010 0.38039216 0.78823529 0.52549020
v -0.04938356 -0.01144633 0.01078796 0.38039216 0.78823529 0.52549020
v -0.04868141 -0.01179025 0.01078796 0.38039216 0.78823529 0.52549020
v -0.04865861 -0.01164912 0.01098486 0.38039216 0.78823529 0.52549020
v -0.04885467 -0.01159911 0.01098486 0.38039216 0.78823529 0.52549020
v -0.04904161 -0.01151758 0.01098486 0.38039216 0.78823529 0.52549020
v -0.04920574 -0.01140796 0.01098486 0.38039216 0.78823529 0.52549020
v -0.04938356 -0.01106678 0.01107600 0.38039216 0.78823529 0.52549020
v -0.04920574 -0.01115790 0.01115532 0.38039216 0.78823529 0.52549020
v -0.02382354 -0.01183684 0.01073339 0.38039216 0.78823529 0.52549020
v -0.00280468 -0.01191837 0.01056125 0.38039216 0.78823529 0.52549020
v -0.00280468 -0.01191563 0.01056969 0.38039216 0.78823529 0.52549020
v -0.00280468 -0.01191220 0.01057756 0.38039216 0.78823529 0.52549020
v -0.00280468 -0.01186698 0.01067095 0.38039216 0.78823529 0.52549020
v -0.04845344 -0.01181012 0.01078796 0.38039216 0.78823529 0.52549020
v -0.04908264 -0.01127094 0.01115532 0.38039216 0.78823529 0.52549020
v -0.04894586 -0.01136343 0.01115532 0.38039216 0.78823529 0.52549020
v -0.04879084 -0.01143194 0.01115532 0.38039216 0.78823529 0.52549020
v -0.04862670 -0.01147373 0.01115532 0.38039216 0.78823529 0.52549020
v -0.04845344 -0.01148812 0.01115532 0.38039216 0.78823529 0.52549020
v -0.01185966 -0.01125518 0.01130552 0.38039216 0.78823529 0.52549020
v -0.01185510 -0.01128259 0.01129314 0.38039216 0.78823529 0.52549020
v -0.01185510 -0.01125518 0.01130552 0.38039216 0.78823529 0.52549020
v -0.00280468 -0.01117708 0.01134040 0.38039216 0.78823529 0.52549020
v -0.00280468 -0.01107980 0.01138372 0.38039216 0.78823529 0.52549020
v -0.00280468 -0.01106335 0.01139103 0.38039216 0.78823529 0.52549020
v -0.00280468 -0.01105445 0.01139497 0.38039216 0.78823529 0.52549020
v -0.00280468 -0.01096059 0.01141916 0.38039216 0.78823529 0.52549020
v -0.01185510 -0.01096538 0.01141803 0.38039216 0.78823529 0.52549020
v -0.04938356 -0.01129492 0.01093479 0.38039216 0.78823529 0.52549020
v -0.04845344 -0.01166625 0.01098486 0.38039216 0.78823529 0.52549020
v -0.04934708 -0.01127094 0.01098486 0.38039216 0.78823529 0.52549020
v -0.04938356 -0.01123121 0.01098486 0.38039216 0.78823529 0.52549020
v -0.01185966 -0.01181012 0.01078796 0.38039216 0.78823529 0.52549020
v -0.00280468 -0.01181355 0.01078009 0.38039216 0.78823529 0.52549020
v -0.01185966 -0.01141207 0.01120651 0.38039216 0.78823529 0.52549020
v -0.03613849 -0.01151073 0.01113394 0.38039216 0.78823529 0.52549020
v -0.00280468 -0.01148812 0.01115532 0.38039216 0.78823529 0.52549020
v -0.00280468 -0.01128259 0.01129314 0.38039216 0.78823529 0.52549020
v -0.02382354 -0.01162172 0.01102761 0.38039216 0.78823529 0.52549020
v -0.00280468 -0.01166625 0.01098486 0.38039216 0.78823529 0.52549020
v -0.00280468 -0.01180943 0.01078796 0.38039216 0.78823529 0.52549020
v -0.00280468 -0.01146551 0.01117051 0.38039216 0.78823529 0.52549020
f 1 2 5
f 1 5 20
f 1 20 26
f 1 26 47
f 1 47 59
f 1 59 65
f 1 65 50
f 1 50 29
f 1 29 24
f 1 24 19
f 1 19 18
f 1 18 17
f 1 17 16
f 1 16 15
f 1 15 14
f 1 14 13
f 1 13 12
f 1 12 11
f 1 11 10
f 1 10 9
f 1 9 6
f 1 6 3
f 1 3 4
f 1 4 2
f 2 4 5
f 3 6 4
f 4 7 23
f 4 23 28
f 4 28 43
f 4 43 42
f 4 42 41
f 4 41 40
f 4 40 39
f 4 39 38
f 4 38 37
f 4 37 36
f 4 36 35
f 4 35 34
f 4 34 33
f 4 33 32
f 4 32 31
f 4 31 30
f 4 30 52
f 4 52 78
f 4 78 108
f 4 108 105
f 4 105 104
f 4 104 136
f 4 136 163
f 4 163 162
f 4 162 161
f 4 161 160
f 4 160 159
f 4 159 174
f 4 174 178
f 4 178 173
f 4 173 176
f 4 176 177
f 4 177 170
f 4 170 149
f 4 149 148
f 4 148 147
f 4 147 146
f 4 146 123
f 4 123 120
f 4 120 89
f 4 89 60
f 4 60 48
f 4 48 27
f 4 27 22
f 4 22 21
f 4 21 8
f 4 8 5
f 4 6 9
f 4 9 10
f 4 10 11
f 4 11 12
f 4 12 13
f 4 13 14
f 4 14 15
f 4 15 16
f 4 16 17
f 4 17 18
f 4 18 19
f 4 19 7
f 5 8 21
f 5 21 22
f 5 22 27
f 5 27 49
f 5 49 64
f 5 64 84
f 5 84 55
f 5 55 45
f 5 45 25
f 5 25 20
f 7 19 24
f 7 24 23
f 20 25 44
f 20 44 54
f 20 54 82
f 20 82 111
f 20 111 137
f 20 137 165
f 20 165 168
f 20 168 143
f 20 143 116
f 20 116 85
f 20 85 56
f 20 56 46
f 20 46 26
f 23 24 28
f 24 29 51
f 24 51 79
f 24 79 52
f 24 52 30
f 24 30 31
f 24 31 32
f 24 32 33
f 24 33 34
f 24 34 35
f 24 35 36
f 24 36 37
f 24 37 38
f 24 38 39
f 24 39 40
f 24 40 41
f 24 41 42
f 24 42 43
f 24 43 28
f 25 45 53
f 25 53 44
f 26 46 58
f 26 58 47
f 27 48 63
f 27 63 49
f 29 50 51
f 44 53 54
f 45 55 80
f 45 80 53
f 46 56 57
f 46 57 58
f 47 58 88
f 47 88 59
f 48 60 61
f 48 61 62
f 48 62 91
f 48 91 63
f 49 63 64
f 50 65 66
f 50 66 51
f 51 66 67
f 51 67 68
f 51 68 69
f 51 69 70
f 51 70 71
f 51 71 72
f 51 72 73
f 51 73 74
f 51 74 75
f 51 75 76
f 51 76 77
f 51 77 78
f 51 78 79
f 52 79 78
f 53 80 81
f 53 81 54
f 54 81 83
f 54 83 82
f 55 84 93
f 55 93 80
f 56 85 86
f 56 86 57
f 57 86 87
f 57 87 88
f 57 88 58
f 59 88 66
f 59 66 65
f 60 89 90
f 60 90 61
f 61 90 92
f 61 92 91
f 61 91 62
f 63 91 92
f 63 92 93
f 63 93 64
f 64 93 84
f 66 88 87
f 66 87 94
f 66 94 67
f 67 94 95
f 67 95 68
f 68 95 69
f 69 95 96
f 69 96 70
f 70 96 97
f 70 97 98
f 70 98 71
f 71 98 72
f 72 98 99
f 72 99 100
f 72 100 73
f 73 100 74
f 74 100 101
f 74 101 102
f 74 102 103
f 74 103 104
f 74 104 105
f 74 105 106
f 74 106 75
f 75 106 107
f 75 107 77
f 75 77 76
f 77 107 108
f 77 108 78
f 80 93 109
f 80 109 110
f 80 110 81
f 81 110 83
f 82 83 111
f 83 110 112
f 83 112 113
f 83 113 114
f 83 114 115
f 83 115 111
f 85 116 117
f 85 117 86
f 86 118 95
f 86 95 94
f 86 94 87
f 86 117 119
f 86 119 118
f 89 120 90
f 90 121 122
f 90 122 92
f 90 120 123
f 90 123 121
f 92 122 124
f 92 124 125
f 92 125 109
f 92 109 93
f 95 118 126
f 95 126 96
f 96 126 97
f 97 126 127
f 97 127 98
f 98 127 128
f 98 128 129
f 98 129 99
f 99 129 100
f 100 129 130
f 100 130 101
f 101 130 131
f 101 131 132
f 101 132 133
f 101 133 164
f 101 164 134
f 101 134 102
f 102 134 164
f 102 164 135
f 102 135 103
f 103 135 136
f 103 136 104
f 105 108 107
f 105 107 106
f 109 125 110
f 110 125 112
f 111 115 137
f 112 125 113
f 113 125 138
f 113 138 139
f 113 139 140
f 113 140 141
f 113 141 114
f 114 141 115
f 115 141 142
f 115 142 137
f 116 143 119
f 116 119 117
f 118 119 126
f 119 144 126
f 119 143 144
f 121 145 124
f 121 124 122
f 121 123 146
f 121 146 147
f 121 147 148
f 121 148 149
f 121 149 145
f 124 145 150
f 124 150 125
f 125 150 138
f 126 144 127
f 127 144 151
f 127 151 152
f 127 152 128
f 128 152 129
f 129 152 153
f 129 153 154
f 129 154 130
f 130 154 155
f 130 155 131
f 131 156 132
f 131 155 157
f 131 157 156
f 132 156 158
f 132 158 133
f 133 158 159
f 133 159 160
f 133 160 161
f 133 161 162
f 133 162 163
f 133 163 164
f 135 164 163
f 135 163 136
f 137 142 165
f 138 150 139
f 139 153 140
f 139 150 166
f 139 166 154
f 139 154 153
f 140 153 141
f 141 153 152
f 141 152 142
f 142 144 167
f 142 167 165
f 142 152 151
f 142 151 144
f 143 168 144
f 144 168 167
f 145 149 169
f 145 169 150
f 149 170 169
f 150 169 176
f 150 176 166
f 154 166 155
f 155 171 157
f 155 166 172
f 155 172 173
f 155 173 171
f 156 157 174
f 156 174 158
f 157 171 174
f 158 174 159
f 165 167 168
f 166 175 172
f 166 176 175
f 169 170 177
f 169 177 176
f 171 173 178
f 171 178 174
f 172 175 176
f 172 176 173

