# https://github.com/mikedh/trimesh
v 0.05008757 0.01200332 0.01009813 0.08627451 0.01960784 0.83137255
v 0.02544998 0.01198687 0.01027817 0.08627451 0.01960784 0.83137255
v 0.05008757 0.01197982 0.01033780 0.08627451 0.01960784 0.83137255
v 0.05013552 0.01197982 0.01033443 0.08627451 0.01960784 0.83137255
v 0.05017813 0.01197982 0.01032318 0.08627451 0.01960784 0.83137255
v 0.05022075 0.01197982 0.01030574 0.08627451 0.01960784 0.83137255
v 0.05025804 0.01197982 0.01028154 0.08627451 0.01960784 0.83137255
v 0.05029000 0.01197982 0.01025229 0.08627451 0.01960784 0.83137255
v 0.05031664 0.01197982 0.01021797 0.08627451 0.01960784 0.83137255
v 0.05033794 0.01197982 0.01018027 0.08627451 0.01960784 0.83137255
v 0.05034860 0.01197982 0.01013976 0.08627451 0.01960784 0.83137255
v 0.05035393 0.01197982 0.01009813 0.08627451 0.01960784 0.83137255
v 0.05008757 0.01200332 0.00573107 0.08627451 0.01960784 0.83137255
v -0.00280468 0.01200332 0.01009813 0.08627451 0.01960784 0.83137255
v -0.00280468 0.01199157 0.01022697 0.08627451 0.01960784 0.83137255
v -0.00280468 0.01198217 0.01032880 0.08627451 0.01960784 0.83137255
v 0.03777144 0.01197277 0.01036706 0.08627451 0.01960784 0.83137255
v 0.05008757 0.01191637 0.01057017 0.08627451 0.01960784 0.83137255
v 0.05017813 0.01191637 0.01056285 0.08627451 0.01960784 0.83137255
v 0.05026870 0.01191637 0.01054204 0.08627451 0.01960784 0.83137255
v 0.05034860 0.01191637 0.01050715 0.08627451 0.01960784 0.83137255
v 0.05042318 0.01191637 0.01045989 0.08627451 0.01960784 0.83137255
v 0.05048710 0.01191637 0.01040138 0.08627451 0.01960784 0.83137255
v 0.05054037 0.01191637 0.01033443 0.08627451 0.01960784 0.83137255
v 0.05057766 0.01191637 0.01025960 0.08627451 0.01960784 0.83137255
v 0.05060430 0.01191637 0.01018027 0.08627451 0.01960784 0.83137255
v 0.05035393 0.01197982 0.00573107 0.08627451 0.01960784 0.83137255
v 0.05060963 0.01191637 0.01009813 0.08627451 0.01960784 0.83137255
v -0.00280468 0.01200332 0.00573107 0.08627451 0.01960784 0.83137255
v -0.00280468 0.01197982 0.01033780 0.08627451 0.01960784 0.83137255
v 0.01313917 0.01197277 0.01036706 0.08627451 0.01960784 0.83137255
v -0.00280468 0.01192342 0.01054485 0.08627451 0.01960784 0.83137255
v 0.03777144 0.01187643 0.01065231 0.08627451 0.01960784 0.83137255
v 0.05008757 0.01180828 0.01078846 0.08627451 0.01960784 0.83137255
v 0.05022075 0.01180828 0.01077778 0.08627451 0.01960784 0.83137255
v -0.00280468 0.01191637 0.01057017 0.08627451 0.01960784 0.83137255
v -0.00280468 0.01190462 0.01059436 0.08627451 0.01960784 0.83137255
v 0.05034860 0.01180828 0.01074683 0.08627451 0.01960784 0.83137255
v 0.05047112 0.01180828 0.01069563 0.08627451 0.01960784 0.83137255
v 0.05057766 0.01180828 0.01062699 0.08627451 0.01960784 0.83137255
v 0.05067355 0.01180828 0.01054204 0.08627451 0.01960784 0.83137255
v 0.05074813 0.01180828 0.01044302 0.08627451 0.01960784 0.83137255
v 0.05080673 0.01180828 0.01033443 0.08627451 0.01960784 0.83137255
v 0.05083869 0.01180828 0.01021797 0.08627451 0.01960784 0.83137255
v 0.05084934 0.01180828 0.01009813 0.08627451 0.01960784 0.83137255
v 0.05060963 0.01191637 0.00573107 0.08627451 0.01960784 0.83137255
v 0.05080140 0.01183178 0.00573107 0.08627451 0.01960784 0.83137255
v -0.00280468 -0.01200332 0.00573107 0.08627451 0.01960784 0.83137255
v 0.02544998 0.01183648 0.01073389 0.08627451 0.01960784 0.83137255
v 0.01313917 0.01187643 0.01065231 0.08627451 0.01960784 0.83137255
v 0.03777144 0.01179183 0.01081322 0.08627451 0.01960784 0.83137255
v 0.05008757 0.01166493 0.01098538 0.08627451 0.01960784 0.83137255
v 0.05025804 0.01166493 0.01097188 0.08627451 0.01960784 0.83137255
v -0.00280468 0.01181298 0.01078059 0.08627451 0.01960784 0.83137255
v -0.00280468 0.01180828 0.01078846 0.08627451 0.01960784 0.83137255
v -0.00280468 0.01180358 0.01079578 0.08627451 0.01960784 0.83137255
v 0.05042318 0.01166493 0.01093193 0.08627451 0.01960784 0.83137255
v -0.00280468 0.01186703 0.01067144 0.08627451 0.01960784 0.83137255
v 0.05057766 0.01166493 0.01086667 0.08627451 0.01960784 0.83137255
v 0.05072149 0.01166493 0.01077778 0.08627451 0.01960784 0.83137255
v 0.05083869 0.01166493 0.01066863 0.08627451 0.01960784 0.83137255
v 0.05093990 0.01166493 0.01054204 0.08627451 0.01960784 0.83137255
v 0.05100915 0.01166493 0.01040138 0.08627451 0.01960784 0.83137255
v 0.05105710 0.01166493 0.01025229 0.08627451 0.01960784 0.83137255
v 0.05106775 0.01166493 0.01009813 0.08627451 0.01960784 0.83137255
v 0.05089729 0.01177773 0.00573107 0.08627451 0.01960784 0.83137255
v 0.05084934 0.01180828 0.00573107 0.08627451 0.01960784 0.83137255
v -0.00280468 -0.01200332 0.01009813 0.08627451 0.01960784 0.83137255
v 0.05008757 -0.01200332 0.00573107 0.08627451 0.01960784 0.83137255
v 0.03777144 0.01168373 0.01096063 0.08627451 0.01960784 0.83137255
v 0.01313917 0.01179183 0.01081322 0.08627451 0.01960784 0.83137255
v 0.03777144 0.01164378 0.01100676 0.08627451 0.01960784 0.83137255
v 0.05008757 0.01148869 0.01115586 0.08627451 0.01960784 0.83137255
v -0.00280468 0.01166493 0.01098538 0.08627451 0.01960784 0.83137255
v 0.05029000 0.01148869 0.01113954 0.08627451 0.01960784 0.83137255
v -0.00280468 0.01168138 0.01096344 0.08627451 0.01960784 0.83137255
v 0.00081771 0.01173778 0.01088692 0.08627451 0.01960784 0.83137255
v 0.05048710 0.01148869 0.01109172 0.08627451 0.01960784 0.83137255
v 0.05067355 0.01148869 0.01101408 0.08627451 0.01960784 0.83137255
v 0.05083869 0.01148869 0.01090830 0.08627451 0.01960784 0.83137255
v 0.05098252 0.01148869 0.01077778 0.08627451 0.01960784 0.83137255
v 0.05109971 0.01148869 0.01062699 0.08627451 0.01960784 0.83137255
v 0.05118495 0.01148869 0.01045989 0.08627451 0.01960784 0.83137255
v 0.05123822 0.01148869 0.01028154 0.08627451 0.01960784 0.83137255
v 0.05125953 0.01148869 0.01009813 0.08627451 0.01960784 0.83137255
v 0.05111037 0.01162734 0.00573107 0.08627451 0.01960784 0.83137255
v 0.05106775 0.01166493 0.00573107 0.08627451 0.01960784 0.83137255
v 0.05008757 -0.01200332 0.01009813 0.08627451 0.01960784 0.83137255
v -0.00280468 -0.01199157 0.01022697 0.08627451 0.01960784 0.83137255
v 0.05035393 -0.01197982 0.00573107 0.08627451 0.01960784 0.83137255
v 0.01313917 0.01168373 0.01096063 0.08627451 0.01960784 0.83137255
v 0.01313917 0.01164378 0.01100676 0.08627451 0.01960784 0.83137255
v 0.05008757 0.01128190 0.01129370 0.08627451 0.01960784 0.83137255
v 0.05031664 0.01128190 0.01127569 0.08627451 0.01960784 0.83137255
v -0.00280468 0.01148869 0.01115586 0.08627451 0.01960784 0.83137255
v -0.00280468 0.01130540 0.01127851 0.08627451 0.01960784 0.83137255
v -0.00280468 0.01159679 0.01105177 0.08627451 0.01960784 0.83137255
v 0.05054037 0.01128190 0.01122168 0.08627451 0.01960784 0.83137255
v 0.05074813 0.01128190 0.01113335 0.08627451 0.01960784 0.83137255
v 0.05093990 0.01128190 0.01101408 0.08627451 0.01960784 0.83137255
v 0.05109971 0.01128190 0.01086667 0.08627451 0.01960784 0.83137255
v 0.05123289 0.01128190 0.01069563 0.08627451 0.01960784 0.83137255
v 0.05132878 0.01128190 0.01050715 0.08627451 0.01960784 0.83137255
v 0.05138737 0.01128190 0.01030574 0.08627451 0.01960784 0.83137255
v 0.05140868 0.01128190 0.01009813 0.08627451 0.01960784 0.83137255
v 0.05137672 0.01132655 0.00573107 0.08627451 0.01960784 0.83137255
v 0.05125953 0.01148869 0.00573107 0.08627451 0.01960784 0.83137255
v 0.05035393 -0.01197982 0.01009813 0.08627451 0.01960784 0.83137255
v 0.05035393 -0.01195867 0.01033443 0.08627451 0.01960784 0.83137255
v 0.05008757 -0.01197982 0.01033780 0.08627451 0.01960784 0.83137255
v 0.02544998 -0.01198687 0.01027817 0.08627451 0.01960784 0.83137255
v -0.00280468 -0.01198217 0.01032880 0.08627451 0.01960784 0.83137255
v 0.05055636 -0.01193047 0.00573107 0.08627451 0.01960784 0.83137255
v 0.03777144 0.01119730 0.01133196 0.08627451 0.01960784 0.83137255
v 0.05008757 0.01105396 0.01139553 0.08627451 0.01960784 0.83137255
v -0.00280468 0.01128190 0.01129370 0.08627451 0.01960784 0.83137255
v 0.05033794 0.01105396 0.01137528 0.08627451 0.01960784 0.83137255
v 0.05057766 0.01105396 0.01131677 0.08627451 0.01960784 0.83137255
v 0.05080673 0.01105396 0.01122168 0.08627451 0.01960784 0.83137255
v 0.05100915 0.01105396 0.01109172 0.08627451 0.01960784 0.83137255
v 0.05118495 0.01105396 0.01093193 0.08627451 0.01960784 0.83137255
v 0.05132878 0.01105396 0.01074683 0.08627451 0.01960784 0.83137255
v 0.05143532 0.01105396 0.01054204 0.08627451 0.01960784 0.83137255
v 0.05149924 0.01105396 0.01032318 0.08627451 0.01960784 0.83137255
v 0.05152055 0.01105396 0.01009813 0.08627451 0.01960784 0.83137255
v 0.05149924 0.01110331 0.00573107 0.08627451 0.01960784 0.83137255
v 0.05143532 0.01123255 0.00573107 0.08627451 0.01960784 0.83137255
v 0.05140868 0.01128190 0.00573107 0.08627451 0.01960784 0.83137255
v 0.05060963 -0.01191637 0.01009813 0.08627451 0.01960784 0.83137255
v 0.05035393 -0.01189522 0.01056285 0.08627451 0.01960784 0.83137255
v 0.05008757 -0.01191637 0.01057017 0.08627451 0.01960784 0.83137255
v 0.05060963 -0.01189522 0.01032318 0.08627451 0.01960784 0.83137255
v 0.03777144 -0.01197277 0.01036706 0.08627451 0.01960784 0.83137255
v 0.01313917 -0.01197277 0.01036706 0.08627451 0.01960784 0.83137255
v -0.00280468 -0.01197982 0.01033780 0.08627451 0.01960784 0.83137255
v 0.05060963 -0.01191637 0.00573107 0.08627451 0.01960784 0.83137255
v 0.01313917 0.01119730 0.01133196 0.08627451 0.01960784 0.83137255
v -0.00280468 0.01106336 0.01139159 0.08627451 0.01960784 0.83137255
v 0.03777144 0.01090356 0.01143435 0.08627451 0.01960784 0.83137255
v 0.05008757 0.01081192 0.01145742 0.08627451 0.01960784 0.83137255
v 0.05034860 0.01081192 0.01143717 0.08627451 0.01960784 0.83137255
v -0.00280468 0.01105396 0.01139553 0.08627451 0.01960784 0.83137255
v 0.00081771 0.01093411 0.01142648 0.08627451 0.01960784 0.83137255
v 0.00081771 0.01116910 0.01134433 0.08627451 0.01960784 0.83137255
v 0.05060430 0.01081192 0.01137528 0.08627451 0.01960784 0.83137255
v 0.05083869 0.01081192 0.01127569 0.08627451 0.01960784 0.83137255
v 0.05105710 0.01081192 0.01113954 0.08627451 0.01960784 0.83137255
v 0.05123822 0.01081192 0.01097188 0.08627451 0.01960784 0.83137255
v 0.05138737 0.01081192 0.01077778 0.08627451 0.01960784 0.83137255
v 0.05149924 0.01081192 0.01056285 0.08627451 0.01960784 0.83137255
v 0.05156850 0.01081192 0.01033443 0.08627451 0.01960784 0.83137255
v 0.05158980 0.01081192 0.01009813 0.08627451 0.01960784 0.83137255
v 0.05153653 0.01100226 0.00573107 0.08627451 0.01960784 0.83137255
v 0.05152055 0.01105396 0.00573107 0.08627451 0.01960784 0.83137255
v 0.05080140 -0.01183178 0.00573107 0.08627451 0.01960784 0.83137255
v 0.05084934 -0.01180828 0.01009813 0.08627451 0.01960784 0.83137255
v 0.05084934 -0.01178948 0.01030574 0.08627451 0.01960784 0.83137255
v 0.05035393 -0.01178948 0.01077778 0.08627451 0.01960784 0.83137255
v 0.05060963 -0.01183413 0.01054204 0.08627451 0.01960784 0.83137255
v 0.05008757 -0.01180828 0.01078846 0.08627451 0.01960784 0.83137255
v 0.02544998 -0.01183648 0.01073389 0.08627451 0.01960784 0.83137255
v 0.01313917 -0.01187643 0.01065231 0.08627451 0.01960784 0.83137255
v -0.00280468 -0.01191637 0.01057017 0.08627451 0.01960784 0.83137255
v -0.00280468 -0.01192342 0.01054485 0.08627451 0.01960784 0.83137255
v 0.02544998 0.01087302 0.01144223 0.08627451 0.01960784 0.83137255
v 0.03777144 0.01078137 0.01146023 0.08627451 0.01960784 0.83137255
v 0.05008757 0.01056283 0.01147880 0.08627451 0.01960784 0.83137255
v -0.00280468 0.01082132 0.01145517 0.08627451 0.01960784 0.83137255
v -0.00280468 0.01081192 0.01145742 0.08627451 0.01960784 0.83137255
v -0.00280468 0.01080252 0.01145855 0.08627451 0.01960784 0.83137255
v 0.05035393 0.01056283 0.01145742 0.08627451 0.01960784 0.83137255
v -0.00280468 0.01095996 0.01141973 0.08627451 0.01960784 0.83137255
v 0.05060963 0.01056283 0.01139553 0.08627451 0.01960784 0.83137255
v 0.05084934 0.01056283 0.01129370 0.08627451 0.01960784 0.83137255
v 0.05106775 0.01056283 0.01115586 0.08627451 0.01960784 0.83137255
v 0.05125953 0.01056283 0.01098538 0.08627451 0.01960784 0.83137255
v 0.05140868 0.01056283 0.01078846 0.08627451 0.01960784 0.83137255
v 0.05152055 0.01056283 0.01057017 0.08627451 0.01960784 0.83137255
v 0.05158980 0.01056283 0.01033780 0.08627451 0.01960784 0.83137255
v 0.05161644 0.01056283 0.01009813 0.08627451 0.01960784 0.83137255
v 0.05161111 0.01061688 0.00573107 0.08627451 0.01960784 0.83137255
v 0.05158980 0.01081192 0.00573107 0.08627451 0.01960784 0.83137255
v 0.05084934 -0.01180828 0.00573107 0.08627451 0.01960784 0.83137255
v 0.05089729 -0.01177773 0.00573107 0.08627451 0.01960784 0.83137255
v 0.05106775 -0.01166493 0.01009813 0.08627451 0.01960784 0.83137255
v 0.05106775 -0.01164848 0.01028154 0.08627451 0.01960784 0.83137255
v 0.05106775 -0.01159914 0.01045989 0.08627451 0.01960784 0.83137255
v 0.05084934 -0.01173308 0.01050715 0.08627451 0.01960784 0.83137255
v 0.05035393 -0.01164848 0.01097188 0.08627451 0.01960784 0.83137255
v 0.05060963 -0.01173308 0.01074683 0.08627451 0.01960784 0.83137255
v 0.05060963 -0.01159914 0.01093193 0.08627451 0.01960784 0.83137255
v 0.05084934 -0.01164143 0.01069563 0.08627451 0.01960784 0.83137255
v 0.05008757 -0.01166493 0.01098538 0.08627451 0.01960784 0.83137255
v 0.03777144 -0.01179183 0.01081322 0.08627451 0.01960784 0.83137255
v -0.00280468 -0.01180358 0.01079578 0.08627451 0.01960784 0.83137255
v -0.00280468 -0.01180828 0.01078846 0.08627451 0.01960784 0.83137255
v -0.00280468 -0.01181298 0.01078059 0.08627451 0.01960784 0.83137255
v -0.00280468 -0.01186703 0.01067144 0.08627451 0.01960784 0.83137255
v -0.00280468 0.01069677 0.01146755 0.08627451 0.01960784 0.83137255
v 0.05008757 0.00000000 0.01147880 0.08627451 0.01960784 0.83137255
v -0.00280468 0.01056283 0.01147880 0.08627451 0.01960784 0.83137255
v 0.05035393 -0.01056283 0.01145742 0.08627451 0.01960784 0.83137255
v 0.05060963 -0.01056283 0.01139553 0.08627451 0.01960784 0.83137255
v 0.05073215 0.00000000 0.01134433 0.08627451 0.01960784 0.83137255
v 0.05084934 -0.01056283 0.01129370 0.08627451 0.01960784 0.83137255
v 0.05096121 0.00000000 0.01122450 0.08627451 0.01960784 0.83137255
v 0.05106775 -0.01056283 0.01115586 0.08627451 0.01960784 0.83137255
v 0.05125953 -0.01056283 0.01098538 0.08627451 0.01960784 0.83137255
v 0.05140868 -0.01056283 0.01078846 0.08627451 0.01960784 0.83137255
v 0.05146728 0.00000000 0.01067932 0.08627451 0.01960784 0.83137255
v 0.05152055 -0.01056283 0.01057017 0.08627451 0.01960784 0.83137255
v 0.05155784 0.00000000 0.01045427 0.08627451 0.01960784 0.83137255
v 0.05158980 -0.01056283 0.01033780 0.08627451 0.01960784 0.83137255
v 0.05161644 0.01056283 0.00573107 0.08627451 0.01960784 0.83137255
v 0.05161644 -0.01056283 0.01009813 0.08627451 0.01960784 0.83137255
v 0.05106775 -0.01166493 0.00573107 0.08627451 0.01960784 0.83137255
v 0.05111037 -0.01162734 0.00573107 0.08627451 0.01960784 0.83137255
v 0.05125953 -0.01148869 0.01009813 0.08627451 0.01960784 0.83137255
v 0.05125953 -0.01147459 0.01025229 0.08627451 0.01960784 0.83137255
v 0.05125953 -0.01143229 0.01040138 0.08627451 0.01960784 0.83137255
v 0.05125953 -0.01136415 0.01054204 0.08627451 0.01960784 0.83137255
v 0.05106775 -0.01151689 0.01062699 0.08627451 0.01960784 0.83137255
v 0.05035393 -0.01147459 0.01113954 0.08627451 0.01960784 0.83137255
v 0.05008757 -0.01148869 0.01115586 0.08627451 0.01960784 0.83137255
v 0.05084934 -0.01151689 0.01086667 0.08627451 0.01960784 0.83137255
v 0.05084934 -0.01136415 0.01101408 0.08627451 0.01960784 0.83137255
v 0.05060963 -0.01143229 0.01109172 0.08627451 0.01960784 0.83137255
v 0.03777144 -0.01168373 0.01096063 0.08627451 0.01960784 0.83137255
v 0.03777144 -0.01164378 0.01100676 0.08627451 0.01960784 0.83137255
v -0.00280468 -0.01166493 0.01098538 0.08627451 0.01960784 0.83137255
v 0.01313917 -0.01179183 0.01081322 0.08627451 0.01960784 0.83137255
v 0.00081771 -0.01173778 0.01088692 0.08627451 0.01960784 0.83137255
v -0.00280468 -0.01168138 0.01096344 0.08627451 0.01960784 0.83137255
v 0.05008757 -0.01056283 0.01147824 0.08627451 0.01960784 0.83137255
v 0.01159433 0.00220186 0.01147880 0.08627451 0.01960784 0.83137255
v -0.00280468 -0.01056283 0.01147824 0.08627451 0.01960784 0.83137255
v -0.00280468 0.00645754 0.01147880 0.08627451 0.01960784 0.83137255
v 0.05008757 -0.01081192 0.01145742 0.08627451 0.01960784 0.83137255
v 0.05035393 -0.01080722 0.01143660 0.08627451 0.01960784 0.83137255
v 0.05060963 -0.01079782 0.01137528 0.08627451 0.01960784 0.83137255
v 0.05084934 -0.01077902 0.01127569 0.08627451 0.01960784 0.83137255
v 0.05106775 -0.01075317 0.01113954 0.08627451 0.01960784 0.83137255
v 0.05125953 -0.01072262 0.01097188 0.08627451 0.01960784 0.83137255
v 0.05140868 -0.01068737 0.01077778 0.08627451 0.01960784 0.83137255
v 0.05152055 -0.01064742 0.01056285 0.08627451 0.01960784 0.83137255
v 0.05158980 -0.01060513 0.01033443 0.08627451 0.01960784 0.83137255
v 0.05161644 -0.01056283 0.00573107 0.08627451 0.01960784 0.83137255
v 0.05161111 -0.01061688 0.00573107 0.08627451 0.01960784 0.83137255
v 0.05158980 -0.01064742 0.01032318 0.08627451 0.01960784 0.83137255
v 0.05158980 -0.01068737 0.01030574 0.08627451 0.01960784 0.83137255
v 0.05158980 -0.01072262 0.01028154 0.08627451 0.01960784 0.83137255
v 0.05158980 -0.01075317 0.01025229 0.08627451 0.01960784 0.83137255
v 0.05158980 -0.01077902 0.01021797 0.08627451 0.01960784 0.83137255
v 0.05158980 -0.01079782 0.01018027 0.08627451 0.01960784 0.83137255
v 0.05158980 -0.01080722 0.01013976 0.08627451 0.01960784 0.83137255
v 0.05158980 -0.01081192 0.01009813 0.08627451 0.01960784 0.83137255
v 0.05125953 -0.01148869 0.00573107 0.08627451 0.01960784 0.83137255
v 0.05137672 -0.01132655 0.00573107 0.08627451 0.01960784 0.83137255
v 0.05140868 -0.01128190 0.01009813 0.08627451 0.01960784 0.83137255
v 0.05140868 -0.01127015 0.01021797 0.08627451 0.01960784 0.83137255
v 0.05140868 -0.01123960 0.01033443 0.08627451 0.01960784 0.83137255
v 0.05125953 -0.01127015 0.01066863 0.08627451 0.01960784 0.83137255
v 0.05106775 -0.01140644 0.01077778 0.08627451 0.01960784 0.83137255
v 0.05140868 -0.01118555 0.01044302 0.08627451 0.01960784 0.83137255
v 0.05140868 -0.01111271 0.01054204 0.08627451 0.01960784 0.83137255
v 0.05035393 -0.01127015 0.01127569 0.08627451 0.01960784 0.83137255
v 0.05008757 -0.01128190 0.01129370 0.08627451 0.01960784 0.83137255
v 0.05060963 -0.01123960 0.01122168 0.08627451 0.01960784 0.83137255
v -0.00280468 -0.01137825 0.01122956 0.08627451 0.01960784 0.83137255
v -0.00280468 -0.01148869 0.01115586 0.08627451 0.01960784 0.83137255
v 0.05106775 -0.01127015 0.01090830 0.08627451 0.01960784 0.83137255
v 0.05106775 -0.01111271 0.01101408 0.08627451 0.01960784 0.83137255
v 0.05084934 -0.01118555 0.01113335 0.08627451 0.01960784 0.83137255
v 0.01313917 -0.01168373 0.01096063 0.08627451 0.01960784 0.83137255
v 0.01313917 -0.01164378 0.01100676 0.08627451 0.01960784 0.83137255
v -0.00280468 -0.01164613 0.01100395 0.08627451 0.01960784 0.83137255
v 0.03777144 -0.01059338 0.01147599 0.08627451 0.01960784 0.83137255
v -0.00280468 -0.01056988 0.01147767 0.08627451 0.01960784 0.83137255
v 0.01313917 -0.01059338 0.01147599 0.08627451 0.01960784 0.83137255
v 0.02544998 -0.01087302 0.01144223 0.08627451 0.01960784 0.83137255
v 0.03777144 -0.01090356 0.01143435 0.08627451 0.01960784 0.83137255
v 0.05008757 -0.01105396 0.01139553 0.08627451 0.01960784 0.83137255
v 0.03777144 -0.01078137 0.01146023 0.08627451 0.01960784 0.83137255
v -0.00280468 -0.01080252 0.01145855 0.08627451 0.01960784 0.83137255
v -0.00280468 -0.01081192 0.01145742 0.08627451 0.01960784 0.83137255
v -0.00280468 -0.01082132 0.01145517 0.08627451 0.01960784 0.83137255
v 0.05035393 -0.01104691 0.01137528 0.08627451 0.01960784 0.83137255
v 0.05060963 -0.01102576 0.01131677 0.08627451 0.01960784 0.83137255
v 0.05084934 -0.01098816 0.01122168 0.08627451 0.01960784 0.83137255
v 0.05106775 -0.01093881 0.01109172 0.08627451 0.01960784 0.83137255
v 0.05125953 -0.01087772 0.01093193 0.08627451 0.01960784 0.83137255
v 0.05140868 -0.01080722 0.01074683 0.08627451 0.01960784 0.83137255
v 0.05152055 -0.01072967 0.01054204 0.08627451 0.01960784 0.83137255
v 0.05158980 -0.01081192 0.00573107 0.08627451 0.01960784 0.83137255
v 0.05152055 -0.01080722 0.01050715 0.08627451 0.01960784 0.83137255
v 0.05152055 -0.01087772 0.01045989 0.08627451 0.01960784 0.83137255
v 0.05152055 -0.01093881 0.01040138 0.08627451 0.01960784 0.83137255
v 0.05152055 -0.01098816 0.01033443 0.08627451 0.01960784 0.83137255
v 0.05152055 -0.01102576 0.01025960 0.08627451 0.01960784 0.83137255
v 0.05152055 -0.01104691 0.01018027 0.08627451 0.01960784 0.83137255
v 0.05153653 -0.01100226 0.00573107 0.08627451 0.01960784 0.83137255
v 0.05152055 -0.01105396 0.01009813 0.08627451 0.01960784 0.83137255
v 0.05140868 -0.01128190 0.00573107 0.08627451 0.01960784 0.83137255
v 0.05143532 -0.01123255 0.00573107 0.08627451 0.01960784 0.83137255
v 0.05149924 -0.01110331 0.00573107 0.08627451 0.01960784 0.83137255
v 0.05125953 -0.01115735 0.01077778 0.08627451 0.01960784 0.83137255
v 0.05140868 -0.01102576 0.01062699 0.08627451 0.01960784 0.83137255
v 0.01313917 -0.01119730 0.01133196 0.08627451 0.01960784 0.83137255
v -0.00280468 -0.01128190 0.01129370 0.08627451 0.01960784 0.83137255
v -0.00280468 -0.01157094 0.01107653 0.08627451 0.01960784 0.83137255
v 0.05125953 -0.01102576 0.01086667 0.08627451 0.01960784 0.83137255
v 0.02544998 -0.01074847 0.01146305 0.08627451 0.01960784 0.83137255
v 0.00081771 -0.01068737 0.01146811 0.08627451 0.01960784 0.83137255
v 0.00081771 -0.01093411 0.01142648 0.08627451 0.01960784 0.83137255
v -0.00280468 -0.01105396 0.01139553 0.08627451 0.01960784 0.83137255
v -0.00280468 -0.01106336 0.01139159 0.08627451 0.01960784 0.83137255
v -0.00280468 -0.01107981 0.01138428 0.08627451 0.01960784 0.83137255
v -0.00280468 -0.01095996 0.01141973 0.08627451 0.01960784 0.83137255
v 0.05140868 -0.01092236 0.01069563 0.08627451 0.01960784 0.83137255
v 0.05152055 -0.01105396 0.00573107 0.08627451 0.01960784 0.83137255
v 0.00081771 -0.01116910 0.01134433 0.08627451 0.01960784 0.83137255
f 1 2 3
f 1 3 4
f 1 4 5
f 1 5 6
f 1 6 7
f 1 7 8
f 1 8 9
f 1 9 10
f 1 10 11
f 1 11 12
f 1 12 27
f 1 27 13
f 1 13 29
f 1 29 14
f 1 14 15
f 1 15 2
f 2 15 16
f 2 16 3
f 3 17 18
f 3 18 4
f 3 16 17
f 4 18 19
f 4 19 20
f 4 20 5
f 5 20 6
f 6 20 21
f 6 21 22
f 6 22 7
f 7 22 23
f 7 23 8
f 8 23 24
f 8 24 9
f 9 24 10
f 10 24 25
f 10 25 26
f 10 26 11
f 11 26 12
f 12 26 28
f 12 28 46
f 12 46 27
f 13 27 46
f 13 46 47
f 13 47 67
f 13 67 66
f 13 66 87
f 13 87 86
f 13 86 107
f 13 107 106
f 13 106 128
f 13 128 127
f 13 127 126
f 13 126 154
f 13 154 153
f 13 153 182
f 13 182 181
f 13 181 214
f 13 214 247
f 13 247 248
f 13 248 294
f 13 294 301
f 13 301 320
f 13 320 305
f 13 305 304
f 13 304 303
f 13 303 258
f 13 258 257
f 13 257 217
f 13 217 216
f 13 216 184
f 13 184 183
f 13 183 155
f 13 155 136
f 13 136 113
f 13 113 90
f 13 90 69
f 13 69 48
f 13 48 29
f 14 29 48
f 14 48 68
f 14 68 89
f 14 89 112
f 14 112 135
f 14 135 164
f 14 164 163
f 14 163 198
f 14 198 197
f 14 197 196
f 14 196 195
f 14 195 233
f 14 233 230
f 14 230 276
f 14 276 310
f 14 310 270
f 14 270 269
f 14 269 309
f 14 309 317
f 14 317 316
f 14 316 315
f 14 315 318
f 14 318 286
f 14 286 285
f 14 285 284
f 14 284 278
f 14 278 236
f 14 236 237
f 14 237 201
f 14 201 199
f 14 199 170
f 14 170 169
f 14 169 168
f 14 168 172
f 14 172 142
f 14 142 138
f 14 138 116
f 14 116 96
f 14 96 95
f 14 95 97
f 14 97 74
f 14 74 76
f 14 76 56
f 14 56 55
f 14 55 54
f 14 54 58
f 14 58 37
f 14 37 36
f 14 36 32
f 14 32 30
f 14 30 16
f 14 16 15
f 16 30 31
f 16 31 17
f 17 31 32
f 17 32 18
f 18 33 34
f 18 34 35
f 18 35 19
f 18 32 36
f 18 36 37
f 18 37 33
f 19 35 20
f 20 35 38
f 20 38 39
f 20 39 21
f 21 39 22
f 22 39 40
f 22 40 41
f 22 41 23
f 23 41 24
f 24 41 42
f 24 42 43
f 24 43 25
f 25 43 26
f 26 43 44
f 26 44 45
f 26 45 28
f 28 45 47
f 28 47 46
f 30 32 31
f 33 49 34
f 33 37 50
f 33 50 49
f 34 51 52
f 34 52 53
f 34 53 35
f 34 49 54
f 34 54 55
f 34 55 56
f 34 56 51
f 35 53 57
f 35 57 38
f 37 58 50
f 38 57 39
f 39 57 59
f 39 59 60
f 39 60 40
f 40 60 41
f 41 60 61
f 41 61 62
f 41 62 42
f 42 62 43
f 43 62 63
f 43 63 64
f 43 64 44
f 44 64 45
f 45 64 65
f 45 65 66
f 45 66 67
f 45 67 47
f 48 69 88
f 48 88 68
f 49 50 58
f 49 58 54
f 51 70 52
f 51 56 71
f 51 71 77
f 51 77 91
f 51 91 70
f 52 72 73
f 52 73 53
f 52 70 91
f 52 91 74
f 52 74 92
f 52 92 72
f 53 75 57
f 53 73 75
f 56 76 77
f 56 77 71
f 57 78 79
f 57 79 59
f 57 75 78
f 59 79 60
f 60 79 80
f 60 80 81
f 60 81 61
f 61 81 62
f 62 81 82
f 62 82 83
f 62 83 63
f 63 83 64
f 64 83 84
f 64 84 85
f 64 85 65
f 65 86 87
f 65 87 66
f 65 85 86
f 68 88 89
f 69 90 108
f 69 108 88
f 72 92 95
f 72 95 73
f 73 93 94
f 73 94 75
f 73 95 96
f 73 96 93
f 74 91 76
f 74 97 92
f 75 94 98
f 75 98 78
f 76 91 77
f 78 98 79
f 79 99 100
f 79 100 80
f 79 98 99
f 80 100 81
f 81 100 101
f 81 101 102
f 81 102 82
f 82 102 83
f 83 102 103
f 83 103 84
f 84 103 104
f 84 104 85
f 85 104 105
f 85 105 106
f 85 106 107
f 85 107 86
f 88 108 109
f 88 109 110
f 88 110 111
f 88 111 89
f 89 111 112
f 90 113 108
f 92 97 95
f 93 114 115
f 93 115 94
f 93 96 116
f 93 116 137
f 93 137 114
f 94 115 117
f 94 117 98
f 98 118 119
f 98 119 99
f 98 117 118
f 99 119 100
f 100 120 121
f 100 121 101
f 100 119 120
f 101 121 102
f 102 121 122
f 102 122 123
f 102 123 103
f 103 123 124
f 103 124 104
f 104 124 105
f 105 124 125
f 105 125 126
f 105 126 127
f 105 127 128
f 105 128 106
f 108 113 129
f 108 129 109
f 109 130 131
f 109 131 110
f 109 129 132
f 109 132 130
f 110 131 133
f 110 133 112
f 110 112 111
f 112 134 135
f 112 133 134
f 113 136 129
f 114 137 138
f 114 138 115
f 115 139 140
f 115 140 141
f 115 141 117
f 115 138 142
f 115 142 143
f 115 143 139
f 116 138 144
f 116 144 137
f 117 141 145
f 117 145 118
f 118 145 119
f 119 145 146
f 119 146 147
f 119 147 120
f 120 147 121
f 121 148 122
f 121 147 148
f 122 149 150
f 122 150 123
f 122 148 149
f 123 150 151
f 123 151 124
f 124 151 125
f 125 151 152
f 125 152 153
f 125 153 154
f 125 154 126
f 129 136 155
f 129 155 156
f 129 156 157
f 129 157 132
f 130 158 131
f 130 132 159
f 130 159 158
f 131 158 160
f 131 160 161
f 131 161 162
f 131 162 163
f 131 163 164
f 131 164 133
f 132 157 159
f 133 164 134
f 134 164 135
f 137 144 138
f 139 165 140
f 139 143 165
f 140 166 167
f 140 167 141
f 140 165 168
f 140 168 169
f 140 169 170
f 140 170 166
f 141 167 171
f 141 171 173
f 141 173 145
f 142 172 143
f 143 172 168
f 143 168 165
f 145 173 174
f 145 174 146
f 146 174 147
f 147 174 175
f 147 175 176
f 147 176 148
f 148 176 149
f 149 176 177
f 149 177 150
f 150 177 178
f 150 178 151
f 151 178 179
f 151 179 180
f 151 180 152
f 152 180 181
f 152 181 182
f 152 182 153
f 155 183 156
f 156 183 184
f 156 184 185
f 156 185 186
f 156 186 157
f 157 186 187
f 157 187 188
f 157 188 159
f 158 189 160
f 158 159 190
f 158 190 191
f 158 191 189
f 159 188 192
f 159 192 190
f 160 189 193
f 160 193 194
f 160 194 195
f 160 195 196
f 160 196 197
f 160 197 161
f 161 197 198
f 161 198 162
f 162 198 163
f 166 170 199
f 166 199 167
f 167 200 202
f 167 202 171
f 167 199 201
f 167 201 237
f 167 237 235
f 167 235 200
f 171 202 203
f 171 203 173
f 173 203 204
f 173 204 174
f 174 205 206
f 174 206 175
f 174 204 205
f 175 206 207
f 175 207 208
f 175 208 176
f 176 208 209
f 176 209 177
f 177 209 210
f 177 210 178
f 178 211 212
f 178 212 179
f 178 210 211
f 179 213 215
f 179 215 180
f 179 212 213
f 180 214 181
f 180 215 247
f 180 247 214
f 184 216 185
f 185 216 217
f 185 217 218
f 185 218 186
f 186 218 219
f 186 219 187
f 187 219 220
f 187 220 221
f 187 221 222
f 187 222 192
f 187 192 188
f 189 223 224
f 189 224 193
f 189 191 223
f 190 192 191
f 191 192 225
f 191 225 226
f 191 226 227
f 191 227 223
f 192 222 225
f 193 228 194
f 193 224 229
f 193 229 275
f 193 275 230
f 193 230 274
f 193 274 228
f 194 228 274
f 194 274 232
f 194 232 231
f 194 231 195
f 195 231 232
f 195 232 233
f 200 234 202
f 200 235 236
f 200 236 234
f 202 234 238
f 202 238 239
f 202 239 203
f 203 240 241
f 203 241 205
f 203 205 204
f 203 239 240
f 205 241 207
f 205 207 206
f 207 241 242
f 207 242 243
f 207 243 208
f 208 243 209
f 209 243 244
f 209 244 211
f 209 211 210
f 211 244 245
f 211 245 246
f 211 246 213
f 211 213 212
f 213 246 215
f 215 248 247
f 215 246 249
f 215 249 250
f 215 250 251
f 215 251 252
f 215 252 253
f 215 253 254
f 215 254 255
f 215 255 256
f 215 256 248
f 217 257 218
f 218 257 258
f 218 258 259
f 218 259 219
f 219 259 260
f 219 260 261
f 219 261 220
f 220 261 221
f 221 262 263
f 221 263 222
f 221 261 264
f 221 264 265
f 221 265 262
f 222 263 225
f 223 266 267
f 223 267 224
f 223 227 268
f 223 268 266
f 224 267 269
f 224 269 270
f 224 270 275
f 224 275 229
f 225 263 226
f 226 263 271
f 226 271 272
f 226 272 273
f 226 273 268
f 226 268 227
f 230 275 276
f 230 233 274
f 232 274 233
f 234 277 238
f 234 236 279
f 234 279 277
f 235 237 236
f 236 278 279
f 238 280 281
f 238 281 282
f 238 282 239
f 238 277 283
f 238 283 284
f 238 284 285
f 238 285 286
f 238 286 280
f 239 282 287
f 239 287 240
f 240 288 241
f 240 287 288
f 241 288 289
f 241 289 290
f 241 290 242
f 242 290 291
f 242 291 243
f 243 291 244
f 244 291 292
f 244 292 293
f 244 293 245
f 245 293 246
f 246 293 249
f 248 256 294
f 249 293 250
f 250 293 295
f 250 295 296
f 250 296 251
f 251 296 297
f 251 297 252
f 252 297 253
f 253 297 298
f 253 298 299
f 253 299 254
f 254 299 300
f 254 300 255
f 255 300 256
f 256 301 294
f 256 300 302
f 256 302 301
f 258 303 259
f 259 303 304
f 259 304 305
f 259 305 302
f 259 302 300
f 259 300 260
f 260 300 261
f 261 300 299
f 261 299 264
f 262 306 263
f 262 265 307
f 262 307 306
f 263 306 271
f 264 299 298
f 264 298 265
f 265 298 297
f 265 297 307
f 266 287 282
f 266 282 267
f 266 268 287
f 267 282 308
f 267 308 309
f 267 309 269
f 268 273 289
f 268 289 288
f 268 288 287
f 270 310 275
f 271 306 311
f 271 311 272
f 272 290 289
f 272 289 273
f 272 311 290
f 275 310 276
f 277 312 283
f 277 279 284
f 277 284 312
f 278 284 313
f 278 313 279
f 279 313 284
f 280 286 314
f 280 314 281
f 281 314 282
f 282 314 315
f 282 315 316
f 282 316 317
f 282 317 308
f 283 312 284
f 286 318 314
f 290 311 291
f 291 311 292
f 292 311 319
f 292 319 293
f 293 319 295
f 295 319 307
f 295 307 296
f 296 307 297
f 301 302 320
f 302 305 320
f 306 307 311
f 307 319 311
f 308 317 321
f 308 321 309
f 309 321 317
f 314 318 315

