# https://github.com/mikedh/trimesh
v -0.02152298 -0.00549675 -0.00070966 0.69411765 0.05882353 0.66666667
v -0.00959275 -0.00550885 -0.00070966 0.69411765 0.05882353 0.66666667
v -0.02176837 -0.00549675 -0.00577672 0.69411765 0.05882353 0.66666667
v -0.04938356 -0.00549675 -0.00070966 0.69411765 0.05882353 0.66666667
v -0.00959275 -0.01200268 -0.00070966 0.69411765 0.05882353 0.66666667
v -0.00959275 -0.00574005 -0.00577672 0.69411765 0.05882353 0.66666667
v -0.04938356 -0.00549675 -0.00577672 0.69411765 0.05882353 0.66666667
v -0.04938356 -0.01170270 -0.00070966 0.69411765 0.05882353 0.66666667
v -0.00959275 -0.01200268 -0.00577672 0.69411765 0.05882353 0.66666667
v -0.04845656 -0.01200268 -0.00070966 0.69411765 0.05882353 0.66666667
v -0.04938356 -0.01170270 -0.00577672 0.69411765 0.05882353 0.66666667
v -0.04921997 -0.01180970 -0.00070966 0.69411765 0.05882353 0.66666667
v -0.04845656 -0.01200268 -0.00577672 0.69411765 0.05882353 0.66666667
v -0.04860067 -0.01199122 -0.00070966 0.69411765 0.05882353 0.66666667
v -0.04851498 -0.01199823 -0.00577672 0.69411765 0.05882353 0.66666667
v -0.04921997 -0.01180970 -0.00577672 0.69411765 0.05882353 0.66666667
v -0.04916155 -0.01183645 -0.00577672 0.69411765 0.05882353 0.66666667
v -0.04909144 -0.01186639 -0.00070966 0.69411765 0.05882353 0.66666667
v -0.04872142 -0.01198103 -0.00070966 0.69411765 0.05882353 0.66666667
v -0.04866689 -0.01198612 -0.00577672 0.69411765 0.05882353 0.66666667
v -0.04897849 -0.01191607 -0.00577672 0.69411765 0.05882353 0.66666667
v -0.04897849 -0.01191607 -0.00070966 0.69411765 0.05882353 0.66666667
v -0.04872142 -0.01198103 -0.00577672 0.69411765 0.05882353 0.66666667
v -0.04884216 -0.01195110 -0.00070966 0.69411765 0.05882353 0.66666667
v -0.04892395 -0.01193008 -0.00577672 0.69411765 0.05882353 0.66666667
f 1 2 3
f 1 3 7
f 1 7 4
f 1 4 8
f 1 8 12
f 1 12 18
f 1 18 22
f 1 22 24
f 1 24 19
f 1 19 14
f 1 14 10
f 1 10 5
f 1 5 2
f 2 5 9
f 2 9 6
f 2 6 3
f 3 6 9
f 3 9 13
f 3 13 15
f 3 15 20
f 3 20 23
f 3 23 25
f 3 25 21
f 3 21 17
f 3 17 16
f 3 16 11
f 3 11 7
f 4 7 11
f 4 11 8
f 5 10 13
f 5 13 9
f 8 11 16
f 8 16 12
f 10 14 15
f 10 15 13
f 12 17 18
f 12 16 17
f 14 19 20
f 14 20 15
f 17 21 22
f 17 22 18
f 19 23 20
f 19 24 23
f 21 25 24
f 21 24 22
f 23 24 25

