# https://github.com/mikedh/trimesh
v -0.00200745 0.01200209 -0.00577729 0.43529412 0.89019608 0.96078431
v -0.00200745 0.00574025 -0.00577729 0.43529412 0.89019608 0.96078431
v -0.00200745 0.01200209 -0.01014586 0.43529412 0.89019608 0.96078431
v -0.04845608 0.01200209 -0.00577729 0.43529412 0.89019608 0.96078431
v -0.00200745 0.00593245 -0.00999559 0.43529412 0.89019608 0.96078431
v -0.02177223 0.00572982 -0.00577729 0.43529412 0.89019608 0.96078431
v -0.02198555 0.00572982 -0.01020608 0.43529412 0.89019608 0.96078431
v -0.02199483 0.00572982 -0.01032484 0.43529412 0.89019608 0.96078431
v -0.02201801 0.00572982 -0.01043796 0.43529412 0.89019608 0.96078431
v -0.02205048 0.00572982 -0.01055390 0.43529412 0.89019608 0.96078431
v -0.02209221 0.00572982 -0.01066196 0.43529412 0.89019608 0.96078431
v -0.02214786 0.00572982 -0.01077115 0.43529412 0.89019608 0.96078431
v -0.02221278 0.00572982 -0.01087077 0.43529412 0.89019608 0.96078431
v -0.02227771 0.00572982 -0.01096363 0.43529412 0.89019608 0.96078431
v -0.02236118 0.00572982 -0.01105875 0.43529412 0.89019608 0.96078431
v -0.02255132 0.00572982 -0.01122028 0.43529412 0.89019608 0.96078431
v -0.02256059 0.00572982 -0.01122759 0.43529412 0.89019608 0.96078431
v -0.02276000 0.00572982 -0.01135141 0.43529412 0.89019608 0.96078431
v -0.02300115 0.00572982 -0.01144765 0.43529412 0.89019608 0.96078431
v -0.00200745 0.01199411 -0.01024492 0.43529412 0.89019608 0.96078431
v -0.01150493 0.01200025 -0.01017569 0.43529412 0.89019608 0.96078431
v -0.04845608 0.01200209 -0.01014586 0.43529412 0.89019608 0.96078431
v -0.04851636 0.01199779 -0.00577729 0.43529412 0.89019608 0.96078431
v -0.00200745 0.00594227 -0.01020721 0.43529412 0.89019608 0.96078431
v -0.04937893 0.00572982 -0.00577729 0.43529412 0.89019608 0.96078431
v -0.02301970 0.00572982 -0.01145215 0.43529412 0.89019608 0.96078431
v -0.00200745 0.01199288 -0.01025899 0.43529412 0.89019608 0.96078431
v -0.04845608 0.01198060 -0.01038562 0.43529412 0.89019608 0.96078431
v -0.04849781 0.01198060 -0.01038224 0.43529412 0.89019608 0.96078431
v -0.04854882 0.01198060 -0.01037099 0.43529412 0.89019608 0.96078431
v -0.04858592 0.01198060 -0.01035354 0.43529412 0.89019608 0.96078431
v -0.04862302 0.01198060 -0.01032934 0.43529412 0.89019608 0.96078431
v -0.04865548 0.01198060 -0.01030007 0.43529412 0.89019608 0.96078431
v -0.04868331 0.01198060 -0.01026574 0.43529412 0.89019608 0.96078431
v -0.04870650 0.01198060 -0.01022803 0.43529412 0.89019608 0.96078431
v -0.04871577 0.01198060 -0.01018751 0.43529412 0.89019608 0.96078431
v -0.04872041 0.01198060 -0.01014586 0.43529412 0.89019608 0.96078431
v -0.04872041 0.01198060 -0.00577729 0.43529412 0.89019608 0.96078431
v -0.00200745 0.00595332 -0.01032540 0.43529412 0.89019608 0.96078431
v -0.02325157 0.00572982 -0.01150618 0.43529412 0.89019608 0.96078431
v -0.04937893 0.01170245 -0.00577729 0.43529412 0.89019608 0.96078431
v -0.04937893 0.00572982 -0.01123829 0.43529412 0.89019608 0.96078431
v -0.00200745 0.01199165 -0.01027249 0.43529412 0.89019608 0.96078431
v -0.01185274 0.01198122 -0.01038562 0.43529412 0.89019608 0.96078431
v -0.04845608 0.01191552 -0.01061806 0.43529412 0.89019608 0.96078431
v -0.04854882 0.01191552 -0.01061075 0.43529412 0.89019608 0.96078431
v -0.01150493 0.01197323 -0.01041489 0.43529412 0.89019608 0.96078431
v -0.04863693 0.01191552 -0.01058936 0.43529412 0.89019608 0.96078431
v -0.04871577 0.01191552 -0.01055503 0.43529412 0.89019608 0.96078431
v -0.04878997 0.01191552 -0.01050775 0.43529412 0.89019608 0.96078431
v -0.04885489 0.01191552 -0.01044922 0.43529412 0.89019608 0.96078431
v -0.04890591 0.01191552 -0.01038224 0.43529412 0.89019608 0.96078431
v -0.04894301 0.01191552 -0.01030739 0.43529412 0.89019608 0.96078431
v -0.04897083 0.01191552 -0.01022803 0.43529412 0.89019608 0.96078431
v -0.04897546 0.01191552 -0.01014586 0.43529412 0.89019608 0.96078431
v -0.04897546 0.01191552 -0.00577729 0.43529412 0.89019608 0.96078431
v -0.00200745 0.00597359 -0.01043965 0.43529412 0.89019608 0.96078431
v -0.02327476 0.00572982 -0.01150844 0.43529412 0.89019608 0.96078431
v -0.04921661 0.01180929 -0.00577729 0.43529412 0.89019608 0.96078431
v -0.04937893 0.01170245 -0.01014586 0.43529412 0.89019608 0.96078431
v -0.04937893 0.01056220 -0.01123829 0.43529412 0.89019608 0.96078431
v -0.04926763 0.00572982 -0.01130976 0.43529412 0.89019608 0.96078431
v -0.00200745 0.01198122 -0.01038562 0.43529412 0.89019608 0.96078431
v -0.03613902 0.01182280 -0.01080886 0.43529412 0.89019608 0.96078431
v -0.04845608 0.01180929 -0.01083587 0.43529412 0.89019608 0.96078431
v -0.04858592 0.01180929 -0.01082574 0.43529412 0.89019608 0.96078431
v -0.01150493 0.01194069 -0.01053083 0.43529412 0.89019608 0.96078431
v -0.01185274 0.01191613 -0.01061806 0.43529412 0.89019608 0.96078431
v -0.01185274 0.01187683 -0.01069911 0.43529412 0.89019608 0.96078431
v -0.00200745 0.01197569 -0.01040588 0.43529412 0.89019608 0.96078431
v -0.04871577 0.01180929 -0.01079422 0.43529412 0.89019608 0.96078431
v -0.04883634 0.01180929 -0.01074357 0.43529412 0.89019608 0.96078431
v -0.04894301 0.01180929 -0.01067434 0.43529412 0.89019608 0.96078431
v -0.04904039 0.01180929 -0.01058936 0.43529412 0.89019608 0.96078431
v -0.04911459 0.01180929 -0.01049087 0.43529412 0.89019608 0.96078431
v -0.04917024 0.01180929 -0.01038224 0.43529412 0.89019608 0.96078431
v -0.04920270 0.01180929 -0.01026574 0.43529412 0.89019608 0.96078431
v -0.04921661 0.01180929 -0.01014586 0.43529412 0.89019608 0.96078431
v -0.04916560 0.01183262 -0.00577729 0.43529412 0.89019608 0.96078431
v -0.00200745 0.00600429 -0.01055165 0.43529412 0.89019608 0.96078431
v -0.02350663 0.00572982 -0.01152588 0.43529412 0.89019608 0.96078431
v -0.00200745 0.00604543 -0.01066196 0.43529412 0.89019608 0.96078431
v -0.04937893 0.01169262 -0.01029332 0.43529412 0.89019608 0.96078431
v -0.04937893 0.01081211 -0.01121296 0.43529412 0.89019608 0.96078431
v -0.04921661 0.01056220 -0.01134128 0.43529412 0.89019608 0.96078431
v -0.04921661 0.00572982 -0.01134128 0.43529412 0.89019608 0.96078431
v -0.01185274 0.01182341 -0.01080829 0.43529412 0.89019608 0.96078431
v -0.01185274 0.01180990 -0.01083587 0.43529412 0.89019608 0.96078431
v -0.04845608 0.01166561 -0.01103342 0.43529412 0.89019608 0.96078431
v -0.04862302 0.01166561 -0.01101991 0.43529412 0.89019608 0.96078431
v -0.00200745 0.01194315 -0.01052182 0.43529412 0.89019608 0.96078431
v -0.00200745 0.01191613 -0.01061806 0.43529412 0.89019608 0.96078431
v -0.00200745 0.01181911 -0.01081730 0.43529412 0.89019608 0.96078431
v -0.04878997 0.01166561 -0.01097939 0.43529412 0.89019608 0.96078431
v -0.04894301 0.01166561 -0.01091410 0.43529412 0.89019608 0.96078431
v -0.04908213 0.01166561 -0.01082574 0.43529412 0.89019608 0.96078431
v -0.04920270 0.01166561 -0.01071599 0.43529412 0.89019608 0.96078431
v -0.04930472 0.01166561 -0.01058936 0.43529412 0.89019608 0.96078431
v -0.04937893 0.01166561 -0.01044922 0.43529412 0.89019608 0.96078431
v -0.04845608 0.00572982 -0.01152701 0.43529412 0.89019608 0.96078431
v -0.00200745 0.00749576 -0.01152645 0.43529412 0.89019608 0.96078431
v -0.00200745 0.00738155 -0.01152588 0.43529412 0.89019608 0.96078431
v -0.00200745 0.00715374 -0.01150787 0.43529412 0.89019608 0.96078431
v -0.00200745 0.00713778 -0.01150618 0.43529412 0.89019608 0.96078431
v -0.00200745 0.00690199 -0.01144765 0.43529412 0.89019608 0.96078431
v -0.00200745 0.00667910 -0.01135141 0.43529412 0.89019608 0.96078431
v -0.00200745 0.00649182 -0.01122984 0.43529412 0.89019608 0.96078431
v -0.00200745 0.00647709 -0.01122028 0.43529412 0.89019608 0.96078431
v -0.00200745 0.00630516 -0.01106325 0.43529412 0.89019608 0.96078431
v -0.00200745 0.00622718 -0.01097207 0.43529412 0.89019608 0.96078431
v -0.00200745 0.00622165 -0.01096532 0.43529412 0.89019608 0.96078431
v -0.00200745 0.00615718 -0.01087245 0.43529412 0.89019608 0.96078431
v -0.00200745 0.00609823 -0.01077227 0.43529412 0.89019608 0.96078431
v -0.04937893 0.01105465 -0.01113923 0.43529412 0.89019608 0.96078431
v -0.04920270 0.01081211 -0.01132327 0.43529412 0.89019608 0.96078431
v -0.04897083 0.01081211 -0.01142345 0.43529412 0.89019608 0.96078431
v -0.04897546 0.01056220 -0.01144315 0.43529412 0.89019608 0.96078431
v -0.04897546 0.00572982 -0.01144315 0.43529412 0.89019608 0.96078431
v -0.01150493 0.01180990 -0.01083587 0.43529412 0.89019608 0.96078431
v -0.01150493 0.01175587 -0.01091016 0.43529412 0.89019608 0.96078431
v -0.04845608 0.01148815 -0.01120339 0.43529412 0.89019608 0.96078431
v -0.00200745 0.01166561 -0.01103342 0.43529412 0.89019608 0.96078431
v -0.01185274 0.01151149 -0.01118144 0.43529412 0.89019608 0.96078431
v -0.04865548 0.01148815 -0.01118707 0.43529412 0.89019608 0.96078431
v -0.04885489 0.01148815 -0.01113923 0.43529412 0.89019608 0.96078431
v -0.00200745 0.01181297 -0.01082968 0.43529412 0.89019608 0.96078431
v -0.04904039 0.01148815 -0.01106156 0.43529412 0.89019608 0.96078431
v -0.04920270 0.01148815 -0.01095575 0.43529412 0.89019608 0.96078431
v -0.04934646 0.01148815 -0.01082574 0.43529412 0.89019608 0.96078431
v -0.04937893 0.01148815 -0.01078691 0.43529412 0.89019608 0.96078431
v -0.04937893 0.01158271 -0.01062932 0.43529412 0.89019608 0.96078431
v -0.04866012 0.00572982 -0.01151012 0.43529412 0.89019608 0.96078431
v -0.04872041 0.01056220 -0.01150506 0.43529412 0.89019608 0.96078431
v -0.04845608 0.01056220 -0.01152588 0.43529412 0.89019608 0.96078431
v -0.01185274 0.01056220 -0.01152645 0.43529412 0.89019608 0.96078431
v -0.00200745 0.01056220 -0.01152645 0.43529412 0.89019608 0.96078431
v -0.04937893 0.01128246 -0.01099290 0.43529412 0.89019608 0.96078431
v -0.04930472 0.01128246 -0.01106156 0.43529412 0.89019608 0.96078431
v -0.04911459 0.01128246 -0.01118088 0.43529412 0.89019608 0.96078431
v -0.04917024 0.01105465 -0.01126924 0.43529412 0.89019608 0.96078431
v -0.04894301 0.01105465 -0.01136492 0.43529412 0.89019608 0.96078431
v -0.04870650 0.01105465 -0.01142345 0.43529412 0.89019608 0.96078431
v -0.04871577 0.01081211 -0.01148480 0.43529412 0.89019608 0.96078431
v -0.04878069 0.00572982 -0.01149099 0.43529412 0.89019608 0.96078431
v -0.00200745 0.01180561 -0.01084150 0.43529412 0.89019608 0.96078431
v -0.00200745 0.01179762 -0.01085276 0.43529412 0.89019608 0.96078431
v -0.04845608 0.01128246 -0.01134128 0.43529412 0.89019608 0.96078431
v -0.04868331 0.01128246 -0.01132327 0.43529412 0.89019608 0.96078431
v -0.00200745 0.01148815 -0.01120339 0.43529412 0.89019608 0.96078431
v -0.01185274 0.01146359 -0.01122028 0.43529412 0.89019608 0.96078431
v -0.00200745 0.01150350 -0.01118876 0.43529412 0.89019608 0.96078431
v -0.04890591 0.01128246 -0.01126924 0.43529412 0.89019608 0.96078431
v -0.04937893 0.01143535 -0.01084825 0.43529412 0.89019608 0.96078431
v -0.04937893 0.01146359 -0.01081561 0.43529412 0.89019608 0.96078431
v -0.04872041 0.00572982 -0.01150506 0.43529412 0.89019608 0.96078431
v -0.04845608 0.01081211 -0.01150506 0.43529412 0.89019608 0.96078431
v -0.03613902 0.01059352 -0.01152363 0.43529412 0.89019608 0.96078431
v -0.01150493 0.01065615 -0.01151857 0.43529412 0.89019608 0.96078431
v -0.02382198 0.01074948 -0.01151069 0.43529412 0.89019608 0.96078431
v -0.00200745 0.01069483 -0.01151519 0.43529412 0.89019608 0.96078431
v -0.04845608 0.01105465 -0.01144315 0.43529412 0.89019608 0.96078431
v -0.01150493 0.01141140 -0.01125517 0.43529412 0.89019608 0.96078431
v -0.00200745 0.01130026 -0.01132946 0.43529412 0.89019608 0.96078431
v -0.00200745 0.01128246 -0.01134128 0.43529412 0.89019608 0.96078431
v -0.03613902 0.01125360 -0.01135422 0.43529412 0.89019608 0.96078431
v -0.03613902 0.01119711 -0.01137955 0.43529412 0.89019608 0.96078431
v -0.02382198 0.01087290 -0.01148986 0.43529412 0.89019608 0.96078431
v -0.00200745 0.01083299 -0.01149999 0.43529412 0.89019608 0.96078431
v -0.00200745 0.01081211 -0.01150506 0.43529412 0.89019608 0.96078431
v -0.01185738 0.01078202 -0.01150787 0.43529412 0.89019608 0.96078431
v -0.01185274 0.01078202 -0.01150787 0.43529412 0.89019608 0.96078431
v -0.01185274 0.01105527 -0.01144315 0.43529412 0.89019608 0.96078431
v -0.00200745 0.01105527 -0.01144315 0.43529412 0.89019608 0.96078431
v -0.01150493 0.01125360 -0.01135422 0.43529412 0.89019608 0.96078431
v -0.01150493 0.01090360 -0.01148198 0.43529412 0.89019608 0.96078431
f 1 2 5
f 1 5 24
f 1 24 39
f 1 39 57
f 1 57 80
f 1 80 82
f 1 82 113
f 1 113 112
f 1 112 111
f 1 111 110
f 1 110 109
f 1 109 108
f 1 108 107
f 1 107 106
f 1 106 105
f 1 105 104
f 1 104 103
f 1 103 102
f 1 102 101
f 1 101 136
f 1 136 160
f 1 160 169
f 1 169 168
f 1 168 173
f 1 173 164
f 1 164 163
f 1 163 149
f 1 149 151
f 1 151 122
f 1 122 146
f 1 146 145
f 1 145 126
f 1 126 93
f 1 93 92
f 1 92 91
f 1 91 70
f 1 70 63
f 1 63 43
f 1 43 27
f 1 27 20
f 1 20 3
f 1 3 22
f 1 22 4
f 1 4 23
f 1 23 38
f 1 38 56
f 1 56 79
f 1 79 59
f 1 59 41
f 1 41 25
f 1 25 6
f 1 6 2
f 2 6 7
f 2 7 8
f 2 8 9
f 2 9 10
f 2 10 11
f 2 11 12
f 2 12 13
f 2 13 14
f 2 14 15
f 2 15 16
f 2 16 17
f 2 17 18
f 2 18 19
f 2 19 5
f 3 20 21
f 3 21 22
f 4 22 23
f 5 19 24
f 6 25 42
f 6 42 62
f 6 62 86
f 6 86 118
f 6 118 144
f 6 144 155
f 6 155 132
f 6 132 100
f 6 100 81
f 6 81 58
f 6 58 40
f 6 40 26
f 6 26 19
f 6 19 18
f 6 18 17
f 6 17 16
f 6 16 15
f 6 15 14
f 6 14 13
f 6 13 12
f 6 12 11
f 6 11 10
f 6 10 9
f 6 9 8
f 6 8 7
f 19 26 24
f 20 27 21
f 21 27 28
f 21 28 22
f 22 28 29
f 22 29 30
f 22 30 31
f 22 31 32
f 22 32 33
f 22 33 34
f 22 34 35
f 22 35 36
f 22 36 37
f 22 37 23
f 23 37 38
f 24 26 40
f 24 40 39
f 25 41 60
f 25 60 83
f 25 83 99
f 25 99 131
f 25 131 130
f 25 130 154
f 25 154 153
f 25 153 137
f 25 137 114
f 25 114 84
f 25 84 61
f 25 61 42
f 27 43 44
f 27 44 28
f 28 45 46
f 28 46 29
f 28 44 47
f 28 47 45
f 29 46 30
f 30 46 48
f 30 48 49
f 30 49 31
f 31 49 50
f 31 50 32
f 32 50 51
f 32 51 33
f 33 51 34
f 34 51 52
f 34 52 35
f 35 52 53
f 35 53 54
f 35 54 36
f 36 54 37
f 37 54 55
f 37 55 56
f 37 56 38
f 39 40 57
f 40 58 57
f 41 59 78
f 41 78 60
f 42 61 62
f 43 63 44
f 44 63 70
f 44 70 47
f 45 64 65
f 45 65 66
f 45 66 46
f 45 47 67
f 45 67 68
f 45 68 69
f 45 69 64
f 46 66 71
f 46 71 48
f 47 70 91
f 47 91 67
f 48 71 72
f 48 72 49
f 49 72 50
f 50 72 73
f 50 73 74
f 50 74 51
f 51 74 52
f 52 74 75
f 52 75 76
f 52 76 53
f 53 76 54
f 54 76 77
f 54 77 78
f 54 78 55
f 55 79 56
f 55 78 79
f 57 58 80
f 58 81 82
f 58 82 80
f 59 79 78
f 60 78 83
f 61 84 85
f 61 85 62
f 62 85 86
f 64 69 87
f 64 87 88
f 64 88 65
f 65 89 66
f 65 88 89
f 66 89 90
f 66 90 94
f 66 94 71
f 67 91 92
f 67 92 68
f 68 92 69
f 69 92 93
f 69 93 87
f 71 94 72
f 72 94 95
f 72 95 96
f 72 96 73
f 73 96 74
f 74 96 97
f 74 97 98
f 74 98 75
f 75 98 99
f 75 99 76
f 76 99 77
f 77 99 83
f 77 83 78
f 81 100 101
f 81 101 102
f 81 102 103
f 81 103 104
f 81 104 105
f 81 105 106
f 81 106 107
f 81 107 108
f 81 108 109
f 81 109 110
f 81 110 111
f 81 111 112
f 81 112 113
f 81 113 82
f 84 114 115
f 84 115 85
f 85 115 116
f 85 116 117
f 85 117 118
f 85 118 86
f 87 93 88
f 88 93 126
f 88 126 119
f 88 119 146
f 88 146 120
f 88 120 89
f 89 121 90
f 89 120 122
f 89 122 123
f 89 123 121
f 90 121 124
f 90 124 125
f 90 125 94
f 94 125 127
f 94 127 95
f 95 127 96
f 96 127 128
f 96 128 129
f 96 129 97
f 97 129 130
f 97 130 98
f 98 130 131
f 98 131 99
f 100 132 133
f 100 133 134
f 100 134 135
f 100 135 136
f 100 136 101
f 114 137 138
f 114 138 139
f 114 139 140
f 114 140 115
f 115 140 116
f 116 141 142
f 116 142 143
f 116 143 133
f 116 133 117
f 116 140 141
f 117 133 144
f 117 144 118
f 119 126 145
f 119 145 146
f 120 146 122
f 121 147 148
f 121 148 124
f 121 123 149
f 121 149 150
f 121 150 147
f 122 151 123
f 123 151 149
f 124 148 125
f 125 152 127
f 125 148 152
f 127 139 138
f 127 138 128
f 127 152 139
f 128 138 153
f 128 153 129
f 129 153 154
f 129 154 130
f 132 155 133
f 133 143 134
f 133 155 144
f 134 143 156
f 134 156 157
f 134 157 135
f 135 158 136
f 135 157 159
f 135 159 158
f 136 158 160
f 137 153 138
f 139 152 140
f 140 152 141
f 141 152 142
f 142 148 147
f 142 147 161
f 142 161 143
f 142 152 148
f 143 161 156
f 147 150 162
f 147 162 163
f 147 163 164
f 147 164 174
f 147 174 165
f 147 165 166
f 147 166 161
f 149 163 150
f 150 163 162
f 156 161 167
f 156 167 168
f 156 168 169
f 156 169 171
f 156 171 170
f 156 170 159
f 156 159 157
f 158 171 160
f 158 159 171
f 159 170 171
f 160 171 169
f 161 166 172
f 161 172 167
f 164 173 174
f 165 174 173
f 165 173 172
f 165 172 166
f 167 172 173
f 167 173 175
f 167 175 168
f 168 175 173

