# https://github.com/mikedh/trimesh
v -0.00959276 -0.01200265 -0.00577672 0.56470588 0.01568627 0.61568627
v -0.00959276 -0.01200265 -0.00070884 0.56470588 0.01568627 0.61568627
v -0.00959276 -0.00574050 -0.00577672 0.56470588 0.01568627 0.61568627
v 0.05008375 -0.01200265 -0.00577672 0.56470588 0.01568627 0.61568627
v -0.00959276 -0.00550957 -0.00070884 0.56470588 0.01568627 0.61568627
v -0.00946074 -0.01200265 0.00573107 0.56470588 0.01568627 0.61568627
v -0.00959276 -0.00554121 -0.00140498 0.56470588 0.01568627 0.61568627
v -0.00199593 -0.00512513 -0.00577672 0.56470588 0.01568627 0.61568627
v 0.05029377 -0.01198514 -0.00577672 0.56470588 0.01568627 0.61568627
v 0.05035377 -0.01198110 -0.00070884 0.56470588 0.01568627 0.61568627
v 0.05008375 -0.01200265 0.00573107 0.56470588 0.01568627 0.61568627
v -0.00946074 -0.00521602 0.00573107 0.56470588 0.01568627 0.61568627
v -0.00219995 -0.00512513 -0.00153114 0.56470588 0.01568627 0.61568627
v 0.05160791 -0.00512513 -0.00577672 0.56470588 0.01568627 0.61568627
v 0.05034778 -0.01198043 -0.00577672 0.56470588 0.01568627 0.61568627
v 0.05040778 -0.01196629 -0.00577672 0.56470588 0.01568627 0.61568627
v 0.05060580 -0.01191579 -0.00577672 0.56470588 0.01568627 0.61568627
v 0.05047379 -0.01195013 -0.00070884 0.56470588 0.01568627 0.61568627
v 0.05035377 -0.01198110 0.00573107 0.56470588 0.01568627 0.61568627
v -0.00254799 -0.00520996 0.00573107 0.56470588 0.01568627 0.61568627
v -0.00223595 -0.00512513 -0.00070884 0.56470588 0.01568627 0.61568627
v 0.05166792 -0.00512513 -0.00577222 0.56470588 0.01568627 0.61568627
v 0.05160791 -0.01056184 -0.00577672 0.56470588 0.01568627 0.61568627
v 0.05079783 -0.01183231 -0.00577672 0.56470588 0.01568627 0.61568627
v 0.05073182 -0.01186261 -0.00002283 0.56470588 0.01568627 0.61568627
v 0.05060580 -0.01191579 0.00573107 0.56470588 0.01568627 0.61568627
v 0.04909964 -0.00520996 0.00573107 0.56470588 0.01568627 0.61568627
v 0.05166792 -0.00512513 -0.00070884 0.56470588 0.01568627 0.61568627
v 0.05170992 -0.00520996 -0.00070884 0.56470588 0.01568627 0.61568627
v 0.05166792 -0.00959972 -0.00577222 0.56470588 0.01568627 0.61568627
v 0.05158991 -0.01075843 -0.00577672 0.56470588 0.01568627 0.61568627
v 0.05170992 -0.00959838 -0.00070884 0.56470588 0.01568627 0.61568627
v 0.05084583 -0.01180942 -0.00577672 0.56470588 0.01568627 0.61568627
v 0.05085183 -0.01180942 -0.00070884 0.56470588 0.01568627 0.61568627
v 0.05065981 -0.01189290 0.00573107 0.56470588 0.01568627 0.61568627
v 0.05085183 -0.01180942 0.00573107 0.56470588 0.01568627 0.61568627
v 0.05161391 -0.00958491 0.00573107 0.56470588 0.01568627 0.61568627
v 0.05161391 -0.00520996 0.00572656 0.56470588 0.01568627 0.61568627
v 0.05170992 -0.00520996 0.00572318 0.56470588 0.01568627 0.61568627
v 0.05160191 -0.01069582 -0.00070884 0.56470588 0.01568627 0.61568627
v 0.05158991 -0.01081230 -0.00070884 0.56470588 0.01568627 0.61568627
v 0.05158391 -0.01081230 -0.00577672 0.56470588 0.01568627 0.61568627
v 0.05170992 -0.00959838 0.00572318 0.56470588 0.01568627 0.61568627
v 0.05159591 -0.01075843 0.00573107 0.56470588 0.01568627 0.61568627
v 0.05089384 -0.01177845 -0.00577672 0.56470588 0.01568627 0.61568627
v 0.05101985 -0.01169631 -0.00577672 0.56470588 0.01568627 0.61568627
v 0.05095384 -0.01174209 -0.00070884 0.56470588 0.01568627 0.61568627
v 0.05106786 -0.01166601 0.00573107 0.56470588 0.01568627 0.61568627
v 0.05161391 -0.01056251 0.00573107 0.56470588 0.01568627 0.61568627
v 0.05158991 -0.01081230 0.00573107 0.56470588 0.01568627 0.61568627
v 0.05157791 -0.01086414 0.00573107 0.56470588 0.01568627 0.61568627
v 0.05155991 -0.01092541 -0.00070884 0.56470588 0.01568627 0.61568627
v 0.05157191 -0.01086481 -0.00577672 0.56470588 0.01568627 0.61568627
v 0.05106185 -0.01166534 -0.00577672 0.56470588 0.01568627 0.61568627
v 0.05106786 -0.01166601 -0.00070884 0.56470588 0.01568627 0.61568627
v 0.05115787 -0.01158252 -0.00070884 0.56470588 0.01568627 0.61568627
v 0.05110986 -0.01162696 0.00573107 0.56470588 0.01568627 0.61568627
v 0.05152391 -0.01105467 0.00573107 0.56470588 0.01568627 0.61568627
v 0.05152391 -0.01105467 -0.00070884 0.56470588 0.01568627 0.61568627
v 0.05153591 -0.01099475 -0.00577672 0.56470588 0.01568627 0.61568627
v 0.05110386 -0.01162696 -0.00577672 0.56470588 0.01568627 0.61568627
v 0.05125387 -0.01148759 -0.00577672 0.56470588 0.01568627 0.61568627
v 0.05121787 -0.01152597 0.00573107 0.56470588 0.01568627 0.61568627
v 0.05140989 -0.01128291 0.00573107 0.56470588 0.01568627 0.61568627
v 0.05146390 -0.01117654 -0.00070884 0.56470588 0.01568627 0.61568627
v 0.05149390 -0.01110382 -0.00577672 0.56470588 0.01568627 0.61568627
v 0.05151790 -0.01105467 -0.00577672 0.56470588 0.01568627 0.61568627
v 0.05137389 -0.01132668 -0.00577672 0.56470588 0.01568627 0.61568627
v 0.05140989 -0.01128291 -0.00070884 0.56470588 0.01568627 0.61568627
v 0.05133788 -0.01137852 -0.00070884 0.56470588 0.01568627 0.61568627
v 0.05128988 -0.01144383 0.00573107 0.56470588 0.01568627 0.61568627
v 0.05125387 -0.01148826 -0.00070884 0.56470588 0.01568627 0.61568627
v 0.05125387 -0.01148826 0.00573107 0.56470588 0.01568627 0.61568627
v 0.05143390 -0.01122569 -0.00577672 0.56470588 0.01568627 0.61568627
v 0.05140389 -0.01128224 -0.00577672 0.56470588 0.01568627 0.61568627
f 1 2 5
f 1 5 7
f 1 7 3
f 1 3 8
f 1 8 14
f 1 14 23
f 1 23 31
f 1 31 42
f 1 42 53
f 1 53 60
f 1 60 67
f 1 67 66
f 1 66 74
f 1 74 75
f 1 75 68
f 1 68 62
f 1 62 61
f 1 61 54
f 1 54 46
f 1 46 45
f 1 45 33
f 1 33 24
f 1 24 17
f 1 17 16
f 1 16 15
f 1 15 9
f 1 9 4
f 1 4 11
f 1 11 6
f 1 6 2
f 2 6 12
f 2 12 5
f 3 7 8
f 4 9 10
f 4 10 19
f 4 19 11
f 5 12 8
f 5 8 7
f 6 11 19
f 6 19 26
f 6 26 35
f 6 35 36
f 6 36 48
f 6 48 57
f 6 57 63
f 6 63 73
f 6 73 71
f 6 71 64
f 6 64 58
f 6 58 51
f 6 51 50
f 6 50 44
f 6 44 49
f 6 49 37
f 6 37 27
f 6 27 20
f 6 20 12
f 8 12 13
f 8 13 21
f 8 21 28
f 8 28 22
f 8 22 14
f 9 15 10
f 10 16 17
f 10 17 18
f 10 18 19
f 10 15 16
f 12 20 21
f 12 21 13
f 14 22 30
f 14 30 23
f 17 24 25
f 17 25 26
f 17 26 18
f 18 26 19
f 20 27 28
f 20 28 21
f 22 28 39
f 22 39 29
f 22 29 32
f 22 32 30
f 23 30 32
f 23 32 31
f 24 33 34
f 24 34 25
f 25 35 26
f 25 34 36
f 25 36 35
f 27 37 38
f 27 38 28
f 28 38 39
f 29 39 43
f 29 43 32
f 31 32 40
f 31 40 41
f 31 41 42
f 32 43 44
f 32 44 40
f 33 45 34
f 34 45 46
f 34 46 47
f 34 47 36
f 36 47 48
f 37 49 43
f 37 43 39
f 37 39 38
f 40 44 41
f 41 50 51
f 41 51 52
f 41 52 53
f 41 53 42
f 41 44 50
f 43 49 44
f 46 54 55
f 46 55 47
f 47 55 48
f 48 55 56
f 48 56 57
f 51 58 59
f 51 59 52
f 52 59 60
f 52 60 53
f 54 61 55
f 55 61 56
f 56 62 63
f 56 63 57
f 56 61 62
f 58 64 65
f 58 65 59
f 59 65 74
f 59 74 66
f 59 66 67
f 59 67 60
f 62 68 69
f 62 69 70
f 62 70 71
f 62 71 72
f 62 72 63
f 63 72 73
f 64 71 69
f 64 69 65
f 65 69 74
f 68 75 69
f 69 71 70
f 69 75 74
f 71 73 72

