# https://github.com/mikedh/trimesh
v -0.00199255 -0.00512416 -0.00577672 0.31372549 0.36078431 0.56862745
v -0.00223685 -0.00520910 -0.00070884 0.31372549 0.36078431 0.56862745
v -0.00226871 -0.00520910 -0.00008366 0.31372549 0.36078431 0.56862745
v -0.00224216 -0.00512416 -0.00070884 0.31372549 0.36078431 0.56862745
v -0.00199255 0.00550388 -0.00577672 0.31372549 0.36078431 0.56862745
v 0.05160902 -0.00512416 -0.00577672 0.31372549 0.36078431 0.56862745
v 0.05170462 -0.00520910 -0.00070884 0.31372549 0.36078431 0.56862745
v -0.00255018 -0.00520910 0.00573107 0.31372549 0.36078431 0.56862745
v -0.00224216 0.00550388 -0.00070884 0.31372549 0.36078431 0.56862745
v 0.04766312 0.00550388 -0.00577672 0.31372549 0.36078431 0.56862745
v 0.05160902 0.00000058 -0.00577672 0.31372549 0.36078431 0.56862745
v 0.05166744 -0.00512416 -0.00577222 0.31372549 0.36078431 0.56862745
v 0.05170462 0.00521236 -0.00070884 0.31372549 0.36078431 0.56862745
v 0.05170462 -0.00520910 0.00572318 0.31372549 0.36078431 0.56862745
v -0.00255018 0.00521236 0.00573107 0.31372549 0.36078431 0.56862745
v 0.04910234 -0.00520910 0.00573107 0.31372549 0.36078431 0.56862745
v 0.05166744 0.00550388 -0.00070884 0.31372549 0.36078431 0.56862745
v 0.05160902 0.00550388 -0.00577560 0.31372549 0.36078431 0.56862745
v 0.05166744 0.00550388 -0.00577222 0.31372549 0.36078431 0.56862745
v 0.05170462 0.00521236 0.00572318 0.31372549 0.36078431 0.56862745
v 0.05160902 0.00000163 0.00573107 0.31372549 0.36078431 0.56862745
v 0.05160902 -0.00520910 0.00572656 0.31372549 0.36078431 0.56862745
v 0.04910234 0.00521236 0.00573107 0.31372549 0.36078431 0.56862745
v 0.05160902 0.00521236 0.00572656 0.31372549 0.36078431 0.56862745
f 1 2 3
f 1 3 4
f 1 4 9
f 1 9 5
f 1 5 10
f 1 10 11
f 1 11 6
f 1 6 7
f 1 7 2
f 2 7 14
f 2 14 22
f 2 22 16
f 2 16 8
f 2 8 3
f 3 8 4
f 4 8 15
f 4 15 9
f 5 9 17
f 5 17 19
f 5 19 18
f 5 18 10
f 6 11 19
f 6 19 12
f 6 12 7
f 7 12 19
f 7 19 13
f 7 13 20
f 7 20 14
f 8 16 21
f 8 21 23
f 8 23 15
f 9 15 23
f 9 23 17
f 10 18 11
f 11 18 19
f 13 19 17
f 13 17 20
f 14 21 22
f 14 20 21
f 16 22 21
f 17 24 20
f 17 23 24
f 20 24 21
f 21 24 23

