# https://github.com/mikedh/trimesh
v -0.02100362 0.00500568 0.01014933 0.56470588 0.92549020 0.07058824
v -0.02100362 -0.00500427 0.01014933 0.56470588 0.92549020 0.07058824
v -0.02100640 -0.00500427 0.01000473 0.56470588 0.92549020 0.07058824
v -0.02100640 0.00500568 0.01001317 0.56470588 0.92549020 0.07058824
v -0.02101473 0.00500568 0.01026016 0.56470588 0.92549020 0.07058824
v -0.02101473 -0.00500427 0.01026016 0.56470588 0.92549020 0.07058824
v -0.02121197 -0.00500427 0.00573107 0.56470588 0.92549020 0.07058824
v -0.02121197 0.00500568 0.00573107 0.56470588 0.92549020 0.07058824
v -0.02103418 0.00500568 0.01037044 0.56470588 0.92549020 0.07058824
v -0.02103418 -0.00500427 0.01036987 0.56470588 0.92549020 0.07058824
v -0.04938078 -0.00500427 0.00573107 0.56470588 0.92549020 0.07058824
v -0.04938078 0.00500568 0.00573107 0.56470588 0.92549020 0.07058824
v -0.02106196 0.00500568 0.01047846 0.56470588 0.92549020 0.07058824
v -0.02106196 -0.00500427 0.01047846 0.56470588 0.92549020 0.07058824
v -0.04938078 -0.00500427 0.01119074 0.56470588 0.92549020 0.07058824
v -0.04938078 0.00500568 0.01119074 0.56470588 0.92549020 0.07058824
v -0.02110085 0.00500568 0.01058423 0.56470588 0.92549020 0.07058824
v -0.02110085 -0.00500427 0.01058311 0.56470588 0.92549020 0.07058824
v -0.04935300 -0.00500427 0.01120874 0.56470588 0.92549020 0.07058824
v -0.04930578 0.00500568 0.01123969 0.56470588 0.92549020 0.07058824
v -0.02114808 0.00500568 0.01068551 0.56470588 0.92549020 0.07058824
v -0.02115085 -0.00500427 0.01068719 0.56470588 0.92549020 0.07058824
v -0.04927800 -0.00500427 0.01125713 0.56470588 0.92549020 0.07058824
v -0.04927800 0.00500568 0.01125713 0.56470588 0.92549020 0.07058824
v -0.02120642 0.00500568 0.01078565 0.56470588 0.92549020 0.07058824
v -0.02120642 -0.00500427 0.01078396 0.56470588 0.92549020 0.07058824
v -0.04921966 -0.00500427 0.01129370 0.56470588 0.92549020 0.07058824
v -0.04921966 0.00500568 0.01129370 0.56470588 0.92549020 0.07058824
v -0.02127031 0.00500568 0.01087736 0.56470588 0.92549020 0.07058824
v -0.02127308 -0.00500427 0.01088017 0.56470588 0.92549020 0.07058824
v -0.04898075 -0.00500427 0.01139553 0.56470588 0.92549020 0.07058824
v -0.04898075 0.00500568 0.01139553 0.56470588 0.92549020 0.07058824
v -0.02142587 0.00500568 0.01105290 0.56470588 0.92549020 0.07058824
v -0.02142587 -0.00500427 0.01105290 0.56470588 0.92549020 0.07058824
v -0.04872240 -0.00500427 0.01145742 0.56470588 0.92549020 0.07058824
v -0.04872240 0.00500568 0.01145742 0.56470588 0.92549020 0.07058824
v -0.02160089 0.00500568 0.01119243 0.56470588 0.92549020 0.07058824
v -0.02161200 -0.00500427 0.01120030 0.56470588 0.92549020 0.07058824
v -0.04852794 -0.00500427 0.01147317 0.56470588 0.92549020 0.07058824
v -0.04859184 0.00000071 0.01146811 0.56470588 0.92549020 0.07058824
v -0.04845849 0.00500568 0.01147880 0.56470588 0.92549020 0.07058824
v -0.02161200 0.00500568 0.01120030 0.56470588 0.92549020 0.07058824
v -0.02162034 -0.00500427 0.01120649 0.56470588 0.92549020 0.07058824
v -0.04845849 -0.00500427 0.01147824 0.56470588 0.92549020 0.07058824
v -0.04845849 0.00000071 0.01147880 0.56470588 0.92549020 0.07058824
v -0.02680406 0.00500568 0.01147880 0.56470588 0.92549020 0.07058824
v -0.02180368 0.00500568 0.01131170 0.56470588 0.92549020 0.07058824
v -0.02181757 -0.00500427 0.01131958 0.56470588 0.92549020 0.07058824
v -0.02252874 -0.00500427 0.01147824 0.56470588 0.92549020 0.07058824
v -0.03549084 0.00205149 0.01147880 0.56470588 0.92549020 0.07058824
v -0.02252874 0.00500568 0.01147824 0.56470588 0.92549020 0.07058824
v -0.02181757 0.00500568 0.01131958 0.56470588 0.92549020 0.07058824
v -0.02202592 0.00500568 0.01140003 0.56470588 0.92549020 0.07058824
v -0.02204537 -0.00500427 0.01140735 0.56470588 0.92549020 0.07058824
v -0.02230650 -0.00500427 0.01146248 0.56470588 0.92549020 0.07058824
v -0.02250096 0.00500568 0.01147655 0.56470588 0.92549020 0.07058824
v -0.02204537 0.00500568 0.01140735 0.56470588 0.92549020 0.07058824
v -0.02228428 -0.00500427 0.01146080 0.56470588 0.92549020 0.07058824
v -0.02228428 0.00500568 0.01146080 0.56470588 0.92549020 0.07058824
f 1 2 3
f 1 3 4
f 1 4 8
f 1 8 12
f 1 12 16
f 1 16 20
f 1 20 24
f 1 24 28
f 1 28 32
f 1 32 36
f 1 36 41
f 1 41 46
f 1 46 51
f 1 51 56
f 1 56 59
f 1 59 57
f 1 57 53
f 1 53 52
f 1 52 47
f 1 47 42
f 1 42 37
f 1 37 33
f 1 33 29
f 1 29 25
f 1 25 21
f 1 21 17
f 1 17 13
f 1 13 9
f 1 9 5
f 1 5 6
f 1 6 2
f 2 6 10
f 2 10 14
f 2 14 18
f 2 18 22
f 2 22 26
f 2 26 30
f 2 30 34
f 2 34 38
f 2 38 43
f 2 43 48
f 2 48 54
f 2 54 58
f 2 58 55
f 2 55 49
f 2 49 44
f 2 44 39
f 2 39 35
f 2 35 31
f 2 31 27
f 2 27 23
f 2 23 19
f 2 19 15
f 2 15 11
f 2 11 7
f 2 7 3
f 3 7 8
f 3 8 4
f 5 9 6
f 6 9 10
f 7 11 12
f 7 12 8
f 9 13 14
f 9 14 10
f 11 15 16
f 11 16 12
f 13 17 14
f 14 17 18
f 15 19 20
f 15 20 16
f 17 21 18
f 18 21 22
f 19 23 20
f 20 23 24
f 21 25 26
f 21 26 22
f 23 27 28
f 23 28 24
f 25 29 30
f 25 30 26
f 27 31 32
f 27 32 28
f 29 33 34
f 29 34 30
f 31 35 36
f 31 36 32
f 33 37 34
f 34 37 38
f 35 39 40
f 35 40 36
f 36 40 41
f 37 42 43
f 37 43 38
f 39 44 45
f 39 45 40
f 40 45 41
f 41 45 50
f 41 50 46
f 42 47 43
f 43 47 48
f 44 49 45
f 45 49 50
f 46 50 49
f 46 49 51
f 47 52 48
f 48 52 53
f 48 53 54
f 49 55 56
f 49 56 51
f 53 57 54
f 54 57 59
f 54 59 58
f 55 58 59
f 55 59 56

