# https://github.com/mikedh/trimesh
v -0.02121337 0.00521279 0.00572791 0.67843137 0.35686275 0.43529412
v -0.02121337 0.00268666 0.00573107 0.67843137 0.35686275 0.43529412
v -0.02118577 -0.00521529 0.00573107 0.67843137 0.35686275 0.43529412
v -0.02118577 -0.00547987 -0.00010442 0.67843137 0.35686275 0.43529412
v -0.02118577 -0.00550852 -0.00070903 0.67843137 0.35686275 0.43529412
v -0.02149214 0.00521279 -0.00008425 0.67843137 0.35686275 0.43529412
v -0.02283634 0.00521279 0.00573107 0.67843137 0.35686275 0.43529412
v -0.02118577 -0.01200332 0.00573107 0.67843137 0.35686275 0.43529412
v -0.02118577 -0.01200332 -0.00070903 0.67843137 0.35686275 0.43529412
v -0.02152250 0.00521279 -0.00070903 0.67843137 0.35686275 0.43529412
v -0.04938080 0.00521279 0.00573107 0.67843137 0.35686275 0.43529412
v -0.04845891 -0.01200332 0.00573107 0.67843137 0.35686275 0.43529412
v -0.04845891 -0.01200332 -0.00070903 0.67843137 0.35686275 0.43529412
v -0.04938080 0.00521279 -0.00070903 0.67843137 0.35686275 0.43529412
v -0.04938080 -0.01170167 0.00573107 0.67843137 0.35686275 0.43529412
v -0.04872388 -0.01198141 0.00573107 0.67843137 0.35686275 0.43529412
v -0.04872388 -0.01198141 -0.00070903 0.67843137 0.35686275 0.43529412
v -0.04938080 -0.01170167 -0.00070903 0.67843137 0.35686275 0.43529412
v -0.04933388 -0.01173537 -0.00070903 0.67843137 0.35686275 0.43529412
v -0.04926763 -0.01177919 0.00573107 0.67843137 0.35686275 0.43529412
v -0.04884257 -0.01195108 -0.00070903 0.67843137 0.35686275 0.43529412
v -0.04898058 -0.01191569 0.00573107 0.67843137 0.35686275 0.43529412
v -0.04922071 -0.01180952 -0.00070903 0.67843137 0.35686275 0.43529412
v -0.04922071 -0.01180952 0.00573107 0.67843137 0.35686275 0.43529412
v -0.04898058 -0.01191569 -0.00070903 0.67843137 0.35686275 0.43529412
v -0.04916827 -0.01183311 0.00573107 0.67843137 0.35686275 0.43529412
f 1 2 3
f 1 3 4
f 1 4 5
f 1 5 6
f 1 6 10
f 1 10 14
f 1 14 11
f 1 11 7
f 1 7 2
f 2 7 11
f 2 11 15
f 2 15 20
f 2 20 24
f 2 24 26
f 2 26 22
f 2 22 16
f 2 16 12
f 2 12 8
f 2 8 3
f 3 8 9
f 3 9 5
f 3 5 4
f 5 9 13
f 5 13 17
f 5 17 21
f 5 21 25
f 5 25 23
f 5 23 19
f 5 19 18
f 5 18 14
f 5 14 10
f 5 10 6
f 8 12 13
f 8 13 9
f 11 14 18
f 11 18 15
f 12 16 17
f 12 17 13
f 15 19 20
f 15 18 19
f 16 21 17
f 16 22 21
f 19 23 20
f 20 23 24
f 21 22 25
f 22 26 25
f 23 25 26
f 23 26 24

