# https://github.com/mikedh/trimesh
v 0.05008898 0.01200332 -0.00577672 0.67058824 0.20784314 0.12549020
v 0.05029894 0.01198596 -0.00577672 0.67058824 0.20784314 0.12549020
v 0.05008898 0.01200332 -0.01014630 0.67058824 0.20784314 0.12549020
v -0.00200745 0.01200332 -0.00577672 0.67058824 0.20784314 0.12549020
v 0.05035667 0.01198075 -0.00577672 0.67058824 0.20784314 0.12549020
v 0.05035667 0.01198075 -0.01014630 0.67058824 0.20784314 0.12549020
v 0.05008898 0.01198075 -0.01038608 0.67058824 0.20784314 0.12549020
v 0.03776955 0.01198943 -0.01029602 0.67058824 0.20784314 0.12549020
v -0.00200745 0.01199291 -0.01025943 0.67058824 0.20784314 0.12549020
v -0.00200745 0.01200332 -0.01014630 0.67058824 0.20784314 0.12549020
v -0.00200745 0.00573875 -0.00577672 0.67058824 0.20784314 0.12549020
v 0.05041967 0.01196513 -0.00577672 0.67058824 0.20784314 0.12549020
v 0.05055614 0.01193042 -0.00577672 0.67058824 0.20784314 0.12549020
v 0.05060863 0.01191479 -0.01014630 0.67058824 0.20784314 0.12549020
v 0.05060863 0.01189570 -0.01037144 0.67058824 0.20784314 0.12549020
v 0.05035667 0.01195819 -0.01038270 0.67058824 0.20784314 0.12549020
v 0.05035667 0.01189570 -0.01061123 0.67058824 0.20784314 0.12549020
v 0.05008898 0.01191479 -0.01061855 0.67058824 0.20784314 0.12549020
v 0.02545012 0.01193215 -0.01056057 0.67058824 0.20784314 0.12549020
v 0.02545012 0.01196513 -0.01044405 0.67058824 0.20784314 0.12549020
v -0.00200745 0.01197555 -0.01040578 0.67058824 0.20784314 0.12549020
v -0.00200745 0.01197902 -0.01039283 0.67058824 0.20784314 0.12549020
v -0.00200745 0.01198075 -0.01038608 0.67058824 0.20784314 0.12549020
v 0.01313595 0.01198943 -0.01029602 0.67058824 0.20784314 0.12549020
v -0.00199695 -0.00572982 -0.00577672 0.67058824 0.20784314 0.12549020
v -0.00200745 0.00594010 -0.01020765 0.67058824 0.20784314 0.12549020
v 0.05060863 0.01191479 -0.00577672 0.67058824 0.20784314 0.12549020
v 0.05067162 0.01188876 -0.00577672 0.67058824 0.20784314 0.12549020
v 0.05085009 0.01180891 -0.01014630 0.67058824 0.20784314 0.12549020
v 0.05060863 0.01183321 -0.01058984 0.67058824 0.20784314 0.12549020
v 0.05085009 0.01178981 -0.01035400 0.67058824 0.20784314 0.12549020
v 0.05085009 0.01173427 -0.01055550 0.67058824 0.20784314 0.12549020
v 0.05060863 0.01173427 -0.01079472 0.67058824 0.20784314 0.12549020
v 0.05035667 0.01178981 -0.01082624 0.67058824 0.20784314 0.12549020
v 0.05008898 0.01180891 -0.01083638 0.67058824 0.20784314 0.12549020
v 0.03776955 0.01190264 -0.01064556 0.67058824 0.20784314 0.12549020
v -0.00200745 0.01191826 -0.01061179 0.67058824 0.20784314 0.12549020
v 0.05161644 -0.00572982 -0.00577672 0.67058824 0.20784314 0.12549020
v -0.00200745 0.00595225 -0.01032585 0.67058824 0.20784314 0.12549020
v -0.00200745 0.00597308 -0.01044012 0.67058824 0.20784314 0.12549020
v -0.00200745 0.00600259 -0.01055213 0.67058824 0.20784314 0.12549020
v -0.00200745 0.00604425 -0.01066245 0.67058824 0.20784314 0.12549020
v -0.00200745 0.00609633 -0.01077277 0.67058824 0.20784314 0.12549020
v -0.00200745 0.00615534 -0.01087296 0.67058824 0.20784314 0.12549020
v -0.00200745 0.00622651 -0.01097259 0.67058824 0.20784314 0.12549020
v -0.00200745 0.00630462 -0.01106378 0.67058824 0.20784314 0.12549020
v -0.00200745 0.00647473 -0.01122082 0.67058824 0.20784314 0.12549020
v -0.00200745 0.00667782 -0.01135197 0.67058824 0.20784314 0.12549020
v -0.00178699 -0.00572982 -0.01020652 0.67058824 0.20784314 0.12549020
v 0.05079759 0.01183321 -0.00577672 0.67058824 0.20784314 0.12549020
v 0.05085009 0.01180891 -0.00577672 0.67058824 0.20784314 0.12549020
v 0.05101805 0.01170129 -0.00577672 0.67058824 0.20784314 0.12549020
v 0.05107054 0.01166484 -0.01014630 0.67058824 0.20784314 0.12549020
v 0.05107054 0.01164921 -0.01032979 0.67058824 0.20784314 0.12549020
v 0.05085009 0.01164227 -0.01074407 0.67058824 0.20784314 0.12549020
v 0.05107054 0.01159887 -0.01050822 0.67058824 0.20784314 0.12549020
v 0.05060863 0.01159887 -0.01097991 0.67058824 0.20784314 0.12549020
v 0.05035667 0.01164921 -0.01102044 0.67058824 0.20784314 0.12549020
v 0.03776955 0.01182279 -0.01080936 0.67058824 0.20784314 0.12549020
v 0.05008898 0.01166484 -0.01103338 0.67058824 0.20784314 0.12549020
v 0.03776955 0.01168393 -0.01100918 0.67058824 0.20784314 0.12549020
v 0.02545012 0.01177419 -0.01088591 0.67058824 0.20784314 0.12549020
v -0.00200745 0.01180544 -0.01084200 0.67058824 0.20784314 0.12549020
v 0.00081652 0.01180891 -0.01083638 0.67058824 0.20784314 0.12549020
v -0.00200745 0.01181932 -0.01081780 0.67058824 0.20784314 0.12549020
v 0.02545012 0.01183668 -0.01078178 0.67058824 0.20784314 0.12549020
v 0.01313595 0.01187661 -0.01070016 0.67058824 0.20784314 0.12549020
v 0.01313595 0.01190264 -0.01064556 0.67058824 0.20784314 0.12549020
v -0.00200745 0.01186619 -0.01072155 0.67058824 0.20784314 0.12549020
v 0.05161644 -0.00572982 -0.01014630 0.67058824 0.20784314 0.12549020
v 0.05161644 0.01056259 -0.00577672 0.67058824 0.20784314 0.12549020
v -0.00200745 0.00690001 -0.01144822 0.67058824 0.20784314 0.12549020
v -0.00177124 -0.00572982 -0.01032304 0.67058824 0.20784314 0.12549020
v -0.00200745 0.00713608 -0.01150676 0.67058824 0.20784314 0.12549020
v 0.05107054 0.01166484 -0.00577672 0.67058824 0.20784314 0.12549020
v 0.05111253 0.01162665 -0.00577672 0.67058824 0.20784314 0.12549020
v 0.05125951 0.01148778 -0.01014630 0.67058824 0.20784314 0.12549020
v 0.05125951 0.01147389 -0.01030052 0.67058824 0.20784314 0.12549020
v 0.05125951 0.01143224 -0.01044968 0.67058824 0.20784314 0.12549020
v 0.05085009 0.01151729 -0.01091462 0.67058824 0.20784314 0.12549020
v 0.05107054 0.01151729 -0.01067483 0.67058824 0.20784314 0.12549020
v 0.05107054 0.01140793 -0.01082624 0.67058824 0.20784314 0.12549020
v 0.05125951 0.01136454 -0.01058984 0.67058824 0.20784314 0.12549020
v 0.05060863 0.01143224 -0.01113976 0.67058824 0.20784314 0.12549020
v 0.05085009 0.01136454 -0.01106209 0.67058824 0.20784314 0.12549020
v 0.05035667 0.01147389 -0.01118761 0.67058824 0.20784314 0.12549020
v 0.05008898 0.01148778 -0.01120393 0.67058824 0.20784314 0.12549020
v 0.03776955 0.01164401 -0.01105477 0.67058824 0.20784314 0.12549020
v -0.00200745 0.01166484 -0.01103338 0.67058824 0.20784314 0.12549020
v 0.01313595 0.01168393 -0.01100918 0.67058824 0.20784314 0.12549020
v -0.00200745 0.01172559 -0.01095177 0.67058824 0.20784314 0.12549020
v -0.00200745 0.01181238 -0.01083019 0.67058824 0.20784314 0.12549020
v 0.05161644 0.01056259 -0.01014630 0.67058824 0.20784314 0.12549020
v 0.05159019 -0.00572982 -0.01038608 0.67058824 0.20784314 0.12549020
v 0.05161119 0.01061640 -0.00577672 0.67058824 0.20784314 0.12549020
v -0.00175024 -0.00572982 -0.01043843 0.67058824 0.20784314 0.12549020
v -0.00200745 0.00715170 -0.01150845 0.67058824 0.20784314 0.12549020
v -0.00162427 -0.00572982 -0.01076883 0.67058824 0.20784314 0.12549020
v -0.00167676 -0.00572982 -0.01066245 0.67058824 0.20784314 0.12549020
v -0.00171875 -0.00572982 -0.01055213 0.67058824 0.20784314 0.12549020
v 0.05125951 0.01148778 -0.00577672 0.67058824 0.20784314 0.12549020
v 0.05141172 0.01128295 -0.01014630 0.67058824 0.20784314 0.12549020
v 0.05141172 0.01127080 -0.01026619 0.67058824 0.20784314 0.12549020
v 0.05141172 0.01123956 -0.01038270 0.67058824 0.20784314 0.12549020
v 0.05125951 0.01127080 -0.01071649 0.67058824 0.20784314 0.12549020
v 0.05125951 0.01115798 -0.01082624 0.67058824 0.20784314 0.12549020
v 0.05107054 0.01127080 -0.01095627 0.67058824 0.20784314 0.12549020
v 0.05141172 0.01118575 -0.01049134 0.67058824 0.20784314 0.12549020
v 0.05141172 0.01111458 -0.01058984 0.67058824 0.20784314 0.12549020
v 0.05060863 0.01123956 -0.01126979 0.67058824 0.20784314 0.12549020
v 0.05085009 0.01118575 -0.01118142 0.67058824 0.20784314 0.12549020
v 0.05107054 0.01111458 -0.01106209 0.67058824 0.20784314 0.12549020
v 0.05035667 0.01127080 -0.01132382 0.67058824 0.20784314 0.12549020
v 0.05008898 0.01128295 -0.01134183 0.67058824 0.20784314 0.12549020
v 0.01313595 0.01141141 -0.01125572 0.67058824 0.20784314 0.12549020
v -0.00200745 0.01148778 -0.01120393 0.67058824 0.20784314 0.12549020
v -0.00200745 0.01150340 -0.01118930 0.67058824 0.20784314 0.12549020
v 0.02545012 0.01153291 -0.01116115 0.67058824 0.20784314 0.12549020
v 0.01313595 0.01164401 -0.01105477 0.67058824 0.20784314 0.12549020
v -0.00200745 0.01159193 -0.01110430 0.67058824 0.20784314 0.12549020
v 0.05159019 0.01056259 -0.01038608 0.67058824 0.20784314 0.12549020
v 0.05159019 0.01060599 -0.01038270 0.67058824 0.20784314 0.12549020
v 0.05159019 0.01064764 -0.01037144 0.67058824 0.20784314 0.12549020
v 0.05159019 0.01068757 -0.01035400 0.67058824 0.20784314 0.12549020
v 0.05159019 0.01072229 -0.01032979 0.67058824 0.20784314 0.12549020
v 0.05159019 0.01075353 -0.01030052 0.67058824 0.20784314 0.12549020
v 0.05159019 0.01077783 -0.01026619 0.67058824 0.20784314 0.12549020
v 0.05159019 0.01079693 -0.01022848 0.67058824 0.20784314 0.12549020
v 0.05159019 0.01080908 -0.01018795 0.67058824 0.20784314 0.12549020
v 0.05159019 0.01081255 -0.01014630 0.67058824 0.20784314 0.12549020
v 0.05153770 -0.00572982 -0.01056507 0.67058824 0.20784314 0.12549020
v 0.05155870 0.00000013 -0.01050203 0.67058824 0.20784314 0.12549020
v 0.05159019 0.01081255 -0.00577672 0.67058824 0.20784314 0.12549020
v -0.00200745 0.00737910 -0.01152646 0.67058824 0.20784314 0.12549020
v -0.00139856 -0.00572982 -0.01106603 0.67058824 0.20784314 0.12549020
v -0.00140906 -0.00572982 -0.01105477 0.67058824 0.20784314 0.12549020
v -0.00148779 -0.00572982 -0.01096809 0.67058824 0.20784314 0.12549020
v -0.00156128 -0.00572982 -0.01087127 0.67058824 0.20784314 0.12549020
v 0.05141172 0.01128295 -0.00577672 0.67058824 0.20784314 0.12549020
v 0.05149571 0.01111111 -0.00577672 0.67058824 0.20784314 0.12549020
v 0.05152195 0.01105383 -0.01014630 0.67058824 0.20784314 0.12549020
v 0.05152195 0.01104688 -0.01022848 0.67058824 0.20784314 0.12549020
v 0.05152195 0.01102432 -0.01030784 0.67058824 0.20784314 0.12549020
v 0.05152195 0.01098787 -0.01038270 0.67058824 0.20784314 0.12549020
v 0.05141172 0.01102432 -0.01067483 0.67058824 0.20784314 0.12549020
v 0.05141172 0.01092190 -0.01074407 0.67058824 0.20784314 0.12549020
v 0.05125951 0.01102432 -0.01091462 0.67058824 0.20784314 0.12549020
v 0.05152195 0.01093926 -0.01044968 0.67058824 0.20784314 0.12549020
v 0.05152195 0.01087851 -0.01050822 0.67058824 0.20784314 0.12549020
v 0.05060863 0.01102432 -0.01136548 0.67058824 0.20784314 0.12549020
v 0.05035667 0.01104688 -0.01142401 0.67058824 0.20784314 0.12549020
v 0.05085009 0.01098787 -0.01126979 0.67058824 0.20784314 0.12549020
v 0.05125951 0.01087851 -0.01097991 0.67058824 0.20784314 0.12549020
v 0.05107054 0.01093926 -0.01113976 0.67058824 0.20784314 0.12549020
v 0.05008898 0.01105383 -0.01144372 0.67058824 0.20784314 0.12549020
v 0.03776955 0.01108334 -0.01143077 0.67058824 0.20784314 0.12549020
v 0.01313595 0.01114062 -0.01140544 0.67058824 0.20784314 0.12549020
v -0.00200745 0.01128295 -0.01134183 0.67058824 0.20784314 0.12549020
v 0.05152195 0.01056259 -0.01061855 0.67058824 0.20784314 0.12549020
v 0.05152195 0.01064764 -0.01061123 0.67058824 0.20784314 0.12549020
v 0.05152195 0.01073096 -0.01058984 0.67058824 0.20784314 0.12549020
v 0.05152195 0.01080908 -0.01055550 0.67058824 0.20784314 0.12549020
v 0.05153770 0.01100175 -0.00577672 0.67058824 0.20784314 0.12549020
v 0.05157444 0.01087157 -0.00577672 0.67058824 0.20784314 0.12549020
v 0.05152195 -0.00572982 -0.01061855 0.67058824 0.20784314 0.12549020
v -0.00200745 0.01056259 -0.01152646 0.67058824 0.20784314 0.12549020
v -0.00025953 -0.00572982 -0.01152702 0.67058824 0.20784314 0.12549020
v -0.00049573 -0.00572982 -0.01150901 0.67058824 0.20784314 0.12549020
v -0.00052198 -0.00572982 -0.01150676 0.67058824 0.20784314 0.12549020
v -0.00076868 -0.00572982 -0.01144822 0.67058824 0.20784314 0.12549020
v -0.00098914 -0.00572982 -0.01135872 0.67058824 0.20784314 0.12549020
v -0.00100488 -0.00572982 -0.01135197 0.67058824 0.20784314 0.12549020
v -0.00122009 -0.00572982 -0.01122082 0.67058824 0.20784314 0.12549020
v 0.05152195 0.01105383 -0.00577672 0.67058824 0.20784314 0.12549020
v 0.05141172 0.01080908 -0.01079472 0.67058824 0.20784314 0.12549020
v 0.05060863 0.01079693 -0.01142401 0.67058824 0.20784314 0.12549020
v 0.05035667 0.01080908 -0.01148537 0.67058824 0.20784314 0.12549020
v 0.05085009 0.01077783 -0.01132382 0.67058824 0.20784314 0.12549020
v 0.05107054 0.01075353 -0.01118761 0.67058824 0.20784314 0.12549020
v 0.05125951 0.01072229 -0.01102044 0.67058824 0.20784314 0.12549020
v 0.05008898 0.01081255 -0.01150563 0.67058824 0.20784314 0.12549020
v 0.02545012 0.01087330 -0.01149043 0.67058824 0.20784314 0.12549020
v -0.00200745 0.01094100 -0.01147298 0.67058824 0.20784314 0.12549020
v -0.00200745 0.01105383 -0.01144372 0.67058824 0.20784314 0.12549020
v 0.01313595 0.01108334 -0.01143077 0.67058824 0.20784314 0.12549020
v -0.00200745 0.01114930 -0.01140150 0.67058824 0.20784314 0.12549020
v 0.05141172 0.01056259 -0.01083638 0.67058824 0.20784314 0.12549020
v 0.05141172 0.01068757 -0.01082624 0.67058824 0.20784314 0.12549020
v 0.05141172 -0.00572982 -0.01083638 0.67058824 0.20784314 0.12549020
v -0.00025953 0.00000013 -0.01152702 0.67058824 0.20784314 0.12549020
v -0.00200745 0.01069451 -0.01151576 0.67058824 0.20784314 0.12549020
v 0.01313595 0.01059383 -0.01152421 0.67058824 0.20784314 0.12549020
v 0.05008898 0.01056259 -0.01152646 0.67058824 0.20784314 0.12549020
v 0.05008898 -0.00572982 -0.01152702 0.67058824 0.20784314 0.12549020
v 0.05060863 0.01056259 -0.01144372 0.67058824 0.20784314 0.12549020
v 0.05035667 0.01056259 -0.01150563 0.67058824 0.20784314 0.12549020
v 0.05085009 0.01056259 -0.01134183 0.67058824 0.20784314 0.12549020
v 0.05107054 0.01056259 -0.01120393 0.67058824 0.20784314 0.12549020
v 0.05125951 0.01056259 -0.01103338 0.67058824 0.20784314 0.12549020
v 0.03776955 0.01059383 -0.01152421 0.67058824 0.20784314 0.12549020
v 0.02545012 0.01075006 -0.01151126 0.67058824 0.20784314 0.12549020
v -0.00200745 0.01081255 -0.01150563 0.67058824 0.20784314 0.12549020
v -0.00200745 0.01083338 -0.01150057 0.67058824 0.20784314 0.12549020
v 0.05125951 -0.00572982 -0.01103338 0.67058824 0.20784314 0.12549020
v 0.05008898 0.00000013 -0.01152702 0.67058824 0.20784314 0.12549020
v 0.01313595 0.01065632 -0.01151914 0.67058824 0.20784314 0.12549020
v 0.05029369 -0.00572982 -0.01151070 0.67058824 0.20784314 0.12549020
v 0.05079759 -0.00572982 -0.01136491 0.67058824 0.20784314 0.12549020
v 0.05066637 -0.00572982 -0.01142007 0.67058824 0.20784314 0.12549020
v 0.05060863 -0.00572982 -0.01144372 0.67058824 0.20784314 0.12549020
v 0.05041441 -0.00572982 -0.01149156 0.67058824 0.20784314 0.12549020
v 0.05035667 -0.00572982 -0.01150563 0.67058824 0.20784314 0.12549020
v 0.05090257 -0.00572982 -0.01131031 0.67058824 0.20784314 0.12549020
v 0.05085009 -0.00572982 -0.01134183 0.67058824 0.20784314 0.12549020
v 0.05116502 0.00000013 -0.01111894 0.67058824 0.20784314 0.12549020
v 0.05107054 -0.00572982 -0.01120393 0.67058824 0.20784314 0.12549020
f 1 2 3
f 1 3 10
f 1 10 4
f 1 4 11
f 1 11 25
f 1 25 38
f 1 38 71
f 1 71 95
f 1 95 133
f 1 133 164
f 1 164 163
f 1 163 174
f 1 174 140
f 1 140 139
f 1 139 101
f 1 101 76
f 1 76 75
f 1 75 52
f 1 52 51
f 1 51 50
f 1 50 28
f 1 28 27
f 1 27 13
f 1 13 12
f 1 12 5
f 1 5 2
f 2 5 6
f 2 6 3
f 3 6 7
f 3 7 8
f 3 8 9
f 3 9 10
f 4 10 9
f 4 9 23
f 4 23 22
f 4 22 21
f 4 21 37
f 4 37 69
f 4 69 65
f 4 65 92
f 4 92 63
f 4 63 91
f 4 91 89
f 4 89 120
f 4 120 117
f 4 117 116
f 4 116 158
f 4 158 186
f 4 186 184
f 4 184 183
f 4 183 203
f 4 203 202
f 4 202 191
f 4 191 166
f 4 166 134
f 4 134 97
f 4 97 74
f 4 74 72
f 4 72 48
f 4 48 47
f 4 47 46
f 4 46 45
f 4 45 44
f 4 44 43
f 4 43 42
f 4 42 41
f 4 41 40
f 4 40 39
f 4 39 26
f 4 26 11
f 5 12 6
f 6 12 13
f 6 13 14
f 6 14 15
f 6 15 16
f 6 16 7
f 7 16 17
f 7 17 18
f 7 18 19
f 7 19 20
f 7 20 21
f 7 21 22
f 7 22 23
f 7 23 24
f 7 24 8
f 8 24 9
f 9 24 23
f 11 26 25
f 13 27 14
f 14 27 28
f 14 28 29
f 14 29 15
f 15 30 17
f 15 17 16
f 15 29 31
f 15 31 32
f 15 32 30
f 17 30 33
f 17 33 34
f 17 34 35
f 17 35 18
f 18 35 36
f 18 36 37
f 18 37 19
f 19 37 20
f 20 37 21
f 25 26 39
f 25 39 40
f 25 40 41
f 25 41 42
f 25 42 43
f 25 43 44
f 25 44 45
f 25 45 46
f 25 46 47
f 25 47 48
f 25 48 49
f 25 49 73
f 25 73 96
f 25 96 100
f 25 100 99
f 25 99 98
f 25 98 138
f 25 138 137
f 25 137 136
f 25 136 135
f 25 135 173
f 25 173 172
f 25 172 171
f 25 171 170
f 25 170 169
f 25 169 168
f 25 168 167
f 25 167 194
f 25 194 207
f 25 207 212
f 25 212 211
f 25 211 210
f 25 210 209
f 25 209 208
f 25 208 214
f 25 214 213
f 25 213 216
f 25 216 204
f 25 204 189
f 25 189 165
f 25 165 131
f 25 131 94
f 25 94 70
f 25 70 38
f 28 50 29
f 29 50 51
f 29 51 52
f 29 52 53
f 29 53 54
f 29 54 31
f 30 32 33
f 31 54 32
f 32 55 33
f 32 54 56
f 32 56 55
f 33 57 58
f 33 58 34
f 33 55 57
f 34 58 35
f 35 59 36
f 35 58 60
f 35 60 61
f 35 61 62
f 35 62 63
f 35 63 64
f 35 64 92
f 35 92 65
f 35 65 59
f 36 59 66
f 36 66 67
f 36 67 68
f 36 68 37
f 37 68 69
f 38 70 93
f 38 93 71
f 48 72 49
f 49 72 74
f 49 74 73
f 52 75 53
f 53 75 76
f 53 76 77
f 53 77 54
f 54 77 78
f 54 78 79
f 54 79 56
f 55 80 57
f 55 56 81
f 55 81 82
f 55 82 80
f 56 79 83
f 56 83 81
f 57 84 58
f 57 80 85
f 57 85 84
f 58 84 86
f 58 86 87
f 58 87 60
f 59 65 66
f 60 87 88
f 60 88 119
f 60 119 89
f 60 89 90
f 60 90 61
f 61 90 62
f 62 90 91
f 62 91 63
f 63 92 64
f 65 69 67
f 65 67 66
f 67 69 68
f 70 94 121
f 70 121 93
f 71 93 95
f 73 74 96
f 74 97 98
f 74 98 99
f 74 99 100
f 74 100 96
f 76 101 77
f 77 101 139
f 77 139 102
f 77 102 78
f 78 102 103
f 78 103 104
f 78 104 79
f 79 104 83
f 80 82 85
f 81 83 82
f 82 83 105
f 82 105 106
f 82 106 107
f 82 107 85
f 83 104 108
f 83 108 109
f 83 109 105
f 84 110 86
f 84 85 110
f 85 111 110
f 85 107 112
f 85 112 111
f 86 110 113
f 86 113 114
f 86 114 87
f 87 114 115
f 87 115 116
f 87 116 117
f 87 117 118
f 87 118 88
f 88 118 119
f 89 119 120
f 89 91 90
f 93 121 122
f 93 122 123
f 93 123 124
f 93 124 125
f 93 125 126
f 93 126 127
f 93 127 128
f 93 128 129
f 93 129 130
f 93 130 95
f 94 131 132
f 94 132 121
f 95 130 133
f 97 134 135
f 97 135 136
f 97 136 137
f 97 137 138
f 97 138 98
f 102 139 140
f 102 140 141
f 102 141 142
f 102 142 103
f 103 142 104
f 104 142 143
f 104 143 144
f 104 144 108
f 105 109 106
f 106 109 145
f 106 145 146
f 106 146 147
f 106 147 112
f 106 112 107
f 108 144 109
f 109 144 148
f 109 148 149
f 109 149 145
f 110 150 151
f 110 151 113
f 110 111 152
f 110 152 150
f 111 112 152
f 112 147 153
f 112 153 154
f 112 154 152
f 113 151 114
f 114 151 155
f 114 155 156
f 114 156 157
f 114 157 158
f 114 158 115
f 115 158 116
f 117 120 119
f 117 119 118
f 121 132 159
f 121 159 122
f 122 159 160
f 122 160 161
f 122 161 123
f 123 161 124
f 124 161 162
f 124 162 149
f 124 149 125
f 125 149 126
f 126 149 148
f 126 148 144
f 126 144 127
f 127 144 128
f 128 144 143
f 128 143 129
f 129 143 142
f 129 142 141
f 129 141 130
f 130 141 163
f 130 163 164
f 130 164 133
f 131 165 132
f 132 165 159
f 134 166 190
f 134 190 167
f 134 167 168
f 134 168 169
f 134 169 170
f 134 170 171
f 134 171 172
f 134 172 173
f 134 173 135
f 140 174 141
f 141 174 163
f 145 149 162
f 145 162 146
f 146 162 175
f 146 175 147
f 147 175 153
f 150 176 177
f 150 177 151
f 150 152 176
f 151 177 155
f 152 178 176
f 152 154 179
f 152 179 178
f 153 175 188
f 153 188 180
f 153 180 154
f 154 180 179
f 155 177 181
f 155 181 182
f 155 182 183
f 155 183 184
f 155 184 185
f 155 185 156
f 156 185 157
f 157 185 184
f 157 184 186
f 157 186 158
f 159 165 189
f 159 189 187
f 159 187 188
f 159 188 160
f 160 188 161
f 161 188 175
f 161 175 162
f 166 191 206
f 166 206 192
f 166 192 200
f 166 200 193
f 166 193 205
f 166 205 190
f 167 190 205
f 167 205 194
f 176 195 177
f 176 178 195
f 177 195 196
f 177 196 193
f 177 193 181
f 178 197 195
f 178 179 198
f 178 198 197
f 179 180 198
f 180 188 187
f 180 187 199
f 180 199 198
f 181 193 200
f 181 200 201
f 181 201 202
f 181 202 203
f 181 203 182
f 182 203 183
f 187 189 204
f 187 204 199
f 191 202 201
f 191 201 206
f 192 206 200
f 193 196 205
f 194 205 207
f 195 208 209
f 195 209 210
f 195 210 211
f 195 211 196
f 195 197 208
f 196 211 212
f 196 212 207
f 196 207 205
f 197 198 213
f 197 213 214
f 197 214 208
f 198 199 215
f 198 215 216
f 198 216 213
f 199 204 215
f 200 206 201
f 204 216 215

