# https://github.com/mikedh/trimesh
v -0.04938356 0.00508053 -0.00577672 0.54509804 0.71372549 0.60000000
v -0.04938356 0.00508053 -0.00070884 0.54509804 0.71372549 0.60000000
v -0.04938356 0.01170245 -0.00577672 0.54509804 0.71372549 0.60000000
v -0.02177040 0.00508053 -0.00577672 0.54509804 0.71372549 0.60000000
v -0.04938356 0.00521402 0.00573107 0.54509804 0.71372549 0.60000000
v -0.02152424 0.00508053 -0.00070884 0.54509804 0.71372549 0.60000000
v -0.04938356 0.01170245 0.00573107 0.54509804 0.71372549 0.60000000
v -0.04921945 0.01180951 -0.00577672 0.54509804 0.71372549 0.60000000
v -0.00959513 0.00574055 -0.00577672 0.54509804 0.71372549 0.60000000
v -0.00946619 0.00550948 -0.00070884 0.54509804 0.71372549 0.60000000
v -0.00946619 0.00521606 0.00573107 0.54509804 0.71372549 0.60000000
v -0.02284101 0.00521402 0.00573107 0.54509804 0.71372549 0.60000000
v -0.02121555 0.00521402 0.00572769 0.54509804 0.71372549 0.60000000
v -0.04921554 0.01180951 0.00573107 0.54509804 0.71372549 0.60000000
v -0.04921945 0.01180951 -0.00070884 0.54509804 0.71372549 0.60000000
v -0.04916866 0.01183255 -0.00577672 0.54509804 0.71372549 0.60000000
v -0.00959513 0.01200264 -0.00577672 0.54509804 0.71372549 0.60000000
v -0.00946619 0.01200332 -0.00070884 0.54509804 0.71372549 0.60000000
v -0.00946619 0.01200332 0.00573107 0.54509804 0.71372549 0.60000000
v -0.04916475 0.01183255 0.00573107 0.54509804 0.71372549 0.60000000
v -0.04902799 0.01189286 0.00573107 0.54509804 0.71372549 0.60000000
v -0.04897720 0.01191523 -0.00070884 0.54509804 0.71372549 0.60000000
v -0.04897720 0.01191523 -0.00577672 0.54509804 0.71372549 0.60000000
v -0.04845361 0.01200264 -0.00577672 0.54509804 0.71372549 0.60000000
v -0.04845361 0.01200332 -0.00070884 0.54509804 0.71372549 0.60000000
v -0.04845361 0.01200332 0.00573107 0.54509804 0.71372549 0.60000000
v -0.04897329 0.01191590 0.00573107 0.54509804 0.71372549 0.60000000
v -0.04884826 0.01194843 -0.00002283 0.54509804 0.71372549 0.60000000
v -0.04891468 0.01193149 -0.00577672 0.54509804 0.71372549 0.60000000
v -0.04851222 0.01199790 -0.00577672 0.54509804 0.71372549 0.60000000
v -0.04871932 0.01198096 -0.00070884 0.54509804 0.71372549 0.60000000
v -0.04871932 0.01198096 0.00573107 0.54509804 0.71372549 0.60000000
v -0.04884044 0.01195046 -0.00070884 0.54509804 0.71372549 0.60000000
v -0.04877402 0.01196673 -0.00577672 0.54509804 0.71372549 0.60000000
v -0.04866461 0.01198502 -0.00577672 0.54509804 0.71372549 0.60000000
v -0.04871932 0.01198028 -0.00577672 0.54509804 0.71372549 0.60000000
f 1 2 5
f 1 5 7
f 1 7 3
f 1 3 8
f 1 8 16
f 1 16 23
f 1 23 29
f 1 29 34
f 1 34 36
f 1 36 35
f 1 35 30
f 1 30 24
f 1 24 17
f 1 17 9
f 1 9 4
f 1 4 6
f 1 6 2
f 2 6 12
f 2 12 5
f 3 7 15
f 3 15 8
f 4 9 10
f 4 10 11
f 4 11 6
f 5 12 11
f 5 11 19
f 5 19 26
f 5 26 32
f 5 32 27
f 5 27 21
f 5 21 20
f 5 20 14
f 5 14 7
f 6 11 13
f 6 13 12
f 7 14 15
f 8 15 16
f 9 17 18
f 9 18 10
f 10 18 19
f 10 19 11
f 11 12 13
f 14 20 15
f 15 20 21
f 15 21 16
f 16 21 22
f 16 22 23
f 17 24 25
f 17 25 18
f 18 25 26
f 18 26 19
f 21 27 22
f 22 27 28
f 22 28 29
f 22 29 23
f 24 30 25
f 25 30 31
f 25 31 32
f 25 32 26
f 27 32 28
f 28 33 29
f 28 32 33
f 29 33 31
f 29 31 34
f 30 35 31
f 31 36 34
f 31 33 32
f 31 35 36

