# https://github.com/mikedh/trimesh
v 0.05161644 -0.00572982 -0.00577672 0.79607843 0.45882353 0.78039216
v 0.05161644 -0.01056267 -0.00577672 0.79607843 0.45882353 0.78039216
v 0.05161644 -0.00572982 -0.01014630 0.79607843 0.45882353 0.78039216
v -0.00199923 -0.00572982 -0.00577672 0.79607843 0.45882353 0.78039216
v 0.05159780 -0.01075857 -0.00577672 0.79607843 0.45882353 0.78039216
v 0.05161644 -0.01056267 -0.01014630 0.79607843 0.45882353 0.78039216
v 0.05159780 -0.00572982 -0.01033148 0.79607843 0.45882353 0.78039216
v -0.00180043 -0.00572982 -0.00990820 0.79607843 0.45882353 0.78039216
v -0.01185259 -0.00574026 -0.00577672 0.79607843 0.45882353 0.78039216
v 0.05159159 -0.01081261 -0.00577672 0.79607843 0.45882353 0.78039216
v 0.05159159 -0.01081261 -0.01014630 0.79607843 0.45882353 0.78039216
v 0.05159159 -0.01080892 -0.01018795 0.79607843 0.45882353 0.78039216
v 0.05159159 -0.01079787 -0.01022848 0.79607843 0.45882353 0.78039216
v 0.05159159 -0.01077945 -0.01026619 0.79607843 0.45882353 0.78039216
v 0.05159159 -0.01075427 -0.01030052 0.79607843 0.45882353 0.78039216
v 0.05159159 -0.01072357 -0.01032979 0.79607843 0.45882353 0.78039216
v 0.05159159 -0.01068795 -0.01035400 0.79607843 0.45882353 0.78039216
v 0.05159159 -0.01064803 -0.01037144 0.79607843 0.45882353 0.78039216
v 0.05159159 -0.01060627 -0.01038270 0.79607843 0.45882353 0.78039216
v 0.05159159 -0.01056267 -0.01038608 0.79607843 0.45882353 0.78039216
v 0.05159159 -0.00572982 -0.01038608 0.79607843 0.45882353 0.78039216
v -0.00177558 -0.00572982 -0.01032304 0.79607843 0.45882353 0.78039216
v -0.01185259 -0.00594168 -0.01020652 0.79607843 0.45882353 0.78039216
v -0.01185259 -0.01200271 -0.00577672 0.79607843 0.45882353 0.78039216
v -0.00175073 -0.00572982 -0.01043843 0.79607843 0.45882353 0.78039216
v -0.00171966 -0.00572982 -0.01055213 0.79607843 0.45882353 0.78039216
v -0.00167618 -0.00572982 -0.01066245 0.79607843 0.45882353 0.78039216
v -0.00162026 -0.00572982 -0.01076883 0.79607843 0.45882353 0.78039216
v -0.00155813 -0.00572982 -0.01087127 0.79607843 0.45882353 0.78039216
v -0.00148358 -0.00572982 -0.01096809 0.79607843 0.45882353 0.78039216
v -0.00140903 -0.00572982 -0.01105477 0.79607843 0.45882353 0.78039216
v -0.00139660 -0.00572982 -0.01106603 0.79607843 0.45882353 0.78039216
v -0.00121644 -0.00572982 -0.01122082 0.79607843 0.45882353 0.78039216
v -0.00100520 -0.00572982 -0.01135197 0.79607843 0.45882353 0.78039216
v 0.05152325 -0.01105517 -0.00577672 0.79607843 0.45882353 0.78039216
v 0.05152325 -0.01105517 -0.01014630 0.79607843 0.45882353 0.78039216
v 0.05152325 -0.01104780 -0.01022848 0.79607843 0.45882353 0.78039216
v 0.05152325 -0.01102570 -0.01030784 0.79607843 0.45882353 0.78039216
v 0.05152325 -0.01098946 -0.01038270 0.79607843 0.45882353 0.78039216
v 0.05152325 -0.01093972 -0.01044968 0.79607843 0.45882353 0.78039216
v 0.05152325 -0.01087954 -0.01050822 0.79607843 0.45882353 0.78039216
v 0.05152325 -0.01080892 -0.01055550 0.79607843 0.45882353 0.78039216
v 0.05152325 -0.01073093 -0.01058984 0.79607843 0.45882353 0.78039216
v 0.05152325 -0.01064803 -0.01061123 0.79607843 0.45882353 0.78039216
v 0.05152325 -0.01056267 -0.01061855 0.79607843 0.45882353 0.78039216
v 0.05152325 -0.00572982 -0.01061855 0.79607843 0.45882353 0.78039216
v -0.01185259 -0.00595211 -0.01032304 0.79607843 0.45882353 0.78039216
v -0.00076912 -0.00572982 -0.01144822 0.79607843 0.45882353 0.78039216
v 0.05008811 -0.01200271 -0.00577672 0.79607843 0.45882353 0.78039216
v -0.01185259 -0.01200271 -0.01014630 0.79607843 0.45882353 0.78039216
v 0.05143627 -0.01123387 -0.00577672 0.79607843 0.45882353 0.78039216
v 0.05141142 -0.01128300 -0.01014630 0.79607843 0.45882353 0.78039216
v 0.05141142 -0.01127194 -0.01026619 0.79607843 0.45882353 0.78039216
v 0.05141142 -0.01123940 -0.01038270 0.79607843 0.45882353 0.78039216
v 0.05141142 -0.01118659 -0.01049134 0.79607843 0.45882353 0.78039216
v 0.05141142 -0.01111412 -0.01058984 0.79607843 0.45882353 0.78039216
v 0.05141142 -0.01102570 -0.01067483 0.79607843 0.45882353 0.78039216
v 0.05141142 -0.01092253 -0.01074407 0.79607843 0.45882353 0.78039216
v 0.05141142 -0.01080892 -0.01079472 0.79607843 0.45882353 0.78039216
v 0.05141142 -0.01068795 -0.01082624 0.79607843 0.45882353 0.78039216
v 0.05141142 -0.01056267 -0.01083638 0.79607843 0.45882353 0.78039216
v 0.05149840 -0.00572982 -0.01066864 0.79607843 0.45882353 0.78039216
v -0.01185259 -0.00597299 -0.01043843 0.79607843 0.45882353 0.78039216
v -0.00075048 -0.00572982 -0.01145272 0.79607843 0.45882353 0.78039216
v -0.00052061 -0.00572982 -0.01150676 0.79607843 0.45882353 0.78039216
v 0.05008811 -0.01200271 -0.01014630 0.79607843 0.45882353 0.78039216
v 0.05015645 -0.01199779 -0.00577672 0.79607843 0.45882353 0.78039216
v -0.01185259 -0.01200025 -0.01017725 0.79607843 0.45882353 0.78039216
v 0.05141142 -0.01128300 -0.00577672 0.79607843 0.45882353 0.78039216
v 0.05125610 -0.01148872 -0.01014630 0.79607843 0.45882353 0.78039216
v 0.05125610 -0.01147459 -0.01030052 0.79607843 0.45882353 0.78039216
v 0.05125610 -0.01143283 -0.01044968 0.79607843 0.45882353 0.78039216
v 0.05125610 -0.01136467 -0.01058984 0.79607843 0.45882353 0.78039216
v 0.05125610 -0.01127194 -0.01071649 0.79607843 0.45882353 0.78039216
v 0.05125610 -0.01115772 -0.01082624 0.79607843 0.45882353 0.78039216
v 0.05125610 -0.01102570 -0.01091462 0.79607843 0.45882353 0.78039216
v 0.05125610 -0.01087954 -0.01097991 0.79607843 0.45882353 0.78039216
v 0.05125610 -0.01072357 -0.01102044 0.79607843 0.45882353 0.78039216
v 0.05129338 -0.00572982 -0.01098835 0.79607843 0.45882353 0.78039216
v 0.05141142 -0.00572982 -0.01083638 0.79607843 0.45882353 0.78039216
v 0.05125610 -0.01056267 -0.01103338 0.79607843 0.45882353 0.78039216
v -0.01185259 -0.00598835 -0.01049471 0.79607843 0.45882353 0.78039216
v -0.00049576 -0.00572982 -0.01150901 0.79607843 0.45882353 0.78039216
v -0.01185259 -0.00630030 -0.01105927 0.79607843 0.45882353 0.78039216
v -0.01185259 -0.00626161 -0.01101368 0.79607843 0.45882353 0.78039216
v -0.01185259 -0.00622354 -0.01096809 0.79607843 0.45882353 0.78039216
v -0.01185259 -0.00615476 -0.01087127 0.79607843 0.45882353 0.78039216
v -0.01185259 -0.00609520 -0.01076883 0.79607843 0.45882353 0.78039216
v -0.01185259 -0.00604484 -0.01066245 0.79607843 0.45882353 0.78039216
v -0.01185259 -0.00600431 -0.01055213 0.79607843 0.45882353 0.78039216
v 0.02544851 -0.01199779 -0.01020652 0.79607843 0.45882353 0.78039216
v 0.05008811 -0.01198121 -0.01038608 0.79607843 0.45882353 0.78039216
v 0.05035526 -0.01198121 -0.01014630 0.79607843 0.45882353 0.78039216
v 0.05029934 -0.01198613 -0.00577672 0.79607843 0.45882353 0.78039216
v -0.01185259 -0.01199472 -0.01023861 0.79607843 0.45882353 0.78039216
v 0.05125610 -0.01148872 -0.00577672 0.79607843 0.45882353 0.78039216
v 0.05121882 -0.01152679 -0.00577672 0.79607843 0.45882353 0.78039216
v 0.05106972 -0.01166619 -0.01014630 0.79607843 0.45882353 0.78039216
v 0.05106972 -0.01164899 -0.01032979 0.79607843 0.45882353 0.78039216
v 0.05106972 -0.01159925 -0.01050822 0.79607843 0.45882353 0.78039216
v 0.05106972 -0.01151819 -0.01067483 0.79607843 0.45882353 0.78039216
v 0.05106972 -0.01140766 -0.01082624 0.79607843 0.45882353 0.78039216
v 0.05106972 -0.01127194 -0.01095627 0.79607843 0.45882353 0.78039216
v 0.05106972 -0.01111412 -0.01106209 0.79607843 0.45882353 0.78039216
v 0.05106972 -0.01093972 -0.01113976 0.79607843 0.45882353 0.78039216
v 0.05106972 -0.01075427 -0.01118761 0.79607843 0.45882353 0.78039216
v 0.05106972 -0.01056267 -0.01120393 0.79607843 0.45882353 0.78039216
v 0.05125610 -0.00572982 -0.01103338 0.79607843 0.45882353 0.78039216
v 0.05111321 -0.00572982 -0.01116509 0.79607843 0.45882353 0.78039216
v -0.00025968 -0.00572982 -0.01152702 0.79607843 0.45882353 0.78039216
v -0.01185259 -0.00647654 -0.01122082 0.79607843 0.45882353 0.78039216
v 0.02544851 -0.01198674 -0.01032641 0.79607843 0.45882353 0.78039216
v 0.00082133 -0.01199227 -0.01026619 0.79607843 0.45882353 0.78039216
v -0.01185259 -0.01198121 -0.01038608 0.79607843 0.45882353 0.78039216
v 0.03776831 -0.01197323 -0.01041535 0.79607843 0.45882353 0.78039216
v 0.05008811 -0.01191612 -0.01061855 0.79607843 0.45882353 0.78039216
v 0.05035526 -0.01189586 -0.01061123 0.79607843 0.45882353 0.78039216
v 0.05035526 -0.01195972 -0.01038270 0.79607843 0.45882353 0.78039216
v 0.05035526 -0.01198121 -0.00577672 0.79607843 0.45882353 0.78039216
v 0.05060998 -0.01189586 -0.01037144 0.79607843 0.45882353 0.78039216
v 0.05060998 -0.01191612 -0.01014630 0.79607843 0.45882353 0.78039216
v 0.05041117 -0.01196709 -0.00577672 0.79607843 0.45882353 0.78039216
v 0.05106972 -0.01166619 -0.00577672 0.79607843 0.45882353 0.78039216
v 0.05090819 -0.01177427 -0.00577672 0.79607843 0.45882353 0.78039216
v 0.05085227 -0.01180988 -0.01014630 0.79607843 0.45882353 0.78039216
v 0.05085227 -0.01179085 -0.01035400 0.79607843 0.45882353 0.78039216
v 0.05085227 -0.01173496 -0.01055550 0.79607843 0.45882353 0.78039216
v 0.05085227 -0.01164285 -0.01074407 0.79607843 0.45882353 0.78039216
v 0.05085227 -0.01151819 -0.01091462 0.79607843 0.45882353 0.78039216
v 0.05085227 -0.01136467 -0.01106209 0.79607843 0.45882353 0.78039216
v 0.05085227 -0.01118659 -0.01118142 0.79607843 0.45882353 0.78039216
v 0.05085227 -0.01098946 -0.01126979 0.79607843 0.45882353 0.78039216
v 0.05085227 -0.01077945 -0.01132382 0.79607843 0.45882353 0.78039216
v 0.05106972 -0.00572982 -0.01120393 0.79607843 0.45882353 0.78039216
v 0.05085227 -0.01056267 -0.01134183 0.79607843 0.45882353 0.78039216
v -0.01185259 -0.00738109 -0.01152702 0.79607843 0.45882353 0.78039216
v -0.01185259 -0.00725828 -0.01151689 0.79607843 0.45882353 0.78039216
v -0.01185259 -0.00713730 -0.01150676 0.79607843 0.45882353 0.78039216
v -0.01185259 -0.00701878 -0.01147749 0.79607843 0.45882353 0.78039216
v -0.01185259 -0.00693035 -0.01145554 0.79607843 0.45882353 0.78039216
v -0.01185259 -0.00690149 -0.01144822 0.79607843 0.45882353 0.78039216
v -0.01185259 -0.00667858 -0.01135197 0.79607843 0.45882353 0.78039216
v -0.01185259 -0.00650602 -0.01123996 0.79607843 0.45882353 0.78039216
v 0.05008811 -0.00572982 -0.01152702 0.79607843 0.45882353 0.78039216
v -0.01185259 -0.01195726 -0.01047220 0.79607843 0.45882353 0.78039216
v -0.01149847 -0.01197323 -0.01041535 0.79607843 0.45882353 0.78039216
v -0.01185259 -0.01192410 -0.01059040 0.79607843 0.45882353 0.78039216
v 0.01314113 -0.01194068 -0.01053130 0.79607843 0.45882353 0.78039216
v 0.03776831 -0.01182339 -0.01080936 0.79607843 0.45882353 0.78039216
v 0.05008811 -0.01180988 -0.01083638 0.79607843 0.45882353 0.78039216
v -0.01185259 -0.01191612 -0.01061855 0.79607843 0.45882353 0.78039216
v -0.01185259 -0.01190261 -0.01064669 0.79607843 0.45882353 0.78039216
v 0.00082133 -0.01186331 -0.01072774 0.79607843 0.45882353 0.78039216
v 0.05035526 -0.01179085 -0.01082624 0.79607843 0.45882353 0.78039216
v 0.05060998 -0.01173496 -0.01079472 0.79607843 0.45882353 0.78039216
v 0.05060998 -0.01183445 -0.01058984 0.79607843 0.45882353 0.78039216
v 0.05060998 -0.01191612 -0.00577672 0.79607843 0.45882353 0.78039216
v 0.05067210 -0.01188971 -0.00577672 0.79607843 0.45882353 0.78039216
v 0.05085227 -0.01180988 -0.00577672 0.79607843 0.45882353 0.78039216
v 0.05060998 -0.01159925 -0.01097991 0.79607843 0.45882353 0.78039216
v 0.05060998 -0.01143283 -0.01113976 0.79607843 0.45882353 0.78039216
v 0.05060998 -0.01123940 -0.01126979 0.79607843 0.45882353 0.78039216
v 0.05060998 -0.01102570 -0.01136548 0.79607843 0.45882353 0.78039216
v 0.05060998 -0.01079787 -0.01142401 0.79607843 0.45882353 0.78039216
v 0.05060998 -0.01056267 -0.01144372 0.79607843 0.45882353 0.78039216
v 0.05085227 -0.00572982 -0.01134183 0.79607843 0.45882353 0.78039216
v -0.01185259 -0.01056267 -0.01152702 0.79607843 0.45882353 0.78039216
v 0.05029313 -0.00572982 -0.01151070 0.79607843 0.45882353 0.78039216
v 0.05008811 -0.01056267 -0.01152702 0.79607843 0.45882353 0.78039216
v -0.01149847 -0.01182339 -0.01080936 0.79607843 0.45882353 0.78039216
v 0.02544851 -0.01177427 -0.01088591 0.79607843 0.45882353 0.78039216
v 0.05008811 -0.01166619 -0.01103338 0.79607843 0.45882353 0.78039216
v -0.01185259 -0.01180988 -0.01083638 0.79607843 0.45882353 0.78039216
v 0.05035526 -0.01164899 -0.01102044 0.79607843 0.45882353 0.78039216
v 0.05035526 -0.01147459 -0.01118761 0.79607843 0.45882353 0.78039216
v 0.05035526 -0.01127194 -0.01132382 0.79607843 0.45882353 0.78039216
v 0.05035526 -0.01104780 -0.01142401 0.79607843 0.45882353 0.78039216
v 0.05035526 -0.01080892 -0.01148537 0.79607843 0.45882353 0.78039216
v 0.05055407 -0.00572982 -0.01145779 0.79607843 0.45882353 0.78039216
v 0.05060998 -0.00572982 -0.01144372 0.79607843 0.45882353 0.78039216
v 0.05035526 -0.01056267 -0.01150563 0.79607843 0.45882353 0.78039216
v -0.01149847 -0.01065663 -0.01151914 0.79607843 0.45882353 0.78039216
v -0.01185259 -0.01071620 -0.01151407 0.79607843 0.45882353 0.78039216
v 0.05035526 -0.00572982 -0.01150563 0.79607843 0.45882353 0.78039216
v 0.05008811 -0.01081261 -0.01150563 0.79607843 0.45882353 0.78039216
v 0.03776831 -0.01065663 -0.01151914 0.79607843 0.45882353 0.78039216
v 0.03776831 -0.01168400 -0.01100918 0.79607843 0.45882353 0.78039216
v -0.01149847 -0.01179207 -0.01086114 0.79607843 0.45882353 0.78039216
v -0.01149847 -0.01172023 -0.01095965 0.79607843 0.45882353 0.78039216
v -0.01149847 -0.01168400 -0.01100918 0.79607843 0.45882353 0.78039216
v 0.03776831 -0.01164408 -0.01105477 0.79607843 0.45882353 0.78039216
v 0.05008811 -0.01148872 -0.01120393 0.79607843 0.45882353 0.78039216
v -0.01185259 -0.01166619 -0.01103338 0.79607843 0.45882353 0.78039216
v -0.01185259 -0.01175462 -0.01091236 0.79607843 0.45882353 0.78039216
v 0.05008811 -0.01128300 -0.01134183 0.79607843 0.45882353 0.78039216
v 0.05008811 -0.01105517 -0.01144372 0.79607843 0.45882353 0.78039216
v 0.02544851 -0.01074997 -0.01151126 0.79607843 0.45882353 0.78039216
v -0.01149847 -0.01078129 -0.01150845 0.79607843 0.45882353 0.78039216
v -0.01185259 -0.01078067 -0.01150845 0.79607843 0.45882353 0.78039216
v 0.02544851 -0.01087340 -0.01149043 0.79607843 0.45882353 0.78039216
v -0.01185259 -0.01084208 -0.01149831 0.79607843 0.45882353 0.78039216
v -0.01185259 -0.01081261 -0.01150563 0.79607843 0.45882353 0.78039216
v -0.01149847 -0.01164408 -0.01105477 0.79607843 0.45882353 0.78039216
v -0.01185259 -0.01148872 -0.01120393 0.79607843 0.45882353 0.78039216
v -0.01185259 -0.01164347 -0.01105533 0.79607843 0.45882353 0.78039216
v 0.03776831 -0.01125414 -0.01135478 0.79607843 0.45882353 0.78039216
v -0.01185259 -0.01128300 -0.01134183 0.79607843 0.45882353 0.78039216
v -0.01185259 -0.01119518 -0.01138124 0.79607843 0.45882353 0.78039216
v 0.01314113 -0.01119764 -0.01138011 0.79607843 0.45882353 0.78039216
v -0.01185259 -0.01105517 -0.01144372 0.79607843 0.45882353 0.78039216
f 1 2 6
f 1 6 3
f 1 3 7
f 1 7 21
f 1 21 46
f 1 46 62
f 1 62 80
f 1 80 79
f 1 79 108
f 1 108 109
f 1 109 134
f 1 134 166
f 1 166 180
f 1 180 179
f 1 179 184
f 1 184 168
f 1 168 144
f 1 144 110
f 1 110 83
f 1 83 65
f 1 65 64
f 1 64 48
f 1 48 34
f 1 34 33
f 1 33 32
f 1 32 31
f 1 31 30
f 1 30 29
f 1 29 28
f 1 28 27
f 1 27 26
f 1 26 25
f 1 25 22
f 1 22 8
f 1 8 4
f 1 4 9
f 1 9 24
f 1 24 49
f 1 49 67
f 1 67 94
f 1 94 119
f 1 119 122
f 1 122 157
f 1 157 158
f 1 158 159
f 1 159 124
f 1 124 123
f 1 123 97
f 1 97 96
f 1 96 69
f 1 69 51
f 1 51 35
f 1 35 10
f 1 10 5
f 1 5 2
f 2 5 6
f 3 6 7
f 4 8 9
f 5 10 11
f 5 11 6
f 6 11 12
f 6 12 13
f 6 13 14
f 6 14 15
f 6 15 16
f 6 16 17
f 6 17 18
f 6 18 19
f 6 19 20
f 6 20 7
f 7 20 21
f 8 22 9
f 9 23 47
f 9 47 63
f 9 63 82
f 9 82 90
f 9 90 89
f 9 89 88
f 9 88 87
f 9 87 86
f 9 86 85
f 9 85 84
f 9 84 111
f 9 111 143
f 9 143 142
f 9 142 141
f 9 141 140
f 9 140 139
f 9 139 138
f 9 138 137
f 9 137 136
f 9 136 167
f 9 167 183
f 9 183 199
f 9 199 202
f 9 202 201
f 9 201 210
f 9 210 208
f 9 208 207
f 9 207 204
f 9 204 205
f 9 205 193
f 9 193 194
f 9 194 173
f 9 173 152
f 9 152 151
f 9 151 147
f 9 147 145
f 9 145 114
f 9 114 95
f 9 95 68
f 9 68 50
f 9 50 24
f 9 22 25
f 9 25 26
f 9 26 27
f 9 27 28
f 9 28 29
f 9 29 30
f 9 30 31
f 9 31 32
f 9 32 33
f 9 33 34
f 9 34 23
f 10 35 36
f 10 36 11
f 11 36 12
f 12 36 37
f 12 37 13
f 13 37 38
f 13 38 39
f 13 39 14
f 14 39 15
f 15 39 40
f 15 40 41
f 15 41 16
f 16 41 17
f 17 41 42
f 17 42 43
f 17 43 18
f 18 43 19
f 19 43 44
f 19 44 45
f 19 45 20
f 20 45 46
f 20 46 21
f 23 34 48
f 23 48 47
f 24 50 66
f 24 66 49
f 35 51 36
f 36 51 52
f 36 52 37
f 37 52 53
f 37 53 38
f 38 53 54
f 38 54 39
f 39 54 55
f 39 55 56
f 39 56 40
f 40 56 41
f 41 56 57
f 41 57 58
f 41 58 42
f 42 58 59
f 42 59 43
f 43 59 60
f 43 60 44
f 44 60 45
f 45 60 61
f 45 61 62
f 45 62 46
f 47 48 64
f 47 64 65
f 47 65 63
f 49 66 67
f 50 68 66
f 51 69 52
f 52 69 96
f 52 96 70
f 52 70 71
f 52 71 53
f 53 71 54
f 54 71 72
f 54 72 55
f 55 72 73
f 55 73 74
f 55 74 56
f 56 74 57
f 57 74 75
f 57 75 58
f 58 75 76
f 58 76 77
f 58 77 59
f 59 77 60
f 60 77 78
f 60 78 61
f 61 79 80
f 61 80 62
f 61 78 81
f 61 81 79
f 63 65 82
f 65 83 84
f 65 84 85
f 65 85 86
f 65 86 87
f 65 87 88
f 65 88 89
f 65 89 90
f 65 90 82
f 66 91 92
f 66 92 93
f 66 93 67
f 66 68 91
f 67 93 94
f 68 95 91
f 70 96 97
f 70 97 98
f 70 98 71
f 71 98 99
f 71 99 100
f 71 100 72
f 72 100 73
f 73 100 101
f 73 101 102
f 73 102 74
f 74 102 75
f 75 102 103
f 75 103 104
f 75 104 76
f 76 104 77
f 77 104 105
f 77 105 78
f 78 105 106
f 78 106 107
f 78 107 81
f 79 81 108
f 81 107 109
f 81 109 108
f 83 110 111
f 83 111 84
f 91 112 92
f 91 95 113
f 91 113 114
f 91 114 112
f 92 115 116
f 92 116 117
f 92 117 118
f 92 118 93
f 92 112 114
f 92 114 146
f 92 146 115
f 93 119 94
f 93 118 120
f 93 120 121
f 93 121 122
f 93 122 119
f 95 114 113
f 97 123 98
f 98 123 124
f 98 124 125
f 98 125 126
f 98 126 99
f 99 126 127
f 99 127 100
f 100 127 101
f 101 127 128
f 101 128 102
f 102 128 129
f 102 129 130
f 102 130 103
f 103 130 104
f 104 130 131
f 104 131 132
f 104 132 105
f 105 132 106
f 106 132 133
f 106 133 107
f 107 134 109
f 107 133 135
f 107 135 166
f 107 166 134
f 110 136 137
f 110 137 138
f 110 138 139
f 110 139 140
f 110 140 141
f 110 141 142
f 110 142 143
f 110 143 111
f 110 144 169
f 110 169 167
f 110 167 136
f 114 145 146
f 115 146 147
f 115 147 148
f 115 148 116
f 116 149 150
f 116 150 117
f 116 148 147
f 116 147 151
f 116 151 152
f 116 152 153
f 116 153 149
f 117 154 155
f 117 155 156
f 117 156 120
f 117 120 118
f 117 150 154
f 120 156 127
f 120 127 126
f 120 126 125
f 120 125 121
f 121 157 122
f 121 125 158
f 121 158 157
f 124 159 125
f 125 159 158
f 127 156 155
f 127 155 128
f 128 155 129
f 129 155 160
f 129 160 130
f 130 160 161
f 130 161 162
f 130 162 131
f 131 162 132
f 132 162 163
f 132 163 133
f 133 163 164
f 133 164 165
f 133 165 135
f 135 165 180
f 135 180 166
f 144 168 169
f 145 147 146
f 149 153 170
f 149 170 173
f 149 173 150
f 150 171 172
f 150 172 154
f 150 173 188
f 150 188 171
f 152 173 170
f 152 170 153
f 154 174 155
f 154 172 174
f 155 174 160
f 160 174 161
f 161 174 175
f 161 175 176
f 161 176 162
f 162 176 163
f 163 176 177
f 163 177 164
f 164 177 178
f 164 178 165
f 165 179 180
f 165 178 181
f 165 181 179
f 167 182 183
f 167 169 186
f 167 186 182
f 168 184 181
f 168 181 169
f 169 181 178
f 169 178 185
f 169 185 186
f 171 187 172
f 171 188 189
f 171 189 190
f 171 190 187
f 172 191 192
f 172 192 174
f 172 187 190
f 172 190 193
f 172 193 203
f 172 203 191
f 173 194 188
f 174 192 175
f 175 192 176
f 176 192 195
f 176 195 196
f 176 196 177
f 177 196 178
f 178 196 185
f 179 181 184
f 182 186 197
f 182 197 183
f 183 198 199
f 183 197 198
f 185 197 186
f 185 196 200
f 185 200 201
f 185 201 202
f 185 202 198
f 185 198 197
f 188 194 189
f 189 194 193
f 189 193 190
f 191 203 204
f 191 204 192
f 192 204 207
f 192 207 195
f 193 205 203
f 195 206 196
f 195 207 208
f 195 208 206
f 196 206 209
f 196 209 208
f 196 208 210
f 196 210 200
f 198 202 199
f 200 210 201
f 203 205 204
f 206 208 209

