# https://github.com/mikedh/trimesh
v -0.02177030 0.00572982 -0.00577739 0.94117647 0.52156863 0.41176471
v -0.02152212 0.00507902 -0.00070966 0.94117647 0.52156863 0.41176471
v -0.02198030 0.00572982 -0.01020556 0.94117647 0.52156863 0.41176471
v -0.04938356 0.00572982 -0.00577739 0.94117647 0.52156863 0.41176471
v -0.02152212 -0.00549638 -0.00070966 0.94117647 0.52156863 0.41176471
v -0.02196393 -0.00573313 -0.00986990 0.94117647 0.52156863 0.41176471
v -0.04938356 0.00507902 -0.00070966 0.94117647 0.52156863 0.41176471
v -0.02198302 -0.00573313 -0.01020873 0.94117647 0.52156863 0.41176471
v -0.02199393 -0.00573313 -0.01032203 0.94117647 0.52156863 0.41176471
v -0.02199393 0.00572982 -0.01032521 0.94117647 0.52156863 0.41176471
v -0.04938356 0.00572982 -0.01123795 0.94117647 0.52156863 0.41176471
v -0.02177030 -0.00573313 -0.00577739 0.94117647 0.52156863 0.41176471
v -0.04938356 -0.00549638 -0.00070966 0.94117647 0.52156863 0.41176471
v -0.02201575 -0.00573313 -0.01044063 0.94117647 0.52156863 0.41176471
v -0.02201575 0.00572982 -0.01043745 0.94117647 0.52156863 0.41176471
v -0.04921992 0.00572982 -0.01134172 0.94117647 0.52156863 0.41176471
v -0.04938356 -0.00573313 -0.01123795 0.94117647 0.52156863 0.41176471
v -0.04938356 -0.00573313 -0.00577739 0.94117647 0.52156863 0.41176471
v -0.02204848 -0.00573313 -0.01055181 0.94117647 0.52156863 0.41176471
v -0.02204848 0.00572982 -0.01055392 0.94117647 0.52156863 0.41176471
v -0.04897993 0.00572982 -0.01144337 0.94117647 0.52156863 0.41176471
v -0.04921992 -0.00573313 -0.01134172 0.94117647 0.52156863 0.41176471
v -0.02209212 -0.00573313 -0.01066510 0.94117647 0.52156863 0.41176471
v -0.02209212 0.00572982 -0.01066193 0.94117647 0.52156863 0.41176471
v -0.04897993 -0.00573313 -0.01144337 0.94117647 0.52156863 0.41176471
v -0.04872357 0.00572982 -0.01150478 0.94117647 0.52156863 0.41176471
v -0.02214666 -0.00573313 -0.01076781 0.94117647 0.52156863 0.41176471
v -0.02214666 0.00572982 -0.01077099 0.94117647 0.52156863 0.41176471
v -0.04872357 -0.00573313 -0.01150478 0.94117647 0.52156863 0.41176471
v -0.04866084 0.00572982 -0.01151008 0.94117647 0.52156863 0.41176471
v -0.02220666 -0.00573313 -0.01086629 0.94117647 0.52156863 0.41176471
v -0.02220938 0.00572982 -0.01087052 0.94117647 0.52156863 0.41176471
v -0.04866084 -0.00573313 -0.01151008 0.94117647 0.52156863 0.41176471
v -0.04851630 0.00572982 -0.01152173 0.94117647 0.52156863 0.41176471
v -0.04845630 -0.00000054 -0.01152702 0.94117647 0.52156863 0.41176471
v -0.02228029 -0.00573313 -0.01096794 0.94117647 0.52156863 0.41176471
v -0.02228302 0.00572982 -0.01097112 0.94117647 0.52156863 0.41176471
v -0.04845630 -0.00573313 -0.01152702 0.94117647 0.52156863 0.41176471
v -0.04845630 0.00572982 -0.01152596 0.94117647 0.52156863 0.41176471
v -0.02350482 -0.00000054 -0.01152702 0.94117647 0.52156863 0.41176471
v -0.02236211 -0.00573313 -0.01105900 0.94117647 0.52156863 0.41176471
v -0.02236211 0.00572982 -0.01105900 0.94117647 0.52156863 0.41176471
v -0.02350482 -0.00573313 -0.01152702 0.94117647 0.52156863 0.41176471
v -0.02350482 0.00572982 -0.01152596 0.94117647 0.52156863 0.41176471
v -0.02327301 0.00572982 -0.01150796 0.94117647 0.52156863 0.41176471
v -0.02255029 -0.00573313 -0.01121995 0.94117647 0.52156863 0.41176471
v -0.02255847 0.00572982 -0.01122736 0.94117647 0.52156863 0.41176471
v -0.02327301 -0.00573313 -0.01150796 0.94117647 0.52156863 0.41176471
v -0.02324846 0.00572982 -0.01150584 0.94117647 0.52156863 0.41176471
v -0.02276301 -0.00573313 -0.01135125 0.94117647 0.52156863 0.41176471
v -0.02276301 0.00572982 -0.01135125 0.94117647 0.52156863 0.41176471
v -0.02324846 -0.00573313 -0.01150584 0.94117647 0.52156863 0.41176471
v -0.02299756 0.00572982 -0.01144761 0.94117647 0.52156863 0.41176471
v -0.02321846 -0.00573313 -0.01150055 0.94117647 0.52156863 0.41176471
v -0.02277938 0.00572982 -0.01135866 0.94117647 0.52156863 0.41176471
v -0.02299756 -0.00573313 -0.01144761 0.94117647 0.52156863 0.41176471
f 1 2 3
f 1 3 10
f 1 10 15
f 1 15 20
f 1 20 24
f 1 24 28
f 1 28 32
f 1 32 37
f 1 37 42
f 1 42 47
f 1 47 51
f 1 51 55
f 1 55 53
f 1 53 49
f 1 49 45
f 1 45 44
f 1 44 39
f 1 39 34
f 1 34 30
f 1 30 26
f 1 26 21
f 1 21 16
f 1 16 11
f 1 11 4
f 1 4 7
f 1 7 2
f 2 5 6
f 2 6 3
f 2 7 13
f 2 13 5
f 3 8 9
f 3 9 10
f 3 6 8
f 4 11 17
f 4 17 18
f 4 18 13
f 4 13 7
f 5 12 6
f 5 13 18
f 5 18 12
f 6 12 18
f 6 18 17
f 6 17 22
f 6 22 25
f 6 25 29
f 6 29 33
f 6 33 38
f 6 38 43
f 6 43 48
f 6 48 52
f 6 52 54
f 6 54 56
f 6 56 50
f 6 50 46
f 6 46 41
f 6 41 36
f 6 36 31
f 6 31 27
f 6 27 23
f 6 23 19
f 6 19 14
f 6 14 9
f 6 9 8
f 9 14 10
f 10 14 15
f 11 16 22
f 11 22 17
f 14 19 20
f 14 20 15
f 16 21 25
f 16 25 22
f 19 23 20
f 20 23 24
f 21 26 29
f 21 29 25
f 23 27 28
f 23 28 24
f 26 30 33
f 26 33 29
f 27 31 28
f 28 31 32
f 30 34 35
f 30 35 38
f 30 38 33
f 31 36 32
f 32 36 37
f 34 39 35
f 35 39 44
f 35 44 40
f 35 40 43
f 35 43 38
f 36 41 37
f 37 41 42
f 40 44 45
f 40 45 48
f 40 48 43
f 41 46 47
f 41 47 42
f 45 49 52
f 45 52 48
f 46 50 47
f 47 50 51
f 49 53 54
f 49 54 52
f 50 55 51
f 50 56 55
f 53 56 54
f 53 55 56

