# https://github.com/mikedh/trimesh
v -0.00946228 -0.00521605 0.00573107 0.11764706 0.63921569 0.14117647
v -0.00946228 -0.01200332 0.00573107 0.11764706 0.63921569 0.14117647
v -0.00946228 -0.00548647 -0.00021601 0.11764706 0.63921569 0.14117647
v -0.02118576 -0.00549511 -0.00040641 0.11764706 0.63921569 0.14117647
v -0.02118576 -0.00521605 0.00573107 0.11764706 0.63921569 0.14117647
v -0.00946228 -0.01200332 -0.00070903 0.11764706 0.63921569 0.14117647
v -0.02118576 -0.01200332 0.00573107 0.11764706 0.63921569 0.14117647
v -0.00946228 -0.00550906 -0.00070903 0.11764706 0.63921569 0.14117647
v -0.02118576 -0.00550906 -0.00070903 0.11764706 0.63921569 0.14117647
v -0.02118576 -0.01200332 -0.00070903 0.11764706 0.63921569 0.14117647
f 1 2 6
f 1 6 8
f 1 8 3
f 1 3 4
f 1 4 5
f 1 5 7
f 1 7 2
f 2 7 10
f 2 10 6
f 3 8 4
f 4 9 10
f 4 10 7
f 4 7 5
f 4 8 9
f 6 10 9
f 6 9 8

