# https://github.com/mikedh/trimesh
v -0.00280468 0.01200332 0.01009813 0.26274510 0.77254902 0.45490196
v -0.00280468 0.01198209 0.01032880 0.26274510 0.77254902 0.45490196
v -0.00280468 0.01200332 0.00573107 0.26274510 0.77254902 0.45490196
v -0.04845344 0.01200332 0.01009813 0.26274510 0.77254902 0.45490196
v -0.02382354 0.01198688 0.01027817 0.26274510 0.77254902 0.45490196
v -0.00280468 0.01198072 0.01033724 0.26274510 0.77254902 0.45490196
v -0.04845344 0.01198072 0.01033724 0.26274510 0.77254902 0.45490196
v -0.00280468 0.00521597 0.00573107 0.26274510 0.77254902 0.45490196
v -0.04845344 0.01200332 0.00573107 0.26274510 0.77254902 0.45490196
v -0.04851271 0.01199853 0.00573107 0.26274510 0.77254902 0.45490196
v -0.04871789 0.01198072 0.01013976 0.26274510 0.77254902 0.45490196
v -0.04870421 0.01198072 0.01018027 0.26274510 0.77254902 0.45490196
v -0.04868141 0.01198072 0.01021797 0.26274510 0.77254902 0.45490196
v -0.04865861 0.01198072 0.01025229 0.26274510 0.77254902 0.45490196
v -0.04862670 0.01198072 0.01028098 0.26274510 0.77254902 0.45490196
v -0.04858566 0.01198072 0.01030517 0.26274510 0.77254902 0.45490196
v -0.04854919 0.01198072 0.01032261 0.26274510 0.77254902 0.45490196
v -0.04849904 0.01198072 0.01033443 0.26274510 0.77254902 0.45490196
v -0.00280468 0.01197866 0.01034624 0.26274510 0.77254902 0.45490196
v -0.04845344 0.01191633 0.01056961 0.26274510 0.77254902 0.45490196
v -0.03613849 0.01192455 0.01054147 0.26274510 0.77254902 0.45490196
v -0.01150402 0.01197318 0.01036706 0.26274510 0.77254902 0.45490196
v -0.00280468 0.00502075 0.01001767 0.26274510 0.77254902 0.45490196
v -0.02121555 0.00500568 0.00573107 0.26274510 0.77254902 0.45490196
v -0.04871789 0.01198072 0.00573107 0.26274510 0.77254902 0.45490196
v -0.04897777 0.01191633 0.01009813 0.26274510 0.77254902 0.45490196
v -0.04896865 0.01191633 0.01018027 0.26274510 0.77254902 0.45490196
v -0.04894586 0.01191633 0.01025960 0.26274510 0.77254902 0.45490196
v -0.04890938 0.01191633 0.01033443 0.26274510 0.77254902 0.45490196
v -0.04885467 0.01191633 0.01040082 0.26274510 0.77254902 0.45490196
v -0.04879084 0.01191633 0.01045989 0.26274510 0.77254902 0.45490196
v -0.04871789 0.01191633 0.01050659 0.26274510 0.77254902 0.45490196
v -0.04863582 0.01191633 0.01054147 0.26274510 0.77254902 0.45490196
v -0.04854919 0.01191633 0.01056285 0.26274510 0.77254902 0.45490196
v -0.00280468 0.01191838 0.01056173 0.26274510 0.77254902 0.45490196
v -0.04845344 0.01181016 0.01078790 0.26274510 0.77254902 0.45490196
v -0.00280468 0.01186701 0.01067144 0.26274510 0.77254902 0.45490196
v -0.01185966 0.01191633 0.01056961 0.26274510 0.77254902 0.45490196
v -0.00280468 0.00502007 0.01003737 0.26274510 0.77254902 0.45490196
v -0.02101038 0.00500568 0.01001317 0.26274510 0.77254902 0.45490196
v -0.04938356 0.00500568 0.00573107 0.26274510 0.77254902 0.45490196
v -0.04897777 0.01191633 0.00573107 0.26274510 0.77254902 0.45490196
v -0.04921486 0.01181016 0.01009813 0.26274510 0.77254902 0.45490196
v -0.04920574 0.01181016 0.01021797 0.26274510 0.77254902 0.45490196
v -0.04917383 0.01181016 0.01033443 0.26274510 0.77254902 0.45490196
v -0.04911456 0.01181016 0.01044302 0.26274510 0.77254902 0.45490196
v -0.04904161 0.01181016 0.01054147 0.26274510 0.77254902 0.45490196
v -0.04894586 0.01181016 0.01062643 0.26274510 0.77254902 0.45490196
v -0.04883643 0.01181016 0.01069507 0.26274510 0.77254902 0.45490196
v -0.04871789 0.01181016 0.01074683 0.26274510 0.77254902 0.45490196
v -0.04858566 0.01181016 0.01077778 0.26274510 0.77254902 0.45490196
v -0.00280468 0.01191564 0.01056961 0.26274510 0.77254902 0.45490196
v -0.04845344 0.01166632 0.01098538 0.26274510 0.77254902 0.45490196
v -0.01185966 0.01181016 0.01078790 0.26274510 0.77254902 0.45490196
v -0.00280468 0.01181358 0.01078059 0.26274510 0.77254902 0.45490196
v -0.00280468 0.01191222 0.01057804 0.26274510 0.77254902 0.45490196
v -0.00280468 0.00502007 0.01014933 0.26274510 0.77254902 0.45490196
v -0.02100582 0.00500568 0.01014933 0.26274510 0.77254902 0.45490196
v -0.04938356 0.00500568 0.01119074 0.26274510 0.77254902 0.45490196
v -0.04938356 0.01170262 0.00573107 0.26274510 0.77254902 0.45490196
v -0.04921486 0.01181016 0.00573107 0.26274510 0.77254902 0.45490196
v -0.04938356 0.01170262 0.01009813 0.26274510 0.77254902 0.45490196
v -0.04938356 0.01169303 0.01024554 0.26274510 0.77254902 0.45490196
v -0.04938356 0.01166632 0.01038957 0.26274510 0.77254902 0.45490196
v -0.04937900 0.01166632 0.01040082 0.26274510 0.77254902 0.45490196
v -0.04930605 0.01166632 0.01054147 0.26274510 0.77254902 0.45490196
v -0.04920574 0.01166632 0.01066806 0.26274510 0.77254902 0.45490196
v -0.04908264 0.01166632 0.01077778 0.26274510 0.77254902 0.45490196
v -0.04894586 0.01166632 0.01086667 0.26274510 0.77254902 0.45490196
v -0.04879084 0.01166632 0.01093137 0.26274510 0.77254902 0.45490196
v -0.04862670 0.01166632 0.01097188 0.26274510 0.77254902 0.45490196
v -0.04845344 0.01148754 0.01115586 0.26274510 0.77254902 0.45490196
v -0.01185510 0.01148822 0.01115586 0.26274510 0.77254902 0.45490196
v -0.01185966 0.01159782 0.01105121 0.26274510 0.77254902 0.45490196
v -0.01185966 0.01166632 0.01098538 0.26274510 0.77254902 0.45490196
v -0.00280468 0.01180947 0.01078790 0.26274510 0.77254902 0.45490196
v -0.00280468 0.00502897 0.01025960 0.26274510 0.77254902 0.45490196
v -0.02228246 0.00500568 0.01146080 0.26274510 0.77254902 0.45490196
v -0.02204537 0.00500568 0.01140735 0.26274510 0.77254902 0.45490196
v -0.02182196 0.00500568 0.01131958 0.26274510 0.77254902 0.45490196
v -0.02161223 0.00500568 0.01120030 0.26274510 0.77254902 0.45490196
v -0.02142985 0.00500568 0.01105233 0.26274510 0.77254902 0.45490196
v -0.02127483 0.00500568 0.01087736 0.26274510 0.77254902 0.45490196
v -0.02120644 0.00500568 0.01078565 0.26274510 0.77254902 0.45490196
v -0.02115172 0.00500568 0.01068551 0.26274510 0.77254902 0.45490196
v -0.02110613 0.00500568 0.01058423 0.26274510 0.77254902 0.45490196
v -0.02106510 0.00500568 0.01047846 0.26274510 0.77254902 0.45490196
v -0.02103774 0.00500568 0.01036987 0.26274510 0.77254902 0.45490196
v -0.02101494 0.00500568 0.01025960 0.26274510 0.77254902 0.45490196
v -0.04930605 0.00500568 0.01123912 0.26274510 0.77254902 0.45490196
v -0.04938356 0.01056215 0.01119074 0.26274510 0.77254902 0.45490196
v -0.04938356 0.01166221 0.01040194 0.26274510 0.77254902 0.45490196
v -0.04938356 0.01158343 0.01058086 0.26274510 0.77254902 0.45490196
v -0.04938356 0.01148754 0.01073895 0.26274510 0.77254902 0.45490196
v -0.04934708 0.01148754 0.01077778 0.26274510 0.77254902 0.45490196
v -0.04920574 0.01148754 0.01090830 0.26274510 0.77254902 0.45490196
v -0.04885467 0.01148754 0.01109172 0.26274510 0.77254902 0.45490196
v -0.04904161 0.01148754 0.01101351 0.26274510 0.77254902 0.45490196
v -0.04865861 0.01148754 0.01113954 0.26274510 0.77254902 0.45490196
v -0.04868141 0.01128205 0.01127569 0.26274510 0.77254902 0.45490196
v -0.04845344 0.01128205 0.01129314 0.26274510 0.77254902 0.45490196
v -0.03613849 0.01136013 0.01124194 0.26274510 0.77254902 0.45490196
v -0.00280468 0.01148822 0.01115586 0.26274510 0.77254902 0.45490196
v -0.00280468 0.01166563 0.01098538 0.26274510 0.77254902 0.45490196
v -0.00280468 0.00504678 0.01036987 0.26274510 0.77254902 0.45490196
v -0.02250131 0.00500568 0.01147655 0.26274510 0.77254902 0.45490196
v -0.04921486 0.00500568 0.01129314 0.26274510 0.77254902 0.45490196
v -0.04921486 0.01056215 0.01129314 0.26274510 0.77254902 0.45490196
v -0.04938356 0.01081285 0.01116542 0.26274510 0.77254902 0.45490196
v -0.04920574 0.01081285 0.01127569 0.26274510 0.77254902 0.45490196
v -0.04938356 0.01143617 0.01079972 0.26274510 0.77254902 0.45490196
v -0.04930605 0.01128205 0.01101351 0.26274510 0.77254902 0.45490196
v -0.04890938 0.01128205 0.01122168 0.26274510 0.77254902 0.45490196
v -0.04911456 0.01128205 0.01113335 0.26274510 0.77254902 0.45490196
v -0.04870421 0.01105532 0.01137528 0.26274510 0.77254902 0.45490196
v -0.04845344 0.01105532 0.01139553 0.26274510 0.77254902 0.45490196
v -0.00280468 0.01117725 0.01134096 0.26274510 0.77254902 0.45490196
v -0.00280468 0.01128205 0.01129314 0.26274510 0.77254902 0.45490196
v -0.01185966 0.01130808 0.01127682 0.26274510 0.77254902 0.45490196
v -0.00280468 0.01148069 0.01116092 0.26274510 0.77254902 0.45490196
v -0.00280468 0.00507418 0.01047846 0.26274510 0.77254902 0.45490196
v -0.02252866 0.00500568 0.01147824 0.26274510 0.77254902 0.45490196
v -0.04897777 0.00500568 0.01139553 0.26274510 0.77254902 0.45490196
v -0.04897777 0.01056215 0.01139553 0.26274510 0.77254902 0.45490196
v -0.04938356 0.01103546 0.01109566 0.26274510 0.77254902 0.45490196
v -0.04917383 0.01105532 0.01122168 0.26274510 0.77254902 0.45490196
v -0.04896865 0.01081285 0.01137528 0.26274510 0.77254902 0.45490196
v -0.04938356 0.01128205 0.01094487 0.26274510 0.77254902 0.45490196
v -0.04938356 0.01105532 0.01108890 0.26274510 0.77254902 0.45490196
v -0.04894586 0.01105532 0.01131620 0.26274510 0.77254902 0.45490196
v -0.04871789 0.01081285 0.01143717 0.26274510 0.77254902 0.45490196
v -0.04845344 0.01081285 0.01145686 0.26274510 0.77254902 0.45490196
v -0.03613849 0.01090326 0.01143435 0.26274510 0.77254902 0.45490196
v -0.01185510 0.01084230 0.01145011 0.26274510 0.77254902 0.45490196
v -0.01150402 0.01090395 0.01143435 0.26274510 0.77254902 0.45490196
v -0.01185966 0.01105532 0.01139553 0.26274510 0.77254902 0.45490196
v -0.00280468 0.01105464 0.01139553 0.26274510 0.77254902 0.45490196
v -0.00280468 0.00511048 0.01058423 0.26274510 0.77254902 0.45490196
v -0.02680083 0.00500568 0.01147880 0.26274510 0.77254902 0.45490196
v -0.00280468 0.00515569 0.01068663 0.26274510 0.77254902 0.45490196
v -0.00280468 0.00520980 0.01078565 0.26274510 0.77254902 0.45490196
v -0.00280468 0.00527214 0.01088017 0.26274510 0.77254902 0.45490196
v -0.00280468 0.00541529 0.01104840 0.26274510 0.77254902 0.45490196
v -0.00280468 0.00542214 0.01105627 0.26274510 0.77254902 0.45490196
v -0.00280468 0.00558585 0.01119580 0.26274510 0.77254902 0.45490196
v -0.00280468 0.00559407 0.01120199 0.26274510 0.77254902 0.45490196
v -0.00280468 0.00578792 0.01131958 0.26274510 0.77254902 0.45490196
v -0.00280468 0.00579682 0.01132352 0.26274510 0.77254902 0.45490196
v -0.00280468 0.00600163 0.01140735 0.26274510 0.77254902 0.45490196
v -0.00280468 0.00622698 0.01146080 0.26274510 0.77254902 0.45490196
v -0.00280468 0.00645919 0.01147880 0.26274510 0.77254902 0.45490196
v -0.04871789 0.00500568 0.01145686 0.26274510 0.77254902 0.45490196
v -0.04871789 0.01056215 0.01145686 0.26274510 0.77254902 0.45490196
v -0.04845344 0.01056215 0.01147880 0.26274510 0.77254902 0.45490196
v -0.02382354 0.01074914 0.01146305 0.26274510 0.77254902 0.45490196
v -0.00280468 0.01080326 0.01145855 0.26274510 0.77254902 0.45490196
v -0.00280468 0.01081285 0.01145686 0.26274510 0.77254902 0.45490196
v -0.00280468 0.01096011 0.01141973 0.26274510 0.77254902 0.45490196
v -0.04845344 0.00500568 0.01147880 0.26274510 0.77254902 0.45490196
v -0.00280468 0.01056215 0.01147880 0.26274510 0.77254902 0.45490196
v -0.04852639 0.00500568 0.01147317 0.26274510 0.77254902 0.45490196
v -0.00280468 0.01069640 0.01146755 0.26274510 0.77254902 0.45490196
f 1 2 6
f 1 6 19
f 1 19 35
f 1 35 52
f 1 52 56
f 1 56 37
f 1 37 55
f 1 55 76
f 1 76 104
f 1 104 103
f 1 103 120
f 1 120 118
f 1 118 117
f 1 117 137
f 1 137 158
f 1 158 157
f 1 157 156
f 1 156 162
f 1 162 160
f 1 160 151
f 1 151 150
f 1 150 149
f 1 149 148
f 1 148 147
f 1 147 146
f 1 146 145
f 1 145 144
f 1 144 143
f 1 143 142
f 1 142 141
f 1 141 140
f 1 140 138
f 1 138 121
f 1 121 105
f 1 105 77
f 1 77 57
f 1 57 39
f 1 39 23
f 1 23 8
f 1 8 3
f 1 3 9
f 1 9 4
f 1 4 5
f 1 5 2
f 2 5 7
f 2 7 6
f 3 8 24
f 3 24 41
f 3 41 60
f 3 60 61
f 3 61 42
f 3 42 25
f 3 25 10
f 3 10 9
f 4 9 10
f 4 10 11
f 4 11 12
f 4 12 13
f 4 13 14
f 4 14 15
f 4 15 16
f 4 16 17
f 4 17 18
f 4 18 7
f 4 7 5
f 6 7 19
f 7 18 20
f 7 20 21
f 7 21 22
f 7 22 19
f 8 23 24
f 10 25 11
f 11 25 42
f 11 42 26
f 11 26 27
f 11 27 28
f 11 28 12
f 12 28 29
f 12 29 13
f 13 29 14
f 14 29 30
f 14 30 31
f 14 31 15
f 15 31 32
f 15 32 16
f 16 32 17
f 17 32 33
f 17 33 34
f 17 34 18
f 18 34 20
f 19 22 35
f 20 34 36
f 20 36 37
f 20 37 38
f 20 38 21
f 21 38 22
f 22 38 35
f 23 39 24
f 24 40 58
f 24 58 89
f 24 89 88
f 24 88 87
f 24 87 86
f 24 86 85
f 24 85 84
f 24 84 83
f 24 83 82
f 24 82 81
f 24 81 80
f 24 80 79
f 24 79 78
f 24 78 106
f 24 106 122
f 24 122 139
f 24 139 159
f 24 159 161
f 24 161 152
f 24 152 123
f 24 123 107
f 24 107 90
f 24 90 59
f 24 59 41
f 24 39 40
f 26 42 61
f 26 61 43
f 26 43 44
f 26 44 27
f 27 44 45
f 27 45 28
f 28 45 29
f 29 45 46
f 29 46 47
f 29 47 30
f 30 47 31
f 31 47 48
f 31 48 32
f 32 48 49
f 32 49 50
f 32 50 33
f 33 50 34
f 34 50 51
f 34 51 36
f 35 38 52
f 36 51 53
f 36 53 75
f 36 75 54
f 36 54 37
f 37 56 38
f 37 54 55
f 38 56 52
f 39 57 58
f 39 58 40
f 41 59 91
f 41 91 109
f 41 109 125
f 41 125 129
f 41 129 128
f 41 128 111
f 41 111 94
f 41 94 93
f 41 93 92
f 41 92 64
f 41 64 63
f 41 63 62
f 41 62 60
f 43 61 60
f 43 60 62
f 43 62 44
f 44 62 63
f 44 63 45
f 45 63 64
f 45 64 65
f 45 65 66
f 45 66 46
f 46 66 47
f 47 66 67
f 47 67 68
f 47 68 48
f 48 68 69
f 48 69 49
f 49 69 50
f 50 69 70
f 50 70 71
f 50 71 51
f 51 71 53
f 53 71 72
f 53 72 73
f 53 73 74
f 53 74 75
f 54 75 104
f 54 104 76
f 54 76 55
f 57 77 78
f 57 78 79
f 57 79 80
f 57 80 81
f 57 81 82
f 57 82 83
f 57 83 84
f 57 84 85
f 57 85 86
f 57 86 87
f 57 87 88
f 57 88 89
f 57 89 58
f 59 90 91
f 64 92 65
f 65 92 66
f 66 92 93
f 66 93 67
f 67 93 94
f 67 94 95
f 67 95 96
f 67 96 68
f 68 96 69
f 69 97 70
f 69 96 98
f 69 98 97
f 70 97 71
f 71 99 72
f 71 97 99
f 72 99 100
f 72 100 101
f 72 101 102
f 72 102 73
f 73 103 74
f 73 102 120
f 73 120 103
f 74 103 104
f 74 104 75
f 77 105 106
f 77 106 78
f 90 107 108
f 90 108 91
f 91 108 110
f 91 110 109
f 94 111 95
f 95 111 96
f 96 111 112
f 96 112 98
f 97 98 113
f 97 113 99
f 98 112 114
f 98 114 113
f 99 113 100
f 100 113 115
f 100 115 116
f 100 116 101
f 101 116 117
f 101 117 118
f 101 118 119
f 101 119 102
f 102 119 120
f 105 121 106
f 106 121 122
f 107 123 124
f 107 124 108
f 108 124 110
f 109 110 126
f 109 126 125
f 110 124 127
f 110 127 126
f 111 128 112
f 112 126 114
f 112 128 129
f 112 129 126
f 113 130 115
f 113 114 126
f 113 126 130
f 115 130 131
f 115 131 116
f 116 131 132
f 116 132 133
f 116 133 134
f 116 134 135
f 116 135 136
f 116 136 117
f 117 136 137
f 118 120 119
f 121 138 122
f 122 138 140
f 122 140 141
f 122 141 142
f 122 142 143
f 122 143 144
f 122 144 145
f 122 145 146
f 122 146 147
f 122 147 148
f 122 148 149
f 122 149 150
f 122 150 151
f 122 151 139
f 123 152 153
f 123 153 124
f 124 153 131
f 124 131 127
f 125 126 129
f 126 127 130
f 127 131 130
f 131 153 154
f 131 154 132
f 132 154 155
f 132 155 156
f 132 156 157
f 132 157 134
f 132 134 133
f 134 157 158
f 134 158 135
f 135 158 137
f 135 137 136
f 139 151 160
f 139 160 154
f 139 154 159
f 152 161 153
f 153 161 154
f 154 161 159
f 154 160 162
f 154 162 156
f 154 156 155

