# https://github.com/mikedh/trimesh
v -0.00959276 0.00574051 -0.00577672 0.77647059 0.86666667 0.97647059
v -0.00959276 0.00550922 -0.00070884 0.77647059 0.86666667 0.97647059
v -0.00959276 0.01200266 -0.00577672 0.77647059 0.86666667 0.97647059
v -0.00199593 0.00550390 -0.00577672 0.77647059 0.86666667 0.97647059
v -0.00223595 0.00521346 -0.00070884 0.77647059 0.86666667 0.97647059
v -0.00959276 0.01200266 -0.00070884 0.77647059 0.86666667 0.97647059
v -0.00946074 0.00521612 0.00573107 0.77647059 0.86666667 0.97647059
v -0.00946074 0.01200332 -0.00070884 0.77647059 0.86666667 0.97647059
v 0.05008375 0.01200266 -0.00577672 0.77647059 0.86666667 0.97647059
v 0.04766548 0.00550390 -0.00577672 0.77647059 0.86666667 0.97647059
v -0.00254799 0.00521346 0.00573107 0.77647059 0.86666667 0.97647059
v 0.05170992 0.00521346 -0.00070884 0.77647059 0.86666667 0.97647059
v -0.00946074 0.01200332 0.00573107 0.77647059 0.86666667 0.97647059
v 0.05008375 0.01200332 -0.00070884 0.77647059 0.86666667 0.97647059
v 0.05014376 0.01199800 -0.00577672 0.77647059 0.86666667 0.97647059
v 0.05160791 0.00959935 -0.00577672 0.77647059 0.86666667 0.97647059
v 0.05160791 0.00550390 -0.00577560 0.77647059 0.86666667 0.97647059
v 0.04909964 0.00521346 0.00573107 0.77647059 0.86666667 0.97647059
v 0.05166792 0.00550390 -0.00577222 0.77647059 0.86666667 0.97647059
v 0.05170992 0.00959802 -0.00070884 0.77647059 0.86666667 0.97647059
v 0.05170992 0.00521346 0.00572318 0.77647059 0.86666667 0.97647059
v 0.05008375 0.01200332 0.00573107 0.77647059 0.86666667 0.97647059
v 0.05029377 0.01198604 -0.00577672 0.77647059 0.86666667 0.97647059
v 0.05160791 0.01056174 -0.00577672 0.77647059 0.86666667 0.97647059
v 0.05161391 0.00521346 0.00572656 0.77647059 0.86666667 0.97647059
v 0.05161391 0.00958606 0.00573107 0.77647059 0.86666667 0.97647059
v 0.05166792 0.00959935 -0.00577222 0.77647059 0.86666667 0.97647059
v 0.05170992 0.00959802 0.00572318 0.77647059 0.86666667 0.97647059
v 0.05158991 0.01075847 -0.00577672 0.77647059 0.86666667 0.97647059
v 0.05160191 0.01069533 -0.00070884 0.77647059 0.86666667 0.97647059
v 0.05159591 0.01075847 0.00573107 0.77647059 0.86666667 0.97647059
v 0.05035377 0.01198072 0.00573107 0.77647059 0.86666667 0.97647059
v 0.05035377 0.01198072 -0.00070884 0.77647059 0.86666667 0.97647059
v 0.05034778 0.01198072 -0.00577672 0.77647059 0.86666667 0.97647059
v 0.05161391 0.01056174 0.00573107 0.77647059 0.86666667 0.97647059
v 0.05158391 0.01081297 -0.00577672 0.77647059 0.86666667 0.97647059
v 0.05158991 0.01081230 -0.00070884 0.77647059 0.86666667 0.97647059
v 0.05158991 0.01081230 0.00573107 0.77647059 0.86666667 0.97647059
v 0.05060580 0.01191559 0.00573107 0.77647059 0.86666667 0.97647059
v 0.05047379 0.01195015 -0.00070884 0.77647059 0.86666667 0.97647059
v 0.05040778 0.01196677 -0.00577672 0.77647059 0.86666667 0.97647059
v 0.05157191 0.01087278 -0.00577672 0.77647059 0.86666667 0.97647059
v 0.05155991 0.01092529 -0.00070884 0.77647059 0.86666667 0.97647059
v 0.05157791 0.01086414 0.00573107 0.77647059 0.86666667 0.97647059
v 0.05065981 0.01189233 0.00573107 0.77647059 0.86666667 0.97647059
v 0.05073182 0.01186242 -0.00002283 0.77647059 0.86666667 0.97647059
v 0.05065981 0.01189299 -0.00577672 0.77647059 0.86666667 0.97647059
v 0.05060580 0.01191559 -0.00577672 0.77647059 0.86666667 0.97647059
v 0.05151790 0.01105489 -0.00577672 0.77647059 0.86666667 0.97647059
v 0.05152391 0.01105489 -0.00070884 0.77647059 0.86666667 0.97647059
v 0.05152391 0.01105489 0.00573107 0.77647059 0.86666667 0.97647059
v 0.05085183 0.01180925 0.00573107 0.77647059 0.86666667 0.97647059
v 0.05085183 0.01180925 -0.00070884 0.77647059 0.86666667 0.97647059
v 0.05079783 0.01183251 -0.00577672 0.77647059 0.86666667 0.97647059
v 0.05149390 0.01110408 -0.00577672 0.77647059 0.86666667 0.97647059
v 0.05146390 0.01117586 -0.00070884 0.77647059 0.86666667 0.97647059
v 0.05140989 0.01128220 0.00573107 0.77647059 0.86666667 0.97647059
v 0.05106786 0.01166569 0.00573107 0.77647059 0.86666667 0.97647059
v 0.05095384 0.01174212 -0.00070884 0.77647059 0.86666667 0.97647059
v 0.05101385 0.01170158 -0.00577672 0.77647059 0.86666667 0.97647059
v 0.05084583 0.01180991 -0.00577672 0.77647059 0.86666667 0.97647059
v 0.05140389 0.01128220 -0.00577672 0.77647059 0.86666667 0.97647059
v 0.05140989 0.01128220 -0.00070884 0.77647059 0.86666667 0.97647059
v 0.05128988 0.01144370 0.00573107 0.77647059 0.86666667 0.97647059
v 0.05106786 0.01166569 -0.00070884 0.77647059 0.86666667 0.97647059
v 0.05110986 0.01162714 0.00573107 0.77647059 0.86666667 0.97647059
v 0.05106185 0.01166569 -0.00577672 0.77647059 0.86666667 0.97647059
v 0.05137389 0.01132673 -0.00577672 0.77647059 0.86666667 0.97647059
v 0.05125387 0.01148823 -0.00577672 0.77647059 0.86666667 0.97647059
v 0.05125387 0.01148823 -0.00070884 0.77647059 0.86666667 0.97647059
v 0.05125387 0.01148757 0.00573107 0.77647059 0.86666667 0.97647059
v 0.05115787 0.01158261 -0.00070884 0.77647059 0.86666667 0.97647059
v 0.05110386 0.01162780 -0.00577672 0.77647059 0.86666667 0.97647059
v 0.05121787 0.01152612 0.00573107 0.77647059 0.86666667 0.97647059
f 1 2 6
f 1 6 3
f 1 3 9
f 1 9 15
f 1 15 23
f 1 23 34
f 1 34 41
f 1 41 48
f 1 48 47
f 1 47 54
f 1 54 61
f 1 61 60
f 1 60 67
f 1 67 73
f 1 73 69
f 1 69 68
f 1 68 62
f 1 62 55
f 1 55 49
f 1 49 42
f 1 42 36
f 1 36 29
f 1 29 24
f 1 24 16
f 1 16 10
f 1 10 4
f 1 4 5
f 1 5 2
f 2 5 7
f 2 7 13
f 2 13 6
f 3 6 13
f 3 13 8
f 3 8 14
f 3 14 9
f 4 10 12
f 4 12 5
f 5 11 7
f 5 12 21
f 5 21 25
f 5 25 18
f 5 18 11
f 7 11 18
f 7 18 26
f 7 26 35
f 7 35 31
f 7 31 38
f 7 38 44
f 7 44 51
f 7 51 57
f 7 57 64
f 7 64 71
f 7 71 74
f 7 74 66
f 7 66 58
f 7 58 52
f 7 52 45
f 7 45 39
f 7 39 32
f 7 32 22
f 7 22 13
f 8 13 22
f 8 22 14
f 9 14 15
f 10 16 17
f 10 17 12
f 12 17 19
f 12 19 27
f 12 27 20
f 12 20 28
f 12 28 21
f 14 22 23
f 14 23 15
f 16 24 27
f 16 27 19
f 16 19 17
f 18 25 26
f 20 27 24
f 20 24 29
f 20 29 30
f 20 30 31
f 20 31 28
f 21 26 25
f 21 28 35
f 21 35 26
f 22 32 23
f 23 33 34
f 23 32 33
f 28 31 35
f 29 36 37
f 29 37 30
f 30 37 31
f 31 37 38
f 32 39 40
f 32 40 33
f 33 40 41
f 33 41 34
f 36 42 37
f 37 42 43
f 37 43 44
f 37 44 38
f 39 45 46
f 39 46 47
f 39 47 48
f 39 48 40
f 40 48 41
f 42 49 50
f 42 50 43
f 43 50 44
f 44 50 51
f 45 52 46
f 46 52 53
f 46 53 54
f 46 54 47
f 49 55 50
f 50 55 56
f 50 56 51
f 51 56 57
f 52 58 59
f 52 59 53
f 53 59 60
f 53 60 61
f 53 61 54
f 55 62 56
f 56 62 63
f 56 63 57
f 57 63 64
f 58 65 59
f 58 66 65
f 59 65 60
f 60 65 67
f 62 68 63
f 63 68 69
f 63 69 64
f 64 69 70
f 64 70 71
f 65 66 72
f 65 72 73
f 65 73 67
f 66 74 72
f 69 73 72
f 69 72 74
f 69 74 70
f 70 74 71

