# https://github.com/mikedh/trimesh
v 0.05167175 0.00960038 -0.00070938 0.54117647 0.42352941 0.64313725
v 0.06359238 0.00910795 -0.00530186 0.54117647 0.42352941 0.64313725
v 0.05167175 0.00960038 -0.00577225 0.54117647 0.42352941 0.64313725
v 0.05167175 -0.00960038 -0.00070938 0.54117647 0.42352941 0.64313725
v 0.05171144 0.00959850 0.00572301 0.54117647 0.42352941 0.64313725
v 0.06358990 0.00910795 0.00525375 0.54117647 0.42352941 0.64313725
v 0.07555766 0.00861365 -0.00070938 0.54117647 0.42352941 0.64313725
v 0.07555766 0.00861365 -0.00482809 0.54117647 0.42352941 0.64313725
v 0.06359238 -0.00910795 -0.00530186 0.54117647 0.42352941 0.64313725
v 0.05167175 0.00955527 -0.00577337 0.54117647 0.42352941 0.64313725
v 0.07555766 -0.00861365 -0.00070938 0.54117647 0.42352941 0.64313725
v 0.06358990 -0.00910795 0.00525375 0.54117647 0.42352941 0.64313725
v 0.05171144 -0.00959850 0.00572301 0.54117647 0.42352941 0.64313725
v 0.05167175 -0.00960038 -0.00577337 0.54117647 0.42352941 0.64313725
v 0.07555518 0.00861365 0.00477999 0.54117647 0.42352941 0.64313725
v 0.07563209 0.00860801 -0.00070938 0.54117647 0.42352941 0.64313725
v 0.07555766 -0.00861365 -0.00482809 0.54117647 0.42352941 0.64313725
v 0.07568667 0.00860237 -0.00481797 0.54117647 0.42352941 0.64313725
v 0.07562217 0.00000376 -0.00482359 0.54117647 0.42352941 0.64313725
v 0.07563209 -0.00860801 -0.00070938 0.54117647 0.42352941 0.64313725
v 0.07555518 -0.00861365 0.00477999 0.54117647 0.42352941 0.64313725
v 0.07568419 0.00860237 0.00476986 0.54117647 0.42352941 0.64313725
v 0.07568667 0.00860237 -0.00070938 0.54117647 0.42352941 0.64313725
v 0.07568667 -0.00860237 -0.00481797 0.54117647 0.42352941 0.64313725
v 0.07575861 0.00859110 -0.00070938 0.54117647 0.42352941 0.64313725
v 0.07581071 0.00858170 -0.00479771 0.54117647 0.42352941 0.64313725
v 0.07575117 0.00000940 -0.00480784 0.54117647 0.42352941 0.64313725
v 0.07568667 -0.00860237 -0.00070938 0.54117647 0.42352941 0.64313725
v 0.07568419 -0.00860237 0.00476986 0.54117647 0.42352941 0.64313725
v 0.07575861 0.00859110 -0.00070826 0.54117647 0.42352941 0.64313725
v 0.07581319 0.00858170 0.00474960 0.54117647 0.42352941 0.64313725
v 0.07581071 -0.00858170 -0.00479771 0.54117647 0.42352941 0.64313725
v 0.07575861 -0.00859110 -0.00070938 0.54117647 0.42352941 0.64313725
v 0.07581319 0.00858170 -0.00070826 0.54117647 0.42352941 0.64313725
v 0.07593972 0.00855163 -0.00476845 0.54117647 0.42352941 0.64313725
v 0.07575861 -0.00859110 -0.00070826 0.54117647 0.42352941 0.64313725
v 0.07581319 -0.00858170 0.00474960 0.54117647 0.42352941 0.64313725
v 0.07593724 0.00855163 0.00472034 0.54117647 0.42352941 0.64313725
v 0.07593972 0.00855163 -0.00070938 0.54117647 0.42352941 0.64313725
v 0.07593972 -0.00855163 -0.00476845 0.54117647 0.42352941 0.64313725
v 0.07581319 -0.00858170 -0.00070826 0.54117647 0.42352941 0.64313725
v 0.07598934 0.00853471 -0.00070938 0.54117647 0.42352941 0.64313725
v 0.07605880 0.00851028 -0.00472907 0.54117647 0.42352941 0.64313725
v 0.07593972 -0.00855163 -0.00070938 0.54117647 0.42352941 0.64313725
v 0.07593724 -0.00855163 0.00472034 0.54117647 0.42352941 0.64313725
v 0.07605880 0.00851028 0.00468096 0.54117647 0.42352941 0.64313725
v 0.07605880 -0.00851028 -0.00472907 0.54117647 0.42352941 0.64313725
v 0.07598934 -0.00853471 -0.00070938 0.54117647 0.42352941 0.64313725
v 0.07611090 0.00848961 -0.00070938 0.54117647 0.42352941 0.64313725
v 0.07617788 0.00845953 -0.00468068 0.54117647 0.42352941 0.64313725
v 0.07605880 -0.00851028 0.00468096 0.54117647 0.42352941 0.64313725
v 0.07611834 0.00002255 0.00465732 0.54117647 0.42352941 0.64313725
v 0.07617788 0.00845953 0.00463257 0.54117647 0.42352941 0.64313725
v 0.07617788 -0.00845953 -0.00468068 0.54117647 0.42352941 0.64313725
v 0.07611090 -0.00848961 -0.00070938 0.54117647 0.42352941 0.64313725
v 0.07622750 0.00843510 -0.00070938 0.54117647 0.42352941 0.64313725
v 0.07628952 0.00840127 -0.00462441 0.54117647 0.42352941 0.64313725
v 0.07617788 -0.00845953 0.00463257 0.54117647 0.42352941 0.64313725
v 0.07628952 0.00839939 0.00457518 0.54117647 0.42352941 0.64313725
v 0.07628952 -0.00840127 -0.00462441 0.54117647 0.42352941 0.64313725
v 0.07622750 -0.00843510 -0.00070938 0.54117647 0.42352941 0.64313725
v 0.07628952 0.00840127 -0.00070938 0.54117647 0.42352941 0.64313725
v 0.07635402 0.00836180 -0.00070938 0.54117647 0.42352941 0.64313725
v 0.07639868 0.00833173 -0.00455802 0.54117647 0.42352941 0.64313725
v 0.07628952 -0.00839939 0.00457518 0.54117647 0.42352941 0.64313725
v 0.07634410 -0.00003195 0.00454254 0.54117647 0.42352941 0.64313725
v 0.07639620 0.00833173 0.00450991 0.54117647 0.42352941 0.64313725
v 0.07639868 -0.00833173 -0.00455802 0.54117647 0.42352941 0.64313725
v 0.07635402 -0.00836180 -0.00070938 0.54117647 0.42352941 0.64313725
v 0.07628952 -0.00840127 -0.00070938 0.54117647 0.42352941 0.64313725
v 0.07639868 0.00833173 -0.00070938 0.54117647 0.42352941 0.64313725
v 0.07645574 0.00828850 -0.00070938 0.54117647 0.42352941 0.64313725
v 0.07649792 0.00825467 -0.00448487 0.54117647 0.42352941 0.64313725
v 0.07639620 -0.00833173 0.00450991 0.54117647 0.42352941 0.64313725
v 0.07644830 -0.00003571 0.00447277 0.54117647 0.42352941 0.64313725
v 0.07649792 0.00825467 0.00443563 0.54117647 0.42352941 0.64313725
v 0.07649792 -0.00825467 -0.00448487 0.54117647 0.42352941 0.64313725
v 0.07639868 -0.00833173 -0.00070938 0.54117647 0.42352941 0.64313725
v 0.07657482 0.00817949 -0.00070938 0.54117647 0.42352941 0.64313725
v 0.07667406 0.00807988 -0.00431607 0.54117647 0.42352941 0.64313725
v 0.07649792 -0.00825467 0.00443563 0.54117647 0.42352941 0.64313725
v 0.07657482 0.00817949 -0.00070826 0.54117647 0.42352941 0.64313725
v 0.07667654 0.00807800 0.00426683 0.54117647 0.42352941 0.64313725
v 0.07667406 -0.00807988 -0.00431607 0.54117647 0.42352941 0.64313725
v 0.07660460 -0.00815130 -0.00070938 0.54117647 0.42352941 0.64313725
v 0.07667654 0.00807800 -0.00070826 0.54117647 0.42352941 0.64313725
v 0.07682291 0.00787690 -0.00412139 0.54117647 0.42352941 0.64313725
v 0.07667654 -0.00807800 0.00426683 0.54117647 0.42352941 0.64313725
v 0.07682043 0.00787690 0.00407328 0.54117647 0.42352941 0.64313725
v 0.07682291 0.00787690 -0.00070938 0.54117647 0.42352941 0.64313725
v 0.07682291 -0.00787690 -0.00412139 0.54117647 0.42352941 0.64313725
v 0.07676337 -0.00795959 -0.00070938 0.54117647 0.42352941 0.64313725
v 0.07667654 -0.00807800 -0.00070826 0.54117647 0.42352941 0.64313725
v 0.07692711 0.00765512 -0.00390870 0.54117647 0.42352941 0.64313725
v 0.07682291 -0.00787690 -0.00070938 0.54117647 0.42352941 0.64313725
v 0.07682043 -0.00787690 0.00407328 0.54117647 0.42352941 0.64313725
v 0.07687501 0.00010901 0.00396637 0.54117647 0.42352941 0.64313725
v 0.07692711 0.00765324 0.00386059 0.54117647 0.42352941 0.64313725
v 0.07692711 0.00765512 -0.00070938 0.54117647 0.42352941 0.64313725
v 0.07692711 -0.00765512 -0.00390870 0.54117647 0.42352941 0.64313725
v 0.07695688 0.00755363 -0.00070938 0.54117647 0.42352941 0.64313725
v 0.07699409 0.00741830 -0.00368251 0.54117647 0.42352941 0.64313725
v 0.07696184 -0.00011653 -0.00379504 0.54117647 0.42352941 0.64313725
v 0.07692711 -0.00765512 -0.00070938 0.54117647 0.42352941 0.64313725
v 0.07692711 -0.00765324 0.00386059 0.54117647 0.42352941 0.64313725
v 0.07696184 0.00011465 0.00374693 0.54117647 0.42352941 0.64313725
v 0.07699409 0.00741642 0.00363327 0.54117647 0.42352941 0.64313725
v 0.07695688 0.00755363 -0.00070826 0.54117647 0.42352941 0.64313725
v 0.07699409 -0.00741830 -0.00368251 0.54117647 0.42352941 0.64313725
v 0.07699409 0.00741830 -0.00070938 0.54117647 0.42352941 0.64313725
v 0.07701642 0.00717397 -0.00344956 0.54117647 0.42352941 0.64313725
v 0.07699409 -0.00741830 -0.00070938 0.54117647 0.42352941 0.64313725
v 0.07699409 -0.00741642 0.00363327 0.54117647 0.42352941 0.64313725
v 0.07701394 0.00717397 0.00340033 0.54117647 0.42352941 0.64313725
v 0.07701642 0.00717397 -0.00070938 0.54117647 0.42352941 0.64313725
v 0.07701642 -0.00717397 -0.00344956 0.54117647 0.42352941 0.64313725
v 0.07701642 -0.00717397 -0.00070938 0.54117647 0.42352941 0.64313725
v 0.07701394 -0.00717397 0.00340033 0.54117647 0.42352941 0.64313725
f 1 2 3
f 1 3 10
f 1 10 14
f 1 14 4
f 1 4 13
f 1 13 5
f 1 5 6
f 1 6 7
f 1 7 2
f 2 8 17
f 2 17 9
f 2 9 14
f 2 14 10
f 2 10 3
f 2 7 8
f 4 9 11
f 4 11 12
f 4 12 13
f 4 14 9
f 5 13 12
f 5 12 6
f 6 12 21
f 6 21 15
f 6 15 7
f 7 16 8
f 7 15 16
f 8 16 18
f 8 18 19
f 8 19 17
f 9 17 11
f 11 20 21
f 11 21 12
f 11 17 20
f 15 21 29
f 15 29 22
f 15 22 16
f 16 22 23
f 16 23 18
f 17 19 24
f 17 24 20
f 18 23 30
f 18 30 25
f 18 25 26
f 18 26 27
f 18 27 24
f 18 24 19
f 20 24 28
f 20 28 29
f 20 29 21
f 22 30 23
f 22 29 37
f 22 37 31
f 22 31 30
f 24 27 32
f 24 32 33
f 24 33 36
f 24 36 28
f 25 30 31
f 25 31 34
f 25 34 26
f 26 34 35
f 26 35 40
f 26 40 32
f 26 32 27
f 28 36 29
f 29 36 37
f 31 37 45
f 31 45 38
f 31 38 39
f 31 39 35
f 31 35 34
f 32 40 41
f 32 41 33
f 33 41 37
f 33 37 36
f 35 39 42
f 35 42 43
f 35 43 47
f 35 47 40
f 37 41 40
f 37 40 44
f 37 44 45
f 38 45 51
f 38 51 46
f 38 46 39
f 39 46 42
f 40 47 48
f 40 48 44
f 42 46 43
f 43 46 49
f 43 49 50
f 43 50 54
f 43 54 47
f 44 48 51
f 44 51 45
f 46 51 52
f 46 52 53
f 46 53 49
f 47 54 55
f 47 55 51
f 47 51 48
f 49 53 50
f 50 53 56
f 50 56 57
f 50 57 60
f 50 60 54
f 51 55 58
f 51 58 52
f 52 58 53
f 53 58 65
f 53 65 59
f 53 59 56
f 54 60 61
f 54 61 58
f 54 58 55
f 56 59 62
f 56 62 57
f 57 62 63
f 57 63 64
f 57 64 68
f 57 68 60
f 58 61 65
f 59 65 66
f 59 66 67
f 59 67 63
f 59 63 62
f 60 68 69
f 60 69 70
f 60 70 61
f 61 70 65
f 63 67 71
f 63 71 64
f 64 71 72
f 64 72 73
f 64 73 77
f 64 77 68
f 65 70 69
f 65 69 74
f 65 74 66
f 66 74 67
f 67 74 75
f 67 75 76
f 67 76 72
f 67 72 71
f 68 77 81
f 68 81 78
f 68 78 69
f 69 78 74
f 72 76 73
f 73 76 82
f 73 82 79
f 73 79 80
f 73 80 84
f 73 84 77
f 74 78 81
f 74 81 75
f 75 81 76
f 76 81 88
f 76 88 83
f 76 83 82
f 77 84 85
f 77 85 81
f 79 82 83
f 79 83 86
f 79 86 80
f 80 86 87
f 80 87 91
f 80 91 84
f 81 85 88
f 83 88 96
f 83 96 89
f 83 89 90
f 83 90 87
f 83 87 86
f 84 91 92
f 84 92 93
f 84 93 85
f 85 93 88
f 87 90 99
f 87 99 94
f 87 94 100
f 87 100 91
f 88 93 92
f 88 92 95
f 88 95 96
f 89 96 97
f 89 97 98
f 89 98 90
f 90 98 99
f 91 100 104
f 91 104 95
f 91 95 92
f 94 99 108
f 94 108 101
f 94 101 102
f 94 102 103
f 94 103 100
f 95 104 105
f 95 105 96
f 96 105 97
f 97 105 98
f 98 105 106
f 98 106 107
f 98 107 108
f 98 108 99
f 100 103 109
f 100 109 112
f 100 112 104
f 101 108 110
f 101 110 102
f 102 110 115
f 102 115 111
f 102 111 116
f 102 116 109
f 102 109 103
f 104 112 105
f 105 112 113
f 105 113 106
f 106 113 107
f 107 113 118
f 107 118 114
f 107 114 115
f 107 115 110
f 107 110 108
f 109 116 117
f 109 117 112
f 111 115 117
f 111 117 116
f 112 117 113
f 113 117 118
f 114 118 117
f 114 117 115

