# https://github.com/mikedh/trimesh
v 0.05978542 -0.00626504 0.00000000 0.56470588 0.01568627 0.61568627
v 0.06006752 0.01180291 0.00000000 0.56470588 0.01568627 0.61568627
v 0.06896356 -0.00626504 0.00000000 0.56470588 0.01568627 0.61568627
v 0.05978542 -0.00626504 0.05000000 0.56470588 0.01568627 0.61568627
v 0.06896356 0.01180291 0.00000000 0.56470588 0.01568627 0.61568627
v 0.06006752 0.01180291 0.05000000 0.56470588 0.01568627 0.61568627
v 0.06896356 -0.00626504 0.05000000 0.56470588 0.01568627 0.61568627
v 0.06896356 0.01180291 0.05000000 0.56470588 0.01568627 0.61568627
f 1 2 5
f 1 5 3
f 1 3 7
f 1 7 4
f 1 4 6
f 1 6 2
f 2 6 8
f 2 8 5
f 3 5 8
f 3 8 7
f 4 7 8
f 4 8 6