# https://github.com/mikedh/trimesh
v 0.08108366 0.01986340 0.05000000 0.38039216 0.78823529 0.52549020
v 0.07246685 0.01986340 0.05000000 0.38039216 0.78823529 0.52549020
v 0.08108366 0.01486393 0.05000000 0.38039216 0.78823529 0.52549020
v 0.08108366 0.01986340 0.00000000 0.38039216 0.78823529 0.52549020
v 0.07246685 0.01476510 0.05000000 0.38039216 0.78823529 0.52549020
v 0.07246685 0.01986340 0.00000000 0.38039216 0.78823529 0.52549020
v 0.07246854 0.01476510 0.05000000 0.38039216 0.78823529 0.52549020
v 0.07246685 0.01476460 0.00005384 0.38039216 0.78823529 0.52549020
v 0.08108366 0.01486393 0.00000000 0.38039216 0.78823529 0.52549020
v 0.07246685 0.01476510 0.00000000 0.38039216 0.78823529 0.52549020
v 0.07246854 0.01476510 0.00000000 0.38039216 0.78823529 0.52549020
f 1 2 5
f 1 5 7
f 1 7 3
f 1 3 9
f 1 9 4
f 1 4 6
f 1 6 2
f 2 6 10
f 2 10 8
f 2 8 5
f 3 7 8
f 3 8 9
f 4 9 11
f 4 11 10
f 4 10 6
f 5 8 7
f 8 10 11
f 8 11 9