# https://github.com/mikedh/trimesh
v 0.09267895 -0.00547387 0.00000000 0.61176471 0.61568627 0.94117647
v 0.09203437 0.01320331 0.00000000 0.61176471 0.61568627 0.94117647
v 0.09778434 -0.00547387 0.00000000 0.61176471 0.61568627 0.94117647
v 0.09267895 -0.00547387 0.05000000 0.61176471 0.61568627 0.94117647
v 0.09778434 0.01320331 0.00000000 0.61176471 0.61568627 0.94117647
v 0.09203437 0.01320331 0.05000000 0.61176471 0.61568627 0.94117647
v 0.09778434 -0.00547387 0.05000000 0.61176471 0.61568627 0.94117647
v 0.09778434 0.01320331 0.05000000 0.61176471 0.61568627 0.94117647
f 1 2 5
f 1 5 3
f 1 3 7
f 1 7 4
f 1 4 6
f 1 6 2
f 2 6 8
f 2 8 5
f 3 5 8
f 3 8 7
f 4 7 8
f 4 8 6