# https://github.com/mikedh/trimesh
v 0.09778490 -0.00547387 0.05000000 0.54117647 0.42352941 0.64313725
v 0.09267947 -0.00547387 0.05000000 0.54117647 0.42352941 0.64313725
v 0.09778490 -0.00823572 0.05000000 0.54117647 0.42352941 0.64313725
v 0.09778490 -0.00547387 0.00000000 0.54117647 0.42352941 0.64313725
v 0.09024993 -0.00823572 0.05000000 0.54117647 0.42352941 0.64313725
v 0.09267947 -0.00547387 0.00000000 0.54117647 0.42352941 0.64313725
v 0.09778490 -0.00823572 0.00000000 0.54117647 0.42352941 0.64313725
v 0.09024993 -0.00823572 0.00000000 0.54117647 0.42352941 0.64313725
f 1 2 5
f 1 5 3
f 1 3 7
f 1 7 4
f 1 4 6
f 1 6 2
f 2 6 8
f 2 8 5
f 3 5 8
f 3 8 7
f 4 7 8
f 4 8 6