# https://github.com/mikedh/trimesh
v 0.03916055 -0.00818062 0.05000000 0.69411765 0.05882353 0.66666667
v 0.03678298 -0.00278739 0.05000000 0.69411765 0.05882353 0.66666667
v 0.03178300 -0.00818062 0.05000000 0.69411765 0.05882353 0.66666667
v 0.03916055 -0.00818062 0.00000000 0.69411765 0.05882353 0.66666667
v 0.03178300 -0.00278739 0.05000000 0.69411765 0.05882353 0.66666667
v 0.03678298 -0.00278739 0.00000000 0.69411765 0.05882353 0.66666667
v 0.03178300 -0.00818062 0.00000000 0.69411765 0.05882353 0.66666667
v 0.03178300 -0.00278739 0.00000000 0.69411765 0.05882353 0.66666667
f 1 2 5
f 1 5 3
f 1 3 7
f 1 7 4
f 1 4 6
f 1 6 2
f 2 6 8
f 2 8 5
f 3 5 8
f 3 8 7
f 4 7 8
f 4 8 6