# https://github.com/mikedh/trimesh
v 0.03889176 0.01439434 0.05000000 0.31372549 0.36078431 0.56862745
v 0.03178369 0.01439434 0.05000000 0.31372549 0.36078431 0.56862745
v 0.03678265 0.01090913 0.05000000 0.31372549 0.36078431 0.56862745
v 0.03889176 0.01439434 0.00000000 0.31372549 0.36078431 0.56862745
v 0.03178369 0.01090913 0.05000000 0.31372549 0.36078431 0.56862745
v 0.03178369 0.01439434 0.00000000 0.31372549 0.36078431 0.56862745
v 0.03678265 0.01090913 0.00000000 0.31372549 0.36078431 0.56862745
v 0.03178369 0.01090913 0.00000000 0.31372549 0.36078431 0.56862745
f 1 2 5
f 1 5 3
f 1 3 7
f 1 7 4
f 1 4 6
f 1 6 2
f 2 6 8
f 2 8 5
f 3 5 8
f 3 8 7
f 4 7 8
f 4 8 6