# https://github.com/mikedh/trimesh
v 0.06949999 -0.00842001 0.00000000 0.67843137 0.35686275 0.43529412
v 0.06949999 -0.00545784 0.00000000 0.67843137 0.35686275 0.43529412
v 0.07246142 -0.00842001 0.00000000 0.67843137 0.35686275 0.43529412
v 0.06949999 -0.00842001 0.05000000 0.67843137 0.35686275 0.43529412
v 0.06949999 -0.00545784 0.05000000 0.67843137 0.35686275 0.43529412
v 0.07246142 -0.00842001 0.05000000 0.67843137 0.35686275 0.43529412
f 1 2 3
f 1 3 6
f 1 6 4
f 1 4 5
f 1 5 2
f 2 5 6
f 2 6 3
f 4 6 5