# https://github.com/mikedh/trimesh
v 0.09778490 -0.00823599 0.05000000 0.26274510 0.77254902 0.45490196
v 0.09778490 -0.01352150 0.05000000 0.26274510 0.77254902 0.45490196
v 0.09778490 -0.00823599 0.00000000 0.26274510 0.77254902 0.45490196
v 0.09024853 -0.00823599 0.05000000 0.26274510 0.77254902 0.45490196
v 0.06949999 -0.01352150 0.05000000 0.26274510 0.77254902 0.45490196
v 0.09778490 -0.01352150 0.00000000 0.26274510 0.77254902 0.45490196
v 0.09024853 -0.00823599 0.00000000 0.26274510 0.77254902 0.45490196
v 0.06949999 -0.00842070 0.05000000 0.26274510 0.77254902 0.45490196
v 0.06949999 -0.01352150 0.00000000 0.26274510 0.77254902 0.45490196
v 0.06949999 -0.00842070 0.00000000 0.26274510 0.77254902 0.45490196
f 1 2 6
f 1 6 3
f 1 3 7
f 1 7 4
f 1 4 8
f 1 8 5
f 1 5 2
f 2 5 9
f 2 9 6
f 3 6 9
f 3 9 10
f 3 10 7
f 4 7 10
f 4 10 8
f 5 8 10
f 5 10 9