# https://github.com/mikedh/trimesh

o geometry_0
v 0.04846738 0.01986390 0.05000000 0.54509804 0.71372549 0.60000000
v 0.03178463 0.01986390 0.05000000 0.54509804 0.71372549 0.60000000
v 0.04846738 0.01486441 0.05000000 0.54509804 0.71372549 0.60000000
v 0.04846738 0.01986390 0.00000000 0.54509804 0.71372549 0.60000000
v 0.03178463 0.01439488 0.05000000 0.54509804 0.71372549 0.60000000
v 0.03178463 0.01986390 0.00000000 0.54509804 0.71372549 0.60000000
v 0.03889215 0.01439488 0.05000000 0.54509804 0.71372549 0.60000000
v 0.04846738 0.01486441 0.00000000 0.54509804 0.71372549 0.60000000
v 0.03178463 0.01439488 0.00000000 0.54509804 0.71372549 0.60000000
v 0.03889215 0.01439488 0.00000000 0.54509804 0.71372549 0.60000000
f 1 2 5
f 1 5 7
f 1 7 3
f 1 3 8
f 1 8 4
f 1 4 6
f 1 6 2
f 2 6 9
f 2 9 5
f 3 7 10
f 3 10 8
f 4 8 10
f 4 10 9
f 4 9 6
f 5 9 10
f 5 10 7

o geometry_1
v 0.09778490 -0.00547387 0.05000000 0.54117647 0.42352941 0.64313725
v 0.09267947 -0.00547387 0.05000000 0.54117647 0.42352941 0.64313725
v 0.09778490 -0.00823572 0.05000000 0.54117647 0.42352941 0.64313725
v 0.09778490 -0.00547387 0.00000000 0.54117647 0.42352941 0.64313725
v 0.09024993 -0.00823572 0.05000000 0.54117647 0.42352941 0.64313725
v 0.09267947 -0.00547387 0.00000000 0.54117647 0.42352941 0.64313725
v 0.09778490 -0.00823572 0.00000000 0.54117647 0.42352941 0.64313725
v 0.09024993 -0.00823572 0.00000000 0.54117647 0.42352941 0.64313725
f 11 12 15
f 11 15 13
f 11 13 17
f 11 17 14
f 11 14 16
f 11 16 12
f 12 16 18
f 12 18 15
f 13 15 18
f 13 18 17
f 14 17 18
f 14 18 16

o geometry_2
v 0.06896390 0.01177917 0.00000000 0.43529412 0.89019608 0.96078431
v 0.06896390 0.01986311 0.00000000 0.43529412 0.89019608 0.96078431
v 0.06949680 0.01177917 0.00000000 0.43529412 0.89019608 0.96078431
v 0.06896390 0.01177917 0.05000000 0.43529412 0.89019608 0.96078431
v 0.07246685 0.01986311 0.00000000 0.43529412 0.89019608 0.96078431
v 0.06896390 0.01986311 0.05000000 0.43529412 0.89019608 0.96078431
v 0.07246685 0.01476504 0.00000000 0.43529412 0.89019608 0.96078431
v 0.06949680 0.01177917 0.05000000 0.43529412 0.89019608 0.96078431
v 0.07246685 0.01986311 0.05000000 0.43529412 0.89019608 0.96078431
v 0.07246685 0.01476504 0.05000000 0.43529412 0.89019608 0.96078431
f 19 20 23
f 19 23 25
f 19 25 21
f 19 21 26
f 19 26 22
f 19 22 24
f 19 24 20
f 20 24 27
f 20 27 23
f 21 25 28
f 21 28 26
f 22 26 28
f 22 28 27
f 22 27 24
f 23 27 28
f 23 28 25

o geometry_3
v 0.08108366 0.01986340 0.05000000 0.38039216 0.78823529 0.52549020
v 0.07246685 0.01986340 0.05000000 0.38039216 0.78823529 0.52549020
v 0.08108366 0.01486393 0.05000000 0.38039216 0.78823529 0.52549020
v 0.08108366 0.01986340 0.00000000 0.38039216 0.78823529 0.52549020
v 0.07246685 0.01476510 0.05000000 0.38039216 0.78823529 0.52549020
v 0.07246685 0.01986340 0.00000000 0.38039216 0.78823529 0.52549020
v 0.07246854 0.01476510 0.05000000 0.38039216 0.78823529 0.52549020
v 0.07246685 0.01476460 0.00005384 0.38039216 0.78823529 0.52549020
v 0.08108366 0.01486393 0.00000000 0.38039216 0.78823529 0.52549020
v 0.07246685 0.01476510 0.00000000 0.38039216 0.78823529 0.52549020
v 0.07246854 0.01476510 0.00000000 0.38039216 0.78823529 0.52549020
f 29 30 33
f 29 33 35
f 29 35 31
f 29 31 37
f 29 37 32
f 29 32 34
f 29 34 30
f 30 34 38
f 30 38 36
f 30 36 33
f 31 35 36
f 31 36 37
f 32 37 39
f 32 39 38
f 32 38 34
f 33 36 35
f 36 38 39
f 36 39 37

o geometry_4
v 0.04846738 -0.00852197 0.05000000 0.56470588 0.92549020 0.07058824
v 0.03916163 -0.00818114 0.05000000 0.56470588 0.92549020 0.07058824
v 0.04846738 -0.01352150 0.05000000 0.56470588 0.92549020 0.07058824
v 0.04846738 -0.00852197 0.00000000 0.56470588 0.92549020 0.07058824
v 0.03178463 -0.00818114 0.05000000 0.56470588 0.92549020 0.07058824
v 0.03916163 -0.00818114 0.00000000 0.56470588 0.92549020 0.07058824
v 0.03178463 -0.01352150 0.05000000 0.56470588 0.92549020 0.07058824
v 0.04846738 -0.01352150 0.00000000 0.56470588 0.92549020 0.07058824
v 0.03178463 -0.00818114 0.00000000 0.56470588 0.92549020 0.07058824
v 0.03178463 -0.01352150 0.00000000 0.56470588 0.92549020 0.07058824
f 40 41 44
f 40 44 46
f 40 46 42
f 40 42 47
f 40 47 43
f 40 43 45
f 40 45 41
f 41 45 48
f 41 48 44
f 42 46 49
f 42 49 47
f 43 47 49
f 43 49 48
f 43 48 45
f 44 48 49
f 44 49 46

o geometry_5
v 0.06896355 0.01476398 0.05000000 0.08627451 0.01960784 0.83137255
v 0.05710283 0.01476398 0.05000000 0.08627451 0.01960784 0.83137255
v 0.06896355 0.01180291 0.05000000 0.08627451 0.01960784 0.83137255
v 0.06896355 0.01476398 0.00000000 0.08627451 0.01960784 0.83137255
v 0.06006801 0.01180291 0.05000000 0.08627451 0.01960784 0.83137255
v 0.05710283 0.01476398 0.00000000 0.08627451 0.01960784 0.83137255
v 0.06896355 0.01180291 0.00000000 0.08627451 0.01960784 0.83137255
v 0.06006801 0.01180291 0.00000000 0.08627451 0.01960784 0.83137255
f 50 51 54
f 50 54 52
f 50 52 56
f 50 56 53
f 50 53 55
f 50 55 51
f 51 55 57
f 51 57 54
f 52 54 57
f 52 57 56
f 53 56 57
f 53 57 55

o geometry_6
v 0.09778490 0.01986390 0.05000000 0.77647059 0.86666667 0.97647059
v 0.08108614 0.01986390 0.05000000 0.77647059 0.86666667 0.97647059
v 0.09778490 0.01320331 0.05000000 0.77647059 0.86666667 0.97647059
v 0.09778490 0.01986390 0.00000000 0.77647059 0.86666667 0.97647059
v 0.08108614 0.01486454 0.05000000 0.77647059 0.86666667 0.97647059
v 0.08108614 0.01986390 0.00000000 0.77647059 0.86666667 0.97647059
v 0.09203229 0.01320331 0.05000000 0.77647059 0.86666667 0.97647059
v 0.09778490 0.01320331 0.00000000 0.77647059 0.86666667 0.97647059
v 0.08108614 0.01486454 0.00000000 0.77647059 0.86666667 0.97647059
v 0.09203229 0.01320331 0.00000000 0.77647059 0.86666667 0.97647059
f 58 59 62
f 58 62 64
f 58 64 60
f 58 60 65
f 58 65 61
f 58 61 63
f 58 63 59
f 59 63 66
f 59 66 62
f 60 64 67
f 60 67 65
f 61 65 67
f 61 67 66
f 61 66 63
f 62 66 67
f 62 67 64

o geometry_7
v 0.06896355 0.01986340 0.05000000 0.79607843 0.45882353 0.78039216
v 0.04846738 0.01986340 0.05000000 0.79607843 0.45882353 0.78039216
v 0.06896355 0.01476398 0.05000000 0.79607843 0.45882353 0.78039216
v 0.06896355 0.01986340 0.00000000 0.79607843 0.45882353 0.78039216
v 0.04846738 0.01486432 0.05000000 0.79607843 0.45882353 0.78039216
v 0.04846738 0.01986340 0.00000000 0.79607843 0.45882353 0.78039216
v 0.05710443 0.01476398 0.05000000 0.79607843 0.45882353 0.78039216
v 0.06896355 0.01476398 0.00000000 0.79607843 0.45882353 0.78039216
v 0.04846738 0.01486432 0.00000000 0.79607843 0.45882353 0.78039216
v 0.05710443 0.01476398 0.00000000 0.79607843 0.45882353 0.78039216
f 68 69 72
f 68 72 74
f 68 74 70
f 68 70 75
f 68 75 71
f 68 71 73
f 68 73 69
f 69 73 76
f 69 76 72
f 70 74 77
f 70 77 75
f 71 75 77
f 71 77 76
f 71 76 73
f 72 76 77
f 72 77 74

o geometry_8
v 0.06896356 -0.01352150 0.00000000 0.11764706 0.63921569 0.14117647
v 0.06896356 0.01177917 0.00000000 0.11764706 0.63921569 0.14117647
v 0.06949999 -0.01352150 0.00000000 0.11764706 0.63921569 0.14117647
v 0.06896356 -0.01352150 0.05000000 0.11764706 0.63921569 0.14117647
v 0.06949658 0.01177917 0.00000000 0.11764706 0.63921569 0.14117647
v 0.06896356 0.01177917 0.05000000 0.11764706 0.63921569 0.14117647
v 0.06949999 -0.00545530 0.00000000 0.11764706 0.63921569 0.14117647
v 0.06949999 -0.01352150 0.05000000 0.11764706 0.63921569 0.14117647
v 0.06949658 0.01177917 0.05000000 0.11764706 0.63921569 0.14117647
v 0.06949999 -0.00545530 0.05000000 0.11764706 0.63921569 0.14117647
f 78 79 82
f 78 82 84
f 78 84 80
f 78 80 85
f 78 85 81
f 78 81 83
f 78 83 79
f 79 83 86
f 79 86 82
f 80 84 87
f 80 87 85
f 81 85 87
f 81 87 86
f 81 86 83
f 82 86 87
f 82 87 84

o geometry_9
v 0.06896355 -0.00626504 0.05000000 0.94117647 0.52156863 0.41176471
v 0.05978482 -0.00626504 0.05000000 0.94117647 0.52156863 0.41176471
v 0.06896355 -0.01352150 0.05000000 0.94117647 0.52156863 0.41176471
v 0.06896355 -0.00626504 0.00000000 0.94117647 0.52156863 0.41176471
v 0.04846738 -0.00852167 0.05000000 0.94117647 0.52156863 0.41176471
v 0.05978482 -0.00626504 0.00000000 0.94117647 0.52156863 0.41176471
v 0.04846738 -0.01352150 0.05000000 0.94117647 0.52156863 0.41176471
v 0.06896355 -0.01352150 0.00000000 0.94117647 0.52156863 0.41176471
v 0.04846738 -0.00852167 0.00000000 0.94117647 0.52156863 0.41176471
v 0.04846738 -0.01352150 0.00000000 0.94117647 0.52156863 0.41176471
f 88 89 92
f 88 92 94
f 88 94 90
f 88 90 95
f 88 95 91
f 88 91 93
f 88 93 89
f 89 93 96
f 89 96 92
f 90 94 97
f 90 97 95
f 91 95 97
f 91 97 96
f 91 96 93
f 92 96 97
f 92 97 94

o geometry_10
v 0.09778490 -0.00823599 0.05000000 0.26274510 0.77254902 0.45490196
v 0.09778490 -0.01352150 0.05000000 0.26274510 0.77254902 0.45490196
v 0.09778490 -0.00823599 0.00000000 0.26274510 0.77254902 0.45490196
v 0.09024853 -0.00823599 0.05000000 0.26274510 0.77254902 0.45490196
v 0.06949999 -0.01352150 0.05000000 0.26274510 0.77254902 0.45490196
v 0.09778490 -0.01352150 0.00000000 0.26274510 0.77254902 0.45490196
v 0.09024853 -0.00823599 0.00000000 0.26274510 0.77254902 0.45490196
v 0.06949999 -0.00842070 0.05000000 0.26274510 0.77254902 0.45490196
v 0.06949999 -0.01352150 0.00000000 0.26274510 0.77254902 0.45490196
v 0.06949999 -0.00842070 0.00000000 0.26274510 0.77254902 0.45490196
f 98 99 103
f 98 103 100
f 98 100 104
f 98 104 101
f 98 101 105
f 98 105 102
f 98 102 99
f 99 102 106
f 99 106 103
f 100 103 106
f 100 106 107
f 100 107 104
f 101 104 107
f 101 107 105
f 102 105 107
f 102 107 106

o geometry_11
v 0.05978542 -0.00626504 0.00000000 0.56470588 0.01568627 0.61568627
v 0.06006752 0.01180291 0.00000000 0.56470588 0.01568627 0.61568627
v 0.06896356 -0.00626504 0.00000000 0.56470588 0.01568627 0.61568627
v 0.05978542 -0.00626504 0.05000000 0.56470588 0.01568627 0.61568627
v 0.06896356 0.01180291 0.00000000 0.56470588 0.01568627 0.61568627
v 0.06006752 0.01180291 0.05000000 0.56470588 0.01568627 0.61568627
v 0.06896356 -0.00626504 0.05000000 0.56470588 0.01568627 0.61568627
v 0.06896356 0.01180291 0.05000000 0.56470588 0.01568627 0.61568627
f 108 109 112
f 108 112 110
f 108 110 114
f 108 114 111
f 108 111 113
f 108 113 109
f 109 113 115
f 109 115 112
f 110 112 115
f 110 115 114
f 111 114 115
f 111 115 113

o geometry_12
v 0.09267895 -0.00547387 0.00000000 0.61176471 0.61568627 0.94117647
v 0.09203437 0.01320331 0.00000000 0.61176471 0.61568627 0.94117647
v 0.09778434 -0.00547387 0.00000000 0.61176471 0.61568627 0.94117647
v 0.09267895 -0.00547387 0.05000000 0.61176471 0.61568627 0.94117647
v 0.09778434 0.01320331 0.00000000 0.61176471 0.61568627 0.94117647
v 0.09203437 0.01320331 0.05000000 0.61176471 0.61568627 0.94117647
v 0.09778434 -0.00547387 0.05000000 0.61176471 0.61568627 0.94117647
v 0.09778434 0.01320331 0.05000000 0.61176471 0.61568627 0.94117647
f 116 117 120
f 116 120 118
f 116 118 122
f 116 122 119
f 116 119 121
f 116 121 117
f 117 121 123
f 117 123 120
f 118 120 123
f 118 123 122
f 119 122 123
f 119 123 121

o geometry_13
v 0.06949999 -0.00842001 0.00000000 0.67843137 0.35686275 0.43529412
v 0.06949999 -0.00545784 0.00000000 0.67843137 0.35686275 0.43529412
v 0.07246142 -0.00842001 0.00000000 0.67843137 0.35686275 0.43529412
v 0.06949999 -0.00842001 0.05000000 0.67843137 0.35686275 0.43529412
v 0.06949999 -0.00545784 0.05000000 0.67843137 0.35686275 0.43529412
v 0.07246142 -0.00842001 0.05000000 0.67843137 0.35686275 0.43529412
f 124 125 126
f 124 126 129
f 124 129 127
f 124 127 128
f 124 128 125
f 125 128 129
f 125 129 126
f 127 129 128

o geometry_14
v 0.03916055 -0.00818062 0.05000000 0.69411765 0.05882353 0.66666667
v 0.03678298 -0.00278739 0.05000000 0.69411765 0.05882353 0.66666667
v 0.03178300 -0.00818062 0.05000000 0.69411765 0.05882353 0.66666667
v 0.03916055 -0.00818062 0.00000000 0.69411765 0.05882353 0.66666667
v 0.03178300 -0.00278739 0.05000000 0.69411765 0.05882353 0.66666667
v 0.03678298 -0.00278739 0.00000000 0.69411765 0.05882353 0.66666667
v 0.03178300 -0.00818062 0.00000000 0.69411765 0.05882353 0.66666667
v 0.03178300 -0.00278739 0.00000000 0.69411765 0.05882353 0.66666667
f 130 131 134
f 130 134 132
f 130 132 136
f 130 136 133
f 130 133 135
f 130 135 131
f 131 135 137
f 131 137 134
f 132 134 137
f 132 137 136
f 133 136 137
f 133 137 135

o geometry_15
v 0.03178349 -0.00278739 0.00000000 0.67058824 0.20784314 0.12549020
v 0.03178349 0.01090879 0.00000000 0.67058824 0.20784314 0.12549020
v 0.03678300 -0.00278739 0.00000000 0.67058824 0.20784314 0.12549020
v 0.03178349 -0.00278739 0.05000000 0.67058824 0.20784314 0.12549020
v 0.03678300 0.01090879 0.00000000 0.67058824 0.20784314 0.12549020
v 0.03178349 0.01090879 0.05000000 0.67058824 0.20784314 0.12549020
v 0.03678300 -0.00278739 0.05000000 0.67058824 0.20784314 0.12549020
v 0.03678300 0.01090879 0.05000000 0.67058824 0.20784314 0.12549020
f 138 139 142
f 138 142 140
f 138 140 144
f 138 144 141
f 138 141 143
f 138 143 139
f 139 143 145
f 139 145 142
f 140 142 145
f 140 145 144
f 141 144 145
f 141 145 143

o geometry_16
v 0.03889176 0.01439434 0.05000000 0.31372549 0.36078431 0.56862745
v 0.03178369 0.01439434 0.05000000 0.31372549 0.36078431 0.56862745
v 0.03678265 0.01090913 0.05000000 0.31372549 0.36078431 0.56862745
v 0.03889176 0.01439434 0.00000000 0.31372549 0.36078431 0.56862745
v 0.03178369 0.01090913 0.05000000 0.31372549 0.36078431 0.56862745
v 0.03178369 0.01439434 0.00000000 0.31372549 0.36078431 0.56862745
v 0.03678265 0.01090913 0.00000000 0.31372549 0.36078431 0.56862745
v 0.03178369 0.01090913 0.00000000 0.31372549 0.36078431 0.56862745
f 146 147 150
f 146 150 148
f 146 148 152
f 146 152 149
f 146 149 151
f 146 151 147
f 147 151 153
f 147 153 150
f 148 150 153
f 148 153 152
f 149 152 153
f 149 153 151