# https://github.com/mikedh/trimesh
v -0.10540552 -0.01700332 -0.01246824
v -0.10540552 -0.01677720 -0.01257368
v -0.10540552 -0.01652060 -0.01264244
v -0.10540552 -0.01632304 -0.01265972
v -0.10540552 -0.01629585 -0.01266209
v -0.10540552 -0.01628225 -0.01266329
v -0.10540552 -0.01625596 -0.01266558
v -0.10540552 -0.01516031 -0.01266558
v -0.10372694 -0.01699540 -0.01247194
v -0.10372694 -0.01698034 -0.01247896
v -0.10372694 -0.01695026 -0.01249298
v -0.10372694 -0.01689006 -0.01252106
v -0.10372694 -0.01677720 -0.01257368
v -0.10372694 -0.01678472 -0.01257016
v -0.10372694 -0.01675314 -0.01258012
v -0.10372694 -0.01676918 -0.01257582
v -0.10372694 -0.01685996 -0.01253508
v -0.10372694 -0.01681482 -0.01255614
v -0.10372694 -0.01682988 -0.01254912
v -0.10372694 -0.01679978 -0.01256316
v -0.10372694 -0.01670504 -0.01259302
v -0.10372694 -0.01673712 -0.01258442
v -0.10372694 -0.01660882 -0.01261880
v -0.10372694 -0.01664088 -0.01261020
v -0.10372694 -0.01657674 -0.01262740
v -0.10372694 -0.01654466 -0.01263598
v -0.10372694 -0.01656070 -0.01263168
v -0.10372694 -0.01651234 -0.01264316
v -0.10372694 -0.01652060 -0.01264244
v -0.10372694 -0.01652862 -0.01264028
v -0.10372694 -0.01649580 -0.01264460
v -0.10372694 -0.01647926 -0.01264604
v -0.10372694 -0.01646272 -0.01264750
v -0.10372694 -0.01642964 -0.01265040
v -0.10372694 -0.01639656 -0.01265328
v -0.10372694 -0.01633040 -0.01265908
v -0.10372694 -0.01629732 -0.01266196
v -0.10372694 -0.01628078 -0.01266342
v -0.10372694 -0.01626424 -0.01266486
v -0.10372694 -0.01625596 -0.01266558
v -0.10509844 -0.01485272 -0.01266558
v -0.10540552 -0.01432697 -0.01266558
v -0.10467632 -0.01415110 -0.01266558
v -0.10540552 -0.01344946 -0.01266558
v -0.10401270 -0.01344946 -0.01266558
v -0.10289832 -0.01555434 -0.01266558
v -0.10125982 -0.01415110 -0.01266558
v -0.09792476 -0.01450190 -0.01266558
v -0.09926894 -0.01204622 -0.01266558
v -0.10262558 -0.00336234 -0.01266558
v -0.09621650 -0.01450190 -0.01266558
v -0.09661806 -0.01415110 -0.01266558
v -0.09536238 -0.01450190 -0.01266558
v -0.09429720 -0.01700292 -0.01246842
v -0.09429720 -0.01697282 -0.01248246
v -0.09429720 -0.01691264 -0.01251052
v -0.09429720 -0.01677720 -0.01257368
v -0.09429720 -0.01679226 -0.01256666
v -0.09429720 -0.01676116 -0.01257798
v -0.09429720 -0.01685244 -0.01253860
v -0.09429720 -0.01682234 -0.01255262
v -0.09429720 -0.01672910 -0.01258656
v -0.09429720 -0.01666494 -0.01260376
v -0.09429720 -0.01660080 -0.01262094
v -0.09429720 -0.01656872 -0.01262954
v -0.09429720 -0.01652060 -0.01264244
v -0.09429720 -0.01653664 -0.01263814
v -0.09429720 -0.01650406 -0.01264388
v -0.09429720 -0.01647098 -0.01264678
v -0.09429720 -0.01643790 -0.01264966
v -0.09429720 -0.01637174 -0.01265546
v -0.09429720 -0.01630558 -0.01266124
v -0.09429720 -0.01627250 -0.01266414
v -0.09429720 -0.01625596 -0.01266558
v -0.09379733 -0.01700332 -0.01246823
v -0.09365412 -0.01450190 -0.01266558
v -0.09573272 -0.01064298 -0.01266558
v -0.09548774 -0.01039800 -0.01264576
v -0.09524914 -0.01015940 -0.01258684
v -0.09502312 -0.00993338 -0.01249030
v -0.09481554 -0.00972580 -0.01235870
v -0.09463182 -0.00954208 -0.01219546
v -0.09447674 -0.00938700 -0.01200478
v -0.09441122 -0.00932150 -0.01190070
v -0.09435432 -0.00926458 -0.01179168
v -0.09430638 -0.00921664 -0.01167842
v -0.09426774 -0.00917800 -0.01156166
v -0.09423864 -0.00914890 -0.01144216
v -0.09421926 -0.00912954 -0.01132072
v -0.09420976 -0.00912002 -0.01119810
v -0.09421016 -0.00912042 -0.01107510
v -0.09263994 -0.01485272 -0.01266558
v -0.09299050 -0.01380028 -0.01266558
v -0.09155420 -0.01344948 -0.01266558
v -0.09066782 -0.01134460 -0.01266558
v -0.09561022 -0.00012246 -0.01265568
v -0.09536844 -0.00011926 -0.01261630
v -0.09513612 -0.00011298 -0.01253856
v -0.09491932 -0.00010376 -0.01242450
v -0.09472368 -0.00009182 -0.01227708
v -0.09455428 -0.00007752 -0.01210012
v -0.09444396 -0.00003272 -0.01195274
v -0.09433036 -0.00002394 -0.01173504
v -0.09425318 -0.00001452 -0.01150192
v -0.09421450 -0.00000472 -0.01125940
v -0.09420996 -0.00000016 -0.01113660
v -0.10540552 -0.01700332 0.01253707
v -0.10540552 -0.01677720 0.01264250
v -0.10540552 -0.01678338 0.01263962
v -0.10540552 -0.01652060 0.01271126
v -0.10540552 -0.01625596 0.01273442
v -0.10514022 -0.01509670 0.01273442
v -0.10372694 -0.01699540 0.01254076
v -0.10372694 -0.01698034 0.01254778
v -0.10372694 -0.01696530 0.01255480
v -0.10372694 -0.01693520 0.01256882
v -0.10372694 -0.01690510 0.01258286
v -0.10372694 -0.01684492 0.01261094
v -0.10372694 -0.01681482 0.01262496
v -0.10372694 -0.01679978 0.01263198
v -0.10372694 -0.01677720 0.01264250
v -0.10372694 -0.01678472 0.01263900
v -0.10372694 -0.01675314 0.01264896
v -0.10372694 -0.01676918 0.01264466
v -0.10372694 -0.01673712 0.01265324
v -0.10372694 -0.01670504 0.01266184
v -0.10372694 -0.01664088 0.01267904
v -0.10372694 -0.01660882 0.01268762
v -0.10372694 -0.01657674 0.01269622
v -0.10372694 -0.01654466 0.01270482
v -0.10372694 -0.01656070 0.01270052
v -0.10372694 -0.01652862 0.01270912
v -0.10372694 -0.01651234 0.01271198
v -0.10372694 -0.01652060 0.01271126
v -0.10372694 -0.01649580 0.01271344
v -0.10372694 -0.01647926 0.01271488
v -0.10372694 -0.01646272 0.01271632
v -0.10372694 -0.01642964 0.01271922
v -0.10372694 -0.01639656 0.01272212
v -0.10372694 -0.01633040 0.01272790
v -0.10372694 -0.01629732 0.01273080
v -0.10372694 -0.01628078 0.01273224
v -0.10372694 -0.01626424 0.01273370
v -0.10372694 -0.01625596 0.01273442
v -0.10540552 -0.01441206 0.01273442
v -0.09853702 -0.01277814 0.01273442
v -0.09469810 -0.00960838 0.00010090
v -0.08938766 -0.00960838 0.00010090
v -0.09712374 -0.01393742 0.01273442
v -0.09429720 -0.01700292 0.01253726
v -0.09429720 -0.01697282 0.01255128
v -0.09429720 -0.01700332 0.01253707
v -0.09429720 -0.01694274 0.01256532
v -0.09429720 -0.01688254 0.01259338
v -0.09429720 -0.01682234 0.01262146
v -0.09429720 -0.01677720 0.01264250
v -0.09429720 -0.01679226 0.01263548
v -0.09429720 -0.01676116 0.01264680
v -0.09429720 -0.01672910 0.01265540
v -0.09429720 -0.01666494 0.01267258
v -0.09429720 -0.01660080 0.01268978
v -0.09429720 -0.01656872 0.01269838
v -0.09429720 -0.01653664 0.01270696
v -0.09429720 -0.01652060 0.01271126
v -0.09429720 -0.01650406 0.01271270
v -0.09429720 -0.01647098 0.01271560
v -0.09429720 -0.01643790 0.01271850
v -0.09429720 -0.01637174 0.01272428
v -0.09429720 -0.01630558 0.01273008
v -0.09429720 -0.01627250 0.01273296
v -0.09429720 -0.01625596 0.01273442
v -0.09670860 -0.01161888 0.01273442
v -0.09645126 -0.01136152 0.01271252
v -0.09620128 -0.01111156 0.01264750
v -0.09596590 -0.01087616 0.01254118
v -0.09575182 -0.01066210 0.01239664
v -0.09518606 -0.01009634 0.01127690
v -0.09519720 -0.01010744 0.01140568
v -0.09521916 -0.01012942 0.01153306
v -0.09525184 -0.01016212 0.01165810
v -0.09534838 -0.01025864 0.01189768
v -0.09529504 -0.01020530 0.01177994
v -0.09548396 -0.01039424 0.01211752
v -0.09556526 -0.01047552 0.01221804
v -0.09541152 -0.01032178 0.01201048
v -0.08910728 -0.01277816 0.01273442
v -0.08981392 -0.01219852 0.01273442
v -0.08902838 -0.01149020 0.01272348
v -0.09494208 -0.00480418 0.00568890
v -0.09519162 -0.00000552 0.01134128
v -0.09520818 -0.00001096 0.01146936
v -0.09523550 -0.00001632 0.01159558
v -0.09532170 -0.00002664 0.01183882
v -0.09544774 -0.00003620 0.01206400
v -0.10262558 0.00728066 -0.01266558
v -0.10540552 0.00920268 -0.01266558
v -0.10538418 0.01485278 -0.01266558
v -0.10540552 0.01625604 -0.01266558
v -0.10540552 0.01652068 -0.01264244
v -0.10540552 0.01654617 -0.01263560
v -0.10540552 0.01658571 -0.01262501
v -0.10540552 0.01677728 -0.01257368
v -0.10540552 0.01700332 -0.01246827
v -0.10372694 0.01626430 -0.01266486
v -0.10372694 0.01625604 -0.01266558
v -0.10372694 0.01628084 -0.01266342
v -0.10372694 0.01629738 -0.01266196
v -0.10372694 0.01633046 -0.01265908
v -0.10372694 0.01639662 -0.01265328
v -0.10372694 0.01642970 -0.01265040
v -0.10372694 0.01646278 -0.01264750
v -0.10372694 0.01647932 -0.01264604
v -0.10372694 0.01649586 -0.01264460
v -0.10372694 0.01652068 -0.01264244
v -0.10372694 0.01651240 -0.01264316
v -0.10372694 0.01652870 -0.01264028
v -0.10372694 0.01654474 -0.01263598
v -0.10372694 0.01656076 -0.01263168
v -0.10372694 0.01659284 -0.01262310
v -0.10372694 0.01665700 -0.01260590
v -0.10372694 0.01668906 -0.01259732
v -0.10372694 0.01673718 -0.01258442
v -0.10372694 0.01672114 -0.01258872
v -0.10372694 0.01675322 -0.01258012
v -0.10372694 0.01676926 -0.01257582
v -0.10372694 0.01678480 -0.01257016
v -0.10372694 0.01677728 -0.01257368
v -0.10372694 0.01679984 -0.01256316
v -0.10372694 0.01682994 -0.01254912
v -0.10372694 0.01681490 -0.01255614
v -0.10372694 0.01686004 -0.01253508
v -0.10372694 0.01689014 -0.01252106
v -0.10372694 0.01695032 -0.01249298
v -0.10372694 0.01698042 -0.01247896
v -0.10372694 0.01699546 -0.01247194
v -0.09926894 0.01204628 -0.01266558
v -0.09761168 0.01344954 -0.01266558
v -0.09573270 0.00000004 -0.01266558
v -0.09548774 0.00000004 -0.01264576
v -0.09524912 0.00000004 -0.01258684
v -0.09502312 0.00000004 -0.01249030
v -0.09481554 0.00000004 -0.01235870
v -0.09463182 0.00000004 -0.01219546
v -0.09447672 0.00000002 -0.01200478
v -0.09441120 0.00000002 -0.01190070
v -0.09438276 0.00002848 -0.01184618
v -0.09435432 0.00000002 -0.01179168
v -0.09430638 0.00000004 -0.01167842
v -0.09428706 0.00001936 -0.01162004
v -0.09426774 0.00000004 -0.01156166
v -0.09423864 0.00000004 -0.01144216
v -0.09422894 0.00000972 -0.01138144
v -0.09421926 0.00000004 -0.01132072
v -0.09420976 0.00000002 -0.01119810
v -0.09421016 0.00000004 -0.01107510
v -0.09548774 0.01039806 -0.01264576
v -0.09524912 0.01015946 -0.01258684
v -0.09573270 0.01064304 -0.01266558
v -0.09463182 0.00954216 -0.01219546
v -0.09447672 0.00938706 -0.01200478
v -0.09441120 0.00932156 -0.01190070
v -0.09435432 0.00926464 -0.01179168
v -0.09430638 0.00921672 -0.01167842
v -0.09426774 0.00917808 -0.01156166
v -0.09423862 0.00914898 -0.01144216
v -0.09421924 0.00912960 -0.01132072
v -0.09420976 0.00912008 -0.01119810
v -0.09502312 0.00993344 -0.01249030
v -0.09481554 0.00972588 -0.01235870
v -0.09421016 0.00912048 -0.01107510
v -0.09429718 0.01625602 -0.01266558
v -0.09429718 0.01627256 -0.01266414
v -0.09429718 0.01630564 -0.01266124
v -0.09429718 0.01637182 -0.01265546
v -0.09429718 0.01643798 -0.01264966
v -0.09429718 0.01647106 -0.01264678
v -0.09429718 0.01650414 -0.01264388
v -0.09429718 0.01652068 -0.01264244
v -0.09429718 0.01653670 -0.01263814
v -0.09429718 0.01656878 -0.01262954
v -0.09429718 0.01663294 -0.01261236
v -0.09429718 0.01669708 -0.01259516
v -0.09429718 0.01672916 -0.01258656
v -0.09429718 0.01676124 -0.01257798
v -0.09429718 0.01677728 -0.01257368
v -0.09429718 0.01679232 -0.01256666
v -0.09429718 0.01682242 -0.01255262
v -0.09429718 0.01685250 -0.01253860
v -0.09429718 0.01691270 -0.01251052
v -0.09429718 0.01697288 -0.01248246
v -0.09429718 0.01700298 -0.01246842
v -0.09386750 0.01700332 -0.01246826
v -0.09066782 0.01134466 -0.01266558
v -0.08983918 0.01204628 -0.01266558
v -0.10347948 0.00348440 0.01273442
v -0.10540552 0.00863246 0.01273442
v -0.10514022 0.01509676 0.01273442
v -0.10540552 0.01625604 0.01273442
v -0.10540552 0.01652068 0.01271126
v -0.10540552 0.01677728 0.01264250
v -0.10540552 0.01688612 0.01259175
v -0.10540552 0.01698176 0.01254715
v -0.10540552 0.01700332 0.01253710
v -0.10372694 0.01626430 0.01273370
v -0.10372694 0.01625604 0.01273442
v -0.10372694 0.01628084 0.01273224
v -0.10372694 0.01629738 0.01273080
v -0.10372694 0.01633046 0.01272790
v -0.10372694 0.01639662 0.01272212
v -0.10372694 0.01642970 0.01271922
v -0.10372694 0.01646278 0.01271632
v -0.10372694 0.01647932 0.01271488
v -0.10372694 0.01649586 0.01271344
v -0.10372694 0.01652870 0.01270912
v -0.10372694 0.01652068 0.01271126
v -0.10372694 0.01651240 0.01271198
v -0.10372694 0.01654474 0.01270482
v -0.10372694 0.01656076 0.01270052
v -0.10372694 0.01659284 0.01269192
v -0.10372694 0.01665700 0.01267474
v -0.10372694 0.01668906 0.01266614
v -0.10372694 0.01673718 0.01265324
v -0.10372694 0.01672114 0.01265754
v -0.10372694 0.01679984 0.01263198
v -0.10372694 0.01682994 0.01261794
v -0.10372694 0.01681490 0.01262496
v -0.10372694 0.01686004 0.01260392
v -0.10372694 0.01675322 0.01264896
v -0.10372694 0.01676926 0.01264466
v -0.10372694 0.01678480 0.01263900
v -0.10372694 0.01677728 0.01264250
v -0.10372694 0.01689014 0.01258988
v -0.10372694 0.01695032 0.01256182
v -0.10372694 0.01698042 0.01254778
v -0.10372694 0.01699546 0.01254076
v -0.10372694 0.01700332 0.01253710
v -0.09853702 0.01277822 0.01273442
v -0.09469810 0.00048798 0.00010090
v -0.09670860 0.00000004 0.01273442
v -0.09657992 0.00012872 0.01272348
v -0.09645124 0.00000004 0.01271252
v -0.09632626 0.00012502 0.01268002
v -0.09620128 0.00000004 0.01264750
v -0.09518604 0.00000004 0.01127690
v -0.09519718 0.00000004 0.01140568
v -0.09521916 0.00000004 0.01153306
v -0.09525184 0.00000004 0.01165810
v -0.09527344 0.00002162 0.01171902
v -0.09529502 0.00000004 0.01177994
v -0.09534838 0.00000002 0.01189768
v -0.09565854 0.00009332 0.01230734
v -0.09608358 0.00011772 0.01259434
v -0.09596590 0.00000004 0.01254118
v -0.09575182 0.00000004 0.01239664
v -0.09585886 0.00010706 0.01246892
v -0.09548396 0.00000004 0.01211752
v -0.09537994 0.00003160 0.01195408
v -0.09541152 0.00000002 0.01201048
v -0.09556526 0.00000004 0.01221804
v -0.09552462 0.00004068 0.01216778
v -0.09469810 0.00960844 0.00010090
v -0.09518604 0.01009640 0.01127690
v -0.09519718 0.01010750 0.01140568
v -0.09521916 0.01012948 0.01153306
v -0.09525184 0.01016218 0.01165810
v -0.09529502 0.01020536 0.01177994
v -0.09534836 0.01025870 0.01189768
v -0.09541150 0.01032184 0.01201048
v -0.09548396 0.01039430 0.01211752
v -0.09556526 0.01047558 0.01221804
v -0.09670860 0.01161894 0.01273442
v -0.09620128 0.01111162 0.01264750
v -0.09645124 0.01136158 0.01271252
v -0.09596590 0.01087622 0.01254118
v -0.09575180 0.01066216 0.01239664
v -0.09712374 0.01393748 0.01273442
v -0.09429718 0.01625602 0.01273442
v -0.09429718 0.01627256 0.01273296
v -0.09429718 0.01630564 0.01273008
v -0.09429718 0.01637182 0.01272428
v -0.09429718 0.01643798 0.01271850
v -0.09429718 0.01647106 0.01271560
v -0.09429718 0.01650414 0.01271270
v -0.09429718 0.01653670 0.01270696
v -0.09429718 0.01652068 0.01271126
v -0.09429718 0.01656878 0.01269838
v -0.09429718 0.01663294 0.01268118
v -0.09429718 0.01669708 0.01266400
v -0.09429718 0.01672916 0.01265540
v -0.09429718 0.01682242 0.01262146
v -0.09429718 0.01685250 0.01260742
v -0.09429718 0.01676124 0.01264680
v -0.09429718 0.01677728 0.01264250
v -0.09429718 0.01679232 0.01263548
v -0.09429718 0.01691270 0.01257936
v -0.09429718 0.01697288 0.01255128
v -0.09429718 0.01700298 0.01253726
v -0.09386750 0.01700332 0.01253710
v -0.08981390 0.01219858 0.01273442
v -0.08910726 0.01277822 0.01273442
v -0.08733458 -0.01415110 -0.01266558
v -0.08486744 -0.01699540 -0.01247194
v -0.08486744 -0.01696530 -0.01248596
v -0.08486744 -0.01687502 -0.01252806
v -0.08486744 -0.01693520 -0.01250000
v -0.08486744 -0.01677720 -0.01257368
v -0.08486744 -0.01678474 -0.01257016
v -0.08486744 -0.01676920 -0.01257582
v -0.08486744 -0.01675316 -0.01258012
v -0.08486744 -0.01684492 -0.01254210
v -0.08486744 -0.01682988 -0.01254912
v -0.08486744 -0.01679978 -0.01256316
v -0.08486744 -0.01672108 -0.01258872
v -0.08486744 -0.01668900 -0.01259732
v -0.08486744 -0.01662486 -0.01261450
v -0.08486744 -0.01659278 -0.01262310
v -0.08486744 -0.01657674 -0.01262740
v -0.08486744 -0.01654466 -0.01263598
v -0.08486744 -0.01651234 -0.01264316
v -0.08486744 -0.01652062 -0.01264244
v -0.08486744 -0.01652864 -0.01264028
v -0.08486744 -0.01649580 -0.01264460
v -0.08486744 -0.01646272 -0.01264750
v -0.08486744 -0.01644618 -0.01264894
v -0.08486744 -0.01641310 -0.01265184
v -0.08486744 -0.01634694 -0.01265762
v -0.08486744 -0.01631386 -0.01266052
v -0.08486744 -0.01628078 -0.01266342
v -0.08486744 -0.01626424 -0.01266486
v -0.08486744 -0.01625596 -0.01266558
v -0.08562632 -0.01415110 -0.01266558
v -0.08403882 -0.01555434 -0.01266558
v -0.08431026 -0.01450190 -0.01266558
v -0.08472120 -0.01344948 -0.01266558
v -0.08156057 -0.01700332 -0.01246824
v -0.08220982 -0.01415110 -0.01266558
v -0.08298388 -0.00972580 -0.01235870
v -0.08277630 -0.00993338 -0.01249030
v -0.08338816 -0.00932150 -0.01190070
v -0.08332268 -0.00938702 -0.01200478
v -0.08316758 -0.00954210 -0.01219546
v -0.08349302 -0.00921666 -0.01167842
v -0.08353166 -0.00917802 -0.01156166
v -0.08344508 -0.00926458 -0.01179168
v -0.08356078 -0.00914890 -0.01144216
v -0.08358012 -0.00912954 -0.01132072
v -0.08358964 -0.00912002 -0.01119810
v -0.08358924 -0.00912042 -0.01107510
v -0.08206670 -0.01064298 -0.01266558
v -0.08255028 -0.01015940 -0.01258684
v -0.08231166 -0.01039800 -0.01264576
v -0.08335542 -0.00003274 -0.01195274
v -0.08351234 -0.00001930 -0.01162004
v -0.08354622 -0.00001452 -0.01150192
v -0.08341662 -0.00002842 -0.01184618
v -0.08346906 -0.00002394 -0.01173504
v -0.08357044 -0.00000966 -0.01138144
v -0.07808100 -0.01450192 -0.01266558
v -0.07674438 -0.01380028 -0.01266558
v -0.07672382 -0.01274786 -0.01266558
v -0.07543770 -0.01695778 -0.01248948
v -0.07543770 -0.01677722 -0.01257368
v -0.07543770 -0.01683740 -0.01254562
v -0.07543770 -0.01671306 -0.01259086
v -0.07543770 -0.01658476 -0.01262524
v -0.07543770 -0.01652062 -0.01264244
v -0.07543770 -0.01645446 -0.01264822
v -0.07543770 -0.01632214 -0.01265980
v -0.07543770 -0.01625598 -0.01266558
v -0.07598056 -0.01415110 -0.01266558
v -0.07645188 -0.01309866 -0.01266558
v -0.07589026 -0.01380028 -0.01266558
v -0.07543770 -0.01344948 -0.01266558
v -0.07239970 -0.01700332 -0.01246824
v -0.07239970 -0.01677722 -0.01257368
v -0.07239970 -0.01652062 -0.01264244
v -0.07239970 -0.01625598 -0.01266558
v -0.07418200 -0.01380028 -0.01266558
v -0.07239970 -0.01372240 -0.01266558
v -0.07330732 -0.01274786 -0.01266558
v -0.07239970 -0.01269207 -0.01266558
v -0.07583744 -0.00266072 -0.01266558
v -0.08310128 -0.00960838 0.00010090
v -0.08486744 -0.01699540 0.01254076
v -0.08486744 -0.01696530 0.01255480
v -0.08486744 -0.01695026 0.01256182
v -0.08486744 -0.01692016 0.01257584
v -0.08486744 -0.01685998 0.01260392
v -0.08486744 -0.01682988 0.01261794
v -0.08486744 -0.01679978 0.01263198
v -0.08486744 -0.01677720 0.01264250
v -0.08486744 -0.01678474 0.01263900
v -0.08486744 -0.01676920 0.01264466
v -0.08486744 -0.01675316 0.01264896
v -0.08486744 -0.01672108 0.01265754
v -0.08486744 -0.01668900 0.01266614
v -0.08486744 -0.01662486 0.01268332
v -0.08486744 -0.01659278 0.01269192
v -0.08486744 -0.01657674 0.01269622
v -0.08486744 -0.01654466 0.01270482
v -0.08486744 -0.01652864 0.01270912
v -0.08486744 -0.01651234 0.01271198
v -0.08486744 -0.01652062 0.01271126
v -0.08486744 -0.01649580 0.01271344
v -0.08486744 -0.01646272 0.01271632
v -0.08486744 -0.01644618 0.01271778
v -0.08486744 -0.01641310 0.01272066
v -0.08486744 -0.01634694 0.01272646
v -0.08486744 -0.01631386 0.01272934
v -0.08486744 -0.01628078 0.01273224
v -0.08486744 -0.01626424 0.01273370
v -0.08486744 -0.01625596 0.01273442
v -0.08889970 -0.01161888 0.01273442
v -0.08204756 -0.01066210 0.01239664
v -0.08183352 -0.01087616 0.01254118
v -0.08134816 -0.01136152 0.01271252
v -0.08159814 -0.01111156 0.01264750
v -0.08109080 -0.01161888 0.01273442
v -0.08261332 -0.01009634 0.01127690
v -0.08260222 -0.01010744 0.01140568
v -0.08258024 -0.01012942 0.01153306
v -0.08254754 -0.01016212 0.01165810
v -0.08250438 -0.01020530 0.01177994
v -0.08245104 -0.01025866 0.01189768
v -0.08231542 -0.01039424 0.01211752
v -0.08223414 -0.01047552 0.01221804
v -0.08238790 -0.01032178 0.01201048
v -0.08310128 -0.00048792 0.00010090
v -0.08259124 -0.00001096 0.01146936
v -0.08214086 -0.00009326 0.01230734
v -0.08194054 -0.00010700 0.01246892
v -0.08171582 -0.00011766 0.01259434
v -0.08147314 -0.00012496 0.01268002
v -0.08121948 -0.00012866 0.01272348
v -0.07543770 -0.01695778 0.01255830
v -0.07543770 -0.01683740 0.01261444
v -0.07543770 -0.01677722 0.01264250
v -0.07543770 -0.01671306 0.01265970
v -0.07543770 -0.01658476 0.01269408
v -0.07543770 -0.01652062 0.01271126
v -0.07543770 -0.01645446 0.01271706
v -0.07543770 -0.01632214 0.01272862
v -0.07543770 -0.01625598 0.01273442
v -0.07239970 -0.01700332 0.01253707
v -0.07239970 -0.01677722 0.01264250
v -0.07239970 -0.01671564 0.01265900
v -0.07239970 -0.01652837 0.01270919
v -0.07239970 -0.01652062 0.01271126
v -0.07239970 -0.01625598 0.01273442
v -0.08324514 0.00007758 -0.01210012
v -0.08338816 0.00000002 -0.01190070
v -0.08332268 0.00000002 -0.01200478
v -0.08307572 0.00009188 -0.01227708
v -0.08298386 0.00000002 -0.01235870
v -0.08277628 0.00000002 -0.01249030
v -0.08288008 0.00010382 -0.01242450
v -0.08316758 0.00000002 -0.01219546
v -0.08349302 0.00000002 -0.01167842
v -0.08353166 0.00000002 -0.01156166
v -0.08344508 0.00000002 -0.01179168
v -0.08356078 0.00000004 -0.01144216
v -0.08358012 0.00000004 -0.01132072
v -0.08358488 0.00000478 -0.01125940
v -0.08358964 0.00000002 -0.01119810
v -0.08358944 0.00000022 -0.01113660
v -0.08358924 0.00000004 -0.01107510
v -0.08266328 0.00011304 -0.01253856
v -0.08255028 0.00000002 -0.01258684
v -0.08243096 0.00011934 -0.01261630
v -0.08231166 0.00000002 -0.01264576
v -0.08218918 0.00012252 -0.01265568
v -0.08206670 0.00000002 -0.01266558
v -0.08486744 0.01626430 -0.01266486
v -0.08486744 0.01625602 -0.01266558
v -0.08486744 0.01628084 -0.01266342
v -0.08486744 0.01631392 -0.01266052
v -0.08486744 0.01634700 -0.01265762
v -0.08486744 0.01641316 -0.01265184
v -0.08486744 0.01644624 -0.01264894
v -0.08486744 0.01646278 -0.01264750
v -0.08486744 0.01649586 -0.01264460
v -0.08486744 0.01652066 -0.01264244
v -0.08486744 0.01651240 -0.01264316
v -0.08486744 0.01652868 -0.01264028
v -0.08486744 0.01654472 -0.01263598
v -0.08486744 0.01657680 -0.01262740
v -0.08486744 0.01660888 -0.01261880
v -0.08486744 0.01667302 -0.01260160
v -0.08486744 0.01670510 -0.01259302
v -0.08486744 0.01672114 -0.01258872
v -0.08486744 0.01675322 -0.01258012
v -0.08486744 0.01676924 -0.01257582
v -0.08486744 0.01677726 -0.01257368
v -0.08486744 0.01678480 -0.01257016
v -0.08486744 0.01679984 -0.01256316
v -0.08486744 0.01682994 -0.01254912
v -0.08486744 0.01684498 -0.01254210
v -0.08486744 0.01687508 -0.01252806
v -0.08486744 0.01693526 -0.01250000
v -0.08486744 0.01696536 -0.01248596
v -0.08486744 0.01699546 -0.01247194
v -0.08338816 0.00932154 -0.01190070
v -0.08332268 0.00938706 -0.01200478
v -0.08316758 0.00954216 -0.01219546
v -0.08349302 0.00921672 -0.01167842
v -0.08353166 0.00917806 -0.01156166
v -0.08344508 0.00926464 -0.01179168
v -0.08356078 0.00914898 -0.01144216
v -0.08358012 0.00912960 -0.01132072
v -0.08358964 0.00912008 -0.01119810
v -0.08298386 0.00972586 -0.01235870
v -0.08277628 0.00993344 -0.01249030
v -0.08358924 0.00912048 -0.01107510
v -0.08255028 0.01015946 -0.01258684
v -0.08231166 0.01039806 -0.01264576
v -0.08206670 0.01064304 -0.01266558
v -0.07543768 0.01625602 -0.01266558
v -0.07543768 0.01632218 -0.01265980
v -0.07543768 0.01645450 -0.01264822
v -0.07543768 0.01652066 -0.01264244
v -0.07543768 0.01658482 -0.01262524
v -0.07543768 0.01671312 -0.01259086
v -0.07543768 0.01677726 -0.01257368
v -0.07543768 0.01683746 -0.01254562
v -0.07543768 0.01695784 -0.01248948
v -0.07543768 0.01700332 -0.01246826
v -0.07239970 0.01625602 -0.01266558
v -0.07239970 0.01652066 -0.01264244
v -0.07239970 0.01677726 -0.01257368
v -0.07239970 0.01696996 -0.01248383
v -0.07239970 0.01696026 -0.01248835
v -0.07239970 0.01700332 -0.01246826
v -0.08285730 0.00480424 0.00568890
v -0.08261332 0.00000002 0.01127690
v -0.08260778 0.00000558 0.01134128
v -0.08260222 0.00000002 0.01140568
v -0.08258024 0.00000002 0.01153306
v -0.08256388 0.00001638 0.01159558
v -0.08254752 0.00000002 0.01165810
v -0.08252596 0.00002162 0.01171902
v -0.08250438 0.00000002 0.01177994
v -0.08247770 0.00002670 0.01183882
v -0.08245104 0.00000002 0.01189768
v -0.08241946 0.00003160 0.01195408
v -0.08238790 0.00000002 0.01201048
v -0.08235166 0.00003626 0.01206400
v -0.08231542 0.00000002 0.01211752
v -0.08227478 0.00004066 0.01216778
v -0.08223414 0.00000002 0.01221804
v -0.08204756 0.00000002 0.01239664
v -0.08183350 0.00000002 0.01254118
v -0.08159812 0.00000002 0.01264750
v -0.08134816 0.00000002 0.01271252
v -0.08109080 0.00000002 0.01273442
v -0.08841174 0.00960844 0.00010090
v -0.08310128 0.00960844 0.00010090
v -0.08889970 0.01161894 0.01273442
v -0.08877102 0.01149026 0.01272348
v -0.08486744 0.01626430 0.01273370
v -0.08486744 0.01625602 0.01273442
v -0.08486744 0.01628084 0.01273224
v -0.08486744 0.01631392 0.01272934
v -0.08486744 0.01634700 0.01272646
v -0.08486744 0.01641316 0.01272066
v -0.08486744 0.01644624 0.01271778
v -0.08486744 0.01646278 0.01271632
v -0.08486744 0.01649586 0.01271344
v -0.08486744 0.01652868 0.01270912
v -0.08486744 0.01652066 0.01271126
v -0.08486744 0.01651240 0.01271198
v -0.08486744 0.01654472 0.01270482
v -0.08486744 0.01657680 0.01269622
v -0.08486744 0.01660888 0.01268762
v -0.08486744 0.01667302 0.01267044
v -0.08486744 0.01672114 0.01265754
v -0.08486744 0.01670510 0.01266184
v -0.08486744 0.01679984 0.01263198
v -0.08486744 0.01682994 0.01261794
v -0.08486744 0.01684498 0.01261094
v -0.08486744 0.01675322 0.01264896
v -0.08486744 0.01676924 0.01264466
v -0.08486744 0.01677726 0.01264250
v -0.08486744 0.01678480 0.01263900
v -0.08486744 0.01693526 0.01256882
v -0.08486744 0.01687508 0.01259690
v -0.08486744 0.01696536 0.01255480
v -0.08486744 0.01699546 0.01254076
v -0.08261332 0.01009638 0.01127690
v -0.08260222 0.01010750 0.01140568
v -0.08258024 0.01012948 0.01153306
v -0.08254752 0.01016218 0.01165810
v -0.08250438 0.01020536 0.01177994
v -0.08245102 0.01025870 0.01189768
v -0.08238788 0.01032184 0.01201048
v -0.08231540 0.01039430 0.01211752
v -0.08223414 0.01047558 0.01221804
v -0.08204756 0.01066216 0.01239664
v -0.08183350 0.01087622 0.01254118
v -0.08159812 0.01111160 0.01264750
v -0.08134816 0.01136158 0.01271252
v -0.08109080 0.01161894 0.01273442
v -0.08158119 0.01700332 0.01253709
v -0.07510552 0.00290476 0.01273442
v -0.07543768 0.01625602 0.01273442
v -0.07543768 0.01632218 0.01272862
v -0.07543768 0.01645450 0.01271706
v -0.07543768 0.01652066 0.01271126
v -0.07543768 0.01658482 0.01269408
v -0.07543768 0.01671312 0.01265970
v -0.07543768 0.01683746 0.01261444
v -0.07543768 0.01677726 0.01264250
v -0.07543768 0.01695784 0.01255830
v -0.07239970 0.01625602 0.01273442
v -0.07239970 0.01633551 0.01272745
v -0.07239970 0.01652066 0.01271126
v -0.07239970 0.01658740 0.01269338
v -0.07239970 0.01670537 0.01266177
v -0.07239970 0.01677726 0.01264250
v -0.07239970 0.01700332 0.01253709
f 9 1 2
f 13 2 3
f 29 3 4
f 38 6 7
f 37 4 5
f 38 5 6
f 40 7 8
f 11 2 12
f 9 2 10
f 11 10 2
f 14 20 2
f 13 14 2
f 12 2 17
f 17 2 19
f 18 19 2
f 18 2 20
f 13 3 16
f 15 16 3
f 15 3 22
f 21 22 3
f 21 3 24
f 23 24 3
f 23 3 25
f 25 3 27
f 26 27 3
f 29 30 3
f 26 3 30
f 28 4 31
f 28 29 4
f 32 4 33
f 31 4 32
f 33 4 34
f 34 4 35
f 35 4 36
f 36 4 37
f 37 5 38
f 38 7 39
f 39 7 40
f 40 8 46
f 41 8 42
f 43 42 44
f 45 43 44
f 43 47 42
f 41 42 48
f 45 44 49
f 9 54 1
f 9 10 54
f 11 55 10
f 11 12 56
f 14 58 20
f 13 16 57
f 13 57 14
f 15 22 59
f 15 59 16
f 17 19 60
f 12 17 60
f 18 61 19
f 18 20 58
f 21 62 22
f 23 64 24
f 21 24 63
f 23 25 64
f 25 27 65
f 26 67 27
f 29 66 30
f 28 66 29
f 26 30 67
f 28 31 68
f 31 32 68
f 32 33 69
f 33 34 70
f 34 35 70
f 35 36 71
f 36 37 72
f 37 38 73
f 38 39 73
f 39 40 74
f 40 46 74
f 41 92 8
f 46 8 92
f 47 52 42
f 41 48 51
f 48 42 52
f 43 45 94
f 54 75 1
f 10 55 54
f 11 56 55
f 12 60 56
f 14 57 58
f 22 62 59
f 16 59 57
f 19 61 60
f 18 58 61
f 21 63 62
f 24 64 63
f 25 65 64
f 27 67 65
f 28 68 66
f 30 66 67
f 32 69 68
f 33 70 69
f 35 71 70
f 36 72 71
f 37 73 72
f 39 74 73
f 41 51 53
f 43 94 47
f 45 49 94
f 41 53 76
f 49 44 77
f 77 44 50
f 50 44 196
f 77 50 238
f 46 92 74
f 41 76 92
f 47 93 52
f 47 94 93
f 48 401 51
f 48 52 401
f 49 77 95
f 94 49 95
f 54 55 402
f 55 56 405
f 56 60 404
f 57 407 58
f 59 62 409
f 57 59 408
f 60 61 411
f 61 58 412
f 54 402 75
f 62 63 414
f 64 415 63
f 64 65 417
f 65 67 418
f 66 68 419
f 67 66 421
f 68 69 422
f 69 70 423
f 70 71 425
f 71 72 426
f 72 73 428
f 73 74 429
f 51 401 53
f 53 431 76
f 52 93 434
f 74 92 430
f 76 436 92
f 53 401 431
f 52 434 401
f 93 94 434
f 77 78 449
f 78 79 451
f 77 449 95
f 79 80 450
f 80 81 438
f 81 82 437
f 82 83 441
f 83 84 440
f 84 85 444
f 85 86 444
f 86 87 443
f 87 88 445
f 88 89 446
f 89 90 447
f 90 91 448
f 91 148 448
f 91 147 148
f 77 96 78
f 78 97 79
f 79 98 80
f 80 99 81
f 81 100 82
f 82 101 83
f 83 102 84
f 84 245 85
f 85 103 86
f 86 248 87
f 87 104 88
f 88 251 89
f 89 105 90
f 90 106 91
f 77 238 96
f 78 96 239
f 78 239 97
f 79 97 240
f 79 240 98
f 80 98 241
f 80 241 99
f 81 99 242
f 81 242 100
f 82 100 243
f 82 243 101
f 83 101 244
f 83 244 102
f 84 102 245
f 85 245 246
f 85 246 247
f 85 247 103
f 86 103 248
f 87 250 104
f 87 248 249
f 87 249 250
f 88 104 251
f 89 251 252
f 89 252 253
f 89 253 105
f 90 105 254
f 90 254 106
f 91 106 255
f 91 255 338
f 91 338 147
f 122 109 107
f 121 108 109
f 134 110 108
f 144 111 110
f 112 145 111
f 144 112 111
f 113 114 107
f 115 107 114
f 115 116 107
f 116 117 107
f 117 118 107
f 118 119 107
f 119 120 107
f 120 122 107
f 121 124 108
f 121 109 122
f 123 108 124
f 123 125 108
f 125 126 108
f 126 127 108
f 127 128 108
f 128 129 108
f 129 131 108
f 130 108 131
f 130 132 108
f 132 134 108
f 133 135 110
f 133 110 134
f 136 137 110
f 135 136 110
f 137 138 110
f 138 139 110
f 139 140 110
f 140 141 110
f 141 142 110
f 142 143 110
f 143 144 110
f 144 149 112
f 112 146 145
f 113 107 152
f 113 150 114
f 115 114 151
f 115 153 116
f 116 153 117
f 117 154 118
f 118 155 119
f 119 157 120
f 120 157 122
f 121 156 124
f 121 122 156
f 123 158 125
f 123 124 158
f 125 159 126
f 126 160 127
f 127 161 128
f 128 161 129
f 129 162 131
f 130 131 163
f 130 163 132
f 132 164 134
f 133 134 164
f 133 165 135
f 135 165 136
f 136 166 137
f 137 167 138
f 138 167 139
f 139 168 140
f 140 169 141
f 141 170 142
f 142 170 143
f 143 171 144
f 112 149 146
f 146 172 145
f 144 171 149
f 113 152 150
f 114 150 151
f 115 151 153
f 117 153 154
f 118 154 155
f 119 155 157
f 122 157 156
f 125 158 159
f 124 156 158
f 126 159 160
f 127 160 161
f 129 161 162
f 131 162 163
f 132 163 164
f 133 164 165
f 136 165 166
f 137 166 167
f 139 167 168
f 140 168 169
f 141 169 170
f 143 170 171
f 172 339 145
f 295 296 145
f 339 295 145
f 147 177 148
f 149 187 146
f 149 171 186
f 146 187 172
f 172 188 173
f 150 484 151
f 151 485 153
f 153 487 154
f 154 488 155
f 155 490 157
f 156 157 492
f 158 494 159
f 156 493 158
f 159 496 160
f 160 497 161
f 161 499 162
f 162 500 163
f 163 501 164
f 164 502 165
f 165 504 166
f 166 505 167
f 167 507 168
f 168 508 169
f 169 510 170
f 170 511 171
f 149 186 187
f 148 177 519
f 172 187 513
f 172 513 188
f 173 517 174
f 174 515 175
f 175 514 176
f 177 178 520
f 178 179 521
f 180 522 179
f 180 182 522
f 182 181 524
f 181 185 524
f 185 183 525
f 176 526 184
f 183 184 526
f 173 188 516
f 147 338 189
f 147 189 177
f 189 338 344
f 177 189 344
f 172 173 339
f 173 174 341
f 174 175 343
f 177 190 178
f 178 191 179
f 180 349 182
f 180 179 192
f 182 193 181
f 176 184 354
f 175 176 353
f 185 194 183
f 183 359 184
f 181 358 185
f 173 340 339
f 173 341 340
f 174 342 341
f 174 343 342
f 177 344 190
f 178 190 345
f 178 345 191
f 179 191 346
f 181 350 357
f 180 192 347
f 179 346 192
f 180 347 348
f 180 348 349
f 182 349 193
f 181 193 350
f 184 351 354
f 175 352 343
f 175 353 352
f 176 354 355
f 176 355 353
f 183 194 356
f 184 359 351
f 183 356 360
f 185 358 194
f 181 357 358
f 183 360 359
f 50 196 238
f 238 196 195
f 238 195 258
f 236 196 197
f 197 196 198
f 197 198 205
f 205 198 199
f 214 199 200
f 218 200 201
f 219 201 202
f 227 202 203
f 204 199 206
f 204 205 199
f 206 199 207
f 207 199 208
f 208 199 209
f 209 199 210
f 210 199 211
f 211 199 212
f 212 199 213
f 213 199 215
f 214 215 199
f 214 200 216
f 217 200 218
f 216 200 217
f 218 201 219
f 219 202 220
f 220 202 221
f 221 202 223
f 222 223 202
f 222 202 224
f 224 202 225
f 225 202 227
f 226 203 228
f 226 227 203
f 228 203 230
f 229 230 203
f 229 203 231
f 231 203 232
f 232 203 233
f 233 203 234
f 234 203 235
f 197 205 237
f 195 196 258
f 258 196 236
f 236 197 237
f 235 203 291
f 204 206 272
f 204 271 205
f 206 207 272
f 207 208 273
f 208 209 274
f 209 210 275
f 210 211 275
f 211 212 276
f 212 213 277
f 213 215 277
f 214 216 278
f 214 278 215
f 216 217 279
f 217 218 279
f 218 219 280
f 219 220 281
f 221 223 282
f 220 221 282
f 222 283 223
f 222 224 284
f 224 225 284
f 226 228 286
f 226 285 227
f 225 227 285
f 228 230 286
f 229 287 230
f 229 231 288
f 231 232 288
f 232 233 289
f 233 234 290
f 234 235 291
f 237 205 271
f 203 292 291
f 204 272 271
f 207 273 272
f 208 274 273
f 209 275 274
f 211 276 275
f 212 277 276
f 215 278 277
f 216 279 278
f 218 280 279
f 219 281 280
f 220 282 281
f 223 283 282
f 222 284 283
f 225 285 284
f 226 286 285
f 229 288 287
f 230 287 286
f 232 289 288
f 233 290 289
f 234 291 290
f 96 238 256
f 96 256 239
f 97 239 257
f 97 257 240
f 98 240 268
f 100 242 259
f 100 259 243
f 101 243 260
f 101 260 244
f 102 244 261
f 102 261 245
f 245 261 246
f 246 262 247
f 103 247 263
f 103 263 248
f 104 250 265
f 248 263 249
f 249 264 250
f 104 265 251
f 251 265 252
f 252 266 253
f 105 253 267
f 105 267 254
f 106 254 267
f 106 270 255
f 98 268 241
f 99 241 269
f 99 269 242
f 255 270 338
f 238 258 256
f 239 256 257
f 240 257 268
f 243 259 260
f 244 260 261
f 246 261 262
f 247 262 263
f 250 264 265
f 249 263 264
f 252 265 266
f 253 266 267
f 106 267 270
f 241 268 269
f 242 269 259
f 270 361 338
f 258 236 293
f 236 237 293
f 294 237 271
f 268 257 612
f 256 614 257
f 256 258 615
f 293 237 294
f 260 602 261
f 260 259 603
f 262 605 263
f 261 602 262
f 264 608 265
f 263 605 264
f 265 608 266
f 266 609 267
f 267 610 270
f 268 611 269
f 269 604 259
f 258 293 616
f 271 272 573
f 272 273 575
f 273 274 577
f 274 275 578
f 275 276 580
f 276 277 581
f 277 278 583
f 278 279 584
f 279 280 585
f 280 281 587
f 281 282 588
f 282 283 590
f 283 284 591
f 284 285 592
f 285 286 594
f 286 287 595
f 287 288 596
f 288 289 598
f 289 290 599
f 290 291 601
f 291 292 601
f 270 655 361
f 295 371 296
f 339 371 295
f 337 297 296
f 297 298 296
f 297 305 298
f 315 299 298
f 331 300 299
f 327 301 300
f 334 302 301
f 302 336 303
f 304 306 298
f 304 298 305
f 307 308 298
f 306 307 298
f 308 309 298
f 309 310 298
f 310 311 298
f 311 312 298
f 312 313 298
f 313 316 298
f 315 298 316
f 314 317 299
f 314 299 315
f 317 318 299
f 318 319 299
f 319 320 299
f 320 321 299
f 321 323 299
f 322 299 323
f 322 328 299
f 328 329 299
f 329 331 299
f 324 326 300
f 325 300 326
f 325 327 300
f 324 300 330
f 330 300 331
f 332 333 301
f 327 332 301
f 334 301 333
f 335 336 302
f 334 335 302
f 297 376 305
f 371 337 296
f 337 376 297
f 304 378 306
f 304 305 377
f 306 378 307
f 307 379 308
f 308 380 309
f 309 381 310
f 310 381 311
f 311 382 312
f 312 383 313
f 313 383 316
f 314 384 317
f 314 315 385
f 315 316 385
f 317 384 318
f 318 386 319
f 319 387 320
f 321 388 323
f 320 388 321
f 322 323 389
f 324 394 326
f 325 326 390
f 325 391 327
f 327 391 332
f 322 392 328
f 328 392 329
f 324 330 394
f 330 331 393
f 329 393 331
f 332 395 333
f 334 333 396
f 334 397 335
f 335 397 336
f 376 377 305
f 304 377 378
f 307 378 379
f 308 379 380
f 309 380 381
f 311 381 382
f 312 382 383
f 314 385 384
f 316 383 385
f 318 384 386
f 319 386 387
f 320 387 388
f 323 388 389
f 325 390 391
f 326 394 390
f 322 389 392
f 329 392 393
f 330 393 394
f 332 391 395
f 333 395 396
f 334 396 397
f 397 398 336
f 338 361 362
f 338 362 344
f 339 340 371
f 341 373 340
f 341 342 373
f 352 372 343
f 343 372 342
f 190 344 362
f 190 362 345
f 191 345 363
f 191 363 346
f 350 367 357
f 192 346 364
f 192 364 347
f 347 365 348
f 348 366 349
f 193 366 350
f 193 349 366
f 355 374 353
f 353 374 352
f 354 375 355
f 351 375 354
f 194 358 368
f 357 368 358
f 194 368 356
f 356 369 360
f 360 370 359
f 359 370 351
f 340 373 371
f 342 372 373
f 345 362 363
f 346 363 364
f 347 364 365
f 348 365 366
f 350 366 367
f 351 370 375
f 352 374 372
f 355 375 374
f 357 367 368
f 356 368 369
f 360 369 370
f 361 655 362
f 371 399 337
f 373 657 371
f 337 399 376
f 400 377 376
f 362 688 363
f 363 690 364
f 365 364 690
f 365 692 366
f 366 692 367
f 367 693 368
f 368 694 369
f 369 696 370
f 370 697 375
f 374 699 372
f 375 698 374
f 372 700 373
f 373 658 657
f 371 657 399
f 399 400 376
f 377 659 378
f 378 661 379
f 379 663 380
f 380 664 381
f 381 666 382
f 382 667 383
f 385 668 384
f 383 670 385
f 384 671 386
f 386 673 387
f 387 674 388
f 388 675 389
f 394 677 390
f 390 678 391
f 389 680 392
f 392 681 393
f 393 683 394
f 391 685 395
f 395 684 396
f 396 687 397
f 397 687 398
f 55 403 402
f 55 405 403
f 56 404 405
f 58 407 412
f 57 408 406
f 57 406 407
f 59 409 408
f 60 411 410
f 60 410 404
f 61 412 411
f 62 413 409
f 62 414 413
f 64 416 415
f 63 415 414
f 64 417 416
f 65 418 417
f 66 420 421
f 66 419 420
f 67 421 418
f 68 422 419
f 69 423 422
f 70 424 423
f 70 425 424
f 71 426 425
f 72 427 426
f 72 428 427
f 73 429 428
f 74 430 429
f 430 92 432
f 76 431 436
f 402 435 75
f 92 458 432
f 92 436 433
f 92 433 458
f 94 95 449
f 81 437 438
f 82 441 437
f 83 440 441
f 84 439 440
f 86 443 442
f 87 445 443
f 84 444 439
f 86 442 444
f 88 446 445
f 89 447 446
f 90 448 447
f 78 451 449
f 79 450 451
f 80 438 450
f 94 460 434
f 401 459 431
f 401 434 459
f 402 403 461
f 403 405 461
f 405 404 461
f 407 462 412
f 406 408 462
f 406 462 407
f 408 409 462
f 410 411 463
f 410 463 404
f 411 412 463
f 413 414 464
f 409 413 464
f 414 415 464
f 415 416 465
f 416 417 465
f 417 418 465
f 419 422 466
f 420 466 421
f 419 466 420
f 418 421 466
f 422 423 467
f 423 424 467
f 424 425 467
f 425 426 468
f 426 427 468
f 427 428 468
f 428 429 469
f 429 430 469
f 430 432 469
f 431 472 436
f 433 436 470
f 94 449 460
f 448 148 483
f 437 441 554
f 438 437 555
f 439 452 440
f 441 440 557
f 442 443 453
f 443 445 454
f 439 444 455
f 444 442 456
f 445 446 457
f 446 447 562
f 447 448 565
f 450 438 568
f 451 450 570
f 449 451 572
f 438 555 567
f 437 554 556
f 437 556 555
f 440 550 557
f 439 455 551
f 439 551 452
f 440 452 552
f 440 552 550
f 441 553 554
f 441 557 553
f 442 453 558
f 443 559 453
f 443 454 559
f 444 560 455
f 444 456 560
f 442 558 456
f 445 561 454
f 445 457 561
f 446 562 457
f 447 563 562
f 447 564 563
f 447 565 564
f 448 566 565
f 438 567 568
f 450 568 569
f 450 569 570
f 451 570 571
f 451 571 572
f 448 528 566
f 448 483 528
f 402 461 435
f 432 458 469
f 433 470 458
f 431 459 472
f 434 473 459
f 434 471 473
f 404 463 461
f 409 464 462
f 412 462 463
f 415 465 464
f 418 466 465
f 422 467 466
f 425 468 467
f 428 469 468
f 434 480 471
f 434 460 480
f 436 478 470
f 436 472 478
f 460 449 481
f 449 482 481
f 461 474 435
f 458 477 469
f 458 470 477
f 459 479 472
f 459 473 479
f 471 479 473
f 463 462 474
f 461 463 474
f 462 464 475
f 464 465 475
f 465 466 475
f 466 467 476
f 467 468 476
f 468 469 476
f 462 475 474
f 466 476 475
f 469 477 476
f 478 479 470
f 470 479 477
f 472 479 478
f 480 481 471
f 471 481 479
f 460 481 480
f 449 572 482
f 148 519 483
f 151 484 485
f 153 485 486
f 153 486 487
f 154 487 488
f 155 488 489
f 155 489 490
f 157 490 492
f 156 491 493
f 156 492 491
f 158 493 494
f 159 494 495
f 159 495 496
f 160 496 497
f 161 497 498
f 161 498 499
f 162 499 500
f 163 500 501
f 164 501 503
f 164 503 502
f 165 502 504
f 166 504 505
f 167 505 506
f 167 506 507
f 168 507 508
f 169 508 509
f 169 509 510
f 170 510 511
f 171 511 512
f 150 152 544
f 171 518 186
f 171 512 518
f 186 518 187
f 187 518 513
f 513 516 188
f 173 516 517
f 175 515 514
f 174 517 515
f 177 520 519
f 178 521 520
f 179 522 521
f 182 523 522
f 182 524 523
f 176 514 526
f 183 526 525
f 185 527 524
f 185 525 527
f 150 544 484
f 484 535 485
f 485 535 486
f 486 535 487
f 487 536 488
f 488 536 489
f 489 536 490
f 490 537 492
f 491 537 493
f 491 492 537
f 493 537 494
f 494 538 495
f 495 538 496
f 496 538 497
f 497 539 498
f 498 539 499
f 499 539 500
f 500 540 501
f 502 540 504
f 501 540 503
f 502 503 540
f 504 541 505
f 505 541 506
f 506 541 507
f 507 542 508
f 508 542 509
f 509 542 510
f 510 543 511
f 511 543 512
f 513 518 516
f 483 519 528
f 519 520 636
f 520 521 529
f 522 523 641
f 521 522 639
f 523 524 643
f 525 526 649
f 524 527 645
f 527 525 647
f 514 530 526
f 515 531 514
f 517 532 515
f 516 533 517
f 518 534 516
f 519 634 528
f 519 635 634
f 519 636 635
f 520 529 636
f 521 637 529
f 521 638 637
f 521 639 638
f 522 640 639
f 522 641 640
f 523 642 641
f 523 643 642
f 524 644 643
f 526 530 649
f 524 645 644
f 527 646 645
f 527 647 646
f 525 648 647
f 525 649 648
f 514 650 530
f 514 531 650
f 515 651 531
f 515 532 651
f 517 652 532
f 517 533 652
f 516 653 533
f 516 534 653
f 518 654 534
f 512 543 518
f 487 535 536
f 490 536 537
f 494 537 538
f 497 538 539
f 500 539 540
f 504 540 541
f 507 541 542
f 510 542 543
f 484 544 535
f 518 549 654
f 518 543 549
f 535 545 536
f 536 545 537
f 537 546 538
f 538 547 539
f 539 547 540
f 540 549 541
f 541 549 542
f 542 549 543
f 535 544 545
f 537 545 546
f 538 546 547
f 540 547 548
f 540 548 549
f 654 549 703
f 452 551 602
f 550 552 603
f 452 602 552
f 453 559 606
f 453 606 558
f 454 608 559
f 455 560 607
f 455 607 551
f 456 605 560
f 456 558 605
f 454 561 608
f 457 609 561
f 457 562 609
f 562 563 609
f 563 564 610
f 564 565 610
f 565 566 613
f 554 553 611
f 555 556 612
f 555 612 567
f 556 554 611
f 553 557 604
f 557 550 604
f 568 567 614
f 568 614 569
f 570 569 615
f 570 615 571
f 571 616 572
f 528 613 566
f 550 603 604
f 552 602 603
f 559 608 606
f 558 606 605
f 551 607 602
f 560 605 607
f 561 609 608
f 563 610 609
f 565 613 610
f 553 604 611
f 556 611 612
f 567 612 614
f 569 614 615
f 571 615 616
f 528 656 613
f 259 604 603
f 260 603 602
f 264 606 608
f 262 602 607
f 262 607 605
f 264 605 606
f 266 608 609
f 267 609 610
f 610 613 270
f 269 611 604
f 257 614 612
f 268 612 611
f 616 293 294
f 256 615 614
f 258 616 615
f 270 613 655
f 616 294 271
f 616 271 574
f 272 575 573
f 271 573 574
f 273 576 575
f 273 577 576
f 274 578 577
f 275 579 578
f 275 580 579
f 276 581 580
f 277 583 581
f 278 584 582
f 278 582 583
f 279 585 584
f 280 586 585
f 280 587 586
f 281 588 587
f 282 589 588
f 282 590 589
f 283 591 590
f 284 592 591
f 286 595 594
f 285 594 593
f 285 593 592
f 287 596 595
f 288 597 596
f 288 598 597
f 289 599 598
f 290 600 599
f 290 601 600
f 601 292 626
f 616 574 617
f 573 575 617
f 573 617 574
f 575 576 618
f 576 577 618
f 577 578 618
f 578 579 619
f 579 580 619
f 580 581 619
f 581 583 620
f 582 584 620
f 582 620 583
f 584 585 620
f 585 586 621
f 586 587 621
f 587 588 621
f 588 589 622
f 589 590 622
f 590 591 622
f 591 592 623
f 594 595 623
f 593 594 623
f 592 593 623
f 595 596 624
f 596 597 624
f 597 598 624
f 598 599 625
f 599 600 625
f 600 601 625
f 613 656 655
f 482 572 627
f 482 627 481
f 572 616 627
f 616 617 627
f 575 618 617
f 578 619 618
f 581 620 619
f 585 621 620
f 588 622 621
f 591 623 622
f 595 624 623
f 598 625 624
f 601 626 625
f 617 618 627
f 618 619 627
f 619 620 627
f 620 621 628
f 621 622 628
f 622 623 628
f 623 624 629
f 624 625 629
f 625 626 630
f 620 628 627
f 623 629 628
f 625 631 629
f 625 630 631
f 626 632 630
f 528 634 633
f 528 633 656
f 633 688 656
f 634 635 688
f 635 636 689
f 529 689 636
f 529 637 689
f 637 638 690
f 638 639 691
f 639 640 691
f 640 641 692
f 641 642 692
f 642 643 693
f 643 644 693
f 644 645 694
f 645 646 694
f 646 647 695
f 647 648 695
f 648 649 696
f 530 696 649
f 530 650 696
f 531 697 650
f 531 651 697
f 532 698 651
f 532 652 698
f 533 699 652
f 533 653 699
f 534 700 653
f 534 654 700
f 633 634 688
f 635 689 688
f 637 690 689
f 638 691 690
f 640 692 691
f 642 693 692
f 644 694 693
f 646 695 694
f 648 696 695
f 650 697 696
f 651 698 697
f 652 699 698
f 653 700 699
f 654 701 700
f 655 656 688
f 655 688 362
f 373 700 658
f 363 688 689
f 363 689 690
f 365 690 691
f 365 691 692
f 367 692 693
f 368 693 694
f 369 694 695
f 369 695 696
f 370 696 697
f 375 697 698
f 374 698 699
f 372 699 700
f 658 701 657
f 657 701 399
f 399 701 400
f 400 701 377
f 378 659 661
f 377 660 659
f 379 661 662
f 379 662 663
f 380 663 664
f 381 664 665
f 381 665 666
f 382 666 667
f 383 667 670
f 384 668 671
f 385 669 668
f 385 670 669
f 386 671 672
f 386 672 673
f 387 673 674
f 388 674 676
f 389 675 680
f 388 676 675
f 390 677 678
f 391 679 685
f 391 678 679
f 392 680 681
f 394 683 677
f 393 682 683
f 393 681 682
f 395 685 684
f 396 684 686
f 396 686 687
f 701 660 377
f 687 702 398
f 658 700 701
f 659 704 661
f 659 660 704
f 661 705 662
f 662 705 663
f 663 705 664
f 664 706 665
f 665 706 666
f 666 706 667
f 668 707 671
f 667 707 670
f 668 669 707
f 669 670 707
f 671 708 672
f 672 708 673
f 673 708 674
f 674 709 676
f 675 709 680
f 675 676 709
f 677 710 678
f 685 679 710
f 678 710 679
f 680 711 681
f 677 683 711
f 682 711 683
f 681 711 682
f 685 712 684
f 684 712 686
f 686 712 687
f 654 703 701
f 703 549 713
f 701 704 660
f 687 712 702
f 661 704 705
f 664 705 706
f 667 706 707
f 671 707 708
f 674 708 709
f 677 711 710
f 680 709 711
f 685 710 712
f 701 703 713
f 701 713 704
f 712 719 702
f 704 714 705
f 705 715 706
f 706 715 707
f 707 716 708
f 708 717 709
f 709 718 711
f 710 719 712
f 711 719 710
f 704 713 714
f 705 714 715
f 707 715 716
f 708 716 717
f 709 717 718
f 711 718 719
f 2 1 107
f 3 2 145
f 3 145 4
f 4 145 5
f 5 145 6
f 7 6 145
f 7 145 8
f 1 75 152
f 8 298 42
f 42 298 44
f 75 435 152
f 2 107 109
f 2 109 108
f 2 108 110
f 2 110 111
f 2 111 145
f 1 152 107
f 145 296 8
f 44 298 196
f 196 298 198
f 198 298 199
f 200 298 201
f 200 199 298
f 202 201 298
f 203 202 298
f 203 303 292
f 296 298 8
f 203 298 299
f 203 299 300
f 203 300 301
f 203 301 302
f 203 302 303
f 336 292 303
f 398 292 336
f 702 292 398
f 435 474 544
f 475 476 549
f 474 475 549
f 477 549 476
f 477 479 549
f 479 481 549
f 481 627 549
f 152 435 544
f 545 544 474
f 474 546 545
f 474 547 546
f 474 548 547
f 474 549 548
f 292 702 626
f 626 702 632
f 627 628 713
f 628 629 713
f 629 631 719
f 630 632 719
f 630 719 631
f 549 627 713
f 702 719 632
f 629 714 713
f 629 715 714
f 629 716 715
f 629 717 716
f 629 718 717
f 629 719 718

