# https://github.com/mikedh/trimesh
v -0.07465839 0.01536264 -0.01349922 1.69411764 2.77647060 0.21176472
v -0.07465839 0.01536264 -0.01676364 1.69411764 2.77647060 0.21176472
v -0.07465839 0.01535892 0.00795330 1.69411764 2.77647060 0.21176472
v -0.01366569 0.01523169 -0.01024803 1.69411764 2.77647060 0.21176472
v -0.07465839 0.01532523 -0.01716012 1.69411764 2.77647060 0.21176472
v -0.01366569 0.01523169 -0.01676364 1.69411764 2.77647060 0.21176472
v -0.01366569 0.01522047 -0.01692486 1.69411764 2.77647060 0.21176472
v -0.01366569 0.01520925 -0.01704909 1.69411764 2.77647060 0.21176472
v -0.07465839 -0.02286516 0.00795330 1.69411764 2.77647060 0.21176472
v -0.01597023 0.01523169 0.00795330 1.69411764 2.77647060 0.21176472
v -0.01563588 0.01520550 0.00795330 1.69411764 2.77647060 0.21176472
v -0.01560006 0.01520175 0.00795330 1.69411764 2.77647060 0.21176472
v -0.01527171 0.01512318 0.00795330 1.69411764 2.77647060 0.21176472
v -0.01524186 0.01511568 0.00795330 1.69411764 2.77647060 0.21176472
v -0.01492542 0.01498098 0.00795330 1.69411764 2.77647060 0.21176472
v -0.01490154 0.01496976 0.00795330 1.69411764 2.77647060 0.21176472
v -0.01459110 0.01477143 0.00795330 1.69411764 2.77647060 0.21176472
v -0.01432839 0.01453569 0.00795330 1.69411764 2.77647060 0.21176472
v -0.01366569 0.01520550 -0.00990441 1.69411764 2.77647060 0.21176472
v -0.07465839 0.01522047 -0.01754337 1.69411764 2.77647060 0.21176472
v -0.01366569 0.01519800 -0.01716012 1.69411764 2.77647060 0.21176472
v -0.01366569 0.01519053 -0.01719447 1.69411764 2.77647060 0.21176472
v -0.01366569 0.01511943 -0.01745880 1.69411764 2.77647060 0.21176472
v -0.01743294 -0.02286516 0.00795330 1.69411764 2.77647060 0.21176472
v -0.07465839 -0.02286516 -0.01672926 1.69411764 2.77647060 0.21176472
v -0.01408959 0.01424754 0.00795330 1.69411764 2.77647060 0.21176472
v -0.01398807 0.01409040 0.00795330 1.69411764 2.77647060 0.21176472
v -0.01389852 0.01392201 0.00795330 1.69411764 2.77647060 0.21176472
v -0.01382688 0.01375362 0.00795330 1.69411764 2.77647060 0.21176472
v -0.01376718 0.01357773 0.00795330 1.69411764 2.77647060 0.21176472
v -0.01372539 0.01339812 0.00795330 1.69411764 2.77647060 0.21176472
v -0.01369554 0.01321476 0.00795330 1.69411764 2.77647060 0.21176472
v -0.01368360 0.01303143 0.00795330 1.69411764 2.77647060 0.21176472
v -0.01366569 0.01520175 -0.00988062 1.69411764 2.77647060 0.21176472
v -0.07465839 0.01504458 -0.01790550 1.69411764 2.77647060 0.21176472
v -0.01366569 0.01510446 -0.01750902 1.69411764 2.77647060 0.21176472
v -0.01366569 0.01509324 -0.01754337 1.69411764 2.77647060 0.21176472
v -0.01366569 0.01507827 -0.01757775 1.69411764 2.77647060 0.21176472
v -0.01366569 0.01499595 -0.01775748 1.69411764 2.77647060 0.21176472
v -0.01366569 0.01494357 -0.01787115 1.69411764 2.77647060 0.21176472
v -0.01366569 -0.02286516 -0.01171239 1.69411764 2.77647060 0.21176472
v -0.01704489 -0.02283147 0.00795330 1.69411764 2.77647060 0.21176472
v -0.07465839 -0.02282775 -0.01716012 1.69411764 2.77647060 0.21176472
v -0.05643699 -0.02286516 -0.01676364 1.69411764 2.77647060 0.21176472
v -0.01368360 0.01281813 0.00795330 1.69411764 2.77647060 0.21176472
v -0.01366569 0.01303143 -0.00796428 1.69411764 2.77647060 0.21176472
v -0.01366569 0.01321476 -0.00797751 1.69411764 2.77647060 0.21176472
v -0.01366569 0.01339812 -0.00800658 1.69411764 2.77647060 0.21176472
v -0.01366569 0.01357773 -0.00805152 1.69411764 2.77647060 0.21176472
v -0.01366569 0.01375362 -0.00810966 1.69411764 2.77647060 0.21176472
v -0.01366569 0.01392201 -0.00818103 1.69411764 2.77647060 0.21176472
v -0.01366569 0.01408665 -0.00826824 1.69411764 2.77647060 0.21176472
v -0.01366569 0.01425129 -0.00837135 1.69411764 2.77647060 0.21176472
v -0.01366569 0.01452819 -0.00859602 1.69411764 2.77647060 0.21176472
v -0.01366569 0.01477143 -0.00887355 1.69411764 2.77647060 0.21176472
v -0.01366569 0.01478640 -0.00889206 1.69411764 2.77647060 0.21176472
v -0.01366569 0.01496976 -0.00918282 1.69411764 2.77647060 0.21176472
v -0.01366569 0.01497723 -0.00919866 1.69411764 2.77647060 0.21176472
v -0.01366569 0.01511568 -0.00952380 1.69411764 2.77647060 0.21176472
v -0.07465839 0.01490988 -0.01809318 1.69411764 2.77647060 0.21176472
v -0.01366569 0.01492485 -0.01790550 1.69411764 2.77647060 0.21176472
v -0.01366569 0.01490613 -0.01793457 1.69411764 2.77647060 0.21176472
v -0.01366569 0.01486497 -0.01799538 1.69411764 2.77647060 0.21176472
v -0.01366569 0.01469658 -0.01823328 1.69411764 2.77647060 0.21176472
v -0.01366569 -0.02286516 -0.01676364 1.69411764 2.77647060 0.21176472
v -0.01366569 -0.02283522 -0.01136349 1.69411764 2.77647060 0.21176472
v -0.01631649 -0.02257329 0.00795330 1.69411764 2.77647060 0.21176472
v -0.01666875 -0.02273418 0.00795330 1.69411764 2.77647060 0.21176472
v -0.03763050 -0.02283897 -0.01705968 1.69411764 2.77647060 0.21176472
v -0.05643699 -0.02284272 -0.01701210 1.69411764 2.77647060 0.21176472
v -0.07465839 -0.02272671 -0.01753809 1.69411764 2.77647060 0.21176472
v -0.05643699 -0.02281650 -0.01720770 1.69411764 2.77647060 0.21176472
v -0.01366569 -0.02282025 -0.01719447 1.69411764 2.77647060 0.21176472
v -0.01366569 -0.02282775 -0.01716012 1.69411764 2.77647060 0.21176472
v -0.01502094 -0.01783224 0.00795330 1.69411764 2.77647060 0.21176472
v -0.01366569 -0.02161908 -0.00967710 1.69411764 2.77647060 0.21176472
v -0.01366569 -0.02145069 -0.00960045 1.69411764 2.77647060 0.21176472
v -0.01366569 -0.02143200 -0.00959253 1.69411764 2.77647060 0.21176472
v -0.01366569 -0.02124864 -0.00952644 1.69411764 2.77647060 0.21176472
v -0.01366569 -0.02108025 -0.00948150 1.69411764 2.77647060 0.21176472
v -0.01366569 -0.02088942 -0.00944715 1.69411764 2.77647060 0.21176472
v -0.01366569 -0.02087070 -0.00944451 1.69411764 2.77647060 0.21176472
v -0.01366569 -0.02069484 -0.00942864 1.69411764 2.77647060 0.21176472
v -0.01366569 -0.01895856 -0.00935199 1.69411764 2.77647060 0.21176472
v -0.01366569 0.01282935 -0.00796428 1.69411764 2.77647060 0.21176472
v -0.07465839 0.01480884 -0.01823328 1.69411764 2.77647060 0.21176472
v -0.01366569 0.01462176 -0.01830993 1.69411764 2.77647060 0.21176472
v -0.01366569 -0.02283897 -0.01705173 1.69411764 2.77647060 0.21176472
v -0.01366569 -0.02283147 -0.01132647 1.69411764 2.77647060 0.21176472
v -0.01627470 -0.02254710 0.00795330 1.69411764 2.77647060 0.21176472
v -0.07465839 -0.02272296 -0.01755132 1.69411764 2.77647060 0.21176472
v -0.05643699 -0.02272671 -0.01754337 1.69411764 2.77647060 0.21176472
v -0.03763050 -0.02275290 -0.01744824 1.69411764 2.77647060 0.21176472
v -0.01366569 -0.02272671 -0.01754337 1.69411764 2.77647060 0.21176472
v -0.01514631 -0.02069109 0.00795330 1.69411764 2.77647060 0.21176472
v -0.01366569 -0.02177625 -0.00976698 1.69411764 2.77647060 0.21176472
v -0.07465839 0.01451697 -0.01851345 1.69411764 2.77647060 0.21176472
v -0.01366569 0.01453194 -0.01839978 1.69411764 2.77647060 0.21176472
v -0.01366569 0.01441593 -0.01851345 1.69411764 2.77647060 0.21176472
v -0.01366569 -0.02273418 -0.01095114 1.69411764 2.77647060 0.21176472
v -0.01539111 -0.02160786 0.00795330 1.69411764 2.77647060 0.21176472
v -0.01547469 -0.02176128 0.00795330 1.69411764 2.77647060 0.21176472
v -0.01559409 -0.02193714 0.00795330 1.69411764 2.77647060 0.21176472
v -0.01571349 -0.02209056 0.00795330 1.69411764 2.77647060 0.21176472
v -0.01599411 -0.02235624 0.00795330 1.69411764 2.77647060 0.21176472
v -0.07465839 -0.02255457 -0.01790814 1.69411764 2.77647060 0.21176472
v -0.05643699 -0.02262192 -0.01777071 1.69411764 2.77647060 0.21176472
v -0.01366569 -0.02271174 -0.01757775 1.69411764 2.77647060 0.21176472
v -0.01516422 -0.02088567 0.00795330 1.69411764 2.77647060 0.21176472
v -0.01366569 -0.02209056 -0.00999693 1.69411764 2.77647060 0.21176472
v -0.01366569 -0.02193714 -0.00987534 1.69411764 2.77647060 0.21176472
v -0.07465839 0.01418019 -0.01874340 1.69411764 2.77647060 0.21176472
v -0.01366569 0.01409040 -0.01874340 1.69411764 2.77647060 0.21176472
v -0.01366569 -0.02258826 -0.01062603 1.69411764 2.77647060 0.21176472
v -0.01520007 -0.02107650 0.00795330 1.69411764 2.77647060 0.21176472
v -0.01524783 -0.02124864 0.00795330 1.69411764 2.77647060 0.21176472
v -0.01531350 -0.02143200 0.00795330 1.69411764 2.77647060 0.21176472
v -0.01531947 -0.02144697 0.00795330 1.69411764 2.77647060 0.21176472
v -0.07465839 -0.02232633 -0.01823328 1.69411764 2.77647060 0.21176472
v -0.05643699 -0.02233005 -0.01823328 1.69411764 2.77647060 0.21176472
v -0.05643699 -0.02255832 -0.01790550 1.69411764 2.77647060 0.21176472
v -0.01881807 -0.02262192 -0.01777071 1.69411764 2.77647060 0.21176472
v -0.01366569 -0.02257329 -0.01787379 1.69411764 2.77647060 0.21176472
v -0.01366569 -0.02257329 -0.01059696 1.69411764 2.77647060 0.21176472
v -0.01366569 -0.02235624 -0.01027713 1.69411764 2.77647060 0.21176472
v -0.01366569 -0.02233755 -0.01025598 1.69411764 2.77647060 0.21176472
v -0.07465839 0.01380975 -0.01890993 1.69411764 2.77647060 0.21176472
v -0.01366569 0.01394445 -0.01881213 1.69411764 2.77647060 0.21176472
v -0.01366569 0.01382844 -0.01886499 1.69411764 2.77647060 0.21176472
v -0.07465839 -0.02204568 -0.01851609 1.69411764 2.77647060 0.21176472
v -0.05643699 -0.02208309 -0.01847910 1.69411764 2.77647060 0.21176472
v -0.01366569 -0.02233005 -0.01823328 1.69411764 2.77647060 0.21176472
v -0.01366569 -0.02246478 -0.01804032 1.69411764 2.77647060 0.21176472
v -0.01366569 -0.02255832 -0.01790550 1.69411764 2.77647060 0.21176472
v -0.07465839 0.01376484 -0.01892316 1.69411764 2.77647060 0.21176472
v -0.01366569 0.01372743 -0.01890993 1.69411764 2.77647060 0.21176472
v -0.01366569 0.01369374 -0.01892052 1.69411764 2.77647060 0.21176472
v -0.01881807 -0.02208309 -0.01847910 1.69411764 2.77647060 0.21176472
v -0.07465839 -0.02172759 -0.01873812 1.69411764 2.77647060 0.21176472
v -0.05643699 -0.02192592 -0.01860069 1.69411764 2.77647060 0.21176472
v -0.01366569 -0.02195961 -0.01857690 1.69411764 2.77647060 0.21176472
v -0.01366569 -0.02204568 -0.01851345 1.69411764 2.77647060 0.21176472
v -0.01366569 -0.02216166 -0.01839978 1.69411764 2.77647060 0.21176472
v -0.07465839 0.01341309 -0.01901301 1.69411764 2.77647060 0.21176472
v -0.01366569 0.01337943 -0.01900509 1.69411764 2.77647060 0.21176472
v -0.07465839 -0.02171265 -0.01874607 1.69411764 2.77647060 0.21176472
v -0.05643699 -0.02172012 -0.01874340 1.69411764 2.77647060 0.21176472
v -0.01366569 -0.02191470 -0.01860861 1.69411764 2.77647060 0.21176472
v -0.07465839 0.01301271 -0.01905003 1.69411764 2.77647060 0.21176472
v -0.01366569 0.01334574 -0.01901301 1.69411764 2.77647060 0.21176472
v -0.01366569 0.01330833 -0.01901832 1.69411764 2.77647060 0.21176472
v -0.07465839 -0.02135715 -0.01891257 1.69411764 2.77647060 0.21176472
v -0.05643699 -0.02167521 -0.01876455 1.69411764 2.77647060 0.21176472
v -0.01366569 -0.02172012 -0.01874340 1.69411764 2.77647060 0.21176472
v -0.03696183 0.01294536 -0.01905003 1.69411764 2.77647060 0.21176472
v -0.07465839 -0.02044413 -0.01905003 1.69411764 2.77647060 0.21176472
v -0.01366569 0.01303515 -0.01904211 1.69411764 2.77647060 0.21176472
v -0.01881807 -0.02158542 -0.01880685 1.69411764 2.77647060 0.21176472
v -0.03763050 -0.02163030 -0.01878570 1.69411764 2.77647060 0.21176472
v -0.07465839 -0.02097174 -0.01901301 1.69411764 2.77647060 0.21176472
v -0.05643699 -0.02097546 -0.01901301 1.69411764 2.77647060 0.21176472
v -0.03763050 -0.02106903 -0.01898925 1.69411764 2.77647060 0.21176472
v -0.01366569 -0.02100915 -0.01900509 1.69411764 2.77647060 0.21176472
v -0.01366569 -0.02125611 -0.01893900 1.69411764 2.77647060 0.21176472
v -0.01366569 -0.02132349 -0.01892052 1.69411764 2.77647060 0.21176472
v -0.01366569 -0.02136090 -0.01890993 1.69411764 2.77647060 0.21176472
v -0.01366569 -0.02139084 -0.01889673 1.69411764 2.77647060 0.21176472
v -0.01366569 -0.02157417 -0.01881213 1.69411764 2.77647060 0.21176472
v -0.03662751 0.00456336 -0.01905003 1.69411764 2.77647060 0.21176472
v -0.01366569 0.01294536 -0.01904739 1.69411764 2.77647060 0.21176472
v -0.07465839 -0.02058630 -0.01904739 1.69411764 2.77647060 0.21176472
v -0.05643699 -0.02057883 -0.01905003 1.69411764 2.77647060 0.21176472
v -0.05643699 -0.02092308 -0.01901832 1.69411764 2.77647060 0.21176472
v -0.01366569 -0.02093805 -0.01901832 1.69411764 2.77647060 0.21176472
v -0.01366569 -0.02097546 -0.01901301 1.69411764 2.77647060 0.21176472
v -0.03763050 -0.02057883 -0.01905003 1.69411764 2.77647060 0.21176472
v -0.01366569 -0.02057883 -0.01904739 1.69411764 2.77647060 0.21176472
v -0.03763050 -0.02087445 -0.01902360 1.69411764 2.77647060 0.21176472
v -0.01366569 -0.02066862 -0.01904211 1.69411764 2.77647060 0.21176472
f 1 2 5
f 1 5 20
f 1 20 35
f 1 35 60
f 1 60 86
f 1 86 97
f 1 97 112
f 1 112 127
f 1 127 135
f 1 135 144
f 1 144 149
f 1 149 156
f 1 156 171
f 1 171 160
f 1 160 152
f 1 152 146
f 1 146 139
f 1 139 130
f 1 130 119
f 1 119 106
f 1 106 91
f 1 91 71
f 1 71 43
f 1 43 25
f 1 25 9
f 1 9 3
f 1 3 4
f 1 4 6
f 1 6 2
f 2 6 7
f 2 7 8
f 2 8 5
f 3 9 24
f 3 24 42
f 3 42 68
f 3 68 67
f 3 67 90
f 3 90 105
f 3 105 104
f 3 104 103
f 3 103 102
f 3 102 101
f 3 101 118
f 3 118 117
f 3 117 116
f 3 116 115
f 3 115 109
f 3 109 95
f 3 95 75
f 3 75 45
f 3 45 33
f 3 33 32
f 3 32 31
f 3 31 30
f 3 30 29
f 3 29 28
f 3 28 27
f 3 27 26
f 3 26 18
f 3 18 17
f 3 17 16
f 3 16 15
f 3 15 14
f 3 14 13
f 3 13 12
f 3 12 11
f 3 11 10
f 3 10 4
f 4 10 11
f 4 11 12
f 4 12 13
f 4 13 14
f 4 14 15
f 4 15 16
f 4 16 17
f 4 17 18
f 4 18 19
f 4 19 34
f 4 34 59
f 4 59 58
f 4 58 57
f 4 57 56
f 4 56 55
f 4 55 54
f 4 54 53
f 4 53 52
f 4 52 51
f 4 51 50
f 4 50 49
f 4 49 48
f 4 48 47
f 4 47 46
f 4 46 85
f 4 85 84
f 4 84 83
f 4 83 82
f 4 82 81
f 4 81 80
f 4 80 79
f 4 79 78
f 4 78 77
f 4 77 76
f 4 76 96
f 4 96 111
f 4 111 110
f 4 110 126
f 4 126 125
f 4 125 124
f 4 124 114
f 4 114 100
f 4 100 89
f 4 89 66
f 4 66 41
f 4 41 65
f 4 65 88
f 4 88 74
f 4 74 73
f 4 73 94
f 4 94 108
f 4 108 123
f 4 123 134
f 4 134 133
f 4 133 132
f 4 132 143
f 4 143 142
f 4 142 141
f 4 141 148
f 4 148 154
f 4 154 168
f 4 168 167
f 4 167 166
f 4 166 165
f 4 165 164
f 4 164 163
f 4 163 175
f 4 175 174
f 4 174 179
f 4 179 177
f 4 177 170
f 4 170 157
f 4 157 151
f 4 151 150
f 4 150 145
f 4 145 137
f 4 137 136
f 4 136 129
f 4 129 128
f 4 128 113
f 4 113 99
f 4 99 98
f 4 98 87
f 4 87 64
f 4 64 63
f 4 63 62
f 4 62 61
f 4 61 40
f 4 40 39
f 4 39 38
f 4 38 37
f 4 37 36
f 4 36 23
f 4 23 22
f 4 22 21
f 4 21 8
f 4 8 7
f 4 7 6
f 5 8 21
f 5 21 22
f 5 22 23
f 5 23 20
f 9 25 44
f 9 44 65
f 9 65 41
f 9 41 24
f 18 26 19
f 19 26 27
f 19 27 28
f 19 28 29
f 19 29 30
f 19 30 31
f 19 31 32
f 19 32 33
f 19 33 34
f 20 23 36
f 20 36 37
f 20 37 38
f 20 38 39
f 20 39 40
f 20 40 35
f 24 41 42
f 25 43 44
f 33 45 85
f 33 85 46
f 33 46 47
f 33 47 48
f 33 48 49
f 33 49 50
f 33 50 51
f 33 51 52
f 33 52 53
f 33 53 54
f 33 54 55
f 33 55 56
f 33 56 57
f 33 57 58
f 33 58 59
f 33 59 34
f 35 40 61
f 35 61 62
f 35 62 63
f 35 63 64
f 35 64 60
f 41 66 67
f 41 67 68
f 41 68 42
f 43 69 70
f 43 70 44
f 43 71 72
f 43 72 73
f 43 73 74
f 43 74 69
f 44 70 69
f 44 69 65
f 45 75 76
f 45 76 77
f 45 77 78
f 45 78 79
f 45 79 80
f 45 80 81
f 45 81 82
f 45 82 83
f 45 83 84
f 45 84 85
f 60 64 86
f 64 87 86
f 65 69 88
f 66 89 90
f 66 90 67
f 69 74 88
f 71 91 92
f 71 92 72
f 72 92 93
f 72 93 73
f 73 93 94
f 75 95 76
f 76 95 96
f 86 87 98
f 86 98 99
f 86 99 97
f 89 100 101
f 89 101 102
f 89 102 103
f 89 103 104
f 89 104 105
f 89 105 90
f 91 106 121
f 91 121 107
f 91 107 108
f 91 108 92
f 92 108 94
f 92 94 93
f 95 109 110
f 95 110 111
f 95 111 96
f 97 99 113
f 97 113 112
f 100 114 115
f 100 115 116
f 100 116 117
f 100 117 118
f 100 118 101
f 106 119 120
f 106 120 121
f 107 121 134
f 107 134 123
f 107 123 122
f 107 122 108
f 108 122 123
f 109 115 124
f 109 124 125
f 109 125 126
f 109 126 110
f 112 113 128
f 112 128 129
f 112 129 127
f 114 124 115
f 119 130 120
f 120 130 131
f 120 131 138
f 120 138 132
f 120 132 133
f 120 133 121
f 121 133 134
f 127 129 136
f 127 136 137
f 127 137 135
f 130 138 131
f 130 139 140
f 130 140 148
f 130 148 141
f 130 141 142
f 130 142 138
f 132 138 143
f 135 137 145
f 135 145 144
f 138 142 143
f 139 146 147
f 139 147 140
f 140 147 148
f 144 145 150
f 144 150 151
f 144 151 149
f 146 152 153
f 146 153 147
f 147 153 159
f 147 159 158
f 147 158 168
f 147 168 154
f 147 154 148
f 149 155 169
f 149 169 176
f 149 176 172
f 149 172 156
f 149 151 157
f 149 157 155
f 152 158 159
f 152 159 153
f 152 160 161
f 152 161 162
f 152 162 163
f 152 163 164
f 152 164 165
f 152 165 166
f 152 166 167
f 152 167 168
f 152 168 158
f 155 157 170
f 155 170 169
f 156 172 171
f 160 171 172
f 160 172 173
f 160 173 174
f 160 174 161
f 161 174 175
f 161 175 163
f 161 163 162
f 169 170 177
f 169 177 176
f 172 176 179
f 172 179 174
f 172 174 178
f 172 178 173
f 173 178 174
f 176 177 179