# https://github.com/mikedh/trimesh
v 0.07465839 0.01536264 -0.00795495 1.30588236 2.67058824 2.88235293
v 0.01597164 0.01523169 -0.00795495 1.30588236 2.67058824 2.88235293
v 0.07465839 -0.02286516 -0.00795495 1.30588236 2.67058824 2.88235293
v 0.07465839 0.01536264 -0.01676388 1.30588236 2.67058824 2.88235293
v -0.01365705 0.01523169 -0.01025085 1.30588236 2.67058824 2.88235293
v 0.01564311 0.01520547 -0.00795495 1.30588236 2.67058824 2.88235293
v -0.01365705 0.01520547 -0.00992829 1.30588236 2.67058824 2.88235293
v -0.01365705 0.01520175 -0.00988269 1.30588236 2.67058824 2.88235293
v -0.01365705 0.01511193 -0.00952536 1.30588236 2.67058824 2.88235293
v -0.01365705 0.01497723 -0.00920064 1.30588236 2.67058824 2.88235293
v -0.01365705 0.01496973 -0.00918651 1.30588236 2.67058824 2.88235293
v -0.01365705 0.01477143 -0.00887481 1.30588236 2.67058824 2.88235293
v -0.01365705 0.01453566 -0.00861093 1.30588236 2.67058824 2.88235293
v -0.01365705 0.01452444 -0.00859896 1.30588236 2.67058824 2.88235293
v -0.01365705 0.01424754 -0.00837306 1.30588236 2.67058824 2.88235293
v -0.01365705 0.01408290 -0.00826989 1.30588236 2.67058824 2.88235293
v -0.01365705 0.01392198 -0.00818409 1.30588236 2.67058824 2.88235293
v -0.01365705 0.01375359 -0.00811134 1.30588236 2.67058824 2.88235293
v -0.01365705 0.01357773 -0.00805377 1.30588236 2.67058824 2.88235293
v -0.01365705 0.01339812 -0.00801033 1.30588236 2.67058824 2.88235293
v -0.01365705 0.01321476 -0.00798102 1.30588236 2.67058824 2.88235293
v -0.01365705 0.01302768 -0.00796581 1.30588236 2.67058824 2.88235293
v 0.07465839 -0.02286516 -0.01671066 1.30588236 2.67058824 2.88235293
v 0.01743276 -0.02286516 -0.00795495 1.30588236 2.67058824 2.88235293
v 0.07465839 0.01532523 -0.01715919 1.30588236 2.67058824 2.88235293
v -0.01365705 0.01520547 -0.01704951 1.30588236 2.67058824 2.88235293
v -0.01365705 0.01523169 -0.01676277 1.30588236 2.67058824 2.88235293
v 0.01560852 0.01520175 -0.00795495 1.30588236 2.67058824 2.88235293
v -0.01365705 0.01284432 -0.00796689 1.30588236 2.67058824 2.88235293
v 0.01572090 -0.02209056 -0.00795495 1.30588236 2.67058824 2.88235293
v 0.01559988 -0.02193714 -0.00795495 1.30588236 2.67058824 2.88235293
v 0.01549611 -0.02179122 -0.00795495 1.30588236 2.67058824 2.88235293
v 0.01539237 -0.02160786 -0.00795495 1.30588236 2.67058824 2.88235293
v 0.01530591 -0.02141703 -0.00795495 1.30588236 2.67058824 2.88235293
v 0.01524540 -0.02124864 -0.00795495 1.30588236 2.67058824 2.88235293
v 0.01520217 -0.02107650 -0.00795495 1.30588236 2.67058824 2.88235293
v 0.01516758 -0.02088567 -0.00795495 1.30588236 2.67058824 2.88235293
v 0.01515030 -0.02069109 -0.00795495 1.30588236 2.67058824 2.88235293
v 0.01368918 0.01282185 -0.00795495 1.30588236 2.67058824 2.88235293
v 0.01368918 0.01303140 -0.00795495 1.30588236 2.67058824 2.88235293
v 0.01369782 0.01321476 -0.00795495 1.30588236 2.67058824 2.88235293
v 0.01373241 0.01339812 -0.00795495 1.30588236 2.67058824 2.88235293
v 0.01377564 0.01357773 -0.00795495 1.30588236 2.67058824 2.88235293
v 0.01382751 0.01375359 -0.00795495 1.30588236 2.67058824 2.88235293
v 0.01390533 0.01392198 -0.00795495 1.30588236 2.67058824 2.88235293
v 0.01399179 0.01408665 -0.00795495 1.30588236 2.67058824 2.88235293
v 0.01408689 0.01424007 -0.00795495 1.30588236 2.67058824 2.88235293
v 0.01432032 0.01452819 -0.00795495 1.30588236 2.67058824 2.88235293
v 0.01459698 0.01477143 -0.00795495 1.30588236 2.67058824 2.88235293
v 0.01461426 0.01478265 -0.00795495 1.30588236 2.67058824 2.88235293
v 0.01492551 0.01498098 -0.00795495 1.30588236 2.67058824 2.88235293
v 0.01524540 0.01511568 -0.00795495 1.30588236 2.67058824 2.88235293
v 0.07465839 -0.02286141 -0.01677039 1.30588236 2.67058824 2.88235293
v 0.05643333 -0.02286516 -0.01676388 1.30588236 2.67058824 2.88235293
v 0.01705233 -0.02283147 -0.00795495 1.30588236 2.67058824 2.88235293
v -0.01365705 -0.02210553 -0.01001736 1.30588236 2.67058824 2.88235293
v -0.01365705 -0.02235624 -0.01027908 1.30588236 2.67058824 2.88235293
v -0.01365705 -0.02257329 -0.01060056 1.30588236 2.67058824 2.88235293
v -0.01365705 -0.02273418 -0.01095351 1.30588236 2.67058824 2.88235293
v -0.01365705 -0.02283147 -0.01132821 1.30588236 2.67058824 2.88235293
v -0.01365705 -0.02283522 -0.01136730 1.30588236 2.67058824 2.88235293
v -0.01365705 -0.02286516 -0.01171485 1.30588236 2.67058824 2.88235293
v 0.07465839 0.01522044 -0.01754583 1.30588236 2.67058824 2.88235293
v -0.01365705 0.01509321 -0.01754475 1.30588236 2.67058824 2.88235293
v -0.01365705 0.01516806 -0.01726671 1.30588236 2.67058824 2.88235293
v -0.01365705 0.01518678 -0.01719504 1.30588236 2.67058824 2.88235293
v -0.01365705 0.01519425 -0.01716027 1.30588236 2.67058824 2.88235293
v -0.01365705 -0.02067237 -0.00943089 1.30588236 2.67058824 2.88235293
v 0.01599756 -0.02235624 -0.00795495 1.30588236 2.67058824 2.88235293
v 0.07465839 -0.02282775 -0.01715811 1.30588236 2.67058824 2.88235293
v 0.03762036 -0.02283897 -0.01706145 1.30588236 2.67058824 2.88235293
v 0.05643333 -0.02284272 -0.01701150 1.30588236 2.67058824 2.88235293
v 0.00000309 -0.02286516 -0.01676388 1.30588236 2.67058824 2.88235293
v 0.01667193 -0.02273418 -0.00795495 1.30588236 2.67058824 2.88235293
v -0.01365705 -0.02107650 -0.00948519 1.30588236 2.67058824 2.88235293
v -0.01365705 -0.02124864 -0.00952971 1.30588236 2.67058824 2.88235293
v -0.01365705 -0.02126733 -0.00953622 1.30588236 2.67058824 2.88235293
v -0.01365705 -0.02143200 -0.00959379 1.30588236 2.67058824 2.88235293
v -0.01365705 -0.02161908 -0.00967851 1.30588236 2.67058824 2.88235293
v -0.01365705 -0.02177250 -0.00976863 1.30588236 2.67058824 2.88235293
v -0.01365705 -0.02193342 -0.00987726 1.30588236 2.67058824 2.88235293
v -0.01365705 -0.02208684 -0.00999888 1.30588236 2.67058824 2.88235293
v -0.01365705 -0.02286516 -0.01676277 1.30588236 2.67058824 2.88235293
v 0.07465839 0.01504458 -0.01790532 1.30588236 2.67058824 2.88235293
v -0.01365705 0.01494354 -0.01787163 1.30588236 2.67058824 2.88235293
v -0.01365705 -0.02086695 -0.00944826 1.30588236 2.67058824 2.88235293
v 0.01628289 -0.02254710 -0.00795495 1.30588236 2.67058824 2.88235293
v 0.07465839 -0.02272296 -0.01755234 1.30588236 2.67058824 2.88235293
v 0.05643333 -0.02282775 -0.01715919 1.30588236 2.67058824 2.88235293
v 0.05643333 -0.02281650 -0.01720698 1.30588236 2.67058824 2.88235293
v 0.05643333 -0.02272671 -0.01754583 1.30588236 2.67058824 2.88235293
v -0.01365705 -0.02283897 -0.01705167 1.30588236 2.67058824 2.88235293
v -0.01365705 -0.02282775 -0.01716027 1.30588236 2.67058824 2.88235293
v 0.00000309 -0.02282775 -0.01716027 1.30588236 2.67058824 2.88235293
v 0.01662006 -0.02271174 -0.00795495 1.30588236 2.67058824 2.88235293
v -0.01365705 -0.02105781 -0.00948084 1.30588236 2.67058824 2.88235293
v 0.07465839 0.01496226 -0.01802370 1.30588236 2.67058824 2.88235293
v -0.01365705 0.01490613 -0.01793571 1.30588236 2.67058824 2.88235293
v -0.01365705 0.01492485 -0.01790532 1.30588236 2.67058824 2.88235293
v 0.01632612 -0.02257329 -0.00795495 1.30588236 2.67058824 2.88235293
v 0.07465839 -0.02255832 -0.01790532 1.30588236 2.67058824 2.88235293
v -0.01365705 -0.02282025 -0.01719504 1.30588236 2.67058824 2.88235293
v 0.03762036 -0.02275290 -0.01744917 1.30588236 2.67058824 2.88235293
v 0.05643333 -0.02262192 -0.01776954 1.30588236 2.67058824 2.88235293
v 0.00000309 -0.02272671 -0.01754583 1.30588236 2.67058824 2.88235293
v 0.07465839 0.01480884 -0.01823220 1.30588236 2.67058824 2.88235293
v -0.01365705 0.01471902 -0.01820181 1.30588236 2.67058824 2.88235293
v -0.01365705 0.01474896 -0.01815945 1.30588236 2.67058824 2.88235293
v 0.05643333 -0.02233005 -0.01823220 1.30588236 2.67058824 2.88235293
v 0.07465839 -0.02232633 -0.01823547 1.30588236 2.67058824 2.88235293
v 0.00000309 -0.02255832 -0.01790532 1.30588236 2.67058824 2.88235293
v -0.01365705 -0.02272671 -0.01754475 1.30588236 2.67058824 2.88235293
v 0.01882470 -0.02262192 -0.01776954 1.30588236 2.67058824 2.88235293
v 0.07465839 0.01465917 -0.01837773 1.30588236 2.67058824 2.88235293
v -0.01365705 0.01441593 -0.01851459 1.30588236 2.67058824 2.88235293
v -0.01365705 0.01444212 -0.01848852 1.30588236 2.67058824 2.88235293
v -0.01365705 0.01469658 -0.01823220 1.30588236 2.67058824 2.88235293
v 0.01882470 -0.02215419 -0.01840815 1.30588236 2.67058824 2.88235293
v 0.05643333 -0.02208309 -0.01847874 1.30588236 2.67058824 2.88235293
v 0.00000309 -0.02233005 -0.01823220 1.30588236 2.67058824 2.88235293
v 0.07465839 -0.02204193 -0.01851675 1.30588236 2.67058824 2.88235293
v -0.01365705 -0.02260323 -0.01780755 1.30588236 2.67058824 2.88235293
v -0.01365705 -0.02255457 -0.01790532 1.30588236 2.67058824 2.88235293
v -0.01365705 -0.02253588 -0.01793463 1.30588236 2.67058824 2.88235293
v -0.01365705 -0.02249472 -0.01799436 1.30588236 2.67058824 2.88235293
v 0.07465839 0.01451697 -0.01851348 1.30588236 2.67058824 2.88235293
v -0.01365705 0.01416147 -0.01869159 1.30588236 2.67058824 2.88235293
v 0.01882470 -0.02208309 -0.01847874 1.30588236 2.67058824 2.88235293
v -0.01365705 -0.02204568 -0.01851459 1.30588236 2.67058824 2.88235293
v 0.00000309 -0.02204568 -0.01851459 1.30588236 2.67058824 2.88235293
v -0.01365705 -0.02234877 -0.01820289 1.30588236 2.67058824 2.88235293
v -0.01365705 -0.02232633 -0.01823220 1.30588236 2.67058824 2.88235293
v -0.01365705 -0.02225148 -0.01830933 1.30588236 2.67058824 2.88235293
v 0.05643333 -0.02192592 -0.01860039 1.30588236 2.67058824 2.88235293
v 0.07465839 -0.02172759 -0.01873722 1.30588236 2.67058824 2.88235293
v 0.07465839 0.01418019 -0.01874265 1.30588236 2.67058824 2.88235293
v -0.01365705 0.01408665 -0.01874265 1.30588236 2.67058824 2.88235293
v -0.01365705 -0.02175006 -0.01872201 1.30588236 2.67058824 2.88235293
v 0.01882470 -0.02192592 -0.01860039 1.30588236 2.67058824 2.88235293
v 0.00000309 -0.02172012 -0.01874373 1.30588236 2.67058824 2.88235293
v 0.07465839 -0.02171265 -0.01874592 1.30588236 2.67058824 2.88235293
v 0.07465839 0.01387335 -0.01888275 1.30588236 2.67058824 2.88235293
v -0.01365705 0.01376109 -0.01889577 1.30588236 2.67058824 2.88235293
v -0.01365705 0.01394070 -0.01881216 1.30588236 2.67058824 2.88235293
v -0.01365705 0.01405296 -0.01875894 1.30588236 2.67058824 2.88235293
v -0.01365705 -0.02172012 -0.01874265 1.30588236 2.67058824 2.88235293
v -0.01365705 -0.02163780 -0.01878174 1.30588236 2.67058824 2.88235293
v 0.00000309 -0.02136090 -0.01891098 1.30588236 2.67058824 2.88235293
v 0.07465839 -0.02136090 -0.01891098 1.30588236 2.67058824 2.88235293
v 0.07465839 0.01380972 -0.01891098 1.30588236 2.67058824 2.88235293
v -0.01365705 0.01372740 -0.01891098 1.30588236 2.67058824 2.88235293
v -0.01365705 -0.02145819 -0.01886538 1.30588236 2.67058824 2.88235293
v -0.01365705 -0.02135715 -0.01891098 1.30588236 2.67058824 2.88235293
v -0.01365705 -0.02132346 -0.01892076 1.30588236 2.67058824 2.88235293
v -0.01365705 -0.02097174 -0.01901526 1.30588236 2.67058824 2.88235293
v 0.05643333 -0.02097546 -0.01901415 1.30588236 2.67058824 2.88235293
v 0.07465839 -0.02098296 -0.01901199 1.30588236 2.67058824 2.88235293
v 0.00000309 -0.02097174 -0.01901526 1.30588236 2.67058824 2.88235293
v 0.07465839 0.01341309 -0.01901415 1.30588236 2.67058824 2.88235293
v -0.01365705 0.01334199 -0.01901526 1.30588236 2.67058824 2.88235293
v -0.01365705 0.01337940 -0.01900548 1.30588236 2.67058824 2.88235293
v -0.01365705 0.01362264 -0.01894032 1.30588236 2.67058824 2.88235293
v -0.01365705 0.01369374 -0.01892076 1.30588236 2.67058824 2.88235293
v -0.01365705 -0.02061249 -0.01904673 1.30588236 2.67058824 2.88235293
v 0.00000309 -0.02057883 -0.01905000 1.30588236 2.67058824 2.88235293
v 0.05643333 -0.02057883 -0.01905000 1.30588236 2.67058824 2.88235293
v 0.07465839 -0.02096799 -0.01901415 1.30588236 2.67058824 2.88235293
v 0.07465839 0.01329708 -0.01902501 1.30588236 2.67058824 2.88235293
v -0.01365705 0.01318110 -0.01902936 1.30588236 2.67058824 2.88235293
v -0.01365705 -0.02057883 -0.01904892 1.30588236 2.67058824 2.88235293
v 0.00000309 0.01294533 -0.01905000 1.30588236 2.67058824 2.88235293
v 0.05659761 -0.01638783 -0.01905000 1.30588236 2.67058824 2.88235293
v 0.07465839 -0.02058630 -0.01904784 1.30588236 2.67058824 2.88235293
v 0.07465839 0.01301271 -0.01904784 1.30588236 2.67058824 2.88235293
v -0.01365705 0.01297902 -0.01904673 1.30588236 2.67058824 2.88235293
v -0.01365705 0.01294533 -0.01904892 1.30588236 2.67058824 2.88235293
v 0.05543043 0.01294533 -0.01905000 1.30588236 2.67058824 2.88235293
v 0.05593188 0.00037239 -0.01905000 1.30588236 2.67058824 2.88235293
f 1 2 6
f 1 6 28
f 1 28 52
f 1 52 51
f 1 51 50
f 1 50 49
f 1 49 48
f 1 48 47
f 1 47 46
f 1 46 45
f 1 45 44
f 1 44 43
f 1 43 42
f 1 42 41
f 1 41 40
f 1 40 39
f 1 39 38
f 1 38 37
f 1 37 36
f 1 36 35
f 1 35 34
f 1 34 33
f 1 33 32
f 1 32 31
f 1 31 30
f 1 30 69
f 1 69 87
f 1 87 100
f 1 100 95
f 1 95 74
f 1 74 55
f 1 55 24
f 1 24 3
f 1 3 23
f 1 23 53
f 1 53 70
f 1 70 88
f 1 88 101
f 1 101 110
f 1 110 121
f 1 121 135
f 1 135 141
f 1 141 149
f 1 149 157
f 1 157 167
f 1 167 173
f 1 173 174
f 1 174 168
f 1 168 159
f 1 159 150
f 1 150 142
f 1 142 136
f 1 136 126
f 1 126 114
f 1 114 106
f 1 106 97
f 1 97 84
f 1 84 63
f 1 63 25
f 1 25 4
f 1 4 27
f 1 27 5
f 1 5 2
f 2 5 7
f 2 7 8
f 2 8 9
f 2 9 10
f 2 10 11
f 2 11 12
f 2 12 13
f 2 13 14
f 2 14 15
f 2 15 16
f 2 16 17
f 2 17 18
f 2 18 19
f 2 19 20
f 2 20 21
f 2 21 22
f 2 22 6
f 3 24 62
f 3 62 83
f 3 83 73
f 3 73 54
f 3 54 23
f 4 25 26
f 4 26 27
f 5 27 26
f 5 26 67
f 5 67 66
f 5 66 65
f 5 65 64
f 5 64 85
f 5 85 99
f 5 99 98
f 5 98 108
f 5 108 107
f 5 107 117
f 5 117 116
f 5 116 115
f 5 115 127
f 5 127 137
f 5 137 145
f 5 145 144
f 5 144 143
f 5 143 151
f 5 151 163
f 5 163 162
f 5 162 161
f 5 161 160
f 5 160 169
f 5 169 175
f 5 175 176
f 5 176 170
f 5 170 164
f 5 164 155
f 5 155 154
f 5 154 153
f 5 153 152
f 5 152 147
f 5 147 146
f 5 146 138
f 5 138 129
f 5 129 133
f 5 133 132
f 5 132 131
f 5 131 125
f 5 125 124
f 5 124 123
f 5 123 122
f 5 122 112
f 5 112 102
f 5 102 93
f 5 93 92
f 5 92 83
f 5 83 62
f 5 62 61
f 5 61 60
f 5 60 59
f 5 59 58
f 5 58 57
f 5 57 56
f 5 56 82
f 5 82 81
f 5 81 80
f 5 80 79
f 5 79 78
f 5 78 77
f 5 77 76
f 5 76 75
f 5 75 96
f 5 96 86
f 5 86 68
f 5 68 29
f 5 29 22
f 5 22 21
f 5 21 20
f 5 20 19
f 5 19 18
f 5 18 17
f 5 17 16
f 5 16 15
f 5 15 14
f 5 14 13
f 5 13 12
f 5 12 11
f 5 11 10
f 5 10 9
f 5 9 8
f 5 8 7
f 6 22 28
f 22 29 30
f 22 30 31
f 22 31 32
f 22 32 33
f 22 33 34
f 22 34 35
f 22 35 36
f 22 36 37
f 22 37 38
f 22 38 39
f 22 39 40
f 22 40 41
f 22 41 42
f 22 42 43
f 22 43 44
f 22 44 45
f 22 45 46
f 22 46 47
f 22 47 48
f 22 48 49
f 22 49 50
f 22 50 51
f 22 51 52
f 22 52 28
f 23 54 53
f 24 55 56
f 24 56 57
f 24 57 58
f 24 58 59
f 24 59 60
f 24 60 61
f 24 61 62
f 25 63 64
f 25 64 65
f 25 65 66
f 25 66 67
f 25 67 26
f 29 68 30
f 30 68 69
f 53 54 70
f 54 71 72
f 54 72 70
f 54 73 71
f 55 74 75
f 55 75 76
f 55 76 77
f 55 77 78
f 55 78 79
f 55 79 80
f 55 80 81
f 55 81 82
f 55 82 56
f 63 84 85
f 63 85 64
f 68 86 87
f 68 87 69
f 70 72 71
f 70 71 89
f 70 89 90
f 70 90 91
f 70 91 88
f 71 73 83
f 71 83 92
f 71 92 93
f 71 93 94
f 71 94 89
f 74 95 86
f 74 86 96
f 74 96 75
f 84 97 98
f 84 98 99
f 84 99 85
f 86 95 100
f 86 100 87
f 88 91 101
f 89 94 102
f 89 102 90
f 90 103 91
f 90 102 103
f 91 104 101
f 91 103 105
f 91 105 113
f 91 113 104
f 93 102 94
f 97 106 107
f 97 107 108
f 97 108 98
f 101 109 110
f 101 104 113
f 101 113 111
f 101 111 120
f 101 120 109
f 102 112 105
f 102 105 103
f 105 112 111
f 105 111 113
f 106 114 115
f 106 115 116
f 106 116 117
f 106 117 107
f 109 118 119
f 109 119 110
f 109 120 118
f 110 119 121
f 111 112 122
f 111 122 123
f 111 123 124
f 111 124 125
f 111 125 120
f 114 126 115
f 115 126 127
f 118 128 119
f 118 120 129
f 118 129 128
f 119 128 129
f 119 129 130
f 119 130 121
f 120 125 131
f 120 131 132
f 120 132 133
f 120 133 129
f 121 134 135
f 121 130 134
f 126 136 137
f 126 137 127
f 129 138 139
f 129 139 134
f 129 134 130
f 134 139 140
f 134 140 135
f 135 140 141
f 136 142 143
f 136 143 144
f 136 144 145
f 136 145 137
f 138 146 140
f 138 140 139
f 140 146 147
f 140 147 152
f 140 152 148
f 140 148 149
f 140 149 141
f 142 150 151
f 142 151 143
f 148 152 153
f 148 153 154
f 148 154 155
f 148 155 158
f 148 158 149
f 149 156 157
f 149 158 156
f 150 159 160
f 150 160 161
f 150 161 162
f 150 162 163
f 150 163 151
f 155 164 165
f 155 165 166
f 155 166 158
f 156 166 167
f 156 167 157
f 156 158 166
f 159 168 160
f 160 168 169
f 164 170 165
f 165 170 176
f 165 176 171
f 165 171 177
f 165 177 178
f 165 178 172
f 165 172 166
f 166 172 173
f 166 173 167
f 168 174 175
f 168 175 169
f 171 176 175
f 171 175 174
f 171 174 177
f 172 174 173
f 172 178 174
f 174 178 177