# https://github.com/mikedh/trimesh
v 0.00515887 -0.01705148 -0.01314955 0.56470588 0.01568627 0.61568627
v 0.00515887 -0.01851249 -0.01314955 0.56470588 0.01568627 0.61568627
v 0.00571620 -0.01712527 -0.01314955 0.56470588 0.01568627 0.61568627
v 0.00735446 -0.01447311 -0.01644766 0.56470588 0.01568627 0.61568627
v 0.00662818 -0.01445925 -0.01644766 0.56470588 0.01568627 0.61568627
v 0.00582517 -0.01445395 -0.01644766 0.56470588 0.01568627 0.61568627
v 0.00515887 -0.01445191 -0.01644766 0.56470588 0.01568627 0.61568627
v 0.00515887 -0.01850638 -0.01318410 0.56470588 0.01568627 0.61568627
v 0.00519111 -0.01853206 -0.01314955 0.56470588 0.01568627 0.61568627
v 0.00735446 -0.01749786 -0.01314955 0.56470588 0.01568627 0.61568627
v 0.00735446 -0.01577106 -0.01644766 0.56470588 0.01568627 0.61568627
v 0.00515887 -0.01576291 -0.01644766 0.56470588 0.01568627 0.61568627
v 0.00515887 -0.01806530 -0.01388820 0.56470588 0.01568627 0.61568627
v 0.00530395 -0.01854307 -0.01314955 0.56470588 0.01568627 0.61568627
v 0.00735446 -0.01861644 -0.01314955 0.56470588 0.01568627 0.61568627
v 0.00735446 -0.01611715 -0.01611643 0.56470588 0.01568627 0.61568627
v 0.00515887 -0.01611267 -0.01611288 0.56470588 0.01568627 0.61568627
v 0.00515887 -0.01799315 -0.01398699 0.56470588 0.01568627 0.61568627
v 0.00735446 -0.01840039 -0.01345140 0.56470588 0.01568627 0.61568627
v 0.00663485 -0.01839754 -0.01344785 0.56470588 0.01568627 0.61568627
v 0.00663485 -0.01861114 -0.01314955 0.56470588 0.01568627 0.61568627
v 0.00641217 -0.01860788 -0.01314955 0.56470588 0.01568627 0.61568627
v 0.00582517 -0.01839794 -0.01343107 0.56470588 0.01568627 0.61568627
v 0.00582517 -0.01858995 -0.01314955 0.56470588 0.01568627 0.61568627
v 0.00547826 -0.01855978 -0.01314955 0.56470588 0.01568627 0.61568627
v 0.00735446 -0.01646529 -0.01575646 0.56470588 0.01568627 0.61568627
v 0.00515887 -0.01650605 -0.01570772 0.56470588 0.01568627 0.61568627
v 0.00515887 -0.01618279 -0.01604088 0.56470588 0.01568627 0.61568627
v 0.00735446 -0.01799560 -0.01399183 0.56470588 0.01568627 0.61568627
v 0.00735446 -0.01835555 -0.01351145 0.56470588 0.01568627 0.61568627
v 0.00515887 -0.01766459 -0.01439215 0.56470588 0.01568627 0.61568627
v 0.00735446 -0.01766866 -0.01439699 0.56470588 0.01568627 0.61568627
v 0.00735446 -0.01650890 -0.01571127 0.56470588 0.01568627 0.61568627
v 0.00735446 -0.01686845 -0.01533290 0.56470588 0.01568627 0.61568627
v 0.00735446 -0.01691370 -0.01528512 0.56470588 0.01568627 0.61568627
v 0.00515887 -0.01691044 -0.01528028 0.56470588 0.01568627 0.61568627
v 0.00515887 -0.01733154 -0.01478957 0.56470588 0.01568627 0.61568627
v 0.00735446 -0.01726387 -0.01487996 0.56470588 0.01568627 0.61568627
v 0.00515887 -0.01725938 -0.01487512 0.56470588 0.01568627 0.61568627
f 1 2 9
f 1 9 14
f 1 14 25
f 1 25 24
f 1 24 22
f 1 22 21
f 1 21 15
f 1 15 10
f 1 10 3
f 1 3 4
f 1 4 5
f 1 5 6
f 1 6 7
f 1 7 12
f 1 12 17
f 1 17 28
f 1 28 27
f 1 27 36
f 1 36 39
f 1 39 37
f 1 37 31
f 1 31 18
f 1 18 13
f 1 13 8
f 1 8 2
f 2 8 9
f 3 10 4
f 4 11 12
f 4 12 7
f 4 7 6
f 4 6 5
f 4 10 15
f 4 15 19
f 4 19 30
f 4 30 29
f 4 29 32
f 4 32 38
f 4 38 35
f 4 35 34
f 4 34 33
f 4 33 26
f 4 26 16
f 4 16 11
f 8 13 9
f 9 13 14
f 11 16 12
f 12 16 17
f 13 18 19
f 13 19 20
f 13 20 21
f 13 21 22
f 13 22 23
f 13 23 24
f 13 24 25
f 13 25 14
f 15 21 19
f 16 26 27
f 16 27 28
f 16 28 17
f 18 29 30
f 18 30 19
f 18 31 32
f 18 32 29
f 19 21 20
f 22 24 23
f 26 33 27
f 27 33 34
f 27 34 35
f 27 35 36
f 31 37 32
f 32 37 38
f 35 38 36
f 36 38 39
f 37 39 38

