# https://github.com/mikedh/trimesh
v 0.01086309 -0.00040215 0.02353234 0.61176471 0.61568627 0.94117647
v 0.01086309 0.00039952 0.02352773 0.61176471 0.61568627 0.94117647
v 0.00735467 0.00039952 0.02279062 0.61176471 0.61568627 0.94117647
v 0.00735467 -0.00049429 0.02279062 0.61176471 0.61568627 0.94117647
v 0.01086309 -0.00053576 0.02352773 0.61176471 0.61568627 0.94117647
v 0.01086309 0.00120579 0.02350009 0.61176471 0.61568627 0.94117647
v 0.00735467 0.00121040 0.02276298 0.61176471 0.61568627 0.94117647
v 0.00735467 -0.00120842 0.02276298 0.61176471 0.61568627 0.94117647
v 0.01086309 -0.00121303 0.02350009 0.61176471 0.61568627 0.94117647
v 0.01086309 0.00201667 0.02344941 0.61176471 0.61568627 0.94117647
v 0.00735467 0.00197981 0.02271230 0.61176471 0.61568627 0.94117647
v 0.00735467 -0.00197323 0.02271230 0.61176471 0.61568627 0.94117647
v 0.01086309 -0.00143418 0.02349088 0.61176471 0.61568627 0.94117647
v 0.01086309 0.00229771 0.02342177 0.61176471 0.61568627 0.94117647
v 0.01086309 0.00270315 0.02337570 0.61176471 0.61568627 0.94117647
v 0.01086309 0.00444931 0.02310850 0.61176471 0.61568627 0.94117647
v 0.00735467 0.00233918 0.02265701 0.61176471 0.61568627 0.94117647
v 0.01086309 -0.00202391 0.02344941 0.61176471 0.61568627 0.94117647
v 0.00735467 -0.00526282 0.02217789 0.61176471 0.61568627 0.94117647
v 0.01086309 -0.00445194 0.02310850 0.61176471 0.61568627 0.94117647
v 0.01086309 -0.00281175 0.02336649 0.61176471 0.61568627 0.94117647
v 0.01086309 0.00462900 0.02308086 0.61176471 0.61568627 0.94117647
v 0.00735467 0.00516805 0.02220092 0.61176471 0.61568627 0.94117647
v 0.00735467 -0.00605988 0.02197058 0.61176471 0.61568627 0.94117647
v 0.01086309 -0.00527204 0.02295186 0.61176471 0.61568627 0.94117647
v 0.01086309 0.00527401 0.02296108 0.61176471 0.61568627 0.94117647
v 0.00735467 0.00526019 0.02218250 0.61176471 0.61568627 0.94117647
v 0.01086309 -0.00607371 0.02273994 0.61176471 0.61568627 0.94117647
v 0.00735467 -0.00646072 0.02184619 0.61176471 0.61568627 0.94117647
v 0.01086309 -0.00684312 0.02252341 0.61176471 0.61568627 0.94117647
v 0.01086309 0.00546752 0.02291040 0.61176471 0.61568627 0.94117647
v 0.00735467 0.00613097 0.02195676 0.61176471 0.61568627 0.94117647
v 0.00735467 -0.00776918 0.02140392 0.61176471 0.61568627 0.94117647
v 0.01086309 -0.00773232 0.02222857 0.61176471 0.61568627 0.94117647
v 0.01086309 0.00606647 0.02274455 0.61176471 0.61568627 0.94117647
v 0.01086309 0.00690960 0.02249577 0.61176471 0.61568627 0.94117647
v 0.01086309 0.00772969 0.02223778 0.61176471 0.61568627 0.94117647
v 0.00735467 0.00646730 0.02185080 0.61176471 0.61568627 0.94117647
v 0.00735467 -0.00840959 0.02118279 0.61176471 0.61568627 0.94117647
v 0.01086309 -0.00841881 0.02197979 0.61176471 0.61568627 0.94117647
v 0.01086309 0.00792781 0.02217328 0.61176471 0.61568627 0.94117647
v 0.00735467 0.00842078 0.02118739 0.61176471 0.61568627 0.94117647
v 0.01086309 -0.00850174 0.02194754 0.61176471 0.61568627 0.94117647
v 0.00735467 -0.01009125 0.02043646 0.61176471 0.61568627 0.94117647
v 0.01086309 -0.00924812 0.02165270 0.61176471 0.61568627 0.94117647
v 0.01086309 0.00848068 0.02196136 0.61176471 0.61568627 0.94117647
v 0.01086309 0.00937449 0.02160202 0.61176471 0.61568627 0.94117647
v 0.00735467 0.01010244 0.02043646 0.61176471 0.61568627 0.94117647
v 0.00735467 -0.01162087 0.01960720 0.61176471 0.61568627 0.94117647
v 0.01086309 -0.01089292 0.02087412 0.61176471 0.61568627 0.94117647
v 0.01086309 -0.01009125 0.02127493 0.61176471 0.61568627 0.94117647
v 0.01086309 0.01008862 0.02127953 0.61176471 0.61568627 0.94117647
v 0.01086309 0.01022684 0.02121504 0.61176471 0.61568627 0.94117647
v 0.01086309 0.01096400 0.02084187 0.61176471 0.61568627 0.94117647
v 0.00735467 0.01046181 0.02024296 0.61176471 0.61568627 0.94117647
v 0.00735467 -0.01304451 0.01869042 0.61176471 0.61568627 0.94117647
v 0.01086309 -0.01252389 0.01993890 0.61176471 0.61568627 0.94117647
v 0.01086309 -0.01169919 0.02043185 0.61176471 0.61568627 0.94117647
v 0.01086309 0.01169656 0.02044106 0.61176471 0.61568627 0.94117647
v 0.00735467 0.01162745 0.01961181 0.61176471 0.61568627 0.94117647
v 0.00735467 -0.01309059 0.01865817 0.61176471 0.61568627 0.94117647
v 0.01086309 -0.01336702 0.01937685 0.61176471 0.61568627 0.94117647
v 0.01086309 0.01180252 0.02038117 0.61176471 0.61568627 0.94117647
v 0.01086309 0.01270094 0.01983755 0.61176471 0.61568627 0.94117647
v 0.00735467 0.01305570 0.01869502 0.61176471 0.61568627 0.94117647
v 0.00735467 -0.01345456 0.01839557 0.61176471 0.61568627 0.94117647
v 0.01086309 -0.01407194 0.01887930 0.61176471 0.61568627 0.94117647
v 0.01086309 0.01363622 0.01919718 0.61176471 0.61568627 0.94117647
v 0.01086309 0.01407391 0.01888391 0.61176471 0.61568627 0.94117647
v 0.00735467 0.01346114 0.01840018 0.61176471 0.61568627 0.94117647
v 0.00735467 -0.01399361 0.01798555 0.61176471 0.61568627 0.94117647
v 0.01086309 -0.01437602 0.01864435 0.61176471 0.61568627 0.94117647
v 0.00735467 0.01394030 0.01804083 0.61176471 0.61568627 0.94117647
v 0.01086309 0.01457610 0.01850614 0.61176471 0.61568627 0.94117647
v 0.00735467 -0.01444973 0.01762621 0.61176471 0.61568627 0.94117647
v 0.01086309 -0.01499339 0.01814679 0.61176471 0.61568627 0.94117647
v 0.00735467 0.01435956 0.01771374 0.61176471 0.61568627 0.94117647
v 0.01086309 0.01499997 0.01816062 0.61176471 0.61568627 0.94117647
v 0.00735467 0.01440564 0.01767688 0.61176471 0.61568627 0.94117647
v 0.00735467 -0.01486899 0.01726686 0.61176471 0.61568627 0.94117647
v 0.01086309 -0.01576281 0.01748800 0.61176471 0.61568627 0.94117647
v 0.01086309 0.01511516 0.01806387 0.61176471 0.61568627 0.94117647
v 0.00735467 0.01482490 0.01731754 0.61176471 0.61568627 0.94117647
v 0.00735467 -0.01527904 0.01690291 0.61176471 0.61568627 0.94117647
v 0.01086309 -0.01657829 0.01671863 0.61176471 0.61568627 0.94117647
v 0.00735467 0.01523955 0.01695359 0.61176471 0.61568627 0.94117647
v 0.01086309 0.01588918 0.01738204 0.61176471 0.61568627 0.94117647
v 0.00735467 -0.01611296 0.01611512 0.61176471 0.61568627 0.94117647
v 0.00735467 -0.01655065 0.01565903 0.61176471 0.61568627 0.94117647
v 0.01086309 -0.01737996 0.01588017 0.61176471 0.61568627 0.94117647
v 0.00735467 0.01528562 0.01691213 0.61176471 0.61568627 0.94117647
v 0.00735467 0.01611493 0.01611973 0.61176471 0.61568627 0.94117647
v 0.01086309 0.01672770 0.01658043 0.61176471 0.61568627 0.94117647
v 0.00735467 -0.01691002 0.01528126 0.61176471 0.61568627 0.94117647
v 0.00735467 -0.01695148 0.01523519 0.61176471 0.61568627 0.94117647
v 0.01086309 -0.01805262 0.01510620 0.61176471 0.61568627 0.94117647
v 0.00735467 0.01646509 0.01576039 0.61176471 0.61568627 0.94117647
v 0.01086309 0.01744644 0.01582028 0.61176471 0.61568627 0.94117647
v 0.00735467 0.01691660 0.01529047 0.61176471 0.61568627 0.94117647
v 0.00735467 -0.01726017 0.01487585 0.61176471 0.61568627 0.94117647
v 0.01086309 -0.01814477 0.01499563 0.61176471 0.61568627 0.94117647
v 0.00735467 -0.01766561 0.01439212 0.61176471 0.61568627 0.94117647
v 0.01086309 0.01816057 0.01500024 0.61176471 0.61568627 0.94117647
v 0.00735467 0.01726675 0.01488506 0.61176471 0.61568627 0.94117647
v 0.01086309 -0.01849031 0.01456718 0.61176471 0.61568627 0.94117647
v 0.00735467 -0.01770247 0.01434605 0.61176471 0.61568627 0.94117647
v 0.01086309 0.01865354 0.01438290 0.61176471 0.61568627 0.94117647
v 0.00735467 0.01799931 0.01400052 0.61176471 0.61568627 0.94117647
v 0.00735467 0.01767219 0.01440133 0.61176471 0.61568627 0.94117647
v 0.01086309 -0.01887732 0.01406963 0.61176471 0.61568627 0.94117647
v 0.00735467 -0.01798812 0.01398670 0.61176471 0.61568627 0.94117647
v 0.01086309 0.01888851 0.01407884 0.61176471 0.61568627 0.94117647
v 0.00735467 0.01840475 0.01346151 0.61176471 0.61568627 0.94117647
v 0.01086309 -0.01919062 0.01362736 0.61176471 0.61568627 0.94117647
v 0.00735467 -0.01803419 0.01392681 0.61176471 0.61568627 0.94117647
v 0.00735467 -0.01839817 0.01344769 0.61176471 0.61568627 0.94117647
v 0.01086309 0.01939071 0.01337398 0.61176471 0.61568627 0.94117647
v 0.00735467 0.01866276 0.01309756 0.61176471 0.61568627 0.94117647
v 0.00735467 -0.01872068 0.01298699 0.61176471 0.61568627 0.94117647
v 0.01086309 -0.01928277 0.01349376 0.61176471 0.61568627 0.94117647
v 0.00735467 0.01869501 0.01305149 0.61176471 0.61568627 0.94117647
v 0.01086309 0.01994358 0.01253090 0.61176471 0.61568627 0.94117647
v 0.00735467 -0.01960067 0.01161872 0.61176471 0.61568627 0.94117647
v 0.01086309 -0.01990014 0.01258158 0.61176471 0.61568627 0.94117647
v 0.01086309 -0.01983103 0.01268754 0.61176471 0.61568627 0.94117647
v 0.01086309 -0.01952695 0.01313902 0.61176471 0.61568627 0.94117647
v 0.00735467 0.01957961 0.01167861 0.61176471 0.61568627 0.94117647
v 0.01086309 0.02043656 0.01170165 0.61176471 0.61568627 0.94117647
v 0.00735467 -0.02042998 0.01008921 0.61176471 0.61568627 0.94117647
v 0.01086309 -0.02078935 0.01104285 0.61176471 0.61568627 0.94117647
v 0.01086309 -0.02042998 0.01169704 0.61176471 0.61568627 0.94117647
v 0.01086309 -0.02037008 0.01179839 0.61176471 0.61568627 0.94117647
v 0.01086309 0.02088346 0.01090004 0.61176471 0.61568627 0.94117647
v 0.00735467 0.02022462 0.01051305 0.61176471 0.61568627 0.94117647
v 0.00735467 -0.02118096 0.00840767 0.61176471 0.61568627 0.94117647
v 0.01086309 -0.02159562 0.00937052 0.61176471 0.61568627 0.94117647
v 0.01086309 -0.02127311 0.01008921 0.61176471 0.61568627 0.94117647
v 0.01086309 -0.02120861 0.01022281 0.61176471 0.61568627 0.94117647
v 0.01086309 0.02128430 0.01009842 0.61176471 0.61568627 0.94117647
v 0.00735467 0.02041352 0.01014910 0.61176471 0.61568627 0.94117647
v 0.00735467 -0.02196881 0.00604429 0.61176471 0.61568627 0.94117647
v 0.01086309 -0.02216692 0.00792854 0.61176471 0.61568627 0.94117647
v 0.01086309 -0.02194116 0.00850441 0.61176471 0.61568627 0.94117647
v 0.01086309 0.02165749 0.00925535 0.61176471 0.61568627 0.94117647
v 0.00735467 0.02118754 0.00842149 0.61176471 0.61568627 0.94117647
v 0.00735467 0.02043656 0.01010303 0.61176471 0.61568627 0.94117647
v 0.00735467 -0.02199184 0.00595676 0.61176471 0.61568627 0.94117647
v 0.01086309 -0.02290408 0.00546381 0.61176471 0.61568627 0.94117647
v 0.01086309 -0.02273361 0.00607193 0.61176471 0.61568627 0.94117647
v 0.01086309 -0.02254472 0.00672152 0.61176471 0.61568627 0.94117647
v 0.01086309 -0.02245718 0.00700254 0.61176471 0.61568627 0.94117647
v 0.01086309 0.02196157 0.00849059 0.61176471 0.61568627 0.94117647
v 0.01086309 0.02223340 0.00773505 0.61176471 0.61568627 0.94117647
v 0.00735467 0.02186021 0.00647274 0.61176471 0.61568627 0.94117647
v 0.00735467 -0.02217153 0.00526111 0.61176471 0.61568627 0.94117647
v 0.01086309 -0.02295477 0.00526571 0.61176471 0.61568627 0.94117647
v 0.01086309 0.02252366 0.00685051 0.61176471 0.61568627 0.94117647
v 0.00735467 0.02196157 0.00613643 0.61176471 0.61568627 0.94117647
v 0.00735467 -0.02218996 0.00516897 0.61176471 0.61568627 0.94117647
v 0.01086309 -0.02310220 0.00445489 0.61176471 0.61568627 0.94117647
v 0.01086309 0.02275863 0.00603969 0.61176471 0.61568627 0.94117647
v 0.01086309 0.02296595 0.00528414 0.61176471 0.61568627 0.94117647
v 0.00735467 0.02218732 0.00526111 0.61176471 0.61568627 0.94117647
v 0.00735467 -0.02265068 0.00231265 0.61176471 0.61568627 0.94117647
v 0.01086309 -0.02336481 0.00269042 0.61176471 0.61568627 0.94117647
v 0.01086309 0.02311339 0.00445489 0.61176471 0.61568627 0.94117647
v 0.00735467 0.02268030 0.00244625 0.61176471 0.61568627 0.94117647
v 0.00735467 -0.02270136 0.00195791 0.61176471 0.61568627 0.94117647
v 0.01086309 -0.02344313 0.00202241 0.61176471 0.61568627 0.94117647
v 0.01086309 0.02337139 0.00282402 0.61176471 0.61568627 0.94117647
v 0.01086309 0.02342207 0.00232186 0.61176471 0.61568627 0.94117647
v 0.01086309 0.02344972 0.00202241 0.61176471 0.61568627 0.94117647
v 0.00735467 0.02277245 0.00121158 0.61176471 0.61568627 0.94117647
v 0.00735467 -0.02271058 0.00187499 0.61176471 0.61568627 0.94117647
v 0.01086309 -0.02347999 0.00145115 0.61176471 0.61568627 0.94117647
v 0.00735467 -0.02275665 0.00121158 0.61176471 0.61568627 0.94117647
v 0.01086309 0.02350961 0.00121158 0.61176471 0.61568627 0.94117647
v 0.00735467 0.02280009 0.00040076 0.61176471 0.61568627 0.94117647
v 0.01086309 0.02354186 0.00040076 0.61176471 0.61568627 0.94117647
v 0.01086309 -0.02349382 0.00121158 0.61176471 0.61568627 0.94117647
v 0.00735467 -0.02278429 0.00040076 0.61176471 0.61568627 0.94117647
v 0.01086309 -0.02352146 0.00055279 0.61176471 0.61568627 0.94117647
v 0.00735467 0.02280009 -0.00040085 0.61176471 0.61568627 0.94117647
v 0.01086309 0.02353265 -0.00051142 0.61176471 0.61568627 0.94117647
v 0.00735467 -0.02278429 -0.00040085 0.61176471 0.61568627 0.94117647
v 0.01086309 -0.02352607 -0.00039625 0.61176471 0.61568627 0.94117647
v 0.00735467 0.02277705 -0.00111954 0.61176471 0.61568627 0.94117647
v 0.01086309 0.02350961 -0.00120707 0.61176471 0.61568627 0.94117647
v 0.00735467 -0.02275665 -0.00121168 0.61176471 0.61568627 0.94117647
v 0.01086309 -0.02349382 -0.00120707 0.61176471 0.61568627 0.94117647
v 0.00735467 0.02277245 -0.00121168 0.61176471 0.61568627 0.94117647
v 0.01086309 0.02350040 -0.00140517 0.61176471 0.61568627 0.94117647
v 0.00735467 -0.02270136 -0.00195801 0.61176471 0.61568627 0.94117647
v 0.01086309 -0.02344313 -0.00201790 0.61176471 0.61568627 0.94117647
v 0.00735467 0.02270795 -0.00207779 0.61176471 0.61568627 0.94117647
v 0.01086309 0.02344972 -0.00201790 0.61176471 0.61568627 0.94117647
v 0.00735467 -0.02269676 -0.00199947 0.61176471 0.61568627 0.94117647
v 0.01086309 -0.02336020 -0.00278726 0.61176471 0.61568627 0.94117647
v 0.01086309 -0.02341549 -0.00227589 0.61176471 0.61568627 0.94117647
v 0.00735467 0.02270334 -0.00211925 0.61176471 0.61568627 0.94117647
v 0.01086309 0.02338061 -0.00271355 0.61176471 0.61568627 0.94117647
v 0.00735467 -0.02264147 -0.00235882 0.61176471 0.61568627 0.94117647
v 0.01086309 -0.02310220 -0.00445038 0.61176471 0.61568627 0.94117647
v 0.01086309 0.02308113 -0.00463005 0.61176471 0.61568627 0.94117647
v 0.00735467 0.02218732 -0.00526120 0.61176471 0.61568627 0.94117647
v 0.00735467 -0.02217153 -0.00526120 0.61176471 0.61568627 0.94117647
v 0.01086309 -0.02295477 -0.00526120 0.61176471 0.61568627 0.94117647
v 0.01086309 0.02296595 -0.00527963 0.61176471 0.61568627 0.94117647
v 0.00735467 0.02198000 -0.00606282 0.61176471 0.61568627 0.94117647
v 0.01086309 0.02291988 -0.00547312 0.61176471 0.61568627 0.94117647
v 0.00735467 -0.02196881 -0.00604439 0.61176471 0.61568627 0.94117647
v 0.01086309 -0.02273361 -0.00606742 0.61176471 0.61568627 0.94117647
v 0.00735467 0.02192932 -0.00623788 0.61176471 0.61568627 0.94117647
v 0.01086309 0.02255591 -0.00672161 0.61176471 0.61568627 0.94117647
v 0.00735467 -0.02195499 -0.00609046 0.61176471 0.61568627 0.94117647
v 0.01086309 -0.02251707 -0.00683218 0.61176471 0.61568627 0.94117647
v 0.00735467 0.02121519 -0.00834327 0.61176471 0.61568627 0.94117647
v 0.01086309 0.02217811 -0.00793325 0.61176471 0.61568627 0.94117647
v 0.01086309 -0.02222681 -0.00772593 0.61176471 0.61568627 0.94117647
v 0.00735467 -0.02139750 -0.00776739 0.61176471 0.61568627 0.94117647
v 0.00735467 0.02118754 -0.00842158 0.61176471 0.61568627 0.94117647
v 0.01086309 0.02160681 -0.00938444 0.61176471 0.61568627 0.94117647
v 0.00735467 -0.02118096 -0.00840316 0.61176471 0.61568627 0.94117647
v 0.01086309 -0.02197802 -0.00840316 0.61176471 0.61568627 0.94117647
v 0.00735467 0.02043656 -0.01010313 0.61176471 0.61568627 0.94117647
v 0.01086309 0.02128430 -0.01009391 0.61176471 0.61568627 0.94117647
v 0.01086309 -0.02165090 -0.00923702 0.61176471 0.61568627 0.94117647
v 0.01086309 -0.02194116 -0.00849990 0.61176471 0.61568627 0.94117647
v 0.00735467 -0.02042998 -0.01008931 0.61176471 0.61568627 0.94117647
v 0.00735467 0.02022462 -0.01051315 0.61176471 0.61568627 0.94117647
v 0.01086309 0.02121519 -0.01023212 0.61176471 0.61568627 0.94117647
v 0.01086309 0.02080053 -0.01105216 0.61176471 0.61568627 0.94117647
v 0.01086309 -0.02127311 -0.01008470 0.61176471 0.61568627 0.94117647
v 0.00735467 -0.01960067 -0.01161882 0.61176471 0.61568627 0.94117647
v 0.01086309 -0.02087228 -0.01088631 0.61176471 0.61568627 0.94117647
v 0.00735467 0.01965332 -0.01154971 0.61176471 0.61568627 0.94117647
v 0.01086309 0.02038127 -0.01180310 0.61176471 0.61568627 0.94117647
v 0.00735467 0.01960725 -0.01163264 0.61176471 0.61568627 0.94117647
v 0.01086309 -0.01993700 -0.01252178 0.61176471 0.61568627 0.94117647
v 0.01086309 -0.02042998 -0.01169253 0.61176471 0.61568627 0.94117647
v 0.00735467 -0.01865157 -0.01308844 0.61176471 0.61568627 0.94117647
v 0.01086309 0.01983761 -0.01269685 0.61176471 0.61568627 0.94117647
v 0.00735467 0.01873187 -0.01300091 0.61176471 0.61568627 0.94117647
v 0.01086309 -0.01937952 -0.01336486 0.61176471 0.61568627 0.94117647
v 0.00735467 -0.01839817 -0.01344778 0.61176471 0.61568627 0.94117647
v 0.01086309 0.01953814 -0.01313912 0.61176471 0.61568627 0.94117647
v 0.01086309 0.01919720 -0.01363667 0.61176471 0.61568627 0.94117647
v 0.01086309 0.01888851 -0.01407433 0.61176471 0.61568627 0.94117647
v 0.00735467 0.01840475 -0.01346161 0.61176471 0.61568627 0.94117647
v 0.01086309 -0.01887732 -0.01406512 0.61176471 0.61568627 0.94117647
v 0.00735467 -0.01795126 -0.01403287 0.61176471 0.61568627 0.94117647
v 0.01086309 0.01850150 -0.01457649 0.61176471 0.61568627 0.94117647
v 0.00735467 0.01799931 -0.01400062 0.61176471 0.61568627 0.94117647
v 0.01086309 -0.01864235 -0.01436918 0.61176471 0.61568627 0.94117647
v 0.00735467 -0.01766561 -0.01439221 0.61176471 0.61568627 0.94117647
v 0.01086309 0.01816057 -0.01499573 0.61176471 0.61568627 0.94117647
v 0.00735467 0.01767219 -0.01440143 0.61176471 0.61568627 0.94117647
v 0.01086309 -0.01814477 -0.01499112 0.61176471 0.61568627 0.94117647
v 0.00735467 -0.01726017 -0.01487594 0.61176471 0.61568627 0.94117647
v 0.01086309 0.01806381 -0.01511090 0.61176471 0.61568627 0.94117647
v 0.00735467 0.01726675 -0.01488516 0.61176471 0.61568627 0.94117647
v 0.01086309 -0.01749054 -0.01575587 0.61176471 0.61568627 0.94117647
v 0.00735467 -0.01691002 -0.01528136 0.61176471 0.61568627 0.94117647
v 0.01086309 0.01738654 -0.01588487 0.61176471 0.61568627 0.94117647
v 0.00735467 0.01691660 -0.01529057 0.61176471 0.61568627 0.94117647
v 0.01086309 -0.01704363 -0.01623039 0.61176471 0.61568627 0.94117647
v 0.00735467 -0.01611296 -0.01611522 0.61176471 0.61568627 0.94117647
v 0.01086309 0.01658027 -0.01672334 0.61176471 0.61568627 0.94117647
v 0.00735467 0.01655723 -0.01566374 0.61176471 0.61568627 0.94117647
v 0.01086309 -0.01671651 -0.01657131 0.61176471 0.61568627 0.94117647
v 0.01086309 -0.01623275 -0.01703661 0.61176471 0.61568627 0.94117647
v 0.01086309 -0.01664740 -0.01664041 0.61176471 0.61568627 0.94117647
v 0.00735467 -0.01527904 -0.01690301 0.61176471 0.61568627 0.94117647
v 0.01086309 -0.01587799 -0.01737292 0.61176471 0.61568627 0.94117647
v 0.01086309 0.01581546 -0.01744202 0.61176471 0.61568627 0.94117647
v 0.00735467 0.01528562 -0.01691222 0.61176471 0.61568627 0.94117647
v 0.00735467 0.01576017 -0.01646535 0.61176471 0.61568627 0.94117647
v 0.00735467 0.01611493 -0.01611983 0.61176471 0.61568627 0.94117647
v 0.00735467 0.01616101 -0.01607376 0.61176471 0.61568627 0.94117647
v 0.00735467 -0.01486899 -0.01726696 0.61176471 0.61568627 0.94117647
v 0.01086309 -0.01581349 -0.01743281 0.61176471 0.61568627 0.94117647
v 0.01086309 0.01576017 -0.01749270 0.61176471 0.61568627 0.94117647
v 0.00735467 0.01488018 -0.01727157 0.61176471 0.61568627 0.94117647
v 0.01086309 -0.01510857 -0.01805014 0.61176471 0.61568627 0.94117647
v 0.00735467 -0.01439445 -0.01766777 0.61176471 0.61568627 0.94117647
v 0.01086309 0.01499997 -0.01815611 0.61176471 0.61568627 0.94117647
v 0.00735467 0.01446092 -0.01763091 0.61176471 0.61568627 0.94117647
v 0.01086309 -0.01456952 -0.01848781 0.61176471 0.61568627 0.94117647
v 0.00735467 -0.01434837 -0.01770462 0.61176471 0.61568627 0.94117647
v 0.01086309 0.01438260 -0.01864905 0.61176471 0.61568627 0.94117647
v 0.00735467 0.01440564 -0.01767698 0.61176471 0.61568627 0.94117647
v 0.01086309 -0.01407194 -0.01887479 0.61176471 0.61568627 0.94117647
v 0.00735467 -0.01399361 -0.01798565 0.61176471 0.61568627 0.94117647
v 0.01086309 0.01407391 -0.01888401 0.61176471 0.61568627 0.94117647
v 0.00735467 0.01399559 -0.01799486 0.61176471 0.61568627 0.94117647
v 0.00735467 -0.01345456 -0.01839567 0.61176471 0.61568627 0.94117647
v 0.00735467 -0.01299383 -0.01872737 0.61176471 0.61568627 0.94117647
v 0.01086309 -0.01362964 -0.01918807 0.61176471 0.61568627 0.94117647
v 0.01086309 0.01336900 -0.01938156 0.61176471 0.61568627 0.94117647
v 0.00735467 0.01310178 -0.01866287 0.61176471 0.61568627 0.94117647
v 0.00735467 0.01352104 -0.01835420 0.61176471 0.61568627 0.94117647
v 0.01086309 -0.01314587 -0.01951977 0.61176471 0.61568627 0.94117647
v 0.00735467 -0.01162087 -0.01960730 0.61176471 0.61568627 0.94117647
v 0.01086309 -0.01268515 -0.01983304 0.61176471 0.61568627 0.94117647
v 0.00735467 0.01305570 -0.01869512 0.61176471 0.61568627 0.94117647
v 0.01086309 0.01252587 -0.01993900 0.61176471 0.61568627 0.94117647
v 0.01086309 -0.01169919 -0.02043195 0.61176471 0.61568627 0.94117647
v 0.01086309 -0.01180055 -0.02037206 0.61176471 0.61568627 0.94117647
v 0.00735467 -0.01009125 -0.02043195 0.61176471 0.61568627 0.94117647
v 0.01086309 -0.01104496 -0.02078668 0.61176471 0.61568627 0.94117647
v 0.00735467 0.01162745 -0.01961191 0.61176471 0.61568627 0.94117647
v 0.01086309 0.01169656 -0.02043655 0.61176471 0.61568627 0.94117647
v 0.01086309 -0.01009125 -0.02127502 0.61176471 0.61568627 0.94117647
v 0.00735467 -0.00840959 -0.02118288 0.61176471 0.61568627 0.94117647
v 0.01086309 0.01096400 -0.02084197 0.61176471 0.61568627 0.94117647
v 0.00735467 0.01014851 -0.02041352 0.61176471 0.61568627 0.94117647
v 0.01086309 -0.00937712 -0.02159290 0.61176471 0.61568627 0.94117647
v 0.00735467 -0.00646072 -0.02184629 0.61176471 0.61568627 0.94117647
v 0.01086309 -0.00793044 -0.02216877 0.61176471 0.61568627 0.94117647
v 0.01086309 -0.00847870 -0.02195685 0.61176471 0.61568627 0.94117647
v 0.01086309 0.01008862 -0.02127963 0.61176471 0.61568627 0.94117647
v 0.01086309 0.00924549 -0.02165740 0.61176471 0.61568627 0.94117647
v 0.00735467 0.00846686 -0.02116445 0.61176471 0.61568627 0.94117647
v 0.01086309 -0.00672333 -0.02254655 0.61176471 0.61568627 0.94117647
v 0.00735467 -0.00605988 -0.02197067 0.61176471 0.61568627 0.94117647
v 0.01086309 0.00843000 -0.02197989 0.61176471 0.61568627 0.94117647
v 0.00735467 0.00842078 -0.02118288 0.61176471 0.61568627 0.94117647
v 0.01086309 -0.00607371 -0.02273543 0.61176471 0.61568627 0.94117647
v 0.00735467 -0.00526282 -0.02217799 0.61176471 0.61568627 0.94117647
v 0.01086309 -0.00546554 -0.02291049 0.61176471 0.61568627 0.94117647
v 0.01086309 0.00772969 -0.02223327 0.61176471 0.61568627 0.94117647
v 0.00735467 0.00619086 -0.02193843 0.61176471 0.61568627 0.94117647
v 0.00735467 -0.00517068 -0.02219642 0.61176471 0.61568627 0.94117647
v 0.01086309 -0.00527204 -0.02295196 0.61176471 0.61568627 0.94117647
v 0.01086309 0.00684049 -0.02251890 0.61176471 0.61568627 0.94117647
v 0.00735467 0.00613097 -0.02195685 0.61176471 0.61568627 0.94117647
v 0.01086309 -0.00463163 -0.02307635 0.61176471 0.61568627 0.94117647
v 0.00735467 -0.00197323 -0.02271240 0.61176471 0.61568627 0.94117647
v 0.01086309 0.00606647 -0.02274464 0.61176471 0.61568627 0.94117647
v 0.01086309 0.00527401 -0.02295656 0.61176471 0.61568627 0.94117647
v 0.00735467 0.00526019 -0.02218259 0.61176471 0.61568627 0.94117647
v 0.01086309 -0.00271039 -0.02337119 0.61176471 0.61568627 0.94117647
v 0.00735467 -0.00120842 -0.02276307 0.61176471 0.61568627 0.94117647
v 0.01086309 -0.00202391 -0.02344951 0.61176471 0.61568627 0.94117647
v 0.01086309 -0.00230495 -0.02342187 0.61176471 0.61568627 0.94117647
v 0.01086309 0.00444931 -0.02310399 0.61176471 0.61568627 0.94117647
v 0.00735467 0.00202589 -0.02270779 0.61176471 0.61568627 0.94117647
v 0.00735467 -0.00112088 -0.02276768 0.61176471 0.61568627 0.94117647
v 0.01086309 -0.00121303 -0.02349558 0.61176471 0.61568627 0.94117647
v 0.01086309 0.00280451 -0.02336658 0.61176471 0.61568627 0.94117647
v 0.01086309 0.00201667 -0.02344951 0.61176471 0.61568627 0.94117647
v 0.00735467 0.00197981 -0.02271240 0.61176471 0.61568627 0.94117647
v 0.00735467 -0.00040215 -0.02279071 0.61176471 0.61568627 0.94117647
v 0.01086309 -0.00040215 -0.02353243 0.61176471 0.61568627 0.94117647
v 0.01086309 0.00142233 -0.02349097 0.61176471 0.61568627 0.94117647
v 0.00735467 0.00129794 -0.02275846 0.61176471 0.61568627 0.94117647
v 0.00735467 0.00048706 -0.02279071 0.61176471 0.61568627 0.94117647
v 0.01086309 0.00039952 -0.02352783 0.61176471 0.61568627 0.94117647
v 0.00735467 0.00121040 -0.02276307 0.61176471 0.61568627 0.94117647
f 1 2 3
f 1 3 4
f 1 4 5
f 1 5 9
f 1 9 13
f 1 13 18
f 1 18 21
f 1 21 20
f 1 20 25
f 1 25 28
f 1 28 30
f 1 30 34
f 1 34 40
f 1 40 43
f 1 43 45
f 1 45 51
f 1 51 50
f 1 50 58
f 1 58 57
f 1 57 62
f 1 62 67
f 1 67 72
f 1 72 76
f 1 76 81
f 1 81 85
f 1 85 90
f 1 90 96
f 1 96 101
f 1 101 105
f 1 105 110
f 1 110 114
f 1 114 120
f 1 120 126
f 1 126 125
f 1 125 124
f 1 124 132
f 1 132 131
f 1 131 130
f 1 130 138
f 1 138 137
f 1 137 136
f 1 136 143
f 1 143 142
f 1 142 151
f 1 151 150
f 1 150 149
f 1 149 148
f 1 148 156
f 1 156 160
f 1 160 165
f 1 165 169
f 1 169 175
f 1 175 180
f 1 180 182
f 1 182 186
f 1 186 190
f 1 190 194
f 1 194 199
f 1 199 198
f 1 198 203
f 1 203 207
f 1 207 212
f 1 212 216
f 1 216 219
f 1 219 224
f 1 224 228
f 1 228 227
f 1 227 233
f 1 233 235
f 1 235 240
f 1 240 239
f 1 239 244
f 1 244 250
f 1 250 254
f 1 254 258
f 1 258 262
f 1 262 266
f 1 266 270
f 1 270 272
f 1 272 271
f 1 271 274
f 1 274 281
f 1 281 284
f 1 284 288
f 1 288 292
f 1 292 298
f 1 298 302
f 1 302 304
f 1 304 308
f 1 308 307
f 1 307 310
f 1 310 313
f 1 313 317
f 1 317 320
f 1 320 319
f 1 319 324
f 1 324 328
f 1 328 330
f 1 330 334
f 1 334 337
f 1 337 342
f 1 342 345
f 1 345 344
f 1 344 349
f 1 349 354
f 1 354 358
f 1 358 355
f 1 355 351
f 1 351 350
f 1 350 346
f 1 346 340
f 1 340 339
f 1 339 335
f 1 335 331
f 1 331 326
f 1 326 322
f 1 322 321
f 1 321 315
f 1 315 312
f 1 312 306
f 1 306 299
f 1 299 294
f 1 294 290
f 1 290 286
f 1 286 282
f 1 282 275
f 1 275 268
f 1 268 264
f 1 264 260
f 1 260 256
f 1 256 252
f 1 252 248
f 1 248 247
f 1 247 246
f 1 246 242
f 1 242 237
f 1 237 232
f 1 232 231
f 1 231 226
f 1 226 222
f 1 222 218
f 1 218 214
f 1 214 210
f 1 210 208
f 1 208 204
f 1 204 201
f 1 201 196
f 1 196 192
f 1 192 188
f 1 188 184
f 1 184 179
f 1 179 177
f 1 177 172
f 1 172 171
f 1 171 170
f 1 170 166
f 1 166 162
f 1 162 161
f 1 161 157
f 1 157 153
f 1 153 152
f 1 152 144
f 1 144 139
f 1 139 133
f 1 133 128
f 1 128 122
f 1 122 117
f 1 117 112
f 1 112 107
f 1 107 103
f 1 103 98
f 1 98 93
f 1 93 87
f 1 87 82
f 1 82 78
f 1 78 74
f 1 74 69
f 1 69 68
f 1 68 64
f 1 64 63
f 1 63 59
f 1 59 54
f 1 54 53
f 1 53 52
f 1 52 47
f 1 47 46
f 1 46 41
f 1 41 37
f 1 37 36
f 1 36 35
f 1 35 31
f 1 31 26
f 1 26 22
f 1 22 16
f 1 16 15
f 1 15 14
f 1 14 10
f 1 10 6
f 1 6 2
f 2 6 7
f 2 7 3
f 3 7 11
f 3 11 17
f 3 17 23
f 3 23 27
f 3 27 32
f 3 32 38
f 3 38 42
f 3 42 48
f 3 48 55
f 3 55 60
f 3 60 65
f 3 65 70
f 3 70 73
f 3 73 77
f 3 77 79
f 3 79 83
f 3 83 86
f 3 86 91
f 3 91 92
f 3 92 97
f 3 97 99
f 3 99 104
f 3 104 109
f 3 109 108
f 3 108 113
f 3 113 118
f 3 118 121
f 3 121 127
f 3 127 134
f 3 134 140
f 3 140 146
f 3 146 145
f 3 145 154
f 3 154 158
f 3 158 163
f 3 163 167
f 3 167 173
f 3 173 178
f 3 178 183
f 3 183 187
f 3 187 191
f 3 191 195
f 3 195 200
f 3 200 205
f 3 205 209
f 3 209 213
f 3 213 217
f 3 217 221
f 3 221 225
f 3 225 230
f 3 230 236
f 3 236 238
f 3 238 243
f 3 243 249
f 3 249 253
f 3 253 257
f 3 257 261
f 3 261 265
f 3 265 269
f 3 269 279
f 3 279 278
f 3 278 277
f 3 277 276
f 3 276 283
f 3 283 287
f 3 287 291
f 3 291 295
f 3 295 301
f 3 301 300
f 3 300 305
f 3 305 311
f 3 311 316
f 3 316 323
f 3 323 327
f 3 327 332
f 3 332 336
f 3 336 341
f 3 341 347
f 3 347 352
f 3 352 356
f 3 356 359
f 3 359 357
f 3 357 353
f 3 353 348
f 3 348 343
f 3 343 338
f 3 338 333
f 3 333 329
f 3 329 325
f 3 325 318
f 3 318 314
f 3 314 309
f 3 309 303
f 3 303 297
f 3 297 296
f 3 296 293
f 3 293 289
f 3 289 285
f 3 285 280
f 3 280 273
f 3 273 267
f 3 267 263
f 3 263 259
f 3 259 255
f 3 255 251
f 3 251 245
f 3 245 241
f 3 241 234
f 3 234 229
f 3 229 223
f 3 223 220
f 3 220 215
f 3 215 211
f 3 211 206
f 3 206 202
f 3 202 197
f 3 197 193
f 3 193 189
f 3 189 185
f 3 185 181
f 3 181 176
f 3 176 174
f 3 174 168
f 3 168 164
f 3 164 159
f 3 159 155
f 3 155 147
f 3 147 141
f 3 141 135
f 3 135 129
f 3 129 123
f 3 123 119
f 3 119 116
f 3 116 115
f 3 115 111
f 3 111 106
f 3 106 102
f 3 102 100
f 3 100 95
f 3 95 94
f 3 94 89
f 3 89 88
f 3 88 84
f 3 84 80
f 3 80 75
f 3 75 71
f 3 71 66
f 3 66 61
f 3 61 56
f 3 56 49
f 3 49 44
f 3 44 39
f 3 39 33
f 3 33 29
f 3 29 24
f 3 24 19
f 3 19 12
f 3 12 8
f 3 8 4
f 4 8 5
f 5 8 9
f 6 10 7
f 7 10 11
f 8 12 13
f 8 13 9
f 10 14 11
f 11 14 15
f 11 15 16
f 11 16 22
f 11 22 17
f 12 18 13
f 12 19 20
f 12 20 21
f 12 21 18
f 17 22 23
f 19 24 25
f 19 25 20
f 22 26 23
f 23 26 27
f 24 28 25
f 24 29 30
f 24 30 28
f 26 31 32
f 26 32 27
f 29 33 34
f 29 34 30
f 31 35 32
f 32 36 37
f 32 37 38
f 32 35 36
f 33 39 34
f 34 39 40
f 37 41 38
f 38 41 42
f 39 43 40
f 39 44 45
f 39 45 43
f 41 46 42
f 42 46 47
f 42 47 48
f 44 49 50
f 44 50 51
f 44 51 45
f 47 52 48
f 48 52 53
f 48 53 54
f 48 54 55
f 49 56 57
f 49 57 58
f 49 58 50
f 54 59 60
f 54 60 55
f 56 61 62
f 56 62 57
f 59 63 60
f 60 63 64
f 60 64 65
f 61 66 67
f 61 67 62
f 64 68 65
f 65 68 69
f 65 69 70
f 66 71 67
f 67 71 72
f 69 73 70
f 69 74 73
f 71 75 72
f 72 75 76
f 73 74 77
f 74 78 79
f 74 79 77
f 75 80 81
f 75 81 76
f 78 82 79
f 79 82 83
f 80 84 81
f 81 84 85
f 82 86 83
f 82 87 86
f 84 88 85
f 85 88 89
f 85 89 90
f 86 87 91
f 87 92 91
f 87 93 92
f 89 94 90
f 90 94 95
f 90 95 96
f 92 93 97
f 93 98 99
f 93 99 97
f 95 100 96
f 96 100 102
f 96 102 101
f 98 103 99
f 99 103 104
f 101 102 105
f 102 106 105
f 103 107 108
f 103 108 109
f 103 109 104
f 105 106 111
f 105 111 110
f 107 112 108
f 108 112 113
f 110 111 115
f 110 115 116
f 110 116 114
f 112 117 113
f 113 117 118
f 114 116 119
f 114 119 120
f 117 121 118
f 117 122 121
f 119 123 124
f 119 124 125
f 119 125 126
f 119 126 120
f 121 122 127
f 122 128 127
f 123 129 130
f 123 130 131
f 123 131 132
f 123 132 124
f 127 128 133
f 127 133 134
f 129 135 136
f 129 136 137
f 129 137 138
f 129 138 130
f 133 139 146
f 133 146 140
f 133 140 134
f 135 141 142
f 135 142 143
f 135 143 136
f 139 144 145
f 139 145 146
f 141 147 148
f 141 148 149
f 141 149 150
f 141 150 151
f 141 151 142
f 144 152 145
f 145 152 153
f 145 153 154
f 147 155 148
f 148 155 156
f 153 157 154
f 154 157 158
f 155 159 156
f 156 159 160
f 157 161 158
f 158 161 162
f 158 162 163
f 159 164 160
f 160 164 165
f 162 166 163
f 163 166 167
f 164 168 165
f 165 168 169
f 166 170 167
f 167 170 171
f 167 171 172
f 167 172 173
f 168 174 169
f 169 174 176
f 169 176 175
f 172 177 173
f 173 177 179
f 173 179 178
f 175 176 180
f 176 181 182
f 176 182 180
f 178 179 183
f 179 184 183
f 181 185 186
f 181 186 182
f 183 184 187
f 184 188 187
f 185 189 186
f 186 189 190
f 187 188 192
f 187 192 191
f 189 193 194
f 189 194 190
f 191 192 195
f 192 196 195
f 193 197 198
f 193 198 199
f 193 199 194
f 195 196 201
f 195 201 200
f 197 202 198
f 198 202 203
f 200 201 204
f 200 204 205
f 202 206 203
f 203 206 207
f 204 208 205
f 205 208 210
f 205 210 209
f 206 211 207
f 207 211 212
f 209 210 213
f 210 214 213
f 211 215 216
f 211 216 212
f 213 214 218
f 213 218 217
f 215 219 216
f 215 220 219
f 217 218 221
f 218 222 221
f 219 220 223
f 219 223 224
f 221 222 225
f 222 226 225
f 223 227 228
f 223 228 224
f 223 229 227
f 225 226 231
f 225 231 232
f 225 232 230
f 227 229 233
f 229 234 235
f 229 235 233
f 230 232 236
f 232 237 238
f 232 238 236
f 234 239 240
f 234 240 235
f 234 241 239
f 237 242 238
f 238 242 243
f 239 241 244
f 241 245 244
f 242 246 243
f 243 246 247
f 243 247 248
f 243 248 249
f 244 245 250
f 245 251 250
f 248 252 253
f 248 253 249
f 250 251 254
f 251 255 254
f 252 256 253
f 253 256 257
f 254 255 258
f 255 259 258
f 256 260 261
f 256 261 257
f 258 259 262
f 259 263 262
f 260 264 265
f 260 265 261
f 262 263 266
f 263 267 266
f 264 268 265
f 265 268 269
f 266 267 270
f 267 271 272
f 267 272 270
f 267 273 274
f 267 274 271
f 268 275 276
f 268 276 277
f 268 277 278
f 268 278 279
f 268 279 269
f 273 280 281
f 273 281 274
f 275 282 276
f 276 282 283
f 280 284 281
f 280 285 284
f 282 286 283
f 283 286 287
f 284 285 288
f 285 289 288
f 286 290 291
f 286 291 287
f 288 289 293
f 288 293 292
f 290 294 295
f 290 295 291
f 292 293 296
f 292 296 297
f 292 297 298
f 294 299 300
f 294 300 301
f 294 301 295
f 297 302 298
f 297 303 304
f 297 304 302
f 299 305 300
f 299 306 305
f 303 307 308
f 303 308 304
f 303 309 310
f 303 310 307
f 305 306 311
f 306 312 311
f 309 313 310
f 309 314 313
f 311 312 315
f 311 315 316
f 313 314 317
f 314 318 319
f 314 319 320
f 314 320 317
f 315 321 316
f 316 321 322
f 316 322 323
f 318 324 319
f 318 325 324
f 322 326 327
f 322 327 323
f 324 325 328
f 325 329 330
f 325 330 328
f 326 331 327
f 327 331 332
f 329 333 334
f 329 334 330
f 331 335 332
f 332 335 336
f 333 337 334
f 333 338 337
f 335 339 336
f 336 339 340
f 336 340 341
f 337 338 342
f 338 343 344
f 338 344 345
f 338 345 342
f 340 346 341
f 341 346 347
f 343 348 349
f 343 349 344
f 346 350 347
f 347 351 352
f 347 350 351
f 348 353 354
f 348 354 349
f 351 355 352
f 352 355 356
f 353 357 354
f 354 357 358
f 355 359 356
f 355 358 357
f 355 357 359

