# https://github.com/mikedh/trimesh
v 0.00515887 -0.01119202 0.01895130 0.20784314 0.16078431 0.65098039
v 0.00515887 -0.01198275 0.01887788 0.20784314 0.16078431 0.65098039
v 0.00515887 -0.01119202 0.01719152 0.20784314 0.16078431 0.65098039
v 0.00257597 -0.01119202 0.01794924 0.20784314 0.16078431 0.65098039
v 0.00257597 -0.01255566 0.01823890 0.20784314 0.16078431 0.65098039
v 0.00257597 -0.01336508 0.01833412 0.20784314 0.16078431 0.65098039
v 0.00515887 -0.01294384 0.01858535 0.20784314 0.16078431 0.65098039
v 0.00506052 -0.01119202 0.01714793 0.20784314 0.16078431 0.65098039
v 0.00515887 -0.01707788 0.01309205 0.20784314 0.16078431 0.65098039
v 0.00257597 -0.01119202 0.01721963 0.20784314 0.16078431 0.65098039
v 0.00257597 -0.01337226 0.01833067 0.20784314 0.16078431 0.65098039
v 0.00515887 -0.01317890 0.01851136 0.20784314 0.16078431 0.65098039
v 0.00501475 -0.01119202 0.01712785 0.20784314 0.16078431 0.65098039
v 0.00515887 -0.01853497 0.01309205 0.20784314 0.16078431 0.65098039
v 0.00501475 -0.01703691 0.01309205 0.20784314 0.16078431 0.65098039
v 0.00257597 -0.01704266 0.01309205 0.20784314 0.16078431 0.65098039
v 0.00257597 -0.01399119 0.01799111 0.20784314 0.16078431 0.65098039
v 0.00515887 -0.01389198 0.01806223 0.20784314 0.16078431 0.65098039
v 0.00427624 -0.01703835 0.01309205 0.20784314 0.16078431 0.65098039
v 0.00515887 -0.01850622 0.01318440 0.20784314 0.16078431 0.65098039
v 0.00257597 -0.01833082 0.01336508 0.20784314 0.16078431 0.65098039
v 0.00257597 -0.01829560 0.01309205 0.20784314 0.16078431 0.65098039
v 0.00257597 -0.01399622 0.01798767 0.20784314 0.16078431 0.65098039
v 0.00420494 -0.01399190 0.01799111 0.20784314 0.16078431 0.65098039
v 0.00515887 -0.01399190 0.01799053 0.20784314 0.16078431 0.65098039
v 0.00515887 -0.01799296 0.01398685 0.20784314 0.16078431 0.65098039
v 0.00501475 -0.01799296 0.01398743 0.20784314 0.16078431 0.65098039
v 0.00339513 -0.01799368 0.01398800 0.20784314 0.16078431 0.65098039
v 0.00257597 -0.01799368 0.01398800 0.20784314 0.16078431 0.65098039
v 0.00257597 -0.01439661 0.01767047 0.20784314 0.16078431 0.65098039
v 0.00420494 -0.01439661 0.01767104 0.20784314 0.16078431 0.65098039
v 0.00515887 -0.01439661 0.01767104 0.20784314 0.16078431 0.65098039
v 0.00515887 -0.01432473 0.01772783 0.20784314 0.16078431 0.65098039
v 0.00515887 -0.01793474 0.01405913 0.20784314 0.16078431 0.65098039
v 0.00515887 -0.01766446 0.01439238 0.20784314 0.16078431 0.65098039
v 0.00339513 -0.01766517 0.01439296 0.20784314 0.16078431 0.65098039
v 0.00257597 -0.01766517 0.01439296 0.20784314 0.16078431 0.65098039
v 0.00257597 -0.01487105 0.01726551 0.20784314 0.16078431 0.65098039
v 0.00515887 -0.01478694 0.01733779 0.20784314 0.16078431 0.65098039
v 0.00515887 -0.01725903 0.01487592 0.20784314 0.16078431 0.65098039
v 0.00501475 -0.01725975 0.01487592 0.20784314 0.16078431 0.65098039
v 0.00258507 -0.01726047 0.01487650 0.20784314 0.16078431 0.65098039
v 0.00257597 -0.01726047 0.01487650 0.20784314 0.16078431 0.65098039
v 0.00257597 -0.01527647 0.01690587 0.20784314 0.16078431 0.65098039
v 0.00339513 -0.01487105 0.01726551 0.20784314 0.16078431 0.65098039
v 0.00515887 -0.01487033 0.01726609 0.20784314 0.16078431 0.65098039
v 0.00515887 -0.01691039 0.01528088 0.20784314 0.16078431 0.65098039
v 0.00257597 -0.01691542 0.01527744 0.20784314 0.16078431 0.65098039
v 0.00258507 -0.01527647 0.01690587 0.20784314 0.16078431 0.65098039
v 0.00257597 -0.01571281 0.01649632 0.20784314 0.16078431 0.65098039
v 0.00515887 -0.01520315 0.01696954 0.20784314 0.16078431 0.65098039
v 0.00515887 -0.01650569 0.01570821 0.20784314 0.16078431 0.65098039
v 0.00420494 -0.01691111 0.01528088 0.20784314 0.16078431 0.65098039
v 0.00339513 -0.01691111 0.01528145 0.20784314 0.16078431 0.65098039
v 0.00258507 -0.01691111 0.01528203 0.20784314 0.16078431 0.65098039
v 0.00257597 -0.01691111 0.01528203 0.20784314 0.16078431 0.65098039
v 0.00515887 -0.01527503 0.01690530 0.20784314 0.16078431 0.65098039
v 0.00420494 -0.01570777 0.01650034 0.20784314 0.16078431 0.65098039
v 0.00515887 -0.01570706 0.01650034 0.20784314 0.16078431 0.65098039
v 0.00257597 -0.01611320 0.01611374 0.20784314 0.16078431 0.65098039
v 0.00258507 -0.01611320 0.01611374 0.20784314 0.16078431 0.65098039
v 0.00339513 -0.01650641 0.01570878 0.20784314 0.16078431 0.65098039
v 0.00515887 -0.01611248 0.01611259 0.20784314 0.16078431 0.65098039
v 0.00258507 -0.01650641 0.01570935 0.20784314 0.16078431 0.65098039
v 0.00257597 -0.01650641 0.01570935 0.20784314 0.16078431 0.65098039
v 0.00515887 -0.01604060 0.01618142 0.20784314 0.16078431 0.65098039
f 1 2 7
f 1 7 12
f 1 12 18
f 1 18 25
f 1 25 33
f 1 33 32
f 1 32 39
f 1 39 46
f 1 46 51
f 1 51 57
f 1 57 59
f 1 59 66
f 1 66 63
f 1 63 52
f 1 52 47
f 1 47 40
f 1 40 35
f 1 35 34
f 1 34 26
f 1 26 20
f 1 20 14
f 1 14 9
f 1 9 3
f 1 3 8
f 1 8 13
f 1 13 10
f 1 10 4
f 1 4 5
f 1 5 6
f 1 6 2
f 2 6 7
f 3 9 8
f 4 10 16
f 4 16 22
f 4 22 21
f 4 21 29
f 4 29 37
f 4 37 43
f 4 43 48
f 4 48 56
f 4 56 65
f 4 65 60
f 4 60 50
f 4 50 44
f 4 44 38
f 4 38 30
f 4 30 23
f 4 23 17
f 4 17 11
f 4 11 6
f 4 6 5
f 6 11 12
f 6 12 7
f 8 9 13
f 9 14 22
f 9 22 16
f 9 16 19
f 9 19 15
f 9 15 13
f 10 13 16
f 11 17 12
f 12 17 18
f 13 15 19
f 13 19 16
f 14 20 21
f 14 21 22
f 17 23 18
f 18 23 24
f 18 24 25
f 20 26 27
f 20 27 28
f 20 28 29
f 20 29 21
f 23 30 31
f 23 31 24
f 24 31 32
f 24 32 33
f 24 33 25
f 26 34 27
f 27 34 28
f 28 34 35
f 28 35 36
f 28 36 37
f 28 37 29
f 30 38 31
f 31 38 39
f 31 39 32
f 35 40 41
f 35 41 36
f 36 41 42
f 36 42 43
f 36 43 37
f 38 44 49
f 38 49 45
f 38 45 39
f 39 45 46
f 40 47 41
f 41 47 48
f 41 48 42
f 42 48 43
f 44 50 49
f 45 49 46
f 46 49 51
f 47 52 53
f 47 53 48
f 48 53 54
f 48 54 55
f 48 55 56
f 49 57 51
f 49 50 58
f 49 58 59
f 49 59 57
f 50 60 61
f 50 61 58
f 52 62 53
f 52 63 62
f 53 62 54
f 54 62 64
f 54 64 55
f 55 64 65
f 55 65 56
f 58 61 66
f 58 66 59
f 60 65 64
f 60 64 61
f 61 63 66
f 61 64 62
f 61 62 63

