# https://github.com/mikedh/trimesh
v 0.00735399 0.01863366 -0.01314955 0.11764706 0.63921569 0.14117647
v 0.00679994 0.01862874 -0.01314955 0.11764706 0.63921569 0.14117647
v 0.00735399 0.01752430 -0.01314955 0.11764706 0.63921569 0.14117647
v 0.00735399 0.01840884 -0.01346416 0.11764706 0.63921569 0.14117647
v -0.02009044 0.01799748 -0.01400068 0.11764706 0.63921569 0.14117647
v -0.01928132 0.01826989 -0.01350123 0.11764706 0.63921569 0.14117647
v 0.00663263 0.01862655 -0.01314955 0.11764706 0.63921569 0.14117647
v 0.00583448 0.01719609 -0.01314955 0.11764706 0.63921569 0.14117647
v 0.00515701 0.01304529 -0.01706780 0.11764706 0.63921569 0.14117647
v 0.00735399 0.01448505 -0.01644706 0.11764706 0.63921569 0.14117647
v 0.00735399 0.01800349 -0.01400279 0.11764706 0.63921569 0.14117647
v -0.01928132 0.01799748 -0.01400121 0.11764706 0.63921569 0.14117647
v -0.02009044 0.01767802 -0.01440532 0.11764706 0.63921569 0.14117647
v -0.02061157 0.01793840 -0.01392388 0.11764706 0.63921569 0.14117647
v -0.02009044 0.01825294 -0.01350123 0.11764706 0.63921569 0.14117647
v 0.00582351 0.01860576 -0.01314955 0.11764706 0.63921569 0.14117647
v 0.00524204 0.01710474 -0.01314955 0.11764706 0.63921569 0.14117647
v 0.00515701 0.01709215 -0.01314955 0.11764706 0.63921569 0.14117647
v 0.00501164 0.01304529 -0.01705350 0.11764706 0.63921569 0.14117647
v 0.00515701 0.01304529 -0.01856031 0.11764706 0.63921569 0.14117647
v 0.00735399 0.01578258 -0.01644706 0.11764706 0.63921569 0.14117647
v 0.00735399 0.01767583 -0.01440744 0.11764706 0.63921569 0.14117647
v -0.01766307 0.01767802 -0.01440585 0.11764706 0.63921569 0.14117647
v -0.01928132 0.01767802 -0.01440585 0.11764706 0.63921569 0.14117647
v -0.02009044 0.01727267 -0.01487881 0.11764706 0.63921569 0.14117647
v -0.01847219 0.01727322 -0.01487987 0.11764706 0.63921569 0.14117647
v -0.02063900 0.01718460 -0.01477924 0.11764706 0.63921569 0.14117647
v -0.02065820 0.01803030 -0.01350123 0.11764706 0.63921569 0.14117647
v 0.00517895 0.01854504 -0.01314955 0.11764706 0.63921569 0.14117647
v 0.00257329 0.01304529 -0.01706780 0.11764706 0.63921569 0.14117647
v 0.00515701 0.01853520 -0.01314955 0.11764706 0.63921569 0.14117647
v -0.02066643 0.01744553 -0.01350123 0.11764706 0.63921569 0.14117647
v -0.02015353 0.01705222 -0.01350123 0.11764706 0.63921569 0.14117647
v -0.02008496 0.01701667 -0.01350123 0.11764706 0.63921569 0.14117647
v 0.00515701 0.01317821 -0.01851794 0.11764706 0.63921569 0.14117647
v 0.00257329 0.01304529 -0.01829602 0.11764706 0.63921569 0.14117647
v -0.02012336 0.01349384 -0.01700265 0.11764706 0.63921569 0.14117647
v -0.02039489 0.01380182 -0.01700265 0.11764706 0.63921569 0.14117647
v -0.02063352 0.01424928 -0.01700265 0.11764706 0.63921569 0.14117647
v -0.02063900 0.01484390 -0.01700265 0.11764706 0.63921569 0.14117647
v -0.02009044 0.01518852 -0.01700265 0.11764706 0.63921569 0.14117647
v 0.00735399 0.01612283 -0.01612134 0.11764706 0.63921569 0.14117647
v 0.00515701 0.01390028 -0.01806775 0.11764706 0.63921569 0.14117647
v 0.00515701 0.01400039 -0.01799572 0.11764706 0.63921569 0.14117647
v 0.00515701 0.01433352 -0.01773355 0.11764706 0.63921569 0.14117647
v 0.00515701 0.01440464 -0.01767688 0.11764706 0.63921569 0.14117647
v 0.00515701 0.01487945 -0.01727171 0.11764706 0.63921569 0.14117647
v 0.00515701 0.01521204 -0.01697511 0.11764706 0.63921569 0.14117647
v 0.00515701 0.01528425 -0.01691050 0.11764706 0.63921569 0.14117647
v 0.00501164 0.01528479 -0.01691050 0.11764706 0.63921569 0.14117647
v 0.00420252 0.01528479 -0.01691103 0.11764706 0.63921569 0.14117647
v -0.00065772 0.01528644 -0.01691261 0.11764706 0.63921569 0.14117647
v -0.00551796 0.01528862 -0.01691367 0.11764706 0.63921569 0.14117647
v -0.00632708 0.01528917 -0.01691367 0.11764706 0.63921569 0.14117647
v -0.01280283 0.01529026 -0.01691579 0.11764706 0.63921569 0.14117647
v -0.01604207 0.01529081 -0.01691685 0.11764706 0.63921569 0.14117647
v -0.00713621 0.01571858 -0.01650903 0.11764706 0.63921569 0.14117647
v -0.00632708 0.01612283 -0.01612240 0.11764706 0.63921569 0.14117647
v 0.00735399 0.01727103 -0.01488941 0.11764706 0.63921569 0.14117647
v -0.01928132 0.01691164 -0.01528398 0.11764706 0.63921569 0.14117647
v -0.02009044 0.01691000 -0.01528345 0.11764706 0.63921569 0.14117647
v -0.01523295 0.01691273 -0.01528557 0.11764706 0.63921569 0.14117647
v 0.00735399 0.01691820 -0.01529458 0.11764706 0.63921569 0.14117647
v -0.02009044 0.01650520 -0.01571299 0.11764706 0.63921569 0.14117647
v -0.02064174 0.01640236 -0.01560494 0.11764706 0.63921569 0.14117647
v -0.02066643 0.01793840 -0.01350123 0.11764706 0.63921569 0.14117647
v -0.02064449 0.01560590 -0.01640681 0.11764706 0.63921569 0.14117647
v -0.02063900 0.01431930 -0.01680298 0.11764706 0.63921569 0.14117647
v 0.00257329 0.01399929 -0.01799678 0.11764706 0.63921569 0.14117647
v -0.02009044 0.01528917 -0.01691579 0.11764706 0.63921569 0.14117647
v -0.01665372 0.01519125 -0.01700265 0.11764706 0.63921569 0.14117647
v 0.00257329 0.01441011 -0.01767264 0.11764706 0.63921569 0.14117647
v 0.00735399 0.01651395 -0.01571776 0.11764706 0.63921569 0.14117647
v 0.00420252 0.01400039 -0.01799625 0.11764706 0.63921569 0.14117647
v 0.00420252 0.01440518 -0.01767688 0.11764706 0.63921569 0.14117647
v 0.00501164 0.01440518 -0.01767688 0.11764706 0.63921569 0.14117647
v 0.00258427 0.01488109 -0.01727171 0.11764706 0.63921569 0.14117647
v -0.01928132 0.01528917 -0.01691632 0.11764706 0.63921569 0.14117647
v -0.01766307 0.01571530 -0.01651168 0.11764706 0.63921569 0.14117647
v -0.01604207 0.01571585 -0.01651168 0.11764706 0.63921569 0.14117647
v -0.01037271 0.01571749 -0.01651009 0.11764706 0.63921569 0.14117647
v 0.00257329 0.01488109 -0.01727171 0.11764706 0.63921569 0.14117647
v -0.00713621 0.01612283 -0.01612240 0.11764706 0.63921569 0.14117647
v -0.01847219 0.01650684 -0.01571511 0.11764706 0.63921569 0.14117647
v -0.01928132 0.01650629 -0.01571458 0.11764706 0.63921569 0.14117647
v -0.00713621 0.01650903 -0.01571829 0.11764706 0.63921569 0.14117647
v -0.01199370 0.01650848 -0.01571670 0.11764706 0.63921569 0.14117647
v -0.02009044 0.01611846 -0.01611816 0.11764706 0.63921569 0.14117647
v -0.02009044 0.01571421 -0.01651062 0.11764706 0.63921569 0.14117647
v -0.01928132 0.01571475 -0.01651115 0.11764706 0.63921569 0.14117647
v -0.01928132 0.01611846 -0.01611922 0.11764706 0.63921569 0.14117647
f 1 2 7
f 1 7 16
f 1 16 29
f 1 29 31
f 1 31 18
f 1 18 17
f 1 17 8
f 1 8 3
f 1 3 10
f 1 10 21
f 1 21 42
f 1 42 73
f 1 73 63
f 1 63 59
f 1 59 22
f 1 22 11
f 1 11 4
f 1 4 5
f 1 5 6
f 1 6 2
f 2 6 7
f 3 8 9
f 3 9 10
f 4 11 12
f 4 12 5
f 5 12 24
f 5 24 13
f 5 13 14
f 5 14 15
f 5 15 6
f 6 15 7
f 7 15 16
f 8 17 9
f 9 17 18
f 9 18 19
f 9 19 30
f 9 30 36
f 9 36 20
f 9 20 10
f 10 20 21
f 11 22 23
f 11 23 24
f 11 24 12
f 13 25 14
f 13 24 26
f 13 26 25
f 14 27 28
f 14 28 15
f 14 25 27
f 15 28 29
f 15 29 16
f 18 30 19
f 18 31 66
f 18 66 32
f 18 32 33
f 18 33 34
f 18 34 30
f 20 35 21
f 20 36 37
f 20 37 38
f 20 38 39
f 20 39 40
f 20 40 41
f 20 41 35
f 21 35 43
f 21 43 44
f 21 44 45
f 21 45 46
f 21 46 47
f 21 47 48
f 21 48 49
f 21 49 50
f 21 50 51
f 21 51 52
f 21 52 53
f 21 53 54
f 21 54 55
f 21 55 56
f 21 56 57
f 21 57 58
f 21 58 42
f 22 59 23
f 23 59 24
f 24 59 26
f 25 26 60
f 25 60 61
f 25 61 27
f 26 62 60
f 26 59 63
f 26 63 62
f 27 61 64
f 27 64 65
f 27 65 66
f 27 66 28
f 28 66 31
f 28 31 29
f 30 34 37
f 30 37 36
f 32 66 67
f 32 67 68
f 32 68 38
f 32 38 37
f 32 37 33
f 33 37 34
f 35 69 43
f 35 41 69
f 38 68 39
f 39 68 40
f 40 68 67
f 40 67 41
f 41 67 70
f 41 70 71
f 41 71 72
f 41 72 69
f 42 58 73
f 43 74 44
f 43 69 74
f 44 74 45
f 45 74 75
f 45 75 76
f 45 76 46
f 46 76 47
f 47 76 77
f 47 77 54
f 47 54 53
f 47 53 52
f 47 52 51
f 47 51 50
f 47 50 48
f 48 50 49
f 54 77 55
f 55 77 56
f 56 71 78
f 56 78 79
f 56 79 80
f 56 80 81
f 56 81 57
f 56 77 82
f 56 82 71
f 57 81 58
f 58 81 80
f 58 80 83
f 58 83 73
f 60 62 84
f 60 84 85
f 60 85 61
f 61 85 64
f 62 63 84
f 63 73 86
f 63 86 87
f 63 87 84
f 64 85 88
f 64 88 65
f 65 67 66
f 65 88 67
f 67 88 89
f 67 89 70
f 69 72 75
f 69 75 74
f 70 89 90
f 70 90 78
f 70 78 71
f 71 82 72
f 72 82 75
f 73 83 86
f 75 82 77
f 75 77 76
f 78 90 79
f 79 90 91
f 79 91 83
f 79 83 80
f 83 91 84
f 83 84 87
f 83 87 86
f 84 91 88
f 84 88 85
f 88 91 90
f 88 90 89

