# https://github.com/mikedh/trimesh
v 0.00515886 0.01706520 0.01317526 0.09411765 0.97254902 0.46666667
v 0.00502883 0.01412302 0.01671193 0.09411765 0.97254902 0.46666667
v 0.00501433 0.01412302 0.01671146 0.09411765 0.97254902 0.46666667
v 0.00339546 0.01412302 0.01671239 0.09411765 0.97254902 0.46666667
v 0.00266484 0.01412302 0.01671285 0.09411765 0.97254902 0.46666667
v 0.00257597 0.01412302 0.01671331 0.09411765 0.97254902 0.46666667
v 0.00257597 0.01702431 0.01338151 0.09411765 0.97254902 0.46666667
v 0.00515886 0.01852596 0.01317526 0.09411765 0.97254902 0.46666667
v 0.00569911 0.01713468 0.01317526 0.09411765 0.97254902 0.46666667
v 0.00735399 0.01447743 0.01645528 0.09411765 0.97254902 0.46666667
v 0.00515886 0.01412302 0.01671609 0.09411765 0.97254902 0.46666667
v 0.00257597 0.01412302 0.01789944 0.09411765 0.97254902 0.46666667
v 0.00257597 0.01723405 0.01338151 0.09411765 0.97254902 0.46666667
v 0.00257644 0.01833951 0.01338151 0.09411765 0.97254902 0.46666667
v 0.00542267 0.01855278 0.01317526 0.09411765 0.97254902 0.46666667
v 0.00735399 0.01749877 0.01317526 0.09411765 0.97254902 0.46666667
v 0.00515886 0.01412302 0.01789944 0.09411765 0.97254902 0.46666667
v 0.00735399 0.01577461 0.01645528 0.09411765 0.97254902 0.46666667
v 0.00420513 0.01440488 0.01767748 0.09411765 0.97254902 0.46666667
v 0.00339546 0.01440444 0.01767748 0.09411765 0.97254902 0.46666667
v 0.00257597 0.01440444 0.01767702 0.09411765 0.97254902 0.46666667
v 0.00257597 0.01800137 0.01399793 0.09411765 0.97254902 0.46666667
v 0.00582493 0.01858840 0.01317526 0.09411765 0.97254902 0.46666667
v 0.00735399 0.01861522 0.01317526 0.09411765 0.97254902 0.46666667
v 0.00515886 0.01440444 0.01767748 0.09411765 0.97254902 0.46666667
v 0.00501433 0.01440488 0.01767748 0.09411765 0.97254902 0.46666667
v 0.00515886 0.01528388 0.01691123 0.09411765 0.97254902 0.46666667
v 0.00515886 0.01487890 0.01727239 0.09411765 0.97254902 0.46666667
v 0.00735399 0.01612287 0.01612187 0.09411765 0.97254902 0.46666667
v 0.00257597 0.01612112 0.01611955 0.09411765 0.97254902 0.46666667
v 0.00257597 0.01611628 0.01612418 0.09411765 0.97254902 0.46666667
v 0.00257597 0.01571086 0.01651169 0.09411765 0.97254902 0.46666667
v 0.00257597 0.01528520 0.01691169 0.09411765 0.97254902 0.46666667
v 0.00258532 0.01528520 0.01691169 0.09411765 0.97254902 0.46666667
v 0.00339546 0.01528476 0.01691169 0.09411765 0.97254902 0.46666667
v 0.00257597 0.01488022 0.01727239 0.09411765 0.97254902 0.46666667
v 0.00257597 0.01767334 0.01440302 0.09411765 0.97254902 0.46666667
v 0.00735399 0.01767641 0.01440671 0.09411765 0.97254902 0.46666667
v 0.00735399 0.01800401 0.01400209 0.09411765 0.97254902 0.46666667
v 0.00735399 0.01840899 0.01346336 0.09411765 0.97254902 0.46666667
v 0.00663460 0.01860862 0.01317526 0.09411765 0.97254902 0.46666667
v 0.00638248 0.01860511 0.01317526 0.09411765 0.97254902 0.46666667
v 0.00258532 0.01488022 0.01727239 0.09411765 0.97254902 0.46666667
v 0.00735399 0.01647026 0.01576163 0.09411765 0.97254902 0.46666667
v 0.00257597 0.01650763 0.01571909 0.09411765 0.97254902 0.46666667
v 0.00257597 0.01726439 0.01489088 0.09411765 0.97254902 0.46666667
v 0.00735399 0.01763112 0.01446082 0.09411765 0.97254902 0.46666667
v 0.00735399 0.01651379 0.01571631 0.09411765 0.97254902 0.46666667
v 0.00257597 0.01691218 0.01529597 0.09411765 0.97254902 0.46666667
v 0.00735399 0.01687348 0.01534128 0.09411765 0.97254902 0.46666667
v 0.00735399 0.01723273 0.01493435 0.09411765 0.97254902 0.46666667
v 0.00735399 0.01727187 0.01488903 0.09411765 0.97254902 0.46666667
v 0.00735399 0.01691877 0.01529365 0.09411765 0.97254902 0.46666667
f 1 2 3
f 1 3 4
f 1 4 5
f 1 5 6
f 1 6 7
f 1 7 13
f 1 13 8
f 1 8 15
f 1 15 23
f 1 23 42
f 1 42 41
f 1 41 24
f 1 24 16
f 1 16 9
f 1 9 10
f 1 10 11
f 1 11 2
f 2 11 17
f 2 17 12
f 2 12 6
f 2 6 5
f 2 5 4
f 2 4 3
f 6 12 21
f 6 21 36
f 6 36 33
f 6 33 32
f 6 32 31
f 6 31 30
f 6 30 45
f 6 45 49
f 6 49 46
f 6 46 37
f 6 37 22
f 6 22 13
f 6 13 7
f 8 13 14
f 8 14 15
f 9 16 10
f 10 17 11
f 10 16 24
f 10 24 40
f 10 40 39
f 10 39 38
f 10 38 47
f 10 47 52
f 10 52 51
f 10 51 53
f 10 53 50
f 10 50 48
f 10 48 44
f 10 44 29
f 10 29 18
f 10 18 17
f 12 19 20
f 12 20 21
f 12 17 26
f 12 26 19
f 13 22 14
f 14 22 23
f 14 23 15
f 17 18 25
f 17 25 26
f 18 27 28
f 18 28 25
f 18 29 30
f 18 30 31
f 18 31 32
f 18 32 33
f 18 33 34
f 18 34 35
f 18 35 27
f 19 26 43
f 19 43 36
f 19 36 20
f 20 36 21
f 22 37 38
f 22 38 39
f 22 39 40
f 22 40 24
f 22 24 41
f 22 41 42
f 22 42 23
f 25 28 26
f 26 28 43
f 27 35 28
f 28 35 34
f 28 34 43
f 29 44 45
f 29 45 30
f 33 36 43
f 33 43 34
f 37 46 47
f 37 47 38
f 44 48 45
f 45 48 50
f 45 50 49
f 46 49 51
f 46 51 52
f 46 52 47
f 49 50 53
f 49 53 51

