# https://github.com/mikedh/trimesh
v 0.00501475 -0.01711099 -0.01168013 0.67058824 0.20784314 0.12549020
v 0.00257673 -0.01719636 -0.01168013 0.67058824 0.20784314 0.12549020
v 0.00515887 -0.01717614 -0.01168013 0.67058824 0.20784314 0.12549020
v 0.00501475 -0.01119202 -0.01712811 0.67058824 0.20784314 0.12549020
v 0.00257597 -0.01724878 -0.01168013 0.67058824 0.20784314 0.12549020
v 0.00257597 -0.01119202 -0.01721960 0.67058824 0.20784314 0.12549020
v 0.00515887 -0.01884160 -0.01168013 0.67058824 0.20784314 0.12549020
v 0.00515887 -0.01119202 -0.01719336 0.67058824 0.20784314 0.12549020
v 0.00257597 -0.01794822 -0.01168013 0.67058824 0.20784314 0.12549020
v 0.00257597 -0.01119202 -0.01794945 0.67058824 0.20784314 0.12549020
v 0.00257597 -0.01822754 -0.01255538 0.67058824 0.20784314 0.12549020
v 0.00257597 -0.01833013 -0.01336538 0.67058824 0.20784314 0.12549020
v 0.00515887 -0.01884235 -0.01174822 0.67058824 0.20784314 0.12549020
v 0.00515887 -0.01119202 -0.01892542 0.67058824 0.20784314 0.12549020
v 0.00257597 -0.01255569 -0.01823884 0.67058824 0.20784314 0.12549020
v 0.00257597 -0.01832639 -0.01337247 0.67058824 0.20784314 0.12549020
v 0.00258507 -0.01833088 -0.01336538 0.67058824 0.20784314 0.12549020
v 0.00515887 -0.01866188 -0.01255538 0.67058824 0.20784314 0.12549020
v 0.00515887 -0.01174917 -0.01884385 0.67058824 0.20784314 0.12549020
v 0.00257597 -0.01336521 -0.01833459 0.67058824 0.20784314 0.12549020
v 0.00257597 -0.01799315 -0.01398812 0.67058824 0.20784314 0.12549020
v 0.00515887 -0.01850612 -0.01318451 0.67058824 0.20784314 0.12549020
v 0.00515887 -0.01255569 -0.01866866 0.67058824 0.20784314 0.12549020
v 0.00515887 -0.01317874 -0.01851120 0.67058824 0.20784314 0.12549020
v 0.00257597 -0.01399125 -0.01799130 0.67058824 0.20784314 0.12549020
v 0.00257597 -0.01799015 -0.01399309 0.67058824 0.20784314 0.12549020
v 0.00515887 -0.01806504 -0.01388883 0.67058824 0.20784314 0.12549020
v 0.00515887 -0.01399125 -0.01799059 0.67058824 0.20784314 0.12549020
v 0.00339513 -0.01399125 -0.01799130 0.67058824 0.20784314 0.12549020
v 0.00257597 -0.01439639 -0.01767071 0.67058824 0.20784314 0.12549020
v 0.00257597 -0.01766065 -0.01439880 0.67058824 0.20784314 0.12549020
v 0.00339513 -0.01766515 -0.01439312 0.67058824 0.20784314 0.12549020
v 0.00515887 -0.01799315 -0.01398742 0.67058824 0.20784314 0.12549020
v 0.00515887 -0.01406314 -0.01793385 0.67058824 0.20784314 0.12549020
v 0.00515887 -0.01439639 -0.01767071 0.67058824 0.20784314 0.12549020
v 0.00515887 -0.01448101 -0.01759907 0.67058824 0.20784314 0.12549020
v 0.00257597 -0.01487191 -0.01726571 0.67058824 0.20784314 0.12549020
v 0.00257597 -0.01726002 -0.01487685 0.67058824 0.20784314 0.12549020
v 0.00339513 -0.01726002 -0.01487685 0.67058824 0.20784314 0.12549020
v 0.00420494 -0.01726002 -0.01487614 0.67058824 0.20784314 0.12549020
v 0.00515887 -0.01766440 -0.01439241 0.67058824 0.20784314 0.12549020
v 0.00515887 -0.01487116 -0.01726571 0.67058824 0.20784314 0.12549020
v 0.00339513 -0.01487191 -0.01726571 0.67058824 0.20784314 0.12549020
v 0.00257597 -0.01527629 -0.01690610 0.67058824 0.20784314 0.12549020
v 0.00257597 -0.01691105 -0.01528185 0.67058824 0.20784314 0.12549020
v 0.00339513 -0.01691105 -0.01528185 0.67058824 0.20784314 0.12549020
v 0.00420494 -0.01691105 -0.01528114 0.67058824 0.20784314 0.12549020
v 0.00501475 -0.01725927 -0.01487614 0.67058824 0.20784314 0.12549020
v 0.00515887 -0.01725927 -0.01487543 0.67058824 0.20784314 0.12549020
v 0.00515887 -0.01494305 -0.01720187 0.67058824 0.20784314 0.12549020
v 0.00258507 -0.01527629 -0.01690610 0.67058824 0.20784314 0.12549020
v 0.00257597 -0.01570314 -0.01650536 0.67058824 0.20784314 0.12549020
v 0.00257597 -0.01690656 -0.01528682 0.67058824 0.20784314 0.12549020
v 0.00258507 -0.01650667 -0.01570884 0.67058824 0.20784314 0.12549020
v 0.00420494 -0.01650592 -0.01570813 0.67058824 0.20784314 0.12549020
v 0.00501475 -0.01691030 -0.01528114 0.67058824 0.20784314 0.12549020
v 0.00515887 -0.01697246 -0.01520879 0.67058824 0.20784314 0.12549020
v 0.00515887 -0.01527480 -0.01690539 0.67058824 0.20784314 0.12549020
v 0.00501475 -0.01527554 -0.01690539 0.67058824 0.20784314 0.12549020
v 0.00501475 -0.01570763 -0.01650039 0.67058824 0.20784314 0.12549020
v 0.00258507 -0.01570763 -0.01650110 0.67058824 0.20784314 0.12549020
v 0.00257597 -0.01570763 -0.01650110 0.67058824 0.20784314 0.12549020
v 0.00257597 -0.01650667 -0.01570884 0.67058824 0.20784314 0.12549020
v 0.00258507 -0.01611277 -0.01611384 0.67058824 0.20784314 0.12549020
v 0.00420494 -0.01611277 -0.01611313 0.67058824 0.20784314 0.12549020
v 0.00515887 -0.01618241 -0.01604078 0.67058824 0.20784314 0.12549020
v 0.00515887 -0.01650517 -0.01570742 0.67058824 0.20784314 0.12549020
v 0.00515887 -0.01691030 -0.01528043 0.67058824 0.20784314 0.12549020
v 0.00515887 -0.01570689 -0.01650039 0.67058824 0.20784314 0.12549020
v 0.00515887 -0.01577953 -0.01643159 0.67058824 0.20784314 0.12549020
v 0.00257597 -0.01611277 -0.01611384 0.67058824 0.20784314 0.12549020
v 0.00515887 -0.01611202 -0.01611242 0.67058824 0.20784314 0.12549020
f 1 2 5
f 1 5 9
f 1 9 7
f 1 7 3
f 1 3 4
f 1 4 2
f 2 4 6
f 2 6 5
f 3 7 13
f 3 13 18
f 3 18 22
f 3 22 27
f 3 27 33
f 3 33 41
f 3 41 49
f 3 49 57
f 3 57 68
f 3 68 67
f 3 67 66
f 3 66 72
f 3 72 70
f 3 70 69
f 3 69 58
f 3 58 50
f 3 50 42
f 3 42 36
f 3 36 35
f 3 35 34
f 3 34 28
f 3 28 24
f 3 24 23
f 3 23 19
f 3 19 14
f 3 14 8
f 3 8 4
f 4 8 14
f 4 14 10
f 4 10 6
f 5 6 10
f 5 10 15
f 5 15 20
f 5 20 25
f 5 25 30
f 5 30 37
f 5 37 44
f 5 44 52
f 5 52 62
f 5 62 71
f 5 71 63
f 5 63 53
f 5 53 45
f 5 45 38
f 5 38 31
f 5 31 26
f 5 26 21
f 5 21 16
f 5 16 12
f 5 12 11
f 5 11 9
f 7 11 12
f 7 12 13
f 7 9 11
f 10 14 15
f 12 16 17
f 12 17 13
f 13 17 18
f 14 19 20
f 14 20 15
f 16 21 17
f 17 21 22
f 17 22 18
f 19 23 20
f 20 23 24
f 20 24 25
f 21 26 22
f 22 26 27
f 24 28 29
f 24 29 25
f 25 29 35
f 25 35 30
f 26 31 32
f 26 32 33
f 26 33 27
f 28 34 29
f 29 34 35
f 30 35 36
f 30 36 37
f 31 38 39
f 31 39 32
f 32 39 40
f 32 40 41
f 32 41 33
f 36 42 43
f 36 43 37
f 37 43 51
f 37 51 44
f 38 45 46
f 38 46 39
f 39 46 47
f 39 47 40
f 40 47 56
f 40 56 48
f 40 48 41
f 41 48 49
f 42 50 43
f 43 50 51
f 44 51 52
f 45 53 46
f 46 53 54
f 46 54 47
f 47 54 55
f 47 55 56
f 48 56 57
f 48 57 49
f 50 58 59
f 50 59 51
f 51 59 60
f 51 60 52
f 52 60 61
f 52 61 62
f 53 63 54
f 54 63 71
f 54 71 64
f 54 64 65
f 54 65 66
f 54 66 55
f 55 66 67
f 55 67 56
f 56 68 57
f 56 67 68
f 58 69 60
f 58 60 59
f 60 69 70
f 60 70 64
f 60 64 61
f 61 64 71
f 61 71 62
f 64 70 65
f 65 72 66
f 65 70 72

