# https://github.com/mikedh/trimesh
v 0.00257597 0.01397101 0.01801269 0.54117647 0.42352941 0.64313725
v 0.00257597 0.01336498 0.01833818 0.54117647 0.42352941 0.64313725
v 0.00257597 0.01397101 0.01680476 0.54117647 0.42352941 0.64313725
v 0.00177485 0.01397101 0.01801284 0.54117647 0.42352941 0.64313725
v -0.00389671 0.01336498 0.01833970 0.54117647 0.42352941 0.64313725
v -0.00065582 0.01336498 0.01833894 0.54117647 0.42352941 0.64313725
v 0.00257597 0.00002685 0.01794550 0.54117647 0.42352941 0.64313725
v 0.00257597 0.00002685 0.01722217 0.54117647 0.42352941 0.64313725
v -0.01928412 0.01397101 0.01679187 0.54117647 0.42352941 0.64313725
v -0.00308649 0.01397101 0.01801375 0.54117647 0.42352941 0.64313725
v -0.00713533 0.01336498 0.01834015 0.54117647 0.42352941 0.64313725
v -0.01280461 0.01336498 0.01834091 0.54117647 0.42352941 0.64313725
v -0.01523300 0.01336498 0.01834121 0.54117647 0.42352941 0.64313725
v -0.02009434 0.00002685 0.01794550 0.54117647 0.42352941 0.64313725
v -0.02009434 0.00002685 0.01722217 0.54117647 0.42352941 0.64313725
v -0.01990771 0.01397101 0.01681599 0.54117647 0.42352941 0.64313725
v -0.00632510 0.01397101 0.01801405 0.54117647 0.42352941 0.64313725
v -0.01523300 0.01397101 0.01801466 0.54117647 0.42352941 0.64313725
v -0.01766367 0.01336498 0.01834121 0.54117647 0.42352941 0.64313725
v -0.01928412 0.01336498 0.01834091 0.54117647 0.42352941 0.64313725
v -0.02009434 0.01336498 0.01831786 0.54117647 0.42352941 0.64313725
v -0.02059049 0.00002685 0.01788271 0.54117647 0.42352941 0.64313725
v -0.02059049 0.00002685 0.01752112 0.54117647 0.42352941 0.64313725
v -0.02049490 0.01397101 0.01694460 0.54117647 0.42352941 0.64313725
v -0.02024227 0.01397101 0.01686179 0.54117647 0.42352941 0.64313725
v -0.02005337 0.01397101 0.01682539 0.54117647 0.42352941 0.64313725
v -0.01607736 0.01397101 0.01801466 0.54117647 0.42352941 0.64313725
v -0.01928412 0.01397101 0.01801360 0.54117647 0.42352941 0.64313725
v -0.02009434 0.01397101 0.01801239 0.54117647 0.42352941 0.64313725
v -0.01688759 0.01397101 0.01801451 0.54117647 0.42352941 0.64313725
v -0.01769553 0.01397101 0.01801436 0.54117647 0.42352941 0.64313725
v -0.02061552 0.01391914 0.01794004 0.54117647 0.42352941 0.64313725
v -0.02067470 0.01336498 0.01805743 0.54117647 0.42352941 0.64313725
v -0.02067470 0.01336498 0.01745104 0.54117647 0.42352941 0.64313725
v -0.02063600 0.01397101 0.01738734 0.54117647 0.42352941 0.64313725
v -0.02026048 0.01397101 0.01798084 0.54117647 0.42352941 0.64313725
v -0.02055863 0.01397101 0.01791152 0.54117647 0.42352941 0.64313725
v -0.02061780 0.01397101 0.01779474 0.54117647 0.42352941 0.64313725
f 1 2 7
f 1 7 8
f 1 8 3
f 1 3 9
f 1 9 16
f 1 16 26
f 1 26 25
f 1 25 24
f 1 24 35
f 1 35 38
f 1 38 37
f 1 37 36
f 1 36 29
f 1 29 28
f 1 28 31
f 1 31 30
f 1 30 27
f 1 27 18
f 1 18 17
f 1 17 10
f 1 10 4
f 1 4 5
f 1 5 6
f 1 6 2
f 2 6 7
f 3 8 9
f 4 10 5
f 5 10 11
f 5 11 7
f 5 7 6
f 7 11 12
f 7 12 13
f 7 13 19
f 7 19 14
f 7 14 22
f 7 22 23
f 7 23 15
f 7 15 8
f 8 15 9
f 9 15 16
f 10 17 13
f 10 13 12
f 10 12 11
f 13 18 27
f 13 27 19
f 13 17 18
f 14 19 20
f 14 20 21
f 14 21 22
f 15 23 24
f 15 24 25
f 15 25 26
f 15 26 16
f 19 27 30
f 19 30 20
f 20 28 29
f 20 29 21
f 20 30 31
f 20 31 28
f 21 29 32
f 21 32 33
f 21 33 22
f 22 33 34
f 22 34 23
f 23 34 24
f 24 34 35
f 29 36 32
f 32 36 37
f 32 37 38
f 32 38 33
f 33 38 35
f 33 35 34

