# https://github.com/mikedh/trimesh
v 0.00702950 0.01703406 0.00002832 0.67843137 0.35686275 0.43529412
v 0.00515908 0.01709280 -0.01314955 0.67843137 0.35686275 0.43529412
v 0.00735446 0.01703406 0.00002832 0.67843137 0.35686275 0.43529412
v 0.00702950 0.01703406 0.00040453 0.67843137 0.35686275 0.43529412
v 0.00515908 0.01706569 0.01317526 0.67843137 0.35686275 0.43529412
v 0.00515908 0.01853663 -0.01314955 0.67843137 0.35686275 0.43529412
v 0.00583585 0.01719731 -0.01314955 0.67843137 0.35686275 0.43529412
v 0.00735446 0.01707981 -0.00308191 0.67843137 0.35686275 0.43529412
v 0.00735446 0.01703406 0.00332150 0.67843137 0.35686275 0.43529412
v 0.00705099 0.01703406 0.00085032 0.67843137 0.35686275 0.43529412
v 0.00705228 0.01703406 0.00087609 0.67843137 0.35686275 0.43529412
v 0.00710214 0.01703406 0.00146618 0.67843137 0.35686275 0.43529412
v 0.00716340 0.01703406 0.00202536 0.67843137 0.35686275 0.43529412
v 0.00717973 0.01703406 0.00215935 0.67843137 0.35686275 0.43529412
v 0.00727601 0.01703406 0.00282159 0.67843137 0.35686275 0.43529412
v 0.00732415 0.01703406 0.00313854 0.67843137 0.35686275 0.43529412
v 0.00569960 0.01713573 0.01317526 0.67843137 0.35686275 0.43529412
v 0.00515908 0.01852702 0.01317526 0.67843137 0.35686275 0.43529412
v 0.00517928 0.01854623 -0.01314955 0.67843137 0.35686275 0.43529412
v 0.00515908 0.01860950 -0.01291248 0.67843137 0.35686275 0.43529412
v 0.00518100 0.02146438 -0.00445278 0.67843137 0.35686275 0.43529412
v 0.00520271 0.02146438 -0.00526447 0.67843137 0.35686275 0.43529412
v 0.00519862 0.02065435 -0.00769442 0.67843137 0.35686275 0.43529412
v 0.00531898 0.02119776 -0.00769442 0.67843137 0.35686275 0.43529412
v 0.00536519 0.02111811 -0.00826132 0.67843137 0.35686275 0.43529412
v 0.00534735 0.02034028 -0.00993368 0.67843137 0.35686275 0.43529412
v 0.00535358 0.01952290 -0.01148750 0.67843137 0.35686275 0.43529412
v 0.00735446 0.01752550 -0.01314955 0.67843137 0.35686275 0.43529412
v 0.00735446 0.01749951 0.01317526 0.67843137 0.35686275 0.43529412
v 0.00542300 0.01855357 0.01317526 0.67843137 0.35686275 0.43529412
v 0.00582532 0.01868293 0.01303612 0.67843137 0.35686275 0.43529412
v 0.00531640 0.01865582 0.01299746 0.67843137 0.35686275 0.43529412
v 0.00582532 0.01958786 0.01159825 0.67843137 0.35686275 0.43529412
v 0.00535358 0.01952234 0.01148745 0.67843137 0.35686275 0.43529412
v 0.00515908 0.01852985 0.01317011 0.67843137 0.35686275 0.43529412
v 0.00582532 0.01860724 -0.01314955 0.67843137 0.35686275 0.43529412
v 0.00582532 0.01958786 -0.01159830 0.67843137 0.35686275 0.43529412
v 0.00531640 0.01865638 -0.01299752 0.67843137 0.35686275 0.43529412
v 0.00582532 0.01868349 -0.01303617 0.67843137 0.35686275 0.43529412
v 0.00515908 0.01888798 -0.01197452 0.67843137 0.35686275 0.43529412
v 0.00517971 0.02146438 -0.00364365 0.67843137 0.35686275 0.43529412
v 0.00526460 0.02227441 -0.00040459 0.67843137 0.35686275 0.43529412
v 0.00527922 0.02227441 -0.00121371 0.67843137 0.35686275 0.43529412
v 0.00530114 0.02203886 -0.00445278 0.67843137 0.35686275 0.43529412
v 0.00532306 0.02198068 -0.00526447 0.67843137 0.35686275 0.43529412
v 0.00536905 0.02192080 -0.00586230 0.67843137 0.35686275 0.43529412
v 0.00582532 0.02116726 -0.00838501 0.67843137 0.35686275 0.43529412
v 0.00582532 0.02041145 -0.01007282 0.67843137 0.35686275 0.43529412
v 0.00582532 0.02182760 -0.00641631 0.67843137 0.35686275 0.43529412
v 0.00582532 0.02020471 -0.01047996 0.67843137 0.35686275 0.43529412
v 0.00735446 0.01863435 -0.01314955 0.67843137 0.35686275 0.43529412
v 0.00735446 0.01861571 0.01317526 0.67843137 0.35686275 0.43529412
v 0.00582532 0.01858916 0.01317526 0.67843137 0.35686275 0.43529412
v 0.00663470 0.01961215 0.01162917 0.67843137 0.35686275 0.43529412
v 0.00663470 0.01869649 0.01305158 0.67843137 0.35686275 0.43529412
v 0.00582532 0.02020471 0.01047733 0.67843137 0.35686275 0.43529412
v 0.00534735 0.02034028 0.00993362 0.67843137 0.35686275 0.43529412
v 0.00536519 0.02111811 0.00826384 0.67843137 0.35686275 0.43529412
v 0.00531898 0.02119776 0.00769179 0.67843137 0.35686275 0.43529412
v 0.00519862 0.02065435 0.00769179 0.67843137 0.35686275 0.43529412
v 0.00520271 0.02146495 0.00526442 0.67843137 0.35686275 0.43529412
v 0.00518100 0.02146495 0.00445530 0.67843137 0.35686275 0.43529412
v 0.00515908 0.01868406 0.01255167 0.67843137 0.35686275 0.43529412
v 0.00663470 0.01862757 -0.01314955 0.67843137 0.35686275 0.43529412
v 0.00663470 0.01869592 -0.01305163 0.67843137 0.35686275 0.43529412
v 0.00663470 0.01961159 -0.01162922 0.67843137 0.35686275 0.43529412
v 0.00515908 0.01899644 -0.01097729 0.67843137 0.35686275 0.43529412
v 0.00517971 0.02146495 0.00002832 0.67843137 0.35686275 0.43529412
v 0.00526460 0.02227498 0.00002832 0.67843137 0.35686275 0.43529412
v 0.00515908 0.01901960 -0.01014240 0.67843137 0.35686275 0.43529412
v 0.00538496 0.02271106 -0.00040459 0.67843137 0.35686275 0.43529412
v 0.00539957 0.02269751 -0.00121371 0.67843137 0.35686275 0.43529412
v 0.00541612 0.02268282 -0.00166981 0.67843137 0.35686275 0.43529412
v 0.00582532 0.02213771 -0.00526447 0.67843137 0.35686275 0.43529412
v 0.00582532 0.02196317 -0.00600918 0.67843137 0.35686275 0.43529412
v 0.00663470 0.02118703 -0.00842108 0.67843137 0.35686275 0.43529412
v 0.00663470 0.02043800 -0.01010375 0.67843137 0.35686275 0.43529412
v 0.00663470 0.02185641 -0.00646785 0.67843137 0.35686275 0.43529412
v 0.00663470 0.02144009 -0.00769442 0.67843137 0.35686275 0.43529412
v 0.00663470 0.02022448 -0.01050831 0.67843137 0.35686275 0.43529412
v 0.00680255 0.01862927 -0.01314955 0.67843137 0.35686275 0.43529412
v 0.00735446 0.01869931 -0.01305678 0.67843137 0.35686275 0.43529412
v 0.00735446 0.01869988 0.01305673 0.67843137 0.35686275 0.43529412
v 0.00663470 0.01860893 0.01317526 0.67843137 0.35686275 0.43529412
v 0.00638239 0.01860554 0.01317526 0.67843137 0.35686275 0.43529412
v 0.00735446 0.01961498 0.01163175 0.67843137 0.35686275 0.43529412
v 0.00663470 0.02022391 0.01050825 0.67843137 0.35686275 0.43529412
v 0.00663470 0.02043800 0.01010369 0.67843137 0.35686275 0.43529412
v 0.00582532 0.02041202 0.01007277 0.67843137 0.35686275 0.43529412
v 0.00582532 0.02116669 0.00838238 0.67843137 0.35686275 0.43529412
v 0.00582532 0.02182816 0.00641626 0.67843137 0.35686275 0.43529412
v 0.00536905 0.02192080 0.00586224 0.67843137 0.35686275 0.43529412
v 0.00532306 0.02198011 0.00526442 0.67843137 0.35686275 0.43529412
v 0.00530114 0.02203886 0.00445530 0.67843137 0.35686275 0.43529412
v 0.00527922 0.02227498 0.00121366 0.67843137 0.35686275 0.43529412
v 0.00526460 0.02227498 0.00040453 0.67843137 0.35686275 0.43529412
v 0.00517971 0.02146495 0.00364360 0.67843137 0.35686275 0.43529412
v 0.00515908 0.01899644 0.01093343 0.67843137 0.35686275 0.43529412
v 0.00515908 0.01884900 0.01175028 0.67843137 0.35686275 0.43529412
v 0.00735446 0.01961498 -0.01163438 0.67843137 0.35686275 0.43529412
v 0.00532930 0.02250940 0.00002832 0.67843137 0.35686275 0.43529412
v 0.00515908 0.01901960 0.00002832 0.67843137 0.35686275 0.43529412
v 0.00538496 0.02271106 0.00040453 0.67843137 0.35686275 0.43529412
v 0.00582532 0.02277037 0.00002832 0.67843137 0.35686275 0.43529412
v 0.00582532 0.02276981 -0.00040459 0.67843137 0.35686275 0.43529412
v 0.00582532 0.02274270 -0.00121371 0.67843137 0.35686275 0.43529412
v 0.00590355 0.02269412 -0.00197387 0.67843137 0.35686275 0.43529412
v 0.00622571 0.02267943 -0.00242997 0.67843137 0.35686275 0.43529412
v 0.00568584 0.02263819 -0.00220836 0.67843137 0.35686275 0.43529412
v 0.00582532 0.02227780 -0.00445278 0.67843137 0.35686275 0.43529412
v 0.00663470 0.02218347 -0.00526447 0.67843137 0.35686275 0.43529412
v 0.00663470 0.02197955 -0.00606071 0.67843137 0.35686275 0.43529412
v 0.00735446 0.02122035 -0.00834635 0.67843137 0.35686275 0.43529412
v 0.00735446 0.02119154 -0.00842881 0.67843137 0.35686275 0.43529412
v 0.00735446 0.02044252 -0.01010890 0.67843137 0.35686275 0.43529412
v 0.00715222 0.02185697 -0.00647300 0.67843137 0.35686275 0.43529412
v 0.00735446 0.02196317 -0.00614317 0.67843137 0.35686275 0.43529412
v 0.00735446 0.02022504 -0.01051346 0.67843137 0.35686275 0.43529412
v 0.00735446 0.02022448 0.01051341 0.67843137 0.35686275 0.43529412
v 0.00735446 0.02044252 0.01010885 0.67843137 0.35686275 0.43529412
v 0.00735446 0.02119154 0.00842618 0.67843137 0.35686275 0.43529412
v 0.00663470 0.02118703 0.00841845 0.67843137 0.35686275 0.43529412
v 0.00663470 0.02144009 0.00769179 0.67843137 0.35686275 0.43529412
v 0.00663470 0.02185641 0.00646522 0.67843137 0.35686275 0.43529412
v 0.00582532 0.02196317 0.00600912 0.67843137 0.35686275 0.43529412
v 0.00582532 0.02213771 0.00526442 0.67843137 0.35686275 0.43529412
v 0.00541612 0.02268338 0.00166975 0.67843137 0.35686275 0.43529412
v 0.00539957 0.02269807 0.00121366 0.67843137 0.35686275 0.43529412
v 0.00515908 0.01901903 0.01012431 0.67843137 0.35686275 0.43529412
v 0.00582532 0.02277037 0.00040453 0.67843137 0.35686275 0.43529412
v 0.00663470 0.02279749 -0.00040459 0.67843137 0.35686275 0.43529412
v 0.00663470 0.02276925 -0.00121371 0.67843137 0.35686275 0.43529412
v 0.00735446 0.02220493 -0.00517429 0.67843137 0.35686275 0.43529412
v 0.00663470 0.02232808 -0.00445278 0.67843137 0.35686275 0.43529412
v 0.00735446 0.02277602 -0.00121371 0.67843137 0.35686275 0.43529412
v 0.00735446 0.02271219 -0.00208210 0.67843137 0.35686275 0.43529412
v 0.00735446 0.02271050 -0.00210271 0.67843137 0.35686275 0.43529412
v 0.00735446 0.02270880 -0.00212075 0.67843137 0.35686275 0.43529412
v 0.00636197 0.02267943 -0.00242997 0.67843137 0.35686275 0.43529412
v 0.00735446 0.02218912 -0.00526447 0.67843137 0.35686275 0.43529412
v 0.00735446 0.02193266 -0.00623851 0.67843137 0.35686275 0.43529412
v 0.00735446 0.02186318 0.00647810 0.67843137 0.35686275 0.43529412
v 0.00663470 0.02197955 0.00606066 0.67843137 0.35686275 0.43529412
v 0.00663470 0.02218403 0.00526442 0.67843137 0.35686275 0.43529412
v 0.00622571 0.02268000 0.00243249 0.67843137 0.35686275 0.43529412
v 0.00582532 0.02227837 0.00445530 0.67843137 0.35686275 0.43529412
v 0.00568584 0.02263819 0.00220831 0.67843137 0.35686275 0.43529412
v 0.00590355 0.02269412 0.00197382 0.67843137 0.35686275 0.43529412
v 0.00582532 0.02274270 0.00121366 0.67843137 0.35686275 0.43529412
v 0.00663470 0.02279749 0.00040453 0.67843137 0.35686275 0.43529412
v 0.00735446 0.02280483 -0.00040459 0.67843137 0.35686275 0.43529412
v 0.00700930 0.02280144 0.00002832 0.67843137 0.35686275 0.43529412
v 0.00735446 0.02277941 -0.00112352 0.67843137 0.35686275 0.43529412
v 0.00705250 0.02267661 -0.00242482 0.67843137 0.35686275 0.43529412
v 0.00735446 0.02196317 0.00614312 0.67843137 0.35686275 0.43529412
v 0.00735446 0.02216709 0.00535461 0.67843137 0.35686275 0.43529412
v 0.00735446 0.02218968 0.00526442 0.67843137 0.35686275 0.43529412
v 0.00663470 0.02232808 0.00445530 0.67843137 0.35686275 0.43529412
v 0.00735446 0.02271050 0.00210266 0.67843137 0.35686275 0.43529412
v 0.00735446 0.02276925 0.00131415 0.67843137 0.35686275 0.43529412
v 0.00735446 0.02277659 0.00121366 0.67843137 0.35686275 0.43529412
v 0.00663470 0.02276925 0.00121366 0.67843137 0.35686275 0.43529412
v 0.00735446 0.02268169 0.00245053 0.67843137 0.35686275 0.43529412
v 0.00735446 0.02280483 0.00040453 0.67843137 0.35686275 0.43529412
f 1 2 3
f 1 3 9
f 1 9 16
f 1 16 15
f 1 15 14
f 1 14 13
f 1 13 12
f 1 12 11
f 1 11 10
f 1 10 4
f 1 4 5
f 1 5 2
f 2 6 19
f 2 19 36
f 2 36 64
f 2 64 81
f 2 81 51
f 2 51 28
f 2 28 7
f 2 7 8
f 2 8 3
f 2 5 18
f 2 18 35
f 2 35 63
f 2 63 99
f 2 99 98
f 2 98 129
f 2 129 102
f 2 102 70
f 2 70 67
f 2 67 40
f 2 40 20
f 2 20 6
f 3 8 28
f 3 28 51
f 3 51 82
f 3 82 100
f 3 100 118
f 3 118 115
f 3 115 114
f 3 114 113
f 3 113 141
f 3 141 117
f 3 117 140
f 3 140 133
f 3 133 138
f 3 138 137
f 3 137 136
f 3 136 135
f 3 135 153
f 3 153 151
f 3 151 164
f 3 164 161
f 3 161 160
f 3 160 159
f 3 159 163
f 3 163 157
f 3 157 156
f 3 156 155
f 3 155 142
f 3 142 121
f 3 121 120
f 3 120 119
f 3 119 86
f 3 86 83
f 3 83 52
f 3 52 29
f 3 29 9
f 4 10 5
f 5 10 11
f 5 11 12
f 5 12 13
f 5 13 14
f 5 14 15
f 5 15 16
f 5 16 9
f 5 9 17
f 5 17 29
f 5 29 52
f 5 52 84
f 5 84 85
f 5 85 53
f 5 53 30
f 5 30 18
f 6 20 21
f 6 21 22
f 6 22 23
f 6 23 24
f 6 24 25
f 6 25 26
f 6 26 27
f 6 27 19
f 7 28 8
f 9 29 17
f 18 30 31
f 18 31 32
f 18 32 33
f 18 33 34
f 18 34 35
f 19 27 37
f 19 37 38
f 19 38 39
f 19 39 36
f 20 40 21
f 21 41 42
f 21 42 43
f 21 43 44
f 21 44 22
f 21 40 41
f 22 45 24
f 22 24 23
f 22 44 45
f 24 45 46
f 24 46 25
f 25 47 48
f 25 48 26
f 25 46 49
f 25 49 47
f 26 48 50
f 26 50 27
f 27 50 37
f 30 53 31
f 31 54 33
f 31 33 32
f 31 53 55
f 31 55 54
f 33 56 34
f 33 54 56
f 34 56 57
f 34 57 35
f 35 57 58
f 35 58 59
f 35 59 60
f 35 60 61
f 35 61 62
f 35 62 63
f 36 39 65
f 36 65 64
f 37 66 39
f 37 39 38
f 37 50 66
f 39 66 65
f 40 67 41
f 41 68 69
f 41 69 42
f 41 67 70
f 41 70 68
f 42 69 71
f 42 71 43
f 43 71 72
f 43 72 44
f 44 72 73
f 44 73 45
f 45 73 46
f 46 73 74
f 46 74 75
f 46 75 49
f 47 76 77
f 47 77 48
f 47 49 78
f 47 78 79
f 47 79 76
f 48 77 50
f 49 75 78
f 50 77 80
f 50 80 66
f 51 81 82
f 52 83 84
f 53 85 55
f 54 55 83
f 54 83 86
f 54 86 87
f 54 87 56
f 55 85 84
f 55 84 83
f 56 87 88
f 56 88 89
f 56 89 57
f 57 89 58
f 58 89 90
f 58 90 91
f 58 91 92
f 58 92 59
f 59 92 93
f 59 93 61
f 59 61 60
f 61 93 94
f 61 94 62
f 62 94 95
f 62 95 96
f 62 96 97
f 62 97 98
f 62 98 99
f 62 99 63
f 64 65 81
f 65 66 100
f 65 100 82
f 65 82 81
f 66 80 100
f 68 70 102
f 68 102 97
f 68 97 96
f 68 96 69
f 69 96 101
f 69 101 71
f 71 101 103
f 71 103 130
f 71 130 104
f 71 104 105
f 71 105 72
f 72 105 106
f 72 106 73
f 73 107 108
f 73 108 109
f 73 109 110
f 73 110 74
f 73 106 107
f 74 110 108
f 74 108 111
f 74 111 75
f 75 112 78
f 75 111 112
f 76 79 113
f 76 113 114
f 76 114 77
f 77 115 80
f 77 114 115
f 78 116 79
f 78 112 117
f 78 117 116
f 79 116 113
f 80 118 100
f 80 115 118
f 86 119 87
f 87 119 120
f 87 120 88
f 88 120 121
f 88 121 122
f 88 122 90
f 88 90 89
f 90 122 123
f 90 123 124
f 90 124 91
f 91 124 125
f 91 125 92
f 92 125 126
f 92 126 127
f 92 127 93
f 93 127 94
f 94 127 128
f 94 128 95
f 95 128 103
f 95 103 96
f 96 103 101
f 97 129 98
f 97 102 129
f 103 128 130
f 104 130 150
f 104 150 131
f 104 131 105
f 105 131 106
f 106 132 108
f 106 108 107
f 106 131 132
f 108 133 134
f 108 134 111
f 108 110 109
f 108 132 135
f 108 135 136
f 108 136 137
f 108 137 138
f 108 138 139
f 108 139 133
f 111 140 112
f 111 134 140
f 112 140 117
f 113 116 141
f 116 117 141
f 121 142 123
f 121 123 122
f 123 142 124
f 124 142 143
f 124 143 125
f 125 144 126
f 125 143 144
f 126 145 146
f 126 146 127
f 126 144 145
f 127 146 147
f 127 147 145
f 127 145 148
f 127 148 149
f 127 149 128
f 128 149 130
f 130 149 150
f 131 151 132
f 131 150 152
f 131 152 151
f 132 151 153
f 132 153 135
f 133 140 134
f 133 139 154
f 133 154 138
f 138 154 139
f 142 155 143
f 143 155 156
f 143 156 144
f 144 156 157
f 144 157 158
f 144 158 145
f 145 159 160
f 145 160 161
f 145 161 162
f 145 162 149
f 145 149 148
f 145 147 146
f 145 158 163
f 145 163 159
f 149 162 150
f 150 162 161
f 150 161 164
f 150 164 152
f 151 152 164
f 157 163 158

