# https://github.com/mikedh/trimesh
v 0.00735446 0.01578245 -0.01644766 0.81960784 0.09411765 0.83529412
v 0.00735446 0.01571758 -0.01650982 0.81960784 0.09411765 0.83529412
v 0.00515887 0.01571450 -0.01650733 0.81960784 0.09411765 0.83529412
v 0.00515887 0.01577627 -0.01644766 0.81960784 0.09411765 0.83529412
v 0.00735446 -0.01577082 -0.01644766 0.81960784 0.09411765 0.83529412
v 0.00735446 0.01528827 -0.01691509 0.81960784 0.09411765 0.83529412
v 0.00515887 0.01528209 -0.01691198 0.81960784 0.09411765 0.83529412
v 0.00515887 -0.01576156 -0.01644766 0.81960784 0.09411765 0.83529412
v 0.00515887 -0.01570596 -0.01650112 0.81960784 0.09411765 0.83529412
v 0.00735446 -0.01566272 -0.01654960 0.81960784 0.09411765 0.83529412
v 0.00735446 0.01492690 -0.01723707 0.81960784 0.09411765 0.83529412
v 0.00515887 0.01521105 -0.01697601 0.81960784 0.09411765 0.83529412
v 0.00515887 -0.01535077 -0.01683366 0.81960784 0.09411765 0.83529412
v 0.00735446 -0.01527973 -0.01690950 0.81960784 0.09411765 0.83529412
v 0.00735446 0.01488057 -0.01727686 0.81960784 0.09411765 0.83529412
v 0.00515887 0.01479409 -0.01734523 0.81960784 0.09411765 0.83529412
v 0.00515887 0.01487748 -0.01727313 0.81960784 0.09411765 0.83529412
v 0.00515887 -0.01527356 -0.01690577 0.81960784 0.09411765 0.83529412
v 0.00735446 -0.01487512 -0.01727002 0.81960784 0.09411765 0.83529412
v 0.00735446 0.01440801 -0.01768213 0.81960784 0.09411765 0.83529412
v 0.00515887 0.01440183 -0.01767840 0.81960784 0.09411765 0.83529412
v 0.00515887 -0.01486895 -0.01726629 0.81960784 0.09411765 0.83529412
v 0.00735446 -0.01439948 -0.01767529 0.81960784 0.09411765 0.83529412
v 0.00515887 -0.01447978 -0.01759946 0.81960784 0.09411765 0.83529412
v 0.00515887 0.01433080 -0.01773496 0.81960784 0.09411765 0.83529412
v 0.00735446 0.01404664 -0.01796371 0.81960784 0.09411765 0.83529412
v 0.00515887 0.01399723 -0.01799727 0.81960784 0.09411765 0.83529412
v 0.00515887 -0.01439330 -0.01767156 0.81960784 0.09411765 0.83529412
v 0.00515887 -0.01406282 -0.01793450 0.81960784 0.09411765 0.83529412
v 0.00735446 -0.01399487 -0.01799292 0.81960784 0.09411765 0.83529412
v 0.00735446 0.01400032 -0.01799914 0.81960784 0.09411765 0.83529412
v 0.00735446 0.01352467 -0.01835904 0.81960784 0.09411765 0.83529412
v 0.00735446 0.01310462 -0.01866797 0.81960784 0.09411765 0.83529412
v 0.00515887 0.01389839 -0.01806938 0.81960784 0.09411765 0.83529412
v 0.00515887 -0.01398869 -0.01799106 0.81960784 0.09411765 0.83529412
v 0.00735446 -0.01341112 -0.01843052 0.81960784 0.09411765 0.83529412
v 0.00735446 0.01305829 -0.01870091 0.81960784 0.09411765 0.83529412
v 0.00663485 0.01305211 -0.01869594 0.81960784 0.09411765 0.83529412
v 0.00582517 0.01303358 -0.01868102 0.81960784 0.09411765 0.83529412
v 0.00532544 0.01299652 -0.01865491 0.81960784 0.09411765 0.83529412
v 0.00515887 0.01317566 -0.01851941 0.81960784 0.09411765 0.83529412
v 0.00515887 -0.01317639 -0.01851195 0.81960784 0.09411765 0.83529412
v 0.00533146 -0.01299107 -0.01865181 0.81960784 0.09411765 0.83529412
v 0.00582517 -0.01302504 -0.01867605 0.81960784 0.09411765 0.83529412
v 0.00663485 -0.01304358 -0.01869034 0.81960784 0.09411765 0.83529412
v 0.00735446 -0.01304975 -0.01869594 0.81960784 0.09411765 0.83529412
v 0.00735446 0.01163135 -0.01961464 0.81960784 0.09411765 0.83529412
v 0.00663485 0.01162517 -0.01961029 0.81960784 0.09411765 0.83529412
v 0.00582517 0.01159429 -0.01958605 0.81960784 0.09411765 0.83529412
v 0.00515887 0.01293166 -0.01859648 0.81960784 0.09411765 0.83529412
v 0.00535403 0.01148619 -0.01952141 0.81960784 0.09411765 0.83529412
v 0.00534758 0.00992952 -0.02033941 0.81960784 0.09411765 0.83529412
v 0.00536607 0.00825858 -0.02111702 0.81960784 0.09411765 0.83529412
v 0.00531943 0.00769337 -0.02119596 0.81960784 0.09411765 0.83529412
v 0.00519928 0.00769337 -0.02065456 0.81960784 0.09411765 0.83529412
v 0.00520013 -0.00769410 -0.02065456 0.81960784 0.09411765 0.83529412
v 0.00532050 -0.00769410 -0.02119409 0.81960784 0.09411765 0.83529412
v 0.00536736 -0.00825314 -0.02111515 0.81960784 0.09411765 0.83529412
v 0.00534844 -0.00992408 -0.02033755 0.81960784 0.09411765 0.83529412
v 0.00535532 -0.01148074 -0.01951892 0.81960784 0.09411765 0.83529412
v 0.00582517 -0.01158575 -0.01958170 0.81960784 0.09411765 0.83529412
v 0.00515887 -0.01255249 -0.01866983 0.81960784 0.09411765 0.83529412
v 0.00518122 -0.00445414 -0.02146448 0.81960784 0.09411765 0.83529412
v 0.00520465 -0.00526336 -0.02146448 0.81960784 0.09411765 0.83529412
v 0.00663485 -0.01161664 -0.01960594 0.81960784 0.09411765 0.83529412
v 0.00735446 -0.01162281 -0.01961029 0.81960784 0.09411765 0.83529412
v 0.00735446 0.01015190 -0.02041649 0.81960784 0.09411765 0.83529412
v 0.00663485 0.01050709 -0.02022069 0.81960784 0.09411765 0.83529412
v 0.00582517 0.01047621 -0.02020142 0.81960784 0.09411765 0.83529412
v 0.00515887 0.01198036 -0.01888241 0.81960784 0.09411765 0.83529412
v 0.00520400 0.00526263 -0.02146448 0.81960784 0.09411765 0.83529412
v 0.00518100 0.00445341 -0.02146448 0.81960784 0.09411765 0.83529412
v 0.00582517 0.01006851 -0.02041027 0.81960784 0.09411765 0.83529412
v 0.00582517 0.00837904 -0.02116550 0.81960784 0.09411765 0.83529412
v 0.00582517 0.00600081 -0.02196113 0.81960784 0.09411765 0.83529412
v 0.00537037 0.00585564 -0.02191949 0.81960784 0.09411765 0.83529412
v 0.00532415 0.00526263 -0.02197854 0.81960784 0.09411765 0.83529412
v 0.00532501 -0.00526336 -0.02197729 0.81960784 0.09411765 0.83529412
v 0.00537123 -0.00585020 -0.02191824 0.81960784 0.09411765 0.83529412
v 0.00582517 -0.00837051 -0.02116239 0.81960784 0.09411765 0.83529412
v 0.00582517 -0.01005998 -0.02040717 0.81960784 0.09411765 0.83529412
v 0.00582517 -0.00599227 -0.02195989 0.81960784 0.09411765 0.83529412
v 0.00582517 -0.01046767 -0.02019458 0.81960784 0.09411765 0.83529412
v 0.00515887 -0.01174636 -0.01884450 0.81960784 0.09411765 0.83529412
v 0.00517950 -0.00364493 -0.02146448 0.81960784 0.09411765 0.83529412
v 0.00526827 -0.00040497 -0.02227441 0.81960784 0.09411765 0.83529412
v 0.00528332 -0.00121419 -0.02227441 0.81960784 0.09411765 0.83529412
v 0.00530159 -0.00445414 -0.02203634 0.81960784 0.09411765 0.83529412
v 0.00515887 -0.01093405 -0.01899181 0.81960784 0.09411765 0.83529412
v 0.00663485 -0.01049856 -0.02021199 0.81960784 0.09411765 0.83529412
v 0.00735446 -0.01009704 -0.02043638 0.81960784 0.09411765 0.83529412
v 0.00735446 0.01010558 -0.02044073 0.81960784 0.09411765 0.83529412
v 0.00663485 0.01009940 -0.02043638 0.81960784 0.09411765 0.83529412
v 0.00515887 0.01097965 -0.01899430 0.81960784 0.09411765 0.83529412
v 0.00517950 0.00364420 -0.02146448 0.81960784 0.09411765 0.83529412
v 0.00530137 0.00445341 -0.02203697 0.81960784 0.09411765 0.83529412
v 0.00528310 0.00121346 -0.02227441 0.81960784 0.09411765 0.83529412
v 0.00526827 0.00040424 -0.02227441 0.81960784 0.09411765 0.83529412
v 0.00663485 0.00841919 -0.02118601 0.81960784 0.09411765 0.83529412
v 0.00663485 0.00769337 -0.02143962 0.81960784 0.09411765 0.83529412
v 0.00663485 0.00646101 -0.02185111 0.81960784 0.09411765 0.83529412
v 0.00663485 0.00605640 -0.02197792 0.81960784 0.09411765 0.83529412
v 0.00663485 0.00526263 -0.02217993 0.81960784 0.09411765 0.83529412
v 0.00582517 0.00526263 -0.02213393 0.81960784 0.09411765 0.83529412
v 0.00541873 0.00163351 -0.02268093 0.81960784 0.09411765 0.83529412
v 0.00541916 -0.00163115 -0.02268031 0.81960784 0.09411765 0.83529412
v 0.00582517 -0.00526336 -0.02213083 0.81960784 0.09411765 0.83529412
v 0.00663485 -0.00769410 -0.02143527 0.81960784 0.09411765 0.83529412
v 0.00663485 -0.00841066 -0.02118291 0.81960784 0.09411765 0.83529412
v 0.00663485 -0.01009086 -0.02043265 0.81960784 0.09411765 0.83529412
v 0.00663485 -0.00526336 -0.02217620 0.81960784 0.09411765 0.83529412
v 0.00663485 -0.00604787 -0.02197543 0.81960784 0.09411765 0.83529412
v 0.00663485 -0.00645248 -0.02184427 0.81960784 0.09411765 0.83529412
v 0.00515887 -0.01012484 -0.01901854 0.81960784 0.09411765 0.83529412
v 0.00538842 -0.00040497 -0.02270766 0.81960784 0.09411765 0.83529412
v 0.00540368 -0.00121419 -0.02269398 0.81960784 0.09411765 0.83529412
v 0.00735446 -0.00841683 -0.02118664 0.81960784 0.09411765 0.83529412
v 0.00735446 0.00842537 -0.02118912 0.81960784 0.09411765 0.83529412
v 0.00515887 0.01014264 -0.01901854 0.81960784 0.09411765 0.83529412
v 0.00540325 0.00121346 -0.02269460 0.81960784 0.09411765 0.83529412
v 0.00538842 0.00040424 -0.02270766 0.81960784 0.09411765 0.83529412
v 0.00722915 0.00646719 -0.02185235 0.81960784 0.09411765 0.83529412
v 0.00735446 0.00630658 -0.02190581 0.81960784 0.09411765 0.83529412
v 0.00735446 0.00619230 -0.02194311 0.81960784 0.09411765 0.83529412
v 0.00735446 0.00535220 -0.02216315 0.81960784 0.09411765 0.83529412
v 0.00735446 0.00526263 -0.02218615 0.81960784 0.09411765 0.83529412
v 0.00735446 0.00613362 -0.02196113 0.81960784 0.09411765 0.83529412
v 0.00663485 0.00445341 -0.02232663 0.81960784 0.09411765 0.83529412
v 0.00582517 0.00445341 -0.02227441 0.81960784 0.09411765 0.83529412
v 0.00582517 0.00221726 -0.02264177 0.81960784 0.09411765 0.83529412
v 0.00582517 0.00181265 -0.02269523 0.81960784 0.09411765 0.83529412
v 0.00582517 0.00121346 -0.02273563 0.81960784 0.09411765 0.83529412
v 0.00582517 -0.00121419 -0.02273501 0.81960784 0.09411765 0.83529412
v 0.00582517 -0.00180412 -0.02269460 0.81960784 0.09411765 0.83529412
v 0.00582517 -0.00220872 -0.02264053 0.81960784 0.09411765 0.83529412
v 0.00582517 -0.00445414 -0.02227193 0.81960784 0.09411765 0.83529412
v 0.00663485 -0.00445414 -0.02232414 0.81960784 0.09411765 0.83529412
v 0.00735446 -0.00646483 -0.02185049 0.81960784 0.09411765 0.83529412
v 0.00735446 -0.00833653 -0.02121461 0.81960784 0.09411765 0.83529412
v 0.00735446 -0.00526336 -0.02218180 0.81960784 0.09411765 0.83529412
v 0.00735446 -0.00517379 -0.02219858 0.81960784 0.09411765 0.83529412
v 0.00735446 -0.00597374 -0.02199967 0.81960784 0.09411765 0.83529412
v 0.00735446 -0.00606022 -0.02197729 0.81960784 0.09411765 0.83529412
v 0.00735446 -0.00641850 -0.02186541 0.81960784 0.09411765 0.83529412
v 0.00582517 -0.00040497 -0.02276298 0.81960784 0.09411765 0.83529412
v 0.00582517 0.00040424 -0.02276298 0.81960784 0.09411765 0.83529412
v 0.00735446 0.00239022 -0.02265420 0.81960784 0.09411765 0.83529412
v 0.00663485 0.00237169 -0.02265296 0.81960784 0.09411765 0.83529412
v 0.00663485 0.00196708 -0.02271014 0.81960784 0.09411765 0.83529412
v 0.00663485 0.00121346 -0.02276236 0.81960784 0.09411765 0.83529412
v 0.00663485 0.00040424 -0.02279095 0.81960784 0.09411765 0.83529412
v 0.00663485 -0.00121419 -0.02276174 0.81960784 0.09411765 0.83529412
v 0.00663485 -0.00040497 -0.02279033 0.81960784 0.09411765 0.83529412
v 0.00663485 -0.00195855 -0.02270952 0.81960784 0.09411765 0.83529412
v 0.00663485 -0.00236315 -0.02264985 0.81960784 0.09411765 0.83529412
v 0.00735446 -0.00197708 -0.02271512 0.81960784 0.09411765 0.83529412
v 0.00735446 0.00202885 -0.02270890 0.81960784 0.09411765 0.83529412
v 0.00735446 0.00198561 -0.02271512 0.81960784 0.09411765 0.83529412
v 0.00735446 0.00121346 -0.02276857 0.81960784 0.09411765 0.83529412
v 0.00735446 0.00049381 -0.02279406 0.81960784 0.09411765 0.83529412
v 0.00735446 0.00040424 -0.02279717 0.81960784 0.09411765 0.83529412
v 0.00735446 -0.00031232 -0.02279779 0.81960784 0.09411765 0.83529412
v 0.00735446 -0.00040497 -0.02279717 0.81960784 0.09411765 0.83529412
v 0.00735446 -0.00121419 -0.02276795 0.81960784 0.09411765 0.83529412
f 1 2 3
f 1 3 4
f 1 4 8
f 1 8 5
f 1 5 10
f 1 10 14
f 1 14 19
f 1 19 23
f 1 23 30
f 1 30 36
f 1 36 46
f 1 46 66
f 1 66 91
f 1 91 117
f 1 117 139
f 1 139 138
f 1 138 144
f 1 144 143
f 1 143 142
f 1 142 140
f 1 140 141
f 1 141 156
f 1 156 164
f 1 164 163
f 1 163 162
f 1 162 161
f 1 161 160
f 1 160 159
f 1 159 158
f 1 158 157
f 1 157 147
f 1 147 126
f 1 126 125
f 1 125 127
f 1 127 124
f 1 124 123
f 1 123 118
f 1 118 92
f 1 92 67
f 1 67 47
f 1 47 37
f 1 37 33
f 1 33 32
f 1 32 31
f 1 31 26
f 1 26 20
f 1 20 15
f 1 15 11
f 1 11 6
f 1 6 2
f 2 6 3
f 3 6 7
f 3 7 12
f 3 12 17
f 3 17 16
f 3 16 21
f 3 21 25
f 3 25 27
f 3 27 34
f 3 34 41
f 3 41 50
f 3 50 70
f 3 70 94
f 3 94 119
f 3 119 114
f 3 114 89
f 3 89 84
f 3 84 62
f 3 62 42
f 3 42 35
f 3 35 29
f 3 29 28
f 3 28 24
f 3 24 22
f 3 22 18
f 3 18 13
f 3 13 9
f 3 9 8
f 3 8 4
f 5 8 9
f 5 9 10
f 6 11 12
f 6 12 7
f 9 13 14
f 9 14 10
f 11 15 16
f 11 16 17
f 11 17 12
f 13 18 14
f 14 18 22
f 14 22 19
f 15 20 16
f 16 20 21
f 19 22 24
f 19 24 23
f 20 25 21
f 20 26 27
f 20 27 25
f 23 24 28
f 23 28 29
f 23 29 30
f 26 31 27
f 27 31 32
f 27 32 33
f 27 33 34
f 29 35 30
f 30 35 36
f 33 37 38
f 33 38 34
f 34 38 39
f 34 39 40
f 34 40 41
f 35 42 43
f 35 43 44
f 35 44 45
f 35 45 46
f 35 46 36
f 37 47 48
f 37 48 38
f 38 48 39
f 39 48 49
f 39 49 40
f 40 49 41
f 41 49 51
f 41 51 52
f 41 52 53
f 41 53 54
f 41 54 55
f 41 55 50
f 42 56 57
f 42 57 58
f 42 58 59
f 42 59 60
f 42 60 61
f 42 61 43
f 42 62 63
f 42 63 64
f 42 64 56
f 43 61 44
f 44 61 65
f 44 65 45
f 45 65 46
f 46 65 66
f 47 67 68
f 47 68 48
f 48 68 69
f 48 69 49
f 49 69 51
f 50 55 71
f 50 71 72
f 50 72 70
f 51 69 52
f 52 69 73
f 52 73 53
f 53 73 74
f 53 74 75
f 53 75 76
f 53 76 54
f 54 76 77
f 54 77 71
f 54 71 55
f 56 64 57
f 57 64 78
f 57 78 79
f 57 79 58
f 58 80 81
f 58 81 59
f 58 79 82
f 58 82 80
f 59 81 83
f 59 83 60
f 60 83 61
f 61 83 65
f 62 84 63
f 63 85 86
f 63 86 87
f 63 87 88
f 63 88 64
f 63 84 89
f 63 89 85
f 64 88 78
f 65 83 90
f 65 90 66
f 66 90 91
f 67 92 93
f 67 93 68
f 68 93 69
f 69 93 73
f 70 72 95
f 70 95 94
f 71 77 96
f 71 96 72
f 72 96 97
f 72 97 98
f 72 98 95
f 73 93 74
f 74 93 99
f 74 99 100
f 74 100 75
f 75 101 102
f 75 102 103
f 75 103 104
f 75 104 76
f 75 100 101
f 76 104 105
f 76 105 77
f 77 105 96
f 78 88 106
f 78 106 79
f 79 106 107
f 79 107 82
f 80 108 109
f 80 109 110
f 80 110 81
f 80 82 108
f 81 110 83
f 82 107 111
f 82 111 112
f 82 112 113
f 82 113 108
f 83 110 90
f 85 89 114
f 85 114 119
f 85 119 95
f 85 95 98
f 85 98 86
f 86 115 87
f 86 98 121
f 86 121 115
f 87 115 116
f 87 116 88
f 88 116 106
f 90 110 91
f 91 110 109
f 91 109 117
f 92 118 99
f 92 99 93
f 94 95 119
f 96 105 120
f 96 120 97
f 97 120 121
f 97 121 98
f 99 118 100
f 100 118 122
f 100 122 101
f 101 122 123
f 101 123 124
f 101 124 102
f 102 125 126
f 102 126 103
f 102 124 127
f 102 127 125
f 103 126 128
f 103 128 104
f 104 128 129
f 104 129 105
f 105 130 131
f 105 131 132
f 105 132 120
f 105 129 130
f 106 116 133
f 106 133 134
f 106 134 135
f 106 135 136
f 106 136 107
f 107 136 137
f 107 137 111
f 108 138 139
f 108 139 117
f 108 117 109
f 108 113 138
f 111 140 112
f 111 137 141
f 111 141 140
f 112 140 142
f 112 142 143
f 112 143 144
f 112 144 138
f 112 138 113
f 115 145 116
f 115 121 146
f 115 146 145
f 116 145 133
f 118 123 122
f 120 132 146
f 120 146 121
f 126 147 128
f 128 147 148
f 128 148 130
f 128 130 129
f 130 148 149
f 130 149 131
f 131 149 150
f 131 150 132
f 132 150 151
f 132 151 146
f 133 152 134
f 133 145 153
f 133 153 152
f 134 154 135
f 134 152 154
f 135 154 155
f 135 155 137
f 135 137 136
f 137 156 141
f 137 155 156
f 145 146 151
f 145 151 153
f 147 157 148
f 148 157 158
f 148 158 149
f 149 158 150
f 150 159 160
f 150 160 151
f 150 158 159
f 151 160 161
f 151 161 162
f 151 162 153
f 152 153 163
f 152 163 164
f 152 164 156
f 152 156 154
f 153 162 163
f 154 156 155

