# https://github.com/mikedh/trimesh
v -0.02067470 0.01336079 -0.01805724 0.38039216 0.78823529 0.52549020
v -0.02067470 0.01336079 -0.01745124 0.38039216 0.78823529 0.52549020
v -0.02063929 0.01483875 -0.01700352 0.38039216 0.78823529 0.52549020
v -0.02063676 0.01477681 -0.01718134 0.38039216 0.78823529 0.52549020
v -0.02061400 0.01391538 -0.01794003 0.38039216 0.78823529 0.52549020
v -0.02009056 0.01336079 -0.01831778 0.38039216 0.78823529 0.52549020
v -0.02067217 -0.01336064 -0.01805664 0.38039216 0.78823529 0.52549020
v -0.02067217 -0.01336064 -0.01744447 0.38039216 0.78823529 0.52549020
v -0.02009056 0.01518220 -0.01700352 0.38039216 0.78823529 0.52549020
v -0.02065699 -0.01357178 -0.01742234 0.38039216 0.78823529 0.52549020
v -0.02032067 -0.01357178 -0.01702924 0.38039216 0.78823529 0.52549020
v -0.02063171 0.01424475 -0.01700352 0.38039216 0.78823529 0.52549020
v -0.01928136 -0.01357178 -0.01698180 0.38039216 0.78823529 0.52549020
v -0.02009056 0.01399138 -0.01800003 0.38039216 0.78823529 0.52549020
v -0.02009056 0.01487816 -0.01726685 0.38039216 0.78823529 0.52549020
v -0.02009056 0.01439677 -0.01767171 0.38039216 0.78823529 0.52549020
v -0.01928389 0.01336079 -0.01834070 0.38039216 0.78823529 0.52549020
v -0.02009056 -0.01336064 -0.01831538 0.38039216 0.78823529 0.52549020
v -0.02064688 -0.01357178 -0.01801059 0.38039216 0.78823529 0.52549020
v -0.01826987 0.01518782 -0.01700352 0.38039216 0.78823529 0.52549020
v -0.01998435 -0.01357178 -0.01700472 0.38039216 0.78823529 0.52549020
v -0.01984780 -0.01357178 -0.01699894 0.38039216 0.78823529 0.52549020
v 0.00257450 -0.01357178 -0.01699395 0.38039216 0.78823529 0.52549020
v 0.00257450 0.01517656 -0.01700352 0.38039216 0.78823529 0.52549020
v 0.00035680 0.01517938 -0.01700352 0.38039216 0.78823529 0.52549020
v -0.01179125 0.01518782 -0.01700352 0.38039216 0.78823529 0.52549020
v -0.01199355 0.01399420 -0.01800003 0.38039216 0.78823529 0.52549020
v -0.01766044 0.01399138 -0.01800062 0.38039216 0.78823529 0.52549020
v 0.00515634 0.01304268 -0.01856037 0.38039216 0.78823529 0.52549020
v -0.01037010 0.01439958 -0.01767530 0.38039216 0.78823529 0.52549020
v -0.00632918 0.01439958 -0.01767650 0.38039216 0.78823529 0.52549020
v -0.01685124 0.01488097 -0.01726805 0.38039216 0.78823529 0.52549020
v 0.00515634 0.01292726 -0.01859546 0.38039216 0.78823529 0.52549020
v 0.00515634 0.01197574 -0.01888151 0.38039216 0.78823529 0.52549020
v 0.00515634 0.01097917 -0.01899394 0.38039216 0.78823529 0.52549020
v 0.00515634 0.01014026 -0.01901826 0.38039216 0.78823529 0.52549020
v 0.00515634 0.00002260 -0.01901826 0.38039216 0.78823529 0.52549020
v 0.00515887 -0.01012040 -0.01901806 0.38039216 0.78823529 0.52549020
v -0.01928136 -0.01336064 -0.01833691 0.38039216 0.78823529 0.52549020
v -0.02009056 -0.01357178 -0.01820694 0.38039216 0.78823529 0.52549020
v -0.00713837 0.01487816 -0.01727184 0.38039216 0.78823529 0.52549020
v -0.01442113 0.01488097 -0.01726905 0.38039216 0.78823529 0.52549020
v -0.01604205 0.01488097 -0.01726845 0.38039216 0.78823529 0.52549020
v 0.00257450 -0.01357178 -0.01821970 0.38039216 0.78823529 0.52549020
v 0.00515887 -0.01119016 -0.01719429 0.38039216 0.78823529 0.52549020
v 0.00501220 -0.01119016 -0.01712851 0.38039216 0.78823529 0.52549020
v 0.00501473 0.01304268 -0.01705455 0.38039216 0.78823529 0.52549020
v 0.00515634 0.01304268 -0.01706911 0.38039216 0.78823529 0.52549020
v 0.00257450 0.01487534 -0.01727303 0.38039216 0.78823529 0.52549020
v 0.00257450 0.01439958 -0.01767769 0.38039216 0.78823529 0.52549020
v -0.01037010 0.01399420 -0.01800003 0.38039216 0.78823529 0.52549020
v 0.00515887 0.00001978 -0.01901806 0.38039216 0.78823529 0.52549020
v 0.00015197 0.01399420 -0.01799823 0.38039216 0.78823529 0.52549020
v 0.00177036 0.01399420 -0.01799783 0.38039216 0.78823529 0.52549020
v 0.00257450 0.01399420 -0.01799763 0.38039216 0.78823529 0.52549020
v 0.00515887 -0.01093116 -0.01899115 0.38039216 0.78823529 0.52549020
v -0.01846964 -0.01336064 -0.01833731 0.38039216 0.78823529 0.52549020
v -0.01928136 -0.01357178 -0.01822169 0.38039216 0.78823529 0.52549020
v 0.00515887 -0.01119016 -0.01892517 0.38039216 0.78823529 0.52549020
v -0.00281676 -0.01357178 -0.01822090 0.38039216 0.78823529 0.52549020
v -0.00389906 -0.01336064 -0.01833611 0.38039216 0.78823529 0.52549020
v 0.00177289 -0.01336064 -0.01833472 0.38039216 0.78823529 0.52549020
v 0.00257450 -0.01336064 -0.01833452 0.38039216 0.78823529 0.52549020
v 0.00515887 -0.00104998 -0.01719250 0.38039216 0.78823529 0.52549020
v 0.00515887 0.00001978 -0.01719250 0.38039216 0.78823529 0.52549020
v -0.01604205 -0.01336064 -0.01833771 0.38039216 0.78823529 0.52549020
v -0.01657814 -0.01357178 -0.01822249 0.38039216 0.78823529 0.52549020
v -0.01738987 -0.01357178 -0.01822229 0.38039216 0.78823529 0.52549020
v -0.01819906 -0.01357178 -0.01822209 0.38039216 0.78823529 0.52549020
v -0.00713585 -0.01357178 -0.01822149 0.38039216 0.78823529 0.52549020
v -0.01171791 -0.01357178 -0.01822209 0.38039216 0.78823529 0.52549020
v -0.01576895 -0.01357178 -0.01822249 0.38039216 0.78823529 0.52549020
f 1 2 3
f 1 3 4
f 1 4 5
f 1 5 6
f 1 6 7
f 1 7 8
f 1 8 2
f 2 8 3
f 3 9 4
f 3 8 10
f 3 10 11
f 3 11 12
f 3 12 13
f 3 13 9
f 4 9 5
f 5 14 6
f 5 9 15
f 5 15 16
f 5 16 14
f 6 14 17
f 6 17 18
f 6 18 7
f 7 18 19
f 7 19 10
f 7 10 8
f 9 20 15
f 9 13 20
f 10 19 40
f 10 40 58
f 10 58 69
f 10 69 68
f 10 68 67
f 10 67 72
f 10 72 71
f 10 71 70
f 10 70 60
f 10 60 44
f 10 44 23
f 10 23 13
f 10 13 22
f 10 22 21
f 10 21 11
f 11 21 12
f 12 21 22
f 12 22 13
f 13 23 24
f 13 24 25
f 13 25 26
f 13 26 20
f 14 27 28
f 14 28 29
f 14 29 17
f 14 16 30
f 14 30 31
f 14 31 27
f 15 20 32
f 15 32 16
f 16 32 30
f 17 29 33
f 17 33 34
f 17 34 35
f 17 35 36
f 17 36 37
f 17 37 38
f 17 38 18
f 18 38 39
f 18 39 40
f 18 40 19
f 20 26 41
f 20 41 42
f 20 42 43
f 20 43 32
f 23 44 59
f 23 59 45
f 23 45 46
f 23 46 47
f 23 47 24
f 24 47 48
f 24 48 29
f 24 29 49
f 24 49 25
f 25 49 26
f 26 49 41
f 27 29 28
f 27 31 50
f 27 50 51
f 27 51 29
f 29 48 65
f 29 65 52
f 29 52 33
f 29 51 53
f 29 53 54
f 29 54 55
f 29 55 50
f 29 50 49
f 30 32 43
f 30 43 42
f 30 42 31
f 31 42 50
f 33 52 34
f 34 52 35
f 35 52 36
f 36 52 38
f 36 38 37
f 38 52 65
f 38 65 64
f 38 64 45
f 38 45 59
f 38 59 56
f 38 56 39
f 39 57 58
f 39 58 40
f 39 56 59
f 39 59 57
f 41 49 50
f 41 50 42
f 44 60 61
f 44 61 62
f 44 62 63
f 44 63 59
f 45 64 48
f 45 48 46
f 46 48 47
f 48 64 65
f 50 55 54
f 50 54 53
f 50 53 51
f 57 66 67
f 57 67 68
f 57 68 69
f 57 69 58
f 57 59 66
f 59 63 62
f 59 62 61
f 59 61 66
f 60 70 61
f 61 70 66
f 66 70 71
f 66 71 72
f 66 72 67

