# https://github.com/mikedh/trimesh
v 0.00735446 -0.02278775 -0.00040459 0.31372549 0.36078431 0.56862745
v 0.00707012 -0.02278549 0.00002832 0.31372549 0.36078431 0.56862745
v 0.00663470 -0.02278097 -0.00040459 0.31372549 0.36078431 0.56862745
v 0.00735446 -0.02278492 -0.00049478 0.31372549 0.36078431 0.56862745
v 0.00735446 -0.02278775 0.00040453 0.31372549 0.36078431 0.56862745
v 0.00663470 -0.02278097 0.00040453 0.31372549 0.36078431 0.56862745
v 0.00582532 -0.02275441 -0.00040459 0.31372549 0.36078431 0.56862745
v 0.00663470 -0.02275271 -0.00121371 0.31372549 0.36078431 0.56862745
v 0.00735446 -0.02275950 -0.00121371 0.31372549 0.36078431 0.56862745
v 0.00735446 -0.02275950 0.00121366 0.31372549 0.36078431 0.56862745
v 0.00663470 -0.02275271 0.00121366 0.31372549 0.36078431 0.56862745
v 0.00582532 -0.02275441 0.00040453 0.31372549 0.36078431 0.56862745
v 0.00562524 -0.02273068 0.00002832 0.31372549 0.36078431 0.56862745
v 0.00539269 -0.02270299 -0.00040459 0.31372549 0.36078431 0.56862745
v 0.00540194 -0.02269508 -0.00105652 0.31372549 0.36078431 0.56862745
v 0.00575827 -0.02271825 -0.00128071 0.31372549 0.36078431 0.56862745
v 0.00598372 -0.02269452 -0.00182184 0.31372549 0.36078431 0.56862745
v 0.00663470 -0.02270186 -0.00191976 0.31372549 0.36078431 0.56862745
v 0.00735446 -0.02275385 -0.00129359 0.31372549 0.36078431 0.56862745
v 0.00735446 -0.02270582 0.00195836 0.31372549 0.36078431 0.56862745
v 0.00663470 -0.02270186 0.00191971 0.31372549 0.36078431 0.56862745
v 0.00598372 -0.02269452 0.00182179 0.31372549 0.36078431 0.56862745
v 0.00575827 -0.02271825 0.00128065 0.31372549 0.36078431 0.56862745
v 0.00540194 -0.02269508 0.00105647 0.31372549 0.36078431 0.56862745
v 0.00539269 -0.02270299 0.00040453 0.31372549 0.36078431 0.56862745
v 0.00527234 -0.02227411 -0.00040459 0.31372549 0.36078431 0.56862745
v 0.00531296 -0.02235266 -0.00128071 0.31372549 0.36078431 0.56862745
v 0.00530200 -0.02203397 -0.00445278 0.31372549 0.36078431 0.56862745
v 0.00532672 -0.02197464 -0.00526447 0.31372549 0.36078431 0.56862745
v 0.00544363 -0.02267417 -0.00159766 0.31372549 0.36078431 0.56862745
v 0.00575827 -0.02264027 -0.00206406 0.31372549 0.36078431 0.56862745
v 0.00582532 -0.02226451 -0.00445278 0.31372549 0.36078431 0.56862745
v 0.00663470 -0.02231536 -0.00445278 0.31372549 0.36078431 0.56862745
v 0.00663470 -0.02264422 -0.00232432 0.31372549 0.36078431 0.56862745
v 0.00735446 -0.02270582 -0.00195841 0.31372549 0.36078431 0.56862745
v 0.00735446 -0.02265214 0.00231911 0.31372549 0.36078431 0.56862745
v 0.00663470 -0.02264422 0.00232427 0.31372549 0.36078431 0.56862745
v 0.00544363 -0.02267417 0.00159760 0.31372549 0.36078431 0.56862745
v 0.00663470 -0.02231536 0.00445530 0.31372549 0.36078431 0.56862745
v 0.00582532 -0.02226451 0.00445530 0.31372549 0.36078431 0.56862745
v 0.00575827 -0.02264027 0.00206401 0.31372549 0.36078431 0.56862745
v 0.00532672 -0.02197464 0.00526442 0.31372549 0.36078431 0.56862745
v 0.00530200 -0.02203397 0.00445530 0.31372549 0.36078431 0.56862745
v 0.00531296 -0.02235266 0.00128065 0.31372549 0.36078431 0.56862745
v 0.00527234 -0.02227411 0.00040453 0.31372549 0.36078431 0.56862745
v 0.00517971 -0.02146439 -0.00364365 0.31372549 0.36078431 0.56862745
v 0.00518186 -0.02146439 -0.00445278 0.31372549 0.36078431 0.56862745
v 0.00520636 -0.02146439 -0.00526447 0.31372549 0.36078431 0.56862745
v 0.00532156 -0.02119203 -0.00769442 0.31372549 0.36078431 0.56862745
v 0.00537292 -0.02191587 -0.00584426 0.31372549 0.36078431 0.56862745
v 0.00582532 -0.02212381 -0.00526447 0.31372549 0.36078431 0.56862745
v 0.00735446 -0.02264535 -0.00236297 0.31372549 0.36078431 0.56862745
v 0.00663470 -0.02216732 -0.00526447 0.31372549 0.36078431 0.56862745
v 0.00735446 -0.02217410 -0.00526447 0.31372549 0.36078431 0.56862745
v 0.00735446 -0.02264535 0.00236292 0.31372549 0.36078431 0.56862745
v 0.00582532 -0.02212381 0.00526442 0.31372549 0.36078431 0.56862745
v 0.00537292 -0.02191587 0.00584421 0.31372549 0.36078431 0.56862745
v 0.00735446 -0.02219049 0.00517423 0.31372549 0.36078431 0.56862745
v 0.00735446 -0.02217410 0.00526442 0.31372549 0.36078431 0.56862745
v 0.00663470 -0.02216732 0.00526442 0.31372549 0.36078431 0.56862745
v 0.00532156 -0.02119203 0.00769179 0.31372549 0.36078431 0.56862745
v 0.00520636 -0.02146439 0.00526442 0.31372549 0.36078431 0.56862745
v 0.00518186 -0.02146439 0.00445530 0.31372549 0.36078431 0.56862745
v 0.00517971 -0.02146439 0.00364360 0.31372549 0.36078431 0.56862745
v 0.00515908 -0.01901827 -0.01012178 0.31372549 0.36078431 0.56862745
v 0.00515908 -0.01899002 -0.01093348 0.31372549 0.36078431 0.56862745
v 0.00515908 -0.01884311 -0.01174518 0.31372549 0.36078431 0.56862745
v 0.00515908 -0.01866342 -0.01255430 0.31372549 0.36078431 0.56862745
v 0.00515908 -0.01851312 -0.01314955 0.31372549 0.36078431 0.56862745
v 0.00520120 -0.02065467 -0.00769442 0.31372549 0.36078431 0.56862745
v 0.00536862 -0.02111406 -0.00824844 0.31372549 0.36078431 0.56862745
v 0.00582532 -0.02195599 -0.00598083 0.31372549 0.36078431 0.56862745
v 0.00663470 -0.02197125 -0.00603237 0.31372549 0.36078431 0.56862745
v 0.00735446 -0.02197407 -0.00604783 0.31372549 0.36078431 0.56862745
v 0.00582532 -0.02195599 0.00598078 0.31372549 0.36078431 0.56862745
v 0.00536862 -0.02111406 0.00824838 0.31372549 0.36078431 0.56862745
v 0.00735446 -0.02197407 0.00604777 0.31372549 0.36078431 0.56862745
v 0.00663470 -0.02197125 0.00603231 0.31372549 0.36078431 0.56862745
v 0.00520120 -0.02065467 0.00769179 0.31372549 0.36078431 0.56862745
v 0.00516101 -0.01851085 0.01317526 0.31372549 0.36078431 0.56862745
v 0.00515908 -0.01857810 0.01295881 0.31372549 0.36078431 0.56862745
v 0.00515908 -0.01887362 0.01198477 0.31372549 0.36078431 0.56862745
v 0.00515908 -0.01899058 0.01098497 0.31372549 0.36078431 0.56862745
v 0.00515908 -0.01901827 0.01014234 0.31372549 0.36078431 0.56862745
v 0.00515908 -0.01705245 -0.01314955 0.31372549 0.36078431 0.56862745
v 0.00519132 -0.01853289 -0.01314955 0.31372549 0.36078431 0.56862745
v 0.00535616 -0.01951835 -0.01147977 0.31372549 0.36078431 0.56862745
v 0.00534928 -0.02033654 -0.00992079 0.31372549 0.36078431 0.56862745
v 0.00582532 -0.02040492 -0.01005736 0.31372549 0.36078431 0.56862745
v 0.00582532 -0.02115983 -0.00836439 0.31372549 0.36078431 0.56862745
v 0.00663470 -0.02142766 -0.00769442 0.31372549 0.36078431 0.56862745
v 0.00735446 -0.02142540 -0.00769442 0.31372549 0.36078431 0.56862745
v 0.00663470 -0.02142766 0.00769179 0.31372549 0.36078431 0.56862745
v 0.00582532 -0.02115983 0.00836176 0.31372549 0.36078431 0.56862745
v 0.00582532 -0.02040492 0.01005731 0.31372549 0.36078431 0.56862745
v 0.00534928 -0.02033654 0.00992074 0.31372549 0.36078431 0.56862745
v 0.00735446 -0.02142540 0.00769179 0.31372549 0.36078431 0.56862745
v 0.00516725 -0.01851368 0.01317526 0.31372549 0.36078431 0.56862745
v 0.00515908 -0.01848091 0.01317526 0.31372549 0.36078431 0.56862745
v 0.00535616 -0.01951835 0.01147972 0.31372549 0.36078431 0.56862745
v 0.00702348 -0.01701629 -0.00024225 0.31372549 0.36078431 0.56862745
v 0.00704648 -0.01701629 -0.00077823 0.31372549 0.36078431 0.56862745
v 0.00704691 -0.01701629 -0.00078596 0.31372549 0.36078431 0.56862745
v 0.00708151 -0.01701629 -0.00121371 0.31372549 0.36078431 0.56862745
v 0.00708624 -0.01701629 -0.00127040 0.31372549 0.36078431 0.56862745
v 0.00708968 -0.01701629 -0.00130390 0.31372549 0.36078431 0.56862745
v 0.00716490 -0.01701629 -0.00202541 0.31372549 0.36078431 0.56862745
v 0.00717887 -0.01701629 -0.00214137 0.31372549 0.36078431 0.56862745
v 0.00727515 -0.01701629 -0.00281907 0.31372549 0.36078431 0.56862745
v 0.00732050 -0.01701629 -0.00312056 0.31372549 0.36078431 0.56862745
v 0.00735446 -0.01701629 -0.00332928 0.31372549 0.36078431 0.56862745
v 0.00571636 -0.01712647 -0.01314955 0.31372549 0.36078431 0.56862745
v 0.00515908 -0.01704963 0.01317526 0.31372549 0.36078431 0.56862745
v 0.00547845 -0.01856058 -0.01314955 0.31372549 0.36078431 0.56862745
v 0.00533918 -0.01865099 -0.01298979 0.31372549 0.36078431 0.56862745
v 0.00582532 -0.01957994 -0.01158542 0.31372549 0.36078431 0.56862745
v 0.00582532 -0.02019133 -0.01046193 0.31372549 0.36078431 0.56862745
v 0.00663470 -0.02043034 -0.01008829 0.31372549 0.36078431 0.56862745
v 0.00663470 -0.02117961 -0.00840047 0.31372549 0.36078431 0.56862745
v 0.00735446 -0.02118299 -0.00840562 0.31372549 0.36078431 0.56862745
v 0.00735446 -0.02121125 0.00832826 0.31372549 0.36078431 0.56862745
v 0.00663470 -0.02117961 0.00840041 0.31372549 0.36078431 0.56862745
v 0.00663470 -0.02043034 0.01008823 0.31372549 0.36078431 0.56862745
v 0.00582532 -0.02019133 0.01046187 0.31372549 0.36078431 0.56862745
v 0.00582532 -0.01857301 0.01317526 0.31372549 0.36078431 0.56862745
v 0.00582532 -0.01957994 0.01158537 0.31372549 0.36078431 0.56862745
v 0.00533918 -0.01865099 0.01298973 0.31372549 0.36078431 0.56862745
v 0.00582532 -0.01867529 0.01302323 0.31372549 0.36078431 0.56862745
v 0.00702348 -0.01701629 0.00023962 0.31372549 0.36078431 0.56862745
v 0.00735446 -0.01749884 -0.01314955 0.31372549 0.36078431 0.56862745
v 0.00735446 -0.01701629 0.00330346 0.31372549 0.36078431 0.56862745
v 0.00528201 -0.01706658 0.01317526 0.31372549 0.36078431 0.56862745
v 0.00727515 -0.01701629 0.00281644 0.31372549 0.36078431 0.56862745
v 0.00716490 -0.01701629 0.00202536 0.31372549 0.36078431 0.56862745
v 0.00708173 -0.01701629 0.00121366 0.31372549 0.36078431 0.56862745
v 0.00704627 -0.01701629 0.00077044 0.31372549 0.36078431 0.56862745
v 0.00703101 -0.01701629 0.00043030 0.31372549 0.36078431 0.56862745
v 0.00582532 -0.01859053 -0.01314955 0.31372549 0.36078431 0.56862745
v 0.00582532 -0.01867529 -0.01302329 0.31372549 0.36078431 0.56862745
v 0.00663470 -0.01960367 -0.01161634 0.31372549 0.36078431 0.56862745
v 0.00735446 -0.02043430 -0.01009086 0.31372549 0.36078431 0.56862745
v 0.00735446 -0.01960762 -0.01162150 0.31372549 0.36078431 0.56862745
v 0.00735446 -0.02118356 0.00840557 0.31372549 0.36078431 0.56862745
v 0.00735446 -0.02043430 0.01009339 0.31372549 0.36078431 0.56862745
v 0.00663470 -0.01960367 0.01161629 0.31372549 0.36078431 0.56862745
v 0.00663470 -0.01859335 0.01317526 0.31372549 0.36078431 0.56862745
v 0.00663470 -0.01868828 0.01304127 0.31372549 0.36078431 0.56862745
v 0.00735446 -0.01861708 -0.01314955 0.31372549 0.36078431 0.56862745
v 0.00560826 -0.01712252 0.01317526 0.31372549 0.36078431 0.56862745
v 0.00583091 -0.01716094 0.01317526 0.31372549 0.36078431 0.56862745
v 0.00735446 -0.01748698 0.01317526 0.31372549 0.36078431 0.56862745
v 0.00641205 -0.01860861 -0.01314955 0.31372549 0.36078431 0.56862745
v 0.00663470 -0.01868828 -0.01304132 0.31372549 0.36078431 0.56862745
v 0.00735446 -0.01869111 -0.01304390 0.31372549 0.36078431 0.56862745
v 0.00735446 -0.01960762 0.01161886 0.31372549 0.36078431 0.56862745
v 0.00735446 -0.01859844 0.01317526 0.31372549 0.36078431 0.56862745
v 0.00735446 -0.01869054 0.01304385 0.31372549 0.36078431 0.56862745
v 0.00663470 -0.01861143 -0.01314955 0.31372549 0.36078431 0.56862745
f 1 2 3
f 1 3 4
f 1 4 9
f 1 9 19
f 1 19 35
f 1 35 52
f 1 52 54
f 1 54 74
f 1 74 92
f 1 92 120
f 1 120 141
f 1 141 142
f 1 142 154
f 1 154 148
f 1 148 130
f 1 130 111
f 1 111 131
f 1 131 151
f 1 151 156
f 1 156 157
f 1 157 155
f 1 155 144
f 1 144 143
f 1 143 121
f 1 121 97
f 1 97 77
f 1 77 59
f 1 59 58
f 1 58 55
f 1 55 36
f 1 36 20
f 1 20 10
f 1 10 5
f 1 5 2
f 2 5 6
f 2 6 3
f 3 7 8
f 3 8 4
f 3 6 12
f 3 12 7
f 4 8 9
f 5 10 11
f 5 11 6
f 6 11 12
f 7 13 14
f 7 14 15
f 7 15 16
f 7 16 8
f 7 12 13
f 8 16 17
f 8 17 18
f 8 18 19
f 8 19 9
f 10 20 21
f 10 21 11
f 11 21 22
f 11 22 23
f 11 23 12
f 12 23 24
f 12 24 25
f 12 25 13
f 13 25 14
f 14 25 45
f 14 45 26
f 14 26 15
f 15 26 27
f 15 27 28
f 15 28 29
f 15 29 30
f 15 30 16
f 16 30 17
f 17 30 31
f 17 31 32
f 17 32 33
f 17 33 34
f 17 34 18
f 18 35 19
f 18 34 35
f 20 36 37
f 20 37 21
f 21 37 22
f 22 38 23
f 22 37 39
f 22 39 40
f 22 40 41
f 22 41 38
f 23 38 24
f 24 38 42
f 24 42 43
f 24 43 44
f 24 44 45
f 24 45 25
f 26 46 47
f 26 47 28
f 26 28 27
f 26 45 64
f 26 64 46
f 28 47 48
f 28 48 29
f 29 48 49
f 29 49 50
f 29 50 30
f 30 32 31
f 30 50 51
f 30 51 32
f 32 51 33
f 33 52 34
f 33 51 53
f 33 53 54
f 33 54 52
f 34 52 35
f 36 55 39
f 36 39 37
f 38 41 40
f 38 40 56
f 38 56 57
f 38 57 42
f 39 55 58
f 39 58 59
f 39 59 60
f 39 60 56
f 39 56 40
f 42 57 61
f 42 61 62
f 42 62 43
f 43 63 45
f 43 45 44
f 43 62 63
f 45 63 64
f 46 65 66
f 46 66 47
f 46 64 84
f 46 84 65
f 47 66 67
f 47 67 68
f 47 68 69
f 47 69 70
f 47 70 48
f 48 70 49
f 49 71 50
f 49 70 69
f 49 69 71
f 50 71 72
f 50 72 51
f 51 72 53
f 53 72 73
f 53 73 54
f 54 73 74
f 56 60 75
f 56 75 57
f 57 75 76
f 57 76 61
f 59 77 78
f 59 78 60
f 60 78 75
f 61 79 62
f 61 76 80
f 61 80 79
f 62 79 63
f 63 79 81
f 63 81 82
f 63 82 64
f 64 82 83
f 64 83 84
f 65 84 83
f 65 83 82
f 65 82 81
f 65 81 99
f 65 99 113
f 65 113 85
f 65 85 69
f 65 69 68
f 65 68 67
f 65 67 66
f 69 85 112
f 69 112 130
f 69 130 148
f 69 148 158
f 69 158 152
f 69 152 138
f 69 138 114
f 69 114 86
f 69 86 87
f 69 87 88
f 69 88 71
f 71 88 89
f 71 89 90
f 71 90 72
f 72 90 91
f 72 91 73
f 73 91 74
f 74 91 92
f 75 78 93
f 75 93 94
f 75 94 76
f 76 94 95
f 76 95 96
f 76 96 80
f 77 97 93
f 77 93 78
f 79 80 81
f 80 98 125
f 80 125 146
f 80 146 156
f 80 156 151
f 80 151 150
f 80 150 149
f 80 149 132
f 80 132 113
f 80 113 99
f 80 99 81
f 80 96 100
f 80 100 98
f 85 101 102
f 85 102 103
f 85 103 104
f 85 104 105
f 85 105 106
f 85 106 107
f 85 107 108
f 85 108 109
f 85 109 110
f 85 110 111
f 85 111 112
f 85 113 101
f 86 114 115
f 86 115 116
f 86 116 87
f 87 116 117
f 87 117 89
f 87 89 88
f 89 118 90
f 89 117 118
f 90 119 91
f 90 118 119
f 91 119 120
f 91 120 92
f 93 97 121
f 93 121 122
f 93 122 94
f 94 122 123
f 94 123 95
f 95 123 124
f 95 124 100
f 95 100 96
f 98 100 126
f 98 126 127
f 98 127 128
f 98 128 125
f 100 124 126
f 101 113 129
f 101 129 137
f 101 137 136
f 101 136 135
f 101 135 134
f 101 134 133
f 101 133 131
f 101 131 111
f 101 111 110
f 101 110 109
f 101 109 108
f 101 108 107
f 101 107 106
f 101 106 105
f 101 105 104
f 101 104 103
f 101 103 102
f 111 130 112
f 113 132 131
f 113 131 133
f 113 133 134
f 113 134 135
f 113 135 136
f 113 136 137
f 113 137 129
f 114 138 139
f 114 139 115
f 115 139 116
f 116 140 117
f 116 139 140
f 117 140 118
f 118 141 120
f 118 120 119
f 118 140 142
f 118 142 141
f 121 143 122
f 122 143 144
f 122 144 123
f 123 144 145
f 123 145 124
f 124 145 126
f 125 128 147
f 125 147 146
f 126 145 128
f 126 128 127
f 128 145 147
f 131 132 149
f 131 149 150
f 131 150 151
f 138 152 153
f 138 153 139
f 139 153 140
f 140 153 142
f 142 153 154
f 144 155 145
f 145 155 147
f 146 147 156
f 147 155 157
f 147 157 156
f 148 154 153
f 148 153 158
f 152 158 153

