# https://github.com/mikedh/trimesh
v 0.00515887 -0.01707856 0.01308993 0.26274510 0.77254902 0.45490196
v 0.00515887 -0.01853529 0.01308993 0.26274510 0.77254902 0.45490196
v 0.00515887 -0.01717692 -0.01167942 0.26274510 0.77254902 0.45490196
v 0.00257484 -0.01548088 0.01548868 0.26274510 0.77254902 0.45490196
v -0.01928069 -0.01832679 0.01336119 0.26274510 0.77254902 0.45490196
v 0.00515887 -0.01857719 0.01295696 0.26274510 0.77254902 0.45490196
v 0.00257484 -0.01671594 0.01548868 0.26274510 0.77254902 0.45490196
v 0.00257484 -0.01691162 0.01528125 0.26274510 0.77254902 0.45490196
v 0.00257484 -0.01726039 0.01487437 0.26274510 0.77254902 0.45490196
v 0.00257484 -0.01726489 0.01486905 0.26274510 0.77254902 0.45490196
v 0.00257484 -0.01766562 0.01439036 0.26274510 0.77254902 0.45490196
v 0.00257484 -0.01799360 0.01398614 0.26274510 0.77254902 0.45490196
v 0.00177333 -0.01799360 0.01398614 0.26274510 0.77254902 0.45490196
v -0.01766251 -0.01799014 0.01398880 0.26274510 0.77254902 0.45490196
v -0.01847160 -0.01798979 0.01398880 0.26274510 0.77254902 0.45490196
v -0.02009231 -0.01798945 0.01398614 0.26274510 0.77254902 0.45490196
v 0.00515887 -0.01884145 -0.01167942 0.26274510 0.77254902 0.45490196
v 0.00501475 -0.01711216 -0.01167942 0.26274510 0.77254902 0.45490196
v -0.01928069 -0.01547915 0.01548868 0.26274510 0.77254902 0.45490196
v -0.02009231 -0.01830358 0.01336119 0.26274510 0.77254902 0.45490196
v 0.00515887 -0.01901705 -0.01012103 0.26274510 0.77254902 0.45490196
v 0.00515887 -0.01901705 0.01014335 0.26274510 0.77254902 0.45490196
v 0.00515887 -0.01899003 0.01098371 0.26274510 0.77254902 0.45490196
v 0.00515887 -0.01887297 0.01198363 0.26274510 0.77254902 0.45490196
v -0.00227717 -0.01671594 0.01548868 0.26274510 0.77254902 0.45490196
v 0.00096424 -0.01691162 0.01528125 0.26274510 0.77254902 0.45490196
v -0.00713677 -0.01726386 0.01487437 0.26274510 0.77254902 0.45490196
v -0.00227717 -0.01726247 0.01487437 0.26274510 0.77254902 0.45490196
v -0.01037312 -0.01766942 0.01439302 0.26274510 0.77254902 0.45490196
v -0.01199383 -0.01766977 0.01439302 0.26274510 0.77254902 0.45490196
v -0.01766251 -0.01767012 0.01439302 0.26274510 0.77254902 0.45490196
v -0.01847160 -0.01767012 0.01439302 0.26274510 0.77254902 0.45490196
v -0.02009231 -0.01766977 0.01439302 0.26274510 0.77254902 0.45490196
v -0.02060810 -0.01793299 0.01391168 0.26274510 0.77254902 0.45490196
v 0.00257484 -0.01794858 -0.01167942 0.26274510 0.77254902 0.45490196
v 0.00515887 -0.01898934 -0.01093214 0.26274510 0.77254902 0.45490196
v -0.02009231 -0.01794165 -0.01132040 0.26274510 0.77254902 0.45490196
v -0.02058535 -0.01788000 -0.01132040 0.26274510 0.77254902 0.45490196
v 0.00257484 -0.01719701 -0.01167942 0.26274510 0.77254902 0.45490196
v -0.02009231 -0.01720082 -0.01132040 0.26274510 0.77254902 0.45490196
v -0.02009231 -0.01547915 0.01548868 0.26274510 0.77254902 0.45490196
v -0.02066879 -0.01805006 0.01336119 0.26274510 0.77254902 0.45490196
v -0.00713677 -0.01671421 0.01548868 0.26274510 0.77254902 0.45490196
v -0.00956403 -0.01690851 0.01527859 0.26274510 0.77254902 0.45490196
v -0.02009231 -0.01726489 0.01486905 0.26274510 0.77254902 0.45490196
v -0.01928069 -0.01726524 0.01486905 0.26274510 0.77254902 0.45490196
v -0.01361454 -0.01726455 0.01487171 0.26274510 0.77254902 0.45490196
v -0.02063592 -0.01718004 0.01477065 0.26274510 0.77254902 0.45490196
v -0.02058535 -0.01751080 -0.01132040 0.26274510 0.77254902 0.45490196
v -0.02035020 -0.01736187 -0.01132040 0.26274510 0.77254902 0.45490196
v -0.02009989 -0.01548122 0.01548868 0.26274510 0.77254902 0.45490196
v -0.02064603 -0.01643575 0.01548868 0.26274510 0.77254902 0.45490196
v -0.02066879 -0.01744534 0.01336119 0.26274510 0.77254902 0.45490196
v -0.01969029 -0.01670555 0.01548868 0.26274510 0.77254902 0.45490196
v -0.02009231 -0.01690539 0.01527327 0.26274510 0.77254902 0.45490196
v -0.02009231 -0.01670520 0.01548868 0.26274510 0.77254902 0.45490196
v -0.02064603 -0.01589372 0.01548868 0.26274510 0.77254902 0.45490196
f 1 2 6
f 1 6 24
f 1 24 23
f 1 23 22
f 1 22 21
f 1 21 36
f 1 36 17
f 1 17 3
f 1 3 4
f 1 4 7
f 1 7 2
f 2 5 6
f 2 7 8
f 2 8 9
f 2 9 10
f 2 10 11
f 2 11 12
f 2 12 13
f 2 13 14
f 2 14 15
f 2 15 16
f 2 16 5
f 3 17 35
f 3 35 39
f 3 39 18
f 3 18 4
f 4 19 41
f 4 41 51
f 4 51 57
f 4 57 52
f 4 52 56
f 4 56 54
f 4 54 43
f 4 43 25
f 4 25 7
f 4 18 19
f 5 20 21
f 5 21 22
f 5 22 23
f 5 23 24
f 5 24 6
f 5 16 20
f 7 25 26
f 7 26 8
f 8 26 27
f 8 27 28
f 8 28 9
f 9 28 10
f 10 28 29
f 10 29 11
f 11 29 12
f 12 29 30
f 12 30 31
f 12 31 32
f 12 32 13
f 13 32 14
f 14 32 33
f 14 33 15
f 15 33 16
f 16 33 34
f 16 34 20
f 17 36 37
f 17 37 38
f 17 38 35
f 18 39 40
f 18 40 41
f 18 41 19
f 20 34 42
f 20 42 38
f 20 38 37
f 20 37 21
f 21 37 36
f 25 43 26
f 26 43 44
f 26 44 45
f 26 45 46
f 26 46 47
f 26 47 27
f 27 47 33
f 27 33 32
f 27 32 31
f 27 31 30
f 27 30 29
f 27 29 28
f 33 47 46
f 33 46 45
f 33 45 34
f 34 45 48
f 34 48 42
f 35 38 49
f 35 49 39
f 38 42 53
f 38 53 49
f 39 49 50
f 39 50 40
f 40 50 51
f 40 51 41
f 42 48 52
f 42 52 57
f 42 57 53
f 43 54 44
f 44 55 45
f 44 54 55
f 45 55 48
f 48 55 56
f 48 56 52
f 49 53 57
f 49 57 51
f 49 51 50
f 54 56 55

