# https://github.com/mikedh/trimesh
v 0.00515887 0.01839255 0.01338064 0.69411765 0.05882353 0.66666667
v 0.00515887 0.01702549 0.01338064 0.69411765 0.05882353 0.66666667
v 0.00515887 0.01846799 0.01326463 0.69411765 0.05882353 0.66666667
v 0.00257622 0.01833983 0.01338064 0.69411765 0.05882353 0.66666667
v 0.00501475 0.01702272 0.01338064 0.69411765 0.05882353 0.66666667
v 0.00501475 0.01700179 -0.01355306 0.69411765 0.05882353 0.66666667
v 0.00515330 0.01701976 -0.01355306 0.69411765 0.05882353 0.66666667
v 0.00515887 0.01702055 -0.01355306 0.69411765 0.05882353 0.66666667
v 0.00515887 0.01852881 0.01316972 0.69411765 0.05882353 0.66666667
v 0.00257597 0.01834832 0.01336482 0.69411765 0.05882353 0.66666667
v 0.00257597 0.01834437 0.01337009 0.69411765 0.05882353 0.66666667
v 0.00257597 0.01723441 0.01338064 0.69411765 0.05882353 0.66666667
v 0.00257597 0.01702450 0.01338064 0.69411765 0.05882353 0.66666667
v 0.00257597 0.01700337 -0.01355306 0.69411765 0.05882353 0.66666667
v 0.00435437 0.01700219 -0.01355306 0.69411765 0.05882353 0.66666667
v 0.00515887 0.01827585 -0.01355306 0.69411765 0.05882353 0.66666667
v 0.00515887 0.01868382 0.01255280 0.69411765 0.05882353 0.66666667
v 0.00515887 0.01884870 0.01175133 0.69411765 0.05882353 0.66666667
v 0.00515887 0.01899522 0.01093403 0.69411765 0.05882353 0.66666667
v 0.00515887 0.01901892 0.01012465 0.69411765 0.05882353 0.66666667
v 0.00257597 0.01834832 -0.01336324 0.69411765 0.05882353 0.66666667
v 0.00257597 0.01824524 -0.01355306 0.69411765 0.05882353 0.66666667
v 0.00515887 0.01842415 -0.01332896 0.69411765 0.05882353 0.66666667
v 0.00502689 0.01827585 -0.01355306 0.69411765 0.05882353 0.66666667
v 0.00515887 0.01901892 -0.01014153 0.69411765 0.05882353 0.66666667
v 0.00515887 0.01899562 -0.01097991 0.69411765 0.05882353 0.66666667
v 0.00515887 0.01888721 -0.01197384 0.69411765 0.05882353 0.66666667
v 0.00515887 0.01860878 -0.01291241 0.69411765 0.05882353 0.66666667
v 0.00515887 0.01852881 -0.01317078 0.69411765 0.05882353 0.66666667
f 1 2 8
f 1 8 16
f 1 16 23
f 1 23 29
f 1 29 28
f 1 28 27
f 1 27 26
f 1 26 25
f 1 25 20
f 1 20 19
f 1 19 18
f 1 18 17
f 1 17 9
f 1 9 3
f 1 3 4
f 1 4 12
f 1 12 13
f 1 13 5
f 1 5 2
f 2 5 6
f 2 6 7
f 2 7 8
f 3 9 4
f 4 9 10
f 4 10 11
f 4 11 12
f 5 13 14
f 5 14 15
f 5 15 6
f 6 15 14
f 6 14 22
f 6 22 24
f 6 24 16
f 6 16 8
f 6 8 7
f 9 17 10
f 10 17 18
f 10 18 19
f 10 19 20
f 10 20 25
f 10 25 21
f 10 21 22
f 10 22 14
f 10 14 13
f 10 13 12
f 10 12 11
f 16 24 23
f 21 25 26
f 21 26 27
f 21 27 28
f 21 28 29
f 21 29 22
f 22 29 24
f 23 24 29

