# https://github.com/mikedh/trimesh
v -0.05708259 0.06002710 0.05000000 0.61176471 0.61568627 0.94117647
v -0.06352764 0.06274040 0.05000000 0.61176471 0.61568627 0.94117647
v -0.05708259 0.05497890 0.05000000 0.61176471 0.61568627 0.94117647
v -0.05708259 0.06002710 0.00000000 0.61176471 0.61568627 0.94117647
v -0.07849832 0.06274040 0.05000000 0.61176471 0.61568627 0.94117647
v -0.06352764 0.06274040 0.00000000 0.61176471 0.61568627 0.94117647
v -0.08015646 0.05497890 0.05000000 0.61176471 0.61568627 0.94117647
v -0.05708259 0.05497890 0.00000000 0.61176471 0.61568627 0.94117647
v -0.08015646 0.06094876 0.05000000 0.61176471 0.61568627 0.94117647
v -0.07849832 0.06274040 0.00000000 0.61176471 0.61568627 0.94117647
v -0.08015646 0.05497890 0.00000000 0.61176471 0.61568627 0.94117647
v -0.08015646 0.06094876 0.00000000 0.61176471 0.61568627 0.94117647
f 1 2 5
f 1 5 9
f 1 9 7
f 1 7 3
f 1 3 8
f 1 8 4
f 1 4 6
f 1 6 2
f 2 6 10
f 2 10 5
f 3 7 11
f 3 11 8
f 4 8 11
f 4 11 12
f 4 12 10
f 4 10 6
f 5 10 12
f 5 12 9
f 7 9 12
f 7 12 11