# https://github.com/mikedh/trimesh
v -0.05708259 0.08777890 0.05000000 0.11764706 0.63921569 0.14117647
v -0.08015646 0.08777890 0.05000000 0.11764706 0.63921569 0.14117647
v -0.05708259 0.08273092 0.05000000 0.11764706 0.63921569 0.14117647
v -0.05708259 0.08777890 0.00000000 0.11764706 0.63921569 0.14117647
v -0.08015646 0.08180907 0.05000000 0.11764706 0.63921569 0.14117647
v -0.08015646 0.08777890 0.00000000 0.11764706 0.63921569 0.14117647
v -0.06527162 0.07814055 0.05000000 0.11764706 0.63921569 0.14117647
v -0.05708259 0.08273092 0.00000000 0.11764706 0.63921569 0.14117647
v -0.07784320 0.07814055 0.05000000 0.11764706 0.63921569 0.14117647
v -0.08015646 0.08180907 0.00000000 0.11764706 0.63921569 0.14117647
v -0.06527162 0.07814055 0.00000000 0.11764706 0.63921569 0.14117647
v -0.07784320 0.07814055 0.00000000 0.11764706 0.63921569 0.14117647
f 1 2 5
f 1 5 9
f 1 9 7
f 1 7 3
f 1 3 8
f 1 8 4
f 1 4 6
f 1 6 2
f 2 6 10
f 2 10 5
f 3 7 11
f 3 11 8
f 4 8 11
f 4 11 12
f 4 12 10
f 4 10 6
f 5 10 12
f 5 12 9
f 7 9 12
f 7 12 11