# https://github.com/mikedh/trimesh
v -0.03981600 0.06303319 0.05000000 0.26274510 0.77254902 0.45490196
v -0.04845492 0.06303319 0.05000000 0.26274510 0.77254902 0.45490196
v -0.03981600 0.05497890 0.05000000 0.26274510 0.77254902 0.45490196
v -0.03981600 0.06303319 0.00000000 0.26274510 0.77254902 0.45490196
v -0.05708033 0.06002673 0.05000000 0.26274510 0.77254902 0.45490196
v -0.04845492 0.06303319 0.00000000 0.26274510 0.77254902 0.45490196
v -0.05708033 0.05497890 0.05000000 0.26274510 0.77254902 0.45490196
v -0.03981600 0.05497890 0.00000000 0.26274510 0.77254902 0.45490196
v -0.05708033 0.06002673 0.00000000 0.26274510 0.77254902 0.45490196
v -0.05708033 0.05497890 0.00000000 0.26274510 0.77254902 0.45490196
f 1 2 5
f 1 5 7
f 1 7 3
f 1 3 8
f 1 8 4
f 1 4 6
f 1 6 2
f 2 6 9
f 2 9 5
f 3 7 10
f 3 10 8
f 4 8 10
f 4 10 9
f 4 9 6
f 5 9 10
f 5 10 7