# https://github.com/mikedh/trimesh
v -0.09585697 0.08777829 0.05000000 0.54509804 0.71372549 0.60000000
v -0.10555130 0.08777829 0.05000000 0.54509804 0.71372549 0.60000000
v -0.09585697 0.08269268 0.05000000 0.54509804 0.71372549 0.60000000
v -0.09585697 0.08777829 0.00000000 0.54509804 0.71372549 0.60000000
v -0.10555130 0.08150420 0.05000000 0.54509804 0.71372549 0.60000000
v -0.10555130 0.08777829 0.00000000 0.54509804 0.71372549 0.60000000
v -0.09857947 0.08150420 0.05000000 0.54509804 0.71372549 0.60000000
v -0.09585697 0.08269268 0.00000000 0.54509804 0.71372549 0.60000000
v -0.10555130 0.08150420 0.00000000 0.54509804 0.71372549 0.60000000
v -0.09857947 0.08150420 0.00000000 0.54509804 0.71372549 0.60000000
f 1 2 5
f 1 5 7
f 1 7 3
f 1 3 8
f 1 8 4
f 1 4 6
f 1 6 2
f 2 6 9
f 2 9 5
f 3 7 10
f 3 10 8
f 4 8 10
f 4 10 9
f 4 9 6
f 5 9 10
f 5 10 7