# https://github.com/mikedh/trimesh
v -0.08380720 0.05997838 0.05000000 0.79607843 0.45882353 0.78039216
v -0.09848276 0.06116227 0.05000000 0.79607843 0.45882353 0.78039216
v -0.08380720 0.05497890 0.05000000 0.79607843 0.45882353 0.78039216
v -0.08380720 0.05997838 0.00000000 0.79607843 0.45882353 0.78039216
v -0.10555130 0.06116227 0.05000000 0.79607843 0.45882353 0.78039216
v -0.09848276 0.06116227 0.00000000 0.79607843 0.45882353 0.78039216
v -0.10555130 0.05497890 0.05000000 0.79607843 0.45882353 0.78039216
v -0.08380720 0.05497890 0.00000000 0.79607843 0.45882353 0.78039216
v -0.10555130 0.06116227 0.00000000 0.79607843 0.45882353 0.78039216
v -0.10555130 0.05497890 0.00000000 0.79607843 0.45882353 0.78039216
f 1 2 5
f 1 5 7
f 1 7 3
f 1 3 8
f 1 8 4
f 1 4 6
f 1 6 2
f 2 6 9
f 2 9 5
f 3 7 10
f 3 10 8
f 4 8 10
f 4 10 9
f 4 9 6
f 5 9 10
f 5 10 7