# https://github.com/mikedh/trimesh

o geometry_0
v -0.09585697 0.08777829 0.05000000 0.54509804 0.71372549 0.60000000
v -0.10555130 0.08777829 0.05000000 0.54509804 0.71372549 0.60000000
v -0.09585697 0.08269268 0.05000000 0.54509804 0.71372549 0.60000000
v -0.09585697 0.08777829 0.00000000 0.54509804 0.71372549 0.60000000
v -0.10555130 0.08150420 0.05000000 0.54509804 0.71372549 0.60000000
v -0.10555130 0.08777829 0.00000000 0.54509804 0.71372549 0.60000000
v -0.09857947 0.08150420 0.05000000 0.54509804 0.71372549 0.60000000
v -0.09585697 0.08269268 0.00000000 0.54509804 0.71372549 0.60000000
v -0.10555130 0.08150420 0.00000000 0.54509804 0.71372549 0.60000000
v -0.09857947 0.08150420 0.00000000 0.54509804 0.71372549 0.60000000
f 1 2 5
f 1 5 7
f 1 7 3
f 1 3 8
f 1 8 4
f 1 4 6
f 1 6 2
f 2 6 9
f 2 9 5
f 3 7 10
f 3 10 8
f 4 8 10
f 4 10 9
f 4 9 6
f 5 9 10
f 5 10 7

o geometry_1
v -0.08015872 0.08777832 0.05000000 0.54117647 0.42352941 0.64313725
v -0.09585543 0.08777832 0.05000000 0.54117647 0.42352941 0.64313725
v -0.08015872 0.08180928 0.05000000 0.54117647 0.42352941 0.64313725
v -0.08015872 0.08777832 0.00000000 0.54117647 0.42352941 0.64313725
v -0.09585543 0.08269289 0.05000000 0.54117647 0.42352941 0.64313725
v -0.09585543 0.08777832 0.00000000 0.54117647 0.42352941 0.64313725
v -0.08015872 0.08180928 0.00000000 0.54117647 0.42352941 0.64313725
v -0.09585543 0.08269289 0.00000000 0.54117647 0.42352941 0.64313725
f 11 12 15
f 11 15 13
f 11 13 17
f 11 17 14
f 11 14 16
f 11 16 12
f 12 16 18
f 12 18 15
f 13 15 18
f 13 18 17
f 14 17 18
f 14 18 16

o geometry_2
v -0.08380684 0.05497948 0.00000000 0.43529412 0.89019608 0.96078431
v -0.08380684 0.05997842 0.00000000 0.43529412 0.89019608 0.96078431
v -0.08015872 0.05497948 0.00000000 0.43529412 0.89019608 0.96078431
v -0.08380684 0.05497948 0.05000000 0.43529412 0.89019608 0.96078431
v -0.08015872 0.06094852 0.00000000 0.43529412 0.89019608 0.96078431
v -0.08380684 0.05997842 0.05000000 0.43529412 0.89019608 0.96078431
v -0.08015872 0.05497948 0.05000000 0.43529412 0.89019608 0.96078431
v -0.08015872 0.06094852 0.05000000 0.43529412 0.89019608 0.96078431
f 19 20 23
f 19 23 21
f 19 21 25
f 19 25 22
f 19 22 24
f 19 24 20
f 20 24 26
f 20 26 23
f 21 23 26
f 21 26 25
f 22 25 26
f 22 26 24

o geometry_3
v -0.03981600 0.07137934 0.05000000 0.38039216 0.78823529 0.52549020
v -0.04475072 0.07137934 0.05000000 0.38039216 0.78823529 0.52549020
v -0.03981600 0.06303479 0.05000000 0.38039216 0.78823529 0.52549020
v -0.03981600 0.07137934 0.00000000 0.38039216 0.78823529 0.52549020
v -0.04845577 0.06303479 0.05000000 0.38039216 0.78823529 0.52549020
v -0.04475072 0.07137934 0.00000000 0.38039216 0.78823529 0.52549020
v -0.03981600 0.06303479 0.00000000 0.38039216 0.78823529 0.52549020
v -0.04845577 0.06303479 0.00000000 0.38039216 0.78823529 0.52549020
f 27 28 31
f 27 31 29
f 27 29 33
f 27 33 30
f 27 30 32
f 27 32 28
f 28 32 34
f 28 34 31
f 29 31 34
f 29 34 33
f 30 33 34
f 30 34 32

o geometry_4
v -0.06352555 0.06274116 0.05000000 0.56470588 0.92549020 0.07058824
v -0.06685109 0.06750076 0.05000000 0.56470588 0.92549020 0.07058824
v -0.07849856 0.06274116 0.05000000 0.56470588 0.92549020 0.07058824
v -0.06352555 0.06274116 0.00000000 0.56470588 0.92549020 0.07058824
v -0.07775108 0.06750076 0.05000000 0.56470588 0.92549020 0.07058824
v -0.06685109 0.06750076 0.00000000 0.56470588 0.92549020 0.07058824
v -0.07849856 0.06274116 0.00000000 0.56470588 0.92549020 0.07058824
v -0.07775108 0.06750076 0.00000000 0.56470588 0.92549020 0.07058824
f 35 36 39
f 35 39 37
f 35 37 41
f 35 41 38
f 35 38 40
f 35 40 36
f 36 40 42
f 36 42 39
f 37 39 42
f 37 42 41
f 38 41 42
f 38 42 40

o geometry_5
v -0.09848374 0.06116227 0.05000000 0.08627451 0.01960784 0.83137255
v -0.10002732 0.06311640 0.05000000 0.08627451 0.01960784 0.83137255
v -0.10555130 0.06116227 0.05000000 0.08627451 0.01960784 0.83137255
v -0.09848374 0.06116227 0.00000000 0.08627451 0.01960784 0.83137255
v -0.10555130 0.06311640 0.05000000 0.08627451 0.01960784 0.83137255
v -0.10002732 0.06311640 0.00000000 0.08627451 0.01960784 0.83137255
v -0.10555130 0.06116227 0.00000000 0.08627451 0.01960784 0.83137255
v -0.10555130 0.06311640 0.00000000 0.08627451 0.01960784 0.83137255
f 43 44 47
f 43 47 45
f 43 45 49
f 43 49 46
f 43 46 48
f 43 48 44
f 44 48 50
f 44 50 47
f 45 47 50
f 45 50 49
f 46 49 50
f 46 50 48

o geometry_6
v -0.04847912 0.08777890 0.05000000 0.77647059 0.86666667 0.97647059
v -0.05708033 0.08777890 0.05000000 0.77647059 0.86666667 0.97647059
v -0.04847912 0.07974585 0.05000000 0.77647059 0.86666667 0.97647059
v -0.04847912 0.08777890 0.00000000 0.77647059 0.86666667 0.97647059
v -0.05708033 0.08273022 0.05000000 0.77647059 0.86666667 0.97647059
v -0.05708033 0.08777890 0.00000000 0.77647059 0.86666667 0.97647059
v -0.04847912 0.07974585 0.00000000 0.77647059 0.86666667 0.97647059
v -0.05708033 0.08273022 0.00000000 0.77647059 0.86666667 0.97647059
f 51 52 55
f 51 55 53
f 51 53 57
f 51 57 54
f 51 54 56
f 51 56 52
f 52 56 58
f 52 58 55
f 53 55 58
f 53 58 57
f 54 57 58
f 54 58 56

o geometry_7
v -0.08380720 0.05997838 0.05000000 0.79607843 0.45882353 0.78039216
v -0.09848276 0.06116227 0.05000000 0.79607843 0.45882353 0.78039216
v -0.08380720 0.05497890 0.05000000 0.79607843 0.45882353 0.78039216
v -0.08380720 0.05997838 0.00000000 0.79607843 0.45882353 0.78039216
v -0.10555130 0.06116227 0.05000000 0.79607843 0.45882353 0.78039216
v -0.09848276 0.06116227 0.00000000 0.79607843 0.45882353 0.78039216
v -0.10555130 0.05497890 0.05000000 0.79607843 0.45882353 0.78039216
v -0.08380720 0.05497890 0.00000000 0.79607843 0.45882353 0.78039216
v -0.10555130 0.06116227 0.00000000 0.79607843 0.45882353 0.78039216
v -0.10555130 0.05497890 0.00000000 0.79607843 0.45882353 0.78039216
f 59 60 63
f 59 63 65
f 59 65 61
f 59 61 66
f 59 66 62
f 59 62 64
f 59 64 60
f 60 64 67
f 60 67 63
f 61 65 68
f 61 68 66
f 62 66 68
f 62 68 67
f 62 67 64
f 63 67 68
f 63 68 65

o geometry_8
v -0.05708259 0.08777890 0.05000000 0.11764706 0.63921569 0.14117647
v -0.08015646 0.08777890 0.05000000 0.11764706 0.63921569 0.14117647
v -0.05708259 0.08273092 0.05000000 0.11764706 0.63921569 0.14117647
v -0.05708259 0.08777890 0.00000000 0.11764706 0.63921569 0.14117647
v -0.08015646 0.08180907 0.05000000 0.11764706 0.63921569 0.14117647
v -0.08015646 0.08777890 0.00000000 0.11764706 0.63921569 0.14117647
v -0.06527162 0.07814055 0.05000000 0.11764706 0.63921569 0.14117647
v -0.05708259 0.08273092 0.00000000 0.11764706 0.63921569 0.14117647
v -0.07784320 0.07814055 0.05000000 0.11764706 0.63921569 0.14117647
v -0.08015646 0.08180907 0.00000000 0.11764706 0.63921569 0.14117647
v -0.06527162 0.07814055 0.00000000 0.11764706 0.63921569 0.14117647
v -0.07784320 0.07814055 0.00000000 0.11764706 0.63921569 0.14117647
f 69 70 73
f 69 73 77
f 69 77 75
f 69 75 71
f 69 71 76
f 69 76 72
f 69 72 74
f 69 74 70
f 70 74 78
f 70 78 73
f 71 75 79
f 71 79 76
f 72 76 79
f 72 79 80
f 72 80 78
f 72 78 74
f 73 78 80
f 73 80 77
f 75 77 80
f 75 80 79

o geometry_9
v -0.04475133 0.07138016 0.00000000 0.94117647 0.52156863 0.41176471
v -0.04847912 0.07974486 0.00000000 0.94117647 0.52156863 0.41176471
v -0.03981600 0.07138016 0.00000000 0.94117647 0.52156863 0.41176471
v -0.04475133 0.07138016 0.05000000 0.94117647 0.52156863 0.41176471
v -0.04847912 0.08777730 0.00000000 0.94117647 0.52156863 0.41176471
v -0.04847912 0.07974486 0.05000000 0.94117647 0.52156863 0.41176471
v -0.03981600 0.08777730 0.00000000 0.94117647 0.52156863 0.41176471
v -0.03981600 0.07138016 0.05000000 0.94117647 0.52156863 0.41176471
v -0.04847912 0.08777730 0.05000000 0.94117647 0.52156863 0.41176471
v -0.03981600 0.08777730 0.05000000 0.94117647 0.52156863 0.41176471
f 81 82 85
f 81 85 87
f 81 87 83
f 81 83 88
f 81 88 84
f 81 84 86
f 81 86 82
f 82 86 89
f 82 89 85
f 83 87 90
f 83 90 88
f 84 88 90
f 84 90 89
f 84 89 86
f 85 89 90
f 85 90 87

o geometry_10
v -0.03981600 0.06303319 0.05000000 0.26274510 0.77254902 0.45490196
v -0.04845492 0.06303319 0.05000000 0.26274510 0.77254902 0.45490196
v -0.03981600 0.05497890 0.05000000 0.26274510 0.77254902 0.45490196
v -0.03981600 0.06303319 0.00000000 0.26274510 0.77254902 0.45490196
v -0.05708033 0.06002673 0.05000000 0.26274510 0.77254902 0.45490196
v -0.04845492 0.06303319 0.00000000 0.26274510 0.77254902 0.45490196
v -0.05708033 0.05497890 0.05000000 0.26274510 0.77254902 0.45490196
v -0.03981600 0.05497890 0.00000000 0.26274510 0.77254902 0.45490196
v -0.05708033 0.06002673 0.00000000 0.26274510 0.77254902 0.45490196
v -0.05708033 0.05497890 0.00000000 0.26274510 0.77254902 0.45490196
f 91 92 95
f 91 95 97
f 91 97 93
f 91 93 98
f 91 98 94
f 91 94 96
f 91 96 92
f 92 96 99
f 92 99 95
f 93 97 100
f 93 100 98
f 94 98 100
f 94 100 99
f 94 99 96
f 95 99 100
f 95 100 97

o geometry_11
v -0.06527025 0.07813961 0.05000000 0.56470588 0.01568627 0.61568627
v -0.07784378 0.07813961 0.05000000 0.56470588 0.01568627 0.61568627
v -0.06685056 0.06750122 0.05000000 0.56470588 0.01568627 0.61568627
v -0.06527025 0.07813961 0.00000000 0.56470588 0.01568627 0.61568627
v -0.07775024 0.06750122 0.05000000 0.56470588 0.01568627 0.61568627
v -0.07784378 0.07813961 0.00000000 0.56470588 0.01568627 0.61568627
v -0.06685056 0.06750122 0.00000000 0.56470588 0.01568627 0.61568627
v -0.07775024 0.06750122 0.00000000 0.56470588 0.01568627 0.61568627
f 101 102 105
f 101 105 103
f 101 103 107
f 101 107 104
f 101 104 106
f 101 106 102
f 102 106 108
f 102 108 105
f 103 105 108
f 103 108 107
f 104 107 108
f 104 108 106

o geometry_12
v -0.05708259 0.06002710 0.05000000 0.61176471 0.61568627 0.94117647
v -0.06352764 0.06274040 0.05000000 0.61176471 0.61568627 0.94117647
v -0.05708259 0.05497890 0.05000000 0.61176471 0.61568627 0.94117647
v -0.05708259 0.06002710 0.00000000 0.61176471 0.61568627 0.94117647
v -0.07849832 0.06274040 0.05000000 0.61176471 0.61568627 0.94117647
v -0.06352764 0.06274040 0.00000000 0.61176471 0.61568627 0.94117647
v -0.08015646 0.05497890 0.05000000 0.61176471 0.61568627 0.94117647
v -0.05708259 0.05497890 0.00000000 0.61176471 0.61568627 0.94117647
v -0.08015646 0.06094876 0.05000000 0.61176471 0.61568627 0.94117647
v -0.07849832 0.06274040 0.00000000 0.61176471 0.61568627 0.94117647
v -0.08015646 0.05497890 0.00000000 0.61176471 0.61568627 0.94117647
v -0.08015646 0.06094876 0.00000000 0.61176471 0.61568627 0.94117647
f 109 110 113
f 109 113 117
f 109 117 115
f 109 115 111
f 109 111 116
f 109 116 112
f 109 112 114
f 109 114 110
f 110 114 118
f 110 118 113
f 111 115 119
f 111 119 116
f 112 116 119
f 112 119 120
f 112 120 118
f 112 118 114
f 113 118 120
f 113 120 117
f 115 117 120
f 115 120 119

o geometry_13
v -0.09857900 0.08150378 0.05000000 0.67843137 0.35686275 0.43529412
v -0.10555130 0.08150378 0.05000000 0.67843137 0.35686275 0.43529412
v -0.10055139 0.07731078 0.05000000 0.67843137 0.35686275 0.43529412
v -0.09857900 0.08150378 0.00000000 0.67843137 0.35686275 0.43529412
v -0.10555130 0.07731078 0.05000000 0.67843137 0.35686275 0.43529412
v -0.10555130 0.08150378 0.00000000 0.67843137 0.35686275 0.43529412
v -0.10055139 0.07731078 0.00000000 0.67843137 0.35686275 0.43529412
v -0.10555130 0.07731078 0.00000000 0.67843137 0.35686275 0.43529412
f 121 122 125
f 121 125 123
f 121 123 127
f 121 127 124
f 121 124 126
f 121 126 122
f 122 126 128
f 122 128 125
f 123 125 128
f 123 128 127
f 124 127 128
f 124 128 126

o geometry_14
v -0.10555076 0.06311640 0.00000000 0.69411765 0.05882353 0.66666667
v -0.10555076 0.07731078 0.00000000 0.69411765 0.05882353 0.66666667
v -0.10002687 0.06311640 0.00000000 0.69411765 0.05882353 0.66666667
v -0.10555076 0.06311640 0.05000000 0.69411765 0.05882353 0.66666667
v -0.10055141 0.07731078 0.00000000 0.69411765 0.05882353 0.66666667
v -0.10555076 0.07731078 0.05000000 0.69411765 0.05882353 0.66666667
v -0.10002687 0.06311640 0.05000000 0.69411765 0.05882353 0.66666667
v -0.10055141 0.07731078 0.05000000 0.69411765 0.05882353 0.66666667
f 129 130 133
f 129 133 131
f 129 131 135
f 129 135 132
f 129 132 134
f 129 134 130
f 130 134 136
f 130 136 133
f 131 133 136
f 131 136 135
f 132 135 136
f 132 136 134