# https://github.com/mikedh/trimesh
v 0.02500000 0.02197470 0.00421191 0.56470588 0.92549020 0.07058824
v 0.02500000 0.02191755 0.00486585 0.56470588 0.92549020 0.07058824
v 0.02500000 0.02188092 0.00356166 0.56470588 0.92549020 0.07058824
v -0.07500000 0.02197470 0.00421191 0.56470588 0.92549020 0.07058824
v 0.02500000 0.02171535 0.00549029 0.56470588 0.92549020 0.07058824
v -0.07500000 0.02191755 0.00486585 0.56470588 0.92549020 0.07058824
v 0.02500000 0.02164208 0.00294952 0.56470588 0.92549020 0.07058824
v -0.07500000 0.02188092 0.00356166 0.56470588 0.92549020 0.07058824
v 0.02500000 0.02137540 0.00605203 0.56470588 0.92549020 0.07058824
v -0.07500000 0.02171535 0.00549029 0.56470588 0.92549020 0.07058824
v 0.02500000 0.02127137 0.00240744 0.56470588 0.92549020 0.07058824
v -0.07500000 0.02164208 0.00294952 0.56470588 0.92549020 0.07058824
v 0.02500000 0.02091824 0.00652282 0.56470588 0.92549020 0.07058824
v -0.07500000 0.02137540 0.00605203 0.56470588 0.92549020 0.07058824
v 0.02500000 0.02078783 0.00196369 0.56470588 0.92549020 0.07058824
v -0.07500000 0.02127137 0.00240744 0.56470588 0.92549020 0.07058824
v 0.02500000 0.02036583 0.00687806 0.56470588 0.92549020 0.07058824
v -0.07500000 0.02091824 0.00652282 0.56470588 0.92549020 0.07058824
v 0.02500000 0.01068183 -0.00538327 0.56470588 0.92549020 0.07058824
v -0.07500000 0.02078783 0.00196369 0.56470588 0.92549020 0.07058824
v 0.02500000 0.01974748 0.00709932 0.56470588 0.92549020 0.07058824
v -0.07500000 0.02036583 0.00687806 0.56470588 0.92549020 0.07058824
v 0.02500000 0.00700546 -0.00538327 0.56470588 0.92549020 0.07058824
v -0.07500000 0.01068183 -0.00538327 0.56470588 0.92549020 0.07058824
v 0.02500000 0.01909544 0.00717430 0.56470588 0.92549020 0.07058824
v -0.07500000 0.01974748 0.00709932 0.56470588 0.92549020 0.07058824
v 0.02500000 0.00700546 0.00717430 0.56470588 0.92549020 0.07058824
v -0.07497064 0.00700546 -0.00538327 0.56470588 0.92549020 0.07058824
v -0.07500000 0.01067597 -0.00538327 0.56470588 0.92549020 0.07058824
v -0.07500000 0.01909544 0.00717430 0.56470588 0.92549020 0.07058824
v -0.07500000 0.00700546 0.00717430 0.56470588 0.92549020 0.07058824
v -0.07500000 0.00700546 -0.00537959 0.56470588 0.92549020 0.07058824
f 1 2 5
f 1 5 9
f 1 9 13
f 1 13 17
f 1 17 21
f 1 21 25
f 1 25 27
f 1 27 23
f 1 23 19
f 1 19 15
f 1 15 11
f 1 11 7
f 1 7 3
f 1 3 8
f 1 8 4
f 1 4 6
f 1 6 2
f 2 6 10
f 2 10 5
f 3 7 12
f 3 12 8
f 4 8 12
f 4 12 16
f 4 16 20
f 4 20 24
f 4 24 29
f 4 29 32
f 4 32 31
f 4 31 30
f 4 30 26
f 4 26 22
f 4 22 18
f 4 18 14
f 4 14 10
f 4 10 6
f 5 10 14
f 5 14 9
f 7 11 16
f 7 16 12
f 9 14 18
f 9 18 13
f 11 15 20
f 11 20 16
f 13 18 22
f 13 22 17
f 15 19 24
f 15 24 20
f 17 22 26
f 17 26 21
f 19 23 28
f 19 28 29
f 19 29 24
f 21 26 30
f 21 30 25
f 23 27 31
f 23 31 32
f 23 32 28
f 25 30 31
f 25 31 27
f 28 32 29