# https://github.com/mikedh/trimesh
v 0.02500000 0.00700546 0.00717404 0.38039216 0.78823529 0.52549020
v 0.02500000 0.00700546 -0.00538327 0.38039216 0.78823529 0.52549020
v -0.07500000 0.00700546 0.00717404 0.38039216 0.78823529 0.52549020
v 0.02500000 0.00659413 0.00719128 0.38039216 0.78823529 0.52549020
v 0.02500000 -0.01067879 -0.00538327 0.38039216 0.78823529 0.52549020
v -0.07497064 0.00700546 -0.00538327 0.38039216 0.78823529 0.52549020
v -0.07500000 0.00700546 -0.00537958 0.38039216 0.78823529 0.52549020
v -0.07500000 0.00659413 0.00719128 0.38039216 0.78823529 0.52549020
v 0.02500000 -0.00659672 0.00719128 0.38039216 0.78823529 0.52549020
v 0.02500000 -0.02078611 0.00196378 0.38039216 0.78823529 0.52549020
v -0.07500000 -0.01067879 -0.00538327 0.38039216 0.78823529 0.52549020
v -0.07500000 -0.01067312 -0.00538327 0.38039216 0.78823529 0.52549020
v -0.07500000 -0.00659672 0.00719128 0.38039216 0.78823529 0.52549020
v 0.02500000 -0.01909541 0.00717404 0.38039216 0.78823529 0.52549020
v 0.02500000 -0.02127119 0.00240812 0.38039216 0.78823529 0.52549020
v -0.07500000 -0.02078611 0.00196378 0.38039216 0.78823529 0.52549020
v -0.07500000 -0.01909541 0.00717404 0.38039216 0.78823529 0.52549020
v 0.02500000 -0.01974786 0.00709896 0.38039216 0.78823529 0.52549020
v 0.02500000 -0.02164280 0.00294970 0.38039216 0.78823529 0.52549020
v -0.07500000 -0.02127119 0.00240812 0.38039216 0.78823529 0.52549020
v -0.07500000 -0.01974786 0.00709896 0.38039216 0.78823529 0.52549020
v 0.02500000 -0.02036627 0.00687864 0.38039216 0.78823529 0.52549020
v 0.02500000 -0.02188109 0.00356145 0.38039216 0.78823529 0.52549020
v -0.07500000 -0.02164280 0.00294970 0.38039216 0.78823529 0.52549020
v -0.07500000 -0.02036627 0.00687864 0.38039216 0.78823529 0.52549020
v 0.02500000 -0.02091660 0.00652292 0.38039216 0.78823529 0.52549020
v 0.02500000 -0.02197470 0.00421135 0.38039216 0.78823529 0.52549020
v -0.07500000 -0.02188109 0.00356145 0.38039216 0.78823529 0.52549020
v -0.07500000 -0.02091660 0.00652292 0.38039216 0.78823529 0.52549020
v 0.02500000 -0.02137615 0.00605272 0.38039216 0.78823529 0.52549020
v 0.02500000 -0.02191797 0.00486617 0.38039216 0.78823529 0.52549020
v -0.07500000 -0.02197470 0.00421135 0.38039216 0.78823529 0.52549020
v -0.07500000 -0.02137615 0.00605272 0.38039216 0.78823529 0.52549020
v 0.02500000 -0.02171372 0.00549022 0.38039216 0.78823529 0.52549020
v -0.07500000 -0.02191797 0.00486617 0.38039216 0.78823529 0.52549020
v -0.07500000 -0.02171372 0.00549022 0.38039216 0.78823529 0.52549020
f 1 2 6
f 1 6 7
f 1 7 3
f 1 3 8
f 1 8 4
f 1 4 9
f 1 9 14
f 1 14 18
f 1 18 22
f 1 22 26
f 1 26 30
f 1 30 34
f 1 34 31
f 1 31 27
f 1 27 23
f 1 23 19
f 1 19 15
f 1 15 10
f 1 10 5
f 1 5 2
f 2 5 11
f 2 11 12
f 2 12 6
f 3 7 12
f 3 12 11
f 3 11 16
f 3 16 20
f 3 20 24
f 3 24 28
f 3 28 32
f 3 32 35
f 3 35 36
f 3 36 33
f 3 33 29
f 3 29 25
f 3 25 21
f 3 21 17
f 3 17 13
f 3 13 8
f 4 8 13
f 4 13 9
f 5 10 16
f 5 16 11
f 6 12 7
f 9 13 17
f 9 17 14
f 10 15 20
f 10 20 16
f 14 17 21
f 14 21 18
f 15 19 24
f 15 24 20
f 18 21 25
f 18 25 22
f 19 23 28
f 19 28 24
f 22 25 29
f 22 29 26
f 23 27 32
f 23 32 28
f 26 29 33
f 26 33 30
f 27 31 35
f 27 35 32
f 30 33 36
f 30 36 34
f 31 34 36
f 31 36 35