# https://github.com/mikedh/trimesh
v -0.07500000 -0.01196610 -0.02102950 0.54117647 0.42352941 0.64313725
v -0.07500000 -0.01130991 -0.02099121 0.54117647 0.42352941 0.64313725
v 0.02500000 -0.01196610 -0.02102950 0.54117647 0.42352941 0.64313725
v -0.07500000 -0.01261225 -0.02091617 0.54117647 0.42352941 0.64313725
v -0.07500000 -0.01067955 -0.02080590 0.54117647 0.42352941 0.64313725
v 0.02500000 -0.01130991 -0.02099121 0.54117647 0.42352941 0.64313725
v 0.02500000 -0.01261225 -0.02091617 0.54117647 0.42352941 0.64313725
v -0.07500000 -0.01321675 -0.02066193 0.54117647 0.42352941 0.64313725
v -0.07500000 -0.01010807 -0.02048274 0.54117647 0.42352941 0.64313725
v 0.02500000 -0.01067955 -0.02080590 0.54117647 0.42352941 0.64313725
v 0.02500000 -0.01321675 -0.02066193 0.54117647 0.42352941 0.64313725
v -0.07500000 -0.01374803 -0.02027598 0.54117647 0.42352941 0.64313725
v -0.07500000 -0.00000235 -0.01314053 0.54117647 0.42352941 0.64313725
v -0.07497064 -0.00000235 -0.01314206 0.54117647 0.42352941 0.64313725
v 0.02500000 -0.01010807 -0.02048274 0.54117647 0.42352941 0.64313725
v 0.02500000 -0.01374803 -0.02027598 0.54117647 0.42352941 0.64313725
v -0.07500000 -0.01417879 -0.01977976 0.54117647 0.42352941 0.64313725
v -0.07500000 -0.00000235 -0.00538480 0.54117647 0.42352941 0.64313725
v 0.02500000 -0.00000235 -0.01314206 0.54117647 0.42352941 0.64313725
v 0.02500000 -0.01417879 -0.01977976 0.54117647 0.42352941 0.64313725
v -0.07500000 -0.01448463 -0.01919778 0.54117647 0.42352941 0.64313725
v -0.07500000 -0.01067955 -0.00538480 0.54117647 0.42352941 0.64313725
v 0.02500000 -0.00000235 -0.00538480 0.54117647 0.42352941 0.64313725
v 0.02500000 -0.01448463 -0.01919778 0.54117647 0.42352941 0.64313725
v -0.07500000 -0.01465120 -0.01856372 0.54117647 0.42352941 0.64313725
v -0.07500000 -0.01454064 -0.01726344 0.54117647 0.42352941 0.64313725
v 0.02500000 -0.01067955 -0.00538480 0.54117647 0.42352941 0.64313725
v 0.02500000 -0.01465120 -0.01856372 0.54117647 0.42352941 0.64313725
v -0.07500000 -0.01467130 -0.01790669 0.54117647 0.42352941 0.64313725
v 0.02500000 -0.01454064 -0.01726344 0.54117647 0.42352941 0.64313725
v 0.02500000 -0.01467130 -0.01790669 0.54117647 0.42352941 0.64313725
f 1 2 6
f 1 6 3
f 1 3 7
f 1 7 4
f 1 4 8
f 1 8 12
f 1 12 17
f 1 17 21
f 1 21 25
f 1 25 29
f 1 29 26
f 1 26 22
f 1 22 18
f 1 18 13
f 1 13 9
f 1 9 5
f 1 5 2
f 2 5 10
f 2 10 6
f 3 6 10
f 3 10 15
f 3 15 19
f 3 19 23
f 3 23 27
f 3 27 30
f 3 30 31
f 3 31 28
f 3 28 24
f 3 24 20
f 3 20 16
f 3 16 11
f 3 11 7
f 4 7 11
f 4 11 8
f 5 9 15
f 5 15 10
f 8 11 16
f 8 16 12
f 9 13 14
f 9 14 19
f 9 19 15
f 12 16 20
f 12 20 17
f 13 18 23
f 13 23 19
f 13 19 14
f 17 20 24
f 17 24 21
f 18 22 27
f 18 27 23
f 21 24 28
f 21 28 25
f 22 26 30
f 22 30 27
f 25 28 31
f 25 31 29
f 26 29 31
f 26 31 30