# https://github.com/mikedh/trimesh
v -0.07500000 0.01196523 -0.02102950 0.43529412 0.89019608 0.96078431
v -0.07500000 0.01131026 -0.02099121 0.43529412 0.89019608 0.96078431
v -0.07500000 0.01261303 -0.02091617 0.43529412 0.89019608 0.96078431
v 0.02500000 0.01196523 -0.02102950 0.43529412 0.89019608 0.96078431
v -0.07500000 0.01067971 -0.02080590 0.43529412 0.89019608 0.96078431
v 0.02500000 0.01131026 -0.02099121 0.43529412 0.89019608 0.96078431
v -0.07500000 0.01321772 -0.02066193 0.43529412 0.89019608 0.96078431
v 0.02500000 0.01261303 -0.02091617 0.43529412 0.89019608 0.96078431
v -0.07500000 0.01010805 -0.02048274 0.43529412 0.89019608 0.96078431
v 0.02500000 0.01067971 -0.02080590 0.43529412 0.89019608 0.96078431
v -0.07500000 0.01374917 -0.02027598 0.43529412 0.89019608 0.96078431
v 0.02500000 0.01321772 -0.02066193 0.43529412 0.89019608 0.96078431
v -0.07500000 -0.00000235 -0.01314053 0.43529412 0.89019608 0.96078431
v 0.02500000 0.01010805 -0.02048274 0.43529412 0.89019608 0.96078431
v -0.07497064 -0.00000235 -0.01314206 0.43529412 0.89019608 0.96078431
v -0.07500000 0.01417864 -0.01977976 0.43529412 0.89019608 0.96078431
v 0.02500000 0.01374917 -0.02027598 0.43529412 0.89019608 0.96078431
v -0.07500000 -0.00000235 -0.00538480 0.43529412 0.89019608 0.96078431
v 0.02500000 -0.00000235 -0.01314206 0.43529412 0.89019608 0.96078431
v -0.07500000 0.01448458 -0.01919778 0.43529412 0.89019608 0.96078431
v 0.02500000 0.01417864 -0.01977976 0.43529412 0.89019608 0.96078431
v -0.07500000 0.01067971 -0.00538480 0.43529412 0.89019608 0.96078431
v 0.02500000 -0.00000235 -0.00538480 0.43529412 0.89019608 0.96078431
v -0.07500000 0.01465119 -0.01856372 0.43529412 0.89019608 0.96078431
v 0.02500000 0.01448458 -0.01919778 0.43529412 0.89019608 0.96078431
v -0.07500000 0.01454059 -0.01726344 0.43529412 0.89019608 0.96078431
v 0.02500000 0.01067971 -0.00538480 0.43529412 0.89019608 0.96078431
v -0.07500000 0.01467130 -0.01790669 0.43529412 0.89019608 0.96078431
v 0.02500000 0.01465119 -0.01856372 0.43529412 0.89019608 0.96078431
v 0.02500000 0.01454059 -0.01726344 0.43529412 0.89019608 0.96078431
v 0.02500000 0.01467130 -0.01790669 0.43529412 0.89019608 0.96078431
f 1 2 5
f 1 5 9
f 1 9 13
f 1 13 18
f 1 18 22
f 1 22 26
f 1 26 28
f 1 28 24
f 1 24 20
f 1 20 16
f 1 16 11
f 1 11 7
f 1 7 3
f 1 3 8
f 1 8 4
f 1 4 6
f 1 6 2
f 2 6 10
f 2 10 5
f 3 7 12
f 3 12 8
f 4 8 12
f 4 12 17
f 4 17 21
f 4 21 25
f 4 25 29
f 4 29 31
f 4 31 30
f 4 30 27
f 4 27 23
f 4 23 19
f 4 19 14
f 4 14 10
f 4 10 6
f 5 10 14
f 5 14 9
f 7 11 17
f 7 17 12
f 9 14 19
f 9 19 15
f 9 15 13
f 11 16 21
f 11 21 17
f 13 15 19
f 13 19 23
f 13 23 18
f 16 20 25
f 16 25 21
f 18 23 27
f 18 27 22
f 20 24 29
f 20 29 25
f 22 27 30
f 22 30 26
f 24 28 31
f 24 31 29
f 26 30 31
f 26 31 28