# https://github.com/mikedh/trimesh

o geometry_0
v -0.07500000 -0.00659488 0.00719128 0.54509804 0.71372549 0.60000000
v -0.07500000 -0.00273840 0.01905726 0.54509804 0.71372549 0.60000000
v -0.07500000 0.00659488 0.00719128 0.54509804 0.71372549 0.60000000
v 0.02500000 -0.00659488 0.00719128 0.54509804 0.71372549 0.60000000
v -0.07500000 -0.00246598 0.01965462 0.54509804 0.71372549 0.60000000
v 0.02500000 -0.00273840 0.01905726 0.54509804 0.71372549 0.60000000
v -0.07500000 0.00273840 0.01905726 0.54509804 0.71372549 0.60000000
v 0.02500000 0.00659488 0.00719128 0.54509804 0.71372549 0.60000000
v -0.07500000 -0.00206445 0.02017477 0.54509804 0.71372549 0.60000000
v 0.02500000 -0.00246598 0.01965462 0.54509804 0.71372549 0.60000000
v -0.07500000 0.00246598 0.01965462 0.54509804 0.71372549 0.60000000
v 0.02500000 0.00273840 0.01905726 0.54509804 0.71372549 0.60000000
v -0.07500000 -0.00155576 0.02059062 0.54509804 0.71372549 0.60000000
v 0.02500000 -0.00206445 0.02017477 0.54509804 0.71372549 0.60000000
v -0.07500000 0.00206445 0.02017477 0.54509804 0.71372549 0.60000000
v 0.02500000 0.00246598 0.01965462 0.54509804 0.71372549 0.60000000
v -0.07500000 -0.00096703 0.02088050 0.54509804 0.71372549 0.60000000
v 0.02500000 -0.00155576 0.02059062 0.54509804 0.71372549 0.60000000
v -0.07500000 0.00155576 0.02059062 0.54509804 0.71372549 0.60000000
v 0.02500000 0.00206445 0.02017477 0.54509804 0.71372549 0.60000000
v -0.07500000 -0.00032794 0.02102950 0.54509804 0.71372549 0.60000000
v 0.02500000 -0.00096703 0.02088050 0.54509804 0.71372549 0.60000000
v -0.07500000 0.00096703 0.02088050 0.54509804 0.71372549 0.60000000
v 0.02500000 0.00155576 0.02059062 0.54509804 0.71372549 0.60000000
v -0.07500000 0.00032794 0.02102950 0.54509804 0.71372549 0.60000000
v 0.02500000 -0.00032794 0.02102950 0.54509804 0.71372549 0.60000000
v 0.02500000 0.00096703 0.02088050 0.54509804 0.71372549 0.60000000
v 0.02500000 0.00032794 0.02102950 0.54509804 0.71372549 0.60000000
f 1 2 5
f 1 5 9
f 1 9 13
f 1 13 17
f 1 17 21
f 1 21 25
f 1 25 23
f 1 23 19
f 1 19 15
f 1 15 11
f 1 11 7
f 1 7 3
f 1 3 8
f 1 8 4
f 1 4 6
f 1 6 2
f 2 6 10
f 2 10 5
f 3 7 12
f 3 12 8
f 4 8 12
f 4 12 16
f 4 16 20
f 4 20 24
f 4 24 27
f 4 27 28
f 4 28 26
f 4 26 22
f 4 22 18
f 4 18 14
f 4 14 10
f 4 10 6
f 5 10 14
f 5 14 9
f 7 11 16
f 7 16 12
f 9 14 18
f 9 18 13
f 11 15 20
f 11 20 16
f 13 18 22
f 13 22 17
f 15 19 24
f 15 24 20
f 17 22 26
f 17 26 21
f 19 23 27
f 19 27 24
f 21 26 28
f 21 28 25
f 23 25 28
f 23 28 27

o geometry_1
v -0.07500000 -0.01196610 -0.02102950 0.54117647 0.42352941 0.64313725
v -0.07500000 -0.01130991 -0.02099121 0.54117647 0.42352941 0.64313725
v 0.02500000 -0.01196610 -0.02102950 0.54117647 0.42352941 0.64313725
v -0.07500000 -0.01261225 -0.02091617 0.54117647 0.42352941 0.64313725
v -0.07500000 -0.01067955 -0.02080590 0.54117647 0.42352941 0.64313725
v 0.02500000 -0.01130991 -0.02099121 0.54117647 0.42352941 0.64313725
v 0.02500000 -0.01261225 -0.02091617 0.54117647 0.42352941 0.64313725
v -0.07500000 -0.01321675 -0.02066193 0.54117647 0.42352941 0.64313725
v -0.07500000 -0.01010807 -0.02048274 0.54117647 0.42352941 0.64313725
v 0.02500000 -0.01067955 -0.02080590 0.54117647 0.42352941 0.64313725
v 0.02500000 -0.01321675 -0.02066193 0.54117647 0.42352941 0.64313725
v -0.07500000 -0.01374803 -0.02027598 0.54117647 0.42352941 0.64313725
v -0.07500000 -0.00000235 -0.01314053 0.54117647 0.42352941 0.64313725
v -0.07497064 -0.00000235 -0.01314206 0.54117647 0.42352941 0.64313725
v 0.02500000 -0.01010807 -0.02048274 0.54117647 0.42352941 0.64313725
v 0.02500000 -0.01374803 -0.02027598 0.54117647 0.42352941 0.64313725
v -0.07500000 -0.01417879 -0.01977976 0.54117647 0.42352941 0.64313725
v -0.07500000 -0.00000235 -0.00538480 0.54117647 0.42352941 0.64313725
v 0.02500000 -0.00000235 -0.01314206 0.54117647 0.42352941 0.64313725
v 0.02500000 -0.01417879 -0.01977976 0.54117647 0.42352941 0.64313725
v -0.07500000 -0.01448463 -0.01919778 0.54117647 0.42352941 0.64313725
v -0.07500000 -0.01067955 -0.00538480 0.54117647 0.42352941 0.64313725
v 0.02500000 -0.00000235 -0.00538480 0.54117647 0.42352941 0.64313725
v 0.02500000 -0.01448463 -0.01919778 0.54117647 0.42352941 0.64313725
v -0.07500000 -0.01465120 -0.01856372 0.54117647 0.42352941 0.64313725
v -0.07500000 -0.01454064 -0.01726344 0.54117647 0.42352941 0.64313725
v 0.02500000 -0.01067955 -0.00538480 0.54117647 0.42352941 0.64313725
v 0.02500000 -0.01465120 -0.01856372 0.54117647 0.42352941 0.64313725
v -0.07500000 -0.01467130 -0.01790669 0.54117647 0.42352941 0.64313725
v 0.02500000 -0.01454064 -0.01726344 0.54117647 0.42352941 0.64313725
v 0.02500000 -0.01467130 -0.01790669 0.54117647 0.42352941 0.64313725
f 29 30 34
f 29 34 31
f 29 31 35
f 29 35 32
f 29 32 36
f 29 36 40
f 29 40 45
f 29 45 49
f 29 49 53
f 29 53 57
f 29 57 54
f 29 54 50
f 29 50 46
f 29 46 41
f 29 41 37
f 29 37 33
f 29 33 30
f 30 33 38
f 30 38 34
f 31 34 38
f 31 38 43
f 31 43 47
f 31 47 51
f 31 51 55
f 31 55 58
f 31 58 59
f 31 59 56
f 31 56 52
f 31 52 48
f 31 48 44
f 31 44 39
f 31 39 35
f 32 35 39
f 32 39 36
f 33 37 43
f 33 43 38
f 36 39 44
f 36 44 40
f 37 41 42
f 37 42 47
f 37 47 43
f 40 44 48
f 40 48 45
f 41 46 51
f 41 51 47
f 41 47 42
f 45 48 52
f 45 52 49
f 46 50 55
f 46 55 51
f 49 52 56
f 49 56 53
f 50 54 58
f 50 58 55
f 53 56 59
f 53 59 57
f 54 57 59
f 54 59 58

o geometry_2
v -0.07500000 0.01196523 -0.02102950 0.43529412 0.89019608 0.96078431
v -0.07500000 0.01131026 -0.02099121 0.43529412 0.89019608 0.96078431
v -0.07500000 0.01261303 -0.02091617 0.43529412 0.89019608 0.96078431
v 0.02500000 0.01196523 -0.02102950 0.43529412 0.89019608 0.96078431
v -0.07500000 0.01067971 -0.02080590 0.43529412 0.89019608 0.96078431
v 0.02500000 0.01131026 -0.02099121 0.43529412 0.89019608 0.96078431
v -0.07500000 0.01321772 -0.02066193 0.43529412 0.89019608 0.96078431
v 0.02500000 0.01261303 -0.02091617 0.43529412 0.89019608 0.96078431
v -0.07500000 0.01010805 -0.02048274 0.43529412 0.89019608 0.96078431
v 0.02500000 0.01067971 -0.02080590 0.43529412 0.89019608 0.96078431
v -0.07500000 0.01374917 -0.02027598 0.43529412 0.89019608 0.96078431
v 0.02500000 0.01321772 -0.02066193 0.43529412 0.89019608 0.96078431
v -0.07500000 -0.00000235 -0.01314053 0.43529412 0.89019608 0.96078431
v 0.02500000 0.01010805 -0.02048274 0.43529412 0.89019608 0.96078431
v -0.07497064 -0.00000235 -0.01314206 0.43529412 0.89019608 0.96078431
v -0.07500000 0.01417864 -0.01977976 0.43529412 0.89019608 0.96078431
v 0.02500000 0.01374917 -0.02027598 0.43529412 0.89019608 0.96078431
v -0.07500000 -0.00000235 -0.00538480 0.43529412 0.89019608 0.96078431
v 0.02500000 -0.00000235 -0.01314206 0.43529412 0.89019608 0.96078431
v -0.07500000 0.01448458 -0.01919778 0.43529412 0.89019608 0.96078431
v 0.02500000 0.01417864 -0.01977976 0.43529412 0.89019608 0.96078431
v -0.07500000 0.01067971 -0.00538480 0.43529412 0.89019608 0.96078431
v 0.02500000 -0.00000235 -0.00538480 0.43529412 0.89019608 0.96078431
v -0.07500000 0.01465119 -0.01856372 0.43529412 0.89019608 0.96078431
v 0.02500000 0.01448458 -0.01919778 0.43529412 0.89019608 0.96078431
v -0.07500000 0.01454059 -0.01726344 0.43529412 0.89019608 0.96078431
v 0.02500000 0.01067971 -0.00538480 0.43529412 0.89019608 0.96078431
v -0.07500000 0.01467130 -0.01790669 0.43529412 0.89019608 0.96078431
v 0.02500000 0.01465119 -0.01856372 0.43529412 0.89019608 0.96078431
v 0.02500000 0.01454059 -0.01726344 0.43529412 0.89019608 0.96078431
v 0.02500000 0.01467130 -0.01790669 0.43529412 0.89019608 0.96078431
f 60 61 64
f 60 64 68
f 60 68 72
f 60 72 77
f 60 77 81
f 60 81 85
f 60 85 87
f 60 87 83
f 60 83 79
f 60 79 75
f 60 75 70
f 60 70 66
f 60 66 62
f 60 62 67
f 60 67 63
f 60 63 65
f 60 65 61
f 61 65 69
f 61 69 64
f 62 66 71
f 62 71 67
f 63 67 71
f 63 71 76
f 63 76 80
f 63 80 84
f 63 84 88
f 63 88 90
f 63 90 89
f 63 89 86
f 63 86 82
f 63 82 78
f 63 78 73
f 63 73 69
f 63 69 65
f 64 69 73
f 64 73 68
f 66 70 76
f 66 76 71
f 68 73 78
f 68 78 74
f 68 74 72
f 70 75 80
f 70 80 76
f 72 74 78
f 72 78 82
f 72 82 77
f 75 79 84
f 75 84 80
f 77 82 86
f 77 86 81
f 79 83 88
f 79 88 84
f 81 86 89
f 81 89 85
f 83 87 90
f 83 90 88
f 85 89 90
f 85 90 87

o geometry_3
v 0.02500000 0.00700546 0.00717404 0.38039216 0.78823529 0.52549020
v 0.02500000 0.00700546 -0.00538327 0.38039216 0.78823529 0.52549020
v -0.07500000 0.00700546 0.00717404 0.38039216 0.78823529 0.52549020
v 0.02500000 0.00659413 0.00719128 0.38039216 0.78823529 0.52549020
v 0.02500000 -0.01067879 -0.00538327 0.38039216 0.78823529 0.52549020
v -0.07497064 0.00700546 -0.00538327 0.38039216 0.78823529 0.52549020
v -0.07500000 0.00700546 -0.00537958 0.38039216 0.78823529 0.52549020
v -0.07500000 0.00659413 0.00719128 0.38039216 0.78823529 0.52549020
v 0.02500000 -0.00659672 0.00719128 0.38039216 0.78823529 0.52549020
v 0.02500000 -0.02078611 0.00196378 0.38039216 0.78823529 0.52549020
v -0.07500000 -0.01067879 -0.00538327 0.38039216 0.78823529 0.52549020
v -0.07500000 -0.01067312 -0.00538327 0.38039216 0.78823529 0.52549020
v -0.07500000 -0.00659672 0.00719128 0.38039216 0.78823529 0.52549020
v 0.02500000 -0.01909541 0.00717404 0.38039216 0.78823529 0.52549020
v 0.02500000 -0.02127119 0.00240812 0.38039216 0.78823529 0.52549020
v -0.07500000 -0.02078611 0.00196378 0.38039216 0.78823529 0.52549020
v -0.07500000 -0.01909541 0.00717404 0.38039216 0.78823529 0.52549020
v 0.02500000 -0.01974786 0.00709896 0.38039216 0.78823529 0.52549020
v 0.02500000 -0.02164280 0.00294970 0.38039216 0.78823529 0.52549020
v -0.07500000 -0.02127119 0.00240812 0.38039216 0.78823529 0.52549020
v -0.07500000 -0.01974786 0.00709896 0.38039216 0.78823529 0.52549020
v 0.02500000 -0.02036627 0.00687864 0.38039216 0.78823529 0.52549020
v 0.02500000 -0.02188109 0.00356145 0.38039216 0.78823529 0.52549020
v -0.07500000 -0.02164280 0.00294970 0.38039216 0.78823529 0.52549020
v -0.07500000 -0.02036627 0.00687864 0.38039216 0.78823529 0.52549020
v 0.02500000 -0.02091660 0.00652292 0.38039216 0.78823529 0.52549020
v 0.02500000 -0.02197470 0.00421135 0.38039216 0.78823529 0.52549020
v -0.07500000 -0.02188109 0.00356145 0.38039216 0.78823529 0.52549020
v -0.07500000 -0.02091660 0.00652292 0.38039216 0.78823529 0.52549020
v 0.02500000 -0.02137615 0.00605272 0.38039216 0.78823529 0.52549020
v 0.02500000 -0.02191797 0.00486617 0.38039216 0.78823529 0.52549020
v -0.07500000 -0.02197470 0.00421135 0.38039216 0.78823529 0.52549020
v -0.07500000 -0.02137615 0.00605272 0.38039216 0.78823529 0.52549020
v 0.02500000 -0.02171372 0.00549022 0.38039216 0.78823529 0.52549020
v -0.07500000 -0.02191797 0.00486617 0.38039216 0.78823529 0.52549020
v -0.07500000 -0.02171372 0.00549022 0.38039216 0.78823529 0.52549020
f 91 92 96
f 91 96 97
f 91 97 93
f 91 93 98
f 91 98 94
f 91 94 99
f 91 99 104
f 91 104 108
f 91 108 112
f 91 112 116
f 91 116 120
f 91 120 124
f 91 124 121
f 91 121 117
f 91 117 113
f 91 113 109
f 91 109 105
f 91 105 100
f 91 100 95
f 91 95 92
f 92 95 101
f 92 101 102
f 92 102 96
f 93 97 102
f 93 102 101
f 93 101 106
f 93 106 110
f 93 110 114
f 93 114 118
f 93 118 122
f 93 122 125
f 93 125 126
f 93 126 123
f 93 123 119
f 93 119 115
f 93 115 111
f 93 111 107
f 93 107 103
f 93 103 98
f 94 98 103
f 94 103 99
f 95 100 106
f 95 106 101
f 96 102 97
f 99 103 107
f 99 107 104
f 100 105 110
f 100 110 106
f 104 107 111
f 104 111 108
f 105 109 114
f 105 114 110
f 108 111 115
f 108 115 112
f 109 113 118
f 109 118 114
f 112 115 119
f 112 119 116
f 113 117 122
f 113 122 118
f 116 119 123
f 116 123 120
f 117 121 125
f 117 125 122
f 120 123 126
f 120 126 124
f 121 124 126
f 121 126 125

o geometry_4
v 0.02500000 0.02197470 0.00421191 0.56470588 0.92549020 0.07058824
v 0.02500000 0.02191755 0.00486585 0.56470588 0.92549020 0.07058824
v 0.02500000 0.02188092 0.00356166 0.56470588 0.92549020 0.07058824
v -0.07500000 0.02197470 0.00421191 0.56470588 0.92549020 0.07058824
v 0.02500000 0.02171535 0.00549029 0.56470588 0.92549020 0.07058824
v -0.07500000 0.02191755 0.00486585 0.56470588 0.92549020 0.07058824
v 0.02500000 0.02164208 0.00294952 0.56470588 0.92549020 0.07058824
v -0.07500000 0.02188092 0.00356166 0.56470588 0.92549020 0.07058824
v 0.02500000 0.02137540 0.00605203 0.56470588 0.92549020 0.07058824
v -0.07500000 0.02171535 0.00549029 0.56470588 0.92549020 0.07058824
v 0.02500000 0.02127137 0.00240744 0.56470588 0.92549020 0.07058824
v -0.07500000 0.02164208 0.00294952 0.56470588 0.92549020 0.07058824
v 0.02500000 0.02091824 0.00652282 0.56470588 0.92549020 0.07058824
v -0.07500000 0.02137540 0.00605203 0.56470588 0.92549020 0.07058824
v 0.02500000 0.02078783 0.00196369 0.56470588 0.92549020 0.07058824
v -0.07500000 0.02127137 0.00240744 0.56470588 0.92549020 0.07058824
v 0.02500000 0.02036583 0.00687806 0.56470588 0.92549020 0.07058824
v -0.07500000 0.02091824 0.00652282 0.56470588 0.92549020 0.07058824
v 0.02500000 0.01068183 -0.00538327 0.56470588 0.92549020 0.07058824
v -0.07500000 0.02078783 0.00196369 0.56470588 0.92549020 0.07058824
v 0.02500000 0.01974748 0.00709932 0.56470588 0.92549020 0.07058824
v -0.07500000 0.02036583 0.00687806 0.56470588 0.92549020 0.07058824
v 0.02500000 0.00700546 -0.00538327 0.56470588 0.92549020 0.07058824
v -0.07500000 0.01068183 -0.00538327 0.56470588 0.92549020 0.07058824
v 0.02500000 0.01909544 0.00717430 0.56470588 0.92549020 0.07058824
v -0.07500000 0.01974748 0.00709932 0.56470588 0.92549020 0.07058824
v 0.02500000 0.00700546 0.00717430 0.56470588 0.92549020 0.07058824
v -0.07497064 0.00700546 -0.00538327 0.56470588 0.92549020 0.07058824
v -0.07500000 0.01067597 -0.00538327 0.56470588 0.92549020 0.07058824
v -0.07500000 0.01909544 0.00717430 0.56470588 0.92549020 0.07058824
v -0.07500000 0.00700546 0.00717430 0.56470588 0.92549020 0.07058824
v -0.07500000 0.00700546 -0.00537959 0.56470588 0.92549020 0.07058824
f 127 128 131
f 127 131 135
f 127 135 139
f 127 139 143
f 127 143 147
f 127 147 151
f 127 151 153
f 127 153 149
f 127 149 145
f 127 145 141
f 127 141 137
f 127 137 133
f 127 133 129
f 127 129 134
f 127 134 130
f 127 130 132
f 127 132 128
f 128 132 136
f 128 136 131
f 129 133 138
f 129 138 134
f 130 134 138
f 130 138 142
f 130 142 146
f 130 146 150
f 130 150 155
f 130 155 158
f 130 158 157
f 130 157 156
f 130 156 152
f 130 152 148
f 130 148 144
f 130 144 140
f 130 140 136
f 130 136 132
f 131 136 140
f 131 140 135
f 133 137 142
f 133 142 138
f 135 140 144
f 135 144 139
f 137 141 146
f 137 146 142
f 139 144 148
f 139 148 143
f 141 145 150
f 141 150 146
f 143 148 152
f 143 152 147
f 145 149 154
f 145 154 155
f 145 155 150
f 147 152 156
f 147 156 151
f 149 153 157
f 149 157 158
f 149 158 154
f 151 156 157
f 151 157 153
f 154 158 155