# https://github.com/mikedh/trimesh
v 0.07500000 -0.00949600 0.01822750
v -0.07500000 -0.00889720 0.01829050
v -0.07500000 -0.00949600 0.01822750
v 0.07500000 -0.00889720 0.01829050
v 0.07500000 -0.01006860 0.01804150
v -0.07500000 -0.01006860 0.01804150
v 0.07500000 -0.01059010 0.01774040
v -0.07500000 -0.01059010 0.01774040
v 0.07500000 -0.01103750 0.01733760
v -0.07500000 -0.01103750 0.01733760
v 0.07500000 -0.01139140 0.01685050
v -0.07500000 -0.01139140 0.01685050
v 0.07500000 0.00889720 0.01829050
v -0.07500000 0.00889720 0.01829050
v 0.07500000 0.01103750 0.01733760
v -0.07500000 0.01139140 0.01685050
v -0.07500000 0.01103750 0.01733760
v 0.07500000 0.01139140 0.01685050
v 0.07500000 0.01059010 0.01774040
v -0.07500000 0.01059010 0.01774040
v 0.07500000 0.01006860 0.01804150
v -0.07500000 0.01006860 0.01804150
v -0.07500000 0.00949600 0.01822750
v 0.07500000 0.00949600 0.01822750
v -0.07500000 0.02028860 0.00144000
v 0.07500000 0.02028860 0.00144000
v 0.07500000 0.02053350 -0.00089000
v -0.07500000 0.02028860 -0.00144000
v -0.07500000 0.02053350 -0.00089000
v 0.07500000 0.02028860 -0.00144000
v 0.07500000 0.02065870 -0.00030100
v -0.07500000 0.02065870 -0.00030100
v -0.07500000 0.02065870 0.00030100
v 0.07500000 0.02065870 0.00030100
v 0.07500000 0.02053350 0.00089000
v -0.07500000 0.02053350 0.00089000
v -0.07500000 0.01139140 -0.01685050
v 0.07500000 0.01139140 -0.01685050
v 0.07500000 0.00889720 -0.01829050
v -0.07500000 0.00889720 -0.01829050
v -0.07500000 0.00949600 -0.01822750
v 0.07500000 0.00949600 -0.01822750
v -0.07500000 0.01006860 -0.01804150
v 0.07500000 0.01006860 -0.01804150
v 0.07500000 0.01059010 -0.01774040
v -0.07500000 0.01059010 -0.01774040
v -0.07500000 0.01103750 -0.01733760
v 0.07500000 0.01103750 -0.01733760
v 0.07500000 -0.00889720 -0.01829050
v -0.07500000 -0.00889720 -0.01829050
v 0.07500000 -0.01103750 -0.01733760
v -0.07500000 -0.01139140 -0.01685050
v -0.07500000 -0.01103750 -0.01733760
v 0.07500000 -0.01139140 -0.01685050
v 0.07500000 -0.01059010 -0.01774040
v -0.07500000 -0.01059010 -0.01774040
v 0.07500000 -0.01006860 -0.01804150
v -0.07500000 -0.01006860 -0.01804150
v -0.07500000 -0.00949600 -0.01822750
v 0.07500000 -0.00949600 -0.01822750
v 0.07500000 -0.02028860 -0.00144000
v -0.07500000 -0.02028860 -0.00144000
v 0.07500000 -0.02053350 0.00089000
v -0.07500000 -0.02028860 0.00144000
v -0.07500000 -0.02053350 0.00089000
v 0.07500000 -0.02028860 0.00144000
v 0.07500000 -0.02065870 0.00030100
v -0.07500000 -0.02065870 0.00030100
v -0.07500000 -0.02065870 -0.00030100
v 0.07500000 -0.02065870 -0.00030100
v 0.07500000 -0.02053350 -0.00089000
v -0.07500000 -0.02053350 -0.00089000
f 1 2 3
f 1 4 2
f 5 3 6
f 5 1 3
f 7 6 8
f 7 5 6
f 9 8 10
f 9 7 8
f 11 10 12
f 11 9 10
f 13 14 2
f 4 13 2
f 15 16 17
f 15 18 16
f 19 17 20
f 19 15 17
f 21 20 22
f 21 22 23
f 21 19 20
f 24 23 14
f 24 21 23
f 13 24 14
f 18 25 16
f 18 26 25
f 27 28 29
f 27 30 28
f 31 29 32
f 31 32 33
f 31 27 29
f 34 31 33
f 35 33 36
f 35 34 33
f 26 36 25
f 26 35 36
f 30 37 28
f 30 38 37
f 39 40 41
f 42 41 43
f 42 39 41
f 44 42 43
f 45 43 46
f 45 46 47
f 45 44 43
f 48 47 37
f 48 45 47
f 38 48 37
f 49 50 40
f 39 49 40
f 51 52 53
f 51 54 52
f 55 53 56
f 55 51 53
f 57 56 58
f 57 58 59
f 57 55 56
f 60 57 59
f 49 59 50
f 49 60 59
f 61 62 52
f 54 61 52
f 63 64 65
f 63 66 64
f 67 65 68
f 67 68 69
f 67 63 65
f 70 67 69
f 71 69 72
f 71 72 62
f 71 70 69
f 61 71 62
f 11 12 64
f 66 11 64
f 11 7 9
f 4 1 5
f 4 5 7
f 4 7 11
f 61 11 66
f 61 66 63
f 61 63 67
f 61 67 70
f 61 70 71
f 21 24 13
f 19 21 13
f 18 15 19
f 18 19 13
f 57 54 51
f 57 51 55
f 49 61 54
f 49 57 60
f 49 4 11
f 49 11 61
f 49 54 57
f 26 18 13
f 34 35 26
f 31 34 26
f 30 27 31
f 30 31 26
f 39 13 4
f 39 4 49
f 38 13 39
f 38 26 13
f 38 30 26
f 48 38 39
f 48 39 42
f 48 42 44
f 48 44 45
f 12 10 8
f 6 12 8
f 3 12 6
f 2 12 3
f 68 65 64
f 69 68 64
f 62 72 69
f 62 69 64
f 14 12 2
f 22 14 23
f 20 14 22
f 16 20 17
f 16 14 20
f 52 62 64
f 58 53 52
f 58 56 53
f 50 59 58
f 50 52 64
f 50 58 52
f 25 14 16
f 33 25 36
f 32 25 33
f 28 32 29
f 28 25 32
f 40 64 12
f 40 12 14
f 40 50 64
f 37 40 14
f 37 14 25
f 37 25 28
f 47 40 37
f 47 41 40
f 47 43 41
f 47 46 43