# https://github.com/mikedh/trimesh
v 0.02500000 -0.00611555 0.00774627 0.43529412 0.89019608 0.96078431
v 0.02500000 -0.00611555 -0.00774627 0.43529412 0.89019608 0.96078431
v 0.00004703 -0.00611555 0.00774627 0.43529412 0.89019608 0.96078431
v 0.02500000 -0.00617741 0.00828903 0.43529412 0.89019608 0.96078431
v 0.02500000 -0.00617741 -0.00828903 0.43529412 0.89019608 0.96078431
v 0.00004703 -0.00617741 -0.00829102 0.43529412 0.89019608 0.96078431
v 0.00004703 -0.00611755 -0.00774627 0.43529412 0.89019608 0.96078431
v 0.00004703 -0.00611555 0.00771634 0.43529412 0.89019608 0.96078431
v 0.00004703 -0.00617741 0.00828903 0.43529412 0.89019608 0.96078431
v 0.02500000 -0.00635899 0.00880584 0.43529412 0.89019608 0.96078431
v 0.02500000 -0.00635899 -0.00880584 0.43529412 0.89019608 0.96078431
v 0.00004703 -0.00635899 -0.00880784 0.43529412 0.89019608 0.96078431
v 0.00004703 -0.00635899 0.00880584 0.43529412 0.89019608 0.96078431
v 0.02500000 -0.00665033 0.00927078 0.43529412 0.89019608 0.96078431
v 0.02500000 -0.00665033 -0.00927078 0.43529412 0.89019608 0.96078431
v 0.00004703 -0.00665033 -0.00927078 0.43529412 0.89019608 0.96078431
v 0.00004703 -0.00665033 0.00927078 0.43529412 0.89019608 0.96078431
v 0.02500000 -0.00703744 0.00965789 0.43529412 0.89019608 0.96078431
v 0.02500000 -0.00703744 -0.00965789 0.43529412 0.89019608 0.96078431
v 0.00004703 -0.00703944 -0.00965789 0.43529412 0.89019608 0.96078431
v 0.00004703 -0.00703744 0.00965789 0.43529412 0.89019608 0.96078431
v 0.02500000 -0.00750238 0.00994923 0.43529412 0.89019608 0.96078431
v 0.02500000 -0.00750238 -0.00994923 0.43529412 0.89019608 0.96078431
v 0.00004703 -0.00750238 -0.00994923 0.43529412 0.89019608 0.96078431
v 0.00004703 -0.00750238 0.00994923 0.43529412 0.89019608 0.96078431
v 0.02500000 -0.00801920 0.01013081 0.43529412 0.89019608 0.96078431
v 0.02500000 -0.00801920 -0.01013081 0.43529412 0.89019608 0.96078431
v 0.00004703 -0.00801920 -0.01013081 0.43529412 0.89019608 0.96078431
v 0.00004703 -0.00801920 0.01013081 0.43529412 0.89019608 0.96078431
v 0.02500000 -0.00856196 0.01019267 0.43529412 0.89019608 0.96078431
v 0.02500000 -0.00856196 -0.01019267 0.43529412 0.89019608 0.96078431
v 0.00004703 -0.00856196 -0.01019267 0.43529412 0.89019608 0.96078431
v 0.00004703 -0.00856196 0.01019267 0.43529412 0.89019608 0.96078431
v 0.02500000 -0.02405454 0.01019267 0.43529412 0.89019608 0.96078431
v 0.02500000 -0.02405454 -0.01019267 0.43529412 0.89019608 0.96078431
v 0.00004703 -0.02405454 -0.01019267 0.43529412 0.89019608 0.96078431
v 0.00004703 -0.02405454 0.01019267 0.43529412 0.89019608 0.96078431
v 0.02500000 -0.02459730 0.01013081 0.43529412 0.89019608 0.96078431
v 0.02500000 -0.02459730 -0.01013081 0.43529412 0.89019608 0.96078431
v 0.00004703 -0.02459730 -0.01013081 0.43529412 0.89019608 0.96078431
v 0.00004703 -0.02459730 0.01013081 0.43529412 0.89019608 0.96078431
v 0.02500000 -0.02511412 0.00994923 0.43529412 0.89019608 0.96078431
v 0.02500000 -0.02511412 -0.00994923 0.43529412 0.89019608 0.96078431
v 0.00004703 -0.02498641 -0.00999512 0.43529412 0.89019608 0.96078431
v 0.00004703 -0.02511412 0.00994923 0.43529412 0.89019608 0.96078431
v 0.02500000 -0.02557906 0.00965789 0.43529412 0.89019608 0.96078431
v 0.00004703 -0.02522985 0.00987739 0.43529412 0.89019608 0.96078431
v 0.02500000 -0.02557906 -0.00965789 0.43529412 0.89019608 0.96078431
v 0.00004703 -0.02511412 -0.00994923 0.43529412 0.89019608 0.96078431
v 0.02500000 -0.02596617 0.00927078 0.43529412 0.89019608 0.96078431
v 0.00004703 -0.02557906 0.00965789 0.43529412 0.89019608 0.96078431
v 0.02500000 -0.02596617 -0.00927078 0.43529412 0.89019608 0.96078431
v 0.00004703 -0.02557906 -0.00965789 0.43529412 0.89019608 0.96078431
v 0.02500000 -0.02625751 0.00880584 0.43529412 0.89019608 0.96078431
v 0.00004703 -0.02596617 0.00927078 0.43529412 0.89019608 0.96078431
v 0.02500000 -0.02625751 -0.00880584 0.43529412 0.89019608 0.96078431
v 0.00004703 -0.02618567 -0.00892158 0.43529412 0.89019608 0.96078431
v 0.00004703 -0.02596617 -0.00927078 0.43529412 0.89019608 0.96078431
v 0.02500000 -0.02643909 0.00828903 0.43529412 0.89019608 0.96078431
v 0.00004703 -0.02625751 0.00880584 0.43529412 0.89019608 0.96078431
v 0.00004703 -0.02630340 0.00867814 0.43529412 0.89019608 0.96078431
v 0.02500000 -0.02643909 -0.00828903 0.43529412 0.89019608 0.96078431
v 0.00004703 -0.02625751 -0.00880584 0.43529412 0.89019608 0.96078431
v 0.02500000 -0.02650095 0.00774627 0.43529412 0.89019608 0.96078431
v 0.00004703 -0.02643909 0.00828903 0.43529412 0.89019608 0.96078431
v 0.02500000 -0.02650095 -0.00774627 0.43529412 0.89019608 0.96078431
v 0.00004703 -0.02643909 -0.00828903 0.43529412 0.89019608 0.96078431
v 0.00004703 -0.02650095 0.00774627 0.43529412 0.89019608 0.96078431
v 0.00004703 -0.02650095 -0.00774627 0.43529412 0.89019608 0.96078431
f 1 2 8
f 1 8 3
f 1 3 9
f 1 9 4
f 1 4 10
f 1 10 14
f 1 14 18
f 1 18 22
f 1 22 26
f 1 26 30
f 1 30 34
f 1 34 38
f 1 38 42
f 1 42 46
f 1 46 50
f 1 50 54
f 1 54 59
f 1 59 64
f 1 64 66
f 1 66 62
f 1 62 56
f 1 56 52
f 1 52 48
f 1 48 43
f 1 43 39
f 1 39 35
f 1 35 31
f 1 31 27
f 1 27 23
f 1 23 19
f 1 19 15
f 1 15 11
f 1 11 5
f 1 5 2
f 2 5 6
f 2 6 7
f 2 7 8
f 3 8 7
f 3 7 6
f 3 6 12
f 3 12 16
f 3 16 20
f 3 20 24
f 3 24 28
f 3 28 32
f 3 32 36
f 3 36 40
f 3 40 44
f 3 44 49
f 3 49 53
f 3 53 58
f 3 58 57
f 3 57 63
f 3 63 67
f 3 67 69
f 3 69 68
f 3 68 65
f 3 65 61
f 3 61 60
f 3 60 55
f 3 55 51
f 3 51 47
f 3 47 45
f 3 45 41
f 3 41 37
f 3 37 33
f 3 33 29
f 3 29 25
f 3 25 21
f 3 21 17
f 3 17 13
f 3 13 9
f 4 9 13
f 4 13 10
f 5 11 12
f 5 12 6
f 10 13 17
f 10 17 14
f 11 15 12
f 12 15 16
f 14 17 21
f 14 21 18
f 15 19 16
f 16 19 20
f 18 21 25
f 18 25 22
f 19 23 24
f 19 24 20
f 22 25 29
f 22 29 26
f 23 27 28
f 23 28 24
f 26 29 33
f 26 33 30
f 27 31 32
f 27 32 28
f 30 33 37
f 30 37 34
f 31 35 36
f 31 36 32
f 34 37 41
f 34 41 38
f 35 39 40
f 35 40 36
f 38 41 45
f 38 45 42
f 39 43 44
f 39 44 40
f 42 45 47
f 42 47 46
f 43 48 53
f 43 53 49
f 43 49 44
f 46 47 51
f 46 51 55
f 46 55 50
f 48 52 58
f 48 58 53
f 50 55 60
f 50 60 54
f 52 56 57
f 52 57 58
f 54 60 61
f 54 61 59
f 56 62 67
f 56 67 63
f 56 63 57
f 59 61 65
f 59 65 68
f 59 68 64
f 62 66 69
f 62 69 67
f 64 68 69
f 64 69 66