# https://github.com/mikedh/trimesh
v 0.00004703 0.00859198 -0.01019267 0.54117647 0.42352941 0.64313725
v 0.00004703 0.02405455 -0.01019267 0.54117647 0.42352941 0.64313725
v 0.02500000 0.00856205 -0.01019267 0.54117647 0.42352941 0.64313725
v 0.00004703 0.00856205 -0.01019067 0.54117647 0.42352941 0.64313725
v 0.00004703 0.02459731 -0.01013081 0.54117647 0.42352941 0.64313725
v 0.02500000 0.02405455 -0.01019267 0.54117647 0.42352941 0.64313725
v 0.02500000 0.00801929 -0.01013081 0.54117647 0.42352941 0.64313725
v 0.00004703 0.00801729 -0.01013081 0.54117647 0.42352941 0.64313725
v 0.00004703 0.02511413 -0.00994923 0.54117647 0.42352941 0.64313725
v 0.02500000 0.02459731 -0.01013081 0.54117647 0.42352941 0.64313725
v 0.02500000 0.00750048 -0.00994923 0.54117647 0.42352941 0.64313725
v 0.00004703 0.00750048 -0.00994923 0.54117647 0.42352941 0.64313725
v 0.00004703 0.02522986 -0.00987739 0.54117647 0.42352941 0.64313725
v 0.02500000 0.02511413 -0.00994923 0.54117647 0.42352941 0.64313725
v 0.02500000 0.00703754 -0.00965789 0.54117647 0.42352941 0.64313725
v 0.00004703 0.00703754 -0.00965789 0.54117647 0.42352941 0.64313725
v 0.00004703 0.02557906 -0.00965789 0.54117647 0.42352941 0.64313725
v 0.02500000 0.02557906 -0.00965789 0.54117647 0.42352941 0.64313725
v 0.02500000 0.00665043 -0.00927078 0.54117647 0.42352941 0.64313725
v 0.00004703 0.00665043 -0.00926878 0.54117647 0.42352941 0.64313725
v 0.00004703 0.02596617 -0.00927078 0.54117647 0.42352941 0.64313725
v 0.02500000 0.02596617 -0.00927078 0.54117647 0.42352941 0.64313725
v 0.02500000 0.00635909 -0.00880584 0.54117647 0.42352941 0.64313725
v 0.00004703 0.00635909 -0.00880584 0.54117647 0.42352941 0.64313725
v 0.00004703 0.02625751 -0.00880584 0.54117647 0.42352941 0.64313725
v 0.02500000 0.02625751 -0.00880584 0.54117647 0.42352941 0.64313725
v 0.02500000 0.00617751 -0.00828903 0.54117647 0.42352941 0.64313725
v 0.00004703 0.00617751 -0.00828903 0.54117647 0.42352941 0.64313725
v 0.00004703 0.02630340 -0.00867814 0.54117647 0.42352941 0.64313725
v 0.02500000 0.02643909 -0.00828903 0.54117647 0.42352941 0.64313725
v 0.02500000 0.00611565 -0.00774627 0.54117647 0.42352941 0.64313725
v 0.00004703 0.00611565 -0.00774627 0.54117647 0.42352941 0.64313725
v 0.00004703 0.02643909 -0.00828903 0.54117647 0.42352941 0.64313725
v 0.02500000 0.02650095 -0.00774627 0.54117647 0.42352941 0.64313725
v 0.02500000 0.00611565 0.00774627 0.54117647 0.42352941 0.64313725
v 0.00004703 0.00611565 0.00774627 0.54117647 0.42352941 0.64313725
v 0.00004703 0.02650095 -0.00774627 0.54117647 0.42352941 0.64313725
v 0.02500000 0.02650095 0.00774627 0.54117647 0.42352941 0.64313725
v 0.02500000 0.00617751 0.00828903 0.54117647 0.42352941 0.64313725
v 0.00004703 0.00617751 0.00828903 0.54117647 0.42352941 0.64313725
v 0.00004703 0.02650095 0.00774627 0.54117647 0.42352941 0.64313725
v 0.02500000 0.02643909 0.00828903 0.54117647 0.42352941 0.64313725
v 0.02500000 0.00635909 0.00880584 0.54117647 0.42352941 0.64313725
v 0.00004703 0.00635909 0.00880584 0.54117647 0.42352941 0.64313725
v 0.00004703 0.02643909 0.00828903 0.54117647 0.42352941 0.64313725
v 0.02500000 0.02625751 0.00880584 0.54117647 0.42352941 0.64313725
v 0.02500000 0.00665043 0.00927078 0.54117647 0.42352941 0.64313725
v 0.00004703 0.00665043 0.00927078 0.54117647 0.42352941 0.64313725
v 0.00004703 0.02625751 0.00880584 0.54117647 0.42352941 0.64313725
v 0.02500000 0.02596617 0.00927078 0.54117647 0.42352941 0.64313725
v 0.00004703 0.02618567 0.00892158 0.54117647 0.42352941 0.64313725
v 0.02500000 0.00703754 0.00965789 0.54117647 0.42352941 0.64313725
v 0.00004703 0.00703754 0.00965789 0.54117647 0.42352941 0.64313725
v 0.02500000 0.02557906 0.00965789 0.54117647 0.42352941 0.64313725
v 0.00004703 0.02596617 0.00927078 0.54117647 0.42352941 0.64313725
v 0.02500000 0.00750048 0.00994923 0.54117647 0.42352941 0.64313725
v 0.00004703 0.00750048 0.00994923 0.54117647 0.42352941 0.64313725
v 0.02500000 0.02511413 0.00994923 0.54117647 0.42352941 0.64313725
v 0.00004703 0.02557906 0.00965789 0.54117647 0.42352941 0.64313725
v 0.02500000 0.00801929 0.01013081 0.54117647 0.42352941 0.64313725
v 0.00004703 0.00801929 0.01013081 0.54117647 0.42352941 0.64313725
v 0.02500000 0.02459731 0.01013081 0.54117647 0.42352941 0.64313725
v 0.00004703 0.02511413 0.00994923 0.54117647 0.42352941 0.64313725
v 0.00004703 0.02498642 0.00999512 0.54117647 0.42352941 0.64313725
v 0.02500000 0.00856205 0.01019267 0.54117647 0.42352941 0.64313725
v 0.00004703 0.00856205 0.01019267 0.54117647 0.42352941 0.64313725
v 0.02500000 0.02405455 0.01019267 0.54117647 0.42352941 0.64313725
v 0.00004703 0.02459731 0.01013081 0.54117647 0.42352941 0.64313725
v 0.00004703 0.02405455 0.01019267 0.54117647 0.42352941 0.64313725
f 1 2 6
f 1 6 3
f 1 3 4
f 1 4 8
f 1 8 12
f 1 12 16
f 1 16 20
f 1 20 24
f 1 24 28
f 1 28 32
f 1 32 36
f 1 36 40
f 1 40 44
f 1 44 48
f 1 48 53
f 1 53 57
f 1 57 61
f 1 61 66
f 1 66 69
f 1 69 68
f 1 68 64
f 1 64 63
f 1 63 59
f 1 59 55
f 1 55 51
f 1 51 49
f 1 49 45
f 1 45 41
f 1 41 37
f 1 37 33
f 1 33 29
f 1 29 25
f 1 25 21
f 1 21 17
f 1 17 13
f 1 13 9
f 1 9 5
f 1 5 2
f 2 5 10
f 2 10 6
f 3 6 10
f 3 10 14
f 3 14 18
f 3 18 22
f 3 22 26
f 3 26 30
f 3 30 34
f 3 34 38
f 3 38 42
f 3 42 46
f 3 46 50
f 3 50 54
f 3 54 58
f 3 58 62
f 3 62 67
f 3 67 65
f 3 65 60
f 3 60 56
f 3 56 52
f 3 52 47
f 3 47 43
f 3 43 39
f 3 39 35
f 3 35 31
f 3 31 27
f 3 27 23
f 3 23 19
f 3 19 15
f 3 15 11
f 3 11 7
f 3 7 8
f 3 8 4
f 5 9 14
f 5 14 10
f 7 11 8
f 8 11 12
f 9 13 14
f 11 15 16
f 11 16 12
f 13 17 18
f 13 18 14
f 15 19 16
f 16 19 20
f 17 21 22
f 17 22 18
f 19 23 24
f 19 24 20
f 21 25 26
f 21 26 22
f 23 27 28
f 23 28 24
f 25 29 26
f 26 29 30
f 27 31 32
f 27 32 28
f 29 33 30
f 30 33 37
f 30 37 34
f 31 35 36
f 31 36 32
f 34 37 41
f 34 41 38
f 35 39 40
f 35 40 36
f 38 41 45
f 38 45 42
f 39 43 44
f 39 44 40
f 42 45 49
f 42 49 46
f 43 47 48
f 43 48 44
f 46 49 51
f 46 51 50
f 47 52 53
f 47 53 48
f 50 51 55
f 50 55 59
f 50 59 54
f 52 56 57
f 52 57 53
f 54 59 63
f 54 63 58
f 56 60 61
f 56 61 57
f 58 63 64
f 58 64 62
f 60 65 66
f 60 66 61
f 62 64 68
f 62 68 69
f 62 69 67
f 65 67 69
f 65 69 66