# https://github.com/mikedh/trimesh

o geometry_0
v 0.00004703 0.02650095 0.00774627 0.54509804 0.71372549 0.60000000
v 0.00004703 0.02650095 -0.00774627 0.54509804 0.71372549 0.60000000
v -0.07500000 0.02650095 0.00774627 0.54509804 0.71372549 0.60000000
v 0.00004703 0.02643869 0.00828903 0.54509804 0.71372549 0.60000000
v 0.00004703 0.02643869 -0.00828903 0.54509804 0.71372549 0.60000000
v -0.07500000 0.02650095 -0.00774627 0.54509804 0.71372549 0.60000000
v -0.07500000 0.02643869 0.00828903 0.54509804 0.71372549 0.60000000
v 0.00004703 0.02625711 0.00880584 0.54509804 0.71372549 0.60000000
v 0.00004703 0.02630380 -0.00867814 0.54509804 0.71372549 0.60000000
v -0.07500000 0.02643869 -0.00828903 0.54509804 0.71372549 0.60000000
v -0.07500000 0.02625711 0.00880584 0.54509804 0.71372549 0.60000000
v 0.00004703 0.02596657 0.00927078 0.54509804 0.71372549 0.60000000
v 0.00004703 0.02625711 -0.00880584 0.54509804 0.71372549 0.60000000
v -0.07500000 0.02625711 -0.00880584 0.54509804 0.71372549 0.60000000
v -0.07500000 0.02596657 0.00927078 0.54509804 0.71372549 0.60000000
v 0.00004703 0.02557746 0.00965789 0.54509804 0.71372549 0.60000000
v 0.00004703 0.02603921 -0.00915504 0.54509804 0.71372549 0.60000000
v -0.07500000 0.02596657 -0.00927078 0.54509804 0.71372549 0.60000000
v -0.07500000 0.02557746 0.00965789 0.54509804 0.71372549 0.60000000
v 0.00004703 0.02511572 0.00994923 0.54509804 0.71372549 0.60000000
v 0.00004703 0.02596657 -0.00927078 0.54509804 0.71372549 0.60000000
v -0.07500000 0.02557746 -0.00965789 0.54509804 0.71372549 0.60000000
v 0.00004703 0.02567604 -0.00956211 0.54509804 0.71372549 0.60000000
v -0.07500000 0.02511572 0.00994923 0.54509804 0.71372549 0.60000000
v 0.00004703 0.02498602 0.00999512 0.54509804 0.71372549 0.60000000
v -0.07500000 0.02511572 -0.00994923 0.54509804 0.71372549 0.60000000
v 0.00004703 0.02557746 -0.00965789 0.54509804 0.71372549 0.60000000
v 0.00004703 0.02522986 -0.00987739 0.54509804 0.71372549 0.60000000
v -0.07500000 0.02459691 0.01013081 0.54509804 0.71372549 0.60000000
v 0.00004703 0.02459691 0.01013081 0.54509804 0.71372549 0.60000000
v -0.07500000 0.02459691 -0.01013081 0.54509804 0.71372549 0.60000000
v 0.00004703 0.02511572 -0.00994923 0.54509804 0.71372549 0.60000000
v -0.07500000 0.02405215 0.01019267 0.54509804 0.71372549 0.60000000
v 0.00004703 0.02405215 0.01019267 0.54509804 0.71372549 0.60000000
v -0.07500000 0.02405215 -0.01019267 0.54509804 0.71372549 0.60000000
v 0.00004703 0.02459691 -0.01013081 0.54509804 0.71372549 0.60000000
v -0.07500000 -0.02405215 0.01019267 0.54509804 0.71372549 0.60000000
v 0.00004703 -0.02405215 0.01019267 0.54509804 0.71372549 0.60000000
v -0.07500000 -0.02405215 -0.01019267 0.54509804 0.71372549 0.60000000
v 0.00004703 0.02405215 -0.01019267 0.54509804 0.71372549 0.60000000
v -0.07500000 -0.02459691 0.01013081 0.54509804 0.71372549 0.60000000
v 0.00004703 -0.02459691 0.01013081 0.54509804 0.71372549 0.60000000
v -0.07500000 -0.02459691 -0.01013081 0.54509804 0.71372549 0.60000000
v 0.00004703 -0.02405215 -0.01019267 0.54509804 0.71372549 0.60000000
v -0.07500000 -0.02511572 0.00994923 0.54509804 0.71372549 0.60000000
v 0.00004703 -0.02511572 0.00994923 0.54509804 0.71372549 0.60000000
v -0.07500000 -0.02511572 -0.00994923 0.54509804 0.71372549 0.60000000
v 0.00004703 -0.02459691 -0.01013081 0.54509804 0.71372549 0.60000000
v 0.00004703 -0.02498602 -0.00999512 0.54509804 0.71372549 0.60000000
v -0.07500000 -0.02557746 0.00965789 0.54509804 0.71372549 0.60000000
v 0.00004703 -0.02522986 0.00987739 0.54509804 0.71372549 0.60000000
v -0.07500000 -0.02557746 -0.00965789 0.54509804 0.71372549 0.60000000
v 0.00004703 -0.02511572 -0.00994923 0.54509804 0.71372549 0.60000000
v -0.07500000 -0.02596657 0.00927078 0.54509804 0.71372549 0.60000000
v 0.00004703 -0.02567604 0.00956211 0.54509804 0.71372549 0.60000000
v 0.00004703 -0.02557746 0.00965789 0.54509804 0.71372549 0.60000000
v -0.07500000 -0.02596657 -0.00927078 0.54509804 0.71372549 0.60000000
v 0.00004703 -0.02557746 -0.00965789 0.54509804 0.71372549 0.60000000
v -0.07500000 -0.02625711 0.00880584 0.54509804 0.71372549 0.60000000
v 0.00004703 -0.02603921 0.00915504 0.54509804 0.71372549 0.60000000
v 0.00004703 -0.02596657 0.00927078 0.54509804 0.71372549 0.60000000
v -0.07500000 -0.02625711 -0.00880584 0.54509804 0.71372549 0.60000000
v 0.00004703 -0.02596657 -0.00927078 0.54509804 0.71372549 0.60000000
v -0.07500000 -0.02643869 0.00828903 0.54509804 0.71372549 0.60000000
v 0.00004703 -0.02625711 0.00880584 0.54509804 0.71372549 0.60000000
v -0.07500000 -0.02643869 -0.00828903 0.54509804 0.71372549 0.60000000
v 0.00004703 -0.02625711 -0.00880584 0.54509804 0.71372549 0.60000000
v -0.07500000 -0.02650095 0.00774627 0.54509804 0.71372549 0.60000000
v 0.00004703 -0.02643869 0.00828903 0.54509804 0.71372549 0.60000000
v -0.07500000 -0.02650095 -0.00774627 0.54509804 0.71372549 0.60000000
v 0.00004703 -0.02643869 -0.00828903 0.54509804 0.71372549 0.60000000
v 0.00004703 -0.02650095 0.00774627 0.54509804 0.71372549 0.60000000
v 0.00004703 -0.02650095 -0.00774627 0.54509804 0.71372549 0.60000000
f 1 2 6
f 1 6 3
f 1 3 7
f 1 7 4
f 1 4 8
f 1 8 12
f 1 12 16
f 1 16 20
f 1 20 25
f 1 25 30
f 1 30 34
f 1 34 38
f 1 38 42
f 1 42 46
f 1 46 51
f 1 51 56
f 1 56 55
f 1 55 61
f 1 61 60
f 1 60 65
f 1 65 69
f 1 69 72
f 1 72 73
f 1 73 71
f 1 71 67
f 1 67 63
f 1 63 58
f 1 58 53
f 1 53 49
f 1 49 48
f 1 48 44
f 1 44 40
f 1 40 36
f 1 36 32
f 1 32 28
f 1 28 27
f 1 27 23
f 1 23 21
f 1 21 17
f 1 17 13
f 1 13 9
f 1 9 5
f 1 5 2
f 2 5 10
f 2 10 6
f 3 6 10
f 3 10 14
f 3 14 18
f 3 18 22
f 3 22 26
f 3 26 31
f 3 31 35
f 3 35 39
f 3 39 43
f 3 43 47
f 3 47 52
f 3 52 57
f 3 57 62
f 3 62 66
f 3 66 70
f 3 70 68
f 3 68 64
f 3 64 59
f 3 59 54
f 3 54 50
f 3 50 45
f 3 45 41
f 3 41 37
f 3 37 33
f 3 33 29
f 3 29 24
f 3 24 19
f 3 19 15
f 3 15 11
f 3 11 7
f 4 7 11
f 4 11 8
f 5 9 10
f 8 11 15
f 8 15 12
f 9 13 14
f 9 14 10
f 12 15 19
f 12 19 16
f 13 17 14
f 14 17 18
f 16 19 24
f 16 24 20
f 17 21 18
f 18 21 23
f 18 23 22
f 20 24 25
f 22 23 27
f 22 27 28
f 22 28 26
f 24 29 25
f 25 29 30
f 26 28 32
f 26 32 36
f 26 36 31
f 29 33 34
f 29 34 30
f 31 36 40
f 31 40 35
f 33 37 38
f 33 38 34
f 35 40 44
f 35 44 39
f 37 41 42
f 37 42 38
f 39 44 48
f 39 48 43
f 41 45 46
f 41 46 42
f 43 48 49
f 43 49 47
f 45 50 51
f 45 51 46
f 47 49 53
f 47 53 58
f 47 58 52
f 50 54 55
f 50 55 56
f 50 56 51
f 52 58 63
f 52 63 57
f 54 59 60
f 54 60 61
f 54 61 55
f 57 63 67
f 57 67 62
f 59 64 69
f 59 69 65
f 59 65 60
f 62 67 71
f 62 71 66
f 64 68 72
f 64 72 69
f 66 71 73
f 66 73 70
f 68 70 73
f 68 73 72

o geometry_1
v 0.00004703 0.00859198 -0.01019267 0.54117647 0.42352941 0.64313725
v 0.00004703 0.02405455 -0.01019267 0.54117647 0.42352941 0.64313725
v 0.02500000 0.00856205 -0.01019267 0.54117647 0.42352941 0.64313725
v 0.00004703 0.00856205 -0.01019067 0.54117647 0.42352941 0.64313725
v 0.00004703 0.02459731 -0.01013081 0.54117647 0.42352941 0.64313725
v 0.02500000 0.02405455 -0.01019267 0.54117647 0.42352941 0.64313725
v 0.02500000 0.00801929 -0.01013081 0.54117647 0.42352941 0.64313725
v 0.00004703 0.00801729 -0.01013081 0.54117647 0.42352941 0.64313725
v 0.00004703 0.02511413 -0.00994923 0.54117647 0.42352941 0.64313725
v 0.02500000 0.02459731 -0.01013081 0.54117647 0.42352941 0.64313725
v 0.02500000 0.00750048 -0.00994923 0.54117647 0.42352941 0.64313725
v 0.00004703 0.00750048 -0.00994923 0.54117647 0.42352941 0.64313725
v 0.00004703 0.02522986 -0.00987739 0.54117647 0.42352941 0.64313725
v 0.02500000 0.02511413 -0.00994923 0.54117647 0.42352941 0.64313725
v 0.02500000 0.00703754 -0.00965789 0.54117647 0.42352941 0.64313725
v 0.00004703 0.00703754 -0.00965789 0.54117647 0.42352941 0.64313725
v 0.00004703 0.02557906 -0.00965789 0.54117647 0.42352941 0.64313725
v 0.02500000 0.02557906 -0.00965789 0.54117647 0.42352941 0.64313725
v 0.02500000 0.00665043 -0.00927078 0.54117647 0.42352941 0.64313725
v 0.00004703 0.00665043 -0.00926878 0.54117647 0.42352941 0.64313725
v 0.00004703 0.02596617 -0.00927078 0.54117647 0.42352941 0.64313725
v 0.02500000 0.02596617 -0.00927078 0.54117647 0.42352941 0.64313725
v 0.02500000 0.00635909 -0.00880584 0.54117647 0.42352941 0.64313725
v 0.00004703 0.00635909 -0.00880584 0.54117647 0.42352941 0.64313725
v 0.00004703 0.02625751 -0.00880584 0.54117647 0.42352941 0.64313725
v 0.02500000 0.02625751 -0.00880584 0.54117647 0.42352941 0.64313725
v 0.02500000 0.00617751 -0.00828903 0.54117647 0.42352941 0.64313725
v 0.00004703 0.00617751 -0.00828903 0.54117647 0.42352941 0.64313725
v 0.00004703 0.02630340 -0.00867814 0.54117647 0.42352941 0.64313725
v 0.02500000 0.02643909 -0.00828903 0.54117647 0.42352941 0.64313725
v 0.02500000 0.00611565 -0.00774627 0.54117647 0.42352941 0.64313725
v 0.00004703 0.00611565 -0.00774627 0.54117647 0.42352941 0.64313725
v 0.00004703 0.02643909 -0.00828903 0.54117647 0.42352941 0.64313725
v 0.02500000 0.02650095 -0.00774627 0.54117647 0.42352941 0.64313725
v 0.02500000 0.00611565 0.00774627 0.54117647 0.42352941 0.64313725
v 0.00004703 0.00611565 0.00774627 0.54117647 0.42352941 0.64313725
v 0.00004703 0.02650095 -0.00774627 0.54117647 0.42352941 0.64313725
v 0.02500000 0.02650095 0.00774627 0.54117647 0.42352941 0.64313725
v 0.02500000 0.00617751 0.00828903 0.54117647 0.42352941 0.64313725
v 0.00004703 0.00617751 0.00828903 0.54117647 0.42352941 0.64313725
v 0.00004703 0.02650095 0.00774627 0.54117647 0.42352941 0.64313725
v 0.02500000 0.02643909 0.00828903 0.54117647 0.42352941 0.64313725
v 0.02500000 0.00635909 0.00880584 0.54117647 0.42352941 0.64313725
v 0.00004703 0.00635909 0.00880584 0.54117647 0.42352941 0.64313725
v 0.00004703 0.02643909 0.00828903 0.54117647 0.42352941 0.64313725
v 0.02500000 0.02625751 0.00880584 0.54117647 0.42352941 0.64313725
v 0.02500000 0.00665043 0.00927078 0.54117647 0.42352941 0.64313725
v 0.00004703 0.00665043 0.00927078 0.54117647 0.42352941 0.64313725
v 0.00004703 0.02625751 0.00880584 0.54117647 0.42352941 0.64313725
v 0.02500000 0.02596617 0.00927078 0.54117647 0.42352941 0.64313725
v 0.00004703 0.02618567 0.00892158 0.54117647 0.42352941 0.64313725
v 0.02500000 0.00703754 0.00965789 0.54117647 0.42352941 0.64313725
v 0.00004703 0.00703754 0.00965789 0.54117647 0.42352941 0.64313725
v 0.02500000 0.02557906 0.00965789 0.54117647 0.42352941 0.64313725
v 0.00004703 0.02596617 0.00927078 0.54117647 0.42352941 0.64313725
v 0.02500000 0.00750048 0.00994923 0.54117647 0.42352941 0.64313725
v 0.00004703 0.00750048 0.00994923 0.54117647 0.42352941 0.64313725
v 0.02500000 0.02511413 0.00994923 0.54117647 0.42352941 0.64313725
v 0.00004703 0.02557906 0.00965789 0.54117647 0.42352941 0.64313725
v 0.02500000 0.00801929 0.01013081 0.54117647 0.42352941 0.64313725
v 0.00004703 0.00801929 0.01013081 0.54117647 0.42352941 0.64313725
v 0.02500000 0.02459731 0.01013081 0.54117647 0.42352941 0.64313725
v 0.00004703 0.02511413 0.00994923 0.54117647 0.42352941 0.64313725
v 0.00004703 0.02498642 0.00999512 0.54117647 0.42352941 0.64313725
v 0.02500000 0.00856205 0.01019267 0.54117647 0.42352941 0.64313725
v 0.00004703 0.00856205 0.01019267 0.54117647 0.42352941 0.64313725
v 0.02500000 0.02405455 0.01019267 0.54117647 0.42352941 0.64313725
v 0.00004703 0.02459731 0.01013081 0.54117647 0.42352941 0.64313725
v 0.00004703 0.02405455 0.01019267 0.54117647 0.42352941 0.64313725
f 74 75 79
f 74 79 76
f 74 76 77
f 74 77 81
f 74 81 85
f 74 85 89
f 74 89 93
f 74 93 97
f 74 97 101
f 74 101 105
f 74 105 109
f 74 109 113
f 74 113 117
f 74 117 121
f 74 121 126
f 74 126 130
f 74 130 134
f 74 134 139
f 74 139 142
f 74 142 141
f 74 141 137
f 74 137 136
f 74 136 132
f 74 132 128
f 74 128 124
f 74 124 122
f 74 122 118
f 74 118 114
f 74 114 110
f 74 110 106
f 74 106 102
f 74 102 98
f 74 98 94
f 74 94 90
f 74 90 86
f 74 86 82
f 74 82 78
f 74 78 75
f 75 78 83
f 75 83 79
f 76 79 83
f 76 83 87
f 76 87 91
f 76 91 95
f 76 95 99
f 76 99 103
f 76 103 107
f 76 107 111
f 76 111 115
f 76 115 119
f 76 119 123
f 76 123 127
f 76 127 131
f 76 131 135
f 76 135 140
f 76 140 138
f 76 138 133
f 76 133 129
f 76 129 125
f 76 125 120
f 76 120 116
f 76 116 112
f 76 112 108
f 76 108 104
f 76 104 100
f 76 100 96
f 76 96 92
f 76 92 88
f 76 88 84
f 76 84 80
f 76 80 81
f 76 81 77
f 78 82 87
f 78 87 83
f 80 84 81
f 81 84 85
f 82 86 87
f 84 88 89
f 84 89 85
f 86 90 91
f 86 91 87
f 88 92 89
f 89 92 93
f 90 94 95
f 90 95 91
f 92 96 97
f 92 97 93
f 94 98 99
f 94 99 95
f 96 100 101
f 96 101 97
f 98 102 99
f 99 102 103
f 100 104 105
f 100 105 101
f 102 106 103
f 103 106 110
f 103 110 107
f 104 108 109
f 104 109 105
f 107 110 114
f 107 114 111
f 108 112 113
f 108 113 109
f 111 114 118
f 111 118 115
f 112 116 117
f 112 117 113
f 115 118 122
f 115 122 119
f 116 120 121
f 116 121 117
f 119 122 124
f 119 124 123
f 120 125 126
f 120 126 121
f 123 124 128
f 123 128 132
f 123 132 127
f 125 129 130
f 125 130 126
f 127 132 136
f 127 136 131
f 129 133 134
f 129 134 130
f 131 136 137
f 131 137 135
f 133 138 139
f 133 139 134
f 135 137 141
f 135 141 142
f 135 142 140
f 138 140 142
f 138 142 139

o geometry_2
v 0.02500000 -0.00611555 0.00774627 0.43529412 0.89019608 0.96078431
v 0.02500000 -0.00611555 -0.00774627 0.43529412 0.89019608 0.96078431
v 0.00004703 -0.00611555 0.00774627 0.43529412 0.89019608 0.96078431
v 0.02500000 -0.00617741 0.00828903 0.43529412 0.89019608 0.96078431
v 0.02500000 -0.00617741 -0.00828903 0.43529412 0.89019608 0.96078431
v 0.00004703 -0.00617741 -0.00829102 0.43529412 0.89019608 0.96078431
v 0.00004703 -0.00611755 -0.00774627 0.43529412 0.89019608 0.96078431
v 0.00004703 -0.00611555 0.00771634 0.43529412 0.89019608 0.96078431
v 0.00004703 -0.00617741 0.00828903 0.43529412 0.89019608 0.96078431
v 0.02500000 -0.00635899 0.00880584 0.43529412 0.89019608 0.96078431
v 0.02500000 -0.00635899 -0.00880584 0.43529412 0.89019608 0.96078431
v 0.00004703 -0.00635899 -0.00880784 0.43529412 0.89019608 0.96078431
v 0.00004703 -0.00635899 0.00880584 0.43529412 0.89019608 0.96078431
v 0.02500000 -0.00665033 0.00927078 0.43529412 0.89019608 0.96078431
v 0.02500000 -0.00665033 -0.00927078 0.43529412 0.89019608 0.96078431
v 0.00004703 -0.00665033 -0.00927078 0.43529412 0.89019608 0.96078431
v 0.00004703 -0.00665033 0.00927078 0.43529412 0.89019608 0.96078431
v 0.02500000 -0.00703744 0.00965789 0.43529412 0.89019608 0.96078431
v 0.02500000 -0.00703744 -0.00965789 0.43529412 0.89019608 0.96078431
v 0.00004703 -0.00703944 -0.00965789 0.43529412 0.89019608 0.96078431
v 0.00004703 -0.00703744 0.00965789 0.43529412 0.89019608 0.96078431
v 0.02500000 -0.00750238 0.00994923 0.43529412 0.89019608 0.96078431
v 0.02500000 -0.00750238 -0.00994923 0.43529412 0.89019608 0.96078431
v 0.00004703 -0.00750238 -0.00994923 0.43529412 0.89019608 0.96078431
v 0.00004703 -0.00750238 0.00994923 0.43529412 0.89019608 0.96078431
v 0.02500000 -0.00801920 0.01013081 0.43529412 0.89019608 0.96078431
v 0.02500000 -0.00801920 -0.01013081 0.43529412 0.89019608 0.96078431
v 0.00004703 -0.00801920 -0.01013081 0.43529412 0.89019608 0.96078431
v 0.00004703 -0.00801920 0.01013081 0.43529412 0.89019608 0.96078431
v 0.02500000 -0.00856196 0.01019267 0.43529412 0.89019608 0.96078431
v 0.02500000 -0.00856196 -0.01019267 0.43529412 0.89019608 0.96078431
v 0.00004703 -0.00856196 -0.01019267 0.43529412 0.89019608 0.96078431
v 0.00004703 -0.00856196 0.01019267 0.43529412 0.89019608 0.96078431
v 0.02500000 -0.02405454 0.01019267 0.43529412 0.89019608 0.96078431
v 0.02500000 -0.02405454 -0.01019267 0.43529412 0.89019608 0.96078431
v 0.00004703 -0.02405454 -0.01019267 0.43529412 0.89019608 0.96078431
v 0.00004703 -0.02405454 0.01019267 0.43529412 0.89019608 0.96078431
v 0.02500000 -0.02459730 0.01013081 0.43529412 0.89019608 0.96078431
v 0.02500000 -0.02459730 -0.01013081 0.43529412 0.89019608 0.96078431
v 0.00004703 -0.02459730 -0.01013081 0.43529412 0.89019608 0.96078431
v 0.00004703 -0.02459730 0.01013081 0.43529412 0.89019608 0.96078431
v 0.02500000 -0.02511412 0.00994923 0.43529412 0.89019608 0.96078431
v 0.02500000 -0.02511412 -0.00994923 0.43529412 0.89019608 0.96078431
v 0.00004703 -0.02498641 -0.00999512 0.43529412 0.89019608 0.96078431
v 0.00004703 -0.02511412 0.00994923 0.43529412 0.89019608 0.96078431
v 0.02500000 -0.02557906 0.00965789 0.43529412 0.89019608 0.96078431
v 0.00004703 -0.02522985 0.00987739 0.43529412 0.89019608 0.96078431
v 0.02500000 -0.02557906 -0.00965789 0.43529412 0.89019608 0.96078431
v 0.00004703 -0.02511412 -0.00994923 0.43529412 0.89019608 0.96078431
v 0.02500000 -0.02596617 0.00927078 0.43529412 0.89019608 0.96078431
v 0.00004703 -0.02557906 0.00965789 0.43529412 0.89019608 0.96078431
v 0.02500000 -0.02596617 -0.00927078 0.43529412 0.89019608 0.96078431
v 0.00004703 -0.02557906 -0.00965789 0.43529412 0.89019608 0.96078431
v 0.02500000 -0.02625751 0.00880584 0.43529412 0.89019608 0.96078431
v 0.00004703 -0.02596617 0.00927078 0.43529412 0.89019608 0.96078431
v 0.02500000 -0.02625751 -0.00880584 0.43529412 0.89019608 0.96078431
v 0.00004703 -0.02618567 -0.00892158 0.43529412 0.89019608 0.96078431
v 0.00004703 -0.02596617 -0.00927078 0.43529412 0.89019608 0.96078431
v 0.02500000 -0.02643909 0.00828903 0.43529412 0.89019608 0.96078431
v 0.00004703 -0.02625751 0.00880584 0.43529412 0.89019608 0.96078431
v 0.00004703 -0.02630340 0.00867814 0.43529412 0.89019608 0.96078431
v 0.02500000 -0.02643909 -0.00828903 0.43529412 0.89019608 0.96078431
v 0.00004703 -0.02625751 -0.00880584 0.43529412 0.89019608 0.96078431
v 0.02500000 -0.02650095 0.00774627 0.43529412 0.89019608 0.96078431
v 0.00004703 -0.02643909 0.00828903 0.43529412 0.89019608 0.96078431
v 0.02500000 -0.02650095 -0.00774627 0.43529412 0.89019608 0.96078431
v 0.00004703 -0.02643909 -0.00828903 0.43529412 0.89019608 0.96078431
v 0.00004703 -0.02650095 0.00774627 0.43529412 0.89019608 0.96078431
v 0.00004703 -0.02650095 -0.00774627 0.43529412 0.89019608 0.96078431
f 143 144 150
f 143 150 145
f 143 145 151
f 143 151 146
f 143 146 152
f 143 152 156
f 143 156 160
f 143 160 164
f 143 164 168
f 143 168 172
f 143 172 176
f 143 176 180
f 143 180 184
f 143 184 188
f 143 188 192
f 143 192 196
f 143 196 201
f 143 201 206
f 143 206 208
f 143 208 204
f 143 204 198
f 143 198 194
f 143 194 190
f 143 190 185
f 143 185 181
f 143 181 177
f 143 177 173
f 143 173 169
f 143 169 165
f 143 165 161
f 143 161 157
f 143 157 153
f 143 153 147
f 143 147 144
f 144 147 148
f 144 148 149
f 144 149 150
f 145 150 149
f 145 149 148
f 145 148 154
f 145 154 158
f 145 158 162
f 145 162 166
f 145 166 170
f 145 170 174
f 145 174 178
f 145 178 182
f 145 182 186
f 145 186 191
f 145 191 195
f 145 195 200
f 145 200 199
f 145 199 205
f 145 205 209
f 145 209 211
f 145 211 210
f 145 210 207
f 145 207 203
f 145 203 202
f 145 202 197
f 145 197 193
f 145 193 189
f 145 189 187
f 145 187 183
f 145 183 179
f 145 179 175
f 145 175 171
f 145 171 167
f 145 167 163
f 145 163 159
f 145 159 155
f 145 155 151
f 146 151 155
f 146 155 152
f 147 153 154
f 147 154 148
f 152 155 159
f 152 159 156
f 153 157 154
f 154 157 158
f 156 159 163
f 156 163 160
f 157 161 158
f 158 161 162
f 160 163 167
f 160 167 164
f 161 165 166
f 161 166 162
f 164 167 171
f 164 171 168
f 165 169 170
f 165 170 166
f 168 171 175
f 168 175 172
f 169 173 174
f 169 174 170
f 172 175 179
f 172 179 176
f 173 177 178
f 173 178 174
f 176 179 183
f 176 183 180
f 177 181 182
f 177 182 178
f 180 183 187
f 180 187 184
f 181 185 186
f 181 186 182
f 184 187 189
f 184 189 188
f 185 190 195
f 185 195 191
f 185 191 186
f 188 189 193
f 188 193 197
f 188 197 192
f 190 194 200
f 190 200 195
f 192 197 202
f 192 202 196
f 194 198 199
f 194 199 200
f 196 202 203
f 196 203 201
f 198 204 209
f 198 209 205
f 198 205 199
f 201 203 207
f 201 207 210
f 201 210 206
f 204 208 211
f 204 211 209
f 206 210 211
f 206 211 208