# https://github.com/mikedh/trimesh
v 0.02500000 -0.02291570 -0.01377170
v 0.02500000 -0.02337170 -0.01331570
v 0.02500000 -0.02371480 -0.01276960
v 0.02500000 -0.02236960 -0.01411480
v 0.02500000 -0.02176090 -0.01432780
v 0.02500000 -0.02112000 -0.01440000
v 0.02500000 -0.02392780 -0.01216090
v 0.02500000 -0.02400000 -0.01152000
v 0.02500000 -0.01801120 -0.01440000
v 0.02500000 -0.01733960 -0.01432060
v 0.02500000 -0.01670500 -0.01408670
v 0.02500000 -0.01614240 -0.01371140
v 0.02500000 -0.01568290 -0.01321510
v 0.02500000 -0.01535180 -0.01262540
v 0.02500000 -0.01516730 -0.01197470
v 0.02500000 -0.01460200 -0.00963430
v 0.02500000 -0.01367780 -0.00741100
v 0.02500000 -0.01241760 -0.00535940
v 0.02500000 -0.01085220 -0.00352990
v 0.02500000 -0.00902020 -0.00196760
v 0.02500000 -0.00696650 -0.00071070
v 0.02500000 -0.02400000 0.01152000
v 0.02500000 -0.02392780 0.01216090
v 0.02500000 -0.02371480 0.01276960
v 0.02500000 -0.02337170 0.01331570
v 0.02500000 -0.02291570 0.01377170
v 0.02500000 -0.02236960 0.01411480
v 0.02500000 -0.02176090 0.01432780
v 0.02500000 -0.02112000 0.01440000
v 0.02500000 -0.00474170 0.00020980
v 0.02500000 -0.00240030 0.00077130
v 0.02500000 0.00696650 -0.00071070
v 0.02500000 0.00902020 -0.00196760
v 0.02500000 0.01085220 -0.00352990
v 0.02500000 0.01614240 -0.01371140
v 0.02500000 0.01568290 -0.01321510
v 0.02500000 0.01535180 -0.01262540
v 0.02500000 0.01670500 -0.01408670
v 0.02500000 0.01733960 -0.01432060
v 0.02500000 0.01516730 -0.01197470
v 0.02500000 0.01460200 -0.00963430
v 0.02500000 0.01367780 -0.00741100
v 0.02500000 0.01801120 -0.01440000
v 0.02500000 0.02112000 -0.01440000
v 0.02500000 0.02176090 -0.01432780
v 0.02500000 0.02236960 -0.01411480
v 0.02500000 0.02291570 -0.01377170
v 0.02500000 0.02337170 -0.01331570
v 0.02500000 0.02371480 -0.01276960
v 0.02500000 0.02392780 -0.01216090
v 0.02500000 0.02400000 -0.01152000
v 0.02500000 0.01241760 -0.00535940
v 0.02500000 0.00000000 0.00096000
v 0.02500000 0.00240030 0.00077130
v 0.02500000 0.00474170 0.00020980
v 0.02500000 0.02400000 0.01152000
v 0.02500000 0.02392780 0.01216090
v 0.02500000 0.02112000 0.01440000
v 0.02500000 0.02176090 0.01432780
v 0.02500000 0.02236960 0.01411480
v 0.02500000 0.02371480 0.01276960
v 0.02500000 0.02337170 0.01331570
v 0.02500000 0.02291570 0.01377170
v 0.07500000 -0.02291570 -0.01377170
v 0.07500000 -0.02337170 -0.01331570
v 0.07500000 -0.02371480 -0.01276960
v 0.07500000 -0.02236960 -0.01411480
v 0.07500000 -0.02176090 -0.01432780
v 0.07500000 -0.02112000 -0.01440000
v 0.07500000 -0.02392780 -0.01216090
v 0.07500000 -0.02400000 -0.01152000
v 0.07500000 -0.01801120 -0.01440000
v 0.07500000 -0.01733960 -0.01432060
v 0.07500000 -0.01670500 -0.01408670
v 0.07500000 -0.01614240 -0.01371140
v 0.07500000 -0.01568290 -0.01321510
v 0.07500000 -0.01535180 -0.01262540
v 0.07500000 -0.01516730 -0.01197470
v 0.07500000 -0.01460200 -0.00963430
v 0.07500000 -0.01367780 -0.00741100
v 0.07500000 -0.01241760 -0.00535940
v 0.07500000 -0.01085220 -0.00352990
v 0.07500000 -0.00902020 -0.00196760
v 0.07500000 -0.00696650 -0.00071070
v 0.07500000 -0.02400000 0.01152000
v 0.07500000 -0.02392780 0.01216090
v 0.07500000 -0.02371480 0.01276960
v 0.07500000 -0.02337170 0.01331570
v 0.07500000 -0.02291570 0.01377170
v 0.07500000 -0.02236960 0.01411480
v 0.07500000 -0.02176090 0.01432780
v 0.07500000 -0.02112000 0.01440000
v 0.07500000 -0.00474170 0.00020980
v 0.07500000 -0.00240030 0.00077130
v 0.07500000 0.00696650 -0.00071070
v 0.07500000 0.00902020 -0.00196760
v 0.07500000 0.01085220 -0.00352990
v 0.07500000 0.01614240 -0.01371140
v 0.07500000 0.01568290 -0.01321510
v 0.07500000 0.01535180 -0.01262540
v 0.07500000 0.01670500 -0.01408670
v 0.07500000 0.01733960 -0.01432060
v 0.07500000 0.01516730 -0.01197470
v 0.07500000 0.01460200 -0.00963430
v 0.07500000 0.01367780 -0.00741100
v 0.07500000 0.01801120 -0.01440000
v 0.07500000 0.02112000 -0.01440000
v 0.07500000 0.02176090 -0.01432780
v 0.07500000 0.02236960 -0.01411480
v 0.07500000 0.02291570 -0.01377170
v 0.07500000 0.02337170 -0.01331570
v 0.07500000 0.02371480 -0.01276960
v 0.07500000 0.02392780 -0.01216090
v 0.07500000 0.02400000 -0.01152000
v 0.07500000 0.01241760 -0.00535940
v 0.07500000 0.00000000 0.00096000
v 0.07500000 0.00240030 0.00077130
v 0.07500000 0.00474170 0.00020980
v 0.07500000 0.02400000 0.01152000
v 0.07500000 0.02392780 0.01216090
v 0.07500000 0.02112000 0.01440000
v 0.07500000 0.02176090 0.01432780
v 0.07500000 0.02236960 0.01411480
v 0.07500000 0.02371480 0.01276960
v 0.07500000 0.02337170 0.01331570
v 0.07500000 0.02291570 0.01377170
f 64 1 4
f 66 3 2
f 65 2 1
f 67 4 5
f 68 5 6
f 70 7 3
f 71 8 7
f 69 6 9
f 72 9 10
f 73 10 11
f 74 11 12
f 75 12 13
f 76 13 14
f 77 14 15
f 78 15 16
f 79 16 17
f 80 17 18
f 81 18 19
f 82 19 20
f 83 20 21
f 84 21 30
f 85 22 8
f 86 23 22
f 87 24 23
f 88 25 24
f 89 26 25
f 90 27 26
f 91 28 27
f 92 29 28
f 93 30 31
f 94 31 53
f 118 55 32
f 97 34 52
f 95 32 33
f 96 33 34
f 98 35 38
f 100 37 36
f 99 36 35
f 101 38 39
f 102 39 43
f 103 40 37
f 104 41 40
f 105 42 41
f 106 43 44
f 107 44 45
f 108 45 46
f 109 46 47
f 110 47 48
f 111 48 49
f 112 49 50
f 113 50 51
f 115 52 42
f 114 51 56
f 116 53 54
f 117 54 55
f 121 58 29
f 119 56 57
f 120 57 61
f 122 59 58
f 123 60 59
f 125 62 63
f 124 61 62
f 126 63 60
f 64 4 67
f 64 65 1
f 65 66 2
f 67 5 68
f 68 6 69
f 66 70 3
f 70 71 7
f 69 9 72
f 72 10 73
f 73 11 74
f 74 12 75
f 75 13 76
f 76 14 77
f 77 15 78
f 78 16 79
f 79 17 80
f 71 85 8
f 80 18 81
f 81 19 82
f 82 20 83
f 83 21 84
f 84 30 93
f 64 67 65
f 65 69 71
f 67 68 69
f 65 67 69
f 69 72 71
f 65 71 66
f 66 71 70
f 71 72 78
f 72 73 75
f 73 74 75
f 72 75 77
f 72 77 78
f 75 76 77
f 71 78 79
f 71 79 80
f 71 80 81
f 71 81 85
f 85 86 22
f 86 87 23
f 87 88 24
f 88 89 25
f 89 90 26
f 90 91 27
f 91 92 28
f 93 31 94
f 94 53 116
f 92 121 29
f 81 82 85
f 82 83 85
f 83 84 92
f 83 92 85
f 85 88 86
f 86 88 87
f 85 89 88
f 85 90 89
f 85 92 90
f 90 92 91
f 84 93 92
f 92 93 94
f 92 94 116
f 97 52 115
f 95 118 32
f 95 33 96
f 96 34 97
f 103 104 40
f 98 99 35
f 99 100 36
f 98 38 101
f 101 39 102
f 102 43 106
f 100 103 37
f 104 105 41
f 106 44 107
f 107 45 108
f 108 46 109
f 109 47 110
f 110 48 111
f 111 49 112
f 112 50 113
f 113 51 114
f 105 115 42
f 98 102 99
f 99 103 100
f 99 102 103
f 98 101 102
f 102 106 103
f 103 114 104
f 104 114 105
f 105 114 115
f 103 106 114
f 107 108 109
f 107 109 110
f 106 107 114
f 107 110 113
f 107 113 114
f 110 111 113
f 111 112 113
f 114 119 115
f 116 54 117
f 117 55 118
f 114 56 119
f 119 57 120
f 120 61 124
f 121 122 58
f 122 123 59
f 124 62 125
f 125 63 126
f 123 126 60
f 116 117 121
f 117 118 121
f 95 121 118
f 92 116 121
f 96 97 119
f 97 115 119
f 95 96 121
f 96 119 121
f 119 120 125
f 121 126 122
f 122 126 123
f 119 126 121
f 119 125 126
f 120 124 125
f 1 17 4
f 3 17 2
f 2 17 1
f 4 17 5
f 6 5 17
f 7 17 3
f 8 17 7
f 10 9 15
f 9 6 16
f 10 15 11
f 11 15 12
f 12 14 13
f 12 15 14
f 9 16 15
f 6 17 16
f 17 8 18
f 18 8 22
f 19 22 23
f 19 23 24
f 19 18 22
f 29 20 19
f 20 29 21
f 19 24 25
f 19 25 26
f 19 26 27
f 19 27 28
f 19 28 29
f 29 30 21
f 30 29 31
f 31 29 53
f 53 29 54
f 35 39 38
f 35 43 39
f 36 44 35
f 40 44 37
f 37 44 36
f 41 44 40
f 42 51 41
f 43 35 44
f 41 45 44
f 41 46 45
f 41 47 46
f 41 48 47
f 41 49 48
f 41 50 49
f 41 51 50
f 52 56 42
f 42 56 51
f 54 60 55
f 55 60 32
f 58 54 29
f 32 56 33
f 33 56 34
f 34 56 52
f 32 63 62
f 59 54 58
f 59 60 54
f 32 60 63
f 32 57 56
f 32 61 57
f 32 62 61