# https://github.com/mikedh/trimesh
v -0.07500000 -0.02291570 -0.01377170
v -0.07500000 -0.02337170 -0.01331570
v -0.07500000 -0.02371480 -0.01276960
v -0.07500000 -0.02236960 -0.01411480
v -0.07500000 -0.02176090 -0.01432780
v -0.07500000 -0.02112000 -0.01440000
v -0.07500000 -0.02392780 -0.01216090
v -0.07500000 -0.02400000 -0.01152000
v -0.07500000 -0.01801120 -0.01440000
v -0.07500000 -0.01733960 -0.01432060
v -0.07500000 -0.01670500 -0.01408670
v -0.07500000 -0.01614240 -0.01371140
v -0.07500000 -0.01568290 -0.01321510
v -0.07500000 -0.01535180 -0.01262540
v -0.07500000 -0.01516730 -0.01197470
v -0.07500000 -0.01460200 -0.00963430
v -0.07500000 -0.01367780 -0.00741100
v -0.07500000 -0.01241760 -0.00535940
v -0.07500000 -0.01085220 -0.00352990
v -0.07500000 -0.00902020 -0.00196760
v -0.07500000 -0.00696650 -0.00071070
v -0.07500000 -0.02400000 0.01152000
v -0.07500000 -0.02392780 0.01216090
v -0.07500000 -0.02371480 0.01276960
v -0.07500000 -0.02337170 0.01331570
v -0.07500000 -0.02291570 0.01377170
v -0.07500000 -0.02236960 0.01411480
v -0.07500000 -0.02176090 0.01432780
v -0.07500000 -0.02112000 0.01440000
v -0.07500000 -0.00474170 0.00020980
v -0.07500000 -0.00240030 0.00077130
v -0.07500000 0.00696650 -0.00071070
v -0.07500000 0.00902020 -0.00196760
v -0.07500000 0.01085220 -0.00352990
v -0.07500000 0.01614240 -0.01371140
v -0.07500000 0.01568290 -0.01321510
v -0.07500000 0.01535180 -0.01262540
v -0.07500000 0.01670500 -0.01408670
v -0.07500000 0.01733960 -0.01432060
v -0.07500000 0.01516730 -0.01197470
v -0.07500000 0.01460200 -0.00963430
v -0.07500000 0.01367780 -0.00741100
v -0.07500000 0.01801120 -0.01440000
v -0.07500000 0.02112000 -0.01440000
v -0.07500000 0.02176090 -0.01432780
v -0.07500000 0.02236960 -0.01411480
v -0.07500000 0.02291570 -0.01377170
v -0.07500000 0.02337170 -0.01331570
v -0.07500000 0.02371480 -0.01276960
v -0.07500000 0.02392780 -0.01216090
v -0.07500000 0.02400000 -0.01152000
v -0.07500000 0.01241760 -0.00535940
v -0.07500000 0.00000000 0.00096000
v -0.07500000 0.00240030 0.00077130
v -0.07500000 0.00474170 0.00020980
v -0.07500000 0.02400000 0.01152000
v -0.07500000 0.02392780 0.01216090
v -0.07500000 0.02112000 0.01440000
v -0.07500000 0.02176090 0.01432780
v -0.07500000 0.02236960 0.01411480
v -0.07500000 0.02371480 0.01276960
v -0.07500000 0.02337170 0.01331570
v -0.07500000 0.02291570 0.01377170
v 0.02500000 -0.02291570 -0.01377170
v 0.02500000 -0.02337170 -0.01331570
v 0.02500000 -0.02371480 -0.01276960
v 0.02500000 -0.02236960 -0.01411480
v 0.02500000 -0.02176090 -0.01432780
v 0.02500000 -0.02112000 -0.01440000
v 0.02500000 -0.02392780 -0.01216090
v 0.02500000 -0.02400000 -0.01152000
v 0.02500000 -0.01801120 -0.01440000
v 0.02500000 -0.01733960 -0.01432060
v 0.02500000 -0.01670500 -0.01408670
v 0.02500000 -0.01614240 -0.01371140
v 0.02500000 -0.01568290 -0.01321510
v 0.02500000 -0.01535180 -0.01262540
v 0.02500000 -0.01516730 -0.01197470
v 0.02500000 -0.01460200 -0.00963430
v 0.02500000 -0.01367780 -0.00741100
v 0.02500000 -0.01241760 -0.00535940
v 0.02500000 -0.01085220 -0.00352990
v 0.02500000 -0.00902020 -0.00196760
v 0.02500000 -0.00696650 -0.00071070
v 0.02500000 -0.02400000 0.01152000
v 0.02500000 -0.02392780 0.01216090
v 0.02500000 -0.02371480 0.01276960
v 0.02500000 -0.02337170 0.01331570
v 0.02500000 -0.02291570 0.01377170
v 0.02500000 -0.02236960 0.01411480
v 0.02500000 -0.02176090 0.01432780
v 0.02500000 -0.02112000 0.01440000
v 0.02500000 -0.00474170 0.00020980
v 0.02500000 -0.00240030 0.00077130
v 0.02500000 0.00696650 -0.00071070
v 0.02500000 0.00902020 -0.00196760
v 0.02500000 0.01085220 -0.00352990
v 0.02500000 0.01614240 -0.01371140
v 0.02500000 0.01568290 -0.01321510
v 0.02500000 0.01535180 -0.01262540
v 0.02500000 0.01670500 -0.01408670
v 0.02500000 0.01733960 -0.01432060
v 0.02500000 0.01516730 -0.01197470
v 0.02500000 0.01460200 -0.00963430
v 0.02500000 0.01367780 -0.00741100
v 0.02500000 0.01801120 -0.01440000
v 0.02500000 0.02112000 -0.01440000
v 0.02500000 0.02176090 -0.01432780
v 0.02500000 0.02236960 -0.01411480
v 0.02500000 0.02291570 -0.01377170
v 0.02500000 0.02337170 -0.01331570
v 0.02500000 0.02371480 -0.01276960
v 0.02500000 0.02392780 -0.01216090
v 0.02500000 0.02400000 -0.01152000
v 0.02500000 0.01241760 -0.00535940
v 0.02500000 0.00000000 0.00096000
v 0.02500000 0.00240030 0.00077130
v 0.02500000 0.00474170 0.00020980
v 0.02500000 0.02400000 0.01152000
v 0.02500000 0.02392780 0.01216090
v 0.02500000 0.02112000 0.01440000
v 0.02500000 0.02176090 0.01432780
v 0.02500000 0.02236960 0.01411480
v 0.02500000 0.02371480 0.01276960
v 0.02500000 0.02337170 0.01331570
v 0.02500000 0.02291570 0.01377170
f 1 2 4
f 2 8 6
f 4 6 5
f 2 6 4
f 6 8 9
f 2 3 8
f 3 7 8
f 8 15 9
f 9 12 10
f 10 12 11
f 9 14 12
f 9 15 14
f 12 14 13
f 8 16 15
f 8 17 16
f 8 18 17
f 8 22 18
f 1 4 64
f 2 66 3
f 1 65 2
f 4 5 67
f 5 6 68
f 3 70 7
f 7 71 8
f 6 9 69
f 9 10 72
f 10 11 73
f 11 12 74
f 12 13 75
f 13 14 76
f 14 15 77
f 15 16 78
f 16 17 79
f 17 18 80
f 18 19 81
f 19 20 82
f 20 21 83
f 21 30 84
f 18 22 19
f 19 22 20
f 20 29 21
f 20 22 29
f 22 23 25
f 23 24 25
f 22 25 26
f 22 26 27
f 22 27 29
f 27 28 29
f 21 29 30
f 29 31 30
f 29 53 31
f 8 85 22
f 22 86 23
f 23 87 24
f 24 88 25
f 25 89 26
f 26 90 27
f 27 91 28
f 28 92 29
f 30 31 93
f 31 53 94
f 35 36 39
f 36 37 40
f 36 40 39
f 35 39 38
f 39 40 43
f 40 41 51
f 41 42 51
f 42 52 51
f 40 51 43
f 44 46 45
f 44 47 46
f 43 51 44
f 44 50 47
f 44 51 50
f 47 50 48
f 48 50 49
f 51 52 56
f 32 118 55
f 34 52 97
f 32 33 95
f 33 34 96
f 35 38 98
f 36 100 37
f 35 99 36
f 38 39 101
f 39 43 102
f 37 103 40
f 40 104 41
f 41 105 42
f 43 44 106
f 44 45 107
f 45 46 108
f 46 47 109
f 47 48 110
f 48 49 111
f 49 50 112
f 50 51 113
f 42 115 52
f 51 56 114
f 53 58 54
f 54 58 55
f 32 55 58
f 29 58 53
f 33 56 34
f 34 56 52
f 32 58 33
f 33 58 56
f 56 62 57
f 58 59 63
f 59 60 63
f 56 58 63
f 56 63 62
f 57 62 61
f 53 54 116
f 54 55 117
f 29 121 58
f 56 57 119
f 57 61 120
f 58 122 59
f 59 123 60
f 62 63 125
f 61 62 124
f 60 126 63
f 4 67 64
f 1 64 65
f 2 65 66
f 5 68 67
f 6 69 68
f 3 66 70
f 7 70 71
f 9 72 69
f 10 73 72
f 11 74 73
f 12 75 74
f 13 76 75
f 14 77 76
f 15 78 77
f 16 79 78
f 17 80 79
f 8 71 85
f 18 81 80
f 19 82 81
f 20 83 82
f 21 84 83
f 30 93 84
f 22 85 86
f 23 86 87
f 24 87 88
f 25 88 89
f 26 89 90
f 27 90 91
f 28 91 92
f 31 94 93
f 53 116 94
f 29 92 121
f 52 115 97
f 32 95 118
f 33 96 95
f 34 97 96
f 40 103 104
f 35 98 99
f 36 99 100
f 38 101 98
f 39 102 101
f 43 106 102
f 37 100 103
f 41 104 105
f 44 107 106
f 45 108 107
f 46 109 108
f 47 110 109
f 48 111 110
f 49 112 111
f 50 113 112
f 51 114 113
f 42 105 115
f 54 117 116
f 55 118 117
f 56 119 114
f 57 120 119
f 61 124 120
f 58 121 122
f 59 122 123
f 62 125 124
f 63 126 125
f 60 123 126
f 67 85 64
f 67 68 85
f 68 69 85
f 69 72 85
f 64 85 65
f 65 85 66
f 66 85 70
f 70 85 71
f 72 73 85
f 74 85 73
f 75 85 74
f 75 76 85
f 76 77 85
f 78 85 77
f 78 79 85
f 80 85 79
f 80 81 85
f 86 85 82
f 87 86 82
f 81 82 85
f 83 90 82
f 83 84 90
f 87 82 88
f 88 82 89
f 89 82 90
f 93 90 84
f 94 90 93
f 90 121 91
f 91 121 92
f 121 90 94
f 98 102 99
f 99 106 100
f 100 106 103
f 98 101 102
f 106 99 102
f 104 106 107
f 103 106 104
f 104 107 105
f 105 114 115
f 108 105 107
f 109 105 108
f 110 105 109
f 111 105 110
f 112 105 111
f 113 105 112
f 113 114 105
f 97 114 96
f 115 114 97
f 96 114 119
f 116 121 94
f 117 121 116
f 118 121 117
f 95 121 118
f 96 119 95
f 95 125 126
f 95 122 121
f 95 123 122
f 95 126 123
f 95 119 120
f 95 120 124
f 95 124 125