# https://github.com/mikedh/trimesh
v 0.07513225 0.01800498 0.01521959 0.25098039 0.46274510 0.24313725
v 0.05665323 0.01798443 0.01544407 0.25098039 0.46274510 0.24313725
v 0.07513225 0.01797171 0.01557909 0.25098039 0.46274510 0.24313725
v 0.07553296 0.01793942 0.01557403 0.25098039 0.46274510 0.24313725
v 0.07553296 0.01797171 0.01521959 0.25098039 0.46274510 0.24313725
v 0.07513225 0.01800498 0.00867005 0.25098039 0.46274510 0.24313725
v -0.01777537 0.01800498 0.01521959 0.25098039 0.46274510 0.24313725
v -0.01725352 0.01798443 0.01544407 0.25098039 0.46274510 0.24313725
v 0.05665323 0.01791105 0.01579682 0.25098039 0.46274510 0.24313725
v 0.07513225 0.01787387 0.01592762 0.25098039 0.46274510 0.24313725
v 0.07553296 0.01784353 0.01591665 0.25098039 0.46274510 0.24313725
v -0.01777537 0.01797171 0.01557909 0.25098039 0.46274510 0.24313725
v 0.01970452 0.01793551 0.01570990 0.25098039 0.46274510 0.24313725
v 0.07591502 0.01784353 0.01555715 0.25098039 0.46274510 0.24313725
v 0.07591502 0.01787387 0.01521959 0.25098039 0.46274510 0.24313725
v 0.07583116 0.01789539 0.00867005 0.25098039 0.46274510 0.24313725
v 0.07553296 0.01797171 0.00867005 0.25098039 0.46274510 0.24313725
v -0.01777537 0.01800498 0.00867005 0.25098039 0.46274510 0.24313725
v -0.01777537 0.01799226 0.01535799 0.25098039 0.46274510 0.24313725
v 0.05665323 0.01788659 0.01588374 0.25098039 0.46274510 0.24313725
v 0.05665323 0.01785430 0.01596898 0.25098039 0.46274510 0.24313725
v 0.07513225 0.01771535 0.01625506 0.25098039 0.46274510 0.24313725
v -0.01777537 0.01787387 0.01592762 0.25098039 0.46274510 0.24313725
v 0.07553296 0.01768698 0.01623903 0.25098039 0.46274510 0.24313725
v 0.07591502 0.01775156 0.01588543 0.25098039 0.46274510 0.24313725
v -0.01777537 0.01793453 0.01571327 0.25098039 0.46274510 0.24313725
v -0.01725352 0.01793551 0.01570990 0.25098039 0.46274510 0.24313725
v 0.07627845 0.01768698 0.01553099 0.25098039 0.46274510 0.24313725
v 0.07627845 0.01771535 0.01521959 0.25098039 0.46274510 0.24313725
v 0.07602685 0.01782690 0.00867005 0.25098039 0.46274510 0.24313725
v 0.07591502 0.01787387 0.00867005 0.25098039 0.46274510 0.24313725
v -0.01777537 0.00861065 0.00867005 0.25098039 0.46274510 0.24313725
v -0.01725352 0.01788659 0.01588374 0.25098039 0.46274510 0.24313725
v 0.03817421 0.01783473 0.01600948 0.25098039 0.46274510 0.24313725
v -0.01725352 0.01785430 0.01596898 0.25098039 0.46274510 0.24313725
v -0.01777537 0.01781320 0.01605421 0.25098039 0.46274510 0.24313725
v 0.05665323 0.01758032 0.01643987 0.25098039 0.46274510 0.24313725
v 0.07513225 0.01749911 0.01655042 0.25098039 0.46274510 0.24313725
v -0.01777537 0.01771535 0.01625506 0.25098039 0.46274510 0.24313725
v -0.01777537 0.01763218 0.01636899 0.25098039 0.46274510 0.24313725
v -0.01777537 0.01752553 0.01651498 0.25098039 0.46274510 0.24313725
v 0.07553296 0.01747367 0.01653017 0.25098039 0.46274510 0.24313725
v 0.07591502 0.01739931 0.01647025 0.25098039 0.46274510 0.24313725
v 0.07591502 0.01760185 0.01619261 0.25098039 0.46274510 0.24313725
v 0.07627845 0.01760185 0.01583311 0.25098039 0.46274510 0.24313725
v 0.07660461 0.01739931 0.01576222 0.25098039 0.46274510 0.24313725
v 0.07660461 0.01747367 0.01549470 0.25098039 0.46274510 0.24313725
v 0.07660461 0.01749911 0.01521959 0.25098039 0.46274510 0.24313725
v 0.07627845 0.01771535 0.00867005 0.25098039 0.46274510 0.24313725
v -0.00299588 0.00800889 0.00867005 0.25098039 0.46274510 0.24313725
v -0.00267905 0.00800889 0.01530989 0.25098039 0.46274510 0.24313725
v -0.00266041 0.00800889 0.01548458 0.25098039 0.46274510 0.24313725
v -0.00262313 0.00800889 0.01565757 0.25098039 0.46274510 0.24313725
v -0.00257654 0.00800889 0.01582804 0.25098039 0.46274510 0.24313725
v -0.00252063 0.00800889 0.01598332 0.25098039 0.46274510 0.24313725
v -0.00243676 0.00800889 0.01615295 0.25098039 0.46274510 0.24313725
v -0.00234357 0.00800889 0.01629641 0.25098039 0.46274510 0.24313725
v -0.00224107 0.00800889 0.01644156 0.25098039 0.46274510 0.24313725
v -0.01777537 0.00886506 0.01427357 0.25098039 0.46274510 0.24313725
v 0.03817421 0.01743257 0.01661456 0.25098039 0.46274510 0.24313725
v 0.05665323 0.01726623 0.01677406 0.25098039 0.46274510 0.24313725
v 0.07513225 0.01723296 0.01680528 0.25098039 0.46274510 0.24313725
v 0.07553296 0.01721144 0.01678165 0.25098039 0.46274510 0.24313725
v -0.01777537 0.01749911 0.01655042 0.25098039 0.46274510 0.24313725
v 0.07591502 0.01714882 0.01670992 0.25098039 0.46274510 0.24313725
v 0.07627845 0.01704706 0.01659347 0.25098039 0.46274510 0.24313725
v 0.07627845 0.01727700 0.01637236 0.25098039 0.46274510 0.24313725
v 0.07627845 0.01746388 0.01611581 0.25098039 0.46274510 0.24313725
v 0.07660461 0.01727700 0.01601286 0.25098039 0.46274510 0.24313725
v 0.07688417 0.01704706 0.01588543 0.25098039 0.46274510 0.24313725
v 0.07688417 0.01714882 0.01567445 0.25098039 0.46274510 0.24313725
v 0.07688417 0.01721144 0.01545082 0.25098039 0.46274510 0.24313725
v 0.07688417 0.01723296 0.01521959 0.25098039 0.46274510 0.24313725
v 0.07682826 0.01728972 0.00867005 0.25098039 0.46274510 0.24313725
v 0.07660461 0.01749911 0.00867005 0.25098039 0.46274510 0.24313725
v 0.07742466 0.00800889 0.00867005 0.25098039 0.46274510 0.24313725
v -0.00223175 0.00800889 0.01645253 0.25098039 0.46274510 0.24313725
v -0.01777537 0.00891300 0.01530989 0.25098039 0.46274510 0.24313725
v -0.01725352 0.01746584 0.01658249 0.25098039 0.46274510 0.24313725
v -0.01725352 0.01726623 0.01677406 0.25098039 0.46274510 0.24313725
v 0.03817421 0.01715566 0.01685761 0.25098039 0.46274510 0.24313725
v 0.07513225 0.01692377 0.01701288 0.25098039 0.46274510 0.24313725
v 0.07553296 0.01690811 0.01698588 0.25098039 0.46274510 0.24313725
v -0.01777537 0.01723296 0.01680528 0.25098039 0.46274510 0.24313725
v -0.01777537 0.01711848 0.01688292 0.25098039 0.46274510 0.24313725
v -0.01777537 0.01746486 0.01658334 0.25098039 0.46274510 0.24313725
v 0.07591502 0.01685919 0.01690487 0.25098039 0.46274510 0.24313725
v 0.07627845 0.01677895 0.01677237 0.25098039 0.46274510 0.24313725
v 0.07660461 0.01667132 0.01659347 0.25098039 0.46274510 0.24313725
v 0.07660461 0.01690811 0.01643481 0.25098039 0.46274510 0.24313725
v 0.07660461 0.01711163 0.01623903 0.25098039 0.46274510 0.24313725
v 0.07688417 0.01690811 0.01607531 0.25098039 0.46274510 0.24313725
v 0.07711714 0.01667132 0.01588543 0.25098039 0.46274510 0.24313725
v 0.07711714 0.01677895 0.01573690 0.25098039 0.46274510 0.24313725
v 0.07711714 0.01685919 0.01557403 0.25098039 0.46274510 0.24313725
v 0.07711714 0.01690811 0.01539934 0.25098039 0.46274510 0.24313725
v 0.07711714 0.01692377 0.01521959 0.25098039 0.46274510 0.24313725
v 0.07688417 0.01723296 0.00867005 0.25098039 0.46274510 0.24313725
v 0.07742466 0.01584353 0.00867005 0.25098039 0.46274510 0.24313725
v 0.07742466 0.00800889 0.01521959 0.25098039 0.46274510 0.24313725
v -0.00211992 0.00800889 0.01657827 0.25098039 0.46274510 0.24313725
v -0.01777537 0.00892866 0.01548458 0.25098039 0.46274510 0.24313725
v -0.00211060 0.00800889 0.01658840 0.25098039 0.46274510 0.24313725
v -0.00183104 0.00800889 0.01683145 0.25098039 0.46274510 0.24313725
v -0.01777537 0.01726525 0.01677490 0.25098039 0.46274510 0.24313725
v 0.01970452 0.01704021 0.01693525 0.25098039 0.46274510 0.24313725
v 0.05665323 0.01679656 0.01707027 0.25098039 0.46274510 0.24313725
v 0.07513225 0.01658326 0.01716563 0.25098039 0.46274510 0.24313725
v -0.01777537 0.01703923 0.01693609 0.25098039 0.46274510 0.24313725
v -0.01777537 0.01696193 0.01698757 0.25098039 0.46274510 0.24313725
v -0.01777537 0.01692377 0.01701288 0.25098039 0.46274510 0.24313725
v 0.07553296 0.01657152 0.01713525 0.25098039 0.46274510 0.24313725
v 0.07591502 0.01653825 0.01704748 0.25098039 0.46274510 0.24313725
v 0.07627845 0.01648345 0.01690487 0.25098039 0.46274510 0.24313725
v 0.07660461 0.01641007 0.01670992 0.25098039 0.46274510 0.24313725
v 0.07688417 0.01631907 0.01647025 0.25098039 0.46274510 0.24313725
v 0.07688417 0.01653825 0.01637236 0.25098039 0.46274510 0.24313725
v 0.07688417 0.01673688 0.01623903 0.25098039 0.46274510 0.24313725
v 0.07711714 0.01653825 0.01601286 0.25098039 0.46274510 0.24313725
v 0.07728488 0.01631907 0.01576222 0.25098039 0.46274510 0.24313725
v 0.07728488 0.01641007 0.01567445 0.25098039 0.46274510 0.24313725
v 0.07728488 0.01648345 0.01557403 0.25098039 0.46274510 0.24313725
v 0.07728488 0.01653825 0.01546179 0.25098039 0.46274510 0.24313725
v 0.07728488 0.01657152 0.01534280 0.25098039 0.46274510 0.24313725
v 0.07728488 0.01658326 0.01521959 0.25098039 0.46274510 0.24313725
v 0.07715441 0.01685038 0.00867005 0.25098039 0.46274510 0.24313725
v 0.07711714 0.01692377 0.00867005 0.25098039 0.46274510 0.24313725
v 0.07742466 0.01584353 0.01521959 0.25098039 0.46274510 0.24313725
v 0.07739671 0.01613805 0.00867005 0.25098039 0.46274510 0.24313725
v 0.07739671 0.00800889 0.01549048 0.25098039 0.46274510 0.24313725
v -0.01777537 0.00895997 0.01565757 0.25098039 0.46274510 0.24313725
v -0.00180309 0.00800889 0.01684832 0.25098039 0.46274510 0.24313725
v -0.00150489 0.00800889 0.01702723 0.25098039 0.46274510 0.24313725
v -0.00115078 0.00800889 0.01717238 0.25098039 0.46274510 0.24313725
v -0.01725352 0.01679656 0.01707027 0.25098039 0.46274510 0.24313725
v 0.03817421 0.01631026 0.01723567 0.25098039 0.46274510 0.24313725
v 0.07513225 0.01621927 0.01725846 0.25098039 0.46274510 0.24313725
v 0.07553296 0.01621339 0.01722808 0.25098039 0.46274510 0.24313725
v -0.01777537 0.01658326 0.01716563 0.25098039 0.46274510 0.24313725
v -0.01777537 0.01688071 0.01703229 0.25098039 0.46274510 0.24313725
v 0.07591502 0.01619676 0.01713525 0.25098039 0.46274510 0.24313725
v 0.07627845 0.01616839 0.01698588 0.25098039 0.46274510 0.24313725
v 0.07660461 0.01613120 0.01678165 0.25098039 0.46274510 0.24313725
v 0.07688417 0.01608521 0.01653017 0.25098039 0.46274510 0.24313725
v 0.07711714 0.01621339 0.01619261 0.25098039 0.46274510 0.24313725
v 0.07711714 0.01638365 0.01611581 0.25098039 0.46274510 0.24313725
v 0.07728488 0.01621339 0.01583311 0.25098039 0.46274510 0.24313725
v 0.07738739 0.01603140 0.01553099 0.25098039 0.46274510 0.24313725
v 0.07738739 0.01608521 0.01549470 0.25098039 0.46274510 0.24313725
v 0.07738739 0.01613120 0.01545082 0.25098039 0.46274510 0.24313725
v 0.07738739 0.01616839 0.01539934 0.25098039 0.46274510 0.24313725
v 0.07738739 0.01619676 0.01534280 0.25098039 0.46274510 0.24313725
v 0.07738739 0.01621339 0.01528204 0.25098039 0.46274510 0.24313725
v 0.07738739 0.01621927 0.01521959 0.25098039 0.46274510 0.24313725
v 0.07728488 0.01658326 0.00867005 0.25098039 0.46274510 0.24313725
v 0.07738739 0.01597269 0.01555715 0.25098039 0.46274510 0.24313725
v 0.07738739 0.01590909 0.01557403 0.25098039 0.46274510 0.24313725
v 0.07738739 0.01584353 0.01557909 0.25098039 0.46274510 0.24313725
v 0.07738739 0.01621927 0.00867005 0.25098039 0.46274510 0.24313725
v 0.07738739 0.00800889 0.01557909 0.25098039 0.46274510 0.24313725
v -0.01777537 0.00898247 0.01574281 0.25098039 0.46274510 0.24313725
v -0.00111350 0.00800889 0.01718167 0.25098039 0.46274510 0.24313725
v -0.01777537 0.00900596 0.01582720 0.25098039 0.46274510 0.24313725
v -0.01777537 0.01626330 0.01724749 0.25098039 0.46274510 0.24313725
v 0.03817421 0.01612533 0.01726690 0.25098039 0.46274510 0.24313725
v 0.07513225 0.01584353 0.01729053 0.25098039 0.46274510 0.24313725
v -0.01777537 0.01621927 0.01725846 0.25098039 0.46274510 0.24313725
v 0.07553296 0.01584353 0.01725846 0.25098039 0.46274510 0.24313725
v 0.07591502 0.01584353 0.01716563 0.25098039 0.46274510 0.24313725
v 0.07627845 0.01584353 0.01701288 0.25098039 0.46274510 0.24313725
v 0.07660461 0.01584353 0.01680528 0.25098039 0.46274510 0.24313725
v 0.07688417 0.01584353 0.01655042 0.25098039 0.46274510 0.24313725
v 0.07711714 0.01584353 0.01625506 0.25098039 0.46274510 0.24313725
v 0.07711714 0.01603140 0.01623903 0.25098039 0.46274510 0.24313725
v 0.07728488 0.01609696 0.01588543 0.25098039 0.46274510 0.24313725
v 0.07728488 0.01597269 0.01591665 0.25098039 0.46274510 0.24313725
v 0.07728488 0.01584353 0.01592762 0.25098039 0.46274510 0.24313725
v 0.07728488 0.00800889 0.01592762 0.25098039 0.46274510 0.24313725
v -0.00077803 0.00800889 0.01726015 0.25098039 0.46274510 0.24313725
v -0.01777537 0.00906662 0.01599260 0.25098039 0.46274510 0.24313725
v -0.01725352 0.01617230 0.01726268 0.25098039 0.46274510 0.24313725
v -0.01725352 0.01598443 0.01727871 0.25098039 0.46274510 0.24313725
v 0.07513225 0.00800889 0.01729053 0.25098039 0.46274510 0.24313725
v -0.01777537 0.01584353 0.01729053 0.25098039 0.46274510 0.24313725
v -0.01777537 0.01617132 0.01726268 0.25098039 0.46274510 0.24313725
v 0.07553296 0.00800889 0.01725846 0.25098039 0.46274510 0.24313725
v 0.07582184 0.00800889 0.01718842 0.25098039 0.46274510 0.24313725
v 0.07591502 0.00800889 0.01716563 0.25098039 0.46274510 0.24313725
v 0.07600821 0.00800889 0.01712766 0.25098039 0.46274510 0.24313725
v 0.07627845 0.00800889 0.01701288 0.25098039 0.46274510 0.24313725
v 0.07636233 0.00800889 0.01696141 0.25098039 0.46274510 0.24313725
v 0.07660461 0.00800889 0.01680528 0.25098039 0.46274510 0.24313725
v 0.07681894 0.00800889 0.01661372 0.25098039 0.46274510 0.24313725
v 0.07688417 0.00800889 0.01655042 0.25098039 0.46274510 0.24313725
v 0.07706123 0.00800889 0.01632764 0.25098039 0.46274510 0.24313725
v 0.07711714 0.00800889 0.01625506 0.25098039 0.46274510 0.24313725
v -0.00073143 0.00800889 0.01726437 0.25098039 0.46274510 0.24313725
v -0.01777537 0.00971437 0.01683145 0.25098039 0.46274510 0.24313725
v -0.01777537 0.00949715 0.01663228 0.25098039 0.46274510 0.24313725
v -0.01777537 0.00945018 0.01658840 0.25098039 0.46274510 0.24313725
v -0.01777537 0.00933472 0.01645169 0.25098039 0.46274510 0.24313725
v -0.01777537 0.00923198 0.01630569 0.25098039 0.46274510 0.24313725
v -0.01777537 0.00918697 0.01622974 0.25098039 0.46274510 0.24313725
v -0.01777537 0.00914294 0.01615295 0.25098039 0.46274510 0.24313725
v -0.01777537 0.01598345 0.01727871 0.25098039 0.46274510 0.24313725
v -0.00039596 0.00800889 0.01729053 0.25098039 0.46274510 0.24313725
v -0.01777537 0.01107152 0.01729053 0.25098039 0.46274510 0.24313725
v -0.01777537 0.01001868 0.01702723 0.25098039 0.46274510 0.24313725
v -0.01777537 0.00997073 0.01699685 0.25098039 0.46274510 0.24313725
v -0.01777537 0.01075351 0.01726437 0.25098039 0.46274510 0.24313725
v -0.01777537 0.01070654 0.01726015 0.25098039 0.46274510 0.24313725
v -0.01777537 0.01039930 0.01718420 0.25098039 0.46274510 0.24313725
v -0.01777537 0.01035234 0.01717238 0.25098039 0.46274510 0.24313725
v -0.01777537 0.01006564 0.01704833 0.25098039 0.46274510 0.24313725
f 1 2 3
f 1 3 4
f 1 4 5
f 1 5 17
f 1 17 6
f 1 6 18
f 1 18 7
f 1 7 8
f 1 8 2
f 2 8 12
f 2 12 3
f 3 9 10
f 3 10 11
f 3 11 4
f 3 12 27
f 3 27 13
f 3 13 9
f 4 11 14
f 4 14 5
f 5 14 15
f 5 15 16
f 5 16 17
f 6 17 16
f 6 16 31
f 6 31 30
f 6 30 49
f 6 49 75
f 6 75 74
f 6 74 98
f 6 98 127
f 6 127 126
f 6 126 155
f 6 155 159
f 6 159 129
f 6 129 99
f 6 99 76
f 6 76 50
f 6 50 32
f 6 32 18
f 7 18 32
f 7 32 59
f 7 59 78
f 7 78 102
f 7 102 131
f 7 131 161
f 7 161 163
f 7 163 180
f 7 180 204
f 7 204 203
f 7 203 202
f 7 202 201
f 7 201 200
f 7 200 199
f 7 199 198
f 7 198 209
f 7 209 208
f 7 208 214
f 7 214 213
f 7 213 212
f 7 212 211
f 7 211 210
f 7 210 207
f 7 207 184
f 7 184 205
f 7 205 185
f 7 185 167
f 7 167 164
f 7 164 139
f 7 139 140
f 7 140 111
f 7 111 110
f 7 110 109
f 7 109 85
f 7 85 84
f 7 84 105
f 7 105 86
f 7 86 64
f 7 64 41
f 7 41 40
f 7 40 39
f 7 39 36
f 7 36 23
f 7 23 26
f 7 26 12
f 7 12 19
f 7 19 8
f 8 19 12
f 9 20 10
f 9 13 27
f 9 27 33
f 9 33 20
f 10 21 22
f 10 22 11
f 10 20 33
f 10 33 23
f 10 23 35
f 10 35 21
f 11 24 25
f 11 25 14
f 11 22 24
f 12 26 27
f 14 25 28
f 14 28 29
f 14 29 15
f 15 30 31
f 15 31 16
f 15 29 30
f 21 34 22
f 21 35 36
f 21 36 34
f 22 37 38
f 22 38 24
f 22 34 36
f 22 36 39
f 22 39 40
f 22 40 41
f 22 41 37
f 23 33 26
f 23 36 35
f 24 42 43
f 24 43 44
f 24 44 25
f 24 38 42
f 25 44 45
f 25 45 28
f 26 33 27
f 28 45 46
f 28 46 47
f 28 47 48
f 28 48 29
f 29 48 75
f 29 75 49
f 29 49 30
f 32 50 51
f 32 51 52
f 32 52 53
f 32 53 54
f 32 54 55
f 32 55 56
f 32 56 57
f 32 57 58
f 32 58 59
f 37 41 38
f 38 60 61
f 38 61 62
f 38 62 63
f 38 63 42
f 38 41 64
f 38 64 79
f 38 79 60
f 42 63 43
f 43 65 66
f 43 66 67
f 43 67 44
f 43 63 65
f 44 67 68
f 44 68 45
f 45 68 69
f 45 69 46
f 46 69 70
f 46 70 71
f 46 71 72
f 46 72 47
f 47 72 73
f 47 73 48
f 48 74 75
f 48 73 74
f 50 76 100
f 50 100 130
f 50 130 160
f 50 160 178
f 50 178 196
f 50 196 195
f 50 195 194
f 50 194 193
f 50 193 192
f 50 192 191
f 50 191 190
f 50 190 189
f 50 189 188
f 50 188 187
f 50 187 186
f 50 186 183
f 50 183 206
f 50 206 197
f 50 197 179
f 50 179 162
f 50 162 134
f 50 134 133
f 50 133 132
f 50 132 104
f 50 104 103
f 50 103 101
f 50 101 77
f 50 77 58
f 50 58 57
f 50 57 56
f 50 56 55
f 50 55 54
f 50 54 53
f 50 53 52
f 50 52 51
f 58 77 78
f 58 78 59
f 60 79 80
f 60 80 61
f 61 80 84
f 61 84 62
f 62 81 82
f 62 82 83
f 62 83 63
f 62 84 85
f 62 85 81
f 63 83 65
f 64 86 79
f 65 87 66
f 65 83 87
f 66 88 89
f 66 89 90
f 66 90 67
f 66 87 88
f 67 90 91
f 67 91 69
f 67 69 68
f 69 91 70
f 70 92 93
f 70 93 94
f 70 94 95
f 70 95 71
f 70 91 92
f 71 95 96
f 71 96 72
f 72 96 73
f 73 96 97
f 73 97 127
f 73 127 98
f 73 98 74
f 76 99 128
f 76 128 100
f 77 101 78
f 78 101 103
f 78 103 104
f 78 104 102
f 79 86 105
f 79 105 80
f 80 105 84
f 81 85 106
f 81 106 82
f 82 107 108
f 82 108 83
f 82 106 109
f 82 109 110
f 82 110 111
f 82 111 135
f 82 135 107
f 83 112 113
f 83 113 87
f 83 108 112
f 85 109 106
f 87 113 114
f 87 114 88
f 88 114 89
f 89 115 116
f 89 116 117
f 89 117 90
f 89 114 115
f 90 117 118
f 90 118 92
f 90 92 91
f 92 118 119
f 92 119 93
f 93 119 120
f 93 120 121
f 93 121 122
f 93 122 94
f 94 122 95
f 95 122 123
f 95 123 96
f 96 123 124
f 96 124 125
f 96 125 97
f 97 126 127
f 97 125 126
f 99 129 128
f 100 128 130
f 102 104 132
f 102 132 133
f 102 133 134
f 102 134 131
f 107 135 139
f 107 139 108
f 108 136 137
f 108 137 138
f 108 138 112
f 108 139 136
f 111 140 135
f 112 138 113
f 113 141 142
f 113 142 114
f 113 138 141
f 114 142 143
f 114 143 115
f 115 143 116
f 116 144 145
f 116 145 117
f 116 143 144
f 117 145 146
f 117 146 119
f 117 119 118
f 119 146 147
f 119 147 120
f 120 147 148
f 120 148 149
f 120 149 150
f 120 150 121
f 121 150 122
f 122 150 151
f 122 151 152
f 122 152 123
f 123 152 124
f 124 152 153
f 124 153 125
f 125 153 154
f 125 154 159
f 125 159 155
f 125 155 126
f 128 129 154
f 128 154 153
f 128 153 152
f 128 152 151
f 128 151 150
f 128 150 149
f 128 149 148
f 128 148 156
f 128 156 157
f 128 157 158
f 128 158 130
f 129 159 154
f 130 158 160
f 131 134 161
f 134 162 163
f 134 163 161
f 135 140 139
f 136 139 164
f 136 164 137
f 137 165 166
f 137 166 138
f 137 164 167
f 137 167 181
f 137 181 165
f 138 168 169
f 138 169 141
f 138 166 168
f 141 169 142
f 142 170 143
f 142 169 170
f 143 171 172
f 143 172 144
f 143 170 171
f 144 172 173
f 144 173 174
f 144 174 145
f 145 174 175
f 145 175 147
f 145 147 146
f 147 175 148
f 148 175 156
f 156 175 157
f 157 175 176
f 157 176 177
f 157 177 158
f 158 177 178
f 158 178 160
f 162 179 180
f 162 180 163
f 165 181 182
f 165 182 184
f 165 184 166
f 166 183 186
f 166 186 168
f 166 184 207
f 166 207 206
f 166 206 183
f 167 185 181
f 168 186 187
f 168 187 169
f 169 187 188
f 169 188 189
f 169 189 170
f 170 189 190
f 170 190 191
f 170 191 171
f 171 191 192
f 171 192 193
f 171 193 172
f 172 193 194
f 172 194 195
f 172 195 173
f 173 195 196
f 173 196 178
f 173 178 177
f 173 177 176
f 173 176 174
f 174 176 175
f 179 197 198
f 179 198 199
f 179 199 200
f 179 200 201
f 179 201 202
f 179 202 203
f 179 203 204
f 179 204 180
f 181 185 205
f 181 205 182
f 182 205 184
f 197 206 208
f 197 208 209
f 197 209 198
f 206 207 210
f 206 210 211
f 206 211 212
f 206 212 213
f 206 213 214
f 206 214 208