# https://github.com/mikedh/trimesh
v -0.01777537 0.01800406 0.01521959 0.20784314 0.16078431 0.65098039
v -0.01777537 0.01800038 0.01526600 0.20784314 0.16078431 0.65098039
v -0.01777537 0.01800406 0.00867005 0.20784314 0.16078431 0.65098039
v -0.07268497 0.01800406 0.01521959 0.20784314 0.16078431 0.65098039
v -0.03573386 0.01799670 0.01530904 0.20784314 0.16078431 0.65098039
v -0.01777537 0.01799209 0.01535799 0.20784314 0.16078431 0.65098039
v -0.01777537 0.00861059 0.00867005 0.20784314 0.16078431 0.65098039
v -0.07268497 0.01800406 0.00867005 0.20784314 0.16078431 0.65098039
v -0.07277393 0.01799762 0.00867005 0.20784314 0.16078431 0.65098039
v -0.07308529 0.01797184 0.01521959 0.20784314 0.16078431 0.65098039
v -0.07268497 0.01797184 0.01557909 0.20784314 0.16078431 0.65098039
v -0.03573386 0.01798013 0.01548964 0.20784314 0.16078431 0.65098039
v -0.01777537 0.01797184 0.01557909 0.20784314 0.16078431 0.65098039
v -0.01777537 0.00891251 0.01530989 0.20784314 0.16078431 0.65098039
v -0.03414373 0.00860139 0.01702723 0.20784314 0.16078431 0.65098039
v -0.03382125 0.00860139 0.01683145 0.20784314 0.16078431 0.65098039
v -0.03380457 0.00860139 0.01681710 0.20784314 0.16078431 0.65098039
v -0.03353770 0.00860139 0.01658249 0.20784314 0.16078431 0.65098039
v -0.03342094 0.00860139 0.01645169 0.20784314 0.16078431 0.65098039
v -0.03330974 0.00860139 0.01630654 0.20784314 0.16078431 0.65098039
v -0.03321522 0.00860139 0.01615295 0.20784314 0.16078431 0.65098039
v -0.03313183 0.00860139 0.01598923 0.20784314 0.16078431 0.65098039
v -0.03307067 0.00860139 0.01582804 0.20784314 0.16078431 0.65098039
v -0.03302062 0.00860139 0.01565420 0.20784314 0.16078431 0.65098039
v -0.03298727 0.00860139 0.01548458 0.20784314 0.16078431 0.65098039
v -0.03297059 0.00860139 0.01530989 0.20784314 0.16078431 0.65098039
v -0.03294279 0.00860139 0.01473603 0.20784314 0.16078431 0.65098039
v -0.03265368 0.00860139 0.00867005 0.20784314 0.16078431 0.65098039
v -0.07308529 0.01797184 0.00867005 0.20784314 0.16078431 0.65098039
v -0.07307973 0.01793963 0.01557909 0.20784314 0.16078431 0.65098039
v -0.07316868 0.01795067 0.00867005 0.20784314 0.16078431 0.65098039
v -0.07346892 0.01787427 0.01521959 0.20784314 0.16078431 0.65098039
v -0.07268497 0.01787427 0.01592762 0.20784314 0.16078431 0.65098039
v -0.05420942 0.01795988 0.01562297 0.20784314 0.16078431 0.65098039
v -0.01777537 0.01788624 0.01588543 0.20784314 0.16078431 0.65098039
v -0.01777537 0.00892816 0.01548458 0.20784314 0.16078431 0.65098039
v -0.03449400 0.00860139 0.01717238 0.20784314 0.16078431 0.65098039
v -0.07456978 0.00860139 0.00867005 0.20784314 0.16078431 0.65098039
v -0.07345780 0.01784298 0.01557909 0.20784314 0.16078431 0.65098039
v -0.07341888 0.01775185 0.01592762 0.20784314 0.16078431 0.65098039
v -0.07305748 0.01784298 0.01592762 0.20784314 0.16078431 0.65098039
v -0.07346892 0.01787427 0.00867005 0.20784314 0.16078431 0.65098039
v -0.07354676 0.01784022 0.00867005 0.20784314 0.16078431 0.65098039
v -0.07383031 0.01771503 0.01521959 0.20784314 0.16078431 0.65098039
v -0.07381364 0.01768650 0.01557909 0.20784314 0.16078431 0.65098039
v -0.05420942 0.01791109 0.01579682 0.20784314 0.16078431 0.65098039
v -0.07302969 0.01768650 0.01625506 0.20784314 0.16078431 0.65098039
v -0.07268497 0.01771503 0.01625506 0.20784314 0.16078431 0.65098039
v -0.05420942 0.01773528 0.01621371 0.20784314 0.16078431 0.65098039
v -0.03573386 0.01783469 0.01600948 0.20784314 0.16078431 0.65098039
v -0.01777537 0.01785402 0.01596982 0.20784314 0.16078431 0.65098039
v -0.01777537 0.01787427 0.01592762 0.20784314 0.16078431 0.65098039
v -0.01777537 0.00895945 0.01565757 0.20784314 0.16078431 0.65098039
v -0.03487207 0.00860139 0.01726015 0.20784314 0.16078431 0.65098039
v -0.03483316 0.00860139 0.01725171 0.20784314 0.16078431 0.65098039
v -0.07456978 0.00860139 0.01637574 0.20784314 0.16078431 0.65098039
v -0.07456978 0.01705045 0.00867005 0.20784314 0.16078431 0.65098039
v -0.07336328 0.01760181 0.01625506 0.20784314 0.16078431 0.65098039
v -0.07375804 0.01760181 0.01592762 0.20784314 0.16078431 0.65098039
v -0.07367464 0.01746466 0.01625506 0.20784314 0.16078431 0.65098039
v -0.07383031 0.01771503 0.00867005 0.20784314 0.16078431 0.65098039
v -0.07390259 0.01766809 0.00867005 0.20784314 0.16078431 0.65098039
v -0.07415835 0.01749872 0.01521959 0.20784314 0.16078431 0.65098039
v -0.07413611 0.01747387 0.01557909 0.20784314 0.16078431 0.65098039
v -0.07406939 0.01739931 0.01592762 0.20784314 0.16078431 0.65098039
v -0.07299077 0.01747387 0.01655042 0.20784314 0.16078431 0.65098039
v -0.07328544 0.01739931 0.01655042 0.20784314 0.16078431 0.65098039
v -0.07268497 0.01749872 0.01655042 0.20784314 0.16078431 0.65098039
v -0.05420942 0.01768834 0.01629219 0.20784314 0.16078431 0.65098039
v -0.01777537 0.01771503 0.01625506 0.20784314 0.16078431 0.65098039
v -0.01777537 0.01773436 0.01621539 0.20784314 0.16078431 0.65098039
v -0.01777537 0.00898246 0.01574281 0.20784314 0.16078431 0.65098039
v -0.03491099 0.00860139 0.01726352 0.20784314 0.16078431 0.65098039
v -0.01777537 0.00900548 0.01582720 0.20784314 0.16078431 0.65098039
v -0.01777537 0.00906715 0.01599260 0.20784314 0.16078431 0.65098039
v -0.01777537 0.00914263 0.01615295 0.20784314 0.16078431 0.65098039
v -0.01777537 0.00923191 0.01630569 0.20784314 0.16078431 0.65098039
v -0.01777537 0.00928346 0.01637911 0.20784314 0.16078431 0.65098039
v -0.01777537 0.00933501 0.01645169 0.20784314 0.16078431 0.65098039
v -0.01777537 0.00938195 0.01650823 0.20784314 0.16078431 0.65098039
v -0.01777537 0.00945007 0.01658840 0.20784314 0.16078431 0.65098039
v -0.07449195 0.00860139 0.01648291 0.20784314 0.16078431 0.65098039
v -0.07456978 0.01584370 0.01637574 0.20784314 0.16078431 0.65098039
v -0.07456978 0.01705045 0.01521959 0.20784314 0.16078431 0.65098039
v -0.07450862 0.01713697 0.00867005 0.20784314 0.16078431 0.65098039
v -0.07356344 0.01727688 0.01655042 0.20784314 0.16078431 0.65098039
v -0.07395819 0.01727688 0.01625506 0.20784314 0.16078431 0.65098039
v -0.07381364 0.01711212 0.01655042 0.20784314 0.16078431 0.65098039
v -0.07415835 0.01749872 0.00867005 0.20784314 0.16078431 0.65098039
v -0.07421951 0.01744165 0.00867005 0.20784314 0.16078431 0.65098039
v -0.07443634 0.01723270 0.01521959 0.20784314 0.16078431 0.65098039
v -0.07440854 0.01721153 0.01557909 0.20784314 0.16078431 0.65098039
v -0.07433071 0.01714894 0.01592762 0.20784314 0.16078431 0.65098039
v -0.07420283 0.01704676 0.01625506 0.20784314 0.16078431 0.65098039
v -0.07294073 0.01721153 0.01680528 0.20784314 0.16078431 0.65098039
v -0.07268497 0.01723270 0.01680528 0.20784314 0.16078431 0.65098039
v -0.07319093 0.01714894 0.01680528 0.20784314 0.16078431 0.65098039
v -0.05420942 0.01752633 0.01651329 0.20784314 0.16078431 0.65098039
v -0.05420942 0.01726584 0.01677406 0.20784314 0.16078431 0.65098039
v -0.03573386 0.01743244 0.01661456 0.20784314 0.16078431 0.65098039
v -0.01777537 0.01749872 0.01655042 0.20784314 0.16078431 0.65098039
v -0.01777537 0.01752541 0.01651498 0.20784314 0.16078431 0.65098039
v -0.01777537 0.01763219 0.01636899 0.20784314 0.16078431 0.65098039
v -0.03521123 0.00860139 0.01728715 0.20784314 0.16078431 0.65098039
v -0.01777537 0.00971516 0.01683145 0.20784314 0.16078431 0.65098039
v -0.07443634 0.00860139 0.01655042 0.20784314 0.16078431 0.65098039
v -0.07443634 0.01584370 0.01655042 0.20784314 0.16078431 0.65098039
v -0.07456978 0.01615850 0.01633861 0.20784314 0.16078431 0.65098039
v -0.07456978 0.01703019 0.01535124 0.20784314 0.16078431 0.65098039
v -0.07443634 0.01723270 0.00867005 0.20784314 0.16078431 0.65098039
v -0.07363016 0.01690777 0.01680528 0.20784314 0.16078431 0.65098039
v -0.07341888 0.01704676 0.01680528 0.20784314 0.16078431 0.65098039
v -0.07381364 0.01673656 0.01680528 0.20784314 0.16078431 0.65098039
v -0.07403047 0.01690777 0.01655042 0.20784314 0.16078431 0.65098039
v -0.07456978 0.01699338 0.01557909 0.20784314 0.16078431 0.65098039
v -0.07454754 0.01685899 0.01592762 0.20784314 0.16078431 0.65098039
v -0.07440299 0.01677983 0.01625506 0.20784314 0.16078431 0.65098039
v -0.07288513 0.01690777 0.01701288 0.20784314 0.16078431 0.65098039
v -0.07268497 0.01692434 0.01701288 0.20784314 0.16078431 0.65098039
v -0.01777537 0.01711856 0.01688292 0.20784314 0.16078431 0.65098039
v -0.01777537 0.01719312 0.01683229 0.20784314 0.16078431 0.65098039
v -0.01777537 0.01723270 0.01680528 0.20784314 0.16078431 0.65098039
v -0.07325764 0.01677983 0.01701288 0.20784314 0.16078431 0.65098039
v -0.07307973 0.01685899 0.01701288 0.20784314 0.16078431 0.65098039
v -0.01777537 0.01726492 0.01677490 0.20784314 0.16078431 0.65098039
v -0.01777537 0.01746466 0.01658334 0.20784314 0.16078431 0.65098039
v -0.03525571 0.00860139 0.01729053 0.20784314 0.16078431 0.65098039
v -0.01777537 0.00976211 0.01686183 0.20784314 0.16078431 0.65098039
v -0.07437518 0.00860139 0.01660865 0.20784314 0.16078431 0.65098039
v -0.07415835 0.01584370 0.01680528 0.20784314 0.16078431 0.65098039
v -0.07413611 0.01608487 0.01680528 0.20784314 0.16078431 0.65098039
v -0.07440854 0.01613089 0.01655042 0.20784314 0.16078431 0.65098039
v -0.07456978 0.01639323 0.01625506 0.20784314 0.16078431 0.65098039
v -0.07454754 0.01648343 0.01625506 0.20784314 0.16078431 0.65098039
v -0.07356344 0.01653866 0.01701288 0.20784314 0.16078431 0.65098039
v -0.07341888 0.01667121 0.01701288 0.20784314 0.16078431 0.65098039
v -0.07395819 0.01653866 0.01680528 0.20784314 0.16078431 0.65098039
v -0.07420283 0.01667121 0.01655042 0.20784314 0.16078431 0.65098039
v -0.07456978 0.01695840 0.01565251 0.20784314 0.16078431 0.65098039
v -0.07456978 0.01687279 0.01582720 0.20784314 0.16078431 0.65098039
v -0.07456978 0.01683045 0.01589302 0.20784314 0.16078431 0.65098039
v -0.07456978 0.01680744 0.01592762 0.20784314 0.16078431 0.65098039
v -0.07433071 0.01640979 0.01655042 0.20784314 0.16078431 0.65098039
v -0.07282397 0.01657180 0.01716563 0.20784314 0.16078431 0.65098039
v -0.07268497 0.01658284 0.01716563 0.20784314 0.16078431 0.65098039
v -0.05420942 0.01679639 0.01707027 0.20784314 0.16078431 0.65098039
v -0.01777537 0.01692434 0.01701288 0.20784314 0.16078431 0.65098039
v -0.07319093 0.01640979 0.01716563 0.20784314 0.16078431 0.65098039
v -0.07307973 0.01648343 0.01716563 0.20784314 0.16078431 0.65098039
v -0.07295185 0.01653866 0.01716563 0.20784314 0.16078431 0.65098039
v -0.01777537 0.00986520 0.01692849 0.20784314 0.16078431 0.65098039
v -0.01777537 0.01001800 0.01702723 0.20784314 0.16078431 0.65098039
v -0.01777537 0.01006587 0.01704833 0.20784314 0.16078431 0.65098039
v -0.01777537 0.01035213 0.01717238 0.20784314 0.16078431 0.65098039
v -0.01777537 0.01039908 0.01718420 0.20784314 0.16078431 0.65098039
v -0.01777537 0.01070652 0.01726015 0.20784314 0.16078431 0.65098039
v -0.01777537 0.01075346 0.01726437 0.20784314 0.16078431 0.65098039
v -0.01777537 0.01107103 0.01729053 0.20784314 0.16078431 0.65098039
v -0.07268497 0.00860139 0.01729053 0.20784314 0.16078431 0.65098039
v -0.07415835 0.00860139 0.01680528 0.20784314 0.16078431 0.65098039
v -0.07383031 0.01584370 0.01701288 0.20784314 0.16078431 0.65098039
v -0.07381364 0.01603148 0.01701288 0.20784314 0.16078431 0.65098039
v -0.07406939 0.01631867 0.01680528 0.20784314 0.16078431 0.65098039
v -0.07456978 0.01645490 0.01622215 0.20784314 0.16078431 0.65098039
v -0.07456978 0.01649264 0.01620189 0.20784314 0.16078431 0.65098039
v -0.07367464 0.01638402 0.01701288 0.20784314 0.16078431 0.65098039
v -0.07336328 0.01621373 0.01716563 0.20784314 0.16078431 0.65098039
v -0.07328544 0.01631867 0.01716563 0.20784314 0.16078431 0.65098039
v -0.07275725 0.01621373 0.01725846 0.20784314 0.16078431 0.65098039
v -0.07268497 0.01621926 0.01725846 0.20784314 0.16078431 0.65098039
v -0.03573386 0.01631038 0.01723567 0.20784314 0.16078431 0.65098039
v -0.01777537 0.01658284 0.01716563 0.20784314 0.16078431 0.65098039
v -0.07299077 0.01608487 0.01725846 0.20784314 0.16078431 0.65098039
v -0.07294073 0.01613089 0.01725846 0.20784314 0.16078431 0.65098039
v -0.07288513 0.01616863 0.01725846 0.20784314 0.16078431 0.65098039
v -0.07282397 0.01619624 0.01725846 0.20784314 0.16078431 0.65098039
v -0.01777537 0.01584370 0.01729053 0.20784314 0.16078431 0.65098039
v -0.07268497 0.01584370 0.01729053 0.20784314 0.16078431 0.65098039
v -0.07299077 0.00860139 0.01726606 0.20784314 0.16078431 0.65098039
v -0.07383031 0.00860139 0.01701288 0.20784314 0.16078431 0.65098039
v -0.07346892 0.01584370 0.01716563 0.20784314 0.16078431 0.65098039
v -0.07345780 0.01597257 0.01716563 0.20784314 0.16078431 0.65098039
v -0.07375804 0.01621373 0.01701288 0.20784314 0.16078431 0.65098039
v -0.07341888 0.01609683 0.01716563 0.20784314 0.16078431 0.65098039
v -0.07302969 0.01603148 0.01725846 0.20784314 0.16078431 0.65098039
v -0.03573386 0.01612537 0.01726690 0.20784314 0.16078431 0.65098039
v -0.01777537 0.01621926 0.01725846 0.20784314 0.16078431 0.65098039
v -0.01777537 0.01626344 0.01724749 0.20784314 0.16078431 0.65098039
v -0.01777537 0.01598361 0.01727871 0.20784314 0.16078431 0.65098039
v -0.07305748 0.01597257 0.01725846 0.20784314 0.16078431 0.65098039
v -0.07307973 0.01590905 0.01725846 0.20784314 0.16078431 0.65098039
v -0.07308529 0.01584370 0.01725846 0.20784314 0.16078431 0.65098039
v -0.07308529 0.00860139 0.01725846 0.20784314 0.16078431 0.65098039
v -0.07346892 0.00860139 0.01716563 0.20784314 0.16078431 0.65098039
v -0.07317425 0.00860139 0.01723736 0.20784314 0.16078431 0.65098039
v -0.01777537 0.01617047 0.01726268 0.20784314 0.16078431 0.65098039
f 1 2 6
f 1 6 13
f 1 13 35
f 1 35 52
f 1 52 51
f 1 51 71
f 1 71 70
f 1 70 103
f 1 103 102
f 1 102 101
f 1 101 126
f 1 126 125
f 1 125 122
f 1 122 121
f 1 121 120
f 1 120 147
f 1 147 172
f 1 172 188
f 1 188 187
f 1 187 196
f 1 196 189
f 1 189 177
f 1 177 158
f 1 158 157
f 1 157 156
f 1 156 155
f 1 155 154
f 1 154 153
f 1 153 152
f 1 152 151
f 1 151 128
f 1 128 105
f 1 105 81
f 1 81 80
f 1 80 79
f 1 79 78
f 1 78 77
f 1 77 76
f 1 76 75
f 1 75 74
f 1 74 72
f 1 72 53
f 1 53 36
f 1 36 14
f 1 14 7
f 1 7 3
f 1 3 8
f 1 8 4
f 1 4 2
f 2 5 6
f 2 4 5
f 3 7 28
f 3 28 38
f 3 38 57
f 3 57 85
f 3 85 110
f 3 110 90
f 3 90 89
f 3 89 62
f 3 62 61
f 3 61 43
f 3 43 42
f 3 42 31
f 3 31 29
f 3 29 9
f 3 9 8
f 4 8 9
f 4 9 10
f 4 10 11
f 4 11 5
f 5 12 13
f 5 13 6
f 5 11 12
f 7 14 15
f 7 15 16
f 7 16 17
f 7 17 18
f 7 18 19
f 7 19 20
f 7 20 21
f 7 21 22
f 7 22 23
f 7 23 24
f 7 24 25
f 7 25 26
f 7 26 27
f 7 27 28
f 9 29 10
f 10 30 11
f 10 29 31
f 10 31 32
f 10 32 30
f 11 30 33
f 11 33 34
f 11 34 13
f 11 13 12
f 13 34 35
f 14 36 37
f 14 37 15
f 15 37 55
f 15 55 54
f 15 54 73
f 15 73 104
f 15 104 127
f 15 127 159
f 15 159 179
f 15 179 193
f 15 193 195
f 15 195 194
f 15 194 180
f 15 180 160
f 15 160 129
f 15 129 106
f 15 106 82
f 15 82 56
f 15 56 38
f 15 38 28
f 15 28 27
f 15 27 26
f 15 26 25
f 15 25 24
f 15 24 23
f 15 23 22
f 15 22 21
f 15 21 20
f 15 20 19
f 15 19 18
f 15 18 17
f 15 17 16
f 30 32 39
f 30 39 40
f 30 40 41
f 30 41 33
f 31 42 32
f 32 42 43
f 32 43 44
f 32 44 45
f 32 45 39
f 33 46 34
f 33 41 47
f 33 47 48
f 33 48 49
f 33 49 50
f 33 50 51
f 33 51 52
f 33 52 35
f 33 35 46
f 34 46 35
f 36 53 54
f 36 54 55
f 36 55 37
f 38 56 83
f 38 83 108
f 38 108 133
f 38 133 164
f 38 164 165
f 38 165 142
f 38 142 141
f 38 141 140
f 38 140 139
f 38 139 115
f 38 115 109
f 38 109 84
f 38 84 57
f 39 45 40
f 40 58 47
f 40 47 41
f 40 45 59
f 40 59 60
f 40 60 58
f 43 61 44
f 44 61 62
f 44 62 63
f 44 63 64
f 44 64 45
f 45 64 65
f 45 65 59
f 47 66 48
f 47 58 67
f 47 67 66
f 48 66 68
f 48 68 69
f 48 69 70
f 48 70 49
f 49 70 71
f 49 71 51
f 49 51 50
f 53 72 54
f 54 72 74
f 54 74 75
f 54 75 76
f 54 76 77
f 54 77 78
f 54 78 79
f 54 79 80
f 54 80 81
f 54 81 73
f 56 82 83
f 57 84 85
f 58 60 86
f 58 86 67
f 59 65 60
f 60 65 87
f 60 87 88
f 60 88 86
f 62 89 63
f 63 89 90
f 63 90 91
f 63 91 64
f 64 91 92
f 64 92 93
f 64 93 65
f 65 93 94
f 65 94 87
f 66 95 96
f 66 96 68
f 66 67 97
f 66 97 95
f 67 86 97
f 68 98 69
f 68 96 99
f 68 99 100
f 68 100 101
f 68 101 102
f 68 102 98
f 69 98 102
f 69 102 103
f 69 103 70
f 73 81 105
f 73 105 104
f 82 106 107
f 82 107 83
f 83 107 108
f 84 109 91
f 84 91 85
f 85 91 110
f 86 88 111
f 86 111 112
f 86 112 97
f 87 94 88
f 88 113 111
f 88 94 114
f 88 114 113
f 90 110 91
f 91 109 115
f 91 115 92
f 92 115 116
f 92 116 93
f 93 116 117
f 93 117 94
f 94 117 114
f 95 118 119
f 95 119 96
f 95 97 118
f 96 119 120
f 96 120 121
f 96 121 122
f 96 122 99
f 97 112 123
f 97 123 124
f 97 124 118
f 99 122 125
f 99 125 100
f 100 125 126
f 100 126 101
f 104 105 127
f 105 128 127
f 106 129 107
f 107 129 130
f 107 130 131
f 107 131 132
f 107 132 108
f 108 132 134
f 108 134 133
f 111 135 136
f 111 136 123
f 111 123 112
f 111 113 135
f 113 114 137
f 113 137 135
f 114 117 138
f 114 138 137
f 115 139 116
f 116 139 140
f 116 140 141
f 116 141 142
f 116 142 134
f 116 134 117
f 117 134 143
f 117 143 138
f 118 144 119
f 118 124 144
f 119 144 145
f 119 145 146
f 119 146 147
f 119 147 120
f 123 136 148
f 123 148 149
f 123 149 124
f 124 149 150
f 124 150 144
f 127 128 151
f 127 151 152
f 127 152 153
f 127 153 154
f 127 154 155
f 127 155 156
f 127 156 157
f 127 157 158
f 127 158 177
f 127 177 178
f 127 178 159
f 129 160 130
f 130 160 180
f 130 180 161
f 130 161 162
f 130 162 131
f 131 163 143
f 131 143 132
f 131 162 163
f 132 143 134
f 133 134 164
f 134 142 165
f 134 165 164
f 135 137 166
f 135 166 167
f 135 167 168
f 135 168 148
f 135 148 136
f 137 138 163
f 137 163 166
f 138 143 163
f 144 169 145
f 144 150 169
f 145 169 170
f 145 170 171
f 145 171 172
f 145 172 146
f 146 172 147
f 148 168 173
f 148 173 174
f 148 174 175
f 148 175 149
f 149 175 176
f 149 176 150
f 150 176 169
f 159 178 179
f 161 181 182
f 161 182 162
f 161 180 194
f 161 194 181
f 162 182 183
f 162 183 163
f 163 183 166
f 166 183 167
f 167 184 185
f 167 185 173
f 167 173 168
f 167 183 184
f 169 178 170
f 169 176 178
f 170 178 186
f 170 186 187
f 170 187 188
f 170 188 171
f 171 188 172
f 173 185 178
f 173 178 174
f 174 178 175
f 175 178 176
f 177 189 186
f 177 186 178
f 178 185 190
f 178 190 191
f 178 191 192
f 178 192 179
f 179 192 193
f 181 194 195
f 181 195 192
f 181 192 191
f 181 191 182
f 182 191 184
f 182 184 183
f 184 191 190
f 184 190 185
f 186 189 196
f 186 196 187
f 192 195 193