# https://github.com/mikedh/trimesh
v -0.00420667 0.01800396 -0.00859639 0.26274510 0.77254902 0.45490196
v -0.00420667 0.00782449 -0.00859639 0.26274510 0.77254902 0.45490196
v -0.00420667 0.01800396 -0.01514692 0.26274510 0.77254902 0.45490196
v -0.03146128 0.01800396 -0.00859639 0.26274510 0.77254902 0.45490196
v -0.00420667 0.00753327 -0.01498655 0.26274510 0.77254902 0.45490196
v -0.03146128 0.00782449 -0.00859639 0.26274510 0.77254902 0.45490196
v -0.00420667 0.01800293 -0.01515958 0.26274510 0.77254902 0.45490196
v -0.03146128 0.01800396 -0.01515705 0.26274510 0.77254902 0.45490196
v -0.00420667 0.00753019 -0.01505661 0.26274510 0.77254902 0.45490196
v -0.03146128 0.00753224 -0.01500934 0.26274510 0.77254902 0.45490196
v -0.00420667 0.01797217 -0.01549297 0.26274510 0.77254902 0.45490196
v -0.03146128 0.01797832 -0.01542629 0.26274510 0.77254902 0.45490196
v -0.01725366 0.01797524 -0.01546090 0.26274510 0.77254902 0.45490196
v -0.00420667 0.00753019 -0.01522372 0.26274510 0.77254902 0.45490196
v -0.03146128 0.00753019 -0.01505661 0.26274510 0.77254902 0.45490196
v -0.01777661 0.00752917 -0.01522372 0.26274510 0.77254902 0.45490196
v -0.00420667 0.01797012 -0.01550648 0.26274510 0.77254902 0.45490196
v -0.03146128 0.01797012 -0.01550648 0.26274510 0.77254902 0.45490196
v -0.00420667 0.00754352 -0.01539000 0.26274510 0.77254902 0.45490196
v -0.03146128 0.00753019 -0.01522372 0.26274510 0.77254902 0.45490196
v -0.01782730 0.00752917 -0.01522372 0.26274510 0.77254902 0.45490196
v -0.03146128 0.00754352 -0.01539084 0.26274510 0.77254902 0.45490196
v -0.00420667 0.01796704 -0.01551913 0.26274510 0.77254902 0.45490196
v -0.03146128 0.01796807 -0.01551660 0.26274510 0.77254902 0.45490196
v -0.01777661 0.00755685 -0.01547271 0.26274510 0.77254902 0.45490196
v -0.01777661 0.00757018 -0.01555458 0.26274510 0.77254902 0.45490196
v -0.00420667 0.00757121 -0.01555543 0.26274510 0.77254902 0.45490196
v -0.03146128 0.00757121 -0.01555627 0.26274510 0.77254902 0.45490196
v -0.01782730 0.00757018 -0.01555458 0.26274510 0.77254902 0.45490196
v -0.00420667 0.01788398 -0.01581623 0.26274510 0.77254902 0.45490196
v -0.01725366 0.01795884 -0.01554952 0.26274510 0.77254902 0.45490196
v -0.01777928 0.01788603 -0.01580948 0.26274510 0.77254902 0.45490196
v -0.03146128 0.01790654 -0.01573605 0.26274510 0.77254902 0.45490196
v -0.01777661 0.01788603 -0.01580948 0.26274510 0.77254902 0.45490196
v -0.00420667 0.00761223 -0.01571833 0.26274510 0.77254902 0.45490196
v -0.03146128 0.00761223 -0.01571917 0.26274510 0.77254902 0.45490196
v -0.00420667 0.01787680 -0.01584155 0.26274510 0.77254902 0.45490196
v -0.03146128 0.01787578 -0.01584409 0.26274510 0.77254902 0.45490196
v -0.01777661 0.00763889 -0.01579682 0.26274510 0.77254902 0.45490196
v -0.00420667 0.00766760 -0.01587700 0.26274510 0.77254902 0.45490196
v -0.03146128 0.00766760 -0.01587785 0.26274510 0.77254902 0.45490196
v -0.01782730 0.00766657 -0.01587616 0.26274510 0.77254902 0.45490196
v -0.01779795 0.00763889 -0.01579682 0.26274510 0.77254902 0.45490196
v -0.00420667 0.01787270 -0.01585506 0.26274510 0.77254902 0.45490196
v -0.01777928 0.01787270 -0.01585506 0.26274510 0.77254902 0.45490196
v -0.03146128 0.01786860 -0.01586434 0.26274510 0.77254902 0.45490196
v -0.01777661 0.00766657 -0.01587616 0.26274510 0.77254902 0.45490196
v -0.00420667 0.00773425 -0.01602977 0.26274510 0.77254902 0.45490196
v -0.03146128 0.00773425 -0.01602977 0.26274510 0.77254902 0.45490196
v -0.00420667 0.01786757 -0.01586688 0.26274510 0.77254902 0.45490196
v -0.03146128 0.01775888 -0.01609054 0.26274510 0.77254902 0.45490196
v -0.01777928 0.01785424 -0.01589473 0.26274510 0.77254902 0.45490196
v -0.00420667 0.00781526 -0.01617748 0.26274510 0.77254902 0.45490196
v -0.03146128 0.00781629 -0.01618001 0.26274510 0.77254902 0.45490196
v -0.00420667 0.01779989 -0.01600614 0.26274510 0.77254902 0.45490196
v -0.01777661 0.01785424 -0.01589473 0.26274510 0.77254902 0.45490196
v -0.03146128 0.01771889 -0.01617157 0.26274510 0.77254902 0.45490196
v -0.01725366 0.01773427 -0.01614119 0.26274510 0.77254902 0.45490196
v -0.01777661 0.00786141 -0.01624838 0.26274510 0.77254902 0.45490196
v -0.01777661 0.00790755 -0.01631843 0.26274510 0.77254902 0.45490196
v -0.00420667 0.00791575 -0.01632772 0.26274510 0.77254902 0.45490196
v -0.03146128 0.00790653 -0.01631674 0.26274510 0.77254902 0.45490196
v -0.01777928 0.00790755 -0.01631843 0.26274510 0.77254902 0.45490196
v -0.00420667 0.01771991 -0.01616988 0.26274510 0.77254902 0.45490196
v -0.03146128 0.01770761 -0.01619014 0.26274510 0.77254902 0.45490196
v -0.01777928 0.01771376 -0.01618170 0.26274510 0.77254902 0.45490196
v -0.01777661 0.00812699 -0.01657755 0.26274510 0.77254902 0.45490196
v -0.00420667 0.00812802 -0.01657839 0.26274510 0.77254902 0.45490196
v -0.03146128 0.00812289 -0.01657164 0.26274510 0.77254902 0.45490196
v -0.01777928 0.00812699 -0.01657755 0.26274510 0.77254902 0.45490196
v -0.00420667 0.01771376 -0.01618170 0.26274510 0.77254902 0.45490196
v -0.03146128 0.01766659 -0.01624669 0.26274510 0.77254902 0.45490196
v -0.00420667 0.01770658 -0.01619267 0.26274510 0.77254902 0.45490196
v -0.01777928 0.01768812 -0.01621799 0.26274510 0.77254902 0.45490196
v -0.00420667 0.00814032 -0.01658937 0.26274510 0.77254902 0.45490196
v -0.03146128 0.00813417 -0.01658346 0.26274510 0.77254902 0.45490196
v -0.03146128 0.01750457 -0.01646867 0.26274510 0.77254902 0.45490196
v -0.00420667 0.01758250 -0.01636232 0.26274510 0.77254902 0.45490196
v -0.01777661 0.01768812 -0.01621799 0.26274510 0.77254902 0.45490196
v -0.01725366 0.01752508 -0.01644082 0.26274510 0.77254902 0.45490196
v -0.00420667 0.00838848 -0.01680037 0.26274510 0.77254902 0.45490196
v -0.01777928 0.00838745 -0.01679953 0.26274510 0.77254902 0.45490196
v -0.01777661 0.00838745 -0.01679953 0.26274510 0.77254902 0.45490196
v -0.03146128 0.00838027 -0.01679278 0.26274510 0.77254902 0.45490196
v -0.03146128 0.01749021 -0.01648471 0.26274510 0.77254902 0.45490196
v -0.01777928 0.01749842 -0.01647711 0.26274510 0.77254902 0.45490196
v -0.00420667 0.01749842 -0.01647711 0.26274510 0.77254902 0.45490196
v -0.01725366 0.01757943 -0.01636654 0.26274510 0.77254902 0.45490196
v -0.00420667 0.00839771 -0.01680628 0.26274510 0.77254902 0.45490196
v -0.01782730 0.00838848 -0.01680037 0.26274510 0.77254902 0.45490196
v -0.03146128 0.00839771 -0.01680628 0.26274510 0.77254902 0.45490196
v -0.03146128 0.01743997 -0.01653366 0.26274510 0.77254902 0.45490196
v -0.00420667 0.01723180 -0.01673285 0.26274510 0.77254902 0.45490196
v -0.01777661 0.00868175 -0.01697846 0.26274510 0.77254902 0.45490196
v -0.00420667 0.00868278 -0.01697846 0.26274510 0.77254902 0.45490196
v -0.01797939 0.00853511 -0.01688984 0.26274510 0.77254902 0.45490196
v -0.03146128 0.00868278 -0.01697846 0.26274510 0.77254902 0.45490196
v -0.01777928 0.00868175 -0.01697846 0.26274510 0.77254902 0.45490196
v -0.03146128 0.01724001 -0.01672441 0.26274510 0.77254902 0.45490196
v -0.01777928 0.01723180 -0.01673285 0.26274510 0.77254902 0.45490196
v -0.00420667 0.01719797 -0.01675564 0.26274510 0.77254902 0.45490196
v -0.00420667 0.00869611 -0.01698437 0.26274510 0.77254902 0.45490196
v -0.03146128 0.00869611 -0.01698437 0.26274510 0.77254902 0.45490196
v -0.03146128 0.01722258 -0.01673876 0.26274510 0.77254902 0.45490196
v -0.03146128 0.01699185 -0.01689406 0.26274510 0.77254902 0.45490196
v -0.00420667 0.01692315 -0.01693964 0.26274510 0.77254902 0.45490196
v -0.00420667 0.00871046 -0.01699028 0.26274510 0.77254902 0.45490196
v -0.03146128 0.00900271 -0.01711013 0.26274510 0.77254902 0.45490196
v -0.03146128 0.01693238 -0.01693289 0.26274510 0.77254902 0.45490196
v -0.01777928 0.01692315 -0.01693964 0.26274510 0.77254902 0.45490196
v -0.00420667 0.01691084 -0.01694555 0.26274510 0.77254902 0.45490196
v -0.00420667 0.00900271 -0.01711013 0.26274510 0.77254902 0.45490196
v -0.03146128 0.00931957 -0.01718525 0.26274510 0.77254902 0.45490196
v -0.01777928 0.00916986 -0.01714980 0.26274510 0.77254902 0.45490196
v -0.03146128 0.01691290 -0.01694386 0.26274510 0.77254902 0.45490196
v -0.03146128 0.01684829 -0.01697340 0.26274510 0.77254902 0.45490196
v -0.00420667 0.01676523 -0.01701054 0.26274510 0.77254902 0.45490196
v -0.03146128 0.01665756 -0.01705865 0.26274510 0.77254902 0.45490196
v -0.01777661 0.00916986 -0.01714980 0.26274510 0.77254902 0.45490196
v -0.00420667 0.00934110 -0.01719032 0.26274510 0.77254902 0.45490196
v -0.03146128 0.00934110 -0.01719032 0.26274510 0.77254902 0.45490196
v -0.00420667 0.01658168 -0.01709241 0.26274510 0.77254902 0.45490196
v -0.03146128 0.01658168 -0.01709241 0.26274510 0.77254902 0.45490196
v -0.00420667 0.00936264 -0.01719200 0.26274510 0.77254902 0.45490196
v -0.01782730 0.00968873 -0.01721817 0.26274510 0.77254902 0.45490196
v -0.03146128 0.00968873 -0.01721817 0.26274510 0.77254902 0.45490196
v -0.00420667 0.01644017 -0.01712870 0.26274510 0.77254902 0.45490196
v -0.01725366 0.01635506 -0.01715065 0.26274510 0.77254902 0.45490196
v -0.03146128 0.01634173 -0.01715402 0.26274510 0.77254902 0.45490196
v -0.00420667 0.00968873 -0.01721733 0.26274510 0.77254902 0.45490196
v -0.00420667 0.00989176 -0.01721817 0.26274510 0.77254902 0.45490196
v -0.03146128 0.01584337 -0.01721817 0.26274510 0.77254902 0.45490196
v -0.00420667 0.01625867 -0.01717512 0.26274510 0.77254902 0.45490196
v -0.03146128 0.01622893 -0.01718272 0.26274510 0.77254902 0.45490196
v -0.03146128 0.01629866 -0.01716500 0.26274510 0.77254902 0.45490196
v -0.00420667 0.01584337 -0.01721817 0.26274510 0.77254902 0.45490196
v -0.03146128 0.01611408 -0.01719454 0.26274510 0.77254902 0.45490196
v -0.00420667 0.01620432 -0.01718694 0.26274510 0.77254902 0.45490196
v -0.00420667 0.01621868 -0.01718525 0.26274510 0.77254902 0.45490196
v -0.03146128 0.01621868 -0.01718525 0.26274510 0.77254902 0.45490196
f 1 2 5
f 1 5 9
f 1 9 14
f 1 14 19
f 1 19 27
f 1 27 35
f 1 35 40
f 1 40 48
f 1 48 53
f 1 53 61
f 1 61 68
f 1 68 75
f 1 75 81
f 1 81 89
f 1 89 95
f 1 95 102
f 1 102 107
f 1 107 112
f 1 112 120
f 1 120 124
f 1 124 130
f 1 130 131
f 1 131 136
f 1 136 138
f 1 138 139
f 1 139 133
f 1 133 127
f 1 127 122
f 1 122 117
f 1 117 111
f 1 111 106
f 1 106 101
f 1 101 93
f 1 93 87
f 1 87 78
f 1 78 73
f 1 73 71
f 1 71 64
f 1 64 55
f 1 55 50
f 1 50 44
f 1 44 37
f 1 37 30
f 1 30 23
f 1 23 17
f 1 17 11
f 1 11 7
f 1 7 3
f 1 3 8
f 1 8 4
f 1 4 6
f 1 6 2
f 2 6 5
f 3 7 8
f 4 8 12
f 4 12 18
f 4 18 24
f 4 24 33
f 4 33 38
f 4 38 46
f 4 46 51
f 4 51 57
f 4 57 65
f 4 65 72
f 4 72 77
f 4 77 85
f 4 85 92
f 4 92 99
f 4 99 104
f 4 104 105
f 4 105 109
f 4 109 115
f 4 115 116
f 4 116 118
f 4 118 123
f 4 123 129
f 4 129 135
f 4 135 134
f 4 134 140
f 4 140 137
f 4 137 132
f 4 132 126
f 4 126 121
f 4 121 113
f 4 113 108
f 4 108 103
f 4 103 97
f 4 97 91
f 4 91 84
f 4 84 76
f 4 76 69
f 4 69 62
f 4 62 54
f 4 54 49
f 4 49 41
f 4 41 36
f 4 36 28
f 4 28 22
f 4 22 20
f 4 20 15
f 4 15 10
f 4 10 6
f 5 6 10
f 5 10 9
f 7 11 8
f 8 11 13
f 8 13 12
f 9 10 15
f 9 15 21
f 9 21 16
f 9 16 14
f 11 17 18
f 11 18 13
f 12 13 18
f 14 16 19
f 15 20 21
f 16 21 22
f 16 22 19
f 17 23 24
f 17 24 18
f 19 25 26
f 19 26 27
f 19 22 25
f 20 22 21
f 22 28 29
f 22 29 26
f 22 26 25
f 23 30 31
f 23 31 24
f 24 32 33
f 24 31 34
f 24 34 32
f 26 35 27
f 26 29 36
f 26 36 35
f 28 36 29
f 30 37 34
f 30 34 31
f 32 38 33
f 32 34 37
f 32 37 38
f 35 39 47
f 35 47 40
f 35 36 39
f 36 41 42
f 36 42 43
f 36 43 39
f 37 44 45
f 37 45 38
f 38 45 46
f 39 43 42
f 39 42 47
f 40 47 48
f 41 49 42
f 42 49 48
f 42 48 47
f 44 50 45
f 45 50 46
f 46 50 52
f 46 52 51
f 48 49 54
f 48 54 53
f 50 55 56
f 50 56 52
f 51 52 58
f 51 58 57
f 52 56 58
f 53 59 60
f 53 60 61
f 53 54 59
f 54 62 63
f 54 63 60
f 54 60 59
f 55 64 58
f 55 58 56
f 57 58 64
f 57 64 66
f 57 66 65
f 60 63 70
f 60 70 67
f 60 67 68
f 60 68 61
f 62 69 70
f 62 70 63
f 64 71 66
f 65 66 73
f 65 73 74
f 65 74 72
f 66 71 73
f 67 75 68
f 67 70 75
f 69 76 70
f 70 76 75
f 72 74 77
f 73 78 79
f 73 79 74
f 74 79 88
f 74 88 80
f 74 80 77
f 75 76 82
f 75 82 83
f 75 83 81
f 76 84 82
f 77 80 86
f 77 86 85
f 78 87 80
f 78 80 88
f 78 88 79
f 80 87 86
f 81 83 82
f 81 82 90
f 81 90 91
f 81 91 89
f 82 84 90
f 84 91 90
f 85 86 92
f 86 87 92
f 87 93 92
f 89 94 95
f 89 91 96
f 89 96 94
f 91 97 98
f 91 98 96
f 92 93 100
f 92 100 99
f 93 101 100
f 94 102 95
f 94 96 98
f 94 98 103
f 94 103 107
f 94 107 102
f 97 103 98
f 99 100 104
f 100 105 104
f 100 101 105
f 101 106 105
f 103 108 107
f 105 106 110
f 105 110 109
f 106 111 110
f 107 108 112
f 108 113 114
f 108 114 119
f 108 119 112
f 109 110 115
f 110 116 115
f 110 111 116
f 111 117 118
f 111 118 116
f 112 119 120
f 113 121 120
f 113 120 119
f 113 119 114
f 117 122 118
f 118 122 123
f 120 121 126
f 120 126 125
f 120 125 124
f 122 127 128
f 122 128 123
f 123 128 129
f 124 125 130
f 125 126 132
f 125 132 136
f 125 136 131
f 125 131 130
f 127 133 128
f 128 133 134
f 128 134 135
f 128 135 129
f 132 137 138
f 132 138 136
f 133 139 134
f 134 139 140
f 137 140 138
f 138 140 139