# https://github.com/mikedh/trimesh
v 0.07750148 0.01440082 -0.00858692 0.43529412 0.89019608 0.96078431
v 0.07750148 0.00005639 -0.00858800 0.43529412 0.89019608 0.96078431
v 0.07750148 0.01439800 0.00247259 0.43529412 0.89019608 0.96078431
v 0.09538159 0.01366217 0.00247259 0.43529412 0.89019608 0.96078431
v 0.11333614 0.01292070 0.00247259 0.43529412 0.89019608 0.96078431
v 0.11333614 0.01292070 -0.00717078 0.43529412 0.89019608 0.96078431
v 0.07750148 -0.01440082 -0.00858800 0.43529412 0.89019608 0.96078431
v 0.07750148 -0.01440082 0.00247259 0.43529412 0.89019608 0.96078431
v 0.11346641 0.01290943 0.00247259 0.43529412 0.89019608 0.96078431
v 0.11333614 -0.01292070 -0.00717078 0.43529412 0.89019608 0.96078431
v 0.11352968 0.01290379 -0.00715563 0.43529412 0.89019608 0.96078431
v 0.11333614 -0.01292070 0.00247259 0.43529412 0.89019608 0.96078431
v 0.11352968 0.01290379 0.00247259 0.43529412 0.89019608 0.96078431
v 0.11346641 -0.01290943 0.00247259 0.43529412 0.89019608 0.96078431
v 0.11352968 -0.01290379 -0.00715563 0.43529412 0.89019608 0.96078431
v 0.11365623 0.01288405 0.00247259 0.43529412 0.89019608 0.96078431
v 0.11371950 0.01287278 -0.00712531 0.43529412 0.89019608 0.96078431
v 0.11362645 -0.00001410 -0.00714047 0.43529412 0.89019608 0.96078431
v 0.11352968 -0.01290379 0.00247259 0.43529412 0.89019608 0.96078431
v 0.11371950 -0.01287278 -0.00712531 0.43529412 0.89019608 0.96078431
v 0.11365623 -0.01288405 0.00247259 0.43529412 0.89019608 0.96078431
v 0.11371950 0.01287278 0.00247259 0.43529412 0.89019608 0.96078431
v 0.11378277 0.01285868 0.00247259 0.43529412 0.89019608 0.96078431
v 0.11390932 0.01282767 -0.00708092 0.43529412 0.89019608 0.96078431
v 0.11371950 -0.01287278 0.00247259 0.43529412 0.89019608 0.96078431
v 0.11390932 -0.01282767 -0.00708092 0.43529412 0.89019608 0.96078431
v 0.11378277 -0.01285868 0.00247259 0.43529412 0.89019608 0.96078431
v 0.11390932 0.01282767 0.00247259 0.43529412 0.89019608 0.96078431
v 0.11396887 0.01280793 0.00247259 0.43529412 0.89019608 0.96078431
v 0.11409169 0.01276564 -0.00702246 0.43529412 0.89019608 0.96078431
v 0.11409169 -0.01276564 -0.00702246 0.43529412 0.89019608 0.96078431
v 0.11396887 -0.01280793 0.00247259 0.43529412 0.89019608 0.96078431
v 0.11390932 -0.01282767 0.00247259 0.43529412 0.89019608 0.96078431
v 0.11409169 0.01276564 0.00247259 0.43529412 0.89019608 0.96078431
v 0.11418102 -0.00003665 -0.00698565 0.43529412 0.89019608 0.96078431
v 0.11426662 0.01268953 -0.00694992 0.43529412 0.89019608 0.96078431
v 0.11426662 -0.01268953 -0.00694992 0.43529412 0.89019608 0.96078431
v 0.11409169 -0.01276564 0.00247259 0.43529412 0.89019608 0.96078431
v 0.11426662 0.01268953 0.00247259 0.43529412 0.89019608 0.96078431
v 0.11432245 0.01266133 0.00247259 0.43529412 0.89019608 0.96078431
v 0.11443783 0.01260213 -0.00686439 0.43529412 0.89019608 0.96078431
v 0.11426662 -0.01268953 0.00247259 0.43529412 0.89019608 0.96078431
v 0.11443783 -0.01260213 -0.00686439 0.43529412 0.89019608 0.96078431
v 0.11432245 -0.01266133 0.00247259 0.43529412 0.89019608 0.96078431
v 0.11443783 0.01260213 0.00247259 0.43529412 0.89019608 0.96078431
v 0.11459787 0.01249781 -0.00676586 0.43529412 0.89019608 0.96078431
v 0.11459787 -0.01249781 -0.00676586 0.43529412 0.89019608 0.96078431
v 0.11443783 -0.01260213 0.00247259 0.43529412 0.89019608 0.96078431
v 0.11459787 0.01249781 0.00247259 0.43529412 0.89019608 0.96078431
v 0.11464626 0.01246116 0.00247259 0.43529412 0.89019608 0.96078431
v 0.11474675 0.01238222 -0.00665543 0.43529412 0.89019608 0.96078431
v 0.11474675 -0.01238222 -0.00665543 0.43529412 0.89019608 0.96078431
v 0.11470208 -0.01241888 0.00247259 0.43529412 0.89019608 0.96078431
v 0.11459787 -0.01249781 0.00247259 0.43529412 0.89019608 0.96078431
v 0.11474675 0.01238222 0.00247259 0.43529412 0.89019608 0.96078431
v 0.11493284 0.01219897 0.00247259 0.43529412 0.89019608 0.96078431
v 0.11501473 0.01211721 -0.00640208 0.43529412 0.89019608 0.96078431
v 0.11501473 -0.01211721 -0.00640208 0.43529412 0.89019608 0.96078431
v 0.11483607 -0.01229765 0.00247259 0.43529412 0.89019608 0.96078431
v 0.11474675 -0.01238222 0.00247259 0.43529412 0.89019608 0.96078431
v 0.11501473 0.01211721 0.00247259 0.43529412 0.89019608 0.96078431
v 0.11523432 0.01181555 -0.00611085 0.43529412 0.89019608 0.96078431
v 0.11523432 -0.01181555 -0.00611085 0.43529412 0.89019608 0.96078431
v 0.11508544 -0.01202136 0.00247259 0.43529412 0.89019608 0.96078431
v 0.11501473 -0.01211721 0.00247259 0.43529412 0.89019608 0.96078431
v 0.11523432 0.01181555 0.00247259 0.43529412 0.89019608 0.96078431
v 0.11539064 0.01148006 -0.00579146 0.43529412 0.89019608 0.96078431
v 0.11539064 -0.01148006 -0.00579146 0.43529412 0.89019608 0.96078431
v 0.11523432 -0.01181555 0.00247259 0.43529412 0.89019608 0.96078431
v 0.11539064 0.01148006 0.00247259 0.43529412 0.89019608 0.96078431
v 0.11546508 0.01122351 0.00247259 0.43529412 0.89019608 0.96078431
v 0.11549113 0.01112765 -0.00545150 0.43529412 0.89019608 0.96078431
v 0.11544275 -0.00017479 -0.00562148 0.43529412 0.89019608 0.96078431
v 0.11549113 -0.01112765 -0.00545150 0.43529412 0.89019608 0.96078431
v 0.11542041 -0.01137575 0.00247259 0.43529412 0.89019608 0.96078431
v 0.11539064 -0.01148006 0.00247259 0.43529412 0.89019608 0.96078431
v 0.11549113 0.01112765 0.00247259 0.43529412 0.89019608 0.96078431
v 0.11552463 0.01076115 -0.00510179 0.43529412 0.89019608 0.96078431
v 0.11549113 -0.01112765 0.00247259 0.43529412 0.89019608 0.96078431
v 0.11552463 -0.01076115 -0.00510179 0.43529412 0.89019608 0.96078431
v 0.11552463 0.01076115 0.00247259 0.43529412 0.89019608 0.96078431
v 0.11552463 -0.01076115 0.00247259 0.43529412 0.89019608 0.96078431
f 1 2 7
f 1 7 8
f 1 8 3
f 1 3 4
f 1 4 5
f 1 5 6
f 1 6 2
f 2 6 10
f 2 10 7
f 3 8 12
f 3 12 14
f 3 14 19
f 3 19 21
f 3 21 25
f 3 25 27
f 3 27 33
f 3 33 32
f 3 32 38
f 3 38 42
f 3 42 44
f 3 44 48
f 3 48 54
f 3 54 53
f 3 53 60
f 3 60 59
f 3 59 65
f 3 65 64
f 3 64 69
f 3 69 76
f 3 76 75
f 3 75 79
f 3 79 82
f 3 82 81
f 3 81 77
f 3 77 71
f 3 71 70
f 3 70 66
f 3 66 61
f 3 61 56
f 3 56 55
f 3 55 50
f 3 50 49
f 3 49 45
f 3 45 40
f 3 40 39
f 3 39 34
f 3 34 29
f 3 29 28
f 3 28 23
f 3 23 22
f 3 22 16
f 3 16 13
f 3 13 9
f 3 9 5
f 3 5 4
f 5 9 6
f 6 9 11
f 6 11 15
f 6 15 10
f 7 10 12
f 7 12 8
f 9 13 11
f 10 14 12
f 10 15 14
f 11 13 16
f 11 16 17
f 11 17 18
f 11 18 15
f 14 15 19
f 15 18 20
f 15 20 21
f 15 21 19
f 16 22 17
f 17 20 18
f 17 22 23
f 17 23 24
f 17 24 26
f 17 26 20
f 20 25 21
f 20 26 27
f 20 27 25
f 23 28 24
f 24 28 29
f 24 29 30
f 24 30 31
f 24 31 26
f 26 31 32
f 26 32 33
f 26 33 27
f 29 34 30
f 30 35 31
f 30 34 39
f 30 39 36
f 30 36 35
f 31 35 37
f 31 37 42
f 31 42 38
f 31 38 32
f 35 36 37
f 36 39 40
f 36 40 41
f 36 41 43
f 36 43 37
f 37 43 44
f 37 44 42
f 40 45 41
f 41 45 49
f 41 49 46
f 41 46 47
f 41 47 43
f 43 47 54
f 43 54 48
f 43 48 44
f 46 49 50
f 46 50 51
f 46 51 52
f 46 52 47
f 47 52 53
f 47 53 54
f 50 55 51
f 51 55 56
f 51 56 57
f 51 57 58
f 51 58 52
f 52 58 59
f 52 59 60
f 52 60 53
f 56 61 57
f 57 61 66
f 57 66 62
f 57 62 63
f 57 63 58
f 58 63 64
f 58 64 65
f 58 65 59
f 62 66 70
f 62 70 67
f 62 67 68
f 62 68 63
f 63 68 76
f 63 76 69
f 63 69 64
f 67 70 71
f 67 71 72
f 67 72 73
f 67 73 68
f 68 73 74
f 68 74 75
f 68 75 76
f 71 77 72
f 72 74 73
f 72 77 81
f 72 81 78
f 72 78 80
f 72 80 74
f 74 79 75
f 74 80 82
f 74 82 79
f 78 81 82
f 78 82 80