# https://github.com/mikedh/trimesh
v -0.07456943 0.00777860 -0.00859470 0.61176471 0.61568627 0.94117647
v -0.07456943 0.00777860 0.00247259 0.61176471 0.61568627 0.94117647
v -0.07456943 0.01705101 -0.00859470 0.61176471 0.61568627 0.94117647
v -0.03180573 0.00777860 -0.00859470 0.61176471 0.61568627 0.94117647
v -0.07456943 0.01705101 0.00247259 0.61176471 0.61568627 0.94117647
v -0.03234158 0.00777860 0.00247259 0.61176471 0.61568627 0.94117647
v -0.07443546 0.01723120 -0.00859470 0.61176471 0.61568627 0.94117647
v 0.07180656 0.00781064 -0.00859470 0.61176471 0.61568627 0.94117647
v 0.07741808 0.00781064 -0.00859145 0.61176471 0.61568627 0.94117647
v 0.07746274 0.00781064 -0.00858929 0.61176471 0.61568627 0.94117647
v 0.07749250 0.00781064 -0.00858712 0.61176471 0.61568627 0.94117647
v 0.07749250 0.00781064 0.00247259 0.61176471 0.61568627 0.94117647
v -0.07443546 0.01723120 0.00247259 0.61176471 0.61568627 0.94117647
v -0.07431638 0.01734431 0.00247259 0.61176471 0.61568627 0.94117647
v -0.07415265 0.01749947 -0.00859470 0.61176471 0.61568627 0.94117647
v 0.07741808 0.01439532 -0.00859470 0.61176471 0.61568627 0.94117647
v 0.07749250 0.01440032 -0.00858712 0.61176471 0.61568627 0.94117647
v 0.07749250 0.01440032 0.00247259 0.61176471 0.61568627 0.94117647
v -0.07415265 0.01749947 0.00247259 0.61176471 0.61568627 0.94117647
v -0.07401869 0.01758956 0.00247259 0.61176471 0.61568627 0.94117647
v -0.07389961 0.01766864 -0.00859470 0.61176471 0.61568627 0.94117647
v 0.07741808 0.01584279 -0.00859470 0.61176471 0.61568627 0.94117647
v 0.07741808 0.01584279 0.00247259 0.61176471 0.61568627 0.94117647
v -0.07382519 0.01771469 0.00247259 0.61176471 0.61568627 0.94117647
v -0.07382519 0.01771469 -0.00859470 0.61176471 0.61568627 0.94117647
v 0.07738832 0.01613709 -0.00859470 0.61176471 0.61568627 0.94117647
v 0.07737343 0.01621817 0.00247259 0.61176471 0.61568627 0.94117647
v -0.07346795 0.01787385 0.00247259 0.61176471 0.61568627 0.94117647
v -0.07375076 0.01774872 -0.00859470 0.61176471 0.61568627 0.94117647
v 0.07737343 0.01621817 -0.00859470 0.61176471 0.61568627 0.94117647
v 0.07735854 0.01629725 -0.00859470 0.61176471 0.61568627 0.94117647
v 0.07728412 0.01658254 0.00247259 0.61176471 0.61568627 0.94117647
v -0.07346795 0.01787385 -0.00859470 0.61176471 0.61568627 0.94117647
v -0.07308095 0.01797195 0.00247259 0.61176471 0.61568627 0.94117647
v 0.07728412 0.01658254 -0.00859470 0.61176471 0.61568627 0.94117647
v 0.07710551 0.01692388 0.00247259 0.61176471 0.61568627 0.94117647
v -0.07308095 0.01797195 -0.00859470 0.61176471 0.61568627 0.94117647
v -0.07267907 0.01800498 0.00247259 0.61176471 0.61568627 0.94117647
v 0.07710551 0.01692388 -0.00859470 0.61176471 0.61568627 0.94117647
v 0.07688224 0.01723220 0.00247259 0.61176471 0.61568627 0.94117647
v -0.07267907 0.01800498 -0.00859470 0.61176471 0.61568627 0.94117647
v 0.07512584 0.01800498 0.00247259 0.61176471 0.61568627 0.94117647
v 0.07688224 0.01723220 -0.00859470 0.61176471 0.61568627 0.94117647
v 0.07682269 0.01729025 -0.00859470 0.61176471 0.61568627 0.94117647
v 0.07659943 0.01749847 0.00247259 0.61176471 0.61568627 0.94117647
v 0.07512584 0.01800498 -0.00859470 0.61176471 0.61568627 0.94117647
v 0.07552772 0.01797195 0.00247259 0.61176471 0.61568627 0.94117647
v 0.07659943 0.01749847 -0.00859470 0.61176471 0.61568627 0.94117647
v 0.07646546 0.01758956 0.00247259 0.61176471 0.61568627 0.94117647
v 0.07552772 0.01797195 -0.00859470 0.61176471 0.61568627 0.94117647
v 0.07589984 0.01787385 0.00247259 0.61176471 0.61568627 0.94117647
v 0.07572123 0.01792290 0.00003510 0.61176471 0.61568627 0.94117647
v 0.07561703 0.01795092 -0.00859470 0.61176471 0.61568627 0.94117647
v 0.07627197 0.01771369 -0.00859470 0.61176471 0.61568627 0.94117647
v 0.07627197 0.01771369 0.00247259 0.61176471 0.61568627 0.94117647
v 0.07598915 0.01783981 -0.00859470 0.61176471 0.61568627 0.94117647
v 0.07589984 0.01787385 -0.00859470 0.61176471 0.61568627 0.94117647
v 0.07612311 0.01778075 0.00247259 0.61176471 0.61568627 0.94117647
f 1 2 5
f 1 5 3
f 1 3 7
f 1 7 15
f 1 15 21
f 1 21 25
f 1 25 29
f 1 29 33
f 1 33 37
f 1 37 41
f 1 41 46
f 1 46 50
f 1 50 53
f 1 53 57
f 1 57 56
f 1 56 54
f 1 54 48
f 1 48 44
f 1 44 43
f 1 43 39
f 1 39 35
f 1 35 31
f 1 31 30
f 1 30 26
f 1 26 22
f 1 22 16
f 1 16 8
f 1 8 4
f 1 4 6
f 1 6 2
f 2 6 12
f 2 12 18
f 2 18 23
f 2 23 27
f 2 27 32
f 2 32 36
f 2 36 40
f 2 40 45
f 2 45 49
f 2 49 55
f 2 55 58
f 2 58 51
f 2 51 47
f 2 47 42
f 2 42 38
f 2 38 34
f 2 34 28
f 2 28 24
f 2 24 20
f 2 20 19
f 2 19 14
f 2 14 13
f 2 13 5
f 3 5 13
f 3 13 7
f 4 8 9
f 4 9 10
f 4 10 11
f 4 11 12
f 4 12 6
f 7 13 14
f 7 14 15
f 8 16 9
f 9 16 10
f 10 16 11
f 11 16 22
f 11 22 17
f 11 17 18
f 11 18 12
f 14 19 15
f 15 19 20
f 15 20 21
f 17 22 23
f 17 23 18
f 20 24 21
f 21 24 25
f 22 26 23
f 23 26 27
f 24 28 29
f 24 29 25
f 26 30 27
f 27 30 31
f 27 31 32
f 28 33 29
f 28 34 37
f 28 37 33
f 31 35 32
f 32 35 39
f 32 39 36
f 34 38 41
f 34 41 37
f 36 39 43
f 36 43 40
f 38 42 46
f 38 46 41
f 40 43 44
f 40 44 45
f 42 47 50
f 42 50 46
f 44 48 45
f 45 48 49
f 47 51 52
f 47 52 53
f 47 53 50
f 48 54 49
f 49 54 55
f 51 56 57
f 51 57 52
f 51 58 56
f 52 57 53
f 54 58 55
f 54 56 58