# https://github.com/mikedh/trimesh
v 0.07513145 0.01800498 -0.00859555 0.56470588 0.92549020 0.07058824
v 0.07553096 0.01796973 -0.00859555 0.56470588 0.92549020 0.07058824
v 0.07513145 0.01800498 -0.01514756 0.56470588 0.92549020 0.07058824
v -0.00420400 0.01800498 -0.00859555 0.56470588 0.92549020 0.07058824
v 0.07553096 0.01796973 -0.01514756 0.56470588 0.92549020 0.07058824
v 0.07583460 0.01789571 -0.00859555 0.56470588 0.92549020 0.07058824
v 0.07553096 0.01793801 -0.01550124 0.56470588 0.92549020 0.07058824
v 0.07513145 0.01796973 -0.01550715 0.56470588 0.92549020 0.07058824
v 0.03817642 0.01798031 -0.01541683 0.56470588 0.92549020 0.07058824
v -0.00420400 0.01798736 -0.01534002 0.56470588 0.92549020 0.07058824
v -0.00420400 0.01800498 -0.01514756 0.56470588 0.92549020 0.07058824
v -0.00420400 -0.01800498 -0.00859555 0.56470588 0.92549020 0.07058824
v 0.07591450 0.01787456 -0.01514756 0.56470588 0.92549020 0.07058824
v 0.07591450 0.01787456 -0.00859555 0.56470588 0.92549020 0.07058824
v 0.07553096 0.01784284 -0.01584480 0.56470588 0.92549020 0.07058824
v 0.07513145 0.01787456 -0.01585577 0.56470588 0.92549020 0.07058824
v 0.07591450 0.01784284 -0.01548520 0.56470588 0.92549020 0.07058824
v 0.05665793 0.01795916 -0.01555020 0.56470588 0.92549020 0.07058824
v -0.00420400 0.01797326 -0.01549364 0.56470588 0.92549020 0.07058824
v 0.07513145 -0.01800498 -0.00859555 0.56470588 0.92549020 0.07058824
v -0.00420400 -0.01800498 -0.01514756 0.56470588 0.92549020 0.07058824
v 0.07620215 0.01774767 -0.00859555 0.56470588 0.92549020 0.07058824
v 0.07627406 0.01771242 -0.01514756 0.56470588 0.92549020 0.07058824
v 0.07627406 0.01768422 -0.01545819 0.56470588 0.92549020 0.07058824
v 0.07553096 0.01768422 -0.01616640 0.56470588 0.92549020 0.07058824
v 0.07591450 0.01775119 -0.01581272 0.56470588 0.92549020 0.07058824
v 0.07513145 0.01771242 -0.01618244 0.56470588 0.92549020 0.07058824
v 0.05665793 0.01773357 -0.01614192 0.56470588 0.92549020 0.07058824
v 0.03817642 0.01775472 -0.01610056 0.56470588 0.92549020 0.07058824
v -0.00420400 0.01787456 -0.01585577 0.56470588 0.92549020 0.07058824
v 0.01971089 0.01795916 -0.01555020 0.56470588 0.92549020 0.07058824
v -0.00420400 0.01796973 -0.01550715 0.56470588 0.92549020 0.07058824
v 0.07513145 -0.01800498 -0.01514756 0.56470588 0.92549020 0.07058824
v 0.07553096 -0.01796973 -0.00859555 0.56470588 0.92549020 0.07058824
v -0.00420400 -0.01798736 -0.01534002 0.56470588 0.92549020 0.07058824
v 0.07627406 0.01771242 -0.00859555 0.56470588 0.92549020 0.07058824
v 0.07634597 0.01766659 -0.00859555 0.56470588 0.92549020 0.07058824
v 0.07660166 0.01749740 -0.01514756 0.56470588 0.92549020 0.07058824
v 0.07660166 0.01747273 -0.01542274 0.56470588 0.92549020 0.07058824
v 0.07627406 0.01759962 -0.01576039 0.56470588 0.92549020 0.07058824
v 0.07660166 0.01739870 -0.01568948 0.56470588 0.92549020 0.07058824
v 0.07553096 0.01747273 -0.01645762 0.56470588 0.92549020 0.07058824
v 0.07591450 0.01759962 -0.01611998 0.56470588 0.92549020 0.07058824
v 0.07591450 0.01739870 -0.01639769 0.56470588 0.92549020 0.07058824
v 0.07627406 0.01746215 -0.01604401 0.56470588 0.92549020 0.07058824
v 0.07513145 0.01749740 -0.01647788 0.56470588 0.92549020 0.07058824
v 0.05665793 0.01768774 -0.01621958 0.56470588 0.92549020 0.07058824
v -0.00420400 0.01769127 -0.01621536 0.56470588 0.92549020 0.07058824
v -0.00420400 0.01771242 -0.01618244 0.56470588 0.92549020 0.07058824
v -0.00420400 0.01771947 -0.01617062 0.56470588 0.92549020 0.07058824
v -0.00420400 0.01780054 -0.01600687 0.56470588 0.92549020 0.07058824
v 0.05665793 -0.01798383 -0.01537209 0.56470588 0.92549020 0.07058824
v 0.07513145 -0.01796973 -0.01550715 0.56470588 0.92549020 0.07058824
v 0.07520336 -0.01796973 -0.01550124 0.56470588 0.92549020 0.07058824
v 0.07526728 -0.01796973 -0.01548520 0.56470588 0.92549020 0.07058824
v 0.07533121 -0.01796973 -0.01545904 0.56470588 0.92549020 0.07058824
v 0.07538714 -0.01796973 -0.01542274 0.56470588 0.92549020 0.07058824
v 0.07543508 -0.01796973 -0.01537800 0.56470588 0.92549020 0.07058824
v 0.07547503 -0.01796973 -0.01532735 0.56470588 0.92549020 0.07058824
v 0.07550699 -0.01796973 -0.01526996 0.56470588 0.92549020 0.07058824
v 0.07552298 -0.01796973 -0.01521002 0.56470588 0.92549020 0.07058824
v 0.07553096 -0.01796973 -0.01514756 0.56470588 0.92549020 0.07058824
v 0.03817642 -0.01798031 -0.01541683 0.56470588 0.92549020 0.07058824
v 0.07583460 -0.01789571 -0.00859555 0.56470588 0.92549020 0.07058824
v -0.00420400 -0.01797326 -0.01549364 0.56470588 0.92549020 0.07058824
v 0.07660166 0.01749740 -0.00859555 0.56470588 0.92549020 0.07058824
v 0.07666558 0.01744100 -0.00859555 0.56470588 0.92549020 0.07058824
v 0.07688931 0.01723304 -0.01514756 0.56470588 0.92549020 0.07058824
v 0.07688931 0.01721189 -0.01537800 0.56470588 0.92549020 0.07058824
v 0.07660166 0.01727533 -0.01594018 0.56470588 0.92549020 0.07058824
v 0.07688931 0.01714844 -0.01560254 0.56470588 0.92549020 0.07058824
v 0.07688931 0.01704622 -0.01581272 0.56470588 0.92549020 0.07058824
v 0.07553096 0.01721189 -0.01670917 0.56470588 0.92549020 0.07058824
v 0.07513145 0.01723304 -0.01673365 0.56470588 0.92549020 0.07058824
v 0.07627406 0.01727533 -0.01629977 0.56470588 0.92549020 0.07058824
v 0.07627406 0.01704622 -0.01652093 0.56470588 0.92549020 0.07058824
v 0.07591450 0.01714844 -0.01663742 0.56470588 0.92549020 0.07058824
v 0.05665793 0.01752560 -0.01644159 0.56470588 0.92549020 0.07058824
v 0.05665793 0.01746568 -0.01650996 0.56470588 0.92549020 0.07058824
v -0.00420400 0.01749740 -0.01647788 0.56470588 0.92549020 0.07058824
v 0.01971089 0.01752560 -0.01644159 0.56470588 0.92549020 0.07058824
v 0.05665793 -0.01795916 -0.01555020 0.56470588 0.92549020 0.07058824
v 0.07513145 -0.01787456 -0.01585577 0.56470588 0.92549020 0.07058824
v 0.07526728 -0.01787456 -0.01584480 0.56470588 0.92549020 0.07058824
v 0.07540312 -0.01787456 -0.01581272 0.56470588 0.92549020 0.07058824
v 0.07552298 -0.01787456 -0.01576039 0.56470588 0.92549020 0.07058824
v 0.07563484 -0.01787456 -0.01568948 0.56470588 0.92549020 0.07058824
v 0.07573072 -0.01787456 -0.01560254 0.56470588 0.92549020 0.07058824
v 0.07581062 -0.01787456 -0.01550124 0.56470588 0.92549020 0.07058824
v 0.07586656 -0.01787456 -0.01538982 0.56470588 0.92549020 0.07058824
v 0.07590651 -0.01787456 -0.01526996 0.56470588 0.92549020 0.07058824
v 0.07591450 -0.01787456 -0.01514756 0.56470588 0.92549020 0.07058824
v 0.07591450 -0.01787456 -0.00859555 0.56470588 0.92549020 0.07058824
v -0.00420400 -0.01796973 -0.01550715 0.56470588 0.92549020 0.07058824
v 0.01971089 -0.01795916 -0.01555020 0.56470588 0.92549020 0.07058824
v 0.07688931 0.01723304 -0.00859555 0.56470588 0.92549020 0.07058824
v 0.07706510 0.01698982 -0.00859555 0.56470588 0.92549020 0.07058824
v 0.07711304 0.01692285 -0.01514756 0.56470588 0.92549020 0.07058824
v 0.07711304 0.01690522 -0.01532735 0.56470588 0.92549020 0.07058824
v 0.07711304 0.01685940 -0.01550124 0.56470588 0.92549020 0.07058824
v 0.07660166 0.01710967 -0.01616640 0.56470588 0.92549020 0.07058824
v 0.07688931 0.01690522 -0.01600265 0.56470588 0.92549020 0.07058824
v 0.07711304 0.01677833 -0.01566500 0.56470588 0.92549020 0.07058824
v 0.07711304 0.01666906 -0.01581272 0.56470588 0.92549020 0.07058824
v 0.07553096 0.01690522 -0.01691344 0.56470588 0.92549020 0.07058824
v 0.07513145 0.01692285 -0.01694046 0.56470588 0.92549020 0.07058824
v 0.07591450 0.01685940 -0.01683241 0.56470588 0.92549020 0.07058824
v 0.05665793 0.01711672 -0.01681131 0.56470588 0.92549020 0.07058824
v -0.00420400 0.01723304 -0.01673365 0.56470588 0.92549020 0.07058824
v -0.00420400 0.01735641 -0.01661547 0.56470588 0.92549020 0.07058824
v 0.07627406 0.01677833 -0.01669988 0.56470588 0.92549020 0.07058824
v 0.07660166 0.01690522 -0.01636224 0.56470588 0.92549020 0.07058824
v 0.07660166 0.01666906 -0.01652093 0.56470588 0.92549020 0.07058824
v 0.01971089 0.01746568 -0.01650996 0.56470588 0.92549020 0.07058824
v 0.05665793 -0.01781464 -0.01597817 0.56470588 0.92549020 0.07058824
v 0.05665793 -0.01773357 -0.01614192 0.56470588 0.92549020 0.07058824
v 0.07513145 -0.01771242 -0.01618244 0.56470588 0.92549020 0.07058824
v 0.07533121 -0.01771242 -0.01616640 0.56470588 0.92549020 0.07058824
v -0.00420400 -0.01787456 -0.01585577 0.56470588 0.92549020 0.07058824
v 0.07552298 -0.01771242 -0.01611998 0.56470588 0.92549020 0.07058824
v 0.07570675 -0.01771242 -0.01604401 0.56470588 0.92549020 0.07058824
v 0.07586656 -0.01771242 -0.01594018 0.56470588 0.92549020 0.07058824
v 0.07601038 -0.01771242 -0.01581272 0.56470588 0.92549020 0.07058824
v 0.07612224 -0.01771242 -0.01566500 0.56470588 0.92549020 0.07058824
v 0.07621013 -0.01771242 -0.01550124 0.56470588 0.92549020 0.07058824
v 0.07625808 -0.01771242 -0.01532735 0.56470588 0.92549020 0.07058824
v 0.07627406 -0.01771242 -0.01514756 0.56470588 0.92549020 0.07058824
v 0.07620215 -0.01774767 -0.00859555 0.56470588 0.92549020 0.07058824
v 0.07711304 0.01692285 -0.00859555 0.56470588 0.92549020 0.07058824
v 0.07715299 0.01684883 -0.00859555 0.56470588 0.92549020 0.07058824
v 0.07724887 0.01665496 -0.00859555 0.56470588 0.92549020 0.07058824
v 0.07728083 0.01658094 -0.01514756 0.56470588 0.92549020 0.07058824
v 0.07728083 0.01657036 -0.01526996 0.56470588 0.92549020 0.07058824
v 0.07728083 0.01653864 -0.01538982 0.56470588 0.92549020 0.07058824
v 0.07688931 0.01673603 -0.01616640 0.56470588 0.92549020 0.07058824
v 0.07711304 0.01653864 -0.01594018 0.56470588 0.92549020 0.07058824
v 0.07728083 0.01648224 -0.01550124 0.56470588 0.92549020 0.07058824
v 0.07728083 0.01640822 -0.01560254 0.56470588 0.92549020 0.07058824
v 0.07553096 0.01657036 -0.01706370 0.56470588 0.92549020 0.07058824
v 0.03817642 0.01700040 -0.01688897 0.56470588 0.92549020 0.07058824
v 0.07513145 0.01658094 -0.01709324 0.56470588 0.92549020 0.07058824
v 0.05665793 0.01679595 -0.01699786 0.56470588 0.92549020 0.07058824
v -0.00420400 0.01692285 -0.01694046 0.56470588 0.92549020 0.07058824
v 0.07627406 0.01648224 -0.01683241 0.56470588 0.92549020 0.07058824
v 0.07591450 0.01653864 -0.01697591 0.56470588 0.92549020 0.07058824
v -0.00420400 0.01706737 -0.01684423 0.56470588 0.92549020 0.07058824
v 0.07688931 0.01653864 -0.01629977 0.56470588 0.92549020 0.07058824
v 0.07660166 0.01640822 -0.01663742 0.56470588 0.92549020 0.07058824
v 0.03817642 -0.01775472 -0.01610056 0.56470588 0.92549020 0.07058824
v -0.00420400 -0.01771947 -0.01617062 0.56470588 0.92549020 0.07058824
v 0.05665793 -0.01768774 -0.01621958 0.56470588 0.92549020 0.07058824
v 0.07513145 -0.01749740 -0.01647788 0.56470588 0.92549020 0.07058824
v 0.07538714 -0.01749740 -0.01645762 0.56470588 0.92549020 0.07058824
v -0.00420400 -0.01771242 -0.01618244 0.56470588 0.92549020 0.07058824
v -0.00420400 -0.01770537 -0.01619341 0.56470588 0.92549020 0.07058824
v 0.07563484 -0.01749740 -0.01639769 0.56470588 0.92549020 0.07058824
v -0.00420400 -0.01780054 -0.01600687 0.56470588 0.92549020 0.07058824
v 0.07586656 -0.01749740 -0.01629977 0.56470588 0.92549020 0.07058824
v 0.07608229 -0.01749740 -0.01616640 0.56470588 0.92549020 0.07058824
v 0.07625808 -0.01749740 -0.01600265 0.56470588 0.92549020 0.07058824
v 0.07640989 -0.01749740 -0.01581272 0.56470588 0.92549020 0.07058824
v 0.07651377 -0.01749740 -0.01560254 0.56470588 0.92549020 0.07058824
v 0.07658568 -0.01749740 -0.01537800 0.56470588 0.92549020 0.07058824
v 0.07627406 -0.01771242 -0.00859555 0.56470588 0.92549020 0.07058824
v 0.07660166 -0.01749740 -0.01514756 0.56470588 0.92549020 0.07058824
v 0.07634597 -0.01766659 -0.00859555 0.56470588 0.92549020 0.07058824
v 0.07728083 0.01658094 -0.00859555 0.56470588 0.92549020 0.07058824
v 0.07730481 0.01650339 -0.00859555 0.56470588 0.92549020 0.07058824
v 0.07738471 0.01621788 -0.01514756 0.56470588 0.92549020 0.07058824
v 0.07738471 0.01621083 -0.01521002 0.56470588 0.92549020 0.07058824
v 0.07738471 0.01619673 -0.01526996 0.56470588 0.92549020 0.07058824
v 0.07738471 0.01616853 -0.01532735 0.56470588 0.92549020 0.07058824
v 0.07711304 0.01638355 -0.01604401 0.56470588 0.92549020 0.07058824
v 0.07728083 0.01631657 -0.01568948 0.56470588 0.92549020 0.07058824
v 0.07728083 0.01621083 -0.01576039 0.56470588 0.92549020 0.07058824
v 0.07738471 0.01612976 -0.01537800 0.56470588 0.92549020 0.07058824
v 0.07738471 0.01608393 -0.01542274 0.56470588 0.92549020 0.07058824
v 0.07553096 0.01621083 -0.01715570 0.56470588 0.92549020 0.07058824
v 0.07591450 0.01619673 -0.01706370 0.56470588 0.92549020 0.07058824
v 0.07513145 0.01621788 -0.01718609 0.56470588 0.92549020 0.07058824
v 0.05665793 0.01635535 -0.01715148 0.56470588 0.92549020 0.07058824
v 0.00122939 0.01640117 -0.01713967 0.56470588 0.92549020 0.07058824
v -0.00420400 0.01658094 -0.01709324 0.56470588 0.92549020 0.07058824
v -0.00420400 0.01659504 -0.01708733 0.56470588 0.92549020 0.07058824
v 0.01971089 0.01679595 -0.01699786 0.56470588 0.92549020 0.07058824
v 0.00122939 0.01675366 -0.01701643 0.56470588 0.92549020 0.07058824
v 0.07627406 0.01616853 -0.01691344 0.56470588 0.92549020 0.07058824
v 0.07688931 0.01631657 -0.01639769 0.56470588 0.92549020 0.07058824
v 0.07660166 0.01612976 -0.01670917 0.56470588 0.92549020 0.07058824
v 0.05665793 -0.01752560 -0.01644159 0.56470588 0.92549020 0.07058824
v 0.01971089 -0.01768774 -0.01621958 0.56470588 0.92549020 0.07058824
v 0.05665793 -0.01746568 -0.01650996 0.56470588 0.92549020 0.07058824
v 0.07513145 -0.01723304 -0.01673365 0.56470588 0.92549020 0.07058824
v -0.00420400 -0.01749740 -0.01647788 0.56470588 0.92549020 0.07058824
v 0.07543508 -0.01723304 -0.01670917 0.56470588 0.92549020 0.07058824
v -0.00420400 -0.01752208 -0.01644581 0.56470588 0.92549020 0.07058824
v 0.00122939 -0.01760667 -0.01633016 0.56470588 0.92549020 0.07058824
v 0.07573072 -0.01723304 -0.01663742 0.56470588 0.92549020 0.07058824
v 0.07601038 -0.01723304 -0.01652093 0.56470588 0.92549020 0.07058824
v 0.07625808 -0.01723304 -0.01636224 0.56470588 0.92549020 0.07058824
v 0.07647381 -0.01723304 -0.01616640 0.56470588 0.92549020 0.07058824
v 0.07664960 -0.01723304 -0.01594018 0.56470588 0.92549020 0.07058824
v 0.07677745 -0.01723304 -0.01568948 0.56470588 0.92549020 0.07058824
v 0.07685735 -0.01723304 -0.01542274 0.56470588 0.92549020 0.07058824
v 0.07688931 -0.01723304 -0.01514756 0.56470588 0.92549020 0.07058824
v 0.07660166 -0.01749740 -0.00859555 0.56470588 0.92549020 0.07058824
v 0.07666558 -0.01744100 -0.00859555 0.56470588 0.92549020 0.07058824
v 0.07738471 0.01621788 -0.00859555 0.56470588 0.92549020 0.07058824
v 0.07741667 0.01592531 -0.00859555 0.56470588 0.92549020 0.07058824
v 0.07742466 0.01584424 -0.01514756 0.56470588 0.92549020 0.07058824
v 0.07711304 0.01621083 -0.01611998 0.56470588 0.92549020 0.07058824
v 0.07728083 0.01609451 -0.01581272 0.56470588 0.92549020 0.07058824
v 0.07738471 0.01603106 -0.01545819 0.56470588 0.92549020 0.07058824
v 0.07738471 0.01597114 -0.01548520 0.56470588 0.92549020 0.07058824
v 0.07553096 0.01584424 -0.01718609 0.56470588 0.92549020 0.07058824
v 0.07513145 0.01584424 -0.01721817 0.56470588 0.92549020 0.07058824
v 0.07591450 0.01584424 -0.01709324 0.56470588 0.92549020 0.07058824
v 0.03817642 0.01630952 -0.01716330 0.56470588 0.92549020 0.07058824
v 0.05665793 0.01617205 -0.01719031 0.56470588 0.92549020 0.07058824
v -0.00420400 0.01620378 -0.01718778 0.56470588 0.92549020 0.07058824
v -0.00420400 0.01621788 -0.01718609 0.56470588 0.92549020 0.07058824
v -0.00420400 0.01623198 -0.01718272 0.56470588 0.92549020 0.07058824
v -0.00420400 0.01643994 -0.01712954 0.56470588 0.92549020 0.07058824
v 0.07660166 0.01584424 -0.01673365 0.56470588 0.92549020 0.07058824
v 0.07627406 0.01584424 -0.01694046 0.56470588 0.92549020 0.07058824
v 0.07688931 0.01608393 -0.01645762 0.56470588 0.92549020 0.07058824
v 0.07711304 0.01603106 -0.01616640 0.56470588 0.92549020 0.07058824
v 0.01971089 -0.01752560 -0.01644159 0.56470588 0.92549020 0.07058824
v 0.01971089 -0.01746568 -0.01650996 0.56470588 0.92549020 0.07058824
v -0.00420400 -0.01735641 -0.01661547 0.56470588 0.92549020 0.07058824
v 0.05665793 -0.01711672 -0.01681131 0.56470588 0.92549020 0.07058824
v 0.07513145 -0.01692285 -0.01694046 0.56470588 0.92549020 0.07058824
v 0.07547503 -0.01692285 -0.01691344 0.56470588 0.92549020 0.07058824
v -0.00420400 -0.01723304 -0.01673365 0.56470588 0.92549020 0.07058824
v 0.07581062 -0.01692285 -0.01683241 0.56470588 0.92549020 0.07058824
v 0.07612224 -0.01692285 -0.01669988 0.56470588 0.92549020 0.07058824
v 0.07640989 -0.01692285 -0.01652093 0.56470588 0.92549020 0.07058824
v 0.07664960 -0.01692285 -0.01629977 0.56470588 0.92549020 0.07058824
v 0.07684936 -0.01692285 -0.01604401 0.56470588 0.92549020 0.07058824
v 0.07699319 -0.01692285 -0.01576039 0.56470588 0.92549020 0.07058824
v 0.07708108 -0.01692285 -0.01545904 0.56470588 0.92549020 0.07058824
v 0.07688931 -0.01723304 -0.00859555 0.56470588 0.92549020 0.07058824
v 0.07711304 -0.01692285 -0.01514756 0.56470588 0.92549020 0.07058824
v 0.07706510 -0.01698982 -0.00859555 0.56470588 0.92549020 0.07058824
v 0.07742466 0.01584424 -0.00859555 0.56470588 0.92549020 0.07058824
v 0.07742466 -0.01584424 -0.01514756 0.56470588 0.92549020 0.07058824
v 0.07738471 0.01584424 -0.01550715 0.56470588 0.92549020 0.07058824
v 0.07738471 0.01590769 -0.01550124 0.56470588 0.92549020 0.07058824
v 0.07728083 0.01597114 -0.01584480 0.56470588 0.92549020 0.07058824
v 0.07553096 -0.01584424 -0.01718609 0.56470588 0.92549020 0.07058824
v 0.07513145 -0.01584424 -0.01721817 0.56470588 0.92549020 0.07058824
v -0.00420400 0.01584424 -0.01721817 0.56470588 0.92549020 0.07058824
v -0.00420400 0.01604516 -0.01720129 0.56470588 0.92549020 0.07058824
v 0.07609827 0.00000000 -0.01701643 0.56470588 0.92549020 0.07058824
v 0.07591450 -0.01584424 -0.01709324 0.56470588 0.92549020 0.07058824
v 0.07660166 -0.01584424 -0.01673365 0.56470588 0.92549020 0.07058824
v 0.07644186 0.00000000 -0.01683663 0.56470588 0.92549020 0.07058824
v 0.07688931 0.01584424 -0.01647788 0.56470588 0.92549020 0.07058824
v 0.07627406 -0.01584424 -0.01694046 0.56470588 0.92549020 0.07058824
v 0.07711304 0.01584424 -0.01618244 0.56470588 0.92549020 0.07058824
v 0.07728083 0.01584424 -0.01585577 0.56470588 0.92549020 0.07058824
v 0.03817642 -0.01700040 -0.01688897 0.56470588 0.92549020 0.07058824
v 0.07513145 -0.01658094 -0.01709324 0.56470588 0.92549020 0.07058824
v -0.00420400 -0.01692285 -0.01694046 0.56470588 0.92549020 0.07058824
v 0.01971089 -0.01679595 -0.01699786 0.56470588 0.92549020 0.07058824
v 0.07550699 -0.01658094 -0.01706370 0.56470588 0.92549020 0.07058824
v -0.00420400 -0.01706737 -0.01684423 0.56470588 0.92549020 0.07058824
v 0.07586656 -0.01658094 -0.01697591 0.56470588 0.92549020 0.07058824
v 0.07621013 -0.01658094 -0.01683241 0.56470588 0.92549020 0.07058824
v 0.07651377 -0.01658094 -0.01663742 0.56470588 0.92549020 0.07058824
v 0.07677745 -0.01658094 -0.01639769 0.56470588 0.92549020 0.07058824
v 0.07699319 -0.01658094 -0.01611998 0.56470588 0.92549020 0.07058824
v 0.07715299 -0.01658094 -0.01581272 0.56470588 0.92549020 0.07058824
v 0.07724887 -0.01658094 -0.01548520 0.56470588 0.92549020 0.07058824
v 0.07728083 -0.01658094 -0.01514756 0.56470588 0.92549020 0.07058824
v 0.07724887 -0.01665496 -0.00859555 0.56470588 0.92549020 0.07058824
v 0.07715299 -0.01684883 -0.00859555 0.56470588 0.92549020 0.07058824
v 0.07711304 -0.01692285 -0.00859555 0.56470588 0.92549020 0.07058824
v 0.07742466 -0.01584424 -0.00859555 0.56470588 0.92549020 0.07058824
v 0.07741667 -0.01592531 -0.00859555 0.56470588 0.92549020 0.07058824
v 0.07738471 -0.01621788 -0.01514756 0.56470588 0.92549020 0.07058824
v 0.07735275 -0.01621788 -0.01550124 0.56470588 0.92549020 0.07058824
v 0.07738471 -0.01584424 -0.01550715 0.56470588 0.92549020 0.07058824
v 0.07733677 0.00000000 -0.01568104 0.56470588 0.92549020 0.07058824
v 0.07552298 -0.01621788 -0.01715570 0.56470588 0.92549020 0.07058824
v 0.07590651 -0.01621788 -0.01706370 0.56470588 0.92549020 0.07058824
v 0.07513145 -0.01621788 -0.01718609 0.56470588 0.92549020 0.07058824
v 0.05665793 -0.01617205 -0.01719031 0.56470588 0.92549020 0.07058824
v -0.00420400 -0.01604516 -0.01720129 0.56470588 0.92549020 0.07058824
v -0.00420400 -0.01584424 -0.01721817 0.56470588 0.92549020 0.07058824
v 0.07658568 -0.01621788 -0.01670917 0.56470588 0.92549020 0.07058824
v 0.07688931 -0.01584424 -0.01647788 0.56470588 0.92549020 0.07058824
v 0.07625808 -0.01621788 -0.01691344 0.56470588 0.92549020 0.07058824
v 0.07720093 0.00000000 -0.01601868 0.56470588 0.92549020 0.07058824
v 0.07711304 -0.01584424 -0.01618244 0.56470588 0.92549020 0.07058824
v 0.07728083 -0.01584424 -0.01585577 0.56470588 0.92549020 0.07058824
v 0.05665793 -0.01635535 -0.01715148 0.56470588 0.92549020 0.07058824
v -0.00420400 -0.01661971 -0.01707636 0.56470588 0.92549020 0.07058824
v -0.00420400 -0.01659504 -0.01708733 0.56470588 0.92549020 0.07058824
v -0.00420400 -0.01658094 -0.01709324 0.56470588 0.92549020 0.07058824
v 0.00122939 -0.01640117 -0.01713967 0.56470588 0.92549020 0.07058824
v 0.00122939 -0.01675366 -0.01701643 0.56470588 0.92549020 0.07058824
v 0.07685735 -0.01621788 -0.01645762 0.56470588 0.92549020 0.07058824
v 0.07708108 -0.01621788 -0.01616640 0.56470588 0.92549020 0.07058824
v 0.07724887 -0.01621788 -0.01584480 0.56470588 0.92549020 0.07058824
v 0.07728083 -0.01658094 -0.00859555 0.56470588 0.92549020 0.07058824
v 0.07730481 -0.01650339 -0.00859555 0.56470588 0.92549020 0.07058824
v 0.07738471 -0.01621788 -0.00859555 0.56470588 0.92549020 0.07058824
v 0.03817642 -0.01630952 -0.01716330 0.56470588 0.92549020 0.07058824
v -0.00420400 -0.01623198 -0.01718272 0.56470588 0.92549020 0.07058824
v -0.00420400 -0.01621788 -0.01718609 0.56470588 0.92549020 0.07058824
v -0.00420400 -0.01620378 -0.01718778 0.56470588 0.92549020 0.07058824
v -0.00420400 -0.01643994 -0.01712954 0.56470588 0.92549020 0.07058824
f 1 2 5
f 1 5 3
f 1 3 11
f 1 11 4
f 1 4 12
f 1 12 20
f 1 20 34
f 1 34 64
f 1 64 93
f 1 93 128
f 1 128 164
f 1 164 166
f 1 166 206
f 1 206 207
f 1 207 242
f 1 242 244
f 1 244 278
f 1 278 277
f 1 277 276
f 1 276 306
f 1 306 307
f 1 307 308
f 1 308 280
f 1 280 279
f 1 279 245
f 1 245 209
f 1 209 208
f 1 208 168
f 1 168 167
f 1 167 131
f 1 131 130
f 1 130 129
f 1 129 97
f 1 97 96
f 1 96 67
f 1 67 66
f 1 66 37
f 1 37 36
f 1 36 22
f 1 22 14
f 1 14 6
f 1 6 2
f 2 6 5
f 3 5 7
f 3 7 8
f 3 8 9
f 3 9 10
f 3 10 11
f 4 11 10
f 4 10 19
f 4 19 32
f 4 32 30
f 4 30 51
f 4 51 50
f 4 50 49
f 4 49 48
f 4 48 80
f 4 80 110
f 4 110 109
f 4 109 146
f 4 146 143
f 4 143 184
f 4 184 183
f 4 183 223
f 4 223 222
f 4 222 221
f 4 221 220
f 4 220 253
f 4 253 252
f 4 252 290
f 4 290 289
f 4 289 312
f 4 312 311
f 4 311 310
f 4 310 313
f 4 313 300
f 4 300 299
f 4 299 298
f 4 298 264
f 4 264 267
f 4 267 234
f 4 234 230
f 4 230 194
f 4 194 196
f 4 196 155
f 4 155 154
f 4 154 150
f 4 150 157
f 4 157 119
f 4 119 94
f 4 94 65
f 4 65 35
f 4 35 21
f 4 21 12
f 5 6 13
f 5 13 7
f 6 14 13
f 7 15 16
f 7 16 8
f 7 13 17
f 7 17 15
f 8 16 18
f 8 18 19
f 8 19 9
f 9 19 10
f 12 21 33
f 12 33 20
f 13 14 22
f 13 22 23
f 13 23 24
f 13 24 17
f 15 25 16
f 15 17 26
f 15 26 25
f 16 25 27
f 16 27 28
f 16 28 29
f 16 29 30
f 16 30 31
f 16 31 18
f 17 24 26
f 18 31 19
f 19 31 32
f 20 33 62
f 20 62 34
f 21 35 33
f 22 36 23
f 23 36 37
f 23 37 38
f 23 38 39
f 23 39 24
f 24 40 26
f 24 39 41
f 24 41 40
f 25 42 27
f 25 26 43
f 25 43 44
f 25 44 42
f 26 40 45
f 26 45 43
f 27 42 46
f 27 46 47
f 27 47 48
f 27 48 49
f 27 49 50
f 27 50 28
f 28 50 29
f 29 50 51
f 29 51 30
f 30 32 31
f 33 52 53
f 33 53 54
f 33 54 55
f 33 55 56
f 33 56 57
f 33 57 58
f 33 58 59
f 33 59 60
f 33 60 61
f 33 61 62
f 33 35 63
f 33 63 52
f 34 62 64
f 35 65 63
f 37 66 38
f 38 66 67
f 38 67 68
f 38 68 39
f 39 68 69
f 39 69 41
f 40 41 45
f 41 70 45
f 41 69 71
f 41 71 72
f 41 72 70
f 42 73 74
f 42 74 46
f 42 44 73
f 43 45 44
f 44 45 75
f 44 75 76
f 44 76 77
f 44 77 73
f 45 70 75
f 46 78 47
f 46 74 79
f 46 79 114
f 46 114 80
f 46 80 81
f 46 81 78
f 47 78 48
f 48 81 80
f 48 78 81
f 52 63 53
f 53 82 83
f 53 83 84
f 53 84 54
f 53 63 65
f 53 65 82
f 54 84 85
f 54 85 55
f 55 85 56
f 56 85 86
f 56 86 87
f 56 87 57
f 57 87 88
f 57 88 58
f 58 88 89
f 58 89 59
f 59 89 60
f 60 89 90
f 60 90 91
f 60 91 61
f 61 91 62
f 62 91 92
f 62 92 64
f 64 92 93
f 65 94 95
f 65 95 82
f 67 96 68
f 68 96 97
f 68 97 98
f 68 98 69
f 69 98 99
f 69 99 100
f 69 100 71
f 70 101 75
f 70 72 101
f 71 100 72
f 72 102 101
f 72 100 103
f 72 103 104
f 72 104 102
f 73 105 106
f 73 106 74
f 73 77 107
f 73 107 105
f 74 106 108
f 74 108 140
f 74 140 109
f 74 109 110
f 74 110 79
f 75 101 76
f 76 111 107
f 76 107 77
f 76 101 112
f 76 112 113
f 76 113 111
f 79 110 114
f 80 114 110
f 82 95 119
f 82 119 83
f 83 115 116
f 83 116 117
f 83 117 118
f 83 118 84
f 83 119 149
f 83 149 115
f 84 118 85
f 85 118 120
f 85 120 121
f 85 121 86
f 86 121 87
f 87 121 122
f 87 122 123
f 87 123 88
f 88 123 89
f 89 123 124
f 89 124 125
f 89 125 90
f 90 125 91
f 91 125 126
f 91 126 127
f 91 127 92
f 92 127 128
f 92 128 93
f 94 119 95
f 97 129 98
f 98 129 130
f 98 130 131
f 98 131 132
f 98 132 133
f 98 133 99
f 99 133 100
f 100 133 134
f 100 134 103
f 101 102 135
f 101 135 112
f 102 104 136
f 102 136 135
f 103 134 137
f 103 137 138
f 103 138 104
f 104 138 136
f 105 139 106
f 105 107 139
f 106 140 108
f 106 139 141
f 106 141 142
f 106 142 185
f 106 185 143
f 106 143 140
f 107 111 144
f 107 144 145
f 107 145 139
f 109 140 146
f 111 113 144
f 112 135 147
f 112 147 113
f 113 148 144
f 113 147 148
f 115 149 116
f 116 149 150
f 116 150 117
f 117 151 152
f 117 152 153
f 117 153 118
f 117 150 154
f 117 154 155
f 117 155 151
f 118 153 156
f 118 156 120
f 119 157 149
f 120 156 121
f 121 156 158
f 121 158 159
f 121 159 122
f 122 159 123
f 123 159 160
f 123 160 161
f 123 161 124
f 124 161 125
f 125 161 162
f 125 162 163
f 125 163 126
f 126 163 127
f 127 164 128
f 127 163 165
f 127 165 166
f 127 166 164
f 131 167 132
f 132 167 168
f 132 168 169
f 132 169 133
f 133 169 170
f 133 170 171
f 133 171 134
f 134 171 172
f 134 172 137
f 135 136 147
f 136 173 147
f 136 138 174
f 136 174 175
f 136 175 173
f 137 172 138
f 138 172 176
f 138 176 177
f 138 177 174
f 139 178 141
f 139 145 179
f 139 179 178
f 140 143 146
f 141 178 180
f 141 180 181
f 141 181 182
f 141 182 183
f 141 183 184
f 141 184 142
f 142 184 185
f 143 185 186
f 143 186 184
f 144 187 145
f 144 148 187
f 145 187 179
f 147 188 148
f 147 173 188
f 148 189 187
f 148 188 189
f 149 157 150
f 151 190 152
f 151 155 191
f 151 191 228
f 151 228 190
f 152 192 193
f 152 193 153
f 152 190 228
f 152 228 194
f 152 194 229
f 152 229 192
f 153 195 156
f 153 193 195
f 155 196 197
f 155 197 191
f 156 195 198
f 156 198 199
f 156 199 158
f 158 199 159
f 159 199 200
f 159 200 201
f 159 201 160
f 160 201 161
f 161 201 202
f 161 202 203
f 161 203 162
f 162 203 163
f 163 203 204
f 163 204 205
f 163 205 165
f 165 206 166
f 165 205 207
f 165 207 206
f 168 208 169
f 169 208 209
f 169 209 210
f 169 210 170
f 170 210 171
f 171 210 172
f 172 210 176
f 173 211 188
f 173 175 212
f 173 212 211
f 174 177 213
f 174 213 175
f 175 213 214
f 175 214 212
f 176 210 177
f 177 210 213
f 178 215 216
f 178 216 180
f 178 179 217
f 178 217 215
f 179 187 217
f 180 218 181
f 180 216 219
f 180 219 220
f 180 220 221
f 180 221 222
f 180 222 218
f 181 218 182
f 182 222 223
f 182 223 183
f 182 218 222
f 184 186 185
f 187 189 224
f 187 224 225
f 187 225 217
f 188 226 189
f 188 211 227
f 188 227 226
f 189 226 224
f 191 197 228
f 192 229 230
f 192 230 193
f 193 231 232
f 193 232 233
f 193 233 195
f 193 230 234
f 193 234 262
f 193 262 231
f 194 228 196
f 194 230 229
f 195 233 235
f 195 235 198
f 196 228 197
f 198 235 199
f 199 236 237
f 199 237 200
f 199 235 236
f 200 237 201
f 201 237 238
f 201 238 239
f 201 239 202
f 202 239 203
f 203 239 240
f 203 240 204
f 204 240 241
f 204 241 205
f 205 242 207
f 205 241 243
f 205 243 244
f 205 244 242
f 209 245 210
f 210 245 279
f 210 279 246
f 210 246 283
f 210 283 247
f 210 247 248
f 210 248 214
f 210 214 213
f 211 212 249
f 211 249 227
f 212 214 249
f 214 248 249
f 215 250 251
f 215 251 216
f 215 217 255
f 215 255 250
f 216 251 290
f 216 290 252
f 216 252 253
f 216 253 219
f 217 225 254
f 217 254 255
f 219 253 220
f 224 256 257
f 224 257 225
f 224 226 258
f 224 258 292
f 224 292 256
f 225 257 259
f 225 259 254
f 226 227 260
f 226 260 258
f 227 249 261
f 227 261 260
f 231 262 232
f 232 263 233
f 232 262 264
f 232 264 265
f 232 265 263
f 233 263 266
f 233 266 235
f 234 267 262
f 235 266 268
f 235 268 269
f 235 269 236
f 236 269 237
f 237 270 271
f 237 271 238
f 237 269 270
f 238 271 239
f 239 271 272
f 239 272 273
f 239 273 240
f 240 273 274
f 240 274 241
f 241 274 243
f 243 274 275
f 243 275 276
f 243 276 277
f 243 277 278
f 243 278 244
f 246 279 280
f 246 280 281
f 246 281 282
f 246 282 283
f 247 283 284
f 247 284 261
f 247 261 249
f 247 249 248
f 250 285 251
f 250 255 286
f 250 286 285
f 251 285 287
f 251 287 288
f 251 288 289
f 251 289 290
f 254 259 255
f 255 259 286
f 256 291 259
f 256 259 257
f 256 292 291
f 258 260 295
f 258 295 292
f 259 293 286
f 259 291 293
f 260 294 295
f 260 261 294
f 261 284 296
f 261 296 294
f 262 267 264
f 263 297 287
f 263 287 285
f 263 285 266
f 263 265 298
f 263 298 299
f 263 299 300
f 263 300 301
f 263 301 297
f 264 298 302
f 264 302 265
f 265 302 298
f 266 285 286
f 266 286 268
f 268 286 269
f 269 286 293
f 269 293 291
f 269 291 270
f 270 291 271
f 271 303 272
f 271 291 303
f 272 304 305
f 272 305 273
f 272 303 304
f 273 305 282
f 273 282 274
f 274 282 275
f 275 306 276
f 275 282 281
f 275 281 307
f 275 307 306
f 280 308 281
f 281 308 307
f 282 305 296
f 282 296 283
f 283 296 284
f 287 297 309
f 287 309 310
f 287 310 311
f 287 311 312
f 287 312 288
f 288 312 289
f 291 292 303
f 292 295 304
f 292 304 303
f 294 296 295
f 295 296 305
f 295 305 304
f 297 301 309
f 300 313 301
f 301 313 310
f 301 310 309