# https://github.com/mikedh/trimesh
v -0.03265368 -0.00859472 0.00867005 0.54117647 0.42352941 0.64313725
v -0.03297059 -0.00859472 0.01530989 0.54117647 0.42352941 0.64313725
v -0.01777537 -0.00861038 0.00867005 0.54117647 0.42352941 0.64313725
v -0.07456978 -0.00859472 0.00867005 0.54117647 0.42352941 0.64313725
v -0.03298727 -0.00859472 0.01548795 0.54117647 0.42352941 0.64313725
v -0.01777537 -0.00891251 0.01530989 0.54117647 0.42352941 0.64313725
v -0.01777537 -0.01800498 0.00867005 0.54117647 0.42352941 0.64313725
v -0.03302062 -0.00859472 0.01565757 0.54117647 0.42352941 0.64313725
v -0.03307067 -0.00859472 0.01582382 0.54117647 0.42352941 0.64313725
v -0.03313738 -0.00859472 0.01599345 0.54117647 0.42352941 0.64313725
v -0.03321522 -0.00859472 0.01614873 0.54117647 0.42352941 0.64313725
v -0.03330974 -0.00859472 0.01630654 0.54117647 0.42352941 0.64313725
v -0.03341538 -0.00859472 0.01644578 0.54117647 0.42352941 0.64313725
v -0.03354326 -0.00859472 0.01658840 0.54117647 0.42352941 0.64313725
v -0.03355437 -0.00859472 0.01659937 0.54117647 0.42352941 0.64313725
v -0.03382125 -0.00859472 0.01683145 0.54117647 0.42352941 0.64313725
v -0.03383793 -0.00859472 0.01684242 0.54117647 0.42352941 0.64313725
v -0.03414373 -0.00859472 0.01702723 0.54117647 0.42352941 0.64313725
v -0.07456978 -0.01705069 0.00867005 0.54117647 0.42352941 0.64313725
v -0.07456978 -0.00859472 0.01637574 0.54117647 0.42352941 0.64313725
v -0.01777537 -0.00892817 0.01548458 0.54117647 0.42352941 0.64313725
v -0.03416597 -0.00859472 0.01703736 0.54117647 0.42352941 0.64313725
v -0.03449400 -0.00859472 0.01717238 0.54117647 0.42352941 0.64313725
v -0.01777537 -0.01800498 0.01521959 0.54117647 0.42352941 0.64313725
v -0.07268497 -0.01800498 0.00867005 0.54117647 0.42352941 0.64313725
v -0.07456978 -0.01705069 0.01521959 0.54117647 0.42352941 0.64313725
v -0.07456422 -0.01706266 0.00867005 0.54117647 0.42352941 0.64313725
v -0.07456422 -0.00859472 0.01638840 0.54117647 0.42352941 0.64313725
v -0.07456978 -0.01584401 0.01637574 0.54117647 0.42352941 0.64313725
v -0.01777537 -0.00895949 0.01565757 0.54117647 0.42352941 0.64313725
v -0.03487207 -0.00859472 0.01726015 0.54117647 0.42352941 0.64313725
v -0.01777537 -0.01797182 0.01557909 0.54117647 0.42352941 0.64313725
v -0.03573386 -0.01798011 0.01548964 0.54117647 0.42352941 0.64313725
v -0.07268497 -0.01800498 0.01521959 0.54117647 0.42352941 0.64313725
v -0.07308529 -0.01797182 0.00867005 0.54117647 0.42352941 0.64313725
v -0.07443634 -0.01723307 0.01521959 0.54117647 0.42352941 0.64313725
v -0.07456978 -0.01703779 0.01532086 0.54117647 0.42352941 0.64313725
v -0.07443634 -0.01723307 0.00867005 0.54117647 0.42352941 0.64313725
v -0.07443634 -0.01584401 0.01655042 0.54117647 0.42352941 0.64313725
v -0.07449195 -0.00859472 0.01648291 0.54117647 0.42352941 0.64313725
v -0.07456978 -0.01598218 0.01635633 0.54117647 0.42352941 0.64313725
v -0.01777537 -0.00898252 0.01574281 0.54117647 0.42352941 0.64313725
v -0.03490544 -0.00859472 0.01726352 0.54117647 0.42352941 0.64313725
v -0.01777537 -0.00933531 0.01645169 0.54117647 0.42352941 0.64313725
v -0.01777537 -0.00923214 0.01630654 0.54117647 0.42352941 0.64313725
v -0.01777537 -0.00918701 0.01622974 0.54117647 0.42352941 0.64313725
v -0.01777537 -0.00914279 0.01615295 0.54117647 0.42352941 0.64313725
v -0.01777537 -0.00910503 0.01607362 0.54117647 0.42352941 0.64313725
v -0.01777537 -0.00906726 0.01599345 0.54117647 0.42352941 0.64313725
v -0.01777537 -0.00900647 0.01582804 0.54117647 0.42352941 0.64313725
v -0.01777537 -0.01793589 0.01570821 0.54117647 0.42352941 0.64313725
v -0.05420942 -0.01795985 0.01562297 0.54117647 0.42352941 0.64313725
v -0.07268497 -0.01797182 0.01557909 0.54117647 0.42352941 0.64313725
v -0.07275725 -0.01797182 0.01557403 0.54117647 0.42352941 0.64313725
v -0.07282397 -0.01797182 0.01555715 0.54117647 0.42352941 0.64313725
v -0.07288513 -0.01797182 0.01553099 0.54117647 0.42352941 0.64313725
v -0.07294073 -0.01797182 0.01549470 0.54117647 0.42352941 0.64313725
v -0.07299077 -0.01797182 0.01545082 0.54117647 0.42352941 0.64313725
v -0.07302969 -0.01797182 0.01539934 0.54117647 0.42352941 0.64313725
v -0.07305748 -0.01797182 0.01534280 0.54117647 0.42352941 0.64313725
v -0.07307973 -0.01797182 0.01528204 0.54117647 0.42352941 0.64313725
v -0.07308529 -0.01797182 0.01521959 0.54117647 0.42352941 0.64313725
v -0.07316868 -0.01795063 0.00867005 0.54117647 0.42352941 0.64313725
v -0.07424175 -0.01742006 0.00867005 0.54117647 0.42352941 0.64313725
v -0.07415835 -0.01749928 0.01521959 0.54117647 0.42352941 0.64313725
v -0.07413611 -0.01749928 0.01545082 0.54117647 0.42352941 0.64313725
v -0.07440854 -0.01723307 0.01549470 0.54117647 0.42352941 0.64313725
v -0.07456978 -0.01701108 0.01552086 0.54117647 0.42352941 0.64313725
v -0.07440854 -0.01621891 0.01653017 0.54117647 0.42352941 0.64313725
v -0.07413611 -0.01621891 0.01678165 0.54117647 0.42352941 0.64313725
v -0.07415835 -0.01584401 0.01680528 0.54117647 0.42352941 0.64313725
v -0.07437518 -0.00859472 0.01660865 0.54117647 0.42352941 0.64313725
v -0.07443634 -0.00859472 0.01655042 0.54117647 0.42352941 0.64313725
v -0.07456978 -0.01621891 0.01632173 0.54117647 0.42352941 0.64313725
v -0.03525571 -0.00859472 0.01729053 0.54117647 0.42352941 0.64313725
v -0.01777537 -0.00971389 0.01683060 0.54117647 0.42352941 0.64313725
v -0.01777537 -0.00945045 0.01658840 0.54117647 0.42352941 0.64313725
v -0.01777537 -0.00939242 0.01652004 0.54117647 0.42352941 0.64313725
v -0.01777537 -0.01788708 0.01588290 0.54117647 0.42352941 0.64313725
v -0.03573386 -0.01789905 0.01584070 0.54117647 0.42352941 0.64313725
v -0.07268497 -0.01787418 0.01592762 0.54117647 0.42352941 0.64313725
v -0.07282397 -0.01787418 0.01591665 0.54117647 0.42352941 0.64313725
v -0.07295185 -0.01787418 0.01588543 0.54117647 0.42352941 0.64313725
v -0.07307973 -0.01787418 0.01583311 0.54117647 0.42352941 0.64313725
v -0.07319093 -0.01787418 0.01576222 0.54117647 0.42352941 0.64313725
v -0.07328544 -0.01787418 0.01567445 0.54117647 0.42352941 0.64313725
v -0.07336328 -0.01787418 0.01557403 0.54117647 0.42352941 0.64313725
v -0.07341888 -0.01787418 0.01546179 0.54117647 0.42352941 0.64313725
v -0.07345780 -0.01787418 0.01534280 0.54117647 0.42352941 0.64313725
v -0.07346892 -0.01787418 0.01521959 0.54117647 0.42352941 0.64313725
v -0.07346892 -0.01787418 0.00867005 0.54117647 0.42352941 0.64313725
v -0.07421951 -0.01744125 0.00867005 0.54117647 0.42352941 0.64313725
v -0.07415835 -0.01749928 0.00867005 0.54117647 0.42352941 0.64313725
v -0.07390259 -0.01766877 0.00867005 0.54117647 0.42352941 0.64313725
v -0.07383031 -0.01771482 0.01521959 0.54117647 0.42352941 0.64313725
v -0.07381364 -0.01771482 0.01539934 0.54117647 0.42352941 0.64313725
v -0.07406939 -0.01749928 0.01567445 0.54117647 0.42352941 0.64313725
v -0.07433071 -0.01723307 0.01576222 0.54117647 0.42352941 0.64313725
v -0.07454754 -0.01692450 0.01583311 0.54117647 0.42352941 0.64313725
v -0.07456978 -0.01698897 0.01557909 0.54117647 0.42352941 0.64313725
v -0.07454754 -0.01658276 0.01619261 0.54117647 0.42352941 0.64313725
v -0.07433071 -0.01658276 0.01647025 0.54117647 0.42352941 0.64313725
v -0.07406939 -0.01658276 0.01670992 0.54117647 0.42352941 0.64313725
v -0.07381364 -0.01621891 0.01698588 0.54117647 0.42352941 0.64313725
v -0.07415835 -0.00859472 0.01680528 0.54117647 0.42352941 0.64313725
v -0.07383031 -0.01584401 0.01701288 0.54117647 0.42352941 0.64313725
v -0.07456978 -0.01647867 0.01620611 0.54117647 0.42352941 0.64313725
v -0.01777537 -0.01107164 0.01729053 0.54117647 0.42352941 0.64313725
v -0.01777537 -0.01088649 0.01727534 0.54117647 0.42352941 0.64313725
v -0.01777537 -0.01070595 0.01726015 0.54117647 0.42352941 0.64313725
v -0.01777537 -0.01035224 0.01717238 0.54117647 0.42352941 0.64313725
v -0.01777537 -0.01001695 0.01702723 0.54117647 0.42352941 0.64313725
v -0.07268497 -0.00859472 0.01729053 0.54117647 0.42352941 0.64313725
v -0.01777537 -0.01787418 0.01592762 0.54117647 0.42352941 0.64313725
v -0.05420942 -0.01773509 0.01621371 0.54117647 0.42352941 0.64313725
v -0.07268497 -0.01771482 0.01625506 0.54117647 0.42352941 0.64313725
v -0.03573386 -0.01783457 0.01600948 0.54117647 0.42352941 0.64313725
v -0.07288513 -0.01771482 0.01623903 0.54117647 0.42352941 0.64313725
v -0.07307973 -0.01771482 0.01619261 0.54117647 0.42352941 0.64313725
v -0.07325764 -0.01771482 0.01611581 0.54117647 0.42352941 0.64313725
v -0.07341888 -0.01771482 0.01601286 0.54117647 0.42352941 0.64313725
v -0.07356344 -0.01771482 0.01588543 0.54117647 0.42352941 0.64313725
v -0.07367464 -0.01771482 0.01573690 0.54117647 0.42352941 0.64313725
v -0.07375804 -0.01771482 0.01557403 0.54117647 0.42352941 0.64313725
v -0.07375247 -0.01774983 0.00867005 0.54117647 0.42352941 0.64313725
v -0.07354676 -0.01784010 0.00867005 0.54117647 0.42352941 0.64313725
v -0.07383031 -0.01771482 0.00867005 0.54117647 0.42352941 0.64313725
v -0.07395819 -0.01749928 0.01588543 0.54117647 0.42352941 0.64313725
v -0.07420283 -0.01723307 0.01601286 0.54117647 0.42352941 0.64313725
v -0.07440299 -0.01692450 0.01611581 0.54117647 0.42352941 0.64313725
v -0.07456978 -0.01686923 0.01584155 0.54117647 0.42352941 0.64313725
v -0.07456978 -0.01692450 0.01574618 0.54117647 0.42352941 0.64313725
v -0.07420283 -0.01692450 0.01637236 0.54117647 0.42352941 0.64313725
v -0.07456978 -0.01658276 0.01614282 0.54117647 0.42352941 0.64313725
v -0.07395819 -0.01692450 0.01659347 0.54117647 0.42352941 0.64313725
v -0.07367464 -0.01692450 0.01677237 0.54117647 0.42352941 0.64313725
v -0.07375804 -0.01658276 0.01690487 0.54117647 0.42352941 0.64313725
v -0.07341888 -0.01658276 0.01704748 0.54117647 0.42352941 0.64313725
v -0.07345780 -0.01621891 0.01713525 0.54117647 0.42352941 0.64313725
v -0.07346892 -0.01584401 0.01716563 0.54117647 0.42352941 0.64313725
v -0.07383031 -0.00859472 0.01701288 0.54117647 0.42352941 0.64313725
v -0.01777537 -0.01584401 0.01729053 0.54117647 0.42352941 0.64313725
v -0.07299077 -0.00859472 0.01726606 0.54117647 0.42352941 0.64313725
v -0.07268497 -0.01584401 0.01729053 0.54117647 0.42352941 0.64313725
v -0.01777537 -0.01781523 0.01604915 0.54117647 0.42352941 0.64313725
v -0.01777537 -0.01771482 0.01625506 0.54117647 0.42352941 0.64313725
v -0.05420942 -0.01768811 0.01629219 0.54117647 0.42352941 0.64313725
v -0.07268497 -0.01749928 0.01655042 0.54117647 0.42352941 0.64313725
v -0.07294073 -0.01749928 0.01653017 0.54117647 0.42352941 0.64313725
v -0.07319093 -0.01749928 0.01647025 0.54117647 0.42352941 0.64313725
v -0.07341888 -0.01749928 0.01637236 0.54117647 0.42352941 0.64313725
v -0.07363016 -0.01749928 0.01623903 0.54117647 0.42352941 0.64313725
v -0.07381364 -0.01749928 0.01607531 0.54117647 0.42352941 0.64313725
v -0.07403047 -0.01723307 0.01623903 0.54117647 0.42352941 0.64313725
v -0.07381364 -0.01723307 0.01643481 0.54117647 0.42352941 0.64313725
v -0.07356344 -0.01723307 0.01659347 0.54117647 0.42352941 0.64313725
v -0.07336328 -0.01692450 0.01690487 0.54117647 0.42352941 0.64313725
v -0.07305748 -0.01658276 0.01713525 0.54117647 0.42352941 0.64313725
v -0.07307973 -0.01621891 0.01722808 0.54117647 0.42352941 0.64313725
v -0.07308529 -0.01584401 0.01725846 0.54117647 0.42352941 0.64313725
v -0.07317425 -0.00859472 0.01723736 0.54117647 0.42352941 0.64313725
v -0.07346892 -0.00859472 0.01716563 0.54117647 0.42352941 0.64313725
v -0.05420942 -0.01598494 0.01727871 0.54117647 0.42352941 0.64313725
v -0.03573386 -0.01612495 0.01726690 0.54117647 0.42352941 0.64313725
v -0.01777537 -0.01617377 0.01726268 0.54117647 0.42352941 0.64313725
v -0.07308529 -0.00859472 0.01725846 0.54117647 0.42352941 0.64313725
v -0.07268497 -0.01621891 0.01725846 0.54117647 0.42352941 0.64313725
v -0.01777537 -0.01768903 0.01629050 0.54117647 0.42352941 0.64313725
v -0.05420942 -0.01758034 0.01643987 0.54117647 0.42352941 0.64313725
v -0.01777537 -0.01757942 0.01644072 0.54117647 0.42352941 0.64313725
v -0.01777537 -0.01749928 0.01655042 0.54117647 0.42352941 0.64313725
v -0.01777537 -0.01746704 0.01658165 0.54117647 0.42352941 0.64313725
v -0.05420942 -0.01746612 0.01658249 0.54117647 0.42352941 0.64313725
v -0.05420942 -0.01726623 0.01677406 0.54117647 0.42352941 0.64313725
v -0.07268497 -0.01723307 0.01680528 0.54117647 0.42352941 0.64313725
v -0.07299077 -0.01723307 0.01678165 0.54117647 0.42352941 0.64313725
v -0.07328544 -0.01723307 0.01670992 0.54117647 0.42352941 0.64313725
v -0.07302969 -0.01692450 0.01698588 0.54117647 0.42352941 0.64313725
v -0.07268497 -0.01658276 0.01716563 0.54117647 0.42352941 0.64313725
v -0.01777537 -0.01621891 0.01725846 0.54117647 0.42352941 0.64313725
v -0.03573386 -0.01631010 0.01723567 0.54117647 0.42352941 0.64313725
v -0.01777537 -0.01726716 0.01677322 0.54117647 0.42352941 0.64313725
v -0.07268497 -0.01692450 0.01701288 0.54117647 0.42352941 0.64313725
v -0.01777537 -0.01723307 0.01680528 0.54117647 0.42352941 0.64313725
v -0.03573386 -0.01715570 0.01685761 0.54117647 0.42352941 0.64313725
v -0.01777537 -0.01688304 0.01703145 0.54117647 0.42352941 0.64313725
v -0.01777537 -0.01658276 0.01716563 0.54117647 0.42352941 0.64313725
v -0.01777537 -0.01626589 0.01724665 0.54117647 0.42352941 0.64313725
v -0.01777537 -0.01692450 0.01701288 0.54117647 0.42352941 0.64313725
v -0.01777537 -0.01711793 0.01688292 0.54117647 0.42352941 0.64313725
f 1 2 3
f 1 3 7
f 1 7 25
f 1 25 35
f 1 35 63
f 1 63 91
f 1 91 126
f 1 126 125
f 1 125 127
f 1 127 94
f 1 94 93
f 1 93 92
f 1 92 64
f 1 64 38
f 1 38 27
f 1 27 19
f 1 19 4
f 1 4 20
f 1 20 28
f 1 28 40
f 1 40 73
f 1 73 72
f 1 72 105
f 1 105 141
f 1 141 162
f 1 162 161
f 1 161 166
f 1 166 143
f 1 143 113
f 1 113 75
f 1 75 43
f 1 43 31
f 1 31 23
f 1 23 22
f 1 22 18
f 1 18 17
f 1 17 16
f 1 16 15
f 1 15 14
f 1 14 13
f 1 13 12
f 1 12 11
f 1 11 10
f 1 10 9
f 1 9 8
f 1 8 5
f 1 5 2
f 2 5 3
f 3 6 21
f 3 21 30
f 3 30 42
f 3 42 50
f 3 50 49
f 3 49 48
f 3 48 47
f 3 47 46
f 3 46 45
f 3 45 44
f 3 44 78
f 3 78 77
f 3 77 76
f 3 76 112
f 3 112 111
f 3 111 110
f 3 110 109
f 3 109 108
f 3 108 142
f 3 142 165
f 3 165 180
f 3 180 188
f 3 188 187
f 3 187 186
f 3 186 189
f 3 189 190
f 3 190 184
f 3 184 182
f 3 182 172
f 3 172 171
f 3 171 170
f 3 170 168
f 3 168 146
f 3 146 145
f 3 145 114
f 3 114 79
f 3 79 51
f 3 51 32
f 3 32 24
f 3 24 7
f 3 5 8
f 3 8 9
f 3 9 10
f 3 10 11
f 3 11 12
f 3 12 13
f 3 13 14
f 3 14 15
f 3 15 16
f 3 16 17
f 3 17 18
f 3 18 6
f 4 19 26
f 4 26 37
f 4 37 68
f 4 68 100
f 4 100 132
f 4 132 131
f 4 131 134
f 4 134 107
f 4 107 74
f 4 74 41
f 4 41 29
f 4 29 20
f 6 18 22
f 6 22 23
f 6 23 21
f 7 24 34
f 7 34 25
f 19 27 26
f 20 29 28
f 21 23 31
f 21 31 30
f 24 32 33
f 24 33 34
f 25 34 62
f 25 62 35
f 26 27 36
f 26 36 37
f 27 38 36
f 28 29 39
f 28 39 40
f 29 41 39
f 30 31 42
f 31 43 44
f 31 44 45
f 31 45 46
f 31 46 47
f 31 47 48
f 31 48 49
f 31 49 50
f 31 50 42
f 32 51 52
f 32 52 53
f 32 53 33
f 33 53 34
f 34 53 54
f 34 54 55
f 34 55 56
f 34 56 57
f 34 57 58
f 34 58 59
f 34 59 60
f 34 60 61
f 34 61 62
f 35 62 63
f 36 38 64
f 36 64 65
f 36 65 66
f 36 66 67
f 36 67 68
f 36 68 37
f 39 69 70
f 39 70 71
f 39 71 72
f 39 72 73
f 39 73 40
f 39 41 74
f 39 74 69
f 43 75 76
f 43 76 77
f 43 77 78
f 43 78 44
f 51 79 80
f 51 80 52
f 52 81 53
f 52 80 81
f 53 81 54
f 54 81 82
f 54 82 83
f 54 83 55
f 55 83 84
f 55 84 56
f 56 84 85
f 56 85 57
f 57 85 58
f 58 85 86
f 58 86 87
f 58 87 59
f 59 87 88
f 59 88 60
f 60 88 61
f 61 88 89
f 61 89 90
f 61 90 62
f 62 90 63
f 63 90 91
f 64 92 65
f 65 92 93
f 65 93 94
f 65 94 95
f 65 95 96
f 65 96 66
f 66 97 98
f 66 98 67
f 66 96 97
f 67 99 68
f 67 98 99
f 68 99 100
f 69 74 101
f 69 101 102
f 69 102 70
f 70 102 103
f 70 103 104
f 70 104 71
f 71 105 72
f 71 104 106
f 71 106 141
f 71 141 105
f 74 107 101
f 75 108 109
f 75 109 110
f 75 110 111
f 75 111 112
f 75 112 76
f 75 113 144
f 75 144 142
f 75 142 108
f 79 114 81
f 79 81 80
f 81 115 116
f 81 116 82
f 81 114 117
f 81 117 115
f 82 116 118
f 82 118 119
f 82 119 83
f 83 119 84
f 84 119 120
f 84 120 85
f 85 120 121
f 85 121 122
f 85 122 86
f 86 122 87
f 87 122 123
f 87 123 124
f 87 124 88
f 88 124 89
f 89 124 96
f 89 96 95
f 89 95 90
f 90 95 125
f 90 125 126
f 90 126 91
f 94 127 95
f 95 127 125
f 96 124 97
f 97 128 129
f 97 129 98
f 97 124 123
f 97 123 128
f 98 129 99
f 99 129 130
f 99 130 101
f 99 101 131
f 99 131 132
f 99 132 100
f 101 130 133
f 101 133 102
f 101 107 134
f 101 134 131
f 102 133 103
f 103 133 135
f 103 135 136
f 103 136 137
f 103 137 104
f 104 137 138
f 104 138 139
f 104 139 140
f 104 140 106
f 106 140 162
f 106 162 141
f 113 143 144
f 114 145 117
f 115 117 145
f 115 145 146
f 115 146 116
f 116 147 169
f 116 169 148
f 116 148 149
f 116 149 118
f 116 146 147
f 118 149 119
f 119 150 151
f 119 151 120
f 119 149 150
f 120 151 152
f 120 152 121
f 121 152 122
f 122 152 153
f 122 153 128
f 122 128 123
f 128 153 129
f 129 153 154
f 129 154 130
f 130 154 133
f 133 154 135
f 135 154 155
f 135 155 156
f 135 156 136
f 136 156 157
f 136 157 137
f 137 157 138
f 138 157 178
f 138 178 158
f 138 158 159
f 138 159 139
f 139 159 140
f 140 159 160
f 140 160 161
f 140 161 162
f 142 163 164
f 142 164 165
f 142 144 163
f 143 166 160
f 143 160 144
f 144 160 159
f 144 159 167
f 144 167 163
f 146 168 147
f 147 168 170
f 147 170 169
f 148 169 171
f 148 171 172
f 148 172 173
f 148 173 174
f 148 174 175
f 148 175 176
f 148 176 149
f 149 176 150
f 150 177 156
f 150 156 151
f 150 176 177
f 151 156 152
f 152 156 155
f 152 155 153
f 153 155 154
f 156 177 157
f 157 177 176
f 157 176 178
f 158 178 179
f 158 179 159
f 159 179 167
f 160 166 161
f 163 167 164
f 164 167 165
f 165 167 180
f 167 179 181
f 167 181 180
f 169 170 171
f 172 182 174
f 172 174 173
f 174 182 175
f 175 183 176
f 175 182 184
f 175 184 185
f 175 185 183
f 176 183 178
f 178 183 179
f 179 183 186
f 179 186 187
f 179 187 181
f 180 181 188
f 181 187 188
f 183 185 189
f 183 189 186
f 184 190 185
f 185 190 189