# https://github.com/mikedh/trimesh
v 0.07742466 -0.00859472 0.01521959 0.79607843 0.45882353 0.78039216
v 0.07742466 -0.00859472 0.00867005 0.79607843 0.45882353 0.78039216
v 0.07739671 -0.00859472 0.01549723 0.79607843 0.45882353 0.78039216
v 0.07742466 -0.01584401 0.01521959 0.79607843 0.45882353 0.78039216
v 0.07742466 -0.01584401 0.00867005 0.79607843 0.45882353 0.78039216
v -0.00299588 -0.00859472 0.00867005 0.79607843 0.45882353 0.78039216
v 0.07738739 -0.00859472 0.01557909 0.79607843 0.45882353 0.78039216
v 0.07738739 -0.01584401 0.01557909 0.79607843 0.45882353 0.78039216
v 0.07738739 -0.01590941 0.01557403 0.79607843 0.45882353 0.78039216
v 0.07738739 -0.01597205 0.01555715 0.79607843 0.45882353 0.78039216
v 0.07738739 -0.01603192 0.01553099 0.79607843 0.45882353 0.78039216
v 0.07738739 -0.01608535 0.01549470 0.79607843 0.45882353 0.78039216
v 0.07738739 -0.01613140 0.01545082 0.79607843 0.45882353 0.78039216
v 0.07738739 -0.01616917 0.01539934 0.79607843 0.45882353 0.78039216
v 0.07738739 -0.01619680 0.01534280 0.79607843 0.45882353 0.78039216
v 0.07738739 -0.01621338 0.01528204 0.79607843 0.45882353 0.78039216
v 0.07738739 -0.01621891 0.01521959 0.79607843 0.45882353 0.78039216
v 0.07739671 -0.01613785 0.00867005 0.79607843 0.45882353 0.78039216
v -0.01777537 -0.00861038 0.00867005 0.79607843 0.45882353 0.78039216
v -0.00267905 -0.00859472 0.01530989 0.79607843 0.45882353 0.78039216
v 0.07728488 -0.00859472 0.01592762 0.79607843 0.45882353 0.78039216
v 0.07728488 -0.01584401 0.01592762 0.79607843 0.45882353 0.78039216
v 0.07728488 -0.01597205 0.01591665 0.79607843 0.45882353 0.78039216
v 0.07728488 -0.01609640 0.01588543 0.79607843 0.45882353 0.78039216
v 0.07728488 -0.01621338 0.01583311 0.79607843 0.45882353 0.78039216
v 0.07728488 -0.01631931 0.01576222 0.79607843 0.45882353 0.78039216
v 0.07728488 -0.01640958 0.01567445 0.79607843 0.45882353 0.78039216
v 0.07728488 -0.01648420 0.01557403 0.79607843 0.45882353 0.78039216
v 0.07728488 -0.01653854 0.01546179 0.79607843 0.45882353 0.78039216
v 0.07728488 -0.01657170 0.01534280 0.79607843 0.45882353 0.78039216
v 0.07728488 -0.01658276 0.01521959 0.79607843 0.45882353 0.78039216
v 0.07738739 -0.01621891 0.00867005 0.79607843 0.45882353 0.78039216
v -0.01777537 -0.01800498 0.00867005 0.79607843 0.45882353 0.78039216
v -0.01777537 -0.00891251 0.01530989 0.79607843 0.45882353 0.78039216
v -0.00153284 -0.00859472 0.01701373 0.79607843 0.45882353 0.78039216
v -0.00183104 -0.00859472 0.01683145 0.79607843 0.45882353 0.78039216
v -0.00211060 -0.00859472 0.01658840 0.79607843 0.45882353 0.78039216
v -0.00222243 -0.00859472 0.01645760 0.79607843 0.45882353 0.78039216
v -0.00233425 -0.00859472 0.01630654 0.79607843 0.45882353 0.78039216
v -0.00243676 -0.00859472 0.01615295 0.79607843 0.45882353 0.78039216
v -0.00251131 -0.00859472 0.01599345 0.79607843 0.45882353 0.78039216
v -0.00257654 -0.00859472 0.01582804 0.79607843 0.45882353 0.78039216
v -0.00262313 -0.00859472 0.01565757 0.79607843 0.45882353 0.78039216
v -0.00266041 -0.00859472 0.01548458 0.79607843 0.45882353 0.78039216
v 0.07724760 -0.00859472 0.01600273 0.79607843 0.45882353 0.78039216
v 0.07711714 -0.01584401 0.01625506 0.79607843 0.45882353 0.78039216
v 0.07711714 -0.01603192 0.01623903 0.79607843 0.45882353 0.78039216
v 0.07711714 -0.01621338 0.01619261 0.79607843 0.45882353 0.78039216
v 0.07711714 -0.01638379 0.01611581 0.79607843 0.45882353 0.78039216
v 0.07711714 -0.01653854 0.01601286 0.79607843 0.45882353 0.78039216
v 0.07711714 -0.01667118 0.01588543 0.79607843 0.45882353 0.78039216
v 0.07711714 -0.01677988 0.01573690 0.79607843 0.45882353 0.78039216
v 0.07711714 -0.01685909 0.01557403 0.79607843 0.45882353 0.78039216
v 0.07711714 -0.01690792 0.01539934 0.79607843 0.45882353 0.78039216
v 0.07711714 -0.01692450 0.01521959 0.79607843 0.45882353 0.78039216
v 0.07728488 -0.01658276 0.00867005 0.79607843 0.45882353 0.78039216
v 0.07715441 -0.01685080 0.00867005 0.79607843 0.45882353 0.78039216
v -0.01777537 -0.01800498 0.01521959 0.79607843 0.45882353 0.78039216
v 0.07513225 -0.01800498 0.00867005 0.79607843 0.45882353 0.78039216
v -0.01777537 -0.00892817 0.01548458 0.79607843 0.45882353 0.78039216
v -0.00115078 -0.00859472 0.01717238 0.79607843 0.45882353 0.78039216
v -0.00118805 -0.00859472 0.01715972 0.79607843 0.45882353 0.78039216
v -0.00150489 -0.00859472 0.01702723 0.79607843 0.45882353 0.78039216
v 0.07711714 -0.00859472 0.01625506 0.79607843 0.45882353 0.78039216
v 0.07694008 -0.00859472 0.01648291 0.79607843 0.45882353 0.78039216
v 0.07688417 -0.01584401 0.01655042 0.79607843 0.45882353 0.78039216
v 0.07688417 -0.01608535 0.01653017 0.79607843 0.45882353 0.78039216
v 0.07688417 -0.01631931 0.01647025 0.79607843 0.45882353 0.78039216
v 0.07688417 -0.01653854 0.01637236 0.79607843 0.45882353 0.78039216
v 0.07688417 -0.01673658 0.01623903 0.79607843 0.45882353 0.78039216
v 0.07688417 -0.01690792 0.01607531 0.79607843 0.45882353 0.78039216
v 0.07688417 -0.01704701 0.01588543 0.79607843 0.45882353 0.78039216
v 0.07688417 -0.01714925 0.01567445 0.79607843 0.45882353 0.78039216
v 0.07688417 -0.01721189 0.01545082 0.79607843 0.45882353 0.78039216
v 0.07711714 -0.01692450 0.00867005 0.79607843 0.45882353 0.78039216
v 0.07688417 -0.01723307 0.01521959 0.79607843 0.45882353 0.78039216
v 0.07513225 -0.01800498 0.01521959 0.79607843 0.45882353 0.78039216
v 0.03817421 -0.01798011 0.01548964 0.79607843 0.45882353 0.78039216
v -0.01777537 -0.01797182 0.01557909 0.79607843 0.45882353 0.78039216
v 0.07544909 -0.01797919 0.00867005 0.79607843 0.45882353 0.78039216
v -0.01777537 -0.00895949 0.01565757 0.79607843 0.45882353 0.78039216
v -0.00077803 -0.00859472 0.01726015 0.79607843 0.45882353 0.78039216
v -0.00081530 -0.00859472 0.01725171 0.79607843 0.45882353 0.78039216
v 0.07688417 -0.00859472 0.01655042 0.79607843 0.45882353 0.78039216
v 0.07666984 -0.00859472 0.01674705 0.79607843 0.45882353 0.78039216
v 0.07660461 -0.01584401 0.01680528 0.79607843 0.45882353 0.78039216
v 0.07660461 -0.01613140 0.01678165 0.79607843 0.45882353 0.78039216
v 0.07660461 -0.01640958 0.01670992 0.79607843 0.45882353 0.78039216
v 0.07660461 -0.01667118 0.01659347 0.79607843 0.45882353 0.78039216
v 0.07660461 -0.01690792 0.01643481 0.79607843 0.45882353 0.78039216
v 0.07660461 -0.01711148 0.01623903 0.79607843 0.45882353 0.78039216
v 0.07660461 -0.01727729 0.01601286 0.79607843 0.45882353 0.78039216
v 0.07660461 -0.01739888 0.01576222 0.79607843 0.45882353 0.78039216
v 0.07660461 -0.01747349 0.01549470 0.79607843 0.45882353 0.78039216
v 0.07660461 -0.01749928 0.01521959 0.79607843 0.45882353 0.78039216
v 0.07688417 -0.01723307 0.00867005 0.79607843 0.45882353 0.78039216
v 0.07682826 -0.01729018 0.00867005 0.79607843 0.45882353 0.78039216
v 0.07553296 -0.01797182 0.01521959 0.79607843 0.45882353 0.78039216
v 0.07553296 -0.01793958 0.01557403 0.79607843 0.45882353 0.78039216
v 0.07513225 -0.01797182 0.01557909 0.79607843 0.45882353 0.78039216
v -0.01725352 -0.01795985 0.01562297 0.79607843 0.45882353 0.78039216
v -0.01777537 -0.01793589 0.01570821 0.79607843 0.45882353 0.78039216
v 0.07553296 -0.01797182 0.00867005 0.79607843 0.45882353 0.78039216
v -0.01777537 -0.00898252 0.01574281 0.79607843 0.45882353 0.78039216
v -0.00074075 -0.00859472 0.01726352 0.79607843 0.45882353 0.78039216
v -0.01777537 -0.00900647 0.01582804 0.79607843 0.45882353 0.78039216
v -0.01777537 -0.00906726 0.01599345 0.79607843 0.45882353 0.78039216
v -0.01777537 -0.00910503 0.01607362 0.79607843 0.45882353 0.78039216
v -0.01777537 -0.00914279 0.01615295 0.79607843 0.45882353 0.78039216
v -0.01777537 -0.00918701 0.01622974 0.79607843 0.45882353 0.78039216
v -0.01777537 -0.00923214 0.01630654 0.79607843 0.45882353 0.78039216
v -0.01777537 -0.00933531 0.01645169 0.79607843 0.45882353 0.78039216
v -0.01777537 -0.00939242 0.01652004 0.79607843 0.45882353 0.78039216
v -0.01777537 -0.00945045 0.01658840 0.79607843 0.45882353 0.78039216
v 0.07660461 -0.00859472 0.01680528 0.79607843 0.45882353 0.78039216
v 0.07653006 -0.00859472 0.01685339 0.79607843 0.45882353 0.78039216
v 0.07627845 -0.01584401 0.01701288 0.79607843 0.45882353 0.78039216
v 0.07627845 -0.01616917 0.01698588 0.79607843 0.45882353 0.78039216
v 0.07627845 -0.01648420 0.01690487 0.79607843 0.45882353 0.78039216
v 0.07627845 -0.01677988 0.01677237 0.79607843 0.45882353 0.78039216
v 0.07627845 -0.01704701 0.01659347 0.79607843 0.45882353 0.78039216
v 0.07627845 -0.01727729 0.01637236 0.79607843 0.45882353 0.78039216
v 0.07627845 -0.01746428 0.01611581 0.79607843 0.45882353 0.78039216
v 0.07627845 -0.01760245 0.01583311 0.79607843 0.45882353 0.78039216
v 0.07627845 -0.01768627 0.01553099 0.79607843 0.45882353 0.78039216
v 0.07660461 -0.01749928 0.00867005 0.79607843 0.45882353 0.78039216
v 0.07627845 -0.01771482 0.01521959 0.79607843 0.45882353 0.78039216
v 0.07580320 -0.01790366 0.00867005 0.79607843 0.45882353 0.78039216
v 0.07591502 -0.01787418 0.01521959 0.79607843 0.45882353 0.78039216
v 0.07591502 -0.01784378 0.01555715 0.79607843 0.45882353 0.78039216
v 0.07553296 -0.01784378 0.01591665 0.79607843 0.45882353 0.78039216
v 0.07513225 -0.01787418 0.01592762 0.79607843 0.45882353 0.78039216
v 0.05665323 -0.01795985 0.01562297 0.79607843 0.45882353 0.78039216
v -0.01777537 -0.01788708 0.01588290 0.79607843 0.45882353 0.78039216
v 0.03817421 -0.01789905 0.01584070 0.79607843 0.45882353 0.78039216
v -0.00039596 -0.00859472 0.01729053 0.79607843 0.45882353 0.78039216
v -0.01777537 -0.00971389 0.01683060 0.79607843 0.45882353 0.78039216
v 0.07627845 -0.00859472 0.01701288 0.79607843 0.45882353 0.78039216
v 0.07591502 -0.01584401 0.01716563 0.79607843 0.45882353 0.78039216
v 0.07591502 -0.01619680 0.01713525 0.79607843 0.45882353 0.78039216
v 0.07591502 -0.01653854 0.01704748 0.79607843 0.45882353 0.78039216
v 0.07591502 -0.01685909 0.01690487 0.79607843 0.45882353 0.78039216
v 0.07591502 -0.01714925 0.01670992 0.79607843 0.45882353 0.78039216
v 0.07591502 -0.01739888 0.01647025 0.79607843 0.45882353 0.78039216
v 0.07591502 -0.01760245 0.01619261 0.79607843 0.45882353 0.78039216
v 0.07591502 -0.01775167 0.01588543 0.79607843 0.45882353 0.78039216
v 0.07627845 -0.01771482 0.00867005 0.79607843 0.45882353 0.78039216
v 0.07591502 -0.01787418 0.00867005 0.79607843 0.45882353 0.78039216
v 0.07553296 -0.01768627 0.01623903 0.79607843 0.45882353 0.78039216
v 0.07513225 -0.01771482 0.01625506 0.79607843 0.45882353 0.78039216
v 0.05665323 -0.01773509 0.01621371 0.79607843 0.45882353 0.78039216
v 0.00122550 -0.01779496 0.01609134 0.79607843 0.45882353 0.78039216
v -0.01777537 -0.01787418 0.01592762 0.79607843 0.45882353 0.78039216
v -0.01777537 -0.01001695 0.01702723 0.79607843 0.45882353 0.78039216
v -0.01777537 -0.01035224 0.01717238 0.79607843 0.45882353 0.78039216
v -0.01777537 -0.01070595 0.01726015 0.79607843 0.45882353 0.78039216
v -0.01777537 -0.01088649 0.01727534 0.79607843 0.45882353 0.78039216
v -0.01777537 -0.01107164 0.01729053 0.79607843 0.45882353 0.78039216
v 0.07513225 -0.00859472 0.01729053 0.79607843 0.45882353 0.78039216
v 0.07591502 -0.00859472 0.01716563 0.79607843 0.45882353 0.78039216
v 0.07583116 -0.00859472 0.01718673 0.79607843 0.45882353 0.78039216
v 0.07553296 -0.01584401 0.01725846 0.79607843 0.45882353 0.78039216
v 0.07553296 -0.01621338 0.01722808 0.79607843 0.45882353 0.78039216
v 0.07553296 -0.01657170 0.01713525 0.79607843 0.45882353 0.78039216
v 0.07553296 -0.01690792 0.01698588 0.79607843 0.45882353 0.78039216
v 0.07553296 -0.01721189 0.01678165 0.79607843 0.45882353 0.78039216
v 0.07553296 -0.01747349 0.01653017 0.79607843 0.45882353 0.78039216
v 0.07513225 -0.01749928 0.01655042 0.79607843 0.45882353 0.78039216
v 0.05665323 -0.01768811 0.01629219 0.79607843 0.45882353 0.78039216
v -0.01777537 -0.01771482 0.01625506 0.79607843 0.45882353 0.78039216
v -0.01725352 -0.01773509 0.01621371 0.79607843 0.45882353 0.78039216
v -0.01777537 -0.01781523 0.01604915 0.79607843 0.45882353 0.78039216
v -0.01777537 -0.01584401 0.01729053 0.79607843 0.45882353 0.78039216
v 0.07513225 -0.01584401 0.01729053 0.79607843 0.45882353 0.78039216
v 0.07543977 -0.00859472 0.01726606 0.79607843 0.45882353 0.78039216
v 0.07553296 -0.00859472 0.01725846 0.79607843 0.45882353 0.78039216
v 0.07513225 -0.01621891 0.01725846 0.79607843 0.45882353 0.78039216
v 0.07513225 -0.01658276 0.01716563 0.79607843 0.45882353 0.78039216
v 0.07513225 -0.01692450 0.01701288 0.79607843 0.45882353 0.78039216
v 0.07513225 -0.01723307 0.01680528 0.79607843 0.45882353 0.78039216
v 0.05665323 -0.01758034 0.01643987 0.79607843 0.45882353 0.78039216
v 0.05665323 -0.01726623 0.01677406 0.79607843 0.45882353 0.78039216
v 0.05665323 -0.01746612 0.01658249 0.79607843 0.45882353 0.78039216
v -0.01777537 -0.01746704 0.01658165 0.79607843 0.45882353 0.78039216
v -0.01777537 -0.01749928 0.01655042 0.79607843 0.45882353 0.78039216
v -0.01725352 -0.01768811 0.01629219 0.79607843 0.45882353 0.78039216
v -0.01777537 -0.01768903 0.01629050 0.79607843 0.45882353 0.78039216
v -0.01777537 -0.01617377 0.01726268 0.79607843 0.45882353 0.78039216
v -0.01725352 -0.01598494 0.01727871 0.79607843 0.45882353 0.78039216
v 0.05665323 -0.01598494 0.01727871 0.79607843 0.45882353 0.78039216
v 0.03817421 -0.01631010 0.01723567 0.79607843 0.45882353 0.78039216
v 0.03817421 -0.01612495 0.01726690 0.79607843 0.45882353 0.78039216
v -0.01777537 -0.01621891 0.01725846 0.79607843 0.45882353 0.78039216
v -0.01777537 -0.01658276 0.01716563 0.79607843 0.45882353 0.78039216
v 0.01970452 -0.01679646 0.01707027 0.79607843 0.45882353 0.78039216
v 0.03817421 -0.01715570 0.01685761 0.79607843 0.45882353 0.78039216
v -0.01777537 -0.01692450 0.01701288 0.79607843 0.45882353 0.78039216
v -0.01777537 -0.01723307 0.01680528 0.79607843 0.45882353 0.78039216
v -0.01777537 -0.01726716 0.01677322 0.79607843 0.45882353 0.78039216
v -0.01725352 -0.01758034 0.01643987 0.79607843 0.45882353 0.78039216
v -0.01777537 -0.01757942 0.01644072 0.79607843 0.45882353 0.78039216
v -0.01777537 -0.01626589 0.01724665 0.79607843 0.45882353 0.78039216
v -0.01725352 -0.01635524 0.01722386 0.79607843 0.45882353 0.78039216
v -0.01777537 -0.01688304 0.01703145 0.79607843 0.45882353 0.78039216
v -0.01725352 -0.01679646 0.01707027 0.79607843 0.45882353 0.78039216
v -0.01777537 -0.01711793 0.01688292 0.79607843 0.45882353 0.78039216
v -0.01725352 -0.01719439 0.01683145 0.79607843 0.45882353 0.78039216
f 1 2 6
f 1 6 20
f 1 20 44
f 1 44 43
f 1 43 42
f 1 42 41
f 1 41 40
f 1 40 39
f 1 39 38
f 1 38 37
f 1 37 36
f 1 36 35
f 1 35 63
f 1 63 62
f 1 62 61
f 1 61 83
f 1 83 82
f 1 82 105
f 1 105 136
f 1 136 159
f 1 159 175
f 1 175 176
f 1 176 161
f 1 161 160
f 1 160 138
f 1 138 116
f 1 116 115
f 1 115 85
f 1 85 84
f 1 84 65
f 1 65 64
f 1 64 45
f 1 45 21
f 1 21 7
f 1 7 3
f 1 3 4
f 1 4 5
f 1 5 2
f 2 5 18
f 2 18 32
f 2 32 56
f 2 56 57
f 2 57 75
f 2 75 96
f 2 96 97
f 2 97 126
f 2 126 147
f 2 147 148
f 2 148 128
f 2 128 103
f 2 103 80
f 2 80 59
f 2 59 33
f 2 33 19
f 2 19 6
f 3 7 8
f 3 8 4
f 4 8 9
f 4 9 10
f 4 10 11
f 4 11 12
f 4 12 13
f 4 13 14
f 4 14 15
f 4 15 16
f 4 16 17
f 4 17 18
f 4 18 5
f 6 19 20
f 7 21 22
f 7 22 8
f 8 22 9
f 9 22 23
f 9 23 24
f 9 24 10
f 10 24 11
f 11 24 25
f 11 25 26
f 11 26 12
f 12 26 13
f 13 26 27
f 13 27 28
f 13 28 14
f 14 28 15
f 15 28 29
f 15 29 30
f 15 30 16
f 16 30 31
f 16 31 17
f 17 32 18
f 17 31 56
f 17 56 32
f 19 33 58
f 19 58 79
f 19 79 102
f 19 102 134
f 19 134 153
f 19 153 172
f 19 172 170
f 19 170 187
f 19 187 201
f 19 201 185
f 19 185 184
f 19 184 199
f 19 199 198
f 19 198 206
f 19 206 197
f 19 197 204
f 19 204 194
f 19 194 202
f 19 202 193
f 19 193 188
f 19 188 173
f 19 173 158
f 19 158 157
f 19 157 156
f 19 156 155
f 19 155 154
f 19 154 137
f 19 137 114
f 19 114 113
f 19 113 112
f 19 112 111
f 19 111 110
f 19 110 109
f 19 109 108
f 19 108 107
f 19 107 106
f 19 106 104
f 19 104 81
f 19 81 60
f 19 60 34
f 19 34 35
f 19 35 36
f 19 36 37
f 19 37 38
f 19 38 39
f 19 39 40
f 19 40 41
f 19 41 42
f 19 42 43
f 19 43 44
f 19 44 20
f 21 45 22
f 22 45 46
f 22 46 47
f 22 47 23
f 23 47 24
f 24 47 48
f 24 48 25
f 25 48 49
f 25 49 50
f 25 50 26
f 26 50 51
f 26 51 27
f 27 51 28
f 28 51 52
f 28 52 53
f 28 53 29
f 29 53 54
f 29 54 30
f 30 54 55
f 30 55 31
f 31 55 57
f 31 57 56
f 33 59 77
f 33 77 58
f 34 60 61
f 34 61 62
f 34 62 63
f 34 63 35
f 45 64 46
f 46 64 65
f 46 65 66
f 46 66 67
f 46 67 47
f 47 67 48
f 48 67 68
f 48 68 69
f 48 69 49
f 49 69 50
f 50 69 70
f 50 70 71
f 50 71 51
f 51 71 72
f 51 72 52
f 52 72 53
f 53 72 73
f 53 73 74
f 53 74 54
f 54 74 55
f 55 75 57
f 55 74 76
f 55 76 96
f 55 96 75
f 58 77 78
f 58 78 79
f 59 80 77
f 60 81 82
f 60 82 83
f 60 83 61
f 65 84 66
f 66 84 85
f 66 85 86
f 66 86 87
f 66 87 67
f 67 87 68
f 68 87 88
f 68 88 89
f 68 89 69
f 69 89 90
f 69 90 70
f 70 90 71
f 71 90 91
f 71 91 92
f 71 92 72
f 72 92 93
f 72 93 73
f 73 93 74
f 74 93 94
f 74 94 95
f 74 95 76
f 76 95 97
f 76 97 96
f 77 80 98
f 77 98 99
f 77 99 100
f 77 100 78
f 78 100 79
f 79 101 102
f 79 100 133
f 79 133 101
f 80 103 98
f 81 104 82
f 82 104 106
f 82 106 107
f 82 107 108
f 82 108 109
f 82 109 110
f 82 110 111
f 82 111 112
f 82 112 113
f 82 113 114
f 82 114 105
f 85 115 86
f 86 115 116
f 86 116 117
f 86 117 87
f 87 117 118
f 87 118 119
f 87 119 88
f 88 119 89
f 89 119 120
f 89 120 121
f 89 121 90
f 90 121 122
f 90 122 91
f 91 122 92
f 92 122 123
f 92 123 124
f 92 124 93
f 93 124 94
f 94 124 125
f 94 125 95
f 95 126 97
f 95 125 127
f 95 127 147
f 95 147 126
f 98 103 128
f 98 128 129
f 98 129 130
f 98 130 99
f 99 131 100
f 99 130 131
f 100 131 132
f 100 132 133
f 101 134 102
f 101 133 135
f 101 135 134
f 105 114 137
f 105 137 136
f 116 138 117
f 117 138 160
f 117 160 139
f 117 139 118
f 118 139 140
f 118 140 141
f 118 141 119
f 119 141 142
f 119 142 120
f 120 142 121
f 121 142 143
f 121 143 144
f 121 144 122
f 122 144 145
f 122 145 123
f 123 145 124
f 124 145 146
f 124 146 130
f 124 130 125
f 125 130 127
f 127 130 129
f 127 129 148
f 127 148 147
f 128 148 129
f 130 146 131
f 131 149 150
f 131 150 132
f 131 146 145
f 131 145 149
f 132 135 133
f 132 150 151
f 132 151 152
f 132 152 153
f 132 153 134
f 132 134 135
f 136 137 154
f 136 154 155
f 136 155 156
f 136 156 157
f 136 157 158
f 136 158 173
f 136 173 174
f 136 174 159
f 139 160 161
f 139 161 162
f 139 162 163
f 139 163 140
f 140 163 141
f 141 163 164
f 141 164 165
f 141 165 142
f 142 165 166
f 142 166 143
f 143 166 144
f 144 166 167
f 144 167 145
f 145 167 149
f 149 167 168
f 149 168 150
f 150 168 181
f 150 181 169
f 150 169 186
f 150 186 170
f 150 170 171
f 150 171 151
f 151 171 152
f 152 171 172
f 152 172 153
f 159 174 175
f 161 176 162
f 162 176 175
f 162 175 174
f 162 174 163
f 163 174 177
f 163 177 178
f 163 178 164
f 164 178 165
f 165 178 179
f 165 179 166
f 166 179 180
f 166 180 168
f 166 168 167
f 168 180 182
f 168 182 183
f 168 183 184
f 168 184 185
f 168 185 200
f 168 200 181
f 169 181 200
f 169 200 186
f 170 186 187
f 170 172 171
f 173 188 189
f 173 189 190
f 173 190 174
f 174 190 177
f 177 191 178
f 177 190 192
f 177 192 188
f 177 188 193
f 177 193 191
f 178 191 194
f 178 194 205
f 178 205 195
f 178 195 179
f 179 196 180
f 179 195 205
f 179 205 197
f 179 197 196
f 180 196 207
f 180 207 198
f 180 198 199
f 180 199 182
f 182 199 184
f 182 184 183
f 185 201 200
f 186 200 201
f 186 201 187
f 188 192 189
f 189 192 190
f 191 193 202
f 191 202 203
f 191 203 194
f 194 203 202
f 194 204 205
f 196 197 206
f 196 206 207
f 197 205 204
f 198 207 206