# https://github.com/mikedh/trimesh
v 0.08239455 0.00830061 0.00846661 0.77647059 0.86666667 0.97647059
v 0.08239455 -0.00831993 0.00846661 0.77647059 0.86666667 0.97647059
v 0.08239455 0.00830061 0.00247320 0.77647059 0.86666667 0.97647059
v 0.07742033 0.00830061 0.00866314 0.77647059 0.86666667 0.97647059
v 0.07742033 0.00000010 0.00866921 0.77647059 0.86666667 0.97647059
v 0.08239455 -0.00831993 0.00247320 0.77647059 0.86666667 0.97647059
v 0.07742033 -0.00831993 0.00866314 0.77647059 0.86666667 0.97647059
v -0.00329965 0.00830061 0.00247320 0.77647059 0.86666667 0.97647059
v 0.07342752 0.00830061 0.00866921 0.77647059 0.86666667 0.97647059
v 0.07341913 -0.00831993 0.00866921 0.77647059 0.86666667 0.97647059
v -0.00329965 -0.00831993 0.00247320 0.77647059 0.86666667 0.97647059
v -0.00299767 0.00830061 0.00866921 0.77647059 0.86666667 0.97647059
v -0.00299767 -0.00831993 0.00866921 0.77647059 0.86666667 0.97647059
f 1 2 6
f 1 6 3
f 1 3 8
f 1 8 12
f 1 12 9
f 1 9 4
f 1 4 5
f 1 5 2
f 2 5 7
f 2 7 10
f 2 10 13
f 2 13 11
f 2 11 6
f 3 6 11
f 3 11 8
f 4 9 5
f 5 9 12
f 5 12 13
f 5 13 10
f 5 10 7
f 8 11 13
f 8 13 12