# https://github.com/mikedh/trimesh
v -0.01412672 -0.01800498 -0.00859470 0.15686275 0.10980392 0.65490196
v -0.01412672 -0.01800498 0.00247259 0.15686275 0.10980392 0.65490196
v -0.01412672 -0.00782317 -0.00859470 0.15686275 0.10980392 0.65490196
v 0.07513340 -0.01800498 -0.00859470 0.15686275 0.10980392 0.65490196
v -0.01412672 -0.00832773 0.00247259 0.15686275 0.10980392 0.65490196
v 0.07513340 -0.01800498 0.00247259 0.15686275 0.10980392 0.65490196
v -0.01412672 -0.00825723 0.00092885 0.15686275 0.10980392 0.65490196
v -0.00329101 -0.00771642 0.00247259 0.15686275 0.10980392 0.65490196
v -0.00347041 -0.00771642 -0.00109481 0.15686275 0.10980392 0.65490196
v -0.00382920 -0.00771642 -0.00859470 0.15686275 0.10980392 0.65490196
v 0.07544735 -0.01797880 -0.00859470 0.15686275 0.10980392 0.65490196
v 0.07536663 -0.01798585 0.00247259 0.15686275 0.10980392 0.65490196
v 0.07749251 -0.00771642 0.00247259 0.15686275 0.10980392 0.65490196
v 0.07742074 -0.00771642 -0.00859470 0.15686275 0.10980392 0.65490196
v 0.07552809 -0.01797175 -0.00859470 0.15686275 0.10980392 0.65490196
v 0.07552809 -0.01797175 0.00247259 0.15686275 0.10980392 0.65490196
v 0.07749251 -0.01440056 0.00247259 0.15686275 0.10980392 0.65490196
v 0.07749251 -0.00771642 -0.00858712 0.15686275 0.10980392 0.65490196
v 0.07742074 -0.01584374 -0.00859470 0.15686275 0.10980392 0.65490196
v 0.07561778 -0.01795060 -0.00859470 0.15686275 0.10980392 0.65490196
v 0.07572542 -0.01792341 0.00003510 0.15686275 0.10980392 0.65490196
v 0.07575234 -0.01791535 0.00247259 0.15686275 0.10980392 0.65490196
v 0.07749251 -0.01440056 -0.00858712 0.15686275 0.10980392 0.65490196
v 0.07742074 -0.01584374 0.00247259 0.15686275 0.10980392 0.65490196
v 0.07740281 -0.01606127 0.00247259 0.15686275 0.10980392 0.65490196
v 0.07739384 -0.01613781 -0.00859470 0.15686275 0.10980392 0.65490196
v 0.07583306 -0.01789521 -0.00859470 0.15686275 0.10980392 0.65490196
v 0.07591379 -0.01787406 0.00247259 0.15686275 0.10980392 0.65490196
v 0.07738487 -0.01621939 0.00247259 0.15686275 0.10980392 0.65490196
v 0.07738487 -0.01621939 -0.00859470 0.15686275 0.10980392 0.65490196
v 0.07591379 -0.01787406 -0.00859470 0.15686275 0.10980392 0.65490196
v 0.07599452 -0.01783981 -0.00859470 0.15686275 0.10980392 0.65490196
v 0.07612907 -0.01778140 0.00247259 0.15686275 0.10980392 0.65490196
v 0.07728620 -0.01658295 0.00247259 0.15686275 0.10980392 0.65490196
v 0.07736693 -0.01629794 -0.00859470 0.15686275 0.10980392 0.65490196
v 0.07628156 -0.01771493 -0.00859470 0.15686275 0.10980392 0.65490196
v 0.07628156 -0.01771493 0.00247259 0.15686275 0.10980392 0.65490196
v 0.07718753 -0.01678135 0.00247259 0.15686275 0.10980392 0.65490196
v 0.07725032 -0.01665647 -0.00859470 0.15686275 0.10980392 0.65490196
v 0.07728620 -0.01658295 -0.00859470 0.15686275 0.10980392 0.65490196
v 0.07646993 -0.01759005 0.00247259 0.15686275 0.10980392 0.65490196
v 0.07660448 -0.01749941 -0.00859470 0.15686275 0.10980392 0.65490196
v 0.07711577 -0.01692436 0.00247259 0.15686275 0.10980392 0.65490196
v 0.07711577 -0.01692436 -0.00859470 0.15686275 0.10980392 0.65490196
v 0.07660448 -0.01749941 0.00247259 0.15686275 0.10980392 0.65490196
v 0.07666727 -0.01744201 -0.00859470 0.15686275 0.10980392 0.65490196
v 0.07698122 -0.01710362 0.00247259 0.15686275 0.10980392 0.65490196
v 0.07693637 -0.01716606 -0.00859470 0.15686275 0.10980392 0.65490196
v 0.07674800 -0.01736547 0.00003510 0.15686275 0.10980392 0.65490196
v 0.07672109 -0.01738763 0.00247259 0.15686275 0.10980392 0.65490196
v 0.07682873 -0.01728994 -0.00859470 0.15686275 0.10980392 0.65490196
v 0.07688255 -0.01723253 0.00247259 0.15686275 0.10980392 0.65490196
v 0.07688255 -0.01723253 -0.00859470 0.15686275 0.10980392 0.65490196
f 1 2 5
f 1 5 7
f 1 7 3
f 1 3 10
f 1 10 14
f 1 14 19
f 1 19 26
f 1 26 30
f 1 30 35
f 1 35 40
f 1 40 39
f 1 39 44
f 1 44 48
f 1 48 53
f 1 53 51
f 1 51 46
f 1 46 42
f 1 42 36
f 1 36 32
f 1 32 31
f 1 31 27
f 1 27 20
f 1 20 15
f 1 15 11
f 1 11 4
f 1 4 6
f 1 6 2
f 2 6 12
f 2 12 16
f 2 16 22
f 2 22 28
f 2 28 33
f 2 33 37
f 2 37 41
f 2 41 45
f 2 45 50
f 2 50 52
f 2 52 47
f 2 47 43
f 2 43 38
f 2 38 34
f 2 34 29
f 2 29 25
f 2 25 24
f 2 24 17
f 2 17 13
f 2 13 8
f 2 8 5
f 3 7 8
f 3 8 9
f 3 9 10
f 4 11 12
f 4 12 6
f 5 8 7
f 8 13 18
f 8 18 14
f 8 14 10
f 8 10 9
f 11 15 16
f 11 16 12
f 13 17 23
f 13 23 18
f 14 18 23
f 14 23 19
f 15 20 16
f 16 20 21
f 16 21 22
f 17 24 19
f 17 19 23
f 19 25 26
f 19 24 25
f 20 27 21
f 21 27 31
f 21 31 28
f 21 28 22
f 25 29 30
f 25 30 26
f 28 31 32
f 28 32 33
f 29 34 35
f 29 35 30
f 32 36 33
f 33 36 37
f 34 38 39
f 34 39 40
f 34 40 35
f 36 41 37
f 36 42 41
f 38 43 39
f 39 43 44
f 41 42 45
f 42 46 45
f 43 47 48
f 43 48 44
f 45 46 49
f 45 49 50
f 46 51 49
f 47 52 48
f 48 52 53
f 49 51 52
f 49 52 50
f 51 53 52