# https://github.com/mikedh/trimesh
v -0.01437253 0.01800498 0.00866921 0.11764706 0.63921569 0.14117647
v -0.01437253 0.01800498 0.00247380 0.11764706 0.63921569 0.14117647
v -0.03231564 0.01800498 0.00866921 0.11764706 0.63921569 0.14117647
v 0.07512973 0.01800308 0.00866921 0.11764706 0.63921569 0.14117647
v -0.03231564 0.01800498 0.00247380 0.11764706 0.63921569 0.14117647
v 0.07512973 0.01800308 0.00247380 0.11764706 0.63921569 0.14117647
v -0.03231564 0.00861123 0.00866921 0.11764706 0.63921569 0.14117647
v 0.07521955 0.01799738 0.00866921 0.11764706 0.63921569 0.14117647
v -0.03231564 0.00832816 0.00247380 0.11764706 0.63921569 0.14117647
v 0.07529815 0.01799073 0.00247380 0.11764706 0.63921569 0.14117647
v -0.00298684 0.00830061 0.00866921 0.11764706 0.63921569 0.14117647
v 0.07552272 0.01797173 0.00866921 0.11764706 0.63921569 0.14117647
v -0.00329001 0.00830061 0.00251929 0.11764706 0.63921569 0.14117647
v -0.00329001 0.00830061 0.00247380 0.11764706 0.63921569 0.14117647
v 0.07552272 0.01797173 0.00247380 0.11764706 0.63921569 0.14117647
v 0.07342300 0.00830061 0.00866921 0.11764706 0.63921569 0.14117647
v 0.07564623 0.01794229 0.00866921 0.11764706 0.63921569 0.14117647
v 0.08239455 0.00830061 0.00247380 0.11764706 0.63921569 0.14117647
v 0.07574729 0.01791474 0.00247380 0.11764706 0.63921569 0.14117647
v 0.07742034 0.00830061 0.00866253 0.11764706 0.63921569 0.14117647
v 0.07742034 0.01437914 0.00866921 0.11764706 0.63921569 0.14117647
v 0.07590449 0.01787389 0.00247380 0.11764706 0.63921569 0.14117647
v 0.07590449 0.01787389 0.00866921 0.11764706 0.63921569 0.14117647
v 0.08239455 0.01419866 0.00247380 0.11764706 0.63921569 0.14117647
v 0.08239455 0.00830061 0.00846603 0.11764706 0.63921569 0.14117647
v 0.07742034 0.01584392 0.00866921 0.11764706 0.63921569 0.14117647
v 0.07606169 0.01780740 0.00247380 0.11764706 0.63921569 0.14117647
v 0.07619642 0.01774945 0.00866921 0.11764706 0.63921569 0.14117647
v 0.08239455 0.01419866 0.00846603 0.11764706 0.63921569 0.14117647
v 0.07627503 0.01771525 0.00247380 0.11764706 0.63921569 0.14117647
v 0.07738665 0.01613839 0.00866921 0.11764706 0.63921569 0.14117647
v 0.07627503 0.01771525 0.00866921 0.11764706 0.63921569 0.14117647
v 0.07736419 0.01629798 0.00866921 0.11764706 0.63921569 0.14117647
v 0.07737542 0.01621913 0.00866921 0.11764706 0.63921569 0.14117647
v 0.07660065 0.01749867 0.00866921 0.11764706 0.63921569 0.14117647
v 0.07669048 0.01741983 0.00866921 0.11764706 0.63921569 0.14117647
v 0.07688136 0.01723270 0.00866921 0.11764706 0.63921569 0.14117647
v 0.07693751 0.01716620 0.00866921 0.11764706 0.63921569 0.14117647
v 0.07711717 0.01692397 0.00866921 0.11764706 0.63921569 0.14117647
v 0.07727436 0.01658295 0.00866921 0.11764706 0.63921569 0.14117647
f 1 2 5
f 1 5 3
f 1 3 7
f 1 7 11
f 1 11 16
f 1 16 21
f 1 21 26
f 1 26 31
f 1 31 34
f 1 34 33
f 1 33 40
f 1 40 39
f 1 39 38
f 1 38 37
f 1 37 36
f 1 36 35
f 1 35 32
f 1 32 28
f 1 28 23
f 1 23 17
f 1 17 12
f 1 12 8
f 1 8 4
f 1 4 6
f 1 6 2
f 2 6 10
f 2 10 15
f 2 15 19
f 2 19 22
f 2 22 27
f 2 27 30
f 2 30 24
f 2 24 18
f 2 18 14
f 2 14 9
f 2 9 5
f 3 5 9
f 3 9 7
f 4 8 6
f 6 8 10
f 7 9 11
f 8 12 15
f 8 15 10
f 9 13 11
f 9 14 13
f 11 13 14
f 11 14 18
f 11 18 25
f 11 25 20
f 11 20 16
f 12 17 15
f 15 17 19
f 16 20 21
f 17 22 19
f 17 23 22
f 18 24 29
f 18 29 25
f 20 25 21
f 21 25 29
f 21 29 26
f 22 23 27
f 23 28 27
f 24 30 32
f 24 32 29
f 26 29 31
f 27 28 30
f 28 32 30
f 29 33 34
f 29 34 31
f 29 32 35
f 29 35 36
f 29 36 37
f 29 37 38
f 29 38 39
f 29 39 40
f 29 40 33