# https://github.com/mikedh/trimesh
v -0.03146129 0.01800498 -0.00859555 0.38039216 0.78823529 0.52549020
v -0.03146129 -0.01800498 -0.00859555 0.38039216 0.78823529 0.52549020
v -0.03146129 0.01800498 -0.01514756 0.38039216 0.78823529 0.52549020
v -0.07268889 0.01800498 -0.00859555 0.38039216 0.78823529 0.52549020
v -0.03146129 -0.01800498 -0.01514756 0.38039216 0.78823529 0.52549020
v -0.07268889 -0.01800498 -0.00859555 0.38039216 0.78823529 0.52549020
v -0.03146129 0.01798031 -0.01540501 0.38039216 0.78823529 0.52549020
v -0.03573639 0.01798031 -0.01541683 0.38039216 0.78823529 0.52549020
v -0.07268889 0.01800498 -0.01514756 0.38039216 0.78823529 0.52549020
v -0.07308559 0.01796973 -0.00859555 0.38039216 0.78823529 0.52549020
v -0.03573639 -0.01798031 -0.01541683 0.38039216 0.78823529 0.52549020
v -0.03146129 -0.01798031 -0.01540670 0.38039216 0.78823529 0.52549020
v -0.07268889 -0.01800498 -0.01514756 0.38039216 0.78823529 0.52549020
v -0.07308559 -0.01796973 -0.00859555 0.38039216 0.78823529 0.52549020
v -0.03146129 0.01796973 -0.01550715 0.38039216 0.78823529 0.52549020
v -0.07268889 0.01796973 -0.01550715 0.38039216 0.78823529 0.52549020
v -0.07307715 0.01793801 -0.01550715 0.38039216 0.78823529 0.52549020
v -0.07308559 0.01796973 -0.01514756 0.38039216 0.78823529 0.52549020
v -0.07338523 0.01789571 -0.00859555 0.38039216 0.78823529 0.52549020
v -0.03146129 -0.01796973 -0.01550715 0.38039216 0.78823529 0.52549020
v -0.07268889 -0.01796973 -0.01550715 0.38039216 0.78823529 0.52549020
v -0.07308559 -0.01796973 -0.01514756 0.38039216 0.78823529 0.52549020
v -0.07307715 -0.01796973 -0.01521002 0.38039216 0.78823529 0.52549020
v -0.07306027 -0.01796973 -0.01526996 0.38039216 0.78823529 0.52549020
v -0.07303073 -0.01796973 -0.01532735 0.38039216 0.78823529 0.52549020
v -0.07299275 -0.01796973 -0.01537800 0.38039216 0.78823529 0.52549020
v -0.07294211 -0.01796973 -0.01542274 0.38039216 0.78823529 0.52549020
v -0.07288724 -0.01796973 -0.01545904 0.38039216 0.78823529 0.52549020
v -0.07282394 -0.01796973 -0.01548520 0.38039216 0.78823529 0.52549020
v -0.07275642 -0.01796973 -0.01550124 0.38039216 0.78823529 0.52549020
v -0.07338523 -0.01789571 -0.00859555 0.38039216 0.78823529 0.52549020
v -0.03146129 0.01789571 -0.01577811 0.38039216 0.78823529 0.52549020
v -0.05420842 0.01795916 -0.01555020 0.38039216 0.78823529 0.52549020
v -0.07268889 0.01787456 -0.01585577 0.38039216 0.78823529 0.52549020
v -0.07306027 0.01784284 -0.01585577 0.38039216 0.78823529 0.52549020
v -0.07345697 0.01784284 -0.01550715 0.38039216 0.78823529 0.52549020
v -0.07346964 0.01787456 -0.01514756 0.38039216 0.78823529 0.52549020
v -0.07346964 0.01787456 -0.00859555 0.38039216 0.78823529 0.52549020
v -0.03146129 -0.01789571 -0.01577895 0.38039216 0.78823529 0.52549020
v -0.05420842 -0.01795916 -0.01555020 0.38039216 0.78823529 0.52549020
v -0.07282394 -0.01787456 -0.01584480 0.38039216 0.78823529 0.52549020
v -0.07268889 -0.01787456 -0.01585577 0.38039216 0.78823529 0.52549020
v -0.07346964 -0.01787456 -0.01514756 0.38039216 0.78823529 0.52549020
v -0.07345697 -0.01787456 -0.01526996 0.38039216 0.78823529 0.52549020
v -0.07342321 -0.01787456 -0.01538982 0.38039216 0.78823529 0.52549020
v -0.07336413 -0.01787456 -0.01550124 0.38039216 0.78823529 0.52549020
v -0.07328817 -0.01787456 -0.01560254 0.38039216 0.78823529 0.52549020
v -0.07319110 -0.01787456 -0.01568948 0.38039216 0.78823529 0.52549020
v -0.07307715 -0.01787456 -0.01576039 0.38039216 0.78823529 0.52549020
v -0.07295477 -0.01787456 -0.01581272 0.38039216 0.78823529 0.52549020
v -0.07346964 -0.01787456 -0.00859555 0.38039216 0.78823529 0.52549020
v -0.03146129 0.01787456 -0.01584480 0.38039216 0.78823529 0.52549020
v -0.03573639 0.01787456 -0.01585577 0.38039216 0.78823529 0.52549020
v -0.07268889 0.01771242 -0.01618244 0.38039216 0.78823529 0.52549020
v -0.07303073 0.01768422 -0.01618244 0.38039216 0.78823529 0.52549020
v -0.03573639 0.01775472 -0.01610056 0.38039216 0.78823529 0.52549020
v -0.03146129 0.01771947 -0.01617231 0.38039216 0.78823529 0.52549020
v -0.05420842 0.01773357 -0.01614192 0.38039216 0.78823529 0.52549020
v -0.07342321 0.01775119 -0.01585577 0.38039216 0.78823529 0.52549020
v -0.07381148 0.01768422 -0.01550715 0.38039216 0.78823529 0.52549020
v -0.07382836 0.01771242 -0.01514756 0.38039216 0.78823529 0.52549020
v -0.07375239 0.01774767 -0.00859555 0.38039216 0.78823529 0.52549020
v -0.03146129 -0.01787456 -0.01585577 0.38039216 0.78823529 0.52549020
v -0.07288724 -0.01771242 -0.01616640 0.38039216 0.78823529 0.52549020
v -0.07307715 -0.01771242 -0.01611998 0.38039216 0.78823529 0.52549020
v -0.07268889 -0.01771242 -0.01618244 0.38039216 0.78823529 0.52549020
v -0.03146129 -0.01771947 -0.01617316 0.38039216 0.78823529 0.52549020
v -0.07375239 -0.01774767 -0.00859555 0.38039216 0.78823529 0.52549020
v -0.07382836 -0.01771242 -0.01514756 0.38039216 0.78823529 0.52549020
v -0.07381148 -0.01771242 -0.01532735 0.38039216 0.78823529 0.52549020
v -0.07376083 -0.01771242 -0.01550124 0.38039216 0.78823529 0.52549020
v -0.07367643 -0.01771242 -0.01566500 0.38039216 0.78823529 0.52549020
v -0.07356248 -0.01771242 -0.01581272 0.38039216 0.78823529 0.52549020
v -0.07342321 -0.01771242 -0.01594018 0.38039216 0.78823529 0.52549020
v -0.07325863 -0.01771242 -0.01604401 0.38039216 0.78823529 0.52549020
v -0.03146129 0.01786751 -0.01586506 0.38039216 0.78823529 0.52549020
v -0.03146129 0.01783931 -0.01592752 0.38039216 0.78823529 0.52549020
v -0.07268889 0.01749740 -0.01647788 0.38039216 0.78823529 0.52549020
v -0.07299275 0.01747273 -0.01647788 0.38039216 0.78823529 0.52549020
v -0.03146129 0.01770889 -0.01619088 0.38039216 0.78823529 0.52549020
v -0.05420842 0.01768774 -0.01621958 0.38039216 0.78823529 0.52549020
v -0.07328817 0.01739870 -0.01647788 0.38039216 0.78823529 0.52549020
v -0.07336413 0.01759962 -0.01618244 0.38039216 0.78823529 0.52549020
v -0.07367643 0.01746215 -0.01618244 0.38039216 0.78823529 0.52549020
v -0.07376083 0.01759962 -0.01585577 0.38039216 0.78823529 0.52549020
v -0.07413644 0.01747273 -0.01550715 0.38039216 0.78823529 0.52549020
v -0.07382836 0.01771242 -0.00859555 0.38039216 0.78823529 0.52549020
v -0.07415754 0.01749740 -0.01514756 0.38039216 0.78823529 0.52549020
v -0.07390010 0.01766659 -0.00859555 0.38039216 0.78823529 0.52549020
v -0.07294211 -0.01749740 -0.01645762 0.38039216 0.78823529 0.52549020
v -0.07319110 -0.01749740 -0.01639769 0.38039216 0.78823529 0.52549020
v -0.07268889 -0.01749740 -0.01647788 0.38039216 0.78823529 0.52549020
v -0.05420842 -0.01768774 -0.01621958 0.38039216 0.78823529 0.52549020
v -0.03146129 -0.01770889 -0.01619173 0.38039216 0.78823529 0.52549020
v -0.07382836 -0.01771242 -0.00859555 0.38039216 0.78823529 0.52549020
v -0.07390010 -0.01766659 -0.00859555 0.38039216 0.78823529 0.52549020
v -0.07415754 -0.01749740 -0.01514756 0.38039216 0.78823529 0.52549020
v -0.07413644 -0.01749740 -0.01537800 0.38039216 0.78823529 0.52549020
v -0.07406891 -0.01749740 -0.01560254 0.38039216 0.78823529 0.52549020
v -0.07395919 -0.01749740 -0.01581272 0.38039216 0.78823529 0.52549020
v -0.07381148 -0.01749740 -0.01600265 0.38039216 0.78823529 0.52549020
v -0.07342321 -0.01749740 -0.01629977 0.38039216 0.78823529 0.52549020
v -0.07363001 -0.01749740 -0.01616640 0.38039216 0.78823529 0.52549020
v -0.07268889 0.01723304 -0.01673365 0.38039216 0.78823529 0.52549020
v -0.05420842 0.01752560 -0.01644159 0.38039216 0.78823529 0.52549020
v -0.03146129 0.01750445 -0.01646944 0.38039216 0.78823529 0.52549020
v -0.03573639 0.01749740 -0.01647788 0.38039216 0.78823529 0.52549020
v -0.03146129 0.01749035 -0.01648548 0.38039216 0.78823529 0.52549020
v -0.05420842 0.01746568 -0.01650996 0.38039216 0.78823529 0.52549020
v -0.07294211 0.01721189 -0.01673365 0.38039216 0.78823529 0.52549020
v -0.03146129 0.01754675 -0.01641288 0.38039216 0.78823529 0.52549020
v -0.07319110 0.01714844 -0.01673365 0.38039216 0.78823529 0.52549020
v -0.07342321 0.01704622 -0.01673365 0.38039216 0.78823529 0.52549020
v -0.07356248 0.01727533 -0.01647788 0.38039216 0.78823529 0.52549020
v -0.07395919 0.01727533 -0.01618244 0.38039216 0.78823529 0.52549020
v -0.07406891 0.01739870 -0.01585577 0.38039216 0.78823529 0.52549020
v -0.07433479 0.01714844 -0.01585577 0.38039216 0.78823529 0.52549020
v -0.07441075 0.01721189 -0.01550715 0.38039216 0.78823529 0.52549020
v -0.07444029 0.01723304 -0.01514756 0.38039216 0.78823529 0.52549020
v -0.07415754 0.01749740 -0.00859555 0.38039216 0.78823529 0.52549020
v -0.07299275 -0.01723304 -0.01670917 0.38039216 0.78823529 0.52549020
v -0.07268889 -0.01723304 -0.01673365 0.38039216 0.78823529 0.52549020
v -0.07328817 -0.01723304 -0.01663742 0.38039216 0.78823529 0.52549020
v -0.05420842 -0.01752560 -0.01644159 0.38039216 0.78823529 0.52549020
v -0.05420842 -0.01746568 -0.01650996 0.38039216 0.78823529 0.52549020
v -0.03146129 -0.01749035 -0.01648632 0.38039216 0.78823529 0.52549020
v -0.03146129 -0.01750445 -0.01646944 0.38039216 0.78823529 0.52549020
v -0.03146129 -0.01754675 -0.01641288 0.38039216 0.78823529 0.52549020
v -0.07415754 -0.01749740 -0.00859555 0.38039216 0.78823529 0.52549020
v -0.07444029 -0.01723304 -0.01514756 0.38039216 0.78823529 0.52549020
v -0.07441075 -0.01723304 -0.01542274 0.38039216 0.78823529 0.52549020
v -0.07433479 -0.01723304 -0.01568948 0.38039216 0.78823529 0.52549020
v -0.07420396 -0.01723304 -0.01594018 0.38039216 0.78823529 0.52549020
v -0.07381148 -0.01723304 -0.01636224 0.38039216 0.78823529 0.52549020
v -0.07402671 -0.01723304 -0.01616640 0.38039216 0.78823529 0.52549020
v -0.07356248 -0.01723304 -0.01652093 0.38039216 0.78823529 0.52549020
v -0.07268889 0.01692285 -0.01694046 0.38039216 0.78823529 0.52549020
v -0.03146129 0.01744100 -0.01653444 0.38039216 0.78823529 0.52549020
v -0.03573639 0.01723304 -0.01673365 0.38039216 0.78823529 0.52549020
v -0.03146129 0.01701097 -0.01688221 0.38039216 0.78823529 0.52549020
v -0.07288724 0.01690522 -0.01694046 0.38039216 0.78823529 0.52549020
v -0.07307715 0.01685940 -0.01694046 0.38039216 0.78823529 0.52549020
v -0.07325863 0.01677833 -0.01694046 0.38039216 0.78823529 0.52549020
v -0.07342321 0.01666906 -0.01694046 0.38039216 0.78823529 0.52549020
v -0.07363001 0.01690522 -0.01673365 0.38039216 0.78823529 0.52549020
v -0.07381148 0.01710967 -0.01647788 0.38039216 0.78823529 0.52549020
v -0.07420396 0.01704622 -0.01618244 0.38039216 0.78823529 0.52549020
v -0.07440231 0.01677833 -0.01618244 0.38039216 0.78823529 0.52549020
v -0.07454580 0.01685940 -0.01585577 0.38039216 0.78823529 0.52549020
v -0.07457112 0.01687350 -0.01575532 0.38039216 0.78823529 0.52549020
v -0.07457112 0.01699335 -0.01550715 0.38039216 0.78823529 0.52549020
v -0.07444029 0.01723304 -0.00859555 0.38039216 0.78823529 0.52549020
v -0.07457112 0.01704974 -0.01514756 0.38039216 0.78823529 0.52549020
v -0.07303073 -0.01692285 -0.01691344 0.38039216 0.78823529 0.52549020
v -0.07268889 -0.01692285 -0.01694046 0.38039216 0.78823529 0.52549020
v -0.03146129 -0.01693342 -0.01693455 0.38039216 0.78823529 0.52549020
v -0.03573639 -0.01723304 -0.01673365 0.38039216 0.78823529 0.52549020
v -0.07367643 -0.01692285 -0.01669988 0.38039216 0.78823529 0.52549020
v -0.07336413 -0.01692285 -0.01683241 0.38039216 0.78823529 0.52549020
v -0.03146129 -0.01724009 -0.01672605 0.38039216 0.78823529 0.52549020
v -0.07444029 -0.01723304 -0.00859555 0.38039216 0.78823529 0.52549020
v -0.07457112 -0.01704974 -0.01514756 0.38039216 0.78823529 0.52549020
v -0.07457112 -0.01701097 -0.01544806 0.38039216 0.78823529 0.52549020
v -0.07457112 -0.01692285 -0.01567428 0.38039216 0.78823529 0.52549020
v -0.07454580 -0.01692285 -0.01576039 0.38039216 0.78823529 0.52549020
v -0.07440231 -0.01692285 -0.01604401 0.38039216 0.78823529 0.52549020
v -0.07420396 -0.01692285 -0.01629977 0.38039216 0.78823529 0.52549020
v -0.07395919 -0.01692285 -0.01652093 0.38039216 0.78823529 0.52549020
v -0.05420842 0.01679595 -0.01699786 0.38039216 0.78823529 0.52549020
v -0.07268889 0.01658094 -0.01709324 0.38039216 0.78823529 0.52549020
v -0.07282394 0.01657036 -0.01709324 0.38039216 0.78823529 0.52549020
v -0.03146129 0.01693342 -0.01693370 0.38039216 0.78823529 0.52549020
v -0.03573639 0.01692285 -0.01694046 0.38039216 0.78823529 0.52549020
v -0.03146129 0.01684883 -0.01697422 0.38039216 0.78823529 0.52549020
v -0.03146129 0.01730706 -0.01666190 0.38039216 0.78823529 0.52549020
v -0.03146129 0.01724009 -0.01672521 0.38039216 0.78823529 0.52549020
v -0.03146129 0.01722246 -0.01673956 0.38039216 0.78823529 0.52549020
v -0.07295477 0.01653864 -0.01709324 0.38039216 0.78823529 0.52549020
v -0.07307715 0.01648224 -0.01709324 0.38039216 0.78823529 0.52549020
v -0.07319110 0.01640822 -0.01709324 0.38039216 0.78823529 0.52549020
v -0.07356248 0.01653864 -0.01694046 0.38039216 0.78823529 0.52549020
v -0.07381148 0.01673603 -0.01673365 0.38039216 0.78823529 0.52549020
v -0.07402671 0.01690522 -0.01647788 0.38039216 0.78823529 0.52549020
v -0.07420396 0.01666906 -0.01647788 0.38039216 0.78823529 0.52549020
v -0.07433479 0.01640822 -0.01647788 0.38039216 0.78823529 0.52549020
v -0.07454580 0.01648224 -0.01618244 0.38039216 0.78823529 0.52549020
v -0.07457112 0.01649282 -0.01612926 0.38039216 0.78823529 0.52549020
v -0.07457112 0.01680653 -0.01585577 0.38039216 0.78823529 0.52549020
v -0.07457112 0.01704974 -0.00859555 0.38039216 0.78823529 0.52549020
v -0.07342321 -0.01658094 -0.01697591 0.38039216 0.78823529 0.52549020
v -0.07306027 -0.01658094 -0.01706370 0.38039216 0.78823529 0.52549020
v -0.07268889 -0.01658094 -0.01709324 0.38039216 0.78823529 0.52549020
v -0.03146129 -0.01684883 -0.01697422 0.38039216 0.78823529 0.52549020
v -0.03573639 -0.01692285 -0.01694046 0.38039216 0.78823529 0.52549020
v -0.03146129 -0.01691227 -0.01694468 0.38039216 0.78823529 0.52549020
v -0.03146129 -0.01722246 -0.01673956 0.38039216 0.78823529 0.52549020
v -0.07376083 -0.01658094 -0.01683241 0.38039216 0.78823529 0.52549020
v -0.07457112 -0.01704974 -0.00859555 0.38039216 0.78823529 0.52549020
v -0.07457112 -0.01686645 -0.01576883 0.38039216 0.78823529 0.52549020
v -0.07457112 -0.01658094 -0.01607017 0.38039216 0.78823529 0.52549020
v -0.07454580 -0.01658094 -0.01611998 0.38039216 0.78823529 0.52549020
v -0.07433479 -0.01658094 -0.01639769 0.38039216 0.78823529 0.52549020
v -0.07406891 -0.01658094 -0.01663742 0.38039216 0.78823529 0.52549020
v -0.03146129 0.01667963 -0.01705019 0.38039216 0.78823529 0.52549020
v -0.05420842 0.01635535 -0.01715148 0.38039216 0.78823529 0.52549020
v -0.07268889 0.01621788 -0.01718609 0.38039216 0.78823529 0.52549020
v -0.03146129 0.01665848 -0.01705948 0.38039216 0.78823529 0.52549020
v -0.03146129 0.01658094 -0.01709324 0.38039216 0.78823529 0.52549020
v -0.03146129 0.01650339 -0.01711350 0.38039216 0.78823529 0.52549020
v -0.07275642 0.01621083 -0.01718609 0.38039216 0.78823529 0.52549020
v -0.07282394 0.01619673 -0.01718609 0.38039216 0.78823529 0.52549020
v -0.03146129 0.01691227 -0.01694468 0.38039216 0.78823529 0.52549020
v -0.07288724 0.01616853 -0.01718609 0.38039216 0.78823529 0.52549020
v -0.07328817 0.01631657 -0.01709324 0.38039216 0.78823529 0.52549020
v -0.07294211 0.01612976 -0.01718609 0.38039216 0.78823529 0.52549020
v -0.07299275 0.01608393 -0.01718609 0.38039216 0.78823529 0.52549020
v -0.07367643 0.01638355 -0.01694046 0.38039216 0.78823529 0.52549020
v -0.07395919 0.01653864 -0.01673365 0.38039216 0.78823529 0.52549020
v -0.07406891 0.01631657 -0.01673365 0.38039216 0.78823529 0.52549020
v -0.07413644 0.01608393 -0.01673365 0.38039216 0.78823529 0.52549020
v -0.07441075 0.01612976 -0.01647788 0.38039216 0.78823529 0.52549020
v -0.07457112 0.01615795 -0.01626601 0.38039216 0.78823529 0.52549020
v -0.07457112 0.01639059 -0.01618244 0.38039216 0.78823529 0.52549020
v -0.07307715 -0.01621788 -0.01715570 0.38039216 0.78823529 0.52549020
v -0.07381148 -0.01621788 -0.01691344 0.38039216 0.78823529 0.52549020
v -0.07345697 -0.01621788 -0.01706370 0.38039216 0.78823529 0.52549020
v -0.07268889 -0.01621788 -0.01718609 0.38039216 0.78823529 0.52549020
v -0.05420842 -0.01635535 -0.01715148 0.38039216 0.78823529 0.52549020
v -0.03146129 -0.01658094 -0.01709324 0.38039216 0.78823529 0.52549020
v -0.03146129 -0.01669726 -0.01704175 0.38039216 0.78823529 0.52549020
v -0.07413644 -0.01621788 -0.01670917 0.38039216 0.78823529 0.52549020
v -0.07457112 -0.01647872 -0.01613348 0.38039216 0.78823529 0.52549020
v -0.07457112 -0.01621788 -0.01624913 0.38039216 0.78823529 0.52549020
v -0.07441075 -0.01621788 -0.01645762 0.38039216 0.78823529 0.52549020
v -0.03573639 0.01630952 -0.01716330 0.38039216 0.78823529 0.52549020
v -0.05420842 0.01617205 -0.01719031 0.38039216 0.78823529 0.52549020
v -0.07268889 0.01584424 -0.01721817 0.38039216 0.78823529 0.52549020
v -0.03146129 0.01622845 -0.01718356 0.38039216 0.78823529 0.52549020
v -0.03146129 0.01621788 -0.01718609 0.38039216 0.78823529 0.52549020
v -0.03146129 0.01629895 -0.01716583 0.38039216 0.78823529 0.52549020
v -0.07336413 0.01621083 -0.01709324 0.38039216 0.78823529 0.52549020
v -0.07303073 0.01603106 -0.01718609 0.38039216 0.78823529 0.52549020
v -0.07376083 0.01621083 -0.01694046 0.38039216 0.78823529 0.52549020
v -0.07342321 0.01609451 -0.01709324 0.38039216 0.78823529 0.52549020
v -0.07415754 0.01584424 -0.01673365 0.38039216 0.78823529 0.52549020
v -0.07444029 0.01584424 -0.01647788 0.38039216 0.78823529 0.52549020
v -0.07381148 0.01603106 -0.01694046 0.38039216 0.78823529 0.52549020
v -0.07382836 0.01584424 -0.01694046 0.38039216 0.78823529 0.52549020
v -0.07457112 0.01584424 -0.01630399 0.38039216 0.78823529 0.52549020
v -0.07346964 -0.01584424 -0.01709324 0.38039216 0.78823529 0.52549020
v -0.07308559 -0.01584424 -0.01718609 0.38039216 0.78823529 0.52549020
v -0.07268889 -0.01584424 -0.01721817 0.38039216 0.78823529 0.52549020
v -0.07382836 -0.01584424 -0.01694046 0.38039216 0.78823529 0.52549020
v -0.07415754 -0.01584424 -0.01673365 0.38039216 0.78823529 0.52549020
v -0.05420842 -0.01617205 -0.01719031 0.38039216 0.78823529 0.52549020
v -0.03146129 -0.01621788 -0.01718609 0.38039216 0.78823529 0.52549020
v -0.03146129 -0.01622845 -0.01718356 0.38039216 0.78823529 0.52549020
v -0.03573639 -0.01630952 -0.01716330 0.38039216 0.78823529 0.52549020
v -0.03146129 -0.01629895 -0.01716583 0.38039216 0.78823529 0.52549020
v -0.07444029 -0.01584424 -0.01647788 0.38039216 0.78823529 0.52549020
v -0.07457112 -0.01609803 -0.01626685 0.38039216 0.78823529 0.52549020
v -0.03573639 0.01612271 -0.01719453 0.38039216 0.78823529 0.52549020
v -0.07308559 0.01584424 -0.01718609 0.38039216 0.78823529 0.52549020
v -0.07307715 0.01590769 -0.01718609 0.38039216 0.78823529 0.52549020
v -0.07306027 0.01597114 -0.01718609 0.38039216 0.78823529 0.52549020
v -0.03146129 0.01584424 -0.01721817 0.38039216 0.78823529 0.52549020
v -0.03146129 0.01611213 -0.01719538 0.38039216 0.78823529 0.52549020
v -0.07345697 0.01597114 -0.01709324 0.38039216 0.78823529 0.52549020
v -0.07455424 0.00000000 -0.01633016 0.38039216 0.78823529 0.52549020
v -0.07346964 0.01584424 -0.01709324 0.38039216 0.78823529 0.52549020
v -0.07365111 0.00000000 -0.01701643 0.38039216 0.78823529 0.52549020
v -0.07457112 -0.01584424 -0.01630399 0.38039216 0.78823529 0.52549020
v -0.03146129 -0.01584424 -0.01721817 0.38039216 0.78823529 0.52549020
v -0.03573639 -0.01612271 -0.01719453 0.38039216 0.78823529 0.52549020
v -0.03146129 -0.01611213 -0.01719538 0.38039216 0.78823529 0.52549020
f 1 2 5
f 1 5 12
f 1 12 20
f 1 20 39
f 1 39 63
f 1 63 67
f 1 67 94
f 1 94 128
f 1 128 127
f 1 127 126
f 1 126 160
f 1 160 196
f 1 196 156
f 1 156 195
f 1 195 193
f 1 193 230
f 1 230 229
f 1 229 259
f 1 259 257
f 1 257 256
f 1 256 275
f 1 275 273
f 1 273 266
f 1 266 267
f 1 267 239
f 1 239 238
f 1 238 240
f 1 240 209
f 1 209 208
f 1 208 207
f 1 207 204
f 1 204 174
f 1 174 212
f 1 212 172
f 1 172 140
f 1 140 177
f 1 177 176
f 1 176 175
f 1 175 138
f 1 138 108
f 1 108 106
f 1 106 111
f 1 111 80
f 1 80 57
f 1 57 77
f 1 77 76
f 1 76 52
f 1 52 32
f 1 32 15
f 1 15 7
f 1 7 3
f 1 3 9
f 1 9 4
f 1 4 10
f 1 10 19
f 1 19 38
f 1 38 62
f 1 62 87
f 1 87 89
f 1 89 120
f 1 120 152
f 1 152 189
f 1 189 198
f 1 198 161
f 1 161 129
f 1 129 96
f 1 96 95
f 1 95 68
f 1 68 51
f 1 51 31
f 1 31 14
f 1 14 6
f 1 6 2
f 2 6 13
f 2 13 5
f 3 7 8
f 3 8 9
f 4 9 18
f 4 18 10
f 5 11 12
f 5 13 11
f 6 14 22
f 6 22 13
f 7 15 8
f 8 15 16
f 8 16 9
f 9 16 17
f 9 17 18
f 10 18 19
f 11 20 12
f 11 13 21
f 11 21 20
f 13 22 23
f 13 23 24
f 13 24 25
f 13 25 26
f 13 26 27
f 13 27 28
f 13 28 29
f 13 29 30
f 13 30 21
f 14 31 22
f 15 32 33
f 15 33 16
f 16 34 17
f 16 33 34
f 17 35 36
f 17 36 37
f 17 37 18
f 17 34 35
f 18 37 19
f 19 37 38
f 20 21 40
f 20 40 39
f 21 30 41
f 21 41 42
f 21 42 40
f 22 31 43
f 22 43 44
f 22 44 23
f 23 44 45
f 23 45 24
f 24 45 25
f 25 45 46
f 25 46 47
f 25 47 26
f 26 47 48
f 26 48 27
f 27 48 28
f 28 48 49
f 28 49 50
f 28 50 29
f 29 50 41
f 29 41 30
f 31 51 43
f 32 52 53
f 32 53 33
f 33 53 34
f 34 54 55
f 34 55 35
f 34 53 56
f 34 56 57
f 34 57 58
f 34 58 54
f 35 55 59
f 35 59 36
f 36 59 60
f 36 60 37
f 37 60 61
f 37 61 62
f 37 62 38
f 39 40 63
f 40 42 63
f 41 64 42
f 41 50 65
f 41 65 64
f 42 64 66
f 42 66 67
f 42 67 63
f 43 51 68
f 43 68 69
f 43 69 70
f 43 70 44
f 44 70 45
f 45 70 71
f 45 71 72
f 45 72 46
f 46 72 47
f 47 72 73
f 47 73 74
f 47 74 48
f 48 74 75
f 48 75 49
f 49 75 50
f 50 75 65
f 52 76 53
f 53 76 77
f 53 77 57
f 53 57 56
f 54 78 79
f 54 79 55
f 54 58 57
f 54 57 80
f 54 80 81
f 54 81 78
f 55 79 82
f 55 82 83
f 55 83 59
f 59 83 84
f 59 84 85
f 59 85 60
f 60 85 86
f 60 86 61
f 61 87 62
f 61 86 88
f 61 88 89
f 61 89 87
f 64 90 66
f 64 65 91
f 64 91 90
f 65 75 91
f 66 90 92
f 66 92 93
f 66 93 94
f 66 94 67
f 68 95 69
f 69 95 96
f 69 96 97
f 69 97 98
f 69 98 70
f 70 98 71
f 71 98 99
f 71 99 72
f 72 99 100
f 72 100 73
f 73 100 101
f 73 101 74
f 74 102 75
f 74 101 103
f 74 103 102
f 75 102 91
f 78 104 79
f 78 81 105
f 78 105 106
f 78 106 107
f 78 107 108
f 78 108 109
f 78 109 104
f 79 110 82
f 79 104 110
f 80 111 105
f 80 105 81
f 82 112 113
f 82 113 114
f 82 114 84
f 82 84 83
f 82 110 112
f 84 114 115
f 84 115 116
f 84 116 85
f 85 116 86
f 86 116 117
f 86 117 118
f 86 118 119
f 86 119 88
f 88 120 89
f 88 119 152
f 88 152 120
f 90 121 122
f 90 122 92
f 90 91 121
f 91 102 123
f 91 123 121
f 92 124 93
f 92 122 125
f 92 125 126
f 92 126 127
f 92 127 124
f 93 124 94
f 94 124 128
f 96 129 97
f 97 129 161
f 97 161 130
f 97 130 98
f 98 130 131
f 98 131 132
f 98 132 99
f 99 132 133
f 99 133 100
f 100 133 101
f 101 134 103
f 101 133 135
f 101 135 134
f 102 103 134
f 102 134 136
f 102 136 123
f 104 137 110
f 104 109 138
f 104 138 139
f 104 139 140
f 104 140 137
f 105 111 106
f 106 108 107
f 108 138 109
f 110 141 142
f 110 142 112
f 110 137 141
f 112 142 113
f 113 142 143
f 113 143 144
f 113 144 145
f 113 145 146
f 113 146 114
f 114 146 115
f 115 147 116
f 115 146 147
f 116 147 117
f 117 147 148
f 117 148 149
f 117 149 150
f 117 150 151
f 117 151 118
f 118 151 119
f 119 151 153
f 119 153 189
f 119 189 152
f 121 123 154
f 121 154 122
f 122 154 155
f 122 155 156
f 122 156 157
f 122 157 126
f 122 126 125
f 123 136 158
f 123 158 159
f 123 159 154
f 124 127 128
f 126 157 160
f 130 161 198
f 130 198 162
f 130 162 163
f 130 163 131
f 131 163 132
f 132 163 164
f 132 164 165
f 132 165 166
f 132 166 133
f 133 166 167
f 133 167 135
f 134 135 167
f 134 167 168
f 134 168 136
f 136 168 158
f 137 169 170
f 137 170 171
f 137 171 141
f 137 140 172
f 137 172 173
f 137 173 174
f 137 174 169
f 138 175 139
f 139 175 176
f 139 176 177
f 139 177 140
f 141 171 142
f 142 171 178
f 142 178 143
f 143 179 180
f 143 180 144
f 143 178 179
f 144 180 181
f 144 181 182
f 144 182 145
f 145 182 146
f 146 182 183
f 146 183 147
f 147 184 148
f 147 183 184
f 148 184 185
f 148 185 186
f 148 186 187
f 148 187 149
f 149 187 188
f 149 188 150
f 150 188 187
f 150 187 223
f 150 223 222
f 150 222 249
f 150 249 272
f 150 272 261
f 150 261 233
f 150 233 232
f 150 232 200
f 150 200 199
f 150 199 164
f 150 164 163
f 150 163 162
f 150 162 198
f 150 198 189
f 150 189 153
f 150 153 151
f 154 159 190
f 154 190 191
f 154 191 192
f 154 192 155
f 155 192 193
f 155 193 194
f 155 194 156
f 156 194 195
f 156 196 157
f 157 196 160
f 158 168 197
f 158 197 190
f 158 190 159
f 164 199 165
f 165 199 200
f 165 200 166
f 166 200 201
f 166 201 202
f 166 202 167
f 167 202 168
f 168 202 203
f 168 203 197
f 169 174 204
f 169 204 170
f 170 205 206
f 170 206 171
f 170 204 207
f 170 207 208
f 170 208 209
f 170 209 205
f 171 210 211
f 171 211 178
f 171 206 210
f 172 212 173
f 173 212 174
f 178 211 213
f 178 213 179
f 179 213 180
f 180 214 181
f 180 213 215
f 180 215 216
f 180 216 214
f 181 217 218
f 181 218 182
f 181 214 217
f 182 218 184
f 182 184 183
f 184 218 185
f 185 218 219
f 185 219 220
f 185 220 221
f 185 221 222
f 185 222 186
f 186 222 223
f 186 223 187
f 190 224 191
f 190 197 225
f 190 225 226
f 190 226 224
f 191 224 192
f 192 224 227
f 192 227 228
f 192 228 229
f 192 229 230
f 192 230 193
f 193 195 194
f 197 203 231
f 197 231 225
f 200 232 201
f 201 232 202
f 202 231 203
f 202 232 233
f 202 233 234
f 202 234 231
f 205 209 235
f 205 235 206
f 206 236 237
f 206 237 210
f 206 235 238
f 206 238 239
f 206 239 236
f 209 240 235
f 210 237 211
f 211 237 213
f 213 237 215
f 214 216 242
f 214 242 241
f 214 241 217
f 215 237 216
f 216 237 242
f 217 243 219
f 217 219 218
f 217 241 244
f 217 244 243
f 219 243 220
f 220 245 246
f 220 246 221
f 220 243 247
f 220 247 248
f 220 248 245
f 221 246 222
f 222 246 249
f 224 226 250
f 224 250 251
f 224 251 252
f 224 252 227
f 225 253 250
f 225 250 226
f 225 231 254
f 225 254 253
f 227 252 255
f 227 255 256
f 227 256 257
f 227 257 258
f 227 258 228
f 228 258 229
f 229 258 259
f 231 234 260
f 231 260 254
f 233 261 260
f 233 260 234
f 235 240 238
f 236 239 262
f 236 262 237
f 237 252 251
f 237 251 263
f 237 263 264
f 237 264 265
f 237 265 242
f 237 262 266
f 237 266 273
f 237 273 252
f 239 267 262
f 241 242 244
f 242 265 244
f 243 244 247
f 244 265 268
f 244 268 247
f 245 248 253
f 245 253 254
f 245 254 260
f 245 260 246
f 246 260 269
f 246 269 249
f 247 268 270
f 247 270 248
f 248 270 271
f 248 271 253
f 249 269 272
f 250 271 270
f 250 270 263
f 250 263 251
f 250 253 271
f 252 273 274
f 252 274 255
f 255 274 256
f 256 274 275
f 257 259 258
f 260 261 272
f 260 272 269
f 262 267 266
f 263 268 264
f 263 270 268
f 264 268 265
f 273 275 274