# https://github.com/mikedh/trimesh
v -0.03181756 0.00777708 -0.00859470 0.69411765 0.05882353 0.66666667
v -0.03234492 0.00777708 0.00230359 0.69411765 0.05882353 0.66666667
v -0.03224447 -0.00780808 0.00025610 0.69411765 0.05882353 0.66666667
v -0.03181756 -0.00780808 -0.00859470 0.69411765 0.05882353 0.66666667
v -0.07457534 0.00777708 -0.00859470 0.69411765 0.05882353 0.66666667
v -0.03235329 0.00777708 0.00247259 0.69411765 0.05882353 0.66666667
v -0.03235329 -0.00780808 0.00247259 0.69411765 0.05882353 0.66666667
v -0.07457534 -0.00780808 -0.00859470 0.69411765 0.05882353 0.66666667
v -0.07457534 0.00777708 0.00247259 0.69411765 0.05882353 0.66666667
v -0.07457534 -0.00780808 0.00247259 0.69411765 0.05882353 0.66666667
f 1 2 3
f 1 3 4
f 1 4 8
f 1 8 5
f 1 5 9
f 1 9 6
f 1 6 2
f 2 6 7
f 2 7 3
f 3 7 10
f 3 10 8
f 3 8 4
f 5 8 10
f 5 10 9
f 6 9 10
f 6 10 7