# https://github.com/mikedh/trimesh
v 0.00000575 0.02640000 0.00000000 0.54509804 0.71372549 0.60000000
v 0.00000575 0.02620877 0.00193038 0.54509804 0.71372549 0.60000000
v 0.00000575 0.02620877 -0.00193038 0.54509804 0.71372549 0.60000000
v -0.07499266 0.02640000 0.00000000 0.54509804 0.71372549 0.60000000
v -0.07499266 0.02620877 0.00193038 0.54509804 0.71372549 0.60000000
v 0.00000575 0.02564542 0.00378712 0.54509804 0.71372549 0.60000000
v 0.00000575 0.02564542 -0.00378712 0.54509804 0.71372549 0.60000000
v -0.07499266 0.02620877 -0.00193038 0.54509804 0.71372549 0.60000000
v -0.07499266 0.02564542 0.00378712 0.54509804 0.71372549 0.60000000
v 0.00000575 0.02473062 0.00549849 0.54509804 0.71372549 0.60000000
v 0.00000575 0.02473062 -0.00549849 0.54509804 0.71372549 0.60000000
v -0.07499266 0.02564542 -0.00378712 0.54509804 0.71372549 0.60000000
v -0.07499266 0.02473062 0.00549849 0.54509804 0.71372549 0.60000000
v 0.00000575 0.02411558 0.00624855 0.54509804 0.71372549 0.60000000
v 0.00000575 0.02411558 -0.00624855 0.54509804 0.71372549 0.60000000
v -0.07499266 0.02473062 -0.00549849 0.54509804 0.71372549 0.60000000
v -0.07499266 0.02349538 0.00699861 0.54509804 0.71372549 0.60000000
v 0.00000575 0.02349538 0.00699861 0.54509804 0.71372549 0.60000000
v 0.00000575 0.02349538 -0.00699861 0.54509804 0.71372549 0.60000000
v -0.07499266 0.02349538 -0.00699861 0.54509804 0.71372549 0.60000000
v -0.07499266 0.02199655 0.00823126 0.54509804 0.71372549 0.60000000
v 0.00000575 0.02199655 0.00823126 0.54509804 0.71372549 0.60000000
v 0.00000575 0.02199655 -0.00823126 0.54509804 0.71372549 0.60000000
v -0.07499266 0.02199655 -0.00823126 0.54509804 0.71372549 0.60000000
v -0.07499266 0.02028583 0.00914607 0.54509804 0.71372549 0.60000000
v 0.00000575 0.02114378 0.00868866 0.54509804 0.71372549 0.60000000
v 0.00000575 0.02114378 -0.00868866 0.54509804 0.71372549 0.60000000
v -0.07499266 0.02028583 -0.00914607 0.54509804 0.71372549 0.60000000
v -0.07499266 0.01843038 0.00970812 0.54509804 0.71372549 0.60000000
v 0.00000575 0.02028583 0.00914607 0.54509804 0.71372549 0.60000000
v 0.00000575 0.02028583 -0.00914607 0.54509804 0.71372549 0.60000000
v -0.07499266 0.01843038 -0.00970812 0.54509804 0.71372549 0.60000000
v -0.07499266 0.01649742 0.00990000 0.54509804 0.71372549 0.60000000
v 0.00000575 0.01843038 0.00970812 0.54509804 0.71372549 0.60000000
v 0.00000575 0.01843038 -0.00970812 0.54509804 0.71372549 0.60000000
v -0.07499266 0.01649742 -0.00990000 0.54509804 0.71372549 0.60000000
v -0.07499266 -0.02243586 0.00990000 0.54509804 0.71372549 0.60000000
v -0.00000160 0.01649742 0.00990000 0.54509804 0.71372549 0.60000000
v 0.00000575 0.01649742 0.00989806 0.54509804 0.71372549 0.60000000
v 0.00000575 0.01649742 -0.00990000 0.54509804 0.71372549 0.60000000
v -0.07499266 -0.02243586 -0.00990000 0.54509804 0.71372549 0.60000000
v -0.07499266 -0.02331965 0.00979922 0.54509804 0.71372549 0.60000000
v 0.00000575 -0.02288034 0.00984961 0.54509804 0.71372549 0.60000000
v 0.00000575 -0.02243586 0.00990000 0.54509804 0.71372549 0.60000000
v 0.00000575 -0.01055897 0.00990000 0.54509804 0.71372549 0.60000000
v 0.00000575 -0.02243586 -0.00990000 0.54509804 0.71372549 0.60000000
v -0.07499266 -0.02331965 -0.00979922 0.54509804 0.71372549 0.60000000
v 0.00000575 -0.02288034 -0.00984961 0.54509804 0.71372549 0.60000000
v -0.07499266 -0.02415693 0.00950656 0.54509804 0.71372549 0.60000000
v 0.00000575 -0.02373829 0.00965386 0.54509804 0.71372549 0.60000000
v 0.00000575 -0.02331965 0.00979922 0.54509804 0.71372549 0.60000000
v -0.07499266 -0.02415693 -0.00950656 0.54509804 0.71372549 0.60000000
v 0.00000575 -0.02331965 -0.00979922 0.54509804 0.71372549 0.60000000
v 0.00000575 -0.02373829 -0.00965386 0.54509804 0.71372549 0.60000000
v -0.07499266 -0.02490634 0.00903559 0.54509804 0.71372549 0.60000000
v 0.00000575 -0.02415693 0.00950656 0.54509804 0.71372549 0.60000000
v -0.07499266 -0.02490634 -0.00903559 0.54509804 0.71372549 0.60000000
v 0.00000575 -0.02415693 -0.00950656 0.54509804 0.71372549 0.60000000
v -0.07499266 -0.02553172 0.00840764 0.54509804 0.71372549 0.60000000
v 0.00000575 -0.02522161 0.00872161 0.54509804 0.71372549 0.60000000
v 0.00000575 -0.02490634 0.00903559 0.54509804 0.71372549 0.60000000
v -0.07499266 -0.02553172 -0.00840764 0.54509804 0.71372549 0.60000000
v 0.00000575 -0.02490634 -0.00903559 0.54509804 0.71372549 0.60000000
v 0.00000575 -0.02522161 -0.00872161 0.54509804 0.71372549 0.60000000
v -0.07499266 -0.02600720 0.00765758 0.54509804 0.71372549 0.60000000
v 0.00000575 -0.02576946 0.00803357 0.54509804 0.71372549 0.60000000
v 0.00000575 -0.02553172 0.00840764 0.54509804 0.71372549 0.60000000
v -0.07499266 -0.02600720 -0.00765758 0.54509804 0.71372549 0.60000000
v 0.00000575 -0.02553172 -0.00840764 0.54509804 0.71372549 0.60000000
v 0.00000575 -0.02576946 -0.00803357 0.54509804 0.71372549 0.60000000
v -0.07499266 -0.02629663 0.00682030 0.54509804 0.71372549 0.60000000
v 0.00000575 -0.02600720 0.00765758 0.54509804 0.71372549 0.60000000
v -0.07499266 -0.02629663 -0.00682030 0.54509804 0.71372549 0.60000000
v 0.00000575 -0.02600720 -0.00765758 0.54509804 0.71372549 0.60000000
v -0.07499266 -0.02640000 0.00593845 0.54509804 0.71372549 0.60000000
v 0.00000575 -0.02634832 0.00638034 0.54509804 0.71372549 0.60000000
v 0.00000575 -0.02629663 0.00682030 0.54509804 0.71372549 0.60000000
v -0.07499266 -0.02640000 -0.00593845 0.54509804 0.71372549 0.60000000
v 0.00000575 -0.02629663 -0.00682030 0.54509804 0.71372549 0.60000000
v 0.00000575 -0.02634832 -0.00638034 0.54509804 0.71372549 0.60000000
v 0.00000575 -0.02640000 0.00593845 0.54509804 0.71372549 0.60000000
v 0.00000575 -0.02640000 -0.00593845 0.54509804 0.71372549 0.60000000
f 1 2 6
f 1 6 10
f 1 10 14
f 1 14 18
f 1 18 22
f 1 22 26
f 1 26 30
f 1 30 34
f 1 34 39
f 1 39 45
f 1 45 44
f 1 44 43
f 1 43 51
f 1 51 50
f 1 50 56
f 1 56 61
f 1 61 60
f 1 60 67
f 1 67 66
f 1 66 72
f 1 72 77
f 1 77 76
f 1 76 81
f 1 81 82
f 1 82 80
f 1 80 79
f 1 79 74
f 1 74 70
f 1 70 69
f 1 69 64
f 1 64 63
f 1 63 58
f 1 58 54
f 1 54 53
f 1 53 48
f 1 48 46
f 1 46 40
f 1 40 35
f 1 35 31
f 1 31 27
f 1 27 23
f 1 23 19
f 1 19 15
f 1 15 11
f 1 11 7
f 1 7 3
f 1 3 8
f 1 8 4
f 1 4 5
f 1 5 2
f 2 5 9
f 2 9 6
f 3 7 12
f 3 12 8
f 4 8 12
f 4 12 16
f 4 16 20
f 4 20 24
f 4 24 28
f 4 28 32
f 4 32 36
f 4 36 41
f 4 41 47
f 4 47 52
f 4 52 57
f 4 57 62
f 4 62 68
f 4 68 73
f 4 73 78
f 4 78 75
f 4 75 71
f 4 71 65
f 4 65 59
f 4 59 55
f 4 55 49
f 4 49 42
f 4 42 37
f 4 37 33
f 4 33 29
f 4 29 25
f 4 25 21
f 4 21 17
f 4 17 13
f 4 13 9
f 4 9 5
f 6 9 13
f 6 13 10
f 7 11 16
f 7 16 12
f 10 13 14
f 11 15 16
f 13 17 14
f 14 17 18
f 15 19 20
f 15 20 16
f 17 21 22
f 17 22 18
f 19 23 24
f 19 24 20
f 21 25 26
f 21 26 22
f 23 27 24
f 24 27 28
f 25 29 34
f 25 34 30
f 25 30 26
f 27 31 28
f 28 31 35
f 28 35 32
f 29 33 38
f 29 38 34
f 32 35 40
f 32 40 36
f 33 37 44
f 33 44 45
f 33 45 38
f 34 38 39
f 36 40 46
f 36 46 41
f 37 42 43
f 37 43 44
f 38 45 39
f 41 46 48
f 41 48 47
f 42 49 50
f 42 50 51
f 42 51 43
f 47 48 53
f 47 53 54
f 47 54 52
f 49 55 61
f 49 61 56
f 49 56 50
f 52 54 58
f 52 58 63
f 52 63 57
f 55 59 60
f 55 60 61
f 57 63 64
f 57 64 62
f 59 65 66
f 59 66 67
f 59 67 60
f 62 64 69
f 62 69 70
f 62 70 68
f 65 71 77
f 65 77 72
f 65 72 66
f 68 70 74
f 68 74 79
f 68 79 73
f 71 75 76
f 71 76 77
f 73 79 80
f 73 80 78
f 75 81 76
f 75 78 82
f 75 82 81
f 78 80 82