# https://github.com/mikedh/trimesh
v 0.02500000 -0.01417930 -0.01977980
v 0.02500000 -0.01374930 -0.02027610
v 0.02500000 -0.01448570 -0.01919910
v 0.02500000 -0.01465260 -0.01856410
v 0.02500000 -0.01467130 -0.01790780
v 0.02500000 -0.01454100 -0.01726430
v 0.02500000 -0.01321810 -0.02066200
v 0.02500000 -0.01261330 -0.02091760
v 0.02500000 -0.01196630 -0.02102950
v 0.02500000 -0.01131080 -0.02099210
v 0.02500000 -0.01068080 -0.02080710
v 0.02500000 -0.01010910 -0.02048420
v 0.02500000 -0.01067960 -0.00538030
v 0.02500000 -0.02078870 0.00196440
v 0.02500000 -0.02127250 0.00240830
v 0.02500000 -0.02164310 0.00295030
v 0.02500000 -0.02188130 0.00356220
v 0.02500000 -0.02197470 0.00421210
v 0.02500000 -0.02191850 0.00486630
v 0.02500000 -0.02171560 0.00549070
v 0.02500000 -0.02137660 0.00605300
v 0.02500000 -0.02091900 0.00652390
v 0.02500000 -0.02036660 0.00687880
v 0.02500000 -0.01974820 0.00709950
v 0.02500000 -0.01909590 0.00717430
v 0.02500000 -0.00660040 0.00717430
v 0.02500000 -0.00273900 0.01905830
v 0.02500000 -0.00246630 0.01965550
v 0.02500000 -0.00206530 0.02017550
v 0.02500000 -0.00155700 0.02059110
v 0.02500000 -0.00096780 0.02088080
v 0.02500000 -0.00032830 0.02102950
v 0.02500000 0.00000000 -0.01313950
v 0.02500000 0.01010910 -0.02048420
v 0.02500000 0.01068080 -0.02080710
v 0.02500000 0.01067960 -0.00538030
v 0.02500000 0.01131080 -0.02099210
v 0.02500000 0.01196630 -0.02102950
v 0.02500000 0.01261330 -0.02091760
v 0.02500000 0.01321810 -0.02066200
v 0.02500000 0.01374930 -0.02027610
v 0.02500000 0.01417930 -0.01977980
v 0.02500000 0.01448570 -0.01919910
v 0.02500000 0.01465260 -0.01856410
v 0.02500000 0.01467130 -0.01790780
v 0.02500000 0.01454100 -0.01726430
v 0.02500000 0.00660040 0.00717430
v 0.02500000 0.00032830 0.02102950
v 0.02500000 0.00096780 0.02088080
v 0.02500000 0.00273900 0.01905830
v 0.02500000 0.00246630 0.01965550
v 0.02500000 0.00155700 0.02059110
v 0.02500000 0.00206530 0.02017550
v 0.02500000 0.02078870 0.00196440
v 0.02500000 0.02127250 0.00240830
v 0.02500000 0.02164310 0.00295030
v 0.02500000 0.02188130 0.00356220
v 0.02500000 0.02197470 0.00421210
v 0.02500000 0.02191850 0.00486630
v 0.02500000 0.01909590 0.00717430
v 0.02500000 0.01974820 0.00709950
v 0.02500000 0.02036660 0.00687880
v 0.02500000 0.02091900 0.00652390
v 0.02500000 0.02171560 0.00549070
v 0.02500000 0.02137660 0.00605300
v 0.07500000 -0.01417930 -0.01977980
v 0.07500000 -0.01374930 -0.02027610
v 0.07500000 -0.01448570 -0.01919910
v 0.07500000 -0.01465260 -0.01856410
v 0.07500000 -0.01467130 -0.01790780
v 0.07500000 -0.01454100 -0.01726430
v 0.07500000 -0.01321810 -0.02066200
v 0.07500000 -0.01261330 -0.02091760
v 0.07500000 -0.01196630 -0.02102950
v 0.07500000 -0.01131080 -0.02099210
v 0.07500000 -0.01068080 -0.02080710
v 0.07500000 -0.01010910 -0.02048420
v 0.07500000 -0.01067960 -0.00538030
v 0.07500000 -0.02078870 0.00196440
v 0.07500000 -0.02127250 0.00240830
v 0.07500000 -0.02164310 0.00295030
v 0.07500000 -0.02188130 0.00356220
v 0.07500000 -0.02197470 0.00421210
v 0.07500000 -0.02191850 0.00486630
v 0.07500000 -0.02171560 0.00549070
v 0.07500000 -0.02137660 0.00605300
v 0.07500000 -0.02091900 0.00652390
v 0.07500000 -0.02036660 0.00687880
v 0.07500000 -0.01974820 0.00709950
v 0.07500000 -0.01909590 0.00717430
v 0.07500000 -0.00660040 0.00717430
v 0.07500000 -0.00273900 0.01905830
v 0.07500000 -0.00246630 0.01965550
v 0.07500000 -0.00206530 0.02017550
v 0.07500000 -0.00155700 0.02059110
v 0.07500000 -0.00096780 0.02088080
v 0.07500000 -0.00032830 0.02102950
v 0.07500000 0.00000000 -0.01313950
v 0.07500000 0.01010910 -0.02048420
v 0.07500000 0.01068080 -0.02080710
v 0.07500000 0.01067960 -0.00538030
v 0.07500000 0.01131080 -0.02099210
v 0.07500000 0.01196630 -0.02102950
v 0.07500000 0.01261330 -0.02091760
v 0.07500000 0.01321810 -0.02066200
v 0.07500000 0.01374930 -0.02027610
v 0.07500000 0.01417930 -0.01977980
v 0.07500000 0.01448570 -0.01919910
v 0.07500000 0.01465260 -0.01856410
v 0.07500000 0.01467130 -0.01790780
v 0.07500000 0.01454100 -0.01726430
v 0.07500000 0.00660040 0.00717430
v 0.07500000 0.00032830 0.02102950
v 0.07500000 0.00096780 0.02088080
v 0.07500000 0.00273900 0.01905830
v 0.07500000 0.00246630 0.01965550
v 0.07500000 0.00155700 0.02059110
v 0.07500000 0.00206530 0.02017550
v 0.07500000 0.02078870 0.00196440
v 0.07500000 0.02127250 0.00240830
v 0.07500000 0.02164310 0.00295030
v 0.07500000 0.02188130 0.00356220
v 0.07500000 0.02197470 0.00421210
v 0.07500000 0.02191850 0.00486630
v 0.07500000 0.01909590 0.00717430
v 0.07500000 0.01974820 0.00709950
v 0.07500000 0.02036660 0.00687880
v 0.07500000 0.02091900 0.00652390
v 0.07500000 0.02171560 0.00549070
v 0.07500000 0.02137660 0.00605300
f 66 1 2
f 69 4 3
f 68 3 1
f 70 5 4
f 71 6 5
f 67 2 7
f 72 7 8
f 73 8 9
f 74 9 10
f 75 10 11
f 79 14 13
f 78 13 6
f 77 11 12
f 77 12 33
f 80 15 14
f 81 16 15
f 82 17 16
f 83 18 17
f 84 19 18
f 85 20 19
f 86 21 20
f 87 22 21
f 88 23 22
f 89 24 23
f 90 25 24
f 91 26 25
f 92 27 26
f 93 28 27
f 94 29 28
f 95 30 29
f 96 31 30
f 97 32 31
f 98 33 34
f 99 34 35
f 100 35 37
f 102 37 38
f 103 38 39
f 104 39 40
f 105 40 41
f 106 41 42
f 107 42 43
f 108 43 44
f 109 44 45
f 110 45 46
f 111 46 36
f 101 36 54
f 112 47 50
f 113 48 32
f 114 49 48
f 117 52 49
f 115 50 51
f 118 53 52
f 116 51 53
f 125 60 47
f 119 54 55
f 120 55 56
f 121 56 57
f 122 57 58
f 123 58 59
f 124 59 64
f 126 61 60
f 127 62 61
f 130 65 63
f 129 64 65
f 128 63 62
f 66 2 67
f 68 69 3
f 66 68 1
f 69 70 4
f 70 71 5
f 67 7 72
f 72 8 73
f 73 9 74
f 74 10 75
f 71 78 6
f 78 79 13
f 75 11 76
f 76 11 77
f 77 33 98
f 66 77 68
f 66 67 77
f 68 77 69
f 69 77 70
f 70 77 71
f 67 72 77
f 72 73 77
f 73 74 77
f 74 75 77
f 75 76 77
f 71 77 98
f 71 98 78
f 80 81 15
f 79 80 14
f 81 82 16
f 82 83 17
f 83 84 18
f 84 85 19
f 85 86 20
f 86 87 21
f 87 88 22
f 88 89 23
f 89 90 24
f 90 91 25
f 91 92 26
f 92 93 27
f 93 94 28
f 94 95 29
f 95 96 30
f 96 97 31
f 97 113 32
f 80 82 81
f 80 83 82
f 80 90 83
f 79 90 80
f 78 90 79
f 84 86 85
f 84 87 86
f 83 90 84
f 84 90 87
f 87 89 88
f 87 90 89
f 78 91 90
f 78 112 91
f 91 115 92
f 92 95 93
f 93 95 94
f 92 118 95
f 95 114 96
f 96 113 97
f 98 34 99
f 99 35 100
f 100 37 102
f 102 38 103
f 103 39 104
f 104 40 105
f 105 41 106
f 106 42 107
f 107 43 108
f 108 44 109
f 109 45 110
f 110 46 111
f 101 111 36
f 101 54 119
f 98 99 111
f 99 100 103
f 98 111 101
f 78 98 101
f 78 101 112
f 100 102 103
f 99 103 104
f 99 104 106
f 104 105 106
f 99 106 111
f 106 107 111
f 107 108 111
f 108 109 111
f 109 110 111
f 112 125 47
f 112 50 115
f 113 114 48
f 114 117 49
f 115 51 116
f 117 118 52
f 116 53 118
f 119 55 120
f 120 56 121
f 121 57 122
f 122 58 123
f 123 59 124
f 125 126 60
f 126 127 61
f 127 128 62
f 128 130 63
f 129 65 130
f 124 64 129
f 91 112 115
f 92 115 118
f 96 114 113
f 95 118 114
f 115 116 118
f 114 118 117
f 101 119 112
f 112 119 125
f 119 120 122
f 120 121 122
f 119 122 124
f 119 124 126
f 122 123 124
f 119 126 125
f 126 128 127
f 124 128 126
f 124 129 128
f 128 129 130
f 12 11 33
f 2 1 63
f 3 63 1
f 2 64 7
f 8 58 9
f 7 59 8
f 9 57 10
f 36 33 11
f 10 56 11
f 13 47 6
f 5 63 4
f 6 63 5
f 4 63 3
f 16 17 24
f 17 18 24
f 20 21 22
f 18 19 24
f 19 20 24
f 20 22 23
f 20 23 24
f 25 16 24
f 47 14 15
f 15 16 47
f 26 16 25
f 14 47 13
f 26 47 16
f 26 27 50
f 27 28 50
f 28 29 50
f 29 30 50
f 34 38 35
f 33 36 34
f 60 6 47
f 36 11 54
f 54 11 55
f 61 6 60
f 11 56 55
f 56 10 57
f 57 9 58
f 58 8 59
f 7 64 59
f 2 65 64
f 65 2 63
f 6 61 62
f 63 6 62
f 35 38 37
f 38 34 39
f 34 40 39
f 40 34 41
f 41 34 42
f 42 34 43
f 34 44 43
f 34 45 44
f 45 34 46
f 46 34 36
f 47 26 50
f 30 31 50
f 32 50 31
f 50 48 49
f 48 50 32
f 52 50 49
f 51 52 53
f 50 52 51