# https://github.com/mikedh/trimesh
v -0.07500000 -0.01417930 -0.01977980
v -0.07500000 -0.01374930 -0.02027610
v -0.07500000 -0.01448570 -0.01919910
v -0.07500000 -0.01465260 -0.01856410
v -0.07500000 -0.01467130 -0.01790780
v -0.07500000 -0.01454100 -0.01726430
v -0.07500000 -0.01321810 -0.02066200
v -0.07500000 -0.01261330 -0.02091760
v -0.07500000 -0.01196630 -0.02102950
v -0.07500000 -0.01131080 -0.02099210
v -0.07500000 -0.01068080 -0.02080710
v -0.07500000 -0.01010910 -0.02048420
v -0.07500000 -0.01067960 -0.00538030
v -0.07500000 -0.02078870 0.00196440
v -0.07500000 -0.02127250 0.00240830
v -0.07500000 -0.02164310 0.00295030
v -0.07500000 -0.02188130 0.00356220
v -0.07500000 -0.02197470 0.00421210
v -0.07500000 -0.02191850 0.00486630
v -0.07500000 -0.02171560 0.00549070
v -0.07500000 -0.02137660 0.00605300
v -0.07500000 -0.02091900 0.00652390
v -0.07500000 -0.02036660 0.00687880
v -0.07500000 -0.01974820 0.00709950
v -0.07500000 -0.01909590 0.00717430
v -0.07500000 -0.00660040 0.00717430
v -0.07500000 -0.00273900 0.01905830
v -0.07500000 -0.00246630 0.01965550
v -0.07500000 -0.00206530 0.02017550
v -0.07500000 -0.00155700 0.02059110
v -0.07500000 -0.00096780 0.02088080
v -0.07500000 -0.00032830 0.02102950
v -0.07500000 0.00000000 -0.01313950
v -0.07500000 0.01010910 -0.02048420
v -0.07500000 0.01068080 -0.02080710
v -0.07500000 0.01067960 -0.00538030
v -0.07500000 0.01131080 -0.02099210
v -0.07500000 0.01196630 -0.02102950
v -0.07500000 0.01261330 -0.02091760
v -0.07500000 0.01321810 -0.02066200
v -0.07500000 0.01374930 -0.02027610
v -0.07500000 0.01417930 -0.01977980
v -0.07500000 0.01448570 -0.01919910
v -0.07500000 0.01465260 -0.01856410
v -0.07500000 0.01467130 -0.01790780
v -0.07500000 0.01454100 -0.01726430
v -0.07500000 0.00660040 0.00717430
v -0.07500000 0.00032830 0.02102950
v -0.07500000 0.00096780 0.02088080
v -0.07500000 0.00273900 0.01905830
v -0.07500000 0.00246630 0.01965550
v -0.07500000 0.00155700 0.02059110
v -0.07500000 0.00206530 0.02017550
v -0.07500000 0.02078870 0.00196440
v -0.07500000 0.02127250 0.00240830
v -0.07500000 0.02164310 0.00295030
v -0.07500000 0.02188130 0.00356220
v -0.07500000 0.02197470 0.00421210
v -0.07500000 0.02191850 0.00486630
v -0.07500000 0.01909590 0.00717430
v -0.07500000 0.01974820 0.00709950
v -0.07500000 0.02036660 0.00687880
v -0.07500000 0.02091900 0.00652390
v -0.07500000 0.02171560 0.00549070
v -0.07500000 0.02137660 0.00605300
v 0.02500000 -0.01417930 -0.01977980
v 0.02500000 -0.01374930 -0.02027610
v 0.02500000 -0.01448570 -0.01919910
v 0.02500000 -0.01465260 -0.01856410
v 0.02500000 -0.01467130 -0.01790780
v 0.02500000 -0.01454100 -0.01726430
v 0.02500000 -0.01321810 -0.02066200
v 0.02500000 -0.01261330 -0.02091760
v 0.02500000 -0.01196630 -0.02102950
v 0.02500000 -0.01131080 -0.02099210
v 0.02500000 -0.01068080 -0.02080710
v 0.02500000 -0.01010910 -0.02048420
v 0.02500000 -0.01067960 -0.00538030
v 0.02500000 -0.02078870 0.00196440
v 0.02500000 -0.02127250 0.00240830
v 0.02500000 -0.02164310 0.00295030
v 0.02500000 -0.02188130 0.00356220
v 0.02500000 -0.02197470 0.00421210
v 0.02500000 -0.02191850 0.00486630
v 0.02500000 -0.02171560 0.00549070
v 0.02500000 -0.02137660 0.00605300
v 0.02500000 -0.02091900 0.00652390
v 0.02500000 -0.02036660 0.00687880
v 0.02500000 -0.01974820 0.00709950
v 0.02500000 -0.01909590 0.00717430
v 0.02500000 -0.00660040 0.00717430
v 0.02500000 -0.00273900 0.01905830
v 0.02500000 -0.00246630 0.01965550
v 0.02500000 -0.00206530 0.02017550
v 0.02500000 -0.00155700 0.02059110
v 0.02500000 -0.00096780 0.02088080
v 0.02500000 -0.00032830 0.02102950
v 0.02500000 0.00000000 -0.01313950
v 0.02500000 0.01010910 -0.02048420
v 0.02500000 0.01068080 -0.02080710
v 0.02500000 0.01067960 -0.00538030
v 0.02500000 0.01131080 -0.02099210
v 0.02500000 0.01196630 -0.02102950
v 0.02500000 0.01261330 -0.02091760
v 0.02500000 0.01321810 -0.02066200
v 0.02500000 0.01374930 -0.02027610
v 0.02500000 0.01417930 -0.01977980
v 0.02500000 0.01448570 -0.01919910
v 0.02500000 0.01465260 -0.01856410
v 0.02500000 0.01467130 -0.01790780
v 0.02500000 0.01454100 -0.01726430
v 0.02500000 0.00660040 0.00717430
v 0.02500000 0.00032830 0.02102950
v 0.02500000 0.00096780 0.02088080
v 0.02500000 0.00273900 0.01905830
v 0.02500000 0.00246630 0.01965550
v 0.02500000 0.00155700 0.02059110
v 0.02500000 0.00206530 0.02017550
v 0.02500000 0.02078870 0.00196440
v 0.02500000 0.02127250 0.00240830
v 0.02500000 0.02164310 0.00295030
v 0.02500000 0.02188130 0.00356220
v 0.02500000 0.02197470 0.00421210
v 0.02500000 0.02191850 0.00486630
v 0.02500000 0.01909590 0.00717430
v 0.02500000 0.01974820 0.00709950
v 0.02500000 0.02036660 0.00687880
v 0.02500000 0.02091900 0.00652390
v 0.02500000 0.02171560 0.00549070
v 0.02500000 0.02137660 0.00605300
f 1 3 12
f 1 12 2
f 3 4 12
f 4 5 12
f 5 6 12
f 2 12 7
f 7 12 8
f 8 12 9
f 9 12 10
f 10 12 11
f 6 33 12
f 6 13 33
f 13 26 36
f 1 2 66
f 3 69 4
f 1 68 3
f 4 70 5
f 5 71 6
f 2 7 67
f 7 8 72
f 8 9 73
f 9 10 74
f 10 11 75
f 13 79 14
f 6 78 13
f 11 12 76
f 12 33 77
f 15 16 17
f 15 17 18
f 15 18 25
f 14 15 25
f 13 14 25
f 19 20 21
f 19 21 22
f 18 19 25
f 19 22 25
f 22 23 24
f 22 24 25
f 13 25 26
f 26 27 50
f 27 28 30
f 28 29 30
f 27 30 53
f 30 31 49
f 31 32 48
f 14 80 15
f 15 81 16
f 16 82 17
f 17 83 18
f 18 84 19
f 19 85 20
f 20 86 21
f 21 87 22
f 22 88 23
f 23 89 24
f 24 90 25
f 25 91 26
f 26 92 27
f 27 93 28
f 28 94 29
f 29 95 30
f 30 96 31
f 31 97 32
f 33 46 34
f 34 38 35
f 33 36 46
f 13 36 33
f 35 38 37
f 34 39 38
f 34 41 39
f 39 41 40
f 34 46 41
f 41 46 42
f 42 46 43
f 43 46 44
f 44 46 45
f 33 34 98
f 34 35 99
f 35 37 100
f 37 38 102
f 38 39 103
f 39 40 104
f 40 41 105
f 41 42 106
f 42 43 107
f 43 44 108
f 44 45 109
f 45 46 110
f 36 111 46
f 36 54 101
f 26 47 36
f 26 50 47
f 27 53 50
f 31 48 49
f 30 49 53
f 50 53 51
f 49 52 53
f 36 47 54
f 47 60 54
f 54 57 55
f 55 57 56
f 54 59 57
f 54 61 59
f 57 59 58
f 54 60 61
f 61 62 63
f 59 61 63
f 59 63 64
f 63 65 64
f 47 50 112
f 32 113 48
f 48 114 49
f 49 117 52
f 50 51 115
f 52 118 53
f 51 53 116
f 47 125 60
f 54 55 119
f 55 56 120
f 56 57 121
f 57 58 122
f 58 59 123
f 59 64 124
f 60 126 61
f 61 127 62
f 63 130 65
f 64 65 129
f 62 128 63
f 2 67 66
f 3 68 69
f 1 66 68
f 4 69 70
f 5 70 71
f 7 72 67
f 8 73 72
f 9 74 73
f 10 75 74
f 6 71 78
f 13 78 79
f 11 76 75
f 12 77 76
f 33 98 77
f 15 80 81
f 14 79 80
f 16 81 82
f 17 82 83
f 18 83 84
f 19 84 85
f 20 85 86
f 21 86 87
f 22 87 88
f 23 88 89
f 24 89 90
f 25 90 91
f 26 91 92
f 27 92 93
f 28 93 94
f 29 94 95
f 30 95 96
f 31 96 97
f 32 97 113
f 34 99 98
f 35 100 99
f 37 102 100
f 38 103 102
f 39 104 103
f 40 105 104
f 41 106 105
f 42 107 106
f 43 108 107
f 44 109 108
f 45 110 109
f 46 111 110
f 36 101 111
f 54 119 101
f 47 112 125
f 50 115 112
f 48 113 114
f 49 114 117
f 51 116 115
f 52 117 118
f 53 118 116
f 55 120 119
f 56 121 120
f 57 122 121
f 58 123 122
f 59 124 123
f 60 125 126
f 61 126 127
f 62 127 128
f 63 128 130
f 65 130 129
f 64 129 124
f 66 77 68
f 66 67 77
f 68 77 69
f 69 77 70
f 70 77 71
f 72 73 76
f 72 77 67
f 74 76 73
f 72 76 77
f 75 76 74
f 71 77 78
f 78 80 79
f 78 77 98
f 100 80 99
f 78 98 80
f 81 80 100
f 82 81 108
f 82 108 83
f 84 83 108
f 84 109 85
f 86 85 111
f 86 111 87
f 87 111 88
f 88 111 89
f 89 111 90
f 99 80 98
f 90 111 91
f 94 115 95
f 81 100 102
f 81 102 103
f 81 103 104
f 81 104 105
f 81 105 106
f 81 106 107
f 81 107 108
f 84 108 109
f 110 85 109
f 111 85 110
f 91 111 101
f 119 121 101
f 91 101 92
f 94 101 112
f 93 92 101
f 94 93 101
f 94 112 115
f 96 95 115
f 96 115 97
f 97 115 113
f 113 116 114
f 113 115 116
f 118 114 116
f 118 117 114
f 101 125 112
f 128 101 130
f 122 101 121
f 123 101 122
f 124 101 123
f 124 129 101
f 101 129 130
f 125 101 126
f 101 127 126
f 128 127 101
f 119 120 121