# https://github.com/mikedh/trimesh
v -0.03042309 -0.01894267 0.00109458 0.17647059 0.95882354 0.21176470
v -0.03042309 -0.01887307 0.00328189 0.17647059 0.95882354 0.21176470
v -0.03042309 -0.01881738 0.00066836 0.17647059 0.95882354 0.21176470
v -0.02888263 -0.02263191 -0.00021923 0.17647059 0.95882354 0.21176470
v -0.02888582 -0.02263191 0.00109458 0.17647059 0.95882354 0.21176470
v -0.02888263 -0.02263191 0.02078045 0.17647059 0.95882354 0.21176470
v -0.03042309 -0.01870137 0.00479709 0.17647059 0.95882354 0.21176470
v -0.03042309 -0.01850648 -0.00021923 0.17647059 0.95882354 0.21176470
v -0.02826708 -0.02299851 -0.00021923 0.17647059 0.95882354 0.21176470
v -0.02734216 -0.02354610 0.02078045 0.17647059 0.95882354 0.21176470
v -0.02873273 -0.02238132 0.02237995 0.17647059 0.95882354 0.21176470
v -0.02932594 -0.02078034 0.02078045 0.17647059 0.95882354 0.21176470
v -0.03042309 -0.01859928 0.00546921 0.17647059 0.95882354 0.21176470
v -0.03042309 0.01709110 -0.00021923 0.17647059 0.95882354 0.21176470
v -0.02734216 -0.02354610 -0.00021923 0.17647059 0.95882354 0.21176470
v -0.02734216 -0.02271079 0.02271017 0.17647059 0.95882354 0.21176470
v -0.02647148 -0.02361107 -0.00021923 0.17647059 0.95882354 0.21176470
v -0.02515427 -0.02370387 0.01859313 0.17647059 0.95882354 0.21176470
v -0.02515427 -0.02369923 0.02078045 0.17647059 0.95882354 0.21176470
v -0.02734216 -0.02078034 0.02354856 0.17647059 0.95882354 0.21176470
v -0.02888263 -0.02078034 0.02263523 0.17647059 0.95882354 0.21176470
v -0.03042309 -0.00546655 0.01904746 0.17647059 0.95882354 0.21176470
v -0.03042309 -0.00762905 0.01854162 0.17647059 0.95882354 0.21176470
v -0.03042309 -0.00968944 0.01779455 0.17647059 0.95882354 0.21176470
v -0.03042309 -0.01204685 0.01591871 0.17647059 0.95882354 0.21176470
v -0.03042309 -0.01423254 0.01379227 0.17647059 0.95882354 0.21176470
v -0.03042309 -0.01618620 0.01137310 0.17647059 0.95882354 0.21176470
v -0.03042309 -0.01812131 0.00737082 0.17647059 0.95882354 0.21176470
v -0.03042309 -0.01827909 0.00691884 0.17647059 0.95882354 0.21176470
v -0.03042309 0.01716536 0.00109458 0.17647059 0.95882354 0.21176470
v -0.02888263 0.02263191 -0.00021923 0.17647059 0.95882354 0.21176470
v -0.02515427 -0.02278505 0.02278744 0.17647059 0.95882354 0.21176470
v -0.02515427 -0.02078034 0.02370312 0.17647059 0.95882354 0.21176470
v -0.02515427 -0.02370387 -0.00021923 0.17647059 0.95882354 0.21176470
v -0.00328164 -0.02370387 0.01859313 0.17647059 0.95882354 0.21176470
v -0.00328164 -0.02369923 0.02078045 0.17647059 0.95882354 0.21176470
v -0.02889220 -0.00109053 0.02263523 0.17647059 0.95882354 0.21176470
v -0.02734216 0.02078034 0.02354856 0.17647059 0.95882354 0.21176470
v -0.03042309 -0.00109053 0.01979687 0.17647059 0.95882354 0.21176470
v -0.03042309 0.01717464 0.00148567 0.17647059 0.95882354 0.21176470
v -0.02888263 0.02263191 0.02078045 0.17647059 0.95882354 0.21176470
v -0.02795453 0.02318414 -0.00021923 0.17647059 0.95882354 0.21176470
v -0.03042309 0.01719784 0.00328189 0.17647059 0.95882354 0.21176470
v 0.00215622 -0.02278505 0.02278744 0.17647059 0.95882354 0.21176470
v -0.00328164 -0.02078034 0.02370312 0.17647059 0.95882354 0.21176470
v -0.02515427 0.02078034 0.02370312 0.17647059 0.95882354 0.21176470
v -0.00328164 -0.02370387 -0.00021923 0.17647059 0.95882354 0.21176470
v 0.00215622 -0.02365282 0.02078045 0.17647059 0.95882354 0.21176470
v -0.00109694 -0.02368067 0.02078045 0.17647059 0.95882354 0.21176470
v 0.00215622 -0.02323055 0.02175936 0.17647059 0.95882354 0.21176470
v -0.02889220 0.00109053 0.02263523 0.17647059 0.95882354 0.21176470
v -0.02734216 0.02271079 0.02271017 0.17647059 0.95882354 0.21176470
v -0.02873273 0.02238132 0.02237995 0.17647059 0.95882354 0.21176470
v -0.02888263 0.02078034 0.02263523 0.17647059 0.95882354 0.21176470
v -0.03042309 -0.00075641 0.01977813 0.17647059 0.95882354 0.21176470
v -0.02932594 0.02078034 0.02078045 0.17647059 0.95882354 0.21176470
v -0.02734216 0.02354610 0.02078045 0.17647059 0.95882354 0.21176470
v -0.03042309 0.01710502 0.00546921 0.17647059 0.95882354 0.21176470
v -0.02734216 0.02354610 -0.00021923 0.17647059 0.95882354 0.21176470
v 0.00215622 -0.02078034 0.02365161 0.17647059 0.95882354 0.21176470
v -0.00109694 -0.02078034 0.02368438 0.17647059 0.95882354 0.21176470
v -0.00328164 0.02078034 0.02370312 0.17647059 0.95882354 0.21176470
v -0.02515427 0.02278505 0.02278744 0.17647059 0.95882354 0.21176470
v -0.00109694 -0.02348577 -0.00021923 0.17647059 0.95882354 0.21176470
v 0.00104633 -0.02256694 -0.00021923 0.17647059 0.95882354 0.21176470
v 0.00215622 -0.02184766 -0.00021923 0.17647059 0.95882354 0.21176470
v -0.02515427 0.02369923 0.02078045 0.17647059 0.95882354 0.21176470
v -0.03042309 0.00500714 0.01904746 0.17647059 0.95882354 0.21176470
v -0.03042309 0.00109053 0.01963059 0.17647059 0.95882354 0.21176470
v -0.03042309 0.01708647 0.00570340 0.17647059 0.95882354 0.21176470
v -0.03042309 0.01687764 0.00766590 0.17647059 0.95882354 0.21176470
v -0.03042309 0.01620940 0.00984386 0.17647059 0.95882354 0.21176470
v -0.03042309 0.01384737 0.01385082 0.17647059 0.95882354 0.21176470
v -0.03042309 0.01165239 0.01601004 0.17647059 0.95882354 0.21176470
v -0.03042309 0.01123938 0.01627935 0.17647059 0.95882354 0.21176470
v -0.03042309 0.00756872 0.01834957 0.17647059 0.95882354 0.21176470
v -0.03042309 0.00712323 0.01850413 0.17647059 0.95882354 0.21176470
v -0.03042309 0.00546655 0.01894441 0.17647059 0.95882354 0.21176470
v -0.02515427 0.02370387 0.01859313 0.17647059 0.95882354 0.21176470
v -0.02515427 0.02370387 -0.00021923 0.17647059 0.95882354 0.21176470
v 0.00215622 0.02078034 0.02365161 0.17647059 0.95882354 0.21176470
v -0.00109694 0.02078034 0.02368438 0.17647059 0.95882354 0.21176470
v 0.00215622 0.02175950 0.02323241 0.17647059 0.95882354 0.21176470
v 0.00215622 0.02278505 0.02278744 0.17647059 0.95882354 0.21176470
v 0.00215622 0.02184766 -0.00021923 0.17647059 0.95882354 0.21176470
v -0.00328164 0.02369923 0.02078045 0.17647059 0.95882354 0.21176470
v -0.00328164 0.02370387 0.01859313 0.17647059 0.95882354 0.21176470
v -0.00328164 0.02370387 -0.00021923 0.17647059 0.95882354 0.21176470
v 0.00215622 0.02320734 0.02181089 0.17647059 0.95882354 0.21176470
v -0.00109694 0.02368531 0.02078045 0.17647059 0.95882354 0.21176470
v 0.00148326 0.02228386 -0.00021923 0.17647059 0.95882354 0.21176470
v 0.00215622 0.02365282 0.02078045 0.17647059 0.95882354 0.21176470
v -0.00109694 0.02348577 -0.00021923 0.17647059 0.95882354 0.21176470
v 0.00104633 0.02256694 -0.00021923 0.17647059 0.95882354 0.21176470
v 0.00019157 0.02293354 -0.00021923 0.17647059 0.95882354 0.21176470
f 1 2 7
f 1 7 13
f 1 13 29
f 1 29 28
f 1 28 27
f 1 27 26
f 1 26 25
f 1 25 24
f 1 24 23
f 1 23 22
f 1 22 39
f 1 39 55
f 1 55 69
f 1 69 68
f 1 68 78
f 1 78 77
f 1 77 76
f 1 76 75
f 1 75 74
f 1 74 73
f 1 73 72
f 1 72 71
f 1 71 70
f 1 70 58
f 1 58 43
f 1 43 40
f 1 40 30
f 1 30 14
f 1 14 8
f 1 8 3
f 1 3 4
f 1 4 5
f 1 5 6
f 1 6 2
f 2 6 7
f 3 8 4
f 4 9 5
f 4 8 14
f 4 14 31
f 4 31 42
f 4 42 59
f 4 59 80
f 4 80 88
f 4 88 93
f 4 93 95
f 4 95 94
f 4 94 91
f 4 91 85
f 4 85 66
f 4 66 65
f 4 65 64
f 4 64 47
f 4 47 34
f 4 34 17
f 4 17 15
f 4 15 9
f 5 9 10
f 5 10 6
f 6 10 11
f 6 11 12
f 6 12 13
f 6 13 7
f 9 15 10
f 10 16 11
f 10 15 17
f 10 17 18
f 10 18 19
f 10 19 16
f 11 20 21
f 11 21 12
f 11 16 20
f 12 21 22
f 12 22 23
f 12 23 24
f 12 24 25
f 12 25 26
f 12 26 27
f 12 27 28
f 12 28 29
f 12 29 13
f 14 30 31
f 16 19 32
f 16 32 33
f 16 33 20
f 17 34 18
f 18 34 47
f 18 47 35
f 18 35 36
f 18 36 19
f 19 36 44
f 19 44 32
f 20 37 21
f 20 33 46
f 20 46 38
f 20 38 51
f 20 51 37
f 21 37 39
f 21 39 22
f 30 40 31
f 31 41 42
f 31 40 43
f 31 43 41
f 32 44 45
f 32 45 33
f 33 45 62
f 33 62 46
f 35 47 48
f 35 48 49
f 35 49 36
f 36 49 50
f 36 50 44
f 37 51 39
f 38 46 52
f 38 52 53
f 38 53 54
f 38 54 51
f 39 51 54
f 39 54 55
f 41 56 53
f 41 53 57
f 41 57 42
f 41 43 58
f 41 58 56
f 42 57 59
f 44 50 48
f 44 48 66
f 44 66 85
f 44 85 92
f 44 92 89
f 44 89 84
f 44 84 83
f 44 83 81
f 44 81 60
f 44 60 61
f 44 61 45
f 45 61 82
f 45 82 62
f 46 62 84
f 46 84 63
f 46 63 52
f 47 64 48
f 48 64 65
f 48 65 66
f 48 50 49
f 52 63 67
f 52 67 57
f 52 57 53
f 53 56 54
f 54 56 68
f 54 68 69
f 54 69 55
f 56 58 70
f 56 70 71
f 56 71 72
f 56 72 73
f 56 73 74
f 56 74 75
f 56 75 76
f 56 76 77
f 56 77 78
f 56 78 68
f 57 67 79
f 57 79 80
f 57 80 59
f 60 81 82
f 60 82 61
f 62 82 83
f 62 83 84
f 63 84 86
f 63 86 67
f 67 86 87
f 67 87 79
f 79 87 88
f 79 88 80
f 81 83 82
f 84 89 90
f 84 90 86
f 85 91 92
f 86 90 87
f 87 90 88
f 88 90 92
f 88 92 93
f 89 92 90
f 91 94 92
f 92 94 95
f 92 95 93