# https://github.com/mikedh/trimesh
v -0.04484400 -0.00109233 0.01918260 0.84705882 1.38823530 0.10588236
v -0.04703082 -0.00109233 0.01895730 0.84705882 1.38823530 0.10588236
v -0.04484400 -0.00327906 0.01896456 0.84705882 1.38823530 0.10588236
v -0.04438197 -0.00327906 0.01878287 0.84705882 1.38823530 0.10588236
v -0.04438197 -0.00109233 0.01896456 0.84705882 1.38823530 0.10588236
v -0.04484400 0.00109070 0.01912446 0.84705882 1.38823530 0.10588236
v -0.04703082 0.00109070 0.01905905 0.84705882 1.38823530 0.10588236
v -0.04866012 -0.00109233 0.01801610 0.84705882 1.38823530 0.10588236
v -0.04842337 -0.00327906 0.01778717 0.84705882 1.38823530 0.10588236
v -0.04703082 -0.00327906 0.01858664 0.84705882 1.38823530 0.10588236
v -0.04878843 0.00109070 0.01810332 0.84705882 1.38823530 0.10588236
v -0.04484400 -0.00546577 0.01847399 0.84705882 1.38823530 0.10588236
v -0.04438197 -0.00546577 0.01834315 0.84705882 1.38823530 0.10588236
v -0.04438197 0.00109070 0.01888825 0.84705882 1.38823530 0.10588236
v -0.04484400 0.00328111 0.01879014 0.84705882 1.38823530 0.10588236
v -0.04703082 0.00328111 0.01888825 0.84705882 1.38823530 0.10588236
v -0.04880484 0.00328111 0.01805970 0.84705882 1.38823530 0.10588236
v -0.04946233 -0.00109233 0.01727477 0.84705882 1.38823530 0.10588236
v -0.04946233 -0.00313845 0.01686049 0.84705882 1.38823530 0.10588236
v -0.04946233 0.00109070 0.01750008 0.84705882 1.38823530 0.10588236
v -0.04946233 -0.00327906 0.01683143 0.84705882 1.38823530 0.10588236
v -0.04822195 -0.00461108 0.01759092 0.84705882 1.38823530 0.10588236
v -0.04706762 -0.00539178 0.01796886 0.84705882 1.38823530 0.10588236
v -0.04636338 -0.00706421 0.01772538 0.84705882 1.38823530 0.10588236
v -0.04946233 0.00328111 0.01751098 0.84705882 1.38823530 0.10588236
v -0.04484400 -0.00736020 0.01782714 0.84705882 1.38823530 0.10588236
v -0.04438197 -0.00728621 0.01779079 0.84705882 1.38823530 0.10588236
v -0.04438197 0.00328111 0.01855029 0.84705882 1.38823530 0.10588236
v -0.04438197 0.00385833 0.01841583 0.84705882 1.38823530 0.10588236
v -0.04438197 0.00542344 0.01797977 0.84705882 1.38823530 0.10588236
v -0.04469529 0.00559365 0.01807425 0.84705882 1.38823530 0.10588236
v -0.04532593 0.00714396 0.01775808 0.84705882 1.38823530 0.10588236
v -0.04703082 0.00546785 0.01843037 0.84705882 1.38823530 0.10588236
v -0.04837662 0.00697746 0.01765996 0.84705882 1.38823530 0.10588236
v -0.04864022 0.00546785 0.01787075 0.84705882 1.38823530 0.10588236
v -0.04946233 0.00546785 0.01723843 0.84705882 1.38823530 0.10588236
v -0.04946233 -0.00530669 0.01624636 0.84705882 1.38823530 0.10588236
v -0.04946233 -0.00545838 0.01618095 0.84705882 1.38823530 0.10588236
v -0.04782159 -0.00606889 0.01726388 0.84705882 1.38823530 0.10588236
v -0.04706762 -0.00773762 0.01686049 0.84705882 1.38823530 0.10588236
v -0.04612466 -0.01110836 0.01544688 0.84705882 1.38823530 0.10588236
v -0.04484400 -0.00984294 0.01655161 0.84705882 1.38823530 0.10588236
v -0.04484400 -0.00845172 0.01735836 0.84705882 1.38823530 0.10588236
v -0.04438197 -0.00803731 0.01747101 0.84705882 1.38823530 0.10588236
v -0.04438197 0.00590445 0.01782714 0.84705882 1.38823530 0.10588236
v -0.04703082 0.00731048 0.01781260 0.84705882 1.38823530 0.10588236
v -0.04438197 0.00726608 0.01721662 0.84705882 1.38823530 0.10588236
v -0.04469529 0.00778777 0.01709307 0.84705882 1.38823530 0.10588236
v -0.04562831 0.01118072 0.01550139 0.84705882 1.38823530 0.10588236
v -0.04703082 0.00984130 0.01655161 0.84705882 1.38823530 0.10588236
v -0.04703082 0.00840568 0.01734746 0.84705882 1.38823530 0.10588236
v -0.04946233 0.00577125 0.01715486 0.84705882 1.38823530 0.10588236
v -0.04847162 0.01121772 0.01551229 0.84705882 1.38823530 0.10588236
v -0.04920819 0.00970069 0.01582845 0.84705882 1.38823530 0.10588236
v -0.04915099 0.00768787 0.01679145 0.84705882 1.38823530 0.10588236
v -0.04946233 0.00768048 0.01655524 0.84705882 1.38823530 0.10588236
v -0.04946233 0.00738077 0.01666790 0.84705882 1.38823530 0.10588236
v -0.04946233 -0.00949143 0.01385884 0.84705882 1.38823530 0.10588236
v -0.04692440 -0.00963573 0.01577031 0.84705882 1.38823530 0.10588236
v -0.04484400 -0.01240707 0.01466559 0.84705882 1.38823530 0.10588236
v -0.04484400 -0.01131185 0.01559588 0.84705882 1.38823530 0.10588236
v -0.04946233 -0.00973193 0.01366987 0.84705882 1.38823530 0.10588236
v -0.04612964 -0.01329877 0.01331374 0.84705882 1.38823530 0.10588236
v -0.04484400 -0.01356517 0.01357176 0.84705882 1.38823530 0.10588236
v -0.04438197 -0.01130075 0.01558134 0.84705882 1.38823530 0.10588236
v -0.04438197 -0.00985773 0.01643532 0.84705882 1.38823530 0.10588236
v -0.04438197 0.00949719 0.01577757 0.84705882 1.38823530 0.10588236
v -0.04487733 0.00978950 0.01594110 0.84705882 1.38823530 0.10588236
v -0.04438197 0.01027791 0.01521795 0.84705882 1.38823530 0.10588236
v -0.04438197 0.01092171 0.01468738 0.84705882 1.38823530 0.10588236
v -0.04488130 0.01194663 0.01416047 0.84705882 1.38823530 0.10588236
v -0.04559300 0.01340075 0.01341551 0.84705882 1.38823530 0.10588236
v -0.04703082 0.01362275 0.01362627 0.84705882 1.38823530 0.10588236
v -0.04703082 0.01242393 0.01472010 0.84705882 1.38823530 0.10588236
v -0.04703082 0.01133241 0.01560678 0.84705882 1.38823530 0.10588236
v -0.04877451 0.01351545 0.01350272 0.84705882 1.38823530 0.10588236
v -0.04946233 0.01328975 0.01329195 0.84705882 1.38823530 0.10588236
v -0.04946233 0.01223892 0.01410595 0.84705882 1.38823530 0.10588236
v -0.04946233 0.01062201 0.01517070 0.84705882 1.38823530 0.10588236
v -0.04946233 0.00992640 0.01554136 0.84705882 1.38823530 0.10588236
v -0.04946233 0.00952310 0.01572671 0.84705882 1.38823530 0.10588236
v -0.04438197 -0.01208146 0.01491633 0.84705882 1.38823530 0.10588236
v -0.04438197 -0.01355408 0.01355360 0.84705882 1.38823530 0.10588236
v -0.04946233 -0.01152645 0.01190741 0.84705882 1.38823530 0.10588236
v -0.04946233 -0.01279557 0.01026122 0.84705882 1.38823530 0.10588236
v -0.04590184 -0.01529310 0.01090443 0.84705882 1.38823530 0.10588236
v -0.04504095 -0.01477880 0.01202368 0.84705882 1.38823530 0.10588236
v -0.04946233 -0.01171146 0.01170027 0.84705882 1.38823530 0.10588236
v -0.04444364 -0.01556690 0.01128963 0.84705882 1.38823530 0.10588236
v -0.04438197 -0.01553360 0.01132598 0.84705882 1.38823530 0.10588236
v -0.04438197 0.01169873 0.01390973 0.84705882 1.38823530 0.10588236
v -0.04497877 0.01405195 0.01182020 0.84705882 1.38823530 0.10588236
v -0.04582327 0.01539507 0.01106069 0.84705882 1.38823530 0.10588236
v -0.04703082 0.01471795 0.01237982 0.84705882 1.38823530 0.10588236
v -0.04438197 0.01245723 0.01310298 0.84705882 1.38823530 0.10588236
v -0.04438197 0.01310103 0.01235802 0.84705882 1.38823530 0.10588236
v -0.04876953 0.01556896 0.01127510 0.84705882 1.38823530 0.10588236
v -0.04946233 0.01542096 0.01108612 0.84705882 1.38823530 0.10588236
v -0.04946233 0.01434056 0.01223809 0.84705882 1.38823530 0.10588236
v -0.04946233 -0.01346527 0.00928731 0.84705882 1.38823530 0.10588236
v -0.04946233 -0.01355778 0.00912743 0.84705882 1.38823530 0.10588236
v -0.04946233 -0.01429409 0.00765567 0.84705882 1.38823530 0.10588236
v -0.04946233 -0.01439028 0.00745579 0.84705882 1.38823530 0.10588236
v -0.04946233 -0.01504520 0.00588230 0.84705882 1.38823530 0.10588236
v -0.04626243 -0.01565940 0.00944721 0.84705882 1.38823530 0.10588236
v -0.04494397 -0.01716162 0.00780465 0.84705882 1.38823530 0.10588236
v -0.04504095 -0.01608122 0.01004318 0.84705882 1.38823530 0.10588236
v -0.04438197 -0.01765743 0.00727047 0.84705882 1.38823530 0.10588236
v -0.04438197 -0.01556690 0.01128600 0.84705882 1.38823530 0.10588236
v -0.04438197 0.01392985 0.01126056 0.84705882 1.38823530 0.10588236
v -0.04549304 0.01572067 0.00984332 0.84705882 1.38823530 0.10588236
v -0.04592523 0.01750779 0.00659091 0.84705882 1.38823530 0.10588236
v -0.04703082 0.01727098 0.00816806 0.84705882 1.38823530 0.10588236
v -0.04703082 0.01643478 0.00984332 0.84705882 1.38823530 0.10588236
v -0.04703082 0.01556896 0.01128600 0.84705882 1.38823530 0.10588236
v -0.04921863 0.01727469 0.00833521 0.84705882 1.38823530 0.10588236
v -0.04938624 0.01616097 0.01002501 0.84705882 1.38823530 0.10588236
v -0.04946233 0.01607958 0.01010496 0.84705882 1.38823530 0.10588236
v -0.04946233 -0.01546700 0.00478846 0.84705882 1.38823530 0.10588236
v -0.04573971 -0.01737252 0.00596950 0.84705882 1.38823530 0.10588236
v -0.04438197 -0.01777582 0.00689616 0.84705882 1.38823530 0.10588236
v -0.04438197 0.01466985 0.00983967 0.84705882 1.38823530 0.10588236
v -0.04438197 0.01468095 0.00981788 0.84705882 1.38823530 0.10588236
v -0.04438197 0.01669008 0.00328036 0.84705882 1.38823530 0.10588236
v -0.04580537 0.01761879 0.00546801 0.84705882 1.38823530 0.10588236
v -0.04703082 0.01855860 0.00328036 0.84705882 1.38823530 0.10588236
v -0.04703082 0.01817381 0.00546801 0.84705882 1.38823530 0.10588236
v -0.04703082 0.01770759 0.00707422 0.84705882 1.38823530 0.10588236
v -0.04438197 0.01549497 0.00759388 0.84705882 1.38823530 0.10588236
v -0.04438197 0.01623127 0.00550072 0.84705882 1.38823530 0.10588236
v -0.04438197 0.01627197 0.00533720 0.84705882 1.38823530 0.10588236
v -0.04921863 0.01778899 0.00724138 0.84705882 1.38823530 0.10588236
v -0.04946233 0.01775569 0.00716145 0.84705882 1.38823530 0.10588236
v -0.04946233 0.01703418 0.00850965 0.84705882 1.38823530 0.10588236
v -0.04946233 -0.01551140 0.00462131 0.84705882 1.38823530 0.10588236
v -0.04946233 -0.01592211 0.00303690 0.84705882 1.38823530 0.10588236
v -0.04494397 -0.01792753 0.00532992 0.84705882 1.38823530 0.10588236
v -0.04438197 -0.01806443 0.00536264 0.84705882 1.38823530 0.10588236
v -0.04438197 0.01671228 0.00306960 0.84705882 1.38823530 0.10588236
v -0.04565865 0.01776309 0.00328036 0.84705882 1.38823530 0.10588236
v -0.04703082 0.01866590 0.00109272 0.84705882 1.38823530 0.10588236
v -0.04921863 0.01925792 0.00109272 0.84705882 1.38823530 0.10588236
v -0.04921863 0.01897671 0.00328036 0.84705882 1.38823530 0.10588236
v -0.04921863 0.01842169 0.00546801 0.84705882 1.38823530 0.10588236
v -0.04946233 0.01826630 0.00572603 0.84705882 1.38823530 0.10588236
v -0.04946233 -0.01623291 0.00088196 0.84705882 1.38823530 0.10588236
v -0.04484400 -0.01829383 0.00328036 0.84705882 1.38823530 0.10588236
v -0.04596551 -0.01752423 0.00450866 0.84705882 1.38823530 0.10588236
v -0.04438197 -0.01844184 0.00328036 0.84705882 1.38823530 0.10588236
v -0.04438197 0.01678998 0.00109272 0.84705882 1.38823530 0.10588236
v -0.04565716 0.01777050 0.00109272 0.84705882 1.38823530 0.10588236
v -0.04703082 0.01848461 -0.00109129 0.84705882 1.38823530 0.10588236
v -0.04921863 0.01924682 -0.00109129 0.84705882 1.38823530 0.10588236
v -0.04946233 0.01918391 -0.00109129 0.84705882 1.38823530 0.10588236
v -0.04946233 0.01916912 0.00109272 0.84705882 1.38823530 0.10588236
v -0.04946233 0.01887681 0.00325857 0.84705882 1.38823530 0.10588236
v -0.04946233 0.01880651 0.00361105 0.84705882 1.38823530 0.10588236
v -0.04946233 0.01833660 0.00546801 0.84705882 1.38823530 0.10588236
v -0.04946233 -0.01624031 -0.00107676 0.84705882 1.38823530 0.10588236
v -0.04484400 -0.01835673 0.00109272 0.84705882 1.38823530 0.10588236
v -0.04438197 -0.01854174 0.00109272 0.84705882 1.38823530 0.10588236
v -0.04438197 0.01678998 0.00088196 0.84705882 1.38823530 0.10588236
v -0.04438197 0.01673077 -0.00109129 0.84705882 1.38823530 0.10588236
v -0.04921863 0.01897301 -0.00327894 0.84705882 1.38823530 0.10588236
v -0.04438197 0.01648657 -0.00314811 0.84705882 1.38823530 0.10588236
v -0.04694081 0.01805169 -0.00309725 0.84705882 1.38823530 0.10588236
v -0.04946233 0.01892490 -0.00327894 0.84705882 1.38823530 0.10588236
v -0.04946233 -0.01622181 -0.00134203 0.84705882 1.38823530 0.10588236
v -0.04438197 -0.01839373 -0.00094230 0.84705882 1.38823530 0.10588236
v -0.04761469 0.01786670 -0.00546658 0.84705882 1.38823530 0.10588236
v -0.04921863 0.01842169 -0.00546658 0.84705882 1.38823530 0.10588236
v -0.04946233 0.01839581 -0.00546658 0.84705882 1.38823530 0.10588236
v -0.04438197 0.01637928 -0.00356602 0.84705882 1.38823530 0.10588236
v -0.04946233 -0.01595910 -0.00327894 0.84705882 1.38823530 0.10588236
v -0.04438197 -0.01813473 -0.00318082 0.84705882 1.38823530 0.10588236
v -0.04795937 0.01761508 -0.00681116 0.84705882 1.38823530 0.10588236
v -0.04921863 0.01778529 -0.00723633 0.84705882 1.38823530 0.10588236
v -0.04946233 0.01777790 -0.00721815 0.84705882 1.38823530 0.10588236
v -0.04438197 0.01563556 -0.00551382 0.84705882 1.38823530 0.10588236
v -0.04946233 -0.01592211 -0.00350061 0.84705882 1.38823530 0.10588236
v -0.04438197 -0.01811993 -0.00327894 0.84705882 1.38823530 0.10588236
v -0.04921863 0.01727098 -0.00833015 0.84705882 1.38823530 0.10588236
v -0.04438197 0.01455516 -0.00759609 0.84705882 1.38823530 0.10588236
v -0.04438197 0.01436645 -0.00792678 0.84705882 1.38823530 0.10588236
v -0.04821101 0.01525817 -0.01087756 0.84705882 1.38823530 0.10588236
v -0.04946233 0.01727098 -0.00831198 0.84705882 1.38823530 0.10588236
v -0.04946233 -0.01557060 -0.00484881 0.84705882 1.38823530 0.10588236
v -0.04438197 -0.01801634 -0.00371502 0.84705882 1.38823530 0.10588236
v -0.04905153 0.01615728 -0.01002722 0.84705882 1.38823530 0.10588236
v -0.04946233 0.01576507 -0.01085575 0.84705882 1.38823530 0.10588236
v -0.04438197 0.01350065 -0.00917686 0.84705882 1.38823530 0.10588236
v -0.04438197 0.01332673 -0.00940944 0.84705882 1.38823530 0.10588236
v -0.04438197 0.01232033 -0.01055777 0.84705882 1.38823530 0.10588236
v -0.04438197 0.01145822 -0.01146625 0.84705882 1.38823530 0.10588236
v -0.04438197 0.01123621 -0.01169883 0.84705882 1.38823530 0.10588236
v -0.04819858 0.01304184 -0.01306521 0.84705882 1.38823530 0.10588236
v -0.04946233 0.01345254 -0.01344678 0.84705882 1.38823530 0.10588236
v -0.04946233 0.01374855 -0.01314516 0.84705882 1.38823530 0.10588236
v -0.04946233 0.01552457 -0.01121916 0.84705882 1.38823530 0.10588236
v -0.04438197 -0.01761303 -0.00498690 0.84705882 1.38823530 0.10588236
v -0.04946233 -0.01431628 -0.00794131 0.84705882 1.38823530 0.10588236
v -0.04438197 0.01001890 -0.01277450 0.84705882 1.38823530 0.10588236
v -0.04438197 0.00915680 -0.01344678 0.84705882 1.38823530 0.10588236
v -0.04946233 0.01173572 -0.01480951 0.84705882 1.38823530 0.10588236
v -0.04438197 -0.01706172 -0.00617522 0.84705882 1.38823530 0.10588236
v -0.04946233 -0.01358367 -0.00940581 0.84705882 1.38823530 0.10588236
v -0.04438197 0.00881268 -0.01368298 0.84705882 1.38823530 0.10588236
v -0.04946233 0.01092542 -0.01534371 0.84705882 1.38823530 0.10588236
v -0.04438197 -0.01627731 -0.00748707 0.84705882 1.38823530 0.10588236
v -0.04946233 -0.01269936 -0.01065952 0.84705882 1.38823530 0.10588236
v -0.04438197 -0.01498969 -0.00950756 0.84705882 1.38823530 0.10588236
v -0.04438197 -0.01545221 -0.00884980 0.84705882 1.38823530 0.10588236
v -0.04438197 0.00767307 -0.01434074 0.84705882 1.38823530 0.10588236
v -0.04946233 0.01020021 -0.01572891 0.84705882 1.38823530 0.10588236
v -0.04946233 -0.01156346 -0.01209131 0.84705882 1.38823530 0.10588236
v -0.04438197 -0.01447539 -0.01010352 0.84705882 1.38823530 0.10588236
v -0.04438197 0.00576755 -0.01525649 0.84705882 1.38823530 0.10588236
v -0.04946233 0.00752506 -0.01699716 0.84705882 1.38823530 0.10588236
v -0.04946233 -0.00961724 -0.01396280 0.84705882 1.38823530 0.10588236
v -0.04438197 -0.01342827 -0.01121552 0.84705882 1.38823530 0.10588236
v -0.04438197 0.00449473 -0.01573254 0.84705882 1.38823530 0.10588236
v -0.04946233 0.00632626 -0.01738962 0.84705882 1.38823530 0.10588236
v -0.04946233 -0.00959504 -0.01398096 0.84705882 1.38823530 0.10588236
v -0.04438197 -0.01226646 -0.01230934 0.84705882 1.38823530 0.10588236
v -0.04438197 -0.01293617 -0.01168430 0.84705882 1.38823530 0.10588236
v -0.04438197 0.00329962 -0.01604142 0.84705882 1.38823530 0.10588236
v -0.04946233 0.00546785 -0.01761856 0.84705882 1.38823530 0.10588236
v -0.04946233 -0.00765621 -0.01529646 0.84705882 1.38823530 0.10588236
v -0.04438197 -0.01111205 -0.01322509 0.84705882 1.38823530 0.10588236
v -0.04438197 0.00109070 -0.01635032 0.84705882 1.38823530 0.10588236
v -0.04946233 0.00328111 -0.01791656 0.84705882 1.38823530 0.10588236
v -0.04946233 -0.00547687 -0.01648476 0.84705882 1.38823530 0.10588236
v -0.04438197 -0.00978744 -0.01407909 0.84705882 1.38823530 0.10588236
v -0.04438197 -0.01017965 -0.01384652 0.84705882 1.38823530 0.10588236
v -0.04438197 0.00050979 -0.01638302 0.84705882 1.38823530 0.10588236
v -0.04438197 -0.00109233 -0.01643389 0.84705882 1.38823530 0.10588236
v -0.04946233 0.00109070 -0.01794199 0.84705882 1.38823530 0.10588236
v -0.04946233 -0.00524377 -0.01659742 0.84705882 1.38823530 0.10588236
v -0.04438197 -0.00831111 -0.01484584 0.84705882 1.38823530 0.10588236
v -0.04438197 -0.00167694 -0.01643026 0.84705882 1.38823530 0.10588236
v -0.04438197 -0.00327906 -0.01630306 0.84705882 1.38823530 0.10588236
v -0.04946233 -0.00109233 -0.01772395 0.84705882 1.38823530 0.10588236
v -0.04946233 -0.00327906 -0.01727697 0.84705882 1.38823530 0.10588236
v -0.04438197 -0.00585059 -0.01580522 0.84705882 1.38823530 0.10588236
v -0.04438197 -0.00799291 -0.01497304 0.84705882 1.38823530 0.10588236
v -0.04438197 -0.00381556 -0.01624855 0.84705882 1.38823530 0.10588236
v -0.04946233 -0.00189894 -0.01756043 0.84705882 1.38823530 0.10588236
v -0.04438197 -0.00542137 -0.01591423 0.84705882 1.38823530 0.10588236
f 1 2 3
f 1 3 4
f 1 4 5
f 1 5 6
f 1 6 7
f 1 7 2
f 2 8 9
f 2 9 10
f 2 10 3
f 2 7 11
f 2 11 8
f 3 10 12
f 3 12 13
f 3 13 4
f 4 13 27
f 4 27 44
f 4 44 66
f 4 66 65
f 4 65 82
f 4 82 83
f 4 83 90
f 4 90 109
f 4 109 108
f 4 108 121
f 4 121 138
f 4 138 149
f 4 149 161
f 4 161 169
f 4 169 175
f 4 175 181
f 4 181 188
f 4 188 200
f 4 200 205
f 4 205 209
f 4 209 212
f 4 212 211
f 4 211 216
f 4 216 220
f 4 220 225
f 4 225 224
f 4 224 229
f 4 229 234
f 4 234 233
f 4 233 239
f 4 239 245
f 4 245 244
f 4 244 248
f 4 248 246
f 4 246 241
f 4 241 240
f 4 240 236
f 4 236 235
f 4 235 230
f 4 230 226
f 4 226 221
f 4 221 217
f 4 217 213
f 4 213 207
f 4 207 203
f 4 203 202
f 4 202 195
f 4 195 194
f 4 194 193
f 4 193 192
f 4 192 191
f 4 191 184
f 4 184 183
f 4 183 179
f 4 179 173
f 4 173 165
f 4 165 163
f 4 163 162
f 4 162 150
f 4 150 139
f 4 139 124
f 4 124 131
f 4 131 130
f 4 130 129
f 4 129 123
f 4 123 122
f 4 122 110
f 4 110 96
f 4 96 95
f 4 95 91
f 4 91 70
f 4 70 69
f 4 69 67
f 4 67 47
f 4 47 45
f 4 45 30
f 4 30 29
f 4 29 28
f 4 28 14
f 4 14 5
f 5 14 6
f 6 14 15
f 6 15 16
f 6 16 7
f 7 16 17
f 7 17 11
f 8 18 19
f 8 19 9
f 8 11 20
f 8 20 18
f 9 19 21
f 9 21 22
f 9 22 10
f 10 22 23
f 10 23 24
f 10 24 12
f 11 17 25
f 11 25 20
f 12 24 26
f 12 26 27
f 12 27 13
f 14 28 15
f 15 28 29
f 15 29 30
f 15 30 31
f 15 31 32
f 15 32 33
f 15 33 16
f 16 33 34
f 16 34 35
f 16 35 17
f 17 35 36
f 17 36 25
f 18 20 25
f 18 25 36
f 18 36 52
f 18 52 57
f 18 57 56
f 18 56 81
f 18 81 80
f 18 80 79
f 18 79 78
f 18 78 77
f 18 77 99
f 18 99 98
f 18 98 118
f 18 118 134
f 18 134 133
f 18 133 145
f 18 145 158
f 18 158 157
f 18 157 156
f 18 156 155
f 18 155 154
f 18 154 167
f 18 167 172
f 18 172 178
f 18 178 186
f 18 186 190
f 18 190 199
f 18 199 198
f 18 198 197
f 18 197 204
f 18 204 208
f 18 208 214
f 18 214 218
f 18 218 222
f 18 222 227
f 18 227 231
f 18 231 237
f 18 237 242
f 18 242 247
f 18 247 243
f 18 243 238
f 18 238 232
f 18 232 228
f 18 228 223
f 18 223 219
f 18 219 215
f 18 215 210
f 18 210 206
f 18 206 201
f 18 201 187
f 18 187 180
f 18 180 174
f 18 174 168
f 18 168 159
f 18 159 146
f 18 146 136
f 18 136 135
f 18 135 119
f 18 119 104
f 18 104 103
f 18 103 102
f 18 102 101
f 18 101 100
f 18 100 85
f 18 85 88
f 18 88 84
f 18 84 62
f 18 62 58
f 18 58 38
f 18 38 37
f 18 37 21
f 18 21 19
f 21 37 22
f 22 37 38
f 22 38 39
f 22 39 23
f 23 39 24
f 24 39 40
f 24 40 41
f 24 41 42
f 24 42 43
f 24 43 26
f 26 43 44
f 26 44 27
f 30 45 31
f 31 45 32
f 32 46 33
f 32 45 47
f 32 47 48
f 32 48 49
f 32 49 50
f 32 50 51
f 32 51 46
f 33 46 34
f 34 52 36
f 34 36 35
f 34 46 51
f 34 51 53
f 34 53 54
f 34 54 55
f 34 55 56
f 34 56 57
f 34 57 52
f 38 58 39
f 39 58 40
f 40 58 59
f 40 59 41
f 41 60 61
f 41 61 42
f 41 59 58
f 41 58 62
f 41 62 63
f 41 63 64
f 41 64 60
f 42 61 65
f 42 65 66
f 42 66 43
f 43 66 44
f 47 67 68
f 47 68 48
f 48 68 49
f 49 68 69
f 49 69 70
f 49 70 71
f 49 71 72
f 49 72 73
f 49 73 74
f 49 74 75
f 49 75 50
f 50 75 53
f 50 53 51
f 53 75 74
f 53 74 76
f 53 76 77
f 53 77 78
f 53 78 79
f 53 79 80
f 53 80 54
f 54 80 81
f 54 81 55
f 55 81 56
f 60 82 65
f 60 65 61
f 60 64 83
f 60 83 82
f 62 84 63
f 63 85 86
f 63 86 87
f 63 87 64
f 63 84 88
f 63 88 85
f 64 87 89
f 64 89 90
f 64 90 83
f 67 69 68
f 70 91 71
f 71 91 72
f 72 92 93
f 72 93 94
f 72 94 73
f 72 91 95
f 72 95 96
f 72 96 92
f 73 76 74
f 73 94 97
f 73 97 76
f 76 97 98
f 76 98 99
f 76 99 77
f 85 100 86
f 86 100 101
f 86 101 102
f 86 102 103
f 86 103 104
f 86 104 105
f 86 105 106
f 86 106 107
f 86 107 89
f 86 89 87
f 89 107 108
f 89 108 109
f 89 109 90
f 92 96 110
f 92 110 93
f 93 111 112
f 93 112 113
f 93 113 114
f 93 114 115
f 93 115 94
f 93 110 111
f 94 115 97
f 97 115 114
f 97 114 116
f 97 116 117
f 97 117 118
f 97 118 98
f 104 119 120
f 104 120 106
f 104 106 105
f 106 120 108
f 106 108 107
f 108 120 121
f 110 122 111
f 111 122 123
f 111 123 112
f 112 124 125
f 112 125 126
f 112 126 127
f 112 127 128
f 112 128 113
f 112 123 129
f 112 129 130
f 112 130 131
f 112 131 124
f 113 116 114
f 113 128 132
f 113 132 116
f 116 132 133
f 116 133 134
f 116 134 118
f 116 118 117
f 119 135 120
f 120 136 137
f 120 137 121
f 120 135 136
f 121 137 138
f 124 139 140
f 124 140 125
f 125 140 126
f 126 141 142
f 126 142 143
f 126 143 127
f 126 140 141
f 127 143 144
f 127 144 128
f 128 144 132
f 132 144 133
f 133 144 145
f 136 146 147
f 136 147 148
f 136 148 137
f 137 147 149
f 137 149 138
f 137 148 147
f 139 150 140
f 140 151 141
f 140 150 151
f 141 151 152
f 141 152 153
f 141 153 142
f 142 154 155
f 142 155 143
f 142 153 154
f 143 155 156
f 143 156 157
f 143 157 158
f 143 158 144
f 144 158 145
f 146 159 160
f 146 160 147
f 147 160 161
f 147 161 149
f 150 162 151
f 151 162 163
f 151 163 152
f 152 164 153
f 152 163 165
f 152 165 166
f 152 166 164
f 153 164 167
f 153 167 154
f 159 168 160
f 160 169 161
f 160 168 169
f 164 166 170
f 164 170 171
f 164 171 172
f 164 172 167
f 165 170 166
f 165 173 170
f 168 174 175
f 168 175 169
f 170 173 176
f 170 176 171
f 171 176 177
f 171 177 178
f 171 178 172
f 173 179 176
f 174 180 181
f 174 181 175
f 176 182 177
f 176 179 183
f 176 183 184
f 176 184 185
f 176 185 182
f 177 182 186
f 177 186 178
f 180 187 188
f 180 188 181
f 182 185 189
f 182 189 190
f 182 190 186
f 184 191 185
f 185 191 192
f 185 192 193
f 185 193 194
f 185 194 195
f 185 195 196
f 185 196 197
f 185 197 198
f 185 198 199
f 185 199 189
f 187 200 188
f 187 201 200
f 189 199 190
f 195 202 196
f 196 202 203
f 196 203 204
f 196 204 197
f 200 201 205
f 201 206 205
f 203 207 204
f 204 207 208
f 205 206 209
f 206 210 211
f 206 211 212
f 206 212 209
f 207 213 208
f 208 213 214
f 210 215 211
f 211 215 216
f 213 217 214
f 214 217 218
f 215 219 220
f 215 220 216
f 217 221 218
f 218 221 222
f 219 223 224
f 219 224 225
f 219 225 220
f 221 226 227
f 221 227 222
f 223 228 229
f 223 229 224
f 226 230 227
f 227 230 231
f 228 232 233
f 228 233 234
f 228 234 229
f 230 235 231
f 231 235 236
f 231 236 237
f 232 238 239
f 232 239 233
f 236 240 237
f 237 240 241
f 237 241 242
f 238 243 244
f 238 244 245
f 238 245 239
f 241 246 242
f 242 246 247
f 243 247 246
f 243 246 248
f 243 248 244