# https://github.com/mikedh/trimesh
v 0.00215942 0.02077845 0.02365387 0.84705882 0.02352940 0.92352941
v 0.01819472 0.02077845 0.02364919 0.84705882 0.02352940 0.92352941
v 0.01819472 0.02242250 0.02294574 0.84705882 0.02352940 0.92352941
v 0.00215942 0.02175590 0.02323320 0.84705882 0.02352940 0.92352941
v 0.00215942 -0.01460410 0.02185200 0.84705882 0.02352940 0.92352941
v 0.01819472 -0.01460410 0.02183330 0.84705882 0.02352940 0.92352941
v 0.01819472 0.02278575 0.02278683 0.84705882 0.02352940 0.92352941
v 0.00215942 0.02278575 0.02278683 0.84705882 0.02352940 0.92352941
v 0.00215942 -0.01460410 -0.00021923 0.84705882 0.02352940 0.92352941
v 0.01819472 -0.01460410 -0.00021923 0.84705882 0.02352940 0.92352941
v 0.01819472 0.02348980 0.02114621 0.84705882 0.02352940 0.92352941
v 0.00215942 0.02365460 0.02077929 0.84705882 0.02352940 0.92352941
v 0.00215942 0.02184951 -0.00021923 0.84705882 0.02352940 0.92352941
v 0.01819472 0.02182704 -0.00021923 0.84705882 0.02352940 0.92352941
v 0.01819472 0.02364709 0.02077929 0.84705882 0.02352940 0.92352941
f 1 2 3
f 1 3 4
f 1 4 8
f 1 8 12
f 1 12 13
f 1 13 9
f 1 9 5
f 1 5 2
f 2 5 6
f 2 6 10
f 2 10 14
f 2 14 15
f 2 15 11
f 2 11 7
f 2 7 3
f 3 7 8
f 3 8 4
f 5 9 10
f 5 10 6
f 7 11 12
f 7 12 8
f 9 13 14
f 9 14 10
f 11 15 12
f 12 15 13
f 13 15 14