# https://github.com/mikedh/trimesh
v -0.03939592 -0.01826594 -0.00109138 0.65294118 1.33529412 1.44117646
v -0.03939592 -0.01821094 -0.00327828 0.65294118 1.33529412 1.44117646
v -0.03446268 -0.01637112 0.00053410 0.65294118 1.33529412 1.44117646
v -0.03446268 -0.01634913 0.00109183 0.65294118 1.33529412 1.44117646
v -0.03446268 -0.01625017 0.00272468 0.65294118 1.33529412 1.44117646
v -0.03939592 -0.01809368 0.00109183 0.65294118 1.33529412 1.44117646
v -0.03939592 -0.01791042 -0.00546518 0.65294118 1.33529412 1.44117646
v -0.03904149 -0.01776748 -0.00546518 0.65294118 1.33529412 1.44117646
v -0.03446268 -0.01620253 -0.00164912 0.65294118 1.33529412 1.44117646
v -0.03446268 -0.01616222 0.00327873 0.65294118 1.33529412 1.44117646
v -0.03939592 -0.01784812 0.00255222 0.65294118 1.33529412 1.44117646
v -0.03939592 -0.01761723 -0.00687785 0.65294118 1.33529412 1.44117646
v -0.03924092 -0.01759524 -0.00682647 0.65294118 1.33529412 1.44117646
v -0.03446268 -0.01579206 -0.00381767 0.65294118 1.33529412 1.44117646
v -0.03446268 -0.01589833 -0.00327828 0.65294118 1.33529412 1.44117646
v -0.03939592 -0.01777848 0.00294115 0.65294118 1.33529412 1.44117646
v -0.03446268 -0.01583970 0.00489689 0.65294118 1.33529412 1.44117646
v -0.03939592 -0.01755858 -0.00701727 0.65294118 1.33529412 1.44117646
v -0.03914096 -0.01546587 -0.01115989 0.65294118 1.33529412 1.44117646
v -0.03870732 -0.01583970 -0.00984263 0.65294118 1.33529412 1.44117646
v -0.03446268 -0.01435905 -0.00768141 0.65294118 1.33529412 1.44117646
v -0.03446268 -0.01499308 -0.00633846 0.65294118 1.33529412 1.44117646
v -0.03446268 -0.01551353 -0.00492579 0.65294118 1.33529412 1.44117646
v -0.03939592 -0.01746696 0.00427677 0.65294118 1.33529412 1.44117646
v -0.03446268 -0.01574440 0.00524913 0.65294118 1.33529412 1.44117646
v -0.03939592 -0.01549152 -0.01118925 0.65294118 1.33529412 1.44117646
v -0.03742572 -0.01289304 -0.01282943 0.65294118 1.33529412 1.44117646
v -0.03446268 -0.01241293 -0.01065354 0.65294118 1.33529412 1.44117646
v -0.03446268 -0.01347945 -0.00926288 0.65294118 1.33529412 1.44117646
v -0.03446268 -0.01410249 -0.00818044 0.65294118 1.33529412 1.44117646
v -0.03939592 -0.01532293 -0.01140207 0.65294118 1.33529412 1.44117646
v -0.03888407 -0.01346112 -0.01347522 0.65294118 1.33529412 1.44117646
v -0.03939592 -0.01745962 0.00429513 0.65294118 1.33529412 1.44117646
v -0.03446268 -0.01416480 0.00902116 0.65294118 1.33529412 1.44117646
v -0.03446268 -0.01159197 -0.01158554 0.65294118 1.33529412 1.44117646
v -0.03743924 -0.01071970 -0.01510437 0.65294118 1.33529412 1.44117646
v -0.03939592 -0.01351609 -0.01352658 0.65294118 1.33529412 1.44117646
v -0.03889758 -0.01124746 -0.01554835 0.65294118 1.33529412 1.44117646
v -0.03939592 -0.01695386 0.00545462 0.65294118 1.33529412 1.44117646
v -0.03446268 -0.01390458 0.00946881 0.65294118 1.33529412 1.44117646
v -0.03939592 -0.01572242 0.00776259 0.65294118 1.33529412 1.44117646
v -0.03446268 -0.01013697 -0.01295418 0.65294118 1.33529412 1.44117646
v -0.03446268 -0.00931602 -0.01363299 0.65294118 1.33529412 1.44117646
v -0.03821332 -0.00993173 -0.01608040 0.65294118 1.33529412 1.44117646
v -0.03713067 -0.00665523 -0.01754445 0.65294118 1.33529412 1.44117646
v -0.03687908 -0.00926104 -0.01566945 0.65294118 1.33529412 1.44117646
v -0.03939592 -0.01312761 -0.01388250 0.65294118 1.33529412 1.44117646
v -0.03939592 -0.01127312 -0.01556670 0.65294118 1.33529412 1.44117646
v -0.03939592 -0.01080401 -0.01585658 0.65294118 1.33529412 1.44117646
v -0.03828093 -0.00820185 -0.01718485 0.65294118 1.33529412 1.44117646
v -0.03446268 -0.01224801 0.01165203 0.65294118 1.33529412 1.44117646
v -0.03939592 -0.01505906 0.00862488 0.65294118 1.33529412 1.44117646
v -0.03446268 -0.00593690 -0.01551534 0.65294118 1.33529412 1.44117646
v -0.03828093 -0.00710968 -0.01773892 0.65294118 1.33529412 1.44117646
v -0.03828093 -0.00546777 -0.01834068 0.65294118 1.33529412 1.44117646
v -0.03685879 -0.00546777 -0.01776828 0.65294118 1.33529412 1.44117646
v -0.03446268 -0.00327977 -0.01666381 0.65294118 1.33529412 1.44117646
v -0.03446268 -0.00433528 -0.01625654 0.65294118 1.33529412 1.44117646
v -0.03446268 -0.00518924 -0.01591163 0.65294118 1.33529412 1.44117646
v -0.03939592 -0.00825316 -0.01725825 0.65294118 1.33529412 1.44117646
v -0.03939592 -0.01415014 0.00978804 0.65294118 1.33529412 1.44117646
v -0.03446268 -0.01197314 0.01196760 0.65294118 1.33529412 1.44117646
v -0.03939592 -0.00716100 -0.01775359 0.65294118 1.33529412 1.44117646
v -0.03939592 -0.00546777 -0.01832967 0.65294118 1.33529412 1.44117646
v -0.03828093 -0.00327977 -0.01892043 0.65294118 1.33529412 1.44117646
v -0.03643676 -0.00327977 -0.01809851 0.65294118 1.33529412 1.44117646
v -0.03446268 -0.00251379 -0.01683261 0.65294118 1.33529412 1.44117646
v -0.03939592 -0.01383495 0.01013295 0.65294118 1.33529412 1.44117646
v -0.03446268 -0.01003436 0.01391232 0.65294118 1.33529412 1.44117646
v -0.03939592 -0.00327977 -0.01882503 0.65294118 1.33529412 1.44117646
v -0.03828093 -0.00109176 -0.01921398 0.65294118 1.33529412 1.44117646
v -0.03594130 -0.00097449 -0.01814622 0.65294118 1.33529412 1.44117646
v -0.03446268 -0.00097449 -0.01714816 0.65294118 1.33529412 1.44117646
v -0.03939592 -0.01196214 0.01186119 0.65294118 1.33529412 1.44117646
v -0.03446268 -0.00977413 0.01414349 0.65294118 1.33529412 1.44117646
v -0.03939592 -0.00109176 -0.01903785 0.65294118 1.33529412 1.44117646
v -0.03828093 0.00109257 -0.01923966 0.65294118 1.33529412 1.44117646
v -0.03609390 0.00109257 -0.01841408 0.65294118 1.33529412 1.44117646
v -0.03446268 -0.00004358 -0.01720687 0.65294118 1.33529412 1.44117646
v -0.03939592 -0.00950294 0.01382791 0.65294118 1.33529412 1.44117646
v -0.03446268 -0.00750185 0.01582769 0.65294118 1.33529412 1.44117646
v -0.03939592 0.00109257 -0.01897914 0.65294118 1.33529412 1.44117646
v -0.03828093 0.00328057 -0.01899748 0.65294118 1.33529412 1.44117646
v -0.03609390 0.00328057 -0.01834068 0.65294118 1.33529412 1.44117646
v -0.03489679 0.00328057 -0.01759215 0.65294118 1.33529412 1.44117646
v -0.03446268 0.00240464 -0.01728761 0.65294118 1.33529412 1.44117646
v -0.03446268 0.00109257 -0.01727659 0.65294118 1.33529412 1.44117646
v -0.03939592 -0.00876627 0.01423888 0.65294118 1.33529412 1.44117646
v -0.03446268 -0.00546411 0.01683673 0.65294118 1.33529412 1.44117646
v -0.03939592 0.00333188 -0.01861955 0.65294118 1.33529412 1.44117646
v -0.03939592 0.00463296 -0.01835169 0.65294118 1.33529412 1.44117646
v -0.03828093 0.00546856 -0.01847645 0.65294118 1.33529412 1.44117646
v -0.03662991 0.00717646 -0.01774994 0.65294118 1.33529412 1.44117646
v -0.03597799 0.00539894 -0.01794807 0.65294118 1.33529412 1.44117646
v -0.03494749 0.00462563 -0.01754813 0.65294118 1.33529412 1.44117646
v -0.03446268 0.00328057 -0.01723990 0.65294118 1.33529412 1.44117646
v -0.03939592 -0.00511227 0.01576898 0.65294118 1.33529412 1.44117646
v -0.03446268 -0.00327977 0.01760361 0.65294118 1.33529412 1.44117646
v -0.03939592 0.00546856 -0.01814988 0.65294118 1.33529412 1.44117646
v -0.03939592 0.00666336 -0.01782699 0.65294118 1.33529412 1.44117646
v -0.03828093 0.00730840 -0.01781964 0.65294118 1.33529412 1.44117646
v -0.03828093 0.00840057 -0.01732062 0.65294118 1.33529412 1.44117646
v -0.03609390 0.00984091 -0.01629322 0.65294118 1.33529412 1.44117646
v -0.03597799 0.00780684 -0.01718485 0.65294118 1.33529412 1.44117646
v -0.03517204 0.00608429 -0.01739034 0.65294118 1.33529412 1.44117646
v -0.03446268 0.00500311 -0.01698672 0.65294118 1.33529412 1.44117646
v -0.03446268 0.00405755 -0.01718853 0.65294118 1.33529412 1.44117646
v -0.03939592 -0.00440492 0.01595244 0.65294118 1.33529412 1.44117646
v -0.03446268 -0.00163051 0.01795587 0.65294118 1.33529412 1.44117646
v -0.03939592 -0.00327977 0.01620929 0.65294118 1.33529412 1.44117646
v -0.03939592 0.00701154 -0.01770224 0.65294118 1.33529412 1.44117646
v -0.03939592 0.01095873 -0.01538691 0.65294118 1.33529412 1.44117646
v -0.03828093 0.00984091 -0.01645834 0.65294118 1.33529412 1.44117646
v -0.03609390 0.01120428 -0.01550800 0.65294118 1.33529412 1.44117646
v -0.03499628 0.01094040 -0.01531353 0.65294118 1.33529412 1.44117646
v -0.03473695 0.00984091 -0.01558872 0.65294118 1.33529412 1.44117646
v -0.03446268 0.00837491 -0.01589694 0.65294118 1.33529412 1.44117646
v -0.03446268 0.00766757 -0.01614279 0.65294118 1.33529412 1.44117646
v -0.03446268 0.00567381 -0.01681427 0.65294118 1.33529412 1.44117646
v -0.03446268 -0.00129334 0.01801091 0.65294118 1.33529412 1.44117646
v -0.03939592 -0.00220593 0.01635972 0.65294118 1.33529412 1.44117646
v -0.03446268 -0.00109176 0.01804026 0.65294118 1.33529412 1.44117646
v -0.03939592 0.01099905 -0.01536123 0.65294118 1.33529412 1.44117646
v -0.03828093 0.01124460 -0.01554102 0.65294118 1.33529412 1.44117646
v -0.03609390 0.01230012 -0.01467140 0.65294118 1.33529412 1.44117646
v -0.03446268 0.01181634 -0.01410267 0.65294118 1.33529412 1.44117646
v -0.03446268 0.01059224 -0.01490991 0.65294118 1.33529412 1.44117646
v -0.03478186 0.01333365 -0.01332111 0.65294118 1.33529412 1.44117646
v -0.03446268 0.00987390 -0.01527316 0.65294118 1.33529412 1.44117646
v -0.03446268 0.00944142 -0.01546029 0.65294118 1.33529412 1.44117646
v -0.03939592 -0.00109176 0.01642578 0.65294118 1.33529412 1.44117646
v -0.03446268 0.00109257 0.01824573 0.65294118 1.33529412 1.44117646
v -0.03828093 0.01347658 -0.01348989 0.65294118 1.33529412 1.44117646
v -0.03828093 0.01233677 -0.01458335 0.65294118 1.33529412 1.44117646
v -0.03939592 0.01320537 -0.01321470 0.65294118 1.33529412 1.44117646
v -0.03609390 0.01358286 -0.01357795 0.65294118 1.33529412 1.44117646
v -0.03446268 0.01306244 -0.01317433 0.65294118 1.33529412 1.44117646
v -0.03479442 0.01545934 -0.01112321 0.65294118 1.33529412 1.44117646
v -0.03446268 0.01481797 -0.01143876 0.65294118 1.33529412 1.44117646
v -0.03446268 0.01364151 -0.01266063 0.65294118 1.33529412 1.44117646
v -0.03939592 -0.00001793 0.01642944 0.65294118 1.33529412 1.44117646
v -0.03446268 0.00328057 0.01817603 0.65294118 1.33529412 1.44117646
v -0.03768165 0.01554731 -0.01126264 0.65294118 1.33529412 1.44117646
v -0.03609390 0.01467870 -0.01241480 0.65294118 1.33529412 1.44117646
v -0.03939592 0.01497556 -0.01048108 0.65294118 1.33529412 1.44117646
v -0.03914000 0.01515882 -0.01064620 0.65294118 1.33529412 1.44117646
v -0.03609390 0.01655517 -0.00984263 0.65294118 1.33529412 1.44117646
v -0.03609390 0.01736148 -0.00845196 0.65294118 1.33529412 1.44117646
v -0.03454139 0.01773163 -0.00708333 0.65294118 1.33529412 1.44117646
v -0.03446268 0.01764001 -0.00716039 0.65294118 1.33529412 1.44117646
v -0.03446268 0.01560594 -0.01051410 0.65294118 1.33529412 1.44117646
v -0.03446268 0.01529442 -0.01093241 0.65294118 1.33529412 1.44117646
v -0.03609390 0.01559862 -0.01132134 0.65294118 1.33529412 1.44117646
v -0.03939592 0.00109257 0.01635238 0.65294118 1.33529412 1.44117646
v -0.03446268 0.00548690 0.01787881 0.65294118 1.33529412 1.44117646
v -0.03939592 0.00216641 0.01622763 0.65294118 1.33529412 1.44117646
v -0.03835868 0.01596512 -0.00988665 0.65294118 1.33529412 1.44117646
v -0.03755464 0.01770599 -0.00710168 0.65294118 1.33529412 1.44117646
v -0.03939592 0.01537505 -0.00976557 0.65294118 1.33529412 1.44117646
v -0.03828237 0.01697666 -0.00775847 0.65294118 1.33529412 1.44117646
v -0.03609390 0.01783059 -0.00735852 0.65294118 1.33529412 1.44117646
v -0.03609390 0.01847198 -0.00546518 0.65294118 1.33529412 1.44117646
v -0.03446268 0.01871019 -0.00327828 0.65294118 1.33529412 1.44117646
v -0.03446268 0.01776096 -0.00689619 0.65294118 1.33529412 1.44117646
v -0.03446268 0.01770964 -0.00703195 0.65294118 1.33529412 1.44117646
v -0.03446268 0.00601832 0.01780542 0.65294118 1.33529412 1.44117646
v -0.03939592 0.00328057 0.01600748 0.65294118 1.33529412 1.44117646
v -0.03499724 0.00655341 0.01749720 0.65294118 1.33529412 1.44117646
v -0.03898498 0.01720755 -0.00546518 0.65294118 1.33529412 1.44117646
v -0.03789123 0.01794421 -0.00546518 0.65294118 1.33529412 1.44117646
v -0.03609390 0.01895942 -0.00327828 0.65294118 1.33529412 1.44117646
v -0.03939592 0.01558029 -0.00928489 0.65294118 1.33529412 1.44117646
v -0.03939592 0.01616669 -0.00768509 0.65294118 1.33529412 1.44117646
v -0.03446268 0.01903638 -0.00109138 0.65294118 1.33529412 1.44117646
v -0.03446268 0.00679530 0.01759627 0.65294118 1.33529412 1.44117646
v -0.03939592 0.00406488 0.01581668 0.65294118 1.33529412 1.44117646
v -0.03939592 0.00488583 0.01554147 0.65294118 1.33529412 1.44117646
v -0.03446268 0.00733039 0.01737978 0.65294118 1.33529412 1.44117646
v -0.03509286 0.01103936 0.01538370 0.65294118 1.33529412 1.44117646
v -0.03939592 0.00679896 0.01477092 0.65294118 1.33529412 1.44117646
v -0.03939592 0.00542093 0.01533232 0.65294118 1.33529412 1.44117646
v -0.03939592 0.01689602 -0.00545049 0.65294118 1.33529412 1.44117646
v -0.03939592 0.01701696 -0.00485975 0.65294118 1.33529412 1.44117646
v -0.03808245 0.01815312 -0.00327828 0.65294118 1.33529412 1.44117646
v -0.03609390 0.01916832 -0.00109138 0.65294118 1.33529412 1.44117646
v -0.03446268 0.01908768 0.00109183 0.65294118 1.33529412 1.44117646
v -0.03446268 0.00984091 0.01614692 0.65294118 1.33529412 1.44117646
v -0.03446268 0.01174303 0.01502410 0.65294118 1.33529412 1.44117646
v -0.03532029 0.01339962 0.01338393 0.65294118 1.33529412 1.44117646
v -0.03939592 0.01096972 0.01227582 0.65294118 1.33529412 1.44117646
v -0.03939592 0.00940843 0.01346466 0.65294118 1.33529412 1.44117646
v -0.03939592 0.00862413 0.01391965 0.65294118 1.33529412 1.44117646
v -0.03446268 0.01116397 0.01547543 0.65294118 1.33529412 1.44117646
v -0.03939592 0.01720389 -0.00327828 0.65294118 1.33529412 1.44117646
v -0.03939592 0.01722586 -0.00290768 0.65294118 1.33529412 1.44117646
v -0.03807135 0.01822275 -0.00109138 0.65294118 1.33529412 1.44117646
v -0.03609390 0.01909869 0.00109183 0.65294118 1.33529412 1.44117646
v -0.03446268 0.01886412 0.00327873 0.65294118 1.33529412 1.44117646
v -0.03446268 0.01353156 0.01352337 0.65294118 1.33529412 1.44117646
v -0.03529035 0.01549599 0.01117135 0.65294118 1.33529412 1.44117646
v -0.03939592 0.01324203 0.00998252 0.65294118 1.33529412 1.44117646
v -0.03939592 0.01164408 0.01167772 0.65294118 1.33529412 1.44117646
v -0.03939592 0.01720389 -0.00109138 0.65294118 1.33529412 1.44117646
v -0.03939592 0.01717822 -0.00070611 0.65294118 1.33529412 1.44117646
v -0.03791393 0.01814579 0.00109183 0.65294118 1.33529412 1.44117646
v -0.03609390 0.01875785 0.00327873 0.65294118 1.33529412 1.44117646
v -0.03446268 0.01835103 0.00549131 0.65294118 1.33529412 1.44117646
v -0.03446268 0.01419492 0.01280419 0.65294118 1.33529412 1.44117646
v -0.03446268 0.01556196 0.01126675 0.65294118 1.33529412 1.44117646
v -0.03446268 0.01613004 0.01037513 0.65294118 1.33529412 1.44117646
v -0.03557865 0.01775363 0.00713881 0.65294118 1.33529412 1.44117646
v -0.03622235 0.01706094 0.00778461 0.65294118 1.33529412 1.44117646
v -0.03604947 0.01592113 0.00976970 0.65294118 1.33529412 1.44117646
v -0.03939592 0.01370748 0.00938442 0.65294118 1.33529412 1.44117646
v -0.03939592 0.01699499 0.00109183 0.65294118 1.33529412 1.44117646
v -0.03939592 0.01659549 0.00327873 0.65294118 1.33529412 1.44117646
v -0.03765702 0.01793322 0.00327873 0.65294118 1.33529412 1.44117646
v -0.03740109 0.01769499 0.00489689 0.65294118 1.33529412 1.44117646
v -0.03622235 0.01806148 0.00556470 0.65294118 1.33529412 1.44117646
v -0.03446268 0.01821175 0.00602336 0.65294118 1.33529412 1.44117646
v -0.03446268 0.01728084 0.00826896 0.65294118 1.33529412 1.44117646
v -0.03446268 0.01779761 0.00726724 0.65294118 1.33529412 1.44117646
v -0.03703650 0.01739447 0.00635726 0.65294118 1.33529412 1.44117646
v -0.03733734 0.01548867 0.00899181 0.65294118 1.33529412 1.44117646
v -0.03939592 0.01575255 0.00577017 0.65294118 1.33529412 1.44117646
v -0.03939592 0.01600176 0.00521244 0.65294118 1.33529412 1.44117646
f 1 2 3
f 1 3 4
f 1 4 5
f 1 5 6
f 1 6 11
f 1 11 16
f 1 16 24
f 1 24 33
f 1 33 39
f 1 39 41
f 1 41 52
f 1 52 61
f 1 61 68
f 1 68 74
f 1 74 80
f 1 80 88
f 1 88 97
f 1 97 108
f 1 108 110
f 1 110 121
f 1 121 131
f 1 131 141
f 1 141 154
f 1 154 156
f 1 156 167
f 1 167 176
f 1 176 177
f 1 177 181
f 1 181 180
f 1 180 192
f 1 192 191
f 1 191 190
f 1 190 202
f 1 202 201
f 1 201 214
f 1 214 225
f 1 225 226
f 1 226 216
f 1 216 215
f 1 215 204
f 1 204 203
f 1 203 195
f 1 195 194
f 1 194 183
f 1 183 182
f 1 182 173
f 1 173 172
f 1 172 159
f 1 159 145
f 1 145 135
f 1 135 123
f 1 123 112
f 1 112 111
f 1 111 100
f 1 100 99
f 1 99 91
f 1 91 90
f 1 90 82
f 1 82 76
f 1 76 70
f 1 70 64
f 1 64 63
f 1 63 60
f 1 60 49
f 1 49 48
f 1 48 47
f 1 47 37
f 1 37 31
f 1 31 26
f 1 26 18
f 1 18 12
f 1 12 7
f 1 7 2
f 2 7 8
f 2 8 9
f 2 9 3
f 3 9 15
f 3 15 14
f 3 14 23
f 3 23 22
f 3 22 21
f 3 21 30
f 3 30 29
f 3 29 28
f 3 28 35
f 3 35 42
f 3 42 43
f 3 43 53
f 3 53 59
f 3 59 58
f 3 58 57
f 3 57 67
f 3 67 73
f 3 73 79
f 3 79 87
f 3 87 86
f 3 86 96
f 3 96 107
f 3 107 106
f 3 106 119
f 3 119 118
f 3 118 117
f 3 117 130
f 3 130 129
f 3 129 127
f 3 127 126
f 3 126 137
f 3 137 140
f 3 140 139
f 3 139 152
f 3 152 151
f 3 151 150
f 3 150 165
f 3 165 164
f 3 164 163
f 3 163 174
f 3 174 186
f 3 186 198
f 3 198 207
f 3 207 220
f 3 220 222
f 3 222 221
f 3 221 210
f 3 210 209
f 3 209 208
f 3 208 199
f 3 199 188
f 3 188 193
f 3 193 187
f 3 187 178
f 3 178 175
f 3 175 166
f 3 166 155
f 3 155 142
f 3 142 132
f 3 132 122
f 3 122 120
f 3 120 109
f 3 109 98
f 3 98 89
f 3 89 81
f 3 81 75
f 3 75 69
f 3 69 62
f 3 62 51
f 3 51 40
f 3 40 34
f 3 34 25
f 3 25 17
f 3 17 10
f 3 10 5
f 3 5 4
f 5 10 6
f 6 10 11
f 7 12 13
f 7 13 8
f 8 13 14
f 8 14 15
f 8 15 9
f 10 16 11
f 10 17 16
f 12 18 13
f 13 18 19
f 13 19 20
f 13 20 21
f 13 21 22
f 13 22 23
f 13 23 14
f 16 17 24
f 17 25 24
f 18 26 19
f 19 27 28
f 19 28 29
f 19 29 30
f 19 30 21
f 19 21 20
f 19 26 31
f 19 31 32
f 19 32 27
f 24 25 33
f 25 34 33
f 27 35 28
f 27 32 36
f 27 36 35
f 31 37 32
f 32 37 38
f 32 38 36
f 33 34 39
f 34 40 41
f 34 41 39
f 35 36 42
f 36 43 42
f 36 38 44
f 36 44 45
f 36 45 46
f 36 46 43
f 37 47 38
f 38 47 48
f 38 48 49
f 38 49 50
f 38 50 44
f 40 51 41
f 41 51 52
f 43 46 45
f 43 45 53
f 44 50 45
f 45 50 54
f 45 54 55
f 45 55 56
f 45 56 57
f 45 57 58
f 45 58 59
f 45 59 53
f 49 60 50
f 50 60 54
f 51 61 52
f 51 62 61
f 54 60 63
f 54 63 55
f 55 63 64
f 55 64 65
f 55 65 56
f 56 65 66
f 56 66 57
f 57 66 67
f 61 62 68
f 62 69 68
f 64 70 65
f 65 70 71
f 65 71 66
f 66 72 73
f 66 73 67
f 66 71 72
f 68 69 74
f 69 75 74
f 70 76 71
f 71 76 77
f 71 77 78
f 71 78 72
f 72 78 73
f 73 78 79
f 74 75 80
f 75 81 80
f 76 82 77
f 77 82 83
f 77 83 84
f 77 84 78
f 78 84 85
f 78 85 86
f 78 86 87
f 78 87 79
f 80 81 88
f 81 89 88
f 82 90 83
f 83 90 91
f 83 91 92
f 83 92 93
f 83 93 94
f 83 94 84
f 84 94 95
f 84 95 85
f 85 95 96
f 85 96 86
f 88 89 97
f 89 98 97
f 91 99 92
f 92 99 100
f 92 100 101
f 92 101 93
f 93 101 102
f 93 102 103
f 93 103 104
f 93 104 105
f 93 105 94
f 94 105 95
f 95 105 106
f 95 106 107
f 95 107 96
f 97 98 108
f 98 109 110
f 98 110 108
f 100 111 101
f 101 111 102
f 102 111 112
f 102 112 113
f 102 113 114
f 102 114 103
f 103 114 115
f 103 115 104
f 104 115 105
f 105 115 116
f 105 116 117
f 105 117 118
f 105 118 119
f 105 119 106
f 109 120 110
f 110 120 122
f 110 122 121
f 112 123 113
f 113 123 124
f 113 124 114
f 114 124 125
f 114 125 115
f 115 126 127
f 115 127 116
f 115 125 128
f 115 128 126
f 116 127 129
f 116 129 130
f 116 130 117
f 121 122 132
f 121 132 131
f 123 133 134
f 123 134 124
f 123 135 133
f 124 134 136
f 124 136 125
f 125 136 128
f 126 128 137
f 128 138 139
f 128 139 140
f 128 140 137
f 128 136 138
f 131 132 141
f 132 142 141
f 133 136 134
f 133 135 143
f 133 143 144
f 133 144 136
f 135 145 146
f 135 146 143
f 136 144 138
f 138 147 148
f 138 148 149
f 138 149 150
f 138 150 151
f 138 151 152
f 138 152 139
f 138 144 153
f 138 153 147
f 141 142 154
f 142 155 156
f 142 156 154
f 143 153 144
f 143 146 157
f 143 157 158
f 143 158 148
f 143 148 147
f 143 147 153
f 145 159 146
f 146 159 160
f 146 160 158
f 146 158 157
f 148 158 161
f 148 161 149
f 149 161 162
f 149 162 163
f 149 163 164
f 149 164 165
f 149 165 150
f 155 166 156
f 156 166 168
f 156 168 167
f 158 160 169
f 158 169 170
f 158 170 171
f 158 171 162
f 158 162 161
f 159 172 160
f 160 173 169
f 160 172 173
f 162 171 163
f 163 171 174
f 166 175 168
f 167 168 176
f 168 177 176
f 168 175 178
f 168 178 179
f 168 179 180
f 168 180 181
f 168 181 177
f 169 173 182
f 169 182 183
f 169 183 184
f 169 184 170
f 170 184 171
f 171 184 185
f 171 185 174
f 174 185 186
f 178 187 179
f 179 188 189
f 179 189 190
f 179 190 191
f 179 191 192
f 179 192 180
f 179 187 193
f 179 193 188
f 183 194 184
f 184 194 195
f 184 195 196
f 184 196 185
f 185 196 197
f 185 197 186
f 186 197 198
f 188 199 189
f 189 199 200
f 189 200 201
f 189 201 202
f 189 202 190
f 195 203 196
f 196 203 204
f 196 204 205
f 196 205 197
f 197 205 206
f 197 206 198
f 198 206 207
f 199 208 200
f 200 209 210
f 200 210 211
f 200 211 212
f 200 212 213
f 200 213 214
f 200 214 201
f 200 208 209
f 204 215 205
f 205 215 216
f 205 216 217
f 205 217 206
f 206 217 218
f 206 218 219
f 206 219 211
f 206 211 220
f 206 220 207
f 210 221 211
f 211 221 222
f 211 222 220
f 211 219 223
f 211 223 212
f 212 223 213
f 213 223 224
f 213 224 214
f 214 224 223
f 214 223 225
f 216 226 218
f 216 218 217
f 218 226 223
f 218 223 219
f 223 226 225