# https://github.com/mikedh/trimesh
v 0.03418812 0.01421968 -0.00022157 0.91764706 0.92352941 1.41176470
v 0.03418812 0.01421968 -0.02183331 0.91764706 0.92352941 1.41176470
v 0.01792869 0.01421968 -0.00022157 0.91764706 0.92352941 1.41176470
v 0.03418812 -0.02183328 -0.00022157 0.91764706 0.92352941 1.41176470
v 0.01792869 0.01421968 -0.02182644 0.91764706 0.92352941 1.41176470
v 0.03418812 -0.02078053 -0.02364729 0.91764706 0.92352941 1.41176470
v 0.01792869 -0.02078053 -0.02364729 0.91764706 0.92352941 1.41176470
v 0.01792869 -0.02182587 -0.00022157 0.91764706 0.92352941 1.41176470
v 0.01792869 -0.02364965 -0.02078070 0.91764706 0.92352941 1.41176470
v 0.03418812 -0.02364594 -0.02078070 0.91764706 0.92352941 1.41176470
v 0.03418812 -0.02278595 -0.02278731 0.91764706 0.92352941 1.41176470
v 0.01792869 -0.02217802 -0.02304875 0.91764706 0.92352941 1.41176470
v 0.01792869 -0.02278595 -0.02278731 0.91764706 0.92352941 1.41176470
v 0.03418812 -0.02289716 -0.02252817 0.91764706 0.92352941 1.41176470
f 1 2 5
f 1 5 3
f 1 3 8
f 1 8 4
f 1 4 10
f 1 10 14
f 1 14 11
f 1 11 6
f 1 6 2
f 2 6 7
f 2 7 5
f 3 5 7
f 3 7 12
f 3 12 13
f 3 13 9
f 3 9 8
f 4 8 9
f 4 9 10
f 6 11 12
f 6 12 7
f 9 13 11
f 9 11 14
f 9 14 10
f 11 13 12