# https://github.com/mikedh/trimesh
v -0.03042309 -0.00109311 0.01979720 0.57058824 1.18235293 0.78823530
v -0.03042309 -0.00075803 0.01977904 0.57058824 1.18235293 0.78823530
v -0.03171888 0.00109241 0.01932888 0.57058824 1.18235293 0.78823530
v -0.03390593 0.00109241 0.01861371 0.57058824 1.18235293 0.78823530
v -0.03171888 -0.00109311 0.01934703 0.57058824 1.18235293 0.78823530
v -0.03171888 -0.00327861 0.01900941 0.57058824 1.18235293 0.78823530
v -0.03042309 -0.00546783 0.01904571 0.57058824 1.18235293 0.78823530
v -0.03042309 0.00109241 0.01963020 0.57058824 1.18235293 0.78823530
v -0.03390593 0.00327791 0.01849753 0.57058824 1.18235293 0.78823530
v -0.03446268 0.00109241 0.01824342 0.57058824 1.18235293 0.78823530
v -0.03412104 -0.00129415 0.01825068 0.57058824 1.18235293 0.78823530
v -0.03446268 0.00327791 0.01817807 0.57058824 1.18235293 0.78823530
v -0.03372087 -0.00327861 0.01816354 0.57058824 1.18235293 0.78823530
v -0.03328908 -0.00546783 0.01785134 0.57058824 1.18235293 0.78823530
v -0.03042309 -0.00763099 0.01854110 0.57058824 1.18235293 0.78823530
v -0.03042309 0.00500917 0.01904571 0.57058824 1.18235293 0.78823530
v -0.03412300 0.00567934 0.01800381 0.57058824 1.18235293 0.78823530
v -0.03446268 0.00602189 0.01780777 0.57058824 1.18235293 0.78823530
v -0.03446268 -0.00109311 0.01804011 0.57058824 1.18235293 0.78823530
v -0.03446268 -0.00129415 0.01801107 0.57058824 1.18235293 0.78823530
v -0.03446268 -0.00162924 0.01795299 0.57058824 1.18235293 0.78823530
v -0.03446268 -0.00327861 0.01760448 0.57058824 1.18235293 0.78823530
v -0.03446268 -0.00546411 0.01683847 0.57058824 1.18235293 0.78823530
v -0.03295929 -0.00678584 0.01760448 0.57058824 1.18235293 0.78823530
v -0.03042309 -0.00968993 0.01779326 0.57058824 1.18235293 0.78823530
v -0.03042309 0.00546712 0.01894407 0.57058824 1.18235293 0.78823530
v -0.03353818 0.00720957 0.01776420 0.57058824 1.18235293 0.78823530
v -0.03446268 0.00679259 0.01759358 0.57058824 1.18235293 0.78823530
v -0.03446268 -0.00750441 0.01582923 0.57058824 1.18235293 0.78823530
v -0.03321868 -0.00939207 0.01575300 0.57058824 1.18235293 0.78823530
v -0.03269081 -0.01085156 0.01523023 0.57058824 1.18235293 0.78823530
v -0.03042309 -0.01204668 0.01591636 0.57058824 1.18235293 0.78823530
v -0.03042309 0.00712395 0.01850480 0.57058824 1.18235293 0.78823530
v -0.03042309 0.00757073 0.01834869 0.57058824 1.18235293 0.78823530
v -0.03390593 0.00984186 0.01641372 0.57058824 1.18235293 0.78823530
v -0.03412300 0.00782389 0.01730679 0.57058824 1.18235293 0.78823530
v -0.03446268 0.00732871 0.01737939 0.57058824 1.18235293 0.78823530
v -0.03446268 -0.00977182 0.01414476 0.57058824 1.18235293 0.78823530
v -0.03446268 -0.01003245 0.01391241 0.57058824 1.18235293 0.78823530
v -0.03446268 -0.01197222 0.01196655 0.57058824 1.18235293 0.78823530
v -0.03270742 -0.01303706 0.01300121 0.57058824 1.18235293 0.78823530
v -0.03042309 -0.01423592 0.01378899 0.57058824 1.18235293 0.78823530
v -0.03042309 -0.01400880 0.01401043 0.57058824 1.18235293 0.78823530
v -0.03042309 0.01124178 0.01627940 0.57058824 1.18235293 0.78823530
v -0.03446268 0.00984186 0.01614870 0.57058824 1.18235293 0.78823530
v -0.03390593 0.01127156 0.01556059 0.57058824 1.18235293 0.78823530
v -0.03446268 0.01116359 0.01547709 0.57058824 1.18235293 0.78823530
v -0.03446268 -0.01224774 0.01165434 0.57058824 1.18235293 0.78823530
v -0.03446268 -0.01390455 0.00946888 0.57058824 1.18235293 0.78823530
v -0.03042309 -0.01618686 0.01137117 0.57058824 1.18235293 0.78823530
v -0.03042309 0.01165133 0.01600711 0.57058824 1.18235293 0.78823530
v -0.03390593 0.01236618 0.01470745 0.57058824 1.18235293 0.78823530
v -0.03446268 0.01174440 0.01502329 0.57058824 1.18235293 0.78823530
v -0.03446268 -0.01416518 0.00902235 0.57058824 1.18235293 0.78823530
v -0.03042309 -0.01812291 0.00736690 0.57058824 1.18235293 0.78823530
v -0.03042309 0.01384800 0.01385070 0.57058824 1.18235293 0.78823530
v -0.03390593 0.01361717 0.01361473 0.57058824 1.18235293 0.78823530
v -0.03446268 0.01353153 0.01352397 0.57058824 1.18235293 0.78823530
v -0.03446268 -0.01574752 0.00525042 0.57058824 1.18235293 0.78823530
v -0.03042309 -0.01827928 0.00691676 0.57058824 1.18235293 0.78823530
v -0.03042309 0.01621221 0.00983917 0.57058824 1.18235293 0.78823530
v -0.03390593 0.01655475 0.00984280 0.57058824 1.18235293 0.78823530
v -0.03390593 0.01560906 0.01133487 0.57058824 1.18235293 0.78823530
v -0.03390593 0.01471177 0.01242761 0.57058824 1.18235293 0.78823530
v -0.03446268 0.01419426 0.01280516 0.57058824 1.18235293 0.78823530
v -0.03446268 -0.01584060 0.00489465 0.57058824 1.18235293 0.78823530
v -0.03042309 -0.01860320 0.00546825 0.57058824 1.18235293 0.78823530
v -0.03042309 0.01687494 0.00766459 0.57058824 1.18235293 0.78823530
v -0.03253659 0.01767170 0.00700751 0.57058824 1.18235293 0.78823530
v -0.03390593 0.01782063 0.00733061 0.57058824 1.18235293 0.78823530
v -0.03390593 0.01734778 0.00842334 0.57058824 1.18235293 0.78823530
v -0.03446268 0.01612658 0.01037646 0.57058824 1.18235293 0.78823530
v -0.03446268 0.01556438 0.01126953 0.57058824 1.18235293 0.78823530
v -0.03446268 -0.01616452 0.00327915 0.57058824 1.18235293 0.78823530
v -0.03042309 -0.01870373 0.00479300 0.57058824 1.18235293 0.78823530
v -0.03446268 -0.01625016 0.00272371 0.57058824 1.18235293 0.78823530
v -0.03042309 0.01708716 0.00570058 0.57058824 1.18235293 0.78823530
v -0.03390593 0.01890034 0.00327915 0.57058824 1.18235293 0.78823530
v -0.03390593 0.01844240 0.00546825 0.57058824 1.18235293 0.78823530
v -0.03446268 0.01779828 0.00726526 0.57058824 1.18235293 0.78823530
v -0.03446268 0.01728077 0.00827087 0.57058824 1.18235293 0.78823530
v -0.03042309 -0.01887127 0.00327915 0.57058824 1.18235293 0.78823530
v -0.03446268 -0.01634695 0.00109731 0.57058824 1.18235293 0.78823530
v -0.03042309 0.01710578 0.00546825 0.57058824 1.18235293 0.78823530
v -0.03208227 0.01807752 0.00327915 0.57058824 1.18235293 0.78823530
v -0.03390593 0.01908277 0.00109731 0.57058824 1.18235293 0.78823530
v -0.03446268 0.01909023 0.00109731 0.57058824 1.18235293 0.78823530
v -0.03446268 0.01886683 0.00327915 0.57058824 1.18235293 0.78823530
v -0.03446268 0.01834932 0.00549003 0.57058824 1.18235293 0.78823530
v -0.03446268 0.01821156 0.00602368 0.57058824 1.18235293 0.78823530
v -0.03042309 -0.01894573 0.00109731 0.57058824 1.18235293 0.78823530
v -0.03446268 -0.01636929 0.00053824 0.57058824 1.18235293 0.78823530
v -0.03042309 0.01719885 0.00327915 0.57058824 1.18235293 0.78823530
v -0.03210164 0.01812964 0.00109731 0.57058824 1.18235293 0.78823530
v -0.03390593 0.01899342 -0.00109178 0.57058824 1.18235293 0.78823530
v -0.03446268 0.01903810 -0.00109178 0.57058824 1.18235293 0.78823530
v -0.03042309 -0.01881542 0.00066894 0.57058824 1.18235293 0.78823530
v -0.03446268 -0.01620176 -0.00164722 0.57058824 1.18235293 0.78823530
v -0.03446268 -0.01590018 -0.00328087 0.57058824 1.18235293 0.78823530
v -0.03446268 -0.01579220 -0.00381816 0.57058824 1.18235293 0.78823530
v -0.03446268 -0.01551297 -0.00492542 0.57058824 1.18235293 0.78823530
v -0.03042309 0.01716907 0.00109731 0.57058824 1.18235293 0.78823530
v -0.03042309 0.01703875 -0.00109178 0.57058824 1.18235293 0.78823530
v -0.03390593 0.01862483 -0.00328087 0.57058824 1.18235293 0.78823530
v -0.03446268 0.01871046 -0.00328087 0.57058824 1.18235293 0.78823530
v -0.03042309 0.01683771 -0.00328087 0.57058824 1.18235293 0.78823530
v -0.03042309 -0.01830908 -0.00080136 0.57058824 1.18235293 0.78823530
v -0.03446268 -0.01499172 -0.00633762 0.57058824 1.18235293 0.78823530
v -0.03384939 0.01798817 -0.00543003 0.57058824 1.18235293 0.78823530
v -0.03446268 0.01776105 -0.00689670 0.57058824 1.18235293 0.78823530
v -0.03042309 0.01633135 -0.00547723 0.57058824 1.18235293 0.78823530
v -0.03042309 -0.01817132 -0.00110267 0.57058824 1.18235293 0.78823530
v -0.03446268 -0.01436250 -0.00768084 0.57058824 1.18235293 0.78823530
v -0.03446268 0.01770893 -0.00703464 0.57058824 1.18235293 0.78823530
v -0.03042309 0.01409745 -0.00974287 0.57058824 1.18235293 0.78823530
v -0.03042309 -0.01601559 -0.00558977 0.57058824 1.18235293 0.78823530
v -0.03446268 -0.01410187 -0.00817821 0.57058824 1.18235293 0.78823530
v -0.03042309 -0.01392316 -0.00959040 0.57058824 1.18235293 0.78823530
v -0.03446268 0.01763819 -0.00715807 0.57058824 1.18235293 0.78823530
v -0.03446268 0.01481603 -0.01143825 0.57058824 1.18235293 0.78823530
v -0.03446268 0.01529259 -0.01093000 0.57058824 1.18235293 0.78823530
v -0.03446268 0.01560534 -0.01051251 0.57058824 1.18235293 0.78823530
v -0.03042309 0.01201620 -0.01192471 0.57058824 1.18235293 0.78823530
v -0.03446268 -0.01348011 -0.00926367 0.57058824 1.18235293 0.78823530
v -0.03446268 -0.01241155 -0.01065409 0.57058824 1.18235293 0.78823530
v -0.03042309 -0.01368489 -0.00988809 0.57058824 1.18235293 0.78823530
v -0.03446268 0.01364322 -0.01266168 0.57058824 1.18235293 0.78823530
v -0.03042309 0.00996472 -0.01375440 0.57058824 1.18235293 0.78823530
v -0.03446268 -0.01159246 -0.01158710 0.57058824 1.18235293 0.78823530
v -0.03042309 -0.01187170 -0.01187027 0.57058824 1.18235293 0.78823530
v -0.03446268 0.01306241 -0.01317355 0.57058824 1.18235293 0.78823530
v -0.03042309 0.00966687 -0.01396134 0.57058824 1.18235293 0.78823530
v -0.03446268 0.01178909 -0.01411745 0.57058824 1.18235293 0.78823530
v -0.03446268 0.01181514 -0.01409929 0.57058824 1.18235293 0.78823530
v -0.03446268 -0.01013670 -0.01295572 0.57058824 1.18235293 0.78823530
v -0.03042309 -0.00958940 -0.01392141 0.57058824 1.18235293 0.78823530
v -0.03446268 0.01059395 -0.01491249 0.57058824 1.18235293 0.78823530
v -0.03042309 0.00560861 -0.01602337 0.57058824 1.18235293 0.78823530
v -0.03446268 -0.00931760 -0.01363461 0.57058824 1.18235293 0.78823530
v -0.03042309 -0.00919473 -0.01415011 0.57058824 1.18235293 0.78823530
v -0.03446268 0.00987165 -0.01527552 0.57058824 1.18235293 0.78823530
v -0.03042309 0.00535543 -0.01613590 0.57058824 1.18235293 0.78823530
v -0.03446268 -0.00593695 -0.01551875 0.57058824 1.18235293 0.78823530
v -0.03042309 -0.00533753 -0.01612865 0.57058824 1.18235293 0.78823530
v -0.03446268 -0.00518860 -0.01591083 0.57058824 1.18235293 0.78823530
v -0.03446268 0.00944347 -0.01546066 0.57058824 1.18235293 0.78823530
v -0.03042309 0.00327791 -0.01659333 0.57058824 1.18235293 0.78823530
v -0.03446268 0.00500545 -0.01698542 0.57058824 1.18235293 0.78823530
v -0.03446268 0.00567563 -0.01681479 0.57058824 1.18235293 0.78823530
v -0.03446268 0.00766752 -0.01614317 0.57058824 1.18235293 0.78823530
v -0.03446268 0.00837494 -0.01589631 0.57058824 1.18235293 0.78823530
v -0.03446268 -0.00433599 -0.01625571 0.57058824 1.18235293 0.78823530
v -0.03446268 -0.00327861 -0.01666232 0.57058824 1.18235293 0.78823530
v -0.03042309 -0.00496521 -0.01622667 0.57058824 1.18235293 0.78823530
v -0.03446268 0.00327791 -0.01723953 0.57058824 1.18235293 0.78823530
v -0.03446268 0.00405605 -0.01718871 0.57058824 1.18235293 0.78823530
v -0.03042309 0.00109241 -0.01672039 0.57058824 1.18235293 0.78823530
v -0.03446268 -0.00251536 -0.01683294 0.57058824 1.18235293 0.78823530
v -0.03042309 -0.00327861 -0.01658970 0.57058824 1.18235293 0.78823530
v -0.03446268 0.00240296 -0.01729036 0.57058824 1.18235293 0.78823530
v -0.03042309 -0.00057558 -0.01672039 0.57058824 1.18235293 0.78823530
v -0.03446268 -0.00097396 -0.01714878 0.57058824 1.18235293 0.78823530
v -0.03042309 -0.00275364 -0.01664779 0.57058824 1.18235293 0.78823530
v -0.03042309 -0.00109311 -0.01671677 0.57058824 1.18235293 0.78823530
v -0.03446268 0.00109241 -0.01727583 0.57058824 1.18235293 0.78823530
v -0.03446268 -0.00004317 -0.01720686 0.57058824 1.18235293 0.78823530
f 1 2 3
f 1 3 4
f 1 4 5
f 1 5 6
f 1 6 7
f 1 7 15
f 1 15 25
f 1 25 32
f 1 32 43
f 1 43 42
f 1 42 50
f 1 50 55
f 1 55 60
f 1 60 67
f 1 67 75
f 1 75 82
f 1 82 91
f 1 91 97
f 1 97 107
f 1 107 112
f 1 112 116
f 1 116 118
f 1 118 126
f 1 126 130
f 1 130 136
f 1 136 140
f 1 140 144
f 1 144 154
f 1 154 159
f 1 159 163
f 1 163 164
f 1 164 161
f 1 161 157
f 1 157 147
f 1 147 142
f 1 142 138
f 1 138 132
f 1 132 128
f 1 128 123
f 1 123 115
f 1 115 111
f 1 111 106
f 1 106 103
f 1 103 102
f 1 102 93
f 1 93 84
f 1 84 77
f 1 77 68
f 1 68 61
f 1 61 56
f 1 56 51
f 1 51 44
f 1 44 34
f 1 34 33
f 1 33 26
f 1 26 16
f 1 16 8
f 1 8 2
f 2 8 3
f 3 8 9
f 3 9 4
f 4 10 11
f 4 11 5
f 4 9 12
f 4 12 10
f 5 11 13
f 5 13 6
f 6 13 14
f 6 14 7
f 7 14 15
f 8 16 9
f 9 16 17
f 9 17 18
f 9 18 12
f 10 12 18
f 10 18 28
f 10 28 37
f 10 37 45
f 10 45 47
f 10 47 53
f 10 53 58
f 10 58 65
f 10 65 73
f 10 73 72
f 10 72 81
f 10 81 80
f 10 80 90
f 10 90 89
f 10 89 88
f 10 88 87
f 10 87 96
f 10 96 105
f 10 105 110
f 10 110 114
f 10 114 119
f 10 119 122
f 10 122 121
f 10 121 120
f 10 120 127
f 10 127 131
f 10 131 134
f 10 134 133
f 10 133 137
f 10 137 141
f 10 141 146
f 10 146 151
f 10 151 150
f 10 150 149
f 10 149 148
f 10 148 156
f 10 156 155
f 10 155 160
f 10 160 165
f 10 165 166
f 10 166 162
f 10 162 158
f 10 158 153
f 10 153 152
f 10 152 145
f 10 145 143
f 10 143 139
f 10 139 135
f 10 135 129
f 10 129 125
f 10 125 124
f 10 124 117
f 10 117 113
f 10 113 108
f 10 108 101
f 10 101 100
f 10 100 99
f 10 99 98
f 10 98 92
f 10 92 83
f 10 83 76
f 10 76 74
f 10 74 66
f 10 66 59
f 10 59 54
f 10 54 49
f 10 49 48
f 10 48 40
f 10 40 39
f 10 39 38
f 10 38 29
f 10 29 23
f 10 23 22
f 10 22 21
f 10 21 20
f 10 20 19
f 10 19 11
f 11 19 20
f 11 20 21
f 11 21 13
f 13 22 14
f 13 21 22
f 14 22 23
f 14 23 24
f 14 24 15
f 15 24 25
f 16 26 17
f 17 26 27
f 17 27 18
f 18 27 28
f 23 29 24
f 24 29 30
f 24 30 25
f 25 31 32
f 25 30 31
f 26 33 27
f 27 33 34
f 27 34 35
f 27 35 36
f 27 36 28
f 28 36 37
f 29 38 30
f 30 38 31
f 31 38 39
f 31 39 40
f 31 40 41
f 31 41 42
f 31 42 43
f 31 43 32
f 34 44 35
f 35 45 36
f 35 44 46
f 35 46 47
f 35 47 45
f 36 45 37
f 40 48 41
f 41 48 49
f 41 49 50
f 41 50 42
f 44 51 46
f 46 51 52
f 46 52 47
f 47 52 53
f 49 54 50
f 50 54 55
f 51 56 57
f 51 57 52
f 52 57 58
f 52 58 53
f 54 59 55
f 55 59 60
f 56 61 62
f 56 62 63
f 56 63 64
f 56 64 57
f 57 64 58
f 58 64 65
f 59 66 60
f 60 66 67
f 61 68 69
f 61 69 70
f 61 70 71
f 61 71 62
f 62 72 73
f 62 73 63
f 62 71 72
f 63 73 64
f 64 73 65
f 66 74 67
f 67 74 76
f 67 76 75
f 68 77 78
f 68 78 79
f 68 79 69
f 69 79 70
f 70 79 80
f 70 80 71
f 71 80 81
f 71 81 72
f 75 76 82
f 76 83 82
f 77 84 85
f 77 85 78
f 78 85 86
f 78 86 87
f 78 87 88
f 78 88 79
f 79 88 89
f 79 89 90
f 79 90 80
f 82 83 92
f 82 92 91
f 84 93 85
f 85 94 86
f 85 93 94
f 86 95 96
f 86 96 87
f 86 94 95
f 91 92 98
f 91 98 99
f 91 99 100
f 91 100 101
f 91 101 97
f 93 102 94
f 94 102 103
f 94 103 95
f 95 104 105
f 95 105 96
f 95 103 106
f 95 106 104
f 97 101 107
f 101 108 107
f 104 109 110
f 104 110 105
f 104 106 111
f 104 111 109
f 107 108 112
f 108 113 112
f 109 111 110
f 110 111 114
f 111 115 114
f 112 113 116
f 113 117 118
f 113 118 116
f 114 115 119
f 115 120 121
f 115 121 122
f 115 122 119
f 115 123 120
f 117 124 118
f 118 124 125
f 118 125 126
f 120 123 127
f 123 128 127
f 125 129 126
f 126 129 130
f 127 128 131
f 128 132 133
f 128 133 134
f 128 134 131
f 129 135 130
f 130 135 136
f 132 137 133
f 132 138 137
f 135 139 136
f 136 139 140
f 137 138 141
f 138 142 141
f 139 143 140
f 140 143 145
f 140 145 144
f 141 142 146
f 142 147 148
f 142 148 149
f 142 149 150
f 142 150 151
f 142 151 146
f 144 145 152
f 144 152 153
f 144 153 154
f 147 155 156
f 147 156 148
f 147 157 155
f 153 158 154
f 154 158 159
f 155 157 160
f 157 161 160
f 158 162 159
f 159 162 163
f 160 161 164
f 160 164 165
f 162 166 163
f 163 166 165
f 163 165 164