# https://github.com/mikedh/trimesh
v 0.03171748 0.02078022 0.02364959 1.01764705 0.53529413 0.65294118
v 0.03436569 0.02078022 0.02364725 1.01764705 0.53529413 0.65294118
v 0.03436569 0.02120173 0.02346732 1.01764705 0.53529413 0.65294118
v 0.03436569 0.02278818 0.02278735 1.01764705 0.53529413 0.65294118
v 0.02952992 0.02078022 0.02364959 1.01764705 0.53529413 0.65294118
v 0.03436569 -0.01549718 0.02185505 1.01764705 0.53529413 0.65294118
v 0.03436569 0.02365036 0.02078019 1.01764705 0.53529413 0.65294118
v 0.01819629 0.02349325 0.02114704 1.01764705 0.53529413 0.65294118
v 0.01819629 0.02278818 0.02278735 1.01764705 0.53529413 0.65294118
v 0.01819629 0.02078022 0.02364725 1.01764705 0.53529413 0.65294118
v 0.01819629 -0.01549718 0.02185037 1.01764705 0.53529413 0.65294118
v 0.03436569 -0.01549718 -0.00021923 1.01764705 0.53529413 0.65294118
v 0.01819629 0.02364654 0.02078019 1.01764705 0.53529413 0.65294118
v 0.03436569 0.02183784 -0.00021923 1.01764705 0.53529413 0.65294118
v 0.01819629 -0.01549718 -0.00021923 1.01764705 0.53529413 0.65294118
v 0.01819629 0.02182635 -0.00021923 1.01764705 0.53529413 0.65294118
f 1 2 3
f 1 3 4
f 1 4 9
f 1 9 5
f 1 5 6
f 1 6 2
f 2 6 12
f 2 12 14
f 2 14 7
f 2 7 4
f 2 4 3
f 4 7 8
f 4 8 9
f 5 9 10
f 5 10 6
f 6 11 15
f 6 15 12
f 6 10 11
f 7 13 8
f 7 14 13
f 8 13 16
f 8 16 15
f 8 15 11
f 8 11 10
f 8 10 9
f 12 15 16
f 12 16 14
f 13 14 16