# https://github.com/mikedh/trimesh
v 0.00282784 0.02183361 -0.00022157 1.04117648 0.08823529 1.00000000
v 0.01792869 0.02182605 -0.00022157 1.04117648 0.08823529 1.00000000
v 0.00214333 0.02184876 -0.00022386 1.04117648 0.08823529 1.00000000
v 0.00214333 0.02168218 -0.00022157 1.04117648 0.08823529 1.00000000
v 0.01792869 0.02364708 -0.02077993 1.04117648 0.08823529 1.00000000
v 0.01792869 -0.01502248 -0.00022157 1.04117648 0.08823529 1.00000000
v 0.00214333 0.02365465 -0.02077993 1.04117648 0.08823529 1.00000000
v 0.00214333 -0.01502248 -0.00022157 1.04117648 0.08823529 1.00000000
v 0.01792869 0.02278767 -0.02278692 1.04117648 0.08823529 1.00000000
v 0.01792869 -0.01502248 -0.02184192 1.04117648 0.08823529 1.00000000
v 0.00214333 0.02278767 -0.02278692 1.04117648 0.08823529 1.00000000
v 0.00214333 -0.01502248 -0.02186027 1.04117648 0.08823529 1.00000000
v 0.01792869 0.02139066 -0.02338787 1.04117648 0.08823529 1.00000000
v 0.00214333 0.02078112 -0.02365393 1.04117648 0.08823529 1.00000000
v 0.01792869 0.02078112 -0.02364934 1.04117648 0.08823529 1.00000000
f 1 2 3
f 1 3 4
f 1 4 8
f 1 8 6
f 1 6 2
f 2 5 3
f 2 6 10
f 2 10 15
f 2 15 13
f 2 13 9
f 2 9 5
f 3 5 7
f 3 7 11
f 3 11 14
f 3 14 12
f 3 12 8
f 3 8 4
f 5 9 7
f 6 8 12
f 6 12 10
f 7 9 11
f 9 13 14
f 9 14 11
f 10 12 15
f 12 14 15
f 13 15 14