# https://github.com/mikedh/trimesh
v -0.04946233 0.00327876 0.01750980 0.81764706 1.07058823 0.90000000
v -0.04946233 0.00546843 0.01723683 0.81764706 1.07058823 0.90000000
v -0.06452991 0.00109284 0.01611624 0.81764706 1.07058823 0.90000000
v -0.06452991 -0.00109307 0.01611264 0.81764706 1.07058823 0.90000000
v -0.04946233 0.00109284 0.01749901 0.81764706 1.07058823 0.90000000
v -0.04946233 0.00576891 0.01715423 0.81764706 1.07058823 0.90000000
v -0.06575721 0.00463839 0.01540150 0.81764706 1.07058823 0.90000000
v -0.06452991 0.00327876 0.01581454 0.81764706 1.07058823 0.90000000
v -0.06594759 0.00327876 0.01556313 0.81764706 1.07058823 0.90000000
v -0.06610398 0.00109284 0.01571397 0.81764706 1.07058823 0.90000000
v -0.06610228 -0.00109307 0.01571039 0.81764706 1.07058823 0.90000000
v -0.06595099 -0.00327898 0.01556313 0.81764706 1.07058823 0.90000000
v -0.06452991 -0.00327898 0.01581454 0.81764706 1.07058823 0.90000000
v -0.04946233 -0.00109307 0.01727274 0.81764706 1.07058823 0.90000000
v -0.04946233 0.00738018 0.01666576 0.81764706 1.07058823 0.90000000
v -0.04946233 0.00768064 0.01655442 0.81764706 1.07058823 0.90000000
v -0.04946233 0.00952477 0.01572834 0.81764706 1.07058823 0.90000000
v -0.06452991 0.00586281 0.01503156 0.81764706 1.07058823 0.90000000
v -0.06452991 0.00765435 0.01418393 0.81764706 1.07058823 0.90000000
v -0.06582351 0.00898394 0.01328961 0.81764706 1.07058823 0.90000000
v -0.06607338 0.00765435 0.01364160 0.81764706 1.07058823 0.90000000
v -0.06618558 0.00540834 0.01431322 0.81764706 1.07058823 0.90000000
v -0.06654934 0.00327876 0.01421625 0.81764706 1.07058823 0.90000000
v -0.06670574 0.00109284 0.01421625 0.81764706 1.07058823 0.90000000
v -0.06670404 -0.00109307 0.01421625 0.81764706 1.07058823 0.90000000
v -0.06655275 -0.00327898 0.01421625 0.81764706 1.07058823 0.90000000
v -0.06618728 -0.00540856 0.01431322 0.81764706 1.07058823 0.90000000
v -0.06576062 -0.00463861 0.01540509 0.81764706 1.07058823 0.90000000
v -0.04946233 -0.00327898 0.01683456 0.81764706 1.07058823 0.90000000
v -0.04946233 0.00992665 0.01554158 0.81764706 1.07058823 0.90000000
v -0.06616518 0.00976515 0.01200740 0.81764706 1.07058823 0.90000000
v -0.04946233 0.01062150 0.01517163 0.81764706 1.07058823 0.90000000
v -0.04946233 0.01224027 0.01410492 0.81764706 1.07058823 0.90000000
v -0.04946233 0.01328815 0.01329321 0.81764706 1.07058823 0.90000000
v -0.06592550 0.01126374 0.01126393 0.81764706 1.07058823 0.90000000
v -0.06667513 0.00765435 0.01202895 0.81764706 1.07058823 0.90000000
v -0.06682812 0.00546843 0.01202895 0.81764706 1.07058823 0.90000000
v -0.06682812 -0.00546867 0.01202895 0.81764706 1.07058823 0.90000000
v -0.06667344 -0.00765457 0.01202895 0.81764706 1.07058823 0.90000000
v -0.06607169 -0.00765457 0.01363800 0.81764706 1.07058823 0.90000000
v -0.06582011 -0.00897665 0.01328602 0.81764706 1.07058823 0.90000000
v -0.06452991 -0.00765457 0.01417675 0.81764706 1.07058823 0.90000000
v -0.06452991 -0.00586304 0.01502798 0.81764706 1.07058823 0.90000000
v -0.06452991 -0.00477007 0.01545178 0.81764706 1.07058823 0.90000000
v -0.04946233 -0.00530716 0.01624554 0.81764706 1.07058823 0.90000000
v -0.06675164 0.00984027 0.00984164 0.81764706 1.07058823 0.90000000
v -0.06616518 0.01200741 0.00976263 0.81764706 1.07058823 0.90000000
v -0.04946233 0.01433981 0.01224086 0.81764706 1.07058823 0.90000000
v -0.04946233 0.01542150 0.01108794 0.81764706 1.07058823 0.90000000
v -0.06582520 0.01328815 0.00898324 0.81764706 1.07058823 0.90000000
v -0.06682812 0.01202994 0.00546702 0.81764706 1.07058823 0.90000000
v -0.06682812 -0.01203017 0.00546702 0.81764706 1.07058823 0.90000000
v -0.06674993 -0.00984049 0.00984164 0.81764706 1.07058823 0.90000000
v -0.06616177 -0.00976162 0.01200381 0.81764706 1.07058823 0.90000000
v -0.06592210 -0.01126022 0.01126033 0.81764706 1.07058823 0.90000000
v -0.06452991 -0.01018603 0.01251741 0.81764706 1.07058823 0.90000000
v -0.06452991 -0.00909308 0.01336504 0.81764706 1.07058823 0.90000000
v -0.04946233 -0.00545739 0.01618448 0.81764706 1.07058823 0.90000000
v -0.06667683 0.01202994 0.00765433 0.81764706 1.07058823 0.90000000
v -0.06607509 0.01364121 0.00765433 0.81764706 1.07058823 0.90000000
v -0.04946233 0.01607877 0.01010383 0.81764706 1.07058823 0.90000000
v -0.04946233 0.01703277 0.00850914 0.81764706 1.07058823 0.90000000
v -0.04946233 0.01775389 0.00716227 0.81764706 1.07058823 0.90000000
v -0.06576062 0.01540272 0.00464094 0.81764706 1.07058823 0.90000000
v -0.06670574 0.01421586 0.00109241 0.81764706 1.07058823 0.90000000
v -0.06682812 0.01202994 -0.00546592 0.81764706 1.07058823 0.90000000
v -0.06682812 -0.01203017 -0.00546592 0.81764706 1.07058823 0.90000000
v -0.06670574 -0.01421608 0.00109241 0.81764706 1.07058823 0.90000000
v -0.06655275 -0.01421608 0.00327970 0.81764706 1.07058823 0.90000000
v -0.06667344 -0.01203017 0.00765433 0.81764706 1.07058823 0.90000000
v -0.06616177 -0.01200389 0.00976263 0.81764706 1.07058823 0.90000000
v -0.06582011 -0.01328463 0.00897964 0.81764706 1.07058823 0.90000000
v -0.06452991 -0.01251468 0.01018644 0.81764706 1.07058823 0.90000000
v -0.06452991 -0.01142172 0.01142196 0.81764706 1.07058823 0.90000000
v -0.04946233 -0.00973158 0.01367033 0.81764706 1.07058823 0.90000000
v -0.04946233 -0.00949120 0.01385709 0.81764706 1.07058823 0.90000000
v -0.06618728 0.01431351 0.00540955 0.81764706 1.07058823 0.90000000
v -0.06655104 0.01421586 0.00327970 0.81764706 1.07058823 0.90000000
v -0.04946233 0.01826469 0.00572921 0.81764706 1.07058823 0.90000000
v -0.04946233 0.01833606 0.00546702 0.81764706 1.07058823 0.90000000
v -0.04946233 0.01880930 0.00361374 0.81764706 1.07058823 0.90000000
v -0.04946233 0.01887690 0.00326175 0.81764706 1.07058823 0.90000000
v -0.06595099 0.01556046 0.00327970 0.81764706 1.07058823 0.90000000
v -0.06670574 0.01421586 -0.00109131 0.81764706 1.07058823 0.90000000
v -0.06610398 0.01571445 0.00109241 0.81764706 1.07058823 0.90000000
v -0.06667683 0.01202994 -0.00765324 0.81764706 1.07058823 0.90000000
v -0.06675164 0.00984027 -0.00984056 0.81764706 1.07058823 0.90000000
v -0.06682812 0.00546843 -0.01202785 0.81764706 1.07058823 0.90000000
v -0.06667344 -0.01203017 -0.00765324 0.81764706 1.07058823 0.90000000
v -0.06655275 -0.01421608 -0.00327863 0.81764706 1.07058823 0.90000000
v -0.06670574 -0.01421608 -0.00109131 0.81764706 1.07058823 0.90000000
v -0.06682812 -0.00546867 -0.01202785 0.81764706 1.07058823 0.90000000
v -0.06674993 -0.00984049 -0.00984056 0.81764706 1.07058823 0.90000000
v -0.06610569 -0.01571468 0.00109241 0.81764706 1.07058823 0.90000000
v -0.06595099 -0.01556445 0.00327970 0.81764706 1.07058823 0.90000000
v -0.06618558 -0.01431374 0.00540597 0.81764706 1.07058823 0.90000000
v -0.06607169 -0.01363769 0.00765433 0.81764706 1.07058823 0.90000000
v -0.06575721 -0.01540295 0.00463375 0.81764706 1.07058823 0.90000000
v -0.06452991 -0.01417477 0.00765433 0.81764706 1.07058823 0.90000000
v -0.06452991 -0.01336726 0.00909099 0.81764706 1.07058823 0.90000000
v -0.04946233 -0.01171468 0.01169851 0.81764706 1.07058823 0.90000000
v -0.04946233 -0.01152689 0.01190683 0.81764706 1.07058823 0.90000000
v -0.04946233 0.01916985 0.00109241 0.81764706 1.07058823 0.90000000
v -0.06452991 0.01612010 0.00109241 0.81764706 1.07058823 0.90000000
v -0.06655104 0.01421586 -0.00327863 0.81764706 1.07058823 0.90000000
v -0.06610398 0.01571445 -0.00109131 0.81764706 1.07058823 0.90000000
v -0.06618728 0.01431351 -0.00540846 0.81764706 1.07058823 0.90000000
v -0.06607509 0.01364121 -0.00765324 0.81764706 1.07058823 0.90000000
v -0.06616518 0.01200741 -0.00976512 0.81764706 1.07058823 0.90000000
v -0.06616518 0.00976515 -0.01200990 0.81764706 1.07058823 0.90000000
v -0.06667513 0.00765435 -0.01202785 0.81764706 1.07058823 0.90000000
v -0.06670574 0.00109284 -0.01421517 0.81764706 1.07058823 0.90000000
v -0.06616177 -0.01200389 -0.00976154 0.81764706 1.07058823 0.90000000
v -0.06607169 -0.01363769 -0.00765324 0.81764706 1.07058823 0.90000000
v -0.06618558 -0.01431374 -0.00540487 0.81764706 1.07058823 0.90000000
v -0.06595099 -0.01556445 -0.00327863 0.81764706 1.07058823 0.90000000
v -0.06610569 -0.01571468 -0.00109131 0.81764706 1.07058823 0.90000000
v -0.06670404 -0.00109307 -0.01421517 0.81764706 1.07058823 0.90000000
v -0.06655275 -0.00327898 -0.01421517 0.81764706 1.07058823 0.90000000
v -0.06667344 -0.00765457 -0.01202785 0.81764706 1.07058823 0.90000000
v -0.06616177 -0.00976162 -0.01200632 0.81764706 1.07058823 0.90000000
v -0.05797014 -0.01874943 -0.00109131 0.81764706 1.07058823 0.90000000
v -0.05578242 -0.01918511 -0.00109131 0.81764706 1.07058823 0.90000000
v -0.06452991 -0.01502736 0.00585850 0.81764706 1.07058823 0.90000000
v -0.05578242 -0.01834004 0.00062549 0.81764706 1.07058823 0.90000000
v -0.04946233 -0.01355882 0.00912690 0.81764706 1.07058823 0.90000000
v -0.04946233 -0.01346491 0.00928853 0.81764706 1.07058823 0.90000000
v -0.04946233 -0.01279636 0.01025827 0.81764706 1.07058823 0.90000000
v -0.04946233 0.01918488 -0.00109131 0.81764706 1.07058823 0.90000000
v -0.06452991 0.01612010 -0.00109131 0.81764706 1.07058823 0.90000000
v -0.06595099 0.01556046 -0.00327863 0.81764706 1.07058823 0.90000000
v -0.06576062 0.01540272 -0.00463986 0.81764706 1.07058823 0.90000000
v -0.06582520 0.01328815 -0.00898215 0.81764706 1.07058823 0.90000000
v -0.06592550 0.01126374 -0.01126643 0.81764706 1.07058823 0.90000000
v -0.06582351 0.00898394 -0.01328853 0.81764706 1.07058823 0.90000000
v -0.06607338 0.00765435 -0.01364411 0.81764706 1.07058823 0.90000000
v -0.06618558 0.00540834 -0.01431573 0.81764706 1.07058823 0.90000000
v -0.06654934 0.00327876 -0.01421517 0.81764706 1.07058823 0.90000000
v -0.06610398 0.00109284 -0.01571289 0.81764706 1.07058823 0.90000000
v -0.06592210 -0.01126022 -0.01125926 0.81764706 1.07058823 0.90000000
v -0.06582011 -0.01328463 -0.00897855 0.81764706 1.07058823 0.90000000
v -0.06575721 -0.01540295 -0.00463268 0.81764706 1.07058823 0.90000000
v -0.06610228 -0.00109307 -0.01571289 0.81764706 1.07058823 0.90000000
v -0.06595099 -0.00327898 -0.01556204 0.81764706 1.07058823 0.90000000
v -0.06618728 -0.00540856 -0.01431215 0.81764706 1.07058823 0.90000000
v -0.06607169 -0.00765457 -0.01363692 0.81764706 1.07058823 0.90000000
v -0.06582011 -0.00897665 -0.01328493 0.81764706 1.07058823 0.90000000
v -0.05816733 -0.01821609 -0.00344744 0.81764706 1.07058823 0.90000000
v -0.05578242 -0.01899732 -0.00327863 0.81764706 1.07058823 0.90000000
v -0.05359470 -0.01829121 -0.00327863 0.81764706 1.07058823 0.90000000
v -0.05338392 -0.01816727 -0.00095842 0.81764706 1.07058823 0.90000000
v -0.04946233 -0.01592125 0.00303548 0.81764706 1.07058823 0.90000000
v -0.04946233 -0.01546680 0.00478820 0.81764706 1.07058823 0.90000000
v -0.04946233 -0.01504614 0.00588006 0.81764706 1.07058823 0.90000000
v -0.04946233 -0.01438885 0.00745320 0.81764706 1.07058823 0.90000000
v -0.04946233 -0.01429497 0.00765433 0.81764706 1.07058823 0.90000000
v -0.04946233 0.01892573 -0.00327863 0.81764706 1.07058823 0.90000000
v -0.05140696 0.01855765 -0.00327863 0.81764706 1.07058823 0.90000000
v -0.05140696 0.01817455 -0.00546592 0.81764706 1.07058823 0.90000000
v -0.05140696 0.01770507 -0.00706780 0.81764706 1.07058823 0.90000000
v -0.05140696 0.01726938 -0.00815967 0.81764706 1.07058823 0.90000000
v -0.05140696 0.01471539 -0.01237625 0.81764706 1.07058823 0.90000000
v -0.05284675 0.01339709 -0.01341783 0.81764706 1.07058823 0.90000000
v -0.05140696 0.01643183 -0.00984056 0.81764706 1.07058823 0.90000000
v -0.05140696 0.01556797 -0.01128079 0.81764706 1.07058823 0.90000000
v -0.05281616 0.01118863 -0.01550816 0.81764706 1.07058823 0.90000000
v -0.05312043 0.00715107 -0.01776012 0.81764706 1.07058823 0.90000000
v -0.06575721 0.00463839 -0.01540041 0.81764706 1.07058823 0.90000000
v -0.06594759 0.00327876 -0.01556204 0.81764706 1.07058823 0.90000000
v -0.05359470 0.00109284 -0.01912853 0.81764706 1.07058823 0.90000000
v -0.05359470 -0.00109307 -0.01917522 0.81764706 1.07058823 0.90000000
v -0.05578242 -0.01350999 -0.01349683 0.81764706 1.07058823 0.90000000
v -0.05578242 -0.01460295 -0.01235829 0.81764706 1.07058823 0.90000000
v -0.05695703 -0.01537665 -0.01101861 0.81764706 1.07058823 0.90000000
v -0.05718990 -0.01769027 -0.00697083 0.81764706 1.07058823 0.90000000
v -0.05763357 -0.01796820 -0.00546592 0.81764706 1.07058823 0.90000000
v -0.05359470 -0.00327898 -0.01895973 0.81764706 1.07058823 0.90000000
v -0.06576062 -0.00463861 -0.01540400 0.81764706 1.07058823 0.90000000
v -0.05507868 -0.00711374 -0.01771343 0.81764706 1.07058823 0.90000000
v -0.05521296 -0.01126773 -0.01555126 0.81764706 1.07058823 0.90000000
v -0.05578242 -0.01848651 -0.00546592 0.81764706 1.07058823 0.90000000
v -0.05415056 -0.01775037 -0.00717197 0.81764706 1.07058823 0.90000000
v -0.05349100 -0.01793064 -0.00534023 0.81764706 1.07058823 0.90000000
v -0.05246938 -0.01752501 -0.00452493 0.81764706 1.07058823 0.90000000
v -0.04946233 -0.01622172 -0.00134273 0.81764706 1.07058823 0.90000000
v -0.04946233 -0.01624050 -0.00107695 0.81764706 1.07058823 0.90000000
v -0.04946233 -0.01623300 0.00088050 0.81764706 1.07058823 0.90000000
v -0.04946233 0.01839615 -0.00546592 0.81764706 1.07058823 0.90000000
v -0.04946233 0.01777643 -0.00721866 0.81764706 1.07058823 0.90000000
v -0.04946233 0.01727315 -0.00831411 0.81764706 1.07058823 0.90000000
v -0.04966971 0.01556797 -0.01127361 0.81764706 1.07058823 0.90000000
v -0.05140696 0.01362243 -0.01363332 0.81764706 1.07058823 0.90000000
v -0.05140696 0.00984027 -0.01656051 0.81764706 1.07058823 0.90000000
v -0.05140696 0.01243558 -0.01472519 0.81764706 1.07058823 0.90000000
v -0.05140696 0.01134263 -0.01561231 0.81764706 1.07058823 0.90000000
v -0.05140696 0.00841680 -0.01735067 0.81764706 1.07058823 0.90000000
v -0.05140696 0.00732384 -0.01781759 0.81764706 1.07058823 0.90000000
v -0.05140696 0.00546843 -0.01843176 0.81764706 1.07058823 0.90000000
v -0.05359470 0.00327876 -0.01879092 0.81764706 1.07058823 0.90000000
v -0.05374769 0.00559989 -0.01807619 0.81764706 1.07058823 0.90000000
v -0.05140696 0.00327876 -0.01888789 0.81764706 1.07058823 0.90000000
v -0.05140696 0.00109284 -0.01906389 0.81764706 1.07058823 0.90000000
v -0.05140696 -0.00109307 -0.01895613 0.81764706 1.07058823 0.90000000
v -0.05359470 -0.01357008 -0.01357586 0.81764706 1.07058823 0.90000000
v -0.05359470 -0.01240952 -0.01466772 0.81764706 1.07058823 0.90000000
v -0.05398566 -0.01556820 -0.01128798 0.81764706 1.07058823 0.90000000
v -0.05578242 -0.01555318 -0.01126284 0.81764706 1.07058823 0.90000000
v -0.05578242 -0.01648087 -0.00984056 0.81764706 1.07058823 0.90000000
v -0.05578242 -0.01732971 -0.00842186 0.81764706 1.07058823 0.90000000
v -0.05578242 -0.01782924 -0.00732999 0.81764706 1.07058823 0.90000000
v -0.05140696 -0.00327898 -0.01858260 0.81764706 1.07058823 0.90000000
v -0.05359470 -0.00546867 -0.01847486 0.81764706 1.07058823 0.90000000
v -0.05359470 -0.00735036 -0.01783196 0.81764706 1.07058823 0.90000000
v -0.05359470 -0.00844332 -0.01735427 0.81764706 1.07058823 0.90000000
v -0.05359470 -0.01131655 -0.01559436 0.81764706 1.07058823 0.90000000
v -0.05359470 -0.00984049 -0.01654614 0.81764706 1.07058823 0.90000000
v -0.05339241 -0.01608276 -0.01004886 0.81764706 1.07058823 0.90000000
v -0.05252718 -0.01529778 -0.01091445 0.81764706 1.07058823 0.90000000
v -0.05349100 -0.01716069 -0.00780410 0.81764706 1.07058823 0.90000000
v -0.05269208 -0.01736727 -0.00598313 0.81764706 1.07058823 0.90000000
v -0.04946233 -0.01592125 -0.00349772 0.81764706 1.07058823 0.90000000
v -0.04946233 -0.01595882 -0.00327863 0.81764706 1.07058823 0.90000000
v -0.04946233 0.01576704 -0.01085698 0.81764706 1.07058823 0.90000000
v -0.04946233 0.01552290 -0.01121974 0.81764706 1.07058823 0.90000000
v -0.04965782 0.01351352 -0.01350402 0.81764706 1.07058823 0.90000000
v -0.04995699 0.01122620 -0.01551534 0.81764706 1.07058823 0.90000000
v -0.05005389 0.00698582 -0.01766314 0.81764706 1.07058823 0.90000000
v -0.04979211 0.00546843 -0.01787146 0.81764706 1.07058823 0.90000000
v -0.04963572 0.00327876 -0.01805823 0.81764706 1.07058823 0.90000000
v -0.04964931 0.00109284 -0.01810851 0.81764706 1.07058823 0.90000000
v -0.04977851 -0.00109307 -0.01801512 0.81764706 1.07058823 0.90000000
v -0.05001648 -0.00327898 -0.01778526 0.81764706 1.07058823 0.90000000
v -0.05230960 -0.01110999 -0.01545069 0.81764706 1.07058823 0.90000000
v -0.05230279 -0.01330717 -0.01332086 0.81764706 1.07058823 0.90000000
v -0.05339241 -0.01478699 -0.01202427 0.81764706 1.07058823 0.90000000
v -0.05021367 -0.00461609 -0.01759131 0.81764706 1.07058823 0.90000000
v -0.05136787 -0.00539355 -0.01796844 0.81764706 1.07058823 0.90000000
v -0.05207162 -0.00706116 -0.01772780 0.81764706 1.07058823 0.90000000
v -0.05217191 -0.01565835 -0.00945624 0.81764706 1.07058823 0.90000000
v -0.04946233 -0.01269872 -0.01065945 0.81764706 1.07058823 0.90000000
v -0.04946233 -0.01358511 -0.00940596 0.81764706 1.07058823 0.90000000
v -0.04946233 -0.01431750 -0.00794058 0.81764706 1.07058823 0.90000000
v -0.04946233 -0.01557197 -0.00484816 0.81764706 1.07058823 0.90000000
v -0.04946233 0.01375014 -0.01314486 0.81764706 1.07058823 0.90000000
v -0.04946233 0.01344966 -0.01344655 0.81764706 1.07058823 0.90000000
v -0.04946233 0.01092571 -0.01534653 0.81764706 1.07058823 0.90000000
v -0.04946233 0.01020084 -0.01572725 0.81764706 1.07058823 0.90000000
v -0.04946233 0.01173699 -0.01480779 0.81764706 1.07058823 0.90000000
v -0.04946233 0.00752666 -0.01699869 0.81764706 1.07058823 0.90000000
v -0.04946233 0.00632478 -0.01738659 0.81764706 1.07058823 0.90000000
v -0.04946233 0.00546843 -0.01762005 0.81764706 1.07058823 0.90000000
v -0.04946233 0.00327876 -0.01791456 0.81764706 1.07058823 0.90000000
v -0.04946233 0.00109284 -0.01793970 0.81764706 1.07058823 0.90000000
v -0.04946233 -0.00109307 -0.01772419 0.81764706 1.07058823 0.90000000
v -0.04946233 -0.00327898 -0.01727885 0.81764706 1.07058823 0.90000000
v -0.04946233 -0.01156444 -0.01209250 0.81764706 1.07058823 0.90000000
v -0.05136787 -0.00773721 -0.01686220 0.81764706 1.07058823 0.90000000
v -0.05151066 -0.00963768 -0.01577035 0.81764706 1.07058823 0.90000000
v -0.05029696 -0.00877008 -0.01532858 0.81764706 1.07058823 0.90000000
v -0.04946233 -0.00961890 -0.01396376 0.81764706 1.07058823 0.90000000
v -0.04946233 -0.00524331 -0.01659642 0.81764706 1.07058823 0.90000000
v -0.04946233 -0.00547994 -0.01648509 0.81764706 1.07058823 0.90000000
v -0.05061314 -0.00607712 -0.01726806 0.81764706 1.07058823 0.90000000
v -0.04946233 -0.00765457 -0.01529625 0.81764706 1.07058823 0.90000000
v -0.04946233 -0.00959261 -0.01398171 0.81764706 1.07058823 0.90000000
f 1 2 3
f 1 3 4
f 1 4 5
f 1 5 14
f 1 14 29
f 1 29 45
f 1 45 58
f 1 58 76
f 1 76 75
f 1 75 102
f 1 102 101
f 1 101 128
f 1 128 127
f 1 127 126
f 1 126 156
f 1 156 155
f 1 155 154
f 1 154 153
f 1 153 152
f 1 152 187
f 1 187 186
f 1 186 185
f 1 185 222
f 1 222 221
f 1 221 243
f 1 243 242
f 1 242 241
f 1 241 240
f 1 240 256
f 1 256 260
f 1 260 265
f 1 265 264
f 1 264 262
f 1 262 261
f 1 261 255
f 1 255 254
f 1 254 253
f 1 253 252
f 1 252 251
f 1 251 250
f 1 250 249
f 1 249 247
f 1 247 246
f 1 246 248
f 1 248 245
f 1 245 244
f 1 244 224
f 1 224 223
f 1 223 190
f 1 190 189
f 1 189 188
f 1 188 157
f 1 157 129
f 1 129 103
f 1 103 82
f 1 82 81
f 1 81 80
f 1 80 79
f 1 79 63
f 1 63 62
f 1 62 61
f 1 61 49
f 1 49 48
f 1 48 34
f 1 34 33
f 1 33 32
f 1 32 30
f 1 30 17
f 1 17 16
f 1 16 15
f 1 15 6
f 1 6 2
f 2 6 7
f 2 7 8
f 2 8 3
f 3 8 9
f 3 9 10
f 3 10 4
f 4 11 12
f 4 12 13
f 4 13 14
f 4 14 5
f 4 10 11
f 6 15 7
f 7 9 8
f 7 15 16
f 7 16 17
f 7 17 18
f 7 18 19
f 7 19 20
f 7 20 21
f 7 21 22
f 7 22 9
f 9 23 10
f 9 22 23
f 10 24 25
f 10 25 11
f 10 23 24
f 11 25 26
f 11 26 12
f 12 26 27
f 12 27 28
f 12 28 13
f 13 28 29
f 13 29 14
f 17 30 18
f 18 30 19
f 19 30 20
f 20 31 21
f 20 30 32
f 20 32 33
f 20 33 34
f 20 34 35
f 20 35 31
f 21 31 36
f 21 36 22
f 22 36 23
f 23 36 24
f 24 36 37
f 24 37 38
f 24 38 25
f 25 38 26
f 26 38 39
f 26 39 27
f 27 39 40
f 27 40 28
f 28 40 41
f 28 41 42
f 28 42 43
f 28 43 44
f 28 44 29
f 29 44 45
f 31 46 36
f 31 35 47
f 31 47 46
f 34 48 35
f 35 48 49
f 35 49 50
f 35 50 47
f 36 46 37
f 37 46 51
f 37 51 66
f 37 66 88
f 37 88 92
f 37 92 67
f 37 67 52
f 37 52 38
f 38 52 53
f 38 53 39
f 39 53 54
f 39 54 40
f 40 54 41
f 41 54 55
f 41 55 56
f 41 56 57
f 41 57 42
f 42 57 58
f 42 58 43
f 43 58 45
f 43 45 44
f 46 47 59
f 46 59 51
f 47 50 60
f 47 60 59
f 49 61 50
f 50 61 62
f 50 62 63
f 50 63 64
f 50 64 60
f 51 59 65
f 51 65 84
f 51 84 66
f 52 67 91
f 52 91 68
f 52 68 69
f 52 69 70
f 52 70 53
f 53 70 71
f 53 71 54
f 54 71 55
f 55 71 72
f 55 72 73
f 55 73 74
f 55 74 56
f 56 75 76
f 56 76 57
f 56 74 75
f 57 76 58
f 59 60 77
f 59 77 78
f 59 78 65
f 60 64 77
f 63 79 64
f 64 79 80
f 64 80 81
f 64 81 82
f 64 82 83
f 64 83 77
f 65 78 85
f 65 85 106
f 65 106 84
f 66 84 86
f 66 86 87
f 66 87 88
f 67 89 90
f 67 90 91
f 67 92 93
f 67 93 89
f 68 91 117
f 68 117 94
f 68 94 69
f 69 94 95
f 69 95 96
f 69 96 70
f 70 96 97
f 70 97 71
f 71 97 72
f 72 97 98
f 72 98 99
f 72 99 100
f 72 100 73
f 73 101 74
f 73 100 101
f 74 101 102
f 74 102 75
f 77 83 78
f 78 83 85
f 82 103 83
f 83 103 104
f 83 104 85
f 84 105 86
f 84 106 105
f 85 104 130
f 85 130 106
f 86 105 107
f 86 107 108
f 86 108 109
f 86 109 87
f 87 110 111
f 87 111 88
f 87 109 110
f 88 111 112
f 88 112 92
f 89 113 114
f 89 114 115
f 89 115 90
f 89 93 113
f 90 115 116
f 90 116 117
f 90 117 91
f 92 118 119
f 92 119 120
f 92 120 93
f 92 112 118
f 93 120 121
f 93 121 113
f 94 117 122
f 94 122 95
f 95 122 98
f 95 98 96
f 96 98 97
f 98 122 123
f 98 123 124
f 98 124 99
f 99 124 123
f 99 123 125
f 99 125 100
f 100 125 126
f 100 126 127
f 100 127 128
f 100 128 101
f 103 129 104
f 104 129 130
f 105 106 131
f 105 131 107
f 106 130 131
f 107 131 132
f 107 132 108
f 108 133 109
f 108 132 133
f 109 134 110
f 109 133 134
f 110 135 136
f 110 136 111
f 110 134 135
f 111 136 137
f 111 137 138
f 111 138 112
f 112 138 139
f 112 139 143
f 112 143 118
f 113 121 140
f 113 140 141
f 113 141 114
f 114 141 142
f 114 142 115
f 115 142 116
f 116 142 122
f 116 122 117
f 118 143 119
f 119 143 144
f 119 144 145
f 119 145 120
f 120 145 146
f 120 146 121
f 121 146 147
f 121 147 140
f 122 148 149
f 122 149 123
f 122 142 148
f 123 149 150
f 123 150 151
f 123 151 152
f 123 152 153
f 123 153 154
f 123 154 155
f 123 155 156
f 123 156 125
f 125 156 126
f 129 157 158
f 129 158 130
f 130 158 131
f 131 158 132
f 132 158 159
f 132 159 160
f 132 160 161
f 132 161 133
f 133 162 163
f 133 163 134
f 133 161 164
f 133 164 165
f 133 165 162
f 134 163 166
f 134 166 135
f 135 166 167
f 135 167 168
f 135 168 136
f 136 168 137
f 137 168 169
f 137 169 138
f 138 169 139
f 139 169 170
f 139 170 171
f 139 171 143
f 140 172 173
f 140 173 174
f 140 174 141
f 140 147 172
f 141 174 175
f 141 175 142
f 142 175 176
f 142 176 148
f 143 171 144
f 144 171 177
f 144 177 178
f 144 178 145
f 145 178 146
f 146 178 147
f 147 178 179
f 147 179 180
f 147 180 172
f 148 176 149
f 149 176 181
f 149 181 182
f 149 182 183
f 149 183 150
f 150 183 184
f 150 184 185
f 150 185 186
f 150 186 187
f 150 187 151
f 151 187 152
f 157 188 159
f 157 159 158
f 159 188 160
f 160 188 189
f 160 189 161
f 161 189 190
f 161 190 164
f 162 165 191
f 162 191 192
f 162 192 163
f 163 192 166
f 164 190 191
f 164 191 165
f 166 193 167
f 166 192 194
f 166 194 195
f 166 195 193
f 167 193 196
f 167 196 197
f 167 197 198
f 167 198 199
f 167 199 200
f 167 200 168
f 168 200 199
f 168 199 169
f 169 199 170
f 170 201 202
f 170 202 171
f 170 199 201
f 171 202 203
f 171 203 177
f 172 204 173
f 172 180 205
f 172 205 204
f 173 204 206
f 173 206 207
f 173 207 174
f 174 207 208
f 174 208 209
f 174 209 175
f 175 209 210
f 175 210 181
f 175 181 176
f 177 203 211
f 177 211 212
f 177 212 178
f 178 212 179
f 179 212 213
f 179 213 214
f 179 214 180
f 180 215 205
f 180 214 216
f 180 216 215
f 181 210 182
f 182 209 206
f 182 206 217
f 182 217 218
f 182 218 219
f 182 219 220
f 182 220 183
f 182 210 209
f 183 220 184
f 184 220 221
f 184 221 222
f 184 222 185
f 190 223 191
f 191 223 224
f 191 224 225
f 191 225 192
f 192 225 194
f 193 195 226
f 193 226 196
f 194 225 226
f 194 226 195
f 196 226 227
f 196 227 197
f 197 227 198
f 198 227 201
f 198 201 199
f 201 227 228
f 201 228 229
f 201 229 202
f 202 229 230
f 202 230 203
f 203 230 231
f 203 231 232
f 203 232 211
f 204 205 233
f 204 233 234
f 204 234 235
f 204 235 206
f 205 215 233
f 206 235 218
f 206 218 217
f 206 209 208
f 206 208 207
f 211 232 236
f 211 236 237
f 211 237 238
f 211 238 212
f 212 238 213
f 213 238 214
f 214 238 216
f 215 216 233
f 216 238 233
f 218 239 219
f 218 235 234
f 218 234 240
f 218 240 241
f 218 241 242
f 218 242 239
f 219 239 220
f 220 239 243
f 220 243 221
f 224 244 225
f 225 244 245
f 225 245 226
f 226 246 247
f 226 247 227
f 226 245 248
f 226 248 246
f 227 249 250
f 227 250 251
f 227 251 228
f 227 247 249
f 228 251 229
f 229 251 252
f 229 252 230
f 230 252 253
f 230 253 231
f 231 254 255
f 231 255 232
f 231 253 254
f 232 255 236
f 233 256 234
f 233 238 257
f 233 257 258
f 233 258 259
f 233 259 260
f 233 260 256
f 234 256 240
f 236 255 261
f 236 261 262
f 236 262 263
f 236 263 237
f 237 263 238
f 238 263 257
f 239 242 243
f 257 259 258
f 257 263 259
f 259 264 265
f 259 265 260
f 259 263 264
f 262 264 263