# https://github.com/mikedh/trimesh
v -0.04265586 -0.01922793 0.00109078 0.81176471 0.63529411 0.96470587
v -0.04046907 -0.01876760 0.00109078 0.81176471 0.63529411 0.96470587
v -0.04265586 -0.01899954 0.00327834 0.81176471 0.63529411 0.96470587
v -0.04438148 -0.01844286 0.00327834 0.81176471 0.63529411 0.96470587
v -0.04438148 -0.01853920 0.00109078 0.81176471 0.63529411 0.96470587
v -0.04265586 -0.01919938 -0.00109304 0.81176471 0.63529411 0.96470587
v -0.04046907 -0.01890319 -0.00109304 0.81176471 0.63529411 0.96470587
v -0.03939642 -0.01809315 0.00109078 0.81176471 0.63529411 0.96470587
v -0.03939642 -0.01785048 0.00255288 0.81176471 0.63529411 0.96470587
v -0.03939642 -0.01777911 0.00294351 0.81176471 0.63529411 0.96470587
v -0.04026947 -0.01821447 0.00344575 0.81176471 0.63529411 0.96470587
v -0.04081116 -0.01796825 0.00546588 0.81176471 0.63529411 0.96470587
v -0.03939642 -0.01826801 -0.00109304 0.81176471 0.63529411 0.96470587
v -0.04265586 -0.01848568 0.00546588 0.81176471 0.63529411 0.96470587
v -0.04428095 -0.01774699 0.00717351 0.81176471 0.63529411 0.96470587
v -0.04438148 -0.01777556 0.00689448 0.81176471 0.63529411 0.96470587
v -0.04438148 -0.01806459 0.00536544 0.81176471 0.63529411 0.96470587
v -0.04438148 -0.01839289 -0.00094050 0.81176471 0.63529411 0.96470587
v -0.04438148 -0.01813241 -0.00318013 0.81176471 0.63529411 0.96470587
v -0.04265586 -0.01890676 -0.00328057 0.81176471 0.63529411 0.96470587
v -0.04046907 -0.01876760 -0.00328057 0.81176471 0.63529411 0.96470587
v -0.03939642 -0.01821090 -0.00328057 0.81176471 0.63529411 0.96470587
v -0.03939642 -0.01746152 0.00429398 0.81176471 0.63529411 0.96470587
v -0.03940764 -0.01747223 0.00428281 0.81176471 0.63529411 0.96470587
v -0.04125769 -0.01768634 0.00696518 0.81176471 0.63529411 0.96470587
v -0.04265586 -0.01782551 0.00732604 0.81176471 0.63529411 0.96470587
v -0.04265586 -0.01732949 0.00841982 0.81176471 0.63529411 0.96470587
v -0.04438148 -0.01556664 0.01128818 0.81176471 0.63529411 0.96470587
v -0.04438148 -0.01765779 0.00727023 0.81176471 0.63529411 0.96470587
v -0.04438148 -0.01811812 -0.00328057 0.81176471 0.63529411 0.96470587
v -0.04404962 -0.01775057 -0.00546813 0.81176471 0.63529411 0.96470587
v -0.04265586 -0.01832509 -0.00546813 0.81176471 0.63529411 0.96470587
v -0.04046907 -0.01834294 -0.00546813 0.81176471 0.63529411 0.96470587
v -0.03939642 -0.01791115 -0.00546813 0.81176471 0.63529411 0.96470587
v -0.03939642 -0.01695480 0.00545472 0.81176471 0.63529411 0.96470587
v -0.03971753 -0.01721172 0.00546588 0.81176471 0.63529411 0.96470587
v -0.03939642 -0.01572009 0.00776132 0.81176471 0.63529411 0.96470587
v -0.04037683 -0.01650516 0.00776132 0.81176471 0.63529411 0.96470587
v -0.04105078 -0.01577362 0.00984098 0.81176471 0.63529411 0.96470587
v -0.04148901 -0.01537038 0.01101288 0.81176471 0.63529411 0.96470587
v -0.04265586 -0.01647662 0.00984098 0.81176471 0.63529411 0.96470587
v -0.04265586 -0.01554880 0.01125842 0.81176471 0.63529411 0.96470587
v -0.04438148 -0.01553453 0.01132537 0.81176471 0.63529411 0.96470587
v -0.04438148 -0.01801464 -0.00371214 0.81176471 0.63529411 0.96470587
v -0.04438148 -0.01761496 -0.00498449 0.81176471 0.63529411 0.96470587
v -0.04378804 -0.01752932 -0.00662514 0.81176471 0.63529411 0.96470587
v -0.04265586 -0.01772916 -0.00707902 0.81176471 0.63529411 0.96470587
v -0.04046907 -0.01777556 -0.00723156 0.81176471 0.63529411 0.96470587
v -0.03939642 -0.01761853 -0.00687813 0.81176471 0.63529411 0.96470587
v -0.03939642 -0.01505993 0.00862443 0.81176471 0.63529411 0.96470587
v -0.04265586 -0.01459959 0.01235219 0.81176471 0.63529411 0.96470587
v -0.03939642 -0.01414995 0.00978890 0.81176471 0.63529411 0.96470587
v -0.03939642 -0.01383592 0.01013116 0.81176471 0.63529411 0.96470587
v -0.04147682 -0.01321857 0.01321158 0.81176471 0.63529411 0.96470587
v -0.04265586 -0.01350405 0.01349061 0.81176471 0.63529411 0.96470587
v -0.04438148 -0.01355402 0.01355385 0.81176471 0.63529411 0.96470587
v -0.04438148 -0.01706186 -0.00617499 0.81176471 0.63529411 0.96470587
v -0.04438148 -0.01627679 -0.00748825 0.81176471 0.63529411 0.96470587
v -0.04438148 -0.01545246 -0.00884989 0.81176471 0.63529411 0.96470587
v -0.04403597 -0.01564515 -0.00922193 0.81176471 0.63529411 0.96470587
v -0.04346303 -0.01506349 -0.01068029 0.81176471 0.63529411 0.96470587
v -0.04270271 -0.01605911 -0.00990646 0.81176471 0.63529411 0.96470587
v -0.04265586 -0.01716534 -0.00817280 0.81176471 0.63529411 0.96470587
v -0.04046907 -0.01732949 -0.00832533 0.81176471 0.63529411 0.96470587
v -0.03939642 -0.01756145 -0.00701579 0.81176471 0.63529411 0.96470587
v -0.03939642 -0.01196247 0.01186110 0.81176471 0.63529411 0.96470587
v -0.03939642 -0.00950377 0.01382915 0.81176471 0.63529411 0.96470587
v -0.04176766 -0.01069921 0.01518706 0.81176471 0.63529411 0.96470587
v -0.04322586 -0.01126660 0.01555166 0.81176471 0.63529411 0.96470587
v -0.04438148 -0.01208022 0.01491549 0.81176471 0.63529411 0.96470587
v -0.04438148 -0.01498856 -0.00950840 0.81176471 0.63529411 0.96470587
v -0.04438148 -0.01447469 -0.01010364 0.81176471 0.63529411 0.96470587
v -0.04200484 -0.01554166 -0.01123833 0.81176471 0.63529411 0.96470587
v -0.04438148 -0.01342913 -0.01121229 0.81176471 0.63529411 0.96470587
v -0.04408574 -0.01360755 -0.01140202 0.81176471 0.63529411 0.96470587
v -0.04348450 -0.01279392 -0.01286040 0.81176471 0.63529411 0.96470587
v -0.04202632 -0.01346836 -0.01345192 0.81176471 0.63529411 0.96470587
v -0.04046907 -0.01652301 -0.00984323 0.81176471 0.63529411 0.96470587
v -0.03939642 -0.01549171 -0.01118997 0.81176471 0.63529411 0.96470587
v -0.03939642 -0.00876509 0.01423839 0.81176471 0.63529411 0.96470587
v -0.04135042 -0.00924327 0.01554422 0.81176471 0.63529411 0.96470587
v -0.04264073 -0.00777304 0.01701374 0.81176471 0.63529411 0.96470587
v -0.04256021 -0.00992129 0.01599066 0.81176471 0.63529411 0.96470587
v -0.04438148 -0.01129872 0.01558142 0.81176471 0.63529411 0.96470587
v -0.04336006 -0.00712002 0.01771316 0.81176471 0.63529411 0.96470587
v -0.04438148 -0.00803712 0.01747134 0.81176471 0.63529411 0.96470587
v -0.04438148 -0.00985705 0.01643709 0.81176471 0.63529411 0.96470587
v -0.04046907 -0.01472805 -0.01242140 0.81176471 0.63529411 0.96470587
v -0.04046907 -0.01560234 -0.01132763 0.81176471 0.63529411 0.96470587
v -0.04046907 -0.01363252 -0.01363422 0.81176471 0.63529411 0.96470587
v -0.04438148 -0.01293666 -0.01168477 0.81176471 0.63529411 0.96470587
v -0.04438148 -0.01226579 -0.01230980 0.81176471 0.63529411 0.96470587
v -0.04438148 -0.01110960 -0.01322499 0.81176471 0.63529411 0.96470587
v -0.04401448 -0.01133441 -0.01339240 0.81176471 0.63529411 0.96470587
v -0.04178232 -0.01114886 -0.01546089 0.81176471 0.63529411 0.96470587
v -0.04046907 -0.01242281 -0.01472799 0.81176471 0.63529411 0.96470587
v -0.03939642 -0.01532398 -0.01140202 0.81176471 0.63529411 0.96470587
v -0.03939642 -0.00511095 0.01577115 0.81176471 0.63529411 0.96470587
v -0.04300772 -0.00546780 0.01795871 0.81176471 0.63529411 0.96470587
v -0.04438148 -0.00546780 0.01834562 0.81176471 0.63529411 0.96470587
v -0.04438148 -0.00728417 0.01779129 0.81176471 0.63529411 0.96470587
v -0.03939642 -0.01351476 -0.01352632 0.81176471 0.63529411 0.96470587
v -0.03939642 -0.01127374 -0.01556507 0.81176471 0.63529411 0.96470587
v -0.04438148 -0.01017822 -0.01384628 0.81176471 0.63529411 0.96470587
v -0.04438148 -0.00978568 -0.01408067 0.81176471 0.63529411 0.96470587
v -0.04219908 -0.00984277 -0.01582920 0.81176471 0.63529411 0.96470587
v -0.04167398 -0.00679172 -0.01757775 0.81176471 0.63529411 0.96470587
v -0.04046907 -0.00830475 -0.01732478 0.81176471 0.63529411 0.96470587
v -0.04046907 -0.00984277 -0.01652118 0.81176471 0.63529411 0.96470587
v -0.04046907 -0.01133083 -0.01560226 0.81176471 0.63529411 0.96470587
v -0.03939642 -0.00440796 0.01594972 0.81176471 0.63529411 0.96470587
v -0.04281300 -0.00328030 0.01816704 0.81176471 0.63529411 0.96470587
v -0.04438148 -0.00328030 0.01878461 0.81176471 0.63529411 0.96470587
v -0.03939642 -0.00328030 0.01620643 0.81176471 0.63529411 0.96470587
v -0.03939642 -0.01080270 -0.01585897 0.81176471 0.63529411 0.96470587
v -0.04438148 -0.00831189 -0.01484332 0.81176471 0.63529411 0.96470587
v -0.04185795 -0.00546780 -0.01774145 0.81176471 0.63529411 0.96470587
v -0.04046907 -0.00328030 -0.01873478 0.81176471 0.63529411 0.96470587
v -0.04046907 -0.00546780 -0.01831438 0.81176471 0.63529411 0.96470587
v -0.04046907 -0.00721280 -0.01776748 0.81176471 0.63529411 0.96470587
v -0.04438148 -0.00799073 -0.01496982 0.81176471 0.63529411 0.96470587
v -0.04438148 -0.00584962 -0.01580688 0.81176471 0.63529411 0.96470587
v -0.04438148 -0.00542141 -0.01591477 0.81176471 0.63529411 0.96470587
v -0.03939642 -0.00825480 -0.01725780 0.81176471 0.63529411 0.96470587
v -0.03939642 -0.00715928 -0.01775260 0.81176471 0.63529411 0.96470587
v -0.04282130 -0.00109282 0.01823772 0.81176471 0.63529411 0.96470587
v -0.04438148 -0.00109282 0.01896692 0.81176471 0.63529411 0.96470587
v -0.03939642 -0.00220620 0.01635897 0.81176471 0.63529411 0.96470587
v -0.03939642 -0.00109282 0.01642593 0.81176471 0.63529411 0.96470587
v -0.04201851 -0.00328030 -0.01791630 0.81176471 0.63529411 0.96470587
v -0.04438148 -0.00381558 -0.01624961 0.81176471 0.63529411 0.96470587
v -0.04046907 -0.00109282 -0.01886871 0.81176471 0.63529411 0.96470587
v -0.03939642 -0.00109282 -0.01903984 0.81176471 0.63529411 0.96470587
v -0.03939642 -0.00328030 -0.01882405 0.81176471 0.63529411 0.96470587
v -0.03939642 -0.00546780 -0.01832926 0.81176471 0.63529411 0.96470587
v -0.04438148 0.00109110 0.01888506 0.81176471 0.63529411 0.96470587
v -0.03939642 -0.00002227 0.01642965 0.81176471 0.63529411 0.96470587
v -0.04201364 -0.00109282 -0.01794234 0.81176471 0.63529411 0.96470587
v -0.04438148 -0.00328030 -0.01630540 0.81176471 0.63529411 0.96470587
v -0.04438148 -0.00167450 -0.01642818 0.81176471 0.63529411 0.96470587
v -0.03939642 0.00109110 -0.01898031 0.81176471 0.63529411 0.96470587
v -0.04046907 0.00109110 -0.01873105 0.81176471 0.63529411 0.96470587
v -0.04438148 0.00327858 0.01855023 0.81176471 0.63529411 0.96470587
v -0.03939642 0.00109110 0.01635153 0.81176471 0.63529411 0.96470587
v -0.03939642 0.00216522 0.01622503 0.81176471 0.63529411 0.96470587
v -0.04438148 -0.00109282 -0.01643190 0.81176471 0.63529411 0.96470587
v -0.04438148 0.00050943 -0.01638354 0.81176471 0.63529411 0.96470587
v -0.04438148 0.00109110 -0.01635005 0.81176471 0.63529411 0.96470587
v -0.03939642 0.00333212 -0.01861944 0.81176471 0.63529411 0.96470587
v -0.04064914 0.00338921 -0.01819161 0.81176471 0.63529411 0.96470587
v -0.04008452 0.00546607 -0.01794978 0.81176471 0.63529411 0.96470587
v -0.03939642 0.00463104 -0.01835159 0.81176471 0.63529411 0.96470587
v -0.04438148 0.00330000 -0.01604127 0.81176471 0.63529411 0.96470587
v -0.04438148 0.00386025 0.01841629 0.81176471 0.63529411 0.96470587
v -0.03939642 0.00327858 0.01600926 0.81176471 0.63529411 0.96470587
v -0.04438148 0.00449544 -0.01573248 0.81176471 0.63529411 0.96470587
v -0.03965604 0.00693987 -0.01767449 0.81176471 0.63529411 0.96470587
v -0.03939642 0.00666151 -0.01782702 0.81176471 0.63529411 0.96470587
v -0.03939642 0.00546607 -0.01815069 0.81176471 0.63529411 0.96470587
v -0.04438148 0.00542325 0.01798103 0.81176471 0.63529411 0.96470587
v -0.04351183 0.00495220 0.01771689 0.81176471 0.63529411 0.96470587
v -0.03939642 0.00406722 0.01581581 0.81176471 0.63529411 0.96470587
v -0.04438148 0.00576584 -0.01525627 0.81176471 0.63529411 0.96470587
v -0.03939642 0.00701124 -0.01770425 0.81176471 0.63529411 0.96470587
v -0.04438148 0.00767140 -0.01434108 0.81176471 0.63529411 0.96470587
v -0.04438148 0.00881333 -0.01368258 0.81176471 0.63529411 0.96470587
v -0.03942960 0.01099368 -0.01535673 0.81176471 0.63529411 0.96470587
v -0.03939642 0.01095799 -0.01539021 0.81176471 0.63529411 0.96470587
v -0.04438148 0.00590500 0.01782849 0.81176471 0.63529411 0.96470587
v -0.04386711 0.00640817 0.01741926 0.81176471 0.63529411 0.96470587
v -0.03939642 0.00488440 0.01554422 0.81176471 0.63529411 0.96470587
v -0.04438148 0.00915589 -0.01344449 0.81176471 0.63529411 0.96470587
v -0.04438148 0.01001947 -0.01277483 0.81176471 0.63529411 0.96470587
v -0.04438148 0.01123634 -0.01169594 0.81176471 0.63529411 0.96470587
v -0.03944424 0.01319544 -0.01320267 0.81176471 0.63529411 0.96470587
v -0.03939642 0.01320615 -0.01321383 0.81176471 0.63529411 0.96470587
v -0.03939642 0.01100082 -0.01536045 0.81176471 0.63529411 0.96470587
v -0.04438148 0.00726460 0.01721836 0.81176471 0.63529411 0.96470587
v -0.03939642 0.00541968 0.01533216 0.81176471 0.63529411 0.96470587
v -0.03939642 0.00680070 0.01477040 0.81176471 0.63529411 0.96470587
v -0.03939642 0.00862419 0.01392216 0.81176471 0.63529411 0.96470587
v -0.04438148 0.01145758 -0.01146528 0.81176471 0.63529411 0.96470587
v -0.04438148 0.01232117 -0.01055752 0.81176471 0.63529411 0.96470587
v -0.04438148 0.01332747 -0.00940794 0.81176471 0.63529411 0.96470587
v -0.04438148 0.01349877 -0.00917729 0.81176471 0.63529411 0.96470587
v -0.04438148 0.01436591 -0.00792726 0.81176471 0.63529411 0.96470587
v -0.03939642 0.01497255 -0.01048311 0.81176471 0.63529411 0.96470587
v -0.04438148 0.00949848 0.01577861 0.81176471 0.63529411 0.96470587
v -0.03939642 0.00940926 0.01346455 0.81176471 0.63529411 0.96470587
v -0.04438148 0.01455504 -0.00759615 0.81176471 0.63529411 0.96470587
v -0.03939642 0.01537580 -0.00976509 0.81176471 0.63529411 0.96470587
v -0.04438148 0.01027641 0.01521682 0.81176471 0.63529411 0.96470587
v -0.03939642 0.01096870 0.01227778 0.81176471 0.63529411 0.96470587
v -0.04438148 0.01563273 -0.00551277 0.81176471 0.63529411 0.96470587
v -0.03939642 0.01557920 -0.00928517 0.81176471 0.63529411 0.96470587
v -0.04438148 0.01091874 0.01468482 0.81176471 0.63529411 0.96470587
v -0.03939642 0.01164315 0.01167881 0.81176471 0.63529411 0.96470587
v -0.04438148 0.01572908 -0.00526724 0.81176471 0.63529411 0.96470587
v -0.04438148 0.01637855 -0.00356705 0.81176471 0.63529411 0.96470587
v -0.03939642 0.01616800 -0.00768543 0.81176471 0.63529411 0.96470587
v -0.04438148 0.01169667 0.01390728 0.81176471 0.63529411 0.96470587
v -0.03939642 0.01324184 0.00998235 0.81176471 0.63529411 0.96470587
v -0.04438148 0.01245676 0.01310369 0.81176471 0.63529411 0.96470587
v -0.03939642 0.01689597 -0.00545325 0.81176471 0.63529411 0.96470587
v -0.04438148 0.01648560 -0.00314665 0.81176471 0.63529411 0.96470587
v -0.03939642 0.01370931 0.00938709 0.81176471 0.63529411 0.96470587
v -0.04438148 0.01310267 0.01235963 0.81176471 0.63529411 0.96470587
v -0.03939642 0.01701730 -0.00486171 0.81176471 0.63529411 0.96470587
v -0.04438148 0.01673182 -0.00109304 0.81176471 0.63529411 0.96470587
v -0.04438148 0.01392698 0.01126213 0.81176471 0.63529411 0.96470587
v -0.03939642 0.01575048 0.00577095 0.81176471 0.63529411 0.96470587
v -0.03939642 0.01720287 -0.00328057 0.81176471 0.63529411 0.96470587
v -0.03939642 0.01722785 -0.00290855 0.81176471 0.63529411 0.96470587
v -0.04438148 0.01678892 0.00088245 0.81176471 0.63529411 0.96470587
v -0.04438148 0.01466923 0.00984098 0.81176471 0.63529411 0.96470587
v -0.03939642 0.01600384 0.00521291 0.81176471 0.63529411 0.96470587
v -0.04438148 0.01467993 0.00981866 0.81176471 0.63529411 0.96470587
v -0.04438148 0.01679248 0.00109078 0.81176471 0.63529411 0.96470587
v -0.03939642 0.01720643 -0.00109304 0.81176471 0.63529411 0.96470587
v -0.03939642 0.01659622 0.00327834 0.81176471 0.63529411 0.96470587
v -0.04438148 0.01623223 0.00549936 0.81176471 0.63529411 0.96470587
v -0.04438148 0.01549356 0.00759390 0.81176471 0.63529411 0.96470587
v -0.04438148 0.01671397 0.00307000 0.81176471 0.63529411 0.96470587
v -0.03939642 0.01717788 -0.00070612 0.81176471 0.63529411 0.96470587
v -0.03939642 0.01699588 0.00109078 0.81176471 0.63529411 0.96470587
v -0.04438148 0.01668900 0.00327834 0.81176471 0.63529411 0.96470587
v -0.04438148 0.01627149 0.00533566 0.81176471 0.63529411 0.96470587
f 1 2 3
f 1 3 4
f 1 4 5
f 1 5 6
f 1 6 7
f 1 7 2
f 2 8 9
f 2 9 10
f 2 10 11
f 2 11 12
f 2 12 3
f 2 7 13
f 2 13 8
f 3 12 14
f 3 14 15
f 3 15 16
f 3 16 17
f 3 17 4
f 4 17 16
f 4 16 29
f 4 29 28
f 4 28 43
f 4 43 56
f 4 56 70
f 4 70 84
f 4 84 87
f 4 87 86
f 4 86 101
f 4 101 100
f 4 100 113
f 4 113 127
f 4 127 136
f 4 136 143
f 4 143 154
f 4 154 160
f 4 160 169
f 4 169 178
f 4 178 188
f 4 188 192
f 4 192 196
f 4 196 201
f 4 201 203
f 4 203 207
f 4 207 210
f 4 210 215
f 4 215 217
f 4 217 222
f 4 222 221
f 4 221 227
f 4 227 226
f 4 226 223
f 4 223 218
f 4 218 214
f 4 214 209
f 4 209 205
f 4 205 199
f 4 199 198
f 4 198 194
f 4 194 190
f 4 190 186
f 4 186 185
f 4 185 184
f 4 184 183
f 4 183 182
f 4 182 174
f 4 174 173
f 4 173 172
f 4 172 166
f 4 166 165
f 4 165 163
f 4 163 156
f 4 156 153
f 4 153 148
f 4 148 147
f 4 147 146
f 4 146 140
f 4 140 139
f 4 139 131
f 4 131 123
f 4 123 122
f 4 122 121
f 4 121 116
f 4 116 105
f 4 105 104
f 4 104 93
f 4 93 92
f 4 92 91
f 4 91 74
f 4 74 72
f 4 72 71
f 4 71 59
f 4 59 58
f 4 58 57
f 4 57 45
f 4 45 44
f 4 44 30
f 4 30 19
f 4 19 18
f 4 18 5
f 5 18 6
f 6 19 20
f 6 20 21
f 6 21 7
f 6 18 19
f 7 21 22
f 7 22 13
f 8 13 22
f 8 22 34
f 8 34 49
f 8 49 65
f 8 65 79
f 8 79 97
f 8 97 102
f 8 102 103
f 8 103 115
f 8 115 124
f 8 124 125
f 8 125 135
f 8 135 134
f 8 134 133
f 8 133 141
f 8 141 149
f 8 149 152
f 8 152 159
f 8 159 158
f 8 158 164
f 8 164 168
f 8 168 177
f 8 177 176
f 8 176 187
f 8 187 191
f 8 191 195
f 8 195 200
f 8 200 204
f 8 204 208
f 8 208 212
f 8 212 213
f 8 213 219
f 8 219 224
f 8 224 225
f 8 225 220
f 8 220 216
f 8 216 211
f 8 211 206
f 8 206 202
f 8 202 197
f 8 197 193
f 8 193 189
f 8 189 181
f 8 181 180
f 8 180 179
f 8 179 171
f 8 171 162
f 8 162 155
f 8 155 145
f 8 145 144
f 8 144 137
f 8 137 129
f 8 129 128
f 8 128 114
f 8 114 111
f 8 111 98
f 8 98 80
f 8 80 67
f 8 67 66
f 8 66 53
f 8 53 52
f 8 52 50
f 8 50 37
f 8 37 35
f 8 35 23
f 8 23 10
f 8 10 9
f 10 23 24
f 10 24 11
f 11 24 12
f 12 24 23
f 12 23 25
f 12 25 14
f 14 25 26
f 14 26 15
f 15 26 27
f 15 27 28
f 15 28 29
f 15 29 16
f 19 30 20
f 20 30 31
f 20 31 32
f 20 32 33
f 20 33 21
f 21 33 34
f 21 34 22
f 23 35 36
f 23 36 25
f 25 36 35
f 25 35 37
f 25 37 38
f 25 38 39
f 25 39 40
f 25 40 27
f 25 27 26
f 27 40 41
f 27 41 28
f 28 42 43
f 28 41 42
f 30 44 31
f 31 44 45
f 31 45 46
f 31 46 32
f 32 46 47
f 32 47 48
f 32 48 33
f 33 48 49
f 33 49 34
f 37 50 40
f 37 40 39
f 37 39 38
f 40 51 42
f 40 42 41
f 40 50 52
f 40 52 53
f 40 53 54
f 40 54 55
f 40 55 51
f 42 51 43
f 43 51 56
f 45 57 46
f 46 57 58
f 46 58 59
f 46 59 60
f 46 60 61
f 46 61 62
f 46 62 63
f 46 63 47
f 47 63 64
f 47 64 48
f 48 64 49
f 49 64 65
f 51 55 56
f 53 66 54
f 54 67 68
f 54 68 69
f 54 69 55
f 54 66 67
f 55 69 70
f 55 70 56
f 59 71 60
f 60 71 72
f 60 72 61
f 61 73 62
f 61 72 74
f 61 74 75
f 61 75 76
f 61 76 77
f 61 77 73
f 62 73 63
f 63 73 78
f 63 78 64
f 64 78 79
f 64 79 65
f 67 80 68
f 68 81 82
f 68 82 83
f 68 83 69
f 68 80 81
f 69 84 70
f 69 83 85
f 69 85 86
f 69 86 87
f 69 87 84
f 73 88 89
f 73 89 78
f 73 77 90
f 73 90 88
f 74 91 75
f 75 91 76
f 76 91 92
f 76 92 93
f 76 93 94
f 76 94 95
f 76 95 77
f 77 95 96
f 77 96 90
f 78 89 79
f 79 89 97
f 80 98 81
f 81 98 82
f 82 98 85
f 82 85 83
f 85 99 100
f 85 100 101
f 85 101 86
f 85 98 99
f 88 97 89
f 88 90 102
f 88 102 97
f 90 96 103
f 90 103 102
f 93 104 95
f 93 95 94
f 95 104 105
f 95 105 106
f 95 106 107
f 95 107 108
f 95 108 109
f 95 109 110
f 95 110 96
f 96 110 103
f 98 111 99
f 99 112 113
f 99 113 100
f 99 111 114
f 99 114 112
f 103 110 115
f 105 116 106
f 106 116 107
f 107 117 118
f 107 118 119
f 107 119 120
f 107 120 108
f 107 116 121
f 107 121 122
f 107 122 123
f 107 123 117
f 108 124 109
f 108 120 125
f 108 125 124
f 109 124 115
f 109 115 110
f 112 126 127
f 112 127 113
f 112 114 128
f 112 128 129
f 112 129 126
f 117 130 118
f 117 123 131
f 117 131 130
f 118 132 133
f 118 133 134
f 118 134 119
f 118 130 132
f 119 134 135
f 119 135 120
f 120 135 125
f 126 136 127
f 126 129 137
f 126 137 136
f 130 138 132
f 130 131 139
f 130 139 140
f 130 140 138
f 132 141 133
f 132 138 142
f 132 142 141
f 136 137 144
f 136 144 145
f 136 145 143
f 138 140 146
f 138 146 147
f 138 147 148
f 138 148 142
f 141 142 149
f 142 150 151
f 142 151 152
f 142 152 149
f 142 148 153
f 142 153 150
f 143 145 155
f 143 155 154
f 150 153 156
f 150 156 151
f 151 157 158
f 151 158 159
f 151 159 152
f 151 156 157
f 154 155 161
f 154 161 160
f 155 162 161
f 156 163 157
f 157 164 158
f 157 163 165
f 157 165 166
f 157 166 167
f 157 167 168
f 157 168 164
f 160 161 169
f 161 170 169
f 161 162 171
f 161 171 170
f 166 172 167
f 167 172 173
f 167 173 174
f 167 174 175
f 167 175 176
f 167 176 177
f 167 177 168
f 169 170 178
f 170 171 179
f 170 179 180
f 170 180 181
f 170 181 178
f 174 182 175
f 175 182 183
f 175 183 184
f 175 184 185
f 175 185 186
f 175 186 187
f 175 187 176
f 178 181 189
f 178 189 188
f 186 190 187
f 187 190 191
f 188 189 192
f 189 193 192
f 190 194 191
f 191 194 195
f 192 193 196
f 193 197 196
f 194 198 195
f 195 198 199
f 195 199 200
f 196 197 201
f 197 202 203
f 197 203 201
f 199 204 200
f 199 205 204
f 202 206 207
f 202 207 203
f 204 205 208
f 205 209 208
f 206 210 207
f 206 211 210
f 208 209 212
f 209 213 212
f 209 214 213
f 210 211 215
f 211 216 217
f 211 217 215
f 213 214 218
f 213 218 219
f 216 220 221
f 216 221 222
f 216 222 217
f 218 223 219
f 219 223 224
f 220 225 226
f 220 226 227
f 220 227 221
f 223 226 225
f 223 225 224