# https://github.com/mikedh/trimesh
v 0.03436569 -0.02078079 0.02364725 1.41176470 0.78235294 0.61764706
v 0.02734233 -0.02078079 0.02364959 1.41176470 0.78235294 0.61764706
v 0.03436569 -0.02236723 0.02296962 1.41176470 0.78235294 0.61764706
v 0.03436569 -0.02032114 0.02352573 1.41176470 0.78235294 0.61764706
v 0.01819629 -0.02078079 0.02364959 1.41176470 0.78235294 0.61764706
v 0.01819629 -0.02278859 0.02278735 1.41176470 0.78235294 0.61764706
v 0.03436569 -0.02278859 0.02278735 1.41176470 0.78235294 0.61764706
v 0.03436569 -0.01805879 0.02274529 1.41176470 0.78235294 0.61764706
v 0.01819629 -0.01549797 0.02185037 1.41176470 0.78235294 0.61764706
v 0.01819629 -0.02364965 0.02078017 1.41176470 0.78235294 0.61764706
v 0.03436569 -0.02364883 0.02078017 1.41176470 0.78235294 0.61764706
v 0.03436569 -0.01549797 0.02185505 1.41176470 0.78235294 0.61764706
v 0.01819629 -0.01549797 -0.00021923 1.41176470 0.78235294 0.61764706
v 0.01819629 -0.02182778 -0.00021923 1.41176470 0.78235294 0.61764706
v 0.03436569 -0.02183656 -0.00021923 1.41176470 0.78235294 0.61764706
v 0.03436569 -0.01549797 -0.00021923 1.41176470 0.78235294 0.61764706
f 1 2 3
f 1 3 7
f 1 7 11
f 1 11 15
f 1 15 16
f 1 16 12
f 1 12 8
f 1 8 4
f 1 4 2
f 2 4 5
f 2 5 3
f 3 5 6
f 3 6 7
f 4 8 9
f 4 9 5
f 5 9 13
f 5 13 14
f 5 14 10
f 5 10 6
f 6 10 7
f 7 10 11
f 8 12 9
f 9 12 16
f 9 16 13
f 10 14 15
f 10 15 11
f 13 16 15
f 13 15 14