# https://github.com/mikedh/trimesh
v -0.06783278 0.10850766 -0.01572070 1.60784314 1.40392156 0.19607844
v -0.07677818 0.10850766 -0.01135362 1.60784314 1.40392156 0.19607844
v -0.06784550 0.10562192 -0.01572070 1.60784314 1.40392156 0.19607844
v -0.10465726 0.10850766 -0.01572070 1.60784314 1.40392156 0.19607844
v -0.07699864 0.10562192 -0.01135362 1.60784314 1.40392156 0.19607844
v -0.06809988 0.10020524 -0.01572070 1.60784314 1.40392156 0.19607844
v -0.09421534 0.10850766 -0.01135362 1.60784314 1.40392156 0.19607844
v -0.11113948 0.10014544 -0.01572070 1.60784314 1.40392156 0.19607844
v -0.11113948 0.09142850 -0.01135362 1.60784314 1.40392156 0.19607844
v -0.07809244 0.10020524 -0.01135362 1.60784314 1.40392156 0.19607844
v -0.06980840 0.09478852 -0.01572070 1.60784314 1.40392156 0.19607844
v -0.11113948 0.06779270 -0.01572070 1.60784314 1.40392156 0.19607844
v -0.11113948 0.07976206 -0.01135362 1.60784314 1.40392156 0.19607844
v -0.07957626 0.09561358 -0.01135362 1.60784314 1.40392156 0.19607844
v -0.07345016 0.08937182 -0.01572070 1.60784314 1.40392156 0.19607844
v -0.11104198 0.06778872 -0.01572070 1.60784314 1.40392156 0.19607844
v -0.11104198 0.07655748 -0.01135362 1.60784314 1.40392156 0.19607844
v -0.11113948 0.07655748 -0.01136132 1.60784314 1.40392156 0.19607844
v -0.08420158 0.08942762 -0.01135362 1.60784314 1.40392156 0.19607844
v -0.07870716 0.08395910 -0.01572070 1.60784314 1.40392156 0.19607844
v -0.10562388 0.06784452 -0.01572070 1.60784314 1.40392156 0.19607844
v -0.10020578 0.06811156 -0.01572070 1.60784314 1.40392156 0.19607844
v -0.10562388 0.07699592 -0.01135362 1.60784314 1.40392156 0.19607844
v -0.08943316 0.08420624 -0.01135362 1.60784314 1.40392156 0.19607844
v -0.08395994 0.07870582 -0.01572070 1.60784314 1.40392156 0.19607844
v -0.09479190 0.06983742 -0.01572070 1.60784314 1.40392156 0.19607844
v -0.10020578 0.07809202 -0.01135362 1.60784314 1.40392156 0.19607844
v -0.08937804 0.07345652 -0.01572070 1.60784314 1.40392156 0.19607844
v -0.09561012 0.07957472 -0.01135362 1.60784314 1.40392156 0.19607844
f 1 2 3
f 1 3 6
f 1 6 11
f 1 11 15
f 1 15 20
f 1 20 25
f 1 25 28
f 1 28 26
f 1 26 22
f 1 22 21
f 1 21 16
f 1 16 12
f 1 12 8
f 1 8 4
f 1 4 7
f 1 7 2
f 2 5 6
f 2 6 3
f 2 7 9
f 2 9 13
f 2 13 17
f 2 17 23
f 2 23 27
f 2 27 29
f 2 29 24
f 2 24 19
f 2 19 14
f 2 14 10
f 2 10 5
f 4 8 9
f 4 9 7
f 5 10 6
f 6 10 11
f 8 12 18
f 8 18 13
f 8 13 9
f 10 14 11
f 11 14 15
f 12 16 17
f 12 17 18
f 13 18 17
f 14 19 15
f 15 19 20
f 16 21 17
f 17 21 22
f 17 22 23
f 19 24 25
f 19 25 20
f 22 26 27
f 22 27 23
f 24 28 25
f 24 29 28
f 26 28 29
f 26 29 27