# https://github.com/mikedh/trimesh
v -0.12790580 -0.11110790 -0.01475624 0.19607844 0.03137254 1.85882352
v -0.13184168 -0.11110790 -0.01135352 0.19607844 0.03137254 1.85882352
v -0.12196180 -0.12569294 -0.01475624 0.19607844 0.03137254 1.85882352
v -0.14062706 -0.11110790 -0.01475624 0.19607844 0.03137254 1.85882352
v -0.12894004 -0.12569294 -0.01135352 0.19607844 0.03137254 1.85882352
v -0.14062706 -0.11110790 -0.01135352 0.19607844 0.03137254 1.85882352
v -0.14062706 -0.12569294 -0.01475624 0.19607844 0.03137254 1.85882352
v -0.14062706 -0.12569294 -0.01135352 0.19607844 0.03137254 1.85882352
f 1 2 3
f 1 3 7
f 1 7 4
f 1 4 6
f 1 6 2
f 2 5 3
f 2 6 8
f 2 8 5
f 3 5 8
f 3 8 7
f 4 7 8
f 4 8 6