# https://github.com/mikedh/trimesh
v 0.14100554 0.12607160 0.00847956 0.25882352 0.10980392 0.59607844
v 0.12624686 0.12607160 0.00847956 0.25882352 0.10980392 0.59607844
v 0.14100554 0.11284630 0.00847956 0.25882352 0.10980392 0.59607844
v 0.14100554 0.12607160 -0.00391060 0.25882352 0.10980392 0.59607844
v 0.13232216 0.11284630 0.00847956 0.25882352 0.10980392 0.59607844
v 0.12613036 0.12607160 0.00812366 0.25882352 0.10980392 0.59607844
v 0.14100554 0.11179994 -0.00391060 0.25882352 0.10980392 0.59607844
v 0.14100554 0.12488138 -0.00925240 0.25882352 0.10980392 0.59607844
v 0.12866708 0.12607160 -0.00391060 0.25882352 0.10980392 0.59607844
v 0.13229304 0.11284630 0.00837886 0.25882352 0.10980392 0.59607844
v 0.13326578 0.11179994 -0.00391060 0.25882352 0.10980392 0.59607844
v 0.13181686 0.11284630 0.00270720 0.25882352 0.10980392 0.59607844
v 0.13184016 0.11284630 0.00450922 0.25882352 0.10980392 0.59607844
v 0.13222168 0.11284630 0.00812366 0.25882352 0.10980392 0.59607844
v 0.12712786 0.12488138 -0.00925240 0.25882352 0.10980392 0.59607844
v 0.13240954 0.11179994 -0.00925240 0.25882352 0.10980392 0.59607844
v 0.14100554 0.11179994 -0.00925240 0.25882352 0.10980392 0.59607844
f 1 2 5
f 1 5 3
f 1 3 7
f 1 7 17
f 1 17 8
f 1 8 4
f 1 4 9
f 1 9 6
f 1 6 2
f 2 6 5
f 3 5 11
f 3 11 7
f 4 8 15
f 4 15 9
f 5 10 11
f 5 6 10
f 6 12 13
f 6 13 14
f 6 14 10
f 6 9 15
f 6 15 16
f 6 16 12
f 7 11 16
f 7 16 17
f 8 17 16
f 8 16 15
f 10 14 11
f 11 14 16
f 12 16 13
f 13 16 14