# https://github.com/mikedh/trimesh
v -0.10891096 -0.14141020 0.03404290 1.89803922 1.37254902 0.42352942
v -0.13270668 -0.13270962 0.03422582 1.89803922 1.37254902 0.42352942
v -0.12187688 -0.13812492 0.03414552 1.89803922 1.37254902 0.42352942
v -0.12729026 -0.13812492 0.03418120 1.89803922 1.37254902 0.42352942
v -0.10906006 -0.14155724 0.03404290 1.89803922 1.37254902 0.42352942
v -0.10891096 -0.14155724 0.03403398 1.89803922 1.37254902 0.42352942
v -0.10891096 -0.13812492 0.03389568 1.89803922 1.37254902 0.42352942
v -0.13263060 -0.13017632 0.03390906 1.89803922 1.37254902 0.42352942
v -0.13818092 -0.13017632 0.03381982 1.89803922 1.37254902 0.42352942
v -0.13823264 -0.13277646 0.03349414 1.89803922 1.37254902 0.42352942
v -0.13277362 -0.13823076 0.03349860 1.89803922 1.37254902 0.42352942
v -0.11646046 -0.14155724 0.03394028 1.89803922 1.37254902 0.42352942
v -0.12729026 -0.14155724 0.03355214 1.89803922 1.37254902 0.42352942
v -0.10891096 -0.14155724 -0.01135320 1.89803922 1.37254902 0.42352942
v -0.10891096 -0.13673016 0.03355660 1.89803922 1.37254902 0.42352942
v -0.10891096 -0.13484188 0.03303460 1.89803922 1.37254902 0.42352942
v -0.12820922 -0.13017632 0.03323982 1.89803922 1.37254902 0.42352942
v -0.13928246 -0.13017632 0.03361460 1.89803922 1.37254902 0.42352942
v -0.13999450 -0.13195320 0.03326660 1.89803922 1.37254902 0.42352942
v -0.13649818 -0.13649510 0.03307476 1.89803922 1.37254902 0.42352942
v -0.13122476 -0.14155724 0.03307030 1.89803922 1.37254902 0.42352942
v -0.13057664 -0.14155724 0.03315060 1.89803922 1.37254902 0.42352942
v -0.13583482 -0.14155724 -0.01135320 1.89803922 1.37254902 0.42352942
v -0.10891096 -0.13218492 -0.01135320 1.89803922 1.37254902 0.42352942
v -0.10891096 -0.13438736 0.03169614 1.89803922 1.37254902 0.42352942
v -0.10891096 -0.13401860 0.02979106 1.89803922 1.37254902 0.42352942
v -0.12579618 -0.13017632 0.02979106 1.89803922 1.37254902 0.42352942
v -0.13999450 -0.13017632 0.03348076 1.89803922 1.37254902 0.42352942
v -0.13999450 -0.13287450 0.03245014 1.89803922 1.37254902 0.42352942
v -0.13388430 -0.14155724 0.03008998 1.89803922 1.37254902 0.42352942
v -0.13295620 -0.14155724 0.03152660 1.89803922 1.37254902 0.42352942
v -0.13881080 -0.13774726 -0.01135320 1.89803922 1.37254902 0.42352942
v -0.13524144 -0.14155724 0.02437476 1.89803922 1.37254902 0.42352942
v -0.12441470 -0.13017632 -0.01135320 1.89803922 1.37254902 0.42352942
v -0.12300886 -0.13017632 -0.00838628 1.89803922 1.37254902 0.42352942
v -0.12076316 -0.13017632 -0.00360798 1.89803922 1.37254902 0.42352942
v -0.12036150 -0.13017632 -0.00270674 1.89803922 1.37254902 0.42352942
v -0.10891096 -0.13149644 0.00270956 1.89803922 1.37254902 0.42352942
v -0.10891096 -0.13333460 0.02437476 1.89803922 1.37254902 0.42352942
v -0.12045280 -0.13017632 0.01895400 1.89803922 1.37254902 0.42352942
v -0.13999450 -0.13017632 -0.01135320 1.89803922 1.37254902 0.42352942
v -0.13999450 -0.13461238 0.02979106 1.89803922 1.37254902 0.42352942
v -0.13999450 -0.13589352 -0.01135320 1.89803922 1.37254902 0.42352942
v -0.13999450 -0.13524628 0.02437476 1.89803922 1.37254902 0.42352942
v -0.10891096 -0.13283996 0.01895400 1.89803922 1.37254902 0.42352942
f 1 2 3
f 1 3 4
f 1 4 5
f 1 5 6
f 1 6 14
f 1 14 24
f 1 24 38
f 1 38 45
f 1 45 39
f 1 39 26
f 1 26 25
f 1 25 16
f 1 16 15
f 1 15 7
f 1 7 2
f 2 4 3
f 2 7 8
f 2 8 9
f 2 9 10
f 2 10 11
f 2 11 4
f 4 12 5
f 4 11 13
f 4 13 12
f 5 12 13
f 5 13 22
f 5 22 21
f 5 21 31
f 5 31 30
f 5 30 33
f 5 33 23
f 5 23 14
f 5 14 6
f 7 15 8
f 8 15 16
f 8 16 17
f 8 17 27
f 8 27 40
f 8 40 37
f 8 37 36
f 8 36 35
f 8 35 34
f 8 34 41
f 8 41 28
f 8 28 18
f 8 18 9
f 9 18 19
f 9 19 10
f 10 19 20
f 10 20 11
f 11 20 21
f 11 21 22
f 11 22 13
f 14 23 32
f 14 32 43
f 14 43 41
f 14 41 34
f 14 34 24
f 16 25 17
f 17 25 26
f 17 26 27
f 18 28 19
f 19 28 41
f 19 41 43
f 19 43 44
f 19 44 42
f 19 42 29
f 19 29 20
f 20 29 30
f 20 30 31
f 20 31 21
f 23 33 32
f 24 34 35
f 24 35 36
f 24 36 37
f 24 37 38
f 26 39 27
f 27 39 40
f 29 42 30
f 30 42 33
f 32 33 44
f 32 44 43
f 33 42 44
f 37 40 38
f 38 40 45
f 39 45 40