# https://github.com/mikedh/trimesh
v 0.12756120 -0.14169682 -0.00809328 1.28627450 0.84705882 1.20784314
v 0.12756120 -0.12719532 -0.00809328 1.28627450 0.84705882 1.20784314
v 0.13542364 -0.14169682 -0.00809328 1.28627450 0.84705882 1.20784314
v 0.12756120 -0.14169682 0.03349676 1.28627450 0.84705882 1.20784314
v 0.13295632 -0.11229374 -0.00809328 1.28627450 0.84705882 1.20784314
v 0.12756120 -0.12411830 0.00271020 1.28627450 0.84705882 1.20784314
v 0.13183138 -0.11229374 0.00271020 1.28627450 0.84705882 1.20784314
v 0.14127382 -0.13500448 -0.00809328 1.28627450 0.84705882 1.20784314
v 0.13542364 -0.14169682 0.01895682 1.28627450 0.84705882 1.20784314
v 0.12866332 -0.14169682 0.03336420 1.28627450 0.84705882 1.20784314
v 0.12756120 -0.13813044 0.03414712 1.28627450 0.84705882 1.20784314
v 0.14127382 -0.11229374 -0.00809328 1.28627450 0.84705882 1.20784314
v 0.13205958 -0.11229374 0.00687748 1.28627450 0.84705882 1.20784314
v 0.12756120 -0.12844168 0.02978928 1.28627450 0.84705882 1.20784314
v 0.14127382 -0.13500448 0.01895682 1.28627450 0.84705882 1.20784314
v 0.14127382 -0.13497570 0.02437512 1.28627450 0.84705882 1.20784314
v 0.13539008 -0.14169682 0.02437512 1.28627450 0.84705882 1.20784314
v 0.13277642 -0.13822832 0.03350090 1.28627450 0.84705882 1.20784314
v 0.13115884 -0.14169682 0.03305352 1.28627450 0.84705882 1.20784314
v 0.12756120 -0.13785700 0.03418440 1.28627450 0.84705882 1.20784314
v 0.14127382 -0.11229374 0.03395656 1.28627450 0.84705882 1.20784314
v 0.13436314 -0.11229374 0.02978928 1.28627450 0.84705882 1.20784314
v 0.12756120 -0.12948368 0.03188950 1.28627450 0.84705882 1.20784314
v 0.13481286 -0.11229374 0.03219604 1.28627450 0.84705882 1.20784314
v 0.14127382 -0.13402006 0.03003368 1.28627450 0.84705882 1.20784314
v 0.13382350 -0.14169682 0.03011654 1.28627450 0.84705882 1.20784314
v 0.13823328 -0.13277370 0.03349676 1.28627450 0.84705882 1.20784314
v 0.13270930 -0.13270750 0.03422582 1.28627450 0.84705882 1.20784314
v 0.13650024 -0.13649264 0.03307424 1.28627450 0.84705882 1.20784314
v 0.13812454 -0.12187600 0.03414298 1.28627450 0.84705882 1.20784314
v 0.13812454 -0.11229374 0.03381158 1.28627450 0.84705882 1.20784314
v 0.12756120 -0.13255496 0.03358790 1.28627450 0.84705882 1.20784314
v 0.14127382 -0.11330982 0.03397728 1.28627450 0.84705882 1.20784314
v 0.13499004 -0.11229374 0.03294582 1.28627450 0.84705882 1.20784314
v 0.12756120 -0.13160218 0.03341390 1.28627450 0.84705882 1.20784314
v 0.14127382 -0.13135464 0.03310322 1.28627450 0.84705882 1.20784314
v 0.14127382 -0.12916130 0.03337662 1.28627450 0.84705882 1.20784314
v 0.13812454 -0.12729032 0.03417612 1.28627450 0.84705882 1.20784314
v 0.14127382 -0.11872702 0.03404356 1.28627450 0.84705882 1.20784314
v 0.13737550 -0.11229374 0.03360860 1.28627450 0.84705882 1.20784314
v 0.12756120 -0.13211168 0.03353404 1.28627450 0.84705882 1.20784314
v 0.14127382 -0.12729032 0.03360032 1.28627450 0.84705882 1.20784314
v 0.14127382 -0.12448098 0.03374944 1.28627450 0.84705882 1.20784314
f 1 2 5
f 1 5 12
f 1 12 8
f 1 8 3
f 1 3 9
f 1 9 17
f 1 17 26
f 1 26 19
f 1 19 10
f 1 10 4
f 1 4 11
f 1 11 20
f 1 20 32
f 1 32 41
f 1 41 35
f 1 35 23
f 1 23 14
f 1 14 6
f 1 6 2
f 2 6 7
f 2 7 5
f 3 8 15
f 3 15 9
f 4 10 11
f 5 7 13
f 5 13 22
f 5 22 24
f 5 24 34
f 5 34 40
f 5 40 31
f 5 31 21
f 5 21 12
f 6 13 7
f 6 14 13
f 8 12 21
f 8 21 33
f 8 33 39
f 8 39 43
f 8 43 42
f 8 42 37
f 8 37 36
f 8 36 25
f 8 25 16
f 8 16 15
f 9 15 16
f 9 16 17
f 10 18 11
f 10 19 18
f 11 18 20
f 13 14 22
f 14 23 24
f 14 24 22
f 16 25 17
f 17 25 26
f 18 27 28
f 18 28 20
f 18 19 29
f 18 29 27
f 19 26 29
f 20 28 30
f 20 30 31
f 20 31 32
f 21 31 30
f 21 30 33
f 23 34 24
f 23 35 34
f 25 36 29
f 25 29 26
f 27 29 36
f 27 36 37
f 27 37 38
f 27 38 28
f 28 38 30
f 30 39 33
f 30 38 39
f 31 40 41
f 31 41 32
f 34 35 41
f 34 41 40
f 37 42 38
f 38 43 39
f 38 42 43