# https://github.com/mikedh/trimesh
v -0.07788302 -0.13381842 -0.01475624 1.63921568 0.18823530 1.67058824
v -0.08325692 -0.13381842 -0.01135352 1.63921568 0.18823530 1.67058824
v -0.07778002 -0.14636102 -0.01135352 1.63921568 0.18823530 1.67058824
v -0.07778002 -0.14033300 -0.01475624 1.63921568 0.18823530 1.67058824
v -0.16547918 -0.13381842 -0.01475624 1.63921568 0.18823530 1.67058824
v -0.16547918 -0.13381842 -0.01135352 1.63921568 0.18823530 1.67058824
v -0.07778002 -0.16548018 -0.01135352 1.63921568 0.18823530 1.67058824
v -0.07778002 -0.16548018 -0.01475624 1.63921568 0.18823530 1.67058824
v -0.16547918 -0.15978998 -0.01475624 1.63921568 0.18823530 1.67058824
v -0.16547918 -0.15978998 -0.01135352 1.63921568 0.18823530 1.67058824
v -0.15437084 -0.16548018 -0.01135352 1.63921568 0.18823530 1.67058824
v -0.15437084 -0.16548018 -0.01475624 1.63921568 0.18823530 1.67058824
v -0.16514438 -0.16073216 -0.01475624 1.63921568 0.18823530 1.67058824
v -0.16398546 -0.16398946 -0.01135352 1.63921568 0.18823530 1.67058824
v -0.15978766 -0.16547708 -0.01135352 1.63921568 0.18823530 1.67058824
v -0.15978766 -0.16547708 -0.01475624 1.63921568 0.18823530 1.67058824
v -0.16398546 -0.16398946 -0.01475624 1.63921568 0.18823530 1.67058824
v -0.16073196 -0.16514546 -0.01475624 1.63921568 0.18823530 1.67058824
f 1 2 3
f 1 3 4
f 1 4 8
f 1 8 12
f 1 12 16
f 1 16 18
f 1 18 17
f 1 17 13
f 1 13 9
f 1 9 5
f 1 5 6
f 1 6 2
f 2 6 10
f 2 10 14
f 2 14 15
f 2 15 11
f 2 11 7
f 2 7 3
f 3 7 8
f 3 8 4
f 5 9 10
f 5 10 6
f 7 11 12
f 7 12 8
f 9 13 10
f 10 13 14
f 11 15 16
f 11 16 12
f 13 17 14
f 14 17 18
f 14 18 15
f 15 18 16