# https://github.com/mikedh/trimesh
v 0.07859530 0.16547778 -0.01118144 0.63529412 1.33333334 0.25882352
v 0.07859530 0.14655996 -0.01118144 0.63529412 1.33333334 0.25882352
v 0.07859530 0.16547778 -0.01461312 0.63529412 1.33333334 0.25882352
v 0.02979556 0.16547778 -0.01118144 0.63529412 1.33333334 0.25882352
v 0.07855682 0.14655996 -0.01118144 0.63529412 1.33333334 0.25882352
v 0.07859530 0.14093866 -0.01450026 0.63529412 1.33333334 0.25882352
v 0.07859530 0.14093866 -0.01461312 0.63529412 1.33333334 0.25882352
v 0.02979556 0.16547778 -0.01461312 0.63529412 1.33333334 0.25882352
v -0.00002608 0.16301788 -0.01461312 0.63529412 1.33333334 0.25882352
v -0.00002608 0.16297942 -0.01118144 0.63529412 1.33333334 0.25882352
v -0.00002608 0.14656236 -0.01118144 0.63529412 1.33333334 0.25882352
v 0.07644044 0.14093866 -0.01461312 0.63529412 1.33333334 0.25882352
v -0.00002608 0.14101312 -0.01461312 0.63529412 1.33333334 0.25882352
f 1 2 6
f 1 6 7
f 1 7 3
f 1 3 8
f 1 8 4
f 1 4 10
f 1 10 11
f 1 11 5
f 1 5 2
f 2 5 6
f 3 7 12
f 3 12 13
f 3 13 9
f 3 9 8
f 4 8 9
f 4 9 10
f 5 11 6
f 6 12 7
f 6 11 13
f 6 13 12
f 9 13 11
f 9 11 10