# https://github.com/mikedh/trimesh
v -0.15437714 0.00002656 0.03422918 0.52549020 1.54509804 0.90980392
v -0.14993594 0.00002656 0.03336358 0.52549020 1.54509804 0.90980392
v -0.15979162 0.00002656 0.03422918 0.52549020 1.54509804 0.90980392
v -0.15437714 -0.08342998 0.03422918 0.52549020 1.54509804 0.90980392
v -0.14990278 -0.08342998 0.03336358 0.52549020 1.54509804 0.90980392
v -0.14761294 0.00002656 0.02978964 0.52549020 1.54509804 0.90980392
v -0.14723064 -0.08342998 0.02944160 0.52549020 1.54509804 0.90980392
v -0.16166992 0.00002656 0.03380084 0.52549020 1.54509804 0.90980392
v -0.16321664 -0.08342998 0.03344836 0.52549020 1.54509804 0.90980392
v -0.15979162 -0.08342998 0.03422918 0.52549020 1.54509804 0.90980392
v -0.14731452 0.00002656 0.02705452 0.52549020 1.54509804 0.90980392
v -0.14664940 -0.08342998 0.02437294 0.52549020 1.54509804 0.90980392
v -0.16358722 0.00002656 0.03336358 0.52549020 1.54509804 0.90980392
v -0.16358722 -0.08342998 0.03336358 0.52549020 1.54509804 0.90980392
v -0.14702194 0.00002656 0.02437294 0.52549020 1.54509804 0.90980392
v -0.14555324 -0.08342998 -0.01135320 0.52549020 1.54509804 0.90980392
v -0.16507544 0.00002656 0.02978964 0.52549020 1.54509804 0.90980392
v -0.16493110 -0.08342998 0.03013766 0.52549020 1.54509804 0.90980392
v -0.14635878 0.00002656 -0.01135320 0.52549020 1.54509804 0.90980392
v -0.16547724 -0.08342998 -0.01135320 0.52549020 1.54509804 0.90980392
v -0.16297868 0.00002656 -0.01135320 0.52549020 1.54509804 0.90980392
v -0.16547724 -0.02979918 -0.01135320 0.52549020 1.54509804 0.90980392
v -0.16547724 -0.02979918 0.02437294 0.52549020 1.54509804 0.90980392
v -0.16543822 -0.08342998 0.02490390 0.52549020 1.54509804 0.90980392
v -0.16507544 -0.08342998 0.02978964 0.52549020 1.54509804 0.90980392
v -0.16547724 -0.08342998 0.02437294 0.52549020 1.54509804 0.90980392
f 1 2 6
f 1 6 11
f 1 11 15
f 1 15 19
f 1 19 21
f 1 21 17
f 1 17 13
f 1 13 8
f 1 8 3
f 1 3 10
f 1 10 4
f 1 4 5
f 1 5 2
f 2 5 7
f 2 7 6
f 3 8 9
f 3 9 10
f 4 10 9
f 4 9 14
f 4 14 18
f 4 18 25
f 4 25 24
f 4 24 26
f 4 26 20
f 4 20 16
f 4 16 12
f 4 12 7
f 4 7 5
f 6 7 12
f 6 12 11
f 8 13 9
f 9 13 14
f 11 12 15
f 12 16 15
f 13 17 18
f 13 18 14
f 15 16 19
f 16 20 22
f 16 22 21
f 16 21 19
f 17 21 22
f 17 22 23
f 17 23 24
f 17 24 25
f 17 25 18
f 20 26 23
f 20 23 22
f 23 26 24