# https://github.com/mikedh/trimesh
v -0.00002608 -0.16297648 -0.00808914 1.55294118 1.73333334 1.95294118
v -0.00002608 -0.16507560 0.02978814 1.55294118 1.73333334 1.95294118
v -0.00002608 -0.14694548 -0.00808914 1.55294118 1.73333334 1.95294118
v 0.02979722 -0.16547838 -0.00808914 1.55294118 1.73333334 1.95294118
v -0.00002608 -0.16433900 0.03155710 1.55294118 1.73333334 1.95294118
v 0.02979722 -0.16547838 0.02437356 1.55294118 1.73333334 1.95294118
v 0.07851862 -0.16507742 0.02976744 1.55294118 1.73333334 1.95294118
v 0.07851862 -0.16507560 0.02978814 1.55294118 1.73333334 1.95294118
v -0.00002608 -0.14702350 0.02437356 1.55294118 1.73333334 1.95294118
v 0.07851862 -0.14694548 -0.00808914 1.55294118 1.73333334 1.95294118
v 0.07851862 -0.16547838 -0.00808914 1.55294118 1.73333334 1.95294118
v -0.00002608 -0.16358608 0.03336334 1.55294118 1.73333334 1.95294118
v 0.07851862 -0.16359332 0.03334678 1.55294118 1.73333334 1.95294118
v 0.07851862 -0.16547838 0.02437356 1.55294118 1.73333334 1.95294118
v -0.00002608 -0.14732104 0.02710778 1.55294118 1.73333334 1.95294118
v 0.07851862 -0.14702530 0.02439842 1.55294118 1.73333334 1.95294118
v 0.07851862 -0.14702350 0.02437356 1.55294118 1.73333334 1.95294118
v -0.00002608 -0.15979242 0.03422918 1.55294118 1.73333334 1.95294118
v 0.07312136 -0.16358608 0.03336334 1.55294118 1.73333334 1.95294118
v 0.07851862 -0.15979242 0.03422918 1.55294118 1.73333334 1.95294118
v -0.00002608 -0.14761314 0.02978814 1.55294118 1.73333334 1.95294118
v 0.07851862 -0.14761314 0.02978814 1.55294118 1.73333334 1.95294118
v -0.00002608 -0.15437678 0.03422918 1.55294118 1.73333334 1.95294118
v 0.07851862 -0.15437678 0.03422918 1.55294118 1.73333334 1.95294118
v -0.00002608 -0.14878516 0.03159440 1.55294118 1.73333334 1.95294118
v 0.07851862 -0.14993542 0.03336334 1.55294118 1.73333334 1.95294118
v -0.00002608 -0.14993542 0.03336334 1.55294118 1.73333334 1.95294118
v 0.07851862 -0.14995538 0.03336750 1.55294118 1.73333334 1.95294118
f 1 2 5
f 1 5 12
f 1 12 18
f 1 18 23
f 1 23 27
f 1 27 25
f 1 25 21
f 1 21 15
f 1 15 9
f 1 9 3
f 1 3 10
f 1 10 11
f 1 11 4
f 1 4 2
f 2 4 6
f 2 6 7
f 2 7 8
f 2 8 5
f 3 9 17
f 3 17 10
f 4 11 14
f 4 14 6
f 5 8 13
f 5 13 12
f 6 14 7
f 7 14 11
f 7 11 10
f 7 10 17
f 7 17 16
f 7 16 22
f 7 22 26
f 7 26 28
f 7 28 24
f 7 24 20
f 7 20 13
f 7 13 8
f 9 15 16
f 9 16 17
f 12 13 19
f 12 19 20
f 12 20 18
f 13 20 19
f 15 21 16
f 16 21 22
f 18 20 24
f 18 24 23
f 21 25 22
f 22 25 26
f 23 24 28
f 23 28 27
f 25 27 26
f 26 27 28