# https://github.com/mikedh/trimesh
v 0.11198778 -0.10267164 -0.01551338 0.98039216 0.44705882 0.50196078
v 0.12262744 -0.11089796 -0.01551338 0.98039216 0.44705882 0.50196078
v 0.13106498 -0.11089796 -0.01150670 0.98039216 0.44705882 0.50196078
v 0.11198778 -0.09501424 -0.01150670 0.98039216 0.44705882 0.50196078
v 0.11198778 -0.06847908 -0.01551338 0.98039216 0.44705882 0.50196078
v 0.13867182 -0.11089796 -0.01551338 0.98039216 0.44705882 0.50196078
v 0.13867182 -0.11089796 -0.01150670 0.98039216 0.44705882 0.50196078
v 0.11198778 -0.07656004 -0.01150670 0.98039216 0.44705882 0.50196078
v 0.11568932 -0.06848324 -0.01551338 0.98039216 0.44705882 0.50196078
v 0.13867182 -0.07330856 -0.01551338 0.98039216 0.44705882 0.50196078
v 0.13867182 -0.08660106 -0.01150670 0.98039216 0.44705882 0.50196078
v 0.11606810 -0.07664310 -0.01150670 0.98039216 0.44705882 0.50196078
v 0.12101830 -0.06857044 -0.01551338 0.98039216 0.44705882 0.50196078
v 0.12586662 -0.06913518 -0.01551338 0.98039216 0.44705882 0.50196078
v 0.12621666 -0.07859068 -0.01150670 0.98039216 0.44705882 0.50196078
v 0.12746792 -0.07903500 -0.01150670 0.98039216 0.44705882 0.50196078
v 0.12814448 -0.07935476 -0.01150670 0.98039216 0.44705882 0.50196078
v 0.13608570 -0.08400982 -0.01150670 0.98039216 0.44705882 0.50196078
v 0.13725338 -0.08486942 -0.01150670 0.98039216 0.44705882 0.50196078
v 0.13818594 -0.08570824 -0.01150670 0.98039216 0.44705882 0.50196078
v 0.11645994 -0.07665556 -0.01150670 0.98039216 0.44705882 0.50196078
v 0.12080148 -0.07715802 -0.01150670 0.98039216 0.44705882 0.50196078
v 0.12187772 -0.07736150 -0.01150670 0.98039216 0.44705882 0.50196078
f 1 2 3
f 1 3 4
f 1 4 8
f 1 8 5
f 1 5 9
f 1 9 13
f 1 13 14
f 1 14 10
f 1 10 6
f 1 6 2
f 2 6 7
f 2 7 3
f 3 7 11
f 3 11 20
f 3 20 19
f 3 19 18
f 3 18 17
f 3 17 16
f 3 16 15
f 3 15 23
f 3 23 22
f 3 22 21
f 3 21 12
f 3 12 8
f 3 8 4
f 5 8 9
f 6 10 11
f 6 11 7
f 8 12 13
f 8 13 9
f 10 14 15
f 10 15 16
f 10 16 17
f 10 17 18
f 10 18 19
f 10 19 20
f 10 20 11
f 12 21 13
f 13 21 22
f 13 22 14
f 14 22 23
f 14 23 15