# https://github.com/mikedh/trimesh
v -0.16547918 0.02979396 -0.02437526 0.87058824 1.78039216 1.92156862
v -0.16507428 0.00002656 -0.02979048 0.87058824 1.78039216 1.92156862
v -0.16547918 0.02979396 -0.01572070 0.87058824 1.78039216 1.92156862
v -0.16547918 0.15977936 -0.02437526 0.87058824 1.78039216 1.92156862
v -0.16358430 0.00002656 -0.03336318 0.87058824 1.78039216 1.92156862
v -0.16441026 0.00002656 -0.02437526 0.87058824 1.78039216 1.92156862
v -0.16507428 0.15977936 -0.02979048 0.87058824 1.78039216 1.92156862
v -0.16304986 0.00002656 -0.01572070 0.87058824 1.78039216 1.92156862
v -0.16547918 0.15977936 -0.01572070 0.87058824 1.78039216 1.92156862
v -0.16398918 0.16399020 -0.02437526 0.87058824 1.78039216 1.92156862
v -0.16377866 0.16377964 -0.02979048 0.87058824 1.78039216 1.92156862
v -0.16170562 0.00002656 -0.03379256 0.87058824 1.78039216 1.92156862
v -0.16358430 0.15977936 -0.03336318 0.87058824 1.78039216 1.92156862
v -0.16321180 0.16321282 -0.03307512 0.87058824 1.78039216 1.92156862
v -0.13815740 0.00002656 -0.01572070 0.87058824 1.78039216 1.92156862
v -0.16398918 0.16399020 -0.01572070 0.87058824 1.78039216 1.92156862
v -0.16228866 0.16458942 -0.01572070 0.87058824 1.78039216 1.92156862
v -0.15977836 0.16546398 -0.02437526 0.87058824 1.78039216 1.92156862
v -0.15977836 0.16507530 -0.02979048 0.87058824 1.78039216 1.92156862
v -0.15977836 0.00002656 -0.03422918 0.87058824 1.78039216 1.92156862
v -0.15977836 0.15977936 -0.03422918 0.87058824 1.78039216 1.92156862
v -0.15977836 0.16358530 -0.03336318 0.87058824 1.78039216 1.92156862
v -0.00002608 0.00002656 -0.01577142 0.87058824 1.78039216 1.92156862
v -0.00002608 0.13815832 -0.01572070 0.87058824 1.78039216 1.92156862
v -0.15977836 0.16546398 -0.01572070 0.87058824 1.78039216 1.92156862
v -0.15436908 0.16548018 -0.02437526 0.87058824 1.78039216 1.92156862
v -0.00002608 0.16507530 -0.02979048 0.87058824 1.78039216 1.92156862
v -0.00004226 0.00002656 -0.03422918 0.87058824 1.78039216 1.92156862
v -0.00002608 0.16170662 -0.03379256 0.87058824 1.78039216 1.92156862
v -0.00002608 0.15977936 -0.03422918 0.87058824 1.78039216 1.92156862
v -0.00002608 0.16358530 -0.03336318 0.87058824 1.78039216 1.92156862
v -0.00002608 0.00271502 -0.03422918 0.87058824 1.78039216 1.92156862
v -0.00002608 0.16305084 -0.01572070 0.87058824 1.78039216 1.92156862
v -0.15436908 0.16548018 -0.01572070 0.87058824 1.78039216 1.92156862
v -0.02979338 0.16548018 -0.02437526 0.87058824 1.78039216 1.92156862
v -0.02979338 0.16548018 -0.01572070 0.87058824 1.78039216 1.92156862
v -0.00002608 0.16441128 -0.02437526 0.87058824 1.78039216 1.92156862
f 1 2 3
f 1 3 9
f 1 9 4
f 1 4 7
f 1 7 2
f 2 5 12
f 2 12 20
f 2 20 28
f 2 28 23
f 2 23 15
f 2 15 8
f 2 8 6
f 2 6 3
f 2 7 13
f 2 13 5
f 3 6 8
f 3 8 15
f 3 15 24
f 3 24 33
f 3 33 36
f 3 36 34
f 3 34 25
f 3 25 17
f 3 17 16
f 3 16 9
f 4 9 16
f 4 16 10
f 4 10 11
f 4 11 7
f 5 13 12
f 7 11 14
f 7 14 13
f 10 16 17
f 10 17 18
f 10 18 11
f 11 18 19
f 11 19 14
f 12 13 21
f 12 21 20
f 13 14 21
f 14 19 22
f 14 22 21
f 15 23 24
f 17 25 18
f 18 25 34
f 18 34 26
f 18 26 19
f 19 26 35
f 19 35 27
f 19 27 31
f 19 31 22
f 20 21 30
f 20 30 32
f 20 32 28
f 21 22 29
f 21 29 30
f 22 31 29
f 23 28 32
f 23 32 30
f 23 30 29
f 23 29 31
f 23 31 27
f 23 27 37
f 23 37 33
f 23 33 24
f 26 34 36
f 26 36 35
f 27 35 36
f 27 36 37
f 33 37 36