# https://github.com/mikedh/trimesh
v 0.12931278 0.08130626 -0.00925414 0.51764706 0.74509804 1.16862746
v 0.12961274 0.08144656 -0.00925414 0.51764706 0.74509804 1.16862746
v 0.12955320 0.08147940 -0.00391172 0.51764706 0.74509804 1.16862746
v 0.12931278 0.08136894 -0.00391172 0.51764706 0.74509804 1.16862746
v 0.12931278 0.10059952 -0.00925414 0.51764706 0.74509804 1.16862746
v 0.13270944 0.08323468 -0.00925414 0.51764706 0.74509804 1.16862746
v 0.14100586 0.08833638 -0.00925414 0.51764706 0.74509804 1.16862746
v 0.14100586 0.08853340 -0.00391172 0.51764706 0.74509804 1.16862746
v 0.12931278 0.10061146 -0.00391172 0.51764706 0.74509804 1.16862746
v 0.12931278 0.10088908 -0.00527400 0.51764706 0.74509804 1.16862746
v 0.13240834 0.11179994 -0.00925414 0.51764706 0.74509804 1.16862746
v 0.14100586 0.11179994 -0.00925414 0.51764706 0.74509804 1.16862746
v 0.14100586 0.11179994 -0.00391172 0.51764706 0.74509804 1.16862746
v 0.13326466 0.11179994 -0.00391172 0.51764706 0.74509804 1.16862746
v 0.12931278 0.10084132 -0.00391434 0.51764706 0.74509804 1.16862746
f 1 2 3
f 1 3 4
f 1 4 9
f 1 9 15
f 1 15 10
f 1 10 5
f 1 5 11
f 1 11 12
f 1 12 7
f 1 7 6
f 1 6 2
f 2 6 3
f 3 6 7
f 3 7 8
f 3 8 13
f 3 13 14
f 3 14 9
f 3 9 4
f 5 10 11
f 7 12 13
f 7 13 8
f 9 14 15
f 10 15 11
f 11 14 13
f 11 13 12
f 11 15 14