# https://github.com/mikedh/trimesh
v 0.14592772 -0.13988976 -0.00808914 1.68627450 1.39607844 0.58823530
v 0.14127516 -0.13500590 -0.00808914 1.68627450 1.39607844 0.58823530
v 0.14592772 -0.11229374 -0.00808914 1.68627450 1.39607844 0.58823530
v 0.14592772 -0.13988976 0.01895670 1.68627450 1.39607844 0.58823530
v 0.14127516 -0.11229374 -0.00808914 1.68627450 1.39607844 0.58823530
v 0.14127516 -0.13500590 0.01895670 1.68627450 1.39607844 0.58823530
v 0.14592772 -0.11229374 0.03402022 1.68627450 1.39607844 0.58823530
v 0.14592772 -0.13987896 0.02309794 1.68627450 1.39607844 0.58823530
v 0.14127516 -0.11229374 0.03395422 1.68627450 1.39607844 0.58823530
v 0.14592772 -0.13987356 0.02437248 1.68627450 1.39607844 0.58823530
v 0.14127516 -0.13497618 0.02437248 1.68627450 1.39607844 0.58823530
v 0.14354292 -0.11229374 0.03402022 1.68627450 1.39607844 0.58823530
v 0.14127516 -0.11872814 0.03404084 1.68627450 1.39607844 0.58823530
v 0.14592772 -0.11407386 0.03399960 1.68627450 1.39607844 0.58823530
v 0.14127516 -0.11331212 0.03397484 1.68627450 1.39607844 0.58823530
v 0.14229130 -0.11229374 0.03400372 1.68627450 1.39607844 0.58823530
v 0.14592772 -0.13777198 0.02936340 1.68627450 1.39607844 0.58823530
v 0.14127516 -0.13401994 0.03003574 1.68627450 1.39607844 0.58823530
v 0.14127516 -0.12448180 0.03374800 1.68627450 1.39607844 0.58823530
v 0.14592772 -0.11645908 0.03397072 1.68627450 1.39607844 0.58823530
v 0.14592772 -0.13282058 0.03159076 1.68627450 1.39607844 0.58823530
v 0.14127516 -0.13135380 0.03310452 1.68627450 1.39607844 0.58823530
v 0.14127516 -0.12729110 0.03359950 1.68627450 1.39607844 0.58823530
v 0.14592772 -0.12212902 0.03338914 1.68627450 1.39607844 0.58823530
v 0.14200664 -0.13101344 0.03300966 1.68627450 1.39607844 0.58823530
v 0.14127516 -0.12916308 0.03337676 1.68627450 1.39607844 0.58823530
f 1 2 5
f 1 5 3
f 1 3 7
f 1 7 14
f 1 14 20
f 1 20 24
f 1 24 21
f 1 21 17
f 1 17 10
f 1 10 8
f 1 8 4
f 1 4 6
f 1 6 2
f 2 6 11
f 2 11 18
f 2 18 22
f 2 22 26
f 2 26 23
f 2 23 19
f 2 19 13
f 2 13 15
f 2 15 9
f 2 9 5
f 3 5 9
f 3 9 16
f 3 16 12
f 3 12 7
f 4 8 6
f 6 8 10
f 6 10 11
f 7 12 13
f 7 13 14
f 9 15 16
f 10 17 18
f 10 18 11
f 12 16 13
f 13 16 15
f 13 19 20
f 13 20 14
f 17 21 22
f 17 22 18
f 19 23 20
f 20 23 24
f 21 24 25
f 21 25 22
f 22 25 24
f 22 24 26
f 23 26 24