# https://github.com/mikedh/trimesh
v -0.07661388 -0.11354976 -0.01135320 0.40784314 0.84705882 0.74509804
v -0.07667684 -0.11645982 -0.01135320 0.40784314 0.84705882 0.74509804
v -0.09406218 -0.11354976 -0.01135320 0.40784314 0.84705882 0.74509804
v -0.07727288 -0.11354976 0.02437294 0.40784314 0.84705882 0.74509804
v -0.07741254 -0.12187540 -0.01135320 0.40784314 0.84705882 0.74509804
v -0.07737910 -0.11645982 0.02437294 0.40784314 0.84705882 0.74509804
v -0.09621616 -0.12341248 -0.01135320 0.40784314 0.84705882 0.74509804
v -0.09670794 -0.12341248 0.00271060 0.40784314 0.84705882 0.74509804
v -0.09325370 -0.11354976 0.00526278 0.40784314 0.84705882 0.74509804
v -0.07753056 -0.11354976 0.02688050 0.40784314 0.84705882 0.74509804
v -0.07793776 -0.12341248 -0.01135320 0.40784314 0.84705882 0.74509804
v -0.07844330 -0.12187540 0.02437294 0.40784314 0.84705882 0.74509804
v -0.07793776 -0.11645982 0.02978964 0.40784314 0.84705882 0.74509804
v -0.07882296 -0.12187540 0.02978964 0.40784314 0.84705882 0.74509804
v -0.09357826 -0.12341248 0.02978964 0.40784314 0.84705882 0.74509804
v -0.09302550 -0.11354976 0.00741340 0.40784314 0.84705882 0.74509804
v -0.07784726 -0.11354976 0.02978964 0.40784314 0.84705882 0.74509804
v -0.07899212 -0.12341248 0.02437294 0.40784314 0.84705882 0.74509804
v -0.07905310 -0.12341248 0.02611752 0.40784314 0.84705882 0.74509804
v -0.07956062 -0.12341248 0.03103004 0.40784314 0.84705882 0.74509804
v -0.07987340 -0.11645982 0.03336358 0.40784314 0.84705882 0.74509804
v -0.08022550 -0.12187540 0.03329220 0.40784314 0.84705882 0.74509804
v -0.08041828 -0.12341248 0.03316726 0.40784314 0.84705882 0.74509804
v -0.07931080 -0.12341248 0.02978964 0.40784314 0.84705882 0.74509804
v -0.09260652 -0.12341248 0.03289062 0.40784314 0.84705882 0.74509804
v -0.09029318 -0.11354976 0.02978964 0.40784314 0.84705882 0.74509804
v -0.07874428 -0.11354976 0.03144498 0.40784314 0.84705882 0.74509804
v -0.07983798 -0.11354976 0.03336358 0.40784314 0.84705882 0.74509804
v -0.08395908 -0.11645982 0.03422918 0.40784314 0.84705882 0.74509804
v -0.08395908 -0.12187540 0.03415334 0.40784314 0.84705882 0.74509804
v -0.08388826 -0.12341248 0.03397040 0.40784314 0.84705882 0.74509804
v -0.09252782 -0.12341248 0.03295310 0.40784314 0.84705882 0.74509804
v -0.08819034 -0.11354976 0.03336358 0.40784314 0.84705882 0.74509804
v -0.08920538 -0.11354976 0.03170824 0.40784314 0.84705882 0.74509804
v -0.08172838 -0.11354976 0.03376070 0.40784314 0.84705882 0.74509804
v -0.08395908 -0.11354976 0.03422918 0.40784314 0.84705882 0.74509804
v -0.08549738 -0.12341248 0.03414442 0.40784314 0.84705882 0.74509804
v -0.09100134 -0.12341248 0.03339928 0.40784314 0.84705882 0.74509804
v -0.08596356 -0.11354976 0.03382762 0.40784314 0.84705882 0.74509804
v -0.08952404 -0.12341248 0.03365360 0.40784314 0.84705882 0.74509804
f 1 2 5
f 1 5 11
f 1 11 7
f 1 7 3
f 1 3 9
f 1 9 16
f 1 16 26
f 1 26 34
f 1 34 33
f 1 33 39
f 1 39 36
f 1 36 35
f 1 35 28
f 1 28 27
f 1 27 17
f 1 17 10
f 1 10 4
f 1 4 2
f 2 4 6
f 2 6 5
f 3 7 8
f 3 8 9
f 4 10 6
f 5 6 12
f 5 12 11
f 6 10 13
f 6 13 14
f 6 14 12
f 7 11 18
f 7 18 19
f 7 19 24
f 7 24 20
f 7 20 23
f 7 23 31
f 7 31 37
f 7 37 40
f 7 40 38
f 7 38 32
f 7 32 25
f 7 25 15
f 7 15 8
f 8 15 16
f 8 16 9
f 10 17 13
f 11 12 18
f 12 14 19
f 12 19 18
f 13 20 14
f 13 17 21
f 13 21 22
f 13 22 23
f 13 23 20
f 14 20 24
f 14 24 19
f 15 25 26
f 15 26 16
f 17 27 21
f 21 28 29
f 21 29 30
f 21 30 22
f 21 27 28
f 22 30 31
f 22 31 23
f 25 32 33
f 25 33 34
f 25 34 26
f 28 35 29
f 29 36 37
f 29 37 30
f 29 35 36
f 30 37 31
f 32 38 33
f 33 38 39
f 36 39 38
f 36 38 40
f 36 40 37