# https://github.com/mikedh/trimesh
v 0.14100700 0.12291868 -0.00925414 0.14901960 1.03529412 0.61176470
v 0.14100700 0.10677836 -0.00925414 0.14901960 1.03529412 0.61176470
v 0.14100700 0.12291868 -0.01461260 0.14901960 1.03529412 0.61176470
v 0.12914922 0.12291868 -0.00925414 0.14901960 1.03529412 0.61176470
v 0.14100700 0.10677836 -0.01461260 0.14901960 1.03529412 0.61176470
v 0.13181496 0.10677836 -0.00925414 0.14901960 1.03529412 0.61176470
v 0.12099920 0.12291868 -0.01461260 0.14901960 1.03529412 0.61176470
v 0.12551980 0.10677836 -0.01461260 0.14901960 1.03529412 0.61176470
f 1 2 5
f 1 5 3
f 1 3 7
f 1 7 4
f 1 4 6
f 1 6 2
f 2 6 8
f 2 8 5
f 3 5 8
f 3 8 7
f 4 7 6
f 6 7 8