# https://github.com/mikedh/trimesh
v -0.13382546 0.07321880 -0.01572070 0.57254902 1.23137254 0.85490196
v -0.13187112 0.06854848 -0.01572070 0.57254902 1.23137254 0.85490196
v -0.13382546 0.08307788 -0.01135362 0.57254902 1.23137254 0.85490196
v -0.13382546 0.10884896 -0.01572070 0.57254902 1.23137254 0.85490196
v -0.12702966 0.06797374 -0.01572070 0.57254902 1.23137254 0.85490196
v -0.12060032 0.07716966 -0.01135362 0.57254902 1.23137254 0.85490196
v -0.12187730 0.07741484 -0.01135362 0.57254902 1.23137254 0.85490196
v -0.12601030 0.07858442 -0.01135362 0.57254902 1.23137254 0.85490196
v -0.12742276 0.07909084 -0.01135362 0.57254902 1.23137254 0.85490196
v -0.12819340 0.07945660 -0.01135362 0.57254902 1.23137254 0.85490196
v -0.13382546 0.10884896 -0.01135362 0.57254902 1.23137254 0.85490196
v -0.12213048 0.10884896 -0.01572070 0.57254902 1.23137254 0.85490196
v -0.12174628 0.06784110 -0.01572070 0.57254902 1.23137254 0.85490196
v -0.11582106 0.07666726 -0.01135362 0.57254902 1.23137254 0.85490196
v -0.11646066 0.07669138 -0.01135362 0.57254902 1.23137254 0.85490196
v -0.13161572 0.10884896 -0.01135362 0.57254902 1.23137254 0.85490196
v -0.11706916 0.10501466 -0.01572070 0.57254902 1.23137254 0.85490196
v -0.11637182 0.06779690 -0.01572070 0.57254902 1.23137254 0.85490196
v -0.11113950 0.07655874 -0.01136132 0.57254902 1.23137254 0.85490196
v -0.11113950 0.07976204 -0.01135362 0.57254902 1.23137254 0.85490196
v -0.11113950 0.10014740 -0.01572070 0.57254902 1.23137254 0.85490196
v -0.11113950 0.09142576 -0.01135362 0.57254902 1.23137254 0.85490196
v -0.11113950 0.06779288 -0.01572070 0.57254902 1.23137254 0.85490196
f 1 2 3
f 1 3 11
f 1 11 4
f 1 4 12
f 1 12 17
f 1 17 21
f 1 21 23
f 1 23 18
f 1 18 13
f 1 13 5
f 1 5 2
f 2 5 6
f 2 6 7
f 2 7 8
f 2 8 9
f 2 9 10
f 2 10 3
f 3 10 9
f 3 9 8
f 3 8 7
f 3 7 6
f 3 6 15
f 3 15 14
f 3 14 20
f 3 20 22
f 3 22 16
f 3 16 11
f 4 11 16
f 4 16 12
f 5 13 14
f 5 14 15
f 5 15 6
f 12 16 17
f 13 18 19
f 13 19 14
f 14 19 20
f 16 21 17
f 16 22 21
f 18 23 19
f 19 23 21
f 19 21 22
f 19 22 20