# https://github.com/mikedh/trimesh
v -0.15437606 0.08168976 0.03422918 0.17254902 0.03921568 1.66274510
v -0.15177606 0.08168976 0.03372500 0.17254902 0.03921568 1.66274510
v -0.15979212 0.08168976 0.03422918 0.17254902 0.03921568 1.66274510
v -0.15437606 0.00002656 0.03422918 0.17254902 0.03921568 1.66274510
v -0.14991510 0.08168976 0.03336358 0.17254902 0.03921568 1.66274510
v -0.16358602 0.08168976 0.03336358 0.17254902 0.03921568 1.66274510
v -0.16167012 0.00002656 0.03380084 0.17254902 0.03921568 1.66274510
v -0.15979212 0.00002656 0.03422918 0.17254902 0.03921568 1.66274510
v -0.14993596 0.00002656 0.03336358 0.17254902 0.03921568 1.66274510
v -0.14844076 0.08168976 0.03119958 0.17254902 0.03921568 1.66274510
v -0.16507552 0.08168976 0.02978964 0.17254902 0.03921568 1.66274510
v -0.16358602 0.00002656 0.03336358 0.17254902 0.03921568 1.66274510
v -0.14761262 0.00002656 0.02978964 0.17254902 0.03921568 1.66274510
v -0.14736816 0.08168976 0.02954870 0.17254902 0.03921568 1.66274510
v -0.16524420 0.08168976 0.02751854 0.17254902 0.03921568 1.66274510
v -0.16507552 0.00002656 0.02978964 0.17254902 0.03921568 1.66274510
v -0.14731320 0.00002656 0.02705452 0.17254902 0.03921568 1.66274510
v -0.14701378 0.08168976 0.02647000 0.17254902 0.03921568 1.66274510
v -0.16547728 0.08168976 0.02437294 0.17254902 0.03921568 1.66274510
v -0.16547728 0.02979494 0.02437294 0.17254902 0.03921568 1.66274510
v -0.16547728 0.02979494 -0.01135320 0.17254902 0.03921568 1.66274510
v -0.16297960 0.00002656 -0.01135320 0.17254902 0.03921568 1.66274510
v -0.14702136 0.00002656 0.02437294 0.17254902 0.03921568 1.66274510
v -0.14678638 0.08168976 0.02437294 0.17254902 0.03921568 1.66274510
v -0.16547728 0.08168976 -0.01135320 0.17254902 0.03921568 1.66274510
v -0.14635810 0.00002656 -0.01135320 0.17254902 0.03921568 1.66274510
v -0.14611932 0.08168976 -0.01135320 0.17254902 0.03921568 1.66274510
f 1 2 5
f 1 5 10
f 1 10 14
f 1 14 18
f 1 18 24
f 1 24 27
f 1 27 25
f 1 25 19
f 1 19 15
f 1 15 11
f 1 11 6
f 1 6 3
f 1 3 8
f 1 8 4
f 1 4 2
f 2 4 5
f 3 6 7
f 3 7 8
f 4 8 7
f 4 7 12
f 4 12 16
f 4 16 22
f 4 22 26
f 4 26 23
f 4 23 17
f 4 17 13
f 4 13 9
f 4 9 5
f 5 9 10
f 6 11 16
f 6 16 12
f 6 12 7
f 9 13 10
f 10 13 14
f 11 15 16
f 13 17 18
f 13 18 14
f 15 19 20
f 15 20 16
f 16 20 21
f 16 21 22
f 17 23 18
f 18 23 24
f 19 25 21
f 19 21 20
f 21 25 27
f 21 27 26
f 21 26 22
f 23 26 27
f 23 27 24