# https://github.com/mikedh/trimesh
v -0.11202072 0.07657652 -0.01135320 1.30196078 0.86274510 1.78823530
v -0.11582068 0.07666626 -0.01135320 1.30196078 0.86274510 1.78823530
v -0.11202072 0.09147438 -0.01135320 1.30196078 0.86274510 1.78823530
v -0.11202072 0.07721970 0.02437294 1.30196078 0.86274510 1.78823530
v -0.11645960 0.07668870 -0.01135320 1.30196078 0.86274510 1.78823530
v -0.12837994 0.10051130 -0.01135320 1.30196078 0.86274510 1.78823530
v -0.12837994 0.10196220 -0.00440608 1.30196078 0.86274510 1.78823530
v -0.11202072 0.09302998 -0.00237146 1.30196078 0.86274510 1.78823530
v -0.11202072 0.07780304 0.02978964 1.30196078 0.86274510 1.78823530
v -0.11645960 0.07795014 0.02978964 1.30196078 0.86274510 1.78823530
v -0.11645960 0.07738922 0.02437294 1.30196078 0.86274510 1.78823530
v -0.12059906 0.07716984 -0.01135320 1.30196078 0.86274510 1.78823530
v -0.12837994 0.07969022 -0.01135320 1.30196078 0.86274510 1.78823530
v -0.12837994 0.10204198 -0.00258118 1.30196078 0.86274510 1.78823530
v -0.11202072 0.09301500 -0.00139432 1.30196078 0.86274510 1.78823530
v -0.11202072 0.07981984 0.03336358 1.30196078 0.86274510 1.78823530
v -0.11645960 0.07988216 0.03336358 1.30196078 0.86274510 1.78823530
v -0.12187532 0.08022868 0.03328774 1.30196078 0.86274510 1.78823530
v -0.12582742 0.08072478 0.03297540 1.30196078 0.86274510 1.78823530
v -0.12187532 0.07882266 0.02978964 1.30196078 0.86274510 1.78823530
v -0.12187532 0.07844124 0.02437294 1.30196078 0.86274510 1.78823530
v -0.12187532 0.07741166 -0.01135320 1.30196078 0.86274510 1.78823530
v -0.12819418 0.07945338 -0.01135320 1.30196078 0.86274510 1.78823530
v -0.12837994 0.08093420 0.02437294 1.30196078 0.86274510 1.78823530
v -0.12837994 0.10171540 0.01791662 1.30196078 0.86274510 1.78823530
v -0.11202072 0.09294022 0.00283998 1.30196078 0.86274510 1.78823530
v -0.11202072 0.08396062 0.03422918 1.30196078 0.86274510 1.78823530
v -0.11645960 0.08396062 0.03422918 1.30196078 0.86274510 1.78823530
v -0.12187532 0.08396062 0.03415334 1.30196078 0.86274510 1.78823530
v -0.12749600 0.08370136 0.03347514 1.30196078 0.86274510 1.78823530
v -0.12837994 0.08400052 0.03340820 1.30196078 0.86274510 1.78823530
v -0.12837994 0.08122088 0.02978964 1.30196078 0.86274510 1.78823530
v -0.12664570 0.08034088 0.02978964 1.30196078 0.86274510 1.78823530
v -0.12601156 0.07858334 -0.01135320 1.30196078 0.86274510 1.78823530
v -0.12742394 0.07908942 -0.01135320 1.30196078 0.86274510 1.78823530
v -0.12837994 0.09749734 0.02978964 1.30196078 0.86274510 1.78823530
v -0.11202072 0.09022540 0.02978964 1.30196078 0.86274510 1.78823530
v -0.11202072 0.09183834 0.02327978 1.30196078 0.86274510 1.78823530
v -0.11202072 0.09241422 0.01895624 1.30196078 0.86274510 1.78823530
v -0.12837994 0.09460552 0.03337250 1.30196078 0.86274510 1.78823530
v -0.12729104 0.08937530 0.03412210 1.30196078 0.86274510 1.78823530
v -0.11202072 0.08815626 0.03336358 1.30196078 0.86274510 1.78823530
v -0.12837994 0.08937530 0.03409086 1.30196078 0.86274510 1.78823530
v -0.12837994 0.09582706 0.03307802 1.30196078 0.86274510 1.78823530
f 1 2 5
f 1 5 12
f 1 12 22
f 1 22 34
f 1 34 35
f 1 35 23
f 1 23 13
f 1 13 6
f 1 6 3
f 1 3 8
f 1 8 15
f 1 15 26
f 1 26 39
f 1 39 38
f 1 38 37
f 1 37 42
f 1 42 27
f 1 27 16
f 1 16 9
f 1 9 4
f 1 4 2
f 2 4 5
f 3 6 7
f 3 7 8
f 4 9 10
f 4 10 11
f 4 11 5
f 5 11 12
f 6 13 24
f 6 24 32
f 6 32 31
f 6 31 43
f 6 43 40
f 6 40 44
f 6 44 36
f 6 36 25
f 6 25 14
f 6 14 7
f 7 14 8
f 8 14 15
f 9 16 17
f 9 17 10
f 10 17 18
f 10 18 19
f 10 19 20
f 10 20 11
f 11 20 21
f 11 21 22
f 11 22 12
f 13 23 24
f 14 25 15
f 15 25 26
f 16 27 28
f 16 28 17
f 17 28 29
f 17 29 18
f 18 29 19
f 19 29 30
f 19 30 31
f 19 31 32
f 19 32 33
f 19 33 20
f 20 33 21
f 21 33 34
f 21 34 22
f 23 35 24
f 24 33 32
f 24 35 33
f 25 36 37
f 25 37 38
f 25 38 39
f 25 39 26
f 27 40 41
f 27 41 28
f 27 42 40
f 28 41 29
f 29 41 43
f 29 43 30
f 30 43 31
f 33 35 34
f 36 44 37
f 37 44 42
f 40 43 41
f 40 42 44