# https://github.com/mikedh/trimesh
v -0.12837994 0.07969174 -0.01135320 1.83529412 1.42745098 1.99215686
v -0.13592108 0.08400564 -0.01135320 1.83529412 1.42745098 1.99215686
v -0.12837994 0.10051294 -0.01135320 1.83529412 1.42745098 1.99215686
v -0.12837994 0.08093302 0.02437218 1.83529412 1.42745098 1.99215686
v -0.12955266 0.08147630 0.02437218 1.83529412 1.42745098 1.99215686
v -0.14170510 0.08799574 -0.01135320 1.83529412 1.42745098 1.99215686
v -0.14170510 0.08853904 0.02437218 1.83529412 1.42745098 1.99215686
v -0.13147284 0.11644456 -0.01135320 1.83529412 1.42745098 1.99215686
v -0.12837994 0.10195932 -0.00440622 1.83529412 1.42745098 1.99215686
v -0.12837994 0.08122086 0.02978876 1.83529412 1.42745098 1.99215686
v -0.12935568 0.08171736 0.02978876 1.83529412 1.42745098 1.99215686
v -0.14170510 0.08866136 0.02634874 1.83529412 1.42745098 1.99215686
v -0.14170510 0.11644456 -0.01135320 1.83529412 1.42745098 1.99215686
v -0.12837994 0.10204206 -0.00258136 1.83529412 1.42745098 1.99215686
v -0.13133848 0.11644456 0.01353900 1.83529412 1.42745098 1.99215686
v -0.12837994 0.08400204 0.03341172 1.83529412 1.42745098 1.99215686
v -0.13270948 0.08548080 0.03309492 1.83529412 1.42745098 1.99215686
v -0.13569410 0.08641986 0.03271568 1.83529412 1.42745098 1.99215686
v -0.14170510 0.08951768 0.02974860 1.83529412 1.42745098 1.99215686
v -0.14170510 0.11644456 0.03394266 1.83529412 1.42745098 1.99215686
v -0.12837994 0.10171464 0.01791600 1.83529412 1.42745098 1.99215686
v -0.13411960 0.11644456 0.02978876 1.83529412 1.42745098 1.99215686
v -0.12837994 0.09582844 0.03307708 1.83529412 1.42745098 1.99215686
v -0.12837994 0.09750148 0.02978876 1.83529412 1.42745098 1.99215686
v -0.12837994 0.08937736 0.03408990 1.83529412 1.42745098 1.99215686
v -0.13270948 0.08937736 0.03396052 1.83529412 1.42745098 1.99215686
v -0.14120940 0.09196786 0.03258628 1.83529412 1.42745098 1.99215686
v -0.14170510 0.09156490 0.03201518 1.83529412 1.42745098 1.99215686
v -0.14170510 0.08990986 0.03083282 1.83529412 1.42745098 1.99215686
v -0.13774994 0.08984868 0.03302800 1.83529412 1.42745098 1.99215686
v -0.14170510 0.11287542 0.03398728 1.83529412 1.42745098 1.99215686
v -0.13812564 0.10020712 0.03422822 1.83529412 1.42745098 1.99215686
v -0.13813476 0.11644456 0.03388912 1.83529412 1.42745098 1.99215686
v -0.13488142 0.11644456 0.03302354 1.83529412 1.42745098 1.99215686
v -0.12837994 0.09460874 0.03337602 1.83529412 1.42745098 1.99215686
v -0.13812564 0.09479584 0.03386236 1.83529412 1.42745098 1.99215686
v -0.14170510 0.09365170 0.03283168 1.83529412 1.42745098 1.99215686
v -0.14170510 0.09479584 0.03306816 1.83529412 1.42745098 1.99215686
v -0.14170510 0.10562560 0.03388466 1.83529412 1.42745098 1.99215686
v -0.14170510 0.10032226 0.03362588 1.83529412 1.42745098 1.99215686
f 1 2 6
f 1 6 13
f 1 13 8
f 1 8 3
f 1 3 9
f 1 9 14
f 1 14 21
f 1 21 24
f 1 24 23
f 1 23 35
f 1 35 25
f 1 25 16
f 1 16 10
f 1 10 4
f 1 4 5
f 1 5 2
f 2 5 7
f 2 7 6
f 3 8 9
f 4 10 5
f 5 10 11
f 5 11 12
f 5 12 7
f 6 7 12
f 6 12 19
f 6 19 29
f 6 29 28
f 6 28 37
f 6 37 38
f 6 38 40
f 6 40 39
f 6 39 31
f 6 31 20
f 6 20 13
f 8 14 9
f 8 13 20
f 8 20 33
f 8 33 34
f 8 34 22
f 8 22 15
f 8 15 14
f 10 16 17
f 10 17 18
f 10 18 11
f 11 18 12
f 12 18 19
f 14 15 21
f 15 22 23
f 15 23 24
f 15 24 21
f 16 25 26
f 16 26 17
f 17 26 18
f 18 27 28
f 18 28 29
f 18 29 19
f 18 26 30
f 18 30 27
f 20 31 32
f 20 32 33
f 22 34 23
f 23 34 35
f 25 33 32
f 25 32 26
f 25 35 34
f 25 34 33
f 26 32 36
f 26 36 30
f 27 30 37
f 27 37 28
f 30 36 38
f 30 38 37
f 31 39 32
f 32 39 40
f 32 40 36
f 36 40 38