# https://github.com/mikedh/trimesh
v 0.13270924 0.13270752 0.03422582 0.63529412 0.76078432 1.17647058
v 0.13822546 0.13276392 0.03349754 0.63529412 0.76078432 1.17647058
v 0.13276722 0.13822596 0.03349502 0.63529412 0.76078432 1.17647058
v 0.12840680 0.13814418 0.03403934 0.63529412 0.76078432 1.17647058
v 0.13812554 0.11213114 0.03380750 0.63529412 0.76078432 1.17647058
v 0.13812554 0.12187650 0.03414518 0.63529412 0.76078432 1.17647058
v 0.13812554 0.12729060 0.03417794 0.63529412 0.76078432 1.17647058
v 0.13648622 0.13648612 0.03307418 0.63529412 0.76078432 1.17647058
v 0.14100700 0.12729060 0.03364874 0.63529412 0.76078432 1.17647058
v 0.14100700 0.13146398 0.03313718 0.63529412 0.76078432 1.17647058
v 0.13149794 0.14093864 0.03314474 0.63529412 0.76078432 1.17647058
v 0.12840680 0.14093864 0.03352274 0.63529412 0.76078432 1.17647058
v 0.12840680 0.13258062 0.03369158 0.63529412 0.76078432 1.17647058
v 0.13499368 0.11213114 0.03294314 0.63529412 0.76078432 1.17647058
v 0.14100700 0.11213114 0.03390830 0.63529412 0.76078432 1.17647058
v 0.14100700 0.11645958 0.03393350 0.63529412 0.76078432 1.17647058
v 0.14100700 0.13291620 0.03184944 0.63529412 0.76078432 1.17647058
v 0.13291400 0.14093864 0.03188976 0.63529412 0.76078432 1.17647058
v 0.12840680 0.14093864 0.00848130 0.63529412 0.76078432 1.17647058
v 0.12840680 0.12974952 0.03318506 0.63529412 0.76078432 1.17647058
v 0.13437324 0.11213114 0.02979058 0.63529412 0.76078432 1.17647058
v 0.12840680 0.12839880 0.03137820 0.63529412 0.76078432 1.17647058
v 0.14100700 0.11213114 0.00848130 0.63529412 0.76078432 1.17647058
v 0.14100700 0.13411180 0.02998464 0.63529412 0.76078432 1.17647058
v 0.13414628 0.14093864 0.02997204 0.63529412 0.76078432 1.17647058
v 0.13497024 0.14093864 0.00848130 0.63529412 0.76078432 1.17647058
v 0.12840680 0.12343306 0.00848130 0.63529412 0.76078432 1.17647058
v 0.13240950 0.11213114 0.00848130 0.63529412 0.76078432 1.17647058
v 0.12840680 0.12759514 0.02979058 0.63529412 0.76078432 1.17647058
v 0.14100700 0.13496904 0.00848130 0.63529412 0.76078432 1.17647058
v 0.14100700 0.13485906 0.02564264 0.63529412 0.76078432 1.17647058
v 0.13484442 0.14093864 0.02590976 0.63529412 0.76078432 1.17647058
v 0.13497272 0.14093864 0.01895954 0.63529412 0.76078432 1.17647058
v 0.14100700 0.13496904 0.01895954 0.63529412 0.76078432 1.17647058
v 0.14100700 0.13494930 0.02437506 0.63529412 0.76078432 1.17647058
v 0.13495298 0.14093864 0.02437506 0.63529412 0.76078432 1.17647058
f 1 2 3
f 1 3 4
f 1 4 5
f 1 5 6
f 1 6 7
f 1 7 2
f 2 8 3
f 2 7 9
f 2 9 10
f 2 10 8
f 3 8 11
f 3 11 12
f 3 12 4
f 4 12 19
f 4 19 27
f 4 27 29
f 4 29 22
f 4 22 20
f 4 20 13
f 4 13 5
f 5 14 21
f 5 21 28
f 5 28 23
f 5 23 15
f 5 15 6
f 5 13 14
f 6 15 7
f 7 15 16
f 7 16 9
f 8 10 17
f 8 17 18
f 8 18 11
f 9 16 15
f 9 15 23
f 9 23 30
f 9 30 34
f 9 34 35
f 9 35 31
f 9 31 24
f 9 24 17
f 9 17 10
f 11 18 25
f 11 25 32
f 11 32 36
f 11 36 33
f 11 33 26
f 11 26 19
f 11 19 12
f 13 20 14
f 14 20 22
f 14 22 21
f 17 24 18
f 18 24 25
f 19 26 30
f 19 30 23
f 19 23 28
f 19 28 27
f 21 22 29
f 21 29 28
f 24 31 25
f 25 31 32
f 26 33 30
f 27 28 29
f 30 33 34
f 31 35 32
f 32 35 36
f 33 36 34
f 34 36 35