# https://github.com/mikedh/trimesh
v 0.14100700 0.14093688 -0.01210516 0.36078432 1.57647058 0.10980392
v 0.14100700 0.14093688 -0.01461260 0.36078432 1.57647058 0.10980392
v 0.13502506 0.14093688 -0.00925414 0.36078432 1.57647058 0.10980392
v 0.14100700 0.13502306 -0.00925414 0.36078432 1.57647058 0.10980392
v 0.14100700 0.12292024 -0.01461260 0.36078432 1.57647058 0.10980392
v 0.11139878 0.14093688 -0.01461260 0.36078432 1.57647058 0.10980392
v 0.11139878 0.14093688 -0.00925414 0.36078432 1.57647058 0.10980392
v 0.14100700 0.12292024 -0.00925414 0.36078432 1.57647058 0.10980392
v 0.12099768 0.12292024 -0.01461260 0.36078432 1.57647058 0.10980392
v 0.11139878 0.12543182 -0.01461260 0.36078432 1.57647058 0.10980392
v 0.11139878 0.13135800 -0.00925414 0.36078432 1.57647058 0.10980392
v 0.12914748 0.12292024 -0.00925414 0.36078432 1.57647058 0.10980392
v 0.11805600 0.12360812 -0.01461260 0.36078432 1.57647058 0.10980392
f 1 2 6
f 1 6 7
f 1 7 3
f 1 3 4
f 1 4 8
f 1 8 5
f 1 5 2
f 2 5 9
f 2 9 13
f 2 13 10
f 2 10 6
f 3 7 11
f 3 11 12
f 3 12 8
f 3 8 4
f 5 8 12
f 5 12 9
f 6 10 11
f 6 11 7
f 9 12 13
f 10 13 12
f 10 12 11