# https://github.com/mikedh/trimesh
v 0.11818228 -0.14169860 0.03402156 0.13333334 1.38823530 0.90196078
v 0.11818228 -0.14056172 0.03400918 0.13333334 1.38823530 0.90196078
v 0.10562594 -0.13812504 0.03405044 0.13333334 1.38823530 0.90196078
v 0.11288498 -0.14169860 0.03398856 0.13333334 1.38823530 0.90196078
v 0.11818228 -0.14169860 -0.00808914 0.13333334 1.38823530 0.90196078
v 0.11818228 -0.13812504 0.03397618 0.13333334 1.38823530 0.90196078
v 0.11818228 -0.13686244 0.03369978 0.13333334 1.38823530 0.90196078
v 0.10561858 -0.13457884 0.03318412 0.13333334 1.38823530 0.90196078
v 0.10561858 -0.13813380 0.03404630 0.13333334 1.38823530 0.90196078
v 0.10561858 -0.14169860 0.03388130 0.13333334 1.38823530 0.90196078
v 0.10561858 -0.14169860 -0.00808914 0.13333334 1.38823530 0.90196078
v 0.11818228 -0.13277838 -0.00808914 0.13333334 1.38823530 0.90196078
v 0.11818228 -0.13464770 0.03310988 0.13333334 1.38823530 0.90196078
v 0.11818228 -0.13411314 0.03200018 0.13333334 1.38823530 0.90196078
v 0.10561858 -0.13340696 0.02978904 0.13333334 1.38823530 0.90196078
v 0.10561858 -0.13180000 -0.00808914 0.13333334 1.38823530 0.90196078
v 0.10563332 -0.13171036 -0.00808914 0.13333334 1.38823530 0.90196078
v 0.11818228 -0.13185686 -0.00443004 0.13333334 1.38823530 0.90196078
v 0.11818228 -0.13358296 0.02978904 0.13333334 1.38823530 0.90196078
v 0.10561858 -0.13067186 0.01932736 0.13333334 1.38823530 0.90196078
v 0.10561858 -0.13170928 -0.00807678 0.13333334 1.38823530 0.90196078
v 0.10561858 -0.13065110 -0.00332034 0.13333334 1.38823530 0.90196078
v 0.10561858 -0.13053194 -0.00270568 0.13333334 1.38823530 0.90196078
v 0.11818228 -0.13154640 -0.00281294 0.13333334 1.38823530 0.90196078
v 0.11818228 -0.13292596 0.02437256 0.13333334 1.38823530 0.90196078
v 0.11818228 -0.13100310 0.00271080 0.13333334 1.38823530 0.90196078
f 1 2 3
f 1 3 4
f 1 4 10
f 1 10 11
f 1 11 5
f 1 5 12
f 1 12 18
f 1 18 24
f 1 24 26
f 1 26 25
f 1 25 19
f 1 19 14
f 1 14 13
f 1 13 7
f 1 7 6
f 1 6 2
f 2 6 3
f 3 6 7
f 3 7 8
f 3 8 9
f 3 9 10
f 3 10 4
f 5 11 16
f 5 16 17
f 5 17 12
f 7 13 8
f 8 13 14
f 8 14 15
f 8 15 20
f 8 20 23
f 8 23 22
f 8 22 21
f 8 21 16
f 8 16 11
f 8 11 10
f 8 10 9
f 12 17 18
f 14 19 20
f 14 20 15
f 16 21 17
f 17 21 22
f 17 22 18
f 18 22 23
f 18 23 24
f 19 25 20
f 20 25 26
f 20 26 23
f 23 26 24