# https://github.com/mikedh/trimesh
v -0.11070696 -0.07097658 -0.01475624 0.32156862 1.23921568 1.15294118
v -0.10889350 -0.07098418 -0.01475624 0.32156862 1.23921568 1.15294118
v -0.11070696 -0.09924506 -0.01475624 0.32156862 1.23921568 1.15294118
v -0.11070696 -0.07658996 -0.01135352 0.32156862 1.23921568 1.15294118
v -0.10659356 -0.07689040 -0.01135352 0.32156862 1.23921568 1.15294118
v -0.10562458 -0.07700450 -0.01135352 0.32156862 1.23921568 1.15294118
v -0.10181084 -0.07764722 -0.01135352 0.32156862 1.23921568 1.15294118
v -0.10455050 -0.07205286 -0.01475624 0.32156862 1.23921568 1.15294118
v -0.09934356 -0.10982532 -0.01475624 0.32156862 1.23921568 1.15294118
v -0.11070696 -0.09498178 -0.01135352 0.32156862 1.23921568 1.15294118
v -0.10020750 -0.07809600 -0.01135352 0.32156862 1.23921568 1.15294118
v -0.09157210 -0.07537296 -0.01475624 0.32156862 1.23921568 1.15294118
v -0.09451412 -0.10982532 -0.01135352 0.32156862 1.23921568 1.15294118
v -0.07095454 -0.10982532 -0.01475624 0.32156862 1.23921568 1.15294118
v -0.09689186 -0.07905818 -0.01135352 0.32156862 1.23921568 1.15294118
v -0.09465034 -0.08016488 -0.01135352 0.32156862 1.23921568 1.15294118
v -0.08944730 -0.08421520 -0.01135352 0.32156862 1.23921568 1.15294118
v -0.08557518 -0.08019910 -0.01475624 0.32156862 1.23921568 1.15294118
v -0.09562712 -0.07958300 -0.01135352 0.32156862 1.23921568 1.15294118
v -0.07664402 -0.10982532 -0.01135352 0.32156862 1.23921568 1.15294118
v -0.07095842 -0.10887074 -0.01475624 0.32156862 1.23921568 1.15294118
v -0.08871568 -0.08485792 -0.01135352 0.32156862 1.23921568 1.15294118
v -0.08485912 -0.08871426 -0.01135352 0.32156862 1.23921568 1.15294118
v -0.08020092 -0.08557670 -0.01475624 0.32156862 1.23921568 1.15294118
v -0.07688528 -0.10659648 -0.01135352 0.32156862 1.23921568 1.15294118
v -0.07205974 -0.10455422 -0.01475624 0.32156862 1.23921568 1.15294118
v -0.07764414 -0.10181598 -0.01135352 0.32156862 1.23921568 1.15294118
v -0.07700204 -0.10562288 -0.01135352 0.32156862 1.23921568 1.15294118
v -0.08421702 -0.08944826 -0.01135352 0.32156862 1.23921568 1.15294118
v -0.07537924 -0.09157800 -0.01475624 0.32156862 1.23921568 1.15294118
v -0.07809556 -0.10020726 -0.01135352 0.32156862 1.23921568 1.15294118
v -0.08016978 -0.09464712 -0.01135352 0.32156862 1.23921568 1.15294118
v -0.07958216 -0.09562832 -0.01135352 0.32156862 1.23921568 1.15294118
v -0.07905678 -0.09689856 -0.01135352 0.32156862 1.23921568 1.15294118
f 1 2 8
f 1 8 12
f 1 12 18
f 1 18 24
f 1 24 30
f 1 30 26
f 1 26 21
f 1 21 14
f 1 14 9
f 1 9 3
f 1 3 10
f 1 10 4
f 1 4 2
f 2 4 5
f 2 5 6
f 2 6 7
f 2 7 8
f 3 9 10
f 4 10 13
f 4 13 20
f 4 20 25
f 4 25 28
f 4 28 27
f 4 27 31
f 4 31 34
f 4 34 33
f 4 33 32
f 4 32 29
f 4 29 23
f 4 23 22
f 4 22 17
f 4 17 16
f 4 16 19
f 4 19 15
f 4 15 11
f 4 11 7
f 4 7 6
f 4 6 5
f 7 11 12
f 7 12 8
f 9 13 10
f 9 14 20
f 9 20 13
f 11 15 12
f 12 16 17
f 12 17 18
f 12 15 19
f 12 19 16
f 14 21 20
f 17 22 18
f 18 22 23
f 18 23 24
f 20 21 25
f 21 26 27
f 21 27 28
f 21 28 25
f 23 29 24
f 24 29 30
f 26 30 27
f 27 30 31
f 29 32 30
f 30 32 33
f 30 33 34
f 30 34 31