# https://github.com/mikedh/trimesh
v -0.00002608 -0.16507516 -0.02979022 1.12941176 1.85098040 0.14117648
v 0.15977658 -0.16507516 -0.02979022 1.12941176 1.85098040 0.14117648
v 0.02979922 -0.16548018 -0.02437664 1.12941176 1.85098040 0.14117648
v 0.02979922 -0.16548018 -0.01551338 1.12941176 1.85098040 0.14117648
v -0.00002608 -0.16475116 -0.02710816 1.12941176 1.85098040 0.14117648
v -0.00002608 -0.16358468 -0.03336448 1.12941176 1.85098040 0.14117648
v 0.15977658 -0.16546396 -0.02437664 1.12941176 1.85098040 0.14117648
v 0.15436558 -0.16548018 -0.02437664 1.12941176 1.85098040 0.14117648
v 0.15977658 -0.16358468 -0.03336448 1.12941176 1.85098040 0.14117648
v 0.16321108 -0.16321208 -0.03307502 1.12941176 1.85098040 0.14117648
v 0.16377812 -0.16377910 -0.02979022 1.12941176 1.85098040 0.14117648
v -0.00002608 -0.16441092 -0.02437664 1.12941176 1.85098040 0.14117648
v 0.15436558 -0.16548018 -0.01551338 1.12941176 1.85098040 0.14117648
v -0.00002608 -0.16305006 -0.01551338 1.12941176 1.85098040 0.14117648
v -0.00002608 -0.15977752 -0.03422918 1.12941176 1.85098040 0.14117648
v 0.15977658 -0.16546396 -0.01551338 1.12941176 1.85098040 0.14117648
v 0.16398872 -0.16398970 -0.02437664 1.12941176 1.85098040 0.14117648
v 0.15977658 -0.15977752 -0.03422918 1.12941176 1.85098040 0.14117648
v 0.16358370 -0.15977752 -0.03336448 1.12941176 1.85098040 0.14117648
v 0.16507418 -0.15977752 -0.02979022 1.12941176 1.85098040 0.14117648
v 0.16547918 -0.15977752 -0.02437664 1.12941176 1.85098040 0.14117648
v -0.00002608 -0.13870036 -0.01551338 1.12941176 1.85098040 0.14117648
v -0.00002608 0.00001036 -0.03422918 1.12941176 1.85098040 0.14117648
v 0.16398872 -0.16398970 -0.01551338 1.12941176 1.85098040 0.14117648
v 0.15977658 0.00002656 -0.03422918 1.12941176 1.85098040 0.14117648
v 0.16358370 0.00002656 -0.03336448 1.12941176 1.85098040 0.14117648
v 0.16507418 0.00002656 -0.02979022 1.12941176 1.85098040 0.14117648
v 0.16547918 -0.15977752 -0.01551338 1.12941176 1.85098040 0.14117648
v 0.16547918 -0.02979900 -0.02437664 1.12941176 1.85098040 0.14117648
v 0.13869960 0.00002656 -0.01551338 1.12941176 1.85098040 0.14117648
v -0.00002608 0.00002656 -0.01577170 1.12941176 1.85098040 0.14117648
v -0.00000986 0.00002656 -0.03422918 1.12941176 1.85098040 0.14117648
v 0.16475016 0.00002656 -0.02711000 1.12941176 1.85098040 0.14117648
v 0.16547918 -0.02979900 -0.01551338 1.12941176 1.85098040 0.14117648
v 0.16304908 0.00002656 -0.01551338 1.12941176 1.85098040 0.14117648
v 0.16440994 0.00002656 -0.02437664 1.12941176 1.85098040 0.14117648
f 1 2 8
f 1 8 3
f 1 3 4
f 1 4 5
f 1 5 12
f 1 12 14
f 1 14 22
f 1 22 31
f 1 31 23
f 1 23 15
f 1 15 6
f 1 6 9
f 1 9 2
f 2 7 8
f 2 9 10
f 2 10 11
f 2 11 7
f 3 8 13
f 3 13 4
f 4 12 5
f 4 13 16
f 4 16 24
f 4 24 28
f 4 28 34
f 4 34 35
f 4 35 30
f 4 30 22
f 4 22 14
f 4 14 12
f 6 15 18
f 6 18 9
f 7 16 13
f 7 13 8
f 7 11 17
f 7 17 24
f 7 24 16
f 9 18 10
f 10 18 19
f 10 19 20
f 10 20 11
f 11 20 21
f 11 21 17
f 15 23 32
f 15 32 25
f 15 25 18
f 17 21 28
f 17 28 24
f 18 25 26
f 18 26 19
f 19 26 27
f 19 27 20
f 20 27 29
f 20 29 21
f 21 29 34
f 21 34 28
f 22 30 31
f 23 31 32
f 25 32 31
f 25 31 30
f 25 30 35
f 25 35 36
f 25 36 33
f 25 33 27
f 25 27 26
f 27 33 34
f 27 34 29
f 33 36 34
f 34 36 35