# https://github.com/mikedh/trimesh
v -0.11202072 0.14423384 0.03402506 1.70980392 0.01568628 0.71372550
v -0.11646078 0.14423384 0.03396706 1.70980392 0.01568628 0.71372550
v -0.12729072 0.13812478 0.03417674 1.70980392 0.01568628 0.71372550
v -0.12187720 0.13812478 0.03414552 1.70980392 0.01568628 0.71372550
v -0.11202072 0.14354248 0.03402506 1.70980392 0.01568628 0.71372550
v -0.11202072 0.14423384 -0.01135320 1.70980392 0.01568628 0.71372550
v -0.12210966 0.14423384 0.03339152 1.70980392 0.01568628 0.71372550
v -0.12729072 0.14283090 0.03331122 1.70980392 0.01568628 0.71372550
v -0.13270712 0.13270978 0.03422582 1.70980392 0.01568628 0.71372550
v -0.13276524 0.13822586 0.03349414 1.70980392 0.01568628 0.71372550
v -0.13495040 0.13046724 0.03420352 1.70980392 0.01568628 0.71372550
v -0.11202072 0.13812478 0.03381536 1.70980392 0.01568628 0.71372550
v -0.11202072 0.14256406 0.03401168 1.70980392 0.01568628 0.71372550
v -0.11202072 0.13065052 -0.01135320 1.70980392 0.01568628 0.71372550
v -0.13918416 0.14423384 -0.01135320 1.70980392 0.01568628 0.71372550
v -0.12729072 0.14423384 0.03278028 1.70980392 0.01568628 0.71372550
v -0.13099850 0.14200208 0.03300782 1.70980392 0.01568628 0.71372550
v -0.13822524 0.13276774 0.03349414 1.70980392 0.01568628 0.71372550
v -0.13818166 0.13046724 0.03378414 1.70980392 0.01568628 0.71372550
v -0.13648468 0.13648868 0.03307476 1.70980392 0.01568628 0.71372550
v -0.13264030 0.13046724 0.03394476 1.70980392 0.01568628 0.71372550
v -0.11202072 0.13498736 0.03295428 1.70980392 0.01568628 0.71372550
v -0.11202072 0.13753854 0.03365922 1.70980392 0.01568628 0.71372550
v -0.11682110 0.13046724 -0.01135320 1.70980392 0.01568628 0.71372550
v -0.11202072 0.13171654 0.00812586 1.70980392 0.01568628 0.71372550
v -0.12052600 0.13046724 0.01353770 1.70980392 0.01568628 0.71372550
v -0.14170348 0.13604530 -0.01135320 1.70980392 0.01568628 0.71372550
v -0.14170348 0.13535798 0.02437476 1.70980392 0.01568628 0.71372550
v -0.13802184 0.14423384 0.02437476 1.70980392 0.01568628 0.71372550
v -0.12865934 0.14423384 0.03254828 1.70980392 0.01568628 0.71372550
v -0.13296866 0.14423384 0.03081722 1.70980392 0.01568628 0.71372550
v -0.13968686 0.13046724 0.03350752 1.70980392 0.01568628 0.71372550
v -0.14170348 0.13113972 0.03304798 1.70980392 0.01568628 0.71372550
v -0.12920564 0.13046724 0.03353428 1.70980392 0.01568628 0.71372550
v -0.11202072 0.13484856 0.03236536 1.70980392 0.01568628 0.71372550
v -0.12807818 0.13046724 0.03327552 1.70980392 0.01568628 0.71372550
v -0.14170348 0.13046724 -0.01135320 1.70980392 0.01568628 0.71372550
v -0.11202072 0.13435936 0.02979106 1.70980392 0.01568628 0.71372550
v -0.12550654 0.13046724 0.02979106 1.70980392 0.01568628 0.71372550
v -0.14170348 0.13380006 0.03011676 1.70980392 0.01568628 0.71372550
v -0.13756854 0.14423384 0.02554814 1.70980392 0.01568628 0.71372550
v -0.13545020 0.14423384 0.02930030 1.70980392 0.01568628 0.71372550
v -0.14170348 0.13046724 0.03312828 1.70980392 0.01568628 0.71372550
v -0.12568672 0.13046724 0.03014798 1.70980392 0.01568628 0.71372550
f 1 2 3
f 1 3 4
f 1 4 5
f 1 5 13
f 1 13 12
f 1 12 23
f 1 23 22
f 1 22 35
f 1 35 38
f 1 38 25
f 1 25 14
f 1 14 6
f 1 6 15
f 1 15 29
f 1 29 41
f 1 41 42
f 1 42 31
f 1 31 30
f 1 30 16
f 1 16 7
f 1 7 2
f 2 7 8
f 2 8 3
f 3 9 4
f 3 8 10
f 3 10 9
f 4 9 11
f 4 11 12
f 4 12 13
f 4 13 5
f 6 14 24
f 6 24 37
f 6 37 27
f 6 27 15
f 7 16 8
f 8 16 17
f 8 17 10
f 9 10 18
f 9 18 19
f 9 19 11
f 10 17 20
f 10 20 18
f 11 19 32
f 11 32 43
f 11 43 37
f 11 37 24
f 11 24 26
f 11 26 39
f 11 39 44
f 11 44 36
f 11 36 34
f 11 34 21
f 11 21 22
f 11 22 23
f 11 23 12
f 14 25 26
f 14 26 24
f 15 27 28
f 15 28 29
f 16 30 17
f 17 30 31
f 17 31 20
f 18 32 19
f 18 20 33
f 18 33 32
f 20 31 33
f 21 34 22
f 22 34 36
f 22 36 35
f 25 38 39
f 25 39 26
f 27 37 43
f 27 43 33
f 27 33 40
f 27 40 28
f 28 40 29
f 29 40 41
f 31 42 33
f 32 33 43
f 33 42 40
f 35 36 44
f 35 44 38
f 38 44 39
f 40 42 41