# https://github.com/mikedh/trimesh
v -0.10891096 -0.14155724 0.03403514 0.42352942 1.03529412 0.04705882
v -0.10906006 -0.14155724 0.03404404 0.42352942 1.03529412 0.04705882
v -0.10891096 -0.14624634 0.03394182 0.42352942 1.03529412 0.04705882
v -0.10891096 -0.14155724 -0.01135320 0.42352942 1.03529412 0.04705882
v -0.11646046 -0.14155724 0.03394182 0.42352942 1.03529412 0.04705882
v -0.11646046 -0.14354286 0.03396850 0.42352942 1.03529412 0.04705882
v -0.11104404 -0.14354286 0.03403958 0.42352942 1.03529412 0.04705882
v -0.11104404 -0.14624634 0.03403958 0.42352942 1.03529412 0.04705882
v -0.10891096 -0.14624634 -0.01135320 0.42352942 1.03529412 0.04705882
v -0.13583482 -0.14155724 -0.01135320 0.42352942 1.03529412 0.04705882
v -0.12729026 -0.14155724 0.03355522 0.42352942 1.03529412 0.04705882
v -0.11646046 -0.14624634 0.03396850 0.42352942 1.03529412 0.04705882
v -0.13999450 -0.14624634 -0.01135320 0.42352942 1.03529412 0.04705882
v -0.13840306 -0.14333126 -0.01135320 0.42352942 1.03529412 0.04705882
v -0.13524144 -0.14155724 0.02437446 0.42352942 1.03529412 0.04705882
v -0.12213250 -0.14624634 0.03339080 0.42352942 1.03529412 0.04705882
v -0.13057664 -0.14155724 0.03315084 0.42352942 1.03529412 0.04705882
v -0.13999450 -0.14545962 -0.01135320 0.42352942 1.03529412 0.04705882
v -0.13999450 -0.14624634 0.02491660 0.42352942 1.03529412 0.04705882
v -0.13999450 -0.14605082 0.02437446 0.42352942 1.03529412 0.04705882
v -0.13388430 -0.14155724 0.03008910 0.42352942 1.03529412 0.04705882
v -0.13122476 -0.14155724 0.03307086 0.42352942 1.03529412 0.04705882
v -0.13101176 -0.14201074 0.03301308 0.42352942 1.03529412 0.04705882
v -0.12968810 -0.14624634 0.03221322 0.42352942 1.03529412 0.04705882
v -0.13994582 -0.14624634 0.02504546 0.42352942 1.03529412 0.04705882
v -0.13797400 -0.14624634 0.02957364 0.42352942 1.03529412 0.04705882
v -0.13295620 -0.14155724 0.03152444 0.42352942 1.03529412 0.04705882
v -0.13728324 -0.14624634 0.03020908 0.42352942 1.03529412 0.04705882
v -0.13278884 -0.14624634 0.03172884 0.42352942 1.03529412 0.04705882
f 1 2 3
f 1 3 9
f 1 9 4
f 1 4 10
f 1 10 15
f 1 15 21
f 1 21 27
f 1 27 22
f 1 22 17
f 1 17 11
f 1 11 5
f 1 5 2
f 2 5 6
f 2 6 7
f 2 7 8
f 2 8 3
f 3 8 12
f 3 12 16
f 3 16 24
f 3 24 29
f 3 29 28
f 3 28 26
f 3 26 25
f 3 25 19
f 3 19 13
f 3 13 9
f 4 9 13
f 4 13 18
f 4 18 14
f 4 14 10
f 5 11 6
f 6 12 8
f 6 8 7
f 6 11 12
f 10 14 15
f 11 16 12
f 11 17 16
f 13 19 20
f 13 20 18
f 14 18 20
f 14 20 15
f 15 20 21
f 16 17 22
f 16 22 23
f 16 23 24
f 19 25 21
f 19 21 20
f 21 25 26
f 21 26 27
f 22 27 28
f 22 28 29
f 22 29 23
f 23 29 24
f 26 28 27