# https://github.com/mikedh/trimesh
v -0.09406176 -0.11354880 -0.01135320 0.47058824 1.86666666 1.22352942
v -0.09650114 -0.10372306 -0.01135320 0.47058824 1.86666666 1.22352942
v -0.07661298 -0.11354880 -0.01135320 0.47058824 1.86666666 1.22352942
v -0.09325318 -0.11354880 0.00526278 0.47058824 1.86666666 1.22352942
v -0.09650114 -0.10160938 0.00812730 0.47058824 1.86666666 1.22352942
v -0.09650114 -0.07922256 -0.01135320 0.47058824 1.86666666 1.22352942
v -0.07655048 -0.11104196 -0.01135320 0.47058824 1.86666666 1.22352942
v -0.07718132 -0.11104196 0.02437294 0.47058824 1.86666666 1.22352942
v -0.07727312 -0.11354880 0.02437294 0.47058824 1.86666666 1.22352942
v -0.09302662 -0.11354880 0.00741340 0.47058824 1.86666666 1.22352942
v -0.09650114 -0.09718040 0.02978964 0.47058824 1.86666666 1.22352942
v -0.09563006 -0.07958212 -0.01135320 0.47058824 1.86666666 1.22352942
v -0.09650114 -0.08113798 0.02978964 0.47058824 1.86666666 1.22352942
v -0.07688446 -0.10659618 -0.01135320 0.47058824 1.86666666 1.22352942
v -0.07784536 -0.10562502 0.02437294 0.47058824 1.86666666 1.22352942
v -0.07831410 -0.10562502 0.02978964 0.47058824 1.86666666 1.22352942
v -0.07777116 -0.11104196 0.02978964 0.47058824 1.86666666 1.22352942
v -0.07784732 -0.11354880 0.02978964 0.47058824 1.86666666 1.22352942
v -0.07753092 -0.11354880 0.02688050 0.47058824 1.86666666 1.22352942
v -0.07700164 -0.10562502 -0.01135320 0.47058824 1.86666666 1.22352942
v -0.09029428 -0.11354880 0.02978964 0.47058824 1.86666666 1.22352942
v -0.09650114 -0.09438120 0.03338144 0.47058824 1.86666666 1.22352942
v -0.09464962 -0.08016682 -0.01135320 0.47058824 1.86666666 1.22352942
v -0.09650114 -0.08205872 0.03287724 0.47058824 1.86666666 1.22352942
v -0.09415940 -0.08258292 0.02978964 0.47058824 1.86666666 1.22352942
v -0.07939220 -0.10020810 0.02437294 0.47058824 1.86666666 1.22352942
v -0.07965782 -0.10020810 0.02978964 0.47058824 1.86666666 1.22352942
v -0.07764420 -0.10181772 -0.01135320 0.47058824 1.86666666 1.22352942
v -0.07809536 -0.10020810 -0.01135320 0.47058824 1.86666666 1.22352942
v -0.08108162 -0.09717704 0.03267646 0.47058824 1.86666666 1.22352942
v -0.08058748 -0.10020810 0.03306018 0.47058824 1.86666666 1.22352942
v -0.08001914 -0.10562502 0.03335912 0.47058824 1.86666666 1.22352942
v -0.07980626 -0.11104196 0.03336358 0.47058824 1.86666666 1.22352942
v -0.07874378 -0.11354880 0.03144498 0.47058824 1.86666666 1.22352942
v -0.08920446 -0.11354880 0.03170824 0.47058824 1.86666666 1.22352942
v -0.08819082 -0.11354880 0.03336358 0.47058824 1.86666666 1.22352942
v -0.09650114 -0.08937762 0.03410426 0.47058824 1.86666666 1.22352942
v -0.08944468 -0.08421608 -0.01135320 0.47058824 1.86666666 1.22352942
v -0.09400706 -0.08241490 0.02437294 0.47058824 1.86666666 1.22352942
v -0.09020052 -0.08512338 0.02437294 0.47058824 1.86666666 1.22352942
v -0.09650114 -0.08400438 0.03345282 0.47058824 1.86666666 1.22352942
v -0.09514180 -0.08401782 0.03328328 0.47058824 1.86666666 1.22352942
v -0.09107160 -0.08586266 0.03305126 0.47058824 1.86666666 1.22352942
v -0.09038216 -0.08529140 0.02978964 0.47058824 1.86666666 1.22352942
v -0.08091170 -0.09686452 0.02978964 0.47058824 1.86666666 1.22352942
v -0.07905628 -0.09689812 -0.01135320 0.47058824 1.86666666 1.22352942
v -0.08586666 -0.09107124 0.03305126 0.47058824 1.86666666 1.22352942
v -0.08402100 -0.09514402 0.03328328 0.47058824 1.86666666 1.22352942
v -0.08258744 -0.09415942 0.02978964 0.47058824 1.86666666 1.22352942
v -0.08529440 -0.09038572 0.02978964 0.47058824 1.86666666 1.22352942
v -0.08396044 -0.10020810 0.03392578 0.47058824 1.86666666 1.22352942
v -0.08396044 -0.10562502 0.03422472 0.47058824 1.86666666 1.22352942
v -0.08396044 -0.11104196 0.03422918 0.47058824 1.86666666 1.22352942
v -0.08396044 -0.11354880 0.03422918 0.47058824 1.86666666 1.22352942
v -0.08172808 -0.11354880 0.03376070 0.47058824 1.86666666 1.22352942
v -0.07983750 -0.11354880 0.03336358 0.47058824 1.86666666 1.22352942
v -0.08596430 -0.11354880 0.03382762 0.47058824 1.86666666 1.22352942
v -0.09479220 -0.08937762 0.03421134 0.47058824 1.86666666 1.22352942
v -0.08871228 -0.08485790 -0.01135320 0.47058824 1.86666666 1.22352942
v -0.08749356 -0.08749244 0.02437294 0.47058824 1.86666666 1.22352942
v -0.08930992 -0.08931040 0.03351082 0.47058824 1.86666666 1.22352942
v -0.08767520 -0.08767726 0.02978964 0.47058824 1.86666666 1.22352942
v -0.07958362 -0.09563464 -0.01135320 0.47058824 1.86666666 1.22352942
v -0.08016758 -0.09465004 -0.01135320 0.47058824 1.86666666 1.22352942
v -0.08241752 -0.09400820 0.02437294 0.47058824 1.86666666 1.22352942
v -0.08512644 -0.09020090 0.02437294 0.47058824 1.86666666 1.22352942
v -0.08937438 -0.09479454 0.03421134 0.47058824 1.86666666 1.22352942
v -0.08485886 -0.08871226 -0.01135320 0.47058824 1.86666666 1.22352942
v -0.08421630 -0.08944482 -0.01135320 0.47058824 1.86666666 1.22352942
f 1 2 6
f 1 6 12
f 1 12 23
f 1 23 38
f 1 38 59
f 1 59 68
f 1 68 69
f 1 69 64
f 1 64 63
f 1 63 46
f 1 46 29
f 1 29 28
f 1 28 20
f 1 20 14
f 1 14 7
f 1 7 3
f 1 3 9
f 1 9 19
f 1 19 18
f 1 18 34
f 1 34 56
f 1 56 55
f 1 55 54
f 1 54 57
f 1 57 36
f 1 36 35
f 1 35 21
f 1 21 10
f 1 10 4
f 1 4 5
f 1 5 2
f 2 5 11
f 2 11 22
f 2 22 37
f 2 37 41
f 2 41 24
f 2 24 13
f 2 13 6
f 3 7 8
f 3 8 9
f 4 10 11
f 4 11 5
f 6 13 12
f 7 14 8
f 8 15 16
f 8 16 17
f 8 17 18
f 8 18 19
f 8 19 9
f 8 14 20
f 8 20 15
f 10 21 11
f 11 21 22
f 12 13 23
f 13 24 25
f 13 25 23
f 15 26 27
f 15 27 16
f 15 20 28
f 15 28 29
f 15 29 26
f 16 27 30
f 16 30 31
f 16 31 32
f 16 32 17
f 17 32 33
f 17 33 34
f 17 34 18
f 21 35 22
f 22 35 36
f 22 36 37
f 23 25 39
f 23 39 40
f 23 40 38
f 24 41 42
f 24 42 43
f 24 43 25
f 25 44 40
f 25 40 39
f 25 43 44
f 26 45 27
f 26 29 46
f 26 46 45
f 27 45 30
f 30 47 48
f 30 48 31
f 30 45 49
f 30 49 50
f 30 50 47
f 31 48 51
f 31 51 32
f 32 51 52
f 32 52 33
f 33 52 53
f 33 53 54
f 33 54 55
f 33 55 56
f 33 56 34
f 36 57 37
f 37 54 58
f 37 58 41
f 37 57 54
f 38 40 60
f 38 60 59
f 40 44 60
f 41 58 61
f 41 61 42
f 42 61 43
f 43 61 47
f 43 47 62
f 43 62 44
f 44 62 60
f 45 46 63
f 45 63 64
f 45 64 49
f 47 50 62
f 47 61 48
f 48 61 51
f 49 64 65
f 49 65 66
f 49 66 50
f 50 66 60
f 50 60 62
f 51 61 67
f 51 67 52
f 52 67 58
f 52 58 53
f 53 58 54
f 58 67 61
f 59 60 68
f 60 66 69
f 60 69 68
f 64 69 66
f 64 66 65