# https://github.com/mikedh/trimesh
v 0.09970874 -0.11177900 -0.01551338 1.65490196 1.25490196 1.74117648
v 0.11198516 -0.13241224 -0.01150670 1.65490196 1.25490196 1.74117648
v 0.11198516 -0.12679384 -0.01551338 1.65490196 1.25490196 1.74117648
v 0.06847242 -0.11177900 -0.01551338 1.65490196 1.25490196 1.74117648
v 0.09213074 -0.11177900 -0.01150670 1.65490196 1.25490196 1.74117648
v 0.11198516 -0.13863796 -0.01150670 1.65490196 1.25490196 1.74117648
v 0.11198516 -0.13863796 -0.01551338 1.65490196 1.25490196 1.74117648
v 0.06847668 -0.11569638 -0.01551338 1.65490196 1.25490196 1.74117648
v 0.07654028 -0.11177900 -0.01150670 1.65490196 1.25490196 1.74117648
v 0.08658464 -0.13863796 -0.01150670 1.65490196 1.25490196 1.74117648
v 0.07358406 -0.13863796 -0.01551338 1.65490196 1.25490196 1.74117648
v 0.06857040 -0.12102032 -0.01551338 1.65490196 1.25490196 1.74117648
v 0.07663398 -0.11606970 -0.01150670 1.65490196 1.25490196 1.74117648
v 0.08572842 -0.13817260 -0.01150670 1.65490196 1.25490196 1.74117648
v 0.08488076 -0.13723664 -0.01150670 1.65490196 1.25490196 1.74117648
v 0.08402456 -0.13607458 -0.01150670 1.65490196 1.25490196 1.74117648
v 0.07936020 -0.12813204 -0.01150670 1.65490196 1.25490196 1.74117648
v 0.07903646 -0.12745374 -0.01150670 1.65490196 1.25490196 1.74117648
v 0.07858918 -0.12620492 -0.01150670 1.65490196 1.25490196 1.74117648
v 0.06914546 -0.12585524 -0.01551338 1.65490196 1.25490196 1.74117648
v 0.07715794 -0.12079158 -0.01150670 1.65490196 1.25490196 1.74117648
v 0.07664676 -0.11646144 -0.01150670 1.65490196 1.25490196 1.74117648
v 0.07736666 -0.12187740 -0.01150670 1.65490196 1.25490196 1.74117648
f 1 2 3
f 1 3 7
f 1 7 11
f 1 11 20
f 1 20 12
f 1 12 8
f 1 8 4
f 1 4 9
f 1 9 5
f 1 5 2
f 2 6 7
f 2 7 3
f 2 5 9
f 2 9 13
f 2 13 22
f 2 22 21
f 2 21 23
f 2 23 19
f 2 19 18
f 2 18 17
f 2 17 16
f 2 16 15
f 2 15 14
f 2 14 10
f 2 10 6
f 4 8 9
f 6 10 11
f 6 11 7
f 8 12 9
f 9 12 13
f 10 14 11
f 11 14 15
f 11 15 16
f 11 16 17
f 11 17 18
f 11 18 19
f 11 19 20
f 12 20 21
f 12 21 22
f 12 22 13
f 19 23 20
f 20 23 21