# https://github.com/mikedh/trimesh
v -0.07757246 0.12246506 -0.01135320 0.54117648 1.59215686 0.36862746
v -0.09795614 0.12246506 -0.01135320 0.54117648 1.59215686 0.36862746
v -0.07858130 0.12602526 -0.01135320 0.54117648 1.59215686 0.36862746
v -0.07864648 0.12246506 0.02437210 0.54117648 1.59215686 0.36862746
v -0.10570666 0.12854284 -0.01135320 0.54117648 1.59215686 0.36862746
v -0.09604898 0.12246506 0.00775818 0.54117648 1.59215686 0.36862746
v -0.07908854 0.12744044 -0.01135320 0.54117648 1.59215686 0.36862746
v -0.08034394 0.12667342 0.02978988 0.54117648 1.59215686 0.36862746
v -0.07900354 0.12246506 0.02978988 0.54117648 1.59215686 0.36862746
v -0.10651996 0.12924944 -0.01135320 0.54117648 1.59215686 0.36862746
v -0.09294878 0.12246506 0.02978988 0.54117648 1.59215686 0.36862746
v -0.07944844 0.12820748 -0.01135320 0.54117648 1.59215686 0.36862746
v -0.08131028 0.12924944 0.02437210 0.54117648 1.59215686 0.36862746
v -0.08022208 0.12687132 0.02437210 0.54117648 1.59215686 0.36862746
v -0.08163050 0.12924944 0.02978988 0.54117648 1.59215686 0.36862746
v -0.08072650 0.12584530 0.03297290 0.54117648 1.59215686 0.36862746
v -0.08029860 0.12246506 0.03324000 0.54117648 1.59215686 0.36862746
v -0.10312504 0.12924944 0.00809650 0.54117648 1.59215686 0.36862746
v -0.08430280 0.12924944 -0.01135320 0.54117648 1.59215686 0.36862746
v -0.09085742 0.12246506 0.03323554 0.54117648 1.59215686 0.36862746
v -0.09262290 0.12346652 0.03293728 0.54117648 1.59215686 0.36862746
v -0.09727602 0.12924944 0.03286606 0.54117648 1.59215686 0.36862746
v -0.09831322 0.12924944 0.02978988 0.54117648 1.59215686 0.36862746
v -0.08075200 0.12923748 -0.01135320 0.54117648 1.59215686 0.36862746
v -0.08076900 0.12924944 -0.01133984 0.54117648 1.59215686 0.36862746
v -0.08428296 0.12924944 0.03334684 0.54117648 1.59215686 0.36862746
v -0.08369068 0.12750686 0.03347594 0.54117648 1.59215686 0.36862746
v -0.08393156 0.12246506 0.03408138 0.54117648 1.59215686 0.36862746
v -0.08956236 0.12246506 0.03353826 0.54117648 1.59215686 0.36862746
v -0.09457256 0.12762108 0.03327116 0.54117648 1.59215686 0.36862746
v -0.09464340 0.12924944 0.03350266 0.54117648 1.59215686 0.36862746
v -0.08937816 0.12924944 0.03406802 0.54117648 1.59215686 0.36862746
v -0.08937816 0.12729236 0.03412590 0.54117648 1.59215686 0.36862746
f 1 2 5
f 1 5 10
f 1 10 19
f 1 19 24
f 1 24 12
f 1 12 7
f 1 7 3
f 1 3 4
f 1 4 9
f 1 9 17
f 1 17 28
f 1 28 29
f 1 29 20
f 1 20 11
f 1 11 6
f 1 6 2
f 2 6 5
f 3 7 8
f 3 8 4
f 4 8 9
f 5 6 10
f 6 11 10
f 7 12 13
f 7 13 14
f 7 14 8
f 8 14 13
f 8 13 15
f 8 15 16
f 8 16 9
f 9 16 17
f 10 18 23
f 10 23 22
f 10 22 31
f 10 31 32
f 10 32 26
f 10 26 15
f 10 15 13
f 10 13 25
f 10 25 19
f 10 11 18
f 11 20 21
f 11 21 22
f 11 22 23
f 11 23 18
f 12 24 13
f 13 24 25
f 15 26 16
f 16 26 27
f 16 27 28
f 16 28 17
f 19 25 24
f 20 29 30
f 20 30 22
f 20 22 21
f 22 30 31
f 26 32 27
f 27 32 28
f 28 32 33
f 28 33 29
f 29 33 31
f 29 31 30
f 31 33 32