# https://github.com/mikedh/trimesh
v -0.12594278 -0.09927438 -0.01135320 1.89019608 1.45882352 0.50196078
v -0.12594278 -0.07865838 -0.01135320 1.89019608 1.45882352 0.50196078
v -0.11843194 -0.09565284 -0.01135320 1.89019608 1.45882352 0.50196078
v -0.12594278 -0.09907138 0.01261978 1.89019608 1.45882352 0.50196078
v -0.12187598 -0.07740754 -0.01135320 1.89019608 1.45882352 0.50196078
v -0.12594278 -0.07988958 0.02437438 1.89019608 1.45882352 0.50196078
v -0.12187598 -0.07843790 0.02437438 1.89019608 1.45882352 0.50196078
v -0.11843194 -0.07697532 -0.01135320 1.89019608 1.45882352 0.50196078
v -0.11843194 -0.09423826 0.00824524 1.89019608 1.45882352 0.50196078
v -0.12594278 -0.09902334 0.01328866 1.89019608 1.45882352 0.50196078
v -0.11843194 -0.07776554 0.02437438 1.89019608 1.45882352 0.50196078
v -0.12594278 -0.08005112 0.02896296 1.89019608 1.45882352 0.50196078
v -0.12594278 -0.08010788 0.02978792 1.89019608 1.45882352 0.50196078
v -0.12187598 -0.07881556 0.02978792 1.89019608 1.45882352 0.50196078
v -0.11843194 -0.09374490 0.01346258 1.89019608 1.45882352 0.50196078
v -0.11843194 -0.09111442 0.02978792 1.89019608 1.45882352 0.50196078
v -0.12594278 -0.09533848 0.02978792 1.89019608 1.45882352 0.50196078
v -0.11843194 -0.07790308 0.02634536 1.89019608 1.45882352 0.50196078
v -0.12594278 -0.08067982 0.03261062 1.89019608 1.45882352 0.50196078
v -0.11843194 -0.07825672 0.02978792 1.89019608 1.45882352 0.50196078
v -0.12584720 -0.08072566 0.03297628 1.89019608 1.45882352 0.50196078
v -0.11843194 -0.09016484 0.03132636 1.89019608 1.45882352 0.50196078
v -0.12344432 -0.09262504 0.03293614 1.89019608 1.45882352 0.50196078
v -0.12594278 -0.09513328 0.03043004 1.89019608 1.45882352 0.50196078
v -0.12594278 -0.08075186 0.03289156 1.89019608 1.45882352 0.50196078
v -0.11843194 -0.07876972 0.03106326 1.89019608 1.45882352 0.50196078
v -0.12594278 -0.08089594 0.03300750 1.89019608 1.45882352 0.50196078
v -0.12187598 -0.08022358 0.03328842 1.89019608 1.45882352 0.50196078
v -0.11843194 -0.08879174 0.03339546 1.89019608 1.45882352 0.50196078
v -0.12594278 -0.09379076 0.03313236 1.89019608 1.45882352 0.50196078
v -0.11843194 -0.08000092 0.03333748 1.89019608 1.45882352 0.50196078
v -0.12594278 -0.08272746 0.03342666 1.89019608 1.45882352 0.50196078
v -0.12187598 -0.08396082 0.03415352 1.89019608 1.45882352 0.50196078
v -0.11843194 -0.08606958 0.03393948 1.89019608 1.45882352 0.50196078
v -0.12594278 -0.09315550 0.03331964 1.89019608 1.45882352 0.50196078
v -0.11843194 -0.08136090 0.03364962 1.89019608 1.45882352 0.50196078
v -0.12594278 -0.08376654 0.03366300 1.89019608 1.45882352 0.50196078
v -0.12594278 -0.08802770 0.03413124 1.89019608 1.45882352 0.50196078
v -0.11843194 -0.08396082 0.03420258 1.89019608 1.45882352 0.50196078
v -0.12594278 -0.08942918 0.03396178 1.89019608 1.45882352 0.50196078
f 1 2 5
f 1 5 8
f 1 8 3
f 1 3 4
f 1 4 10
f 1 10 17
f 1 17 24
f 1 24 30
f 1 30 35
f 1 35 40
f 1 40 38
f 1 38 37
f 1 37 32
f 1 32 27
f 1 27 25
f 1 25 19
f 1 19 13
f 1 13 12
f 1 12 6
f 1 6 2
f 2 6 7
f 2 7 5
f 3 8 11
f 3 11 18
f 3 18 20
f 3 20 26
f 3 26 31
f 3 31 36
f 3 36 39
f 3 39 34
f 3 34 29
f 3 29 22
f 3 22 16
f 3 16 15
f 3 15 9
f 3 9 10
f 3 10 4
f 5 7 11
f 5 11 8
f 6 12 7
f 7 12 13
f 7 13 14
f 7 14 11
f 9 15 10
f 10 15 16
f 10 16 17
f 11 14 18
f 13 19 14
f 14 20 18
f 14 19 21
f 14 21 20
f 16 22 23
f 16 23 24
f 16 24 17
f 19 25 21
f 20 21 26
f 21 25 27
f 21 27 28
f 21 28 26
f 22 29 23
f 23 30 24
f 23 29 30
f 26 28 31
f 27 32 33
f 27 33 28
f 28 33 31
f 29 34 35
f 29 35 30
f 31 33 36
f 32 37 33
f 33 38 39
f 33 39 36
f 33 37 38
f 34 39 40
f 34 40 35
f 38 40 39