# https://github.com/mikedh/trimesh
v 0.11294130 0.07725350 0.00848130 0.90196078 1.06666666 1.78823530
v 0.11294130 0.09137982 0.00848130 0.90196078 1.06666666 1.78823530
v 0.11645954 0.07739022 0.00848130 0.90196078 1.06666666 1.78823530
v 0.11294130 0.07725350 0.02437462 0.90196078 1.06666666 1.78823530
v 0.12840556 0.09977932 0.00848130 0.90196078 1.06666666 1.78823530
v 0.11294130 0.09249564 0.01539210 0.90196078 1.06666666 1.78823530
v 0.11681532 0.07745858 0.00848130 0.90196078 1.06666666 1.78823530
v 0.11645954 0.07739022 0.02437462 0.90196078 1.06666666 1.78823530
v 0.11645954 0.07795032 0.02979086 0.90196078 1.06666666 1.78823530
v 0.11294130 0.07745196 0.02627244 0.90196078 1.06666666 1.78823530
v 0.12840556 0.08094496 0.00848130 0.90196078 1.06666666 1.78823530
v 0.11294130 0.09269852 0.01733024 0.90196078 1.06666666 1.78823530
v 0.11294130 0.09277790 0.01896090 0.90196078 1.06666666 1.78823530
v 0.12840556 0.09751460 0.02979086 0.90196078 1.06666666 1.78823530
v 0.12187470 0.07844208 0.00848130 0.90196078 1.06666666 1.78823530
v 0.12187470 0.07844208 0.02437462 0.90196078 1.06666666 1.78823530
v 0.12187470 0.07882358 0.02979086 0.90196078 1.06666666 1.78823530
v 0.12582742 0.08072444 0.03297406 0.90196078 1.06666666 1.78823530
v 0.12187470 0.08022828 0.03328658 0.90196078 1.06666666 1.78823530
v 0.11645954 0.07988206 0.03336218 0.90196078 1.06666666 1.78823530
v 0.11294130 0.07783346 0.02979086 0.90196078 1.06666666 1.78823530
v 0.12684324 0.08022166 0.00848130 0.90196078 1.06666666 1.78823530
v 0.12840556 0.08094496 0.02437462 0.90196078 1.06666666 1.78823530
v 0.11294130 0.09237436 0.02236338 0.90196078 1.06666666 1.78823530
v 0.12840556 0.09705814 0.03155762 0.90196078 1.06666666 1.78823530
v 0.12220168 0.07855896 0.00848130 0.90196078 1.06666666 1.78823530
v 0.12684324 0.08022166 0.02437462 0.90196078 1.06666666 1.78823530
v 0.12664644 0.08034074 0.02979086 0.90196078 1.06666666 1.78823530
v 0.12840556 0.08144994 0.03064776 0.90196078 1.06666666 1.78823530
v 0.12840556 0.08401014 0.03341008 0.90196078 1.06666666 1.78823530
v 0.12749572 0.08369922 0.03347560 0.90196078 1.06666666 1.78823530
v 0.12187470 0.08395942 0.03415106 0.90196078 1.06666666 1.78823530
v 0.12840556 0.08123384 0.02979086 0.90196078 1.06666666 1.78823530
v 0.11645954 0.08395942 0.03422918 0.90196078 1.06666666 1.78823530
v 0.11294130 0.08126250 0.03366714 0.90196078 1.06666666 1.78823530
v 0.11294130 0.07983354 0.03336218 0.90196078 1.06666666 1.78823530
v 0.11294130 0.07851044 0.03104094 0.90196078 1.06666666 1.78823530
v 0.12840556 0.08102876 0.02651188 0.90196078 1.06666666 1.78823530
v 0.11294130 0.09028606 0.02979086 0.90196078 1.06666666 1.78823530
v 0.11294130 0.08896076 0.03211210 0.90196078 1.06666666 1.78823530
v 0.11294130 0.08818894 0.03336218 0.90196078 1.06666666 1.78823530
v 0.12840556 0.09586956 0.03307486 0.90196078 1.06666666 1.78823530
v 0.12840556 0.08468934 0.03355878 0.90196078 1.06666666 1.78823530
v 0.12840556 0.08937532 0.03409056 0.90196078 1.06666666 1.78823530
v 0.12729136 0.08937532 0.03412586 0.90196078 1.06666666 1.78823530
v 0.11294130 0.08395942 0.03422918 0.90196078 1.06666666 1.78823530
v 0.11294130 0.08548540 0.03392422 0.90196078 1.06666666 1.78823530
v 0.12840556 0.09538662 0.03327902 0.90196078 1.06666666 1.78823530
v 0.12840556 0.09048674 0.03409812 0.90196078 1.06666666 1.78823530
f 1 2 5
f 1 5 11
f 1 11 22
f 1 22 26
f 1 26 15
f 1 15 7
f 1 7 3
f 1 3 8
f 1 8 4
f 1 4 10
f 1 10 21
f 1 21 37
f 1 37 36
f 1 36 35
f 1 35 46
f 1 46 47
f 1 47 41
f 1 41 40
f 1 40 39
f 1 39 24
f 1 24 13
f 1 13 12
f 1 12 6
f 1 6 2
f 2 6 5
f 3 7 8
f 4 8 9
f 4 9 10
f 5 6 12
f 5 12 13
f 5 13 14
f 5 14 25
f 5 25 42
f 5 42 48
f 5 48 49
f 5 49 44
f 5 44 43
f 5 43 30
f 5 30 29
f 5 29 33
f 5 33 38
f 5 38 23
f 5 23 11
f 7 15 16
f 7 16 8
f 8 16 17
f 8 17 9
f 9 17 18
f 9 18 19
f 9 19 20
f 9 20 21
f 9 21 10
f 11 23 27
f 11 27 22
f 13 24 14
f 14 24 25
f 15 26 16
f 16 27 28
f 16 28 17
f 16 26 27
f 17 28 18
f 18 29 30
f 18 30 31
f 18 31 32
f 18 32 19
f 18 28 33
f 18 33 29
f 19 32 20
f 20 32 34
f 20 34 35
f 20 35 36
f 20 36 37
f 20 37 21
f 22 27 26
f 23 38 28
f 23 28 27
f 24 39 25
f 25 39 40
f 25 40 41
f 25 41 42
f 28 38 33
f 30 43 31
f 31 43 32
f 32 44 45
f 32 45 34
f 32 43 44
f 34 46 35
f 34 45 46
f 41 47 48
f 41 48 42
f 44 49 45
f 45 49 46
f 46 49 48
f 46 48 47