# https://github.com/mikedh/trimesh
v 0.11103806 -0.07653916 -0.01150670 0.29019608 1.96078432 0.94901960
v 0.10562486 -0.07696690 -0.01150670 0.29019608 1.96078432 0.94901960
v 0.11103806 -0.07718972 -0.00809328 0.29019608 1.96078432 0.94901960
v 0.11606666 -0.07664262 -0.01150670 0.29019608 1.96078432 0.94901960
v 0.10021166 -0.07803722 -0.01150670 0.29019608 1.96078432 0.94901960
v 0.10562486 -0.07783230 -0.00809328 0.29019608 1.96078432 0.94901960
v 0.11645706 -0.07737076 -0.00809328 0.29019608 1.96078432 0.94901960
v 0.11645706 -0.07665456 -0.01150670 0.29019608 1.96078432 0.94901960
v 0.10021166 -0.07935026 -0.00809328 0.29019608 1.96078432 0.94901960
v 0.10559572 -0.07784026 -0.00809328 0.29019608 1.96078432 0.94901960
v 0.09558508 -0.07952732 -0.01150670 0.29019608 1.96078432 0.94901960
v 0.12184114 -0.07839732 -0.00809328 0.29019608 1.96078432 0.94901960
v 0.12079812 -0.07715590 -0.01150670 0.29019608 1.96078432 0.94901960
v 0.10018834 -0.07935822 -0.00809328 0.29019608 1.96078432 0.94901960
v 0.08941440 -0.08417268 -0.01150670 0.29019608 1.96078432 0.94901960
v 0.09020686 -0.08511966 -0.00809328 0.29019608 1.96078432 0.94901960
v 0.09398852 -0.08242792 -0.00809328 0.29019608 1.96078432 0.94901960
v 0.09401182 -0.08241202 -0.00809328 0.29019608 1.96078432 0.94901960
v 0.09671552 -0.08080056 -0.00809328 0.29019608 1.96078432 0.94901960
v 0.12187610 -0.07840526 -0.00809328 0.29019608 1.96078432 0.94901960
v 0.12187610 -0.07736280 -0.01150670 0.29019608 1.96078432 0.94901960
v 0.08751482 -0.08747716 -0.00809328 0.29019608 1.96078432 0.94901960
v 0.08417600 -0.08940692 -0.01150670 0.29019608 1.96078432 0.94901960
v 0.12684062 -0.08018184 -0.00809328 0.29019608 1.96078432 0.94901960
v 0.12746410 -0.07903394 -0.01150670 0.29019608 1.96078432 0.94901960
v 0.12621714 -0.07858830 -0.01150670 0.29019608 1.96078432 0.94901960
v 0.08748568 -0.08750700 -0.00809328 0.29019608 1.96078432 0.94901960
v 0.07953196 -0.09557818 -0.01150670 0.29019608 1.96078432 0.94901960
v 0.08512580 -0.09019872 -0.00809328 0.29019608 1.96078432 0.94901960
v 0.12688724 -0.08019974 -0.00809328 0.29019608 1.96078432 0.94901960
v 0.12814002 -0.07935424 -0.01150670 0.29019608 1.96078432 0.94901960
v 0.12957926 -0.08146702 -0.00809328 0.29019608 1.96078432 0.94901960
v 0.07914156 -0.09686138 -0.01150670 0.29019608 1.96078432 0.94901960
v 0.08073814 -0.09686138 -0.00809328 0.29019608 1.96078432 0.94901960
v 0.08080222 -0.09671018 -0.00809328 0.29019608 1.96078432 0.94901960
v 0.08241046 -0.09401646 -0.00809328 0.29019608 1.96078432 0.94901960
v 0.08243376 -0.09397866 -0.00809328 0.29019608 1.96078432 0.94901960
v 0.13608210 -0.08400954 -0.01150670 0.29019608 1.96078432 0.94901960
v 0.13270250 -0.08355794 -0.00809328 0.29019608 1.96078432 0.94901960
v 0.10200052 -0.09686138 -0.01150670 0.29019608 1.96078432 0.94901960
v 0.10139452 -0.09686138 -0.00809328 0.29019608 1.96078432 0.94901960
v 0.13725330 -0.08486698 -0.01150670 0.29019608 1.96078432 0.94901960
v 0.13611124 -0.08606662 -0.00809328 0.29019608 1.96078432 0.94901960
v 0.13866342 -0.09656494 -0.00809328 0.29019608 1.96078432 0.94901960
v 0.10198304 -0.09686138 -0.01139176 0.29019608 1.96078432 0.94901960
v 0.13866342 -0.09656494 -0.01150670 0.29019608 1.96078432 0.94901960
v 0.10140034 -0.09686138 -0.00812534 0.29019608 1.96078432 0.94901960
v 0.13866342 -0.08836444 -0.00809328 0.29019608 1.96078432 0.94901960
v 0.13818562 -0.08570854 -0.01150670 0.29019608 1.96078432 0.94901960
v 0.13866342 -0.08659782 -0.01150670 0.29019608 1.96078432 0.94901960
v 0.13866342 -0.08788100 -0.00885942 0.29019608 1.96078432 0.94901960
f 1 2 3
f 1 3 4
f 1 4 8
f 1 8 13
f 1 13 21
f 1 21 26
f 1 26 25
f 1 25 31
f 1 31 38
f 1 38 42
f 1 42 49
f 1 49 50
f 1 50 46
f 1 46 40
f 1 40 33
f 1 33 28
f 1 28 23
f 1 23 15
f 1 15 11
f 1 11 5
f 1 5 2
f 2 5 6
f 2 6 3
f 3 6 10
f 3 10 9
f 3 9 14
f 3 14 19
f 3 19 18
f 3 18 17
f 3 17 16
f 3 16 22
f 3 22 27
f 3 27 29
f 3 29 37
f 3 37 36
f 3 36 35
f 3 35 34
f 3 34 41
f 3 41 44
f 3 44 48
f 3 48 43
f 3 43 39
f 3 39 32
f 3 32 30
f 3 30 24
f 3 24 20
f 3 20 12
f 3 12 7
f 3 7 8
f 3 8 4
f 5 9 10
f 5 10 6
f 5 11 9
f 7 12 13
f 7 13 8
f 9 11 14
f 11 15 16
f 11 16 17
f 11 17 18
f 11 18 19
f 11 19 14
f 12 20 21
f 12 21 13
f 15 22 16
f 15 23 22
f 20 24 25
f 20 25 26
f 20 26 21
f 22 23 27
f 23 28 29
f 23 29 27
f 24 30 25
f 25 30 32
f 25 32 31
f 28 33 34
f 28 34 35
f 28 35 36
f 28 36 37
f 28 37 29
f 31 32 38
f 32 39 38
f 33 40 45
f 33 45 47
f 33 47 41
f 33 41 34
f 38 39 42
f 39 43 42
f 40 44 45
f 40 46 44
f 41 47 44
f 42 43 48
f 42 48 49
f 44 46 50
f 44 50 51
f 44 51 48
f 44 47 45
f 48 51 49
f 49 51 50