# https://github.com/mikedh/trimesh
v -0.07095178 -0.10982532 -0.01475624 0.61960784 0.79215686 0.41568628
v -0.07664318 -0.10982532 -0.01135352 0.61960784 0.79215686 0.41568628
v -0.07655350 -0.11104352 -0.01135352 0.61960784 0.79215686 0.41568628
v -0.07094536 -0.11104352 -0.01475624 0.61960784 0.79215686 0.41568628
v -0.09934478 -0.10982532 -0.01475624 0.61960784 0.79215686 0.41568628
v -0.09451492 -0.10982532 -0.01135352 0.61960784 0.79215686 0.41568628
v -0.07667842 -0.11646008 -0.01135352 0.61960784 0.79215686 0.41568628
v -0.07121440 -0.11646008 -0.01475624 0.61960784 0.79215686 0.41568628
v -0.10366538 -0.12534288 -0.01475624 0.61960784 0.79215686 0.41568628
v -0.09696508 -0.12534288 -0.01135352 0.61960784 0.79215686 0.41568628
v -0.07741506 -0.12187514 -0.01135352 0.61960784 0.79215686 0.41568628
v -0.07402648 -0.12534288 -0.01475624 0.61960784 0.79215686 0.41568628
v -0.07849122 -0.12534288 -0.01135352 0.61960784 0.79215686 0.41568628
f 1 2 3
f 1 3 4
f 1 4 8
f 1 8 12
f 1 12 9
f 1 9 5
f 1 5 6
f 1 6 2
f 2 6 10
f 2 10 13
f 2 13 11
f 2 11 7
f 2 7 3
f 3 7 4
f 4 7 8
f 5 9 6
f 6 9 10
f 7 11 8
f 8 11 13
f 8 13 12
f 9 12 13
f 9 13 10