# https://github.com/mikedh/trimesh
v 0.09975686 0.12630610 -0.00925482 1.38823530 1.55294118 1.55294118
v 0.10022006 0.12070228 -0.01461260 1.38823530 1.55294118 1.55294118
v 0.09975686 0.12655964 -0.00803662 1.38823530 1.55294118 1.55294118
v 0.09975686 0.14093864 -0.00925482 1.38823530 1.55294118 1.55294118
v 0.11139832 0.12543254 -0.01461260 1.38823530 1.55294118 1.55294118
v 0.11312288 0.13277556 -0.00391276 1.38823530 1.55294118 1.55294118
v 0.09975686 0.12756196 -0.00391276 1.38823530 1.55294118 1.55294118
v 0.09975686 0.12658540 -0.00792978 1.38823530 1.55294118 1.55294118
v 0.10022006 0.14093666 -0.01461260 1.38823530 1.55294118 1.55294118
v 0.09975686 0.14093864 -0.00391276 1.38823530 1.55294118 1.55294118
v 0.11312288 0.14093864 -0.00925482 1.38823530 1.55294118 1.55294118
v 0.11139832 0.14093666 -0.01461260 1.38823530 1.55294118 1.55294118
v 0.11312288 0.13128992 -0.00925482 1.38823530 1.55294118 1.55294118
v 0.11312288 0.14093864 -0.00391276 1.38823530 1.55294118 1.55294118
f 1 2 3
f 1 3 8
f 1 8 7
f 1 7 10
f 1 10 4
f 1 4 9
f 1 9 2
f 2 5 6
f 2 6 7
f 2 7 8
f 2 8 3
f 2 9 12
f 2 12 5
f 4 10 14
f 4 14 11
f 4 11 12
f 4 12 9
f 5 12 11
f 5 11 13
f 5 13 6
f 6 14 10
f 6 10 7
f 6 13 11
f 6 11 14