# https://github.com/mikedh/trimesh
v 0.11139878 0.07144894 -0.01461260 0.51764706 0.90980392 1.36470588
v 0.11645908 0.07176018 -0.01461260 0.51764706 0.90980392 1.36470588
v 0.11645908 0.07713430 -0.00925414 0.51764706 0.90980392 1.36470588
v 0.11139878 0.07697176 -0.00925414 0.51764706 0.90980392 1.36470588
v 0.11139878 0.09657310 -0.01461260 0.51764706 0.90980392 1.36470588
v 0.14100700 0.07343744 -0.01461260 0.51764706 0.90980392 1.36470588
v 0.12187584 0.07806110 -0.00925414 0.51764706 0.90980392 1.36470588
v 0.11139878 0.09146180 -0.00925414 0.51764706 0.90980392 1.36470588
v 0.13181384 0.10677490 -0.00925414 0.51764706 0.90980392 1.36470588
v 0.12552182 0.10677490 -0.01461260 0.51764706 0.90980392 1.36470588
v 0.14100700 0.08833556 -0.00925414 0.51764706 0.90980392 1.36470588
v 0.13270650 0.08323464 -0.00925414 0.51764706 0.90980392 1.36470588
v 0.12704628 0.07980752 -0.00925414 0.51764706 0.90980392 1.36470588
v 0.14100700 0.10677490 -0.01461260 0.51764706 0.90980392 1.36470588
v 0.14100700 0.10677490 -0.00925414 0.51764706 0.90980392 1.36470588
f 1 2 3
f 1 3 4
f 1 4 8
f 1 8 5
f 1 5 10
f 1 10 14
f 1 14 6
f 1 6 2
f 2 6 3
f 3 7 13
f 3 13 12
f 3 12 11
f 3 11 15
f 3 15 9
f 3 9 8
f 3 8 4
f 3 6 7
f 5 9 10
f 5 8 9
f 6 11 12
f 6 12 13
f 6 13 7
f 6 14 15
f 6 15 11
f 9 15 14
f 9 14 10