# https://github.com/mikedh/trimesh
v -0.12196282 -0.12569438 -0.01475624 1.95294118 1.74901960 0.67450980
v -0.12048664 -0.12590192 -0.01475624 1.95294118 1.74901960 0.67450980
v -0.14062888 -0.12569438 -0.01475624 1.95294118 1.74901960 0.67450980
v -0.12893660 -0.12569438 -0.01135352 1.95294118 1.74901960 0.67450980
v -0.11070990 -0.12856436 -0.01475624 1.95294118 1.74901960 0.67450980
v -0.14062888 -0.13381762 -0.01475624 1.95294118 1.74901960 0.67450980
v -0.14062888 -0.12569438 -0.01135352 1.95294118 1.74901960 0.67450980
v -0.11070990 -0.13246336 -0.01135352 1.95294118 1.74901960 0.67450980
v -0.11070990 -0.13381762 -0.01475624 1.95294118 1.74901960 0.67450980
v -0.14062888 -0.13381762 -0.01135352 1.95294118 1.74901960 0.67450980
v -0.11070990 -0.13381762 -0.01135352 1.95294118 1.74901960 0.67450980
f 1 2 5
f 1 5 9
f 1 9 6
f 1 6 3
f 1 3 7
f 1 7 4
f 1 4 2
f 2 4 5
f 3 6 10
f 3 10 7
f 4 7 10
f 4 10 11
f 4 11 8
f 4 8 5
f 5 8 11
f 5 11 9
f 6 9 11
f 6 11 10