# https://github.com/mikedh/trimesh
v -0.14170638 0.12503948 -0.01135320 0.48627450 0.83921568 1.11372550
v -0.14170638 0.12503948 0.00176210 0.48627450 0.83921568 1.11372550
v -0.14170638 0.13046538 -0.01135320 0.48627450 0.83921568 1.11372550
v -0.12627808 0.12503948 -0.01135320 0.48627450 0.83921568 1.11372550
v -0.14170638 0.13046538 0.00176210 0.48627450 0.83921568 1.11372550
v -0.13006878 0.12503948 0.00176210 0.48627450 0.83921568 1.11372550
v -0.11682086 0.13046538 -0.01135320 0.48627450 0.83921568 1.11372550
v -0.12701138 0.12503948 -0.00679056 0.48627450 0.83921568 1.11372550
v -0.12417080 0.13046538 0.00176210 0.48627450 0.83921568 1.11372550
v -0.12820754 0.12503948 -0.00221382 0.48627450 0.83921568 1.11372550
v -0.12692368 0.12778670 0.00176210 0.48627450 0.83921568 1.11372550
v -0.12792494 0.12503948 -0.00297384 0.48627450 0.83921568 1.11372550
f 1 2 5
f 1 5 3
f 1 3 7
f 1 7 4
f 1 4 8
f 1 8 12
f 1 12 10
f 1 10 6
f 1 6 2
f 2 6 11
f 2 11 9
f 2 9 5
f 3 5 9
f 3 9 7
f 4 7 8
f 6 10 7
f 6 7 11
f 7 9 11
f 7 10 12
f 7 12 8