# https://github.com/mikedh/trimesh
v -0.07660688 0.11301616 -0.01135320 1.72549020 0.22745098 1.02745098
v -0.09419840 0.11301616 -0.01135320 1.72549020 0.22745098 1.02745098
v -0.07666540 0.11582696 -0.01135320 1.72549020 0.22745098 1.02745098
v -0.07726316 0.11301616 0.02437294 1.72549020 0.22745098 1.02745098
v -0.09789144 0.12215800 -0.01135320 1.72549020 0.22745098 1.02745098
v -0.09301756 0.11301616 0.00756064 1.72549020 0.22745098 1.02745098
v -0.07668630 0.11645960 -0.01135320 1.72549020 0.22745098 1.02745098
v -0.07738436 0.11645960 0.02437294 1.72549020 0.22745098 1.02745098
v -0.07794448 0.11645960 0.02978964 1.72549020 0.22745098 1.02745098
v -0.07784416 0.11301616 0.02978964 1.72549020 0.22745098 1.02745098
v -0.09795622 0.12246506 -0.01135320 1.72549020 0.22745098 1.02745098
v -0.09604806 0.12246506 0.00776142 1.72549020 0.22745098 1.02745098
v -0.09025876 0.11301616 0.02978964 1.72549020 0.22745098 1.02745098
v -0.07716492 0.12060784 -0.01135320 1.72549020 0.22745098 1.02745098
v -0.07843564 0.12187498 0.02437294 1.72549020 0.22745098 1.02745098
v -0.07881602 0.12187498 0.02978964 1.72549020 0.22745098 1.02745098
v -0.07740736 0.12187498 -0.01135320 1.72549020 0.22745098 1.02745098
v -0.08022258 0.12187498 0.03328774 1.72549020 0.22745098 1.02745098
v -0.07987774 0.11645960 0.03336358 1.72549020 0.22745098 1.02745098
v -0.07983802 0.11301616 0.03336358 1.72549020 0.22745098 1.02745098
v -0.07757246 0.12246506 -0.01135320 1.72549020 0.22745098 1.02745098
v -0.09294858 0.12246506 0.02978964 1.72549020 0.22745098 1.02745098
v -0.08817294 0.11301616 0.03336358 1.72549020 0.22745098 1.02745098
v -0.07864672 0.12246506 0.02437294 1.72549020 0.22745098 1.02745098
v -0.07900202 0.12246506 0.02978964 1.72549020 0.22745098 1.02745098
v -0.08029782 0.12246506 0.03323866 1.72549020 0.22745098 1.02745098
v -0.08393234 0.12246506 0.03408194 1.72549020 0.22745098 1.02745098
v -0.08395950 0.12187498 0.03414888 1.72549020 0.22745098 1.02745098
v -0.08395950 0.11645960 0.03422918 1.72549020 0.22745098 1.02745098
v -0.08395950 0.11301616 0.03422918 1.72549020 0.22745098 1.02745098
v -0.09085650 0.12246506 0.03323866 1.72549020 0.22745098 1.02745098
v -0.08956070 0.12246506 0.03353760 1.72549020 0.22745098 1.02745098
f 1 2 5
f 1 5 11
f 1 11 21
f 1 21 17
f 1 17 14
f 1 14 7
f 1 7 3
f 1 3 4
f 1 4 10
f 1 10 20
f 1 20 30
f 1 30 23
f 1 23 13
f 1 13 6
f 1 6 2
f 2 6 5
f 3 7 4
f 4 8 9
f 4 9 10
f 4 7 8
f 5 6 12
f 5 12 11
f 6 13 12
f 7 14 8
f 8 15 16
f 8 16 9
f 8 14 17
f 8 17 15
f 9 16 18
f 9 18 19
f 9 19 10
f 10 19 20
f 11 12 22
f 11 22 31
f 11 31 32
f 11 32 27
f 11 27 26
f 11 26 25
f 11 25 24
f 11 24 21
f 12 13 22
f 13 23 22
f 15 24 25
f 15 25 16
f 15 17 21
f 15 21 24
f 16 25 26
f 16 26 18
f 18 26 27
f 18 27 28
f 18 28 19
f 19 28 29
f 19 29 20
f 20 29 30
f 22 23 31
f 23 30 32
f 23 32 31
f 27 32 28
f 28 32 29
f 29 32 30