# https://github.com/mikedh/trimesh
v -0.13999616 -0.11354538 -0.01135320 1.44313726 1.72549020 1.94509804
v -0.13999616 -0.08797384 -0.01135320 1.44313726 1.72549020 1.94509804
v -0.13183240 -0.11354538 -0.01135320 1.44313726 1.72549020 1.94509804
v -0.13999616 -0.11354538 0.03386236 1.44313726 1.72549020 1.94509804
v -0.13720200 -0.08492042 -0.01135320 1.44313726 1.72549020 1.94509804
v -0.13999616 -0.08851006 0.02437218 1.44313726 1.72549020 1.94509804
v -0.12594416 -0.09927218 -0.01135320 1.44313726 1.72549020 1.94509804
v -0.13158890 -0.11354538 0.01353900 1.44313726 1.72549020 1.94509804
v -0.13812514 -0.11354538 0.03383112 1.44313726 1.72549020 1.94509804
v -0.13812514 -0.10020802 0.03422822 1.44313726 1.72549020 1.94509804
v -0.13999616 -0.10749660 0.03404082 1.44313726 1.72549020 1.94509804
v -0.12744236 -0.07908682 -0.01135320 1.44313726 1.72549020 1.94509804
v -0.13271014 -0.08357472 0.02437218 1.44313726 1.72549020 1.94509804
v -0.12958166 -0.08146056 0.02437218 1.44313726 1.72549020 1.94509804
v -0.13999616 -0.08912484 0.02977984 1.44313726 1.72549020 1.94509804
v -0.13596932 -0.08617388 0.02978876 1.44313726 1.72549020 1.94509804
v -0.13271014 -0.08391286 0.02978876 1.44313726 1.72549020 1.94509804
v -0.12594416 -0.07865646 -0.01135320 1.44313726 1.72549020 1.94509804
v -0.12594416 -0.09907066 0.01261988 1.44313726 1.72549020 1.94509804
v -0.12594416 -0.09902284 0.01328914 1.44313726 1.72549020 1.94509804
v -0.12594416 -0.09534098 0.02978876 1.44313726 1.72549020 1.94509804
v -0.12594416 -0.09513606 0.03043126 1.44313726 1.72549020 1.94509804
v -0.13198236 -0.11354538 0.01604652 1.44313726 1.72549020 1.94509804
v -0.12594416 -0.08943224 0.03396052 1.44313726 1.72549020 1.94509804
v -0.12594416 -0.08802848 0.03413006 1.44313726 1.72549020 1.94509804
v -0.13495676 -0.11354538 0.03297000 1.44313726 1.72549020 1.94509804
v -0.13271014 -0.08937760 0.03396498 1.44313726 1.72549020 1.94509804
v -0.13812514 -0.09479452 0.03387128 1.44313726 1.72549020 1.94509804
v -0.13999616 -0.10207968 0.03407652 1.44313726 1.72549020 1.94509804
v -0.12667744 -0.08034028 0.02978876 1.44313726 1.72549020 1.94509804
v -0.12594416 -0.08004998 0.02896334 1.44313726 1.72549020 1.94509804
v -0.12594416 -0.07988944 0.02437218 1.44313726 1.72549020 1.94509804
v -0.12938492 -0.08169964 0.02978876 1.44313726 1.72549020 1.94509804
v -0.13999616 -0.09119120 0.03275584 1.44313726 1.72549020 1.94509804
v -0.13571068 -0.08640614 0.03272906 1.44313726 1.72549020 1.94509804
v -0.13428814 -0.11354538 0.02978876 1.44313726 1.72549020 1.94509804
v -0.12594416 -0.09379378 0.03313508 1.44313726 1.72549020 1.94509804
v -0.12594416 -0.09315850 0.03331802 1.44313726 1.72549020 1.94509804
v -0.12594416 -0.08376600 0.03366604 1.44313726 1.72549020 1.94509804
v -0.12750978 -0.08369086 0.03347864 1.44313726 1.72549020 1.94509804
v -0.13271014 -0.08546006 0.03310386 1.44313726 1.72549020 1.94509804
v -0.13775918 -0.08983868 0.03304138 1.44313726 1.72549020 1.94509804
v -0.13999616 -0.09240710 0.03302354 1.44313726 1.72549020 1.94509804
v -0.13999616 -0.09479452 0.03346080 1.44313726 1.72549020 1.94509804
v -0.13999616 -0.09665594 0.03367496 1.44313726 1.72549020 1.94509804
v -0.12594416 -0.08075014 0.03288968 1.44313726 1.72549020 1.94509804
v -0.12594416 -0.08068184 0.03260860 1.44313726 1.72549020 1.94509804
v -0.12594416 -0.08010804 0.02978876 1.44313726 1.72549020 1.94509804
v -0.12594416 -0.08089700 0.03300570 1.44313726 1.72549020 1.94509804
f 1 2 5
f 1 5 12
f 1 12 18
f 1 18 7
f 1 7 3
f 1 3 8
f 1 8 23
f 1 23 36
f 1 36 26
f 1 26 9
f 1 9 4
f 1 4 11
f 1 11 29
f 1 29 45
f 1 45 44
f 1 44 43
f 1 43 34
f 1 34 15
f 1 15 6
f 1 6 2
f 2 6 5
f 3 7 8
f 4 9 10
f 4 10 11
f 5 6 13
f 5 13 14
f 5 14 12
f 6 15 16
f 6 16 17
f 6 17 13
f 7 18 32
f 7 32 31
f 7 31 48
f 7 48 47
f 7 47 46
f 7 46 49
f 7 49 39
f 7 39 25
f 7 25 24
f 7 24 38
f 7 38 37
f 7 37 22
f 7 22 21
f 7 21 20
f 7 20 19
f 7 19 8
f 8 19 20
f 8 20 21
f 8 21 22
f 8 22 23
f 9 24 25
f 9 25 10
f 9 26 24
f 10 25 27
f 10 27 28
f 10 28 29
f 10 29 11
f 12 14 30
f 12 30 31
f 12 31 32
f 12 32 18
f 13 17 14
f 14 17 33
f 14 33 30
f 15 34 35
f 15 35 16
f 16 35 17
f 17 35 33
f 22 26 36
f 22 36 23
f 22 37 26
f 24 26 38
f 25 39 27
f 26 37 38
f 27 39 40
f 27 40 41
f 27 41 35
f 27 35 42
f 27 42 28
f 28 42 43
f 28 43 44
f 28 44 45
f 28 45 29
f 30 33 46
f 30 46 47
f 30 47 48
f 30 48 31
f 33 35 46
f 34 43 42
f 34 42 35
f 35 41 49
f 35 49 46
f 39 49 40
f 40 49 41