# https://github.com/mikedh/trimesh
v 0.08539532 -0.14631262 -0.00808916 1.42745098 0.57254902 0.36078432
v 0.08554040 -0.14631262 0.02437302 1.42745098 0.57254902 0.36078432
v 0.08853344 -0.14170014 0.02437302 1.42745098 0.57254902 0.36078432
v 0.08851196 -0.14170014 -0.00606414 1.42745098 0.57254902 0.36078432
v 0.08851734 -0.14170014 -0.00808916 1.42745098 0.57254902 0.36078432
v 0.14028576 -0.14631262 -0.00808916 1.42745098 0.57254902 0.36078432
v 0.08574996 -0.14631262 0.02944176 1.42745098 0.57254902 0.36078432
v 0.08865704 -0.14170014 0.02635680 1.42745098 0.57254902 0.36078432
v 0.13542272 -0.14170014 -0.00808916 1.42745098 0.57254902 0.36078432
v 0.14028576 -0.14631262 0.01895786 1.42745098 0.57254902 0.36078432
v 0.09124170 -0.14631262 0.03142554 1.42745098 0.57254902 0.36078432
v 0.09361680 -0.14170014 0.03282780 1.42745098 0.57254902 0.36078432
v 0.09157486 -0.14170014 0.03203182 1.42745098 0.57254902 0.36078432
v 0.08990906 -0.14170014 0.03083990 1.42745098 0.57254902 0.36078432
v 0.08951680 -0.14170014 0.02975108 1.42745098 0.57254902 0.36078432
v 0.13542272 -0.14170014 0.01895786 1.42745098 0.57254902 0.36078432
v 0.14027502 -0.14631262 0.02437302 1.42745098 0.57254902 0.36078432
v 0.10040354 -0.14631262 0.03328146 1.42745098 0.57254902 0.36078432
v 0.09479360 -0.14170014 0.03307526 1.42745098 0.57254902 0.36078432
v 0.13539048 -0.14170014 0.02437302 1.42745098 0.57254902 0.36078432
v 0.13801814 -0.14631262 0.02961910 1.42745098 0.57254902 0.36078432
v 0.13382142 -0.14170014 0.03011402 1.42745098 0.57254902 0.36078432
v 0.10285386 -0.14631262 0.03352480 1.42745098 0.57254902 0.36078432
v 0.10033368 -0.14170014 0.03362378 1.42745098 0.57254902 0.36078432
v 0.13115616 -0.14170014 0.03305462 1.42745098 0.57254902 0.36078432
v 0.13277896 -0.14631262 0.03175960 1.42745098 0.57254902 0.36078432
v 0.10562660 -0.14631262 0.03379700 1.42745098 0.57254902 0.36078432
v 0.10562660 -0.14170014 0.03388362 1.42745098 0.57254902 0.36078432
v 0.12865748 -0.14170014 0.03336394 1.42745098 0.57254902 0.36078432
v 0.12212866 -0.14631262 0.03339282 1.42745098 0.57254902 0.36078432
v 0.13101108 -0.14201080 0.03301338 1.42745098 0.57254902 0.36078432
v 0.10827574 -0.14631262 0.03391660 1.42745098 0.57254902 0.36078432
v 0.11104310 -0.14631262 0.03404034 1.42745098 0.57254902 0.36078432
v 0.11104310 -0.14354286 0.03404034 1.42745098 0.57254902 0.36078432
v 0.11288084 -0.14170014 0.03399084 1.42745098 0.57254902 0.36078432
v 0.12728724 -0.14170014 0.03352892 1.42745098 0.57254902 0.36078432
v 0.11645422 -0.14631262 0.03397022 1.42745098 0.57254902 0.36078432
v 0.11829734 -0.14170014 0.03402796 1.42745098 0.57254902 0.36078432
f 1 2 3
f 1 3 4
f 1 4 5
f 1 5 9
f 1 9 6
f 1 6 10
f 1 10 17
f 1 17 21
f 1 21 26
f 1 26 30
f 1 30 37
f 1 37 33
f 1 33 32
f 1 32 27
f 1 27 23
f 1 23 18
f 1 18 11
f 1 11 7
f 1 7 2
f 2 7 3
f 3 8 15
f 3 15 14
f 3 14 13
f 3 13 12
f 3 12 19
f 3 19 24
f 3 24 28
f 3 28 35
f 3 35 38
f 3 38 36
f 3 36 29
f 3 29 25
f 3 25 22
f 3 22 20
f 3 20 16
f 3 16 9
f 3 9 5
f 3 5 4
f 3 7 8
f 6 9 16
f 6 16 10
f 7 11 12
f 7 12 13
f 7 13 14
f 7 14 15
f 7 15 8
f 10 16 17
f 11 18 19
f 11 19 12
f 16 20 17
f 17 20 22
f 17 22 21
f 18 23 19
f 19 23 24
f 21 25 26
f 21 22 25
f 23 27 24
f 24 27 28
f 25 29 30
f 25 30 31
f 25 31 26
f 26 31 30
f 27 32 28
f 28 32 33
f 28 33 34
f 28 34 35
f 29 36 30
f 30 36 37
f 33 37 38
f 33 38 34
f 34 38 35
f 36 38 37