# https://github.com/mikedh/trimesh
v -0.16547650 0.02979830 -0.01572070 0.62745098 0.72156862 1.13725490
v -0.16305658 0.00002656 -0.01572070 0.62745098 0.72156862 1.13725490
v -0.16547650 0.02979830 -0.01135362 0.62745098 0.72156862 1.13725490
v -0.16547650 0.07295660 -0.01572070 0.62745098 0.72156862 1.13725490
v -0.13817018 0.00002656 -0.01572070 0.62745098 0.72156862 1.13725490
v -0.16297904 0.00002656 -0.01135362 0.62745098 0.72156862 1.13725490
v -0.16547650 0.07295660 -0.01135362 0.62745098 0.72156862 1.13725490
v -0.13816216 0.07295660 -0.01572070 0.62745098 0.72156862 1.13725490
v -0.14636048 0.00002656 -0.01135362 0.62745098 0.72156862 1.13725490
v -0.14636048 0.07295660 -0.01135362 0.62745098 0.72156862 1.13725490
f 1 2 3
f 1 3 7
f 1 7 4
f 1 4 8
f 1 8 5
f 1 5 2
f 2 5 9
f 2 9 6
f 2 6 3
f 3 6 9
f 3 9 10
f 3 10 7
f 4 7 10
f 4 10 8
f 5 8 9
f 8 10 9