# https://github.com/mikedh/trimesh
v 0.08777958 0.14434056 -0.00809790 1.45882352 0.33725490 1.03529412
v 0.08850456 0.14095130 -0.00809790 1.45882352 0.33725490 1.03529412
v 0.08852430 0.14093898 0.02437128 1.45882352 0.33725490 1.03529412
v 0.08781410 0.14434056 0.02437128 1.45882352 0.33725490 1.03529412
v 0.13477050 0.14434056 -0.00809790 1.45882352 0.33725490 1.03529412
v 0.08851444 0.14093898 -0.00562692 1.45882352 0.33725490 1.03529412
v 0.09321944 0.14093898 -0.00809790 1.45882352 0.33725490 1.03529412
v 0.08934298 0.14093898 0.02976286 1.45882352 0.33725490 1.03529412
v 0.08905694 0.14434056 0.02911108 1.45882352 0.33725490 1.03529412
v 0.13816362 0.14434056 -0.00341996 1.45882352 0.33725490 1.03529412
v 0.13815868 0.14433856 -0.00809790 1.45882352 0.33725490 1.03529412
v 0.13497270 0.14093898 -0.00809790 1.45882352 0.33725490 1.03529412
v 0.09177932 0.14093898 0.03262984 1.45882352 0.33725490 1.03529412
v 0.08983124 0.14434056 0.02997736 1.45882352 0.33725490 1.03529412
v 0.13816362 0.14434056 0.01895494 1.45882352 0.33725490 1.03529412
v 0.13497270 0.14093898 0.01895494 1.45882352 0.33725490 1.03529412
v 0.09350056 0.14093898 0.03300936 1.45882352 0.33725490 1.03529412
v 0.09195688 0.14123700 0.03259272 1.45882352 0.33725490 1.03529412
v 0.09444748 0.14434056 0.03219258 1.45882352 0.33725490 1.03529412
v 0.13813896 0.14434056 0.02368650 1.45882352 0.33725490 1.03529412
v 0.13495296 0.14093898 0.02437128 1.45882352 0.33725490 1.03529412
v 0.09479272 0.14093898 0.03324862 1.45882352 0.33725490 1.03529412
v 0.09479272 0.14206284 0.03300112 1.45882352 0.33725490 1.03529412
v 0.09479272 0.14434056 0.03227508 1.45882352 0.33725490 1.03529412
v 0.13813402 0.14434056 0.02437128 1.45882352 0.33725490 1.03529412
v 0.13484446 0.14093898 0.02590996 1.45882352 0.33725490 1.03529412
v 0.09758908 0.14093898 0.03357864 1.45882352 0.33725490 1.03529412
v 0.10037558 0.14434056 0.03328988 1.45882352 0.33725490 1.03529412
v 0.13673338 0.14434056 0.02804266 1.45882352 0.33725490 1.03529412
v 0.13414414 0.14093898 0.02996912 1.45882352 0.33725490 1.03529412
v 0.10302400 0.14093898 0.03400766 1.45882352 0.33725490 1.03529412
v 0.10562804 0.14434056 0.03380552 1.45882352 0.33725490 1.03529412
v 0.13575192 0.14434056 0.02915646 1.45882352 0.33725490 1.03529412
v 0.13291116 0.14093898 0.03188732 1.45882352 0.33725490 1.03529412
v 0.10843922 0.14093898 0.03404478 1.45882352 0.33725490 1.03529412
v 0.11104324 0.14434056 0.03403654 1.45882352 0.33725490 1.03529412
v 0.10642700 0.14434056 0.03384264 1.45882352 0.33725490 1.03529412
v 0.13444992 0.14434056 0.03036100 1.45882352 0.33725490 1.03529412
v 0.13149572 0.14093898 0.03314550 1.45882352 0.33725490 1.03529412
v 0.11645844 0.14093898 0.03393340 1.45882352 0.33725490 1.03529412
v 0.11645844 0.14354236 0.03397052 1.45882352 0.33725490 1.03529412
v 0.11104324 0.14354236 0.03403654 1.45882352 0.33725490 1.03529412
v 0.11184220 0.14434056 0.03402828 1.45882352 0.33725490 1.03529412
v 0.13296048 0.14434056 0.03086840 1.45882352 0.33725490 1.03529412
v 0.13099760 0.14200356 0.03300524 1.45882352 0.33725490 1.03529412
v 0.12728884 0.14283174 0.03331050 1.45882352 0.33725490 1.03529412
v 0.12728884 0.14093898 0.03366114 1.45882352 0.33725490 1.03529412
v 0.11645844 0.14434056 0.03397052 1.45882352 0.33725490 1.03529412
v 0.12728884 0.14434056 0.03273710 1.45882352 0.33725490 1.03529412
v 0.12210542 0.14434056 0.03338888 1.45882352 0.33725490 1.03529412
v 0.11734616 0.14434056 0.03387978 1.45882352 0.33725490 1.03529412
f 1 2 3
f 1 3 4
f 1 4 9
f 1 9 14
f 1 14 19
f 1 19 24
f 1 24 28
f 1 28 32
f 1 32 37
f 1 37 36
f 1 36 43
f 1 43 48
f 1 48 51
f 1 51 50
f 1 50 49
f 1 49 44
f 1 44 38
f 1 38 33
f 1 33 29
f 1 29 25
f 1 25 20
f 1 20 15
f 1 15 10
f 1 10 5
f 1 5 11
f 1 11 12
f 1 12 7
f 1 7 2
f 2 6 3
f 2 7 6
f 3 8 4
f 3 6 7
f 3 7 12
f 3 12 16
f 3 16 21
f 3 21 26
f 3 26 30
f 3 30 34
f 3 34 39
f 3 39 47
f 3 47 40
f 3 40 35
f 3 35 31
f 3 31 27
f 3 27 22
f 3 22 17
f 3 17 13
f 3 13 8
f 4 8 9
f 5 10 11
f 8 13 9
f 9 13 14
f 10 15 16
f 10 16 12
f 10 12 11
f 13 17 18
f 13 18 14
f 14 18 19
f 15 20 21
f 15 21 16
f 17 22 23
f 17 23 18
f 18 23 24
f 18 24 19
f 20 25 21
f 21 25 26
f 22 27 28
f 22 28 23
f 23 28 24
f 25 29 30
f 25 30 26
f 27 31 32
f 27 32 28
f 29 33 34
f 29 34 30
f 31 35 36
f 31 36 37
f 31 37 32
f 33 38 34
f 34 38 39
f 35 40 41
f 35 41 42
f 35 42 36
f 36 42 43
f 38 44 45
f 38 45 39
f 39 45 46
f 39 46 47
f 40 47 41
f 41 48 43
f 41 43 42
f 41 47 48
f 44 49 45
f 45 49 46
f 46 49 50
f 46 50 51
f 46 51 48
f 46 48 47