# https://github.com/mikedh/trimesh
v 0.09871914 0.09864728 0.01896090 1.92156862 0.58039216 0.47843138
v 0.09850418 0.09864728 0.01354216 1.92156862 0.58039216 0.47843138
v 0.09342342 0.11291952 0.01354216 1.92156862 0.58039216 0.47843138
v 0.09312630 0.11291952 0.01621876 1.92156862 0.58039216 0.47843138
v 0.09284180 0.11291952 0.01772090 1.92156862 0.58039216 0.47843138
v 0.09025400 0.11291952 0.02979086 1.92156862 0.58039216 0.47843138
v 0.09546332 0.09864728 0.02979086 1.92156862 0.58039216 0.47843138
v 0.09315158 0.11291952 0.01204002 1.92156862 0.58039216 0.47843138
v 0.09694478 0.09864728 0.00848130 1.92156862 0.58039216 0.47843138
v 0.09266478 0.11291952 0.00959276 1.92156862 0.58039216 0.47843138
v 0.08892850 0.11291952 0.03212470 1.92156862 0.58039216 0.47843138
v 0.09359200 0.09864728 0.03316308 1.92156862 0.58039216 0.47843138
v 0.08002292 0.09864728 0.00848130 1.92156862 0.58039216 0.47843138
v 0.09214006 0.11291952 0.00848130 1.92156862 0.58039216 0.47843138
v 0.08816986 0.11291952 0.03336218 1.92156862 0.58039216 0.47843138
v 0.08546194 0.11291952 0.03392926 1.92156862 0.58039216 0.47843138
v 0.08395940 0.11291952 0.03422918 1.92156862 0.58039216 0.47843138
v 0.08937526 0.09864728 0.03396958 1.92156862 0.58039216 0.47843138
v 0.07938440 0.10020934 0.00848130 1.92156862 0.58039216 0.47843138
v 0.08002292 0.09864728 0.02437462 1.92156862 0.58039216 0.47843138
v 0.07726022 0.11291952 0.00848130 1.92156862 0.58039216 0.47843138
v 0.08395940 0.11104172 0.03422918 1.92156862 0.58039216 0.47843138
v 0.08125150 0.11291952 0.03366210 1.92156862 0.58039216 0.47843138
v 0.07981430 0.11104172 0.03336218 1.92156862 0.58039216 0.47843138
v 0.08395940 0.10562622 0.03422414 1.92156862 0.58039216 0.47843138
v 0.08395940 0.10020934 0.03392926 1.92156862 0.58039216 0.47843138
v 0.08397628 0.09864728 0.03373268 1.92156862 0.58039216 0.47843138
v 0.07928114 0.10056562 0.00848130 1.92156862 0.58039216 0.47843138
v 0.07938440 0.10020934 0.02437462 1.92156862 0.58039216 0.47843138
v 0.08023156 0.09864728 0.02979086 1.92156862 0.58039216 0.47843138
v 0.07720542 0.11139800 0.00848130 1.92156862 0.58039216 0.47843138
v 0.07726022 0.11291952 0.02437462 1.92156862 0.58039216 0.47843138
v 0.07983748 0.11291952 0.03336218 1.92156862 0.58039216 0.47843138
v 0.07851198 0.11291952 0.03103086 1.92156862 0.58039216 0.47843138
v 0.07778494 0.11104172 0.02979086 1.92156862 0.58039216 0.47843138
v 0.08001238 0.10562622 0.03335966 1.92156862 0.58039216 0.47843138
v 0.08058136 0.10020934 0.03306478 1.92156862 0.58039216 0.47843138
v 0.08083636 0.09864728 0.03286820 1.92156862 0.58039216 0.47843138
v 0.07783552 0.10562622 0.00848130 1.92156862 0.58039216 0.47843138
v 0.07783552 0.10562622 0.02437462 1.92156862 0.58039216 0.47843138
v 0.07964572 0.10020934 0.02979086 1.92156862 0.58039216 0.47843138
v 0.07719488 0.11104172 0.00848130 1.92156862 0.58039216 0.47843138
v 0.07719488 0.11104172 0.02437462 1.92156862 0.58039216 0.47843138
v 0.07745410 0.11291952 0.02625228 1.92156862 0.58039216 0.47843138
v 0.07784184 0.11291952 0.02979086 1.92156862 0.58039216 0.47843138
v 0.07830546 0.10562622 0.02979086 1.92156862 0.58039216 0.47843138
v 0.07779338 0.10598110 0.00848130 1.92156862 0.58039216 0.47843138
f 1 2 3
f 1 3 4
f 1 4 5
f 1 5 6
f 1 6 7
f 1 7 12
f 1 12 18
f 1 18 27
f 1 27 38
f 1 38 30
f 1 30 20
f 1 20 13
f 1 13 9
f 1 9 2
f 2 8 3
f 2 9 10
f 2 10 8
f 3 8 10
f 3 10 14
f 3 14 21
f 3 21 32
f 3 32 44
f 3 44 45
f 3 45 34
f 3 34 33
f 3 33 23
f 3 23 17
f 3 17 16
f 3 16 15
f 3 15 11
f 3 11 6
f 3 6 5
f 3 5 4
f 6 11 12
f 6 12 7
f 9 13 19
f 9 19 28
f 9 28 39
f 9 39 47
f 9 47 42
f 9 42 31
f 9 31 21
f 9 21 14
f 9 14 10
f 11 15 12
f 12 15 16
f 12 16 17
f 12 17 18
f 13 20 29
f 13 29 19
f 17 22 18
f 17 23 24
f 17 24 22
f 18 22 25
f 18 25 26
f 18 26 27
f 19 29 28
f 20 30 29
f 21 31 32
f 22 24 25
f 23 33 24
f 24 33 34
f 24 34 35
f 24 35 36
f 24 36 25
f 25 36 26
f 26 36 37
f 26 37 27
f 27 37 38
f 28 29 40
f 28 40 39
f 29 30 41
f 29 41 40
f 30 38 41
f 31 42 43
f 31 43 32
f 32 43 44
f 34 45 35
f 35 45 44
f 35 44 43
f 35 43 46
f 35 46 36
f 36 46 37
f 37 46 38
f 38 46 41
f 39 40 47
f 40 41 46
f 40 46 43
f 40 43 47
f 42 47 43