# https://github.com/mikedh/trimesh
v 0.10199550 -0.09686528 -0.01150670 0.15686274 0.80784314 0.46274510
v 0.10197554 -0.09686528 -0.01139176 0.15686274 0.80784314 0.46274510
v 0.09272108 -0.11648658 -0.00809328 0.15686274 0.80784314 0.46274510
v 0.09199786 -0.11648658 -0.01150670 0.15686274 0.80784314 0.46274510
v 0.07914236 -0.09686528 -0.01150670 0.15686274 0.80784314 0.46274510
v 0.10139448 -0.09686528 -0.00809328 0.15686274 0.80784314 0.46274510
v 0.07737176 -0.11648658 -0.00809328 0.15686274 0.80784314 0.46274510
v 0.07664856 -0.11648658 -0.01150670 0.15686274 0.80784314 0.46274510
v 0.07803760 -0.10020944 -0.01150670 0.15686274 0.80784314 0.46274510
v 0.07934686 -0.10020944 -0.00809328 0.15686274 0.80784314 0.46274510
v 0.07935432 -0.10019024 -0.00809328 0.15686274 0.80784314 0.46274510
v 0.08073590 -0.09686528 -0.00809328 0.15686274 0.80784314 0.46274510
v 0.07736678 -0.11645776 -0.00809328 0.15686274 0.80784314 0.46274510
v 0.07664606 -0.11645776 -0.01150670 0.15686274 0.80784314 0.46274510
v 0.07696278 -0.10562620 -0.01150670 0.15686274 0.80784314 0.46274510
v 0.07782812 -0.10562620 -0.00809328 0.15686274 0.80784314 0.46274510
v 0.07783562 -0.10559546 -0.00809328 0.15686274 0.80784314 0.46274510
v 0.07717476 -0.11104102 -0.00809328 0.15686274 0.80784314 0.46274510
v 0.07663110 -0.11606592 -0.01150670 0.15686274 0.80784314 0.46274510
v 0.07652138 -0.11104102 -0.01150670 0.15686274 0.80784314 0.46274510
f 1 2 3
f 1 3 4
f 1 4 8
f 1 8 14
f 1 14 19
f 1 19 20
f 1 20 15
f 1 15 9
f 1 9 5
f 1 5 12
f 1 12 6
f 1 6 2
f 2 6 3
f 3 6 12
f 3 12 11
f 3 11 10
f 3 10 17
f 3 17 16
f 3 16 18
f 3 18 13
f 3 13 7
f 3 7 8
f 3 8 4
f 5 9 10
f 5 10 11
f 5 11 12
f 7 13 8
f 8 13 14
f 9 15 16
f 9 16 17
f 9 17 10
f 13 18 19
f 13 19 14
f 15 20 18
f 15 18 16
f 18 20 19