# https://github.com/mikedh/trimesh
v 0.12840556 0.12343076 0.00848380 0.92549020 0.54901960 1.16862746
v 0.11294130 0.13174598 0.00848380 0.92549020 0.54901960 1.16862746
v 0.12840556 0.14093694 0.00848380 0.92549020 0.54901960 1.16862746
v 0.12840556 0.12759866 0.02979130 0.92549020 0.54901960 1.16862746
v 0.11294130 0.13430636 0.02979130 0.92549020 0.54901960 1.16862746
v 0.11294130 0.14093694 0.00848380 0.92549020 0.54901960 1.16862746
v 0.12840556 0.14093694 0.03352156 0.92549020 0.54901960 1.16862746
v 0.12840556 0.12840070 0.03137848 0.92549020 0.54901960 1.16862746
v 0.11294130 0.13496272 0.03297070 0.92549020 0.54901960 1.16862746
v 0.11294130 0.14093694 0.03390136 0.92549020 0.54901960 1.16862746
v 0.12729136 0.14093694 0.03365990 0.92549020 0.54901960 1.16862746
v 0.12840556 0.13887014 0.03390388 0.92549020 0.54901960 1.16862746
v 0.12840556 0.12975288 0.03318700 0.92549020 0.54901960 1.16862746
v 0.11294130 0.13812464 0.03383346 0.92549020 0.54901960 1.16862746
v 0.12187470 0.13812464 0.03414536 0.92549020 0.54901960 1.16862746
v 0.11645954 0.14093694 0.03393406 0.92549020 0.54901960 1.16862746
v 0.12729136 0.13812464 0.03417806 0.92549020 0.54901960 1.16862746
v 0.12840556 0.13814520 0.03403720 0.92549020 0.54901960 1.16862746
v 0.12840556 0.13258230 0.03369260 0.92549020 0.54901960 1.16862746
f 1 2 6
f 1 6 3
f 1 3 7
f 1 7 12
f 1 12 18
f 1 18 19
f 1 19 13
f 1 13 8
f 1 8 4
f 1 4 5
f 1 5 2
f 2 5 9
f 2 9 14
f 2 14 10
f 2 10 6
f 3 6 10
f 3 10 16
f 3 16 11
f 3 11 7
f 4 8 9
f 4 9 5
f 7 11 12
f 8 13 9
f 9 13 14
f 10 14 15
f 10 15 16
f 11 16 17
f 11 17 12
f 12 17 18
f 13 19 14
f 14 19 15
f 15 17 16
f 15 19 17
f 17 19 18