# https://github.com/mikedh/trimesh
v -0.02979614 0.16547750 -0.01135362 1.22352942 1.23137254 1.88235294
v -0.00003916 0.16297872 -0.01135362 1.22352942 1.23137254 1.88235294
v -0.00003916 0.16305908 -0.01572070 1.22352942 1.23137254 1.88235294
v -0.02979614 0.16547750 -0.01572070 1.22352942 1.23137254 1.88235294
v -0.13382768 0.16547750 -0.01135362 1.22352942 1.23137254 1.88235294
v -0.00003916 0.14636032 -0.01135362 1.22352942 1.23137254 1.88235294
v -0.00003916 0.13817030 -0.01572070 1.22352942 1.23137254 1.88235294
v -0.13382768 0.16547750 -0.01572070 1.22352942 1.23137254 1.88235294
v -0.13382768 0.13811942 -0.01135362 1.22352942 1.23137254 1.88235294
v -0.08574764 0.13811942 -0.01135362 1.22352942 1.23137254 1.88235294
v -0.07337072 0.13811942 -0.01572070 1.22352942 1.23137254 1.88235294
v -0.13382768 0.13811942 -0.01572070 1.22352942 1.23137254 1.88235294
f 1 2 3
f 1 3 4
f 1 4 8
f 1 8 5
f 1 5 9
f 1 9 10
f 1 10 6
f 1 6 2
f 2 6 7
f 2 7 3
f 3 7 11
f 3 11 12
f 3 12 8
f 3 8 4
f 5 8 12
f 5 12 9
f 6 10 7
f 7 10 11
f 9 12 11
f 9 11 10