# https://github.com/mikedh/trimesh
v 0.08002140 0.09864728 0.00848130 1.16862746 0.12549020 0.96470588
v 0.08072708 0.09692212 0.00848130 1.16862746 0.12549020 0.96470588
v 0.08002140 0.09864728 0.02437462 1.16862746 0.12549020 0.96470588
v 0.09694460 0.09864728 0.00848130 1.16862746 0.12549020 0.96470588
v 0.08082374 0.09669098 0.00848130 1.16862746 0.12549020 0.96470588
v 0.08082374 0.09669098 0.02437462 1.16862746 0.12549020 0.96470588
v 0.08090752 0.09684438 0.02979086 1.16862746 0.12549020 0.96470588
v 0.08023086 0.09864728 0.02979086 1.16862746 0.12549020 0.96470588
v 0.09850418 0.09864728 0.01354216 1.16862746 0.12549020 0.96470588
v 0.11293980 0.09249682 0.01539210 1.16862746 0.12549020 0.96470588
v 0.11293980 0.09137894 0.00848130 1.16862746 0.12549020 0.96470588
v 0.08092686 0.09651238 0.00848130 1.16862746 0.12549020 0.96470588
v 0.08239620 0.09398244 0.02437462 1.16862746 0.12549020 0.96470588
v 0.08107830 0.09716588 0.03268170 1.16862746 0.12549020 0.96470588
v 0.08256698 0.09413582 0.02979086 1.16862746 0.12549020 0.96470588
v 0.08083664 0.09864728 0.03286820 1.16862746 0.12549020 0.96470588
v 0.09872006 0.09864728 0.01896090 1.16862746 0.12549020 0.96470588
v 0.11293980 0.09277840 0.01896090 1.16862746 0.12549020 0.96470588
v 0.11293980 0.09269856 0.01733024 1.16862746 0.12549020 0.96470588
v 0.11293980 0.07725414 0.00848130 1.16862746 0.12549020 0.96470588
v 0.08239620 0.09398244 0.00848130 1.16862746 0.12549020 0.96470588
v 0.08510610 0.09018122 0.02437462 1.16862746 0.12549020 0.96470588
v 0.08527688 0.09036612 0.02979086 1.16862746 0.12549020 0.96470588
v 0.08585366 0.09105954 0.03305470 1.16862746 0.12549020 0.96470588
v 0.08401376 0.09513184 0.03328910 1.16862746 0.12549020 0.96470588
v 0.08397832 0.09864728 0.03373268 1.16862746 0.12549020 0.96470588
v 0.11293980 0.09237496 0.02236338 1.16862746 0.12549020 0.96470588
v 0.09546560 0.09864728 0.02979086 1.16862746 0.12549020 0.96470588
v 0.11293980 0.07725414 0.02437462 1.16862746 0.12549020 0.96470588
v 0.11104190 0.07718058 0.00848130 1.16862746 0.12549020 0.96470588
v 0.08510610 0.09018122 0.00848130 1.16862746 0.12549020 0.96470588
v 0.08747122 0.08747688 0.02437462 1.16862746 0.12549020 0.96470588
v 0.08765488 0.08765968 0.02979086 1.16862746 0.12549020 0.96470588
v 0.09106080 0.08586098 0.03305722 1.16862746 0.12549020 0.96470588
v 0.08930468 0.08930288 0.03351340 1.16862746 0.12549020 0.96470588
v 0.08937556 0.09479142 0.03421406 1.16862746 0.12549020 0.96470588
v 0.08937556 0.09864728 0.03396958 1.16862746 0.12549020 0.96470588
v 0.11293980 0.09028628 0.02979086 1.16862746 0.12549020 0.96470588
v 0.09359348 0.09864728 0.03316308 1.16862746 0.12549020 0.96470588
v 0.11293980 0.07745166 0.02627244 1.16862746 0.12549020 0.96470588
v 0.11104190 0.07718058 0.02437462 1.16862746 0.12549020 0.96470588
v 0.10562532 0.07783408 0.00848130 1.16862746 0.12549020 0.96470588
v 0.08747122 0.08747688 0.00848130 1.16862746 0.12549020 0.96470588
v 0.09018112 0.08511292 0.02437462 1.16862746 0.12549020 0.96470588
v 0.09036480 0.08528524 0.02979086 1.16862746 0.12549020 0.96470588
v 0.09716050 0.08107216 0.03268926 1.16862746 0.12549020 0.96470588
v 0.09513048 0.08401606 0.03329414 1.16862746 0.12549020 0.96470588
v 0.10020872 0.08395932 0.03393430 1.16862746 0.12549020 0.96470588
v 0.09479536 0.08937432 0.03421406 1.16862746 0.12549020 0.96470588
v 0.10562532 0.08395932 0.03422414 1.16862746 0.12549020 0.96470588
v 0.11104190 0.08395932 0.03422918 1.16862746 0.12549020 0.96470588
v 0.11293980 0.08395932 0.03422918 1.16862746 0.12549020 0.96470588
v 0.11293980 0.08548484 0.03392422 1.16862746 0.12549020 0.96470588
v 0.11293980 0.08818500 0.03336218 1.16862746 0.12549020 0.96470588
v 0.11293980 0.08896036 0.03211210 1.16862746 0.12549020 0.96470588
v 0.11293980 0.07783408 0.02979086 1.16862746 0.12549020 0.96470588
v 0.11104190 0.07777106 0.02979086 1.16862746 0.12549020 0.96470588
v 0.10562532 0.07830268 0.02979086 1.16862746 0.12549020 0.96470588
v 0.10562532 0.07783408 0.02437462 1.16862746 0.12549020 0.96470588
v 0.10056318 0.07928186 0.00848130 1.16862746 0.12549020 0.96470588
v 0.09018112 0.08511292 0.00848130 1.16862746 0.12549020 0.96470588
v 0.09398014 0.08240438 0.02437462 1.16862746 0.12549020 0.96470588
v 0.09413158 0.08257668 0.02979086 1.16862746 0.12549020 0.96470588
v 0.09683826 0.08089776 0.02979086 1.16862746 0.12549020 0.96470588
v 0.10020872 0.07964750 0.02979086 1.16862746 0.12549020 0.96470588
v 0.10020872 0.08058046 0.03306982 1.16862746 0.12549020 0.96470588
v 0.10562532 0.08001102 0.03335966 1.16862746 0.12549020 0.96470588
v 0.11104190 0.07980720 0.03336218 1.16862746 0.12549020 0.96470588
v 0.11293980 0.08126128 0.03366714 1.16862746 0.12549020 0.96470588
v 0.11293980 0.07851070 0.03104094 1.16862746 0.12549020 0.96470588
v 0.11293980 0.07983240 0.03336218 1.16862746 0.12549020 0.96470588
v 0.10020872 0.07938484 0.02437462 1.16862746 0.12549020 0.96470588
v 0.10020872 0.07938484 0.00848130 1.16862746 0.12549020 0.96470588
v 0.09398014 0.08240438 0.00848130 1.16862746 0.12549020 0.96470588
v 0.09668682 0.08081370 0.02437462 1.16862746 0.12549020 0.96470588
v 0.09691882 0.08071914 0.00848130 1.16862746 0.12549020 0.96470588
v 0.09668682 0.08081370 0.00848130 1.16862746 0.12549020 0.96470588
f 1 2 3
f 1 3 8
f 1 8 16
f 1 16 26
f 1 26 37
f 1 37 39
f 1 39 28
f 1 28 17
f 1 17 9
f 1 9 4
f 1 4 11
f 1 11 20
f 1 20 30
f 1 30 42
f 1 42 60
f 1 60 73
f 1 73 76
f 1 76 77
f 1 77 74
f 1 74 61
f 1 61 43
f 1 43 31
f 1 31 21
f 1 21 12
f 1 12 5
f 1 5 2
f 2 5 6
f 2 6 3
f 3 6 7
f 3 7 8
f 4 9 10
f 4 10 11
f 5 12 6
f 6 12 13
f 6 13 7
f 7 14 8
f 7 13 15
f 7 15 14
f 8 14 16
f 9 17 18
f 9 18 19
f 9 19 10
f 10 19 18
f 10 18 27
f 10 27 38
f 10 38 55
f 10 55 54
f 10 54 53
f 10 53 52
f 10 52 69
f 10 69 71
f 10 71 70
f 10 70 56
f 10 56 40
f 10 40 29
f 10 29 20
f 10 20 11
f 12 21 13
f 13 22 15
f 13 21 31
f 13 31 22
f 14 15 23
f 14 23 24
f 14 24 25
f 14 25 16
f 15 22 23
f 16 25 26
f 17 27 18
f 17 28 27
f 20 29 41
f 20 41 30
f 22 32 23
f 22 31 43
f 22 43 32
f 23 32 33
f 23 33 24
f 24 33 34
f 24 34 35
f 24 35 25
f 25 35 26
f 26 35 36
f 26 36 37
f 27 28 39
f 27 39 38
f 29 40 41
f 30 41 59
f 30 59 42
f 32 43 61
f 32 61 44
f 32 44 45
f 32 45 33
f 33 45 34
f 34 45 46
f 34 46 47
f 34 47 35
f 35 47 48
f 35 48 49
f 35 49 36
f 36 49 50
f 36 50 51
f 36 51 52
f 36 52 37
f 37 52 53
f 37 53 54
f 37 54 39
f 38 39 55
f 39 54 55
f 40 56 41
f 41 56 57
f 41 57 58
f 41 58 59
f 42 59 60
f 44 61 74
f 44 74 62
f 44 62 63
f 44 63 45
f 45 63 46
f 46 63 64
f 46 64 65
f 46 65 58
f 46 58 66
f 46 66 47
f 47 66 48
f 48 66 67
f 48 67 50
f 48 50 49
f 50 67 68
f 50 68 51
f 51 68 69
f 51 69 52
f 56 70 57
f 57 68 67
f 57 67 58
f 57 70 71
f 57 71 68
f 58 67 66
f 58 65 59
f 59 65 72
f 59 72 60
f 60 72 73
f 62 74 77
f 62 77 75
f 62 75 64
f 62 64 63
f 64 75 72
f 64 72 65
f 68 71 69
f 72 75 76
f 72 76 73
f 75 77 76