# https://github.com/mikedh/trimesh
v 0.15979148 0.00002656 0.03422918 0.41568628 0.32156862 1.30196078
v 0.16358646 0.00002656 0.03336334 0.41568628 0.32156862 1.30196078
v 0.15437742 0.00002656 0.03422918 0.41568628 0.32156862 1.30196078
v 0.15979148 -0.14169968 0.03422918 0.41568628 0.32156862 1.30196078
v 0.16108326 -0.14169968 0.03393504 0.41568628 0.32156862 1.30196078
v 0.16507538 0.00002656 0.02978814 0.41568628 0.32156862 1.30196078
v 0.16358646 -0.14169968 0.03336334 0.41568628 0.32156862 1.30196078
v 0.14993560 0.00002656 0.03336334 0.41568628 0.32156862 1.30196078
v 0.14593008 -0.11104042 0.03403862 0.41568628 0.32156862 1.30196078
v 0.15437742 -0.14169968 0.03422918 0.41568628 0.32156862 1.30196078
v 0.16547918 -0.02980032 0.02437356 0.41568628 0.32156862 1.30196078
v 0.16547918 -0.02980032 -0.00808914 0.41568628 0.32156862 1.30196078
v 0.16297790 -0.00000118 -0.00808914 0.41568628 0.32156862 1.30196078
v 0.16297790 0.00002656 -0.00544190 0.41568628 0.32156862 1.30196078
v 0.16507538 -0.14169968 0.02978814 0.41568628 0.32156862 1.30196078
v 0.16521316 -0.14169968 0.02794876 0.41568628 0.32156862 1.30196078
v 0.14878542 0.00002656 0.03159440 0.41568628 0.32156862 1.30196078
v 0.14593008 -0.10561610 0.03379834 0.41568628 0.32156862 1.30196078
v 0.14593008 -0.11406474 0.03400134 0.41568628 0.32156862 1.30196078
v 0.14593008 -0.11645088 0.03396820 0.41568628 0.32156862 1.30196078
v 0.14987052 -0.14169968 0.03336334 0.41568628 0.32156862 1.30196078
v 0.16547918 -0.14169968 0.02437356 0.41568628 0.32156862 1.30196078
v 0.16547918 -0.14169968 -0.00808914 0.41568628 0.32156862 1.30196078
v 0.16279226 0.00002656 -0.00808914 0.41568628 0.32156862 1.30196078
v 0.14761228 0.00002656 0.02978814 0.41568628 0.32156862 1.30196078
v 0.14593008 -0.10038598 0.03328464 0.41568628 0.32156862 1.30196078
v 0.14593008 -0.12212492 0.03338820 0.41568628 0.32156862 1.30196078
v 0.14788404 -0.14169968 0.03107240 0.41568628 0.32156862 1.30196078
v 0.14593008 -0.13282100 0.03159024 0.41568628 0.32156862 1.30196078
v 0.14594348 -0.14169968 -0.00808914 0.41568628 0.32156862 1.30196078
v 0.14694628 0.00002656 -0.00808914 0.41568628 0.32156862 1.30196078
v 0.14731948 0.00002656 0.02710778 0.41568628 0.32156862 1.30196078
v 0.14593008 -0.09214544 0.03162338 0.41568628 0.32156862 1.30196078
v 0.14702092 0.00002656 0.02437356 0.41568628 0.32156862 1.30196078
v 0.14709174 -0.14169968 0.03015270 0.41568628 0.32156862 1.30196078
v 0.14593008 -0.13775976 0.02936558 0.41568628 0.32156862 1.30196078
v 0.14594348 -0.14169968 0.01895482 0.41568628 0.32156862 1.30196078
v 0.14593008 -0.13988232 -0.00808914 0.41568628 0.32156862 1.30196078
v 0.14593008 -0.08641590 -0.00808914 0.41568628 0.32156862 1.30196078
v 0.14593008 -0.08633266 0.02951058 0.41568628 0.32156862 1.30196078
v 0.14596070 -0.14169968 0.02437356 0.41568628 0.32156862 1.30196078
v 0.14593008 -0.13986846 0.02437356 0.41568628 0.32156862 1.30196078
v 0.14593008 -0.13988232 0.01895482 0.41568628 0.32156862 1.30196078
f 1 2 6
f 1 6 14
f 1 14 24
f 1 24 31
f 1 31 34
f 1 34 32
f 1 32 25
f 1 25 17
f 1 17 8
f 1 8 3
f 1 3 10
f 1 10 4
f 1 4 5
f 1 5 2
f 2 5 7
f 2 7 15
f 2 15 6
f 3 8 9
f 3 9 10
f 4 10 21
f 4 21 28
f 4 28 35
f 4 35 41
f 4 41 37
f 4 37 30
f 4 30 23
f 4 23 22
f 4 22 16
f 4 16 15
f 4 15 7
f 4 7 5
f 6 11 12
f 6 12 13
f 6 13 14
f 6 15 16
f 6 16 11
f 8 17 18
f 8 18 9
f 9 18 26
f 9 26 33
f 9 33 40
f 9 40 39
f 9 39 38
f 9 38 43
f 9 43 42
f 9 42 36
f 9 36 29
f 9 29 27
f 9 27 20
f 9 20 19
f 9 19 10
f 10 19 20
f 10 20 21
f 11 16 22
f 11 22 23
f 11 23 12
f 12 23 30
f 12 30 38
f 12 38 39
f 12 39 31
f 12 31 24
f 12 24 13
f 13 24 14
f 17 25 18
f 18 25 26
f 20 27 21
f 21 27 29
f 21 29 28
f 25 32 26
f 26 32 34
f 26 34 33
f 28 29 35
f 29 36 35
f 30 37 43
f 30 43 38
f 31 39 40
f 31 40 34
f 33 34 40
f 35 36 41
f 36 42 41
f 37 41 42
f 37 42 43