# https://github.com/mikedh/trimesh
v -0.15437466 0.14063480 0.03422918 1.88235294 1.04313726 0.82352942
v -0.14170638 0.11829384 0.03403286 1.88235294 1.04313726 0.82352942
v -0.14170638 0.12728908 0.03351976 1.88235294 1.04313726 0.82352942
v -0.14170638 0.12862770 0.03335912 1.88235294 1.04313726 0.82352942
v -0.14170638 0.13113760 0.03304680 1.88235294 1.04313726 0.82352942
v -0.14987188 0.14063480 0.03336358 1.88235294 1.04313726 0.82352942
v -0.15979196 0.14063480 0.03422918 1.88235294 1.04313726 0.82352942
v -0.15437466 0.08168976 0.03422918 1.88235294 1.04313726 0.82352942
v -0.14170638 0.11287594 0.03398824 1.88235294 1.04313726 0.82352942
v -0.14170638 0.13379750 0.03011534 1.88235294 1.04313726 0.82352942
v -0.14709342 0.14063480 0.03014658 1.88235294 1.04313726 0.82352942
v -0.14847800 0.14063480 0.03175286 1.88235294 1.04313726 0.82352942
v -0.16358730 0.14063480 0.03336358 1.88235294 1.04313726 0.82352942
v -0.15979196 0.08168976 0.03422918 1.88235294 1.04313726 0.82352942
v -0.15177538 0.08168976 0.03372500 1.88235294 1.04313726 0.82352942
v -0.14170638 0.10032644 0.03362684 1.88235294 1.04313726 0.82352942
v -0.14170638 0.10562896 0.03388116 1.88235294 1.04313726 0.82352942
v -0.14170638 0.13535538 0.02437294 1.88235294 1.04313726 0.82352942
v -0.14653262 0.14063480 0.02437294 1.88235294 1.04313726 0.82352942
v -0.16507426 0.14063480 0.02978964 1.88235294 1.04313726 0.82352942
v -0.16358730 0.08168976 0.03336358 1.88235294 1.04313726 0.82352942
v -0.14991610 0.08168976 0.03336358 1.88235294 1.04313726 0.82352942
v -0.14170638 0.09479314 0.03306910 1.88235294 1.04313726 0.82352942
v -0.14170638 0.13604198 -0.01135320 1.88235294 1.04313726 0.82352942
v -0.14283034 0.13785374 -0.01135320 1.88235294 1.04313726 0.82352942
v -0.14382630 0.13891538 -0.01135320 1.88235294 1.04313726 0.82352942
v -0.14547150 0.14063480 -0.01135320 1.88235294 1.04313726 0.82352942
v -0.16547918 0.14063480 0.02437294 1.88235294 1.04313726 0.82352942
v -0.16524414 0.08168976 0.02751854 1.88235294 1.04313726 0.82352942
v -0.16507426 0.08168976 0.02978964 1.88235294 1.04313726 0.82352942
v -0.14844078 0.08168976 0.03119958 1.88235294 1.04313726 0.82352942
v -0.14170638 0.08991182 0.03083372 1.88235294 1.04313726 0.82352942
v -0.14170638 0.09156778 0.03201610 1.88235294 1.04313726 0.82352942
v -0.14170638 0.09365070 0.03282816 1.88235294 1.04313726 0.82352942
v -0.14170638 0.08799622 -0.01135320 1.88235294 1.04313726 0.82352942
v -0.16547918 0.14063480 -0.01135320 1.88235294 1.04313726 0.82352942
v -0.16547918 0.08168976 0.02437294 1.88235294 1.04313726 0.82352942
v -0.14736802 0.08168976 0.02954870 1.88235294 1.04313726 0.82352942
v -0.14170638 0.08951948 0.02974948 1.88235294 1.04313726 0.82352942
v -0.14170638 0.08853860 0.02437294 1.88235294 1.04313726 0.82352942
v -0.14612074 0.08168976 -0.01135320 1.88235294 1.04313726 0.82352942
v -0.16547918 0.08168976 -0.01135320 1.88235294 1.04313726 0.82352942
v -0.14701432 0.08168976 0.02647000 1.88235294 1.04313726 0.82352942
v -0.14170638 0.08865976 0.02634954 1.88235294 1.04313726 0.82352942
v -0.14678626 0.08168976 0.02437294 1.88235294 1.04313726 0.82352942
f 1 2 3
f 1 3 4
f 1 4 5
f 1 5 6
f 1 6 12
f 1 12 11
f 1 11 19
f 1 19 27
f 1 27 36
f 1 36 28
f 1 28 20
f 1 20 13
f 1 13 7
f 1 7 14
f 1 14 8
f 1 8 2
f 2 9 17
f 2 17 16
f 2 16 23
f 2 23 34
f 2 34 33
f 2 33 32
f 2 32 39
f 2 39 44
f 2 44 40
f 2 40 35
f 2 35 24
f 2 24 18
f 2 18 10
f 2 10 5
f 2 5 4
f 2 4 3
f 2 8 9
f 5 10 11
f 5 11 12
f 5 12 6
f 7 13 21
f 7 21 14
f 8 14 21
f 8 21 30
f 8 30 29
f 8 29 37
f 8 37 42
f 8 42 41
f 8 41 45
f 8 45 43
f 8 43 38
f 8 38 31
f 8 31 22
f 8 22 15
f 8 15 16
f 8 16 17
f 8 17 9
f 10 18 11
f 11 18 19
f 13 20 30
f 13 30 21
f 15 22 16
f 16 22 23
f 18 24 25
f 18 25 19
f 19 25 26
f 19 26 27
f 20 28 29
f 20 29 30
f 22 31 32
f 22 32 33
f 22 33 34
f 22 34 23
f 24 35 41
f 24 41 42
f 24 42 36
f 24 36 27
f 24 27 26
f 24 26 25
f 28 36 42
f 28 42 37
f 28 37 29
f 31 38 32
f 32 38 39
f 35 40 41
f 38 43 44
f 38 44 39
f 40 44 45
f 40 45 41
f 43 45 44