# https://github.com/mikedh/trimesh
v -0.07656336 0.11104132 -0.01135320 1.44313726 0.99607844 1.90588236
v -0.07699652 0.10562476 -0.01135320 1.44313726 0.99607844 1.90588236
v -0.07660690 0.11301616 -0.01135320 1.44313726 0.99607844 1.90588236
v -0.07719362 0.11104132 0.02437294 1.44313726 0.99607844 1.90588236
v -0.07808976 0.10020968 -0.01135320 1.44313726 0.99607844 1.90588236
v -0.07783536 0.10562476 0.02437294 1.44313726 0.99607844 1.90588236
v -0.09419968 0.11301616 -0.01135320 1.44313726 0.99607844 1.90588236
v -0.07726238 0.11301616 0.02437294 1.44313726 0.99607844 1.90588236
v -0.07784454 0.11301616 0.02978964 1.44313726 0.99607844 1.90588236
v -0.07778494 0.11104132 0.02978964 1.44313726 0.99607844 1.90588236
v -0.07830520 0.10562476 0.02978964 1.44313726 0.99607844 1.90588236
v -0.07884840 0.09806210 -0.01135320 1.44313726 0.99607844 1.90588236
v -0.07938470 0.10020968 0.02437294 1.44313726 0.99607844 1.90588236
v -0.07964598 0.10020968 0.02978964 1.44313726 0.99607844 1.90588236
v -0.09887520 0.09806210 -0.01135320 1.44313726 0.99607844 1.90588236
v -0.09997532 0.09806210 0.00271060 1.44313726 0.99607844 1.90588236
v -0.09301704 0.11301616 0.00756064 1.44313726 0.99607844 1.90588236
v -0.07983850 0.11301616 0.03336358 1.44313726 0.99607844 1.90588236
v -0.07981558 0.11104132 0.03336358 1.44313726 0.99607844 1.90588236
v -0.08001268 0.10562476 0.03335912 1.44313726 0.99607844 1.90588236
v -0.08058108 0.10020968 0.03306464 1.44313726 0.99607844 1.90588236
v -0.08093174 0.09806210 0.03279246 1.44313726 0.99607844 1.90588236
v -0.08065672 0.09806210 0.03183316 1.44313726 0.99607844 1.90588236
v -0.08035648 0.09806210 0.02783534 1.44313726 0.99607844 1.90588236
v -0.08045274 0.09806210 0.02978964 1.44313726 0.99607844 1.90588236
v -0.09587508 0.09806210 0.02978964 1.44313726 0.99607844 1.90588236
v -0.09025986 0.11301616 0.02978964 1.44313726 0.99607844 1.90588236
v -0.08395938 0.11301616 0.03422918 1.44313726 0.99607844 1.90588236
v -0.08395938 0.11104132 0.03422918 1.44313726 0.99607844 1.90588236
v -0.08395938 0.10562476 0.03422472 1.44313726 0.99607844 1.90588236
v -0.08395938 0.10020968 0.03392578 1.44313726 0.99607844 1.90588236
v -0.08398230 0.09806210 0.03365806 1.44313726 0.99607844 1.90588236
v -0.08203416 0.09806210 0.03315834 1.44313726 0.99607844 1.90588236
v -0.09538230 0.09806210 0.03098542 1.44313726 0.99607844 1.90588236
v -0.08817422 0.11301616 0.03336358 1.44313726 0.99607844 1.90588236
v -0.09164648 0.09806210 0.03373392 1.44313726 0.99607844 1.90588236
v -0.08937518 0.09806210 0.03400610 1.44313726 0.99607844 1.90588236
v -0.08610920 0.09806210 0.03404178 1.44313726 0.99607844 1.90588236
v -0.09380546 0.09806210 0.03322080 1.44313726 0.99607844 1.90588236
f 1 2 5
f 1 5 12
f 1 12 15
f 1 15 7
f 1 7 3
f 1 3 4
f 1 4 2
f 2 4 6
f 2 6 5
f 3 7 17
f 3 17 27
f 3 27 35
f 3 35 28
f 3 28 18
f 3 18 9
f 3 9 8
f 3 8 4
f 4 8 9
f 4 9 10
f 4 10 11
f 4 11 6
f 5 6 13
f 5 13 12
f 6 11 14
f 6 14 13
f 7 15 16
f 7 16 17
f 9 18 10
f 10 18 19
f 10 19 20
f 10 20 11
f 11 20 21
f 11 21 22
f 11 22 23
f 11 23 14
f 12 13 24
f 12 24 25
f 12 25 23
f 12 23 22
f 12 22 33
f 12 33 32
f 12 32 38
f 12 38 37
f 12 37 36
f 12 36 39
f 12 39 34
f 12 34 26
f 12 26 16
f 12 16 15
f 13 14 24
f 14 25 24
f 14 23 25
f 16 26 27
f 16 27 17
f 18 28 19
f 19 28 29
f 19 29 30
f 19 30 20
f 20 30 31
f 20 31 21
f 21 31 32
f 21 32 33
f 21 33 22
f 26 34 27
f 27 34 35
f 28 36 37
f 28 37 29
f 28 35 36
f 29 37 30
f 30 37 38
f 30 38 31
f 31 38 32
f 34 39 35
f 35 39 36