# https://github.com/mikedh/trimesh
v 0.16547682 -0.14170014 0.02437356 0.82352942 0.12549020 1.38039216
v 0.16521202 -0.14170014 0.02794876 0.82352942 0.12549020 1.38039216
v 0.16547682 -0.14631262 0.02437356 0.82352942 0.12549020 1.38039216
v 0.16547682 -0.14170014 -0.00808914 0.82352942 0.12549020 1.38039216
v 0.16527114 -0.14631262 0.02714506 0.82352942 0.12549020 1.38039216
v 0.16507490 -0.14170014 0.02978814 0.82352942 0.12549020 1.38039216
v 0.16507490 -0.14631262 0.02978814 0.82352942 0.12549020 1.38039216
v 0.16547682 -0.14631262 -0.00808914 0.82352942 0.12549020 1.38039216
v 0.14594420 -0.14170014 -0.00808914 0.82352942 0.12549020 1.38039216
v 0.16409380 -0.14170014 0.03214538 0.82352942 0.12549020 1.38039216
v 0.16358550 -0.14631262 0.03336334 0.82352942 0.12549020 1.38039216
v 0.14133174 -0.14631262 -0.00808914 0.82352942 0.12549020 1.38039216
v 0.14132702 -0.14631262 -0.00765828 0.82352942 0.12549020 1.38039216
v 0.14594420 -0.14170014 0.01895482 0.82352942 0.12549020 1.38039216
v 0.16358550 -0.14170014 0.03336334 0.82352942 0.12549020 1.38039216
v 0.16164452 -0.14631262 0.03380662 0.82352942 0.12549020 1.38039216
v 0.14133174 -0.14631262 0.01895482 0.82352942 0.12549020 1.38039216
v 0.14596074 -0.14170014 0.02437356 0.82352942 0.12549020 1.38039216
v 0.16108186 -0.14170014 0.03393504 0.82352942 0.12549020 1.38039216
v 0.15979104 -0.14631262 0.03422918 0.82352942 0.12549020 1.38039216
v 0.14134828 -0.14631262 0.02437356 0.82352942 0.12549020 1.38039216
v 0.14709318 -0.14170014 0.03015270 0.82352942 0.12549020 1.38039216
v 0.15979104 -0.14170014 0.03422918 0.82352942 0.12549020 1.38039216
v 0.15437476 -0.14631262 0.03422918 0.82352942 0.12549020 1.38039216
v 0.14153742 -0.14631262 0.02486240 0.82352942 0.12549020 1.38039216
v 0.14390394 -0.14631262 0.03015686 0.82352942 0.12549020 1.38039216
v 0.14788516 -0.14170014 0.03107240 0.82352942 0.12549020 1.38039216
v 0.14361314 -0.14631262 0.02965972 0.82352942 0.12549020 1.38039216
v 0.15437476 -0.14170014 0.03422918 0.82352942 0.12549020 1.38039216
v 0.15139356 -0.14631262 0.03386048 0.82352942 0.12549020 1.38039216
v 0.14729412 -0.14631262 0.03238566 0.82352942 0.12549020 1.38039216
v 0.14987106 -0.14170014 0.03336334 0.82352942 0.12549020 1.38039216
v 0.14928238 -0.14631262 0.03345450 0.82352942 0.12549020 1.38039216
f 1 2 3
f 1 3 8
f 1 8 4
f 1 4 9
f 1 9 14
f 1 14 18
f 1 18 22
f 1 22 27
f 1 27 32
f 1 32 29
f 1 29 23
f 1 23 19
f 1 19 15
f 1 15 10
f 1 10 6
f 1 6 2
f 2 5 3
f 2 6 7
f 2 7 5
f 3 5 7
f 3 7 11
f 3 11 16
f 3 16 20
f 3 20 24
f 3 24 30
f 3 30 33
f 3 33 31
f 3 31 26
f 3 26 28
f 3 28 25
f 3 25 21
f 3 21 17
f 3 17 13
f 3 13 12
f 3 12 8
f 4 8 12
f 4 12 9
f 6 10 7
f 7 10 11
f 9 12 13
f 9 13 14
f 10 15 11
f 11 15 16
f 13 17 14
f 14 17 21
f 14 21 18
f 15 19 16
f 16 19 20
f 18 21 22
f 19 23 20
f 20 23 29
f 20 29 24
f 21 25 22
f 22 26 27
f 22 25 28
f 22 28 26
f 24 29 30
f 26 31 32
f 26 32 27
f 29 32 30
f 30 32 33
f 31 33 32