# https://github.com/mikedh/trimesh
v 0.10165740 0.07895940 -0.00391172 0.98823530 1.27843138 0.72941176
v 0.10442356 0.07816862 -0.00391172 0.98823530 1.27843138 0.72941176
v 0.10165740 0.07896890 0.00848130 0.98823530 1.27843138 0.72941176
v 0.10165740 0.09624318 -0.00391172 0.98823530 1.27843138 0.72941176
v 0.10562606 0.07783106 -0.00391172 0.98823530 1.27843138 0.72941176
v 0.10562606 0.07783484 0.00848130 0.98823530 1.27843138 0.72941176
v 0.10165740 0.09458194 0.00848130 0.98823530 1.27843138 0.72941176
v 0.10165740 0.09655420 -0.00271076 0.98823530 1.27843138 0.72941176
v 0.11612704 0.09314446 -0.00230922 0.98823530 1.27843138 0.72941176
v 0.11612704 0.09239160 -0.00391172 0.98823530 1.27843138 0.72941176
v 0.10983836 0.07732852 -0.00391172 0.98823530 1.27843138 0.72941176
v 0.11104226 0.07718058 0.00812464 0.98823530 1.27843138 0.72941176
v 0.11104226 0.07718058 0.00848130 0.98823530 1.27843138 0.72941176
v 0.10598300 0.07779124 0.00848130 0.98823530 1.27843138 0.72941176
v 0.11612704 0.09162356 0.00848130 0.98823530 1.27843138 0.72941176
v 0.11612704 0.09323360 0.00309028 0.98823530 1.27843138 0.72941176
v 0.10165740 0.09500862 0.00663618 0.98823530 1.27843138 0.72941176
v 0.11612420 0.09323550 0.00308300 0.98823530 1.27843138 0.72941176
v 0.11612704 0.09315016 -0.00199260 0.98823530 1.27843138 0.72941176
v 0.11612704 0.07737970 -0.00391172 0.98823530 1.27843138 0.72941176
v 0.11104226 0.07718628 -0.00391172 0.98823530 1.27843138 0.72941176
v 0.11612704 0.07737782 0.00779226 0.98823530 1.27843138 0.72941176
v 0.11612704 0.07737782 0.00848130 0.98823530 1.27843138 0.72941176
v 0.11612704 0.09323360 0.00303812 0.98823530 1.27843138 0.72941176
f 1 2 3
f 1 3 7
f 1 7 17
f 1 17 8
f 1 8 4
f 1 4 10
f 1 10 20
f 1 20 21
f 1 21 11
f 1 11 5
f 1 5 2
f 2 5 6
f 2 6 3
f 3 6 14
f 3 14 13
f 3 13 23
f 3 23 15
f 3 15 7
f 4 8 9
f 4 9 10
f 5 11 12
f 5 12 13
f 5 13 14
f 5 14 6
f 7 15 16
f 7 16 17
f 8 18 19
f 8 19 9
f 8 17 18
f 9 19 24
f 9 24 16
f 9 16 15
f 9 15 23
f 9 23 22
f 9 22 20
f 9 20 10
f 11 21 12
f 12 22 23
f 12 23 13
f 12 21 20
f 12 20 22
f 16 24 18
f 16 18 17
f 18 24 19