# https://github.com/mikedh/trimesh
v -0.07778000 -0.14033198 -0.01475624 0.27450980 0.39215686 0.73725490
v -0.07778000 -0.16547772 -0.01475624 0.27450980 0.39215686 0.73725490
v -0.07778000 -0.14636054 -0.01135352 0.27450980 0.39215686 0.73725490
v -0.00002608 -0.14636054 -0.01135352 0.27450980 0.39215686 0.73725490
v -0.00002608 -0.14064706 -0.01475624 0.27450980 0.39215686 0.73725490
v -0.07778000 -0.16547772 -0.01135352 0.27450980 0.39215686 0.73725490
v -0.02979268 -0.16547772 -0.01475624 0.27450980 0.39215686 0.73725490
v -0.00002608 -0.16297668 -0.01135352 0.27450980 0.39215686 0.73725490
v -0.00002608 -0.16302100 -0.01475624 0.27450980 0.39215686 0.73725490
v -0.02979268 -0.16547772 -0.01135352 0.27450980 0.39215686 0.73725490
f 1 2 6
f 1 6 3
f 1 3 4
f 1 4 5
f 1 5 9
f 1 9 7
f 1 7 2
f 2 7 10
f 2 10 6
f 3 6 10
f 3 10 8
f 3 8 4
f 4 8 9
f 4 9 5
f 7 9 10
f 8 10 9