# https://github.com/mikedh/trimesh
v -0.08046010 -0.14624580 -0.01135320 0.04705882 0.13333334 1.35686274
v -0.10891094 -0.14624580 -0.01135320 0.04705882 0.13333334 1.35686274
v -0.08799130 -0.14060866 -0.01135320 0.04705882 0.13333334 1.35686274
v -0.08853440 -0.14060866 0.02437140 0.04705882 0.13333334 1.35686274
v -0.08928084 -0.14060866 0.02976632 0.04705882 0.13333334 1.35686274
v -0.08637310 -0.14624580 0.02735772 0.04705882 0.13333334 1.35686274
v -0.10891094 -0.14060866 -0.01135320 0.04705882 0.13333334 1.35686274
v -0.10891094 -0.14624580 0.03394360 0.04705882 0.13333334 1.35686274
v -0.09159534 -0.14060866 0.03266374 0.04705882 0.13333334 1.35686274
v -0.08952316 -0.14624580 0.03070842 0.04705882 0.13333334 1.35686274
v -0.10891094 -0.14060866 0.03400580 0.04705882 0.13333334 1.35686274
v -0.10562440 -0.14624580 0.03379694 0.04705882 0.13333334 1.35686274
v -0.10269160 -0.14060866 0.03402802 0.04705882 0.13333334 1.35686274
v -0.10891094 -0.14141160 0.03404136 0.04705882 0.13333334 1.35686274
v -0.09313834 -0.14060866 0.03300592 0.04705882 0.13333334 1.35686274
v -0.09478998 -0.14624580 0.03213492 0.04705882 0.13333334 1.35686274
v -0.10810602 -0.14060866 0.03404580 0.04705882 0.13333334 1.35686274
v -0.10290606 -0.14624580 0.03353032 0.04705882 0.13333334 1.35686274
v -0.09726880 -0.14060866 0.03360586 0.04705882 0.13333334 1.35686274
v -0.10039658 -0.14624580 0.03328146 0.04705882 0.13333334 1.35686274
v -0.09478998 -0.14060866 0.03331256 0.04705882 0.13333334 1.35686274
f 1 2 7
f 1 7 3
f 1 3 4
f 1 4 5
f 1 5 6
f 1 6 10
f 1 10 16
f 1 16 20
f 1 20 18
f 1 18 12
f 1 12 8
f 1 8 2
f 2 8 14
f 2 14 11
f 2 11 7
f 3 7 11
f 3 11 17
f 3 17 13
f 3 13 19
f 3 19 21
f 3 21 15
f 3 15 9
f 3 9 5
f 3 5 4
f 5 9 6
f 6 9 10
f 8 12 13
f 8 13 14
f 9 15 16
f 9 16 10
f 11 14 17
f 12 18 19
f 12 19 13
f 13 17 14
f 15 20 16
f 15 21 20
f 18 20 19
f 19 20 21