# https://github.com/mikedh/trimesh
v -0.14062888 -0.11110790 -0.01475624 1.16078432 1.75686274 1.38039216
v -0.12790268 -0.11110790 -0.01475624 1.16078432 1.75686274 1.38039216
v -0.14062888 -0.11110790 -0.01135352 1.16078432 1.75686274 1.38039216
v -0.14062888 -0.07568590 -0.01475624 1.16078432 1.75686274 1.38039216
v -0.13184210 -0.11110790 -0.01135352 1.16078432 1.75686274 1.38039216
v -0.11070990 -0.09924686 -0.01475624 1.16078432 1.75686274 1.38039216
v -0.14062888 -0.08797516 -0.01135352 1.16078432 1.75686274 1.38039216
v -0.13720204 -0.08492250 -0.01135352 1.16078432 1.75686274 1.38039216
v -0.12743992 -0.07908824 -0.01135352 1.16078432 1.75686274 1.38039216
v -0.12187790 -0.07741064 -0.01135352 1.16078432 1.75686274 1.38039216
v -0.11645938 -0.07121886 -0.01475624 1.16078432 1.75686274 1.38039216
v -0.11070990 -0.09498020 -0.01135352 1.16078432 1.75686274 1.38039216
v -0.11070990 -0.07097528 -0.01475624 1.16078432 1.75686274 1.38039216
v -0.11645938 -0.07668774 -0.01135352 1.16078432 1.75686274 1.38039216
v -0.11104380 -0.07097528 -0.01475624 1.16078432 1.75686274 1.38039216
v -0.11070990 -0.07659346 -0.01135352 1.16078432 1.75686274 1.38039216
v -0.11104380 -0.07656596 -0.01135352 1.16078432 1.75686274 1.38039216
f 1 2 5
f 1 5 3
f 1 3 7
f 1 7 4
f 1 4 11
f 1 11 15
f 1 15 13
f 1 13 6
f 1 6 2
f 2 6 5
f 3 5 12
f 3 12 16
f 3 16 17
f 3 17 14
f 3 14 10
f 3 10 9
f 3 9 8
f 3 8 7
f 4 8 9
f 4 9 10
f 4 10 11
f 4 7 8
f 5 6 12
f 6 13 16
f 6 16 12
f 10 14 11
f 11 14 15
f 13 15 17
f 13 17 16
f 14 17 15