# https://github.com/mikedh/trimesh
v 0.07145210 0.11104478 -0.01461260 0.54117648 0.73725490 0.39215686
v 0.07145492 0.11083854 -0.01461260 0.54117648 0.73725490 0.39215686
v 0.07697414 0.11104478 -0.00925414 0.54117648 0.73725490 0.39215686
v 0.07713746 0.11646022 -0.00925414 0.54117648 0.73725490 0.39215686
v 0.07174496 0.11646022 -0.01461260 0.54117648 0.73725490 0.39215686
v 0.07698822 0.11083854 -0.00925414 0.54117648 0.73725490 0.39215686
v 0.09707988 0.11083854 -0.01461260 0.54117648 0.73725490 0.39215686
v 0.07805546 0.12187858 -0.00925414 0.54117648 0.73725490 0.39215686
v 0.07644474 0.14093864 -0.01461260 0.54117648 0.73725490 0.39215686
v 0.09194642 0.11083854 -0.00925414 0.54117648 0.73725490 0.39215686
v 0.10021682 0.12070298 -0.01461260 0.54117648 0.73725490 0.39215686
v 0.10021682 0.12660750 -0.00925414 0.54117648 0.73725490 0.39215686
v 0.07980978 0.12707008 -0.00925414 0.54117648 0.73725490 0.39215686
v 0.08320860 0.13270648 -0.00925414 0.54117648 0.73725490 0.39215686
v 0.08831950 0.14093864 -0.00925414 0.54117648 0.73725490 0.39215686
v 0.10021682 0.14093864 -0.01461260 0.54117648 0.73725490 0.39215686
v 0.10021682 0.14093864 -0.00925414 0.54117648 0.73725490 0.39215686
f 1 2 3
f 1 3 4
f 1 4 5
f 1 5 9
f 1 9 16
f 1 16 11
f 1 11 7
f 1 7 2
f 2 6 3
f 2 7 10
f 2 10 6
f 3 6 10
f 3 10 12
f 3 12 17
f 3 17 15
f 3 15 14
f 3 14 13
f 3 13 8
f 3 8 4
f 4 8 5
f 5 8 9
f 7 11 12
f 7 12 10
f 8 13 9
f 9 13 14
f 9 14 15
f 9 15 17
f 9 17 16
f 11 16 17
f 11 17 12