# https://github.com/mikedh/trimesh
v -0.08076628 0.12925090 -0.01133982 0.26666666 0.59607844 1.13725490
v -0.08430290 0.12925090 -0.01135320 0.26666666 0.59607844 1.13725490
v -0.08106610 0.13006788 -0.01135320 0.26666666 0.59607844 1.13725490
v -0.08567654 0.14423384 -0.01135320 0.26666666 0.59607844 1.13725490
v -0.08131084 0.12925090 0.02437188 0.26666666 0.59607844 1.13725490
v -0.10651998 0.12925090 -0.01135320 0.26666666 0.59607844 1.13725490
v -0.11201766 0.14423384 -0.01135320 0.26666666 0.59607844 1.13725490
v -0.08793742 0.14423384 0.02519730 0.26666666 0.59607844 1.13725490
v -0.08163208 0.12925090 0.02978842 0.26666666 0.59607844 1.13725490
v -0.11201766 0.13065164 -0.01135320 0.26666666 0.59607844 1.13725490
v -0.10312716 0.12925090 0.00809548 0.26666666 0.59607844 1.13725490
v -0.11201766 0.14423384 0.03402706 0.26666666 0.59607844 1.13725490
v -0.08909692 0.14423384 0.02967688 0.26666666 0.59607844 1.13725490
v -0.08169632 0.12938290 0.02978842 0.26666666 0.59607844 1.13725490
v -0.08640774 0.13570464 0.03272424 0.26666666 0.59607844 1.13725490
v -0.08545934 0.13270952 0.03309902 0.26666666 0.59607844 1.13725490
v -0.08428454 0.12925090 0.03334888 0.26666666 0.59607844 1.13725490
v -0.11201766 0.13171652 0.00812672 0.26666666 0.59607844 1.13725490
v -0.09831478 0.12925090 0.02978842 0.26666666 0.59607844 1.13725490
v -0.11201766 0.14354154 0.03402706 0.26666666 0.59607844 1.13725490
v -0.10020852 0.13812478 0.03422784 0.26666666 0.59607844 1.13725490
v -0.11104172 0.14423384 0.03403598 0.26666666 0.59607844 1.13725490
v -0.09479344 0.14423384 0.03230930 0.26666666 0.59607844 1.13725490
v -0.09195742 0.14123578 0.03259484 0.26666666 0.59607844 1.13725490
v -0.08984340 0.13775516 0.03303656 0.26666666 0.59607844 1.13725490
v -0.08937838 0.13270952 0.03396460 0.26666666 0.59607844 1.13725490
v -0.08937838 0.12925090 0.03406722 0.26666666 0.59607844 1.13725490
v -0.11201766 0.13435962 0.02978842 0.26666666 0.59607844 1.13725490
v -0.09727460 0.12925090 0.03286702 0.26666666 0.59607844 1.13725490
v -0.11201766 0.14256320 0.03401368 0.26666666 0.59607844 1.13725490
v -0.10562360 0.13812478 0.03404938 0.26666666 0.59607844 1.13725490
v -0.09479344 0.13812478 0.03386644 0.26666666 0.59607844 1.13725490
v -0.10562360 0.14423384 0.03380844 0.26666666 0.59607844 1.13725490
v -0.11035030 0.14423384 0.03400922 0.26666666 0.59607844 1.13725490
v -0.10037372 0.14423384 0.03329088 0.26666666 0.59607844 1.13725490
v -0.09479344 0.14206156 0.03300086 0.26666666 0.59607844 1.13725490
v -0.11201766 0.13812478 0.03381736 0.26666666 0.59607844 1.13725490
v -0.09464660 0.12925090 0.03350504 0.26666666 0.59607844 1.13725490
v -0.11201766 0.13484804 0.03236730 0.26666666 0.59607844 1.13725490
v -0.11201766 0.13498738 0.03295178 0.26666666 0.59607844 1.13725490
v -0.11201766 0.13753808 0.03366120 0.26666666 0.59607844 1.13725490
f 1 2 3
f 1 3 4
f 1 4 5
f 1 5 9
f 1 9 17
f 1 17 27
f 1 27 38
f 1 38 29
f 1 29 19
f 1 19 11
f 1 11 6
f 1 6 2
f 2 6 10
f 2 10 7
f 2 7 4
f 2 4 3
f 4 7 12
f 4 12 22
f 4 22 34
f 4 34 33
f 4 33 35
f 4 35 23
f 4 23 13
f 4 13 8
f 4 8 9
f 4 9 5
f 6 11 10
f 7 10 18
f 7 18 28
f 7 28 39
f 7 39 40
f 7 40 41
f 7 41 37
f 7 37 30
f 7 30 20
f 7 20 12
f 8 13 14
f 8 14 9
f 9 14 15
f 9 15 16
f 9 16 17
f 10 11 18
f 11 19 18
f 12 20 21
f 12 21 22
f 13 23 24
f 13 24 15
f 13 15 14
f 15 24 25
f 15 25 26
f 15 26 16
f 16 26 17
f 17 26 27
f 18 19 28
f 19 29 28
f 20 30 21
f 21 31 27
f 21 27 26
f 21 26 32
f 21 32 33
f 21 33 34
f 21 34 22
f 21 30 31
f 23 35 36
f 23 36 24
f 24 36 25
f 25 36 32
f 25 32 26
f 27 31 37
f 27 37 38
f 28 29 39
f 29 40 39
f 29 38 40
f 30 37 31
f 32 35 33
f 32 36 35
f 37 41 38
f 38 41 40