# https://github.com/mikedh/trimesh
v 0.09272314 -0.11648658 -0.00809328 0.16470588 1.09803922 1.16862746
v 0.09200114 -0.11648658 -0.01150670 0.16470588 1.09803922 1.16862746
v 0.07737294 -0.11648658 -0.00809328 0.16470588 1.09803922 1.16862746
v 0.11104150 -0.13346222 -0.00809328 0.16470588 1.09803922 1.16862746
v 0.11227970 -0.13343186 -0.00810062 0.16470588 1.09803922 1.16862746
v 0.11227970 -0.13308276 -0.00919456 0.16470588 1.09803922 1.16862746
v 0.11227970 -0.13239542 -0.01150670 0.16470588 1.09803922 1.16862746
v 0.07664748 -0.11648658 -0.01150670 0.16470588 1.09803922 1.16862746
v 0.07715670 -0.12079066 -0.01150670 0.16470588 1.09803922 1.16862746
v 0.07840188 -0.12184446 -0.00809328 0.16470588 1.09803922 1.16862746
v 0.11227970 -0.13821080 -0.00809328 0.16470588 1.09803922 1.16862746
v 0.11227970 -0.13863796 -0.01150670 0.16470588 1.09803922 1.16862746
v 0.07736598 -0.12187698 -0.01150670 0.16470588 1.09803922 1.16862746
v 0.07840886 -0.12187698 -0.00809328 0.16470588 1.09803922 1.16862746
v 0.11227970 -0.13863796 -0.00809328 0.16470588 1.09803922 1.16862746
v 0.08658098 -0.13863796 -0.01150670 0.16470588 1.09803922 1.16862746
v 0.07859022 -0.12620708 -0.01150670 0.16470588 1.09803922 1.16862746
v 0.08018768 -0.12684890 -0.00809328 0.16470588 1.09803922 1.16862746
v 0.08860742 -0.13863796 -0.00809328 0.16470588 1.09803922 1.16862746
v 0.08784708 -0.13863796 -0.00893460 0.16470588 1.09803922 1.16862746
v 0.08572644 -0.13817394 -0.01150670 0.16470588 1.09803922 1.16862746
v 0.07903668 -0.12745386 -0.01150670 0.16470588 1.09803922 1.16862746
v 0.07935756 -0.12813254 -0.01150670 0.16470588 1.09803922 1.16862746
v 0.08147820 -0.12955494 -0.00809328 0.16470588 1.09803922 1.16862746
v 0.08606826 -0.13607502 -0.00809328 0.16470588 1.09803922 1.16862746
v 0.08838072 -0.13863796 -0.00809528 0.16470588 1.09803922 1.16862746
v 0.08488238 -0.13723724 -0.01150670 0.16470588 1.09803922 1.16862746
v 0.08402434 -0.13607502 -0.01150670 0.16470588 1.09803922 1.16862746
v 0.08358488 -0.13270766 -0.00809328 0.16470588 1.09803922 1.16862746
f 1 2 8
f 1 8 3
f 1 3 10
f 1 10 14
f 1 14 18
f 1 18 24
f 1 24 29
f 1 29 25
f 1 25 19
f 1 19 15
f 1 15 11
f 1 11 4
f 1 4 5
f 1 5 6
f 1 6 7
f 1 7 2
f 2 7 12
f 2 12 16
f 2 16 21
f 2 21 27
f 2 27 28
f 2 28 23
f 2 23 22
f 2 22 17
f 2 17 13
f 2 13 9
f 2 9 8
f 3 8 9
f 3 9 10
f 4 11 5
f 5 11 15
f 5 15 12
f 5 12 7
f 5 7 6
f 9 13 10
f 10 13 14
f 12 15 19
f 12 19 26
f 12 26 20
f 12 20 16
f 13 17 14
f 14 17 18
f 16 20 21
f 17 22 18
f 18 22 23
f 18 23 24
f 19 25 26
f 20 26 21
f 21 26 25
f 21 25 27
f 23 28 24
f 24 28 29
f 25 29 28
f 25 28 27