# https://github.com/mikedh/trimesh
v -0.07402384 -0.12534288 -0.01475624 0.36862746 1.88235294 1.47450980
v -0.07849074 -0.12534288 -0.01135352 0.36862746 1.88235294 1.47450980
v -0.07449424 -0.12738294 -0.01475624 0.36862746 1.88235294 1.47450980
v -0.10366192 -0.12534288 -0.01475624 0.36862746 1.88235294 1.47450980
v -0.07908680 -0.12742692 -0.01135352 0.36862746 1.88235294 1.47450980
v -0.09696516 -0.12534288 -0.01135352 0.36862746 1.88235294 1.47450980
v -0.07698622 -0.13270836 -0.01475624 0.36862746 1.88235294 1.47450980
v -0.11070696 -0.12856434 -0.01475624 0.36862746 1.88235294 1.47450980
v -0.08325566 -0.13381842 -0.01135352 0.36862746 1.88235294 1.47450980
v -0.11070696 -0.13246362 -0.01135352 0.36862746 1.88235294 1.47450980
v -0.07787672 -0.13381842 -0.01475624 0.36862746 1.88235294 1.47450980
v -0.11070696 -0.13381842 -0.01475624 0.36862746 1.88235294 1.47450980
v -0.11070696 -0.13381842 -0.01135352 0.36862746 1.88235294 1.47450980
f 1 2 3
f 1 3 7
f 1 7 11
f 1 11 12
f 1 12 8
f 1 8 4
f 1 4 6
f 1 6 2
f 2 5 3
f 2 6 10
f 2 10 13
f 2 13 9
f 2 9 5
f 3 5 7
f 4 8 6
f 5 9 7
f 6 8 10
f 7 9 11
f 8 12 13
f 8 13 10
f 9 13 12
f 9 12 11