# https://github.com/mikedh/trimesh
v 0.10006246 0.12722232 0.01341148 1.74117648 0.58039216 1.69411764
v 0.09284068 0.11292336 0.01771988 1.74117648 0.58039216 1.69411764
v 0.09312642 0.11292336 0.01621530 1.74117648 0.58039216 1.69411764
v 0.09342110 0.11292336 0.01354588 1.74117648 0.58039216 1.69411764
v 0.09300140 0.11284596 -0.00391172 1.74117648 0.58039216 1.69411764
v 0.09920076 0.12682266 -0.00391172 1.74117648 0.58039216 1.69411764
v 0.09975216 0.12722232 0.00865134 1.74117648 0.58039216 1.69411764
v 0.09638124 0.12722232 0.02979012 1.74117648 0.58039216 1.69411764
v 0.09025334 0.11292336 0.02979012 1.74117648 0.58039216 1.69411764
v 0.09213300 0.11284596 0.00848334 1.74117648 0.58039216 1.69411764
v 0.09297238 0.11284596 -0.00221674 1.74117648 0.58039216 1.69411764
v 0.07726306 0.11284596 -0.00391172 1.74117648 0.58039216 1.69411764
v 0.08020088 0.12682266 -0.00391172 1.74117648 0.58039216 1.69411764
v 0.09964054 0.12722232 0.00848334 1.74117648 0.58039216 1.69411764
v 0.09622274 0.12722232 0.03040988 1.74117648 0.58039216 1.69411764
v 0.08892730 0.11292336 0.03212352 1.74117648 0.58039216 1.69411764
v 0.07725860 0.11284596 0.00848334 1.74117648 0.58039216 1.69411764
v 0.08817274 0.11292336 0.03335930 1.74117648 0.58039216 1.69411764
v 0.08546262 0.11292336 0.03392678 1.74117648 0.58039216 1.69411764
v 0.08396024 0.11292336 0.03422918 1.74117648 0.58039216 1.69411764
v 0.07725860 0.11284596 0.00271142 1.74117648 0.58039216 1.69411764
v 0.07739030 0.11645976 -0.00391172 1.74117648 0.58039216 1.69411764
v 0.08038618 0.12722232 0.00848334 1.74117648 0.58039216 1.69411764
v 0.07843060 0.12187482 -0.00391172 1.74117648 0.58039216 1.69411764
v 0.07843730 0.12187482 0.02437288 1.74117648 0.58039216 1.69411764
v 0.08022544 0.12687052 0.02437288 1.74117648 0.58039216 1.69411764
v 0.08038618 0.12722232 0.02437288 1.74117648 0.58039216 1.69411764
v 0.09438550 0.12722232 0.03323610 1.74117648 0.58039216 1.69411764
v 0.07726084 0.11292336 0.02437288 1.74117648 0.58039216 1.69411764
v 0.08125234 0.11292336 0.03366170 1.74117648 0.58039216 1.69411764
v 0.07983924 0.11292336 0.03335930 1.74117648 0.58039216 1.69411764
v 0.07851320 0.11292336 0.03102962 1.74117648 0.58039216 1.69411764
v 0.07784348 0.11292336 0.02979012 1.74117648 0.58039216 1.69411764
v 0.07745728 0.11292336 0.02625080 1.74117648 0.58039216 1.69411764
v 0.09423592 0.12722232 0.03328090 1.74117648 0.58039216 1.69411764
v 0.08930458 0.12722232 0.03412466 1.74117648 0.58039216 1.69411764
v 0.08396024 0.11646116 0.03422918 1.74117648 0.58039216 1.69411764
v 0.08937600 0.12722232 0.03411346 1.74117648 0.58039216 1.69411764
v 0.07726084 0.11292336 0.00848334 1.74117648 0.58039216 1.69411764
v 0.07738584 0.11645976 0.00271142 1.74117648 0.58039216 1.69411764
v 0.07738584 0.11646116 0.00848334 1.74117648 0.58039216 1.69411764
v 0.07738584 0.11646116 0.02437288 1.74117648 0.58039216 1.69411764
v 0.07881680 0.12187482 0.02979012 1.74117648 0.58039216 1.69411764
v 0.08034600 0.12667350 0.02979012 1.74117648 0.58039216 1.69411764
v 0.08055584 0.12722232 0.02876342 1.74117648 0.58039216 1.69411764
v 0.07794618 0.11646116 0.02979012 1.74117648 0.58039216 1.69411764
v 0.07987942 0.11646116 0.03335930 1.74117648 0.58039216 1.69411764
v 0.08396024 0.12187482 0.03415078 1.74117648 0.58039216 1.69411764
v 0.08370574 0.12722232 0.03350490 1.74117648 0.58039216 1.69411764
v 0.08072774 0.12584462 0.03297102 1.74117648 0.58039216 1.69411764
v 0.08110500 0.12722232 0.03173152 1.74117648 0.58039216 1.69411764
v 0.08062058 0.12722232 0.02979012 1.74117648 0.58039216 1.69411764
v 0.08022544 0.12187482 0.03328462 1.74117648 0.58039216 1.69411764
v 0.08351598 0.12722232 0.03346384 1.74117648 0.58039216 1.69411764
v 0.08318560 0.12722232 0.03338916 1.74117648 0.58039216 1.69411764
f 1 2 3
f 1 3 4
f 1 4 5
f 1 5 6
f 1 6 7
f 1 7 14
f 1 14 23
f 1 23 27
f 1 27 45
f 1 45 52
f 1 52 51
f 1 51 55
f 1 55 54
f 1 54 49
f 1 49 36
f 1 36 38
f 1 38 35
f 1 35 28
f 1 28 15
f 1 15 8
f 1 8 9
f 1 9 2
f 2 10 3
f 2 9 10
f 3 10 4
f 4 10 11
f 4 11 5
f 5 11 10
f 5 10 17
f 5 17 21
f 5 21 12
f 5 12 22
f 5 22 24
f 5 24 13
f 5 13 6
f 6 13 23
f 6 23 14
f 6 14 7
f 8 15 9
f 9 15 16
f 9 16 10
f 10 16 18
f 10 18 19
f 10 19 20
f 10 20 17
f 12 21 40
f 12 40 22
f 13 24 25
f 13 25 26
f 13 26 27
f 13 27 23
f 15 28 18
f 15 18 16
f 17 29 39
f 17 39 21
f 17 20 30
f 17 30 31
f 17 31 32
f 17 32 33
f 17 33 34
f 17 34 29
f 18 28 35
f 18 35 19
f 19 35 20
f 20 36 37
f 20 37 30
f 20 35 38
f 20 38 36
f 21 39 40
f 22 40 24
f 24 40 41
f 24 41 42
f 24 42 25
f 25 43 44
f 25 44 26
f 25 42 43
f 26 44 45
f 26 45 27
f 29 34 46
f 29 46 42
f 29 42 41
f 29 41 39
f 30 37 47
f 30 47 31
f 31 47 32
f 32 47 46
f 32 46 33
f 33 46 34
f 36 48 37
f 36 49 48
f 37 48 47
f 39 41 40
f 42 46 43
f 43 46 50
f 43 50 44
f 44 50 51
f 44 51 52
f 44 52 45
f 46 47 53
f 46 53 50
f 47 48 53
f 48 49 54
f 48 54 55
f 48 55 50
f 48 50 53
f 50 55 51