# https://github.com/mikedh/trimesh
v 0.11612704 0.07737596 0.00812464 0.97254902 0.70588236 1.87450980
v 0.11612704 0.07737596 0.00848130 0.97254902 0.70588236 1.87450980
v 0.11612704 0.07737944 -0.00391172 0.97254902 0.70588236 1.87450980
v 0.11646070 0.07738986 0.00812464 0.97254902 0.70588236 1.87450980
v 0.11646070 0.07738986 0.00848130 0.97254902 0.70588236 1.87450980
v 0.11612704 0.09162506 0.00848130 0.97254902 0.70588236 1.87450980
v 0.11646070 0.07739332 -0.00391172 0.97254902 0.70588236 1.87450980
v 0.11612704 0.09239238 -0.00391172 0.97254902 0.70588236 1.87450980
v 0.12187700 0.07843492 -0.00391172 0.97254902 0.70588236 1.87450980
v 0.12187700 0.07844186 0.00848130 0.97254902 0.70588236 1.87450980
v 0.13231996 0.11284596 0.00848130 0.97254902 0.70588236 1.87450980
v 0.13221768 0.11284596 0.00812464 0.97254902 0.70588236 1.87450980
v 0.11612704 0.09323608 0.00309028 0.97254902 0.70588236 1.87450980
v 0.11612704 0.09242016 -0.00385470 0.97254902 0.70588236 1.87450980
v 0.13324298 0.11284596 -0.00391172 0.97254902 0.70588236 1.87450980
v 0.12574196 0.07982026 -0.00391172 0.97254902 0.70588236 1.87450980
v 0.12684520 0.08022300 0.00848130 0.97254902 0.70588236 1.87450980
v 0.14100456 0.11284596 0.00848130 0.97254902 0.70588236 1.87450980
v 0.13183776 0.11284596 0.00451082 0.97254902 0.70588236 1.87450980
v 0.13181340 0.11284596 0.00270816 0.97254902 0.70588236 1.87450980
v 0.11612704 0.09323608 0.00303812 0.97254902 0.70588236 1.87450980
v 0.11612704 0.09314580 -0.00230922 0.97254902 0.70588236 1.87450980
v 0.14100456 0.11284596 -0.00391172 0.97254902 0.70588236 1.87450980
v 0.12684520 0.08021606 -0.00391172 0.97254902 0.70588236 1.87450980
v 0.12937314 0.08139308 0.00848130 0.97254902 0.70588236 1.87450980
v 0.14100456 0.08853846 0.00848130 0.97254902 0.70588236 1.87450980
v 0.11612704 0.09315274 -0.00199260 0.97254902 0.70588236 1.87450980
v 0.14100456 0.08853152 -0.00391172 0.97254902 0.70588236 1.87450980
v 0.12955092 0.08147986 -0.00391172 0.97254902 0.70588236 1.87450980
v 0.12955092 0.08147640 0.00812464 0.97254902 0.70588236 1.87450980
v 0.12955092 0.08147640 0.00848130 0.97254902 0.70588236 1.87450980
f 1 2 6
f 1 6 13
f 1 13 21
f 1 21 27
f 1 27 22
f 1 22 14
f 1 14 8
f 1 8 3
f 1 3 7
f 1 7 4
f 1 4 5
f 1 5 2
f 2 5 10
f 2 10 17
f 2 17 25
f 2 25 31
f 2 31 26
f 2 26 18
f 2 18 11
f 2 11 6
f 3 8 15
f 3 15 23
f 3 23 28
f 3 28 29
f 3 29 24
f 3 24 16
f 3 16 9
f 3 9 7
f 4 7 9
f 4 9 5
f 5 9 10
f 6 11 12
f 6 12 13
f 8 14 15
f 9 16 10
f 10 16 17
f 11 18 23
f 11 23 15
f 11 15 20
f 11 20 19
f 11 19 12
f 12 19 13
f 13 19 20
f 13 20 21
f 14 22 15
f 15 22 20
f 16 24 17
f 17 24 25
f 18 26 28
f 18 28 23
f 20 22 27
f 20 27 21
f 24 29 25
f 25 29 30
f 25 30 31
f 26 31 28
f 28 31 30
f 28 30 29