# https://github.com/mikedh/trimesh
v 0.07860140 0.14434056 -0.01461312 0.18039216 1.14509804 1.85098040
v 0.07860140 0.14434056 -0.01297326 0.18039216 1.14509804 1.85098040
v 0.07860140 0.16548018 -0.01461312 0.18039216 1.14509804 1.85098040
v 0.14100700 0.14434056 -0.01461312 0.18039216 1.14509804 1.85098040
v 0.07860140 0.14701820 0.02437084 0.18039216 1.14509804 1.85098040
v 0.08781410 0.14434056 0.02437084 0.18039216 1.14509804 1.85098040
v 0.07860140 0.16548018 0.02437084 0.18039216 1.14509804 1.85098040
v 0.14100700 0.16548018 -0.01461312 0.18039216 1.14509804 1.85098040
v 0.14100700 0.14434056 -0.01169674 0.18039216 1.14509804 1.85098040
v 0.07860140 0.14761000 0.02978768 0.18039216 1.14509804 1.85098040
v 0.08906036 0.14434056 0.02910878 0.18039216 1.14509804 1.85098040
v 0.07860140 0.16508082 0.02973508 0.18039216 1.14509804 1.85098040
v 0.14100700 0.16548018 0.02437084 0.18039216 1.14509804 1.85098040
v 0.14100700 0.14653398 0.02437084 0.18039216 1.14509804 1.85098040
v 0.13813566 0.14434056 0.02437084 0.18039216 1.14509804 1.85098040
v 0.07860140 0.14763484 0.02982592 0.18039216 1.14509804 1.85098040
v 0.08983012 0.14434056 0.02997892 0.18039216 1.14509804 1.85098040
v 0.09444870 0.14434056 0.03219250 0.18039216 1.14509804 1.85098040
v 0.07860140 0.16507668 0.02978768 0.18039216 1.14509804 1.85098040
v 0.14100700 0.16507668 0.02978768 0.18039216 1.14509804 1.85098040
v 0.14100700 0.14664158 0.02548480 0.18039216 1.14509804 1.85098040
v 0.13673666 0.14434056 0.02804262 0.18039216 1.14509804 1.85098040
v 0.14100700 0.14709476 0.03015102 0.18039216 1.14509804 1.85098040
v 0.07860140 0.14993586 0.03336384 0.18039216 1.14509804 1.85098040
v 0.09479692 0.14434056 0.03227378 0.18039216 1.14509804 1.85098040
v 0.07860140 0.16358680 0.03336384 0.18039216 1.14509804 1.85098040
v 0.14100700 0.16358680 0.03336384 0.18039216 1.14509804 1.85098040
v 0.13575308 0.14434056 0.02915658 0.18039216 1.14509804 1.85098040
v 0.14100700 0.14987170 0.03336384 0.18039216 1.14509804 1.85098040
v 0.13445182 0.14434056 0.03036140 0.18039216 1.14509804 1.85098040
v 0.07860140 0.15437650 0.03422918 0.18039216 1.14509804 1.85098040
v 0.10038074 0.14434056 0.03328734 0.18039216 1.14509804 1.85098040
v 0.10097944 0.14434056 0.03334948 0.18039216 1.14509804 1.85098040
v 0.10562856 0.14434056 0.03380846 0.18039216 1.14509804 1.85098040
v 0.07860140 0.15979178 0.03422918 0.18039216 1.14509804 1.85098040
v 0.14100700 0.15979178 0.03422918 0.18039216 1.14509804 1.85098040
v 0.13295506 0.14434056 0.03086818 0.18039216 1.14509804 1.85098040
v 0.14100700 0.15437650 0.03422918 0.18039216 1.14509804 1.85098040
v 0.11645408 0.14434056 0.03397102 0.18039216 1.14509804 1.85098040
v 0.12210510 0.14434056 0.03339252 0.18039216 1.14509804 1.85098040
v 0.12729182 0.14434056 0.03273752 0.18039216 1.14509804 1.85098040
v 0.11104132 0.14434056 0.03403796 0.18039216 1.14509804 1.85098040
v 0.11183552 0.14434056 0.03402838 0.18039216 1.14509804 1.85098040
f 1 2 5
f 1 5 10
f 1 10 16
f 1 16 24
f 1 24 31
f 1 31 35
f 1 35 26
f 1 26 19
f 1 19 12
f 1 12 7
f 1 7 3
f 1 3 8
f 1 8 4
f 1 4 9
f 1 9 15
f 1 15 22
f 1 22 28
f 1 28 30
f 1 30 37
f 1 37 41
f 1 41 40
f 1 40 39
f 1 39 43
f 1 43 42
f 1 42 34
f 1 34 33
f 1 33 32
f 1 32 25
f 1 25 18
f 1 18 17
f 1 17 11
f 1 11 6
f 1 6 2
f 2 6 5
f 3 7 13
f 3 13 8
f 4 8 13
f 4 13 20
f 4 20 27
f 4 27 36
f 4 36 38
f 4 38 29
f 4 29 23
f 4 23 21
f 4 21 14
f 4 14 9
f 5 6 11
f 5 11 10
f 7 12 13
f 9 14 15
f 10 11 17
f 10 17 18
f 10 18 16
f 12 19 20
f 12 20 13
f 14 21 15
f 15 21 23
f 15 23 22
f 16 18 24
f 18 25 24
f 19 26 27
f 19 27 20
f 22 23 28
f 23 29 30
f 23 30 28
f 24 25 32
f 24 32 33
f 24 33 34
f 24 34 31
f 26 35 36
f 26 36 27
f 29 37 30
f 29 38 39
f 29 39 40
f 29 40 41
f 29 41 37
f 31 34 42
f 31 42 38
f 31 38 36
f 31 36 35
f 38 42 43
f 38 43 39