# https://github.com/mikedh/trimesh
v 0.15979200 0.07853906 0.03422918 0.18823530 1.94509804 0.93333334
v 0.16358652 0.07853906 0.03336240 0.18823530 1.94509804 0.93333334
v 0.15437704 0.07853906 0.03422918 0.18823530 1.94509804 0.93333334
v 0.15979200 0.00002656 0.03422918 0.18823530 1.94509804 0.93333334
v 0.16507548 0.07853906 0.02978858 0.18823530 1.94509804 0.93333334
v 0.16358652 0.00002656 0.03336240 0.18823530 1.94509804 0.93333334
v 0.14993620 0.07853906 0.03336240 0.18823530 1.94509804 0.93333334
v 0.15437704 0.00002656 0.03422918 0.18823530 1.94509804 0.93333334
v 0.16547918 0.07853906 0.02437450 0.18823530 1.94509804 0.93333334
v 0.16507548 0.00002656 0.02978858 0.18823530 1.94509804 0.93333334
v 0.14761206 0.07853906 0.02978858 0.18823530 1.94509804 0.93333334
v 0.14878432 0.00002656 0.03159326 0.18823530 1.94509804 0.93333334
v 0.14993620 0.00002656 0.03336240 0.18823530 1.94509804 0.93333334
v 0.16547918 0.07853906 -0.01118144 0.18823530 1.94509804 0.93333334
v 0.16547918 0.02979444 0.02437450 0.18823530 1.94509804 0.93333334
v 0.16297912 0.00002656 -0.01118144 0.18823530 1.94509804 0.93333334
v 0.16547918 0.02979444 -0.01118144 0.18823530 1.94509804 0.93333334
v 0.14702130 0.07853906 0.02437450 0.18823530 1.94509804 0.93333334
v 0.14731946 0.00002656 0.02710822 0.18823530 1.94509804 0.93333334
v 0.14761206 0.00002656 0.02978858 0.18823530 1.94509804 0.93333334
v 0.14656018 0.07853906 -0.01118144 0.18823530 1.94509804 0.93333334
v 0.14702500 0.00002656 -0.01118144 0.18823530 1.94509804 0.93333334
v 0.14702130 0.00002656 0.02437450 0.18823530 1.94509804 0.93333334
v 0.14656018 0.00004192 -0.01118144 0.18823530 1.94509804 0.93333334
v 0.14675464 0.00002656 -0.00963902 0.18823530 1.94509804 0.93333334
f 1 2 5
f 1 5 9
f 1 9 14
f 1 14 21
f 1 21 18
f 1 18 11
f 1 11 7
f 1 7 3
f 1 3 8
f 1 8 4
f 1 4 6
f 1 6 2
f 2 6 10
f 2 10 5
f 3 7 13
f 3 13 8
f 4 8 13
f 4 13 12
f 4 12 20
f 4 20 19
f 4 19 23
f 4 23 25
f 4 25 22
f 4 22 16
f 4 16 10
f 4 10 6
f 5 10 15
f 5 15 9
f 7 11 12
f 7 12 13
f 9 15 17
f 9 17 14
f 10 16 17
f 10 17 15
f 11 18 19
f 11 19 20
f 11 20 12
f 14 17 16
f 14 16 22
f 14 22 24
f 14 24 21
f 18 21 24
f 18 24 23
f 18 23 19
f 22 25 24
f 23 24 25