# https://github.com/mikedh/trimesh
v -0.13382546 0.10884898 -0.01572070 0.03137254 0.59607844 1.31764706
v -0.12213048 0.10884898 -0.01572070 0.03137254 0.59607844 1.31764706
v -0.13382546 0.10884898 -0.01135362 0.03137254 0.59607844 1.31764706
v -0.13382546 0.13811942 -0.01572070 0.03137254 0.59607844 1.31764706
v -0.13161572 0.10884898 -0.01135362 0.03137254 0.59607844 1.31764706
v -0.11113950 0.12194274 -0.01572070 0.03137254 0.59607844 1.31764706
v -0.11113950 0.13067288 -0.01135448 0.03137254 0.59607844 1.31764706
v -0.13382546 0.13811942 -0.01135362 0.03137254 0.59607844 1.31764706
v -0.11113950 0.13811942 -0.01572070 0.03137254 0.59607844 1.31764706
v -0.11113950 0.13222006 -0.01135362 0.03137254 0.59607844 1.31764706
v -0.11113950 0.13811942 -0.01135362 0.03137254 0.59607844 1.31764706
f 1 2 5
f 1 5 3
f 1 3 8
f 1 8 4
f 1 4 9
f 1 9 6
f 1 6 2
f 2 6 7
f 2 7 5
f 3 5 10
f 3 10 11
f 3 11 8
f 4 8 11
f 4 11 9
f 5 7 10
f 6 9 11
f 6 11 10
f 6 10 7