# https://github.com/mikedh/trimesh
v 0.12756118 -0.10075100 0.00762022 0.29803922 1.73333334 0.32156862
v 0.12756118 -0.10075100 0.00795164 0.29803922 1.73333334 0.32156862
v 0.11646074 -0.09366422 0.00812564 0.29803922 1.73333334 0.32156862
v 0.11646074 -0.09354520 -0.00808914 0.29803922 1.73333334 0.32156862
v 0.12756118 -0.09963168 -0.00808914 0.29803922 1.73333334 0.32156862
v 0.12756118 -0.09671090 0.02978814 0.29803922 1.73333334 0.32156862
v 0.11646074 -0.09051912 0.02978814 0.29803922 1.73333334 0.32156862
v 0.11646074 -0.07736876 -0.00808914 0.29803922 1.73333334 0.32156862
v 0.12756118 -0.08051616 -0.00808914 0.29803922 1.73333334 0.32156862
v 0.12756118 -0.09454550 0.03325976 0.29803922 1.73333334 0.32156862
v 0.12344376 -0.09262502 0.03293664 0.29803922 1.73333334 0.32156862
v 0.11646074 -0.08831252 0.03336334 0.29803922 1.73333334 0.32156862
v 0.12187676 -0.07840340 -0.00808914 0.29803922 1.73333334 0.32156862
v 0.11646074 -0.07737792 0.02437354 0.29803922 1.73333334 0.32156862
v 0.12688854 -0.08019798 -0.00808914 0.29803922 1.73333334 0.32156862
v 0.12756118 -0.08051386 -0.00674688 0.29803922 1.73333334 0.32156862
v 0.12756118 -0.09358640 0.03342962 0.29803922 1.73333334 0.32156862
v 0.11646074 -0.08396112 0.03422918 0.29803922 1.73333334 0.32156862
v 0.12187676 -0.07843772 0.02437354 0.29803922 1.73333334 0.32156862
v 0.12687224 -0.08022086 0.02437354 0.29803922 1.73333334 0.32156862
v 0.11646074 -0.07793872 0.02978814 0.29803922 1.73333334 0.32156862
v 0.12187676 -0.07881542 0.02978814 0.29803922 1.73333334 0.32156862
v 0.12756118 -0.08053676 0.02437354 0.29803922 1.73333334 0.32156862
v 0.12756118 -0.08937462 0.03411732 0.29803922 1.73333334 0.32156862
v 0.12729170 -0.08937462 0.03412560 0.29803922 1.73333334 0.32156862
v 0.11646074 -0.07987294 0.03336334 0.29803922 1.73333334 0.32156862
v 0.12187676 -0.08396112 0.03415460 0.29803922 1.73333334 0.32156862
v 0.12667554 -0.08034218 0.02978814 0.29803922 1.73333334 0.32156862
v 0.12584642 -0.08072444 0.03297806 0.29803922 1.73333334 0.32156862
v 0.12187676 -0.08022316 0.03328876 0.29803922 1.73333334 0.32156862
v 0.12756118 -0.08078396 0.02978814 0.29803922 1.73333334 0.32156862
v 0.12756118 -0.08370932 0.03347520 0.29803922 1.73333334 0.32156862
f 1 2 3
f 1 3 4
f 1 4 5
f 1 5 9
f 1 9 16
f 1 16 23
f 1 23 31
f 1 31 32
f 1 32 24
f 1 24 17
f 1 17 10
f 1 10 6
f 1 6 2
f 2 6 7
f 2 7 3
f 3 7 12
f 3 12 18
f 3 18 26
f 3 26 21
f 3 21 14
f 3 14 8
f 3 8 4
f 4 8 13
f 4 13 15
f 4 15 9
f 4 9 5
f 6 10 11
f 6 11 7
f 7 11 12
f 8 14 13
f 9 15 16
f 10 17 18
f 10 18 12
f 10 12 11
f 13 14 19
f 13 19 20
f 13 20 15
f 14 21 22
f 14 22 19
f 15 20 23
f 15 23 16
f 17 24 25
f 17 25 18
f 18 25 27
f 18 27 26
f 19 22 28
f 19 28 20
f 20 28 23
f 21 29 22
f 21 26 30
f 21 30 29
f 22 29 28
f 23 28 31
f 24 32 27
f 24 27 25
f 26 27 30
f 27 32 29
f 27 29 30
f 28 29 31
f 29 32 31