# https://github.com/mikedh/trimesh
v 0.13867182 -0.07856662 -0.01551338 1.34117648 0.41568628 0.25098040
v 0.16547918 -0.07856662 -0.01551338 1.34117648 0.41568628 0.25098040
v 0.13867182 -0.07856662 -0.01527226 1.34117648 0.41568628 0.25098040
v 0.13867182 -0.07330450 -0.01551338 1.34117648 0.41568628 0.25098040
v 0.16547918 -0.07856662 -0.00810126 1.34117648 0.41568628 0.25098040
v 0.16547918 -0.02979208 -0.01551338 1.34117648 0.41568628 0.25098040
v 0.13867182 -0.07798964 -0.01528242 1.34117648 0.41568628 0.25098040
v 0.14694286 -0.07856662 -0.00809328 1.34117648 0.41568628 0.25098040
v 0.14694546 0.00001886 -0.00809328 1.34117648 0.41568628 0.25098040
v 0.13870332 0.00001886 -0.01551338 1.34117648 0.41568628 0.25098040
v 0.16121508 -0.07856662 -0.00809328 1.34117648 0.41568628 0.25098040
v 0.16547918 -0.07853584 -0.00809328 1.34117648 0.41568628 0.25098040
v 0.16304930 0.00001886 -0.01551338 1.34117648 0.41568628 0.25098040
v 0.16547918 -0.02979208 -0.00809328 1.34117648 0.41568628 0.25098040
v 0.16279214 0.00001886 -0.00809328 1.34117648 0.41568628 0.25098040
v 0.16297846 0.00001886 -0.00812524 1.34117648 0.41568628 0.25098040
v 0.16297846 0.00000348 -0.00809328 1.34117648 0.41568628 0.25098040
f 1 2 5
f 1 5 11
f 1 11 8
f 1 8 3
f 1 3 7
f 1 7 4
f 1 4 10
f 1 10 13
f 1 13 6
f 1 6 2
f 2 6 14
f 2 14 12
f 2 12 5
f 3 8 9
f 3 9 10
f 3 10 7
f 4 7 10
f 5 12 11
f 6 13 14
f 8 11 12
f 8 12 14
f 8 14 17
f 8 17 15
f 8 15 9
f 9 15 16
f 9 16 13
f 9 13 10
f 13 16 14
f 14 16 17
f 15 17 16