# https://github.com/mikedh/trimesh
v 0.10141616 0.09998656 -0.01461260 0.91764706 0.08627450 1.59215686
v 0.10880016 0.09786674 -0.01461260 0.91764706 0.08627450 1.59215686
v 0.07416894 0.09998656 -0.01461260 0.91764706 0.08627450 1.59215686
v 0.09619704 0.09998656 -0.00925414 0.91764706 0.08627450 1.59215686
v 0.11139878 0.09657190 -0.01461260 0.91764706 0.08627450 1.59215686
v 0.07468648 0.09669216 -0.01461260 0.91764706 0.08627450 1.59215686
v 0.07896526 0.09998656 -0.00925414 0.91764706 0.08627450 1.59215686
v 0.11139878 0.09146250 -0.00925414 0.91764706 0.08627450 1.59215686
v 0.11139878 0.07144994 -0.01461260 0.91764706 0.08627450 1.59215686
v 0.07568510 0.09187640 -0.01461260 0.91764706 0.08627450 1.59215686
v 0.07923862 0.09904412 -0.00925414 0.91764706 0.08627450 1.59215686
v 0.11139878 0.07697046 -0.00925414 0.91764706 0.08627450 1.59215686
v 0.11104160 0.07141918 -0.01461260 0.91764706 0.08627450 1.59215686
v 0.08042676 0.08579096 -0.01461260 0.91764706 0.08627450 1.59215686
v 0.08478936 0.08991876 -0.00925414 0.91764706 0.08627450 1.59215686
v 0.08161126 0.09420876 -0.00925414 0.91764706 0.08627450 1.59215686
v 0.08036844 0.09631182 -0.00925414 0.91764706 0.08627450 1.59215686
v 0.11104160 0.07695646 -0.00925414 0.91764706 0.08627450 1.59215686
v 0.10933956 0.07142756 -0.01461260 0.91764706 0.08627450 1.59215686
v 0.08579892 0.08042986 -0.01461260 0.91764706 0.08627450 1.59215686
v 0.08790188 0.08655164 -0.00925414 0.91764706 0.08627450 1.59215686
v 0.08654972 0.08790520 -0.00925414 0.91764706 0.08627450 1.59215686
v 0.10948170 0.07707112 -0.00925414 0.91764706 0.08627450 1.59215686
v 0.10562204 0.07752978 -0.00925414 0.91764706 0.08627450 1.59215686
v 0.10429176 0.07775630 -0.00925414 0.91764706 0.08627450 1.59215686
v 0.09188546 0.07569240 -0.01461260 0.91764706 0.08627450 1.59215686
v 0.08992100 0.08479258 -0.00925414 0.91764706 0.08627450 1.59215686
v 0.10020614 0.07890012 -0.00925414 0.91764706 0.08627450 1.59215686
v 0.09904714 0.07923570 -0.00925414 0.91764706 0.08627450 1.59215686
v 0.09630638 0.08035994 -0.00925414 0.91764706 0.08627450 1.59215686
v 0.09420344 0.08161562 -0.00925414 0.91764706 0.08627450 1.59215686
f 1 2 5
f 1 5 9
f 1 9 13
f 1 13 19
f 1 19 26
f 1 26 20
f 1 20 14
f 1 14 10
f 1 10 6
f 1 6 3
f 1 3 7
f 1 7 4
f 1 4 2
f 2 4 5
f 3 6 7
f 4 7 11
f 4 11 17
f 4 17 16
f 4 16 15
f 4 15 22
f 4 22 21
f 4 21 27
f 4 27 31
f 4 31 30
f 4 30 29
f 4 29 28
f 4 28 25
f 4 25 24
f 4 24 23
f 4 23 18
f 4 18 12
f 4 12 8
f 4 8 5
f 5 8 12
f 5 12 9
f 6 10 7
f 7 10 11
f 9 12 13
f 10 14 15
f 10 15 16
f 10 16 17
f 10 17 11
f 12 18 13
f 13 18 19
f 14 20 21
f 14 21 22
f 14 22 15
f 18 23 19
f 19 23 24
f 19 24 25
f 19 25 26
f 20 26 27
f 20 27 21
f 25 28 26
f 26 28 29
f 26 29 30
f 26 30 31
f 26 31 27