# https://github.com/mikedh/trimesh
v 0.14632856 0.14029144 -0.00809814 1.85098040 1.40392156 0.06274510
v 0.14632856 0.14127396 -0.00823142 1.85098040 1.40392156 0.06274510
v 0.14100700 0.13496746 -0.00809814 1.85098040 1.40392156 0.06274510
v 0.14632856 0.08531994 -0.00809814 1.85098040 1.40392156 0.06274510
v 0.14632856 0.14127396 -0.01461248 1.85098040 1.40392156 0.06274510
v 0.14100700 0.14127396 -0.01209986 1.85098040 1.40392156 0.06274510
v 0.14100700 0.08851924 -0.00809814 1.85098040 1.40392156 0.06274510
v 0.14632856 0.08371108 -0.00860258 1.85098040 1.40392156 0.06274510
v 0.14100700 0.14127396 -0.01461248 1.85098040 1.40392156 0.06274510
v 0.14632856 0.07854674 -0.01461248 1.85098040 1.40392156 0.06274510
v 0.14100700 0.07854674 -0.01448684 1.85098040 1.40392156 0.06274510
v 0.14632856 0.07854674 -0.01137540 1.85098040 1.40392156 0.06274510
v 0.14100700 0.07854674 -0.01461248 1.85098040 1.40392156 0.06274510
f 1 2 3
f 1 3 7
f 1 7 4
f 1 4 8
f 1 8 12
f 1 12 10
f 1 10 5
f 1 5 2
f 2 5 9
f 2 9 6
f 2 6 3
f 3 6 9
f 3 9 13
f 3 13 11
f 3 11 7
f 4 7 8
f 5 10 13
f 5 13 9
f 7 11 12
f 7 12 8
f 10 12 11
f 10 11 13