# https://github.com/mikedh/trimesh
v 0.13812554 0.10020694 0.03422822 0.10980392 0.86274510 0.61960784
v 0.14100700 0.10308876 0.03400140 0.10980392 0.86274510 0.61960784
v 0.14100700 0.10850442 0.03404172 0.10980392 0.86274510 0.61960784
v 0.13812554 0.10562564 0.03404172 0.10980392 0.86274510 0.61960784
v 0.12840680 0.09048992 0.03409716 0.10980392 0.86274510 0.61960784
v 0.12840680 0.08937564 0.03408960 0.10980392 0.86274510 0.61960784
v 0.13270924 0.08937564 0.03395856 0.10980392 0.86274510 0.61960784
v 0.13812554 0.09479434 0.03386026 0.10980392 0.86274510 0.61960784
v 0.14100700 0.09766396 0.03356540 0.10980392 0.86274510 0.61960784
v 0.14100700 0.11213114 0.03390814 0.10980392 0.86274510 0.61960784
v 0.13812554 0.11213114 0.03380734 0.10980392 0.86274510 0.61960784
v 0.12840680 0.09538964 0.03328060 0.10980392 0.86274510 0.61960784
v 0.13499368 0.11213114 0.03294288 0.10980392 0.86274510 0.61960784
v 0.12840680 0.08468962 0.03356034 0.10980392 0.86274510 0.61960784
v 0.13774932 0.08984882 0.03302858 0.10980392 0.86274510 0.61960784
v 0.13270924 0.08548028 0.03309410 0.10980392 0.86274510 0.61960784
v 0.13569430 0.08641750 0.03271858 0.10980392 0.86274510 0.61960784
v 0.14100700 0.09479434 0.03322516 0.10980392 0.86274510 0.61960784
v 0.14100700 0.11213114 0.00848130 0.10980392 0.86274510 0.61960784
v 0.12840680 0.09587198 0.03307394 0.10980392 0.86274510 0.61960784
v 0.13437324 0.11213114 0.02979004 0.10980392 0.86274510 0.61960784
v 0.12840680 0.09705646 0.03155674 0.10980392 0.86274510 0.61960784
v 0.12840680 0.08401190 0.03340914 0.10980392 0.86274510 0.61960784
v 0.14100700 0.09184534 0.03261274 0.10980392 0.86274510 0.61960784
v 0.14100700 0.09360070 0.03300338 0.10980392 0.86274510 0.61960784
v 0.12840680 0.08145060 0.03064694 0.10980392 0.86274510 0.61960784
v 0.12935658 0.08171620 0.02979004 0.10980392 0.86274510 0.61960784
v 0.14100700 0.08936954 0.02975980 0.10980392 0.86274510 0.61960784
v 0.13240950 0.11213114 0.00848130 0.10980392 0.86274510 0.61960784
v 0.14100700 0.08853614 0.00848130 0.10980392 0.86274510 0.61960784
v 0.12840680 0.09751438 0.02979004 0.10980392 0.86274510 0.61960784
v 0.12840680 0.08123386 0.02979004 0.10980392 0.86274510 0.61960784
v 0.12840680 0.08102932 0.02651120 0.10980392 0.86274510 0.61960784
v 0.12955272 0.08147808 0.02437402 0.10980392 0.86274510 0.61960784
v 0.14100700 0.08853918 0.02437402 0.10980392 0.86274510 0.61960784
v 0.12840680 0.09977956 0.00848130 0.10980392 0.86274510 0.61960784
v 0.14100700 0.08853614 0.02154378 0.10980392 0.86274510 0.61960784
v 0.12955272 0.08147808 0.00848130 0.10980392 0.86274510 0.61960784
v 0.12840680 0.08094690 0.02437402 0.10980392 0.86274510 0.61960784
v 0.12937508 0.08139566 0.00848130 0.10980392 0.86274510 0.61960784
v 0.12840680 0.08094690 0.00848130 0.10980392 0.86274510 0.61960784
f 1 2 3
f 1 3 4
f 1 4 5
f 1 5 6
f 1 6 7
f 1 7 8
f 1 8 2
f 2 8 9
f 2 9 18
f 2 18 25
f 2 25 24
f 2 24 28
f 2 28 35
f 2 35 37
f 2 37 30
f 2 30 19
f 2 19 10
f 2 10 3
f 3 10 11
f 3 11 4
f 4 11 5
f 5 12 20
f 5 20 22
f 5 22 31
f 5 31 36
f 5 36 41
f 5 41 39
f 5 39 33
f 5 33 32
f 5 32 26
f 5 26 23
f 5 23 14
f 5 14 6
f 5 11 13
f 5 13 12
f 6 14 7
f 7 15 8
f 7 14 16
f 7 16 17
f 7 17 15
f 8 15 18
f 8 18 9
f 10 19 29
f 10 29 21
f 10 21 13
f 10 13 11
f 12 13 20
f 13 21 22
f 13 22 20
f 14 23 16
f 15 24 25
f 15 25 18
f 15 17 24
f 16 23 26
f 16 26 17
f 17 26 27
f 17 27 28
f 17 28 24
f 19 30 38
f 19 38 40
f 19 40 41
f 19 41 36
f 19 36 29
f 21 29 31
f 21 31 22
f 26 32 27
f 27 32 33
f 27 33 34
f 27 34 35
f 27 35 28
f 29 36 31
f 30 37 34
f 30 34 38
f 33 39 34
f 34 39 40
f 34 40 38
f 34 37 35
f 39 41 40