# https://github.com/mikedh/trimesh
v -0.00002608 0.14656246 -0.01118144 0.58823530 0.23529412 0.63529412
v -0.00002608 0.14702364 0.02437450 0.58823530 0.23529412 0.63529412
v -0.00002608 0.16297978 -0.01118144 0.58823530 0.23529412 0.63529412
v 0.07855682 0.14656060 -0.01118144 0.58823530 0.23529412 0.63529412
v 0.07859530 0.14656060 -0.01115922 0.58823530 0.23529412 0.63529412
v 0.07859530 0.14701808 0.02437450 0.58823530 0.23529412 0.63529412
v -0.00002608 0.14731442 0.02705488 0.58823530 0.23529412 0.63529412
v -0.00002608 0.16507642 0.02978858 0.58823530 0.23529412 0.63529412
v 0.02979556 0.16548018 -0.01118144 0.58823530 0.23529412 0.63529412
v 0.07859530 0.14656060 -0.01118144 0.58823530 0.23529412 0.63529412
v 0.07859530 0.14760892 0.02978414 0.58823530 0.23529412 0.63529412
v -0.00002608 0.14761262 0.02978858 0.58823530 0.23529412 0.63529412
v 0.02979556 0.16548018 0.02437450 0.58823530 0.23529412 0.63529412
v -0.00002608 0.16358730 0.03336240 0.58823530 0.23529412 0.63529412
v 0.07859530 0.16507642 0.02978858 0.58823530 0.23529412 0.63529412
v 0.07859530 0.16548018 -0.01118144 0.58823530 0.23529412 0.63529412
v 0.07859530 0.14763484 0.02982414 0.58823530 0.23529412 0.63529412
v -0.00002608 0.14993520 0.03336240 0.58823530 0.23529412 0.63529412
v 0.07859530 0.16548018 0.02437450 0.58823530 0.23529412 0.63529412
v -0.00002608 0.15979226 0.03422918 0.58823530 0.23529412 0.63529412
v 0.07859530 0.16358730 0.03336240 0.58823530 0.23529412 0.63529412
v 0.07859530 0.14993520 0.03336240 0.58823530 0.23529412 0.63529412
v -0.00002608 0.15437662 0.03422918 0.58823530 0.23529412 0.63529412
v 0.07859530 0.14997966 0.03337130 0.58823530 0.23529412 0.63529412
v 0.07859530 0.15979226 0.03422918 0.58823530 0.23529412 0.63529412
v 0.07859530 0.15437662 0.03422918 0.58823530 0.23529412 0.63529412
f 1 2 7
f 1 7 12
f 1 12 18
f 1 18 23
f 1 23 20
f 1 20 14
f 1 14 8
f 1 8 3
f 1 3 9
f 1 9 16
f 1 16 10
f 1 10 4
f 1 4 5
f 1 5 6
f 1 6 2
f 2 6 7
f 3 8 9
f 4 10 5
f 5 10 16
f 5 16 19
f 5 19 15
f 5 15 21
f 5 21 25
f 5 25 26
f 5 26 24
f 5 24 22
f 5 22 17
f 5 17 11
f 5 11 6
f 6 11 12
f 6 12 7
f 8 13 9
f 8 14 21
f 8 21 15
f 8 15 19
f 8 19 13
f 9 13 19
f 9 19 16
f 11 17 12
f 12 17 18
f 14 20 25
f 14 25 21
f 17 22 18
f 18 22 24
f 18 24 23
f 20 23 26
f 20 26 25
f 23 24 26