# https://github.com/mikedh/trimesh
v 0.15436558 0.16548018 -0.01461312 1.09019608 1.42745098 1.20000000
v 0.15977658 0.16546398 -0.01461312 1.09019608 1.42745098 1.20000000
v 0.15436558 0.16548018 -0.02437700 1.09019608 1.42745098 1.20000000
v 0.02979922 0.16548018 -0.01461312 1.09019608 1.42745098 1.20000000
v 0.16061900 0.16517246 -0.01461312 1.09019608 1.42745098 1.20000000
v 0.15977658 0.16546398 -0.02437700 1.09019608 1.42745098 1.20000000
v 0.15977658 0.16507530 -0.02979176 1.09019608 1.42745098 1.20000000
v 0.02979922 0.16548018 -0.02437700 1.09019608 1.42745098 1.20000000
v -0.00002608 0.16507530 -0.02979176 1.09019608 1.42745098 1.20000000
v -0.00002608 0.16441128 -0.02437700 1.09019608 1.42745098 1.20000000
v -0.00002608 0.16301846 -0.01461312 1.09019608 1.42745098 1.20000000
v 0.16398872 0.16399020 -0.01461312 1.09019608 1.42745098 1.20000000
v 0.16398872 0.16399020 -0.02437700 1.09019608 1.42745098 1.20000000
v 0.16377812 0.16377964 -0.02979176 1.09019608 1.42745098 1.20000000
v 0.16321108 0.16321282 -0.03307518 1.09019608 1.42745098 1.20000000
v 0.15977658 0.16358530 -0.03336320 1.09019608 1.42745098 1.20000000
v -0.00002608 0.16358530 -0.03336320 1.09019608 1.42745098 1.20000000
v -0.00002608 0.14100872 -0.01461312 1.09019608 1.42745098 1.20000000
v 0.16547918 0.15977936 -0.01461312 1.09019608 1.42745098 1.20000000
v 0.16547918 0.15977936 -0.02437700 1.09019608 1.42745098 1.20000000
v 0.16507418 0.15977936 -0.02979176 1.09019608 1.42745098 1.20000000
v 0.15977658 0.15977936 -0.03422726 1.09019608 1.42745098 1.20000000
v 0.16358370 0.15977936 -0.03336320 1.09019608 1.42745098 1.20000000
v -0.00002608 0.16170662 -0.03379140 1.09019608 1.42745098 1.20000000
v -0.00002608 0.00002656 -0.01577096 1.09019608 1.42745098 1.20000000
v 0.14100008 0.00002656 -0.01461312 1.09019608 1.42745098 1.20000000
v 0.16547918 0.02979396 -0.01461312 1.09019608 1.42745098 1.20000000
v 0.16547918 0.02979396 -0.02437700 1.09019608 1.42745098 1.20000000
v 0.16507418 0.00002656 -0.02979176 1.09019608 1.42745098 1.20000000
v 0.16165584 0.00002656 -0.03380100 1.09019608 1.42745098 1.20000000
v 0.15977658 0.00002656 -0.03422726 1.09019608 1.42745098 1.20000000
v -0.00002608 0.15977936 -0.03422726 1.09019608 1.42745098 1.20000000
v 0.16358370 0.00002656 -0.03336320 1.09019608 1.42745098 1.20000000
v -0.00002608 0.00271502 -0.03422726 1.09019608 1.42745098 1.20000000
v -0.00000986 0.00002656 -0.03422726 1.09019608 1.42745098 1.20000000
v 0.16301670 0.00002656 -0.01461312 1.09019608 1.42745098 1.20000000
v 0.16475016 0.00002656 -0.02710934 1.09019608 1.42745098 1.20000000
v 0.16440994 0.00002656 -0.02437700 1.09019608 1.42745098 1.20000000
f 1 2 6
f 1 6 3
f 1 3 8
f 1 8 4
f 1 4 11
f 1 11 18
f 1 18 26
f 1 26 36
f 1 36 27
f 1 27 19
f 1 19 12
f 1 12 5
f 1 5 2
f 2 5 6
f 3 6 7
f 3 7 9
f 3 9 8
f 4 8 9
f 4 9 10
f 4 10 11
f 5 12 13
f 5 13 6
f 6 13 14
f 6 14 7
f 7 14 15
f 7 15 16
f 7 16 17
f 7 17 9
f 9 17 24
f 9 24 32
f 9 32 34
f 9 34 25
f 9 25 18
f 9 18 11
f 9 11 10
f 12 19 20
f 12 20 13
f 13 20 14
f 14 20 21
f 14 21 15
f 15 22 16
f 15 21 23
f 15 23 22
f 16 22 24
f 16 24 17
f 18 25 26
f 19 27 28
f 19 28 20
f 20 28 29
f 20 29 21
f 21 29 33
f 21 33 23
f 22 23 30
f 22 30 31
f 22 31 35
f 22 35 34
f 22 34 32
f 22 32 24
f 23 33 30
f 25 34 35
f 25 35 31
f 25 31 30
f 25 30 33
f 25 33 29
f 25 29 37
f 25 37 38
f 25 38 36
f 25 36 26
f 27 37 29
f 27 29 28
f 27 36 38
f 27 38 37