# https://github.com/mikedh/trimesh
v 0.14100700 0.07343556 -0.01461312 0.23529412 1.27843138 0.28235294
v 0.14100700 0.07853906 -0.01448682 0.23529412 1.27843138 0.28235294
v 0.14100700 0.07853906 -0.01461312 0.23529412 1.27843138 0.28235294
v 0.14101180 0.00002656 -0.01461312 0.23529412 1.27843138 0.28235294
v 0.14656210 0.07853906 -0.01118144 0.23529412 1.27843138 0.28235294
v 0.14656210 0.00004192 -0.01118144 0.23529412 1.27843138 0.28235294
v 0.16547918 0.07853906 -0.01461312 0.23529412 1.27843138 0.28235294
v 0.16301664 0.00002656 -0.01461312 0.23529412 1.27843138 0.28235294
v 0.14655970 0.00002656 -0.01119086 0.23529412 1.27843138 0.28235294
v 0.16547918 0.07853906 -0.01118144 0.23529412 1.27843138 0.28235294
v 0.14702444 0.00002656 -0.01118144 0.23529412 1.27843138 0.28235294
v 0.16547918 0.02979444 -0.01461312 0.23529412 1.27843138 0.28235294
v 0.16297830 0.00002656 -0.01118144 0.23529412 1.27843138 0.28235294
v 0.16547918 0.02979444 -0.01118144 0.23529412 1.27843138 0.28235294
f 1 2 3
f 1 3 7
f 1 7 12
f 1 12 8
f 1 8 4
f 1 4 2
f 2 5 10
f 2 10 7
f 2 7 3
f 2 4 6
f 2 6 5
f 4 8 13
f 4 13 11
f 4 11 9
f 4 9 6
f 5 6 11
f 5 11 13
f 5 13 14
f 5 14 10
f 6 9 11
f 7 10 14
f 7 14 12
f 8 12 14
f 8 14 13