# https://github.com/mikedh/trimesh
v 0.15979188 0.15978730 0.03422918 1.38823530 0.11764706 1.33333334
v 0.16358590 0.15978730 0.03336384 1.38823530 0.11764706 1.33333334
v 0.16322412 0.16322516 0.03307220 1.38823530 0.11764706 1.33333334
v 0.15979188 0.16358256 0.03336384 1.38823530 0.11764706 1.33333334
v 0.14632908 0.15978730 0.03422918 1.38823530 0.11764706 1.33333334
v 0.15979188 0.07854674 0.03422918 1.38823530 0.11764706 1.33333334
v 0.16507614 0.15978730 0.02978768 1.38823530 0.11764706 1.33333334
v 0.16358590 0.08396732 0.03336384 1.38823530 0.11764706 1.33333334
v 0.16378836 0.16378678 0.02978768 1.38823530 0.11764706 1.33333334
v 0.15979188 0.16507174 0.02978768 1.38823530 0.11764706 1.33333334
v 0.14632908 0.16358256 0.03336384 1.38823530 0.11764706 1.33333334
v 0.14632908 0.15437524 0.03422918 1.38823530 0.11764706 1.33333334
v 0.15437640 0.07854674 0.03422918 1.38823530 0.11764706 1.33333334
v 0.16358778 0.07854674 0.03335906 1.38823530 0.11764706 1.33333334
v 0.16547730 0.15978730 0.02437084 1.38823530 0.11764706 1.33333334
v 0.16507614 0.08396732 0.02978768 1.38823530 0.11764706 1.33333334
v 0.16398894 0.16398250 0.02437084 1.38823530 0.11764706 1.33333334
v 0.15979188 0.16547168 0.02437084 1.38823530 0.11764706 1.33333334
v 0.15437640 0.16548018 0.02437084 1.38823530 0.11764706 1.33333334
v 0.14632908 0.16528448 0.02700516 1.38823530 0.11764706 1.33333334
v 0.14632908 0.16507174 0.02978768 1.38823530 0.11764706 1.33333334
v 0.14632908 0.11104466 0.03403796 1.38823530 0.11764706 1.33333334
v 0.14993566 0.07854674 0.03336384 1.38823530 0.11764706 1.33333334
v 0.16507614 0.07854674 0.02978290 1.38823530 0.11764706 1.33333334
v 0.16547730 0.15978730 -0.01461312 1.38823530 0.11764706 1.33333334
v 0.16518300 0.16062124 -0.01461312 1.38823530 0.11764706 1.33333334
v 0.16547730 0.08396732 0.02437084 1.38823530 0.11764706 1.33333334
v 0.16062230 0.16518234 -0.01461312 1.38823530 0.11764706 1.33333334
v 0.16398894 0.16398250 -0.01461312 1.38823530 0.11764706 1.33333334
v 0.15979188 0.16547168 -0.01461312 1.38823530 0.11764706 1.33333334
v 0.14632908 0.16548018 0.02437084 1.38823530 0.11764706 1.33333334
v 0.15437640 0.16548018 -0.01461312 1.38823530 0.11764706 1.33333334
v 0.14632908 0.10841522 0.03392320 1.38823530 0.11764706 1.33333334
v 0.14632908 0.09479996 0.03213512 1.38823530 0.11764706 1.33333334
v 0.14632908 0.08951554 0.03073908 1.38823530 0.11764706 1.33333334
v 0.14761124 0.07854674 0.02978768 1.38823530 0.11764706 1.33333334
v 0.14632908 0.10563260 0.03379890 1.38823530 0.11764706 1.33333334
v 0.14632908 0.10299464 0.03354074 1.38823530 0.11764706 1.33333334
v 0.14632908 0.10039924 0.03328256 1.38823530 0.11764706 1.33333334
v 0.16547730 0.07854674 0.02436606 1.38823530 0.11764706 1.33333334
v 0.16547730 0.07854674 -0.01461312 1.38823530 0.11764706 1.33333334
v 0.14632908 0.16548018 -0.01461312 1.38823530 0.11764706 1.33333334
v 0.14632908 0.08620532 0.02752628 1.38823530 0.11764706 1.33333334
v 0.14702078 0.07854674 0.02437084 1.38823530 0.11764706 1.33333334
v 0.14632908 0.07854674 -0.01461312 1.38823530 0.11764706 1.33333334
v 0.14632908 0.08547350 0.02437084 1.38823530 0.11764706 1.33333334
v 0.14632908 0.07854674 -0.01137162 1.38823530 0.11764706 1.33333334
f 1 2 3
f 1 3 4
f 1 4 11
f 1 11 5
f 1 5 12
f 1 12 13
f 1 13 6
f 1 6 8
f 1 8 2
f 2 7 3
f 2 8 16
f 2 16 7
f 3 9 10
f 3 10 4
f 3 7 9
f 4 10 21
f 4 21 11
f 5 11 21
f 5 21 20
f 5 20 31
f 5 31 42
f 5 42 45
f 5 45 47
f 5 47 46
f 5 46 43
f 5 43 35
f 5 35 34
f 5 34 39
f 5 39 38
f 5 38 37
f 5 37 33
f 5 33 22
f 5 22 12
f 6 13 23
f 6 23 36
f 6 36 44
f 6 44 47
f 6 47 45
f 6 45 41
f 6 41 40
f 6 40 24
f 6 24 14
f 6 14 8
f 7 15 9
f 7 16 27
f 7 27 15
f 8 14 16
f 9 15 17
f 9 17 18
f 9 18 10
f 10 18 19
f 10 19 20
f 10 20 21
f 12 22 13
f 13 22 23
f 14 24 16
f 15 25 26
f 15 26 17
f 15 27 40
f 15 40 41
f 15 41 25
f 16 24 40
f 16 40 27
f 17 28 18
f 17 26 29
f 17 29 28
f 18 28 30
f 18 30 32
f 18 32 19
f 19 31 20
f 19 32 42
f 19 42 31
f 22 33 23
f 23 34 35
f 23 35 36
f 23 33 37
f 23 37 38
f 23 38 39
f 23 39 34
f 25 41 45
f 25 45 42
f 25 42 32
f 25 32 30
f 25 30 28
f 25 28 29
f 25 29 26
f 35 43 36
f 36 43 44
f 43 46 44
f 44 46 47