# https://github.com/mikedh/trimesh
v 0.11312576 0.13129190 -0.00925240 0.25882352 0.10196078 1.45098040
v 0.11205744 0.13175388 0.00812366 0.25882352 0.10196078 1.45098040
v 0.11205744 0.13280514 -0.00391060 0.25882352 0.10196078 1.45098040
v 0.11312576 0.14093706 -0.00925240 0.25882352 0.10196078 1.45098040
v 0.12712446 0.12488694 -0.00925240 0.25882352 0.10196078 1.45098040
v 0.12613266 0.12607334 0.00812366 0.25882352 0.10196078 1.45098040
v 0.12624884 0.12607334 0.00847956 0.25882352 0.10196078 1.45098040
v 0.11205744 0.13182304 0.00847956 0.25882352 0.10196078 1.45098040
v 0.11205744 0.14093864 -0.00391060 0.25882352 0.10196078 1.45098040
v 0.13502496 0.14093706 -0.00925240 0.25882352 0.10196078 1.45098040
v 0.14100700 0.12488694 -0.00925240 0.25882352 0.10196078 1.45098040
v 0.13021608 0.12488694 -0.00391060 0.25882352 0.10196078 1.45098040
v 0.14100700 0.12607334 0.00847956 0.25882352 0.10196078 1.45098040
v 0.11205744 0.14093864 0.00847956 0.25882352 0.10196078 1.45098040
v 0.13497112 0.14093864 -0.00391060 0.25882352 0.10196078 1.45098040
v 0.13497112 0.14093864 0.00456304 0.25882352 0.10196078 1.45098040
v 0.13496546 0.14093864 0.00847956 0.25882352 0.10196078 1.45098040
v 0.14100700 0.13496894 0.00847956 0.25882352 0.10196078 1.45098040
v 0.14100700 0.13502236 -0.00925240 0.25882352 0.10196078 1.45098040
v 0.14100700 0.12488694 -0.00391060 0.25882352 0.10196078 1.45098040
f 1 2 3
f 1 3 9
f 1 9 4
f 1 4 10
f 1 10 19
f 1 19 11
f 1 11 5
f 1 5 2
f 2 5 6
f 2 6 7
f 2 7 8
f 2 8 14
f 2 14 9
f 2 9 3
f 4 9 15
f 4 15 10
f 5 7 6
f 5 11 20
f 5 20 12
f 5 12 7
f 7 12 20
f 7 20 13
f 7 13 18
f 7 18 17
f 7 17 14
f 7 14 8
f 9 14 17
f 9 17 16
f 9 16 15
f 10 15 16
f 10 16 17
f 10 17 18
f 10 18 19
f 11 19 18
f 11 18 13
f 11 13 20