# https://github.com/mikedh/trimesh
v 0.13295658 -0.11229062 -0.00808914 1.12941176 0.52549020 1.04313726
v 0.12756120 -0.09962930 -0.00808914 1.12941176 0.52549020 1.04313726
v 0.14592818 -0.11229062 -0.00808914 1.12941176 0.52549020 1.04313726
v 0.13183112 -0.11229062 0.00271080 1.12941176 0.52549020 1.04313726
v 0.12756120 -0.08051596 -0.00808914 1.12941176 0.52549020 1.04313726
v 0.12756120 -0.10075232 0.00761986 1.12941176 0.52549020 1.04313726
v 0.14592818 -0.08642666 -0.00808914 1.12941176 0.52549020 1.04313726
v 0.14592818 -0.11229062 0.03402108 1.12941176 0.52549020 1.04313726
v 0.13205946 -0.11229062 0.00687418 1.12941176 0.52549020 1.04313726
v 0.12756120 -0.10075232 0.00795542 1.12941176 0.52549020 1.04313726
v 0.12756120 -0.08051286 -0.00674690 1.12941176 0.52549020 1.04313726
v 0.14592818 -0.08634578 0.02950972 1.12941176 0.52549020 1.04313726
v 0.14592818 -0.11104006 0.03403766 1.12941176 0.52549020 1.04313726
v 0.13812544 -0.10020792 0.03422822 1.12941176 0.52549020 1.04313726
v 0.14354242 -0.11229062 0.03402108 1.12941176 0.52549020 1.04313726
v 0.13436430 -0.11229062 0.02979142 1.12941176 0.52549020 1.04313726
v 0.12756120 -0.09671128 0.02979142 1.12941176 0.52549020 1.04313726
v 0.12756120 -0.08053774 0.02437282 1.12941176 0.52549020 1.04313726
v 0.12756120 -0.08078350 0.02979142 1.12941176 0.52549020 1.04313726
v 0.12756120 -0.08371086 0.03347426 1.12941176 0.52549020 1.04313726
v 0.13271028 -0.08545918 0.03310142 1.12941176 0.52549020 1.04313726
v 0.13571092 -0.08640800 0.03272858 1.12941176 0.52549020 1.04313726
v 0.14592818 -0.09215070 0.03162248 1.12941176 0.52549020 1.04313726
v 0.14592818 -0.10865400 0.03393408 1.12941176 0.52549020 1.04313726
v 0.12756120 -0.08937580 0.03411636 1.12941176 0.52549020 1.04313726
v 0.14229110 -0.11229062 0.03400452 1.12941176 0.52549020 1.04313726
v 0.14592818 -0.10562398 0.03379738 1.12941176 0.52549020 1.04313726
v 0.13812544 -0.09479496 0.03386780 1.12941176 0.52549020 1.04313726
v 0.13271028 -0.08937580 0.03396722 1.12941176 0.52549020 1.04313726
v 0.13481558 -0.11229062 0.03219832 1.12941176 0.52549020 1.04313726
v 0.13499176 -0.11229062 0.03294398 1.12941176 0.52549020 1.04313726
v 0.12756120 -0.09454920 0.03326298 1.12941176 0.52549020 1.04313726
v 0.13775868 -0.08983930 0.03304342 1.12941176 0.52549020 1.04313726
v 0.14592818 -0.10038836 0.03328368 1.12941176 0.52549020 1.04313726
v 0.12756120 -0.09358794 0.03342868 1.12941176 0.52549020 1.04313726
v 0.13737574 -0.11229062 0.03361096 1.12941176 0.52549020 1.04313726
v 0.13812544 -0.11229062 0.03380980 1.12941176 0.52549020 1.04313726
f 1 2 5
f 1 5 7
f 1 7 3
f 1 3 8
f 1 8 15
f 1 15 26
f 1 26 37
f 1 37 36
f 1 36 31
f 1 31 30
f 1 30 16
f 1 16 9
f 1 9 4
f 1 4 2
f 2 4 6
f 2 6 10
f 2 10 17
f 2 17 32
f 2 32 35
f 2 35 25
f 2 25 20
f 2 20 19
f 2 19 18
f 2 18 11
f 2 11 5
f 3 7 12
f 3 12 23
f 3 23 34
f 3 34 27
f 3 27 24
f 3 24 13
f 3 13 8
f 4 9 10
f 4 10 6
f 5 11 7
f 7 11 12
f 8 13 14
f 8 14 15
f 9 16 17
f 9 17 10
f 11 18 12
f 12 18 19
f 12 19 20
f 12 20 21
f 12 21 22
f 12 22 23
f 13 24 14
f 14 25 26
f 14 26 15
f 14 24 27
f 14 27 28
f 14 28 29
f 14 29 25
f 16 30 17
f 17 30 31
f 17 31 32
f 20 25 29
f 20 29 21
f 21 29 22
f 22 29 33
f 22 33 23
f 23 33 34
f 25 35 31
f 25 31 36
f 25 36 37
f 25 37 26
f 27 34 28
f 28 34 33
f 28 33 29
f 31 35 32