# https://github.com/mikedh/trimesh
v 0.13867182 -0.16548018 -0.01551338 0.87058824 1.97647058 0.20392156
v 0.15437418 -0.16548018 -0.01551338 0.87058824 1.97647058 0.20392156
v 0.13867182 -0.16548018 -0.00809328 0.87058824 1.97647058 0.20392156
v 0.13867182 -0.07856662 -0.01551338 0.87058824 1.97647058 0.20392156
v 0.15979022 -0.16547168 -0.01551338 0.87058824 1.97647058 0.20392156
v 0.15440566 -0.16548018 -0.00809328 0.87058824 1.97647058 0.20392156
v 0.13867182 -0.08836736 -0.00809328 0.87058824 1.97647058 0.20392156
v 0.13867182 -0.07856662 -0.01527226 0.87058824 1.97647058 0.20392156
v 0.16547918 -0.07856662 -0.01551338 0.87058824 1.97647058 0.20392156
v 0.16246152 -0.16452734 -0.01551338 0.87058824 1.97647058 0.20392156
v 0.15981646 -0.16546316 -0.00809328 0.87058824 1.97647058 0.20392156
v 0.15979022 -0.16547168 -0.00809328 0.87058824 1.97647058 0.20392156
v 0.14694286 -0.07856662 -0.00809328 0.87058824 1.97647058 0.20392156
v 0.16547918 -0.15978860 -0.01551338 0.87058824 1.97647058 0.20392156
v 0.16547918 -0.07856662 -0.00810126 0.87058824 1.97647058 0.20392156
v 0.16398870 -0.16398286 -0.01551338 0.87058824 1.97647058 0.20392156
v 0.16398870 -0.16398286 -0.00809328 0.87058824 1.97647058 0.20392156
v 0.16121508 -0.07856662 -0.00809328 0.87058824 1.97647058 0.20392156
v 0.16547918 -0.15978860 -0.00809328 0.87058824 1.97647058 0.20392156
v 0.16453188 -0.16246000 -0.01551338 0.87058824 1.97647058 0.20392156
v 0.16547918 -0.07857512 -0.00809328 0.87058824 1.97647058 0.20392156
f 1 2 6
f 1 6 3
f 1 3 7
f 1 7 8
f 1 8 4
f 1 4 9
f 1 9 14
f 1 14 20
f 1 20 16
f 1 16 10
f 1 10 5
f 1 5 2
f 2 5 6
f 3 6 12
f 3 12 11
f 3 11 17
f 3 17 19
f 3 19 21
f 3 21 18
f 3 18 13
f 3 13 7
f 4 8 13
f 4 13 18
f 4 18 15
f 4 15 9
f 5 10 11
f 5 11 12
f 5 12 6
f 7 13 8
f 9 15 21
f 9 21 19
f 9 19 14
f 10 16 17
f 10 17 11
f 14 19 20
f 15 18 21
f 16 20 17
f 17 20 19