# https://github.com/mikedh/trimesh
v -0.07337862 0.13811942 -0.01572070 0.72941176 0.87058824 1.78039216
v -0.08576048 0.13811942 -0.01135362 0.72941176 0.87058824 1.78039216
v -0.07318344 0.13807014 -0.01572070 0.72941176 0.87058824 1.78039216
v -0.11113950 0.13811942 -0.01572070 0.72941176 0.87058824 1.78039216
v -0.08492456 0.13719476 -0.01135362 0.72941176 0.87058824 1.78039216
v -0.11113950 0.13811942 -0.01135362 0.72941176 0.87058824 1.78039216
v -0.06854978 0.13186720 -0.01572070 0.72941176 0.87058824 1.78039216
v -0.11113950 0.12194250 -0.01572070 0.72941176 0.87058824 1.78039216
v -0.08399104 0.13593100 -0.01135362 0.72941176 0.87058824 1.78039216
v -0.11113950 0.13222082 -0.01135362 0.72941176 0.87058824 1.78039216
v -0.06797270 0.12703240 -0.01572070 0.72941176 0.87058824 1.78039216
v -0.07945074 0.12820632 -0.01135362 0.72941176 0.87058824 1.78039216
v -0.07909006 0.12743820 -0.01135362 0.72941176 0.87058824 1.78039216
v -0.07858088 0.12602370 -0.01135362 0.72941176 0.87058824 1.78039216
v -0.07740974 0.12187584 -0.01135362 0.72941176 0.87058824 1.78039216
v -0.07716786 0.12060916 -0.01135362 0.72941176 0.87058824 1.78039216
v -0.11003200 0.11746712 -0.01572070 0.72941176 0.87058824 1.78039216
v -0.11113950 0.13067300 -0.01135448 0.72941176 0.87058824 1.78039216
v -0.11104190 0.13067590 -0.01135362 0.72941176 0.87058824 1.78039216
v -0.06784116 0.12174830 -0.01572070 0.72941176 0.87058824 1.78039216
v -0.07668838 0.11646132 -0.01135362 0.72941176 0.87058824 1.78039216
v -0.07666716 0.11582942 -0.01135362 0.72941176 0.87058824 1.78039216
v -0.10465578 0.10850766 -0.01572070 0.72941176 0.87058824 1.78039216
v -0.09421308 0.10850766 -0.01135362 0.72941176 0.87058824 1.78039216
v -0.06779872 0.11637146 -0.01572070 0.72941176 0.87058824 1.78039216
v -0.07656532 0.11104390 -0.01135362 0.72941176 0.87058824 1.78039216
v -0.06783266 0.10850766 -0.01572070 0.72941176 0.87058824 1.78039216
v -0.07677748 0.10850766 -0.01135362 0.72941176 0.87058824 1.78039216
v -0.06779448 0.11104390 -0.01572070 0.72941176 0.87058824 1.78039216
f 1 2 3
f 1 3 7
f 1 7 11
f 1 11 20
f 1 20 25
f 1 25 29
f 1 29 27
f 1 27 23
f 1 23 17
f 1 17 8
f 1 8 4
f 1 4 6
f 1 6 2
f 2 5 3
f 2 6 10
f 2 10 19
f 2 19 24
f 2 24 28
f 2 28 26
f 2 26 22
f 2 22 21
f 2 21 16
f 2 16 15
f 2 15 14
f 2 14 13
f 2 13 12
f 2 12 9
f 2 9 5
f 3 5 7
f 4 8 18
f 4 18 10
f 4 10 6
f 5 9 7
f 7 9 12
f 7 12 13
f 7 13 14
f 7 14 15
f 7 15 16
f 7 16 11
f 8 17 18
f 10 18 19
f 11 16 21
f 11 21 22
f 11 22 20
f 17 23 18
f 18 23 24
f 18 24 19
f 20 22 26
f 20 26 25
f 23 27 28
f 23 28 24
f 25 26 29
f 26 28 27
f 26 27 29