# https://github.com/mikedh/trimesh
v 0.11293980 0.14093864 0.03389682 1.88235294 1.59215686 1.25490196
v 0.10843406 0.14093864 0.03404240 1.88235294 1.59215686 1.25490196
v 0.11293980 0.13812402 0.03383334 1.88235294 1.59215686 1.25490196
v 0.11293980 0.14093864 0.00848580 1.88235294 1.59215686 1.25490196
v 0.10301822 0.14093864 0.03400506 1.88235294 1.59215686 1.25490196
v 0.10020776 0.13812402 0.03422158 1.88235294 1.59215686 1.25490196
v 0.08931198 0.12722618 0.03412080 1.88235294 1.59215686 1.25490196
v 0.08937928 0.12722618 0.03411332 1.88235294 1.59215686 1.25490196
v 0.11293980 0.13496258 0.03296728 1.88235294 1.59215686 1.25490196
v 0.11293980 0.13174726 0.00848580 1.88235294 1.59215686 1.25490196
v 0.11205532 0.14093724 -0.00390798 1.88235294 1.59215686 1.25490196
v 0.08852364 0.14093864 0.00848580 1.88235294 1.59215686 1.25490196
v 0.09758316 0.14093864 0.03357576 1.88235294 1.59215686 1.25490196
v 0.09479512 0.13812402 0.03386694 1.88235294 1.59215686 1.25490196
v 0.08937608 0.13271170 0.03396400 1.88235294 1.59215686 1.25490196
v 0.08370386 0.12722618 0.03350856 1.88235294 1.59215686 1.25490196
v 0.08020440 0.12682270 0.00848208 1.88235294 1.59215686 1.25490196
v 0.09914702 0.12682270 0.00848208 1.88235294 1.59215686 1.25490196
v 0.09424072 0.12722618 0.03328086 1.88235294 1.59215686 1.25490196
v 0.09439134 0.12722618 0.03323978 1.88235294 1.59215686 1.25490196
v 0.09622760 0.12722618 0.03041386 1.88235294 1.59215686 1.25490196
v 0.11293980 0.13430624 0.02978670 1.88235294 1.59215686 1.25490196
v 0.10006034 0.12722618 0.01340972 1.88235294 1.59215686 1.25490196
v 0.09920150 0.12682270 -0.00390798 1.88235294 1.59215686 1.25490196
v 0.11205532 0.13280428 -0.00390798 1.88235294 1.59215686 1.25490196
v 0.09638462 0.12722618 0.02978670 1.88235294 1.59215686 1.25490196
v 0.08852044 0.14093724 -0.00390798 1.88235294 1.59215686 1.25490196
v 0.08852364 0.14093864 0.01895706 1.88235294 1.59215686 1.25490196
v 0.09479512 0.14093864 0.03324726 1.88235294 1.59215686 1.25490196
v 0.08984396 0.13775510 0.03303448 1.88235294 1.59215686 1.25490196
v 0.08369106 0.12750942 0.03347124 1.88235294 1.59215686 1.25490196
v 0.08641178 0.13570182 0.03272090 1.88235294 1.59215686 1.25490196
v 0.08546002 0.13271170 0.03309794 1.88235294 1.59215686 1.25490196
v 0.08318472 0.12722618 0.03338538 1.88235294 1.59215686 1.25490196
v 0.08110810 0.12722618 0.03173162 1.88235294 1.59215686 1.25490196
v 0.08062100 0.12722618 0.02978670 1.88235294 1.59215686 1.25490196
v 0.08055692 0.12722618 0.02876384 1.88235294 1.59215686 1.25490196
v 0.08038706 0.12722618 0.02437374 1.88235294 1.59215686 1.25490196
v 0.08022362 0.12687382 0.00848208 1.88235294 1.59215686 1.25490196
v 0.08021722 0.12687382 -0.00390798 1.88235294 1.59215686 1.25490196
v 0.08020440 0.12682270 -0.00390798 1.88235294 1.59215686 1.25490196
v 0.08146704 0.12958206 -0.00390798 1.88235294 1.59215686 1.25490196
v 0.08146384 0.12958206 0.00271074 1.88235294 1.59215686 1.25490196
v 0.08146062 0.12958206 0.01895706 1.88235294 1.59215686 1.25490196
v 0.08146062 0.12958206 0.02437374 1.88235294 1.59215686 1.25490196
v 0.08852686 0.14093864 0.02437374 1.88235294 1.59215686 1.25490196
v 0.09350366 0.14093864 0.03300834 1.88235294 1.59215686 1.25490196
v 0.09177636 0.14093864 0.03263130 1.88235294 1.59215686 1.25490196
v 0.08934404 0.14093864 0.02976430 1.88235294 1.59215686 1.25490196
v 0.08170096 0.12938308 0.02978670 1.88235294 1.59215686 1.25490196
f 1 2 3
f 1 3 9
f 1 9 22
f 1 22 10
f 1 10 4
f 1 4 12
f 1 12 28
f 1 28 46
f 1 46 49
f 1 49 48
f 1 48 47
f 1 47 29
f 1 29 13
f 1 13 5
f 1 5 2
f 2 5 6
f 2 6 3
f 3 6 7
f 3 7 8
f 3 8 9
f 4 10 25
f 4 25 11
f 4 11 27
f 4 27 12
f 5 13 14
f 5 14 6
f 6 14 15
f 6 15 7
f 7 15 16
f 7 16 17
f 7 17 18
f 7 18 8
f 8 18 19
f 8 19 9
f 9 20 21
f 9 21 22
f 9 19 20
f 10 23 18
f 10 18 24
f 10 24 25
f 10 22 21
f 10 21 26
f 10 26 23
f 11 25 24
f 11 24 41
f 11 41 40
f 11 40 42
f 11 42 27
f 12 27 28
f 13 29 14
f 14 29 30
f 14 30 15
f 15 31 16
f 15 30 32
f 15 32 33
f 15 33 31
f 16 31 34
f 16 34 17
f 17 34 35
f 17 35 36
f 17 36 37
f 17 37 38
f 17 38 39
f 17 39 40
f 17 40 41
f 17 41 24
f 17 24 18
f 18 23 26
f 18 26 21
f 18 21 20
f 18 20 19
f 27 42 43
f 27 43 44
f 27 44 45
f 27 45 28
f 28 45 46
f 29 47 30
f 30 47 48
f 30 48 32
f 31 33 34
f 32 48 49
f 32 49 50
f 32 50 35
f 32 35 34
f 32 34 33
f 35 50 36
f 36 50 45
f 36 45 37
f 37 45 38
f 38 45 40
f 38 40 39
f 40 45 44
f 40 44 43
f 40 43 42
f 45 50 46
f 46 50 49