# https://github.com/mikedh/trimesh
v 0.11198778 -0.13863796 -0.01551338 1.97647058 0.43137254 1.32549020
v 0.13867182 -0.13863796 -0.01551338 1.97647058 0.43137254 1.32549020
v 0.11198778 -0.13863796 -0.01150670 1.97647058 0.43137254 1.32549020
v 0.11198778 -0.12679632 -0.01551338 1.97647058 0.43137254 1.32549020
v 0.13867182 -0.13863796 -0.01216010 1.97647058 0.43137254 1.32549020
v 0.13867182 -0.11090066 -0.01551338 1.97647058 0.43137254 1.32549020
v 0.13782806 -0.13863796 -0.01150670 1.97647058 0.43137254 1.32549020
v 0.11198778 -0.13241166 -0.01150670 1.97647058 0.43137254 1.32549020
v 0.12262744 -0.11090066 -0.01551338 1.97647058 0.43137254 1.32549020
v 0.13867182 -0.13778534 -0.01150670 1.97647058 0.43137254 1.32549020
v 0.13830088 -0.13829582 -0.01150670 1.97647058 0.43137254 1.32549020
v 0.13867182 -0.11090066 -0.01150670 1.97647058 0.43137254 1.32549020
v 0.13106498 -0.11090066 -0.01150670 1.97647058 0.43137254 1.32549020
f 1 2 5
f 1 5 7
f 1 7 3
f 1 3 8
f 1 8 4
f 1 4 9
f 1 9 6
f 1 6 2
f 2 6 12
f 2 12 10
f 2 10 5
f 3 7 11
f 3 11 10
f 3 10 12
f 3 12 13
f 3 13 8
f 4 8 9
f 5 10 11
f 5 11 7
f 6 9 13
f 6 13 12
f 8 13 9