# https://github.com/mikedh/trimesh
v 0.10580956 -0.08395994 0.03422582 1.14509804 1.17647058 1.13725490
v 0.10580956 -0.08001278 0.03336004 1.14509804 1.17647058 1.13725490
v 0.10562466 -0.08001810 0.03336004 1.14509804 1.17647058 1.13725490
v 0.10562466 -0.08395994 0.03422166 1.14509804 1.17647058 1.13725490
v 0.09478958 -0.08937566 0.03420924 1.14509804 1.17647058 1.13725490
v 0.08937612 -0.09479138 0.03420924 1.14509804 1.17647058 1.13725490
v 0.08395994 -0.10488590 0.03418438 1.14509804 1.17647058 1.13725490
v 0.08469678 -0.10488590 0.03417610 1.14509804 1.17647058 1.13725490
v 0.10580956 -0.08893562 0.03334762 1.14509804 1.17647058 1.13725490
v 0.10580956 -0.07994386 0.03323992 1.14509804 1.17647058 1.13725490
v 0.10580956 -0.07829768 0.02978926 1.14509804 1.17647058 1.13725490
v 0.10562466 -0.07831624 0.02978926 1.14509804 1.17647058 1.13725490
v 0.10020848 -0.08058538 0.03305764 1.14509804 1.17647058 1.13725490
v 0.10020848 -0.08395994 0.03392342 1.14509804 1.17647058 1.13725490
v 0.08931086 -0.08931204 0.03350916 1.14509804 1.17647058 1.13725490
v 0.08395994 -0.10020712 0.03392756 1.14509804 1.17647058 1.13725490
v 0.08055580 -0.10488590 0.03343874 1.14509804 1.17647058 1.13725490
v 0.08943866 -0.10488590 0.03329376 1.14509804 1.17647058 1.13725490
v 0.10580956 -0.08932530 0.03326890 1.14509804 1.17647058 1.13725490
v 0.10580956 -0.07827912 0.02960700 1.14509804 1.17647058 1.13725490
v 0.10562466 -0.07784704 0.02437510 1.14509804 1.17647058 1.13725490
v 0.10020848 -0.07965492 0.02978926 1.14509804 1.17647058 1.13725490
v 0.09717954 -0.08108374 0.03267654 1.14509804 1.17647058 1.13725490
v 0.09514032 -0.08401826 0.03328134 1.14509804 1.17647058 1.13725490
v 0.09107276 -0.08586326 0.03305350 1.14509804 1.17647058 1.13725490
v 0.08586594 -0.09107222 0.03305350 1.14509804 1.17647058 1.13725490
v 0.08401976 -0.09514130 0.03328548 1.14509804 1.17647058 1.13725490
v 0.08058842 -0.10020712 0.03306178 1.14509804 1.17647058 1.13725490
v 0.08009628 -0.10488590 0.03331862 1.14509804 1.17647058 1.13725490
v 0.08969968 -0.10488590 0.03323162 1.14509804 1.17647058 1.13725490
v 0.08991992 -0.10488590 0.03313636 1.14509804 1.17647058 1.13725490
v 0.09217938 -0.10318668 0.03259784 1.14509804 1.17647058 1.13725490
v 0.09164918 -0.10488590 0.03107342 1.14509804 1.17647058 1.13725490
v 0.10580956 -0.09138502 0.03029878 1.14509804 1.17647058 1.13725490
v 0.10580956 -0.07782582 0.02437510 1.14509804 1.17647058 1.13725490
v 0.10020848 -0.07939248 0.02437510 1.14509804 1.17647058 1.13725490
v 0.10580956 -0.07780726 -0.00809328 1.14509804 1.17647058 1.13725490
v 0.10562466 -0.07783112 -0.00809328 1.14509804 1.17647058 1.13725490
v 0.10559204 -0.07783908 -0.00809328 1.14509804 1.17647058 1.13725490
v 0.10020848 -0.07934742 -0.00809328 1.14509804 1.17647058 1.13725490
v 0.09686688 -0.08091408 0.02978926 1.14509804 1.17647058 1.13725490
v 0.09415878 -0.08258414 0.02978926 1.14509804 1.17647058 1.13725490
v 0.09038486 -0.08529332 0.02978926 1.14509804 1.17647058 1.13725490
v 0.08767676 -0.08767644 0.02978926 1.14509804 1.17647058 1.13725490
v 0.08529494 -0.09038298 0.02978926 1.14509804 1.17647058 1.13725490
v 0.08108328 -0.09717716 0.03267654 1.14509804 1.17647058 1.13725490
v 0.07862532 -0.10488590 0.03023664 1.14509804 1.17647058 1.13725490
v 0.09493912 -0.10488590 0.01353850 1.14509804 1.17647058 1.13725490
v 0.10580956 -0.09374694 0.01375806 1.14509804 1.17647058 1.13725490
v 0.09671460 -0.08082660 0.02437510 1.14509804 1.17647058 1.13725490
v 0.10018674 -0.07935538 -0.00809328 1.14509804 1.17647058 1.13725490
v 0.10580956 -0.09460582 -0.00809328 1.14509804 1.17647058 1.13725490
v 0.09400652 -0.08241448 0.02437510 1.14509804 1.17647058 1.13725490
v 0.09020268 -0.08512366 0.02437510 1.14509804 1.17647058 1.13725490
v 0.08749460 -0.08749354 0.02437510 1.14509804 1.17647058 1.13725490
v 0.08258686 -0.09415782 0.02978926 1.14509804 1.17647058 1.13725490
v 0.08512638 -0.09020274 0.02437510 1.14509804 1.17647058 1.13725490
v 0.08091198 -0.09686702 0.02978926 1.14509804 1.17647058 1.13725490
v 0.07965854 -0.10020712 0.02978926 1.14509804 1.17647058 1.13725490
v 0.07849754 -0.10488590 0.02978926 1.14509804 1.17647058 1.13725490
v 0.09457478 -0.10488590 -0.00809328 1.14509804 1.17647058 1.13725490
v 0.10580956 -0.09425060 0.00812848 1.14509804 1.17647058 1.13725490
v 0.10580956 -0.09424266 0.00827348 1.14509804 1.17647058 1.13725490
v 0.09671188 -0.08080010 -0.00809328 1.14509804 1.17647058 1.13725490
v 0.09400380 -0.08241182 -0.00809328 1.14509804 1.17647058 1.13725490
v 0.09020268 -0.08511836 -0.00809328 1.14509804 1.17647058 1.13725490
v 0.08749460 -0.08749354 -0.00270812 1.14509804 1.17647058 1.13725490
v 0.08512094 -0.09020274 -0.00809328 1.14509804 1.17647058 1.13725490
v 0.08241828 -0.09400672 0.02437510 1.14509804 1.17647058 1.13725490
v 0.08242916 -0.09398022 -0.00809328 1.14509804 1.17647058 1.13725490
v 0.08082768 -0.09671592 0.02437510 1.14509804 1.17647058 1.13725490
v 0.07939208 -0.10020712 0.02437510 1.14509804 1.17647058 1.13725490
v 0.07809242 -0.10488590 0.02510832 1.14509804 1.17647058 1.13725490
v 0.07803532 -0.10488590 -0.00809328 1.14509804 1.17647058 1.13725490
v 0.08751090 -0.08748028 -0.00809328 1.14509804 1.17647058 1.13725490
v 0.08748100 -0.08750944 -0.00809328 1.14509804 1.17647058 1.13725490
v 0.08240470 -0.09401734 -0.00809328 1.14509804 1.17647058 1.13725490
v 0.08080050 -0.09671060 -0.00809328 1.14509804 1.17647058 1.13725490
v 0.07935402 -0.10018590 -0.00809328 1.14509804 1.17647058 1.13725490
v 0.07805706 -0.10488590 0.02437510 1.14509804 1.17647058 1.13725490
v 0.07934586 -0.10020712 -0.00809328 1.14509804 1.17647058 1.13725490
f 1 2 3
f 1 3 4
f 1 4 5
f 1 5 6
f 1 6 7
f 1 7 8
f 1 8 9
f 1 9 19
f 1 19 34
f 1 34 49
f 1 49 63
f 1 63 62
f 1 62 52
f 1 52 37
f 1 37 35
f 1 35 20
f 1 20 11
f 1 11 10
f 1 10 2
f 2 10 3
f 3 10 11
f 3 11 12
f 3 12 13
f 3 13 14
f 3 14 4
f 4 14 5
f 5 14 15
f 5 15 6
f 6 15 16
f 6 16 7
f 7 16 17
f 7 17 29
f 7 29 47
f 7 47 60
f 7 60 73
f 7 73 80
f 7 80 74
f 7 74 61
f 7 61 48
f 7 48 33
f 7 33 31
f 7 31 30
f 7 30 18
f 7 18 8
f 8 18 9
f 9 18 19
f 11 20 12
f 12 20 21
f 12 21 22
f 12 22 23
f 12 23 13
f 13 24 14
f 13 23 24
f 14 24 15
f 15 24 25
f 15 25 26
f 15 26 27
f 15 27 16
f 16 27 28
f 16 28 17
f 17 28 29
f 18 30 19
f 19 30 31
f 19 31 32
f 19 32 33
f 19 33 34
f 20 35 21
f 21 36 22
f 21 35 37
f 21 37 38
f 21 38 39
f 21 39 40
f 21 40 36
f 22 41 23
f 22 36 41
f 23 41 42
f 23 42 43
f 23 43 25
f 23 25 24
f 25 43 44
f 25 44 26
f 26 44 45
f 26 45 46
f 26 46 27
f 27 46 28
f 28 46 47
f 28 47 29
f 31 33 32
f 33 48 34
f 34 48 49
f 36 50 41
f 36 40 51
f 36 51 50
f 37 52 61
f 37 61 74
f 37 74 81
f 37 81 79
f 37 79 78
f 37 78 77
f 37 77 70
f 37 70 68
f 37 68 76
f 37 76 75
f 37 75 66
f 37 66 65
f 37 65 64
f 37 64 51
f 37 51 40
f 37 40 39
f 37 39 38
f 41 50 53
f 41 53 42
f 42 53 54
f 42 54 43
f 43 54 55
f 43 55 44
f 44 55 45
f 45 56 46
f 45 55 57
f 45 57 56
f 46 56 58
f 46 58 59
f 46 59 60
f 46 60 47
f 48 61 52
f 48 52 62
f 48 62 63
f 48 63 49
f 50 51 64
f 50 64 53
f 53 64 65
f 53 65 66
f 53 66 54
f 54 66 55
f 55 66 67
f 55 67 68
f 55 68 57
f 56 57 69
f 56 69 58
f 57 68 70
f 57 70 69
f 58 69 71
f 58 71 72
f 58 72 59
f 59 72 73
f 59 73 60
f 66 75 67
f 67 75 76
f 67 76 68
f 69 70 77
f 69 77 78
f 69 78 71
f 71 78 79
f 71 79 72
f 72 80 73
f 72 79 81
f 72 81 80
f 74 80 81