# https://github.com/mikedh/trimesh
v 0.11312420 0.07703300 -0.00925414 1.71764706 1.94509804 1.92156862
v 0.11645960 0.07713574 -0.00925414 1.71764706 1.94509804 1.92156862
v 0.11312420 0.07726652 -0.00391172 1.71764706 1.94509804 1.92156862
v 0.11312420 0.09152814 -0.00925414 1.71764706 1.94509804 1.92156862
v 0.11645960 0.07739264 -0.00391172 1.71764706 1.94509804 1.92156862
v 0.12187550 0.07806052 -0.00925414 1.71764706 1.94509804 1.92156862
v 0.11312420 0.09241788 -0.00391172 1.71764706 1.94509804 1.92156862
v 0.12931164 0.10059840 -0.00925414 1.71764706 1.94509804 1.92156862
v 0.12187550 0.07843416 -0.00391172 1.71764706 1.94509804 1.92156862
v 0.12704578 0.07980732 -0.00925414 1.71764706 1.94509804 1.92156862
v 0.12868260 0.10039290 -0.00391172 1.71764706 1.94509804 1.92156862
v 0.12931164 0.10084128 -0.00391434 1.71764706 1.94509804 1.92156862
v 0.12931164 0.10088798 -0.00527400 1.71764706 1.94509804 1.92156862
v 0.12931164 0.08130424 -0.00925414 1.71764706 1.94509804 1.92156862
v 0.12574014 0.07981900 -0.00391172 1.71764706 1.94509804 1.92156862
v 0.12684296 0.08021600 -0.00391172 1.71764706 1.94509804 1.92156862
v 0.12931164 0.08136730 -0.00391172 1.71764706 1.94509804 1.92156862
v 0.12931164 0.10061242 -0.00391172 1.71764706 1.94509804 1.92156862
f 1 2 3
f 1 3 7
f 1 7 4
f 1 4 8
f 1 8 14
f 1 14 10
f 1 10 6
f 1 6 2
f 2 5 3
f 2 6 5
f 3 5 9
f 3 9 15
f 3 15 16
f 3 16 17
f 3 17 18
f 3 18 11
f 3 11 7
f 4 7 8
f 5 6 9
f 6 10 9
f 7 11 12
f 7 12 13
f 7 13 8
f 8 13 12
f 8 12 18
f 8 18 17
f 8 17 14
f 9 10 15
f 10 16 15
f 10 14 17
f 10 17 16
f 11 18 12