# https://github.com/mikedh/trimesh
v -0.07885128 0.09805854 -0.01135320 1.17647058 1.14509804 1.30196078
v -0.07957538 0.09561440 -0.01135320 1.17647058 1.14509804 1.30196078
v -0.09887632 0.09805854 -0.01135320 1.17647058 1.14509804 1.30196078
v -0.08035794 0.09805854 0.02783534 1.17647058 1.14509804 1.30196078
v -0.08420254 0.08942936 -0.01135320 1.17647058 1.14509804 1.30196078
v -0.08090670 0.09684384 0.02978964 1.17647058 1.14509804 1.30196078
v -0.08256924 0.09413656 0.02978964 1.17647058 1.14509804 1.30196078
v -0.08239714 0.09398290 0.02437294 1.17647058 1.14509804 1.30196078
v -0.08510524 0.09018302 0.02437294 1.17647058 1.14509804 1.30196078
v -0.11202072 0.09147350 -0.01135320 1.17647058 1.14509804 1.30196078
v -0.11202072 0.09303134 -0.00237146 1.17647058 1.14509804 1.30196078
v -0.09997710 0.09805854 0.00271060 1.17647058 1.14509804 1.30196078
v -0.08045210 0.09805854 0.02978964 1.17647058 1.14509804 1.30196078
v -0.08943366 0.08420638 -0.01135320 1.17647058 1.14509804 1.30196078
v -0.08747240 0.08747364 0.02437294 1.17647058 1.14509804 1.30196078
v -0.08065668 0.09805854 0.03183316 1.17647058 1.14509804 1.30196078
v -0.08107880 0.09716594 0.03268092 1.17647058 1.14509804 1.30196078
v -0.08527734 0.09036616 0.02978964 1.17647058 1.14509804 1.30196078
v -0.11202072 0.07657718 -0.01135320 1.17647058 1.14509804 1.30196078
v -0.11202072 0.09301450 -0.00139432 1.17647058 1.14509804 1.30196078
v -0.11202072 0.09294082 0.00283998 1.17647058 1.14509804 1.30196078
v -0.11202072 0.09241242 0.01895624 1.17647058 1.14509804 1.30196078
v -0.09587272 0.09805854 0.02978964 1.17647058 1.14509804 1.30196078
v -0.09561296 0.07957286 -0.01135320 1.17647058 1.14509804 1.30196078
v -0.09018052 0.08511372 0.02437294 1.17647058 1.14509804 1.30196078
v -0.08765750 0.08765680 0.02978964 1.17647058 1.14509804 1.30196078
v -0.09036560 0.08528424 0.02978964 1.17647058 1.14509804 1.30196078
v -0.08093268 0.09805854 0.03279246 1.17647058 1.14509804 1.30196078
v -0.08203346 0.09805854 0.03315834 1.17647058 1.14509804 1.30196078
v -0.08401422 0.09513232 0.03328774 1.17647058 1.14509804 1.30196078
v -0.08585532 0.09105878 0.03305572 1.17647058 1.14509804 1.30196078
v -0.11104008 0.07655402 -0.01135320 1.17647058 1.14509804 1.30196078
v -0.11104008 0.07718136 0.02437294 1.17647058 1.14509804 1.30196078
v -0.11202072 0.07721926 0.02437294 1.17647058 1.14509804 1.30196078
v -0.11202072 0.09183770 0.02327978 1.17647058 1.14509804 1.30196078
v -0.09538566 0.09805854 0.03098542 1.17647058 1.14509804 1.30196078
v -0.10020766 0.07809080 -0.01135320 1.17647058 1.14509804 1.30196078
v -0.09398290 0.08240434 0.02437294 1.17647058 1.14509804 1.30196078
v -0.09413226 0.08257698 0.02978964 1.17647058 1.14509804 1.30196078
v -0.09683712 0.08089914 0.02978964 1.17647058 1.14509804 1.30196078
v -0.10020766 0.07938340 0.02437294 1.17647058 1.14509804 1.30196078
v -0.09106048 0.08586106 0.03305572 1.17647058 1.14509804 1.30196078
v -0.09715860 0.08107176 0.03268538 1.17647058 1.14509804 1.30196078
v -0.08398174 0.09805854 0.03365806 1.17647058 1.14509804 1.30196078
v -0.08930378 0.08930306 0.03351082 1.17647058 1.14509804 1.30196078
v -0.10562386 0.07699400 -0.01135320 1.17647058 1.14509804 1.30196078
v -0.10562386 0.07783398 0.02437294 1.17647058 1.14509804 1.30196078
v -0.10562386 0.07830344 0.02978964 1.17647058 1.14509804 1.30196078
v -0.11104008 0.07777082 0.02978964 1.17647058 1.14509804 1.30196078
v -0.11202072 0.07780450 0.02978964 1.17647058 1.14509804 1.30196078
v -0.11202072 0.09022722 0.02978964 1.17647058 1.14509804 1.30196078
v -0.09380756 0.09805854 0.03322080 1.17647058 1.14509804 1.30196078
v -0.10020766 0.07964654 0.02978964 1.17647058 1.14509804 1.30196078
v -0.09513238 0.08401692 0.03329220 1.17647058 1.14509804 1.30196078
v -0.10020766 0.08058124 0.03306910 1.17647058 1.14509804 1.30196078
v -0.08610862 0.09805854 0.03404178 1.17647058 1.14509804 1.30196078
v -0.08937846 0.09479128 0.03421134 1.17647058 1.14509804 1.30196078
v -0.09479468 0.08937464 0.03421134 1.17647058 1.14509804 1.30196078
v -0.10020766 0.08396008 0.03393470 1.17647058 1.14509804 1.30196078
v -0.10562386 0.08001074 0.03335912 1.17647058 1.14509804 1.30196078
v -0.11104008 0.07980654 0.03336358 1.17647058 1.14509804 1.30196078
v -0.11202072 0.07981916 0.03336358 1.17647058 1.14509804 1.30196078
v -0.11202072 0.08815362 0.03336358 1.17647058 1.14509804 1.30196078
v -0.09164822 0.09805854 0.03373392 1.17647058 1.14509804 1.30196078
v -0.08937846 0.09805854 0.03400610 1.17647058 1.14509804 1.30196078
v -0.10562386 0.08396008 0.03422472 1.17647058 1.14509804 1.30196078
v -0.11202072 0.08396008 0.03422918 1.17647058 1.14509804 1.30196078
v -0.11104008 0.08396008 0.03422918 1.17647058 1.14509804 1.30196078
f 1 2 5
f 1 5 14
f 1 14 24
f 1 24 37
f 1 37 46
f 1 46 32
f 1 32 19
f 1 19 10
f 1 10 3
f 1 3 12
f 1 12 23
f 1 23 36
f 1 36 52
f 1 52 64
f 1 64 65
f 1 65 56
f 1 56 44
f 1 44 29
f 1 29 28
f 1 28 16
f 1 16 13
f 1 13 4
f 1 4 2
f 2 4 6
f 2 6 7
f 2 7 8
f 2 8 9
f 2 9 5
f 3 10 11
f 3 11 12
f 4 13 6
f 5 9 15
f 5 15 14
f 6 13 16
f 6 16 17
f 6 17 7
f 7 18 9
f 7 9 8
f 7 17 18
f 9 18 15
f 10 19 34
f 10 34 50
f 10 50 62
f 10 62 67
f 10 67 63
f 10 63 51
f 10 51 35
f 10 35 22
f 10 22 21
f 10 21 20
f 10 20 11
f 11 20 12
f 12 20 21
f 12 21 22
f 12 22 23
f 14 15 25
f 14 25 24
f 15 18 26
f 15 26 27
f 15 27 25
f 16 28 17
f 17 28 29
f 17 29 30
f 17 30 31
f 17 31 18
f 18 31 26
f 19 32 33
f 19 33 34
f 22 35 23
f 23 35 36
f 24 25 38
f 24 38 39
f 24 39 40
f 24 40 41
f 24 41 37
f 25 27 39
f 25 39 38
f 26 31 42
f 26 42 27
f 27 42 43
f 27 43 39
f 29 44 30
f 30 44 45
f 30 45 31
f 31 45 42
f 32 46 33
f 33 47 48
f 33 48 49
f 33 49 50
f 33 50 34
f 33 46 47
f 35 51 36
f 36 51 52
f 37 41 47
f 37 47 46
f 39 43 40
f 40 43 53
f 40 53 41
f 41 53 47
f 42 45 54
f 42 54 43
f 43 54 55
f 43 55 48
f 43 48 53
f 44 56 45
f 45 56 57
f 45 57 58
f 45 58 59
f 45 59 54
f 47 53 48
f 48 55 60
f 48 60 49
f 49 60 61
f 49 61 62
f 49 62 50
f 51 63 52
f 52 63 64
f 54 59 55
f 55 59 60
f 56 65 57
f 57 66 58
f 57 65 67
f 57 67 68
f 57 68 66
f 58 66 59
f 59 66 60
f 60 66 61
f 61 66 68
f 61 68 67
f 61 67 62
f 63 67 65
f 63 65 64