# https://github.com/mikedh/trimesh
v 0.10561468 -0.13813394 0.03404556 1.62352942 0.79215686 1.75686274
v 0.08395930 -0.12179384 0.03415742 1.62352942 0.79215686 1.75686274
v 0.10020750 -0.13812420 0.03422784 1.62352942 0.79215686 1.75686274
v 0.10561468 -0.14169968 0.03388400 1.62352942 0.79215686 1.75686274
v 0.10561468 -0.13457794 0.03318390 1.62352942 0.79215686 1.75686274
v 0.08967562 -0.12179384 0.03344074 1.62352942 0.79215686 1.75686274
v 0.08958768 -0.12179384 0.03345730 1.62352942 0.79215686 1.75686274
v 0.08395930 -0.12187762 0.03415328 1.62352942 0.79215686 1.75686274
v 0.08937716 -0.13270738 0.03395856 1.62352942 0.79215686 1.75686274
v 0.08022038 -0.12179384 0.03329160 1.62352942 0.79215686 1.75686274
v 0.08022572 -0.12187762 0.03329160 1.62352942 0.79215686 1.75686274
v 0.09478966 -0.13812420 0.03386328 1.62352942 0.79215686 1.75686274
v 0.10032742 -0.14169968 0.03362302 1.62352942 0.79215686 1.75686274
v 0.10561468 -0.14169968 -0.00808914 1.62352942 0.79215686 1.75686274
v 0.10561468 -0.13340494 0.02979108 1.62352942 0.79215686 1.75686274
v 0.09257508 -0.12179384 0.02979108 1.62352942 0.79215686 1.75686274
v 0.09262306 -0.12346760 0.03293534 1.62352942 0.79215686 1.75686274
v 0.08072406 -0.12583308 0.03297676 1.62352942 0.79215686 1.75686274
v 0.08370080 -0.12750100 0.03347802 1.62352942 0.79215686 1.75686274
v 0.08547832 -0.13270738 0.03309690 1.62352942 0.79215686 1.75686274
v 0.08641906 -0.13569638 0.03271992 1.62352942 0.79215686 1.75686274
v 0.08984618 -0.13775008 0.03303062 1.62352942 0.79215686 1.75686274
v 0.07881062 -0.12179384 0.02979108 1.62352942 0.79215686 1.75686274
v 0.09478966 -0.14169968 0.03307204 1.62352942 0.79215686 1.75686274
v 0.08851370 -0.14169968 -0.00808914 1.62352942 0.79215686 1.75686274
v 0.10561468 -0.13179938 -0.00808914 1.62352942 0.79215686 1.75686274
v 0.10561468 -0.13067120 0.01932680 1.62352942 0.79215686 1.75686274
v 0.09489358 -0.12179384 0.01906582 1.62352942 0.79215686 1.75686274
v 0.07882394 -0.12187762 0.02979108 1.62352942 0.79215686 1.75686274
v 0.08033764 -0.12665340 0.02979108 1.62352942 0.79215686 1.75686274
v 0.08171542 -0.12936180 0.02979108 1.62352942 0.79215686 1.75686274
v 0.08865494 -0.14169968 0.02635684 1.62352942 0.79215686 1.75686274
v 0.08951306 -0.14169968 0.02975380 1.62352942 0.79215686 1.75686274
v 0.08990746 -0.14169968 0.03083916 1.62352942 0.79215686 1.75686274
v 0.09157306 -0.14169968 0.03203224 1.62352942 0.79215686 1.75686274
v 0.09196748 -0.14121452 0.03258736 1.62352942 0.79215686 1.75686274
v 0.09361174 -0.14169968 0.03282764 1.62352942 0.79215686 1.75686274
v 0.07842954 -0.12179384 0.02437252 1.62352942 0.79215686 1.75686274
v 0.08147556 -0.12955860 -0.00808914 1.62352942 0.79215686 1.75686274
v 0.08851104 -0.14169968 -0.00606338 1.62352942 0.79215686 1.75686274
v 0.10561468 -0.13170974 -0.00807670 1.62352942 0.79215686 1.75686274
v 0.09439790 -0.12179384 -0.00808914 1.62352942 0.79215686 1.75686274
v 0.09567176 -0.12179384 0.01379638 1.62352942 0.79215686 1.75686274
v 0.10561468 -0.13053286 -0.00270786 1.62352942 0.79215686 1.75686274
v 0.07844552 -0.12187762 0.02437252 1.62352942 0.79215686 1.75686274
v 0.08021772 -0.12685020 0.02437252 1.62352942 0.79215686 1.75686274
v 0.08147556 -0.12955860 0.02437252 1.62352942 0.79215686 1.75686274
v 0.08853236 -0.14169968 0.02437252 1.62352942 0.79215686 1.75686274
v 0.07839222 -0.12179384 -0.00808914 1.62352942 0.79215686 1.75686274
v 0.08018840 -0.12685020 -0.00808914 1.62352942 0.79215686 1.75686274
v 0.09576504 -0.12179384 -0.00277828 1.62352942 0.79215686 1.75686274
v 0.10561468 -0.13065170 -0.00332096 1.62352942 0.79215686 1.75686274
v 0.09577302 -0.12179384 -0.00270786 1.62352942 0.79215686 1.75686274
v 0.07840822 -0.12187762 -0.00808914 1.62352942 0.79215686 1.75686274
v 0.08017774 -0.12682096 -0.00808914 1.62352942 0.79215686 1.75686274
f 1 2 3
f 1 3 4
f 1 4 14
f 1 14 26
f 1 26 41
f 1 41 52
f 1 52 44
f 1 44 27
f 1 27 15
f 1 15 5
f 1 5 6
f 1 6 7
f 1 7 2
f 2 8 9
f 2 9 3
f 2 7 6
f 2 6 16
f 2 16 28
f 2 28 43
f 2 43 53
f 2 53 51
f 2 51 42
f 2 42 49
f 2 49 38
f 2 38 23
f 2 23 10
f 2 10 11
f 2 11 8
f 3 9 12
f 3 12 13
f 3 13 4
f 4 13 24
f 4 24 37
f 4 37 35
f 4 35 34
f 4 34 33
f 4 33 32
f 4 32 48
f 4 48 40
f 4 40 25
f 4 25 14
f 5 15 16
f 5 16 17
f 5 17 6
f 6 17 16
f 8 11 18
f 8 18 19
f 8 19 9
f 9 19 20
f 9 20 21
f 9 21 22
f 9 22 12
f 10 23 11
f 11 23 18
f 12 22 24
f 12 24 13
f 14 25 39
f 14 39 50
f 14 50 55
f 14 55 54
f 14 54 49
f 14 49 42
f 14 42 26
f 15 27 16
f 16 27 28
f 18 23 29
f 18 29 30
f 18 30 31
f 18 31 21
f 18 21 20
f 18 20 19
f 21 31 32
f 21 32 33
f 21 33 34
f 21 34 35
f 21 35 36
f 21 36 22
f 22 36 37
f 22 37 24
f 23 38 29
f 25 40 39
f 26 42 41
f 27 43 28
f 27 44 43
f 29 38 45
f 29 45 30
f 30 45 46
f 30 46 47
f 30 47 31
f 31 47 32
f 32 47 48
f 35 37 36
f 38 49 54
f 38 54 45
f 39 40 47
f 39 47 50
f 40 48 47
f 41 51 52
f 41 42 51
f 43 44 53
f 44 52 51
f 44 51 53
f 45 54 46
f 46 54 55
f 46 55 50
f 46 50 47