# https://github.com/mikedh/trimesh
v -0.12052692 0.13046538 0.01354452 0.26666666 1.63921568 0.37647058
v -0.12701240 0.12503948 0.01354452 0.26666666 1.63921568 0.37647058
v -0.12052898 0.13046538 0.00828530 0.26666666 1.63921568 0.37647058
v -0.12550508 0.13046538 0.02978900 0.26666666 1.63921568 0.37647058
v -0.13079424 0.12503948 0.02978900 0.26666666 1.63921568 0.37647058
v -0.12791018 0.12503948 0.00837106 0.26666666 1.63921568 0.37647058
v -0.12054972 0.13046538 0.00812652 0.26666666 1.63921568 0.37647058
v -0.12568546 0.13046538 0.03014786 0.26666666 1.63921568 0.37647058
v -0.13092072 0.12503948 0.03004942 0.26666666 1.63921568 0.37647058
v -0.13007270 0.12503948 0.00176210 0.26666666 1.63921568 0.37647058
v -0.12416982 0.13046538 0.00176210 0.26666666 1.63921568 0.37647058
v -0.12692326 0.12778670 0.00176210 0.26666666 1.63921568 0.37647058
v -0.12883076 0.12882460 0.03306964 0.26666666 1.63921568 0.37647058
v -0.12808020 0.13046538 0.03327608 0.26666666 1.63921568 0.37647058
v -0.13318068 0.12503948 0.03343170 0.26666666 1.63921568 0.37647058
v -0.14170638 0.12503948 0.00176210 0.26666666 1.63921568 0.37647058
v -0.14170638 0.13046538 0.00176210 0.26666666 1.63921568 0.37647058
v -0.12921018 0.13046538 0.03353332 0.26666666 1.63921568 0.37647058
v -0.13476266 0.12503948 0.03377786 0.26666666 1.63921568 0.37647058
v -0.14170638 0.12503948 0.03364130 0.26666666 1.63921568 0.37647058
v -0.14170638 0.13046538 0.03312998 0.26666666 1.63921568 0.37647058
v -0.13264162 0.13046538 0.03394618 0.26666666 1.63921568 0.37647058
v -0.13812566 0.12503948 0.03416532 0.26666666 1.63921568 0.37647058
v -0.14063652 0.12503948 0.03383820 0.26666666 1.63921568 0.37647058
v -0.14170638 0.12729270 0.03352062 0.26666666 1.63921568 0.37647058
v -0.14170638 0.12863178 0.03335864 0.26666666 1.63921568 0.37647058
v -0.13968692 0.13046538 0.03350792 0.26666666 1.63921568 0.37647058
v -0.13495134 0.13046538 0.03420660 0.26666666 1.63921568 0.37647058
v -0.13812566 0.12729270 0.03417802 0.26666666 1.63921568 0.37647058
v -0.13818372 0.13046538 0.03378422 0.26666666 1.63921568 0.37647058
f 1 2 3
f 1 3 7
f 1 7 11
f 1 11 17
f 1 17 21
f 1 21 27
f 1 27 30
f 1 30 28
f 1 28 22
f 1 22 18
f 1 18 14
f 1 14 8
f 1 8 4
f 1 4 5
f 1 5 2
f 2 6 7
f 2 7 3
f 2 5 9
f 2 9 15
f 2 15 19
f 2 19 23
f 2 23 24
f 2 24 20
f 2 20 16
f 2 16 10
f 2 10 6
f 4 8 9
f 4 9 5
f 6 10 7
f 7 10 12
f 7 12 11
f 8 13 9
f 8 14 13
f 9 13 15
f 10 16 17
f 10 17 11
f 10 11 12
f 13 14 15
f 14 18 15
f 15 18 19
f 16 20 25
f 16 25 26
f 16 26 21
f 16 21 17
f 18 22 19
f 19 22 23
f 20 24 25
f 21 26 27
f 22 28 23
f 23 28 29
f 23 29 24
f 24 29 25
f 25 29 30
f 25 30 26
f 26 30 27
f 28 30 29