# https://github.com/mikedh/trimesh
v -0.12627734 0.12503948 -0.01135320 1.33333334 1.56862746 0.55686274
v -0.12788276 0.12219330 -0.01135320 1.33333334 1.56862746 0.55686274
v -0.14170638 0.12503948 -0.01135320 1.33333334 1.56862746 0.55686274
v -0.12701134 0.12503948 0.01354066 1.33333334 1.56862746 0.55686274
v -0.13133830 0.11644540 0.01354066 1.33333334 1.56862746 0.55686274
v -0.13147270 0.11644540 -0.01135320 1.33333334 1.56862746 0.55686274
v -0.14170638 0.12503948 0.03364020 1.33333334 1.56862746 0.55686274
v -0.14170638 0.11644540 -0.01135320 1.33333334 1.56862746 0.55686274
v -0.13079460 0.12503948 0.02979050 1.33333334 1.56862746 0.55686274
v -0.13411872 0.11644540 0.02979050 1.33333334 1.56862746 0.55686274
v -0.14170638 0.11829546 0.03403230 1.33333334 1.56862746 0.55686274
v -0.14063560 0.12503948 0.03383624 1.33333334 1.56862746 0.55686274
v -0.14170638 0.11644540 0.03394318 1.33333334 1.56862746 0.55686274
v -0.13091994 0.12503948 0.03004892 1.33333334 1.56862746 0.55686274
v -0.13487990 0.11644540 0.03302086 1.33333334 1.56862746 0.55686274
v -0.13813458 0.11644540 0.03388972 1.33333334 1.56862746 0.55686274
v -0.13812550 0.12187528 0.03414370 1.33333334 1.56862746 0.55686274
v -0.13812550 0.12503948 0.03416596 1.33333334 1.56862746 0.55686274
v -0.13965542 0.12503948 0.03396546 1.33333334 1.56862746 0.55686274
v -0.13318386 0.12503948 0.03343078 1.33333334 1.56862746 0.55686274
v -0.13487990 0.11645972 0.03302532 1.33333334 1.56862746 0.55686274
v -0.13812550 0.11645972 0.03388972 1.33333334 1.56862746 0.55686274
v -0.13476210 0.12503948 0.03377832 1.33333334 1.56862746 0.55686274
f 1 2 6
f 1 6 8
f 1 8 3
f 1 3 7
f 1 7 12
f 1 12 19
f 1 19 18
f 1 18 23
f 1 23 20
f 1 20 14
f 1 14 9
f 1 9 4
f 1 4 5
f 1 5 2
f 2 5 6
f 3 8 13
f 3 13 11
f 3 11 7
f 4 9 10
f 4 10 5
f 5 10 15
f 5 15 16
f 5 16 13
f 5 13 8
f 5 8 6
f 7 11 12
f 9 14 15
f 9 15 10
f 11 13 16
f 11 16 17
f 11 17 18
f 11 18 19
f 11 19 12
f 14 20 15
f 15 20 21
f 15 21 16
f 16 22 17
f 16 21 22
f 17 22 23
f 17 23 18
f 20 23 22
f 20 22 21