# https://github.com/mikedh/trimesh
v -0.12036060 -0.13017632 -0.00270658 1.52941176 1.49019608 1.80392156
v -0.12076234 -0.13017632 -0.00360688 1.52941176 1.49019608 1.80392156
v -0.12696328 -0.12696408 -0.01135320 1.52941176 1.49019608 1.80392156
v -0.13061732 -0.12328282 -0.01135320 1.52941176 1.49019608 1.80392156
v -0.12907382 -0.12328282 -0.00686498 1.52941176 1.49019608 1.80392156
v -0.12896232 -0.12328282 -0.00647276 1.52941176 1.49019608 1.80392156
v -0.12820500 -0.12328282 -0.00270658 1.52941176 1.49019608 1.80392156
v -0.12045094 -0.13017632 0.01895456 1.52941176 1.49019608 1.80392156
v -0.12300936 -0.13017632 -0.00838482 1.52941176 1.49019608 1.80392156
v -0.12441254 -0.13017632 -0.01135320 1.52941176 1.49019608 1.80392156
v -0.13999754 -0.12328282 -0.01135320 1.52941176 1.49019608 1.80392156
v -0.12862210 -0.12328282 0.01426578 1.52941176 1.49019608 1.80392156
v -0.12911996 -0.12328282 0.01895456 1.52941176 1.49019608 1.80392156
v -0.13171490 -0.12328282 0.02978958 1.52941176 1.49019608 1.80392156
v -0.12580036 -0.13017632 0.02978958 1.52941176 1.49019608 1.80392156
v -0.13999754 -0.13017632 -0.01135320 1.52941176 1.49019608 1.80392156
v -0.13999754 -0.12328282 0.03384548 1.52941176 1.49019608 1.80392156
v -0.13371972 -0.12328282 0.03334628 1.52941176 1.49019608 1.80392156
v -0.12882970 -0.12882462 0.03306996 1.52941176 1.49019608 1.80392156
v -0.12821268 -0.13017632 0.03323932 1.52941176 1.49019608 1.80392156
v -0.13999754 -0.13017632 0.03348446 1.52941176 1.49019608 1.80392156
v -0.13999754 -0.12729204 0.03383656 1.52941176 1.49019608 1.80392156
v -0.13812534 -0.12729204 0.03417976 1.52941176 1.49019608 1.80392156
v -0.13812534 -0.12328282 0.03415300 1.52941176 1.49019608 1.80392156
v -0.13263176 -0.13017632 0.03390788 1.52941176 1.49019608 1.80392156
v -0.13818108 -0.13017632 0.03381874 1.52941176 1.49019608 1.80392156
f 1 2 3
f 1 3 4
f 1 4 5
f 1 5 6
f 1 6 7
f 1 7 8
f 1 8 15
f 1 15 20
f 1 20 25
f 1 25 26
f 1 26 21
f 1 21 16
f 1 16 10
f 1 10 9
f 1 9 2
f 2 9 3
f 3 10 16
f 3 16 11
f 3 11 4
f 3 9 10
f 4 11 17
f 4 17 24
f 4 24 18
f 4 18 14
f 4 14 13
f 4 13 12
f 4 12 7
f 4 7 6
f 4 6 5
f 7 12 8
f 8 12 13
f 8 13 14
f 8 14 15
f 11 16 21
f 11 21 22
f 11 22 17
f 14 18 15
f 15 18 19
f 15 19 20
f 17 22 23
f 17 23 24
f 18 24 20
f 18 20 19
f 20 24 25
f 21 26 22
f 22 26 23
f 23 26 25
f 23 25 24