# https://github.com/mikedh/trimesh
v -0.16547918 -0.15979250 -0.01135320 1.08235294 0.84705882 1.28627450
v -0.16547918 -0.14624634 -0.01135320 1.08235294 0.84705882 1.28627450
v -0.16398918 -0.16398908 -0.01135320 1.08235294 0.84705882 1.28627450
v -0.16547918 -0.15979250 0.02437294 1.08235294 0.84705882 1.28627450
v -0.16547918 -0.14624634 0.02437294 1.08235294 0.84705882 1.28627450
v -0.08046906 -0.14624634 -0.01135320 1.08235294 0.84705882 1.28627450
v -0.16228866 -0.16459154 -0.01135320 1.08235294 0.84705882 1.28627450
v -0.16398918 -0.16398908 0.02437294 1.08235294 0.84705882 1.28627450
v -0.16507428 -0.15979250 0.02978964 1.08235294 0.84705882 1.28627450
v -0.16377866 -0.16378762 0.02978964 1.08235294 0.84705882 1.28627450
v -0.16507428 -0.14624634 0.02978964 1.08235294 0.84705882 1.28627450
v -0.00002608 -0.14636118 -0.01135320 1.08235294 0.84705882 1.28627450
v -0.08636422 -0.14624634 0.02735792 1.08235294 0.84705882 1.28627450
v -0.15977836 -0.16547830 -0.01135320 1.08235294 0.84705882 1.28627450
v -0.15977836 -0.16547830 0.02437294 1.08235294 0.84705882 1.28627450
v -0.16432930 -0.14624634 0.03157884 1.08235294 0.84705882 1.28627450
v -0.16321180 -0.16322468 0.03307356 1.08235294 0.84705882 1.28627450
v -0.16358430 -0.15979250 0.03336358 1.08235294 0.84705882 1.28627450
v -0.15977836 -0.16507540 0.02978964 1.08235294 0.84705882 1.28627450
v -0.00002608 -0.14702202 0.02437294 1.08235294 0.84705882 1.28627450
v -0.00002608 -0.16297804 -0.01135320 1.08235294 0.84705882 1.28627450
v -0.08950614 -0.14624634 0.03070878 1.08235294 0.84705882 1.28627450
v -0.15436908 -0.16548018 -0.01135320 1.08235294 0.84705882 1.28627450
v -0.15436908 -0.16548018 0.02437294 1.08235294 0.84705882 1.28627450
v -0.16358430 -0.14624634 0.03336358 1.08235294 0.84705882 1.28627450
v -0.15977836 -0.16358616 0.03336358 1.08235294 0.84705882 1.28627450
v -0.15977836 -0.15979250 0.03422918 1.08235294 0.84705882 1.28627450
v -0.15436908 -0.16507728 0.02978964 1.08235294 0.84705882 1.28627450
v -0.00002608 -0.14761320 0.02978964 1.08235294 0.84705882 1.28627450
v -0.09478588 -0.14624634 0.03213658 1.08235294 0.84705882 1.28627450
v -0.10038952 -0.14624634 0.03327880 1.08235294 0.84705882 1.28627450
v -0.00002608 -0.16507728 0.02978964 1.08235294 0.84705882 1.28627450
v -0.02979338 -0.16548018 -0.01135320 1.08235294 0.84705882 1.28627450
v -0.02979338 -0.16548018 0.02437294 1.08235294 0.84705882 1.28627450
v -0.15977836 -0.14624634 0.03422918 1.08235294 0.84705882 1.28627450
v -0.00002608 -0.16433926 0.03156100 1.08235294 0.84705882 1.28627450
v -0.00002608 -0.16358616 0.03336358 1.08235294 0.84705882 1.28627450
v -0.00002608 -0.15979250 0.03422918 1.08235294 0.84705882 1.28627450
v -0.00002608 -0.14993646 0.03336358 1.08235294 0.84705882 1.28627450
v -0.10289982 -0.14624634 0.03352868 1.08235294 0.84705882 1.28627450
v -0.10562064 -0.14624634 0.03379638 1.08235294 0.84705882 1.28627450
v -0.15436908 -0.14624634 0.03422918 1.08235294 0.84705882 1.28627450
v -0.00002608 -0.15437780 0.03422918 1.08235294 0.84705882 1.28627450
v -0.00002608 -0.15217690 0.03380084 1.08235294 0.84705882 1.28627450
v -0.11102994 -0.14624634 0.03403732 1.08235294 0.84705882 1.28627450
f 1 2 6
f 1 6 12
f 1 12 21
f 1 21 33
f 1 33 23
f 1 23 14
f 1 14 7
f 1 7 3
f 1 3 8
f 1 8 4
f 1 4 5
f 1 5 2
f 2 5 11
f 2 11 16
f 2 16 25
f 2 25 35
f 2 35 42
f 2 42 45
f 2 45 41
f 2 41 40
f 2 40 31
f 2 31 30
f 2 30 22
f 2 22 13
f 2 13 6
f 3 7 8
f 4 9 11
f 4 11 5
f 4 8 10
f 4 10 9
f 6 13 12
f 7 14 15
f 7 15 8
f 8 15 10
f 9 16 11
f 9 10 17
f 9 17 18
f 9 18 16
f 10 15 19
f 10 19 17
f 12 20 29
f 12 29 39
f 12 39 44
f 12 44 43
f 12 43 38
f 12 38 37
f 12 37 36
f 12 36 32
f 12 32 21
f 12 13 22
f 12 22 20
f 14 23 24
f 14 24 15
f 15 24 28
f 15 28 19
f 16 18 25
f 17 19 26
f 17 26 27
f 17 27 18
f 18 27 35
f 18 35 25
f 19 28 26
f 20 22 30
f 20 30 31
f 20 31 29
f 21 32 33
f 23 33 34
f 23 34 24
f 24 34 32
f 24 32 28
f 26 28 36
f 26 36 37
f 26 37 38
f 26 38 27
f 27 38 43
f 27 43 42
f 27 42 35
f 28 32 36
f 29 31 40
f 29 40 41
f 29 41 39
f 32 34 33
f 39 41 45
f 39 45 44
f 42 43 45
f 43 44 45