# https://github.com/mikedh/trimesh
v -0.09650310 -0.10372620 -0.01135320 1.06666666 1.17647058 1.45882352
v -0.10973096 -0.09517148 -0.01135320 1.06666666 1.17647058 1.45882352
v -0.09650310 -0.07921976 -0.01135320 1.06666666 1.17647058 1.45882352
v -0.09650310 -0.10160938 0.00812694 1.06666666 1.17647058 1.45882352
v -0.10973096 -0.09357128 0.00812694 1.06666666 1.17647058 1.45882352
v -0.10973096 -0.07666050 -0.01135320 1.06666666 1.17647058 1.45882352
v -0.09689546 -0.07905816 -0.01135320 1.06666666 1.17647058 1.45882352
v -0.09686956 -0.08091270 0.02978888 1.06666666 1.17647058 1.45882352
v -0.09650310 -0.08113790 0.02978888 1.06666666 1.17647058 1.45882352
v -0.09650310 -0.09717968 0.02978888 1.06666666 1.17647058 1.45882352
v -0.10973096 -0.09045300 0.02978888 1.06666666 1.17647058 1.45882352
v -0.10973096 -0.09295928 0.01261102 1.06666666 1.17647058 1.45882352
v -0.10659460 -0.07688834 -0.01135320 1.06666666 1.17647058 1.45882352
v -0.10973096 -0.07735198 0.02437228 1.06666666 1.17647058 1.45882352
v -0.10020924 -0.07809644 -0.01135320 1.06666666 1.17647058 1.45882352
v -0.10020924 -0.07939198 0.02437228 1.06666666 1.17647058 1.45882352
v -0.10020924 -0.07965690 0.02978888 1.06666666 1.17647058 1.45882352
v -0.09718166 -0.08108226 0.03267564 1.06666666 1.17647058 1.45882352
v -0.09650310 -0.08205986 0.03287642 1.06666666 1.17647058 1.45882352
v -0.09650310 -0.09437666 0.03338060 1.06666666 1.17647058 1.45882352
v -0.10322774 -0.09219362 0.03261318 1.06666666 1.17647058 1.45882352
v -0.10973096 -0.08842360 0.03334044 1.06666666 1.17647058 1.45882352
v -0.10562470 -0.07700492 -0.01135320 1.06666666 1.17647058 1.45882352
v -0.10973096 -0.07791364 0.02978888 1.06666666 1.17647058 1.45882352
v -0.10562470 -0.07831634 0.02978888 1.06666666 1.17647058 1.45882352
v -0.10562470 -0.07784740 0.02437228 1.06666666 1.17647058 1.45882352
v -0.10181238 -0.07764606 -0.01135320 1.06666666 1.17647058 1.45882352
v -0.10020924 -0.08058682 0.03305936 1.06666666 1.17647058 1.45882352
v -0.09650310 -0.08400448 0.03345646 1.06666666 1.17647058 1.45882352
v -0.09650310 -0.08937736 0.03410788 1.06666666 1.17647058 1.45882352
v -0.10973096 -0.08395944 0.03422834 1.06666666 1.17647058 1.45882352
v -0.10973096 -0.07986356 0.03336276 1.06666666 1.17647058 1.45882352
v -0.10562470 -0.08001986 0.03335830 1.06666666 1.17647058 1.45882352
v -0.10020924 -0.08395944 0.03392494 1.06666666 1.17647058 1.45882352
v -0.10562470 -0.08395944 0.03422388 1.06666666 1.17647058 1.45882352
f 1 2 6
f 1 6 13
f 1 13 23
f 1 23 27
f 1 27 15
f 1 15 7
f 1 7 3
f 1 3 9
f 1 9 19
f 1 19 29
f 1 29 30
f 1 30 20
f 1 20 10
f 1 10 4
f 1 4 5
f 1 5 2
f 2 5 12
f 2 12 11
f 2 11 22
f 2 22 31
f 2 31 32
f 2 32 24
f 2 24 14
f 2 14 6
f 3 7 8
f 3 8 9
f 4 10 11
f 4 11 12
f 4 12 5
f 6 14 13
f 7 15 16
f 7 16 8
f 8 16 17
f 8 17 18
f 8 18 9
f 9 18 19
f 10 20 21
f 10 21 11
f 11 21 22
f 13 14 23
f 14 24 25
f 14 25 26
f 14 26 23
f 15 27 26
f 15 26 16
f 16 26 17
f 17 25 18
f 17 26 25
f 18 28 19
f 18 25 28
f 19 28 29
f 20 30 31
f 20 31 22
f 20 22 21
f 23 26 27
f 24 32 33
f 24 33 25
f 25 33 28
f 28 33 34
f 28 34 29
f 29 34 30
f 30 34 35
f 30 35 31
f 31 35 32
f 32 35 33
f 33 35 34