# https://github.com/mikedh/trimesh
v 0.07719278 0.11104144 0.00270816 0.01568628 1.53725490 0.29019608
v 0.07719278 0.11104144 0.00848130 0.01568628 1.53725490 0.29019608
v 0.07725744 0.11284264 0.00270816 0.01568628 1.53725490 0.29019608
v 0.07726224 0.11284264 -0.00391172 0.01568628 1.53725490 0.29019608
v 0.07719996 0.11104144 -0.00391172 0.01568628 1.53725490 0.29019608
v 0.07733886 0.10983732 -0.00391172 0.01568628 1.53725490 0.29019608
v 0.07783218 0.10562458 -0.00391172 0.01568628 1.53725490 0.29019608
v 0.07783458 0.10562458 0.00848130 0.01568628 1.53725490 0.29019608
v 0.07725744 0.11284264 0.00848130 0.01568628 1.53725490 0.29019608
v 0.09300284 0.11284264 -0.00391172 0.01568628 1.53725490 0.29019608
v 0.07816984 0.10442046 -0.00391172 0.01568628 1.53725490 0.29019608
v 0.07937440 0.10020772 -0.00391172 0.01568628 1.53725490 0.29019608
v 0.07938398 0.10020772 0.00848130 0.01568628 1.53725490 0.29019608
v 0.09213354 0.11284264 0.00848130 0.01568628 1.53725490 0.29019608
v 0.10165500 0.09655224 -0.00271076 0.01568628 1.53725490 0.29019608
v 0.10165500 0.09624376 -0.00391172 0.01568628 1.53725490 0.29019608
v 0.09297170 0.11284264 -0.00221944 0.01568628 1.53725490 0.29019608
v 0.08081602 0.09668824 -0.00391172 0.01568628 1.53725490 0.29019608
v 0.08072742 0.09692044 0.00848130 0.01568628 1.53725490 0.29019608
v 0.10165500 0.09458518 0.00848130 0.01568628 1.53725490 0.29019608
v 0.10165500 0.09500978 0.00663618 0.01568628 1.53725490 0.29019608
v 0.10165500 0.07895822 -0.00391172 0.01568628 1.53725490 0.29019608
v 0.08092618 0.09651244 0.00848130 0.01568628 1.53725490 0.29019608
v 0.08082320 0.09669156 0.00848130 0.01568628 1.53725490 0.29019608
v 0.08203972 0.09458518 -0.00391172 0.01568628 1.53725490 0.29019608
v 0.08239654 0.09398478 0.00848130 0.01568628 1.53725490 0.29019608
v 0.10165500 0.07897148 0.00848130 0.01568628 1.53725490 0.29019608
v 0.10056300 0.07928330 0.00848130 0.01568628 1.53725490 0.29019608
v 0.10020858 0.07937286 -0.00391172 0.01568628 1.53725490 0.29019608
v 0.08239654 0.09398478 -0.00391172 0.01568628 1.53725490 0.29019608
v 0.08510498 0.09018336 0.00848130 0.01568628 1.53725490 0.29019608
v 0.10020858 0.07938612 0.00848130 0.01568628 1.53725490 0.29019608
v 0.09691822 0.08071960 0.00848130 0.01568628 1.53725490 0.29019608
v 0.09668594 0.08080918 -0.00391172 0.01568628 1.53725490 0.29019608
v 0.08510498 0.09018336 -0.00391172 0.01568628 1.53725490 0.29019608
v 0.08694654 0.08807698 -0.00391172 0.01568628 1.53725490 0.29019608
v 0.08747338 0.08747658 0.00848130 0.01568628 1.53725490 0.29019608
v 0.09668594 0.08081580 0.00848130 0.01568628 1.53725490 0.29019608
v 0.09650872 0.08091864 0.00848130 0.01568628 1.53725490 0.29019608
v 0.09397748 0.08240472 0.00848130 0.01568628 1.53725490 0.29019608
v 0.09457856 0.08204646 -0.00391172 0.01568628 1.53725490 0.29019608
v 0.08747338 0.08747658 -0.00391172 0.01568628 1.53725490 0.29019608
v 0.08807446 0.08694916 -0.00391172 0.01568628 1.53725490 0.29019608
v 0.08999984 0.08526738 0.00848130 0.01568628 1.53725490 0.29019608
v 0.09017704 0.08511148 -0.00391172 0.01568628 1.53725490 0.29019608
v 0.09397748 0.08240472 -0.00391172 0.01568628 1.53725490 0.29019608
v 0.09017704 0.08511480 0.00848130 0.01568628 1.53725490 0.29019608
f 1 2 9
f 1 9 3
f 1 3 4
f 1 4 5
f 1 5 6
f 1 6 7
f 1 7 2
f 2 7 8
f 2 8 13
f 2 13 19
f 2 19 24
f 2 24 23
f 2 23 26
f 2 26 31
f 2 31 37
f 2 37 44
f 2 44 47
f 2 47 40
f 2 40 39
f 2 39 38
f 2 38 33
f 2 33 32
f 2 32 28
f 2 28 27
f 2 27 20
f 2 20 14
f 2 14 9
f 3 9 14
f 3 14 17
f 3 17 10
f 3 10 4
f 4 10 16
f 4 16 22
f 4 22 29
f 4 29 34
f 4 34 41
f 4 41 46
f 4 46 45
f 4 45 43
f 4 43 42
f 4 42 36
f 4 36 35
f 4 35 30
f 4 30 25
f 4 25 18
f 4 18 12
f 4 12 11
f 4 11 7
f 4 7 6
f 4 6 5
f 7 11 8
f 8 11 12
f 8 12 13
f 10 15 16
f 10 17 15
f 12 18 19
f 12 19 13
f 14 15 17
f 14 20 21
f 14 21 15
f 15 21 20
f 15 20 27
f 15 27 22
f 15 22 16
f 18 23 24
f 18 24 19
f 18 25 26
f 18 26 23
f 22 27 28
f 22 28 29
f 25 30 26
f 26 30 35
f 26 35 31
f 28 32 29
f 29 32 33
f 29 33 34
f 31 35 36
f 31 36 37
f 33 38 34
f 34 38 39
f 34 39 40
f 34 40 41
f 36 42 37
f 37 42 43
f 37 43 44
f 40 45 46
f 40 46 41
f 40 47 45
f 43 45 44
f 44 45 47