# https://github.com/mikedh/trimesh
v -0.07793616 -0.12341322 -0.01135320 0.25882352 1.42745098 0.78431372
v -0.07899432 -0.12341322 0.02436742 0.25882352 1.42745098 0.78431372
v -0.07908832 -0.12742594 -0.01135320 0.25882352 1.42745098 0.78431372
v -0.09621602 -0.12341322 -0.01135320 0.25882352 1.42745098 0.78431372
v -0.07905496 -0.12341322 0.02611196 0.25882352 1.42745098 0.78431372
v -0.08493398 -0.13718504 -0.01135320 0.25882352 1.42745098 0.78431372
v -0.08034052 -0.12665334 0.02978396 0.25882352 1.42745098 0.78431372
v -0.08021924 -0.12685028 0.02436742 0.25882352 1.42745098 0.78431372
v -0.08147752 -0.12955684 0.02436742 0.25882352 1.42745098 0.78431372
v -0.10890792 -0.13218430 -0.01135320 0.25882352 1.42745098 0.78431372
v -0.10890792 -0.13149756 0.00271018 0.25882352 1.42745098 0.78431372
v -0.09670416 -0.12341322 0.00271464 0.25882352 1.42745098 0.78431372
v -0.07931268 -0.12341322 0.02978396 0.25882352 1.42745098 0.78431372
v -0.08799630 -0.14060864 -0.01135320 0.25882352 1.42745098 0.78431372
v -0.08853598 -0.14060864 0.02437188 0.25882352 1.42745098 0.78431372
v -0.08171704 -0.12936160 0.02978396 0.25882352 1.42745098 0.78431372
v -0.08072558 -0.12583364 0.03297410 0.25882352 1.42745098 0.78431372
v -0.10890792 -0.14060864 -0.01135320 0.25882352 1.42745098 0.78431372
v -0.10890792 -0.13283906 0.01895534 0.25882352 1.42745098 0.78431372
v -0.09357516 -0.12341322 0.02978396 0.25882352 1.42745098 0.78431372
v -0.07956434 -0.12341322 0.03102432 0.25882352 1.42745098 0.78431372
v -0.08269942 -0.13083774 0.02978842 0.25882352 1.42745098 0.78431372
v -0.08394860 -0.13270944 0.02978842 0.25882352 1.42745098 0.78431372
v -0.08928490 -0.14060864 0.02976612 0.25882352 1.42745098 0.78431372
v -0.08641966 -0.13569710 0.03271978 0.25882352 1.42745098 0.78431372
v -0.08042238 -0.12341322 0.03316594 0.25882352 1.42745098 0.78431372
v -0.08389098 -0.12341322 0.03396906 0.25882352 1.42745098 0.78431372
v -0.08369996 -0.12750000 0.03347380 0.25882352 1.42745098 0.78431372
v -0.08484000 -0.13083774 0.03323288 0.25882352 1.42745098 0.78431372
v -0.08547974 -0.13270944 0.03309456 0.25882352 1.42745098 0.78431372
v -0.10890792 -0.14060864 0.03400476 0.25882352 1.42745098 0.78431372
v -0.10890792 -0.13333392 0.02437188 0.25882352 1.42745098 0.78431372
v -0.10890792 -0.13401728 0.02978842 0.25882352 1.42745098 0.78431372
v -0.10890792 -0.13438758 0.03169804 0.25882352 1.42745098 0.78431372
v -0.09260796 -0.12341322 0.03288486 0.25882352 1.42745098 0.78431372
v -0.09159830 -0.14060864 0.03266624 0.25882352 1.42745098 0.78431372
v -0.08937586 -0.13270944 0.03396014 0.25882352 1.42745098 0.78431372
v -0.08984884 -0.13775058 0.03302764 0.25882352 1.42745098 0.78431372
v -0.08549794 -0.12341322 0.03414752 0.25882352 1.42745098 0.78431372
v -0.08733532 -0.13083774 0.03378612 0.25882352 1.42745098 0.78431372
v -0.10810748 -0.14060864 0.03404490 0.25882352 1.42745098 0.78431372
v -0.10890792 -0.13812426 0.03389768 0.25882352 1.42745098 0.78431372
v -0.10890792 -0.13484204 0.03303210 0.25882352 1.42745098 0.78431372
v -0.09252912 -0.12341322 0.03295178 0.25882352 1.42745098 0.78431372
v -0.09313854 -0.14060864 0.03300978 0.25882352 1.42745098 0.78431372
v -0.09479098 -0.13812426 0.03386198 0.25882352 1.42745098 0.78431372
v -0.10020612 -0.13812426 0.03422784 0.25882352 1.42745098 0.78431372
v -0.10562428 -0.13812426 0.03404938 0.25882352 1.42745098 0.78431372
v -0.08952744 -0.12341322 0.03365228 0.25882352 1.42745098 0.78431372
v -0.10268932 -0.14060864 0.03403152 0.25882352 1.42745098 0.78431372
v -0.10890792 -0.13672890 0.03355858 0.25882352 1.42745098 0.78431372
v -0.09100706 -0.12341322 0.03339796 0.25882352 1.42745098 0.78431372
v -0.09479098 -0.14060864 0.03331318 0.25882352 1.42745098 0.78431372
v -0.09726812 -0.14060864 0.03360320 0.25882352 1.42745098 0.78431372
f 1 2 3
f 1 3 6
f 1 6 14
f 1 14 18
f 1 18 10
f 1 10 4
f 1 4 12
f 1 12 20
f 1 20 35
f 1 35 44
f 1 44 52
f 1 52 49
f 1 49 39
f 1 39 27
f 1 27 26
f 1 26 21
f 1 21 13
f 1 13 5
f 1 5 2
f 2 5 3
f 3 5 7
f 3 7 8
f 3 8 9
f 3 9 6
f 4 10 11
f 4 11 12
f 5 13 7
f 6 9 15
f 6 15 14
f 7 16 9
f 7 9 8
f 7 13 17
f 7 17 16
f 9 16 15
f 10 18 31
f 10 31 42
f 10 42 51
f 10 51 43
f 10 43 34
f 10 34 33
f 10 33 32
f 10 32 19
f 10 19 11
f 11 19 20
f 11 20 12
f 13 21 17
f 14 15 24
f 14 24 36
f 14 36 45
f 14 45 53
f 14 53 54
f 14 54 50
f 14 50 41
f 14 41 31
f 14 31 18
f 15 16 22
f 15 22 23
f 15 23 24
f 16 17 25
f 16 25 22
f 17 26 27
f 17 27 28
f 17 28 29
f 17 29 30
f 17 30 25
f 17 21 26
f 19 32 20
f 20 32 33
f 20 33 34
f 20 34 35
f 22 25 23
f 23 25 24
f 24 25 36
f 25 30 37
f 25 37 38
f 25 38 36
f 27 39 37
f 27 37 40
f 27 40 28
f 28 40 29
f 29 40 37
f 29 37 30
f 31 41 42
f 34 43 35
f 35 43 44
f 36 38 45
f 37 46 38
f 37 39 47
f 37 47 46
f 38 46 45
f 39 48 47
f 39 49 42
f 39 42 48
f 41 50 47
f 41 47 48
f 41 48 42
f 42 49 51
f 43 51 52
f 43 52 44
f 45 46 53
f 46 47 50
f 46 50 54
f 46 54 53
f 49 52 51