# https://github.com/mikedh/trimesh
v -0.16547918 0.14063480 -0.01135320 0.31372550 0.21960784 1.30980392
v -0.16547918 0.15979172 -0.01135320 0.31372550 0.21960784 1.30980392
v -0.14547150 0.14063480 -0.01135320 0.31372550 0.21960784 1.30980392
v -0.16547918 0.14063480 0.02437294 0.31372550 0.21960784 1.30980392
v -0.16398988 0.16398936 -0.01135320 0.31372550 0.21960784 1.30980392
v -0.16547918 0.15979172 0.02437294 0.31372550 0.21960784 1.30980392
v -0.14323756 0.14323948 -0.01135320 0.31372550 0.21960784 1.30980392
v -0.14170638 0.14596090 0.02437294 0.31372550 0.21960784 1.30980392
v -0.14653262 0.14063480 0.02437294 0.31372550 0.21960784 1.30980392
v -0.16507426 0.14063480 0.02978964 0.31372550 0.21960784 1.30980392
v -0.16148834 0.16487704 -0.01135320 0.31372550 0.21960784 1.30980392
v -0.16398988 0.16398936 0.02437294 0.31372550 0.21960784 1.30980392
v -0.16507426 0.15979172 0.02978964 0.31372550 0.21960784 1.30980392
v -0.16378744 0.16378750 0.02978964 0.31372550 0.21960784 1.30980392
v -0.14170638 0.14536020 -0.01135320 0.31372550 0.21960784 1.30980392
v -0.14170638 0.14709422 0.03015104 0.31372550 0.21960784 1.30980392
v -0.14709342 0.14063480 0.03014658 0.31372550 0.21960784 1.30980392
v -0.16358730 0.14063480 0.03336358 0.31372550 0.21960784 1.30980392
v -0.15979196 0.16547774 -0.01135320 0.31372550 0.21960784 1.30980392
v -0.15979196 0.16547774 0.02437294 0.31372550 0.21960784 1.30980392
v -0.16358730 0.15979172 0.03336358 0.31372550 0.21960784 1.30980392
v -0.16322430 0.16322330 0.03307356 0.31372550 0.21960784 1.30980392
v -0.15979196 0.16507648 0.02978964 0.31372550 0.21960784 1.30980392
v -0.14170638 0.16548018 -0.01135320 0.31372550 0.21960784 1.30980392
v -0.14170638 0.14788220 0.03106572 0.31372550 0.21960784 1.30980392
v -0.14170638 0.14987156 0.03336358 0.31372550 0.21960784 1.30980392
v -0.14847800 0.14063480 0.03175286 0.31372550 0.21960784 1.30980392
v -0.15979196 0.14063480 0.03422918 0.31372550 0.21960784 1.30980392
v -0.15437466 0.16548018 -0.01135320 0.31372550 0.21960784 1.30980392
v -0.15437466 0.16548018 0.02437294 0.31372550 0.21960784 1.30980392
v -0.15979196 0.15979172 0.03422918 0.31372550 0.21960784 1.30980392
v -0.15979196 0.16358566 0.03336358 0.31372550 0.21960784 1.30980392
v -0.14170638 0.16507648 0.02978964 0.31372550 0.21960784 1.30980392
v -0.14170638 0.16548018 0.02437294 0.31372550 0.21960784 1.30980392
v -0.14987188 0.14063480 0.03336358 0.31372550 0.21960784 1.30980392
v -0.14170638 0.15437564 0.03422918 0.31372550 0.21960784 1.30980392
v -0.15437466 0.14063480 0.03422918 0.31372550 0.21960784 1.30980392
v -0.14170638 0.15979172 0.03422918 0.31372550 0.21960784 1.30980392
v -0.14170638 0.16358566 0.03336358 0.31372550 0.21960784 1.30980392
f 1 2 5
f 1 5 11
f 1 11 19
f 1 19 29
f 1 29 24
f 1 24 15
f 1 15 7
f 1 7 3
f 1 3 9
f 1 9 17
f 1 17 27
f 1 27 35
f 1 35 37
f 1 37 28
f 1 28 18
f 1 18 10
f 1 10 4
f 1 4 6
f 1 6 2
f 2 6 12
f 2 12 5
f 3 7 8
f 3 8 9
f 4 10 13
f 4 13 6
f 5 12 11
f 6 13 14
f 6 14 12
f 7 15 8
f 8 16 17
f 8 17 9
f 8 15 24
f 8 24 34
f 8 34 33
f 8 33 39
f 8 39 38
f 8 38 36
f 8 36 26
f 8 26 25
f 8 25 16
f 10 18 21
f 10 21 13
f 11 12 20
f 11 20 19
f 12 14 20
f 13 21 22
f 13 22 14
f 14 22 23
f 14 23 20
f 16 25 17
f 17 25 26
f 17 26 27
f 18 28 31
f 18 31 21
f 19 20 30
f 19 30 29
f 20 23 30
f 21 31 22
f 22 31 32
f 22 32 23
f 23 32 39
f 23 39 33
f 23 33 34
f 23 34 30
f 24 29 30
f 24 30 34
f 26 35 27
f 26 36 35
f 28 37 36
f 28 36 38
f 28 38 31
f 31 38 39
f 31 39 32
f 35 36 37