# https://github.com/mikedh/trimesh
v 0.07697146 0.11104012 -0.00925414 1.92156862 0.46274510 1.89803922
v 0.07708416 0.10948192 -0.00925414 1.92156862 0.46274510 1.89803922
v 0.07719878 0.11104012 -0.00391172 1.92156862 0.46274510 1.89803922
v 0.07700584 0.11199614 -0.00925414 1.92156862 0.46274510 1.89803922
v 0.07753118 0.10562366 -0.00925414 1.92156862 0.46274510 1.89803922
v 0.07733824 0.10983886 -0.00391172 1.92156862 0.46274510 1.89803922
v 0.07723318 0.11199614 -0.00391172 1.92156862 0.46274510 1.89803922
v 0.09201370 0.11199614 -0.00925414 1.92156862 0.46274510 1.89803922
v 0.07783112 0.10562366 -0.00391172 1.92156862 0.46274510 1.89803922
v 0.07775662 0.10428894 -0.00925414 1.92156862 0.46274510 1.89803922
v 0.09296698 0.11199614 -0.00391172 1.92156862 0.46274510 1.89803922
v 0.09298416 0.11199614 -0.00736682 1.92156862 0.46274510 1.89803922
v 0.09576568 0.10128428 -0.00925414 1.92156862 0.46274510 1.89803922
v 0.07816926 0.10441932 -0.00391172 1.92156862 0.46274510 1.89803922
v 0.07890284 0.10020720 -0.00925414 1.92156862 0.46274510 1.89803922
v 0.09297080 0.11199614 -0.00448592 1.92156862 0.46274510 1.89803922
v 0.09648398 0.10137740 -0.00391172 1.92156862 0.46274510 1.89803922
v 0.09648588 0.10137430 -0.00391694 1.92156862 0.46274510 1.89803922
v 0.09648588 0.09994648 -0.00806234 1.92156862 0.46274510 1.89803922
v 0.09648588 0.09984094 -0.00835206 1.92156862 0.46274510 1.89803922
v 0.09648588 0.09918600 -0.00925414 1.92156862 0.46274510 1.89803922
v 0.07937470 0.10020720 -0.00391172 1.92156862 0.46274510 1.89803922
v 0.07923906 0.09904632 -0.00925414 1.92156862 0.46274510 1.89803922
v 0.09648588 0.10016064 -0.00391172 1.92156862 0.46274510 1.89803922
v 0.09648588 0.08028894 -0.00925414 1.92156862 0.46274510 1.89803922
v 0.08081512 0.09669040 -0.00391172 1.92156862 0.46274510 1.89803922
v 0.08036618 0.09631170 -0.00925414 1.92156862 0.46274510 1.89803922
v 0.09648588 0.08092526 -0.00391172 1.92156862 0.46274510 1.89803922
v 0.09630822 0.08036034 -0.00925414 1.92156862 0.46274510 1.89803922
v 0.08203966 0.09458590 -0.00391172 1.92156862 0.46274510 1.89803922
v 0.08160982 0.09421342 -0.00925414 1.92156862 0.46274510 1.89803922
v 0.08239500 0.09398372 -0.00391172 1.92156862 0.46274510 1.89803922
v 0.09457934 0.08204580 -0.00391172 1.92156862 0.46274510 1.89803922
v 0.09397756 0.08240276 -0.00391172 1.92156862 0.46274510 1.89803922
v 0.09420490 0.08161744 -0.00925414 1.92156862 0.46274510 1.89803922
v 0.08299676 0.09313944 -0.00391172 1.92156862 0.46274510 1.89803922
v 0.08478678 0.08992060 -0.00925414 1.92156862 0.46274510 1.89803922
v 0.08510390 0.09018444 -0.00391172 1.92156862 0.46274510 1.89803922
v 0.09017784 0.08511252 -0.00391172 1.92156862 0.46274510 1.89803922
v 0.08991612 0.08479282 -0.00925414 1.92156862 0.46274510 1.89803922
v 0.08655004 0.08790612 -0.00925414 1.92156862 0.46274510 1.89803922
v 0.08694358 0.08807684 -0.00391172 1.92156862 0.46274510 1.89803922
v 0.08807260 0.08695008 -0.00391172 1.92156862 0.46274510 1.89803922
v 0.08790068 0.08655588 -0.00925414 1.92156862 0.46274510 1.89803922
v 0.08747084 0.08747776 -0.00391172 1.92156862 0.46274510 1.89803922
f 1 2 3
f 1 3 7
f 1 7 4
f 1 4 8
f 1 8 13
f 1 13 21
f 1 21 25
f 1 25 29
f 1 29 35
f 1 35 40
f 1 40 44
f 1 44 41
f 1 41 37
f 1 37 31
f 1 31 27
f 1 27 23
f 1 23 15
f 1 15 10
f 1 10 5
f 1 5 2
f 2 5 3
f 3 5 6
f 3 6 9
f 3 9 14
f 3 14 22
f 3 22 26
f 3 26 30
f 3 30 32
f 3 32 36
f 3 36 38
f 3 38 42
f 3 42 45
f 3 45 43
f 3 43 39
f 3 39 34
f 3 34 33
f 3 33 28
f 3 28 24
f 3 24 17
f 3 17 11
f 3 11 7
f 4 7 11
f 4 11 16
f 4 16 12
f 4 12 8
f 5 9 6
f 5 10 9
f 8 12 13
f 9 10 14
f 10 15 14
f 11 17 18
f 11 18 16
f 12 18 19
f 12 19 20
f 12 20 21
f 12 21 13
f 12 16 18
f 14 15 22
f 15 23 22
f 17 24 18
f 18 24 28
f 18 28 25
f 18 25 21
f 18 21 20
f 18 20 19
f 22 23 26
f 23 27 26
f 25 28 29
f 26 27 30
f 27 31 32
f 27 32 30
f 28 33 29
f 29 33 34
f 29 34 35
f 31 36 32
f 31 37 38
f 31 38 36
f 34 39 35
f 35 39 40
f 37 41 42
f 37 42 38
f 39 43 40
f 40 43 44
f 41 45 42
f 41 44 45
f 43 45 44