# https://github.com/mikedh/trimesh
v 0.09648780 0.08028716 -0.00925414 1.38823530 0.56470588 0.75294118
v 0.09904936 0.07923542 -0.00925414 1.38823530 0.56470588 0.75294118
v 0.09668808 0.08080826 -0.00391172 1.38823530 0.56470588 0.75294118
v 0.09648780 0.08092538 -0.00391172 1.38823530 0.56470588 0.75294118
v 0.09648780 0.09918748 -0.00925414 1.38823530 0.56470588 0.75294118
v 0.10021046 0.07890078 -0.00925414 1.38823530 0.56470588 0.75294118
v 0.10021046 0.07937406 -0.00391172 1.38823530 0.56470588 0.75294118
v 0.09648780 0.10016274 -0.00391172 1.38823530 0.56470588 0.75294118
v 0.09648780 0.09984242 -0.00835206 1.38823530 0.56470588 0.75294118
v 0.11312256 0.09152888 -0.00925414 1.38823530 0.56470588 0.75294118
v 0.10429466 0.07775580 -0.00925414 1.38823530 0.56470588 0.75294118
v 0.10562512 0.07783230 -0.00391172 1.38823530 0.56470588 0.75294118
v 0.10442330 0.07816934 -0.00391172 1.38823530 0.56470588 0.75294118
v 0.09712290 0.10071728 -0.00391172 1.38823530 0.56470588 0.75294118
v 0.09648780 0.10137462 -0.00391694 1.38823530 0.56470588 0.75294118
v 0.09648780 0.09994760 -0.00806234 1.38823530 0.56470588 0.75294118
v 0.11312256 0.07703394 -0.00925414 1.38823530 0.56470588 0.75294118
v 0.11312256 0.09241806 -0.00391172 1.38823530 0.56470588 0.75294118
v 0.10562512 0.07752872 -0.00925414 1.38823530 0.56470588 0.75294118
v 0.11104140 0.07718692 -0.00391172 1.38823530 0.56470588 0.75294118
v 0.11312256 0.07726580 -0.00391172 1.38823530 0.56470588 0.75294118
v 0.11104140 0.07695744 -0.00925414 1.38823530 0.56470588 0.75294118
v 0.10948132 0.07706978 -0.00925414 1.38823530 0.56470588 0.75294118
f 1 2 3
f 1 3 4
f 1 4 8
f 1 8 15
f 1 15 16
f 1 16 9
f 1 9 5
f 1 5 10
f 1 10 17
f 1 17 22
f 1 22 23
f 1 23 19
f 1 19 11
f 1 11 6
f 1 6 2
f 2 6 7
f 2 7 3
f 3 7 13
f 3 13 12
f 3 12 20
f 3 20 21
f 3 21 18
f 3 18 14
f 3 14 8
f 3 8 4
f 5 9 10
f 6 11 12
f 6 12 13
f 6 13 7
f 8 14 15
f 9 16 10
f 10 16 15
f 10 15 18
f 10 18 21
f 10 21 17
f 11 19 12
f 12 19 20
f 14 18 15
f 17 21 20
f 17 20 22
f 19 23 20
f 20 23 22