# https://github.com/mikedh/trimesh
v 0.07851862 -0.16548018 -0.00808914 0.50196078 0.92549020 0.48627450
v 0.07851862 -0.16548018 0.02437356 0.50196078 0.92549020 0.48627450
v 0.07851862 -0.14694678 -0.00808914 0.50196078 0.92549020 0.48627450
v 0.15440482 -0.16548018 -0.00808914 0.50196078 0.92549020 0.48627450
v 0.07851862 -0.16507866 0.02976744 0.50196078 0.92549020 0.48627450
v 0.15437076 -0.16548018 0.02437356 0.50196078 0.92549020 0.48627450
v 0.07851862 -0.14694678 -0.00806842 0.50196078 0.92549020 0.48627450
v 0.08539646 -0.14631450 -0.00808914 0.50196078 0.92549020 0.48627450
v 0.15978452 -0.16547830 -0.00808914 0.50196078 0.92549020 0.48627450
v 0.15978452 -0.16547830 0.02437356 0.50196078 0.92549020 0.48627450
v 0.07851862 -0.16507678 0.02978814 0.50196078 0.92549020 0.48627450
v 0.15978452 -0.16507678 0.02978814 0.50196078 0.92549020 0.48627450
v 0.07851862 -0.14702182 0.02437356 0.50196078 0.92549020 0.48627450
v 0.08554118 -0.14631450 0.02437356 0.50196078 0.92549020 0.48627450
v 0.16547918 -0.14631450 -0.00808914 0.50196078 0.92549020 0.48627450
v 0.15981006 -0.16547078 -0.00808914 0.50196078 0.92549020 0.48627450
v 0.16398954 -0.16398856 0.02437356 0.50196078 0.92549020 0.48627450
v 0.16378524 -0.16378782 0.02978814 0.50196078 0.92549020 0.48627450
v 0.07854416 -0.16358708 0.03336334 0.50196078 0.92549020 0.48627450
v 0.07851862 -0.16359268 0.03334678 0.50196078 0.92549020 0.48627450
v 0.16322344 -0.16322496 0.03307336 0.50196078 0.92549020 0.48627450
v 0.15978452 -0.16358708 0.03336334 0.50196078 0.92549020 0.48627450
v 0.07851862 -0.14761284 0.02978814 0.50196078 0.92549020 0.48627450
v 0.08575398 -0.14631450 0.02944430 0.50196078 0.92549020 0.48627450
v 0.16547918 -0.14631450 0.02437356 0.50196078 0.92549020 0.48627450
v 0.16547918 -0.15979146 -0.00808914 0.50196078 0.92549020 0.48627450
v 0.16398954 -0.16398856 -0.00808914 0.50196078 0.92549020 0.48627450
v 0.16547918 -0.15979146 0.02437356 0.50196078 0.92549020 0.48627450
v 0.16507058 -0.15979146 0.02978814 0.50196078 0.92549020 0.48627450
v 0.07851862 -0.15979146 0.03422918 0.50196078 0.92549020 0.48627450
v 0.16358096 -0.15979146 0.03336334 0.50196078 0.92549020 0.48627450
v 0.15978452 -0.15979146 0.03422918 0.50196078 0.92549020 0.48627450
v 0.07851862 -0.14993562 0.03336334 0.50196078 0.92549020 0.48627450
v 0.09124434 -0.14631450 0.03142454 0.50196078 0.92549020 0.48627450
v 0.16507058 -0.14631450 0.02978814 0.50196078 0.92549020 0.48627450
v 0.16431300 -0.14631450 0.03161510 0.50196078 0.92549020 0.48627450
v 0.07851862 -0.15437666 0.03422918 0.50196078 0.92549020 0.48627450
v 0.16358096 -0.14631450 0.03336334 0.50196078 0.92549020 0.48627450
v 0.16164018 -0.14631450 0.03380662 0.50196078 0.92549020 0.48627450
v 0.15978452 -0.14631450 0.03422918 0.50196078 0.92549020 0.48627450
v 0.07851862 -0.14995438 0.03336750 0.50196078 0.92549020 0.48627450
v 0.10562994 -0.14631450 0.03379834 0.50196078 0.92549020 0.48627450
v 0.10285498 -0.14631450 0.03352492 0.50196078 0.92549020 0.48627450
v 0.10040346 -0.14631450 0.03328050 0.50196078 0.92549020 0.48627450
v 0.11104370 -0.14631450 0.03403862 0.50196078 0.92549020 0.48627450
v 0.15437076 -0.14631450 0.03422918 0.50196078 0.92549020 0.48627450
f 1 2 5
f 1 5 11
f 1 11 20
f 1 20 30
f 1 30 37
f 1 37 41
f 1 41 33
f 1 33 23
f 1 23 13
f 1 13 7
f 1 7 3
f 1 3 8
f 1 8 15
f 1 15 26
f 1 26 27
f 1 27 16
f 1 16 9
f 1 9 4
f 1 4 6
f 1 6 2
f 2 6 5
f 3 7 8
f 4 9 10
f 4 10 6
f 5 6 12
f 5 12 11
f 6 10 12
f 7 13 14
f 7 14 8
f 8 14 24
f 8 24 34
f 8 34 44
f 8 44 43
f 8 43 42
f 8 42 45
f 8 45 46
f 8 46 40
f 8 40 39
f 8 39 38
f 8 38 36
f 8 36 35
f 8 35 25
f 8 25 15
f 9 16 10
f 10 16 17
f 10 17 18
f 10 18 12
f 11 19 20
f 11 12 22
f 11 22 19
f 12 18 21
f 12 21 22
f 13 23 24
f 13 24 14
f 15 25 28
f 15 28 26
f 16 27 17
f 17 27 26
f 17 26 28
f 17 28 18
f 18 28 29
f 18 29 21
f 19 30 20
f 19 22 32
f 19 32 30
f 21 29 31
f 21 31 32
f 21 32 22
f 23 33 34
f 23 34 24
f 25 35 29
f 25 29 28
f 29 35 36
f 29 36 31
f 30 32 40
f 30 40 46
f 30 46 37
f 31 38 39
f 31 39 32
f 31 36 38
f 32 39 40
f 33 41 42
f 33 42 43
f 33 43 44
f 33 44 34
f 37 45 41
f 37 46 45
f 41 45 42