# https://github.com/mikedh/trimesh

o geometry_0
v -0.07500000 -0.01083900 -0.00351689 0.54509804 0.71372549 0.60000000
v -0.07500000 -0.01083900 0.01439825 0.54509804 0.71372549 0.60000000
v -0.07500000 0.00000385 0.00096102 0.54509804 0.71372549 0.60000000
v 0.07500000 -0.01083900 -0.00351689 0.54509804 0.71372549 0.60000000
v -0.07500000 0.00000385 0.01439825 0.54509804 0.71372549 0.60000000
v 0.07500000 -0.01083900 0.01439825 0.54509804 0.71372549 0.60000000
v 0.07500000 0.00000385 0.00096102 0.54509804 0.71372549 0.60000000
v 0.07500000 0.00000385 0.01439825 0.54509804 0.71372549 0.60000000
f 1 2 5
f 1 5 3
f 1 3 7
f 1 7 4
f 1 4 6
f 1 6 2
f 2 6 8
f 2 8 5
f 3 5 8
f 3 8 7
f 4 7 8
f 4 8 6

o geometry_1
v -0.07500000 -0.02111942 -0.01440000 0.54117647 0.42352941 0.64313725
v -0.07500000 -0.02175969 -0.01432670 0.54117647 0.42352941 0.64313725
v -0.07500000 -0.01801081 -0.01440000 0.54117647 0.42352941 0.64313725
v 0.07500000 -0.02111942 -0.01440000 0.54117647 0.42352941 0.64313725
v -0.07500000 -0.02236904 -0.01411245 0.54117647 0.42352941 0.64313725
v 0.07500000 -0.02175969 -0.01432670 0.54117647 0.42352941 0.64313725
v -0.07500000 -0.01733962 -0.01431825 0.54117647 0.42352941 0.64313725
v 0.07500000 -0.01801081 -0.01440000 0.54117647 0.42352941 0.64313725
v -0.07500000 -0.02291527 -0.01377134 0.54117647 0.42352941 0.64313725
v 0.07500000 -0.02236904 -0.01411245 0.54117647 0.42352941 0.64313725
v -0.07500000 -0.01670579 -0.01408426 0.54117647 0.42352941 0.64313725
v 0.07500000 -0.01733962 -0.01431825 0.54117647 0.42352941 0.64313725
v -0.07500000 -0.02337132 -0.01331464 0.54117647 0.42352941 0.64313725
v 0.07500000 -0.02291527 -0.01377134 0.54117647 0.42352941 0.64313725
v -0.07500000 -0.01614282 -0.01370932 0.54117647 0.42352941 0.64313725
v 0.07500000 -0.01670579 -0.01408426 0.54117647 0.42352941 0.64313725
v -0.07500000 -0.02371400 -0.01276774 0.54117647 0.42352941 0.64313725
v 0.07500000 -0.02337132 -0.01331464 0.54117647 0.42352941 0.64313725
v -0.07500000 -0.01568290 -0.01321316 0.54117647 0.42352941 0.64313725
v 0.07500000 -0.01614282 -0.01370932 0.54117647 0.42352941 0.64313725
v -0.07500000 -0.02392657 -0.01215881 0.54117647 0.42352941 0.64313725
v 0.07500000 -0.02371400 -0.01276774 0.54117647 0.42352941 0.64313725
v -0.07500000 -0.01535182 -0.01262396 0.54117647 0.42352941 0.64313725
v 0.07500000 -0.01568290 -0.01321316 0.54117647 0.42352941 0.64313725
v -0.07500000 -0.02400000 -0.01151887 0.54117647 0.42352941 0.64313725
v 0.07500000 -0.02392657 -0.01215881 0.54117647 0.42352941 0.64313725
v -0.07500000 -0.01084028 -0.00351825 0.54117647 0.42352941 0.64313725
v 0.07500000 -0.01535182 -0.01262396 0.54117647 0.42352941 0.64313725
v -0.07500000 -0.02400000 0.01151887 0.54117647 0.42352941 0.64313725
v 0.07500000 -0.02400000 -0.01151887 0.54117647 0.42352941 0.64313725
v -0.07500000 -0.01084028 0.01440000 0.54117647 0.42352941 0.64313725
v 0.07500000 -0.01084028 -0.00351825 0.54117647 0.42352941 0.64313725
v -0.07500000 -0.02392657 0.01215881 0.54117647 0.42352941 0.64313725
v 0.07500000 -0.02400000 0.01151887 0.54117647 0.42352941 0.64313725
v -0.07500000 -0.02111942 0.01440000 0.54117647 0.42352941 0.64313725
v 0.07500000 -0.01084028 0.01440000 0.54117647 0.42352941 0.64313725
v -0.07500000 -0.02371400 0.01276774 0.54117647 0.42352941 0.64313725
v 0.07500000 -0.02392657 0.01215881 0.54117647 0.42352941 0.64313725
v -0.07500000 -0.02175969 0.01432670 0.54117647 0.42352941 0.64313725
v 0.07500000 -0.02111942 0.01440000 0.54117647 0.42352941 0.64313725
v -0.07500000 -0.02337132 0.01331464 0.54117647 0.42352941 0.64313725
v 0.07500000 -0.02371400 0.01276774 0.54117647 0.42352941 0.64313725
v -0.07500000 -0.02236904 0.01411245 0.54117647 0.42352941 0.64313725
v 0.07500000 -0.02175969 0.01432670 0.54117647 0.42352941 0.64313725
v -0.07500000 -0.02291527 0.01377134 0.54117647 0.42352941 0.64313725
v 0.07500000 -0.02337132 0.01331464 0.54117647 0.42352941 0.64313725
v 0.07500000 -0.02236904 0.01411245 0.54117647 0.42352941 0.64313725
v 0.07500000 -0.02291527 0.01377134 0.54117647 0.42352941 0.64313725
f 9 10 13
f 9 13 17
f 9 17 21
f 9 21 25
f 9 25 29
f 9 29 33
f 9 33 37
f 9 37 41
f 9 41 45
f 9 45 49
f 9 49 53
f 9 53 51
f 9 51 47
f 9 47 43
f 9 43 39
f 9 39 35
f 9 35 31
f 9 31 27
f 9 27 23
f 9 23 19
f 9 19 15
f 9 15 11
f 9 11 16
f 9 16 12
f 9 12 14
f 9 14 10
f 10 14 18
f 10 18 13
f 11 15 20
f 11 20 16
f 12 16 20
f 12 20 24
f 12 24 28
f 12 28 32
f 12 32 36
f 12 36 40
f 12 40 44
f 12 44 48
f 12 48 52
f 12 52 55
f 12 55 56
f 12 56 54
f 12 54 50
f 12 50 46
f 12 46 42
f 12 42 38
f 12 38 34
f 12 34 30
f 12 30 26
f 12 26 22
f 12 22 18
f 12 18 14
f 13 18 22
f 13 22 17
f 15 19 24
f 15 24 20
f 17 22 26
f 17 26 21
f 19 23 28
f 19 28 24
f 21 26 30
f 21 30 25
f 23 27 32
f 23 32 28
f 25 30 34
f 25 34 29
f 27 31 36
f 27 36 32
f 29 34 38
f 29 38 33
f 31 35 40
f 31 40 36
f 33 38 42
f 33 42 37
f 35 39 44
f 35 44 40
f 37 42 46
f 37 46 41
f 39 43 48
f 39 48 44
f 41 46 50
f 41 50 45
f 43 47 52
f 43 52 48
f 45 50 54
f 45 54 49
f 47 51 55
f 47 55 52
f 49 54 56
f 49 56 53
f 51 53 56
f 51 56 55

o geometry_2
v -0.07500000 0.01030773 -0.00306388 0.43529412 0.89019608 0.96078431
v -0.07500000 0.00000486 0.00096059 0.43529412 0.89019608 0.96078431
v -0.07500000 0.01030773 0.01440000 0.43529412 0.89019608 0.96078431
v 0.07500000 0.01030773 -0.00306388 0.43529412 0.89019608 0.96078431
v -0.07500000 0.00000486 0.01440000 0.43529412 0.89019608 0.96078431
v 0.07500000 0.00000486 0.00096059 0.43529412 0.89019608 0.96078431
v 0.07500000 0.01030773 0.01440000 0.43529412 0.89019608 0.96078431
v 0.07500000 0.00000486 0.01440000 0.43529412 0.89019608 0.96078431
f 57 58 61
f 57 61 59
f 57 59 63
f 57 63 60
f 57 60 62
f 57 62 58
f 58 62 64
f 58 64 61
f 59 61 64
f 59 64 63
f 60 63 64
f 60 64 62

o geometry_3
v -0.07500000 0.01801030 -0.01440000 0.38039216 0.78823529 0.52549020
v -0.07500000 0.01733882 -0.01431825 0.38039216 0.78823529 0.52549020
v -0.07500000 0.02111975 -0.01440000 0.38039216 0.78823529 0.52549020
v 0.07500000 0.01801030 -0.01440000 0.38039216 0.78823529 0.52549020
v -0.07500000 0.01670621 -0.01408426 0.38039216 0.78823529 0.52549020
v 0.07500000 0.01733882 -0.01431825 0.38039216 0.78823529 0.52549020
v -0.07500000 0.02176040 -0.01432670 0.38039216 0.78823529 0.52549020
v 0.07500000 0.02111975 -0.01440000 0.38039216 0.78823529 0.52549020
v -0.07500000 0.01614330 -0.01370932 0.38039216 0.78823529 0.52549020
v 0.07500000 0.01670621 -0.01408426 0.38039216 0.78823529 0.52549020
v -0.07500000 0.02236888 -0.01411245 0.38039216 0.78823529 0.52549020
v 0.07500000 0.02176040 -0.01432670 0.38039216 0.78823529 0.52549020
v -0.07500000 0.01568358 -0.01321316 0.38039216 0.78823529 0.52549020
v 0.07500000 0.01614330 -0.01370932 0.38039216 0.78823529 0.52549020
v -0.07500000 0.02291438 -0.01377134 0.38039216 0.78823529 0.52549020
v 0.07500000 0.02236888 -0.01411245 0.38039216 0.78823529 0.52549020
v -0.07500000 0.01535253 -0.01262396 0.38039216 0.78823529 0.52549020
v 0.07500000 0.01568358 -0.01321316 0.38039216 0.78823529 0.52549020
v -0.07500000 0.02337141 -0.01331464 0.38039216 0.78823529 0.52549020
v 0.07500000 0.02291438 -0.01377134 0.38039216 0.78823529 0.52549020
v -0.07500000 0.01030907 -0.00306437 0.38039216 0.78823529 0.52549020
v 0.07500000 0.01535253 -0.01262396 0.38039216 0.78823529 0.52549020
v -0.07500000 0.02371452 -0.01276774 0.38039216 0.78823529 0.52549020
v 0.07500000 0.02337141 -0.01331464 0.38039216 0.78823529 0.52549020
v -0.07500000 0.01030907 0.01440000 0.38039216 0.78823529 0.52549020
v 0.07500000 0.01030907 -0.00306437 0.38039216 0.78823529 0.52549020
v -0.07500000 0.02392762 -0.01215881 0.38039216 0.78823529 0.52549020
v 0.07500000 0.02371452 -0.01276774 0.38039216 0.78823529 0.52549020
v -0.07500000 0.02111975 0.01440000 0.38039216 0.78823529 0.52549020
v 0.07500000 0.01030907 0.01440000 0.38039216 0.78823529 0.52549020
v -0.07500000 0.02400000 -0.01151887 0.38039216 0.78823529 0.52549020
v 0.07500000 0.02392762 -0.01215881 0.38039216 0.78823529 0.52549020
v -0.07500000 0.02176040 0.01432670 0.38039216 0.78823529 0.52549020
v 0.07500000 0.02111975 0.01440000 0.38039216 0.78823529 0.52549020
v -0.07500000 0.02400000 0.01151887 0.38039216 0.78823529 0.52549020
v 0.07500000 0.02400000 -0.01151887 0.38039216 0.78823529 0.52549020
v -0.07500000 0.02236888 0.01411245 0.38039216 0.78823529 0.52549020
v 0.07500000 0.02176040 0.01432670 0.38039216 0.78823529 0.52549020
v -0.07500000 0.02392762 0.01215881 0.38039216 0.78823529 0.52549020
v 0.07500000 0.02400000 0.01151887 0.38039216 0.78823529 0.52549020
v -0.07500000 0.02291438 0.01377134 0.38039216 0.78823529 0.52549020
v 0.07500000 0.02236888 0.01411245 0.38039216 0.78823529 0.52549020
v -0.07500000 0.02371452 0.01276774 0.38039216 0.78823529 0.52549020
v 0.07500000 0.02392762 0.01215881 0.38039216 0.78823529 0.52549020
v -0.07500000 0.02337141 0.01331464 0.38039216 0.78823529 0.52549020
v 0.07500000 0.02291438 0.01377134 0.38039216 0.78823529 0.52549020
v 0.07500000 0.02371452 0.01276774 0.38039216 0.78823529 0.52549020
v 0.07500000 0.02337141 0.01331464 0.38039216 0.78823529 0.52549020
f 65 66 69
f 65 69 73
f 65 73 77
f 65 77 81
f 65 81 85
f 65 85 89
f 65 89 93
f 65 93 97
f 65 97 101
f 65 101 105
f 65 105 109
f 65 109 107
f 65 107 103
f 65 103 99
f 65 99 95
f 65 95 91
f 65 91 87
f 65 87 83
f 65 83 79
f 65 79 75
f 65 75 71
f 65 71 67
f 65 67 72
f 65 72 68
f 65 68 70
f 65 70 66
f 66 70 74
f 66 74 69
f 67 71 76
f 67 76 72
f 68 72 76
f 68 76 80
f 68 80 84
f 68 84 88
f 68 88 92
f 68 92 96
f 68 96 100
f 68 100 104
f 68 104 108
f 68 108 111
f 68 111 112
f 68 112 110
f 68 110 106
f 68 106 102
f 68 102 98
f 68 98 94
f 68 94 90
f 68 90 86
f 68 86 82
f 68 82 78
f 68 78 74
f 68 74 70
f 69 74 78
f 69 78 73
f 71 75 80
f 71 80 76
f 73 78 82
f 73 82 77
f 75 79 84
f 75 84 80
f 77 82 86
f 77 86 81
f 79 83 88
f 79 88 84
f 81 86 90
f 81 90 85
f 83 87 92
f 83 92 88
f 85 90 94
f 85 94 89
f 87 91 96
f 87 96 92
f 89 94 98
f 89 98 93
f 91 95 100
f 91 100 96
f 93 98 102
f 93 102 97
f 95 99 104
f 95 104 100
f 97 102 106
f 97 106 101
f 99 103 108
f 99 108 104
f 101 106 110
f 101 110 105
f 103 107 111
f 103 111 108
f 105 110 112
f 105 112 109
f 107 109 112
f 107 112 111