# https://github.com/mikedh/trimesh
v -0.07585196 0.01018862 -0.01193804
v -0.07593122 0.01037996 -0.01193804
v -0.07574374 0.01001204 -0.01193804
v -0.07550152 0.00996230 -0.01215562
v -0.07560926 0.00985456 -0.01193804
v -0.07546850 0.01021202 -0.01234346
v -0.07554884 0.01034308 -0.01234346
v -0.07560766 0.01048510 -0.01234346
v -0.07571620 0.01025780 -0.01215562
v -0.07562048 0.01010160 -0.01215562
v -0.07578630 0.01042706 -0.01215562
v -0.07583458 0.00994606 -0.01169726
v -0.07589020 0.00990564 -0.01144066
v -0.07590894 0.00989204 -0.01117602
v -0.07603800 0.01034526 -0.01169726
v -0.07595200 0.01013766 -0.01169726
v -0.07601326 0.01010644 -0.01144066
v -0.07603388 0.01009592 -0.01117602
v -0.07610338 0.01032402 -0.01144066
v -0.07612542 0.01031688 -0.01117602
v -0.07568864 0.00977516 -0.01169726
v -0.07573726 0.00972656 -0.01144066
v -0.07575362 0.00971018 -0.01117602
v -0.07582908 0.01060518 -0.01215562
v -0.07597958 0.01058136 -0.01193804
v -0.07584344 0.01078782 -0.01215562
v -0.07599582 0.01078782 -0.01193804
v -0.07564354 0.01063458 -0.01234346
v -0.07565560 0.01078782 -0.01234346
v -0.07542860 0.01066862 -0.01249584
v -0.07543800 0.01078782 -0.01249584
v -0.07609046 0.01056378 -0.01169726
v -0.07610808 0.01078782 -0.01169726
v -0.07615836 0.01055304 -0.01144066
v -0.07618124 0.01054940 -0.01117602
v -0.07617684 0.01078782 -0.01144066
v -0.07620000 0.01078782 -0.01117602
v -0.07536868 0.01009514 -0.01234346
v -0.07535494 0.01044188 -0.01249584
v -0.07529246 0.01033992 -0.01249584
v -0.07521482 0.01024900 -0.01249584
v -0.07504458 0.01041924 -0.01260810
v -0.07509768 0.01048144 -0.01260810
v -0.07540070 0.01055234 -0.01249584
v -0.07514042 0.01055116 -0.01260810
v -0.07517172 0.01062674 -0.01260810
v -0.07519082 0.01070628 -0.01260810
v -0.07519724 0.01078782 -0.01260810
v -0.07493738 0.01074642 -0.01267686
v -0.07489010 0.01063226 -0.01267686
v -0.07486312 0.01060068 -0.01267686
v -0.07491180 0.01066768 -0.01267686
v -0.07492768 0.01070604 -0.01267686
v -0.07494064 0.01078782 -0.01267686
v -0.07467600 0.01078782 -0.01270002
v -0.07584344 0.01371254 -0.01215562
v -0.07599582 0.01371254 -0.01193804
v -0.07584344 0.01388266 -0.01214074
v -0.07599582 0.01384488 -0.01192644
v -0.07584344 0.01404760 -0.01209654
v -0.07584344 0.01420236 -0.01202440
v -0.07565560 0.01371254 -0.01234346
v -0.07543800 0.01371254 -0.01249584
v -0.07565560 0.01391528 -0.01232572
v -0.07543800 0.01394174 -0.01247578
v -0.07543800 0.01416396 -0.01241624
v -0.07565560 0.01411184 -0.01227306
v -0.07565560 0.01429628 -0.01218706
v -0.07610808 0.01371254 -0.01169726
v -0.07610808 0.01380306 -0.01168934
v -0.07617684 0.01371254 -0.01144066
v -0.07617684 0.01375850 -0.01143664
v -0.07617684 0.01380306 -0.01142470
v -0.07620000 0.01371254 -0.01117602
v -0.07610808 0.01389084 -0.01166582
v -0.07610808 0.01397316 -0.01162742
v -0.07610808 0.01404760 -0.01157530
v -0.07610808 0.01411184 -0.01151106
v -0.07599582 0.01397316 -0.01189208
v -0.07599582 0.01409356 -0.01183592
v -0.07599582 0.01420236 -0.01175976
v -0.07599582 0.01429628 -0.01166582
v -0.07617684 0.01384488 -0.01140520
v -0.07617684 0.01388266 -0.01137874
v -0.07617684 0.01391528 -0.01134612
v -0.07617684 0.01394174 -0.01130834
v -0.07617684 0.01396124 -0.01126652
v -0.07617684 0.01397316 -0.01122198
v -0.07617684 0.01397720 -0.01117602
v -0.07610808 0.01416396 -0.01143664
v -0.07610808 0.01420236 -0.01135430
v -0.07610808 0.01422586 -0.01126652
v -0.07610808 0.01423378 -0.01117602
v -0.07584344 0.01434224 -0.01192644
v -0.07543800 0.01437246 -0.01231902
v -0.07565560 0.01446298 -0.01207032
v -0.07565560 0.01460686 -0.01192644
v -0.07543800 0.01456092 -0.01218706
v -0.07543800 0.01472360 -0.01202440
v -0.07584344 0.01446298 -0.01180572
v -0.07599582 0.01437246 -0.01155702
v -0.07584344 0.01456092 -0.01166582
v -0.07584344 0.01463308 -0.01151106
v -0.07599582 0.01442860 -0.01143664
v -0.07599582 0.01446298 -0.01130834
v -0.07599582 0.01447456 -0.01117602
v -0.07584344 0.01467728 -0.01134612
v -0.07584344 0.01469216 -0.01117602
v -0.07565560 0.01472360 -0.01175976
v -0.07565560 0.01480960 -0.01157530
v -0.07543800 0.01485556 -0.01183592
v -0.07543800 0.01495278 -0.01162742
v -0.07565560 0.01486226 -0.01137874
v -0.07565560 0.01488000 -0.01117602
v -0.07543800 0.01501232 -0.01140520
v -0.07543800 0.01503238 -0.01117602
v -0.07519724 0.01371254 -0.01260810
v -0.07519724 0.01396124 -0.01258636
v -0.07519724 0.01420236 -0.01252174
v -0.07494064 0.01371254 -0.01267686
v -0.07467600 0.01371254 -0.01270002
v -0.07494064 0.01397316 -0.01265406
v -0.07494064 0.01422586 -0.01258636
v -0.07467600 0.01397720 -0.01267686
v -0.07467600 0.01423378 -0.01260810
v -0.07519724 0.01442860 -0.01241624
v -0.07519724 0.01463308 -0.01227306
v -0.07519724 0.01480960 -0.01209654
v -0.07494064 0.01446298 -0.01247578
v -0.07494064 0.01467728 -0.01232572
v -0.07467600 0.01447456 -0.01249584
v -0.07467600 0.01469216 -0.01234346
v -0.07494064 0.01486226 -0.01214074
v -0.07494064 0.01501232 -0.01192644
v -0.07467600 0.01488000 -0.01215562
v -0.07467600 0.01503238 -0.01193804
v -0.07519724 0.01495278 -0.01189208
v -0.07519724 0.01505828 -0.01166582
v -0.07519724 0.01512288 -0.01142470
v -0.07519724 0.01514464 -0.01117602
v -0.07494064 0.01512288 -0.01168934
v -0.07467600 0.01514464 -0.01169726
v -0.07494064 0.01519060 -0.01143664
v -0.07494064 0.01521340 -0.01117602
v -0.07467600 0.01521340 -0.01144066
v -0.07467600 0.01523654 -0.01117602
v -0.06937470 0.00383548 -0.01215562
v -0.06948244 0.00372774 -0.01193804
v -0.06940164 0.00380856 -0.01210122
v -0.06945550 0.00375468 -0.01199244
v -0.06927508 0.00393510 -0.01229650
v -0.06934148 0.00386870 -0.01220258
v -0.06956182 0.00364836 -0.01169724
v -0.06957398 0.00363620 -0.01163310
v -0.06961044 0.00359974 -0.01144066
v -0.06961454 0.00359564 -0.01137450
v -0.06959828 0.00361190 -0.01150480
v -0.06962272 0.00358746 -0.01124218
v -0.06962680 0.00358336 -0.01117600
v -0.06950228 0.00370790 -0.01187784
v -0.06954198 0.00366820 -0.01175744
v -0.06924186 0.00396832 -0.01234346
v -0.06920340 0.00400678 -0.01238156
v -0.06904544 0.00416474 -0.01252390
v -0.06912646 0.00408372 -0.01245774
v -0.06908800 0.00412218 -0.01249584
v -0.06891776 0.00429242 -0.01260810
v -0.06896032 0.00424986 -0.01258004
v -0.06887240 0.00433778 -0.01262530
v -0.06878166 0.00442850 -0.01265968
v -0.06873630 0.00447386 -0.01267686
v -0.06868952 0.00452066 -0.01268266
v -0.06859596 0.00461422 -0.01269424
v -0.06854918 0.00466100 -0.01270002
v -0.06962680 0.00358336 -0.00558802
v -0.06908800 0.01523654 -0.00558802
v -0.07583128 0.00980110 -0.00000002
v -0.07590894 0.00989204 -0.00000002
v -0.07597142 0.00999398 -0.00000002
v -0.07603388 0.01009592 -0.00000002
v -0.07607964 0.01020640 -0.00000002
v -0.07612542 0.01031688 -0.00000002
v -0.07615332 0.01043314 -0.00000002
v -0.07575362 0.00971018 -0.00000002
v -0.07618124 0.01054940 -0.00000002
v -0.07619062 0.01066860 -0.00000002
v -0.07620000 0.01078782 -0.00000002
v -0.07620000 0.01225018 -0.00000002
v -0.07620000 0.01371254 -0.00000002
v -0.07618842 0.01384488 -0.00000002
v -0.07617684 0.01397720 -0.00000002
v -0.07614246 0.01410550 -0.00000002
v -0.07610808 0.01423378 -0.00000002
v -0.07605196 0.01435418 -0.00000002
v -0.07599582 0.01447456 -0.00000002
v -0.07591964 0.01458336 -0.00000002
v -0.07584346 0.01469216 -0.00000002
v -0.07574952 0.01478608 -0.00000002
v -0.07565560 0.01488000 -0.00000002
v -0.07554680 0.01495618 -0.00000002
v -0.07543800 0.01503238 -0.00000002
v -0.07531762 0.01508850 -0.00000002
v -0.07519724 0.01514464 -0.00000002
v -0.07506894 0.01517902 -0.00000002
v -0.07494064 0.01521340 -0.00000002
v -0.07480832 0.01522498 -0.00000002
v -0.07467600 0.01523654 -0.00000002
v -0.07590894 0.00989204 0.01117598
v -0.07589020 0.00990564 0.01144062
v -0.07583460 0.00994606 0.01169722
v -0.07603388 0.01009592 0.01117598
v -0.07601328 0.01010644 0.01144062
v -0.07612542 0.01031688 0.01117598
v -0.07610338 0.01032402 0.01144062
v -0.07603800 0.01034526 0.01169722
v -0.07595200 0.01013766 0.01169722
v -0.07575362 0.00971018 0.01117598
v -0.07573726 0.00972656 0.01144062
v -0.07568864 0.00977516 0.01169722
v -0.07585196 0.01018862 0.01193798
v -0.07593122 0.01037996 0.01193798
v -0.07574376 0.01001204 0.01193798
v -0.07560926 0.00985456 0.01193798
v -0.07550152 0.00996230 0.01215560
v -0.07571622 0.01025780 0.01215560
v -0.07562050 0.01010160 0.01215560
v -0.07578632 0.01042706 0.01215560
v -0.07546852 0.01021202 0.01234342
v -0.07554884 0.01034308 0.01234342
v -0.07560766 0.01048510 0.01234342
v -0.07618124 0.01054940 0.01117598
v -0.07615836 0.01055304 0.01144062
v -0.07620000 0.01078782 0.01117598
v -0.07617684 0.01078782 0.01144062
v -0.07609046 0.01056378 0.01169722
v -0.07610808 0.01078782 0.01169722
v -0.07597958 0.01058136 0.01193798
v -0.07582908 0.01060518 0.01215560
v -0.07599582 0.01078782 0.01193798
v -0.07584346 0.01078782 0.01215560
v -0.07564356 0.01063458 0.01234342
v -0.07565560 0.01078782 0.01234342
v -0.07542862 0.01066862 0.01249580
v -0.07543800 0.01078782 0.01249580
v -0.07536870 0.01009514 0.01234342
v -0.07535494 0.01044188 0.01249580
v -0.07529248 0.01033992 0.01249580
v -0.07521482 0.01024900 0.01249580
v -0.07504458 0.01041924 0.01260808
v -0.07509768 0.01048144 0.01260808
v -0.07540070 0.01055234 0.01249580
v -0.07514042 0.01055116 0.01260808
v -0.07517174 0.01062674 0.01260808
v -0.07519082 0.01070628 0.01260808
v -0.07519724 0.01078782 0.01260808
v -0.07493738 0.01074642 0.01267684
v -0.07489010 0.01063226 0.01267684
v -0.07486312 0.01060068 0.01267684
v -0.07491180 0.01066768 0.01267684
v -0.07492768 0.01070604 0.01267684
v -0.07494064 0.01078782 0.01267684
v -0.07467600 0.01078782 0.01269996
v -0.07620000 0.01371254 0.01117598
v -0.07617684 0.01371254 0.01144062
v -0.07610808 0.01371254 0.01169722
v -0.07617684 0.01397720 0.01117598
v -0.07615404 0.01397316 0.01144062
v -0.07610808 0.01423378 0.01117598
v -0.07608632 0.01422586 0.01144062
v -0.07608632 0.01396124 0.01169722
v -0.07602172 0.01420236 0.01169722
v -0.07599582 0.01371254 0.01193798
v -0.07584346 0.01371254 0.01215560
v -0.07597576 0.01394174 0.01193798
v -0.07582570 0.01391528 0.01215560
v -0.07591624 0.01416396 0.01193798
v -0.07565560 0.01371254 0.01234342
v -0.07543800 0.01371254 0.01249580
v -0.07577306 0.01411184 0.01215560
v -0.07568706 0.01429628 0.01215560
v -0.07564072 0.01388266 0.01234342
v -0.07559654 0.01404760 0.01234342
v -0.07542642 0.01384488 0.01249580
v -0.07552436 0.01420236 0.01234342
v -0.07599582 0.01447456 0.01117598
v -0.07597576 0.01446298 0.01144062
v -0.07584346 0.01469216 0.01117598
v -0.07582570 0.01467728 0.01144062
v -0.07591624 0.01442860 0.01169722
v -0.07577306 0.01463308 0.01169722
v -0.07565560 0.01488000 0.01117598
v -0.07564072 0.01486226 0.01144062
v -0.07543800 0.01503238 0.01117598
v -0.07542642 0.01501232 0.01144062
v -0.07559654 0.01480960 0.01169722
v -0.07581900 0.01437246 0.01193798
v -0.07568706 0.01456092 0.01193798
v -0.07557032 0.01446298 0.01215560
v -0.07552436 0.01472360 0.01193798
v -0.07542642 0.01460686 0.01215560
v -0.07542642 0.01434224 0.01234342
v -0.07519724 0.01371254 0.01260808
v -0.07518932 0.01380306 0.01260808
v -0.07539206 0.01397316 0.01249580
v -0.07533592 0.01409356 0.01249580
v -0.07525974 0.01420236 0.01249580
v -0.07516580 0.01389084 0.01260808
v -0.07512740 0.01397316 0.01260808
v -0.07507530 0.01404760 0.01260808
v -0.07516580 0.01429628 0.01249580
v -0.07494064 0.01371254 0.01267684
v -0.07493662 0.01375850 0.01267684
v -0.07492468 0.01380306 0.01267684
v -0.07467600 0.01371254 0.01269996
v -0.07490520 0.01384488 0.01267684
v -0.07487872 0.01388266 0.01267684
v -0.07484612 0.01391528 0.01267684
v -0.07501104 0.01411184 0.01260808
v -0.07493662 0.01416396 0.01260808
v -0.07485428 0.01420236 0.01260808
v -0.07480832 0.01394174 0.01267684
v -0.07476650 0.01396124 0.01267684
v -0.07472194 0.01397316 0.01267684
v -0.07467600 0.01397720 0.01267684
v -0.07476650 0.01422586 0.01260808
v -0.07467600 0.01423378 0.01260808
v -0.07519724 0.01514464 0.01117598
v -0.07518932 0.01512288 0.01144062
v -0.07539206 0.01495278 0.01169722
v -0.07516580 0.01505828 0.01169722
v -0.07494064 0.01521340 0.01117598
v -0.07493662 0.01519060 0.01144062
v -0.07467600 0.01523654 0.01117598
v -0.07467600 0.01521340 0.01144062
v -0.07492468 0.01512288 0.01169722
v -0.07467600 0.01514464 0.01169722
v -0.07525974 0.01472360 0.01215560
v -0.07530568 0.01446298 0.01234342
v -0.07505700 0.01437246 0.01249580
v -0.07516580 0.01456092 0.01234342
v -0.07533592 0.01485556 0.01193798
v -0.07512740 0.01495278 0.01193798
v -0.07507530 0.01480960 0.01215560
v -0.07493662 0.01442860 0.01249580
v -0.07501104 0.01463308 0.01234342
v -0.07484612 0.01467728 0.01234342
v -0.07480832 0.01446298 0.01249580
v -0.07467600 0.01447456 0.01249580
v -0.07467600 0.01469216 0.01234342
v -0.07487872 0.01486226 0.01215560
v -0.07490520 0.01501232 0.01193798
v -0.07467600 0.01488000 0.01215560
v -0.07467600 0.01503238 0.01193798
v -0.06962682 0.00358336 -0.00000002
v -0.06962682 0.00358336 0.00558798
v -0.06962682 0.00358336 0.01117598
v -0.06962272 0.00358746 0.01124214
v -0.06961454 0.00359564 0.01137446
v -0.06961046 0.00359974 0.01144062
v -0.06959830 0.00361190 0.01150478
v -0.06957398 0.00363620 0.01163308
v -0.06956182 0.00364836 0.01169722
v -0.06954198 0.00366820 0.01175740
v -0.06950228 0.00370790 0.01187778
v -0.06948244 0.00372774 0.01193798
v -0.06945550 0.00375468 0.01199238
v -0.06940164 0.00380856 0.01210118
v -0.06937470 0.00383548 0.01215560
v -0.06934150 0.00386870 0.01220256
v -0.06927508 0.00393510 0.01229648
v -0.06924188 0.00396832 0.01234344
v -0.06920340 0.00400678 0.01238152
v -0.06912648 0.00408372 0.01245772
v -0.06908800 0.00412218 0.01249580
v -0.06904544 0.00416474 0.01252388
v -0.06896032 0.00424986 0.01258002
v -0.06891776 0.00429242 0.01260808
v -0.06887240 0.00433778 0.01262526
v -0.06878168 0.00442850 0.01265964
v -0.06873632 0.00447386 0.01267684
v -0.06868952 0.00452066 0.01268262
v -0.06859596 0.00461422 0.01269418
v -0.06854918 0.00466100 0.01269996
v -0.06908800 0.01523654 0.00558798
v -0.06335562 -0.00239908 -0.01193804
v -0.06311506 -0.00215850 -0.01234346
v -0.06324788 -0.00229132 -0.01215562
v -0.06318146 -0.00222492 -0.01224954
v -0.06330174 -0.00234520 -0.01204682
v -0.06303812 -0.00208156 -0.01241964
v -0.06296118 -0.00200464 -0.01249584
v -0.06339532 -0.00243876 -0.01181764
v -0.06345932 -0.00250276 -0.01156896
v -0.06343500 -0.00247846 -0.01169724
v -0.06348364 -0.00252708 -0.01144066
v -0.06349182 -0.00253526 -0.01130834
v -0.06350000 -0.00254344 -0.01117600
v -0.06287606 -0.00191950 -0.01255196
v -0.06279094 -0.00183438 -0.01260810
v -0.06270020 -0.00174366 -0.01264248
v -0.06260948 -0.00165294 -0.01267686
v -0.06251592 -0.00155938 -0.01268844
v -0.06242236 -0.00146582 -0.01270002
v -0.05722880 -0.00852588 -0.01193802
v -0.05720186 -0.00849896 -0.01199242
v -0.05712106 -0.00841814 -0.01215562
v -0.05708786 -0.00838494 -0.01220258
v -0.05714800 -0.00844508 -0.01210122
v -0.05698824 -0.00828532 -0.01234346
v -0.05702144 -0.00831852 -0.01229650
v -0.05728834 -0.00858542 -0.01175744
v -0.05732034 -0.00861742 -0.01163310
v -0.05730818 -0.00860528 -0.01169724
v -0.05724864 -0.00854574 -0.01187784
v -0.05735682 -0.00865390 -0.01144066
v -0.05736090 -0.00865798 -0.01137450
v -0.05734466 -0.00864174 -0.01150480
v -0.05736910 -0.00866618 -0.01124216
v -0.05737318 -0.00867026 -0.01117600
v -0.05687284 -0.00816992 -0.01245774
v -0.05694978 -0.00824684 -0.01238154
v -0.05679180 -0.00808888 -0.01252390
v -0.05683436 -0.00813144 -0.01249582
v -0.05670668 -0.00800376 -0.01258004
v -0.05666412 -0.00796120 -0.01260810
v -0.05661876 -0.00791584 -0.01262530
v -0.05652804 -0.00782512 -0.01265966
v -0.05648268 -0.00777976 -0.01267686
v -0.05643590 -0.00773298 -0.01268264
v -0.05634234 -0.00763942 -0.01269424
v -0.05629556 -0.00759262 -0.01270002
v -0.05120000 -0.01455531 -0.01193706
v -0.05120000 -0.01455468 -0.01193802
v -0.05120000 -0.01407356 -0.01234346
v -0.05120000 -0.01407721 -0.01234088
v -0.05120000 -0.01408439 -0.01233580
v -0.05120000 -0.01406056 -0.01234990
v -0.05120000 -0.01406928 -0.01234558
v -0.05120000 -0.01433920 -0.01215562
v -0.05120000 -0.01475071 -0.01159892
v -0.05120000 -0.01471344 -0.01169724
v -0.05120000 -0.01479400 -0.01147573
v -0.05123000 -0.01478070 -0.01144066
v -0.05120000 -0.01480632 -0.01144066
v -0.05124638 -0.01479708 -0.01117600
v -0.05120000 -0.01483669 -0.01117600
v -0.05120000 -0.01376580 -0.01249582
v -0.05120000 -0.01377195 -0.01249278
v -0.05120000 -0.01375891 -0.01249809
v -0.05120000 -0.01343446 -0.01260509
v -0.05120000 -0.01341543 -0.01260997
v -0.05120000 -0.01342532 -0.01260810
v -0.05120000 -0.01309912 -0.01266991
v -0.05120000 -0.01307485 -0.01267451
v -0.05120000 -0.01304945 -0.01267766
v -0.05120000 -0.01306244 -0.01267686
v -0.05120000 -0.01273437 -0.01269716
v -0.05120000 -0.01270381 -0.01269905
v -0.05120000 -0.01268818 -0.01270002
v -0.05737318 -0.00867026 -0.00558800
v -0.05120000 -0.00232002 -0.01270002
v -0.06350000 -0.00254344 -0.00000002
v -0.06350000 -0.00254344 0.01117598
v -0.06349182 -0.00253526 0.01130830
v -0.06348364 -0.00252708 0.01144064
v -0.06345932 -0.00250276 0.01156892
v -0.06343500 -0.00247846 0.01169722
v -0.06339532 -0.00243876 0.01181760
v -0.06335562 -0.00239908 0.01193798
v -0.06330176 -0.00234520 0.01204678
v -0.06324788 -0.00229132 0.01215560
v -0.06318148 -0.00222492 0.01224952
v -0.06311506 -0.00215850 0.01234344
v -0.06303812 -0.00208156 0.01241962
v -0.06296118 -0.00200464 0.01249580
v -0.06287606 -0.00191952 0.01255194
v -0.06279094 -0.00183438 0.01260808
v -0.06270022 -0.00174366 0.01264246
v -0.06260950 -0.00165294 0.01267684
v -0.06251594 -0.00155938 0.01268840
v -0.06242238 -0.00146582 0.01269996
v -0.05737318 -0.00867026 -0.00000002
v -0.05737318 -0.00867026 0.00558798
v -0.05124638 -0.01479708 -0.00000000
v -0.05120000 -0.01483669 0.00000000
v -0.05737320 -0.00867026 0.01117598
v -0.05736910 -0.00866618 0.01124214
v -0.05736092 -0.00865798 0.01137448
v -0.05735682 -0.00865390 0.01144064
v -0.05734466 -0.00864174 0.01150478
v -0.05732034 -0.00861742 0.01163308
v -0.05730820 -0.00860528 0.01169722
v -0.05728834 -0.00858542 0.01175742
v -0.05724866 -0.00854574 0.01187780
v -0.05722882 -0.00852588 0.01193798
v -0.05720188 -0.00849896 0.01199238
v -0.05714800 -0.00844508 0.01210120
v -0.05712106 -0.00841814 0.01215560
v -0.05708786 -0.00838494 0.01220256
v -0.05702146 -0.00831852 0.01229648
v -0.05698824 -0.00828532 0.01234344
v -0.05694978 -0.00824684 0.01238152
v -0.05687284 -0.00816992 0.01245772
v -0.05683438 -0.00813144 0.01249580
v -0.05679182 -0.00808888 0.01252388
v -0.05670668 -0.00800376 0.01258002
v -0.05666412 -0.00796120 0.01260808
v -0.05661876 -0.00791584 0.01262528
v -0.05652804 -0.00782512 0.01265966
v -0.05648268 -0.00777976 0.01267684
v -0.05643590 -0.00773298 0.01268262
v -0.05634234 -0.00763942 0.01269418
v -0.05629556 -0.00759262 0.01269998
v -0.05124638 -0.01479708 0.01117598
v -0.05120000 -0.01483669 0.01117598
v -0.05120000 -0.01481183 0.01139266
v -0.05123000 -0.01478070 0.01144064
v -0.05120000 -0.01480632 0.01144064
v -0.05120000 -0.01475070 0.01159896
v -0.05120000 -0.01471310 0.01169777
v -0.05120000 -0.01471353 0.01169703
v -0.05120000 -0.01471346 0.01169722
v -0.05120000 -0.01471334 0.01169740
v -0.05120000 -0.01455534 0.01193702
v -0.05120000 -0.01455470 0.01193798
v -0.05120000 -0.01455384 0.01193885
v -0.05120000 -0.01455208 0.01194063
v -0.05120000 -0.01434102 0.01215378
v -0.05120000 -0.01433922 0.01215560
v -0.05120000 -0.01407358 0.01234344
v -0.05120000 -0.01406930 0.01234556
v -0.05120000 -0.01406058 0.01234988
v -0.05120000 -0.01377197 0.01249278
v -0.05120000 -0.01376582 0.01249582
v -0.05120000 -0.01375893 0.01249809
v -0.05120000 -0.01342534 0.01260808
v -0.05120000 -0.01341545 0.01260995
v -0.05120000 -0.01306244 0.01267684
v -0.05120000 -0.01304945 0.01267764
v -0.05120000 -0.01273437 0.01269712
v -0.05120000 -0.01270381 0.01269901
v -0.05120000 -0.01268818 0.01269998
v -0.05120000 -0.00266819 0.01269998
v -0.05120000 -0.00215626 0.01269998
v -0.05120000 -0.00168888 0.01269998
v -0.06314344 0.01025458 -0.01270002
v -0.06329582 0.01047218 -0.01270002
v -0.06340810 0.01071294 -0.01270002
v -0.06347684 0.01096954 -0.01270002
v -0.06350000 0.01123418 -0.01270002
v -0.06350000 0.01225018 -0.01270002
v -0.06350000 0.01371254 -0.01270002
v -0.06350000 0.01384488 -0.01268844
v -0.06350000 0.01397720 -0.01267686
v -0.06350000 0.01410550 -0.01264248
v -0.06350000 0.01423378 -0.01260810
v -0.06350000 0.01435418 -0.01255196
v -0.06350000 0.01447456 -0.01249584
v -0.06350000 0.01458336 -0.01241964
v -0.06350000 0.01469216 -0.01234346
v -0.06350000 0.01478608 -0.01224954
v -0.06350000 0.01488000 -0.01215562
v -0.06350000 0.01495618 -0.01204682
v -0.06350000 0.01503238 -0.01193804
v -0.06350000 0.01508850 -0.01181764
v -0.06350000 0.01514464 -0.01169724
v -0.06350000 0.01517902 -0.01156896
v -0.06350000 0.01521340 -0.01144066
v -0.06350000 0.01522498 -0.01130834
v -0.06350000 0.01523654 -0.01117600
v -0.05791200 0.01523654 -0.00558800
v -0.05701664 0.00412776 -0.01270002
v -0.05123522 0.00934564 -0.01270002
v -0.05120000 0.00932098 -0.01270002
v -0.05120000 0.00938762 -0.01269522
v -0.05214018 0.01063806 -0.01270002
v -0.05227768 0.01115126 -0.01270002
v -0.05201706 0.01119722 -0.01267686
v -0.05161090 0.00972134 -0.01270002
v -0.05191564 0.01015654 -0.01270002
v -0.05168644 0.01028888 -0.01267686
v -0.05140818 0.00989144 -0.01267686
v -0.05120000 0.00968327 -0.01267686
v -0.05121162 0.01005638 -0.01260810
v -0.05120000 0.01004476 -0.01260810
v -0.05120000 0.01006613 -0.01260102
v -0.05146424 0.01041716 -0.01260810
v -0.05125572 0.01053756 -0.01249582
v -0.05120000 0.01045797 -0.01249582
v -0.05120000 0.01051126 -0.01247434
v -0.05189150 0.01072858 -0.01267686
v -0.05165038 0.01081636 -0.01260810
v -0.05176436 0.01124178 -0.01260810
v -0.05142414 0.01089868 -0.01249582
v -0.05120000 0.01056973 -0.01245077
v -0.05120000 0.01093096 -0.01234346
v -0.05121966 0.01097312 -0.01234346
v -0.05120000 0.01098028 -0.01232254
v -0.05152728 0.01128360 -0.01249582
v -0.05131296 0.01132138 -0.01234346
v -0.05120000 0.01134130 -0.01222875
v -0.05120000 0.01146267 -0.01221813
v -0.05232400 0.01168054 -0.01270002
v -0.05205936 0.01168054 -0.01267686
v -0.05180276 0.01168054 -0.01260810
v -0.05156200 0.01168054 -0.01249582
v -0.05134438 0.01168054 -0.01234346
v -0.05120000 0.01168054 -0.01219908
v -0.05232400 0.01371254 -0.01270002
v -0.05205936 0.01371254 -0.01267686
v -0.05232400 0.01397720 -0.01267686
v -0.05232400 0.01423378 -0.01260810
v -0.05206338 0.01397720 -0.01265406
v -0.05207532 0.01423378 -0.01258634
v -0.05232400 0.01447456 -0.01249582
v -0.05232400 0.01469216 -0.01234346
v -0.05209480 0.01447456 -0.01247578
v -0.05212126 0.01469216 -0.01232572
v -0.05232400 0.01488000 -0.01215562
v -0.05232400 0.01503238 -0.01193802
v -0.05219166 0.01503238 -0.01192642
v -0.05215388 0.01488000 -0.01214072
v -0.05198896 0.01488000 -0.01209654
v -0.05232400 0.01514464 -0.01169724
v -0.05223348 0.01514464 -0.01168934
v -0.05206338 0.01503238 -0.01189206
v -0.05214572 0.01514464 -0.01166580
v -0.05206338 0.01514464 -0.01162742
v -0.05198896 0.01514464 -0.01157530
v -0.05232400 0.01521340 -0.01144066
v -0.05227804 0.01521340 -0.01143662
v -0.05223348 0.01521340 -0.01142470
v -0.05219166 0.01521340 -0.01140518
v -0.05232400 0.01523654 -0.01117600
v -0.05215388 0.01521340 -0.01137874
v -0.05212126 0.01521340 -0.01134610
v -0.05209480 0.01521340 -0.01130832
v -0.05207532 0.01521340 -0.01126652
v -0.05206338 0.01521340 -0.01122196
v -0.05205936 0.01521340 -0.01117600
v -0.05180276 0.01371254 -0.01260810
v -0.05181068 0.01397720 -0.01258634
v -0.05183418 0.01423378 -0.01252174
v -0.05160794 0.01423378 -0.01241624
v -0.05156200 0.01371254 -0.01249582
v -0.05134438 0.01371254 -0.01234346
v -0.05120000 0.01371254 -0.01219908
v -0.05157356 0.01397720 -0.01247578
v -0.05135928 0.01397720 -0.01232572
v -0.05140346 0.01423378 -0.01227304
v -0.05120000 0.01397720 -0.01216644
v -0.05120000 0.01410251 -0.01211914
v -0.05122694 0.01423378 -0.01209654
v -0.05120000 0.01423378 -0.01205806
v -0.05187260 0.01447456 -0.01241624
v -0.05166408 0.01447456 -0.01231900
v -0.05192470 0.01469216 -0.01227304
v -0.05174026 0.01469216 -0.01218706
v -0.05183418 0.01488000 -0.01202440
v -0.05169430 0.01488000 -0.01192642
v -0.05147564 0.01447456 -0.01218706
v -0.05157356 0.01469216 -0.01207032
v -0.05142968 0.01469216 -0.01192642
v -0.05131294 0.01447456 -0.01202440
v -0.05120000 0.01437493 -0.01194376
v -0.05194300 0.01503238 -0.01183592
v -0.05183418 0.01503238 -0.01175974
v -0.05192470 0.01514464 -0.01151106
v -0.05174026 0.01503238 -0.01166580
v -0.05166408 0.01503238 -0.01155702
v -0.05187260 0.01514464 -0.01143662
v -0.05183418 0.01514464 -0.01135428
v -0.05181068 0.01514464 -0.01126652
v -0.05180276 0.01514464 -0.01117600
v -0.05160794 0.01503238 -0.01143662
v -0.05120000 0.01447456 -0.01186308
v -0.05120000 0.01450592 -0.01182494
v -0.05131294 0.01469216 -0.01175974
v -0.05120000 0.01456460 -0.01172808
v -0.05122694 0.01469216 -0.01157530
v -0.05120000 0.01465122 -0.01158511
v -0.05120000 0.01469216 -0.01147474
v -0.05120000 0.01471827 -0.01137420
v -0.05120000 0.01472056 -0.01134809
v -0.05120000 0.01473562 -0.01117600
v -0.05157356 0.01488000 -0.01180570
v -0.05147564 0.01488000 -0.01166580
v -0.05140346 0.01488000 -0.01151106
v -0.05157356 0.01503238 -0.01130832
v -0.05156200 0.01503238 -0.01117600
v -0.05135928 0.01488000 -0.01134610
v -0.05134438 0.01488000 -0.01117600
v -0.06350000 0.01523654 -0.00000002
v -0.05791200 0.01523654 0.00558798
v -0.06295562 0.01006674 0.01269996
v -0.06314346 0.01025458 0.01269996
v -0.06329582 0.01047218 0.01269996
v -0.06340810 0.01071294 0.01269996
v -0.06347684 0.01096954 0.01269996
v -0.06350000 0.01123418 0.01269996
v -0.06350000 0.01269654 0.01269996
v -0.06350000 0.01371254 0.01269996
v -0.06350000 0.01384488 0.01268840
v -0.06350000 0.01397720 0.01267684
v -0.06350000 0.01410550 0.01264246
v -0.06350000 0.01423378 0.01260808
v -0.06350000 0.01523654 0.01117598
v -0.06350000 0.01522498 0.01130830
v -0.06350000 0.01521340 0.01144064
v -0.06350000 0.01517902 0.01156892
v -0.06350000 0.01514464 0.01169722
v -0.06350000 0.01508850 0.01181760
v -0.06350000 0.01447456 0.01249580
v -0.06350000 0.01435418 0.01255194
v -0.06350000 0.01458336 0.01241962
v -0.06350000 0.01469216 0.01234344
v -0.06350000 0.01495618 0.01204678
v -0.06350000 0.01488000 0.01215560
v -0.06350000 0.01478608 0.01224952
v -0.06350000 0.01503238 0.01193798
v -0.05682880 0.00393992 0.01269998
v -0.05232400 0.01523654 -0.00000000
v -0.05219168 0.01522498 -0.00000000
v -0.05205936 0.01521340 -0.00000000
v -0.05193106 0.01517902 -0.00000000
v -0.05180276 0.01514464 -0.00000000
v -0.05168238 0.01508850 -0.00000000
v -0.05120000 0.01473562 0.00000000
v -0.05145320 0.01495618 -0.00000000
v -0.05156200 0.01503238 -0.00000000
v -0.05134438 0.01488000 -0.00000000
v -0.05125046 0.01478608 -0.00000000
v -0.05120000 0.01473561 0.00600610
v -0.05123522 0.00934564 0.01269998
v -0.05120000 0.00932098 0.01269998
v -0.05120000 0.00938762 0.01269519
v -0.05214020 0.01063806 0.01269998
v -0.05227770 0.01115126 0.01269998
v -0.05201708 0.01119722 0.01267684
v -0.05161092 0.00972134 0.01269998
v -0.05191564 0.01015654 0.01269998
v -0.05168646 0.01028888 0.01267684
v -0.05140818 0.00989144 0.01267684
v -0.05120000 0.00968326 0.01267684
v -0.05121162 0.01005638 0.01260808
v -0.05120000 0.01004476 0.01260808
v -0.05120000 0.01006613 0.01260101
v -0.05146424 0.01041716 0.01260808
v -0.05125574 0.01053756 0.01249582
v -0.05120000 0.01045795 0.01249582
v -0.05189150 0.01072858 0.01267684
v -0.05165038 0.01081636 0.01260808
v -0.05176436 0.01124178 0.01260808
v -0.05142414 0.01089868 0.01249582
v -0.05120000 0.01056974 0.01245075
v -0.05120000 0.01093096 0.01234344
v -0.05121966 0.01097312 0.01234344
v -0.05120000 0.01098028 0.01232252
v -0.05120000 0.01134130 0.01222873
v -0.05152728 0.01128360 0.01249582
v -0.05131296 0.01132138 0.01234344
v -0.05232400 0.01168054 0.01269998
v -0.05205936 0.01168054 0.01267684
v -0.05180276 0.01168054 0.01260808
v -0.05120000 0.01158079 0.01220777
v -0.05120000 0.01168054 0.01219904
v -0.05156200 0.01168054 0.01249582
v -0.05134438 0.01168054 0.01234344
v -0.05232400 0.01371254 0.01269998
v -0.05205936 0.01371254 0.01267684
v -0.05206338 0.01375850 0.01267684
v -0.05207532 0.01380306 0.01267684
v -0.05232400 0.01397720 0.01267684
v -0.05227804 0.01397316 0.01267684
v -0.05219168 0.01394174 0.01267684
v -0.05223348 0.01396124 0.01267684
v -0.05232400 0.01423378 0.01260808
v -0.05223348 0.01422586 0.01260808
v -0.05215390 0.01391528 0.01267684
v -0.05212128 0.01388266 0.01267684
v -0.05209482 0.01384488 0.01267684
v -0.05214574 0.01420236 0.01260808
v -0.05206338 0.01416396 0.01260808
v -0.05198896 0.01411184 0.01260808
v -0.05232400 0.01523654 0.01117598
v -0.05232400 0.01521340 0.01144064
v -0.05205936 0.01521340 0.01117598
v -0.05206338 0.01519060 0.01144064
v -0.05232400 0.01514464 0.01169722
v -0.05207532 0.01512288 0.01169722
v -0.05232400 0.01447456 0.01249582
v -0.05219168 0.01446298 0.01249582
v -0.05232400 0.01469216 0.01234344
v -0.05206338 0.01442860 0.01249582
v -0.05215390 0.01467728 0.01234344
v -0.05198896 0.01463308 0.01234344
v -0.05232400 0.01488000 0.01215560
v -0.05232400 0.01503238 0.01193798
v -0.05212128 0.01486226 0.01215560
v -0.05209482 0.01501232 0.01193798
v -0.05180276 0.01371254 0.01260808
v -0.05181068 0.01380306 0.01260808
v -0.05192470 0.01404760 0.01260808
v -0.05183420 0.01389084 0.01260808
v -0.05187260 0.01397316 0.01260808
v -0.05183420 0.01429628 0.01249582
v -0.05160796 0.01397316 0.01249582
v -0.05174028 0.01420236 0.01249582
v -0.05166408 0.01409356 0.01249582
v -0.05120000 0.01371254 0.01219904
v -0.05156200 0.01371254 0.01249582
v -0.05134438 0.01371254 0.01234344
v -0.05120000 0.01388463 0.01218400
v -0.05120000 0.01391075 0.01218171
v -0.05120000 0.01401125 0.01215560
v -0.05120000 0.01426472 0.01202794
v -0.05131296 0.01429628 0.01215560
v -0.05122696 0.01411184 0.01215560
v -0.05120000 0.01412165 0.01211462
v -0.05157358 0.01384488 0.01249582
v -0.05140346 0.01404760 0.01234344
v -0.05147564 0.01420236 0.01234344
v -0.05135928 0.01388266 0.01234344
v -0.05180276 0.01514464 0.01117598
v -0.05181068 0.01512288 0.01144064
v -0.05183420 0.01505828 0.01169722
v -0.05160796 0.01495278 0.01169722
v -0.05120000 0.01473560 0.01117598
v -0.05120000 0.01470793 0.01140062
v -0.05120000 0.01470300 0.01144064
v -0.05120000 0.01448020 0.01183845
v -0.05122696 0.01463308 0.01169722
v -0.05120000 0.01459458 0.01169722
v -0.05120000 0.01465570 0.01156591
v -0.05156200 0.01503238 0.01117598
v -0.05157358 0.01501232 0.01144064
v -0.05134438 0.01488000 0.01117598
v -0.05135928 0.01486226 0.01144064
v -0.05140346 0.01480960 0.01169722
v -0.05174028 0.01472360 0.01215560
v -0.05194300 0.01437246 0.01249582
v -0.05183420 0.01456092 0.01234344
v -0.05169432 0.01446298 0.01234344
v -0.05187260 0.01495278 0.01193798
v -0.05192470 0.01480960 0.01215560
v -0.05166408 0.01485556 0.01193798
v -0.05142968 0.01446298 0.01215560
v -0.05147564 0.01472360 0.01193798
v -0.05157358 0.01460686 0.01215560
v -0.05120000 0.01439959 0.01193798
v -0.05120000 0.01436149 0.01196931
v -0.05131296 0.01456092 0.01193798
v -0.05157358 0.01434224 0.01234344
f 385 150 389
f 387 389 149
f 394 393 154
f 392 394 161
f 385 392 160
f 393 395 157
f 395 396 156
f 396 397 158
f 386 163 390
f 398 391 164
f 398 168 399
f 390 165 391
f 387 152 388
f 386 388 151
f 397 462 175
f 462 463 355
f 463 464 357
f 464 465 358
f 465 466 360
f 466 467 361
f 467 468 363
f 468 469 364
f 469 470 366
f 470 471 367
f 471 472 369
f 472 473 370
f 473 474 372
f 474 475 373
f 475 476 375
f 476 477 376
f 157 22 21
f 156 23 22
f 148 5 150
f 148 160 5
f 161 21 160
f 161 153 21
f 154 157 21
f 153 154 21
f 157 155 22
f 155 156 22
f 156 158 23
f 158 159 23
f 162 151 38
f 162 38 163
f 163 38 165
f 165 41 166
f 147 149 4
f 147 4 152
f 152 38 151
f 150 4 149
f 166 41 164
f 164 42 168
f 167 42 169
f 168 42 167
f 169 51 170
f 170 51 171
f 171 51 172
f 172 51 173
f 173 55 174
f 159 175 23
f 175 184 23
f 175 354 184
f 1 2 9
f 9 2 11
f 11 2 25
f 4 5 3
f 4 3 10
f 4 10 38
f 6 7 40
f 39 8 44
f 7 8 39
f 10 3 1
f 10 1 9
f 11 24 8
f 7 9 11
f 7 11 8
f 6 10 9
f 6 9 7
f 38 10 6
f 3 12 16
f 12 17 16
f 12 13 17
f 13 18 17
f 22 14 13
f 13 14 18
f 16 19 15
f 16 17 19
f 2 15 32
f 15 19 34
f 15 34 32
f 1 16 15
f 3 16 1
f 1 15 2
f 2 32 25
f 17 20 19
f 17 18 20
f 19 35 34
f 19 20 35
f 21 22 13
f 5 12 3
f 5 21 12
f 21 13 12
f 22 23 14
f 24 25 27
f 11 25 24
f 24 27 26
f 8 28 44
f 28 29 30
f 28 30 44
f 30 29 31
f 28 24 26
f 28 26 29
f 8 24 28
f 25 32 33
f 25 33 27
f 32 34 36
f 32 36 33
f 34 37 36
f 34 35 37
f 6 40 41
f 38 6 41
f 39 44 45
f 40 39 43
f 40 7 39
f 42 41 40
f 42 40 43
f 39 45 43
f 42 43 51
f 46 44 30
f 47 30 31
f 45 44 46
f 47 31 48
f 46 30 47
f 43 45 50
f 45 46 52
f 46 47 53
f 47 48 49
f 45 52 50
f 43 50 51
f 46 53 52
f 47 49 53
f 52 53 55
f 53 49 55
f 48 54 49
f 49 54 55
f 51 50 55
f 50 52 55
f 150 5 4
f 165 38 41
f 152 4 38
f 164 41 42
f 160 21 5
f 23 177 14
f 14 179 18
f 18 181 20
f 20 183 35
f 35 186 37
f 26 27 56
f 29 63 31
f 29 26 62
f 27 33 57
f 33 36 69
f 36 37 71
f 27 57 56
f 29 62 63
f 26 56 62
f 33 69 57
f 36 71 69
f 37 74 71
f 48 31 117
f 48 120 54
f 54 121 55
f 31 63 117
f 48 117 120
f 54 120 121
f 56 57 59
f 56 59 58
f 58 59 79
f 60 79 80
f 58 79 60
f 60 80 61
f 62 64 63
f 62 56 58
f 64 67 65
f 63 64 65
f 65 67 66
f 66 68 95
f 62 58 64
f 64 60 67
f 64 58 60
f 67 60 61
f 67 61 68
f 61 94 68
f 66 67 68
f 57 70 59
f 57 69 70
f 69 71 72
f 70 72 73
f 69 72 70
f 71 74 72
f 72 74 73
f 73 74 83
f 74 84 83
f 59 75 79
f 59 70 75
f 79 75 76
f 79 76 80
f 70 73 75
f 75 83 76
f 76 84 77
f 76 77 80
f 80 77 81
f 81 77 78
f 81 78 82
f 78 90 82
f 90 101 82
f 61 80 81
f 81 82 94
f 61 81 94
f 73 83 75
f 76 83 84
f 77 84 85
f 77 85 78
f 78 85 86
f 86 87 90
f 74 85 84
f 74 86 85
f 74 87 86
f 74 88 87
f 74 89 88
f 87 88 91
f 88 89 92
f 78 86 90
f 87 91 90
f 90 91 101
f 91 92 104
f 88 92 91
f 89 93 92
f 68 94 96
f 94 100 96
f 96 100 97
f 95 68 96
f 95 96 98
f 96 97 98
f 98 97 99
f 94 82 100
f 100 82 101
f 101 104 102
f 100 101 102
f 102 104 103
f 91 104 101
f 92 105 104
f 92 93 105
f 93 106 105
f 103 104 105
f 103 105 107
f 105 106 107
f 106 108 107
f 97 100 102
f 97 102 109
f 109 102 103
f 109 103 110
f 97 109 99
f 103 107 110
f 107 108 113
f 109 110 111
f 99 109 111
f 110 113 112
f 111 110 112
f 107 113 110
f 108 114 113
f 113 114 115
f 112 113 115
f 114 116 115
f 117 63 65
f 117 118 120
f 117 65 118
f 118 65 66
f 118 66 119
f 119 66 95
f 118 119 122
f 119 126 123
f 120 122 121
f 120 118 122
f 122 123 124
f 119 123 122
f 121 122 124
f 124 123 125
f 95 98 126
f 119 95 126
f 126 127 129
f 127 98 99
f 126 98 127
f 127 99 128
f 130 127 128
f 99 111 128
f 128 111 137
f 128 137 133
f 125 123 129
f 123 126 129
f 129 127 130
f 129 130 131
f 125 129 131
f 131 130 132
f 130 133 132
f 130 128 133
f 133 137 134
f 133 134 135
f 132 133 135
f 135 134 136
f 111 112 137
f 137 112 138
f 112 115 138
f 134 137 138
f 138 139 141
f 115 116 139
f 138 115 139
f 139 116 140
f 139 140 143
f 134 138 141
f 134 141 136
f 141 139 143
f 141 143 142
f 136 141 142
f 142 143 145
f 143 144 145
f 140 144 143
f 145 144 146
f 37 188 74
f 74 190 89
f 89 192 93
f 93 194 106
f 106 196 108
f 108 198 114
f 114 200 116
f 116 202 140
f 140 204 144
f 144 206 146
f 169 42 51
f 173 51 55
f 55 121 551
f 121 124 553
f 124 125 555
f 125 131 557
f 131 132 559
f 132 135 561
f 135 136 563
f 136 142 565
f 142 145 567
f 145 146 569
f 18 179 180
f 14 178 179
f 14 177 178
f 20 181 182
f 18 180 181
f 20 182 183
f 35 183 185
f 23 184 177
f 35 185 186
f 37 186 187
f 37 187 188
f 74 188 189
f 74 189 190
f 89 190 191
f 89 191 192
f 93 192 193
f 93 193 194
f 106 194 195
f 106 195 196
f 108 196 197
f 108 197 198
f 114 198 199
f 114 199 200
f 116 200 201
f 116 201 202
f 140 202 203
f 140 203 204
f 144 204 205
f 144 205 206
f 146 206 207
f 146 207 176
f 385 148 150
f 385 160 148
f 387 149 147
f 387 147 152
f 389 150 149
f 388 152 151
f 386 162 163
f 386 151 162
f 390 163 165
f 391 165 166
f 394 154 153
f 393 157 154
f 395 155 157
f 395 156 155
f 396 158 156
f 397 159 158
f 394 153 161
f 392 161 160
f 391 166 164
f 398 164 168
f 399 167 169
f 399 168 167
f 397 175 159
f 400 169 170
f 401 170 171
f 401 171 172
f 402 172 173
f 403 173 174
f 399 169 400
f 400 170 401
f 401 172 402
f 402 173 403
f 403 174 546
f 462 354 175
f 174 55 546
f 55 547 546
f 55 550 549
f 55 551 550
f 55 548 547
f 55 549 548
f 121 552 551
f 121 553 552
f 124 554 553
f 124 555 554
f 125 556 555
f 125 557 556
f 131 558 557
f 131 559 558
f 132 560 559
f 132 561 560
f 135 562 561
f 135 563 562
f 136 564 563
f 136 565 564
f 142 566 565
f 142 567 566
f 145 568 567
f 145 569 568
f 146 570 569
f 146 176 570
f 176 207 693
f 570 176 693
f 184 355 217
f 354 355 184
f 358 218 217
f 360 219 218
f 355 356 217
f 356 357 217
f 357 358 217
f 358 359 218
f 359 360 218
f 360 361 219
f 361 362 219
f 362 363 219
f 363 364 219
f 364 365 223
f 365 366 223
f 366 367 224
f 367 368 224
f 368 369 224
f 369 370 224
f 370 371 245
f 371 372 245
f 372 373 248
f 373 374 248
f 374 375 248
f 375 376 249
f 376 377 249
f 377 378 249
f 378 379 258
f 379 380 258
f 380 381 258
f 381 382 258
f 382 383 262
f 179 211 180
f 178 208 179
f 177 208 178
f 181 213 182
f 180 211 181
f 182 213 183
f 183 231 185
f 184 217 177
f 185 231 186
f 186 233 187
f 187 233 188
f 188 263 189
f 189 263 190
f 190 266 191
f 191 266 192
f 192 268 193
f 193 268 194
f 194 285 195
f 195 285 196
f 196 287 197
f 197 287 198
f 198 291 199
f 199 291 200
f 200 293 201
f 201 293 202
f 202 327 203
f 203 327 204
f 204 331 205
f 205 331 206
f 206 333 207
f 207 333 384
f 177 217 208
f 179 208 211
f 181 211 213
f 183 213 231
f 186 231 233
f 208 212 211
f 217 209 208
f 208 209 212
f 209 216 212
f 218 210 209
f 209 210 216
f 210 222 220
f 211 214 213
f 211 212 214
f 213 232 231
f 213 214 232
f 212 215 214
f 214 235 232
f 214 215 235
f 215 237 235
f 212 216 215
f 216 221 215
f 216 220 221
f 210 220 216
f 215 221 237
f 217 218 209
f 218 219 210
f 219 222 210
f 219 223 222
f 221 238 237
f 220 227 221
f 221 227 238
f 223 226 222
f 223 224 226
f 222 225 220
f 220 225 227
f 222 226 225
f 226 229 225
f 225 230 227
f 225 229 230
f 227 230 241
f 224 228 226
f 226 228 229
f 224 245 228
f 229 251 230
f 228 246 229
f 229 246 251
f 231 234 233
f 231 232 234
f 232 235 236
f 232 236 234
f 235 237 239
f 235 239 236
f 237 240 239
f 237 238 240
f 227 241 238
f 238 242 240
f 238 241 242
f 230 243 241
f 241 244 242
f 230 251 243
f 241 243 244
f 245 247 228
f 245 248 247
f 228 247 246
f 247 252 246
f 248 250 247
f 247 250 252
f 248 249 250
f 249 257 250
f 251 254 243
f 243 255 244
f 246 253 251
f 251 253 254
f 243 254 255
f 246 252 253
f 252 260 253
f 250 259 252
f 253 256 254
f 254 261 255
f 252 259 260
f 250 257 259
f 249 258 257
f 253 260 256
f 254 256 261
f 259 262 260
f 260 262 256
f 256 262 261
f 258 262 257
f 257 262 259
f 364 223 219
f 366 224 223
f 370 245 224
f 372 248 245
f 375 249 248
f 188 233 263
f 190 263 266
f 192 266 268
f 194 268 285
f 196 285 287
f 198 287 291
f 200 291 293
f 202 293 327
f 204 327 331
f 206 331 333
f 233 234 263
f 234 236 264
f 236 239 265
f 239 240 272
f 240 242 273
f 242 244 277
f 234 264 263
f 236 265 264
f 239 272 265
f 240 273 272
f 242 277 273
f 244 278 277
f 244 255 278
f 255 261 302
f 261 262 311
f 255 302 278
f 261 311 302
f 262 314 311
f 263 264 267
f 264 265 270
f 265 272 274
f 263 267 266
f 266 267 269
f 266 269 268
f 264 270 267
f 267 270 271
f 265 274 270
f 267 271 269
f 269 271 289
f 270 276 271
f 270 274 276
f 271 276 296
f 272 273 275
f 272 275 274
f 274 275 279
f 274 279 276
f 273 277 281
f 277 283 281
f 277 278 283
f 273 281 275
f 275 282 279
f 275 281 282
f 276 279 280
f 276 280 296
f 279 282 284
f 279 284 280
f 284 301 280
f 281 304 282
f 281 283 304
f 304 305 282
f 282 305 284
f 268 286 285
f 268 269 286
f 285 288 287
f 285 286 288
f 269 289 286
f 286 289 290
f 271 296 289
f 286 290 288
f 287 288 292
f 289 296 297
f 288 290 295
f 289 297 290
f 290 297 299
f 290 299 295
f 287 292 291
f 291 294 293
f 291 292 294
f 288 295 292
f 292 295 329
f 292 329 294
f 295 341 329
f 295 299 341
f 296 280 298
f 296 298 297
f 280 301 298
f 298 301 338
f 298 338 300
f 298 300 297
f 297 300 299
f 278 303 283
f 278 302 303
f 302 312 303
f 283 307 304
f 303 307 283
f 304 308 305
f 304 307 308
f 305 306 284
f 284 306 301
f 306 310 301
f 305 309 306
f 308 309 305
f 303 313 307
f 307 315 308
f 306 318 310
f 306 309 318
f 318 319 310
f 319 339 310
f 302 311 312
f 303 312 313
f 311 314 312
f 312 314 313
f 313 314 315
f 314 316 315
f 313 315 307
f 308 315 316
f 308 316 309
f 309 316 317
f 309 317 318
f 318 317 321
f 321 322 319
f 319 320 339
f 318 321 319
f 322 320 319
f 320 325 344
f 314 317 316
f 314 321 317
f 314 322 321
f 323 320 322
f 314 323 322
f 314 324 323
f 323 324 325
f 323 325 320
f 324 326 325
f 293 328 327
f 293 294 328
f 327 328 332
f 329 342 330
f 329 341 342
f 294 329 330
f 294 330 328
f 328 330 335
f 330 342 351
f 327 332 331
f 331 332 334
f 331 334 333
f 328 335 332
f 332 335 336
f 330 351 335
f 335 351 353
f 332 336 334
f 335 353 336
f 299 300 337
f 300 338 340
f 300 340 337
f 337 340 345
f 337 345 343
f 301 310 338
f 310 339 338
f 339 340 338
f 339 344 340
f 340 344 345
f 299 337 341
f 337 343 341
f 341 343 342
f 345 346 343
f 346 349 350
f 345 344 347
f 320 344 339
f 325 347 344
f 345 347 346
f 325 326 347
f 326 348 347
f 347 348 346
f 348 349 346
f 342 343 350
f 342 350 351
f 346 350 343
f 350 352 351
f 352 353 351
f 349 352 350
f 378 258 249
f 382 262 258
f 262 701 314
f 314 703 324
f 324 705 326
f 333 334 708
f 334 336 710
f 336 353 712
f 326 714 348
f 348 715 349
f 352 717 353
f 349 719 352
f 462 355 354
f 463 356 355
f 463 357 356
f 464 358 357
f 465 359 358
f 465 360 359
f 466 361 360
f 467 362 361
f 467 363 362
f 468 364 363
f 469 365 364
f 469 366 365
f 470 367 366
f 471 368 367
f 471 369 368
f 472 370 369
f 473 371 370
f 473 372 371
f 474 373 372
f 475 374 373
f 475 375 374
f 476 376 375
f 477 377 376
f 477 378 377
f 478 379 378
f 479 380 379
f 479 381 380
f 480 382 381
f 481 383 382
f 477 478 378
f 478 479 379
f 479 480 381
f 480 481 382
f 481 695 383
f 207 384 693
f 693 384 707
f 383 695 262
f 262 696 697
f 262 695 696
f 262 699 700
f 262 697 698
f 262 698 699
f 384 333 707
f 262 700 701
f 314 701 702
f 314 702 703
f 324 703 704
f 324 704 705
f 326 706 714
f 326 705 706
f 333 708 707
f 334 709 708
f 334 710 709
f 336 711 710
f 353 720 712
f 336 712 711
f 348 713 715
f 348 714 713
f 349 715 716
f 349 716 719
f 352 719 718
f 352 718 717
f 353 717 720
f 411 394 392
f 412 393 394
f 417 395 393
f 416 396 395
f 418 397 396
f 421 386 390
f 407 387 388
f 405 385 389
f 408 389 387
f 410 388 386
f 420 390 391
f 422 391 398
f 424 398 399
f 426 399 400
f 427 400 401
f 414 392 385
f 405 389 408
f 404 385 405
f 404 414 385
f 406 408 387
f 416 418 396
f 418 419 397
f 411 392 414
f 411 413 394
f 413 412 394
f 412 417 393
f 417 415 395
f 415 416 395
f 409 386 421
f 409 410 386
f 406 387 407
f 407 388 410
f 429 401 402
f 421 390 420
f 423 391 422
f 420 391 423
f 422 398 424
f 424 399 425
f 425 399 426
f 426 400 427
f 427 401 428
f 428 401 429
f 429 402 430
f 430 403 431
f 419 460 397
f 430 402 403
f 460 462 397
f 460 482 462
f 406 439 408
f 406 407 439
f 404 405 433
f 404 433 414
f 405 408 433
f 411 441 413
f 411 414 441
f 413 440 412
f 412 443 417
f 417 443 415
f 415 443 416
f 416 443 418
f 418 445 419
f 409 434 410
f 409 421 438
f 421 420 437
f 407 410 435
f 423 422 449
f 420 423 447
f 422 424 449
f 424 425 452
f 425 426 451
f 426 427 454
f 427 428 456
f 428 429 455
f 429 430 458
f 430 431 459
f 419 445 460
f 414 433 432
f 407 436 439
f 408 439 433
f 407 435 436
f 409 438 434
f 410 434 435
f 421 437 438
f 414 432 441
f 413 441 440
f 412 440 443
f 418 443 445
f 420 448 437
f 420 447 448
f 423 449 447
f 424 450 449
f 425 451 452
f 424 452 450
f 426 453 451
f 426 454 453
f 427 456 454
f 428 455 456
f 429 457 455
f 443 442 444
f 443 440 442
f 443 444 446
f 443 446 445
f 445 446 485
f 429 458 457
f 430 459 458
f 431 461 459
f 460 484 482
f 445 484 460
f 445 485 484
f 403 461 431
f 403 572 461
f 462 483 463
f 482 483 462
f 487 464 463
f 488 465 464
f 490 466 465
f 491 467 466
f 493 468 467
f 494 469 468
f 496 470 469
f 497 471 470
f 499 472 471
f 500 473 472
f 502 474 473
f 503 475 474
f 505 476 475
f 506 477 476
f 508 478 477
f 509 479 478
f 483 486 463
f 486 487 463
f 487 488 464
f 488 489 465
f 489 490 465
f 490 491 466
f 491 492 467
f 492 493 467
f 493 494 468
f 494 495 469
f 495 496 469
f 496 497 470
f 497 498 471
f 498 499 471
f 499 500 472
f 500 501 473
f 501 502 473
f 511 480 479
f 502 503 474
f 503 504 475
f 504 505 475
f 505 506 476
f 506 507 477
f 507 508 477
f 508 509 478
f 509 510 479
f 510 511 479
f 511 512 480
f 512 513 481
f 512 481 480
f 482 484 483
f 483 484 514
f 484 485 515
f 483 514 486
f 486 514 487
f 487 517 488
f 488 517 489
f 489 517 490
f 490 517 491
f 491 521 492
f 492 523 493
f 493 520 494
f 494 525 495
f 495 526 496
f 496 527 497
f 497 529 498
f 498 530 499
f 499 530 500
f 500 530 501
f 501 531 502
f 502 532 503
f 503 534 504
f 504 535 505
f 505 536 506
f 506 536 507
f 507 537 508
f 508 538 509
f 509 538 510
f 510 539 511
f 511 541 512
f 512 542 513
f 484 515 514
f 487 514 517
f 491 517 521
f 492 521 522
f 492 522 523
f 493 523 520
f 494 520 524
f 494 524 525
f 495 525 526
f 496 526 527
f 497 527 528
f 497 528 529
f 498 529 530
f 501 530 531
f 502 531 532
f 503 532 533
f 503 533 534
f 504 534 535
f 505 535 536
f 507 536 537
f 508 537 538
f 510 538 539
f 511 539 540
f 514 515 516
f 514 516 517
f 517 516 518
f 517 518 519
f 517 519 521
f 511 540 541
f 512 541 542
f 513 542 543
f 481 513 544
f 481 544 721
f 513 543 544
f 721 544 545
f 403 546 572
f 546 547 580
f 547 548 576
f 548 549 577
f 549 550 603
f 550 551 603
f 551 552 609
f 552 553 609
f 553 554 611
f 554 555 611
f 555 556 612
f 556 557 612
f 557 558 615
f 558 559 615
f 559 560 616
f 560 561 616
f 561 562 619
f 562 563 619
f 563 564 620
f 564 565 620
f 565 566 624
f 566 567 624
f 567 568 630
f 568 569 630
f 569 570 634
f 570 571 634
f 570 693 571
f 571 693 722
f 572 579 461
f 573 461 579
f 573 574 461
f 572 546 579
f 548 577 576
f 549 603 577
f 546 580 579
f 547 576 580
f 551 609 603
f 553 611 609
f 555 612 611
f 557 615 612
f 559 616 615
f 561 619 616
f 563 620 619
f 565 624 620
f 567 630 624
f 569 634 630
f 573 575 574
f 573 579 575
f 576 577 591
f 577 603 578
f 591 577 578
f 579 580 582
f 580 576 581
f 582 580 581
f 581 591 587
f 579 582 575
f 582 583 575
f 582 584 583
f 584 585 583
f 584 586 585
f 582 581 584
f 584 581 587
f 584 587 586
f 587 588 586
f 588 589 586
f 588 590 589
f 581 576 591
f 591 578 592
f 587 591 592
f 592 593 594
f 592 578 593
f 578 604 593
f 593 605 599
f 587 592 588
f 588 592 594
f 588 595 590
f 588 594 595
f 594 597 595
f 597 596 595
f 597 598 596
f 594 593 599
f 599 606 600
f 594 599 597
f 597 599 600
f 597 600 598
f 600 601 598
f 600 602 601
f 578 603 604
f 603 610 604
f 603 609 610
f 593 604 605
f 599 605 606
f 604 641 605
f 605 645 606
f 600 606 607
f 600 607 602
f 607 608 602
f 606 646 607
f 607 646 608
f 604 610 641
f 605 641 645
f 606 645 646
f 646 647 608
f 609 613 610
f 609 611 613
f 611 612 614
f 611 614 613
f 613 614 643
f 612 615 617
f 615 618 617
f 615 616 618
f 612 617 614
f 614 617 655
f 617 618 657
f 616 622 618
f 618 623 657
f 616 619 622
f 619 620 621
f 619 621 622
f 618 622 623
f 622 621 626
f 622 626 623
f 623 626 666
f 620 624 625
f 620 625 621
f 621 625 627
f 624 631 625
f 624 630 631
f 625 631 632
f 625 632 627
f 621 627 626
f 626 627 628
f 626 628 666
f 627 633 628
f 666 628 629
f 628 635 629
f 630 634 631
f 631 634 632
f 627 632 633
f 632 634 633
f 633 634 635
f 635 634 636
f 636 634 637
f 628 633 635
f 629 635 636
f 629 636 668
f 668 636 637
f 671 637 638
f 637 634 638
f 638 634 639
f 639 634 640
f 672 638 639
f 610 642 641
f 641 648 645
f 610 613 642
f 613 643 642
f 641 642 648
f 642 643 644
f 642 644 648
f 645 649 646
f 646 649 647
f 645 648 649
f 648 644 650
f 648 650 649
f 649 651 647
f 649 650 653
f 649 653 651
f 653 652 651
f 653 654 652
f 653 665 654
f 614 655 643
f 643 655 656
f 617 657 655
f 643 656 644
f 655 658 656
f 655 657 658
f 657 659 658
f 656 658 662
f 658 660 662
f 657 623 659
f 623 666 659
f 658 659 660
f 662 660 686
f 644 656 661
f 644 661 650
f 650 661 664
f 656 662 661
f 662 686 663
f 661 662 663
f 661 663 664
f 650 664 653
f 653 664 665
f 664 676 665
f 659 666 667
f 659 667 660
f 666 629 667
f 667 629 668
f 667 668 669
f 668 671 669
f 660 667 669
f 660 669 686
f 686 669 670
f 669 671 670
f 668 637 671
f 671 638 672
f 670 671 672
f 673 639 640
f 672 639 673
f 673 640 674
f 670 672 675
f 672 673 675
f 675 673 689
f 673 674 689
f 674 690 689
f 663 687 678
f 664 677 676
f 664 663 678
f 664 678 677
f 678 679 677
f 678 688 680
f 680 681 679
f 678 680 679
f 680 682 681
f 680 691 683
f 680 683 682
f 663 686 687
f 686 670 687
f 687 670 675
f 687 675 688
f 678 687 688
f 688 675 689
f 688 689 691
f 691 689 690
f 691 690 692
f 680 688 691
f 691 684 683
f 691 692 684
f 692 685 684
f 634 723 640
f 674 640 725
f 674 727 690
f 692 690 729
f 692 732 685
f 634 571 722
f 634 722 723
f 640 723 724
f 640 724 725
f 674 725 726
f 674 726 727
f 690 727 730
f 732 728 685
f 690 730 729
f 692 731 732
f 692 729 731
f 481 721 695
f 693 707 694
f 693 694 722
f 696 741 697
f 696 695 740
f 697 737 698
f 698 738 699
f 699 762 700
f 694 707 785
f 700 762 701
f 701 769 702
f 702 769 703
f 703 773 704
f 704 773 705
f 706 777 714
f 705 777 706
f 707 708 785
f 708 709 786
f 709 710 786
f 710 711 789
f 712 720 798
f 711 712 789
f 713 791 715
f 713 714 791
f 715 793 716
f 716 793 719
f 719 797 718
f 717 718 797
f 717 798 720
f 721 545 735
f 721 735 734
f 732 733 728
f 694 785 722
f 722 785 723
f 723 787 724
f 724 787 725
f 726 725 824
f 726 824 727
f 730 727 835
f 729 730 835
f 732 731 837
f 731 729 837
f 732 837 733
f 721 734 695
f 698 737 738
f 699 738 762
f 696 740 741
f 697 741 737
f 695 734 740
f 701 762 769
f 703 769 773
f 705 773 777
f 708 786 785
f 710 789 786
f 712 798 789
f 714 777 791
f 715 791 793
f 717 797 798
f 719 793 797
f 734 735 736
f 734 736 744
f 741 751 737
f 737 739 738
f 737 751 739
f 738 739 763
f 740 742 741
f 741 742 751
f 742 748 752
f 734 743 740
f 740 743 742
f 734 744 743
f 743 744 746
f 743 746 745
f 745 746 747
f 743 748 742
f 743 745 748
f 745 747 750
f 749 750 755
f 745 749 748
f 745 750 749
f 742 752 751
f 751 752 753
f 751 753 739
f 739 753 764
f 752 760 753
f 760 767 753
f 748 754 752
f 754 760 752
f 749 755 757
f 748 749 754
f 749 757 754
f 757 755 756
f 757 756 758
f 757 758 759
f 761 759 765
f 754 761 760
f 754 757 761
f 757 759 761
f 760 761 768
f 723 785 787
f 725 787 824
f 727 824 835
f 729 835 837
f 837 828 733
f 738 763 762
f 762 763 769
f 763 770 769
f 739 764 763
f 753 767 764
f 764 770 763
f 767 801 764
f 761 765 768
f 768 765 766
f 760 768 767
f 768 766 810
f 768 811 767
f 764 801 770
f 767 811 801
f 768 810 812
f 768 812 811
f 769 781 780
f 769 771 772
f 769 770 771
f 769 772 781
f 771 804 772
f 769 776 774
f 769 774 773
f 773 774 777
f 769 775 776
f 769 779 775
f 769 780 779
f 774 776 778
f 775 782 776
f 774 778 777
f 776 782 778
f 779 783 775
f 780 784 779
f 781 803 780
f 772 805 781
f 780 803 784
f 775 783 782
f 783 794 782
f 779 784 783
f 784 841 783
f 785 786 788
f 785 788 787
f 786 789 790
f 789 798 800
f 786 790 788
f 788 790 826
f 789 800 790
f 790 800 844
f 793 795 797
f 796 799 795
f 777 778 791
f 778 792 791
f 782 792 778
f 791 792 793
f 792 795 793
f 792 794 795
f 841 796 794
f 782 794 792
f 783 841 794
f 794 796 795
f 799 798 797
f 799 800 798
f 795 799 797
f 799 845 800
f 796 845 799
f 770 802 771
f 801 802 770
f 802 804 771
f 801 820 802
f 811 820 801
f 772 804 805
f 781 805 803
f 804 809 805
f 803 806 784
f 784 806 841
f 805 808 803
f 808 806 803
f 802 807 804
f 807 809 804
f 802 820 807
f 809 853 808
f 805 809 808
f 812 813 823
f 812 810 813
f 811 823 820
f 812 823 811
f 821 817 822
f 818 821 823
f 823 813 814
f 818 814 815
f 818 823 814
f 818 819 816
f 818 817 821
f 818 815 819
f 818 816 817
f 820 821 807
f 823 821 820
f 807 821 822
f 807 822 809
f 809 822 853
f 824 787 825
f 787 788 825
f 824 836 835
f 824 825 836
f 826 844 846
f 825 788 826
f 826 790 844
f 827 826 846
f 825 826 827
f 825 827 836
f 838 830 829
f 839 848 852
f 852 850 831
f 832 833 834
f 832 830 838
f 832 834 830
f 832 839 852
f 832 831 833
f 832 852 831
f 837 835 838
f 838 835 836
f 837 829 828
f 837 838 829
f 836 827 839
f 838 836 839
f 839 827 848
f 827 846 848
f 832 838 839
f 842 845 796
f 840 845 842
f 849 843 853
f 849 846 840
f 840 842 843
f 849 840 843
f 841 842 796
f 806 842 841
f 806 843 842
f 808 843 806
f 808 853 843
f 844 800 845
f 840 844 845
f 840 846 844
f 847 849 853
f 822 847 853
f 822 817 847
f 848 846 849
f 847 848 849
f 847 852 848
f 817 852 847
f 817 851 852
f 817 816 851
f 852 851 850
f 442 440 461
f 435 461 436
f 434 461 435
f 434 438 461
f 437 461 438
f 439 436 461
f 432 461 441
f 439 461 433
f 432 433 461
f 440 441 461
f 442 461 444
f 444 461 446
f 437 448 461
f 447 461 448
f 447 449 461
f 449 450 461
f 450 452 461
f 451 461 452
f 451 453 461
f 453 454 461
f 454 456 461
f 455 461 456
f 455 457 461
f 457 458 461
f 458 459 461
f 446 461 485
f 485 461 515
f 515 461 574
f 515 574 516
f 516 574 518
f 518 574 519
f 519 574 521
f 520 523 574
f 522 574 523
f 521 574 522
f 520 574 524
f 526 574 527
f 525 574 526
f 524 574 525
f 527 574 528
f 528 654 529
f 529 654 530
f 530 654 531
f 531 654 532
f 533 532 654
f 533 654 534
f 534 654 535
f 535 654 536
f 536 654 537
f 537 654 538
f 538 654 539
f 540 539 654
f 540 654 541
f 541 654 542
f 542 685 543
f 574 575 528
f 575 583 528
f 583 585 528
f 585 586 528
f 586 589 528
f 589 590 528
f 590 595 528
f 595 596 528
f 596 598 528
f 598 601 528
f 601 602 528
f 602 608 528
f 608 647 528
f 647 651 528
f 651 652 528
f 652 654 528
f 542 654 665
f 542 665 676
f 542 676 677
f 542 677 679
f 542 679 681
f 542 681 682
f 542 682 683
f 542 683 684
f 542 684 685
f 543 685 544
f 685 545 544
f 545 733 735
f 685 728 545
f 545 728 733
f 735 733 736
f 733 744 736
f 733 755 750
f 733 756 755
f 733 758 756
f 733 759 758
f 733 746 744
f 733 747 746
f 733 750 747
f 733 765 759
f 733 766 765
f 733 810 766
f 733 815 814
f 733 819 815
f 733 813 810
f 733 814 813
f 733 828 829
f 733 829 830
f 733 830 834
f 733 833 831
f 733 834 833
f 733 816 819
f 733 851 816
f 733 850 851
f 733 831 850