# https://github.com/mikedh/trimesh
v 0.02533493 -0.02300498 -0.01899837
v 0.02533493 -0.01904652 -0.01899837
v 0.02599138 -0.01912179 -0.01899837
v 0.03111616 -0.01912179 -0.01899837
v 0.03415870 -0.02017422 -0.01899837
v 0.03418954 -0.01859559 -0.01899837
v 0.03614956 -0.01806936 -0.01899837
v 0.03310702 -0.01701693 -0.01899837
v 0.02807209 -0.00399111 -0.01899837
v 0.02533493 -0.00048368 -0.01899837
v 0.03675193 -0.01859559 -0.01899837
v 0.03803311 -0.01859559 -0.01899837
v 0.04059547 -0.01859559 -0.01899837
v 0.03741595 -0.01596450 -0.01899837
v 0.03778339 -0.01559703 -0.01896864
v 0.03814129 -0.01523913 -0.01888026
v 0.03848035 -0.01490010 -0.01873545
v 0.03879169 -0.01458873 -0.01853805
v 0.03906727 -0.01431315 -0.01829319
v 0.04006963 -0.01701693 -0.01899837
v 0.03929989 -0.01408053 -0.01800717
v 0.03939817 -0.01398228 -0.01785105
v 0.03948352 -0.01389690 -0.01768752
v 0.03955543 -0.01382499 -0.01751763
v 0.03961339 -0.01376703 -0.01734249
v 0.03965704 -0.01372338 -0.01716324
v 0.03968611 -0.01369434 -0.01698108
v 0.03970039 -0.01368006 -0.01679715
v 0.03969976 -0.01368066 -0.01661265
v 0.04315786 -0.01859559 -0.01899837
v 0.04581745 -0.02227911 -0.01899837
v 0.04706038 -0.02122668 -0.01899837
v 0.04665325 -0.01964802 -0.01899837
v 0.04551097 -0.01649070 -0.01899837
v 0.03759967 -0.00018372 -0.01898352
v 0.03796237 -0.00017892 -0.01892445
v 0.03831082 -0.00016950 -0.01880784
v 0.03863602 -0.00015567 -0.01863675
v 0.03892948 -0.00013776 -0.01841562
v 0.03918358 -0.00011631 -0.01815018
v 0.03951949 -0.00003594 -0.01760256
v 0.03969325 -0.00000711 -0.01688910
v 0.03970006 -0.00000027 -0.01670490
v 0.02533493 -0.02300498 0.01910163
v 0.02533493 -0.01775420 0.01910163
v 0.02936953 -0.01873254 0.01910163
v 0.03595207 -0.01742835 0.01910163
v 0.03633811 -0.01704231 0.01906878
v 0.03896782 -0.01441260 0.00015135
v 0.04693351 -0.01441260 0.00015135
v 0.03803179 -0.02003670 0.01910163
v 0.04015171 -0.02177562 0.01910163
v 0.03671308 -0.01666737 0.01897125
v 0.03706618 -0.01631427 0.01881177
v 0.03738724 -0.01599318 0.01859496
v 0.03778903 -0.01559139 0.01817628
v 0.03766714 -0.01571331 0.01832706
v 0.03818626 -0.01519416 0.01729959
v 0.03823591 -0.01514454 0.01691535
v 0.03821923 -0.01516119 0.01710852
v 0.03813721 -0.01524321 0.01748715
v 0.03799243 -0.01538799 0.01784652
v 0.03807244 -0.01530798 0.01766991
v 0.03789772 -0.01548270 0.01801572
v 0.04747243 -0.01723533 0.01908522
v 0.03860188 -0.00720630 0.00853335
v 0.03784339 -0.00005433 0.01809600
v 0.03772807 -0.00006093 0.01825167
v 0.03822757 -0.00000831 0.01701192
v 0.03820276 -0.00001647 0.01720404
v 0.03816172 -0.00002451 0.01739337
v 0.03810484 -0.00003237 0.01757853
v 0.03803245 -0.00003999 0.01775823
v 0.02533493 0.02300498 -0.01899837
v 0.02818018 0.01754319 -0.01899837
v 0.03741595 0.00000003 -0.01899837
v 0.03778339 0.00000003 -0.01896864
v 0.03814132 0.00000003 -0.01888026
v 0.03848035 0.00000003 -0.01873545
v 0.03879169 0.00000003 -0.01853805
v 0.03906727 0.00000003 -0.01829319
v 0.03929992 0.00000000 -0.01800717
v 0.03934903 0.00004914 -0.01792911
v 0.03939817 0.00000000 -0.01785105
v 0.03944086 0.00004269 -0.01776927
v 0.03948355 0.00000000 -0.01768752
v 0.03955543 0.00000003 -0.01751763
v 0.03958441 0.00002901 -0.01743006
v 0.03961339 0.00000003 -0.01734249
v 0.03963523 0.00002184 -0.01725288
v 0.03965704 0.00000003 -0.01716324
v 0.03967159 0.00001455 -0.01707216
v 0.03968611 0.00000003 -0.01698108
v 0.03970039 0.00000000 -0.01679715
v 0.03969976 0.00000003 -0.01661265
v 0.03906727 0.01431321 -0.01829319
v 0.03778342 0.01559706 -0.01896864
v 0.03741595 0.01596453 -0.01899837
v 0.03848035 0.01490013 -0.01873545
v 0.03814132 0.01523916 -0.01888026
v 0.03879169 0.01458879 -0.01853805
v 0.03939817 0.01398231 -0.01785105
v 0.03929992 0.01408056 -0.01800717
v 0.03955543 0.01382505 -0.01751763
v 0.03948355 0.01389693 -0.01768752
v 0.03961339 0.01376709 -0.01734249
v 0.03965707 0.01372344 -0.01716324
v 0.03968611 0.01369437 -0.01698108
v 0.03970039 0.01368009 -0.01679715
v 0.03969976 0.01368069 -0.01661265
v 0.03711691 0.01912185 -0.01899837
v 0.03960277 0.02122671 -0.01899837
v 0.02697418 0.00435711 0.01910163
v 0.03595207 0.00000003 0.01910163
v 0.03614509 0.00019305 0.01908522
v 0.03633814 0.00000003 0.01906878
v 0.02533493 0.01227576 0.01910163
v 0.02533493 0.02300498 0.01910163
v 0.02936956 0.01873257 0.01910163
v 0.03633814 0.01704234 0.01906878
v 0.03595207 0.01742838 0.01910163
v 0.03896785 0.00073194 0.00015135
v 0.03652561 0.00018750 0.01902003
v 0.03671308 0.00000000 0.01897125
v 0.03688963 0.00017655 0.01889151
v 0.03706618 0.00000003 0.01881177
v 0.03778903 0.00000003 0.01817628
v 0.03766714 0.00000003 0.01832706
v 0.03752719 0.00013995 0.01846101
v 0.03722671 0.00016056 0.01870338
v 0.03738727 0.00000003 0.01859496
v 0.03818626 0.00000003 0.01729959
v 0.03823591 0.00000003 0.01691535
v 0.03821923 0.00000003 0.01710852
v 0.03813721 0.00000003 0.01748715
v 0.03799243 0.00000000 0.01784652
v 0.03807247 0.00000003 0.01766991
v 0.03789772 0.00000000 0.01801572
v 0.03794509 0.00004737 0.01793112
v 0.03896785 0.01441263 0.00015135
v 0.03778903 0.01559142 0.01817628
v 0.03766714 0.01571334 0.01832706
v 0.03706618 0.01631430 0.01881177
v 0.03671308 0.01666740 0.01897125
v 0.03738727 0.01599321 0.01859496
v 0.03818626 0.01519419 0.01729959
v 0.03823591 0.01514457 0.01691535
v 0.03821926 0.01516122 0.01710852
v 0.03813721 0.01524324 0.01748715
v 0.03799246 0.01538802 0.01784652
v 0.03807247 0.01530801 0.01766991
v 0.03789775 0.01548273 0.01801572
v 0.03803179 0.02003676 0.01910163
v 0.04015171 0.02177565 0.01910163
v 0.04983797 -0.02300498 -0.01899837
v 0.04828261 -0.01859559 -0.01899837
v 0.04980391 -0.01912179 -0.01899837
v 0.05007481 -0.01806936 -0.01899837
v 0.05519956 -0.01806936 -0.01899837
v 0.05599711 -0.01964802 -0.01899837
v 0.05593273 -0.01398228 -0.01785105
v 0.05584738 -0.01389690 -0.01768752
v 0.05577547 -0.01382502 -0.01751763
v 0.05571751 -0.01376706 -0.01734249
v 0.05567386 -0.01372341 -0.01716324
v 0.05564479 -0.01369434 -0.01698108
v 0.05563054 -0.01368006 -0.01679715
v 0.05563114 -0.01368066 -0.01661265
v 0.05653921 -0.01458873 -0.01853805
v 0.05718961 -0.01523913 -0.01888026
v 0.05685055 -0.01490010 -0.01873545
v 0.05791495 -0.01596450 -0.01899837
v 0.05754748 -0.01559703 -0.01896864
v 0.05626363 -0.01431318 -0.01829319
v 0.05603101 -0.01408056 -0.01800717
v 0.05589004 -0.00004266 -0.01776927
v 0.05574649 -0.00002898 -0.01743006
v 0.05565934 -0.00001452 -0.01707216
v 0.05563765 -0.00000714 -0.01688910
v 0.05598187 -0.00004914 -0.01792911
v 0.05996209 -0.02227911 -0.01899837
v 0.05914777 -0.01912182 -0.01899837
v 0.06544909 -0.01806936 -0.01899837
v 0.06596011 -0.01754316 -0.01899837
v 0.06984363 -0.02300498 -0.01899837
v 0.06852247 -0.01754316 -0.01899837
v 0.06980365 -0.01754316 -0.01899837
v 0.06984363 -0.01750149 -0.01899837
v 0.06487759 -0.00399111 -0.01899837
v 0.05636305 -0.01441260 0.00015135
v 0.04766545 -0.01742835 0.01910163
v 0.04872109 -0.01786308 0.01910163
v 0.05111644 -0.01916727 0.01910163
v 0.05535628 -0.02264508 0.01910163
v 0.05321002 -0.01786308 0.01910163
v 0.05709499 -0.01514454 0.01691535
v 0.05711164 -0.01516119 0.01710852
v 0.05714464 -0.01519416 0.01729959
v 0.05719369 -0.01524321 0.01748715
v 0.05725846 -0.01530798 0.01766991
v 0.05794363 -0.01599318 0.01859496
v 0.05861782 -0.01666737 0.01897125
v 0.05826472 -0.01631427 0.01881177
v 0.05733847 -0.01538802 0.01784652
v 0.05743315 -0.01548270 0.01801572
v 0.05754184 -0.01559139 0.01817628
v 0.05766379 -0.01571331 0.01832706
v 0.05636305 -0.00073191 0.00015135
v 0.05760283 -0.00006093 0.01825167
v 0.05780371 -0.00013992 0.01846101
v 0.05810419 -0.00016053 0.01870338
v 0.05844127 -0.00017655 0.01889151
v 0.05937880 -0.01742835 0.01910163
v 0.06149008 -0.01829781 0.01910163
v 0.05899279 -0.01704231 0.01906878
v 0.06844096 -0.02177562 0.01910163
v 0.06984363 -0.02300498 0.01910163
v 0.06907228 -0.01916727 0.01910163
v 0.06984363 -0.01925572 0.01910163
v 0.06984363 -0.01742835 0.01910163
v 0.05880532 -0.00018747 0.01902003
v 0.05918581 -0.00019302 0.01908522
v 0.05593273 0.00000000 -0.01785105
v 0.05584738 0.00000000 -0.01768752
v 0.05581144 0.00003597 -0.01760256
v 0.05577550 0.00000000 -0.01751763
v 0.05571751 0.00000000 -0.01734249
v 0.05569567 0.00002184 -0.01725288
v 0.05567386 0.00000003 -0.01716324
v 0.05564479 0.00000000 -0.01698108
v 0.05563054 0.00000000 -0.01679715
v 0.05563084 0.00000030 -0.01670490
v 0.05563114 0.00000003 -0.01661265
v 0.05640142 0.00013779 -0.01841562
v 0.05653921 0.00000000 -0.01853805
v 0.05626363 0.00000000 -0.01829319
v 0.05614732 0.00011634 -0.01815018
v 0.05603101 0.00000000 -0.01800717
v 0.05685058 0.00000000 -0.01873545
v 0.05669488 0.00015570 -0.01863675
v 0.05702008 0.00016953 -0.01880784
v 0.05718961 0.00000000 -0.01888026
v 0.05736856 0.00017895 -0.01892445
v 0.05754748 0.00000000 -0.01896864
v 0.05773123 0.00018375 -0.01898352
v 0.05791495 0.00000000 -0.01899837
v 0.04991050 0.01649073 -0.01899837
v 0.05001859 0.01806939 -0.01899837
v 0.05593273 0.01398228 -0.01785105
v 0.05577550 0.01382505 -0.01751763
v 0.05584738 0.01389693 -0.01768752
v 0.05571751 0.01376706 -0.01734249
v 0.05567386 0.01372344 -0.01716324
v 0.05564479 0.01369437 -0.01698108
v 0.05563054 0.01368009 -0.01679715
v 0.05563114 0.01368069 -0.01661265
v 0.05458243 0.01649073 -0.01899837
v 0.05626366 0.01431321 -0.01829319
v 0.05603101 0.01408056 -0.01800717
v 0.05653921 0.01458876 -0.01853805
v 0.05685058 0.01490013 -0.01873545
v 0.05718961 0.01523916 -0.01888026
v 0.05754748 0.01559706 -0.01896864
v 0.05791495 0.01596453 -0.01899837
v 0.05499034 0.02227914 -0.01899837
v 0.06240502 0.01701696 -0.01899837
v 0.06984363 0.01639433 -0.01899837
v 0.06560283 0.02300498 -0.01899837
v 0.06870634 0.01806939 -0.01899837
v 0.06984363 0.01825934 -0.01899837
v 0.06789202 0.02122671 -0.01899837
v 0.06984363 0.02300498 -0.01899837
v 0.05672902 0.00720633 0.00853335
v 0.05709499 0.00000000 0.01691535
v 0.05710333 0.00000834 0.01701192
v 0.05711164 0.00000000 0.01710852
v 0.05712814 0.00001650 0.01720404
v 0.05714464 0.00000000 0.01729959
v 0.05716915 0.00002454 0.01739337
v 0.05719369 0.00000000 0.01748715
v 0.05722606 0.00003240 0.01757853
v 0.05725846 0.00000000 0.01766991
v 0.05729845 0.00004002 0.01775823
v 0.05733847 0.00000000 0.01784652
v 0.05738581 0.00004737 0.01793112
v 0.05743315 0.00000000 0.01801572
v 0.05748751 0.00005436 0.01809600
v 0.05754187 0.00000000 0.01817628
v 0.05766379 0.00000000 0.01832706
v 0.05794363 0.00000000 0.01859496
v 0.05826475 0.00000000 0.01881177
v 0.05861782 0.00000000 0.01897125
v 0.04839739 0.01441263 0.00015135
v 0.05636305 0.01441263 0.00015135
v 0.04785847 0.01723536 0.01908522
v 0.04766545 0.01742838 0.01910163
v 0.04872109 0.01786311 0.01910163
v 0.05111647 0.01916730 0.01910163
v 0.05709499 0.01514454 0.01691535
v 0.05711167 0.01516122 0.01710852
v 0.05714464 0.01519419 0.01729959
v 0.05719369 0.01524324 0.01748715
v 0.05725846 0.01530801 0.01766991
v 0.05733847 0.01538802 0.01784652
v 0.05743318 0.01548273 0.01801572
v 0.05754187 0.01559142 0.01817628
v 0.05766379 0.01571334 0.01832706
v 0.05794363 0.01599321 0.01859496
v 0.05826475 0.01631430 0.01881177
v 0.05861785 0.01666737 0.01897125
v 0.05321005 0.01786311 0.01910163
v 0.05535631 0.02264511 0.01910163
v 0.05899279 0.00000000 0.01906878
v 0.05937883 0.00000000 0.01910163
v 0.05899279 0.01704234 0.01906878
v 0.05937883 0.01742838 0.01910163
v 0.06149008 0.01829784 0.01910163
v 0.06984363 0.01834589 0.01910163
v 0.06907228 0.01916727 0.01910163
v 0.06844096 0.02177565 0.01910163
v 0.06984363 0.02108623 0.01910163
v 0.06984363 0.02300498 0.01910163
f 3 1 2
f 3 4 1
f 5 1 4
f 3 2 11
f 8 2 10
f 6 11 2
f 6 2 7
f 3 13 4
f 3 11 12
f 8 20 2
f 5 31 1
f 3 12 13
f 7 2 20
f 9 14 10
f 9 10 76
f 8 10 14
f 9 76 14
f 5 4 156
f 4 13 30
f 31 155 1
f 6 7 158
f 6 158 11
f 4 30 156
f 11 158 12
f 8 14 34
f 8 34 20
f 5 32 31
f 7 20 158
f 12 158 13
f 5 157 33
f 5 156 157
f 5 160 32
f 31 32 155
f 5 33 160
f 13 159 30
f 14 15 172
f 15 16 173
f 16 17 170
f 17 18 171
f 18 19 169
f 14 172 34
f 19 21 174
f 21 22 175
f 22 23 162
f 23 24 162
f 24 25 164
f 25 26 165
f 26 27 166
f 27 28 166
f 28 29 168
f 29 50 168
f 29 49 50
f 14 35 15
f 15 36 16
f 16 37 17
f 17 38 18
f 18 39 19
f 19 40 21
f 21 82 22
f 22 84 23
f 23 41 24
f 24 87 25
f 25 89 26
f 26 91 27
f 27 42 28
f 28 43 29
f 14 76 35
f 15 35 77
f 15 77 36
f 16 36 78
f 16 78 37
f 17 37 79
f 17 79 38
f 18 38 80
f 18 80 39
f 19 39 81
f 19 81 40
f 21 40 82
f 22 82 83
f 22 83 84
f 23 84 85
f 23 86 41
f 23 85 86
f 24 41 87
f 25 87 88
f 25 88 89
f 26 89 90
f 26 90 91
f 27 91 92
f 27 92 93
f 27 93 42
f 28 42 94
f 28 94 43
f 29 43 95
f 29 95 122
f 29 122 49
f 46 45 44
f 46 47 45
f 46 44 51
f 52 51 44
f 47 114 45
f 113 117 45
f 113 45 114
f 47 48 114
f 48 115 114
f 48 116 115
f 49 66 59
f 49 59 50
f 46 193 47
f 52 44 194
f 46 51 193
f 47 65 48
f 52 193 51
f 47 191 65
f 47 193 192
f 47 195 191
f 47 192 195
f 50 59 196
f 48 202 53
f 53 203 54
f 54 201 55
f 59 60 197
f 60 58 198
f 58 61 199
f 61 63 199
f 63 62 204
f 64 56 206
f 55 207 57
f 57 206 56
f 62 64 205
f 49 122 66
f 66 122 133
f 59 66 133
f 48 53 116
f 53 54 124
f 55 57 131
f 57 56 68
f 64 67 56
f 54 55 126
f 59 69 60
f 60 70 58
f 58 71 61
f 61 72 63
f 63 73 62
f 62 138 64
f 53 123 116
f 53 124 123
f 54 125 124
f 54 126 125
f 56 67 127
f 56 127 68
f 57 129 131
f 57 128 129
f 57 68 128
f 55 130 126
f 55 131 130
f 58 70 132
f 59 133 69
f 60 69 134
f 60 134 70
f 58 132 71
f 61 71 135
f 61 135 72
f 62 73 136
f 62 136 139
f 63 72 137
f 63 137 73
f 64 138 67
f 62 139 138
f 75 98 10
f 76 10 98
f 75 10 74
f 75 74 111
f 111 74 112
f 35 76 97
f 35 97 77
f 36 77 100
f 36 100 78
f 37 78 99
f 37 99 79
f 38 79 101
f 38 101 80
f 39 80 96
f 40 81 103
f 39 96 81
f 40 103 82
f 82 103 83
f 84 83 102
f 84 102 85
f 86 85 105
f 86 104 41
f 41 104 87
f 87 104 88
f 88 106 89
f 89 106 90
f 90 107 91
f 91 107 92
f 92 108 93
f 42 93 109
f 42 109 94
f 94 109 43
f 43 110 95
f 95 110 122
f 76 98 97
f 78 100 99
f 80 101 96
f 79 99 101
f 81 96 103
f 77 97 100
f 83 103 102
f 85 102 105
f 86 105 104
f 88 104 106
f 90 106 107
f 92 107 108
f 93 108 109
f 43 109 110
f 110 140 122
f 75 248 98
f 75 111 248
f 112 74 265
f 103 96 259
f 99 260 101
f 99 100 261
f 101 258 96
f 100 97 262
f 97 98 263
f 103 259 102
f 102 249 105
f 105 250 104
f 104 250 106
f 106 253 107
f 107 253 108
f 108 254 109
f 109 255 110
f 98 248 247
f 98 247 257
f 111 112 248
f 110 293 140
f 113 121 117
f 115 116 120
f 116 123 120
f 113 114 121
f 114 115 121
f 119 117 121
f 119 118 117
f 115 120 121
f 119 153 118
f 153 154 118
f 122 140 147
f 122 147 133
f 124 125 144
f 124 144 123
f 130 143 126
f 126 143 125
f 67 152 127
f 68 127 141
f 128 142 129
f 68 141 128
f 131 145 130
f 129 145 131
f 69 133 147
f 69 147 134
f 70 134 148
f 70 148 132
f 71 132 146
f 71 146 135
f 72 149 137
f 72 135 149
f 136 150 139
f 73 137 151
f 73 151 136
f 138 152 67
f 138 139 152
f 123 144 120
f 125 143 144
f 127 152 141
f 129 142 145
f 128 141 142
f 130 145 143
f 132 148 146
f 134 147 148
f 135 146 149
f 137 149 151
f 136 151 150
f 139 150 152
f 140 293 147
f 119 121 298
f 120 296 121
f 119 298 153
f 154 312 118
f 147 299 148
f 148 301 146
f 151 303 150
f 150 304 152
f 146 301 149
f 149 302 151
f 152 305 141
f 142 141 306
f 120 144 315
f 120 295 296
f 142 308 145
f 145 309 143
f 143 310 144
f 298 154 153
f 121 297 298
f 121 296 311
f 121 311 297
f 13 158 159
f 30 159 156
f 32 181 155
f 33 157 182
f 20 34 172
f 20 172 158
f 24 164 163
f 25 165 164
f 26 166 165
f 28 167 166
f 28 168 167
f 16 170 173
f 17 171 170
f 18 169 171
f 19 174 169
f 15 173 172
f 21 175 174
f 22 161 175
f 22 162 161
f 24 163 162
f 32 160 181
f 33 182 160
f 156 183 157
f 156 159 183
f 158 184 159
f 157 183 182
f 158 172 184
f 168 50 190
f 161 162 176
f 162 163 224
f 163 164 177
f 164 165 227
f 165 166 178
f 166 167 179
f 167 168 232
f 169 174 235
f 174 175 236
f 161 180 175
f 171 169 239
f 170 171 242
f 173 170 244
f 172 173 246
f 161 176 223
f 162 224 176
f 163 225 224
f 163 226 225
f 164 227 177
f 165 228 227
f 163 177 226
f 165 178 229
f 165 229 228
f 166 230 178
f 166 179 230
f 167 231 179
f 167 232 231
f 168 233 232
f 174 234 235
f 169 235 240
f 175 180 238
f 161 223 180
f 175 237 236
f 175 238 237
f 174 236 234
f 171 239 241
f 169 240 239
f 171 241 242
f 170 242 243
f 173 244 245
f 173 245 246
f 170 243 244
f 168 208 233
f 168 190 208
f 181 185 155
f 181 160 185
f 160 182 185
f 159 184 186
f 159 187 183
f 172 189 188
f 182 183 185
f 159 186 187
f 183 187 185
f 184 188 186
f 187 188 185
f 186 188 187
f 172 188 184
f 172 246 189
f 189 267 188
f 50 196 190
f 52 194 193
f 194 44 217
f 48 65 215
f 55 201 207
f 191 215 65
f 48 215 202
f 53 202 203
f 54 203 201
f 59 197 196
f 60 198 197
f 63 200 199
f 58 199 198
f 63 204 200
f 62 205 204
f 64 206 205
f 57 207 206
f 192 193 214
f 191 195 213
f 192 214 195
f 191 213 215
f 193 194 216
f 190 196 208
f 196 197 276
f 197 198 278
f 198 199 280
f 199 200 282
f 200 204 284
f 206 207 209
f 204 205 286
f 205 206 288
f 201 210 207
f 203 211 201
f 203 202 212
f 196 274 208
f 196 275 274
f 196 276 275
f 197 277 276
f 197 278 277
f 198 279 278
f 198 280 279
f 199 281 280
f 199 282 281
f 200 283 282
f 200 284 283
f 204 285 284
f 204 286 285
f 205 287 286
f 205 288 287
f 206 209 288
f 207 289 209
f 207 210 289
f 201 290 210
f 201 211 290
f 203 291 211
f 203 212 291
f 202 292 212
f 202 221 292
f 193 218 214
f 195 220 213
f 195 214 220
f 193 216 219
f 193 219 218
f 213 222 215
f 194 217 216
f 214 218 220
f 216 217 219
f 218 219 220
f 215 221 202
f 213 314 222
f 215 313 221
f 215 222 313
f 213 220 318
f 224 225 251
f 223 176 251
f 176 224 251
f 226 250 225
f 226 177 252
f 177 227 252
f 227 228 252
f 178 254 229
f 228 229 253
f 178 230 254
f 230 179 255
f 179 231 255
f 231 232 255
f 232 233 256
f 235 260 240
f 235 234 260
f 180 249 238
f 180 223 249
f 236 237 258
f 238 259 237
f 236 258 234
f 239 240 261
f 239 261 241
f 242 241 262
f 242 262 243
f 244 243 263
f 244 263 245
f 246 245 264
f 208 256 233
f 223 251 249
f 225 250 251
f 226 252 250
f 228 253 252
f 229 254 253
f 230 255 254
f 232 256 255
f 234 258 260
f 237 259 258
f 238 249 259
f 240 260 261
f 241 261 262
f 243 262 263
f 245 263 264
f 208 294 256
f 105 251 250
f 106 250 252
f 106 252 253
f 108 253 254
f 109 254 255
f 110 255 256
f 98 257 264
f 102 259 249
f 96 258 259
f 105 249 251
f 101 260 258
f 99 261 260
f 100 262 261
f 97 263 262
f 98 264 263
f 110 256 293
f 248 112 265
f 74 268 265
f 247 248 266
f 247 266 257
f 248 265 271
f 256 294 293
f 246 267 189
f 246 264 267
f 257 267 264
f 257 266 267
f 248 269 266
f 248 270 269
f 248 271 270
f 265 268 271
f 266 269 267
f 269 270 267
f 271 268 272
f 271 272 270
f 208 274 273
f 208 273 294
f 274 275 299
f 276 300 275
f 276 277 300
f 278 301 277
f 278 279 301
f 280 302 279
f 280 281 302
f 282 303 281
f 282 283 303
f 284 304 283
f 284 285 304
f 286 305 285
f 286 287 305
f 288 209 306
f 288 306 287
f 209 289 306
f 289 210 307
f 210 290 307
f 290 211 308
f 211 291 308
f 291 212 309
f 212 292 309
f 221 310 292
f 274 299 273
f 275 300 299
f 277 301 300
f 279 302 301
f 281 303 302
f 283 304 303
f 285 305 304
f 287 306 305
f 289 307 306
f 290 308 307
f 291 309 308
f 292 310 309
f 293 294 299
f 273 299 294
f 293 299 147
f 120 315 295
f 148 299 300
f 148 300 301
f 149 301 302
f 151 302 303
f 150 303 304
f 152 304 305
f 141 305 306
f 142 306 307
f 142 307 308
f 145 308 309
f 143 309 310
f 144 310 315
f 298 312 154
f 312 322 118
f 295 316 296
f 295 315 316
f 296 316 311
f 297 317 298
f 297 311 317
f 298 320 312
f 221 313 310
f 313 222 315
f 222 314 315
f 213 318 314
f 313 315 310
f 314 316 315
f 314 318 316
f 311 316 318
f 298 317 319
f 311 318 317
f 298 319 321
f 298 321 320
f 317 318 319
f 312 320 322
f 319 318 321
f 320 321 322
f 1 155 44
f 1 118 2
f 45 1 44
f 45 117 1
f 2 118 10
f 10 118 74
f 74 118 268
f 117 118 1
f 155 185 217
f 185 188 219
f 188 267 219
f 44 155 217
f 219 217 185
f 220 219 270
f 267 270 219
f 268 322 272
f 270 272 322
f 118 322 268
f 220 270 318
f 318 270 321
f 270 322 321