# https://github.com/mikedh/trimesh
v -0.02400498 -0.02235103 -0.01820386
v -0.02400498 -0.02236680 -0.01818135
v -0.02400498 -0.02233035 -0.01823340
v -0.02400498 -0.02248109 -0.01801817
v -0.02400498 -0.02243971 -0.01807723
v -0.02400498 -0.02255889 -0.01790703
v -0.02400498 -0.02240818 -0.01812227
v -0.02400498 -0.02204859 -0.01851516
v -0.02400498 -0.02201905 -0.01853584
v -0.02400498 -0.02187837 -0.01863437
v -0.02400498 -0.02183332 -0.01866590
v -0.02400498 -0.02175170 -0.01872303
v -0.02400498 -0.02177422 -0.01870726
v -0.02400498 -0.02172216 -0.01874373
v -0.02400498 -0.02264673 -0.01771866
v -0.02400498 -0.02258576 -0.01784942
v -0.02400498 -0.02261624 -0.01778404
v -0.02400498 -0.02266996 -0.01766883
v -0.02400498 -0.02272731 -0.01754586
v -0.02400498 -0.02273663 -0.01751102
v -0.02400498 -0.02274374 -0.01748446
v -0.02400498 -0.02281399 -0.01722236
v -0.02400498 -0.02283045 -0.01716096
v -0.02400498 -0.02283358 -0.01712503
v -0.02400498 -0.02283597 -0.01709765
v -0.02400498 -0.02284227 -0.01702579
v -0.02400498 -0.02284855 -0.01695394
v -0.02400498 -0.02285334 -0.01689917
v -0.02400498 -0.02285964 -0.01682731
v -0.02400498 -0.02286203 -0.01679993
v -0.02400498 -0.02286516 -0.01676400
v -0.02400498 -0.02148401 -0.01885478
v -0.02400498 -0.02139371 -0.01889690
v -0.02400498 -0.02136102 -0.01891213
v -0.02400498 -0.02132620 -0.01892147
v -0.02400498 -0.02129965 -0.01892858
v -0.02400498 -0.02122997 -0.01894726
v -0.02400498 -0.02116031 -0.01896592
v -0.02400498 -0.02110720 -0.01898015
v -0.02400498 -0.02101097 -0.01900592
v -0.02400498 -0.02097615 -0.01901526
v -0.02400498 -0.02091284 -0.01902081
v -0.02400498 -0.02084096 -0.01902711
v -0.02400498 -0.02076911 -0.01903339
v -0.02400498 -0.02071433 -0.01903818
v -0.02400498 -0.02061509 -0.01904688
v -0.02400498 -0.02057916 -0.01905001
v -0.01881327 -0.02257995 -0.01786188
v -0.01881327 -0.02235891 -0.01819260
v -0.01881327 -0.02233035 -0.01823340
v -0.01881327 -0.02229513 -0.01826862
v -0.01881327 -0.02247321 -0.01802943
v -0.01881327 -0.02253033 -0.01794783
v -0.01881327 -0.02255889 -0.01790703
v -0.01881327 -0.02241606 -0.01811100
v -0.01881327 -0.02204859 -0.01851516
v -0.01881327 -0.02208381 -0.01847994
v -0.01881327 -0.02200779 -0.01854372
v -0.01881327 -0.02167704 -0.01876476
v -0.01881327 -0.02184459 -0.01865802
v -0.01881327 -0.02192619 -0.01860087
v -0.01881327 -0.02176296 -0.01871514
v -0.01881327 -0.02172216 -0.01874373
v -0.01881327 -0.02222469 -0.01833906
v -0.01881327 -0.02215425 -0.01840950
v -0.01881327 -0.02262204 -0.01777158
v -0.01881327 -0.02266416 -0.01768128
v -0.01881327 -0.02270625 -0.01759098
v -0.01881327 -0.02272731 -0.01754586
v -0.01881327 -0.02274018 -0.01749774
v -0.01881327 -0.02279175 -0.01730529
v -0.01881327 -0.02276598 -0.01740150
v -0.01881327 -0.02281755 -0.01720908
v -0.01881327 -0.02283045 -0.01716096
v -0.01881327 -0.02283477 -0.01711134
v -0.01881327 -0.02284347 -0.01701210
v -0.01881327 -0.02285214 -0.01691286
v -0.01881327 -0.02286084 -0.01681362
v -0.01881327 -0.02286516 -0.01676400
v -0.01881327 -0.02158674 -0.01880688
v -0.01881327 -0.02149647 -0.01884897
v -0.01881327 -0.02140617 -0.01889109
v -0.01881327 -0.02136102 -0.01891212
v -0.01881327 -0.02131293 -0.01892502
v -0.01881327 -0.02121669 -0.01895082
v -0.01881327 -0.02112048 -0.01897659
v -0.01881327 -0.02102424 -0.01900236
v -0.01881327 -0.02097615 -0.01901526
v -0.01881327 -0.02092653 -0.01901961
v -0.01881327 -0.02082726 -0.01902831
v -0.01881327 -0.02072802 -0.01903698
v -0.01881327 -0.02062878 -0.01904568
v -0.01881327 -0.02057916 -0.01905000
v -0.01864587 -0.01638816 -0.01905000
v -0.01445619 -0.02286516 -0.01550133
v -0.01732719 -0.02286516 -0.01360737
v -0.01742835 -0.02286516 -0.01171338
v -0.01704231 -0.02283234 -0.01132731
v -0.01666737 -0.02273478 -0.01095237
v -0.01631427 -0.02257530 -0.01059927
v -0.01599318 -0.02235852 -0.01027821
v -0.01571331 -0.02209059 -0.00999834
v -0.01559139 -0.02193981 -0.00987642
v -0.01548270 -0.02177925 -0.00976770
v -0.01538802 -0.02161008 -0.00967299
v -0.01530798 -0.02143347 -0.00959298
v -0.01524324 -0.02125071 -0.00952821
v -0.01519419 -0.02106315 -0.00947919
v -0.01516122 -0.02087208 -0.00944622
v -0.01514454 -0.02067888 -0.00942957
v -0.01742838 -0.02286516 -0.00000003
v -0.01831110 -0.00800616 -0.01905000
v -0.01441260 -0.00391488 -0.00869763
v -0.00000000 -0.02233035 -0.01823340
v -0.00000000 -0.02244462 -0.01807020
v -0.00000000 -0.02255889 -0.01790703
v -0.00000000 -0.02204859 -0.01851516
v -0.00000000 -0.02188539 -0.01862943
v -0.00000000 -0.02172216 -0.01874373
v -0.00000000 -0.02218947 -0.01837428
v -0.00000000 -0.02264310 -0.01772643
v -0.00000000 -0.02272731 -0.01754583
v -0.00000000 -0.02277888 -0.01735341
v -0.00000000 -0.02283045 -0.01716096
v -0.00000000 -0.02284779 -0.01696248
v -0.00000000 -0.02286516 -0.01676397
v -0.00000000 -0.02154159 -0.01882791
v -0.00000000 -0.02136102 -0.01891212
v -0.00000000 -0.02116857 -0.01896369
v -0.00000000 -0.02097615 -0.01901526
v -0.00000000 -0.02077764 -0.01903263
v -0.00000000 -0.02057916 -0.01905000
v -0.00574200 -0.02286516 -0.01297602
v -0.00000000 -0.02286516 -0.01171338
v -0.00019302 -0.02284875 -0.01152033
v -0.00000000 -0.02283234 -0.01132731
v -0.00018747 -0.02278356 -0.01113984
v -0.00000000 -0.02273478 -0.01095234
v -0.00017655 -0.02265504 -0.01077582
v -0.00000000 -0.02257530 -0.01059927
v -0.00016053 -0.02246691 -0.01043874
v -0.00000000 -0.02235852 -0.01027821
v -0.00013992 -0.02222457 -0.01013826
v -0.00000000 -0.02209059 -0.00999831
v -0.00000000 -0.02193981 -0.00987642
v -0.00000000 -0.02177925 -0.00976770
v -0.00004734 -0.02169468 -0.00972036
v -0.00000000 -0.02161008 -0.00967299
v -0.00000000 -0.02143347 -0.00959298
v -0.00000000 -0.02125071 -0.00952821
v -0.00000000 -0.02106315 -0.00947916
v -0.00000000 -0.02087208 -0.00944622
v -0.00000000 -0.02067888 -0.00942954
v -0.00073194 -0.00391488 -0.00869760
v -0.01723533 -0.02284875 0.00019302
v -0.01519419 -0.02106315 0.00947919
v -0.01516122 -0.02087208 0.00944619
v -0.01514454 -0.02067888 0.00942954
v -0.02400498 -0.02286516 0.01676400
v -0.02400498 -0.02286203 0.01679993
v -0.02400498 -0.02285964 0.01682731
v -0.02400498 -0.02285334 0.01689917
v -0.02400498 -0.02284855 0.01695394
v -0.02400498 -0.02284227 0.01702579
v -0.02400498 -0.02283597 0.01709765
v -0.02400498 -0.02283358 0.01712503
v -0.02400498 -0.02283045 0.01716096
v -0.02400498 -0.02282111 0.01719580
v -0.02400498 -0.02279531 0.01729202
v -0.02400498 -0.02278108 0.01734512
v -0.02400498 -0.02276242 0.01741480
v -0.02400498 -0.02274374 0.01748446
v -0.02400498 -0.02273663 0.01751102
v -0.02400498 -0.02272731 0.01754586
v -0.02400498 -0.02271206 0.01757855
v -0.02400498 -0.02270044 0.01760346
v -0.02400498 -0.02266996 0.01766882
v -0.02400498 -0.02263947 0.01773420
v -0.02400498 -0.02261624 0.01778403
v -0.02400498 -0.02258576 0.01784939
v -0.02400498 -0.02255889 0.01790699
v -0.02400498 -0.02252245 0.01795906
v -0.02400498 -0.02240818 0.01812226
v -0.02400498 -0.02236680 0.01818136
v -0.02400498 -0.02233035 0.01823342
v -0.02400498 -0.02223441 0.01832936
v -0.02400498 -0.02207409 0.01848968
v -0.02400498 -0.02204859 0.01851516
v -0.02400498 -0.02187837 0.01863437
v -0.02400498 -0.02177422 0.01870728
v -0.02400498 -0.02175170 0.01872305
v -0.02400498 -0.02172216 0.01874373
v -0.02400498 -0.02168949 0.01875898
v -0.02400498 -0.02136102 0.01891215
v -0.02400498 -0.02132620 0.01892149
v -0.02400498 -0.02122997 0.01894726
v -0.02400498 -0.02116031 0.01896594
v -0.02400498 -0.02110720 0.01898017
v -0.02400498 -0.02103752 0.01899883
v -0.02400498 -0.02101097 0.01900594
v -0.02400498 -0.02097615 0.01901528
v -0.02400498 -0.02094022 0.01901841
v -0.02400498 -0.02091284 0.01902081
v -0.02400498 -0.02084096 0.01902709
v -0.02400498 -0.02076911 0.01903339
v -0.02400498 -0.02057916 0.01904997
v -0.01881327 -0.02286516 0.01676400
v -0.01881327 -0.02286084 0.01681362
v -0.01881327 -0.02285214 0.01691286
v -0.01881327 -0.02284347 0.01701210
v -0.01881327 -0.02283477 0.01711134
v -0.01881327 -0.02283045 0.01716096
v -0.01881327 -0.02281755 0.01720908
v -0.01881327 -0.02279175 0.01730529
v -0.01881327 -0.02276598 0.01740153
v -0.01881327 -0.02274018 0.01749774
v -0.01881327 -0.02272731 0.01754586
v -0.01881327 -0.02270625 0.01759101
v -0.01881327 -0.02266416 0.01768128
v -0.01881327 -0.02262204 0.01777158
v -0.01881327 -0.02257995 0.01786185
v -0.01881327 -0.02255889 0.01790700
v -0.01881327 -0.02253033 0.01794780
v -0.01881327 -0.02247321 0.01802940
v -0.01881327 -0.02241606 0.01811100
v -0.01881327 -0.02235891 0.01819263
v -0.01881327 -0.02233035 0.01823343
v -0.01881327 -0.02229513 0.01826865
v -0.01881327 -0.02222469 0.01833909
v -0.01881327 -0.02215425 0.01840953
v -0.01881327 -0.02208381 0.01847997
v -0.01881327 -0.02204859 0.01851516
v -0.01881327 -0.02200779 0.01854375
v -0.01881327 -0.02192619 0.01860087
v -0.01881327 -0.02184459 0.01865802
v -0.01881327 -0.02176296 0.01871517
v -0.01881327 -0.02172216 0.01874373
v -0.01881327 -0.02167704 0.01876479
v -0.01881327 -0.02158674 0.01880688
v -0.01881327 -0.02149647 0.01884900
v -0.01881327 -0.02140617 0.01889109
v -0.01881327 -0.02136102 0.01891215
v -0.01881327 -0.02131293 0.01892505
v -0.01881327 -0.02121669 0.01895082
v -0.01881327 -0.02112048 0.01897662
v -0.01881327 -0.02102424 0.01900239
v -0.01881327 -0.02097615 0.01901529
v -0.01881327 -0.02092653 0.01901961
v -0.01881327 -0.02082726 0.01902828
v -0.01881327 -0.02072802 0.01903698
v -0.01881327 -0.02062878 0.01904565
v -0.01881327 -0.02057916 0.01904997
v -0.01898067 -0.01638816 0.01904997
v -0.01742838 -0.02286516 0.01171335
v -0.01666737 -0.02273478 0.01095237
v -0.01704234 -0.02283234 0.01132731
v -0.01631430 -0.02257530 0.01059930
v -0.01599318 -0.02235852 0.01027818
v -0.01571331 -0.02209059 0.00999834
v -0.01548270 -0.02177925 0.00976773
v -0.01559142 -0.02193981 0.00987639
v -0.01538802 -0.02161008 0.00967302
v -0.01530801 -0.02143347 0.00959301
v -0.01524324 -0.02125071 0.00952821
v -0.01441260 -0.00391488 0.00073194
v -0.01441260 -0.00391488 0.00869760
v -0.01931544 -0.00800616 0.01904997
v -0.00002454 -0.02115693 0.00950370
v -0.00000000 -0.02106315 0.00947919
v -0.00000000 -0.02087208 0.00944619
v -0.00000834 -0.02077548 0.00943785
v -0.00000000 -0.02067888 0.00942954
v -0.00584319 -0.02286516 0.01234470
v -0.00000000 -0.02257530 0.01059930
v -0.00000000 -0.02235852 0.01027818
v -0.00006096 -0.02201520 0.00993738
v -0.00000000 -0.02209059 0.00999834
v -0.00005433 -0.02185953 0.00982206
v -0.00000000 -0.02177925 0.00976773
v -0.00004734 -0.02169468 0.00972036
v -0.00000000 -0.02193981 0.00987639
v -0.00000000 -0.02273478 0.01095237
v -0.00000000 -0.02283234 0.01132734
v -0.00000000 -0.02286516 0.01171335
v -0.00000000 -0.02161008 0.00967302
v -0.00004002 -0.02152176 0.00963300
v -0.00000000 -0.02143347 0.00959301
v -0.00000000 -0.02125071 0.00952824
v -0.00000000 -0.02286516 0.01676400
v -0.00000000 -0.02284779 0.01696248
v -0.00000000 -0.02283045 0.01716099
v -0.00000000 -0.02277888 0.01735341
v -0.00000000 -0.02272731 0.01754586
v -0.00000000 -0.02264310 0.01772643
v -0.00000000 -0.02255889 0.01790700
v -0.00000000 -0.02244462 0.01807020
v -0.00000000 -0.02233035 0.01823343
v -0.00000000 -0.02218947 0.01837431
v -0.00000000 -0.02204859 0.01851519
v -0.00000000 -0.02188539 0.01862946
v -0.00000000 -0.02172216 0.01874373
v -0.00000000 -0.02154159 0.01882794
v -0.00000000 -0.02136102 0.01891215
v -0.00000000 -0.02116857 0.01896372
v -0.00000000 -0.02097615 0.01901529
v -0.00000000 -0.02077764 0.01903263
v -0.00000000 -0.02057916 0.01904997
v -0.00720630 -0.01229688 0.00906357
v -0.01797633 0.00037581 -0.01905000
v -0.01831110 0.00875781 -0.01905000
v -0.02400498 0.01294881 -0.01905001
v -0.02400498 0.01328134 -0.01902091
v -0.02400498 0.01334580 -0.01901526
v -0.02400498 0.01337951 -0.01900622
v -0.02400498 0.01347574 -0.01898045
v -0.02400498 0.01353330 -0.01896502
v -0.02400498 0.01360073 -0.01894696
v -0.02400498 0.01366819 -0.01892888
v -0.02400498 0.01369696 -0.01892117
v -0.02400498 0.01373067 -0.01891213
v -0.02400498 0.01376232 -0.01889739
v -0.02400498 0.01403319 -0.01877106
v -0.02400498 0.01406019 -0.01875847
v -0.02400498 0.01409184 -0.01874373
v -0.02400498 0.01414484 -0.01870660
v -0.02400498 0.01430804 -0.01859233
v -0.02400498 0.01438964 -0.01853518
v -0.02400498 0.01441824 -0.01851516
v -0.02400498 0.01470000 -0.01823340
v -0.02400498 0.01473713 -0.01818041
v -0.02400498 0.01481134 -0.01807440
v -0.02400498 0.01485140 -0.01801723
v -0.02400498 0.01489144 -0.01796003
v -0.02400498 0.01492854 -0.01790703
v -0.02400498 0.01504011 -0.01766779
v -0.02400498 0.01508220 -0.01757748
v -0.02400498 0.01509696 -0.01754586
v -0.02400498 0.01511372 -0.01748335
v -0.02400498 0.01513178 -0.01741589
v -0.02400498 0.01514720 -0.01735834
v -0.02400498 0.01516529 -0.01729091
v -0.02400498 0.01519106 -0.01719469
v -0.02400498 0.01520010 -0.01716096
v -0.02400498 0.01520315 -0.01712618
v -0.02400498 0.01521790 -0.01695738
v -0.02400498 0.01522309 -0.01689802
v -0.02400498 0.01522919 -0.01682846
v -0.02400498 0.01523178 -0.01679878
v -0.02400498 0.01523481 -0.01676400
v -0.01847850 0.01294881 -0.01905000
v -0.01847850 0.01299843 -0.01904568
v -0.01847850 0.01309767 -0.01903698
v -0.01847850 0.01319694 -0.01902831
v -0.01847850 0.01329618 -0.01901961
v -0.01847850 0.01334580 -0.01901526
v -0.01847850 0.01339389 -0.01900236
v -0.01847850 0.01349013 -0.01897659
v -0.01847850 0.01358634 -0.01895082
v -0.01847850 0.01368258 -0.01892502
v -0.01847850 0.01373067 -0.01891212
v -0.01847850 0.01377582 -0.01889109
v -0.01847850 0.01386612 -0.01884897
v -0.01847850 0.01395639 -0.01880688
v -0.01847850 0.01404669 -0.01876476
v -0.01847850 0.01409184 -0.01874373
v -0.01847850 0.01413264 -0.01871514
v -0.01847850 0.01421424 -0.01865802
v -0.01847850 0.01429584 -0.01860087
v -0.01847850 0.01437744 -0.01854372
v -0.01847850 0.01441824 -0.01851516
v -0.01847850 0.01445346 -0.01847994
v -0.01847850 0.01452390 -0.01840950
v -0.01847850 0.01459434 -0.01833906
v -0.01847850 0.01466478 -0.01826862
v -0.01847850 0.01470000 -0.01823340
v -0.01847850 0.01472859 -0.01819260
v -0.01847850 0.01478571 -0.01811100
v -0.01847850 0.01484286 -0.01802943
v -0.01847850 0.01489998 -0.01794783
v -0.01847850 0.01492854 -0.01790703
v -0.01847850 0.01494960 -0.01786188
v -0.01847850 0.01499172 -0.01777158
v -0.01847850 0.01503381 -0.01768128
v -0.01847850 0.01507590 -0.01759098
v -0.01847850 0.01509696 -0.01754586
v -0.01847850 0.01510986 -0.01749774
v -0.01847850 0.01513563 -0.01740150
v -0.01847850 0.01516143 -0.01730529
v -0.01847850 0.01518720 -0.01720908
v -0.01847850 0.01520010 -0.01716096
v -0.01847850 0.01520445 -0.01711134
v -0.01847850 0.01521312 -0.01701210
v -0.01847850 0.01522179 -0.01691286
v -0.01847850 0.01523049 -0.01681362
v -0.01847850 0.01523481 -0.01676400
v -0.01596450 0.01523481 -0.01024950
v -0.01559706 0.01520511 -0.00988206
v -0.01523913 0.01511670 -0.00952413
v -0.01368069 0.01284912 -0.00796566
v -0.01368006 0.01303359 -0.00796509
v -0.01369434 0.01321752 -0.00797937
v -0.01372341 0.01339968 -0.00800838
v -0.01389690 0.01392396 -0.00818193
v -0.01376706 0.01357893 -0.00805206
v -0.01382502 0.01375407 -0.00811002
v -0.01431318 0.01452963 -0.00859818
v -0.01490010 0.01497189 -0.00918510
v -0.01458876 0.01477452 -0.00887373
v -0.01408053 0.01424361 -0.00836553
v -0.01398228 0.01408749 -0.00826728
v -0.00000000 0.01294881 -0.01905000
v -0.00000000 0.01314729 -0.01903263
v -0.00000000 0.01334580 -0.01901526
v -0.00000000 0.01353822 -0.01896369
v -0.00000000 0.01373067 -0.01891212
v -0.00000000 0.01391124 -0.01882791
v -0.00000000 0.01409184 -0.01874373
v -0.00000000 0.01425504 -0.01862943
v -0.00000000 0.01441824 -0.01851516
v -0.00000000 0.01455912 -0.01837428
v -0.00000000 0.01470000 -0.01823340
v -0.00000000 0.01481427 -0.01807020
v -0.00000000 0.01492854 -0.01790703
v -0.00000000 0.01501275 -0.01772643
v -0.00000000 0.01509696 -0.01754583
v -0.00000000 0.01514853 -0.01735341
v -0.00000000 0.01520010 -0.01716096
v -0.00000000 0.01521747 -0.01696248
v -0.00000000 0.01523481 -0.01676397
v -0.00000000 0.01523481 -0.01024950
v -0.00000000 0.01520511 -0.00988206
v -0.00000000 0.01284912 -0.00796566
v -0.00000000 0.01303359 -0.00796509
v -0.00000000 0.01321752 -0.00797937
v -0.00001452 0.01330860 -0.00799386
v -0.00000000 0.01339968 -0.00800838
v -0.00000000 0.01357893 -0.00805206
v -0.00002898 0.01366650 -0.00808104
v -0.00002181 0.01348932 -0.00803022
v -0.00000000 0.01375407 -0.00810999
v -0.00003594 0.01383903 -0.00814596
v -0.00004266 0.01400574 -0.00822459
v -0.00000000 0.01392396 -0.00818193
v -0.00000000 0.01424361 -0.00836553
v -0.00000000 0.01452963 -0.00859815
v -0.00000000 0.01511670 -0.00952413
v -0.00000000 0.01497189 -0.00918510
v -0.00000000 0.01477452 -0.00887373
v -0.00000000 0.01408749 -0.00826728
v -0.00004914 0.01416555 -0.00831642
v -0.01898067 0.00037581 0.01904997
v -0.01523916 0.01511670 0.00952416
v -0.01368069 0.01284912 0.00796569
v -0.01368006 0.01303359 0.00796509
v -0.01369434 0.01321752 0.00797934
v -0.01372341 0.01339968 0.00800841
v -0.01389693 0.01392396 0.00818193
v -0.01376706 0.01357893 0.00805206
v -0.01382502 0.01375407 0.00811002
v -0.01398228 0.01408749 0.00826728
v -0.01431318 0.01452963 0.00859818
v -0.01458876 0.01477452 0.00887376
v -0.01490010 0.01497189 0.00918513
v -0.01408056 0.01424361 0.00836556
v -0.01864590 0.00875781 0.01904997
v -0.02400498 0.01294881 0.01904997
v -0.02400498 0.01314220 0.01903309
v -0.02400498 0.01321178 0.01902699
v -0.02400498 0.01328134 0.01902091
v -0.02400498 0.01331102 0.01901831
v -0.02400498 0.01334580 0.01901528
v -0.02400498 0.01337951 0.01900624
v -0.02400498 0.01340828 0.01899853
v -0.02400498 0.01347574 0.01898047
v -0.02400498 0.01353330 0.01896504
v -0.02400498 0.01360073 0.01894696
v -0.02400498 0.01369696 0.01892119
v -0.02400498 0.01373067 0.01891215
v -0.02400498 0.01376232 0.01889739
v -0.02400498 0.01378932 0.01888479
v -0.02400498 0.01385262 0.01885529
v -0.02400498 0.01391589 0.01882577
v -0.02400498 0.01396989 0.01880058
v -0.02400498 0.01523481 0.01676400
v -0.02400498 0.01523178 0.01679878
v -0.02400498 0.01521182 0.01702694
v -0.02400498 0.01520315 0.01712618
v -0.02400498 0.01520010 0.01716096
v -0.02400498 0.01509696 0.01754586
v -0.02400498 0.01504011 0.01766778
v -0.02400498 0.01501061 0.01773107
v -0.02400498 0.01498542 0.01778507
v -0.02400498 0.01409184 0.01874373
v -0.02400498 0.01444293 0.01849049
v -0.02400498 0.01441824 0.01851516
v -0.02400498 0.01477717 0.01812320
v -0.02400498 0.01492854 0.01790699
v -0.02400498 0.01489144 0.01796000
v -0.02400498 0.01481134 0.01807439
v -0.02400498 0.01485140 0.01801720
v -0.02400498 0.01470000 0.01823342
v -0.02400498 0.01473713 0.01818042
v -0.01847850 0.01294881 0.01904997
v -0.01847850 0.01299843 0.01904565
v -0.01847850 0.01309767 0.01903698
v -0.01847850 0.01319694 0.01902828
v -0.01847850 0.01329618 0.01901961
v -0.01847850 0.01334580 0.01901529
v -0.01847850 0.01339389 0.01900239
v -0.01847850 0.01349013 0.01897662
v -0.01847850 0.01358634 0.01895082
v -0.01847850 0.01368258 0.01892505
v -0.01847850 0.01373067 0.01891215
v -0.01847850 0.01377582 0.01889109
v -0.01847850 0.01386612 0.01884900
v -0.01847850 0.01395639 0.01880688
v -0.01847850 0.01523481 0.01676400
v -0.01847850 0.01523049 0.01681362
v -0.01847850 0.01522179 0.01691286
v -0.01847850 0.01521312 0.01701210
v -0.01847850 0.01520445 0.01711134
v -0.01847850 0.01520010 0.01716096
v -0.01847850 0.01518720 0.01720908
v -0.01847850 0.01513563 0.01740153
v -0.01847850 0.01516143 0.01730529
v -0.01847850 0.01510986 0.01749774
v -0.01847850 0.01509696 0.01754586
v -0.01847850 0.01507590 0.01759101
v -0.01847850 0.01503381 0.01768128
v -0.01847850 0.01499172 0.01777158
v -0.01847850 0.01452390 0.01840953
v -0.01847850 0.01459434 0.01833909
v -0.01847850 0.01409184 0.01874373
v -0.01847850 0.01413264 0.01871517
v -0.01847850 0.01429584 0.01860087
v -0.01847850 0.01421424 0.01865802
v -0.01847850 0.01404669 0.01876479
v -0.01847850 0.01437744 0.01854375
v -0.01847850 0.01445346 0.01847997
v -0.01847850 0.01441824 0.01851516
v -0.01847850 0.01478571 0.01811100
v -0.01847850 0.01492854 0.01790700
v -0.01847850 0.01489998 0.01794780
v -0.01847850 0.01484286 0.01802940
v -0.01847850 0.01466478 0.01826865
v -0.01847850 0.01470000 0.01823343
v -0.01847850 0.01472859 0.01819263
v -0.01847850 0.01494960 0.01786185
v -0.01596450 0.01523481 0.01024953
v -0.01559706 0.01520511 0.00988203
v -0.01448739 0.01523481 0.01513539
v -0.00066957 -0.00381516 0.01904997
v -0.00000000 0.01284912 0.00796569
v -0.00000030 0.01294137 0.00796539
v -0.00000000 0.01303359 0.00796509
v -0.00000714 0.01312557 0.00797223
v -0.00000000 0.01321752 0.00797934
v -0.00000000 0.01339968 0.00800841
v -0.00000000 0.01357893 0.00805209
v -0.00000000 0.01375407 0.00811002
v -0.00000000 0.01392396 0.00818193
v -0.00000000 0.01408749 0.00826728
v -0.00004914 0.01416555 0.00831642
v -0.00000000 0.01424361 0.00836556
v -0.00011631 0.01438662 0.00848187
v -0.00000000 0.01452963 0.00859818
v -0.00013779 0.01465209 0.00873597
v -0.00000000 0.01477452 0.00887376
v -0.00015567 0.01487322 0.00902946
v -0.00000000 0.01497189 0.00918513
v -0.00016953 0.01504431 0.00935463
v -0.00000000 0.01511670 0.00952416
v -0.00650511 0.01523481 0.01187814
v -0.00017895 0.01516089 0.00970308
v -0.00000000 0.01520511 0.00988203
v -0.00018372 0.01521996 0.01006578
v -0.00000000 0.01523481 0.01024953
v -0.00000000 0.01294881 0.01904997
v -0.00000000 0.01314729 0.01903263
v -0.00000000 0.01334580 0.01901529
v -0.00000000 0.01353822 0.01896372
v -0.00000000 0.01373067 0.01891215
v -0.00000000 0.01391124 0.01882794
v -0.00000000 0.01523481 0.01676400
v -0.00000000 0.01521747 0.01696248
v -0.00000000 0.01520010 0.01716099
v -0.00000000 0.01514853 0.01735341
v -0.00000000 0.01509696 0.01754586
v -0.00000000 0.01501275 0.01772643
v -0.00000000 0.01455912 0.01837431
v -0.00000000 0.01409184 0.01874373
v -0.00000000 0.01425504 0.01862946
v -0.00000000 0.01441824 0.01851519
v -0.00000000 0.01492854 0.01790700
v -0.00000000 0.01481427 0.01807020
v -0.00000000 0.01470000 0.01823343
v 0.00006096 -0.02201520 -0.00993738
v 0.00005436 -0.02185953 -0.00982206
v 0.00004002 -0.02152176 -0.00963297
v 0.00003237 -0.02134209 -0.00956058
v 0.00584319 -0.02286516 -0.01234470
v 0.00002454 -0.02115693 -0.00950370
v 0.00001650 -0.02096760 -0.00946269
v 0.00000834 -0.02077548 -0.00943788
v 0.00720630 -0.01229688 -0.00906357
v 0.01571334 -0.02209059 -0.00999831
v 0.01559142 -0.02193981 -0.00987642
v 0.01548273 -0.02177925 -0.00976770
v 0.01599318 -0.02235852 -0.01027821
v 0.01631430 -0.02257530 -0.01059927
v 0.01530801 -0.02143347 -0.00959298
v 0.01524324 -0.02125071 -0.00952821
v 0.01538802 -0.02161008 -0.00967299
v 0.01704234 -0.02283234 -0.01132731
v 0.01666740 -0.02273478 -0.01095234
v 0.01742838 -0.02286516 -0.01171338
v 0.01881327 -0.02257995 -0.01786185
v 0.01881327 -0.02235891 -0.01819260
v 0.01881327 -0.02233035 -0.01823340
v 0.01881327 -0.02229513 -0.01826862
v 0.01881327 -0.02247321 -0.01802940
v 0.01881327 -0.02253033 -0.01794780
v 0.01881327 -0.02255889 -0.01790700
v 0.01881327 -0.02241606 -0.01811100
v 0.01881327 -0.02204859 -0.01851516
v 0.01881327 -0.02208381 -0.01847994
v 0.01881327 -0.02200779 -0.01854372
v 0.01881327 -0.02167704 -0.01876476
v 0.01881327 -0.02184459 -0.01865799
v 0.01881327 -0.02192619 -0.01860087
v 0.01881327 -0.02176296 -0.01871514
v 0.01881327 -0.02172216 -0.01874370
v 0.01881327 -0.02222469 -0.01833906
v 0.01881327 -0.02215425 -0.01840950
v 0.01881327 -0.02262204 -0.01777158
v 0.01881327 -0.02266416 -0.01768128
v 0.01881327 -0.02270625 -0.01759098
v 0.01881327 -0.02272731 -0.01754583
v 0.01881327 -0.02274018 -0.01749771
v 0.01881327 -0.02279175 -0.01730529
v 0.01881327 -0.02276598 -0.01740150
v 0.01881327 -0.02281755 -0.01720905
v 0.01881327 -0.02283045 -0.01716096
v 0.01881327 -0.02283477 -0.01711131
v 0.01881327 -0.02284347 -0.01701207
v 0.01881327 -0.02285214 -0.01691283
v 0.01881327 -0.02286084 -0.01681359
v 0.01881327 -0.02286516 -0.01676397
v 0.01881327 -0.02158674 -0.01880685
v 0.01881330 -0.02149647 -0.01884897
v 0.01881330 -0.02140617 -0.01889106
v 0.01881330 -0.02136102 -0.01891212
v 0.01881330 -0.02131293 -0.01892502
v 0.01881330 -0.02121669 -0.01895079
v 0.01881330 -0.02112048 -0.01897659
v 0.01881330 -0.02102424 -0.01900236
v 0.01881330 -0.02097615 -0.01901526
v 0.01881330 -0.02092653 -0.01901961
v 0.01881330 -0.02082726 -0.01902828
v 0.01881330 -0.02072802 -0.01903698
v 0.01881330 -0.02062878 -0.01904565
v 0.01881330 -0.02057916 -0.01905000
v 0.02400498 -0.02257414 -0.01787431
v 0.02400498 -0.02235103 -0.01820386
v 0.02400498 -0.02233035 -0.01823340
v 0.02400498 -0.02228541 -0.01827834
v 0.02400498 -0.02255889 -0.01790700
v 0.02400498 -0.02204859 -0.01851515
v 0.02400498 -0.02207409 -0.01848965
v 0.02400498 -0.02201905 -0.01853583
v 0.02400498 -0.02199653 -0.01855160
v 0.02400498 -0.02168949 -0.01875895
v 0.02400498 -0.02183332 -0.01866587
v 0.02400498 -0.02193745 -0.01859298
v 0.02400498 -0.02172216 -0.01874370
v 0.02400498 -0.02218341 -0.01838034
v 0.02400498 -0.02264673 -0.01771865
v 0.02400498 -0.02258576 -0.01784939
v 0.02400498 -0.02261624 -0.01778403
v 0.02400498 -0.02270044 -0.01760344
v 0.02400498 -0.02272731 -0.01754583
v 0.02400498 -0.02273663 -0.01751099
v 0.02400498 -0.02276242 -0.01741478
v 0.02400498 -0.02274374 -0.01748444
v 0.02400498 -0.02279531 -0.01729201
v 0.02400498 -0.02277665 -0.01736167
v 0.02400498 -0.02283045 -0.01716095
v 0.02400498 -0.02283358 -0.01712500
v 0.02400498 -0.02283597 -0.01709762
v 0.02400498 -0.02284227 -0.01702576
v 0.02400498 -0.02284855 -0.01695391
v 0.02400498 -0.02285334 -0.01689914
v 0.02400498 -0.02285964 -0.01682728
v 0.02400498 -0.02286203 -0.01679990
v 0.02400498 -0.02286516 -0.01676397
v 0.02400498 -0.02136102 -0.01891212
v 0.02400498 -0.02132620 -0.01892146
v 0.02400498 -0.02122997 -0.01894723
v 0.02400498 -0.02116031 -0.01896591
v 0.02400498 -0.02110720 -0.01898014
v 0.02400498 -0.02103752 -0.01899880
v 0.02400498 -0.02097615 -0.01901526
v 0.02400498 -0.02094022 -0.01901841
v 0.02400498 -0.02084096 -0.01902708
v 0.02400498 -0.02076911 -0.01903338
v 0.02400498 -0.02071433 -0.01903817
v 0.02400498 -0.02064247 -0.01904445
v 0.02400498 -0.02057916 -0.01905000
v 0.01898067 -0.01638816 -0.01905000
v 0.01516122 -0.02087208 -0.00944622
v 0.01519419 -0.02106315 -0.00947916
v 0.01514454 -0.02067888 -0.00942954
v 0.01723536 -0.02284875 -0.00019302
v 0.01931544 -0.00800616 -0.01905000
v 0.01441263 -0.00391488 -0.00869760
v 0.01441263 -0.00391488 -0.00073191
v 0.00001647 -0.02096760 0.00946269
v 0.00016056 -0.02246691 0.01043874
v 0.00013992 -0.02222457 0.01013826
v 0.00017655 -0.02265504 0.01077585
v 0.00018747 -0.02278356 0.01113984
v 0.00019302 -0.02284875 0.01152036
v 0.00003237 -0.02134209 0.00956061
v 0.00574200 -0.02286516 0.01297602
v 0.00073194 -0.00391488 0.00869760
v 0.01742838 -0.02286516 -0.00000000
v 0.01516122 -0.02087208 0.00944619
v 0.01519419 -0.02106315 0.00947922
v 0.01514454 -0.02067888 0.00942954
v 0.01571331 -0.02209059 0.00999837
v 0.01548273 -0.02177925 0.00976773
v 0.01559142 -0.02193981 0.00987642
v 0.01599318 -0.02235852 0.01027818
v 0.01631427 -0.02257530 0.01059930
v 0.01530798 -0.02143347 0.00959301
v 0.01524324 -0.02125071 0.00952824
v 0.01538802 -0.02161008 0.00967302
v 0.01666737 -0.02273478 0.01095237
v 0.01704234 -0.02283234 0.01132734
v 0.01742838 -0.02286516 0.01171338
v 0.01732719 -0.02286516 0.01360737
v 0.01445619 -0.02286516 0.01550136
v 0.01881327 -0.02286516 0.01676400
v 0.01881327 -0.02286084 0.01681362
v 0.01881327 -0.02285214 0.01691289
v 0.01881327 -0.02284347 0.01701213
v 0.01881327 -0.02283477 0.01711137
v 0.01881327 -0.02283045 0.01716099
v 0.01881327 -0.02281755 0.01720908
v 0.01881327 -0.02279175 0.01730532
v 0.01881327 -0.02276598 0.01740153
v 0.01881327 -0.02274018 0.01749777
v 0.01881327 -0.02272731 0.01754586
v 0.01881327 -0.02270625 0.01759101
v 0.01881327 -0.02266416 0.01768131
v 0.01881327 -0.02262204 0.01777158
v 0.01881327 -0.02257995 0.01786185
v 0.01881327 -0.02255889 0.01790700
v 0.01881327 -0.02253033 0.01794780
v 0.01881327 -0.02247321 0.01802940
v 0.01881327 -0.02241606 0.01811103
v 0.01881327 -0.02235891 0.01819263
v 0.01881327 -0.02233035 0.01823343
v 0.01881327 -0.02229513 0.01826865
v 0.01881327 -0.02222469 0.01833909
v 0.01881327 -0.02215425 0.01840953
v 0.01881327 -0.02208381 0.01847997
v 0.01881327 -0.02204859 0.01851519
v 0.01881327 -0.02200779 0.01854375
v 0.01881327 -0.02192619 0.01860090
v 0.01881327 -0.02184459 0.01865805
v 0.01881327 -0.02176296 0.01871517
v 0.01881327 -0.02172216 0.01874376
v 0.01881327 -0.02167704 0.01876479
v 0.01881327 -0.02158674 0.01880691
v 0.01881327 -0.02149647 0.01884900
v 0.01881327 -0.02140617 0.01889112
v 0.01881327 -0.02136102 0.01891215
v 0.01881327 -0.02131293 0.01892505
v 0.01881327 -0.02121669 0.01895082
v 0.01881327 -0.02112048 0.01897662
v 0.01881327 -0.02102424 0.01900239
v 0.01881327 -0.02097615 0.01901529
v 0.01881327 -0.02092653 0.01901964
v 0.01881327 -0.02082726 0.01902831
v 0.01881327 -0.02072802 0.01903698
v 0.01881327 -0.02062878 0.01904565
v 0.01881327 -0.02057916 0.01905000
v 0.02400498 -0.02286516 0.01676401
v 0.02400498 -0.02286203 0.01679994
v 0.02400498 -0.02285964 0.01682732
v 0.02400498 -0.02284855 0.01695397
v 0.02400498 -0.02284227 0.01702582
v 0.02400498 -0.02283597 0.01709768
v 0.02400498 -0.02283358 0.01712506
v 0.02400498 -0.02283045 0.01716099
v 0.02400498 -0.02281399 0.01722236
v 0.02400498 -0.02274374 0.01748449
v 0.02400498 -0.02272731 0.01754587
v 0.02400498 -0.02270044 0.01760347
v 0.02400498 -0.02266996 0.01766885
v 0.02400498 -0.02263947 0.01773421
v 0.02400498 -0.02258576 0.01784940
v 0.02400498 -0.02257414 0.01787431
v 0.02400498 -0.02255889 0.01790700
v 0.02400498 -0.02252245 0.01795907
v 0.02400498 -0.02248109 0.01801815
v 0.02400498 -0.02240818 0.01812229
v 0.02400498 -0.02236680 0.01818137
v 0.02400498 -0.02235103 0.01820389
v 0.02400498 -0.02233035 0.01823343
v 0.02400498 -0.02204859 0.01851519
v 0.02400498 -0.02193745 0.01859302
v 0.02400498 -0.02187837 0.01863440
v 0.02400498 -0.02183332 0.01866593
v 0.02400498 -0.02177422 0.01870729
v 0.02400498 -0.02175170 0.01872306
v 0.02400498 -0.02172216 0.01874376
v 0.02400498 -0.02148401 0.01885481
v 0.02400498 -0.02141863 0.01888531
v 0.02400498 -0.02139371 0.01889692
v 0.02400498 -0.02136102 0.01891215
v 0.02400498 -0.02110720 0.01898018
v 0.02400498 -0.02101097 0.01900595
v 0.02400498 -0.02097615 0.01901529
v 0.02400498 -0.02094022 0.01901844
v 0.02400498 -0.02084096 0.01902711
v 0.02400498 -0.02071433 0.01903818
v 0.02400498 -0.02061509 0.01904685
v 0.02400498 -0.02057916 0.01905000
v 0.01864587 -0.01638816 0.01905000
v 0.01441260 -0.00391488 0.00869763
v 0.01831110 -0.00800616 0.01905000
v 0.00066957 -0.00381516 -0.01905000
v 0.00018372 0.01521996 -0.01006578
v 0.00017895 0.01516089 -0.00970308
v 0.00650511 0.01523481 -0.01187811
v 0.00000030 0.01294137 -0.00796536
v 0.00000714 0.01312557 -0.00797223
v 0.00011631 0.01438662 -0.00848184
v 0.00015567 0.01487322 -0.00902943
v 0.00016953 0.01504431 -0.00935463
v 0.00013779 0.01465209 -0.00873594
v 0.01898067 0.00037581 -0.01905000
v 0.01448739 0.01523481 -0.01513536
v 0.01559706 0.01520511 -0.00988206
v 0.01596450 0.01523481 -0.01024950
v 0.01864590 0.00875781 -0.01905000
v 0.01847850 0.01294881 -0.01905000
v 0.01847850 0.01299843 -0.01904565
v 0.01847850 0.01309767 -0.01903698
v 0.01847850 0.01319694 -0.01902828
v 0.01847850 0.01329618 -0.01901961
v 0.01847850 0.01334580 -0.01901526
v 0.01847850 0.01339389 -0.01900236
v 0.01847850 0.01349013 -0.01897659
v 0.01847850 0.01358634 -0.01895079
v 0.01847850 0.01368258 -0.01892502
v 0.01847850 0.01373067 -0.01891212
v 0.01847850 0.01377582 -0.01889106
v 0.01847850 0.01386612 -0.01884897
v 0.01847850 0.01395639 -0.01880685
v 0.01847850 0.01404669 -0.01876476
v 0.01847850 0.01409184 -0.01874370
v 0.01847850 0.01413264 -0.01871514
v 0.01847850 0.01421424 -0.01865799
v 0.01847850 0.01429584 -0.01860087
v 0.01847850 0.01437744 -0.01854372
v 0.01847850 0.01441824 -0.01851516
v 0.01847850 0.01445346 -0.01847994
v 0.01847850 0.01452390 -0.01840950
v 0.01847850 0.01459434 -0.01833906
v 0.01847850 0.01466478 -0.01826862
v 0.01847850 0.01470000 -0.01823340
v 0.01847850 0.01472859 -0.01819260
v 0.01847850 0.01478571 -0.01811100
v 0.01847850 0.01484286 -0.01802940
v 0.01847850 0.01489998 -0.01794780
v 0.01847850 0.01492854 -0.01790700
v 0.01847850 0.01494960 -0.01786185
v 0.01847850 0.01499172 -0.01777158
v 0.01847850 0.01503381 -0.01768128
v 0.01847850 0.01507590 -0.01759098
v 0.01847850 0.01509696 -0.01754583
v 0.01847850 0.01510986 -0.01749771
v 0.01847850 0.01513563 -0.01740150
v 0.01847850 0.01516143 -0.01730529
v 0.01847850 0.01518720 -0.01720905
v 0.01847850 0.01520010 -0.01716096
v 0.01847850 0.01520445 -0.01711131
v 0.01847850 0.01521312 -0.01701207
v 0.01847850 0.01522179 -0.01691283
v 0.01847850 0.01523049 -0.01681359
v 0.01847850 0.01523481 -0.01676397
v 0.02400498 0.01294881 -0.01905000
v 0.02400498 0.01334580 -0.01901526
v 0.02400498 0.01340828 -0.01899850
v 0.02400498 0.01347574 -0.01898044
v 0.02400498 0.01353330 -0.01896502
v 0.02400498 0.01360073 -0.01894693
v 0.02400498 0.01369696 -0.01892116
v 0.02400498 0.01373067 -0.01891212
v 0.02400498 0.01378932 -0.01888476
v 0.02400498 0.01385262 -0.01885526
v 0.02400498 0.01391589 -0.01882574
v 0.02400498 0.01409184 -0.01874370
v 0.02400498 0.01420204 -0.01866653
v 0.02400498 0.01425085 -0.01863236
v 0.02400498 0.01430804 -0.01859232
v 0.02400498 0.01441824 -0.01851515
v 0.02400498 0.01444293 -0.01849046
v 0.02400498 0.01455550 -0.01837790
v 0.02400498 0.01470000 -0.01823340
v 0.02400498 0.01492854 -0.01790700
v 0.02400498 0.01495590 -0.01784835
v 0.02400498 0.01498542 -0.01778507
v 0.02400498 0.01501492 -0.01772178
v 0.02400498 0.01504011 -0.01766778
v 0.02400498 0.01508220 -0.01757748
v 0.02400498 0.01509696 -0.01754583
v 0.02400498 0.01510600 -0.01751210
v 0.02400498 0.01511372 -0.01748333
v 0.02400498 0.01514720 -0.01735833
v 0.02400498 0.01516529 -0.01729090
v 0.02400498 0.01519106 -0.01719466
v 0.02400498 0.01520010 -0.01716095
v 0.02400498 0.01521790 -0.01695735
v 0.02400498 0.01522309 -0.01689799
v 0.02400498 0.01522919 -0.01682843
v 0.02400498 0.01523178 -0.01679875
v 0.02400498 0.01523481 -0.01676397
v 0.01368069 0.01284912 -0.00796566
v 0.01368009 0.01303359 -0.00796506
v 0.01369437 0.01321752 -0.00797934
v 0.01372341 0.01339968 -0.00800838
v 0.01376706 0.01357893 -0.00805203
v 0.01382502 0.01375407 -0.00810999
v 0.01389693 0.01392396 -0.00818190
v 0.01408056 0.01424361 -0.00836553
v 0.01431318 0.01452963 -0.00859815
v 0.01490013 0.01497189 -0.00918510
v 0.01458876 0.01477452 -0.00887373
v 0.01398228 0.01408749 -0.00826728
v 0.01523916 0.01511670 -0.00952413
v 0.00001452 0.01330860 0.00799386
v 0.00002181 0.01348932 0.00803025
v 0.00002898 0.01366650 0.00808104
v 0.00003594 0.01383903 0.00814599
v 0.00004269 0.01400574 0.00822462
v 0.01797633 0.00037581 0.01905000
v 0.01368069 0.01284912 0.00796569
v 0.01368006 0.01303359 0.00796512
v 0.01369434 0.01321752 0.00797934
v 0.01372341 0.01339968 0.00800841
v 0.01376706 0.01357893 0.00805209
v 0.01382502 0.01375407 0.00811002
v 0.01389693 0.01392396 0.00818196
v 0.01398228 0.01408749 0.00826728
v 0.01408056 0.01424361 0.00836556
v 0.01431318 0.01452963 0.00859818
v 0.01458876 0.01477452 0.00887376
v 0.01490010 0.01497189 0.00918513
v 0.01523916 0.01511670 0.00952416
v 0.01559706 0.01520511 0.00988203
v 0.01596450 0.01523481 0.01024953
v 0.01831110 0.00875781 0.01905000
v 0.01847850 0.01294881 0.01905000
v 0.01847850 0.01299843 0.01904565
v 0.01847850 0.01309767 0.01903698
v 0.01847850 0.01319694 0.01902831
v 0.01847850 0.01329618 0.01901964
v 0.01847850 0.01334580 0.01901529
v 0.01847850 0.01339389 0.01900239
v 0.01847850 0.01349013 0.01897662
v 0.01847850 0.01358634 0.01895082
v 0.01847850 0.01368258 0.01892505
v 0.01847850 0.01373067 0.01891215
v 0.01847850 0.01377582 0.01889112
v 0.01847850 0.01386612 0.01884900
v 0.01847850 0.01395639 0.01880691
v 0.01847850 0.01523481 0.01676400
v 0.01847850 0.01523049 0.01681362
v 0.01847850 0.01522179 0.01691289
v 0.01847850 0.01521312 0.01701213
v 0.01847850 0.01520445 0.01711137
v 0.01847850 0.01520010 0.01716099
v 0.01847850 0.01518720 0.01720908
v 0.01847850 0.01513563 0.01740153
v 0.01847850 0.01516143 0.01730532
v 0.01847850 0.01510986 0.01749777
v 0.01847850 0.01509696 0.01754586
v 0.01847850 0.01507590 0.01759101
v 0.01847850 0.01503381 0.01768131
v 0.01847850 0.01499172 0.01777158
v 0.01847850 0.01452390 0.01840953
v 0.01847850 0.01459434 0.01833909
v 0.01847850 0.01409184 0.01874376
v 0.01847850 0.01413264 0.01871517
v 0.01847850 0.01429584 0.01860090
v 0.01847850 0.01421424 0.01865805
v 0.01847850 0.01404669 0.01876479
v 0.01847850 0.01437744 0.01854375
v 0.01847850 0.01445346 0.01847997
v 0.01847850 0.01441824 0.01851519
v 0.01847850 0.01478571 0.01811103
v 0.01847850 0.01492854 0.01790700
v 0.01847850 0.01489998 0.01794780
v 0.01847850 0.01484286 0.01802940
v 0.01847850 0.01466478 0.01826865
v 0.01847850 0.01470000 0.01823343
v 0.01847850 0.01472859 0.01819263
v 0.01847850 0.01494960 0.01786185
v 0.02400498 0.01294881 0.01905000
v 0.02400498 0.01314220 0.01903309
v 0.02400498 0.01331102 0.01901834
v 0.02400498 0.01334580 0.01901529
v 0.02400498 0.01337951 0.01900625
v 0.02400498 0.01347574 0.01898048
v 0.02400498 0.01373067 0.01891215
v 0.02400498 0.01376232 0.01889741
v 0.02400498 0.01378932 0.01888482
v 0.02400498 0.01385262 0.01885530
v 0.02400498 0.01523481 0.01676401
v 0.02400498 0.01523178 0.01679879
v 0.02400498 0.01521182 0.01702697
v 0.02400498 0.01520315 0.01712621
v 0.02400498 0.01520010 0.01716099
v 0.02400498 0.01519106 0.01719470
v 0.02400498 0.01514720 0.01735836
v 0.02400498 0.01516529 0.01729093
v 0.02400498 0.01511372 0.01748338
v 0.02400498 0.01513178 0.01741592
v 0.02400498 0.01510600 0.01751216
v 0.02400498 0.01509696 0.01754587
v 0.02400498 0.01504011 0.01766781
v 0.02400498 0.01495590 0.01784836
v 0.02400498 0.01498542 0.01778508
v 0.02400498 0.01409184 0.01874376
v 0.02400498 0.01406019 0.01875850
v 0.02400498 0.01441824 0.01851519
v 0.02400498 0.01492854 0.01790700
v 0.02400498 0.01489144 0.01796001
v 0.02400498 0.01481134 0.01807442
v 0.02400498 0.01470000 0.01823343
f 48 16 6
f 49 2 1
f 49 7 2
f 50 1 3
f 55 5 7
f 52 4 5
f 54 6 4
f 56 8 9
f 60 10 11
f 58 9 10
f 62 11 13
f 62 13 12
f 63 12 14
f 50 3 8
f 66 17 16
f 66 15 17
f 67 18 15
f 69 19 18
f 69 20 19
f 70 21 20
f 71 22 21
f 74 24 23
f 74 23 22
f 75 25 24
f 76 26 25
f 76 27 26
f 77 28 27
f 78 29 28
f 78 30 29
f 79 31 30
f 63 14 32
f 81 32 33
f 83 33 34
f 83 34 35
f 84 35 36
f 84 36 37
f 85 37 38
f 86 38 39
f 87 39 40
f 88 40 41
f 88 41 42
f 89 42 43
f 90 43 44
f 91 44 45
f 92 45 46
f 93 46 47
f 50 49 1
f 52 5 55
f 53 4 52
f 53 54 4
f 54 48 6
f 49 55 7
f 65 8 57
f 57 8 56
f 58 56 9
f 60 61 10
f 58 10 61
f 60 11 62
f 62 12 63
f 50 8 51
f 65 64 8
f 64 51 8
f 66 67 15
f 48 66 16
f 68 18 67
f 68 69 18
f 70 20 69
f 70 72 21
f 71 21 72
f 71 73 22
f 73 74 22
f 74 75 24
f 75 76 25
f 76 77 27
f 77 78 28
f 78 79 30
f 59 63 32
f 59 32 80
f 80 32 81
f 81 33 82
f 83 82 33
f 83 35 84
f 84 37 85
f 85 38 86
f 86 39 87
f 87 40 88
f 88 42 89
f 89 43 90
f 90 44 91
f 91 45 92
f 92 46 93
f 79 95 31
f 95 96 31
f 96 97 31
f 50 51 114
f 64 114 51
f 50 114 49
f 52 55 115
f 53 52 116
f 53 116 54
f 54 116 48
f 49 115 55
f 57 56 117
f 58 61 117
f 58 117 56
f 60 118 61
f 60 62 118
f 62 63 119
f 59 119 63
f 65 57 120
f 65 120 64
f 66 121 67
f 48 116 66
f 68 67 121
f 70 69 122
f 68 122 69
f 70 123 72
f 71 72 123
f 71 124 73
f 74 124 75
f 73 124 74
f 75 124 76
f 76 125 77
f 77 125 78
f 78 126 79
f 59 80 127
f 80 81 127
f 81 82 128
f 83 128 82
f 83 84 128
f 84 85 128
f 85 86 129
f 86 87 129
f 87 88 130
f 88 89 130
f 89 90 130
f 90 91 131
f 91 92 131
f 92 93 132
f 93 94 132
f 95 133 96
f 96 133 97
f 94 112 132
f 97 111 31
f 111 254 31
f 97 98 111
f 98 155 111
f 98 99 256
f 99 100 255
f 100 101 257
f 101 102 258
f 102 103 259
f 103 104 260
f 104 105 260
f 105 106 263
f 106 107 264
f 107 108 156
f 108 109 157
f 109 110 158
f 93 47 311
f 93 311 94
f 110 113 265
f 79 126 95
f 49 114 115
f 52 115 116
f 57 117 120
f 61 118 117
f 62 119 118
f 64 120 114
f 66 116 121
f 68 121 122
f 70 122 123
f 71 123 124
f 76 124 125
f 78 125 126
f 59 127 119
f 81 128 127
f 85 129 128
f 87 130 129
f 90 131 130
f 92 132 131
f 95 126 133
f 97 135 98
f 98 137 99
f 99 139 100
f 100 141 101
f 101 143 102
f 102 144 103
f 103 145 104
f 104 147 105
f 105 148 106
f 106 149 107
f 97 133 134
f 97 134 135
f 98 135 136
f 98 136 137
f 99 137 138
f 99 138 139
f 100 139 140
f 100 140 141
f 101 141 142
f 101 142 143
f 102 143 144
f 103 144 597
f 103 597 145
f 104 145 598
f 104 146 147
f 104 598 146
f 105 147 148
f 106 148 599
f 106 599 149
f 107 149 600
f 107 600 150
f 107 150 108
f 108 151 109
f 109 152 110
f 108 150 602
f 108 602 151
f 109 151 603
f 109 603 152
f 110 152 604
f 110 604 153
f 110 153 154
f 112 834 132
f 110 154 113
f 254 207 31
f 207 159 31
f 98 256 155
f 111 155 254
f 99 255 256
f 101 258 257
f 102 259 258
f 103 261 259
f 103 260 261
f 100 257 255
f 105 262 260
f 105 263 262
f 106 264 263
f 107 156 264
f 108 157 156
f 109 158 157
f 155 256 254
f 110 265 158
f 207 160 159
f 208 161 160
f 208 162 161
f 209 163 162
f 210 164 163
f 210 165 164
f 211 166 165
f 212 167 166
f 212 168 167
f 214 169 168
f 214 170 169
f 215 171 170
f 215 172 171
f 216 173 172
f 217 174 173
f 217 175 174
f 218 176 175
f 218 177 176
f 219 178 177
f 220 179 178
f 220 180 179
f 222 181 180
f 223 182 181
f 225 183 182
f 225 184 183
f 227 185 184
f 228 186 185
f 231 187 186
f 232 188 187
f 234 189 188
f 236 190 189
f 236 191 190
f 237 192 191
f 237 193 192
f 242 194 193
f 242 195 194
f 243 196 195
f 244 197 196
f 245 198 197
f 245 199 198
f 246 200 199
f 247 201 200
f 247 202 201
f 248 203 202
f 248 204 203
f 249 205 204
f 252 206 205
f 207 208 160
f 208 209 162
f 209 210 163
f 210 211 165
f 211 212 166
f 212 213 168
f 213 214 168
f 214 215 170
f 215 216 172
f 216 217 173
f 217 218 175
f 218 219 177
f 219 220 178
f 220 221 180
f 221 222 180
f 222 223 181
f 223 224 182
f 224 225 182
f 225 226 184
f 226 227 184
f 227 228 185
f 228 229 186
f 229 230 186
f 230 231 186
f 231 232 187
f 232 233 188
f 233 234 188
f 234 235 189
f 235 236 189
f 236 237 191
f 237 238 193
f 238 239 193
f 239 240 193
f 240 241 193
f 241 242 193
f 242 243 195
f 243 244 196
f 244 245 197
f 245 246 199
f 246 247 200
f 247 248 202
f 248 249 204
f 249 250 205
f 250 251 205
f 251 252 205
f 252 253 206
f 253 267 206
f 254 289 207
f 207 289 208
f 208 290 209
f 209 290 210
f 210 291 211
f 211 291 212
f 212 291 213
f 213 292 214
f 214 292 215
f 215 293 216
f 216 293 217
f 217 293 218
f 218 293 219
f 219 294 220
f 220 294 221
f 221 295 222
f 222 295 223
f 223 295 224
f 224 296 225
f 225 296 226
f 226 297 227
f 227 297 228
f 228 297 229
f 229 298 230
f 230 298 231
f 231 299 232
f 232 299 233
f 233 299 234
f 234 300 235
f 235 300 236
f 236 301 237
f 237 301 238
f 238 302 239
f 239 302 240
f 240 303 241
f 241 303 242
f 242 303 243
f 243 303 244
f 244 304 245
f 245 304 246
f 246 305 247
f 247 305 248
f 248 305 249
f 249 306 250
f 250 306 251
f 251 307 252
f 252 307 253
f 158 266 308
f 158 265 266
f 267 451 206
f 451 465 206
f 253 552 267
f 156 268 264
f 156 157 269
f 157 158 271
f 158 308 272
f 268 288 264
f 156 269 268
f 157 717 269
f 157 270 717
f 157 271 270
f 158 272 271
f 257 258 274
f 258 259 275
f 256 284 254
f 257 282 255
f 255 283 256
f 259 261 276
f 261 260 278
f 260 262 280
f 262 263 286
f 263 264 287
f 254 284 273
f 254 273 289
f 208 289 290
f 210 290 291
f 213 291 292
f 215 292 293
f 219 293 294
f 221 294 295
f 224 295 296
f 226 296 297
f 229 297 298
f 231 298 299
f 234 299 300
f 236 300 301
f 238 301 302
f 240 302 303
f 244 303 304
f 246 304 305
f 249 305 306
f 251 306 307
f 253 307 552
f 257 274 720
f 258 275 718
f 258 718 274
f 259 276 277
f 259 277 719
f 260 279 278
f 260 280 279
f 261 281 276
f 261 278 281
f 259 719 275
f 257 720 282
f 255 282 721
f 255 721 283
f 256 283 722
f 256 722 284
f 262 286 285
f 262 285 280
f 263 287 286
f 264 723 287
f 264 288 723
f 273 284 724
f 273 724 289
f 308 266 725
f 308 725 272
f 94 311 112
f 112 311 309
f 113 399 265
f 309 311 310
f 350 311 312
f 354 312 313
f 355 313 314
f 356 314 315
f 357 315 316
f 358 316 317
f 359 317 318
f 359 318 319
f 360 319 320
f 360 320 321
f 361 321 322
f 364 322 323
f 365 323 324
f 365 324 325
f 366 325 326
f 368 326 327
f 370 327 328
f 370 328 329
f 375 329 330
f 376 330 331
f 378 331 332
f 379 332 333
f 379 333 334
f 380 334 335
f 383 335 336
f 385 337 338
f 385 336 337
f 387 338 339
f 387 339 340
f 388 340 341
f 388 341 342
f 390 342 343
f 390 343 344
f 391 344 345
f 393 345 346
f 394 346 347
f 394 347 348
f 395 348 349
f 310 311 350
f 350 312 351
f 351 312 352
f 352 312 353
f 353 312 354
f 354 313 355
f 355 314 356
f 356 315 357
f 357 316 358
f 358 317 359
f 359 319 360
f 360 321 361
f 361 322 362
f 362 322 363
f 363 322 364
f 364 323 365
f 365 325 366
f 366 326 367
f 367 326 368
f 368 327 369
f 369 327 370
f 370 329 371
f 371 329 372
f 372 329 373
f 373 329 374
f 374 329 375
f 375 330 376
f 376 331 377
f 377 331 378
f 378 332 379
f 379 334 380
f 380 335 381
f 381 335 382
f 382 335 383
f 383 336 384
f 384 336 385
f 385 338 386
f 386 338 387
f 387 340 388
f 388 342 389
f 389 342 390
f 390 344 391
f 391 345 392
f 392 345 393
f 393 346 394
f 394 348 395
f 309 310 411
f 310 350 411
f 350 351 411
f 351 352 412
f 352 353 412
f 353 354 413
f 354 355 413
f 355 356 413
f 356 357 414
f 357 358 414
f 358 359 415
f 359 360 415
f 360 361 415
f 361 362 415
f 362 363 416
f 363 364 416
f 364 365 417
f 365 366 417
f 366 367 418
f 367 368 418
f 368 369 419
f 369 370 419
f 370 371 419
f 371 372 420
f 372 373 420
f 373 374 421
f 374 375 421
f 375 376 421
f 376 377 422
f 377 378 422
f 378 379 423
f 379 380 423
f 380 381 423
f 381 382 423
f 382 383 424
f 383 384 424
f 385 386 425
f 384 385 425
f 386 387 426
f 387 388 426
f 388 389 427
f 389 390 427
f 390 391 427
f 391 392 427
f 392 393 428
f 393 394 428
f 394 395 429
f 395 349 484
f 395 484 396
f 396 550 397
f 397 452 398
f 407 398 463
f 399 400 454
f 401 402 456
f 400 401 455
f 403 410 460
f 402 404 456
f 404 405 459
f 403 457 405
f 406 408 461
f 407 462 408
f 406 464 409
f 409 460 410
f 112 309 834
f 309 411 834
f 113 154 399
f 395 396 429
f 351 412 411
f 353 413 412
f 356 414 413
f 358 415 414
f 362 416 415
f 364 417 416
f 366 418 417
f 368 419 418
f 371 420 419
f 373 421 420
f 376 422 421
f 378 423 422
f 382 424 423
f 384 425 424
f 386 426 425
f 388 427 426
f 392 428 427
f 394 429 428
f 396 397 430
f 397 398 431
f 396 837 429
f 397 835 430
f 397 431 835
f 398 836 431
f 398 446 836
f 396 430 837
f 399 838 400
f 400 434 401
f 401 435 402
f 404 438 405
f 402 439 404
f 403 405 441
f 403 442 410
f 407 408 447
f 407 446 398
f 406 409 445
f 406 448 408
f 409 410 450
f 154 432 399
f 399 432 838
f 400 838 433
f 400 433 839
f 400 839 434
f 401 434 435
f 402 435 436
f 402 436 439
f 404 439 437
f 404 437 438
f 405 438 440
f 405 440 441
f 403 443 442
f 403 441 443
f 409 450 444
f 409 444 840
f 406 445 843
f 409 840 445
f 407 447 842
f 407 842 446
f 408 841 447
f 406 843 448
f 408 448 841
f 410 449 450
f 410 442 449
f 265 453 266
f 465 503 206
f 503 466 206
f 267 552 451
f 552 465 451
f 396 484 549
f 265 399 453
f 396 549 550
f 397 550 452
f 398 452 463
f 399 454 453
f 400 455 454
f 401 456 455
f 403 460 457
f 404 458 456
f 404 459 458
f 405 457 459
f 407 463 462
f 408 462 461
f 409 464 460
f 406 461 464
f 505 467 466
f 506 468 467
f 506 469 468
f 507 470 469
f 508 471 470
f 508 472 471
f 509 473 472
f 510 475 474
f 510 474 473
f 511 476 475
f 512 477 476
f 513 478 477
f 513 479 478
f 514 480 479
f 515 481 480
f 515 482 481
f 516 483 482
f 517 484 485
f 518 485 486
f 521 486 487
f 522 487 488
f 522 488 489
f 527 489 490
f 529 490 491
f 530 491 492
f 530 492 497
f 546 501 494
f 540 495 493
f 533 493 483
f 540 494 495
f 541 496 502
f 542 497 498
f 543 498 500
f 544 500 499
f 541 499 496
f 547 502 501
f 551 484 517
f 503 504 466
f 504 505 466
f 505 506 467
f 506 507 469
f 507 508 470
f 508 509 472
f 509 510 473
f 510 511 475
f 511 512 476
f 512 513 477
f 513 514 479
f 514 515 480
f 515 516 482
f 516 537 483
f 533 483 537
f 517 485 518
f 518 486 519
f 519 486 520
f 520 486 521
f 521 487 522
f 523 489 525
f 522 489 523
f 524 489 526
f 525 489 524
f 526 489 527
f 527 490 528
f 528 490 529
f 530 497 548
f 530 529 491
f 531 532 494
f 532 545 494
f 545 546 494
f 533 534 493
f 534 536 493
f 540 493 538
f 536 535 493
f 535 538 493
f 539 494 540
f 531 494 539
f 548 497 542
f 543 500 544
f 543 542 498
f 541 544 499
f 547 501 546
f 541 502 547
f 549 484 573
f 465 578 503
f 573 484 551
f 503 578 504
f 504 579 505
f 505 579 506
f 506 580 507
f 507 580 508
f 508 580 509
f 509 581 510
f 510 581 511
f 511 582 512
f 512 582 513
f 513 582 514
f 514 582 515
f 515 583 516
f 516 583 537
f 517 518 584
f 518 519 585
f 519 520 585
f 520 521 586
f 522 523 586
f 521 522 586
f 523 525 586
f 525 524 587
f 524 526 587
f 526 527 588
f 527 528 588
f 528 529 588
f 530 548 589
f 530 589 529
f 531 590 532
f 531 539 590
f 533 537 591
f 533 591 534
f 534 592 536
f 536 592 535
f 540 538 593
f 535 593 538
f 539 540 593
f 541 547 595
f 548 542 594
f 543 594 542
f 543 544 594
f 541 595 544
f 547 546 596
f 532 596 545
f 545 596 546
f 266 453 725
f 453 454 554
f 454 455 556
f 455 456 558
f 458 459 560
f 456 458 559
f 457 561 459
f 457 460 562
f 460 464 563
f 462 463 569
f 463 452 571
f 461 565 464
f 461 462 567
f 453 553 725
f 453 554 553
f 454 555 554
f 454 556 555
f 455 557 556
f 455 945 557
f 455 558 945
f 456 946 558
f 456 559 946
f 458 947 559
f 458 560 947
f 459 948 560
f 459 561 948
f 457 949 561
f 457 562 949
f 460 563 562
f 464 564 563
f 464 565 564
f 461 566 565
f 461 567 566
f 462 568 567
f 462 569 568
f 463 570 569
f 452 572 571
f 463 571 570
f 552 578 465
f 550 549 576
f 452 550 574
f 549 573 577
f 551 517 584
f 573 551 584
f 504 578 579
f 506 579 580
f 509 580 581
f 511 581 582
f 515 582 583
f 537 583 591
f 518 585 584
f 520 586 585
f 525 587 586
f 526 588 587
f 529 589 588
f 548 594 589
f 532 590 596
f 534 591 592
f 535 592 593
f 539 593 590
f 544 595 594
f 547 596 595
f 550 575 574
f 550 576 575
f 549 577 576
f 452 574 572
f 133 126 601
f 133 601 134
f 135 134 614
f 135 614 136
f 137 136 615
f 137 615 138
f 139 138 610
f 143 142 606
f 143 606 144
f 597 607 145
f 145 607 598
f 147 146 613
f 598 608 146
f 139 610 140
f 141 140 609
f 141 609 142
f 144 606 597
f 147 613 148
f 148 613 599
f 599 611 149
f 149 611 600
f 600 612 150
f 114 618 115
f 116 115 621
f 120 117 626
f 117 118 630
f 118 119 631
f 114 120 633
f 116 635 121
f 121 637 122
f 122 639 123
f 123 640 124
f 124 645 125
f 125 647 126
f 127 628 119
f 127 128 650
f 128 129 654
f 129 130 656
f 130 131 659
f 131 132 661
f 126 616 601
f 601 616 134
f 597 606 607
f 146 608 613
f 598 607 608
f 599 613 611
f 600 611 612
f 136 614 615
f 138 615 610
f 134 616 614
f 140 610 609
f 142 609 606
f 132 834 709
f 150 612 602
f 602 711 151
f 603 710 152
f 152 710 604
f 151 711 603
f 604 712 153
f 612 711 602
f 603 711 710
f 604 710 712
f 153 712 605
f 154 153 605
f 154 605 715
f 114 620 619
f 114 633 620
f 114 619 618
f 115 624 621
f 116 621 622
f 116 622 623
f 116 623 617
f 115 618 624
f 117 625 626
f 117 630 627
f 117 627 625
f 118 629 630
f 118 631 629
f 119 632 631
f 119 628 632
f 120 626 634
f 120 634 633
f 121 635 636
f 116 617 635
f 121 636 637
f 122 638 639
f 122 637 638
f 123 639 641
f 123 641 640
f 124 640 642
f 124 643 644
f 124 642 643
f 124 644 645
f 125 645 646
f 125 646 647
f 126 647 648
f 127 649 628
f 127 650 649
f 128 651 650
f 128 652 651
f 128 653 652
f 128 654 653
f 129 655 654
f 129 656 655
f 130 657 656
f 130 658 657
f 130 659 658
f 131 660 659
f 131 661 660
f 132 662 661
f 126 648 616
f 132 709 662
f 623 663 617
f 619 664 618
f 619 620 665
f 621 624 667
f 618 667 624
f 622 621 667
f 622 667 623
f 626 625 669
f 627 670 625
f 628 672 632
f 629 674 630
f 627 630 674
f 629 631 673
f 631 632 673
f 634 626 676
f 634 676 633
f 633 666 620
f 635 677 636
f 617 678 635
f 637 636 680
f 637 681 638
f 639 638 682
f 639 683 641
f 640 641 686
f 640 687 642
f 643 688 644
f 642 687 643
f 644 689 645
f 645 691 646
f 646 693 647
f 647 694 648
f 628 649 672
f 650 651 672
f 649 650 672
f 652 672 651
f 652 653 697
f 653 654 698
f 654 655 699
f 655 656 701
f 656 657 701
f 657 658 703
f 658 659 704
f 659 660 705
f 660 661 707
f 661 662 707
f 662 709 708
f 617 663 678
f 620 666 665
f 619 665 664
f 618 664 667
f 623 667 663
f 625 668 669
f 627 674 671
f 627 671 670
f 625 670 668
f 629 673 674
f 632 675 673
f 632 672 675
f 633 676 666
f 626 669 676
f 635 678 679
f 635 679 677
f 636 677 680
f 637 680 681
f 638 681 682
f 639 682 684
f 639 684 683
f 641 683 686
f 640 686 685
f 640 685 687
f 643 687 688
f 644 688 689
f 645 689 690
f 645 690 691
f 646 691 692
f 646 692 693
f 647 693 694
f 648 694 695
f 652 696 672
f 652 697 696
f 653 698 697
f 654 699 698
f 655 701 700
f 655 700 699
f 657 702 701
f 657 703 702
f 658 704 703
f 659 705 704
f 660 706 705
f 660 707 706
f 662 708 707
f 709 714 708
f 616 713 614
f 615 734 610
f 606 732 607
f 607 732 608
f 608 731 613
f 609 610 733
f 609 730 606
f 613 737 611
f 611 736 612
f 612 736 711
f 710 711 728
f 710 727 712
f 614 738 615
f 616 726 713
f 614 713 739
f 712 729 716
f 648 695 789
f 648 789 616
f 709 834 714
f 714 844 708
f 844 848 708
f 712 715 605
f 712 716 715
f 268 728 288
f 268 269 728
f 717 270 727
f 269 717 728
f 271 729 270
f 271 272 729
f 272 725 729
f 728 736 288
f 717 727 728
f 270 729 727
f 276 732 277
f 278 731 281
f 278 279 731
f 280 737 279
f 276 281 732
f 274 734 720
f 275 719 733
f 275 733 718
f 274 718 734
f 719 277 730
f 282 720 738
f 282 738 721
f 721 739 283
f 283 739 722
f 722 740 284
f 280 285 737
f 286 735 285
f 286 287 735
f 287 723 735
f 723 288 736
f 284 740 724
f 277 732 730
f 279 737 731
f 281 731 732
f 285 735 737
f 723 736 735
f 718 733 734
f 719 730 733
f 720 734 738
f 721 738 739
f 722 739 740
f 724 742 289
f 289 744 290
f 290 746 291
f 291 749 292
f 292 751 293
f 293 755 294
f 294 757 295
f 295 760 296
f 296 762 297
f 297 765 298
f 298 767 299
f 299 770 300
f 300 772 301
f 301 774 302
f 302 776 303
f 303 780 304
f 304 782 305
f 305 785 306
f 306 787 307
f 289 742 743
f 729 725 832
f 552 307 833
f 606 730 732
f 608 732 731
f 610 734 733
f 609 733 730
f 611 737 735
f 611 735 736
f 711 736 728
f 613 731 737
f 710 728 727
f 712 727 729
f 615 738 734
f 614 739 738
f 713 726 739
f 726 740 739
f 616 789 726
f 726 789 740
f 724 740 741
f 724 741 742
f 289 743 744
f 290 744 745
f 290 745 746
f 291 746 747
f 291 747 748
f 291 748 749
f 292 749 750
f 292 750 751
f 293 751 752
f 293 752 753
f 293 753 754
f 293 754 755
f 294 755 756
f 294 756 757
f 295 757 758
f 295 758 759
f 295 759 760
f 296 760 761
f 296 761 762
f 297 762 763
f 297 763 764
f 297 764 765
f 298 765 766
f 298 766 767
f 299 767 768
f 299 768 769
f 299 769 770
f 300 770 771
f 300 771 772
f 301 772 773
f 301 773 774
f 302 774 775
f 302 775 776
f 303 776 777
f 303 777 778
f 303 778 779
f 303 779 780
f 304 780 781
f 304 781 782
f 305 782 783
f 305 783 784
f 305 784 785
f 306 785 786
f 306 786 787
f 307 787 788
f 307 788 831
f 307 831 833
f 740 789 741
f 741 789 742
f 742 789 743
f 743 790 744
f 744 791 745
f 745 792 746
f 746 794 747
f 747 795 748
f 748 797 749
f 749 797 750
f 750 798 751
f 751 798 752
f 752 799 753
f 753 800 754
f 754 800 755
f 755 802 756
f 756 803 757
f 757 804 758
f 758 806 759
f 759 806 760
f 760 808 761
f 761 809 762
f 762 810 763
f 763 812 764
f 764 812 765
f 765 812 766
f 766 812 767
f 767 812 768
f 768 813 769
f 769 813 770
f 770 814 771
f 771 815 772
f 772 817 773
f 773 819 774
f 774 819 775
f 775 819 776
f 776 820 777
f 777 821 778
f 778 823 779
f 779 823 780
f 780 823 781
f 781 823 782
f 782 824 783
f 783 826 784
f 784 827 785
f 785 828 786
f 786 828 787
f 787 829 788
f 743 789 790
f 744 790 791
f 745 791 792
f 746 792 793
f 746 793 794
f 747 794 795
f 748 795 796
f 748 796 797
f 750 797 798
f 752 798 799
f 753 799 800
f 755 800 801
f 755 801 802
f 756 802 803
f 757 803 804
f 758 804 805
f 758 805 806
f 760 806 807
f 760 807 808
f 761 808 809
f 762 809 810
f 763 810 811
f 763 811 812
f 768 812 813
f 770 813 814
f 771 814 815
f 772 815 816
f 772 816 817
f 773 817 818
f 773 818 819
f 776 819 820
f 777 820 821
f 778 821 822
f 778 822 823
f 782 823 824
f 783 824 825
f 783 825 826
f 784 826 827
f 785 827 828
f 787 828 829
f 788 829 830
f 716 729 832
f 788 830 1013
f 788 1013 831
f 154 715 932
f 836 446 944
f 430 835 847
f 835 431 846
f 431 836 846
f 834 411 848
f 411 412 850
f 412 413 852
f 413 414 855
f 414 415 857
f 415 416 861
f 416 417 863
f 417 418 865
f 418 419 867
f 419 420 870
f 420 421 872
f 421 422 875
f 422 423 877
f 423 424 881
f 424 425 883
f 425 426 885
f 426 427 887
f 427 428 891
f 428 429 893
f 429 837 845
f 429 845 894
f 837 430 847
f 836 944 846
f 835 846 847
f 154 932 432
f 432 932 838
f 838 933 433
f 433 933 839
f 839 934 434
f 435 434 934
f 435 934 436
f 439 436 935
f 438 437 936
f 438 936 440
f 439 935 437
f 441 440 937
f 441 937 443
f 442 443 938
f 442 938 449
f 444 939 840
f 445 940 843
f 840 940 445
f 447 941 842
f 446 842 944
f 447 841 941
f 448 843 942
f 841 448 942
f 450 449 943
f 450 943 444
f 838 932 933
f 839 933 934
f 436 934 935
f 437 935 936
f 440 936 937
f 443 937 938
f 449 938 943
f 939 940 840
f 843 940 942
f 841 942 941
f 842 941 944
f 444 943 939
f 714 834 844
f 834 848 844
f 848 849 708
f 849 895 708
f 715 716 932
f 848 411 849
f 411 850 849
f 412 851 850
f 412 852 851
f 413 853 852
f 413 854 853
f 413 855 854
f 414 856 855
f 414 857 856
f 415 858 857
f 415 859 858
f 415 860 859
f 415 861 860
f 416 862 861
f 416 863 862
f 417 864 863
f 417 865 864
f 418 866 865
f 418 867 866
f 419 868 867
f 419 869 868
f 419 870 869
f 420 871 870
f 420 872 871
f 421 873 872
f 421 874 873
f 421 875 874
f 422 876 875
f 422 877 876
f 423 878 877
f 423 879 878
f 423 880 879
f 423 881 880
f 424 882 881
f 424 883 882
f 425 885 884
f 425 884 883
f 426 886 885
f 426 887 886
f 427 888 887
f 427 889 888
f 427 890 889
f 427 891 890
f 428 892 891
f 428 893 892
f 429 894 893
f 845 837 931
f 837 847 931
f 849 850 895
f 850 851 895
f 851 852 895
f 852 853 895
f 853 854 895
f 854 855 896
f 855 856 897
f 856 857 899
f 857 858 900
f 858 859 901
f 859 860 902
f 860 861 903
f 861 862 905
f 862 863 905
f 863 864 905
f 864 865 906
f 865 866 906
f 866 867 908
f 867 868 909
f 868 869 909
f 869 870 911
f 870 871 911
f 871 872 912
f 872 873 912
f 873 874 912
f 874 875 913
f 875 876 913
f 876 877 913
f 877 878 913
f 878 879 913
f 879 880 914
f 880 881 915
f 881 882 917
f 882 883 918
f 883 884 919
f 884 885 921
f 885 886 922
f 886 887 923
f 887 888 924
f 888 889 925
f 889 890 926
f 890 891 926
f 891 892 927
f 892 893 929
f 893 894 930
f 894 845 931
f 854 896 895
f 855 897 896
f 856 898 897
f 856 899 898
f 857 900 899
f 858 901 900
f 859 902 901
f 860 903 902
f 861 904 903
f 861 905 904
f 864 906 905
f 866 907 906
f 866 908 907
f 867 909 908
f 869 910 909
f 869 911 910
f 871 912 911
f 874 913 912
f 879 914 913
f 880 915 914
f 881 916 915
f 881 917 916
f 882 918 917
f 883 919 918
f 884 921 920
f 884 920 919
f 885 922 921
f 886 923 922
f 887 924 923
f 888 925 924
f 889 926 925
f 891 927 926
f 892 928 927
f 892 929 928
f 893 930 929
f 894 931 930
f 716 951 932
f 932 951 933
f 933 953 934
f 934 953 935
f 936 955 937
f 935 955 936
f 937 957 938
f 938 957 943
f 939 943 959
f 939 960 940
f 940 961 942
f 941 942 962
f 941 963 944
f 846 944 964
f 847 846 965
f 847 965 931
f 725 951 832
f 552 950 578
f 552 833 950
f 725 553 951
f 554 951 553
f 554 555 952
f 556 952 555
f 556 557 952
f 557 945 953
f 945 558 954
f 558 946 954
f 946 559 955
f 559 947 955
f 947 560 956
f 560 948 956
f 948 561 957
f 561 949 957
f 949 562 958
f 563 958 562
f 563 564 958
f 565 959 564
f 565 566 959
f 567 960 566
f 567 568 960
f 569 961 568
f 569 570 961
f 571 962 570
f 571 572 962
f 554 952 951
f 557 953 952
f 945 954 953
f 946 955 954
f 947 956 955
f 948 957 956
f 949 958 957
f 564 959 958
f 959 566 960
f 568 961 960
f 570 962 961
f 572 963 962
f 573 965 577
f 574 963 572
f 574 575 963
f 576 964 575
f 576 577 964
f 573 584 965
f 963 575 964
f 577 965 964
f 578 968 579
f 579 970 580
f 580 973 581
f 581 975 582
f 582 979 583
f 583 1001 591
f 584 585 982
f 585 586 984
f 586 587 989
f 587 588 990
f 588 589 993
f 589 594 1012
f 590 996 596
f 591 998 592
f 592 999 593
f 590 593 1003
f 595 1008 594
f 595 596 1011
f 965 584 981
f 716 832 951
f 831 1013 833
f 833 1013 950
f 933 951 952
f 933 952 953
f 935 953 954
f 935 954 955
f 937 955 956
f 937 956 957
f 943 957 958
f 943 958 959
f 939 959 960
f 940 960 961
f 942 961 962
f 941 962 963
f 944 963 964
f 846 964 965
f 965 981 931
f 981 1023 931
f 950 966 578
f 966 967 578
f 578 967 968
f 579 968 969
f 579 969 970
f 580 970 971
f 580 971 972
f 580 972 973
f 581 973 974
f 581 974 975
f 582 975 976
f 582 976 977
f 582 977 978
f 582 978 979
f 583 979 980
f 583 980 1001
f 584 982 981
f 585 983 982
f 585 984 983
f 586 985 984
f 586 987 986
f 586 986 985
f 586 989 987
f 587 988 989
f 587 990 988
f 588 991 990
f 588 992 991
f 588 993 992
f 589 1012 994
f 589 994 993
f 590 995 996
f 590 1003 995
f 591 1001 997
f 591 997 998
f 592 998 1000
f 592 1000 999
f 593 1002 1004
f 593 999 1002
f 593 1004 1003
f 595 1011 1005
f 594 1006 1012
f 594 1007 1006
f 594 1008 1007
f 595 1005 1008
f 596 1010 1011
f 596 996 1009
f 596 1009 1010
f 950 1013 966
f 966 1013 967
f 967 1014 968
f 968 1014 969
f 969 1014 970
f 970 1015 971
f 971 1015 972
f 972 1017 973
f 973 1018 974
f 974 1019 975
f 975 1019 976
f 976 1019 977
f 977 1020 978
f 978 1021 979
f 979 1039 980
f 980 1039 1001
f 981 982 1024
f 982 983 1024
f 983 984 1024
f 984 985 1025
f 986 987 1028
f 985 986 1026
f 989 988 1029
f 987 989 1030
f 988 990 1031
f 990 991 1033
f 991 992 1034
f 994 1035 993
f 992 993 1035
f 994 1012 1037
f 995 1003 1044
f 1003 1004 1044
f 995 1044 996
f 1000 1040 999
f 997 1040 998
f 998 1040 1000
f 997 1001 1039
f 1004 1002 1040
f 999 1040 1002
f 1005 1011 1043
f 1007 1041 1006
f 1007 1008 1042
f 1005 1043 1008
f 996 1044 1009
f 1009 1044 1010
f 1011 1010 1043
f 1012 1006 1036
f 967 1013 1014
f 970 1014 1015
f 972 1015 1016
f 972 1016 1017
f 973 1017 1018
f 974 1018 1019
f 977 1019 1020
f 978 1020 1021
f 979 1021 1022
f 979 1022 1039
f 981 1024 1023
f 984 1025 1024
f 985 1026 1025
f 986 1028 1027
f 986 1027 1026
f 987 1030 1028
f 989 1029 1030
f 988 1032 1029
f 988 1031 1032
f 990 1033 1031
f 991 1034 1033
f 992 1035 1034
f 994 1037 1035
f 1012 1036 1037
f 1004 1040 1044
f 997 1039 1038
f 997 1038 1040
f 1007 1042 1041
f 1008 1043 1042
f 1010 1044 1043
f 1006 1041 1036
f 1 484 3
f 20 484 19
f 20 21 484
f 22 484 21
f 6 16 484
f 6 484 4
f 16 17 484
f 7 484 2
f 7 5 484
f 5 4 484
f 1 2 484
f 15 484 17
f 15 18 484
f 19 484 18
f 24 484 23
f 24 25 484
f 22 23 484
f 25 26 484
f 27 484 26
f 27 28 484
f 29 484 28
f 29 30 484
f 30 31 484
f 3 484 8
f 10 9 484
f 8 484 9
f 11 10 484
f 11 484 13
f 12 13 484
f 12 484 14
f 32 14 484
f 32 484 33
f 33 484 34
f 34 484 35
f 36 35 484
f 36 484 37
f 37 484 38
f 39 484 40
f 39 38 484
f 40 484 41
f 41 484 42
f 42 484 43
f 43 484 44
f 45 44 484
f 45 484 46
f 46 484 47
f 206 31 159
f 165 196 164
f 165 166 196
f 166 167 196
f 168 196 167
f 169 196 168
f 160 206 159
f 160 161 206
f 162 205 161
f 162 163 205
f 163 164 204
f 172 193 171
f 172 173 193
f 193 173 174
f 175 193 174
f 175 176 193
f 193 176 177
f 181 188 180
f 181 182 187
f 182 183 186
f 180 189 179
f 178 193 177
f 178 179 193
f 184 186 183
f 184 185 186
f 186 187 182
f 169 170 196
f 170 171 196
f 181 187 188
f 189 180 188
f 190 179 189
f 190 191 179
f 179 191 192
f 193 179 192
f 171 193 194
f 195 171 194
f 171 195 196
f 197 164 196
f 197 198 164
f 199 164 198
f 164 200 201
f 199 200 164
f 202 203 164
f 202 164 201
f 164 203 204
f 161 205 206
f 205 163 204
f 31 206 466
f 47 484 311
f 311 484 312
f 313 312 484
f 313 484 314
f 315 314 484
f 316 315 484
f 316 484 317
f 317 484 318
f 319 318 484
f 319 484 320
f 320 484 321
f 322 321 484
f 323 322 484
f 323 484 324
f 324 484 325
f 325 484 326
f 326 484 327
f 327 484 328
f 328 484 329
f 329 484 330
f 330 484 331
f 331 484 332
f 332 484 333
f 334 333 484
f 334 484 335
f 335 484 336
f 336 484 337
f 338 337 484
f 338 484 339
f 340 339 484
f 340 484 341
f 341 484 342
f 342 484 343
f 343 484 344
f 345 344 484
f 346 345 484
f 346 484 347
f 348 347 484
f 348 484 349
f 31 466 467
f 31 467 468
f 31 469 470
f 31 468 469
f 31 470 471
f 31 472 473
f 31 471 472
f 31 474 475
f 31 473 474
f 31 475 476
f 31 476 477
f 31 478 479
f 31 477 478
f 31 480 481
f 31 481 482
f 31 482 483
f 31 479 480
f 31 483 493
f 31 493 495
f 31 494 501
f 31 495 494
f 31 485 484
f 31 486 485
f 31 487 486
f 31 488 487
f 31 490 489
f 31 491 490
f 31 492 491
f 31 499 500
f 31 496 499
f 31 502 496
f 31 497 492
f 31 498 497
f 31 500 498
f 31 489 488
f 31 501 502
f 665 666 664
f 676 669 667
f 676 667 666
f 667 664 666
f 678 663 671
f 667 670 663
f 674 677 679
f 674 679 678
f 675 680 677
f 672 682 681
f 672 681 680
f 672 684 682
f 672 683 684
f 668 670 669
f 670 671 663
f 667 669 670
f 674 678 671
f 674 673 677
f 675 677 673
f 672 680 675
f 686 683 698
f 686 698 685
f 696 683 672
f 696 697 683
f 698 683 697
f 690 698 699
f 690 699 700
f 685 698 687
f 689 688 698
f 687 698 688
f 689 698 690
f 690 704 691
f 692 705 693
f 692 691 705
f 694 708 695
f 694 693 708
f 690 700 701
f 690 701 702
f 690 702 703
f 690 703 704
f 704 705 691
f 705 706 693
f 707 693 706
f 708 693 707
f 695 708 789
f 789 708 895
f 789 931 790
f 791 790 931
f 791 931 792
f 792 931 793
f 793 931 794
f 795 931 796
f 795 794 931
f 796 931 797
f 797 931 798
f 799 798 931
f 799 931 800
f 800 931 801
f 801 931 802
f 803 802 931
f 804 803 931
f 804 931 805
f 805 931 806
f 806 931 807
f 807 931 808
f 808 931 809
f 810 809 931
f 810 931 811
f 811 931 812
f 812 931 813
f 813 931 814
f 815 814 931
f 815 931 816
f 817 816 931
f 818 817 931
f 818 931 819
f 819 931 820
f 821 820 931
f 821 931 822
f 822 931 823
f 823 931 824
f 824 931 825
f 825 931 826
f 827 826 931
f 827 931 828
f 828 931 829
f 829 931 830
f 789 895 896
f 789 896 897
f 789 897 898
f 789 898 899
f 789 899 900
f 789 900 901
f 789 901 902
f 789 902 903
f 789 903 904
f 789 904 905
f 789 905 906
f 789 906 907
f 789 907 908
f 789 908 909
f 789 909 910
f 789 910 911
f 789 911 912
f 789 912 913
f 789 913 914
f 789 914 915
f 789 915 916
f 789 916 917
f 789 917 918
f 789 918 919
f 789 919 920
f 789 921 922
f 789 920 921
f 789 922 923
f 789 923 924
f 789 924 925
f 789 925 926
f 789 926 927
f 789 927 928
f 789 929 930
f 789 928 929
f 789 930 931
f 830 931 1013
f 931 1014 1013
f 931 1015 1014
f 931 1016 1015
f 931 1017 1016
f 931 1018 1017
f 931 1023 1024
f 931 1024 1025
f 931 1025 1026
f 931 1026 1027
f 931 1027 1028
f 931 1028 1030
f 931 1019 1018
f 931 1022 1021
f 931 1020 1019
f 931 1021 1020
f 931 1040 1038
f 931 1039 1022
f 931 1038 1039
f 931 1043 1044
f 931 1032 1031
f 931 1033 1034
f 931 1031 1033
f 931 1030 1029
f 931 1029 1032
f 931 1034 1035
f 931 1035 1037
f 931 1037 1036
f 931 1036 1041
f 931 1041 1042
f 931 1042 1043
f 931 1044 1040