# https://github.com/mikedh/trimesh
v -0.10555130 0.05497890 0.00000000
v -0.09746030 0.06051960 0.00000000
v -0.10001060 0.06306990 0.00000000
v -0.09849550 0.06117010 0.00000000
v -0.09936010 0.06203460 0.00000000
v -0.09630620 0.06011580 0.00000000
v -0.09509130 0.05997890 0.00000000
v -0.10041440 0.06422390 0.00000000
v -0.10055130 0.06543890 0.00000000
v -0.08321130 0.05997890 0.00000000
v -0.08199630 0.06011580 0.00000000
v -0.08084230 0.06051960 0.00000000
v -0.07980700 0.06117010 0.00000000
v -0.07894250 0.06203460 0.00000000
v -0.07829200 0.06306990 0.00000000
v -0.07788820 0.06422390 0.00000000
v -0.07775130 0.06543890 0.00000000
v -0.10555130 0.05497890 0.05000000
v -0.09746030 0.06051960 0.05000000
v -0.10001060 0.06306990 0.05000000
v -0.09849550 0.06117010 0.05000000
v -0.09936010 0.06203460 0.05000000
v -0.09630620 0.06011580 0.05000000
v -0.09509130 0.05997890 0.05000000
v -0.10041440 0.06422390 0.05000000
v -0.10055130 0.06543890 0.05000000
v -0.08321130 0.05997890 0.05000000
v -0.08199630 0.06011580 0.05000000
v -0.08084230 0.06051960 0.05000000
v -0.07980700 0.06117010 0.05000000
v -0.07894250 0.06203460 0.05000000
v -0.07829200 0.06306990 0.05000000
v -0.07788820 0.06422390 0.05000000
v -0.07775130 0.06543890 0.05000000
v -0.10055130 0.07731890 0.00000000
v -0.10041440 0.07853380 0.00000000
v -0.10001060 0.07968790 0.00000000
v -0.09936010 0.08072310 0.00000000
v -0.09849550 0.08158770 0.00000000
v -0.09746030 0.08223820 0.00000000
v -0.10555130 0.08777890 0.00000000
v -0.09630620 0.08264200 0.00000000
v -0.09509130 0.08277890 0.00000000
v -0.07775130 0.07731890 0.00000000
v -0.07788820 0.07853380 0.00000000
v -0.08321130 0.08277890 0.00000000
v -0.08199630 0.08264200 0.00000000
v -0.07894250 0.08072310 0.00000000
v -0.07980700 0.08158770 0.00000000
v -0.07829200 0.07968790 0.00000000
v -0.08084230 0.08223820 0.00000000
v -0.10055130 0.07731890 0.05000000
v -0.10041440 0.07853380 0.05000000
v -0.10001060 0.07968790 0.05000000
v -0.09936010 0.08072310 0.05000000
v -0.09849550 0.08158770 0.05000000
v -0.09746030 0.08223820 0.05000000
v -0.10555130 0.08777890 0.05000000
v -0.09630620 0.08264200 0.05000000
v -0.09509130 0.08277890 0.05000000
v -0.07775130 0.07731890 0.05000000
v -0.07788820 0.07853380 0.05000000
v -0.08321130 0.08277890 0.05000000
v -0.08199630 0.08264200 0.05000000
v -0.07894250 0.08072310 0.05000000
v -0.07980700 0.08158770 0.05000000
v -0.07829200 0.07968790 0.05000000
v -0.08084230 0.08223820 0.05000000
v -0.06302130 0.06228150 0.00000000
v -0.06123270 0.06117400 0.00000000
v -0.05927100 0.06041410 0.00000000
v -0.05720310 0.06002750 0.00000000
v -0.06457600 0.06369870 0.00000000
v -0.06678150 0.06726070 0.00000000
v -0.06584370 0.06537750 0.00000000
v -0.06735720 0.06928410 0.00000000
v -0.04899652 0.05497890 0.00000000
v -0.05509940 0.06002750 0.00000000
v -0.05303150 0.06041410 0.00000000
v -0.05106990 0.06117400 0.00000000
v -0.04928120 0.06228150 0.00000000
v -0.03981600 0.05497890 0.00000000
v -0.04772660 0.06369870 0.00000000
v -0.04645880 0.06537750 0.00000000
v -0.04552110 0.06726070 0.00000000
v -0.04494540 0.06928410 0.00000000
v -0.06302130 0.06228150 0.05000000
v -0.06123270 0.06117400 0.05000000
v -0.05927100 0.06041410 0.05000000
v -0.05720310 0.06002750 0.05000000
v -0.06457600 0.06369870 0.05000000
v -0.06678150 0.06726070 0.05000000
v -0.06584370 0.06537750 0.05000000
v -0.06735720 0.06928410 0.05000000
v -0.05509940 0.06002750 0.05000000
v -0.05303150 0.06041410 0.05000000
v -0.05106990 0.06117400 0.05000000
v -0.04928120 0.06228150 0.05000000
v -0.04630300 0.05497890 0.05000000
v -0.03981600 0.05497890 0.05000000
v -0.04772660 0.06369870 0.05000000
v -0.04645880 0.06537750 0.05000000
v -0.04552110 0.06726070 0.05000000
v -0.04494540 0.06928410 0.05000000
v -0.06755130 0.07137890 0.00000000
v -0.06735720 0.07347360 0.00000000
v -0.06678150 0.07549700 0.00000000
v -0.06584370 0.07738020 0.00000000
v -0.06457600 0.07905900 0.00000000
v -0.06302130 0.08047630 0.00000000
v -0.06123270 0.08158370 0.00000000
v -0.05927100 0.08234370 0.00000000
v -0.05720310 0.08273020 0.00000000
v -0.04475130 0.07137890 0.00000000
v -0.04494540 0.07347360 0.00000000
v -0.04645880 0.07738020 0.00000000
v -0.04552110 0.07549700 0.00000000
v -0.04772660 0.07905900 0.00000000
v -0.05509940 0.08273020 0.00000000
v -0.05303150 0.08234370 0.00000000
v -0.05106990 0.08158370 0.00000000
v -0.04928120 0.08047630 0.00000000
v -0.03981600 0.08777890 0.00000000
v -0.06755130 0.07137890 0.05000000
v -0.06735720 0.07347360 0.05000000
v -0.06678150 0.07549700 0.05000000
v -0.06584370 0.07738020 0.05000000
v -0.06457600 0.07905900 0.05000000
v -0.06302130 0.08047630 0.05000000
v -0.06123270 0.08158370 0.05000000
v -0.05927100 0.08234370 0.05000000
v -0.05720310 0.08273020 0.05000000
v -0.04475130 0.07137890 0.05000000
v -0.04494540 0.07347360 0.05000000
v -0.04645880 0.07738020 0.05000000
v -0.04552110 0.07549700 0.05000000
v -0.04772660 0.07905900 0.05000000
v -0.05509940 0.08273020 0.05000000
v -0.05303150 0.08234370 0.05000000
v -0.05106990 0.08158370 0.05000000
v -0.04928120 0.08047630 0.05000000
v -0.03981600 0.08346748 0.05000000
v -0.03981600 0.08777890 0.05000000
f 2 1 4
f 2 6 1
f 6 7 1
f 5 1 3
f 3 1 8
f 5 4 1
f 7 10 1
f 10 11 1
f 2 4 21
f 5 3 20
f 5 22 4
f 6 23 7
f 2 19 6
f 8 1 41
f 3 8 25
f 8 9 26
f 9 35 26
f 11 77 1
f 12 13 70
f 13 14 69
f 14 15 73
f 7 27 10
f 10 27 11
f 11 28 12
f 12 29 13
f 13 30 14
f 14 31 15
f 15 16 75
f 16 17 74
f 17 44 105
f 15 32 16
f 16 33 17
f 2 21 19
f 5 20 22
f 4 22 21
f 7 23 24
f 6 19 23
f 7 24 27
f 19 21 18
f 19 18 23
f 23 18 24
f 22 20 18
f 20 25 18
f 25 26 18
f 22 18 21
f 24 18 27
f 27 18 28
f 3 25 20
f 8 26 25
f 26 52 18
f 11 27 28
f 12 28 29
f 13 29 30
f 14 30 31
f 15 31 32
f 28 18 99
f 29 88 30
f 30 87 31
f 31 91 32
f 16 32 33
f 17 33 34
f 17 34 61
f 32 93 33
f 33 92 34
f 34 124 61
f 8 41 9
f 9 41 35
f 35 36 53
f 36 37 54
f 35 41 36
f 36 41 37
f 37 41 38
f 38 41 39
f 39 41 40
f 40 41 42
f 42 41 43
f 43 41 46
f 46 41 47
f 37 38 55
f 38 39 56
f 39 40 57
f 40 42 59
f 42 43 60
f 43 46 60
f 44 45 107
f 45 50 108
f 17 61 44
f 44 62 45
f 45 67 50
f 47 41 112
f 50 48 109
f 49 110 48
f 51 111 49
f 47 112 51
f 112 41 113
f 47 51 64
f 46 47 63
f 49 48 66
f 50 65 48
f 51 49 68
f 35 52 26
f 35 53 52
f 36 54 53
f 52 58 18
f 37 55 54
f 38 56 55
f 39 57 56
f 40 59 57
f 42 60 59
f 52 53 58
f 53 54 58
f 54 55 58
f 55 56 58
f 56 57 58
f 57 59 58
f 59 60 58
f 60 63 58
f 63 64 58
f 44 61 62
f 45 62 67
f 61 126 62
f 62 127 67
f 46 63 60
f 51 68 64
f 47 64 63
f 48 65 66
f 50 67 65
f 49 66 68
f 64 131 58
f 67 128 65
f 66 65 129
f 68 66 130
f 64 68 131
f 131 132 58
f 11 12 77
f 14 73 69
f 13 69 70
f 12 70 77
f 70 71 77
f 69 73 87
f 69 88 70
f 70 89 71
f 71 90 72
f 15 75 73
f 16 74 75
f 17 76 74
f 17 105 76
f 75 91 73
f 74 93 75
f 74 76 92
f 76 105 94
f 71 72 77
f 72 78 77
f 78 79 77
f 79 80 77
f 80 82 77
f 80 81 82
f 81 83 82
f 83 84 82
f 84 85 82
f 72 95 78
f 78 96 79
f 79 97 80
f 80 98 81
f 85 86 82
f 86 114 82
f 114 115 82
f 81 101 83
f 83 102 84
f 84 103 85
f 85 104 86
f 86 133 114
f 70 88 89
f 69 87 88
f 71 89 90
f 72 90 95
f 28 99 29
f 31 87 91
f 30 88 87
f 29 99 88
f 75 93 91
f 74 92 93
f 76 94 92
f 105 124 94
f 73 91 87
f 32 91 93
f 33 93 92
f 34 92 94
f 34 94 124
f 78 95 96
f 79 96 97
f 80 97 98
f 81 98 101
f 88 99 89
f 89 99 90
f 90 99 95
f 95 99 96
f 96 99 97
f 97 99 100
f 97 100 98
f 98 100 101
f 101 100 102
f 102 100 103
f 83 101 102
f 84 102 103
f 85 103 104
f 86 104 133
f 103 100 142
f 44 106 105
f 44 107 106
f 45 108 107
f 50 109 108
f 105 106 124
f 106 107 125
f 107 108 126
f 108 109 127
f 109 110 128
f 48 110 109
f 49 111 110
f 51 112 111
f 113 41 119
f 119 41 123
f 110 111 129
f 111 112 130
f 112 113 131
f 113 119 132
f 115 123 82
f 115 117 123
f 114 134 115
f 115 136 117
f 117 135 116
f 118 116 137
f 119 123 120
f 117 116 123
f 118 123 116
f 121 123 122
f 118 122 123
f 120 123 121
f 119 120 138
f 120 121 139
f 121 122 140
f 118 141 122
f 106 125 124
f 107 126 125
f 108 127 126
f 109 128 127
f 61 124 125
f 61 125 126
f 62 126 127
f 67 127 128
f 110 129 128
f 111 130 129
f 112 131 130
f 113 132 131
f 65 128 129
f 66 129 130
f 68 130 131
f 132 138 58
f 138 143 58
f 118 137 141
f 114 133 134
f 115 134 136
f 117 136 135
f 116 135 137
f 103 142 104
f 104 142 133
f 136 142 135
f 133 142 134
f 134 142 136
f 119 138 132
f 120 139 138
f 122 141 140
f 121 140 139
f 138 139 142
f 137 135 142
f 137 142 141
f 139 140 142
f 140 141 142
f 138 142 143
f 1 18 41
f 77 18 1
f 41 58 123
f 18 58 41
f 77 82 100
f 82 123 100
f 18 77 99
f 99 77 100
f 58 143 123
f 142 100 123
f 143 142 123