# https://github.com/mikedh/trimesh
v -0.03439557 -0.02241567 0.00000000
v -0.02479880 -0.00922380 0.00000000
v -0.02285790 -0.01136970 0.00000000
v -0.02869040 -0.00152250 0.00000000
v -0.02946000 0.00420000 0.00000000
v -0.02926670 0.00131300 0.00000000
v -0.02643630 -0.00683830 0.00000000
v -0.02774130 -0.00425580 0.00000000
v -0.01558480 -0.01601270 0.00000000
v -0.02064830 -0.01323780 0.00000000
v -0.01820940 -0.01479470 0.00000000
v -0.01282120 -0.01687000 0.00000000
v -0.00996810 -0.01735120 0.00000000
v -0.03439557 -0.02241567 0.05000000
v -0.02479880 -0.00922380 0.05000000
v -0.02285790 -0.01136970 0.05000000
v -0.02869040 -0.00152250 0.05000000
v -0.02946000 0.00420000 0.05000000
v -0.02926670 0.00131300 0.05000000
v -0.02643630 -0.00683830 0.05000000
v -0.02774130 -0.00425580 0.05000000
v -0.01558480 -0.01601270 0.05000000
v -0.02064830 -0.01323780 0.05000000
v -0.01820940 -0.01479470 0.05000000
v -0.01282120 -0.01687000 0.05000000
v -0.00996810 -0.01735120 0.05000000
v -0.02926670 0.00708700 0.00000000
v -0.02869040 0.00992250 0.00000000
v -0.02774130 0.01265580 0.00000000
v -0.02643630 0.01523830 0.00000000
v -0.03439557 0.03081567 0.00000000
v -0.02479880 0.01762380 0.00000000
v -0.02285790 0.01976970 0.00000000
v -0.02064830 0.02163780 0.00000000
v -0.01820940 0.02319470 0.00000000
v -0.01558480 0.02441270 0.00000000
v -0.01282120 0.02527000 0.00000000
v -0.00996810 0.02575120 0.00000000
v -0.02926670 0.00708700 0.05000000
v -0.02869040 0.00992250 0.05000000
v -0.02774130 0.01265580 0.05000000
v -0.02643630 0.01523830 0.05000000
v -0.03439557 0.03081567 0.05000000
v -0.02479880 0.01762380 0.05000000
v -0.02285790 0.01976970 0.05000000
v -0.02064830 0.02163780 0.05000000
v -0.01820940 0.02319470 0.05000000
v -0.01558480 0.02441270 0.05000000
v -0.01282120 0.02527000 0.05000000
v -0.00996810 0.02575120 0.05000000
v -0.00707620 -0.01744790 0.00000000
v -0.00419730 -0.01715830 0.00000000
v -0.00138270 -0.01648750 0.00000000
v 0.00131740 -0.01544760 0.00000000
v 0.00385490 -0.01405700 0.00000000
v 0.00618430 -0.01234070 0.00000000
v 0.00826420 -0.01032920 0.00000000
v 0.01881160 -0.02241567 0.00000000
v 0.01005740 -0.00805840 0.00000000
v 0.01153200 -0.00556890 0.00000000
v 0.01266150 -0.00290500 0.00000000
v 0.01342600 -0.00011440 0.00000000
v 0.01381160 0.00275330 0.00000000
v -0.00707620 -0.01744790 0.05000000
v -0.00419730 -0.01715830 0.05000000
v -0.00138270 -0.01648750 0.05000000
v 0.00131740 -0.01544760 0.05000000
v 0.00385490 -0.01405700 0.05000000
v 0.00618430 -0.01234070 0.05000000
v 0.00826420 -0.01032920 0.05000000
v 0.01881160 -0.02241567 0.05000000
v 0.01005740 -0.00805840 0.05000000
v 0.01153200 -0.00556890 0.05000000
v 0.01266150 -0.00290500 0.05000000
v 0.01342600 -0.00011440 0.05000000
v 0.01381160 0.00275330 0.05000000
v -0.00707620 0.02584790 0.00000000
v -0.00419730 0.02555830 0.00000000
v -0.00138270 0.02488750 0.00000000
v 0.00131740 0.02384760 0.00000000
v 0.00385490 0.02245700 0.00000000
v 0.01153200 0.01396890 0.00000000
v 0.01005740 0.01645840 0.00000000
v 0.01381160 0.00564670 0.00000000
v 0.01342600 0.00851440 0.00000000
v 0.01266150 0.01130500 0.00000000
v 0.00618430 0.02074070 0.00000000
v 0.00826420 0.01872920 0.00000000
v 0.01881160 0.03081567 0.00000000
v -0.00707620 0.02584790 0.05000000
v -0.00419730 0.02555830 0.05000000
v -0.00138270 0.02488750 0.05000000
v 0.00131740 0.02384760 0.05000000
v 0.00385490 0.02245700 0.05000000
v 0.01153200 0.01396890 0.05000000
v 0.01005740 0.01645840 0.05000000
v 0.01381160 0.00564670 0.05000000
v 0.01342600 0.00851440 0.05000000
v 0.01266150 0.01130500 0.05000000
v 0.01881160 0.01358873 0.05000000
v 0.00618430 0.02074070 0.05000000
v 0.00826420 0.01872920 0.05000000
v 0.01881160 0.03081567 0.05000000
f 2 1 7
f 8 7 1
f 8 1 4
f 11 1 10
f 11 9 1
f 3 1 2
f 3 10 1
f 3 2 15
f 3 16 10
f 4 1 6
f 6 1 31
f 8 4 17
f 4 6 19
f 6 5 18
f 2 7 20
f 8 21 7
f 9 12 1
f 12 13 1
f 13 51 1
f 51 52 1
f 11 10 23
f 11 22 9
f 9 25 12
f 12 26 13
f 13 64 51
f 10 16 23
f 3 15 16
f 15 20 14
f 21 14 20
f 21 17 14
f 24 23 14
f 24 14 22
f 16 15 14
f 16 14 23
f 8 17 21
f 4 19 17
f 6 18 19
f 7 21 20
f 2 20 15
f 17 19 14
f 19 18 14
f 18 39 14
f 9 22 25
f 11 23 24
f 11 24 22
f 12 25 26
f 13 26 64
f 22 14 25
f 25 14 26
f 26 14 64
f 6 31 5
f 5 31 27
f 27 31 28
f 5 27 18
f 27 28 39
f 28 29 41
f 29 30 41
f 30 32 44
f 28 31 29
f 29 31 30
f 30 31 32
f 32 31 33
f 33 31 34
f 34 31 35
f 35 31 36
f 32 33 44
f 33 34 45
f 36 31 37
f 37 31 89
f 34 35 47
f 35 36 47
f 36 37 48
f 37 38 49
f 38 77 50
f 27 39 18
f 28 40 39
f 28 41 40
f 30 42 41
f 30 44 42
f 39 43 14
f 39 40 43
f 33 45 44
f 34 46 45
f 40 41 43
f 41 42 43
f 42 44 43
f 44 45 43
f 45 46 43
f 46 47 43
f 47 48 43
f 34 47 46
f 36 48 47
f 37 49 48
f 38 50 49
f 77 90 50
f 48 49 43
f 49 50 43
f 50 90 43
f 90 91 43
f 52 58 1
f 52 53 58
f 51 65 52
f 52 66 53
f 53 67 54
f 54 68 55
f 55 69 56
f 53 54 58
f 54 55 58
f 55 56 58
f 56 57 58
f 57 59 58
f 59 60 58
f 60 61 58
f 56 70 57
f 61 62 58
f 62 63 58
f 63 84 58
f 84 85 58
f 57 72 59
f 59 73 60
f 60 74 61
f 61 75 62
f 62 76 63
f 51 64 65
f 52 65 66
f 53 66 67
f 54 67 68
f 55 68 69
f 64 14 71
f 64 71 65
f 65 71 66
f 56 69 70
f 57 70 72
f 66 71 67
f 67 71 68
f 68 71 69
f 69 71 70
f 70 71 72
f 72 71 73
f 73 71 74
f 59 72 73
f 60 73 74
f 61 74 75
f 62 75 76
f 63 76 97
f 74 71 100
f 74 100 75
f 37 89 38
f 38 89 77
f 77 89 78
f 78 89 79
f 77 78 90
f 78 79 91
f 80 81 93
f 87 94 81
f 79 80 92
f 85 89 58
f 85 86 89
f 82 86 95
f 82 96 83
f 63 97 84
f 84 98 85
f 85 98 86
f 87 89 88
f 79 89 80
f 80 89 81
f 87 81 89
f 82 83 89
f 82 89 86
f 83 88 89
f 87 88 101
f 83 102 88
f 78 91 90
f 79 92 91
f 81 94 93
f 87 101 94
f 92 80 93
f 91 103 43
f 91 92 103
f 83 96 102
f 82 95 96
f 84 97 98
f 86 98 99
f 86 99 95
f 75 100 76
f 76 100 97
f 97 100 98
f 98 100 99
f 95 99 100
f 88 102 101
f 101 102 103
f 92 93 103
f 93 94 103
f 101 103 94
f 95 103 96
f 96 103 102
f 95 100 103
f 58 14 1
f 43 1 14
f 1 43 31
f 43 103 31
f 58 89 71
f 14 58 71
f 89 31 103
f 100 71 89
f 103 100 89