# https://github.com/mikedh/trimesh
v 0.03178300 -0.01352150 0.00000000
v 0.03985110 -0.00842250 0.00000000
v 0.03826880 -0.00766050 0.00000000
v 0.03901710 -0.00813070 0.00000000
v 0.03764400 -0.00703570 0.00000000
v 0.03717380 -0.00628740 0.00000000
v 0.03688200 -0.00545330 0.00000000
v 0.04072930 -0.00852150 0.00000000
v 0.03678300 -0.00457520 0.00000000
v 0.05622210 -0.00852150 0.00000000
v 0.05710020 -0.00842250 0.00000000
v 0.05793430 -0.00813070 0.00000000
v 0.05868260 -0.00766050 0.00000000
v 0.05930740 -0.00703570 0.00000000
v 0.05977760 -0.00628740 0.00000000
v 0.06006940 -0.00545330 0.00000000
v 0.06016840 -0.00457520 0.00000000
v 0.03178300 -0.01352150 0.05000000
v 0.03985110 -0.00842250 0.05000000
v 0.03826880 -0.00766050 0.05000000
v 0.03901710 -0.00813070 0.05000000
v 0.03764400 -0.00703570 0.05000000
v 0.03717380 -0.00628740 0.05000000
v 0.03688200 -0.00545330 0.05000000
v 0.04072930 -0.00852150 0.05000000
v 0.03678300 -0.00457520 0.05000000
v 0.05622210 -0.00852150 0.05000000
v 0.05710020 -0.00842250 0.05000000
v 0.05793430 -0.00813070 0.05000000
v 0.05868260 -0.00766050 0.05000000
v 0.05930740 -0.00703570 0.05000000
v 0.05977760 -0.00628740 0.05000000
v 0.06006940 -0.00545330 0.05000000
v 0.06016840 -0.00457520 0.05000000
v 0.03678300 0.01091760 0.00000000
v 0.03688200 0.01179580 0.00000000
v 0.03717380 0.01262980 0.00000000
v 0.03764400 0.01337810 0.00000000
v 0.03826880 0.01400290 0.00000000
v 0.03901710 0.01447310 0.00000000
v 0.03985110 0.01476490 0.00000000
v 0.03178300 0.01986390 0.00000000
v 0.04072930 0.01486390 0.00000000
v 0.06016840 0.01091760 0.00000000
v 0.05622210 0.01486390 0.00000000
v 0.06006940 0.01179580 0.00000000
v 0.05930740 0.01337810 0.00000000
v 0.05977760 0.01262980 0.00000000
v 0.05793430 0.01447310 0.00000000
v 0.05710020 0.01476490 0.00000000
v 0.05868260 0.01400290 0.00000000
v 0.03678300 0.01091760 0.05000000
v 0.03688200 0.01179580 0.05000000
v 0.03717380 0.01262980 0.05000000
v 0.03764400 0.01337810 0.05000000
v 0.03826880 0.01400290 0.05000000
v 0.03901710 0.01447310 0.05000000
v 0.03985110 0.01476490 0.05000000
v 0.03178300 0.01986390 0.05000000
v 0.04072930 0.01486390 0.05000000
v 0.06016840 0.01091760 0.05000000
v 0.05622210 0.01486390 0.05000000
v 0.06006940 0.01179580 0.05000000
v 0.05930740 0.01337810 0.05000000
v 0.05977760 0.01262980 0.05000000
v 0.05793430 0.01447310 0.05000000
v 0.05710020 0.01476490 0.05000000
v 0.05868260 0.01400290 0.05000000
v 0.07088540 -0.00766050 0.00000000
v 0.07246770 -0.00842250 0.00000000
v 0.07163360 -0.00813070 0.00000000
v 0.06979040 -0.00628740 0.00000000
v 0.07026050 -0.00703570 0.00000000
v 0.06949850 -0.00545330 0.00000000
v 0.07334580 -0.00852150 0.00000000
v 0.06939960 -0.00457520 0.00000000
v 0.08883870 -0.00852150 0.00000000
v 0.09778490 -0.01352150 0.00000000
v 0.08971680 -0.00842250 0.00000000
v 0.09055090 -0.00813070 0.00000000
v 0.09129910 -0.00766050 0.00000000
v 0.09192400 -0.00703570 0.00000000
v 0.09239410 -0.00628740 0.00000000
v 0.09268600 -0.00545330 0.00000000
v 0.09278490 -0.00457520 0.00000000
v 0.07088540 -0.00766050 0.05000000
v 0.07246770 -0.00842250 0.05000000
v 0.07163360 -0.00813070 0.05000000
v 0.06979040 -0.00628740 0.05000000
v 0.07026050 -0.00703570 0.05000000
v 0.06949850 -0.00545330 0.05000000
v 0.07334580 -0.00852150 0.05000000
v 0.06939960 -0.00457520 0.05000000
v 0.08883870 -0.00852150 0.05000000
v 0.09778490 -0.01352150 0.05000000
v 0.08971680 -0.00842250 0.05000000
v 0.09055090 -0.00813070 0.05000000
v 0.09129910 -0.00766050 0.05000000
v 0.09192400 -0.00703570 0.05000000
v 0.09239410 -0.00628740 0.05000000
v 0.09268600 -0.00545330 0.05000000
v 0.09278490 -0.00457520 0.05000000
v 0.06939960 0.01091760 0.00000000
v 0.06949850 0.01179580 0.00000000
v 0.06979040 0.01262980 0.00000000
v 0.07026050 0.01337810 0.00000000
v 0.07088540 0.01400290 0.00000000
v 0.07163360 0.01447310 0.00000000
v 0.07246770 0.01476490 0.00000000
v 0.07334580 0.01486390 0.00000000
v 0.09278490 0.01091760 0.00000000
v 0.08883870 0.01486390 0.00000000
v 0.09268600 0.01179580 0.00000000
v 0.09239410 0.01262980 0.00000000
v 0.09192400 0.01337810 0.00000000
v 0.09055090 0.01447310 0.00000000
v 0.09129910 0.01400290 0.00000000
v 0.08971680 0.01476490 0.00000000
v 0.09778490 0.01986390 0.00000000
v 0.06939960 0.01091760 0.05000000
v 0.06949850 0.01179580 0.05000000
v 0.06979040 0.01262980 0.05000000
v 0.07026050 0.01337810 0.05000000
v 0.07088540 0.01400290 0.05000000
v 0.07163360 0.01447310 0.05000000
v 0.07246770 0.01476490 0.05000000
v 0.07334580 0.01486390 0.05000000
v 0.09278490 0.01091760 0.05000000
v 0.08883870 0.01486390 0.05000000
v 0.09268600 0.01179580 0.05000000
v 0.09239410 0.01262980 0.05000000
v 0.09192400 0.01337810 0.05000000
v 0.09055090 0.01447310 0.05000000
v 0.09129910 0.01400290 0.05000000
v 0.08971680 0.01476490 0.05000000
v 0.09778490 0.01986390 0.05000000
f 3 1 5
f 4 2 1
f 3 4 1
f 2 8 1
f 5 1 6
f 6 1 7
f 7 1 9
f 8 10 1
f 3 20 4
f 4 21 2
f 3 5 22
f 5 6 23
f 6 7 24
f 2 19 8
f 9 1 42
f 7 9 26
f 9 35 26
f 10 11 1
f 11 70 1
f 70 75 1
f 75 77 1
f 11 12 71
f 12 13 71
f 13 14 73
f 14 15 72
f 15 16 74
f 8 27 10
f 10 28 11
f 11 29 12
f 12 30 13
f 13 31 14
f 14 31 15
f 15 32 16
f 16 17 76
f 16 34 17
f 2 21 19
f 4 20 21
f 3 22 20
f 5 23 22
f 6 24 23
f 8 19 25
f 8 25 27
f 20 22 18
f 21 18 19
f 20 18 21
f 19 18 25
f 22 23 18
f 23 24 18
f 24 26 18
f 7 26 24
f 26 52 18
f 52 53 18
f 10 27 28
f 11 28 29
f 12 29 30
f 13 30 31
f 15 31 32
f 16 32 33
f 25 18 95
f 28 87 29
f 29 88 30
f 30 86 31
f 31 89 32
f 32 91 33
f 16 33 34
f 17 34 61
f 33 91 34
f 34 93 61
f 9 42 35
f 35 36 52
f 35 42 36
f 36 42 37
f 37 42 38
f 38 42 39
f 39 42 40
f 40 42 41
f 41 42 43
f 36 37 53
f 37 38 54
f 38 39 55
f 39 40 56
f 40 41 57
f 41 43 60
f 43 45 60
f 17 44 103
f 44 46 104
f 17 61 44
f 44 63 46
f 46 48 104
f 47 106 48
f 51 49 107
f 50 109 49
f 51 107 47
f 43 42 119
f 45 50 62
f 46 65 48
f 47 48 64
f 51 66 49
f 50 49 67
f 51 47 68
f 26 35 52
f 36 53 52
f 53 59 18
f 37 54 53
f 38 55 54
f 39 56 55
f 40 57 56
f 41 58 57
f 41 60 58
f 53 54 59
f 54 55 59
f 55 56 59
f 56 57 59
f 57 58 59
f 58 60 59
f 60 62 59
f 44 61 63
f 61 121 63
f 45 62 60
f 46 63 65
f 48 65 64
f 47 64 68
f 49 66 67
f 51 68 66
f 50 67 62
f 62 67 59
f 67 126 59
f 63 122 65
f 64 65 122
f 68 64 123
f 67 66 126
f 68 125 66
f 126 127 59
f 127 129 59
f 77 78 1
f 13 73 69
f 11 71 70
f 13 69 71
f 14 72 73
f 15 74 72
f 70 87 75
f 69 86 71
f 71 88 70
f 69 73 90
f 72 89 73
f 74 91 72
f 16 76 74
f 17 103 76
f 74 76 93
f 76 103 93
f 77 79 78
f 79 80 78
f 80 81 78
f 81 82 78
f 82 83 78
f 83 84 78
f 84 85 78
f 75 94 77
f 77 96 79
f 79 96 80
f 80 98 81
f 81 99 82
f 82 100 83
f 83 100 84
f 85 119 78
f 84 102 85
f 69 90 86
f 70 88 87
f 71 86 88
f 73 89 90
f 72 91 89
f 75 87 92
f 75 92 94
f 25 95 27
f 27 95 28
f 29 87 88
f 30 88 86
f 31 86 90
f 31 90 89
f 32 89 91
f 28 95 87
f 87 95 92
f 74 93 91
f 34 91 93
f 77 94 96
f 80 96 97
f 80 97 98
f 81 98 99
f 82 99 100
f 84 100 101
f 92 95 94
f 94 95 96
f 96 95 97
f 97 95 98
f 98 95 99
f 99 95 100
f 100 95 101
f 101 95 102
f 84 101 102
f 85 102 128
f 102 95 136
f 44 104 103
f 103 104 120
f 48 105 104
f 48 106 105
f 47 107 106
f 107 49 108
f 49 109 108
f 43 119 45
f 45 119 50
f 50 119 109
f 109 119 110
f 104 105 121
f 105 106 122
f 106 107 123
f 107 108 124
f 108 109 125
f 109 110 127
f 110 112 127
f 85 111 119
f 85 128 111
f 111 130 113
f 110 119 112
f 111 113 119
f 113 114 119
f 115 119 114
f 112 119 118
f 117 116 119
f 118 119 116
f 117 119 115
f 112 118 129
f 113 131 114
f 115 114 132
f 117 115 134
f 117 133 116
f 118 116 135
f 93 103 120
f 104 121 120
f 93 120 61
f 61 120 121
f 105 122 121
f 106 123 122
f 107 124 123
f 108 125 124
f 109 126 125
f 109 127 126
f 63 121 122
f 64 122 123
f 68 123 124
f 68 124 125
f 66 125 126
f 129 136 59
f 111 128 130
f 102 136 128
f 112 129 127
f 118 135 129
f 113 130 131
f 114 131 132
f 115 132 134
f 116 133 135
f 117 134 133
f 128 136 130
f 130 136 131
f 132 131 136
f 129 135 136
f 134 136 133
f 135 133 136
f 134 132 136
f 78 18 1
f 59 1 18
f 1 59 42
f 59 136 42
f 18 78 95
f 78 136 95
f 119 42 136
f 78 119 136