# https://github.com/mikedh/trimesh
v 0.03664830 -0.09409107 0.00000000
v 0.04208210 -0.08661148 0.00000000
v 0.04329740 -0.08813549 0.00000000
v 0.04412790 -0.08865732 0.00000000
v 0.04260390 -0.08744196 0.00000000
v 0.04175810 -0.08568571 0.00000000
v 0.04164830 -0.08471107 0.00000000
v 0.04505370 -0.08898126 0.00000000
v 0.04602830 -0.08909107 0.00000000
v 0.04913710 -0.08909107 0.00000000
v 0.05015860 -0.08897030 0.00000000
v 0.05112370 -0.08861466 0.00000000
v 0.05197920 -0.08804375 0.00000000
v 0.05267810 -0.08728906 0.00000000
v 0.05318170 -0.08639221 0.00000000
v 0.05346220 -0.08540265 0.00000000
v 0.05401260 -0.08316934 0.00000000
v 0.05492470 -0.08105781 0.00000000
v 0.05617350 -0.07912621 0.00000000
v 0.05772460 -0.07742774 0.00000000
v 0.05953520 -0.07600918 0.00000000
v 0.06155550 -0.07490960 0.00000000
v 0.06372980 -0.07415927 0.00000000
v 0.06599830 -0.07377887 0.00000000
v 0.03664830 -0.09409107 0.05000000
v 0.04208210 -0.08661148 0.05000000
v 0.04329740 -0.08813549 0.05000000
v 0.04412790 -0.08865732 0.05000000
v 0.04260390 -0.08744196 0.05000000
v 0.04175810 -0.08568571 0.05000000
v 0.04164830 -0.08471107 0.05000000
v 0.04505370 -0.08898126 0.05000000
v 0.04602830 -0.08909107 0.05000000
v 0.04913710 -0.08909107 0.05000000
v 0.05015860 -0.08897030 0.05000000
v 0.05112370 -0.08861466 0.05000000
v 0.05197920 -0.08804375 0.05000000
v 0.05267810 -0.08728906 0.05000000
v 0.05318170 -0.08639221 0.05000000
v 0.05346220 -0.08540265 0.05000000
v 0.05401260 -0.08316934 0.05000000
v 0.05492470 -0.08105781 0.05000000
v 0.05617350 -0.07912621 0.05000000
v 0.05772460 -0.07742774 0.05000000
v 0.05953520 -0.07600918 0.05000000
v 0.06155550 -0.07490960 0.05000000
v 0.06372980 -0.07415927 0.05000000
v 0.06599830 -0.07377887 0.05000000
v 0.04164830 -0.06167107 0.00000000
v 0.04175810 -0.06069643 0.00000000
v 0.04208210 -0.05977066 0.00000000
v 0.04260390 -0.05894019 0.00000000
v 0.04329740 -0.05824665 0.00000000
v 0.04412790 -0.05772483 0.00000000
v 0.03664830 -0.05229107 0.00000000
v 0.04505370 -0.05740089 0.00000000
v 0.04602830 -0.05729107 0.00000000
v 0.04164830 -0.06167107 0.05000000
v 0.04175810 -0.06069643 0.05000000
v 0.04208210 -0.05977066 0.05000000
v 0.04260390 -0.05894019 0.05000000
v 0.04329740 -0.05824665 0.05000000
v 0.04412790 -0.05772483 0.05000000
v 0.03664830 -0.05229107 0.05000000
v 0.04505370 -0.05740089 0.05000000
v 0.04602830 -0.05729107 0.05000000
v 0.08231740 -0.08804375 0.00000000
v 0.08111500 -0.08639221 0.00000000
v 0.08161860 -0.08728906 0.00000000
v 0.08083450 -0.08540265 0.00000000
v 0.06829840 -0.07377887 0.00000000
v 0.07056680 -0.07415927 0.00000000
v 0.07476140 -0.07600918 0.00000000
v 0.07274120 -0.07490960 0.00000000
v 0.07812310 -0.07912621 0.00000000
v 0.08028410 -0.08316934 0.00000000
v 0.07937190 -0.08105781 0.00000000
v 0.07657200 -0.07742774 0.00000000
v 0.08413810 -0.08897030 0.00000000
v 0.08515950 -0.08909107 0.00000000
v 0.08826830 -0.08909107 0.00000000
v 0.08924300 -0.08898126 0.00000000
v 0.08317300 -0.08861466 0.00000000
v 0.09764830 -0.09409107 0.00000000
v 0.09016870 -0.08865732 0.00000000
v 0.09099920 -0.08813549 0.00000000
v 0.09169270 -0.08744196 0.00000000
v 0.09221460 -0.08661148 0.00000000
v 0.09253850 -0.08568571 0.00000000
v 0.09264830 -0.08471107 0.00000000
v 0.08231740 -0.08804375 0.05000000
v 0.08111500 -0.08639221 0.05000000
v 0.08161860 -0.08728906 0.05000000
v 0.08083450 -0.08540265 0.05000000
v 0.06829840 -0.07377887 0.05000000
v 0.07056680 -0.07415927 0.05000000
v 0.07476140 -0.07600918 0.05000000
v 0.07274120 -0.07490960 0.05000000
v 0.07812310 -0.07912621 0.05000000
v 0.08028410 -0.08316934 0.05000000
v 0.07937190 -0.08105781 0.05000000
v 0.07657200 -0.07742774 0.05000000
v 0.08413810 -0.08897030 0.05000000
v 0.08515950 -0.08909107 0.05000000
v 0.08826830 -0.08909107 0.05000000
v 0.08924300 -0.08898126 0.05000000
v 0.08317300 -0.08861466 0.05000000
v 0.09764830 -0.09409107 0.05000000
v 0.09016870 -0.08865732 0.05000000
v 0.09099920 -0.08813549 0.05000000
v 0.09169270 -0.08744196 0.05000000
v 0.09221460 -0.08661148 0.05000000
v 0.09253850 -0.08568571 0.05000000
v 0.09264830 -0.08471107 0.05000000
v 0.08826830 -0.05729107 0.00000000
v 0.08924300 -0.05740089 0.00000000
v 0.09264830 -0.06167107 0.00000000
v 0.09253850 -0.06069643 0.00000000
v 0.09169270 -0.05894019 0.00000000
v 0.09016870 -0.05772483 0.00000000
v 0.09099920 -0.05824665 0.00000000
v 0.09221460 -0.05977066 0.00000000
v 0.09764830 -0.05229107 0.00000000
v 0.08826830 -0.05729107 0.05000000
v 0.08924300 -0.05740089 0.05000000
v 0.09264830 -0.06167107 0.05000000
v 0.09253850 -0.06069643 0.05000000
v 0.09169270 -0.05894019 0.05000000
v 0.09016870 -0.05772483 0.05000000
v 0.09099920 -0.05824665 0.05000000
v 0.09221460 -0.05977066 0.05000000
v 0.09764830 -0.05229107 0.05000000
f 2 5 1
f 3 4 1
f 4 8 1
f 5 3 1
f 8 9 1
f 9 10 1
f 2 1 6
f 6 1 7
f 10 11 1
f 5 27 3
f 3 28 4
f 2 29 5
f 2 6 30
f 6 7 30
f 4 32 8
f 8 33 9
f 9 34 10
f 10 35 11
f 11 36 12
f 12 37 13
f 7 1 55
f 7 49 31
f 11 79 1
f 11 12 79
f 12 13 83
f 13 14 69
f 14 15 68
f 15 16 68
f 13 38 14
f 14 39 15
f 15 40 16
f 16 41 17
f 16 17 21
f 17 18 21
f 18 19 20
f 16 21 23
f 18 20 21
f 16 72 78
f 16 23 24
f 16 24 71
f 21 22 23
f 16 71 72
f 17 41 18
f 18 43 19
f 19 43 20
f 20 44 21
f 21 46 22
f 22 47 23
f 23 47 24
f 2 26 29
f 2 30 26
f 5 29 27
f 3 27 28
f 7 31 30
f 8 32 33
f 9 33 34
f 10 34 35
f 4 28 32
f 11 35 36
f 12 36 37
f 26 25 29
f 27 25 28
f 28 25 32
f 29 25 27
f 32 25 33
f 33 25 34
f 26 30 25
f 30 31 25
f 34 25 35
f 31 58 25
f 13 37 38
f 14 38 39
f 15 39 40
f 16 40 41
f 35 25 103
f 35 103 36
f 36 107 37
f 37 93 38
f 38 92 39
f 39 94 40
f 18 41 42
f 18 42 43
f 20 43 44
f 21 44 45
f 21 45 46
f 22 46 47
f 24 47 48
f 24 48 95
f 40 42 41
f 40 43 42
f 40 44 43
f 40 45 44
f 40 46 45
f 40 47 46
f 40 48 47
f 40 96 48
f 7 55 49
f 49 55 50
f 50 55 51
f 51 55 52
f 52 55 53
f 53 55 54
f 54 55 56
f 56 55 57
f 49 50 59
f 50 51 59
f 51 52 60
f 52 53 61
f 53 54 62
f 54 56 65
f 56 57 66
f 57 55 123
f 57 115 66
f 49 58 31
f 58 64 25
f 49 59 58
f 51 60 59
f 52 61 60
f 53 62 61
f 54 63 62
f 54 65 63
f 56 66 65
f 58 59 64
f 59 60 64
f 60 61 64
f 61 62 64
f 62 63 64
f 63 65 64
f 65 66 64
f 66 124 64
f 79 80 1
f 80 81 1
f 81 84 1
f 12 83 79
f 13 67 83
f 13 69 67
f 14 68 69
f 16 70 68
f 69 68 92
f 69 93 67
f 68 70 94
f 70 76 94
f 16 75 70
f 16 78 75
f 73 78 74
f 72 74 78
f 75 76 70
f 75 77 76
f 24 95 71
f 71 96 72
f 72 96 74
f 73 74 98
f 75 99 77
f 76 77 101
f 73 97 78
f 75 78 102
f 81 82 84
f 82 85 84
f 85 86 84
f 86 87 84
f 87 88 84
f 88 89 84
f 89 90 84
f 79 103 80
f 80 105 81
f 81 106 82
f 67 91 83
f 83 107 79
f 82 109 85
f 85 109 86
f 86 111 87
f 87 112 88
f 88 113 89
f 89 114 90
f 90 117 84
f 67 93 91
f 69 92 93
f 76 100 94
f 68 94 92
f 103 25 104
f 104 25 108
f 36 103 107
f 37 107 91
f 37 91 93
f 38 93 92
f 39 92 94
f 40 94 100
f 71 95 96
f 74 96 98
f 73 98 97
f 75 102 99
f 76 101 100
f 77 99 101
f 78 97 102
f 40 100 96
f 48 96 95
f 97 98 102
f 96 102 98
f 99 102 100
f 99 100 101
f 96 100 102
f 80 103 104
f 80 104 105
f 81 105 106
f 82 106 109
f 83 91 107
f 79 107 103
f 86 109 110
f 86 110 111
f 87 111 112
f 88 112 113
f 89 113 114
f 104 108 105
f 105 108 106
f 106 108 109
f 109 108 110
f 110 108 111
f 111 108 112
f 112 108 113
f 113 108 114
f 90 114 126
f 114 108 132
f 57 123 115
f 117 118 84
f 118 123 84
f 90 126 117
f 118 122 123
f 115 123 116
f 121 123 119
f 120 116 123
f 120 123 121
f 122 119 123
f 115 116 124
f 120 125 116
f 117 127 118
f 122 128 119
f 120 121 129
f 121 119 130
f 118 131 122
f 115 124 66
f 124 132 64
f 114 132 126
f 120 129 125
f 116 125 124
f 117 126 127
f 118 127 131
f 121 130 129
f 119 128 130
f 122 131 128
f 126 132 127
f 127 132 131
f 124 125 132
f 130 128 132
f 129 132 125
f 129 130 132
f 131 132 128
f 1 84 25
f 64 1 25
f 1 64 55
f 64 132 55
f 108 25 84
f 108 84 132
f 123 55 132
f 84 123 132