# https://github.com/mikedh/trimesh
v 0.03959590 0.05085030 0.00000000
v 0.04624500 0.05680590 0.00000000
v 0.04555140 0.05749940 0.00000000
v 0.04502960 0.05832990 0.00000000
v 0.04470570 0.05925570 0.00000000
v 0.04459590 0.06023030 0.00000000
v 0.04707550 0.05628410 0.00000000
v 0.04800120 0.05596010 0.00000000
v 0.04897590 0.05585030 0.00000000
v 0.03959590 0.05085030 0.05000000
v 0.04624500 0.05680590 0.05000000
v 0.04555140 0.05749940 0.05000000
v 0.04502960 0.05832990 0.05000000
v 0.04470570 0.05925570 0.05000000
v 0.04459590 0.06023030 0.05000000
v 0.04707550 0.05628410 0.05000000
v 0.04800120 0.05596010 0.05000000
v 0.04897590 0.05585030 0.05000000
v 0.04459590 0.08039030 0.00000000
v 0.04470570 0.08136500 0.00000000
v 0.04502960 0.08229070 0.00000000
v 0.04555140 0.08312120 0.00000000
v 0.04624500 0.08381470 0.00000000
v 0.03959590 0.08977030 0.00000000
v 0.04707550 0.08433660 0.00000000
v 0.04800120 0.08466050 0.00000000
v 0.04897590 0.08477030 0.00000000
v 0.04459590 0.08039030 0.05000000
v 0.04470570 0.08136500 0.05000000
v 0.04502960 0.08229070 0.05000000
v 0.04555140 0.08312120 0.05000000
v 0.04624500 0.08381470 0.05000000
v 0.03959590 0.08977030 0.05000000
v 0.04707550 0.08433660 0.05000000
v 0.04800120 0.08466050 0.05000000
v 0.04897590 0.08477030 0.05000000
v 0.08353590 0.05585030 0.00000000
v 0.08451050 0.05596010 0.00000000
v 0.08543630 0.05628410 0.00000000
v 0.09291590 0.05085030 0.00000000
v 0.08626670 0.05680590 0.00000000
v 0.08696030 0.05749940 0.00000000
v 0.08748210 0.05832990 0.00000000
v 0.08780600 0.05925570 0.00000000
v 0.08791590 0.06023030 0.00000000
v 0.08353590 0.05585030 0.05000000
v 0.08451050 0.05596010 0.05000000
v 0.08543630 0.05628410 0.05000000
v 0.09291590 0.05085030 0.05000000
v 0.08626670 0.05680590 0.05000000
v 0.08696030 0.05749940 0.05000000
v 0.08748210 0.05832990 0.05000000
v 0.08780600 0.05925570 0.05000000
v 0.08791590 0.06023030 0.05000000
v 0.08353590 0.08477030 0.00000000
v 0.08451050 0.08466050 0.00000000
v 0.08543630 0.08433660 0.00000000
v 0.08791590 0.08039030 0.00000000
v 0.08780600 0.08136500 0.00000000
v 0.08748210 0.08229070 0.00000000
v 0.08696030 0.08312120 0.00000000
v 0.08626670 0.08381470 0.00000000
v 0.09291590 0.08977030 0.00000000
v 0.08353590 0.08477030 0.05000000
v 0.08451050 0.08466050 0.05000000
v 0.08543630 0.08433660 0.05000000
v 0.08791590 0.08039030 0.05000000
v 0.08780600 0.08136500 0.05000000
v 0.08748210 0.08229070 0.05000000
v 0.08696030 0.08312120 0.05000000
v 0.08626670 0.08381470 0.05000000
v 0.09291590 0.08977030 0.05000000
f 3 1 4
f 3 2 1
f 2 7 1
f 7 8 1
f 8 9 1
f 5 4 1
f 5 1 6
f 3 4 13
f 3 12 2
f 5 14 4
f 5 6 15
f 2 11 7
f 7 16 8
f 8 17 9
f 6 1 19
f 6 19 15
f 9 37 1
f 9 18 37
f 3 13 12
f 2 12 11
f 4 14 13
f 5 15 14
f 7 11 16
f 8 16 17
f 9 17 18
f 12 13 10
f 12 10 11
f 11 10 16
f 16 10 17
f 17 10 18
f 14 10 13
f 14 15 10
f 15 28 10
f 18 10 46
f 19 1 24
f 19 24 20
f 20 24 21
f 21 24 22
f 22 24 23
f 23 24 25
f 25 24 26
f 19 20 28
f 20 21 29
f 21 22 30
f 22 23 31
f 23 25 32
f 25 26 35
f 26 27 35
f 26 24 63
f 26 63 27
f 19 28 15
f 29 33 10
f 28 29 10
f 20 29 28
f 21 30 29
f 22 31 30
f 23 32 31
f 25 34 32
f 25 35 34
f 27 36 35
f 29 30 33
f 30 31 33
f 31 32 33
f 32 34 33
f 34 35 33
f 35 36 33
f 27 64 36
f 36 64 33
f 37 38 1
f 38 40 1
f 38 39 40
f 39 41 40
f 41 42 40
f 42 43 40
f 43 44 40
f 44 45 40
f 37 47 38
f 38 47 39
f 39 50 41
f 41 51 42
f 42 52 43
f 43 53 44
f 44 54 45
f 45 58 40
f 37 18 46
f 46 10 49
f 37 46 47
f 39 47 48
f 39 48 50
f 41 50 51
f 42 51 52
f 43 52 53
f 44 53 54
f 46 49 47
f 47 49 48
f 48 49 50
f 50 49 51
f 51 49 52
f 52 49 53
f 45 54 67
f 53 72 54
f 53 49 72
f 27 63 55
f 27 55 64
f 58 59 40
f 59 63 40
f 45 67 58
f 59 60 63
f 55 63 56
f 57 56 63
f 57 63 62
f 61 62 63
f 60 61 63
f 55 56 64
f 57 65 56
f 57 62 66
f 58 68 59
f 59 69 60
f 61 71 62
f 60 70 61
f 64 65 33
f 65 72 33
f 54 72 67
f 56 65 64
f 57 66 65
f 62 71 66
f 58 67 68
f 59 68 69
f 61 70 71
f 60 69 70
f 67 72 68
f 68 72 69
f 66 72 65
f 66 71 72
f 70 72 71
f 69 72 70
f 1 40 10
f 33 1 10
f 1 33 24
f 24 33 63
f 10 40 49
f 40 72 49
f 40 63 72
f 33 72 63