# https://github.com/mikedh/trimesh
v -0.10212700 -0.02415160 0.00000000
v -0.10184551 -0.02415160 0.00000000
v -0.08844490 -0.01802470 0.00000000
v -0.08981870 -0.01542110 0.00000000
v -0.08984720 -0.01442290 0.00000000
v -0.08909890 -0.01727000 0.00000000
v -0.08956490 -0.01638680 0.00000000
v -0.08964890 -0.01344430 0.00000000
v -0.08671730 -0.01900030 0.00000000
v -0.08763710 -0.01861160 0.00000000
v -0.08573330 -0.01917060 0.00000000
v -0.08473640 -0.01911360 0.00000000
v -0.08377830 -0.01883230 0.00000000
v -0.08290880 -0.01834120 0.00000000
v -0.07368140 -0.01163710 0.00000000
v -0.08612440 -0.00259680 0.00000000
v -0.10212700 -0.02415160 0.05000000
v -0.08844490 -0.01802470 0.05000000
v -0.08981870 -0.01542110 0.05000000
v -0.08984720 -0.01442290 0.05000000
v -0.08909890 -0.01727000 0.05000000
v -0.08956490 -0.01638680 0.05000000
v -0.08964890 -0.01344430 0.05000000
v -0.08671730 -0.01900030 0.05000000
v -0.08763710 -0.01861160 0.05000000
v -0.08573330 -0.01917060 0.05000000
v -0.08473640 -0.01911360 0.05000000
v -0.08098332 -0.02415160 0.05000000
v -0.08377830 -0.01883230 0.05000000
v -0.08290880 -0.01834120 0.05000000
v -0.07368140 -0.01163710 0.05000000
v -0.08612440 -0.00259680 0.05000000
v -0.09701340 0.00653740 0.00000000
v -0.09608750 0.00478250 0.00000000
v -0.09535180 0.00410730 0.00000000
v -0.09665110 0.00560680 0.00000000
v -0.09715550 0.00752580 0.00000000
v -0.09707000 0.00852070 0.00000000
v -0.09676150 0.00947030 0.00000000
v -0.09624580 0.01032550 0.00000000
v -0.09554990 0.01104160 0.00000000
v -0.09470980 0.01158140 0.00000000
v -0.09376930 0.01191700 0.00000000
v -0.09277730 0.01203080 0.00000000
v -0.10212700 0.03087630 0.00000000
v -0.08137160 0.01203080 0.00000000
v -0.07784700 0.02287830 0.00000000
v -0.07743220 0.02378660 0.00000000
v -0.07682240 0.02457740 0.00000000
v -0.07604940 0.02520950 0.00000000
v -0.07515330 0.02565010 0.00000000
v -0.07418070 0.02587630 0.00000000
v -0.09701340 0.00653740 0.05000000
v -0.09608750 0.00478250 0.05000000
v -0.09535180 0.00410730 0.05000000
v -0.09665110 0.00560680 0.05000000
v -0.09715550 0.00752580 0.05000000
v -0.09707000 0.00852070 0.05000000
v -0.09676150 0.00947030 0.05000000
v -0.09624580 0.01032550 0.05000000
v -0.09554990 0.01104160 0.05000000
v -0.09470980 0.01158140 0.05000000
v -0.09376930 0.01191700 0.05000000
v -0.09277730 0.01203080 0.05000000
v -0.10212700 0.03087630 0.05000000
v -0.08137160 0.01203080 0.05000000
v -0.07784700 0.02287830 0.05000000
v -0.07743220 0.02378660 0.05000000
v -0.07682240 0.02457740 0.05000000
v -0.07604940 0.02520950 0.05000000
v -0.07515330 0.02565010 0.05000000
v -0.07418070 0.02587630 0.05000000
v -0.06445400 -0.01834120 0.00000000
v -0.06358450 -0.01883230 0.00000000
v -0.06259916 -0.02415160 0.00000000
v -0.06262630 -0.01911360 0.00000000
v -0.06162940 -0.01917060 0.00000000
v -0.06064550 -0.01900030 0.00000000
v -0.05972570 -0.01861160 0.00000000
v -0.06123840 -0.00259680 0.00000000
v -0.05891780 -0.01802470 0.00000000
v -0.05826390 -0.01727000 0.00000000
v -0.05779790 -0.01638680 0.00000000
v -0.05754400 -0.01542110 0.00000000
v -0.05751550 -0.01442290 0.00000000
v -0.05771380 -0.01344430 0.00000000
v -0.04523577 -0.02415160 0.00000000
v -0.06445400 -0.01834120 0.05000000
v -0.06358450 -0.01883230 0.05000000
v -0.06262630 -0.01911360 0.05000000
v -0.06162940 -0.01917060 0.05000000
v -0.06064550 -0.01900030 0.05000000
v -0.05972570 -0.01861160 0.05000000
v -0.06123840 -0.00259680 0.05000000
v -0.05767420 -0.02415160 0.05000000
v -0.05891780 -0.01802470 0.05000000
v -0.05826390 -0.01727000 0.05000000
v -0.05779790 -0.01638680 0.05000000
v -0.05754400 -0.01542110 0.05000000
v -0.05751550 -0.01442290 0.05000000
v -0.05771380 -0.01344430 0.05000000
v -0.04523577 -0.02415160 0.05000000
v -0.06599120 0.01203080 0.00000000
v -0.06951570 0.02287830 0.00000000
v -0.06993060 0.02378660 0.00000000
v -0.07220950 0.02565010 0.00000000
v -0.07318210 0.02587630 0.00000000
v -0.07131340 0.02520950 0.00000000
v -0.07054030 0.02457740 0.00000000
v -0.05458550 0.01203080 0.00000000
v -0.05359340 0.01191700 0.00000000
v -0.05265290 0.01158140 0.00000000
v -0.05201100 0.00410730 0.00000000
v -0.05127530 0.00478250 0.00000000
v -0.05071170 0.00560680 0.00000000
v -0.05034940 0.00653740 0.00000000
v -0.05060130 0.00947030 0.00000000
v -0.05020730 0.00752580 0.00000000
v -0.05029270 0.00852070 0.00000000
v -0.05181290 0.01104160 0.00000000
v -0.05111690 0.01032550 0.00000000
v -0.04523577 0.03087630 0.00000000
v -0.06599120 0.01203080 0.05000000
v -0.06951570 0.02287830 0.05000000
v -0.06993060 0.02378660 0.05000000
v -0.07220950 0.02565010 0.05000000
v -0.07318210 0.02587630 0.05000000
v -0.07131340 0.02520950 0.05000000
v -0.07054030 0.02457740 0.05000000
v -0.05458550 0.01203080 0.05000000
v -0.05359340 0.01191700 0.05000000
v -0.05265290 0.01158140 0.05000000
v -0.05201100 0.00410730 0.05000000
v -0.05127530 0.00478250 0.05000000
v -0.05071170 0.00560680 0.05000000
v -0.05034940 0.00653740 0.05000000
v -0.05060130 0.00947030 0.05000000
v -0.05020730 0.00752580 0.05000000
v -0.05029270 0.00852070 0.05000000
v -0.05181290 0.01104160 0.05000000
v -0.05111690 0.01032550 0.05000000
v -0.04523577 0.03087630 0.05000000
f 4 2 36
f 6 2 7
f 7 2 4
f 3 10 2
f 3 2 6
f 10 9 2
f 9 11 2
f 11 12 2
f 12 13 2
f 3 6 21
f 3 25 10
f 7 4 19
f 5 20 4
f 6 7 22
f 5 8 23
f 2 1 45
f 36 2 33
f 33 2 37
f 5 4 34
f 5 34 8
f 8 35 16
f 4 36 34
f 8 34 35
f 8 16 23
f 16 35 32
f 13 75 2
f 13 14 75
f 14 15 73
f 9 24 11
f 10 24 9
f 11 27 12
f 12 27 13
f 13 30 14
f 14 31 15
f 3 18 25
f 3 21 18
f 4 20 19
f 5 23 20
f 6 22 21
f 7 19 22
f 19 56 17
f 21 22 17
f 22 19 17
f 18 21 17
f 18 17 28
f 32 35 55
f 56 53 17
f 53 57 17
f 20 56 19
f 20 23 54
f 23 32 55
f 20 54 56
f 23 55 54
f 10 25 24
f 11 24 26
f 11 26 27
f 13 27 29
f 13 29 30
f 14 30 31
f 24 28 26
f 18 28 25
f 25 28 24
f 26 28 27
f 27 28 29
f 29 28 30
f 30 28 95
f 30 88 31
f 16 32 23
f 37 2 45
f 37 45 38
f 38 45 39
f 39 45 40
f 43 48 44
f 34 36 54
f 35 34 55
f 36 33 56
f 33 37 53
f 37 38 57
f 38 39 58
f 39 40 59
f 40 41 60
f 41 42 61
f 42 43 62
f 43 44 63
f 44 46 64
f 40 45 41
f 41 45 42
f 42 45 43
f 43 45 48
f 44 47 46
f 46 47 66
f 44 48 47
f 48 45 49
f 49 45 50
f 50 45 51
f 51 45 52
f 52 45 107
f 47 48 67
f 48 49 68
f 49 50 69
f 50 51 70
f 51 52 71
f 52 107 72
f 33 53 56
f 34 54 55
f 36 56 54
f 37 57 53
f 38 58 57
f 39 59 58
f 40 60 59
f 41 61 60
f 42 62 61
f 43 63 62
f 44 64 63
f 57 65 17
f 57 58 65
f 58 59 65
f 59 60 65
f 63 64 68
f 60 61 65
f 61 62 65
f 62 63 65
f 63 68 65
f 46 66 64
f 64 66 67
f 47 67 66
f 48 68 67
f 49 69 68
f 50 70 69
f 51 71 70
f 52 72 71
f 64 67 68
f 68 69 65
f 69 70 65
f 70 71 65
f 71 72 65
f 72 127 65
f 14 73 75
f 73 74 75
f 76 77 75
f 77 78 75
f 74 76 75
f 78 79 75
f 79 81 75
f 81 82 75
f 15 88 73
f 73 88 74
f 74 89 76
f 76 90 77
f 77 91 78
f 78 92 79
f 86 94 80
f 82 87 75
f 82 83 87
f 83 84 87
f 84 85 87
f 85 86 87
f 86 113 87
f 79 93 81
f 81 96 82
f 82 97 83
f 83 98 84
f 84 99 85
f 85 100 86
f 86 80 113
f 113 114 87
f 114 115 87
f 115 116 87
f 116 118 87
f 118 119 87
f 80 133 113
f 15 31 88
f 74 88 89
f 76 89 90
f 77 90 91
f 78 91 92
f 79 92 93
f 30 95 88
f 90 95 91
f 91 95 92
f 88 95 89
f 89 95 90
f 81 93 96
f 82 96 97
f 83 97 98
f 84 98 99
f 85 99 100
f 86 100 101
f 92 95 93
f 93 95 96
f 96 95 97
f 97 95 102
f 97 102 98
f 98 102 99
f 99 102 100
f 100 102 101
f 101 102 133
f 86 101 94
f 80 94 133
f 101 133 94
f 133 102 134
f 134 102 135
f 135 102 136
f 136 102 138
f 103 104 110
f 103 123 104
f 103 110 123
f 107 45 122
f 104 105 111
f 107 122 106
f 106 122 108
f 109 108 122
f 109 122 105
f 104 125 105
f 106 108 126
f 107 106 127
f 109 129 108
f 109 105 125
f 104 111 110
f 119 122 87
f 117 121 122
f 117 122 119
f 110 111 131
f 111 112 132
f 113 133 114
f 114 134 115
f 115 135 116
f 117 137 121
f 116 136 118
f 118 138 119
f 117 119 137
f 112 120 140
f 121 141 120
f 105 122 111
f 112 122 120
f 111 122 112
f 121 120 122
f 123 130 124
f 104 123 124
f 104 124 125
f 107 127 72
f 106 126 127
f 108 128 126
f 108 129 128
f 109 125 129
f 127 142 65
f 124 130 125
f 127 126 142
f 126 128 142
f 129 142 128
f 129 125 142
f 110 130 123
f 110 131 130
f 111 132 131
f 112 140 132
f 114 133 134
f 115 134 135
f 116 135 136
f 121 137 141
f 118 136 138
f 119 138 139
f 119 139 137
f 120 141 140
f 125 130 131
f 138 102 142
f 137 142 141
f 138 142 139
f 137 139 142
f 125 131 142
f 132 140 142
f 131 132 142
f 141 142 140
f 2 17 1
f 75 17 2
f 1 17 45
f 17 75 28
f 17 65 45
f 65 142 45
f 75 87 102
f 87 122 102
f 28 75 95
f 95 75 102
f 122 45 142
f 142 102 122