# https://github.com/mikedh/trimesh
v -0.09807730 -0.09529601 0.00000000
v -0.09269870 -0.07882428 0.00000000
v -0.09224080 -0.07961728 0.00000000
v -0.09298160 -0.07795343 0.00000000
v -0.09307730 -0.07704278 0.00000000
v -0.09162810 -0.08029775 0.00000000
v -0.09088730 -0.08083597 0.00000000
v -0.07547690 -0.08973320 0.00000000
v -0.07374470 -0.09029601 0.00000000
v -0.07464040 -0.09010564 0.00000000
v -0.09807730 -0.09529601 0.05000000
v -0.09269870 -0.07882428 0.05000000
v -0.09224080 -0.07961728 0.05000000
v -0.09298160 -0.07795343 0.05000000
v -0.09307730 -0.07704278 0.05000000
v -0.09162810 -0.08029775 0.05000000
v -0.09088730 -0.08083597 0.05000000
v -0.08124360 -0.09529601 0.05000000
v -0.07547690 -0.08973320 0.05000000
v -0.07374470 -0.09029601 0.05000000
v -0.07464040 -0.09010564 0.05000000
v -0.09307730 -0.05924831 0.00000000
v -0.09298160 -0.05833766 0.00000000
v -0.09269870 -0.05746681 0.00000000
v -0.09224080 -0.05667381 0.00000000
v -0.09162810 -0.05599334 0.00000000
v -0.09088730 -0.05545512 0.00000000
v -0.09807730 -0.04099510 0.00000000
v -0.07547690 -0.04655790 0.00000000
v -0.07464040 -0.04618550 0.00000000
v -0.07374470 -0.04599510 0.00000000
v -0.09307730 -0.05924831 0.05000000
v -0.09298160 -0.05833766 0.05000000
v -0.09269870 -0.05746681 0.05000000
v -0.09224080 -0.05667381 0.05000000
v -0.09162810 -0.05599334 0.05000000
v -0.09088730 -0.05545512 0.05000000
v -0.09807730 -0.04099510 0.05000000
v -0.07547690 -0.04655790 0.05000000
v -0.07464040 -0.04618550 0.05000000
v -0.07374470 -0.04599510 0.05000000
v -0.07282900 -0.09029601 0.00000000
v -0.07193340 -0.09010564 0.00000000
v -0.07109690 -0.08973320 0.00000000
v -0.04849640 -0.09529601 0.00000000
v -0.05568640 -0.08083597 0.00000000
v -0.05494560 -0.08029775 0.00000000
v -0.05433290 -0.07961728 0.00000000
v -0.05387510 -0.07882428 0.00000000
v -0.05359210 -0.07795343 0.00000000
v -0.05349640 -0.07704278 0.00000000
v -0.07282900 -0.09029601 0.05000000
v -0.07193340 -0.09010564 0.05000000
v -0.07109690 -0.08973320 0.05000000
v -0.04849640 -0.09529601 0.05000000
v -0.05568640 -0.08083597 0.05000000
v -0.05494560 -0.08029775 0.05000000
v -0.05433290 -0.07961728 0.05000000
v -0.05387510 -0.07882428 0.05000000
v -0.05359210 -0.07795343 0.05000000
v -0.05349640 -0.07704278 0.05000000
v -0.07193340 -0.04618550 0.00000000
v -0.07282900 -0.04599510 0.00000000
v -0.07109690 -0.04655790 0.00000000
v -0.06917389 -0.04099510 0.00000000
v -0.05568640 -0.05545512 0.00000000
v -0.05494560 -0.05599334 0.00000000
v -0.05349640 -0.05924831 0.00000000
v -0.05359210 -0.05833766 0.00000000
v -0.05433290 -0.05667381 0.00000000
v -0.05387510 -0.05746681 0.00000000
v -0.04849640 -0.04099510 0.00000000
v -0.07193340 -0.04618550 0.05000000
v -0.07282900 -0.04599510 0.05000000
v -0.07109690 -0.04655790 0.05000000
v -0.05568640 -0.05545512 0.05000000
v -0.05494560 -0.05599334 0.05000000
v -0.05349640 -0.05924831 0.05000000
v -0.05359210 -0.05833766 0.05000000
v -0.05433290 -0.05667381 0.05000000
v -0.05387510 -0.05746681 0.05000000
v -0.04849640 -0.04099510 0.05000000
f 6 7 1
f 3 1 2
f 4 1 5
f 2 1 4
f 3 6 1
f 7 8 1
f 7 17 8
f 5 1 28
f 2 4 12
f 3 2 13
f 4 5 14
f 3 16 6
f 6 16 7
f 8 10 1
f 9 42 1
f 10 9 1
f 8 21 10
f 10 20 9
f 16 11 17
f 13 12 11
f 14 15 11
f 12 14 11
f 13 11 16
f 17 11 18
f 3 13 16
f 2 12 13
f 4 14 12
f 5 15 14
f 5 32 15
f 7 16 17
f 15 32 11
f 32 33 11
f 8 17 19
f 8 19 21
f 9 20 52
f 10 21 20
f 17 18 19
f 19 18 21
f 21 18 20
f 20 18 52
f 52 18 53
f 5 28 22
f 5 22 32
f 22 23 33
f 23 24 33
f 24 25 34
f 25 26 35
f 26 27 36
f 22 28 23
f 23 28 24
f 24 28 25
f 25 28 26
f 26 28 27
f 27 28 29
f 29 28 65
f 27 29 39
f 29 30 40
f 30 31 41
f 22 33 32
f 24 34 33
f 25 35 34
f 26 36 35
f 27 37 36
f 33 38 11
f 27 39 37
f 33 34 38
f 34 35 38
f 35 36 38
f 36 37 38
f 37 39 38
f 29 40 39
f 30 41 40
f 31 74 41
f 39 40 38
f 40 41 38
f 41 74 38
f 42 45 1
f 42 43 45
f 43 44 45
f 9 52 42
f 42 53 43
f 43 53 44
f 44 54 46
f 44 46 45
f 46 47 45
f 47 48 45
f 48 49 45
f 49 50 45
f 50 51 45
f 51 68 45
f 68 69 45
f 46 57 47
f 47 58 48
f 48 59 49
f 49 60 50
f 50 60 51
f 51 61 68
f 42 52 53
f 44 53 54
f 53 18 55
f 53 55 54
f 46 54 56
f 54 55 56
f 56 55 57
f 57 55 58
f 58 55 59
f 59 55 60
f 60 55 61
f 46 56 57
f 47 57 58
f 48 58 59
f 49 59 60
f 51 60 61
f 61 55 82
f 29 65 30
f 30 65 31
f 63 65 62
f 62 65 64
f 31 65 63
f 64 65 72
f 63 62 73
f 31 63 74
f 62 64 75
f 69 72 45
f 67 77 66
f 67 70 77
f 68 79 69
f 70 71 80
f 69 81 71
f 64 72 66
f 67 72 70
f 69 71 72
f 70 72 71
f 67 66 72
f 64 66 76
f 63 73 74
f 62 75 73
f 64 76 75
f 74 82 38
f 74 73 82
f 73 75 82
f 66 77 76
f 68 61 78
f 68 78 79
f 69 79 81
f 71 81 80
f 70 80 77
f 61 82 78
f 75 76 82
f 77 80 82
f 79 82 81
f 78 82 79
f 80 81 82
f 77 82 76
f 1 11 28
f 1 45 18
f 1 18 11
f 11 38 28
f 38 82 28
f 45 72 55
f 18 45 55
f 65 28 82
f 72 65 82
f 82 55 72