# https://github.com/mikedh/trimesh
v -0.07500000 -0.01103750 -0.01733760
v -0.07500000 -0.01059010 -0.01774040
v -0.07500000 -0.01139140 -0.01685050
v -0.07500000 -0.02028860 -0.00144000
v -0.07500000 -0.02053350 -0.00089000
v -0.07500000 -0.02065870 -0.00030100
v -0.07500000 -0.01006860 -0.01804150
v -0.07500000 -0.00949600 -0.01822750
v -0.07500000 -0.00889720 -0.01829050
v -0.07500000 -0.02065870 0.00030100
v -0.07500000 -0.02053350 0.00089000
v -0.07500000 -0.02028860 0.00144000
v -0.07500000 -0.01139140 0.01685050
v -0.07500000 -0.01103750 0.01733760
v -0.07500000 -0.01059010 0.01774040
v -0.07500000 -0.01006860 0.01804150
v -0.07500000 -0.00949600 0.01822750
v -0.07500000 -0.00889720 0.01829050
v -0.07500000 0.00889720 -0.01829050
v -0.07500000 0.00949600 -0.01822750
v -0.07500000 0.01006860 -0.01804150
v -0.07500000 0.01059010 -0.01774040
v -0.07500000 0.01103750 -0.01733760
v -0.07500000 0.01139140 -0.01685050
v -0.07500000 0.02028860 -0.00144000
v -0.07500000 0.02053350 -0.00089000
v -0.07500000 0.02065870 -0.00030100
v -0.07500000 0.00889720 0.01829050
v -0.07500000 0.00949600 0.01822750
v -0.07500000 0.01006860 0.01804150
v -0.07500000 0.02065870 0.00030100
v -0.07500000 0.02053350 0.00089000
v -0.07500000 0.02028860 0.00144000
v -0.07500000 0.01139140 0.01685050
v -0.07500000 0.01059010 0.01774040
v -0.07500000 0.01103750 0.01733760
v 0.02500000 -0.01103750 -0.01733760
v 0.02500000 -0.01059010 -0.01774040
v 0.02500000 -0.01139140 -0.01685050
v 0.02500000 -0.02028860 -0.00144000
v 0.02500000 -0.02053350 -0.00089000
v 0.02500000 -0.02065870 -0.00030100
v 0.02500000 -0.01006860 -0.01804150
v 0.02500000 -0.00949600 -0.01822750
v 0.02500000 -0.00889720 -0.01829050
v 0.02500000 -0.02065870 0.00030100
v 0.02500000 -0.02053350 0.00089000
v 0.02500000 -0.02028860 0.00144000
v 0.02500000 -0.01139140 0.01685050
v 0.02500000 -0.01103750 0.01733760
v 0.02500000 -0.01059010 0.01774040
v 0.02500000 -0.01006860 0.01804150
v 0.02500000 -0.00949600 0.01822750
v 0.02500000 -0.00889720 0.01829050
v 0.02500000 0.00889720 -0.01829050
v 0.02500000 0.00949600 -0.01822750
v 0.02500000 0.01006860 -0.01804150
v 0.02500000 0.01059010 -0.01774040
v 0.02500000 0.01103750 -0.01733760
v 0.02500000 0.01139140 -0.01685050
v 0.02500000 0.02028860 -0.00144000
v 0.02500000 0.02053350 -0.00089000
v 0.02500000 0.02065870 -0.00030100
v 0.02500000 0.00889720 0.01829050
v 0.02500000 0.00949600 0.01822750
v 0.02500000 0.01006860 0.01804150
v 0.02500000 0.02065870 0.00030100
v 0.02500000 0.02053350 0.00089000
v 0.02500000 0.02028860 0.00144000
v 0.02500000 0.01139140 0.01685050
v 0.02500000 0.01059010 0.01774040
v 0.02500000 0.01103750 0.01733760
f 1 3 7
f 1 7 2
f 3 12 9
f 3 4 12
f 4 5 6
f 4 6 12
f 3 9 7
f 7 9 8
f 9 12 19
f 2 7 38
f 1 2 37
f 1 39 3
f 3 40 4
f 4 41 5
f 5 42 6
f 7 8 43
f 8 9 44
f 9 19 45
f 6 10 12
f 10 11 12
f 13 14 15
f 13 15 16
f 12 13 19
f 13 16 17
f 13 17 18
f 13 18 28
f 6 46 10
f 10 47 11
f 11 48 12
f 12 49 13
f 13 50 14
f 14 51 15
f 15 52 16
f 16 53 17
f 17 54 18
f 19 23 20
f 20 23 21
f 19 28 24
f 19 24 23
f 21 23 22
f 24 33 25
f 25 27 26
f 25 33 27
f 19 20 55
f 20 21 56
f 21 22 57
f 22 23 58
f 23 24 59
f 24 25 60
f 25 26 61
f 26 27 62
f 27 31 63
f 13 28 19
f 28 29 30
f 28 35 34
f 28 30 35
f 24 28 33
f 27 33 31
f 31 33 32
f 28 34 33
f 34 35 36
f 18 64 28
f 28 65 29
f 29 66 30
f 31 32 67
f 32 33 68
f 33 34 69
f 34 36 70
f 35 72 36
f 30 71 35
f 1 37 39
f 2 38 37
f 3 39 40
f 4 40 41
f 5 41 42
f 6 42 46
f 7 43 38
f 8 44 43
f 9 45 44
f 10 46 47
f 11 47 48
f 12 48 49
f 13 49 50
f 14 50 51
f 15 51 52
f 16 52 53
f 17 53 54
f 18 54 64
f 19 55 45
f 20 56 55
f 21 57 56
f 22 58 57
f 23 59 58
f 24 60 59
f 25 61 60
f 26 62 61
f 27 63 62
f 28 64 65
f 29 65 66
f 30 66 71
f 31 67 63
f 32 68 67
f 33 69 68
f 34 70 69
f 35 71 72
f 36 72 70
f 37 40 39
f 38 40 37
f 40 38 43
f 40 43 44
f 40 44 45
f 41 40 55
f 41 55 42
f 46 42 55
f 46 55 47
f 47 55 48
f 45 55 40
f 49 48 55
f 49 60 50
f 50 60 51
f 51 60 52
f 52 60 53
f 53 60 54
f 49 55 56
f 49 56 57
f 49 57 58
f 49 58 59
f 49 59 60
f 61 54 60
f 64 54 69
f 62 54 61
f 63 54 62
f 63 67 54
f 68 54 67
f 69 54 68
f 65 64 69
f 66 65 69
f 66 69 71
f 71 69 72
f 72 69 70