# https://github.com/mikedh/trimesh
v 0.02500000 -0.01103750 -0.01733760
v 0.02500000 -0.01059010 -0.01774040
v 0.02500000 -0.01139140 -0.01685050
v 0.02500000 -0.02028860 -0.00144000
v 0.02500000 -0.02053350 -0.00089000
v 0.02500000 -0.02065870 -0.00030100
v 0.02500000 -0.01006860 -0.01804150
v 0.02500000 -0.00949600 -0.01822750
v 0.02500000 -0.00889720 -0.01829050
v 0.02500000 -0.02065870 0.00030100
v 0.02500000 -0.02053350 0.00089000
v 0.02500000 -0.02028860 0.00144000
v 0.02500000 -0.01139140 0.01685050
v 0.02500000 -0.01103750 0.01733760
v 0.02500000 -0.01059010 0.01774040
v 0.02500000 -0.01006860 0.01804150
v 0.02500000 -0.00949600 0.01822750
v 0.02500000 -0.00889720 0.01829050
v 0.02500000 0.00889720 -0.01829050
v 0.02500000 0.00949600 -0.01822750
v 0.02500000 0.01006860 -0.01804150
v 0.02500000 0.01059010 -0.01774040
v 0.02500000 0.01103750 -0.01733760
v 0.02500000 0.01139140 -0.01685050
v 0.02500000 0.02028860 -0.00144000
v 0.02500000 0.02053350 -0.00089000
v 0.02500000 0.02065870 -0.00030100
v 0.02500000 0.00889720 0.01829050
v 0.02500000 0.00949600 0.01822750
v 0.02500000 0.01006860 0.01804150
v 0.02500000 0.02065870 0.00030100
v 0.02500000 0.02053350 0.00089000
v 0.02500000 0.02028860 0.00144000
v 0.02500000 0.01139140 0.01685050
v 0.02500000 0.01059010 0.01774040
v 0.02500000 0.01103750 0.01733760
v 0.07500000 -0.01103750 -0.01733760
v 0.07500000 -0.01059010 -0.01774040
v 0.07500000 -0.01139140 -0.01685050
v 0.07500000 -0.02028860 -0.00144000
v 0.07500000 -0.02053350 -0.00089000
v 0.07500000 -0.02065870 -0.00030100
v 0.07500000 -0.01006860 -0.01804150
v 0.07500000 -0.00949600 -0.01822750
v 0.07500000 -0.00889720 -0.01829050
v 0.07500000 -0.02065870 0.00030100
v 0.07500000 -0.02053350 0.00089000
v 0.07500000 -0.02028860 0.00144000
v 0.07500000 -0.01139140 0.01685050
v 0.07500000 -0.01103750 0.01733760
v 0.07500000 -0.01059010 0.01774040
v 0.07500000 -0.01006860 0.01804150
v 0.07500000 -0.00949600 0.01822750
v 0.07500000 -0.00889720 0.01829050
v 0.07500000 0.00889720 -0.01829050
v 0.07500000 0.00949600 -0.01822750
v 0.07500000 0.01006860 -0.01804150
v 0.07500000 0.01059010 -0.01774040
v 0.07500000 0.01103750 -0.01733760
v 0.07500000 0.01139140 -0.01685050
v 0.07500000 0.02028860 -0.00144000
v 0.07500000 0.02053350 -0.00089000
v 0.07500000 0.02065870 -0.00030100
v 0.07500000 0.00889720 0.01829050
v 0.07500000 0.00949600 0.01822750
v 0.07500000 0.01006860 0.01804150
v 0.07500000 0.02065870 0.00030100
v 0.07500000 0.02053350 0.00089000
v 0.07500000 0.02028860 0.00144000
v 0.07500000 0.01139140 0.01685050
v 0.07500000 0.01059010 0.01774040
v 0.07500000 0.01103750 0.01733760
f 38 2 7
f 37 1 2
f 39 3 1
f 40 4 3
f 41 5 4
f 42 6 5
f 43 7 8
f 44 8 9
f 45 9 19
f 46 10 6
f 47 11 10
f 48 12 11
f 49 13 12
f 50 14 13
f 51 15 14
f 52 16 15
f 53 17 16
f 54 18 17
f 55 19 20
f 56 20 21
f 57 21 22
f 58 22 23
f 59 23 24
f 60 24 25
f 61 25 26
f 62 26 27
f 63 27 31
f 64 28 18
f 65 29 28
f 66 30 29
f 67 31 32
f 68 32 33
f 69 33 34
f 70 34 36
f 72 36 35
f 71 35 30
f 37 39 1
f 37 2 38
f 39 40 3
f 40 41 4
f 41 42 5
f 42 46 6
f 38 7 43
f 43 8 44
f 44 9 45
f 37 43 39
f 37 38 43
f 39 45 40
f 40 42 41
f 40 46 42
f 40 47 46
f 40 45 49
f 39 43 45
f 43 44 45
f 45 55 54
f 46 47 10
f 47 48 11
f 48 49 12
f 49 50 13
f 50 51 14
f 51 52 15
f 52 53 16
f 53 54 17
f 54 64 18
f 40 48 47
f 40 49 48
f 49 51 50
f 45 54 49
f 49 54 51
f 51 54 52
f 52 54 53
f 45 19 55
f 55 20 56
f 56 21 57
f 57 22 58
f 58 23 59
f 59 24 60
f 60 25 61
f 61 26 62
f 62 27 63
f 55 56 59
f 56 57 59
f 55 60 64
f 55 59 60
f 57 58 59
f 60 61 69
f 61 62 63
f 61 63 69
f 64 65 28
f 65 66 29
f 66 71 30
f 63 31 67
f 67 32 68
f 68 33 69
f 69 34 70
f 71 72 35
f 70 36 72
f 54 55 64
f 64 66 65
f 64 70 71
f 64 71 66
f 60 69 64
f 63 67 69
f 67 68 69
f 64 69 70
f 70 72 71
f 3 4 12
f 4 5 12
f 1 3 34
f 1 34 2
f 2 34 7
f 7 34 8
f 8 34 9
f 12 5 6
f 6 10 12
f 11 12 10
f 3 12 13
f 3 13 14
f 3 14 15
f 3 15 16
f 3 16 17
f 3 17 18
f 3 18 28
f 9 34 19
f 20 19 25
f 21 20 25
f 21 25 22
f 22 25 23
f 24 23 25
f 19 26 25
f 19 27 26
f 19 31 27
f 19 32 31
f 19 33 32
f 3 28 29
f 3 29 30
f 3 30 35
f 3 35 36
f 3 36 34
f 19 34 33