# https://github.com/mikedh/trimesh
v -0.04523643 0.01027020 0.05000000 0.08627451 0.01960784 0.83137255
v -0.05108330 0.01027020 0.05000000 0.08627451 0.01960784 0.83137255
v -0.04523643 0.00409769 0.05000000 0.08627451 0.01960784 0.83137255
v -0.04523643 0.01027020 0.00000000 0.08627451 0.01960784 0.83137255
v -0.05202422 0.00409769 0.05000000 0.08627451 0.01960784 0.83137255
v -0.05108330 0.01027020 0.00000000 0.08627451 0.01960784 0.83137255
v -0.04523643 0.00409769 0.00000000 0.08627451 0.01960784 0.83137255
v -0.05202422 0.00409769 0.00000000 0.08627451 0.01960784 0.83137255
f 1 2 5
f 1 5 3
f 1 3 7
f 1 7 4
f 1 4 6
f 1 6 2
f 2 6 8
f 2 8 5
f 3 5 8
f 3 8 7
f 4 7 8
f 4 8 6