# https://github.com/mikedh/trimesh
v -0.06415253 -0.01851052 0.05000000 0.54117647 0.42352941 0.64313725
v -0.07368068 -0.01163710 0.05000000 0.54117647 0.42352941 0.64313725
v -0.06415253 -0.02415160 0.05000000 0.54117647 0.42352941 0.64313725
v -0.06415253 -0.01851052 0.00000000 0.54117647 0.42352941 0.64313725
v -0.08290052 -0.01833412 0.05000000 0.54117647 0.42352941 0.64313725
v -0.07368068 -0.01163710 0.00000000 0.54117647 0.42352941 0.64313725
v -0.08290052 -0.02415160 0.05000000 0.54117647 0.42352941 0.64313725
v -0.06415253 -0.02415160 0.00000000 0.54117647 0.42352941 0.64313725
v -0.08290052 -0.01833412 0.00000000 0.54117647 0.42352941 0.64313725
v -0.08290052 -0.02415160 0.00000000 0.54117647 0.42352941 0.64313725
f 1 2 5
f 1 5 7
f 1 7 3
f 1 3 8
f 1 8 4
f 1 4 6
f 1 6 2
f 2 6 9
f 2 9 5
f 3 7 10
f 3 10 8
f 4 8 10
f 4 10 9
f 4 9 6
f 5 9 10
f 5 10 7