# https://github.com/mikedh/trimesh
v -0.05265547 0.01158232 0.00000000 0.67843137 0.35686275 0.43529412
v -0.06599104 0.01203181 0.00000000 0.67843137 0.35686275 0.43529412
v -0.05265547 0.03087441 0.00000000 0.67843137 0.35686275 0.43529412
v -0.05265547 0.01158232 0.05000000 0.67843137 0.35686275 0.43529412
v -0.07094287 0.02490642 0.00000000 0.67843137 0.35686275 0.43529412
v -0.06599104 0.01203181 0.05000000 0.67843137 0.35686275 0.43529412
v -0.07094287 0.03087441 0.00000000 0.67843137 0.35686275 0.43529412
v -0.05265547 0.03087441 0.05000000 0.67843137 0.35686275 0.43529412
v -0.07094287 0.02490642 0.05000000 0.67843137 0.35686275 0.43529412
v -0.07094287 0.03087441 0.05000000 0.67843137 0.35686275 0.43529412
f 1 2 5
f 1 5 7
f 1 7 3
f 1 3 8
f 1 8 4
f 1 4 6
f 1 6 2
f 2 6 9
f 2 9 5
f 3 7 10
f 3 10 8
f 4 8 10
f 4 10 9
f 4 9 6
f 5 9 10
f 5 10 7