# https://github.com/mikedh/trimesh
v -0.04523577 0.00409769 0.05000000 0.77647059 0.86666667 0.97647059
v -0.05202467 0.00409769 0.05000000 0.77647059 0.86666667 0.97647059
v -0.04523577 -0.01160225 0.05000000 0.77647059 0.86666667 0.97647059
v -0.04523577 0.00409769 0.00000000 0.77647059 0.86666667 0.97647059
v -0.06123840 -0.00259814 0.05000000 0.77647059 0.86666667 0.97647059
v -0.05202467 0.00409769 0.00000000 0.77647059 0.86666667 0.97647059
v -0.05831231 -0.01160225 0.05000000 0.77647059 0.86666667 0.97647059
v -0.04523577 -0.01160225 0.00000000 0.77647059 0.86666667 0.97647059
v -0.06123840 -0.00259814 0.00000000 0.77647059 0.86666667 0.97647059
v -0.05831231 -0.01160225 0.00000000 0.77647059 0.86666667 0.97647059
f 1 2 5
f 1 5 7
f 1 7 3
f 1 3 8
f 1 8 4
f 1 4 6
f 1 6 2
f 2 6 9
f 2 9 5
f 3 7 10
f 3 10 8
f 4 8 10
f 4 10 9
f 4 9 6
f 5 9 10
f 5 10 7