# https://github.com/mikedh/trimesh
v -0.08612440 -0.00259762 0.05000000 0.11764706 0.63921569 0.14117647
v -0.09533968 0.00409706 0.05000000 0.11764706 0.63921569 0.14117647
v -0.08905048 -0.01160225 0.05000000 0.11764706 0.63921569 0.14117647
v -0.08612440 -0.00259762 0.00000000 0.11764706 0.63921569 0.14117647
v -0.10212543 0.00409706 0.05000000 0.11764706 0.63921569 0.14117647
v -0.09533968 0.00409706 0.00000000 0.11764706 0.63921569 0.14117647
v -0.10212543 -0.01160225 0.05000000 0.11764706 0.63921569 0.14117647
v -0.08905048 -0.01160225 0.00000000 0.11764706 0.63921569 0.14117647
v -0.10212543 0.00409706 0.00000000 0.11764706 0.63921569 0.14117647
v -0.10212543 -0.01160225 0.00000000 0.11764706 0.63921569 0.14117647
f 1 2 5
f 1 5 7
f 1 7 3
f 1 3 8
f 1 8 4
f 1 4 6
f 1 6 2
f 2 6 9
f 2 9 5
f 3 7 10
f 3 10 8
f 4 8 10
f 4 10 9
f 4 9 6
f 5 9 10
f 5 10 7