# https://github.com/mikedh/trimesh
v -0.09534049 0.00409921 0.05000000 0.79607843 0.45882353 0.78039216
v -0.09624336 0.01032823 0.05000000 0.79607843 0.45882353 0.78039216
v -0.10212634 0.00409921 0.05000000 0.79607843 0.45882353 0.78039216
v -0.09534049 0.00409921 0.00000000 0.79607843 0.45882353 0.78039216
v -0.10212634 0.01032823 0.05000000 0.79607843 0.45882353 0.78039216
v -0.09624336 0.01032823 0.00000000 0.79607843 0.45882353 0.78039216
v -0.10212634 0.00409921 0.00000000 0.79607843 0.45882353 0.78039216
v -0.10212634 0.01032823 0.00000000 0.79607843 0.45882353 0.78039216
f 1 2 5
f 1 5 3
f 1 3 7
f 1 7 4
f 1 4 6
f 1 6 2
f 2 6 8
f 2 8 5
f 3 5 8
f 3 8 7
f 4 7 8
f 4 8 6