# https://github.com/mikedh/trimesh
v -0.10212609 0.01032823 0.00000000 0.56470588 0.01568627 0.61568627
v -0.10212609 0.02306543 0.00000000 0.56470588 0.01568627 0.61568627
v -0.09624399 0.01032823 0.00000000 0.56470588 0.01568627 0.61568627
v -0.10212609 0.01032823 0.05000000 0.56470588 0.01568627 0.61568627
v -0.09286504 0.02306543 0.00000000 0.56470588 0.01568627 0.61568627
v -0.10212609 0.02306543 0.05000000 0.56470588 0.01568627 0.61568627
v -0.09286504 0.01202137 0.00000000 0.56470588 0.01568627 0.61568627
v -0.09624399 0.01032823 0.05000000 0.56470588 0.01568627 0.61568627
v -0.09286504 0.02306543 0.05000000 0.56470588 0.01568627 0.61568627
v -0.09286504 0.01202137 0.05000000 0.56470588 0.01568627 0.61568627
f 1 2 5
f 1 5 7
f 1 7 3
f 1 3 8
f 1 8 4
f 1 4 6
f 1 6 2
f 2 6 9
f 2 9 5
f 3 7 10
f 3 10 8
f 4 8 10
f 4 10 9
f 4 9 6
f 5 9 10
f 5 10 7