# https://github.com/mikedh/trimesh
v 0.04661637 -0.01166008 -0.01103994
v 0.04661637 -0.01166634 -0.01103394
v 0.04661637 -0.01181034 -0.01083684
v 0.04661637 -0.01149506 -0.01119808
v 0.04661637 -0.01148880 -0.01120408
v 0.04661637 -0.01148154 -0.01120894
v 0.04661637 -0.01131939 -0.01131774
v 0.04661637 -0.01128312 -0.01134208
v 0.04661637 -0.01191646 -0.01061878
v 0.04661637 -0.01191875 -0.01061058
v 0.04661637 -0.01192792 -0.01057779
v 0.04661637 -0.01198144 -0.01038636
v 0.04661637 -0.01198221 -0.01037791
v 0.04661637 -0.01198375 -0.01036100
v 0.04661637 -0.01200332 -0.01014666
v 0.04661637 -0.01105556 -0.01144378
v 0.04661637 -0.01101279 -0.01145476
v 0.04661637 -0.01081304 -0.01150604
v 0.04661637 -0.01076893 -0.01150974
v 0.04661637 -0.01056292 -0.01152702
v 0.05009244 -0.01166634 -0.01103394
v 0.05009244 -0.01181034 -0.01083684
v 0.05035708 -0.01164956 -0.01102046
v 0.05035708 -0.01179140 -0.01082636
v 0.05009244 -0.01148880 -0.01120408
v 0.05009244 -0.01128312 -0.01134208
v 0.05035708 -0.01147472 -0.01118800
v 0.05035708 -0.01127218 -0.01132392
v 0.05009244 -0.01191646 -0.01061878
v 0.05035708 -0.01189588 -0.01061160
v 0.05009244 -0.01198144 -0.01038636
v 0.05009244 -0.01200332 -0.01014666
v 0.05035708 -0.01195988 -0.01038272
v 0.05035708 -0.01198144 -0.01014666
v 0.05009244 -0.01105556 -0.01144378
v 0.05035708 -0.01104808 -0.01142406
v 0.05009244 -0.01081304 -0.01150604
v 0.05009244 -0.01056292 -0.01152702
v 0.05035708 -0.01080924 -0.01148540
v 0.05035708 -0.01056292 -0.01150604
v 0.05061368 -0.01159978 -0.01098042
v 0.05061368 -0.01143296 -0.01114030
v 0.05085444 -0.01151850 -0.01091506
v 0.05085444 -0.01136474 -0.01106240
v 0.05107204 -0.01140818 -0.01082636
v 0.05107204 -0.01127218 -0.01095668
v 0.05061368 -0.01183482 -0.01059030
v 0.05061368 -0.01173512 -0.01079522
v 0.05085444 -0.01164322 -0.01074438
v 0.05085444 -0.01173512 -0.01055552
v 0.05061368 -0.01189588 -0.01037190
v 0.05061368 -0.01191646 -0.01014666
v 0.05085444 -0.01179140 -0.01035424
v 0.05085444 -0.01181034 -0.01014666
v 0.05107204 -0.01164956 -0.01033028
v 0.05107204 -0.01166634 -0.01014666
v 0.05107204 -0.01151850 -0.01067538
v 0.05107204 -0.01159978 -0.01050832
v 0.05125988 -0.01127218 -0.01071700
v 0.05125988 -0.01136474 -0.01059030
v 0.05125988 -0.01143296 -0.01045014
v 0.05125988 -0.01147472 -0.01030074
v 0.05125988 -0.01148880 -0.01014666
v 0.05061368 -0.01123968 -0.01127000
v 0.05061368 -0.01102586 -0.01136554
v 0.05085444 -0.01118662 -0.01118192
v 0.05085444 -0.01098956 -0.01127000
v 0.05061368 -0.01079796 -0.01142406
v 0.05061368 -0.01056292 -0.01144378
v 0.05085444 -0.01077954 -0.01132392
v 0.05085444 -0.01056292 -0.01134208
v 0.05107204 -0.01111462 -0.01106240
v 0.05107204 -0.01094032 -0.01114030
v 0.05125988 -0.01115806 -0.01082636
v 0.05125988 -0.01102586 -0.01091506
v 0.05125988 -0.01087958 -0.01098042
v 0.05107204 -0.01075452 -0.01118800
v 0.05107204 -0.01056292 -0.01120408
v 0.05125988 -0.01072370 -0.01102046
v 0.05125988 -0.01056292 -0.01103394
v 0.05141226 -0.01127218 -0.01026652
v 0.05141226 -0.01128312 -0.01014666
v 0.05141226 -0.01068798 -0.01082636
v 0.05141226 -0.01056292 -0.01083684
v 0.05141226 -0.01118662 -0.01049176
v 0.05141226 -0.01111462 -0.01059030
v 0.05141226 -0.01102586 -0.01067538
v 0.05141226 -0.01092302 -0.01074438
v 0.05152452 -0.01094032 -0.01045014
v 0.05152452 -0.01087958 -0.01050832
v 0.05141226 -0.01123968 -0.01038272
v 0.05152452 -0.01098956 -0.01038272
v 0.05152452 -0.01102586 -0.01030814
v 0.05152452 -0.01104808 -0.01022864
v 0.05152452 -0.01105556 -0.01014666
v 0.05141226 -0.01080924 -0.01079522
v 0.05152452 -0.01080924 -0.01055552
v 0.05152452 -0.01073142 -0.01059030
v 0.05152452 -0.01064846 -0.01061160
v 0.05152452 -0.01056292 -0.01061878
v 0.05159328 -0.01075452 -0.01030074
v 0.05159328 -0.01072370 -0.01033028
v 0.05159328 -0.01079796 -0.01022864
v 0.05159328 -0.01080924 -0.01018828
v 0.05159328 -0.01081304 -0.01014666
v 0.05159328 -0.01077954 -0.01026652
v 0.05159328 -0.01064846 -0.01037190
v 0.05159328 -0.01060636 -0.01038272
v 0.05159328 -0.01068798 -0.01035424
v 0.05159328 -0.01056292 -0.01038636
v 0.05161644 -0.01056292 -0.01014666
v 0.05009244 -0.01200332 -0.00002412
v 0.05022476 -0.01199238 -0.00002412
v 0.05035708 -0.01198144 -0.00002412
v 0.05161644 -0.00960266 -0.00577556
v 0.05048538 -0.01194896 -0.00002412
v 0.05061368 -0.01191646 -0.00002412
v 0.05073406 -0.01186340 -0.00002412
v 0.05085444 -0.01181034 -0.00002412
v 0.05096324 -0.01173834 -0.00002412
v 0.05107204 -0.01166634 -0.00002412
v 0.05116596 -0.01157756 -0.00002412
v 0.05125988 -0.01148880 -0.00002412
v 0.05133608 -0.01138596 -0.00002412
v 0.05141226 -0.01128312 -0.00002412
v 0.05146840 -0.01116934 -0.00002412
v 0.05152452 -0.01105556 -0.00002412
v 0.05155890 -0.01093430 -0.00002412
v 0.05159328 -0.01081304 -0.00002412
v 0.05160486 -0.01068798 -0.00002412
v 0.05161644 -0.01056292 -0.00002412
v 0.04661637 -0.00123861 -0.01152702
v 0.05161644 -0.00048014 -0.00796112
v 0.05760206 -0.00504832 -0.00553886
v 0.05161644 -0.01008280 0.00216144
v 0.05161644 -0.00960266 0.00572734
v 0.04661637 -0.01200332 0.01009844
v 0.04661637 -0.01200255 0.01010689
v 0.04661637 -0.01198376 0.01031278
v 0.04661637 -0.01198144 0.01033814
v 0.04661637 -0.01197915 0.01034634
v 0.04661637 -0.01192334 0.01054597
v 0.04661637 -0.01191875 0.01056236
v 0.04661637 -0.01191646 0.01057056
v 0.04661637 -0.01182157 0.01076554
v 0.04661637 -0.01181409 0.01078093
v 0.04661637 -0.01181034 0.01078862
v 0.04661637 -0.01166634 0.01098572
v 0.04661637 -0.01148880 0.01115586
v 0.04661637 -0.01128312 0.01129386
v 0.04661637 -0.01127509 0.01129744
v 0.04661637 -0.01124299 0.01131179
v 0.04661637 -0.01105558 0.01139554
v 0.04661637 -0.01104703 0.01139774
v 0.04661637 -0.01101281 0.01140652
v 0.04661637 -0.01081304 0.01145782
v 0.04661637 -0.01056294 0.01147878
v 0.05009244 -0.01200332 0.01009844
v 0.05009244 -0.01198144 0.01033814
v 0.05035708 -0.01198144 0.01009844
v 0.05035708 -0.01195990 0.01033450
v 0.05009244 -0.01191646 0.01057056
v 0.05035708 -0.01189590 0.01056338
v 0.05009244 -0.01181034 0.01078862
v 0.05009244 -0.01166634 0.01098572
v 0.05035708 -0.01179140 0.01077814
v 0.05035708 -0.01164958 0.01097224
v 0.05009244 -0.01148880 0.01115586
v 0.05009244 -0.01128312 0.01129386
v 0.05035708 -0.01147474 0.01113978
v 0.05035708 -0.01127218 0.01127570
v 0.05009244 -0.01105558 0.01139554
v 0.05035708 -0.01104808 0.01137584
v 0.05009244 -0.01081304 0.01145782
v 0.05009244 -0.01056294 0.01147878
v 0.05035708 -0.01080926 0.01143716
v 0.05035708 -0.01056294 0.01145782
v 0.04661637 -0.00654923 0.01147878
v 0.05061368 -0.01191646 0.01009844
v 0.05061368 -0.01189590 0.01032368
v 0.05085444 -0.01181034 0.01009844
v 0.05085444 -0.01179140 0.01030602
v 0.05061368 -0.01183484 0.01054208
v 0.05061368 -0.01173512 0.01074700
v 0.05085444 -0.01173512 0.01050730
v 0.05085444 -0.01164322 0.01069616
v 0.05107204 -0.01166634 0.01009844
v 0.05107204 -0.01164958 0.01028206
v 0.05125988 -0.01148880 0.01009844
v 0.05125988 -0.01147474 0.01025252
v 0.05107204 -0.01159980 0.01046010
v 0.05107204 -0.01151850 0.01062714
v 0.05125988 -0.01143296 0.01040190
v 0.05125988 -0.01136476 0.01054208
v 0.05125988 -0.01127218 0.01066876
v 0.05061368 -0.01159980 0.01093220
v 0.05061368 -0.01143296 0.01109208
v 0.05085444 -0.01151850 0.01086684
v 0.05085444 -0.01136476 0.01101418
v 0.05107204 -0.01140818 0.01077814
v 0.05107204 -0.01127218 0.01090846
v 0.05061368 -0.01123970 0.01122176
v 0.05061368 -0.01102586 0.01131732
v 0.05085444 -0.01118664 0.01113370
v 0.05085444 -0.01098958 0.01122176
v 0.05061368 -0.01079796 0.01137584
v 0.05061368 -0.01056294 0.01139554
v 0.05085444 -0.01077954 0.01127570
v 0.05085444 -0.01056294 0.01129386
v 0.05107204 -0.01111464 0.01101418
v 0.05107204 -0.01094032 0.01109208
v 0.05125988 -0.01115806 0.01077814
v 0.05125988 -0.01102586 0.01086684
v 0.05125988 -0.01087960 0.01093220
v 0.05125988 -0.01072370 0.01097224
v 0.05125988 -0.01056294 0.01098572
v 0.05107204 -0.01075454 0.01113978
v 0.05107204 -0.01056294 0.01115586
v 0.05141226 -0.01128312 0.01009844
v 0.05141226 -0.01127218 0.01021828
v 0.05141226 -0.01123970 0.01033450
v 0.05152452 -0.01105558 0.01009844
v 0.05152452 -0.01104808 0.01018042
v 0.05152452 -0.01102586 0.01025990
v 0.05152452 -0.01098958 0.01033450
v 0.05141226 -0.01118664 0.01044352
v 0.05141226 -0.01111464 0.01054208
v 0.05152452 -0.01094032 0.01040190
v 0.05152452 -0.01087960 0.01046010
v 0.05141226 -0.01102586 0.01062714
v 0.05141226 -0.01092302 0.01069616
v 0.05159328 -0.01081304 0.01009844
v 0.05159328 -0.01080926 0.01014006
v 0.05159328 -0.01079796 0.01018042
v 0.05159328 -0.01077954 0.01021828
v 0.05159328 -0.01075454 0.01025252
v 0.05159328 -0.01072370 0.01028206
v 0.05159328 -0.01068800 0.01030602
v 0.05159328 -0.01064848 0.01032368
v 0.05159328 -0.01060636 0.01033450
v 0.05159328 -0.01056294 0.01033814
v 0.05161644 -0.01056294 0.01009844
v 0.05152452 -0.01080926 0.01050730
v 0.05152452 -0.01073142 0.01054208
v 0.05141226 -0.01080926 0.01074700
v 0.05152452 -0.01064848 0.01056338
v 0.05152452 -0.01056294 0.01057056
v 0.05141226 -0.01068800 0.01077814
v 0.05141226 -0.01056294 0.01078862
v 0.04661637 -0.00170852 0.01147879
v 0.05760206 -0.00455432 0.00549064
v 0.04661637 0.00167795 -0.01152701
v 0.05009244 0.00000000 -0.01152702
v 0.05022476 0.00000000 -0.01151652
v 0.05035708 0.00000000 -0.01150604
v 0.05048538 0.00000000 -0.01147490
v 0.05061368 0.00000000 -0.01144376
v 0.05073406 0.00000000 -0.01139292
v 0.05085444 0.00000000 -0.01134208
v 0.05096324 0.00000000 -0.01127308
v 0.05107204 0.00000000 -0.01120408
v 0.05116596 0.00000000 -0.01111900
v 0.05125988 0.00000000 -0.01103394
v 0.05133608 0.00000000 -0.01093538
v 0.05141226 0.00000000 -0.01083684
v 0.05146840 0.00000000 -0.01072780
v 0.05152452 0.00000000 -0.01061876
v 0.05155890 0.00000000 -0.01050256
v 0.05159328 0.00000000 -0.01038636
v 0.05160486 0.00000000 -0.01026652
v 0.05161644 0.00000000 -0.01014666
v 0.05161644 0.00000000 -0.00577556
v 0.04661637 0.00640774 -0.01152700
v 0.04661637 0.01056292 -0.01152700
v 0.04661637 0.01081304 -0.01150604
v 0.04661637 0.01105556 -0.01144376
v 0.04661637 0.01106359 -0.01144018
v 0.04661637 0.01109570 -0.01142583
v 0.04661637 0.01128312 -0.01134208
v 0.04661637 0.01148880 -0.01120406
v 0.04661637 0.01150758 -0.01118606
v 0.04661637 0.01166008 -0.01103994
v 0.04661637 0.01166634 -0.01103394
v 0.04661637 0.01181034 -0.01083684
v 0.04661637 0.01191646 -0.01061876
v 0.04661637 0.01192792 -0.01057777
v 0.04661637 0.01197456 -0.01041095
v 0.04661637 0.01198144 -0.01038636
v 0.04661637 0.01198221 -0.01037791
v 0.04661637 0.01198375 -0.01036099
v 0.04661637 0.01200332 -0.01014666
v 0.05009244 0.01056292 -0.01152700
v 0.05009244 0.01081304 -0.01150604
v 0.05035708 0.01056292 -0.01150604
v 0.05035708 0.01080924 -0.01148538
v 0.05009244 0.01105556 -0.01144376
v 0.05035708 0.01104808 -0.01142406
v 0.05009244 0.01128312 -0.01134208
v 0.05009244 0.01148880 -0.01120406
v 0.05035708 0.01127218 -0.01132392
v 0.05035708 0.01147472 -0.01118800
v 0.05009244 0.01166634 -0.01103394
v 0.05009244 0.01181034 -0.01083684
v 0.05035708 0.01164956 -0.01102044
v 0.05035708 0.01179138 -0.01082634
v 0.05009244 0.01191646 -0.01061876
v 0.05035708 0.01189588 -0.01061160
v 0.05009244 0.01198144 -0.01038636
v 0.05009244 0.01200332 -0.01014666
v 0.05035708 0.01195988 -0.01038272
v 0.05035708 0.01198144 -0.01014666
v 0.05061368 0.01056292 -0.01144376
v 0.05061368 0.01079796 -0.01142406
v 0.05085444 0.01056292 -0.01134208
v 0.05085444 0.01077954 -0.01132392
v 0.05061368 0.01102586 -0.01136554
v 0.05061368 0.01123968 -0.01126998
v 0.05085444 0.01098956 -0.01126998
v 0.05085444 0.01118664 -0.01118192
v 0.05107204 0.01056292 -0.01120406
v 0.05107204 0.01075452 -0.01118800
v 0.05125988 0.01056292 -0.01103394
v 0.05125988 0.01072370 -0.01102044
v 0.05107204 0.01094032 -0.01114030
v 0.05107204 0.01111462 -0.01106240
v 0.05125988 0.01087958 -0.01098042
v 0.05125988 0.01102586 -0.01091506
v 0.05125988 0.01115806 -0.01082634
v 0.05061368 0.01143296 -0.01114030
v 0.05061368 0.01159978 -0.01098042
v 0.05085444 0.01136474 -0.01106240
v 0.05085444 0.01151850 -0.01091506
v 0.05107204 0.01127218 -0.01095668
v 0.05107204 0.01140818 -0.01082634
v 0.05061368 0.01173512 -0.01079520
v 0.05061368 0.01183482 -0.01059030
v 0.05085444 0.01164322 -0.01074436
v 0.05085444 0.01173512 -0.01055552
v 0.05061368 0.01189588 -0.01037190
v 0.05061368 0.01191646 -0.01014666
v 0.05085444 0.01179138 -0.01035424
v 0.05085444 0.01181034 -0.01014666
v 0.05107204 0.01151850 -0.01067536
v 0.05107204 0.01159978 -0.01050832
v 0.05125988 0.01127218 -0.01071698
v 0.05125988 0.01136474 -0.01059030
v 0.05125988 0.01143296 -0.01045012
v 0.05125988 0.01147472 -0.01030074
v 0.05125988 0.01148880 -0.01014666
v 0.05107204 0.01164956 -0.01033028
v 0.05107204 0.01166632 -0.01014666
v 0.05141226 0.01056292 -0.01083684
v 0.05141226 0.01068798 -0.01082634
v 0.05152452 0.01056292 -0.01061876
v 0.05152452 0.01064846 -0.01061160
v 0.05141226 0.01080924 -0.01079522
v 0.05152452 0.01073142 -0.01059030
v 0.05152452 0.01080924 -0.01055552
v 0.05159328 0.01056292 -0.01038636
v 0.05159328 0.01060636 -0.01038272
v 0.05159328 0.01064846 -0.01037190
v 0.05159328 0.01068798 -0.01035424
v 0.05159328 0.01072370 -0.01033028
v 0.05159328 0.01075452 -0.01030074
v 0.05159328 0.01077954 -0.01026650
v 0.05159328 0.01079796 -0.01022864
v 0.05159328 0.01080924 -0.01018828
v 0.05159328 0.01081304 -0.01014666
v 0.05161644 0.01056292 -0.01014666
v 0.05141226 0.01092302 -0.01074436
v 0.05141226 0.01102586 -0.01067536
v 0.05152452 0.01087958 -0.01050832
v 0.05152452 0.01094032 -0.01045012
v 0.05141226 0.01111462 -0.01059030
v 0.05141226 0.01118664 -0.01049174
v 0.05152452 0.01098956 -0.01038272
v 0.05152452 0.01102586 -0.01030812
v 0.05152452 0.01104808 -0.01022864
v 0.05152452 0.01105556 -0.01014666
v 0.05141226 0.01123968 -0.01038272
v 0.05141226 0.01127218 -0.01026650
v 0.05141226 0.01128312 -0.01014666
v 0.05161644 0.00960266 -0.00577556
v 0.05760206 0.00455432 -0.00553886
v 0.05161644 0.00000000 0.00572734
v 0.04661637 0.00115260 0.01147880
v 0.05009244 0.00000000 0.01147880
v 0.05022476 0.00000000 0.01146830
v 0.05035708 0.00000000 0.01145782
v 0.05161644 0.00048012 0.00791290
v 0.05048538 0.00000000 0.01142668
v 0.05061368 0.00000000 0.01139556
v 0.05085444 0.00000000 0.01129386
v 0.05073406 0.00000000 0.01134470
v 0.05133608 0.00000000 0.01088718
v 0.05116596 0.00000000 0.01107078
v 0.05125988 0.00000000 0.01098572
v 0.05096324 0.00000000 0.01122486
v 0.05107204 0.00000000 0.01115586
v 0.05159328 0.00000000 0.01033814
v 0.05161644 0.00000000 0.01009844
v 0.05160486 0.00000000 0.01021830
v 0.05155890 0.00000000 0.01045436
v 0.05152452 0.00000000 0.01057056
v 0.05146840 0.00000000 0.01067958
v 0.05141226 0.00000000 0.01078862
v 0.05009244 0.01200332 -0.00002410
v 0.05022476 0.01199238 -0.00002410
v 0.05035708 0.01198144 -0.00002410
v 0.05161644 0.01008278 0.00216144
v 0.05048538 0.01194894 -0.00002410
v 0.05061368 0.01191646 -0.00002410
v 0.05085444 0.01181034 -0.00002410
v 0.05073406 0.01186340 -0.00002410
v 0.05133608 0.01138596 -0.00002410
v 0.05116596 0.01157756 -0.00002410
v 0.05125988 0.01148878 -0.00002410
v 0.05096324 0.01173834 -0.00002410
v 0.05107204 0.01166632 -0.00002410
v 0.05159328 0.01081304 -0.00002410
v 0.05161644 0.01056292 -0.00002410
v 0.05160486 0.01068798 -0.00002410
v 0.05155890 0.01093430 -0.00002410
v 0.05152452 0.01105556 -0.00002410
v 0.05146840 0.01116934 -0.00002410
v 0.05141226 0.01128312 -0.00002410
v 0.05161644 0.00960266 0.00572734
v 0.04661637 0.01056292 0.01147880
v 0.04661637 0.01060703 0.01147510
v 0.04661637 0.01080422 0.01145857
v 0.04661637 0.01081304 0.01145782
v 0.04661637 0.01105556 0.01139556
v 0.04661637 0.01200332 0.01009846
v 0.04661637 0.01197914 0.01034634
v 0.04661637 0.01198221 0.01032969
v 0.04661637 0.01198375 0.01031278
v 0.04661637 0.01198144 0.01033814
v 0.04661637 0.01196998 0.01037913
v 0.04661637 0.01191644 0.01057056
v 0.04661637 0.01191270 0.01057825
v 0.04661637 0.01182905 0.01075017
v 0.04661637 0.01128312 0.01129386
v 0.04661637 0.01145251 0.01118020
v 0.04661637 0.01148878 0.01115586
v 0.04661637 0.01181034 0.01078862
v 0.04661637 0.01163501 0.01101573
v 0.04661637 0.01166632 0.01098572
v 0.04661637 0.01166006 0.01099172
v 0.05009244 0.01056292 0.01147880
v 0.05009244 0.01081304 0.01145782
v 0.05035708 0.01056292 0.01145782
v 0.05035306 0.01081304 0.01143718
v 0.05009244 0.01105556 0.01139556
v 0.05034112 0.01105556 0.01137584
v 0.05009244 0.01200332 0.01009846
v 0.05009244 0.01198144 0.01033814
v 0.05013838 0.01198144 0.01033450
v 0.05035708 0.01198144 0.01009846
v 0.05035306 0.01198144 0.01014008
v 0.05032162 0.01198144 0.01021830
v 0.05034112 0.01198144 0.01018042
v 0.05022476 0.01198144 0.01030604
v 0.05029516 0.01198144 0.01025252
v 0.05026254 0.01198144 0.01028208
v 0.05018294 0.01198144 0.01032370
v 0.05009244 0.01191644 0.01057056
v 0.05035306 0.01181034 0.01074700
v 0.05018294 0.01191644 0.01056338
v 0.05027070 0.01191644 0.01054208
v 0.05035306 0.01191644 0.01050732
v 0.05009244 0.01128312 0.01129386
v 0.05009244 0.01148878 0.01115586
v 0.05032162 0.01128312 0.01127570
v 0.05029516 0.01148878 0.01113980
v 0.05009244 0.01181034 0.01078862
v 0.05009244 0.01166632 0.01098572
v 0.05022476 0.01181034 0.01077814
v 0.05026254 0.01166632 0.01097224
v 0.05133266 0.01105556 0.01074700
v 0.05061368 0.01056292 0.01139556
v 0.05060576 0.01081304 0.01137584
v 0.05085444 0.01056292 0.01129386
v 0.05084286 0.01081304 0.01127570
v 0.05058224 0.01105556 0.01131732
v 0.05080848 0.01105556 0.01122178
v 0.05125988 0.01056292 0.01098572
v 0.05124216 0.01081304 0.01097224
v 0.05107204 0.01056292 0.01115586
v 0.05105716 0.01081304 0.01113980
v 0.05101296 0.01105556 0.01109210
v 0.05118948 0.01105556 0.01093222
v 0.05061368 0.01191644 0.01009846
v 0.05060576 0.01191644 0.01018042
v 0.05058224 0.01191644 0.01025992
v 0.05054384 0.01191644 0.01033450
v 0.05085444 0.01181034 0.01009846
v 0.05084286 0.01181034 0.01021830
v 0.05080848 0.01181034 0.01033450
v 0.05047342 0.01181034 0.01069616
v 0.05058224 0.01181034 0.01062716
v 0.05042748 0.01191644 0.01046010
v 0.05049172 0.01191644 0.01040192
v 0.05075234 0.01181034 0.01044354
v 0.05067616 0.01181034 0.01054208
v 0.05084286 0.01166632 0.01066878
v 0.05125988 0.01148878 0.01009846
v 0.05124216 0.01148878 0.01028208
v 0.05110348 0.01148878 0.01062716
v 0.05133266 0.01128312 0.01050732
v 0.05123544 0.01128312 0.01069616
v 0.05118948 0.01148878 0.01046010
v 0.05107204 0.01166632 0.01009846
v 0.05105716 0.01166632 0.01025252
v 0.05094080 0.01166632 0.01054208
v 0.05101296 0.01166632 0.01040192
v 0.05049172 0.01148878 0.01109210
v 0.05084286 0.01148878 0.01090848
v 0.05067616 0.01148878 0.01101420
v 0.05054384 0.01128312 0.01122178
v 0.05075234 0.01128312 0.01113372
v 0.05042748 0.01166632 0.01093222
v 0.05058224 0.01166632 0.01086686
v 0.05072210 0.01166632 0.01077814
v 0.05110348 0.01128312 0.01086686
v 0.05094080 0.01128312 0.01101420
v 0.05098676 0.01148878 0.01077814
v 0.05159328 0.01056292 0.01033814
v 0.05159328 0.01081304 0.01009846
v 0.05157048 0.01081304 0.01033450
v 0.05161644 0.01056292 0.01009846
v 0.05152452 0.01056292 0.01057056
v 0.05150276 0.01081304 0.01056338
v 0.05152452 0.01105556 0.01009846
v 0.05150276 0.01105556 0.01032370
v 0.05143816 0.01105556 0.01054208
v 0.05141226 0.01056292 0.01078862
v 0.05139220 0.01081304 0.01077814
v 0.05141226 0.01128312 0.01009846
v 0.05139220 0.01128312 0.01030604
v 0.05760206 0.00504832 0.00549064
v 0.06358768 -0.00910866 -0.00530216
v 0.06358768 -0.00049400 -0.00530216
v 0.07555890 -0.00861466 -0.00482874
v 0.07568770 -0.00860416 -0.00481868
v 0.07581508 -0.00858338 -0.00479878
v 0.07594012 -0.00855246 -0.00476916
v 0.07606196 -0.00851166 -0.00473004
v 0.07617970 -0.00846124 -0.00468174
v 0.07629250 -0.00840156 -0.00462454
v 0.07639954 -0.00833308 -0.00455892
v 0.07650006 -0.00825626 -0.00448530
v 0.07667866 -0.00807992 -0.00431630
v 0.07682320 -0.00787760 -0.00412242
v 0.07692952 -0.00765512 -0.00390922
v 0.07699454 -0.00741886 -0.00368282
v 0.07701642 -0.00717562 -0.00344970
v 0.07587760 -0.00001546 -0.00478396
v 0.07600104 -0.00002040 -0.00474960
v 0.07634602 -0.00003424 -0.00459172
v 0.07658936 -0.00008818 -0.00440080
v 0.07675092 -0.00010116 -0.00421936
v 0.07687636 -0.00011124 -0.00401582
v 0.07696204 -0.00011814 -0.00379602
v 0.07700548 -0.00012162 -0.00356626
v 0.06358768 -0.00910866 0.00044930
v 0.06358768 -0.00910866 0.00525394
v 0.07667866 -0.00807992 0.00426808
v 0.07682320 -0.00787760 0.00407420
v 0.07692952 -0.00765512 0.00386100
v 0.07555890 -0.00861466 0.00478052
v 0.07568770 -0.00860416 0.00477046
v 0.07581508 -0.00858338 0.00475056
v 0.07594012 -0.00855248 0.00472094
v 0.07606196 -0.00851166 0.00468182
v 0.07617970 -0.00846124 0.00463350
v 0.07629250 -0.00840158 0.00457632
v 0.07650006 -0.00825628 0.00443708
v 0.07639954 -0.00833308 0.00451070
v 0.07701642 -0.00717562 0.00340148
v 0.07699454 -0.00741886 0.00363460
v 0.06957330 -0.00406032 0.00501722
v 0.07587760 -0.00001546 0.00473574
v 0.07600104 -0.00002040 0.00470138
v 0.07634602 -0.00003424 0.00454352
v 0.07644980 -0.00003842 0.00447390
v 0.06358768 0.00910866 -0.00530214
v 0.06358768 0.00910864 -0.00049752
v 0.06957330 0.00406032 -0.00506544
v 0.07555890 0.00000000 -0.00482874
v 0.07562330 0.00000524 -0.00482372
v 0.07568770 0.00000000 -0.00481868
v 0.07575138 0.00001038 -0.00480872
v 0.07581508 0.00000000 -0.00479876
v 0.07594012 0.00000000 -0.00476916
v 0.07606196 0.00000000 -0.00473004
v 0.07612082 0.00002522 -0.00470588
v 0.07617970 0.00000000 -0.00468172
v 0.07623610 0.00002984 -0.00465314
v 0.07629250 0.00000000 -0.00462454
v 0.07639954 0.00000000 -0.00455892
v 0.07644980 0.00003840 -0.00452210
v 0.07650006 0.00000000 -0.00448530
v 0.07667866 0.00000000 -0.00431630
v 0.07682320 0.00000000 -0.00412242
v 0.07692952 0.00000000 -0.00390922
v 0.07699454 0.00000000 -0.00368282
v 0.07699454 0.00741886 -0.00368280
v 0.07701642 0.00717562 -0.00344970
v 0.07555890 0.00861464 -0.00482874
v 0.07568770 0.00860414 -0.00481868
v 0.07581508 0.00858338 -0.00479876
v 0.07594012 0.00855246 -0.00476916
v 0.07606196 0.00851166 -0.00473004
v 0.07629250 0.00840156 -0.00462454
v 0.07617970 0.00846124 -0.00468172
v 0.07639954 0.00833308 -0.00455890
v 0.07650006 0.00825626 -0.00448530
v 0.07692952 0.00765512 -0.00390922
v 0.07667866 0.00807992 -0.00431630
v 0.07682320 0.00787760 -0.00412242
v 0.06358768 0.00049400 0.00525394
v 0.06358768 0.00910864 0.00525394
v 0.07701642 0.00000000 -0.00002410
v 0.07700548 0.00012162 0.00351804
v 0.07699454 0.00000000 0.00363460
v 0.07696204 0.00011812 0.00374780
v 0.07692952 0.00000000 0.00386100
v 0.07667866 0.00000000 0.00426810
v 0.07675092 0.00010116 0.00417114
v 0.07682320 0.00000000 0.00407420
v 0.07687636 0.00011124 0.00396760
v 0.07555890 0.00000000 0.00478052
v 0.07562330 0.00000524 0.00477550
v 0.07568770 0.00000000 0.00477046
v 0.07575138 0.00001038 0.00476052
v 0.07581508 0.00000000 0.00475056
v 0.07594012 0.00000000 0.00472094
v 0.07606196 0.00000000 0.00468182
v 0.07617970 0.00000000 0.00463352
v 0.07623610 0.00002982 0.00460492
v 0.07629250 0.00000000 0.00457632
v 0.07650006 0.00000000 0.00443708
v 0.07639954 0.00000000 0.00451070
v 0.07612082 0.00002520 0.00465766
v 0.07658936 0.00008816 0.00435258
v 0.07701642 0.00717562 0.00340150
v 0.07699454 0.00741886 0.00363460
v 0.07692952 0.00765512 0.00386100
v 0.07667866 0.00807992 0.00426810
v 0.07682320 0.00787760 0.00407422
v 0.07555890 0.00861464 0.00478052
v 0.07568770 0.00860414 0.00477046
v 0.07581508 0.00858336 0.00475056
v 0.07594012 0.00855246 0.00472094
v 0.07606196 0.00851166 0.00468182
v 0.07629250 0.00840156 0.00457634
v 0.07617970 0.00846124 0.00463352
v 0.07650006 0.00825626 0.00443708
v 0.07639954 0.00833308 0.00451070
f 21 2 1
f 22 3 2
f 25 4 5
f 25 5 6
f 25 6 7
f 26 7 8
f 21 1 4
f 29 9 3
f 29 10 9
f 29 11 10
f 31 12 11
f 31 13 12
f 31 14 13
f 32 15 14
f 26 8 16
f 35 16 17
f 37 17 18
f 37 18 19
f 38 19 20
f 21 22 2
f 25 7 26
f 21 4 25
f 22 29 3
f 29 31 11
f 31 32 14
f 26 16 35
f 35 17 37
f 37 19 38
f 21 24 22
f 21 23 24
f 25 26 27
f 27 26 28
f 21 25 23
f 23 25 27
f 22 24 30
f 22 30 29
f 29 33 31
f 29 30 33
f 31 33 34
f 31 34 32
f 26 35 28
f 28 35 36
f 35 37 36
f 36 37 39
f 37 38 39
f 39 38 40
f 32 112 15
f 32 34 113
f 38 20 132
f 38 254 40
f 23 48 24
f 23 41 48
f 41 49 48
f 27 28 42
f 28 64 42
f 44 64 66
f 23 27 41
f 27 42 41
f 41 42 43
f 41 43 49
f 42 64 44
f 42 44 43
f 44 66 46
f 43 44 45
f 44 46 45
f 45 46 59
f 24 47 30
f 30 51 33
f 30 47 51
f 24 48 47
f 47 48 50
f 48 49 50
f 47 50 53
f 33 51 52
f 33 52 34
f 47 53 51
f 51 53 54
f 51 54 52
f 49 58 50
f 50 58 55
f 50 55 53
f 53 55 56
f 53 56 54
f 43 57 49
f 49 57 58
f 43 45 57
f 57 61 58
f 45 60 57
f 45 59 60
f 57 60 61
f 59 85 60
f 60 91 61
f 60 85 91
f 55 58 62
f 58 61 62
f 55 63 56
f 55 62 63
f 61 81 62
f 61 91 81
f 62 82 63
f 62 81 82
f 64 36 65
f 28 36 64
f 36 39 65
f 64 65 66
f 65 67 66
f 65 68 67
f 65 39 68
f 39 40 68
f 68 40 69
f 68 69 70
f 68 70 67
f 69 71 70
f 66 67 72
f 67 70 73
f 46 66 72
f 67 73 72
f 46 72 74
f 46 74 59
f 72 75 74
f 72 73 75
f 73 76 75
f 75 76 88
f 73 70 77
f 70 71 77
f 77 71 78
f 73 77 76
f 76 77 79
f 76 79 96
f 76 96 88
f 79 83 96
f 77 78 79
f 78 80 79
f 79 80 83
f 80 84 83
f 59 74 86
f 74 75 87
f 74 87 86
f 59 86 85
f 75 88 87
f 85 86 92
f 87 88 90
f 86 87 89
f 86 89 92
f 87 90 89
f 81 91 94
f 85 93 91
f 85 92 93
f 91 93 94
f 81 95 82
f 81 94 95
f 89 106 92
f 92 103 93
f 94 105 95
f 93 104 94
f 94 104 105
f 88 96 97
f 83 98 96
f 96 98 97
f 88 97 90
f 90 97 102
f 97 98 109
f 83 84 99
f 83 99 98
f 84 100 99
f 98 99 107
f 99 100 108
f 99 108 107
f 100 110 108
f 89 90 101
f 90 102 101
f 92 106 103
f 89 101 106
f 97 109 102
f 93 103 104
f 101 111 106
f 103 111 104
f 103 106 111
f 104 111 105
f 98 107 109
f 102 109 111
f 107 111 109
f 107 108 111
f 108 110 111
f 101 102 111
f 34 52 116
f 52 54 118
f 54 56 120
f 56 63 122
f 63 82 124
f 82 95 126
f 95 105 128
f 105 111 130
f 40 256 69
f 69 258 71
f 71 260 78
f 78 262 80
f 80 264 84
f 84 266 100
f 100 268 110
f 110 270 111
f 111 133 115
f 32 113 112
f 34 114 113
f 34 116 114
f 112 158 15
f 52 117 116
f 52 118 117
f 54 119 118
f 54 120 119
f 56 121 120
f 56 122 121
f 63 123 122
f 63 124 123
f 82 125 124
f 82 126 125
f 95 127 126
f 95 128 127
f 105 129 128
f 105 130 129
f 111 131 130
f 111 115 131
f 115 135 131
f 38 132 253
f 38 253 254
f 40 254 255
f 40 255 256
f 69 256 257
f 69 257 258
f 71 258 259
f 71 259 260
f 78 260 261
f 78 261 262
f 80 262 263
f 80 263 264
f 84 264 265
f 84 265 266
f 100 266 267
f 100 267 268
f 110 268 269
f 110 269 270
f 111 270 271
f 111 271 133
f 115 133 272
f 115 272 134
f 115 134 541
f 115 541 565
f 134 272 542
f 541 134 542
f 158 137 15
f 112 113 158
f 113 114 160
f 114 116 160
f 115 136 135
f 116 117 179
f 117 118 179
f 118 119 181
f 119 120 181
f 120 121 187
f 121 122 187
f 122 123 189
f 123 124 189
f 124 125 219
f 125 126 219
f 126 127 222
f 127 128 222
f 128 129 232
f 129 130 232
f 130 131 242
f 131 135 242
f 113 160 158
f 158 138 137
f 159 139 138
f 159 140 139
f 159 141 140
f 162 142 141
f 162 143 142
f 162 144 143
f 164 145 144
f 164 146 145
f 164 147 146
f 165 148 147
f 168 149 148
f 169 150 149
f 169 151 150
f 169 152 151
f 172 153 152
f 172 154 153
f 172 155 154
f 174 156 155
f 175 157 156
f 175 178 157
f 158 159 138
f 159 162 141
f 162 164 144
f 164 165 147
f 165 168 148
f 168 169 149
f 169 172 152
f 172 174 155
f 174 175 156
f 158 160 161
f 158 161 159
f 159 161 163
f 159 163 162
f 162 163 166
f 162 166 164
f 164 166 167
f 164 167 165
f 165 170 168
f 165 167 170
f 168 170 171
f 168 171 169
f 169 171 173
f 169 173 172
f 172 176 174
f 172 173 176
f 174 176 177
f 174 177 175
f 175 177 388
f 116 179 160
f 118 181 179
f 120 187 181
f 122 189 187
f 124 219 189
f 126 222 219
f 128 232 222
f 130 242 232
f 135 136 242
f 160 179 180
f 160 180 161
f 161 180 183
f 179 181 182
f 179 182 180
f 180 182 185
f 161 183 163
f 163 183 184
f 163 184 166
f 180 185 183
f 183 186 184
f 183 185 186
f 181 187 188
f 181 188 182
f 182 188 191
f 182 191 185
f 185 192 186
f 187 190 188
f 187 189 190
f 188 193 191
f 188 190 193
f 189 220 190
f 189 219 220
f 190 221 193
f 190 220 221
f 193 221 226
f 185 191 192
f 186 192 200
f 191 193 194
f 191 194 192
f 193 226 194
f 192 194 195
f 192 195 200
f 195 212 200
f 184 196 166
f 166 196 167
f 184 186 198
f 167 196 197
f 167 197 170
f 184 198 196
f 196 198 199
f 196 199 197
f 197 199 204
f 197 202 170
f 170 202 171
f 197 204 202
f 186 200 198
f 198 201 199
f 198 200 201
f 200 212 201
f 194 226 227
f 194 227 195
f 195 227 230
f 195 230 212
f 230 231 212
f 171 202 203
f 171 203 173
f 173 203 206
f 173 206 176
f 202 205 203
f 202 204 205
f 203 205 208
f 206 207 176
f 176 207 177
f 203 208 206
f 206 208 209
f 206 209 207
f 201 210 199
f 199 210 204
f 210 211 204
f 201 213 210
f 201 212 213
f 210 213 214
f 231 213 212
f 231 245 213
f 245 214 213
f 210 214 211
f 211 205 204
f 211 217 205
f 245 248 214
f 214 248 215
f 214 215 211
f 211 215 217
f 215 248 249
f 215 249 216
f 216 218 217
f 215 216 217
f 205 217 208
f 217 218 208
f 208 218 209
f 219 223 220
f 219 222 223
f 220 223 224
f 220 224 221
f 221 225 226
f 221 224 225
f 222 232 233
f 222 233 223
f 223 234 224
f 223 233 234
f 225 228 226
f 224 235 225
f 225 236 228
f 226 228 227
f 227 229 230
f 227 228 229
f 229 243 230
f 230 243 231
f 224 234 235
f 232 242 233
f 233 242 234
f 234 242 235
f 235 242 236
f 225 235 236
f 228 237 229
f 228 236 237
f 229 237 238
f 238 239 243
f 236 242 237
f 237 242 238
f 242 239 238
f 242 240 239
f 239 240 244
f 242 241 240
f 229 238 243
f 239 244 243
f 231 244 245
f 245 246 248
f 231 243 244
f 244 246 245
f 240 246 244
f 240 241 246
f 241 247 246
f 247 249 248
f 246 247 248
f 136 401 242
f 177 207 391
f 207 209 394
f 249 395 216
f 216 396 218
f 218 398 209
f 242 402 241
f 241 403 247
f 247 405 249
f 136 251 385
f 175 387 178
f 175 388 387
f 177 389 388
f 177 391 389
f 387 250 178
f 387 386 250
f 136 385 390
f 136 390 401
f 207 394 392
f 207 392 391
f 209 398 393
f 209 393 394
f 216 397 396
f 216 395 397
f 218 399 398
f 218 396 399
f 241 402 400
f 241 400 403
f 242 401 402
f 247 403 404
f 249 405 406
f 247 404 405
f 249 406 395
f 115 565 136
f 136 566 251
f 136 565 566
f 251 621 385
f 566 621 251
f 253 132 252
f 253 252 273
f 254 253 292
f 254 294 255
f 255 294 256
f 253 273 292
f 256 312 257
f 257 312 258
f 258 314 259
f 259 314 260
f 260 320 261
f 261 320 262
f 262 322 263
f 263 322 264
f 264 352 265
f 265 352 266
f 266 354 267
f 267 354 268
f 268 359 269
f 269 359 270
f 270 369 271
f 133 271 383
f 133 383 272
f 272 383 384
f 254 292 294
f 292 273 274
f 292 274 275
f 293 275 276
f 296 276 277
f 296 277 278
f 298 278 279
f 298 279 280
f 299 280 281
f 299 281 282
f 302 282 283
f 302 283 284
f 303 284 285
f 306 285 286
f 308 286 287
f 308 287 288
f 308 288 289
f 308 289 290
f 308 290 291
f 292 275 293
f 293 276 296
f 296 278 298
f 298 280 299
f 299 282 302
f 302 284 303
f 303 285 306
f 306 286 308
f 308 291 309
f 292 293 294
f 294 293 295
f 293 296 295
f 295 296 297
f 296 298 297
f 297 298 300
f 298 299 300
f 300 299 301
f 299 302 301
f 301 302 304
f 302 303 304
f 304 303 305
f 303 306 305
f 305 306 307
f 306 308 307
f 307 308 310
f 308 309 310
f 310 309 311
f 309 408 311
f 256 294 312
f 258 312 314
f 260 314 320
f 262 320 322
f 264 322 352
f 266 352 354
f 268 354 359
f 270 359 369
f 271 369 383
f 294 295 312
f 312 295 313
f 312 313 314
f 313 316 315
f 313 315 314
f 295 297 313
f 313 297 316
f 297 300 316
f 316 300 317
f 316 318 315
f 316 317 318
f 317 319 318
f 314 315 320
f 320 315 321
f 315 318 321
f 320 321 322
f 321 323 322
f 322 323 352
f 352 323 353
f 321 324 323
f 323 324 326
f 353 323 326
f 353 326 356
f 321 318 324
f 318 319 324
f 319 325 324
f 319 331 325
f 325 331 333
f 324 325 326
f 326 325 327
f 326 327 356
f 327 370 356
f 327 328 370
f 327 325 333
f 327 333 328
f 328 371 370
f 328 345 371
f 371 345 374
f 374 345 346
f 374 346 375
f 317 300 301
f 317 301 329
f 317 329 319
f 301 304 329
f 329 304 330
f 319 329 331
f 329 330 331
f 330 335 332
f 330 332 331
f 330 304 305
f 330 305 335
f 332 335 337
f 331 332 333
f 333 332 334
f 334 332 337
f 328 333 334
f 305 307 335
f 335 307 336
f 307 310 336
f 335 336 337
f 336 338 337
f 336 339 338
f 336 310 339
f 339 310 311
f 339 311 340
f 339 341 338
f 339 340 341
f 340 342 341
f 334 337 343
f 343 338 344
f 328 334 345
f 334 343 345
f 345 343 346
f 375 346 347
f 346 343 344
f 346 344 347
f 375 347 380
f 380 348 381
f 380 347 348
f 381 349 382
f 381 348 349
f 347 350 348
f 347 344 350
f 348 350 351
f 348 351 349
f 343 337 338
f 344 338 341
f 344 341 350
f 350 341 342
f 350 342 351
f 352 353 354
f 353 355 354
f 354 355 359
f 355 360 359
f 355 357 360
f 353 356 355
f 356 370 357
f 355 356 357
f 357 370 358
f 357 358 361
f 358 372 362
f 359 360 369
f 357 361 360
f 360 361 369
f 361 362 369
f 362 363 369
f 369 363 364
f 358 362 361
f 362 372 363
f 363 373 364
f 363 372 373
f 364 376 365
f 369 364 365
f 369 365 366
f 369 366 367
f 369 367 368
f 365 377 366
f 358 370 371
f 371 374 372
f 358 371 372
f 372 374 373
f 373 374 375
f 364 373 376
f 365 376 377
f 373 375 376
f 366 378 367
f 366 377 378
f 367 378 379
f 367 379 368
f 375 380 376
f 377 380 381
f 376 380 377
f 378 381 382
f 377 381 378
f 378 382 379
f 311 411 340
f 340 414 342
f 382 349 415
f 349 351 416
f 351 342 418
f 369 368 422
f 368 379 423
f 379 382 425
f 309 291 433
f 309 407 408
f 311 408 409
f 311 409 411
f 369 421 383
f 340 412 414
f 340 411 412
f 342 413 418
f 342 414 413
f 349 416 417
f 349 417 415
f 351 418 419
f 351 419 416
f 368 420 422
f 368 423 420
f 369 422 421
f 379 424 423
f 382 426 425
f 379 425 424
f 382 415 426
f 383 421 410
f 542 272 384
f 542 384 586
f 384 383 586
f 383 427 587
f 383 587 586
f 385 540 427
f 387 449 386
f 387 388 449
f 388 389 451
f 391 451 389
f 385 427 390
f 390 530 401
f 394 480 392
f 391 392 480
f 398 482 393
f 394 393 482
f 397 486 396
f 395 486 397
f 399 488 398
f 396 488 399
f 402 527 400
f 400 527 403
f 401 530 402
f 403 531 404
f 405 536 406
f 404 531 405
f 406 536 395
f 309 433 407
f 408 407 455
f 408 458 409
f 411 409 458
f 383 410 427
f 410 421 530
f 414 412 492
f 411 492 412
f 418 413 496
f 414 496 413
f 417 416 506
f 415 417 506
f 419 418 512
f 416 419 512
f 422 420 528
f 420 423 528
f 421 422 530
f 423 424 533
f 425 426 538
f 424 425 533
f 426 415 538
f 449 428 386
f 388 451 449
f 407 433 455
f 408 455 458
f 449 429 428
f 450 430 429
f 450 431 430
f 453 432 431
f 471 442 432
f 455 433 436
f 456 434 438
f 456 436 435
f 456 437 434
f 456 435 437
f 466 438 439
f 466 439 440
f 466 440 441
f 472 446 444
f 471 443 442
f 472 444 443
f 475 445 447
f 476 448 446
f 476 447 448
f 475 441 445
f 449 450 429
f 450 453 431
f 453 471 432
f 455 436 456
f 456 438 466
f 466 441 475
f 472 476 446
f 471 472 443
f 475 447 476
f 449 451 450
f 451 452 450
f 453 454 471
f 450 452 453
f 452 454 453
f 454 473 471
f 454 484 473
f 455 456 457
f 455 457 465
f 455 465 462
f 455 459 458
f 455 463 460
f 455 464 463
f 455 461 459
f 455 460 461
f 461 460 494
f 455 462 464
f 465 457 469
f 462 465 470
f 460 463 495
f 462 501 464
f 463 464 502
f 464 501 502
f 457 456 468
f 456 466 468
f 466 477 468
f 466 475 477
f 457 468 469
f 465 469 470
f 462 470 501
f 467 469 468
f 467 468 477
f 499 469 467
f 499 470 469
f 472 474 476
f 474 478 476
f 516 521 478
f 516 478 474
f 471 473 472
f 473 474 472
f 473 519 474
f 475 476 478
f 477 475 478
f 477 478 521
f 467 477 521
f 390 427 530
f 391 480 451
f 394 482 480
f 395 536 486
f 396 486 488
f 398 488 482
f 402 530 527
f 403 527 531
f 405 531 536
f 410 530 427
f 411 458 492
f 414 492 496
f 415 506 538
f 416 512 506
f 418 496 512
f 422 528 530
f 423 533 528
f 425 538 533
f 535 510 479
f 535 509 510
f 451 480 452
f 480 481 452
f 480 482 481
f 481 482 483
f 481 454 452
f 481 484 454
f 484 519 473
f 485 519 484
f 485 484 483
f 481 483 484
f 485 520 519
f 485 490 520
f 536 487 486
f 486 489 488
f 536 537 487
f 486 487 489
f 488 483 482
f 488 489 483
f 487 490 489
f 491 524 525
f 490 525 520
f 491 525 490
f 537 491 487
f 479 491 537
f 487 491 490
f 479 524 491
f 479 510 524
f 485 483 489
f 485 489 490
f 505 523 526
f 458 459 492
f 459 461 493
f 492 459 493
f 461 494 493
f 460 495 494
f 463 502 495
f 498 494 495
f 495 502 503
f 498 503 515
f 492 493 496
f 493 494 497
f 493 497 496
f 498 497 494
f 498 495 503
f 500 499 523
f 504 502 501
f 500 501 470
f 503 502 504
f 504 501 500
f 500 470 499
f 503 504 514
f 500 523 505
f 504 500 505
f 504 505 514
f 507 513 515
f 538 506 507
f 538 507 539
f 539 507 511
f 506 513 507
f 506 512 513
f 507 515 511
f 510 508 526
f 511 515 514
f 511 514 508
f 508 514 505
f 508 505 526
f 509 511 508
f 539 511 509
f 509 508 510
f 512 497 513
f 512 496 497
f 498 515 513
f 498 513 497
f 503 514 515
f 518 516 520
f 518 522 521
f 518 521 516
f 518 525 517
f 518 520 525
f 518 517 522
f 523 522 517
f 523 517 526
f 516 474 519
f 516 519 520
f 467 521 522
f 499 467 522
f 499 522 523
f 524 517 525
f 524 526 517
f 510 526 524
f 530 529 527
f 530 528 529
f 527 532 531
f 531 537 536
f 527 529 532
f 531 532 537
f 528 533 534
f 528 534 529
f 529 534 535
f 533 538 539
f 533 539 534
f 534 539 509
f 529 535 532
f 532 479 537
f 532 535 479
f 534 509 535
f 385 621 540
f 540 621 622
f 540 622 427
f 587 427 622
f 541 543 565
f 541 542 543
f 543 544 570
f 544 545 571
f 545 546 573
f 546 547 574
f 547 548 575
f 548 549 576
f 549 550 576
f 550 551 577
f 551 552 577
f 552 553 567
f 553 554 568
f 554 555 569
f 555 556 580
f 543 542 589
f 543 589 544
f 544 591 545
f 545 557 546
f 546 558 547
f 547 595 548
f 548 597 549
f 549 559 550
f 550 600 551
f 551 560 552
f 552 561 553
f 553 562 554
f 554 563 555
f 555 564 556
f 544 589 590
f 544 590 591
f 545 591 592
f 545 592 593
f 545 593 557
f 546 557 594
f 546 594 558
f 547 558 595
f 548 595 596
f 548 596 597
f 549 597 598
f 549 598 599
f 549 599 559
f 550 559 600
f 551 600 601
f 551 602 560
f 551 601 602
f 552 560 603
f 552 603 561
f 553 561 604
f 553 604 562
f 554 562 605
f 554 605 563
f 555 563 606
f 555 606 564
f 556 564 608
f 565 570 566
f 566 581 621
f 543 570 565
f 566 570 581
f 553 568 567
f 554 569 568
f 544 571 570
f 545 572 571
f 545 573 572
f 546 574 573
f 547 575 574
f 548 576 575
f 550 578 576
f 550 577 578
f 552 567 577
f 555 580 569
f 556 579 580
f 581 632 621
f 556 623 579
f 570 632 581
f 567 568 628
f 579 625 580
f 569 580 627
f 568 569 630
f 570 571 632
f 571 572 634
f 572 573 582
f 573 574 583
f 575 638 574
f 575 576 639
f 576 578 584
f 577 585 578
f 567 642 577
f 579 624 625
f 569 627 631
f 580 625 626
f 580 626 627
f 568 629 628
f 568 630 629
f 569 631 630
f 571 633 632
f 571 634 633
f 572 635 634
f 572 636 635
f 573 637 582
f 572 582 636
f 573 583 637
f 574 638 583
f 575 639 644
f 576 640 639
f 576 641 640
f 577 642 585
f 578 585 643
f 578 643 584
f 576 584 641
f 575 644 638
f 567 645 642
f 567 628 645
f 542 586 588
f 609 586 587
f 542 588 589
f 589 609 590
f 590 610 591
f 591 610 592
f 593 592 611
f 557 593 612
f 557 612 594
f 558 594 613
f 558 613 595
f 595 613 596
f 598 614 599
f 596 615 597
f 597 615 598
f 559 599 616
f 559 616 600
f 600 616 601
f 601 617 602
f 560 602 619
f 560 619 603
f 561 603 620
f 562 604 618
f 561 620 604
f 563 605 607
f 563 607 606
f 562 618 605
f 564 606 608
f 556 608 623
f 589 588 609
f 590 609 610
f 592 610 611
f 593 611 612
f 594 612 613
f 599 614 616
f 601 616 617
f 596 613 615
f 598 615 614
f 602 617 619
f 604 620 618
f 605 618 607
f 606 607 608
f 603 619 620
f 588 586 609
f 609 587 651
f 607 646 608
f 607 618 647
f 609 651 610
f 611 610 652
f 611 654 612
f 613 612 655
f 617 649 619
f 614 615 656
f 613 657 615
f 616 614 656
f 616 659 617
f 618 620 648
f 620 619 650
f 621 651 622
f 587 622 651
f 621 632 651
f 579 623 646
f 579 646 624
f 624 647 625
f 625 647 626
f 626 648 627
f 627 648 631
f 628 629 649
f 630 650 629
f 630 631 650
f 633 651 632
f 633 634 652
f 635 652 634
f 635 636 653
f 582 654 636
f 582 637 654
f 583 655 637
f 583 638 655
f 641 656 640
f 639 657 644
f 639 640 657
f 585 642 658
f 645 658 642
f 584 659 641
f 584 643 659
f 585 658 643
f 638 644 655
f 628 649 645
f 608 646 623
f 624 646 647
f 626 647 648
f 631 648 650
f 629 650 649
f 633 652 651
f 635 653 652
f 636 654 653
f 637 655 654
f 641 659 656
f 643 658 659
f 640 656 657
f 644 657 655
f 645 649 658
f 607 647 646
f 618 648 647
f 620 650 648
f 619 649 650
f 617 658 649
f 610 651 652
f 611 652 653
f 611 653 654
f 612 654 655
f 613 655 657
f 615 657 656
f 616 656 659
f 617 659 658
f 1 2 433
f 9 10 433
f 10 11 433
f 12 433 11
f 2 3 433
f 3 9 433
f 12 13 433
f 13 14 433
f 14 15 433
f 4 433 5
f 1 433 4
f 5 433 6
f 7 6 433
f 8 7 433
f 8 433 16
f 16 433 17
f 17 433 18
f 18 433 19
f 19 433 20
f 15 137 433
f 137 138 433
f 139 433 138
f 139 140 433
f 140 141 433
f 142 433 141
f 142 143 433
f 143 144 433
f 145 433 144
f 145 146 433
f 146 147 433
f 147 148 433
f 148 149 433
f 149 150 433
f 150 151 433
f 151 152 433
f 153 433 152
f 153 154 433
f 154 155 433
f 155 156 433
f 156 157 433
f 157 178 433
f 20 433 132
f 132 433 252
f 280 291 281
f 282 288 283
f 281 291 282
f 283 287 284
f 285 284 286
f 283 288 287
f 289 282 290
f 282 289 288
f 284 287 286
f 290 282 291
f 273 252 433
f 273 433 274
f 274 433 275
f 275 433 276
f 276 433 277
f 277 433 278
f 278 433 279
f 279 433 280
f 280 433 291
f 178 250 433
f 250 386 433
f 433 386 428
f 433 428 429
f 433 429 430
f 433 430 431
f 433 444 436
f 435 436 447
f 435 447 437
f 434 437 447
f 434 447 438
f 438 447 439
f 440 439 447
f 433 431 432
f 433 432 442
f 433 442 443
f 433 443 444
f 436 444 446
f 446 448 436
f 447 445 441
f 447 436 448
f 447 441 440

