# https://github.com/mikedh/trimesh
v -0.07504580 -0.00807992 -0.00431630
v -0.07465964 -0.00840156 -0.00462454
v -0.07486718 -0.00825626 -0.00448530
v -0.07476666 -0.00833308 -0.00455892
v -0.07454684 -0.00846124 -0.00468174
v -0.07442910 -0.00851166 -0.00473004
v -0.07430726 -0.00855246 -0.00476916
v -0.07418220 -0.00858338 -0.00479878
v -0.07405482 -0.00860416 -0.00481868
v -0.07392604 -0.00861466 -0.00482874
v -0.07519032 -0.00787760 -0.00412242
v -0.07529664 -0.00765512 -0.00390922
v -0.07536168 -0.00741886 -0.00368282
v -0.07538356 -0.00717562 -0.00344970
v -0.07481692 -0.00003840 -0.00452210
v -0.06794042 -0.00406032 -0.00506544
v -0.07519032 -0.00787760 0.00407420
v -0.07536168 -0.00741886 0.00363460
v -0.07529664 -0.00765512 0.00386100
v -0.07504580 -0.00807992 0.00426808
v -0.07486718 -0.00825628 0.00443708
v -0.07476666 -0.00833308 0.00451070
v -0.07465964 -0.00840158 0.00457632
v -0.07454684 -0.00846124 0.00463350
v -0.07442910 -0.00851166 0.00468182
v -0.07430726 -0.00855248 0.00472094
v -0.07418220 -0.00858338 0.00475056
v -0.07405482 -0.00860416 0.00477046
v -0.07392604 -0.00861466 0.00478052
v -0.07538356 -0.00717562 0.00340148
v -0.07537262 -0.00012162 0.00351804
v -0.07532916 -0.00011814 0.00374780
v -0.07524348 -0.00011124 0.00396760
v -0.07511806 -0.00010116 0.00417114
v -0.07495648 -0.00008818 0.00435258
v -0.07471314 -0.00003424 0.00454352
v -0.07460324 -0.00002984 0.00460492
v -0.07448796 -0.00002522 0.00465766
v -0.07411852 -0.00001040 0.00476052
v -0.07399044 -0.00000526 0.00477550
v -0.07504580 0.00000000 -0.00431630
v -0.07471314 0.00003424 -0.00459172
v -0.07465964 0.00000000 -0.00462454
v -0.07460324 0.00002984 -0.00465314
v -0.07486718 0.00000000 -0.00448530
v -0.07495648 0.00008818 -0.00440080
v -0.07476666 0.00000000 -0.00455892
v -0.07454684 0.00000000 -0.00468172
v -0.07448796 0.00002522 -0.00470588
v -0.07442910 0.00000000 -0.00473004
v -0.07436818 0.00002040 -0.00474960
v -0.07430726 0.00000000 -0.00476916
v -0.07424474 0.00001546 -0.00478396
v -0.07418220 0.00000000 -0.00479876
v -0.07411852 0.00001038 -0.00480872
v -0.07405482 0.00000000 -0.00481868
v -0.07399044 0.00000524 -0.00482372
v -0.07392604 0.00000000 -0.00482874
v -0.07519032 0.00000000 -0.00412242
v -0.07529664 0.00000000 -0.00390922
v -0.07524348 0.00011124 -0.00401582
v -0.07511806 0.00010116 -0.00421936
v -0.07532916 0.00011812 -0.00379602
v -0.07536168 0.00000000 -0.00368282
v -0.07537262 0.00012162 -0.00356626
v -0.07538356 0.00717562 -0.00344970
v -0.07504580 0.00807992 -0.00431630
v -0.07465964 0.00840156 -0.00462454
v -0.07486718 0.00825626 -0.00448530
v -0.07476666 0.00833308 -0.00455890
v -0.07454684 0.00846124 -0.00468172
v -0.07442910 0.00851166 -0.00473004
v -0.07430726 0.00855246 -0.00476916
v -0.07418220 0.00858338 -0.00479876
v -0.07405482 0.00860414 -0.00481868
v -0.07392604 0.00861464 -0.00482874
v -0.07529664 0.00765512 -0.00390922
v -0.07536168 0.00741886 -0.00368280
v -0.07519032 0.00787760 -0.00412242
v -0.07538356 0.00000000 -0.00002410
v -0.07536168 0.00000000 0.00363460
v -0.07529664 0.00000000 0.00386100
v -0.07519032 0.00000000 0.00407420
v -0.07504580 0.00000000 0.00426810
v -0.07486718 0.00000000 0.00443708
v -0.07481692 0.00003840 0.00447390
v -0.07476666 0.00000000 0.00451070
v -0.07465964 0.00000000 0.00457632
v -0.07454684 0.00000000 0.00463352
v -0.07442910 0.00000000 0.00468182
v -0.07436818 0.00002040 0.00470138
v -0.07430726 0.00000000 0.00472094
v -0.07424474 0.00001544 0.00473574
v -0.07418220 0.00000000 0.00475056
v -0.07405482 0.00000000 0.00477046
v -0.07392604 0.00000000 0.00478052
v -0.07538356 0.00717562 0.00340150
v -0.07536168 0.00741886 0.00363460
v -0.07529664 0.00765512 0.00386100
v -0.07519032 0.00787760 0.00407422
v -0.07504580 0.00807992 0.00426810
v -0.07486718 0.00825626 0.00443708
v -0.07476666 0.00833308 0.00451070
v -0.07465964 0.00840156 0.00457634
v -0.07454684 0.00846124 0.00463352
v -0.07442910 0.00851166 0.00468182
v -0.07430726 0.00855246 0.00472094
v -0.07418220 0.00858336 0.00475056
v -0.07405482 0.00860414 0.00477046
v -0.07392604 0.00861464 0.00478052
v -0.06794042 0.00406032 0.00501724
v -0.06195480 -0.00910866 -0.00530216
v -0.06195480 -0.00910866 -0.00049752
v -0.05596918 -0.00455432 -0.00553886
v -0.04980530 -0.01102586 -0.01061878
v -0.04938356 -0.01159651 -0.01061878
v -0.04938356 -0.01159789 -0.01061527
v -0.04938356 -0.01160367 -0.01060060
v -0.04938356 -0.01144702 -0.01083684
v -0.04938356 -0.01149249 -0.01077053
v -0.04947060 -0.01136474 -0.01083684
v -0.04955662 -0.01143296 -0.01061878
v -0.04938356 -0.01129572 -0.01098382
v -0.04938356 -0.01126197 -0.01101042
v -0.04938356 -0.01123212 -0.01103394
v -0.04938356 -0.01106712 -0.01112498
v -0.04938356 -0.01099985 -0.01115234
v -0.04947060 -0.01111462 -0.01103394
v -0.04960256 -0.01118662 -0.01083684
v -0.04969980 -0.01123968 -0.01061878
v -0.04969980 -0.01098956 -0.01083684
v -0.04986990 -0.01104808 -0.01038636
v -0.04989166 -0.01105556 -0.01014666
v -0.04960928 -0.01147472 -0.01038636
v -0.04938356 -0.01167653 -0.01038636
v -0.04942430 -0.01164956 -0.01038636
v -0.04938356 -0.01169669 -0.01020484
v -0.04962702 -0.01148880 -0.01014666
v -0.04943918 -0.01166634 -0.01014666
v -0.04938356 -0.01170315 -0.01014666
v -0.04975934 -0.01127218 -0.01038636
v -0.04977938 -0.01128312 -0.01014666
v -0.04986990 -0.01079796 -0.01061878
v -0.04989166 -0.01056292 -0.01061878
v -0.04960928 -0.01075452 -0.01103394
v -0.04938356 -0.01088077 -0.01120075
v -0.04938356 -0.01086739 -0.01120408
v -0.04938356 -0.01087769 -0.01120151
v -0.04955662 -0.01094032 -0.01103394
v -0.04942430 -0.01072370 -0.01120408
v -0.04938356 -0.01071691 -0.01123032
v -0.04975934 -0.01077954 -0.01083684
v -0.04962702 -0.01056292 -0.01103394
v -0.04943918 -0.01056292 -0.01120408
v -0.04938356 -0.01056292 -0.01123935
v -0.04977938 -0.01056292 -0.01083684
v -0.04993762 -0.01080924 -0.01038636
v -0.04996042 -0.01081304 -0.01014666
v -0.04996042 -0.01056292 -0.01038636
v -0.04998356 -0.01056292 -0.01014666
v -0.04998356 -0.00960266 -0.00577556
v -0.04983552 -0.01116934 -0.00002412
v -0.04989166 -0.01105556 -0.00002412
v -0.04970320 -0.01138596 -0.00002412
v -0.04962702 -0.01148880 -0.00002412
v -0.04953310 -0.01157756 -0.00002412
v -0.04943918 -0.01166634 -0.00002412
v -0.04938356 -0.01170314 -0.00002412
v -0.04977938 -0.01128312 -0.00002412
v -0.04992604 -0.01093430 -0.00002412
v -0.04996042 -0.01081304 -0.00002412
v -0.04997198 -0.01068798 -0.00002412
v -0.04998356 -0.01056292 -0.00002412
v -0.04998356 -0.01008280 -0.00220966
v -0.06195480 -0.00910866 0.00525394
v -0.06195480 -0.00049400 0.00525394
v -0.05596918 -0.00504834 0.00549064
v -0.04998356 -0.00960266 0.00572734
v -0.04989166 -0.01105558 0.01009844
v -0.04986990 -0.01104808 0.01033814
v -0.04962702 -0.01148880 0.01009844
v -0.04943918 -0.01166634 0.01009844
v -0.04938356 -0.01170315 0.01009844
v -0.04960928 -0.01147474 0.01033814
v -0.04938356 -0.01168189 0.01028997
v -0.04938356 -0.01167654 0.01033814
v -0.04942430 -0.01164958 0.01033814
v -0.04977938 -0.01128312 0.01009844
v -0.04975934 -0.01127218 0.01033814
v -0.04980530 -0.01102586 0.01057056
v -0.04938356 -0.01160369 0.01055238
v -0.04938356 -0.01159653 0.01057056
v -0.04955662 -0.01143296 0.01057056
v -0.04938356 -0.01144703 0.01078862
v -0.04947060 -0.01136476 0.01078862
v -0.04969980 -0.01123970 0.01057056
v -0.04960256 -0.01118664 0.01078862
v -0.04969980 -0.01098958 0.01078862
v -0.04938356 -0.01129572 0.01093560
v -0.04938356 -0.01123212 0.01098572
v -0.04947060 -0.01111464 0.01098572
v -0.04938356 -0.01106713 0.01107676
v -0.04996042 -0.01081304 0.01009844
v -0.04993762 -0.01080926 0.01033814
v -0.04998356 -0.01056294 0.01009844
v -0.04996042 -0.01056294 0.01033814
v -0.04986990 -0.01079796 0.01057056
v -0.04989166 -0.01056294 0.01057056
v -0.04975934 -0.01077954 0.01078862
v -0.04960928 -0.01075454 0.01098572
v -0.04955662 -0.01094032 0.01098572
v -0.04938356 -0.01088079 0.01115253
v -0.04938356 -0.01086741 0.01115586
v -0.04942430 -0.01072370 0.01115586
v -0.04938356 -0.01071691 0.01118210
v -0.04977938 -0.01056294 0.01078862
v -0.04962702 -0.01056294 0.01098572
v -0.04943918 -0.01056294 0.01115586
v -0.04938356 -0.01056294 0.01119113
v -0.04998356 -0.00048014 0.00791290
v -0.06195480 0.00049400 -0.00530216
v -0.05596918 0.00504834 -0.00553886
v -0.06195480 0.00910866 -0.00530214
v -0.04983552 0.00000000 -0.01072780
v -0.04989166 0.00000000 -0.01061876
v -0.04970320 0.00000000 -0.01093538
v -0.04962702 0.00000000 -0.01103394
v -0.04953310 0.00000000 -0.01111900
v -0.04943918 0.00000000 -0.01120408
v -0.04977938 0.00000000 -0.01083684
v -0.04992604 0.00000000 -0.01050256
v -0.04996042 0.00000000 -0.01038636
v -0.04997198 0.00000000 -0.01026652
v -0.04998356 0.00000000 -0.01014666
v -0.04998356 0.00048014 -0.00796112
v -0.04998356 0.00000000 -0.00577556
v -0.04938356 0.00516376 -0.01123934
v -0.04989166 0.01056292 -0.01061876
v -0.04986990 0.01081304 -0.01061160
v -0.04962702 0.01056292 -0.01103394
v -0.04943918 0.01056292 -0.01120406
v -0.04938356 0.01056292 -0.01123934
v -0.04977938 0.01056292 -0.01083684
v -0.04960928 0.01081304 -0.01102044
v -0.04938356 0.01081304 -0.01121384
v -0.04942430 0.01081304 -0.01118800
v -0.04938356 0.01085277 -0.01120143
v -0.04975934 0.01081304 -0.01082634
v -0.04996042 0.01056292 -0.01038636
v -0.04998356 0.01056292 -0.01014666
v -0.04993762 0.01081304 -0.01038272
v -0.04996042 0.01081304 -0.01014666
v -0.04980530 0.01105556 -0.01059030
v -0.04938356 0.01103659 -0.01114403
v -0.04938356 0.01105190 -0.01113849
v -0.04938356 0.01105556 -0.01113717
v -0.04955662 0.01105556 -0.01098042
v -0.04938356 0.01128312 -0.01099390
v -0.04947060 0.01128312 -0.01091506
v -0.04969980 0.01105556 -0.01079522
v -0.04960256 0.01128312 -0.01074436
v -0.04969980 0.01128312 -0.01055552
v -0.04938356 0.01143650 -0.01084890
v -0.04938356 0.01146425 -0.01081656
v -0.04938356 0.01148880 -0.01078795
v -0.04947060 0.01148880 -0.01067536
v -0.04938356 0.01158380 -0.01062984
v -0.04938356 0.01161235 -0.01056537
v -0.04986990 0.01105556 -0.01037190
v -0.04989166 0.01105556 -0.01014666
v -0.04975934 0.01128312 -0.01035424
v -0.04977938 0.01128312 -0.01014666
v -0.04960928 0.01148880 -0.01033028
v -0.04955662 0.01148880 -0.01050832
v -0.04938356 0.01166286 -0.01045126
v -0.04938356 0.01166366 -0.01044831
v -0.04938356 0.01166634 -0.01043844
v -0.04942430 0.01166634 -0.01030074
v -0.04938356 0.01169372 -0.01029423
v -0.04962702 0.01148880 -0.01014666
v -0.04943918 0.01166632 -0.01014666
v -0.04938356 0.01170313 -0.01014666
v -0.04998356 0.00960266 -0.00577556
v -0.05596918 0.00455432 0.00549064
v -0.06195480 0.00910864 0.00044930
v -0.06195480 0.00910864 0.00525394
v -0.04998356 0.00000000 0.00572734
v -0.04998356 0.00000000 0.01009844
v -0.04997198 0.00000000 0.01021830
v -0.04996042 0.00000000 0.01033814
v -0.04992604 0.00000000 0.01045436
v -0.04989166 0.00000000 0.01057056
v -0.04983552 0.00000000 0.01067958
v -0.04977938 0.00000000 0.01078862
v -0.04970320 0.00000000 0.01088718
v -0.04962702 0.00000000 0.01098572
v -0.04953310 0.00000000 0.01107078
v -0.04943918 0.00000000 0.01115586
v -0.04938356 0.00000000 0.01119113
v -0.04998356 0.01008278 0.00216144
v -0.04998356 0.01056292 -0.00002410
v -0.04997198 0.01068798 -0.00002410
v -0.04996042 0.01081304 -0.00002410
v -0.04992604 0.01093430 -0.00002410
v -0.04989166 0.01105556 -0.00002410
v -0.04983552 0.01116934 -0.00002410
v -0.04977938 0.01128312 -0.00002410
v -0.04970320 0.01138596 -0.00002410
v -0.04962702 0.01148878 -0.00002410
v -0.04953310 0.01157756 -0.00002410
v -0.04943918 0.01166632 -0.00002410
v -0.04998356 0.00960266 0.00572734
v -0.04998356 0.01056292 0.01009846
v -0.04996042 0.01056292 0.01033814
v -0.04996042 0.01081304 0.01009846
v -0.04993762 0.01081304 0.01033450
v -0.04989166 0.01056292 0.01057056
v -0.04986990 0.01081304 0.01056338
v -0.04977938 0.01056292 0.01078862
v -0.04962702 0.01056292 0.01098572
v -0.04943918 0.01056292 0.01115586
v -0.04938356 0.01056292 0.01119113
v -0.04975934 0.01081304 0.01077814
v -0.04960928 0.01081304 0.01097224
v -0.04942430 0.01081304 0.01113980
v -0.04938356 0.01081304 0.01116564
v -0.04989166 0.01105556 0.01009846
v -0.04986990 0.01105556 0.01032370
v -0.04977938 0.01128312 0.01009846
v -0.04975934 0.01128312 0.01030604
v -0.04962702 0.01148878 0.01009846
v -0.04943918 0.01166632 0.01009846
v -0.04938356 0.01170313 0.01009846
v -0.04960928 0.01148878 0.01028208
v -0.04955662 0.01148878 0.01046010
v -0.04942430 0.01166632 0.01025252
v -0.04938356 0.01169370 0.01024601
v -0.04938356 0.01166632 0.01039024
v -0.04938356 0.01166284 0.01040306
v -0.04980530 0.01105556 0.01054208
v -0.04969980 0.01105556 0.01074700
v -0.04969980 0.01128312 0.01050732
v -0.04960256 0.01128312 0.01069616
v -0.04955662 0.01105556 0.01093222
v -0.04938356 0.01103659 0.01109583
v -0.04938356 0.01105556 0.01108897
v -0.04947060 0.01128312 0.01086686
v -0.04938356 0.01128312 0.01094570
v -0.04947060 0.01148878 0.01062716
v -0.04938356 0.01148878 0.01073975
v -0.04938356 0.01143649 0.01080070
v -0.04938356 0.01158378 0.01058163
f 3 20 1
f 5 24 2
f 4 22 3
f 2 23 4
f 1 17 11
f 7 25 6
f 6 25 5
f 7 8 26
f 9 10 28
f 9 27 8
f 11 19 12
f 12 18 13
f 13 30 14
f 113 29 10
f 1 11 41
f 2 4 43
f 5 2 48
f 4 3 15
f 3 1 45
f 6 5 50
f 7 6 52
f 7 54 8
f 9 8 56
f 9 58 10
f 11 12 59
f 12 13 60
f 13 14 64
f 1 41 46
f 4 42 43
f 2 43 44
f 2 44 48
f 3 45 15
f 4 15 47
f 1 46 45
f 4 47 42
f 5 48 49
f 5 49 50
f 6 50 51
f 6 51 52
f 7 52 53
f 7 53 54
f 8 54 55
f 8 55 56
f 9 56 57
f 9 57 58
f 11 59 62
f 11 62 41
f 12 61 59
f 12 60 61
f 13 63 60
f 13 64 63
f 14 65 64
f 10 58 16
f 112 113 10
f 112 10 16
f 16 58 221
f 112 16 221
f 11 17 19
f 1 20 17
f 12 19 18
f 13 18 30
f 2 24 23
f 3 22 21
f 3 21 20
f 4 23 22
f 5 25 24
f 7 26 25
f 8 27 26
f 9 28 27
f 10 29 28
f 14 30 80
f 17 33 19
f 20 34 17
f 19 32 18
f 30 18 31
f 21 22 87
f 23 36 22
f 24 37 23
f 20 21 35
f 24 25 38
f 26 92 25
f 26 27 94
f 28 39 27
f 28 29 40
f 19 82 32
f 19 33 82
f 17 83 33
f 17 34 83
f 18 81 31
f 18 32 81
f 20 84 34
f 20 35 84
f 21 85 35
f 21 86 85
f 21 87 86
f 22 36 87
f 23 88 36
f 23 37 88
f 24 89 37
f 24 38 89
f 25 90 38
f 25 91 90
f 25 92 91
f 26 93 92
f 26 94 93
f 27 39 94
f 28 95 39
f 28 40 95
f 29 96 40
f 30 31 97
f 29 176 96
f 113 175 29
f 175 176 29
f 14 66 65
f 46 41 67
f 41 62 67
f 43 42 68
f 44 43 68
f 15 45 69
f 15 69 47
f 45 46 69
f 42 47 70
f 48 44 71
f 49 48 71
f 50 49 72
f 51 50 72
f 51 73 52
f 52 73 53
f 53 74 54
f 54 74 55
f 56 55 75
f 56 75 57
f 58 57 76
f 64 78 63
f 64 65 78
f 59 61 79
f 61 60 77
f 62 59 79
f 60 63 77
f 14 80 66
f 46 67 69
f 42 70 68
f 44 68 71
f 47 69 70
f 49 71 72
f 51 72 73
f 53 73 74
f 55 74 75
f 57 75 76
f 65 66 78
f 63 78 77
f 61 77 79
f 62 79 67
f 58 76 221
f 69 67 102
f 70 69 102
f 70 103 68
f 68 104 71
f 72 71 105
f 73 108 74
f 72 107 73
f 74 108 75
f 75 109 76
f 78 66 98
f 78 99 77
f 77 100 79
f 79 101 67
f 221 76 223
f 76 285 223
f 30 97 80
f 31 81 97
f 32 98 81
f 32 82 98
f 33 99 82
f 33 83 99
f 34 100 83
f 34 84 100
f 35 101 84
f 35 85 101
f 85 86 102
f 86 87 103
f 36 103 87
f 36 88 103
f 37 104 88
f 37 89 104
f 38 105 89
f 38 90 105
f 90 91 106
f 91 92 107
f 93 107 92
f 93 94 108
f 39 108 94
f 39 95 108
f 40 109 95
f 40 96 109
f 66 80 97
f 81 98 97
f 82 99 98
f 83 100 99
f 84 101 100
f 85 102 101
f 86 103 102
f 88 104 103
f 89 105 104
f 90 106 105
f 91 107 106
f 93 108 107
f 95 109 108
f 96 110 109
f 96 111 110
f 66 97 98
f 78 98 99
f 77 99 100
f 79 100 101
f 67 101 102
f 70 102 103
f 68 103 104
f 71 104 105
f 72 105 106
f 72 106 107
f 73 107 108
f 75 108 109
f 76 109 110
f 76 110 285
f 176 111 96
f 176 286 111
f 111 286 110
f 110 286 285
f 112 161 113
f 112 114 161
f 112 221 114
f 114 221 236
f 130 132 115
f 122 116 117
f 121 119 120
f 121 120 122
f 121 123 119
f 122 117 134
f 121 122 130
f 122 120 116
f 128 129 131
f 121 129 124
f 128 124 129
f 121 124 123
f 128 125 124
f 128 126 125
f 128 149 127
f 128 127 126
f 128 131 149
f 121 130 129
f 122 141 130
f 129 115 131
f 129 130 115
f 141 142 133
f 132 133 158
f 141 133 132
f 122 134 141
f 134 142 141
f 134 138 142
f 136 117 118
f 136 118 135
f 136 134 117
f 136 138 134
f 136 139 138
f 136 135 137
f 136 137 139
f 139 137 140
f 141 132 130
f 131 115 143
f 115 157 143
f 152 144 156
f 143 159 144
f 152 143 144
f 149 131 152
f 149 152 145
f 145 152 156
f 145 156 153
f 149 145 148
f 149 146 127
f 149 148 146
f 150 147 148
f 150 145 153
f 150 153 154
f 150 151 147
f 150 148 145
f 150 154 151
f 154 155 151
f 131 143 152
f 115 132 157
f 132 158 157
f 143 157 159
f 157 158 160
f 157 160 159
f 142 162 133
f 138 164 142
f 139 166 138
f 139 140 168
f 133 170 158
f 158 172 160
f 160 174 161
f 156 144 224
f 153 156 226
f 154 153 228
f 154 229 155
f 144 159 231
f 159 160 233
f 160 161 234
f 113 161 178
f 142 169 162
f 133 163 170
f 133 162 163
f 138 165 164
f 138 166 165
f 139 167 166
f 139 168 167
f 142 164 169
f 160 173 174
f 158 170 171
f 158 171 172
f 160 172 173
f 161 174 178
f 156 224 230
f 144 231 225
f 144 225 224
f 153 226 227
f 153 227 228
f 154 228 229
f 156 230 226
f 159 232 231
f 159 233 232
f 160 234 233
f 161 114 236
f 161 235 234
f 161 236 235
f 229 237 155
f 113 178 175
f 175 178 177
f 175 177 176
f 176 177 287
f 173 178 174
f 169 188 162
f 163 179 170
f 162 179 163
f 165 181 164
f 166 181 165
f 167 182 166
f 167 168 183
f 164 188 169
f 170 203 171
f 171 203 172
f 172 205 173
f 173 205 178
f 162 188 179
f 164 181 188
f 166 182 181
f 167 183 182
f 170 179 203
f 172 203 205
f 188 189 180
f 188 180 179
f 189 190 180
f 181 189 188
f 181 184 189
f 182 184 181
f 182 187 184
f 182 183 185
f 182 185 187
f 187 185 186
f 187 186 191
f 187 191 192
f 187 193 184
f 184 196 189
f 184 193 196
f 187 192 193
f 193 192 194
f 193 194 195
f 195 194 199
f 189 196 190
f 193 197 196
f 196 198 190
f 196 197 198
f 193 195 197
f 197 211 198
f 195 201 197
f 195 199 201
f 201 199 200
f 197 201 211
f 201 200 202
f 201 212 211
f 201 202 212
f 179 204 203
f 179 180 204
f 180 207 204
f 203 204 206
f 203 206 205
f 204 208 206
f 180 190 207
f 190 209 207
f 204 207 208
f 207 216 208
f 207 209 216
f 190 198 209
f 198 210 209
f 198 211 210
f 209 217 216
f 209 210 217
f 211 214 210
f 211 212 214
f 214 212 213
f 210 218 217
f 210 214 218
f 214 213 215
f 214 215 219
f 214 219 218
f 178 205 220
f 205 206 289
f 206 208 291
f 208 216 293
f 216 217 295
f 217 218 297
f 218 219 299
f 178 287 177
f 178 220 287
f 205 288 220
f 205 289 288
f 206 290 289
f 206 291 290
f 208 292 291
f 208 293 292
f 216 294 293
f 216 295 294
f 217 296 295
f 217 297 296
f 218 298 297
f 218 299 298
f 221 223 222
f 221 222 236
f 222 223 283
f 223 285 283
f 230 224 243
f 225 231 238
f 224 225 238
f 227 226 240
f 228 227 240
f 229 228 241
f 226 230 243
f 231 232 249
f 232 233 249
f 233 234 250
f 234 235 250
f 229 241 237
f 236 222 283
f 235 236 283
f 224 238 243
f 226 243 240
f 228 240 241
f 231 249 238
f 233 250 249
f 241 242 237
f 235 283 250
f 243 238 248
f 238 249 239
f 248 238 239
f 243 248 244
f 240 243 244
f 244 248 257
f 241 240 246
f 246 240 244
f 241 246 242
f 246 245 242
f 246 247 245
f 246 254 247
f 246 255 254
f 246 244 255
f 248 239 260
f 239 249 251
f 249 250 251
f 250 252 251
f 239 251 253
f 251 252 269
f 239 253 260
f 257 256 255
f 244 257 255
f 257 260 259
f 257 259 256
f 259 258 256
f 259 263 258
f 248 260 257
f 260 253 261
f 260 261 259
f 253 262 261
f 261 262 266
f 259 261 264
f 261 266 264
f 259 264 263
f 266 265 264
f 262 274 266
f 266 267 265
f 266 274 268
f 266 268 267
f 251 269 253
f 253 269 262
f 252 270 269
f 269 270 271
f 270 272 271
f 269 271 262
f 262 271 274
f 274 271 273
f 271 272 273
f 272 280 273
f 274 273 276
f 274 275 268
f 274 276 275
f 278 277 276
f 273 280 278
f 280 281 278
f 273 278 276
f 278 279 277
f 278 281 279
f 281 282 279
f 250 302 252
f 252 304 270
f 270 306 272
f 272 308 280
f 280 310 281
f 281 311 282
f 250 283 301
f 250 301 302
f 252 302 303
f 252 303 304
f 270 304 305
f 270 305 306
f 272 306 307
f 272 307 308
f 280 308 309
f 280 309 310
f 281 310 311
f 283 300 301
f 176 284 286
f 176 287 284
f 284 312 286
f 285 286 312
f 287 312 284
f 220 312 287
f 220 288 312
f 288 289 313
f 289 290 314
f 290 291 314
f 291 292 317
f 292 293 317
f 293 294 319
f 294 295 319
f 295 296 320
f 296 297 320
f 297 298 321
f 298 299 322
f 283 285 312
f 283 312 300
f 311 332 282
f 301 313 302
f 302 315 303
f 303 315 304
f 300 313 301
f 304 327 305
f 305 327 306
f 306 329 307
f 307 329 308
f 308 331 309
f 309 331 310
f 310 332 311
f 332 333 282
f 288 313 312
f 289 314 313
f 291 317 314
f 293 319 317
f 295 320 319
f 297 321 320
f 298 322 321
f 300 312 313
f 302 313 315
f 304 315 327
f 306 327 329
f 308 329 331
f 310 331 332
f 313 314 315
f 314 316 315
f 314 317 316
f 316 317 318
f 315 316 327
f 316 318 328
f 317 319 318
f 318 319 323
f 318 323 340
f 341 323 324
f 319 320 323
f 320 324 323
f 320 321 324
f 324 321 325
f 321 322 326
f 321 326 325
f 324 325 344
f 325 345 344
f 325 326 345
f 316 328 327
f 327 328 329
f 318 340 328
f 328 340 330
f 328 330 329
f 340 342 330
f 329 330 331
f 330 334 331
f 330 342 334
f 334 342 335
f 331 334 332
f 334 336 332
f 332 336 333
f 336 337 333
f 336 338 337
f 334 335 336
f 335 339 336
f 336 339 338
f 340 341 342
f 340 323 341
f 341 344 343
f 341 343 342
f 344 347 343
f 341 324 344
f 344 346 348
f 344 345 346
f 344 348 347
f 347 348 351
f 342 343 335
f 343 349 335
f 343 347 349
f 349 347 351
f 349 351 350
f 335 349 339
f 349 352 339
f 349 350 352
f 119 168 120
f 118 117 168
f 116 168 117
f 116 120 168
f 119 123 168
f 125 168 124
f 123 124 168
f 125 126 168
f 126 127 168
f 127 146 168
f 147 168 148
f 146 148 168
f 147 151 168
f 151 155 168
f 135 118 168
f 135 168 137
f 137 168 140
f 168 155 183
f 183 155 237
f 183 242 185
f 185 242 186
f 186 242 191
f 191 242 192
f 192 242 194
f 194 242 199
f 199 258 200
f 200 258 202
f 212 202 258
f 212 258 213
f 213 258 215
f 219 215 258
f 183 237 242
f 242 245 199
f 247 199 245
f 247 254 199
f 255 256 199
f 254 255 199
f 256 258 199
f 219 258 263
f 219 263 264
f 219 264 265
f 219 265 267
f 219 267 268
f 219 268 275
f 219 275 276
f 219 276 277
f 219 277 279
f 219 279 282
f 219 282 299
f 282 322 299
f 282 333 337
f 282 326 322
f 282 345 326
f 282 346 345
f 282 337 338
f 282 338 339
f 282 339 352
f 282 352 350
f 282 350 351
f 282 348 346
f 282 351 348

