# https://github.com/mikedh/trimesh
v 0.02500000 0.00519620 -0.01166025
v 0.02000000 0.01519620 0.00566026
v 0.02500000 0.01519620 0.00566026
v 0.02000000 0.00519620 -0.01166025
v 0.02000000 0.01000000 0.01466026
v 0.02500000 -0.01000000 0.01466026
v 0.02500000 0.01000000 0.01466026
v 0.02000000 -0.01000000 0.01466026
v 0.02000000 -0.01519610 0.00566026
v 0.02500000 -0.00519610 -0.01166025
v 0.02500000 -0.01519610 0.00566026
v 0.02000000 -0.00519610 -0.01166025
v 0.02500000 -0.01430740 0.00448346
v 0.02500000 -0.00563810 -0.01071237
v 0.02500000 -0.00590880 -0.00970214
v 0.02500000 -0.01315860 0.00355896
v 0.02500000 -0.00600000 -0.00866025
v 0.02500000 -0.01181890 0.00294261
v 0.02500000 -0.00582170 -0.00720872
v 0.02500000 -0.01036930 0.00267164
v 0.02500000 -0.00529760 -0.00584342
v 0.02500000 -0.00889750 0.00276242
v 0.02500000 -0.00445880 -0.00464546
v 0.02500000 -0.00749220 0.00320947
v 0.02500000 -0.00335510 -0.00368602
v 0.02500000 -0.00623840 0.00398578
v 0.02500000 -0.00205210 -0.00302209
v 0.02500000 -0.00521190 0.00504445
v 0.02500000 -0.00062710 -0.00269312
v 0.02500000 0.00546550 0.00473110
v 0.02500000 0.00083510 -0.00271864
v 0.02500000 0.00224770 -0.00309715
v 0.02500000 0.00651970 0.00377280
v 0.02500000 0.00352680 -0.00380615
v 0.02500000 0.00466700 0.00591090
v 0.02500000 -0.00447450 0.00632154
v 0.02500000 0.00777010 0.00309005
v 0.02500000 0.00459630 -0.00480352
v 0.02500000 0.00416920 0.00724571
v 0.02500000 -0.00407100 0.00773991
v 0.02500000 0.00914620 0.00272133
v 0.02500000 0.00539280 -0.00603002
v 0.02500000 0.00400000 0.00866026
v 0.02500000 -0.00402560 0.00921387
v 0.02500000 0.01057040 0.00268743
v 0.02500000 0.00586890 -0.00741278
v 0.02500000 0.00415050 0.00999539
v 0.02500000 -0.00434100 0.01065439
v 0.02500000 0.01196240 0.00299025
v 0.02500000 0.00599640 -0.00886965
v 0.02500000 0.00459420 0.01126356
v 0.02500000 -0.00499830 0.01197445
v 0.02500000 0.01324390 0.00361274
v 0.02500000 0.00576760 -0.01031407
v 0.02500000 0.00530910 0.01240120
v 0.02500000 -0.00595780 0.01309431
v 0.02500000 0.01434240 0.00451979
v 0.02500000 0.00625910 0.01335125
v 0.02500000 -0.00716140 0.01394633
v 0.02500000 0.00739670 0.01406607
v 0.02500000 0.00866490 0.01450983
v 0.02500000 -0.00853650 0.01447904
v 0.02000000 -0.01430740 0.00448346
v 0.02000000 -0.00590880 -0.00970214
v 0.02000000 -0.00563810 -0.01071237
v 0.02000000 -0.01315860 0.00355896
v 0.02000000 -0.00600000 -0.00866025
v 0.02000000 -0.01181890 0.00294261
v 0.02000000 -0.00582170 -0.00720872
v 0.02000000 -0.01036930 0.00267164
v 0.02000000 -0.00529760 -0.00584342
v 0.02000000 -0.00889750 0.00276242
v 0.02000000 -0.00445880 -0.00464546
v 0.02000000 -0.00749220 0.00320947
v 0.02000000 -0.00335510 -0.00368602
v 0.02000000 -0.00623840 0.00398578
v 0.02000000 -0.00205210 -0.00302209
v 0.02000000 -0.00521190 0.00504445
v 0.02000000 -0.00062710 -0.00269312
v 0.02000000 0.00546550 0.00473110
v 0.02000000 0.00224770 -0.00309715
v 0.02000000 0.00083510 -0.00271864
v 0.02000000 0.00651970 0.00377280
v 0.02000000 0.00352680 -0.00380615
v 0.02000000 0.00466700 0.00591090
v 0.02000000 -0.00447450 0.00632154
v 0.02000000 0.00777010 0.00309005
v 0.02000000 0.00459630 -0.00480352
v 0.02000000 0.00416920 0.00724571
v 0.02000000 -0.00407100 0.00773991
v 0.02000000 0.00914620 0.00272133
v 0.02000000 0.00539280 -0.00603002
v 0.02000000 0.00400000 0.00866026
v 0.02000000 -0.00402560 0.00921387
v 0.02000000 0.01057040 0.00268743
v 0.02000000 0.00586890 -0.00741278
v 0.02000000 0.00415050 0.00999539
v 0.02000000 -0.00434100 0.01065439
v 0.02000000 0.01196240 0.00299025
v 0.02000000 0.00599640 -0.00886965
v 0.02000000 0.00459420 0.01126356
v 0.02000000 -0.00499830 0.01197445
v 0.02000000 0.01324390 0.00361274
v 0.02000000 0.00576760 -0.01031407
v 0.02000000 0.00530910 0.01240120
v 0.02000000 -0.00595780 0.01309431
v 0.02000000 0.01434240 0.00451979
v 0.02000000 0.00625910 0.01335125
v 0.02000000 -0.00716140 0.01394633
v 0.02000000 0.00739670 0.01406607
v 0.02000000 0.00866490 0.01450983
v 0.02000000 -0.00853650 0.01447904
v -0.03500000 -0.00600000 -0.00866025
v -0.03500000 -0.00582560 -0.01009615
v 0.07500000 -0.00600000 -0.00866025
v -0.03500000 -0.00531270 -0.01144859
v 0.07500000 -0.00582560 -0.01009615
v -0.03500000 -0.00449100 -0.01263898
v 0.07500000 -0.00531270 -0.01144859
v 0.07500000 -0.00449100 -0.01263898
v -0.03500000 -0.00340830 -0.01359816
v 0.07500000 -0.00340830 -0.01359816
v -0.03500000 -0.00212760 -0.01427035
v 0.07500000 -0.00212760 -0.01427035
v 0.07500000 -0.00072320 -0.01461651
v -0.03500000 -0.00072320 -0.01461651
v 0.07500000 0.00072330 -0.01461651
v -0.03500000 0.00072330 -0.01461651
v 0.07500000 0.00212770 -0.01427035
v -0.03500000 0.00212770 -0.01427035
v 0.07500000 0.00340840 -0.01359816
v -0.03500000 0.00340840 -0.01359816
v -0.03500000 0.00449110 -0.01263898
v 0.07500000 0.00449110 -0.01263898
v -0.03500000 0.00531280 -0.01144859
v 0.07500000 0.00531280 -0.01144859
v -0.03500000 0.00582570 -0.01009615
v 0.07500000 0.00582570 -0.01009615
v -0.03500000 0.00600000 -0.00866025
v 0.07500000 0.00600000 -0.00866025
v -0.03500000 0.00582570 -0.00722436
v 0.07500000 0.00582570 -0.00722436
v -0.03500000 0.00531280 -0.00587191
v 0.07500000 0.00531280 -0.00587191
v -0.03500000 0.00449110 -0.00468151
v 0.07500000 0.00449110 -0.00468151
v -0.03500000 0.00340840 -0.00372235
v 0.07500000 0.00340840 -0.00372235
v -0.03500000 0.00212770 -0.00305015
v 0.07500000 0.00212770 -0.00305015
v -0.03500000 0.00072330 -0.00270399
v 0.07500000 0.00072330 -0.00270399
v -0.03500000 -0.00072320 -0.00270399
v 0.07500000 -0.00072320 -0.00270399
v -0.03500000 -0.00212760 -0.00305015
v 0.07500000 -0.00212760 -0.00305015
v -0.03500000 -0.00340830 -0.00372235
v 0.07500000 -0.00340830 -0.00372235
v -0.03500000 -0.00449100 -0.00468151
v 0.07500000 -0.00449100 -0.00468151
v -0.03500000 -0.00531270 -0.00587191
v 0.07500000 -0.00531270 -0.00587191
v -0.03500000 -0.00582560 -0.00722436
v 0.07500000 -0.00582560 -0.00722436
v -0.03500000 -0.01700000 0.01866026
v -0.07500000 0.01700000 0.01866026
v -0.07500000 -0.01700000 0.01866026
v -0.03500000 0.01700000 0.01866026
v -0.03500000 0.01992480 0.01632782
v -0.07500000 0.02000000 0.01566026
v -0.07500000 0.01992480 0.01632782
v -0.03500000 0.02000000 0.01566026
v -0.03500000 0.01970290 0.01696191
v -0.07500000 0.01970290 0.01696191
v -0.03500000 0.01934550 0.01753073
v -0.07500000 0.01934550 0.01753073
v -0.03500000 0.01887050 0.01800575
v -0.07500000 0.01887050 0.01800575
v -0.03500000 0.01830170 0.01836317
v -0.07500000 0.01830170 0.01836317
v -0.07500000 0.01766760 0.01858504
v -0.03500000 0.01766760 0.01858504
v -0.07500000 0.02000000 -0.00041761
v -0.03500000 0.02000000 -0.00041761
v -0.03500000 0.01949440 -0.00208432
v -0.07500000 0.01912140 -0.00253893
v -0.07500000 0.01949440 -0.00208432
v -0.03500000 0.01912140 -0.00253893
v -0.03500000 0.01977170 -0.00156566
v -0.07500000 0.01977170 -0.00156566
v -0.07500000 0.01994240 -0.00100288
v -0.03500000 0.01994240 -0.00100288
v -0.07500000 0.00387870 -0.01778157
v -0.03500000 0.00387870 -0.01778157
v -0.03500000 0.00234270 -0.01860260
v -0.07500000 0.00175740 -0.01866026
v -0.07500000 0.00234270 -0.01860260
v -0.03500000 0.00175740 -0.01866026
v -0.03500000 0.00290540 -0.01843189
v -0.07500000 0.00290540 -0.01843189
v -0.03500000 0.00342410 -0.01815467
v -0.07500000 0.00342410 -0.01815467
v -0.07500000 -0.00175730 -0.01866026
v -0.03500000 -0.00175730 -0.01866026
v -0.03500000 -0.00342400 -0.01815467
v -0.07500000 -0.00387860 -0.01778157
v -0.07500000 -0.00342400 -0.01815467
v -0.03500000 -0.00387860 -0.01778157
v -0.03500000 -0.00290540 -0.01843189
v -0.07500000 -0.00290540 -0.01843189
v -0.07500000 -0.00234260 -0.01860260
v -0.03500000 -0.00234260 -0.01860260
v -0.07500000 -0.01912130 -0.00253893
v -0.03500000 -0.01912130 -0.00253893
v -0.03500000 -0.02000000 -0.00041761
v -0.07500000 -0.02000000 -0.00041761
v -0.07500000 -0.01994230 -0.00100288
v -0.03500000 -0.01994230 -0.00100288
v -0.03500000 -0.01977160 -0.00156566
v -0.07500000 -0.01977160 -0.00156566
v -0.03500000 -0.01949440 -0.00208432
v -0.07500000 -0.01949440 -0.00208432
v -0.07500000 -0.02000000 0.01566026
v -0.03500000 -0.02000000 0.01566026
v -0.07500000 -0.01766750 0.01858504
v -0.03500000 -0.01766750 0.01858504
v -0.03500000 -0.01830160 0.01836317
v -0.07500000 -0.01830160 0.01836317
v -0.03500000 -0.01887040 0.01800575
v -0.07500000 -0.01887040 0.01800575
v -0.03500000 -0.01934550 0.01753073
v -0.07500000 -0.01934550 0.01753073
v -0.03500000 -0.01970290 0.01696191
v -0.07500000 -0.01970290 0.01696191
v -0.07500000 -0.01992470 0.01632782
v -0.03500000 -0.01992470 0.01632782
v -0.03500000 -0.01340830 0.00372236
v -0.03500000 -0.01449100 0.00468152
v -0.03500000 -0.01531270 0.00587192
v -0.03500000 -0.01212760 0.00305016
v -0.03500000 -0.01582560 0.00722437
v -0.03500000 -0.01072320 0.00270401
v -0.03500000 -0.01600000 0.00866026
v -0.03500000 -0.00927670 0.00270401
v -0.03500000 -0.00787230 0.00305016
v -0.03500000 -0.01582560 0.01009615
v -0.03500000 -0.01531270 0.01144860
v -0.03500000 -0.00659160 0.00372236
v -0.03500000 -0.01449100 0.01263900
v -0.03500000 -0.00550890 0.00468152
v -0.03500000 -0.00468720 0.00587192
v -0.03500000 -0.01340830 0.01359816
v -0.03500000 -0.01212760 0.01427036
v -0.03500000 -0.01072320 0.01461651
v -0.03500000 -0.00927670 0.01461651
v -0.03500000 -0.00787230 0.01427036
v -0.03500000 0.00550900 0.00468152
v -0.03500000 0.00659170 0.00372236
v -0.03500000 0.00468730 0.00587192
v -0.03500000 -0.00417430 0.00722437
v -0.03500000 0.00787240 0.00305016
v -0.03500000 0.00417440 0.00722437
v -0.03500000 -0.00400000 0.00866026
v -0.03500000 0.00927680 0.00270401
v -0.03500000 0.00400000 0.00866026
v -0.03500000 -0.00417430 0.01009615
v -0.03500000 0.01072330 0.00270401
v -0.03500000 0.00417440 0.01009615
v -0.03500000 -0.00468720 0.01144860
v -0.03500000 0.00468730 0.01144860
v -0.03500000 -0.00550890 0.01263900
v -0.03500000 0.01212770 0.00305016
v -0.03500000 0.01340840 0.00372236
v -0.03500000 0.00550900 0.01263900
v -0.03500000 -0.00659160 0.01359816
v -0.03500000 0.01449110 0.00468152
v -0.03500000 0.00659170 0.01359816
v -0.03500000 0.01531280 0.00587192
v -0.03500000 0.00787240 0.01427036
v -0.03500000 0.01582570 0.00722437
v -0.03500000 0.01600000 0.00866026
v -0.03500000 0.01340840 0.01359816
v -0.03500000 0.01449110 0.01263900
v -0.03500000 0.01212770 0.01427036
v -0.03500000 0.01072330 0.01461651
v -0.03500000 0.00927680 0.01461651
v -0.03500000 0.01582570 0.01009615
v -0.03500000 0.01531280 0.01144860
v 0.07500000 -0.01582560 0.00722437
v 0.07500000 -0.01600000 0.00866026
v 0.07500000 -0.01531270 0.00587192
v 0.07500000 -0.01449100 0.00468152
v 0.07500000 -0.01340830 0.00372236
v 0.07500000 -0.01212760 0.00305016
v 0.07500000 -0.01072320 0.00270401
v 0.07500000 -0.00927670 0.00270401
v 0.07500000 -0.00787230 0.00305016
v 0.07500000 -0.00659160 0.00372236
v 0.07500000 -0.00550890 0.00468152
v 0.07500000 -0.00468720 0.00587192
v 0.07500000 -0.00417430 0.00722437
v 0.07500000 -0.00400000 0.00866026
v 0.07500000 -0.00417430 0.01009615
v 0.07500000 -0.00468720 0.01144860
v 0.07500000 -0.00550890 0.01263900
v 0.07500000 -0.00659160 0.01359816
v 0.07500000 -0.00787230 0.01427036
v 0.07500000 -0.00927670 0.01461651
v 0.07500000 -0.01072320 0.01461651
v 0.07500000 -0.01212760 0.01427036
v 0.07500000 -0.01340830 0.01359816
v 0.07500000 -0.01449100 0.01263900
v 0.07500000 -0.01531270 0.01144860
v 0.07500000 -0.01582560 0.01009615
v 0.07500000 0.00400000 0.00866026
v 0.07500000 0.00417440 0.00722437
v 0.07500000 0.00468730 0.00587192
v 0.07500000 0.00550900 0.00468152
v 0.07500000 0.00659170 0.00372236
v 0.07500000 0.00787240 0.00305016
v 0.07500000 0.00927680 0.00270401
v 0.07500000 0.01072330 0.00270401
v 0.07500000 0.01212770 0.00305016
v 0.07500000 0.01340840 0.00372236
v 0.07500000 0.01449110 0.00468152
v 0.07500000 0.01531280 0.00587192
v 0.07500000 0.01582570 0.00722437
v 0.07500000 0.01600000 0.00866026
v 0.07500000 0.01582570 0.01009615
v 0.07500000 0.01531280 0.01144860
v 0.07500000 0.01449110 0.01263900
v 0.07500000 0.01340840 0.01359816
v 0.07500000 0.01212770 0.01427036
v 0.07500000 0.01072330 0.01461651
v 0.07500000 0.00927680 0.01461651
v 0.07500000 0.00787240 0.01427036
v 0.07500000 0.00659170 0.01359816
v 0.07500000 0.00550900 0.01263900
v 0.07500000 0.00468730 0.01144860
v 0.07500000 0.00417440 0.01009615
f 1 2 3
f 4 2 1
f 5 6 7
f 5 8 6
f 9 10 11
f 9 12 10
f 13 14 15
f 16 15 17
f 16 13 15
f 18 17 19
f 18 16 17
f 20 19 21
f 20 18 19
f 22 21 23
f 22 20 21
f 24 23 25
f 24 22 23
f 26 25 27
f 26 24 25
f 28 27 29
f 28 26 27
f 30 31 32
f 33 32 34
f 33 30 32
f 35 31 30
f 35 29 31
f 35 36 28
f 35 28 29
f 37 34 38
f 37 33 34
f 39 36 35
f 39 40 36
f 41 38 42
f 41 37 38
f 43 40 39
f 43 44 40
f 45 41 42
f 45 42 46
f 47 44 43
f 47 48 44
f 49 46 50
f 49 45 46
f 51 48 47
f 51 52 48
f 53 50 54
f 53 49 50
f 55 56 52
f 55 52 51
f 57 53 54
f 58 56 55
f 58 59 56
f 60 59 58
f 11 10 14
f 11 14 13
f 1 3 57
f 1 57 54
f 7 6 61
f 61 6 62
f 61 62 60
f 60 62 59
f 63 64 65
f 66 67 64
f 66 64 63
f 68 69 67
f 68 67 66
f 70 71 69
f 70 69 68
f 72 73 71
f 72 71 70
f 74 75 73
f 74 73 72
f 76 77 75
f 76 75 74
f 78 79 77
f 78 77 76
f 80 81 82
f 83 84 81
f 83 81 80
f 85 79 78
f 85 82 79
f 85 80 82
f 85 78 86
f 87 88 84
f 87 84 83
f 89 85 86
f 89 86 90
f 91 92 88
f 91 88 87
f 93 89 90
f 93 90 94
f 95 92 91
f 95 96 92
f 97 94 98
f 97 93 94
f 99 100 96
f 99 96 95
f 101 98 102
f 101 97 98
f 103 104 100
f 103 100 99
f 105 102 106
f 105 101 102
f 107 104 103
f 108 106 109
f 108 105 106
f 110 108 109
f 4 107 2
f 4 104 107
f 5 111 8
f 111 112 8
f 111 110 112
f 110 109 112
f 9 65 12
f 9 63 65
f 64 67 113
f 64 113 114
f 15 115 17
f 65 64 114
f 65 114 116
f 117 115 15
f 117 15 14
f 12 65 116
f 118 12 116
f 119 117 14
f 119 14 10
f 120 12 118
f 120 119 10
f 120 10 12
f 120 118 121
f 122 120 121
f 122 121 123
f 124 122 123
f 125 124 123
f 125 123 126
f 127 126 128
f 127 125 126
f 129 128 130
f 129 127 128
f 131 129 130
f 131 130 132
f 131 132 133
f 134 131 133
f 4 133 135
f 4 134 133
f 1 134 4
f 136 134 1
f 104 135 137
f 104 4 135
f 54 136 1
f 138 136 54
f 100 137 139
f 100 104 137
f 50 138 54
f 140 138 50
f 96 139 141
f 96 100 139
f 46 140 50
f 142 140 46
f 92 141 143
f 92 96 141
f 42 142 46
f 144 142 42
f 88 143 145
f 88 92 143
f 38 144 42
f 146 144 38
f 84 145 147
f 84 88 145
f 34 146 38
f 148 146 34
f 81 147 149
f 81 84 147
f 32 148 34
f 150 148 32
f 82 81 149
f 82 149 151
f 31 150 32
f 152 150 31
f 79 82 151
f 79 151 153
f 29 152 31
f 154 152 29
f 77 79 153
f 77 153 155
f 27 154 29
f 156 154 27
f 75 77 155
f 75 155 157
f 25 156 27
f 158 156 25
f 73 75 157
f 73 157 159
f 23 158 25
f 160 158 23
f 71 73 159
f 71 159 161
f 21 160 23
f 162 160 21
f 69 161 163
f 69 71 161
f 19 162 21
f 164 162 19
f 67 163 113
f 67 69 163
f 17 164 19
f 115 164 17
f 165 166 167
f 165 168 166
f 169 170 171
f 169 172 170
f 173 171 174
f 173 169 171
f 175 174 176
f 175 173 174
f 177 176 178
f 177 175 176
f 179 178 180
f 179 180 181
f 179 177 178
f 182 181 166
f 182 179 181
f 168 182 166
f 172 183 170
f 172 184 183
f 185 186 187
f 185 188 186
f 189 187 190
f 189 190 191
f 189 185 187
f 192 191 183
f 192 189 191
f 184 192 183
f 188 193 186
f 188 194 193
f 195 196 197
f 195 198 196
f 199 197 200
f 199 195 197
f 201 200 202
f 201 202 193
f 201 199 200
f 194 201 193
f 198 203 196
f 198 204 203
f 205 206 207
f 205 208 206
f 209 207 210
f 209 210 211
f 209 205 207
f 212 211 203
f 212 209 211
f 204 212 203
f 208 213 206
f 208 214 213
f 215 216 217
f 218 215 217
f 219 217 220
f 219 218 217
f 221 220 222
f 221 219 220
f 214 222 213
f 214 221 222
f 215 223 216
f 215 224 223
f 165 167 225
f 226 165 225
f 227 225 228
f 227 226 225
f 229 228 230
f 229 227 228
f 231 230 232
f 231 229 230
f 233 232 234
f 233 234 235
f 233 231 232
f 236 233 235
f 224 235 223
f 224 236 235
f 215 218 219
f 215 219 221
f 215 221 214
f 121 118 208
f 116 214 208
f 116 208 118
f 123 208 205
f 123 205 209
f 123 209 212
f 123 121 208
f 114 214 116
f 126 212 204
f 126 204 198
f 126 123 212
f 113 214 114
f 128 198 195
f 128 126 198
f 163 214 113
f 130 195 199
f 130 199 201
f 130 201 194
f 130 128 195
f 132 130 194
f 237 215 214
f 237 238 215
f 239 215 238
f 240 237 214
f 241 215 239
f 133 132 194
f 242 163 161
f 242 214 163
f 242 240 214
f 243 215 241
f 244 161 159
f 244 242 161
f 135 133 194
f 245 159 157
f 245 244 159
f 224 243 246
f 224 215 243
f 247 224 246
f 248 157 155
f 248 245 157
f 249 224 247
f 231 233 236
f 250 155 153
f 250 248 155
f 251 153 151
f 251 250 153
f 165 226 227
f 165 227 229
f 165 229 231
f 165 236 224
f 165 224 249
f 165 231 236
f 165 249 252
f 253 165 252
f 254 165 253
f 255 165 254
f 256 165 255
f 257 151 149
f 258 149 147
f 258 257 149
f 259 251 151
f 259 260 251
f 259 151 257
f 261 147 145
f 261 258 147
f 262 263 260
f 262 260 259
f 264 145 143
f 264 261 145
f 265 266 263
f 265 263 262
f 267 143 141
f 267 264 143
f 268 269 266
f 268 266 265
f 270 271 269
f 270 269 268
f 188 139 137
f 188 141 139
f 188 267 141
f 188 272 267
f 188 135 194
f 188 137 135
f 273 272 188
f 274 271 270
f 274 275 271
f 184 188 185
f 184 185 189
f 184 189 192
f 184 273 188
f 184 276 273
f 277 256 275
f 277 275 274
f 278 276 184
f 279 256 277
f 280 278 184
f 281 280 184
f 168 282 283
f 168 284 282
f 168 285 284
f 168 286 285
f 168 279 286
f 172 281 184
f 172 168 283
f 172 287 281
f 172 288 287
f 172 283 288
f 173 172 169
f 177 168 172
f 177 179 182
f 177 182 168
f 175 177 172
f 175 172 173
f 168 165 279
f 279 165 256
f 119 120 122
f 117 119 122
f 125 122 124
f 164 115 117
f 131 125 127
f 131 127 129
f 131 122 125
f 158 160 162
f 158 162 164
f 136 131 134
f 136 122 131
f 154 156 158
f 140 136 138
f 140 122 136
f 142 122 140
f 150 152 154
f 146 142 144
f 146 148 150
f 146 117 122
f 146 164 117
f 146 154 158
f 146 158 164
f 146 150 154
f 146 122 142
f 289 290 243
f 289 243 241
f 9 289 241
f 9 241 239
f 11 289 9
f 238 9 239
f 291 289 11
f 63 9 238
f 237 63 238
f 292 291 11
f 292 11 13
f 66 63 237
f 240 66 237
f 293 292 13
f 293 13 16
f 68 66 240
f 242 68 240
f 294 293 16
f 294 16 18
f 70 68 242
f 70 242 244
f 295 294 18
f 295 18 20
f 72 244 245
f 72 70 244
f 296 295 20
f 296 20 22
f 74 245 248
f 74 72 245
f 297 296 22
f 297 22 24
f 76 248 250
f 76 74 248
f 298 297 24
f 298 24 26
f 78 250 251
f 78 76 250
f 299 26 28
f 299 298 26
f 86 251 260
f 86 78 251
f 300 28 36
f 300 299 28
f 90 260 263
f 90 86 260
f 301 36 40
f 301 300 36
f 94 263 266
f 94 90 263
f 302 40 44
f 302 301 40
f 98 266 269
f 98 94 266
f 303 44 48
f 303 302 44
f 102 269 271
f 102 98 269
f 304 303 48
f 304 48 52
f 106 102 271
f 106 271 275
f 305 304 52
f 305 52 56
f 109 106 275
f 109 275 256
f 306 305 56
f 306 56 59
f 112 109 256
f 112 256 255
f 307 306 59
f 307 59 62
f 8 112 255
f 8 255 254
f 308 307 62
f 308 62 6
f 309 8 254
f 309 308 6
f 309 6 8
f 310 254 253
f 310 309 254
f 311 253 252
f 311 310 253
f 311 252 249
f 312 311 249
f 313 249 247
f 313 312 249
f 314 247 246
f 314 313 247
f 290 246 243
f 290 314 246
f 291 292 293
f 289 291 293
f 295 293 294
f 314 290 289
f 298 295 296
f 298 296 297
f 298 293 295
f 311 312 313
f 311 313 314
f 300 298 299
f 300 293 298
f 309 310 311
f 302 300 301
f 302 293 300
f 303 293 302
f 307 308 309
f 305 303 304
f 305 306 307
f 305 289 293
f 305 314 289
f 305 309 311
f 305 311 314
f 305 307 309
f 305 293 303
f 89 93 265
f 89 265 262
f 39 315 43
f 316 315 39
f 85 262 259
f 85 89 262
f 35 316 39
f 317 316 35
f 80 85 259
f 80 259 257
f 30 317 35
f 318 317 30
f 83 80 257
f 83 257 258
f 33 318 30
f 319 318 33
f 87 83 258
f 87 258 261
f 37 319 33
f 320 319 37
f 91 87 261
f 91 261 264
f 41 320 37
f 321 320 41
f 95 91 264
f 95 264 267
f 45 321 41
f 322 321 45
f 99 95 267
f 99 267 272
f 49 322 45
f 323 322 49
f 103 99 272
f 103 272 273
f 53 323 49
f 324 323 53
f 107 273 276
f 107 103 273
f 57 324 53
f 325 324 57
f 2 276 278
f 2 107 276
f 3 325 57
f 280 2 278
f 326 325 3
f 327 3 2
f 327 280 281
f 327 2 280
f 327 326 3
f 328 281 287
f 328 327 281
f 329 328 287
f 329 287 288
f 330 329 288
f 331 330 288
f 331 288 283
f 332 331 283
f 332 283 282
f 333 332 282
f 333 282 284
f 333 284 285
f 5 285 286
f 334 333 285
f 334 285 5
f 334 5 7
f 111 5 286
f 111 286 279
f 335 334 7
f 335 7 61
f 110 111 279
f 110 279 277
f 336 335 61
f 336 61 60
f 108 110 277
f 108 277 274
f 337 336 60
f 337 60 58
f 105 108 274
f 270 105 274
f 338 337 58
f 338 58 55
f 101 105 270
f 268 101 270
f 339 338 55
f 339 55 51
f 97 101 268
f 265 97 268
f 340 339 51
f 340 51 47
f 93 97 265
f 315 340 47
f 315 47 43
f 317 318 319
f 316 317 319
f 321 319 320
f 340 315 316
f 324 321 322
f 324 322 323
f 324 319 321
f 337 338 339
f 337 339 340
f 326 324 325
f 326 319 324
f 335 336 337
f 328 326 327
f 328 319 326
f 329 319 328
f 333 334 335
f 331 329 330
f 331 332 333
f 331 316 319
f 331 340 316
f 331 335 337
f 331 337 340
f 331 333 335
f 331 319 329
f 203 207 206
f 203 210 207
f 203 211 210
f 216 220 217
f 216 222 220
f 216 213 222
f 196 203 206
f 200 197 196
f 202 200 196
f 193 206 213
f 193 196 206
f 193 202 196
f 230 234 232
f 228 235 234
f 228 234 230
f 225 223 235
f 225 235 228
f 167 216 223
f 167 213 216
f 167 223 225
f 186 193 213
f 186 213 167
f 190 187 186
f 183 191 190
f 183 190 186
f 166 186 167
f 166 183 186
f 170 183 166
f 181 170 166
f 178 170 181
f 178 171 170
f 178 181 180
f 176 171 178
f 176 174 171