mtllib peg.mtl
o peg
usemtl peg_mat
v -0.125000 -0.015000 -0.010000
v -0.125000 -0.015000 0.010000
v -0.125000 0.015000 -0.010000
v -0.125000 0.015000 0.010000
v 0.125000 -0.015000 -0.010000
v 0.125000 -0.015000 0.010000
v 0.125000 0.015000 -0.010000
v 0.125000 0.015000 0.010000
v 0.105000 -0.050000 -0.010000
v 0.105000 -0.050000 0.010000
v 0.105000 0.050000 -0.010000
v 0.105000 0.050000 0.010000
v 0.125000 -0.050000 -0.010000
v 0.125000 -0.050000 0.010000
v 0.125000 0.050000 -0.010000
v 0.125000 0.050000 0.010000
vt 0.0 0.0
vn -1.000000 0.000000 0.000000
vn 0.000000 -1.000000 0.000000
vn -1.000000 0.000000 0.000000
vn 0.000000 0.000000 -1.000000
vn 0.000000 0.000000 1.000000
vn 0.000000 -1.000000 0.000000
vn 0.000000 0.000000 1.000000
vn 0.000000 1.000000 0.000000
vn 0.000000 0.000000 -1.000000
vn 0.000000 1.000000 0.000000
vn 1.000000 0.000000 0.000000
vn 1.000000 0.000000 0.000000
vn -1.000000 0.000000 0.000000
vn 0.000000 -1.000000 0.000000
vn -1.000000 0.000000 0.000000
vn 0.000000 0.000000 -1.000000
vn 0.000000 0.000000 1.000000
vn 0.000000 -1.000000 0.000000
vn 0.000000 0.000000 1.000000
vn 0.000000 1.000000 0.000000
vn 0.000000 0.000000 -1.000000
vn 0.000000 1.000000 0.000000
vn 1.000000 0.000000 0.000000
vn 1.000000 0.000000 0.000000
f 2/1/1 4/1/1 1/1/1
f 5/1/2 2/1/2 1/1/2
f 1/1/3 4/1/3 3/1/3
f 3/1/4 5/1/4 1/1/4
f 2/1/5 8/1/5 4/1/5
f 6/1/6 2/1/6 5/1/6
f 6/1/7 8/1/7 2/1/7
f 4/1/8 8/1/8 3/1/8
f 7/1/9 5/1/9 3/1/9
f 3/1/10 8/1/10 7/1/10
f 7/1/11 6/1/11 5/1/11
f 8/1/12 6/1/12 7/1/12
f 10/1/13 12/1/13 9/1/13
f 13/1/14 10/1/14 9/1/14
f 9/1/15 12/1/15 11/1/15
f 11/1/16 13/1/16 9/1/16
f 10/1/17 16/1/17 12/1/17
f 14/1/18 10/1/18 13/1/18
f 14/1/19 16/1/19 10/1/19
f 12/1/20 16/1/20 11/1/20
f 15/1/21 13/1/21 11/1/21
f 11/1/22 16/1/22 15/1/22
f 15/1/23 14/1/23 13/1/23
f 16/1/24 14/1/24 15/1/24
