# https://github.com/mikedh/trimesh
v 0.02500000 -0.00660194 0.00593845 0.43529412 0.89019608 0.96078431
v 0.02500000 -0.00660194 -0.00593845 0.43529412 0.89019608 0.96078431
v 0.00004703 -0.00660194 0.00593845 0.43529412 0.89019608 0.96078431
v 0.02500000 -0.00670078 0.00682030 0.43529412 0.89019608 0.96078431
v 0.02500000 -0.00670078 -0.00682030 0.43529412 0.89019608 0.96078431
v 0.00004703 -0.00660194 -0.00594039 0.43529412 0.89019608 0.96078431
v 0.00004703 -0.00670078 0.00681836 0.43529412 0.89019608 0.96078431
v 0.02500000 -0.00699344 0.00765758 0.43529412 0.89019608 0.96078431
v 0.02500000 -0.00699344 -0.00765758 0.43529412 0.89019608 0.96078431
v 0.00004703 -0.00670078 -0.00682224 0.43529412 0.89019608 0.96078431
v 0.00004703 -0.00699344 0.00765564 0.43529412 0.89019608 0.96078431
v 0.00004703 -0.00746441 0.00840764 0.43529412 0.89019608 0.96078431
v 0.02500000 -0.00746441 0.00840764 0.43529412 0.89019608 0.96078431
v 0.02500000 -0.00746441 -0.00840764 0.43529412 0.89019608 0.96078431
v 0.00004703 -0.00699344 -0.00765758 0.43529412 0.89019608 0.96078431
v 0.00004703 -0.00809043 0.00903365 0.43529412 0.89019608 0.96078431
v 0.02500000 -0.00809236 0.00903559 0.43529412 0.89019608 0.96078431
v 0.02500000 -0.00809236 -0.00903559 0.43529412 0.89019608 0.96078431
v 0.00004703 -0.00746635 -0.00840957 0.43529412 0.89019608 0.96078431
v 0.00004703 -0.00884048 0.00950656 0.43529412 0.89019608 0.96078431
v 0.02500000 -0.00884242 0.00950656 0.43529412 0.89019608 0.96078431
v 0.02500000 -0.00884242 -0.00950656 0.43529412 0.89019608 0.96078431
v 0.00004703 -0.00809430 -0.00903559 0.43529412 0.89019608 0.96078431
v 0.00004703 -0.00967970 0.00979922 0.43529412 0.89019608 0.96078431
v 0.02500000 -0.00967970 0.00979922 0.43529412 0.89019608 0.96078431
v 0.02500000 -0.00967970 -0.00979922 0.43529412 0.89019608 0.96078431
v 0.00004703 -0.00884436 -0.00950656 0.43529412 0.89019608 0.96078431
v 0.00004703 -0.01056155 0.00989806 0.43529412 0.89019608 0.96078431
v 0.02500000 -0.01056155 0.00989806 0.43529412 0.89019608 0.96078431
v 0.02500000 -0.01056155 -0.00989806 0.43529412 0.89019608 0.96078431
v 0.00004703 -0.01056155 -0.00989806 0.43529412 0.89019608 0.96078431
v 0.00004703 -0.00968164 -0.00979922 0.43529412 0.89019608 0.96078431
v 0.00004703 -0.02243845 0.00989806 0.43529412 0.89019608 0.96078431
v 0.02500000 -0.02243845 0.00989806 0.43529412 0.89019608 0.96078431
v 0.02500000 -0.02243845 -0.00989806 0.43529412 0.89019608 0.96078431
v 0.00004703 -0.02243845 -0.00989806 0.43529412 0.89019608 0.96078431
v 0.00004703 -0.02265940 0.00987480 0.43529412 0.89019608 0.96078431
v 0.02500000 -0.02332030 0.00979922 0.43529412 0.89019608 0.96078431
v 0.02500000 -0.02332030 -0.00979922 0.43529412 0.89019608 0.96078431
v 0.00004703 -0.02310129 -0.00982441 0.43529412 0.89019608 0.96078431
v 0.00004703 -0.02332030 0.00979922 0.43529412 0.89019608 0.96078431
v 0.02500000 -0.02415757 0.00950656 0.43529412 0.89019608 0.96078431
v 0.00004703 -0.02352962 0.00972751 0.43529412 0.89019608 0.96078431
v 0.02500000 -0.02415757 -0.00950656 0.43529412 0.89019608 0.96078431
v 0.00004703 -0.02394826 -0.00958021 0.43529412 0.89019608 0.96078431
v 0.00004703 -0.02332030 -0.00979922 0.43529412 0.89019608 0.96078431
v 0.02500000 -0.02490763 0.00903559 0.43529412 0.89019608 0.96078431
v 0.00004703 -0.02415757 0.00950656 0.43529412 0.89019608 0.96078431
v 0.02500000 -0.02490763 -0.00903559 0.43529412 0.89019608 0.96078431
v 0.00004703 -0.02415757 -0.00950656 0.43529412 0.89019608 0.96078431
v 0.02500000 -0.02553559 0.00840764 0.43529412 0.89019608 0.96078431
v 0.00004703 -0.02490763 0.00903559 0.43529412 0.89019608 0.96078431
v 0.02500000 -0.02553559 -0.00840764 0.43529412 0.89019608 0.96078431
v 0.00004703 -0.02490763 -0.00903559 0.43529412 0.89019608 0.96078431
v 0.02500000 -0.02600656 0.00765758 0.43529412 0.89019608 0.96078431
v 0.00004703 -0.02553559 0.00840764 0.43529412 0.89019608 0.96078431
v 0.02500000 -0.02600656 -0.00765758 0.43529412 0.89019608 0.96078431
v 0.00004703 -0.02553559 -0.00840764 0.43529412 0.89019608 0.96078431
v 0.02500000 -0.02629922 0.00682030 0.43529412 0.89019608 0.96078431
v 0.00004703 -0.02600656 0.00765758 0.43529412 0.89019608 0.96078431
v 0.00004703 -0.02608021 0.00744826 0.43529412 0.89019608 0.96078431
v 0.02500000 -0.02629922 -0.00682030 0.43529412 0.89019608 0.96078431
v 0.00004703 -0.02622750 -0.00702962 0.43529412 0.89019608 0.96078431
v 0.00004703 -0.02600656 -0.00765758 0.43529412 0.89019608 0.96078431
v 0.02500000 -0.02640000 0.00593845 0.43529412 0.89019608 0.96078431
v 0.00004703 -0.02629922 0.00682030 0.43529412 0.89019608 0.96078431
v 0.00004703 -0.02632441 0.00660129 0.43529412 0.89019608 0.96078431
v 0.02500000 -0.02640000 -0.00593845 0.43529412 0.89019608 0.96078431
v 0.00004703 -0.02637480 -0.00615940 0.43529412 0.89019608 0.96078431
v 0.00004703 -0.02629922 -0.00682030 0.43529412 0.89019608 0.96078431
v 0.00004703 -0.02640000 0.00593845 0.43529412 0.89019608 0.96078431
v 0.00004703 -0.02640000 -0.00593845 0.43529412 0.89019608 0.96078431
f 1 2 6
f 1 6 3
f 1 3 4
f 1 4 8
f 1 8 13
f 1 13 17
f 1 17 21
f 1 21 25
f 1 25 29
f 1 29 34
f 1 34 38
f 1 38 42
f 1 42 47
f 1 47 51
f 1 51 55
f 1 55 59
f 1 59 65
f 1 65 68
f 1 68 62
f 1 62 57
f 1 57 53
f 1 53 49
f 1 49 44
f 1 44 39
f 1 39 35
f 1 35 30
f 1 30 26
f 1 26 22
f 1 22 18
f 1 18 14
f 1 14 9
f 1 9 5
f 1 5 2
f 2 5 10
f 2 10 6
f 3 6 10
f 3 10 15
f 3 15 19
f 3 19 23
f 3 23 27
f 3 27 32
f 3 32 31
f 3 31 36
f 3 36 40
f 3 40 46
f 3 46 45
f 3 45 50
f 3 50 54
f 3 54 58
f 3 58 64
f 3 64 63
f 3 63 70
f 3 70 69
f 3 69 72
f 3 72 71
f 3 71 67
f 3 67 66
f 3 66 61
f 3 61 60
f 3 60 56
f 3 56 52
f 3 52 48
f 3 48 43
f 3 43 41
f 3 41 37
f 3 37 33
f 3 33 28
f 3 28 24
f 3 24 20
f 3 20 16
f 3 16 12
f 3 12 11
f 3 11 7
f 3 7 4
f 4 7 11
f 4 11 8
f 5 9 10
f 8 11 12
f 8 12 13
f 9 14 15
f 9 15 10
f 12 16 17
f 12 17 13
f 14 18 19
f 14 19 15
f 16 20 17
f 17 20 21
f 18 22 27
f 18 27 23
f 18 23 19
f 20 24 25
f 20 25 21
f 22 26 32
f 22 32 27
f 24 28 29
f 24 29 25
f 26 30 31
f 26 31 32
f 28 33 34
f 28 34 29
f 30 35 36
f 30 36 31
f 33 37 34
f 34 37 38
f 35 39 40
f 35 40 36
f 37 41 38
f 38 41 43
f 38 43 42
f 39 44 45
f 39 45 46
f 39 46 40
f 42 43 48
f 42 48 52
f 42 52 47
f 44 49 54
f 44 54 50
f 44 50 45
f 47 52 56
f 47 56 51
f 49 53 58
f 49 58 54
f 51 56 60
f 51 60 55
f 53 57 64
f 53 64 58
f 55 60 61
f 55 61 59
f 57 62 63
f 57 63 64
f 59 61 66
f 59 66 67
f 59 67 65
f 62 68 69
f 62 69 70
f 62 70 63
f 65 67 71
f 65 71 72
f 65 72 68
f 68 72 69