# https://github.com/mikedh/trimesh
v 0.02500000 0.02640000 0.00000000 0.54117647 0.42352941 0.64313725
v 0.02500000 0.02620812 0.00193038 0.54117647 0.42352941 0.64313725
v 0.02500000 0.02620812 -0.00193038 0.54117647 0.42352941 0.64313725
v 0.00004703 0.02625658 -0.00144779 0.54117647 0.42352941 0.64313725
v 0.00004703 0.02640000 0.00000000 0.54117647 0.42352941 0.64313725
v 0.00004703 0.02620812 0.00193038 0.54117647 0.42352941 0.64313725
v 0.00004703 0.02606858 0.00239360 0.54117647 0.42352941 0.64313725
v 0.02500000 0.02564606 0.00378712 0.54117647 0.42352941 0.64313725
v 0.02500000 0.02564606 -0.00378712 0.54117647 0.42352941 0.64313725
v 0.00004703 0.02620812 -0.00193038 0.54117647 0.42352941 0.64313725
v 0.00004703 0.02564606 0.00378712 0.54117647 0.42352941 0.64313725
v 0.00004703 0.02541736 0.00421545 0.54117647 0.42352941 0.64313725
v 0.02500000 0.02473126 0.00549849 0.54117647 0.42352941 0.64313725
v 0.02500000 0.02473126 -0.00549849 0.54117647 0.42352941 0.64313725
v 0.00004703 0.02564606 -0.00378712 0.54117647 0.42352941 0.64313725
v 0.00004703 0.02473126 0.00549849 0.54117647 0.42352941 0.64313725
v 0.02500000 0.02349861 0.00699861 0.54117647 0.42352941 0.64313725
v 0.00004703 0.02442310 0.00587449 0.54117647 0.42352941 0.64313725
v 0.02500000 0.02349861 -0.00699861 0.54117647 0.42352941 0.64313725
v 0.00004703 0.02380677 -0.00662455 0.54117647 0.42352941 0.64313725
v 0.00004703 0.02473126 -0.00549849 0.54117647 0.42352941 0.64313725
v 0.02500000 0.02199849 0.00823127 0.54117647 0.42352941 0.64313725
v 0.00004703 0.02349861 0.00699861 0.54117647 0.42352941 0.64313725
v 0.00004703 0.02312455 0.00730677 0.54117647 0.42352941 0.64313725
v 0.02500000 0.02199849 -0.00823127 0.54117647 0.42352941 0.64313725
v 0.00004703 0.02237449 -0.00792310 0.54117647 0.42352941 0.64313725
v 0.00004703 0.02349861 -0.00699861 0.54117647 0.42352941 0.64313725
v 0.02500000 0.02028712 0.00914607 0.54117647 0.42352941 0.64313725
v 0.00004703 0.02199849 0.00823127 0.54117647 0.42352941 0.64313725
v 0.02500000 0.02028712 -0.00914607 0.54117647 0.42352941 0.64313725
v 0.00004703 0.02071545 -0.00891737 0.54117647 0.42352941 0.64313725
v 0.00004703 0.02199849 -0.00823127 0.54117647 0.42352941 0.64313725
v 0.02500000 0.01843038 0.00970812 0.54117647 0.42352941 0.64313725
v 0.00004703 0.02028712 0.00914607 0.54117647 0.42352941 0.64313725
v 0.02500000 0.01843038 -0.00970812 0.54117647 0.42352941 0.64313725
v 0.00004703 0.01889360 -0.00956858 0.54117647 0.42352941 0.64313725
v 0.00004703 0.02028712 -0.00914607 0.54117647 0.42352941 0.64313725
v 0.02500000 0.01650000 0.00989806 0.54117647 0.42352941 0.64313725
v 0.00004703 0.01843038 0.00970812 0.54117647 0.42352941 0.64313725
v 0.00004703 0.01650194 0.00989806 0.54117647 0.42352941 0.64313725
v 0.02500000 0.01650000 -0.00989806 0.54117647 0.42352941 0.64313725
v 0.00004703 0.01650194 -0.00989806 0.54117647 0.42352941 0.64313725
v 0.00004703 0.01843038 -0.00970812 0.54117647 0.42352941 0.64313725
v 0.02500000 0.01456961 0.00970812 0.54117647 0.42352941 0.64313725
v 0.00004703 0.01456961 0.00970812 0.54117647 0.42352941 0.64313725
v 0.02500000 0.01456961 -0.00970812 0.54117647 0.42352941 0.64313725
v 0.00004703 0.01456574 -0.00970812 0.54117647 0.42352941 0.64313725
v 0.00004703 0.01649806 -0.00989806 0.54117647 0.42352941 0.64313725
v 0.02500000 0.01271288 0.00914607 0.54117647 0.42352941 0.64313725
v 0.00004703 0.01271288 0.00914607 0.54117647 0.42352941 0.64313725
v 0.02500000 0.01271288 -0.00914607 0.54117647 0.42352941 0.64313725
v 0.00004703 0.01270900 -0.00914413 0.54117647 0.42352941 0.64313725
v 0.02500000 0.01100151 0.00823127 0.54117647 0.42352941 0.64313725
v 0.00004703 0.01100151 0.00823127 0.54117647 0.42352941 0.64313725
v 0.02500000 0.01100151 -0.00823127 0.54117647 0.42352941 0.64313725
v 0.00004703 0.01100151 -0.00823127 0.54117647 0.42352941 0.64313725
v 0.02500000 0.00950139 0.00699861 0.54117647 0.42352941 0.64313725
v 0.00004703 0.00950139 0.00699861 0.54117647 0.42352941 0.64313725
v 0.02500000 0.00950139 -0.00699861 0.54117647 0.42352941 0.64313725
v 0.00004703 0.00949751 -0.00699667 0.54117647 0.42352941 0.64313725
v 0.02500000 0.00826873 0.00549849 0.54117647 0.42352941 0.64313725
v 0.00004703 0.00826873 0.00549849 0.54117647 0.42352941 0.64313725
v 0.02500000 0.00826873 -0.00549849 0.54117647 0.42352941 0.64313725
v 0.00004703 0.00826873 -0.00549849 0.54117647 0.42352941 0.64313725
v 0.02500000 0.00735393 0.00378712 0.54117647 0.42352941 0.64313725
v 0.00004703 0.00735393 0.00378712 0.54117647 0.42352941 0.64313725
v 0.02500000 0.00735393 -0.00378712 0.54117647 0.42352941 0.64313725
v 0.00004703 0.00735393 -0.00378712 0.54117647 0.42352941 0.64313725
v 0.02500000 0.00679187 0.00193038 0.54117647 0.42352941 0.64313725
v 0.00004703 0.00679187 0.00193038 0.54117647 0.42352941 0.64313725
v 0.02500000 0.00679187 -0.00193038 0.54117647 0.42352941 0.64313725
v 0.00004703 0.00679187 -0.00193038 0.54117647 0.42352941 0.64313725
v 0.02500000 0.00660194 0.00000000 0.54117647 0.42352941 0.64313725
v 0.00004703 0.00660194 0.00000000 0.54117647 0.42352941 0.64313725
f 1 2 8
f 1 8 13
f 1 13 17
f 1 17 22
f 1 22 28
f 1 28 33
f 1 33 38
f 1 38 44
f 1 44 49
f 1 49 53
f 1 53 57
f 1 57 61
f 1 61 65
f 1 65 69
f 1 69 73
f 1 73 71
f 1 71 67
f 1 67 63
f 1 63 59
f 1 59 55
f 1 55 51
f 1 51 46
f 1 46 41
f 1 41 35
f 1 35 30
f 1 30 25
f 1 25 19
f 1 19 14
f 1 14 9
f 1 9 3
f 1 3 4
f 1 4 5
f 1 5 6
f 1 6 2
f 2 6 7
f 2 7 8
f 3 9 15
f 3 15 10
f 3 10 4
f 4 10 15
f 4 15 21
f 4 21 20
f 4 20 27
f 4 27 26
f 4 26 32
f 4 32 31
f 4 31 37
f 4 37 36
f 4 36 43
f 4 43 42
f 4 42 48
f 4 48 47
f 4 47 52
f 4 52 56
f 4 56 60
f 4 60 64
f 4 64 68
f 4 68 72
f 4 72 74
f 4 74 70
f 4 70 66
f 4 66 62
f 4 62 58
f 4 58 54
f 4 54 50
f 4 50 45
f 4 45 40
f 4 40 39
f 4 39 34
f 4 34 29
f 4 29 24
f 4 24 23
f 4 23 18
f 4 18 16
f 4 16 12
f 4 12 11
f 4 11 7
f 4 7 6
f 4 6 5
f 7 11 8
f 8 11 12
f 8 12 13
f 9 14 21
f 9 21 15
f 12 16 13
f 13 16 18
f 13 18 17
f 14 19 20
f 14 20 21
f 17 18 23
f 17 23 24
f 17 24 22
f 19 25 26
f 19 26 27
f 19 27 20
f 22 24 29
f 22 29 34
f 22 34 28
f 25 30 31
f 25 31 32
f 25 32 26
f 28 34 39
f 28 39 33
f 30 35 36
f 30 36 37
f 30 37 31
f 33 39 40
f 33 40 38
f 35 41 42
f 35 42 43
f 35 43 36
f 38 40 45
f 38 45 44
f 41 46 47
f 41 47 48
f 41 48 42
f 44 45 50
f 44 50 49
f 46 51 47
f 47 51 52
f 49 50 54
f 49 54 53
f 51 55 52
f 52 55 56
f 53 54 58
f 53 58 57
f 55 59 60
f 55 60 56
f 57 58 62
f 57 62 61
f 59 63 60
f 60 63 64
f 61 62 66
f 61 66 65
f 63 67 68
f 63 68 64
f 65 66 70
f 65 70 69
f 67 71 72
f 67 72 68
f 69 70 74
f 69 74 73
f 71 73 74
f 71 74 72