# https://github.com/mikedh/trimesh
v 0.00004703 0.02640000 0.00000000 0.54509804 0.71372549 0.60000000
v 0.00004703 0.02620877 -0.00193038 0.54509804 0.71372549 0.60000000
v -0.07500000 0.02640000 0.00000000 0.54509804 0.71372549 0.60000000
v 0.00004703 0.02620877 0.00193038 0.54509804 0.71372549 0.60000000
v 0.00004703 0.02564542 -0.00378712 0.54509804 0.71372549 0.60000000
v -0.07500000 0.02620877 -0.00193038 0.54509804 0.71372549 0.60000000
v -0.07500000 0.02620877 0.00193038 0.54509804 0.71372549 0.60000000
v 0.00004703 0.02564542 0.00378712 0.54509804 0.71372549 0.60000000
v 0.00004703 0.02473062 -0.00549849 0.54509804 0.71372549 0.60000000
v -0.07500000 0.02564542 -0.00378712 0.54509804 0.71372549 0.60000000
v -0.07500000 0.02564542 0.00378712 0.54509804 0.71372549 0.60000000
v 0.00004703 0.02541801 0.00421545 0.54509804 0.71372549 0.60000000
v 0.00004703 0.02380548 -0.00662455 0.54509804 0.71372549 0.60000000
v -0.07500000 0.02473062 -0.00549849 0.54509804 0.71372549 0.60000000
v -0.07500000 0.02473062 0.00549849 0.54509804 0.71372549 0.60000000
v 0.00004703 0.02473062 0.00549849 0.54509804 0.71372549 0.60000000
v 0.00004703 0.02349538 -0.00699861 0.54509804 0.71372549 0.60000000
v -0.07500000 0.02349538 -0.00699861 0.54509804 0.71372549 0.60000000
v -0.07500000 0.02349538 0.00699861 0.54509804 0.71372549 0.60000000
v 0.00004703 0.02349538 0.00699861 0.54509804 0.71372549 0.60000000
v 0.00004703 0.02237384 -0.00792310 0.54509804 0.71372549 0.60000000
v -0.07500000 0.02199655 -0.00823127 0.54509804 0.71372549 0.60000000
v -0.07500000 0.02199655 0.00823127 0.54509804 0.71372549 0.60000000
v 0.00004703 0.02312326 0.00730677 0.54509804 0.71372549 0.60000000
v 0.00004703 0.02199655 -0.00823127 0.54509804 0.71372549 0.60000000
v -0.07500000 0.02028583 -0.00914607 0.54509804 0.71372549 0.60000000
v 0.00004703 0.02071480 -0.00891737 0.54509804 0.71372549 0.60000000
v -0.07500000 0.02028583 0.00914607 0.54509804 0.71372549 0.60000000
v 0.00004703 0.02157275 0.00845803 0.54509804 0.71372549 0.60000000
v 0.00004703 0.02199655 0.00823127 0.54509804 0.71372549 0.60000000
v -0.07500000 0.01843038 -0.00970812 0.54509804 0.71372549 0.60000000
v 0.00004703 0.02028583 -0.00914607 0.54509804 0.71372549 0.60000000
v -0.07500000 0.01843038 0.00970812 0.54509804 0.71372549 0.60000000
v 0.00004703 0.02028583 0.00914607 0.54509804 0.71372549 0.60000000
v -0.07500000 0.01649742 -0.00989806 0.54509804 0.71372549 0.60000000
v 0.00004703 0.01843038 -0.00970812 0.54509804 0.71372549 0.60000000
v 0.00004703 0.01650258 -0.00989806 0.54509804 0.71372549 0.60000000
v -0.07500000 0.01649742 0.00989806 0.54509804 0.71372549 0.60000000
v 0.00004703 0.01650258 0.00989806 0.54509804 0.71372549 0.60000000
v 0.00004703 0.01843038 0.00970812 0.54509804 0.71372549 0.60000000
v -0.07500000 -0.02243586 -0.00989806 0.54509804 0.71372549 0.60000000
v 0.00004703 -0.02243586 -0.00989806 0.54509804 0.71372549 0.60000000
v -0.07500000 -0.02243586 0.00989806 0.54509804 0.71372549 0.60000000
v 0.00004703 -0.02243586 0.00989806 0.54509804 0.71372549 0.60000000
v -0.07500000 -0.02331966 -0.00979922 0.54509804 0.71372549 0.60000000
v 0.00004703 -0.02309742 -0.00982441 0.54509804 0.71372549 0.60000000
v -0.07500000 -0.02331966 0.00979922 0.54509804 0.71372549 0.60000000
v 0.00004703 -0.02265811 0.00987480 0.54509804 0.71372549 0.60000000
v -0.07500000 -0.02415693 -0.00950656 0.54509804 0.71372549 0.60000000
v 0.00004703 -0.02331966 -0.00979922 0.54509804 0.71372549 0.60000000
v -0.07500000 -0.02415693 0.00950656 0.54509804 0.71372549 0.60000000
v 0.00004703 -0.02352639 0.00972751 0.54509804 0.71372549 0.60000000
v 0.00004703 -0.02331966 0.00979922 0.54509804 0.71372549 0.60000000
v -0.07500000 -0.02490634 -0.00903559 0.54509804 0.71372549 0.60000000
v 0.00004703 -0.02415693 -0.00950656 0.54509804 0.71372549 0.60000000
v -0.07500000 -0.02490634 0.00903559 0.54509804 0.71372549 0.60000000
v 0.00004703 -0.02415693 0.00950656 0.54509804 0.71372549 0.60000000
v -0.07500000 -0.02553172 -0.00840764 0.54509804 0.71372549 0.60000000
v 0.00004703 -0.02490634 -0.00903559 0.54509804 0.71372549 0.60000000
v 0.00004703 -0.02537666 -0.00856462 0.54509804 0.71372549 0.60000000
v -0.07500000 -0.02553172 0.00840764 0.54509804 0.71372549 0.60000000
v 0.00004703 -0.02490634 0.00903559 0.54509804 0.71372549 0.60000000
v -0.07500000 -0.02600721 -0.00765758 0.54509804 0.71372549 0.60000000
v 0.00004703 -0.02553172 -0.00840764 0.54509804 0.71372549 0.60000000
v -0.07500000 -0.02600721 0.00765758 0.54509804 0.71372549 0.60000000
v 0.00004703 -0.02565059 0.00822157 0.54509804 0.71372549 0.60000000
v 0.00004703 -0.02553172 0.00840764 0.54509804 0.71372549 0.60000000
v -0.07500000 -0.02629663 -0.00682030 0.54509804 0.71372549 0.60000000
v 0.00004703 -0.02600721 -0.00765758 0.54509804 0.71372549 0.60000000
v -0.07500000 -0.02629663 0.00682030 0.54509804 0.71372549 0.60000000
v 0.00004703 -0.02600721 0.00765758 0.54509804 0.71372549 0.60000000
v -0.07500000 -0.02640000 -0.00593845 0.54509804 0.71372549 0.60000000
v 0.00004703 -0.02629663 -0.00682030 0.54509804 0.71372549 0.60000000
v 0.00004703 -0.02637416 -0.00615940 0.54509804 0.71372549 0.60000000
v -0.07500000 -0.02640000 0.00593845 0.54509804 0.71372549 0.60000000
v 0.00004703 -0.02632248 0.00660129 0.54509804 0.71372549 0.60000000
v 0.00004703 -0.02629663 0.00682030 0.54509804 0.71372549 0.60000000
v 0.00004703 -0.02640000 -0.00593845 0.54509804 0.71372549 0.60000000
v 0.00004703 -0.02640000 0.00593845 0.54509804 0.71372549 0.60000000
f 1 2 6
f 1 6 3
f 1 3 7
f 1 7 4
f 1 4 8
f 1 8 12
f 1 12 16
f 1 16 20
f 1 20 24
f 1 24 30
f 1 30 29
f 1 29 34
f 1 34 40
f 1 40 39
f 1 39 44
f 1 44 48
f 1 48 53
f 1 53 52
f 1 52 57
f 1 57 62
f 1 62 67
f 1 67 66
f 1 66 71
f 1 71 77
f 1 77 76
f 1 76 79
f 1 79 78
f 1 78 74
f 1 74 73
f 1 73 69
f 1 69 64
f 1 64 60
f 1 60 59
f 1 59 55
f 1 55 50
f 1 50 46
f 1 46 42
f 1 42 37
f 1 37 36
f 1 36 32
f 1 32 27
f 1 27 25
f 1 25 21
f 1 21 17
f 1 17 13
f 1 13 9
f 1 9 5
f 1 5 2
f 2 5 10
f 2 10 6
f 3 6 10
f 3 10 14
f 3 14 18
f 3 18 22
f 3 22 26
f 3 26 31
f 3 31 35
f 3 35 41
f 3 41 45
f 3 45 49
f 3 49 54
f 3 54 58
f 3 58 63
f 3 63 68
f 3 68 72
f 3 72 75
f 3 75 70
f 3 70 65
f 3 65 61
f 3 61 56
f 3 56 51
f 3 51 47
f 3 47 43
f 3 43 38
f 3 38 33
f 3 33 28
f 3 28 23
f 3 23 19
f 3 19 15
f 3 15 11
f 3 11 7
f 4 7 11
f 4 11 8
f 5 9 14
f 5 14 10
f 8 11 12
f 9 13 14
f 11 15 12
f 12 15 16
f 13 17 18
f 13 18 14
f 15 19 20
f 15 20 16
f 17 21 18
f 18 21 22
f 19 23 24
f 19 24 20
f 21 25 22
f 22 25 27
f 22 27 26
f 23 28 29
f 23 29 30
f 23 30 24
f 26 27 32
f 26 32 36
f 26 36 31
f 28 33 40
f 28 40 34
f 28 34 29
f 31 36 37
f 31 37 35
f 33 38 39
f 33 39 40
f 35 37 42
f 35 42 41
f 38 43 44
f 38 44 39
f 41 42 46
f 41 46 45
f 43 47 48
f 43 48 44
f 45 46 50
f 45 50 55
f 45 55 49
f 47 51 52
f 47 52 53
f 47 53 48
f 49 55 59
f 49 59 54
f 51 56 62
f 51 62 57
f 51 57 52
f 54 59 60
f 54 60 58
f 56 61 67
f 56 67 62
f 58 60 64
f 58 64 69
f 58 69 63
f 61 65 66
f 61 66 67
f 63 69 73
f 63 73 68
f 65 70 77
f 65 77 71
f 65 71 66
f 68 73 74
f 68 74 72
f 70 75 76
f 70 76 77
f 72 74 78
f 72 78 79
f 72 79 75
f 75 79 76