# https://github.com/mikedh/trimesh

o geometry_0
v 0.00004703 0.02640000 0.00000000 0.54509804 0.71372549 0.60000000
v 0.00004703 0.02620877 -0.00193038 0.54509804 0.71372549 0.60000000
v -0.07500000 0.02640000 0.00000000 0.54509804 0.71372549 0.60000000
v 0.00004703 0.02620877 0.00193038 0.54509804 0.71372549 0.60000000
v 0.00004703 0.02564542 -0.00378712 0.54509804 0.71372549 0.60000000
v -0.07500000 0.02620877 -0.00193038 0.54509804 0.71372549 0.60000000
v -0.07500000 0.02620877 0.00193038 0.54509804 0.71372549 0.60000000
v 0.00004703 0.02564542 0.00378712 0.54509804 0.71372549 0.60000000
v 0.00004703 0.02473062 -0.00549849 0.54509804 0.71372549 0.60000000
v -0.07500000 0.02564542 -0.00378712 0.54509804 0.71372549 0.60000000
v -0.07500000 0.02564542 0.00378712 0.54509804 0.71372549 0.60000000
v 0.00004703 0.02541801 0.00421545 0.54509804 0.71372549 0.60000000
v 0.00004703 0.02380548 -0.00662455 0.54509804 0.71372549 0.60000000
v -0.07500000 0.02473062 -0.00549849 0.54509804 0.71372549 0.60000000
v -0.07500000 0.02473062 0.00549849 0.54509804 0.71372549 0.60000000
v 0.00004703 0.02473062 0.00549849 0.54509804 0.71372549 0.60000000
v 0.00004703 0.02349538 -0.00699861 0.54509804 0.71372549 0.60000000
v -0.07500000 0.02349538 -0.00699861 0.54509804 0.71372549 0.60000000
v -0.07500000 0.02349538 0.00699861 0.54509804 0.71372549 0.60000000
v 0.00004703 0.02349538 0.00699861 0.54509804 0.71372549 0.60000000
v 0.00004703 0.02237384 -0.00792310 0.54509804 0.71372549 0.60000000
v -0.07500000 0.02199655 -0.00823127 0.54509804 0.71372549 0.60000000
v -0.07500000 0.02199655 0.00823127 0.54509804 0.71372549 0.60000000
v 0.00004703 0.02312326 0.00730677 0.54509804 0.71372549 0.60000000
v 0.00004703 0.02199655 -0.00823127 0.54509804 0.71372549 0.60000000
v -0.07500000 0.02028583 -0.00914607 0.54509804 0.71372549 0.60000000
v 0.00004703 0.02071480 -0.00891737 0.54509804 0.71372549 0.60000000
v -0.07500000 0.02028583 0.00914607 0.54509804 0.71372549 0.60000000
v 0.00004703 0.02157275 0.00845803 0.54509804 0.71372549 0.60000000
v 0.00004703 0.02199655 0.00823127 0.54509804 0.71372549 0.60000000
v -0.07500000 0.01843038 -0.00970812 0.54509804 0.71372549 0.60000000
v 0.00004703 0.02028583 -0.00914607 0.54509804 0.71372549 0.60000000
v -0.07500000 0.01843038 0.00970812 0.54509804 0.71372549 0.60000000
v 0.00004703 0.02028583 0.00914607 0.54509804 0.71372549 0.60000000
v -0.07500000 0.01649742 -0.00989806 0.54509804 0.71372549 0.60000000
v 0.00004703 0.01843038 -0.00970812 0.54509804 0.71372549 0.60000000
v 0.00004703 0.01650258 -0.00989806 0.54509804 0.71372549 0.60000000
v -0.07500000 0.01649742 0.00989806 0.54509804 0.71372549 0.60000000
v 0.00004703 0.01650258 0.00989806 0.54509804 0.71372549 0.60000000
v 0.00004703 0.01843038 0.00970812 0.54509804 0.71372549 0.60000000
v -0.07500000 -0.02243586 -0.00989806 0.54509804 0.71372549 0.60000000
v 0.00004703 -0.02243586 -0.00989806 0.54509804 0.71372549 0.60000000
v -0.07500000 -0.02243586 0.00989806 0.54509804 0.71372549 0.60000000
v 0.00004703 -0.02243586 0.00989806 0.54509804 0.71372549 0.60000000
v -0.07500000 -0.02331966 -0.00979922 0.54509804 0.71372549 0.60000000
v 0.00004703 -0.02309742 -0.00982441 0.54509804 0.71372549 0.60000000
v -0.07500000 -0.02331966 0.00979922 0.54509804 0.71372549 0.60000000
v 0.00004703 -0.02265811 0.00987480 0.54509804 0.71372549 0.60000000
v -0.07500000 -0.02415693 -0.00950656 0.54509804 0.71372549 0.60000000
v 0.00004703 -0.02331966 -0.00979922 0.54509804 0.71372549 0.60000000
v -0.07500000 -0.02415693 0.00950656 0.54509804 0.71372549 0.60000000
v 0.00004703 -0.02352639 0.00972751 0.54509804 0.71372549 0.60000000
v 0.00004703 -0.02331966 0.00979922 0.54509804 0.71372549 0.60000000
v -0.07500000 -0.02490634 -0.00903559 0.54509804 0.71372549 0.60000000
v 0.00004703 -0.02415693 -0.00950656 0.54509804 0.71372549 0.60000000
v -0.07500000 -0.02490634 0.00903559 0.54509804 0.71372549 0.60000000
v 0.00004703 -0.02415693 0.00950656 0.54509804 0.71372549 0.60000000
v -0.07500000 -0.02553172 -0.00840764 0.54509804 0.71372549 0.60000000
v 0.00004703 -0.02490634 -0.00903559 0.54509804 0.71372549 0.60000000
v 0.00004703 -0.02537666 -0.00856462 0.54509804 0.71372549 0.60000000
v -0.07500000 -0.02553172 0.00840764 0.54509804 0.71372549 0.60000000
v 0.00004703 -0.02490634 0.00903559 0.54509804 0.71372549 0.60000000
v -0.07500000 -0.02600721 -0.00765758 0.54509804 0.71372549 0.60000000
v 0.00004703 -0.02553172 -0.00840764 0.54509804 0.71372549 0.60000000
v -0.07500000 -0.02600721 0.00765758 0.54509804 0.71372549 0.60000000
v 0.00004703 -0.02565059 0.00822157 0.54509804 0.71372549 0.60000000
v 0.00004703 -0.02553172 0.00840764 0.54509804 0.71372549 0.60000000
v -0.07500000 -0.02629663 -0.00682030 0.54509804 0.71372549 0.60000000
v 0.00004703 -0.02600721 -0.00765758 0.54509804 0.71372549 0.60000000
v -0.07500000 -0.02629663 0.00682030 0.54509804 0.71372549 0.60000000
v 0.00004703 -0.02600721 0.00765758 0.54509804 0.71372549 0.60000000
v -0.07500000 -0.02640000 -0.00593845 0.54509804 0.71372549 0.60000000
v 0.00004703 -0.02629663 -0.00682030 0.54509804 0.71372549 0.60000000
v 0.00004703 -0.02637416 -0.00615940 0.54509804 0.71372549 0.60000000
v -0.07500000 -0.02640000 0.00593845 0.54509804 0.71372549 0.60000000
v 0.00004703 -0.02632248 0.00660129 0.54509804 0.71372549 0.60000000
v 0.00004703 -0.02629663 0.00682030 0.54509804 0.71372549 0.60000000
v 0.00004703 -0.02640000 -0.00593845 0.54509804 0.71372549 0.60000000
v 0.00004703 -0.02640000 0.00593845 0.54509804 0.71372549 0.60000000
f 1 2 6
f 1 6 3
f 1 3 7
f 1 7 4
f 1 4 8
f 1 8 12
f 1 12 16
f 1 16 20
f 1 20 24
f 1 24 30
f 1 30 29
f 1 29 34
f 1 34 40
f 1 40 39
f 1 39 44
f 1 44 48
f 1 48 53
f 1 53 52
f 1 52 57
f 1 57 62
f 1 62 67
f 1 67 66
f 1 66 71
f 1 71 77
f 1 77 76
f 1 76 79
f 1 79 78
f 1 78 74
f 1 74 73
f 1 73 69
f 1 69 64
f 1 64 60
f 1 60 59
f 1 59 55
f 1 55 50
f 1 50 46
f 1 46 42
f 1 42 37
f 1 37 36
f 1 36 32
f 1 32 27
f 1 27 25
f 1 25 21
f 1 21 17
f 1 17 13
f 1 13 9
f 1 9 5
f 1 5 2
f 2 5 10
f 2 10 6
f 3 6 10
f 3 10 14
f 3 14 18
f 3 18 22
f 3 22 26
f 3 26 31
f 3 31 35
f 3 35 41
f 3 41 45
f 3 45 49
f 3 49 54
f 3 54 58
f 3 58 63
f 3 63 68
f 3 68 72
f 3 72 75
f 3 75 70
f 3 70 65
f 3 65 61
f 3 61 56
f 3 56 51
f 3 51 47
f 3 47 43
f 3 43 38
f 3 38 33
f 3 33 28
f 3 28 23
f 3 23 19
f 3 19 15
f 3 15 11
f 3 11 7
f 4 7 11
f 4 11 8
f 5 9 14
f 5 14 10
f 8 11 12
f 9 13 14
f 11 15 12
f 12 15 16
f 13 17 18
f 13 18 14
f 15 19 20
f 15 20 16
f 17 21 18
f 18 21 22
f 19 23 24
f 19 24 20
f 21 25 22
f 22 25 27
f 22 27 26
f 23 28 29
f 23 29 30
f 23 30 24
f 26 27 32
f 26 32 36
f 26 36 31
f 28 33 40
f 28 40 34
f 28 34 29
f 31 36 37
f 31 37 35
f 33 38 39
f 33 39 40
f 35 37 42
f 35 42 41
f 38 43 44
f 38 44 39
f 41 42 46
f 41 46 45
f 43 47 48
f 43 48 44
f 45 46 50
f 45 50 55
f 45 55 49
f 47 51 52
f 47 52 53
f 47 53 48
f 49 55 59
f 49 59 54
f 51 56 62
f 51 62 57
f 51 57 52
f 54 59 60
f 54 60 58
f 56 61 67
f 56 67 62
f 58 60 64
f 58 64 69
f 58 69 63
f 61 65 66
f 61 66 67
f 63 69 73
f 63 73 68
f 65 70 77
f 65 77 71
f 65 71 66
f 68 73 74
f 68 74 72
f 70 75 76
f 70 76 77
f 72 74 78
f 72 78 79
f 72 79 75
f 75 79 76

o geometry_1
v 0.02500000 0.02640000 0.00000000 0.54117647 0.42352941 0.64313725
v 0.02500000 0.02620812 0.00193038 0.54117647 0.42352941 0.64313725
v 0.02500000 0.02620812 -0.00193038 0.54117647 0.42352941 0.64313725
v 0.00004703 0.02625658 -0.00144779 0.54117647 0.42352941 0.64313725
v 0.00004703 0.02640000 0.00000000 0.54117647 0.42352941 0.64313725
v 0.00004703 0.02620812 0.00193038 0.54117647 0.42352941 0.64313725
v 0.00004703 0.02606858 0.00239360 0.54117647 0.42352941 0.64313725
v 0.02500000 0.02564606 0.00378712 0.54117647 0.42352941 0.64313725
v 0.02500000 0.02564606 -0.00378712 0.54117647 0.42352941 0.64313725
v 0.00004703 0.02620812 -0.00193038 0.54117647 0.42352941 0.64313725
v 0.00004703 0.02564606 0.00378712 0.54117647 0.42352941 0.64313725
v 0.00004703 0.02541736 0.00421545 0.54117647 0.42352941 0.64313725
v 0.02500000 0.02473126 0.00549849 0.54117647 0.42352941 0.64313725
v 0.02500000 0.02473126 -0.00549849 0.54117647 0.42352941 0.64313725
v 0.00004703 0.02564606 -0.00378712 0.54117647 0.42352941 0.64313725
v 0.00004703 0.02473126 0.00549849 0.54117647 0.42352941 0.64313725
v 0.02500000 0.02349861 0.00699861 0.54117647 0.42352941 0.64313725
v 0.00004703 0.02442310 0.00587449 0.54117647 0.42352941 0.64313725
v 0.02500000 0.02349861 -0.00699861 0.54117647 0.42352941 0.64313725
v 0.00004703 0.02380677 -0.00662455 0.54117647 0.42352941 0.64313725
v 0.00004703 0.02473126 -0.00549849 0.54117647 0.42352941 0.64313725
v 0.02500000 0.02199849 0.00823127 0.54117647 0.42352941 0.64313725
v 0.00004703 0.02349861 0.00699861 0.54117647 0.42352941 0.64313725
v 0.00004703 0.02312455 0.00730677 0.54117647 0.42352941 0.64313725
v 0.02500000 0.02199849 -0.00823127 0.54117647 0.42352941 0.64313725
v 0.00004703 0.02237449 -0.00792310 0.54117647 0.42352941 0.64313725
v 0.00004703 0.02349861 -0.00699861 0.54117647 0.42352941 0.64313725
v 0.02500000 0.02028712 0.00914607 0.54117647 0.42352941 0.64313725
v 0.00004703 0.02199849 0.00823127 0.54117647 0.42352941 0.64313725
v 0.02500000 0.02028712 -0.00914607 0.54117647 0.42352941 0.64313725
v 0.00004703 0.02071545 -0.00891737 0.54117647 0.42352941 0.64313725
v 0.00004703 0.02199849 -0.00823127 0.54117647 0.42352941 0.64313725
v 0.02500000 0.01843038 0.00970812 0.54117647 0.42352941 0.64313725
v 0.00004703 0.02028712 0.00914607 0.54117647 0.42352941 0.64313725
v 0.02500000 0.01843038 -0.00970812 0.54117647 0.42352941 0.64313725
v 0.00004703 0.01889360 -0.00956858 0.54117647 0.42352941 0.64313725
v 0.00004703 0.02028712 -0.00914607 0.54117647 0.42352941 0.64313725
v 0.02500000 0.01650000 0.00989806 0.54117647 0.42352941 0.64313725
v 0.00004703 0.01843038 0.00970812 0.54117647 0.42352941 0.64313725
v 0.00004703 0.01650194 0.00989806 0.54117647 0.42352941 0.64313725
v 0.02500000 0.01650000 -0.00989806 0.54117647 0.42352941 0.64313725
v 0.00004703 0.01650194 -0.00989806 0.54117647 0.42352941 0.64313725
v 0.00004703 0.01843038 -0.00970812 0.54117647 0.42352941 0.64313725
v 0.02500000 0.01456961 0.00970812 0.54117647 0.42352941 0.64313725
v 0.00004703 0.01456961 0.00970812 0.54117647 0.42352941 0.64313725
v 0.02500000 0.01456961 -0.00970812 0.54117647 0.42352941 0.64313725
v 0.00004703 0.01456574 -0.00970812 0.54117647 0.42352941 0.64313725
v 0.00004703 0.01649806 -0.00989806 0.54117647 0.42352941 0.64313725
v 0.02500000 0.01271288 0.00914607 0.54117647 0.42352941 0.64313725
v 0.00004703 0.01271288 0.00914607 0.54117647 0.42352941 0.64313725
v 0.02500000 0.01271288 -0.00914607 0.54117647 0.42352941 0.64313725
v 0.00004703 0.01270900 -0.00914413 0.54117647 0.42352941 0.64313725
v 0.02500000 0.01100151 0.00823127 0.54117647 0.42352941 0.64313725
v 0.00004703 0.01100151 0.00823127 0.54117647 0.42352941 0.64313725
v 0.02500000 0.01100151 -0.00823127 0.54117647 0.42352941 0.64313725
v 0.00004703 0.01100151 -0.00823127 0.54117647 0.42352941 0.64313725
v 0.02500000 0.00950139 0.00699861 0.54117647 0.42352941 0.64313725
v 0.00004703 0.00950139 0.00699861 0.54117647 0.42352941 0.64313725
v 0.02500000 0.00950139 -0.00699861 0.54117647 0.42352941 0.64313725
v 0.00004703 0.00949751 -0.00699667 0.54117647 0.42352941 0.64313725
v 0.02500000 0.00826873 0.00549849 0.54117647 0.42352941 0.64313725
v 0.00004703 0.00826873 0.00549849 0.54117647 0.42352941 0.64313725
v 0.02500000 0.00826873 -0.00549849 0.54117647 0.42352941 0.64313725
v 0.00004703 0.00826873 -0.00549849 0.54117647 0.42352941 0.64313725
v 0.02500000 0.00735393 0.00378712 0.54117647 0.42352941 0.64313725
v 0.00004703 0.00735393 0.00378712 0.54117647 0.42352941 0.64313725
v 0.02500000 0.00735393 -0.00378712 0.54117647 0.42352941 0.64313725
v 0.00004703 0.00735393 -0.00378712 0.54117647 0.42352941 0.64313725
v 0.02500000 0.00679187 0.00193038 0.54117647 0.42352941 0.64313725
v 0.00004703 0.00679187 0.00193038 0.54117647 0.42352941 0.64313725
v 0.02500000 0.00679187 -0.00193038 0.54117647 0.42352941 0.64313725
v 0.00004703 0.00679187 -0.00193038 0.54117647 0.42352941 0.64313725
v 0.02500000 0.00660194 0.00000000 0.54117647 0.42352941 0.64313725
v 0.00004703 0.00660194 0.00000000 0.54117647 0.42352941 0.64313725
f 80 81 87
f 80 87 92
f 80 92 96
f 80 96 101
f 80 101 107
f 80 107 112
f 80 112 117
f 80 117 123
f 80 123 128
f 80 128 132
f 80 132 136
f 80 136 140
f 80 140 144
f 80 144 148
f 80 148 152
f 80 152 150
f 80 150 146
f 80 146 142
f 80 142 138
f 80 138 134
f 80 134 130
f 80 130 125
f 80 125 120
f 80 120 114
f 80 114 109
f 80 109 104
f 80 104 98
f 80 98 93
f 80 93 88
f 80 88 82
f 80 82 83
f 80 83 84
f 80 84 85
f 80 85 81
f 81 85 86
f 81 86 87
f 82 88 94
f 82 94 89
f 82 89 83
f 83 89 94
f 83 94 100
f 83 100 99
f 83 99 106
f 83 106 105
f 83 105 111
f 83 111 110
f 83 110 116
f 83 116 115
f 83 115 122
f 83 122 121
f 83 121 127
f 83 127 126
f 83 126 131
f 83 131 135
f 83 135 139
f 83 139 143
f 83 143 147
f 83 147 151
f 83 151 153
f 83 153 149
f 83 149 145
f 83 145 141
f 83 141 137
f 83 137 133
f 83 133 129
f 83 129 124
f 83 124 119
f 83 119 118
f 83 118 113
f 83 113 108
f 83 108 103
f 83 103 102
f 83 102 97
f 83 97 95
f 83 95 91
f 83 91 90
f 83 90 86
f 83 86 85
f 83 85 84
f 86 90 87
f 87 90 91
f 87 91 92
f 88 93 100
f 88 100 94
f 91 95 92
f 92 95 97
f 92 97 96
f 93 98 99
f 93 99 100
f 96 97 102
f 96 102 103
f 96 103 101
f 98 104 105
f 98 105 106
f 98 106 99
f 101 103 108
f 101 108 113
f 101 113 107
f 104 109 110
f 104 110 111
f 104 111 105
f 107 113 118
f 107 118 112
f 109 114 115
f 109 115 116
f 109 116 110
f 112 118 119
f 112 119 117
f 114 120 121
f 114 121 122
f 114 122 115
f 117 119 124
f 117 124 123
f 120 125 126
f 120 126 127
f 120 127 121
f 123 124 129
f 123 129 128
f 125 130 126
f 126 130 131
f 128 129 133
f 128 133 132
f 130 134 131
f 131 134 135
f 132 133 137
f 132 137 136
f 134 138 139
f 134 139 135
f 136 137 141
f 136 141 140
f 138 142 139
f 139 142 143
f 140 141 145
f 140 145 144
f 142 146 147
f 142 147 143
f 144 145 149
f 144 149 148
f 146 150 151
f 146 151 147
f 148 149 153
f 148 153 152
f 150 152 153
f 150 153 151

o geometry_2
v 0.02500000 -0.00660194 0.00593845 0.43529412 0.89019608 0.96078431
v 0.02500000 -0.00660194 -0.00593845 0.43529412 0.89019608 0.96078431
v 0.00004703 -0.00660194 0.00593845 0.43529412 0.89019608 0.96078431
v 0.02500000 -0.00670078 0.00682030 0.43529412 0.89019608 0.96078431
v 0.02500000 -0.00670078 -0.00682030 0.43529412 0.89019608 0.96078431
v 0.00004703 -0.00660194 -0.00594039 0.43529412 0.89019608 0.96078431
v 0.00004703 -0.00670078 0.00681836 0.43529412 0.89019608 0.96078431
v 0.02500000 -0.00699344 0.00765758 0.43529412 0.89019608 0.96078431
v 0.02500000 -0.00699344 -0.00765758 0.43529412 0.89019608 0.96078431
v 0.00004703 -0.00670078 -0.00682224 0.43529412 0.89019608 0.96078431
v 0.00004703 -0.00699344 0.00765564 0.43529412 0.89019608 0.96078431
v 0.00004703 -0.00746441 0.00840764 0.43529412 0.89019608 0.96078431
v 0.02500000 -0.00746441 0.00840764 0.43529412 0.89019608 0.96078431
v 0.02500000 -0.00746441 -0.00840764 0.43529412 0.89019608 0.96078431
v 0.00004703 -0.00699344 -0.00765758 0.43529412 0.89019608 0.96078431
v 0.00004703 -0.00809043 0.00903365 0.43529412 0.89019608 0.96078431
v 0.02500000 -0.00809236 0.00903559 0.43529412 0.89019608 0.96078431
v 0.02500000 -0.00809236 -0.00903559 0.43529412 0.89019608 0.96078431
v 0.00004703 -0.00746635 -0.00840957 0.43529412 0.89019608 0.96078431
v 0.00004703 -0.00884048 0.00950656 0.43529412 0.89019608 0.96078431
v 0.02500000 -0.00884242 0.00950656 0.43529412 0.89019608 0.96078431
v 0.02500000 -0.00884242 -0.00950656 0.43529412 0.89019608 0.96078431
v 0.00004703 -0.00809430 -0.00903559 0.43529412 0.89019608 0.96078431
v 0.00004703 -0.00967970 0.00979922 0.43529412 0.89019608 0.96078431
v 0.02500000 -0.00967970 0.00979922 0.43529412 0.89019608 0.96078431
v 0.02500000 -0.00967970 -0.00979922 0.43529412 0.89019608 0.96078431
v 0.00004703 -0.00884436 -0.00950656 0.43529412 0.89019608 0.96078431
v 0.00004703 -0.01056155 0.00989806 0.43529412 0.89019608 0.96078431
v 0.02500000 -0.01056155 0.00989806 0.43529412 0.89019608 0.96078431
v 0.02500000 -0.01056155 -0.00989806 0.43529412 0.89019608 0.96078431
v 0.00004703 -0.01056155 -0.00989806 0.43529412 0.89019608 0.96078431
v 0.00004703 -0.00968164 -0.00979922 0.43529412 0.89019608 0.96078431
v 0.00004703 -0.02243845 0.00989806 0.43529412 0.89019608 0.96078431
v 0.02500000 -0.02243845 0.00989806 0.43529412 0.89019608 0.96078431
v 0.02500000 -0.02243845 -0.00989806 0.43529412 0.89019608 0.96078431
v 0.00004703 -0.02243845 -0.00989806 0.43529412 0.89019608 0.96078431
v 0.00004703 -0.02265940 0.00987480 0.43529412 0.89019608 0.96078431
v 0.02500000 -0.02332030 0.00979922 0.43529412 0.89019608 0.96078431
v 0.02500000 -0.02332030 -0.00979922 0.43529412 0.89019608 0.96078431
v 0.00004703 -0.02310129 -0.00982441 0.43529412 0.89019608 0.96078431
v 0.00004703 -0.02332030 0.00979922 0.43529412 0.89019608 0.96078431
v 0.02500000 -0.02415757 0.00950656 0.43529412 0.89019608 0.96078431
v 0.00004703 -0.02352962 0.00972751 0.43529412 0.89019608 0.96078431
v 0.02500000 -0.02415757 -0.00950656 0.43529412 0.89019608 0.96078431
v 0.00004703 -0.02394826 -0.00958021 0.43529412 0.89019608 0.96078431
v 0.00004703 -0.02332030 -0.00979922 0.43529412 0.89019608 0.96078431
v 0.02500000 -0.02490763 0.00903559 0.43529412 0.89019608 0.96078431
v 0.00004703 -0.02415757 0.00950656 0.43529412 0.89019608 0.96078431
v 0.02500000 -0.02490763 -0.00903559 0.43529412 0.89019608 0.96078431
v 0.00004703 -0.02415757 -0.00950656 0.43529412 0.89019608 0.96078431
v 0.02500000 -0.02553559 0.00840764 0.43529412 0.89019608 0.96078431
v 0.00004703 -0.02490763 0.00903559 0.43529412 0.89019608 0.96078431
v 0.02500000 -0.02553559 -0.00840764 0.43529412 0.89019608 0.96078431
v 0.00004703 -0.02490763 -0.00903559 0.43529412 0.89019608 0.96078431
v 0.02500000 -0.02600656 0.00765758 0.43529412 0.89019608 0.96078431
v 0.00004703 -0.02553559 0.00840764 0.43529412 0.89019608 0.96078431
v 0.02500000 -0.02600656 -0.00765758 0.43529412 0.89019608 0.96078431
v 0.00004703 -0.02553559 -0.00840764 0.43529412 0.89019608 0.96078431
v 0.02500000 -0.02629922 0.00682030 0.43529412 0.89019608 0.96078431
v 0.00004703 -0.02600656 0.00765758 0.43529412 0.89019608 0.96078431
v 0.00004703 -0.02608021 0.00744826 0.43529412 0.89019608 0.96078431
v 0.02500000 -0.02629922 -0.00682030 0.43529412 0.89019608 0.96078431
v 0.00004703 -0.02622750 -0.00702962 0.43529412 0.89019608 0.96078431
v 0.00004703 -0.02600656 -0.00765758 0.43529412 0.89019608 0.96078431
v 0.02500000 -0.02640000 0.00593845 0.43529412 0.89019608 0.96078431
v 0.00004703 -0.02629922 0.00682030 0.43529412 0.89019608 0.96078431
v 0.00004703 -0.02632441 0.00660129 0.43529412 0.89019608 0.96078431
v 0.02500000 -0.02640000 -0.00593845 0.43529412 0.89019608 0.96078431
v 0.00004703 -0.02637480 -0.00615940 0.43529412 0.89019608 0.96078431
v 0.00004703 -0.02629922 -0.00682030 0.43529412 0.89019608 0.96078431
v 0.00004703 -0.02640000 0.00593845 0.43529412 0.89019608 0.96078431
v 0.00004703 -0.02640000 -0.00593845 0.43529412 0.89019608 0.96078431
f 154 155 159
f 154 159 156
f 154 156 157
f 154 157 161
f 154 161 166
f 154 166 170
f 154 170 174
f 154 174 178
f 154 178 182
f 154 182 187
f 154 187 191
f 154 191 195
f 154 195 200
f 154 200 204
f 154 204 208
f 154 208 212
f 154 212 218
f 154 218 221
f 154 221 215
f 154 215 210
f 154 210 206
f 154 206 202
f 154 202 197
f 154 197 192
f 154 192 188
f 154 188 183
f 154 183 179
f 154 179 175
f 154 175 171
f 154 171 167
f 154 167 162
f 154 162 158
f 154 158 155
f 155 158 163
f 155 163 159
f 156 159 163
f 156 163 168
f 156 168 172
f 156 172 176
f 156 176 180
f 156 180 185
f 156 185 184
f 156 184 189
f 156 189 193
f 156 193 199
f 156 199 198
f 156 198 203
f 156 203 207
f 156 207 211
f 156 211 217
f 156 217 216
f 156 216 223
f 156 223 222
f 156 222 225
f 156 225 224
f 156 224 220
f 156 220 219
f 156 219 214
f 156 214 213
f 156 213 209
f 156 209 205
f 156 205 201
f 156 201 196
f 156 196 194
f 156 194 190
f 156 190 186
f 156 186 181
f 156 181 177
f 156 177 173
f 156 173 169
f 156 169 165
f 156 165 164
f 156 164 160
f 156 160 157
f 157 160 164
f 157 164 161
f 158 162 163
f 161 164 165
f 161 165 166
f 162 167 168
f 162 168 163
f 165 169 170
f 165 170 166
f 167 171 172
f 167 172 168
f 169 173 170
f 170 173 174
f 171 175 180
f 171 180 176
f 171 176 172
f 173 177 178
f 173 178 174
f 175 179 185
f 175 185 180
f 177 181 182
f 177 182 178
f 179 183 184
f 179 184 185
f 181 186 187
f 181 187 182
f 183 188 189
f 183 189 184
f 186 190 187
f 187 190 191
f 188 192 193
f 188 193 189
f 190 194 191
f 191 194 196
f 191 196 195
f 192 197 198
f 192 198 199
f 192 199 193
f 195 196 201
f 195 201 205
f 195 205 200
f 197 202 207
f 197 207 203
f 197 203 198
f 200 205 209
f 200 209 204
f 202 206 211
f 202 211 207
f 204 209 213
f 204 213 208
f 206 210 217
f 206 217 211
f 208 213 214
f 208 214 212
f 210 215 216
f 210 216 217
f 212 214 219
f 212 219 220
f 212 220 218
f 215 221 222
f 215 222 223
f 215 223 216
f 218 220 224
f 218 224 225
f 218 225 221
f 221 225 222