# https://github.com/mikedh/trimesh
v 0.01195246 -0.01001555 -0.00014771 0.26274510 0.77254902 0.45490196
v 0.00142889 -0.01001555 -0.00014771 0.26274510 0.77254902 0.45490196
v 0.01195246 -0.01455180 -0.00014771 0.26274510 0.77254902 0.45490196
v 0.01195246 -0.01001555 -0.01456128 0.26274510 0.77254902 0.45490196
v 0.00142889 -0.01456757 -0.00014771 0.26274510 0.77254902 0.45490196
v 0.00142889 -0.01001555 -0.01457351 0.26274510 0.77254902 0.45490196
v 0.01195246 -0.01576627 -0.01385329 0.26274510 0.77254902 0.45490196
v 0.01195246 -0.01385387 -0.01576623 0.26274510 0.77254902 0.45490196
v 0.00142889 -0.01309511 -0.01559497 0.26274510 0.77254902 0.45490196
v 0.00142889 -0.01150942 -0.01509647 0.26274510 0.77254902 0.45490196
v 0.00142889 -0.01576965 -0.01385329 0.26274510 0.77254902 0.45490196
v 0.01195246 -0.01519227 -0.01519128 0.26274510 0.77254902 0.45490196
v 0.00142889 -0.01385387 -0.01576929 0.26274510 0.77254902 0.45490196
v 0.00142889 -0.01519227 -0.01519128 0.26274510 0.77254902 0.45490196
v 0.00142889 -0.01449603 -0.01549252 0.26274510 0.77254902 0.45490196
f 1 2 5
f 1 5 3
f 1 3 7
f 1 7 12
f 1 12 8
f 1 8 4
f 1 4 6
f 1 6 2
f 2 6 10
f 2 10 9
f 2 9 13
f 2 13 15
f 2 15 14
f 2 14 11
f 2 11 5
f 3 5 7
f 4 8 9
f 4 9 10
f 4 10 6
f 5 11 7
f 7 11 12
f 8 12 13
f 8 13 9
f 11 14 12
f 12 14 15
f 12 15 13