# https://github.com/mikedh/trimesh
v 0.02279208 0.01455577 -0.00014771 0.67058824 0.20784314 0.12549020
v 0.01239598 0.01455208 -0.00014771 0.67058824 0.20784314 0.12549020
v 0.02279208 0.00947979 -0.00014771 0.67058824 0.20784314 0.12549020
v 0.02279208 0.01576630 -0.01385380 0.67058824 0.20784314 0.12549020
v 0.01195246 0.01576630 -0.01385380 0.67058824 0.20784314 0.12549020
v 0.01195246 0.01455146 -0.00014771 0.67058824 0.20784314 0.12549020
v 0.01195246 0.00947979 -0.00014771 0.67058824 0.20784314 0.12549020
v 0.02279208 0.00947979 -0.01455554 0.67058824 0.20784314 0.12549020
v 0.02279208 0.01569245 -0.01402656 0.67058824 0.20784314 0.12549020
v 0.01195246 0.01519273 -0.01519154 0.67058824 0.20784314 0.12549020
v 0.01195246 0.00947979 -0.01455096 0.67058824 0.20784314 0.12549020
v 0.01195246 0.01385358 -0.01576486 0.67058824 0.20784314 0.12549020
v 0.02279208 0.01366587 -0.01571594 0.67058824 0.20784314 0.12549020
v 0.02279208 0.01519273 -0.01519154 0.67058824 0.20784314 0.12549020
v 0.02279208 0.01502041 -0.01526646 0.67058824 0.20784314 0.12549020
v 0.01968747 0.01385358 -0.01576639 0.67058824 0.20784314 0.12549020
v 0.01195246 0.01426098 -0.01559057 0.67058824 0.20784314 0.12549020
v 0.02114534 0.01385358 -0.01576639 0.67058824 0.20784314 0.12549020
v 0.02279208 0.01385358 -0.01576486 0.67058824 0.20784314 0.12549020
f 1 2 6
f 1 6 7
f 1 7 3
f 1 3 8
f 1 8 13
f 1 13 19
f 1 19 15
f 1 15 14
f 1 14 9
f 1 9 4
f 1 4 5
f 1 5 2
f 2 5 6
f 3 7 11
f 3 11 8
f 4 9 5
f 5 9 10
f 5 10 17
f 5 17 12
f 5 12 11
f 5 11 7
f 5 7 6
f 8 11 12
f 8 12 13
f 9 14 10
f 10 14 15
f 10 15 16
f 10 16 17
f 12 17 16
f 12 16 13
f 13 16 18
f 13 18 19
f 15 19 18
f 15 18 16