# https://github.com/mikedh/trimesh
v 0.02279208 0.00947979 -0.00014771 0.61176471 0.61568627 0.94117647
v 0.02279208 0.00947979 -0.01455554 0.61176471 0.61568627 0.94117647
v 0.01195246 0.00947979 -0.00014771 0.61176471 0.61568627 0.94117647
v 0.02279208 -0.01455552 -0.00014771 0.61176471 0.61568627 0.94117647
v 0.01195246 0.00947979 -0.01455096 0.61176471 0.61568627 0.94117647
v 0.02279208 -0.01385369 -0.01576486 0.61176471 0.61568627 0.94117647
v 0.01195246 -0.01385369 -0.01576486 0.61176471 0.61568627 0.94117647
v 0.01195246 -0.01455058 -0.00014771 0.61176471 0.61568627 0.94117647
v 0.01195246 -0.01576643 -0.01385380 0.61176471 0.61568627 0.94117647
v 0.02279208 -0.01576396 -0.01385380 0.61176471 0.61568627 0.94117647
v 0.02279208 -0.01519063 -0.01519154 0.61176471 0.61568627 0.94117647
v 0.01195246 -0.01478535 -0.01536583 0.61176471 0.61568627 0.94117647
v 0.01195246 -0.01519063 -0.01519154 0.61176471 0.61568627 0.94117647
v 0.02279208 -0.01526477 -0.01501878 0.61176471 0.61568627 0.94117647
f 1 2 5
f 1 5 3
f 1 3 8
f 1 8 4
f 1 4 10
f 1 10 14
f 1 14 11
f 1 11 6
f 1 6 2
f 2 6 7
f 2 7 5
f 3 5 7
f 3 7 12
f 3 12 13
f 3 13 9
f 3 9 8
f 4 8 9
f 4 9 10
f 6 11 12
f 6 12 7
f 9 13 11
f 9 11 14
f 9 14 10
f 11 13 12