# https://github.com/mikedh/trimesh
v 0.02114499 0.01385348 0.01576639 0.67843137 0.35686275 0.43529412
v 0.02291046 0.01385348 0.01576483 0.67843137 0.35686275 0.43529412
v 0.02291046 0.01413449 0.01564488 0.67843137 0.35686275 0.43529412
v 0.02291046 0.01519212 0.01519157 0.67843137 0.35686275 0.43529412
v 0.01968661 0.01385348 0.01576639 0.67843137 0.35686275 0.43529412
v 0.02291046 -0.01033145 0.01457003 0.67843137 0.35686275 0.43529412
v 0.02291046 0.01576691 0.01385346 0.67843137 0.35686275 0.43529412
v 0.01213086 0.01566217 0.01409803 0.67843137 0.35686275 0.43529412
v 0.01213086 0.01519212 0.01519157 0.67843137 0.35686275 0.43529412
v 0.01213086 0.01385348 0.01576483 0.67843137 0.35686275 0.43529412
v 0.01213086 -0.01033145 0.01456691 0.67843137 0.35686275 0.43529412
v 0.02291046 -0.01033145 -0.00014615 0.67843137 0.35686275 0.43529412
v 0.01213086 0.01576436 0.01385346 0.67843137 0.35686275 0.43529412
v 0.02291046 0.01455856 -0.00014615 0.67843137 0.35686275 0.43529412
v 0.01213086 -0.01033145 -0.00014615 0.67843137 0.35686275 0.43529412
v 0.01213086 0.01455090 -0.00014615 0.67843137 0.35686275 0.43529412
f 1 2 3
f 1 3 4
f 1 4 9
f 1 9 5
f 1 5 6
f 1 6 2
f 2 6 12
f 2 12 14
f 2 14 7
f 2 7 4
f 2 4 3
f 4 7 8
f 4 8 9
f 5 9 10
f 5 10 6
f 6 11 15
f 6 15 12
f 6 10 11
f 7 13 8
f 7 14 13
f 8 13 16
f 8 16 15
f 8 15 11
f 8 11 10
f 8 10 9
f 12 15 16
f 12 16 14
f 13 14 16