# https://github.com/mikedh/trimesh
v 0.02291046 -0.01576463 0.01385363 0.79607843 0.45882353 0.78039216
v 0.02291046 -0.01519231 0.01519163 0.79607843 0.45882353 0.78039216
v 0.02291046 -0.01455503 -0.00014615 0.79607843 0.45882353 0.78039216
v 0.02552245 -0.01554498 -0.00014615 0.79607843 0.45882353 0.78039216
v 0.02610290 -0.01564707 -0.00014615 0.79607843 0.45882353 0.78039216
v 0.02697992 -0.01579866 -0.00014615 0.79607843 0.45882353 0.78039216
v 0.02697992 -0.01580175 0.01385363 0.79607843 0.45882353 0.78039216
v 0.04156090 -0.01519231 0.01519163 0.79607843 0.45882353 0.78039216
v 0.02697992 -0.01385277 0.01580052 0.79607843 0.45882353 0.78039216
v 0.02291046 -0.01385277 0.01576617 0.79607843 0.45882353 0.78039216
v 0.02291046 0.01455586 -0.00014615 0.79607843 0.45882353 0.78039216
v 0.04156090 -0.01579866 -0.00014615 0.79607843 0.45882353 0.78039216
v 0.04156090 -0.01579866 0.01385363 0.79607843 0.45882353 0.78039216
v 0.04302048 -0.01516756 0.01516821 0.79607843 0.45882353 0.78039216
v 0.04156090 -0.01385277 0.01580052 0.79607843 0.45882353 0.78039216
v 0.02697992 -0.01239568 0.01580208 0.79607843 0.45882353 0.78039216
v 0.02291046 0.01385361 0.01576617 0.79607843 0.45882353 0.78039216
v 0.02291046 0.01576546 0.01385363 0.79607843 0.45882353 0.78039216
v 0.02552245 0.01554581 -0.00014615 0.79607843 0.45882353 0.78039216
v 0.04302048 -0.01575225 -0.00014615 0.79607843 0.45882353 0.78039216
v 0.04302048 -0.01575225 0.01385363 0.79607843 0.45882353 0.78039216
v 0.04401613 -0.01495719 0.01495744 0.79607843 0.45882353 0.78039216
v 0.04302048 -0.01385277 0.01575368 0.79607843 0.45882353 0.78039216
v 0.04156090 -0.01239568 0.01580208 0.79607843 0.45882353 0.78039216
v 0.02697992 0.01385361 0.01580208 0.79607843 0.45882353 0.78039216
v 0.02291046 0.01519005 0.01519163 0.79607843 0.45882353 0.78039216
v 0.02639947 0.01570049 -0.00014615 0.79607843 0.45882353 0.78039216
v 0.02697992 0.01579949 0.01385363 0.79607843 0.45882353 0.78039216
v 0.02697992 0.01580258 0.01239542 0.79607843 0.45882353 0.78039216
v 0.02697992 0.01580258 -0.00014615 0.79607843 0.45882353 0.78039216
v 0.04414959 -0.01514281 -0.00014615 0.79607843 0.45882353 0.78039216
v 0.04414959 -0.01514281 0.01385363 0.79607843 0.45882353 0.78039216
v 0.04454997 -0.01385277 0.01385363 0.79607843 0.45882353 0.78039216
v 0.04414959 -0.01385277 0.01514323 0.79607843 0.45882353 0.78039216
v 0.04302048 0.01385361 0.01575368 0.79607843 0.45882353 0.78039216
v 0.04156090 0.01385361 0.01580208 0.79607843 0.45882353 0.78039216
v 0.04156090 0.01519005 0.01519163 0.79607843 0.45882353 0.78039216
v 0.04156090 0.01579949 0.01385363 0.79607843 0.45882353 0.78039216
v 0.04156090 0.01580258 0.01239542 0.79607843 0.45882353 0.78039216
v 0.04156090 0.01580258 -0.00014615 0.79607843 0.45882353 0.78039216
v 0.04439109 -0.01436631 -0.00014615 0.79607843 0.45882353 0.78039216
v 0.04454997 -0.01385277 -0.00014615 0.79607843 0.45882353 0.78039216
v 0.04454997 0.01385361 0.01385363 0.79607843 0.45882353 0.78039216
v 0.04414959 0.01385361 0.01514323 0.79607843 0.45882353 0.78039216
v 0.04401613 0.01495493 0.01495744 0.79607843 0.45882353 0.78039216
v 0.04302048 0.01516839 0.01516821 0.79607843 0.45882353 0.78039216
v 0.04302048 0.01575309 0.01385363 0.79607843 0.45882353 0.78039216
v 0.04302048 0.01575309 -0.00014615 0.79607843 0.45882353 0.78039216
v 0.04454997 0.01385361 -0.00014615 0.79607843 0.45882353 0.78039216
v 0.04431058 0.01463010 -0.00014615 0.79607843 0.45882353 0.78039216
v 0.04414959 0.01514364 0.01385363 0.79607843 0.45882353 0.78039216
v 0.04369837 0.01538804 -0.00014615 0.79607843 0.45882353 0.78039216
v 0.04414959 0.01514364 -0.00014615 0.79607843 0.45882353 0.78039216
f 1 2 10
f 1 10 17
f 1 17 26
f 1 26 18
f 1 18 11
f 1 11 3
f 1 3 4
f 1 4 5
f 1 5 6
f 1 6 7
f 1 7 2
f 2 7 8
f 2 8 15
f 2 15 9
f 2 9 10
f 3 11 19
f 3 19 27
f 3 27 30
f 3 30 40
f 3 40 48
f 3 48 52
f 3 52 53
f 3 53 50
f 3 50 49
f 3 49 42
f 3 42 41
f 3 41 31
f 3 31 20
f 3 20 12
f 3 12 6
f 3 6 5
f 3 5 4
f 6 12 7
f 7 12 13
f 7 13 8
f 8 14 15
f 8 13 14
f 9 15 24
f 9 24 16
f 9 16 10
f 10 16 25
f 10 25 17
f 11 18 19
f 12 20 21
f 12 21 13
f 13 21 14
f 14 21 22
f 14 22 23
f 14 23 15
f 15 23 24
f 16 24 36
f 16 36 25
f 17 25 26
f 18 27 19
f 18 26 28
f 18 28 29
f 18 29 30
f 18 30 27
f 20 31 32
f 20 32 21
f 21 32 22
f 22 32 33
f 22 33 34
f 22 34 23
f 23 34 44
f 23 44 35
f 23 35 36
f 23 36 24
f 25 36 37
f 25 37 26
f 26 37 38
f 26 38 28
f 28 38 39
f 28 39 29
f 29 39 40
f 29 40 30
f 31 41 32
f 32 41 33
f 33 41 42
f 33 42 49
f 33 49 43
f 33 43 44
f 33 44 34
f 35 44 45
f 35 45 46
f 35 46 36
f 36 46 37
f 37 46 38
f 38 46 47
f 38 47 39
f 39 47 48
f 39 48 40
f 43 49 50
f 43 50 51
f 43 51 45
f 43 45 44
f 45 51 47
f 45 47 46
f 47 51 52
f 47 52 48
f 50 53 51
f 51 53 52