# https://github.com/mikedh/trimesh
v 0.02279208 -0.01576463 -0.01385295 0.08627451 0.01960784 0.83137255
v 0.02610422 -0.01564707 -0.00014771 0.08627451 0.01960784 0.83137255
v 0.02552273 -0.01554498 -0.00014771 0.08627451 0.01960784 0.83137255
v 0.02279208 -0.01455503 -0.00014771 0.08627451 0.01960784 0.83137255
v 0.02279208 -0.01519231 -0.01519221 0.08627451 0.01960784 0.83137255
v 0.02697965 -0.01580175 -0.01385295 0.08627451 0.01960784 0.83137255
v 0.02697965 -0.01579866 -0.00014771 0.08627451 0.01960784 0.83137255
v 0.02279208 0.01455586 -0.00014771 0.08627451 0.01960784 0.83137255
v 0.04156157 -0.01519231 -0.01519221 0.08627451 0.01960784 0.83137255
v 0.02279208 -0.01402602 -0.01569175 0.08627451 0.01960784 0.83137255
v 0.02697965 -0.01385277 -0.01580055 0.08627451 0.01960784 0.83137255
v 0.04156157 -0.01579866 -0.01385295 0.08627451 0.01960784 0.83137255
v 0.04156157 -0.01579866 -0.00014771 0.08627451 0.01960784 0.83137255
v 0.02552273 0.01554581 -0.00014771 0.08627451 0.01960784 0.83137255
v 0.02279208 0.01576546 -0.01385295 0.08627451 0.01960784 0.83137255
v 0.04156157 -0.01385277 -0.01580055 0.08627451 0.01960784 0.83137255
v 0.04302062 -0.01516756 -0.01516770 0.08627451 0.01960784 0.83137255
v 0.02279208 -0.01385277 -0.01576531 0.08627451 0.01960784 0.83137255
v 0.02697965 -0.01239568 -0.01580208 0.08627451 0.01960784 0.83137255
v 0.04302062 -0.01575225 -0.01385295 0.08627451 0.01960784 0.83137255
v 0.04302062 -0.01575225 -0.00014771 0.08627451 0.01960784 0.83137255
v 0.02639816 0.01570049 -0.00014771 0.08627451 0.01960784 0.83137255
v 0.02279208 0.01569121 -0.01402610 0.08627451 0.01960784 0.83137255
v 0.02697965 0.01580258 -0.00014771 0.08627451 0.01960784 0.83137255
v 0.02697965 0.01580258 -0.01239569 0.08627451 0.01960784 0.83137255
v 0.02697965 0.01579949 -0.01385295 0.08627451 0.01960784 0.83137255
v 0.04302062 -0.01385277 -0.01575305 0.08627451 0.01960784 0.83137255
v 0.04156157 -0.01239568 -0.01580208 0.08627451 0.01960784 0.83137255
v 0.04401533 -0.01495719 -0.01495623 0.08627451 0.01960784 0.83137255
v 0.02279208 0.01385361 -0.01576531 0.08627451 0.01960784 0.83137255
v 0.02697965 0.01385361 -0.01580208 0.08627451 0.01960784 0.83137255
v 0.04414952 -0.01514281 -0.01385295 0.08627451 0.01960784 0.83137255
v 0.04414952 -0.01514281 -0.00014771 0.08627451 0.01960784 0.83137255
v 0.02279208 0.01519005 -0.01519221 0.08627451 0.01960784 0.83137255
v 0.04156157 0.01580258 -0.00014771 0.08627451 0.01960784 0.83137255
v 0.04156157 0.01580258 -0.01239569 0.08627451 0.01960784 0.83137255
v 0.04156157 0.01579949 -0.01385295 0.08627451 0.01960784 0.83137255
v 0.04414952 -0.01385277 -0.01514471 0.08627451 0.01960784 0.83137255
v 0.04302062 0.01385361 -0.01575305 0.08627451 0.01960784 0.83137255
v 0.04156157 0.01385361 -0.01580208 0.08627451 0.01960784 0.83137255
v 0.04454995 -0.01385277 -0.01385295 0.08627451 0.01960784 0.83137255
v 0.02279208 0.01501990 -0.01526576 0.08627451 0.01960784 0.83137255
v 0.04454995 -0.01385277 -0.00014771 0.08627451 0.01960784 0.83137255
v 0.04156157 0.01519005 -0.01519221 0.08627451 0.01960784 0.83137255
v 0.04302062 0.01575309 -0.00014771 0.08627451 0.01960784 0.83137255
v 0.04302062 0.01575309 -0.01385295 0.08627451 0.01960784 0.83137255
v 0.04302062 0.01516839 -0.01516770 0.08627451 0.01960784 0.83137255
v 0.04414952 0.01385361 -0.01514471 0.08627451 0.01960784 0.83137255
v 0.04401533 0.01495493 -0.01495623 0.08627451 0.01960784 0.83137255
v 0.04454995 0.01385361 -0.01385295 0.08627451 0.01960784 0.83137255
v 0.04454995 0.01385361 -0.00014771 0.08627451 0.01960784 0.83137255
v 0.04370009 0.01538804 -0.00014771 0.08627451 0.01960784 0.83137255
v 0.04414952 0.01514364 -0.01385295 0.08627451 0.01960784 0.83137255
v 0.04430926 0.01463010 -0.00014771 0.08627451 0.01960784 0.83137255
v 0.04414952 0.01514364 -0.00014771 0.08627451 0.01960784 0.83137255
f 1 2 3
f 1 3 4
f 1 4 8
f 1 8 15
f 1 15 23
f 1 23 34
f 1 34 42
f 1 42 30
f 1 30 18
f 1 18 10
f 1 10 5
f 1 5 6
f 1 6 7
f 1 7 2
f 2 7 13
f 2 13 21
f 2 21 33
f 2 33 43
f 2 43 51
f 2 51 54
f 2 54 55
f 2 55 52
f 2 52 45
f 2 45 35
f 2 35 24
f 2 24 22
f 2 22 14
f 2 14 8
f 2 8 4
f 2 4 3
f 5 9 6
f 5 10 11
f 5 11 16
f 5 16 9
f 6 12 13
f 6 13 7
f 6 9 12
f 8 14 15
f 9 16 17
f 9 17 12
f 10 18 11
f 11 18 19
f 11 19 28
f 11 28 16
f 12 17 20
f 12 20 21
f 12 21 13
f 14 22 15
f 15 22 24
f 15 24 25
f 15 25 26
f 15 26 23
f 16 27 17
f 16 28 27
f 17 29 20
f 17 27 29
f 18 30 31
f 18 31 19
f 19 31 40
f 19 40 28
f 20 29 32
f 20 32 33
f 20 33 21
f 23 26 34
f 24 35 36
f 24 36 25
f 25 36 37
f 25 37 26
f 26 37 44
f 26 44 34
f 27 38 29
f 27 28 40
f 27 40 39
f 27 39 48
f 27 48 38
f 29 38 41
f 29 41 32
f 30 42 31
f 31 42 34
f 31 34 44
f 31 44 40
f 32 41 43
f 32 43 33
f 35 45 46
f 35 46 36
f 36 46 37
f 37 46 47
f 37 47 44
f 38 48 50
f 38 50 41
f 39 40 47
f 39 47 49
f 39 49 48
f 40 44 47
f 41 50 51
f 41 51 43
f 45 52 46
f 46 52 53
f 46 53 49
f 46 49 47
f 48 49 50
f 49 53 50
f 50 53 54
f 50 54 51
f 52 55 53
f 53 55 54