# https://github.com/mikedh/trimesh
v 0.01212981 -0.01385372 0.01576613 0.31372549 0.36078431 0.56862745
v 0.00143961 -0.01385372 0.01576925 0.31372549 0.36078431 0.56862745
v 0.01212981 -0.01519260 0.01519122 0.31372549 0.36078431 0.56862745
v 0.01212981 -0.00973607 0.01455553 0.31372549 0.36078431 0.56862745
v 0.00143961 -0.00973607 0.01456800 0.31372549 0.36078431 0.56862745
v 0.00143961 -0.01519260 0.01519122 0.31372549 0.36078431 0.56862745
v 0.00143961 -0.01548967 0.01450568 0.31372549 0.36078431 0.56862745
v 0.01212981 -0.01529713 0.01494816 0.31372549 0.36078431 0.56862745
v 0.01212981 -0.00973607 -0.00014615 0.31372549 0.36078431 0.56862745
v 0.00143961 -0.00973607 -0.00014615 0.31372549 0.36078431 0.56862745
v 0.00143961 -0.01576902 0.01385286 0.31372549 0.36078431 0.56862745
v 0.01212981 -0.01576607 0.01385286 0.31372549 0.36078431 0.56862745
v 0.01212981 -0.01455180 -0.00014615 0.31372549 0.36078431 0.56862745
v 0.00143961 -0.01456716 -0.00014615 0.31372549 0.36078431 0.56862745
f 1 2 3
f 1 3 8
f 1 8 12
f 1 12 13
f 1 13 9
f 1 9 4
f 1 4 5
f 1 5 2
f 2 6 3
f 2 5 10
f 2 10 14
f 2 14 11
f 2 11 7
f 2 7 6
f 3 6 7
f 3 7 8
f 4 9 10
f 4 10 5
f 7 11 12
f 7 12 8
f 9 13 14
f 9 14 10
f 11 14 12
f 12 14 13