# https://github.com/mikedh/trimesh
v -0.02843724 -0.01281862 0.00072719 0.54117647 0.42352941 0.64313725
v -0.02697938 -0.01251173 0.00072719 0.54117647 0.42352941 0.64313725
v -0.02843724 -0.01266636 0.00218556 0.54117647 0.42352941 0.64313725
v -0.02958765 -0.01229524 0.00218556 0.54117647 0.42352941 0.64313725
v -0.02958765 -0.01235947 0.00072719 0.54117647 0.42352941 0.64313725
v -0.02843724 -0.01279959 -0.00072869 0.54117647 0.42352941 0.64313725
v -0.02697938 -0.01260213 -0.00072869 0.54117647 0.42352941 0.64313725
v -0.02626428 -0.01206210 0.00072719 0.54117647 0.42352941 0.64313725
v -0.02626428 -0.01190032 0.00170192 0.54117647 0.42352941 0.64313725
v -0.02626428 -0.01185274 0.00196234 0.54117647 0.42352941 0.64313725
v -0.02684631 -0.01214298 0.00229717 0.54117647 0.42352941 0.64313725
v -0.02720744 -0.01197883 0.00364392 0.54117647 0.42352941 0.64313725
v -0.02626428 -0.01217867 -0.00072869 0.54117647 0.42352941 0.64313725
v -0.02843724 -0.01232379 0.00364392 0.54117647 0.42352941 0.64313725
v -0.02952063 -0.01183133 0.00478234 0.54117647 0.42352941 0.64313725
v -0.02958765 -0.01185037 0.00459632 0.54117647 0.42352941 0.64313725
v -0.02958765 -0.01204306 0.00357696 0.54117647 0.42352941 0.64313725
v -0.02958765 -0.01226193 -0.00062700 0.54117647 0.42352941 0.64313725
v -0.02958765 -0.01208827 -0.00212009 0.54117647 0.42352941 0.64313725
v -0.02843724 -0.01260451 -0.00218705 0.54117647 0.42352941 0.64313725
v -0.02697938 -0.01251173 -0.00218705 0.54117647 0.42352941 0.64313725
v -0.02626428 -0.01214060 -0.00218705 0.54117647 0.42352941 0.64313725
v -0.02626428 -0.01164101 0.00286265 0.54117647 0.42352941 0.64313725
v -0.02627176 -0.01164815 0.00285521 0.54117647 0.42352941 0.64313725
v -0.02750513 -0.01179089 0.00464345 0.54117647 0.42352941 0.64313725
v -0.02843724 -0.01188367 0.00488403 0.54117647 0.42352941 0.64313725
v -0.02843724 -0.01155299 0.00561321 0.54117647 0.42352941 0.64313725
v -0.02958765 -0.01037776 0.00752545 0.54117647 0.42352941 0.64313725
v -0.02958765 -0.01177186 0.00484682 0.54117647 0.42352941 0.64313725
v -0.02958765 -0.01207875 -0.00218705 0.54117647 0.42352941 0.64313725
v -0.02936641 -0.01183371 -0.00364542 0.54117647 0.42352941 0.64313725
v -0.02843724 -0.01221673 -0.00364542 0.54117647 0.42352941 0.64313725
v -0.02697938 -0.01222863 -0.00364542 0.54117647 0.42352941 0.64313725
v -0.02626428 -0.01194077 -0.00364542 0.54117647 0.42352941 0.64313725
v -0.02626428 -0.01130320 0.00363648 0.54117647 0.42352941 0.64313725
v -0.02647835 -0.01147448 0.00364392 0.54117647 0.42352941 0.64313725
v -0.02626428 -0.01048006 0.00517421 0.54117647 0.42352941 0.64313725
v -0.02691789 -0.01100344 0.00517421 0.54117647 0.42352941 0.64313725
v -0.02736719 -0.01051575 0.00656065 0.54117647 0.42352941 0.64313725
v -0.02765934 -0.01024692 0.00734192 0.54117647 0.42352941 0.64313725
v -0.02843724 -0.01098441 0.00656065 0.54117647 0.42352941 0.64313725
v -0.02843724 -0.01036587 0.00750561 0.54117647 0.42352941 0.64313725
v -0.02958765 -0.01035635 0.00755025 0.54117647 0.42352941 0.64313725
v -0.02958765 -0.01200976 -0.00247476 0.54117647 0.42352941 0.64313725
v -0.02958765 -0.01174331 -0.00332299 0.54117647 0.42352941 0.64313725
v -0.02919203 -0.01168621 -0.00441676 0.54117647 0.42352941 0.64313725
v -0.02843724 -0.01181944 -0.00471935 0.54117647 0.42352941 0.64313725
v -0.02697938 -0.01185037 -0.00482104 0.54117647 0.42352941 0.64313725
v -0.02626428 -0.01174569 -0.00458542 0.54117647 0.42352941 0.64313725
v -0.02626428 -0.01003995 0.00574962 0.54117647 0.42352941 0.64313725
v -0.02843724 -0.00973306 0.00823479 0.54117647 0.42352941 0.64313725
v -0.02626428 -0.00943330 0.00652593 0.54117647 0.42352941 0.64313725
v -0.02626428 -0.00922395 0.00675411 0.54117647 0.42352941 0.64313725
v -0.02765121 -0.00881238 0.00880772 0.54117647 0.42352941 0.64313725
v -0.02843724 -0.00900270 0.00899374 0.54117647 0.42352941 0.64313725
v -0.02958765 -0.00903601 0.00903590 0.54117647 0.42352941 0.64313725
v -0.02958765 -0.01137457 -0.00411666 0.54117647 0.42352941 0.64313725
v -0.02958765 -0.01085119 -0.00499217 0.54117647 0.42352941 0.64313725
v -0.02958765 -0.01030164 -0.00589993 0.54117647 0.42352941 0.64313725
v -0.02935731 -0.01043010 -0.00614795 0.54117647 0.42352941 0.64313725
v -0.02897535 -0.01004233 -0.00712019 0.54117647 0.42352941 0.64313725
v -0.02846847 -0.01070607 -0.00660431 0.54117647 0.42352941 0.64313725
v -0.02843724 -0.01144356 -0.00544853 0.54117647 0.42352941 0.64313725
v -0.02697938 -0.01155299 -0.00555022 0.54117647 0.42352941 0.64313725
v -0.02626428 -0.01170763 -0.00467719 0.54117647 0.42352941 0.64313725
v -0.02626428 -0.00797498 0.00790740 0.54117647 0.42352941 0.64313725
v -0.02626428 -0.00633585 0.00921943 0.54117647 0.42352941 0.64313725
v -0.02784511 -0.00713281 0.01012471 0.54117647 0.42352941 0.64313725
v -0.02881724 -0.00751107 0.01036777 0.54117647 0.42352941 0.64313725
v -0.02958765 -0.00805348 0.00994366 0.54117647 0.42352941 0.64313725
v -0.02958765 -0.00999237 -0.00633893 0.54117647 0.42352941 0.64313725
v -0.02958765 -0.00964979 -0.00673576 0.54117647 0.42352941 0.64313725
v -0.02800323 -0.01036111 -0.00749222 0.54117647 0.42352941 0.64313725
v -0.02958765 -0.00895275 -0.00747486 0.54117647 0.42352941 0.64313725
v -0.02939049 -0.00907170 -0.00760135 0.54117647 0.42352941 0.64313725
v -0.02898967 -0.00852928 -0.00857360 0.54117647 0.42352941 0.64313725
v -0.02801755 -0.00897891 -0.00896795 0.54117647 0.42352941 0.64313725
v -0.02697938 -0.01101534 -0.00656215 0.54117647 0.42352941 0.64313725
v -0.02626428 -0.01032781 -0.00745998 0.54117647 0.42352941 0.64313725
v -0.02626428 -0.00584339 0.00949226 0.54117647 0.42352941 0.64313725
v -0.02756695 -0.00616218 0.01036281 0.54117647 0.42352941 0.64313725
v -0.02842715 -0.00518203 0.01134249 0.54117647 0.42352941 0.64313725
v -0.02837347 -0.00661419 0.01066044 0.54117647 0.42352941 0.64313725
v -0.02958765 -0.00753248 0.01038761 0.54117647 0.42352941 0.64313725
v -0.02890671 -0.00474668 0.01180877 0.54117647 0.42352941 0.64313725
v -0.02958765 -0.00535808 0.01164756 0.54117647 0.42352941 0.64313725
v -0.02958765 -0.00657137 0.01095806 0.54117647 0.42352941 0.64313725
v -0.02697938 -0.00981870 -0.00828093 0.54117647 0.42352941 0.64313725
v -0.02697938 -0.01040156 -0.00755175 0.54117647 0.42352941 0.64313725
v -0.02697938 -0.00908835 -0.00908948 0.54117647 0.42352941 0.64313725
v -0.02958765 -0.00862444 -0.00778985 0.54117647 0.42352941 0.64313725
v -0.02958765 -0.00817719 -0.00820653 0.54117647 0.42352941 0.64313725
v -0.02958765 -0.00740640 -0.00881666 0.54117647 0.42352941 0.64313725
v -0.02934299 -0.00755627 -0.00892827 0.54117647 0.42352941 0.64313725
v -0.02785488 -0.00743257 -0.01030726 0.54117647 0.42352941 0.64313725
v -0.02697938 -0.00828187 -0.00981866 0.54117647 0.42352941 0.64313725
v -0.02626428 -0.01021599 -0.00760135 0.54117647 0.42352941 0.64313725
v -0.02626428 -0.00340730 0.01051410 0.54117647 0.42352941 0.64313725
v -0.02867181 -0.00364520 0.01197247 0.54117647 0.42352941 0.64313725
v -0.02958765 -0.00364520 0.01223041 0.54117647 0.42352941 0.64313725
v -0.02958765 -0.00485611 0.01186086 0.54117647 0.42352941 0.64313725
v -0.02626428 -0.00900984 -0.00901755 0.54117647 0.42352941 0.64313725
v -0.02626428 -0.00751583 -0.01037671 0.54117647 0.42352941 0.64313725
v -0.02958765 -0.00678548 -0.00923085 0.54117647 0.42352941 0.64313725
v -0.02958765 -0.00652379 -0.00938711 0.54117647 0.42352941 0.64313725
v -0.02813272 -0.00656185 -0.01055280 0.54117647 0.42352941 0.64313725
v -0.02778265 -0.00452781 -0.01171850 0.54117647 0.42352941 0.64313725
v -0.02697938 -0.00553650 -0.01154985 0.54117647 0.42352941 0.64313725
v -0.02697938 -0.00656185 -0.01101412 0.54117647 0.42352941 0.64313725
v -0.02697938 -0.00755389 -0.01040151 0.54117647 0.42352941 0.64313725
v -0.02626428 -0.00293864 0.01063315 0.54117647 0.42352941 0.64313725
v -0.02854200 -0.00218687 0.01211136 0.54117647 0.42352941 0.64313725
v -0.02958765 -0.00218687 0.01252307 0.54117647 0.42352941 0.64313725
v -0.02626428 -0.00218687 0.01080429 0.54117647 0.42352941 0.64313725
v -0.02626428 -0.00720180 -0.01057265 0.54117647 0.42352941 0.64313725
v -0.02958765 -0.00554126 -0.00989555 0.54117647 0.42352941 0.64313725
v -0.02790530 -0.00364520 -0.01182763 0.54117647 0.42352941 0.64313725
v -0.02697938 -0.00218687 -0.01248985 0.54117647 0.42352941 0.64313725
v -0.02697938 -0.00364520 -0.01220959 0.54117647 0.42352941 0.64313725
v -0.02697938 -0.00480853 -0.01184499 0.54117647 0.42352941 0.64313725
v -0.02958765 -0.00532715 -0.00997988 0.54117647 0.42352941 0.64313725
v -0.02958765 -0.00389975 -0.01053792 0.54117647 0.42352941 0.64313725
v -0.02958765 -0.00361427 -0.01060985 0.54117647 0.42352941 0.64313725
v -0.02626428 -0.00550320 -0.01150520 0.54117647 0.42352941 0.64313725
v -0.02626428 -0.00477285 -0.01183507 0.54117647 0.42352941 0.64313725
v -0.02854753 -0.00072855 0.01215848 0.54117647 0.42352941 0.64313725
v -0.02958765 -0.00072855 0.01264461 0.54117647 0.42352941 0.64313725
v -0.02626428 -0.00147080 0.01090598 0.54117647 0.42352941 0.64313725
v -0.02626428 -0.00072855 0.01095062 0.54117647 0.42352941 0.64313725
v -0.02801234 -0.00218687 -0.01194420 0.54117647 0.42352941 0.64313725
v -0.02958765 -0.00254372 -0.01083307 0.54117647 0.42352941 0.64313725
v -0.02697938 -0.00072855 -0.01257914 0.54117647 0.42352941 0.64313725
v -0.02626428 -0.00072855 -0.01269323 0.54117647 0.42352941 0.64313725
v -0.02626428 -0.00218687 -0.01254937 0.54117647 0.42352941 0.64313725
v -0.02626428 -0.00364520 -0.01221951 0.54117647 0.42352941 0.64313725
v -0.02958765 0.00072740 0.01259004 0.54117647 0.42352941 0.64313725
v -0.02626428 -0.00001485 0.01095310 0.54117647 0.42352941 0.64313725
v -0.02800909 -0.00072855 -0.01196156 0.54117647 0.42352941 0.64313725
v -0.02958765 -0.00218687 -0.01087027 0.54117647 0.42352941 0.64313725
v -0.02958765 -0.00111633 -0.01095212 0.54117647 0.42352941 0.64313725
v -0.02626428 0.00072740 -0.01265354 0.54117647 0.42352941 0.64313725
v -0.02697938 0.00072740 -0.01248737 0.54117647 0.42352941 0.64313725
v -0.02958765 0.00218572 0.01236682 0.54117647 0.42352941 0.64313725
v -0.02626428 0.00072740 0.01090102 0.54117647 0.42352941 0.64313725
v -0.02626428 0.00144348 0.01081669 0.54117647 0.42352941 0.64313725
v -0.02958765 -0.00072855 -0.01095460 0.54117647 0.42352941 0.64313725
v -0.02958765 0.00033962 -0.01092236 0.54117647 0.42352941 0.64313725
v -0.02958765 0.00072740 -0.01090003 0.54117647 0.42352941 0.64313725
v -0.02626428 0.00222141 -0.01241296 0.54117647 0.42352941 0.64313725
v -0.02709943 0.00225947 -0.01212774 0.54117647 0.42352941 0.64313725
v -0.02672301 0.00364405 -0.01196652 0.54117647 0.42352941 0.64313725
v -0.02626428 0.00308736 -0.01223439 0.54117647 0.42352941 0.64313725
v -0.02958765 0.00220000 -0.01069418 0.54117647 0.42352941 0.64313725
v -0.02958765 0.00257350 0.01227753 0.54117647 0.42352941 0.64313725
v -0.02626428 0.00218572 0.01067284 0.54117647 0.42352941 0.64313725
v -0.02958765 0.00299696 -0.01048832 0.54117647 0.42352941 0.64313725
v -0.02643736 0.00462658 -0.01178299 0.54117647 0.42352941 0.64313725
v -0.02626428 0.00444101 -0.01188468 0.54117647 0.42352941 0.64313725
v -0.02626428 0.00364405 -0.01210046 0.54117647 0.42352941 0.64313725
v -0.02958765 0.00361550 0.01198735 0.54117647 0.42352941 0.64313725
v -0.02900789 0.00330147 0.01181126 0.54117647 0.42352941 0.64313725
v -0.02626428 0.00271148 0.01054387 0.54117647 0.42352941 0.64313725
v -0.02958765 0.00384389 -0.01017085 0.54117647 0.42352941 0.64313725
v -0.02626428 0.00467416 -0.01180283 0.54117647 0.42352941 0.64313725
v -0.02958765 0.00511427 -0.00956072 0.54117647 0.42352941 0.64313725
v -0.02958765 0.00587555 -0.00912172 0.54117647 0.42352941 0.64313725
v -0.02628640 0.00732912 -0.01023782 0.54117647 0.42352941 0.64313725
v -0.02626428 0.00730533 -0.01026014 0.54117647 0.42352941 0.64313725
v -0.02958765 0.00393667 0.01188566 0.54117647 0.42352941 0.64313725
v -0.02924474 0.00427211 0.01161284 0.54117647 0.42352941 0.64313725
v -0.02626428 0.00325627 0.01036281 0.54117647 0.42352941 0.64313725
v -0.02958765 0.00610393 -0.00896299 0.54117647 0.42352941 0.64313725
v -0.02958765 0.00667965 -0.00851655 0.54117647 0.42352941 0.64313725
v -0.02958765 0.00749089 -0.00779729 0.54117647 0.42352941 0.64313725
v -0.02629616 0.00879696 -0.00880178 0.54117647 0.42352941 0.64313725
v -0.02626428 0.00880410 -0.00880922 0.54117647 0.42352941 0.64313725
v -0.02626428 0.00733388 -0.01024030 0.54117647 0.42352941 0.64313725
v -0.02958765 0.00484307 0.01147891 0.54117647 0.42352941 0.64313725
v -0.02626428 0.00361312 0.01022144 0.54117647 0.42352941 0.64313725
v -0.02626428 0.00453380 0.00984693 0.54117647 0.42352941 0.64313725
v -0.02626428 0.00574946 0.00928144 0.54117647 0.42352941 0.64313725
v -0.02958765 0.00763839 -0.00764352 0.54117647 0.42352941 0.64313725
v -0.02958765 0.00821411 -0.00703835 0.54117647 0.42352941 0.64313725
v -0.02958765 0.00888498 -0.00627196 0.54117647 0.42352941 0.64313725
v -0.02958765 0.00899918 -0.00611819 0.54117647 0.42352941 0.64313725
v -0.02958765 0.00957727 -0.00528484 0.54117647 0.42352941 0.64313725
v -0.02626428 0.00998170 -0.00698874 0.54117647 0.42352941 0.64313725
v -0.02958765 0.00633232 0.01051907 0.54117647 0.42352941 0.64313725
v -0.02626428 0.00627284 0.00897637 0.54117647 0.42352941 0.64313725
v -0.02958765 0.00970336 -0.00506410 0.54117647 0.42352941 0.64313725
v -0.02626428 0.01025053 -0.00651006 0.54117647 0.42352941 0.64313725
v -0.02958765 0.00685094 0.01014455 0.54117647 0.42352941 0.64313725
v -0.02626428 0.00731247 0.00818519 0.54117647 0.42352941 0.64313725
v -0.02958765 0.01042182 -0.00367518 0.54117647 0.42352941 0.64313725
v -0.02626428 0.01038613 -0.00619011 0.54117647 0.42352941 0.64313725
v -0.02958765 0.00727916 0.00978988 0.54117647 0.42352941 0.64313725
v -0.02626428 0.00776210 0.00778587 0.54117647 0.42352941 0.64313725
v -0.02958765 0.01048605 -0.00351149 0.54117647 0.42352941 0.64313725
v -0.02958765 0.01091903 -0.00237803 0.54117647 0.42352941 0.64313725
v -0.02626428 0.01077867 -0.00512362 0.54117647 0.42352941 0.64313725
v -0.02958765 0.00779778 0.00927152 0.54117647 0.42352941 0.64313725
v -0.02626428 0.00882789 0.00665490 0.54117647 0.42352941 0.64313725
v -0.02958765 0.00830451 0.00873579 0.54117647 0.42352941 0.64313725
v -0.02626428 0.01126398 -0.00363550 0.54117647 0.42352941 0.64313725
v -0.02958765 0.01099040 -0.00209777 0.54117647 0.42352941 0.64313725
v -0.02626428 0.00913954 0.00625806 0.54117647 0.42352941 0.64313725
v -0.02958765 0.00873511 0.00823975 0.54117647 0.42352941 0.64313725
v -0.02626428 0.01134487 -0.00324114 0.54117647 0.42352941 0.64313725
v -0.02958765 0.01115455 -0.00072869 0.54117647 0.42352941 0.64313725
v -0.02958765 0.00928465 0.00750809 0.54117647 0.42352941 0.64313725
v -0.02626428 0.01050032 0.00384730 0.54117647 0.42352941 0.64313725
v -0.02626428 0.01146858 -0.00218705 0.54117647 0.42352941 0.64313725
v -0.02626428 0.01148523 -0.00193903 0.54117647 0.42352941 0.64313725
v -0.02958765 0.01119261 0.00058830 0.54117647 0.42352941 0.64313725
v -0.02958765 0.00977949 0.00656065 0.54117647 0.42352941 0.64313725
v -0.02626428 0.01066923 0.00347527 0.54117647 0.42352941 0.64313725
v -0.02958765 0.00978662 0.00654577 0.54117647 0.42352941 0.64313725
v -0.02958765 0.01119499 0.00072719 0.54117647 0.42352941 0.64313725
v -0.02626428 0.01147095 -0.00072869 0.54117647 0.42352941 0.64313725
v -0.02626428 0.01106415 0.00218556 0.54117647 0.42352941 0.64313725
v -0.02958765 0.01082149 0.00366624 0.54117647 0.42352941 0.64313725
v -0.02958765 0.01032904 0.00506260 0.54117647 0.42352941 0.64313725
v -0.02958765 0.01114265 0.00204667 0.54117647 0.42352941 0.64313725
v -0.02626428 0.01145192 -0.00047075 0.54117647 0.42352941 0.64313725
v -0.02626428 0.01133059 0.00072719 0.54117647 0.42352941 0.64313725
v -0.02958765 0.01112600 0.00218556 0.54117647 0.42352941 0.64313725
v -0.02958765 0.01084766 0.00355711 0.54117647 0.42352941 0.64313725
f 1 2 3
f 1 3 4
f 1 4 5
f 1 5 6
f 1 6 7
f 1 7 2
f 2 8 9
f 2 9 10
f 2 10 11
f 2 11 12
f 2 12 3
f 2 7 13
f 2 13 8
f 3 12 14
f 3 14 15
f 3 15 16
f 3 16 17
f 3 17 4
f 4 17 16
f 4 16 29
f 4 29 28
f 4 28 43
f 4 43 56
f 4 56 70
f 4 70 84
f 4 84 87
f 4 87 86
f 4 86 101
f 4 101 100
f 4 100 113
f 4 113 127
f 4 127 136
f 4 136 143
f 4 143 154
f 4 154 160
f 4 160 169
f 4 169 178
f 4 178 188
f 4 188 192
f 4 192 196
f 4 196 201
f 4 201 203
f 4 203 207
f 4 207 210
f 4 210 215
f 4 215 217
f 4 217 222
f 4 222 221
f 4 221 227
f 4 227 226
f 4 226 223
f 4 223 218
f 4 218 214
f 4 214 209
f 4 209 205
f 4 205 199
f 4 199 198
f 4 198 194
f 4 194 190
f 4 190 186
f 4 186 185
f 4 185 184
f 4 184 183
f 4 183 182
f 4 182 174
f 4 174 173
f 4 173 172
f 4 172 166
f 4 166 165
f 4 165 163
f 4 163 156
f 4 156 153
f 4 153 148
f 4 148 147
f 4 147 146
f 4 146 140
f 4 140 139
f 4 139 131
f 4 131 123
f 4 123 122
f 4 122 121
f 4 121 116
f 4 116 105
f 4 105 104
f 4 104 93
f 4 93 92
f 4 92 91
f 4 91 74
f 4 74 72
f 4 72 71
f 4 71 59
f 4 59 58
f 4 58 57
f 4 57 45
f 4 45 44
f 4 44 30
f 4 30 19
f 4 19 18
f 4 18 5
f 5 18 6
f 6 19 20
f 6 20 21
f 6 21 7
f 6 18 19
f 7 21 22
f 7 22 13
f 8 13 22
f 8 22 34
f 8 34 49
f 8 49 65
f 8 65 79
f 8 79 97
f 8 97 102
f 8 102 103
f 8 103 115
f 8 115 124
f 8 124 125
f 8 125 135
f 8 135 134
f 8 134 133
f 8 133 141
f 8 141 149
f 8 149 152
f 8 152 159
f 8 159 158
f 8 158 164
f 8 164 168
f 8 168 177
f 8 177 176
f 8 176 187
f 8 187 191
f 8 191 195
f 8 195 200
f 8 200 204
f 8 204 208
f 8 208 212
f 8 212 213
f 8 213 219
f 8 219 224
f 8 224 225
f 8 225 220
f 8 220 216
f 8 216 211
f 8 211 206
f 8 206 202
f 8 202 197
f 8 197 193
f 8 193 189
f 8 189 181
f 8 181 180
f 8 180 179
f 8 179 171
f 8 171 162
f 8 162 155
f 8 155 145
f 8 145 144
f 8 144 137
f 8 137 129
f 8 129 128
f 8 128 114
f 8 114 111
f 8 111 98
f 8 98 80
f 8 80 67
f 8 67 66
f 8 66 53
f 8 53 52
f 8 52 50
f 8 50 37
f 8 37 35
f 8 35 23
f 8 23 10
f 8 10 9
f 10 23 24
f 10 24 11
f 11 24 12
f 12 24 23
f 12 23 25
f 12 25 14
f 14 25 26
f 14 26 15
f 15 26 27
f 15 27 28
f 15 28 29
f 15 29 16
f 19 30 20
f 20 30 31
f 20 31 32
f 20 32 33
f 20 33 21
f 21 33 34
f 21 34 22
f 23 35 36
f 23 36 25
f 25 36 35
f 25 35 37
f 25 37 38
f 25 38 39
f 25 39 40
f 25 40 27
f 25 27 26
f 27 40 41
f 27 41 28
f 28 42 43
f 28 41 42
f 30 44 31
f 31 44 45
f 31 45 46
f 31 46 32
f 32 46 47
f 32 47 48
f 32 48 33
f 33 48 49
f 33 49 34
f 37 50 40
f 37 40 39
f 37 39 38
f 40 51 42
f 40 42 41
f 40 50 52
f 40 52 53
f 40 53 54
f 40 54 55
f 40 55 51
f 42 51 43
f 43 51 56
f 45 57 46
f 46 57 58
f 46 58 59
f 46 59 60
f 46 60 61
f 46 61 62
f 46 62 63
f 46 63 47
f 47 63 64
f 47 64 48
f 48 64 49
f 49 64 65
f 51 55 56
f 53 66 54
f 54 67 68
f 54 68 69
f 54 69 55
f 54 66 67
f 55 69 70
f 55 70 56
f 59 71 60
f 60 71 72
f 60 72 61
f 61 73 62
f 61 72 74
f 61 74 75
f 61 75 76
f 61 76 77
f 61 77 73
f 62 73 63
f 63 73 78
f 63 78 64
f 64 78 79
f 64 79 65
f 67 80 68
f 68 81 82
f 68 82 83
f 68 83 69
f 68 80 81
f 69 84 70
f 69 83 85
f 69 85 86
f 69 86 87
f 69 87 84
f 73 88 89
f 73 89 78
f 73 77 90
f 73 90 88
f 74 91 75
f 75 91 76
f 76 91 92
f 76 92 93
f 76 93 94
f 76 94 95
f 76 95 77
f 77 95 96
f 77 96 90
f 78 89 79
f 79 89 97
f 80 98 81
f 81 98 82
f 82 98 85
f 82 85 83
f 85 99 100
f 85 100 101
f 85 101 86
f 85 98 99
f 88 97 89
f 88 90 102
f 88 102 97
f 90 96 103
f 90 103 102
f 93 104 95
f 93 95 94
f 95 104 105
f 95 105 106
f 95 106 107
f 95 107 108
f 95 108 109
f 95 109 110
f 95 110 96
f 96 110 103
f 98 111 99
f 99 112 113
f 99 113 100
f 99 111 114
f 99 114 112
f 103 110 115
f 105 116 106
f 106 116 107
f 107 117 118
f 107 118 119
f 107 119 120
f 107 120 108
f 107 116 121
f 107 121 122
f 107 122 123
f 107 123 117
f 108 124 109
f 108 120 125
f 108 125 124
f 109 124 115
f 109 115 110
f 112 126 127
f 112 127 113
f 112 114 128
f 112 128 129
f 112 129 126
f 117 130 118
f 117 123 131
f 117 131 130
f 118 132 133
f 118 133 134
f 118 134 119
f 118 130 132
f 119 134 135
f 119 135 120
f 120 135 125
f 126 136 127
f 126 129 137
f 126 137 136
f 130 138 132
f 130 131 139
f 130 139 140
f 130 140 138
f 132 141 133
f 132 138 142
f 132 142 141
f 136 137 144
f 136 144 145
f 136 145 143
f 138 140 146
f 138 146 147
f 138 147 148
f 138 148 142
f 141 142 149
f 142 150 151
f 142 151 152
f 142 152 149
f 142 148 153
f 142 153 150
f 143 145 155
f 143 155 154
f 150 153 156
f 150 156 151
f 151 157 158
f 151 158 159
f 151 159 152
f 151 156 157
f 154 155 161
f 154 161 160
f 155 162 161
f 156 163 157
f 157 164 158
f 157 163 165
f 157 165 166
f 157 166 167
f 157 167 168
f 157 168 164
f 160 161 169
f 161 170 169
f 161 162 171
f 161 171 170
f 166 172 167
f 167 172 173
f 167 173 174
f 167 174 175
f 167 175 176
f 167 176 177
f 167 177 168
f 169 170 178
f 170 171 179
f 170 179 180
f 170 180 181
f 170 181 178
f 174 182 175
f 175 182 183
f 175 183 184
f 175 184 185
f 175 185 186
f 175 186 187
f 175 187 176
f 178 181 189
f 178 189 188
f 186 190 187
f 187 190 191
f 188 189 192
f 189 193 192
f 190 194 191
f 191 194 195
f 192 193 196
f 193 197 196
f 194 198 195
f 195 198 199
f 195 199 200
f 196 197 201
f 197 202 203
f 197 203 201
f 199 204 200
f 199 205 204
f 202 206 207
f 202 207 203
f 204 205 208
f 205 209 208
f 206 210 207
f 206 211 210
f 208 209 212
f 209 213 212
f 209 214 213
f 210 211 215
f 211 216 217
f 211 217 215
f 213 214 218
f 213 218 219
f 216 220 221
f 216 221 222
f 216 222 217
f 218 223 219
f 219 223 224
f 220 225 226
f 220 226 227
f 220 227 221
f 223 226 225
f 223 225 224