# https://github.com/mikedh/trimesh
v 0.02291046 -0.01385386 0.01576483 0.94117647 0.52156863 0.41176471
v 0.01822822 -0.01385386 0.01576639 0.94117647 0.52156863 0.41176471
v 0.02291046 -0.01491149 0.01531308 0.94117647 0.52156863 0.41176471
v 0.02291046 -0.01354743 0.01568382 0.94117647 0.52156863 0.41176471
v 0.01213086 -0.01385386 0.01576639 0.94117647 0.52156863 0.41176471
v 0.01213086 -0.01519239 0.01519157 0.94117647 0.52156863 0.41176471
v 0.02291046 -0.01519239 0.01519157 0.94117647 0.52156863 0.41176471
v 0.02291046 -0.01203919 0.01516353 0.94117647 0.52156863 0.41176471
v 0.01213086 -0.01033198 0.01456691 0.94117647 0.52156863 0.41176471
v 0.01213086 -0.01576643 0.01385345 0.94117647 0.52156863 0.41176471
v 0.02291046 -0.01576589 0.01385345 0.94117647 0.52156863 0.41176471
v 0.02291046 -0.01033198 0.01457003 0.94117647 0.52156863 0.41176471
v 0.01213086 -0.01033198 -0.00014615 0.94117647 0.52156863 0.41176471
v 0.01213086 -0.01455185 -0.00014615 0.94117647 0.52156863 0.41176471
v 0.02291046 -0.01455771 -0.00014615 0.94117647 0.52156863 0.41176471
v 0.02291046 -0.01033198 -0.00014615 0.94117647 0.52156863 0.41176471
f 1 2 3
f 1 3 7
f 1 7 11
f 1 11 15
f 1 15 16
f 1 16 12
f 1 12 8
f 1 8 4
f 1 4 2
f 2 4 5
f 2 5 3
f 3 5 6
f 3 6 7
f 4 8 9
f 4 9 5
f 5 9 13
f 5 13 14
f 5 14 10
f 5 10 6
f 6 10 7
f 7 10 11
f 8 12 9
f 9 12 16
f 9 16 13
f 10 14 15
f 10 15 11
f 13 16 15
f 13 15 14