# https://github.com/mikedh/trimesh
v 0.00143961 0.01385230 0.01576925 0.56470588 0.01568627 0.61568627
v 0.01212981 0.01385230 0.01576613 0.56470588 0.01568627 0.61568627
v 0.01212981 0.01494833 0.01529716 0.56470588 0.01568627 0.61568627
v 0.00143961 0.01450393 0.01548880 0.56470588 0.01568627 0.61568627
v 0.00143961 -0.00973607 0.01456800 0.56470588 0.01568627 0.61568627
v 0.01212981 -0.00973607 0.01455553 0.56470588 0.01568627 0.61568627
v 0.01212981 0.01519050 0.01519122 0.56470588 0.01568627 0.61568627
v 0.00143961 0.01519050 0.01519122 0.56470588 0.01568627 0.61568627
v 0.00143961 -0.00973607 -0.00014615 0.56470588 0.01568627 0.61568627
v 0.01212981 -0.00973607 -0.00014615 0.56470588 0.01568627 0.61568627
v 0.01212981 0.01565987 0.01409747 0.56470588 0.01568627 0.61568627
v 0.00143961 0.01576973 0.01385286 0.56470588 0.01568627 0.61568627
v 0.00143961 0.01456634 -0.00014615 0.56470588 0.01568627 0.61568627
v 0.01212981 0.01455136 -0.00014615 0.56470588 0.01568627 0.61568627
v 0.01212981 0.01576473 0.01385286 0.56470588 0.01568627 0.61568627
f 1 2 3
f 1 3 4
f 1 4 8
f 1 8 12
f 1 12 13
f 1 13 9
f 1 9 5
f 1 5 2
f 2 5 6
f 2 6 10
f 2 10 14
f 2 14 15
f 2 15 11
f 2 11 7
f 2 7 3
f 3 7 8
f 3 8 4
f 5 9 10
f 5 10 6
f 7 11 12
f 7 12 8
f 9 13 14
f 9 14 10
f 11 15 12
f 12 15 13
f 13 15 14