# https://github.com/mikedh/trimesh
v -0.02989600 -0.00072822 0.01278840 0.56470588 0.92549020 0.07058824
v -0.03135388 -0.00072822 0.01263820 0.56470588 0.92549020 0.07058824
v -0.02989600 -0.00218604 0.01264304 0.56470588 0.92549020 0.07058824
v -0.02958798 -0.00218604 0.01252191 0.56470588 0.92549020 0.07058824
v -0.02958798 -0.00072822 0.01264304 0.56470588 0.92549020 0.07058824
v -0.02989600 0.00072713 0.01274964 0.56470588 0.92549020 0.07058824
v -0.03135388 0.00072713 0.01270603 0.56470588 0.92549020 0.07058824
v -0.03244008 -0.00072822 0.01201073 0.56470588 0.92549020 0.07058824
v -0.03228225 -0.00218604 0.01185811 0.56470588 0.92549020 0.07058824
v -0.03135388 -0.00218604 0.01239109 0.56470588 0.92549020 0.07058824
v -0.03252562 0.00072713 0.01206888 0.56470588 0.92549020 0.07058824
v -0.02989600 -0.00364385 0.01231599 0.56470588 0.92549020 0.07058824
v -0.02958798 -0.00364385 0.01222877 0.56470588 0.92549020 0.07058824
v -0.02958798 0.00072713 0.01259217 0.56470588 0.92549020 0.07058824
v -0.02989600 0.00218741 0.01252676 0.56470588 0.92549020 0.07058824
v -0.03135388 0.00218741 0.01259217 0.56470588 0.92549020 0.07058824
v -0.03253656 0.00218741 0.01203980 0.56470588 0.92549020 0.07058824
v -0.03297489 -0.00072822 0.01151651 0.56470588 0.92549020 0.07058824
v -0.03297489 -0.00209230 0.01124033 0.56470588 0.92549020 0.07058824
v -0.03297489 0.00072713 0.01166672 0.56470588 0.92549020 0.07058824
v -0.03297489 -0.00218604 0.01122095 0.56470588 0.92549020 0.07058824
v -0.03214797 -0.00307405 0.01172728 0.56470588 0.92549020 0.07058824
v -0.03137841 -0.00359452 0.01197924 0.56470588 0.92549020 0.07058824
v -0.03090892 -0.00470947 0.01181692 0.56470588 0.92549020 0.07058824
v -0.03297489 0.00218741 0.01167399 0.56470588 0.92549020 0.07058824
v -0.02989600 -0.00490680 0.01188476 0.56470588 0.92549020 0.07058824
v -0.02958798 -0.00485747 0.01186053 0.56470588 0.92549020 0.07058824
v -0.02958798 0.00218741 0.01236686 0.56470588 0.92549020 0.07058824
v -0.02958798 0.00257222 0.01227722 0.56470588 0.92549020 0.07058824
v -0.02958798 0.00361563 0.01198651 0.56470588 0.92549020 0.07058824
v -0.02979686 0.00372910 0.01204950 0.56470588 0.92549020 0.07058824
v -0.03021729 0.00476264 0.01183872 0.56470588 0.92549020 0.07058824
v -0.03135388 0.00364523 0.01228691 0.56470588 0.92549020 0.07058824
v -0.03225108 0.00465164 0.01177331 0.56470588 0.92549020 0.07058824
v -0.03242681 0.00364523 0.01191383 0.56470588 0.92549020 0.07058824
v -0.03297489 0.00364523 0.01149229 0.56470588 0.92549020 0.07058824
v -0.03297489 -0.00353779 0.01083091 0.56470588 0.92549020 0.07058824
v -0.03297489 -0.00363892 0.01078730 0.56470588 0.92549020 0.07058824
v -0.03188106 -0.00404593 0.01150925 0.56470588 0.92549020 0.07058824
v -0.03137841 -0.00515841 0.01124033 0.56470588 0.92549020 0.07058824
v -0.03074977 -0.00740557 0.01029792 0.56470588 0.92549020 0.07058824
v -0.02989600 -0.00656196 0.01103441 0.56470588 0.92549020 0.07058824
v -0.02989600 -0.00563448 0.01157224 0.56470588 0.92549020 0.07058824
v -0.02958798 -0.00535821 0.01164734 0.56470588 0.92549020 0.07058824
v -0.02958798 0.00393630 0.01188476 0.56470588 0.92549020 0.07058824
v -0.03135388 0.00487365 0.01187507 0.56470588 0.92549020 0.07058824
v -0.02958798 0.00484405 0.01147775 0.56470588 0.92549020 0.07058824
v -0.02979686 0.00519185 0.01139538 0.56470588 0.92549020 0.07058824
v -0.03041887 0.00745381 0.01033426 0.56470588 0.92549020 0.07058824
v -0.03135388 0.00656087 0.01103441 0.56470588 0.92549020 0.07058824
v -0.03135388 0.00560379 0.01156497 0.56470588 0.92549020 0.07058824
v -0.03297489 0.00384750 0.01143657 0.56470588 0.92549020 0.07058824
v -0.03231441 0.00747848 0.01034153 0.56470588 0.92549020 0.07058824
v -0.03280546 0.00646713 0.01055230 0.56470588 0.92549020 0.07058824
v -0.03276733 0.00512525 0.01119430 0.56470588 0.92549020 0.07058824
v -0.03297489 0.00512032 0.01103683 0.56470588 0.92549020 0.07058824
v -0.03297489 0.00492051 0.01111193 0.56470588 0.92549020 0.07058824
v -0.03297489 -0.00632762 0.00923923 0.56470588 0.92549020 0.07058824
v -0.03128293 -0.00642382 0.01051354 0.56470588 0.92549020 0.07058824
v -0.02989600 -0.00827138 0.00977706 0.56470588 0.92549020 0.07058824
v -0.02989600 -0.00754123 0.01039725 0.56470588 0.92549020 0.07058824
v -0.03297489 -0.00648795 0.00911325 0.56470588 0.92549020 0.07058824
v -0.03075309 -0.00886585 0.00887583 0.56470588 0.92549020 0.07058824
v -0.02989600 -0.00904345 0.00904784 0.56470588 0.92549020 0.07058824
v -0.02958798 -0.00753383 0.01038756 0.56470588 0.92549020 0.07058824
v -0.02958798 -0.00657182 0.01095688 0.56470588 0.92549020 0.07058824
v -0.02958798 0.00633146 0.01051838 0.56470588 0.92549020 0.07058824
v -0.02991822 0.00652633 0.01062740 0.56470588 0.92549020 0.07058824
v -0.02958798 0.00685194 0.01014530 0.56470588 0.92549020 0.07058824
v -0.02958798 0.00728114 0.00979159 0.56470588 0.92549020 0.07058824
v -0.02992087 0.00796442 0.00944031 0.56470588 0.92549020 0.07058824
v -0.03039533 0.00893383 0.00894367 0.56470588 0.92549020 0.07058824
v -0.03135388 0.00908183 0.00908418 0.56470588 0.92549020 0.07058824
v -0.03135388 0.00828262 0.00981340 0.56470588 0.92549020 0.07058824
v -0.03135388 0.00755494 0.01040452 0.56470588 0.92549020 0.07058824
v -0.03251634 0.00901030 0.00900181 0.56470588 0.92549020 0.07058824
v -0.03297489 0.00885983 0.00886130 0.56470588 0.92549020 0.07058824
v -0.03297489 0.00815928 0.00940397 0.56470588 0.92549020 0.07058824
v -0.03297489 0.00708134 0.01011380 0.56470588 0.92549020 0.07058824
v -0.03297489 0.00661760 0.01036091 0.56470588 0.92549020 0.07058824
v -0.03297489 0.00634873 0.01048447 0.56470588 0.92549020 0.07058824
v -0.02958798 -0.00805431 0.00994422 0.56470588 0.92549020 0.07058824
v -0.02958798 -0.00903605 0.00903573 0.56470588 0.92549020 0.07058824
v -0.03297489 -0.00768430 0.00793827 0.56470588 0.92549020 0.07058824
v -0.03297489 -0.00853038 0.00684081 0.56470588 0.92549020 0.07058824
v -0.03060123 -0.01019540 0.00726962 0.56470588 0.92549020 0.07058824
v -0.03002730 -0.00985253 0.00801579 0.56470588 0.92549020 0.07058824
v -0.03297489 -0.00780764 0.00780018 0.56470588 0.92549020 0.07058824
v -0.02962909 -0.01037793 0.00752642 0.56470588 0.92549020 0.07058824
v -0.02958798 -0.01035573 0.00755065 0.56470588 0.92549020 0.07058824
v -0.02958798 0.00779915 0.00927315 0.56470588 0.92549020 0.07058824
v -0.02998585 0.00936797 0.00788013 0.56470588 0.92549020 0.07058824
v -0.03054885 0.01026338 0.00737379 0.56470588 0.92549020 0.07058824
v -0.03135388 0.00981197 0.00825321 0.56470588 0.92549020 0.07058824
v -0.02958798 0.00830482 0.00873532 0.56470588 0.92549020 0.07058824
v -0.02958798 0.00873402 0.00823868 0.56470588 0.92549020 0.07058824
v -0.03251302 0.01037931 0.00751673 0.56470588 0.92549020 0.07058824
v -0.03297489 0.01028064 0.00739075 0.56470588 0.92549020 0.07058824
v -0.03297489 0.00956037 0.00815873 0.56470588 0.92549020 0.07058824
v -0.03297489 -0.00897685 0.00619154 0.56470588 0.92549020 0.07058824
v -0.03297489 -0.00903852 0.00608495 0.56470588 0.92549020 0.07058824
v -0.03297489 -0.00952939 0.00510378 0.56470588 0.92549020 0.07058824
v -0.03297489 -0.00959352 0.00497053 0.56470588 0.92549020 0.07058824
v -0.03297489 -0.01003013 0.00392153 0.56470588 0.92549020 0.07058824
v -0.03084162 -0.01043960 0.00629814 0.56470588 0.92549020 0.07058824
v -0.02996265 -0.01144108 0.00520310 0.56470588 0.92549020 0.07058824
v -0.03002730 -0.01072081 0.00669545 0.56470588 0.92549020 0.07058824
v -0.02958798 -0.01177162 0.00484698 0.56470588 0.92549020 0.07058824
v -0.02958798 -0.01037793 0.00752400 0.56470588 0.92549020 0.07058824
v -0.02958798 0.00928657 0.00750704 0.56470588 0.92549020 0.07058824
v -0.03032869 0.01048045 0.00656221 0.56470588 0.92549020 0.07058824
v -0.03061682 0.01167186 0.00439394 0.56470588 0.92549020 0.07058824
v -0.03135388 0.01151399 0.00544537 0.56470588 0.92549020 0.07058824
v -0.03135388 0.01095652 0.00656221 0.56470588 0.92549020 0.07058824
v -0.03135388 0.01037931 0.00752400 0.56470588 0.92549020 0.07058824
v -0.03281242 0.01151646 0.00555681 0.56470588 0.92549020 0.07058824
v -0.03292416 0.01077398 0.00668334 0.56470588 0.92549020 0.07058824
v -0.03297489 0.01071972 0.00673664 0.56470588 0.92549020 0.07058824
v -0.03297489 -0.01031133 0.00319231 0.56470588 0.92549020 0.07058824
v -0.03049314 -0.01158168 0.00397967 0.56470588 0.92549020 0.07058824
v -0.02958798 -0.01185055 0.00459744 0.56470588 0.92549020 0.07058824
v -0.02958798 0.00977990 0.00655978 0.56470588 0.92549020 0.07058824
v -0.02958798 0.00978730 0.00654525 0.56470588 0.92549020 0.07058824
v -0.02958798 0.01112672 0.00218691 0.56470588 0.92549020 0.07058824
v -0.03053691 0.01174586 0.00364534 0.56470588 0.92549020 0.07058824
v -0.03135388 0.01237240 0.00218691 0.56470588 0.92549020 0.07058824
v -0.03135388 0.01211587 0.00364534 0.56470588 0.92549020 0.07058824
v -0.03135388 0.01180506 0.00471615 0.56470588 0.92549020 0.07058824
v -0.02958798 0.01032998 0.00506259 0.56470588 0.92549020 0.07058824
v -0.02958798 0.01082085 0.00366715 0.56470588 0.92549020 0.07058824
v -0.02958798 0.01084798 0.00355813 0.56470588 0.92549020 0.07058824
v -0.03281242 0.01185933 0.00482759 0.56470588 0.92549020 0.07058824
v -0.03297489 0.01183713 0.00477430 0.56470588 0.92549020 0.07058824
v -0.03297489 0.01135612 0.00567310 0.56470588 0.92549020 0.07058824
v -0.03297489 -0.01034093 0.00308087 0.56470588 0.92549020 0.07058824
v -0.03297489 -0.01061474 0.00202460 0.56470588 0.92549020 0.07058824
v -0.02996265 -0.01195169 0.00355328 0.56470588 0.92549020 0.07058824
v -0.02958798 -0.01204295 0.00357509 0.56470588 0.92549020 0.07058824
v -0.02958798 0.01114152 0.00204640 0.56470588 0.92549020 0.07058824
v -0.03043910 0.01184206 0.00218691 0.56470588 0.92549020 0.07058824
v -0.03135388 0.01244393 0.00072848 0.56470588 0.92549020 0.07058824
v -0.03281242 0.01283861 0.00072848 0.56470588 0.92549020 0.07058824
v -0.03281242 0.01265114 0.00218691 0.56470588 0.92549020 0.07058824
v -0.03281242 0.01228113 0.00364534 0.56470588 0.92549020 0.07058824
v -0.03297489 0.01217753 0.00381735 0.56470588 0.92549020 0.07058824
v -0.03297489 -0.01082194 0.00058797 0.56470588 0.92549020 0.07058824
v -0.02989600 -0.01219589 0.00218691 0.56470588 0.92549020 0.07058824
v -0.03064367 -0.01168282 0.00300577 0.56470588 0.92549020 0.07058824
v -0.02958798 -0.01229456 0.00218691 0.56470588 0.92549020 0.07058824
v -0.02958798 0.01119332 0.00072848 0.56470588 0.92549020 0.07058824
v -0.03043811 0.01184700 0.00072848 0.56470588 0.92549020 0.07058824
v -0.03135388 0.01232307 -0.00072753 0.56470588 0.92549020 0.07058824
v -0.03281242 0.01283121 -0.00072753 0.56470588 0.92549020 0.07058824
v -0.03297489 0.01278927 -0.00072753 0.56470588 0.92549020 0.07058824
v -0.03297489 0.01277941 0.00072848 0.56470588 0.92549020 0.07058824
v -0.03297489 0.01258454 0.00217238 0.56470588 0.92549020 0.07058824
v -0.03297489 0.01253767 0.00240737 0.56470588 0.92549020 0.07058824
v -0.03297489 0.01222440 0.00364534 0.56470588 0.92549020 0.07058824
v -0.03297489 -0.01082687 -0.00071784 0.56470588 0.92549020 0.07058824
v -0.02989600 -0.01223782 0.00072848 0.56470588 0.92549020 0.07058824
v -0.02958798 -0.01236116 0.00072848 0.56470588 0.92549020 0.07058824
v -0.02958798 0.01119332 0.00058797 0.56470588 0.92549020 0.07058824
v -0.02958798 0.01115385 -0.00072753 0.56470588 0.92549020 0.07058824
v -0.03281242 0.01264867 -0.00218596 0.56470588 0.92549020 0.07058824
v -0.02958798 0.01099105 -0.00209874 0.56470588 0.92549020 0.07058824
v -0.03129387 0.01203446 -0.00206483 0.56470588 0.92549020 0.07058824
v -0.03297489 0.01261660 -0.00218596 0.56470588 0.92549020 0.07058824
v -0.03297489 -0.01081454 -0.00089469 0.56470588 0.92549020 0.07058824
v -0.02958798 -0.01226249 -0.00062820 0.56470588 0.92549020 0.07058824
v -0.03174313 0.01191113 -0.00364439 0.56470588 0.92549020 0.07058824
v -0.03281242 0.01228113 -0.00364439 0.56470588 0.92549020 0.07058824
v -0.03297489 0.01226387 -0.00364439 0.56470588 0.92549020 0.07058824
v -0.02958798 0.01091952 -0.00237735 0.56470588 0.92549020 0.07058824
v -0.03297489 -0.01063940 -0.00218596 0.56470588 0.92549020 0.07058824
v -0.02958798 -0.01208982 -0.00212055 0.56470588 0.92549020 0.07058824
v -0.03197291 0.01174339 -0.00454077 0.56470588 0.92549020 0.07058824
v -0.03281242 0.01185686 -0.00482422 0.56470588 0.92549020 0.07058824
v -0.03297489 0.01185193 -0.00481210 0.56470588 0.92549020 0.07058824
v -0.02958798 0.01042371 -0.00367588 0.56470588 0.92549020 0.07058824
v -0.03297489 -0.01061474 -0.00233374 0.56470588 0.92549020 0.07058824
v -0.02958798 -0.01207995 -0.00218596 0.56470588 0.92549020 0.07058824
v -0.03281242 0.01151399 -0.00555343 0.56470588 0.92549020 0.07058824
v -0.02958798 0.00970344 -0.00506406 0.56470588 0.92549020 0.07058824
v -0.02958798 0.00957763 -0.00528452 0.56470588 0.92549020 0.07058824
v -0.03214067 0.01017211 -0.00725171 0.56470588 0.92549020 0.07058824
v -0.03297489 0.01151399 -0.00554132 0.56470588 0.92549020 0.07058824
v -0.03297489 -0.01038040 -0.00323254 0.56470588 0.92549020 0.07058824
v -0.02958798 -0.01201089 -0.00247668 0.56470588 0.92549020 0.07058824
v -0.03270102 0.01077152 -0.00668481 0.56470588 0.92549020 0.07058824
v -0.03297489 0.01051005 -0.00723717 0.56470588 0.92549020 0.07058824
v -0.02958798 0.00900043 -0.00611791 0.56470588 0.92549020 0.07058824
v -0.02958798 0.00888449 -0.00627296 0.56470588 0.92549020 0.07058824
v -0.02958798 0.00821355 -0.00703851 0.56470588 0.92549020 0.07058824
v -0.02958798 0.00763881 -0.00764417 0.56470588 0.92549020 0.07058824
v -0.02958798 0.00749081 -0.00779922 0.56470588 0.92549020 0.07058824
v -0.03213239 0.00869456 -0.00871014 0.56470588 0.92549020 0.07058824
v -0.03297489 0.00896836 -0.00896452 0.56470588 0.92549020 0.07058824
v -0.03297489 0.00916570 -0.00876344 0.56470588 0.92549020 0.07058824
v -0.03297489 0.01034971 -0.00747944 0.56470588 0.92549020 0.07058824
v -0.02958798 -0.01174202 -0.00332460 0.56470588 0.92549020 0.07058824
v -0.03297489 -0.00954419 -0.00529421 0.56470588 0.92549020 0.07058824
v -0.02958798 0.00667927 -0.00851633 0.56470588 0.92549020 0.07058824
v -0.02958798 0.00610453 -0.00896452 0.56470588 0.92549020 0.07058824
v -0.03297489 0.00782381 -0.00987301 0.56470588 0.92549020 0.07058824
v -0.02958798 -0.01137448 -0.00411681 0.56470588 0.92549020 0.07058824
v -0.03297489 -0.00905578 -0.00627054 0.56470588 0.92549020 0.07058824
v -0.02958798 0.00587512 -0.00912199 0.56470588 0.92549020 0.07058824
v -0.03297489 0.00728361 -0.01022914 0.56470588 0.92549020 0.07058824
v -0.02958798 -0.01085154 -0.00499138 0.56470588 0.92549020 0.07058824
v -0.03297489 -0.00846624 -0.00710635 0.56470588 0.92549020 0.07058824
v -0.02958798 -0.00999313 -0.00633837 0.56470588 0.92549020 0.07058824
v -0.02958798 -0.01030147 -0.00589987 0.56470588 0.92549020 0.07058824
v -0.02958798 0.00511538 -0.00956049 0.56470588 0.92549020 0.07058824
v -0.03297489 0.00680014 -0.01048594 0.56470588 0.92549020 0.07058824
v -0.03297489 -0.00770897 -0.00806087 0.56470588 0.92549020 0.07058824
v -0.02958798 -0.00965026 -0.00673568 0.56470588 0.92549020 0.07058824
v -0.02958798 0.00384503 -0.01017099 0.56470588 0.92549020 0.07058824
v -0.03297489 0.00501671 -0.01133144 0.56470588 0.92549020 0.07058824
v -0.03297489 -0.00641149 -0.00930853 0.56470588 0.92549020 0.07058824
v -0.02958798 -0.00895218 -0.00747701 0.56470588 0.92549020 0.07058824
v -0.02958798 0.00299649 -0.01048836 0.56470588 0.92549020 0.07058824
v -0.03297489 0.00421751 -0.01159308 0.56470588 0.92549020 0.07058824
v -0.03297489 -0.00639669 -0.00932064 0.56470588 0.92549020 0.07058824
v -0.02958798 -0.00817764 -0.00820623 0.56470588 0.92549020 0.07058824
v -0.02958798 -0.00862411 -0.00778953 0.56470588 0.92549020 0.07058824
v -0.02958798 0.00219975 -0.01069428 0.56470588 0.92549020 0.07058824
v -0.03297489 0.00364523 -0.01174571 0.56470588 0.92549020 0.07058824
v -0.03297489 -0.00510414 -0.01019764 0.56470588 0.92549020 0.07058824
v -0.02958798 -0.00740803 -0.00881673 0.56470588 0.92549020 0.07058824
v -0.02958798 0.00072713 -0.01090021 0.56470588 0.92549020 0.07058824
v -0.03297489 0.00218741 -0.01194437 0.56470588 0.92549020 0.07058824
v -0.03297489 -0.00365125 -0.01098984 0.56470588 0.92549020 0.07058824
v -0.02958798 -0.00652496 -0.00938606 0.56470588 0.92549020 0.07058824
v -0.02958798 -0.00678643 -0.00923101 0.56470588 0.92549020 0.07058824
v -0.02958798 0.00033986 -0.01092201 0.56470588 0.92549020 0.07058824
v -0.02958798 -0.00072822 -0.01095593 0.56470588 0.92549020 0.07058824
v -0.03297489 0.00072713 -0.01196133 0.56470588 0.92549020 0.07058824
v -0.03297489 -0.00349585 -0.01106495 0.56470588 0.92549020 0.07058824
v -0.02958798 -0.00554074 -0.00989723 0.56470588 0.92549020 0.07058824
v -0.02958798 -0.00111796 -0.01095351 0.56470588 0.92549020 0.07058824
v -0.02958798 -0.00218604 -0.01086871 0.56470588 0.92549020 0.07058824
v -0.03297489 -0.00072822 -0.01181597 0.56470588 0.92549020 0.07058824
v -0.03297489 -0.00218604 -0.01151798 0.56470588 0.92549020 0.07058824
v -0.02958798 -0.00390039 -0.01053681 0.56470588 0.92549020 0.07058824
v -0.02958798 -0.00532861 -0.00998203 0.56470588 0.92549020 0.07058824
v -0.02958798 -0.00254371 -0.01083237 0.56470588 0.92549020 0.07058824
v -0.03297489 -0.00126596 -0.01170695 0.56470588 0.92549020 0.07058824
v -0.02958798 -0.00361425 -0.01060949 0.56470588 0.92549020 0.07058824
f 1 2 3
f 1 3 4
f 1 4 5
f 1 5 6
f 1 6 7
f 1 7 2
f 2 8 9
f 2 9 10
f 2 10 3
f 2 7 11
f 2 11 8
f 3 10 12
f 3 12 13
f 3 13 4
f 4 13 27
f 4 27 44
f 4 44 66
f 4 66 65
f 4 65 82
f 4 82 83
f 4 83 90
f 4 90 109
f 4 109 108
f 4 108 121
f 4 121 138
f 4 138 149
f 4 149 161
f 4 161 169
f 4 169 175
f 4 175 181
f 4 181 188
f 4 188 200
f 4 200 205
f 4 205 209
f 4 209 212
f 4 212 211
f 4 211 216
f 4 216 220
f 4 220 225
f 4 225 224
f 4 224 229
f 4 229 234
f 4 234 233
f 4 233 239
f 4 239 245
f 4 245 244
f 4 244 248
f 4 248 246
f 4 246 241
f 4 241 240
f 4 240 236
f 4 236 235
f 4 235 230
f 4 230 226
f 4 226 221
f 4 221 217
f 4 217 213
f 4 213 207
f 4 207 203
f 4 203 202
f 4 202 195
f 4 195 194
f 4 194 193
f 4 193 192
f 4 192 191
f 4 191 184
f 4 184 183
f 4 183 179
f 4 179 173
f 4 173 165
f 4 165 163
f 4 163 162
f 4 162 150
f 4 150 139
f 4 139 124
f 4 124 131
f 4 131 130
f 4 130 129
f 4 129 123
f 4 123 122
f 4 122 110
f 4 110 96
f 4 96 95
f 4 95 91
f 4 91 70
f 4 70 69
f 4 69 67
f 4 67 47
f 4 47 45
f 4 45 30
f 4 30 29
f 4 29 28
f 4 28 14
f 4 14 5
f 5 14 6
f 6 14 15
f 6 15 16
f 6 16 7
f 7 16 17
f 7 17 11
f 8 18 19
f 8 19 9
f 8 11 20
f 8 20 18
f 9 19 21
f 9 21 22
f 9 22 10
f 10 22 23
f 10 23 24
f 10 24 12
f 11 17 25
f 11 25 20
f 12 24 26
f 12 26 27
f 12 27 13
f 14 28 15
f 15 28 29
f 15 29 30
f 15 30 31
f 15 31 32
f 15 32 33
f 15 33 16
f 16 33 34
f 16 34 35
f 16 35 17
f 17 35 36
f 17 36 25
f 18 20 25
f 18 25 36
f 18 36 52
f 18 52 57
f 18 57 56
f 18 56 81
f 18 81 80
f 18 80 79
f 18 79 78
f 18 78 77
f 18 77 99
f 18 99 98
f 18 98 118
f 18 118 134
f 18 134 133
f 18 133 145
f 18 145 158
f 18 158 157
f 18 157 156
f 18 156 155
f 18 155 154
f 18 154 167
f 18 167 172
f 18 172 178
f 18 178 186
f 18 186 190
f 18 190 199
f 18 199 198
f 18 198 197
f 18 197 204
f 18 204 208
f 18 208 214
f 18 214 218
f 18 218 222
f 18 222 227
f 18 227 231
f 18 231 237
f 18 237 242
f 18 242 247
f 18 247 243
f 18 243 238
f 18 238 232
f 18 232 228
f 18 228 223
f 18 223 219
f 18 219 215
f 18 215 210
f 18 210 206
f 18 206 201
f 18 201 187
f 18 187 180
f 18 180 174
f 18 174 168
f 18 168 159
f 18 159 146
f 18 146 136
f 18 136 135
f 18 135 119
f 18 119 104
f 18 104 103
f 18 103 102
f 18 102 101
f 18 101 100
f 18 100 85
f 18 85 88
f 18 88 84
f 18 84 62
f 18 62 58
f 18 58 38
f 18 38 37
f 18 37 21
f 18 21 19
f 21 37 22
f 22 37 38
f 22 38 39
f 22 39 23
f 23 39 24
f 24 39 40
f 24 40 41
f 24 41 42
f 24 42 43
f 24 43 26
f 26 43 44
f 26 44 27
f 30 45 31
f 31 45 32
f 32 46 33
f 32 45 47
f 32 47 48
f 32 48 49
f 32 49 50
f 32 50 51
f 32 51 46
f 33 46 34
f 34 52 36
f 34 36 35
f 34 46 51
f 34 51 53
f 34 53 54
f 34 54 55
f 34 55 56
f 34 56 57
f 34 57 52
f 38 58 39
f 39 58 40
f 40 58 59
f 40 59 41
f 41 60 61
f 41 61 42
f 41 59 58
f 41 58 62
f 41 62 63
f 41 63 64
f 41 64 60
f 42 61 65
f 42 65 66
f 42 66 43
f 43 66 44
f 47 67 68
f 47 68 48
f 48 68 49
f 49 68 69
f 49 69 70
f 49 70 71
f 49 71 72
f 49 72 73
f 49 73 74
f 49 74 75
f 49 75 50
f 50 75 53
f 50 53 51
f 53 75 74
f 53 74 76
f 53 76 77
f 53 77 78
f 53 78 79
f 53 79 80
f 53 80 54
f 54 80 81
f 54 81 55
f 55 81 56
f 60 82 65
f 60 65 61
f 60 64 83
f 60 83 82
f 62 84 63
f 63 85 86
f 63 86 87
f 63 87 64
f 63 84 88
f 63 88 85
f 64 87 89
f 64 89 90
f 64 90 83
f 67 69 68
f 70 91 71
f 71 91 72
f 72 92 93
f 72 93 94
f 72 94 73
f 72 91 95
f 72 95 96
f 72 96 92
f 73 76 74
f 73 94 97
f 73 97 76
f 76 97 98
f 76 98 99
f 76 99 77
f 85 100 86
f 86 100 101
f 86 101 102
f 86 102 103
f 86 103 104
f 86 104 105
f 86 105 106
f 86 106 107
f 86 107 89
f 86 89 87
f 89 107 108
f 89 108 109
f 89 109 90
f 92 96 110
f 92 110 93
f 93 111 112
f 93 112 113
f 93 113 114
f 93 114 115
f 93 115 94
f 93 110 111
f 94 115 97
f 97 115 114
f 97 114 116
f 97 116 117
f 97 117 118
f 97 118 98
f 104 119 120
f 104 120 106
f 104 106 105
f 106 120 108
f 106 108 107
f 108 120 121
f 110 122 111
f 111 122 123
f 111 123 112
f 112 124 125
f 112 125 126
f 112 126 127
f 112 127 128
f 112 128 113
f 112 123 129
f 112 129 130
f 112 130 131
f 112 131 124
f 113 116 114
f 113 128 132
f 113 132 116
f 116 132 133
f 116 133 134
f 116 134 118
f 116 118 117
f 119 135 120
f 120 136 137
f 120 137 121
f 120 135 136
f 121 137 138
f 124 139 140
f 124 140 125
f 125 140 126
f 126 141 142
f 126 142 143
f 126 143 127
f 126 140 141
f 127 143 144
f 127 144 128
f 128 144 132
f 132 144 133
f 133 144 145
f 136 146 147
f 136 147 148
f 136 148 137
f 137 147 149
f 137 149 138
f 137 148 147
f 139 150 140
f 140 151 141
f 140 150 151
f 141 151 152
f 141 152 153
f 141 153 142
f 142 154 155
f 142 155 143
f 142 153 154
f 143 155 156
f 143 156 157
f 143 157 158
f 143 158 144
f 144 158 145
f 146 159 160
f 146 160 147
f 147 160 161
f 147 161 149
f 150 162 151
f 151 162 163
f 151 163 152
f 152 164 153
f 152 163 165
f 152 165 166
f 152 166 164
f 153 164 167
f 153 167 154
f 159 168 160
f 160 169 161
f 160 168 169
f 164 166 170
f 164 170 171
f 164 171 172
f 164 172 167
f 165 170 166
f 165 173 170
f 168 174 175
f 168 175 169
f 170 173 176
f 170 176 171
f 171 176 177
f 171 177 178
f 171 178 172
f 173 179 176
f 174 180 181
f 174 181 175
f 176 182 177
f 176 179 183
f 176 183 184
f 176 184 185
f 176 185 182
f 177 182 186
f 177 186 178
f 180 187 188
f 180 188 181
f 182 185 189
f 182 189 190
f 182 190 186
f 184 191 185
f 185 191 192
f 185 192 193
f 185 193 194
f 185 194 195
f 185 195 196
f 185 196 197
f 185 197 198
f 185 198 199
f 185 199 189
f 187 200 188
f 187 201 200
f 189 199 190
f 195 202 196
f 196 202 203
f 196 203 204
f 196 204 197
f 200 201 205
f 201 206 205
f 203 207 204
f 204 207 208
f 205 206 209
f 206 210 211
f 206 211 212
f 206 212 209
f 207 213 208
f 208 213 214
f 210 215 211
f 211 215 216
f 213 217 214
f 214 217 218
f 215 219 220
f 215 220 216
f 217 221 218
f 218 221 222
f 219 223 224
f 219 224 225
f 219 225 220
f 221 226 227
f 221 227 222
f 223 228 229
f 223 229 224
f 226 230 227
f 227 230 231
f 228 232 233
f 228 233 234
f 228 234 229
f 230 235 231
f 231 235 236
f 231 236 237
f 232 238 239
f 232 239 233
f 236 240 237
f 237 240 241
f 237 241 242
f 238 243 244
f 238 244 245
f 238 245 239
f 241 246 242
f 242 246 247
f 243 247 246
f 243 246 248
f 243 248 244