# https://github.com/mikedh/trimesh
v 0.00188523 0.01455574 -0.00014771 0.69411765 0.05882353 0.66666667
v 0.01195246 0.01455070 -0.00014771 0.69411765 0.05882353 0.66666667
v 0.00142889 0.01456584 -0.00014924 0.69411765 0.05882353 0.66666667
v 0.00142889 0.01445479 -0.00014771 0.69411765 0.05882353 0.66666667
v 0.01195246 0.01576472 -0.01385329 0.69411765 0.05882353 0.66666667
v 0.01195246 -0.01001499 -0.00014771 0.69411765 0.05882353 0.66666667
v 0.00142889 0.01576977 -0.01385329 0.69411765 0.05882353 0.66666667
v 0.00142889 -0.01001499 -0.00014771 0.69411765 0.05882353 0.66666667
v 0.01195246 0.01519178 -0.01519128 0.69411765 0.05882353 0.66666667
v 0.01195246 -0.01001499 -0.01456128 0.69411765 0.05882353 0.66666667
v 0.00142889 0.01519178 -0.01519128 0.69411765 0.05882353 0.66666667
v 0.00142889 -0.01001499 -0.01457351 0.69411765 0.05882353 0.66666667
v 0.01195246 0.01426044 -0.01559191 0.69411765 0.05882353 0.66666667
v 0.00142889 0.01385408 -0.01576929 0.69411765 0.05882353 0.66666667
v 0.01195246 0.01385408 -0.01576623 0.69411765 0.05882353 0.66666667
f 1 2 3
f 1 3 4
f 1 4 8
f 1 8 6
f 1 6 2
f 2 5 3
f 2 6 10
f 2 10 15
f 2 15 13
f 2 13 9
f 2 9 5
f 3 5 7
f 3 7 11
f 3 11 14
f 3 14 12
f 3 12 8
f 3 8 4
f 5 9 7
f 6 8 12
f 6 12 10
f 7 9 11
f 9 13 14
f 9 14 11
f 10 12 15
f 12 14 15
f 13 15 14