# https://github.com/mikedh/trimesh
v 0.09764830 -0.05772466 0.05000000 0.54509804 0.71372549 0.60000000
v 0.09764830 -0.06071792 0.05000000 0.54509804 0.71372549 0.60000000
v 0.09764830 -0.05772466 0.00000000 0.54509804 0.71372549 0.60000000
v 0.09016823 -0.05772466 0.05000000 0.54509804 0.71372549 0.60000000
v 0.09254126 -0.06071792 0.05000000 0.54509804 0.71372549 0.60000000
v 0.09764830 -0.06071792 0.00000000 0.54509804 0.71372549 0.60000000
v 0.09016896 -0.05772466 0.00000000 0.54509804 0.71372549 0.60000000
v 0.09016823 -0.05772466 0.00002937 0.54509804 0.71372549 0.60000000
v 0.09254126 -0.06071792 0.00000000 0.54509804 0.71372549 0.60000000
v 0.09016896 -0.05772496 0.00000000 0.54509804 0.71372549 0.60000000
f 1 2 6
f 1 6 3
f 1 3 7
f 1 7 8
f 1 8 4
f 1 4 5
f 1 5 2
f 2 5 9
f 2 9 6
f 3 6 9
f 3 9 10
f 3 10 7
f 4 8 9
f 4 9 5
f 7 10 8
f 8 10 9