# https://github.com/mikedh/trimesh
v 0.08597888 -0.08909159 0.05000000 0.94117647 0.52156863 0.41176471
v 0.08233160 -0.08805518 0.05000000 0.94117647 0.52156863 0.41176471
v 0.08597888 -0.09409107 0.05000000 0.94117647 0.52156863 0.41176471
v 0.08597888 -0.08909159 0.00000000 0.94117647 0.52156863 0.41176471
v 0.05196628 -0.08805518 0.05000000 0.94117647 0.52156863 0.41176471
v 0.08233160 -0.08805518 0.00000000 0.94117647 0.52156863 0.41176471
v 0.04608534 -0.09409107 0.05000000 0.94117647 0.52156863 0.41176471
v 0.08597888 -0.09409107 0.00000000 0.94117647 0.52156863 0.41176471
v 0.04608534 -0.08909159 0.05000000 0.94117647 0.52156863 0.41176471
v 0.05196628 -0.08805518 0.00000000 0.94117647 0.52156863 0.41176471
v 0.04608534 -0.09409107 0.00000000 0.94117647 0.52156863 0.41176471
v 0.04608534 -0.08909159 0.00000000 0.94117647 0.52156863 0.41176471
f 1 2 5
f 1 5 9
f 1 9 7
f 1 7 3
f 1 3 8
f 1 8 4
f 1 4 6
f 1 6 2
f 2 6 10
f 2 10 5
f 3 7 11
f 3 11 8
f 4 8 11
f 4 11 12
f 4 12 10
f 4 10 6
f 5 10 12
f 5 12 9
f 7 9 12
f 7 12 11