# https://github.com/mikedh/trimesh
v 0.09764716 -0.05229107 0.05000000 0.43529412 0.89019608 0.96078431
v 0.08597888 -0.05229107 0.05000000 0.43529412 0.89019608 0.96078431
v 0.09764716 -0.05772466 0.05000000 0.43529412 0.89019608 0.96078431
v 0.09764716 -0.05229107 0.00000000 0.43529412 0.89019608 0.96078431
v 0.08597888 -0.05729066 0.05000000 0.43529412 0.89019608 0.96078431
v 0.08597888 -0.05229107 0.00000000 0.43529412 0.89019608 0.96078431
v 0.09016872 -0.05772466 0.05000000 0.43529412 0.89019608 0.96078431
v 0.09764716 -0.05772466 0.00000000 0.43529412 0.89019608 0.96078431
v 0.08597888 -0.05729066 0.00000000 0.43529412 0.89019608 0.96078431
v 0.09016872 -0.05772466 0.00002937 0.43529412 0.89019608 0.96078431
v 0.09016987 -0.05772466 0.00000000 0.43529412 0.89019608 0.96078431
f 1 2 5
f 1 5 7
f 1 7 3
f 1 3 8
f 1 8 4
f 1 4 6
f 1 6 2
f 2 6 9
f 2 9 5
f 3 7 10
f 3 10 11
f 3 11 8
f 4 8 11
f 4 11 9
f 4 9 6
f 5 9 10
f 5 10 7
f 9 11 10