# https://github.com/mikedh/trimesh
v 0.08233364 -0.08805459 0.05000000 0.26274510 0.77254902 0.45490196
v 0.08028237 -0.08316932 0.05000000 0.26274510 0.77254902 0.45490196
v 0.05196296 -0.08805459 0.05000000 0.26274510 0.77254902 0.45490196
v 0.08233364 -0.08805459 0.00000000 0.26274510 0.77254902 0.45490196
v 0.07936971 -0.08105647 0.05000000 0.26274510 0.77254902 0.45490196
v 0.08028237 -0.08316932 0.00000000 0.26274510 0.77254902 0.45490196
v 0.05401423 -0.08316932 0.05000000 0.26274510 0.77254902 0.45490196
v 0.05196296 -0.08805459 0.00000000 0.26274510 0.77254902 0.45490196
v 0.07812111 -0.07912667 0.05000000 0.26274510 0.77254902 0.45490196
v 0.07936971 -0.08105647 0.00000000 0.26274510 0.77254902 0.45490196
v 0.05492689 -0.08105647 0.05000000 0.26274510 0.77254902 0.45490196
v 0.05401423 -0.08316932 0.00000000 0.26274510 0.77254902 0.45490196
v 0.07656928 -0.07742885 0.05000000 0.26274510 0.77254902 0.45490196
v 0.07812111 -0.07912667 0.00000000 0.26274510 0.77254902 0.45490196
v 0.05617549 -0.07912667 0.05000000 0.26274510 0.77254902 0.45490196
v 0.05492689 -0.08105647 0.00000000 0.26274510 0.77254902 0.45490196
v 0.07475881 -0.07601050 0.05000000 0.26274510 0.77254902 0.45490196
v 0.07656928 -0.07742885 0.00000000 0.26274510 0.77254902 0.45490196
v 0.05772732 -0.07742885 0.05000000 0.26274510 0.77254902 0.45490196
v 0.05617549 -0.07912667 0.00000000 0.26274510 0.77254902 0.45490196
v 0.07274024 -0.07491075 0.05000000 0.26274510 0.77254902 0.45490196
v 0.07475881 -0.07601050 0.00000000 0.26274510 0.77254902 0.45490196
v 0.05953779 -0.07601050 0.05000000 0.26274510 0.77254902 0.45490196
v 0.05772732 -0.07742885 0.00000000 0.26274510 0.77254902 0.45490196
v 0.07056411 -0.07416036 0.05000000 0.26274510 0.77254902 0.45490196
v 0.07274024 -0.07491075 0.00000000 0.26274510 0.77254902 0.45490196
v 0.06155636 -0.07491075 0.05000000 0.26274510 0.77254902 0.45490196
v 0.05953779 -0.07601050 0.00000000 0.26274510 0.77254902 0.45490196
v 0.06829582 -0.07378027 0.05000000 0.26274510 0.77254902 0.45490196
v 0.07056411 -0.07416036 0.00000000 0.26274510 0.77254902 0.45490196
v 0.06373249 -0.07416036 0.05000000 0.26274510 0.77254902 0.45490196
v 0.06155636 -0.07491075 0.00000000 0.26274510 0.77254902 0.45490196
v 0.06600078 -0.07378027 0.05000000 0.26274510 0.77254902 0.45490196
v 0.06829582 -0.07378027 0.00000000 0.26274510 0.77254902 0.45490196
v 0.06373249 -0.07416036 0.00000000 0.26274510 0.77254902 0.45490196
v 0.06600078 -0.07378027 0.00000000 0.26274510 0.77254902 0.45490196
f 1 2 5
f 1 5 9
f 1 9 13
f 1 13 17
f 1 17 21
f 1 21 25
f 1 25 29
f 1 29 33
f 1 33 31
f 1 31 27
f 1 27 23
f 1 23 19
f 1 19 15
f 1 15 11
f 1 11 7
f 1 7 3
f 1 3 8
f 1 8 4
f 1 4 6
f 1 6 2
f 2 6 10
f 2 10 5
f 3 7 12
f 3 12 8
f 4 8 12
f 4 12 16
f 4 16 20
f 4 20 24
f 4 24 28
f 4 28 32
f 4 32 35
f 4 35 36
f 4 36 34
f 4 34 30
f 4 30 26
f 4 26 22
f 4 22 18
f 4 18 14
f 4 14 10
f 4 10 6
f 5 10 14
f 5 14 9
f 7 11 16
f 7 16 12
f 9 14 18
f 9 18 13
f 11 15 20
f 11 20 16
f 13 18 22
f 13 22 17
f 15 19 24
f 15 24 20
f 17 22 26
f 17 26 21
f 19 23 28
f 19 28 24
f 21 26 30
f 21 30 25
f 23 27 32
f 23 32 28
f 25 30 34
f 25 34 29
f 27 31 35
f 27 35 32
f 29 34 36
f 29 36 33
f 31 33 36
f 31 36 35