# https://github.com/mikedh/trimesh
v 0.08597888 -0.05229107 0.05000000 0.56470588 0.92549020 0.07058824
v 0.04605944 -0.05229107 0.05000000 0.56470588 0.92549020 0.07058824
v 0.08597888 -0.05729107 0.05000000 0.56470588 0.92549020 0.07058824
v 0.08597888 -0.05229107 0.00000000 0.56470588 0.92549020 0.07058824
v 0.04605944 -0.05729058 0.05000000 0.56470588 0.92549020 0.07058824
v 0.04605944 -0.05229107 0.00000000 0.56470588 0.92549020 0.07058824
v 0.04605944 -0.05729107 0.04996084 0.56470588 0.92549020 0.07058824
v 0.08597888 -0.05729107 0.00000000 0.56470588 0.92549020 0.07058824
v 0.04605944 -0.05728764 0.00000000 0.56470588 0.92549020 0.07058824
f 1 2 5
f 1 5 3
f 1 3 8
f 1 8 4
f 1 4 6
f 1 6 2
f 2 6 9
f 2 9 7
f 2 7 5
f 3 5 7
f 3 7 8
f 4 8 9
f 4 9 6
f 7 9 8