# https://github.com/mikedh/trimesh
v 0.03664830 -0.06227797 0.00000000 0.54117647 0.42352941 0.64313725
v 0.03664830 -0.05229205 0.00000000 0.54117647 0.42352941 0.64313725
v 0.04164774 -0.06227797 0.00000000 0.54117647 0.42352941 0.64313725
v 0.03664830 -0.06227797 0.05000000 0.54117647 0.42352941 0.64313725
v 0.04605944 -0.05229205 0.00000000 0.54117647 0.42352941 0.64313725
v 0.03664830 -0.05229205 0.05000000 0.54117647 0.42352941 0.64313725
v 0.04605944 -0.05728745 0.00000000 0.54117647 0.42352941 0.64313725
v 0.04605944 -0.05729038 0.04996084 0.54117647 0.42352941 0.64313725
v 0.04164774 -0.06227797 0.05000000 0.54117647 0.42352941 0.64313725
v 0.04605944 -0.05229205 0.05000000 0.54117647 0.42352941 0.64313725
v 0.04605944 -0.05729038 0.05000000 0.54117647 0.42352941 0.64313725
f 1 2 5
f 1 5 7
f 1 7 3
f 1 3 9
f 1 9 4
f 1 4 6
f 1 6 2
f 2 6 10
f 2 10 5
f 3 7 8
f 3 8 11
f 3 11 9
f 4 9 11
f 4 11 10
f 4 10 6
f 5 10 11
f 5 11 8
f 5 8 7