# https://github.com/mikedh/trimesh
v 0.02500000 -0.01651430 -0.00929265
v 0.02500000 -0.01836990 -0.00758505
v 0.02500000 -0.01423140 -0.01084425
v 0.02500000 -0.01154270 -0.01218375
v 0.02500000 -0.01979590 -0.00576975
v 0.02500000 -0.02080150 -0.00388465
v 0.02500000 -0.02139690 -0.00196715
v 0.02500000 -0.02159660 -0.00001365
v 0.02500000 -0.00849440 -0.01325245
v 0.02500000 -0.00516000 -0.01399615
v 0.02500000 -0.00163780 -0.01437205
v 0.02500000 -0.02149320 0.00139355
v 0.02500000 -0.02118410 0.00278725
v 0.02500000 -0.02048720 0.00454205
v 0.02500000 -0.01943620 0.00626375
v 0.02500000 -0.01801890 0.00792375
v 0.02500000 -0.01623090 0.00948505
v 0.02500000 -0.01408000 0.01090455
v 0.02500000 -0.01159140 0.01213585
v 0.02500000 -0.00880880 0.01313345
v 0.02500000 -0.00579450 0.01385785
v 0.02500000 -0.00262660 0.01427925
v 0.02500000 0.00195510 -0.01435475
v 0.02500000 0.00514420 -0.01399985
v 0.02500000 0.00819780 -0.01333715
v 0.02500000 0.01103490 -0.01239405
v 0.02500000 0.01358980 -0.01120835
v 0.02500000 0.01581440 -0.00982455
v 0.02500000 0.01768000 -0.00828935
v 0.02500000 0.01917530 -0.00664685
v 0.02500000 0.02030260 -0.00493535
v 0.02500000 0.02107280 -0.00318565
v 0.02500000 0.02150020 -0.00141985
v 0.02500000 0.00096550 0.01437205
v 0.02500000 0.00274740 0.01426965
v 0.02500000 0.00451050 0.01406935
v 0.02500000 0.00788870 0.01339255
v 0.02500000 0.02159660 0.00034675
v 0.02500000 0.02132360 0.00229675
v 0.02500000 0.02103600 0.00326535
v 0.02500000 0.02064950 0.00421845
v 0.02500000 0.01956510 0.00609275
v 0.02500000 0.01612100 0.00957295
v 0.02500000 0.01099760 0.01238145
v 0.02500000 0.01375890 0.01108885
v 0.02500000 0.01805820 0.00789085
v 0.07500000 -0.01651430 -0.00929265
v 0.07500000 -0.01836990 -0.00758505
v 0.07500000 -0.01423140 -0.01084425
v 0.07500000 -0.01154270 -0.01218375
v 0.07500000 -0.01979590 -0.00576975
v 0.07500000 -0.02080150 -0.00388465
v 0.07500000 -0.02139690 -0.00196715
v 0.07500000 -0.02159660 -0.00001365
v 0.07500000 -0.00849440 -0.01325245
v 0.07500000 -0.00516000 -0.01399615
v 0.07500000 -0.00163780 -0.01437205
v 0.07500000 -0.02149320 0.00139355
v 0.07500000 -0.02118410 0.00278725
v 0.07500000 -0.02048720 0.00454205
v 0.07500000 -0.01943620 0.00626375
v 0.07500000 -0.01801890 0.00792375
v 0.07500000 -0.01623090 0.00948505
v 0.07500000 -0.01408000 0.01090455
v 0.07500000 -0.01159140 0.01213585
v 0.07500000 -0.00880880 0.01313345
v 0.07500000 -0.00579450 0.01385785
v 0.07500000 -0.00262660 0.01427925
v 0.07500000 0.00195510 -0.01435475
v 0.07500000 0.00514420 -0.01399985
v 0.07500000 0.00819780 -0.01333715
v 0.07500000 0.01103490 -0.01239405
v 0.07500000 0.01358980 -0.01120835
v 0.07500000 0.01581440 -0.00982455
v 0.07500000 0.01768000 -0.00828935
v 0.07500000 0.01917530 -0.00664685
v 0.07500000 0.02030260 -0.00493535
v 0.07500000 0.02107280 -0.00318565
v 0.07500000 0.02150020 -0.00141985
v 0.07500000 0.00096550 0.01437205
v 0.07500000 0.00274740 0.01426965
v 0.07500000 0.00451050 0.01406935
v 0.07500000 0.00788870 0.01339255
v 0.07500000 0.02159660 0.00034675
v 0.07500000 0.02132360 0.00229675
v 0.07500000 0.02103600 0.00326535
v 0.07500000 0.02064950 0.00421845
v 0.07500000 0.01956510 0.00609275
v 0.07500000 0.01612100 0.00957295
v 0.07500000 0.01099760 0.01238145
v 0.07500000 0.01375890 0.01108885
v 0.07500000 0.01805820 0.00789085
f 48 2 1
f 49 3 4
f 47 1 3
f 51 5 2
f 52 6 5
f 53 7 6
f 54 8 7
f 50 4 9
f 55 9 10
f 56 10 11
f 57 11 23
f 58 12 8
f 59 13 12
f 60 14 13
f 61 15 14
f 62 16 15
f 63 17 16
f 64 18 17
f 65 19 18
f 66 20 19
f 67 21 20
f 68 22 21
f 80 34 22
f 69 23 24
f 70 24 25
f 71 25 26
f 72 26 27
f 73 27 28
f 74 28 29
f 75 29 30
f 76 30 31
f 77 31 32
f 78 32 33
f 79 33 38
f 81 35 34
f 82 36 35
f 83 37 36
f 90 44 37
f 84 38 39
f 85 39 40
f 86 40 41
f 87 41 42
f 88 42 46
f 89 43 45
f 91 45 44
f 92 46 43
f 47 48 1
f 49 4 50
f 47 3 49
f 51 52 5
f 48 51 2
f 52 53 6
f 53 54 7
f 50 9 55
f 55 10 56
f 56 11 57
f 48 61 51
f 52 59 53
f 51 60 52
f 53 58 54
f 47 62 48
f 49 50 64
f 47 49 63
f 50 55 66
f 55 56 67
f 56 57 68
f 54 58 8
f 58 59 12
f 59 60 13
f 60 61 14
f 61 62 15
f 62 63 16
f 63 64 17
f 64 65 18
f 65 66 19
f 66 67 20
f 67 68 21
f 68 80 22
f 53 59 58
f 52 60 59
f 51 61 60
f 48 62 61
f 47 63 62
f 49 64 63
f 50 65 64
f 50 66 65
f 55 67 66
f 56 68 67
f 57 80 68
f 57 23 69
f 69 24 70
f 70 25 71
f 71 26 72
f 72 27 73
f 73 28 74
f 74 29 75
f 75 30 76
f 76 31 77
f 77 32 78
f 78 33 79
f 79 38 84
f 57 69 80
f 69 70 81
f 70 71 83
f 71 72 90
f 72 73 90
f 73 74 91
f 74 75 89
f 75 76 92
f 76 77 88
f 77 78 87
f 78 79 85
f 80 81 34
f 81 82 35
f 82 83 36
f 83 90 37
f 84 39 85
f 85 40 86
f 86 41 87
f 87 42 88
f 89 45 91
f 90 91 44
f 88 46 92
f 89 92 43
f 69 81 80
f 70 82 81
f 70 83 82
f 71 90 83
f 73 91 90
f 74 89 91
f 75 92 89
f 77 87 88
f 79 84 85
f 78 85 86
f 78 86 87
f 76 88 92
f 5 14 2
f 7 12 6
f 6 14 5
f 7 8 12
f 1 2 15
f 3 1 18
f 4 3 45
f 4 45 9
f 13 6 12
f 6 13 14
f 14 15 2
f 15 16 1
f 17 1 16
f 18 1 17
f 3 18 19
f 19 20 3
f 21 3 20
f 22 3 21
f 34 3 22
f 35 3 34
f 35 36 3
f 36 37 3
f 10 45 11
f 9 45 10
f 11 45 23
f 24 23 45
f 24 45 25
f 25 45 26
f 26 45 27
f 27 45 28
f 28 43 29
f 29 43 30
f 30 43 31
f 31 46 32
f 44 3 37
f 45 3 44
f 28 45 43
f 32 42 33
f 33 41 38
f 38 40 39
f 41 40 38
f 33 42 41
f 31 43 46
f 32 46 42