# https://github.com/mikedh/trimesh
v -0.07500000 -0.01651430 -0.00929265
v -0.07500000 -0.01836990 -0.00758505
v -0.07500000 -0.01423140 -0.01084425
v -0.07500000 -0.01154270 -0.01218375
v -0.07500000 -0.01979590 -0.00576975
v -0.07500000 -0.02080150 -0.00388465
v -0.07500000 -0.02139690 -0.00196715
v -0.07500000 -0.02159660 -0.00001365
v -0.07500000 -0.00849440 -0.01325245
v -0.07500000 -0.00516000 -0.01399615
v -0.07500000 -0.00163780 -0.01437205
v -0.07500000 -0.02149320 0.00139355
v -0.07500000 -0.02118410 0.00278725
v -0.07500000 -0.02048720 0.00454205
v -0.07500000 -0.01943620 0.00626375
v -0.07500000 -0.01801890 0.00792375
v -0.07500000 -0.01623090 0.00948505
v -0.07500000 -0.01408000 0.01090455
v -0.07500000 -0.01159140 0.01213585
v -0.07500000 -0.00880880 0.01313345
v -0.07500000 -0.00579450 0.01385785
v -0.07500000 -0.00262660 0.01427925
v -0.07500000 0.00195510 -0.01435475
v -0.07500000 0.00514420 -0.01399985
v -0.07500000 0.00819780 -0.01333715
v -0.07500000 0.01103490 -0.01239405
v -0.07500000 0.01358980 -0.01120835
v -0.07500000 0.01581440 -0.00982455
v -0.07500000 0.01768000 -0.00828935
v -0.07500000 0.01917530 -0.00664685
v -0.07500000 0.02030260 -0.00493535
v -0.07500000 0.02107280 -0.00318565
v -0.07500000 0.02150020 -0.00141985
v -0.07500000 0.00096550 0.01437205
v -0.07500000 0.00274740 0.01426965
v -0.07500000 0.00451050 0.01406935
v -0.07500000 0.00788870 0.01339255
v -0.07500000 0.02159660 0.00034675
v -0.07500000 0.02132360 0.00229675
v -0.07500000 0.02103600 0.00326535
v -0.07500000 0.02064950 0.00421845
v -0.07500000 0.01956510 0.00609275
v -0.07500000 0.01612100 0.00957295
v -0.07500000 0.01099760 0.01238145
v -0.07500000 0.01375890 0.01108885
v -0.07500000 0.01805820 0.00789085
v 0.02500000 -0.01651430 -0.00929265
v 0.02500000 -0.01836990 -0.00758505
v 0.02500000 -0.01423140 -0.01084425
v 0.02500000 -0.01154270 -0.01218375
v 0.02500000 -0.01979590 -0.00576975
v 0.02500000 -0.02080150 -0.00388465
v 0.02500000 -0.02139690 -0.00196715
v 0.02500000 -0.02159660 -0.00001365
v 0.02500000 -0.00849440 -0.01325245
v 0.02500000 -0.00516000 -0.01399615
v 0.02500000 -0.00163780 -0.01437205
v 0.02500000 -0.02149320 0.00139355
v 0.02500000 -0.02118410 0.00278725
v 0.02500000 -0.02048720 0.00454205
v 0.02500000 -0.01943620 0.00626375
v 0.02500000 -0.01801890 0.00792375
v 0.02500000 -0.01623090 0.00948505
v 0.02500000 -0.01408000 0.01090455
v 0.02500000 -0.01159140 0.01213585
v 0.02500000 -0.00880880 0.01313345
v 0.02500000 -0.00579450 0.01385785
v 0.02500000 -0.00262660 0.01427925
v 0.02500000 0.00195510 -0.01435475
v 0.02500000 0.00514420 -0.01399985
v 0.02500000 0.00819780 -0.01333715
v 0.02500000 0.01103490 -0.01239405
v 0.02500000 0.01358980 -0.01120835
v 0.02500000 0.01581440 -0.00982455
v 0.02500000 0.01768000 -0.00828935
v 0.02500000 0.01917530 -0.00664685
v 0.02500000 0.02030260 -0.00493535
v 0.02500000 0.02107280 -0.00318565
v 0.02500000 0.02150020 -0.00141985
v 0.02500000 0.00096550 0.01437205
v 0.02500000 0.00274740 0.01426965
v 0.02500000 0.00451050 0.01406935
v 0.02500000 0.00788870 0.01339255
v 0.02500000 0.02159660 0.00034675
v 0.02500000 0.02132360 0.00229675
v 0.02500000 0.02103600 0.00326535
v 0.02500000 0.02064950 0.00421845
v 0.02500000 0.01956510 0.00609275
v 0.02500000 0.01612100 0.00957295
v 0.02500000 0.01099760 0.01238145
v 0.02500000 0.01375890 0.01108885
v 0.02500000 0.01805820 0.00789085
f 2 5 15
f 6 7 13
f 5 6 14
f 7 8 12
f 1 2 16
f 3 18 4
f 1 17 3
f 4 20 9
f 9 21 10
f 10 22 11
f 1 48 2
f 3 4 49
f 1 3 47
f 2 51 5
f 5 52 6
f 6 53 7
f 7 54 8
f 4 9 50
f 9 10 55
f 10 11 56
f 11 23 57
f 7 12 13
f 6 13 14
f 5 14 15
f 2 15 16
f 1 16 17
f 3 17 18
f 4 18 19
f 4 19 20
f 9 20 21
f 10 21 22
f 11 22 34
f 8 58 12
f 12 59 13
f 13 60 14
f 14 61 15
f 15 62 16
f 16 63 17
f 17 64 18
f 18 65 19
f 19 66 20
f 20 67 21
f 21 68 22
f 22 80 34
f 11 34 23
f 23 35 24
f 24 37 25
f 25 44 26
f 26 44 27
f 27 45 28
f 28 43 29
f 29 46 30
f 30 42 31
f 31 41 32
f 32 39 33
f 23 24 69
f 24 25 70
f 25 26 71
f 26 27 72
f 27 28 73
f 28 29 74
f 29 30 75
f 30 31 76
f 31 32 77
f 32 33 78
f 33 38 79
f 23 34 35
f 24 35 36
f 24 36 37
f 25 37 44
f 27 44 45
f 28 45 43
f 29 43 46
f 31 42 41
f 33 39 38
f 32 40 39
f 32 41 40
f 30 46 42
f 34 81 35
f 35 82 36
f 36 83 37
f 37 90 44
f 38 39 84
f 39 40 85
f 40 41 86
f 41 42 87
f 42 46 88
f 43 45 89
f 44 91 45
f 43 92 46
f 1 47 48
f 4 50 49
f 3 49 47
f 5 51 52
f 2 48 51
f 6 52 53
f 7 53 54
f 9 55 50
f 10 56 55
f 11 57 56
f 8 54 58
f 12 58 59
f 13 59 60
f 14 60 61
f 15 61 62
f 16 62 63
f 17 63 64
f 18 64 65
f 19 65 66
f 20 66 67
f 21 67 68
f 22 68 80
f 23 69 57
f 24 70 69
f 25 71 70
f 26 72 71
f 27 73 72
f 28 74 73
f 29 75 74
f 30 76 75
f 31 77 76
f 32 78 77
f 33 79 78
f 38 84 79
f 34 80 81
f 35 81 82
f 36 82 83
f 37 83 90
f 39 85 84
f 40 86 85
f 41 87 86
f 42 88 87
f 45 91 89
f 44 90 91
f 46 92 88
f 43 89 92
f 53 58 54
f 52 60 53
f 51 61 52
f 48 47 62
f 48 62 51
f 50 64 49
f 50 55 64
f 47 49 63
f 56 64 55
f 57 64 56
f 57 69 64
f 69 70 64
f 71 64 70
f 58 53 59
f 59 53 60
f 61 60 52
f 62 61 51
f 62 47 63
f 63 49 64
f 64 73 65
f 66 65 73
f 66 73 67
f 72 64 71
f 72 73 64
f 74 91 73
f 75 89 74
f 76 92 75
f 77 92 76
f 78 88 77
f 79 87 78
f 67 73 68
f 68 73 80
f 80 73 81
f 81 73 82
f 83 82 73
f 83 73 90
f 90 73 91
f 74 89 91
f 75 92 89
f 84 86 79
f 77 88 92
f 87 88 78
f 86 87 79
f 84 85 86