# https://github.com/mikedh/trimesh
v 0.07758178 -0.00781280 0.00858444 0.26274510 0.77254902 0.45490196
v 0.07758178 -0.00781280 -0.00106449 0.26274510 0.77254902 0.45490196
v 0.07741051 -0.00781280 0.00860147 0.26274510 0.77254902 0.45490196
v 0.07758178 -0.01439641 0.00858444 0.26274510 0.77254902 0.45490196
v 0.07758178 -0.01439641 -0.00106449 0.26274510 0.77254902 0.45490196
v -0.00336216 -0.00781280 -0.00106449 0.26274510 0.77254902 0.45490196
v 0.07741051 -0.01584303 0.00860147 0.26274510 0.77254902 0.45490196
v -0.00382243 -0.00781280 0.00860147 0.26274510 0.77254902 0.45490196
v 0.07738911 -0.01613735 0.00860147 0.26274510 0.77254902 0.45490196
v 0.07737840 -0.01621816 -0.00106449 0.26274510 0.77254902 0.45490196
v -0.03177067 -0.00826375 -0.00106449 0.26274510 0.77254902 0.45490196
v -0.03177067 -0.00822085 -0.00012590 0.26274510 0.77254902 0.45490196
v -0.03177067 -0.00782377 0.00860147 0.26274510 0.77254902 0.45490196
v -0.00340497 -0.00781280 -0.00017226 0.26274510 0.77254902 0.45490196
v -0.00344779 -0.00781280 0.00072565 0.26274510 0.77254902 0.45490196
v 0.07737840 -0.01621816 0.00860147 0.26274510 0.77254902 0.45490196
v 0.07733559 -0.01638776 -0.00106449 0.26274510 0.77254902 0.45490196
v -0.03177067 -0.01800398 -0.00106449 0.26274510 0.77254902 0.45490196
v -0.03177067 -0.01800398 0.00860147 0.26274510 0.77254902 0.45490196
v 0.07728207 -0.01658231 0.00860147 0.26274510 0.77254902 0.45490196
v 0.07728207 -0.01658231 -0.00106449 0.26274510 0.77254902 0.45490196
v -0.01413042 -0.01800398 -0.00106449 0.26274510 0.77254902 0.45490196
v -0.01413042 -0.01800398 0.00860147 0.26274510 0.77254902 0.45490196
v 0.07711080 -0.01692351 0.00860147 0.26274510 0.77254902 0.45490196
v 0.07711080 -0.01692351 -0.00106449 0.26274510 0.77254902 0.45490196
v 0.07513056 -0.01800299 -0.00106449 0.26274510 0.77254902 0.45490196
v 0.07513056 -0.01800299 0.00860147 0.26274510 0.77254902 0.45490196
v 0.07692884 -0.01716494 0.00860147 0.26274510 0.77254902 0.45490196
v 0.07700377 -0.01706717 -0.00106449 0.26274510 0.77254902 0.45490196
v 0.07534464 -0.01798602 -0.00106449 0.26274510 0.77254902 0.45490196
v 0.07552660 -0.01797106 0.00860147 0.26274510 0.77254902 0.45490196
v 0.07687531 -0.01723179 0.00860147 0.26274510 0.77254902 0.45490196
v 0.07687531 -0.01723179 -0.00106449 0.26274510 0.77254902 0.45490196
v 0.07552660 -0.01797106 -0.00106449 0.26274510 0.77254902 0.45490196
v 0.07570858 -0.01792517 -0.00106449 0.26274510 0.77254902 0.45490196
v 0.07590124 -0.01787329 0.00860147 0.26274510 0.77254902 0.45490196
v 0.07682180 -0.01728965 0.00860147 0.26274510 0.77254902 0.45490196
v 0.07673617 -0.01737346 -0.00106449 0.26274510 0.77254902 0.45490196
v 0.07590124 -0.01787329 -0.00106449 0.26274510 0.77254902 0.45490196
v 0.07598688 -0.01783937 0.00860147 0.26274510 0.77254902 0.45490196
v 0.07666124 -0.01744030 0.00860147 0.26274510 0.77254902 0.45490196
v 0.07659702 -0.01749817 0.00860147 0.26274510 0.77254902 0.45490196
v 0.07659702 -0.01749817 -0.00106449 0.26274510 0.77254902 0.45490196
v 0.07609393 -0.01779348 -0.00003601 0.26274510 0.77254902 0.45490196
v 0.07610462 -0.01778849 -0.00106449 0.26274510 0.77254902 0.45490196
v 0.07627589 -0.01771366 0.00860147 0.26274510 0.77254902 0.45490196
v 0.07635082 -0.01766777 0.00860147 0.26274510 0.77254902 0.45490196
v 0.07627589 -0.01771366 -0.00106449 0.26274510 0.77254902 0.45490196
f 1 2 6
f 1 6 14
f 1 14 15
f 1 15 8
f 1 8 3
f 1 3 7
f 1 7 4
f 1 4 5
f 1 5 2
f 2 5 10
f 2 10 17
f 2 17 21
f 2 21 25
f 2 25 29
f 2 29 33
f 2 33 38
f 2 38 43
f 2 43 48
f 2 48 45
f 2 45 39
f 2 39 35
f 2 35 34
f 2 34 30
f 2 30 26
f 2 26 22
f 2 22 18
f 2 18 11
f 2 11 6
f 3 8 13
f 3 13 19
f 3 19 23
f 3 23 27
f 3 27 31
f 3 31 36
f 3 36 40
f 3 40 46
f 3 46 47
f 3 47 42
f 3 42 41
f 3 41 37
f 3 37 32
f 3 32 28
f 3 28 24
f 3 24 20
f 3 20 16
f 3 16 9
f 3 9 7
f 4 7 9
f 4 9 5
f 5 9 10
f 6 11 12
f 6 12 13
f 6 13 14
f 8 15 13
f 9 16 10
f 10 16 17
f 11 18 19
f 11 19 13
f 11 13 12
f 13 15 14
f 16 20 17
f 17 20 21
f 18 22 23
f 18 23 19
f 20 24 25
f 20 25 21
f 22 26 27
f 22 27 23
f 24 28 29
f 24 29 25
f 26 30 27
f 27 30 31
f 28 32 33
f 28 33 29
f 30 34 31
f 31 34 35
f 31 35 36
f 32 37 33
f 33 37 38
f 35 39 36
f 36 39 40
f 37 41 38
f 38 41 42
f 38 42 43
f 39 44 40
f 39 45 44
f 40 44 46
f 42 47 43
f 43 47 48
f 44 45 48
f 44 48 46
f 46 48 47