# https://github.com/mikedh/trimesh
v 0.07512968 0.01800498 -0.00866875 0.56470588 0.92549020 0.07058824
v 0.07552834 0.01797090 -0.00866875 0.56470588 0.92549020 0.07058824
v 0.07512968 0.01800498 -0.01521927 0.56470588 0.92549020 0.07058824
v -0.03264792 0.01800498 -0.00866875 0.56470588 0.92549020 0.07058824
v 0.07561453 0.01794971 -0.00866875 0.56470588 0.92549020 0.07058824
v 0.07552834 0.01797090 -0.01521927 0.56470588 0.92549020 0.07058824
v 0.07552834 0.01793958 -0.01557291 0.56470588 0.92549020 0.07058824
v 0.07512968 0.01797090 -0.01557882 0.56470588 0.92549020 0.07058824
v -0.01776830 0.01797182 -0.01557882 0.56470588 0.92549020 0.07058824
v -0.03264792 0.01797274 -0.01557038 0.56470588 0.92549020 0.07058824
v -0.01776830 0.01800498 -0.01521927 0.56470588 0.92549020 0.07058824
v -0.03264792 0.01800498 -0.01458540 0.56470588 0.92549020 0.07058824
v -0.03264792 0.00861130 -0.00866875 0.56470588 0.92549020 0.07058824
v 0.07590545 0.01787418 -0.00866875 0.56470588 0.92549020 0.07058824
v 0.07590545 0.01787418 -0.01521927 0.56470588 0.92549020 0.07058824
v 0.07590545 0.01784286 -0.01555688 0.56470588 0.92549020 0.07058824
v 0.07590545 0.01775075 -0.01588436 0.56470588 0.92549020 0.07058824
v 0.07552834 0.01784286 -0.01591643 0.56470588 0.92549020 0.07058824
v 0.07512968 0.01787418 -0.01592741 0.56470588 0.92549020 0.07058824
v 0.05665137 0.01795985 -0.01562187 0.56470588 0.92549020 0.07058824
v -0.03264792 0.01796998 -0.01558557 0.56470588 0.92549020 0.07058824
v -0.03264792 0.01800406 -0.01522602 0.56470588 0.92549020 0.07058824
v -0.00298565 0.00859472 -0.00866875 0.56470588 0.92549020 0.07058824
v -0.03264792 0.00890606 -0.01516525 0.56470588 0.92549020 0.07058824
v -0.00114320 0.00859472 -0.01717151 0.56470588 0.92549020 0.07058824
v -0.00118630 0.00859472 -0.01715884 0.56470588 0.92549020 0.07058824
v -0.00149876 0.00859472 -0.01702718 0.56470588 0.92549020 0.07058824
v -0.00153109 0.00859472 -0.01701283 0.56470588 0.92549020 0.07058824
v -0.00182200 0.00859472 -0.01683052 0.56470588 0.92549020 0.07058824
v -0.00210214 0.00859472 -0.01658744 0.56470588 0.92549020 0.07058824
v -0.00223143 0.00859472 -0.01645155 0.56470588 0.92549020 0.07058824
v -0.00243615 0.00859472 -0.01615276 0.56470588 0.92549020 0.07058824
v -0.00257621 0.00859472 -0.01582697 0.56470588 0.92549020 0.07058824
v -0.00261931 0.00859472 -0.01565732 0.56470588 0.92549020 0.07058824
v -0.00265164 0.00859472 -0.01548429 0.56470588 0.92549020 0.07058824
v -0.00267318 0.00859472 -0.01530958 0.56470588 0.92549020 0.07058824
v -0.00268396 0.00859472 -0.01514837 0.56470588 0.92549020 0.07058824
v 0.07600242 0.01783457 -0.00866875 0.56470588 0.92549020 0.07058824
v 0.07627179 0.01771390 -0.01521927 0.56470588 0.92549020 0.07058824
v 0.07627179 0.01768535 -0.01552987 0.56470588 0.92549020 0.07058824
v 0.07627179 0.01760153 -0.01583203 0.56470588 0.92549020 0.07058824
v 0.07590545 0.01760153 -0.01619159 0.56470588 0.92549020 0.07058824
v 0.07552834 0.01768535 -0.01623801 0.56470588 0.92549020 0.07058824
v 0.07512968 0.01771390 -0.01625405 0.56470588 0.92549020 0.07058824
v 0.05665137 0.01773509 -0.01621353 0.56470588 0.92549020 0.07058824
v -0.01776830 0.01787418 -0.01592741 0.56470588 0.92549020 0.07058824
v -0.01776830 0.01788708 -0.01588183 0.56470588 0.92549020 0.07058824
v -0.03264792 0.01794971 -0.01565816 0.56470588 0.92549020 0.07058824
v 0.07742466 0.00859472 -0.00866875 0.56470588 0.92549020 0.07058824
v -0.03264792 0.00891343 -0.01531295 0.56470588 0.92549020 0.07058824
v -0.00077687 0.00859472 -0.01725928 0.56470588 0.92549020 0.07058824
v 0.07627179 0.01771390 -0.00866875 0.56470588 0.92549020 0.07058824
v 0.07659502 0.01749928 -0.01521927 0.56470588 0.92549020 0.07058824
v 0.07659502 0.01747349 -0.01549442 0.56470588 0.92549020 0.07058824
v 0.07659502 0.01739796 -0.01576113 0.56470588 0.92549020 0.07058824
v 0.07659502 0.01727729 -0.01601181 0.56470588 0.92549020 0.07058824
v 0.07627179 0.01746336 -0.01611562 0.56470588 0.92549020 0.07058824
v 0.07627179 0.01727729 -0.01637137 0.56470588 0.92549020 0.07058824
v 0.07590545 0.01739796 -0.01646927 0.56470588 0.92549020 0.07058824
v 0.07552834 0.01747349 -0.01652920 0.56470588 0.92549020 0.07058824
v 0.07512968 0.01749928 -0.01654946 0.56470588 0.92549020 0.07058824
v 0.03817305 0.01766140 -0.01632832 0.56470588 0.92549020 0.07058824
v -0.01776830 0.01771482 -0.01625405 0.56470588 0.92549020 0.07058824
v -0.03264792 0.01771851 -0.01624729 0.56470588 0.92549020 0.07058824
v -0.01725112 0.01773509 -0.01621353 0.56470588 0.92549020 0.07058824
v -0.03264792 0.01783089 -0.01601603 0.56470588 0.92549020 0.07058824
v -0.03264792 0.01787050 -0.01593416 0.56470588 0.92549020 0.07058824
v -0.03264792 0.01787602 -0.01591897 0.56470588 0.92549020 0.07058824
v -0.03264792 0.01790089 -0.01583203 0.56470588 0.92549020 0.07058824
v -0.03264792 0.01794142 -0.01568770 0.56470588 0.92549020 0.07058824
v 0.07742466 0.00859472 -0.01521927 0.56470588 0.92549020 0.07058824
v 0.07742466 0.01584309 -0.00866875 0.56470588 0.92549020 0.07058824
v -0.03264792 0.00892909 -0.01548598 0.56470588 0.92549020 0.07058824
v -0.00073377 0.00859472 -0.01726266 0.56470588 0.92549020 0.07058824
v -0.03264792 0.00896133 -0.01566154 0.56470588 0.92549020 0.07058824
v -0.03264792 0.00900647 -0.01582697 0.56470588 0.92549020 0.07058824
v -0.03264792 0.00907003 -0.01599746 0.56470588 0.92549020 0.07058824
v 0.07659502 0.01749928 -0.00866875 0.56470588 0.92549020 0.07058824
v 0.07682129 0.01729018 -0.00866875 0.56470588 0.92549020 0.07058824
v 0.07687516 0.01723307 -0.01521927 0.56470588 0.92549020 0.07058824
v 0.07687516 0.01721189 -0.01544969 0.56470588 0.92549020 0.07058824
v 0.07687516 0.01714925 -0.01567420 0.56470588 0.92549020 0.07058824
v 0.07659502 0.01711056 -0.01623801 0.56470588 0.92549020 0.07058824
v 0.07687516 0.01704701 -0.01588436 0.56470588 0.92549020 0.07058824
v 0.07687516 0.01690792 -0.01607427 0.56470588 0.92549020 0.07058824
v 0.07659502 0.01690792 -0.01643382 0.56470588 0.92549020 0.07058824
v 0.07627179 0.01704701 -0.01659250 0.56470588 0.92549020 0.07058824
v 0.07590545 0.01714925 -0.01670898 0.56470588 0.92549020 0.07058824
v 0.07552834 0.01721189 -0.01678072 0.56470588 0.92549020 0.07058824
v 0.07512968 0.01723307 -0.01680520 0.56470588 0.92549020 0.07058824
v 0.05665137 0.01746612 -0.01658153 0.56470588 0.92549020 0.07058824
v -0.01776830 0.01749928 -0.01654946 0.56470588 0.92549020 0.07058824
v 0.05665137 0.01752599 -0.01651316 0.56470588 0.92549020 0.07058824
v -0.01725112 0.01752599 -0.01651316 0.56470588 0.92549020 0.07058824
v -0.03264792 0.01771022 -0.01625995 0.56470588 0.92549020 0.07058824
v 0.07739233 0.00859472 -0.01549611 0.56470588 0.92549020 0.07058824
v 0.07742466 0.01584309 -0.01521927 0.56470588 0.92549020 0.07058824
v 0.07739233 0.01613693 -0.00866875 0.56470588 0.92549020 0.07058824
v -0.00038899 0.00859472 -0.01728883 0.56470588 0.92549020 0.07058824
v -0.03264792 0.00914556 -0.01615529 0.56470588 0.92549020 0.07058824
v 0.07687516 0.01723307 -0.00866875 0.56470588 0.92549020 0.07058824
v 0.07705832 0.01700003 -0.00866875 0.56470588 0.92549020 0.07058824
v 0.07711219 0.01692357 -0.01521927 0.56470588 0.92549020 0.07058824
v 0.07711219 0.01690792 -0.01539904 0.56470588 0.92549020 0.07058824
v 0.07711219 0.01685817 -0.01557291 0.56470588 0.92549020 0.07058824
v 0.07711219 0.01677896 -0.01573666 0.56470588 0.92549020 0.07058824
v 0.07711219 0.01667026 -0.01588436 0.56470588 0.92549020 0.07058824
v 0.07711219 0.01653762 -0.01601181 0.56470588 0.92549020 0.07058824
v 0.07687516 0.01673566 -0.01623801 0.56470588 0.92549020 0.07058824
v 0.07687516 0.01653762 -0.01637137 0.56470588 0.92549020 0.07058824
v 0.07659502 0.01667026 -0.01659250 0.56470588 0.92549020 0.07058824
v 0.07627179 0.01677896 -0.01677144 0.56470588 0.92549020 0.07058824
v 0.07590545 0.01685817 -0.01690395 0.56470588 0.92549020 0.07058824
v 0.07552834 0.01690792 -0.01698497 0.56470588 0.92549020 0.07058824
v 0.07512968 0.01692357 -0.01701198 0.56470588 0.92549020 0.07058824
v -0.03264792 0.01702121 -0.01694699 0.56470588 0.92549020 0.07058824
v -0.01776830 0.01723307 -0.01680520 0.56470588 0.92549020 0.07058824
v -0.03264792 0.01730492 -0.01673599 0.56470588 0.92549020 0.07058824
v -0.03264792 0.01749283 -0.01655536 0.56470588 0.92549020 0.07058824
v -0.03264792 0.01750296 -0.01654355 0.56470588 0.92549020 0.07058824
v -0.03264792 0.01754810 -0.01648193 0.56470588 0.92549020 0.07058824
v 0.07738156 0.00859472 -0.01557882 0.56470588 0.92549020 0.07058824
v 0.07738156 0.01584309 -0.01557882 0.56470588 0.92549020 0.07058824
v 0.07738156 0.01590849 -0.01557291 0.56470588 0.92549020 0.07058824
v 0.07738156 0.01597113 -0.01555688 0.56470588 0.92549020 0.07058824
v 0.07738156 0.01603192 -0.01552987 0.56470588 0.92549020 0.07058824
v 0.07738156 0.01608443 -0.01549442 0.56470588 0.92549020 0.07058824
v 0.07738156 0.01613048 -0.01544969 0.56470588 0.92549020 0.07058824
v 0.07738156 0.01616825 -0.01539904 0.56470588 0.92549020 0.07058824
v 0.07738156 0.01619588 -0.01534165 0.56470588 0.92549020 0.07058824
v 0.07738156 0.01621246 -0.01528172 0.56470588 0.92549020 0.07058824
v 0.07738156 0.01621799 -0.01521927 0.56470588 0.92549020 0.07058824
v 0.07738156 0.01621799 -0.00866875 0.56470588 0.92549020 0.07058824
v 0.07512968 0.00859472 -0.01728967 0.56470588 0.92549020 0.07058824
v -0.03264792 0.00923122 -0.01630216 0.56470588 0.92549020 0.07058824
v -0.03264792 0.00933807 -0.01645492 0.56470588 0.92549020 0.07058824
v -0.03264792 0.00944769 -0.01658406 0.56470588 0.92549020 0.07058824
v -0.03264792 0.00945782 -0.01659503 0.56470588 0.92549020 0.07058824
v -0.03264792 0.00971574 -0.01683052 0.56470588 0.92549020 0.07058824
v -0.03264792 0.01001879 -0.01702718 0.56470588 0.92549020 0.07058824
v -0.03264792 0.01035316 -0.01717151 0.56470588 0.92549020 0.07058824
v -0.03264792 0.01070687 -0.01725928 0.56470588 0.92549020 0.07058824
v -0.03264792 0.01073082 -0.01726182 0.56470588 0.92549020 0.07058824
v -0.03264792 0.01107164 -0.01728967 0.56470588 0.92549020 0.07058824
v 0.07711219 0.01692357 -0.00866875 0.56470588 0.92549020 0.07058824
v 0.07728459 0.01658183 -0.01521927 0.56470588 0.92549020 0.07058824
v 0.07728459 0.01657078 -0.01534165 0.56470588 0.92549020 0.07058824
v 0.07728459 0.01653762 -0.01546150 0.56470588 0.92549020 0.07058824
v 0.07728459 0.01648420 -0.01557291 0.56470588 0.92549020 0.07058824
v 0.07728459 0.01640866 -0.01567420 0.56470588 0.92549020 0.07058824
v 0.07728459 0.01631839 -0.01576113 0.56470588 0.92549020 0.07058824
v 0.07711219 0.01638287 -0.01611562 0.56470588 0.92549020 0.07058824
v 0.07687516 0.01631839 -0.01646927 0.56470588 0.92549020 0.07058824
v 0.07659502 0.01640866 -0.01670898 0.56470588 0.92549020 0.07058824
v 0.07627179 0.01648420 -0.01690395 0.56470588 0.92549020 0.07058824
v 0.07590545 0.01653762 -0.01704743 0.56470588 0.92549020 0.07058824
v 0.07552834 0.01657078 -0.01713521 0.56470588 0.92549020 0.07058824
v 0.07512968 0.01658183 -0.01716475 0.56470588 0.92549020 0.07058824
v 0.05665137 0.01679554 -0.01706938 0.56470588 0.92549020 0.07058824
v -0.03264792 0.01691621 -0.01701536 0.56470588 0.92549020 0.07058824
v -0.01776830 0.01692357 -0.01701198 0.56470588 0.92549020 0.07058824
v -0.03264792 0.01699450 -0.01696472 0.56470588 0.92549020 0.07058824
v -0.03264792 0.01716215 -0.01685246 0.56470588 0.92549020 0.07058824
v -0.03264792 0.01722570 -0.01680942 0.56470588 0.92549020 0.07058824
v -0.03264792 0.01723860 -0.01679929 0.56470588 0.92549020 0.07058824
v 0.07728459 0.00859472 -0.01592741 0.56470588 0.92549020 0.07058824
v 0.07728459 0.01584309 -0.01592741 0.56470588 0.92549020 0.07058824
v 0.07728459 0.01597113 -0.01591643 0.56470588 0.92549020 0.07058824
v 0.07728459 0.01609640 -0.01588436 0.56470588 0.92549020 0.07058824
v 0.07728459 0.01621246 -0.01583203 0.56470588 0.92549020 0.07058824
v 0.07728459 0.01658183 -0.00866875 0.56470588 0.92549020 0.07058824
v -0.01776830 0.01584309 -0.01728967 0.56470588 0.92549020 0.07058824
v 0.07512968 0.01584309 -0.01728883 0.56470588 0.92549020 0.07058824
v 0.07552834 0.01584309 -0.01725760 0.56470588 0.92549020 0.07058824
v 0.07552834 0.00859472 -0.01725760 0.56470588 0.92549020 0.07058824
v -0.03264792 0.01558057 -0.01728967 0.56470588 0.92549020 0.07058824
v 0.07711219 0.01621246 -0.01619159 0.56470588 0.92549020 0.07058824
v 0.07687516 0.01608443 -0.01652920 0.56470588 0.92549020 0.07058824
v 0.07659502 0.01613048 -0.01678072 0.56470588 0.92549020 0.07058824
v 0.07711219 0.01603192 -0.01623801 0.56470588 0.92549020 0.07058824
v 0.07627179 0.01616825 -0.01698497 0.56470588 0.92549020 0.07058824
v 0.07590545 0.01619588 -0.01713521 0.56470588 0.92549020 0.07058824
v 0.07552834 0.01621246 -0.01722721 0.56470588 0.92549020 0.07058824
v 0.07512968 0.01621799 -0.01725760 0.56470588 0.92549020 0.07058824
v 0.03817305 0.01630918 -0.01723481 0.56470588 0.92549020 0.07058824
v -0.01776830 0.01658276 -0.01716475 0.56470588 0.92549020 0.07058824
v -0.03264792 0.01659012 -0.01716138 0.56470588 0.92549020 0.07058824
v -0.03264792 0.01693002 -0.01700692 0.56470588 0.92549020 0.07058824
v 0.07711219 0.00859472 -0.01625405 0.56470588 0.92549020 0.07058824
v 0.07711219 0.01584309 -0.01625405 0.56470588 0.92549020 0.07058824
v -0.03264792 0.01585138 -0.01728883 0.56470588 0.92549020 0.07058824
v -0.03264792 0.01613325 -0.01726519 0.56470588 0.92549020 0.07058824
v -0.01725112 0.01598402 -0.01727785 0.56470588 0.92549020 0.07058824
v 0.01970551 0.01598402 -0.01727785 0.56470588 0.92549020 0.07058824
v 0.05665137 0.01589007 -0.01728545 0.56470588 0.92549020 0.07058824
v 0.07590545 0.01584309 -0.01716475 0.56470588 0.92549020 0.07058824
v 0.07583002 0.00859472 -0.01718585 0.56470588 0.92549020 0.07058824
v 0.07687516 0.01584309 -0.01654946 0.56470588 0.92549020 0.07058824
v 0.07659502 0.01584309 -0.01680520 0.56470588 0.92549020 0.07058824
v 0.07627179 0.01584309 -0.01701198 0.56470588 0.92549020 0.07058824
v 0.03817305 0.01612403 -0.01726604 0.56470588 0.92549020 0.07058824
v -0.01776830 0.01617377 -0.01726182 0.56470588 0.92549020 0.07058824
v -0.03264792 0.01621154 -0.01725844 0.56470588 0.92549020 0.07058824
v -0.01776830 0.01621891 -0.01725760 0.56470588 0.92549020 0.07058824
v -0.03264792 0.01622720 -0.01725591 0.56470588 0.92549020 0.07058824
v -0.03264792 0.01648420 -0.01719007 0.56470588 0.92549020 0.07058824
v -0.03264792 0.01657447 -0.01716644 0.56470588 0.92549020 0.07058824
v 0.07693980 0.00859472 -0.01648193 0.56470588 0.92549020 0.07058824
v 0.07590545 0.00859472 -0.01716475 0.56470588 0.92549020 0.07058824
v 0.07687516 0.00859472 -0.01654946 0.56470588 0.92549020 0.07058824
v 0.07659502 0.00859472 -0.01680520 0.56470588 0.92549020 0.07058824
v 0.07627179 0.00859472 -0.01701198 0.56470588 0.92549020 0.07058824
f 1 2 6
f 1 6 3
f 1 3 11
f 1 11 12
f 1 12 4
f 1 4 13
f 1 13 23
f 1 23 49
f 1 49 72
f 1 72 98
f 1 98 133
f 1 133 171
f 1 171 145
f 1 145 102
f 1 102 101
f 1 101 79
f 1 79 78
f 1 78 52
f 1 52 38
f 1 38 14
f 1 14 5
f 1 5 2
f 2 5 6
f 3 6 7
f 3 7 8
f 3 8 9
f 3 9 10
f 3 10 11
f 4 12 22
f 4 22 10
f 4 10 21
f 4 21 48
f 4 48 70
f 4 70 69
f 4 69 68
f 4 68 67
f 4 67 66
f 4 66 64
f 4 64 95
f 4 95 121
f 4 121 120
f 4 120 119
f 4 119 118
f 4 118 165
f 4 165 164
f 4 164 163
f 4 163 116
f 4 116 162
f 4 162 188
f 4 188 160
f 4 160 187
f 4 187 207
f 4 207 206
f 4 206 205
f 4 205 203
f 4 203 192
f 4 192 191
f 4 191 176
f 4 176 144
f 4 144 143
f 4 143 142
f 4 142 141
f 4 141 140
f 4 140 139
f 4 139 138
f 4 138 137
f 4 137 136
f 4 136 135
f 4 135 100
f 4 100 77
f 4 77 76
f 4 76 75
f 4 75 73
f 4 73 50
f 4 50 24
f 4 24 13
f 5 14 15
f 5 15 6
f 6 15 7
f 7 15 16
f 7 16 17
f 7 17 18
f 7 18 19
f 7 19 8
f 8 19 20
f 8 20 9
f 9 21 10
f 9 20 21
f 10 22 11
f 11 22 12
f 13 24 25
f 13 25 26
f 13 26 27
f 13 27 28
f 13 28 29
f 13 29 30
f 13 30 31
f 13 31 32
f 13 32 33
f 13 33 34
f 13 34 35
f 13 35 36
f 13 36 37
f 13 37 23
f 14 38 15
f 15 38 39
f 15 39 40
f 15 40 16
f 16 40 41
f 16 41 17
f 17 42 18
f 17 41 42
f 18 42 43
f 18 43 19
f 19 43 44
f 19 44 45
f 19 45 65
f 19 65 46
f 19 46 47
f 19 47 20
f 20 47 48
f 20 48 21
f 23 37 36
f 23 36 35
f 23 35 34
f 23 34 33
f 23 33 32
f 23 32 31
f 23 31 30
f 23 30 29
f 23 29 28
f 23 28 27
f 23 27 26
f 23 26 25
f 23 25 51
f 23 51 74
f 23 74 99
f 23 99 134
f 23 134 175
f 23 175 197
f 23 197 209
f 23 209 212
f 23 212 211
f 23 211 210
f 23 210 208
f 23 208 189
f 23 189 166
f 23 166 122
f 23 122 96
f 23 96 71
f 23 71 49
f 24 50 25
f 25 50 51
f 38 52 39
f 39 52 78
f 39 78 53
f 39 53 40
f 40 53 54
f 40 54 41
f 41 54 55
f 41 55 56
f 41 56 57
f 41 57 42
f 42 57 58
f 42 58 59
f 42 59 60
f 42 60 43
f 43 60 61
f 43 61 44
f 44 61 62
f 44 62 63
f 44 63 64
f 44 64 45
f 45 64 65
f 46 65 64
f 46 64 66
f 46 66 67
f 46 67 68
f 46 68 69
f 46 69 47
f 47 69 70
f 47 70 48
f 49 71 97
f 49 97 72
f 50 73 51
f 51 73 75
f 51 75 76
f 51 76 77
f 51 77 74
f 53 78 79
f 53 79 80
f 53 80 81
f 53 81 54
f 54 81 82
f 54 82 55
f 55 82 56
f 56 83 58
f 56 58 57
f 56 82 84
f 56 84 85
f 56 85 83
f 58 83 86
f 58 86 87
f 58 87 88
f 58 88 59
f 59 88 60
f 60 88 89
f 60 89 61
f 61 89 90
f 61 90 91
f 61 91 92
f 61 92 94
f 61 94 93
f 61 93 62
f 62 93 94
f 62 94 63
f 63 94 95
f 63 95 64
f 71 96 97
f 72 97 98
f 74 77 99
f 77 100 99
f 79 101 80
f 80 101 102
f 80 102 103
f 80 103 104
f 80 104 81
f 81 104 82
f 82 104 105
f 82 105 106
f 82 106 84
f 83 85 86
f 84 106 85
f 85 106 107
f 85 107 108
f 85 108 109
f 85 109 86
f 86 109 110
f 86 110 111
f 86 111 87
f 87 111 112
f 87 112 113
f 87 113 88
f 88 113 114
f 88 114 89
f 89 114 90
f 90 114 115
f 90 115 116
f 90 116 117
f 90 117 91
f 91 117 92
f 92 117 118
f 92 118 119
f 92 119 120
f 92 120 94
f 94 120 121
f 94 121 95
f 96 122 123
f 96 123 97
f 97 123 124
f 97 124 125
f 97 125 126
f 97 126 127
f 97 127 128
f 97 128 129
f 97 129 130
f 97 130 131
f 97 131 132
f 97 132 98
f 98 132 133
f 99 100 135
f 99 135 136
f 99 136 137
f 99 137 138
f 99 138 139
f 99 139 140
f 99 140 141
f 99 141 142
f 99 142 143
f 99 143 144
f 99 144 134
f 102 145 103
f 103 145 171
f 103 171 146
f 103 146 104
f 104 146 147
f 104 147 148
f 104 148 105
f 105 148 149
f 105 149 106
f 106 149 107
f 107 149 150
f 107 150 151
f 107 151 108
f 108 152 110
f 108 110 109
f 108 151 152
f 110 152 153
f 110 153 111
f 111 153 154
f 111 154 155
f 111 155 112
f 112 155 113
f 113 156 114
f 113 155 156
f 114 156 157
f 114 157 158
f 114 158 115
f 115 158 159
f 115 159 160
f 115 160 161
f 115 161 116
f 116 163 117
f 116 161 162
f 117 163 164
f 117 164 165
f 117 165 118
f 122 166 167
f 122 167 123
f 123 167 168
f 123 168 124
f 124 168 169
f 124 169 125
f 125 169 126
f 126 169 170
f 126 170 151
f 126 151 127
f 127 151 150
f 127 150 128
f 128 150 149
f 128 149 129
f 129 149 130
f 130 149 148
f 130 148 147
f 130 147 131
f 131 147 146
f 131 146 132
f 132 146 171
f 132 171 133
f 134 144 176
f 134 176 172
f 134 172 173
f 134 173 174
f 134 174 175
f 151 170 152
f 152 170 169
f 152 169 177
f 152 177 153
f 153 178 179
f 153 179 154
f 153 177 180
f 153 180 178
f 154 179 155
f 155 179 181
f 155 181 182
f 155 182 156
f 156 182 157
f 157 182 183
f 157 183 158
f 158 183 184
f 158 184 185
f 158 185 186
f 158 186 159
f 159 186 160
f 160 186 187
f 160 188 161
f 161 188 162
f 166 189 190
f 166 190 167
f 167 190 180
f 167 180 168
f 168 180 169
f 169 180 177
f 172 176 191
f 172 191 192
f 172 192 193
f 172 193 194
f 172 194 195
f 172 195 173
f 173 195 184
f 173 184 183
f 173 183 174
f 174 183 196
f 174 196 197
f 174 197 175
f 178 198 199
f 178 199 179
f 178 180 190
f 178 190 198
f 179 199 181
f 181 199 200
f 181 200 196
f 181 196 182
f 182 196 183
f 184 195 201
f 184 201 202
f 184 202 203
f 184 203 204
f 184 204 205
f 184 205 185
f 185 205 206
f 185 206 186
f 186 206 207
f 186 207 187
f 189 208 190
f 190 208 198
f 192 203 202
f 192 202 193
f 193 202 201
f 193 201 194
f 194 201 195
f 196 209 197
f 196 200 212
f 196 212 209
f 198 208 210
f 198 210 211
f 198 211 199
f 199 211 212
f 199 212 200
f 203 205 204