# https://github.com/mikedh/trimesh
v 0.07513324 0.01800498 -0.00106523 0.31372549 0.36078431 0.56862745
v 0.07552895 0.01797143 -0.00106523 0.31372549 0.36078431 0.56862745
v 0.07522317 0.01799786 -0.00866706 0.31372549 0.36078431 0.56862745
v 0.07513324 0.01800498 -0.00866706 0.31372549 0.36078431 0.56862745
v -0.01435890 0.01800498 -0.00106523 0.31372549 0.36078431 0.56862745
v 0.07570881 0.01792671 -0.00106523 0.31372549 0.36078431 0.56862745
v 0.07562788 0.01794805 -0.00866706 0.31372549 0.36078431 0.56862745
v 0.07552895 0.01797143 -0.00866706 0.31372549 0.36078431 0.56862745
v 0.07544801 0.01797855 -0.00866706 0.31372549 0.36078431 0.56862745
v -0.01435890 0.01800498 -0.00866706 0.31372549 0.36078431 0.56862745
v -0.01435890 0.00826326 -0.00106523 0.31372549 0.36078431 0.56862745
v 0.07591566 0.01787384 -0.00106523 0.31372549 0.36078431 0.56862745
v 0.07583472 0.01789519 -0.00866706 0.31372549 0.36078431 0.56862745
v -0.01435890 0.00860991 -0.00866706 0.31372549 0.36078431 0.56862745
v -0.00336012 0.00761978 -0.00106523 0.31372549 0.36078431 0.56862745
v -0.01435890 0.00844726 -0.00510243 0.31372549 0.36078431 0.56862745
v -0.00300039 0.00761978 -0.00866706 0.31372549 0.36078431 0.56862745
v 0.07608653 0.01779964 -0.00106523 0.31372549 0.36078431 0.56862745
v 0.07599659 0.01784030 -0.00866706 0.31372549 0.36078431 0.56862745
v 0.07591566 0.01787384 -0.00866706 0.31372549 0.36078431 0.56862745
v 0.07751646 0.00761978 -0.00106523 0.31372549 0.36078431 0.56862745
v 0.07194962 0.00761978 -0.00866706 0.31372549 0.36078431 0.56862745
v 0.07620344 0.01774982 -0.00866706 0.31372549 0.36078431 0.56862745
v 0.07627539 0.01771526 -0.00106523 0.31372549 0.36078431 0.56862745
v 0.07751646 0.00761978 -0.00865962 0.31372549 0.36078431 0.56862745
v 0.07751646 0.01439923 -0.00106523 0.31372549 0.36078431 0.56862745
v 0.07741754 0.01439517 -0.00866706 0.31372549 0.36078431 0.56862745
v 0.07741754 0.00761978 -0.00866483 0.31372549 0.36078431 0.56862745
v 0.07627539 0.01771526 -0.00866706 0.31372549 0.36078431 0.56862745
v 0.07645526 0.01759937 -0.00106523 0.31372549 0.36078431 0.56862745
v 0.07751646 0.01439923 -0.00865962 0.31372549 0.36078431 0.56862745
v 0.07741754 0.01584377 -0.00106523 0.31372549 0.36078431 0.56862745
v 0.07741754 0.01584377 -0.00866706 0.31372549 0.36078431 0.56862745
v 0.07652720 0.01755261 -0.00866706 0.31372549 0.36078431 0.56862745
v 0.07659915 0.01749873 -0.00106523 0.31372549 0.36078431 0.56862745
v 0.07739955 0.01604403 -0.00106523 0.31372549 0.36078431 0.56862745
v 0.07739056 0.01613857 -0.00866706 0.31372549 0.36078431 0.56862745
v 0.07659915 0.01749873 -0.00866706 0.31372549 0.36078431 0.56862745
v 0.07673405 0.01737471 -0.00106523 0.31372549 0.36078431 0.56862745
v 0.07666210 0.01744180 -0.00866706 0.31372549 0.36078431 0.56862745
v 0.07738156 0.01621888 -0.00106523 0.31372549 0.36078431 0.56862745
v 0.07738156 0.01621888 -0.00866706 0.31372549 0.36078431 0.56862745
v 0.07688693 0.01723239 -0.00106523 0.31372549 0.36078431 0.56862745
v 0.07688693 0.01723239 -0.00866706 0.31372549 0.36078431 0.56862745
v 0.07736358 0.01630935 -0.00866706 0.31372549 0.36078431 0.56862745
v 0.07733660 0.01638865 -0.00106523 0.31372549 0.36078431 0.56862745
v 0.07699485 0.01708906 -0.00106523 0.31372549 0.36078431 0.56862745
v 0.07706680 0.01699045 -0.00866706 0.31372549 0.36078431 0.56862745
v 0.07728263 0.01658281 -0.00866706 0.31372549 0.36078431 0.56862745
v 0.07728263 0.01658281 -0.00106523 0.31372549 0.36078431 0.56862745
v 0.07711176 0.01692437 -0.00106523 0.31372549 0.36078431 0.56862745
v 0.07711176 0.01692437 -0.00866706 0.31372549 0.36078431 0.56862745
v 0.07724666 0.01665600 -0.00866706 0.31372549 0.36078431 0.56862745
v 0.07719270 0.01676477 -0.00106523 0.31372549 0.36078431 0.56862745
f 1 2 3
f 1 3 4
f 1 4 10
f 1 10 5
f 1 5 11
f 1 11 15
f 1 15 21
f 1 21 26
f 1 26 32
f 1 32 36
f 1 36 41
f 1 41 46
f 1 46 50
f 1 50 54
f 1 54 51
f 1 51 47
f 1 47 43
f 1 43 39
f 1 39 35
f 1 35 30
f 1 30 24
f 1 24 18
f 1 18 12
f 1 12 6
f 1 6 2
f 2 6 7
f 2 7 8
f 2 8 9
f 2 9 3
f 3 9 8
f 3 8 7
f 3 7 13
f 3 13 20
f 3 20 19
f 3 19 23
f 3 23 29
f 3 29 34
f 3 34 38
f 3 38 40
f 3 40 44
f 3 44 48
f 3 48 52
f 3 52 53
f 3 53 49
f 3 49 45
f 3 45 42
f 3 42 37
f 3 37 33
f 3 33 27
f 3 27 22
f 3 22 17
f 3 17 14
f 3 14 10
f 3 10 4
f 5 10 14
f 5 14 16
f 5 16 11
f 6 12 13
f 6 13 7
f 11 16 17
f 11 17 15
f 12 18 19
f 12 19 20
f 12 20 13
f 14 17 16
f 15 17 22
f 15 22 28
f 15 28 25
f 15 25 21
f 18 23 19
f 18 24 23
f 21 25 31
f 21 31 26
f 22 27 28
f 23 24 29
f 24 30 29
f 25 27 33
f 25 33 31
f 25 28 27
f 26 31 33
f 26 33 32
f 29 30 34
f 30 35 34
f 32 33 36
f 33 37 36
f 34 35 38
f 35 39 40
f 35 40 38
f 36 37 41
f 37 42 41
f 39 43 40
f 40 43 44
f 41 42 45
f 41 45 46
f 43 47 44
f 44 47 48
f 45 49 50
f 45 50 46
f 47 51 48
f 48 51 52
f 49 53 50
f 50 53 54
f 51 54 52
f 52 54 53