# https://github.com/mikedh/trimesh
v -0.03264335 -0.00768769 -0.00866791 0.54117647 0.42352941 0.64313725
v -0.03295579 -0.00768769 -0.01530959 0.54117647 0.42352941 0.64313725
v -0.07456978 -0.00768769 -0.00866791 0.54117647 0.42352941 0.64313725
v 0.07742467 -0.00859662 -0.00866791 0.54117647 0.42352941 0.64313725
v 0.07742467 -0.00859662 -0.01521928 0.54117647 0.42352941 0.64313725
v -0.03298556 -0.00768769 -0.01548430 0.54117647 0.42352941 0.64313725
v 0.07739491 -0.00859662 -0.01549612 0.54117647 0.42352941 0.64313725
v -0.07456978 -0.00768769 -0.01637560 0.54117647 0.42352941 0.64313725
v -0.07456978 -0.01704960 -0.00866791 0.54117647 0.42352941 0.64313725
v 0.07742467 -0.01584376 -0.00866791 0.54117647 0.42352941 0.64313725
v 0.07742467 -0.01584376 -0.01521928 0.54117647 0.42352941 0.64313725
v -0.03301531 -0.00768769 -0.01565733 0.54117647 0.42352941 0.64313725
v 0.07738003 -0.01584376 -0.01557884 0.54117647 0.42352941 0.64313725
v 0.07738003 -0.00859662 -0.01557884 0.54117647 0.42352941 0.64313725
v -0.07449539 -0.00768769 -0.01647351 0.54117647 0.42352941 0.64313725
v -0.07456978 -0.01584275 -0.01637560 0.54117647 0.42352941 0.64313725
v -0.07443588 -0.01723139 -0.00866791 0.54117647 0.42352941 0.64313725
v -0.07456978 -0.01704960 -0.01521928 0.54117647 0.42352941 0.64313725
v 0.07739491 -0.01613765 -0.00866791 0.54117647 0.42352941 0.64313725
v 0.07738003 -0.01621844 -0.01521928 0.54117647 0.42352941 0.64313725
v 0.07738003 -0.01621339 -0.01528174 0.54117647 0.42352941 0.64313725
v 0.07738003 -0.01619521 -0.01534166 0.54117647 0.42352941 0.64313725
v 0.07738003 -0.01616795 -0.01539906 0.54117647 0.42352941 0.64313725
v 0.07738003 -0.01613159 -0.01544970 0.54117647 0.42352941 0.64313725
v 0.07738003 -0.01608412 -0.01549443 0.54117647 0.42352941 0.64313725
v 0.07738003 -0.01603060 -0.01552988 0.54117647 0.42352941 0.64313725
v 0.07738003 -0.01597202 -0.01555689 0.54117647 0.42352941 0.64313725
v 0.07738003 -0.01590840 -0.01557293 0.54117647 0.42352941 0.64313725
v -0.03305994 -0.00768769 -0.01582698 0.54117647 0.42352941 0.64313725
v 0.07727588 -0.01597202 -0.01591645 0.54117647 0.42352941 0.64313725
v 0.07727588 -0.01584376 -0.01592742 0.54117647 0.42352941 0.64313725
v 0.07727588 -0.00859662 -0.01592742 0.54117647 0.42352941 0.64313725
v -0.07443588 -0.00768769 -0.01654947 0.54117647 0.42352941 0.64313725
v -0.07443588 -0.01584275 -0.01654947 0.54117647 0.42352941 0.64313725
v -0.07456978 -0.01594879 -0.01636294 0.54117647 0.42352941 0.64313725
v -0.07415320 -0.01749800 -0.00866791 0.54117647 0.42352941 0.64313725
v -0.07443588 -0.01723139 -0.01521928 0.54117647 0.42352941 0.64313725
v -0.07456978 -0.01699305 -0.01557884 0.54117647 0.42352941 0.64313725
v 0.07738003 -0.01621844 -0.00866791 0.54117647 0.42352941 0.64313725
v 0.07727588 -0.01658201 -0.01521928 0.54117647 0.42352941 0.64313725
v 0.07727588 -0.01657090 -0.01534166 0.54117647 0.42352941 0.64313725
v 0.07727588 -0.01653859 -0.01546151 0.54117647 0.42352941 0.64313725
v 0.07727588 -0.01648304 -0.01557293 0.54117647 0.42352941 0.64313725
v 0.07727588 -0.01640932 -0.01567421 0.54117647 0.42352941 0.64313725
v 0.07727588 -0.01631842 -0.01576115 0.54117647 0.42352941 0.64313725
v 0.07727588 -0.01621339 -0.01583204 0.54117647 0.42352941 0.64313725
v 0.07727588 -0.01609624 -0.01588437 0.54117647 0.42352941 0.64313725
v -0.03311945 -0.00768769 -0.01597975 0.54117647 0.42352941 0.64313725
v 0.07711223 -0.01621339 -0.01619160 0.54117647 0.42352941 0.64313725
v 0.07711223 -0.01603060 -0.01623802 0.54117647 0.42352941 0.64313725
v 0.07711223 -0.01584376 -0.01625406 0.54117647 0.42352941 0.64313725
v 0.07724613 -0.00859662 -0.01600169 0.54117647 0.42352941 0.64313725
v -0.07422759 -0.00768769 -0.01673938 0.54117647 0.42352941 0.64313725
v -0.07415320 -0.01584275 -0.01680521 0.54117647 0.42352941 0.64313725
v -0.07440613 -0.01613058 -0.01654947 0.54117647 0.42352941 0.64313725
v -0.07456978 -0.01615785 -0.01633762 0.54117647 0.42352941 0.64313725
v -0.07415320 -0.01749800 -0.01521928 0.54117647 0.42352941 0.64313725
v -0.07390027 -0.01766767 -0.00866791 0.54117647 0.42352941 0.64313725
v -0.07440613 -0.01721018 -0.01557884 0.54117647 0.42352941 0.64313725
v -0.07456978 -0.01695770 -0.01565142 0.54117647 0.42352941 0.64313725
v 0.07727588 -0.01658201 -0.00866791 0.54117647 0.42352941 0.64313725
v 0.07711223 -0.01692437 -0.01521928 0.54117647 0.42352941 0.64313725
v 0.07711223 -0.01690720 -0.01539906 0.54117647 0.42352941 0.64313725
v 0.07711223 -0.01685873 -0.01557293 0.54117647 0.42352941 0.64313725
v 0.07711223 -0.01677894 -0.01573667 0.54117647 0.42352941 0.64313725
v 0.07711223 -0.01667088 -0.01588437 0.54117647 0.42352941 0.64313725
v 0.07711223 -0.01653859 -0.01601182 0.54117647 0.42352941 0.64313725
v 0.07711223 -0.01638306 -0.01611564 0.54117647 0.42352941 0.64313725
v -0.03320873 -0.00768769 -0.01615278 0.54117647 0.42352941 0.64313725
v 0.07687418 -0.01653859 -0.01637138 0.54117647 0.42352941 0.64313725
v 0.07687418 -0.01631842 -0.01646929 0.54117647 0.42352941 0.64313725
v 0.07687418 -0.01608412 -0.01652921 0.54117647 0.42352941 0.64313725
v 0.07687418 -0.01584376 -0.01654947 0.54117647 0.42352941 0.64313725
v 0.07693369 -0.00859662 -0.01648195 0.54117647 0.42352941 0.64313725
v 0.07711223 -0.00859662 -0.01625406 0.54117647 0.42352941 0.64313725
v -0.07415320 -0.00768769 -0.01680521 0.54117647 0.42352941 0.64313725
v -0.07382587 -0.01584275 -0.01701200 0.54117647 0.42352941 0.64313725
v -0.07381100 -0.01603060 -0.01701200 0.54117647 0.42352941 0.64313725
v -0.07412343 -0.01608412 -0.01680521 0.54117647 0.42352941 0.64313725
v -0.07456978 -0.01639215 -0.01625406 0.54117647 0.42352941 0.64313725
v -0.07406392 -0.01631842 -0.01680521 0.54117647 0.42352941 0.64313725
v -0.07431685 -0.01640932 -0.01654947 0.54117647 0.42352941 0.64313725
v -0.07412343 -0.01747275 -0.01557884 0.54117647 0.42352941 0.64313725
v -0.07381100 -0.01768585 -0.01557884 0.54117647 0.42352941 0.64313725
v -0.07382587 -0.01771412 -0.01521928 0.54117647 0.42352941 0.64313725
v -0.07382587 -0.01771412 -0.00866791 0.54117647 0.42352941 0.64313725
v -0.07456978 -0.01687186 -0.01582698 0.54117647 0.42352941 0.64313725
v -0.07431685 -0.01714756 -0.01592742 0.54117647 0.42352941 0.64313725
v -0.07406392 -0.01739802 -0.01592742 0.54117647 0.42352941 0.64313725
v 0.07711223 -0.01692437 -0.00866791 0.54117647 0.42352941 0.64313725
v 0.07687418 -0.01723240 -0.01521928 0.54117647 0.42352941 0.64313725
v 0.07687418 -0.01721119 -0.01544970 0.54117647 0.42352941 0.64313725
v 0.07687418 -0.01714857 -0.01567421 0.54117647 0.42352941 0.64313725
v 0.07687418 -0.01704556 -0.01588437 0.54117647 0.42352941 0.64313725
v 0.07687418 -0.01690720 -0.01607428 0.54117647 0.42352941 0.64313725
v 0.07687418 -0.01673653 -0.01623802 0.54117647 0.42352941 0.64313725
v -0.03329799 -0.00768769 -0.01630555 0.54117647 0.42352941 0.64313725
v 0.07659149 -0.01690720 -0.01643384 0.54117647 0.42352941 0.64313725
v 0.07659149 -0.01667088 -0.01659252 0.54117647 0.42352941 0.64313725
v 0.07659149 -0.01640932 -0.01670899 0.54117647 0.42352941 0.64313725
v 0.07659149 -0.01613159 -0.01678074 0.54117647 0.42352941 0.64313725
v 0.07659149 -0.01584376 -0.01680521 0.54117647 0.42352941 0.64313725
v 0.07666588 -0.00859662 -0.01674613 0.54117647 0.42352941 0.64313725
v 0.07687418 -0.00859662 -0.01654947 0.54117647 0.42352941 0.64313725
v -0.03353604 -0.00768769 -0.01658745 0.54117647 0.42352941 0.64313725
v -0.03341702 -0.00768769 -0.01645156 0.54117647 0.42352941 0.64313725
v -0.07382587 -0.00768769 -0.01701200 0.54117647 0.42352941 0.64313725
v -0.07346880 -0.01584275 -0.01716477 0.54117647 0.42352941 0.64313725
v -0.07345393 -0.01597101 -0.01716477 0.54117647 0.42352941 0.64313725
v -0.07375149 -0.01621238 -0.01701200 0.54117647 0.42352941 0.64313725
v -0.07456978 -0.01649213 -0.01620089 0.54117647 0.42352941 0.64313725
v -0.07454002 -0.01648304 -0.01625406 0.54117647 0.42352941 0.64313725
v -0.07394490 -0.01653758 -0.01680521 0.54117647 0.42352941 0.64313725
v -0.07419783 -0.01667088 -0.01654947 0.54117647 0.42352941 0.64313725
v -0.07366222 -0.01638306 -0.01701200 0.54117647 0.42352941 0.64313725
v -0.07375149 -0.01760101 -0.01592742 0.54117647 0.42352941 0.64313725
v -0.07345393 -0.01784238 -0.01557884 0.54117647 0.42352941 0.64313725
v -0.07346880 -0.01787369 -0.01521928 0.54117647 0.42352941 0.64313725
v -0.07346880 -0.01787369 -0.00866791 0.54117647 0.42352941 0.64313725
v -0.07456978 -0.01682944 -0.01589197 0.54117647 0.42352941 0.64313725
v -0.07454002 -0.01685772 -0.01592742 0.54117647 0.42352941 0.64313725
v -0.07419783 -0.01704556 -0.01625406 0.54117647 0.42352941 0.64313725
v -0.07394490 -0.01727582 -0.01625406 0.54117647 0.42352941 0.64313725
v -0.07366222 -0.01746367 -0.01625406 0.54117647 0.42352941 0.64313725
v 0.07687418 -0.01723240 -0.00866791 0.54117647 0.42352941 0.64313725
v 0.07681466 -0.01728996 -0.00866791 0.54117647 0.42352941 0.64313725
v 0.07659149 -0.01749901 -0.01521928 0.54117647 0.42352941 0.64313725
v 0.07659149 -0.01747275 -0.01549443 0.54117647 0.42352941 0.64313725
v 0.07659149 -0.01739802 -0.01576115 0.54117647 0.42352941 0.64313725
v 0.07659149 -0.01727683 -0.01601182 0.54117647 0.42352941 0.64313725
v 0.07659149 -0.01711121 -0.01623802 0.54117647 0.42352941 0.64313725
v 0.07626417 -0.01727683 -0.01637138 0.54117647 0.42352941 0.64313725
v 0.07626417 -0.01704556 -0.01659252 0.54117647 0.42352941 0.64313725
v 0.07626417 -0.01677894 -0.01677145 0.54117647 0.42352941 0.64313725
v 0.07626417 -0.01648304 -0.01690396 0.54117647 0.42352941 0.64313725
v 0.07626417 -0.01616795 -0.01698499 0.54117647 0.42352941 0.64313725
v 0.07626417 -0.01584376 -0.01701200 0.54117647 0.42352941 0.64313725
v 0.07659149 -0.00859662 -0.01680521 0.54117647 0.42352941 0.64313725
v -0.03381872 -0.00768769 -0.01683053 0.54117647 0.42352941 0.64313725
v -0.07346880 -0.00768769 -0.01716477 0.54117647 0.42352941 0.64313725
v -0.07308197 -0.01584275 -0.01725761 0.54117647 0.42352941 0.64313725
v -0.07306709 -0.01590840 -0.01725761 0.54117647 0.42352941 0.64313725
v -0.07305221 -0.01597101 -0.01725761 0.54117647 0.42352941 0.64313725
v -0.07340929 -0.01609624 -0.01716477 0.54117647 0.42352941 0.64313725
v -0.07334977 -0.01621238 -0.01716477 0.54117647 0.42352941 0.64313725
v -0.07456978 -0.01664261 -0.01607006 0.54117647 0.42352941 0.64313725
v -0.07439125 -0.01677894 -0.01625406 0.54117647 0.42352941 0.64313725
v -0.07355807 -0.01653758 -0.01701200 0.54117647 0.42352941 0.64313725
v -0.07381100 -0.01673552 -0.01680521 0.54117647 0.42352941 0.64313725
v -0.07401929 -0.01690720 -0.01654947 0.54117647 0.42352941 0.64313725
v -0.07334977 -0.01760101 -0.01625406 0.54117647 0.42352941 0.64313725
v -0.07340929 -0.01775048 -0.01592742 0.54117647 0.42352941 0.64313725
v -0.07305221 -0.01784238 -0.01592742 0.54117647 0.42352941 0.64313725
v -0.07306709 -0.01793833 -0.01557884 0.54117647 0.42352941 0.64313725
v -0.07308197 -0.01797064 -0.01521928 0.54117647 0.42352941 0.64313725
v -0.07308197 -0.01797064 -0.00866791 0.54117647 0.42352941 0.64313725
v -0.07456978 -0.01680621 -0.01592742 0.54117647 0.42352941 0.64313725
v -0.07381100 -0.01711121 -0.01654947 0.54117647 0.42352941 0.64313725
v -0.07355807 -0.01727582 -0.01654947 0.54117647 0.42352941 0.64313725
v 0.07659149 -0.01749901 -0.00866791 0.54117647 0.42352941 0.64313725
v 0.07635344 -0.01766060 -0.00866791 0.54117647 0.42352941 0.64313725
v 0.07626417 -0.01771412 -0.01521928 0.54117647 0.42352941 0.64313725
v 0.07626417 -0.01768585 -0.01552988 0.54117647 0.42352941 0.64313725
v 0.07626417 -0.01760202 -0.01583204 0.54117647 0.42352941 0.64313725
v 0.07626417 -0.01746367 -0.01611564 0.54117647 0.42352941 0.64313725
v 0.07590710 -0.01760202 -0.01619160 0.54117647 0.42352941 0.64313725
v 0.07590710 -0.01739802 -0.01646929 0.54117647 0.42352941 0.64313725
v 0.07590710 -0.01714857 -0.01670899 0.54117647 0.42352941 0.64313725
v 0.07590710 -0.01685873 -0.01690396 0.54117647 0.42352941 0.64313725
v 0.07590710 -0.01653859 -0.01704745 0.54117647 0.42352941 0.64313725
v 0.07590710 -0.01619521 -0.01713523 0.54117647 0.42352941 0.64313725
v 0.07590710 -0.01584376 -0.01716477 0.54117647 0.42352941 0.64313725
v 0.07626417 -0.00859662 -0.01701200 0.54117647 0.42352941 0.64313725
v -0.03413116 -0.00768769 -0.01702635 0.54117647 0.42352941 0.64313725
v -0.07308197 -0.00768769 -0.01725761 0.54117647 0.42352941 0.64313725
v -0.07268027 -0.01584275 -0.01729053 0.54117647 0.42352941 0.64313725
v -0.07302246 -0.01603060 -0.01725761 0.54117647 0.42352941 0.64313725
v -0.07327539 -0.01631842 -0.01716477 0.54117647 0.42352941 0.64313725
v -0.07318612 -0.01640932 -0.01716477 0.54117647 0.42352941 0.64313725
v -0.07340929 -0.01667088 -0.01701200 0.54117647 0.42352941 0.64313725
v -0.07361758 -0.01690720 -0.01680521 0.54117647 0.42352941 0.64313725
v -0.07327539 -0.01739802 -0.01654947 0.54117647 0.42352941 0.64313725
v -0.07302246 -0.01768585 -0.01625406 0.54117647 0.42352941 0.64313725
v -0.07268027 -0.01787369 -0.01592742 0.54117647 0.42352941 0.64313725
v -0.07268027 -0.01797064 -0.01557884 0.54117647 0.42352941 0.64313725
v -0.07268027 -0.01800397 -0.01521928 0.54117647 0.42352941 0.64313725
v -0.07268027 -0.01800397 -0.00866791 0.54117647 0.42352941 0.64313725
v -0.07340929 -0.01704556 -0.01680521 0.54117647 0.42352941 0.64313725
v -0.07318612 -0.01714756 -0.01680521 0.54117647 0.42352941 0.64313725
v 0.07626417 -0.01771412 -0.00866791 0.54117647 0.42352941 0.64313725
v 0.07599637 -0.01783430 -0.00866791 0.54117647 0.42352941 0.64313725
v 0.07590710 -0.01787369 -0.01521928 0.54117647 0.42352941 0.64313725
v 0.07590710 -0.01784339 -0.01555689 0.54117647 0.42352941 0.64313725
v 0.07590710 -0.01775149 -0.01588437 0.54117647 0.42352941 0.64313725
v 0.07552027 -0.01784339 -0.01591645 0.54117647 0.42352941 0.64313725
v 0.07552027 -0.01768585 -0.01623802 0.54117647 0.42352941 0.64313725
v 0.07552027 -0.01747275 -0.01652921 0.54117647 0.42352941 0.64313725
v 0.07552027 -0.01721119 -0.01678074 0.54117647 0.42352941 0.64313725
v 0.07552027 -0.01690720 -0.01698499 0.54117647 0.42352941 0.64313725
v 0.07552027 -0.01657090 -0.01713523 0.54117647 0.42352941 0.64313725
v 0.07552027 -0.01621339 -0.01722723 0.54117647 0.42352941 0.64313725
v 0.07552027 -0.01584376 -0.01725761 0.54117647 0.42352941 0.64313725
v 0.07590710 -0.00859662 -0.01716477 0.54117647 0.42352941 0.64313725
v -0.03448824 -0.00768769 -0.01717152 0.54117647 0.42352941 0.64313725
v -0.07268027 -0.00768769 -0.01729053 0.54117647 0.42352941 0.64313725
v -0.01776528 -0.01584376 -0.01729053 0.54117647 0.42352941 0.64313725
v -0.03572312 -0.01612452 -0.01726605 0.54117647 0.42352941 0.64313725
v -0.07268027 -0.01621844 -0.01725761 0.54117647 0.42352941 0.64313725
v -0.07275466 -0.01621238 -0.01725761 0.54117647 0.42352941 0.64313725
v -0.07281416 -0.01619521 -0.01725761 0.54117647 0.42352941 0.64313725
v -0.07287367 -0.01616795 -0.01725761 0.54117647 0.42352941 0.64313725
v -0.07293320 -0.01613058 -0.01725761 0.54117647 0.42352941 0.64313725
v -0.07297783 -0.01608412 -0.01725761 0.54117647 0.42352941 0.64313725
v -0.07306709 -0.01648304 -0.01716477 0.54117647 0.42352941 0.64313725
v -0.07324563 -0.01677894 -0.01701200 0.54117647 0.42352941 0.64313725
v -0.07297783 -0.01747275 -0.01654947 0.54117647 0.42352941 0.64313725
v -0.07268027 -0.01749800 -0.01654947 0.54117647 0.42352941 0.64313725
v -0.07268027 -0.01771412 -0.01625406 0.54117647 0.42352941 0.64313725
v -0.01776528 -0.01797165 -0.01557884 0.54117647 0.42352941 0.64313725
v -0.05420169 -0.01773432 -0.01621355 0.54117647 0.42352941 0.64313725
v 0.07511856 -0.01787369 -0.01592742 0.54117647 0.42352941 0.64313725
v 0.07511856 -0.01800397 -0.01521928 0.54117647 0.42352941 0.64313725
v 0.07511856 -0.01800397 -0.00866791 0.54117647 0.42352941 0.64313725
v -0.07306709 -0.01685772 -0.01701200 0.54117647 0.42352941 0.64313725
v -0.07287367 -0.01690720 -0.01701200 0.54117647 0.42352941 0.64313725
v -0.07293320 -0.01721018 -0.01680521 0.54117647 0.42352941 0.64313725
v 0.07590710 -0.01787369 -0.00866791 0.54117647 0.42352941 0.64313725
v 0.07560953 -0.01795044 -0.00866791 0.54117647 0.42352941 0.64313725
v 0.07552027 -0.01797165 -0.01521928 0.54117647 0.42352941 0.64313725
v 0.07552027 -0.01793934 -0.01557293 0.54117647 0.42352941 0.64313725
v 0.07511856 -0.01797165 -0.01557884 0.54117647 0.42352941 0.64313725
v 0.07511856 -0.01771412 -0.01625406 0.54117647 0.42352941 0.64313725
v 0.07511856 -0.01749901 -0.01654947 0.54117647 0.42352941 0.64313725
v 0.07511856 -0.01723240 -0.01680521 0.54117647 0.42352941 0.64313725
v 0.07511856 -0.01692437 -0.01701200 0.54117647 0.42352941 0.64313725
v 0.07511856 -0.01658201 -0.01716477 0.54117647 0.42352941 0.64313725
v 0.07511856 -0.01621844 -0.01725761 0.54117647 0.42352941 0.64313725
v 0.07511856 -0.01584376 -0.01729053 0.54117647 0.42352941 0.64313725
v 0.07543100 -0.00859662 -0.01726521 0.54117647 0.42352941 0.64313725
v 0.07552027 -0.00859662 -0.01725761 0.54117647 0.42352941 0.64313725
v -0.03486019 -0.00768769 -0.01725930 0.54117647 0.42352941 0.64313725
v -0.03524702 -0.00768769 -0.01729053 0.54117647 0.42352941 0.64313725
v 0.03816142 -0.01612452 -0.01726605 0.54117647 0.42352941 0.64313725
v -0.01724455 -0.01617199 -0.01726183 0.54117647 0.42352941 0.64313725
v -0.01776528 -0.01626288 -0.01724664 0.54117647 0.42352941 0.64313725
v -0.03572312 -0.01630933 -0.01723482 0.54117647 0.42352941 0.64313725
v -0.07268027 -0.01658201 -0.01716477 0.54117647 0.42352941 0.64313725
v -0.07281416 -0.01657090 -0.01716477 0.54117647 0.42352941 0.64313725
v -0.07294807 -0.01653758 -0.01716477 0.54117647 0.42352941 0.64313725
v -0.07268027 -0.01723139 -0.01680521 0.54117647 0.42352941 0.64313725
v -0.01724455 -0.01746569 -0.01658154 0.54117647 0.42352941 0.64313725
v -0.01776528 -0.01749901 -0.01654947 0.54117647 0.42352941 0.64313725
v -0.05420169 -0.01752527 -0.01651318 0.54117647 0.42352941 0.64313725
v -0.01724455 -0.01768787 -0.01629120 0.54117647 0.42352941 0.64313725
v 0.05663999 -0.01773432 -0.01621355 0.54117647 0.42352941 0.64313725
v 0.07544588 -0.01797872 -0.00866791 0.54117647 0.42352941 0.64313725
v -0.07268027 -0.01692336 -0.01701200 0.54117647 0.42352941 0.64313725
v 0.07552027 -0.01797165 -0.00866791 0.54117647 0.42352941 0.64313725
v 0.03816142 -0.01766060 -0.01632834 0.54117647 0.42352941 0.64313725
v 0.05663999 -0.01746569 -0.01658154 0.54117647 0.42352941 0.64313725
v -0.01776528 -0.01723240 -0.01680521 0.54117647 0.42352941 0.64313725
v -0.01776528 -0.01692437 -0.01701200 0.54117647 0.42352941 0.64313725
v 0.01969772 -0.01679611 -0.01706939 0.54117647 0.42352941 0.64313725
v 0.03816142 -0.01630933 -0.01723482 0.54117647 0.42352941 0.64313725
v 0.07511856 -0.00859662 -0.01729053 0.54117647 0.42352941 0.64313725
v -0.05420169 -0.01711626 -0.01688286 0.54117647 0.42352941 0.64313725
f 1 2 6
f 1 6 12
f 1 12 29
f 1 29 48
f 1 48 69
f 1 69 97
f 1 97 106
f 1 106 105
f 1 105 139
f 1 139 174
f 1 174 204
f 1 204 241
f 1 241 242
f 1 242 205
f 1 205 175
f 1 175 140
f 1 140 107
f 1 107 76
f 1 76 53
f 1 53 33
f 1 33 15
f 1 15 8
f 1 8 3
f 1 3 9
f 1 9 17
f 1 17 36
f 1 36 58
f 1 58 86
f 1 86 119
f 1 119 156
f 1 156 187
f 1 187 223
f 1 223 256
f 1 256 258
f 1 258 228
f 1 228 227
f 1 227 191
f 1 191 190
f 1 190 161
f 1 161 160
f 1 160 126
f 1 126 125
f 1 125 90
f 1 90 61
f 1 61 39
f 1 39 19
f 1 19 10
f 1 10 4
f 1 4 5
f 1 5 2
f 2 5 7
f 2 7 6
f 3 8 16
f 3 16 35
f 3 35 56
f 3 56 80
f 3 80 111
f 3 111 146
f 3 146 157
f 3 157 120
f 3 120 87
f 3 87 60
f 3 60 38
f 3 38 18
f 3 18 9
f 4 10 11
f 4 11 5
f 5 11 7
f 6 7 12
f 7 11 13
f 7 13 14
f 7 14 12
f 8 15 16
f 9 18 37
f 9 37 17
f 10 19 11
f 11 19 20
f 11 20 21
f 11 21 22
f 11 22 23
f 11 23 24
f 11 24 25
f 11 25 26
f 11 26 27
f 11 27 28
f 11 28 13
f 12 14 29
f 13 28 30
f 13 30 31
f 13 31 32
f 13 32 14
f 14 32 29
f 15 33 34
f 15 34 16
f 16 34 35
f 17 37 57
f 17 57 36
f 18 38 37
f 19 39 20
f 20 39 61
f 20 61 40
f 20 40 21
f 21 40 41
f 21 41 42
f 21 42 22
f 22 42 23
f 23 42 43
f 23 43 24
f 24 43 44
f 24 44 45
f 24 45 25
f 25 45 46
f 25 46 26
f 26 46 27
f 27 46 47
f 27 47 30
f 27 30 28
f 29 32 48
f 30 47 49
f 30 49 50
f 30 50 51
f 30 51 31
f 31 51 52
f 31 52 32
f 32 52 48
f 33 53 34
f 34 53 54
f 34 54 55
f 34 55 56
f 34 56 35
f 36 57 58
f 37 59 57
f 37 38 59
f 38 60 59
f 40 61 90
f 40 90 62
f 40 62 41
f 41 62 63
f 41 63 42
f 42 63 64
f 42 64 65
f 42 65 43
f 43 65 44
f 44 65 66
f 44 66 67
f 44 67 45
f 45 67 46
f 46 67 68
f 46 68 49
f 46 49 47
f 48 52 69
f 49 68 70
f 49 70 71
f 49 71 72
f 49 72 50
f 50 72 51
f 51 72 73
f 51 73 74
f 51 74 75
f 51 75 52
f 52 75 69
f 53 76 54
f 54 76 107
f 54 107 77
f 54 77 78
f 54 78 79
f 54 79 55
f 55 80 56
f 55 79 81
f 55 81 82
f 55 82 80
f 57 83 84
f 57 84 85
f 57 85 58
f 57 59 83
f 58 85 86
f 59 60 87
f 59 87 88
f 59 88 89
f 59 89 83
f 62 90 125
f 62 125 91
f 62 91 92
f 62 92 63
f 63 92 64
f 64 92 93
f 64 93 65
f 65 93 94
f 65 94 95
f 65 95 66
f 66 95 67
f 67 95 96
f 67 96 70
f 67 70 68
f 69 75 97
f 70 96 98
f 70 98 99
f 70 99 100
f 70 100 71
f 71 100 101
f 71 101 72
f 72 101 102
f 72 102 73
f 73 102 103
f 73 103 104
f 73 104 74
f 74 104 105
f 74 105 106
f 74 106 97
f 74 97 75
f 77 107 140
f 77 140 108
f 77 108 78
f 78 108 109
f 78 109 110
f 78 110 81
f 78 81 79
f 80 82 112
f 80 112 111
f 81 113 114
f 81 114 82
f 81 110 115
f 81 115 113
f 82 114 112
f 83 89 84
f 84 89 116
f 84 116 117
f 84 117 118
f 84 118 85
f 85 118 119
f 85 119 86
f 87 120 121
f 87 121 88
f 88 122 89
f 88 121 122
f 89 123 124
f 89 124 116
f 89 122 123
f 91 125 126
f 91 126 127
f 91 127 92
f 92 127 128
f 92 128 93
f 93 128 129
f 93 129 130
f 93 130 94
f 94 130 95
f 95 130 131
f 95 131 98
f 95 98 96
f 98 131 132
f 98 132 133
f 98 133 99
f 99 133 134
f 99 134 135
f 99 135 100
f 100 135 101
f 101 135 136
f 101 136 102
f 102 136 137
f 102 137 173
f 102 173 138
f 102 138 103
f 103 138 139
f 103 139 105
f 103 105 104
f 108 140 175
f 108 175 141
f 108 141 109
f 109 141 142
f 109 142 143
f 109 143 144
f 109 144 110
f 110 144 145
f 110 145 115
f 111 112 147
f 111 147 146
f 112 114 147
f 113 115 148
f 113 148 149
f 113 149 114
f 114 122 147
f 114 149 150
f 114 150 122
f 115 145 148
f 116 124 151
f 116 151 152
f 116 152 117
f 117 152 153
f 117 153 154
f 117 154 155
f 117 155 118
f 118 155 156
f 118 156 119
f 120 157 121
f 121 157 147
f 121 147 122
f 122 150 158
f 122 158 123
f 123 158 124
f 124 159 151
f 124 158 159
f 126 160 127
f 127 161 162
f 127 162 163
f 127 163 128
f 127 160 161
f 128 163 164
f 128 164 129
f 129 164 130
f 130 164 165
f 130 165 132
f 130 132 131
f 132 165 166
f 132 166 167
f 132 167 168
f 132 168 133
f 133 168 169
f 133 169 134
f 134 169 170
f 134 170 135
f 135 170 136
f 136 170 171
f 136 171 172
f 136 172 137
f 137 172 203
f 137 203 173
f 138 173 139
f 139 173 174
f 141 175 205
f 141 205 176
f 141 176 142
f 142 176 143
f 143 176 177
f 143 177 144
f 144 177 145
f 145 177 178
f 145 178 148
f 146 147 157
f 148 178 179
f 148 179 180
f 148 180 149
f 149 180 181
f 149 181 158
f 149 158 150
f 151 159 182
f 151 182 183
f 151 183 152
f 152 183 153
f 153 183 184
f 153 184 154
f 154 184 185
f 154 185 155
f 155 185 186
f 155 186 187
f 155 187 156
f 158 181 188
f 158 188 159
f 159 188 189
f 159 189 182
f 161 190 162
f 162 190 191
f 162 191 192
f 162 192 193
f 162 193 163
f 163 193 164
f 164 193 194
f 164 194 166
f 164 166 165
f 166 194 195
f 166 195 196
f 166 196 197
f 166 197 167
f 167 197 198
f 167 198 168
f 168 198 169
f 169 198 199
f 169 199 170
f 170 199 200
f 170 200 201
f 170 201 171
f 171 201 172
f 172 201 202
f 172 202 240
f 172 240 203
f 173 203 174
f 174 203 204
f 176 205 242
f 176 242 265
f 176 265 238
f 176 238 206
f 176 206 207
f 176 207 208
f 176 208 209
f 176 209 210
f 176 210 211
f 176 211 212
f 176 212 213
f 176 213 177
f 177 213 178
f 178 213 212
f 178 212 179
f 179 212 211
f 179 211 214
f 179 214 215
f 179 215 180
f 180 188 181
f 180 215 188
f 182 189 216
f 182 216 183
f 183 216 217
f 183 217 218
f 183 218 184
f 184 219 185
f 184 218 220
f 184 220 255
f 184 255 221
f 184 221 231
f 184 231 219
f 185 219 186
f 186 219 231
f 186 231 222
f 186 222 223
f 186 223 187
f 188 215 189
f 189 215 224
f 189 224 225
f 189 225 226
f 189 226 216
f 191 227 192
f 192 227 228
f 192 228 229
f 192 229 193
f 193 229 230
f 193 230 195
f 193 195 194
f 195 230 231
f 195 231 221
f 195 221 232
f 195 232 196
f 196 232 233
f 196 233 197
f 197 233 198
f 198 233 234
f 198 234 199
f 199 234 235
f 199 235 200
f 200 235 236
f 200 236 201
f 201 236 237
f 201 237 238
f 201 238 202
f 202 238 239
f 202 239 240
f 203 240 204
f 204 240 241
f 206 238 243
f 206 243 207
f 207 243 244
f 207 244 208
f 208 245 246
f 208 246 247
f 208 247 209
f 208 244 237
f 208 237 245
f 209 247 248
f 209 248 249
f 209 249 210
f 210 249 214
f 210 214 211
f 214 249 215
f 215 249 224
f 216 226 217
f 217 250 251
f 217 251 252
f 217 252 253
f 217 253 218
f 217 226 250
f 218 253 254
f 218 254 232
f 218 232 255
f 218 255 220
f 221 255 232
f 222 231 229
f 222 229 256
f 222 256 223
f 224 249 225
f 225 249 248
f 225 248 257
f 225 257 250
f 225 250 226
f 228 258 229
f 229 258 256
f 229 231 230
f 232 254 259
f 232 259 233
f 233 260 234
f 233 259 254
f 233 254 252
f 233 252 251
f 233 251 260
f 234 260 251
f 234 251 261
f 234 261 262
f 234 262 235
f 235 262 263
f 235 263 236
f 236 264 237
f 236 263 247
f 236 247 246
f 236 246 264
f 237 264 245
f 237 244 243
f 237 243 238
f 238 265 239
f 239 265 241
f 239 241 240
f 241 265 242
f 245 264 246
f 247 262 257
f 247 257 248
f 247 263 262
f 250 257 266
f 250 266 261
f 250 261 251
f 252 254 253
f 257 262 266
f 261 266 262