# https://github.com/mikedh/trimesh
v 0.07513145 0.01800498 0.01514752 0.08627451 0.01960784 0.83137255
v 0.03817642 0.01798031 0.01541658 0.08627451 0.01960784 0.83137255
v 0.05665793 0.01798383 0.01537188 0.08627451 0.01960784 0.83137255
v 0.07513145 0.01796973 0.01550683 0.08627451 0.01960784 0.83137255
v 0.07520336 0.01796973 0.01550093 0.08627451 0.01960784 0.83137255
v 0.07526728 0.01796973 0.01548490 0.08627451 0.01960784 0.83137255
v 0.07533121 0.01796973 0.01545876 0.08627451 0.01960784 0.83137255
v 0.07538714 0.01796973 0.01542249 0.08627451 0.01960784 0.83137255
v 0.07543508 0.01796973 0.01537863 0.08627451 0.01960784 0.83137255
v 0.07547503 0.01796973 0.01532718 0.08627451 0.01960784 0.83137255
v 0.07550699 0.01796973 0.01526982 0.08627451 0.01960784 0.83137255
v 0.07552298 0.01796973 0.01520994 0.08627451 0.01960784 0.83137255
v 0.07553096 0.01796973 0.01514752 0.08627451 0.01960784 0.83137255
v 0.07513145 0.01800498 0.00860147 0.08627451 0.01960784 0.83137255
v -0.00420400 0.01800498 0.01514752 0.08627451 0.01960784 0.83137255
v -0.00420400 0.01798736 0.01533983 0.08627451 0.01960784 0.83137255
v -0.00420400 0.01797326 0.01549334 0.08627451 0.01960784 0.83137255
v 0.05665793 0.01795916 0.01555069 0.08627451 0.01960784 0.83137255
v 0.07513145 0.01787456 0.01585518 0.08627451 0.01960784 0.83137255
v 0.07526728 0.01787456 0.01584506 0.08627451 0.01960784 0.83137255
v 0.07540312 0.01787456 0.01581301 0.08627451 0.01960784 0.83137255
v 0.07552298 0.01787456 0.01576071 0.08627451 0.01960784 0.83137255
v 0.07563484 0.01787456 0.01568986 0.08627451 0.01960784 0.83137255
v 0.07573072 0.01787456 0.01560214 0.08627451 0.01960784 0.83137255
v 0.07581062 0.01787456 0.01550093 0.08627451 0.01960784 0.83137255
v 0.07586656 0.01787456 0.01538959 0.08627451 0.01960784 0.83137255
v 0.07590651 0.01787456 0.01526982 0.08627451 0.01960784 0.83137255
v 0.07553096 0.01796973 0.00860147 0.08627451 0.01960784 0.83137255
v 0.07591450 0.01787456 0.01514752 0.08627451 0.01960784 0.83137255
v -0.00420400 0.01800498 0.00860147 0.08627451 0.01960784 0.83137255
v -0.00420400 0.01796973 0.01550683 0.08627451 0.01960784 0.83137255
v 0.01971089 0.01795916 0.01555069 0.08627451 0.01960784 0.83137255
v -0.00420400 0.01788514 0.01581722 0.08627451 0.01960784 0.83137255
v 0.05665793 0.01781464 0.01597832 0.08627451 0.01960784 0.83137255
v 0.07513145 0.01771242 0.01618244 0.08627451 0.01960784 0.83137255
v -0.00420400 0.01787456 0.01585518 0.08627451 0.01960784 0.83137255
v -0.00420400 0.01785694 0.01589145 0.08627451 0.01960784 0.83137255
v 0.07533121 0.01771242 0.01616641 0.08627451 0.01960784 0.83137255
v 0.07552298 0.01771242 0.01612002 0.08627451 0.01960784 0.83137255
v 0.07570675 0.01771242 0.01604411 0.08627451 0.01960784 0.83137255
v 0.07586656 0.01771242 0.01594037 0.08627451 0.01960784 0.83137255
v 0.07601038 0.01771242 0.01581301 0.08627451 0.01960784 0.83137255
v 0.07612224 0.01771242 0.01566456 0.08627451 0.01960784 0.83137255
v 0.07621013 0.01771242 0.01550093 0.08627451 0.01960784 0.83137255
v 0.07625808 0.01771242 0.01532718 0.08627451 0.01960784 0.83137255
v 0.07627406 0.01771242 0.01514752 0.08627451 0.01960784 0.83137255
v 0.07591450 0.01787456 0.00860147 0.08627451 0.01960784 0.83137255
v 0.07620215 0.01774767 0.00860147 0.08627451 0.01960784 0.83137255
v -0.00420400 -0.01800498 0.00860147 0.08627451 0.01960784 0.83137255
v 0.03817642 0.01775472 0.01610062 0.08627451 0.01960784 0.83137255
v 0.05665793 0.01773357 0.01614195 0.08627451 0.01960784 0.83137255
v 0.01971089 0.01781464 0.01597832 0.08627451 0.01960784 0.83137255
v 0.05665793 0.01768774 0.01621955 0.08627451 0.01960784 0.83137255
v 0.07513145 0.01749740 0.01647849 0.08627451 0.01960784 0.83137255
v 0.07538714 0.01749740 0.01645825 0.08627451 0.01960784 0.83137255
v -0.00420400 0.01771947 0.01617063 0.08627451 0.01960784 0.83137255
v -0.00420400 0.01771242 0.01618244 0.08627451 0.01960784 0.83137255
v -0.00420400 0.01770537 0.01619340 0.08627451 0.01960784 0.83137255
v -0.00420400 0.01780054 0.01600700 0.08627451 0.01960784 0.83137255
v 0.07563484 0.01749740 0.01639752 0.08627451 0.01960784 0.83137255
v 0.07586656 0.01749740 0.01629968 0.08627451 0.01960784 0.83137255
v 0.07608229 0.01749740 0.01616641 0.08627451 0.01960784 0.83137255
v 0.07625808 0.01749740 0.01600278 0.08627451 0.01960784 0.83137255
v 0.07640989 0.01749740 0.01581301 0.08627451 0.01960784 0.83137255
v 0.07651377 0.01749740 0.01560214 0.08627451 0.01960784 0.83137255
v 0.07658568 0.01749740 0.01537863 0.08627451 0.01960784 0.83137255
v 0.07660166 0.01749740 0.01514752 0.08627451 0.01960784 0.83137255
v 0.07634597 0.01766659 0.00860147 0.08627451 0.01960784 0.83137255
v 0.07627406 0.01771242 0.00860147 0.08627451 0.01960784 0.83137255
v -0.00420400 -0.01800498 0.01514752 0.08627451 0.01960784 0.83137255
v 0.07513145 -0.01800498 0.00860147 0.08627451 0.01960784 0.83137255
v 0.05665793 0.01752560 0.01644138 0.08627451 0.01960784 0.83137255
v 0.01971089 0.01768774 0.01621955 0.08627451 0.01960784 0.83137255
v 0.05665793 0.01746568 0.01650970 0.08627451 0.01960784 0.83137255
v 0.07513145 0.01723304 0.01673322 0.08627451 0.01960784 0.83137255
v 0.07543508 0.01723304 0.01670960 0.08627451 0.01960784 0.83137255
v -0.00420400 0.01749740 0.01647849 0.08627451 0.01960784 0.83137255
v 0.07573072 0.01723304 0.01663790 0.08627451 0.01960784 0.83137255
v -0.00420400 0.01752208 0.01644560 0.08627451 0.01960784 0.83137255
v 0.00122939 0.01760667 0.01633004 0.08627451 0.01960784 0.83137255
v 0.07601038 0.01723304 0.01652066 0.08627451 0.01960784 0.83137255
v 0.07625808 0.01723304 0.01636209 0.08627451 0.01960784 0.83137255
v 0.07647381 0.01723304 0.01616641 0.08627451 0.01960784 0.83137255
v 0.07664960 0.01723304 0.01594037 0.08627451 0.01960784 0.83137255
v 0.07677745 0.01723304 0.01568986 0.08627451 0.01960784 0.83137255
v 0.07685735 0.01723304 0.01542249 0.08627451 0.01960784 0.83137255
v 0.07688931 0.01723304 0.01514752 0.08627451 0.01960784 0.83137255
v 0.07666558 0.01744100 0.00860147 0.08627451 0.01960784 0.83137255
v 0.07660166 0.01749740 0.00860147 0.08627451 0.01960784 0.83137255
v 0.07513145 -0.01800498 0.01514752 0.08627451 0.01960784 0.83137255
v -0.00420400 -0.01798736 0.01533983 0.08627451 0.01960784 0.83137255
v 0.07553096 -0.01796973 0.00860147 0.08627451 0.01960784 0.83137255
v 0.01971089 0.01752560 0.01644138 0.08627451 0.01960784 0.83137255
v 0.01971089 0.01746568 0.01650970 0.08627451 0.01960784 0.83137255
v -0.00420400 0.01739518 0.01657802 0.08627451 0.01960784 0.83137255
v 0.05665793 0.01719426 0.01675936 0.08627451 0.01960784 0.83137255
v 0.07513145 0.01692285 0.01694071 0.08627451 0.01960784 0.83137255
v -0.00420400 0.01723304 0.01673322 0.08627451 0.01960784 0.83137255
v 0.07547503 0.01692285 0.01691287 0.08627451 0.01960784 0.83137255
v 0.07581062 0.01692285 0.01683190 0.08627451 0.01960784 0.83137255
v 0.07612224 0.01692285 0.01670032 0.08627451 0.01960784 0.83137255
v 0.07640989 0.01692285 0.01652066 0.08627451 0.01960784 0.83137255
v 0.07664960 0.01692285 0.01629968 0.08627451 0.01960784 0.83137255
v 0.07684936 0.01692285 0.01604411 0.08627451 0.01960784 0.83137255
v 0.07699319 0.01692285 0.01576071 0.08627451 0.01960784 0.83137255
v 0.07708108 0.01692285 0.01545876 0.08627451 0.01960784 0.83137255
v 0.07711304 0.01692285 0.01514752 0.08627451 0.01960784 0.83137255
v 0.07706510 0.01698982 0.00860147 0.08627451 0.01960784 0.83137255
v 0.07688931 0.01723304 0.00860147 0.08627451 0.01960784 0.83137255
v 0.07553096 -0.01796973 0.01514752 0.08627451 0.01960784 0.83137255
v 0.07553096 -0.01793801 0.01550093 0.08627451 0.01960784 0.83137255
v 0.07513145 -0.01796973 0.01550683 0.08627451 0.01960784 0.83137255
v 0.05665793 -0.01798383 0.01537188 0.08627451 0.01960784 0.83137255
v 0.03817642 -0.01798031 0.01541658 0.08627451 0.01960784 0.83137255
v -0.00420400 -0.01797326 0.01549334 0.08627451 0.01960784 0.83137255
v 0.07591450 -0.01787456 0.00860147 0.08627451 0.01960784 0.83137255
v 0.05665793 0.01703917 0.01686311 0.08627451 0.01960784 0.83137255
v 0.03817642 0.01715549 0.01678551 0.08627451 0.01960784 0.83137255
v 0.07513145 0.01658094 0.01709253 0.08627451 0.01960784 0.83137255
v 0.07550699 0.01658094 0.01706301 0.08627451 0.01960784 0.83137255
v -0.00420400 0.01695810 0.01691793 0.08627451 0.01960784 0.83137255
v -0.00420400 0.01692285 0.01694071 0.08627451 0.01960784 0.83137255
v 0.00122939 0.01675366 0.01701662 0.08627451 0.01960784 0.83137255
v -0.00420400 0.01659504 0.01708747 0.08627451 0.01960784 0.83137255
v -0.00420400 0.01706737 0.01684455 0.08627451 0.01960784 0.83137255
v 0.07586656 0.01658094 0.01697529 0.08627451 0.01960784 0.83137255
v 0.07621013 0.01658094 0.01683190 0.08627451 0.01960784 0.83137255
v 0.07651377 0.01658094 0.01663790 0.08627451 0.01960784 0.83137255
v 0.07677745 0.01658094 0.01639752 0.08627451 0.01960784 0.83137255
v 0.07699319 0.01658094 0.01612002 0.08627451 0.01960784 0.83137255
v 0.07715299 0.01658094 0.01581301 0.08627451 0.01960784 0.83137255
v 0.07724887 0.01658094 0.01548490 0.08627451 0.01960784 0.83137255
v 0.07728083 0.01658094 0.01514752 0.08627451 0.01960784 0.83137255
v 0.07724887 0.01665496 0.00860147 0.08627451 0.01960784 0.83137255
v 0.07715299 0.01684883 0.00860147 0.08627451 0.01960784 0.83137255
v 0.07711304 0.01692285 0.00860147 0.08627451 0.01960784 0.83137255
v 0.07591450 -0.01787456 0.01514752 0.08627451 0.01960784 0.83137255
v 0.07553096 -0.01784284 0.01584506 0.08627451 0.01960784 0.83137255
v 0.07513145 -0.01787456 0.01585518 0.08627451 0.01960784 0.83137255
v 0.07591450 -0.01784284 0.01548490 0.08627451 0.01960784 0.83137255
v 0.05665793 -0.01795916 0.01555069 0.08627451 0.01960784 0.83137255
v 0.01971089 -0.01795916 0.01555069 0.08627451 0.01960784 0.83137255
v -0.00420400 -0.01796973 0.01550683 0.08627451 0.01960784 0.83137255
v 0.07620215 -0.01774767 0.00860147 0.08627451 0.01960784 0.83137255
v 0.05665793 0.01635535 0.01715157 0.08627451 0.01960784 0.83137255
v 0.07513145 0.01621788 0.01718615 0.08627451 0.01960784 0.83137255
v -0.00420400 0.01658094 0.01709253 0.08627451 0.01960784 0.83137255
v -0.00420400 0.01656684 0.01709674 0.08627451 0.01960784 0.83137255
v 0.07552298 0.01621788 0.01715494 0.08627451 0.01960784 0.83137255
v 0.07590651 0.01621788 0.01706301 0.08627451 0.01960784 0.83137255
v 0.07625808 0.01621788 0.01691287 0.08627451 0.01960784 0.83137255
v 0.07658568 0.01621788 0.01670960 0.08627451 0.01960784 0.83137255
v 0.07685735 0.01621788 0.01645825 0.08627451 0.01960784 0.83137255
v 0.07708108 0.01621788 0.01616641 0.08627451 0.01960784 0.83137255
v 0.07724887 0.01621788 0.01584506 0.08627451 0.01960784 0.83137255
v 0.07735275 0.01621788 0.01550093 0.08627451 0.01960784 0.83137255
v 0.07738471 0.01621788 0.01514752 0.08627451 0.01960784 0.83137255
v 0.07730481 0.01650339 0.00860147 0.08627451 0.01960784 0.83137255
v 0.07728083 0.01658094 0.00860147 0.08627451 0.01960784 0.83137255
v 0.07627406 -0.01771242 0.01514752 0.08627451 0.01960784 0.83137255
v 0.07627406 -0.01768422 0.01545876 0.08627451 0.01960784 0.83137255
v 0.07553096 -0.01768422 0.01616641 0.08627451 0.01960784 0.83137255
v 0.07591450 -0.01775119 0.01581301 0.08627451 0.01960784 0.83137255
v 0.07513145 -0.01771242 0.01618244 0.08627451 0.01960784 0.83137255
v 0.05665793 -0.01773357 0.01614195 0.08627451 0.01960784 0.83137255
v 0.03817642 -0.01775472 0.01610062 0.08627451 0.01960784 0.83137255
v 0.01971089 -0.01781464 0.01597832 0.08627451 0.01960784 0.83137255
v -0.00420400 -0.01787456 0.01585518 0.08627451 0.01960784 0.83137255
v -0.00420400 -0.01788514 0.01581722 0.08627451 0.01960784 0.83137255
v 0.07627406 -0.01771242 0.00860147 0.08627451 0.01960784 0.83137255
v 0.03817642 0.01630952 0.01716338 0.08627451 0.01960784 0.83137255
v 0.00122939 0.01640117 0.01713976 0.08627451 0.01960784 0.83137255
v 0.05665793 0.01617205 0.01719037 0.08627451 0.01960784 0.83137255
v 0.05665793 0.01589006 0.01721398 0.08627451 0.01960784 0.83137255
v 0.07513145 0.01584424 0.01721736 0.08627451 0.01960784 0.83137255
v 0.07553096 0.01584424 0.01718615 0.08627451 0.01960784 0.83137255
v -0.00420400 0.01623198 0.01718278 0.08627451 0.01960784 0.83137255
v -0.00420400 0.01621788 0.01718615 0.08627451 0.01960784 0.83137255
v -0.00420400 0.01620378 0.01718784 0.08627451 0.01960784 0.83137255
v -0.00420400 0.01643994 0.01712964 0.08627451 0.01960784 0.83137255
v 0.07591450 0.01584424 0.01709253 0.08627451 0.01960784 0.83137255
v 0.07627406 0.01584424 0.01694071 0.08627451 0.01960784 0.83137255
v 0.07660166 0.01584424 0.01673322 0.08627451 0.01960784 0.83137255
v 0.07688931 0.01584424 0.01647849 0.08627451 0.01960784 0.83137255
v 0.07711304 0.01584424 0.01618244 0.08627451 0.01960784 0.83137255
v 0.07728083 0.01584424 0.01585518 0.08627451 0.01960784 0.83137255
v 0.07738471 0.01584424 0.01550683 0.08627451 0.01960784 0.83137255
v 0.07742466 0.01584424 0.01514752 0.08627451 0.01960784 0.83137255
v 0.07741667 0.01592179 0.00860147 0.08627451 0.01960784 0.83137255
v 0.07738471 0.01621788 0.00860147 0.08627451 0.01960784 0.83137255
v 0.07634597 -0.01766659 0.00860147 0.08627451 0.01960784 0.83137255
v 0.07660166 -0.01749740 0.01514752 0.08627451 0.01960784 0.83137255
v 0.07660166 -0.01747273 0.01542249 0.08627451 0.01960784 0.83137255
v 0.07660166 -0.01739870 0.01568986 0.08627451 0.01960784 0.83137255
v 0.07627406 -0.01759962 0.01576071 0.08627451 0.01960784 0.83137255
v 0.07553096 -0.01747273 0.01645825 0.08627451 0.01960784 0.83137255
v 0.07591450 -0.01759962 0.01612002 0.08627451 0.01960784 0.83137255
v 0.07591450 -0.01739870 0.01639752 0.08627451 0.01960784 0.83137255
v 0.07627406 -0.01746215 0.01604411 0.08627451 0.01960784 0.83137255
v 0.07513145 -0.01749740 0.01647849 0.08627451 0.01960784 0.83137255
v 0.05665793 -0.01768774 0.01621955 0.08627451 0.01960784 0.83137255
v -0.00420400 -0.01770537 0.01619340 0.08627451 0.01960784 0.83137255
v -0.00420400 -0.01771242 0.01618244 0.08627451 0.01960784 0.83137255
v -0.00420400 -0.01771947 0.01617063 0.08627451 0.01960784 0.83137255
v -0.00420400 -0.01780054 0.01600700 0.08627451 0.01960784 0.83137255
v 0.03817642 0.01612271 0.01719458 0.08627451 0.01960784 0.83137255
v 0.01971089 0.01598171 0.01720639 0.08627451 0.01960784 0.83137255
v 0.01971089 0.01589006 0.01721398 0.08627451 0.01960784 0.83137255
v 0.07513145 -0.01584424 0.01721736 0.08627451 0.01960784 0.83137255
v 0.07533121 0.00000000 0.01720218 0.08627451 0.01960784 0.83137255
v -0.00420400 0.01584424 0.01721736 0.08627451 0.01960784 0.83137255
v 0.07553096 -0.01584424 0.01718615 0.08627451 0.01960784 0.83137255
v 0.07572273 0.00000000 0.01713976 0.08627451 0.01960784 0.83137255
v -0.00420400 0.01598876 0.01720555 0.08627451 0.01960784 0.83137255
v 0.00122939 0.01603106 0.01720218 0.08627451 0.01960784 0.83137255
v 0.07591450 -0.01584424 0.01709253 0.08627451 0.01960784 0.83137255
v 0.07609827 0.00000000 0.01701662 0.08627451 0.01960784 0.83137255
v 0.07627406 -0.01584424 0.01694071 0.08627451 0.01960784 0.83137255
v 0.07644186 0.00000000 0.01683696 0.08627451 0.01960784 0.83137255
v 0.07660166 -0.01584424 0.01673322 0.08627451 0.01960784 0.83137255
v 0.07688931 -0.01584424 0.01647849 0.08627451 0.01960784 0.83137255
v 0.07711304 -0.01584424 0.01618244 0.08627451 0.01960784 0.83137255
v 0.07720093 0.00000000 0.01601881 0.08627451 0.01960784 0.83137255
v 0.07728083 -0.01584424 0.01585518 0.08627451 0.01960784 0.83137255
v 0.07733677 0.00000000 0.01568143 0.08627451 0.01960784 0.83137255
v 0.07738471 -0.01584424 0.01550683 0.08627451 0.01960784 0.83137255
v 0.07742466 0.01584424 0.00860147 0.08627451 0.01960784 0.83137255
v 0.07742466 -0.01584424 0.01514752 0.08627451 0.01960784 0.83137255
v 0.07660166 -0.01749740 0.00860147 0.08627451 0.01960784 0.83137255
v 0.07666558 -0.01744100 0.00860147 0.08627451 0.01960784 0.83137255
v 0.07688931 -0.01723304 0.01514752 0.08627451 0.01960784 0.83137255
v 0.07688931 -0.01721189 0.01537863 0.08627451 0.01960784 0.83137255
v 0.07688931 -0.01714844 0.01560214 0.08627451 0.01960784 0.83137255
v 0.07688931 -0.01704622 0.01581301 0.08627451 0.01960784 0.83137255
v 0.07660166 -0.01727533 0.01594037 0.08627451 0.01960784 0.83137255
v 0.07553096 -0.01721189 0.01670960 0.08627451 0.01960784 0.83137255
v 0.07627406 -0.01727533 0.01629968 0.08627451 0.01960784 0.83137255
v 0.07627406 -0.01704622 0.01652066 0.08627451 0.01960784 0.83137255
v 0.07591450 -0.01714844 0.01663790 0.08627451 0.01960784 0.83137255
v 0.05665793 -0.01752560 0.01644138 0.08627451 0.01960784 0.83137255
v 0.07513145 -0.01723304 0.01673322 0.08627451 0.01960784 0.83137255
v 0.05665793 -0.01746568 0.01650970 0.08627451 0.01960784 0.83137255
v -0.00420400 -0.01746920 0.01650633 0.08627451 0.01960784 0.83137255
v -0.00420400 -0.01749740 0.01647849 0.08627451 0.01960784 0.83137255
v 0.01971089 -0.01768774 0.01621955 0.08627451 0.01960784 0.83137255
v 0.00122939 -0.01760667 0.01633004 0.08627451 0.01960784 0.83137255
v -0.00420400 -0.01752208 0.01644560 0.08627451 0.01960784 0.83137255
v -0.00420400 0.01585482 0.01721651 0.08627451 0.01960784 0.83137255
v 0.05665793 -0.01589006 0.01721398 0.08627451 0.01960784 0.83137255
v 0.07513145 -0.01621788 0.01718615 0.08627451 0.01960784 0.83137255
v -0.00420400 -0.01584424 0.01721736 0.08627451 0.01960784 0.83137255
v 0.07553096 -0.01621083 0.01715494 0.08627451 0.01960784 0.83137255
v 0.07591450 -0.01619673 0.01706301 0.08627451 0.01960784 0.83137255
v 0.07627406 -0.01616853 0.01691287 0.08627451 0.01960784 0.83137255
v 0.07660166 -0.01612976 0.01670960 0.08627451 0.01960784 0.83137255
v 0.07688931 -0.01608393 0.01645825 0.08627451 0.01960784 0.83137255
v 0.07711304 -0.01603106 0.01616641 0.08627451 0.01960784 0.83137255
v 0.07728083 -0.01597114 0.01584506 0.08627451 0.01960784 0.83137255
v 0.07738471 -0.01590769 0.01550093 0.08627451 0.01960784 0.83137255
v 0.07742466 -0.01584424 0.00860147 0.08627451 0.01960784 0.83137255
v 0.07741667 -0.01592179 0.00860147 0.08627451 0.01960784 0.83137255
v 0.07738471 -0.01597114 0.01548490 0.08627451 0.01960784 0.83137255
v 0.07738471 -0.01603106 0.01545876 0.08627451 0.01960784 0.83137255
v 0.07738471 -0.01608393 0.01542249 0.08627451 0.01960784 0.83137255
v 0.07738471 -0.01612976 0.01537863 0.08627451 0.01960784 0.83137255
v 0.07738471 -0.01616853 0.01532718 0.08627451 0.01960784 0.83137255
v 0.07738471 -0.01619673 0.01526982 0.08627451 0.01960784 0.83137255
v 0.07738471 -0.01621083 0.01520994 0.08627451 0.01960784 0.83137255
v 0.07738471 -0.01621788 0.01514752 0.08627451 0.01960784 0.83137255
v 0.07688931 -0.01723304 0.00860147 0.08627451 0.01960784 0.83137255
v 0.07706510 -0.01698982 0.00860147 0.08627451 0.01960784 0.83137255
v 0.07711304 -0.01692285 0.01514752 0.08627451 0.01960784 0.83137255
v 0.07711304 -0.01690522 0.01532718 0.08627451 0.01960784 0.83137255
v 0.07711304 -0.01685940 0.01550093 0.08627451 0.01960784 0.83137255
v 0.07688931 -0.01690522 0.01600278 0.08627451 0.01960784 0.83137255
v 0.07660166 -0.01710967 0.01616641 0.08627451 0.01960784 0.83137255
v 0.07711304 -0.01677833 0.01566456 0.08627451 0.01960784 0.83137255
v 0.07711304 -0.01666906 0.01581301 0.08627451 0.01960784 0.83137255
v 0.07553096 -0.01690522 0.01691287 0.08627451 0.01960784 0.83137255
v 0.07513145 -0.01692285 0.01694071 0.08627451 0.01960784 0.83137255
v 0.07591450 -0.01685940 0.01683190 0.08627451 0.01960784 0.83137255
v 0.07660166 -0.01690522 0.01636209 0.08627451 0.01960784 0.83137255
v 0.07660166 -0.01666906 0.01652066 0.08627451 0.01960784 0.83137255
v 0.07627406 -0.01677833 0.01670032 0.08627451 0.01960784 0.83137255
v 0.01971089 -0.01752560 0.01644138 0.08627451 0.01960784 0.83137255
v 0.05665793 -0.01719426 0.01675936 0.08627451 0.01960784 0.83137255
v -0.00420400 -0.01723304 0.01673322 0.08627451 0.01960784 0.83137255
v -0.00420400 -0.01735641 0.01661513 0.08627451 0.01960784 0.83137255
v 0.03817642 -0.01612271 0.01719458 0.08627451 0.01960784 0.83137255
v 0.05665793 -0.01617205 0.01719037 0.08627451 0.01960784 0.83137255
v 0.01971089 -0.01589006 0.01721398 0.08627451 0.01960784 0.83137255
v -0.00420400 -0.01620378 0.01718784 0.08627451 0.01960784 0.83137255
v 0.03817642 -0.01630952 0.01716338 0.08627451 0.01960784 0.83137255
v 0.05665793 -0.01635535 0.01715157 0.08627451 0.01960784 0.83137255
v 0.07513145 -0.01658094 0.01709253 0.08627451 0.01960784 0.83137255
v 0.07553096 -0.01657036 0.01706301 0.08627451 0.01960784 0.83137255
v -0.00420400 -0.01621788 0.01718615 0.08627451 0.01960784 0.83137255
v -0.00420400 -0.01623198 0.01718278 0.08627451 0.01960784 0.83137255
v -0.00420400 -0.01585482 0.01721651 0.08627451 0.01960784 0.83137255
v 0.07591450 -0.01653864 0.01697529 0.08627451 0.01960784 0.83137255
v 0.07627406 -0.01648224 0.01683190 0.08627451 0.01960784 0.83137255
v 0.07660166 -0.01640822 0.01663790 0.08627451 0.01960784 0.83137255
v 0.07688931 -0.01631657 0.01639752 0.08627451 0.01960784 0.83137255
v 0.07711304 -0.01621083 0.01612002 0.08627451 0.01960784 0.83137255
v 0.07728083 -0.01609451 0.01581301 0.08627451 0.01960784 0.83137255
v 0.07738471 -0.01621788 0.00860147 0.08627451 0.01960784 0.83137255
v 0.07728083 -0.01621083 0.01576071 0.08627451 0.01960784 0.83137255
v 0.07728083 -0.01631657 0.01568986 0.08627451 0.01960784 0.83137255
v 0.07728083 -0.01640822 0.01560214 0.08627451 0.01960784 0.83137255
v 0.07728083 -0.01648224 0.01550093 0.08627451 0.01960784 0.83137255
v 0.07728083 -0.01653864 0.01538959 0.08627451 0.01960784 0.83137255
v 0.07728083 -0.01657036 0.01526982 0.08627451 0.01960784 0.83137255
v 0.07730481 -0.01650339 0.00860147 0.08627451 0.01960784 0.83137255
v 0.07728083 -0.01658094 0.01514752 0.08627451 0.01960784 0.83137255
v 0.07711304 -0.01692285 0.00860147 0.08627451 0.01960784 0.83137255
v 0.07715299 -0.01684883 0.00860147 0.08627451 0.01960784 0.83137255
v 0.07724887 -0.01665496 0.00860147 0.08627451 0.01960784 0.83137255
v 0.07688931 -0.01673603 0.01616641 0.08627451 0.01960784 0.83137255
v 0.07711304 -0.01653864 0.01594037 0.08627451 0.01960784 0.83137255
v -0.00420400 -0.01659504 0.01708747 0.08627451 0.01960784 0.83137255
v -0.00420400 -0.01661971 0.01707650 0.08627451 0.01960784 0.83137255
v 0.00122939 -0.01675366 0.01701662 0.08627451 0.01960784 0.83137255
v -0.00420400 -0.01692285 0.01694071 0.08627451 0.01960784 0.83137255
v -0.00420400 -0.01706737 0.01684455 0.08627451 0.01960784 0.83137255
v 0.03817642 -0.01715549 0.01678551 0.08627451 0.01960784 0.83137255
v 0.07688931 -0.01653864 0.01629968 0.08627451 0.01960784 0.83137255
v 0.00122939 -0.01603106 0.01720218 0.08627451 0.01960784 0.83137255
v 0.00122939 -0.01640117 0.01713976 0.08627451 0.01960784 0.83137255
v -0.00420400 -0.01656684 0.01709674 0.08627451 0.01960784 0.83137255
v -0.00420400 -0.01658094 0.01709253 0.08627451 0.01960784 0.83137255
v -0.00420400 -0.01643994 0.01712964 0.08627451 0.01960784 0.83137255
v 0.07711304 -0.01638355 0.01604411 0.08627451 0.01960784 0.83137255
v 0.07728083 -0.01658094 0.00860147 0.08627451 0.01960784 0.83137255
f 1 2 3
f 1 3 4
f 1 4 5
f 1 5 6
f 1 6 7
f 1 7 8
f 1 8 9
f 1 9 10
f 1 10 11
f 1 11 12
f 1 12 13
f 1 13 28
f 1 28 14
f 1 14 30
f 1 30 15
f 1 15 16
f 1 16 2
f 2 4 3
f 2 16 17
f 2 17 4
f 4 18 19
f 4 19 20
f 4 20 5
f 4 17 18
f 5 20 21
f 5 21 6
f 6 21 7
f 7 21 22
f 7 22 23
f 7 23 8
f 8 23 24
f 8 24 9
f 9 24 25
f 9 25 10
f 10 25 11
f 11 25 26
f 11 26 27
f 11 27 12
f 12 27 13
f 13 27 29
f 13 29 47
f 13 47 28
f 14 28 47
f 14 47 48
f 14 48 69
f 14 69 68
f 14 68 89
f 14 89 88
f 14 88 109
f 14 109 108
f 14 108 136
f 14 136 135
f 14 135 134
f 14 134 159
f 14 159 158
f 14 158 190
f 14 190 189
f 14 189 227
f 14 227 260
f 14 260 261
f 14 261 306
f 14 306 313
f 14 313 333
f 14 333 317
f 14 317 316
f 14 316 315
f 14 315 271
f 14 271 270
f 14 270 230
f 14 230 229
f 14 229 191
f 14 191 170
f 14 170 144
f 14 144 116
f 14 116 92
f 14 92 71
f 14 71 49
f 14 49 30
f 15 30 49
f 15 49 70
f 15 70 91
f 15 91 115
f 15 115 143
f 15 143 169
f 15 169 168
f 15 168 205
f 15 205 204
f 15 204 203
f 15 203 202
f 15 202 247
f 15 247 244
f 15 244 243
f 15 243 288
f 15 288 287
f 15 287 324
f 15 324 323
f 15 323 321
f 15 321 320
f 15 320 330
f 15 330 329
f 15 329 331
f 15 331 298
f 15 298 297
f 15 297 292
f 15 292 299
f 15 299 251
f 15 251 211
f 15 211 248
f 15 248 214
f 15 214 179
f 15 179 178
f 15 178 177
f 15 177 180
f 15 180 148
f 15 148 147
f 15 147 124
f 15 124 122
f 15 122 121
f 15 121 125
f 15 125 98
f 15 98 95
f 15 95 77
f 15 77 79
f 15 79 58
f 15 58 57
f 15 57 56
f 15 56 59
f 15 59 37
f 15 37 36
f 15 36 33
f 15 33 31
f 15 31 17
f 15 17 16
f 17 31 32
f 17 32 18
f 18 32 33
f 18 33 19
f 19 34 51
f 19 51 35
f 19 35 20
f 19 33 36
f 19 36 37
f 19 37 34
f 20 35 38
f 20 38 21
f 21 38 39
f 21 39 40
f 21 40 22
f 22 40 23
f 23 40 41
f 23 41 42
f 23 42 24
f 24 42 25
f 25 42 43
f 25 43 44
f 25 44 26
f 26 44 27
f 27 44 45
f 27 45 46
f 27 46 29
f 29 46 48
f 29 48 47
f 31 33 32
f 34 50 51
f 34 37 52
f 34 52 50
f 35 53 54
f 35 54 55
f 35 55 38
f 35 51 56
f 35 56 57
f 35 57 58
f 35 58 53
f 37 59 52
f 38 55 39
f 39 55 60
f 39 60 40
f 40 60 61
f 40 61 62
f 40 62 41
f 41 62 42
f 42 62 63
f 42 63 64
f 42 64 43
f 43 64 44
f 44 64 65
f 44 65 66
f 44 66 45
f 45 66 46
f 46 66 67
f 46 67 68
f 46 68 69
f 46 69 48
f 49 71 90
f 49 90 70
f 50 52 59
f 50 59 56
f 50 56 51
f 53 72 54
f 53 58 73
f 53 73 93
f 53 93 72
f 54 74 75
f 54 75 76
f 54 76 55
f 54 72 93
f 54 93 77
f 54 77 94
f 54 94 74
f 55 76 78
f 55 78 60
f 58 79 80
f 58 80 73
f 60 78 81
f 60 81 61
f 61 81 62
f 62 81 82
f 62 82 83
f 62 83 63
f 63 83 64
f 64 83 84
f 64 84 85
f 64 85 65
f 65 85 66
f 66 85 86
f 66 86 87
f 66 87 67
f 67 88 89
f 67 89 68
f 67 87 88
f 70 90 91
f 71 92 110
f 71 110 90
f 73 80 93
f 74 94 95
f 74 95 75
f 75 96 117
f 75 117 97
f 75 97 76
f 75 95 98
f 75 98 118
f 75 118 96
f 76 99 100
f 76 100 78
f 76 97 99
f 77 93 79
f 77 95 94
f 78 100 81
f 79 93 80
f 81 101 102
f 81 102 82
f 81 100 101
f 82 102 83
f 83 102 103
f 83 103 104
f 83 104 84
f 84 104 85
f 85 104 105
f 85 105 86
f 86 105 106
f 86 106 87
f 87 106 107
f 87 107 108
f 87 108 109
f 87 109 88
f 90 110 111
f 90 111 112
f 90 112 113
f 90 113 114
f 90 114 91
f 91 114 115
f 92 116 137
f 92 137 110
f 96 118 117
f 97 119 120
f 97 120 99
f 97 117 121
f 97 121 122
f 97 122 123
f 97 123 124
f 97 124 119
f 98 125 118
f 99 120 100
f 100 126 127
f 100 127 101
f 100 120 126
f 101 127 102
f 102 128 129
f 102 129 103
f 102 127 128
f 103 129 104
f 104 129 130
f 104 130 131
f 104 131 105
f 105 131 132
f 105 132 106
f 106 132 107
f 107 132 133
f 107 133 134
f 107 134 135
f 107 135 136
f 107 136 108
f 110 137 111
f 111 138 139
f 111 139 112
f 111 137 140
f 111 140 138
f 112 139 141
f 112 141 115
f 112 115 114
f 112 114 113
f 115 142 143
f 115 141 142
f 116 144 137
f 117 118 121
f 118 125 121
f 119 145 146
f 119 146 120
f 119 124 147
f 119 147 148
f 119 148 145
f 120 146 149
f 120 149 150
f 120 150 126
f 122 124 123
f 126 150 127
f 127 150 151
f 127 151 152
f 127 152 128
f 128 152 129
f 129 153 130
f 129 152 153
f 130 154 155
f 130 155 131
f 130 153 154
f 131 155 156
f 131 156 132
f 132 156 133
f 133 156 157
f 133 157 158
f 133 158 159
f 133 159 134
f 137 144 160
f 137 160 161
f 137 161 140
f 138 162 139
f 138 140 163
f 138 163 162
f 139 162 164
f 139 164 165
f 139 165 166
f 139 166 167
f 139 167 168
f 139 168 169
f 139 169 141
f 140 161 163
f 141 169 142
f 142 169 143
f 144 170 160
f 145 171 146
f 145 148 172
f 145 172 171
f 146 173 174
f 146 174 175
f 146 175 176
f 146 176 149
f 146 171 177
f 146 177 178
f 146 178 179
f 146 179 173
f 148 180 172
f 149 176 150
f 150 176 181
f 150 181 182
f 150 182 151
f 151 182 152
f 152 182 183
f 152 183 184
f 152 184 153
f 153 184 154
f 154 184 185
f 154 185 155
f 155 185 186
f 155 186 156
f 156 186 187
f 156 187 188
f 156 188 157
f 157 188 189
f 157 189 190
f 157 190 158
f 160 170 191
f 160 191 192
f 160 192 193
f 160 193 161
f 161 193 194
f 161 194 195
f 161 195 163
f 162 196 164
f 162 163 197
f 162 197 198
f 162 198 196
f 163 195 199
f 163 199 197
f 164 196 200
f 164 200 201
f 164 201 202
f 164 202 203
f 164 203 204
f 164 204 165
f 165 204 166
f 166 204 205
f 166 205 167
f 167 205 168
f 171 172 177
f 172 180 177
f 173 206 174
f 173 179 206
f 174 206 207
f 174 207 208
f 174 208 211
f 174 211 175
f 175 209 210
f 175 210 176
f 175 211 251
f 175 251 209
f 176 210 212
f 176 212 213
f 176 213 181
f 179 214 215
f 179 215 208
f 179 208 207
f 179 207 206
f 181 216 217
f 181 217 182
f 181 213 216
f 182 218 219
f 182 219 183
f 182 217 218
f 183 219 220
f 183 220 221
f 183 221 184
f 184 221 222
f 184 222 185
f 185 222 223
f 185 223 186
f 186 224 225
f 186 225 187
f 186 223 224
f 187 226 228
f 187 228 188
f 187 225 226
f 188 227 189
f 188 228 260
f 188 260 227
f 191 229 192
f 192 229 230
f 192 230 231
f 192 231 193
f 193 231 232
f 193 232 194
f 194 232 233
f 194 233 234
f 194 234 235
f 194 235 199
f 194 199 195
f 196 236 200
f 196 198 236
f 197 199 198
f 198 199 237
f 198 237 238
f 198 238 239
f 198 239 236
f 199 235 237
f 200 240 201
f 200 236 241
f 200 241 242
f 200 242 243
f 200 243 244
f 200 244 285
f 200 285 240
f 201 240 285
f 201 285 245
f 201 245 202
f 202 245 246
f 202 246 247
f 208 215 248
f 208 248 211
f 209 249 250
f 209 250 212
f 209 212 210
f 209 251 291
f 209 291 249
f 212 252 253
f 212 253 216
f 212 216 213
f 212 250 252
f 214 248 215
f 216 253 218
f 216 218 217
f 218 253 254
f 218 254 255
f 218 255 220
f 218 220 219
f 220 255 221
f 221 255 256
f 221 256 222
f 222 256 257
f 222 257 258
f 222 258 224
f 222 224 223
f 224 258 226
f 224 226 225
f 226 258 259
f 226 259 228
f 228 261 260
f 228 259 262
f 228 262 263
f 228 263 264
f 228 264 265
f 228 265 266
f 228 266 267
f 228 267 268
f 228 268 269
f 228 269 261
f 230 270 231
f 231 270 271
f 231 271 272
f 231 272 232
f 232 272 273
f 232 273 274
f 232 274 233
f 233 274 234
f 234 275 276
f 234 276 235
f 234 274 277
f 234 277 278
f 234 278 275
f 235 276 237
f 236 279 280
f 236 280 241
f 236 239 281
f 236 281 279
f 237 276 238
f 238 276 282
f 238 282 283
f 238 283 284
f 238 284 281
f 238 281 239
f 241 280 286
f 241 286 325
f 241 325 287
f 241 287 288
f 241 288 242
f 242 288 243
f 244 247 285
f 245 285 246
f 246 285 247
f 249 289 290
f 249 290 250
f 249 291 292
f 249 292 289
f 250 293 294
f 250 294 295
f 250 295 296
f 250 296 252
f 250 290 292
f 250 292 297
f 250 297 298
f 250 298 293
f 251 299 291
f 252 296 253
f 253 300 254
f 253 296 300
f 254 300 301
f 254 301 302
f 254 302 255
f 255 302 256
f 256 302 303
f 256 303 304
f 256 304 257
f 257 304 258
f 258 304 305
f 258 305 262
f 258 262 259
f 261 269 306
f 262 305 263
f 263 305 307
f 263 307 308
f 263 308 264
f 264 308 309
f 264 309 265
f 265 309 266
f 266 309 310
f 266 310 311
f 266 311 267
f 267 311 312
f 267 312 268
f 268 312 269
f 269 313 306
f 269 312 314
f 269 314 313
f 271 315 272
f 272 315 316
f 272 316 317
f 272 317 314
f 272 314 312
f 272 312 273
f 273 312 274
f 274 312 311
f 274 311 277
f 275 318 276
f 275 278 319
f 275 319 318
f 276 318 282
f 277 311 310
f 277 310 309
f 277 309 278
f 278 309 319
f 279 296 280
f 279 281 296
f 280 296 295
f 280 295 320
f 280 320 321
f 280 321 322
f 280 322 323
f 280 323 324
f 280 324 325
f 280 325 286
f 281 284 300
f 281 300 296
f 282 318 326
f 282 326 283
f 283 302 284
f 283 326 302
f 284 302 301
f 284 301 300
f 287 325 324
f 289 292 290
f 291 299 327
f 291 327 292
f 292 327 299
f 293 298 328
f 293 328 294
f 294 328 329
f 294 329 295
f 295 329 330
f 295 330 320
f 298 331 328
f 302 326 303
f 303 326 332
f 303 332 304
f 304 332 305
f 305 332 307
f 307 332 319
f 307 319 308
f 308 319 309
f 313 314 333
f 314 317 333
f 318 319 326
f 319 332 326
f 321 323 322
f 328 331 329