# https://github.com/mikedh/trimesh
v 0.07512437 0.01800397 0.00860147 0.54509804 0.71372549 0.60000000
v 0.07552650 0.01797064 0.00860147 0.54509804 0.71372549 0.60000000
v 0.07512437 0.01800397 -0.00106449 0.54509804 0.71372549 0.60000000
v -0.07267797 0.01800397 0.00860147 0.54509804 0.71372549 0.60000000
v 0.07552650 0.01797064 -0.00106449 0.54509804 0.71372549 0.60000000
v 0.07582437 0.01789389 0.00860147 0.54509804 0.71372549 0.60000000
v 0.07570522 0.01792520 -0.00106449 0.54509804 0.71372549 0.60000000
v -0.07267797 0.01800397 -0.00106449 0.54509804 0.71372549 0.60000000
v -0.07308009 0.01797165 0.00860147 0.54509804 0.71372549 0.60000000
v 0.07589883 0.01787268 0.00860147 0.54509804 0.71372549 0.60000000
v 0.07589883 0.01787369 -0.00003601 0.54509804 0.71372549 0.60000000
v 0.07589883 0.01787369 -0.00106449 0.54509804 0.71372549 0.60000000
v -0.07308009 0.01797165 -0.00106449 0.54509804 0.71372549 0.60000000
v -0.07328860 0.01791914 -0.00106449 0.54509804 0.71372549 0.60000000
v -0.07346732 0.01787369 0.00860147 0.54509804 0.71372549 0.60000000
v 0.07598820 0.01783935 0.00860147 0.54509804 0.71372549 0.60000000
v 0.07609244 0.01779391 -0.00003601 0.54509804 0.71372549 0.60000000
v 0.07627116 0.01771412 -0.00106449 0.54509804 0.71372549 0.60000000
v -0.07346732 0.01787369 -0.00106449 0.54509804 0.71372549 0.60000000
v -0.07375030 0.01774846 0.00860147 0.54509804 0.71372549 0.60000000
v 0.07627116 0.01771412 0.00860147 0.54509804 0.71372549 0.60000000
v 0.07634563 0.01766767 0.00860147 0.54509804 0.71372549 0.60000000
v 0.07659883 0.01749800 -0.00106449 0.54509804 0.71372549 0.60000000
v -0.07382476 0.01771412 -0.00106449 0.54509804 0.71372549 0.60000000
v -0.07382476 0.01771412 0.00860147 0.54509804 0.71372549 0.60000000
v 0.07659883 0.01749800 0.00860147 0.54509804 0.71372549 0.60000000
v 0.07673286 0.01737378 -0.00106449 0.54509804 0.71372549 0.60000000
v -0.07389923 0.01766767 0.00860147 0.54509804 0.71372549 0.60000000
v -0.07415242 0.01749800 -0.00106449 0.54509804 0.71372549 0.60000000
v 0.07682223 0.01728895 0.00860147 0.54509804 0.71372549 0.60000000
v 0.07686690 0.01723139 -0.00106449 0.54509804 0.71372549 0.60000000
v -0.07415242 0.01749800 0.00860147 0.54509804 0.71372549 0.60000000
v -0.07443539 0.01723240 -0.00106449 0.54509804 0.71372549 0.60000000
v 0.07692648 0.01716574 0.00860147 0.54509804 0.71372549 0.60000000
v 0.07700095 0.01706677 -0.00106449 0.54509804 0.71372549 0.60000000
v -0.07443539 0.01723240 0.00860147 0.54509804 0.71372549 0.60000000
v -0.07450986 0.01713645 0.00860147 0.54509804 0.71372549 0.60000000
v -0.07456943 0.01705061 -0.00106449 0.54509804 0.71372549 0.60000000
v 0.07710520 0.01692336 0.00860147 0.54509804 0.71372549 0.60000000
v 0.07710520 0.01692336 -0.00106449 0.54509804 0.71372549 0.60000000
v -0.07456943 0.01705061 0.00860147 0.54509804 0.71372549 0.60000000
v -0.07456943 0.00779070 -0.00106449 0.54509804 0.71372549 0.60000000
v 0.07728392 0.01658201 0.00860147 0.54509804 0.71372549 0.60000000
v 0.07719456 0.01676380 -0.00106449 0.54509804 0.71372549 0.60000000
v -0.07456943 0.00779070 0.00860147 0.54509804 0.71372549 0.60000000
v -0.00334908 0.00768769 -0.00106449 0.54509804 0.71372549 0.60000000
v -0.00382567 0.00768769 0.00860147 0.54509804 0.71372549 0.60000000
v 0.07728392 0.01658201 -0.00106449 0.54509804 0.71372549 0.60000000
v 0.07735839 0.01629621 0.00860147 0.54509804 0.71372549 0.60000000
v 0.07758179 0.00768769 -0.00106449 0.54509804 0.71372549 0.60000000
v 0.07741796 0.00768769 0.00860147 0.54509804 0.71372549 0.60000000
v 0.07737328 0.01621844 -0.00106449 0.54509804 0.71372549 0.60000000
v 0.07737328 0.01621844 0.00860147 0.54509804 0.71372549 0.60000000
v 0.07758179 0.01439656 -0.00106449 0.54509804 0.71372549 0.60000000
v 0.07758179 0.00768769 0.00858444 0.54509804 0.71372549 0.60000000
v 0.07741796 0.01584275 0.00860147 0.54509804 0.71372549 0.60000000
v 0.07738818 0.01613765 0.00860147 0.54509804 0.71372549 0.60000000
v 0.07758179 0.01439656 0.00858444 0.54509804 0.71372549 0.60000000
f 1 2 5
f 1 5 3
f 1 3 8
f 1 8 4
f 1 4 9
f 1 9 15
f 1 15 20
f 1 20 25
f 1 25 28
f 1 28 32
f 1 32 36
f 1 36 37
f 1 37 41
f 1 41 45
f 1 45 47
f 1 47 51
f 1 51 56
f 1 56 57
f 1 57 53
f 1 53 49
f 1 49 43
f 1 43 39
f 1 39 34
f 1 34 30
f 1 30 26
f 1 26 22
f 1 22 21
f 1 21 16
f 1 16 10
f 1 10 6
f 1 6 2
f 2 6 7
f 2 7 5
f 3 5 7
f 3 7 12
f 3 12 18
f 3 18 23
f 3 23 27
f 3 27 31
f 3 31 35
f 3 35 40
f 3 40 44
f 3 44 48
f 3 48 52
f 3 52 54
f 3 54 50
f 3 50 46
f 3 46 42
f 3 42 38
f 3 38 33
f 3 33 29
f 3 29 24
f 3 24 19
f 3 19 14
f 3 14 13
f 3 13 8
f 4 8 13
f 4 13 9
f 6 10 11
f 6 11 12
f 6 12 7
f 9 13 14
f 9 14 15
f 10 16 11
f 11 16 12
f 12 16 17
f 12 17 18
f 14 19 15
f 15 19 20
f 16 21 17
f 17 21 18
f 18 21 22
f 18 22 23
f 19 24 20
f 20 24 25
f 22 26 23
f 23 26 27
f 24 28 25
f 24 29 28
f 26 30 27
f 27 30 31
f 28 29 32
f 29 33 36
f 29 36 32
f 30 34 31
f 31 34 35
f 33 37 36
f 33 38 37
f 34 39 35
f 35 39 40
f 37 38 41
f 38 42 45
f 38 45 41
f 39 43 44
f 39 44 40
f 42 46 47
f 42 47 45
f 43 48 44
f 43 49 48
f 46 50 55
f 46 55 51
f 46 51 47
f 48 49 52
f 49 53 52
f 50 54 58
f 50 58 55
f 51 55 58
f 51 58 56
f 52 53 57
f 52 57 54
f 54 57 58
f 56 58 57