# https://github.com/mikedh/trimesh
v 0.07242455 -0.01749462 -0.01648326
v 0.07242455 -0.01749951 -0.01647858
v 0.07242455 -0.01771551 -0.01618293
v 0.07242455 -0.01771843 -0.01617692
v 0.07242455 -0.01723809 -0.01672910
v 0.07242455 -0.01723320 -0.01673379
v 0.07242455 -0.01722753 -0.01673759
v 0.07242455 -0.01695300 -0.01692178
v 0.07242455 -0.01692468 -0.01694079
v 0.07242455 -0.01786592 -0.01587385
v 0.07242455 -0.01787469 -0.01585584
v 0.07242455 -0.01787177 -0.01586184
v 0.07242455 -0.01796321 -0.01553921
v 0.07242455 -0.01797216 -0.01550721
v 0.07242455 -0.01797276 -0.01550061
v 0.07242455 -0.01797397 -0.01548741
v 0.07242455 -0.01800498 -0.01514766
v 0.07242455 -0.01658334 -0.01709334
v 0.07242455 -0.01621956 -0.01718676
v 0.07242455 -0.01621267 -0.01718733
v 0.07242455 -0.01618512 -0.01718964
v 0.07242455 -0.01584438 -0.01721817
v 0.07513866 -0.01749951 -0.01647858
v 0.07539381 -0.01749951 -0.01645836
v 0.07513866 -0.01771551 -0.01618293
v 0.07533714 -0.01771551 -0.01616721
v 0.07564122 -0.01749951 -0.01639833
v 0.07513866 -0.01723320 -0.01673379
v 0.07544274 -0.01723320 -0.01670970
v 0.07513866 -0.01692468 -0.01694079
v 0.07548243 -0.01692468 -0.01691355
v 0.07573758 -0.01723320 -0.01663812
v 0.07587336 -0.01749951 -0.01630026
v 0.07608315 -0.01749951 -0.01616721
v 0.07581576 -0.01692468 -0.01683267
v 0.07612851 -0.01692468 -0.01670058
v 0.07601424 -0.01723320 -0.01652130
v 0.07626429 -0.01723320 -0.01636269
v 0.07641120 -0.01692468 -0.01652130
v 0.07513866 -0.01787469 -0.01585584
v 0.07527441 -0.01787469 -0.01584504
v 0.07540605 -0.01787469 -0.01581312
v 0.07552959 -0.01787469 -0.01576098
v 0.07564122 -0.01787469 -0.01569015
v 0.07573758 -0.01787469 -0.01560288
v 0.07552959 -0.01771551 -0.01612047
v 0.07571013 -0.01771551 -0.01604424
v 0.07513866 -0.01797216 -0.01550721
v 0.07520757 -0.01797216 -0.01550175
v 0.07527441 -0.01797216 -0.01548555
v 0.07533714 -0.01797216 -0.01545906
v 0.07539381 -0.01797216 -0.01542309
v 0.07544274 -0.01797216 -0.01537878
v 0.07513866 -0.01800498 -0.01514766
v 0.07548243 -0.01797216 -0.01532745
v 0.07551168 -0.01797216 -0.01527066
v 0.07552959 -0.01797216 -0.01521012
v 0.07553562 -0.01797216 -0.01514766
v 0.07587336 -0.01771551 -0.01594074
v 0.07601424 -0.01771551 -0.01581312
v 0.07626429 -0.01749951 -0.01600314
v 0.07612851 -0.01771551 -0.01566531
v 0.07641120 -0.01749951 -0.01581312
v 0.07581576 -0.01787469 -0.01550175
v 0.07587336 -0.01787469 -0.01538988
v 0.07590864 -0.01787469 -0.01527066
v 0.07592052 -0.01787469 -0.01514766
v 0.07621272 -0.01771551 -0.01550175
v 0.07626429 -0.01771551 -0.01532745
v 0.07628166 -0.01771551 -0.01514766
v 0.07513866 -0.01658334 -0.01709334
v 0.07551168 -0.01658334 -0.01706376
v 0.07513866 -0.01621956 -0.01718676
v 0.07513866 -0.01584438 -0.01721817
v 0.07552959 -0.01621956 -0.01715577
v 0.07553562 -0.01584438 -0.01718676
v 0.07587336 -0.01658334 -0.01697601
v 0.07621272 -0.01658334 -0.01683267
v 0.07590864 -0.01621956 -0.01706376
v 0.07592052 -0.01584438 -0.01709334
v 0.07626429 -0.01621956 -0.01691355
v 0.07628166 -0.01584438 -0.01694079
v 0.07648014 -0.01723320 -0.01616721
v 0.07665522 -0.01692468 -0.01630026
v 0.07651944 -0.01749951 -0.01560288
v 0.07658574 -0.01749951 -0.01537878
v 0.07660806 -0.01749951 -0.01514766
v 0.07665522 -0.01723320 -0.01594074
v 0.07678422 -0.01723320 -0.01569015
v 0.07685316 -0.01692468 -0.01604424
v 0.07699899 -0.01692468 -0.01576098
v 0.07686324 -0.01723320 -0.01542309
v 0.07688982 -0.01723320 -0.01514766
v 0.07708830 -0.01692468 -0.01545906
v 0.07711839 -0.01692468 -0.01514766
v 0.07651944 -0.01658334 -0.01663812
v 0.07678422 -0.01658334 -0.01639830
v 0.07658574 -0.01621956 -0.01670970
v 0.07660806 -0.01584438 -0.01673379
v 0.07686324 -0.01621956 -0.01645836
v 0.07708830 -0.01621956 -0.01616721
v 0.07688982 -0.01584438 -0.01647858
v 0.07711839 -0.01584438 -0.01618293
v 0.07699899 -0.01658334 -0.01612047
v 0.07715724 -0.01658334 -0.01581312
v 0.07725414 -0.01658334 -0.01548555
v 0.07728678 -0.01658334 -0.01514766
v 0.07725414 -0.01621956 -0.01584504
v 0.07728678 -0.01584438 -0.01585584
v 0.07735572 -0.01621956 -0.01550175
v 0.07738992 -0.01621956 -0.01514766
v 0.07738992 -0.01584438 -0.01550721
v 0.07742466 -0.01584438 -0.01514766
v 0.07742466 -0.01440399 -0.00859104
v 0.07513866 -0.01800498 0.00003615
v 0.07533714 -0.01798857 0.00003615
v 0.07553562 -0.01797216 0.00003615
v 0.07572807 -0.01792344 0.00003615
v 0.07592052 -0.01787469 0.00003615
v 0.07610109 -0.01779510 0.00003615
v 0.07628166 -0.01771551 0.00003615
v 0.07644486 -0.01760751 0.00003615
v 0.07660806 -0.01749951 0.00003615
v 0.07674894 -0.01736634 0.00003615
v 0.07688982 -0.01723320 0.00003615
v 0.07700412 -0.01707894 0.00003615
v 0.07711839 -0.01692468 0.00003615
v 0.07720260 -0.01675401 0.00003615
v 0.07728678 -0.01658334 0.00003615
v 0.07733835 -0.01640145 0.00003615
v 0.07738992 -0.01621956 0.00003615
v 0.07740729 -0.01603197 0.00003615
v 0.07742466 -0.01584438 0.00003615
v 0.07742466 -0.01512420 -0.00324216
v 0.07742466 -0.00072021 -0.01186935
v 0.08640309 -0.00757248 -0.00823596
v 0.07742466 -0.01440399 0.00866334
v 0.07242455 -0.01800498 0.01521999
v 0.07242455 -0.01800438 0.01522659
v 0.07242455 -0.01797397 0.01555973
v 0.07242455 -0.01797216 0.01557954
v 0.07242455 -0.01787469 0.01592814
v 0.07242455 -0.01771551 0.01625526
v 0.07242455 -0.01749951 0.01655088
v 0.07242455 -0.01725765 0.01678266
v 0.07242455 -0.01723809 0.01680141
v 0.07242455 -0.01723320 0.01680609
v 0.07242455 -0.01692468 0.01701312
v 0.07242455 -0.01691841 0.01701592
v 0.07242455 -0.01660217 0.01715724
v 0.07242455 -0.01658964 0.01716284
v 0.07242455 -0.01658337 0.01716564
v 0.07242455 -0.01621956 0.01725906
v 0.07242455 -0.01584441 0.01729053
v 0.07513866 -0.01800498 0.01521999
v 0.07513866 -0.01797216 0.01557954
v 0.07553562 -0.01797216 0.01521999
v 0.07553562 -0.01793985 0.01557405
v 0.07513866 -0.01787469 0.01592814
v 0.07553562 -0.01784385 0.01591740
v 0.07592052 -0.01787469 0.01521999
v 0.07592052 -0.01784385 0.01555785
v 0.07628166 -0.01771551 0.01521999
v 0.07628166 -0.01768710 0.01553136
v 0.07592052 -0.01775226 0.01588545
v 0.07592052 -0.01760268 0.01619283
v 0.07628166 -0.01760268 0.01583328
v 0.07628166 -0.01746483 0.01611654
v 0.07513866 -0.01771551 0.01625526
v 0.07513866 -0.01749951 0.01655088
v 0.07553562 -0.01768710 0.01623951
v 0.07553562 -0.01747437 0.01653066
v 0.07513866 -0.01723320 0.01680609
v 0.07513866 -0.01692468 0.01701312
v 0.07553562 -0.01721211 0.01678200
v 0.07553562 -0.01690827 0.01698588
v 0.07592052 -0.01739970 0.01647063
v 0.07592052 -0.01714944 0.01671045
v 0.07628166 -0.01727775 0.01637262
v 0.07628166 -0.01704714 0.01659360
v 0.07513866 -0.01658337 0.01716564
v 0.07553562 -0.01657212 0.01713609
v 0.07513866 -0.01621956 0.01725906
v 0.07513866 -0.01584441 0.01729053
v 0.07553562 -0.01621389 0.01722810
v 0.07553562 -0.01584441 0.01725906
v 0.07592052 -0.01685955 0.01690497
v 0.07592052 -0.01653879 0.01704831
v 0.07628166 -0.01677996 0.01677288
v 0.07628166 -0.01648437 0.01690497
v 0.07592052 -0.01619694 0.01713609
v 0.07592052 -0.01584441 0.01716564
v 0.07628166 -0.01616931 0.01698588
v 0.07628166 -0.01584441 0.01701312
v 0.07660806 -0.01749951 0.01521999
v 0.07660806 -0.01747437 0.01549542
v 0.07688982 -0.01723320 0.01521999
v 0.07688982 -0.01721211 0.01545108
v 0.07711839 -0.01692468 0.01521999
v 0.07711839 -0.01690827 0.01539975
v 0.07660806 -0.01739970 0.01576245
v 0.07660806 -0.01727775 0.01601307
v 0.07688982 -0.01714944 0.01567518
v 0.07688982 -0.01704714 0.01588545
v 0.07688982 -0.01690827 0.01607550
v 0.07660806 -0.01711227 0.01623951
v 0.07660806 -0.01690827 0.01643502
v 0.07711839 -0.01685955 0.01557405
v 0.07711839 -0.01677996 0.01573764
v 0.07711839 -0.01667196 0.01588545
v 0.07711839 -0.01653879 0.01601307
v 0.07711839 -0.01638453 0.01611654
v 0.07711839 -0.01621389 0.01619283
v 0.07728678 -0.01658337 0.01521999
v 0.07728678 -0.01657212 0.01534296
v 0.07728678 -0.01653879 0.01546221
v 0.07728678 -0.01648437 0.01557405
v 0.07728678 -0.01641048 0.01567518
v 0.07728678 -0.01631940 0.01576245
v 0.07738992 -0.01621956 0.01521999
v 0.07738992 -0.01621389 0.01528242
v 0.07738992 -0.01619694 0.01534296
v 0.07738992 -0.01616931 0.01539975
v 0.07738992 -0.01613181 0.01545108
v 0.07738992 -0.01608555 0.01549542
v 0.07742466 -0.01584441 0.01521999
v 0.07738992 -0.01603200 0.01553136
v 0.07738992 -0.01597272 0.01555785
v 0.07738992 -0.01590954 0.01557405
v 0.07738992 -0.01584441 0.01557954
v 0.07728678 -0.01621389 0.01583328
v 0.07728678 -0.01609713 0.01588545
v 0.07728678 -0.01597272 0.01591740
v 0.07728678 -0.01584441 0.01592814
v 0.07660806 -0.01667196 0.01659360
v 0.07660806 -0.01641048 0.01671045
v 0.07688982 -0.01673709 0.01623951
v 0.07688982 -0.01653879 0.01637262
v 0.07688982 -0.01631940 0.01647063
v 0.07688982 -0.01608555 0.01653066
v 0.07711839 -0.01603200 0.01623951
v 0.07711839 -0.01584441 0.01625526
v 0.07688982 -0.01584441 0.01655088
v 0.07660806 -0.01613181 0.01678200
v 0.07660806 -0.01584441 0.01680609
v 0.08640309 -0.00683148 0.00830829
v 0.07513866 0.00000000 -0.01721817
v 0.07533714 0.00000000 -0.01720245
v 0.07553562 0.00000000 -0.01718673
v 0.07572807 0.00000000 -0.01714005
v 0.07592052 0.00000000 -0.01709334
v 0.07610109 0.00000000 -0.01701705
v 0.07628166 0.00000000 -0.01694079
v 0.07644486 0.00000000 -0.01683729
v 0.07660806 0.00000000 -0.01673379
v 0.07674894 0.00000000 -0.01660617
v 0.07688982 0.00000000 -0.01647858
v 0.07700412 0.00000000 -0.01633074
v 0.07711839 0.00000000 -0.01618293
v 0.07720260 0.00000000 -0.01601937
v 0.07728678 0.00000000 -0.01585584
v 0.07733835 0.00000000 -0.01568151
v 0.07738992 0.00000000 -0.01550721
v 0.07740729 0.00000000 -0.01532745
v 0.07742466 0.00000000 -0.01514766
v 0.07742466 0.00000000 -0.00859104
v 0.07242455 0.01584438 -0.01721817
v 0.07242455 0.01621956 -0.01718673
v 0.07242455 0.01623960 -0.01718159
v 0.07242455 0.01657666 -0.01709503
v 0.07242455 0.01658334 -0.01709331
v 0.07242455 0.01658961 -0.01709051
v 0.07242455 0.01690588 -0.01694919
v 0.07242455 0.01691841 -0.01694359
v 0.07242455 0.01692468 -0.01694079
v 0.07242455 0.01723320 -0.01673376
v 0.07242455 0.01724786 -0.01671970
v 0.07242455 0.01749462 -0.01648326
v 0.07242455 0.01749951 -0.01647858
v 0.07242455 0.01771551 -0.01618290
v 0.07242455 0.01771843 -0.01617690
v 0.07242455 0.01787177 -0.01586181
v 0.07242455 0.01787469 -0.01585581
v 0.07242455 0.01796321 -0.01553921
v 0.07242455 0.01797216 -0.01550721
v 0.07242455 0.01800317 -0.01516746
v 0.07242455 0.01800438 -0.01515426
v 0.07242455 0.01800498 -0.01514766
v 0.07513866 0.01584438 -0.01721817
v 0.07513866 0.01621956 -0.01718673
v 0.07553562 0.01584438 -0.01718673
v 0.07553562 0.01621386 -0.01715577
v 0.07513866 0.01658334 -0.01709331
v 0.07553562 0.01657212 -0.01706376
v 0.07592052 0.01584438 -0.01709331
v 0.07592052 0.01619694 -0.01706376
v 0.07628166 0.01584438 -0.01694079
v 0.07628166 0.01616931 -0.01691355
v 0.07592052 0.01653879 -0.01697598
v 0.07592052 0.01685952 -0.01683267
v 0.07628166 0.01648434 -0.01683267
v 0.07628166 0.01677996 -0.01670055
v 0.07513866 0.01692468 -0.01694079
v 0.07513866 0.01723320 -0.01673376
v 0.07553562 0.01690827 -0.01691355
v 0.07553562 0.01721208 -0.01670967
v 0.07513866 0.01749951 -0.01647858
v 0.07513866 0.01771551 -0.01618290
v 0.07553562 0.01747434 -0.01645833
v 0.07553562 0.01768707 -0.01616721
v 0.07592052 0.01714944 -0.01663812
v 0.07592052 0.01739967 -0.01639830
v 0.07628166 0.01704714 -0.01652127
v 0.07628166 0.01727775 -0.01630026
v 0.07513866 0.01787469 -0.01585581
v 0.07553562 0.01784382 -0.01584504
v 0.07513866 0.01797216 -0.01550721
v 0.07513866 0.01800498 -0.01514766
v 0.07553562 0.01793982 -0.01550175
v 0.07553562 0.01797216 -0.01514766
v 0.07592052 0.01760268 -0.01612047
v 0.07592052 0.01775223 -0.01581312
v 0.07628166 0.01746483 -0.01604421
v 0.07628166 0.01760268 -0.01576095
v 0.07592052 0.01784382 -0.01548552
v 0.07592052 0.01787469 -0.01514766
v 0.07628166 0.01768707 -0.01545903
v 0.07628166 0.01771551 -0.01514766
v 0.07660806 0.01584438 -0.01673376
v 0.07660806 0.01613178 -0.01670967
v 0.07688982 0.01584438 -0.01647858
v 0.07711839 0.01584438 -0.01618290
v 0.07711839 0.01603197 -0.01616721
v 0.07688982 0.01608555 -0.01645833
v 0.07660806 0.01641048 -0.01663812
v 0.07660806 0.01667193 -0.01652127
v 0.07688982 0.01631937 -0.01639830
v 0.07688982 0.01653879 -0.01630026
v 0.07688982 0.01673709 -0.01616721
v 0.07711839 0.01621386 -0.01612047
v 0.07711839 0.01638453 -0.01604421
v 0.07711839 0.01653879 -0.01594074
v 0.07711839 0.01667193 -0.01581312
v 0.07711839 0.01677996 -0.01566531
v 0.07711839 0.01685952 -0.01550175
v 0.07728678 0.01584438 -0.01585581
v 0.07728678 0.01597269 -0.01584504
v 0.07728678 0.01609713 -0.01581312
v 0.07728678 0.01621386 -0.01576095
v 0.07738992 0.01584438 -0.01550721
v 0.07738992 0.01590954 -0.01550175
v 0.07738992 0.01597269 -0.01548552
v 0.07738992 0.01603197 -0.01545903
v 0.07742466 0.01584438 -0.01514766
v 0.07738992 0.01608555 -0.01542309
v 0.07738992 0.01613178 -0.01537878
v 0.07738992 0.01616931 -0.01532745
v 0.07738992 0.01619694 -0.01527063
v 0.07738992 0.01621386 -0.01521009
v 0.07738992 0.01621956 -0.01514766
v 0.07728678 0.01631937 -0.01569015
v 0.07728678 0.01641048 -0.01560288
v 0.07728678 0.01648434 -0.01550175
v 0.07728678 0.01653879 -0.01538988
v 0.07728678 0.01657212 -0.01527063
v 0.07728678 0.01658334 -0.01514766
v 0.07660806 0.01690827 -0.01636269
v 0.07660806 0.01711227 -0.01616721
v 0.07660806 0.01727775 -0.01594074
v 0.07660806 0.01739967 -0.01569015
v 0.07688982 0.01690827 -0.01600314
v 0.07688982 0.01704711 -0.01581312
v 0.07688982 0.01714944 -0.01560285
v 0.07711839 0.01690827 -0.01532745
v 0.07711839 0.01692468 -0.01514766
v 0.07688982 0.01721208 -0.01537878
v 0.07688982 0.01723320 -0.01514766
v 0.07660806 0.01747434 -0.01542309
v 0.07660806 0.01749948 -0.01514766
v 0.07742466 0.01440399 -0.00859101
v 0.07742466 0.01512417 -0.00324216
v 0.07513866 0.01800498 0.00003618
v 0.07533714 0.01798857 0.00003618
v 0.07553562 0.01797216 0.00003618
v 0.07572807 0.01792341 0.00003618
v 0.07592052 0.01787469 0.00003618
v 0.07610109 0.01779510 0.00003618
v 0.07628166 0.01771551 0.00003618
v 0.07644486 0.01760751 0.00003618
v 0.07742466 0.01584438 0.00003618
v 0.07740729 0.01603197 0.00003618
v 0.07738992 0.01621956 0.00003618
v 0.07728678 0.01658334 0.00003618
v 0.07733835 0.01640145 0.00003618
v 0.07720260 0.01675401 0.00003618
v 0.07674894 0.01736634 0.00003618
v 0.07711839 0.01692468 0.00003618
v 0.07700412 0.01707894 0.00003618
v 0.07688982 0.01723317 0.00003618
v 0.07660806 0.01749948 0.00003618
v 0.08640309 0.00683148 -0.00823596
v 0.07742466 0.00000000 0.00866334
v 0.07742466 0.00072018 0.01194168
v 0.07513866 0.00000000 0.01729053
v 0.07533714 0.00000000 0.01727481
v 0.07553562 0.00000000 0.01725906
v 0.07572807 0.00000000 0.01721235
v 0.07592052 0.00000000 0.01716564
v 0.07610109 0.00000000 0.01708938
v 0.07628166 0.00000000 0.01701312
v 0.07644486 0.00000000 0.01690959
v 0.07742466 0.00000000 0.01521999
v 0.07740729 0.00000000 0.01539975
v 0.07738992 0.00000000 0.01557954
v 0.07728678 0.00000000 0.01592814
v 0.07733835 0.00000000 0.01575384
v 0.07720260 0.00000000 0.01609170
v 0.07674894 0.00000000 0.01667850
v 0.07711839 0.00000000 0.01625529
v 0.07700412 0.00000000 0.01640310
v 0.07688982 0.00000000 0.01655091
v 0.07660806 0.00000000 0.01680609
v 0.07742466 0.01440399 0.00866334
v 0.07242455 0.01584438 0.01729053
v 0.07242455 0.01587882 0.01728764
v 0.07242455 0.01619889 0.01726080
v 0.07242455 0.01621956 0.01725906
v 0.07242455 0.01622624 0.01725735
v 0.07242455 0.01657666 0.01716736
v 0.07242455 0.01658334 0.01716564
v 0.07242455 0.01800498 0.01521999
v 0.07242455 0.01797397 0.01555974
v 0.07242455 0.01797276 0.01557294
v 0.07242455 0.01797037 0.01558594
v 0.07242455 0.01797216 0.01557954
v 0.07242455 0.01796321 0.01561154
v 0.07242455 0.01787645 0.01592174
v 0.07242455 0.01787466 0.01592814
v 0.07242455 0.01787174 0.01593415
v 0.07242455 0.01788003 0.01590894
v 0.07242455 0.01786005 0.01595817
v 0.07242455 0.01692468 0.01701312
v 0.07242455 0.01693034 0.01700932
v 0.07242455 0.01695300 0.01699411
v 0.07242455 0.01723317 0.01680609
v 0.07242455 0.01771551 0.01625529
v 0.07242455 0.01749948 0.01655091
v 0.07513866 0.01584438 0.01729053
v 0.07513866 0.01621956 0.01725906
v 0.07553562 0.01584438 0.01725906
v 0.07553562 0.01621386 0.01722810
v 0.07513866 0.01658334 0.01716564
v 0.07553562 0.01657212 0.01713609
v 0.07592052 0.01584438 0.01716564
v 0.07592052 0.01619694 0.01713609
v 0.07628166 0.01584438 0.01701312
v 0.07628166 0.01616931 0.01698588
v 0.07592052 0.01653876 0.01704831
v 0.07592052 0.01685952 0.01690500
v 0.07628166 0.01648434 0.01690500
v 0.07628166 0.01677993 0.01677288
v 0.07513866 0.01800498 0.01521999
v 0.07513866 0.01797216 0.01557954
v 0.07553562 0.01797216 0.01521999
v 0.07553562 0.01793982 0.01557408
v 0.07513866 0.01787466 0.01592814
v 0.07553562 0.01784382 0.01591743
v 0.07592052 0.01787466 0.01521999
v 0.07592052 0.01784382 0.01555785
v 0.07628166 0.01771551 0.01521999
v 0.07628166 0.01768707 0.01553136
v 0.07592052 0.01760265 0.01619283
v 0.07592052 0.01775223 0.01588545
v 0.07628166 0.01760265 0.01583328
v 0.07628166 0.01746483 0.01611654
v 0.07513866 0.01692468 0.01701312
v 0.07513866 0.01723317 0.01680609
v 0.07553562 0.01690824 0.01698588
v 0.07553562 0.01721208 0.01678200
v 0.07513866 0.01771551 0.01625529
v 0.07513866 0.01749948 0.01655091
v 0.07553562 0.01768707 0.01623954
v 0.07553562 0.01747434 0.01653066
v 0.07592052 0.01714941 0.01671045
v 0.07592052 0.01739967 0.01647063
v 0.07628166 0.01704711 0.01659360
v 0.07628166 0.01727775 0.01637262
v 0.07711839 0.01621386 0.01619283
v 0.07711839 0.01685952 0.01557408
v 0.07711839 0.01638453 0.01611654
v 0.07711839 0.01653876 0.01601307
v 0.07711839 0.01667193 0.01588545
v 0.07711839 0.01677993 0.01573764
v 0.07742466 0.01584438 0.01521999
v 0.07738992 0.01584438 0.01557954
v 0.07738992 0.01603197 0.01553136
v 0.07738992 0.01590951 0.01557408
v 0.07738992 0.01597269 0.01555785
v 0.07738992 0.01616931 0.01539978
v 0.07738992 0.01621956 0.01521999
v 0.07738992 0.01621386 0.01528242
v 0.07738992 0.01619694 0.01534296
v 0.07738992 0.01608552 0.01549542
v 0.07738992 0.01613178 0.01545111
v 0.07728678 0.01584438 0.01592814
v 0.07728678 0.01597269 0.01591740
v 0.07728678 0.01609713 0.01588545
v 0.07728678 0.01621386 0.01583328
v 0.07728678 0.01658334 0.01521999
v 0.07728678 0.01657212 0.01534296
v 0.07728678 0.01653876 0.01546221
v 0.07728678 0.01648434 0.01557408
v 0.07728678 0.01631937 0.01576248
v 0.07728678 0.01641045 0.01567521
v 0.07711839 0.01584438 0.01625529
v 0.07711839 0.01603197 0.01623954
v 0.07688982 0.01584438 0.01655091
v 0.07688982 0.01608552 0.01653066
v 0.07660806 0.01584438 0.01680609
v 0.07660806 0.01613178 0.01678200
v 0.07660806 0.01641045 0.01671045
v 0.07660806 0.01667193 0.01659360
v 0.07688982 0.01631937 0.01647063
v 0.07688982 0.01653876 0.01637262
v 0.07688982 0.01673709 0.01623954
v 0.07711839 0.01692468 0.01521999
v 0.07711839 0.01690824 0.01539978
v 0.07688982 0.01723317 0.01521999
v 0.07688982 0.01721208 0.01545111
v 0.07660806 0.01739967 0.01576248
v 0.07660806 0.01727775 0.01601307
v 0.07688982 0.01714941 0.01567521
v 0.07688982 0.01704711 0.01588545
v 0.07688982 0.01690824 0.01607550
v 0.07660806 0.01749948 0.01521999
v 0.07660806 0.01747434 0.01549542
v 0.07660806 0.01690824 0.01643502
v 0.07660806 0.01711227 0.01623954
v 0.08640309 0.00757248 0.00830829
v 0.09538152 -0.01366299 -0.00788091
v 0.09538152 -0.00074100 -0.00788091
v 0.11333835 -0.01292199 -0.00717081
v 0.11353155 -0.01290621 -0.00715572
v 0.11372262 -0.01287507 -0.00712581
v 0.11391018 -0.01282869 -0.00708141
v 0.11409294 -0.01276749 -0.00702276
v 0.11426955 -0.01269186 -0.00695028
v 0.11443875 -0.01260234 -0.00686448
v 0.11459931 -0.01249962 -0.00676605
v 0.11475009 -0.01238439 -0.00665562
v 0.11501799 -0.01211988 -0.00640215
v 0.11523480 -0.01181640 -0.00611130
v 0.11539428 -0.01148268 -0.00579150
v 0.11549181 -0.01112829 -0.00545190
v 0.11552463 -0.01076343 -0.00510225
v 0.11343495 -0.00000789 -0.00716325
v 0.11362707 -0.00001557 -0.00714075
v 0.11418123 -0.00003783 -0.00698652
v 0.11435415 -0.00004476 -0.00690738
v 0.11488404 -0.00013227 -0.00652887
v 0.11512638 -0.00015174 -0.00625671
v 0.11531454 -0.00016686 -0.00595140
v 0.11544306 -0.00017721 -0.00562170
v 0.11550822 -0.00018243 -0.00527706
v 0.09538152 -0.01366299 0.00074628
v 0.09538152 -0.01366299 0.00795324
v 0.10435995 -0.00609048 0.00759819
v 0.11501799 -0.01211988 0.00647445
v 0.11523480 -0.01181640 0.00618366
v 0.11539428 -0.01148268 0.00586383
v 0.11333835 -0.01292199 0.00724311
v 0.11353155 -0.01290624 0.00722802
v 0.11372262 -0.01287507 0.00719814
v 0.11391018 -0.01282872 0.00715374
v 0.11409294 -0.01276749 0.00709506
v 0.11426955 -0.01269186 0.00702258
v 0.11443875 -0.01260237 0.00693681
v 0.11475009 -0.01238442 0.00672795
v 0.11459931 -0.01249962 0.00683838
v 0.11552463 -0.01076343 0.00517455
v 0.11549181 -0.01112829 0.00552420
v 0.11343495 -0.00000789 0.00723558
v 0.11362707 -0.00001560 0.00721308
v 0.11435415 -0.00004476 0.00697971
v 0.11467470 -0.00005763 0.00678318
v 0.11418123 -0.00003783 0.00705882
v 0.10435995 0.00609048 -0.00752586
v 0.09538152 0.01366299 -0.00788091
v 0.09538152 0.01366296 -0.00067395
v 0.11333835 0.00000000 -0.00717081
v 0.11353155 0.00000000 -0.00715572
v 0.11372262 0.00000000 -0.00712581
v 0.11381640 0.00002319 -0.00710361
v 0.11391018 0.00000000 -0.00708141
v 0.11400156 0.00003060 -0.00705207
v 0.11409294 0.00000000 -0.00702273
v 0.11426955 0.00000000 -0.00695028
v 0.11443875 0.00000000 -0.00686448
v 0.11451903 0.00005136 -0.00681528
v 0.11459931 0.00000000 -0.00676605
v 0.11467470 0.00005760 -0.00671082
v 0.11475009 0.00000000 -0.00665559
v 0.11501799 0.00000000 -0.00640215
v 0.11523480 0.00000000 -0.00611130
v 0.11539428 0.00000000 -0.00579150
v 0.11549181 0.00000000 -0.00545190
v 0.11552463 0.00000000 0.00003615
v 0.11549181 0.01112829 -0.00545190
v 0.11552463 0.01076343 -0.00510225
v 0.11333835 0.01292196 -0.00717081
v 0.11353155 0.01290621 -0.00715572
v 0.11372262 0.01287507 -0.00712581
v 0.11391018 0.01282869 -0.00708141
v 0.11409294 0.01276749 -0.00702273
v 0.11443875 0.01260234 -0.00686448
v 0.11426955 0.01269186 -0.00695028
v 0.11459931 0.01249962 -0.00676605
v 0.11475009 0.01238439 -0.00665559
v 0.11539428 0.01148268 -0.00579150
v 0.11501799 0.01211988 -0.00640215
v 0.11523480 0.01181640 -0.00611130
v 0.09538152 0.00074100 0.00795324
v 0.09538152 0.01366296 0.00795324
v 0.11550822 0.00018243 0.00534939
v 0.11549181 0.00000000 0.00552420
v 0.11544306 0.00017718 0.00569403
v 0.11539428 0.00000000 0.00586383
v 0.11501799 0.00000000 0.00647448
v 0.11512638 0.00015174 0.00632907
v 0.11523480 0.00000000 0.00618366
v 0.11531454 0.00016686 0.00602373
v 0.11333835 0.00000000 0.00724311
v 0.11353155 0.00000000 0.00722802
v 0.11381640 0.00002316 0.00717594
v 0.11372262 0.00000000 0.00719814
v 0.11391018 0.00000000 0.00715374
v 0.11400156 0.00003060 0.00712440
v 0.11409294 0.00000000 0.00709506
v 0.11426955 0.00000000 0.00702258
v 0.11443875 0.00000000 0.00693681
v 0.11475009 0.00000000 0.00672795
v 0.11451903 0.00005136 0.00688758
v 0.11459931 0.00000000 0.00683838
v 0.11488404 0.00013224 0.00660123
v 0.11552463 0.01076343 0.00517458
v 0.11549181 0.01112829 0.00552423
v 0.11539428 0.01148268 0.00586383
v 0.11501799 0.01211988 0.00647448
v 0.11523480 0.01181640 0.00618366
v 0.11333835 0.01292196 0.00724314
v 0.11353155 0.01290621 0.00722805
v 0.11372262 0.01287504 0.00719814
v 0.11391018 0.01282869 0.00715374
v 0.11409294 0.01276749 0.00709506
v 0.11443875 0.01260234 0.00693681
v 0.11426955 0.01269186 0.00702258
v 0.11475009 0.01238439 0.00672798
v 0.11459931 0.01249962 0.00683838
f 23 2 1
f 25 3 2
f 25 4 3
f 28 5 6
f 28 6 7
f 28 7 8
f 30 8 9
f 23 1 5
f 40 10 4
f 40 12 10
f 40 11 12
f 40 13 11
f 48 15 14
f 48 16 15
f 48 14 13
f 54 17 16
f 30 9 18
f 71 18 19
f 73 19 20
f 73 20 21
f 74 21 22
f 23 25 2
f 28 8 30
f 23 5 28
f 25 40 4
f 40 48 13
f 48 54 16
f 30 18 71
f 71 19 73
f 73 21 74
f 23 24 25
f 24 26 25
f 26 27 46
f 24 27 26
f 33 47 46
f 27 33 46
f 28 30 31
f 28 31 29
f 29 31 35
f 29 35 32
f 23 28 29
f 23 29 24
f 24 29 32
f 24 32 27
f 33 34 47
f 35 36 32
f 27 32 37
f 27 37 33
f 33 38 34
f 33 37 38
f 36 37 32
f 34 38 83
f 36 39 37
f 37 39 38
f 38 39 84
f 25 26 40
f 26 41 40
f 26 46 41
f 41 46 42
f 40 41 48
f 41 49 48
f 41 42 49
f 42 43 50
f 42 47 43
f 42 46 47
f 43 47 59
f 43 44 51
f 43 59 44
f 48 49 54
f 49 50 54
f 50 51 54
f 42 50 49
f 43 51 50
f 51 52 54
f 52 53 54
f 53 55 54
f 54 55 56
f 54 56 57
f 54 57 58
f 44 52 51
f 45 53 52
f 44 45 52
f 64 55 53
f 45 64 53
f 64 65 55
f 65 56 55
f 56 66 57
f 65 66 56
f 57 66 67
f 57 67 58
f 44 59 60
f 44 60 45
f 45 60 62
f 34 59 47
f 59 61 60
f 34 61 59
f 60 61 63
f 60 63 62
f 62 63 85
f 45 62 64
f 62 68 64
f 64 68 65
f 65 68 69
f 65 69 66
f 66 70 67
f 66 69 70
f 62 85 68
f 68 86 69
f 68 85 86
f 69 87 70
f 34 83 61
f 61 88 63
f 30 71 72
f 30 72 31
f 71 73 75
f 71 75 72
f 31 72 77
f 31 77 35
f 72 79 77
f 72 75 79
f 73 76 75
f 73 74 76
f 75 80 79
f 75 76 80
f 35 78 36
f 35 77 78
f 77 79 81
f 77 81 78
f 36 78 96
f 78 98 96
f 78 81 98
f 36 96 39
f 79 80 82
f 79 82 81
f 81 82 99
f 38 84 83
f 83 84 90
f 86 87 69
f 83 88 61
f 63 88 89
f 63 89 85
f 83 90 88
f 88 90 91
f 88 91 89
f 89 91 94
f 85 92 86
f 85 89 92
f 86 93 87
f 86 92 93
f 89 94 92
f 92 94 95
f 92 95 93
f 39 96 97
f 39 97 84
f 96 100 97
f 96 98 100
f 84 104 90
f 84 97 104
f 97 101 104
f 97 100 101
f 81 99 98
f 98 102 100
f 98 99 102
f 100 103 101
f 100 102 103
f 90 105 91
f 90 104 105
f 91 105 106
f 104 108 105
f 101 108 104
f 91 106 94
f 105 108 110
f 94 106 107
f 94 107 95
f 105 110 106
f 106 110 111
f 106 111 107
f 101 109 108
f 108 112 110
f 101 103 109
f 108 109 112
f 110 113 111
f 110 112 113
f 54 115 17
f 54 58 116
f 58 67 118
f 67 70 120
f 70 87 122
f 87 93 124
f 93 95 126
f 95 107 128
f 107 111 130
f 111 113 132
f 113 114 134
f 74 248 76
f 76 250 80
f 80 252 82
f 82 254 99
f 99 256 102
f 102 258 103
f 103 260 109
f 109 262 112
f 112 264 113
f 113 135 114
f 54 116 115
f 58 117 116
f 58 118 117
f 67 119 118
f 67 120 119
f 70 121 120
f 70 122 121
f 87 123 122
f 87 124 123
f 93 125 124
f 93 126 125
f 95 127 126
f 95 128 127
f 107 129 128
f 107 130 129
f 111 131 130
f 111 132 131
f 113 133 132
f 113 134 133
f 115 155 17
f 114 137 134
f 74 22 267
f 74 247 248
f 76 248 249
f 76 249 250
f 80 250 251
f 80 251 252
f 82 252 253
f 82 253 254
f 99 254 255
f 99 255 256
f 102 256 257
f 102 257 258
f 103 258 259
f 103 259 260
f 109 260 261
f 109 261 262
f 112 262 263
f 112 263 264
f 113 264 265
f 113 265 135
f 114 135 266
f 114 266 136
f 114 136 540
f 114 540 565
f 136 266 541
f 540 136 541
f 133 134 137
f 155 138 17
f 115 116 155
f 116 117 157
f 117 118 157
f 118 119 161
f 119 120 161
f 120 121 163
f 121 122 163
f 122 123 195
f 123 124 195
f 124 125 197
f 125 126 197
f 126 127 199
f 127 128 199
f 128 129 214
f 129 130 214
f 130 131 220
f 131 132 220
f 132 133 226
f 133 137 226
f 116 157 155
f 118 161 157
f 120 163 161
f 122 195 163
f 124 197 195
f 126 199 197
f 128 214 199
f 130 220 214
f 132 226 220
f 155 139 138
f 156 140 139
f 156 141 140
f 159 142 141
f 169 143 142
f 170 144 143
f 170 145 144
f 173 146 145
f 173 147 146
f 174 148 147
f 174 149 148
f 181 150 149
f 181 151 150
f 181 152 151
f 183 153 152
f 184 154 153
f 155 156 139
f 156 159 141
f 159 169 142
f 169 170 143
f 170 173 145
f 173 174 147
f 174 181 149
f 181 183 152
f 183 184 153
f 155 157 158
f 155 158 156
f 157 162 158
f 156 160 159
f 156 158 160
f 159 171 169
f 159 160 171
f 158 165 160
f 160 166 171
f 157 161 162
f 158 162 165
f 161 164 162
f 161 163 164
f 162 164 167
f 163 196 164
f 162 167 165
f 160 165 166
f 165 168 166
f 164 201 167
f 165 167 168
f 167 202 168
f 169 172 170
f 169 171 172
f 171 177 172
f 170 175 173
f 170 172 175
f 172 178 175
f 173 176 174
f 173 175 176
f 175 187 176
f 166 177 171
f 166 168 179
f 166 179 177
f 172 177 178
f 177 180 178
f 177 179 180
f 168 206 179
f 179 207 180
f 178 180 189
f 178 187 175
f 178 189 187
f 174 182 181
f 174 176 182
f 181 185 183
f 181 182 185
f 176 188 182
f 182 191 185
f 183 185 186
f 183 186 184
f 185 192 186
f 180 235 189
f 176 187 188
f 187 190 188
f 182 188 191
f 187 189 190
f 188 190 193
f 236 190 189
f 191 192 185
f 188 193 191
f 191 194 192
f 190 244 193
f 191 193 194
f 193 245 194
f 163 195 196
f 164 196 201
f 195 198 196
f 195 197 198
f 196 203 201
f 196 198 203
f 197 200 198
f 197 199 200
f 198 208 203
f 198 200 208
f 203 208 209
f 167 201 202
f 201 203 204
f 201 204 202
f 168 202 206
f 202 204 205
f 202 205 206
f 205 237 206
f 203 209 204
f 179 206 207
f 206 237 207
f 204 209 210
f 204 210 205
f 205 211 237
f 205 210 211
f 211 212 237
f 199 215 200
f 199 214 215
f 200 215 216
f 200 216 208
f 208 216 217
f 208 217 209
f 214 220 221
f 214 221 215
f 215 222 216
f 215 221 222
f 217 218 209
f 216 223 217
f 217 224 218
f 209 218 210
f 210 218 219
f 210 219 211
f 219 231 211
f 211 231 212
f 216 222 223
f 220 226 221
f 221 226 222
f 222 226 223
f 223 226 224
f 217 223 224
f 218 225 219
f 218 224 225
f 219 225 227
f 227 228 231
f 224 226 225
f 225 226 227
f 226 228 227
f 226 229 228
f 228 229 232
f 226 230 229
f 219 227 231
f 228 232 231
f 212 232 213
f 212 231 232
f 232 233 213
f 213 233 241
f 229 233 232
f 229 230 233
f 230 234 233
f 233 234 241
f 234 242 241
f 207 238 235
f 207 237 238
f 207 235 180
f 235 236 189
f 235 238 239
f 235 239 236
f 212 238 237
f 213 239 238
f 212 213 238
f 236 244 190
f 239 240 236
f 236 240 244
f 243 245 244
f 240 243 244
f 239 241 240
f 213 241 239
f 240 242 243
f 240 241 242
f 244 245 193
f 184 404 154
f 137 412 226
f 184 186 405
f 186 192 407
f 192 194 409
f 245 411 194
f 226 413 230
f 230 416 234
f 234 417 242
f 243 418 245
f 242 420 243
f 137 246 402
f 137 402 403
f 137 403 412
f 184 405 404
f 186 406 405
f 186 407 406
f 192 408 407
f 192 409 408
f 194 411 410
f 194 410 409
f 226 412 413
f 230 413 414
f 230 414 416
f 234 416 415
f 234 415 417
f 242 417 419
f 242 419 420
f 243 421 418
f 243 420 421
f 245 422 411
f 245 418 422
f 404 448 154
f 114 565 137
f 137 566 246
f 137 565 566
f 246 622 402
f 566 622 246
f 74 267 247
f 247 289 248
f 248 291 249
f 249 291 250
f 250 295 251
f 251 295 252
f 252 297 253
f 253 297 254
f 254 329 255
f 255 329 256
f 256 331 257
f 257 331 258
f 258 332 259
f 259 332 260
f 260 346 261
f 261 346 262
f 262 350 263
f 263 350 264
f 264 354 265
f 135 265 380
f 135 380 266
f 266 380 401
f 247 267 289
f 248 289 291
f 250 291 295
f 252 295 297
f 254 297 329
f 256 329 331
f 258 331 332
f 260 332 346
f 262 346 350
f 264 350 354
f 265 354 380
f 289 267 268
f 290 268 269
f 290 269 270
f 293 270 271
f 293 271 272
f 293 272 273
f 303 273 274
f 303 274 275
f 303 275 276
f 304 276 277
f 304 277 278
f 307 278 279
f 307 279 280
f 308 280 281
f 308 281 282
f 315 282 283
f 315 283 284
f 317 284 285
f 317 285 286
f 318 286 287
f 318 287 288
f 289 268 290
f 290 270 293
f 293 273 303
f 303 276 304
f 304 278 307
f 307 280 308
f 308 282 315
f 315 284 317
f 317 286 318
f 289 290 291
f 291 290 292
f 291 292 295
f 290 293 292
f 292 293 294
f 293 303 294
f 294 303 305
f 292 294 296
f 294 305 299
f 295 296 297
f 295 292 296
f 296 299 298
f 297 298 329
f 296 298 297
f 298 301 330
f 296 294 299
f 299 305 300
f 299 300 301
f 299 301 298
f 301 302 335
f 300 302 301
f 302 313 336
f 303 304 305
f 305 304 306
f 300 305 306
f 304 307 306
f 306 307 309
f 306 309 311
f 307 308 309
f 309 308 310
f 312 309 310
f 300 306 311
f 300 311 302
f 311 309 312
f 311 312 313
f 312 321 314
f 302 311 313
f 313 314 367
f 312 314 313
f 368 314 323
f 312 310 321
f 314 321 323
f 308 315 310
f 310 315 316
f 315 317 316
f 316 317 319
f 310 316 321
f 316 319 322
f 317 318 319
f 319 318 320
f 325 319 320
f 321 322 323
f 321 316 322
f 322 325 324
f 322 324 323
f 369 323 324
f 370 324 327
f 322 319 325
f 325 326 327
f 325 320 326
f 325 327 324
f 378 327 328
f 326 328 327
f 329 298 330
f 329 330 331
f 330 334 331
f 330 335 334
f 334 335 337
f 331 334 332
f 332 334 333
f 333 334 337
f 333 337 340
f 330 301 335
f 335 336 337
f 337 336 338
f 302 336 335
f 336 313 367
f 338 336 367
f 338 367 339
f 337 338 340
f 338 339 341
f 338 341 340
f 339 342 341
f 339 371 342
f 343 371 372
f 342 371 343
f 343 372 344
f 332 333 346
f 333 347 346
f 346 347 350
f 347 351 350
f 347 348 351
f 333 340 347
f 347 340 348
f 340 341 348
f 348 341 349
f 348 349 352
f 349 361 353
f 350 351 354
f 348 352 351
f 351 352 354
f 352 353 354
f 353 355 354
f 354 355 356
f 349 353 352
f 353 361 355
f 355 362 356
f 355 361 362
f 356 363 357
f 354 356 357
f 354 357 358
f 354 358 359
f 354 359 360
f 357 364 358
f 349 341 342
f 349 342 361
f 342 343 361
f 361 343 362
f 362 343 344
f 362 344 363
f 356 362 363
f 357 363 364
f 358 365 359
f 358 364 365
f 359 365 366
f 359 366 360
f 344 345 363
f 363 345 364
f 364 345 374
f 364 374 365
f 365 375 366
f 365 374 375
f 367 314 368
f 339 367 368
f 339 368 371
f 368 369 371
f 371 369 372
f 368 323 369
f 369 324 370
f 372 369 370
f 372 370 373
f 344 372 373
f 373 378 376
f 373 370 378
f 376 378 379
f 376 379 377
f 345 373 376
f 344 373 345
f 345 376 374
f 374 376 377
f 374 377 375
f 370 327 378
f 378 328 379
f 354 381 380
f 318 383 320
f 320 385 326
f 326 387 328
f 379 328 389
f 354 360 391
f 360 366 394
f 366 375 395
f 377 379 396
f 375 377 398
f 318 288 431
f 354 390 381
f 318 382 383
f 320 383 384
f 320 384 385
f 326 385 386
f 326 386 387
f 328 388 389
f 328 387 388
f 354 391 390
f 360 392 391
f 360 394 392
f 366 393 394
f 366 395 393
f 375 397 395
f 375 398 397
f 377 396 399
f 377 399 398
f 379 389 400
f 379 400 396
f 318 431 382
f 380 381 423
f 541 266 401
f 541 401 588
f 401 380 588
f 380 423 589
f 380 589 588
f 402 539 423
f 402 423 403
f 448 424 154
f 403 494 412
f 404 405 448
f 405 406 450
f 407 450 406
f 407 408 454
f 409 454 408
f 411 456 410
f 409 410 456
f 412 494 413
f 413 495 414
f 414 495 416
f 416 505 415
f 415 505 417
f 417 515 419
f 419 515 420
f 421 517 418
f 420 517 421
f 422 519 411
f 418 519 422
f 381 390 423
f 390 494 423
f 383 382 462
f 383 464 384
f 385 384 464
f 385 468 386
f 387 386 468
f 389 388 470
f 387 470 388
f 390 391 494
f 391 392 500
f 392 394 500
f 394 393 509
f 393 395 509
f 395 397 526
f 397 398 526
f 399 396 528
f 398 399 528
f 400 389 535
f 396 400 535
f 403 423 494
f 405 450 448
f 407 454 450
f 409 456 454
f 411 519 456
f 413 494 495
f 416 495 505
f 417 505 515
f 418 517 519
f 420 515 517
f 382 431 462
f 383 462 464
f 385 464 468
f 387 468 470
f 389 470 535
f 391 500 494
f 394 509 500
f 395 526 509
f 396 535 528
f 398 528 526
f 448 425 424
f 449 426 425
f 449 427 426
f 449 428 427
f 452 429 428
f 452 430 429
f 476 442 430
f 462 431 432
f 463 434 436
f 463 432 433
f 463 435 434
f 463 433 435
f 466 436 440
f 466 440 437
f 466 437 438
f 466 438 439
f 466 439 441
f 480 441 446
f 481 447 445
f 476 443 442
f 476 444 443
f 477 445 444
f 480 446 447
f 448 449 425
f 449 452 428
f 452 476 430
f 462 432 463
f 463 436 466
f 466 441 480
f 477 481 445
f 476 477 444
f 480 447 481
f 448 450 451
f 448 451 449
f 450 455 451
f 449 453 452
f 449 451 453
f 452 478 476
f 452 453 478
f 451 458 453
f 453 459 478
f 450 454 455
f 455 458 451
f 454 457 455
f 454 456 457
f 455 457 460
f 456 520 457
f 455 460 458
f 458 461 459
f 453 458 459
f 457 521 460
f 458 460 461
f 522 461 460
f 462 463 464
f 464 463 465
f 464 465 468
f 463 466 465
f 465 466 467
f 466 480 467
f 467 480 482
f 469 465 467
f 467 482 473
f 531 475 487
f 468 469 470
f 468 465 469
f 469 473 471
f 535 470 471
f 536 471 474
f 469 471 470
f 472 473 482
f 472 474 473
f 469 467 473
f 473 474 471
f 530 474 475
f 472 475 474
f 477 483 481
f 477 479 483
f 485 483 479
f 476 479 477
f 476 478 479
f 484 479 478
f 480 481 482
f 482 481 483
f 472 482 483
f 459 486 484
f 484 485 479
f 484 487 485
f 538 487 486
f 484 486 487
f 461 537 486
f 475 485 487
f 459 484 478
f 459 461 486
f 472 483 485
f 472 485 475
f 490 491 524
f 492 493 534
f 491 525 524
f 492 534 525
f 491 492 525
f 494 504 503
f 494 497 495
f 494 498 497
f 494 496 498
f 494 503 496
f 496 507 498
f 494 500 501
f 494 502 499
f 494 501 502
f 494 499 504
f 501 511 502
f 496 503 508
f 499 514 504
f 499 502 512
f 503 504 513
f 504 514 513
f 495 497 505
f 497 498 506
f 497 506 505
f 498 507 506
f 505 506 515
f 506 507 516
f 506 516 515
f 508 513 490
f 496 508 507
f 503 513 508
f 507 508 488
f 507 488 516
f 508 490 488
f 500 510 501
f 501 510 511
f 500 509 510
f 502 511 512
f 499 512 514
f 509 527 510
f 509 526 527
f 510 489 511
f 511 489 493
f 511 493 512
f 510 527 489
f 513 514 491
f 512 492 514
f 514 492 491
f 513 491 490
f 512 493 492
f 518 520 519
f 517 518 519
f 518 523 520
f 520 523 521
f 516 518 517
f 515 516 517
f 488 523 518
f 488 518 516
f 488 490 523
f 519 520 456
f 520 521 457
f 521 522 460
f 523 524 521
f 524 522 521
f 524 525 522
f 525 534 537
f 525 537 522
f 522 537 461
f 490 524 523
f 528 535 536
f 528 536 529
f 529 530 532
f 529 536 530
f 526 528 529
f 526 529 527
f 527 529 532
f 489 527 532
f 532 531 533
f 533 531 538
f 533 538 534
f 532 530 531
f 531 487 538
f 530 475 531
f 489 532 533
f 493 533 534
f 489 533 493
f 535 471 536
f 530 536 474
f 537 538 486
f 534 538 537
f 402 622 539
f 539 622 623
f 539 623 423
f 589 423 623
f 540 542 565
f 540 541 542
f 542 543 572
f 543 544 573
f 544 545 573
f 545 546 574
f 546 547 575
f 547 548 576
f 548 549 579
f 549 550 578
f 550 551 578
f 551 552 568
f 552 553 569
f 553 554 570
f 554 555 581
f 542 541 590
f 542 556 543
f 543 557 544
f 544 592 545
f 545 594 546
f 546 558 547
f 547 559 548
f 548 598 549
f 549 600 550
f 550 560 551
f 551 561 552
f 552 562 553
f 553 563 554
f 554 564 555
f 555 607 580
f 542 590 556
f 543 556 591
f 543 591 557
f 544 557 592
f 545 592 593
f 545 593 594
f 546 594 595
f 546 595 596
f 546 596 558
f 547 558 597
f 547 597 559
f 548 559 598
f 549 598 599
f 549 599 600
f 550 600 601
f 550 601 602
f 550 602 560
f 551 560 603
f 551 603 561
f 552 561 604
f 552 604 562
f 553 562 605
f 553 605 563
f 554 563 606
f 554 606 564
f 555 564 609
f 565 571 566
f 566 571 567
f 566 567 622
f 567 632 622
f 542 571 565
f 552 569 568
f 553 570 569
f 542 572 571
f 543 573 572
f 545 574 573
f 546 575 574
f 547 576 575
f 548 579 577
f 548 577 576
f 549 578 579
f 551 568 578
f 554 581 570
f 555 580 581
f 571 632 567
f 568 569 628
f 580 625 581
f 570 581 627
f 569 570 630
f 571 572 582
f 572 573 583
f 573 574 635
f 574 575 636
f 576 577 584
f 576 586 575
f 577 579 640
f 568 641 578
f 578 585 579
f 580 624 625
f 570 627 631
f 581 625 626
f 581 626 627
f 569 629 628
f 569 630 629
f 570 631 630
f 571 582 632
f 572 633 582
f 572 583 633
f 574 634 635
f 573 635 583
f 574 636 634
f 575 637 636
f 575 638 637
f 575 586 638
f 576 639 586
f 576 584 639
f 577 640 584
f 578 641 585
f 579 642 640
f 579 643 642
f 579 585 643
f 568 644 641
f 568 628 644
f 541 588 587
f 541 587 590
f 610 588 589
f 587 588 610
f 556 590 611
f 556 611 591
f 557 591 612
f 557 612 592
f 592 612 593
f 594 593 613
f 594 613 595
f 595 614 596
f 558 596 616
f 558 616 597
f 559 597 615
f 559 615 598
f 598 615 599
f 599 617 600
f 600 617 601
f 601 618 602
f 560 602 620
f 560 620 603
f 561 603 621
f 562 604 619
f 561 621 604
f 563 605 608
f 563 608 606
f 562 619 605
f 564 606 609
f 555 609 607
f 590 587 610
f 590 610 611
f 591 611 612
f 593 612 613
f 595 613 614
f 596 614 616
f 597 616 615
f 599 615 617
f 601 617 618
f 602 618 620
f 604 621 619
f 605 619 608
f 606 608 609
f 603 620 621
f 607 609 645
f 610 589 650
f 608 645 609
f 608 619 646
f 610 651 611
f 612 611 652
f 612 652 613
f 614 613 653
f 614 654 616
f 618 648 620
f 615 616 656
f 617 658 618
f 617 615 658
f 619 621 647
f 621 620 649
f 622 650 623
f 589 623 650
f 622 632 650
f 580 607 645
f 580 645 624
f 624 646 625
f 625 646 626
f 626 647 627
f 627 647 631
f 628 629 648
f 630 631 649
f 630 649 629
f 582 651 632
f 582 633 651
f 583 652 633
f 583 635 652
f 635 634 652
f 634 636 653
f 636 637 653
f 638 654 637
f 586 639 656
f 584 640 655
f 584 655 639
f 642 655 640
f 585 641 657
f 644 657 641
f 643 658 642
f 585 657 643
f 586 656 638
f 628 648 644
f 624 645 646
f 626 646 647
f 631 647 649
f 629 649 648
f 632 651 650
f 633 652 651
f 634 653 652
f 637 654 653
f 638 656 654
f 639 655 656
f 643 657 658
f 642 658 655
f 644 648 657
f 608 646 645
f 618 657 648
f 619 647 646
f 621 649 647
f 620 648 649
f 610 650 651
f 611 651 652
f 613 652 653
f 614 653 654
f 615 655 658
f 615 656 655
f 616 654 656
f 618 658 657
f 1 2 431
f 11 431 12
f 10 12 431
f 13 431 11
f 3 4 431
f 2 3 431
f 10 431 4
f 15 16 431
f 14 15 431
f 14 431 13
f 16 17 431
f 5 431 6
f 1 431 5
f 6 431 7
f 8 7 431
f 9 8 431
f 9 431 18
f 18 431 19
f 19 431 20
f 20 431 21
f 21 431 22
f 17 138 150
f 17 151 152
f 17 150 151
f 17 152 153
f 17 153 154
f 140 149 139
f 138 139 150
f 140 141 148
f 141 142 147
f 142 143 144
f 142 144 145
f 142 146 147
f 145 146 142
f 141 147 148
f 150 139 149
f 140 148 149
f 17 154 424
f 22 431 267
f 274 273 286
f 274 286 275
f 275 286 276
f 276 284 277
f 277 282 278
f 278 280 279
f 278 281 280
f 277 283 282
f 278 282 281
f 277 284 283
f 276 285 284
f 273 288 287
f 273 287 286
f 276 286 285
f 267 431 268
f 268 431 269
f 269 431 270
f 270 431 271
f 271 431 272
f 272 431 273
f 273 431 288
f 17 424 425
f 17 425 426
f 17 427 428
f 17 426 427
f 17 428 429
f 17 429 430
f 17 430 442
f 17 443 444
f 17 442 443
f 17 444 445
f 17 445 447
f 17 432 431
f 17 436 434
f 17 433 432
f 17 435 433
f 17 434 435
f 17 446 441
f 17 447 446
f 17 440 436
f 17 437 440
f 17 438 437
f 17 439 438
f 17 441 439