# https://github.com/mikedh/trimesh
v -0.03295037 0.07517341 -0.00000000 0.77647059 0.86666667 0.97647059
v -0.03295037 0.09127563 -0.00000000 0.77647059 0.86666667 0.97647059
v -0.02691759 0.07517341 -0.00000000 0.77647059 0.86666667 0.97647059
v -0.03295037 0.07517341 0.05000000 0.77647059 0.86666667 0.97647059
v -0.02219935 0.09127563 -0.00000000 0.77647059 0.86666667 0.97647059
v -0.03295037 0.09127563 0.05000000 0.77647059 0.86666667 0.97647059
v -0.02219935 0.08092803 -0.00000000 0.77647059 0.86666667 0.97647059
v -0.02690811 0.07517341 0.05000000 0.77647059 0.86666667 0.97647059
v -0.02219935 0.09127563 0.05000000 0.77647059 0.86666667 0.97647059
v -0.02219935 0.08092173 0.05000000 0.77647059 0.86666667 0.97647059
f 1 2 5
f 1 5 7
f 1 7 3
f 1 3 8
f 1 8 4
f 1 4 6
f 1 6 2
f 2 6 9
f 2 9 5
f 3 7 8
f 4 8 10
f 4 10 9
f 4 9 6
f 5 9 10
f 5 10 7
f 7 10 8