# https://github.com/mikedh/trimesh
v 0.00587396 0.09127563 0.05000000 0.69411765 0.05882353 0.66666667
v -0.00492362 0.09127563 0.05000000 0.69411765 0.05882353 0.66666667
v 0.00587396 0.08445054 0.05000000 0.69411765 0.05882353 0.66666667
v 0.00587396 0.09127563 -0.00000000 0.69411765 0.05882353 0.66666667
v -0.00492362 0.08629301 0.05000000 0.69411765 0.05882353 0.66666667
v -0.00492362 0.09127563 -0.00000000 0.69411765 0.05882353 0.66666667
v 0.00587396 0.08440946 0.03160728 0.69411765 0.05882353 0.66666667
v 0.00587396 0.08444650 -0.00000000 0.69411765 0.05882353 0.66666667
v -0.00492362 0.08626204 0.03333007 0.69411765 0.05882353 0.66666667
v 0.00587396 0.08439667 0.02548453 0.69411765 0.05882353 0.66666667
v -0.00492362 0.08625463 -0.00000000 0.69411765 0.05882353 0.66666667
v 0.00587396 0.08439667 0.02451547 0.69411765 0.05882353 0.66666667
f 1 2 5
f 1 5 3
f 1 3 7
f 1 7 10
f 1 10 12
f 1 12 8
f 1 8 4
f 1 4 6
f 1 6 2
f 2 6 11
f 2 11 9
f 2 9 5
f 3 5 7
f 4 8 11
f 4 11 6
f 5 9 10
f 5 10 7
f 8 12 11
f 9 11 10
f 10 11 12