# https://github.com/mikedh/trimesh
v 0.00269064 0.04954623 -0.00000000 0.56470588 0.01568627 0.61568627
v 0.00269064 0.05542070 -0.00000000 0.56470588 0.01568627 0.61568627
v 0.00951594 0.04954623 -0.00000000 0.56470588 0.01568627 0.61568627
v 0.00269064 0.04954623 0.05000000 0.56470588 0.01568627 0.61568627
v 0.00951594 0.05799125 -0.00000000 0.56470588 0.01568627 0.61568627
v 0.00269064 0.05542070 0.03055501 0.56470588 0.01568627 0.61568627
v 0.00951594 0.04954623 0.05000000 0.56470588 0.01568627 0.61568627
v 0.00269064 0.05541822 0.05000000 0.56470588 0.01568627 0.61568627
v 0.00951594 0.05798381 0.02622847 0.56470588 0.01568627 0.61568627
v 0.00951594 0.05796066 0.05000000 0.56470588 0.01568627 0.61568627
v 0.00951594 0.05797967 0.03333007 0.56470588 0.01568627 0.61568627
f 1 2 5
f 1 5 3
f 1 3 7
f 1 7 4
f 1 4 8
f 1 8 6
f 1 6 2
f 2 6 5
f 3 5 9
f 3 9 11
f 3 11 10
f 3 10 7
f 4 7 10
f 4 10 8
f 5 6 8
f 5 8 9
f 8 10 11
f 8 11 9