# https://github.com/mikedh/trimesh
v 0.00269064 0.05541807 0.05000000 0.38039216 0.78823529 0.52549020
v -0.00492362 0.05455586 0.05000000 0.38039216 0.78823529 0.52549020
v 0.00269064 0.04954540 0.05000000 0.38039216 0.78823529 0.52549020
v 0.00269064 0.05542152 0.03055501 0.38039216 0.78823529 0.52549020
v -0.00492362 0.05458117 0.02916504 0.38039216 0.78823529 0.52549020
v -0.00492362 0.04954540 0.05000000 0.38039216 0.78823529 0.52549020
v 0.00269064 0.04954540 -0.00000000 0.38039216 0.78823529 0.52549020
v 0.00269064 0.05542152 0.01944499 0.38039216 0.78823529 0.52549020
v -0.00492362 0.05458117 0.02083496 0.38039216 0.78823529 0.52549020
v -0.00492362 0.04954540 -0.00000000 0.38039216 0.78823529 0.52549020
v 0.00269064 0.05542037 -0.00000000 0.38039216 0.78823529 0.52549020
v -0.00492362 0.05451445 -0.00000000 0.38039216 0.78823529 0.52549020
f 1 2 6
f 1 6 3
f 1 3 7
f 1 7 11
f 1 11 8
f 1 8 4
f 1 4 5
f 1 5 2
f 2 5 9
f 2 9 12
f 2 12 10
f 2 10 6
f 3 6 10
f 3 10 7
f 4 8 9
f 4 9 5
f 7 10 12
f 7 12 11
f 8 11 9
f 9 11 12