# https://github.com/mikedh/trimesh
v -0.00492362 0.05455576 0.05000000 0.43529412 0.89019608 0.96078431
v -0.01616690 0.05653329 0.05000000 0.43529412 0.89019608 0.96078431
v -0.00492362 0.04954540 0.05000000 0.43529412 0.89019608 0.96078431
v -0.00492362 0.05458115 0.02916504 0.43529412 0.89019608 0.96078431
v -0.01616690 0.04954540 0.05000000 0.43529412 0.89019608 0.96078431
v -0.01616690 0.05654632 0.02500000 0.43529412 0.89019608 0.96078431
v -0.00492362 0.04954540 -0.00000000 0.43529412 0.89019608 0.96078431
v -0.00492362 0.05458115 0.02083496 0.43529412 0.89019608 0.96078431
v -0.01616690 0.05655456 -0.00000000 0.43529412 0.89019608 0.96078431
v -0.01616690 0.04954540 -0.00000000 0.43529412 0.89019608 0.96078431
v -0.00492362 0.05451391 -0.00000000 0.43529412 0.89019608 0.96078431
f 1 2 5
f 1 5 3
f 1 3 7
f 1 7 11
f 1 11 8
f 1 8 4
f 1 4 2
f 2 4 6
f 2 6 9
f 2 9 10
f 2 10 5
f 3 5 10
f 3 10 7
f 4 8 9
f 4 9 6
f 7 10 9
f 7 9 11
f 8 11 9