# https://github.com/mikedh/trimesh
v -0.03295037 0.06840490 -0.00000000 0.94117647 0.52156863 0.41176471
v -0.03295037 0.07517341 -0.00000000 0.94117647 0.52156863 0.41176471
v -0.02781231 0.06840490 -0.00000000 0.94117647 0.52156863 0.41176471
v -0.03295037 0.06840490 0.05000000 0.94117647 0.52156863 0.41176471
v -0.02691732 0.07517341 -0.00000000 0.94117647 0.52156863 0.41176471
v -0.03295037 0.07517341 0.05000000 0.94117647 0.52156863 0.41176471
v -0.02780462 0.06840490 0.01694401 0.94117647 0.52156863 0.41176471
v -0.02781823 0.06840490 0.05000000 0.94117647 0.52156863 0.41176471
v -0.02690727 0.07517341 0.05000000 0.94117647 0.52156863 0.41176471
v -0.02780462 0.06840490 0.03305599 0.94117647 0.52156863 0.41176471
v -0.02781764 0.06840557 0.05000000 0.94117647 0.52156863 0.41176471
v -0.02781764 0.06840490 0.04999511 0.94117647 0.52156863 0.41176471
f 1 2 5
f 1 5 3
f 1 3 7
f 1 7 10
f 1 10 12
f 1 12 8
f 1 8 4
f 1 4 6
f 1 6 2
f 2 6 9
f 2 9 5
f 3 5 7
f 4 8 11
f 4 11 9
f 4 9 6
f 5 9 7
f 7 9 10
f 8 12 11
f 9 11 12
f 9 12 10