# https://github.com/mikedh/trimesh
v 0.02317679 0.06126935 0.05000000 0.11764706 0.63921569 0.14117647
v 0.01404014 0.06126935 0.05000000 0.11764706 0.63921569 0.14117647
v 0.02317679 0.04954655 0.05000000 0.11764706 0.63921569 0.14117647
v 0.02317679 0.06126935 -0.00000000 0.11764706 0.63921569 0.14117647
v 0.01403345 0.06126935 0.03373630 0.11764706 0.63921569 0.14117647
v 0.00951595 0.05799179 -0.00000000 0.11764706 0.63921569 0.14117647
v 0.00951595 0.05798376 0.02622847 0.11764706 0.63921569 0.14117647
v 0.00951595 0.05798031 0.03333007 0.11764706 0.63921569 0.14117647
v 0.00951595 0.05796080 0.05000000 0.11764706 0.63921569 0.14117647
v 0.00951595 0.04954655 0.05000000 0.11764706 0.63921569 0.14117647
v 0.02317679 0.04954655 -0.00000000 0.11764706 0.63921569 0.14117647
v 0.01402409 0.06126935 -0.00000000 0.11764706 0.63921569 0.14117647
v 0.01403078 0.06126935 0.02500000 0.11764706 0.63921569 0.14117647
v 0.00951595 0.04954655 -0.00000000 0.11764706 0.63921569 0.14117647
f 1 2 9
f 1 9 10
f 1 10 3
f 1 3 11
f 1 11 4
f 1 4 12
f 1 12 13
f 1 13 5
f 1 5 2
f 2 5 6
f 2 6 7
f 2 7 8
f 2 8 9
f 3 10 14
f 3 14 11
f 4 11 14
f 4 14 6
f 4 6 12
f 5 13 6
f 6 13 12
f 6 14 10
f 6 10 9
f 6 9 8
f 6 8 7