# https://github.com/mikedh/trimesh
v 0.01111081 0.08175907 0.02083496 0.08627451 0.01960784 0.83137255
v 0.00587396 0.08444655 -0.00000000 0.08627451 0.01960784 0.83137255
v 0.01111081 0.08183918 -0.00000000 0.08627451 0.01960784 0.83137255
v 0.01111081 0.08175907 0.02916504 0.08627451 0.01960784 0.83137255
v 0.00587396 0.08439625 0.02451547 0.08627451 0.01960784 0.83137255
v 0.00587396 0.09127470 -0.00000000 0.08627451 0.01960784 0.83137255
v 0.01111081 0.09127470 -0.00000000 0.08627451 0.01960784 0.83137255
v 0.01111081 0.08184757 0.05000000 0.08627451 0.01960784 0.83137255
v 0.00587396 0.08445027 0.05000000 0.08627451 0.01960784 0.83137255
v 0.00587396 0.08440929 0.03160728 0.08627451 0.01960784 0.83137255
v 0.00587396 0.08439625 0.02548453 0.08627451 0.01960784 0.83137255
v 0.00587396 0.09127470 0.05000000 0.08627451 0.01960784 0.83137255
v 0.01111081 0.09127470 0.05000000 0.08627451 0.01960784 0.83137255
f 1 2 3
f 1 3 7
f 1 7 13
f 1 13 8
f 1 8 4
f 1 4 11
f 1 11 5
f 1 5 2
f 2 6 7
f 2 7 3
f 2 5 11
f 2 11 10
f 2 10 9
f 2 9 12
f 2 12 6
f 4 8 9
f 4 9 10
f 4 10 11
f 6 12 13
f 6 13 7
f 8 13 12
f 8 12 9