# https://github.com/mikedh/trimesh
v 0.01574912 0.07751843 0.02083496 0.54117647 0.42352941 0.64313725
v 0.01111132 0.08176032 0.02083496 0.54117647 0.42352941 0.64313725
v 0.01574912 0.07757094 -0.00000000 0.54117647 0.42352941 0.64313725
v 0.01574912 0.07751843 0.02916504 0.54117647 0.42352941 0.64313725
v 0.01111132 0.08183977 -0.00000000 0.54117647 0.42352941 0.64313725
v 0.01111132 0.08176032 0.02916504 0.54117647 0.42352941 0.64313725
v 0.01574912 0.09127563 -0.00000000 0.54117647 0.42352941 0.64313725
v 0.01574912 0.07757094 0.05000000 0.54117647 0.42352941 0.64313725
v 0.01111132 0.09127563 -0.00000000 0.54117647 0.42352941 0.64313725
v 0.01111132 0.08184785 0.05000000 0.54117647 0.42352941 0.64313725
v 0.01574912 0.09127563 0.05000000 0.54117647 0.42352941 0.64313725
v 0.01111132 0.09127563 0.05000000 0.54117647 0.42352941 0.64313725
f 1 2 3
f 1 3 7
f 1 7 11
f 1 11 8
f 1 8 4
f 1 4 6
f 1 6 2
f 2 5 3
f 2 6 10
f 2 10 12
f 2 12 9
f 2 9 5
f 3 5 9
f 3 9 7
f 4 8 6
f 6 8 10
f 7 9 12
f 7 12 11
f 8 11 12
f 8 12 10