# https://github.com/mikedh/trimesh

o geometry_0
v -0.02159960 0.05943976 -0.00000000 0.54509804 0.71372549 0.60000000
v -0.03295037 0.05943976 -0.00000000 0.54509804 0.71372549 0.60000000
v -0.02781113 0.06840490 -0.00000000 0.54509804 0.71372549 0.60000000
v -0.02780335 0.06840490 0.01694401 0.54509804 0.71372549 0.60000000
v -0.02780335 0.06840490 0.03305599 0.54509804 0.71372549 0.60000000
v -0.02161071 0.05943976 0.02500000 0.54509804 0.71372549 0.60000000
v -0.03295037 0.06840490 -0.00000000 0.54509804 0.71372549 0.60000000
v -0.03295037 0.05943976 0.05000000 0.54509804 0.71372549 0.60000000
v -0.02781669 0.06840490 0.05000000 0.54509804 0.71372549 0.60000000
v -0.02162627 0.05943976 0.03333007 0.54509804 0.71372549 0.60000000
v -0.03295037 0.06840490 0.05000000 0.54509804 0.71372549 0.60000000
v -0.02167405 0.05943976 0.05000000 0.54509804 0.71372549 0.60000000
v -0.02167294 0.05944152 0.05000000 0.54509804 0.71372549 0.60000000
v -0.02167183 0.05943976 0.04996574 0.54509804 0.71372549 0.60000000
f 1 2 7
f 1 7 3
f 1 3 4
f 1 4 5
f 1 5 6
f 1 6 10
f 1 10 14
f 1 14 12
f 1 12 8
f 1 8 2
f 2 8 11
f 2 11 7
f 3 7 11
f 3 11 9
f 3 9 5
f 3 5 4
f 5 9 6
f 6 9 10
f 8 12 13
f 8 13 9
f 8 9 11
f 9 13 10
f 10 13 14
f 12 14 13

o geometry_1
v 0.01574912 0.07751843 0.02083496 0.54117647 0.42352941 0.64313725
v 0.01111132 0.08176032 0.02083496 0.54117647 0.42352941 0.64313725
v 0.01574912 0.07757094 -0.00000000 0.54117647 0.42352941 0.64313725
v 0.01574912 0.07751843 0.02916504 0.54117647 0.42352941 0.64313725
v 0.01111132 0.08183977 -0.00000000 0.54117647 0.42352941 0.64313725
v 0.01111132 0.08176032 0.02916504 0.54117647 0.42352941 0.64313725
v 0.01574912 0.09127563 -0.00000000 0.54117647 0.42352941 0.64313725
v 0.01574912 0.07757094 0.05000000 0.54117647 0.42352941 0.64313725
v 0.01111132 0.09127563 -0.00000000 0.54117647 0.42352941 0.64313725
v 0.01111132 0.08184785 0.05000000 0.54117647 0.42352941 0.64313725
v 0.01574912 0.09127563 0.05000000 0.54117647 0.42352941 0.64313725
v 0.01111132 0.09127563 0.05000000 0.54117647 0.42352941 0.64313725
f 15 16 17
f 15 17 21
f 15 21 25
f 15 25 22
f 15 22 18
f 15 18 20
f 15 20 16
f 16 19 17
f 16 20 24
f 16 24 26
f 16 26 23
f 16 23 19
f 17 19 23
f 17 23 21
f 18 22 20
f 20 22 24
f 21 23 26
f 21 26 25
f 22 25 26
f 22 26 24

o geometry_2
v -0.00492362 0.05455576 0.05000000 0.43529412 0.89019608 0.96078431
v -0.01616690 0.05653329 0.05000000 0.43529412 0.89019608 0.96078431
v -0.00492362 0.04954540 0.05000000 0.43529412 0.89019608 0.96078431
v -0.00492362 0.05458115 0.02916504 0.43529412 0.89019608 0.96078431
v -0.01616690 0.04954540 0.05000000 0.43529412 0.89019608 0.96078431
v -0.01616690 0.05654632 0.02500000 0.43529412 0.89019608 0.96078431
v -0.00492362 0.04954540 -0.00000000 0.43529412 0.89019608 0.96078431
v -0.00492362 0.05458115 0.02083496 0.43529412 0.89019608 0.96078431
v -0.01616690 0.05655456 -0.00000000 0.43529412 0.89019608 0.96078431
v -0.01616690 0.04954540 -0.00000000 0.43529412 0.89019608 0.96078431
v -0.00492362 0.05451391 -0.00000000 0.43529412 0.89019608 0.96078431
f 27 28 31
f 27 31 29
f 27 29 33
f 27 33 37
f 27 37 34
f 27 34 30
f 27 30 28
f 28 30 32
f 28 32 35
f 28 35 36
f 28 36 31
f 29 31 36
f 29 36 33
f 30 34 35
f 30 35 32
f 33 36 35
f 33 35 37
f 34 37 35

o geometry_3
v 0.00269064 0.05541807 0.05000000 0.38039216 0.78823529 0.52549020
v -0.00492362 0.05455586 0.05000000 0.38039216 0.78823529 0.52549020
v 0.00269064 0.04954540 0.05000000 0.38039216 0.78823529 0.52549020
v 0.00269064 0.05542152 0.03055501 0.38039216 0.78823529 0.52549020
v -0.00492362 0.05458117 0.02916504 0.38039216 0.78823529 0.52549020
v -0.00492362 0.04954540 0.05000000 0.38039216 0.78823529 0.52549020
v 0.00269064 0.04954540 -0.00000000 0.38039216 0.78823529 0.52549020
v 0.00269064 0.05542152 0.01944499 0.38039216 0.78823529 0.52549020
v -0.00492362 0.05458117 0.02083496 0.38039216 0.78823529 0.52549020
v -0.00492362 0.04954540 -0.00000000 0.38039216 0.78823529 0.52549020
v 0.00269064 0.05542037 -0.00000000 0.38039216 0.78823529 0.52549020
v -0.00492362 0.05451445 -0.00000000 0.38039216 0.78823529 0.52549020
f 38 39 43
f 38 43 40
f 38 40 44
f 38 44 48
f 38 48 45
f 38 45 41
f 38 41 42
f 38 42 39
f 39 42 46
f 39 46 49
f 39 49 47
f 39 47 43
f 40 43 47
f 40 47 44
f 41 45 46
f 41 46 42
f 44 47 49
f 44 49 48
f 45 48 46
f 46 48 49

o geometry_4
v -0.00492467 0.09127563 0.05000000 0.56470588 0.92549020 0.07058824
v -0.01560320 0.09127563 0.05000000 0.56470588 0.92549020 0.07058824
v -0.00492467 0.08629284 0.05000000 0.56470588 0.92549020 0.07058824
v -0.00492467 0.09127563 -0.00000000 0.56470588 0.92549020 0.07058824
v -0.01560320 0.08449138 0.05000000 0.56470588 0.92549020 0.07058824
v -0.01560320 0.09127563 -0.00000000 0.56470588 0.92549020 0.07058824
v -0.00492467 0.08626225 0.03333007 0.56470588 0.92549020 0.07058824
v -0.00492467 0.08625494 -0.00000000 0.56470588 0.92549020 0.07058824
v -0.01560320 0.08448340 0.03333007 0.56470588 0.92549020 0.07058824
v -0.01560320 0.08448273 -0.00000000 0.56470588 0.92549020 0.07058824
f 50 51 54
f 50 54 52
f 50 52 56
f 50 56 57
f 50 57 53
f 50 53 55
f 50 55 51
f 51 55 59
f 51 59 58
f 51 58 54
f 52 54 56
f 53 57 59
f 53 59 55
f 54 58 56
f 56 58 57
f 57 58 59

o geometry_5
v 0.01111081 0.08175907 0.02083496 0.08627451 0.01960784 0.83137255
v 0.00587396 0.08444655 -0.00000000 0.08627451 0.01960784 0.83137255
v 0.01111081 0.08183918 -0.00000000 0.08627451 0.01960784 0.83137255
v 0.01111081 0.08175907 0.02916504 0.08627451 0.01960784 0.83137255
v 0.00587396 0.08439625 0.02451547 0.08627451 0.01960784 0.83137255
v 0.00587396 0.09127470 -0.00000000 0.08627451 0.01960784 0.83137255
v 0.01111081 0.09127470 -0.00000000 0.08627451 0.01960784 0.83137255
v 0.01111081 0.08184757 0.05000000 0.08627451 0.01960784 0.83137255
v 0.00587396 0.08445027 0.05000000 0.08627451 0.01960784 0.83137255
v 0.00587396 0.08440929 0.03160728 0.08627451 0.01960784 0.83137255
v 0.00587396 0.08439625 0.02548453 0.08627451 0.01960784 0.83137255
v 0.00587396 0.09127470 0.05000000 0.08627451 0.01960784 0.83137255
v 0.01111081 0.09127470 0.05000000 0.08627451 0.01960784 0.83137255
f 60 61 62
f 60 62 66
f 60 66 72
f 60 72 67
f 60 67 63
f 60 63 70
f 60 70 64
f 60 64 61
f 61 65 66
f 61 66 62
f 61 64 70
f 61 70 69
f 61 69 68
f 61 68 71
f 61 71 65
f 63 67 68
f 63 68 69
f 63 69 70
f 65 71 72
f 65 72 66
f 67 72 71
f 67 71 68

o geometry_6
v -0.03295037 0.07517341 -0.00000000 0.77647059 0.86666667 0.97647059
v -0.03295037 0.09127563 -0.00000000 0.77647059 0.86666667 0.97647059
v -0.02691759 0.07517341 -0.00000000 0.77647059 0.86666667 0.97647059
v -0.03295037 0.07517341 0.05000000 0.77647059 0.86666667 0.97647059
v -0.02219935 0.09127563 -0.00000000 0.77647059 0.86666667 0.97647059
v -0.03295037 0.09127563 0.05000000 0.77647059 0.86666667 0.97647059
v -0.02219935 0.08092803 -0.00000000 0.77647059 0.86666667 0.97647059
v -0.02690811 0.07517341 0.05000000 0.77647059 0.86666667 0.97647059
v -0.02219935 0.09127563 0.05000000 0.77647059 0.86666667 0.97647059
v -0.02219935 0.08092173 0.05000000 0.77647059 0.86666667 0.97647059
f 73 74 77
f 73 77 79
f 73 79 75
f 73 75 80
f 73 80 76
f 73 76 78
f 73 78 74
f 74 78 81
f 74 81 77
f 75 79 80
f 76 80 82
f 76 82 81
f 76 81 78
f 77 81 82
f 77 82 79
f 79 82 80

o geometry_7
v -0.02219765 0.08092245 0.05000000 0.79607843 0.45882353 0.78039216
v -0.01560385 0.08448398 0.03333007 0.79607843 0.45882353 0.78039216
v -0.01560385 0.08449209 0.05000000 0.79607843 0.45882353 0.78039216
v -0.02219765 0.09127563 0.05000000 0.79607843 0.45882353 0.78039216
v -0.02219765 0.08092751 -0.00000000 0.79607843 0.45882353 0.78039216
v -0.01560385 0.08448297 -0.00000000 0.79607843 0.45882353 0.78039216
v -0.01560385 0.09127563 0.05000000 0.79607843 0.45882353 0.78039216
v -0.02219765 0.09127563 -0.00000000 0.79607843 0.45882353 0.78039216
v -0.01560385 0.09127563 -0.00000000 0.79607843 0.45882353 0.78039216
f 83 84 85
f 83 85 89
f 83 89 86
f 83 86 90
f 83 90 87
f 83 87 88
f 83 88 84
f 84 88 91
f 84 91 89
f 84 89 85
f 86 89 91
f 86 91 90
f 87 90 91
f 87 91 88

o geometry_8
v 0.02317679 0.06126935 0.05000000 0.11764706 0.63921569 0.14117647
v 0.01404014 0.06126935 0.05000000 0.11764706 0.63921569 0.14117647
v 0.02317679 0.04954655 0.05000000 0.11764706 0.63921569 0.14117647
v 0.02317679 0.06126935 -0.00000000 0.11764706 0.63921569 0.14117647
v 0.01403345 0.06126935 0.03373630 0.11764706 0.63921569 0.14117647
v 0.00951595 0.05799179 -0.00000000 0.11764706 0.63921569 0.14117647
v 0.00951595 0.05798376 0.02622847 0.11764706 0.63921569 0.14117647
v 0.00951595 0.05798031 0.03333007 0.11764706 0.63921569 0.14117647
v 0.00951595 0.05796080 0.05000000 0.11764706 0.63921569 0.14117647
v 0.00951595 0.04954655 0.05000000 0.11764706 0.63921569 0.14117647
v 0.02317679 0.04954655 -0.00000000 0.11764706 0.63921569 0.14117647
v 0.01402409 0.06126935 -0.00000000 0.11764706 0.63921569 0.14117647
v 0.01403078 0.06126935 0.02500000 0.11764706 0.63921569 0.14117647
v 0.00951595 0.04954655 -0.00000000 0.11764706 0.63921569 0.14117647
f 92 93 100
f 92 100 101
f 92 101 94
f 92 94 102
f 92 102 95
f 92 95 103
f 92 103 104
f 92 104 96
f 92 96 93
f 93 96 97
f 93 97 98
f 93 98 99
f 93 99 100
f 94 101 105
f 94 105 102
f 95 102 105
f 95 105 97
f 95 97 103
f 96 104 97
f 97 104 103
f 97 105 101
f 97 101 100
f 97 100 99
f 97 99 98

o geometry_9
v -0.03295037 0.06840490 -0.00000000 0.94117647 0.52156863 0.41176471
v -0.03295037 0.07517341 -0.00000000 0.94117647 0.52156863 0.41176471
v -0.02781231 0.06840490 -0.00000000 0.94117647 0.52156863 0.41176471
v -0.03295037 0.06840490 0.05000000 0.94117647 0.52156863 0.41176471
v -0.02691732 0.07517341 -0.00000000 0.94117647 0.52156863 0.41176471
v -0.03295037 0.07517341 0.05000000 0.94117647 0.52156863 0.41176471
v -0.02780462 0.06840490 0.01694401 0.94117647 0.52156863 0.41176471
v -0.02781823 0.06840490 0.05000000 0.94117647 0.52156863 0.41176471
v -0.02690727 0.07517341 0.05000000 0.94117647 0.52156863 0.41176471
v -0.02780462 0.06840490 0.03305599 0.94117647 0.52156863 0.41176471
v -0.02781764 0.06840557 0.05000000 0.94117647 0.52156863 0.41176471
v -0.02781764 0.06840490 0.04999511 0.94117647 0.52156863 0.41176471
f 106 107 110
f 106 110 108
f 106 108 112
f 106 112 115
f 106 115 117
f 106 117 113
f 106 113 109
f 106 109 111
f 106 111 107
f 107 111 114
f 107 114 110
f 108 110 112
f 109 113 116
f 109 116 114
f 109 114 111
f 110 114 112
f 112 114 115
f 113 117 116
f 114 116 117
f 114 117 115

o geometry_10
v 0.02317813 0.07040394 0.05000000 0.26274510 0.77254902 0.45490196
v 0.01817441 0.07040394 0.05000000 0.26274510 0.77254902 0.45490196
v 0.02317813 0.06126936 0.05000000 0.26274510 0.77254902 0.45490196
v 0.02317813 0.07040394 -0.00000000 0.26274510 0.77254902 0.45490196
v 0.01403271 0.06126936 0.03333007 0.26274510 0.77254902 0.45490196
v 0.01403898 0.06126936 0.05000000 0.26274510 0.77254902 0.45490196
v 0.01818426 0.07040394 -0.00000000 0.26274510 0.77254902 0.45490196
v 0.01402375 0.06126936 -0.00000000 0.26274510 0.77254902 0.45490196
v 0.02317813 0.06126936 -0.00000000 0.26274510 0.77254902 0.45490196
f 118 119 123
f 118 123 120
f 118 120 126
f 118 126 121
f 118 121 124
f 118 124 119
f 119 122 123
f 119 124 125
f 119 125 122
f 120 123 122
f 120 122 125
f 120 125 126
f 121 126 125
f 121 125 124

o geometry_11
v 0.00269064 0.04954623 -0.00000000 0.56470588 0.01568627 0.61568627
v 0.00269064 0.05542070 -0.00000000 0.56470588 0.01568627 0.61568627
v 0.00951594 0.04954623 -0.00000000 0.56470588 0.01568627 0.61568627
v 0.00269064 0.04954623 0.05000000 0.56470588 0.01568627 0.61568627
v 0.00951594 0.05799125 -0.00000000 0.56470588 0.01568627 0.61568627
v 0.00269064 0.05542070 0.03055501 0.56470588 0.01568627 0.61568627
v 0.00951594 0.04954623 0.05000000 0.56470588 0.01568627 0.61568627
v 0.00269064 0.05541822 0.05000000 0.56470588 0.01568627 0.61568627
v 0.00951594 0.05798381 0.02622847 0.56470588 0.01568627 0.61568627
v 0.00951594 0.05796066 0.05000000 0.56470588 0.01568627 0.61568627
v 0.00951594 0.05797967 0.03333007 0.56470588 0.01568627 0.61568627
f 127 128 131
f 127 131 129
f 127 129 133
f 127 133 130
f 127 130 134
f 127 134 132
f 127 132 128
f 128 132 131
f 129 131 135
f 129 135 137
f 129 137 136
f 129 136 133
f 130 133 136
f 130 136 134
f 131 132 134
f 131 134 135
f 134 136 137
f 134 137 135

o geometry_12
v 0.01818376 0.07040598 -0.00000000 0.61176471 0.61568627 0.94117647
v 0.01574912 0.07751984 0.02083496 0.61176471 0.61568627 0.94117647
v 0.01574912 0.07757092 -0.00000000 0.61176471 0.61568627 0.94117647
v 0.02317813 0.07040598 -0.00000000 0.61176471 0.61568627 0.94117647
v 0.01817431 0.07040598 0.05000000 0.61176471 0.61568627 0.94117647
v 0.01574912 0.07751984 0.02916504 0.61176471 0.61568627 0.94117647
v 0.01574912 0.09127359 -0.00000000 0.61176471 0.61568627 0.94117647
v 0.02317813 0.09127359 -0.00000000 0.61176471 0.61568627 0.94117647
v 0.02317813 0.07040598 0.05000000 0.61176471 0.61568627 0.94117647
v 0.01574912 0.07757092 0.05000000 0.61176471 0.61568627 0.94117647
v 0.01574912 0.09127359 0.05000000 0.61176471 0.61568627 0.94117647
v 0.02317813 0.09127359 0.05000000 0.61176471 0.61568627 0.94117647
f 138 139 140
f 138 140 144
f 138 144 145
f 138 145 141
f 138 141 146
f 138 146 142
f 138 142 139
f 139 142 143
f 139 143 147
f 139 147 148
f 139 148 144
f 139 144 140
f 141 145 149
f 141 149 146
f 142 146 149
f 142 149 148
f 142 148 147
f 142 147 143
f 144 148 149
f 144 149 145

o geometry_13
v -0.01616690 0.05653324 0.05000000 0.67843137 0.35686275 0.43529412
v -0.02167213 0.05943879 0.04996574 0.67843137 0.35686275 0.43529412
v -0.02167377 0.05943879 0.05000000 0.67843137 0.35686275 0.43529412
v -0.01616690 0.04954540 0.05000000 0.67843137 0.35686275 0.43529412
v -0.01616690 0.05654583 0.02500000 0.67843137 0.35686275 0.43529412
v -0.02160970 0.05943879 0.02500000 0.67843137 0.35686275 0.43529412
v -0.02162613 0.05943879 0.03333007 0.67843137 0.35686275 0.43529412
v -0.03295037 0.05943879 0.05000000 0.67843137 0.35686275 0.43529412
v -0.03295037 0.04954540 0.05000000 0.67843137 0.35686275 0.43529412
v -0.01616690 0.04954540 -0.00000000 0.67843137 0.35686275 0.43529412
v -0.01616690 0.05655455 -0.00000000 0.67843137 0.35686275 0.43529412
v -0.02159984 0.05943879 -0.00000000 0.67843137 0.35686275 0.43529412
v -0.03295037 0.05943879 -0.00000000 0.67843137 0.35686275 0.43529412
v -0.03295037 0.04954540 -0.00000000 0.67843137 0.35686275 0.43529412
f 150 151 152
f 150 152 157
f 150 157 158
f 150 158 153
f 150 153 159
f 150 159 160
f 150 160 154
f 150 154 155
f 150 155 156
f 150 156 151
f 151 156 155
f 151 155 161
f 151 161 162
f 151 162 157
f 151 157 152
f 153 158 163
f 153 163 159
f 154 160 155
f 155 160 161
f 157 162 163
f 157 163 158
f 159 163 162
f 159 162 161
f 159 161 160

o geometry_14
v 0.00587396 0.09127563 0.05000000 0.69411765 0.05882353 0.66666667
v -0.00492362 0.09127563 0.05000000 0.69411765 0.05882353 0.66666667
v 0.00587396 0.08445054 0.05000000 0.69411765 0.05882353 0.66666667
v 0.00587396 0.09127563 -0.00000000 0.69411765 0.05882353 0.66666667
v -0.00492362 0.08629301 0.05000000 0.69411765 0.05882353 0.66666667
v -0.00492362 0.09127563 -0.00000000 0.69411765 0.05882353 0.66666667
v 0.00587396 0.08440946 0.03160728 0.69411765 0.05882353 0.66666667
v 0.00587396 0.08444650 -0.00000000 0.69411765 0.05882353 0.66666667
v -0.00492362 0.08626204 0.03333007 0.69411765 0.05882353 0.66666667
v 0.00587396 0.08439667 0.02548453 0.69411765 0.05882353 0.66666667
v -0.00492362 0.08625463 -0.00000000 0.69411765 0.05882353 0.66666667
v 0.00587396 0.08439667 0.02451547 0.69411765 0.05882353 0.66666667
f 164 165 168
f 164 168 166
f 164 166 170
f 164 170 173
f 164 173 175
f 164 175 171
f 164 171 167
f 164 167 169
f 164 169 165
f 165 169 174
f 165 174 172
f 165 172 168
f 166 168 170
f 167 171 174
f 167 174 169
f 168 172 173
f 168 173 170
f 171 175 174
f 172 174 173
f 173 174 175