# https://github.com/mikedh/trimesh
v -0.03685150 -0.02937384 -0.03068734
v -0.03685150 -0.03034310 -0.03033140
v -0.03770506 -0.03022646 -0.03022188
v -0.03782876 -0.02937384 -0.03033140
v -0.03685150 -0.02524856 -0.03068734
v -0.02479046 -0.02937384 -0.03068734
v 0.06394172 -0.03034248 -0.03034236
v 0.03172944 -0.03068740 -0.02937312
v -0.03685150 -0.03068676 -0.02936218
v -0.03782876 -0.03034310 -0.02936218
v -0.03817514 -0.02937384 -0.02936218
v -0.03782876 -0.02524856 -0.03033140
v -0.02479046 -0.02524856 -0.03068734
v 0.03172944 -0.02482006 -0.02833818
v 0.05186830 -0.02482068 -0.03068186
v 0.08686388 -0.02937322 -0.03068186
v 0.08686388 -0.03034186 -0.03034236
v 0.06436230 -0.03034248 -0.03034236
v 0.03687548 -0.03068740 -0.02937312
v 0.03172944 -0.03068740 -0.02687612
v -0.03686388 -0.03068676 -0.02215044
v -0.03686388 -0.03068676 0.02464090
v -0.03782876 -0.03034122 0.02464090
v -0.03817514 -0.02937322 0.02464090
v -0.03817514 -0.02937384 -0.02895696
v -0.03817514 -0.02524856 -0.02936218
v 0.05686590 -0.02437472 -0.00437028
v 0.06559934 -0.02431548 -0.00561330
v 0.06394172 -0.02482068 -0.03068186
v 0.08686388 -0.02482130 -0.03068186
v 0.08782876 -0.02937322 -0.03034236
v 0.08771744 -0.03022770 -0.03022736
v 0.08686388 -0.03068552 -0.02937312
v 0.06394172 -0.03068676 -0.02937312
v 0.04062370 -0.03068740 -0.02811914
v 0.03187788 -0.03068740 -0.02687612
v 0.08650514 -0.03068428 0.02525418
v 0.05186830 -0.03068428 0.02525418
v 0.03411692 -0.02848754 0.02525418
v -0.03817514 -0.02774094 0.02464090
v -0.03817514 -0.02524856 -0.02895696
v 0.05686590 -0.02436786 0.00436920
v 0.06559934 -0.02433106 -0.00187876
v 0.08817514 -0.02482130 -0.02846412
v 0.08817514 -0.02482130 -0.02937312
v 0.08782876 -0.02482130 -0.03034236
v 0.08817514 -0.02937322 -0.02937312
v 0.08782876 -0.03034186 -0.02937312
v 0.08686388 -0.03068552 -0.02846412
v 0.08583714 -0.03068614 -0.02846412
v 0.08583714 -0.03068614 -0.02357418
v 0.08676492 -0.03068364 -0.00091500
v 0.08782876 -0.03034186 -0.02846412
v 0.08817514 -0.02937322 -0.02846412
v 0.08650514 -0.02895470 0.02525418
v 0.03411692 -0.02679850 0.02525418
v -0.03817514 -0.02524918 -0.00090954
v -0.00061890 -0.02681036 0.02464090
v 0.06061410 -0.02441152 0.00686620
v 0.06186350 -0.02441028 0.00686620
v 0.06559934 -0.02438034 0.00436920
v 0.06559934 -0.02446204 0.00561770
v 0.06311290 -0.02447576 0.00686620
v 0.05061890 -0.02679788 0.02525418
f 1 2 3
f 1 3 4
f 1 4 12
f 1 12 5
f 1 5 13
f 1 13 6
f 1 6 18
f 1 18 7
f 1 7 2
f 2 8 9
f 2 9 3
f 2 7 8
f 3 10 11
f 3 11 4
f 3 9 10
f 4 11 26
f 4 26 12
f 5 12 14
f 5 14 15
f 5 15 29
f 5 29 13
f 6 13 30
f 6 30 16
f 6 16 17
f 6 17 18
f 7 18 19
f 7 19 8
f 8 19 35
f 8 35 36
f 8 36 20
f 8 20 22
f 8 22 21
f 8 21 9
f 9 21 10
f 10 21 22
f 10 22 23
f 10 23 24
f 10 24 25
f 10 25 11
f 11 25 24
f 11 24 40
f 11 40 57
f 11 57 41
f 11 41 26
f 12 26 27
f 12 27 28
f 12 28 14
f 13 29 30
f 14 28 15
f 15 28 29
f 16 30 46
f 16 46 31
f 16 31 32
f 16 32 17
f 17 32 33
f 17 33 34
f 17 34 18
f 18 34 19
f 19 34 35
f 20 36 22
f 22 36 35
f 22 35 37
f 22 37 38
f 22 38 39
f 22 39 23
f 23 39 24
f 24 39 56
f 24 56 40
f 26 41 42
f 26 42 27
f 27 42 28
f 28 42 43
f 28 43 44
f 28 44 45
f 28 45 46
f 28 46 30
f 28 30 29
f 31 46 45
f 31 45 47
f 31 47 32
f 32 47 48
f 32 48 33
f 33 48 53
f 33 53 49
f 33 49 51
f 33 51 50
f 33 50 34
f 34 50 51
f 34 51 35
f 35 51 37
f 37 51 49
f 37 49 52
f 37 52 53
f 37 53 54
f 37 54 44
f 37 44 55
f 37 55 64
f 37 64 56
f 37 56 39
f 37 39 38
f 40 56 58
f 40 58 57
f 41 57 42
f 42 59 60
f 42 60 61
f 42 61 43
f 42 57 59
f 43 61 44
f 44 54 47
f 44 47 45
f 44 61 62
f 44 62 55
f 47 54 53
f 47 53 48
f 49 53 52
f 55 62 63
f 55 63 64
f 56 64 60
f 56 60 59
f 56 59 58
f 57 58 59
f 60 63 62
f 60 62 61
f 60 64 63

