# https://github.com/mikedh/trimesh
v -0.03818750 -0.02900268 0.02463550
v -0.03651178 -0.02900268 0.02463550
v -0.03818750 -0.02900268 0.02937322
v -0.03818750 -0.00001100 0.02463550
v -0.03818694 -0.02524534 -0.01681382
v -0.03818638 -0.02773698 -0.00090360
v -0.03561754 -0.02900268 0.02900128
v -0.03679702 -0.02773698 -0.00090360
v -0.03784310 -0.02900268 0.03034030
v -0.03818750 -0.00001100 0.02937322
v -0.03818638 -0.00001100 0.02062308
v -0.03818694 -0.01437630 -0.01681382
v -0.03681210 -0.02524534 -0.01681382
v -0.03348688 -0.02286436 0.00063070
v -0.03300962 -0.02187394 0.00063070
v -0.03561754 -0.02900268 0.02904312
v -0.03784310 -0.00001100 0.03034030
v -0.03687460 -0.02900268 0.03068436
v -0.03801222 -0.00001100 0.02012094
v -0.03788664 -0.01057640 -0.01681382
v -0.03813894 -0.01187898 -0.01681382
v -0.03818304 -0.01312764 -0.01681382
v -0.03681210 -0.01318724 -0.01681382
v -0.03248490 -0.02011446 -0.00002022
v -0.03354438 -0.02278206 -0.00019690
v -0.03248490 -0.02011446 0.00011462
v -0.03561754 -0.02899700 0.03068436
v -0.03562536 -0.02900268 0.03068436
v -0.03687460 -0.00001100 0.03068436
v -0.03784310 -0.00001100 0.01963740
v -0.03711184 -0.01058206 -0.01681382
v -0.03715538 -0.00001100 0.01963740
v -0.03684670 -0.01193856 -0.01681382
v -0.03248490 -0.01985622 -0.00002022
v -0.03248490 -0.01985622 0.00011462
v -0.03561754 -0.02524818 0.03068436
v -0.03649838 -0.00001100 0.03068436
v -0.03681210 -0.00001100 0.02062308
v -0.03649838 -0.00001100 0.02900592
f 1 2 7
f 1 7 16
f 1 16 28
f 1 28 18
f 1 18 9
f 1 9 3
f 1 3 10
f 1 10 4
f 1 4 12
f 1 12 5
f 1 5 6
f 1 6 8
f 1 8 2
f 2 8 7
f 3 9 17
f 3 17 10
f 4 11 12
f 4 10 17
f 4 17 29
f 4 29 37
f 4 37 39
f 4 39 38
f 4 38 32
f 4 32 30
f 4 30 19
f 4 19 11
f 5 12 22
f 5 22 21
f 5 21 20
f 5 20 31
f 5 31 33
f 5 33 23
f 5 23 13
f 5 13 8
f 5 8 6
f 7 14 15
f 7 15 16
f 7 8 14
f 8 13 14
f 9 18 29
f 9 29 17
f 11 19 20
f 11 20 21
f 11 21 22
f 11 22 12
f 13 23 34
f 13 34 24
f 13 24 15
f 13 15 25
f 13 25 14
f 14 25 15
f 15 24 26
f 15 26 27
f 15 27 16
f 16 27 28
f 18 28 27
f 18 27 36
f 18 36 37
f 18 37 29
f 19 30 20
f 20 30 32
f 20 32 31
f 23 33 34
f 24 34 35
f 24 35 26
f 26 35 36
f 26 36 27
f 31 32 38
f 31 38 34
f 31 34 33
f 34 38 39
f 34 39 37
f 34 37 35
f 35 37 36

