# https://github.com/mikedh/trimesh
v -0.03779584 0.01074888 -0.01648142
v -0.03786340 0.01095618 -0.01648142
v -0.03720416 0.01074888 -0.01648142
v -0.03768198 0.01096612 -0.01605886
v -0.03784362 0.01964734 -0.00000492
v -0.03801414 0.02013152 -0.00000492
v -0.03818736 0.02062422 -0.00000492
v -0.03813394 0.01226958 -0.01648142
v -0.03731804 0.01096612 -0.01605886
v -0.03695664 0.01189190 -0.01648142
v -0.03681264 0.02062422 -0.00000492
v -0.03715638 0.01964734 -0.00000492
v -0.03818750 0.02187372 -0.00000492
v -0.03818750 0.02062422 -0.00187578
v -0.03818750 0.01351908 -0.01648142
v -0.03684184 0.01312578 -0.01648142
v -0.03681264 0.02525308 -0.00000492
v -0.03681264 0.01437528 -0.01562342
v -0.03818750 0.02525308 -0.00000492
v -0.03818750 0.02525308 -0.01648142
v -0.03681264 0.01437528 -0.01648142
v -0.03681264 0.02525308 -0.01648142
f 1 2 8
f 1 8 15
f 1 15 20
f 1 20 22
f 1 22 21
f 1 21 16
f 1 16 10
f 1 10 3
f 1 3 9
f 1 9 4
f 1 4 5
f 1 5 6
f 1 6 7
f 1 7 2
f 2 7 8
f 3 10 11
f 3 11 12
f 3 12 9
f 4 9 12
f 4 12 5
f 5 12 11
f 5 11 17
f 5 17 19
f 5 19 13
f 5 13 7
f 5 7 6
f 7 13 14
f 7 14 15
f 7 15 8
f 10 16 11
f 11 16 18
f 11 18 21
f 11 21 22
f 11 22 17
f 13 19 20
f 13 20 15
f 13 15 14
f 16 21 18
f 17 22 20
f 17 20 19

