# https://github.com/mikedh/trimesh
v 0.04930344 0.02525308 -0.02679802
v 0.04930344 0.02525308 -0.02849468
v 0.02561154 0.02525308 -0.02679764
v 0.02472724 -0.02524526 -0.02679802
v 0.03173260 -0.02524526 -0.02679878
v 0.05061262 -0.02481522 -0.02680600
v 0.05061262 0.02480820 -0.02680600
v 0.08074716 0.02481314 -0.02931256
v -0.00184718 0.02525308 -0.03068712
v 0.08074716 0.02481314 -0.03068750
v 0.02524404 0.02525308 -0.02679764
v 0.02435976 -0.02524526 -0.02679802
v 0.08006960 -0.02481522 -0.02931218
v 0.03173260 -0.02524526 -0.02848708
v 0.08074716 -0.00000598 -0.02931256
v -0.03657540 0.02525308 -0.03068712
v 0.08074716 -0.00000598 -0.03068750
v 0.05187590 0.02481314 -0.03068750
v -0.00060690 0.02525308 -0.02679802
v -0.00061838 -0.02524526 -0.02679878
v 0.08006960 -0.02481522 -0.03068750
v -0.00187016 -0.02524526 -0.03068750
v -0.03657540 0.02525308 -0.02877760
v -0.03620790 -0.00001092 -0.03068750
v -0.03657540 -0.00001092 -0.03068712
v -0.03657540 -0.00001092 -0.02877760
v -0.03620790 -0.02524526 -0.02910200
v -0.03620790 -0.02524526 -0.03068750
f 1 2 9
f 1 9 16
f 1 16 23
f 1 23 19
f 1 19 11
f 1 11 3
f 1 3 4
f 1 4 5
f 1 5 6
f 1 6 7
f 1 7 8
f 1 8 10
f 1 10 2
f 2 10 9
f 3 11 12
f 3 12 4
f 4 12 20
f 4 20 27
f 4 27 28
f 4 28 22
f 4 22 14
f 4 14 5
f 5 13 6
f 5 14 21
f 5 21 13
f 6 13 15
f 6 15 8
f 6 8 7
f 8 15 17
f 8 17 10
f 9 10 18
f 9 18 16
f 10 17 21
f 10 21 22
f 10 22 28
f 10 28 24
f 10 24 18
f 11 19 12
f 12 19 20
f 13 21 17
f 13 17 15
f 14 22 21
f 16 18 24
f 16 24 28
f 16 28 25
f 16 25 26
f 16 26 23
f 19 23 26
f 19 26 20
f 20 26 27
f 25 28 27
f 25 27 26

