# https://github.com/mikedh/trimesh
v 0.05438456 0.00312500 -0.02928678
v 0.05439128 0.00189828 -0.02928678
v 0.05558440 0.00312500 -0.02562570
v 0.05441546 0.00437324 -0.02928678
v 0.05442890 0.00069462 -0.02928678
v 0.05569322 -0.00562344 -0.02562570
v 0.05597404 -0.00562344 -0.02472928
v 0.05591896 0.00312500 -0.02466504
v 0.05449472 0.00561994 -0.02928678
v 0.05445980 -0.00001098 -0.02928678
v 0.05498514 -0.00607232 -0.02911402
v 0.05601434 -0.00648430 -0.02477162
v 0.05687694 -0.00562344 -0.02438522
v 0.05687694 0.00312500 -0.02436624
v 0.05687694 0.00437324 -0.02444994
v 0.05605734 0.00437324 -0.02478672
v 0.05620246 0.00506652 -0.02493320
v 0.05563008 0.00676826 -0.02928678
v 0.05812650 -0.00759726 -0.02911402
v 0.05763474 -0.00759572 -0.02911402
v 0.05687694 -0.00758956 -0.02911402
v 0.05640938 -0.00757266 -0.02911402
v 0.05536404 -0.00713608 -0.02911402
v 0.06808802 -0.00001098 -0.02928678
v 0.05687694 -0.00696238 -0.02562570
v 0.05687694 -0.00660266 -0.02465678
v 0.05812650 -0.00562344 -0.02431514
v 0.06437294 0.00437324 -0.02431660
v 0.06562384 0.00562454 -0.02435700
v 0.05812650 0.00562454 -0.02450738
v 0.05698444 0.00554000 -0.02480666
v 0.05747350 0.00626712 -0.02497408
v 0.05688232 0.00799958 -0.02928678
v 0.06437428 -0.00759726 -0.02911402
v 0.06755998 -0.00562344 -0.02911402
v 0.06713674 -0.00689320 -0.02911402
v 0.06689086 -0.00714224 -0.02911402
v 0.06562384 -0.00759264 -0.02911402
v 0.06810952 0.00062544 -0.02928678
v 0.06692176 -0.00562344 -0.02562570
v 0.06437428 -0.00696238 -0.02562570
v 0.06562384 -0.00660266 -0.02465678
v 0.06562384 -0.00562344 -0.02432634
v 0.06562384 0.00437324 -0.02431660
v 0.06659124 0.00562454 -0.02465678
v 0.06647704 0.00648078 -0.02477114
v 0.06562384 0.00653458 -0.02470106
v 0.05901866 0.00639008 -0.02482760
v 0.05812650 0.00636856 -0.02485094
v 0.05812650 0.00807182 -0.02928678
v 0.06562384 -0.00695930 -0.02562570
v 0.06647838 -0.00648430 -0.02477162
v 0.06659258 -0.00660266 -0.02562570
v 0.06693520 0.00062544 -0.02562570
v 0.06810952 0.00562454 -0.02928678
v 0.06658586 -0.00562344 -0.02466358
v 0.06659124 0.00062544 -0.02465678
v 0.06693520 0.00562454 -0.02562570
v 0.06799532 0.00799650 -0.02928678
v 0.06681696 0.00808260 -0.02928678
v 0.06562384 0.00810718 -0.02928678
v 0.06807862 0.00681130 -0.02928678
f 1 2 3
f 1 3 4
f 1 4 9
f 1 9 18
f 1 18 33
f 1 33 50
f 1 50 61
f 1 61 60
f 1 60 59
f 1 59 62
f 1 62 55
f 1 55 39
f 1 39 24
f 1 24 10
f 1 10 5
f 1 5 2
f 2 5 6
f 2 6 7
f 2 7 3
f 3 8 9
f 3 9 4
f 3 7 8
f 5 10 6
f 6 11 12
f 6 12 7
f 6 10 11
f 7 12 13
f 7 13 8
f 8 14 15
f 8 15 16
f 8 16 9
f 8 13 14
f 9 17 18
f 9 16 17
f 10 19 20
f 10 20 21
f 10 21 22
f 10 22 23
f 10 23 11
f 10 24 34
f 10 34 19
f 11 23 12
f 12 23 22
f 12 22 25
f 12 25 26
f 12 26 13
f 13 26 27
f 13 27 14
f 14 28 29
f 14 29 30
f 14 30 15
f 14 27 28
f 15 30 31
f 15 31 17
f 15 17 16
f 17 31 32
f 17 32 33
f 17 33 18
f 19 34 41
f 19 41 25
f 19 25 20
f 20 25 21
f 21 25 22
f 24 35 36
f 24 36 37
f 24 37 38
f 24 38 34
f 24 39 40
f 24 40 35
f 25 41 42
f 25 42 26
f 26 42 27
f 27 42 43
f 27 43 44
f 27 44 28
f 28 44 29
f 29 44 45
f 29 45 46
f 29 46 47
f 29 47 30
f 30 47 48
f 30 48 49
f 30 49 32
f 30 32 31
f 32 49 33
f 33 49 50
f 34 38 51
f 34 51 41
f 35 40 36
f 36 40 52
f 36 52 53
f 36 53 37
f 37 53 51
f 37 51 38
f 39 54 40
f 39 55 58
f 39 58 54
f 40 56 52
f 40 54 56
f 41 51 42
f 42 51 52
f 42 52 43
f 43 52 56
f 43 56 57
f 43 57 44
f 44 57 45
f 45 57 54
f 45 54 58
f 45 58 59
f 45 59 46
f 46 59 47
f 47 59 60
f 47 60 61
f 47 61 50
f 47 50 48
f 48 50 49
f 51 53 52
f 54 57 56
f 55 62 58
f 58 62 59

