# https://github.com/mikedh/trimesh
v 0.05527938 -0.00437426 0.02899264
v 0.05560570 -0.00437426 0.02562534
v 0.05540732 -0.00562714 0.02899264
v 0.05528056 -0.00312468 0.02899264
v 0.05593084 -0.00437426 0.02467346
v 0.05606112 -0.00540054 0.02479348
v 0.05596488 -0.00560086 0.02562534
v 0.05561744 0.00437448 0.02562580
v 0.05593554 0.00437448 0.02467896
v 0.05575594 -0.00674372 0.02899264
v 0.05541202 -0.00191286 0.02899264
v 0.05552822 0.00596068 0.02898898
v 0.05687574 -0.00437426 0.02437204
v 0.05675954 -0.00573880 0.02460154
v 0.05687574 0.00437448 0.02437754
v 0.05709758 -0.00657294 0.02477104
v 0.05626888 -0.00622484 0.02562534
v 0.05564090 0.00636134 0.02898898
v 0.05573482 0.00668810 0.02898898
v 0.05597544 0.00554854 0.02562580
v 0.05606700 0.00536462 0.02480080
v 0.05677478 0.00571930 0.02460566
v 0.05689334 -0.00674700 0.02562534
v 0.05687574 -0.00752368 0.02899264
v 0.05542376 -0.00187180 0.02899264
v 0.06562282 -0.00562386 0.02431662
v 0.05812582 -0.00562386 0.02447236
v 0.05814696 -0.00694240 0.02468308
v 0.06062600 0.00562408 0.02431296
v 0.05812582 0.00562408 0.02441190
v 0.05857890 -0.00754502 0.02492952
v 0.05786758 -0.00737098 0.02562534
v 0.05573012 -0.00080284 0.02899264
v 0.05581110 0.00677514 0.02898898
v 0.05630762 0.00617250 0.02562580
v 0.05580290 -0.00071088 0.02899264
v 0.05712458 0.00653212 0.02477150
v 0.05812582 0.00675050 0.02465652
v 0.05802958 -0.00813288 0.02899264
v 0.06562282 -0.00187510 0.02433036
v 0.06662524 0.00437448 0.02465652
v 0.06659236 -0.00562386 0.02465698
v 0.06655012 -0.00687344 0.02469866
v 0.06562282 -0.00687344 0.02446962
v 0.06312382 0.00687366 0.02442244
v 0.06562400 0.00437448 0.02439312
v 0.06562282 -0.00764354 0.02481318
v 0.06562282 -0.00778970 0.02562534
v 0.06562282 -0.00836112 0.02899264
v 0.05814930 0.00802308 0.02898898
v 0.05693208 0.00668482 0.02562580
v 0.05650248 -0.00001138 0.02899264
v 0.05812582 0.00727102 0.02562580
v 0.06222234 0.00761422 0.02485120
v 0.06312382 0.00768154 0.02476646
v 0.06562400 0.00562408 0.02444580
v 0.06646208 0.00562408 0.02478156
v 0.06701728 0.00437448 0.02562580
v 0.06693628 -0.00562386 0.02562534
v 0.06685178 -0.00687344 0.02562534
v 0.06642100 -0.00763862 0.02482692
v 0.06437390 0.00687366 0.02452962
v 0.06683182 -0.00808034 0.02899264
v 0.06312382 0.00841388 0.02898898
v 0.06312382 0.00786544 0.02562580
v 0.05683818 -0.00000974 0.02899264
v 0.06437390 0.00759780 0.02487364
v 0.06550310 0.00678498 0.02482142
v 0.06629658 0.00630880 0.02493822
v 0.06667454 0.00562408 0.02562580
v 0.06714522 0.00562408 0.02898898
v 0.06726964 0.00436956 0.02898898
v 0.06723326 -0.00562386 0.02899264
v 0.06719218 -0.00684552 0.02899264
v 0.06719100 -0.00687344 0.02899264
v 0.06686234 -0.00800316 0.02899264
v 0.06650786 -0.00770924 0.02562534
v 0.06500540 0.00750420 0.02499366
v 0.06437390 0.00833834 0.02898898
v 0.06712996 -0.00000974 0.02899264
v 0.06551718 0.00801322 0.02898898
v 0.06678370 0.00678662 0.02898898
v 0.06717456 -0.00062550 0.02899264
v 0.06723326 -0.00187510 0.02899264
f 1 2 3
f 1 3 10
f 1 10 24
f 1 24 39
f 1 39 49
f 1 49 63
f 1 63 76
f 1 76 75
f 1 75 74
f 1 74 73
f 1 73 84
f 1 84 83
f 1 83 80
f 1 80 66
f 1 66 52
f 1 52 36
f 1 36 33
f 1 33 25
f 1 25 11
f 1 11 4
f 1 4 2
f 2 5 6
f 2 6 7
f 2 7 3
f 2 4 8
f 2 8 9
f 2 9 5
f 3 7 10
f 4 11 12
f 4 12 8
f 5 13 14
f 5 14 6
f 5 9 15
f 5 15 13
f 6 14 16
f 6 16 17
f 6 17 7
f 7 17 10
f 8 12 18
f 8 18 19
f 8 19 20
f 8 20 21
f 8 21 9
f 9 21 22
f 9 22 15
f 10 17 23
f 10 23 24
f 11 25 18
f 11 18 12
f 13 26 27
f 13 27 28
f 13 28 14
f 13 15 29
f 13 29 26
f 14 28 16
f 15 22 30
f 15 30 29
f 16 23 17
f 16 28 31
f 16 31 32
f 16 32 23
f 18 25 33
f 18 33 19
f 19 34 35
f 19 35 21
f 19 21 20
f 19 33 36
f 19 36 34
f 21 35 37
f 21 37 22
f 22 37 38
f 22 38 30
f 23 32 24
f 24 32 39
f 26 40 41
f 26 41 42
f 26 42 43
f 26 43 44
f 26 44 27
f 26 29 40
f 27 44 28
f 28 44 31
f 29 30 45
f 29 45 46
f 29 46 40
f 30 38 45
f 31 44 47
f 31 47 48
f 31 48 49
f 31 49 39
f 31 39 32
f 34 50 51
f 34 51 35
f 34 36 52
f 34 52 50
f 35 51 37
f 37 51 53
f 37 53 38
f 38 53 54
f 38 54 55
f 38 55 45
f 40 46 41
f 41 46 56
f 41 56 57
f 41 57 58
f 41 58 42
f 42 59 43
f 42 58 59
f 43 60 61
f 43 61 44
f 43 59 60
f 44 61 47
f 45 55 62
f 45 62 56
f 45 56 46
f 47 61 48
f 48 61 49
f 49 61 63
f 50 64 65
f 50 65 54
f 50 54 53
f 50 53 51
f 50 52 64
f 52 66 64
f 54 65 55
f 55 67 62
f 55 65 67
f 56 62 68
f 56 68 69
f 56 69 57
f 57 69 70
f 57 70 58
f 58 70 71
f 58 71 72
f 58 72 73
f 58 73 59
f 59 73 74
f 59 74 75
f 59 75 60
f 60 75 76
f 60 76 63
f 60 63 77
f 60 77 61
f 61 77 63
f 62 67 78
f 62 78 68
f 64 79 65
f 64 66 80
f 64 80 79
f 65 79 67
f 67 79 78
f 68 78 69
f 69 78 81
f 69 81 82
f 69 82 70
f 70 82 71
f 71 82 80
f 71 80 72
f 72 80 83
f 72 83 84
f 72 84 73
f 78 79 81
f 79 80 81
f 80 82 81

