# https://github.com/mikedh/trimesh
v -0.03686388 0.02525378 -0.03068750
v -0.03784114 0.02525378 -0.03033866
v -0.03686388 0.02937356 -0.03068750
v -0.03650514 0.02525378 -0.03068750
v 0.05186828 0.02481698 -0.03068178
v 0.05139822 0.02481698 -0.03057884
v 0.05077970 0.02481698 -0.03036154
v -0.03818750 0.02525378 -0.02936650
v -0.03784114 0.02937356 -0.03033866
v 0.04930764 0.02481698 -0.02834858
v 0.04930764 0.02481640 -0.02811984
v -0.03771742 0.03022820 -0.03022430
v -0.03686388 0.03034374 -0.03033866
v -0.03650514 0.02937356 -0.03068750
v 0.08686386 0.02481698 -0.03068178
v -0.03818750 0.02937356 -0.02936650
v -0.03818750 0.02525378 -0.00000710
v 0.05193014 0.02481640 -0.02811984
v 0.04930764 0.02481640 -0.02679884
v -0.03686388 0.03068800 -0.02936650
v -0.03784114 0.03034374 -0.02936650
v -0.03650514 0.03058742 -0.02965242
v -0.03650514 0.03034374 -0.03033866
v 0.08686386 0.02937298 -0.03068178
v 0.08782874 0.02481698 -0.03033294
v -0.03818750 0.02937414 -0.02481448
v -0.03796482 0.03000062 -0.02481448
v -0.03818750 0.02937414 -0.00000710
v -0.03680202 0.02525378 -0.00000710
v -0.00059416 0.02649524 0.02651014
v -0.03676492 0.02815396 0.02651014
v 0.05194252 0.02481640 -0.02811412
v 0.05060652 0.02481640 -0.02679884
v -0.03784114 0.03034374 -0.02481448
v -0.03784114 0.03034316 -0.00000710
v -0.03686388 0.03068686 -0.00000710
v -0.03676492 0.03068686 0.02651014
v 0.06561170 0.03068744 0.00311526
v 0.06561170 0.03068744 0.00187432
v 0.08686386 0.03068686 -0.02936650
v 0.08686386 0.03034316 -0.03033294
v 0.08770506 0.03022820 -0.03021858
v 0.08781638 0.02949080 -0.03031578
v 0.08782874 0.02937298 -0.03033294
v 0.08818750 0.02481698 -0.02936650
v 0.08818750 0.02481698 -0.02902338
v 0.05059414 0.02649524 0.02651014
v 0.08502070 0.02928964 0.02773392
v 0.05550516 0.02929828 0.02773392
v 0.05157140 0.02481640 -0.02714196
v 0.05550516 0.03068686 0.02773392
v 0.08502070 0.03068686 0.02773392
v 0.08677728 0.03068686 -0.00000138
v 0.08686386 0.03068686 -0.02335050
v 0.08782874 0.03034316 -0.02936650
v 0.08818750 0.02937298 -0.02936650
v 0.08818750 0.02937298 -0.02902338
v 0.08812564 0.02949138 -0.02335050
v 0.08677728 0.02807348 -0.00000138
v 0.08811328 0.02955404 -0.02335050
v 0.08782874 0.03034316 -0.02335050
f 1 2 9
f 1 9 3
f 1 3 14
f 1 14 4
f 1 4 15
f 1 15 5
f 1 5 6
f 1 6 7
f 1 7 2
f 2 8 16
f 2 16 9
f 2 7 10
f 2 10 11
f 2 11 8
f 3 9 12
f 3 12 13
f 3 13 23
f 3 23 14
f 4 14 24
f 4 24 15
f 5 15 18
f 5 18 11
f 5 11 6
f 6 11 7
f 7 11 10
f 8 11 19
f 8 19 17
f 8 17 28
f 8 28 26
f 8 26 16
f 9 16 12
f 11 18 32
f 11 32 50
f 11 50 33
f 11 33 19
f 12 20 13
f 12 16 21
f 12 21 20
f 13 20 22
f 13 22 23
f 14 23 41
f 14 41 24
f 15 24 44
f 15 44 25
f 15 25 18
f 16 26 27
f 16 27 21
f 17 19 33
f 17 33 29
f 17 29 47
f 17 47 30
f 17 30 31
f 17 31 37
f 17 37 28
f 18 25 32
f 20 21 34
f 20 34 35
f 20 35 36
f 20 36 37
f 20 37 38
f 20 38 39
f 20 39 40
f 20 40 22
f 21 27 34
f 22 40 23
f 23 40 41
f 24 41 42
f 24 42 43
f 24 43 44
f 25 44 56
f 25 56 45
f 25 45 32
f 26 28 27
f 27 35 34
f 27 28 35
f 28 37 35
f 29 33 46
f 29 46 47
f 30 47 48
f 30 48 49
f 30 49 31
f 31 49 51
f 31 51 37
f 32 45 46
f 32 46 50
f 33 50 46
f 35 37 36
f 37 51 38
f 38 51 52
f 38 52 53
f 38 53 54
f 38 54 40
f 38 40 39
f 40 54 61
f 40 61 55
f 40 55 42
f 40 42 41
f 42 55 56
f 42 56 43
f 43 56 44
f 45 56 57
f 45 57 46
f 46 57 58
f 46 58 59
f 46 59 48
f 46 48 47
f 48 59 53
f 48 53 52
f 48 52 51
f 48 51 49
f 53 59 58
f 53 58 60
f 53 60 61
f 53 61 54
f 55 61 57
f 55 57 56
f 57 61 60
f 57 60 58

