# https://github.com/mikedh/trimesh
v -0.03687510 0.03068796 0.02651522
v -0.03687510 0.03068796 -0.00000492
v -0.03784358 0.03034240 0.02651522
v -0.03678210 0.03068496 0.02651522
v -0.03678210 0.03068496 -0.00000492
v -0.03784358 0.03034240 -0.00000492
v -0.03818736 0.02937178 0.02651522
v -0.03678210 0.02815176 0.02651522
v -0.03678210 0.02815176 -0.00000492
v -0.03818736 0.02937178 -0.00000492
v -0.03818750 0.01679890 0.02651262
v -0.03818736 0.01679890 0.02651522
v -0.03681264 0.01679890 0.02651522
v -0.03681264 -0.00001100 0.02651262
v -0.03681264 0.02062426 -0.00000492
v -0.03681264 -0.00001100 0.02062242
v -0.03818736 0.02062426 -0.00000492
v -0.03818750 0.01679890 0.01437400
v -0.03818750 -0.00001100 0.02651262
v -0.03715642 0.01964462 -0.00000492
v -0.03715628 -0.00001100 0.01964116
v -0.03784358 0.01964462 -0.00000492
v -0.03784372 -0.00001100 0.01964116
v -0.03818750 -0.00001100 0.02062242
v -0.03818750 0.01562396 0.01437400
f 1 2 6
f 1 6 3
f 1 3 7
f 1 7 12
f 1 12 13
f 1 13 8
f 1 8 4
f 1 4 5
f 1 5 2
f 2 5 9
f 2 9 15
f 2 15 20
f 2 20 22
f 2 22 17
f 2 17 10
f 2 10 6
f 3 6 10
f 3 10 7
f 4 8 9
f 4 9 5
f 7 10 18
f 7 18 11
f 7 11 19
f 7 19 12
f 8 13 14
f 8 14 16
f 8 16 9
f 9 16 15
f 10 17 25
f 10 25 18
f 11 18 25
f 11 25 24
f 11 24 19
f 12 19 14
f 12 14 13
f 14 19 24
f 14 24 23
f 14 23 21
f 14 21 16
f 15 16 21
f 15 21 20
f 17 22 23
f 17 23 24
f 17 24 25
f 20 21 23
f 20 23 22

