# https://github.com/mikedh/trimesh
v 0.05096526 0.03068804 0.02651534
v 0.05059414 0.03068804 0.02687564
v 0.08686386 0.03067602 0.02937408
v 0.08686386 0.03067602 0.02773882
v 0.05550516 0.03067602 0.02651534
v 0.03412928 -0.02680698 0.02464460
v -0.00059416 -0.02680698 0.02464460
v -0.03686388 0.03067602 0.02651534
v -0.00060652 0.03068804 0.02687564
v 0.08686386 0.03033358 0.03034258
v 0.08771742 0.03021942 0.03022840
v 0.08780402 0.03033358 0.02937408
v -0.03686388 0.03067602 0.02937408
v 0.05550516 0.03065198 0.02945040
v 0.08780402 0.03033358 0.02773882
v 0.08562684 -0.02928820 0.02525634
v 0.03412928 -0.02829090 0.02464460
v -0.01056462 -0.02931224 0.02464342
v -0.03649276 -0.02899984 0.02464342
v -0.03818750 -0.02899984 0.02464342
v -0.03782876 0.03033358 0.02651534
v 0.08686386 0.02936632 0.03068690
v 0.00638270 0.03033358 0.03034318
v 0.05550516 0.02937232 0.03068690
v 0.08780402 0.02936632 0.03034258
v 0.08818750 0.02936632 0.02937408
v -0.03782876 0.03033358 0.02937408
v -0.03771742 0.03022544 0.03022840
v -0.03686388 0.03033358 0.03034318
v 0.08818750 0.02936632 0.02773882
v 0.08562684 -0.03065800 0.02525634
v 0.08561446 -0.03068202 0.02525634
v -0.00185592 -0.03068202 0.02464460
v -0.01056462 -0.03068202 0.02464342
v -0.03818750 -0.02937232 0.02464342
v -0.03818750 0.02937232 0.02651534
v 0.08649276 0.02334046 0.03068750
v 0.08677728 -0.00000600 0.03068750
v 0.08686386 0.02334046 0.03068690
v -0.03686388 0.02937232 0.03068690
v 0.08780402 0.02334046 0.03034258
v 0.08818750 0.02334046 0.02937408
v -0.03818750 0.02937232 0.02937408
v -0.03782876 0.02937232 0.03034318
v 0.08818750 0.02334046 0.02773882
v 0.08562684 -0.03068202 0.02525752
v -0.00185592 -0.03068804 0.02562670
v -0.03686388 -0.03068202 0.02464342
v -0.03818750 -0.02937232 0.02937408
v -0.03782876 -0.03033958 0.02464342
v 0.05550516 0.02334046 0.03068750
v 0.08677728 -0.02434376 0.03068750
v -0.03754424 -0.02899984 0.03044612
v -0.03686388 -0.00000600 0.03068690
v -0.03648040 -0.00000600 0.03068750
v -0.03782876 -0.00000600 0.03034318
v 0.08677728 -0.02434376 0.02794708
v 0.08562684 -0.03068202 0.02937290
v 0.02686792 -0.03068202 0.02937408
v -0.03686388 -0.03068202 0.02937408
v -0.03782876 -0.03033958 0.02937408
v -0.03771742 -0.03022544 0.03022898
v -0.03782876 -0.02937232 0.03034258
v 0.08562684 -0.02937232 0.03068632
v 0.08562684 -0.03033958 0.03034258
v -0.01056462 -0.02899984 0.03068750
v -0.03686388 -0.02937232 0.03068632
v -0.03648040 -0.02523892 0.03068750
v 0.06566118 -0.03067002 0.02941904
v -0.03686388 -0.03033958 0.03034258
v -0.01056462 -0.03030354 0.03035618
v -0.03523100 -0.02899984 0.03068750
v -0.03560210 -0.02899382 0.03068750
f 1 2 3
f 1 3 4
f 1 4 5
f 1 5 6
f 1 6 7
f 1 7 8
f 1 8 9
f 1 9 2
f 2 9 13
f 2 13 3
f 3 10 11
f 3 11 12
f 3 12 15
f 3 15 4
f 3 13 14
f 3 14 10
f 4 15 5
f 5 15 16
f 5 16 6
f 6 16 31
f 6 31 17
f 6 17 34
f 6 34 18
f 6 18 19
f 6 19 20
f 6 20 7
f 7 20 8
f 8 20 21
f 8 21 27
f 8 27 13
f 8 13 9
f 10 22 11
f 10 14 23
f 10 23 24
f 10 24 22
f 11 22 25
f 11 25 26
f 11 26 12
f 12 26 30
f 12 30 15
f 13 27 28
f 13 28 29
f 13 29 14
f 14 29 23
f 15 30 16
f 16 30 45
f 16 45 31
f 17 31 32
f 17 32 33
f 17 33 34
f 18 34 48
f 18 48 50
f 18 50 35
f 18 35 20
f 18 20 19
f 20 35 49
f 20 49 43
f 20 43 36
f 20 36 21
f 21 36 43
f 21 43 27
f 22 24 37
f 22 37 38
f 22 38 52
f 22 52 39
f 22 39 41
f 22 41 25
f 23 29 40
f 23 40 24
f 24 40 51
f 24 51 37
f 25 41 42
f 25 42 26
f 26 42 45
f 26 45 30
f 27 43 28
f 28 40 29
f 28 43 44
f 28 44 40
f 31 46 32
f 31 45 46
f 32 46 47
f 32 47 33
f 33 47 34
f 34 47 48
f 35 50 61
f 35 61 49
f 37 51 55
f 37 55 68
f 37 68 73
f 37 73 72
f 37 72 66
f 37 66 52
f 37 52 38
f 39 52 41
f 40 44 53
f 40 53 54
f 40 54 68
f 40 68 55
f 40 55 51
f 41 52 42
f 42 52 57
f 42 57 45
f 43 49 56
f 43 56 44
f 44 56 53
f 45 57 46
f 46 58 47
f 46 57 52
f 46 52 58
f 47 58 59
f 47 59 60
f 47 60 48
f 48 60 61
f 48 61 50
f 49 61 62
f 49 62 63
f 49 63 56
f 52 64 65
f 52 65 58
f 52 66 64
f 53 67 54
f 53 56 63
f 53 63 67
f 54 67 68
f 58 65 69
f 58 69 59
f 59 69 60
f 60 70 62
f 60 62 61
f 60 69 70
f 62 70 67
f 62 67 63
f 64 66 72
f 64 72 67
f 64 67 71
f 64 71 65
f 65 71 70
f 65 70 69
f 67 72 73
f 67 73 68
f 67 70 71

