# https://github.com/mikedh/trimesh
v -0.07625000 0.03687000 -0.01062500
v -0.06736427 0.04679662 -0.01062500
v -0.06632338 0.04575573 -0.01062500
v -0.06685660 0.04626340 -0.01062500
v -0.06911593 0.04915846 -0.01062500
v -0.07010819 0.05112975 -0.01062500
v -0.07037316 0.05181665 -0.01062500
v -0.06947882 0.04979905 -0.01062500
v -0.06980984 0.05045667 -0.01062500
v -0.06829812 0.04793451 -0.01062500
v -0.06784516 0.04735410 -0.01062500
v -0.06872205 0.04853645 -0.01062500
v -0.07060411 0.05251573 -0.01062500
v -0.07080047 0.05322530 -0.01062500
v -0.07096178 0.05394365 -0.01062500
v -0.07108765 0.05466904 -0.01062500
v -0.07117777 0.05539974 -0.01062500
v -0.07123193 0.05613399 -0.01062500
v -0.07125000 0.05687000 -0.01062500
v -0.06396154 0.04400407 -0.01062500
v -0.06576590 0.04527484 -0.01062500
v -0.06518549 0.04482189 -0.01062500
v -0.06458355 0.04439796 -0.01062500
v -0.06332095 0.04364118 -0.01062500
v -0.06266332 0.04331016 -0.01062500
v -0.06199025 0.04301181 -0.01062500
v -0.06130335 0.04274684 -0.01062500
v -0.06060427 0.04251590 -0.01062500
v -0.05989470 0.04231953 -0.01062500
v -0.05917636 0.04215822 -0.01062500
v -0.05845096 0.04203235 -0.01062500
v -0.05772026 0.04194223 -0.01062500
v -0.05698602 0.04188807 -0.01062500
v -0.07625000 0.03687000 0.01562500
v -0.06736427 0.04679662 0.01562500
v -0.06632338 0.04575573 0.01562500
v -0.06685660 0.04626340 0.01562500
v -0.06911593 0.04915846 0.01562500
v -0.07010819 0.05112975 0.01562500
v -0.07037316 0.05181665 0.01562500
v -0.06947882 0.04979905 0.01562500
v -0.06980984 0.05045667 0.01562500
v -0.06829812 0.04793451 0.01562500
v -0.06784516 0.04735410 0.01562500
v -0.06872205 0.04853645 0.01562500
v -0.07060411 0.05251573 0.01562500
v -0.07080047 0.05322530 0.01562500
v -0.07096178 0.05394365 0.01562500
v -0.07108765 0.05466904 0.01562500
v -0.07117777 0.05539974 0.01562500
v -0.07123193 0.05613399 0.01562500
v -0.07125000 0.05687000 0.01562500
v -0.06396154 0.04400407 0.01562500
v -0.06576590 0.04527484 0.01562500
v -0.06518549 0.04482189 0.01562500
v -0.06458355 0.04439796 0.01562500
v -0.06332095 0.04364118 0.01562500
v -0.06266332 0.04331016 0.01562500
v -0.06199025 0.04301181 0.01562500
v -0.06130335 0.04274684 0.01562500
v -0.06060427 0.04251590 0.01562500
v -0.05989470 0.04231953 0.01562500
v -0.05917636 0.04215822 0.01562500
v -0.05845096 0.04203235 0.01562500
v -0.05772026 0.04194223 0.01562500
v -0.05698602 0.04188807 0.01562500
v -0.07123193 0.05760602 -0.01062500
v -0.07117777 0.05834026 -0.01062500
v -0.07108765 0.05907096 -0.01062500
v -0.07096178 0.05979636 -0.01062500
v -0.07080047 0.06051470 -0.01062500
v -0.07060411 0.06122427 -0.01062500
v -0.07037316 0.06192335 -0.01062500
v -0.07010819 0.06261025 -0.01062500
v -0.06980984 0.06328332 -0.01062500
v -0.06947882 0.06394095 -0.01062500
v -0.06911593 0.06458154 -0.01062500
v -0.06872205 0.06520355 -0.01062500
v -0.06829812 0.06580549 -0.01062500
v -0.06784516 0.06638590 -0.01062500
v -0.07625000 0.07687000 -0.01062500
v -0.06736427 0.06694338 -0.01062500
v -0.06685660 0.06747660 -0.01062500
v -0.06632338 0.06798427 -0.01062500
v -0.06576590 0.06846516 -0.01062500
v -0.06518549 0.06891812 -0.01062500
v -0.06458355 0.06934205 -0.01062500
v -0.06396154 0.06973593 -0.01062500
v -0.06332095 0.07009882 -0.01062500
v -0.06266332 0.07042984 -0.01062500
v -0.06199025 0.07072819 -0.01062500
v -0.06130335 0.07099316 -0.01062500
v -0.06060427 0.07122411 -0.01062500
v -0.05989470 0.07142047 -0.01062500
v -0.05917636 0.07158178 -0.01062500
v -0.05845096 0.07170765 -0.01062500
v -0.05772026 0.07179777 -0.01062500
v -0.05698602 0.07185193 -0.01062500
v -0.07123193 0.05760602 0.01562500
v -0.07117777 0.05834026 0.01562500
v -0.07108765 0.05907096 0.01562500
v -0.07096178 0.05979636 0.01562500
v -0.07080047 0.06051470 0.01562500
v -0.07060411 0.06122427 0.01562500
v -0.07037316 0.06192335 0.01562500
v -0.07010819 0.06261025 0.01562500
v -0.06980984 0.06328332 0.01562500
v -0.06947882 0.06394095 0.01562500
v -0.06911593 0.06458154 0.01562500
v -0.06872205 0.06520355 0.01562500
v -0.06829812 0.06580549 0.01562500
v -0.06784516 0.06638590 0.01562500
v -0.07625000 0.07687000 0.01562500
v -0.06736427 0.06694338 0.01562500
v -0.06685660 0.06747660 0.01562500
v -0.06632338 0.06798427 0.01562500
v -0.06576590 0.06846516 0.01562500
v -0.06518549 0.06891812 0.01562500
v -0.06458355 0.06934205 0.01562500
v -0.06396154 0.06973593 0.01562500
v -0.06332095 0.07009882 0.01562500
v -0.06266332 0.07042984 0.01562500
v -0.06199025 0.07072819 0.01562500
v -0.06130335 0.07099316 0.01562500
v -0.06060427 0.07122411 0.01562500
v -0.05989470 0.07142047 0.01562500
v -0.05917636 0.07158178 0.01562500
v -0.05845096 0.07170765 0.01562500
v -0.05772026 0.07179777 0.01562500
v -0.05698602 0.07185193 0.01562500
v -0.05625000 0.04187000 -0.01062500
v -0.05551399 0.04188807 -0.01062500
v -0.05477974 0.04194223 -0.01062500
v -0.05404904 0.04203235 -0.01062500
v -0.05332365 0.04215822 -0.01062500
v -0.05260530 0.04231953 -0.01062500
v -0.05189573 0.04251590 -0.01062500
v -0.05119665 0.04274684 -0.01062500
v -0.05050975 0.04301181 -0.01062500
v -0.04983667 0.04331016 -0.01062500
v -0.04917905 0.04364118 -0.01062500
v -0.04853846 0.04400407 -0.01062500
v -0.04791645 0.04439796 -0.01062500
v -0.04731451 0.04482189 -0.01062500
v -0.04673410 0.04527484 -0.01062500
v -0.04617662 0.04575573 -0.01062500
v -0.04564340 0.04626340 -0.01062500
v -0.04513573 0.04679662 -0.01062500
v -0.03625000 0.03687000 -0.01062500
v -0.04465484 0.04735410 -0.01062500
v -0.04420189 0.04793451 -0.01062500
v -0.04377796 0.04853645 -0.01062500
v -0.04338407 0.04915846 -0.01062500
v -0.04302118 0.04979905 -0.01062500
v -0.04269016 0.05045667 -0.01062500
v -0.04239181 0.05112975 -0.01062500
v -0.04212684 0.05181665 -0.01062500
v -0.04189590 0.05251573 -0.01062500
v -0.04169953 0.05322530 -0.01062500
v -0.04153822 0.05394365 -0.01062500
v -0.04141235 0.05466904 -0.01062500
v -0.04132223 0.05539974 -0.01062500
v -0.04126807 0.05613399 -0.01062500
v -0.04125000 0.05687000 -0.01062500
v -0.05625000 0.04187000 0.01562500
v -0.05551399 0.04188807 0.01562500
v -0.05477974 0.04194223 0.01562500
v -0.05404904 0.04203235 0.01562500
v -0.05332365 0.04215822 0.01562500
v -0.05260530 0.04231953 0.01562500
v -0.05189573 0.04251590 0.01562500
v -0.05119665 0.04274684 0.01562500
v -0.05050975 0.04301181 0.01562500
v -0.04983667 0.04331016 0.01562500
v -0.04917905 0.04364118 0.01562500
v -0.04853846 0.04400407 0.01562500
v -0.04791645 0.04439796 0.01562500
v -0.04731451 0.04482189 0.01562500
v -0.04673410 0.04527484 0.01562500
v -0.04617662 0.04575573 0.01562500
v -0.04564340 0.04626340 0.01562500
v -0.04513573 0.04679662 0.01562500
v -0.03625000 0.03687000 0.01562500
v -0.04465484 0.04735410 0.01562500
v -0.04420189 0.04793451 0.01562500
v -0.04377796 0.04853645 0.01562500
v -0.04338407 0.04915846 0.01562500
v -0.04302118 0.04979905 0.01562500
v -0.04269016 0.05045667 0.01562500
v -0.04239181 0.05112975 0.01562500
v -0.04212684 0.05181665 0.01562500
v -0.04189590 0.05251573 0.01562500
v -0.04169953 0.05322530 0.01562500
v -0.04153822 0.05394365 0.01562500
v -0.04141235 0.05466904 0.01562500
v -0.04132223 0.05539974 0.01562500
v -0.04126807 0.05613399 0.01562500
v -0.04125000 0.05687000 0.01562500
v -0.05625000 0.07187000 -0.01062500
v -0.05551399 0.07185193 -0.01062500
v -0.05477974 0.07179777 -0.01062500
v -0.05404904 0.07170765 -0.01062500
v -0.05332365 0.07158178 -0.01062500
v -0.05260530 0.07142047 -0.01062500
v -0.05189573 0.07122411 -0.01062500
v -0.05119665 0.07099316 -0.01062500
v -0.05050975 0.07072819 -0.01062500
v -0.04983667 0.07042984 -0.01062500
v -0.04917905 0.07009882 -0.01062500
v -0.04791645 0.06934205 -0.01062500
v -0.04731451 0.06891812 -0.01062500
v -0.04673410 0.06846516 -0.01062500
v -0.04853846 0.06973593 -0.01062500
v -0.04126807 0.05760602 -0.01062500
v -0.04132223 0.05834026 -0.01062500
v -0.04141235 0.05907096 -0.01062500
v -0.04153822 0.05979636 -0.01062500
v -0.04169953 0.06051470 -0.01062500
v -0.04189590 0.06122427 -0.01062500
v -0.04377796 0.06520355 -0.01062500
v -0.04465484 0.06638590 -0.01062500
v -0.04420189 0.06580549 -0.01062500
v -0.04269016 0.06328332 -0.01062500
v -0.04302118 0.06394095 -0.01062500
v -0.04212684 0.06192335 -0.01062500
v -0.04239181 0.06261025 -0.01062500
v -0.04338407 0.06458154 -0.01062500
v -0.04564340 0.06747660 -0.01062500
v -0.04617662 0.06798427 -0.01062500
v -0.04513573 0.06694338 -0.01062500
v -0.03625000 0.07687000 -0.01062500
v -0.05625000 0.07187000 0.01562500
v -0.05551399 0.07185193 0.01562500
v -0.05477974 0.07179777 0.01562500
v -0.05404904 0.07170765 0.01562500
v -0.05332365 0.07158178 0.01562500
v -0.05260530 0.07142047 0.01562500
v -0.05189573 0.07122411 0.01562500
v -0.05119665 0.07099316 0.01562500
v -0.05050975 0.07072819 0.01562500
v -0.04983667 0.07042984 0.01562500
v -0.04917905 0.07009882 0.01562500
v -0.04791645 0.06934205 0.01562500
v -0.04731451 0.06891812 0.01562500
v -0.04673410 0.06846516 0.01562500
v -0.04853846 0.06973593 0.01562500
v -0.04126807 0.05760602 0.01562500
v -0.04132223 0.05834026 0.01562500
v -0.04141235 0.05907096 0.01562500
v -0.04153822 0.05979636 0.01562500
v -0.04169953 0.06051470 0.01562500
v -0.04189590 0.06122427 0.01562500
v -0.04377796 0.06520355 0.01562500
v -0.04465484 0.06638590 0.01562500
v -0.04420189 0.06580549 0.01562500
v -0.04269016 0.06328332 0.01562500
v -0.04302118 0.06394095 0.01562500
v -0.04212684 0.06192335 0.01562500
v -0.04239181 0.06261025 0.01562500
v -0.04338407 0.06458154 0.01562500
v -0.04564340 0.06747660 0.01562500
v -0.04617662 0.06798427 0.01562500
v -0.04513573 0.06694338 0.01562500
v -0.03625000 0.07687000 0.01562500
f 1 5 12
f 1 8 5
f 1 6 9
f 1 7 6
f 1 9 8
f 1 23 20
f 1 20 24
f 1 25 26
f 1 24 25
f 1 26 27
f 1 10 11
f 1 11 2
f 1 2 4
f 1 4 3
f 1 3 21
f 1 21 22
f 1 12 10
f 1 22 23
f 1 14 13
f 1 13 7
f 1 81 14
f 1 28 29
f 1 29 30
f 1 27 28
f 1 30 31
f 1 31 32
f 1 32 33
f 1 33 131
f 1 131 132
f 1 132 133
f 1 133 134
f 1 134 135
f 1 149 34
f 34 45 38
f 34 38 41
f 34 42 39
f 34 39 40
f 34 41 42
f 34 53 56
f 34 57 53
f 34 59 58
f 34 58 57
f 34 60 59
f 34 44 43
f 34 35 44
f 34 37 35
f 34 36 37
f 34 54 36
f 34 55 54
f 34 43 45
f 34 56 55
f 1 34 113
f 34 46 47
f 34 47 48
f 34 48 49
f 34 49 50
f 34 40 46
f 34 50 51
f 34 51 52
f 34 52 99
f 34 99 100
f 34 100 101
f 34 101 102
f 34 102 103
f 34 62 61
f 34 63 62
f 34 61 60
f 34 183 63
f 81 15 14
f 81 16 15
f 81 17 16
f 81 18 17
f 81 19 18
f 81 67 19
f 81 68 67
f 81 69 68
f 81 70 69
f 81 71 70
f 81 72 71
f 81 73 72
f 1 113 81
f 81 74 73
f 81 75 74
f 81 76 75
f 81 77 76
f 81 78 77
f 81 79 78
f 81 80 79
f 81 82 80
f 81 83 82
f 81 84 83
f 81 85 84
f 81 86 85
f 81 87 86
f 81 88 87
f 81 89 88
f 81 90 89
f 81 91 90
f 81 92 91
f 81 93 92
f 81 94 93
f 81 95 94
f 81 231 95
f 34 103 113
f 113 103 104
f 113 104 105
f 113 105 106
f 113 106 107
f 113 107 108
f 113 108 109
f 113 109 110
f 113 110 111
f 113 111 112
f 113 112 114
f 113 114 115
f 113 115 116
f 113 116 117
f 113 117 118
f 113 118 119
f 113 119 120
f 113 120 121
f 113 121 122
f 113 122 123
f 113 123 124
f 81 113 264
f 113 124 125
f 113 125 126
f 113 126 127
f 113 127 128
f 113 128 129
f 113 129 130
f 113 130 232
f 113 232 233
f 113 233 234
f 113 234 235
f 113 235 236
f 1 135 149
f 149 135 136
f 149 136 137
f 149 137 138
f 149 138 139
f 149 139 140
f 149 140 141
f 149 141 142
f 149 142 143
f 149 143 144
f 149 144 145
f 149 145 146
f 149 146 147
f 149 147 148
f 149 148 150
f 149 150 151
f 149 151 152
f 149 152 153
f 149 153 154
f 149 154 155
f 149 155 156
f 149 156 157
f 149 157 158
f 149 158 159
f 149 159 160
f 149 160 161
f 149 161 162
f 149 162 163
f 149 163 164
f 149 164 214
f 149 214 215
f 149 215 216
f 149 216 217
f 149 217 218
f 149 231 183
f 34 149 183
f 183 64 63
f 183 65 64
f 183 66 65
f 183 165 66
f 183 166 165
f 183 167 166
f 183 168 167
f 183 169 168
f 183 170 169
f 183 171 170
f 183 172 171
f 183 173 172
f 183 174 173
f 183 175 174
f 183 176 175
f 183 177 176
f 183 178 177
f 183 179 178
f 183 180 179
f 183 181 180
f 183 182 181
f 183 184 182
f 183 185 184
f 183 186 185
f 183 187 186
f 183 188 187
f 183 189 188
f 183 190 189
f 183 191 190
f 183 192 191
f 183 193 192
f 183 264 193
f 231 96 95
f 231 97 96
f 231 98 97
f 231 199 98
f 231 200 199
f 231 201 200
f 231 202 201
f 231 203 202
f 231 206 205
f 231 204 203
f 231 205 204
f 81 264 231
f 149 218 231
f 231 219 225
f 231 218 219
f 231 211 210
f 231 220 222
f 231 212 211
f 231 229 212
f 231 228 229
f 231 230 228
f 231 221 230
f 231 222 221
f 231 207 206
f 231 209 208
f 231 208 207
f 231 213 209
f 231 210 213
f 231 223 224
f 231 225 226
f 231 226 223
f 231 224 227
f 231 227 220
f 113 236 264
f 264 238 239
f 264 236 237
f 264 237 238
f 183 231 264
f 264 194 193
f 264 195 194
f 264 196 195
f 264 197 196
f 264 198 197
f 264 247 198
f 264 248 247
f 264 258 252
f 264 249 248
f 264 250 249
f 264 251 250
f 264 252 251
f 264 243 244
f 264 255 253
f 264 244 245
f 264 245 262
f 264 262 261
f 264 261 263
f 264 263 254
f 264 254 255
f 264 239 240
f 264 241 242
f 264 240 241
f 264 242 246
f 264 246 243
f 264 257 256
f 264 259 258
f 264 256 259
f 264 260 257
f 264 253 260
f 4 2 35
f 3 4 37
f 12 5 38
f 9 6 39
f 6 7 40
f 8 9 42
f 5 8 41
f 11 10 43
f 2 11 44
f 10 12 45
f 13 14 47
f 7 13 46
f 14 15 48
f 15 16 49
f 16 17 50
f 17 18 51
f 18 19 52
f 20 23 56
f 21 3 36
f 22 21 54
f 23 22 55
f 24 20 53
f 25 24 57
f 27 26 59
f 26 25 58
f 28 27 60
f 29 28 61
f 30 29 62
f 31 30 63
f 32 31 64
f 33 32 65
f 33 66 131
f 35 37 4
f 3 37 36
f 12 38 45
f 6 40 39
f 8 42 41
f 5 41 38
f 9 39 42
f 2 44 35
f 11 43 44
f 10 45 43
f 13 47 46
f 7 46 40
f 14 48 47
f 15 49 48
f 16 50 49
f 17 51 50
f 18 52 51
f 20 56 53
f 21 36 54
f 22 54 55
f 23 55 56
f 24 53 57
f 25 57 58
f 26 58 59
f 27 59 60
f 28 60 61
f 29 61 62
f 30 62 63
f 31 63 64
f 32 64 65
f 33 65 66
f 131 66 165
f 19 67 99
f 67 68 100
f 68 69 101
f 69 70 102
f 70 71 103
f 71 72 104
f 72 73 105
f 73 74 106
f 74 75 107
f 75 76 108
f 76 77 109
f 77 78 110
f 78 79 111
f 79 80 112
f 80 82 114
f 82 83 115
f 116 83 84
f 117 84 85
f 118 85 86
f 119 86 87
f 120 87 88
f 121 88 89
f 122 89 90
f 123 90 91
f 124 91 92
f 125 92 93
f 126 93 94
f 127 94 95
f 128 95 96
f 129 96 97
f 130 97 98
f 232 98 199
f 19 99 52
f 67 100 99
f 68 101 100
f 69 102 101
f 70 103 102
f 71 104 103
f 72 105 104
f 73 106 105
f 74 107 106
f 75 108 107
f 76 109 108
f 77 110 109
f 78 111 110
f 79 112 111
f 80 114 112
f 82 115 114
f 116 115 83
f 117 116 84
f 118 117 85
f 119 118 86
f 120 119 87
f 121 120 88
f 122 121 89
f 123 122 90
f 124 123 91
f 125 124 92
f 126 125 93
f 127 126 94
f 128 127 95
f 129 128 96
f 130 129 97
f 232 130 98
f 131 165 132
f 133 132 166
f 134 133 167
f 135 134 168
f 136 135 169
f 137 136 170
f 138 137 171
f 139 138 172
f 140 139 173
f 141 140 174
f 142 141 175
f 143 142 176
f 144 143 177
f 145 144 178
f 146 145 179
f 147 146 180
f 181 148 147
f 182 150 148
f 184 151 150
f 185 152 151
f 186 153 152
f 187 154 153
f 188 155 154
f 189 156 155
f 190 157 156
f 191 158 157
f 192 159 158
f 193 160 159
f 194 161 160
f 195 162 161
f 196 163 162
f 197 164 163
f 132 165 166
f 133 166 167
f 134 167 168
f 135 168 169
f 136 169 170
f 137 170 171
f 138 171 172
f 139 172 173
f 140 173 174
f 141 174 175
f 142 175 176
f 143 176 177
f 144 177 178
f 145 178 179
f 146 179 180
f 147 180 181
f 181 182 148
f 182 184 150
f 184 185 151
f 185 186 152
f 186 187 153
f 187 188 154
f 188 189 155
f 189 190 156
f 190 191 157
f 191 192 158
f 192 193 159
f 193 194 160
f 194 195 161
f 195 196 162
f 196 197 163
f 197 198 164
f 233 199 200
f 234 200 201
f 235 201 202
f 236 202 203
f 237 203 204
f 238 204 205
f 239 205 206
f 241 207 208
f 240 206 207
f 242 208 209
f 246 209 213
f 244 210 211
f 245 211 212
f 262 212 229
f 243 213 210
f 164 198 214
f 247 215 214
f 248 216 215
f 249 217 216
f 250 218 217
f 252 225 219
f 251 219 218
f 253 222 220
f 254 230 221
f 255 221 222
f 257 227 224
f 256 224 223
f 258 226 225
f 259 223 226
f 260 220 227
f 261 229 228
f 263 228 230
f 233 232 199
f 234 233 200
f 235 234 201
f 236 235 202
f 237 236 203
f 238 237 204
f 239 238 205
f 240 239 206
f 241 240 207
f 242 241 208
f 246 242 209
f 244 243 210
f 245 244 211
f 262 245 212
f 243 246 213
f 198 247 214
f 247 248 215
f 248 249 216
f 249 250 217
f 250 251 218
f 252 258 225
f 251 252 219
f 253 255 222
f 255 254 221
f 254 263 230
f 259 256 223
f 257 260 227
f 256 257 224
f 258 259 226
f 260 253 220
f 261 262 229
f 263 261 228

