# https://github.com/mikedh/trimesh
v 0.05212159 0.01059701 -0.01269998 0.43529412 0.89019608 0.96078431
v 0.05183049 0.01059701 -0.01267512 0.43529412 0.89019608 0.96078431
v 0.05232410 0.01371243 -0.01269998 0.43529412 0.89019608 0.96078431
v 0.07448373 0.01059701 -0.01269998 0.43529412 0.89019608 0.96078431
v 0.05154950 0.01059701 -0.01260799 0.43529412 0.89019608 0.96078431
v 0.05206084 0.01371243 -0.01267512 0.43529412 0.89019608 0.96078431
v 0.05206590 0.01397720 -0.01265274 0.43529412 0.89019608 0.96078431
v 0.05232410 0.01397720 -0.01267512 0.43529412 0.89019608 0.96078431
v 0.07467358 0.01371243 -0.01269998 0.43529412 0.89019608 0.96078431
v 0.07467358 0.01078820 -0.01269998 0.43529412 0.89019608 0.96078431
v 0.07486597 0.01059701 -0.01267512 0.43529412 0.89019608 0.96078431
v 0.05145078 0.01059701 -0.01256572 0.43529412 0.89019608 0.96078431
v 0.05180517 0.01371243 -0.01260799 0.43529412 0.89019608 0.96078431
v 0.05207603 0.01423334 -0.01258561 0.43529412 0.89019608 0.96078431
v 0.05232410 0.01423334 -0.01260799 0.43529412 0.89019608 0.96078431
v 0.05181276 0.01397720 -0.01258561 0.43529412 0.89019608 0.96078431
v 0.07467358 0.01397720 -0.01267512 0.43529412 0.89019608 0.96078431
v 0.07493938 0.01397311 -0.01265274 0.43529412 0.89019608 0.96078431
v 0.07493938 0.01371243 -0.01267512 0.43529412 0.89019608 0.96078431
v 0.07493938 0.01078820 -0.01267512 0.43529412 0.89019608 0.96078431
v 0.07493684 0.01074687 -0.01267512 0.43529412 0.89019608 0.96078431
v 0.07492672 0.01070645 -0.01267512 0.43529412 0.89019608 0.96078431
v 0.07491153 0.01066785 -0.01267512 0.43529412 0.89019608 0.96078431
v 0.07491406 0.01059701 -0.01266517 0.43529412 0.89019608 0.96078431
v 0.05128371 0.01059701 -0.01249362 0.43529412 0.89019608 0.96078431
v 0.05156216 0.01371243 -0.01249362 0.43529412 0.89019608 0.96078431
v 0.05157482 0.01397720 -0.01247373 0.43529412 0.89019608 0.96078431
v 0.05209628 0.01447449 -0.01247373 0.43529412 0.89019608 0.96078431
v 0.05183555 0.01423334 -0.01252097 0.43529412 0.89019608 0.96078431
v 0.05187352 0.01447449 -0.01241406 0.43529412 0.89019608 0.96078431
v 0.05232410 0.01447449 -0.01249362 0.43529412 0.89019608 0.96078431
v 0.06349758 0.01435414 -0.01255080 0.43529412 0.89019608 0.96078431
v 0.07467358 0.01423334 -0.01260799 0.43529412 0.89019608 0.96078431
v 0.07493938 0.01422562 -0.01258561 0.43529412 0.89019608 0.96078431
v 0.07519504 0.01396085 -0.01258561 0.43529412 0.89019608 0.96078431
v 0.07519504 0.01371243 -0.01260799 0.43529412 0.89019608 0.96078431
v 0.07519504 0.01078820 -0.01260799 0.43529412 0.89019608 0.96078431
v 0.07518998 0.01070645 -0.01260799 0.43529412 0.89019608 0.96078431
v 0.07516973 0.01062698 -0.01260799 0.43529412 0.89019608 0.96078431
v 0.07507607 0.01059701 -0.01262788 0.43529412 0.89019608 0.96078431
v 0.07497988 0.01059701 -0.01265025 0.43529412 0.89019608 0.96078431
v 0.07493684 0.01059701 -0.01266020 0.43529412 0.89019608 0.96078431
v 0.05103310 0.01059701 -0.01234195 0.43529412 0.89019608 0.96078431
v 0.05134446 0.01371243 -0.01234195 0.43529412 0.89019608 0.96078431
v 0.05135965 0.01397720 -0.01232455 0.43529412 0.89019608 0.96078431
v 0.05161026 0.01423334 -0.01241406 0.43529412 0.89019608 0.96078431
v 0.05140521 0.01423334 -0.01227234 0.43529412 0.89019608 0.96078431
v 0.05212159 0.01469202 -0.01232455 0.43529412 0.89019608 0.96078431
v 0.05166595 0.01447449 -0.01231709 0.43529412 0.89019608 0.96078431
v 0.05192668 0.01469202 -0.01227234 0.43529412 0.89019608 0.96078431
v 0.05232410 0.01469202 -0.01234195 0.43529412 0.89019608 0.96078431
v 0.06349758 0.01458303 -0.01241903 0.43529412 0.89019608 0.96078431
v 0.07467358 0.01447449 -0.01249362 0.43529412 0.89019608 0.96078431
v 0.07493938 0.01446268 -0.01247373 0.43529412 0.89019608 0.96078431
v 0.07519504 0.01420200 -0.01252097 0.43529412 0.89019608 0.96078431
v 0.07543553 0.01394132 -0.01247373 0.43529412 0.89019608 0.96078431
v 0.07543553 0.01371243 -0.01249362 0.43529412 0.89019608 0.96078431
v 0.07543553 0.01078820 -0.01249362 0.43529412 0.89019608 0.96078431
v 0.07542793 0.01066876 -0.01249362 0.43529412 0.89019608 0.96078431
v 0.07541021 0.01059701 -0.01249362 0.43529412 0.89019608 0.96078431
v 0.07515708 0.01059701 -0.01260799 0.43529412 0.89019608 0.96078431
v 0.07533933 0.01059701 -0.01252594 0.43529412 0.89019608 0.96078431
v 0.05080528 0.01059701 -0.01215548 0.43529412 0.89019608 0.96078431
v 0.05115714 0.01371243 -0.01215548 0.43529412 0.89019608 0.96078431
v 0.05117486 0.01397720 -0.01214056 0.43529412 0.89019608 0.96078431
v 0.05122802 0.01423334 -0.01209581 0.43529412 0.89019608 0.96078431
v 0.05147609 0.01447449 -0.01218532 0.43529412 0.89019608 0.96078431
v 0.05215450 0.01487958 -0.01214056 0.43529412 0.89019608 0.96078431
v 0.05232410 0.01487958 -0.01215548 0.43529412 0.89019608 0.96078431
v 0.05174189 0.01469202 -0.01218532 0.43529412 0.89019608 0.96078431
v 0.05183555 0.01487958 -0.01202371 0.43529412 0.89019608 0.96078431
v 0.05198996 0.01487958 -0.01209581 0.43529412 0.89019608 0.96078431
v 0.07467358 0.01469202 -0.01234195 0.43529412 0.89019608 0.96078431
v 0.07493938 0.01467703 -0.01232455 0.43529412 0.89019608 0.96078431
v 0.07519504 0.01463298 -0.01227234 0.43529412 0.89019608 0.96078431
v 0.07519504 0.01442816 -0.01241406 0.43529412 0.89019608 0.96078431
v 0.07543553 0.01437230 -0.01231709 0.43529412 0.89019608 0.96078431
v 0.07543553 0.01416385 -0.01241406 0.43529412 0.89019608 0.96078431
v 0.07565322 0.01411162 -0.01227234 0.43529412 0.89019608 0.96078431
v 0.07565322 0.01391498 -0.01232455 0.43529412 0.89019608 0.96078431
v 0.07565322 0.01371243 -0.01234195 0.43529412 0.89019608 0.96078431
v 0.07565322 0.01078820 -0.01234195 0.43529412 0.89019608 0.96078431
v 0.07564310 0.01063470 -0.01234195 0.43529412 0.89019608 0.96078431
v 0.07563297 0.01059701 -0.01234195 0.43529412 0.89019608 0.96078431
v 0.05062049 0.01059701 -0.01193669 0.43529412 0.89019608 0.96078431
v 0.05102551 0.01397720 -0.01192426 0.43529412 0.89019608 0.96078431
v 0.05108626 0.01423334 -0.01189193 0.43529412 0.89019608 0.96078431
v 0.05118245 0.01447449 -0.01183475 0.43529412 0.89019608 0.96078431
v 0.05131409 0.01447449 -0.01202371 0.43529412 0.89019608 0.96078431
v 0.05157482 0.01469202 -0.01206846 0.43529412 0.89019608 0.96078431
v 0.05206590 0.01503218 -0.01189193 0.43529412 0.89019608 0.96078431
v 0.05219247 0.01503218 -0.01192426 0.43529412 0.89019608 0.96078431
v 0.05232410 0.01503218 -0.01193669 0.43529412 0.89019608 0.96078431
v 0.07467358 0.01487958 -0.01215548 0.43529412 0.89019608 0.96078431
v 0.05183555 0.01503218 -0.01175767 0.43529412 0.89019608 0.96078431
v 0.05194440 0.01503218 -0.01183475 0.43529412 0.89019608 0.96078431
v 0.05169632 0.01487958 -0.01192426 0.43529412 0.89019608 0.96078431
v 0.07493938 0.01486187 -0.01214056 0.43529412 0.89019608 0.96078431
v 0.07519504 0.01480919 -0.01209581 0.43529412 0.89019608 0.96078431
v 0.07543553 0.01472336 -0.01202371 0.43529412 0.89019608 0.96078431
v 0.07543553 0.01456077 -0.01218532 0.43529412 0.89019608 0.96078431
v 0.07565322 0.01429601 -0.01218532 0.43529412 0.89019608 0.96078431
v 0.07584308 0.01420200 -0.01202371 0.43529412 0.89019608 0.96078431
v 0.07584308 0.01404759 -0.01209581 0.43529412 0.89019608 0.96078431
v 0.07584308 0.01388228 -0.01214056 0.43529412 0.89019608 0.96078431
v 0.07584308 0.01371243 -0.01215548 0.43529412 0.89019608 0.96078431
v 0.07584308 0.01078820 -0.01215548 0.43529412 0.89019608 0.96078431
v 0.07582789 0.01060518 -0.01215548 0.43529412 0.89019608 0.96078431
v 0.07582536 0.01059701 -0.01215548 0.43529412 0.89019608 0.96078431
v 0.05049392 0.01059701 -0.01173281 0.43529412 0.89019608 0.96078431
v 0.05091413 0.01397720 -0.01168806 0.43529412 0.89019608 0.96078431
v 0.05047114 0.01059701 -0.01169552 0.43529412 0.89019608 0.96078431
v 0.05097994 0.01423334 -0.01166568 0.43529412 0.89019608 0.96078431
v 0.05122802 0.01469202 -0.01157369 0.43529412 0.89019608 0.96078431
v 0.05131409 0.01469202 -0.01175767 0.43529412 0.89019608 0.96078431
v 0.05108626 0.01447449 -0.01162590 0.43529412 0.89019608 0.96078431
v 0.05143053 0.01469202 -0.01192426 0.43529412 0.89019608 0.96078431
v 0.05157482 0.01487958 -0.01180491 0.43529412 0.89019608 0.96078431
v 0.05214691 0.01514435 -0.01166568 0.43529412 0.89019608 0.96078431
v 0.05223550 0.01514435 -0.01168806 0.43529412 0.89019608 0.96078431
v 0.05232410 0.01514435 -0.01169552 0.43529412 0.89019608 0.96078431
v 0.06349758 0.01508849 -0.01181734 0.43529412 0.89019608 0.96078431
v 0.07467358 0.01503218 -0.01193669 0.43529412 0.89019608 0.96078431
v 0.05174189 0.01503218 -0.01166568 0.43529412 0.89019608 0.96078431
v 0.05198996 0.01514435 -0.01157369 0.43529412 0.89019608 0.96078431
v 0.05206590 0.01514435 -0.01162590 0.43529412 0.89019608 0.96078431
v 0.07493938 0.01501219 -0.01192426 0.43529412 0.89019608 0.96078431
v 0.07519504 0.01495270 -0.01189193 0.43529412 0.89019608 0.96078431
v 0.07543553 0.01485551 -0.01183475 0.43529412 0.89019608 0.96078431
v 0.07565322 0.01472336 -0.01175767 0.43529412 0.89019608 0.96078431
v 0.07565322 0.01460664 -0.01192426 0.43529412 0.89019608 0.96078431
v 0.07565322 0.01446268 -0.01206846 0.43529412 0.89019608 0.96078431
v 0.07584308 0.01434188 -0.01192426 0.43529412 0.89019608 0.96078431
v 0.07599496 0.01420200 -0.01175767 0.43529412 0.89019608 0.96078431
v 0.07599496 0.01409346 -0.01183475 0.43529412 0.89019608 0.96078431
v 0.07599496 0.01397311 -0.01189193 0.43529412 0.89019608 0.96078431
v 0.07599496 0.01384459 -0.01192426 0.43529412 0.89019608 0.96078431
v 0.07599496 0.01371243 -0.01193669 0.43529412 0.89019608 0.96078431
v 0.07599496 0.01078820 -0.01193669 0.43529412 0.89019608 0.96078431
v 0.07597977 0.01059701 -0.01193669 0.43529412 0.89019608 0.96078431
v 0.07587852 0.01059701 -0.01208089 0.43529412 0.89019608 0.96078431
v 0.05091413 0.01423334 -0.01142451 0.43529412 0.89019608 0.96078431
v 0.05040785 0.01059701 -0.01153391 0.43529412 0.89019608 0.96078431
v 0.05037241 0.01059701 -0.01143943 0.43529412 0.89019608 0.96078431
v 0.05084831 0.01397720 -0.01143445 0.43529412 0.89019608 0.96078431
v 0.05102551 0.01447449 -0.01140462 0.43529412 0.89019608 0.96078431
v 0.05117486 0.01469202 -0.01137727 0.43529412 0.89019608 0.96078431
v 0.05135965 0.01487958 -0.01134495 0.43529412 0.89019608 0.96078431
v 0.05140521 0.01487958 -0.01150904 0.43529412 0.89019608 0.96078431
v 0.05147609 0.01487958 -0.01166568 0.43529412 0.89019608 0.96078431
v 0.05219247 0.01521338 -0.01140462 0.43529412 0.89019608 0.96078431
v 0.05223550 0.01521338 -0.01142451 0.43529412 0.89019608 0.96078431
v 0.05227854 0.01521338 -0.01143445 0.43529412 0.89019608 0.96078431
v 0.05232410 0.01521338 -0.01143943 0.43529412 0.89019608 0.96078431
v 0.06349758 0.01517886 -0.01156871 0.43529412 0.89019608 0.96078431
v 0.07467358 0.01514435 -0.01169552 0.43529412 0.89019608 0.96078431
v 0.07493938 0.01512255 -0.01168806 0.43529412 0.89019608 0.96078431
v 0.05187352 0.01514435 -0.01143445 0.43529412 0.89019608 0.96078431
v 0.05192668 0.01514435 -0.01150904 0.43529412 0.89019608 0.96078431
v 0.05166595 0.01503218 -0.01155628 0.43529412 0.89019608 0.96078431
v 0.05212159 0.01521338 -0.01134495 0.43529412 0.89019608 0.96078431
v 0.05215450 0.01521338 -0.01137727 0.43529412 0.89019608 0.96078431
v 0.07519504 0.01505806 -0.01166568 0.43529412 0.89019608 0.96078431
v 0.07543553 0.01495270 -0.01162590 0.43529412 0.89019608 0.96078431
v 0.07565322 0.01480919 -0.01157369 0.43529412 0.89019608 0.96078431
v 0.07584308 0.01456077 -0.01166568 0.43529412 0.89019608 0.96078431
v 0.07584308 0.01446268 -0.01180491 0.43529412 0.89019608 0.96078431
v 0.07599496 0.01429601 -0.01166568 0.43529412 0.89019608 0.96078431
v 0.07610634 0.01404759 -0.01157369 0.43529412 0.89019608 0.96078431
v 0.07610634 0.01397311 -0.01162590 0.43529412 0.89019608 0.96078431
v 0.07610634 0.01389046 -0.01166568 0.43529412 0.89019608 0.96078431
v 0.07610634 0.01380281 -0.01168806 0.43529412 0.89019608 0.96078431
v 0.07610634 0.01371243 -0.01169552 0.43529412 0.89019608 0.96078431
v 0.07610634 0.01078820 -0.01169552 0.43529412 0.89019608 0.96078431
v 0.07607596 0.01059701 -0.01173281 0.43529412 0.89019608 0.96078431
v 0.05100526 0.01447449 -0.01117588 0.43529412 0.89019608 0.96078431
v 0.05082553 0.01397720 -0.01117588 0.43529412 0.89019608 0.96078431
v 0.05089388 0.01423334 -0.01117588 0.43529412 0.89019608 0.96078431
v 0.05034204 0.01059701 -0.01117588 0.43529412 0.89019608 0.96078431
v 0.05134446 0.01487958 -0.01117588 0.43529412 0.89019608 0.96078431
v 0.05115714 0.01469202 -0.01117588 0.43529412 0.89019608 0.96078431
v 0.05156216 0.01503218 -0.01117588 0.43529412 0.89019608 0.96078431
v 0.05157482 0.01503218 -0.01130765 0.43529412 0.89019608 0.96078431
v 0.05161026 0.01503218 -0.01143445 0.43529412 0.89019608 0.96078431
v 0.05232410 0.01523654 -0.01117588 0.43529412 0.89019608 0.96078431
v 0.07467358 0.01521338 -0.01143943 0.43529412 0.89019608 0.96078431
v 0.07493938 0.01519022 -0.01143445 0.43529412 0.89019608 0.96078431
v 0.07519504 0.01512255 -0.01142451 0.43529412 0.89019608 0.96078431
v 0.05183555 0.01514435 -0.01135241 0.43529412 0.89019608 0.96078431
v 0.05207603 0.01521338 -0.01126539 0.43529412 0.89019608 0.96078431
v 0.05209628 0.01521338 -0.01130765 0.43529412 0.89019608 0.96078431
v 0.07543553 0.01501219 -0.01140462 0.43529412 0.89019608 0.96078431
v 0.07565322 0.01486187 -0.01137727 0.43529412 0.89019608 0.96078431
v 0.07584308 0.01467703 -0.01134495 0.43529412 0.89019608 0.96078431
v 0.07584308 0.01463298 -0.01150904 0.43529412 0.89019608 0.96078431
v 0.07599496 0.01437230 -0.01155628 0.43529412 0.89019608 0.96078431
v 0.07610634 0.01416385 -0.01143445 0.43529412 0.89019608 0.96078431
v 0.07610634 0.01411162 -0.01150904 0.43529412 0.89019608 0.96078431
v 0.07617469 0.01391498 -0.01134495 0.43529412 0.89019608 0.96078431
v 0.07617469 0.01388228 -0.01137727 0.43529412 0.89019608 0.96078431
v 0.07617469 0.01384459 -0.01140462 0.43529412 0.89019608 0.96078431
v 0.07617469 0.01380281 -0.01142451 0.43529412 0.89019608 0.96078431
v 0.07617469 0.01375830 -0.01143445 0.43529412 0.89019608 0.96078431
v 0.07617469 0.01371243 -0.01143943 0.43529412 0.89019608 0.96078431
v 0.07609115 0.01059701 -0.01169552 0.43529412 0.89019608 0.96078431
v 0.07617469 0.01078820 -0.01143943 0.43529412 0.89019608 0.96078431
v 0.05100526 0.01447449 0.01117592 0.43529412 0.89019608 0.96078431
v 0.05094957 0.01435414 0.00000002 0.43529412 0.89019608 0.96078431
v 0.05082553 0.01397720 0.01117592 0.43529412 0.89019608 0.96078431
v 0.05085844 0.01410527 0.00000002 0.43529412 0.89019608 0.96078431
v 0.05033951 0.01059701 0.01117592 0.43529412 0.89019608 0.96078431
v 0.05089388 0.01423334 0.01117592 0.43529412 0.89019608 0.96078431
v 0.05134446 0.01487958 0.01117592 0.43529412 0.89019608 0.96078431
v 0.05125080 0.01478603 0.00000002 0.43529412 0.89019608 0.96078431
v 0.05115714 0.01469202 0.01117592 0.43529412 0.89019608 0.96078431
v 0.05156216 0.01503218 0.01117592 0.43529412 0.89019608 0.96078431
v 0.05168366 0.01508849 0.00000002 0.43529412 0.89019608 0.96078431
v 0.05180517 0.01514435 -0.01117588 0.43529412 0.89019608 0.96078431
v 0.05181276 0.01514435 -0.01126539 0.43529412 0.89019608 0.96078431
v 0.05206590 0.01521338 -0.01122063 0.43529412 0.89019608 0.96078431
v 0.05206084 0.01521338 -0.01117588 0.43529412 0.89019608 0.96078431
v 0.05232410 0.01523654 0.01117592 0.43529412 0.89019608 0.96078431
v 0.07467358 0.01523654 -0.01117588 0.43529412 0.89019608 0.96078431
v 0.07493938 0.01521338 -0.01117588 0.43529412 0.89019608 0.96078431
v 0.07519504 0.01514435 -0.01117588 0.43529412 0.89019608 0.96078431
v 0.07543553 0.01503218 -0.01117588 0.43529412 0.89019608 0.96078431
v 0.07565322 0.01487958 -0.01117588 0.43529412 0.89019608 0.96078431
v 0.07584308 0.01469202 -0.01117588 0.43529412 0.89019608 0.96078431
v 0.07599496 0.01447449 -0.01117588 0.43529412 0.89019608 0.96078431
v 0.07599496 0.01446268 -0.01130765 0.43529412 0.89019608 0.96078431
v 0.07599496 0.01442816 -0.01143445 0.43529412 0.89019608 0.96078431
v 0.07610634 0.01420200 -0.01135241 0.43529412 0.89019608 0.96078431
v 0.07617469 0.01394132 -0.01130765 0.43529412 0.89019608 0.96078431
v 0.07620000 0.01371243 -0.01117588 0.43529412 0.89019608 0.96078431
v 0.07615950 0.01059701 -0.01143943 0.43529412 0.89019608 0.96078431
v 0.07620000 0.01078820 -0.01117588 0.43529412 0.89019608 0.96078431
v 0.05091413 0.01422562 0.01143947 0.43529412 0.89019608 0.96078431
v 0.05102551 0.01446268 0.01143947 0.43529412 0.89019608 0.96078431
v 0.05117486 0.01467703 0.01143947 0.43529412 0.89019608 0.96078431
v 0.05084831 0.01397311 0.01143947 0.43529412 0.89019608 0.96078431
v 0.05037241 0.01059701 0.01143947 0.43529412 0.89019608 0.96078431
v 0.05135965 0.01486187 0.01143947 0.43529412 0.89019608 0.96078431
v 0.05157482 0.01501219 0.01143947 0.43529412 0.89019608 0.96078431
v 0.05181276 0.01512255 0.01143947 0.43529412 0.89019608 0.96078431
v 0.05180517 0.01514435 0.01117592 0.43529412 0.89019608 0.96078431
v 0.05193174 0.01517886 0.00000002 0.43529412 0.89019608 0.96078431
v 0.05206084 0.01521338 0.01117592 0.43529412 0.89019608 0.96078431
v 0.05232410 0.01521338 0.01143947 0.43529412 0.89019608 0.96078431
v 0.07467358 0.01523654 0.01117592 0.43529412 0.89019608 0.96078431
v 0.07493938 0.01521338 0.01117592 0.43529412 0.89019608 0.96078431
v 0.07506848 0.01517886 0.00000002 0.43529412 0.89019608 0.96078431
v 0.07519504 0.01514435 0.01117592 0.43529412 0.89019608 0.96078431
v 0.07531655 0.01508849 0.00000002 0.43529412 0.89019608 0.96078431
v 0.07543553 0.01503218 0.01117592 0.43529412 0.89019608 0.96078431
v 0.07565322 0.01487958 0.01117592 0.43529412 0.89019608 0.96078431
v 0.07574942 0.01478603 0.00000002 0.43529412 0.89019608 0.96078431
v 0.07584308 0.01469202 0.01117592 0.43529412 0.89019608 0.96078431
v 0.07599496 0.01447449 0.01117592 0.43529412 0.89019608 0.96078431
v 0.07605065 0.01435414 0.00000002 0.43529412 0.89019608 0.96078431
v 0.07610634 0.01423334 -0.01117588 0.43529412 0.89019608 0.96078431
v 0.07610634 0.01422562 -0.01126539 0.43529412 0.89019608 0.96078431
v 0.07617469 0.01397311 -0.01122063 0.43529412 0.89019608 0.96078431
v 0.07617469 0.01396085 -0.01126539 0.43529412 0.89019608 0.96078431
v 0.07620000 0.01371243 0.01117592 0.43529412 0.89019608 0.96078431
v 0.07617469 0.01397720 -0.01117588 0.43529412 0.89019608 0.96078431
v 0.07618481 0.01059701 -0.01117588 0.43529412 0.89019608 0.96078431
v 0.07620000 0.01078820 0.01117592 0.43529412 0.89019608 0.96078431
v 0.05091413 0.01396085 0.01169556 0.43529412 0.89019608 0.96078431
v 0.05097994 0.01420200 0.01169556 0.43529412 0.89019608 0.96078431
v 0.05108626 0.01442816 0.01169556 0.43529412 0.89019608 0.96078431
v 0.05122802 0.01463298 0.01169556 0.43529412 0.89019608 0.96078431
v 0.05044076 0.01059701 0.01161848 0.43529412 0.89019608 0.96078431
v 0.05140521 0.01480919 0.01169556 0.43529412 0.89019608 0.96078431
v 0.05161026 0.01495270 0.01169556 0.43529412 0.89019608 0.96078431
v 0.05183555 0.01505806 0.01169556 0.43529412 0.89019608 0.96078431
v 0.05207603 0.01512255 0.01169556 0.43529412 0.89019608 0.96078431
v 0.05206590 0.01519022 0.01143947 0.43529412 0.89019608 0.96078431
v 0.05232410 0.01514435 0.01169556 0.43529412 0.89019608 0.96078431
v 0.06349758 0.01517886 0.01156875 0.43529412 0.89019608 0.96078431
v 0.07467358 0.01521338 0.01143947 0.43529412 0.89019608 0.96078431
v 0.07493938 0.01519022 0.01143449 0.43529412 0.89019608 0.96078431
v 0.07519504 0.01512255 0.01142455 0.43529412 0.89019608 0.96078431
v 0.07543553 0.01501219 0.01140466 0.43529412 0.89019608 0.96078431
v 0.07565322 0.01486187 0.01137731 0.43529412 0.89019608 0.96078431
v 0.07584308 0.01467703 0.01134499 0.43529412 0.89019608 0.96078431
v 0.07599496 0.01446268 0.01130769 0.43529412 0.89019608 0.96078431
v 0.07610634 0.01422562 0.01126543 0.43529412 0.89019608 0.96078431
v 0.07610634 0.01423334 0.01117592 0.43529412 0.89019608 0.96078431
v 0.07614178 0.01410527 0.00000002 0.43529412 0.89019608 0.96078431
v 0.07617469 0.01391498 0.01134499 0.43529412 0.89019608 0.96078431
v 0.07617469 0.01388228 0.01137731 0.43529412 0.89019608 0.96078431
v 0.07617469 0.01384459 0.01140466 0.43529412 0.89019608 0.96078431
v 0.07617469 0.01380281 0.01142455 0.43529412 0.89019608 0.96078431
v 0.07617469 0.01375830 0.01143449 0.43529412 0.89019608 0.96078431
v 0.07617469 0.01371243 0.01143947 0.43529412 0.89019608 0.96078431
v 0.07617469 0.01397720 0.01117592 0.43529412 0.89019608 0.96078431
v 0.07617469 0.01397311 0.01122067 0.43529412 0.89019608 0.96078431
v 0.07617469 0.01396085 0.01126543 0.43529412 0.89019608 0.96078431
v 0.07617469 0.01394132 0.01130769 0.43529412 0.89019608 0.96078431
v 0.07618481 0.01059701 0.01117592 0.43529412 0.89019608 0.96078431
v 0.07617469 0.01078820 0.01143947 0.43529412 0.89019608 0.96078431
v 0.07616456 0.01059701 0.01138974 0.43529412 0.89019608 0.96078431
v 0.05102551 0.01394132 0.01193673 0.43529412 0.89019608 0.96078431
v 0.05047114 0.01059701 0.01169556 0.43529412 0.89019608 0.96078431
v 0.05108626 0.01416385 0.01193673 0.43529412 0.89019608 0.96078431
v 0.05118245 0.01437230 0.01193673 0.43529412 0.89019608 0.96078431
v 0.05131409 0.01456077 0.01193673 0.43529412 0.89019608 0.96078431
v 0.05147609 0.01472336 0.01193673 0.43529412 0.89019608 0.96078431
v 0.05166595 0.01485551 0.01193673 0.43529412 0.89019608 0.96078431
v 0.05187352 0.01495270 0.01193673 0.43529412 0.89019608 0.96078431
v 0.05209628 0.01501219 0.01193673 0.43529412 0.89019608 0.96078431
v 0.05232410 0.01503218 0.01193673 0.43529412 0.89019608 0.96078431
v 0.06349758 0.01508849 0.01181738 0.43529412 0.89019608 0.96078431
v 0.07467358 0.01514435 0.01169556 0.43529412 0.89019608 0.96078431
v 0.07493938 0.01512255 0.01168810 0.43529412 0.89019608 0.96078431
v 0.07519504 0.01505806 0.01166572 0.43529412 0.89019608 0.96078431
v 0.07543553 0.01495270 0.01162594 0.43529412 0.89019608 0.96078431
v 0.07565322 0.01480919 0.01157373 0.43529412 0.89019608 0.96078431
v 0.07584308 0.01463298 0.01150908 0.43529412 0.89019608 0.96078431
v 0.07599496 0.01442816 0.01143449 0.43529412 0.89019608 0.96078431
v 0.07610634 0.01420200 0.01135245 0.43529412 0.89019608 0.96078431
v 0.07610634 0.01411162 0.01150908 0.43529412 0.89019608 0.96078431
v 0.07610634 0.01404759 0.01157373 0.43529412 0.89019608 0.96078431
v 0.07610634 0.01397311 0.01162594 0.43529412 0.89019608 0.96078431
v 0.07610634 0.01389046 0.01166572 0.43529412 0.89019608 0.96078431
v 0.07610634 0.01380281 0.01168810 0.43529412 0.89019608 0.96078431
v 0.07610634 0.01371243 0.01169556 0.43529412 0.89019608 0.96078431
v 0.07610634 0.01416385 0.01143449 0.43529412 0.89019608 0.96078431
v 0.07610634 0.01078820 0.01169556 0.43529412 0.89019608 0.96078431
v 0.07610128 0.01059701 0.01165826 0.43529412 0.89019608 0.96078431
v 0.07615950 0.01059701 0.01143947 0.43529412 0.89019608 0.96078431
v 0.05117486 0.01391498 0.01215552 0.43529412 0.89019608 0.96078431
v 0.05122802 0.01411162 0.01215552 0.43529412 0.89019608 0.96078431
v 0.05062049 0.01059701 0.01193673 0.43529412 0.89019608 0.96078431
v 0.05131409 0.01429601 0.01215552 0.43529412 0.89019608 0.96078431
v 0.05143053 0.01446268 0.01215552 0.43529412 0.89019608 0.96078431
v 0.05157482 0.01460664 0.01215552 0.43529412 0.89019608 0.96078431
v 0.05174189 0.01472336 0.01215552 0.43529412 0.89019608 0.96078431
v 0.05192668 0.01480919 0.01215552 0.43529412 0.89019608 0.96078431
v 0.05212159 0.01486187 0.01215552 0.43529412 0.89019608 0.96078431
v 0.05232410 0.01487958 0.01215552 0.43529412 0.89019608 0.96078431
v 0.07467358 0.01503218 0.01193673 0.43529412 0.89019608 0.96078431
v 0.07493938 0.01501219 0.01192430 0.43529412 0.89019608 0.96078431
v 0.07519504 0.01495270 0.01189197 0.43529412 0.89019608 0.96078431
v 0.07543553 0.01485551 0.01183479 0.43529412 0.89019608 0.96078431
v 0.07565322 0.01472336 0.01175771 0.43529412 0.89019608 0.96078431
v 0.07584308 0.01456077 0.01166572 0.43529412 0.89019608 0.96078431
v 0.07599496 0.01437230 0.01155632 0.43529412 0.89019608 0.96078431
v 0.07599496 0.01429601 0.01166572 0.43529412 0.89019608 0.96078431
v 0.07599496 0.01420200 0.01175771 0.43529412 0.89019608 0.96078431
v 0.07599496 0.01409346 0.01183479 0.43529412 0.89019608 0.96078431
v 0.07599496 0.01397311 0.01189197 0.43529412 0.89019608 0.96078431
v 0.07599496 0.01384459 0.01192430 0.43529412 0.89019608 0.96078431
v 0.07599496 0.01371243 0.01193673 0.43529412 0.89019608 0.96078431
v 0.07599496 0.01078820 0.01193673 0.43529412 0.89019608 0.96078431
v 0.07609115 0.01059701 0.01169556 0.43529412 0.89019608 0.96078431
v 0.05135965 0.01388228 0.01234199 0.43529412 0.89019608 0.96078431
v 0.05080528 0.01059701 0.01215552 0.43529412 0.89019608 0.96078431
v 0.05140521 0.01404759 0.01234199 0.43529412 0.89019608 0.96078431
v 0.05147609 0.01420200 0.01234199 0.43529412 0.89019608 0.96078431
v 0.05157482 0.01434188 0.01234199 0.43529412 0.89019608 0.96078431
v 0.05169632 0.01446268 0.01234199 0.43529412 0.89019608 0.96078431
v 0.05183555 0.01456077 0.01234199 0.43529412 0.89019608 0.96078431
v 0.05198996 0.01463298 0.01234199 0.43529412 0.89019608 0.96078431
v 0.05215450 0.01467703 0.01234199 0.43529412 0.89019608 0.96078431
v 0.05232410 0.01469202 0.01234199 0.43529412 0.89019608 0.96078431
v 0.07467358 0.01487958 0.01215552 0.43529412 0.89019608 0.96078431
v 0.07493938 0.01486187 0.01214060 0.43529412 0.89019608 0.96078431
v 0.07519504 0.01480919 0.01209585 0.43529412 0.89019608 0.96078431
v 0.07543553 0.01472336 0.01202375 0.43529412 0.89019608 0.96078431
v 0.07565322 0.01460664 0.01192430 0.43529412 0.89019608 0.96078431
v 0.07584308 0.01446268 0.01180495 0.43529412 0.89019608 0.96078431
v 0.07584308 0.01434188 0.01192430 0.43529412 0.89019608 0.96078431
v 0.07584308 0.01420200 0.01202375 0.43529412 0.89019608 0.96078431
v 0.07584308 0.01404759 0.01209585 0.43529412 0.89019608 0.96078431
v 0.07584308 0.01388228 0.01214060 0.43529412 0.89019608 0.96078431
v 0.07584308 0.01371243 0.01215552 0.43529412 0.89019608 0.96078431
v 0.07584308 0.01078820 0.01215552 0.43529412 0.89019608 0.96078431
v 0.07597977 0.01059701 0.01193673 0.43529412 0.89019608 0.96078431
v 0.05103310 0.01059701 0.01234199 0.43529412 0.89019608 0.96078431
v 0.05157482 0.01384459 0.01249366 0.43529412 0.89019608 0.96078431
v 0.05161026 0.01397311 0.01249366 0.43529412 0.89019608 0.96078431
v 0.05166595 0.01409346 0.01249366 0.43529412 0.89019608 0.96078431
v 0.05174189 0.01420200 0.01249366 0.43529412 0.89019608 0.96078431
v 0.05183555 0.01429601 0.01249366 0.43529412 0.89019608 0.96078431
v 0.05194440 0.01437230 0.01249366 0.43529412 0.89019608 0.96078431
v 0.05206590 0.01442816 0.01249366 0.43529412 0.89019608 0.96078431
v 0.05219247 0.01446268 0.01249366 0.43529412 0.89019608 0.96078431
v 0.05232410 0.01447449 0.01249366 0.43529412 0.89019608 0.96078431
v 0.06349758 0.01458303 0.01241907 0.43529412 0.89019608 0.96078431
v 0.07467358 0.01469202 0.01234199 0.43529412 0.89019608 0.96078431
v 0.07493938 0.01467703 0.01232459 0.43529412 0.89019608 0.96078431
v 0.07519504 0.01463298 0.01227238 0.43529412 0.89019608 0.96078431
v 0.07543553 0.01456077 0.01218536 0.43529412 0.89019608 0.96078431
v 0.07565322 0.01446268 0.01206850 0.43529412 0.89019608 0.96078431
v 0.07565322 0.01429601 0.01218536 0.43529412 0.89019608 0.96078431
v 0.07565322 0.01411162 0.01227238 0.43529412 0.89019608 0.96078431
v 0.07565322 0.01391498 0.01232459 0.43529412 0.89019608 0.96078431
v 0.07565322 0.01371243 0.01234199 0.43529412 0.89019608 0.96078431
v 0.07565322 0.01078820 0.01234199 0.43529412 0.89019608 0.96078431
v 0.07564310 0.01063470 0.01234199 0.43529412 0.89019608 0.96078431
v 0.07582789 0.01060518 0.01215552 0.43529412 0.89019608 0.96078431
v 0.07587852 0.01059701 0.01208093 0.43529412 0.89019608 0.96078431
v 0.05128371 0.01059701 0.01249366 0.43529412 0.89019608 0.96078431
v 0.05156216 0.01371243 0.01249366 0.43529412 0.89019608 0.96078431
v 0.05181276 0.01380281 0.01260803 0.43529412 0.89019608 0.96078431
v 0.05183555 0.01389046 0.01260803 0.43529412 0.89019608 0.96078431
v 0.05187352 0.01397311 0.01260803 0.43529412 0.89019608 0.96078431
v 0.05192668 0.01404759 0.01260803 0.43529412 0.89019608 0.96078431
v 0.05198996 0.01411162 0.01260803 0.43529412 0.89019608 0.96078431
v 0.05206590 0.01416385 0.01260803 0.43529412 0.89019608 0.96078431
v 0.05214691 0.01420200 0.01260803 0.43529412 0.89019608 0.96078431
v 0.05223550 0.01422562 0.01260803 0.43529412 0.89019608 0.96078431
v 0.05232410 0.01423334 0.01260803 0.43529412 0.89019608 0.96078431
v 0.06349758 0.01435414 0.01255084 0.43529412 0.89019608 0.96078431
v 0.07467358 0.01447449 0.01249366 0.43529412 0.89019608 0.96078431
v 0.07493938 0.01446268 0.01247377 0.43529412 0.89019608 0.96078431
v 0.07519504 0.01442816 0.01241410 0.43529412 0.89019608 0.96078431
v 0.07543553 0.01437230 0.01231713 0.43529412 0.89019608 0.96078431
v 0.07543553 0.01416385 0.01241410 0.43529412 0.89019608 0.96078431
v 0.07543553 0.01394132 0.01247377 0.43529412 0.89019608 0.96078431
v 0.07543553 0.01371243 0.01249366 0.43529412 0.89019608 0.96078431
v 0.07543553 0.01078820 0.01249366 0.43529412 0.89019608 0.96078431
v 0.07542793 0.01066876 0.01249366 0.43529412 0.89019608 0.96078431
v 0.07553172 0.01059701 0.01241161 0.43529412 0.89019608 0.96078431
v 0.07563297 0.01059701 0.01234199 0.43529412 0.89019608 0.96078431
v 0.07581270 0.01059701 0.01216795 0.43529412 0.89019608 0.96078431
v 0.07582536 0.01059701 0.01215552 0.43529412 0.89019608 0.96078431
v 0.05154950 0.01059701 0.01260803 0.43529412 0.89019608 0.96078431
v 0.05180517 0.01371243 0.01260803 0.43529412 0.89019608 0.96078431
v 0.05206084 0.01371243 0.01267516 0.43529412 0.89019608 0.96078431
v 0.05206590 0.01375830 0.01267516 0.43529412 0.89019608 0.96078431
v 0.05207603 0.01380281 0.01267516 0.43529412 0.89019608 0.96078431
v 0.05209628 0.01384459 0.01267516 0.43529412 0.89019608 0.96078431
v 0.05212159 0.01388228 0.01267516 0.43529412 0.89019608 0.96078431
v 0.05215450 0.01391498 0.01267516 0.43529412 0.89019608 0.96078431
v 0.05219247 0.01394132 0.01267516 0.43529412 0.89019608 0.96078431
v 0.05223550 0.01396085 0.01267516 0.43529412 0.89019608 0.96078431
v 0.05227854 0.01397311 0.01267516 0.43529412 0.89019608 0.96078431
v 0.05232410 0.01397720 0.01267516 0.43529412 0.89019608 0.96078431
v 0.07467358 0.01423334 0.01260803 0.43529412 0.89019608 0.96078431
v 0.07493938 0.01422562 0.01258565 0.43529412 0.89019608 0.96078431
v 0.07519504 0.01420200 0.01252101 0.43529412 0.89019608 0.96078431
v 0.07519504 0.01396085 0.01258565 0.43529412 0.89019608 0.96078431
v 0.07519504 0.01371243 0.01260803 0.43529412 0.89019608 0.96078431
v 0.07519504 0.01078820 0.01260803 0.43529412 0.89019608 0.96078431
v 0.07518998 0.01070645 0.01260803 0.43529412 0.89019608 0.96078431
v 0.07541021 0.01059701 0.01249366 0.43529412 0.89019608 0.96078431
v 0.05171151 0.01059701 0.01264781 0.43529412 0.89019608 0.96078431
v 0.05232410 0.01371243 0.01269753 0.43529412 0.89019608 0.96078431
v 0.05183049 0.01059701 0.01267516 0.43529412 0.89019608 0.96078431
v 0.06349758 0.01371243 0.01270002 0.43529412 0.89019608 0.96078431
v 0.07467358 0.01397720 0.01267516 0.43529412 0.89019608 0.96078431
v 0.07493938 0.01397311 0.01265278 0.43529412 0.89019608 0.96078431
v 0.07493938 0.01371243 0.01267516 0.43529412 0.89019608 0.96078431
v 0.07493938 0.01078820 0.01267516 0.43529412 0.89019608 0.96078431
v 0.07493684 0.01074687 0.01267516 0.43529412 0.89019608 0.96078431
v 0.07492672 0.01070645 0.01267516 0.43529412 0.89019608 0.96078431
v 0.07516973 0.01062698 0.01260803 0.43529412 0.89019608 0.96078431
v 0.07515708 0.01059701 0.01260803 0.43529412 0.89019608 0.96078431
v 0.05208869 0.01059701 0.01269505 0.43529412 0.89019608 0.96078431
v 0.05212159 0.01059701 0.01269753 0.43529412 0.89019608 0.96078431
v 0.07467358 0.01371243 0.01270002 0.43529412 0.89019608 0.96078431
v 0.06335329 0.01059701 0.01270002 0.43529412 0.89019608 0.96078431
v 0.07467358 0.01078820 0.01270002 0.43529412 0.89019608 0.96078431
v 0.07491153 0.01066785 0.01267516 0.43529412 0.89019608 0.96078431
v 0.07493684 0.01059701 0.01266024 0.43529412 0.89019608 0.96078431
v 0.07054745 0.01059701 0.01270002 0.43529412 0.89019608 0.96078431
v 0.07448626 0.01059701 0.01269753 0.43529412 0.89019608 0.96078431
v 0.07486597 0.01059701 0.01267516 0.43529412 0.89019608 0.96078431
f 1 2 3
f 1 3 9
f 1 9 10
f 1 10 4
f 1 4 11
f 1 11 24
f 1 24 42
f 1 42 41
f 1 41 40
f 1 40 61
f 1 61 62
f 1 62 60
f 1 60 84
f 1 84 109
f 1 109 141
f 1 141 140
f 1 140 175
f 1 175 205
f 1 205 235
f 1 235 266
f 1 266 300
f 1 300 302
f 1 302 331
f 1 331 330
f 1 330 356
f 1 356 379
f 1 379 403
f 1 403 428
f 1 428 427
f 1 427 426
f 1 426 425
f 1 425 448
f 1 448 460
f 1 460 467
f 1 467 470
f 1 470 469
f 1 469 468
f 1 468 464
f 1 464 462
f 1 462 461
f 1 461 451
f 1 451 449
f 1 449 429
f 1 429 404
f 1 404 380
f 1 380 358
f 1 358 334
f 1 334 304
f 1 304 272
f 1 272 241
f 1 241 211
f 1 211 179
f 1 179 144
f 1 144 143
f 1 143 112
f 1 112 110
f 1 110 85
f 1 85 63
f 1 63 43
f 1 43 25
f 1 25 12
f 1 12 5
f 1 5 2
f 2 5 6
f 2 6 3
f 3 6 7
f 3 7 8
f 3 8 17
f 3 17 9
f 4 10 11
f 5 12 13
f 5 13 6
f 6 13 7
f 7 14 15
f 7 15 8
f 7 13 16
f 7 16 14
f 8 15 33
f 8 33 17
f 9 17 18
f 9 18 19
f 9 19 20
f 9 20 10
f 10 20 21
f 10 21 22
f 10 22 23
f 10 23 11
f 11 23 24
f 12 25 13
f 13 25 26
f 13 26 27
f 13 27 16
f 14 28 15
f 14 16 29
f 14 29 30
f 14 30 28
f 15 28 31
f 15 31 32
f 15 32 33
f 16 27 29
f 17 33 18
f 18 34 35
f 18 35 36
f 18 36 19
f 18 33 34
f 19 36 37
f 19 37 20
f 20 37 21
f 21 37 38
f 21 38 22
f 22 38 39
f 22 39 23
f 23 39 40
f 23 40 41
f 23 41 42
f 23 42 24
f 25 43 26
f 26 43 44
f 26 44 45
f 26 45 27
f 27 46 29
f 27 45 47
f 27 47 46
f 28 48 31
f 28 30 50
f 28 50 48
f 29 46 49
f 29 49 30
f 30 49 50
f 31 48 51
f 31 51 52
f 31 52 53
f 31 53 32
f 32 53 33
f 33 53 54
f 33 54 34
f 34 54 55
f 34 55 35
f 35 55 56
f 35 56 36
f 36 56 57
f 36 57 58
f 36 58 37
f 37 58 38
f 38 58 59
f 38 59 60
f 38 60 39
f 39 61 40
f 39 60 62
f 39 62 61
f 43 63 44
f 44 63 64
f 44 64 45
f 45 64 65
f 45 65 47
f 46 47 49
f 47 65 66
f 47 66 67
f 47 67 49
f 48 68 69
f 48 69 51
f 48 50 68
f 49 67 70
f 49 70 50
f 50 70 71
f 50 71 72
f 50 72 68
f 51 69 94
f 51 94 73
f 51 73 52
f 52 73 53
f 53 73 74
f 53 74 54
f 54 74 75
f 54 75 76
f 54 76 55
f 55 76 77
f 55 77 78
f 55 78 56
f 56 78 79
f 56 79 80
f 56 80 57
f 57 80 81
f 57 81 82
f 57 82 58
f 58 82 59
f 59 82 83
f 59 83 60
f 60 83 84
f 63 85 64
f 64 85 65
f 65 86 87
f 65 87 66
f 65 85 86
f 66 87 88
f 66 88 89
f 66 89 67
f 67 90 70
f 67 89 90
f 68 72 91
f 68 91 92
f 68 92 93
f 68 93 69
f 69 93 123
f 69 123 94
f 70 90 71
f 71 95 96
f 71 96 91
f 71 91 72
f 71 90 97
f 71 97 95
f 73 94 74
f 74 98 75
f 74 94 98
f 75 98 99
f 75 99 100
f 75 100 101
f 75 101 77
f 75 77 76
f 77 101 102
f 77 102 79
f 77 79 78
f 79 102 103
f 79 103 104
f 79 104 105
f 79 105 80
f 80 105 106
f 80 106 81
f 81 106 107
f 81 107 82
f 82 107 83
f 83 107 108
f 83 108 84
f 84 108 109
f 85 110 86
f 86 111 87
f 86 110 112
f 86 112 111
f 87 111 113
f 87 113 88
f 88 114 115
f 88 115 89
f 88 113 116
f 88 116 114
f 89 115 117
f 89 117 90
f 90 117 118
f 90 118 97
f 91 119 92
f 91 96 119
f 92 119 120
f 92 120 93
f 93 120 121
f 93 121 122
f 93 122 123
f 94 123 98
f 95 97 118
f 95 118 124
f 95 124 125
f 95 125 96
f 96 125 126
f 96 126 119
f 98 127 128
f 98 128 99
f 98 123 127
f 99 128 100
f 100 129 130
f 100 130 131
f 100 131 132
f 100 132 101
f 100 128 129
f 101 132 102
f 102 132 103
f 103 133 134
f 103 134 135
f 103 135 136
f 103 136 104
f 103 132 133
f 104 136 105
f 105 136 137
f 105 137 138
f 105 138 106
f 106 138 139
f 106 139 107
f 107 139 140
f 107 140 108
f 108 140 141
f 108 141 109
f 111 142 113
f 111 112 143
f 111 143 144
f 111 144 145
f 111 145 142
f 113 142 146
f 113 146 116
f 114 116 146
f 114 146 147
f 114 147 148
f 114 148 149
f 114 149 150
f 114 150 115
f 115 150 117
f 117 150 118
f 118 150 124
f 119 151 152
f 119 152 120
f 119 126 151
f 120 152 153
f 120 153 154
f 120 154 121
f 121 154 155
f 121 155 156
f 121 156 122
f 122 156 123
f 123 156 157
f 123 157 127
f 124 158 159
f 124 159 125
f 124 150 160
f 124 160 158
f 125 159 161
f 125 161 162
f 125 162 151
f 125 151 126
f 127 157 128
f 128 157 163
f 128 163 129
f 129 164 165
f 129 165 130
f 129 163 164
f 130 165 166
f 130 166 131
f 131 166 167
f 131 167 132
f 132 167 133
f 133 167 168
f 133 168 134
f 134 168 169
f 134 169 135
f 135 169 170
f 135 170 171
f 135 171 136
f 136 171 172
f 136 172 137
f 137 172 138
f 138 172 173
f 138 173 174
f 138 174 139
f 139 174 175
f 139 175 140
f 142 176 146
f 142 145 177
f 142 177 178
f 142 178 176
f 144 179 145
f 145 179 177
f 146 176 147
f 147 180 148
f 147 176 181
f 147 181 180
f 148 180 182
f 148 182 183
f 148 183 149
f 149 183 184
f 149 184 150
f 150 184 160
f 151 162 185
f 151 185 152
f 152 185 153
f 153 185 154
f 154 185 223
f 154 223 186
f 154 186 155
f 155 186 156
f 156 186 157
f 157 187 188
f 157 188 163
f 157 186 187
f 158 160 189
f 158 189 190
f 158 190 191
f 158 191 161
f 158 161 159
f 160 184 189
f 161 191 185
f 161 185 162
f 163 188 192
f 163 192 164
f 164 192 165
f 165 193 194
f 165 194 195
f 165 195 166
f 165 192 193
f 166 195 196
f 166 196 168
f 166 168 167
f 168 196 197
f 168 197 198
f 168 198 169
f 169 198 199
f 169 199 200
f 169 200 201
f 169 201 170
f 170 201 171
f 171 201 202
f 171 202 172
f 172 202 203
f 172 203 204
f 172 204 173
f 173 204 206
f 173 206 174
f 174 205 175
f 174 206 235
f 174 235 205
f 176 207 215
f 176 215 181
f 176 178 208
f 176 208 207
f 177 209 210
f 177 210 178
f 177 179 211
f 177 211 209
f 178 210 212
f 178 212 208
f 180 213 216
f 180 216 182
f 180 181 214
f 180 214 213
f 181 215 214
f 182 216 217
f 182 217 218
f 182 218 219
f 182 219 183
f 183 219 189
f 183 189 184
f 185 191 190
f 185 190 220
f 185 220 221
f 185 221 247
f 185 247 222
f 185 222 249
f 185 249 223
f 186 223 224
f 186 224 187
f 187 224 188
f 188 225 192
f 188 224 225
f 189 219 190
f 190 219 220
f 192 226 227
f 192 227 193
f 192 225 226
f 193 227 228
f 193 228 194
f 194 228 229
f 194 229 230
f 194 230 195
f 195 230 231
f 195 231 196
f 196 231 232
f 196 232 197
f 197 232 233
f 197 233 198
f 198 233 199
f 199 233 234
f 199 234 200
f 200 234 201
f 201 234 202
f 202 234 203
f 203 234 204
f 204 234 236
f 204 236 206
f 206 236 266
f 206 266 235
f 207 208 212
f 207 212 237
f 207 237 238
f 207 238 239
f 207 239 215
f 209 240 237
f 209 237 212
f 209 212 210
f 209 211 240
f 211 241 240
f 213 214 215
f 213 215 239
f 213 239 242
f 213 242 216
f 216 243 244
f 216 244 245
f 216 245 217
f 216 242 243
f 217 245 218
f 218 245 246
f 218 246 221
f 218 221 219
f 219 221 220
f 221 246 247
f 222 247 248
f 222 248 280
f 222 280 249
f 223 249 250
f 223 250 224
f 224 250 251
f 224 251 225
f 225 251 252
f 225 252 253
f 225 253 226
f 226 253 254
f 226 254 255
f 226 255 227
f 227 255 256
f 227 256 228
f 228 256 257
f 228 257 258
f 228 258 229
f 229 258 259
f 229 259 260
f 229 260 261
f 229 261 230
f 230 261 232
f 230 232 231
f 232 261 262
f 232 262 263
f 232 263 233
f 233 263 234
f 234 264 267
f 234 267 236
f 234 263 262
f 234 262 265
f 234 265 296
f 234 296 264
f 236 267 300
f 236 300 266
f 237 268 269
f 237 269 238
f 237 240 268
f 238 269 270
f 238 270 271
f 238 271 239
f 239 271 242
f 240 241 268
f 241 272 268
f 242 271 273
f 242 273 274
f 242 274 243
f 243 274 275
f 243 275 244
f 244 275 276
f 244 276 277
f 244 277 247
f 244 247 245
f 245 247 246
f 247 277 248
f 248 277 276
f 248 276 278
f 248 278 279
f 248 279 280
f 249 280 250
f 250 281 282
f 250 282 252
f 250 252 251
f 250 280 281
f 252 282 283
f 252 283 254
f 252 254 253
f 254 283 255
f 255 284 257
f 255 257 256
f 255 283 284
f 257 284 285
f 257 285 258
f 258 286 287
f 258 287 288
f 258 288 259
f 258 285 286
f 259 288 260
f 260 288 289
f 260 289 265
f 260 265 261
f 261 265 262
f 264 290 291
f 264 291 292
f 264 292 293
f 264 293 294
f 264 294 295
f 264 295 301
f 264 301 267
f 264 296 297
f 264 297 298
f 264 298 299
f 264 299 290
f 265 289 296
f 267 301 302
f 267 302 300
f 268 303 269
f 268 272 304
f 268 304 303
f 269 303 305
f 269 305 306
f 269 306 270
f 270 306 271
f 271 306 307
f 271 307 308
f 271 308 273
f 273 308 274
f 274 308 309
f 274 309 310
f 274 310 275
f 275 310 276
f 276 311 278
f 276 310 311
f 278 311 312
f 278 312 313
f 278 313 314
f 278 314 279
f 279 314 280
f 280 314 315
f 280 315 281
f 281 315 282
f 282 315 316
f 282 316 283
f 283 316 317
f 283 317 318
f 283 318 284
f 284 318 285
f 285 318 319
f 285 319 286
f 286 319 320
f 286 320 321
f 286 321 287
f 287 321 297
f 287 297 296
f 287 296 288
f 288 296 289
f 290 299 322
f 290 322 323
f 290 323 291
f 291 323 292
f 292 323 324
f 292 324 325
f 292 325 293
f 293 325 326
f 293 326 294
f 294 326 295
f 295 326 327
f 295 327 329
f 295 329 301
f 297 321 298
f 298 321 299
f 299 321 328
f 299 328 322
f 301 329 330
f 301 330 331
f 301 331 302
f 303 332 333
f 303 333 305
f 303 304 334
f 303 334 332
f 305 333 306
f 306 333 335
f 306 335 307
f 307 335 336
f 307 336 308
f 308 336 337
f 308 337 338
f 308 338 309
f 309 338 310
f 310 339 340
f 310 340 311
f 310 338 339
f 311 340 312
f 312 340 341
f 312 341 367
f 312 367 342
f 312 342 313
f 313 342 314
f 314 342 315
f 315 343 344
f 315 344 316
f 315 342 343
f 316 344 345
f 316 345 317
f 317 345 318
f 318 345 346
f 318 346 347
f 318 347 319
f 319 347 348
f 319 348 320
f 320 348 321
f 321 348 328
f 322 328 349
f 322 349 323
f 323 349 350
f 323 350 351
f 323 351 324
f 324 351 325
f 325 351 352
f 325 352 326
f 326 352 353
f 326 353 354
f 326 354 327
f 327 354 355
f 327 355 329
f 328 348 349
f 329 355 379
f 329 379 356
f 329 356 330
f 332 357 333
f 332 334 358
f 332 358 357
f 333 357 359
f 333 359 360
f 333 360 335
f 335 360 336
f 336 360 361
f 336 361 337
f 337 361 362
f 337 362 363
f 337 363 338
f 338 363 364
f 338 364 339
f 339 364 340
f 340 365 366
f 340 366 341
f 340 364 365
f 341 366 391
f 341 391 367
f 342 367 368
f 342 368 343
f 343 368 344
f 344 368 369
f 344 369 370
f 344 370 345
f 345 370 346
f 346 370 371
f 346 371 347
f 347 371 372
f 347 372 349
f 347 349 348
f 349 372 373
f 349 373 350
f 350 373 374
f 350 374 351
f 351 374 352
f 352 374 375
f 352 375 376
f 352 376 353
f 353 376 354
f 354 376 377
f 354 377 378
f 354 378 355
f 355 378 379
f 357 358 380
f 357 380 381
f 357 381 359
f 359 381 382
f 359 382 360
f 360 382 383
f 360 383 384
f 360 384 361
f 361 384 385
f 361 385 362
f 362 385 363
f 363 385 386
f 363 386 364
f 364 386 387
f 364 387 388
f 364 388 365
f 365 388 389
f 365 389 366
f 366 389 390
f 366 390 391
f 367 391 392
f 367 392 368
f 368 392 393
f 368 393 369
f 369 393 370
f 370 393 394
f 370 394 395
f 370 395 371
f 371 395 372
f 372 395 373
f 373 395 374
f 374 395 396
f 374 396 397
f 374 397 375
f 375 397 376
f 376 397 398
f 376 398 377
f 377 398 399
f 377 399 400
f 377 400 378
f 378 400 401
f 378 401 402
f 378 402 379
f 379 402 403
f 380 404 405
f 380 405 381
f 381 405 406
f 381 406 407
f 381 407 382
f 382 407 408
f 382 408 383
f 383 408 384
f 384 408 409
f 384 409 410
f 384 410 385
f 385 410 386
f 386 410 411
f 386 411 412
f 386 412 387
f 387 412 388
f 388 413 389
f 388 412 413
f 389 413 414
f 389 414 415
f 389 415 416
f 389 416 390
f 390 416 391
f 391 416 392
f 392 417 393
f 392 416 417
f 393 417 418
f 393 418 419
f 393 419 394
f 394 419 396
f 394 396 395
f 396 419 397
f 397 419 420
f 397 420 421
f 397 421 398
f 398 421 422
f 398 422 399
f 399 422 423
f 399 423 400
f 400 423 424
f 400 424 401
f 401 425 426
f 401 426 402
f 401 424 425
f 402 427 428
f 402 428 403
f 402 426 427
f 404 429 430
f 404 430 406
f 404 406 405
f 406 430 431
f 406 431 432
f 406 432 433
f 406 433 407
f 407 433 408
f 408 433 434
f 408 434 435
f 408 435 409
f 409 435 410
f 410 435 436
f 410 436 437
f 410 437 411
f 411 437 412
f 412 437 438
f 412 438 439
f 412 439 413
f 413 439 440
f 413 440 414
f 414 440 453
f 414 453 441
f 414 441 415
f 415 441 416
f 416 441 417
f 417 442 443
f 417 443 418
f 417 441 442
f 418 443 419
f 419 443 420
f 420 443 421
f 421 443 444
f 421 444 445
f 421 445 422
f 422 445 446
f 422 446 423
f 423 446 447
f 423 447 424
f 424 447 448
f 424 448 425
f 429 449 431
f 429 431 430
f 431 450 432
f 431 449 451
f 431 451 450
f 432 450 433
f 433 450 434
f 434 450 435
f 435 450 436
f 436 450 437
f 437 450 438
f 438 450 439
f 439 450 440
f 440 450 452
f 440 452 463
f 440 463 453
f 441 453 454
f 441 454 442
f 442 454 444
f 442 444 443
f 444 454 445
f 445 454 455
f 445 455 456
f 445 456 446
f 446 456 457
f 446 457 447
f 447 457 458
f 447 458 459
f 447 459 448
f 448 459 460
f 450 451 461
f 450 461 462
f 450 462 452
f 452 462 464
f 452 464 468
f 452 468 465
f 452 465 463
f 453 463 454
f 454 463 455
f 455 463 465
f 455 465 456
f 456 465 457
f 457 465 458
f 458 465 466
f 458 466 459
f 459 466 460
f 460 466 467
f 465 468 469
f 465 469 470
f 465 470 466
f 466 470 467