# https://github.com/mikedh/trimesh
v -0.05043723 0.01069971 -0.01102903 0.79607843 0.45882353 0.78039216
v -0.05043723 0.01069971 -0.01117534 0.79607843 0.45882353 0.78039216
v -0.05043723 0.01069717 -0.00530115 0.79607843 0.45882353 0.78039216
v 0.00049524 0.01015626 -0.00683308 0.79607843 0.45882353 0.78039216
v -0.05043723 0.01066670 -0.01144044 0.79607843 0.45882353 0.78039216
v 0.00049524 0.01015626 -0.01117679 0.79607843 0.45882353 0.78039216
v 0.00049524 0.01013341 -0.01143609 0.79607843 0.45882353 0.78039216
v -0.05043723 -0.01521550 -0.00530115 0.79607843 0.45882353 0.78039216
v -0.01064358 0.01015626 -0.00530115 0.79607843 0.45882353 0.78039216
v 0.00049524 0.01013595 -0.00658826 0.79607843 0.45882353 0.78039216
v 0.00049524 0.01014611 -0.00670632 0.79607843 0.45882353 0.78039216
v -0.05043723 0.01057020 -0.01169684 0.79607843 0.45882353 0.78039216
v 0.00049524 0.01009786 -0.01157226 0.79607843 0.45882353 0.78039216
v 0.00049524 0.01006230 -0.01169829 0.79607843 0.45882353 0.78039216
v -0.05040232 -0.01522312 -0.00530115 0.79607843 0.45882353 0.78039216
v -0.05043723 -0.01521550 -0.01117534 0.79607843 0.45882353 0.78039216
v -0.01039927 0.01013595 -0.00530115 0.79607843 0.45882353 0.78039216
v 0.00049524 0.00968392 -0.00573212 0.79607843 0.45882353 0.78039216
v 0.00049524 0.00984899 -0.00591609 0.79607843 0.45882353 0.78039216
v 0.00049524 0.00991756 -0.00602402 0.79607843 0.45882353 0.78039216
v 0.00049524 0.00998104 -0.00612397 0.79607843 0.45882353 0.78039216
v 0.00049524 0.01007754 -0.00634996 0.79607843 0.45882353 0.78039216
v 0.00049524 0.01010802 -0.00647309 0.79607843 0.45882353 0.78039216
v -0.05043723 0.01049909 -0.01180477 0.79607843 0.45882353 0.78039216
v 0.00049524 0.00995311 -0.01193370 0.79607843 0.45882353 0.78039216
v -0.05022781 -0.01523836 -0.00530115 0.79607843 0.45882353 0.78039216
v -0.05040232 -0.01522312 -0.01117534 0.79607843 0.45882353 0.78039216
v -0.05043723 -0.01519519 -0.01139698 0.79607843 0.45882353 0.78039216
v -0.05040232 -0.01520027 -0.01144044 0.79607843 0.45882353 0.78039216
v -0.01015994 0.01007754 -0.00530115 0.79607843 0.45882353 0.78039216
v 0.00049524 0.00868845 -0.00531057 0.79607843 0.45882353 0.78039216
v 0.00049524 0.00874686 -0.00531491 0.79607843 0.45882353 0.78039216
v 0.00049524 0.00881035 -0.00531998 0.79607843 0.45882353 0.78039216
v 0.00049524 0.00892463 -0.00533809 0.79607843 0.45882353 0.78039216
v 0.00049524 0.00893224 -0.00533954 0.79607843 0.45882353 0.78039216
v 0.00049524 0.00905160 -0.00536851 0.79607843 0.45882353 0.78039216
v 0.00049524 0.00910747 -0.00538662 0.79607843 0.45882353 0.78039216
v 0.00049524 0.00916080 -0.00540473 0.79607843 0.45882353 0.78039216
v 0.00049524 0.00922174 -0.00542935 0.79607843 0.45882353 0.78039216
v 0.00049524 0.00927507 -0.00545253 0.79607843 0.45882353 0.78039216
v 0.00049524 0.00933348 -0.00548151 0.79607843 0.45882353 0.78039216
v 0.00049524 0.00938427 -0.00550903 0.79607843 0.45882353 0.78039216
v 0.00049524 0.00944014 -0.00554307 0.79607843 0.45882353 0.78039216
v 0.00049524 0.00948839 -0.00557422 0.79607843 0.45882353 0.78039216
v 0.00049524 0.00959504 -0.00565824 0.79607843 0.45882353 0.78039216
v -0.05043723 0.01041021 -0.01193732 0.79607843 0.45882353 0.78039216
v 0.00049524 0.00979566 -0.01215823 0.79607843 0.45882353 0.78039216
v -0.05016798 -0.01524344 -0.01117534 0.79607843 0.45882353 0.78039216
v -0.05016798 -0.01524344 -0.00530115 0.79607843 0.45882353 0.78039216
v -0.05043723 -0.01519011 -0.01144044 0.79607843 0.45882353 0.78039216
v -0.05043723 -0.01512154 -0.01169684 0.79607843 0.45882353 0.78039216
v -0.05039235 -0.01513170 -0.01169684 0.79607843 0.45882353 0.78039216
v -0.05016798 -0.01514948 -0.01169684 0.79607843 0.45882353 0.78039216
v -0.05016798 -0.01521804 -0.01144044 0.79607843 0.45882353 0.78039216
v -0.00993557 0.00998104 -0.00530115 0.79607843 0.45882353 0.78039216
v 0.00049524 0.00856402 -0.00531057 0.79607843 0.45882353 0.78039216
v -0.00972615 0.00984899 -0.00530115 0.79607843 0.45882353 0.78039216
v -0.00953668 0.00967885 -0.00530115 0.79607843 0.45882353 0.78039216
v -0.00938710 0.00949092 -0.00530115 0.79607843 0.45882353 0.78039216
v -0.00932228 0.00938935 -0.00530115 0.79607843 0.45882353 0.78039216
v -0.00926743 0.00928015 -0.00530115 0.79607843 0.45882353 0.78039216
v -0.00921757 0.00916841 -0.00530115 0.79607843 0.45882353 0.78039216
v -0.00918267 0.00905160 -0.00530115 0.79607843 0.45882353 0.78039216
v -0.00915275 0.00893224 -0.00530115 0.79607843 0.45882353 0.78039216
v -0.00913281 0.00881035 -0.00530115 0.79607843 0.45882353 0.78039216
v -0.00912284 0.00868845 -0.00530115 0.79607843 0.45882353 0.78039216
v -0.05043723 0.01020959 -0.01215534 0.79607843 0.45882353 0.78039216
v 0.00049524 0.00960774 -0.01234511 0.79607843 0.45882353 0.78039216
v -0.03762308 -0.01522312 -0.01140712 0.79607843 0.45882353 0.78039216
v -0.00000336 -0.01524344 -0.01117534 0.79607843 0.45882353 0.78039216
v -0.01162085 -0.01524344 -0.00530115 0.79607843 0.45882353 0.78039216
v -0.05043723 -0.01500473 -0.01193732 0.79607843 0.45882353 0.78039216
v -0.05037241 -0.01502251 -0.01193732 0.79607843 0.45882353 0.78039216
v -0.03762308 -0.01515964 -0.01166497 0.79607843 0.45882353 0.78039216
v -0.05016798 -0.01503774 -0.01193732 0.79607843 0.45882353 0.78039216
v -0.03762308 -0.01513678 -0.01172727 0.79607843 0.45882353 0.78039216
v 0.00049524 -0.01514948 -0.01169829 0.79607843 0.45882353 0.78039216
v -0.02508318 -0.01520281 -0.01150418 0.79607843 0.45882353 0.78039216
v 0.00049524 -0.01522058 -0.01143609 0.79607843 0.45882353 0.78039216
v 0.00049524 -0.01320933 -0.00626159 0.79607843 0.45882353 0.78039216
v -0.00912284 0.00854624 -0.00530115 0.79607843 0.45882353 0.78039216
v -0.01009013 -0.01362072 -0.00530115 0.79607843 0.45882353 0.78039216
v -0.01010011 -0.01378579 -0.00530115 0.79607843 0.45882353 0.78039216
v -0.01011008 -0.01391276 -0.00530115 0.79607843 0.45882353 0.78039216
v -0.01013002 -0.01403973 -0.00530115 0.79607843 0.45882353 0.78039216
v -0.01015994 -0.01415655 -0.00530115 0.79607843 0.45882353 0.78039216
v -0.01020481 -0.01427844 -0.00530115 0.79607843 0.45882353 0.78039216
v -0.01025467 -0.01439526 -0.00530115 0.79607843 0.45882353 0.78039216
v -0.05043723 0.01007754 -0.01226398 0.79607843 0.45882353 0.78039216
v 0.00049524 0.00949854 -0.01242188 0.79607843 0.45882353 0.78039216
v -0.05043723 0.00998104 -0.01234293 0.79607843 0.45882353 0.78039216
v 0.00049524 -0.01523074 -0.01130934 0.79607843 0.45882353 0.78039216
v 0.00049524 -0.01524090 -0.01117679 0.79607843 0.45882353 0.78039216
v 0.00049524 -0.01524344 -0.01103192 0.79607843 0.45882353 0.78039216
v 0.00049524 -0.01524344 -0.00780945 0.79607843 0.45882353 0.78039216
v 0.00049524 -0.01522058 -0.00755159 0.79607843 0.45882353 0.78039216
v 0.00049524 -0.01521804 -0.00754073 0.79607843 0.45882353 0.78039216
v 0.00049524 -0.01515456 -0.00730171 0.79607843 0.45882353 0.78039216
v 0.00049524 -0.01509869 -0.00717785 0.79607843 0.45882353 0.78039216
v 0.00049524 -0.01504790 -0.00706630 0.79607843 0.45882353 0.78039216
v -0.01136158 -0.01522058 -0.00530115 0.79607843 0.45882353 0.78039216
v -0.05043723 -0.01491331 -0.01206769 0.79607843 0.45882353 0.78039216
v -0.05043723 -0.01484982 -0.01215534 0.79607843 0.45882353 0.78039216
v -0.05034748 -0.01487014 -0.01215534 0.79607843 0.45882353 0.78039216
v -0.05016798 -0.01488538 -0.01215534 0.79607843 0.45882353 0.78039216
v -0.01254327 -0.01515964 -0.01166497 0.79607843 0.45882353 0.78039216
v -0.03762308 -0.01505298 -0.01190762 0.79607843 0.45882353 0.78039216
v -0.03762308 -0.01501997 -0.01196484 0.79607843 0.45882353 0.78039216
v 0.00049524 -0.01504028 -0.01193442 0.79607843 0.45882353 0.78039216
v -0.01254327 -0.01513678 -0.01172727 0.79607843 0.45882353 0.78039216
v -0.00000336 -0.01518503 -0.01156864 0.79607843 0.45882353 0.78039216
v 0.00049524 -0.01378579 -0.00628694 0.79607843 0.45882353 0.78039216
v -0.01026464 -0.01441557 -0.00530115 0.79607843 0.45882353 0.78039216
v 0.00049524 0.00939189 -0.01249576 0.79607843 0.45882353 0.78039216
v -0.05043723 0.00971694 -0.01249576 0.79607843 0.45882353 0.78039216
v 0.00049524 -0.01504282 -0.00705689 0.79607843 0.45882353 0.78039216
v -0.01114717 -0.01516471 -0.00530115 0.79607843 0.45882353 0.78039216
v 0.00049524 -0.01490315 -0.00685263 0.79607843 0.45882353 0.78039216
v 0.00049524 -0.01489553 -0.00684394 0.79607843 0.45882353 0.78039216
v 0.00049524 -0.01472539 -0.00666576 0.79607843 0.45882353 0.78039216
v 0.00049524 -0.01462635 -0.00658464 0.79607843 0.45882353 0.78039216
v 0.00049524 -0.01451715 -0.00651220 0.79607843 0.45882353 0.78039216
v 0.00049524 -0.01445874 -0.00647889 0.79607843 0.45882353 0.78039216
v 0.00049524 -0.01440542 -0.00644919 0.79607843 0.45882353 0.78039216
v -0.05043723 -0.01465682 -0.01234293 0.79607843 0.45882353 0.78039216
v -0.05031756 -0.01468476 -0.01234293 0.79607843 0.45882353 0.78039216
v -0.03762308 -0.01490569 -0.01212781 0.79607843 0.45882353 0.78039216
v -0.05016798 -0.01469745 -0.01234293 0.79607843 0.45882353 0.78039216
v -0.02508318 -0.01483966 -0.01220242 0.79607843 0.45882353 0.78039216
v -0.00000336 -0.01488538 -0.01215534 0.79607843 0.45882353 0.78039216
v -0.01254327 -0.01505298 -0.01190762 0.79607843 0.45882353 0.78039216
v -0.01254327 -0.01501997 -0.01196484 0.79607843 0.45882353 0.78039216
v 0.00049524 -0.01495902 -0.01204959 0.79607843 0.45882353 0.78039216
v -0.01254327 -0.01490569 -0.01212781 0.79607843 0.45882353 0.78039216
v 0.00049524 -0.01391276 -0.00629781 0.79607843 0.45882353 0.78039216
v -0.01032448 -0.01451715 -0.00530115 0.79607843 0.45882353 0.78039216
v -0.01039428 -0.01462635 -0.00530115 0.79607843 0.45882353 0.78039216
v -0.01047904 -0.01472539 -0.00530115 0.79607843 0.45882353 0.78039216
v 0.00049524 0.00927253 -0.01255226 0.79607843 0.45882353 0.78039216
v -0.05043723 0.00944521 -0.01260803 0.79607843 0.45882353 0.78039216
v 0.00049524 0.00915572 -0.01260586 0.79607843 0.45882353 0.78039216
v -0.01111227 -0.01515456 -0.00530115 0.79607843 0.45882353 0.78039216
v 0.00049524 -0.01428860 -0.00639559 0.79607843 0.45882353 0.78039216
v -0.05043723 -0.01462127 -0.01236756 0.79607843 0.45882353 0.78039216
v -0.05028764 -0.01447144 -0.01249576 0.79607843 0.45882353 0.78039216
v -0.02508318 -0.01474570 -0.01229585 0.79607843 0.45882353 0.78039216
v -0.05016798 -0.01447906 -0.01249576 0.79607843 0.45882353 0.78039216
v -0.02508318 -0.01464413 -0.01238132 0.79607843 0.45882353 0.78039216
v -0.00000336 -0.01469745 -0.01234293 0.79607843 0.45882353 0.78039216
v -0.00000336 -0.01479141 -0.01224950 0.79607843 0.45882353 0.78039216
v 0.00049524 -0.01488538 -0.01215389 0.79607843 0.45882353 0.78039216
v 0.00049524 -0.01398133 -0.00630940 0.79607843 0.45882353 0.78039216
v -0.01066353 -0.01490315 -0.00530115 0.79607843 0.45882353 0.78039216
v -0.01068846 -0.01492093 -0.00530115 0.79607843 0.45882353 0.78039216
v -0.01087793 -0.01504790 -0.00530115 0.79607843 0.45882353 0.78039216
v -0.05043723 0.00928523 -0.01264714 0.79607843 0.45882353 0.78039216
v -0.00000336 0.00915318 -0.01260803 0.79607843 0.45882353 0.78039216
v 0.00049524 0.00914810 -0.01260876 0.79607843 0.45882353 0.78039216
v 0.00049524 0.00902112 -0.01264280 0.79607843 0.45882353 0.78039216
v 0.00049524 0.00889161 -0.01267684 0.79607843 0.45882353 0.78039216
v -0.01090784 -0.01506314 -0.00530115 0.79607843 0.45882353 0.78039216
v 0.00049524 -0.01416671 -0.00635286 0.79607843 0.45882353 0.78039216
v 0.00049524 -0.01403973 -0.00631954 0.79607843 0.45882353 0.78039216
v -0.05043723 -0.01456032 -0.01240957 0.79607843 0.45882353 0.78039216
v -0.05040232 -0.01444351 -0.01249576 0.79607843 0.45882353 0.78039216
v -0.05032753 -0.01421496 -0.01260803 0.79607843 0.45882353 0.78039216
v -0.05024775 -0.01423273 -0.01260803 0.79607843 0.45882353 0.78039216
v -0.05016798 -0.01424035 -0.01260803 0.79607843 0.45882353 0.78039216
v -0.01254327 -0.01456286 -0.01243854 0.79607843 0.45882353 0.78039216
v -0.03762308 -0.01445113 -0.01250952 0.79607843 0.45882353 0.78039216
v 0.00049524 -0.01447906 -0.01249576 0.79607843 0.45882353 0.78039216
v 0.00049524 -0.01459080 -0.01241826 0.79607843 0.45882353 0.78039216
v 0.00049524 -0.01469745 -0.01234221 0.79607843 0.45882353 0.78039216
v -0.05043723 0.00916334 -0.01267684 0.79607843 0.45882353 0.78039216
v 0.00049524 0.00875956 -0.01268843 0.79607843 0.45882353 0.78039216
v -0.05043723 -0.01442827 -0.01249576 0.79607843 0.45882353 0.78039216
v -0.05028764 -0.01395339 -0.01267684 0.79607843 0.45882353 0.78039216
v -0.05024775 -0.01396863 -0.01267684 0.79607843 0.45882353 0.78039216
v -0.05020787 -0.01397879 -0.01267684 0.79607843 0.45882353 0.78039216
v -0.05040232 -0.01418194 -0.01260803 0.79607843 0.45882353 0.78039216
v -0.05016798 -0.01398387 -0.01267684 0.79607843 0.45882353 0.78039216
v -0.00000336 -0.01424035 -0.01260803 0.79607843 0.45882353 0.78039216
v -0.01254327 -0.01445113 -0.01250952 0.79607843 0.45882353 0.78039216
v 0.00049524 -0.01424289 -0.01260586 0.79607843 0.45882353 0.78039216
v -0.05043723 0.00887384 -0.01270002 0.79607843 0.45882353 0.78039216
v 0.00049524 0.00863259 -0.01269929 0.79607843 0.45882353 0.78039216
v -0.05043723 -0.01425559 -0.01256964 0.79607843 0.45882353 0.78039216
v -0.05032255 -0.01393308 -0.01267684 0.79607843 0.45882353 0.78039216
v -0.05016798 -0.01371722 -0.01270002 0.79607843 0.45882353 0.78039216
v -0.05043723 -0.01420988 -0.01258847 0.79607843 0.45882353 0.78039216
v -0.05043723 -0.01415909 -0.01260803 0.79607843 0.45882353 0.78039216
v -0.03762308 -0.01388483 -0.01268553 0.79607843 0.45882353 0.78039216
v -0.03762308 -0.01398387 -0.01267684 0.79607843 0.45882353 0.78039216
v 0.00049524 -0.01411338 -0.01264207 0.79607843 0.45882353 0.78039216
v 0.00049524 -0.01423527 -0.01260876 0.79607843 0.45882353 0.78039216
v -0.02463942 0.00863005 -0.01270002 0.79607843 0.45882353 0.78039216
v -0.05043723 -0.00927316 -0.01270002 0.79607843 0.45882353 0.78039216
v 0.00049524 -0.01371976 -0.01269929 0.79607843 0.45882353 0.78039216
v -0.02441505 0.00304323 -0.01270002 0.79607843 0.45882353 0.78039216
v -0.05043723 -0.01409560 -0.01262252 0.79607843 0.45882353 0.78039216
v -0.05043723 -0.01401688 -0.01263845 0.79607843 0.45882353 0.78039216
v -0.05035246 -0.01390514 -0.01267684 0.79607843 0.45882353 0.78039216
v -0.05043723 -0.01344804 -0.01269929 0.79607843 0.45882353 0.78039216
v -0.02508318 -0.01371722 -0.01270002 0.79607843 0.45882353 0.78039216
v -0.01254327 -0.01388483 -0.01268553 0.79607843 0.45882353 0.78039216
v -0.01254327 -0.01395085 -0.01267974 0.79607843 0.45882353 0.78039216
v 0.00049524 -0.01398387 -0.01267612 0.79607843 0.45882353 0.78039216
v -0.05043723 -0.01399148 -0.01264352 0.79607843 0.45882353 0.78039216
v -0.05043723 -0.01382388 -0.01267612 0.79607843 0.45882353 0.78039216
f 1 2 5
f 1 5 12
f 1 12 24
f 1 24 46
f 1 46 67
f 1 67 89
f 1 89 91
f 1 91 115
f 1 115 140
f 1 140 156
f 1 156 174
f 1 174 185
f 1 185 197
f 1 197 203
f 1 203 209
f 1 209 208
f 1 208 201
f 1 201 200
f 1 200 191
f 1 191 190
f 1 190 187
f 1 187 176
f 1 176 164
f 1 164 144
f 1 144 125
f 1 125 103
f 1 103 102
f 1 102 72
f 1 72 51
f 1 51 50
f 1 50 28
f 1 28 16
f 1 16 8
f 1 8 3
f 1 3 4
f 1 4 6
f 1 6 2
f 2 6 7
f 2 7 5
f 3 8 15
f 3 15 26
f 3 26 49
f 3 49 71
f 3 71 101
f 3 101 117
f 3 117 142
f 3 142 161
f 3 161 155
f 3 155 154
f 3 154 153
f 3 153 138
f 3 138 137
f 3 137 136
f 3 136 113
f 3 113 88
f 3 88 87
f 3 87 86
f 3 86 85
f 3 85 84
f 3 84 83
f 3 83 82
f 3 82 81
f 3 81 66
f 3 66 65
f 3 65 64
f 3 64 63
f 3 63 62
f 3 62 61
f 3 61 60
f 3 60 59
f 3 59 58
f 3 58 57
f 3 57 55
f 3 55 30
f 3 30 17
f 3 17 9
f 3 9 10
f 3 10 11
f 3 11 4
f 4 11 10
f 4 10 23
f 4 23 22
f 4 22 21
f 4 21 20
f 4 20 19
f 4 19 18
f 4 18 45
f 4 45 44
f 4 44 43
f 4 43 42
f 4 42 41
f 4 41 40
f 4 40 39
f 4 39 38
f 4 38 37
f 4 37 36
f 4 36 35
f 4 35 34
f 4 34 33
f 4 33 32
f 4 32 31
f 4 31 56
f 4 56 80
f 4 80 112
f 4 112 135
f 4 135 152
f 4 152 163
f 4 163 162
f 4 162 143
f 4 143 124
f 4 124 123
f 4 123 122
f 4 122 121
f 4 121 120
f 4 120 119
f 4 119 118
f 4 118 116
f 4 116 100
f 4 100 99
f 4 99 98
f 4 98 97
f 4 97 96
f 4 96 95
f 4 95 94
f 4 94 93
f 4 93 92
f 4 92 79
f 4 79 77
f 4 77 109
f 4 109 133
f 4 133 151
f 4 151 173
f 4 173 172
f 4 172 171
f 4 171 184
f 4 184 195
f 4 195 194
f 4 194 207
f 4 207 198
f 4 198 186
f 4 186 175
f 4 175 160
f 4 160 159
f 4 159 158
f 4 158 141
f 4 141 139
f 4 139 114
f 4 114 90
f 4 90 68
f 4 68 47
f 4 47 25
f 4 25 14
f 4 14 13
f 4 13 7
f 4 7 6
f 5 7 13
f 5 13 14
f 5 14 12
f 8 16 27
f 8 27 15
f 9 17 18
f 9 18 19
f 9 19 20
f 9 20 21
f 9 21 22
f 9 22 23
f 9 23 10
f 12 14 25
f 12 25 24
f 15 27 26
f 16 28 29
f 16 29 27
f 17 30 31
f 17 31 32
f 17 32 33
f 17 33 34
f 17 34 35
f 17 35 36
f 17 36 37
f 17 37 38
f 17 38 39
f 17 39 40
f 17 40 41
f 17 41 42
f 17 42 43
f 17 43 44
f 17 44 45
f 17 45 18
f 24 25 46
f 25 47 46
f 26 48 49
f 26 27 48
f 27 29 48
f 28 50 29
f 29 50 51
f 29 51 52
f 29 52 53
f 29 53 54
f 29 54 48
f 30 55 31
f 31 55 57
f 31 57 58
f 31 58 59
f 31 59 60
f 31 60 61
f 31 61 62
f 31 62 63
f 31 63 64
f 31 64 65
f 31 65 66
f 31 66 81
f 31 81 56
f 46 47 67
f 47 68 67
f 48 54 69
f 48 69 79
f 48 79 70
f 48 70 94
f 48 94 95
f 48 95 71
f 48 71 49
f 51 72 73
f 51 73 52
f 52 73 53
f 53 74 54
f 53 73 75
f 53 75 107
f 53 107 76
f 53 76 77
f 53 77 74
f 54 74 78
f 54 78 79
f 54 79 69
f 56 81 82
f 56 82 83
f 56 83 84
f 56 84 85
f 56 85 86
f 56 86 87
f 56 87 88
f 56 88 80
f 67 68 89
f 68 90 91
f 68 91 89
f 70 79 92
f 70 92 93
f 70 93 94
f 71 95 96
f 71 96 97
f 71 97 98
f 71 98 99
f 71 99 100
f 71 100 101
f 72 102 73
f 73 102 103
f 73 103 104
f 73 104 105
f 73 105 75
f 74 77 106
f 74 106 78
f 75 105 108
f 75 108 109
f 75 109 107
f 76 107 131
f 76 131 110
f 76 110 77
f 77 79 111
f 77 111 106
f 77 110 109
f 78 106 79
f 79 106 111
f 80 88 112
f 88 113 112
f 90 114 91
f 91 114 115
f 100 116 101
f 101 116 118
f 101 118 119
f 101 119 120
f 101 120 121
f 101 121 122
f 101 122 123
f 101 123 124
f 101 124 117
f 103 125 126
f 103 126 104
f 104 126 128
f 104 128 105
f 105 127 108
f 105 128 129
f 105 129 130
f 105 130 134
f 105 134 127
f 107 109 131
f 108 127 134
f 108 134 132
f 108 132 109
f 109 130 133
f 109 110 131
f 109 132 134
f 109 134 130
f 112 113 136
f 112 136 137
f 112 137 138
f 112 138 135
f 114 139 115
f 115 139 141
f 115 141 140
f 117 124 143
f 117 143 142
f 125 144 145
f 125 145 126
f 126 145 128
f 128 146 129
f 128 145 147
f 128 147 148
f 128 148 149
f 128 149 146
f 129 146 149
f 129 149 150
f 129 150 130
f 130 150 173
f 130 173 151
f 130 151 133
f 135 138 153
f 135 153 154
f 135 154 155
f 135 155 152
f 140 141 157
f 140 157 158
f 140 158 159
f 140 159 160
f 140 160 156
f 141 158 157
f 142 143 162
f 142 162 163
f 142 163 161
f 144 164 145
f 145 164 165
f 145 165 166
f 145 166 167
f 145 167 168
f 145 168 147
f 147 169 148
f 147 168 170
f 147 170 183
f 147 183 171
f 147 171 169
f 148 169 149
f 149 172 173
f 149 173 150
f 149 169 172
f 152 155 163
f 155 161 163
f 156 160 174
f 160 175 174
f 164 176 165
f 165 176 166
f 166 177 178
f 166 178 179
f 166 179 167
f 166 176 180
f 166 180 177
f 167 179 181
f 167 181 168
f 168 181 193
f 168 193 182
f 168 182 183
f 168 183 170
f 169 171 172
f 171 182 184
f 171 183 182
f 174 175 186
f 174 186 185
f 176 187 180
f 177 180 188
f 177 188 189
f 177 189 178
f 178 189 179
f 179 189 181
f 180 187 190
f 180 190 191
f 180 191 188
f 181 189 192
f 181 192 205
f 181 205 206
f 181 206 193
f 182 194 195
f 182 195 184
f 182 193 194
f 185 196 199
f 185 199 204
f 185 204 189
f 185 189 197
f 185 186 196
f 186 198 199
f 186 199 196
f 188 191 200
f 188 200 201
f 188 201 202
f 188 202 189
f 189 202 203
f 189 203 197
f 189 204 205
f 189 205 192
f 193 206 207
f 193 207 194
f 198 207 206
f 198 206 205
f 198 205 204
f 198 204 199
f 201 208 202
f 202 208 209
f 202 209 203