# https://github.com/mikedh/trimesh
v 0.04729758 0.01015654 -0.00530041 0.11764706 0.63921569 0.14117647
v 0.04729758 -0.01524344 -0.00530041 0.11764706 0.63921569 0.14117647
v 0.04729758 0.01015654 -0.01103190 0.11764706 0.63921569 0.14117647
v 0.01064736 0.01015654 -0.00530041 0.11764706 0.63921569 0.14117647
v 0.04729758 -0.01524344 -0.01117532 0.11764706 0.63921569 0.14117647
v 0.01162317 -0.01524344 -0.00530041 0.11764706 0.63921569 0.14117647
v 0.04729758 0.01015405 -0.01120212 0.11764706 0.63921569 0.14117647
v 0.03695305 0.01015654 -0.01117532 0.11764706 0.63921569 0.14117647
v 0.00049524 0.01015654 -0.00683306 0.11764706 0.63921569 0.14117647
v 0.00049524 0.01013665 -0.00658824 0.11764706 0.63921569 0.14117647
v 0.00049524 0.01007698 -0.00634994 0.11764706 0.63921569 0.14117647
v 0.00049524 0.01002725 -0.00623260 0.11764706 0.63921569 0.14117647
v 0.00049524 0.00998001 -0.00612395 0.11764706 0.63921569 0.14117647
v 0.00049524 0.00991786 -0.00602400 0.11764706 0.63921569 0.14117647
v 0.00049524 0.00984824 -0.00591607 0.11764706 0.63921569 0.14117647
v 0.01039997 0.01013665 -0.00530041 0.11764706 0.63921569 0.14117647
v 0.02508296 -0.01522604 -0.01137378 0.11764706 0.63921569 0.14117647
v 0.03762650 -0.01522852 -0.01134119 0.11764706 0.63921569 0.14117647
v 0.04729758 -0.01522106 -0.01141724 0.11764706 0.63921569 0.14117647
v 0.01254401 -0.01524344 -0.01117532 0.11764706 0.63921569 0.14117647
v 0.01136204 -0.01522106 -0.00530041 0.11764706 0.63921569 0.14117647
v 0.00049524 -0.01515642 -0.00730169 0.11764706 0.63921569 0.14117647
v 0.00049524 -0.01521858 -0.00754071 0.11764706 0.63921569 0.14117647
v 0.00049524 -0.01522106 -0.00755158 0.11764706 0.63921569 0.14117647
v 0.00049524 -0.01524344 -0.00780943 0.11764706 0.63921569 0.14117647
v 0.04729758 0.01013416 -0.01142448 0.11764706 0.63921569 0.14117647
v 0.02463400 0.01013914 -0.01137378 0.11764706 0.63921569 0.14117647
v 0.01231952 0.01015654 -0.01117532 0.11764706 0.63921569 0.14117647
v 0.00049524 0.01015654 -0.01112027 0.11764706 0.63921569 0.14117647
v 0.00049524 0.00977116 -0.00582843 0.11764706 0.63921569 0.14117647
v 0.01018007 0.01008195 -0.00530041 0.11764706 0.63921569 0.14117647
v 0.00049524 0.00968414 -0.00573282 0.11764706 0.63921569 0.14117647
v 0.00049524 0.00959464 -0.00565822 0.11764706 0.63921569 0.14117647
v 0.00049524 0.00948773 -0.00557420 0.11764706 0.63921569 0.14117647
v 0.00049524 0.00944049 -0.00554305 0.11764706 0.63921569 0.14117647
v 0.00049524 0.00938579 -0.00550901 0.11764706 0.63921569 0.14117647
v 0.00049524 0.00933358 -0.00548149 0.11764706 0.63921569 0.14117647
v 0.00049524 0.00927639 -0.00545251 0.11764706 0.63921569 0.14117647
v 0.00049524 0.00922169 -0.00542934 0.11764706 0.63921569 0.14117647
v 0.00049524 0.00916202 -0.00540471 0.11764706 0.63921569 0.14117647
v 0.00049524 0.00910732 -0.00538660 0.11764706 0.63921569 0.14117647
v 0.00049524 0.00905014 -0.00536849 0.11764706 0.63921569 0.14117647
v 0.00049524 0.00904517 -0.00536704 0.11764706 0.63921569 0.14117647
v 0.00049524 0.00892582 -0.00533807 0.11764706 0.63921569 0.14117647
v 0.00049524 0.00881145 -0.00531996 0.11764706 0.63921569 0.14117647
v 0.00049524 0.00874681 -0.00531489 0.11764706 0.63921569 0.14117647
v 0.00049524 0.00868714 -0.00531055 0.11764706 0.63921569 0.14117647
v 0.04729758 -0.01521858 -0.01144042 0.11764706 0.63921569 0.14117647
v 0.00049524 -0.01523101 -0.01130932 0.11764706 0.63921569 0.14117647
v 0.00049524 -0.01521858 -0.01144404 0.11764706 0.63921569 0.14117647
v 0.00049524 -0.01524344 -0.01103190 0.11764706 0.63921569 0.14117647
v 0.00049524 -0.01524095 -0.01117677 0.11764706 0.63921569 0.14117647
v 0.01111465 -0.01515642 -0.00530041 0.11764706 0.63921569 0.14117647
v 0.00049524 -0.01451744 -0.00651219 0.11764706 0.63921569 0.14117647
v 0.00049524 -0.01457463 -0.00654985 0.11764706 0.63921569 0.14117647
v 0.00049524 -0.01462435 -0.00658462 0.11764706 0.63921569 0.14117647
v 0.00049524 -0.01472629 -0.00666574 0.11764706 0.63921569 0.14117647
v 0.00049524 -0.01490530 -0.00685261 0.11764706 0.63921569 0.14117647
v 0.00049524 -0.01504951 -0.00706629 0.11764706 0.63921569 0.14117647
v 0.04729758 0.01013168 -0.01144549 0.11764706 0.63921569 0.14117647
v 0.00049524 0.01013168 -0.01144404 0.11764706 0.63921569 0.14117647
v 0.00049524 0.01014411 -0.01130932 0.11764706 0.63921569 0.14117647
v 0.00049524 0.01015405 -0.01117677 0.11764706 0.63921569 0.14117647
v 0.01016174 0.01007698 -0.00530041 0.11764706 0.63921569 0.14117647
v 0.00049524 0.00856531 -0.00531055 0.11764706 0.63921569 0.14117647
v 0.00912179 0.00868714 -0.00530041 0.11764706 0.63921569 0.14117647
v 0.00913095 0.00881145 -0.00530041 0.11764706 0.63921569 0.14117647
v 0.00914928 0.00893080 -0.00530041 0.11764706 0.63921569 0.14117647
v 0.00918135 0.00905014 -0.00530041 0.11764706 0.63921569 0.14117647
v 0.00921800 0.00916700 -0.00530041 0.11764706 0.63921569 0.14117647
v 0.00926839 0.00928137 -0.00530041 0.11764706 0.63921569 0.14117647
v 0.00932337 0.00938828 -0.00530041 0.11764706 0.63921569 0.14117647
v 0.00938751 0.00949518 -0.00530041 0.11764706 0.63921569 0.14117647
v 0.00954327 0.00968414 -0.00530041 0.11764706 0.63921569 0.14117647
v 0.00972652 0.00984824 -0.00530041 0.11764706 0.63921569 0.14117647
v 0.00993726 0.00998001 -0.00530041 0.11764706 0.63921569 0.14117647
v 0.00995100 0.00998747 -0.00530041 0.11764706 0.63921569 0.14117647
v 0.04729758 -0.01521360 -0.01146215 0.11764706 0.63921569 0.14117647
v 0.00049524 -0.01518377 -0.01157224 0.11764706 0.63921569 0.14117647
v 0.01254401 -0.01515145 -0.01169683 0.11764706 0.63921569 0.14117647
v 0.01254401 -0.01521112 -0.01147229 0.11764706 0.63921569 0.14117647
v 0.03762650 -0.01521112 -0.01147229 0.11764706 0.63921569 0.14117647
v 0.01087642 -0.01504951 -0.00530041 0.11764706 0.63921569 0.14117647
v 0.00049524 -0.01416688 -0.00635284 0.11764706 0.63921569 0.14117647
v 0.00049524 -0.01428870 -0.00639557 0.11764706 0.63921569 0.14117647
v 0.00049524 -0.01440556 -0.00644917 0.11764706 0.63921569 0.14117647
v 0.04729758 0.01012919 -0.01145563 0.11764706 0.63921569 0.14117647
v 0.01231952 0.01006455 -0.01169683 0.11764706 0.63921569 0.14117647
v 0.00049524 0.01009687 -0.01157224 0.11764706 0.63921569 0.14117647
v 0.00049524 -0.01320965 -0.00626157 0.11764706 0.63921569 0.14117647
v 0.01020755 -0.01428870 -0.00530041 0.11764706 0.63921569 0.14117647
v 0.01020297 -0.01427627 -0.00530041 0.11764706 0.63921569 0.14117647
v 0.01016632 -0.01416688 -0.00530041 0.11764706 0.63921569 0.14117647
v 0.01012967 -0.01404007 -0.00530041 0.11764706 0.63921569 0.14117647
v 0.01011135 -0.01392322 -0.00530041 0.11764706 0.63921569 0.14117647
v 0.01009760 -0.01379393 -0.00530041 0.11764706 0.63921569 0.14117647
v 0.00912179 0.00854045 -0.00530041 0.11764706 0.63921569 0.14117647
v 0.04729758 -0.01515145 -0.01169683 0.11764706 0.63921569 0.14117647
v 0.00049524 -0.01514896 -0.01169827 0.11764706 0.63921569 0.14117647
v 0.01254401 -0.01510918 -0.01178736 0.11764706 0.63921569 0.14117647
v 0.00049524 -0.01509675 -0.01181344 0.11764706 0.63921569 0.14117647
v 0.01066568 -0.01490530 -0.00530041 0.11764706 0.63921569 0.14117647
v 0.00049524 -0.01391327 -0.00629779 0.11764706 0.63921569 0.14117647
v 0.00049524 -0.01404007 -0.00631952 0.11764706 0.63921569 0.14117647
v 0.00049524 -0.01410720 -0.00633690 0.11764706 0.63921569 0.14117647
v 0.04729758 0.01006206 -0.01170190 0.11764706 0.63921569 0.14117647
v 0.03695305 0.01006455 -0.01169683 0.11764706 0.63921569 0.14117647
v 0.01231952 0.01002228 -0.01178736 0.11764706 0.63921569 0.14117647
v 0.00049524 0.01000736 -0.01181851 0.11764706 0.63921569 0.14117647
v 0.00049524 0.01006206 -0.01169827 0.11764706 0.63921569 0.14117647
v 0.00049524 -0.01378399 -0.00628692 0.11764706 0.63921569 0.14117647
v 0.01021214 -0.01429865 -0.00530041 0.11764706 0.63921569 0.14117647
v 0.04729758 -0.01504205 -0.01193078 0.11764706 0.63921569 0.14117647
v 0.00049524 -0.01503956 -0.01193440 0.11764706 0.63921569 0.14117647
v 0.01047785 -0.01472629 -0.00530041 0.11764706 0.63921569 0.14117647
v 0.01039539 -0.01462435 -0.00530041 0.11764706 0.63921569 0.14117647
v 0.04729758 0.00995764 -0.01192281 0.11764706 0.63921569 0.14117647
v 0.02463400 0.00998001 -0.01187718 0.11764706 0.63921569 0.14117647
v 0.00049524 0.00995266 -0.01193368 0.11764706 0.63921569 0.14117647
v 0.01032209 -0.01451744 -0.00530041 0.11764706 0.63921569 0.14117647
v 0.01026711 -0.01441550 -0.00530041 0.11764706 0.63921569 0.14117647
v 0.04729758 -0.01503459 -0.01194382 0.11764706 0.63921569 0.14117647
v 0.00049524 -0.01496000 -0.01204957 0.11764706 0.63921569 0.14117647
v 0.01254401 -0.01501967 -0.01196482 0.11764706 0.63921569 0.14117647
v 0.04729758 0.00995266 -0.01193295 0.11764706 0.63921569 0.14117647
v 0.01231952 0.00993277 -0.01196482 0.11764706 0.63921569 0.14117647
v 0.00049524 0.00987310 -0.01204957 0.11764706 0.63921569 0.14117647
v 0.04729758 0.00994769 -0.01194237 0.11764706 0.63921569 0.14117647
v 0.04729758 0.00994272 -0.01195106 0.11764706 0.63921569 0.14117647
v 0.03762650 -0.01490530 -0.01212779 0.11764706 0.63921569 0.14117647
v 0.04729758 -0.01490779 -0.01212417 0.11764706 0.63921569 0.14117647
v 0.01254401 -0.01490530 -0.01212779 0.11764706 0.63921569 0.14117647
v 0.00049524 -0.01488541 -0.01215387 0.11764706 0.63921569 0.14117647
v 0.01231952 0.00981840 -0.01212779 0.11764706 0.63921569 0.14117647
v 0.00049524 0.00979603 -0.01215821 0.11764706 0.63921569 0.14117647
v 0.04729758 0.00979603 -0.01215894 0.11764706 0.63921569 0.14117647
v 0.03695305 0.00981840 -0.01212779 0.11764706 0.63921569 0.14117647
v 0.04729758 -0.01488541 -0.01215532 0.11764706 0.63921569 0.14117647
v 0.01254401 -0.01488541 -0.01215532 0.11764706 0.63921569 0.14117647
v 0.00049524 -0.01479342 -0.01224803 0.11764706 0.63921569 0.14117647
v 0.01254401 -0.01486304 -0.01217849 0.11764706 0.63921569 0.14117647
v 0.01231952 0.00979851 -0.01215532 0.11764706 0.63921569 0.14117647
v 0.00049524 0.00960707 -0.01234509 0.11764706 0.63921569 0.14117647
v 0.01231952 0.00977614 -0.01217849 0.11764706 0.63921569 0.14117647
v 0.01231952 0.00961204 -0.01234291 0.11764706 0.63921569 0.14117647
v 0.04729758 0.00961453 -0.01233929 0.11764706 0.63921569 0.14117647
v 0.03695305 0.00961204 -0.01234291 0.11764706 0.63921569 0.14117647
v 0.04729758 -0.01487050 -0.01217125 0.11764706 0.63921569 0.14117647
v 0.00049524 -0.01469894 -0.01234219 0.11764706 0.63921569 0.14117647
v 0.01254401 -0.01469894 -0.01234291 0.11764706 0.63921569 0.14117647
v 0.00049524 0.00939325 -0.01249574 0.11764706 0.63921569 0.14117647
v 0.01231952 0.00958469 -0.01236247 0.11764706 0.63921569 0.14117647
v 0.04729758 0.00960707 -0.01234581 0.11764706 0.63921569 0.14117647
v 0.03695305 0.00958469 -0.01236247 0.11764706 0.63921569 0.14117647
v 0.03762650 -0.01469894 -0.01234291 0.11764706 0.63921569 0.14117647
v 0.04729758 -0.01470391 -0.01233784 0.11764706 0.63921569 0.14117647
v 0.00049524 -0.01448015 -0.01249574 0.11764706 0.63921569 0.14117647
v 0.01254401 -0.01467159 -0.01236247 0.11764706 0.63921569 0.14117647
v 0.01231952 0.00930374 -0.01253775 0.11764706 0.63921569 0.14117647
v 0.00049524 0.00915705 -0.01260584 0.11764706 0.63921569 0.14117647
v 0.03695305 0.00939325 -0.01249574 0.11764706 0.63921569 0.14117647
v 0.04729758 0.00939822 -0.01249212 0.11764706 0.63921569 0.14117647
v 0.03762650 -0.01467159 -0.01236247 0.11764706 0.63921569 0.14117647
v 0.04729758 -0.01469148 -0.01234726 0.11764706 0.63921569 0.14117647
v 0.00049524 -0.01424395 -0.01260584 0.11764706 0.63921569 0.14117647
v 0.01254401 -0.01439064 -0.01253775 0.11764706 0.63921569 0.14117647
v 0.03762650 -0.01448015 -0.01249574 0.11764706 0.63921569 0.14117647
v 0.04729758 -0.01448761 -0.01249140 0.11764706 0.63921569 0.14117647
v 0.03695305 0.00924407 -0.01256528 0.11764706 0.63921569 0.14117647
v 0.03695305 0.00915208 -0.01260801 0.11764706 0.63921569 0.14117647
v 0.00049524 0.00914959 -0.01260874 0.11764706 0.63921569 0.14117647
v 0.01231952 0.00915208 -0.01260801 0.11764706 0.63921569 0.14117647
v 0.04729758 0.00938828 -0.01249792 0.11764706 0.63921569 0.14117647
v 0.00049524 -0.01423649 -0.01260874 0.11764706 0.63921569 0.14117647
v 0.01254401 -0.01423898 -0.01260801 0.11764706 0.63921569 0.14117647
v 0.04729758 -0.01423898 -0.01260801 0.11764706 0.63921569 0.14117647
v 0.03762650 -0.01433097 -0.01256528 0.11764706 0.63921569 0.14117647
v 0.04729758 -0.01444534 -0.01251168 0.11764706 0.63921569 0.14117647
v 0.04729758 -0.01447269 -0.01249864 0.11764706 0.63921569 0.14117647
v 0.04729758 0.00916700 -0.01260077 0.11764706 0.63921569 0.14117647
v 0.04729758 0.00915705 -0.01260512 0.11764706 0.63921569 0.14117647
v 0.04729758 0.00914710 -0.01260874 0.11764706 0.63921569 0.14117647
v 0.04729758 0.00913716 -0.01261163 0.11764706 0.63921569 0.14117647
v 0.04729758 0.00890096 -0.01267537 0.11764706 0.63921569 0.14117647
v 0.03695305 0.00892831 -0.01266813 0.11764706 0.63921569 0.14117647
v 0.00049524 0.00889102 -0.01267682 0.11764706 0.63921569 0.14117647
v 0.02463400 0.00889599 -0.01267682 0.11764706 0.63921569 0.14117647
v 0.01231952 0.00889599 -0.01267682 0.11764706 0.63921569 0.14117647
v 0.00049524 -0.01411218 -0.01264205 0.11764706 0.63921569 0.14117647
v 0.01254401 -0.01398289 -0.01267682 0.11764706 0.63921569 0.14117647
v 0.02508296 -0.01398289 -0.01267682 0.11764706 0.63921569 0.14117647
v 0.03762650 -0.01401521 -0.01266813 0.11764706 0.63921569 0.14117647
v 0.04729758 -0.01402018 -0.01266668 0.11764706 0.63921569 0.14117647
v 0.04729758 0.00889102 -0.01267682 0.11764706 0.63921569 0.14117647
v 0.00049524 0.00875924 -0.01268841 0.11764706 0.63921569 0.14117647
v 0.01231952 0.00886367 -0.01267972 0.11764706 0.63921569 0.14117647
v 0.03695305 0.00886367 -0.01267972 0.11764706 0.63921569 0.14117647
v 0.00049524 -0.01398289 -0.01267610 0.11764706 0.63921569 0.14117647
v 0.01254401 -0.01395057 -0.01267972 0.11764706 0.63921569 0.14117647
v 0.03762650 -0.01395057 -0.01267972 0.11764706 0.63921569 0.14117647
v 0.04729758 -0.01398289 -0.01267610 0.11764706 0.63921569 0.14117647
v 0.04729758 -0.01399035 -0.01267465 0.11764706 0.63921569 0.14117647
v 0.04729758 0.00863244 -0.01269928 0.11764706 0.63921569 0.14117647
v 0.00049524 0.00863244 -0.01269928 0.11764706 0.63921569 0.14117647
v 0.01231952 0.00872941 -0.01269131 0.11764706 0.63921569 0.14117647
v 0.03695305 0.00879654 -0.01268551 0.11764706 0.63921569 0.14117647
v 0.00049524 -0.01371934 -0.01269928 0.11764706 0.63921569 0.14117647
v 0.01254401 -0.01381631 -0.01269131 0.11764706 0.63921569 0.14117647
v 0.04729758 -0.01372680 -0.01269928 0.11764706 0.63921569 0.14117647
v 0.04729758 -0.01396051 -0.01267827 0.11764706 0.63921569 0.14117647
f 1 2 5
f 1 5 19
f 1 19 48
f 1 48 78
f 1 78 98
f 1 98 113
f 1 113 122
f 1 122 131
f 1 131 138
f 1 138 148
f 1 148 156
f 1 156 164
f 1 164 168
f 1 168 179
f 1 179 178
f 1 178 176
f 1 176 193
f 1 193 202
f 1 202 201
f 1 201 210
f 1 210 209
f 1 209 203
f 1 203 194
f 1 194 184
f 1 184 183
f 1 183 182
f 1 182 181
f 1 181 180
f 1 180 173
f 1 173 162
f 1 162 153
f 1 153 146
f 1 146 136
f 1 136 129
f 1 129 128
f 1 128 125
f 1 125 117
f 1 117 106
f 1 106 87
f 1 87 60
f 1 60 26
f 1 26 7
f 1 7 3
f 1 3 8
f 1 8 28
f 1 28 29
f 1 29 9
f 1 9 4
f 1 4 16
f 1 16 31
f 1 31 64
f 1 64 77
f 1 77 76
f 1 76 75
f 1 75 74
f 1 74 73
f 1 73 72
f 1 72 71
f 1 71 70
f 1 70 69
f 1 69 68
f 1 68 67
f 1 67 66
f 1 66 97
f 1 97 96
f 1 96 95
f 1 95 94
f 1 94 93
f 1 93 92
f 1 92 91
f 1 91 112
f 1 112 121
f 1 121 120
f 1 120 116
f 1 116 115
f 1 115 102
f 1 102 83
f 1 83 53
f 1 53 21
f 1 21 6
f 1 6 2
f 2 6 25
f 2 25 51
f 2 51 20
f 2 20 5
f 3 7 8
f 4 9 10
f 4 10 11
f 4 11 12
f 4 12 13
f 4 13 14
f 4 14 15
f 4 15 16
f 5 17 18
f 5 18 19
f 5 20 17
f 6 21 22
f 6 22 23
f 6 23 24
f 6 24 25
f 7 26 27
f 7 27 8
f 8 27 28
f 9 29 63
f 9 63 62
f 9 62 61
f 9 61 89
f 9 89 110
f 9 110 109
f 9 109 119
f 9 119 127
f 9 127 135
f 9 135 143
f 9 143 151
f 9 151 160
f 9 160 171
f 9 171 186
f 9 186 195
f 9 195 204
f 9 204 207
f 9 207 198
f 9 198 189
f 9 189 174
f 9 174 165
f 9 165 157
f 9 157 149
f 9 149 140
f 9 140 133
f 9 133 123
f 9 123 114
f 9 114 101
f 9 101 99
f 9 99 79
f 9 79 50
f 9 50 49
f 9 49 52
f 9 52 51
f 9 51 25
f 9 25 24
f 9 24 23
f 9 23 22
f 9 22 59
f 9 59 58
f 9 58 57
f 9 57 56
f 9 56 55
f 9 55 54
f 9 54 86
f 9 86 85
f 9 85 84
f 9 84 105
f 9 105 104
f 9 104 103
f 9 103 111
f 9 111 90
f 9 90 65
f 9 65 47
f 9 47 46
f 9 46 45
f 9 45 44
f 9 44 43
f 9 43 42
f 9 42 41
f 9 41 40
f 9 40 39
f 9 39 38
f 9 38 37
f 9 37 36
f 9 36 35
f 9 35 34
f 9 34 33
f 9 33 32
f 9 32 30
f 9 30 15
f 9 15 14
f 9 14 13
f 9 13 12
f 9 12 11
f 9 11 10
f 15 30 16
f 16 30 32
f 16 32 33
f 16 33 34
f 16 34 35
f 16 35 36
f 16 36 37
f 16 37 38
f 16 38 39
f 16 39 40
f 16 40 41
f 16 41 42
f 16 42 43
f 16 43 44
f 16 44 45
f 16 45 46
f 16 46 47
f 16 47 31
f 17 48 19
f 17 19 18
f 17 20 49
f 17 49 50
f 17 50 48
f 20 51 52
f 20 52 49
f 21 53 54
f 21 54 55
f 21 55 56
f 21 56 57
f 21 57 58
f 21 58 59
f 21 59 22
f 26 60 61
f 26 61 27
f 27 61 62
f 27 62 28
f 28 62 63
f 28 63 29
f 31 47 64
f 47 65 97
f 47 97 66
f 47 66 67
f 47 67 68
f 47 68 69
f 47 69 70
f 47 70 71
f 47 71 72
f 47 72 73
f 47 73 74
f 47 74 75
f 47 75 76
f 47 76 77
f 47 77 64
f 48 50 78
f 50 79 80
f 50 80 81
f 50 81 82
f 50 82 78
f 53 83 84
f 53 84 85
f 53 85 86
f 53 86 54
f 60 87 61
f 61 88 89
f 61 87 88
f 65 90 91
f 65 91 92
f 65 92 93
f 65 93 94
f 65 94 95
f 65 95 96
f 65 96 97
f 78 82 98
f 79 99 80
f 80 100 98
f 80 98 82
f 80 82 81
f 80 99 101
f 80 101 100
f 83 102 103
f 83 103 104
f 83 104 105
f 83 105 84
f 87 106 107
f 87 107 88
f 88 108 109
f 88 109 110
f 88 110 89
f 88 107 108
f 90 111 91
f 91 111 112
f 98 100 113
f 100 101 113
f 101 114 113
f 102 115 103
f 103 115 116
f 103 116 111
f 106 117 118
f 106 118 107
f 107 118 108
f 108 118 109
f 109 118 119
f 111 116 120
f 111 120 121
f 111 121 112
f 113 114 122
f 114 123 124
f 114 124 122
f 117 125 119
f 117 119 118
f 119 126 127
f 119 125 128
f 119 128 129
f 119 129 126
f 122 130 131
f 122 124 132
f 122 132 130
f 123 133 132
f 123 132 124
f 126 134 127
f 126 129 134
f 127 134 135
f 129 136 137
f 129 137 134
f 130 138 131
f 130 132 139
f 130 139 138
f 132 133 139
f 133 140 141
f 133 141 139
f 134 142 135
f 134 137 136
f 134 136 142
f 135 142 136
f 135 136 144
f 135 144 145
f 135 145 143
f 136 146 147
f 136 147 145
f 136 145 144
f 138 139 148
f 139 141 148
f 140 149 150
f 140 150 141
f 141 150 148
f 143 145 152
f 143 152 151
f 145 147 154
f 145 154 152
f 146 153 147
f 147 153 154
f 148 150 155
f 148 155 156
f 149 157 158
f 149 158 150
f 150 158 163
f 150 163 155
f 151 159 160
f 151 152 154
f 151 154 161
f 151 161 159
f 153 162 154
f 154 162 161
f 155 163 164
f 155 164 156
f 157 165 166
f 157 166 167
f 157 167 168
f 157 168 158
f 158 168 163
f 159 161 169
f 159 169 170
f 159 170 160
f 160 170 172
f 160 172 171
f 161 162 173
f 161 173 169
f 163 168 164
f 165 174 175
f 165 175 176
f 165 176 166
f 166 176 177
f 166 177 167
f 167 177 176
f 167 176 178
f 167 178 179
f 167 179 168
f 169 173 180
f 169 180 170
f 170 180 181
f 170 181 182
f 170 182 183
f 170 183 184
f 170 184 185
f 170 185 171
f 170 171 172
f 171 185 187
f 171 187 188
f 171 188 186
f 174 189 190
f 174 190 191
f 174 191 192
f 174 192 176
f 174 176 175
f 176 192 193
f 184 194 187
f 184 187 185
f 186 188 196
f 186 196 195
f 187 194 197
f 187 197 196
f 187 196 188
f 189 198 190
f 190 199 200
f 190 200 191
f 190 198 199
f 191 200 201
f 191 201 202
f 191 202 192
f 192 202 193
f 194 203 197
f 195 196 205
f 195 205 204
f 196 197 206
f 196 206 205
f 197 203 206
f 198 207 199
f 199 207 208
f 199 208 209
f 199 209 200
f 200 209 210
f 200 210 201
f 203 209 207
f 203 207 204
f 203 204 205
f 203 205 206
f 207 209 208