# https://github.com/mikedh/trimesh
v 0.07618216 0.01059448 0.01117592 0.56470588 0.92549020 0.07058824
v 0.07618216 0.01059448 -0.01117589 0.56470588 0.92549020 0.07058824
v 0.07616519 0.01059448 0.01138974 0.56470588 0.92549020 0.07058824
v 0.07617933 0.01054895 0.01117592 0.56470588 0.92549020 0.07058824
v 0.07617933 0.01059448 -0.01122810 0.56470588 0.92549020 0.07058824
v 0.07617933 0.01054895 -0.01117589 0.56470588 0.92549020 0.07058824
v 0.07615954 0.01059448 0.01143947 0.56470588 0.92549020 0.07058824
v 0.07615671 0.01055148 0.01143947 0.56470588 0.92549020 0.07058824
v 0.07610299 0.01032383 0.01143947 0.56470588 0.92549020 0.07058824
v 0.07612278 0.01031624 0.01117592 0.56470588 0.92549020 0.07058824
v 0.07615671 0.01055148 -0.01143944 0.56470588 0.92549020 0.07058824
v 0.07615954 0.01059448 -0.01143944 0.56470588 0.92549020 0.07058824
v 0.07612278 0.01031624 -0.01117589 0.56470588 0.92549020 0.07058824
v 0.07610299 0.01032383 -0.01143944 0.56470588 0.92549020 0.07058824
v 0.07610299 0.01059448 0.01165826 0.56470588 0.92549020 0.07058824
v 0.07608885 0.01056159 0.01169555 0.56470588 0.92549020 0.07058824
v 0.07603795 0.01034406 0.01169555 0.56470588 0.92549020 0.07058824
v 0.07601250 0.01010630 0.01143947 0.56470588 0.92549020 0.07058824
v 0.07603229 0.01009365 0.01117592 0.56470588 0.92549020 0.07058824
v 0.07614823 0.01059448 -0.01148668 0.56470588 0.92549020 0.07058824
v 0.07603795 0.01034406 -0.01169552 0.56470588 0.92549020 0.07058824
v 0.07608885 0.01056159 -0.01169552 0.56470588 0.92549020 0.07058824
v 0.07603229 0.01009365 -0.01117589 0.56470588 0.92549020 0.07058824
v 0.07601250 0.01010630 -0.01143944 0.56470588 0.92549020 0.07058824
v 0.07609168 0.01059448 0.01169555 0.56470588 0.92549020 0.07058824
v 0.07597857 0.01057930 0.01193673 0.56470588 0.92549020 0.07058824
v 0.07593050 0.01037948 0.01193673 0.56470588 0.92549020 0.07058824
v 0.07585132 0.01018724 0.01193673 0.56470588 0.92549020 0.07058824
v 0.07595029 0.01013665 0.01169555 0.56470588 0.92549020 0.07058824
v 0.07583436 0.00994442 0.01169555 0.56470588 0.92549020 0.07058824
v 0.07588808 0.00990395 0.01143947 0.56470588 0.92549020 0.07058824
v 0.07590788 0.00989130 0.01117592 0.56470588 0.92549020 0.07058824
v 0.07609168 0.01059448 -0.01169552 0.56470588 0.92549020 0.07058824
v 0.07595029 0.01013665 -0.01169552 0.56470588 0.92549020 0.07058824
v 0.07585132 0.01018724 -0.01193670 0.56470588 0.92549020 0.07058824
v 0.07593050 0.01037948 -0.01193670 0.56470588 0.92549020 0.07058824
v 0.07597857 0.01057930 -0.01193670 0.56470588 0.92549020 0.07058824
v 0.07607471 0.01059448 -0.01173282 0.56470588 0.92549020 0.07058824
v 0.07590788 0.00989130 -0.01117589 0.56470588 0.92549020 0.07058824
v 0.07588808 0.00990395 -0.01143944 0.56470588 0.92549020 0.07058824
v 0.07583436 0.00994442 -0.01169552 0.56470588 0.92549020 0.07058824
v 0.07598705 0.01059448 0.01191932 0.56470588 0.92549020 0.07058824
v 0.07597857 0.01059448 0.01193673 0.56470588 0.92549020 0.07058824
v 0.07587960 0.01059448 0.01208093 0.56470588 0.92549020 0.07058824
v 0.07578629 0.01042501 0.01215552 0.56470588 0.92549020 0.07058824
v 0.07571559 0.01025554 0.01215552 0.56470588 0.92549020 0.07058824
v 0.07574104 0.01001018 0.01193673 0.56470588 0.92549020 0.07058824
v 0.07560814 0.00985336 0.01193673 0.56470588 0.92549020 0.07058824
v 0.07568732 0.00977495 0.01169555 0.56470588 0.92549020 0.07058824
v 0.07573539 0.00972436 0.01143947 0.56470588 0.92549020 0.07058824
v 0.07575236 0.00970918 0.01117592 0.56470588 0.92549020 0.07058824
v 0.07574104 0.01001018 -0.01193670 0.56470588 0.92549020 0.07058824
v 0.07571559 0.01025554 -0.01215549 0.56470588 0.92549020 0.07058824
v 0.07578629 0.01042501 -0.01215549 0.56470588 0.92549020 0.07058824
v 0.07587960 0.01059448 -0.01208090 0.56470588 0.92549020 0.07058824
v 0.07596726 0.01059448 -0.01195410 0.56470588 0.92549020 0.07058824
v 0.07597857 0.01059448 -0.01193670 0.56470588 0.92549020 0.07058824
v 0.07575236 0.00970918 -0.01117589 0.56470588 0.92549020 0.07058824
v 0.07573539 0.00972436 -0.01143944 0.56470588 0.92549020 0.07058824
v 0.07568732 0.00977495 -0.01169552 0.56470588 0.92549020 0.07058824
v 0.07560814 0.00985336 -0.01193670 0.56470588 0.92549020 0.07058824
v 0.07582588 0.01059448 0.01215552 0.56470588 0.92549020 0.07058824
v 0.07563359 0.01059448 0.01234199 0.56470588 0.92549020 0.07058824
v 0.07560532 0.01048318 0.01234199 0.56470588 0.92549020 0.07058824
v 0.07554876 0.01034154 0.01234199 0.56470588 0.92549020 0.07058824
v 0.07561946 0.01010124 0.01215552 0.56470588 0.92549020 0.07058824
v 0.06955978 0.00364619 0.01169555 0.56470588 0.92549020 0.07058824
v 0.07550069 0.00996212 0.01215552 0.56470588 0.92549020 0.07058824
v 0.06945515 0.00375242 0.01199142 0.56470588 0.92549020 0.07058824
v 0.05723116 -0.00852533 0.01193673 0.56470588 0.92549020 0.07058824
v 0.05725095 -0.00854556 0.01187706 0.56470588 0.92549020 0.07058824
v 0.06962198 0.00358548 0.01124056 0.56470588 0.92549020 0.07058824
v 0.05734710 -0.00864168 0.01150411 0.56470588 0.92549020 0.07058824
v 0.05123086 -0.01478056 0.01143947 0.56470588 0.92549020 0.07058824
v 0.05737537 -0.00866951 0.01117592 0.56470588 0.92549020 0.07058824
v 0.07561946 0.01010124 -0.01215549 0.56470588 0.92549020 0.07058824
v 0.07554876 0.01034154 -0.01234196 0.56470588 0.92549020 0.07058824
v 0.07560532 0.01048318 -0.01234196 0.56470588 0.92549020 0.07058824
v 0.07563359 0.01059448 -0.01234196 0.56470588 0.92549020 0.07058824
v 0.07582588 0.01059448 -0.01215549 0.56470588 0.92549020 0.07058824
v 0.06962198 0.00358548 -0.01124053 0.56470588 0.92549020 0.07058824
v 0.05737537 -0.00866951 -0.01117589 0.56470588 0.92549020 0.07058824
v 0.06955978 0.00364619 -0.01169552 0.56470588 0.92549020 0.07058824
v 0.05123086 -0.01478056 -0.01143944 0.56470588 0.92549020 0.07058824
v 0.05734710 -0.00864168 -0.01150408 0.56470588 0.92549020 0.07058824
v 0.06945515 0.00375242 -0.01199139 0.56470588 0.92549020 0.07058824
v 0.07550069 0.00996212 -0.01215549 0.56470588 0.92549020 0.07058824
v 0.05725095 -0.00854556 -0.01187702 0.56470588 0.92549020 0.07058824
v 0.05723116 -0.00852533 -0.01193670 0.56470588 0.92549020 0.07058824
v 0.07553180 0.01059448 0.01241161 0.56470588 0.92549020 0.07058824
v 0.07539890 0.01055148 0.01249366 0.56470588 0.92549020 0.07058824
v 0.07535366 0.01044018 0.01249366 0.56470588 0.92549020 0.07058824
v 0.07529145 0.01033901 0.01249366 0.56470588 0.92549020 0.07058824
v 0.07546676 0.01021001 0.01234199 0.56470588 0.92549020 0.07058824
v 0.07536779 0.01009365 0.01234199 0.56470588 0.92549020 0.07058824
v 0.05731034 -0.00860374 0.01169555 0.56470588 0.92549020 0.07058824
v 0.06937315 0.00383337 0.01215552 0.56470588 0.92549020 0.07058824
v 0.05712371 -0.00841656 0.01215552 0.56470588 0.92549020 0.07058824
v 0.05110362 -0.01465156 0.01193673 0.56470588 0.92549020 0.07058824
v 0.05118279 -0.01472997 0.01169555 0.56470588 0.92549020 0.07058824
v 0.05101313 -0.01487668 0.01169555 0.56470588 0.92549020 0.07058824
v 0.05105272 -0.01493232 0.01143947 0.56470588 0.92549020 0.07058824
v 0.05106686 -0.01495003 0.01117592 0.56470588 0.92549020 0.07058824
v 0.05124783 -0.01479573 0.01117592 0.56470588 0.92549020 0.07058824
v 0.07536779 0.01009365 -0.01234196 0.56470588 0.92549020 0.07058824
v 0.07546676 0.01021001 -0.01234196 0.56470588 0.92549020 0.07058824
v 0.07529145 0.01033901 -0.01249363 0.56470588 0.92549020 0.07058824
v 0.07535366 0.01044018 -0.01249363 0.56470588 0.92549020 0.07058824
v 0.07539890 0.01055148 -0.01249363 0.56470588 0.92549020 0.07058824
v 0.07541021 0.01059448 -0.01249363 0.56470588 0.92549020 0.07058824
v 0.05124783 -0.01479573 -0.01117589 0.56470588 0.92549020 0.07058824
v 0.05731034 -0.00860374 -0.01169552 0.56470588 0.92549020 0.07058824
v 0.05106686 -0.01495003 -0.01117589 0.56470588 0.92549020 0.07058824
v 0.05105272 -0.01493232 -0.01143944 0.56470588 0.92549020 0.07058824
v 0.05101313 -0.01487668 -0.01169552 0.56470588 0.92549020 0.07058824
v 0.05118279 -0.01472997 -0.01169552 0.56470588 0.92549020 0.07058824
v 0.06937315 0.00383337 -0.01215549 0.56470588 0.92549020 0.07058824
v 0.05712371 -0.00841656 -0.01215549 0.56470588 0.92549020 0.07058824
v 0.05110362 -0.01465156 -0.01193670 0.56470588 0.92549020 0.07058824
v 0.07541021 0.01059448 0.01249366 0.56470588 0.92549020 0.07058824
v 0.07526317 0.01059448 0.01256079 0.56470588 0.92549020 0.07058824
v 0.07515855 0.01059448 0.01260803 0.56470588 0.92549020 0.07058824
v 0.07513875 0.01054895 0.01260803 0.56470588 0.92549020 0.07058824
v 0.07509634 0.01048065 0.01260803 0.56470588 0.92549020 0.07058824
v 0.07504261 0.01041742 0.01260803 0.56470588 0.92549020 0.07058824
v 0.07521227 0.01024795 0.01249366 0.56470588 0.92549020 0.07058824
v 0.06912431 0.00408125 0.01245636 0.56470588 0.92549020 0.07058824
v 0.06303636 -0.00208292 0.01241907 0.56470588 0.92549020 0.07058824
v 0.05699081 -0.00828503 0.01234199 0.56470588 0.92549020 0.07058824
v 0.05099616 -0.01454279 0.01215552 0.56470588 0.92549020 0.07058824
v 0.05085761 -0.01466168 0.01215552 0.56470588 0.92549020 0.07058824
v 0.05094527 -0.01478562 0.01193673 0.56470588 0.92549020 0.07058824
v 0.05076995 -0.01489438 0.01193673 0.56470588 0.92549020 0.07058824
v 0.05082085 -0.01499303 0.01169555 0.56470588 0.92549020 0.07058824
v 0.05085195 -0.01505626 0.01143947 0.56470588 0.92549020 0.07058824
v 0.05086326 -0.01507650 0.01117592 0.56470588 0.92549020 0.07058824
v 0.05115734 -0.01487415 0.00000002 0.56470588 0.92549020 0.07058824
v 0.06912431 0.00408125 -0.01245633 0.56470588 0.92549020 0.07058824
v 0.07521227 0.01024795 -0.01249363 0.56470588 0.92549020 0.07058824
v 0.05699081 -0.00828503 -0.01234196 0.56470588 0.92549020 0.07058824
v 0.06303636 -0.00208292 -0.01241904 0.56470588 0.92549020 0.07058824
v 0.07504261 0.01041742 -0.01260800 0.56470588 0.92549020 0.07058824
v 0.07509634 0.01048065 -0.01260800 0.56470588 0.92549020 0.07058824
v 0.07513875 0.01054895 -0.01260800 0.56470588 0.92549020 0.07058824
v 0.07515855 0.01059448 -0.01260800 0.56470588 0.92549020 0.07058824
v 0.07526317 0.01059448 -0.01256076 0.56470588 0.92549020 0.07058824
v 0.07533952 0.01059448 -0.01252595 0.56470588 0.92549020 0.07058824
v 0.05086326 -0.01507650 -0.01117589 0.56470588 0.92549020 0.07058824
v 0.05085195 -0.01505626 -0.01143944 0.56470588 0.92549020 0.07058824
v 0.05082085 -0.01499303 -0.01169552 0.56470588 0.92549020 0.07058824
v 0.05076995 -0.01489438 -0.01193670 0.56470588 0.92549020 0.07058824
v 0.05094527 -0.01478562 -0.01193670 0.56470588 0.92549020 0.07058824
v 0.05099616 -0.01454279 -0.01215549 0.56470588 0.92549020 0.07058824
v 0.05085761 -0.01466168 -0.01215549 0.56470588 0.92549020 0.07058824
v 0.07493799 0.01059448 0.01266024 0.56470588 0.92549020 0.07058824
v 0.06904514 0.00416472 0.01252349 0.56470588 0.92549020 0.07058824
v 0.07486447 0.01059448 0.01267516 0.56470588 0.92549020 0.07058824
v 0.05053808 -0.01408750 0.01260803 0.56470588 0.92549020 0.07058824
v 0.06908755 0.00412172 0.01249366 0.56470588 0.92549020 0.07058824
v 0.06296001 -0.00200704 0.01249366 0.56470588 0.92549020 0.07058824
v 0.05687488 -0.00816868 0.01245636 0.56470588 0.92549020 0.07058824
v 0.05086326 -0.01441126 0.01234199 0.56470588 0.92549020 0.07058824
v 0.05074733 -0.01450991 0.01234199 0.56470588 0.92549020 0.07058824
v 0.05061443 -0.01459085 0.01234199 0.56470588 0.92549020 0.07058824
v 0.05069926 -0.01475779 0.01215552 0.56470588 0.92549020 0.07058824
v 0.05052960 -0.01482862 0.01215552 0.56470588 0.92549020 0.07058824
v 0.05057767 -0.01497279 0.01193673 0.56470588 0.92549020 0.07058824
v 0.05061160 -0.01507903 0.01169555 0.56470588 0.92549020 0.07058824
v 0.05063422 -0.01514479 0.01143947 0.56470588 0.92549020 0.07058824
v 0.05063988 -0.01516756 0.01117592 0.56470588 0.92549020 0.07058824
v 0.05075298 -0.01512203 0.00000002 0.56470588 0.92549020 0.07058824
v 0.06908755 0.00412172 -0.01249363 0.56470588 0.92549020 0.07058824
v 0.05687488 -0.00816868 -0.01245633 0.56470588 0.92549020 0.07058824
v 0.06296001 -0.00200704 -0.01249363 0.56470588 0.92549020 0.07058824
v 0.06904514 0.00416472 -0.01252346 0.56470588 0.92549020 0.07058824
v 0.05086326 -0.01441126 -0.01234196 0.56470588 0.92549020 0.07058824
v 0.07486447 0.01059448 -0.01267513 0.56470588 0.92549020 0.07058824
v 0.07491537 0.01059448 -0.01266518 0.56470588 0.92549020 0.07058824
v 0.05053808 -0.01408750 -0.01260800 0.56470588 0.92549020 0.07058824
v 0.07493799 0.01059448 -0.01266021 0.56470588 0.92549020 0.07058824
v 0.07507654 0.01059448 -0.01262789 0.56470588 0.92549020 0.07058824
v 0.05063988 -0.01516756 -0.01117589 0.56470588 0.92549020 0.07058824
v 0.05063422 -0.01514479 -0.01143944 0.56470588 0.92549020 0.07058824
v 0.05061160 -0.01507903 -0.01169552 0.56470588 0.92549020 0.07058824
v 0.05057767 -0.01497279 -0.01193670 0.56470588 0.92549020 0.07058824
v 0.05052960 -0.01482862 -0.01215549 0.56470588 0.92549020 0.07058824
v 0.05069926 -0.01475779 -0.01215549 0.56470588 0.92549020 0.07058824
v 0.05061443 -0.01459085 -0.01234196 0.56470588 0.92549020 0.07058824
v 0.05074733 -0.01450991 -0.01234196 0.56470588 0.92549020 0.07058824
v 0.05679287 -0.00808774 0.01252349 0.56470588 0.92549020 0.07058824
v 0.07448556 0.01059448 0.01269753 0.56470588 0.92549020 0.07058824
v 0.06854747 0.00466048 0.01270002 0.56470588 0.92549020 0.07058824
v 0.06868885 0.00451884 0.01268262 0.56470588 0.92549020 0.07058824
v 0.05643659 -0.00773109 0.01268262 0.56470588 0.92549020 0.07058824
v 0.05035711 -0.01390538 0.01267516 0.56470588 0.92549020 0.07058824
v 0.05032601 -0.01393321 0.01267516 0.56470588 0.92549020 0.07058824
v 0.05047587 -0.01414062 0.01260803 0.56470588 0.92549020 0.07058824
v 0.05061726 -0.01433538 0.01249366 0.56470588 0.92549020 0.07058824
v 0.05070774 -0.01425697 0.01249366 0.56470588 0.92549020 0.07058824
v 0.05683529 -0.00813074 0.01249366 0.56470588 0.92549020 0.07058824
v 0.05051546 -0.01439609 0.01249366 0.56470588 0.92549020 0.07058824
v 0.05040518 -0.01444415 0.01249366 0.56470588 0.92549020 0.07058824
v 0.05047305 -0.01464903 0.01234199 0.56470588 0.92549020 0.07058824
v 0.05032318 -0.01468697 0.01234199 0.56470588 0.92549020 0.07058824
v 0.05035146 -0.01487162 0.01215552 0.56470588 0.92549020 0.07058824
v 0.05037691 -0.01502085 0.01193673 0.56470588 0.92549020 0.07058824
v 0.05039387 -0.01513215 0.01169555 0.56470588 0.92549020 0.07058824
v 0.05040518 -0.01520044 0.01143947 0.56470588 0.92549020 0.07058824
v 0.05040801 -0.01522320 0.01117592 0.56470588 0.92549020 0.07058824
v 0.05070774 -0.01425697 -0.01249363 0.56470588 0.92549020 0.07058824
v 0.05683529 -0.00813074 -0.01249363 0.56470588 0.92549020 0.07058824
v 0.05679287 -0.00808774 -0.01252346 0.56470588 0.92549020 0.07058824
v 0.05061726 -0.01433538 -0.01249363 0.56470588 0.92549020 0.07058824
v 0.05643659 -0.00773109 -0.01268258 0.56470588 0.92549020 0.07058824
v 0.06868885 0.00451884 -0.01268258 0.56470588 0.92549020 0.07058824
v 0.07448273 0.01059448 -0.01269750 0.56470588 0.92549020 0.07058824
v 0.05035711 -0.01390538 -0.01267513 0.56470588 0.92549020 0.07058824
v 0.05047587 -0.01414062 -0.01260800 0.56470588 0.92549020 0.07058824
v 0.05032601 -0.01393321 -0.01267513 0.56470588 0.92549020 0.07058824
v 0.05040801 -0.01522320 -0.01117589 0.56470588 0.92549020 0.07058824
v 0.05040518 -0.01520044 -0.01143944 0.56470588 0.92549020 0.07058824
v 0.05039387 -0.01513215 -0.01169552 0.56470588 0.92549020 0.07058824
v 0.05037691 -0.01502085 -0.01193670 0.56470588 0.92549020 0.07058824
v 0.05035146 -0.01487162 -0.01215549 0.56470588 0.92549020 0.07058824
v 0.05047305 -0.01464903 -0.01234196 0.56470588 0.92549020 0.07058824
v 0.05032318 -0.01468697 -0.01234196 0.56470588 0.92549020 0.07058824
v 0.05040518 -0.01444415 -0.01249363 0.56470588 0.92549020 0.07058824
v 0.05051546 -0.01439609 -0.01249363 0.56470588 0.92549020 0.07058824
v 0.07054663 0.01059448 0.01270002 0.56470588 0.92549020 0.07058824
v 0.06314098 0.01025301 0.01270002 0.56470588 0.92549020 0.07058824
v 0.04729758 -0.01372579 0.01269753 0.56470588 0.92549020 0.07058824
v 0.05017049 -0.01371821 0.01269753 0.56470588 0.92549020 0.07058824
v 0.05028925 -0.01395344 0.01267516 0.56470588 0.92549020 0.07058824
v 0.05040801 -0.01418362 0.01260803 0.56470588 0.92549020 0.07058824
v 0.05033166 -0.01421397 0.01260803 0.56470588 0.92549020 0.07058824
v 0.05025249 -0.01423421 0.01260803 0.56470588 0.92549020 0.07058824
v 0.05028925 -0.01447197 0.01249366 0.56470588 0.92549020 0.07058824
v 0.05017049 -0.01469709 0.01234199 0.56470588 0.92549020 0.07058824
v 0.05017049 -0.01488679 0.01215552 0.56470588 0.92549020 0.07058824
v 0.05017049 -0.01503856 0.01193673 0.56470588 0.92549020 0.07058824
v 0.05017049 -0.01514985 0.01169555 0.56470588 0.92549020 0.07058824
v 0.05017049 -0.01521815 0.01143947 0.56470588 0.92549020 0.07058824
v 0.05017049 -0.01524091 0.01117592 0.56470588 0.92549020 0.07058824
v 0.05028925 -0.01523332 0.00000002 0.56470588 0.92549020 0.07058824
v 0.05040801 -0.01418362 -0.01260800 0.56470588 0.92549020 0.07058824
v 0.05629803 -0.00759198 -0.01269750 0.56470588 0.92549020 0.07058824
v 0.05017049 -0.01371821 -0.01269750 0.56470588 0.92549020 0.07058824
v 0.06859554 0.00461242 -0.01269253 0.56470588 0.92549020 0.07058824
v 0.04729758 -0.01060450 -0.01269999 0.56470588 0.92549020 0.07058824
v 0.04729758 -0.00423798 -0.01269999 0.56470588 0.92549020 0.07058824
v 0.05212157 0.01059448 -0.01269750 0.56470588 0.92549020 0.07058824
v 0.05028925 -0.01395344 -0.01267513 0.56470588 0.92549020 0.07058824
v 0.05017049 -0.01524091 -0.01117589 0.56470588 0.92549020 0.07058824
v 0.05017049 -0.01521815 -0.01143944 0.56470588 0.92549020 0.07058824
v 0.05017049 -0.01514985 -0.01169552 0.56470588 0.92549020 0.07058824
v 0.05017049 -0.01503856 -0.01193670 0.56470588 0.92549020 0.07058824
v 0.05017049 -0.01488679 -0.01215549 0.56470588 0.92549020 0.07058824
v 0.05017049 -0.01469709 -0.01234196 0.56470588 0.92549020 0.07058824
v 0.05028925 -0.01447197 -0.01249363 0.56470588 0.92549020 0.07058824
v 0.05025249 -0.01423421 -0.01260800 0.56470588 0.92549020 0.07058824
v 0.05033166 -0.01421397 -0.01260800 0.56470588 0.92549020 0.07058824
v 0.06335305 0.01059448 0.01270002 0.56470588 0.92549020 0.07058824
v 0.04729758 0.00865695 0.01269753 0.56470588 0.92549020 0.07058824
v 0.04729758 -0.01375615 0.01269505 0.56470588 0.92549020 0.07058824
v 0.05017049 -0.01398379 0.01267516 0.56470588 0.92549020 0.07058824
v 0.05021290 -0.01397874 0.01267516 0.56470588 0.92549020 0.07058824
v 0.05025249 -0.01396862 0.01267516 0.56470588 0.92549020 0.07058824
v 0.05017049 -0.01423926 0.01260803 0.56470588 0.92549020 0.07058824
v 0.05017049 -0.01447956 0.01249366 0.56470588 0.92549020 0.07058824
v 0.04729758 -0.01451244 0.01247377 0.56470588 0.92549020 0.07058824
v 0.04729758 -0.01469203 0.01234697 0.56470588 0.92549020 0.07058824
v 0.04729758 -0.01472491 0.01231464 0.56470588 0.92549020 0.07058824
v 0.04729758 -0.01487921 0.01216049 0.56470588 0.92549020 0.07058824
v 0.04729758 -0.01488932 0.01214806 0.56470588 0.92549020 0.07058824
v 0.04729758 -0.01502591 0.01195662 0.56470588 0.92549020 0.07058824
v 0.04729758 -0.01503856 0.01193673 0.56470588 0.92549020 0.07058824
v 0.04729758 -0.01514732 0.01170301 0.56470588 0.92549020 0.07058824
v 0.04729758 -0.01515744 0.01167318 0.56470588 0.92549020 0.07058824
v 0.04729758 -0.01521815 0.01144693 0.56470588 0.92549020 0.07058824
v 0.04729758 -0.01522068 0.01143201 0.56470588 0.92549020 0.07058824
v 0.04729758 -0.01524091 0.01118338 0.56470588 0.92549020 0.07058824
v 0.05025249 -0.01396862 -0.01267513 0.56470588 0.92549020 0.07058824
v 0.05021290 -0.01397874 -0.01267513 0.56470588 0.92549020 0.07058824
v 0.05017049 -0.01398379 -0.01267513 0.56470588 0.92549020 0.07058824
v 0.04729758 -0.01375615 -0.01269502 0.56470588 0.92549020 0.07058824
v 0.04729758 -0.01372579 -0.01269750 0.56470588 0.92549020 0.07058824
v 0.04729758 0.00865695 -0.01269750 0.56470588 0.92549020 0.07058824
v 0.05183032 0.01059448 -0.01267513 0.56470588 0.92549020 0.07058824
v 0.04729758 0.00887954 -0.01267761 0.56470588 0.92549020 0.07058824
v 0.04729758 0.00890230 -0.01267513 0.56470588 0.92549020 0.07058824
v 0.04729758 -0.01524091 -0.01118335 0.56470588 0.92549020 0.07058824
v 0.04729758 -0.01522068 -0.01143198 0.56470588 0.92549020 0.07058824
v 0.04729758 -0.01521815 -0.01144689 0.56470588 0.92549020 0.07058824
v 0.04729758 -0.01515238 -0.01168807 0.56470588 0.92549020 0.07058824
v 0.04729758 -0.01514732 -0.01170298 0.56470588 0.92549020 0.07058824
v 0.04729758 -0.01504868 -0.01191681 0.56470588 0.92549020 0.07058824
v 0.04729758 -0.01503350 -0.01194415 0.56470588 0.92549020 0.07058824
v 0.04729758 -0.01502591 -0.01195659 0.56470588 0.92549020 0.07058824
v 0.04729758 -0.01488679 -0.01215549 0.56470588 0.92549020 0.07058824
v 0.05017049 -0.01447956 -0.01249363 0.56470588 0.92549020 0.07058824
v 0.04729758 -0.01469203 -0.01234693 0.56470588 0.92549020 0.07058824
v 0.04729758 -0.01451244 -0.01247374 0.56470588 0.92549020 0.07058824
v 0.05017049 -0.01423926 -0.01260800 0.56470588 0.92549020 0.07058824
v 0.05212157 0.01059448 0.01269753 0.56470588 0.92549020 0.07058824
v 0.04729758 0.00887954 0.01267764 0.56470588 0.92549020 0.07058824
v 0.04729758 -0.01396103 0.01267764 0.56470588 0.92549020 0.07058824
v 0.04729758 -0.01398379 0.01267516 0.56470588 0.92549020 0.07058824
v 0.04729758 -0.01423926 0.01260803 0.56470588 0.92549020 0.07058824
v 0.04729758 -0.01447450 0.01249863 0.56470588 0.92549020 0.07058824
v 0.04729758 -0.01448715 0.01249117 0.56470588 0.92549020 0.07058824
v 0.04729758 -0.01398379 -0.01267513 0.56470588 0.92549020 0.07058824
v 0.04729758 -0.01396103 -0.01267761 0.56470588 0.92549020 0.07058824
v 0.05155039 0.01059448 -0.01260800 0.56470588 0.92549020 0.07058824
v 0.04729758 0.00915777 -0.01260551 0.56470588 0.92549020 0.07058824
v 0.04729758 0.00937024 -0.01250606 0.56470588 0.92549020 0.07058824
v 0.04729758 0.00939807 -0.01249114 0.56470588 0.92549020 0.07058824
v 0.04729758 0.00959789 -0.01235191 0.56470588 0.92549020 0.07058824
v 0.04729758 0.00961560 -0.01233948 0.56470588 0.92549020 0.07058824
v 0.04729758 -0.01448715 -0.01249114 0.56470588 0.92549020 0.07058824
v 0.04729758 -0.01447450 -0.01249860 0.56470588 0.92549020 0.07058824
v 0.04729758 -0.01423926 -0.01260800 0.56470588 0.92549020 0.07058824
v 0.05208764 0.01059448 0.01269505 0.56470588 0.92549020 0.07058824
v 0.04729758 0.00890230 0.01267516 0.56470588 0.92549020 0.07058824
v 0.05145142 0.01059448 -0.01256573 0.56470588 0.92549020 0.07058824
v 0.04729758 0.00963077 -0.01232456 0.56470588 0.92549020 0.07058824
v 0.04729758 0.00980277 -0.01215052 0.56470588 0.92549020 0.07058824
v 0.04729758 0.00995454 -0.01193172 0.56470588 0.92549020 0.07058824
v 0.05183032 0.01059448 0.01267516 0.56470588 0.92549020 0.07058824
v 0.04729758 0.00915777 0.01260554 0.56470588 0.92549020 0.07058824
v 0.05128459 0.01059448 -0.01249363 0.56470588 0.92549020 0.07058824
v 0.04729758 0.01005318 -0.01172039 0.56470588 0.92549020 0.07058824
v 0.05171156 0.01059448 0.01264781 0.56470588 0.92549020 0.07058824
v 0.04729758 0.00961560 0.01233951 0.56470588 0.92549020 0.07058824
v 0.04729758 0.00959789 0.01235194 0.56470588 0.92549020 0.07058824
v 0.04729758 0.00939807 0.01249117 0.56470588 0.92549020 0.07058824
v 0.04729758 0.00937024 0.01250609 0.56470588 0.92549020 0.07058824
v 0.05103292 0.01059448 -0.01234196 0.56470588 0.92549020 0.07058824
v 0.04729758 0.01006583 -0.01169055 0.56470588 0.92549020 0.07058824
v 0.05155039 0.01059448 0.01260803 0.56470588 0.92549020 0.07058824
v 0.04729758 0.00963077 0.01232459 0.56470588 0.92549020 0.07058824
v 0.05080671 0.01059448 -0.01215549 0.56470588 0.92549020 0.07058824
v 0.04729758 0.01012907 -0.01145435 0.56470588 0.92549020 0.07058824
v 0.04729758 0.01013159 -0.01144441 0.56470588 0.92549020 0.07058824
v 0.05134114 0.01059448 0.01251852 0.56470588 0.92549020 0.07058824
v 0.04729758 0.00995454 0.01193175 0.56470588 0.92549020 0.07058824
v 0.04729758 0.00980277 0.01215055 0.56470588 0.92549020 0.07058824
v 0.05062008 0.01059448 -0.01193670 0.56470588 0.92549020 0.07058824
v 0.04729758 0.01013412 -0.01142452 0.56470588 0.92549020 0.07058824
v 0.05128459 0.01059448 0.01249366 0.56470588 0.92549020 0.07058824
v 0.04729758 0.01006583 0.01169058 0.56470588 0.92549020 0.07058824
v 0.05047022 0.01059448 -0.01169552 0.56470588 0.92549020 0.07058824
v 0.04729758 0.01015436 -0.01118086 0.56470588 0.92549020 0.07058824
v 0.05103292 0.01059448 0.01234199 0.56470588 0.92549020 0.07058824
v 0.04729758 0.01012907 0.01145439 0.56470588 0.92549020 0.07058824
v 0.05040801 0.01059448 -0.01153392 0.56470588 0.92549020 0.07058824
v 0.04729758 0.01015436 0.01117592 0.56470588 0.92549020 0.07058824
v 0.05034015 0.01059448 -0.01117589 0.56470588 0.92549020 0.07058824
v 0.05037408 0.01059448 -0.01143944 0.56470588 0.92549020 0.07058824
v 0.05080671 0.01059448 0.01215552 0.56470588 0.92549020 0.07058824
v 0.04729758 0.01013159 0.01144444 0.56470588 0.92549020 0.07058824
v 0.04729758 0.01013412 0.01142455 0.56470588 0.92549020 0.07058824
v 0.05047022 0.01059448 0.01169555 0.56470588 0.92549020 0.07058824
v 0.05037408 0.01059448 0.01143947 0.56470588 0.92549020 0.07058824
v 0.05034015 0.01059448 0.01117592 0.56470588 0.92549020 0.07058824
v 0.05062008 0.01059448 0.01193673 0.56470588 0.92549020 0.07058824
f 1 2 5
f 1 5 12
f 1 12 20
f 1 20 33
f 1 33 38
f 1 38 57
f 1 57 56
f 1 56 55
f 1 55 80
f 1 80 79
f 1 79 110
f 1 110 147
f 1 147 146
f 1 146 145
f 1 145 181
f 1 181 180
f 1 180 178
f 1 178 177
f 1 177 216
f 1 216 251
f 1 251 288
f 1 288 313
f 1 313 324
f 1 324 330
f 1 330 337
f 1 337 341
f 1 341 347
f 1 347 351
f 1 351 355
f 1 355 358
f 1 358 357
f 1 357 364
f 1 364 363
f 1 363 362
f 1 362 365
f 1 365 359
f 1 359 353
f 1 353 349
f 1 349 344
f 1 344 339
f 1 339 332
f 1 332 328
f 1 328 322
f 1 322 304
f 1 304 262
f 1 262 229
f 1 229 191
f 1 191 157
f 1 157 155
f 1 155 122
f 1 122 121
f 1 121 120
f 1 120 90
f 1 90 63
f 1 63 62
f 1 62 44
f 1 44 43
f 1 43 42
f 1 42 25
f 1 25 15
f 1 15 7
f 1 7 3
f 1 3 4
f 1 4 6
f 1 6 2
f 2 6 5
f 3 7 8
f 3 8 4
f 4 8 9
f 4 9 10
f 4 10 13
f 4 13 6
f 5 6 11
f 5 11 12
f 6 13 14
f 6 14 11
f 7 15 8
f 8 15 16
f 8 16 17
f 8 17 9
f 9 17 18
f 9 18 19
f 9 19 10
f 10 19 23
f 10 23 13
f 11 20 12
f 11 14 21
f 11 21 22
f 11 22 20
f 13 23 14
f 14 23 24
f 14 24 21
f 15 25 16
f 16 26 17
f 16 25 26
f 17 26 27
f 17 27 28
f 17 28 29
f 17 29 18
f 18 29 30
f 18 30 31
f 18 31 32
f 18 32 19
f 19 32 39
f 19 39 23
f 20 22 33
f 21 24 34
f 21 34 35
f 21 35 36
f 21 36 37
f 21 37 22
f 22 37 38
f 22 38 33
f 23 39 40
f 23 40 24
f 24 40 41
f 24 41 34
f 25 42 26
f 26 43 44
f 26 44 45
f 26 45 27
f 26 42 43
f 27 45 28
f 28 45 46
f 28 46 47
f 28 47 30
f 28 30 29
f 30 47 48
f 30 48 49
f 30 49 50
f 30 50 31
f 31 50 32
f 32 50 51
f 32 51 58
f 32 58 39
f 34 41 35
f 35 41 52
f 35 52 53
f 35 53 54
f 35 54 36
f 36 54 37
f 37 54 55
f 37 55 56
f 37 56 57
f 37 57 38
f 39 58 59
f 39 59 40
f 40 59 41
f 41 59 60
f 41 60 61
f 41 61 52
f 44 62 45
f 45 62 63
f 45 63 64
f 45 64 65
f 45 65 46
f 46 65 66
f 46 66 47
f 47 66 48
f 48 67 49
f 48 66 68
f 48 68 69
f 48 69 70
f 48 70 71
f 48 71 67
f 49 67 50
f 50 72 51
f 50 67 73
f 50 73 74
f 50 74 72
f 51 72 75
f 51 75 82
f 51 82 58
f 52 61 76
f 52 76 53
f 53 76 77
f 53 77 54
f 54 77 78
f 54 78 79
f 54 79 80
f 54 80 55
f 58 81 59
f 58 82 81
f 59 83 60
f 59 81 84
f 59 84 85
f 59 85 83
f 60 83 61
f 61 86 87
f 61 87 76
f 61 83 88
f 61 88 89
f 61 89 86
f 63 90 64
f 64 90 91
f 64 91 65
f 65 91 92
f 65 92 93
f 65 93 94
f 65 94 66
f 66 94 95
f 66 95 68
f 67 71 96
f 67 96 73
f 68 95 97
f 68 97 69
f 69 97 98
f 69 98 70
f 70 98 130
f 70 130 99
f 70 99 71
f 71 99 100
f 71 100 96
f 72 74 75
f 73 96 100
f 73 100 74
f 74 100 101
f 74 101 102
f 74 102 103
f 74 103 104
f 74 104 75
f 75 104 111
f 75 111 82
f 76 87 105
f 76 105 106
f 76 106 77
f 77 106 107
f 77 107 108
f 77 108 109
f 77 109 78
f 78 109 110
f 78 110 79
f 81 82 84
f 82 111 84
f 83 85 112
f 83 112 88
f 84 111 113
f 84 113 114
f 84 114 115
f 84 115 116
f 84 116 85
f 85 116 112
f 86 117 87
f 86 89 118
f 86 118 117
f 87 117 105
f 88 112 116
f 88 116 119
f 88 119 89
f 89 119 153
f 89 153 118
f 90 120 91
f 91 120 121
f 91 121 122
f 91 122 92
f 92 122 123
f 92 123 93
f 93 123 124
f 93 124 125
f 93 125 126
f 93 126 95
f 93 95 94
f 95 126 127
f 95 127 128
f 95 128 129
f 95 129 97
f 97 129 98
f 98 129 162
f 98 162 130
f 99 130 131
f 99 131 132
f 99 132 101
f 99 101 100
f 101 132 133
f 101 133 134
f 101 134 135
f 101 135 102
f 102 135 136
f 102 136 103
f 103 137 104
f 103 136 148
f 103 148 113
f 103 113 137
f 104 137 111
f 105 138 139
f 105 139 107
f 105 107 106
f 105 117 140
f 105 140 141
f 105 141 138
f 107 139 142
f 107 142 143
f 107 143 144
f 107 144 108
f 108 144 145
f 108 145 109
f 109 145 146
f 109 146 147
f 109 147 110
f 111 137 113
f 113 148 114
f 114 148 149
f 114 149 115
f 115 149 150
f 115 150 151
f 115 151 152
f 115 152 119
f 115 119 116
f 117 118 140
f 118 153 176
f 118 176 140
f 119 152 154
f 119 154 153
f 122 155 123
f 123 155 124
f 124 155 125
f 125 156 126
f 125 155 157
f 125 157 158
f 125 158 190
f 125 190 156
f 126 156 159
f 126 159 127
f 127 159 160
f 127 160 161
f 127 161 128
f 128 161 129
f 129 161 162
f 130 162 131
f 131 162 163
f 131 163 164
f 131 164 165
f 131 165 133
f 131 133 132
f 133 165 166
f 133 166 167
f 133 167 168
f 133 168 134
f 134 168 135
f 135 168 169
f 135 169 170
f 135 170 136
f 136 170 171
f 136 171 148
f 138 172 139
f 138 141 173
f 138 173 174
f 138 174 172
f 139 172 175
f 139 175 142
f 140 176 173
f 140 173 141
f 142 177 178
f 142 178 143
f 142 175 212
f 142 212 179
f 142 179 177
f 143 178 180
f 143 180 144
f 144 180 181
f 144 181 145
f 148 171 182
f 148 182 149
f 149 182 183
f 149 183 184
f 149 184 150
f 150 184 151
f 151 154 152
f 151 184 185
f 151 185 186
f 151 186 187
f 151 187 154
f 153 154 176
f 154 187 188
f 154 188 189
f 154 189 176
f 156 190 160
f 156 160 159
f 157 191 192
f 157 192 193
f 157 193 194
f 157 194 195
f 157 195 158
f 158 195 196
f 158 196 197
f 158 197 198
f 158 198 199
f 158 199 190
f 160 190 200
f 160 200 161
f 161 200 199
f 161 199 162
f 162 199 198
f 162 198 163
f 163 198 164
f 164 198 201
f 164 201 202
f 164 202 203
f 164 203 166
f 164 166 165
f 166 203 204
f 166 204 205
f 166 205 167
f 167 205 206
f 167 206 207
f 167 207 168
f 168 207 169
f 169 207 208
f 169 208 170
f 170 208 209
f 170 209 220
f 170 220 182
f 170 182 171
f 172 174 175
f 173 176 210
f 173 210 211
f 173 211 174
f 174 211 212
f 174 212 175
f 176 189 213
f 176 213 210
f 177 214 215
f 177 215 216
f 177 179 217
f 177 217 214
f 179 210 213
f 179 213 218
f 179 218 219
f 179 219 217
f 179 212 210
f 182 220 221
f 182 221 183
f 183 221 222
f 183 222 184
f 184 222 185
f 185 222 223
f 185 223 224
f 185 224 186
f 186 225 188
f 186 188 187
f 186 224 226
f 186 226 225
f 188 225 227
f 188 227 228
f 188 228 213
f 188 213 189
f 190 199 200
f 191 229 192
f 192 194 193
f 192 229 262
f 192 262 230
f 192 230 231
f 192 231 232
f 192 232 194
f 194 232 195
f 195 232 196
f 196 233 234
f 196 234 197
f 196 232 233
f 197 234 198
f 198 234 201
f 201 234 202
f 202 234 235
f 202 235 236
f 202 236 237
f 202 237 204
f 202 204 203
f 204 237 238
f 204 238 239
f 204 239 205
f 205 239 240
f 205 240 206
f 206 240 207
f 207 240 241
f 207 241 208
f 208 241 242
f 208 242 209
f 209 242 243
f 209 243 244
f 209 244 220
f 210 212 211
f 213 228 245
f 213 245 218
f 214 246 215
f 214 217 247
f 214 247 246
f 215 248 216
f 215 246 248
f 216 248 246
f 216 246 249
f 216 249 250
f 216 250 251
f 217 219 247
f 218 245 219
f 219 245 252
f 219 252 247
f 220 244 253
f 220 253 254
f 220 254 221
f 221 254 255
f 221 255 222
f 222 255 256
f 222 256 223
f 223 256 224
f 224 256 257
f 224 257 226
f 225 226 227
f 226 257 258
f 226 258 259
f 226 259 227
f 227 259 260
f 227 260 261
f 227 261 245
f 227 245 228
f 230 262 263
f 230 263 231
f 231 263 305
f 231 305 323
f 231 323 329
f 231 329 336
f 231 336 335
f 231 335 334
f 231 334 333
f 231 333 340
f 231 340 346
f 231 346 345
f 231 345 350
f 231 350 354
f 231 354 360
f 231 360 361
f 231 361 356
f 231 356 352
f 231 352 348
f 231 348 343
f 231 343 342
f 231 342 338
f 231 338 331
f 231 331 327
f 231 327 326
f 231 326 325
f 231 325 318
f 231 318 317
f 231 317 316
f 231 316 315
f 231 315 314
f 231 314 290
f 231 290 289
f 231 289 287
f 231 287 250
f 231 250 249
f 231 249 286
f 231 286 285
f 231 285 312
f 231 312 311
f 231 311 321
f 231 321 320
f 231 320 319
f 231 319 302
f 231 302 301
f 231 301 299
f 231 299 298
f 231 298 297
f 231 297 296
f 231 296 295
f 231 295 294
f 231 294 293
f 231 293 292
f 231 292 291
f 231 291 281
f 231 281 280
f 231 280 279
f 231 279 278
f 231 278 277
f 231 277 276
f 231 276 275
f 231 275 274
f 231 274 273
f 231 273 272
f 231 272 271
f 231 271 270
f 231 270 310
f 231 310 309
f 231 309 308
f 231 308 307
f 231 307 306
f 231 306 264
f 231 264 232
f 232 264 265
f 232 265 266
f 232 266 267
f 232 267 233
f 233 267 234
f 234 267 235
f 235 267 266
f 235 266 236
f 236 266 265
f 236 265 268
f 236 268 269
f 236 269 237
f 237 269 238
f 238 269 270
f 238 270 271
f 238 271 272
f 238 272 239
f 239 272 273
f 239 273 274
f 239 274 275
f 239 275 240
f 240 275 276
f 240 276 277
f 240 277 241
f 241 277 278
f 241 278 279
f 241 279 242
f 242 279 280
f 242 280 243
f 243 253 244
f 243 280 281
f 243 281 291
f 243 291 253
f 245 261 282
f 245 282 252
f 246 247 249
f 247 252 282
f 247 282 283
f 247 283 284
f 247 284 285
f 247 285 286
f 247 286 249
f 250 287 251
f 251 287 289
f 251 289 290
f 251 290 288
f 253 291 292
f 253 292 254
f 254 292 293
f 254 293 255
f 255 293 294
f 255 294 295
f 255 295 296
f 255 296 256
f 256 296 297
f 256 297 298
f 256 298 257
f 257 298 299
f 257 299 301
f 257 301 258
f 258 300 259
f 258 301 302
f 258 302 300
f 259 300 260
f 260 300 303
f 260 303 284
f 260 284 283
f 260 283 282
f 260 282 261
f 262 304 263
f 263 304 305
f 264 306 265
f 265 306 307
f 265 307 308
f 265 308 268
f 268 308 309
f 268 309 269
f 269 309 310
f 269 310 270
f 284 303 321
f 284 321 311
f 284 311 312
f 284 312 285
f 288 290 314
f 288 314 315
f 288 315 316
f 288 316 317
f 288 317 318
f 288 318 313
f 300 302 319
f 300 319 320
f 300 320 303
f 303 320 321
f 304 322 323
f 304 323 305
f 313 318 325
f 313 325 326
f 313 326 327
f 313 327 324
f 322 328 323
f 323 328 329
f 324 327 330
f 327 331 330
f 328 332 333
f 328 333 334
f 328 334 335
f 328 335 336
f 328 336 329
f 330 331 338
f 330 338 337
f 332 339 333
f 333 339 340
f 337 338 342
f 337 342 343
f 337 343 341
f 339 344 345
f 339 345 346
f 339 346 340
f 341 343 347
f 343 348 347
f 344 349 345
f 345 349 350
f 347 348 351
f 348 352 351
f 349 353 350
f 350 353 354
f 351 352 355
f 352 356 364
f 352 364 357
f 352 357 358
f 352 358 355
f 353 359 360
f 353 360 354
f 356 361 362
f 356 362 363
f 356 363 364
f 359 365 360
f 360 365 361
f 361 365 362