# https://github.com/mikedh/trimesh
v 0.04729758 0.01015654 0.01117560 0.38039216 0.78823529 0.52549020
v 0.02463400 0.01013914 0.01137421 0.38039216 0.78823529 0.52549020
v 0.04729758 0.01013416 0.01142423 0.38039216 0.78823529 0.52549020
v 0.04729758 0.01015654 0.00529545 0.38039216 0.78823529 0.52549020
v 0.01231952 0.01015654 0.01117560 0.38039216 0.78823529 0.52549020
v 0.01231952 0.01014162 0.01134087 0.38039216 0.78823529 0.52549020
v 0.00049524 0.01013168 0.01144452 0.38039216 0.78823529 0.52549020
v 0.04729758 0.01013168 0.01144525 0.38039216 0.78823529 0.52549020
v 0.04729758 -0.01524344 0.00529545 0.38039216 0.78823529 0.52549020
v 0.01064736 0.01015654 0.00529545 0.38039216 0.78823529 0.52549020
v 0.00049524 0.01015654 0.01097336 0.38039216 0.78823529 0.52549020
v 0.00049524 0.01015405 0.01117705 0.38039216 0.78823529 0.52549020
v 0.00049524 0.01014411 0.01130390 0.38039216 0.78823529 0.52549020
v 0.00049524 0.01009935 0.01156703 0.38039216 0.78823529 0.52549020
v 0.04729758 0.01012919 0.01145540 0.38039216 0.78823529 0.52549020
v 0.04729758 -0.01524344 0.01117560 0.38039216 0.78823529 0.52549020
v 0.01162317 -0.01524344 0.00529545 0.38039216 0.78823529 0.52549020
v 0.01061529 0.01015405 0.00529545 0.38039216 0.78823529 0.52549020
v 0.00049524 0.00984824 0.00591594 0.38039216 0.78823529 0.52549020
v 0.00049524 0.00991040 0.00601379 0.38039216 0.78823529 0.52549020
v 0.00049524 0.00998001 0.00612397 0.38039216 0.78823529 0.52549020
v 0.00049524 0.01007698 0.00635013 0.38039216 0.78823529 0.52549020
v 0.00049524 0.01013665 0.00658862 0.38039216 0.78823529 0.52549020
v 0.00049524 0.01015654 0.00683362 0.38039216 0.78823529 0.52549020
v 0.00049524 0.01006455 0.01169533 0.38039216 0.78823529 0.52549020
v 0.01231952 0.01006455 0.01169678 0.38039216 0.78823529 0.52549020
v 0.03695305 0.01006455 0.01169678 0.38039216 0.78823529 0.52549020
v 0.04729758 0.01006206 0.01170185 0.38039216 0.78823529 0.52549020
v 0.04729758 -0.01522106 0.01141770 0.38039216 0.78823529 0.52549020
v 0.02508296 -0.01522604 0.01137421 0.38039216 0.78823529 0.52549020
v 0.01254401 -0.01524344 0.01117560 0.38039216 0.78823529 0.52549020
v 0.00049524 -0.01524344 0.00780930 0.38039216 0.78823529 0.52549020
v 0.00049524 -0.01522106 0.00755197 0.38039216 0.78823529 0.52549020
v 0.00049524 -0.01515642 0.00730189 0.38039216 0.78823529 0.52549020
v 0.01136204 -0.01522106 0.00529545 0.38039216 0.78823529 0.52549020
v 0.01039997 0.01013665 0.00529545 0.38039216 0.78823529 0.52549020
v 0.00049524 0.00984078 0.00590651 0.38039216 0.78823529 0.52549020
v 0.00049524 0.00995266 0.01193671 0.38039216 0.78823529 0.52549020
v 0.03695305 0.01002228 0.01178739 0.38039216 0.78823529 0.52549020
v 0.04729758 0.00996261 0.01191352 0.38039216 0.78823529 0.52549020
v 0.04729758 -0.01521858 0.01144017 0.38039216 0.78823529 0.52549020
v 0.01254401 -0.01521858 0.01144017 0.38039216 0.78823529 0.52549020
v 0.00049524 -0.01521858 0.01143655 0.38039216 0.78823529 0.52549020
v 0.01254401 -0.01522852 0.01134087 0.38039216 0.78823529 0.52549020
v 0.00049524 -0.01523101 0.01130390 0.38039216 0.78823529 0.52549020
v 0.00049524 -0.01524095 0.01117705 0.38039216 0.78823529 0.52549020
v 0.00049524 -0.01524344 0.01113210 0.38039216 0.78823529 0.52549020
v 0.00049524 -0.01504951 0.00706630 0.38039216 0.78823529 0.52549020
v 0.01111465 -0.01515642 0.00529545 0.38039216 0.78823529 0.52549020
v 0.00049524 -0.01497492 0.00695540 0.38039216 0.78823529 0.52549020
v 0.00049524 -0.01490530 0.00685247 0.38039216 0.78823529 0.52549020
v 0.00049524 -0.01472132 0.00666183 0.38039216 0.78823529 0.52549020
v 0.00049524 -0.01467408 0.00662341 0.38039216 0.78823529 0.52549020
v 0.00049524 -0.01461938 0.00658137 0.38039216 0.78823529 0.52549020
v 0.00049524 -0.01456966 0.00654657 0.38039216 0.78823529 0.52549020
v 0.00049524 -0.01451744 0.00651250 0.38039216 0.78823529 0.52549020
v 0.00049524 -0.01440556 0.00644872 0.38039216 0.78823529 0.52549020
v 0.01016174 0.01007698 0.00529545 0.38039216 0.78823529 0.52549020
v 0.00049524 0.00868714 0.00531067 0.38039216 0.78823529 0.52549020
v 0.00049524 0.00874681 0.00531502 0.38039216 0.78823529 0.52549020
v 0.00049524 0.00880400 0.00531937 0.38039216 0.78823529 0.52549020
v 0.00049524 0.00881145 0.00532009 0.38039216 0.78823529 0.52549020
v 0.00049524 0.00886864 0.00532879 0.38039216 0.78823529 0.52549020
v 0.00049524 0.00893080 0.00533966 0.38039216 0.78823529 0.52549020
v 0.00049524 0.00898798 0.00535344 0.38039216 0.78823529 0.52549020
v 0.00049524 0.00905014 0.00536866 0.38039216 0.78823529 0.52549020
v 0.00049524 0.00910732 0.00538678 0.38039216 0.78823529 0.52549020
v 0.00049524 0.00916700 0.00540708 0.38039216 0.78823529 0.52549020
v 0.00049524 0.00922169 0.00542955 0.38039216 0.78823529 0.52549020
v 0.00049524 0.00928137 0.00545492 0.38039216 0.78823529 0.52549020
v 0.00049524 0.00933358 0.00548174 0.38039216 0.78823529 0.52549020
v 0.00049524 0.00939076 0.00551218 0.38039216 0.78823529 0.52549020
v 0.00049524 0.00944049 0.00554263 0.38039216 0.78823529 0.52549020
v 0.00049524 0.00948773 0.00557380 0.38039216 0.78823529 0.52549020
v 0.00049524 0.00958469 0.00564991 0.38039216 0.78823529 0.52549020
v 0.00049524 0.00968414 0.00573254 0.38039216 0.78823529 0.52549020
v 0.00049524 0.00979603 0.01215780 0.38039216 0.78823529 0.52549020
v 0.01231952 0.00981840 0.01212808 0.38039216 0.78823529 0.52549020
v 0.03695305 0.00981840 0.01212808 0.38039216 0.78823529 0.52549020
v 0.03695305 0.00993277 0.01196498 0.38039216 0.78823529 0.52549020
v 0.04729758 0.00994272 0.01195048 0.38039216 0.78823529 0.52549020
v 0.04729758 0.00995266 0.01193309 0.38039216 0.78823529 0.52549020
v 0.04729758 -0.01515145 0.01169678 0.38039216 0.78823529 0.52549020
v 0.03762650 -0.01521112 0.01147207 0.38039216 0.78823529 0.52549020
v 0.01254401 -0.01521112 0.01147207 0.38039216 0.78823529 0.52549020
v 0.00049524 -0.01518626 0.01156485 0.38039216 0.78823529 0.52549020
v 0.01087642 -0.01504951 0.00529545 0.38039216 0.78823529 0.52549020
v 0.00049524 -0.01428870 0.00639580 0.38039216 0.78823529 0.52549020
v 0.00049524 -0.01422903 0.00637478 0.38039216 0.78823529 0.52549020
v 0.00049524 -0.01415942 0.00635086 0.38039216 0.78823529 0.52549020
v 0.01014342 0.01006952 0.00529545 0.38039216 0.78823529 0.52549020
v 0.00993726 0.00998001 0.00529545 0.38039216 0.78823529 0.52549020
v 0.00972652 0.00984824 0.00529545 0.38039216 0.78823529 0.52549020
v 0.00971736 0.00984078 0.00529545 0.38039216 0.78823529 0.52549020
v 0.00954327 0.00968414 0.00529545 0.38039216 0.78823529 0.52549020
v 0.00938751 0.00949270 0.00529545 0.38039216 0.78823529 0.52549020
v 0.00932337 0.00939076 0.00529545 0.38039216 0.78823529 0.52549020
v 0.00926839 0.00927888 0.00529545 0.38039216 0.78823529 0.52549020
v 0.00921800 0.00916700 0.00529545 0.38039216 0.78823529 0.52549020
v 0.00918135 0.00905014 0.00529545 0.38039216 0.78823529 0.52549020
v 0.00914928 0.00893080 0.00529545 0.38039216 0.78823529 0.52549020
v 0.00913095 0.00880897 0.00529545 0.38039216 0.78823529 0.52549020
v 0.00912179 0.00868714 0.00529545 0.38039216 0.78823529 0.52549020
v 0.00049524 0.00856531 0.00531067 0.38039216 0.78823529 0.52549020
v 0.00049524 0.00970652 0.01224840 0.38039216 0.78823529 0.52549020
v 0.01231952 0.00977614 0.01217882 0.38039216 0.78823529 0.52549020
v 0.04729758 0.00979603 0.01215925 0.38039216 0.78823529 0.52549020
v 0.01231952 0.00979851 0.01215490 0.38039216 0.78823529 0.52549020
v 0.04729758 -0.01504205 0.01193091 0.38039216 0.78823529 0.52549020
v 0.03762650 -0.01510918 0.01178739 0.38039216 0.78823529 0.52549020
v 0.00049524 -0.01503956 0.01193671 0.38039216 0.78823529 0.52549020
v 0.01254401 -0.01515145 0.01169678 0.38039216 0.78823529 0.52549020
v 0.00049524 -0.01515145 0.01169315 0.38039216 0.78823529 0.52549020
v 0.01066568 -0.01490530 0.00529545 0.38039216 0.78823529 0.52549020
v 0.00049524 -0.01404007 0.00631969 0.38039216 0.78823529 0.52549020
v 0.00049524 -0.01391327 0.00629794 0.38039216 0.78823529 0.52549020
v 0.00912179 0.00853548 0.00529545 0.38039216 0.78823529 0.52549020
v 0.01009760 -0.01378399 0.00529545 0.38039216 0.78823529 0.52549020
v 0.01010677 -0.01390333 0.00529545 0.38039216 0.78823529 0.52549020
v 0.01012967 -0.01404007 0.00529545 0.38039216 0.78823529 0.52549020
v 0.01016632 -0.01417682 0.00529545 0.38039216 0.78823529 0.52549020
v 0.01020755 -0.01428870 0.00529545 0.38039216 0.78823529 0.52549020
v 0.00049524 -0.00260809 0.00579851 0.38039216 0.78823529 0.52549020
v 0.00049524 0.00960707 0.01234554 0.38039216 0.78823529 0.52549020
v 0.01231952 0.00961204 0.01234336 0.38039216 0.78823529 0.52549020
v 0.03695305 0.00961204 0.01234336 0.38039216 0.78823529 0.52549020
v 0.04729758 0.00962945 0.01232452 0.38039216 0.78823529 0.52549020
v 0.04729758 -0.01502465 0.01195628 0.38039216 0.78823529 0.52549020
v 0.03762650 -0.01501967 0.01196498 0.38039216 0.78823529 0.52549020
v 0.01254401 -0.01490530 0.01212808 0.38039216 0.78823529 0.52549020
v 0.00049524 -0.01488541 0.01215417 0.38039216 0.78823529 0.52549020
v 0.00049524 -0.01514896 0.01170040 0.38039216 0.78823529 0.52549020
v 0.03762650 -0.01490530 0.01212808 0.38039216 0.78823529 0.52549020
v 0.01047785 -0.01472629 0.00529545 0.38039216 0.78823529 0.52549020
v 0.00049524 -0.01384614 0.00629214 0.38039216 0.78823529 0.52549020
v 0.01039539 -0.01462435 0.00529545 0.38039216 0.78823529 0.52549020
v 0.01026253 -0.01440556 0.00529545 0.38039216 0.78823529 0.52549020
v 0.00049524 -0.01378399 0.00628707 0.38039216 0.78823529 0.52549020
v 0.00049524 0.00939325 0.01249486 0.38039216 0.78823529 0.52549020
v 0.01231952 0.00942060 0.01247674 0.38039216 0.78823529 0.52549020
v 0.04729758 0.00939822 0.01249269 0.38039216 0.78823529 0.52549020
v 0.04729758 0.00960707 0.01234626 0.38039216 0.78823529 0.52549020
v 0.04729758 -0.01490779 0.01212445 0.38039216 0.78823529 0.52549020
v 0.01254401 -0.01488541 0.01215490 0.38039216 0.78823529 0.52549020
v 0.04729758 -0.01489039 0.01214910 0.38039216 0.78823529 0.52549020
v 0.00049524 -0.01479342 0.01224840 0.38039216 0.78823529 0.52549020
v 0.01254401 -0.01486304 0.01217882 0.38039216 0.78823529 0.52549020
v 0.01032209 -0.01451744 0.00529545 0.38039216 0.78823529 0.52549020
v 0.00049524 0.00927142 0.01255213 0.38039216 0.78823529 0.52549020
v 0.01231952 0.00924407 0.01256590 0.38039216 0.78823529 0.52549020
v 0.01231952 0.00939325 0.01249559 0.38039216 0.78823529 0.52549020
v 0.03695305 0.00939325 0.01249559 0.38039216 0.78823529 0.52549020
v 0.04729758 0.00938828 0.01249776 0.38039216 0.78823529 0.52549020
v 0.04729758 -0.01488044 0.01216070 0.38039216 0.78823529 0.52549020
v 0.04729758 -0.01487050 0.01217157 0.38039216 0.78823529 0.52549020
v 0.00049524 -0.01469894 0.01234191 0.38039216 0.78823529 0.52549020
v 0.01254401 -0.01469894 0.01234336 0.38039216 0.78823529 0.52549020
v 0.00049524 0.00915705 0.01260577 0.38039216 0.78823529 0.52549020
v 0.03695305 0.00924407 0.01256590 0.38039216 0.78823529 0.52549020
v 0.02463400 0.00933358 0.01252386 0.38039216 0.78823529 0.52549020
v 0.04729758 0.00915705 0.01260577 0.38039216 0.78823529 0.52549020
v 0.04729758 -0.01470391 0.01233756 0.38039216 0.78823529 0.52549020
v 0.03762650 -0.01469894 0.01234336 0.38039216 0.78823529 0.52549020
v 0.00049524 -0.01458954 0.01241875 0.38039216 0.78823529 0.52549020
v 0.04729758 -0.01448761 0.01249124 0.38039216 0.78823529 0.52549020
v 0.01254401 -0.01450750 0.01247674 0.38039216 0.78823529 0.52549020
v 0.00049524 0.00914959 0.01260867 0.38039216 0.78823529 0.52549020
v 0.01231952 0.00915208 0.01260794 0.38039216 0.78823529 0.52549020
v 0.03695305 0.00915208 0.01260794 0.38039216 0.78823529 0.52549020
v 0.04729758 0.00914710 0.01260939 0.38039216 0.78823529 0.52549020
v 0.04729758 -0.01469148 0.01234771 0.38039216 0.78823529 0.52549020
v 0.04729758 -0.01451247 0.01247384 0.38039216 0.78823529 0.52549020
v 0.00049524 -0.01448015 0.01249486 0.38039216 0.78823529 0.52549020
v 0.04729758 -0.01447269 0.01249849 0.38039216 0.78823529 0.52549020
v 0.03762650 -0.01448015 0.01249559 0.38039216 0.78823529 0.52549020
v 0.01254401 -0.01448015 0.01249559 0.38039216 0.78823529 0.52549020
v 0.00049524 0.00902030 0.01264346 0.38039216 0.78823529 0.52549020
v 0.03695305 0.00889599 0.01267680 0.38039216 0.78823529 0.52549020
v 0.04729758 0.00890096 0.01267535 0.38039216 0.78823529 0.52549020
v 0.00049524 -0.01436329 0.01254995 0.38039216 0.78823529 0.52549020
v 0.04729758 -0.01444534 0.01251153 0.38039216 0.78823529 0.52549020
v 0.03762650 -0.01433097 0.01256590 0.38039216 0.78823529 0.52549020
v 0.02508296 -0.01442048 0.01252386 0.38039216 0.78823529 0.52549020
v 0.01254401 -0.01433097 0.01256590 0.38039216 0.78823529 0.52549020
v 0.00049524 0.00889102 0.01267680 0.38039216 0.78823529 0.52549020
v 0.01231952 0.00889599 0.01267680 0.38039216 0.78823529 0.52549020
v 0.04729758 0.00888107 0.01267825 0.38039216 0.78823529 0.52549020
v 0.00049524 -0.01424395 0.01260577 0.38039216 0.78823529 0.52549020
v 0.04729758 -0.01423898 0.01260794 0.38039216 0.78823529 0.52549020
v 0.00049524 0.00875924 0.01268840 0.38039216 0.78823529 0.52549020
v 0.01231952 0.00886367 0.01267970 0.38039216 0.78823529 0.52549020
v 0.04729758 0.00863244 0.01270000 0.38039216 0.78823529 0.52549020
v 0.01231952 0.00863244 0.01270000 0.38039216 0.78823529 0.52549020
v 0.00049524 -0.01423649 0.01260867 0.38039216 0.78823529 0.52549020
v 0.01254401 -0.01423898 0.01260794 0.38039216 0.78823529 0.52549020
v 0.04729758 -0.01398289 0.01267680 0.38039216 0.78823529 0.52549020
v 0.00049524 0.00863244 0.01269927 0.38039216 0.78823529 0.52549020
v 0.04729758 -0.01371934 0.01270000 0.38039216 0.78823529 0.52549020
v 0.01198509 0.00024866 0.01270000 0.38039216 0.78823529 0.52549020
v 0.00049524 -0.01411218 0.01264201 0.38039216 0.78823529 0.52549020
v 0.01254401 -0.01398289 0.01267680 0.38039216 0.78823529 0.52549020
v 0.04729758 -0.01397543 0.01267753 0.38039216 0.78823529 0.52549020
v 0.00049524 -0.01371934 0.01269927 0.38039216 0.78823529 0.52549020
v 0.01254401 -0.01371934 0.01270000 0.38039216 0.78823529 0.52549020
v 0.00049524 -0.01398289 0.01267608 0.38039216 0.78823529 0.52549020
v 0.01254401 -0.01395057 0.01267970 0.38039216 0.78823529 0.52549020
f 1 2 3
f 1 3 8
f 1 8 15
f 1 15 28
f 1 28 40
f 1 40 82
f 1 82 81
f 1 81 107
f 1 107 127
f 1 127 142
f 1 142 141
f 1 141 153
f 1 153 161
f 1 161 170
f 1 170 179
f 1 179 187
f 1 187 192
f 1 192 198
f 1 198 202
f 1 202 196
f 1 196 189
f 1 189 181
f 1 181 174
f 1 174 165
f 1 165 172
f 1 172 171
f 1 171 162
f 1 162 155
f 1 155 154
f 1 154 145
f 1 145 143
f 1 143 128
f 1 128 109
f 1 109 83
f 1 83 41
f 1 41 29
f 1 29 16
f 1 16 9
f 1 9 4
f 1 4 10
f 1 10 24
f 1 24 11
f 1 11 5
f 1 5 2
f 2 5 6
f 2 6 7
f 2 7 3
f 3 7 8
f 4 9 17
f 4 17 35
f 4 35 49
f 4 49 87
f 4 87 114
f 4 114 134
f 4 134 136
f 4 136 148
f 4 148 137
f 4 137 122
f 4 122 121
f 4 121 120
f 4 120 119
f 4 119 118
f 4 118 117
f 4 117 103
f 4 103 102
f 4 102 101
f 4 101 100
f 4 100 99
f 4 99 98
f 4 98 97
f 4 97 96
f 4 96 95
f 4 95 94
f 4 94 93
f 4 93 92
f 4 92 91
f 4 91 58
f 4 58 36
f 4 36 18
f 4 18 10
f 5 11 12
f 5 12 13
f 5 13 7
f 5 7 6
f 7 13 12
f 7 12 11
f 7 11 24
f 7 24 23
f 7 23 22
f 7 22 21
f 7 21 20
f 7 20 19
f 7 19 37
f 7 37 76
f 7 76 75
f 7 75 74
f 7 74 73
f 7 73 72
f 7 72 71
f 7 71 70
f 7 70 69
f 7 69 68
f 7 68 67
f 7 67 66
f 7 66 65
f 7 65 64
f 7 64 63
f 7 63 62
f 7 62 61
f 7 61 60
f 7 60 59
f 7 59 104
f 7 104 123
f 7 123 138
f 7 138 135
f 7 135 116
f 7 116 115
f 7 115 90
f 7 90 89
f 7 89 88
f 7 88 57
f 7 57 56
f 7 56 55
f 7 55 54
f 7 54 53
f 7 53 52
f 7 52 51
f 7 51 50
f 7 50 48
f 7 48 34
f 7 34 33
f 7 33 32
f 7 32 47
f 7 47 46
f 7 46 45
f 7 45 43
f 7 43 86
f 7 86 113
f 7 113 132
f 7 132 111
f 7 111 131
f 7 131 146
f 7 146 156
f 7 156 164
f 7 164 173
f 7 173 180
f 7 180 188
f 7 188 194
f 7 194 200
f 7 200 205
f 7 205 203
f 7 203 197
f 7 197 190
f 7 190 185
f 7 185 177
f 7 177 167
f 7 167 158
f 7 158 149
f 7 149 139
f 7 139 124
f 7 124 105
f 7 105 77
f 7 77 38
f 7 38 25
f 7 25 14
f 7 14 15
f 7 15 8
f 9 16 31
f 9 31 47
f 9 47 32
f 9 32 17
f 10 18 19
f 10 19 20
f 10 20 21
f 10 21 22
f 10 22 23
f 10 23 24
f 14 25 26
f 14 26 27
f 14 27 15
f 15 27 28
f 16 29 30
f 16 30 31
f 17 32 33
f 17 33 34
f 17 34 35
f 18 36 37
f 18 37 19
f 25 38 26
f 26 38 27
f 27 39 28
f 27 38 39
f 28 39 40
f 29 41 30
f 30 41 42
f 30 42 43
f 30 43 44
f 30 44 31
f 31 44 45
f 31 45 46
f 31 46 47
f 34 48 35
f 35 48 50
f 35 50 51
f 35 51 52
f 35 52 53
f 35 53 54
f 35 54 55
f 35 55 56
f 35 56 57
f 35 57 49
f 36 58 59
f 36 59 60
f 36 60 61
f 36 61 62
f 36 62 63
f 36 63 64
f 36 64 65
f 36 65 66
f 36 66 67
f 36 67 68
f 36 68 69
f 36 69 70
f 36 70 71
f 36 71 72
f 36 72 73
f 36 73 74
f 36 74 75
f 36 75 76
f 36 76 37
f 38 77 78
f 38 78 79
f 38 79 80
f 38 80 81
f 38 81 82
f 38 82 40
f 38 40 39
f 41 83 84
f 41 84 85
f 41 85 42
f 42 85 43
f 43 45 44
f 43 85 86
f 49 57 88
f 49 88 89
f 49 89 90
f 49 90 87
f 58 91 59
f 59 91 92
f 59 92 93
f 59 93 94
f 59 94 95
f 59 95 96
f 59 96 97
f 59 97 98
f 59 98 99
f 59 99 100
f 59 100 101
f 59 101 102
f 59 102 103
f 59 103 117
f 59 117 104
f 77 105 106
f 77 106 107
f 77 107 108
f 77 108 78
f 78 108 107
f 78 107 79
f 79 107 81
f 79 81 80
f 83 109 110
f 83 110 111
f 83 111 112
f 83 112 85
f 83 85 84
f 85 112 86
f 86 112 113
f 87 90 115
f 87 115 116
f 87 116 114
f 104 117 118
f 104 118 119
f 104 119 120
f 104 120 121
f 104 121 122
f 104 122 123
f 105 124 125
f 105 125 106
f 106 125 107
f 107 126 127
f 107 125 126
f 109 128 129
f 109 129 111
f 109 111 110
f 111 130 131
f 111 132 112
f 111 129 133
f 111 133 130
f 112 132 113
f 114 116 134
f 116 135 136
f 116 136 134
f 122 137 138
f 122 138 123
f 124 139 125
f 125 139 140
f 125 140 141
f 125 141 126
f 126 141 142
f 126 142 127
f 128 143 129
f 129 143 133
f 130 144 131
f 130 133 145
f 130 145 144
f 131 144 147
f 131 147 146
f 133 143 145
f 135 138 136
f 136 138 148
f 137 148 138
f 139 149 150
f 139 150 151
f 139 151 140
f 140 151 141
f 141 152 153
f 141 151 152
f 144 145 154
f 144 154 155
f 144 155 147
f 146 147 157
f 146 157 156
f 147 155 157
f 149 158 150
f 150 158 161
f 150 161 159
f 150 159 160
f 150 160 151
f 151 160 152
f 152 160 159
f 152 159 153
f 153 159 161
f 155 162 163
f 155 163 157
f 156 157 164
f 157 163 172
f 157 172 165
f 157 165 166
f 157 166 164
f 158 167 168
f 158 168 169
f 158 169 161
f 161 169 170
f 162 171 163
f 163 171 172
f 164 166 173
f 165 174 175
f 165 175 176
f 165 176 166
f 166 176 173
f 167 177 170
f 167 170 169
f 167 169 168
f 170 178 179
f 170 177 178
f 173 176 180
f 174 181 175
f 175 181 182
f 175 182 183
f 175 183 176
f 176 183 184
f 176 184 180
f 177 185 186
f 177 186 178
f 178 187 179
f 178 186 187
f 180 184 188
f 181 189 182
f 182 189 188
f 182 188 184
f 182 184 183
f 185 190 191
f 185 191 186
f 186 191 187
f 187 191 193
f 187 193 192
f 188 189 195
f 188 195 194
f 189 196 194
f 189 194 195
f 190 197 193
f 190 193 191
f 192 193 199
f 192 199 204
f 192 204 198
f 193 197 199
f 194 196 201
f 194 201 200
f 196 202 201
f 197 203 199
f 198 204 202
f 199 203 204
f 200 201 205
f 201 202 206
f 201 206 205
f 202 204 206
f 203 205 206
f 203 206 204