# https://github.com/mikedh/trimesh
v -0.05044221 0.01069970 -0.00530043 0.77647059 0.86666667 0.97647059
v -0.05044221 -0.01521550 -0.00530043 0.77647059 0.86666667 0.97647059
v -0.05044221 0.01069716 0.00529470 0.77647059 0.86666667 0.97647059
v -0.01064495 0.01015626 0.00529470 0.77647059 0.86666667 0.97647059
v -0.01064495 0.01015626 -0.00530043 0.77647059 0.86666667 0.97647059
v -0.05044221 -0.01521550 0.00529470 0.77647059 0.86666667 0.97647059
v -0.05040580 -0.01522312 -0.00530043 0.77647059 0.86666667 0.97647059
v -0.01042248 0.01013848 0.00529470 0.77647059 0.86666667 0.97647059
v -0.01061259 0.01015371 -0.00530043 0.77647059 0.86666667 0.97647059
v -0.05040580 -0.01522312 0.00529470 0.77647059 0.86666667 0.97647059
v -0.05022783 -0.01523836 -0.00530043 0.77647059 0.86666667 0.97647059
v -0.01039821 0.01013594 0.00529470 0.77647059 0.86666667 0.97647059
v -0.01039821 0.01013594 -0.00530043 0.77647059 0.86666667 0.97647059
v -0.05022783 -0.01523836 0.00529470 0.77647059 0.86666667 0.97647059
v -0.05016716 -0.01524344 -0.00530043 0.77647059 0.86666667 0.97647059
v -0.01015957 0.01007753 0.00529470 0.77647059 0.86666667 0.97647059
v -0.01015957 0.01007753 -0.00530043 0.77647059 0.86666667 0.97647059
v -0.05016716 -0.01524344 0.00529470 0.77647059 0.86666667 0.97647059
v -0.01161976 -0.01524344 -0.00530043 0.77647059 0.86666667 0.97647059
v -0.00993710 0.00998103 0.00529470 0.77647059 0.86666667 0.97647059
v -0.00993710 0.00998103 -0.00530043 0.77647059 0.86666667 0.97647059
v -0.01161976 -0.01524344 0.00529470 0.77647059 0.86666667 0.97647059
v -0.01136493 -0.01522058 -0.00530043 0.77647059 0.86666667 0.97647059
v -0.00972677 0.00984898 0.00529470 0.77647059 0.86666667 0.97647059
v -0.00972677 0.00984898 -0.00530043 0.77647059 0.86666667 0.97647059
v -0.01136493 -0.01522058 0.00529470 0.77647059 0.86666667 0.97647059
v -0.01114651 -0.01516472 -0.00530043 0.77647059 0.86666667 0.97647059
v -0.01132448 -0.01521043 0.00529470 0.77647059 0.86666667 0.97647059
v -0.00955284 0.00969153 0.00529470 0.77647059 0.86666667 0.97647059
v -0.00953666 0.00967884 -0.00530043 0.77647059 0.86666667 0.97647059
v -0.01111415 -0.01515456 -0.00530043 0.77647059 0.86666667 0.97647059
v -0.01111415 -0.01515456 0.00529470 0.77647059 0.86666667 0.97647059
v -0.00954475 0.00968391 0.00529470 0.77647059 0.86666667 0.97647059
v -0.00939105 0.00949853 0.00529470 0.77647059 0.86666667 0.97647059
v -0.00938700 0.00949092 -0.00530043 0.77647059 0.86666667 0.97647059
v -0.01090787 -0.01506314 -0.00530043 0.77647059 0.86666667 0.97647059
v -0.01087955 -0.01504790 0.00529470 0.77647059 0.86666667 0.97647059
v -0.00932228 0.00938934 0.00529470 0.77647059 0.86666667 0.97647059
v -0.00932228 0.00938934 -0.00530043 0.77647059 0.86666667 0.97647059
v -0.01087955 -0.01504790 -0.00530043 0.77647059 0.86666667 0.97647059
v -0.01085124 -0.01503012 0.00529470 0.77647059 0.86666667 0.97647059
v -0.00926566 0.00928014 0.00529470 0.77647059 0.86666667 0.97647059
v -0.00926566 0.00928014 -0.00530043 0.77647059 0.86666667 0.97647059
v -0.01068944 -0.01492093 -0.00530043 0.77647059 0.86666667 0.97647059
v -0.01066517 -0.01490315 0.00529470 0.77647059 0.86666667 0.97647059
v -0.00921712 0.00916840 0.00529470 0.77647059 0.86666667 0.97647059
v -0.00921712 0.00916840 -0.00530043 0.77647059 0.86666667 0.97647059
v -0.01066517 -0.01490315 -0.00530043 0.77647059 0.86666667 0.97647059
v -0.01064091 -0.01488284 0.00529470 0.77647059 0.86666667 0.97647059
v -0.00918071 0.00905159 0.00529470 0.77647059 0.86666667 0.97647059
v -0.00918071 0.00905159 -0.00530043 0.77647059 0.86666667 0.97647059
v -0.01049529 -0.01474317 -0.00530043 0.77647059 0.86666667 0.97647059
v -0.01047911 -0.01472539 0.00529470 0.77647059 0.86666667 0.97647059
v -0.00915240 0.00893223 0.00529470 0.77647059 0.86666667 0.97647059
v -0.00915240 0.00893223 -0.00530043 0.77647059 0.86666667 0.97647059
v -0.01047911 -0.01472539 -0.00530043 0.77647059 0.86666667 0.97647059
v -0.01040226 -0.01463397 -0.00530043 0.77647059 0.86666667 0.97647059
v -0.01039821 -0.01462635 0.00529470 0.77647059 0.86666667 0.97647059
v -0.00913218 0.00881034 0.00529470 0.77647059 0.86666667 0.97647059
v -0.00913218 0.00881034 -0.00530043 0.77647059 0.86666667 0.97647059
v -0.01032945 -0.01452731 0.00529470 0.77647059 0.86666667 0.97647059
v -0.01032541 -0.01451715 -0.00530043 0.77647059 0.86666667 0.97647059
v -0.00912004 0.00868845 0.00529470 0.77647059 0.86666667 0.97647059
v -0.00912004 0.00868845 -0.00530043 0.77647059 0.86666667 0.97647059
v -0.01031732 -0.01450700 0.00529470 0.77647059 0.86666667 0.97647059
v -0.01026473 -0.01441557 -0.00530043 0.77647059 0.86666667 0.97647059
v -0.00912409 0.00852846 0.00529470 0.77647059 0.86666667 0.97647059
v -0.00912409 0.00854624 -0.00530043 0.77647059 0.86666667 0.97647059
v -0.01026069 -0.01440542 0.00529470 0.77647059 0.86666667 0.97647059
v -0.01021215 -0.01429876 0.00529470 0.77647059 0.86666667 0.97647059
v -0.01020811 -0.01428860 -0.00530043 0.77647059 0.86666667 0.97647059
v -0.00960947 -0.00260962 0.00529470 0.77647059 0.86666667 0.97647059
v -0.00960947 -0.00260962 -0.00530043 0.77647059 0.86666667 0.97647059
v -0.01020811 -0.01428860 0.00529470 0.77647059 0.86666667 0.97647059
v -0.01020406 -0.01427844 -0.00530043 0.77647059 0.86666667 0.97647059
v -0.01001395 -0.01187357 0.00529470 0.77647059 0.86666667 0.97647059
v -0.01002609 -0.01215799 -0.00530043 0.77647059 0.86666667 0.97647059
v -0.01016361 -0.01416671 0.00529470 0.77647059 0.86666667 0.97647059
v -0.01015957 -0.01415655 -0.00530043 0.77647059 0.86666667 0.97647059
v -0.01009890 -0.01379595 0.00529470 0.77647059 0.86666667 0.97647059
v -0.01009081 -0.01362072 -0.00530043 0.77647059 0.86666667 0.97647059
v -0.01013126 -0.01403973 0.00529470 0.77647059 0.86666667 0.97647059
v -0.01013126 -0.01403973 -0.00530043 0.77647059 0.86666667 0.97647059
v -0.01010699 -0.01390260 -0.00530043 0.77647059 0.86666667 0.97647059
v -0.01009890 -0.01378579 -0.00530043 0.77647059 0.86666667 0.97647059
v -0.01011103 -0.01392292 0.00529470 0.77647059 0.86666667 0.97647059
f 1 2 6
f 1 6 3
f 1 3 4
f 1 4 5
f 1 5 9
f 1 9 13
f 1 13 17
f 1 17 21
f 1 21 25
f 1 25 30
f 1 30 35
f 1 35 39
f 1 39 43
f 1 43 47
f 1 47 51
f 1 51 55
f 1 55 60
f 1 60 64
f 1 64 68
f 1 68 73
f 1 73 77
f 1 77 81
f 1 81 85
f 1 85 84
f 1 84 83
f 1 83 79
f 1 79 75
f 1 75 71
f 1 71 66
f 1 66 62
f 1 62 57
f 1 57 56
f 1 56 52
f 1 52 48
f 1 48 44
f 1 44 40
f 1 40 36
f 1 36 31
f 1 31 27
f 1 27 23
f 1 23 19
f 1 19 15
f 1 15 11
f 1 11 7
f 1 7 2
f 2 7 10
f 2 10 6
f 3 6 10
f 3 10 14
f 3 14 18
f 3 18 22
f 3 22 26
f 3 26 28
f 3 28 32
f 3 32 37
f 3 37 41
f 3 41 45
f 3 45 49
f 3 49 53
f 3 53 58
f 3 58 61
f 3 61 65
f 3 65 69
f 3 69 70
f 3 70 74
f 3 74 78
f 3 78 82
f 3 82 86
f 3 86 80
f 3 80 76
f 3 76 72
f 3 72 67
f 3 67 63
f 3 63 59
f 3 59 54
f 3 54 50
f 3 50 46
f 3 46 42
f 3 42 38
f 3 38 34
f 3 34 33
f 3 33 29
f 3 29 24
f 3 24 20
f 3 20 16
f 3 16 12
f 3 12 8
f 3 8 4
f 4 8 9
f 4 9 5
f 7 11 14
f 7 14 10
f 8 12 13
f 8 13 9
f 11 15 18
f 11 18 14
f 12 16 17
f 12 17 13
f 15 19 22
f 15 22 18
f 16 20 21
f 16 21 17
f 19 23 26
f 19 26 22
f 20 24 25
f 20 25 21
f 23 27 28
f 23 28 26
f 24 29 30
f 24 30 25
f 27 31 32
f 27 32 28
f 29 33 30
f 30 33 34
f 30 34 35
f 31 36 32
f 32 36 37
f 34 38 39
f 34 39 35
f 36 40 37
f 37 40 41
f 38 42 43
f 38 43 39
f 40 44 41
f 41 44 45
f 42 46 47
f 42 47 43
f 44 48 45
f 45 48 49
f 46 50 51
f 46 51 47
f 48 52 49
f 49 52 53
f 50 54 55
f 50 55 51
f 52 56 53
f 53 57 58
f 53 56 57
f 54 59 60
f 54 60 55
f 57 61 58
f 57 62 61
f 59 63 64
f 59 64 60
f 61 62 66
f 61 66 65
f 63 67 64
f 64 67 68
f 65 66 69
f 66 70 69
f 66 71 70
f 67 72 73
f 67 73 68
f 70 71 75
f 70 75 74
f 72 76 77
f 72 77 73
f 74 75 79
f 74 79 78
f 76 80 77
f 77 80 81
f 78 79 82
f 79 83 82
f 80 84 85
f 80 85 81
f 80 86 84
f 82 83 84
f 82 84 86