# https://github.com/mikedh/trimesh
v 0.02500000 0.02400000 0.01151984 0.08627451 0.01960784 0.83137255
v 0.02500000 0.02392661 0.01216085 0.08627451 0.01960784 0.83137255
v 0.02500000 0.02400000 -0.00354128 0.08627451 0.01960784 0.83137255
v -0.07500000 0.02400000 0.01151984 0.08627451 0.01960784 0.83137255
v 0.02500000 0.02371397 0.01276850 0.08627451 0.01960784 0.83137255
v -0.07500000 0.02392661 0.01216085 0.08627451 0.01960784 0.83137255
v 0.02500000 0.01086332 -0.00354128 0.08627451 0.01960784 0.83137255
v -0.07500000 0.02400000 -0.00354128 0.08627451 0.01960784 0.83137255
v 0.02500000 0.02337149 0.01331467 0.08627451 0.01960784 0.83137255
v -0.07500000 0.02371397 0.01276850 0.08627451 0.01960784 0.83137255
v 0.02500000 0.00477578 0.00019590 0.08627451 0.01960784 0.83137255
v -0.07500000 0.01086332 -0.00354128 0.08627451 0.01960784 0.83137255
v 0.02500000 0.02291422 0.01377128 0.08627451 0.01960784 0.83137255
v -0.07500000 0.02337149 0.01331467 0.08627451 0.01960784 0.83137255
v 0.02500000 0.00477578 0.01440000 0.08627451 0.01960784 0.83137255
v -0.07500000 0.00477578 0.00019590 0.08627451 0.01960784 0.83137255
v 0.02500000 0.02236850 0.01411374 0.08627451 0.01960784 0.83137255
v -0.07500000 0.02291422 0.01377128 0.08627451 0.01960784 0.83137255
v 0.02500000 0.02111900 0.01440000 0.08627451 0.01960784 0.83137255
v -0.07500000 0.00477578 0.01440000 0.08627451 0.01960784 0.83137255
v 0.02500000 0.02176069 0.01432624 0.08627451 0.01960784 0.83137255
v -0.07500000 0.02236850 0.01411374 0.08627451 0.01960784 0.83137255
v -0.07500000 0.02111900 0.01440000 0.08627451 0.01960784 0.83137255
v -0.07500000 0.02176069 0.01432624 0.08627451 0.01960784 0.83137255
f 1 2 5
f 1 5 9
f 1 9 13
f 1 13 17
f 1 17 21
f 1 21 19
f 1 19 15
f 1 15 11
f 1 11 7
f 1 7 3
f 1 3 8
f 1 8 4
f 1 4 6
f 1 6 2
f 2 6 10
f 2 10 5
f 3 7 12
f 3 12 8
f 4 8 12
f 4 12 16
f 4 16 20
f 4 20 23
f 4 23 24
f 4 24 22
f 4 22 18
f 4 18 14
f 4 14 10
f 4 10 6
f 5 10 14
f 5 14 9
f 7 11 16
f 7 16 12
f 9 14 18
f 9 18 13
f 11 15 20
f 11 20 16
f 13 18 22
f 13 22 17
f 15 19 23
f 15 23 20
f 17 22 24
f 17 24 21
f 19 21 24
f 19 24 23