# https://github.com/mikedh/trimesh
v 0.02500000 0.02400000 -0.00354235 0.54509804 0.71372549 0.60000000
v 0.02500000 0.02400000 -0.01151951 0.54509804 0.71372549 0.60000000
v -0.07500000 0.02400000 -0.00354235 0.54509804 0.71372549 0.60000000
v 0.02500000 0.01086194 -0.00354235 0.54509804 0.71372549 0.60000000
v 0.02500000 0.02392670 -0.01216044 0.54509804 0.71372549 0.60000000
v -0.07500000 0.02400000 -0.01151951 0.54509804 0.71372549 0.60000000
v -0.07500000 0.01086194 -0.00354235 0.54509804 0.71372549 0.60000000
v 0.02500000 0.01535275 -0.01262494 0.54509804 0.71372549 0.60000000
v 0.02500000 0.02371450 -0.01276949 0.54509804 0.71372549 0.60000000
v -0.07500000 0.02392670 -0.01216044 0.54509804 0.71372549 0.60000000
v -0.07500000 0.01535275 -0.01262494 0.54509804 0.71372549 0.60000000
v 0.02500000 0.01568326 -0.01321485 0.54509804 0.71372549 0.60000000
v 0.02500000 0.02337113 -0.01331477 0.54509804 0.71372549 0.60000000
v -0.07500000 0.02371450 -0.01276949 0.54509804 0.71372549 0.60000000
v -0.07500000 0.01568326 -0.01321485 0.54509804 0.71372549 0.60000000
v 0.02500000 0.01614366 -0.01371123 0.54509804 0.71372549 0.60000000
v 0.02500000 0.02291459 -0.01377076 0.54509804 0.71372549 0.60000000
v -0.07500000 0.02337113 -0.01331477 0.54509804 0.71372549 0.60000000
v -0.07500000 0.01614366 -0.01371123 0.54509804 0.71372549 0.60000000
v 0.02500000 0.01670565 -0.01408644 0.54509804 0.71372549 0.60000000
v 0.02500000 0.02236932 -0.01411408 0.54509804 0.71372549 0.60000000
v -0.07500000 0.02291459 -0.01377076 0.54509804 0.71372549 0.60000000
v -0.07500000 0.01670565 -0.01408644 0.54509804 0.71372549 0.60000000
v 0.02500000 0.01733966 -0.01432028 0.54509804 0.71372549 0.60000000
v 0.02500000 0.02175974 -0.01432772 0.54509804 0.71372549 0.60000000
v -0.07500000 0.02236932 -0.01411408 0.54509804 0.71372549 0.60000000
v -0.07500000 0.01733966 -0.01432028 0.54509804 0.71372549 0.60000000
v 0.02500000 0.01801097 -0.01440000 0.54509804 0.71372549 0.60000000
v 0.02500000 0.02111930 -0.01440000 0.54509804 0.71372549 0.60000000
v -0.07500000 0.02175974 -0.01432772 0.54509804 0.71372549 0.60000000
v -0.07500000 0.01801097 -0.01440000 0.54509804 0.71372549 0.60000000
v -0.07500000 0.02111930 -0.01440000 0.54509804 0.71372549 0.60000000
f 1 2 6
f 1 6 3
f 1 3 7
f 1 7 4
f 1 4 8
f 1 8 12
f 1 12 16
f 1 16 20
f 1 20 24
f 1 24 28
f 1 28 29
f 1 29 25
f 1 25 21
f 1 21 17
f 1 17 13
f 1 13 9
f 1 9 5
f 1 5 2
f 2 5 10
f 2 10 6
f 3 6 10
f 3 10 14
f 3 14 18
f 3 18 22
f 3 22 26
f 3 26 30
f 3 30 32
f 3 32 31
f 3 31 27
f 3 27 23
f 3 23 19
f 3 19 15
f 3 15 11
f 3 11 7
f 4 7 11
f 4 11 8
f 5 9 14
f 5 14 10
f 8 11 15
f 8 15 12
f 9 13 18
f 9 18 14
f 12 15 19
f 12 19 16
f 13 17 22
f 13 22 18
f 16 19 23
f 16 23 20
f 17 21 26
f 17 26 22
f 20 23 27
f 20 27 24
f 21 25 30
f 21 30 26
f 24 27 31
f 24 31 28
f 25 29 32
f 25 32 30
f 28 31 32
f 28 32 29