# https://github.com/mikedh/trimesh
v -0.07500000 -0.00902733 -0.00197368 0.43529412 0.89019608 0.96078431
v -0.07500000 -0.00902733 0.01440000 0.43529412 0.89019608 0.96078431
v -0.07500000 -0.00240356 0.00077504 0.43529412 0.89019608 0.96078431
v -0.07485317 -0.00240356 0.00077183 0.43529412 0.89019608 0.96078431
v 0.02500000 -0.00902733 -0.00197368 0.43529412 0.89019608 0.96078431
v -0.07500000 -0.00240356 0.01440000 0.43529412 0.89019608 0.96078431
v 0.02500000 -0.00902733 0.01440000 0.43529412 0.89019608 0.96078431
v 0.02500000 -0.00240356 0.00077183 0.43529412 0.89019608 0.96078431
v 0.02500000 -0.00240356 0.01440000 0.43529412 0.89019608 0.96078431
f 1 2 6
f 1 6 3
f 1 3 4
f 1 4 8
f 1 8 5
f 1 5 7
f 1 7 2
f 2 7 9
f 2 9 6
f 3 6 9
f 3 9 8
f 3 8 4
f 5 8 9
f 5 9 7