# https://github.com/mikedh/trimesh
v -0.07500000 0.00477578 0.00019570 0.38039216 0.78823529 0.52549020
v -0.07485317 -0.00240356 0.00077132 0.38039216 0.78823529 0.52549020
v -0.07500000 -0.00240005 0.00077132 0.38039216 0.78823529 0.52549020
v -0.07500000 0.00477578 0.01440000 0.38039216 0.78823529 0.52549020
v 0.02500000 0.00477578 0.00019570 0.38039216 0.78823529 0.52549020
v -0.07500000 -0.00240356 0.00077410 0.38039216 0.78823529 0.52549020
v 0.02500000 -0.00240356 0.00077132 0.38039216 0.78823529 0.52549020
v -0.07500000 -0.00240356 0.01440000 0.38039216 0.78823529 0.52549020
v 0.02500000 0.00477578 0.01440000 0.38039216 0.78823529 0.52549020
v 0.02500000 -0.00240356 0.01440000 0.38039216 0.78823529 0.52549020
f 1 2 3
f 1 3 6
f 1 6 8
f 1 8 4
f 1 4 9
f 1 9 5
f 1 5 7
f 1 7 2
f 2 6 3
f 2 7 10
f 2 10 8
f 2 8 6
f 4 8 10
f 4 10 9
f 5 9 10
f 5 10 7