# https://github.com/mikedh/trimesh
v -0.07500000 -0.02111969 -0.01440000 0.54117647 0.42352941 0.64313725
v -0.07500000 -0.01801144 -0.01440000 0.54117647 0.42352941 0.64313725
v 0.02500000 -0.02111969 -0.01440000 0.54117647 0.42352941 0.64313725
v -0.07500000 -0.02176039 -0.01432670 0.54117647 0.42352941 0.64313725
v -0.07500000 -0.01734013 -0.01431825 0.54117647 0.42352941 0.64313725
v 0.02500000 -0.01801144 -0.01440000 0.54117647 0.42352941 0.64313725
v 0.02500000 -0.02176039 -0.01432670 0.54117647 0.42352941 0.64313725
v -0.07500000 -0.02236933 -0.01411245 0.54117647 0.42352941 0.64313725
v -0.07500000 -0.01670510 -0.01408426 0.54117647 0.42352941 0.64313725
v 0.02500000 -0.01734013 -0.01431825 0.54117647 0.42352941 0.64313725
v 0.02500000 -0.02236933 -0.01411245 0.54117647 0.42352941 0.64313725
v -0.07500000 -0.02291478 -0.01377134 0.54117647 0.42352941 0.64313725
v -0.07500000 -0.01614264 -0.01370932 0.54117647 0.42352941 0.64313725
v 0.02500000 -0.01670510 -0.01408426 0.54117647 0.42352941 0.64313725
v 0.02500000 -0.02291478 -0.01377134 0.54117647 0.42352941 0.64313725
v -0.07500000 -0.02337064 -0.01331464 0.54117647 0.42352941 0.64313725
v -0.07500000 -0.01568338 -0.01321316 0.54117647 0.42352941 0.64313725
v 0.02500000 -0.01614264 -0.01370932 0.54117647 0.42352941 0.64313725
v 0.02500000 -0.02337064 -0.01331464 0.54117647 0.42352941 0.64313725
v -0.07500000 -0.02371424 -0.01276774 0.54117647 0.42352941 0.64313725
v -0.07500000 -0.01535226 -0.01262396 0.54117647 0.42352941 0.64313725
v 0.02500000 -0.01568338 -0.01321316 0.54117647 0.42352941 0.64313725
v 0.02500000 -0.02371424 -0.01276774 0.54117647 0.42352941 0.64313725
v -0.07500000 -0.02392742 -0.01215881 0.54117647 0.42352941 0.64313725
v -0.07500000 -0.01241638 -0.00535630 0.54117647 0.42352941 0.64313725
v 0.02500000 -0.01535226 -0.01262396 0.54117647 0.42352941 0.64313725
v 0.02500000 -0.02392742 -0.01215881 0.54117647 0.42352941 0.64313725
v -0.07500000 -0.02400000 -0.01151887 0.54117647 0.42352941 0.64313725
v -0.07500000 -0.01241638 0.01440000 0.54117647 0.42352941 0.64313725
v 0.02500000 -0.01241638 -0.00535630 0.54117647 0.42352941 0.64313725
v 0.02500000 -0.02400000 -0.01151887 0.54117647 0.42352941 0.64313725
v -0.07500000 -0.02400000 0.01151887 0.54117647 0.42352941 0.64313725
v -0.07500000 -0.02111969 0.01440000 0.54117647 0.42352941 0.64313725
v 0.02500000 -0.01241638 0.01440000 0.54117647 0.42352941 0.64313725
v 0.02500000 -0.02400000 0.01151887 0.54117647 0.42352941 0.64313725
v -0.07500000 -0.02392742 0.01215881 0.54117647 0.42352941 0.64313725
v -0.07500000 -0.02176039 0.01432670 0.54117647 0.42352941 0.64313725
v 0.02500000 -0.02111969 0.01440000 0.54117647 0.42352941 0.64313725
v 0.02500000 -0.02392742 0.01215881 0.54117647 0.42352941 0.64313725
v -0.07500000 -0.02371424 0.01276774 0.54117647 0.42352941 0.64313725
v -0.07500000 -0.02236933 0.01411245 0.54117647 0.42352941 0.64313725
v 0.02500000 -0.02176039 0.01432670 0.54117647 0.42352941 0.64313725
v 0.02500000 -0.02371424 0.01276774 0.54117647 0.42352941 0.64313725
v -0.07500000 -0.02337064 0.01331464 0.54117647 0.42352941 0.64313725
v -0.07500000 -0.02291478 0.01377134 0.54117647 0.42352941 0.64313725
v 0.02500000 -0.02236933 0.01411245 0.54117647 0.42352941 0.64313725
v 0.02500000 -0.02337064 0.01331464 0.54117647 0.42352941 0.64313725
v 0.02500000 -0.02291478 0.01377134 0.54117647 0.42352941 0.64313725
f 1 2 6
f 1 6 3
f 1 3 7
f 1 7 4
f 1 4 8
f 1 8 12
f 1 12 16
f 1 16 20
f 1 20 24
f 1 24 28
f 1 28 32
f 1 32 36
f 1 36 40
f 1 40 44
f 1 44 45
f 1 45 41
f 1 41 37
f 1 37 33
f 1 33 29
f 1 29 25
f 1 25 21
f 1 21 17
f 1 17 13
f 1 13 9
f 1 9 5
f 1 5 2
f 2 5 10
f 2 10 6
f 3 6 10
f 3 10 14
f 3 14 18
f 3 18 22
f 3 22 26
f 3 26 30
f 3 30 34
f 3 34 38
f 3 38 42
f 3 42 46
f 3 46 48
f 3 48 47
f 3 47 43
f 3 43 39
f 3 39 35
f 3 35 31
f 3 31 27
f 3 27 23
f 3 23 19
f 3 19 15
f 3 15 11
f 3 11 7
f 4 7 11
f 4 11 8
f 5 9 14
f 5 14 10
f 8 11 15
f 8 15 12
f 9 13 18
f 9 18 14
f 12 15 19
f 12 19 16
f 13 17 22
f 13 22 18
f 16 19 23
f 16 23 20
f 17 21 26
f 17 26 22
f 20 23 27
f 20 27 24
f 21 25 30
f 21 30 26
f 24 27 31
f 24 31 28
f 25 29 34
f 25 34 30
f 28 31 35
f 28 35 32
f 29 33 38
f 29 38 34
f 32 35 39
f 32 39 36
f 33 37 42
f 33 42 38
f 36 39 43
f 36 43 40
f 37 41 46
f 37 46 42
f 40 43 47
f 40 47 44
f 41 45 48
f 41 48 46
f 44 47 48
f 44 48 45