# https://github.com/mikedh/trimesh
v -0.07500000 -0.01241525 -0.00535665 0.56470588 0.92549020 0.07058824
v -0.07500000 -0.00902733 -0.00197234 0.56470588 0.92549020 0.07058824
v 0.02500000 -0.01241525 -0.00535665 0.56470588 0.92549020 0.07058824
v -0.07500000 -0.01241525 0.01440000 0.56470588 0.92549020 0.07058824
v -0.07500000 -0.00902733 0.01440000 0.56470588 0.92549020 0.07058824
v 0.02500000 -0.00902733 -0.00197234 0.56470588 0.92549020 0.07058824
v 0.02500000 -0.01241525 0.01440000 0.56470588 0.92549020 0.07058824
v 0.02500000 -0.00902733 0.01440000 0.56470588 0.92549020 0.07058824
f 1 2 6
f 1 6 3
f 1 3 7
f 1 7 4
f 1 4 5
f 1 5 2
f 2 5 8
f 2 8 6
f 3 6 8
f 3 8 7
f 4 7 8
f 4 8 5