# https://github.com/mikedh/trimesh

o geometry_0
v 0.02500000 0.02400000 -0.00354235 0.54509804 0.71372549 0.60000000
v 0.02500000 0.02400000 -0.01151951 0.54509804 0.71372549 0.60000000
v -0.07500000 0.02400000 -0.00354235 0.54509804 0.71372549 0.60000000
v 0.02500000 0.01086194 -0.00354235 0.54509804 0.71372549 0.60000000
v 0.02500000 0.02392670 -0.01216044 0.54509804 0.71372549 0.60000000
v -0.07500000 0.02400000 -0.01151951 0.54509804 0.71372549 0.60000000
v -0.07500000 0.01086194 -0.00354235 0.54509804 0.71372549 0.60000000
v 0.02500000 0.01535275 -0.01262494 0.54509804 0.71372549 0.60000000
v 0.02500000 0.02371450 -0.01276949 0.54509804 0.71372549 0.60000000
v -0.07500000 0.02392670 -0.01216044 0.54509804 0.71372549 0.60000000
v -0.07500000 0.01535275 -0.01262494 0.54509804 0.71372549 0.60000000
v 0.02500000 0.01568326 -0.01321485 0.54509804 0.71372549 0.60000000
v 0.02500000 0.02337113 -0.01331477 0.54509804 0.71372549 0.60000000
v -0.07500000 0.02371450 -0.01276949 0.54509804 0.71372549 0.60000000
v -0.07500000 0.01568326 -0.01321485 0.54509804 0.71372549 0.60000000
v 0.02500000 0.01614366 -0.01371123 0.54509804 0.71372549 0.60000000
v 0.02500000 0.02291459 -0.01377076 0.54509804 0.71372549 0.60000000
v -0.07500000 0.02337113 -0.01331477 0.54509804 0.71372549 0.60000000
v -0.07500000 0.01614366 -0.01371123 0.54509804 0.71372549 0.60000000
v 0.02500000 0.01670565 -0.01408644 0.54509804 0.71372549 0.60000000
v 0.02500000 0.02236932 -0.01411408 0.54509804 0.71372549 0.60000000
v -0.07500000 0.02291459 -0.01377076 0.54509804 0.71372549 0.60000000
v -0.07500000 0.01670565 -0.01408644 0.54509804 0.71372549 0.60000000
v 0.02500000 0.01733966 -0.01432028 0.54509804 0.71372549 0.60000000
v 0.02500000 0.02175974 -0.01432772 0.54509804 0.71372549 0.60000000
v -0.07500000 0.02236932 -0.01411408 0.54509804 0.71372549 0.60000000
v -0.07500000 0.01733966 -0.01432028 0.54509804 0.71372549 0.60000000
v 0.02500000 0.01801097 -0.01440000 0.54509804 0.71372549 0.60000000
v 0.02500000 0.02111930 -0.01440000 0.54509804 0.71372549 0.60000000
v -0.07500000 0.02175974 -0.01432772 0.54509804 0.71372549 0.60000000
v -0.07500000 0.01801097 -0.01440000 0.54509804 0.71372549 0.60000000
v -0.07500000 0.02111930 -0.01440000 0.54509804 0.71372549 0.60000000
f 1 2 6
f 1 6 3
f 1 3 7
f 1 7 4
f 1 4 8
f 1 8 12
f 1 12 16
f 1 16 20
f 1 20 24
f 1 24 28
f 1 28 29
f 1 29 25
f 1 25 21
f 1 21 17
f 1 17 13
f 1 13 9
f 1 9 5
f 1 5 2
f 2 5 10
f 2 10 6
f 3 6 10
f 3 10 14
f 3 14 18
f 3 18 22
f 3 22 26
f 3 26 30
f 3 30 32
f 3 32 31
f 3 31 27
f 3 27 23
f 3 23 19
f 3 19 15
f 3 15 11
f 3 11 7
f 4 7 11
f 4 11 8
f 5 9 14
f 5 14 10
f 8 11 15
f 8 15 12
f 9 13 18
f 9 18 14
f 12 15 19
f 12 19 16
f 13 17 22
f 13 22 18
f 16 19 23
f 16 23 20
f 17 21 26
f 17 26 22
f 20 23 27
f 20 27 24
f 21 25 30
f 21 30 26
f 24 27 31
f 24 31 28
f 25 29 32
f 25 32 30
f 28 31 32
f 28 32 29

o geometry_1
v -0.07500000 -0.02111969 -0.01440000 0.54117647 0.42352941 0.64313725
v -0.07500000 -0.01801144 -0.01440000 0.54117647 0.42352941 0.64313725
v 0.02500000 -0.02111969 -0.01440000 0.54117647 0.42352941 0.64313725
v -0.07500000 -0.02176039 -0.01432670 0.54117647 0.42352941 0.64313725
v -0.07500000 -0.01734013 -0.01431825 0.54117647 0.42352941 0.64313725
v 0.02500000 -0.01801144 -0.01440000 0.54117647 0.42352941 0.64313725
v 0.02500000 -0.02176039 -0.01432670 0.54117647 0.42352941 0.64313725
v -0.07500000 -0.02236933 -0.01411245 0.54117647 0.42352941 0.64313725
v -0.07500000 -0.01670510 -0.01408426 0.54117647 0.42352941 0.64313725
v 0.02500000 -0.01734013 -0.01431825 0.54117647 0.42352941 0.64313725
v 0.02500000 -0.02236933 -0.01411245 0.54117647 0.42352941 0.64313725
v -0.07500000 -0.02291478 -0.01377134 0.54117647 0.42352941 0.64313725
v -0.07500000 -0.01614264 -0.01370932 0.54117647 0.42352941 0.64313725
v 0.02500000 -0.01670510 -0.01408426 0.54117647 0.42352941 0.64313725
v 0.02500000 -0.02291478 -0.01377134 0.54117647 0.42352941 0.64313725
v -0.07500000 -0.02337064 -0.01331464 0.54117647 0.42352941 0.64313725
v -0.07500000 -0.01568338 -0.01321316 0.54117647 0.42352941 0.64313725
v 0.02500000 -0.01614264 -0.01370932 0.54117647 0.42352941 0.64313725
v 0.02500000 -0.02337064 -0.01331464 0.54117647 0.42352941 0.64313725
v -0.07500000 -0.02371424 -0.01276774 0.54117647 0.42352941 0.64313725
v -0.07500000 -0.01535226 -0.01262396 0.54117647 0.42352941 0.64313725
v 0.02500000 -0.01568338 -0.01321316 0.54117647 0.42352941 0.64313725
v 0.02500000 -0.02371424 -0.01276774 0.54117647 0.42352941 0.64313725
v -0.07500000 -0.02392742 -0.01215881 0.54117647 0.42352941 0.64313725
v -0.07500000 -0.01241638 -0.00535630 0.54117647 0.42352941 0.64313725
v 0.02500000 -0.01535226 -0.01262396 0.54117647 0.42352941 0.64313725
v 0.02500000 -0.02392742 -0.01215881 0.54117647 0.42352941 0.64313725
v -0.07500000 -0.02400000 -0.01151887 0.54117647 0.42352941 0.64313725
v -0.07500000 -0.01241638 0.01440000 0.54117647 0.42352941 0.64313725
v 0.02500000 -0.01241638 -0.00535630 0.54117647 0.42352941 0.64313725
v 0.02500000 -0.02400000 -0.01151887 0.54117647 0.42352941 0.64313725
v -0.07500000 -0.02400000 0.01151887 0.54117647 0.42352941 0.64313725
v -0.07500000 -0.02111969 0.01440000 0.54117647 0.42352941 0.64313725
v 0.02500000 -0.01241638 0.01440000 0.54117647 0.42352941 0.64313725
v 0.02500000 -0.02400000 0.01151887 0.54117647 0.42352941 0.64313725
v -0.07500000 -0.02392742 0.01215881 0.54117647 0.42352941 0.64313725
v -0.07500000 -0.02176039 0.01432670 0.54117647 0.42352941 0.64313725
v 0.02500000 -0.02111969 0.01440000 0.54117647 0.42352941 0.64313725
v 0.02500000 -0.02392742 0.01215881 0.54117647 0.42352941 0.64313725
v -0.07500000 -0.02371424 0.01276774 0.54117647 0.42352941 0.64313725
v -0.07500000 -0.02236933 0.01411245 0.54117647 0.42352941 0.64313725
v 0.02500000 -0.02176039 0.01432670 0.54117647 0.42352941 0.64313725
v 0.02500000 -0.02371424 0.01276774 0.54117647 0.42352941 0.64313725
v -0.07500000 -0.02337064 0.01331464 0.54117647 0.42352941 0.64313725
v -0.07500000 -0.02291478 0.01377134 0.54117647 0.42352941 0.64313725
v 0.02500000 -0.02236933 0.01411245 0.54117647 0.42352941 0.64313725
v 0.02500000 -0.02337064 0.01331464 0.54117647 0.42352941 0.64313725
v 0.02500000 -0.02291478 0.01377134 0.54117647 0.42352941 0.64313725
f 33 34 38
f 33 38 35
f 33 35 39
f 33 39 36
f 33 36 40
f 33 40 44
f 33 44 48
f 33 48 52
f 33 52 56
f 33 56 60
f 33 60 64
f 33 64 68
f 33 68 72
f 33 72 76
f 33 76 77
f 33 77 73
f 33 73 69
f 33 69 65
f 33 65 61
f 33 61 57
f 33 57 53
f 33 53 49
f 33 49 45
f 33 45 41
f 33 41 37
f 33 37 34
f 34 37 42
f 34 42 38
f 35 38 42
f 35 42 46
f 35 46 50
f 35 50 54
f 35 54 58
f 35 58 62
f 35 62 66
f 35 66 70
f 35 70 74
f 35 74 78
f 35 78 80
f 35 80 79
f 35 79 75
f 35 75 71
f 35 71 67
f 35 67 63
f 35 63 59
f 35 59 55
f 35 55 51
f 35 51 47
f 35 47 43
f 35 43 39
f 36 39 43
f 36 43 40
f 37 41 46
f 37 46 42
f 40 43 47
f 40 47 44
f 41 45 50
f 41 50 46
f 44 47 51
f 44 51 48
f 45 49 54
f 45 54 50
f 48 51 55
f 48 55 52
f 49 53 58
f 49 58 54
f 52 55 59
f 52 59 56
f 53 57 62
f 53 62 58
f 56 59 63
f 56 63 60
f 57 61 66
f 57 66 62
f 60 63 67
f 60 67 64
f 61 65 70
f 61 70 66
f 64 67 71
f 64 71 68
f 65 69 74
f 65 74 70
f 68 71 75
f 68 75 72
f 69 73 78
f 69 78 74
f 72 75 79
f 72 79 76
f 73 77 80
f 73 80 78
f 76 79 80
f 76 80 77

o geometry_2
v -0.07500000 -0.00902733 -0.00197368 0.43529412 0.89019608 0.96078431
v -0.07500000 -0.00902733 0.01440000 0.43529412 0.89019608 0.96078431
v -0.07500000 -0.00240356 0.00077504 0.43529412 0.89019608 0.96078431
v -0.07485317 -0.00240356 0.00077183 0.43529412 0.89019608 0.96078431
v 0.02500000 -0.00902733 -0.00197368 0.43529412 0.89019608 0.96078431
v -0.07500000 -0.00240356 0.01440000 0.43529412 0.89019608 0.96078431
v 0.02500000 -0.00902733 0.01440000 0.43529412 0.89019608 0.96078431
v 0.02500000 -0.00240356 0.00077183 0.43529412 0.89019608 0.96078431
v 0.02500000 -0.00240356 0.01440000 0.43529412 0.89019608 0.96078431
f 81 82 86
f 81 86 83
f 81 83 84
f 81 84 88
f 81 88 85
f 81 85 87
f 81 87 82
f 82 87 89
f 82 89 86
f 83 86 89
f 83 89 88
f 83 88 84
f 85 88 89
f 85 89 87

o geometry_3
v -0.07500000 0.00477578 0.00019570 0.38039216 0.78823529 0.52549020
v -0.07485317 -0.00240356 0.00077132 0.38039216 0.78823529 0.52549020
v -0.07500000 -0.00240005 0.00077132 0.38039216 0.78823529 0.52549020
v -0.07500000 0.00477578 0.01440000 0.38039216 0.78823529 0.52549020
v 0.02500000 0.00477578 0.00019570 0.38039216 0.78823529 0.52549020
v -0.07500000 -0.00240356 0.00077410 0.38039216 0.78823529 0.52549020
v 0.02500000 -0.00240356 0.00077132 0.38039216 0.78823529 0.52549020
v -0.07500000 -0.00240356 0.01440000 0.38039216 0.78823529 0.52549020
v 0.02500000 0.00477578 0.01440000 0.38039216 0.78823529 0.52549020
v 0.02500000 -0.00240356 0.01440000 0.38039216 0.78823529 0.52549020
f 90 91 92
f 90 92 95
f 90 95 97
f 90 97 93
f 90 93 98
f 90 98 94
f 90 94 96
f 90 96 91
f 91 95 92
f 91 96 99
f 91 99 97
f 91 97 95
f 93 97 99
f 93 99 98
f 94 98 99
f 94 99 96

o geometry_4
v -0.07500000 -0.01241525 -0.00535665 0.56470588 0.92549020 0.07058824
v -0.07500000 -0.00902733 -0.00197234 0.56470588 0.92549020 0.07058824
v 0.02500000 -0.01241525 -0.00535665 0.56470588 0.92549020 0.07058824
v -0.07500000 -0.01241525 0.01440000 0.56470588 0.92549020 0.07058824
v -0.07500000 -0.00902733 0.01440000 0.56470588 0.92549020 0.07058824
v 0.02500000 -0.00902733 -0.00197234 0.56470588 0.92549020 0.07058824
v 0.02500000 -0.01241525 0.01440000 0.56470588 0.92549020 0.07058824
v 0.02500000 -0.00902733 0.01440000 0.56470588 0.92549020 0.07058824
f 100 101 105
f 100 105 102
f 100 102 106
f 100 106 103
f 100 103 104
f 100 104 101
f 101 104 107
f 101 107 105
f 102 105 107
f 102 107 106
f 103 106 107
f 103 107 104

o geometry_5
v 0.02500000 0.02400000 0.01151984 0.08627451 0.01960784 0.83137255
v 0.02500000 0.02392661 0.01216085 0.08627451 0.01960784 0.83137255
v 0.02500000 0.02400000 -0.00354128 0.08627451 0.01960784 0.83137255
v -0.07500000 0.02400000 0.01151984 0.08627451 0.01960784 0.83137255
v 0.02500000 0.02371397 0.01276850 0.08627451 0.01960784 0.83137255
v -0.07500000 0.02392661 0.01216085 0.08627451 0.01960784 0.83137255
v 0.02500000 0.01086332 -0.00354128 0.08627451 0.01960784 0.83137255
v -0.07500000 0.02400000 -0.00354128 0.08627451 0.01960784 0.83137255
v 0.02500000 0.02337149 0.01331467 0.08627451 0.01960784 0.83137255
v -0.07500000 0.02371397 0.01276850 0.08627451 0.01960784 0.83137255
v 0.02500000 0.00477578 0.00019590 0.08627451 0.01960784 0.83137255
v -0.07500000 0.01086332 -0.00354128 0.08627451 0.01960784 0.83137255
v 0.02500000 0.02291422 0.01377128 0.08627451 0.01960784 0.83137255
v -0.07500000 0.02337149 0.01331467 0.08627451 0.01960784 0.83137255
v 0.02500000 0.00477578 0.01440000 0.08627451 0.01960784 0.83137255
v -0.07500000 0.00477578 0.00019590 0.08627451 0.01960784 0.83137255
v 0.02500000 0.02236850 0.01411374 0.08627451 0.01960784 0.83137255
v -0.07500000 0.02291422 0.01377128 0.08627451 0.01960784 0.83137255
v 0.02500000 0.02111900 0.01440000 0.08627451 0.01960784 0.83137255
v -0.07500000 0.00477578 0.01440000 0.08627451 0.01960784 0.83137255
v 0.02500000 0.02176069 0.01432624 0.08627451 0.01960784 0.83137255
v -0.07500000 0.02236850 0.01411374 0.08627451 0.01960784 0.83137255
v -0.07500000 0.02111900 0.01440000 0.08627451 0.01960784 0.83137255
v -0.07500000 0.02176069 0.01432624 0.08627451 0.01960784 0.83137255
f 108 109 112
f 108 112 116
f 108 116 120
f 108 120 124
f 108 124 128
f 108 128 126
f 108 126 122
f 108 122 118
f 108 118 114
f 108 114 110
f 108 110 115
f 108 115 111
f 108 111 113
f 108 113 109
f 109 113 117
f 109 117 112
f 110 114 119
f 110 119 115
f 111 115 119
f 111 119 123
f 111 123 127
f 111 127 130
f 111 130 131
f 111 131 129
f 111 129 125
f 111 125 121
f 111 121 117
f 111 117 113
f 112 117 121
f 112 121 116
f 114 118 123
f 114 123 119
f 116 121 125
f 116 125 120
f 118 122 127
f 118 127 123
f 120 125 129
f 120 129 124
f 122 126 130
f 122 130 127
f 124 129 131
f 124 131 128
f 126 128 131
f 126 131 130