# https://github.com/mikedh/trimesh
v 0.06439003 0.01366938 -0.01899837
v 0.06439003 0.01366938 0.01910163
v 0.06439003 0.02382015 -0.01899837
v 0.06439003 0.02392452 0.01910163
v 0.06439003 0.02440182 -0.01899465
v 0.07163140 0.02438274 -0.01899837
v 0.06439003 0.02440182 0.01909791
v 0.07163140 0.02438274 0.01910163
v 0.06439003 0.02455074 -0.01898346
v 0.06439003 0.02472387 -0.01896855
v 0.06439003 0.02455074 0.01908672
v 0.06439003 0.02472387 0.01907181
v 0.06439003 0.02477478 -0.01896108
v 0.07163140 0.02477985 -0.01896108
v 0.06439003 0.02477478 0.01906434
v 0.07163140 0.02477985 0.01906434
v 0.06439003 0.02479896 -0.01895736
v 0.06439003 0.02479896 0.01906062
v 0.06439003 0.02487150 -0.01893870
v 0.06439003 0.02494278 -0.01892004
v 0.06439003 0.02487150 0.01904196
v 0.06439003 0.02494278 0.01902330
v 0.06439003 0.02513499 -0.01886784
v 0.07163140 0.02516553 -0.01886037
v 0.06439003 0.02539719 -0.01875222
v 0.07163140 0.02516553 0.01896363
v 0.06439003 0.02513499 0.01897110
v 0.06439003 0.02515917 -0.01886037
v 0.06439003 0.02519352 -0.01884546
v 0.06439003 0.02526099 -0.01881564
v 0.06439003 0.02548755 -0.01870749
v 0.07163140 0.02551554 -0.01869630
v 0.06439003 0.02550918 0.01880328
v 0.06439003 0.02539719 0.01885548
v 0.06439003 0.02526099 0.01891890
v 0.06439003 0.02519352 0.01894872
v 0.06439003 0.02515917 0.01896363
v 0.06439003 0.02554227 -0.01867764
v 0.07163140 0.02555754 -0.01867017
v 0.06439003 0.02557284 -0.01865898
v 0.07163140 0.02551554 0.01879956
v 0.07163140 0.02555754 0.01877343
v 0.06439003 0.02557284 0.01876224
v 0.06439003 0.02577522 -0.01851726
v 0.07163140 0.02580195 -0.01849863
v 0.07163140 0.02580195 0.01860189
v 0.06439003 0.02577522 0.01862052
v 0.06439003 0.02581722 -0.01848744
v 0.06439003 0.02583756 0.01857579
v 0.06439003 0.02586558 -0.01845015
v 0.07163140 0.02585286 -0.01846134
v 0.07163140 0.02585286 0.01856460
v 0.07163140 0.02586177 0.01855713
v 0.06439003 0.02588211 0.01853475
v 0.07163140 0.02586177 -0.01845387
v 0.06439003 0.02612142 -0.01819281
v 0.07163140 0.02610741 -0.01820772
v 0.07163140 0.02610741 0.01831098
v 0.06439003 0.02598012 0.01843779
v 0.06439003 0.02614431 -0.01816299
v 0.07163140 0.02613288 -0.01818162
v 0.07163140 0.02613288 0.01828488
v 0.06439003 0.02612142 0.01829607
v 0.06439003 0.02616597 -0.01813314
v 0.06439003 0.02625888 -0.01800261
v 0.07163140 0.02632761 -0.01790565
v 0.07163140 0.02632761 0.01800891
v 0.06439003 0.02625888 0.01810587
v 0.06439003 0.02616597 0.01823640
v 0.06439003 0.02614431 0.01826625
v 0.06439003 0.02635815 -0.01785717
v 0.07163140 0.02636199 -0.01785342
v 0.07163140 0.02636199 0.01795668
v 0.06439003 0.02635053 0.01797162
v 0.06439003 0.02638617 -0.01780122
v 0.07163140 0.02644218 -0.01768560
v 0.07163140 0.02644218 0.01778886
v 0.06439003 0.02638617 0.01790448
v 0.06439003 0.02637471 0.01792686
v 0.06439003 0.02651217 -0.01753269
v 0.06439003 0.02652234 0.01761357
v 0.06439003 0.02647017 0.01772547
v 0.06439003 0.02652744 -0.01749912
v 0.07163140 0.02652999 0.01759494
v 0.06439003 0.02653509 0.01757628
v 0.06439003 0.02654526 -0.01743945
v 0.07163140 0.02653380 -0.01748049
v 0.07163140 0.02653380 0.01758375
v 0.06439003 0.02654145 0.01755390
v 0.07163140 0.02654016 -0.01745811
v 0.06439003 0.02658981 -0.01727163
v 0.07163140 0.02661783 -0.01716720
v 0.06439003 0.02661909 0.01726674
v 0.06439003 0.02662800 -0.01712619
v 0.07163140 0.02663055 -0.01711872
v 0.07163140 0.02662419 0.01724811
v 0.06439003 0.02663181 0.01721826
v 0.06439003 0.02663436 -0.01710009
v 0.07163140 0.02663310 -0.01710753
v 0.07163140 0.02663310 0.01721079
v 0.07163140 0.02663436 0.01719960
v 0.06439003 0.02663562 0.01718097
v 0.06439003 0.02666490 -0.01675326
v 0.07163140 0.02666874 -0.01671222
v 0.07163140 0.02663691 0.01717350
v 0.06439003 0.02663817 0.01715487
v 0.07163140 0.02666874 0.01681548
v 0.06439003 0.02665599 0.01695720
v 0.06439003 0.02666619 -0.01673088
v 0.06439003 0.02666874 -0.01619757
v 0.06439003 0.02666874 0.01630083
v 0.06439003 0.02666619 0.01683414
v 0.06439003 0.02666490 0.01685652
f 1 2 4
f 1 4 7
f 1 7 11
f 1 11 12
f 1 12 15
f 1 15 18
f 1 18 21
f 1 21 22
f 1 22 27
f 1 27 37
f 1 37 36
f 1 36 35
f 1 35 34
f 1 34 33
f 1 33 43
f 1 43 47
f 1 47 49
f 1 49 54
f 1 54 59
f 1 59 63
f 1 63 70
f 1 70 69
f 1 69 68
f 1 68 74
f 1 74 79
f 1 79 78
f 1 78 82
f 1 82 81
f 1 81 85
f 1 85 89
f 1 89 93
f 1 93 97
f 1 97 102
f 1 102 106
f 1 106 108
f 1 108 113
f 1 113 112
f 1 112 111
f 1 111 110
f 1 110 109
f 1 109 103
f 1 103 98
f 1 98 94
f 1 94 91
f 1 91 86
f 1 86 83
f 1 83 80
f 1 80 75
f 1 75 71
f 1 71 65
f 1 65 64
f 1 64 60
f 1 60 56
f 1 56 50
f 1 50 48
f 1 48 44
f 1 44 40
f 1 40 38
f 1 38 31
f 1 31 25
f 1 25 30
f 1 30 29
f 1 29 28
f 1 28 23
f 1 23 20
f 1 20 19
f 1 19 17
f 1 17 13
f 1 13 10
f 1 10 9
f 1 9 5
f 1 5 3
f 1 3 6
f 2 8 4
f 3 5 6
f 4 8 7
f 5 9 6
f 6 9 10
f 7 8 11
f 8 12 11
f 10 13 14
f 12 16 15
f 13 17 14
f 15 16 18
f 20 23 24
f 22 26 27
f 23 28 24
f 24 28 29
f 24 29 30
f 24 30 25
f 25 31 32
f 26 33 34
f 26 34 35
f 26 35 36
f 26 36 37
f 26 37 27
f 31 38 32
f 32 38 40
f 32 40 39
f 33 41 42
f 33 42 43
f 39 40 44
f 39 44 45
f 42 46 47
f 42 47 43
f 44 48 45
f 45 48 51
f 46 49 47
f 48 50 51
f 49 52 53
f 49 53 54
f 50 55 51
f 50 56 57
f 53 58 59
f 53 59 54
f 56 60 61
f 56 61 57
f 58 62 63
f 58 63 59
f 60 64 61
f 61 64 65
f 61 65 66
f 62 67 68
f 62 68 69
f 62 69 70
f 62 70 63
f 65 71 66
f 66 71 72
f 67 73 74
f 67 74 68
f 71 75 72
f 72 75 76
f 73 77 78
f 73 78 79
f 73 79 74
f 75 80 76
f 77 81 82
f 77 82 78
f 81 84 88
f 81 88 85
f 83 86 87
f 85 88 89
f 86 90 87
f 86 91 92
f 88 93 89
f 91 94 95
f 91 95 92
f 93 96 97
f 94 98 95
f 95 98 99
f 97 100 101
f 97 101 102
f 98 103 104
f 101 105 106
f 101 106 102
f 103 109 104
f 104 109 110
f 104 110 111
f 104 111 107
f 105 108 106
f 107 111 112
f 107 112 113
f 107 113 108