# https://github.com/mikedh/trimesh
v 0.02917882 0.02667003 0.01681548
v 0.03972202 0.02665032 0.01703553
v 0.03972202 0.02666214 0.01689006
v 0.03972202 0.02666610 0.01682295
v 0.02917882 0.02667003 -0.01671222
v -0.03964340 0.02667003 0.01681548
v 0.03972202 0.02663061 0.01721079
v -0.03964340 0.02663454 0.01719960
v 0.01503055 0.02663454 0.01719960
v 0.03972202 0.02666610 -0.01671222
v 0.03972202 0.02666214 -0.01678680
v 0.01503055 0.02663454 -0.01709634
v -0.03964340 0.02665032 -0.01692852
v -0.02738315 0.02667003 -0.01671222
v -0.03964340 0.02667003 -0.01580223
v 0.03972202 0.02660694 0.01730403
v 0.01503055 0.02663061 0.01722198
v -0.03964340 0.02661090 0.01729659
v -0.01323488 0.02663061 0.01722198
v 0.03972202 0.02664243 -0.01698819
v 0.01503055 0.02663061 -0.01711872
v -0.01323488 0.02663454 -0.01709634
v 0.03972202 0.02663061 -0.01710753
v -0.03964340 0.02663061 -0.01711872
v -0.03964340 0.02666610 -0.01671969
v 0.03972202 0.02655570 0.01749798
v 0.02917882 0.02653203 0.01759494
v -0.03964340 0.02653203 0.01758375
v -0.02738315 0.02653203 0.01759494
v 0.02917882 0.02653203 -0.01749168
v 0.03972202 0.02653599 -0.01746558
v -0.03964340 0.02661090 -0.01719333
v 0.03972202 0.02653599 0.01756884
v -0.01323488 0.02640981 0.01785600
v 0.02917882 0.02636250 0.01795668
v 0.03972202 0.02637432 0.01793058
v 0.03972202 0.02640192 0.01787091
v 0.03972202 0.02652414 0.01760238
v -0.03964340 0.02651628 0.01762476
v -0.03964340 0.02636646 0.01794549
v -0.02738315 0.02636250 0.01795668
v 0.03972202 0.02652414 -0.01749912
v 0.03972202 0.02640192 -0.01776765
v 0.03972202 0.02637432 -0.01782732
v 0.02917882 0.02636250 -0.01785342
v -0.01323488 0.02640981 -0.01775274
v -0.02738315 0.02653203 -0.01749168
v -0.03964340 0.02653599 -0.01746183
v 0.03972202 0.02623635 0.01813944
v 0.03972202 0.02635461 0.01796415
v -0.03964340 0.02631126 0.01803129
v 0.03972202 0.02634279 -0.01787580
v 0.03972202 0.02631519 -0.01791684
v 0.03972202 0.02616537 -0.01813314
v 0.02917882 0.02613384 -0.01818162
v -0.03964340 0.02631126 -0.01792803
v -0.02738315 0.02636250 -0.01785342
v -0.03964340 0.02642559 -0.01771545
v -0.03964340 0.02652414 -0.01750287
v 0.02917882 0.02613384 0.01828488
v 0.03972202 0.02616537 0.01823640
v -0.02738315 0.02613384 0.01828488
v -0.03964340 0.02618508 0.01821030
v 0.03972202 0.02612595 -0.01818534
v 0.03972202 0.02609046 -0.01822266
v 0.03972202 0.02594853 -0.01836438
v 0.01503055 0.02591304 -0.01840167
v -0.02738315 0.02613384 -0.01818162
v -0.03964340 0.02618508 -0.01810704
v -0.03964340 0.02635461 -0.01786089
v -0.03964340 0.02637432 -0.01782360
v 0.01503055 0.02591304 0.01850493
v 0.03972202 0.02604711 0.01837065
v 0.03972202 0.02612595 0.01828860
v -0.03964340 0.02615748 0.01824759
v -0.03964340 0.02613777 0.01827369
v -0.03964340 0.02611017 0.01830726
v -0.01323488 0.02591304 0.01850493
v 0.03972202 0.02584209 -0.01846878
v 0.02917882 0.02588544 -0.01842777
v -0.01323488 0.02591304 -0.01840167
v -0.03964340 0.02587362 -0.01843896
v -0.03964340 0.02600373 -0.01830843
v -0.03964340 0.02612202 -0.01818909
v 0.02917882 0.02588544 0.01853103
v 0.03972202 0.02594853 0.01846764
v -0.03964340 0.02585784 0.01855713
v 0.03972202 0.02573562 -0.01854339
v 0.00089005 0.02554638 -0.01867764
v 0.00089005 0.02579082 -0.01850610
v -0.03964340 0.02584209 -0.01846878
v 0.03972202 0.02584209 0.01857204
v -0.03964340 0.02577900 0.01861680
v -0.02738315 0.02584998 0.01856460
v 0.03972202 0.02554638 -0.01867392
v 0.01503055 0.02551485 -0.01869630
v -0.03964340 0.02551485 -0.01869630
v -0.03964340 0.02559765 -0.01864035
v -0.03964340 0.02577900 -0.01851354
v 0.00089005 0.02579082 0.01860936
v 0.00089005 0.02554638 0.01878090
v 0.03972202 0.02560158 0.01873989
v -0.03964340 0.02553456 0.01878837
v 0.03972202 0.02549907 -0.01870374
v -0.03964340 0.02548332 -0.01871121
v 0.01503055 0.02551485 0.01879956
v 0.03972202 0.02554638 0.01877718
v -0.03964340 0.02549514 0.01880700
v -0.01323488 0.02551485 0.01879956
v 0.03972202 0.02516394 -0.01886037
v -0.03964340 0.02519154 -0.01884546
v -0.02738315 0.02516394 -0.01886037
v 0.03972202 0.02516394 0.01896363
v 0.03972202 0.02548725 0.01881075
v 0.03972202 0.02551485 0.01879581
v -0.03964340 0.02530194 0.01889652
v -0.02738315 0.02516394 0.01896363
v 0.03972202 0.02478942 -0.01896108
v -0.03964340 0.02515212 -0.01886037
v -0.03964340 0.02512059 -0.01887156
v 0.00089005 0.02489979 -0.01893123
v 0.00089005 0.02489979 0.01903449
v 0.03972202 0.02501019 0.01900467
v -0.03964340 0.02517183 0.01895619
v -0.03964340 0.02513241 0.01897110
v -0.03964340 0.02507721 0.01898601
v -0.01323488 0.02481306 0.01905687
v 0.03972202 0.02471844 -0.01896855
v 0.00089005 0.02475393 -0.01896480
v -0.02738315 0.02477757 -0.01896108
v -0.03964340 0.02480913 -0.01895361
v -0.01323488 0.02481306 -0.01895361
v 0.01503055 0.02481306 0.01905687
v 0.03972202 0.02485248 0.01904568
v -0.03964340 0.02482095 0.01905315
v -0.02738315 0.02477757 0.01906434
v 0.03972202 0.02442273 -0.01899465
v -0.02738315 0.02467902 -0.01897227
v -0.03964340 0.02476968 -0.01896108
v 0.03972202 0.02477757 0.01906434
v 0.02917882 0.02482488 0.01905315
v -0.03964340 0.02478942 0.01906062
v -0.03964340 0.02474604 0.01906806
v 0.00089005 0.02475393 0.01906806
v 0.03972202 0.02351988 -0.01899837
v 0.02917882 0.02437938 -0.01899837
v -0.03964340 0.02437938 -0.01899837
v -0.03964340 0.02462382 -0.01897599
v 0.03972202 0.02474997 0.01906806
v -0.03964340 0.02462382 0.01907925
v -0.02738315 0.02467902 0.01907553
v 0.03972202 0.02471844 0.01907181
v 0.03972202 0.01596192 -0.01899837
v -0.03964340 0.01596192 -0.01899837
v -0.03964340 0.02439120 0.01909791
v -0.02738315 0.02437938 0.01910163
v 0.03972202 0.02437938 0.01910163
v 0.03972202 0.01559130 -0.01896855
v 0.03968317 -0.01360764 -0.01698075
v 0.03965209 -0.01360764 -0.01716348
v 0.03960547 -0.01360764 -0.01734249
v 0.03955108 -0.01360764 -0.01751778
v 0.03947338 -0.01360764 -0.01768935
v 0.03938794 -0.01360764 -0.01785342
v 0.03928693 -0.01360764 -0.01801008
v 0.03905383 -0.01360764 -0.01829724
v 0.03877414 -0.01360764 -0.01854339
v 0.03848668 -0.01360764 -0.01872612
v 0.03845560 -0.01360764 -0.01874103
v 0.03815257 -0.01360764 -0.01887156
v 0.03811372 -0.01360764 -0.01888275
v 0.03777964 -0.01360764 -0.01896855
v 0.03740671 -0.01360764 -0.01899837
v -0.03930155 -0.01360764 -0.01784970
v -0.03938702 -0.01360764 -0.01768560
v -0.03946472 -0.01360764 -0.01751778
v -0.03951908 -0.01360764 -0.01734249
v -0.03956573 -0.01360764 -0.01716348
v -0.03959681 -0.01360764 -0.01698075
v -0.03964340 0.01559130 -0.01896855
v -0.03732809 -0.01360764 -0.01899837
v -0.03770105 -0.01360764 -0.01896855
v -0.03805841 -0.01360764 -0.01887903
v -0.03836921 -0.01360764 -0.01874478
v -0.03839252 -0.01360764 -0.01873359
v -0.03868001 -0.01360764 -0.01855083
v -0.03895970 -0.01360764 -0.01830471
v -0.03920054 -0.01360764 -0.01801380
v -0.03964340 0.02205717 0.01910163
v 0.03972202 0.01742463 0.01910163
v 0.03972202 0.01523646 -0.01887903
v 0.03969871 -0.01360764 -0.01679427
v -0.03960455 -0.01360764 -0.01679427
v -0.03964340 0.01523646 -0.01887903
v -0.03964340 0.01742463 0.01910163
v 0.03972202 0.01704219 0.01906806
v 0.03594604 -0.01360764 0.01910163
v 0.03629566 -0.01360764 0.01907181
v 0.03632674 -0.01360764 0.01906806
v 0.03670744 -0.01360764 0.01897110
v 0.03700270 -0.01360764 0.01883685
v 0.03705709 -0.01360764 0.01881075
v 0.03738340 -0.01360764 0.01859442
v 0.03972202 0.01520886 -0.01886784
v 0.03969094 -0.01360764 -0.01652574
v 0.03972202 0.01489740 -0.01873359
v 0.03972202 0.01458594 -0.01853592
v 0.03972202 0.01430994 -0.01828977
v 0.03972202 0.01408128 -0.01800633
v 0.03972202 0.01398273 -0.01785342
v 0.03972202 0.01389204 -0.01768188
v 0.03972202 0.01382502 -0.01751406
v 0.03972202 0.01376589 -0.01734249
v 0.03972202 0.01372251 -0.01715976
v 0.03972202 0.01369491 -0.01698075
v 0.03972202 0.01367913 -0.01679427
v 0.03972202 0.01367913 -0.01661154
v 0.03972202 0.01440852 0.00014859
v 0.03972202 0.01514184 0.01691244
v 0.03972202 0.01516155 0.01712130
v 0.03972202 0.01519311 0.01729659
v 0.03972202 0.01523646 0.01746813
v 0.03972202 0.01529955 0.01765089
v 0.03972202 0.01537839 0.01782990
v 0.03972202 0.01546908 0.01799772
v 0.03972202 0.01557948 0.01815807
v 0.03972202 0.01569774 0.01831098
v -0.03960455 -0.01360764 -0.01651455
v -0.03964340 0.01367913 -0.01679427
v -0.03964340 0.01369491 -0.01697700
v -0.03964340 0.01372251 -0.01715976
v -0.03964340 0.01376589 -0.01733877
v -0.03964340 0.01382502 -0.01751406
v -0.03964340 0.01389597 -0.01768560
v -0.03964340 0.01397877 -0.01784598
v -0.03964340 0.01408128 -0.01800633
v -0.03964340 0.01430994 -0.01828977
v -0.03964340 0.01458198 -0.01853592
v -0.03964340 0.01489740 -0.01873359
v -0.03964340 0.01704219 0.01906806
v -0.03730478 -0.01360764 0.01859442
v -0.03700955 -0.01360764 0.01879209
v -0.03697847 -0.01360764 0.01881075
v -0.03662885 -0.01360764 0.01897110
v -0.03624815 -0.01360764 0.01906806
v -0.03620930 -0.01360764 0.01907181
v -0.03586745 -0.01360764 0.01910163
v 0.03972202 0.01666368 0.01897110
v 0.03766309 -0.01360764 0.01832592
v 0.03777964 -0.01360764 0.01817301
v 0.03788065 -0.01360764 0.01802382
v 0.03798943 -0.01360764 0.01784481
v 0.03806710 -0.01360764 0.01766952
v 0.03812926 -0.01360764 0.01748679
v 0.03823027 -0.01360764 0.01692363
v 0.03972202 0.01573719 0.01835202
v -0.03815165 -0.01360764 0.01693482
v -0.03964340 0.01570959 0.01832592
v -0.03964340 0.01559130 0.01817673
v -0.03964340 0.01548879 0.01802754
v -0.03964340 0.01539417 0.01785972
v -0.03964340 0.01531137 0.01768443
v -0.03964340 0.01524042 0.01748679
v -0.03964340 0.01518915 0.01728165
v -0.03964340 0.01515762 0.01710639
v -0.03964340 0.01514184 0.01691244
v -0.03964340 0.01440852 0.00014859
v -0.03964340 0.01367913 -0.01661154
v -0.03964340 0.01698303 0.01905315
v -0.03810506 -0.01360764 0.01728912
v -0.03809729 -0.01360764 0.01731897
v -0.03804290 -0.01360764 0.01750542
v -0.03798074 -0.01360764 0.01768818
v -0.03789527 -0.01360764 0.01786347
v -0.03780203 -0.01360764 0.01803501
v -0.03768548 -0.01360764 0.01819539
v -0.03756119 -0.01360764 0.01834455
v 0.03972202 0.01631280 0.01881075
v 0.03817588 -0.01360764 0.01729659
v 0.03821473 -0.01360764 0.01710639
v 0.03972202 0.01598952 0.01859442
v -0.03813614 -0.01360764 0.01711758
v -0.03964340 0.01631280 0.01881075
v -0.03964340 0.01598952 0.01859442
v -0.03964340 0.01666368 0.01897110
v -0.03964340 0.01661244 0.01894872
f 1 2 3
f 1 3 4
f 1 4 10
f 1 10 5
f 1 5 14
f 1 14 15
f 1 15 6
f 1 6 2
f 2 7 16
f 2 16 26
f 2 26 33
f 2 33 38
f 2 38 37
f 2 37 36
f 2 36 50
f 2 50 49
f 2 49 61
f 2 61 74
f 2 74 73
f 2 73 86
f 2 86 92
f 2 92 102
f 2 102 107
f 2 107 115
f 2 115 114
f 2 114 113
f 2 113 123
f 2 123 134
f 2 134 140
f 2 140 149
f 2 149 152
f 2 152 157
f 2 157 190
f 2 190 196
f 2 196 248
f 2 248 278
f 2 278 281
f 2 281 256
f 2 256 227
f 2 227 226
f 2 226 225
f 2 225 224
f 2 224 223
f 2 223 222
f 2 222 221
f 2 221 220
f 2 220 219
f 2 219 218
f 2 218 217
f 2 217 216
f 2 216 215
f 2 215 214
f 2 214 213
f 2 213 212
f 2 212 211
f 2 211 210
f 2 210 209
f 2 209 208
f 2 208 207
f 2 207 206
f 2 206 204
f 2 204 191
f 2 191 158
f 2 158 153
f 2 153 145
f 2 145 137
f 2 137 128
f 2 128 118
f 2 118 110
f 2 110 104
f 2 104 95
f 2 95 88
f 2 88 79
f 2 79 66
f 2 66 65
f 2 65 64
f 2 64 54
f 2 54 53
f 2 53 52
f 2 52 44
f 2 44 43
f 2 43 42
f 2 42 31
f 2 31 23
f 2 23 20
f 2 20 11
f 2 11 10
f 2 10 4
f 2 4 3
f 2 6 8
f 2 8 9
f 2 9 7
f 5 10 11
f 5 11 12
f 5 12 13
f 5 13 14
f 6 15 25
f 6 25 13
f 6 13 24
f 6 24 32
f 6 32 48
f 6 48 59
f 6 59 58
f 6 58 71
f 6 71 70
f 6 70 56
f 6 56 69
f 6 69 84
f 6 84 83
f 6 83 82
f 6 82 91
f 6 91 99
f 6 99 98
f 6 98 97
f 6 97 105
f 6 105 111
f 6 111 119
f 6 119 120
f 6 120 131
f 6 131 139
f 6 139 148
f 6 148 147
f 6 147 154
f 6 154 180
f 6 180 194
f 6 194 239
f 6 239 238
f 6 238 237
f 6 237 236
f 6 236 235
f 6 235 234
f 6 234 233
f 6 233 232
f 6 232 231
f 6 231 230
f 6 230 229
f 6 229 268
f 6 268 267
f 6 267 266
f 6 266 265
f 6 265 264
f 6 264 263
f 6 263 262
f 6 262 261
f 6 261 260
f 6 260 259
f 6 259 258
f 6 258 284
f 6 284 283
f 6 283 286
f 6 286 285
f 6 285 269
f 6 269 240
f 6 240 195
f 6 195 189
f 6 189 155
f 6 155 150
f 6 150 143
f 6 143 142
f 6 142 135
f 6 135 126
f 6 126 125
f 6 125 124
f 6 124 116
f 6 116 108
f 6 108 103
f 6 103 93
f 6 93 87
f 6 87 77
f 6 77 76
f 6 76 75
f 6 75 63
f 6 63 51
f 6 51 40
f 6 40 39
f 6 39 28
f 6 28 18
f 6 18 8
f 7 9 17
f 7 17 16
f 8 18 19
f 8 19 17
f 8 17 9
f 11 20 12
f 12 21 24
f 12 24 22
f 12 22 13
f 12 20 23
f 12 23 21
f 13 25 14
f 13 22 24
f 14 25 15
f 16 17 27
f 16 27 26
f 17 19 18
f 17 18 29
f 17 29 27
f 18 28 29
f 21 23 30
f 21 30 47
f 21 47 32
f 21 32 24
f 23 31 30
f 26 27 33
f 27 34 35
f 27 35 36
f 27 36 37
f 27 37 38
f 27 38 33
f 27 29 34
f 28 39 29
f 29 39 40
f 29 40 41
f 29 41 34
f 30 31 42
f 30 42 43
f 30 43 44
f 30 44 45
f 30 45 46
f 30 46 47
f 32 47 48
f 34 41 35
f 35 49 50
f 35 50 36
f 35 41 51
f 35 51 49
f 40 51 41
f 44 52 45
f 45 52 53
f 45 53 54
f 45 54 55
f 45 55 56
f 45 56 57
f 45 57 46
f 46 57 47
f 47 57 58
f 47 58 59
f 47 59 48
f 49 60 61
f 49 51 62
f 49 62 60
f 51 63 62
f 54 64 55
f 55 64 65
f 55 65 66
f 55 66 67
f 55 67 81
f 55 81 68
f 55 68 56
f 56 68 69
f 56 70 57
f 57 70 71
f 57 71 58
f 60 72 73
f 60 73 74
f 60 74 61
f 60 62 78
f 60 78 72
f 62 63 75
f 62 75 76
f 62 76 77
f 62 77 78
f 66 79 80
f 66 80 67
f 67 80 79
f 67 79 91
f 67 91 82
f 67 82 81
f 68 81 82
f 68 82 83
f 68 83 84
f 68 84 69
f 72 85 73
f 72 78 87
f 72 87 94
f 72 94 92
f 72 92 85
f 73 85 86
f 77 87 78
f 79 88 89
f 79 89 90
f 79 90 91
f 85 92 86
f 87 93 94
f 88 95 89
f 89 95 96
f 89 96 97
f 89 97 98
f 89 98 99
f 89 99 90
f 90 99 91
f 92 100 101
f 92 101 102
f 92 94 100
f 93 103 101
f 93 101 100
f 93 100 94
f 95 104 96
f 96 104 105
f 96 105 97
f 101 106 107
f 101 107 102
f 101 103 106
f 103 108 109
f 103 109 106
f 104 110 105
f 105 110 112
f 105 112 111
f 106 109 117
f 106 117 113
f 106 113 114
f 106 114 115
f 106 115 107
f 108 116 117
f 108 117 109
f 110 118 112
f 111 112 119
f 112 120 119
f 112 118 121
f 112 121 120
f 113 122 123
f 113 117 122
f 116 124 117
f 117 124 125
f 117 125 126
f 117 126 127
f 117 127 122
f 118 128 129
f 118 129 130
f 118 130 131
f 118 131 132
f 118 132 121
f 120 121 132
f 120 132 131
f 122 133 123
f 122 127 133
f 123 133 134
f 126 135 127
f 127 135 136
f 127 136 140
f 127 140 133
f 128 137 138
f 128 138 129
f 129 138 130
f 130 138 139
f 130 139 131
f 133 140 141
f 133 141 134
f 134 141 140
f 135 142 136
f 136 142 143
f 136 143 144
f 136 144 140
f 137 145 146
f 137 146 147
f 137 147 138
f 138 147 148
f 138 148 139
f 140 144 149
f 143 150 151
f 143 151 144
f 144 152 149
f 144 151 152
f 145 153 173
f 145 173 181
f 145 181 154
f 145 154 147
f 145 147 146
f 150 155 156
f 150 156 151
f 151 156 157
f 151 157 152
f 153 158 159
f 153 159 160
f 153 160 161
f 153 161 162
f 153 162 163
f 153 163 164
f 153 164 165
f 153 165 166
f 153 166 167
f 153 167 168
f 153 168 169
f 153 169 170
f 153 170 171
f 153 171 172
f 153 172 173
f 154 174 175
f 154 175 176
f 154 176 177
f 154 177 178
f 154 178 179
f 154 179 180
f 154 181 182
f 154 182 183
f 154 183 184
f 154 184 185
f 154 185 186
f 154 186 187
f 154 187 188
f 154 188 174
f 155 189 156
f 156 189 195
f 156 195 247
f 156 247 197
f 156 197 190
f 156 190 157
f 158 191 192
f 158 192 159
f 159 192 205
f 159 205 255
f 159 255 280
f 159 280 279
f 159 279 254
f 159 254 253
f 159 253 252
f 159 252 251
f 159 251 250
f 159 250 249
f 159 249 203
f 159 203 202
f 159 202 201
f 159 201 200
f 159 200 199
f 159 199 198
f 159 198 197
f 159 197 247
f 159 247 246
f 159 246 245
f 159 245 244
f 159 244 243
f 159 243 242
f 159 242 241
f 159 241 277
f 159 277 276
f 159 276 275
f 159 275 274
f 159 274 273
f 159 273 272
f 159 272 271
f 159 271 270
f 159 270 282
f 159 282 257
f 159 257 228
f 159 228 193
f 159 193 179
f 159 179 178
f 159 178 177
f 159 177 176
f 159 176 175
f 159 175 174
f 159 174 188
f 159 188 187
f 159 187 186
f 159 186 185
f 159 185 184
f 159 184 183
f 159 183 182
f 159 182 181
f 159 181 173
f 159 173 172
f 159 172 171
f 159 171 170
f 159 170 169
f 159 169 168
f 159 168 167
f 159 167 166
f 159 166 165
f 159 165 164
f 159 164 163
f 159 163 162
f 159 162 161
f 159 161 160
f 179 193 180
f 180 193 194
f 190 197 198
f 190 198 199
f 190 199 200
f 190 200 201
f 190 201 202
f 190 202 203
f 190 203 196
f 191 204 192
f 192 204 206
f 192 206 207
f 192 207 208
f 192 208 209
f 192 209 210
f 192 210 211
f 192 211 212
f 192 212 213
f 192 213 214
f 192 214 215
f 192 215 216
f 192 216 217
f 192 217 218
f 192 218 219
f 192 219 220
f 192 220 221
f 192 221 222
f 192 222 223
f 192 223 224
f 192 224 225
f 192 225 226
f 192 226 227
f 192 227 205
f 193 228 268
f 193 268 229
f 193 229 230
f 193 230 231
f 193 231 232
f 193 232 233
f 193 233 234
f 193 234 235
f 193 235 236
f 193 236 237
f 193 237 238
f 193 238 239
f 193 239 194
f 195 240 241
f 195 241 242
f 195 242 243
f 195 243 244
f 195 244 245
f 195 245 246
f 195 246 247
f 196 203 249
f 196 249 250
f 196 250 251
f 196 251 252
f 196 252 253
f 196 253 254
f 196 254 248
f 205 227 255
f 227 256 255
f 228 257 258
f 228 258 259
f 228 259 260
f 228 260 261
f 228 261 262
f 228 262 263
f 228 263 264
f 228 264 265
f 228 265 266
f 228 266 267
f 228 267 268
f 240 269 270
f 240 270 271
f 240 271 272
f 240 272 273
f 240 273 274
f 240 274 275
f 240 275 276
f 240 276 277
f 240 277 241
f 248 254 279
f 248 279 280
f 248 280 278
f 255 256 281
f 255 281 278
f 255 278 280
f 257 282 283
f 257 283 284
f 257 284 258
f 269 285 270
f 270 285 282
f 282 285 286
f 282 286 283