# https://github.com/mikedh/trimesh
v -0.05550860 -0.02423808 -0.01899837
v -0.05550860 -0.01596543 -0.01899837
v -0.04151885 -0.02438382 -0.01899837
v -0.05550860 -0.02440683 -0.01899465
v -0.05550860 -0.01559847 -0.01896855
v -0.03731975 -0.01360764 -0.01899837
v -0.04696898 -0.02476230 -0.01896480
v -0.04696898 -0.02459352 -0.01897971
v -0.05550860 -0.02445672 -0.01899090
v 0.03972184 -0.02438382 -0.01899837
v -0.02737679 -0.02468046 -0.01897227
v -0.05550860 -0.01524045 -0.01887903
v -0.03768962 -0.01360764 -0.01896855
v 0.03740473 -0.01360764 -0.01899837
v -0.05550860 -0.01492464 -0.01874478
v -0.05550860 -0.01488372 -0.01872240
v -0.05550860 -0.01460754 -0.01854711
v -0.05550860 -0.01457685 -0.01852473
v -0.05550860 -0.01432497 -0.01830096
v -0.04696898 -0.02478786 -0.01896108
v -0.05550860 -0.02475462 -0.01896480
v 0.03973273 -0.02472138 -0.01896855
v 0.05562622 -0.02475078 -0.01896480
v 0.05562622 -0.02477892 -0.01896108
v 0.04332262 -0.02478021 -0.01896108
v 0.04332262 -0.02438256 -0.01899837
v 0.04332262 -0.02459481 -0.01897971
v -0.03804860 -0.01360764 -0.01887903
v -0.05550860 -0.01408713 -0.01801380
v -0.05550860 -0.01398612 -0.01785342
v -0.05550860 -0.01389789 -0.01768560
v -0.05550860 -0.01382631 -0.01751778
v -0.05550860 -0.01376877 -0.01733877
v -0.05550860 -0.01372401 -0.01715976
v -0.05550860 -0.01369587 -0.01697700
v -0.05550860 -0.01368180 -0.01679427
v 0.03776371 -0.01360764 -0.01896855
v 0.05562622 -0.01430451 -0.01827858
v 0.05562622 -0.01457430 -0.01852473
v 0.05562622 -0.01487859 -0.01871865
v 0.05562622 -0.01524045 -0.01887903
v 0.05562622 -0.01559847 -0.01896855
v 0.05562622 -0.01596543 -0.01899837
v 0.03972184 -0.02487354 -0.01893870
v -0.04151885 -0.02481600 -0.01895361
v -0.04151885 -0.02516505 -0.01886037
v -0.05550860 -0.02516379 -0.01886037
v -0.05550860 -0.02499627 -0.01890513
v -0.05550860 -0.02478021 -0.01896108
v 0.04332262 -0.02481600 -0.01895361
v 0.05562622 -0.02450145 -0.01898718
v 0.05562622 -0.02485563 -0.01894242
v 0.05562622 -0.02404884 -0.01899837
v 0.05562622 -0.02440812 -0.01899465
v -0.03838583 -0.01360764 -0.01873359
v -0.05550860 -0.01368180 -0.01661154
v -0.03960422 -0.01360764 -0.01679427
v -0.03959336 -0.01360764 -0.01698075
v -0.03956069 -0.01360764 -0.01716348
v -0.03951719 -0.01360764 -0.01734249
v -0.03946280 -0.01360764 -0.01751778
v -0.03938666 -0.01360764 -0.01768560
v -0.03929963 -0.01360764 -0.01784970
v -0.03920171 -0.01360764 -0.01801380
v -0.03895151 -0.01360764 -0.01830471
v -0.03867956 -0.01360764 -0.01855083
v 0.03811183 -0.01360764 -0.01888275
v 0.05562622 -0.01368054 -0.01679427
v 0.05562622 -0.01369587 -0.01698075
v 0.05562622 -0.01372530 -0.01715976
v 0.05562622 -0.01376877 -0.01733877
v 0.05562622 -0.01382502 -0.01751406
v 0.05562622 -0.01389663 -0.01768188
v 0.05562622 -0.01398357 -0.01784970
v 0.05562622 -0.01407945 -0.01800261
v 0.04332262 -0.02516505 -0.01886037
v 0.03972184 -0.02534919 -0.01877460
v -0.04696898 -0.02538882 -0.01875597
v -0.05550860 -0.02545914 -0.01872240
v 0.05562622 -0.02505000 -0.01889022
v -0.05550860 -0.01368564 -0.01651455
v -0.03797246 -0.01360764 0.01768818
v -0.03803771 -0.01360764 0.01750542
v -0.03809210 -0.01360764 0.01728912
v -0.03812474 -0.01360764 0.01711758
v -0.03814649 -0.01360764 0.01693482
v -0.03960422 -0.01360764 -0.01651455
v 0.03814447 -0.01360764 -0.01887156
v 0.05562622 -0.01368180 -0.01660035
v 0.03845992 -0.01360764 -0.01874103
v 0.03877540 -0.01360764 -0.01854339
v 0.03904738 -0.01360764 -0.01829724
v 0.03927583 -0.01360764 -0.01801008
v 0.03937372 -0.01360764 -0.01785342
v 0.03946075 -0.01360764 -0.01768935
v 0.03953692 -0.01360764 -0.01751778
v 0.03960217 -0.01360764 -0.01734249
v 0.03963481 -0.01360764 -0.01716348
v 0.03966745 -0.01360764 -0.01698075
v 0.03968920 -0.01360764 -0.01679427
v 0.03968920 -0.01360764 -0.01652574
v 0.03829675 -0.01360764 0.01529013
v 0.03819886 -0.01360764 0.01710639
v 0.03817708 -0.01360764 0.01729659
v 0.03812269 -0.01360764 0.01748679
v 0.03805744 -0.01360764 0.01766952
v 0.05562622 -0.02513181 -0.01886784
v 0.05562622 -0.02516634 -0.01885665
v 0.05562622 -0.02523666 -0.01882683
v 0.05562622 -0.02552436 -0.01869255
v -0.04151885 -0.02551539 -0.01869630
v -0.05550860 -0.02550390 -0.01870002
v -0.05550860 -0.01514583 0.01691244
v -0.03788543 -0.01360764 0.01786347
v 0.05562622 -0.01514583 0.01691244
v 0.03798127 -0.01360764 0.01784481
v 0.05562622 -0.02570592 -0.01856577
v 0.00087469 -0.02554737 -0.01867764
v -0.05550860 -0.02554482 -0.01867764
v -0.05550860 -0.01516374 0.01710639
v -0.03755906 -0.01360764 0.01834455
v -0.03767873 -0.01360764 0.01819539
v 0.05562622 -0.01516116 0.01709145
v 0.03787249 -0.01360764 0.01802382
v 0.03777460 -0.01360764 0.01817301
v 0.03765493 -0.01360764 0.01832592
v 0.05562622 -0.02582484 -0.01847997
v 0.04332262 -0.02582100 -0.01848372
v 0.02916970 -0.02581203 -0.01849116
v 0.01502764 -0.02580180 -0.01849863
v -0.04696898 -0.02583888 -0.01847253
v -0.05550860 -0.02583123 -0.01847625
v -0.05550860 -0.01516755 0.01713621
v -0.03729797 -0.01360764 0.01859442
v 0.05562622 -0.01519314 0.01728165
v 0.03737209 -0.01360764 0.01859442
v 0.03705661 -0.01360764 0.01881075
v 0.05562622 -0.02587341 -0.01843896
v 0.04332262 -0.02586063 -0.01845387
v 0.04332262 -0.02585169 -0.01846134
v 0.02916970 -0.02585295 -0.01846134
v -0.04151885 -0.02585295 -0.01846134
v -0.05550860 -0.02586957 -0.01844268
v -0.05550860 -0.01519569 0.01729659
v -0.03697163 -0.01360764 0.01881075
v 0.05562622 -0.01523916 0.01746813
v 0.03669763 -0.01360764 0.01897110
v 0.05562622 -0.02590923 -0.01840539
v 0.03972184 -0.02589516 -0.01842030
v -0.04151885 -0.02591433 -0.01840167
v -0.05550860 -0.02601024 -0.01830471
v -0.05550860 -0.01524429 0.01748679
v -0.03661265 -0.01360764 0.01897110
v 0.05562622 -0.01524939 0.01750170
v 0.03631687 -0.01360764 0.01906806
v 0.05562622 -0.01539003 0.01784481
v 0.05562622 -0.01530948 0.01766952
v 0.05562622 -0.02600640 -0.01830843
v 0.04332262 -0.02603709 -0.01827858
v 0.01502764 -0.02610867 -0.01820772
v 0.01502764 -0.02591433 -0.01840167
v 0.04332262 -0.02613426 -0.01818162
v -0.04151885 -0.02610867 -0.01820772
v -0.04696898 -0.02612274 -0.01819281
v -0.05550860 -0.02611506 -0.01819653
v -0.05550860 -0.01530309 0.01765089
v -0.03624275 -0.01360764 0.01906806
v -0.05550860 -0.01531587 0.01768443
v -0.05550860 -0.01539003 0.01784481
v 0.03628423 -0.01360764 0.01907181
v 0.05562622 -0.01599483 0.01859442
v 0.05562622 -0.01571481 0.01832592
v 0.05562622 -0.01560612 0.01819164
v 0.05562622 -0.01558185 0.01815807
v 0.05562622 -0.01548465 0.01801635
v 0.05562622 -0.02610996 -0.01820400
v 0.05562622 -0.02613552 -0.01817790
v 0.05562622 -0.02623269 -0.01803990
v 0.03973273 -0.02616879 -0.01813314
v 0.02916970 -0.02616366 -0.01814061
v -0.04151885 -0.02613426 -0.01818162
v -0.05550860 -0.02614833 -0.01815924
v -0.03621014 -0.01360764 0.01907181
v -0.05550860 -0.01547571 0.01799772
v -0.05550860 -0.01549362 0.01802754
v -0.05550860 -0.01559463 0.01817301
v -0.05550860 -0.01561635 0.01820283
v -0.05550860 -0.01571610 0.01832592
v -0.05550860 -0.01599612 0.01859442
v 0.03592525 -0.01360764 0.01910163
v 0.05562622 -0.01631577 0.01881075
v 0.05562622 -0.02636313 -0.01785342
v 0.03972184 -0.02634012 -0.01788699
v -0.01323473 -0.02629920 -0.01794666
v -0.04696898 -0.02624166 -0.01802871
v -0.05550860 -0.02620584 -0.01807719
v -0.03586202 -0.01360764 0.01910163
v -0.05550860 -0.01631577 0.01881075
v 0.05562622 -0.01742943 0.01910163
v 0.05562622 -0.01704330 0.01906806
v 0.05562622 -0.01666866 0.01897110
v 0.05562622 -0.02637591 -0.01782732
v -0.04151885 -0.02636313 -0.01785342
v -0.04696898 -0.02635290 -0.01786836
v -0.05550860 -0.02631966 -0.01791309
v -0.05550860 -0.01635540 0.01882938
v -0.05550860 -0.01666866 0.01897110
v -0.05550860 -0.01704456 0.01906806
v -0.05550860 -0.01742943 0.01910163
v 0.05562622 -0.02286483 0.01910163
v 0.05562622 -0.02653062 -0.01749540
v 0.03972184 -0.02638869 -0.01780122
v -0.04696898 -0.02641299 -0.01774902
v -0.05550860 -0.02637336 -0.01783107
v -0.05550860 -0.02634777 -0.01787208
v -0.05550860 -0.02432118 0.01910163
v 0.04332262 -0.02438256 0.01910163
v 0.05562622 -0.02441580 0.01909791
v 0.05562622 -0.02660349 -0.01722315
v 0.04332262 -0.02662524 -0.01714485
v 0.03972184 -0.02658432 -0.01729773
v 0.00087469 -0.02653830 -0.01746930
v 0.02916970 -0.02653191 -0.01749168
v -0.04151885 -0.02653191 -0.01749168
v -0.04696898 -0.02651016 -0.01754016
v -0.05550860 -0.02649993 -0.01755882
v -0.05550860 -0.02440683 0.01909791
v -0.04151885 -0.02438382 0.01910163
v 0.02916970 -0.02438382 0.01910163
v 0.04332262 -0.02459481 0.01908297
v 0.05562622 -0.02450145 0.01909044
v 0.05562622 -0.02663418 -0.01710753
v 0.04332262 -0.02663163 -0.01711872
v -0.04151885 -0.02662524 -0.01714485
v 0.01502764 -0.02661246 -0.01719333
v -0.04151885 -0.02661246 -0.01719333
v -0.04696898 -0.02657025 -0.01734996
v -0.05550860 -0.02656386 -0.01737234
v -0.05550860 -0.02653701 -0.01746930
v -0.05550860 -0.02653062 -0.01749168
v -0.05550860 -0.02445672 0.01909416
v -0.04696898 -0.02459352 0.01908297
v -0.02737679 -0.02468046 0.01907553
v 0.03973273 -0.02472138 0.01907181
v 0.05562622 -0.02475078 0.01906806
v 0.05562622 -0.02664186 -0.01702923
v 0.04332262 -0.02663547 -0.01709634
v -0.04696898 -0.02663547 -0.01710009
v -0.05550860 -0.02663418 -0.01710753
v -0.04151885 -0.02663163 -0.01711872
v -0.05550860 -0.02475462 0.01906806
v 0.03972184 -0.02472138 0.01907181
v 0.00087469 -0.02475591 0.01906806
v 0.04332262 -0.02478021 0.01906434
v 0.05562622 -0.02477892 0.01906434
v 0.05562622 -0.02666871 -0.01671222
v 0.04332262 -0.02666871 -0.01672341
v 0.04332262 -0.02666232 -0.01679799
v 0.02916970 -0.02663931 -0.01705905
v 0.04332262 -0.02663802 -0.01707024
v -0.04696898 -0.02663802 -0.01707399
v -0.04696898 -0.02665977 -0.01682412
v -0.05550860 -0.02666616 -0.01673460
v -0.05550860 -0.02478021 0.01906434
v 0.04332262 -0.02481600 0.01905687
v 0.05562622 -0.02485563 0.01904568
v 0.05562622 -0.02666871 0.01681548
v 0.03972184 -0.02667000 -0.01592904
v -0.04151885 -0.02666871 -0.01672341
v -0.05550860 -0.02666745 -0.01669731
v -0.05550860 -0.02490039 0.01903449
v -0.04696898 -0.02483007 0.01905315
v -0.04151885 -0.02481600 0.01905687
v 0.03972184 -0.02487354 0.01904196
v 0.05562622 -0.02494002 0.01902330
v 0.05562622 -0.02666745 0.01684158
v 0.03972184 -0.02667000 0.01681548
v -0.04696898 -0.02666871 -0.01606704
v -0.05550860 -0.02666745 0.01680057
v -0.05550860 -0.02509218 0.01898229
v -0.04151885 -0.02516505 0.01896363
v 0.04332262 -0.02516505 0.01896363
v 0.05562622 -0.02505000 0.01899348
v 0.05562622 -0.02664954 0.01704672
v 0.02916970 -0.02663931 0.01716231
v -0.04151885 -0.02666871 0.01682667
v -0.04696898 -0.02666871 0.01682295
v -0.05550860 -0.02666616 0.01683786
v -0.05550860 -0.02514078 0.01896738
v -0.05550860 -0.02518551 0.01895244
v -0.04696898 -0.02518041 0.01895619
v -0.05550860 -0.02541183 0.01884804
v 0.03972184 -0.02550135 0.01880700
v 0.03973273 -0.02550135 0.01880700
v 0.05562622 -0.02552436 0.01879581
v 0.05562622 -0.02519448 0.01894872
v 0.05562622 -0.02516634 0.01895991
v 0.05562622 -0.02664186 0.01713249
v -0.04151885 -0.02663547 0.01719960
v -0.04151885 -0.02663802 0.01717350
v 0.04332262 -0.02663802 0.01717350
v 0.04332262 -0.02663547 0.01719960
v -0.05550860 -0.02663418 0.01721079
v -0.05550860 -0.02545914 0.01882566
v -0.04151885 -0.02551539 0.01879956
v 0.05562622 -0.02570592 0.01866903
v -0.04696898 -0.02554098 0.01878462
v 0.00087469 -0.02554737 0.01878090
v 0.05562622 -0.02663418 0.01721079
v -0.04696898 -0.02663292 0.01721826
v -0.05550860 -0.02657664 0.01742712
v -0.05550860 -0.02550390 0.01880328
v 0.04332262 -0.02582100 0.01858698
v 0.05562622 -0.02582994 0.01857951
v 0.01502764 -0.02580180 0.01860189
v 0.02916970 -0.02581203 0.01859442
v -0.05550860 -0.02554482 0.01878090
v -0.04696898 -0.02567907 0.01868766
v -0.04696898 -0.02578518 0.01861308
v 0.05562622 -0.02662653 0.01724064
v 0.04332262 -0.02662524 0.01724811
v 0.04332262 -0.02663163 0.01722198
v -0.04151885 -0.02662524 0.01724811
v -0.04151885 -0.02661246 0.01729659
v -0.04696898 -0.02656131 0.01748679
v -0.05550860 -0.02653701 0.01757256
v 0.04332262 -0.02585169 0.01856460
v 0.05562622 -0.02587341 0.01854222
v 0.04332262 -0.02586063 0.01855713
v -0.04151885 -0.02585295 0.01856460
v 0.02916970 -0.02585295 0.01856460
v -0.05550860 -0.02583123 0.01857951
v 0.05562622 -0.02661372 0.01728912
v 0.05562622 -0.02657793 0.01742337
v 0.03972184 -0.02655876 0.01749798
v 0.01502764 -0.02661246 0.01729659
v 0.00087469 -0.02653830 0.01757256
v -0.04151885 -0.02653191 0.01759494
v -0.04696898 -0.02653575 0.01758003
v -0.05550860 -0.02653062 0.01759494
v 0.05562622 -0.02590923 0.01850865
v 0.03972184 -0.02589516 0.01852356
v 0.05562622 -0.02597058 0.01844898
v -0.04696898 -0.02586447 0.01855341
v -0.05550860 -0.02586957 0.01854594
v 0.05562622 -0.02653062 0.01759866
v 0.02916970 -0.02653191 0.01759494
v -0.04151885 -0.02652678 0.01760613
v -0.04696898 -0.02651784 0.01762476
v -0.05550860 -0.02649993 0.01766208
v 0.01502764 -0.02591433 0.01850493
v 0.04332262 -0.02613426 0.01828488
v 0.05562622 -0.02610996 0.01830726
v -0.04151885 -0.02591433 0.01850493
v -0.04151885 -0.02610867 0.01831098
v 0.01502764 -0.02610867 0.01831098
v -0.05550860 -0.02590539 0.01851237
v 0.05562622 -0.02637591 0.01793058
v 0.03972184 -0.02638869 0.01790448
v 0.00087469 -0.02643729 0.01780005
v -0.04696898 -0.02646798 0.01773291
v -0.05550860 -0.02637336 0.01793433
v 0.03973273 -0.02616879 0.01823640
v 0.05562622 -0.02613552 0.01828116
v -0.04151885 -0.02613426 0.01828488
v 0.02916970 -0.02616366 0.01824387
v -0.05550860 -0.02608182 0.01833711
v 0.05562622 -0.02636313 0.01795668
v -0.04696898 -0.02637081 0.01794177
v -0.05550860 -0.02634777 0.01797906
v 0.05562622 -0.02634777 0.01797906
v -0.01323473 -0.02629920 0.01804992
v -0.05550860 -0.02614833 0.01826250
v -0.04696898 -0.02614449 0.01826997
v -0.04696898 -0.02624166 0.01813197
v -0.04151885 -0.02636313 0.01795668
f 1 2 6
f 1 6 14
f 1 14 43
f 1 43 53
f 1 53 26
f 1 26 10
f 1 10 3
f 1 3 4
f 1 4 9
f 1 9 21
f 1 21 49
f 1 49 48
f 1 48 47
f 1 47 79
f 1 79 112
f 1 112 119
f 1 119 132
f 1 132 143
f 1 143 151
f 1 151 165
f 1 165 182
f 1 182 196
f 1 196 205
f 1 205 215
f 1 215 214
f 1 214 226
f 1 226 240
f 1 240 239
f 1 239 238
f 1 238 249
f 1 249 263
f 1 263 270
f 1 270 279
f 1 279 288
f 1 288 303
f 1 303 311
f 1 311 326
f 1 326 340
f 1 340 350
f 1 350 362
f 1 362 370
f 1 370 373
f 1 373 367
f 1 367 357
f 1 357 345
f 1 345 332
f 1 332 317
f 1 317 312
f 1 312 304
f 1 304 292
f 1 292 290
f 1 290 289
f 1 289 280
f 1 280 271
f 1 271 264
f 1 264 251
f 1 251 241
f 1 241 227
f 1 227 216
f 1 216 209
f 1 209 208
f 1 208 207
f 1 207 206
f 1 206 198
f 1 198 189
f 1 189 188
f 1 188 187
f 1 187 186
f 1 186 185
f 1 185 184
f 1 184 169
f 1 169 168
f 1 168 166
f 1 166 152
f 1 152 144
f 1 144 133
f 1 133 120
f 1 120 113
f 1 113 81
f 1 81 56
f 1 56 36
f 1 36 35
f 1 35 34
f 1 34 33
f 1 33 32
f 1 32 31
f 1 31 30
f 1 30 29
f 1 29 19
f 1 19 18
f 1 18 17
f 1 17 16
f 1 16 15
f 1 15 12
f 1 12 5
f 1 5 2
f 2 5 6
f 3 7 8
f 3 8 9
f 3 9 4
f 3 10 11
f 3 11 7
f 5 12 6
f 6 13 28
f 6 28 55
f 6 55 66
f 6 66 65
f 6 65 64
f 6 64 63
f 6 63 62
f 6 62 61
f 6 61 60
f 6 60 59
f 6 59 58
f 6 58 57
f 6 57 87
f 6 87 86
f 6 86 85
f 6 85 84
f 6 84 83
f 6 83 82
f 6 82 114
f 6 114 122
f 6 122 121
f 6 121 134
f 6 134 145
f 6 145 153
f 6 153 167
f 6 167 183
f 6 183 197
f 6 197 190
f 6 190 170
f 6 170 155
f 6 155 147
f 6 147 137
f 6 137 136
f 6 136 126
f 6 126 125
f 6 125 124
f 6 124 116
f 6 116 106
f 6 106 105
f 6 105 104
f 6 104 103
f 6 103 102
f 6 102 101
f 6 101 100
f 6 100 99
f 6 99 98
f 6 98 97
f 6 97 96
f 6 96 95
f 6 95 94
f 6 94 93
f 6 93 92
f 6 92 91
f 6 91 90
f 6 90 88
f 6 88 67
f 6 67 37
f 6 37 14
f 6 12 15
f 6 15 16
f 6 16 17
f 6 17 18
f 6 18 19
f 6 19 13
f 7 20 49
f 7 49 21
f 7 21 8
f 7 11 22
f 7 22 23
f 7 23 24
f 7 24 25
f 7 25 20
f 8 21 9
f 10 26 27
f 10 27 11
f 11 27 22
f 13 19 29
f 13 29 30
f 13 30 31
f 13 31 32
f 13 32 33
f 13 33 34
f 13 34 35
f 13 35 36
f 13 36 28
f 14 37 38
f 14 38 39
f 14 39 40
f 14 40 41
f 14 41 42
f 14 42 43
f 20 44 45
f 20 45 46
f 20 46 47
f 20 47 48
f 20 48 49
f 20 25 50
f 20 50 44
f 22 27 23
f 23 27 51
f 23 51 54
f 23 54 53
f 23 53 43
f 23 43 42
f 23 42 41
f 23 41 40
f 23 40 39
f 23 39 38
f 23 38 75
f 23 75 74
f 23 74 73
f 23 73 72
f 23 72 71
f 23 71 70
f 23 70 69
f 23 69 68
f 23 68 89
f 23 89 115
f 23 115 123
f 23 123 135
f 23 135 146
f 23 146 154
f 23 154 157
f 23 157 156
f 23 156 175
f 23 175 174
f 23 174 173
f 23 173 172
f 23 172 171
f 23 171 191
f 23 191 201
f 23 201 200
f 23 200 199
f 23 199 210
f 23 210 218
f 23 218 231
f 23 231 245
f 23 245 255
f 23 255 266
f 23 266 275
f 23 275 283
f 23 283 297
f 23 297 296
f 23 296 295
f 23 295 306
f 23 306 314
f 23 314 328
f 23 328 341
f 23 341 343
f 23 343 353
f 23 353 364
f 23 364 371
f 23 371 368
f 23 368 358
f 23 358 346
f 23 346 334
f 23 334 333
f 23 333 320
f 23 320 309
f 23 309 298
f 23 298 284
f 23 284 276
f 23 276 267
f 23 267 256
f 23 256 246
f 23 246 232
f 23 232 219
f 23 219 211
f 23 211 202
f 23 202 192
f 23 192 178
f 23 178 177
f 23 177 176
f 23 176 158
f 23 158 148
f 23 148 138
f 23 138 127
f 23 127 117
f 23 117 110
f 23 110 109
f 23 109 108
f 23 108 107
f 23 107 80
f 23 80 52
f 23 52 24
f 24 52 50
f 24 50 25
f 26 53 54
f 26 54 51
f 26 51 27
f 28 36 55
f 36 56 87
f 36 87 57
f 36 57 58
f 36 58 59
f 36 59 60
f 36 60 61
f 36 61 62
f 36 62 63
f 36 63 64
f 36 64 65
f 36 65 66
f 36 66 55
f 37 67 68
f 37 68 69
f 37 69 70
f 37 70 71
f 37 71 72
f 37 72 73
f 37 73 74
f 37 74 75
f 37 75 38
f 44 46 45
f 44 50 52
f 44 52 76
f 44 76 46
f 46 77 78
f 46 78 47
f 46 76 77
f 47 78 79
f 52 80 76
f 56 81 82
f 56 82 83
f 56 83 84
f 56 84 85
f 56 85 86
f 56 86 87
f 67 88 68
f 68 88 90
f 68 90 91
f 68 91 92
f 68 92 93
f 68 93 94
f 68 94 95
f 68 95 96
f 68 96 97
f 68 97 98
f 68 98 99
f 68 99 100
f 68 100 101
f 68 101 102
f 68 102 103
f 68 103 104
f 68 104 105
f 68 105 106
f 68 106 89
f 76 80 107
f 76 107 108
f 76 108 109
f 76 109 77
f 77 109 110
f 77 110 78
f 78 111 79
f 78 110 111
f 79 111 112
f 81 113 82
f 82 113 114
f 89 106 116
f 89 116 115
f 110 117 118
f 110 118 111
f 111 118 119
f 111 119 112
f 113 120 121
f 113 121 122
f 113 122 114
f 115 116 124
f 115 124 125
f 115 125 126
f 115 126 123
f 117 127 128
f 117 128 129
f 117 129 130
f 117 130 118
f 118 130 131
f 118 131 119
f 119 131 132
f 120 133 134
f 120 134 121
f 123 126 136
f 123 136 137
f 123 137 135
f 127 138 139
f 127 139 140
f 127 140 128
f 128 140 141
f 128 141 129
f 129 141 131
f 129 131 130
f 131 142 143
f 131 143 132
f 131 141 142
f 133 144 145
f 133 145 134
f 135 137 147
f 135 147 146
f 138 148 139
f 139 148 149
f 139 149 161
f 139 161 150
f 139 150 142
f 139 142 141
f 139 141 140
f 142 150 143
f 143 150 151
f 144 152 153
f 144 153 145
f 146 147 154
f 147 155 156
f 147 156 157
f 147 157 154
f 148 158 162
f 148 162 159
f 148 159 149
f 149 160 161
f 149 159 162
f 149 162 160
f 150 161 160
f 150 160 163
f 150 163 151
f 151 163 164
f 151 164 165
f 152 166 153
f 153 166 168
f 153 168 169
f 153 169 167
f 155 170 171
f 155 171 172
f 155 172 173
f 155 173 174
f 155 174 175
f 155 175 156
f 158 176 162
f 160 162 181
f 160 181 163
f 162 176 177
f 162 177 178
f 162 178 179
f 162 179 180
f 162 180 181
f 163 181 164
f 164 181 182
f 164 182 165
f 167 169 184
f 167 184 185
f 167 185 186
f 167 186 187
f 167 187 188
f 167 188 189
f 167 189 183
f 170 190 191
f 170 191 171
f 178 192 179
f 179 192 193
f 179 193 194
f 179 194 180
f 180 194 195
f 180 195 181
f 181 195 182
f 182 195 196
f 183 189 198
f 183 198 197
f 190 197 209
f 190 209 216
f 190 216 228
f 190 228 229
f 190 229 217
f 190 217 210
f 190 210 199
f 190 199 200
f 190 200 201
f 190 201 191
f 192 202 212
f 192 212 203
f 192 203 204
f 192 204 194
f 192 194 193
f 194 204 195
f 195 204 196
f 196 204 205
f 197 198 206
f 197 206 207
f 197 207 208
f 197 208 209
f 202 211 212
f 203 213 214
f 203 214 204
f 203 212 213
f 204 214 215
f 204 215 205
f 210 217 218
f 211 219 220
f 211 220 221
f 211 221 222
f 211 222 223
f 211 223 224
f 211 224 225
f 211 225 212
f 212 225 213
f 213 225 214
f 214 225 226
f 216 227 228
f 217 229 230
f 217 230 231
f 217 231 218
f 219 232 220
f 220 232 233
f 220 233 250
f 220 250 234
f 220 234 236
f 220 236 235
f 220 235 221
f 221 235 222
f 222 235 236
f 222 236 237
f 222 237 224
f 222 224 223
f 224 237 238
f 224 238 239
f 224 239 240
f 224 240 225
f 225 240 226
f 227 241 228
f 228 241 242
f 228 242 243
f 228 243 229
f 229 243 230
f 230 244 245
f 230 245 231
f 230 243 244
f 232 246 260
f 232 260 247
f 232 247 248
f 232 248 249
f 232 249 250
f 232 250 233
f 234 250 249
f 234 249 236
f 236 249 238
f 236 238 237
f 241 251 242
f 242 251 243
f 243 251 252
f 243 252 244
f 244 252 253
f 244 253 245
f 245 254 255
f 245 253 254
f 246 256 257
f 246 257 258
f 246 258 259
f 246 259 260
f 247 260 259
f 247 259 248
f 248 259 261
f 248 261 249
f 249 261 262
f 249 262 263
f 251 264 253
f 251 253 252
f 253 264 254
f 254 265 255
f 254 264 273
f 254 273 265
f 255 265 266
f 256 267 277
f 256 277 268
f 256 268 257
f 257 268 269
f 257 269 258
f 258 269 261
f 258 261 259
f 261 269 262
f 262 269 263
f 263 269 270
f 264 271 272
f 264 272 273
f 265 274 266
f 265 273 274
f 266 274 275
f 267 276 277
f 268 277 287
f 268 287 278
f 268 278 269
f 269 278 270
f 270 278 287
f 270 287 279
f 271 280 281
f 271 281 274
f 271 274 272
f 272 274 273
f 274 282 275
f 274 281 282
f 275 282 283
f 276 284 277
f 277 284 285
f 277 285 286
f 277 286 287
f 279 287 288
f 280 289 281
f 281 289 290
f 281 290 291
f 281 291 292
f 281 292 293
f 281 293 294
f 281 294 282
f 282 294 295
f 282 295 296
f 282 296 297
f 282 297 283
f 284 298 285
f 285 299 300
f 285 300 286
f 285 298 301
f 285 301 302
f 285 302 299
f 286 300 303
f 286 303 287
f 287 303 288
f 290 292 291
f 292 304 305
f 292 305 293
f 293 295 294
f 293 305 295
f 295 305 307
f 295 307 308
f 295 308 306
f 298 309 302
f 298 302 301
f 299 303 300
f 299 302 309
f 299 309 303
f 303 310 311
f 303 309 310
f 304 312 305
f 305 312 307
f 306 313 314
f 306 308 315
f 306 315 316
f 306 316 313
f 307 312 317
f 307 317 318
f 307 318 308
f 308 318 319
f 308 319 315
f 309 320 321
f 309 321 322
f 309 322 310
f 310 323 324
f 310 324 311
f 310 322 321
f 310 321 323
f 311 324 325
f 311 325 326
f 313 327 314
f 313 316 331
f 313 331 327
f 314 327 329
f 314 329 328
f 315 319 330
f 315 330 331
f 315 331 316
f 317 332 319
f 317 319 318
f 319 332 330
f 320 333 321
f 321 333 334
f 321 334 335
f 321 335 336
f 321 336 324
f 321 324 323
f 324 336 335
f 324 335 325
f 325 335 337
f 325 337 338
f 325 338 339
f 325 339 326
f 326 339 340
f 327 331 329
f 328 329 341
f 329 342 343
f 329 343 341
f 329 331 330
f 329 330 344
f 329 344 354
f 329 354 351
f 329 351 342
f 330 332 344
f 332 345 344
f 334 346 335
f 335 346 347
f 335 347 337
f 337 347 338
f 338 348 349
f 338 349 340
f 338 340 339
f 338 347 346
f 338 346 348
f 340 349 350
f 342 351 343
f 343 352 353
f 343 351 354
f 343 354 355
f 343 355 356
f 343 356 352
f 344 345 357
f 344 357 354
f 346 358 359
f 346 359 360
f 346 360 348
f 348 360 361
f 348 361 349
f 349 361 350
f 350 361 362
f 352 363 364
f 352 364 353
f 352 356 355
f 352 355 365
f 352 365 366
f 352 366 363
f 354 357 367
f 354 367 355
f 355 367 365
f 358 368 369
f 358 369 359
f 359 369 360
f 360 369 361
f 361 369 362
f 362 369 370
f 363 371 364
f 363 366 372
f 363 372 371
f 365 367 373
f 365 373 374
f 365 374 375
f 365 375 366
f 366 375 372
f 368 371 372
f 368 372 370
f 368 370 376
f 368 376 369
f 369 376 370
f 370 372 375
f 370 375 373
f 373 375 374