# https://github.com/mikedh/trimesh
v -0.03964496 0.02205951 0.01910163
v -0.03964496 0.01742859 0.01910163
v -0.03964496 0.02439402 0.01909791
v -0.04153643 0.02438385 0.01910163
v -0.05544341 0.01742859 0.01910163
v -0.03964496 0.01704330 0.01906806
v -0.03964496 0.02462799 0.01907925
v -0.05544341 0.02445759 0.01909416
v -0.05544341 0.02440800 0.01909791
v -0.05544341 0.02429994 0.01910163
v -0.05544341 0.02475642 0.01906806
v -0.05544341 0.01704330 0.01906806
v -0.03964496 0.01666821 0.01897110
v -0.03964496 0.02474751 0.01906806
v -0.04153643 0.02478057 0.01906434
v -0.05544341 0.02478057 0.01906434
v -0.05544341 0.01666821 0.01897110
v -0.03964496 0.01661862 0.01894872
v -0.03964496 0.02479074 0.01906062
v -0.04153643 0.02481618 0.01905687
v -0.05544341 0.02485176 0.01904568
v -0.05544341 0.01631472 0.01881075
v -0.03964496 0.01631472 0.01881075
v -0.03964496 0.02482506 0.01905315
v -0.03964496 0.02507937 0.01898601
v -0.04153643 0.02516583 0.01896363
v -0.05544341 0.02516457 0.01896363
v -0.05544341 0.01599429 0.01859442
v -0.03964496 0.01599429 0.01859442
v -0.03964496 0.02513406 0.01897110
v -0.03964496 0.02517474 0.01895619
v -0.03964496 0.02530443 0.01889652
v -0.03964496 0.02549772 0.01880700
v -0.04153643 0.02549262 0.01881075
v -0.05544341 0.02545956 0.01882566
v -0.05544341 0.01571457 0.01832592
v -0.03964496 0.01571457 0.01832592
v -0.03964496 0.02553585 0.01878837
v -0.04153643 0.02551551 0.01879956
v -0.05544341 0.02550408 0.01880328
v -0.05544341 0.01560393 0.01818792
v -0.03964496 0.01559376 0.01817673
v -0.05544341 0.02554731 0.01878090
v -0.03964496 0.02567445 0.01869138
v -0.04153643 0.02555748 0.01877343
v -0.05544341 0.01558107 0.01815807
v -0.03964496 0.01549332 0.01802754
v -0.03964496 0.02577999 0.01861680
v -0.05544341 0.02583213 0.01857951
v -0.05544341 0.01548315 0.01801263
v -0.03964496 0.01539795 0.01785972
v -0.03964496 0.02582577 0.01858323
v -0.04153643 0.02582196 0.01858698
v -0.04153643 0.02585247 0.01856460
v -0.04153643 0.02586138 0.01855713
v -0.05544341 0.02587026 0.01854594
v -0.05544341 0.01538904 0.01784481
v -0.03964496 0.01531659 0.01768443
v -0.03964496 0.02586009 0.01855713
v -0.04153643 0.02591478 0.01850493
v -0.05544341 0.02597709 0.01844151
v -0.05544341 0.01530894 0.01766952
v -0.03964496 0.01530258 0.01765089
v -0.03964496 0.02594655 0.01847136
v -0.03964496 0.02611185 0.01830726
v -0.04153643 0.02613474 0.01828488
v -0.05544341 0.02608260 0.01833711
v -0.05544341 0.01524918 0.01750170
v -0.03964496 0.01524411 0.01748679
v -0.03964496 0.02614110 0.01827369
v -0.03964496 0.02616018 0.01824759
v -0.03964496 0.02631276 0.01803129
v -0.05544341 0.02626317 0.01810215
v -0.05544341 0.02614872 0.01826250
v -0.05544341 0.02611695 0.01829979
v -0.05544341 0.01523901 0.01746813
v -0.03964496 0.01519833 0.01731150
v -0.03964496 0.02634456 0.01798281
v -0.04153643 0.02636361 0.01795668
v -0.04153643 0.02635599 0.01796787
v -0.05544341 0.02634837 0.01797534
v -0.05544341 0.01519452 0.01729659
v -0.03964496 0.01519197 0.01728165
v -0.03964496 0.02636745 0.01794549
v -0.03964496 0.02638269 0.01791567
v -0.03964496 0.02642847 0.01781871
v -0.04153643 0.02640051 0.01787838
v -0.05544341 0.02637378 0.01793433
v -0.03964496 0.01516146 0.01710639
v -0.05544341 0.01516017 0.01709145
v -0.03964496 0.02649459 0.01767699
v -0.05544341 0.02645772 0.01775529
v -0.03964496 0.01514493 0.01691244
v -0.05544341 0.01514493 0.01691244
v -0.03964496 0.02651748 0.01762476
v -0.04153643 0.02653146 0.01759494
v -0.05544341 0.02652129 0.01761732
v -0.05544341 0.01503174 0.01432047
v -0.05544341 0.01369029 -0.01640640
v -0.03964496 0.01368138 -0.01661154
v -0.03964496 0.02653401 0.01758375
v -0.04153643 0.02653527 0.01758375
v -0.05544341 0.02653782 0.01757256
v -0.05544341 0.01368138 -0.01661154
v -0.05544341 0.01368012 -0.01679427
v -0.03964496 0.01368138 -0.01679427
v -0.04153643 0.02654163 0.01756137
v -0.03964496 0.02656578 0.01746813
v -0.05544341 0.02657724 0.01742712
v -0.05544341 0.01369539 -0.01698075
v -0.03964496 0.01369539 -0.01697700
v -0.03964496 0.02659503 0.01735998
v -0.04153643 0.02662557 0.01724811
v -0.05544341 0.02663445 0.01721079
v -0.05544341 0.01372461 -0.01715976
v -0.03964496 0.01372335 -0.01715976
v -0.03964496 0.02662683 0.01724064
v -0.04153643 0.02663190 0.01722198
v -0.04153643 0.02663445 0.01721079
v -0.04153643 0.02663574 0.01719960
v -0.05544341 0.02663700 0.01718469
v -0.05544341 0.01376787 -0.01733877
v -0.03964496 0.01376787 -0.01733877
v -0.03964496 0.02663574 0.01719960
v -0.04153643 0.02663826 0.01717350
v -0.05544341 0.02664591 0.01708773
v -0.05544341 0.01382634 -0.01751406
v -0.03964496 0.01382508 -0.01751406
v -0.03964496 0.02665098 0.01703178
v -0.04153643 0.02666244 0.01690125
v -0.05544341 0.02666751 0.01683786
v -0.05544341 0.01389627 -0.01768188
v -0.03964496 0.01389756 -0.01768560
v -0.03964496 0.02666880 0.01681548
v -0.04153643 0.02666880 0.01682667
v -0.05544341 0.02666880 0.01679682
v -0.05544341 0.01398273 -0.01784970
v -0.03964496 0.01398147 -0.01784598
v -0.03964496 0.02666880 -0.01671969
v -0.05544341 0.02666880 -0.01669356
v -0.05544341 0.01407810 -0.01799889
v -0.03964496 0.01408065 -0.01800633
v -0.03964496 0.02665098 -0.01692852
v -0.04153643 0.02666880 -0.01672341
v -0.05544341 0.02666751 -0.01673460
v -0.05544341 0.01430316 -0.01827858
v -0.03964496 0.01431333 -0.01828977
v -0.03964496 0.02663700 -0.01707399
v -0.04153643 0.02663826 -0.01707024
v -0.05544341 0.02664591 -0.01698447
v -0.04153643 0.02666244 -0.01679799
v -0.05544341 0.01457400 -0.01852101
v -0.03964496 0.01458798 -0.01853592
v -0.03964496 0.02663190 -0.01711872
v -0.04153643 0.02663574 -0.01709634
v -0.05544341 0.02663700 -0.01708143
v -0.05544341 0.01490079 -0.01873359
v -0.03964496 0.01490079 -0.01873359
v -0.04153643 0.02662557 -0.01714485
v -0.04153643 0.02663190 -0.01711872
v -0.04153643 0.02663445 -0.01710753
v -0.03964496 0.02657850 -0.01732011
v -0.05544341 0.02663445 -0.01710753
v -0.03964496 0.01492494 -0.01874478
v -0.05544341 0.01524030 -0.01887903
v -0.04153643 0.02654163 -0.01745811
v -0.05544341 0.02653782 -0.01746930
v -0.03964496 0.02654037 -0.01746183
v -0.03964496 0.01524030 -0.01887903
v -0.05544341 0.01559760 -0.01896855
v -0.03964496 0.01526952 -0.01888650
v -0.04153643 0.02653527 -0.01748049
v -0.05544341 0.02653146 -0.01749168
v -0.03964496 0.02652639 -0.01750287
v -0.05544341 0.01596507 -0.01899837
v -0.03964496 0.01559760 -0.01896855
v -0.04153643 0.02653146 -0.01749168
v -0.03964496 0.02649459 -0.01757373
v -0.05544341 0.02652129 -0.01751406
v -0.05544341 0.02427450 -0.01899837
v -0.03964496 0.01596507 -0.01899837
v -0.03964496 0.02642847 -0.01771545
v -0.05544341 0.02645772 -0.01765203
v -0.04153643 0.02438385 -0.01899837
v -0.05544341 0.02440800 -0.01899465
v -0.03964496 0.02438385 -0.01899837
v -0.04153643 0.02640051 -0.01777512
v -0.03964496 0.02637633 -0.01782360
v -0.04153643 0.02636361 -0.01785342
v -0.05544341 0.02637378 -0.01783107
v -0.05544341 0.02445759 -0.01899090
v -0.05544341 0.02475513 -0.01896480
v -0.03964496 0.02462799 -0.01897599
v -0.03964496 0.02635725 -0.01786089
v -0.03964496 0.02631276 -0.01792803
v -0.05544341 0.02634837 -0.01787580
v -0.05544341 0.02478057 -0.01896108
v -0.04153643 0.02478057 -0.01896108
v -0.04153643 0.02474370 -0.01896480
v -0.04153643 0.02466867 -0.01897227
v -0.03964496 0.02473479 -0.01896480
v -0.03964496 0.02618562 -0.01810704
v -0.04153643 0.02613474 -0.01818162
v -0.05544341 0.02626317 -0.01799889
v -0.05544341 0.02485176 -0.01894242
v -0.04153643 0.02481618 -0.01895361
v -0.03964496 0.02476911 -0.01896108
v -0.03964496 0.02481108 -0.01895361
v -0.03964496 0.02612712 -0.01818909
v -0.05544341 0.02611695 -0.01819653
v -0.05544341 0.02614872 -0.01815924
v -0.04153643 0.02591478 -0.01840167
v -0.05544341 0.02608260 -0.01823385
v -0.05544341 0.02509335 -0.01887903
v -0.04153643 0.02516583 -0.01886037
v -0.03964496 0.02507937 -0.01888275
v -0.03964496 0.02600760 -0.01830843
v -0.05544341 0.02597709 -0.01833825
v -0.03964496 0.02587536 -0.01843896
v -0.04153643 0.02586138 -0.01845387
v -0.05544341 0.02518746 -0.01884918
v -0.03964496 0.02512134 -0.01887156
v -0.05544341 0.02545956 -0.01872240
v -0.03964496 0.02548500 -0.01871121
v -0.03964496 0.02519508 -0.01884546
v -0.03964496 0.02515440 -0.01886037
v -0.05544341 0.02587026 -0.01844268
v -0.03964496 0.02584356 -0.01846878
v -0.04153643 0.02585247 -0.01846134
v -0.05544341 0.02583213 -0.01847625
v -0.05544341 0.02550408 -0.01870002
v -0.03964496 0.02551677 -0.01869630
v -0.03964496 0.02577999 -0.01851354
v -0.04153643 0.02555748 -0.01867017
v -0.05544341 0.02554602 -0.01867764
v -0.03964496 0.02559942 -0.01864035
f 1 2 6
f 1 6 13
f 1 13 18
f 1 18 23
f 1 23 29
f 1 29 37
f 1 37 42
f 1 42 47
f 1 47 51
f 1 51 58
f 1 58 63
f 1 63 69
f 1 69 77
f 1 77 83
f 1 83 89
f 1 89 93
f 1 93 100
f 1 100 106
f 1 106 111
f 1 111 116
f 1 116 123
f 1 123 128
f 1 128 133
f 1 133 138
f 1 138 142
f 1 142 147
f 1 147 153
f 1 153 158
f 1 158 164
f 1 164 169
f 1 169 171
f 1 171 176
f 1 176 181
f 1 181 186
f 1 186 193
f 1 193 201
f 1 201 207
f 1 207 208
f 1 208 216
f 1 216 222
f 1 222 226
f 1 226 225
f 1 225 224
f 1 224 232
f 1 232 236
f 1 236 233
f 1 233 228
f 1 228 219
f 1 219 217
f 1 217 209
f 1 209 202
f 1 202 195
f 1 195 194
f 1 194 188
f 1 188 182
f 1 182 178
f 1 178 174
f 1 174 168
f 1 168 162
f 1 162 154
f 1 154 148
f 1 148 143
f 1 143 139
f 1 139 134
f 1 134 129
f 1 129 124
f 1 124 117
f 1 117 112
f 1 112 108
f 1 108 101
f 1 101 95
f 1 95 91
f 1 91 86
f 1 86 85
f 1 85 84
f 1 84 78
f 1 78 72
f 1 72 71
f 1 71 70
f 1 70 65
f 1 65 64
f 1 64 59
f 1 59 52
f 1 52 48
f 1 48 44
f 1 44 38
f 1 38 33
f 1 33 32
f 1 32 31
f 1 31 30
f 1 30 25
f 1 25 24
f 1 24 19
f 1 19 14
f 1 14 7
f 1 7 3
f 1 3 4
f 1 4 10
f 1 10 5
f 1 5 2
f 2 5 12
f 2 12 6
f 3 7 4
f 4 8 9
f 4 9 10
f 4 7 11
f 4 11 8
f 5 10 9
f 5 9 8
f 5 8 11
f 5 11 16
f 5 16 21
f 5 21 27
f 5 27 35
f 5 35 40
f 5 40 43
f 5 43 49
f 5 49 56
f 5 56 61
f 5 61 67
f 5 67 75
f 5 75 74
f 5 74 73
f 5 73 81
f 5 81 88
f 5 88 92
f 5 92 97
f 5 97 103
f 5 103 109
f 5 109 114
f 5 114 121
f 5 121 126
f 5 126 131
f 5 131 136
f 5 136 140
f 5 140 145
f 5 145 150
f 5 150 156
f 5 156 163
f 5 163 167
f 5 167 173
f 5 173 179
f 5 179 183
f 5 183 190
f 5 190 196
f 5 196 204
f 5 204 211
f 5 211 210
f 5 210 213
f 5 213 218
f 5 218 227
f 5 227 230
f 5 230 235
f 5 235 231
f 5 231 223
f 5 223 221
f 5 221 214
f 5 214 205
f 5 205 197
f 5 197 192
f 5 192 191
f 5 191 185
f 5 185 180
f 5 180 175
f 5 175 170
f 5 170 165
f 5 165 157
f 5 157 152
f 5 152 146
f 5 146 141
f 5 141 137
f 5 137 132
f 5 132 127
f 5 127 122
f 5 122 115
f 5 115 110
f 5 110 105
f 5 105 104
f 5 104 99
f 5 99 98
f 5 98 94
f 5 94 90
f 5 90 82
f 5 82 76
f 5 76 68
f 5 68 62
f 5 62 57
f 5 57 50
f 5 50 46
f 5 46 41
f 5 41 36
f 5 36 28
f 5 28 22
f 5 22 17
f 5 17 12
f 6 12 17
f 6 17 13
f 7 14 11
f 11 14 15
f 11 15 16
f 13 17 18
f 14 19 15
f 15 19 20
f 15 20 16
f 16 20 21
f 17 22 18
f 18 22 23
f 19 24 20
f 20 24 25
f 20 25 26
f 20 26 27
f 20 27 21
f 22 28 29
f 22 29 23
f 25 30 26
f 26 31 32
f 26 32 33
f 26 33 34
f 26 34 35
f 26 35 27
f 26 30 31
f 28 36 37
f 28 37 29
f 33 38 39
f 33 39 34
f 34 39 35
f 35 39 40
f 36 41 42
f 36 42 37
f 38 43 39
f 38 44 45
f 38 45 43
f 39 43 40
f 41 46 42
f 42 46 47
f 43 45 44
f 43 44 48
f 43 48 49
f 46 50 47
f 47 50 51
f 48 52 54
f 48 54 53
f 48 53 49
f 49 53 54
f 49 54 55
f 49 55 56
f 50 57 51
f 51 57 58
f 52 59 54
f 54 59 55
f 55 59 60
f 55 60 61
f 55 61 56
f 57 62 58
f 58 62 63
f 59 64 60
f 60 64 65
f 60 65 66
f 60 66 67
f 60 67 61
f 62 68 69
f 62 69 63
f 65 70 66
f 66 70 71
f 66 71 72
f 66 72 73
f 66 73 74
f 66 74 75
f 66 75 67
f 68 76 69
f 69 76 77
f 72 78 79
f 72 79 80
f 72 80 73
f 73 80 79
f 73 79 81
f 76 82 77
f 77 82 83
f 78 84 79
f 79 84 85
f 79 85 86
f 79 86 87
f 79 87 88
f 79 88 81
f 82 89 83
f 82 90 89
f 86 91 92
f 86 92 87
f 87 92 88
f 89 90 94
f 89 94 93
f 91 95 96
f 91 96 97
f 91 97 92
f 93 94 98
f 93 98 99
f 93 99 100
f 95 101 96
f 96 101 102
f 96 102 103
f 96 103 97
f 99 104 100
f 100 104 105
f 100 105 106
f 101 107 102
f 101 108 107
f 102 107 103
f 103 107 109
f 105 110 111
f 105 111 106
f 107 108 112
f 107 112 113
f 107 113 109
f 109 113 114
f 110 115 116
f 110 116 111
f 112 117 113
f 113 117 118
f 113 118 114
f 114 118 119
f 114 119 124
f 114 124 120
f 114 120 125
f 114 125 121
f 115 122 116
f 116 122 123
f 117 124 119
f 117 119 118
f 120 124 125
f 121 125 126
f 122 127 128
f 122 128 123
f 124 129 125
f 125 129 126
f 126 129 130
f 126 130 131
f 127 132 128
f 128 132 133
f 129 134 135
f 129 135 130
f 130 135 131
f 131 135 136
f 132 137 133
f 133 137 138
f 134 139 144
f 134 144 140
f 134 140 136
f 134 136 135
f 137 141 142
f 137 142 138
f 139 143 151
f 139 151 144
f 140 144 145
f 141 146 142
f 142 146 147
f 143 148 149
f 143 149 150
f 143 150 151
f 144 151 145
f 145 151 150
f 146 152 153
f 146 153 147
f 148 154 161
f 148 161 155
f 148 155 149
f 149 155 163
f 149 163 156
f 149 156 150
f 152 157 153
f 153 157 158
f 154 159 160
f 154 160 163
f 154 163 161
f 154 162 159
f 155 161 163
f 157 164 158
f 157 165 164
f 159 163 160
f 159 162 166
f 159 166 167
f 159 167 163
f 162 168 166
f 164 165 169
f 165 170 171
f 165 171 169
f 166 168 172
f 166 172 173
f 166 173 167
f 168 174 177
f 168 177 172
f 170 175 181
f 170 181 176
f 170 176 171
f 172 177 173
f 173 177 178
f 173 178 179
f 174 178 177
f 175 180 184
f 175 184 186
f 175 186 181
f 178 182 183
f 178 183 179
f 180 185 184
f 182 187 183
f 182 188 189
f 182 189 187
f 183 187 190
f 184 185 191
f 184 191 192
f 184 192 186
f 186 192 193
f 187 189 190
f 188 194 189
f 189 194 195
f 189 195 196
f 189 196 190
f 192 197 198
f 192 198 199
f 192 199 200
f 192 200 193
f 193 200 199
f 193 199 198
f 193 198 201
f 195 202 203
f 195 203 204
f 195 204 196
f 197 205 206
f 197 206 198
f 198 207 201
f 198 206 208
f 198 208 207
f 202 209 203
f 203 210 211
f 203 211 204
f 203 209 212
f 203 212 213
f 203 213 210
f 205 214 206
f 206 214 215
f 206 215 222
f 206 222 216
f 206 216 208
f 209 217 212
f 212 218 213
f 212 217 219
f 212 219 220
f 212 220 227
f 212 227 218
f 214 221 215
f 215 221 223
f 215 223 224
f 215 224 225
f 215 225 226
f 215 226 222
f 219 228 220
f 220 228 229
f 220 229 230
f 220 230 227
f 223 231 232
f 223 232 224
f 228 233 234
f 228 234 230
f 228 230 229
f 230 234 235
f 231 235 232
f 232 235 234
f 232 234 236
f 233 236 234