# https://github.com/mikedh/trimesh
v 0.05747692 0.02437800 0.01910163
v 0.05562622 0.02286393 0.01910163
v 0.06438337 0.02391855 0.01910163
v 0.06438337 0.02439888 0.01909791
v 0.06438337 0.02454507 0.01908672
v 0.06438337 0.02472258 0.01907181
v 0.05747692 0.02475390 0.01906806
v 0.05562622 0.02449809 0.01909044
v 0.05562622 0.02440932 0.01909791
v 0.05562622 -0.02286114 0.01910163
v 0.06438337 -0.02392098 0.01910163
v 0.06438337 0.02479569 0.01906062
v 0.05562622 0.02477481 0.01906434
v 0.05562622 0.02474868 0.01906806
v 0.05562622 -0.02441175 0.01909791
v 0.05747692 -0.02438043 0.01910163
v 0.06438337 -0.02439609 0.01909791
v 0.06438337 0.02494188 0.01902330
v 0.05747692 0.02490009 0.01903449
v 0.05562622 0.02489487 0.01903449
v 0.05562622 -0.02450052 0.01909044
v 0.05747692 -0.02450574 0.01909044
v 0.06438337 -0.02471979 0.01907181
v 0.06438337 -0.02454750 0.01908672
v 0.06438337 0.02513505 0.01897110
v 0.05562622 0.02513505 0.01897110
v 0.05562622 0.02495232 0.01901958
v 0.05562622 -0.02474589 0.01906806
v 0.05747692 -0.02475111 0.01906806
v 0.06438337 -0.02477199 0.01906434
v 0.06438337 0.02515593 0.01896363
v 0.05747692 0.02516115 0.01896363
v 0.05562622 0.02516115 0.01896363
v 0.05562622 -0.02477199 0.01906434
v 0.05747692 -0.02477721 0.01906434
v 0.06438337 -0.02480853 0.01905687
v 0.06438337 0.02519247 0.01894872
v 0.06438337 0.02539608 0.01885548
v 0.05562622 0.02523423 0.01893009
v 0.05562622 -0.02485554 0.01904568
v 0.06438337 -0.02512179 0.01897482
v 0.06438337 0.02550573 0.01880328
v 0.05562622 0.02552661 0.01879209
v 0.05562622 -0.02504349 0.01899348
v 0.05747692 -0.02515836 0.01896363
v 0.06438337 -0.02514267 0.01896738
v 0.06438337 0.02556837 0.01876224
v 0.05562622 0.02566758 0.01869513
v 0.05562622 -0.02516358 0.01895991
v 0.05747692 -0.02518446 0.01895244
v 0.06438337 -0.02517924 0.01895244
v 0.06438337 0.02577201 0.01862052
v 0.05562622 0.02582421 0.01858323
v 0.05562622 -0.02518968 0.01894872
v 0.05562622 -0.02552382 0.01879581
v 0.06438337 -0.02524710 0.01892262
v 0.06438337 0.02583465 0.01857579
v 0.05747692 0.02585031 0.01856460
v 0.05562622 0.02587119 0.01854594
v 0.06438337 -0.02557080 0.01876224
v 0.06438337 -0.02553948 0.01878090
v 0.06438337 -0.02549250 0.01880700
v 0.06438337 -0.02547159 0.01881819
v 0.05562622 -0.02582664 0.01857951
v 0.05747692 -0.02583186 0.01857951
v 0.06438337 0.02588163 0.01853475
v 0.05747692 0.02613225 0.01828488
v 0.05562622 0.02607480 0.01834083
v 0.06438337 -0.02586318 0.01855341
v 0.05562622 -0.02586840 0.01854222
v 0.05562622 -0.02590494 0.01850865
v 0.05747692 -0.02584752 0.01856460
v 0.06438337 0.02611659 0.01829607
v 0.06438337 0.02614269 0.01826625
v 0.05747692 0.02636196 0.01795668
v 0.05562622 0.02636196 0.01795668
v 0.05562622 0.02614791 0.01825878
v 0.05562622 0.02611137 0.01830354
v 0.05562622 -0.02596758 0.01844898
v 0.05747692 -0.02613465 0.01828488
v 0.06438337 -0.02610333 0.01831473
v 0.06438337 0.02630454 0.01803501
v 0.06438337 0.02634630 0.01797162
v 0.06438337 0.02638284 0.01790448
v 0.06438337 0.02651859 0.01761357
v 0.05562622 0.02652903 0.01759866
v 0.05562622 -0.02613465 0.01828116
v 0.05562622 -0.02615034 0.01825878
v 0.05562622 -0.02635917 0.01795668
v 0.06438337 -0.02630694 0.01803501
v 0.06438337 -0.02622342 0.01815435
v 0.06438337 -0.02613990 0.01826625
v 0.06438337 0.02653425 0.01757628
v 0.06438337 0.02663346 0.01721826
v 0.05562622 0.02661258 0.01728912
v 0.05747692 -0.02635917 0.01795668
v 0.05562622 -0.02637483 0.01793058
v 0.06438337 -0.02635395 0.01796043
v 0.06438337 0.02666478 0.01683414
v 0.05747692 0.02667000 0.01681548
v 0.05562622 0.02663346 0.01721079
v 0.05562622 -0.02652624 0.01759866
v 0.05747692 -0.02652102 0.01761732
v 0.06438337 -0.02638527 0.01790448
v 0.06438337 0.02667000 0.01630083
v 0.05562622 0.02667000 0.01667748
v 0.05562622 0.02666478 0.01684533
v 0.05562622 -0.02660976 0.01728912
v 0.05747692 -0.02653668 0.01757256
v 0.06438337 -0.02652624 0.01760238
v 0.06438337 0.02667000 -0.01619757
v 0.05562622 0.02667000 -0.01657422
v 0.05562622 -0.02663064 0.01721079
v 0.06438337 -0.02663064 0.01721826
v 0.06438337 -0.02657322 0.01743456
v 0.05747692 0.02667000 -0.01671222
v 0.06438337 0.02666478 -0.01673088
v 0.05562622 0.02666478 -0.01673832
v 0.05562622 -0.02664111 0.01713249
v 0.06438337 -0.02666721 0.01683414
v 0.06438337 0.02663346 -0.01710009
v 0.05747692 0.02663346 -0.01710753
v 0.05562622 0.02663346 -0.01710753
v 0.05562622 -0.02666721 0.01684158
v 0.06438337 -0.02666721 -0.01673088
v 0.06438337 0.02662824 -0.01712619
v 0.06438337 0.02662302 -0.01714857
v 0.05747692 0.02654991 -0.01742082
v 0.05562622 0.02652903 -0.01749540
v 0.05562622 -0.02666721 -0.01671222
v 0.05747692 -0.02666721 -0.01673460
v 0.05562622 -0.02664111 -0.01702923
v 0.06438337 -0.02663589 -0.01707771
v 0.06438337 0.02654469 -0.01743945
v 0.06438337 0.02652381 -0.01749912
v 0.05747692 0.02636196 -0.01785342
v 0.05562622 0.02636196 -0.01785342
v 0.05562622 -0.02663064 -0.01710753
v 0.05747692 -0.02663589 -0.01708143
v 0.05747692 -0.02663064 -0.01710753
v 0.06438337 -0.02662542 -0.01712619
v 0.06438337 0.02635674 -0.01785717
v 0.05747692 0.02613225 -0.01818162
v 0.05562622 0.02634630 -0.01787580
v 0.05562622 -0.02655234 -0.01741710
v 0.05747692 -0.02662542 -0.01712991
v 0.06438337 -0.02658888 -0.01727163
v 0.06438337 0.02614269 -0.01816299
v 0.06438337 0.02611659 -0.01819281
v 0.06438337 0.02586597 -0.01845015
v 0.05562622 0.02585031 -0.01846134
v 0.05562622 0.02607480 -0.01823757
v 0.05562622 0.02611137 -0.01820028
v 0.05562622 0.02614791 -0.01815552
v 0.05747692 -0.02653668 -0.01746930
v 0.06438337 -0.02653146 -0.01748796
v 0.05562622 -0.02652624 -0.01749540
v 0.06438337 0.02581377 -0.01848744
v 0.05562622 0.02570412 -0.01856577
v 0.05747692 -0.02652102 -0.01751406
v 0.06438337 -0.02637483 -0.01782360
v 0.05562622 -0.02637483 -0.01782732
v 0.06438337 0.02556837 -0.01865898
v 0.05562622 0.02552661 -0.01868883
v 0.05747692 -0.02635917 -0.01785342
v 0.06438337 -0.02634873 -0.01786836
v 0.05562622 -0.02635917 -0.01785342
v 0.06438337 0.02553705 -0.01867764
v 0.06438337 0.02548485 -0.01870749
v 0.06438337 0.02539608 -0.01875222
v 0.05562622 0.02523423 -0.01882683
v 0.06438337 -0.02630694 -0.01793175
v 0.05562622 -0.02615034 -0.01815552
v 0.05747692 -0.02613465 -0.01818162
v 0.06438337 0.02519247 -0.01884546
v 0.05747692 0.02516115 -0.01886037
v 0.05562622 0.02516115 -0.01886037
v 0.06438337 -0.02622342 -0.01805109
v 0.05562622 -0.02613465 -0.01817790
v 0.05562622 -0.02600415 -0.01830843
v 0.05747692 -0.02600937 -0.01830471
v 0.06438337 -0.02586318 -0.01845015
v 0.06438337 -0.02603025 -0.01828233
v 0.06438337 -0.02611899 -0.01819281
v 0.06438337 0.02515593 -0.01886037
v 0.06438337 0.02513505 -0.01886784
v 0.05562622 0.02513505 -0.01886784
v 0.05562622 -0.02590494 -0.01840539
v 0.05747692 -0.02584752 -0.01846134
v 0.05747692 -0.02583186 -0.01847625
v 0.06438337 -0.02557080 -0.01865898
v 0.06438337 0.02494188 -0.01892004
v 0.05747692 0.02490009 -0.01893123
v 0.05562622 0.02499408 -0.01890513
v 0.05562622 -0.02586840 -0.01843896
v 0.05562622 -0.02552382 -0.01869255
v 0.05562622 -0.02582142 -0.01847997
v 0.06438337 -0.02550294 -0.01870002
v 0.06438337 0.02479569 -0.01895736
v 0.05562622 0.02480613 -0.01895361
v 0.05562622 -0.02523144 -0.01882683
v 0.05747692 -0.02518446 -0.01884918
v 0.06438337 -0.02525754 -0.01881564
v 0.06438337 0.02472258 -0.01896855
v 0.05747692 0.02475390 -0.01896480
v 0.05562622 0.02477481 -0.01896108
v 0.05562622 -0.02516358 -0.01885665
v 0.05747692 -0.02515836 -0.01886037
v 0.06438337 -0.02518968 -0.01884546
v 0.06438337 0.02454507 -0.01898346
v 0.05747692 0.02437800 -0.01899837
v 0.05562622 0.02474868 -0.01896480
v 0.05562622 -0.02513223 -0.01886784
v 0.06438337 -0.02512179 -0.01887156
v 0.06438337 -0.02514267 -0.01886412
v 0.06438337 0.02439888 -0.01899465
v 0.06438337 0.02381415 -0.01899837
v 0.05562622 0.02281695 -0.01899837
v 0.05562622 0.02441454 -0.01899465
v 0.05562622 -0.02485554 -0.01894242
v 0.06438337 -0.02480853 -0.01895361
v 0.06438337 -0.02307519 -0.01899837
v 0.05562622 -0.02404629 -0.01899837
v 0.05562622 -0.02477199 -0.01896108
v 0.05747692 -0.02477721 -0.01896108
v 0.06438337 -0.02477199 -0.01896108
v 0.06438337 -0.02439609 -0.01899465
v 0.05747692 -0.02438043 -0.01899837
v 0.05562622 -0.02440653 -0.01899465
v 0.05562622 -0.02474589 -0.01896480
v 0.05747692 -0.02475111 -0.01896480
v 0.06438337 -0.02471979 -0.01896855
v 0.06438337 -0.02454750 -0.01898346
v 0.05747692 -0.02450574 -0.01898718
v 0.05562622 -0.02450052 -0.01898718
f 1 2 10
f 1 10 16
f 1 16 11
f 1 11 3
f 1 3 4
f 1 4 5
f 1 5 6
f 1 6 7
f 1 7 14
f 1 14 8
f 1 8 9
f 1 9 2
f 2 9 8
f 2 8 14
f 2 14 13
f 2 13 20
f 2 20 27
f 2 27 26
f 2 26 33
f 2 33 39
f 2 39 43
f 2 43 48
f 2 48 53
f 2 53 59
f 2 59 68
f 2 68 78
f 2 78 77
f 2 77 76
f 2 76 86
f 2 86 95
f 2 95 101
f 2 101 107
f 2 107 106
f 2 106 112
f 2 112 118
f 2 118 123
f 2 123 129
f 2 129 137
f 2 137 144
f 2 144 154
f 2 154 153
f 2 153 152
f 2 152 151
f 2 151 159
f 2 159 164
f 2 164 171
f 2 171 177
f 2 177 187
f 2 187 194
f 2 194 200
f 2 200 206
f 2 206 212
f 2 212 219
f 2 219 218
f 2 218 223
f 2 223 229
f 2 229 235
f 2 235 230
f 2 230 224
f 2 224 220
f 2 220 213
f 2 213 207
f 2 207 201
f 2 201 196
f 2 196 197
f 2 197 195
f 2 195 188
f 2 188 180
f 2 180 179
f 2 179 173
f 2 173 167
f 2 167 162
f 2 162 157
f 2 157 145
f 2 145 138
f 2 138 132
f 2 132 130
f 2 130 124
f 2 124 119
f 2 119 113
f 2 113 108
f 2 108 102
f 2 102 97
f 2 97 89
f 2 89 88
f 2 88 87
f 2 87 79
f 2 79 71
f 2 71 70
f 2 70 64
f 2 64 55
f 2 55 54
f 2 54 49
f 2 49 44
f 2 44 40
f 2 40 34
f 2 34 28
f 2 28 21
f 2 21 15
f 2 15 10
f 3 11 17
f 3 17 24
f 3 24 23
f 3 23 30
f 3 30 36
f 3 36 41
f 3 41 46
f 3 46 51
f 3 51 56
f 3 56 63
f 3 63 62
f 3 62 61
f 3 61 60
f 3 60 69
f 3 69 81
f 3 81 92
f 3 92 91
f 3 91 90
f 3 90 98
f 3 98 104
f 3 104 110
f 3 110 115
f 3 115 114
f 3 114 120
f 3 120 125
f 3 125 133
f 3 133 141
f 3 141 147
f 3 147 156
f 3 156 161
f 3 161 166
f 3 166 172
f 3 172 178
f 3 178 184
f 3 184 183
f 3 183 182
f 3 182 191
f 3 191 198
f 3 198 203
f 3 203 209
f 3 209 215
f 3 215 214
f 3 214 221
f 3 221 226
f 3 226 232
f 3 232 233
f 3 233 227
f 3 227 222
f 3 222 217
f 3 217 216
f 3 216 210
f 3 210 204
f 3 204 199
f 3 199 192
f 3 192 186
f 3 186 185
f 3 185 175
f 3 175 170
f 3 170 169
f 3 169 168
f 3 168 163
f 3 163 158
f 3 158 150
f 3 150 149
f 3 149 148
f 3 148 142
f 3 142 135
f 3 135 134
f 3 134 127
f 3 127 126
f 3 126 121
f 3 121 117
f 3 117 111
f 3 111 105
f 3 105 99
f 3 99 94
f 3 94 93
f 3 93 85
f 3 85 84
f 3 84 83
f 3 83 82
f 3 82 74
f 3 74 73
f 3 73 66
f 3 66 57
f 3 57 52
f 3 52 47
f 3 47 42
f 3 42 38
f 3 38 37
f 3 37 31
f 3 31 25
f 3 25 18
f 3 18 12
f 3 12 6
f 3 6 5
f 3 5 4
f 6 12 7
f 7 12 13
f 7 13 14
f 10 15 16
f 11 16 17
f 12 18 19
f 12 19 13
f 13 19 20
f 15 21 16
f 16 21 22
f 16 22 23
f 16 23 24
f 16 24 17
f 18 25 26
f 18 26 19
f 19 26 27
f 19 27 20
f 21 28 29
f 21 29 22
f 22 29 23
f 23 29 35
f 23 35 30
f 25 31 32
f 25 32 33
f 25 33 26
f 28 34 35
f 28 35 29
f 30 35 36
f 31 37 32
f 32 37 38
f 32 38 39
f 32 39 33
f 34 40 35
f 35 40 36
f 36 40 41
f 38 42 43
f 38 43 39
f 40 44 45
f 40 45 41
f 41 45 46
f 42 47 43
f 43 47 48
f 44 49 45
f 45 49 54
f 45 54 50
f 45 50 51
f 45 51 46
f 47 52 48
f 48 52 57
f 48 57 58
f 48 58 53
f 50 54 55
f 50 55 56
f 50 56 51
f 53 58 59
f 55 60 61
f 55 61 62
f 55 62 63
f 55 63 56
f 55 64 65
f 55 65 60
f 57 66 58
f 58 66 59
f 59 66 67
f 59 67 68
f 60 65 69
f 64 70 65
f 65 70 71
f 65 71 79
f 65 79 72
f 65 72 69
f 66 73 67
f 67 73 74
f 67 74 82
f 67 82 75
f 67 75 76
f 67 76 77
f 67 77 78
f 67 78 68
f 69 72 79
f 69 79 80
f 69 80 81
f 75 82 83
f 75 83 84
f 75 84 85
f 75 85 86
f 75 86 76
f 79 87 80
f 80 87 88
f 80 88 89
f 80 89 90
f 80 90 91
f 80 91 92
f 80 92 81
f 85 93 86
f 86 93 94
f 86 94 95
f 89 96 90
f 89 97 96
f 90 96 98
f 94 99 100
f 94 100 101
f 94 101 95
f 96 97 98
f 97 102 103
f 97 103 104
f 97 104 98
f 99 105 100
f 100 105 111
f 100 111 116
f 100 116 112
f 100 112 106
f 100 106 107
f 100 107 101
f 102 108 109
f 102 109 103
f 103 109 110
f 103 110 104
f 108 113 109
f 109 113 114
f 109 114 115
f 109 115 110
f 111 117 116
f 112 116 118
f 113 119 114
f 114 119 120
f 116 117 121
f 116 121 122
f 116 122 123
f 116 123 118
f 119 124 120
f 120 124 130
f 120 130 131
f 120 131 125
f 121 126 122
f 122 126 127
f 122 127 123
f 123 127 128
f 123 128 129
f 125 131 132
f 125 132 133
f 127 134 128
f 128 134 129
f 129 134 135
f 129 135 136
f 129 136 137
f 130 132 131
f 132 138 139
f 132 139 133
f 133 139 140
f 133 140 141
f 135 142 136
f 136 142 148
f 136 148 143
f 136 143 144
f 136 144 137
f 138 140 139
f 138 145 146
f 138 146 140
f 140 146 141
f 141 146 147
f 143 148 149
f 143 149 150
f 143 150 151
f 143 151 152
f 143 152 153
f 143 153 154
f 143 154 144
f 145 155 156
f 145 156 147
f 145 147 146
f 145 157 155
f 150 158 159
f 150 159 151
f 155 157 160
f 155 160 156
f 156 160 161
f 157 162 160
f 158 163 159
f 159 163 164
f 160 162 161
f 161 162 165
f 161 165 166
f 162 167 165
f 163 168 164
f 164 168 169
f 164 169 170
f 164 170 171
f 165 172 166
f 165 167 172
f 167 173 174
f 167 174 172
f 170 175 176
f 170 176 171
f 171 176 177
f 172 174 178
f 173 179 174
f 174 179 180
f 174 180 181
f 174 181 182
f 174 182 183
f 174 183 184
f 174 184 178
f 175 185 176
f 176 185 186
f 176 186 187
f 176 187 177
f 180 188 181
f 181 188 182
f 182 188 189
f 182 189 190
f 182 190 191
f 186 192 187
f 187 192 193
f 187 193 194
f 188 195 190
f 188 190 189
f 190 196 191
f 190 195 197
f 190 197 196
f 191 196 198
f 192 199 193
f 193 199 200
f 193 200 194
f 196 201 202
f 196 202 203
f 196 203 198
f 199 204 205
f 199 205 206
f 199 206 200
f 201 207 202
f 202 207 208
f 202 208 209
f 202 209 203
f 204 210 211
f 204 211 205
f 205 212 206
f 205 211 219
f 205 219 212
f 207 213 208
f 208 214 215
f 208 215 209
f 208 213 214
f 210 216 211
f 211 216 217
f 211 217 222
f 211 222 228
f 211 228 223
f 211 223 218
f 211 218 219
f 213 220 214
f 214 220 221
f 220 224 225
f 220 225 221
f 221 225 226
f 222 227 228
f 223 228 229
f 224 230 231
f 224 231 225
f 225 231 232
f 225 232 226
f 227 233 228
f 228 233 232
f 228 232 234
f 228 234 235
f 228 235 229
f 230 235 234
f 230 234 231
f 231 234 232