# https://github.com/mikedh/trimesh
v 0.08352202 0.08976981 0.05000000 0.43529412 0.89019608 0.96078431
v 0.08352202 0.08477068 0.05000000 0.43529412 0.89019608 0.96078431
v 0.08352202 0.08976981 0.00000000 0.43529412 0.89019608 0.96078431
v 0.06624997 0.08976981 0.05000000 0.43529412 0.89019608 0.96078431
v 0.04892203 0.08476382 0.05000000 0.43529412 0.89019608 0.96078431
v 0.08352202 0.08477068 0.00000000 0.43529412 0.89019608 0.96078431
v 0.06624997 0.08976981 0.00000000 0.43529412 0.89019608 0.96078431
v 0.03959590 0.08976932 0.05000000 0.43529412 0.89019608 0.96078431
v 0.03959590 0.08476382 0.05000000 0.43529412 0.89019608 0.96078431
v 0.04892203 0.08476382 0.00000000 0.43529412 0.89019608 0.96078431
v 0.03959590 0.08976932 0.00000000 0.43529412 0.89019608 0.96078431
v 0.03959590 0.08476382 0.00000000 0.43529412 0.89019608 0.96078431
f 1 2 6
f 1 6 3
f 1 3 7
f 1 7 4
f 1 4 8
f 1 8 9
f 1 9 5
f 1 5 2
f 2 5 10
f 2 10 6
f 3 6 10
f 3 10 12
f 3 12 11
f 3 11 7
f 4 7 11
f 4 11 8
f 5 9 12
f 5 12 10
f 8 11 12
f 8 12 9