# https://github.com/mikedh/trimesh
v 0.09291329 0.05600939 0.05000000 0.38039216 0.78823529 0.52549020
v 0.08465248 0.05600939 0.05000000 0.38039216 0.78823529 0.52549020
v 0.09291329 0.05085030 0.05000000 0.38039216 0.78823529 0.52549020
v 0.09291329 0.05600939 0.00000000 0.38039216 0.78823529 0.52549020
v 0.06625423 0.05584980 0.05000000 0.38039216 0.78823529 0.52549020
v 0.08465248 0.05600939 0.00000000 0.38039216 0.78823529 0.52549020
v 0.06625423 0.05085030 0.05000000 0.38039216 0.78823529 0.52549020
v 0.09291329 0.05085030 0.00000000 0.38039216 0.78823529 0.52549020
v 0.06625423 0.05584980 0.00000000 0.38039216 0.78823529 0.52549020
v 0.06625423 0.05085030 0.00000000 0.38039216 0.78823529 0.52549020
f 1 2 5
f 1 5 7
f 1 7 3
f 1 3 8
f 1 8 4
f 1 4 6
f 1 6 2
f 2 6 9
f 2 9 5
f 3 7 10
f 3 10 8
f 4 8 10
f 4 10 9
f 4 9 6
f 5 9 10
f 5 10 7