# https://github.com/mikedh/trimesh
v 0.08654524 0.08353681 0.00000000 0.77647059 0.86666667 0.97647059
v 0.08352202 0.08477069 0.00000000 0.77647059 0.86666667 0.97647059
v 0.08654524 0.08977030 0.00000000 0.77647059 0.86666667 0.97647059
v 0.08654524 0.08353681 0.05000000 0.77647059 0.86666667 0.97647059
v 0.08352202 0.08977030 0.00000000 0.77647059 0.86666667 0.97647059
v 0.08352202 0.08477069 0.05000000 0.77647059 0.86666667 0.97647059
v 0.08654524 0.08977030 0.05000000 0.77647059 0.86666667 0.97647059
v 0.08352202 0.08977030 0.05000000 0.77647059 0.86666667 0.97647059
f 1 2 5
f 1 5 3
f 1 3 7
f 1 7 4
f 1 4 6
f 1 6 2
f 2 6 8
f 2 8 5
f 3 5 8
f 3 8 7
f 4 7 8
f 4 8 6