# https://github.com/mikedh/trimesh
v 0.08746066 0.05829793 0.00000000 0.26274510 0.77254902 0.45490196
v 0.08791615 0.08038552 0.00000000 0.26274510 0.77254902 0.45490196
v 0.09291590 0.05829793 0.00000000 0.26274510 0.77254902 0.45490196
v 0.08746066 0.05829793 0.05000000 0.26274510 0.77254902 0.45490196
v 0.09291590 0.08038552 0.00000000 0.26274510 0.77254902 0.45490196
v 0.08791615 0.08038552 0.05000000 0.26274510 0.77254902 0.45490196
v 0.09291590 0.05829793 0.05000000 0.26274510 0.77254902 0.45490196
v 0.09291590 0.08038552 0.05000000 0.26274510 0.77254902 0.45490196
f 1 2 5
f 1 5 3
f 1 3 7
f 1 7 4
f 1 4 6
f 1 6 2
f 2 6 8
f 2 8 5
f 3 5 8
f 3 8 7
f 4 7 8
f 4 8 6