# https://github.com/mikedh/trimesh
v 0.09291590 0.05829577 0.05000000 0.54509804 0.71372549 0.60000000
v 0.08746108 0.05829577 0.05000000 0.54509804 0.71372549 0.60000000
v 0.09291590 0.05600990 0.05000000 0.54509804 0.71372549 0.60000000
v 0.09291590 0.05829577 0.00000000 0.54509804 0.71372549 0.60000000
v 0.08465279 0.05600990 0.05000000 0.54509804 0.71372549 0.60000000
v 0.08746108 0.05829577 0.00000000 0.54509804 0.71372549 0.60000000
v 0.09291590 0.05600990 0.00000000 0.54509804 0.71372549 0.60000000
v 0.08465279 0.05600990 0.00000000 0.54509804 0.71372549 0.60000000
f 1 2 5
f 1 5 3
f 1 3 7
f 1 7 4
f 1 4 6
f 1 6 2
f 2 6 8
f 2 8 5
f 3 5 8
f 3 8 7
f 4 7 8
f 4 8 6