# https://github.com/mikedh/trimesh
v -0.03500074 0.02000000 0.01565738 0.54509804 0.71372549 0.60000000
v -0.03500074 0.02000000 -0.00041646 0.54509804 0.71372549 0.60000000
v -0.07500000 0.02000000 0.01565738 0.54509804 0.71372549 0.60000000
v -0.03500074 0.01992169 0.01632590 0.54509804 0.71372549 0.60000000
v -0.03497723 0.01599843 0.00865795 0.54509804 0.71372549 0.60000000
v -0.03500074 0.01994127 -0.00100096 0.54509804 0.71372549 0.60000000
v -0.07500000 0.02000000 -0.00041646 0.54509804 0.71372549 0.60000000
v -0.07500000 0.01992169 0.01632590 0.54509804 0.71372549 0.60000000
v -0.03500074 0.01970243 0.01696155 0.54509804 0.71372549 0.60000000
v -0.03497723 0.01582224 0.01009364 0.54509804 0.71372549 0.60000000
v -0.03497723 0.01582224 0.00722227 0.54509804 0.71372549 0.60000000
v -0.03500074 0.01976899 -0.00156355 0.54509804 0.71372549 0.60000000
v -0.07500000 0.01994127 -0.00100096 0.54509804 0.71372549 0.60000000
v -0.07500000 0.01970243 0.01696155 0.54509804 0.71372549 0.60000000
v -0.03500074 0.01934221 0.01752779 0.54509804 0.71372549 0.60000000
v -0.03497723 0.01530932 0.01144530 0.54509804 0.71372549 0.60000000
v -0.03497723 0.01530932 0.00587060 0.54509804 0.71372549 0.60000000
v -0.03500074 0.01949099 -0.00208229 0.54509804 0.71372549 0.60000000
v -0.07500000 0.01976899 -0.00156355 0.54509804 0.71372549 0.60000000
v -0.07500000 0.01934221 0.01752779 0.54509804 0.71372549 0.60000000
v -0.03500074 0.01886844 0.01800269 0.54509804 0.71372549 0.60000000
v -0.03497723 0.01449099 0.01263622 0.54509804 0.71372549 0.60000000
v -0.03497723 0.00530932 -0.01144530 0.54509804 0.71372549 0.60000000
v -0.03500074 0.01911903 -0.00253528 0.54509804 0.71372549 0.60000000
v -0.07500000 0.01949099 -0.00208229 0.54509804 0.71372549 0.60000000
v -0.03497723 0.00448708 -0.01263622 0.54509804 0.71372549 0.60000000
v -0.07500000 0.01886844 0.01800269 0.54509804 0.71372549 0.60000000
v -0.03500074 0.01830070 0.01836070 0.54509804 0.71372549 0.60000000
v -0.03497723 0.01340642 0.01359700 0.54509804 0.71372549 0.60000000
v -0.03500074 0.00387627 -0.01777985 0.54509804 0.71372549 0.60000000
v -0.07500000 0.01911903 -0.00253528 0.54509804 0.71372549 0.60000000
v -0.03497723 0.00340642 -0.01359700 0.54509804 0.71372549 0.60000000
v -0.07500000 0.01830070 0.01836070 0.54509804 0.71372549 0.60000000
v -0.03500074 0.01766641 0.01858354 0.54509804 0.71372549 0.60000000
v -0.03497723 0.01212608 0.01426918 0.54509804 0.71372549 0.60000000
v -0.03500074 0.00342208 -0.01815247 0.54509804 0.71372549 0.60000000
v -0.07500000 0.00387627 -0.01777985 0.54509804 0.71372549 0.60000000
v -0.03497723 0.00212608 -0.01426918 0.54509804 0.71372549 0.60000000
v -0.03500074 0.00290525 -0.01843011 0.54509804 0.71372549 0.60000000
v -0.07500000 0.01766641 0.01858354 0.54509804 0.71372549 0.60000000
v -0.03500074 0.01699687 0.01866026 0.54509804 0.71372549 0.60000000
v -0.03497723 0.01072044 0.01461623 0.54509804 0.71372549 0.60000000
v -0.07500000 0.00342208 -0.01815247 0.54509804 0.71372549 0.60000000
v -0.03497723 0.00072044 -0.01461623 0.54509804 0.71372549 0.60000000
v -0.03500074 0.00234143 -0.01860181 0.54509804 0.71372549 0.60000000
v -0.07500000 0.00290525 -0.01843011 0.54509804 0.71372549 0.60000000
v -0.07500000 0.01699687 0.01866026 0.54509804 0.71372549 0.60000000
v -0.03500074 -0.01699687 0.01866026 0.54509804 0.71372549 0.60000000
v -0.03497723 -0.01072044 0.01461623 0.54509804 0.71372549 0.60000000
v -0.03497723 -0.00072044 -0.01461623 0.54509804 0.71372549 0.60000000
v -0.03500074 0.00175411 -0.01866026 0.54509804 0.71372549 0.60000000
v -0.07500000 0.00234143 -0.01860181 0.54509804 0.71372549 0.60000000
v -0.07500000 -0.01699687 0.01866026 0.54509804 0.71372549 0.60000000
v -0.03500074 -0.01766641 0.01858354 0.54509804 0.71372549 0.60000000
v -0.03497723 -0.01212608 0.01426918 0.54509804 0.71372549 0.60000000
v -0.03497723 -0.00212608 -0.01426918 0.54509804 0.71372549 0.60000000
v -0.03500074 -0.00234143 -0.01860181 0.54509804 0.71372549 0.60000000
v -0.03500074 -0.00175411 -0.01866026 0.54509804 0.71372549 0.60000000
v -0.07500000 0.00175411 -0.01866026 0.54509804 0.71372549 0.60000000
v -0.07500000 -0.01766641 0.01858354 0.54509804 0.71372549 0.60000000
v -0.03500074 -0.01830070 0.01836070 0.54509804 0.71372549 0.60000000
v -0.03497723 -0.01340642 0.01359700 0.54509804 0.71372549 0.60000000
v -0.03497723 -0.00340642 -0.01359700 0.54509804 0.71372549 0.60000000
v -0.03500074 -0.00290525 -0.01843011 0.54509804 0.71372549 0.60000000
v -0.07500000 -0.00234143 -0.01860181 0.54509804 0.71372549 0.60000000
v -0.07500000 -0.00175411 -0.01866026 0.54509804 0.71372549 0.60000000
v -0.07500000 -0.01830070 0.01836070 0.54509804 0.71372549 0.60000000
v -0.03500074 -0.01886844 0.01800269 0.54509804 0.71372549 0.60000000
v -0.03497723 -0.01449099 0.01263622 0.54509804 0.71372549 0.60000000
v -0.03497723 -0.00449099 -0.01263622 0.54509804 0.71372549 0.60000000
v -0.03500074 -0.00387627 -0.01777985 0.54509804 0.71372549 0.60000000
v -0.03500074 -0.00342208 -0.01815247 0.54509804 0.71372549 0.60000000
v -0.07500000 -0.00290525 -0.01843011 0.54509804 0.71372549 0.60000000
v -0.07500000 -0.01886844 0.01800269 0.54509804 0.71372549 0.60000000
v -0.03500074 -0.01934221 0.01752779 0.54509804 0.71372549 0.60000000
v -0.03497723 -0.01530932 0.01144530 0.54509804 0.71372549 0.60000000
v -0.03497723 -0.00530932 -0.01144895 0.54509804 0.71372549 0.60000000
v -0.03500074 -0.01949099 -0.00208229 0.54509804 0.71372549 0.60000000
v -0.03500074 -0.01911903 -0.00253528 0.54509804 0.71372549 0.60000000
v -0.07500000 -0.00387627 -0.01777985 0.54509804 0.71372549 0.60000000
v -0.07500000 -0.00342208 -0.01815247 0.54509804 0.71372549 0.60000000
v -0.07500000 -0.01934221 0.01752779 0.54509804 0.71372549 0.60000000
v -0.03500074 -0.01970243 0.01696155 0.54509804 0.71372549 0.60000000
v -0.03497723 -0.01582224 0.01009364 0.54509804 0.71372549 0.60000000
v -0.03497723 -0.01530932 0.00586695 0.54509804 0.71372549 0.60000000
v -0.03500074 -0.01976899 -0.00156355 0.54509804 0.71372549 0.60000000
v -0.07500000 -0.01949099 -0.00208229 0.54509804 0.71372549 0.60000000
v -0.07500000 -0.01911903 -0.00253528 0.54509804 0.71372549 0.60000000
v -0.07500000 -0.01970243 0.01696155 0.54509804 0.71372549 0.60000000
v -0.03500074 -0.01992169 0.01632590 0.54509804 0.71372549 0.60000000
v -0.03497723 -0.01599843 0.00865795 0.54509804 0.71372549 0.60000000
v -0.03497723 -0.01531323 0.00587426 0.54509804 0.71372549 0.60000000
v -0.03497723 -0.01582224 0.00722227 0.54509804 0.71372549 0.60000000
v -0.03500074 -0.01994127 -0.00100096 0.54509804 0.71372549 0.60000000
v -0.07500000 -0.01976899 -0.00156355 0.54509804 0.71372549 0.60000000
v -0.07500000 -0.01992169 0.01632590 0.54509804 0.71372549 0.60000000
v -0.03500074 -0.02000000 0.01565738 0.54509804 0.71372549 0.60000000
v -0.03500074 -0.02000000 -0.00041646 0.54509804 0.71372549 0.60000000
v -0.07500000 -0.01994127 -0.00100096 0.54509804 0.71372549 0.60000000
v -0.07500000 -0.02000000 0.01565738 0.54509804 0.71372549 0.60000000
v -0.07500000 -0.02000000 -0.00041646 0.54509804 0.71372549 0.60000000
f 1 2 7
f 1 7 3
f 1 3 8
f 1 8 4
f 1 4 5
f 1 5 2
f 2 6 13
f 2 13 7
f 2 5 6
f 3 7 13
f 3 13 19
f 3 19 25
f 3 25 31
f 3 31 37
f 3 37 43
f 3 43 46
f 3 46 52
f 3 52 59
f 3 59 66
f 3 66 65
f 3 65 73
f 3 73 81
f 3 81 80
f 3 80 88
f 3 88 87
f 3 87 95
f 3 95 99
f 3 99 101
f 3 101 100
f 3 100 96
f 3 96 89
f 3 89 82
f 3 82 74
f 3 74 67
f 3 67 60
f 3 60 53
f 3 53 47
f 3 47 40
f 3 40 33
f 3 33 27
f 3 27 20
f 3 20 14
f 3 14 8
f 4 8 14
f 4 14 9
f 4 9 10
f 4 10 5
f 5 11 6
f 5 10 16
f 5 16 22
f 5 22 29
f 5 29 35
f 5 35 42
f 5 42 49
f 5 49 55
f 5 55 62
f 5 62 69
f 5 69 76
f 5 76 84
f 5 84 91
f 5 91 93
f 5 93 92
f 5 92 85
f 5 85 77
f 5 77 70
f 5 70 63
f 5 63 56
f 5 56 50
f 5 50 44
f 5 44 38
f 5 38 32
f 5 32 26
f 5 26 23
f 5 23 17
f 5 17 11
f 6 12 19
f 6 19 13
f 6 11 12
f 9 14 20
f 9 20 15
f 9 15 16
f 9 16 10
f 11 17 12
f 12 18 25
f 12 25 19
f 12 17 18
f 15 20 27
f 15 27 21
f 15 21 22
f 15 22 16
f 17 23 18
f 18 24 31
f 18 31 25
f 18 23 26
f 18 26 24
f 21 27 33
f 21 33 28
f 21 28 29
f 21 29 22
f 24 26 30
f 24 30 37
f 24 37 31
f 26 32 30
f 28 33 40
f 28 40 34
f 28 34 35
f 28 35 29
f 30 36 43
f 30 43 37
f 30 32 36
f 32 38 39
f 32 39 36
f 34 40 47
f 34 47 41
f 34 41 42
f 34 42 35
f 36 39 46
f 36 46 43
f 38 44 45
f 38 45 39
f 39 45 52
f 39 52 46
f 41 47 53
f 41 53 48
f 41 48 49
f 41 49 42
f 44 50 58
f 44 58 51
f 44 51 45
f 45 51 59
f 45 59 52
f 48 53 60
f 48 60 54
f 48 54 49
f 49 54 55
f 50 56 57
f 50 57 58
f 51 58 66
f 51 66 59
f 54 61 55
f 54 60 67
f 54 67 61
f 55 61 62
f 56 63 64
f 56 64 57
f 57 64 73
f 57 73 65
f 57 65 66
f 57 66 58
f 61 68 62
f 61 67 74
f 61 74 68
f 62 68 69
f 63 70 71
f 63 71 72
f 63 72 64
f 64 72 81
f 64 81 73
f 68 75 69
f 68 74 82
f 68 82 75
f 69 75 76
f 70 77 78
f 70 78 79
f 70 79 71
f 71 79 88
f 71 88 80
f 71 80 81
f 71 81 72
f 75 83 76
f 75 82 89
f 75 89 83
f 76 83 84
f 77 85 78
f 78 85 92
f 78 92 86
f 78 86 95
f 78 95 87
f 78 87 88
f 78 88 79
f 83 90 84
f 83 89 96
f 83 96 90
f 84 90 91
f 86 92 93
f 86 93 94
f 86 94 99
f 86 99 95
f 90 97 91
f 90 96 100
f 90 100 97
f 91 97 98
f 91 98 94
f 91 94 93
f 94 98 101
f 94 101 99
f 97 100 101
f 97 101 98