# https://github.com/mikedh/trimesh
v 0.01997601 0.01600000 0.00866095 0.38039216 0.78823529 0.52549020
v 0.01997601 0.01583909 0.00734483 0.38039216 0.78823529 0.52549020
v -0.02729583 0.01600000 0.00866095 0.38039216 0.78823529 0.52549020
v -0.02729583 0.01600000 0.00866212 0.38039216 0.78823529 0.52549020
v 0.01997601 0.01582617 0.01007668 0.38039216 0.78823529 0.52549020
v 0.01997601 0.01582382 0.00722529 0.38039216 0.78823529 0.52549020
v -0.03497723 0.01582382 0.00722529 0.38039216 0.78823529 0.52549020
v -0.03497723 0.01599883 0.00866095 0.38039216 0.78823529 0.52549020
v -0.03497723 0.01582382 0.01009426 0.38039216 0.78823529 0.52549020
v -0.02729583 0.01582382 0.01009543 0.38039216 0.78823529 0.52549020
v 0.01997601 0.01582382 0.01009543 0.38039216 0.78823529 0.52549020
v 0.01997601 0.01519428 0.00566071 0.38039216 0.78823529 0.52549020
v -0.02729583 0.01529529 0.00584237 0.38039216 0.78823529 0.52549020
v -0.03497723 0.01531056 0.00587284 0.38039216 0.78823529 0.52549020
v -0.03497723 0.01531173 0.01144671 0.38039216 0.78823529 0.52549020
v -0.02729583 0.01537751 0.01127443 0.38039216 0.78823529 0.52549020
v 0.01997601 0.01578154 0.01020911 0.38039216 0.78823529 0.52549020
v 0.01997601 0.01434041 0.00452039 0.38039216 0.78823529 0.52549020
v -0.03497723 0.01448958 0.00468212 0.38039216 0.78823529 0.52549020
v -0.03497723 0.01448958 0.01263860 0.38039216 0.78823529 0.52549020
v 0.01997601 0.01524244 0.01154750 0.38039216 0.78823529 0.52549020
v 0.01997601 0.01531056 0.01144788 0.38039216 0.78823529 0.52549020
v 0.01997601 0.01531761 0.01143147 0.38039216 0.78823529 0.52549020
v 0.01997601 0.01324224 0.00361329 0.38039216 0.78823529 0.52549020
v -0.02729583 0.01338436 0.00370705 0.38039216 0.78823529 0.52549020
v -0.02729583 0.01353822 0.00383479 0.38039216 0.78823529 0.52549020
v -0.03497723 0.01340667 0.00372346 0.38039216 0.78823529 0.52549020
v -0.03497723 0.01340667 0.01359727 0.38039216 0.78823529 0.52549020
v 0.01997601 0.01342077 0.01358555 0.38039216 0.78823529 0.52549020
v 0.01997601 0.01448958 0.01263860 0.38039216 0.78823529 0.52549020
v 0.01997601 0.01196085 0.00299098 0.38039216 0.78823529 0.52549020
v -0.02729583 0.01228267 0.00312927 0.38039216 0.78823529 0.52549020
v -0.03497723 0.01212646 0.00305075 0.38039216 0.78823529 0.52549020
v -0.03497723 0.01212646 0.01426880 0.38039216 0.78823529 0.52549020
v -0.02729583 0.01212646 0.01426998 0.38039216 0.78823529 0.52549020
v 0.01997601 0.01329979 0.01365352 0.38039216 0.78823529 0.52549020
v 0.01997601 0.01340667 0.01359727 0.38039216 0.78823529 0.52549020
v 0.01997601 0.01056905 0.00268744 0.38039216 0.78823529 0.52549020
v -0.02729583 0.01089557 0.00274486 0.38039216 0.78823529 0.52549020
v -0.03497723 0.01072174 0.00270502 0.38039216 0.78823529 0.52549020
v -0.03497723 0.01072174 0.01461453 0.38039216 0.78823529 0.52549020
v -0.02729583 0.01090261 0.01457117 0.38039216 0.78823529 0.52549020
v 0.01997601 0.01073936 0.01461219 0.38039216 0.78823529 0.52549020
v 0.01997601 0.01212646 0.01426998 0.38039216 0.78823529 0.52549020
v 0.01997601 0.00914789 0.00272142 0.38039216 0.78823529 0.52549020
v -0.03497723 0.00927826 0.00270502 0.38039216 0.78823529 0.52549020
v -0.03497723 0.00927826 0.01461453 0.38039216 0.78823529 0.52549020
v -0.02729583 0.01062073 0.01462157 0.38039216 0.78823529 0.52549020
v 0.01997601 0.01072174 0.01461453 0.38039216 0.78823529 0.52549020
v 0.01997601 0.00777136 0.00309059 0.38039216 0.78823529 0.52549020
v -0.03497723 0.00787354 0.00305075 0.38039216 0.78823529 0.52549020
v -0.02729583 0.00925947 0.00270736 0.38039216 0.78823529 0.52549020
v -0.03497723 0.00787354 0.01426998 0.38039216 0.78823529 0.52549020
v -0.02729583 0.00919252 0.01460047 0.38039216 0.78823529 0.52549020
v -0.02729583 0.00937927 0.01462157 0.38039216 0.78823529 0.52549020
v 0.01997601 0.01000059 0.01466024 0.38039216 0.78823529 0.52549020
v 0.01997601 0.00652168 0.00377385 0.38039216 0.78823529 0.52549020
v -0.02729583 0.00675776 0.00363439 0.38039216 0.78823529 0.52549020
v -0.03497723 0.00659685 0.00372228 0.38039216 0.78823529 0.52549020
v -0.03497723 0.00659332 0.01359610 0.38039216 0.78823529 0.52549020
v -0.02729583 0.00670608 0.01366290 0.38039216 0.78823529 0.52549020
v 0.01997601 0.00739787 0.01406488 0.38039216 0.78823529 0.52549020
v 0.01997601 0.00866634 0.01450906 0.38039216 0.78823529 0.52549020
v 0.01997601 0.00546697 0.00473135 0.38039216 0.78823529 0.52549020
v -0.02729583 0.00565254 0.00455438 0.38039216 0.78823529 0.52549020
v -0.02729583 0.00658275 0.00373049 0.38039216 0.78823529 0.52549020
v -0.03497723 0.00659098 0.00372580 0.38039216 0.78823529 0.52549020
v -0.03497723 0.00551042 0.01263743 0.38039216 0.78823529 0.52549020
v -0.02729583 0.00654634 0.01356328 0.38039216 0.78823529 0.52549020
v 0.01997601 0.00625976 0.01334998 0.38039216 0.78823529 0.52549020
v 0.01997601 0.00466830 0.00591152 0.38039216 0.78823529 0.52549020
v -0.02729583 0.00479749 0.00571228 0.38039216 0.78823529 0.52549020
v -0.02729583 0.00550455 0.00468916 0.38039216 0.78823529 0.52549020
v -0.03497723 0.00551160 0.00468212 0.38039216 0.78823529 0.52549020
v -0.03497723 0.00468944 0.01144671 0.38039216 0.78823529 0.52549020
v -0.02729583 0.00477635 0.01158149 0.38039216 0.78823529 0.52549020
v -0.02729583 0.00548223 0.01260461 0.38039216 0.78823529 0.52549020
v -0.02729583 0.00561613 0.01273822 0.38039216 0.78823529 0.52549020
v 0.01997601 0.00531076 0.01240069 0.38039216 0.78823529 0.52549020
v 0.01997601 0.00417148 0.00724638 0.38039216 0.78823529 0.52549020
v -0.02729583 0.00417500 0.00722763 0.38039216 0.78823529 0.52549020
v -0.03497723 0.00417618 0.00722529 0.38039216 0.78823529 0.52549020
v -0.02729583 0.00468591 0.00587753 0.38039216 0.78823529 0.52549020
v -0.03497723 0.00469179 0.00586932 0.38039216 0.78823529 0.52549020
v -0.03497723 0.00417618 0.01009426 0.38039216 0.78823529 0.52549020
v -0.02729583 0.00423490 0.01025951 0.38039216 0.78823529 0.52549020
v -0.02729583 0.00467652 0.01142210 0.38039216 0.78823529 0.52549020
v 0.01997601 0.00459548 0.01126271 0.38039216 0.78823529 0.52549020
v 0.01997601 0.00400235 0.00866095 0.38039216 0.78823529 0.52549020
v -0.02729583 0.00402584 0.00846289 0.38039216 0.78823529 0.52549020
v -0.03497723 0.00400235 0.00866095 0.38039216 0.78823529 0.52549020
v -0.03497723 0.00468826 0.00587636 0.38039216 0.78823529 0.52549020
v -0.02729583 0.00402231 0.00884612 0.38039216 0.78823529 0.52549020
v -0.02729583 0.00417265 0.01008020 0.38039216 0.78823529 0.52549020
v 0.01997601 0.00415269 0.00999347 0.38039216 0.78823529 0.52549020
v -0.02729583 0.00400235 0.00866212 0.38039216 0.78823529 0.52549020
f 1 2 3
f 1 3 4
f 1 4 5
f 1 5 11
f 1 11 17
f 1 17 23
f 1 23 22
f 1 22 21
f 1 21 30
f 1 30 29
f 1 29 37
f 1 37 36
f 1 36 44
f 1 44 43
f 1 43 49
f 1 49 56
f 1 56 63
f 1 63 62
f 1 62 70
f 1 70 79
f 1 79 88
f 1 88 95
f 1 95 89
f 1 89 80
f 1 80 71
f 1 71 64
f 1 64 57
f 1 57 50
f 1 50 45
f 1 45 38
f 1 38 31
f 1 31 24
f 1 24 18
f 1 18 12
f 1 12 6
f 1 6 2
f 2 6 7
f 2 7 3
f 3 7 8
f 3 8 4
f 4 8 9
f 4 9 10
f 4 10 5
f 5 10 11
f 6 12 13
f 6 13 14
f 6 14 7
f 7 14 19
f 7 19 27
f 7 27 33
f 7 33 40
f 7 40 46
f 7 46 51
f 7 51 59
f 7 59 67
f 7 67 74
f 7 74 84
f 7 84 92
f 7 92 82
f 7 82 91
f 7 91 85
f 7 85 75
f 7 75 68
f 7 68 60
f 7 60 53
f 7 53 47
f 7 47 41
f 7 41 34
f 7 34 28
f 7 28 20
f 7 20 15
f 7 15 9
f 7 9 8
f 9 15 16
f 9 16 10
f 10 16 17
f 10 17 11
f 12 18 19
f 12 19 13
f 13 19 14
f 15 20 21
f 15 21 22
f 15 22 23
f 15 23 16
f 16 23 17
f 18 24 25
f 18 25 26
f 18 26 19
f 19 26 27
f 20 28 29
f 20 29 30
f 20 30 21
f 24 31 32
f 24 32 25
f 25 32 33
f 25 33 27
f 25 27 26
f 28 34 35
f 28 35 36
f 28 36 37
f 28 37 29
f 31 38 39
f 31 39 33
f 31 33 32
f 33 39 40
f 34 41 35
f 35 42 43
f 35 43 44
f 35 44 36
f 35 41 42
f 38 45 46
f 38 46 40
f 38 40 39
f 41 47 55
f 41 55 48
f 41 48 49
f 41 49 43
f 41 43 42
f 45 50 51
f 45 51 52
f 45 52 46
f 46 52 51
f 47 53 54
f 47 54 55
f 48 56 49
f 48 55 56
f 50 57 58
f 50 58 51
f 51 58 59
f 53 60 61
f 53 61 62
f 53 62 63
f 53 63 54
f 54 63 56
f 54 56 55
f 57 64 65
f 57 65 66
f 57 66 58
f 58 66 59
f 59 66 67
f 60 68 69
f 60 69 61
f 61 69 62
f 62 69 70
f 64 71 72
f 64 72 73
f 64 73 65
f 65 73 74
f 65 74 67
f 65 67 66
f 68 75 76
f 68 76 77
f 68 77 78
f 68 78 69
f 69 78 70
f 70 78 77
f 70 77 79
f 71 80 81
f 71 81 82
f 71 82 83
f 71 83 72
f 72 83 84
f 72 84 74
f 72 74 73
f 75 85 86
f 75 86 87
f 75 87 76
f 76 87 88
f 76 88 79
f 76 79 77
f 80 89 90
f 80 90 81
f 81 90 91
f 81 91 82
f 82 92 83
f 83 92 84
f 85 91 93
f 85 93 94
f 85 94 86
f 86 94 95
f 86 95 88
f 86 88 87
f 89 95 93
f 89 93 96
f 89 96 91
f 89 91 90
f 91 96 93
f 93 95 94