# https://github.com/mikedh/trimesh
v -0.03497723 0.00600000 -0.00865949 0.54117647 0.42352941 0.64313725
v -0.03497723 0.00582498 -0.01009505 0.54117647 0.42352941 0.64313725
v -0.03497723 0.00582498 -0.00722508 0.54117647 0.42352941 0.64313725
v -0.02729583 0.00583085 -0.00725076 0.54117647 0.42352941 0.64313725
v 0.01997601 0.00586727 -0.00741416 0.54117647 0.42352941 0.64313725
v 0.01997601 0.00599530 -0.00886723 0.54117647 0.42352941 0.64313725
v -0.03497723 0.00531167 -0.01144776 0.54117647 0.42352941 0.64313725
v -0.02729583 0.00581676 -0.01012657 0.54117647 0.42352941 0.64313725
v -0.02729583 0.00537627 -0.01128903 0.54117647 0.42352941 0.64313725
v -0.03497723 0.00531167 -0.00587238 0.54117647 0.42352941 0.64313725
v -0.02729583 0.00532341 -0.00589456 0.54117647 0.42352941 0.64313725
v -0.02729583 0.00576507 -0.00705935 0.54117647 0.42352941 0.64313725
v 0.01997601 0.00539154 -0.00603228 0.54117647 0.42352941 0.64313725
v 0.01997601 0.00576625 -0.01031214 0.54117647 0.42352941 0.64313725
v -0.03497723 0.00449060 -0.01263823 0.54117647 0.42352941 0.64313725
v -0.02729583 0.00529640 -0.01147810 0.54117647 0.42352941 0.64313725
v -0.03497723 0.00449295 -0.00468541 0.54117647 0.42352941 0.64313725
v -0.02729583 0.00521182 -0.00572299 0.54117647 0.42352941 0.64313725
v 0.01997601 0.00459514 -0.00480446 0.54117647 0.42352941 0.64313725
v 0.01997601 0.00519538 -0.01165784 0.54117647 0.42352941 0.64313725
v -0.03497723 0.00340642 -0.01359761 0.54117647 0.42352941 0.64313725
v -0.02729583 0.00449060 -0.01263823 0.54117647 0.42352941 0.64313725
v -0.02729583 0.00435082 -0.01276194 0.54117647 0.42352941 0.64313725
v -0.03497723 0.00448708 -0.00467958 0.54117647 0.42352941 0.64313725
v 0.01997601 0.00352506 -0.00380773 0.54117647 0.42352941 0.64313725
v 0.01997601 0.00448943 -0.01263706 0.54117647 0.42352941 0.64313725
v -0.03497723 0.00212608 -0.01426987 0.54117647 0.42352941 0.64313725
v 0.01997601 0.00340759 -0.01359644 0.54117647 0.42352941 0.64313725
v -0.02729583 0.00324315 -0.01368397 0.54117647 0.42352941 0.64313725
v 0.01997601 0.00447651 -0.01264873 0.54117647 0.42352941 0.64313725
v -0.03497723 0.00340642 -0.00372370 0.54117647 0.42352941 0.64313725
v -0.02729583 0.00342404 -0.00373537 0.54117647 0.42352941 0.64313725
v -0.02729583 0.00324550 -0.00363616 0.54117647 0.42352941 0.64313725
v 0.01997601 0.00224589 -0.00309929 0.54117647 0.42352941 0.64313725
v -0.03497723 0.00072240 -0.01461534 0.54117647 0.42352941 0.64313725
v 0.01997601 0.00223297 -0.01421385 0.54117647 0.42352941 0.64313725
v 0.01997601 0.00212608 -0.01426987 0.54117647 0.42352941 0.64313725
v -0.02729583 0.00072240 -0.01461651 0.54117647 0.42352941 0.64313725
v -0.03497723 0.00212608 -0.00305143 0.54117647 0.42352941 0.64313725
v -0.02729583 0.00214370 -0.00305727 0.54117647 0.42352941 0.64313725
v 0.01997601 0.00083399 -0.00271997 0.54117647 0.42352941 0.64313725
v -0.03497723 -0.00072357 -0.01461534 0.54117647 0.42352941 0.64313725
v 0.01997601 0.00072240 -0.01461651 0.54117647 0.42352941 0.64313725
v -0.02729583 -0.00072240 -0.01461651 0.54117647 0.42352941 0.64313725
v -0.03497723 0.00072240 -0.00270596 0.54117647 0.42352941 0.64313725
v -0.02729583 0.00194636 -0.00300475 0.54117647 0.42352941 0.64313725
v 0.01997601 -0.00062608 -0.00269429 0.54117647 0.42352941 0.64313725
v -0.02729583 0.00053211 -0.00270363 0.54117647 0.42352941 0.64313725
v -0.03497723 -0.00212608 -0.01426987 0.54117647 0.42352941 0.64313725
v 0.01997601 -0.00072240 -0.01461651 0.54117647 0.42352941 0.64313725
v -0.02729583 -0.00212725 -0.01426987 0.54117647 0.42352941 0.64313725
v -0.03497723 -0.00072357 -0.00270596 0.54117647 0.42352941 0.64313725
v 0.01997601 -0.00205090 -0.00302342 0.54117647 0.42352941 0.64313725
v -0.02729583 -0.00070948 -0.00270363 0.54117647 0.42352941 0.64313725
v -0.02729583 -0.00090799 -0.00274915 0.54117647 0.42352941 0.64313725
v -0.03497723 -0.00340642 -0.01359644 0.54117647 0.42352941 0.64313725
v 0.01997601 -0.00212725 -0.01426987 0.54117647 0.42352941 0.64313725
v -0.02729583 -0.00340760 -0.01359644 0.54117647 0.42352941 0.64313725
v -0.03497723 -0.00212608 -0.00305143 0.54117647 0.42352941 0.64313725
v -0.02729583 -0.00211668 -0.00304676 0.54117647 0.42352941 0.64313725
v 0.01997601 -0.00335474 -0.00368752 0.54117647 0.42352941 0.64313725
v -0.03497723 -0.00449060 -0.01263706 0.54117647 0.42352941 0.64313725
v -0.02729583 -0.00449060 -0.01263823 0.54117647 0.42352941 0.64313725
v 0.01997601 -0.00340760 -0.01359644 0.54117647 0.42352941 0.64313725
v -0.03497723 -0.00340642 -0.00372370 0.54117647 0.42352941 0.64313725
v -0.02729583 -0.00229875 -0.00314013 0.54117647 0.42352941 0.64313725
v 0.01997601 -0.00445771 -0.00464690 0.54117647 0.42352941 0.64313725
v -0.02729583 -0.00340055 -0.00371903 0.54117647 0.42352941 0.64313725
v -0.02729583 -0.00355442 -0.00385208 0.54117647 0.42352941 0.64313725
v -0.03497723 -0.00531049 -0.01145126 0.54117647 0.42352941 0.64313725
v -0.02729583 -0.00458927 -0.01250167 0.54117647 0.42352941 0.64313725
v 0.01997601 -0.00440016 -0.01271759 0.54117647 0.42352941 0.64313725
v 0.01997601 -0.00449060 -0.01263706 0.54117647 0.42352941 0.64313725
v 0.01997601 -0.00450000 -0.01262539 0.54117647 0.42352941 0.64313725
v -0.03497723 -0.00449060 -0.00468308 0.54117647 0.42352941 0.64313725
v 0.01997601 -0.00529757 -0.00584554 0.54117647 0.42352941 0.64313725
v -0.03497723 -0.00531402 -0.01144425 0.54117647 0.42352941 0.64313725
v 0.01997601 -0.00519538 -0.01166017 0.54117647 0.42352941 0.64313725
v -0.03497723 -0.00531284 -0.00587355 0.54117647 0.42352941 0.64313725
v -0.02729583 -0.00531049 -0.00586888 0.54117647 0.42352941 0.64313725
v 0.01997601 -0.00582146 -0.00720991 0.54117647 0.42352941 0.64313725
v -0.03497723 -0.00582498 -0.01009622 0.54117647 0.42352941 0.64313725
v 0.01997601 -0.00563704 -0.01071246 0.54117647 0.42352941 0.64313725
v -0.03497723 -0.00582498 -0.00722508 0.54117647 0.42352941 0.64313725
v -0.02729583 -0.00582498 -0.00722275 0.54117647 0.42352941 0.64313725
v 0.01997601 -0.00599883 -0.00865949 0.54117647 0.42352941 0.64313725
v -0.02729583 -0.00598708 -0.00880538 0.54117647 0.42352941 0.64313725
v -0.03497723 -0.00599883 -0.00866065 0.54117647 0.42352941 0.64313725
v 0.01997601 -0.00590838 -0.00970173 0.54117647 0.42352941 0.64313725
v -0.02729583 -0.00600000 -0.00865949 0.54117647 0.42352941 0.64313725
f 1 2 7
f 1 7 15
f 1 15 21
f 1 21 27
f 1 27 35
f 1 35 42
f 1 42 49
f 1 49 56
f 1 56 62
f 1 62 70
f 1 70 77
f 1 77 82
f 1 82 88
f 1 88 84
f 1 84 79
f 1 79 75
f 1 75 65
f 1 65 59
f 1 59 52
f 1 52 45
f 1 45 39
f 1 39 31
f 1 31 24
f 1 24 17
f 1 17 10
f 1 10 3
f 1 3 4
f 1 4 5
f 1 5 6
f 1 6 2
f 2 6 8
f 2 8 9
f 2 9 7
f 3 10 11
f 3 11 12
f 3 12 4
f 4 12 5
f 5 12 13
f 5 13 19
f 5 19 25
f 5 25 34
f 5 34 41
f 5 41 47
f 5 47 53
f 5 53 61
f 5 61 67
f 5 67 76
f 5 76 81
f 5 81 86
f 5 86 89
f 5 89 83
f 5 83 78
f 5 78 74
f 5 74 73
f 5 73 72
f 5 72 64
f 5 64 57
f 5 57 50
f 5 50 43
f 5 43 37
f 5 37 36
f 5 36 28
f 5 28 30
f 5 30 26
f 5 26 20
f 5 20 14
f 5 14 6
f 6 14 8
f 7 9 16
f 7 16 15
f 8 14 9
f 9 14 16
f 10 17 18
f 10 18 11
f 11 18 19
f 11 19 13
f 11 13 12
f 14 20 16
f 15 16 20
f 15 20 22
f 15 22 23
f 15 23 21
f 17 24 19
f 17 19 18
f 19 24 25
f 20 26 22
f 21 23 28
f 21 28 29
f 21 29 27
f 22 26 30
f 22 30 28
f 22 28 23
f 24 31 32
f 24 32 25
f 25 32 33
f 25 33 34
f 27 29 36
f 27 36 37
f 27 37 43
f 27 43 38
f 27 38 35
f 28 36 29
f 31 39 40
f 31 40 33
f 31 33 32
f 33 40 34
f 34 40 41
f 35 38 44
f 35 44 42
f 38 43 50
f 38 50 44
f 39 45 46
f 39 46 40
f 40 46 41
f 41 46 45
f 41 45 48
f 41 48 47
f 42 44 49
f 44 50 57
f 44 57 51
f 44 51 49
f 45 52 54
f 45 54 48
f 47 48 54
f 47 54 55
f 47 55 53
f 49 51 58
f 49 58 56
f 51 57 64
f 51 64 58
f 52 59 60
f 52 60 55
f 52 55 54
f 53 55 60
f 53 60 61
f 56 58 63
f 56 63 62
f 58 64 63
f 59 65 66
f 59 66 60
f 60 66 61
f 61 66 68
f 61 68 69
f 61 69 67
f 62 63 71
f 62 71 70
f 63 64 72
f 63 72 73
f 63 73 74
f 63 74 71
f 65 75 69
f 65 69 68
f 65 68 66
f 67 69 75
f 67 75 76
f 70 71 78
f 70 78 77
f 71 74 78
f 75 79 80
f 75 80 76
f 76 80 81
f 77 78 83
f 77 83 82
f 79 84 85
f 79 85 81
f 79 81 80
f 81 85 86
f 82 87 88
f 82 83 89
f 82 89 87
f 84 88 90
f 84 90 85
f 85 90 86
f 86 90 89
f 87 90 88
f 87 89 90