mtllib hole.mtl
o hole
usemtl hole_mat
v -0.040000 -0.040000 0.000000
v -0.040000 -0.040000 0.010000
v -0.040000 0.040000 0.000000
v -0.040000 0.040000 0.010000
v 0.040000 -0.040000 0.000000
v 0.040000 -0.040000 0.010000
v 0.040000 0.040000 0.000000
v 0.040000 0.040000 0.010000
v 0.015000 -0.040000 0.010000
v 0.015000 -0.040000 0.060000
v 0.015000 0.040000 0.010000
v 0.015000 0.040000 0.060000
v 0.040000 -0.040000 0.010000
v 0.040000 -0.040000 0.060000
v 0.040000 0.040000 0.010000
v 0.040000 0.040000 0.060000
v -0.040000 -0.040000 0.010000
v -0.040000 -0.040000 0.060000
v -0.040000 0.040000 0.010000
v -0.040000 0.040000 0.060000
v -0.015000 -0.040000 0.010000
v -0.015000 -0.040000 0.060000
v -0.015000 0.040000 0.010000
v -0.015000 0.040000 0.060000
v -0.015000 0.020000 0.010000
v -0.015000 0.020000 0.060000
v -0.015000 0.040000 0.010000
v -0.015000 0.040000 0.060000
v 0.015000 0.020000 0.010000
v 0.015000 0.020000 0.060000
v 0.015000 0.040000 0.010000
v 0.015000 0.040000 0.060000
v -0.015000 -0.040000 0.010000
v -0.015000 -0.040000 0.060000
v -0.015000 -0.020000 0.010000
v -0.015000 -0.020000 0.060000
v 0.015000 -0.040000 0.010000
v 0.015000 -0.040000 0.060000
v 0.015000 -0.020000 0.010000
v 0.015000 -0.020000 0.060000
vt 0.0 0.0
vn -1.000000 0.000000 0.000000
vn 0.000000 -1.000000 0.000000
vn -1.000000 0.000000 0.000000
vn 0.000000 0.000000 -1.000000
vn 0.000000 0.000000 1.000000
vn 0.000000 -1.000000 0.000000
vn 0.000000 0.000000 1.000000
vn 0.000000 1.000000 0.000000
vn 0.000000 0.000000 -1.000000
vn 0.000000 1.000000 0.000000
vn 1.000000 0.000000 0.000000
vn 1.000000 0.000000 0.000000
vn -1.000000 0.000000 0.000000
vn 0.000000 -1.000000 0.000000
vn -1.000000 0.000000 0.000000
vn 0.000000 0.000000 -1.000000
vn 0.000000 0.000000 1.000000
vn 0.000000 -1.000000 0.000000
vn 0.000000 0.000000 1.000000
vn 0.000000 1.000000 0.000000
vn 0.000000 0.000000 -1.000000
vn 0.000000 1.000000 0.000000
vn 1.000000 0.000000 0.000000
vn 1.000000 0.000000 0.000000
vn -1.000000 0.000000 0.000000
vn 0.000000 -1.000000 0.000000
vn -1.000000 0.000000 0.000000
vn 0.000000 0.000000 -1.000000
vn 0.000000 0.000000 1.000000
vn 0.000000 -1.000000 0.000000
vn 0.000000 0.000000 1.000000
vn 0.000000 1.000000 0.000000
vn 0.000000 0.000000 -1.000000
vn 0.000000 1.000000 0.000000
vn 1.000000 0.000000 0.000000
vn 1.000000 0.000000 0.000000
vn -1.000000 0.000000 0.000000
vn 0.000000 -1.000000 0.000000
vn -1.000000 0.000000 0.000000
vn 0.000000 0.000000 -1.000000
vn 0.000000 0.000000 1.000000
vn 0.000000 -1.000000 0.000000
vn 0.000000 0.000000 1.000000
vn 0.000000 1.000000 0.000000
vn 0.000000 0.000000 -1.000000
vn 0.000000 1.000000 0.000000
vn 1.000000 0.000000 0.000000
vn 1.000000 0.000000 0.000000
vn -1.000000 0.000000 0.000000
vn 0.000000 -1.000000 0.000000
vn -1.000000 0.000000 0.000000
vn 0.000000 0.000000 -1.000000
vn 0.000000 0.000000 1.000000
vn 0.000000 -1.000000 0.000000
vn 0.000000 0.000000 1.000000
vn 0.000000 1.000000 0.000000
vn 0.000000 0.000000 -1.000000
vn 0.000000 1.000000 0.000000
vn 1.000000 0.000000 0.000000
vn 1.000000 0.000000 0.000000
f 2/1/1 4/1/1 1/1/1
f 5/1/2 2/1/2 1/1/2
f 1/1/3 4/1/3 3/1/3
f 3/1/4 5/1/4 1/1/4
f 2/1/5 8/1/5 4/1/5
f 6/1/6 2/1/6 5/1/6
f 6/1/7 8/1/7 2/1/7
f 4/1/8 8/1/8 3/1/8
f 7/1/9 5/1/9 3/1/9
f 3/1/10 8/1/10 7/1/10
f 7/1/11 6/1/11 5/1/11
f 8/1/12 6/1/12 7/1/12
f 10/1/13 12/1/13 9/1/13
f 13/1/14 10/1/14 9/1/14
f 9/1/15 12/1/15 11/1/15
f 11/1/16 13/1/16 9/1/16
f 10/1/17 16/1/17 12/1/17
f 14/1/18 10/1/18 13/1/18
f 14/1/19 16/1/19 10/1/19
f 12/1/20 16/1/20 11/1/20
f 15/1/21 13/1/21 11/1/21
f 11/1/22 16/1/22 15/1/22
f 15/1/23 14/1/23 13/1/23
f 16/1/24 14/1/24 15/1/24
f 18/1/25 20/1/25 17/1/25
f 21/1/26 18/1/26 17/1/26
f 17/1/27 20/1/27 19/1/27
f 19/1/28 21/1/28 17/1/28
f 18/1/29 24/1/29 20/1/29
f 22/1/30 18/1/30 21/1/30
f 22/1/31 24/1/31 18/1/31
f 20/1/32 24/1/32 19/1/32
f 23/1/33 21/1/33 19/1/33
f 19/1/34 24/1/34 23/1/34
f 23/1/35 22/1/35 21/1/35
f 24/1/36 22/1/36 23/1/36
f 26/1/37 28/1/37 25/1/37
f 29/1/38 26/1/38 25/1/38
f 25/1/39 28/1/39 27/1/39
f 27/1/40 29/1/40 25/1/40
f 26/1/41 32/1/41 28/1/41
f 30/1/42 26/1/42 29/1/42
f 30/1/43 32/1/43 26/1/43
f 28/1/44 32/1/44 27/1/44
f 31/1/45 29/1/45 27/1/45
f 27/1/46 32/1/46 31/1/46
f 31/1/47 30/1/47 29/1/47
f 32/1/48 30/1/48 31/1/48
f 34/1/49 36/1/49 33/1/49
f 37/1/50 34/1/50 33/1/50
f 33/1/51 36/1/51 35/1/51
f 35/1/52 37/1/52 33/1/52
f 34/1/53 40/1/53 36/1/53
f 38/1/54 34/1/54 37/1/54
f 38/1/55 40/1/55 34/1/55
f 36/1/56 40/1/56 35/1/56
f 39/1/57 37/1/57 35/1/57
f 35/1/58 40/1/58 39/1/58
f 39/1/59 38/1/59 37/1/59
f 40/1/60 38/1/60 39/1/60
