# https://github.com/mikedh/trimesh
v -0.07500000 -0.01912130 -0.00253893
v -0.07500000 -0.01949440 -0.00208432
v -0.07500000 -0.01977160 -0.00156566
v -0.07500000 -0.01994230 -0.00100288
v -0.07500000 -0.02000000 -0.00041761
v -0.07500000 -0.00387860 -0.01778157
v -0.07500000 -0.00342400 -0.01815467
v -0.07500000 -0.00290540 -0.01843189
v -0.07500000 -0.00234260 -0.01860260
v -0.07500000 -0.00175730 -0.01866026
v -0.03500000 -0.01912130 -0.00253893
v -0.03500000 -0.01949440 -0.00208432
v -0.03500000 -0.01977160 -0.00156566
v -0.03500000 -0.01994230 -0.00100288
v -0.03500000 -0.02000000 -0.00041761
v -0.03500000 -0.00531270 -0.01144859
v -0.03500000 -0.00582560 -0.01009615
v -0.03500000 -0.00387860 -0.01778157
v -0.03500000 -0.00342400 -0.01815467
v -0.03500000 -0.00290540 -0.01843189
v -0.03500000 -0.00234260 -0.01860260
v -0.03500000 -0.00175730 -0.01866026
v -0.03500000 -0.00212760 -0.01427035
v -0.03500000 -0.00072320 -0.01461651
v -0.03500000 -0.00449100 -0.01263898
v -0.03500000 -0.00340830 -0.01359816
v -0.03500000 -0.00600000 -0.00866025
v -0.03500000 -0.00582560 -0.00722436
v -0.03500000 -0.00531270 -0.00587191
v -0.03500000 -0.00449100 -0.00468151
v -0.03500000 -0.00340830 -0.00372235
v -0.03500000 -0.00212760 -0.00305015
v -0.03500000 -0.00072320 -0.00270399
v -0.07500000 -0.02000000 0.01566026
v -0.07500000 -0.01992470 0.01632782
v -0.07500000 -0.01970290 0.01696191
v -0.07500000 -0.01934550 0.01753073
v -0.07500000 -0.01887040 0.01800575
v -0.07500000 -0.01830160 0.01836317
v -0.07500000 -0.01766750 0.01858504
v -0.07500000 -0.01700000 0.01866026
v -0.03500000 -0.01531270 0.00587192
v -0.03500000 -0.01582560 0.00722437
v -0.03500000 -0.01600000 0.00866026
v -0.03500000 -0.01340830 0.00372236
v -0.03500000 -0.01212760 0.00305016
v -0.03500000 -0.01072320 0.00270401
v -0.03500000 -0.01449100 0.00468152
v -0.03500000 -0.01582560 0.01009615
v -0.03500000 -0.01531270 0.01144860
v -0.03500000 -0.02000000 0.01566026
v -0.03500000 -0.01992470 0.01632782
v -0.03500000 -0.01970290 0.01696191
v -0.03500000 -0.01934550 0.01753073
v -0.03500000 -0.01887040 0.01800575
v -0.03500000 -0.01830160 0.01836317
v -0.03500000 -0.01766750 0.01858504
v -0.03500000 -0.01700000 0.01866026
v -0.03500000 -0.01449100 0.01263900
v -0.03500000 -0.01340830 0.01359816
v -0.03500000 -0.01212760 0.01427036
v -0.03500000 -0.01072320 0.01461651
v -0.03500000 -0.00927670 0.00270401
v -0.03500000 -0.00787230 0.00305016
v -0.03500000 -0.00659160 0.00372236
v -0.03500000 -0.00550890 0.00468152
v -0.03500000 -0.00468720 0.00587192
v -0.03500000 -0.00417430 0.00722437
v -0.03500000 -0.00400000 0.00866026
v -0.03500000 -0.00659160 0.01359816
v -0.03500000 -0.00550890 0.01263900
v -0.03500000 -0.00927670 0.01461651
v -0.03500000 -0.00787230 0.01427036
v -0.03500000 -0.00417430 0.01009615
v -0.03500000 -0.00468720 0.01144860
v -0.07500000 0.00175740 -0.01866026
v -0.07500000 0.00234270 -0.01860260
v -0.07500000 0.00290540 -0.01843189
v -0.07500000 0.00342410 -0.01815467
v -0.07500000 0.00387870 -0.01778157
v -0.07500000 0.01912140 -0.00253893
v -0.07500000 0.01949440 -0.00208432
v -0.07500000 0.01977170 -0.00156566
v -0.07500000 0.01994240 -0.00100288
v -0.07500000 0.02000000 -0.00041761
v -0.03500000 0.00175740 -0.01866026
v -0.03500000 0.00234270 -0.01860260
v -0.03500000 0.00072330 -0.01461651
v -0.03500000 0.00212770 -0.01427035
v -0.03500000 0.00290540 -0.01843189
v -0.03500000 0.00342410 -0.01815467
v -0.03500000 0.00387870 -0.01778157
v -0.03500000 0.00340840 -0.01359816
v -0.03500000 0.00449110 -0.01263898
v -0.03500000 0.00531280 -0.01144859
v -0.03500000 0.00582570 -0.01009615
v -0.03500000 0.00449110 -0.00468151
v -0.03500000 0.00072330 -0.00270399
v -0.03500000 0.00212770 -0.00305015
v -0.03500000 0.00340840 -0.00372235
v -0.03500000 0.00600000 -0.00866025
v -0.03500000 0.00582570 -0.00722436
v -0.03500000 0.00531280 -0.00587191
v -0.03500000 0.01912140 -0.00253893
v -0.03500000 0.01949440 -0.00208432
v -0.03500000 0.01977170 -0.00156566
v -0.03500000 0.01994240 -0.00100288
v -0.03500000 0.02000000 -0.00041761
v -0.07500000 0.01700000 0.01866026
v -0.07500000 0.02000000 0.01566026
v -0.07500000 0.01766760 0.01858504
v -0.07500000 0.01830170 0.01836317
v -0.07500000 0.01992480 0.01632782
v -0.07500000 0.01970290 0.01696191
v -0.07500000 0.01887050 0.01800575
v -0.07500000 0.01934550 0.01753073
v -0.03500000 0.00468730 0.00587192
v -0.03500000 0.00417440 0.00722437
v -0.03500000 0.00400000 0.00866026
v -0.03500000 0.00659170 0.00372236
v -0.03500000 0.00787240 0.00305016
v -0.03500000 0.00927680 0.00270401
v -0.03500000 0.00550900 0.00468152
v -0.03500000 0.00417440 0.01009615
v -0.03500000 0.00468730 0.01144860
v -0.03500000 0.00550900 0.01263900
v -0.03500000 0.00659170 0.01359816
v -0.03500000 0.00787240 0.01427036
v -0.03500000 0.00927680 0.01461651
v -0.03500000 0.01072330 0.00270401
v -0.03500000 0.01212770 0.00305016
v -0.03500000 0.01340840 0.00372236
v -0.03500000 0.01449110 0.00468152
v -0.03500000 0.01531280 0.00587192
v -0.03500000 0.01582570 0.00722437
v -0.03500000 0.01600000 0.00866026
v -0.03500000 0.01340840 0.01359816
v -0.03500000 0.01449110 0.01263900
v -0.03500000 0.01072330 0.01461651
v -0.03500000 0.01212770 0.01427036
v -0.03500000 0.01582570 0.01009615
v -0.03500000 0.01531280 0.01144860
v -0.03500000 0.01700000 0.01866026
v -0.03500000 0.02000000 0.01566026
v -0.03500000 0.01766760 0.01858504
v -0.03500000 0.01830170 0.01836317
v -0.03500000 0.01992480 0.01632782
v -0.03500000 0.01970290 0.01696191
v -0.03500000 0.01887050 0.01800575
v -0.03500000 0.01934550 0.01753073
v 0.02000000 -0.00563810 -0.01071237
v 0.02000000 -0.00519610 -0.01166025
v 0.02000000 -0.00590880 -0.00970214
v 0.02500000 -0.00563810 -0.01071237
v 0.02500000 -0.00519610 -0.01166025
v 0.02500000 -0.00590880 -0.00970214
v 0.02500000 -0.00212760 -0.01427035
v 0.02500000 -0.00072320 -0.01461651
v 0.02500000 -0.00449100 -0.01263898
v 0.02500000 -0.00340830 -0.01359816
v 0.02000000 -0.00600000 -0.00866025
v 0.02000000 -0.00582170 -0.00720872
v 0.02500000 -0.00600000 -0.00866025
v 0.02500000 -0.00582170 -0.00720872
v 0.02000000 -0.00529760 -0.00584342
v 0.02500000 -0.00529760 -0.00584342
v 0.02000000 -0.00445880 -0.00464546
v 0.02000000 -0.00335510 -0.00368602
v 0.02500000 -0.00445880 -0.00464546
v 0.02500000 -0.00335510 -0.00368602
v 0.02000000 -0.00205210 -0.00302209
v 0.02000000 -0.00062710 -0.00269312
v 0.02500000 -0.00205210 -0.00302209
v 0.02500000 -0.00062710 -0.00269312
v 0.02000000 -0.01519610 0.00566026
v 0.02500000 -0.01519610 0.00566026
v 0.02500000 -0.01582560 0.00722437
v 0.02500000 -0.01600000 0.00866026
v 0.02000000 -0.01430740 0.00448346
v 0.02000000 -0.01315860 0.00355896
v 0.02500000 -0.01430740 0.00448346
v 0.02500000 -0.01315860 0.00355896
v 0.02000000 -0.01181890 0.00294261
v 0.02000000 -0.01036930 0.00267164
v 0.02500000 -0.01181890 0.00294261
v 0.02500000 -0.01036930 0.00267164
v 0.02500000 -0.01582560 0.01009615
v 0.02500000 -0.01531270 0.01144860
v 0.02500000 -0.01449100 0.01263900
v 0.02500000 -0.01340830 0.01359816
v 0.02500000 -0.01212760 0.01427036
v 0.02500000 -0.01072320 0.01461651
v 0.02000000 -0.00889750 0.00276242
v 0.02500000 -0.00889750 0.00276242
v 0.02000000 -0.00749220 0.00320947
v 0.02000000 -0.00623840 0.00398578
v 0.02500000 -0.00749220 0.00320947
v 0.02500000 -0.00623840 0.00398578
v 0.02000000 -0.00521190 0.00504445
v 0.02500000 -0.00521190 0.00504445
v 0.02000000 -0.00447450 0.00632154
v 0.02500000 -0.00447450 0.00632154
v 0.02000000 -0.00407100 0.00773991
v 0.02000000 -0.00402560 0.00921387
v 0.02500000 -0.00407100 0.00773991
v 0.02500000 -0.00402560 0.00921387
v 0.02000000 -0.00716140 0.01394633
v 0.02000000 -0.00595780 0.01309431
v 0.02500000 -0.00716140 0.01394633
v 0.02500000 -0.00595780 0.01309431
v 0.02000000 -0.01000000 0.01466026
v 0.02000000 -0.00853650 0.01447904
v 0.02500000 -0.01000000 0.01466026
v 0.02500000 -0.00853650 0.01447904
v 0.02000000 -0.00434100 0.01065439
v 0.02500000 -0.00434100 0.01065439
v 0.02000000 -0.00499830 0.01197445
v 0.02500000 -0.00499830 0.01197445
v 0.02500000 0.00072330 -0.01461651
v 0.02500000 0.00212770 -0.01427035
v 0.02500000 0.00340840 -0.01359816
v 0.02500000 0.00449110 -0.01263898
v 0.02000000 0.00519620 -0.01166025
v 0.02000000 0.00576760 -0.01031407
v 0.02500000 0.00519620 -0.01166025
v 0.02500000 0.00576760 -0.01031407
v 0.02000000 0.00459630 -0.00480352
v 0.02500000 0.00459630 -0.00480352
v 0.02000000 0.00083510 -0.00271864
v 0.02000000 0.00224770 -0.00309715
v 0.02500000 0.00083510 -0.00271864
v 0.02500000 0.00224770 -0.00309715
v 0.02000000 0.00352680 -0.00380615
v 0.02500000 0.00352680 -0.00380615
v 0.02000000 0.00599640 -0.00886965
v 0.02000000 0.00586890 -0.00741278
v 0.02500000 0.00599640 -0.00886965
v 0.02500000 0.00586890 -0.00741278
v 0.02000000 0.00539280 -0.00603002
v 0.02500000 0.00539280 -0.00603002
v 0.02000000 0.00466700 0.00591090
v 0.02500000 0.00466700 0.00591090
v 0.02000000 0.00416920 0.00724571
v 0.02000000 0.00400000 0.00866026
v 0.02500000 0.00416920 0.00724571
v 0.02500000 0.00400000 0.00866026
v 0.02000000 0.00651970 0.00377280
v 0.02500000 0.00651970 0.00377280
v 0.02000000 0.00777010 0.00309005
v 0.02000000 0.00914620 0.00272133
v 0.02500000 0.00777010 0.00309005
v 0.02500000 0.00914620 0.00272133
v 0.02000000 0.00546550 0.00473110
v 0.02500000 0.00546550 0.00473110
v 0.02000000 0.00415050 0.00999539
v 0.02000000 0.00459420 0.01126356
v 0.02500000 0.00415050 0.00999539
v 0.02500000 0.00459420 0.01126356
v 0.02000000 0.00530910 0.01240120
v 0.02000000 0.00625910 0.01335125
v 0.02500000 0.00530910 0.01240120
v 0.02500000 0.00625910 0.01335125
v 0.02000000 0.00739670 0.01406607
v 0.02500000 0.00739670 0.01406607
v 0.02000000 0.00866490 0.01450983
v 0.02500000 0.00866490 0.01450983
v 0.02000000 0.01057040 0.00268743
v 0.02000000 0.01196240 0.00299025
v 0.02500000 0.01057040 0.00268743
v 0.02500000 0.01196240 0.00299025
v 0.02000000 0.01324390 0.00361274
v 0.02000000 0.01434240 0.00451979
v 0.02500000 0.01324390 0.00361274
v 0.02500000 0.01434240 0.00451979
v 0.02000000 0.01519620 0.00566026
v 0.02500000 0.01519620 0.00566026
v 0.02500000 0.01582570 0.00722437
v 0.02500000 0.01600000 0.00866026
v 0.02500000 0.01340840 0.01359816
v 0.02500000 0.01449110 0.01263900
v 0.02000000 0.01000000 0.01466026
v 0.02500000 0.01000000 0.01466026
v 0.02500000 0.01072330 0.01461651
v 0.02500000 0.01212770 0.01427036
v 0.02500000 0.01582570 0.01009615
v 0.02500000 0.01531280 0.01144860
f 2 3 5
f 1 2 5
f 3 4 5
f 1 11 2
f 2 12 3
f 3 13 4
f 4 15 5
f 1 80 6
f 6 10 7
f 7 10 8
f 8 10 9
f 6 76 10
f 1 6 18
f 6 7 19
f 7 8 20
f 8 9 20
f 9 10 21
f 4 13 14
f 3 12 13
f 2 11 12
f 4 14 15
f 1 18 11
f 12 15 13
f 11 15 12
f 13 15 14
f 11 16 17
f 11 17 27
f 11 27 28
f 11 28 47
f 7 20 19
f 6 19 18
f 9 21 20
f 10 22 21
f 10 86 22
f 11 18 16
f 18 19 23
f 19 20 23
f 18 26 25
f 18 23 26
f 20 21 23
f 21 22 24
f 22 86 24
f 21 24 23
f 16 18 25
f 29 63 47
f 28 29 47
f 29 30 63
f 30 31 64
f 31 32 65
f 32 33 66
f 1 5 41
f 5 15 34
f 5 34 41
f 34 35 40
f 35 36 39
f 36 37 38
f 36 38 39
f 35 39 40
f 34 40 41
f 34 51 35
f 35 53 36
f 36 53 37
f 37 54 38
f 38 55 39
f 39 56 40
f 40 58 41
f 1 41 81
f 41 58 109
f 11 45 15
f 15 48 42
f 15 42 43
f 15 45 48
f 15 44 51
f 15 43 44
f 11 47 46
f 11 46 45
f 15 51 34
f 35 51 52
f 35 52 53
f 37 53 54
f 38 54 55
f 39 55 56
f 40 56 57
f 40 57 58
f 44 49 51
f 49 50 51
f 50 59 51
f 52 54 53
f 51 58 52
f 52 58 54
f 54 58 55
f 55 58 56
f 56 58 57
f 51 59 58
f 58 59 60
f 58 60 61
f 58 61 62
f 58 62 72
f 58 72 73
f 30 64 63
f 31 65 64
f 32 66 65
f 33 67 66
f 33 98 67
f 67 117 68
f 68 118 69
f 69 119 74
f 58 73 128
f 70 127 73
f 74 124 75
f 71 75 125
f 70 71 126
f 6 80 76
f 76 78 77
f 76 79 78
f 76 80 79
f 10 76 86
f 76 77 87
f 77 78 90
f 78 79 91
f 79 80 91
f 1 81 80
f 81 83 82
f 81 85 83
f 83 85 84
f 80 81 104
f 81 82 105
f 82 83 106
f 83 84 106
f 84 85 107
f 76 87 86
f 77 90 87
f 78 91 90
f 80 92 91
f 80 104 92
f 86 87 88
f 87 90 89
f 24 86 88
f 87 89 88
f 89 90 91
f 89 91 92
f 89 92 93
f 92 94 93
f 92 95 94
f 92 104 95
f 98 99 123
f 99 100 120
f 97 103 122
f 102 130 103
f 97 121 100
f 103 130 122
f 81 105 104
f 82 106 105
f 84 107 106
f 85 108 107
f 95 104 96
f 96 104 101
f 101 104 102
f 102 104 130
f 104 105 108
f 105 106 108
f 106 107 108
f 41 109 81
f 81 109 85
f 85 109 110
f 109 111 110
f 111 112 115
f 110 111 115
f 110 115 113
f 113 116 114
f 113 115 116
f 85 110 144
f 109 145 111
f 110 113 147
f 111 146 112
f 112 146 115
f 113 114 148
f 114 116 150
f 115 149 116
f 67 98 117
f 99 120 123
f 98 123 117
f 68 117 118
f 69 118 119
f 100 121 120
f 97 122 121
f 58 143 109
f 74 119 124
f 75 124 125
f 71 125 126
f 70 126 127
f 73 127 128
f 58 128 143
f 85 144 108
f 104 131 130
f 104 132 131
f 108 133 132
f 108 134 133
f 108 135 134
f 104 108 132
f 108 136 135
f 108 144 136
f 109 143 145
f 110 147 144
f 111 145 146
f 115 146 149
f 113 148 147
f 114 150 148
f 116 149 150
f 128 129 143
f 129 139 143
f 139 140 143
f 137 138 143
f 137 143 140
f 136 144 141
f 141 144 142
f 138 142 144
f 138 144 143
f 144 147 148
f 143 144 149
f 143 149 145
f 145 149 146
f 144 148 150
f 144 150 149
f 16 151 17
f 17 153 27
f 23 24 157
f 24 88 158
f 16 25 152
f 25 26 159
f 23 160 26
f 27 161 28
f 28 162 29
f 29 165 30
f 30 167 31
f 31 168 32
f 32 171 33
f 33 172 98
f 151 175 179
f 153 179 180
f 161 180 183
f 155 176 175
f 154 181 176
f 156 182 181
f 163 185 182
f 16 152 151
f 17 151 153
f 23 157 160
f 24 158 157
f 26 160 159
f 25 159 152
f 152 159 155
f 27 153 161
f 28 161 162
f 29 162 165
f 30 165 167
f 31 167 168
f 32 168 171
f 33 171 172
f 152 155 175
f 151 152 175
f 151 179 153
f 153 180 161
f 154 176 155
f 154 156 181
f 156 163 182
f 161 183 162
f 163 164 185
f 162 183 184
f 165 184 193
f 164 186 185
f 166 194 186
f 162 184 165
f 165 193 167
f 164 166 186
f 166 169 194
f 167 195 168
f 169 170 197
f 168 196 171
f 171 199 172
f 170 173 198
f 173 174 200
f 42 175 43
f 43 178 44
f 45 179 48
f 45 46 180
f 46 47 183
f 47 63 184
f 42 48 175
f 44 187 49
f 49 188 50
f 50 189 59
f 59 190 60
f 60 191 61
f 61 192 62
f 63 64 193
f 64 65 195
f 65 66 196
f 66 67 199
f 67 68 201
f 68 69 203
f 69 74 204
f 70 73 207
f 71 217 75
f 70 208 71
f 62 211 72
f 72 212 73
f 74 75 215
f 43 175 177
f 43 177 178
f 44 178 187
f 45 180 179
f 46 183 180
f 47 184 183
f 48 179 175
f 175 176 177
f 49 187 188
f 50 188 189
f 59 189 190
f 60 190 191
f 61 191 192
f 62 192 211
f 211 192 213
f 63 193 184
f 64 195 193
f 65 196 195
f 66 199 196
f 67 201 199
f 68 203 201
f 69 204 203
f 167 193 195
f 168 195 196
f 169 197 194
f 170 198 197
f 171 196 199
f 173 200 198
f 172 199 241
f 174 242 200
f 199 201 241
f 200 242 202
f 201 203 243
f 203 204 244
f 202 245 205
f 205 246 206
f 70 207 208
f 71 208 217
f 72 211 212
f 73 212 207
f 74 215 204
f 75 217 215
f 204 215 255
f 215 217 256
f 206 257 216
f 216 258 218
f 208 259 217
f 207 260 208
f 210 218 261
f 209 210 262
f 211 265 212
f 207 212 263
f 211 213 281
f 213 214 266
f 209 264 214
f 88 89 219
f 89 93 220
f 93 94 221
f 94 95 223
f 95 96 224
f 97 227 103
f 98 229 99
f 99 230 100
f 97 100 233
f 96 101 235
f 101 102 236
f 102 103 239
f 88 219 158
f 89 220 219
f 93 221 220
f 94 222 221
f 94 223 222
f 95 224 223
f 96 235 224
f 223 225 222
f 98 172 229
f 99 229 230
f 100 230 233
f 97 233 227
f 101 236 235
f 102 239 236
f 103 227 239
f 229 253 230
f 230 247 233
f 231 232 254
f 232 234 248
f 223 275 225
f 223 224 272
f 224 235 271
f 225 274 226
f 226 273 237
f 236 239 267
f 227 250 239
f 238 269 240
f 228 240 252
f 227 233 249
f 228 251 234
f 235 236 268
f 237 270 238
f 239 250 267
f 236 267 268
f 240 269 252
f 238 270 269
f 235 268 271
f 224 271 272
f 223 272 275
f 237 273 270
f 226 274 273
f 225 275 276
f 225 276 274
f 117 241 118
f 118 243 119
f 120 247 123
f 120 121 249
f 121 122 250
f 117 123 253
f 119 255 124
f 124 256 125
f 125 259 126
f 126 260 127
f 127 263 128
f 128 265 129
f 122 130 267
f 130 131 268
f 131 132 271
f 132 133 272
f 133 134 275
f 134 135 275
f 135 136 277
f 136 141 278
f 137 140 279
f 137 280 138
f 129 281 139
f 139 284 140
f 141 142 285
f 138 286 142
f 117 253 241
f 118 241 243
f 119 243 244
f 119 244 255
f 123 247 253
f 120 249 247
f 121 250 249
f 122 267 250
f 172 241 229
f 174 231 242
f 230 253 247
f 232 248 254
f 229 241 253
f 231 254 242
f 201 243 241
f 202 242 245
f 203 244 243
f 204 255 244
f 205 245 246
f 206 246 257
f 233 247 249
f 227 249 250
f 234 251 248
f 228 252 251
f 124 255 256
f 125 256 259
f 126 259 260
f 127 260 263
f 128 263 265
f 129 265 281
f 215 256 255
f 216 257 258
f 217 259 256
f 208 260 259
f 207 263 260
f 218 258 261
f 210 261 262
f 209 262 264
f 212 265 263
f 211 281 265
f 213 282 281
f 214 264 266
f 213 266 282
f 130 268 267
f 131 271 268
f 132 272 271
f 133 275 272
f 135 277 275
f 136 278 277
f 275 277 276
f 138 280 286
f 137 279 280
f 139 281 283
f 139 283 284
f 140 284 279
f 141 285 278
f 142 286 285
f 281 282 283
f 159 169 155
f 159 160 169
f 160 157 169
f 158 169 157
f 158 219 169
f 169 219 220
f 156 164 163
f 154 166 156
f 154 155 169
f 156 166 164
f 154 169 166
f 169 225 170
f 170 225 173
f 182 185 186
f 181 182 194
f 181 197 176
f 182 186 194
f 181 194 197
f 177 198 178
f 178 198 187
f 177 176 198
f 187 198 188
f 188 198 189
f 189 198 190
f 190 200 191
f 176 197 198
f 190 198 200
f 200 202 214
f 191 200 192
f 192 200 213
f 200 214 213
f 202 205 214
f 205 206 209
f 205 209 214
f 206 210 209
f 206 216 218
f 206 218 210
f 169 220 221
f 169 221 222
f 169 222 225
f 225 226 238
f 173 225 174
f 174 225 231
f 225 234 232
f 225 232 231
f 225 228 234
f 225 238 240
f 226 237 238
f 225 240 228
f 277 242 254
f 277 245 242
f 277 254 248
f 277 246 245
f 246 282 257
f 257 282 258
f 258 282 261
f 261 282 262
f 262 266 264
f 283 282 246
f 284 283 246
f 284 246 279
f 262 282 266
f 277 251 252
f 277 252 269
f 277 269 270
f 277 270 273
f 277 248 251
f 277 278 246
f 278 285 246
f 277 273 274
f 277 274 276
f 279 246 280
f 285 286 246
f 280 246 286