# https://github.com/mikedh/trimesh
v 0.02500000 -0.00519610 -0.01166025
v 0.02500000 -0.00449100 -0.01263898
v 0.02500000 -0.00563810 -0.01071237
v 0.02500000 -0.00590880 -0.00970214
v 0.02500000 -0.00600000 -0.00866025
v 0.02500000 -0.00340830 -0.01359816
v 0.02500000 -0.00212760 -0.01427035
v 0.02500000 -0.00072320 -0.01461651
v 0.02500000 -0.00582170 -0.00720872
v 0.02500000 -0.00529760 -0.00584342
v 0.02500000 -0.00445880 -0.00464546
v 0.02500000 -0.00335510 -0.00368602
v 0.02500000 -0.00205210 -0.00302209
v 0.02500000 -0.00062710 -0.00269312
v 0.02500000 -0.01315860 0.00355896
v 0.02500000 -0.01430740 0.00448346
v 0.02500000 -0.01519610 0.00566026
v 0.02500000 -0.01582560 0.00722437
v 0.02500000 -0.01181890 0.00294261
v 0.02500000 -0.01036930 0.00267164
v 0.02500000 -0.00889750 0.00276242
v 0.02500000 -0.01600000 0.00866026
v 0.02500000 -0.01582560 0.01009615
v 0.02500000 -0.01531270 0.01144860
v 0.02500000 -0.01449100 0.01263900
v 0.02500000 -0.01340830 0.01359816
v 0.02500000 -0.01212760 0.01427036
v 0.02500000 -0.01072320 0.01461651
v 0.02500000 -0.01000000 0.01466026
v 0.02500000 -0.00853650 0.01447904
v 0.02500000 -0.00749220 0.00320947
v 0.02500000 -0.00623840 0.00398578
v 0.02500000 -0.00521190 0.00504445
v 0.02500000 -0.00447450 0.00632154
v 0.02500000 -0.00407100 0.00773991
v 0.02500000 -0.00402560 0.00921387
v 0.02500000 -0.00434100 0.01065439
v 0.02500000 -0.00716140 0.01394633
v 0.02500000 -0.00499830 0.01197445
v 0.02500000 -0.00595780 0.01309431
v 0.02500000 0.00072330 -0.01461651
v 0.02500000 0.00212770 -0.01427035
v 0.02500000 0.00340840 -0.01359816
v 0.02500000 0.00449110 -0.01263898
v 0.02500000 0.00519620 -0.01166025
v 0.02500000 0.00576760 -0.01031407
v 0.02500000 0.00599640 -0.00886965
v 0.02500000 0.00586890 -0.00741278
v 0.02500000 0.00352680 -0.00380615
v 0.02500000 0.00083510 -0.00271864
v 0.02500000 0.00224770 -0.00309715
v 0.02500000 0.00539280 -0.00603002
v 0.02500000 0.00459630 -0.00480352
v 0.02500000 0.00777010 0.00309005
v 0.02500000 0.00546550 0.00473110
v 0.02500000 0.00466700 0.00591090
v 0.02500000 0.00416920 0.00724571
v 0.02500000 0.00651970 0.00377280
v 0.02500000 0.00400000 0.00866026
v 0.02500000 0.00415050 0.00999539
v 0.02500000 0.00459420 0.01126356
v 0.02500000 0.00530910 0.01240120
v 0.02500000 0.00625910 0.01335125
v 0.02500000 0.00739670 0.01406607
v 0.02500000 0.00914620 0.00272133
v 0.02500000 0.01057040 0.00268743
v 0.02500000 0.01196240 0.00299025
v 0.02500000 0.01324390 0.00361274
v 0.02500000 0.01434240 0.00451979
v 0.02500000 0.01519620 0.00566026
v 0.02500000 0.01582570 0.00722437
v 0.02500000 0.00866490 0.01450983
v 0.02500000 0.01000000 0.01466026
v 0.02500000 0.01072330 0.01461651
v 0.02500000 0.01600000 0.00866026
v 0.02500000 0.01582570 0.01009615
v 0.02500000 0.01212770 0.01427036
v 0.02500000 0.01340840 0.01359816
v 0.02500000 0.01449110 0.01263900
v 0.02500000 0.01531280 0.01144860
v 0.07500000 -0.00531270 -0.01144859
v 0.07500000 -0.00449100 -0.01263898
v 0.07500000 -0.00582560 -0.01009615
v 0.07500000 -0.00600000 -0.00866025
v 0.07500000 -0.00340830 -0.01359816
v 0.07500000 -0.00212760 -0.01427035
v 0.07500000 -0.00072320 -0.01461651
v 0.07500000 -0.00582560 -0.00722436
v 0.07500000 -0.00531270 -0.00587191
v 0.07500000 -0.00449100 -0.00468151
v 0.07500000 -0.00340830 -0.00372235
v 0.07500000 -0.00212760 -0.00305015
v 0.07500000 -0.00072320 -0.00270399
v 0.07500000 -0.01212760 0.00305016
v 0.07500000 -0.01449100 0.00468152
v 0.07500000 -0.01531270 0.00587192
v 0.07500000 -0.01582560 0.00722437
v 0.07500000 -0.01340830 0.00372236
v 0.07500000 -0.01072320 0.00270401
v 0.07500000 -0.00927670 0.00270401
v 0.07500000 -0.01600000 0.00866026
v 0.07500000 -0.01582560 0.01009615
v 0.07500000 -0.01531270 0.01144860
v 0.07500000 -0.01449100 0.01263900
v 0.07500000 -0.01340830 0.01359816
v 0.07500000 -0.01212760 0.01427036
v 0.07500000 -0.01072320 0.01461651
v 0.07500000 -0.00927670 0.01461651
v 0.07500000 -0.00787230 0.00305016
v 0.07500000 -0.00659160 0.00372236
v 0.07500000 -0.00550890 0.00468152
v 0.07500000 -0.00468720 0.00587192
v 0.07500000 -0.00417430 0.00722437
v 0.07500000 -0.00417430 0.01009615
v 0.07500000 -0.00787230 0.01427036
v 0.07500000 -0.00659160 0.01359816
v 0.07500000 -0.00550890 0.01263900
v 0.07500000 -0.00468720 0.01144860
v 0.07500000 -0.00400000 0.00866026
v 0.07500000 0.00072330 -0.01461651
v 0.07500000 0.00212770 -0.01427035
v 0.07500000 0.00340840 -0.01359816
v 0.07500000 0.00449110 -0.01263898
v 0.07500000 0.00531280 -0.01144859
v 0.07500000 0.00582570 -0.01009615
v 0.07500000 0.00600000 -0.00866025
v 0.07500000 0.00340840 -0.00372235
v 0.07500000 0.00072330 -0.00270399
v 0.07500000 0.00212770 -0.00305015
v 0.07500000 0.00582570 -0.00722436
v 0.07500000 0.00531280 -0.00587191
v 0.07500000 0.00449110 -0.00468151
v 0.07500000 0.00787240 0.00305016
v 0.07500000 0.00550900 0.00468152
v 0.07500000 0.00468730 0.00587192
v 0.07500000 0.00417440 0.00722437
v 0.07500000 0.00659170 0.00372236
v 0.07500000 0.00400000 0.00866026
v 0.07500000 0.00417440 0.01009615
v 0.07500000 0.00468730 0.01144860
v 0.07500000 0.00550900 0.01263900
v 0.07500000 0.00659170 0.01359816
v 0.07500000 0.00787240 0.01427036
v 0.07500000 0.00927680 0.00270401
v 0.07500000 0.01072330 0.00270401
v 0.07500000 0.01212770 0.00305016
v 0.07500000 0.01340840 0.00372236
v 0.07500000 0.01449110 0.00468152
v 0.07500000 0.01531280 0.00587192
v 0.07500000 0.01582570 0.00722437
v 0.07500000 0.00927680 0.01461651
v 0.07500000 0.01072330 0.01461651
v 0.07500000 0.01600000 0.00866026
v 0.07500000 0.01582570 0.01009615
v 0.07500000 0.01212770 0.01427036
v 0.07500000 0.01340840 0.01359816
v 0.07500000 0.01449110 0.01263900
v 0.07500000 0.01531280 0.01144860
f 82 2 6
f 1 81 3
f 1 2 82
f 83 4 3
f 84 5 4
f 88 9 5
f 85 6 7
f 86 7 8
f 87 8 41
f 89 10 9
f 90 11 10
f 91 12 11
f 92 13 12
f 93 14 13
f 94 15 19
f 17 16 95
f 97 18 17
f 98 16 15
f 99 19 20
f 100 20 21
f 109 21 31
f 101 22 18
f 102 23 22
f 103 24 23
f 104 25 24
f 105 26 25
f 106 27 26
f 107 28 27
f 29 28 107
f 29 108 30
f 110 31 32
f 111 32 33
f 112 33 34
f 113 34 35
f 119 35 36
f 114 36 37
f 115 38 30
f 116 40 38
f 117 39 40
f 118 37 39
f 120 41 42
f 121 42 43
f 122 43 44
f 123 44 45
f 45 46 124
f 125 46 47
f 126 47 48
f 128 50 14
f 129 51 50
f 127 49 51
f 130 48 52
f 131 52 53
f 132 53 49
f 137 58 54
f 135 56 55
f 134 55 58
f 136 57 56
f 138 59 57
f 138 60 59
f 139 61 60
f 140 62 61
f 141 63 62
f 142 64 63
f 143 72 64
f 133 54 65
f 144 65 66
f 145 66 67
f 146 67 68
f 147 68 69
f 70 148 69
f 70 71 150
f 73 72 151
f 152 74 73
f 155 77 74
f 150 71 75
f 153 75 76
f 154 76 80
f 156 78 77
f 158 80 79
f 157 79 78
f 1 82 81
f 81 83 3
f 83 84 4
f 84 88 5
f 82 6 85
f 86 85 7
f 86 8 87
f 88 89 9
f 89 90 10
f 90 91 11
f 91 92 12
f 92 93 13
f 93 128 14
f 81 82 85
f 81 85 83
f 83 88 84
f 86 87 85
f 87 122 85
f 83 132 88
f 83 85 132
f 88 91 89
f 89 91 90
f 88 132 91
f 91 93 92
f 98 15 94
f 98 95 16
f 17 95 96
f 17 96 97
f 94 19 99
f 99 20 100
f 100 21 109
f 97 101 18
f 101 102 22
f 102 103 23
f 103 104 24
f 104 105 25
f 105 106 26
f 106 107 27
f 29 107 108
f 108 115 30
f 109 31 110
f 110 32 111
f 111 33 112
f 112 34 113
f 113 35 119
f 119 36 114
f 114 37 118
f 116 38 115
f 116 117 40
f 117 118 39
f 98 94 99
f 96 95 98
f 96 98 97
f 98 99 110
f 99 100 110
f 98 110 112
f 97 102 101
f 97 117 102
f 102 105 103
f 103 105 104
f 105 107 106
f 97 98 117
f 102 117 105
f 105 117 107
f 107 115 108
f 107 117 115
f 100 109 110
f 98 112 119
f 110 111 112
f 112 113 119
f 98 119 114
f 98 114 117
f 116 115 117
f 117 114 118
f 87 41 120
f 120 42 121
f 121 43 122
f 122 44 123
f 45 124 123
f 124 46 125
f 125 47 126
f 126 48 130
f 132 49 127
f 128 129 50
f 129 127 51
f 130 52 131
f 132 131 53
f 87 120 122
f 85 122 124
f 120 121 122
f 85 124 126
f 85 126 130
f 85 130 132
f 122 123 124
f 124 125 126
f 91 132 93
f 132 127 129
f 93 129 128
f 93 132 129
f 132 130 131
f 137 54 133
f 135 55 134
f 135 136 56
f 137 134 58
f 136 138 57
f 138 139 60
f 139 140 61
f 140 141 62
f 141 142 63
f 142 143 64
f 133 65 144
f 144 66 145
f 145 67 146
f 146 68 147
f 147 69 148
f 70 149 148
f 70 150 149
f 143 151 72
f 73 151 152
f 152 155 74
f 150 75 153
f 153 76 154
f 154 80 158
f 156 77 155
f 156 157 78
f 157 158 79
f 137 133 144
f 135 134 137
f 135 137 136
f 136 139 138
f 136 157 139
f 139 142 140
f 140 142 141
f 142 151 143
f 137 144 147
f 144 145 147
f 137 147 149
f 145 146 147
f 137 149 153
f 147 148 149
f 149 150 153
f 136 137 157
f 139 157 142
f 142 157 151
f 151 155 152
f 151 157 155
f 137 153 154
f 137 154 157
f 156 155 157
f 157 154 158
f 1 46 2
f 6 2 46
f 4 5 46
f 5 9 46
f 1 3 46
f 3 4 46
f 9 10 46
f 10 11 46
f 11 12 46
f 17 15 16
f 17 19 15
f 17 20 19
f 17 21 20
f 17 31 21
f 17 32 31
f 17 33 32
f 17 34 33
f 18 29 17
f 22 29 18
f 23 29 22
f 24 29 23
f 29 24 25
f 25 26 29
f 26 27 28
f 17 38 40
f 17 39 37
f 17 40 39
f 17 29 30
f 17 30 38
f 26 28 29
f 17 35 34
f 17 36 35
f 17 37 36
f 7 46 8
f 8 46 41
f 7 6 46
f 41 46 42
f 42 46 43
f 43 46 44
f 44 46 45
f 46 48 47
f 46 52 48
f 12 13 46
f 13 14 46
f 46 14 50
f 46 51 49
f 46 50 51
f 46 49 53
f 46 53 52
f 56 73 55
f 56 57 73
f 57 59 73
f 59 60 73
f 60 61 73
f 61 62 73
f 62 63 73
f 72 63 64
f 71 58 55
f 71 65 54
f 71 54 58
f 70 66 65
f 70 67 66
f 67 69 68
f 70 69 67
f 70 65 71
f 75 71 55
f 78 55 77
f 55 79 80
f 79 55 78
f 73 74 55
f 74 77 55
f 72 73 63
f 76 75 55
f 80 76 55