# https://github.com/mikedh/trimesh
v -0.06664200 0.04687400 -0.01562500
v -0.06164200 0.05187400 -0.01562500
v -0.06664200 0.04687400 0.01562500
v -0.06164200 0.05187400 0.01562500
v -0.06164200 0.06186100 -0.01562500
v -0.06664200 0.06686100 -0.01562500
v -0.06164200 0.06186100 0.01562500
v -0.06664200 0.06686100 0.01562500
v -0.04585800 0.04687400 -0.01562500
v -0.05085800 0.05187400 -0.01562500
v -0.04585800 0.04687400 0.01562500
v -0.05085800 0.05187400 0.01562500
v -0.05085800 0.06186100 -0.01562500
v -0.04585800 0.06686100 -0.01562500
v -0.05085800 0.06186100 0.01562500
v -0.04585800 0.06686100 0.01562500
f 2 1 6
f 2 10 1
f 2 4 10
f 2 7 4
f 4 7 3
f 4 3 11
f 2 6 5
f 2 5 7
f 5 6 14
f 7 8 3
f 5 15 7
f 7 15 8
f 10 9 1
f 10 13 9
f 10 12 13
f 4 11 12
f 10 4 12
f 12 11 16
f 5 13 15
f 5 14 13
f 13 14 9
f 15 16 8
f 13 12 15
f 12 16 15
f 1 3 6
f 1 11 3
f 6 8 14
f 3 8 6
f 1 9 11
f 11 9 16
f 9 14 16
f 8 16 14