# https://github.com/mikedh/trimesh
v 0.01800332 -0.01371934 -0.01270000 0.43529412 0.89019608 0.96078431
v 0.02508528 -0.01391576 -0.01268260 0.43529412 0.89019608 0.96078431
v 0.01800332 -0.01396300 -0.01267762 0.43529412 0.89019608 0.96078431
v 0.01800332 0.00863244 -0.01270000 0.43529412 0.89019608 0.96078431
v 0.03762408 -0.01371934 -0.01270000 0.43529412 0.89019608 0.96078431
v 0.03762408 -0.01388344 -0.01268508 0.43529412 0.89019608 0.96078431
v 0.04926923 -0.01398537 -0.01267514 0.43529412 0.89019608 0.96078431
v 0.01800332 -0.01398289 -0.01267514 0.43529412 0.89019608 0.96078431
v 0.01800332 0.00887858 -0.01267762 0.43529412 0.89019608 0.96078431
v 0.02463845 0.00882886 -0.01268260 0.43529412 0.89019608 0.96078431
v 0.03695690 0.00863244 -0.01270000 0.43529412 0.89019608 0.96078431
v 0.03773732 -0.01092475 -0.01270000 0.43529412 0.89019608 0.96078431
v 0.04926923 -0.01372929 -0.01269751 0.43529412 0.89019608 0.96078431
v 0.04926923 -0.01399532 -0.01267265 0.43529412 0.89019608 0.96078431
v 0.03762408 -0.01401521 -0.01266768 0.43529412 0.89019608 0.96078431
v 0.01800332 -0.01423898 -0.01260801 0.43529412 0.89019608 0.96078431
v 0.01800332 0.00889599 -0.01267514 0.43529412 0.89019608 0.96078431
v 0.04926923 0.00889599 -0.01267514 0.43529412 0.89019608 0.96078431
v 0.03695690 0.00879654 -0.01268508 0.43529412 0.89019608 0.96078431
v 0.04926923 0.00862747 -0.01269751 0.43529412 0.89019608 0.96078431
v 0.04926923 -0.01423898 -0.01260801 0.43529412 0.89019608 0.96078431
v 0.01800332 -0.01435086 -0.01255580 0.43529412 0.89019608 0.96078431
v 0.03762408 -0.01433097 -0.01256574 0.43529412 0.89019608 0.96078431
v 0.01800332 0.00915208 -0.01260801 0.43529412 0.89019608 0.96078431
v 0.03695690 0.00892831 -0.01266768 0.43529412 0.89019608 0.96078431
v 0.04926923 0.00915208 -0.01260801 0.43529412 0.89019608 0.96078431
v 0.04926923 -0.01448263 -0.01249364 0.43529412 0.89019608 0.96078431
v 0.02508528 -0.01442048 -0.01252347 0.43529412 0.89019608 0.96078431
v 0.01800332 -0.01448015 -0.01249364 0.43529412 0.89019608 0.96078431
v 0.01800332 0.00934849 -0.01251601 0.43529412 0.89019608 0.96078431
v 0.02463845 0.00933358 -0.01252347 0.43529412 0.89019608 0.96078431
v 0.03695690 0.00924407 -0.01256574 0.43529412 0.89019608 0.96078431
v 0.04926923 0.00939325 -0.01249364 0.43529412 0.89019608 0.96078431
v 0.04926923 -0.01449009 -0.01248867 0.43529412 0.89019608 0.96078431
v 0.02508528 -0.01453485 -0.01245634 0.43529412 0.89019608 0.96078431
v 0.01800332 -0.01469894 -0.01234197 0.43529412 0.89019608 0.96078431
v 0.03762408 -0.01450750 -0.01247623 0.43529412 0.89019608 0.96078431
v 0.01800332 0.00939325 -0.01249364 0.43529412 0.89019608 0.96078431
v 0.03695690 0.00936341 -0.01250856 0.43529412 0.89019608 0.96078431
v 0.03695690 0.00942060 -0.01247623 0.43529412 0.89019608 0.96078431
v 0.04926923 0.00961204 -0.01234197 0.43529412 0.89019608 0.96078431
v 0.04926923 -0.01469148 -0.01234695 0.43529412 0.89019608 0.96078431
v 0.03762408 -0.01467159 -0.01236186 0.43529412 0.89019608 0.96078431
v 0.01800332 -0.01488541 -0.01215550 0.43529412 0.89019608 0.96078431
v 0.03762408 -0.01469894 -0.01234197 0.43529412 0.89019608 0.96078431
v 0.01800332 0.00940817 -0.01248369 0.43529412 0.89019608 0.96078431
v 0.03695690 0.00958469 -0.01236186 0.43529412 0.89019608 0.96078431
v 0.01800332 0.00954243 -0.01239170 0.43529412 0.89019608 0.96078431
v 0.04926923 0.00979851 -0.01215550 0.43529412 0.89019608 0.96078431
v 0.01800332 0.00961204 -0.01234197 0.43529412 0.89019608 0.96078431
v 0.04926923 -0.01470640 -0.01233452 0.43529412 0.89019608 0.96078431
v 0.02508528 -0.01499978 -0.01199141 0.43529412 0.89019608 0.96078431
v 0.01800332 -0.01503708 -0.01193671 0.43529412 0.89019608 0.96078431
v 0.04926923 -0.01488541 -0.01215550 0.43529412 0.89019608 0.96078431
v 0.04926923 -0.01489287 -0.01214556 0.43529412 0.89019608 0.96078431
v 0.03762408 -0.01490530 -0.01212815 0.43529412 0.89019608 0.96078431
v 0.03762408 -0.01501967 -0.01196406 0.43529412 0.89019608 0.96078431
v 0.03695690 0.00981840 -0.01212815 0.43529412 0.89019608 0.96078431
v 0.03695690 0.00993277 -0.01196406 0.43529412 0.89019608 0.96078431
v 0.04926923 0.00995018 -0.01193671 0.43529412 0.89019608 0.96078431
v 0.01800332 0.00979851 -0.01215550 0.43529412 0.89019608 0.96078431
v 0.02508528 -0.01506691 -0.01187704 0.43529412 0.89019608 0.96078431
v 0.01800332 -0.01507437 -0.01185963 0.43529412 0.89019608 0.96078431
v 0.04926923 -0.01503956 -0.01193422 0.43529412 0.89019608 0.96078431
v 0.04926923 -0.01503459 -0.01194168 0.43529412 0.89019608 0.96078431
v 0.01800332 0.00990294 -0.01200632 0.43529412 0.89019608 0.96078431
v 0.01800332 0.00995018 -0.01193671 0.43529412 0.89019608 0.96078431
v 0.03695690 0.00996509 -0.01190687 0.43529412 0.89019608 0.96078431
v 0.04926923 0.01006455 -0.01169554 0.43529412 0.89019608 0.96078431
v 0.01800332 -0.01515145 -0.01169554 0.43529412 0.89019608 0.96078431
v 0.04926923 -0.01514647 -0.01170797 0.43529412 0.89019608 0.96078431
v 0.01800332 0.00997255 -0.01189195 0.43529412 0.89019608 0.96078431
v 0.02463845 0.00998001 -0.01187704 0.43529412 0.89019608 0.96078431
v 0.03695690 0.01012422 -0.01147177 0.43529412 0.89019608 0.96078431
v 0.04926923 0.01013168 -0.01143945 0.43529412 0.89019608 0.96078431
v 0.01800332 0.01006455 -0.01169554 0.43529412 0.89019608 0.96078431
v 0.01800332 0.01010184 -0.01155630 0.43529412 0.89019608 0.96078431
v 0.01800332 -0.01521858 -0.01143945 0.43529412 0.89019608 0.96078431
v 0.03762408 -0.01515145 -0.01169554 0.43529412 0.89019608 0.96078431
v 0.03762408 -0.01521112 -0.01147177 0.43529412 0.89019608 0.96078431
v 0.04926923 -0.01515393 -0.01168559 0.43529412 0.89019608 0.96078431
v 0.01800332 0.01013168 -0.01143945 0.43529412 0.89019608 0.96078431
v 0.03695690 0.01014162 -0.01134000 0.43529412 0.89019608 0.96078431
v 0.03695690 0.01015654 -0.01117590 0.43529412 0.89019608 0.96078431
v 0.04926923 0.01015405 -0.01117590 0.43529412 0.89019608 0.96078431
v 0.02463845 0.01013914 -0.01137232 0.43529412 0.89019608 0.96078431
v 0.01800332 -0.01522106 -0.01141956 0.43529412 0.89019608 0.96078431
v 0.03762408 -0.01521858 -0.01143945 0.43529412 0.89019608 0.96078431
v 0.04926923 -0.01521609 -0.01144691 0.43529412 0.89019608 0.96078431
v 0.04926923 -0.01521858 -0.01143696 0.43529412 0.89019608 0.96078431
v 0.01800332 0.01015654 -0.01117590 0.43529412 0.89019608 0.96078431
v 0.03961646 0.01015654 -0.01008939 0.43529412 0.89019608 0.96078431
v 0.04926923 0.01015654 -0.00000249 0.43529412 0.89019608 0.96078431
v 0.02508528 -0.01522604 -0.01137232 0.43529412 0.89019608 0.96078431
v 0.01800332 -0.01523598 -0.01126044 0.43529412 0.89019608 0.96078431
v 0.04926923 -0.01524095 -0.01118585 0.43529412 0.89019608 0.96078431
v 0.03762408 -0.01524344 -0.01117590 0.43529412 0.89019608 0.96078431
v 0.03762408 -0.01522852 -0.01134000 0.43529412 0.89019608 0.96078431
v 0.01800332 0.01015654 0.01117590 0.43529412 0.89019608 0.96078431
v 0.04926923 0.01015654 0.01117093 0.43529412 0.89019608 0.96078431
v 0.01800332 -0.01524344 -0.01117590 0.43529412 0.89019608 0.96078431
v 0.04926923 -0.01524344 -0.01109634 0.43529412 0.89019608 0.96078431
v 0.01800332 0.01013416 0.01142204 0.43529412 0.89019608 0.96078431
v 0.02463845 0.01013914 0.01137232 0.43529412 0.89019608 0.96078431
v 0.03695690 0.01015654 0.01117590 0.43529412 0.89019608 0.96078431
v 0.04926923 0.01013168 0.01143945 0.43529412 0.89019608 0.96078431
v 0.01800332 -0.01524344 0.01117590 0.43529412 0.89019608 0.96078431
v 0.04926923 -0.01524344 0.01117590 0.43529412 0.89019608 0.96078431
v 0.01800332 0.01013168 0.01143945 0.43529412 0.89019608 0.96078431
v 0.03695690 0.01012422 0.01147177 0.43529412 0.89019608 0.96078431
v 0.04926923 0.01006455 0.01169554 0.43529412 0.89019608 0.96078431
v 0.01800332 -0.01523598 0.01126044 0.43529412 0.89019608 0.96078431
v 0.04926923 -0.01522106 0.01142702 0.43529412 0.89019608 0.96078431
v 0.02508528 -0.01522604 0.01137232 0.43529412 0.89019608 0.96078431
v 0.01800332 0.01010184 0.01155630 0.43529412 0.89019608 0.96078431
v 0.03695690 0.00996509 0.01190687 0.43529412 0.89019608 0.96078431
v 0.04926923 0.00995018 0.01193671 0.43529412 0.89019608 0.96078431
v 0.01800332 0.01006455 0.01169554 0.43529412 0.89019608 0.96078431
v 0.02463845 0.00998001 0.01187704 0.43529412 0.89019608 0.96078431
v 0.01800332 -0.01522106 0.01141956 0.43529412 0.89019608 0.96078431
v 0.04926923 -0.01521609 0.01144691 0.43529412 0.89019608 0.96078431
v 0.03762408 -0.01521112 0.01147177 0.43529412 0.89019608 0.96078431
v 0.03762408 -0.01521858 0.01143945 0.43529412 0.89019608 0.96078431
v 0.01800332 -0.01521858 0.01143945 0.43529412 0.89019608 0.96078431
v 0.03695690 0.00993277 0.01196406 0.43529412 0.89019608 0.96078431
v 0.04926923 0.00979851 0.01215550 0.43529412 0.89019608 0.96078431
v 0.01800332 0.00995018 0.01193671 0.43529412 0.89019608 0.96078431
v 0.01800332 0.00998747 0.01185963 0.43529412 0.89019608 0.96078431
v 0.04926923 -0.01515393 0.01168559 0.43529412 0.89019608 0.96078431
v 0.03762408 -0.01515145 0.01169554 0.43529412 0.89019608 0.96078431
v 0.01800332 -0.01515145 0.01169554 0.43529412 0.89019608 0.96078431
v 0.03695690 0.00981840 0.01212815 0.43529412 0.89019608 0.96078431
v 0.02463845 0.00991288 0.01199141 0.43529412 0.89019608 0.96078431
v 0.01800332 0.00979851 0.01215550 0.43529412 0.89019608 0.96078431
v 0.04926923 0.00961204 0.01234197 0.43529412 0.89019608 0.96078431
v 0.04926923 -0.01514647 0.01170797 0.43529412 0.89019608 0.96078431
v 0.01800332 -0.01504702 0.01191930 0.43529412 0.89019608 0.96078431
v 0.01800332 0.00961204 0.01234197 0.43529412 0.89019608 0.96078431
v 0.03695690 0.00958469 0.01236186 0.43529412 0.89019608 0.96078431
v 0.03695690 0.00942060 0.01247623 0.43529412 0.89019608 0.96078431
v 0.04926923 0.00939325 0.01249364 0.43529412 0.89019608 0.96078431
v 0.04926923 -0.01504205 0.01192925 0.43529412 0.89019608 0.96078431
v 0.02508528 -0.01506691 0.01187704 0.43529412 0.89019608 0.96078431
v 0.01800332 -0.01503708 0.01193671 0.43529412 0.89019608 0.96078431
v 0.04926923 -0.01503708 0.01193919 0.43529412 0.89019608 0.96078431
v 0.01800332 0.00954243 0.01239170 0.43529412 0.89019608 0.96078431
v 0.01800332 0.00939325 0.01249364 0.43529412 0.89019608 0.96078431
v 0.03695690 0.00936341 0.01250856 0.43529412 0.89019608 0.96078431
v 0.03695690 0.00924407 0.01256574 0.43529412 0.89019608 0.96078431
v 0.04926923 0.00915208 0.01260801 0.43529412 0.89019608 0.96078431
v 0.01800332 -0.01498984 0.01200632 0.43529412 0.89019608 0.96078431
v 0.03762408 -0.01501967 0.01196406 0.43529412 0.89019608 0.96078431
v 0.04926923 -0.01488790 0.01215302 0.43529412 0.89019608 0.96078431
v 0.03762408 -0.01490530 0.01212815 0.43529412 0.89019608 0.96078431
v 0.01800332 0.00937833 0.01250110 0.43529412 0.89019608 0.96078431
v 0.02463845 0.00933358 0.01252347 0.43529412 0.89019608 0.96078431
v 0.01800332 0.00915208 0.01260801 0.43529412 0.89019608 0.96078431
v 0.03695690 0.00892831 0.01266768 0.43529412 0.89019608 0.96078431
v 0.04926923 0.00889599 0.01267514 0.43529412 0.89019608 0.96078431
v 0.01800332 -0.01488541 0.01215550 0.43529412 0.89019608 0.96078431
v 0.04926923 -0.01469894 0.01234197 0.43529412 0.89019608 0.96078431
v 0.01800332 0.00931617 0.01253093 0.43529412 0.89019608 0.96078431
v 0.01800332 0.00910484 0.01262044 0.43529412 0.89019608 0.96078431
v 0.01800332 0.00889599 0.01267514 0.43529412 0.89019608 0.96078431
v 0.03695690 0.00879654 0.01268508 0.43529412 0.89019608 0.96078431
v 0.04926923 0.00862747 0.01270000 0.43529412 0.89019608 0.96078431
v 0.01800332 0.00887858 0.01267762 0.43529412 0.89019608 0.96078431
v 0.02463845 0.00882886 0.01268260 0.43529412 0.89019608 0.96078431
v 0.01800332 -0.01469894 0.01234197 0.43529412 0.89019608 0.96078431
v 0.04926923 -0.01449009 0.01248867 0.43529412 0.89019608 0.96078431
v 0.03762408 -0.01467159 0.01236186 0.43529412 0.89019608 0.96078431
v 0.03695690 0.00863244 0.01270000 0.43529412 0.89019608 0.96078431
v 0.04926923 -0.01352044 0.01270000 0.43529412 0.89019608 0.96078431
v 0.01800332 0.00863244 0.01270000 0.43529412 0.89019608 0.96078431
v 0.01800332 -0.01451993 0.01246629 0.43529412 0.89019608 0.96078431
v 0.03762408 -0.01450750 0.01247623 0.43529412 0.89019608 0.96078431
v 0.04926923 -0.01448263 0.01249364 0.43529412 0.89019608 0.96078431
v 0.01800332 -0.01448015 0.01249364 0.43529412 0.89019608 0.96078431
v 0.03762408 -0.01371934 0.01270000 0.43529412 0.89019608 0.96078431
v 0.04926923 -0.01372929 0.01269751 0.43529412 0.89019608 0.96078431
v 0.01800332 -0.01371934 0.01270000 0.43529412 0.89019608 0.96078431
v 0.04926923 -0.01423649 0.01260801 0.43529412 0.89019608 0.96078431
v 0.03762408 -0.01433097 0.01256574 0.43529412 0.89019608 0.96078431
v 0.02508528 -0.01442048 0.01252347 0.43529412 0.89019608 0.96078431
v 0.01800332 -0.01423898 0.01260801 0.43529412 0.89019608 0.96078431
v 0.01800332 -0.01380387 0.01269254 0.43529412 0.89019608 0.96078431
v 0.02508528 -0.01391576 0.01268260 0.43529412 0.89019608 0.96078431
v 0.03762408 -0.01388344 0.01268508 0.43529412 0.89019608 0.96078431
v 0.04926923 -0.01398537 0.01267514 0.43529412 0.89019608 0.96078431
v 0.04926923 -0.01399532 0.01267265 0.43529412 0.89019608 0.96078431
v 0.03762408 -0.01423898 0.01260801 0.43529412 0.89019608 0.96078431
v 0.01800332 -0.01398289 0.01267514 0.43529412 0.89019608 0.96078431
v 0.03762408 -0.01401521 0.01266768 0.43529412 0.89019608 0.96078431
v 0.01800332 -0.01396300 0.01267762 0.43529412 0.89019608 0.96078431
f 1 2 3
f 1 3 8
f 1 8 16
f 1 16 22
f 1 22 29
f 1 29 36
f 1 36 44
f 1 44 53
f 1 53 63
f 1 63 70
f 1 70 78
f 1 78 87
f 1 87 95
f 1 95 101
f 1 101 107
f 1 107 112
f 1 112 120
f 1 120 124
f 1 124 131
f 1 131 137
f 1 137 144
f 1 144 151
f 1 151 160
f 1 160 169
f 1 169 175
f 1 175 178
f 1 178 185
f 1 185 192
f 1 192 194
f 1 194 186
f 1 186 181
f 1 181 174
f 1 174 167
f 1 167 164
f 1 164 163
f 1 163 157
f 1 157 162
f 1 162 155
f 1 155 147
f 1 147 146
f 1 146 138
f 1 138 134
f 1 134 127
f 1 127 128
f 1 128 118
f 1 118 115
f 1 115 109
f 1 109 103
f 1 103 99
f 1 99 91
f 1 91 82
f 1 82 77
f 1 77 76
f 1 76 72
f 1 72 67
f 1 67 66
f 1 66 61
f 1 61 50
f 1 50 48
f 1 48 46
f 1 46 38
f 1 38 30
f 1 30 24
f 1 24 17
f 1 17 9
f 1 9 4
f 1 4 11
f 1 11 12
f 1 12 5
f 1 5 2
f 2 5 6
f 2 6 7
f 2 7 3
f 3 7 8
f 4 9 10
f 4 10 11
f 5 12 13
f 5 13 7
f 5 7 6
f 7 13 20
f 7 20 18
f 7 18 26
f 7 26 33
f 7 33 41
f 7 41 49
f 7 49 60
f 7 60 69
f 7 69 75
f 7 75 85
f 7 85 93
f 7 93 100
f 7 100 106
f 7 106 111
f 7 111 117
f 7 117 126
f 7 126 135
f 7 135 141
f 7 141 150
f 7 150 159
f 7 159 166
f 7 166 173
f 7 173 180
f 7 180 189
f 7 189 190
f 7 190 182
f 7 182 177
f 7 177 170
f 7 170 161
f 7 161 153
f 7 153 145
f 7 145 142
f 7 142 136
f 7 136 129
f 7 129 121
f 7 121 113
f 7 113 108
f 7 108 102
f 7 102 96
f 7 96 90
f 7 90 89
f 7 89 81
f 7 81 71
f 7 71 64
f 7 64 65
f 7 65 55
f 7 55 54
f 7 54 51
f 7 51 42
f 7 42 34
f 7 34 27
f 7 27 21
f 7 21 14
f 7 14 15
f 7 15 8
f 8 15 16
f 9 17 18
f 9 18 10
f 10 18 19
f 10 19 11
f 11 19 18
f 11 18 20
f 11 20 12
f 12 20 13
f 14 21 15
f 15 21 16
f 16 21 23
f 16 23 22
f 17 24 25
f 17 25 18
f 18 25 26
f 21 27 23
f 22 23 28
f 22 28 29
f 23 27 28
f 24 30 31
f 24 31 32
f 24 32 26
f 24 26 25
f 26 32 33
f 27 34 29
f 27 29 28
f 29 35 36
f 29 34 37
f 29 37 35
f 30 38 33
f 30 33 39
f 30 39 31
f 31 39 32
f 32 39 33
f 33 40 41
f 33 38 40
f 34 42 43
f 34 43 37
f 35 37 36
f 36 37 43
f 36 43 45
f 36 45 51
f 36 51 54
f 36 54 44
f 38 46 40
f 40 47 41
f 40 46 48
f 40 48 47
f 41 47 50
f 41 50 61
f 41 61 49
f 42 51 45
f 42 45 43
f 44 52 53
f 44 54 55
f 44 55 56
f 44 56 57
f 44 57 52
f 47 48 50
f 49 58 59
f 49 59 60
f 49 61 58
f 52 57 53
f 53 62 63
f 53 57 64
f 53 64 62
f 55 65 57
f 55 57 56
f 57 65 64
f 58 61 66
f 58 66 59
f 59 66 67
f 59 67 60
f 60 68 69
f 60 67 72
f 60 72 73
f 60 73 68
f 62 70 63
f 62 64 71
f 62 71 70
f 68 73 69
f 69 74 75
f 69 73 76
f 69 76 77
f 69 77 74
f 70 71 79
f 70 79 80
f 70 80 78
f 71 81 79
f 72 76 73
f 74 77 82
f 74 82 75
f 75 83 84
f 75 84 85
f 75 82 86
f 75 86 83
f 78 80 88
f 78 88 87
f 79 81 80
f 80 81 89
f 80 89 90
f 80 90 88
f 82 91 86
f 83 86 84
f 84 92 85
f 84 86 91
f 84 91 99
f 84 99 105
f 84 105 100
f 84 100 93
f 84 93 92
f 85 92 93
f 87 94 95
f 87 88 94
f 88 90 94
f 90 96 97
f 90 97 98
f 90 98 94
f 94 98 97
f 94 97 95
f 95 97 101
f 96 102 97
f 97 102 108
f 97 108 107
f 97 107 101
f 99 103 104
f 99 104 105
f 100 105 104
f 100 104 106
f 103 109 106
f 103 106 104
f 106 110 111
f 106 109 110
f 107 108 112
f 108 113 114
f 108 114 112
f 109 115 110
f 110 115 111
f 111 116 117
f 111 115 118
f 111 118 119
f 111 119 116
f 112 114 120
f 113 121 122
f 113 122 123
f 113 123 124
f 113 124 120
f 113 120 114
f 116 119 127
f 116 127 117
f 117 125 126
f 117 127 125
f 118 128 119
f 119 128 127
f 121 129 122
f 122 129 130
f 122 130 131
f 122 131 124
f 122 124 123
f 125 132 126
f 125 127 133
f 125 133 134
f 125 134 132
f 126 132 134
f 126 134 138
f 126 138 135
f 127 134 133
f 129 136 130
f 130 136 131
f 131 136 137
f 135 139 140
f 135 140 141
f 135 138 139
f 136 142 143
f 136 143 137
f 137 143 142
f 137 142 145
f 137 145 144
f 138 146 139
f 139 146 140
f 140 146 147
f 140 147 141
f 141 148 149
f 141 149 150
f 141 147 155
f 141 155 156
f 141 156 148
f 144 145 152
f 144 152 151
f 145 153 154
f 145 154 152
f 148 156 149
f 149 156 157
f 149 157 150
f 150 158 159
f 150 157 158
f 151 152 154
f 151 154 160
f 153 161 169
f 153 169 160
f 153 160 154
f 155 162 156
f 156 162 157
f 157 163 158
f 158 163 164
f 158 164 159
f 159 165 166
f 159 164 167
f 159 167 168
f 159 168 165
f 161 170 171
f 161 171 169
f 165 172 166
f 165 168 172
f 166 172 174
f 166 174 181
f 166 181 179
f 166 179 173
f 167 174 168
f 168 174 172
f 169 171 176
f 169 176 175
f 170 176 171
f 170 177 178
f 170 178 176
f 173 179 180
f 175 176 178
f 177 182 183
f 177 183 184
f 177 184 178
f 178 184 185
f 179 181 186
f 179 186 187
f 179 187 188
f 179 188 189
f 179 189 180
f 182 190 191
f 182 191 183
f 183 191 185
f 183 185 184
f 185 191 193
f 185 193 192
f 186 194 187
f 187 189 188
f 187 194 189
f 189 193 190
f 189 194 192
f 189 192 193
f 190 193 191

