# https://github.com/mikedh/trimesh
v -0.04926923 -0.01352044 -0.01270002 0.54509804 0.71372549 0.60000000
v -0.04926923 0.00862747 -0.01270002 0.54509804 0.71372549 0.60000000
v -0.03762408 -0.01371934 -0.01270002 0.54509804 0.71372549 0.60000000
v -0.04926923 -0.01372929 -0.01269753 0.54509804 0.71372549 0.60000000
v -0.04926923 0.00889599 -0.01267516 0.54509804 0.71372549 0.60000000
v -0.03695690 0.00879654 -0.01268510 0.54509804 0.71372549 0.60000000
v -0.03695690 0.00863244 -0.01270002 0.54509804 0.71372549 0.60000000
v -0.03762408 -0.01388344 -0.01268510 0.54509804 0.71372549 0.60000000
v -0.04926923 -0.01398537 -0.01267516 0.54509804 0.71372549 0.60000000
v -0.02508528 -0.01371934 -0.01270002 0.54509804 0.71372549 0.60000000
v -0.01800332 -0.01380387 -0.01269256 0.54509804 0.71372549 0.60000000
v -0.02508528 -0.01391576 -0.01268262 0.54509804 0.71372549 0.60000000
v -0.04926923 0.00915208 -0.01260803 0.54509804 0.71372549 0.60000000
v -0.03695690 0.00892831 -0.01266770 0.54509804 0.71372549 0.60000000
v -0.01800332 0.00889599 -0.01267516 0.54509804 0.71372549 0.60000000
v -0.02463845 0.00882886 -0.01268262 0.54509804 0.71372549 0.60000000
v -0.02463845 0.00863244 -0.01270002 0.54509804 0.71372549 0.60000000
v -0.03762408 -0.01401521 -0.01266770 0.54509804 0.71372549 0.60000000
v -0.04926923 -0.01399532 -0.01267267 0.54509804 0.71372549 0.60000000
v -0.01800332 -0.01398289 -0.01267516 0.54509804 0.71372549 0.60000000
v -0.02441503 0.00304325 -0.01270002 0.54509804 0.71372549 0.60000000
v -0.01800332 -0.01373674 -0.01269753 0.54509804 0.71372549 0.60000000
v -0.01800332 -0.01393565 -0.01268013 0.54509804 0.71372549 0.60000000
v -0.04926923 0.00939325 -0.01249366 0.54509804 0.71372549 0.60000000
v -0.03695690 0.00924407 -0.01256576 0.54509804 0.71372549 0.60000000
v -0.01800332 0.00915208 -0.01260803 0.54509804 0.71372549 0.60000000
v -0.01800332 0.00884875 -0.01268013 0.54509804 0.71372549 0.60000000
v -0.01800332 0.00871449 -0.01269256 0.54509804 0.71372549 0.60000000
v -0.01800332 0.00864985 -0.01269753 0.54509804 0.71372549 0.60000000
v -0.03762408 -0.01423898 -0.01260803 0.54509804 0.71372549 0.60000000
v -0.01800332 -0.01423898 -0.01260803 0.54509804 0.71372549 0.60000000
v -0.04926923 -0.01423152 -0.01260803 0.54509804 0.71372549 0.60000000
v -0.03695690 0.00936341 -0.01250858 0.54509804 0.71372549 0.60000000
v -0.04926923 0.00961204 -0.01234199 0.54509804 0.71372549 0.60000000
v -0.03695690 0.00942060 -0.01247625 0.54509804 0.71372549 0.60000000
v -0.01800332 0.00939325 -0.01249366 0.54509804 0.71372549 0.60000000
v -0.02463845 0.00933358 -0.01252349 0.54509804 0.71372549 0.60000000
v -0.01800332 0.00931617 -0.01253095 0.54509804 0.71372549 0.60000000
v -0.03762408 -0.01433097 -0.01256576 0.54509804 0.71372549 0.60000000
v -0.04926923 -0.01424644 -0.01260305 0.54509804 0.71372549 0.60000000
v -0.01800332 -0.01446274 -0.01250360 0.54509804 0.71372549 0.60000000
v -0.03695690 0.00958469 -0.01236188 0.54509804 0.71372549 0.60000000
v -0.04926923 0.00979851 -0.01215552 0.54509804 0.71372549 0.60000000
v -0.01800332 0.00961204 -0.01234199 0.54509804 0.71372549 0.60000000
v -0.01800332 0.00954243 -0.01239172 0.54509804 0.71372549 0.60000000
v -0.01800332 0.00940817 -0.01248371 0.54509804 0.71372549 0.60000000
v -0.04926923 -0.01448263 -0.01249366 0.54509804 0.71372549 0.60000000
v -0.01800332 -0.01448015 -0.01249366 0.54509804 0.71372549 0.60000000
v -0.04926923 0.00995018 -0.01193673 0.54509804 0.71372549 0.60000000
v -0.03695690 0.00993277 -0.01196407 0.54509804 0.71372549 0.60000000
v -0.03695690 0.00981840 -0.01212817 0.54509804 0.71372549 0.60000000
v -0.01800332 0.00979851 -0.01215552 0.54509804 0.71372549 0.60000000
v -0.04926923 -0.01449009 -0.01248868 0.54509804 0.71372549 0.60000000
v -0.01800332 -0.01454976 -0.01244642 0.54509804 0.71372549 0.60000000
v -0.03762408 -0.01450750 -0.01247625 0.54509804 0.71372549 0.60000000
v -0.04926923 0.01006455 -0.01169555 0.54509804 0.71372549 0.60000000
v -0.03695690 0.00996509 -0.01190689 0.54509804 0.71372549 0.60000000
v -0.01800332 0.00995018 -0.01193673 0.54509804 0.71372549 0.60000000
v -0.02463845 0.00991288 -0.01199143 0.54509804 0.71372549 0.60000000
v -0.03762408 -0.01467159 -0.01236188 0.54509804 0.71372549 0.60000000
v -0.04926923 -0.01469148 -0.01234697 0.54509804 0.71372549 0.60000000
v -0.01800332 -0.01469894 -0.01234199 0.54509804 0.71372549 0.60000000
v -0.04926923 0.01013168 -0.01143947 0.54509804 0.71372549 0.60000000
v -0.03695690 0.01012422 -0.01147179 0.54509804 0.71372549 0.60000000
v -0.01800332 0.01010184 -0.01155632 0.54509804 0.71372549 0.60000000
v -0.01800332 0.01006455 -0.01169555 0.54509804 0.71372549 0.60000000
v -0.02463845 0.00998001 -0.01187705 0.54509804 0.71372549 0.60000000
v -0.03762408 -0.01469894 -0.01234199 0.54509804 0.71372549 0.60000000
v -0.04926923 -0.01470640 -0.01233453 0.54509804 0.71372549 0.60000000
v -0.01800332 -0.01488541 -0.01215552 0.54509804 0.71372549 0.60000000
v -0.04926923 0.01015654 -0.01116349 0.54509804 0.71372549 0.60000000
v -0.03695690 0.01015654 -0.01117592 0.54509804 0.71372549 0.60000000
v -0.03695690 0.01014162 -0.01134001 0.54509804 0.71372549 0.60000000
v -0.02463845 0.01013914 -0.01137234 0.54509804 0.71372549 0.60000000
v -0.01800332 0.01013168 -0.01143947 0.54509804 0.71372549 0.60000000
v -0.04926923 -0.01488044 -0.01216049 0.54509804 0.71372549 0.60000000
v -0.01800332 -0.01503708 -0.01193673 0.54509804 0.71372549 0.60000000
v -0.02508528 -0.01499978 -0.01199143 0.54509804 0.71372549 0.60000000
v -0.03762408 -0.01501967 -0.01196407 0.54509804 0.71372549 0.60000000
v -0.03762408 -0.01490530 -0.01212817 0.54509804 0.71372549 0.60000000
v -0.04926923 -0.01489287 -0.01214557 0.54509804 0.71372549 0.60000000
v -0.03762408 -0.01488541 -0.01215552 0.54509804 0.71372549 0.60000000
v -0.04926923 0.01015654 0.01117091 0.54509804 0.71372549 0.60000000
v -0.01800332 0.01015654 -0.01117592 0.54509804 0.71372549 0.60000000
v -0.01800332 -0.01515145 -0.01169555 0.54509804 0.71372549 0.60000000
v -0.02508528 -0.01506691 -0.01187705 0.54509804 0.71372549 0.60000000
v -0.04926923 -0.01504205 -0.01192927 0.54509804 0.71372549 0.60000000
v -0.04926923 -0.01503459 -0.01194170 0.54509804 0.71372549 0.60000000
v -0.04926923 0.01013168 0.01143943 0.54509804 0.71372549 0.60000000
v -0.02463845 0.01013914 0.01137230 0.54509804 0.71372549 0.60000000
v -0.03695690 0.01015654 0.01117588 0.54509804 0.71372549 0.60000000
v -0.01800332 0.01015654 0.01117588 0.54509804 0.71372549 0.60000000
v -0.01800332 -0.01521858 -0.01143947 0.54509804 0.71372549 0.60000000
v -0.03762408 -0.01521112 -0.01147179 0.54509804 0.71372549 0.60000000
v -0.03762408 -0.01515145 -0.01169555 0.54509804 0.71372549 0.60000000
v -0.04926923 -0.01514647 -0.01170799 0.54509804 0.71372549 0.60000000
v -0.04926923 0.01006455 0.01169552 0.54509804 0.71372549 0.60000000
v -0.03695690 0.01012422 0.01147175 0.54509804 0.71372549 0.60000000
v -0.01800332 0.01013168 0.01143943 0.54509804 0.71372549 0.60000000
v -0.01800332 0.01013416 0.01142202 0.54509804 0.71372549 0.60000000
v -0.01800332 -0.01522106 -0.01141958 0.54509804 0.71372549 0.60000000
v -0.03762408 -0.01521858 -0.01143947 0.54509804 0.71372549 0.60000000
v -0.04926923 -0.01521609 -0.01144693 0.54509804 0.71372549 0.60000000
v -0.04926923 -0.01515393 -0.01168561 0.54509804 0.71372549 0.60000000
v -0.04926923 0.00995018 0.01193669 0.54509804 0.71372549 0.60000000
v -0.03695690 0.00996509 0.01190685 0.54509804 0.71372549 0.60000000
v -0.02463845 0.00998001 0.01187702 0.54509804 0.71372549 0.60000000
v -0.01800332 0.01006455 0.01169552 0.54509804 0.71372549 0.60000000
v -0.01800332 0.01010184 0.01155628 0.54509804 0.71372549 0.60000000
v -0.01800332 -0.01523598 -0.01126045 0.54509804 0.71372549 0.60000000
v -0.02508528 -0.01522604 -0.01137234 0.54509804 0.71372549 0.60000000
v -0.03762408 -0.01522852 -0.01134001 0.54509804 0.71372549 0.60000000
v -0.04926923 -0.01521858 -0.01143201 0.54509804 0.71372549 0.60000000
v -0.04926923 0.00979851 0.01215548 0.54509804 0.71372549 0.60000000
v -0.03695690 0.00993277 0.01196404 0.54509804 0.71372549 0.60000000
v -0.01800332 0.00995018 0.01193669 0.54509804 0.71372549 0.60000000
v -0.01800332 0.01000239 0.01182729 0.54509804 0.71372549 0.60000000
v -0.01800332 -0.01524344 -0.01117592 0.54509804 0.71372549 0.60000000
v -0.03762408 -0.01524344 -0.01117592 0.54509804 0.71372549 0.60000000
v -0.04926923 -0.01524095 -0.01118587 0.54509804 0.71372549 0.60000000
v -0.03695690 0.00981840 0.01212813 0.54509804 0.71372549 0.60000000
v -0.04926923 0.00961204 0.01234195 0.54509804 0.71372549 0.60000000
v -0.01800332 0.00979851 0.01215548 0.54509804 0.71372549 0.60000000
v -0.01800332 0.00992283 0.01197647 0.54509804 0.71372549 0.60000000
v -0.01800332 -0.01524344 0.01117588 0.54509804 0.71372549 0.60000000
v -0.04926923 -0.01524344 -0.01112619 0.54509804 0.71372549 0.60000000
v -0.04926923 0.00939325 0.01249362 0.54509804 0.71372549 0.60000000
v -0.03695690 0.00942060 0.01247621 0.54509804 0.71372549 0.60000000
v -0.03695690 0.00958469 0.01236184 0.54509804 0.71372549 0.60000000
v -0.01800332 0.00961204 0.01234195 0.54509804 0.71372549 0.60000000
v -0.01800332 -0.01523598 0.01126041 0.54509804 0.71372549 0.60000000
v -0.04926923 -0.01524344 0.01117588 0.54509804 0.71372549 0.60000000
v -0.04926923 0.00915208 0.01260799 0.54509804 0.71372549 0.60000000
v -0.03695690 0.00924407 0.01256572 0.54509804 0.71372549 0.60000000
v -0.03695690 0.00936341 0.01250853 0.54509804 0.71372549 0.60000000
v -0.01800332 0.00939325 0.01249362 0.54509804 0.71372549 0.60000000
v -0.01800332 0.00940817 0.01248367 0.54509804 0.71372549 0.60000000
v -0.01800332 0.00946286 0.01244638 0.54509804 0.71372549 0.60000000
v -0.01800332 -0.01522106 0.01141954 0.54509804 0.71372549 0.60000000
v -0.02508528 -0.01522604 0.01137230 0.54509804 0.71372549 0.60000000
v -0.04926923 -0.01522106 0.01142700 0.54509804 0.71372549 0.60000000
v -0.04926923 0.00889599 0.01267512 0.54509804 0.71372549 0.60000000
v -0.03695690 0.00892831 0.01266766 0.54509804 0.71372549 0.60000000
v -0.01800332 0.00915208 0.01260799 0.54509804 0.71372549 0.60000000
v -0.02463845 0.00933358 0.01252345 0.54509804 0.71372549 0.60000000
v -0.01800332 -0.01521858 0.01143943 0.54509804 0.71372549 0.60000000
v -0.03762408 -0.01521858 0.01143943 0.54509804 0.71372549 0.60000000
v -0.03762408 -0.01521112 0.01147175 0.54509804 0.71372549 0.60000000
v -0.04926923 -0.01521609 0.01144689 0.54509804 0.71372549 0.60000000
v -0.04926923 0.00862747 0.01269998 0.54509804 0.71372549 0.60000000
v -0.03695690 0.00879654 0.01268506 0.54509804 0.71372549 0.60000000
v -0.02463845 0.00882886 0.01268258 0.54509804 0.71372549 0.60000000
v -0.01800332 0.00887858 0.01267760 0.54509804 0.71372549 0.60000000
v -0.01800332 0.00889599 0.01267512 0.54509804 0.71372549 0.60000000
v -0.01800332 -0.01515145 0.01169552 0.54509804 0.71372549 0.60000000
v -0.03762408 -0.01515145 0.01169552 0.54509804 0.71372549 0.60000000
v -0.04926923 -0.01515393 0.01168557 0.54509804 0.71372549 0.60000000
v -0.04926923 -0.01351546 0.01269998 0.54509804 0.71372549 0.60000000
v -0.03695690 0.00863244 0.01269998 0.54509804 0.71372549 0.60000000
v -0.01800332 0.00863244 0.01269998 0.54509804 0.71372549 0.60000000
v -0.01800332 -0.01507437 0.01185961 0.54509804 0.71372549 0.60000000
v -0.02508528 -0.01506691 0.01187702 0.54509804 0.71372549 0.60000000
v -0.04926923 -0.01514647 0.01170795 0.54509804 0.71372549 0.60000000
v -0.04926923 -0.01372929 0.01269749 0.54509804 0.71372549 0.60000000
v -0.03762408 -0.01371934 0.01269998 0.54509804 0.71372549 0.60000000
v -0.01800332 -0.01371934 0.01269998 0.54509804 0.71372549 0.60000000
v -0.01800332 -0.01503708 0.01193669 0.54509804 0.71372549 0.60000000
v -0.04926923 -0.01504205 0.01192923 0.54509804 0.71372549 0.60000000
v -0.04926923 -0.01398537 0.01267512 0.54509804 0.71372549 0.60000000
v -0.03762408 -0.01388344 0.01268506 0.54509804 0.71372549 0.60000000
v -0.02508528 -0.01391576 0.01268258 0.54509804 0.71372549 0.60000000
v -0.01800332 -0.01380387 0.01269252 0.54509804 0.71372549 0.60000000
v -0.01800332 -0.01500973 0.01197647 0.54509804 0.71372549 0.60000000
v -0.03762408 -0.01501967 0.01196404 0.54509804 0.71372549 0.60000000
v -0.04926923 -0.01503459 0.01194166 0.54509804 0.71372549 0.60000000
v -0.04926923 -0.01399532 0.01267263 0.54509804 0.71372549 0.60000000
v -0.03762408 -0.01401521 0.01266766 0.54509804 0.71372549 0.60000000
v -0.01800332 -0.01398289 0.01267512 0.54509804 0.71372549 0.60000000
v -0.01800332 -0.01396300 0.01267760 0.54509804 0.71372549 0.60000000
v -0.01800332 -0.01488541 0.01215548 0.54509804 0.71372549 0.60000000
v -0.03762408 -0.01490530 0.01212813 0.54509804 0.71372549 0.60000000
v -0.04926923 -0.01489287 0.01214554 0.54509804 0.71372549 0.60000000
v -0.04926923 -0.01423152 0.01260799 0.54509804 0.71372549 0.60000000
v -0.03762408 -0.01423898 0.01260799 0.54509804 0.71372549 0.60000000
v -0.01800332 -0.01423898 0.01260799 0.54509804 0.71372549 0.60000000
v -0.01800332 -0.01469894 0.01234195 0.54509804 0.71372549 0.60000000
v -0.03762408 -0.01488541 0.01215548 0.54509804 0.71372549 0.60000000
v -0.04926923 -0.01488044 0.01216045 0.54509804 0.71372549 0.60000000
v -0.04926923 -0.01424644 0.01260301 0.54509804 0.71372549 0.60000000
v -0.03762408 -0.01433097 0.01256572 0.54509804 0.71372549 0.60000000
v -0.02508528 -0.01442048 0.01252345 0.54509804 0.71372549 0.60000000
v -0.01800332 -0.01448015 0.01249362 0.54509804 0.71372549 0.60000000
v -0.01800332 -0.01454976 0.01244638 0.54509804 0.71372549 0.60000000
v -0.03762408 -0.01467159 0.01236184 0.54509804 0.71372549 0.60000000
v -0.03762408 -0.01469894 0.01234195 0.54509804 0.71372549 0.60000000
v -0.04926923 -0.01470640 0.01233449 0.54509804 0.71372549 0.60000000
v -0.04926923 -0.01448263 0.01249362 0.54509804 0.71372549 0.60000000
v -0.01800332 -0.01449507 0.01248367 0.54509804 0.71372549 0.60000000
v -0.03762408 -0.01450750 0.01247621 0.54509804 0.71372549 0.60000000
v -0.04926923 -0.01449009 0.01248865 0.54509804 0.71372549 0.60000000
v -0.04926923 -0.01469148 0.01234693 0.54509804 0.71372549 0.60000000
f 1 2 7
f 1 7 17
f 1 17 21
f 1 21 10
f 1 10 3
f 1 3 4
f 1 4 9
f 1 9 19
f 1 19 32
f 1 32 40
f 1 40 47
f 1 47 53
f 1 53 61
f 1 61 69
f 1 69 76
f 1 76 81
f 1 81 88
f 1 88 87
f 1 87 96
f 1 96 104
f 1 104 103
f 1 103 113
f 1 113 120
f 1 120 126
f 1 126 132
f 1 132 141
f 1 141 149
f 1 149 157
f 1 157 163
f 1 163 168
f 1 168 175
f 1 175 182
f 1 182 188
f 1 188 196
f 1 196 201
f 1 201 200
f 1 200 197
f 1 197 189
f 1 189 183
f 1 183 176
f 1 176 169
f 1 169 164
f 1 164 158
f 1 158 150
f 1 150 142
f 1 142 133
f 1 133 127
f 1 127 122
f 1 122 114
f 1 114 105
f 1 105 97
f 1 97 89
f 1 89 83
f 1 83 71
f 1 71 63
f 1 63 56
f 1 56 49
f 1 49 43
f 1 43 34
f 1 34 24
f 1 24 13
f 1 13 5
f 1 5 2
f 2 5 6
f 2 6 7
f 3 8 9
f 3 9 4
f 3 10 11
f 3 11 12
f 3 12 8
f 5 13 14
f 5 14 15
f 5 15 16
f 5 16 6
f 6 16 7
f 7 16 17
f 8 12 9
f 9 18 19
f 9 12 20
f 9 20 18
f 10 21 22
f 10 22 11
f 11 22 29
f 11 29 28
f 11 28 27
f 11 27 15
f 11 15 26
f 11 26 38
f 11 38 36
f 11 36 46
f 11 46 45
f 11 45 44
f 11 44 52
f 11 52 58
f 11 58 66
f 11 66 65
f 11 65 75
f 11 75 84
f 11 84 92
f 11 92 100
f 11 100 99
f 11 99 109
f 11 109 108
f 11 108 117
f 11 117 116
f 11 116 124
f 11 124 123
f 11 123 130
f 11 130 138
f 11 138 137
f 11 137 136
f 11 136 144
f 11 144 154
f 11 154 153
f 11 153 160
f 11 160 166
f 11 166 172
f 11 172 179
f 11 179 178
f 11 178 185
f 11 185 192
f 11 192 198
f 11 198 193
f 11 193 186
f 11 186 180
f 11 180 173
f 11 173 167
f 11 167 161
f 11 161 155
f 11 155 146
f 11 146 139
f 11 139 131
f 11 131 125
f 11 125 118
f 11 118 110
f 11 110 101
f 11 101 93
f 11 93 85
f 11 85 77
f 11 77 70
f 11 70 62
f 11 62 54
f 11 54 48
f 11 48 41
f 11 41 31
f 11 31 20
f 11 20 23
f 11 23 12
f 12 23 20
f 13 24 25
f 13 25 26
f 13 26 14
f 14 26 15
f 15 27 16
f 16 27 28
f 16 28 17
f 17 28 29
f 17 29 21
f 18 30 19
f 18 20 31
f 18 31 30
f 19 30 32
f 21 29 22
f 24 33 25
f 24 34 35
f 24 35 36
f 24 36 37
f 24 37 33
f 25 33 37
f 25 37 26
f 26 37 38
f 30 39 40
f 30 40 32
f 30 31 39
f 31 41 39
f 34 42 35
f 34 43 52
f 34 52 44
f 34 44 42
f 35 42 45
f 35 45 46
f 35 46 36
f 36 38 37
f 39 47 40
f 39 41 47
f 41 48 47
f 42 44 45
f 43 49 50
f 43 50 51
f 43 51 52
f 47 48 53
f 48 54 55
f 48 55 53
f 49 56 57
f 49 57 67
f 49 67 58
f 49 58 50
f 50 58 59
f 50 59 52
f 50 52 51
f 52 59 58
f 53 55 54
f 53 54 60
f 53 60 61
f 54 62 60
f 56 63 64
f 56 64 65
f 56 65 66
f 56 66 67
f 56 67 57
f 58 67 66
f 60 68 61
f 60 62 68
f 61 68 69
f 62 70 82
f 62 82 76
f 62 76 69
f 62 69 68
f 63 71 72
f 63 72 73
f 63 73 74
f 63 74 75
f 63 75 64
f 64 75 65
f 70 77 78
f 70 78 79
f 70 79 80
f 70 80 81
f 70 81 82
f 71 83 91
f 71 91 92
f 71 92 84
f 71 84 72
f 72 84 74
f 72 74 73
f 74 84 75
f 76 82 81
f 77 85 86
f 77 86 87
f 77 87 88
f 77 88 79
f 77 79 78
f 79 88 81
f 79 81 80
f 83 89 90
f 83 90 91
f 85 93 94
f 85 94 95
f 85 95 96
f 85 96 86
f 86 96 87
f 89 97 98
f 89 98 99
f 89 99 100
f 89 100 90
f 90 100 92
f 90 92 91
f 93 101 102
f 93 102 94
f 94 102 103
f 94 103 104
f 94 104 95
f 95 104 96
f 97 105 106
f 97 106 107
f 97 107 108
f 97 108 109
f 97 109 98
f 98 109 99
f 101 110 111
f 101 111 102
f 102 112 113
f 102 113 103
f 102 111 112
f 105 114 115
f 105 115 116
f 105 116 107
f 105 107 106
f 107 116 117
f 107 117 108
f 110 118 119
f 110 119 111
f 111 119 112
f 112 119 120
f 112 120 113
f 114 121 115
f 114 122 130
f 114 130 123
f 114 123 121
f 115 121 123
f 115 123 124
f 115 124 116
f 118 125 132
f 118 132 126
f 118 126 119
f 119 126 120
f 122 127 128
f 122 128 129
f 122 129 130
f 125 131 132
f 127 133 134
f 127 134 135
f 127 135 145
f 127 145 136
f 127 136 128
f 128 136 137
f 128 137 138
f 128 138 129
f 129 138 130
f 131 139 140
f 131 140 132
f 132 140 141
f 133 142 143
f 133 143 144
f 133 144 134
f 134 144 145
f 134 145 135
f 136 145 144
f 139 146 141
f 139 141 140
f 141 147 148
f 141 148 149
f 141 146 147
f 142 150 151
f 142 151 152
f 142 152 153
f 142 153 154
f 142 154 143
f 143 154 144
f 146 155 148
f 146 148 147
f 148 156 157
f 148 157 149
f 148 155 156
f 150 158 165
f 150 165 166
f 150 166 160
f 150 160 159
f 150 159 151
f 151 159 152
f 152 160 153
f 152 159 160
f 155 161 162
f 155 162 163
f 155 163 156
f 156 163 157
f 158 164 165
f 161 167 162
f 162 167 168
f 162 168 163
f 164 169 165
f 165 169 170
f 165 170 171
f 165 171 172
f 165 172 166
f 167 173 174
f 167 174 175
f 167 175 168
f 169 176 177
f 169 177 178
f 169 178 179
f 169 179 171
f 169 171 170
f 171 179 172
f 173 180 174
f 174 181 182
f 174 182 175
f 174 180 181
f 176 183 184
f 176 184 177
f 177 184 185
f 177 185 178
f 180 186 195
f 180 195 196
f 180 196 188
f 180 188 187
f 180 187 182
f 180 182 181
f 182 187 188
f 183 189 184
f 184 189 190
f 184 190 185
f 185 191 192
f 185 190 191
f 186 193 194
f 186 194 195
f 189 197 190
f 190 197 191
f 191 197 192
f 192 197 200
f 192 200 198
f 193 198 199
f 193 199 200
f 193 200 194
f 194 200 201
f 194 201 195
f 195 201 196
f 198 200 199

