# https://github.com/mikedh/trimesh
v 0.04926923 -0.01524344 -0.01109632 0.54117647 0.42352941 0.64313725
v 0.04926923 -0.01524344 0.01117592 0.54117647 0.42352941 0.64313725
v 0.04926923 -0.01524046 -0.01118583 0.54117647 0.42352941 0.64313725
v 0.05017079 -0.01524344 -0.01117588 0.54117647 0.42352941 0.64313725
v 0.05017079 -0.01524344 0.01117592 0.54117647 0.42352941 0.64313725
v 0.05017079 -0.01521957 0.01143947 0.54117647 0.42352941 0.64313725
v 0.04926923 -0.01521957 0.01143698 0.54117647 0.42352941 0.64313725
v 0.04926923 -0.01521957 -0.01143694 0.54117647 0.42352941 0.64313725
v 0.05017079 -0.01521957 -0.01143943 0.54117647 0.42352941 0.64313725
v 0.05040540 -0.01520167 -0.01143943 0.54117647 0.42352941 0.64313725
v 0.05040804 -0.01522256 -0.01117588 0.54117647 0.42352941 0.64313725
v 0.05040804 -0.01522256 0.01117592 0.54117647 0.42352941 0.64313725
v 0.05040540 -0.01520167 0.01143947 0.54117647 0.42352941 0.64313725
v 0.05017079 -0.01515095 0.01169556 0.54117647 0.42352941 0.64313725
v 0.04926923 -0.01515393 0.01168561 0.54117647 0.42352941 0.64313725
v 0.04926923 -0.01515393 -0.01168557 0.54117647 0.42352941 0.64313725
v 0.05017079 -0.01515095 -0.01169552 0.54117647 0.42352941 0.64313725
v 0.05039486 -0.01513305 -0.01169552 0.54117647 0.42352941 0.64313725
v 0.05061366 -0.01507934 -0.01169552 0.54117647 0.42352941 0.64313725
v 0.05063475 -0.01514498 -0.01143943 0.54117647 0.42352941 0.64313725
v 0.05064002 -0.01516885 -0.01117588 0.54117647 0.42352941 0.64313725
v 0.05064002 -0.01516885 0.01117592 0.54117647 0.42352941 0.64313725
v 0.05063475 -0.01514498 0.01143947 0.54117647 0.42352941 0.64313725
v 0.05061366 -0.01507934 0.01169556 0.54117647 0.42352941 0.64313725
v 0.05039486 -0.01513305 0.01169556 0.54117647 0.42352941 0.64313725
v 0.05037641 -0.01502266 0.01193673 0.54117647 0.42352941 0.64313725
v 0.05017079 -0.01503758 0.01193673 0.54117647 0.42352941 0.64313725
v 0.04926923 -0.01503758 0.01193921 0.54117647 0.42352941 0.64313725
v 0.04926923 -0.01514498 0.01170799 0.54117647 0.42352941 0.64313725
v 0.04926923 -0.01514498 -0.01170795 0.54117647 0.42352941 0.64313725
v 0.05017079 -0.01503758 -0.01193669 0.54117647 0.42352941 0.64313725
v 0.05037641 -0.01502266 -0.01193669 0.54117647 0.42352941 0.64313725
v 0.05085091 -0.01505548 -0.01143943 0.54117647 0.42352941 0.64313725
v 0.05057675 -0.01497194 -0.01193669 0.54117647 0.42352941 0.64313725
v 0.05076919 -0.01489436 -0.01193669 0.54117647 0.42352941 0.64313725
v 0.05081928 -0.01499282 -0.01169552 0.54117647 0.42352941 0.64313725
v 0.05086146 -0.01507636 -0.01117588 0.54117647 0.42352941 0.64313725
v 0.05086146 -0.01507636 0.01117592 0.54117647 0.42352941 0.64313725
v 0.05085091 -0.01505548 0.01143947 0.54117647 0.42352941 0.64313725
v 0.05081928 -0.01499282 0.01169556 0.54117647 0.42352941 0.64313725
v 0.05076919 -0.01489436 0.01193673 0.54117647 0.42352941 0.64313725
v 0.05057675 -0.01497194 0.01193673 0.54117647 0.42352941 0.64313725
v 0.05053194 -0.01482873 0.01215552 0.54117647 0.42352941 0.64313725
v 0.05035268 -0.01487050 0.01215552 0.54117647 0.42352941 0.64313725
v 0.05017079 -0.01488541 0.01215552 0.54117647 0.42352941 0.64313725
v 0.04926923 -0.01489138 0.01214558 0.54117647 0.42352941 0.64313725
v 0.04926923 -0.01503459 -0.01194166 0.54117647 0.42352941 0.64313725
v 0.05017079 -0.01488541 -0.01215548 0.54117647 0.42352941 0.64313725
v 0.05035268 -0.01487050 -0.01215548 0.54117647 0.42352941 0.64313725
v 0.05053194 -0.01482873 -0.01215548 0.54117647 0.42352941 0.64313725
v 0.05101172 -0.01487646 -0.01169552 0.54117647 0.42352941 0.64313725
v 0.05105126 -0.01493315 -0.01143943 0.54117647 0.42352941 0.64313725
v 0.05106707 -0.01495105 -0.01117588 0.54117647 0.42352941 0.64313725
v 0.05070065 -0.01475712 -0.01215548 0.54117647 0.42352941 0.64313725
v 0.05094581 -0.01478696 -0.01193669 0.54117647 0.42352941 0.64313725
v 0.05106707 -0.01495105 0.01117592 0.54117647 0.42352941 0.64313725
v 0.05105126 -0.01493315 0.01143947 0.54117647 0.42352941 0.64313725
v 0.05101172 -0.01487646 0.01169556 0.54117647 0.42352941 0.64313725
v 0.05094581 -0.01478696 0.01193673 0.54117647 0.42352941 0.64313725
v 0.05070065 -0.01475712 0.01215552 0.54117647 0.42352941 0.64313725
v 0.05047394 -0.01464971 0.01234199 0.54117647 0.42352941 0.64313725
v 0.05032368 -0.01468552 0.01234199 0.54117647 0.42352941 0.64313725
v 0.05017079 -0.01469745 0.01234199 0.54117647 0.42352941 0.64313725
v 0.04926923 -0.01470640 0.01233454 0.54117647 0.42352941 0.64313725
v 0.04926923 -0.01488541 0.01215303 0.54117647 0.42352941 0.64313725
v 0.04926923 -0.01488541 -0.01215548 0.54117647 0.42352941 0.64313725
v 0.04926923 -0.01470640 -0.01233450 0.54117647 0.42352941 0.64313725
v 0.05017079 -0.01469745 -0.01234196 0.54117647 0.42352941 0.64313725
v 0.05032368 -0.01468552 -0.01234196 0.54117647 0.42352941 0.64313725
v 0.05047394 -0.01464971 -0.01234196 0.54117647 0.42352941 0.64313725
v 0.05110398 -0.01465270 -0.01193669 0.54117647 0.42352941 0.64313725
v 0.05118306 -0.01473027 -0.01169552 0.54117647 0.42352941 0.64313725
v 0.05123051 -0.01477801 -0.01143943 0.54117647 0.42352941 0.64313725
v 0.05124897 -0.01479591 -0.01117588 0.54117647 0.42352941 0.64313725
v 0.05061366 -0.01459004 -0.01234196 0.54117647 0.42352941 0.64313725
v 0.05074547 -0.01450949 -0.01234196 0.54117647 0.42352941 0.64313725
v 0.05085618 -0.01466165 -0.01215548 0.54117647 0.42352941 0.64313725
v 0.05124897 -0.01479591 0.01117592 0.54117647 0.42352941 0.64313725
v 0.05123051 -0.01477801 0.01143947 0.54117647 0.42352941 0.64313725
v 0.05118306 -0.01473027 0.01169556 0.54117647 0.42352941 0.64313725
v 0.05110398 -0.01465270 0.01193673 0.54117647 0.42352941 0.64313725
v 0.05085618 -0.01466165 0.01215552 0.54117647 0.42352941 0.64313725
v 0.05074547 -0.01450949 0.01234199 0.54117647 0.42352941 0.64313725
v 0.05061366 -0.01459004 0.01234199 0.54117647 0.42352941 0.64313725
v 0.05040540 -0.01444385 0.01249366 0.54117647 0.42352941 0.64313725
v 0.05028941 -0.01447070 0.01249366 0.54117647 0.42352941 0.64313725
v 0.05017079 -0.01447965 0.01249366 0.54117647 0.42352941 0.64313725
v 0.04926923 -0.01448263 0.01249366 0.54117647 0.42352941 0.64313725
v 0.04926923 -0.01469745 0.01234199 0.54117647 0.42352941 0.64313725
v 0.04926923 -0.01469148 -0.01234693 0.54117647 0.42352941 0.64313725
v 0.04926923 -0.01448263 -0.01249362 0.54117647 0.42352941 0.64313725
v 0.05017079 -0.01447965 -0.01249362 0.54117647 0.42352941 0.64313725
v 0.05028941 -0.01447070 -0.01249362 0.54117647 0.42352941 0.64313725
v 0.05040540 -0.01444385 -0.01249362 0.54117647 0.42352941 0.64313725
v 0.05730945 -0.00860503 -0.01169552 0.54117647 0.42352941 0.64313725
v 0.05099590 -0.01454231 -0.01215548 0.54117647 0.42352941 0.64313725
v 0.05712228 -0.00841707 -0.01215548 0.54117647 0.42352941 0.64313725
v 0.06940141 0.00380655 -0.01210078 0.54117647 0.42352941 0.64313725
v 0.06948049 0.00372599 -0.01193669 0.54117647 0.42352941 0.64313725
v 0.06950158 0.00370511 -0.01187702 0.54117647 0.42352941 0.64313725
v 0.05732263 -0.00861697 -0.01163087 0.54117647 0.42352941 0.64313725
v 0.05734635 -0.00864084 -0.01150407 0.54117647 0.42352941 0.64313725
v 0.06960966 0.00359770 -0.01143943 0.54117647 0.42352941 0.64313725
v 0.07575186 0.00970802 -0.01117588 0.54117647 0.42352941 0.64313725
v 0.05051612 -0.01439611 -0.01249362 0.54117647 0.42352941 0.64313725
v 0.05061893 -0.01433346 -0.01249362 0.54117647 0.42352941 0.64313725
v 0.05086146 -0.01441103 -0.01234196 0.54117647 0.42352941 0.64313725
v 0.07575186 0.00970802 0.01117592 0.54117647 0.42352941 0.64313725
v 0.06960966 0.00359770 0.01143947 0.54117647 0.42352941 0.64313725
v 0.05734635 -0.00864084 0.01150411 0.54117647 0.42352941 0.64313725
v 0.05732263 -0.00861697 0.01163091 0.54117647 0.42352941 0.64313725
v 0.05730945 -0.00860503 0.01169556 0.54117647 0.42352941 0.64313725
v 0.05712228 -0.00841707 0.01215552 0.54117647 0.42352941 0.64313725
v 0.05099590 -0.01454231 0.01215552 0.54117647 0.42352941 0.64313725
v 0.06950158 0.00370511 0.01187706 0.54117647 0.42352941 0.64313725
v 0.06948049 0.00372599 0.01193673 0.54117647 0.42352941 0.64313725
v 0.06940141 0.00380655 0.01210082 0.54117647 0.42352941 0.64313725
v 0.05086146 -0.01441103 0.01234199 0.54117647 0.42352941 0.64313725
v 0.05061893 -0.01433346 0.01249366 0.54117647 0.42352941 0.64313725
v 0.05051612 -0.01439611 0.01249366 0.54117647 0.42352941 0.64313725
v 0.05033159 -0.01421411 0.01260803 0.54117647 0.42352941 0.64313725
v 0.05025251 -0.01423202 0.01260803 0.54117647 0.42352941 0.64313725
v 0.05017079 -0.01423798 0.01260803 0.54117647 0.42352941 0.64313725
v 0.04926923 -0.01423798 0.01260803 0.54117647 0.42352941 0.64313725
v 0.04926923 -0.01423798 -0.01260799 0.54117647 0.42352941 0.64313725
v 0.05017079 -0.01423798 -0.01260799 0.54117647 0.42352941 0.64313725
v 0.05025251 -0.01423202 -0.01260799 0.54117647 0.42352941 0.64313725
v 0.05033159 -0.01421411 -0.01260799 0.54117647 0.42352941 0.64313725
v 0.07568859 0.00977365 -0.01169552 0.54117647 0.42352941 0.64313725
v 0.05699047 -0.00828281 -0.01234196 0.54117647 0.42352941 0.64313725
v 0.07536698 0.01009289 -0.01234196 0.54117647 0.42352941 0.64313725
v 0.07550142 0.00996162 -0.01215548 0.54117647 0.42352941 0.64313725
v 0.07560687 0.00985421 -0.01193669 0.54117647 0.42352941 0.64313725
v 0.07573604 0.00972592 -0.01143943 0.54117647 0.42352941 0.64313725
v 0.07590739 0.00989001 -0.01117588 0.54117647 0.42352941 0.64313725
v 0.07583095 0.00980051 0.00000002 0.54117647 0.42352941 0.64313725
v 0.05040540 -0.01418129 -0.01260799 0.54117647 0.42352941 0.64313725
v 0.05047658 -0.01413953 -0.01260799 0.54117647 0.42352941 0.64313725
v 0.05070856 -0.01425588 -0.01249362 0.54117647 0.42352941 0.64313725
v 0.05053985 -0.01408582 -0.01260799 0.54117647 0.42352941 0.64313725
v 0.05687449 -0.00816944 -0.01245632 0.54117647 0.42352941 0.64313725
v 0.07590739 0.00989001 0.01117592 0.54117647 0.42352941 0.64313725
v 0.07573604 0.00972592 0.01143947 0.54117647 0.42352941 0.64313725
v 0.07568859 0.00977365 0.01169556 0.54117647 0.42352941 0.64313725
v 0.05699047 -0.00828281 0.01234199 0.54117647 0.42352941 0.64313725
v 0.07550142 0.00996162 0.01215552 0.54117647 0.42352941 0.64313725
v 0.07536698 0.01009289 0.01234199 0.54117647 0.42352941 0.64313725
v 0.07560687 0.00985421 0.01193673 0.54117647 0.42352941 0.64313725
v 0.05070856 -0.01425588 0.01249366 0.54117647 0.42352941 0.64313725
v 0.05687449 -0.00816944 0.01245636 0.54117647 0.42352941 0.64313725
v 0.05053985 -0.01408582 0.01260803 0.54117647 0.42352941 0.64313725
v 0.05047658 -0.01413953 0.01260803 0.54117647 0.42352941 0.64313725
v 0.05040540 -0.01418129 0.01260803 0.54117647 0.42352941 0.64313725
v 0.05028941 -0.01395454 0.01267516 0.54117647 0.42352941 0.64313725
v 0.05025251 -0.01396946 0.01267516 0.54117647 0.42352941 0.64313725
v 0.05021033 -0.01397841 0.01267516 0.54117647 0.42352941 0.64313725
v 0.05017079 -0.01398140 0.01267516 0.54117647 0.42352941 0.64313725
v 0.04926923 -0.01398438 0.01267516 0.54117647 0.42352941 0.64313725
v 0.04926923 -0.01398438 -0.01267512 0.54117647 0.42352941 0.64313725
v 0.05017079 -0.01398140 -0.01267512 0.54117647 0.42352941 0.64313725
v 0.05021033 -0.01397841 -0.01267512 0.54117647 0.42352941 0.64313725
v 0.05025251 -0.01396946 -0.01267512 0.54117647 0.42352941 0.64313725
v 0.05028941 -0.01395454 -0.01267512 0.54117647 0.42352941 0.64313725
v 0.07574132 0.01000935 -0.01193669 0.54117647 0.42352941 0.64313725
v 0.07583358 0.00994372 -0.01169552 0.54117647 0.42352941 0.64313725
v 0.07588894 0.00990493 -0.01143943 0.54117647 0.42352941 0.64313725
v 0.06912461 0.00408103 -0.01245632 0.54117647 0.42352941 0.64313725
v 0.06908771 0.00411982 -0.01249362 0.54117647 0.42352941 0.64313725
v 0.07521409 0.01024804 -0.01249362 0.54117647 0.42352941 0.64313725
v 0.07546716 0.01020925 -0.01234196 0.54117647 0.42352941 0.64313725
v 0.07562005 0.01009886 -0.01215548 0.54117647 0.42352941 0.64313725
v 0.07601284 0.01010483 -0.01143943 0.54117647 0.42352941 0.64313725
v 0.07603129 0.01009588 -0.01117588 0.54117647 0.42352941 0.64313725
v 0.07597066 0.00999145 0.00000002 0.54117647 0.42352941 0.64313725
v 0.05032632 -0.01393068 -0.01267512 0.54117647 0.42352941 0.64313725
v 0.05679276 -0.00808888 -0.01252345 0.54117647 0.42352941 0.64313725
v 0.05035795 -0.01390382 -0.01267512 0.54117647 0.42352941 0.64313725
v 0.05666623 -0.00796059 -0.01260799 0.54117647 0.42352941 0.64313725
v 0.07603129 0.01009588 0.01117592 0.54117647 0.42352941 0.64313725
v 0.07601284 0.01010483 0.01143947 0.54117647 0.42352941 0.64313725
v 0.07588894 0.00990493 0.01143947 0.54117647 0.42352941 0.64313725
v 0.07583358 0.00994372 0.01169556 0.54117647 0.42352941 0.64313725
v 0.07574132 0.01000935 0.01193673 0.54117647 0.42352941 0.64313725
v 0.07562005 0.01009886 0.01215552 0.54117647 0.42352941 0.64313725
v 0.07546716 0.01020925 0.01234199 0.54117647 0.42352941 0.64313725
v 0.07521409 0.01024804 0.01249366 0.54117647 0.42352941 0.64313725
v 0.06908771 0.00411982 0.01249366 0.54117647 0.42352941 0.64313725
v 0.06912461 0.00408103 0.01245636 0.54117647 0.42352941 0.64313725
v 0.05679276 -0.00808888 0.01252349 0.54117647 0.42352941 0.64313725
v 0.05666623 -0.00796059 0.01260803 0.54117647 0.42352941 0.64313725
v 0.05035795 -0.01390382 0.01267516 0.54117647 0.42352941 0.64313725
v 0.05032632 -0.01393068 0.01267516 0.54117647 0.42352941 0.64313725
v 0.05017079 -0.01371884 0.01269753 0.54117647 0.42352941 0.64313725
v 0.04926923 -0.01373078 0.01269753 0.54117647 0.42352941 0.64313725
v 0.04926923 -0.01373078 -0.01269750 0.54117647 0.42352941 0.64313725
v 0.05017079 -0.01371884 -0.01269750 0.54117647 0.42352941 0.64313725
v 0.07584939 0.01018837 -0.01193669 0.54117647 0.42352941 0.64313725
v 0.07594957 0.01013765 -0.01169552 0.54117647 0.42352941 0.64313725
v 0.06891636 0.00428988 -0.01260799 0.54117647 0.42352941 0.64313725
v 0.07504274 0.01041810 -0.01260799 0.54117647 0.42352941 0.64313725
v 0.07529054 0.01033755 -0.01249362 0.54117647 0.42352941 0.64313725
v 0.07535380 0.01043899 -0.01249362 0.54117647 0.42352941 0.64313725
v 0.07554624 0.01034053 -0.01234196 0.54117647 0.42352941 0.64313725
v 0.07571496 0.01025699 -0.01215548 0.54117647 0.42352941 0.64313725
v 0.07603656 0.01034351 -0.01169552 0.54117647 0.42352941 0.64313725
v 0.07610246 0.01032263 -0.01143943 0.54117647 0.42352941 0.64313725
v 0.07612355 0.01031666 -0.01117588 0.54117647 0.42352941 0.64313725
v 0.07607874 0.01020627 0.00000002 0.54117647 0.42352941 0.64313725
v 0.05643688 -0.00773085 -0.01268258 0.54117647 0.42352941 0.64313725
v 0.05648433 -0.00777859 -0.01267512 0.54117647 0.42352941 0.64313725
v 0.07612355 0.01031666 0.01117592 0.54117647 0.42352941 0.64313725
v 0.07610246 0.01032263 0.01143947 0.54117647 0.42352941 0.64313725
v 0.07603656 0.01034351 0.01169556 0.54117647 0.42352941 0.64313725
v 0.07594957 0.01013765 0.01169556 0.54117647 0.42352941 0.64313725
v 0.07584939 0.01018837 0.01193673 0.54117647 0.42352941 0.64313725
v 0.07571496 0.01025699 0.01215552 0.54117647 0.42352941 0.64313725
v 0.07554624 0.01034053 0.01234199 0.54117647 0.42352941 0.64313725
v 0.07535380 0.01043899 0.01249366 0.54117647 0.42352941 0.64313725
v 0.07529054 0.01033755 0.01249366 0.54117647 0.42352941 0.64313725
v 0.07504274 0.01041810 0.01260803 0.54117647 0.42352941 0.64313725
v 0.06891636 0.00428988 0.01260803 0.54117647 0.42352941 0.64313725
v 0.05648433 -0.00777859 0.01267516 0.54117647 0.42352941 0.64313725
v 0.05643688 -0.00773085 0.01268262 0.54117647 0.42352941 0.64313725
v 0.06242355 -0.00146539 0.01270002 0.54117647 0.42352941 0.64313725
v 0.04926923 0.00862499 0.01269753 0.54117647 0.42352941 0.64313725
v 0.04926923 -0.01351596 -0.01269998 0.54117647 0.42352941 0.64313725
v 0.06859475 0.00461211 -0.01269252 0.54117647 0.42352941 0.64313725
v 0.06251845 -0.00155788 -0.01268755 0.54117647 0.42352941 0.64313725
v 0.07467368 0.01078508 -0.01269750 0.54117647 0.42352941 0.64313725
v 0.07593112 0.01037931 -0.01193669 0.54117647 0.42352941 0.64313725
v 0.06873446 0.00447188 -0.01267512 0.54117647 0.42352941 0.64313725
v 0.07509546 0.01048076 -0.01260799 0.54117647 0.42352941 0.64313725
v 0.07486085 0.01060010 -0.01267512 0.54117647 0.42352941 0.64313725
v 0.07488984 0.01062993 -0.01267512 0.54117647 0.42352941 0.64313725
v 0.07514028 0.01054938 -0.01260799 0.54117647 0.42352941 0.64313725
v 0.07539861 0.01054938 -0.01249362 0.54117647 0.42352941 0.64313725
v 0.07560687 0.01048374 -0.01234196 0.54117647 0.42352941 0.64313725
v 0.07578613 0.01042705 -0.01215548 0.54117647 0.42352941 0.64313725
v 0.07608928 0.01056131 -0.01169552 0.54117647 0.42352941 0.64313725
v 0.07615782 0.01055236 -0.01143943 0.54117647 0.42352941 0.64313725
v 0.07617891 0.01054938 -0.01117588 0.54117647 0.42352941 0.64313725
v 0.07615255 0.01043302 0.00000002 0.54117647 0.42352941 0.64313725
v 0.06868701 0.00451962 -0.01268258 0.54117647 0.42352941 0.64313725
v 0.07617891 0.01054938 0.01117592 0.54117647 0.42352941 0.64313725
v 0.07615782 0.01055236 0.01143947 0.54117647 0.42352941 0.64313725
v 0.07608928 0.01056131 0.01169556 0.54117647 0.42352941 0.64313725
v 0.07593112 0.01037931 0.01193673 0.54117647 0.42352941 0.64313725
v 0.07578613 0.01042705 0.01215552 0.54117647 0.42352941 0.64313725
v 0.07560687 0.01048374 0.01234199 0.54117647 0.42352941 0.64313725
v 0.07539861 0.01054938 0.01249366 0.54117647 0.42352941 0.64313725
v 0.07514028 0.01054938 0.01260803 0.54117647 0.42352941 0.64313725
v 0.07509546 0.01048076 0.01260803 0.54117647 0.42352941 0.64313725
v 0.07488984 0.01062993 0.01267516 0.54117647 0.42352941 0.64313725
v 0.07486085 0.01060010 0.01267516 0.54117647 0.42352941 0.64313725
v 0.06873446 0.00447188 0.01267516 0.54117647 0.42352941 0.64313725
v 0.06868701 0.00451962 0.01268262 0.54117647 0.42352941 0.64313725
v 0.06314322 0.01025401 0.01270002 0.54117647 0.42352941 0.64313725
v 0.07467368 0.01078508 0.01270002 0.54117647 0.42352941 0.64313725
v 0.04926923 0.00889649 0.01267516 0.54117647 0.42352941 0.64313725
v 0.06349909 0.01371194 0.01270002 0.54117647 0.42352941 0.64313725
v 0.05232451 0.01371194 0.01269753 0.54117647 0.42352941 0.64313725
v 0.05209517 0.01384322 0.01267516 0.54117647 0.42352941 0.64313725
v 0.04926923 -0.00244101 -0.01269998 0.54117647 0.42352941 0.64313725
v 0.07467368 0.01371194 -0.01269750 0.54117647 0.42352941 0.64313725
v 0.07493993 0.01078508 -0.01267512 0.54117647 0.42352941 0.64313725
v 0.07493729 0.01074629 -0.01267512 0.54117647 0.42352941 0.64313725
v 0.07492675 0.01070452 -0.01267512 0.54117647 0.42352941 0.64313725
v 0.07491093 0.01066574 -0.01267512 0.54117647 0.42352941 0.64313725
v 0.07582831 0.01060308 -0.01215548 0.54117647 0.42352941 0.64313725
v 0.07597857 0.01057921 -0.01193669 0.54117647 0.42352941 0.64313725
v 0.07516927 0.01062397 -0.01260799 0.54117647 0.42352941 0.64313725
v 0.07519036 0.01070452 -0.01260799 0.54117647 0.42352941 0.64313725
v 0.07542761 0.01066574 -0.01249362 0.54117647 0.42352941 0.64313725
v 0.07564114 0.01063292 -0.01234196 0.54117647 0.42352941 0.64313725
v 0.07610774 0.01078508 -0.01169552 0.54117647 0.42352941 0.64313725
v 0.07617628 0.01078508 -0.01143943 0.54117647 0.42352941 0.64313725
v 0.07619737 0.01078508 -0.01117588 0.54117647 0.42352941 0.64313725
v 0.07618946 0.01066574 0.00000002 0.54117647 0.42352941 0.64313725
v 0.07619737 0.01078508 0.01117592 0.54117647 0.42352941 0.64313725
v 0.07617628 0.01078508 0.01143947 0.54117647 0.42352941 0.64313725
v 0.07610774 0.01078508 0.01169556 0.54117647 0.42352941 0.64313725
v 0.07597857 0.01057921 0.01193673 0.54117647 0.42352941 0.64313725
v 0.07582831 0.01060308 0.01215552 0.54117647 0.42352941 0.64313725
v 0.07564114 0.01063292 0.01234199 0.54117647 0.42352941 0.64313725
v 0.07542761 0.01066574 0.01249366 0.54117647 0.42352941 0.64313725
v 0.07519036 0.01070452 0.01260803 0.54117647 0.42352941 0.64313725
v 0.07516927 0.01062397 0.01260803 0.54117647 0.42352941 0.64313725
v 0.07492675 0.01070452 0.01267516 0.54117647 0.42352941 0.64313725
v 0.07491093 0.01066574 0.01267516 0.54117647 0.42352941 0.64313725
v 0.07493729 0.01074629 0.01267516 0.54117647 0.42352941 0.64313725
v 0.07493993 0.01078508 0.01267516 0.54117647 0.42352941 0.64313725
v 0.07467368 0.01371194 0.01270002 0.54117647 0.42352941 0.64313725
v 0.04926923 0.00915307 0.01260803 0.54117647 0.42352941 0.64313725
v 0.05187373 0.01397151 0.01260803 0.54117647 0.42352941 0.64313725
v 0.05166548 0.01409086 0.01249366 0.54117647 0.42352941 0.64313725
v 0.05232451 0.01397450 0.01267516 0.54117647 0.42352941 0.64313725
v 0.05227970 0.01397151 0.01267516 0.54117647 0.42352941 0.64313725
v 0.05223488 0.01395958 0.01267516 0.54117647 0.42352941 0.64313725
v 0.05219270 0.01394168 0.01267516 0.54117647 0.42352941 0.64313725
v 0.05215580 0.01391483 0.01267516 0.54117647 0.42352941 0.64313725
v 0.05212153 0.01388201 0.01267516 0.54117647 0.42352941 0.64313725
v 0.04926923 0.00862499 -0.01269750 0.54117647 0.42352941 0.64313725
v 0.05232451 0.01371194 -0.01269750 0.54117647 0.42352941 0.64313725
v 0.07493993 0.01371194 -0.01267512 0.54117647 0.42352941 0.64313725
v 0.06349909 0.01384322 -0.01268755 0.54117647 0.42352941 0.64313725
v 0.07467368 0.01397450 -0.01267512 0.54117647 0.42352941 0.64313725
v 0.07519563 0.01078508 -0.01260799 0.54117647 0.42352941 0.64313725
v 0.07565432 0.01078508 -0.01234196 0.54117647 0.42352941 0.64313725
v 0.07584149 0.01078508 -0.01215548 0.54117647 0.42352941 0.64313725
v 0.07599438 0.01078508 -0.01193669 0.54117647 0.42352941 0.64313725
v 0.07543552 0.01078508 -0.01249362 0.54117647 0.42352941 0.64313725
v 0.07610774 0.01371194 -0.01169552 0.54117647 0.42352941 0.64313725
v 0.07617628 0.01371194 -0.01143943 0.54117647 0.42352941 0.64313725
v 0.07619737 0.01371194 -0.01117588 0.54117647 0.42352941 0.64313725
v 0.07619737 0.01371194 0.01117592 0.54117647 0.42352941 0.64313725
v 0.07617628 0.01371194 0.01143947 0.54117647 0.42352941 0.64313725
v 0.07599438 0.01078508 0.01193673 0.54117647 0.42352941 0.64313725
v 0.07610774 0.01371194 0.01169556 0.54117647 0.42352941 0.64313725
v 0.07584149 0.01078508 0.01215552 0.54117647 0.42352941 0.64313725
v 0.07565432 0.01078508 0.01234199 0.54117647 0.42352941 0.64313725
v 0.07543552 0.01078508 0.01249366 0.54117647 0.42352941 0.64313725
v 0.07519563 0.01078508 0.01260803 0.54117647 0.42352941 0.64313725
v 0.07493993 0.01371194 0.01267516 0.54117647 0.42352941 0.64313725
v 0.07493993 0.01397151 0.01265278 0.54117647 0.42352941 0.64313725
v 0.07467368 0.01397450 0.01267516 0.54117647 0.42352941 0.64313725
v 0.04926923 0.00939176 0.01249366 0.54117647 0.42352941 0.64313725
v 0.05147567 0.01420125 0.01234199 0.54117647 0.42352941 0.64313725
v 0.05131487 0.01429374 0.01215552 0.54117647 0.42352941 0.64313725
v 0.05192645 0.01404610 0.01260803 0.54117647 0.42352941 0.64313725
v 0.05174193 0.01420125 0.01249366 0.54117647 0.42352941 0.64313725
v 0.05232451 0.01423108 0.01260803 0.54117647 0.42352941 0.64313725
v 0.05223488 0.01422512 0.01260803 0.54117647 0.42352941 0.64313725
v 0.05214789 0.01420125 0.01260803 0.54117647 0.42352941 0.64313725
v 0.05206353 0.01416246 0.01260803 0.54117647 0.42352941 0.64313725
v 0.05198972 0.01411174 0.01260803 0.54117647 0.42352941 0.64313725
v 0.04926923 0.00889649 -0.01267512 0.54117647 0.42352941 0.64313725
v 0.05206090 0.01371194 -0.01267512 0.54117647 0.42352941 0.64313725
v 0.05232451 0.01397450 -0.01267512 0.54117647 0.42352941 0.64313725
v 0.07519563 0.01371194 -0.01260799 0.54117647 0.42352941 0.64313725
v 0.07493993 0.01397151 -0.01265274 0.54117647 0.42352941 0.64313725
v 0.07467368 0.01423108 -0.01260799 0.54117647 0.42352941 0.64313725
v 0.07565432 0.01371194 -0.01234196 0.54117647 0.42352941 0.64313725
v 0.07584149 0.01371194 -0.01215548 0.54117647 0.42352941 0.64313725
v 0.07599438 0.01371194 -0.01193669 0.54117647 0.42352941 0.64313725
v 0.07543552 0.01371194 -0.01249362 0.54117647 0.42352941 0.64313725
v 0.07610774 0.01380145 -0.01168806 0.54117647 0.42352941 0.64313725
v 0.07617628 0.01375670 -0.01143446 0.54117647 0.42352941 0.64313725
v 0.07617628 0.01380145 -0.01142451 0.54117647 0.42352941 0.64313725
v 0.07617628 0.01384322 -0.01140462 0.54117647 0.42352941 0.64313725
v 0.07617628 0.01388201 -0.01137727 0.54117647 0.42352941 0.64313725
v 0.07617628 0.01391483 -0.01134495 0.54117647 0.42352941 0.64313725
v 0.07617628 0.01394168 -0.01130766 0.54117647 0.42352941 0.64313725
v 0.07617628 0.01395958 -0.01126539 0.54117647 0.42352941 0.64313725
v 0.07617628 0.01397151 -0.01122064 0.54117647 0.42352941 0.64313725
v 0.07617628 0.01397450 -0.01117588 0.54117647 0.42352941 0.64313725
v 0.07617628 0.01388201 0.01137731 0.54117647 0.42352941 0.64313725
v 0.07617628 0.01384322 0.01140466 0.54117647 0.42352941 0.64313725
v 0.07617628 0.01380145 0.01142455 0.54117647 0.42352941 0.64313725
v 0.07617628 0.01375670 0.01143450 0.54117647 0.42352941 0.64313725
v 0.07617628 0.01397450 0.01117592 0.54117647 0.42352941 0.64313725
v 0.07617628 0.01397151 0.01122067 0.54117647 0.42352941 0.64313725
v 0.07617628 0.01395958 0.01126543 0.54117647 0.42352941 0.64313725
v 0.07617628 0.01394168 0.01130769 0.54117647 0.42352941 0.64313725
v 0.07617628 0.01391483 0.01134499 0.54117647 0.42352941 0.64313725
v 0.07610774 0.01380145 0.01168810 0.54117647 0.42352941 0.64313725
v 0.07599438 0.01371194 0.01193673 0.54117647 0.42352941 0.64313725
v 0.07584149 0.01371194 0.01215552 0.54117647 0.42352941 0.64313725
v 0.07565432 0.01371194 0.01234199 0.54117647 0.42352941 0.64313725
v 0.07543552 0.01371194 0.01249366 0.54117647 0.42352941 0.64313725
v 0.07519563 0.01371194 0.01260803 0.54117647 0.42352941 0.64313725
v 0.07519563 0.01395958 0.01258565 0.54117647 0.42352941 0.64313725
v 0.07493993 0.01422512 0.01258565 0.54117647 0.42352941 0.64313725
v 0.07467368 0.01423108 0.01260803 0.54117647 0.42352941 0.64313725
v 0.04926923 0.00960956 0.01234199 0.54117647 0.42352941 0.64313725
v 0.05122788 0.01411174 0.01215552 0.54117647 0.42352941 0.64313725
v 0.05118306 0.01437131 0.01193673 0.54117647 0.42352941 0.64313725
v 0.05108553 0.01416246 0.01193673 0.54117647 0.42352941 0.64313725
v 0.05157585 0.01434147 0.01234199 0.54117647 0.42352941 0.64313725
v 0.05143086 0.01446082 0.01215552 0.54117647 0.42352941 0.64313725
v 0.05183683 0.01429374 0.01249366 0.54117647 0.42352941 0.64313725
v 0.05169447 0.01446082 0.01234199 0.54117647 0.42352941 0.64313725
v 0.06349909 0.01435341 0.01255084 0.54117647 0.42352941 0.64313725
v 0.05232451 0.01447275 0.01249366 0.54117647 0.42352941 0.64313725
v 0.05219270 0.01446082 0.01249366 0.54117647 0.42352941 0.64313725
v 0.05206353 0.01442800 0.01249366 0.54117647 0.42352941 0.64313725
v 0.05194491 0.01437131 0.01249366 0.54117647 0.42352941 0.64313725
v 0.04926923 0.00915307 -0.01260799 0.54117647 0.42352941 0.64313725
v 0.05157585 0.01397450 -0.01247373 0.54117647 0.42352941 0.64313725
v 0.05181310 0.01397450 -0.01258561 0.54117647 0.42352941 0.64313725
v 0.05206353 0.01397450 -0.01265274 0.54117647 0.42352941 0.64313725
v 0.05232451 0.01423108 -0.01260799 0.54117647 0.42352941 0.64313725
v 0.07519563 0.01395958 -0.01258561 0.54117647 0.42352941 0.64313725
v 0.07543552 0.01394168 -0.01247373 0.54117647 0.42352941 0.64313725
v 0.07493993 0.01422512 -0.01258561 0.54117647 0.42352941 0.64313725
v 0.06349909 0.01435341 -0.01255080 0.54117647 0.42352941 0.64313725
v 0.07467368 0.01447275 -0.01249362 0.54117647 0.42352941 0.64313725
v 0.07565432 0.01391483 -0.01232455 0.54117647 0.42352941 0.64313725
v 0.07584149 0.01388201 -0.01214057 0.54117647 0.42352941 0.64313725
v 0.07599438 0.01384322 -0.01192426 0.54117647 0.42352941 0.64313725
v 0.07599438 0.01397151 -0.01189194 0.54117647 0.42352941 0.64313725
v 0.07610774 0.01388797 -0.01166568 0.54117647 0.42352941 0.64313725
v 0.07610774 0.01397151 -0.01162590 0.54117647 0.42352941 0.64313725
v 0.07610774 0.01404610 -0.01157369 0.54117647 0.42352941 0.64313725
v 0.07610774 0.01411174 -0.01150905 0.54117647 0.42352941 0.64313725
v 0.07610774 0.01416246 -0.01143446 0.54117647 0.42352941 0.64313725
v 0.07610774 0.01420125 -0.01135241 0.54117647 0.42352941 0.64313725
v 0.07610774 0.01422512 -0.01126539 0.54117647 0.42352941 0.64313725
v 0.07610774 0.01423108 -0.01117588 0.54117647 0.42352941 0.64313725
v 0.07610774 0.01404610 0.01157373 0.54117647 0.42352941 0.64313725
v 0.07610774 0.01397151 0.01162594 0.54117647 0.42352941 0.64313725
v 0.07610774 0.01388797 0.01166572 0.54117647 0.42352941 0.64313725
v 0.07610774 0.01423108 0.01117592 0.54117647 0.42352941 0.64313725
v 0.07610774 0.01422512 0.01126543 0.54117647 0.42352941 0.64313725
v 0.07610774 0.01420125 0.01135245 0.54117647 0.42352941 0.64313725
v 0.07610774 0.01416246 0.01143450 0.54117647 0.42352941 0.64313725
v 0.07610774 0.01411174 0.01150908 0.54117647 0.42352941 0.64313725
v 0.07599438 0.01397151 0.01189197 0.54117647 0.42352941 0.64313725
v 0.07599438 0.01384322 0.01192430 0.54117647 0.42352941 0.64313725
v 0.07584149 0.01388201 0.01214060 0.54117647 0.42352941 0.64313725
v 0.07565432 0.01391483 0.01232459 0.54117647 0.42352941 0.64313725
v 0.07543552 0.01394168 0.01247377 0.54117647 0.42352941 0.64313725
v 0.07519563 0.01420125 0.01252101 0.54117647 0.42352941 0.64313725
v 0.07519563 0.01442800 0.01241410 0.54117647 0.42352941 0.64313725
v 0.07493993 0.01446082 0.01247377 0.54117647 0.42352941 0.64313725
v 0.07467368 0.01447275 0.01249366 0.54117647 0.42352941 0.64313725
v 0.04926923 0.00979752 0.01215552 0.54117647 0.42352941 0.64313725
v 0.05098008 0.01420125 0.01169556 0.54117647 0.42352941 0.64313725
v 0.05131487 0.01455927 0.01193673 0.54117647 0.42352941 0.64313725
v 0.05108553 0.01442800 0.01169556 0.54117647 0.42352941 0.64313725
v 0.05157585 0.01460403 0.01215552 0.54117647 0.42352941 0.64313725
v 0.05147567 0.01472337 0.01193673 0.54117647 0.42352941 0.64313725
v 0.05183683 0.01455927 0.01234199 0.54117647 0.42352941 0.64313725
v 0.05174193 0.01472337 0.01215552 0.54117647 0.42352941 0.64313725
v 0.06349909 0.01458314 0.01241907 0.54117647 0.42352941 0.64313725
v 0.05232451 0.01469055 0.01234199 0.54117647 0.42352941 0.64313725
v 0.05215580 0.01467563 0.01234199 0.54117647 0.42352941 0.64313725
v 0.05198972 0.01463088 0.01234199 0.54117647 0.42352941 0.64313725
v 0.04926923 0.00939176 -0.01249362 0.54117647 0.42352941 0.64313725
v 0.05140450 0.01423108 -0.01227234 0.54117647 0.42352941 0.64313725
v 0.05161012 0.01423108 -0.01241406 0.54117647 0.42352941 0.64313725
v 0.05183683 0.01423108 -0.01252097 0.54117647 0.42352941 0.64313725
v 0.05207671 0.01423108 -0.01258561 0.54117647 0.42352941 0.64313725
v 0.05209517 0.01447275 -0.01247373 0.54117647 0.42352941 0.64313725
v 0.05232451 0.01447275 -0.01249362 0.54117647 0.42352941 0.64313725
v 0.07519563 0.01420125 -0.01252097 0.54117647 0.42352941 0.64313725
v 0.07543552 0.01416246 -0.01241406 0.54117647 0.42352941 0.64313725
v 0.07565432 0.01411174 -0.01227234 0.54117647 0.42352941 0.64313725
v 0.07493993 0.01446082 -0.01247373 0.54117647 0.42352941 0.64313725
v 0.07519563 0.01442800 -0.01241406 0.54117647 0.42352941 0.64313725
v 0.06349909 0.01458314 -0.01241903 0.54117647 0.42352941 0.64313725
v 0.07467368 0.01469055 -0.01234196 0.54117647 0.42352941 0.64313725
v 0.07493993 0.01467563 -0.01232455 0.54117647 0.42352941 0.64313725
v 0.07584149 0.01404610 -0.01209581 0.54117647 0.42352941 0.64313725
v 0.07584149 0.01420125 -0.01202371 0.54117647 0.42352941 0.64313725
v 0.07599438 0.01409086 -0.01183475 0.54117647 0.42352941 0.64313725
v 0.07599438 0.01420125 -0.01175768 0.54117647 0.42352941 0.64313725
v 0.07599438 0.01429374 -0.01166568 0.54117647 0.42352941 0.64313725
v 0.07599438 0.01437131 -0.01155628 0.54117647 0.42352941 0.64313725
v 0.07599438 0.01442800 -0.01143446 0.54117647 0.42352941 0.64313725
v 0.07599438 0.01446082 -0.01130766 0.54117647 0.42352941 0.64313725
v 0.07599438 0.01447275 -0.01117588 0.54117647 0.42352941 0.64313725
v 0.07599438 0.01420125 0.01175771 0.54117647 0.42352941 0.64313725
v 0.07599438 0.01409086 0.01183479 0.54117647 0.42352941 0.64313725
v 0.07599438 0.01447275 0.01117592 0.54117647 0.42352941 0.64313725
v 0.07599438 0.01446082 0.01130769 0.54117647 0.42352941 0.64313725
v 0.07599438 0.01442800 0.01143450 0.54117647 0.42352941 0.64313725
v 0.07599438 0.01437131 0.01155632 0.54117647 0.42352941 0.64313725
v 0.07599438 0.01429374 0.01166572 0.54117647 0.42352941 0.64313725
v 0.07584149 0.01420125 0.01202375 0.54117647 0.42352941 0.64313725
v 0.07584149 0.01404610 0.01209585 0.54117647 0.42352941 0.64313725
v 0.07565432 0.01411174 0.01227238 0.54117647 0.42352941 0.64313725
v 0.07543552 0.01416246 0.01241410 0.54117647 0.42352941 0.64313725
v 0.07543552 0.01437131 0.01231713 0.54117647 0.42352941 0.64313725
v 0.07519563 0.01463088 0.01227238 0.54117647 0.42352941 0.64313725
v 0.07493993 0.01467563 0.01232459 0.54117647 0.42352941 0.64313725
v 0.07467368 0.01469055 0.01234199 0.54117647 0.42352941 0.64313725
v 0.04926923 0.00994968 0.01193673 0.54117647 0.42352941 0.64313725
v 0.05091418 0.01422512 0.01143947 0.54117647 0.42352941 0.64313725
v 0.05122788 0.01463088 0.01169556 0.54117647 0.42352941 0.64313725
v 0.05102490 0.01446082 0.01143947 0.54117647 0.42352941 0.64313725
v 0.05117516 0.01467563 0.01143947 0.54117647 0.42352941 0.64313725
v 0.05166548 0.01485464 0.01193673 0.54117647 0.42352941 0.64313725
v 0.05161012 0.01495012 0.01169556 0.54117647 0.42352941 0.64313725
v 0.05140450 0.01480691 0.01169556 0.54117647 0.42352941 0.64313725
v 0.05192645 0.01480691 0.01215552 0.54117647 0.42352941 0.64313725
v 0.05187373 0.01495012 0.01193673 0.54117647 0.42352941 0.64313725
v 0.06349909 0.01478602 0.01224751 0.54117647 0.42352941 0.64313725
v 0.05232451 0.01487851 0.01215552 0.54117647 0.42352941 0.64313725
v 0.05212153 0.01486061 0.01215552 0.54117647 0.42352941 0.64313725
v 0.04926923 0.00960956 -0.01234196 0.54117647 0.42352941 0.64313725
v 0.05108553 0.01423108 -0.01189194 0.54117647 0.42352941 0.64313725
v 0.05122788 0.01423108 -0.01209581 0.54117647 0.42352941 0.64313725
v 0.05147567 0.01447275 -0.01218532 0.54117647 0.42352941 0.64313725
v 0.05166548 0.01447275 -0.01231709 0.54117647 0.42352941 0.64313725
v 0.05187373 0.01447275 -0.01241406 0.54117647 0.42352941 0.64313725
v 0.05192645 0.01469055 -0.01227234 0.54117647 0.42352941 0.64313725
v 0.05212153 0.01469055 -0.01232455 0.54117647 0.42352941 0.64313725
v 0.05232451 0.01469055 -0.01234196 0.54117647 0.42352941 0.64313725
v 0.07543552 0.01437131 -0.01231709 0.54117647 0.42352941 0.64313725
v 0.07565432 0.01429374 -0.01218532 0.54117647 0.42352941 0.64313725
v 0.07519563 0.01463088 -0.01227234 0.54117647 0.42352941 0.64313725
v 0.06349909 0.01478602 -0.01224748 0.54117647 0.42352941 0.64313725
v 0.07467368 0.01487851 -0.01215548 0.54117647 0.42352941 0.64313725
v 0.07493993 0.01486061 -0.01214057 0.54117647 0.42352941 0.64313725
v 0.07565432 0.01446082 -0.01206846 0.54117647 0.42352941 0.64313725
v 0.07584149 0.01434147 -0.01192426 0.54117647 0.42352941 0.64313725
v 0.07584149 0.01446082 -0.01180492 0.54117647 0.42352941 0.64313725
v 0.07584149 0.01455927 -0.01166568 0.54117647 0.42352941 0.64313725
v 0.07584149 0.01463088 -0.01150905 0.54117647 0.42352941 0.64313725
v 0.07584149 0.01467563 -0.01134495 0.54117647 0.42352941 0.64313725
v 0.07584149 0.01469055 -0.01117588 0.54117647 0.42352941 0.64313725
v 0.07591794 0.01458314 0.00000002 0.54117647 0.42352941 0.64313725
v 0.07584149 0.01434147 0.01192430 0.54117647 0.42352941 0.64313725
v 0.07584149 0.01469055 0.01117592 0.54117647 0.42352941 0.64313725
v 0.07584149 0.01467563 0.01134499 0.54117647 0.42352941 0.64313725
v 0.07584149 0.01463088 0.01150908 0.54117647 0.42352941 0.64313725
v 0.07584149 0.01455927 0.01166572 0.54117647 0.42352941 0.64313725
v 0.07584149 0.01446082 0.01180495 0.54117647 0.42352941 0.64313725
v 0.07565432 0.01446082 0.01206850 0.54117647 0.42352941 0.64313725
v 0.07565432 0.01429374 0.01218536 0.54117647 0.42352941 0.64313725
v 0.07543552 0.01455927 0.01218536 0.54117647 0.42352941 0.64313725
v 0.07543552 0.01472337 0.01202375 0.54117647 0.42352941 0.64313725
v 0.07519563 0.01480691 0.01209585 0.54117647 0.42352941 0.64313725
v 0.07493993 0.01486061 0.01214060 0.54117647 0.42352941 0.64313725
v 0.07467368 0.01487851 0.01215552 0.54117647 0.42352941 0.64313725
v 0.04926923 0.01006306 0.01169556 0.54117647 0.42352941 0.64313725
v 0.05100644 0.01447275 0.01117592 0.54117647 0.42352941 0.64313725
v 0.05089309 0.01423108 0.01117592 0.54117647 0.42352941 0.64313725
v 0.04926923 0.01013168 0.01143947 0.54117647 0.42352941 0.64313725
v 0.05135968 0.01486061 0.01143947 0.54117647 0.42352941 0.64313725
v 0.05115670 0.01469055 0.01117592 0.54117647 0.42352941 0.64313725
v 0.05183683 0.01505753 0.01169556 0.54117647 0.42352941 0.64313725
v 0.05157585 0.01500979 0.01143947 0.54117647 0.42352941 0.64313725
v 0.05209517 0.01500979 0.01193673 0.54117647 0.42352941 0.64313725
v 0.06349909 0.01495609 0.01204612 0.54117647 0.42352941 0.64313725
v 0.05232451 0.01503068 0.01193673 0.54117647 0.42352941 0.64313725
v 0.04926923 0.00979752 -0.01215548 0.54117647 0.42352941 0.64313725
v 0.05098008 0.01423108 -0.01166568 0.54117647 0.42352941 0.64313725
v 0.05108553 0.01447275 -0.01162590 0.54117647 0.42352941 0.64313725
v 0.05118306 0.01447275 -0.01183475 0.54117647 0.42352941 0.64313725
v 0.05131487 0.01447275 -0.01202371 0.54117647 0.42352941 0.64313725
v 0.05143086 0.01469055 -0.01192426 0.54117647 0.42352941 0.64313725
v 0.05157585 0.01469055 -0.01206846 0.54117647 0.42352941 0.64313725
v 0.05174193 0.01469055 -0.01218532 0.54117647 0.42352941 0.64313725
v 0.05198972 0.01487851 -0.01209581 0.54117647 0.42352941 0.64313725
v 0.05215580 0.01487851 -0.01214057 0.54117647 0.42352941 0.64313725
v 0.05232451 0.01487851 -0.01215548 0.54117647 0.42352941 0.64313725
v 0.07543552 0.01455927 -0.01218532 0.54117647 0.42352941 0.64313725
v 0.07519563 0.01480691 -0.01209581 0.54117647 0.42352941 0.64313725
v 0.07543552 0.01472337 -0.01202371 0.54117647 0.42352941 0.64313725
v 0.06349909 0.01495609 -0.01204609 0.54117647 0.42352941 0.64313725
v 0.07467368 0.01503068 -0.01193669 0.54117647 0.42352941 0.64313725
v 0.07493993 0.01500979 -0.01192426 0.54117647 0.42352941 0.64313725
v 0.07519563 0.01495012 -0.01189194 0.54117647 0.42352941 0.64313725
v 0.07565432 0.01460403 -0.01192426 0.54117647 0.42352941 0.64313725
v 0.07565432 0.01472337 -0.01175768 0.54117647 0.42352941 0.64313725
v 0.07565432 0.01480691 -0.01157369 0.54117647 0.42352941 0.64313725
v 0.07565432 0.01486061 -0.01137727 0.54117647 0.42352941 0.64313725
v 0.07565432 0.01487851 -0.01117588 0.54117647 0.42352941 0.64313725
v 0.07574922 0.01478602 0.00000002 0.54117647 0.42352941 0.64313725
v 0.07565432 0.01487851 0.01117592 0.54117647 0.42352941 0.64313725
v 0.07565432 0.01486061 0.01137731 0.54117647 0.42352941 0.64313725
v 0.07565432 0.01480691 0.01157373 0.54117647 0.42352941 0.64313725
v 0.07565432 0.01472337 0.01175771 0.54117647 0.42352941 0.64313725
v 0.07565432 0.01460403 0.01192430 0.54117647 0.42352941 0.64313725
v 0.07543552 0.01485464 0.01183479 0.54117647 0.42352941 0.64313725
v 0.07519563 0.01495012 0.01189197 0.54117647 0.42352941 0.64313725
v 0.07493993 0.01500979 0.01192430 0.54117647 0.42352941 0.64313725
v 0.07467368 0.01503068 0.01193673 0.54117647 0.42352941 0.64313725
v 0.05100644 0.01447275 -0.01117588 0.54117647 0.42352941 0.64313725
v 0.05094845 0.01435341 0.00000002 0.54117647 0.42352941 0.64313725
v 0.05089309 0.01423108 -0.01117588 0.54117647 0.42352941 0.64313725
v 0.04926923 0.01015555 0.01117095 0.54117647 0.42352941 0.64313725
v 0.05156267 0.01503068 0.01117592 0.54117647 0.42352941 0.64313725
v 0.05134650 0.01487851 0.01117592 0.54117647 0.42352941 0.64313725
v 0.05125160 0.01478602 0.00000002 0.54117647 0.42352941 0.64313725
v 0.05115670 0.01469055 -0.01117588 0.54117647 0.42352941 0.64313725
v 0.05207671 0.01512018 0.01169556 0.54117647 0.42352941 0.64313725
v 0.05206353 0.01518880 0.01143947 0.54117647 0.42352941 0.64313725
v 0.05181310 0.01512018 0.01143947 0.54117647 0.42352941 0.64313725
v 0.05180520 0.01514405 0.01117592 0.54117647 0.42352941 0.64313725
v 0.05232451 0.01514405 0.01169556 0.54117647 0.42352941 0.64313725
v 0.06349909 0.01508736 0.01181738 0.54117647 0.42352941 0.64313725
v 0.04926923 0.00994968 -0.01193669 0.54117647 0.42352941 0.64313725
v 0.05091418 0.01423108 -0.01142451 0.54117647 0.42352941 0.64313725
v 0.05102490 0.01447275 -0.01140462 0.54117647 0.42352941 0.64313725
v 0.05122788 0.01469055 -0.01157369 0.54117647 0.42352941 0.64313725
v 0.05131487 0.01469055 -0.01175768 0.54117647 0.42352941 0.64313725
v 0.05147567 0.01487851 -0.01166568 0.54117647 0.42352941 0.64313725
v 0.05157585 0.01487851 -0.01180492 0.54117647 0.42352941 0.64313725
v 0.05169447 0.01487851 -0.01192426 0.54117647 0.42352941 0.64313725
v 0.05183683 0.01487851 -0.01202371 0.54117647 0.42352941 0.64313725
v 0.05206353 0.01503068 -0.01189194 0.54117647 0.42352941 0.64313725
v 0.05219270 0.01503068 -0.01192426 0.54117647 0.42352941 0.64313725
v 0.05232451 0.01503068 -0.01193669 0.54117647 0.42352941 0.64313725
v 0.07543552 0.01485464 -0.01183475 0.54117647 0.42352941 0.64313725
v 0.06349909 0.01508736 -0.01181735 0.54117647 0.42352941 0.64313725
v 0.07467368 0.01514405 -0.01169552 0.54117647 0.42352941 0.64313725
v 0.07493993 0.01512018 -0.01168806 0.54117647 0.42352941 0.64313725
v 0.07519563 0.01505753 -0.01166568 0.54117647 0.42352941 0.64313725
v 0.07543552 0.01495012 -0.01162590 0.54117647 0.42352941 0.64313725
v 0.07543552 0.01500979 -0.01140462 0.54117647 0.42352941 0.64313725
v 0.07543552 0.01503068 -0.01117588 0.54117647 0.42352941 0.64313725
v 0.07554624 0.01495609 0.00000002 0.54117647 0.42352941 0.64313725
v 0.07543552 0.01503068 0.01117592 0.54117647 0.42352941 0.64313725
v 0.07543552 0.01500979 0.01140466 0.54117647 0.42352941 0.64313725
v 0.07543552 0.01495012 0.01162594 0.54117647 0.42352941 0.64313725
v 0.07519563 0.01505753 0.01166572 0.54117647 0.42352941 0.64313725
v 0.07493993 0.01512018 0.01168810 0.54117647 0.42352941 0.64313725
v 0.07467368 0.01514405 0.01169556 0.54117647 0.42352941 0.64313725
v 0.04926923 0.01013168 -0.01143943 0.54117647 0.42352941 0.64313725
v 0.04926923 0.01015555 -0.01117588 0.54117647 0.42352941 0.64313725
v 0.05156267 0.01503068 -0.01117588 0.54117647 0.42352941 0.64313725
v 0.05145459 0.01495609 0.00000002 0.54117647 0.42352941 0.64313725
v 0.05134650 0.01487851 -0.01117588 0.54117647 0.42352941 0.64313725
v 0.05135968 0.01487851 -0.01134495 0.54117647 0.42352941 0.64313725
v 0.05117516 0.01469055 -0.01137727 0.54117647 0.42352941 0.64313725
v 0.05232451 0.01521267 0.01143947 0.54117647 0.42352941 0.64313725
v 0.05206090 0.01521267 0.01117592 0.54117647 0.42352941 0.64313725
v 0.05180520 0.01514405 -0.01117588 0.54117647 0.42352941 0.64313725
v 0.04926923 0.01006306 -0.01169552 0.54117647 0.42352941 0.64313725
v 0.05140450 0.01487851 -0.01150905 0.54117647 0.42352941 0.64313725
v 0.05166548 0.01503068 -0.01155628 0.54117647 0.42352941 0.64313725
v 0.05174193 0.01503068 -0.01166568 0.54117647 0.42352941 0.64313725
v 0.05183683 0.01503068 -0.01175768 0.54117647 0.42352941 0.64313725
v 0.05194491 0.01503068 -0.01183475 0.54117647 0.42352941 0.64313725
v 0.05206353 0.01514405 -0.01162590 0.54117647 0.42352941 0.64313725
v 0.05214789 0.01514405 -0.01166568 0.54117647 0.42352941 0.64313725
v 0.05223488 0.01514405 -0.01168806 0.54117647 0.42352941 0.64313725
v 0.05232451 0.01514405 -0.01169552 0.54117647 0.42352941 0.64313725
v 0.07493993 0.01518880 -0.01143446 0.54117647 0.42352941 0.64313725
v 0.07467368 0.01521267 -0.01143943 0.54117647 0.42352941 0.64313725
v 0.07519563 0.01512018 -0.01142451 0.54117647 0.42352941 0.64313725
v 0.07519563 0.01514405 -0.01117588 0.54117647 0.42352941 0.64313725
v 0.07531690 0.01508736 0.00000002 0.54117647 0.42352941 0.64313725
v 0.07519563 0.01514405 0.01117592 0.54117647 0.42352941 0.64313725
v 0.07519563 0.01512018 0.01142455 0.54117647 0.42352941 0.64313725
v 0.07493993 0.01518880 0.01143450 0.54117647 0.42352941 0.64313725
v 0.07467368 0.01521267 0.01143947 0.54117647 0.42352941 0.64313725
v 0.05157585 0.01503068 -0.01130766 0.54117647 0.42352941 0.64313725
v 0.05181310 0.01514405 -0.01126539 0.54117647 0.42352941 0.64313725
v 0.05161012 0.01503068 -0.01143446 0.54117647 0.42352941 0.64313725
v 0.05232451 0.01523654 0.01117592 0.54117647 0.42352941 0.64313725
v 0.05206090 0.01521267 -0.01117588 0.54117647 0.42352941 0.64313725
v 0.05206353 0.01521267 -0.01122064 0.54117647 0.42352941 0.64313725
v 0.05187373 0.01514405 -0.01143446 0.54117647 0.42352941 0.64313725
v 0.05192645 0.01514405 -0.01150905 0.54117647 0.42352941 0.64313725
v 0.05198972 0.01514405 -0.01157369 0.54117647 0.42352941 0.64313725
v 0.05219270 0.01521267 -0.01140462 0.54117647 0.42352941 0.64313725
v 0.05223488 0.01521267 -0.01142451 0.54117647 0.42352941 0.64313725
v 0.05227970 0.01521267 -0.01143446 0.54117647 0.42352941 0.64313725
v 0.05232451 0.01521267 -0.01143943 0.54117647 0.42352941 0.64313725
v 0.07493993 0.01521267 -0.01117588 0.54117647 0.42352941 0.64313725
v 0.07467368 0.01523654 -0.01117588 0.54117647 0.42352941 0.64313725
v 0.07493993 0.01521267 0.01117592 0.54117647 0.42352941 0.64313725
v 0.07467368 0.01523654 0.01117592 0.54117647 0.42352941 0.64313725
v 0.05183683 0.01514405 -0.01135241 0.54117647 0.42352941 0.64313725
v 0.05232451 0.01523654 -0.01117588 0.54117647 0.42352941 0.64313725
v 0.05207671 0.01521267 -0.01126539 0.54117647 0.42352941 0.64313725
v 0.05209517 0.01521267 -0.01130766 0.54117647 0.42352941 0.64313725
v 0.05212153 0.01521267 -0.01134495 0.54117647 0.42352941 0.64313725
v 0.05215580 0.01521267 -0.01137727 0.54117647 0.42352941 0.64313725
v 0.07480812 0.01522461 0.00000002 0.54117647 0.42352941 0.64313725
f 1 2 7
f 1 7 15
f 1 15 29
f 1 29 28
f 1 28 46
f 1 46 65
f 1 65 64
f 1 64 89
f 1 89 88
f 1 88 124
f 1 124 158
f 1 158 194
f 1 194 225
f 1 225 259
f 1 259 293
f 1 293 326
f 1 326 374
f 1 374 426
f 1 426 477
f 1 477 526
f 1 526 529
f 1 529 573
f 1 573 612
f 1 612 611
f 1 611 621
f 1 621 584
f 1 584 537
f 1 537 490
f 1 490 438
f 1 438 387
f 1 387 336
f 1 336 302
f 1 302 263
f 1 263 226
f 1 226 195
f 1 195 159
f 1 159 125
f 1 125 91
f 1 91 90
f 1 90 67
f 1 67 66
f 1 66 47
f 1 47 30
f 1 30 16
f 1 16 8
f 1 8 3
f 1 3 4
f 1 4 5
f 1 5 2
f 2 5 6
f 2 6 7
f 3 8 4
f 4 8 9
f 4 9 10
f 4 10 11
f 4 11 12
f 4 12 5
f 5 12 13
f 5 13 6
f 6 13 14
f 6 14 15
f 6 15 7
f 8 16 9
f 9 16 17
f 9 17 10
f 10 17 18
f 10 18 19
f 10 19 20
f 10 20 21
f 10 21 11
f 11 21 22
f 11 22 12
f 12 22 13
f 13 22 23
f 13 23 24
f 13 24 25
f 13 25 14
f 14 25 26
f 14 26 27
f 14 27 28
f 14 28 29
f 14 29 15
f 16 30 17
f 17 30 31
f 17 31 32
f 17 32 18
f 18 32 19
f 19 33 20
f 19 32 34
f 19 34 35
f 19 35 36
f 19 36 33
f 20 33 21
f 21 33 37
f 21 37 38
f 21 38 22
f 22 38 39
f 22 39 23
f 23 39 24
f 24 39 40
f 24 40 41
f 24 41 42
f 24 42 26
f 24 26 25
f 26 42 43
f 26 43 44
f 26 44 45
f 26 45 27
f 27 45 28
f 28 45 46
f 30 47 31
f 31 47 48
f 31 48 32
f 32 48 49
f 32 49 50
f 32 50 34
f 33 36 51
f 33 51 52
f 33 52 53
f 33 53 37
f 34 50 35
f 35 50 54
f 35 54 55
f 35 55 51
f 35 51 36
f 37 53 56
f 37 56 38
f 38 56 39
f 39 56 57
f 39 57 58
f 39 58 40
f 40 58 41
f 41 58 59
f 41 59 60
f 41 60 43
f 41 43 42
f 43 60 61
f 43 61 62
f 43 62 44
f 44 62 45
f 45 62 63
f 45 63 64
f 45 64 65
f 45 65 46
f 47 66 48
f 48 66 67
f 48 67 68
f 48 68 69
f 48 69 49
f 49 69 50
f 50 69 70
f 50 70 54
f 51 55 71
f 51 71 72
f 51 72 52
f 52 72 73
f 52 73 74
f 52 74 53
f 53 74 78
f 53 78 56
f 54 70 75
f 54 75 76
f 54 76 77
f 54 77 55
f 55 77 71
f 56 78 57
f 57 78 79
f 57 79 80
f 57 80 58
f 58 80 81
f 58 81 59
f 59 81 82
f 59 82 60
f 60 82 83
f 60 83 84
f 60 84 61
f 61 84 85
f 61 85 62
f 62 85 86
f 62 86 63
f 63 86 87
f 63 87 88
f 63 88 89
f 63 89 64
f 67 90 68
f 68 90 91
f 68 91 92
f 68 92 93
f 68 93 69
f 69 93 94
f 69 94 70
f 70 94 75
f 71 95 72
f 71 77 96
f 71 96 97
f 71 97 98
f 71 98 99
f 71 99 100
f 71 100 95
f 72 95 101
f 72 101 102
f 72 102 73
f 73 102 103
f 73 103 74
f 74 103 104
f 74 104 108
f 74 108 78
f 75 94 105
f 75 105 106
f 75 106 76
f 76 106 107
f 76 107 77
f 77 107 96
f 78 108 109
f 78 109 79
f 79 110 80
f 79 109 110
f 80 110 111
f 80 111 112
f 80 112 81
f 81 113 114
f 81 114 82
f 81 112 115
f 81 115 116
f 81 116 117
f 81 117 113
f 82 114 118
f 82 118 83
f 83 118 119
f 83 119 84
f 84 119 120
f 84 120 85
f 85 120 121
f 85 121 86
f 86 121 122
f 86 122 87
f 87 122 123
f 87 123 88
f 88 123 124
f 91 125 126
f 91 126 92
f 92 126 127
f 92 127 93
f 93 127 128
f 93 128 94
f 94 128 105
f 95 100 129
f 95 129 101
f 96 107 97
f 97 107 130
f 97 130 131
f 97 131 132
f 97 132 98
f 98 132 133
f 98 133 99
f 99 133 100
f 100 133 129
f 101 129 103
f 101 103 102
f 103 129 134
f 103 134 104
f 104 134 135
f 104 135 136
f 104 136 108
f 105 128 137
f 105 137 138
f 105 138 106
f 106 139 107
f 106 138 140
f 106 140 139
f 107 139 141
f 107 141 130
f 108 136 142
f 108 142 143
f 108 143 109
f 109 143 144
f 109 144 111
f 109 111 110
f 111 144 112
f 112 144 115
f 113 145 118
f 113 118 114
f 113 117 146
f 113 146 147
f 113 147 145
f 115 144 148
f 115 148 116
f 116 148 146
f 116 146 117
f 118 149 119
f 118 145 150
f 118 150 149
f 119 149 151
f 119 151 152
f 119 152 120
f 120 152 153
f 120 153 121
f 121 153 154
f 121 154 155
f 121 155 122
f 122 155 156
f 122 156 157
f 122 157 123
f 123 157 158
f 123 158 124
f 125 159 126
f 126 159 160
f 126 160 127
f 127 160 161
f 127 161 162
f 127 162 128
f 128 162 163
f 128 163 137
f 129 133 164
f 129 164 165
f 129 165 166
f 129 166 134
f 130 141 131
f 131 167 168
f 131 168 169
f 131 169 170
f 131 170 171
f 131 171 132
f 131 141 167
f 132 171 164
f 132 164 133
f 134 166 135
f 135 166 172
f 135 172 173
f 135 173 174
f 135 174 142
f 135 142 136
f 137 163 138
f 138 163 175
f 138 175 177
f 138 177 140
f 139 140 176
f 139 176 168
f 139 168 141
f 140 177 210
f 140 210 178
f 140 178 176
f 141 168 167
f 142 174 179
f 142 179 180
f 142 180 181
f 142 181 143
f 143 181 144
f 144 181 182
f 144 182 183
f 144 183 148
f 145 147 150
f 146 148 183
f 146 183 184
f 146 184 147
f 147 184 185
f 147 185 186
f 147 186 187
f 147 187 188
f 147 188 150
f 149 189 151
f 149 150 187
f 149 187 189
f 150 188 187
f 151 189 190
f 151 190 222
f 151 222 191
f 151 191 192
f 151 192 152
f 152 192 154
f 152 154 153
f 154 192 193
f 154 193 155
f 155 193 156
f 156 193 157
f 157 193 194
f 157 194 158
f 159 195 160
f 160 195 196
f 160 196 161
f 161 196 162
f 162 196 163
f 163 196 175
f 164 171 197
f 164 197 165
f 165 197 198
f 165 198 172
f 165 172 166
f 168 199 200
f 168 200 169
f 168 176 199
f 169 200 201
f 169 201 170
f 170 201 202
f 170 202 203
f 170 203 171
f 171 203 204
f 171 204 197
f 172 198 205
f 172 205 206
f 172 206 207
f 172 207 173
f 173 207 208
f 173 208 179
f 173 179 174
f 175 196 177
f 176 178 199
f 177 196 209
f 177 209 210
f 178 210 231
f 178 231 199
f 179 208 211
f 179 211 180
f 180 211 212
f 180 212 213
f 180 213 214
f 180 214 182
f 180 182 181
f 182 214 215
f 182 215 183
f 183 215 184
f 184 215 216
f 184 216 217
f 184 217 185
f 185 217 218
f 185 218 219
f 185 219 186
f 186 219 220
f 186 220 221
f 186 221 187
f 187 221 189
f 189 221 190
f 190 221 255
f 190 255 222
f 191 193 192
f 191 222 223
f 191 223 193
f 193 223 224
f 193 224 194
f 194 224 225
f 195 226 196
f 196 227 228
f 196 228 209
f 196 226 229
f 196 229 227
f 197 204 230
f 197 230 198
f 198 230 205
f 199 231 233
f 199 233 200
f 200 232 201
f 200 233 234
f 200 234 232
f 201 232 235
f 201 235 202
f 202 235 236
f 202 236 237
f 202 237 203
f 203 237 204
f 204 237 238
f 204 238 230
f 205 230 239
f 205 239 206
f 206 239 240
f 206 240 207
f 207 240 241
f 207 241 242
f 207 242 211
f 207 211 208
f 209 228 243
f 209 243 231
f 209 231 210
f 211 242 244
f 211 244 245
f 211 245 212
f 212 245 246
f 212 246 213
f 213 246 247
f 213 247 214
f 214 247 215
f 215 247 216
f 216 247 248
f 216 248 249
f 216 249 217
f 217 249 218
f 218 249 250
f 218 250 251
f 218 251 219
f 219 251 252
f 219 252 220
f 220 252 253
f 220 253 254
f 220 254 255
f 220 255 221
f 222 255 256
f 222 256 223
f 223 256 258
f 223 258 224
f 224 257 225
f 224 258 292
f 224 292 260
f 224 260 257
f 225 257 260
f 225 260 261
f 225 261 262
f 225 262 259
f 226 263 264
f 226 264 229
f 227 243 228
f 227 229 243
f 229 264 304
f 229 304 265
f 229 265 266
f 229 266 267
f 229 267 268
f 229 268 234
f 229 234 233
f 229 233 243
f 230 238 269
f 230 269 270
f 230 270 239
f 231 243 233
f 232 234 235
f 234 268 235
f 235 268 267
f 235 267 271
f 235 271 236
f 236 271 272
f 236 272 273
f 236 273 237
f 237 273 274
f 237 274 269
f 237 269 238
f 239 270 275
f 239 275 240
f 240 275 276
f 240 276 241
f 241 276 277
f 241 277 278
f 241 278 244
f 241 244 242
f 244 278 279
f 244 279 280
f 244 280 245
f 245 280 281
f 245 281 246
f 246 281 282
f 246 282 247
f 247 282 283
f 247 283 248
f 248 283 249
f 249 283 284
f 249 284 285
f 249 285 250
f 250 285 286
f 250 286 287
f 250 287 251
f 251 287 288
f 251 288 289
f 251 289 253
f 251 253 252
f 253 289 258
f 253 258 254
f 254 258 256
f 254 256 255
f 258 289 288
f 258 288 290
f 258 290 291
f 258 291 323
f 258 323 292
f 259 262 294
f 259 294 295
f 259 295 293
f 260 292 325
f 260 325 296
f 260 296 261
f 261 296 297
f 261 297 298
f 261 298 299
f 261 299 300
f 261 300 301
f 261 301 262
f 262 301 294
f 263 302 303
f 263 303 264
f 264 303 305
f 264 305 306
f 264 306 304
f 265 307 272
f 265 272 266
f 265 304 339
f 265 339 307
f 266 272 267
f 267 272 271
f 269 274 308
f 269 308 309
f 269 309 310
f 269 310 270
f 270 310 275
f 272 307 311
f 272 311 273
f 273 311 308
f 273 308 274
f 275 310 344
f 275 344 312
f 275 312 313
f 275 313 276
f 276 313 314
f 276 314 277
f 277 314 315
f 277 315 279
f 277 279 278
f 279 315 316
f 279 316 280
f 280 316 318
f 280 318 281
f 281 317 282
f 281 318 366
f 281 366 317
f 282 317 283
f 283 317 319
f 283 319 320
f 283 320 284
f 284 320 285
f 285 320 321
f 285 321 286
f 286 288 287
f 286 321 322
f 286 322 291
f 286 291 290
f 286 290 288
f 291 322 370
f 291 370 323
f 292 323 324
f 292 324 325
f 293 295 327
f 293 327 328
f 293 328 326
f 294 301 329
f 294 329 330
f 294 330 295
f 295 330 327
f 296 325 373
f 296 373 331
f 296 331 332
f 296 332 297
f 297 332 298
f 298 332 333
f 298 333 299
f 299 333 334
f 299 334 335
f 299 335 300
f 300 335 301
f 301 335 329
f 302 336 337
f 302 337 303
f 303 337 338
f 303 338 305
f 304 306 340
f 304 340 339
f 305 338 306
f 306 338 391
f 306 391 341
f 306 341 340
f 307 339 345
f 307 345 311
f 308 311 345
f 308 345 342
f 308 342 343
f 308 343 309
f 309 343 344
f 309 344 310
f 312 344 346
f 312 346 313
f 313 346 347
f 313 347 314
f 314 347 348
f 314 348 349
f 314 349 350
f 314 350 351
f 314 351 352
f 314 352 353
f 314 353 354
f 314 354 355
f 314 355 360
f 314 360 315
f 315 356 357
f 315 357 358
f 315 358 359
f 315 359 316
f 315 360 361
f 315 361 362
f 315 362 363
f 315 363 364
f 315 364 356
f 316 359 365
f 316 365 318
f 317 366 367
f 317 367 319
f 318 365 366
f 319 367 368
f 319 368 320
f 320 368 369
f 320 369 321
f 321 369 370
f 321 370 322
f 323 370 324
f 324 370 371
f 324 371 372
f 324 372 373
f 324 373 325
f 326 328 375
f 326 375 376
f 326 376 377
f 326 377 374
f 327 330 378
f 327 378 379
f 327 379 328
f 328 379 376
f 328 376 375
f 329 335 330
f 330 335 380
f 330 380 381
f 330 381 378
f 331 373 382
f 331 382 383
f 331 383 332
f 332 383 384
f 332 384 385
f 332 385 333
f 333 385 334
f 334 385 386
f 334 386 335
f 335 386 380
f 336 387 388
f 336 388 389
f 336 389 390
f 336 390 337
f 337 390 338
f 338 390 391
f 339 340 392
f 339 392 393
f 339 393 345
f 340 341 394
f 340 394 392
f 341 391 395
f 341 395 396
f 341 396 394
f 342 345 397
f 342 397 343
f 343 397 398
f 343 398 344
f 344 398 399
f 344 399 346
f 345 393 397
f 346 399 400
f 346 400 401
f 346 401 348
f 346 348 347
f 348 401 402
f 348 402 349
f 349 402 403
f 349 403 350
f 350 403 404
f 350 404 351
f 351 404 352
f 352 404 405
f 352 405 406
f 352 406 353
f 353 406 407
f 353 407 354
f 354 407 408
f 354 408 355
f 355 408 412
f 355 412 360
f 356 364 416
f 356 416 409
f 356 409 357
f 357 409 410
f 357 410 411
f 357 411 358
f 358 365 359
f 358 411 365
f 360 412 413
f 360 413 361
f 361 413 362
f 362 413 414
f 362 414 363
f 363 414 415
f 363 415 416
f 363 416 364
f 365 411 417
f 365 417 418
f 365 418 366
f 366 418 419
f 366 419 367
f 367 419 420
f 367 420 368
f 368 420 369
f 369 420 421
f 369 421 370
f 370 421 371
f 371 421 422
f 371 422 372
f 372 422 423
f 372 423 424
f 372 424 425
f 372 425 373
f 373 425 382
f 374 377 427
f 374 427 426
f 376 379 428
f 376 428 429
f 376 429 377
f 377 429 427
f 378 381 379
f 379 381 430
f 379 430 431
f 379 431 428
f 380 386 381
f 381 386 432
f 381 432 433
f 381 433 430
f 382 425 383
f 383 425 434
f 383 434 435
f 383 435 436
f 383 436 384
f 384 436 385
f 385 436 437
f 385 437 432
f 385 432 386
f 387 438 439
f 387 439 440
f 387 440 388
f 388 440 441
f 388 441 389
f 389 441 442
f 389 442 390
f 390 442 391
f 391 442 443
f 391 443 444
f 391 444 395
f 392 394 445
f 392 445 393
f 393 445 446
f 393 446 447
f 393 447 397
f 394 396 448
f 394 448 449
f 394 449 445
f 395 444 396
f 396 444 450
f 396 450 451
f 396 451 452
f 396 452 448
f 397 447 398
f 398 447 453
f 398 453 400
f 398 400 399
f 400 453 454
f 400 454 455
f 400 455 402
f 400 402 401
f 402 455 456
f 402 456 403
f 403 456 404
f 404 456 457
f 404 457 458
f 404 458 405
f 405 458 406
f 406 458 459
f 406 459 407
f 407 459 460
f 407 460 461
f 407 461 408
f 408 461 464
f 408 464 412
f 409 416 462
f 409 462 410
f 410 462 463
f 410 463 417
f 410 417 411
f 412 464 413
f 413 464 465
f 413 465 466
f 413 466 414
f 414 466 467
f 414 467 415
f 415 467 416
f 416 467 468
f 416 468 462
f 417 463 469
f 417 469 470
f 417 470 419
f 417 419 418
f 419 470 471
f 419 471 420
f 420 471 421
f 421 471 472
f 421 472 422
f 422 473 423
f 422 472 473
f 423 473 474
f 423 474 475
f 423 475 424
f 424 475 425
f 425 475 476
f 425 476 434
f 426 427 478
f 426 478 477
f 427 429 478
f 428 431 479
f 428 479 429
f 429 480 478
f 429 479 481
f 429 481 480
f 430 433 431
f 431 433 482
f 431 482 483
f 431 483 484
f 431 484 479
f 432 437 433
f 433 437 485
f 433 485 486
f 433 486 482
f 434 476 435
f 435 476 487
f 435 487 488
f 435 488 489
f 435 489 436
f 436 489 437
f 437 489 485
f 438 490 491
f 438 491 492
f 438 492 439
f 439 492 493
f 439 493 494
f 439 494 440
f 440 494 441
f 441 494 495
f 441 495 443
f 441 443 442
f 443 495 496
f 443 496 497
f 443 497 444
f 444 497 498
f 444 498 450
f 445 449 499
f 445 499 446
f 446 499 447
f 447 499 500
f 447 500 454
f 447 454 453
f 448 452 449
f 449 452 501
f 449 501 499
f 450 498 451
f 451 498 502
f 451 502 503
f 451 503 452
f 452 503 504
f 452 504 501
f 454 500 505
f 454 505 506
f 454 506 456
f 454 456 455
f 456 506 457
f 457 506 507
f 457 507 458
f 458 507 508
f 458 508 459
f 459 508 509
f 459 509 510
f 459 510 460
f 460 510 461
f 461 510 511
f 461 511 512
f 461 512 464
f 462 468 513
f 462 513 469
f 462 469 463
f 464 512 514
f 464 514 515
f 464 515 465
f 465 515 466
f 466 515 516
f 466 516 517
f 466 517 467
f 467 517 518
f 467 518 468
f 468 518 513
f 469 513 519
f 469 519 520
f 469 520 471
f 469 471 470
f 471 520 473
f 471 473 472
f 473 520 519
f 473 519 521
f 473 521 474
f 474 521 522
f 474 522 523
f 474 523 524
f 474 524 475
f 475 524 525
f 475 525 476
f 476 525 487
f 477 478 526
f 478 480 527
f 478 527 528
f 478 528 529
f 478 529 526
f 479 484 530
f 479 530 481
f 480 481 531
f 480 531 527
f 481 530 531
f 482 486 532
f 482 532 483
f 483 530 484
f 483 532 533
f 483 533 530
f 485 489 486
f 486 489 534
f 486 534 532
f 487 525 488
f 488 525 535
f 488 535 536
f 488 536 489
f 489 536 534
f 490 537 538
f 490 538 491
f 491 538 539
f 491 539 540
f 491 540 541
f 491 541 492
f 492 541 493
f 493 541 542
f 493 542 543
f 493 543 544
f 493 544 494
f 494 544 496
f 494 496 495
f 496 544 592
f 496 592 545
f 496 545 546
f 496 546 497
f 497 546 547
f 497 547 498
f 498 547 502
f 499 501 548
f 499 548 505
f 499 505 500
f 501 504 549
f 501 549 550
f 501 550 548
f 502 547 503
f 503 547 551
f 503 551 552
f 503 552 504
f 504 552 553
f 504 553 554
f 504 554 549
f 505 507 506
f 505 548 550
f 505 550 555
f 505 555 507
f 507 555 556
f 507 556 508
f 508 556 509
f 509 556 557
f 509 557 558
f 509 558 510
f 510 558 559
f 510 559 511
f 511 560 514
f 511 514 512
f 511 559 560
f 513 518 519
f 514 560 561
f 514 561 515
f 515 561 562
f 515 562 516
f 516 562 563
f 516 563 564
f 516 564 517
f 517 564 518
f 518 564 565
f 518 565 519
f 519 565 522
f 519 522 521
f 522 565 564
f 522 564 566
f 522 566 567
f 522 567 523
f 523 567 524
f 524 567 568
f 524 568 569
f 524 569 525
f 525 569 535
f 527 531 577
f 527 577 570
f 527 570 571
f 527 571 528
f 528 571 572
f 528 572 612
f 528 612 573
f 528 573 529
f 530 533 574
f 530 574 575
f 530 575 531
f 531 576 577
f 531 575 576
f 532 534 578
f 532 578 579
f 532 579 580
f 532 580 533
f 533 580 581
f 533 581 574
f 534 536 582
f 534 582 578
f 535 569 536
f 536 569 583
f 536 583 582
f 537 584 538
f 538 585 586
f 538 586 539
f 538 584 585
f 539 586 587
f 539 587 540
f 540 587 588
f 540 588 542
f 540 542 541
f 542 588 589
f 542 589 590
f 542 590 591
f 542 591 543
f 543 591 544
f 544 591 592
f 545 592 593
f 545 593 546
f 546 593 594
f 546 594 595
f 546 595 547
f 547 595 551
f 549 554 550
f 550 556 555
f 550 554 596
f 550 596 556
f 551 595 552
f 552 595 597
f 552 597 598
f 552 598 553
f 553 598 599
f 553 599 600
f 553 600 554
f 554 600 596
f 556 596 601
f 556 601 557
f 557 601 558
f 558 601 602
f 558 602 603
f 558 603 559
f 559 561 560
f 559 603 604
f 559 604 561
f 561 604 605
f 561 605 562
f 562 605 606
f 562 606 607
f 562 607 563
f 563 607 564
f 564 607 566
f 566 607 608
f 566 608 567
f 567 608 568
f 568 608 609
f 568 609 610
f 568 610 569
f 569 610 583
f 570 572 571
f 570 577 586
f 570 586 572
f 572 586 585
f 572 585 611
f 572 611 612
f 574 613 614
f 574 614 575
f 574 581 620
f 574 620 613
f 575 615 576
f 575 614 615
f 576 615 577
f 577 615 616
f 577 616 617
f 577 617 586
f 578 582 579
f 579 581 580
f 579 582 618
f 579 618 619
f 579 619 581
f 581 619 644
f 581 644 620
f 582 583 610
f 582 610 639
f 582 639 618
f 584 621 585
f 585 621 611
f 586 617 587
f 587 617 616
f 587 616 622
f 587 622 589
f 587 589 588
f 589 622 642
f 589 642 623
f 589 623 624
f 589 624 590
f 590 624 591
f 591 624 625
f 591 625 626
f 591 626 592
f 592 626 593
f 593 626 627
f 593 627 628
f 593 628 629
f 593 629 594
f 594 629 595
f 595 629 630
f 595 630 597
f 596 600 601
f 597 630 598
f 598 631 599
f 598 630 652
f 598 652 632
f 598 632 631
f 599 631 600
f 600 602 601
f 600 631 633
f 600 633 602
f 602 633 634
f 602 634 603
f 603 605 604
f 603 634 635
f 603 635 605
f 605 635 636
f 605 636 606
f 606 636 637
f 606 637 608
f 606 608 607
f 608 637 638
f 608 638 609
f 609 638 610
f 610 638 639
f 613 640 616
f 613 616 615
f 613 615 614
f 613 620 641
f 613 641 640
f 616 640 642
f 616 642 622
f 618 639 656
f 618 656 643
f 618 643 619
f 619 643 658
f 619 658 644
f 620 644 645
f 620 645 641
f 623 642 646
f 623 646 624
f 624 646 647
f 624 647 648
f 624 648 625
f 625 648 626
f 626 648 627
f 627 648 649
f 627 649 650
f 627 650 628
f 628 650 629
f 629 650 651
f 629 651 652
f 629 652 630
f 631 634 633
f 631 632 653
f 631 653 634
f 632 652 658
f 632 658 654
f 632 654 653
f 634 636 635
f 634 653 655
f 634 655 636
f 636 638 637
f 636 655 638
f 638 655 639
f 639 655 656
f 640 641 642
f 641 645 657
f 641 657 642
f 642 657 646
f 643 656 654
f 643 654 658
f 644 658 645
f 645 658 659
f 645 659 657
f 646 657 660
f 646 660 661
f 646 661 647
f 647 661 648
f 648 661 662
f 648 662 649
f 649 662 658
f 649 658 650
f 650 658 651
f 651 658 652
f 653 654 663
f 653 663 655
f 654 656 663
f 655 663 656
f 657 659 660
f 658 662 661
f 658 661 660
f 658 660 659

