# https://github.com/mikedh/trimesh
v -0.07619737 0.01078508 -0.01117592 0.38039216 0.78823529 0.52549020
v -0.07618946 0.01066574 -0.00000002 0.38039216 0.78823529 0.52549020
v -0.07619737 0.01078508 0.01117588 0.38039216 0.78823529 0.52549020
v -0.07619737 0.01371194 -0.01117592 0.38039216 0.78823529 0.52549020
v -0.07617628 0.01078508 -0.01143947 0.38039216 0.78823529 0.52549020
v -0.07617891 0.01054938 -0.01117592 0.38039216 0.78823529 0.52549020
v -0.07617891 0.01054938 0.01117588 0.38039216 0.78823529 0.52549020
v -0.07617628 0.01078508 0.01143943 0.38039216 0.78823529 0.52549020
v -0.07619737 0.01371194 0.01117588 0.38039216 0.78823529 0.52549020
v -0.07617628 0.01397450 -0.01117592 0.38039216 0.78823529 0.52549020
v -0.07617628 0.01397151 -0.01122067 0.38039216 0.78823529 0.52549020
v -0.07617628 0.01395958 -0.01126543 0.38039216 0.78823529 0.52549020
v -0.07617628 0.01394168 -0.01130769 0.38039216 0.78823529 0.52549020
v -0.07617628 0.01391483 -0.01134499 0.38039216 0.78823529 0.52549020
v -0.07617628 0.01388201 -0.01137731 0.38039216 0.78823529 0.52549020
v -0.07617628 0.01384322 -0.01140466 0.38039216 0.78823529 0.52549020
v -0.07617628 0.01380145 -0.01142455 0.38039216 0.78823529 0.52549020
v -0.07617628 0.01375670 -0.01143449 0.38039216 0.78823529 0.52549020
v -0.07617628 0.01371194 -0.01143947 0.38039216 0.78823529 0.52549020
v -0.07610774 0.01078508 -0.01169555 0.38039216 0.78823529 0.52549020
v -0.07615782 0.01055236 -0.01143947 0.38039216 0.78823529 0.52549020
v -0.07615255 0.01043302 -0.00000002 0.38039216 0.78823529 0.52549020
v -0.07612355 0.01031666 -0.01117592 0.38039216 0.78823529 0.52549020
v -0.07615782 0.01055236 0.01143943 0.38039216 0.78823529 0.52549020
v -0.07612355 0.01031666 0.01117588 0.38039216 0.78823529 0.52549020
v -0.07610774 0.01078508 0.01169552 0.38039216 0.78823529 0.52549020
v -0.07617628 0.01371194 0.01143943 0.38039216 0.78823529 0.52549020
v -0.07617628 0.01397450 0.01117588 0.38039216 0.78823529 0.52549020
v -0.07610774 0.01423108 -0.01117592 0.38039216 0.78823529 0.52549020
v -0.07610774 0.01422512 -0.01126543 0.38039216 0.78823529 0.52549020
v -0.07610774 0.01420125 -0.01135245 0.38039216 0.78823529 0.52549020
v -0.07610774 0.01416246 -0.01143449 0.38039216 0.78823529 0.52549020
v -0.07610774 0.01411174 -0.01150908 0.38039216 0.78823529 0.52549020
v -0.07610774 0.01404610 -0.01157373 0.38039216 0.78823529 0.52549020
v -0.07610774 0.01397151 -0.01162594 0.38039216 0.78823529 0.52549020
v -0.07610774 0.01388797 -0.01166572 0.38039216 0.78823529 0.52549020
v -0.07610774 0.01380145 -0.01168810 0.38039216 0.78823529 0.52549020
v -0.07610774 0.01371194 -0.01169555 0.38039216 0.78823529 0.52549020
v -0.07599438 0.01078508 -0.01193673 0.38039216 0.78823529 0.52549020
v -0.07597857 0.01057921 -0.01193673 0.38039216 0.78823529 0.52549020
v -0.07608928 0.01056131 -0.01169555 0.38039216 0.78823529 0.52549020
v -0.07610246 0.01032263 -0.01143947 0.38039216 0.78823529 0.52549020
v -0.07601284 0.01010483 -0.01143947 0.38039216 0.78823529 0.52549020
v -0.07603129 0.01009588 -0.01117592 0.38039216 0.78823529 0.52549020
v -0.07607874 0.01020627 -0.00000002 0.38039216 0.78823529 0.52549020
v -0.07610246 0.01032263 0.01143943 0.38039216 0.78823529 0.52549020
v -0.07608928 0.01056131 0.01169552 0.38039216 0.78823529 0.52549020
v -0.07603129 0.01009588 0.01117588 0.38039216 0.78823529 0.52549020
v -0.07601284 0.01010483 0.01143943 0.38039216 0.78823529 0.52549020
v -0.07597857 0.01057921 0.01193669 0.38039216 0.78823529 0.52549020
v -0.07599438 0.01078508 0.01193669 0.38039216 0.78823529 0.52549020
v -0.07610774 0.01371194 0.01169552 0.38039216 0.78823529 0.52549020
v -0.07615255 0.01397151 0.01143943 0.38039216 0.78823529 0.52549020
v -0.07610774 0.01423108 0.01117588 0.38039216 0.78823529 0.52549020
v -0.07599438 0.01447275 -0.01117592 0.38039216 0.78823529 0.52549020
v -0.07599438 0.01446082 -0.01130769 0.38039216 0.78823529 0.52549020
v -0.07599438 0.01442800 -0.01143449 0.38039216 0.78823529 0.52549020
v -0.07599438 0.01437131 -0.01155632 0.38039216 0.78823529 0.52549020
v -0.07599438 0.01429374 -0.01166572 0.38039216 0.78823529 0.52549020
v -0.07599438 0.01420125 -0.01175771 0.38039216 0.78823529 0.52549020
v -0.07599438 0.01409086 -0.01183479 0.38039216 0.78823529 0.52549020
v -0.07599438 0.01397151 -0.01189197 0.38039216 0.78823529 0.52549020
v -0.07599438 0.01384322 -0.01192429 0.38039216 0.78823529 0.52549020
v -0.07599438 0.01371194 -0.01193673 0.38039216 0.78823529 0.52549020
v -0.07584149 0.01078508 -0.01215552 0.38039216 0.78823529 0.52549020
v -0.07582831 0.01060308 -0.01215552 0.38039216 0.78823529 0.52549020
v -0.07593112 0.01037931 -0.01193673 0.38039216 0.78823529 0.52549020
v -0.07603656 0.01034351 -0.01169555 0.38039216 0.78823529 0.52549020
v -0.07594957 0.01013765 -0.01169555 0.38039216 0.78823529 0.52549020
v -0.07583358 0.00994372 -0.01169555 0.38039216 0.78823529 0.52549020
v -0.07588894 0.00990493 -0.01143947 0.38039216 0.78823529 0.52549020
v -0.07590739 0.00989001 -0.01117592 0.38039216 0.78823529 0.52549020
v -0.07597066 0.00999145 -0.00000002 0.38039216 0.78823529 0.52549020
v -0.07603656 0.01034351 0.01169552 0.38039216 0.78823529 0.52549020
v -0.07593112 0.01037931 0.01193669 0.38039216 0.78823529 0.52549020
v -0.07590739 0.00989001 0.01117588 0.38039216 0.78823529 0.52549020
v -0.07594957 0.01013765 0.01169552 0.38039216 0.78823529 0.52549020
v -0.07588894 0.00990493 0.01143943 0.38039216 0.78823529 0.52549020
v -0.07583358 0.00994372 0.01169552 0.38039216 0.78823529 0.52549020
v -0.07582831 0.01060308 0.01215548 0.38039216 0.78823529 0.52549020
v -0.07584149 0.01078508 0.01215548 0.38039216 0.78823529 0.52549020
v -0.07599438 0.01371194 0.01193669 0.38039216 0.78823529 0.52549020
v -0.07597330 0.01394168 0.01193669 0.38039216 0.78823529 0.52549020
v -0.07608401 0.01395958 0.01169552 0.38039216 0.78823529 0.52549020
v -0.07602075 0.01420125 0.01169552 0.38039216 0.78823529 0.52549020
v -0.07608401 0.01422512 0.01143943 0.38039216 0.78823529 0.52549020
v -0.07599438 0.01447275 0.01117588 0.38039216 0.78823529 0.52549020
v -0.07591794 0.01458314 -0.00000002 0.38039216 0.78823529 0.52549020
v -0.07584149 0.01469055 -0.01117592 0.38039216 0.78823529 0.52549020
v -0.07584149 0.01467563 -0.01134499 0.38039216 0.78823529 0.52549020
v -0.07584149 0.01463088 -0.01150908 0.38039216 0.78823529 0.52549020
v -0.07584149 0.01455927 -0.01166572 0.38039216 0.78823529 0.52549020
v -0.07584149 0.01446082 -0.01180495 0.38039216 0.78823529 0.52549020
v -0.07584149 0.01434147 -0.01192429 0.38039216 0.78823529 0.52549020
v -0.07584149 0.01420125 -0.01202375 0.38039216 0.78823529 0.52549020
v -0.07584149 0.01404610 -0.01209585 0.38039216 0.78823529 0.52549020
v -0.07584149 0.01388201 -0.01214060 0.38039216 0.78823529 0.52549020
v -0.07584149 0.01371194 -0.01215552 0.38039216 0.78823529 0.52549020
v -0.07565432 0.01078508 -0.01234199 0.38039216 0.78823529 0.52549020
v -0.07564114 0.01063292 -0.01234199 0.38039216 0.78823529 0.52549020
v -0.07560687 0.01048374 -0.01234199 0.38039216 0.78823529 0.52549020
v -0.07578613 0.01042705 -0.01215552 0.38039216 0.78823529 0.52549020
v -0.07571496 0.01025699 -0.01215552 0.38039216 0.78823529 0.52549020
v -0.07584939 0.01018837 -0.01193673 0.38039216 0.78823529 0.52549020
v -0.07568859 0.00977365 -0.01169555 0.38039216 0.78823529 0.52549020
v -0.07574132 0.01000935 -0.01193673 0.38039216 0.78823529 0.52549020
v -0.07573604 0.00972592 -0.01143947 0.38039216 0.78823529 0.52549020
v -0.07583095 0.00980051 -0.00000002 0.38039216 0.78823529 0.52549020
v -0.07575186 0.00970802 -0.01117592 0.38039216 0.78823529 0.52549020
v -0.07584939 0.01018837 0.01193669 0.38039216 0.78823529 0.52549020
v -0.07571496 0.01025699 0.01215548 0.38039216 0.78823529 0.52549020
v -0.07578613 0.01042705 0.01215548 0.38039216 0.78823529 0.52549020
v -0.07575186 0.00970802 0.01117588 0.38039216 0.78823529 0.52549020
v -0.07573604 0.00972592 0.01143943 0.38039216 0.78823529 0.52549020
v -0.07568859 0.00977365 0.01169552 0.38039216 0.78823529 0.52549020
v -0.07574132 0.01000935 0.01193669 0.38039216 0.78823529 0.52549020
v -0.07564114 0.01063292 0.01234195 0.38039216 0.78823529 0.52549020
v -0.07565432 0.01078508 0.01234195 0.38039216 0.78823529 0.52549020
v -0.07560687 0.01048374 0.01234195 0.38039216 0.78823529 0.52549020
v -0.07584149 0.01371194 0.01215548 0.38039216 0.78823529 0.52549020
v -0.07582567 0.01391483 0.01215548 0.38039216 0.78823529 0.52549020
v -0.07591530 0.01416246 0.01193669 0.38039216 0.78823529 0.52549020
v -0.07591530 0.01442800 0.01169552 0.38039216 0.78823529 0.52549020
v -0.07597330 0.01446082 0.01143943 0.38039216 0.78823529 0.52549020
v -0.07582567 0.01467563 0.01143943 0.38039216 0.78823529 0.52549020
v -0.07584149 0.01469055 0.01117588 0.38039216 0.78823529 0.52549020
v -0.07574922 0.01478602 -0.00000002 0.38039216 0.78823529 0.52549020
v -0.07565432 0.01487851 -0.01117592 0.38039216 0.78823529 0.52549020
v -0.07565432 0.01486061 -0.01137731 0.38039216 0.78823529 0.52549020
v -0.07565432 0.01480691 -0.01157373 0.38039216 0.78823529 0.52549020
v -0.07565432 0.01472337 -0.01175771 0.38039216 0.78823529 0.52549020
v -0.07565432 0.01446082 -0.01206850 0.38039216 0.78823529 0.52549020
v -0.07565432 0.01460403 -0.01192429 0.38039216 0.78823529 0.52549020
v -0.07565432 0.01411174 -0.01227238 0.38039216 0.78823529 0.52549020
v -0.07565432 0.01429374 -0.01218536 0.38039216 0.78823529 0.52549020
v -0.07565432 0.01391483 -0.01232459 0.38039216 0.78823529 0.52549020
v -0.07565432 0.01371194 -0.01234199 0.38039216 0.78823529 0.52549020
v -0.07543552 0.01078508 -0.01249366 0.38039216 0.78823529 0.52549020
v -0.07542761 0.01066574 -0.01249366 0.38039216 0.78823529 0.52549020
v -0.07539861 0.01054938 -0.01249366 0.38039216 0.78823529 0.52549020
v -0.07535380 0.01043899 -0.01249366 0.38039216 0.78823529 0.52549020
v -0.07554624 0.01034053 -0.01234199 0.38039216 0.78823529 0.52549020
v -0.07562005 0.01009886 -0.01215552 0.38039216 0.78823529 0.52549020
v -0.06960966 0.00359770 -0.01143947 0.38039216 0.78823529 0.52549020
v -0.07560687 0.00985421 -0.01193673 0.38039216 0.78823529 0.52549020
v -0.06950158 0.00370511 -0.01187705 0.38039216 0.78823529 0.52549020
v -0.05730945 -0.00860503 -0.01169555 0.38039216 0.78823529 0.52549020
v -0.05732263 -0.00861697 -0.01163091 0.38039216 0.78823529 0.52549020
v -0.07550142 0.00996162 -0.01215552 0.38039216 0.78823529 0.52549020
v -0.05124897 -0.01479591 -0.01117592 0.38039216 0.78823529 0.52549020
v -0.07562005 0.01009886 0.01215548 0.38039216 0.78823529 0.52549020
v -0.07554624 0.01034053 0.01234195 0.38039216 0.78823529 0.52549020
v -0.06960966 0.00359770 0.01143943 0.38039216 0.78823529 0.52549020
v -0.05124897 -0.01479591 0.01117588 0.38039216 0.78823529 0.52549020
v -0.06950158 0.00370511 0.01187702 0.38039216 0.78823529 0.52549020
v -0.07560687 0.00985421 0.01193669 0.38039216 0.78823529 0.52549020
v -0.05732263 -0.00861697 0.01163087 0.38039216 0.78823529 0.52549020
v -0.05730945 -0.00860503 0.01169552 0.38039216 0.78823529 0.52549020
v -0.07550142 0.00996162 0.01215548 0.38039216 0.78823529 0.52549020
v -0.07542761 0.01066574 0.01249362 0.38039216 0.78823529 0.52549020
v -0.07543552 0.01078508 0.01249362 0.38039216 0.78823529 0.52549020
v -0.07565432 0.01371194 0.01234195 0.38039216 0.78823529 0.52549020
v -0.07535380 0.01043899 0.01249362 0.38039216 0.78823529 0.52549020
v -0.07539861 0.01054938 0.01249362 0.38039216 0.78823529 0.52549020
v -0.07563851 0.01388201 0.01234195 0.38039216 0.78823529 0.52549020
v -0.07559633 0.01404610 0.01234195 0.38039216 0.78823529 0.52549020
v -0.07577295 0.01411174 0.01215548 0.38039216 0.78823529 0.52549020
v -0.07581776 0.01437131 0.01193669 0.38039216 0.78823529 0.52549020
v -0.07568596 0.01455927 0.01193669 0.38039216 0.78823529 0.52549020
v -0.07577295 0.01463088 0.01169552 0.38039216 0.78823529 0.52549020
v -0.07559633 0.01480691 0.01169552 0.38039216 0.78823529 0.52549020
v -0.07563851 0.01486061 0.01143943 0.38039216 0.78823529 0.52549020
v -0.07565432 0.01487851 0.01117588 0.38039216 0.78823529 0.52549020
v -0.07554624 0.01495609 -0.00000002 0.38039216 0.78823529 0.52549020
v -0.07543552 0.01503068 -0.01117592 0.38039216 0.78823529 0.52549020
v -0.07543552 0.01500979 -0.01140466 0.38039216 0.78823529 0.52549020
v -0.07543552 0.01495012 -0.01162594 0.38039216 0.78823529 0.52549020
v -0.07543552 0.01485464 -0.01183479 0.38039216 0.78823529 0.52549020
v -0.07543552 0.01472337 -0.01202375 0.38039216 0.78823529 0.52549020
v -0.07543552 0.01437131 -0.01231713 0.38039216 0.78823529 0.52549020
v -0.07543552 0.01455927 -0.01218536 0.38039216 0.78823529 0.52549020
v -0.07543552 0.01416246 -0.01241410 0.38039216 0.78823529 0.52549020
v -0.07543552 0.01394168 -0.01247377 0.38039216 0.78823529 0.52549020
v -0.07543552 0.01371194 -0.01249366 0.38039216 0.78823529 0.52549020
v -0.07519563 0.01078508 -0.01260803 0.38039216 0.78823529 0.52549020
v -0.07519036 0.01070452 -0.01260803 0.38039216 0.78823529 0.52549020
v -0.07514028 0.01054938 -0.01260803 0.38039216 0.78823529 0.52549020
v -0.07516927 0.01062397 -0.01260803 0.38039216 0.78823529 0.52549020
v -0.07529054 0.01033755 -0.01249366 0.38039216 0.78823529 0.52549020
v -0.07546716 0.01020925 -0.01234199 0.38039216 0.78823529 0.52549020
v -0.07536698 0.01009289 -0.01234199 0.38039216 0.78823529 0.52549020
v -0.05734635 -0.00864084 -0.01150411 0.38039216 0.78823529 0.52549020
v -0.05123051 -0.01477801 -0.01143947 0.38039216 0.78823529 0.52549020
v -0.06948049 0.00372599 -0.01193673 0.38039216 0.78823529 0.52549020
v -0.05110398 -0.01465270 -0.01193673 0.38039216 0.78823529 0.52549020
v -0.05118306 -0.01473027 -0.01169555 0.38039216 0.78823529 0.52549020
v -0.06940141 0.00380655 -0.01210082 0.38039216 0.78823529 0.52549020
v -0.05712228 -0.00841707 -0.01215552 0.38039216 0.78823529 0.52549020
v -0.05105126 -0.01493315 -0.01143947 0.38039216 0.78823529 0.52549020
v -0.05106707 -0.01495105 -0.01117592 0.38039216 0.78823529 0.52549020
v -0.07536698 0.01009289 0.01234195 0.38039216 0.78823529 0.52549020
v -0.07546716 0.01020925 0.01234195 0.38039216 0.78823529 0.52549020
v -0.05123051 -0.01477801 0.01143943 0.38039216 0.78823529 0.52549020
v -0.05734635 -0.00864084 0.01150407 0.38039216 0.78823529 0.52549020
v -0.05106707 -0.01495105 0.01117588 0.38039216 0.78823529 0.52549020
v -0.05105126 -0.01493315 0.01143943 0.38039216 0.78823529 0.52549020
v -0.06948049 0.00372599 0.01193669 0.38039216 0.78823529 0.52549020
v -0.05110398 -0.01465270 0.01193669 0.38039216 0.78823529 0.52549020
v -0.05118306 -0.01473027 0.01169552 0.38039216 0.78823529 0.52549020
v -0.06940141 0.00380655 0.01210078 0.38039216 0.78823529 0.52549020
v -0.05712228 -0.00841707 0.01215548 0.38039216 0.78823529 0.52549020
v -0.07519036 0.01070452 0.01260799 0.38039216 0.78823529 0.52549020
v -0.07519563 0.01078508 0.01260799 0.38039216 0.78823529 0.52549020
v -0.07543552 0.01371194 0.01249362 0.38039216 0.78823529 0.52549020
v -0.07542498 0.01384322 0.01249362 0.38039216 0.78823529 0.52549020
v -0.07514028 0.01054938 0.01260799 0.38039216 0.78823529 0.52549020
v -0.07529054 0.01033755 0.01249362 0.38039216 0.78823529 0.52549020
v -0.07516927 0.01062397 0.01260799 0.38039216 0.78823529 0.52549020
v -0.07539071 0.01397151 0.01249362 0.38039216 0.78823529 0.52549020
v -0.07533535 0.01409086 0.01249362 0.38039216 0.78823529 0.52549020
v -0.07552252 0.01420125 0.01234195 0.38039216 0.78823529 0.52549020
v -0.07568596 0.01429374 0.01215548 0.38039216 0.78823529 0.52549020
v -0.07556996 0.01446082 0.01215548 0.38039216 0.78823529 0.52549020
v -0.07552252 0.01472337 0.01193669 0.38039216 0.78823529 0.52549020
v -0.07533535 0.01485464 0.01193669 0.38039216 0.78823529 0.52549020
v -0.07539071 0.01495012 0.01169552 0.38039216 0.78823529 0.52549020
v -0.07542498 0.01500979 0.01143943 0.38039216 0.78823529 0.52549020
v -0.07543552 0.01503068 0.01117588 0.38039216 0.78823529 0.52549020
v -0.07531690 0.01508736 -0.00000002 0.38039216 0.78823529 0.52549020
v -0.07519563 0.01514405 -0.01117592 0.38039216 0.78823529 0.52549020
v -0.07519563 0.01512018 -0.01142455 0.38039216 0.78823529 0.52549020
v -0.07519563 0.01505753 -0.01166572 0.38039216 0.78823529 0.52549020
v -0.07519563 0.01495012 -0.01189197 0.38039216 0.78823529 0.52549020
v -0.07519563 0.01463088 -0.01227238 0.38039216 0.78823529 0.52549020
v -0.07519563 0.01480691 -0.01209585 0.38039216 0.78823529 0.52549020
v -0.07519563 0.01442800 -0.01241410 0.38039216 0.78823529 0.52549020
v -0.07519563 0.01420125 -0.01252101 0.38039216 0.78823529 0.52549020
v -0.07519563 0.01395958 -0.01258565 0.38039216 0.78823529 0.52549020
v -0.07519563 0.01371194 -0.01260803 0.38039216 0.78823529 0.52549020
v -0.07493993 0.01078508 -0.01267516 0.38039216 0.78823529 0.52549020
v -0.07492675 0.01070452 -0.01267516 0.38039216 0.78823529 0.52549020
v -0.07493729 0.01074629 -0.01267516 0.38039216 0.78823529 0.52549020
v -0.07509546 0.01048076 -0.01260803 0.38039216 0.78823529 0.52549020
v -0.07491093 0.01066574 -0.01267516 0.38039216 0.78823529 0.52549020
v -0.07488984 0.01062993 -0.01267516 0.38039216 0.78823529 0.52549020
v -0.07504274 0.01041810 -0.01260803 0.38039216 0.78823529 0.52549020
v -0.07521409 0.01024804 -0.01249366 0.38039216 0.78823529 0.52549020
v -0.06908771 0.00411982 -0.01249366 0.38039216 0.78823529 0.52549020
v -0.06912461 0.00408103 -0.01245636 0.38039216 0.78823529 0.52549020
v -0.05687449 -0.00816944 -0.01245636 0.38039216 0.78823529 0.52549020
v -0.05699047 -0.00828281 -0.01234199 0.38039216 0.78823529 0.52549020
v -0.05099590 -0.01454231 -0.01215552 0.38039216 0.78823529 0.52549020
v -0.05085618 -0.01466165 -0.01215552 0.38039216 0.78823529 0.52549020
v -0.05094581 -0.01478696 -0.01193673 0.38039216 0.78823529 0.52549020
v -0.05101172 -0.01487646 -0.01169555 0.38039216 0.78823529 0.52549020
v -0.05086146 -0.01441103 -0.01234199 0.38039216 0.78823529 0.52549020
v -0.05085091 -0.01505548 -0.01143947 0.38039216 0.78823529 0.52549020
v -0.05086146 -0.01507636 -0.01117592 0.38039216 0.78823529 0.52549020
v -0.06912461 0.00408103 0.01245632 0.38039216 0.78823529 0.52549020
v -0.06908771 0.00411982 0.01249362 0.38039216 0.78823529 0.52549020
v -0.07521409 0.01024804 0.01249362 0.38039216 0.78823529 0.52549020
v -0.05699047 -0.00828281 0.01234195 0.38039216 0.78823529 0.52549020
v -0.05687449 -0.00816944 0.01245632 0.38039216 0.78823529 0.52549020
v -0.05086146 -0.01507636 0.01117588 0.38039216 0.78823529 0.52549020
v -0.05085091 -0.01505548 0.01143943 0.38039216 0.78823529 0.52549020
v -0.05101172 -0.01487646 0.01169552 0.38039216 0.78823529 0.52549020
v -0.05094581 -0.01478696 0.01193669 0.38039216 0.78823529 0.52549020
v -0.05085618 -0.01466165 0.01215548 0.38039216 0.78823529 0.52549020
v -0.05099590 -0.01454231 0.01215548 0.38039216 0.78823529 0.52549020
v -0.05086146 -0.01441103 0.01234195 0.38039216 0.78823529 0.52549020
v -0.07492675 0.01070452 0.01267512 0.38039216 0.78823529 0.52549020
v -0.07493729 0.01074629 0.01267512 0.38039216 0.78823529 0.52549020
v -0.07493993 0.01078508 0.01267512 0.38039216 0.78823529 0.52549020
v -0.07519563 0.01371194 0.01260799 0.38039216 0.78823529 0.52549020
v -0.07518773 0.01380145 0.01260799 0.38039216 0.78823529 0.52549020
v -0.07509546 0.01048076 0.01260799 0.38039216 0.78823529 0.52549020
v -0.07488984 0.01062993 0.01267512 0.38039216 0.78823529 0.52549020
v -0.07491093 0.01066574 0.01267512 0.38039216 0.78823529 0.52549020
v -0.07504274 0.01041810 0.01260799 0.38039216 0.78823529 0.52549020
v -0.07512710 0.01397151 0.01260799 0.38039216 0.78823529 0.52549020
v -0.07516400 0.01388797 0.01260799 0.38039216 0.78823529 0.52549020
v -0.07525890 0.01420125 0.01249362 0.38039216 0.78823529 0.52549020
v -0.07542498 0.01434147 0.01234195 0.38039216 0.78823529 0.52549020
v -0.07542498 0.01460403 0.01215548 0.38039216 0.78823529 0.52549020
v -0.07525890 0.01472337 0.01215548 0.38039216 0.78823529 0.52549020
v -0.07512710 0.01495012 0.01193669 0.38039216 0.78823529 0.52549020
v -0.07516400 0.01505753 0.01169552 0.38039216 0.78823529 0.52549020
v -0.07518773 0.01512018 0.01143943 0.38039216 0.78823529 0.52549020
v -0.07519563 0.01514405 0.01117588 0.38039216 0.78823529 0.52549020
v -0.07493993 0.01518880 -0.01143449 0.38039216 0.78823529 0.52549020
v -0.07493993 0.01521267 -0.01117592 0.38039216 0.78823529 0.52549020
v -0.07493993 0.01500979 -0.01192429 0.38039216 0.78823529 0.52549020
v -0.07493993 0.01512018 -0.01168810 0.38039216 0.78823529 0.52549020
v -0.07493993 0.01486061 -0.01214060 0.38039216 0.78823529 0.52549020
v -0.07493993 0.01467563 -0.01232459 0.38039216 0.78823529 0.52549020
v -0.07493993 0.01446082 -0.01247377 0.38039216 0.78823529 0.52549020
v -0.07493993 0.01422512 -0.01258565 0.38039216 0.78823529 0.52549020
v -0.07493993 0.01397151 -0.01265278 0.38039216 0.78823529 0.52549020
v -0.07493993 0.01371194 -0.01267516 0.38039216 0.78823529 0.52549020
v -0.07467368 0.01078508 -0.01270002 0.38039216 0.78823529 0.52549020
v -0.07486085 0.01060010 -0.01267516 0.38039216 0.78823529 0.52549020
v -0.06891636 0.00428988 -0.01260803 0.38039216 0.78823529 0.52549020
v -0.05679276 -0.00808888 -0.01252349 0.38039216 0.78823529 0.52549020
v -0.05070856 -0.01425588 -0.01249366 0.38039216 0.78823529 0.52549020
v -0.05070065 -0.01475712 -0.01215552 0.38039216 0.78823529 0.52549020
v -0.05074547 -0.01450949 -0.01234199 0.38039216 0.78823529 0.52549020
v -0.05076919 -0.01489436 -0.01193673 0.38039216 0.78823529 0.52549020
v -0.05081928 -0.01499282 -0.01169555 0.38039216 0.78823529 0.52549020
v -0.05061893 -0.01433346 -0.01249366 0.38039216 0.78823529 0.52549020
v -0.05061366 -0.01507934 -0.01169555 0.38039216 0.78823529 0.52549020
v -0.05063475 -0.01514498 -0.01143947 0.38039216 0.78823529 0.52549020
v -0.05064002 -0.01516885 -0.01117592 0.38039216 0.78823529 0.52549020
v -0.06891636 0.00428988 0.01260799 0.38039216 0.78823529 0.52549020
v -0.05070856 -0.01425588 0.01249362 0.38039216 0.78823529 0.52549020
v -0.05679276 -0.00808888 0.01252345 0.38039216 0.78823529 0.52549020
v -0.05064002 -0.01516885 0.01117588 0.38039216 0.78823529 0.52549020
v -0.05063475 -0.01514498 0.01143943 0.38039216 0.78823529 0.52549020
v -0.05061366 -0.01507934 0.01169552 0.38039216 0.78823529 0.52549020
v -0.05081928 -0.01499282 0.01169552 0.38039216 0.78823529 0.52549020
v -0.05076919 -0.01489436 0.01193669 0.38039216 0.78823529 0.52549020
v -0.05070065 -0.01475712 0.01215548 0.38039216 0.78823529 0.52549020
v -0.05074547 -0.01450949 0.01234195 0.38039216 0.78823529 0.52549020
v -0.05061893 -0.01433346 0.01249362 0.38039216 0.78823529 0.52549020
v -0.07467368 0.01078508 0.01269749 0.38039216 0.78823529 0.52549020
v -0.07493993 0.01371194 0.01267512 0.38039216 0.78823529 0.52549020
v -0.07493466 0.01375670 0.01267512 0.38039216 0.78823529 0.52549020
v -0.07492411 0.01380145 0.01267512 0.38039216 0.78823529 0.52549020
v -0.07486085 0.01060010 0.01267512 0.38039216 0.78823529 0.52549020
v -0.07507437 0.01404610 0.01260799 0.38039216 0.78823529 0.52549020
v -0.07490302 0.01384322 0.01267512 0.38039216 0.78823529 0.52549020
v -0.07487666 0.01388201 0.01267512 0.38039216 0.78823529 0.52549020
v -0.07516400 0.01429374 0.01249362 0.38039216 0.78823529 0.52549020
v -0.07530372 0.01446082 0.01234195 0.38039216 0.78823529 0.52549020
v -0.07500847 0.01411174 0.01260799 0.38039216 0.78823529 0.52549020
v -0.07516400 0.01455927 0.01234195 0.38039216 0.78823529 0.52549020
v -0.07500847 0.01463088 0.01234195 0.38039216 0.78823529 0.52549020
v -0.07507437 0.01480691 0.01215548 0.38039216 0.78823529 0.52549020
v -0.07490302 0.01500979 0.01193669 0.38039216 0.78823529 0.52549020
v -0.07487666 0.01486061 0.01215548 0.38039216 0.78823529 0.52549020
v -0.07492411 0.01512018 0.01169552 0.38039216 0.78823529 0.52549020
v -0.07493466 0.01518880 0.01143943 0.38039216 0.78823529 0.52549020
v -0.07493993 0.01521267 0.01117588 0.38039216 0.78823529 0.52549020
v -0.07467368 0.01514405 -0.01169555 0.38039216 0.78823529 0.52549020
v -0.07467368 0.01521267 -0.01143947 0.38039216 0.78823529 0.52549020
v -0.07480812 0.01522461 -0.00000002 0.38039216 0.78823529 0.52549020
v -0.07467368 0.01523654 -0.01117592 0.38039216 0.78823529 0.52549020
v -0.07467368 0.01503068 -0.01193673 0.38039216 0.78823529 0.52549020
v -0.07467368 0.01487851 -0.01215552 0.38039216 0.78823529 0.52549020
v -0.07467368 0.01469055 -0.01234199 0.38039216 0.78823529 0.52549020
v -0.07467368 0.01447275 -0.01249366 0.38039216 0.78823529 0.52549020
v -0.07467368 0.01423108 -0.01260803 0.38039216 0.78823529 0.52549020
v -0.07467368 0.01397450 -0.01267516 0.38039216 0.78823529 0.52549020
v -0.07467368 0.01371194 -0.01270002 0.38039216 0.78823529 0.52549020
v -0.05017079 -0.01371884 -0.01270002 0.38039216 0.78823529 0.52549020
v -0.06868701 0.00451962 -0.01268262 0.38039216 0.78823529 0.52549020
v -0.06873446 0.00447188 -0.01267516 0.38039216 0.78823529 0.52549020
v -0.05666623 -0.00796059 -0.01260803 0.38039216 0.78823529 0.52549020
v -0.05053985 -0.01408582 -0.01260803 0.38039216 0.78823529 0.52549020
v -0.05061366 -0.01459004 -0.01234199 0.38039216 0.78823529 0.52549020
v -0.05047394 -0.01464971 -0.01234199 0.38039216 0.78823529 0.52549020
v -0.05053194 -0.01482873 -0.01215552 0.38039216 0.78823529 0.52549020
v -0.05057675 -0.01497194 -0.01193673 0.38039216 0.78823529 0.52549020
v -0.05051612 -0.01439611 -0.01249366 0.38039216 0.78823529 0.52549020
v -0.05047658 -0.01413953 -0.01260803 0.38039216 0.78823529 0.52549020
v -0.05039486 -0.01513305 -0.01169555 0.38039216 0.78823529 0.52549020
v -0.05040540 -0.01520167 -0.01143947 0.38039216 0.78823529 0.52549020
v -0.05037641 -0.01502266 -0.01193673 0.38039216 0.78823529 0.52549020
v -0.05040804 -0.01522256 -0.01117592 0.38039216 0.78823529 0.52549020
v -0.06873446 0.00447188 0.01267512 0.38039216 0.78823529 0.52549020
v -0.05666623 -0.00796059 0.01260799 0.38039216 0.78823529 0.52549020
v -0.05053985 -0.01408582 0.01260799 0.38039216 0.78823529 0.52549020
v -0.05040804 -0.01522256 0.01117588 0.38039216 0.78823529 0.52549020
v -0.05040540 -0.01520167 0.01143943 0.38039216 0.78823529 0.52549020
v -0.05039486 -0.01513305 0.01169552 0.38039216 0.78823529 0.52549020
v -0.05037641 -0.01502266 0.01193669 0.38039216 0.78823529 0.52549020
v -0.05057675 -0.01497194 0.01193669 0.38039216 0.78823529 0.52549020
v -0.05053194 -0.01482873 0.01215548 0.38039216 0.78823529 0.52549020
v -0.05047394 -0.01464971 0.01234195 0.38039216 0.78823529 0.52549020
v -0.05061366 -0.01459004 0.01234195 0.38039216 0.78823529 0.52549020
v -0.05051612 -0.01439611 0.01249362 0.38039216 0.78823529 0.52549020
v -0.05047658 -0.01413953 0.01260799 0.38039216 0.78823529 0.52549020
v -0.06349909 0.01123261 0.01269998 0.38039216 0.78823529 0.52549020
v -0.07467368 0.01371194 0.01269749 0.38039216 0.78823529 0.52549020
v -0.06868701 0.00451962 0.01268258 0.38039216 0.78823529 0.52549020
v -0.06242355 -0.00146539 0.01269998 0.38039216 0.78823529 0.52549020
v -0.07484503 0.01391483 0.01267512 0.38039216 0.78823529 0.52549020
v -0.07505592 0.01437131 0.01249362 0.38039216 0.78823529 0.52549020
v -0.07480812 0.01394168 0.01267512 0.38039216 0.78823529 0.52549020
v -0.07493466 0.01416246 0.01260799 0.38039216 0.78823529 0.52549020
v -0.07493466 0.01442800 0.01249362 0.38039216 0.78823529 0.52549020
v -0.07484503 0.01467563 0.01234195 0.38039216 0.78823529 0.52549020
v -0.07467368 0.01503068 0.01193669 0.38039216 0.78823529 0.52549020
v -0.07467368 0.01514405 0.01169552 0.38039216 0.78823529 0.52549020
v -0.07467368 0.01487851 0.01215548 0.38039216 0.78823529 0.52549020
v -0.07467368 0.01521267 0.01143943 0.38039216 0.78823529 0.52549020
v -0.07467368 0.01523654 0.01117588 0.38039216 0.78823529 0.52549020
v -0.05232451 0.01514405 -0.01169555 0.38039216 0.78823529 0.52549020
v -0.06349909 0.01508736 -0.01181738 0.38039216 0.78823529 0.52549020
v -0.05232451 0.01521267 -0.01143947 0.38039216 0.78823529 0.52549020
v -0.05232451 0.01523654 -0.01117592 0.38039216 0.78823529 0.52549020
v -0.05232451 0.01503068 -0.01193673 0.38039216 0.78823529 0.52549020
v -0.06349909 0.01495609 -0.01204612 0.38039216 0.78823529 0.52549020
v -0.05232451 0.01487851 -0.01215552 0.38039216 0.78823529 0.52549020
v -0.06349909 0.01478602 -0.01224751 0.38039216 0.78823529 0.52549020
v -0.05232451 0.01469055 -0.01234199 0.38039216 0.78823529 0.52549020
v -0.06349909 0.01458314 -0.01241907 0.38039216 0.78823529 0.52549020
v -0.05232451 0.01447275 -0.01249366 0.38039216 0.78823529 0.52549020
v -0.06349909 0.01435341 -0.01255084 0.38039216 0.78823529 0.52549020
v -0.05232451 0.01423108 -0.01260803 0.38039216 0.78823529 0.52549020
v -0.05232451 0.01397450 -0.01267516 0.38039216 0.78823529 0.52549020
v -0.05232451 0.01371194 -0.01270002 0.38039216 0.78823529 0.52549020
v -0.04926923 -0.01351895 -0.01270002 0.38039216 0.78823529 0.52549020
v -0.04926923 -0.01373078 -0.01269753 0.38039216 0.78823529 0.52549020
v -0.04926923 -0.01398438 -0.01267516 0.38039216 0.78823529 0.52549020
v -0.05017079 -0.01398140 -0.01267516 0.38039216 0.78823529 0.52549020
v -0.05021033 -0.01397841 -0.01267516 0.38039216 0.78823529 0.52549020
v -0.05025251 -0.01396946 -0.01267516 0.38039216 0.78823529 0.52549020
v -0.05028941 -0.01395454 -0.01267516 0.38039216 0.78823529 0.52549020
v -0.05032632 -0.01393068 -0.01267516 0.38039216 0.78823529 0.52549020
v -0.05035795 -0.01390382 -0.01267516 0.38039216 0.78823529 0.52549020
v -0.05643688 -0.00773085 -0.01268262 0.38039216 0.78823529 0.52549020
v -0.05648433 -0.00777859 -0.01267516 0.38039216 0.78823529 0.52549020
v -0.05040540 -0.01444385 -0.01249366 0.38039216 0.78823529 0.52549020
v -0.05032368 -0.01468552 -0.01234199 0.38039216 0.78823529 0.52549020
v -0.05035268 -0.01487050 -0.01215552 0.38039216 0.78823529 0.52549020
v -0.05040540 -0.01418129 -0.01260803 0.38039216 0.78823529 0.52549020
v -0.05033159 -0.01421411 -0.01260803 0.38039216 0.78823529 0.52549020
v -0.05017079 -0.01515095 -0.01169555 0.38039216 0.78823529 0.52549020
v -0.05017079 -0.01521957 -0.01143947 0.38039216 0.78823529 0.52549020
v -0.05017079 -0.01524344 -0.01117592 0.38039216 0.78823529 0.52549020
v -0.05017079 -0.01503758 -0.01193673 0.38039216 0.78823529 0.52549020
v -0.05017079 -0.01488541 -0.01215552 0.38039216 0.78823529 0.52549020
v -0.05648433 -0.00777859 0.01267512 0.38039216 0.78823529 0.52549020
v -0.05035795 -0.01390382 0.01267512 0.38039216 0.78823529 0.52549020
v -0.05017079 -0.01524344 0.01117588 0.38039216 0.78823529 0.52549020
v -0.05017079 -0.01521957 0.01143943 0.38039216 0.78823529 0.52549020
v -0.05017079 -0.01515095 0.01169552 0.38039216 0.78823529 0.52549020
v -0.05017079 -0.01503758 0.01193669 0.38039216 0.78823529 0.52549020
v -0.05017079 -0.01488541 0.01215548 0.38039216 0.78823529 0.52549020
v -0.05035268 -0.01487050 0.01215548 0.38039216 0.78823529 0.52549020
v -0.05032368 -0.01468552 0.01234195 0.38039216 0.78823529 0.52549020
v -0.05040540 -0.01444385 0.01249362 0.38039216 0.78823529 0.52549020
v -0.05033159 -0.01421411 0.01260799 0.38039216 0.78823529 0.52549020
v -0.05040540 -0.01418129 0.01260799 0.38039216 0.78823529 0.52549020
v -0.05028941 -0.01395454 0.01267512 0.38039216 0.78823529 0.52549020
v -0.05032632 -0.01393068 0.01267512 0.38039216 0.78823529 0.52549020
v -0.06349909 0.01371194 0.01269998 0.38039216 0.78823529 0.52549020
v -0.07467368 0.01397450 0.01267512 0.38039216 0.78823529 0.52549020
v -0.07472113 0.01397151 0.01267512 0.38039216 0.78823529 0.52549020
v -0.07476594 0.01395958 0.01267512 0.38039216 0.78823529 0.52549020
v -0.05643688 -0.00773085 0.01268258 0.38039216 0.78823529 0.52549020
v -0.05017079 -0.01371884 0.01269998 0.38039216 0.78823529 0.52549020
v -0.07485293 0.01420125 0.01260799 0.38039216 0.78823529 0.52549020
v -0.07476594 0.01422512 0.01260799 0.38039216 0.78823529 0.52549020
v -0.07480812 0.01446082 0.01249362 0.38039216 0.78823529 0.52549020
v -0.07467368 0.01447275 0.01249362 0.38039216 0.78823529 0.52549020
v -0.07467368 0.01469055 0.01234195 0.38039216 0.78823529 0.52549020
v -0.06349909 0.01495609 0.01204608 0.38039216 0.78823529 0.52549020
v -0.05232451 0.01503068 0.01193669 0.38039216 0.78823529 0.52549020
v -0.06349909 0.01508736 0.01181735 0.38039216 0.78823529 0.52549020
v -0.05232451 0.01514405 0.01169552 0.38039216 0.78823529 0.52549020
v -0.06349909 0.01478602 0.01224747 0.38039216 0.78823529 0.52549020
v -0.05232451 0.01487851 0.01215548 0.38039216 0.78823529 0.52549020
v -0.05232451 0.01521267 0.01143943 0.38039216 0.78823529 0.52549020
v -0.05232451 0.01523654 0.01117588 0.38039216 0.78823529 0.52549020
v -0.05223488 0.01514405 -0.01168810 0.38039216 0.78823529 0.52549020
v -0.05227970 0.01521267 -0.01143449 0.38039216 0.78823529 0.52549020
v -0.05206090 0.01521267 -0.01117592 0.38039216 0.78823529 0.52549020
v -0.05206353 0.01521267 -0.01122067 0.38039216 0.78823529 0.52549020
v -0.05207671 0.01521267 -0.01126543 0.38039216 0.78823529 0.52549020
v -0.05209517 0.01521267 -0.01130769 0.38039216 0.78823529 0.52549020
v -0.05212153 0.01521267 -0.01134499 0.38039216 0.78823529 0.52549020
v -0.05215580 0.01521267 -0.01137731 0.38039216 0.78823529 0.52549020
v -0.05219270 0.01521267 -0.01140466 0.38039216 0.78823529 0.52549020
v -0.05223488 0.01521267 -0.01142455 0.38039216 0.78823529 0.52549020
v -0.05219270 0.01503068 -0.01192429 0.38039216 0.78823529 0.52549020
v -0.05215580 0.01487851 -0.01214060 0.38039216 0.78823529 0.52549020
v -0.05212153 0.01469055 -0.01232459 0.38039216 0.78823529 0.52549020
v -0.05209517 0.01447275 -0.01247377 0.38039216 0.78823529 0.52549020
v -0.05207671 0.01423108 -0.01258565 0.38039216 0.78823529 0.52549020
v -0.05206353 0.01397450 -0.01265278 0.38039216 0.78823529 0.52549020
v -0.05206090 0.01371194 -0.01267516 0.38039216 0.78823529 0.52549020
v -0.04926923 0.00862499 -0.01270002 0.38039216 0.78823529 0.52549020
v -0.04926923 -0.01423202 -0.01260803 0.38039216 0.78823529 0.52549020
v -0.05017079 -0.01423798 -0.01260803 0.38039216 0.78823529 0.52549020
v -0.05025251 -0.01423202 -0.01260803 0.38039216 0.78823529 0.52549020
v -0.05028941 -0.01447070 -0.01249366 0.38039216 0.78823529 0.52549020
v -0.05017079 -0.01469745 -0.01234199 0.38039216 0.78823529 0.52549020
v -0.04926923 -0.01515393 -0.01168561 0.38039216 0.78823529 0.52549020
v -0.04926923 -0.01514498 -0.01170799 0.38039216 0.78823529 0.52549020
v -0.04926923 -0.01521659 -0.01144693 0.38039216 0.78823529 0.52549020
v -0.04926923 -0.01521957 -0.01143201 0.38039216 0.78823529 0.52549020
v -0.04926923 -0.01524046 -0.01118587 0.38039216 0.78823529 0.52549020
v -0.04926923 -0.01524344 -0.01112619 0.38039216 0.78823529 0.52549020
v -0.04926923 -0.01503459 -0.01194170 0.38039216 0.78823529 0.52549020
v -0.04926923 -0.01504056 -0.01192927 0.38039216 0.78823529 0.52549020
v -0.04926923 -0.01470640 -0.01233453 0.38039216 0.78823529 0.52549020
v -0.04926923 -0.01487945 -0.01216049 0.38039216 0.78823529 0.52549020
v -0.04926923 -0.01489138 -0.01214557 0.38039216 0.78823529 0.52549020
v -0.04926923 -0.01524344 0.01117588 0.38039216 0.78823529 0.52549020
v -0.04926923 -0.01521957 0.01143694 0.38039216 0.78823529 0.52549020
v -0.04926923 -0.01515393 0.01168557 0.38039216 0.78823529 0.52549020
v -0.04926923 -0.01514498 0.01170795 0.38039216 0.78823529 0.52549020
v -0.04926923 -0.01504056 0.01192923 0.38039216 0.78823529 0.52549020
v -0.04926923 -0.01503459 0.01194166 0.38039216 0.78823529 0.52549020
v -0.04926923 -0.01487945 0.01216045 0.38039216 0.78823529 0.52549020
v -0.04926923 -0.01470640 0.01233449 0.38039216 0.78823529 0.52549020
v -0.05017079 -0.01469745 0.01234195 0.38039216 0.78823529 0.52549020
v -0.04926923 -0.01489138 0.01214554 0.38039216 0.78823529 0.52549020
v -0.05028941 -0.01447070 0.01249362 0.38039216 0.78823529 0.52549020
v -0.05025251 -0.01423202 0.01260799 0.38039216 0.78823529 0.52549020
v -0.05025251 -0.01396946 0.01267512 0.38039216 0.78823529 0.52549020
v -0.05232451 0.01371194 0.01269998 0.38039216 0.78823529 0.52549020
v -0.05232451 0.01397450 0.01267512 0.38039216 0.78823529 0.52549020
v -0.07467368 0.01423108 0.01260799 0.38039216 0.78823529 0.52549020
v -0.05021033 -0.01397841 0.01267512 0.38039216 0.78823529 0.52549020
v -0.05017079 -0.01398140 0.01267512 0.38039216 0.78823529 0.52549020
v -0.04926923 -0.01398438 0.01267512 0.38039216 0.78823529 0.52549020
v -0.04926923 -0.01373078 0.01269749 0.38039216 0.78823529 0.52549020
v -0.04926923 -0.01351596 0.01269998 0.38039216 0.78823529 0.52549020
v -0.05232451 0.01447275 0.01249362 0.38039216 0.78823529 0.52549020
v -0.06349909 0.01458314 0.01241903 0.38039216 0.78823529 0.52549020
v -0.06349909 0.01435341 0.01255080 0.38039216 0.78823529 0.52549020
v -0.05232451 0.01469055 0.01234195 0.38039216 0.78823529 0.52549020
v -0.05212153 0.01486061 0.01215548 0.38039216 0.78823529 0.52549020
v -0.05209517 0.01500979 0.01193669 0.38039216 0.78823529 0.52549020
v -0.05207671 0.01512018 0.01169552 0.38039216 0.78823529 0.52549020
v -0.05206353 0.01518880 0.01143943 0.38039216 0.78823529 0.52549020
v -0.05206090 0.01521267 0.01117588 0.38039216 0.78823529 0.52549020
v -0.05214789 0.01514405 -0.01166572 0.38039216 0.78823529 0.52549020
v -0.05206353 0.01503068 -0.01189197 0.38039216 0.78823529 0.52549020
v -0.05180520 0.01514405 -0.01117592 0.38039216 0.78823529 0.52549020
v -0.05181310 0.01514405 -0.01126543 0.38039216 0.78823529 0.52549020
v -0.05183419 0.01514405 -0.01135245 0.38039216 0.78823529 0.52549020
v -0.05187373 0.01514405 -0.01143449 0.38039216 0.78823529 0.52549020
v -0.05192645 0.01514405 -0.01150908 0.38039216 0.78823529 0.52549020
v -0.05198972 0.01514405 -0.01157373 0.38039216 0.78823529 0.52549020
v -0.05206353 0.01514405 -0.01162594 0.38039216 0.78823529 0.52549020
v -0.05198972 0.01487851 -0.01209585 0.38039216 0.78823529 0.52549020
v -0.05192645 0.01469055 -0.01227238 0.38039216 0.78823529 0.52549020
v -0.05187373 0.01447275 -0.01241410 0.38039216 0.78823529 0.52549020
v -0.05183419 0.01423108 -0.01252101 0.38039216 0.78823529 0.52549020
v -0.05181310 0.01397450 -0.01258565 0.38039216 0.78823529 0.52549020
v -0.04926923 0.00889649 -0.01267516 0.38039216 0.78823529 0.52549020
v -0.04926923 -0.01424693 -0.01260305 0.38039216 0.78823529 0.52549020
v -0.04926923 -0.01448263 -0.01249366 0.38039216 0.78823529 0.52549020
v -0.05017079 -0.01447965 -0.01249366 0.38039216 0.78823529 0.52549020
v -0.04926923 -0.01469148 -0.01234697 0.38039216 0.78823529 0.52549020
v -0.04926923 -0.01469148 0.01234693 0.38039216 0.78823529 0.52549020
v -0.04926923 -0.01448263 0.01249362 0.38039216 0.78823529 0.52549020
v -0.05017079 -0.01447965 0.01249362 0.38039216 0.78823529 0.52549020
v -0.05017079 -0.01423798 0.01260799 0.38039216 0.78823529 0.52549020
v -0.05209517 0.01384322 0.01267512 0.38039216 0.78823529 0.52549020
v -0.05212153 0.01388201 0.01267512 0.38039216 0.78823529 0.52549020
v -0.05215580 0.01391483 0.01267512 0.38039216 0.78823529 0.52549020
v -0.05219270 0.01394168 0.01267512 0.38039216 0.78823529 0.52549020
v -0.05223488 0.01395958 0.01267512 0.38039216 0.78823529 0.52549020
v -0.05227970 0.01397151 0.01267512 0.38039216 0.78823529 0.52549020
v -0.04926923 0.00862499 0.01269998 0.38039216 0.78823529 0.52549020
v -0.05232451 0.01423108 0.01260799 0.38039216 0.78823529 0.52549020
v -0.04926923 -0.01423202 0.01260799 0.38039216 0.78823529 0.52549020
v -0.05215580 0.01467563 0.01234195 0.38039216 0.78823529 0.52549020
v -0.05223488 0.01422512 0.01260799 0.38039216 0.78823529 0.52549020
v -0.05219270 0.01446082 0.01249362 0.38039216 0.78823529 0.52549020
v -0.05198972 0.01463088 0.01234195 0.38039216 0.78823529 0.52549020
v -0.05192645 0.01480691 0.01215548 0.38039216 0.78823529 0.52549020
v -0.05187373 0.01495012 0.01193669 0.38039216 0.78823529 0.52549020
v -0.05183683 0.01505753 0.01169552 0.38039216 0.78823529 0.52549020
v -0.05181310 0.01512018 0.01143943 0.38039216 0.78823529 0.52549020
v -0.05180520 0.01514405 0.01117588 0.38039216 0.78823529 0.52549020
v -0.05194491 0.01503068 -0.01183479 0.38039216 0.78823529 0.52549020
v -0.05183419 0.01487851 -0.01202375 0.38039216 0.78823529 0.52549020
v -0.05156267 0.01503068 -0.01117592 0.38039216 0.78823529 0.52549020
v -0.05157585 0.01503068 -0.01130769 0.38039216 0.78823529 0.52549020
v -0.05161012 0.01503068 -0.01143449 0.38039216 0.78823529 0.52549020
v -0.05166548 0.01503068 -0.01155632 0.38039216 0.78823529 0.52549020
v -0.05174193 0.01503068 -0.01166572 0.38039216 0.78823529 0.52549020
v -0.05183419 0.01503068 -0.01175771 0.38039216 0.78823529 0.52549020
v -0.05174193 0.01469055 -0.01218536 0.38039216 0.78823529 0.52549020
v -0.05166548 0.01447275 -0.01231713 0.38039216 0.78823529 0.52549020
v -0.05161012 0.01423108 -0.01241410 0.38039216 0.78823529 0.52549020
v -0.05157585 0.01397450 -0.01247377 0.38039216 0.78823529 0.52549020
v -0.04926923 0.00915307 -0.01260803 0.38039216 0.78823529 0.52549020
v -0.04926923 -0.01424693 0.01260301 0.38039216 0.78823529 0.52549020
v -0.05187373 0.01397151 0.01260799 0.38039216 0.78823529 0.52549020
v -0.04926923 0.00889649 0.01267512 0.38039216 0.78823529 0.52549020
v -0.05192645 0.01404610 0.01260799 0.38039216 0.78823529 0.52549020
v -0.05198972 0.01411174 0.01260799 0.38039216 0.78823529 0.52549020
v -0.05206353 0.01416246 0.01260799 0.38039216 0.78823529 0.52549020
v -0.05214789 0.01420125 0.01260799 0.38039216 0.78823529 0.52549020
v -0.05206353 0.01442800 0.01249362 0.38039216 0.78823529 0.52549020
v -0.05183683 0.01455927 0.01234195 0.38039216 0.78823529 0.52549020
v -0.05174193 0.01472337 0.01215548 0.38039216 0.78823529 0.52549020
v -0.05166548 0.01485464 0.01193669 0.38039216 0.78823529 0.52549020
v -0.05161012 0.01495012 0.01169552 0.38039216 0.78823529 0.52549020
v -0.05157585 0.01500979 0.01143943 0.38039216 0.78823529 0.52549020
v -0.05156267 0.01503068 0.01117588 0.38039216 0.78823529 0.52549020
v -0.05169447 0.01487851 -0.01192429 0.38039216 0.78823529 0.52549020
v -0.05157585 0.01469055 -0.01206850 0.38039216 0.78823529 0.52549020
v -0.05145459 0.01495609 -0.00000002 0.38039216 0.78823529 0.52549020
v -0.05134650 0.01487851 -0.01117592 0.38039216 0.78823529 0.52549020
v -0.05135968 0.01487851 -0.01134499 0.38039216 0.78823529 0.52549020
v -0.05140450 0.01487851 -0.01150908 0.38039216 0.78823529 0.52549020
v -0.05147567 0.01487851 -0.01166572 0.38039216 0.78823529 0.52549020
v -0.05157585 0.01487851 -0.01180495 0.38039216 0.78823529 0.52549020
v -0.05147567 0.01447275 -0.01218536 0.38039216 0.78823529 0.52549020
v -0.05140450 0.01423108 -0.01227238 0.38039216 0.78823529 0.52549020
v -0.04926923 0.00939176 -0.01249366 0.38039216 0.78823529 0.52549020
v -0.05166548 0.01409086 0.01249362 0.38039216 0.78823529 0.52549020
v -0.05174193 0.01420125 0.01249362 0.38039216 0.78823529 0.52549020
v -0.04926923 0.00915307 0.01260799 0.38039216 0.78823529 0.52549020
v -0.05183683 0.01429374 0.01249362 0.38039216 0.78823529 0.52549020
v -0.05194491 0.01437131 0.01249362 0.38039216 0.78823529 0.52549020
v -0.05169447 0.01446082 0.01234195 0.38039216 0.78823529 0.52549020
v -0.05157585 0.01460403 0.01215548 0.38039216 0.78823529 0.52549020
v -0.05147567 0.01472337 0.01193669 0.38039216 0.78823529 0.52549020
v -0.05140450 0.01480691 0.01169552 0.38039216 0.78823529 0.52549020
v -0.05135968 0.01486061 0.01143943 0.38039216 0.78823529 0.52549020
v -0.05134650 0.01487851 0.01117588 0.38039216 0.78823529 0.52549020
v -0.05143086 0.01469055 -0.01192429 0.38039216 0.78823529 0.52549020
v -0.05125160 0.01478602 -0.00000002 0.38039216 0.78823529 0.52549020
v -0.05115670 0.01469055 -0.01117592 0.38039216 0.78823529 0.52549020
v -0.05117516 0.01469055 -0.01137731 0.38039216 0.78823529 0.52549020
v -0.05122788 0.01469055 -0.01157373 0.38039216 0.78823529 0.52549020
v -0.05131487 0.01469055 -0.01175771 0.38039216 0.78823529 0.52549020
v -0.05131487 0.01447275 -0.01202375 0.38039216 0.78823529 0.52549020
v -0.05122788 0.01423108 -0.01209585 0.38039216 0.78823529 0.52549020
v -0.04926923 0.00960956 -0.01234199 0.38039216 0.78823529 0.52549020
v -0.05108553 0.01423108 -0.01189197 0.38039216 0.78823529 0.52549020
v -0.05147567 0.01420125 0.01234195 0.38039216 0.78823529 0.52549020
v -0.05157585 0.01434147 0.01234195 0.38039216 0.78823529 0.52549020
v -0.04926923 0.00939176 0.01249362 0.38039216 0.78823529 0.52549020
v -0.05131487 0.01429374 0.01215548 0.38039216 0.78823529 0.52549020
v -0.05143086 0.01446082 0.01215548 0.38039216 0.78823529 0.52549020
v -0.05131487 0.01455927 0.01193669 0.38039216 0.78823529 0.52549020
v -0.05122788 0.01463088 0.01169552 0.38039216 0.78823529 0.52549020
v -0.05117516 0.01467563 0.01143943 0.38039216 0.78823529 0.52549020
v -0.05115670 0.01469055 0.01117588 0.38039216 0.78823529 0.52549020
v -0.05118306 0.01447275 -0.01183479 0.38039216 0.78823529 0.52549020
v -0.05100644 0.01447275 -0.01117592 0.38039216 0.78823529 0.52549020
v -0.05102490 0.01447275 -0.01140466 0.38039216 0.78823529 0.52549020
v -0.05108553 0.01447275 -0.01162594 0.38039216 0.78823529 0.52549020
v -0.04926923 0.00979752 -0.01215552 0.38039216 0.78823529 0.52549020
v -0.05098008 0.01423108 -0.01166572 0.38039216 0.78823529 0.52549020
v -0.04926923 0.00960956 0.01234195 0.38039216 0.78823529 0.52549020
v -0.05108553 0.01416246 0.01193669 0.38039216 0.78823529 0.52549020
v -0.05118306 0.01437131 0.01193669 0.38039216 0.78823529 0.52549020
v -0.05122788 0.01411174 0.01215548 0.38039216 0.78823529 0.52549020
v -0.05108553 0.01442800 0.01169552 0.38039216 0.78823529 0.52549020
v -0.05102490 0.01446082 0.01143943 0.38039216 0.78823529 0.52549020
v -0.05100644 0.01447275 0.01117588 0.38039216 0.78823529 0.52549020
v -0.05094845 0.01435341 -0.00000002 0.38039216 0.78823529 0.52549020
v -0.05089309 0.01423108 -0.01117592 0.38039216 0.78823529 0.52549020
v -0.05091418 0.01423108 -0.01142455 0.38039216 0.78823529 0.52549020
v -0.04926923 0.00994968 -0.01193673 0.38039216 0.78823529 0.52549020
v -0.04926923 0.00979752 0.01215548 0.38039216 0.78823529 0.52549020
v -0.05098008 0.01420125 0.01169552 0.38039216 0.78823529 0.52549020
v -0.05091418 0.01422512 0.01143943 0.38039216 0.78823529 0.52549020
v -0.05089309 0.01423108 0.01117588 0.38039216 0.78823529 0.52549020
v -0.04926923 0.01015555 -0.01117592 0.38039216 0.78823529 0.52549020
v -0.04926923 0.01013168 -0.01143947 0.38039216 0.78823529 0.52549020
v -0.04926923 0.01006306 -0.01169555 0.38039216 0.78823529 0.52549020
v -0.04926923 0.00994968 0.01193669 0.38039216 0.78823529 0.52549020
v -0.04926923 0.01006306 0.01169552 0.38039216 0.78823529 0.52549020
v -0.04926923 0.01013168 0.01143943 0.38039216 0.78823529 0.52549020
v -0.04926923 0.01015555 0.01117091 0.38039216 0.78823529 0.52549020
f 1 2 3
f 1 3 9
f 1 9 4
f 1 4 19
f 1 19 5
f 1 5 6
f 1 6 2
f 2 6 7
f 2 7 3
f 3 8 27
f 3 27 9
f 3 7 8
f 4 9 28
f 4 28 10
f 4 10 11
f 4 11 12
f 4 12 13
f 4 13 14
f 4 14 15
f 4 15 16
f 4 16 17
f 4 17 18
f 4 18 19
f 5 19 38
f 5 38 20
f 5 20 21
f 5 21 6
f 6 22 7
f 6 21 23
f 6 23 22
f 7 24 8
f 7 22 25
f 7 25 24
f 8 26 52
f 8 52 27
f 8 24 26
f 9 27 28
f 10 28 54
f 10 54 29
f 10 29 30
f 10 30 11
f 11 30 12
f 12 30 31
f 12 31 13
f 13 31 32
f 13 32 33
f 13 33 14
f 14 33 34
f 14 34 15
f 15 34 16
f 16 34 35
f 16 35 36
f 16 36 17
f 17 36 37
f 17 37 18
f 18 37 19
f 19 37 38
f 20 39 40
f 20 40 41
f 20 41 21
f 20 38 64
f 20 64 39
f 21 41 42
f 21 42 23
f 22 23 25
f 23 42 43
f 23 43 44
f 23 44 45
f 23 45 25
f 24 25 46
f 24 46 47
f 24 47 26
f 25 45 48
f 25 48 49
f 25 49 46
f 26 47 50
f 26 50 51
f 26 51 82
f 26 82 52
f 27 52 53
f 27 53 28
f 28 53 54
f 29 54 87
f 29 87 55
f 29 55 30
f 30 55 56
f 30 56 57
f 30 57 31
f 31 57 58
f 31 58 32
f 32 58 33
f 33 58 59
f 33 59 60
f 33 60 34
f 34 60 35
f 35 60 61
f 35 61 62
f 35 62 36
f 36 62 37
f 37 62 63
f 37 63 64
f 37 64 38
f 39 65 66
f 39 66 40
f 39 64 98
f 39 98 65
f 40 66 67
f 40 67 41
f 41 67 68
f 41 68 42
f 42 68 43
f 43 68 69
f 43 69 70
f 43 70 71
f 43 71 72
f 43 72 44
f 44 73 48
f 44 48 45
f 44 72 73
f 46 74 47
f 46 49 74
f 47 74 75
f 47 75 50
f 48 73 76
f 48 76 49
f 49 77 74
f 49 76 78
f 49 78 79
f 49 79 77
f 50 80 51
f 50 75 80
f 51 80 81
f 51 81 120
f 51 120 82
f 52 82 83
f 52 83 84
f 52 84 53
f 53 84 85
f 53 85 86
f 53 86 54
f 54 86 87
f 55 87 88
f 55 88 89
f 55 89 90
f 55 90 56
f 56 90 57
f 57 90 91
f 57 91 92
f 57 92 58
f 58 92 93
f 58 93 59
f 59 93 94
f 59 94 60
f 60 95 61
f 60 94 95
f 61 95 62
f 62 95 96
f 62 96 97
f 62 97 63
f 63 97 64
f 64 97 98
f 65 99 66
f 65 98 137
f 65 137 99
f 66 99 100
f 66 100 101
f 66 101 102
f 66 102 67
f 67 103 104
f 67 104 69
f 67 69 68
f 67 102 103
f 69 104 70
f 70 105 71
f 70 104 106
f 70 106 105
f 71 105 107
f 71 107 72
f 72 108 76
f 72 76 73
f 72 107 109
f 72 109 108
f 74 77 75
f 75 77 110
f 75 110 111
f 75 111 112
f 75 112 80
f 76 108 113
f 76 113 114
f 76 114 78
f 77 79 110
f 78 114 115
f 78 115 79
f 79 115 116
f 79 116 110
f 80 117 118
f 80 118 81
f 80 112 119
f 80 119 117
f 81 118 162
f 81 162 120
f 82 120 121
f 82 121 83
f 83 122 85
f 83 85 84
f 83 121 122
f 85 122 123
f 85 123 86
f 86 123 124
f 86 124 87
f 87 125 126
f 87 126 88
f 87 124 125
f 88 126 89
f 89 126 127
f 89 127 128
f 89 128 90
f 90 128 129
f 90 129 91
f 91 129 130
f 91 130 131
f 91 131 92
f 92 131 93
f 93 132 94
f 93 131 133
f 93 133 132
f 94 132 95
f 95 134 96
f 95 132 135
f 95 135 134
f 96 134 97
f 97 136 98
f 97 134 136
f 98 136 137
f 99 138 139
f 99 139 100
f 99 137 184
f 99 184 138
f 100 139 101
f 101 140 141
f 101 141 142
f 101 142 103
f 101 103 102
f 101 139 140
f 103 142 143
f 103 143 104
f 104 143 106
f 105 144 107
f 105 106 145
f 105 145 146
f 105 146 147
f 105 147 148
f 105 148 144
f 106 143 149
f 106 149 145
f 107 144 109
f 108 109 113
f 109 144 150
f 109 150 154
f 109 154 113
f 110 116 151
f 110 151 111
f 111 152 119
f 111 119 112
f 111 151 152
f 113 153 114
f 113 154 153
f 114 153 115
f 115 155 156
f 115 156 116
f 115 153 157
f 115 157 158
f 115 158 155
f 116 159 151
f 116 156 159
f 117 160 118
f 117 119 160
f 118 160 161
f 118 161 214
f 118 214 162
f 119 152 163
f 119 163 164
f 119 164 160
f 120 162 121
f 121 162 165
f 121 165 166
f 121 166 167
f 121 167 122
f 122 167 168
f 122 168 123
f 123 168 169
f 123 169 170
f 123 170 125
f 123 125 124
f 125 170 171
f 125 171 172
f 125 172 173
f 125 173 126
f 126 173 127
f 127 173 128
f 128 173 174
f 128 174 175
f 128 175 129
f 129 175 176
f 129 176 177
f 129 177 130
f 130 177 131
f 131 177 178
f 131 178 179
f 131 179 133
f 132 180 135
f 132 133 179
f 132 179 181
f 132 181 180
f 134 135 180
f 134 180 182
f 134 182 183
f 134 183 136
f 136 184 137
f 136 183 184
f 138 185 186
f 138 186 139
f 138 184 239
f 138 239 185
f 139 186 140
f 140 187 141
f 140 186 188
f 140 188 187
f 141 187 189
f 141 189 190
f 141 190 142
f 142 190 143
f 143 191 149
f 143 190 191
f 144 148 192
f 144 192 193
f 144 193 150
f 145 194 146
f 145 149 197
f 145 197 194
f 146 194 195
f 146 195 147
f 147 195 196
f 147 196 148
f 148 196 192
f 149 191 198
f 149 198 197
f 150 193 199
f 150 199 200
f 150 200 205
f 150 205 154
f 151 159 201
f 151 201 202
f 151 202 152
f 152 202 163
f 153 154 203
f 153 203 204
f 153 204 157
f 154 205 206
f 154 206 203
f 155 207 156
f 155 158 208
f 155 208 207
f 156 207 210
f 156 210 159
f 157 204 209
f 157 209 158
f 158 209 208
f 159 210 211
f 159 211 201
f 160 212 161
f 160 164 212
f 161 212 213
f 161 213 274
f 161 274 214
f 162 214 215
f 162 215 165
f 163 216 164
f 163 202 217
f 163 217 216
f 164 216 218
f 164 218 212
f 165 215 166
f 166 219 220
f 166 220 221
f 166 221 167
f 166 215 219
f 167 221 222
f 167 222 168
f 168 222 223
f 168 223 169
f 169 224 170
f 169 223 224
f 170 224 171
f 171 225 226
f 171 226 227
f 171 227 172
f 171 224 225
f 172 227 173
f 173 227 228
f 173 228 174
f 174 228 175
f 175 228 229
f 175 229 230
f 175 230 176
f 176 230 231
f 176 231 232
f 176 232 177
f 177 232 178
f 178 232 233
f 178 233 179
f 179 234 181
f 179 233 235
f 179 235 234
f 180 181 234
f 180 234 236
f 180 236 237
f 180 237 182
f 182 237 183
f 183 237 238
f 183 238 239
f 183 239 184
f 185 240 186
f 185 239 299
f 185 299 240
f 186 241 188
f 186 240 242
f 186 242 241
f 187 243 189
f 187 188 241
f 187 241 244
f 187 244 245
f 187 245 243
f 189 243 246
f 189 246 247
f 189 247 190
f 190 247 191
f 191 247 248
f 191 248 249
f 191 249 250
f 191 250 251
f 191 251 198
f 192 196 193
f 193 196 199
f 194 197 195
f 195 198 252
f 195 252 253
f 195 253 254
f 195 254 255
f 195 255 196
f 195 197 198
f 196 255 199
f 198 251 256
f 198 256 252
f 199 257 200
f 199 255 257
f 200 257 258
f 200 258 264
f 200 264 205
f 201 259 260
f 201 260 261
f 201 261 202
f 201 211 262
f 201 262 263
f 201 263 259
f 202 261 217
f 203 206 209
f 203 209 204
f 205 264 265
f 205 265 206
f 206 265 266
f 206 266 209
f 207 208 210
f 208 209 266
f 208 266 267
f 208 267 268
f 208 268 269
f 208 269 211
f 208 211 210
f 211 269 270
f 211 270 262
f 212 218 271
f 212 271 272
f 212 272 273
f 212 273 213
f 213 273 325
f 213 325 274
f 214 274 215
f 215 274 275
f 215 275 219
f 216 217 276
f 216 276 277
f 216 277 278
f 216 278 271
f 216 271 218
f 217 261 279
f 217 279 276
f 219 280 220
f 219 275 281
f 219 281 280
f 220 280 282
f 220 282 221
f 221 282 283
f 221 283 223
f 221 223 222
f 223 283 284
f 223 284 224
f 224 284 285
f 224 285 225
f 225 286 287
f 225 287 226
f 225 285 286
f 226 287 227
f 227 287 288
f 227 288 289
f 227 289 228
f 228 289 229
f 229 289 230
f 230 290 231
f 230 289 342
f 230 342 291
f 230 291 290
f 231 290 232
f 232 292 233
f 232 290 293
f 232 293 292
f 233 292 294
f 233 294 235
f 234 235 294
f 234 294 295
f 234 295 236
f 236 296 297
f 236 297 237
f 236 295 296
f 237 297 238
f 238 298 239
f 238 297 298
f 239 298 299
f 240 300 242
f 240 299 353
f 240 353 300
f 241 242 300
f 241 300 244
f 243 245 246
f 244 300 245
f 245 300 301
f 245 301 246
f 246 302 248
f 246 248 247
f 246 301 356
f 246 356 302
f 248 302 303
f 248 303 304
f 248 304 250
f 248 250 249
f 250 304 256
f 250 256 251
f 252 256 253
f 253 305 254
f 253 256 306
f 253 306 305
f 254 305 307
f 254 307 255
f 255 307 308
f 255 308 257
f 256 304 309
f 256 309 306
f 257 310 311
f 257 311 312
f 257 312 258
f 257 308 310
f 258 312 316
f 258 316 264
f 259 263 260
f 260 313 279
f 260 279 261
f 260 263 314
f 260 314 315
f 260 315 313
f 262 270 263
f 263 270 314
f 264 316 265
f 265 316 317
f 265 317 318
f 265 318 319
f 265 319 266
f 266 319 320
f 266 320 267
f 267 321 268
f 267 320 321
f 268 321 322
f 268 322 270
f 268 270 269
f 270 323 314
f 270 322 323
f 271 278 324
f 271 324 272
f 272 324 273
f 273 324 383
f 273 383 325
f 274 325 275
f 275 326 327
f 275 327 281
f 275 325 326
f 276 279 277
f 277 328 324
f 277 324 278
f 277 279 328
f 279 313 369
f 279 369 328
f 280 329 282
f 280 281 327
f 280 327 330
f 280 330 331
f 280 331 329
f 282 332 333
f 282 333 283
f 282 329 334
f 282 334 332
f 283 333 284
f 284 333 285
f 285 333 335
f 285 335 336
f 285 336 337
f 285 337 286
f 286 338 287
f 286 337 339
f 286 339 338
f 287 338 340
f 287 340 341
f 287 341 288
f 288 341 289
f 289 341 342
f 290 343 293
f 290 291 344
f 290 344 343
f 291 342 345
f 291 345 346
f 291 346 344
f 292 293 343
f 292 343 347
f 292 347 294
f 294 348 295
f 294 347 348
f 295 349 350
f 295 350 296
f 295 348 349
f 296 350 297
f 297 351 298
f 297 350 351
f 298 352 353
f 298 353 299
f 298 351 352
f 300 353 411
f 300 411 483
f 300 483 412
f 300 412 354
f 300 354 355
f 300 355 301
f 301 355 356
f 302 356 422
f 302 422 357
f 302 357 303
f 303 357 358
f 303 358 304
f 304 358 309
f 305 306 359
f 305 359 360
f 305 360 361
f 305 361 307
f 306 309 359
f 307 362 310
f 307 310 308
f 307 361 362
f 309 363 359
f 309 358 364
f 309 364 363
f 310 365 366
f 310 366 311
f 310 362 367
f 310 367 365
f 311 366 312
f 312 366 368
f 312 368 372
f 312 372 316
f 313 315 370
f 313 370 433
f 313 433 369
f 314 323 371
f 314 371 315
f 315 371 370
f 316 372 373
f 316 373 317
f 317 373 318
f 318 373 374
f 318 374 375
f 318 375 376
f 318 376 320
f 318 320 319
f 320 376 377
f 320 377 321
f 321 378 379
f 321 379 322
f 321 377 378
f 322 379 323
f 323 379 380
f 323 380 381
f 323 381 371
f 324 382 447
f 324 447 383
f 324 328 384
f 324 384 385
f 324 385 382
f 325 383 326
f 326 383 327
f 327 383 330
f 328 369 384
f 329 331 386
f 329 386 334
f 330 383 331
f 331 383 386
f 332 387 333
f 332 334 387
f 333 387 335
f 334 386 388
f 334 388 389
f 334 389 387
f 335 387 390
f 335 390 336
f 336 391 337
f 336 390 391
f 337 391 339
f 338 392 393
f 338 393 340
f 338 339 392
f 339 391 394
f 339 394 392
f 340 393 341
f 341 393 395
f 341 395 342
f 342 395 396
f 342 396 345
f 343 397 398
f 343 398 347
f 343 344 399
f 343 399 397
f 344 346 400
f 344 400 399
f 345 396 346
f 346 396 465
f 346 465 400
f 347 401 402
f 347 402 348
f 347 398 401
f 348 403 404
f 348 404 349
f 348 402 403
f 349 404 405
f 349 405 406
f 349 406 350
f 350 406 407
f 350 407 408
f 350 408 351
f 351 408 409
f 351 409 410
f 351 410 352
f 352 410 411
f 352 411 353
f 354 412 413
f 354 413 414
f 354 414 415
f 354 415 416
f 354 416 417
f 354 417 418
f 354 418 419
f 354 419 420
f 354 420 421
f 354 421 355
f 355 421 422
f 355 422 356
f 357 422 420
f 357 420 358
f 358 420 419
f 358 419 364
f 359 363 423
f 359 423 360
f 360 424 361
f 360 423 424
f 361 424 425
f 361 425 367
f 361 367 362
f 363 364 426
f 363 426 427
f 363 427 423
f 364 419 418
f 364 418 426
f 365 367 428
f 365 428 366
f 366 428 429
f 366 429 430
f 366 430 368
f 367 431 428
f 367 425 432
f 367 432 431
f 368 430 435
f 368 435 372
f 369 433 451
f 369 451 384
f 370 371 434
f 370 434 433
f 371 381 446
f 371 446 434
f 372 435 373
f 373 436 437
f 373 437 374
f 373 435 436
f 374 437 375
f 375 437 438
f 375 438 439
f 375 439 440
f 375 440 377
f 375 377 376
f 377 440 441
f 377 441 378
f 378 441 442
f 378 442 379
f 379 442 380
f 380 443 444
f 380 444 381
f 380 442 443
f 381 445 446
f 381 444 445
f 382 385 452
f 382 452 520
f 382 520 559
f 382 559 513
f 382 513 447
f 383 447 448
f 383 448 449
f 383 449 450
f 383 450 388
f 383 388 386
f 384 451 452
f 384 452 385
f 387 389 453
f 387 453 390
f 388 450 453
f 388 453 389
f 390 453 454
f 390 454 455
f 390 455 391
f 391 455 456
f 391 456 457
f 391 457 394
f 392 394 458
f 392 458 459
f 392 459 460
f 392 460 393
f 393 460 461
f 393 461 464
f 393 464 395
f 394 457 462
f 394 462 463
f 394 463 458
f 395 464 465
f 395 465 396
f 397 466 401
f 397 401 398
f 397 399 466
f 399 400 467
f 399 467 466
f 400 468 469
f 400 469 470
f 400 470 471
f 400 471 472
f 400 472 473
f 400 473 474
f 400 474 475
f 400 475 467
f 400 465 529
f 400 529 468
f 401 476 477
f 401 477 403
f 401 403 402
f 401 466 476
f 403 477 478
f 403 478 405
f 403 405 404
f 405 478 407
f 405 407 406
f 407 478 479
f 407 479 409
f 407 409 408
f 409 479 480
f 409 480 481
f 409 481 410
f 410 481 411
f 411 481 482
f 411 482 483
f 412 483 544
f 412 544 583
f 412 583 608
f 412 608 628
f 412 628 643
f 412 643 655
f 412 655 662
f 412 662 661
f 412 661 660
f 412 660 666
f 412 666 665
f 412 665 664
f 412 664 663
f 412 663 656
f 412 656 645
f 412 645 632
f 412 632 611
f 412 611 586
f 412 586 559
f 412 559 520
f 412 520 519
f 412 519 518
f 412 518 561
f 412 561 584
f 412 584 550
f 412 550 549
f 412 549 507
f 412 507 506
f 412 506 509
f 412 509 505
f 412 505 504
f 412 504 503
f 412 503 502
f 412 502 501
f 412 501 500
f 412 500 494
f 412 494 493
f 412 493 492
f 412 492 491
f 412 491 489
f 412 489 490
f 412 490 496
f 412 496 495
f 412 495 499
f 412 499 498
f 412 498 497
f 412 497 548
f 412 548 546
f 412 546 545
f 412 545 484
f 412 484 414
f 412 414 413
f 414 484 485
f 414 485 415
f 415 485 486
f 415 486 416
f 416 486 417
f 417 486 427
f 417 427 418
f 418 427 426
f 420 422 421
f 423 427 487
f 423 487 424
f 424 488 432
f 424 432 425
f 424 487 488
f 427 486 487
f 428 489 429
f 428 431 490
f 428 490 489
f 429 489 491
f 429 491 492
f 429 492 430
f 430 492 493
f 430 493 494
f 430 494 500
f 430 500 435
f 431 495 496
f 431 496 490
f 431 432 495
f 432 488 497
f 432 497 498
f 432 498 499
f 432 499 495
f 433 434 451
f 434 446 452
f 434 452 451
f 435 500 436
f 436 501 502
f 436 502 437
f 436 500 501
f 437 502 503
f 437 503 438
f 438 503 504
f 438 504 505
f 438 505 439
f 439 506 507
f 439 507 508
f 439 508 441
f 439 441 440
f 439 505 509
f 439 509 506
f 441 508 510
f 441 510 442
f 442 510 443
f 443 511 512
f 443 512 445
f 443 445 444
f 443 510 511
f 445 512 452
f 445 452 446
f 447 513 514
f 447 514 448
f 448 514 560
f 448 560 515
f 448 515 449
f 449 515 454
f 449 454 450
f 450 454 453
f 452 512 516
f 452 516 517
f 452 517 518
f 452 518 519
f 452 519 520
f 454 515 456
f 454 456 455
f 456 521 522
f 456 522 457
f 456 515 523
f 456 523 521
f 457 522 524
f 457 524 462
f 458 463 459
f 459 463 525
f 459 525 526
f 459 526 461
f 459 461 460
f 461 526 527
f 461 527 528
f 461 528 464
f 462 524 463
f 463 524 525
f 464 528 529
f 464 529 465
f 466 467 475
f 466 475 530
f 466 530 531
f 466 531 476
f 468 529 570
f 468 570 532
f 468 532 469
f 469 532 533
f 469 533 534
f 469 534 470
f 470 534 471
f 471 534 535
f 471 535 536
f 471 536 472
f 472 536 537
f 472 537 473
f 473 537 474
f 474 537 538
f 474 538 530
f 474 530 475
f 476 531 477
f 477 531 539
f 477 539 540
f 477 540 478
f 478 540 479
f 479 541 542
f 479 542 480
f 479 540 541
f 480 542 481
f 481 542 543
f 481 543 544
f 481 544 483
f 481 483 482
f 484 545 485
f 485 545 546
f 485 546 547
f 485 547 486
f 486 547 487
f 487 547 488
f 488 547 546
f 488 546 548
f 488 548 497
f 507 549 508
f 508 549 550
f 508 550 551
f 508 551 510
f 510 551 511
f 511 552 517
f 511 517 516
f 511 516 512
f 511 551 552
f 513 553 554
f 513 554 555
f 513 555 556
f 513 556 557
f 513 557 558
f 513 558 514
f 513 559 553
f 514 558 563
f 514 563 560
f 515 560 523
f 517 552 518
f 518 552 561
f 521 562 524
f 521 524 522
f 521 523 560
f 521 560 563
f 521 563 564
f 521 564 562
f 524 562 525
f 525 562 565
f 525 565 566
f 525 566 567
f 525 567 526
f 526 567 568
f 526 568 527
f 527 568 528
f 528 568 569
f 528 569 570
f 528 570 529
f 530 538 531
f 531 571 572
f 531 572 539
f 531 538 571
f 532 573 533
f 532 570 597
f 532 597 573
f 533 573 574
f 533 574 534
f 534 574 575
f 534 575 576
f 534 576 535
f 535 576 577
f 535 577 536
f 536 577 537
f 537 577 578
f 537 578 538
f 538 578 571
f 539 572 540
f 540 579 580
f 540 580 541
f 540 572 579
f 541 580 542
f 542 580 581
f 542 581 582
f 542 582 543
f 543 582 544
f 544 582 583
f 550 584 552
f 550 552 551
f 552 584 561
f 553 585 554
f 553 559 586
f 553 586 585
f 554 585 587
f 554 587 588
f 554 588 555
f 555 588 556
f 556 588 589
f 556 589 590
f 556 590 557
f 557 590 563
f 557 563 558
f 562 564 591
f 562 591 565
f 563 590 591
f 563 591 564
f 565 592 593
f 565 593 566
f 565 591 592
f 566 593 567
f 567 593 594
f 567 594 568
f 568 594 595
f 568 595 596
f 568 596 569
f 569 596 570
f 570 596 597
f 571 578 572
f 572 578 598
f 572 598 599
f 572 599 579
f 573 597 600
f 573 600 601
f 573 601 602
f 573 602 574
f 574 602 575
f 575 602 603
f 575 603 604
f 575 604 576
f 576 604 577
f 577 604 605
f 577 605 598
f 577 598 578
f 579 599 606
f 579 606 580
f 580 606 607
f 580 607 581
f 581 607 583
f 581 583 582
f 583 607 608
f 585 609 610
f 585 610 587
f 585 586 609
f 586 611 609
f 587 610 588
f 588 610 612
f 588 612 613
f 588 613 589
f 589 613 591
f 589 591 590
f 591 613 592
f 592 613 614
f 592 614 593
f 593 614 615
f 593 615 616
f 593 616 594
f 594 616 595
f 595 616 617
f 595 617 618
f 595 618 596
f 596 618 597
f 597 618 619
f 597 619 600
f 598 605 620
f 598 620 599
f 599 620 606
f 600 619 601
f 601 621 622
f 601 622 602
f 601 619 621
f 602 622 623
f 602 623 624
f 602 624 603
f 603 624 604
f 604 624 625
f 604 625 620
f 604 620 605
f 606 626 627
f 606 627 607
f 606 620 626
f 607 627 608
f 608 627 629
f 608 629 628
f 609 630 610
f 609 611 630
f 610 630 631
f 610 631 614
f 610 614 612
f 611 632 633
f 611 633 630
f 612 614 613
f 614 631 634
f 614 634 615
f 615 634 616
f 616 634 635
f 616 635 636
f 616 636 617
f 617 636 618
f 618 636 637
f 618 637 638
f 618 638 619
f 619 638 621
f 620 625 639
f 620 639 626
f 621 638 622
f 622 640 641
f 622 641 623
f 622 638 651
f 622 651 640
f 623 641 624
f 624 641 642
f 624 642 639
f 624 639 625
f 626 639 629
f 626 629 627
f 628 629 644
f 628 644 643
f 629 639 642
f 629 642 644
f 630 633 634
f 630 634 631
f 632 645 646
f 632 646 647
f 632 647 648
f 632 648 633
f 633 647 634
f 633 648 647
f 634 647 635
f 635 647 649
f 635 649 636
f 636 649 637
f 637 649 650
f 637 650 638
f 638 650 651
f 640 651 652
f 640 652 653
f 640 653 641
f 641 653 654
f 641 654 644
f 641 644 642
f 643 644 655
f 644 654 655
f 645 656 657
f 645 657 646
f 646 657 649
f 646 649 647
f 649 657 658
f 649 658 650
f 650 658 651
f 651 658 659
f 651 659 652
f 652 659 653
f 653 660 661
f 653 661 654
f 653 659 666
f 653 666 660
f 654 661 662
f 654 662 655
f 656 663 658
f 656 658 657
f 658 663 664
f 658 664 665
f 658 665 659
f 659 665 666

