# https://github.com/mikedh/trimesh
v -0.13328400 0.09374800 -0.03125000
v -0.12328400 0.10374800 -0.03125000
v -0.13328400 0.09374800 0.03125000
v -0.12328400 0.10374800 0.03125000
v -0.12328400 0.12372200 -0.03125000
v -0.13328400 0.13372200 -0.03125000
v -0.12328400 0.12372200 0.03125000
v -0.13328400 0.13372200 0.03125000
v -0.09171600 0.09374800 -0.03125000
v -0.10171600 0.10374800 -0.03125000
v -0.09171600 0.09374800 0.03125000
v -0.10171600 0.10374800 0.03125000
v -0.10171600 0.12372200 -0.03125000
v -0.09171600 0.13372200 -0.03125000
v -0.10171600 0.12372200 0.03125000
v -0.09171600 0.13372200 0.03125000
f 2 1 6
f 2 10 1
f 2 4 10
f 2 7 4
f 4 7 3
f 4 3 11
f 2 6 5
f 2 5 7
f 5 6 14
f 7 8 3
f 5 15 7
f 7 15 8
f 10 9 1
f 10 13 9
f 10 12 13
f 4 11 12
f 10 4 12
f 12 11 16
f 5 13 15
f 5 14 13
f 13 14 9
f 15 16 8
f 13 12 15
f 12 16 15
f 1 3 6
f 1 11 3
f 6 8 14
f 3 8 6
f 1 9 11
f 11 9 16
f 9 14 16
f 8 16 14