# https://github.com/mikedh/trimesh
v -0.03150786 0.00750975 -0.01505697 1.69411764 0.04705881 1.84705881
v -0.03146955 -0.00782256 -0.00859698 1.69411764 0.04705881 1.84705881
v -0.03146955 -0.00752784 -0.01503924 1.69411764 0.04705881 1.84705881
v -0.03150786 0.00750975 -0.01522407 1.69411764 0.04705881 1.84705881
v -0.03181875 0.00750975 -0.00859698 1.69411764 0.04705881 1.84705881
v -0.03146955 -0.01800498 -0.00859698 1.69411764 0.04705881 1.84705881
v -0.03146955 -0.00752784 -0.01522407 1.69411764 0.04705881 1.84705881
v -0.03146955 -0.00754035 -0.01539114 1.69411764 0.04705881 1.84705881
v -0.03146955 -0.00756780 -0.01555572 1.69411764 0.04705881 1.84705881
v -0.03146955 -0.00761028 -0.01571859 1.69411764 0.04705881 1.84705881
v -0.03146955 -0.00766521 -0.01587723 1.69411764 0.04705881 1.84705881
v -0.03146955 -0.00773265 -0.01603167 1.69411764 0.04705881 1.84705881
v -0.03146955 -0.00781257 -0.01618020 1.69411764 0.04705881 1.84705881
v -0.03146955 -0.00791247 -0.01632786 1.69411764 0.04705881 1.84705881
v -0.03146955 -0.00812475 -0.01657935 1.69411764 0.04705881 1.84705881
v -0.03146955 -0.00838452 -0.01680129 1.69411764 0.04705881 1.84705881
v -0.03146955 -0.00867921 -0.01697934 1.69411764 0.04705881 1.84705881
v -0.03146955 -0.00900138 -0.01711101 1.69411764 0.04705881 1.84705881
v -0.03146955 -0.00903636 -0.01711944 1.69411764 0.04705881 1.84705881
v -0.03146955 -0.00933855 -0.01719117 1.69411764 0.04705881 1.84705881
v -0.03152064 0.00750975 -0.01539030 1.69411764 0.04705881 1.84705881
v -0.07497108 0.00750975 -0.00859698 1.69411764 0.04705881 1.84705881
v -0.03146955 -0.01800498 -0.01427130 1.69411764 0.04705881 1.84705881
v -0.07268847 -0.01800498 -0.00859698 1.69411764 0.04705881 1.84705881
v -0.03146955 -0.00938103 -0.01719453 1.69411764 0.04705881 1.84705881
v -0.03215091 0.00750975 -0.01658694 1.69411764 0.04705881 1.84705881
v -0.03191244 0.00750975 -0.01632618 1.69411764 0.04705881 1.84705881
v -0.03181023 0.00750975 -0.01618104 1.69411764 0.04705881 1.84705881
v -0.03172506 0.00750975 -0.01603083 1.69411764 0.04705881 1.84705881
v -0.03165267 0.00750975 -0.01587807 1.69411764 0.04705881 1.84705881
v -0.03159303 0.00750975 -0.01571772 1.69411764 0.04705881 1.84705881
v -0.03155046 0.00750975 -0.01555656 1.69411764 0.04705881 1.84705881
v -0.07497108 0.00750975 -0.01514727 1.69411764 0.04705881 1.84705881
v -0.07497108 -0.01584213 -0.00859698 1.69411764 0.04705881 1.84705881
v -0.03146955 -0.01800249 -0.01515738 1.69411764 0.04705881 1.84705881
v -0.03573240 -0.01800498 -0.01514727 1.69411764 0.04705881 1.84705881
v -0.07277364 -0.01799748 -0.00859698 1.69411764 0.04705881 1.84705881
v -0.07268847 -0.01800498 -0.01514727 1.69411764 0.04705881 1.84705881
v -0.03146955 -0.00968571 -0.01721817 1.69411764 0.04705881 1.84705881
v -0.03241494 0.00750975 -0.01680045 1.69411764 0.04705881 1.84705881
v -0.07496256 0.00750975 -0.01524177 1.69411764 0.04705881 1.84705881
v -0.07497108 -0.01584213 -0.01514727 1.69411764 0.04705881 1.84705881
v -0.07496682 -0.01592454 -0.00859698 1.69411764 0.04705881 1.84705881
v -0.03146955 -0.01799748 -0.01522659 1.69411764 0.04705881 1.84705881
v -0.03573240 -0.01797999 -0.01541730 1.69411764 0.04705881 1.84705881
v -0.07308453 -0.01797000 -0.00859698 1.69411764 0.04705881 1.84705881
v -0.07308453 -0.01797000 -0.01514727 1.69411764 0.04705881 1.84705881
v -0.07308027 -0.01797000 -0.01520970 1.69411764 0.04705881 1.84705881
v -0.07305897 -0.01797000 -0.01527048 1.69411764 0.04705881 1.84705881
v -0.07302918 -0.01797000 -0.01532700 1.69411764 0.04705881 1.84705881
v -0.07299084 -0.01797000 -0.01537848 1.69411764 0.04705881 1.84705881
v -0.07294398 -0.01797000 -0.01542237 1.69411764 0.04705881 1.84705881
v -0.07288437 -0.01797000 -0.01545867 1.69411764 0.04705881 1.84705881
v -0.07282476 -0.01797000 -0.01548483 1.69411764 0.04705881 1.84705881
v -0.07275660 -0.01797000 -0.01550169 1.69411764 0.04705881 1.84705881
v -0.07268847 -0.01797000 -0.01550676 1.69411764 0.04705881 1.84705881
v -0.03146955 -0.01797252 -0.01549665 1.69411764 0.04705881 1.84705881
v -0.03146955 -0.01506789 -0.01721817 1.69411764 0.04705881 1.84705881
v -0.03379047 0.00750975 -0.01721817 1.69411764 0.04705881 1.84705881
v -0.03345831 0.00750975 -0.01719369 1.69411764 0.04705881 1.84705881
v -0.03342423 0.00750975 -0.01719117 1.69411764 0.04705881 1.84705881
v -0.03306651 0.00750975 -0.01711101 1.69411764 0.04705881 1.84705881
v -0.03272583 0.00750975 -0.01697934 1.69411764 0.04705881 1.84705881
v -0.07493700 0.00750975 -0.01550676 1.69411764 0.04705881 1.84705881
v -0.07493700 -0.01584213 -0.01550676 1.69411764 0.04705881 1.84705881
v -0.07493700 -0.01621926 -0.01514727 1.69411764 0.04705881 1.84705881
v -0.07494552 -0.01613682 -0.00859698 1.69411764 0.04705881 1.84705881
v -0.07316544 -0.01795002 -0.00859698 1.69411764 0.04705881 1.84705881
v -0.07338690 -0.01789509 -0.00859698 1.69411764 0.04705881 1.84705881
v -0.07346781 -0.01787262 -0.01514727 1.69411764 0.04705881 1.84705881
v -0.07345929 -0.01787262 -0.01527048 1.69411764 0.04705881 1.84705881
v -0.07342095 -0.01787262 -0.01538946 1.69411764 0.04705881 1.84705881
v -0.07336560 -0.01787262 -0.01550169 1.69411764 0.04705881 1.84705881
v -0.07328469 -0.01787262 -0.01560213 1.69411764 0.04705881 1.84705881
v -0.07319100 -0.01787262 -0.01568988 1.69411764 0.04705881 1.84705881
v -0.07308027 -0.01787262 -0.01576077 1.69411764 0.04705881 1.84705881
v -0.07295250 -0.01787262 -0.01581309 1.69411764 0.04705881 1.84705881
v -0.07268847 -0.01787262 -0.01585530 1.69411764 0.04705881 1.84705881
v -0.07282476 -0.01787262 -0.01584432 1.69411764 0.04705881 1.84705881
v -0.03573240 -0.01794753 -0.01559367 1.69411764 0.04705881 1.84705881
v -0.03146955 -0.01796751 -0.01551690 1.69411764 0.04705881 1.84705881
v -0.03146955 -0.01585461 -0.01721649 1.69411764 0.04705881 1.84705881
v -0.03573240 -0.01584213 -0.01721817 1.69411764 0.04705881 1.84705881
v -0.07268847 0.00750975 -0.01721817 1.69411764 0.04705881 1.84705881
v -0.07491147 0.00750975 -0.01559874 1.69411764 0.04705881 1.84705881
v -0.07486461 0.00750975 -0.01576329 1.69411764 0.04705881 1.84705881
v -0.07483482 -0.01584213 -0.01585530 1.69411764 0.04705881 1.84705881
v -0.07490295 -0.01621926 -0.01550169 1.69411764 0.04705881 1.84705881
v -0.07493700 -0.01621926 -0.00859698 1.69411764 0.04705881 1.84705881
v -0.07483482 -0.01658139 -0.01514727 1.69411764 0.04705881 1.84705881
v -0.07491573 -0.01629666 -0.00859698 1.69411764 0.04705881 1.84705881
v -0.07346781 -0.01787262 -0.00859698 1.69411764 0.04705881 1.84705881
v -0.07354872 -0.01784013 -0.00859698 1.69411764 0.04705881 1.84705881
v -0.07382979 -0.01771527 -0.01514727 1.69411764 0.04705881 1.84705881
v -0.07381275 -0.01771527 -0.01532700 1.69411764 0.04705881 1.84705881
v -0.07376163 -0.01771527 -0.01550169 1.69411764 0.04705881 1.84705881
v -0.07367646 -0.01771527 -0.01566456 1.69411764 0.04705881 1.84705881
v -0.07356150 -0.01771527 -0.01581309 1.69411764 0.04705881 1.84705881
v -0.07342095 -0.01771527 -0.01594053 1.69411764 0.04705881 1.84705881
v -0.07325913 -0.01771527 -0.01604349 1.69411764 0.04705881 1.84705881
v -0.07308027 -0.01771527 -0.01612026 1.69411764 0.04705881 1.84705881
v -0.07268847 -0.01771527 -0.01618272 1.69411764 0.04705881 1.84705881
v -0.03146955 -0.01783014 -0.01594644 1.69411764 0.04705881 1.84705881
v -0.03573240 -0.01787262 -0.01585530 1.69411764 0.04705881 1.84705881
v -0.03146955 -0.01789509 -0.01577850 1.69411764 0.04705881 1.84705881
v -0.07288437 -0.01771527 -0.01616667 1.69411764 0.04705881 1.84705881
v -0.03146955 -0.01795002 -0.01558356 1.69411764 0.04705881 1.84705881
v -0.03146955 -0.01596951 -0.01720719 1.69411764 0.04705881 1.84705881
v -0.03146955 -0.01611435 -0.01719540 1.69411764 0.04705881 1.84705881
v -0.05421042 -0.01598448 -0.01720635 1.69411764 0.04705881 1.84705881
v -0.07268847 -0.01584213 -0.01721817 1.69411764 0.04705881 1.84705881
v -0.07308453 0.00750975 -0.01718610 1.69411764 0.04705881 1.84705881
v -0.07483482 0.00750975 -0.01585530 1.69411764 0.04705881 1.84705881
v -0.07479222 0.00750975 -0.01594137 1.69411764 0.04705881 1.84705881
v -0.07466871 -0.01584213 -0.01618272 1.69411764 0.04705881 1.84705881
v -0.07463892 -0.01621926 -0.01616667 1.69411764 0.04705881 1.84705881
v -0.07480074 -0.01621926 -0.01584432 1.69411764 0.04705881 1.84705881
v -0.07470705 -0.01658139 -0.01581309 1.69411764 0.04705881 1.84705881
v -0.07480074 -0.01658139 -0.01548483 1.69411764 0.04705881 1.84705881
v -0.07463892 -0.01692354 -0.01545867 1.69411764 0.04705881 1.84705881
v -0.07466871 -0.01692354 -0.01514727 1.69411764 0.04705881 1.84705881
v -0.07480074 -0.01665633 -0.00859698 1.69411764 0.04705881 1.84705881
v -0.07483482 -0.01658139 -0.00859698 1.69411764 0.04705881 1.84705881
v -0.07382979 -0.01771527 -0.00859698 1.69411764 0.04705881 1.84705881
v -0.07390218 -0.01766781 -0.00859698 1.69411764 0.04705881 1.84705881
v -0.07415769 -0.01749798 -0.01514727 1.69411764 0.04705881 1.84705881
v -0.07413639 -0.01749798 -0.01537848 1.69411764 0.04705881 1.84705881
v -0.07406826 -0.01749798 -0.01560213 1.69411764 0.04705881 1.84705881
v -0.07396179 -0.01749798 -0.01581309 1.69411764 0.04705881 1.84705881
v -0.07381275 -0.01749798 -0.01600296 1.69411764 0.04705881 1.84705881
v -0.07362963 -0.01749798 -0.01616667 1.69411764 0.04705881 1.84705881
v -0.07342095 -0.01749798 -0.01630002 1.69411764 0.04705881 1.84705881
v -0.07319100 -0.01749798 -0.01639791 1.69411764 0.04705881 1.84705881
v -0.07294398 -0.01749798 -0.01645782 1.69411764 0.04705881 1.84705881
v -0.07268847 -0.01749798 -0.01647807 1.69411764 0.04705881 1.84705881
v -0.05421042 -0.01758039 -0.01636752 1.69411764 0.04705881 1.84705881
v -0.03573240 -0.01771527 -0.01618272 1.69411764 0.04705881 1.84705881
v -0.03573240 -0.01775523 -0.01610085 1.69411764 0.04705881 1.84705881
v -0.03146955 -0.01775022 -0.01611015 1.69411764 0.04705881 1.84705881
v -0.03146955 -0.01786761 -0.01586457 1.69411764 0.04705881 1.84705881
v -0.03146955 -0.01787511 -0.01584516 1.69411764 0.04705881 1.84705881
v -0.03146955 -0.01620675 -0.01718694 1.69411764 0.04705881 1.84705881
v -0.03573240 -0.01621926 -0.01718610 1.69411764 0.04705881 1.84705881
v -0.03573240 -0.01612434 -0.01719453 1.69411764 0.04705881 1.84705881
v -0.07268847 -0.01621926 -0.01718610 1.69411764 0.04705881 1.84705881
v -0.07308027 -0.01621926 -0.01715571 1.69411764 0.04705881 1.84705881
v -0.07308453 -0.01584213 -0.01718610 1.69411764 0.04705881 1.84705881
v -0.07318674 0.00750975 -0.01716162 1.69411764 0.04705881 1.84705881
v -0.07466871 0.00750975 -0.01618272 1.69411764 0.04705881 1.84705881
v -0.07443876 -0.01584213 -0.01647807 1.69411764 0.04705881 1.84705881
v -0.07441320 -0.01621926 -0.01645782 1.69411764 0.04705881 1.84705881
v -0.07454949 -0.01658139 -0.01612026 1.69411764 0.04705881 1.84705881
v -0.07454949 -0.01692354 -0.01576077 1.69411764 0.04705881 1.84705881
v -0.07441320 -0.01723074 -0.01542237 1.69411764 0.04705881 1.84705881
v -0.07466871 -0.01692354 -0.00859698 1.69411764 0.04705881 1.84705881
v -0.07443876 -0.01723074 -0.01514727 1.69411764 0.04705881 1.84705881
v -0.07415769 -0.01749798 -0.00859698 1.69411764 0.04705881 1.84705881
v -0.07437915 -0.01728819 -0.00859698 1.69411764 0.04705881 1.84705881
v -0.07433229 -0.01723074 -0.01568988 1.69411764 0.04705881 1.84705881
v -0.07420455 -0.01723074 -0.01594053 1.69411764 0.04705881 1.84705881
v -0.07402992 -0.01723074 -0.01616667 1.69411764 0.04705881 1.84705881
v -0.07381275 -0.01723074 -0.01636248 1.69411764 0.04705881 1.84705881
v -0.07356150 -0.01723074 -0.01652112 1.69411764 0.04705881 1.84705881
v -0.07299084 -0.01723074 -0.01670931 1.69411764 0.04705881 1.84705881
v -0.07328469 -0.01723074 -0.01663758 1.69411764 0.04705881 1.84705881
v -0.07268847 -0.01723074 -0.01673379 1.69411764 0.04705881 1.84705881
v -0.05421042 -0.01726572 -0.01670172 1.69411764 0.04705881 1.84705881
v -0.05421042 -0.01746552 -0.01651014 1.69411764 0.04705881 1.84705881
v -0.03146955 -0.01749048 -0.01648566 1.69411764 0.04705881 1.84705881
v -0.03573240 -0.01749798 -0.01647807 1.69411764 0.04705881 1.84705881
v -0.03146955 -0.01750548 -0.01646964 1.69411764 0.04705881 1.84705881
v -0.03146955 -0.01770777 -0.01619115 1.69411764 0.04705881 1.84705881
v -0.03146955 -0.01771776 -0.01617342 1.69411764 0.04705881 1.84705881
v -0.03146955 -0.01622925 -0.01718358 1.69411764 0.04705881 1.84705881
v -0.07268847 -0.01658139 -0.01709328 1.69411764 0.04705881 1.84705881
v -0.03573240 -0.01630917 -0.01716333 1.69411764 0.04705881 1.84705881
v -0.07305897 -0.01658139 -0.01706373 1.69411764 0.04705881 1.84705881
v -0.07342095 -0.01658139 -0.01697598 1.69411764 0.04705881 1.84705881
v -0.07345929 -0.01621926 -0.01706373 1.69411764 0.04705881 1.84705881
v -0.07346781 -0.01584213 -0.01709328 1.69411764 0.04705881 1.84705881
v -0.07336986 0.00750975 -0.01711776 1.69411764 0.04705881 1.84705881
v -0.07443876 0.00750975 -0.01647807 1.69411764 0.04705881 1.84705881
v -0.07436637 0.00750975 -0.01654560 1.69411764 0.04705881 1.84705881
v -0.07415769 -0.01584213 -0.01673379 1.69411764 0.04705881 1.84705881
v -0.07413639 -0.01621926 -0.01670931 1.69411764 0.04705881 1.84705881
v -0.07433229 -0.01658139 -0.01639791 1.69411764 0.04705881 1.84705881
v -0.07420455 -0.01692354 -0.01630002 1.69411764 0.04705881 1.84705881
v -0.07440042 -0.01692354 -0.01604349 1.69411764 0.04705881 1.84705881
v -0.07443876 -0.01723074 -0.00859698 1.69411764 0.04705881 1.84705881
v -0.07396179 -0.01692354 -0.01652112 1.69411764 0.04705881 1.84705881
v -0.07367646 -0.01692354 -0.01670001 1.69411764 0.04705881 1.84705881
v -0.07336560 -0.01692354 -0.01683252 1.69411764 0.04705881 1.84705881
v -0.07302918 -0.01692354 -0.01691352 1.69411764 0.04705881 1.84705881
v -0.07268847 -0.01692354 -0.01694052 1.69411764 0.04705881 1.84705881
v -0.03573240 -0.01715583 -0.01678524 1.69411764 0.04705881 1.84705881
v -0.03146955 -0.01722324 -0.01673970 1.69411764 0.04705881 1.84705881
v -0.03146955 -0.01724073 -0.01672617 1.69411764 0.04705881 1.84705881
v -0.03146955 -0.01744053 -0.01653462 1.69411764 0.04705881 1.84705881
v -0.03146955 -0.01629918 -0.01716585 1.69411764 0.04705881 1.84705881
v -0.03573240 -0.01658139 -0.01709328 1.69411764 0.04705881 1.84705881
v -0.03146955 -0.01665882 -0.01705953 1.69411764 0.04705881 1.84705881
v -0.05421042 -0.01671126 -0.01703589 1.69411764 0.04705881 1.84705881
v -0.07376163 -0.01658139 -0.01683252 1.69411764 0.04705881 1.84705881
v -0.07381275 -0.01621926 -0.01691352 1.69411764 0.04705881 1.84705881
v -0.07382979 -0.01584213 -0.01694052 1.69411764 0.04705881 1.84705881
v -0.07356573 0.00750975 -0.01705278 1.69411764 0.04705881 1.84705881
v -0.07346781 0.00750975 -0.01709328 1.69411764 0.04705881 1.84705881
v -0.07415769 -0.00000030 -0.01673379 1.69411764 0.04705881 1.84705881
v -0.07415769 0.00750975 -0.01673292 1.69411764 0.04705881 1.84705881
v -0.07407252 0.00750975 -0.01678779 1.69411764 0.04705881 1.84705881
v -0.07406826 -0.01658139 -0.01663758 1.69411764 0.04705881 1.84705881
v -0.03146955 -0.01684863 -0.01697430 1.69411764 0.04705881 1.84705881
v -0.03573240 -0.01692354 -0.01694052 1.69411764 0.04705881 1.84705881
v -0.03146955 -0.01693353 -0.01693461 1.69411764 0.04705881 1.84705881
v -0.03146955 -0.01657140 -0.01709580 1.69411764 0.04705881 1.84705881
v -0.03146955 -0.01659138 -0.01708821 1.69411764 0.04705881 1.84705881
v -0.07382979 0.00750975 -0.01694052 1.69411764 0.04705881 1.84705881
v -0.03146955 -0.01691355 -0.01694475 1.69411764 0.04705881 1.84705881
f 1 2 3
f 1 3 7
f 1 7 4
f 1 4 21
f 1 21 32
f 1 32 31
f 1 31 30
f 1 30 29
f 1 29 28
f 1 28 27
f 1 27 26
f 1 26 40
f 1 40 63
f 1 63 62
f 1 62 61
f 1 61 60
f 1 60 59
f 1 59 84
f 1 84 112
f 1 112 148
f 1 148 181
f 1 181 207
f 1 207 206
f 1 206 217
f 1 217 210
f 1 210 209
f 1 209 183
f 1 183 182
f 1 182 149
f 1 149 114
f 1 114 113
f 1 113 86
f 1 86 85
f 1 85 64
f 1 64 41
f 1 41 33
f 1 33 22
f 1 22 5
f 1 5 2
f 2 5 22
f 2 22 34
f 2 34 43
f 2 43 67
f 2 67 89
f 2 89 91
f 2 91 123
f 2 123 122
f 2 122 155
f 2 155 189
f 2 189 158
f 2 158 157
f 2 157 125
f 2 125 124
f 2 124 93
f 2 93 92
f 2 92 69
f 2 69 68
f 2 68 46
f 2 46 37
f 2 37 24
f 2 24 6
f 2 6 23
f 2 23 35
f 2 35 44
f 2 44 57
f 2 57 81
f 2 81 107
f 2 107 105
f 2 105 141
f 2 141 140
f 2 140 103
f 2 103 139
f 2 139 173
f 2 173 172
f 2 172 171
f 2 171 169
f 2 169 198
f 2 198 197
f 2 197 196
f 2 196 214
f 2 214 218
f 2 218 212
f 2 212 201
f 2 201 216
f 2 216 215
f 2 215 199
f 2 199 174
f 2 174 142
f 2 142 109
f 2 109 108
f 2 108 82
f 2 82 58
f 2 58 39
f 2 39 25
f 2 25 20
f 2 20 19
f 2 19 18
f 2 18 17
f 2 17 16
f 2 16 15
f 2 15 14
f 2 14 13
f 2 13 12
f 2 12 11
f 2 11 10
f 2 10 9
f 2 9 8
f 2 8 7
f 2 7 3
f 4 7 8
f 4 8 9
f 4 9 10
f 4 10 11
f 4 11 12
f 4 12 13
f 4 13 14
f 4 14 15
f 4 15 16
f 4 16 17
f 4 17 18
f 4 18 19
f 4 19 20
f 4 20 21
f 6 24 38
f 6 38 36
f 6 36 23
f 20 25 26
f 20 26 27
f 20 27 28
f 20 28 29
f 20 29 30
f 20 30 31
f 20 31 32
f 20 32 21
f 22 33 42
f 22 42 34
f 23 36 35
f 24 37 38
f 25 39 26
f 26 39 40
f 33 41 42
f 34 42 43
f 35 36 44
f 36 45 57
f 36 57 44
f 36 38 45
f 37 46 47
f 37 47 38
f 38 47 48
f 38 48 49
f 38 49 50
f 38 50 51
f 38 51 52
f 38 52 53
f 38 53 54
f 38 54 55
f 38 55 56
f 38 56 57
f 38 57 45
f 39 58 83
f 39 83 111
f 39 111 84
f 39 84 59
f 39 59 60
f 39 60 61
f 39 61 62
f 39 62 63
f 39 63 40
f 41 64 65
f 41 65 42
f 42 65 66
f 42 66 43
f 43 66 67
f 46 68 47
f 47 68 69
f 47 69 70
f 47 70 48
f 48 70 71
f 48 71 72
f 48 72 49
f 49 72 73
f 49 73 50
f 50 73 51
f 51 73 74
f 51 74 75
f 51 75 52
f 52 75 76
f 52 76 53
f 53 76 54
f 54 76 77
f 54 77 55
f 55 78 56
f 55 77 79
f 55 79 78
f 56 78 80
f 56 80 81
f 56 81 57
f 58 82 83
f 64 85 65
f 65 85 86
f 65 86 87
f 65 87 88
f 65 88 66
f 66 89 67
f 66 88 90
f 66 90 91
f 66 91 89
f 69 92 70
f 70 92 93
f 70 93 94
f 70 94 71
f 71 94 95
f 71 95 96
f 71 96 72
f 72 96 73
f 73 96 97
f 73 97 98
f 73 98 74
f 74 98 75
f 75 98 99
f 75 99 76
f 76 99 100
f 76 100 101
f 76 101 77
f 77 101 79
f 78 79 102
f 78 102 103
f 78 103 104
f 78 104 105
f 78 105 80
f 79 106 102
f 79 101 106
f 80 105 107
f 80 107 81
f 82 108 83
f 83 108 109
f 83 109 110
f 83 110 111
f 84 111 147
f 84 147 112
f 86 113 87
f 87 113 114
f 87 114 115
f 87 115 116
f 87 116 117
f 87 117 88
f 88 117 118
f 88 118 119
f 88 119 90
f 90 119 120
f 90 120 121
f 90 121 122
f 90 122 123
f 90 123 91
f 93 124 94
f 94 124 125
f 94 125 126
f 94 126 127
f 94 127 95
f 95 127 96
f 96 127 128
f 96 128 129
f 96 129 97
f 97 129 98
f 98 129 130
f 98 130 99
f 99 130 131
f 99 131 132
f 99 132 100
f 100 132 101
f 101 132 133
f 101 133 134
f 101 134 106
f 102 106 134
f 102 134 135
f 102 135 136
f 102 136 137
f 102 137 138
f 102 138 103
f 103 140 104
f 103 138 137
f 103 137 139
f 104 140 141
f 104 141 105
f 109 142 143
f 109 143 144
f 109 144 110
f 110 144 145
f 110 145 111
f 111 145 146
f 111 146 147
f 112 147 148
f 114 149 115
f 115 149 182
f 115 182 150
f 115 150 151
f 115 151 116
f 116 118 117
f 116 151 152
f 116 152 118
f 118 152 153
f 118 153 120
f 118 120 119
f 120 153 154
f 120 154 121
f 121 155 122
f 121 154 156
f 121 156 189
f 121 189 155
f 125 157 126
f 126 157 158
f 126 158 156
f 126 156 127
f 127 156 154
f 127 154 159
f 127 159 128
f 128 159 129
f 129 159 160
f 129 160 161
f 129 161 130
f 130 161 162
f 130 162 131
f 131 162 132
f 132 162 163
f 132 163 133
f 133 164 134
f 133 163 165
f 133 165 164
f 134 166 135
f 134 164 166
f 135 166 167
f 135 167 168
f 135 168 169
f 135 169 170
f 135 170 171
f 135 171 136
f 136 171 137
f 137 171 172
f 137 172 173
f 137 173 139
f 142 174 143
f 143 174 199
f 143 199 176
f 143 176 145
f 143 145 144
f 145 175 146
f 145 176 175
f 146 175 177
f 146 177 178
f 146 178 179
f 146 179 180
f 146 180 147
f 147 180 181
f 147 181 148
f 150 182 183
f 150 183 184
f 150 184 151
f 151 184 185
f 151 185 186
f 151 186 152
f 152 186 187
f 152 187 188
f 152 188 153
f 153 188 160
f 153 160 159
f 153 159 154
f 156 158 189
f 160 188 187
f 160 187 161
f 161 190 162
f 161 187 190
f 162 190 163
f 163 191 192
f 163 192 165
f 163 190 191
f 164 165 192
f 164 192 193
f 164 193 166
f 166 193 194
f 166 194 195
f 166 195 196
f 166 196 197
f 166 197 167
f 167 197 198
f 167 198 168
f 168 198 169
f 169 171 170
f 175 194 193
f 175 193 177
f 175 176 200
f 175 200 201
f 175 201 202
f 175 202 194
f 176 199 215
f 176 215 200
f 177 193 192
f 177 192 178
f 178 192 203
f 178 203 179
f 179 203 204
f 179 204 205
f 179 205 180
f 180 206 207
f 180 207 181
f 180 205 206
f 183 208 184
f 183 209 208
f 184 208 210
f 184 210 205
f 184 205 204
f 184 204 185
f 185 204 203
f 185 203 211
f 185 211 186
f 186 211 190
f 186 190 187
f 190 211 203
f 190 203 191
f 191 203 192
f 194 202 201
f 194 201 212
f 194 212 213
f 194 213 214
f 194 214 195
f 195 214 196
f 200 215 216
f 200 216 201
f 205 210 217
f 205 217 206
f 208 209 210
f 212 218 213
f 213 218 214