# https://github.com/mikedh/trimesh
v 0.07513341 0.01800498 0.01521942 1.62352941 1.27058823 1.92941175
v 0.03817410 0.01798032 0.01548936 1.62352941 1.27058823 1.92941175
v 0.05665377 0.01798383 0.01544466 1.62352941 1.27058823 1.92941175
v 0.07513341 0.01796973 0.01557879 1.62352941 1.27058823 1.92941175
v 0.07553496 0.01793802 0.01557375 1.62352941 1.27058823 1.92941175
v 0.07553496 0.01796973 0.01521942 1.62352941 1.27058823 1.92941175
v 0.07513341 0.01800498 0.00867282 1.62352941 1.27058823 1.92941175
v 0.00123057 0.01800498 0.01521942 1.62352941 1.27058823 1.92941175
v -0.00301338 0.01798737 0.01541007 1.62352941 1.27058823 1.92941175
v -0.00301338 0.01797327 0.01554843 1.62352941 1.27058823 1.92941175
v 0.00123057 0.01796973 0.01557879 1.62352941 1.27058823 1.92941175
v 0.05665377 0.01795917 0.01562268 1.62352941 1.27058823 1.92941175
v 0.07513341 0.01787457 0.01592805 1.62352941 1.27058823 1.92941175
v 0.07553496 0.01784283 0.01591710 1.62352941 1.27058823 1.92941175
v 0.07591290 0.01784283 0.01555770 1.62352941 1.27058823 1.92941175
v 0.07591290 0.01787457 0.01521942 1.62352941 1.27058823 1.92941175
v 0.07553496 0.01796973 0.00867282 1.62352941 1.27058823 1.92941175
v -0.00301338 0.01800498 0.00867282 1.62352941 1.27058823 1.92941175
v -0.00301338 0.01800498 0.01434879 1.62352941 1.27058823 1.92941175
v -0.00301338 0.01800147 0.01522953 1.62352941 1.27058823 1.92941175
v -0.00301338 0.01799088 0.01536873 1.62352941 1.27058823 1.92941175
v -0.00301338 0.01796622 0.01558893 1.62352941 1.27058823 1.92941175
v -0.00301338 0.01792038 0.01576356 1.62352941 1.27058823 1.92941175
v 0.01971021 0.01795917 0.01562268 1.62352941 1.27058823 1.92941175
v 0.03817410 0.01775472 0.01617273 1.62352941 1.27058823 1.92941175
v 0.05665377 0.01773357 0.01621404 1.62352941 1.27058823 1.92941175
v 0.07513341 0.01771242 0.01625454 1.62352941 1.27058823 1.92941175
v 0.07553496 0.01768422 0.01623936 1.62352941 1.27058823 1.92941175
v 0.00123057 0.01787457 0.01592805 1.62352941 1.27058823 1.92941175
v -0.00301338 0.01771947 0.01624527 1.62352941 1.27058823 1.92941175
v 0.07591290 0.01775118 0.01588503 1.62352941 1.27058823 1.92941175
v 0.07627509 0.01768422 0.01553070 1.62352941 1.27058823 1.92941175
v 0.07591290 0.01787457 0.00867282 1.62352941 1.27058823 1.92941175
v 0.07627509 0.01771242 0.01521942 1.62352941 1.27058823 1.92941175
v -0.00301338 -0.01800498 0.00867282 1.62352941 1.27058823 1.92941175
v -0.00301338 0.01788162 0.01589769 1.62352941 1.27058823 1.92941175
v 0.05665377 0.01768773 0.01629168 1.62352941 1.27058823 1.92941175
v 0.07513341 0.01749741 0.01655067 1.62352941 1.27058823 1.92941175
v -0.00301338 0.01770888 0.01626300 1.62352941 1.27058823 1.92941175
v 0.07553496 0.01747272 0.01653042 1.62352941 1.27058823 1.92941175
v 0.07591290 0.01739871 0.01647051 1.62352941 1.27058823 1.92941175
v 0.07591290 0.01759962 0.01619211 1.62352941 1.27058823 1.92941175
v -0.00301338 0.01787457 0.01591794 1.62352941 1.27058823 1.92941175
v -0.00301338 0.01786752 0.01593735 1.62352941 1.27058823 1.92941175
v -0.00301338 0.01778997 0.01610100 1.62352941 1.27058823 1.92941175
v 0.07627509 0.01746216 0.01611618 1.62352941 1.27058823 1.92941175
v 0.07627509 0.01759962 0.01583274 1.62352941 1.27058823 1.92941175
v 0.07660578 0.01739871 0.01576188 1.62352941 1.27058823 1.92941175
v 0.07660578 0.01747272 0.01549527 1.62352941 1.27058823 1.92941175
v 0.07627509 0.01771242 0.00867282 1.62352941 1.27058823 1.92941175
v 0.07634595 0.01766658 0.00867282 1.62352941 1.27058823 1.92941175
v 0.07660578 0.01749741 0.01521942 1.62352941 1.27058823 1.92941175
v -0.00301338 -0.01800498 0.01521942 1.62352941 1.27058823 1.92941175
v 0.07513341 -0.01800498 0.00867282 1.62352941 1.27058823 1.92941175
v 0.05665377 0.01752561 0.01651353 1.62352941 1.27058823 1.92941175
v 0.00123057 0.01760667 0.01640304 1.62352941 1.27058823 1.92941175
v 0.05665377 0.01746567 0.01658271 1.62352941 1.27058823 1.92941175
v 0.07513341 0.01723305 0.01680543 1.62352941 1.27058823 1.92941175
v 0.07553496 0.01721190 0.01678182 1.62352941 1.27058823 1.92941175
v -0.00301338 0.01750446 0.01654224 1.62352941 1.27058823 1.92941175
v 0.00123057 0.01749741 0.01655067 1.62352941 1.27058823 1.92941175
v -0.00301338 0.01747626 0.01657260 1.62352941 1.27058823 1.92941175
v 0.07627509 0.01704621 0.01659285 1.62352941 1.27058823 1.92941175
v 0.07627509 0.01727532 0.01637181 1.62352941 1.27058823 1.92941175
v 0.07591290 0.01714845 0.01671012 1.62352941 1.27058823 1.92941175
v 0.07660578 0.01710966 0.01623936 1.62352941 1.27058823 1.92941175
v 0.07660578 0.01727532 0.01601244 1.62352941 1.27058823 1.92941175
v 0.07688925 0.01704621 0.01588503 1.62352941 1.27058823 1.92941175
v 0.07688925 0.01714845 0.01567497 1.62352941 1.27058823 1.92941175
v 0.07688925 0.01721190 0.01545057 1.62352941 1.27058823 1.92941175
v 0.07688925 0.01723305 0.01521942 1.62352941 1.27058823 1.92941175
v 0.07660578 0.01749741 0.00867282 1.62352941 1.27058823 1.92941175
v 0.07666878 0.01744101 0.00867282 1.62352941 1.27058823 1.92941175
v 0.07513341 -0.01800498 0.01521942 1.62352941 1.27058823 1.92941175
v 0.03817410 -0.01798032 0.01548936 1.62352941 1.27058823 1.92941175
v -0.00301338 -0.01798737 0.01540923 1.62352941 1.27058823 1.92941175
v 0.07553496 -0.01796973 0.00867282 1.62352941 1.27058823 1.92941175
v 0.01971021 0.01752561 0.01651353 1.62352941 1.27058823 1.92941175
v 0.03817410 0.01715550 0.01685775 1.62352941 1.27058823 1.92941175
v 0.07513341 0.01692285 0.01701297 1.62352941 1.27058823 1.92941175
v -0.00301338 0.01723305 0.01680543 1.62352941 1.27058823 1.92941175
v 0.07553496 0.01690521 0.01698513 1.62352941 1.27058823 1.92941175
v 0.07591290 0.01685940 0.01690500 1.62352941 1.27058823 1.92941175
v 0.07627509 0.01677834 0.01677255 1.62352941 1.27058823 1.92941175
v 0.07660578 0.01666905 0.01659285 1.62352941 1.27058823 1.92941175
v 0.07660578 0.01690521 0.01643424 1.62352941 1.27058823 1.92941175
v 0.07688925 0.01673604 0.01623936 1.62352941 1.27058823 1.92941175
v 0.07688925 0.01690521 0.01607484 1.62352941 1.27058823 1.92941175
v 0.07711758 0.01666905 0.01588503 1.62352941 1.27058823 1.92941175
v 0.07711758 0.01677834 0.01573740 1.62352941 1.27058823 1.92941175
v 0.07711758 0.01685940 0.01557375 1.62352941 1.27058823 1.92941175
v 0.07711758 0.01690521 0.01539912 1.62352941 1.27058823 1.92941175
v 0.07711758 0.01692285 0.01521942 1.62352941 1.27058823 1.92941175
v 0.07688925 0.01723305 0.00867282 1.62352941 1.27058823 1.92941175
v 0.07553496 -0.01796973 0.01521942 1.62352941 1.27058823 1.92941175
v 0.07553496 -0.01793802 0.01557375 1.62352941 1.27058823 1.92941175
v 0.07513341 -0.01796973 0.01557879 1.62352941 1.27058823 1.92941175
v 0.05665377 -0.01798383 0.01544466 1.62352941 1.27058823 1.92941175
v -0.00301338 -0.01796973 0.01557879 1.62352941 1.27058823 1.92941175
v -0.00301338 -0.01797327 0.01554843 1.62352941 1.27058823 1.92941175
v 0.07583418 -0.01789572 0.00867282 1.62352941 1.27058823 1.92941175
v -0.00301338 0.01692285 0.01701297 1.62352941 1.27058823 1.92941175
v 0.05665377 0.01662324 0.01714626 1.62352941 1.27058823 1.92941175
v 0.07513341 0.01658094 0.01716483 1.62352941 1.27058823 1.92941175
v 0.07553496 0.01657035 0.01713531 1.62352941 1.27058823 1.92941175
v 0.00123057 0.01675365 0.01708890 1.62352941 1.27058823 1.92941175
v 0.07591290 0.01653864 0.01704756 1.62352941 1.27058823 1.92941175
v 0.07627509 0.01648224 0.01690500 1.62352941 1.27058823 1.92941175
v 0.07660578 0.01640823 0.01671012 1.62352941 1.27058823 1.92941175
v 0.07688925 0.01653864 0.01637181 1.62352941 1.27058823 1.92941175
v 0.07711758 0.01653864 0.01601244 1.62352941 1.27058823 1.92941175
v 0.07728294 0.01640823 0.01567497 1.62352941 1.27058823 1.92941175
v 0.07728294 0.01648224 0.01557375 1.62352941 1.27058823 1.92941175
v 0.07728294 0.01653864 0.01546152 1.62352941 1.27058823 1.92941175
v 0.07728294 0.01657035 0.01534257 1.62352941 1.27058823 1.92941175
v 0.07711758 0.01692285 0.00867282 1.62352941 1.27058823 1.92941175
v 0.07728294 0.01658094 0.01521942 1.62352941 1.27058823 1.92941175
v 0.07591290 -0.01787457 0.01521942 1.62352941 1.27058823 1.92941175
v 0.07591290 -0.01784283 0.01555770 1.62352941 1.27058823 1.92941175
v 0.07553496 -0.01784283 0.01591710 1.62352941 1.27058823 1.92941175
v 0.07513341 -0.01787457 0.01592805 1.62352941 1.27058823 1.92941175
v 0.05665377 -0.01795917 0.01562268 1.62352941 1.27058823 1.92941175
v 0.01971021 -0.01795917 0.01562268 1.62352941 1.27058823 1.92941175
v -0.00301338 -0.01792038 0.01576356 1.62352941 1.27058823 1.92941175
v 0.07591290 -0.01787457 0.00867282 1.62352941 1.27058823 1.92941175
v -0.00301338 0.01689465 0.01702563 1.62352941 1.27058823 1.92941175
v -0.00301338 0.01659150 0.01716060 1.62352941 1.27058823 1.92941175
v 0.05665377 0.01635534 0.01722387 1.62352941 1.27058823 1.92941175
v 0.07513341 0.01621788 0.01725846 1.62352941 1.27058823 1.92941175
v 0.00123057 0.01658094 0.01716483 1.62352941 1.27058823 1.92941175
v -0.00301338 0.01657035 0.01716819 1.62352941 1.27058823 1.92941175
v 0.07553496 0.01621083 0.01722726 1.62352941 1.27058823 1.92941175
v 0.07591290 0.01619673 0.01713531 1.62352941 1.27058823 1.92941175
v 0.07627509 0.01616853 0.01698513 1.62352941 1.27058823 1.92941175
v 0.07660578 0.01612977 0.01678182 1.62352941 1.27058823 1.92941175
v 0.07688925 0.01631658 0.01647051 1.62352941 1.27058823 1.92941175
v 0.07711758 0.01638354 0.01611618 1.62352941 1.27058823 1.92941175
v 0.07728294 0.01621083 0.01583274 1.62352941 1.27058823 1.92941175
v 0.07728294 0.01631658 0.01576188 1.62352941 1.27058823 1.92941175
v 0.07738530 0.01608393 0.01549527 1.62352941 1.27058823 1.92941175
v 0.07738530 0.01612977 0.01545057 1.62352941 1.27058823 1.92941175
v 0.07738530 0.01616853 0.01539912 1.62352941 1.27058823 1.92941175
v 0.07738530 0.01619673 0.01534257 1.62352941 1.27058823 1.92941175
v 0.07738530 0.01621083 0.01528185 1.62352941 1.27058823 1.92941175
v 0.07738530 0.01621788 0.01521942 1.62352941 1.27058823 1.92941175
v 0.07728294 0.01658094 0.00867282 1.62352941 1.27058823 1.92941175
v 0.07730655 0.01650339 0.00867282 1.62352941 1.27058823 1.92941175
v 0.07627509 -0.01771242 0.01521942 1.62352941 1.27058823 1.92941175
v 0.07627509 -0.01768422 0.01553070 1.62352941 1.27058823 1.92941175
v 0.07591290 -0.01775118 0.01588503 1.62352941 1.27058823 1.92941175
v 0.07553496 -0.01768422 0.01623936 1.62352941 1.27058823 1.92941175
v 0.07513341 -0.01771242 0.01625454 1.62352941 1.27058823 1.92941175
v 0.05665377 -0.01773357 0.01621404 1.62352941 1.27058823 1.92941175
v 0.03817410 -0.01775472 0.01617273 1.62352941 1.27058823 1.92941175
v -0.00301338 -0.01778997 0.01610100 1.62352941 1.27058823 1.92941175
v 0.00123057 -0.01787457 0.01592805 1.62352941 1.27058823 1.92941175
v -0.00301338 -0.01788162 0.01589769 1.62352941 1.27058823 1.92941175
v 0.07627509 -0.01771242 0.00867282 1.62352941 1.27058823 1.92941175
v 0.03817410 0.01630953 0.01723569 1.62352941 1.27058823 1.92941175
v -0.00301338 0.01641174 0.01720953 1.62352941 1.27058823 1.92941175
v 0.05665377 0.01617204 0.01726269 1.62352941 1.27058823 1.92941175
v 0.07513341 0.01584423 0.01729053 1.62352941 1.27058823 1.92941175
v -0.00301338 0.01624959 0.01725087 1.62352941 1.27058823 1.92941175
v 0.00123057 0.01621788 0.01725846 1.62352941 1.27058823 1.92941175
v 0.07553496 0.01584423 0.01725846 1.62352941 1.27058823 1.92941175
v 0.07591290 0.01584423 0.01716483 1.62352941 1.27058823 1.92941175
v 0.07627509 0.01584423 0.01701297 1.62352941 1.27058823 1.92941175
v 0.07660578 0.01584423 0.01680543 1.62352941 1.27058823 1.92941175
v 0.07688925 0.01584423 0.01655067 1.62352941 1.27058823 1.92941175
v 0.07688925 0.01608393 0.01653042 1.62352941 1.27058823 1.92941175
v 0.07711758 0.01603107 0.01623936 1.62352941 1.27058823 1.92941175
v 0.07711758 0.01621083 0.01619211 1.62352941 1.27058823 1.92941175
v 0.07728294 0.01609452 0.01588503 1.62352941 1.27058823 1.92941175
v 0.07738530 0.01597113 0.01555770 1.62352941 1.27058823 1.92941175
v 0.07738530 0.01603107 0.01553070 1.62352941 1.27058823 1.92941175
v 0.07742466 0.01584423 0.01521942 1.62352941 1.27058823 1.92941175
v 0.07738530 0.01621788 0.00867282 1.62352941 1.27058823 1.92941175
v 0.07741677 0.01592178 0.00867282 1.62352941 1.27058823 1.92941175
v 0.07634595 -0.01766658 0.00867282 1.62352941 1.27058823 1.92941175
v 0.07660578 -0.01749741 0.01521942 1.62352941 1.27058823 1.92941175
v 0.07660578 -0.01747272 0.01549527 1.62352941 1.27058823 1.92941175
v 0.07660578 -0.01739871 0.01576188 1.62352941 1.27058823 1.92941175
v 0.07627509 -0.01759962 0.01583274 1.62352941 1.27058823 1.92941175
v 0.07627509 -0.01746216 0.01611618 1.62352941 1.27058823 1.92941175
v 0.07591290 -0.01759962 0.01619211 1.62352941 1.27058823 1.92941175
v 0.07591290 -0.01739871 0.01647051 1.62352941 1.27058823 1.92941175
v 0.07553496 -0.01747272 0.01653042 1.62352941 1.27058823 1.92941175
v 0.07513341 -0.01749741 0.01655067 1.62352941 1.27058823 1.92941175
v 0.05665377 -0.01768773 0.01629168 1.62352941 1.27058823 1.92941175
v -0.00301338 -0.01771242 0.01625454 1.62352941 1.27058823 1.92941175
v 0.01971021 -0.01773357 0.01621404 1.62352941 1.27058823 1.92941175
v -0.00301338 -0.01772652 0.01622670 1.62352941 1.27058823 1.92941175
v -0.00301338 -0.01786752 0.01593735 1.62352941 1.27058823 1.92941175
v -0.00301338 -0.01787457 0.01591794 1.62352941 1.27058823 1.92941175
v 0.01971021 0.01617204 0.01726269 1.62352941 1.27058823 1.92941175
v 0.03817410 0.01612272 0.01726692 1.62352941 1.27058823 1.92941175
v 0.07513341 -0.01584423 0.01729053 1.62352941 1.27058823 1.92941175
v -0.00301338 0.01584423 0.01729053 1.62352941 1.27058823 1.92941175
v -0.00301338 0.01622844 0.01725594 1.62352941 1.27058823 1.92941175
v -0.00301338 0.01620729 0.01725933 1.62352941 1.27058823 1.92941175
v -0.00301338 0.01604163 0.01727367 1.62352941 1.27058823 1.92941175
v 0.07553496 -0.01584423 0.01725846 1.62352941 1.27058823 1.92941175
v 0.07572393 0.00000000 0.01721208 1.62352941 1.27058823 1.92941175
v 0.07591290 -0.01584423 0.01716483 1.62352941 1.27058823 1.92941175
v 0.07627509 -0.01584423 0.01701297 1.62352941 1.27058823 1.92941175
v 0.07660578 -0.01584423 0.01680543 1.62352941 1.27058823 1.92941175
v 0.07688925 -0.01584423 0.01655067 1.62352941 1.27058823 1.92941175
v 0.07711758 0.01584423 0.01625454 1.62352941 1.27058823 1.92941175
v 0.07728294 0.01584423 0.01592805 1.62352941 1.27058823 1.92941175
v 0.07728294 0.01597113 0.01591710 1.62352941 1.27058823 1.92941175
v 0.07738530 0.01590768 0.01557375 1.62352941 1.27058823 1.92941175
v 0.07742466 -0.01584423 0.01521942 1.62352941 1.27058823 1.92941175
v 0.07742466 0.01584423 0.00867282 1.62352941 1.27058823 1.92941175
v 0.07738530 0.01584423 0.01557879 1.62352941 1.27058823 1.92941175
v 0.07660578 -0.01749741 0.00867282 1.62352941 1.27058823 1.92941175
v 0.07666878 -0.01744101 0.00867282 1.62352941 1.27058823 1.92941175
v 0.07688925 -0.01723305 0.01521942 1.62352941 1.27058823 1.92941175
v 0.07688925 -0.01721190 0.01545057 1.62352941 1.27058823 1.92941175
v 0.07688925 -0.01714845 0.01567497 1.62352941 1.27058823 1.92941175
v 0.07688925 -0.01704621 0.01588503 1.62352941 1.27058823 1.92941175
v 0.07660578 -0.01727532 0.01601244 1.62352941 1.27058823 1.92941175
v 0.07660578 -0.01710966 0.01623936 1.62352941 1.27058823 1.92941175
v 0.07627509 -0.01727532 0.01637181 1.62352941 1.27058823 1.92941175
v 0.07627509 -0.01704621 0.01659285 1.62352941 1.27058823 1.92941175
v 0.07591290 -0.01714845 0.01671012 1.62352941 1.27058823 1.92941175
v 0.07553496 -0.01721190 0.01678182 1.62352941 1.27058823 1.92941175
v 0.05665377 -0.01752561 0.01651353 1.62352941 1.27058823 1.92941175
v 0.07513341 -0.01723305 0.01680543 1.62352941 1.27058823 1.92941175
v 0.05665377 -0.01746567 0.01658271 1.62352941 1.27058823 1.92941175
v -0.00301338 -0.01747626 0.01657260 1.62352941 1.27058823 1.92941175
v 0.00123057 -0.01749741 0.01655067 1.62352941 1.27058823 1.92941175
v -0.00301338 -0.01750446 0.01654224 1.62352941 1.27058823 1.92941175
v 0.00123057 -0.01760667 0.01640304 1.62352941 1.27058823 1.92941175
v 0.01971021 -0.01768773 0.01629168 1.62352941 1.27058823 1.92941175
v -0.00301338 -0.01759962 0.01641147 1.62352941 1.27058823 1.92941175
v 0.05665377 -0.01617204 0.01726269 1.62352941 1.27058823 1.92941175
v 0.07513341 -0.01621788 0.01725846 1.62352941 1.27058823 1.92941175
v 0.07553496 -0.01621083 0.01722726 1.62352941 1.27058823 1.92941175
v 0.00123057 -0.01584423 0.01729053 1.62352941 1.27058823 1.92941175
v 0.03817410 -0.01612272 0.01726692 1.62352941 1.27058823 1.92941175
v -0.00301338 -0.01180827 0.01729053 1.62352941 1.27058823 1.92941175
v 0.07591290 -0.01619673 0.01713531 1.62352941 1.27058823 1.92941175
v 0.07627509 -0.01616853 0.01698513 1.62352941 1.27058823 1.92941175
v 0.07660578 -0.01612977 0.01678182 1.62352941 1.27058823 1.92941175
v 0.07688925 -0.01608393 0.01653042 1.62352941 1.27058823 1.92941175
v 0.07711758 -0.01603107 0.01623936 1.62352941 1.27058823 1.92941175
v 0.07711758 -0.01584423 0.01625454 1.62352941 1.27058823 1.92941175
v 0.07728294 -0.01584423 0.01592805 1.62352941 1.27058823 1.92941175
v 0.07733805 0.00000000 0.01575342 1.62352941 1.27058823 1.92941175
v 0.07741677 -0.01592178 0.00867282 1.62352941 1.27058823 1.92941175
v 0.07742466 -0.01584423 0.00867282 1.62352941 1.27058823 1.92941175
v 0.07738530 -0.01584423 0.01557879 1.62352941 1.27058823 1.92941175
v 0.07738530 -0.01590768 0.01557375 1.62352941 1.27058823 1.92941175
v 0.07738530 -0.01597113 0.01555770 1.62352941 1.27058823 1.92941175
v 0.07738530 -0.01603107 0.01553070 1.62352941 1.27058823 1.92941175
v 0.07738530 -0.01608393 0.01549527 1.62352941 1.27058823 1.92941175
v 0.07738530 -0.01612977 0.01545057 1.62352941 1.27058823 1.92941175
v 0.07738530 -0.01616853 0.01539912 1.62352941 1.27058823 1.92941175
v 0.07738530 -0.01619673 0.01534257 1.62352941 1.27058823 1.92941175
v 0.07738530 -0.01621083 0.01528185 1.62352941 1.27058823 1.92941175
v 0.07738530 -0.01621788 0.01521942 1.62352941 1.27058823 1.92941175
v 0.07688925 -0.01723305 0.00867282 1.62352941 1.27058823 1.92941175
v 0.07711758 -0.01692285 0.01521942 1.62352941 1.27058823 1.92941175
v 0.07711758 -0.01690521 0.01539912 1.62352941 1.27058823 1.92941175
v 0.07711758 -0.01685940 0.01557375 1.62352941 1.27058823 1.92941175
v 0.07688925 -0.01690521 0.01607484 1.62352941 1.27058823 1.92941175
v 0.07711758 -0.01677834 0.01573740 1.62352941 1.27058823 1.92941175
v 0.07711758 -0.01666905 0.01588503 1.62352941 1.27058823 1.92941175
v 0.07688925 -0.01673604 0.01623936 1.62352941 1.27058823 1.92941175
v 0.07660578 -0.01690521 0.01643424 1.62352941 1.27058823 1.92941175
v 0.07660578 -0.01666905 0.01659285 1.62352941 1.27058823 1.92941175
v 0.07627509 -0.01677834 0.01677255 1.62352941 1.27058823 1.92941175
v 0.07591290 -0.01685940 0.01690416 1.62352941 1.27058823 1.92941175
v 0.07553496 -0.01690521 0.01698513 1.62352941 1.27058823 1.92941175
v 0.07513341 -0.01692285 0.01701297 1.62352941 1.27058823 1.92941175
v 0.01971021 -0.01752561 0.01651353 1.62352941 1.27058823 1.92941175
v 0.03817410 -0.01715550 0.01685775 1.62352941 1.27058823 1.92941175
v 0.00123057 -0.01723305 0.01680543 1.62352941 1.27058823 1.92941175
v -0.00301338 -0.01724010 0.01679868 1.62352941 1.27058823 1.92941175
v 0.01971021 -0.01617204 0.01726269 1.62352941 1.27058823 1.92941175
v 0.05665377 -0.01635534 0.01722387 1.62352941 1.27058823 1.92941175
v 0.07513341 -0.01658094 0.01716483 1.62352941 1.27058823 1.92941175
v 0.07553496 -0.01657035 0.01713531 1.62352941 1.27058823 1.92941175
v -0.00301338 -0.01621788 0.01725846 1.62352941 1.27058823 1.92941175
v -0.00301338 -0.01624959 0.01725087 1.62352941 1.27058823 1.92941175
v -0.00301338 -0.01585482 0.01728885 1.62352941 1.27058823 1.92941175
v -0.00301338 -0.01587597 0.01728717 1.62352941 1.27058823 1.92941175
v -0.00301338 -0.01606278 0.01727196 1.62352941 1.27058823 1.92941175
v 0.07591290 -0.01653864 0.01704756 1.62352941 1.27058823 1.92941175
v 0.07627509 -0.01648224 0.01690416 1.62352941 1.27058823 1.92941175
v 0.07660578 -0.01640823 0.01671012 1.62352941 1.27058823 1.92941175
v 0.07688925 -0.01631658 0.01647051 1.62352941 1.27058823 1.92941175
v 0.07711758 -0.01621083 0.01619211 1.62352941 1.27058823 1.92941175
v 0.07728294 -0.01609452 0.01588503 1.62352941 1.27058823 1.92941175
v 0.07728294 -0.01597113 0.01591710 1.62352941 1.27058823 1.92941175
v 0.07738530 -0.01621788 0.00867282 1.62352941 1.27058823 1.92941175
v 0.07728294 -0.01621083 0.01583274 1.62352941 1.27058823 1.92941175
v 0.07728294 -0.01631658 0.01576188 1.62352941 1.27058823 1.92941175
v 0.07728294 -0.01640823 0.01567497 1.62352941 1.27058823 1.92941175
v 0.07728294 -0.01648224 0.01557375 1.62352941 1.27058823 1.92941175
v 0.07728294 -0.01653864 0.01546152 1.62352941 1.27058823 1.92941175
v 0.07728294 -0.01657035 0.01534257 1.62352941 1.27058823 1.92941175
v 0.07728294 -0.01658094 0.01521942 1.62352941 1.27058823 1.92941175
v 0.07730655 -0.01650339 0.00867282 1.62352941 1.27058823 1.92941175
v 0.07711758 -0.01692285 0.00867282 1.62352941 1.27058823 1.92941175
v 0.07711758 -0.01653864 0.01601244 1.62352941 1.27058823 1.92941175
v 0.07688925 -0.01653864 0.01637181 1.62352941 1.27058823 1.92941175
v -0.00301338 -0.01661265 0.01715217 1.62352941 1.27058823 1.92941175
v -0.00301338 -0.01692285 0.01701297 1.62352941 1.27058823 1.92941175
v -0.00301338 -0.01722246 0.01681134 1.62352941 1.27058823 1.92941175
v -0.00301338 -0.01641174 0.01720953 1.62352941 1.27058823 1.92941175
v -0.00301338 -0.01657035 0.01716819 1.62352941 1.27058823 1.92941175
v 0.00123057 -0.01658094 0.01716483 1.62352941 1.27058823 1.92941175
v 0.07711758 -0.01638354 0.01611618 1.62352941 1.27058823 1.92941175
v 0.07728294 -0.01658094 0.00867282 1.62352941 1.27058823 1.92941175
v -0.00301338 -0.01659150 0.01716060 1.62352941 1.27058823 1.92941175
f 1 2 3
f 1 3 4
f 1 4 5
f 1 5 6
f 1 6 17
f 1 17 7
f 1 7 18
f 1 18 19
f 1 19 8
f 1 8 2
f 2 4 3
f 2 8 9
f 2 9 10
f 2 10 11
f 2 11 4
f 4 12 13
f 4 13 5
f 4 11 24
f 4 24 12
f 5 13 14
f 5 14 15
f 5 15 16
f 5 16 6
f 6 16 33
f 6 33 17
f 7 17 33
f 7 33 50
f 7 50 51
f 7 51 72
f 7 72 73
f 7 73 94
f 7 94 116
f 7 116 146
f 7 146 147
f 7 147 177
f 7 177 178
f 7 178 213
f 7 213 251
f 7 251 250
f 7 250 296
f 7 296 304
f 7 304 315
f 7 315 305
f 7 305 262
f 7 262 216
f 7 216 215
f 7 215 179
f 7 179 158
f 7 158 125
f 7 125 101
f 7 101 77
f 7 77 54
f 7 54 35
f 7 35 18
f 8 19 20
f 8 20 21
f 8 21 9
f 9 21 20
f 9 20 19
f 9 19 18
f 9 18 35
f 9 35 53
f 9 53 76
f 9 76 100
f 9 100 99
f 9 99 124
f 9 124 157
f 9 157 194
f 9 194 193
f 9 193 155
f 9 155 192
f 9 192 190
f 9 190 235
f 9 235 232
f 9 232 230
f 9 230 279
f 9 279 310
f 9 310 309
f 9 309 308
f 9 308 316
f 9 316 312
f 9 312 311
f 9 311 285
f 9 285 284
f 9 284 288
f 9 288 287
f 9 287 286
f 9 286 241
f 9 241 198
f 9 198 201
f 9 201 200
f 9 200 199
f 9 199 163
f 9 163 160
f 9 160 131
f 9 131 127
f 9 127 126
f 9 126 102
f 9 102 81
f 9 81 62
f 9 62 60
f 9 60 39
f 9 39 30
f 9 30 45
f 9 45 44
f 9 44 43
f 9 43 36
f 9 36 23
f 9 23 22
f 9 22 10
f 10 22 11
f 11 22 23
f 11 23 24
f 12 24 23
f 12 23 13
f 13 25 26
f 13 26 27
f 13 27 28
f 13 28 14
f 13 23 29
f 13 29 30
f 13 30 25
f 14 28 31
f 14 31 15
f 15 31 32
f 15 32 16
f 16 32 34
f 16 34 50
f 16 50 33
f 23 36 29
f 25 30 26
f 26 30 27
f 27 37 38
f 27 38 28
f 27 30 39
f 27 39 37
f 28 38 40
f 28 40 41
f 28 41 42
f 28 42 31
f 29 36 43
f 29 43 44
f 29 44 45
f 29 45 30
f 31 42 46
f 31 46 47
f 31 47 32
f 32 47 48
f 32 48 49
f 32 49 34
f 34 51 50
f 34 49 52
f 34 52 51
f 35 54 74
f 35 74 53
f 37 55 38
f 37 39 56
f 37 56 55
f 38 57 58
f 38 58 59
f 38 59 40
f 38 55 60
f 38 60 61
f 38 61 62
f 38 62 57
f 39 60 56
f 40 59 41
f 41 63 64
f 41 64 46
f 41 46 42
f 41 59 65
f 41 65 63
f 46 64 66
f 46 66 67
f 46 67 48
f 46 48 47
f 48 67 68
f 48 68 69
f 48 69 70
f 48 70 49
f 49 70 71
f 49 71 52
f 51 52 72
f 52 73 72
f 52 71 73
f 53 74 75
f 53 75 76
f 54 77 95
f 54 95 74
f 55 56 78
f 55 78 60
f 56 60 78
f 57 62 81
f 57 81 58
f 58 79 80
f 58 80 59
f 58 81 79
f 59 82 83
f 59 83 65
f 59 80 82
f 60 62 61
f 63 65 83
f 63 83 84
f 63 84 85
f 63 85 86
f 63 86 66
f 63 66 64
f 66 86 87
f 66 87 88
f 66 88 68
f 66 68 67
f 68 88 89
f 68 89 90
f 68 90 91
f 68 91 69
f 69 91 70
f 70 91 92
f 70 92 93
f 70 93 71
f 71 94 73
f 71 93 116
f 71 116 94
f 74 95 96
f 74 96 97
f 74 97 98
f 74 98 75
f 75 99 100
f 75 100 76
f 75 98 97
f 75 97 99
f 77 101 95
f 79 81 102
f 79 102 80
f 80 103 104
f 80 104 105
f 80 105 82
f 80 102 126
f 80 126 106
f 80 106 103
f 82 105 83
f 83 107 108
f 83 108 84
f 83 105 107
f 84 108 109
f 84 109 85
f 85 109 110
f 85 110 87
f 85 87 86
f 87 110 111
f 87 111 88
f 88 111 89
f 89 111 112
f 89 112 90
f 90 112 113
f 90 113 114
f 90 114 91
f 91 114 115
f 91 115 92
f 92 115 93
f 93 115 117
f 93 117 146
f 93 146 116
f 95 101 118
f 95 118 96
f 96 118 119
f 96 119 120
f 96 120 121
f 96 121 97
f 97 121 122
f 97 122 123
f 97 123 99
f 99 123 124
f 101 125 118
f 103 106 127
f 103 127 104
f 104 128 129
f 104 129 105
f 104 127 130
f 104 130 131
f 104 131 128
f 105 132 133
f 105 133 107
f 105 129 132
f 106 126 127
f 107 133 108
f 108 134 135
f 108 135 109
f 108 133 134
f 109 135 136
f 109 136 110
f 110 136 137
f 110 137 111
f 111 137 138
f 111 138 139
f 111 139 112
f 112 139 140
f 112 140 141
f 112 141 142
f 112 142 113
f 113 142 114
f 114 142 143
f 114 143 115
f 115 143 144
f 115 144 145
f 115 145 117
f 117 145 147
f 117 147 146
f 118 125 158
f 118 158 148
f 118 148 149
f 118 149 119
f 119 149 150
f 119 150 120
f 120 150 151
f 120 151 121
f 121 151 152
f 121 152 153
f 121 153 154
f 121 154 155
f 121 155 156
f 121 156 124
f 121 124 122
f 122 124 123
f 124 156 157
f 127 131 130
f 128 159 129
f 128 131 160
f 128 160 159
f 129 161 162
f 129 162 132
f 129 159 163
f 129 163 199
f 129 199 164
f 129 164 195
f 129 195 161
f 132 165 133
f 132 162 165
f 133 166 167
f 133 167 134
f 133 165 166
f 134 167 135
f 135 167 168
f 135 168 169
f 135 169 170
f 135 170 136
f 136 170 171
f 136 171 172
f 136 172 137
f 137 172 173
f 137 173 138
f 138 173 174
f 138 174 175
f 138 175 140
f 138 140 139
f 140 175 176
f 140 176 141
f 141 176 142
f 142 176 143
f 143 176 144
f 144 176 145
f 145 177 147
f 145 176 178
f 145 178 177
f 148 158 179
f 148 179 180
f 148 180 181
f 148 181 149
f 149 181 182
f 149 182 183
f 149 183 150
f 150 183 184
f 150 184 185
f 150 185 151
f 151 185 186
f 151 186 187
f 151 187 188
f 151 188 152
f 152 188 189
f 152 189 234
f 152 234 190
f 152 190 191
f 152 191 153
f 153 191 154
f 154 191 155
f 155 191 192
f 155 193 156
f 156 193 194
f 156 194 157
f 159 160 163
f 161 195 196
f 161 196 162
f 162 197 202
f 162 202 165
f 162 196 198
f 162 198 241
f 162 241 239
f 162 239 197
f 164 199 200
f 164 200 201
f 164 201 195
f 165 202 203
f 165 203 166
f 166 203 204
f 166 204 205
f 166 205 167
f 167 205 206
f 167 206 168
f 168 206 207
f 168 207 169
f 169 207 247
f 169 247 208
f 169 208 171
f 169 171 170
f 171 208 209
f 171 209 210
f 171 210 173
f 171 173 172
f 173 210 174
f 174 211 176
f 174 176 175
f 174 210 211
f 176 212 251
f 176 251 213
f 176 213 178
f 176 211 214
f 176 214 252
f 176 252 212
f 179 215 180
f 180 215 216
f 180 216 217
f 180 217 181
f 181 217 218
f 181 218 182
f 182 218 219
f 182 219 220
f 182 220 221
f 182 221 184
f 182 184 183
f 184 221 222
f 184 222 223
f 184 223 186
f 184 186 185
f 186 223 224
f 186 224 225
f 186 225 226
f 186 226 187
f 187 226 188
f 188 227 189
f 188 226 228
f 188 228 229
f 188 229 230
f 188 230 231
f 188 231 232
f 188 232 227
f 189 227 233
f 189 233 234
f 190 234 233
f 190 233 235
f 190 192 191
f 195 201 198
f 195 198 196
f 197 236 237
f 197 237 238
f 197 238 202
f 197 239 240
f 197 240 236
f 202 238 242
f 202 242 204
f 202 204 203
f 204 242 205
f 205 243 244
f 205 244 206
f 205 242 243
f 206 244 207
f 207 244 245
f 207 245 246
f 207 246 247
f 208 247 248
f 208 248 209
f 209 248 249
f 209 249 214
f 209 214 211
f 209 211 210
f 212 250 251
f 212 252 253
f 212 253 254
f 212 254 255
f 212 255 256
f 212 256 257
f 212 257 258
f 212 258 259
f 212 259 260
f 212 260 261
f 212 261 250
f 214 249 252
f 216 262 217
f 217 263 218
f 217 262 305
f 217 305 263
f 218 263 264
f 218 264 265
f 218 265 219
f 219 265 220
f 220 266 222
f 220 222 221
f 220 265 267
f 220 267 268
f 220 268 266
f 222 266 269
f 222 269 270
f 222 270 224
f 222 224 223
f 224 270 271
f 224 271 272
f 224 272 273
f 224 273 225
f 225 273 226
f 226 273 274
f 226 274 275
f 226 275 228
f 227 232 276
f 227 276 233
f 228 275 277
f 228 277 278
f 228 278 279
f 228 279 230
f 228 230 229
f 230 232 231
f 232 235 233
f 232 233 276
f 236 240 280
f 236 280 284
f 236 284 237
f 237 281 282
f 237 282 283
f 237 283 238
f 237 284 285
f 237 285 281
f 238 283 242
f 239 241 286
f 239 286 287
f 239 287 288
f 239 288 240
f 240 288 280
f 242 289 243
f 242 283 289
f 243 290 291
f 243 291 244
f 243 289 290
f 244 292 245
f 244 291 292
f 245 292 246
f 246 292 293
f 246 293 294
f 246 294 295
f 246 295 248
f 246 248 247
f 248 295 253
f 248 253 252
f 248 252 249
f 250 261 296
f 253 295 254
f 254 295 294
f 254 294 297
f 254 297 255
f 255 297 298
f 255 298 256
f 256 298 299
f 256 299 257
f 257 299 258
f 258 299 300
f 258 300 301
f 258 301 259
f 259 301 302
f 259 302 260
f 260 302 261
f 261 302 303
f 261 303 304
f 261 304 296
f 263 303 302
f 263 302 264
f 263 305 315
f 263 315 303
f 264 302 265
f 265 302 301
f 265 301 267
f 266 268 306
f 266 306 269
f 267 301 300
f 267 300 299
f 267 299 268
f 268 299 306
f 269 307 271
f 269 271 270
f 269 306 307
f 271 307 291
f 271 291 272
f 272 291 290
f 272 290 289
f 272 289 273
f 273 289 283
f 273 283 274
f 274 283 275
f 275 283 282
f 275 282 308
f 275 308 309
f 275 309 277
f 277 309 278
f 278 309 310
f 278 310 279
f 280 288 284
f 281 285 311
f 281 311 312
f 281 312 282
f 282 312 313
f 282 313 316
f 282 316 308
f 291 307 292
f 292 307 314
f 292 314 293
f 293 314 294
f 294 314 297
f 297 314 306
f 297 306 298
f 298 306 299
f 303 315 304
f 306 314 307
f 312 316 313