# https://github.com/mikedh/trimesh
v -0.01782774 -0.00752814 -0.01522407 1.83529413 1.84705881 2.82352941
v -0.03146955 -0.00752814 -0.01522407 1.83529413 1.84705881 2.82352941
v -0.00419127 -0.00752916 -0.01505697 1.83529413 1.84705881 2.82352941
v -0.00419127 -0.00752916 -0.01522407 1.83529413 1.84705881 2.82352941
v -0.00419127 -0.00754251 -0.01539114 1.83529413 1.84705881 2.82352941
v -0.03146955 -0.00754251 -0.01539114 1.83529413 1.84705881 2.82352941
v -0.03146955 -0.00752916 -0.01505697 1.83529413 1.84705881 2.82352941
v -0.00419127 -0.00753123 -0.01500801 1.83529413 1.84705881 2.82352941
v -0.00419127 -0.00757020 -0.01555656 1.83529413 1.84705881 2.82352941
v -0.01782774 -0.00756915 -0.01555572 1.83529413 1.84705881 2.82352941
v -0.03146955 -0.00757020 -0.01555572 1.83529413 1.84705881 2.82352941
v -0.03146955 -0.00782349 -0.00859698 1.83529413 1.84705881 2.82352941
v -0.00419127 -0.00782349 -0.00859698 1.83529413 1.84705881 2.82352941
v -0.00419127 -0.00761121 -0.01571943 1.83529413 1.84705881 2.82352941
v -0.03146955 -0.00761121 -0.01571859 1.83529413 1.84705881 2.82352941
v -0.03146955 -0.01800498 -0.00859698 1.83529413 1.84705881 2.82352941
v -0.00419127 -0.01800498 -0.00859698 1.83529413 1.84705881 2.82352941
v -0.00419127 -0.00766659 -0.01587891 1.83529413 1.84705881 2.82352941
v -0.01785177 -0.00763788 -0.01579707 1.83529413 1.84705881 2.82352941
v -0.03146955 -0.00766659 -0.01587723 1.83529413 1.84705881 2.82352941
v -0.03146955 -0.01800498 -0.01427130 1.83529413 1.84705881 2.82352941
v -0.00419127 -0.01800498 -0.01403502 1.83529413 1.84705881 2.82352941
v -0.00419127 -0.00773529 -0.01603335 1.83529413 1.84705881 2.82352941
v -0.01782774 -0.00773325 -0.01603083 1.83529413 1.84705881 2.82352941
v -0.01782774 -0.00766557 -0.01587639 1.83529413 1.84705881 2.82352941
v -0.03146955 -0.00773427 -0.01603167 1.83529413 1.84705881 2.82352941
v -0.03146955 -0.01800396 -0.01515738 1.83529413 1.84705881 2.82352941
v -0.01725633 -0.01800498 -0.01514727 1.83529413 1.84705881 2.82352941
v -0.00419127 -0.01800396 -0.01514727 1.83529413 1.84705881 2.82352941
v -0.00419127 -0.00781632 -0.01618188 1.83529413 1.84705881 2.82352941
v -0.01782774 -0.00781425 -0.01617849 1.83529413 1.84705881 2.82352941
v -0.03146955 -0.00781530 -0.01618020 1.83529413 1.84705881 2.82352941
v -0.03146955 -0.01799574 -0.01524768 1.83529413 1.84705881 2.82352941
v -0.01725633 -0.01799268 -0.01528230 1.83529413 1.84705881 2.82352941
v -0.00419127 -0.01797216 -0.01550592 1.83529413 1.84705881 2.82352941
v -0.00419127 -0.01798959 -0.01531350 1.83529413 1.84705881 2.82352941
v -0.00419127 -0.01800294 -0.01516077 1.83529413 1.84705881 2.82352941
v -0.00419127 -0.00791067 -0.01632450 1.83529413 1.84705881 2.82352941
v -0.01787313 -0.00786042 -0.01624938 1.83529413 1.84705881 2.82352941
v -0.01782774 -0.00790758 -0.01632027 1.83529413 1.84705881 2.82352941
v -0.03146955 -0.00791373 -0.01632786 1.83529413 1.84705881 2.82352941
v -0.03146955 -0.01797933 -0.01542744 1.83529413 1.84705881 2.82352941
v -0.01725633 -0.01797627 -0.01546203 1.83529413 1.84705881 2.82352941
v -0.01725633 -0.01795986 -0.01555065 1.83529413 1.84705881 2.82352941
v -0.00419127 -0.01792704 -0.01566795 1.83529413 1.84705881 2.82352941
v -0.03146955 -0.01797216 -0.01549665 1.83529413 1.84705881 2.82352941
v -0.03146955 -0.01796910 -0.01551690 1.83529413 1.84705881 2.82352941
v -0.00419127 -0.00812193 -0.01657260 1.83529413 1.84705881 2.82352941
v -0.01782774 -0.00812706 -0.01657935 1.83529413 1.84705881 2.82352941
v -0.03146955 -0.00812706 -0.01657935 1.83529413 1.84705881 2.82352941
v -0.00419127 -0.01788498 -0.01581816 1.83529413 1.84705881 2.82352941
v -0.03146955 -0.01790139 -0.01575825 1.83529413 1.84705881 2.82352941
v -0.00419127 -0.00813321 -0.01658442 1.83529413 1.84705881 2.82352941
v -0.01782774 -0.00838755 -0.01680129 1.83529413 1.84705881 2.82352941
v -0.03146955 -0.00838755 -0.01680129 1.83529413 1.84705881 2.82352941
v -0.00419127 -0.01787781 -0.01584348 1.83529413 1.84705881 2.82352941
v -0.03146955 -0.01787679 -0.01584516 1.83529413 1.84705881 2.82352941
v -0.00419127 -0.00837933 -0.01679370 1.83529413 1.84705881 2.82352941
v -0.00419127 -0.00839676 -0.01680720 1.83529413 1.84705881 2.82352941
v -0.03146955 -0.00868185 -0.01697934 1.83529413 1.84705881 2.82352941
v -0.00419127 -0.01787370 -0.01585614 1.83529413 1.84705881 2.82352941
v -0.03146955 -0.01786962 -0.01586457 1.83529413 1.84705881 2.82352941
v -0.01725633 -0.01787370 -0.01585530 1.83529413 1.84705881 2.82352941
v -0.00419127 -0.00868185 -0.01697934 1.83529413 1.84705881 2.82352941
v -0.03146955 -0.00869520 -0.01698525 1.83529413 1.84705881 2.82352941
v -0.00419127 -0.01786857 -0.01586796 1.83529413 1.84705881 2.82352941
v -0.03146955 -0.01775988 -0.01609158 1.83529413 1.84705881 2.82352941
v -0.00419127 -0.00869520 -0.01698525 1.83529413 1.84705881 2.82352941
v -0.03146955 -0.00900183 -0.01711101 1.83529413 1.84705881 2.82352941
v -0.00419127 -0.01777731 -0.01605528 1.83529413 1.84705881 2.82352941
v -0.03146955 -0.01771989 -0.01617342 1.83529413 1.84705881 2.82352941
v -0.00419127 -0.01772091 -0.01617090 1.83529413 1.84705881 2.82352941
v -0.00419127 -0.00900183 -0.01711101 1.83529413 1.84705881 2.82352941
v -0.03146955 -0.00901926 -0.01711521 1.83529413 1.84705881 2.82352941
v -0.03146955 -0.01770861 -0.01619115 1.83529413 1.84705881 2.82352941
v -0.01725633 -0.01771476 -0.01618272 1.83529413 1.84705881 2.82352941
v -0.00419127 -0.01771476 -0.01618272 1.83529413 1.84705881 2.82352941
v -0.00419127 -0.00931872 -0.01718610 1.83529413 1.84705881 2.82352941
v -0.03146955 -0.00934026 -0.01719117 1.83529413 1.84705881 2.82352941
v -0.03146955 -0.01766757 -0.01624770 1.83529413 1.84705881 2.82352941
v -0.01725633 -0.01768809 -0.01621986 1.83529413 1.84705881 2.82352941
v -0.00419127 -0.01761528 -0.01631943 1.83529413 1.84705881 2.82352941
v -0.00419127 -0.00934026 -0.01719117 1.83529413 1.84705881 2.82352941
v -0.03146955 -0.00936180 -0.01719285 1.83529413 1.84705881 2.82352941
v -0.03146955 -0.01765527 -0.01626459 1.83529413 1.84705881 2.82352941
v -0.01725633 -0.01758042 -0.01636752 1.83529413 1.84705881 2.82352941
v -0.00419127 -0.01750761 -0.01646712 1.83529413 1.84705881 2.82352941
v -0.00419127 -0.00968790 -0.01721817 1.83529413 1.84705881 2.82352941
v -0.03146955 -0.00968790 -0.01721817 1.83529413 1.84705881 2.82352941
v -0.03146955 -0.01750554 -0.01646964 1.83529413 1.84705881 2.82352941
v -0.01725633 -0.01749939 -0.01647807 1.83529413 1.84705881 2.82352941
v -0.00419127 -0.01749015 -0.01648737 1.83529413 1.84705881 2.82352941
v -0.00419127 -0.01062012 -0.01721817 1.83529413 1.84705881 2.82352941
v -0.03146955 -0.01506888 -0.01721817 1.83529413 1.84705881 2.82352941
v -0.03146955 -0.01749120 -0.01648566 1.83529413 1.84705881 2.82352941
v -0.00419127 -0.01737633 -0.01659621 1.83529413 1.84705881 2.82352941
v -0.01725633 -0.01723275 -0.01673379 1.83529413 1.84705881 2.82352941
v -0.00419127 -0.01584417 -0.01721733 1.83529413 1.84705881 2.82352941
v -0.01725633 -0.01584417 -0.01721817 1.83529413 1.84705881 2.82352941
v -0.03146955 -0.01585443 -0.01721649 1.83529413 1.84705881 2.82352941
v -0.03146955 -0.01729122 -0.01667724 1.83529413 1.84705881 2.82352941
v -0.00419127 -0.01726146 -0.01670592 1.83529413 1.84705881 2.82352941
v -0.00419127 -0.01722147 -0.01674138 1.83529413 1.84705881 2.82352941
v -0.00419127 -0.01724199 -0.01672449 1.83529413 1.84705881 2.82352941
v -0.03146955 -0.01723992 -0.01672617 1.83529413 1.84705881 2.82352941
v -0.03146955 -0.01722351 -0.01673970 1.83529413 1.84705881 2.82352941
v -0.03146955 -0.01699278 -0.01689495 1.83529413 1.84705881 2.82352941
v -0.00419127 -0.01585752 -0.01721649 1.83529413 1.84705881 2.82352941
v -0.00419127 -0.01607289 -0.01719876 1.83529413 1.84705881 2.82352941
v -0.01725633 -0.01598469 -0.01720635 1.83529413 1.84705881 2.82352941
v -0.03146955 -0.01611492 -0.01719540 1.83529413 1.84705881 2.82352941
v -0.03146955 -0.01597032 -0.01720719 1.83529413 1.84705881 2.82352941
v -0.00419127 -0.01708917 -0.01682997 1.83529413 1.84705881 2.82352941
v -0.03146955 -0.01693329 -0.01693461 1.83529413 1.84705881 2.82352941
v -0.00419127 -0.01692408 -0.01694052 1.83529413 1.84705881 2.82352941
v -0.00419127 -0.01621953 -0.01718610 1.83529413 1.84705881 2.82352941
v -0.01725633 -0.01617234 -0.01719033 1.83529413 1.84705881 2.82352941
v -0.03146955 -0.01620825 -0.01718694 1.83529413 1.84705881 2.82352941
v -0.01725633 -0.01621953 -0.01718610 1.83529413 1.84705881 2.82352941
v -0.03146955 -0.01691484 -0.01694475 1.83529413 1.84705881 2.82352941
v -0.01725633 -0.01692408 -0.01694052 1.83529413 1.84705881 2.82352941
v -0.00419127 -0.01658256 -0.01709328 1.83529413 1.84705881 2.82352941
v -0.03146955 -0.01665846 -0.01705953 1.83529413 1.84705881 2.82352941
v -0.00419127 -0.01625952 -0.01717599 1.83529413 1.84705881 2.82352941
v -0.03146955 -0.01622979 -0.01718358 1.83529413 1.84705881 2.82352941
v -0.01725633 -0.01658256 -0.01709328 1.83529413 1.84705881 2.82352941
v -0.01725633 -0.01635591 -0.01715151 1.83529413 1.84705881 2.82352941
v -0.00419127 -0.01638873 -0.01714305 1.83529413 1.84705881 2.82352941
v -0.03146955 -0.01659282 -0.01708821 1.83529413 1.84705881 2.82352941
v -0.03146955 -0.01629951 -0.01716585 1.83529413 1.84705881 2.82352941
v -0.03146955 -0.01657230 -0.01709580 1.83529413 1.84705881 2.82352941
f 1 2 7
f 1 7 3
f 1 3 4
f 1 4 5
f 1 5 6
f 1 6 2
f 2 6 11
f 2 11 15
f 2 15 20
f 2 20 26
f 2 26 32
f 2 32 41
f 2 41 50
f 2 50 55
f 2 55 60
f 2 60 65
f 2 65 69
f 2 69 74
f 2 74 79
f 2 79 84
f 2 84 89
f 2 89 94
f 2 94 100
f 2 100 112
f 2 112 111
f 2 111 118
f 2 118 125
f 2 125 130
f 2 130 131
f 2 131 129
f 2 129 123
f 2 123 120
f 2 120 114
f 2 114 107
f 2 107 106
f 2 106 105
f 2 105 101
f 2 101 95
f 2 95 90
f 2 90 85
f 2 85 80
f 2 80 75
f 2 75 71
f 2 71 67
f 2 67 62
f 2 62 57
f 2 57 52
f 2 52 47
f 2 47 46
f 2 46 42
f 2 42 33
f 2 33 27
f 2 27 21
f 2 21 16
f 2 16 12
f 2 12 7
f 3 8 13
f 3 13 17
f 3 17 22
f 3 22 29
f 3 29 37
f 3 37 36
f 3 36 35
f 3 35 45
f 3 45 51
f 3 51 56
f 3 56 61
f 3 61 66
f 3 66 70
f 3 70 72
f 3 72 77
f 3 77 82
f 3 82 87
f 3 87 92
f 3 92 96
f 3 96 102
f 3 102 104
f 3 104 103
f 3 103 113
f 3 113 115
f 3 115 122
f 3 122 128
f 3 128 124
f 3 124 116
f 3 116 109
f 3 109 108
f 3 108 98
f 3 98 93
f 3 93 88
f 3 88 83
f 3 83 78
f 3 78 73
f 3 73 68
f 3 68 64
f 3 64 59
f 3 59 58
f 3 58 53
f 3 53 48
f 3 48 38
f 3 38 30
f 3 30 23
f 3 23 18
f 3 18 14
f 3 14 9
f 3 9 5
f 3 5 4
f 3 7 8
f 5 9 10
f 5 10 6
f 6 10 11
f 7 12 8
f 8 12 13
f 9 14 10
f 10 15 11
f 10 14 15
f 12 16 17
f 12 17 13
f 14 18 19
f 14 19 15
f 15 19 20
f 16 21 28
f 16 28 22
f 16 22 17
f 18 23 24
f 18 24 25
f 18 25 19
f 19 25 20
f 20 25 24
f 20 24 26
f 21 27 28
f 22 28 29
f 23 30 24
f 24 31 32
f 24 32 26
f 24 30 31
f 27 33 28
f 28 33 34
f 28 34 35
f 28 35 36
f 28 36 37
f 28 37 29
f 30 38 39
f 30 39 32
f 30 32 31
f 32 39 40
f 32 40 41
f 33 42 43
f 33 43 34
f 34 43 35
f 35 44 45
f 35 43 46
f 35 46 47
f 35 47 44
f 38 48 49
f 38 49 50
f 38 50 41
f 38 41 40
f 38 40 39
f 42 46 43
f 44 51 45
f 44 47 52
f 44 52 51
f 48 53 49
f 49 54 55
f 49 55 50
f 49 53 54
f 51 52 57
f 51 57 56
f 53 58 54
f 54 58 59
f 54 59 55
f 55 59 60
f 56 57 61
f 57 62 63
f 57 63 61
f 59 64 60
f 60 64 68
f 60 68 65
f 61 63 62
f 61 62 66
f 62 67 66
f 65 68 73
f 65 73 69
f 66 67 70
f 67 71 72
f 67 72 70
f 69 73 74
f 71 75 76
f 71 76 77
f 71 77 72
f 73 78 74
f 74 78 79
f 75 80 81
f 75 81 76
f 76 81 77
f 77 81 82
f 78 83 79
f 79 83 84
f 80 85 86
f 80 86 81
f 81 86 87
f 81 87 82
f 83 88 84
f 84 88 89
f 85 90 86
f 86 90 87
f 87 90 91
f 87 91 92
f 88 93 99
f 88 99 94
f 88 94 89
f 90 95 91
f 91 95 92
f 92 95 97
f 92 97 96
f 93 98 99
f 94 99 100
f 95 101 97
f 96 97 102
f 97 103 104
f 97 104 102
f 97 101 105
f 97 105 106
f 97 106 107
f 97 107 103
f 98 108 99
f 99 108 109
f 99 109 110
f 99 110 111
f 99 111 112
f 99 112 100
f 103 107 113
f 107 114 115
f 107 115 113
f 109 116 117
f 109 117 111
f 109 111 110
f 111 117 119
f 111 119 118
f 114 120 121
f 114 121 115
f 115 121 120
f 115 120 123
f 115 123 122
f 116 124 125
f 116 125 119
f 116 119 117
f 118 119 125
f 122 126 127
f 122 127 128
f 122 123 126
f 123 129 126
f 124 128 127
f 124 127 125
f 125 127 130
f 126 129 131
f 126 131 127
f 127 131 130