# https://github.com/mikedh/trimesh
v -0.07505637 0.01440081 0.00866028 1.30588236 2.67058824 2.88235293
v -0.07505637 -0.01440081 0.00866028 1.30588236 2.67058824 2.88235293
v -0.07505637 0.01440081 0.00093126 1.30588236 2.67058824 2.88235293
v -0.11088336 0.01292070 0.00724074 1.30588236 2.67058824 2.88235293
v -0.10190709 0.00608961 0.00759690 1.30588236 2.67058824 2.88235293
v -0.09656673 -0.01351272 0.00093126 1.30588236 2.67058824 2.88235293
v -0.07505637 -0.01440081 0.00093126 1.30588236 2.67058824 2.88235293
v -0.11088336 -0.01292070 0.00724074 1.30588236 2.67058824 2.88235293
v -0.07516800 0.00015507 -0.00858360 1.30588236 2.67058824 2.88235293
v -0.07516800 0.01439517 -0.00858189 1.30588236 2.67058824 2.88235293
v -0.11088336 0.01292070 0.00093126 1.30588236 2.67058824 2.88235293
v -0.11096898 0.01291506 0.00093126 1.30588236 2.67058824 2.88235293
v -0.11107689 0.01290378 0.00722724 1.30588236 2.67058824 2.88235293
v -0.07516800 -0.01439517 -0.00858360 1.30588236 2.67058824 2.88235293
v -0.11088336 -0.01292070 0.00093126 1.30588236 2.67058824 2.88235293
v -0.11107689 -0.01290378 0.00722724 1.30588236 2.67058824 2.88235293
v -0.11096898 -0.01291506 0.00093126 1.30588236 2.67058824 2.88235293
v -0.11088336 0.01291788 -0.00716910 1.30588236 2.67058824 2.88235293
v -0.09293823 0.01365933 -0.00787971 1.30588236 2.67058824 2.88235293
v -0.11107689 0.01290378 -0.00715392 1.30588236 2.67058824 2.88235293
v -0.11116248 0.01289250 0.00093126 1.30588236 2.67058824 2.88235293
v -0.11126670 0.01287276 0.00719685 1.30588236 2.67058824 2.88235293
v -0.11117364 -0.00001410 0.00721203 1.30588236 2.67058824 2.88235293
v -0.11088336 -0.01291788 -0.00716910 1.30588236 2.67058824 2.88235293
v -0.11126670 -0.01287276 0.00719685 1.30588236 2.67058824 2.88235293
v -0.11116248 -0.01289250 0.00093126 1.30588236 2.67058824 2.88235293
v -0.11107689 -0.01290378 -0.00715392 1.30588236 2.67058824 2.88235293
v -0.11127042 0.01287276 -0.00712353 1.30588236 2.67058824 2.88235293
v -0.11127042 0.01287276 0.00092958 1.30588236 2.67058824 2.88235293
v -0.11145648 0.01282764 0.00715296 1.30588236 2.67058824 2.88235293
v -0.11136345 -0.00002256 0.00717492 1.30588236 2.67058824 2.88235293
v -0.11145648 -0.01282764 0.00715296 1.30588236 2.67058824 2.88235293
v -0.11127042 -0.01287276 0.00092958 1.30588236 2.67058824 2.88235293
v -0.11127042 -0.01287276 -0.00712353 1.30588236 2.67058824 2.88235293
v -0.11145648 0.01282764 0.00093126 1.30588236 2.67058824 2.88235293
v -0.11135229 0.01285302 0.00092958 1.30588236 2.67058824 2.88235293
v -0.11145648 0.01282482 -0.00708132 1.30588236 2.67058824 2.88235293
v -0.11164257 0.01276563 0.00092958 1.30588236 2.67058824 2.88235293
v -0.11163885 0.01276563 0.00709389 1.30588236 2.67058824 2.88235293
v -0.11145648 -0.01282764 0.00093126 1.30588236 2.67058824 2.88235293
v -0.11163885 -0.01276563 0.00709389 1.30588236 2.67058824 2.88235293
v -0.11164257 -0.01276563 0.00092958 1.30588236 2.67058824 2.88235293
v -0.11145648 -0.01282482 -0.00708132 1.30588236 2.67058824 2.88235293
v -0.11164257 0.01276563 -0.00702225 1.30588236 2.67058824 2.88235293
v -0.11173932 0.01272333 0.00093126 1.30588236 2.67058824 2.88235293
v -0.11181375 0.01268952 0.00702132 1.30588236 2.67058824 2.88235293
v -0.11172816 -0.00003666 0.00705843 1.30588236 2.67058824 2.88235293
v -0.11164257 -0.01276563 -0.00702225 1.30588236 2.67058824 2.88235293
v -0.11181375 -0.01268952 0.00702132 1.30588236 2.67058824 2.88235293
v -0.11172072 -0.01273179 0.00092958 1.30588236 2.67058824 2.88235293
v -0.11181375 0.01268952 -0.00694968 1.30588236 2.67058824 2.88235293
v -0.11198493 0.01260210 0.00693522 1.30588236 2.67058824 2.88235293
v -0.11181375 -0.01268952 -0.00694968 1.30588236 2.67058824 2.88235293
v -0.11198493 -0.01260210 0.00693522 1.30588236 2.67058824 2.88235293
v -0.11198493 0.01260210 0.00093126 1.30588236 2.67058824 2.88235293
v -0.11198493 0.01259928 -0.00686358 1.30588236 2.67058824 2.88235293
v -0.11214498 0.01249779 0.00683733 1.30588236 2.67058824 2.88235293
v -0.11198493 -0.01260210 0.00093126 1.30588236 2.67058824 2.88235293
v -0.11198493 -0.01259928 -0.00686358 1.30588236 2.67058824 2.88235293
v -0.11214498 -0.01249779 0.00683733 1.30588236 2.67058824 2.88235293
v -0.11205564 -0.01255701 0.00093126 1.30588236 2.67058824 2.88235293
v -0.11214498 0.01249779 -0.00676401 1.30588236 2.67058824 2.88235293
v -0.11206680 0.00004794 -0.00681465 1.30588236 2.67058824 2.88235293
v -0.11229756 0.01238220 0.00092958 1.30588236 2.67058824 2.88235293
v -0.11229384 0.01238220 0.00672762 1.30588236 2.67058824 2.88235293
v -0.11214498 -0.01249779 -0.00676401 1.30588236 2.67058824 2.88235293
v -0.11229384 -0.01238220 0.00672762 1.30588236 2.67058824 2.88235293
v -0.11229756 -0.01238220 0.00092958 1.30588236 2.67058824 2.88235293
v -0.11229756 0.01238220 -0.00665430 1.30588236 2.67058824 2.88235293
v -0.11256549 0.01211721 0.00092958 1.30588236 2.67058824 2.88235293
v -0.11256177 0.01211721 0.00647442 1.30588236 2.67058824 2.88235293
v -0.11229756 -0.01238220 -0.00665430 1.30588236 2.67058824 2.88235293
v -0.11256177 0.00000000 0.00647442 1.30588236 2.67058824 2.88235293
v -0.11256177 -0.01211721 0.00647274 1.30588236 2.67058824 2.88235293
v -0.11256549 -0.01211721 0.00092958 1.30588236 2.67058824 2.88235293
v -0.11256549 0.01211721 -0.00640110 1.30588236 2.67058824 2.88235293
v -0.11278134 0.01181553 0.00618240 1.30588236 2.67058824 2.88235293
v -0.11256549 -0.01211721 -0.00640110 1.30588236 2.67058824 2.88235293
v -0.11278134 -0.01181553 0.00618240 1.30588236 2.67058824 2.88235293
v -0.11278134 0.01181271 -0.00611076 1.30588236 2.67058824 2.88235293
v -0.11278134 0.01181553 0.00093126 1.30588236 2.67058824 2.88235293
v -0.11294136 0.01148004 0.00092958 1.30588236 2.67058824 2.88235293
v -0.11293764 0.01148004 0.00586170 1.30588236 2.67058824 2.88235293
v -0.11278134 -0.01181553 0.00093126 1.30588236 2.67058824 2.88235293
v -0.11278134 -0.01181271 -0.00611076 1.30588236 2.67058824 2.88235293
v -0.11293764 -0.01148004 0.00586170 1.30588236 2.67058824 2.88235293
v -0.11287809 -0.01161819 0.00092958 1.30588236 2.67058824 2.88235293
v -0.11286321 0.00016353 -0.00595041 1.30588236 2.67058824 2.88235293
v -0.11294136 0.01148004 -0.00579006 1.30588236 2.67058824 2.88235293
v -0.11298603 0.01132497 0.00092958 1.30588236 2.67058824 2.88235293
v -0.11303814 0.01112763 0.00552411 1.30588236 2.67058824 2.88235293
v -0.11298975 -0.00017478 0.00569292 1.30588236 2.67058824 2.88235293
v -0.11294136 -0.01148004 -0.00579006 1.30588236 2.67058824 2.88235293
v -0.11303814 -0.01112763 0.00552411 1.30588236 2.67058824 2.88235293
v -0.11294136 -0.01148004 0.00092958 1.30588236 2.67058824 2.88235293
v -0.11299347 0.00017199 -0.00561960 1.30588236 2.67058824 2.88235293
v -0.11304186 0.01112481 -0.00545079 1.30588236 2.67058824 2.88235293
v -0.11304186 0.01112481 0.00092958 1.30588236 2.67058824 2.88235293
v -0.11307162 0.01076112 0.00517302 1.30588236 2.67058824 2.88235293
v -0.11304186 -0.01112481 -0.00545079 1.30588236 2.67058824 2.88235293
v -0.11307162 -0.01076112 0.00517302 1.30588236 2.67058824 2.88235293
v -0.11304186 -0.01112481 0.00092958 1.30588236 2.67058824 2.88235293
v -0.11307162 0.01076112 -0.00509970 1.30588236 2.67058824 2.88235293
v -0.11307162 -0.01076112 -0.00509970 1.30588236 2.67058824 2.88235293
f 1 2 7
f 1 7 3
f 1 3 11
f 1 11 4
f 1 4 5
f 1 5 2
f 2 6 7
f 2 5 8
f 2 8 6
f 3 7 14
f 3 14 9
f 3 9 10
f 3 10 11
f 4 11 12
f 4 12 13
f 4 13 16
f 4 16 8
f 4 8 5
f 6 14 7
f 6 8 15
f 6 15 14
f 8 16 17
f 8 17 15
f 9 14 24
f 9 24 18
f 9 18 19
f 9 19 10
f 10 19 18
f 10 18 11
f 11 18 12
f 12 20 13
f 12 18 20
f 13 20 21
f 13 21 22
f 13 22 23
f 13 23 16
f 14 15 24
f 15 17 24
f 16 23 25
f 16 25 26
f 16 26 27
f 16 27 17
f 17 27 24
f 18 24 27
f 18 27 20
f 20 27 34
f 20 34 28
f 20 28 21
f 21 28 29
f 21 29 22
f 22 25 23
f 22 29 30
f 22 30 31
f 22 31 25
f 25 31 32
f 25 32 33
f 25 33 26
f 26 33 34
f 26 34 27
f 28 35 36
f 28 36 29
f 28 34 43
f 28 43 37
f 28 37 35
f 29 36 30
f 30 36 35
f 30 35 44
f 30 44 38
f 30 38 39
f 30 39 41
f 30 41 32
f 30 32 31
f 32 40 34
f 32 34 33
f 32 41 42
f 32 42 48
f 32 48 40
f 34 40 43
f 35 37 44
f 37 43 48
f 37 48 44
f 38 44 45
f 38 45 46
f 38 46 39
f 39 46 47
f 39 47 41
f 40 48 43
f 41 47 49
f 41 49 50
f 41 50 42
f 42 50 48
f 44 48 53
f 44 53 51
f 44 51 45
f 45 51 46
f 46 51 55
f 46 55 52
f 46 52 54
f 46 54 49
f 46 49 47
f 48 50 53
f 49 53 50
f 49 54 58
f 49 58 53
f 51 53 59
f 51 59 56
f 51 56 55
f 52 55 62
f 52 62 57
f 52 57 60
f 52 60 54
f 53 58 59
f 54 60 61
f 54 61 58
f 55 56 62
f 56 59 63
f 56 63 62
f 57 62 69
f 57 69 64
f 57 64 65
f 57 65 67
f 57 67 60
f 58 61 66
f 58 66 59
f 59 66 63
f 60 66 61
f 60 67 68
f 60 68 72
f 60 72 66
f 62 63 66
f 62 66 72
f 62 72 69
f 64 69 76
f 64 76 70
f 64 70 65
f 65 70 71
f 65 71 73
f 65 73 67
f 67 73 74
f 67 74 75
f 67 75 68
f 68 75 78
f 68 78 72
f 69 72 78
f 69 78 76
f 70 76 81
f 70 81 77
f 70 77 71
f 71 77 79
f 71 79 73
f 73 79 74
f 74 79 75
f 75 79 84
f 75 84 78
f 76 78 85
f 76 85 80
f 76 80 81
f 77 81 89
f 77 89 82
f 77 82 83
f 77 83 86
f 77 86 79
f 78 84 85
f 79 86 87
f 79 87 84
f 80 85 88
f 80 88 89
f 80 89 81
f 82 89 90
f 82 90 83
f 83 90 91
f 83 91 92
f 83 92 86
f 84 87 85
f 85 87 93
f 85 93 88
f 86 92 94
f 86 94 95
f 86 95 87
f 87 95 93
f 88 93 89
f 89 93 96
f 89 96 97
f 89 97 90
f 90 97 98
f 90 98 91
f 91 98 99
f 91 99 101
f 91 101 94
f 91 94 92
f 93 95 102
f 93 102 100
f 93 100 96
f 94 101 102
f 94 102 95
f 96 100 97
f 97 100 104
f 97 104 103
f 97 103 99
f 97 99 98
f 99 103 104
f 99 104 101
f 100 102 101
f 100 101 104