# https://github.com/mikedh/trimesh
v -0.00382530 -0.00780969 -0.00859605 2.82352941 1.56470589 1.23529413
v -0.00337089 -0.00823575 0.00093042 2.82352941 1.56470589 1.23529413
v -0.00382530 0.00779271 -0.00856563 2.82352941 1.56470589 1.23529413
v -0.00382530 0.00779271 -0.00859605 2.82352941 1.56470589 1.23529413
v 0.07741515 -0.00780969 -0.00859605 2.82352941 1.56470589 1.23529413
v -0.00301218 -0.00823575 0.00828321 2.82352941 1.56470589 1.23529413
v -0.00337089 0.00825102 0.00093042 2.82352941 1.56470589 1.23529413
v 0.07752678 -0.00823575 0.00093042 2.82352941 1.56470589 1.23529413
v 0.07741515 0.00779271 -0.00859605 2.82352941 1.56470589 1.23529413
v 0.07761444 -0.00780969 -0.00858252 2.82352941 1.56470589 1.23529413
v -0.00298824 -0.00823575 0.00867198 2.82352941 1.56470589 1.23529413
v -0.00298824 0.00825102 0.00867198 2.82352941 1.56470589 1.23529413
v 0.07752678 0.00825102 0.00093042 2.82352941 1.56470589 1.23529413
v 0.07752678 -0.00823575 0.00865677 2.82352941 1.56470589 1.23529413
v 0.07761444 0.00779271 -0.00858252 2.82352941 1.56470589 1.23529413
v 0.07761444 -0.00780969 0.00093042 2.82352941 1.56470589 1.23529413
v 0.07741515 -0.00823575 0.00867198 2.82352941 1.56470589 1.23529413
v 0.07741515 0.00825102 0.00867198 2.82352941 1.56470589 1.23529413
v 0.07752678 0.00825102 0.00865677 2.82352941 1.56470589 1.23529413
v 0.07761444 0.00779271 0.00093042 2.82352941 1.56470589 1.23529413
f 1 2 3
f 1 3 4
f 1 4 9
f 1 9 5
f 1 5 8
f 1 8 2
f 2 6 7
f 2 7 3
f 2 8 14
f 2 14 17
f 2 17 11
f 2 11 6
f 3 7 4
f 4 7 13
f 4 13 9
f 5 9 15
f 5 15 10
f 5 10 8
f 6 11 12
f 6 12 7
f 7 12 18
f 7 18 19
f 7 19 13
f 8 10 16
f 8 16 14
f 9 13 15
f 10 15 20
f 10 20 16
f 11 17 18
f 11 18 12
f 13 19 20
f 13 20 15
f 14 16 20
f 14 20 19
f 14 19 18
f 14 18 17