# https://github.com/mikedh/trimesh
v 0.07512381 0.01800498 -0.00859698 1.63529412 2.14117647 1.80000000
v 0.07512381 0.01800498 -0.01514643 1.63529412 2.14117647 1.80000000
v -0.00419127 0.01800498 -0.00859698 1.63529412 2.14117647 1.80000000
v 0.07553127 0.01796973 -0.00859698 1.63529412 2.14117647 1.80000000
v 0.07553127 0.01796973 -0.01514643 1.63529412 2.14117647 1.80000000
v 0.07553127 0.01793802 -0.01550169 1.63529412 2.14117647 1.80000000
v 0.07512381 0.01796973 -0.01550676 1.63529412 2.14117647 1.80000000
v 0.03818253 0.01798032 -0.01541730 1.63529412 2.14117647 1.80000000
v -0.00419127 0.01800498 -0.01514643 1.63529412 2.14117647 1.80000000
v -0.00419127 -0.01800498 -0.00859698 1.63529412 2.14117647 1.80000000
v 0.07591473 0.01787457 -0.00859698 1.63529412 2.14117647 1.80000000
v 0.07591473 0.01787457 -0.01514643 1.63529412 2.14117647 1.80000000
v 0.07591473 0.01784283 -0.01548399 1.63529412 2.14117647 1.80000000
v 0.07553127 0.01784283 -0.01584432 1.63529412 2.14117647 1.80000000
v 0.07512381 0.01787457 -0.01585530 1.63529412 2.14117647 1.80000000
v 0.05665317 0.01795917 -0.01554981 1.63529412 2.14117647 1.80000000
v -0.00419127 0.01797327 -0.01549410 1.63529412 2.14117647 1.80000000
v 0.07512381 -0.01800498 -0.00859698 1.63529412 2.14117647 1.80000000
v -0.00419127 -0.01800498 -0.01403502 1.63529412 2.14117647 1.80000000
v 0.07599462 0.01783932 -0.00859698 1.63529412 2.14117647 1.80000000
v 0.07627422 0.01771242 -0.01514643 1.63529412 2.14117647 1.80000000
v 0.07627422 0.01768422 -0.01545867 1.63529412 2.14117647 1.80000000
v 0.07591473 0.01775118 -0.01581309 1.63529412 2.14117647 1.80000000
v 0.07553127 0.01768422 -0.01616667 1.63529412 2.14117647 1.80000000
v 0.07512381 0.01771242 -0.01618272 1.63529412 2.14117647 1.80000000
v 0.03818253 0.01775472 -0.01610001 1.63529412 2.14117647 1.80000000
v -0.00419127 0.01787457 -0.01585530 1.63529412 2.14117647 1.80000000
v -0.00419127 0.01788513 -0.01581732 1.63529412 2.14117647 1.80000000
v 0.01971189 0.01795917 -0.01554981 1.63529412 2.14117647 1.80000000
v 0.07553127 -0.01796973 -0.00859698 1.63529412 2.14117647 1.80000000
v 0.07512381 -0.01800498 -0.01514643 1.63529412 2.14117647 1.80000000
v -0.00419127 -0.01800147 -0.01516077 1.63529412 2.14117647 1.80000000
v 0.00112941 -0.01800498 -0.01512618 1.63529412 2.14117647 1.80000000
v 0.07627422 0.01771242 -0.00859698 1.63529412 2.14117647 1.80000000
v 0.07634613 0.01766658 -0.00859698 1.63529412 2.14117647 1.80000000
v 0.07660179 0.01749741 -0.01514643 1.63529412 2.14117647 1.80000000
v 0.07660179 0.01747272 -0.01542153 1.63529412 2.14117647 1.80000000
v 0.07627422 0.01759962 -0.01576077 1.63529412 2.14117647 1.80000000
v 0.07660179 0.01739871 -0.01568988 1.63529412 2.14117647 1.80000000
v 0.07591473 0.01759962 -0.01611942 1.63529412 2.14117647 1.80000000
v 0.07627422 0.01746216 -0.01604262 1.63529412 2.14117647 1.80000000
v 0.07591473 0.01739871 -0.01639791 1.63529412 2.14117647 1.80000000
v 0.07553127 0.01747272 -0.01645782 1.63529412 2.14117647 1.80000000
v 0.07512381 0.01749741 -0.01647723 1.63529412 2.14117647 1.80000000
v 0.05665317 0.01768773 -0.01621986 1.63529412 2.14117647 1.80000000
v 0.00123327 0.01771242 -0.01618272 1.63529412 2.14117647 1.80000000
v -0.00419127 0.01771947 -0.01617006 1.63529412 2.14117647 1.80000000
v 0.07553127 -0.01796973 -0.01514643 1.63529412 2.14117647 1.80000000
v 0.07591473 -0.01787457 -0.00859698 1.63529412 2.14117647 1.80000000
v 0.07512381 -0.01796973 -0.01550676 1.63529412 2.14117647 1.80000000
v 0.07520370 -0.01796973 -0.01550169 1.63529412 2.14117647 1.80000000
v 0.07526763 -0.01796973 -0.01548399 1.63529412 2.14117647 1.80000000
v 0.07533153 -0.01796973 -0.01545867 1.63529412 2.14117647 1.80000000
v 0.07538745 -0.01796973 -0.01542153 1.63529412 2.14117647 1.80000000
v 0.07543539 -0.01796973 -0.01537848 1.63529412 2.14117647 1.80000000
v 0.07546734 -0.01796973 -0.01532700 1.63529412 2.14117647 1.80000000
v 0.07549929 -0.01796973 -0.01526964 1.63529412 2.14117647 1.80000000
v 0.07552326 -0.01796973 -0.01520886 1.63529412 2.14117647 1.80000000
v 0.00123327 -0.01800498 -0.01514643 1.63529412 2.14117647 1.80000000
v 0.03818253 -0.01798032 -0.01541730 1.63529412 2.14117647 1.80000000
v -0.00419127 -0.01798737 -0.01533966 1.63529412 2.14117647 1.80000000
v 0.07660179 0.01749741 -0.00859698 1.63529412 2.14117647 1.80000000
v 0.07682547 0.01728942 -0.00859698 1.63529412 2.14117647 1.80000000
v 0.07688139 0.01723305 -0.01514643 1.63529412 2.14117647 1.80000000
v 0.07688139 0.01721190 -0.01537848 1.63529412 2.14117647 1.80000000
v 0.07660179 0.01727532 -0.01593969 1.63529412 2.14117647 1.80000000
v 0.07688139 0.01714845 -0.01560213 1.63529412 2.14117647 1.80000000
v 0.07688139 0.01704621 -0.01581309 1.63529412 2.14117647 1.80000000
v 0.07627422 0.01727532 -0.01630002 1.63529412 2.14117647 1.80000000
v 0.07591473 0.01714845 -0.01663758 1.63529412 2.14117647 1.80000000
v 0.07553127 0.01721190 -0.01670931 1.63529412 2.14117647 1.80000000
v 0.07627422 0.01704621 -0.01652112 1.63529412 2.14117647 1.80000000
v 0.05665317 0.01752561 -0.01644096 1.63529412 2.14117647 1.80000000
v 0.07512381 0.01723305 -0.01673208 1.63529412 2.14117647 1.80000000
v 0.05665317 0.01746567 -0.01650930 1.63529412 2.14117647 1.80000000
v -0.00419127 0.01749741 -0.01647723 1.63529412 2.14117647 1.80000000
v 0.01971189 0.01768773 -0.01621986 1.63529412 2.14117647 1.80000000
v -0.00419127 0.01769127 -0.01621395 1.63529412 2.14117647 1.80000000
v -0.00419127 0.01770537 -0.01619283 1.63529412 2.14117647 1.80000000
v 0.07590675 -0.01787457 -0.01526964 1.63529412 2.14117647 1.80000000
v 0.07591473 -0.01787457 -0.01514643 1.63529412 2.14117647 1.80000000
v 0.07599462 -0.01783932 -0.00859698 1.63529412 2.14117647 1.80000000
v 0.05665317 -0.01795917 -0.01554981 1.63529412 2.14117647 1.80000000
v 0.07512381 -0.01787457 -0.01585530 1.63529412 2.14117647 1.80000000
v -0.00419127 -0.01797327 -0.01549326 1.63529412 2.14117647 1.80000000
v 0.07526763 -0.01787457 -0.01584432 1.63529412 2.14117647 1.80000000
v 0.07539546 -0.01787457 -0.01581309 1.63529412 2.14117647 1.80000000
v 0.07552326 -0.01787457 -0.01576077 1.63529412 2.14117647 1.80000000
v 0.07563513 -0.01787457 -0.01568988 1.63529412 2.14117647 1.80000000
v 0.07573098 -0.01787457 -0.01560213 1.63529412 2.14117647 1.80000000
v 0.07581087 -0.01787457 -0.01550169 1.63529412 2.14117647 1.80000000
v 0.07586679 -0.01787457 -0.01538946 1.63529412 2.14117647 1.80000000
v 0.07688139 0.01723305 -0.00859698 1.63529412 2.14117647 1.80000000
v 0.07706514 0.01698981 -0.00859698 1.63529412 2.14117647 1.80000000
v 0.07710510 0.01692285 -0.01514643 1.63529412 2.14117647 1.80000000
v 0.07710510 0.01690521 -0.01532700 1.63529412 2.14117647 1.80000000
v 0.07710510 0.01685940 -0.01550169 1.63529412 2.14117647 1.80000000
v 0.07660179 0.01710966 -0.01616667 1.63529412 2.14117647 1.80000000
v 0.07688139 0.01690521 -0.01600296 1.63529412 2.14117647 1.80000000
v 0.07710510 0.01677834 -0.01566456 1.63529412 2.14117647 1.80000000
v 0.07710510 0.01666905 -0.01581309 1.63529412 2.14117647 1.80000000
v 0.07591473 0.01685940 -0.01683252 1.63529412 2.14117647 1.80000000
v 0.07553127 0.01690521 -0.01691268 1.63529412 2.14117647 1.80000000
v 0.07512381 0.01692285 -0.01694052 1.63529412 2.14117647 1.80000000
v 0.07627422 0.01677834 -0.01670001 1.63529412 2.14117647 1.80000000
v 0.07660179 0.01690521 -0.01636248 1.63529412 2.14117647 1.80000000
v 0.07660179 0.01666905 -0.01652112 1.63529412 2.14117647 1.80000000
v 0.01971189 0.01752561 -0.01644096 1.63529412 2.14117647 1.80000000
v 0.00112941 0.01707795 -0.01683759 1.63529412 2.14117647 1.80000000
v 0.00112941 0.01723305 -0.01673208 1.63529412 2.14117647 1.80000000
v -0.00419127 0.01735641 -0.01661478 1.63529412 2.14117647 1.80000000
v 0.01971189 0.01746567 -0.01650930 1.63529412 2.14117647 1.80000000
v -0.00419127 0.01761372 -0.01631943 1.63529412 2.14117647 1.80000000
v 0.00112941 0.01760667 -0.01633041 1.63529412 2.14117647 1.80000000
v 0.07620234 -0.01771242 -0.01550169 1.63529412 2.14117647 1.80000000
v 0.07625826 -0.01771242 -0.01532700 1.63529412 2.14117647 1.80000000
v 0.07627422 -0.01771242 -0.01514643 1.63529412 2.14117647 1.80000000
v 0.07627422 -0.01771242 -0.00859698 1.63529412 2.14117647 1.80000000
v 0.01971189 -0.01795917 -0.01554981 1.63529412 2.14117647 1.80000000
v 0.07512381 -0.01771242 -0.01618272 1.63529412 2.14117647 1.80000000
v 0.00123327 -0.01787457 -0.01585530 1.63529412 2.14117647 1.80000000
v -0.00419127 -0.01785693 -0.01589157 1.63529412 2.14117647 1.80000000
v -0.00419127 -0.01780053 -0.01600719 1.63529412 2.14117647 1.80000000
v 0.03818253 -0.01775472 -0.01610001 1.63529412 2.14117647 1.80000000
v -0.00419127 -0.01786752 -0.01586796 1.63529412 2.14117647 1.80000000
v 0.07533153 -0.01771242 -0.01616667 1.63529412 2.14117647 1.80000000
v 0.07552326 -0.01771242 -0.01611942 1.63529412 2.14117647 1.80000000
v 0.07569903 -0.01771242 -0.01604262 1.63529412 2.14117647 1.80000000
v 0.07586679 -0.01771242 -0.01593969 1.63529412 2.14117647 1.80000000
v 0.07601061 -0.01771242 -0.01581309 1.63529412 2.14117647 1.80000000
v 0.07612245 -0.01771242 -0.01566456 1.63529412 2.14117647 1.80000000
v 0.07710510 0.01692285 -0.00859698 1.63529412 2.14117647 1.80000000
v 0.07714506 0.01684884 -0.00859698 1.63529412 2.14117647 1.80000000
v 0.07728084 0.01658094 -0.01514643 1.63529412 2.14117647 1.80000000
v 0.07728084 0.01657035 -0.01526964 1.63529412 2.14117647 1.80000000
v 0.07728084 0.01653864 -0.01538946 1.63529412 2.14117647 1.80000000
v 0.07688139 0.01673604 -0.01616667 1.63529412 2.14117647 1.80000000
v 0.07710510 0.01653864 -0.01593969 1.63529412 2.14117647 1.80000000
v 0.07728084 0.01648224 -0.01550169 1.63529412 2.14117647 1.80000000
v 0.07728084 0.01640823 -0.01560213 1.63529412 2.14117647 1.80000000
v 0.07591473 0.01653864 -0.01697598 1.63529412 2.14117647 1.80000000
v 0.07553127 0.01657035 -0.01706289 1.63529412 2.14117647 1.80000000
v 0.07627422 0.01648224 -0.01683252 1.63529412 2.14117647 1.80000000
v 0.07512381 0.01658094 -0.01709328 1.63529412 2.14117647 1.80000000
v 0.05665317 0.01679595 -0.01699791 1.63529412 2.14117647 1.80000000
v 0.00112941 0.01692285 -0.01694052 1.63529412 2.14117647 1.80000000
v 0.07688139 0.01653864 -0.01630002 1.63529412 2.14117647 1.80000000
v 0.07660179 0.01640823 -0.01663758 1.63529412 2.14117647 1.80000000
v -0.00419127 0.01708851 -0.01682913 1.63529412 2.14117647 1.80000000
v -0.00419127 0.01719780 -0.01675572 1.63529412 2.14117647 1.80000000
v -0.00419127 0.01724010 -0.01672365 1.63529412 2.14117647 1.80000000
v -0.00419127 0.01726125 -0.01670508 1.63529412 2.14117647 1.80000000
v 0.07650591 -0.01749741 -0.01560213 1.63529412 2.14117647 1.80000000
v 0.07657782 -0.01749741 -0.01537848 1.63529412 2.14117647 1.80000000
v 0.07660179 -0.01749741 -0.01514643 1.63529412 2.14117647 1.80000000
v 0.07634613 -0.01766658 -0.00859698 1.63529412 2.14117647 1.80000000
v 0.05665317 -0.01768773 -0.01621986 1.63529412 2.14117647 1.80000000
v 0.07512381 -0.01749741 -0.01647723 1.63529412 2.14117647 1.80000000
v 0.07538745 -0.01749741 -0.01645782 1.63529412 2.14117647 1.80000000
v -0.00419127 -0.01771947 -0.01617006 1.63529412 2.14117647 1.80000000
v -0.00419127 -0.01771242 -0.01618272 1.63529412 2.14117647 1.80000000
v 0.07563513 -0.01749741 -0.01639791 1.63529412 2.14117647 1.80000000
v 0.07586679 -0.01749741 -0.01630002 1.63529412 2.14117647 1.80000000
v 0.07607451 -0.01749741 -0.01616667 1.63529412 2.14117647 1.80000000
v 0.07625826 -0.01749741 -0.01600296 1.63529412 2.14117647 1.80000000
v 0.07640205 -0.01749741 -0.01581309 1.63529412 2.14117647 1.80000000
v 0.07728084 0.01658094 -0.00859698 1.63529412 2.14117647 1.80000000
v 0.07730481 0.01650339 -0.00859698 1.63529412 2.14117647 1.80000000
v 0.07738470 0.01621788 -0.01514643 1.63529412 2.14117647 1.80000000
v 0.07738470 0.01621083 -0.01520886 1.63529412 2.14117647 1.80000000
v 0.07738470 0.01619673 -0.01526964 1.63529412 2.14117647 1.80000000
v 0.07738470 0.01616853 -0.01532700 1.63529412 2.14117647 1.80000000
v 0.07710510 0.01638354 -0.01604262 1.63529412 2.14117647 1.80000000
v 0.07728084 0.01631658 -0.01568988 1.63529412 2.14117647 1.80000000
v 0.07728084 0.01621083 -0.01576077 1.63529412 2.14117647 1.80000000
v 0.07738470 0.01612977 -0.01537848 1.63529412 2.14117647 1.80000000
v 0.07591473 0.01619673 -0.01706289 1.63529412 2.14117647 1.80000000
v 0.07553127 0.01621083 -0.01715571 1.63529412 2.14117647 1.80000000
v 0.07627422 0.01616853 -0.01691268 1.63529412 2.14117647 1.80000000
v 0.07660179 0.01612977 -0.01670931 1.63529412 2.14117647 1.80000000
v 0.07512381 0.01621788 -0.01718610 1.63529412 2.14117647 1.80000000
v 0.05665317 0.01635534 -0.01715151 1.63529412 2.14117647 1.80000000
v 0.00123327 0.01640118 -0.01713969 1.63529412 2.14117647 1.80000000
v -0.00419127 0.01658094 -0.01709328 1.63529412 2.14117647 1.80000000
v -0.00419127 0.01659504 -0.01708737 1.63529412 2.14117647 1.80000000
v 0.01971189 0.01679595 -0.01699791 1.63529412 2.14117647 1.80000000
v 0.00123327 0.01675365 -0.01701648 1.63529412 2.14117647 1.80000000
v -0.00419127 0.01676424 -0.01701141 1.63529412 2.14117647 1.80000000
v -0.00419127 0.01690875 -0.01694643 1.63529412 2.14117647 1.80000000
v -0.00419127 0.01693341 -0.01693209 1.63529412 2.14117647 1.80000000
v 0.07688139 0.01631658 -0.01639791 1.63529412 2.14117647 1.80000000
v 0.07710510 0.01621083 -0.01611942 1.63529412 2.14117647 1.80000000
v 0.07677756 -0.01723305 -0.01568988 1.63529412 2.14117647 1.80000000
v 0.07684944 -0.01723305 -0.01542153 1.63529412 2.14117647 1.80000000
v 0.07688139 -0.01723305 -0.01514643 1.63529412 2.14117647 1.80000000
v 0.07682547 -0.01728942 -0.00859698 1.63529412 2.14117647 1.80000000
v 0.07660179 -0.01749741 -0.00859698 1.63529412 2.14117647 1.80000000
v 0.05665317 -0.01752561 -0.01644096 1.63529412 2.14117647 1.80000000
v 0.01971189 -0.01768773 -0.01621986 1.63529412 2.14117647 1.80000000
v -0.00419127 -0.01752207 -0.01644600 1.63529412 2.14117647 1.80000000
v 0.05665317 -0.01746567 -0.01650930 1.63529412 2.14117647 1.80000000
v 0.07512381 -0.01723305 -0.01673379 1.63529412 2.14117647 1.80000000
v 0.00112941 -0.01749741 -0.01647723 1.63529412 2.14117647 1.80000000
v 0.07543539 -0.01723305 -0.01670931 1.63529412 2.14117647 1.80000000
v -0.00419127 -0.01759962 -0.01633968 1.63529412 2.14117647 1.80000000
v 0.07573098 -0.01723305 -0.01663758 1.63529412 2.14117647 1.80000000
v 0.07601061 -0.01723305 -0.01652112 1.63529412 2.14117647 1.80000000
v 0.07625826 -0.01723305 -0.01636248 1.63529412 2.14117647 1.80000000
v 0.07647396 -0.01723305 -0.01616667 1.63529412 2.14117647 1.80000000
v 0.07664172 -0.01723305 -0.01593969 1.63529412 2.14117647 1.80000000
v 0.07738470 0.01621788 -0.00859698 1.63529412 2.14117647 1.80000000
v 0.07742466 0.01584423 -0.01514643 1.63529412 2.14117647 1.80000000
v 0.07728084 0.01609452 -0.01581309 1.63529412 2.14117647 1.80000000
v 0.07738470 0.01608393 -0.01542153 1.63529412 2.14117647 1.80000000
v 0.07738470 0.01603107 -0.01545867 1.63529412 2.14117647 1.80000000
v 0.07591473 0.01584423 -0.01709328 1.63529412 2.14117647 1.80000000
v 0.07553127 0.01584423 -0.01718610 1.63529412 2.14117647 1.80000000
v 0.07512381 0.01584423 -0.01721817 1.63529412 2.14117647 1.80000000
v 0.07627422 0.01584423 -0.01694052 1.63529412 2.14117647 1.80000000
v 0.07660179 0.01584423 -0.01673208 1.63529412 2.14117647 1.80000000
v 0.07688139 0.01608393 -0.01645782 1.63529412 2.14117647 1.80000000
v 0.07688139 0.01584423 -0.01647723 1.63529412 2.14117647 1.80000000
v 0.05665317 0.01617204 -0.01719033 1.63529412 2.14117647 1.80000000
v -0.00419127 0.01621788 -0.01718610 1.63529412 2.14117647 1.80000000
v -0.00419127 0.01623198 -0.01718274 1.63529412 2.14117647 1.80000000
v 0.00112941 0.01640118 -0.01713969 1.63529412 2.14117647 1.80000000
v -0.00419127 0.01643994 -0.01712955 1.63529412 2.14117647 1.80000000
v 0.07710510 0.01603107 -0.01616667 1.63529412 2.14117647 1.80000000
v 0.07684944 -0.01692285 -0.01604262 1.63529412 2.14117647 1.80000000
v 0.07699326 -0.01692285 -0.01576077 1.63529412 2.14117647 1.80000000
v 0.07707315 -0.01692285 -0.01545867 1.63529412 2.14117647 1.80000000
v 0.07710510 -0.01692285 -0.01514643 1.63529412 2.14117647 1.80000000
v 0.07706514 -0.01698981 -0.00859698 1.63529412 2.14117647 1.80000000
v 0.07688139 -0.01723305 -0.00859698 1.63529412 2.14117647 1.80000000
v 0.00123327 -0.01760667 -0.01633041 1.63529412 2.14117647 1.80000000
v -0.00419127 -0.01748682 -0.01648737 1.63529412 2.14117647 1.80000000
v 0.01971189 -0.01746567 -0.01650930 1.63529412 2.14117647 1.80000000
v 0.07512381 -0.01692285 -0.01694052 1.63529412 2.14117647 1.80000000
v 0.00123327 -0.01723305 -0.01673379 1.63529412 2.14117647 1.80000000
v 0.00112941 -0.01707795 -0.01683759 1.63529412 2.14117647 1.80000000
v 0.07546734 -0.01692285 -0.01691268 1.63529412 2.14117647 1.80000000
v 0.07581087 -0.01692285 -0.01683252 1.63529412 2.14117647 1.80000000
v 0.07612245 -0.01692285 -0.01670001 1.63529412 2.14117647 1.80000000
v 0.07640205 -0.01692285 -0.01652112 1.63529412 2.14117647 1.80000000
v 0.07664172 -0.01692285 -0.01630002 1.63529412 2.14117647 1.80000000
v 0.07742466 0.01584423 -0.00859698 1.63529412 2.14117647 1.80000000
v 0.07742466 -0.01584423 -0.01514643 1.63529412 2.14117647 1.80000000
v 0.07738470 0.01584423 -0.01550676 1.63529412 2.14117647 1.80000000
v 0.07738470 0.01590768 -0.01550169 1.63529412 2.14117647 1.80000000
v 0.07738470 0.01597113 -0.01548399 1.63529412 2.14117647 1.80000000
v 0.07728084 0.01597113 -0.01584432 1.63529412 2.14117647 1.80000000
v 0.07591473 -0.01584423 -0.01709328 1.63529412 2.14117647 1.80000000
v 0.07553127 -0.01584423 -0.01718610 1.63529412 2.14117647 1.80000000
v 0.03818253 0.01612272 -0.01719453 1.63529412 2.14117647 1.80000000
v 0.07512381 -0.01584423 -0.01721817 1.63529412 2.14117647 1.80000000
v 0.00123327 0.01584423 -0.01721817 1.63529412 2.14117647 1.80000000
v 0.07627422 -0.01584423 -0.01694052 1.63529412 2.14117647 1.80000000
v 0.07660179 0.00000000 -0.01673379 1.63529412 2.14117647 1.80000000
v 0.07710510 0.01584423 -0.01618272 1.63529412 2.14117647 1.80000000
v 0.07688139 -0.01584423 -0.01647723 1.63529412 2.14117647 1.80000000
v 0.01971189 0.01617204 -0.01719033 1.63529412 2.14117647 1.80000000
v -0.00419127 0.01617909 -0.01718949 1.63529412 2.14117647 1.80000000
v 0.07728084 0.01584423 -0.01585530 1.63529412 2.14117647 1.80000000
v 0.07677756 -0.01658094 -0.01639791 1.63529412 2.14117647 1.80000000
v 0.07699326 -0.01658094 -0.01611942 1.63529412 2.14117647 1.80000000
v 0.07715304 -0.01658094 -0.01581309 1.63529412 2.14117647 1.80000000
v 0.07724889 -0.01658094 -0.01548399 1.63529412 2.14117647 1.80000000
v 0.07710510 -0.01692285 -0.00859698 1.63529412 2.14117647 1.80000000
v 0.07728084 -0.01658094 -0.01514643 1.63529412 2.14117647 1.80000000
v 0.07714506 -0.01684884 -0.00859698 1.63529412 2.14117647 1.80000000
v -0.00419127 -0.01739517 -0.01657680 1.63529412 2.14117647 1.80000000
v 0.01971189 -0.01679595 -0.01699791 1.63529412 2.14117647 1.80000000
v 0.07512381 -0.01658094 -0.01709328 1.63529412 2.14117647 1.80000000
v 0.07549929 -0.01658094 -0.01706289 1.63529412 2.14117647 1.80000000
v -0.00419127 -0.01692285 -0.01694052 1.63529412 2.14117647 1.80000000
v -0.00419127 -0.01726125 -0.01670592 1.63529412 2.14117647 1.80000000
v -0.00419127 -0.01721895 -0.01674138 1.63529412 2.14117647 1.80000000
v -0.00419127 -0.01708851 -0.01682913 1.63529412 2.14117647 1.80000000
v 0.07586679 -0.01658094 -0.01697598 1.63529412 2.14117647 1.80000000
v 0.07620234 -0.01658094 -0.01683252 1.63529412 2.14117647 1.80000000
v 0.07650591 -0.01658094 -0.01663758 1.63529412 2.14117647 1.80000000
v 0.07742466 -0.01584423 -0.00859698 1.63529412 2.14117647 1.80000000
v 0.07738470 -0.01621788 -0.01514643 1.63529412 2.14117647 1.80000000
v 0.07738470 -0.01584423 -0.01550676 1.63529412 2.14117647 1.80000000
v 0.07590675 -0.01621788 -0.01706289 1.63529412 2.14117647 1.80000000
v 0.07552326 -0.01621788 -0.01715571 1.63529412 2.14117647 1.80000000
v 0.07512381 -0.01621788 -0.01718610 1.63529412 2.14117647 1.80000000
v 0.05665317 -0.01617204 -0.01719033 1.63529412 2.14117647 1.80000000
v 0.03818253 -0.01612272 -0.01719453 1.63529412 2.14117647 1.80000000
v 0.00123327 -0.01584423 -0.01721817 1.63529412 2.14117647 1.80000000
v -0.00419127 0.01061688 -0.01721817 1.63529412 2.14117647 1.80000000
v -0.00419127 0.01585482 -0.01721649 1.63529412 2.14117647 1.80000000
v 0.07625826 -0.01621788 -0.01691268 1.63529412 2.14117647 1.80000000
v 0.07660179 -0.01584423 -0.01673379 1.63529412 2.14117647 1.80000000
v 0.07710510 -0.01584423 -0.01618272 1.63529412 2.14117647 1.80000000
v 0.07707315 -0.01621788 -0.01616667 1.63529412 2.14117647 1.80000000
v 0.07684944 -0.01621788 -0.01645782 1.63529412 2.14117647 1.80000000
v 0.07657782 -0.01621788 -0.01670931 1.63529412 2.14117647 1.80000000
v 0.07728084 -0.01584423 -0.01585530 1.63529412 2.14117647 1.80000000
v 0.07724889 -0.01621788 -0.01584432 1.63529412 2.14117647 1.80000000
v 0.07734477 -0.01621788 -0.01550169 1.63529412 2.14117647 1.80000000
v 0.07728084 -0.01658094 -0.00859698 1.63529412 2.14117647 1.80000000
v 0.07730481 -0.01650339 -0.00859698 1.63529412 2.14117647 1.80000000
v 0.00112941 -0.01675365 -0.01701648 1.63529412 2.14117647 1.80000000
v -0.00419127 -0.01659504 -0.01708737 1.63529412 2.14117647 1.80000000
v 0.05665317 -0.01635534 -0.01715151 1.63529412 2.14117647 1.80000000
v -0.00419127 -0.01658094 -0.01709328 1.63529412 2.14117647 1.80000000
v 0.00123327 -0.01640118 -0.01713969 1.63529412 2.14117647 1.80000000
v 0.07738470 -0.01621788 -0.00859698 1.63529412 2.14117647 1.80000000
v -0.00419127 -0.01623198 -0.01718274 1.63529412 2.14117647 1.80000000
v -0.00419127 -0.01621788 -0.01718610 1.63529412 2.14117647 1.80000000
v 0.01971189 -0.01617204 -0.01719033 1.63529412 2.14117647 1.80000000
v -0.00419127 -0.01606983 -0.01719876 1.63529412 2.14117647 1.80000000
v -0.00419127 -0.01585833 -0.01721649 1.63529412 2.14117647 1.80000000
v -0.00419127 -0.01061688 -0.01721817 1.63529412 2.14117647 1.80000000
v 0.00112941 -0.01640118 -0.01713969 1.63529412 2.14117647 1.80000000
v -0.00419127 -0.01643994 -0.01712955 1.63529412 2.14117647 1.80000000
f 1 2 9
f 1 9 3
f 1 3 10
f 1 10 18
f 1 18 30
f 1 30 49
f 1 49 82
f 1 82 118
f 1 118 156
f 1 156 197
f 1 197 196
f 1 196 234
f 1 234 233
f 1 233 268
f 1 268 270
f 1 270 302
f 1 302 303
f 1 303 309
f 1 309 282
f 1 282 246
f 1 246 211
f 1 211 168
f 1 168 167
f 1 167 133
f 1 133 132
f 1 132 94
f 1 94 93
f 1 93 63
f 1 63 62
f 1 62 35
f 1 35 34
f 1 34 20
f 1 20 11
f 1 11 4
f 1 4 5
f 1 5 2
f 2 5 6
f 2 6 7
f 2 7 8
f 2 8 9
f 3 9 17
f 3 17 28
f 3 28 27
f 3 27 47
f 3 47 79
f 3 79 78
f 3 78 113
f 3 113 76
f 3 76 111
f 3 111 152
f 3 152 151
f 3 151 150
f 3 150 149
f 3 149 190
f 3 190 189
f 3 189 188
f 3 188 185
f 3 185 184
f 3 184 227
f 3 227 225
f 3 225 224
f 3 224 262
f 3 262 292
f 3 292 291
f 3 291 315
f 3 315 314
f 3 314 313
f 3 313 311
f 3 311 310
f 3 310 317
f 3 317 307
f 3 307 305
f 3 305 275
f 3 275 278
f 3 278 277
f 3 277 276
f 3 276 271
f 3 271 236
f 3 236 200
f 3 200 205
f 3 205 161
f 3 161 160
f 3 160 123
f 3 123 122
f 3 122 125
f 3 125 85
f 3 85 61
f 3 61 32
f 3 32 19
f 3 19 10
f 4 11 12
f 4 12 5
f 5 12 6
f 6 12 13
f 6 13 14
f 6 14 15
f 6 15 7
f 7 15 16
f 7 16 17
f 7 17 8
f 8 17 9
f 10 19 33
f 10 33 59
f 10 59 31
f 10 31 18
f 11 20 12
f 12 20 21
f 12 21 22
f 12 22 13
f 13 23 14
f 13 22 23
f 14 23 24
f 14 24 15
f 15 24 25
f 15 25 26
f 15 26 27
f 15 27 28
f 15 28 16
f 16 28 29
f 16 29 17
f 17 29 28
f 18 31 48
f 18 48 30
f 19 32 33
f 20 34 21
f 21 34 35
f 21 35 36
f 21 36 37
f 21 37 22
f 22 38 23
f 22 37 39
f 22 39 38
f 23 40 24
f 23 38 41
f 23 41 40
f 24 40 42
f 24 42 43
f 24 43 25
f 25 43 44
f 25 44 45
f 25 45 77
f 25 77 46
f 25 46 47
f 25 47 26
f 26 47 27
f 30 48 81
f 30 81 49
f 31 50 51
f 31 51 52
f 31 52 53
f 31 53 54
f 31 54 55
f 31 55 56
f 31 56 57
f 31 57 58
f 31 58 48
f 31 59 60
f 31 60 50
f 32 61 59
f 32 59 33
f 35 62 36
f 36 62 63
f 36 63 64
f 36 64 37
f 37 64 65
f 37 65 39
f 38 39 41
f 39 66 41
f 39 65 67
f 39 67 68
f 39 68 66
f 40 41 42
f 41 69 42
f 41 66 69
f 42 70 71
f 42 71 43
f 42 69 72
f 42 72 70
f 43 71 44
f 44 73 45
f 44 71 74
f 44 74 75
f 44 75 112
f 44 112 76
f 44 76 108
f 44 108 73
f 45 73 108
f 45 108 114
f 45 114 77
f 46 77 78
f 46 78 79
f 46 79 47
f 48 58 80
f 48 80 81
f 49 81 82
f 50 83 84
f 50 84 51
f 50 60 85
f 50 85 83
f 51 86 87
f 51 87 52
f 51 84 86
f 52 87 53
f 53 87 88
f 53 88 89
f 53 89 54
f 54 89 55
f 55 89 90
f 55 90 91
f 55 91 56
f 56 91 57
f 57 91 92
f 57 92 58
f 58 92 80
f 59 61 60
f 60 61 85
f 63 93 64
f 64 93 94
f 64 94 95
f 64 95 65
f 65 95 96
f 65 96 97
f 65 97 67
f 66 98 69
f 66 68 98
f 67 97 68
f 68 99 98
f 68 97 100
f 68 100 101
f 68 101 99
f 69 98 72
f 70 102 71
f 70 72 102
f 71 102 103
f 71 103 104
f 71 104 74
f 72 105 102
f 72 98 106
f 72 106 107
f 72 107 105
f 74 104 109
f 74 109 110
f 74 110 111
f 74 111 75
f 75 111 112
f 76 113 114
f 76 114 108
f 76 112 111
f 77 114 78
f 78 114 113
f 80 92 115
f 80 115 116
f 80 116 117
f 80 117 81
f 81 117 82
f 82 117 118
f 83 85 119
f 83 119 121
f 83 121 84
f 84 120 86
f 84 121 122
f 84 122 123
f 84 123 124
f 84 124 120
f 85 125 121
f 85 121 119
f 86 126 87
f 86 120 126
f 87 126 127
f 87 127 88
f 88 127 128
f 88 128 129
f 88 129 89
f 89 129 130
f 89 130 90
f 90 130 91
f 91 130 131
f 91 131 92
f 92 131 115
f 94 132 95
f 95 132 133
f 95 133 134
f 95 134 135
f 95 135 96
f 96 135 97
f 97 135 136
f 97 136 100
f 98 99 137
f 98 137 106
f 99 101 138
f 99 138 137
f 100 136 139
f 100 139 101
f 101 139 140
f 101 140 138
f 102 141 142
f 102 142 103
f 102 105 143
f 102 143 141
f 103 142 104
f 104 142 144
f 104 144 145
f 104 145 186
f 104 186 146
f 104 146 109
f 105 107 143
f 106 137 147
f 106 147 107
f 107 148 143
f 107 147 148
f 109 146 190
f 109 190 149
f 109 149 150
f 109 150 110
f 110 150 151
f 110 151 152
f 110 152 111
f 115 131 153
f 115 153 154
f 115 154 116
f 116 154 155
f 116 155 117
f 117 156 118
f 117 155 156
f 120 157 158
f 120 158 159
f 120 159 126
f 120 124 160
f 120 160 161
f 120 161 199
f 120 199 157
f 121 125 122
f 123 160 124
f 126 159 162
f 126 162 127
f 127 162 163
f 127 163 128
f 128 163 129
f 129 163 164
f 129 164 130
f 130 164 165
f 130 165 166
f 130 166 131
f 131 166 153
f 133 167 134
f 134 167 168
f 134 168 169
f 134 169 135
f 135 169 170
f 135 170 171
f 135 171 136
f 136 171 172
f 136 172 139
f 137 138 147
f 138 173 147
f 138 140 174
f 138 174 175
f 138 175 173
f 139 172 140
f 140 172 176
f 140 176 174
f 141 177 178
f 141 178 142
f 141 143 179
f 141 179 177
f 142 178 144
f 143 148 180
f 143 180 179
f 144 178 181
f 144 181 182
f 144 182 183
f 144 183 226
f 144 226 184
f 144 184 185
f 144 185 145
f 145 185 186
f 146 186 187
f 146 187 185
f 146 185 188
f 146 188 189
f 146 189 190
f 147 191 148
f 147 173 192
f 147 192 191
f 148 191 180
f 153 166 193
f 153 193 154
f 154 193 194
f 154 194 195
f 154 195 155
f 155 195 196
f 155 196 197
f 155 197 156
f 157 198 158
f 157 199 200
f 157 200 198
f 158 201 202
f 158 202 159
f 158 198 200
f 158 200 203
f 158 203 237
f 158 237 201
f 159 204 162
f 159 202 204
f 161 205 199
f 162 206 207
f 162 207 163
f 162 204 206
f 163 207 208
f 163 208 164
f 164 208 165
f 165 208 209
f 165 209 166
f 166 209 210
f 166 210 193
f 168 211 169
f 169 211 246
f 169 246 212
f 169 212 170
f 170 212 171
f 171 212 172
f 172 212 176
f 173 175 213
f 173 213 192
f 174 176 214
f 174 214 215
f 174 215 175
f 175 215 213
f 176 212 214
f 177 179 216
f 177 216 178
f 178 216 217
f 178 217 218
f 178 218 181
f 179 219 216
f 179 180 219
f 180 220 219
f 180 191 221
f 180 221 222
f 180 222 220
f 181 218 223
f 181 223 261
f 181 261 224
f 181 224 225
f 181 225 182
f 182 226 183
f 182 225 226
f 184 226 227
f 185 187 186
f 191 192 228
f 191 228 221
f 192 213 228
f 193 210 229
f 193 229 230
f 193 230 194
f 194 230 231
f 194 231 195
f 195 231 232
f 195 232 233
f 195 233 234
f 195 234 196
f 199 235 200
f 199 205 235
f 200 236 203
f 200 235 205
f 201 237 239
f 201 239 202
f 202 238 204
f 202 239 240
f 202 240 238
f 203 236 237
f 204 238 241
f 204 241 242
f 204 242 206
f 206 242 207
f 207 243 244
f 207 244 208
f 207 242 243
f 208 244 209
f 209 244 245
f 209 245 229
f 209 229 210
f 212 246 282
f 212 282 247
f 212 247 284
f 212 284 248
f 212 248 249
f 212 249 250
f 212 250 215
f 212 215 214
f 213 215 250
f 213 250 249
f 213 249 251
f 213 251 228
f 216 252 253
f 216 253 217
f 216 219 257
f 216 257 252
f 217 253 255
f 217 255 218
f 218 254 223
f 218 255 290
f 218 290 315
f 218 315 291
f 218 291 256
f 218 256 254
f 219 220 258
f 219 258 294
f 219 294 257
f 220 222 258
f 221 228 259
f 221 259 222
f 222 259 295
f 222 295 260
f 222 260 294
f 222 294 258
f 223 254 261
f 224 261 262
f 225 227 226
f 228 251 263
f 228 263 259
f 229 245 264
f 229 264 265
f 229 265 266
f 229 266 230
f 230 266 267
f 230 267 231
f 231 267 232
f 232 268 233
f 232 267 269
f 232 269 270
f 232 270 268
f 236 271 237
f 237 271 239
f 238 272 273
f 238 273 274
f 238 274 241
f 238 240 275
f 238 275 272
f 239 271 276
f 239 276 277
f 239 277 278
f 239 278 275
f 239 275 240
f 241 274 242
f 242 274 279
f 242 279 243
f 243 279 280
f 243 280 244
f 244 281 264
f 244 264 245
f 244 280 281
f 247 282 309
f 247 309 283
f 247 283 284
f 248 284 299
f 248 299 263
f 248 263 249
f 249 263 251
f 252 285 286
f 252 286 253
f 252 257 285
f 253 286 255
f 254 256 261
f 255 286 287
f 255 287 288
f 255 288 289
f 255 289 290
f 256 291 292
f 256 292 262
f 256 262 261
f 257 293 285
f 257 294 293
f 259 263 299
f 259 299 295
f 260 295 296
f 260 296 297
f 260 297 298
f 260 298 294
f 264 297 265
f 264 281 298
f 264 298 297
f 265 297 296
f 265 296 300
f 265 300 266
f 266 300 267
f 267 300 301
f 267 301 283
f 267 283 269
f 269 302 270
f 269 283 303
f 269 303 302
f 272 275 304
f 272 304 305
f 272 305 273
f 273 306 287
f 273 287 286
f 273 286 274
f 273 305 307
f 273 307 316
f 273 316 308
f 273 308 306
f 274 286 279
f 275 305 304
f 279 286 285
f 279 285 293
f 279 293 280
f 280 293 298
f 280 298 281
f 283 309 303
f 283 301 284
f 284 301 300
f 284 300 299
f 287 306 310
f 287 310 311
f 287 311 312
f 287 312 288
f 288 312 289
f 289 312 290
f 290 312 311
f 290 311 313
f 290 313 314
f 290 314 315
f 293 294 298
f 295 299 300
f 295 300 296
f 306 308 316
f 306 316 310
f 307 317 316
f 310 316 317