# https://github.com/mikedh/trimesh
v -0.07496937 0.00781950 -0.00859605 0.35294118 1.91764707 0.42352941
v -0.07516380 0.00781950 -0.00858252 0.35294118 1.91764707 0.42352941
v -0.07496937 0.01584315 -0.00859605 0.35294118 1.91764707 0.42352941
v -0.00382566 0.00779451 -0.00859605 0.35294118 1.91764707 0.42352941
v -0.07516380 0.01439493 -0.00858252 0.35294118 1.91764707 0.42352941
v -0.07516380 0.00781950 0.00093042 0.35294118 1.91764707 0.42352941
v -0.07492452 0.01621794 -0.00859605 0.35294118 1.91764707 0.42352941
v 0.07741305 0.00779451 -0.00859605 0.35294118 1.91764707 0.42352941
v -0.00340692 0.00779451 0.00012417 0.35294118 1.91764707 0.42352941
v -0.07516380 0.01439493 0.00093042 0.35294118 1.91764707 0.42352941
v -0.07493946 0.01613799 0.00867198 0.35294118 1.91764707 0.42352941
v -0.07496937 0.00825228 0.00867198 0.35294118 1.91764707 0.42352941
v -0.07504416 0.00825228 0.00865845 0.35294118 1.91764707 0.42352941
v -0.00336204 0.00779451 0.00093042 0.35294118 1.91764707 0.42352941
v -0.07492452 0.01621896 0.00093042 0.35294118 1.91764707 0.42352941
v -0.07490955 0.01629690 -0.00859605 0.35294118 1.91764707 0.42352941
v 0.07741305 0.01592412 -0.00859605 0.35294118 1.91764707 0.42352941
v 0.07762242 0.00779451 -0.00858252 0.35294118 1.91764707 0.42352941
v -0.07504416 0.01439994 0.00865845 0.35294118 1.91764707 0.42352941
v -0.07496937 0.01584414 0.00867198 0.35294118 1.91764707 0.42352941
v -0.07492452 0.01621896 0.00867198 0.35294118 1.91764707 0.42352941
v -0.00298815 0.00825126 0.00867198 0.35294118 1.91764707 0.42352941
v 0.07762242 0.00779451 0.00093042 0.35294118 1.91764707 0.42352941
v -0.07490955 0.01629690 0.00867198 0.35294118 1.91764707 0.42352941
v -0.07487964 0.01639884 0.00003627 0.35294118 1.91764707 0.42352941
v -0.07481982 0.01658175 -0.00859605 0.35294118 1.91764707 0.42352941
v 0.07738314 0.01621794 -0.00859605 0.35294118 1.91764707 0.42352941
v 0.07762242 0.01439493 -0.00858252 0.35294118 1.91764707 0.42352941
v 0.07741305 0.00825126 0.00867198 0.35294118 1.91764707 0.42352941
v 0.07762242 0.01439493 0.00093042 0.35294118 1.91764707 0.42352941
v 0.07751772 0.00825126 0.00865677 0.35294118 1.91764707 0.42352941
v -0.07481982 0.01658274 0.00867198 0.35294118 1.91764707 0.42352941
v -0.07481982 0.01658274 0.00093042 0.35294118 1.91764707 0.42352941
v -0.07478991 0.01665570 -0.00859605 0.35294118 1.91764707 0.42352941
v 0.07738314 0.01621794 0.00093042 0.35294118 1.91764707 0.42352941
v 0.07727844 0.01658175 -0.00859605 0.35294118 1.91764707 0.42352941
v 0.07741305 0.01584315 0.00867198 0.35294118 1.91764707 0.42352941
v 0.07738314 0.01613799 0.00867198 0.35294118 1.91764707 0.42352941
v 0.07751772 0.01439694 0.00865677 0.35294118 1.91764707 0.42352941
v -0.07478991 0.01665570 0.00867198 0.35294118 1.91764707 0.42352941
v -0.07470018 0.01684860 -0.00859605 0.35294118 1.91764707 0.42352941
v 0.07727844 0.01658175 0.00093042 0.35294118 1.91764707 0.42352941
v 0.07735323 0.01629690 0.00867198 0.35294118 1.91764707 0.42352941
v 0.07736817 0.01621794 0.00867198 0.35294118 1.91764707 0.42352941
v 0.07711392 0.01692258 -0.00859605 0.35294118 1.91764707 0.42352941
v -0.07465530 0.01692357 0.00867198 0.35294118 1.91764707 0.42352941
v -0.07465530 0.01692357 0.00093042 0.35294118 1.91764707 0.42352941
v -0.07465530 0.01692258 -0.00859605 0.35294118 1.91764707 0.42352941
v 0.07711392 0.01692258 0.00093042 0.35294118 1.91764707 0.42352941
v 0.07714386 0.01685061 0.00867198 0.35294118 1.91764707 0.42352941
v 0.07726350 0.01658274 0.00867198 0.35294118 1.91764707 0.42352941
v 0.07699428 0.01708548 0.00093042 0.35294118 1.91764707 0.42352941
v 0.07687464 0.01723140 -0.00859605 0.35294118 1.91764707 0.42352941
v -0.07443099 0.01723140 0.00867198 0.35294118 1.91764707 0.42352941
v -0.07461045 0.01698954 -0.00859605 0.35294118 1.91764707 0.42352941
v 0.07705410 0.01698954 0.00867198 0.35294118 1.91764707 0.42352941
v 0.07709898 0.01692258 0.00867198 0.35294118 1.91764707 0.42352941
v 0.07687464 0.01723239 0.00093042 0.35294118 1.91764707 0.42352941
v 0.07687464 0.01723239 0.00867198 0.35294118 1.91764707 0.42352941
v 0.07681482 0.01728936 -0.00859605 0.35294118 1.91764707 0.42352941
v -0.07443099 0.01723140 -0.00859605 0.35294118 1.91764707 0.42352941
v -0.07414683 0.01749825 0.00867198 0.35294118 1.91764707 0.42352941
v -0.07428141 0.01737333 0.00093042 0.35294118 1.91764707 0.42352941
v 0.07659048 0.01749825 0.00867198 0.35294118 1.91764707 0.42352941
v 0.07659048 0.01749825 -0.00859605 0.35294118 1.91764707 0.42352941
v -0.07414683 0.01749825 -0.00859605 0.35294118 1.91764707 0.42352941
v -0.07381779 0.01771314 0.00867198 0.35294118 1.91764707 0.42352941
v -0.07398231 0.01761120 0.00093042 0.35294118 1.91764707 0.42352941
v 0.07635120 0.01766715 -0.00859605 0.35294118 1.91764707 0.42352941
v 0.07627641 0.01771413 0.00093042 0.35294118 1.91764707 0.42352941
v 0.07633623 0.01766715 0.00867198 0.35294118 1.91764707 0.42352941
v -0.07389258 0.01766616 -0.00859605 0.35294118 1.91764707 0.42352941
v -0.07374303 0.01774812 0.00867198 0.35294118 1.91764707 0.42352941
v -0.07381779 0.01771314 -0.00859605 0.35294118 1.91764707 0.42352941
v 0.07627641 0.01771413 -0.00859605 0.35294118 1.91764707 0.42352941
v 0.07609695 0.01779408 0.00003627 0.35294118 1.91764707 0.42352941
v 0.07590252 0.01787406 0.00867198 0.35294118 1.91764707 0.42352941
v 0.07618668 0.01774812 0.00867198 0.35294118 1.91764707 0.42352941
v 0.07626147 0.01771413 0.00867198 0.35294118 1.91764707 0.42352941
v -0.07345887 0.01787304 -0.00859605 0.35294118 1.91764707 0.42352941
v -0.07345887 0.01787304 0.00867198 0.35294118 1.91764707 0.42352941
v 0.07599225 0.01783806 -0.00859605 0.35294118 1.91764707 0.42352941
v 0.07590252 0.01787406 0.00093042 0.35294118 1.91764707 0.42352941
v 0.07582776 0.01789503 0.00867198 0.35294118 1.91764707 0.42352941
v -0.07326444 0.01792503 0.00093042 0.35294118 1.91764707 0.42352941
v -0.07307001 0.01797099 -0.00859605 0.35294118 1.91764707 0.42352941
v -0.07315974 0.01795002 0.00867198 0.35294118 1.91764707 0.42352941
v 0.07590252 0.01787304 -0.00859605 0.35294118 1.91764707 0.42352941
v 0.07570812 0.01792503 0.00093042 0.35294118 1.91764707 0.42352941
v 0.07552863 0.01797000 0.00093042 0.35294118 1.91764707 0.42352941
v 0.07551369 0.01797000 0.00867198 0.35294118 1.91764707 0.42352941
v -0.07307001 0.01797099 0.00867198 0.35294118 1.91764707 0.42352941
v -0.07298028 0.01797900 0.00867198 0.35294118 1.91764707 0.42352941
v -0.07268118 0.01800498 0.00093042 0.35294118 1.91764707 0.42352941
v -0.07268118 0.01800399 -0.00859605 0.35294118 1.91764707 0.42352941
v 0.07552863 0.01797000 -0.00859605 0.35294118 1.91764707 0.42352941
v 0.07512483 0.01800498 0.00867198 0.35294118 1.91764707 0.42352941
v 0.07542396 0.01797900 0.00867198 0.35294118 1.91764707 0.42352941
v -0.07268118 0.01800498 0.00867198 0.35294118 1.91764707 0.42352941
v -0.01783905 0.01800498 -0.00859605 0.35294118 1.91764707 0.42352941
v 0.07512483 0.01800498 -0.00859605 0.35294118 1.91764707 0.42352941
f 1 2 5
f 1 5 3
f 1 3 7
f 1 7 16
f 1 16 26
f 1 26 34
f 1 34 41
f 1 41 48
f 1 48 55
f 1 55 61
f 1 61 66
f 1 66 72
f 1 72 74
f 1 74 80
f 1 80 86
f 1 86 95
f 1 95 100
f 1 100 101
f 1 101 96
f 1 96 88
f 1 88 82
f 1 82 75
f 1 75 69
f 1 69 65
f 1 65 60
f 1 60 53
f 1 53 45
f 1 45 36
f 1 36 27
f 1 27 17
f 1 17 8
f 1 8 4
f 1 4 2
f 2 4 6
f 2 6 10
f 2 10 5
f 3 5 7
f 4 8 18
f 4 18 23
f 4 23 14
f 4 14 9
f 4 9 6
f 5 10 11
f 5 11 7
f 6 12 13
f 6 13 19
f 6 19 10
f 6 9 14
f 6 14 12
f 7 15 16
f 7 11 15
f 8 17 28
f 8 28 18
f 10 19 20
f 10 20 11
f 11 20 12
f 11 12 22
f 11 22 29
f 11 29 37
f 11 37 38
f 11 38 44
f 11 44 43
f 11 43 51
f 11 51 50
f 11 50 57
f 11 57 56
f 11 56 59
f 11 59 64
f 11 64 71
f 11 71 79
f 11 79 78
f 11 78 77
f 11 77 84
f 11 84 91
f 11 91 98
f 11 98 97
f 11 97 99
f 11 99 93
f 11 93 92
f 11 92 87
f 11 87 81
f 11 81 73
f 11 73 67
f 11 67 62
f 11 62 54
f 11 54 46
f 11 46 40
f 11 40 32
f 11 32 24
f 11 24 21
f 11 21 15
f 12 20 19
f 12 19 13
f 12 14 22
f 14 23 29
f 14 29 22
f 15 21 24
f 15 24 16
f 16 24 25
f 16 25 26
f 17 27 28
f 18 28 30
f 18 30 23
f 23 30 39
f 23 39 31
f 23 31 29
f 24 32 25
f 25 32 33
f 25 33 26
f 26 33 34
f 27 35 30
f 27 30 28
f 27 36 42
f 27 42 35
f 29 31 39
f 29 39 37
f 30 35 38
f 30 38 37
f 30 37 39
f 32 40 34
f 32 34 33
f 34 40 41
f 35 42 43
f 35 43 44
f 35 44 38
f 36 45 49
f 36 49 42
f 40 46 41
f 41 46 47
f 41 47 48
f 42 49 50
f 42 50 51
f 42 51 43
f 45 52 49
f 45 53 52
f 46 54 55
f 46 55 47
f 47 55 48
f 49 52 56
f 49 56 57
f 49 57 50
f 52 53 58
f 52 58 59
f 52 59 56
f 53 60 58
f 54 61 55
f 54 62 63
f 54 63 61
f 58 60 59
f 59 60 64
f 60 65 64
f 61 63 66
f 62 67 68
f 62 68 66
f 62 66 63
f 64 65 69
f 64 69 70
f 64 70 71
f 66 68 72
f 67 73 74
f 67 74 68
f 68 74 72
f 69 75 70
f 70 75 76
f 70 76 77
f 70 77 78
f 70 78 79
f 70 79 71
f 73 80 74
f 73 81 80
f 75 82 76
f 76 82 77
f 77 82 83
f 77 83 84
f 80 81 85
f 80 85 86
f 81 87 85
f 82 88 83
f 83 88 84
f 84 88 89
f 84 89 96
f 84 96 90
f 84 90 91
f 85 87 86
f 86 87 92
f 86 92 93
f 86 93 94
f 86 94 95
f 88 96 89
f 90 96 101
f 90 101 97
f 90 97 98
f 90 98 91
f 93 99 94
f 94 99 97
f 94 97 101
f 94 101 100
f 94 100 95