# https://github.com/mikedh/trimesh
v -0.07496937 -0.01584351 -0.00859605 1.69411764 2.77647060 0.21176472
v -0.07514883 -0.01439619 -0.00858084 1.69411764 2.77647060 0.21176472
v -0.07496937 -0.00780093 -0.00859605 1.69411764 2.77647060 0.21176472
v -0.07492452 -0.01621908 -0.00859605 1.69411764 2.77647060 0.21176472
v -0.07514883 -0.00780093 -0.00858084 1.69411764 2.77647060 0.21176472
v -0.07514883 -0.01439619 0.00093042 1.69411764 2.77647060 0.21176472
v -0.03180756 -0.00780093 -0.00859605 1.69411764 2.77647060 0.21176472
v -0.07490955 -0.01629798 -0.00859605 1.69411764 2.77647060 0.21176472
v -0.07492452 -0.01621908 0.00093042 1.69411764 2.77647060 0.21176472
v -0.07514883 -0.00780093 0.00093042 1.69411764 2.77647060 0.21176472
v -0.07504416 -0.01439919 0.00865845 1.69411764 2.77647060 0.21176472
v -0.07492452 -0.01621707 0.00867198 1.69411764 2.77647060 0.21176472
v -0.07495443 -0.01584252 0.00867198 1.69411764 2.77647060 0.21176472
v 0.07760748 -0.00781191 0.00093042 1.69411764 2.77647060 0.21176472
v 0.07760748 -0.00781191 -0.00858084 1.69411764 2.77647060 0.21176472
v 0.07739808 -0.00781191 -0.00859605 1.69411764 2.77647060 0.21176472
v -0.03225624 -0.00780093 0.00093042 1.69411764 2.77647060 0.21176472
v -0.07478991 -0.01665657 -0.00859605 1.69411764 2.77647060 0.21176472
v -0.07481982 -0.01658163 0.00093042 1.69411764 2.77647060 0.21176472
v -0.07481982 -0.01658163 0.00867198 1.69411764 2.77647060 0.21176472
v -0.07490955 -0.01629597 0.00867198 1.69411764 2.77647060 0.21176472
v -0.07504416 -0.00823740 0.00865845 1.69411764 2.77647060 0.21176472
v -0.07495443 -0.00823740 0.00867198 1.69411764 2.77647060 0.21176472
v 0.07741305 -0.00823740 0.00867198 1.69411764 2.77647060 0.21176472
v 0.07753269 -0.00823740 0.00865677 1.69411764 2.77647060 0.21176472
v 0.07760748 -0.01439421 0.00093042 1.69411764 2.77647060 0.21176472
v 0.07760748 -0.01439421 -0.00858084 1.69411764 2.77647060 0.21176472
v 0.07739808 -0.01592442 -0.00859605 1.69411764 2.77647060 0.21176472
v -0.07470018 -0.01685034 -0.00859605 1.69411764 2.77647060 0.21176472
v -0.07478991 -0.01665555 0.00867198 1.69411764 2.77647060 0.21176472
v 0.07741305 -0.01584252 0.00867198 1.69411764 2.77647060 0.21176472
v 0.07753269 -0.01439820 0.00865677 1.69411764 2.77647060 0.21176472
v 0.07738314 -0.01613715 0.00867198 1.69411764 2.77647060 0.21176472
v 0.07738314 -0.01621707 0.00093042 1.69411764 2.77647060 0.21176472
v 0.07738314 -0.01621707 -0.00859605 1.69411764 2.77647060 0.21176472
v -0.07465530 -0.01692324 -0.00859605 1.69411764 2.77647060 0.21176472
v -0.07465530 -0.01692324 0.00867198 1.69411764 2.77647060 0.21176472
v 0.07736817 -0.01621707 0.00867198 1.69411764 2.77647060 0.21176472
v 0.07735323 -0.01629597 0.00867198 1.69411764 2.77647060 0.21176472
v 0.07727844 -0.01658163 0.00867198 1.69411764 2.77647060 0.21176472
v 0.07727844 -0.01658163 0.00093042 1.69411764 2.77647060 0.21176472
v 0.07726350 -0.01658265 -0.00859605 1.69411764 2.77647060 0.21176472
v -0.07455063 -0.01706808 0.00093042 1.69411764 2.77647060 0.21176472
v -0.07443099 -0.01723287 -0.00859605 1.69411764 2.77647060 0.21176472
v -0.07443099 -0.01723287 0.00093042 1.69411764 2.77647060 0.21176472
v -0.07447584 -0.01716495 0.00867198 1.69411764 2.77647060 0.21176472
v 0.07714386 -0.01684932 0.00867198 1.69411764 2.77647060 0.21176472
v 0.07711392 -0.01692324 0.00093042 1.69411764 2.77647060 0.21176472
v 0.07711392 -0.01692324 -0.00859605 1.69411764 2.77647060 0.21176472
v -0.07414683 -0.01749756 -0.00859605 1.69411764 2.77647060 0.21176472
v -0.07428141 -0.01737372 0.00093042 1.69411764 2.77647060 0.21176472
v -0.07414683 -0.01749756 0.00867198 1.69411764 2.77647060 0.21176472
v -0.07420665 -0.01744065 0.00867198 1.69411764 2.77647060 0.21176472
v -0.07441602 -0.01723089 0.00867198 1.69411764 2.77647060 0.21176472
v 0.07709898 -0.01692324 0.00867198 1.69411764 2.77647060 0.21176472
v 0.07705410 -0.01698918 0.00867198 1.69411764 2.77647060 0.21176472
v 0.07687464 -0.01723089 0.00867198 1.69411764 2.77647060 0.21176472
v 0.07687464 -0.01723188 0.00093042 1.69411764 2.77647060 0.21176472
v 0.07687464 -0.01723188 -0.00859605 1.69411764 2.77647060 0.21176472
v -0.07389258 -0.01766838 -0.00859605 1.69411764 2.77647060 0.21176472
v -0.07381779 -0.01771533 0.00093042 1.69411764 2.77647060 0.21176472
v -0.07381779 -0.01771332 0.00867198 1.69411764 2.77647060 0.21176472
v 0.07659048 -0.01749756 0.00867198 1.69411764 2.77647060 0.21176472
v 0.07672509 -0.01737273 0.00093042 1.69411764 2.77647060 0.21176472
v 0.07681482 -0.01728981 -0.00859605 1.69411764 2.77647060 0.21176472
v -0.07381779 -0.01771533 -0.00859605 1.69411764 2.77647060 0.21176472
v -0.07374303 -0.01774827 0.00867198 1.69411764 2.77647060 0.21176472
v -0.07365330 -0.01779024 0.00093042 1.69411764 2.77647060 0.21176472
v 0.07653066 -0.01754451 0.00867198 1.69411764 2.77647060 0.21176472
v 0.07659048 -0.01749756 -0.00859605 1.69411764 2.77647060 0.21176472
v -0.07345887 -0.01787412 -0.00859605 1.69411764 2.77647060 0.21176472
v -0.07345887 -0.01787412 0.00093042 1.69411764 2.77647060 0.21176472
v -0.07344390 -0.01787214 0.00867198 1.69411764 2.77647060 0.21176472
v 0.07633623 -0.01766736 0.00867198 1.69411764 2.77647060 0.21176472
v 0.07627641 -0.01771332 0.00093042 1.69411764 2.77647060 0.21176472
v 0.07635120 -0.01766838 -0.00859605 1.69411764 2.77647060 0.21176472
v -0.07315974 -0.01795005 -0.00859605 1.69411764 2.77647060 0.21176472
v -0.07326444 -0.01792608 0.00093042 1.69411764 2.77647060 0.21176472
v -0.07307001 -0.01797003 0.00867198 1.69411764 2.77647060 0.21176472
v 0.07626147 -0.01771332 0.00867198 1.69411764 2.77647060 0.21176472
v 0.07627641 -0.01771332 -0.00859605 1.69411764 2.77647060 0.21176472
v 0.07618668 -0.01774827 0.00867198 1.69411764 2.77647060 0.21176472
v 0.07608201 -0.01779921 0.00093042 1.69411764 2.77647060 0.21176472
v 0.07620165 -0.01774827 -0.00859605 1.69411764 2.77647060 0.21176472
v -0.07307001 -0.01797003 0.00093042 1.69411764 2.77647060 0.21176472
v -0.07305507 -0.01797201 -0.00859605 1.69411764 2.77647060 0.21176472
v -0.07305507 -0.01797201 0.00093042 1.69411764 2.77647060 0.21176472
v -0.07266621 -0.01800498 0.00867198 1.69411764 2.77647060 0.21176472
v 0.07590252 -0.01787214 0.00867198 1.69411764 2.77647060 0.21176472
v 0.07599225 -0.01784016 -0.00859605 1.69411764 2.77647060 0.21176472
v -0.07299525 -0.01797801 -0.00859605 1.69411764 2.77647060 0.21176472
v -0.07268118 -0.01800399 0.00093042 1.69411764 2.77647060 0.21176472
v -0.07266621 -0.01800498 0.00093042 1.69411764 2.77647060 0.21176472
v 0.07512483 -0.01800498 0.00867198 1.69411764 2.77647060 0.21176472
v 0.07582776 -0.01789311 0.00867198 1.69411764 2.77647060 0.21176472
v 0.07590252 -0.01787412 0.00093042 1.69411764 2.77647060 0.21176472
v 0.07590252 -0.01787412 -0.00859605 1.69411764 2.77647060 0.21176472
v -0.07268118 -0.01800399 -0.00859605 1.69411764 2.77647060 0.21176472
v -0.01783905 -0.01800498 -0.00859605 1.69411764 2.77647060 0.21176472
v 0.07512483 -0.01800498 -0.00859605 1.69411764 2.77647060 0.21176472
v 0.07551369 -0.01797201 0.00093042 1.69411764 2.77647060 0.21176472
v 0.07551369 -0.01797003 0.00867198 1.69411764 2.77647060 0.21176472
v 0.07570812 -0.01792608 0.00093042 1.69411764 2.77647060 0.21176472
v 0.07551369 -0.01797201 -0.00859605 1.69411764 2.77647060 0.21176472
f 1 2 5
f 1 5 3
f 1 3 7
f 1 7 16
f 1 16 28
f 1 28 35
f 1 35 42
f 1 42 49
f 1 49 59
f 1 59 65
f 1 65 70
f 1 70 76
f 1 76 81
f 1 81 84
f 1 84 90
f 1 90 97
f 1 97 104
f 1 104 100
f 1 100 99
f 1 99 98
f 1 98 91
f 1 91 86
f 1 86 77
f 1 77 71
f 1 71 66
f 1 66 60
f 1 60 50
f 1 50 44
f 1 44 36
f 1 36 29
f 1 29 18
f 1 18 8
f 1 8 4
f 1 4 2
f 2 4 9
f 2 9 6
f 2 6 10
f 2 10 5
f 3 5 10
f 3 10 17
f 3 17 7
f 4 8 9
f 6 11 22
f 6 22 10
f 6 9 12
f 6 12 13
f 6 13 11
f 7 14 15
f 7 15 16
f 7 17 14
f 8 18 19
f 8 19 20
f 8 20 21
f 8 21 9
f 9 21 12
f 10 22 23
f 10 23 24
f 10 24 17
f 11 13 23
f 11 23 22
f 12 21 20
f 12 20 30
f 12 30 37
f 12 37 46
f 12 46 54
f 12 54 53
f 12 53 52
f 12 52 62
f 12 62 67
f 12 67 73
f 12 73 79
f 12 79 88
f 12 88 94
f 12 94 102
f 12 102 95
f 12 95 89
f 12 89 82
f 12 82 80
f 12 80 74
f 12 74 69
f 12 69 63
f 12 63 57
f 12 57 56
f 12 56 55
f 12 55 47
f 12 47 40
f 12 40 39
f 12 39 38
f 12 38 33
f 12 33 31
f 12 31 24
f 12 24 23
f 12 23 13
f 14 24 25
f 14 25 32
f 14 32 26
f 14 26 27
f 14 27 15
f 14 17 24
f 15 27 28
f 15 28 16
f 18 29 30
f 18 30 20
f 18 20 19
f 24 31 32
f 24 32 25
f 26 32 31
f 26 31 33
f 26 33 34
f 26 34 35
f 26 35 27
f 27 35 28
f 29 36 37
f 29 37 30
f 33 38 34
f 34 38 39
f 34 39 40
f 34 40 41
f 34 41 35
f 35 41 42
f 36 43 37
f 36 44 43
f 37 43 45
f 37 45 46
f 40 47 48
f 40 48 49
f 40 49 41
f 41 49 42
f 43 44 45
f 44 50 51
f 44 51 45
f 45 51 52
f 45 52 53
f 45 53 54
f 45 54 46
f 47 55 48
f 48 55 56
f 48 56 57
f 48 57 58
f 48 58 59
f 48 59 49
f 50 60 52
f 50 52 51
f 52 60 61
f 52 61 62
f 57 63 64
f 57 64 65
f 57 65 58
f 58 65 59
f 60 66 61
f 61 67 62
f 61 66 68
f 61 68 67
f 63 69 70
f 63 70 65
f 63 65 64
f 66 71 68
f 67 68 72
f 67 72 73
f 68 71 72
f 69 74 75
f 69 75 76
f 69 76 70
f 71 77 78
f 71 78 72
f 72 78 73
f 73 78 79
f 74 80 75
f 75 81 76
f 75 80 82
f 75 82 83
f 75 83 84
f 75 84 81
f 77 85 79
f 77 79 78
f 77 86 85
f 79 85 86
f 79 86 87
f 79 87 88
f 82 89 83
f 83 90 84
f 83 89 90
f 86 91 87
f 87 91 88
f 88 91 92
f 88 92 98
f 88 98 93
f 88 93 99
f 88 99 100
f 88 100 94
f 89 95 96
f 89 96 90
f 90 96 97
f 91 98 92
f 93 98 99
f 94 100 104
f 94 104 101
f 94 101 102
f 95 102 103
f 95 103 96
f 96 103 97
f 97 103 104
f 101 104 103
f 101 103 102