# https://github.com/mikedh/trimesh
v -0.00419127 0.01800498 -0.00859698 2.38823529 1.37647059 2.34117648
v -0.00419127 0.00782310 -0.00859698 2.38823529 1.37647059 2.34117648
v -0.00419127 0.01800498 -0.01514727 2.38823529 1.37647059 2.34117648
v -0.07268886 0.01800498 -0.00859698 2.38823529 1.37647059 2.34117648
v -0.00419127 0.00753132 -0.01500213 2.38823529 1.37647059 2.34117648
v -0.03182310 0.00750975 -0.00859698 2.38823529 1.37647059 2.34117648
v -0.00419127 0.01797210 -0.01550676 2.38823529 1.37647059 2.34117648
v -0.01725888 0.01799265 -0.01528230 2.38823529 1.37647059 2.34117648
v -0.07268886 0.01800498 -0.01514727 2.38823529 1.37647059 2.34117648
v -0.07308378 0.01797210 -0.00859698 2.38823529 1.37647059 2.34117648
v -0.00419127 0.00752928 -0.01505697 2.38823529 1.37647059 2.34117648
v -0.03151131 0.00750975 -0.01501476 2.38823529 1.37647059 2.34117648
v -0.00419127 0.00752826 -0.01522407 2.38823529 1.37647059 2.34117648
v -0.07497534 0.00750975 -0.00859698 2.38823529 1.37647059 2.34117648
v -0.01725888 0.01797621 -0.01546203 2.38823529 1.37647059 2.34117648
v -0.00419127 0.01793409 -0.01564263 2.38823529 1.37647059 2.34117648
v -0.01725888 0.01788684 -0.01581225 2.38823529 1.37647059 2.34117648
v -0.07268886 0.01797210 -0.01550676 2.38823529 1.37647059 2.34117648
v -0.03573786 0.01798032 -0.01541730 2.38823529 1.37647059 2.34117648
v -0.07308378 0.01797210 -0.01514727 2.38823529 1.37647059 2.34117648
v -0.07346487 0.01787451 -0.00859698 2.38823529 1.37647059 2.34117648
v -0.03151131 0.00750975 -0.01522407 2.38823529 1.37647059 2.34117648
v -0.00419127 0.00754263 -0.01539114 2.38823529 1.37647059 2.34117648
v -0.03152517 0.00750975 -0.01539030 2.38823529 1.37647059 2.34117648
v -0.03155289 0.00750975 -0.01555656 2.38823529 1.37647059 2.34117648
v -0.03159447 0.00750975 -0.01571772 2.38823529 1.37647059 2.34117648
v -0.03165681 0.00750975 -0.01587807 2.38823529 1.37647059 2.34117648
v -0.03172611 0.00750975 -0.01603083 2.38823529 1.37647059 2.34117648
v -0.03181617 0.00750975 -0.01618104 2.38823529 1.37647059 2.34117648
v -0.03191319 0.00750975 -0.01632618 2.38823529 1.37647059 2.34117648
v -0.03215568 0.00750975 -0.01658694 2.38823529 1.37647059 2.34117648
v -0.03241899 0.00750975 -0.01680045 2.38823529 1.37647059 2.34117648
v -0.03243285 0.00750975 -0.01680972 2.38823529 1.37647059 2.34117648
v -0.03273078 0.00750975 -0.01697934 2.38823529 1.37647059 2.34117648
v -0.03275157 0.00750975 -0.01698864 2.38823529 1.37647059 2.34117648
v -0.03307029 0.00750975 -0.01711101 2.38823529 1.37647059 2.34117648
v -0.03342366 0.00750975 -0.01719117 2.38823529 1.37647059 2.34117648
v -0.07497534 0.01584348 -0.00859698 2.38823529 1.37647059 2.34117648
v -0.07497534 0.00750975 -0.01514727 2.38823529 1.37647059 2.34117648
v -0.00419127 0.01787451 -0.01585530 2.38823529 1.37647059 2.34117648
v -0.05420988 0.01788684 -0.01581225 2.38823529 1.37647059 2.34117648
v -0.07268886 0.01787451 -0.01585530 2.38823529 1.37647059 2.34117648
v -0.07305609 0.01784370 -0.01585530 2.38823529 1.37647059 2.34117648
v -0.07307688 0.01793922 -0.01550676 2.38823529 1.37647059 2.34117648
v -0.07345794 0.01784370 -0.01550676 2.38823529 1.37647059 2.34117648
v -0.07346487 0.01787451 -0.01514727 2.38823529 1.37647059 2.34117648
v -0.07354803 0.01783959 -0.00859698 2.38823529 1.37647059 2.34117648
v -0.00419127 0.00756933 -0.01555572 2.38823529 1.37647059 2.34117648
v -0.03379089 0.00750975 -0.01721817 2.38823529 1.37647059 2.34117648
v -0.07497534 0.01584348 -0.01514727 2.38823529 1.37647059 2.34117648
v -0.07494762 0.01613832 -0.00859698 2.38823529 1.37647059 2.34117648
v -0.07494762 0.00750975 -0.01541226 2.38823529 1.37647059 2.34117648
v -0.00419127 0.01772145 -0.01617006 2.38823529 1.37647059 2.34117648
v -0.07268886 0.01771527 -0.01618272 2.38823529 1.37647059 2.34117648
v -0.07302837 0.01768650 -0.01618272 2.38823529 1.37647059 2.34117648
v -0.07342329 0.01775124 -0.01585530 2.38823529 1.37647059 2.34117648
v -0.07376280 0.01760226 -0.01585530 2.38823529 1.37647059 2.34117648
v -0.07381131 0.01768650 -0.01550676 2.38823529 1.37647059 2.34117648
v -0.07383210 0.01771527 -0.01514727 2.38823529 1.37647059 2.34117648
v -0.07383210 0.01771527 -0.00859698 2.38823529 1.37647059 2.34117648
v -0.00419127 0.00761043 -0.01571772 2.38823529 1.37647059 2.34117648
v -0.00419127 0.00968769 -0.01721817 2.38823529 1.37647059 2.34117648
v -0.00419127 0.00936204 -0.01719285 2.38823529 1.37647059 2.34117648
v -0.00419127 0.00934047 -0.01719117 2.38823529 1.37647059 2.34117648
v -0.00419127 0.00903741 -0.01711944 2.38823529 1.37647059 2.34117648
v -0.00419127 0.00900246 -0.01711101 2.38823529 1.37647059 2.34117648
v -0.00419127 0.00870864 -0.01699116 2.38823529 1.37647059 2.34117648
v -0.00419127 0.00868194 -0.01697934 2.38823529 1.37647059 2.34117648
v -0.00419127 0.00839736 -0.01680636 2.38823529 1.37647059 2.34117648
v -0.00419127 0.00813336 -0.01658442 2.38823529 1.37647059 2.34117648
v -0.00419127 0.00791043 -0.01632450 2.38823529 1.37647059 2.34117648
v -0.00419127 0.00781386 -0.01617849 2.38823529 1.37647059 2.34117648
v -0.00419127 0.00773370 -0.01603083 2.38823529 1.37647059 2.34117648
v -0.00419127 0.00766590 -0.01587639 2.38823529 1.37647059 2.34117648
v -0.07268886 0.00750975 -0.01721817 2.38823529 1.37647059 2.34117648
v -0.07493376 0.01621947 -0.01514727 2.38823529 1.37647059 2.34117648
v -0.07490604 0.01621332 -0.01550676 2.38823529 1.37647059 2.34117648
v -0.07493376 0.01584348 -0.01550676 2.38823529 1.37647059 2.34117648
v -0.07493376 0.01621947 -0.00859698 2.38823529 1.37647059 2.34117648
v -0.07493376 0.00750975 -0.01550676 2.38823529 1.37647059 2.34117648
v -0.00419127 0.01770705 -0.01619283 2.38823529 1.37647059 2.34117648
v -0.01725888 0.01771527 -0.01618272 2.38823529 1.37647059 2.34117648
v -0.05420988 0.01752624 -0.01644096 2.38823529 1.37647059 2.34117648
v -0.07268886 0.01749849 -0.01647807 2.38823529 1.37647059 2.34117648
v -0.07298679 0.01747386 -0.01647807 2.38823529 1.37647059 2.34117648
v -0.00419127 0.01759917 -0.01634136 2.38823529 1.37647059 2.34117648
v -0.07328472 0.01739886 -0.01647807 2.38823529 1.37647059 2.34117648
v -0.07336095 0.01760226 -0.01618272 2.38823529 1.37647059 2.34117648
v -0.07395681 0.01727763 -0.01618272 2.38823529 1.37647059 2.34117648
v -0.07406769 0.01739886 -0.01585530 2.38823529 1.37647059 2.34117648
v -0.07367274 0.01746459 -0.01618272 2.38823529 1.37647059 2.34117648
v -0.07413003 0.01747386 -0.01550676 2.38823529 1.37647059 2.34117648
v -0.07415775 0.01749849 -0.01514727 2.38823529 1.37647059 2.34117648
v -0.07415775 0.01749849 -0.00859698 2.38823529 1.37647059 2.34117648
v -0.00419127 0.01061949 -0.01721817 2.38823529 1.37647059 2.34117648
v -0.07308378 0.00750975 -0.01718610 2.38823529 1.37647059 2.34117648
v -0.07268886 0.01584348 -0.01721817 2.38823529 1.37647059 2.34117648
v -0.07491297 0.01629756 -0.00859698 2.38823529 1.37647059 2.34117648
v -0.07483677 0.01658316 -0.01514727 2.38823529 1.37647059 2.34117648
v -0.07480212 0.01657185 -0.01550676 2.38823529 1.37647059 2.34117648
v -0.07470513 0.01653795 -0.01585530 2.38823529 1.37647059 2.34117648
v -0.07480212 0.01619688 -0.01585530 2.38823529 1.37647059 2.34117648
v -0.07483677 0.01584348 -0.01585530 2.38823529 1.37647059 2.34117648
v -0.07491297 0.00750975 -0.01559874 2.38823529 1.37647059 2.34117648
v -0.00419127 0.01761459 -0.01632027 2.38823529 1.37647059 2.34117648
v -0.01725888 0.01752624 -0.01644096 2.38823529 1.37647059 2.34117648
v -0.03573786 0.01743276 -0.01654221 2.38823529 1.37647059 2.34117648
v -0.05420988 0.01726632 -0.01670172 2.38823529 1.37647059 2.34117648
v -0.07268886 0.01723242 -0.01673292 2.38823529 1.37647059 2.34117648
v -0.07293828 0.01721187 -0.01673292 2.38823529 1.37647059 2.34117648
v -0.00419127 0.01749849 -0.01647807 2.38823529 1.37647059 2.34117648
v -0.07318773 0.01714920 -0.01673292 2.38823529 1.37647059 2.34117648
v -0.07342329 0.01704648 -0.01673292 2.38823529 1.37647059 2.34117648
v -0.07356186 0.01727763 -0.01647807 2.38823529 1.37647059 2.34117648
v -0.07402611 0.01690779 -0.01647807 2.38823529 1.37647059 2.34117648
v -0.07419933 0.01704648 -0.01618272 2.38823529 1.37647059 2.34117648
v -0.07433097 0.01714920 -0.01585530 2.38823529 1.37647059 2.34117648
v -0.07381131 0.01711224 -0.01647807 2.38823529 1.37647059 2.34117648
v -0.07440717 0.01721187 -0.01550676 2.38823529 1.37647059 2.34117648
v -0.07443489 0.01723242 -0.01514727 2.38823529 1.37647059 2.34117648
v -0.07437945 0.01728996 -0.00859698 2.38823529 1.37647059 2.34117648
v -0.00419127 0.01584450 -0.01721733 2.38823529 1.37647059 2.34117648
v -0.01725888 0.01584348 -0.01721817 2.38823529 1.37647059 2.34117648
v -0.07308378 0.01584348 -0.01718610 2.38823529 1.37647059 2.34117648
v -0.07336788 0.00750975 -0.01711776 2.38823529 1.37647059 2.34117648
v -0.07307688 0.01590921 -0.01718610 2.38823529 1.37647059 2.34117648
v -0.07305609 0.01597188 -0.01718610 2.38823529 1.37647059 2.34117648
v -0.07302837 0.01603149 -0.01718610 2.38823529 1.37647059 2.34117648
v -0.07298679 0.01608489 -0.01718610 2.38823529 1.37647059 2.34117648
v -0.07293828 0.01613112 -0.01718610 2.38823529 1.37647059 2.34117648
v -0.07288287 0.01616913 -0.01718610 2.38823529 1.37647059 2.34117648
v -0.07282050 0.01619688 -0.01718610 2.38823529 1.37647059 2.34117648
v -0.07275813 0.01621332 -0.01718610 2.38823529 1.37647059 2.34117648
v -0.07268886 0.01621947 -0.01718610 2.38823529 1.37647059 2.34117648
v -0.03573786 0.01612497 -0.01719453 2.38823529 1.37647059 2.34117648
v -0.00419127 0.01604484 -0.01720128 2.38823529 1.37647059 2.34117648
v -0.07483677 0.01658316 -0.00859698 2.38823529 1.37647059 2.34117648
v -0.07470513 0.01685025 -0.00859698 2.38823529 1.37647059 2.34117648
v -0.07466355 0.01692423 -0.01514727 2.38823529 1.37647059 2.34117648
v -0.07463583 0.01690779 -0.01550676 2.38823529 1.37647059 2.34117648
v -0.07454577 0.01685949 -0.01585530 2.38823529 1.37647059 2.34117648
v -0.07440027 0.01677936 -0.01618272 2.38823529 1.37647059 2.34117648
v -0.07454577 0.01648350 -0.01618272 2.38823529 1.37647059 2.34117648
v -0.07463583 0.01616913 -0.01618272 2.38823529 1.37647059 2.34117648
v -0.07483677 0.00750975 -0.01585530 2.38823529 1.37647059 2.34117648
v -0.07486449 0.00750975 -0.01576329 2.38823529 1.37647059 2.34117648
v -0.07466355 0.01584348 -0.01618272 2.38823529 1.37647059 2.34117648
v -0.07471206 0.00750975 -0.01609665 2.38823529 1.37647059 2.34117648
v -0.01725888 0.01746564 -0.01651014 2.38823529 1.37647059 2.34117648
v -0.00419127 0.01737624 -0.01659621 2.38823529 1.37647059 2.34117648
v -0.01725888 0.01726632 -0.01670172 2.38823529 1.37647059 2.34117648
v -0.00419127 0.01724271 -0.01672365 2.38823529 1.37647059 2.34117648
v -0.05420988 0.01719441 -0.01675908 2.38823529 1.37647059 2.34117648
v -0.07268886 0.01692423 -0.01694052 2.38823529 1.37647059 2.34117648
v -0.01725888 0.01723242 -0.01673292 2.38823529 1.37647059 2.34117648
v -0.00419127 0.01722216 -0.01674054 2.38823529 1.37647059 2.34117648
v -0.07288287 0.01690779 -0.01694052 2.38823529 1.37647059 2.34117648
v -0.07307688 0.01685949 -0.01694052 2.38823529 1.37647059 2.34117648
v -0.07325700 0.01677936 -0.01694052 2.38823529 1.37647059 2.34117648
v -0.07342329 0.01667151 -0.01694052 2.38823529 1.37647059 2.34117648
v -0.07363116 0.01690779 -0.01673292 2.38823529 1.37647059 2.34117648
v -0.07381131 0.01673622 -0.01673292 2.38823529 1.37647059 2.34117648
v -0.07395681 0.01653795 -0.01673292 2.38823529 1.37647059 2.34117648
v -0.07419933 0.01667151 -0.01647807 2.38823529 1.37647059 2.34117648
v -0.07461504 0.01699101 -0.00859698 2.38823529 1.37647059 2.34117648
v -0.07443489 0.01723242 -0.00859698 2.38823529 1.37647059 2.34117648
v -0.00419127 0.01585785 -0.01721649 2.38823529 1.37647059 2.34117648
v -0.07346487 0.01584348 -0.01709328 2.38823529 1.37647059 2.34117648
v -0.07345794 0.01597188 -0.01709328 2.38823529 1.37647059 2.34117648
v -0.07346487 0.00750975 -0.01709328 2.38823529 1.37647059 2.34117648
v -0.07342329 0.01609620 -0.01709328 2.38823529 1.37647059 2.34117648
v -0.07336095 0.01621332 -0.01709328 2.38823529 1.37647059 2.34117648
v -0.07328472 0.01631913 -0.01709328 2.38823529 1.37647059 2.34117648
v -0.07318773 0.01640952 -0.01709328 2.38823529 1.37647059 2.34117648
v -0.07307688 0.01648350 -0.01709328 2.38823529 1.37647059 2.34117648
v -0.07295214 0.01653795 -0.01709328 2.38823529 1.37647059 2.34117648
v -0.07282050 0.01657185 -0.01709328 2.38823529 1.37647059 2.34117648
v -0.07268886 0.01658316 -0.01709328 2.38823529 1.37647059 2.34117648
v -0.03573786 0.01630989 -0.01716333 2.38823529 1.37647059 2.34117648
v -0.00419127 0.01621947 -0.01718610 2.38823529 1.37647059 2.34117648
v -0.01725888 0.01617222 -0.01719033 2.38823529 1.37647059 2.34117648
v -0.07466355 0.01692423 -0.00859698 2.38823529 1.37647059 2.34117648
v -0.07433097 0.01640952 -0.01647807 2.38823529 1.37647059 2.34117648
v -0.07440717 0.01613112 -0.01647807 2.38823529 1.37647059 2.34117648
v -0.07443489 0.01584348 -0.01647807 2.38823529 1.37647059 2.34117648
v -0.07460811 0.00750975 -0.01626036 2.38823529 1.37647059 2.34117648
v -0.07466355 0.00750975 -0.01618272 2.38823529 1.37647059 2.34117648
v -0.00419127 0.01726221 -0.01670508 2.38823529 1.37647059 2.34117648
v -0.00419127 0.01708962 -0.01682997 2.38823529 1.37647059 2.34117648
v -0.01725888 0.01692423 -0.01694052 2.38823529 1.37647059 2.34117648
v -0.07356186 0.01653795 -0.01694052 2.38823529 1.37647059 2.34117648
v -0.07406769 0.01631913 -0.01673292 2.38823529 1.37647059 2.34117648
v -0.07367274 0.01638384 -0.01694052 2.38823529 1.37647059 2.34117648
v -0.07376280 0.01621332 -0.01694052 2.38823529 1.37647059 2.34117648
v -0.07383210 0.01584348 -0.01694052 2.38823529 1.37647059 2.34117648
v -0.07381131 0.01603149 -0.01694052 2.38823529 1.37647059 2.34117648
v -0.07383210 0.00750975 -0.01694052 2.38823529 1.37647059 2.34117648
v -0.00419127 0.01658316 -0.01709328 2.38823529 1.37647059 2.34117648
v -0.00419127 0.01644138 -0.01712955 2.38823529 1.37647059 2.34117648
v -0.00419127 0.01625955 -0.01717599 2.38823529 1.37647059 2.34117648
v -0.07413003 0.01608489 -0.01673292 2.38823529 1.37647059 2.34117648
v -0.07415775 0.01584348 -0.01673292 2.38823529 1.37647059 2.34117648
v -0.07436562 0.00750975 -0.01654560 2.38823529 1.37647059 2.34117648
v -0.07443489 0.00750975 -0.01647807 2.38823529 1.37647059 2.34117648
v -0.07449726 0.00750975 -0.01640043 2.38823529 1.37647059 2.34117648
v -0.00419127 0.01693449 -0.01693293 2.38823529 1.37647059 2.34117648
v -0.00419127 0.01691088 -0.01694643 2.38823529 1.37647059 2.34117648
v -0.07415775 0.00750975 -0.01673292 2.38823529 1.37647059 2.34117648
f 1 2 5
f 1 5 11
f 1 11 13
f 1 13 23
f 1 23 48
f 1 48 61
f 1 61 74
f 1 74 73
f 1 73 72
f 1 72 71
f 1 71 70
f 1 70 69
f 1 69 68
f 1 68 67
f 1 67 66
f 1 66 65
f 1 65 64
f 1 64 63
f 1 63 62
f 1 62 95
f 1 95 122
f 1 122 167
f 1 167 136
f 1 136 180
f 1 180 200
f 1 200 199
f 1 199 198
f 1 198 207
f 1 207 206
f 1 206 189
f 1 189 156
f 1 156 152
f 1 152 188
f 1 188 150
f 1 150 111
f 1 111 86
f 1 86 105
f 1 105 81
f 1 81 53
f 1 53 40
f 1 40 16
f 1 16 7
f 1 7 3
f 1 3 9
f 1 9 4
f 1 4 10
f 1 10 21
f 1 21 47
f 1 47 60
f 1 60 94
f 1 94 121
f 1 121 166
f 1 166 165
f 1 165 182
f 1 182 138
f 1 138 137
f 1 137 98
f 1 98 79
f 1 79 51
f 1 51 38
f 1 38 14
f 1 14 6
f 1 6 2
f 2 6 5
f 3 7 15
f 3 15 8
f 3 8 19
f 3 19 9
f 4 9 20
f 4 20 10
f 5 6 11
f 6 12 13
f 6 13 11
f 6 14 39
f 6 39 52
f 6 52 80
f 6 80 104
f 6 104 146
f 6 146 145
f 6 145 148
f 6 148 187
f 6 187 186
f 6 186 205
f 6 205 204
f 6 204 203
f 6 203 208
f 6 208 197
f 6 197 170
f 6 170 125
f 6 125 96
f 6 96 75
f 6 75 49
f 6 49 37
f 6 37 36
f 6 36 35
f 6 35 34
f 6 34 33
f 6 33 32
f 6 32 31
f 6 31 30
f 6 30 29
f 6 29 28
f 6 28 27
f 6 27 26
f 6 26 25
f 6 25 24
f 6 24 22
f 6 22 12
f 7 16 17
f 7 17 41
f 7 41 18
f 7 18 19
f 7 19 15
f 8 15 19
f 9 18 20
f 9 19 18
f 10 20 46
f 10 46 21
f 12 22 13
f 13 22 24
f 13 24 25
f 13 25 26
f 13 26 27
f 13 27 28
f 13 28 29
f 13 29 30
f 13 30 31
f 13 31 32
f 13 32 33
f 13 33 34
f 13 34 35
f 13 35 36
f 13 36 37
f 13 37 23
f 14 38 50
f 14 50 39
f 16 40 17
f 17 40 42
f 17 42 41
f 18 41 42
f 18 42 43
f 18 43 44
f 18 44 20
f 20 44 45
f 20 45 46
f 21 46 47
f 23 37 49
f 23 49 48
f 38 51 50
f 39 50 52
f 40 53 42
f 42 54 43
f 42 53 54
f 43 54 55
f 43 55 56
f 43 56 45
f 43 45 44
f 45 56 57
f 45 57 58
f 45 58 59
f 45 59 46
f 46 59 47
f 47 59 60
f 48 49 61
f 49 62 63
f 49 63 64
f 49 64 65
f 49 65 66
f 49 66 67
f 49 67 68
f 49 68 69
f 49 69 70
f 49 70 71
f 49 71 72
f 49 72 73
f 49 73 74
f 49 74 61
f 49 75 97
f 49 97 123
f 49 123 95
f 49 95 62
f 50 51 76
f 50 76 77
f 50 77 78
f 50 78 52
f 51 79 76
f 52 78 80
f 53 81 82
f 53 82 54
f 54 83 84
f 54 84 85
f 54 85 55
f 54 82 86
f 54 86 83
f 55 85 87
f 55 87 88
f 55 88 56
f 56 88 57
f 57 89 90
f 57 90 92
f 57 92 58
f 57 88 91
f 57 91 89
f 58 92 93
f 58 93 59
f 59 93 94
f 59 94 60
f 75 96 124
f 75 124 97
f 76 79 98
f 76 98 99
f 76 99 77
f 77 99 100
f 77 100 101
f 77 101 102
f 77 102 103
f 77 103 78
f 78 103 104
f 78 104 80
f 81 105 82
f 82 105 86
f 83 86 106
f 83 106 111
f 83 111 84
f 84 107 108
f 84 108 109
f 84 109 110
f 84 110 85
f 84 111 149
f 84 149 107
f 85 110 112
f 85 112 87
f 86 111 106
f 87 112 113
f 87 113 114
f 87 114 88
f 88 114 91
f 89 115 116
f 89 116 117
f 89 117 90
f 89 91 114
f 89 114 118
f 89 118 115
f 90 117 119
f 90 119 92
f 92 119 93
f 93 119 120
f 93 120 121
f 93 121 94
f 95 123 122
f 96 125 124
f 97 124 126
f 97 126 127
f 97 127 128
f 97 128 129
f 97 129 130
f 97 130 131
f 97 131 132
f 97 132 133
f 97 133 134
f 97 134 135
f 97 135 136
f 97 136 123
f 98 137 99
f 99 137 138
f 99 138 139
f 99 139 140
f 99 140 100
f 100 140 101
f 101 140 141
f 101 141 142
f 101 142 143
f 101 143 144
f 101 144 102
f 102 144 103
f 103 145 146
f 103 146 104
f 103 144 147
f 103 147 148
f 103 148 145
f 107 149 150
f 107 150 151
f 107 151 108
f 108 151 152
f 108 152 109
f 109 153 154
f 109 154 110
f 109 152 155
f 109 155 156
f 109 156 153
f 110 157 158
f 110 158 112
f 110 154 157
f 111 150 149
f 112 158 113
f 113 158 159
f 113 159 160
f 113 160 161
f 113 161 118
f 113 118 114
f 115 118 161
f 115 161 162
f 115 162 163
f 115 163 164
f 115 164 142
f 115 142 116
f 116 142 117
f 117 142 141
f 117 141 140
f 117 140 119
f 119 140 120
f 120 140 139
f 120 139 165
f 120 165 166
f 120 166 121
f 122 123 167
f 123 136 167
f 124 125 168
f 124 168 169
f 124 169 126
f 125 170 168
f 126 169 171
f 126 171 127
f 127 171 128
f 128 171 172
f 128 172 173
f 128 173 129
f 129 173 130
f 130 173 174
f 130 174 131
f 131 174 175
f 131 175 132
f 132 175 176
f 132 176 133
f 133 177 134
f 133 176 177
f 134 177 178
f 134 178 179
f 134 179 180
f 134 180 181
f 134 181 135
f 135 181 136
f 136 181 180
f 138 182 139
f 139 182 165
f 142 164 183
f 142 183 143
f 143 183 144
f 144 183 184
f 144 184 185
f 144 185 147
f 147 185 186
f 147 186 187
f 147 187 148
f 150 188 151
f 151 188 152
f 152 156 155
f 153 156 189
f 153 189 154
f 154 178 157
f 154 189 190
f 154 190 198
f 154 198 178
f 157 177 158
f 157 178 177
f 158 177 176
f 158 176 175
f 158 175 159
f 159 175 160
f 160 175 174
f 160 174 173
f 160 173 191
f 160 191 162
f 160 162 161
f 162 191 163
f 163 192 164
f 163 191 193
f 163 193 194
f 163 194 192
f 164 192 183
f 168 170 197
f 168 197 195
f 168 195 169
f 169 195 196
f 169 196 194
f 169 194 171
f 171 194 193
f 171 193 172
f 172 193 191
f 172 191 173
f 178 198 179
f 179 198 199
f 179 199 200
f 179 200 180
f 183 192 184
f 184 192 201
f 184 201 202
f 184 202 185
f 185 203 204
f 185 204 205
f 185 205 186
f 185 202 203
f 189 206 190
f 190 206 207
f 190 207 198
f 192 194 196
f 192 196 201
f 195 197 208
f 195 208 202
f 195 202 196
f 196 202 201
f 202 208 203