# https://github.com/mikedh/trimesh
v 0.04661637 -0.01166008 -0.01099172
v 0.04661637 -0.01166634 -0.01098572
v 0.04661637 -0.01181034 -0.01078862
v 0.04661637 -0.01149506 -0.01114986
v 0.04661637 -0.01148880 -0.01115586
v 0.04661637 -0.01148154 -0.01116072
v 0.04661637 -0.01131939 -0.01126952
v 0.04661637 -0.01128312 -0.01129386
v 0.04661637 -0.01190523 -0.01059363
v 0.04661637 -0.01191646 -0.01057056
v 0.04661637 -0.01191272 -0.01057825
v 0.04661637 -0.01196998 -0.01037913
v 0.04661637 -0.01198144 -0.01033814
v 0.04661637 -0.01198221 -0.01032969
v 0.04661637 -0.01198375 -0.01031278
v 0.04661637 -0.01200332 -0.01009844
v 0.04661637 -0.01105556 -0.01139556
v 0.04661637 -0.01081304 -0.01145784
v 0.04661637 -0.01080422 -0.01145857
v 0.04661637 -0.01076893 -0.01146153
v 0.04661637 -0.01056292 -0.01147878
v 0.05009244 -0.01166634 -0.01098572
v 0.05009244 -0.01181034 -0.01078862
v 0.05026254 -0.01166634 -0.01097224
v 0.05022476 -0.01181034 -0.01077814
v 0.05009244 -0.01148880 -0.01115586
v 0.05009244 -0.01128312 -0.01129386
v 0.05029516 -0.01148880 -0.01113980
v 0.05032162 -0.01128312 -0.01127570
v 0.05009244 -0.01191646 -0.01057056
v 0.05018294 -0.01191646 -0.01056336
v 0.05027070 -0.01191646 -0.01054208
v 0.05035306 -0.01191646 -0.01050732
v 0.05035306 -0.01181034 -0.01074698
v 0.05009244 -0.01198144 -0.01033814
v 0.05013838 -0.01198144 -0.01033450
v 0.05009244 -0.01200332 -0.01009844
v 0.05018294 -0.01198144 -0.01032370
v 0.05022476 -0.01198144 -0.01030604
v 0.05026254 -0.01198144 -0.01028206
v 0.05029516 -0.01198144 -0.01025252
v 0.05032162 -0.01198144 -0.01021830
v 0.05034112 -0.01198144 -0.01018044
v 0.05035306 -0.01198144 -0.01014008
v 0.05035708 -0.01198144 -0.01009844
v 0.05009244 -0.01105556 -0.01139556
v 0.05034112 -0.01105556 -0.01137584
v 0.05009244 -0.01081304 -0.01145784
v 0.05009244 -0.01056292 -0.01147878
v 0.05035306 -0.01081304 -0.01143718
v 0.05035708 -0.01056292 -0.01145784
v 0.05042748 -0.01166634 -0.01093222
v 0.05058224 -0.01166634 -0.01086684
v 0.05072210 -0.01166634 -0.01077814
v 0.05054384 -0.01128312 -0.01122178
v 0.05075234 -0.01128312 -0.01113372
v 0.05049172 -0.01148880 -0.01109208
v 0.05067616 -0.01148880 -0.01101420
v 0.05084286 -0.01148880 -0.01090846
v 0.05098676 -0.01148880 -0.01077814
v 0.05094080 -0.01128312 -0.01101420
v 0.05110348 -0.01128312 -0.01086684
v 0.05042748 -0.01191646 -0.01046010
v 0.05049172 -0.01191646 -0.01040192
v 0.05047342 -0.01181034 -0.01069616
v 0.05058224 -0.01181034 -0.01062716
v 0.05084286 -0.01166634 -0.01066876
v 0.05067616 -0.01181034 -0.01054208
v 0.05075234 -0.01181034 -0.01044354
v 0.05054384 -0.01191646 -0.01033450
v 0.05058224 -0.01191646 -0.01025992
v 0.05060576 -0.01191646 -0.01018044
v 0.05061368 -0.01191646 -0.01009844
v 0.05080848 -0.01181034 -0.01033450
v 0.05084286 -0.01181034 -0.01021830
v 0.05085444 -0.01181034 -0.01009844
v 0.05094080 -0.01166634 -0.01054208
v 0.05101296 -0.01166634 -0.01040192
v 0.05105716 -0.01166634 -0.01025252
v 0.05107204 -0.01166634 -0.01009844
v 0.05110348 -0.01148880 -0.01062716
v 0.05118948 -0.01148880 -0.01046010
v 0.05123544 -0.01128312 -0.01069616
v 0.05133266 -0.01128312 -0.01050732
v 0.05124216 -0.01148880 -0.01028206
v 0.05125988 -0.01148880 -0.01009844
v 0.05058224 -0.01105556 -0.01131734
v 0.05080848 -0.01105556 -0.01122178
v 0.05060576 -0.01081304 -0.01137584
v 0.05061368 -0.01056292 -0.01139556
v 0.05084286 -0.01081304 -0.01127570
v 0.05085444 -0.01056292 -0.01129386
v 0.05101296 -0.01105556 -0.01109208
v 0.05118948 -0.01105556 -0.01093220
v 0.05105716 -0.01081304 -0.01113980
v 0.05107204 -0.01056292 -0.01115586
v 0.05124216 -0.01081304 -0.01097224
v 0.05125988 -0.01056292 -0.01098572
v 0.05133266 -0.01105556 -0.01074698
v 0.05139220 -0.01128312 -0.01030604
v 0.05141226 -0.01128312 -0.01009844
v 0.05139220 -0.01081304 -0.01077814
v 0.05141226 -0.01056292 -0.01078862
v 0.05143816 -0.01105556 -0.01054208
v 0.05150276 -0.01105556 -0.01032370
v 0.05152452 -0.01105556 -0.01009844
v 0.05150276 -0.01081304 -0.01056336
v 0.05152452 -0.01056292 -0.01057056
v 0.05157048 -0.01081304 -0.01033450
v 0.05159328 -0.01081304 -0.01009844
v 0.05159328 -0.01056292 -0.01033814
v 0.05161644 -0.01056292 -0.01009844
v 0.05161644 -0.00960266 -0.00572736
v 0.05009244 -0.01200332 0.00002410
v 0.05022476 -0.01199238 0.00002410
v 0.05035708 -0.01198144 0.00002410
v 0.05048538 -0.01194896 0.00002410
v 0.05061368 -0.01191646 0.00002410
v 0.05073406 -0.01186340 0.00002410
v 0.05085444 -0.01181034 0.00002410
v 0.05096324 -0.01173834 0.00002410
v 0.05107204 -0.01166634 0.00002410
v 0.05116596 -0.01157756 0.00002410
v 0.05125988 -0.01148880 0.00002410
v 0.05133608 -0.01138596 0.00002410
v 0.05141226 -0.01128312 0.00002410
v 0.05146840 -0.01116934 0.00002410
v 0.05152452 -0.01105556 0.00002410
v 0.05155890 -0.01093430 0.00002410
v 0.05159328 -0.01081304 0.00002410
v 0.05160486 -0.01068798 0.00002410
v 0.05161644 -0.01056292 0.00002410
v 0.05161644 -0.01008280 -0.00216144
v 0.05161644 -0.00048014 -0.00791290
v 0.05760206 -0.00504832 -0.00549064
v 0.05161644 -0.00960266 0.00577556
v 0.04661637 -0.01200332 0.01014666
v 0.04661637 -0.01200255 0.01015511
v 0.04661637 -0.01198221 0.01037791
v 0.04661637 -0.01198144 0.01038636
v 0.04661637 -0.01196998 0.01042734
v 0.04661637 -0.01191875 0.01061057
v 0.04661637 -0.01191646 0.01061876
v 0.04661637 -0.01181034 0.01083684
v 0.04661637 -0.01166634 0.01103392
v 0.04661637 -0.01152011 0.01117405
v 0.04661637 -0.01149506 0.01119806
v 0.04661637 -0.01148880 0.01120406
v 0.04661637 -0.01128312 0.01134208
v 0.04661637 -0.01127509 0.01134566
v 0.04661637 -0.01107966 0.01143300
v 0.04661637 -0.01106361 0.01144018
v 0.04661637 -0.01105558 0.01144376
v 0.04661637 -0.01081304 0.01150604
v 0.04661637 -0.01056294 0.01152702
v 0.05009244 -0.01200332 0.01014666
v 0.05009244 -0.01198144 0.01038636
v 0.05035708 -0.01198144 0.01014666
v 0.05035708 -0.01195990 0.01038270
v 0.05009244 -0.01191646 0.01061876
v 0.05035708 -0.01189590 0.01061160
v 0.05009244 -0.01181034 0.01083684
v 0.05009244 -0.01166634 0.01103392
v 0.05035708 -0.01179140 0.01082634
v 0.05035708 -0.01164958 0.01102044
v 0.05009244 -0.01148880 0.01120406
v 0.05009244 -0.01128312 0.01134208
v 0.05035708 -0.01147474 0.01118800
v 0.05035708 -0.01127218 0.01132392
v 0.05009244 -0.01105558 0.01144376
v 0.05035708 -0.01104808 0.01142406
v 0.05009244 -0.01081304 0.01150604
v 0.05009244 -0.01056294 0.01152702
v 0.05035708 -0.01080926 0.01148540
v 0.05035708 -0.01056294 0.01150604
v 0.05061368 -0.01191646 0.01014666
v 0.05061368 -0.01189590 0.01037190
v 0.05085444 -0.01181034 0.01014666
v 0.05085444 -0.01179140 0.01035424
v 0.05061368 -0.01183484 0.01059030
v 0.05061368 -0.01173512 0.01079522
v 0.05085444 -0.01173512 0.01055552
v 0.05085444 -0.01164322 0.01074436
v 0.05107204 -0.01166634 0.01014666
v 0.05107204 -0.01164958 0.01033028
v 0.05125988 -0.01148880 0.01014666
v 0.05125988 -0.01147474 0.01030072
v 0.05107204 -0.01159980 0.01050830
v 0.05107204 -0.01151850 0.01067538
v 0.05125988 -0.01143296 0.01045012
v 0.05125988 -0.01136476 0.01059030
v 0.05125988 -0.01127218 0.01071700
v 0.05061368 -0.01159980 0.01098042
v 0.05061368 -0.01143296 0.01114030
v 0.05085444 -0.01151850 0.01091508
v 0.05085444 -0.01136476 0.01106240
v 0.05107204 -0.01140818 0.01082634
v 0.05107204 -0.01127218 0.01095668
v 0.05061368 -0.01123970 0.01126998
v 0.05061368 -0.01102586 0.01136554
v 0.05085444 -0.01118664 0.01118192
v 0.05085444 -0.01098958 0.01126998
v 0.05061368 -0.01079796 0.01142406
v 0.05061368 -0.01056294 0.01144376
v 0.05085444 -0.01077954 0.01132392
v 0.05085444 -0.01056294 0.01134208
v 0.05107204 -0.01111464 0.01106240
v 0.05107204 -0.01094032 0.01114030
v 0.05125988 -0.01115806 0.01082634
v 0.05125988 -0.01102586 0.01091508
v 0.05125988 -0.01087960 0.01098042
v 0.05125988 -0.01072370 0.01102044
v 0.05125988 -0.01056294 0.01103392
v 0.05107204 -0.01075454 0.01118800
v 0.05107204 -0.01056294 0.01120406
v 0.05141226 -0.01128312 0.01014666
v 0.05141226 -0.01127218 0.01026650
v 0.05141226 -0.01123970 0.01038270
v 0.05152452 -0.01105558 0.01014666
v 0.05152452 -0.01104808 0.01022864
v 0.05152452 -0.01102586 0.01030814
v 0.05152452 -0.01098958 0.01038270
v 0.05141226 -0.01118664 0.01049176
v 0.05141226 -0.01111464 0.01059030
v 0.05152452 -0.01094032 0.01045012
v 0.05152452 -0.01087960 0.01050830
v 0.05141226 -0.01102586 0.01067538
v 0.05141226 -0.01092302 0.01074436
v 0.05159328 -0.01081304 0.01014666
v 0.05159328 -0.01080926 0.01018828
v 0.05159328 -0.01079796 0.01022864
v 0.05159328 -0.01077954 0.01026650
v 0.05159328 -0.01075454 0.01030072
v 0.05159328 -0.01072370 0.01033028
v 0.05159328 -0.01068800 0.01035424
v 0.05159328 -0.01064848 0.01037190
v 0.05159328 -0.01060636 0.01038270
v 0.05159328 -0.01056294 0.01038636
v 0.05161644 -0.01056294 0.01014666
v 0.05152452 -0.01080926 0.01055552
v 0.05152452 -0.01073142 0.01059030
v 0.05141226 -0.01080926 0.01079522
v 0.05152452 -0.01064848 0.01061160
v 0.05152452 -0.01056294 0.01061876
v 0.05141226 -0.01068800 0.01082634
v 0.05141226 -0.01056294 0.01083684
v 0.05760206 -0.00455432 0.00553886
v 0.05009244 0.00000000 -0.01147878
v 0.05022476 0.00000000 -0.01146830
v 0.05035708 0.00000000 -0.01145782
v 0.05048538 0.00000000 -0.01142670
v 0.05061368 0.00000000 -0.01139556
v 0.05073406 0.00000000 -0.01134470
v 0.05085444 0.00000000 -0.01129386
v 0.05096324 0.00000000 -0.01122486
v 0.05107204 0.00000000 -0.01115586
v 0.05116596 0.00000000 -0.01107078
v 0.05125988 0.00000000 -0.01098572
v 0.05133608 0.00000000 -0.01088716
v 0.05141226 0.00000000 -0.01078862
v 0.05146840 0.00000000 -0.01067958
v 0.05152452 0.00000000 -0.01057056
v 0.05155890 0.00000000 -0.01045434
v 0.05159328 0.00000000 -0.01033814
v 0.05160486 0.00000000 -0.01021830
v 0.05161644 0.00000000 -0.01009844
v 0.05161644 0.00000000 -0.00572736
v 0.04661637 0.01056292 -0.01147878
v 0.04661637 0.01081304 -0.01145782
v 0.04661637 0.01083871 -0.01145123
v 0.04661637 0.01104701 -0.01139774
v 0.04661637 0.01105556 -0.01139554
v 0.04661637 0.01106359 -0.01139196
v 0.04661637 0.01125905 -0.01130462
v 0.04661637 0.01127509 -0.01129744
v 0.04661637 0.01128312 -0.01129386
v 0.04661637 0.01148880 -0.01115584
v 0.04661637 0.01150758 -0.01113784
v 0.04661637 0.01166008 -0.01099172
v 0.04661637 0.01166634 -0.01098572
v 0.04661637 0.01181034 -0.01078860
v 0.04661637 0.01181408 -0.01078091
v 0.04661637 0.01191272 -0.01057823
v 0.04661637 0.01191646 -0.01057054
v 0.04661637 0.01198144 -0.01033814
v 0.04661637 0.01200101 -0.01012380
v 0.04661637 0.01200255 -0.01010689
v 0.04661637 0.01200332 -0.01009844
v 0.05009244 0.01056292 -0.01147878
v 0.05009244 0.01081304 -0.01145782
v 0.05035708 0.01056292 -0.01145782
v 0.05035708 0.01080924 -0.01143718
v 0.05009244 0.01105556 -0.01139554
v 0.05035708 0.01104808 -0.01137584
v 0.05009244 0.01128312 -0.01129386
v 0.05009244 0.01148880 -0.01115584
v 0.05035708 0.01127218 -0.01127570
v 0.05035708 0.01147472 -0.01113978
v 0.05009244 0.01166634 -0.01098572
v 0.05009244 0.01181034 -0.01078860
v 0.05035708 0.01164956 -0.01097222
v 0.05035708 0.01179138 -0.01077814
v 0.05009244 0.01191646 -0.01057054
v 0.05035708 0.01189588 -0.01056336
v 0.05009244 0.01198144 -0.01033814
v 0.05009244 0.01200332 -0.01009844
v 0.05035708 0.01195988 -0.01033450
v 0.05035708 0.01198144 -0.01009844
v 0.05061368 0.01056292 -0.01139554
v 0.05061368 0.01079796 -0.01137584
v 0.05085444 0.01056292 -0.01129386
v 0.05085444 0.01077954 -0.01127570
v 0.05061368 0.01102586 -0.01131732
v 0.05061368 0.01123968 -0.01122178
v 0.05085444 0.01098956 -0.01122178
v 0.05085444 0.01118664 -0.01113370
v 0.05107204 0.01056292 -0.01115584
v 0.05107204 0.01075452 -0.01113978
v 0.05125988 0.01056292 -0.01098572
v 0.05125988 0.01072370 -0.01097222
v 0.05107204 0.01094032 -0.01109208
v 0.05107204 0.01111462 -0.01101418
v 0.05125988 0.01087958 -0.01093220
v 0.05125988 0.01102586 -0.01086684
v 0.05125988 0.01115806 -0.01077814
v 0.05061368 0.01143296 -0.01109208
v 0.05061368 0.01159978 -0.01093220
v 0.05085444 0.01136476 -0.01101418
v 0.05085444 0.01151850 -0.01086684
v 0.05107204 0.01127218 -0.01090846
v 0.05107204 0.01140818 -0.01077814
v 0.05061368 0.01173512 -0.01074698
v 0.05061368 0.01183482 -0.01054208
v 0.05085444 0.01164322 -0.01069614
v 0.05085444 0.01173512 -0.01050730
v 0.05061368 0.01189588 -0.01032368
v 0.05061368 0.01191646 -0.01009844
v 0.05085444 0.01179138 -0.01030602
v 0.05085444 0.01181034 -0.01009844
v 0.05107204 0.01151850 -0.01062716
v 0.05107204 0.01159978 -0.01046010
v 0.05125988 0.01127218 -0.01066876
v 0.05125988 0.01136474 -0.01054208
v 0.05125988 0.01143296 -0.01040190
v 0.05125988 0.01147472 -0.01025252
v 0.05125988 0.01148880 -0.01009844
v 0.05107204 0.01164956 -0.01028206
v 0.05107204 0.01166632 -0.01009844
v 0.05141226 0.01056292 -0.01078860
v 0.05141226 0.01068798 -0.01077814
v 0.05152452 0.01056292 -0.01057054
v 0.05152452 0.01064846 -0.01056336
v 0.05141226 0.01080924 -0.01074698
v 0.05152452 0.01073142 -0.01054208
v 0.05152452 0.01080924 -0.01050730
v 0.05159328 0.01056292 -0.01033814
v 0.05159328 0.01060636 -0.01033450
v 0.05159328 0.01064846 -0.01032368
v 0.05159328 0.01068798 -0.01030602
v 0.05159328 0.01072370 -0.01028206
v 0.05159328 0.01075452 -0.01025252
v 0.05159328 0.01077954 -0.01021830
v 0.05159328 0.01079796 -0.01018042
v 0.05159328 0.01080924 -0.01014006
v 0.05159328 0.01081304 -0.01009844
v 0.05161644 0.01056292 -0.01009844
v 0.05141226 0.01092302 -0.01069614
v 0.05141226 0.01102586 -0.01062716
v 0.05152452 0.01087958 -0.01046010
v 0.05152452 0.01094032 -0.01040192
v 0.05141226 0.01111462 -0.01054208
v 0.05141226 0.01118664 -0.01044354
v 0.05152452 0.01098956 -0.01033450
v 0.05152452 0.01102586 -0.01025992
v 0.05152452 0.01104808 -0.01018042
v 0.05152452 0.01105556 -0.01009844
v 0.05141226 0.01123968 -0.01033450
v 0.05141226 0.01127218 -0.01021830
v 0.05141226 0.01128312 -0.01009844
v 0.05161644 0.00960266 -0.00572734
v 0.05161644 0.01008278 -0.00216144
v 0.05760206 0.00455432 -0.00549064
v 0.05161644 0.00000000 0.00577556
v 0.05009244 0.00000000 0.01152702
v 0.05022476 0.00000000 0.01151654
v 0.05035708 0.00000000 0.01150604
v 0.05161644 0.00048012 0.00796112
v 0.05048538 0.00000000 0.01147490
v 0.05061368 0.00000000 0.01144376
v 0.05085444 0.00000000 0.01134208
v 0.05073406 0.00000000 0.01139292
v 0.05133608 0.00000000 0.01093540
v 0.05116596 0.00000000 0.01111900
v 0.05125988 0.00000000 0.01103394
v 0.05096324 0.00000000 0.01127306
v 0.05107204 0.00000000 0.01120406
v 0.05159328 0.00000000 0.01038636
v 0.05161644 0.00000000 0.01014666
v 0.05160486 0.00000000 0.01026650
v 0.05155890 0.00000000 0.01050256
v 0.05152452 0.00000000 0.01061876
v 0.05146840 0.00000000 0.01072780
v 0.05141226 0.00000000 0.01083686
v 0.05009244 0.01200332 0.00002412
v 0.05022476 0.01199238 0.00002412
v 0.05035708 0.01198144 0.00002412
v 0.05048538 0.01194894 0.00002412
v 0.05061368 0.01191646 0.00002412
v 0.05085444 0.01181034 0.00002412
v 0.05073406 0.01186340 0.00002412
v 0.05133608 0.01138596 0.00002412
v 0.05116596 0.01157756 0.00002412
v 0.05125988 0.01148878 0.00002412
v 0.05096324 0.01173834 0.00002412
v 0.05107204 0.01166632 0.00002412
v 0.05159328 0.01081304 0.00002412
v 0.05161644 0.01056292 0.00002412
v 0.05160486 0.01068798 0.00002412
v 0.05155890 0.01093430 0.00002412
v 0.05152452 0.01105556 0.00002412
v 0.05146840 0.01116934 0.00002412
v 0.05141226 0.01128312 0.00002412
v 0.05161644 0.00960266 0.00577556
v 0.04661637 0.01056292 0.01152702
v 0.04661637 0.01060703 0.01152332
v 0.04661637 0.01078657 0.01150826
v 0.04661637 0.01082159 0.01150384
v 0.04661637 0.01081304 0.01150604
v 0.04661637 0.01104700 0.01144596
v 0.04661637 0.01105556 0.01144376
v 0.04661637 0.01200332 0.01014666
v 0.04661637 0.01197914 0.01039456
v 0.04661637 0.01198221 0.01037791
v 0.04661637 0.01198375 0.01036100
v 0.04661637 0.01198144 0.01038636
v 0.04661637 0.01196998 0.01042735
v 0.04661637 0.01191644 0.01061876
v 0.04661637 0.01191270 0.01062646
v 0.04661637 0.01189773 0.01065723
v 0.04661637 0.01128312 0.01134208
v 0.04661637 0.01129037 0.01133721
v 0.04661637 0.01131939 0.01131774
v 0.04661637 0.01148878 0.01120406
v 0.04661637 0.01181034 0.01083686
v 0.04661637 0.01166632 0.01103394
v 0.05009244 0.01056292 0.01152702
v 0.05009244 0.01081304 0.01150604
v 0.05035708 0.01056292 0.01150604
v 0.05035708 0.01080924 0.01148540
v 0.05009244 0.01105556 0.01144376
v 0.05035708 0.01104808 0.01142406
v 0.05009244 0.01200332 0.01014666
v 0.05009244 0.01198144 0.01038636
v 0.05035708 0.01198144 0.01014666
v 0.05035708 0.01195988 0.01038272
v 0.05009244 0.01191644 0.01061876
v 0.05035708 0.01189588 0.01061162
v 0.05009244 0.01128312 0.01134208
v 0.05009244 0.01148878 0.01120406
v 0.05035708 0.01127216 0.01132392
v 0.05035708 0.01147472 0.01118800
v 0.05009244 0.01181034 0.01083686
v 0.05009244 0.01166632 0.01103394
v 0.05035708 0.01179138 0.01082636
v 0.05035708 0.01164956 0.01102044
v 0.05061368 0.01056292 0.01144376
v 0.05061368 0.01079796 0.01142406
v 0.05085444 0.01056292 0.01134208
v 0.05085444 0.01077954 0.01132392
v 0.05061368 0.01102584 0.01136554
v 0.05061368 0.01123968 0.01127000
v 0.05085444 0.01098956 0.01127000
v 0.05085444 0.01118662 0.01118192
v 0.05125988 0.01056292 0.01103394
v 0.05125988 0.01072368 0.01102044
v 0.05107204 0.01056292 0.01120406
v 0.05107204 0.01075452 0.01118800
v 0.05107204 0.01094030 0.01114030
v 0.05107204 0.01111462 0.01106240
v 0.05125988 0.01087958 0.01098042
v 0.05125988 0.01102584 0.01091508
v 0.05125988 0.01115806 0.01082636
v 0.05061368 0.01191644 0.01014666
v 0.05061368 0.01189588 0.01037190
v 0.05085444 0.01181034 0.01014666
v 0.05085444 0.01179138 0.01035424
v 0.05061368 0.01173510 0.01079522
v 0.05061368 0.01183482 0.01059030
v 0.05085444 0.01173510 0.01055552
v 0.05085444 0.01164322 0.01074436
v 0.05125988 0.01148878 0.01014666
v 0.05125988 0.01147472 0.01030074
v 0.05107204 0.01159978 0.01050832
v 0.05107204 0.01151850 0.01067538
v 0.05125988 0.01143294 0.01045014
v 0.05125988 0.01136474 0.01059030
v 0.05125988 0.01127216 0.01071700
v 0.05107204 0.01166632 0.01014666
v 0.05107204 0.01164956 0.01033028
v 0.05061368 0.01143294 0.01114030
v 0.05061368 0.01159978 0.01098042
v 0.05085444 0.01136474 0.01106240
v 0.05085444 0.01151850 0.01091508
v 0.05107204 0.01127216 0.01095668
v 0.05107204 0.01140818 0.01082636
v 0.05159328 0.01056292 0.01038636
v 0.05159328 0.01068798 0.01035424
v 0.05159328 0.01060634 0.01038272
v 0.05159328 0.01064846 0.01037190
v 0.05159328 0.01077954 0.01026652
v 0.05159328 0.01081304 0.01014666
v 0.05159328 0.01080924 0.01018828
v 0.05159328 0.01079796 0.01022864
v 0.05159328 0.01072368 0.01033028
v 0.05159328 0.01075452 0.01030074
v 0.05161644 0.01056292 0.01014666
v 0.05152452 0.01056292 0.01061876
v 0.05152452 0.01064846 0.01061160
v 0.05152452 0.01073142 0.01059030
v 0.05152452 0.01080924 0.01055552
v 0.05141226 0.01080924 0.01079522
v 0.05152452 0.01105556 0.01014666
v 0.05152452 0.01104808 0.01022864
v 0.05152452 0.01102584 0.01030814
v 0.05152452 0.01098956 0.01038272
v 0.05141226 0.01123968 0.01038272
v 0.05152452 0.01087958 0.01050832
v 0.05152452 0.01094030 0.01045014
v 0.05141226 0.01092302 0.01074436
v 0.05141226 0.01102584 0.01067538
v 0.05141226 0.01111462 0.01059030
v 0.05141226 0.01118662 0.01049176
v 0.05141226 0.01056292 0.01083686
v 0.05141226 0.01068798 0.01082636
v 0.05141226 0.01128312 0.01014666
v 0.05141226 0.01127216 0.01026652
v 0.05760206 0.00504832 0.00553886
v 0.06358768 -0.00910866 -0.00525394
v 0.06358768 -0.00049400 -0.00525394
v 0.07555890 -0.00861466 -0.00478054
v 0.07568770 -0.00860414 -0.00477048
v 0.07581508 -0.00858338 -0.00475054
v 0.07594012 -0.00855246 -0.00472094
v 0.07606196 -0.00851166 -0.00468184
v 0.07617970 -0.00846124 -0.00463352
v 0.07629250 -0.00840156 -0.00457632
v 0.07639954 -0.00833308 -0.00451070
v 0.07650006 -0.00825626 -0.00443708
v 0.07667866 -0.00807992 -0.00426810
v 0.07682320 -0.00787760 -0.00407420
v 0.07692952 -0.00765512 -0.00386100
v 0.07699454 -0.00741886 -0.00363460
v 0.07701642 -0.00717562 -0.00340150
v 0.07562330 -0.00000526 -0.00477550
v 0.07575138 -0.00001038 -0.00476050
v 0.07612082 -0.00002522 -0.00465768
v 0.07623610 -0.00002984 -0.00460492
v 0.07658936 -0.00008818 -0.00435258
v 0.07675092 -0.00010116 -0.00417114
v 0.07687636 -0.00011124 -0.00396760
v 0.07696204 -0.00011814 -0.00374780
v 0.07700548 -0.00012162 -0.00351804
v 0.06358768 -0.00910866 0.00049752
v 0.06358768 -0.00910866 0.00530216
v 0.07667866 -0.00807992 0.00431630
v 0.07682320 -0.00787760 0.00412244
v 0.07692952 -0.00765512 0.00390922
v 0.07555890 -0.00861466 0.00482874
v 0.07568770 -0.00860416 0.00481868
v 0.07581508 -0.00858338 0.00479876
v 0.07594012 -0.00855248 0.00476916
v 0.07606196 -0.00851166 0.00473004
v 0.07617970 -0.00846124 0.00468172
v 0.07629250 -0.00840158 0.00462454
v 0.07650006 -0.00825628 0.00448530
v 0.07639954 -0.00833308 0.00455892
v 0.07701642 -0.00717562 0.00344970
v 0.07699454 -0.00741886 0.00368280
v 0.06957330 -0.00406032 0.00506546
v 0.07562330 -0.00000526 0.00482372
v 0.07575138 -0.00001040 0.00480872
v 0.07623610 -0.00002984 0.00465314
v 0.07644980 -0.00003842 0.00452212
v 0.07612082 -0.00002522 0.00470588
v 0.06358768 0.00910866 -0.00525394
v 0.06358768 0.00910864 -0.00044930
v 0.06957330 0.00406032 -0.00501724
v 0.07555890 0.00000000 -0.00478054
v 0.07568770 0.00000000 -0.00477048
v 0.07581508 0.00000000 -0.00475054
v 0.07587760 0.00001546 -0.00473574
v 0.07594012 0.00000000 -0.00472094
v 0.07600104 0.00002040 -0.00470138
v 0.07606196 0.00000000 -0.00468182
v 0.07617970 0.00000000 -0.00463352
v 0.07629250 0.00000000 -0.00457632
v 0.07634602 0.00003424 -0.00454352
v 0.07639954 0.00000000 -0.00451070
v 0.07644980 0.00003840 -0.00447388
v 0.07650006 0.00000000 -0.00443706
v 0.07667866 0.00000000 -0.00426810
v 0.07682320 0.00000000 -0.00407420
v 0.07692952 0.00000000 -0.00386100
v 0.07699454 0.00000000 -0.00363460
v 0.07701642 0.00000000 0.00002410
v 0.07699454 0.00741886 -0.00363460
v 0.07701642 0.00717562 -0.00340150
v 0.07555890 0.00861464 -0.00478054
v 0.07568770 0.00860414 -0.00477048
v 0.07581508 0.00858338 -0.00475054
v 0.07594012 0.00855246 -0.00472094
v 0.07606196 0.00851166 -0.00468182
v 0.07629250 0.00840156 -0.00457632
v 0.07617970 0.00846124 -0.00463352
v 0.07639954 0.00833308 -0.00451070
v 0.07650006 0.00825626 -0.00443706
v 0.07692952 0.00765512 -0.00386100
v 0.07667866 0.00807992 -0.00426810
v 0.07682320 0.00787760 -0.00407420
v 0.06358768 0.00049400 0.00530216
v 0.06358768 0.00910864 0.00530216
v 0.07700548 0.00012162 0.00356626
v 0.07699454 0.00000000 0.00368280
v 0.07696204 0.00011812 0.00379602
v 0.07692952 0.00000000 0.00390922
v 0.07667866 0.00000000 0.00431632
v 0.07675092 0.00010116 0.00421938
v 0.07682320 0.00000000 0.00412244
v 0.07687636 0.00011124 0.00401582
v 0.07555890 0.00000000 0.00482874
v 0.07568770 0.00000000 0.00481868
v 0.07581508 0.00000000 0.00479876
v 0.07587760 0.00001544 0.00478396
v 0.07594012 0.00000000 0.00476916
v 0.07600104 0.00002040 0.00474960
v 0.07606196 0.00000000 0.00473004
v 0.07617970 0.00000000 0.00468172
v 0.07629250 0.00000000 0.00462454
v 0.07650006 0.00000000 0.00448530
v 0.07634602 0.00003424 0.00459172
v 0.07639954 0.00000000 0.00455892
v 0.07658936 0.00008816 0.00440082
v 0.07701642 0.00717562 0.00344972
v 0.07699454 0.00741886 0.00368282
v 0.07692952 0.00765512 0.00390922
v 0.07667866 0.00807992 0.00431632
v 0.07682320 0.00787760 0.00412244
v 0.07555890 0.00861464 0.00482876
v 0.07568770 0.00860414 0.00481870
v 0.07581508 0.00858336 0.00479876
v 0.07594012 0.00855246 0.00476916
v 0.07606196 0.00851166 0.00473004
v 0.07629250 0.00840156 0.00462454
v 0.07617970 0.00846124 0.00468172
v 0.07650006 0.00825626 0.00448532
v 0.07639954 0.00833308 0.00455892
f 22 2 1
f 23 3 2
f 26 4 5
f 26 5 6
f 26 6 7
f 27 7 8
f 22 1 4
f 30 11 9
f 30 9 3
f 30 10 11
f 30 12 10
f 35 14 13
f 35 15 14
f 35 13 12
f 37 16 15
f 27 8 17
f 46 17 18
f 48 18 19
f 48 19 20
f 49 20 21
f 22 23 2
f 26 7 27
f 22 4 26
f 23 30 3
f 30 35 12
f 35 37 15
f 27 17 46
f 46 18 48
f 48 20 49
f 22 24 23
f 24 25 23
f 25 52 34
f 24 52 25
f 26 27 29
f 26 29 28
f 28 29 55
f 22 26 28
f 22 28 24
f 24 28 57
f 24 57 52
f 23 25 30
f 25 31 30
f 30 31 35
f 31 36 35
f 25 34 31
f 31 34 32
f 32 65 33
f 32 34 65
f 31 32 36
f 32 33 38
f 33 63 39
f 35 36 37
f 36 38 37
f 38 39 37
f 32 38 36
f 33 39 38
f 39 40 37
f 63 40 39
f 64 41 40
f 63 64 40
f 70 42 41
f 40 41 37
f 41 42 37
f 37 42 43
f 37 43 44
f 37 44 45
f 71 43 42
f 27 46 47
f 27 47 29
f 29 47 87
f 46 50 47
f 46 48 50
f 48 51 50
f 48 49 51
f 37 114 16
f 37 45 115
f 49 249 51
f 53 65 34
f 52 53 34
f 53 54 65
f 28 55 57
f 55 56 57
f 52 57 58
f 52 58 53
f 56 58 57
f 53 58 59
f 53 59 54
f 54 59 60
f 56 61 58
f 58 61 59
f 59 62 60
f 59 61 62
f 60 62 83
f 33 65 66
f 33 66 63
f 63 68 64
f 63 66 68
f 64 68 69
f 54 66 65
f 66 67 68
f 54 67 66
f 68 67 77
f 68 77 69
f 64 70 41
f 70 71 42
f 64 69 70
f 70 74 71
f 43 72 44
f 71 72 43
f 44 72 73
f 44 73 45
f 69 74 70
f 71 74 75
f 71 75 72
f 72 75 76
f 72 76 73
f 69 78 74
f 54 60 67
f 69 77 78
f 74 79 75
f 74 78 79
f 75 80 76
f 79 80 75
f 60 81 67
f 67 81 77
f 77 81 82
f 77 82 78
f 60 83 81
f 81 83 84
f 81 84 82
f 82 84 100
f 78 85 79
f 78 82 85
f 79 86 80
f 79 85 86
f 82 100 85
f 85 100 101
f 85 101 86
f 29 87 55
f 55 87 88
f 47 89 87
f 47 50 89
f 55 88 56
f 56 88 93
f 87 89 91
f 87 91 88
f 50 90 89
f 50 51 90
f 89 92 91
f 89 90 92
f 88 95 93
f 88 91 95
f 56 93 61
f 61 93 94
f 61 94 62
f 93 95 97
f 62 99 83
f 62 94 99
f 93 97 94
f 94 102 99
f 94 97 102
f 91 96 95
f 91 92 96
f 95 98 97
f 97 103 102
f 95 96 98
f 97 98 103
f 83 104 84
f 83 99 104
f 84 104 105
f 99 107 104
f 102 107 99
f 104 107 109
f 84 105 100
f 100 105 106
f 100 106 101
f 104 109 105
f 105 109 110
f 105 110 106
f 102 108 107
f 107 111 109
f 102 103 108
f 107 108 111
f 109 112 110
f 109 111 112
f 45 73 117
f 73 76 119
f 76 80 121
f 80 86 123
f 86 101 125
f 101 106 127
f 106 110 129
f 110 112 131
f 112 113 133
f 51 251 90
f 90 253 92
f 92 255 96
f 96 257 98
f 98 259 103
f 103 261 108
f 108 263 111
f 111 265 112
f 112 134 113
f 37 115 114
f 45 116 115
f 45 117 116
f 114 156 16
f 73 118 117
f 73 119 118
f 76 120 119
f 76 121 120
f 80 122 121
f 80 123 122
f 86 124 123
f 86 125 124
f 101 126 125
f 101 127 126
f 106 128 127
f 106 129 128
f 110 130 129
f 110 131 130
f 112 132 131
f 112 133 132
f 113 136 133
f 49 21 268
f 49 248 249
f 51 249 250
f 51 250 251
f 90 251 252
f 90 252 253
f 92 253 254
f 92 254 255
f 96 255 256
f 96 256 257
f 98 257 258
f 98 258 259
f 103 259 260
f 103 260 261
f 108 261 262
f 108 262 263
f 111 263 264
f 111 264 265
f 112 265 266
f 112 266 134
f 113 134 267
f 113 267 135
f 113 135 538
f 113 538 563
f 135 267 539
f 538 135 539
f 156 137 16
f 114 115 156
f 115 116 158
f 116 117 158
f 132 133 136
f 117 118 176
f 118 119 176
f 119 120 178
f 120 121 178
f 121 122 184
f 122 123 184
f 123 124 186
f 124 125 186
f 125 126 216
f 126 127 216
f 127 128 219
f 128 129 219
f 129 130 229
f 130 131 229
f 131 132 239
f 132 136 239
f 115 158 156
f 156 138 137
f 157 139 138
f 157 140 139
f 157 141 140
f 160 142 141
f 160 143 142
f 162 144 143
f 163 145 144
f 163 146 145
f 166 147 146
f 166 148 147
f 167 149 148
f 167 150 149
f 170 151 150
f 170 152 151
f 170 153 152
f 172 154 153
f 173 155 154
f 156 157 138
f 157 160 141
f 160 162 143
f 162 163 144
f 163 166 146
f 166 167 148
f 167 170 150
f 170 172 153
f 172 173 154
f 156 158 159
f 156 159 157
f 157 159 161
f 157 161 160
f 160 161 164
f 160 164 162
f 162 164 165
f 162 165 163
f 163 168 166
f 163 165 168
f 166 168 169
f 166 169 167
f 167 169 171
f 167 171 170
f 170 174 172
f 170 171 174
f 172 174 175
f 172 175 173
f 173 384 155
f 173 175 385
f 117 176 158
f 119 178 176
f 121 184 178
f 123 186 184
f 125 216 186
f 127 219 216
f 129 229 219
f 131 239 229
f 158 176 177
f 158 177 159
f 159 177 180
f 176 178 179
f 176 179 177
f 177 179 182
f 159 180 161
f 161 180 181
f 161 181 164
f 177 182 180
f 180 183 181
f 180 182 183
f 178 184 185
f 178 185 179
f 179 185 188
f 179 188 182
f 182 189 183
f 184 187 185
f 184 186 187
f 185 190 188
f 185 187 190
f 186 217 187
f 186 216 217
f 187 218 190
f 187 217 218
f 190 218 223
f 182 188 189
f 183 189 197
f 188 190 191
f 188 191 189
f 190 223 191
f 189 191 192
f 189 192 197
f 192 209 197
f 181 193 164
f 164 193 165
f 181 183 195
f 165 193 194
f 165 194 168
f 181 195 193
f 193 195 196
f 193 196 194
f 194 196 201
f 194 199 168
f 168 199 169
f 194 201 199
f 183 197 195
f 195 198 196
f 195 197 198
f 197 209 198
f 191 223 224
f 191 224 192
f 192 224 227
f 192 227 209
f 227 228 209
f 169 199 200
f 169 200 171
f 171 200 203
f 171 203 174
f 199 202 200
f 199 201 202
f 200 202 205
f 203 204 174
f 174 204 175
f 200 205 203
f 203 205 206
f 203 206 204
f 198 207 196
f 196 207 201
f 207 208 201
f 198 210 207
f 198 209 210
f 207 210 211
f 228 210 209
f 228 242 210
f 242 211 210
f 207 211 208
f 208 202 201
f 208 214 202
f 242 245 211
f 211 245 212
f 211 212 208
f 208 212 214
f 212 245 246
f 212 246 213
f 213 215 214
f 212 213 214
f 202 214 205
f 214 215 205
f 205 215 206
f 216 220 217
f 216 219 220
f 217 220 221
f 217 221 218
f 218 222 223
f 218 221 222
f 219 229 230
f 219 230 220
f 220 231 221
f 220 230 231
f 222 225 223
f 221 232 222
f 222 233 225
f 223 225 224
f 224 226 227
f 224 225 226
f 226 240 227
f 227 240 228
f 221 231 232
f 229 239 230
f 230 239 231
f 231 239 232
f 232 239 233
f 222 232 233
f 225 234 226
f 225 233 234
f 226 234 235
f 235 236 240
f 233 239 234
f 234 239 235
f 239 236 235
f 239 237 236
f 236 237 241
f 239 238 237
f 226 235 240
f 236 241 240
f 228 241 242
f 242 243 245
f 228 240 241
f 241 243 242
f 237 243 241
f 237 238 243
f 238 244 243
f 244 246 245
f 243 244 245
f 136 398 239
f 175 204 388
f 204 206 391
f 246 392 213
f 213 393 215
f 215 395 206
f 239 399 238
f 238 400 244
f 244 402 246
f 136 247 383
f 173 385 384
f 175 386 385
f 175 388 386
f 384 446 155
f 136 383 387
f 136 387 398
f 204 391 389
f 204 389 388
f 206 395 390
f 206 390 391
f 213 394 393
f 213 392 394
f 215 396 395
f 215 393 396
f 238 399 397
f 238 397 400
f 239 398 399
f 244 400 401
f 246 402 403
f 244 401 402
f 246 403 392
f 113 563 136
f 136 564 247
f 136 563 564
f 247 620 383
f 564 620 247
f 49 268 248
f 248 289 249
f 249 291 250
f 250 291 251
f 251 309 252
f 252 309 253
f 253 311 254
f 254 311 255
f 255 317 256
f 256 317 257
f 257 319 258
f 258 319 259
f 259 349 260
f 260 349 261
f 261 351 262
f 262 351 263
f 263 356 264
f 264 356 265
f 265 366 266
f 134 266 380
f 134 380 267
f 267 380 382
f 248 268 289
f 249 289 291
f 289 268 269
f 290 269 270
f 290 270 271
f 293 271 272
f 293 272 273
f 293 273 274
f 295 274 275
f 295 275 276
f 295 276 277
f 296 277 278
f 296 278 279
f 299 279 280
f 299 280 281
f 300 281 282
f 300 282 283
f 303 283 284
f 303 284 285
f 305 285 286
f 306 286 287
f 306 287 288
f 289 269 290
f 290 271 293
f 293 274 295
f 295 277 296
f 296 279 299
f 299 281 300
f 300 283 303
f 303 285 305
f 305 286 306
f 289 290 291
f 291 290 292
f 290 293 292
f 292 293 294
f 293 295 294
f 294 295 297
f 295 296 297
f 297 296 298
f 296 299 298
f 298 299 301
f 299 300 301
f 301 300 302
f 300 303 302
f 302 303 304
f 303 305 304
f 304 305 307
f 305 306 307
f 307 306 308
f 306 405 308
f 251 291 309
f 253 309 311
f 255 311 317
f 257 317 319
f 259 319 349
f 261 349 351
f 263 351 356
f 265 356 366
f 266 366 380
f 291 292 309
f 309 292 310
f 309 310 311
f 310 313 312
f 310 312 311
f 292 294 310
f 310 294 313
f 294 297 313
f 313 297 314
f 313 315 312
f 313 314 315
f 314 316 315
f 311 312 317
f 317 312 318
f 312 315 318
f 317 318 319
f 318 320 319
f 319 320 349
f 349 320 350
f 318 321 320
f 320 321 323
f 350 320 323
f 350 323 353
f 318 315 321
f 315 316 321
f 316 322 321
f 316 328 322
f 322 328 330
f 321 322 323
f 323 322 324
f 323 324 353
f 324 367 353
f 324 325 367
f 324 322 330
f 324 330 325
f 325 368 367
f 325 342 368
f 368 342 371
f 371 342 343
f 371 343 372
f 314 297 298
f 314 298 326
f 314 326 316
f 298 301 326
f 326 301 327
f 316 326 328
f 326 327 328
f 327 332 329
f 327 329 328
f 327 301 302
f 327 302 332
f 329 332 334
f 328 329 330
f 330 329 331
f 331 329 334
f 325 330 331
f 302 304 332
f 332 304 333
f 304 307 333
f 332 333 334
f 333 335 334
f 333 336 335
f 333 307 336
f 336 307 308
f 336 308 337
f 336 338 335
f 336 337 338
f 337 339 338
f 331 334 340
f 340 335 341
f 325 331 342
f 331 340 342
f 342 340 343
f 372 343 344
f 343 340 341
f 343 341 344
f 372 344 377
f 377 345 378
f 377 344 345
f 378 346 379
f 378 345 346
f 344 347 345
f 344 341 347
f 345 347 348
f 345 348 346
f 340 334 335
f 341 335 338
f 341 338 347
f 347 338 339
f 347 339 348
f 349 350 351
f 350 352 351
f 351 352 356
f 352 357 356
f 352 354 357
f 350 353 352
f 353 367 354
f 352 353 354
f 354 367 355
f 354 355 358
f 355 369 359
f 356 357 366
f 354 358 357
f 357 358 366
f 358 359 366
f 359 360 366
f 366 360 361
f 355 359 358
f 359 369 360
f 360 370 361
f 360 369 370
f 361 373 362
f 366 361 362
f 366 362 363
f 366 363 364
f 366 364 365
f 362 374 363
f 355 367 368
f 368 371 369
f 355 368 369
f 369 371 370
f 370 371 372
f 361 370 373
f 362 373 374
f 370 372 373
f 363 375 364
f 363 374 375
f 364 375 376
f 364 376 365
f 372 377 373
f 374 377 378
f 373 377 374
f 375 378 379
f 374 378 375
f 375 379 376
f 366 381 380
f 308 407 337
f 337 410 339
f 379 346 411
f 346 348 412
f 348 339 414
f 366 365 418
f 365 376 419
f 376 379 421
f 306 288 431
f 306 404 405
f 308 405 406
f 308 406 407
f 306 431 404
f 366 417 381
f 337 408 410
f 337 407 408
f 339 409 414
f 339 410 409
f 346 412 413
f 346 413 411
f 348 414 415
f 348 415 412
f 365 416 418
f 365 419 416
f 366 418 417
f 376 420 419
f 379 422 421
f 376 421 420
f 379 411 422
f 380 381 423
f 539 267 382
f 539 382 585
f 382 380 585
f 380 423 586
f 380 586 585
f 383 537 423
f 446 424 155
f 384 385 446
f 385 386 448
f 388 448 386
f 383 423 387
f 387 516 398
f 391 466 389
f 388 389 466
f 395 468 390
f 391 390 468
f 394 474 393
f 392 474 394
f 396 476 395
f 393 476 396
f 399 506 397
f 397 506 400
f 398 516 399
f 400 517 401
f 402 533 403
f 401 517 402
f 403 533 392
f 405 404 452
f 405 454 406
f 407 406 454
f 381 417 423
f 417 516 423
f 410 408 483
f 407 483 408
f 414 409 485
f 410 485 409
f 413 412 491
f 411 413 491
f 415 414 498
f 412 415 498
f 418 416 511
f 416 419 511
f 417 418 516
f 419 420 522
f 421 422 535
f 420 421 522
f 422 411 535
f 385 448 446
f 404 431 452
f 405 452 454
f 446 425 424
f 447 426 425
f 447 428 426
f 447 427 428
f 450 429 427
f 450 430 429
f 458 440 430
f 452 431 434
f 453 432 436
f 453 434 433
f 453 435 432
f 453 433 435
f 456 436 437
f 456 437 438
f 456 438 439
f 462 439 444
f 463 445 443
f 458 441 440
f 458 442 441
f 459 443 442
f 462 444 445
f 446 447 425
f 447 450 427
f 450 458 430
f 452 434 453
f 453 436 456
f 456 439 462
f 459 463 443
f 458 459 442
f 462 445 463
f 446 448 449
f 446 449 447
f 447 449 451
f 447 451 450
f 450 451 460
f 450 460 458
f 452 453 454
f 454 453 455
f 453 456 455
f 455 456 457
f 456 462 457
f 457 462 464
f 459 465 463
f 459 461 465
f 458 460 461
f 458 461 459
f 464 463 465
f 462 463 464
f 387 423 516
f 388 466 448
f 391 468 466
f 392 533 474
f 393 474 476
f 395 476 468
f 399 516 506
f 400 506 517
f 402 517 533
f 407 454 483
f 410 483 485
f 411 491 535
f 412 498 491
f 414 485 498
f 418 511 516
f 419 522 511
f 421 535 522
f 529 530 481
f 531 532 497
f 530 531 482
f 530 482 481
f 531 497 482
f 448 466 467
f 448 467 449
f 467 470 449
f 466 468 469
f 467 469 472
f 466 469 467
f 449 470 451
f 451 471 460
f 451 470 471
f 467 472 470
f 470 473 471
f 470 472 473
f 533 534 474
f 534 475 474
f 475 477 476
f 474 475 476
f 521 475 534
f 521 529 480
f 521 480 475
f 475 480 477
f 477 480 478
f 476 477 468
f 468 477 469
f 477 478 469
f 478 479 472
f 479 504 473
f 529 481 480
f 480 481 478
f 481 479 478
f 481 482 479
f 482 497 504
f 482 504 479
f 469 478 472
f 479 473 472
f 454 455 483
f 483 455 484
f 483 484 485
f 484 488 486
f 484 486 485
f 487 488 464
f 484 457 488
f 484 455 457
f 457 464 488
f 488 489 486
f 487 489 488
f 487 490 489
f 535 492 536
f 535 491 492
f 526 536 495
f 536 492 495
f 491 498 499
f 491 499 492
f 492 493 495
f 492 499 493
f 494 503 505
f 493 490 494
f 494 490 503
f 495 494 496
f 526 496 532
f 526 495 496
f 532 496 497
f 496 494 505
f 496 505 497
f 495 493 494
f 498 485 486
f 498 486 499
f 499 486 489
f 493 499 489
f 493 489 490
f 500 501 461
f 501 465 461
f 471 502 500
f 500 502 503
f 490 501 503
f 500 503 501
f 471 500 460
f 500 461 460
f 471 473 502
f 487 465 501
f 487 464 465
f 487 501 490
f 505 503 502
f 504 505 502
f 473 504 502
f 497 505 504
f 516 515 514
f 516 508 506
f 516 509 508
f 516 507 509
f 516 514 507
f 507 519 509
f 516 511 512
f 516 513 510
f 516 512 513
f 516 510 515
f 512 524 513
f 507 514 520
f 510 528 515
f 510 513 525
f 514 515 527
f 515 528 527
f 506 508 517
f 508 509 518
f 508 518 517
f 509 519 518
f 518 534 533
f 517 518 533
f 518 519 534
f 507 520 519
f 514 527 520
f 520 527 529
f 519 521 534
f 520 529 521
f 519 520 521
f 511 523 512
f 512 523 524
f 511 522 523
f 513 524 525
f 510 525 528
f 522 535 536
f 522 536 523
f 524 526 532
f 523 536 526
f 523 526 524
f 524 532 525
f 528 531 530
f 527 528 530
f 525 531 528
f 527 530 529
f 525 532 531
f 383 620 537
f 537 620 621
f 537 621 423
f 586 423 621
f 538 540 563
f 538 539 540
f 540 541 569
f 541 542 570
f 542 543 570
f 543 544 571
f 544 545 572
f 545 546 573
f 546 547 576
f 547 548 575
f 548 549 575
f 549 550 565
f 550 551 566
f 551 552 567
f 552 553 578
f 540 539 588
f 540 554 541
f 541 555 542
f 542 590 543
f 543 592 544
f 544 556 545
f 545 557 546
f 546 596 547
f 547 598 548
f 548 558 549
f 549 559 550
f 550 560 551
f 551 561 552
f 552 562 553
f 553 605 577
f 540 588 554
f 541 554 589
f 541 589 555
f 542 555 590
f 543 590 591
f 543 591 592
f 544 592 593
f 544 593 594
f 544 594 556
f 545 556 595
f 545 595 557
f 546 557 596
f 547 596 597
f 547 597 598
f 548 598 599
f 548 600 558
f 548 599 600
f 549 558 601
f 549 601 559
f 550 559 602
f 550 602 560
f 551 560 603
f 551 603 561
f 552 561 604
f 552 604 562
f 553 562 607
f 563 568 564
f 564 579 620
f 540 568 563
f 564 568 579
f 550 566 565
f 551 567 566
f 540 569 568
f 541 570 569
f 543 571 570
f 544 572 571
f 545 573 572
f 546 574 573
f 546 576 574
f 547 575 576
f 549 565 575
f 552 578 567
f 553 577 578
f 579 630 620
f 568 630 579
f 565 566 626
f 577 623 578
f 567 578 625
f 566 567 628
f 568 569 580
f 569 570 581
f 570 571 632
f 571 572 634
f 573 574 582
f 573 584 572
f 574 576 638
f 575 583 576
f 565 639 575
f 577 622 623
f 567 625 629
f 578 623 624
f 578 624 625
f 566 627 626
f 566 628 627
f 567 629 628
f 568 580 630
f 569 631 580
f 569 581 631
f 570 632 581
f 571 633 632
f 571 634 633
f 572 635 634
f 572 636 635
f 573 637 584
f 573 582 637
f 574 638 582
f 575 639 583
f 576 640 638
f 576 583 641
f 576 641 640
f 572 584 636
f 565 642 639
f 565 626 642
f 539 585 587
f 608 585 586
f 539 587 588
f 554 588 609
f 554 609 589
f 555 589 610
f 555 610 590
f 590 610 591
f 592 591 611
f 592 611 593
f 593 612 594
f 556 594 614
f 556 614 595
f 557 595 613
f 557 613 596
f 596 613 597
f 597 615 598
f 598 615 599
f 599 616 600
f 558 600 618
f 558 618 601
f 559 601 619
f 560 602 617
f 559 619 602
f 561 603 606
f 561 606 604
f 560 617 603
f 562 604 607
f 553 607 605
f 588 587 608
f 588 608 609
f 589 609 610
f 591 610 611
f 593 611 612
f 595 614 613
f 597 613 615
f 599 615 616
f 594 612 614
f 600 616 618
f 602 619 617
f 603 617 606
f 604 606 607
f 601 618 619
f 605 607 643
f 587 585 608
f 608 586 648
f 606 643 607
f 606 617 644
f 608 649 609
f 610 609 650
f 610 650 611
f 612 611 651
f 616 646 618
f 612 652 614
f 613 614 654
f 615 613 656
f 615 656 616
f 617 619 645
f 619 618 647
f 620 648 621
f 586 621 648
f 620 630 648
f 577 605 643
f 577 643 622
f 622 644 623
f 623 644 624
f 624 645 625
f 625 645 629
f 626 627 646
f 628 647 627
f 628 629 647
f 580 649 630
f 580 631 649
f 581 650 631
f 581 632 650
f 633 634 651
f 632 633 650
f 634 635 651
f 636 652 635
f 584 637 654
f 582 653 637
f 582 638 653
f 583 639 655
f 642 655 639
f 641 656 640
f 640 653 638
f 583 655 641
f 584 654 636
f 626 646 642
f 622 643 644
f 624 644 645
f 629 645 647
f 627 647 646
f 630 649 648
f 631 650 649
f 633 651 650
f 635 652 651
f 637 653 654
f 640 656 653
f 641 655 656
f 636 654 652
f 642 646 655
f 606 644 643
f 617 645 644
f 619 647 645
f 618 646 647
f 616 655 646
f 608 648 649
f 609 649 650
f 611 650 651
f 612 651 652
f 613 654 653
f 614 652 654
f 613 653 656
f 616 656 655
f 1 2 431
f 10 431 11
f 12 431 10
f 2 3 431
f 9 431 3
f 9 11 431
f 13 14 431
f 14 15 431
f 13 431 12
f 15 16 431
f 4 431 5
f 1 431 4
f 5 431 6
f 7 6 431
f 8 7 431
f 8 431 17
f 17 431 18
f 18 431 19
f 19 431 20
f 20 431 21
f 16 137 148
f 16 148 149
f 16 149 150
f 16 150 151
f 16 152 153
f 16 151 152
f 16 153 154
f 16 154 155
f 140 141 144
f 138 139 145
f 137 138 148
f 141 142 144
f 139 140 145
f 142 143 144
f 140 144 145
f 138 145 146
f 138 147 148
f 146 147 138
f 16 155 424
f 21 431 268
f 277 287 278
f 279 285 280
f 278 286 279
f 280 285 281
f 282 281 285
f 285 283 282
f 277 288 287
f 278 287 286
f 279 286 285
f 283 285 284
f 268 431 269
f 269 431 270
f 270 431 271
f 271 431 272
f 272 431 273
f 273 431 274
f 275 274 431
f 275 431 276
f 276 431 277
f 277 431 288
f 16 424 425
f 16 425 426
f 16 428 427
f 16 426 428
f 16 427 429
f 16 429 430
f 16 430 440
f 16 441 442
f 16 440 441
f 16 442 443
f 16 443 445
f 16 434 431
f 16 436 432
f 16 433 434
f 16 435 433
f 16 432 435
f 16 439 438
f 16 445 444
f 16 444 439
f 16 437 436
f 16 438 437