# https://github.com/mikedh/trimesh
v -0.07465964 -0.00840156 -0.00457632
v -0.07442910 -0.00851166 -0.00468184
v -0.07430726 -0.00855246 -0.00472094
v -0.07418220 -0.00858338 -0.00475054
v -0.07405482 -0.00860414 -0.00477048
v -0.07392604 -0.00861466 -0.00478054
v -0.07454684 -0.00846124 -0.00463352
v -0.07476666 -0.00833308 -0.00451070
v -0.07486718 -0.00825626 -0.00443708
v -0.07504580 -0.00807992 -0.00426810
v -0.07519032 -0.00787760 -0.00407420
v -0.07529664 -0.00765512 -0.00386100
v -0.07536168 -0.00741886 -0.00363460
v -0.07538356 -0.00717562 -0.00340150
v -0.07481692 -0.00003840 -0.00447388
v -0.07424474 -0.00001546 -0.00473574
v -0.07436818 -0.00002040 -0.00470138
v -0.06794042 -0.00406032 -0.00501724
v -0.07519032 -0.00787760 0.00412244
v -0.07504580 -0.00807992 0.00431630
v -0.07529664 -0.00765512 0.00390922
v -0.07536168 -0.00741886 0.00368280
v -0.07465964 -0.00840158 0.00462454
v -0.07454684 -0.00846124 0.00468172
v -0.07442910 -0.00851166 0.00473004
v -0.07430726 -0.00855248 0.00476916
v -0.07418220 -0.00858338 0.00479876
v -0.07405482 -0.00860416 0.00481868
v -0.07392604 -0.00861466 0.00482874
v -0.07486718 -0.00825628 0.00448530
v -0.07476666 -0.00833308 0.00455892
v -0.07538356 -0.00717562 0.00344970
v -0.07537262 -0.00012162 0.00356626
v -0.07532916 -0.00011814 0.00379602
v -0.07524348 -0.00011124 0.00401582
v -0.07511806 -0.00010116 0.00421938
v -0.07495648 -0.00008818 0.00440082
v -0.07471314 -0.00003424 0.00459172
v -0.07460324 -0.00002984 0.00465314
v -0.07448796 -0.00002522 0.00470588
v -0.07436818 -0.00002040 0.00474960
v -0.07424474 -0.00001546 0.00478396
v -0.07411852 -0.00001040 0.00480872
v -0.07399044 -0.00000526 0.00482372
v -0.07460324 0.00002984 -0.00460492
v -0.07465964 0.00000000 -0.00457632
v -0.07476666 0.00000000 -0.00451070
v -0.07471314 0.00003424 -0.00454352
v -0.07486718 0.00000000 -0.00443706
v -0.07495648 0.00008818 -0.00435258
v -0.07442910 0.00000000 -0.00468182
v -0.07448796 0.00002522 -0.00465768
v -0.07430726 0.00000000 -0.00472094
v -0.07418220 0.00000000 -0.00475054
v -0.07411852 0.00001038 -0.00476050
v -0.07405482 0.00000000 -0.00477048
v -0.07399044 0.00000524 -0.00477550
v -0.07392604 0.00000000 -0.00478054
v -0.07454684 0.00000000 -0.00463352
v -0.07504580 0.00000000 -0.00426810
v -0.07511806 0.00010116 -0.00417114
v -0.07519032 0.00000000 -0.00407420
v -0.07524348 0.00011124 -0.00396760
v -0.07529664 0.00000000 -0.00386100
v -0.07532916 0.00011812 -0.00374780
v -0.07536168 0.00000000 -0.00363460
v -0.07537262 0.00012162 -0.00351804
v -0.07538356 0.00000000 0.00002410
v -0.07538356 0.00717562 -0.00340150
v -0.07476666 0.00833308 -0.00451070
v -0.07486718 0.00825626 -0.00443706
v -0.07465964 0.00840156 -0.00457632
v -0.07442910 0.00851166 -0.00468182
v -0.07430726 0.00855246 -0.00472094
v -0.07418220 0.00858338 -0.00475054
v -0.07405482 0.00860414 -0.00477048
v -0.07392604 0.00861464 -0.00478054
v -0.07454684 0.00846124 -0.00463352
v -0.07536168 0.00741886 -0.00363460
v -0.07529664 0.00765512 -0.00386100
v -0.07504580 0.00807992 -0.00426810
v -0.07519032 0.00787760 -0.00407420
v -0.07536168 0.00000000 0.00368280
v -0.07529664 0.00000000 0.00390922
v -0.07519032 0.00000000 0.00412244
v -0.07504580 0.00000000 0.00431632
v -0.07486718 0.00000000 0.00448530
v -0.07481692 0.00003840 0.00452212
v -0.07476666 0.00000000 0.00455892
v -0.07465964 0.00000000 0.00462454
v -0.07454684 0.00000000 0.00468172
v -0.07442910 0.00000000 0.00473004
v -0.07430726 0.00000000 0.00476916
v -0.07418220 0.00000000 0.00479876
v -0.07405482 0.00000000 0.00481868
v -0.07392604 0.00000000 0.00482874
v -0.07538356 0.00717562 0.00344972
v -0.07536168 0.00741886 0.00368282
v -0.07529664 0.00765512 0.00390922
v -0.07519032 0.00787760 0.00412244
v -0.07504580 0.00807992 0.00431632
v -0.07486718 0.00825626 0.00448532
v -0.07476666 0.00833308 0.00455892
v -0.07465964 0.00840156 0.00462454
v -0.07454684 0.00846124 0.00468172
v -0.07442910 0.00851166 0.00473004
v -0.07430726 0.00855246 0.00476916
v -0.07418220 0.00858336 0.00479876
v -0.07405482 0.00860414 0.00481870
v -0.07392604 0.00861464 0.00482876
v -0.06794042 0.00406032 0.00506546
v -0.06195480 -0.00910866 -0.00525394
v -0.06195480 -0.00910866 -0.00044930
v -0.05038356 -0.00958615 -0.00571154
v -0.05038356 -0.00926530 -0.00571154
v -0.05596918 -0.00455432 -0.00549064
v -0.05038356 -0.00030435 -0.00571154
v -0.06195480 -0.00910866 0.00530216
v -0.06195480 -0.00049400 0.00530216
v -0.05596918 -0.00504834 0.00553886
v -0.05038356 -0.00958615 0.00575974
v -0.06195480 0.00049400 -0.00525394
v -0.06195480 0.00910866 -0.00525394
v -0.05038356 0.00001651 -0.00571154
v -0.05596918 0.00504834 -0.00549064
v -0.05038356 0.00929831 -0.00571152
v -0.05038356 0.00958615 -0.00571152
v -0.05038356 0.00958615 -0.00551935
v -0.06195480 0.00910864 0.00049752
v -0.06195480 0.00910864 0.00530216
v -0.05596918 0.00455432 0.00553886
v -0.05038356 0.00030435 0.00575974
v -0.05038356 0.00958615 0.00575974
f 8 9 15
f 1 8 46
f 9 10 49
f 3 16 4
f 3 2 17
f 2 7 51
f 5 4 56
f 5 58 6
f 7 1 59
f 10 11 60
f 11 12 62
f 12 13 64
f 13 14 66
f 7 24 1
f 2 25 7
f 3 4 26
f 3 25 2
f 5 28 4
f 5 6 29
f 8 31 9
f 9 20 10
f 1 23 8
f 10 19 11
f 11 21 12
f 12 22 13
f 13 32 14
f 113 29 6
f 10 60 50
f 1 45 59
f 1 46 45
f 8 15 47
f 8 47 48
f 8 48 46
f 9 49 15
f 10 50 49
f 7 59 52
f 2 51 17
f 7 52 51
f 3 53 16
f 3 17 53
f 4 16 54
f 4 54 55
f 4 55 56
f 5 56 57
f 5 57 58
f 11 61 60
f 11 62 61
f 12 63 62
f 12 64 63
f 13 65 64
f 13 66 65
f 14 67 66
f 6 58 18
f 14 32 68
f 112 6 18
f 112 113 6
f 18 58 122
f 112 18 122
f 11 19 21
f 10 20 19
f 9 30 20
f 12 21 22
f 13 22 32
f 1 24 23
f 7 25 24
f 3 26 25
f 4 27 26
f 4 28 27
f 5 29 28
f 9 31 30
f 8 23 31
f 32 22 33
f 21 34 22
f 19 35 21
f 20 36 19
f 20 30 37
f 30 31 89
f 23 38 31
f 24 39 23
f 26 41 25
f 26 27 42
f 24 25 40
f 28 43 27
f 28 29 44
f 22 83 33
f 22 34 83
f 21 84 34
f 21 35 84
f 20 86 36
f 19 85 35
f 19 36 85
f 20 37 86
f 30 87 37
f 30 88 87
f 30 89 88
f 31 38 89
f 23 90 38
f 23 39 90
f 24 91 39
f 24 40 91
f 25 92 40
f 25 41 92
f 26 93 41
f 26 42 93
f 27 94 42
f 27 43 94
f 28 95 43
f 28 44 95
f 29 96 44
f 32 33 97
f 29 119 96
f 113 118 29
f 118 119 29
f 14 69 67
f 50 60 81
f 15 71 47
f 46 48 72
f 45 46 72
f 48 47 70
f 49 50 71
f 15 49 71
f 52 59 78
f 17 51 73
f 51 52 73
f 16 53 74
f 16 74 54
f 17 73 53
f 54 75 55
f 56 76 57
f 56 55 76
f 57 77 58
f 59 45 78
f 61 62 82
f 62 63 82
f 60 61 81
f 63 64 80
f 64 65 80
f 66 79 65
f 66 67 79
f 58 77 122
f 14 68 69
f 47 71 70
f 45 72 78
f 48 70 72
f 50 81 71
f 52 78 73
f 53 73 74
f 54 74 75
f 55 75 76
f 57 76 77
f 61 82 81
f 63 80 82
f 65 79 80
f 67 69 79
f 70 71 102
f 70 103 72
f 72 104 78
f 73 78 105
f 73 107 74
f 74 108 75
f 75 109 76
f 76 110 77
f 79 69 98
f 79 99 80
f 80 100 82
f 82 101 81
f 71 81 102
f 122 77 123
f 77 129 123
f 32 97 68
f 68 97 69
f 33 83 97
f 34 98 83
f 34 84 98
f 35 99 84
f 35 85 99
f 36 100 85
f 36 86 100
f 37 101 86
f 37 87 101
f 87 88 102
f 38 103 89
f 38 90 103
f 88 89 103
f 39 104 90
f 39 91 104
f 40 105 91
f 40 92 105
f 41 106 92
f 41 93 106
f 42 107 93
f 42 94 107
f 43 108 94
f 43 95 108
f 44 109 95
f 44 96 109
f 96 111 110
f 69 97 98
f 79 98 99
f 80 99 100
f 82 100 101
f 81 101 102
f 70 102 103
f 72 103 104
f 78 104 105
f 73 105 106
f 73 106 107
f 74 107 108
f 75 108 109
f 76 109 110
f 77 110 129
f 83 98 97
f 84 99 98
f 85 100 99
f 86 101 100
f 87 102 101
f 88 103 102
f 90 104 103
f 91 105 104
f 92 106 105
f 93 107 106
f 94 108 107
f 95 109 108
f 96 110 109
f 119 111 96
f 119 130 111
f 111 130 110
f 110 130 129
f 112 114 113
f 113 114 118
f 112 122 116
f 112 116 114
f 116 115 114
f 116 122 124
f 116 117 115
f 116 124 117
f 118 120 119
f 118 114 121
f 118 121 120
f 119 120 132
f 120 121 132
f 122 123 125
f 123 129 128
f 122 125 124
f 125 126 124
f 125 123 127
f 123 128 127
f 125 127 126
f 119 131 130
f 129 130 128
f 119 132 131
f 130 133 128
f 131 133 130
f 131 132 133
f 114 115 132
f 117 132 115
f 114 132 121
f 117 124 132
f 126 128 124
f 126 127 128
f 133 124 128
f 132 124 133