# https://github.com/mikedh/trimesh
v 0.02499992 -0.00399004 0.01466026 0.08627451 0.01960784 0.83137255
v 0.02000076 -0.00399004 0.01466026 0.08627451 0.01960784 0.83137255
v 0.02499992 -0.00999972 0.01466026 0.08627451 0.01960784 0.83137255
v 0.02829082 -0.00995270 0.01465674 0.08627451 0.01960784 0.83137255
v 0.02829082 -0.00858547 0.01448752 0.08627451 0.01960784 0.83137255
v 0.02829082 -0.00849377 0.01446520 0.08627451 0.01960784 0.83137255
v 0.02829082 -0.00720884 0.01396696 0.08627451 0.01960784 0.83137255
v 0.02829082 -0.00712420 0.01392231 0.08627451 0.01960784 0.83137255
v 0.02829082 -0.00600032 0.01312678 0.08627451 0.01960784 0.83137255
v 0.02829082 -0.00592861 0.01306333 0.08627451 0.01960784 0.83137255
v 0.02829082 -0.00503280 0.01201751 0.08627451 0.01960784 0.83137255
v 0.02829082 -0.00497872 0.01193878 0.08627451 0.01960784 0.83137255
v 0.02829082 -0.00436388 0.01070612 0.08627451 0.01960784 0.83137255
v 0.02829082 -0.00433096 0.01061681 0.08627451 0.01960784 0.83137255
v 0.02829082 -0.00403588 0.00927135 0.08627451 0.01960784 0.83137255
v 0.02829082 -0.00402413 0.00917734 0.08627451 0.01960784 0.83137255
v 0.02499992 -0.00399004 0.00265565 0.08627451 0.01960784 0.83137255
v 0.02000076 -0.00399004 0.00265565 0.08627451 0.01960784 0.83137255
v 0.01956151 -0.00402648 0.00920907 0.08627451 0.01960784 0.83137255
v 0.01956151 -0.00402766 0.00922082 0.08627451 0.01960784 0.83137255
v 0.01956151 -0.00434037 0.01064971 0.08627451 0.01960784 0.83137255
v 0.01956151 -0.00434389 0.01066029 0.08627451 0.01960784 0.83137255
v 0.01956151 -0.00499635 0.01196933 0.08627451 0.01960784 0.83137255
v 0.01956151 -0.00500341 0.01197873 0.08627451 0.01960784 0.83137255
v 0.01956151 -0.00595447 0.01309035 0.08627451 0.01960784 0.83137255
v 0.01956151 -0.00596387 0.01309741 0.08627451 0.01960784 0.83137255
v 0.01956151 -0.00715711 0.01394346 0.08627451 0.01960784 0.83137255
v 0.01956151 -0.00716769 0.01394816 0.08627451 0.01960784 0.83137255
v 0.01956151 -0.00853139 0.01447695 0.08627451 0.01960784 0.83137255
v 0.01956151 -0.00854315 0.01447930 0.08627451 0.01960784 0.83137255
v 0.01956151 -0.00999502 0.01465909 0.08627451 0.01960784 0.83137255
v 0.02000076 -0.00999972 0.01466026 0.08627451 0.01960784 0.83137255
v 0.02829082 -0.01060868 0.01462266 0.08627451 0.01960784 0.83137255
v 0.02829082 -0.01010788 0.01465321 0.08627451 0.01960784 0.83137255
v 0.02829082 -0.01004674 0.01465674 0.08627451 0.01960784 0.83137255
v 0.02829082 -0.00406645 0.00780132 0.08627451 0.01960784 0.83137255
v 0.02829082 -0.00407821 0.00770614 0.08627451 0.01960784 0.83137255
v 0.02829082 -0.00445557 0.00638183 0.08627451 0.01960784 0.83137255
v 0.02829082 -0.00448967 0.00629252 0.08627451 0.01960784 0.83137255
v 0.02829082 -0.00517740 0.00509981 0.08627451 0.01960784 0.83137255
v 0.02829082 -0.00523147 0.00502108 0.08627451 0.01960784 0.83137255
v 0.02829082 -0.00619077 0.00403167 0.08627451 0.01960784 0.83137255
v 0.02829082 -0.00626248 0.00396939 0.08627451 0.01960784 0.83137255
v 0.02829082 -0.00743338 0.00324436 0.08627451 0.01960784 0.83137255
v 0.02829082 -0.00751802 0.00319971 0.08627451 0.01960784 0.83137255
v 0.02829082 -0.00883117 0.00278138 0.08627451 0.01960784 0.83137255
v 0.02829082 -0.00892287 0.00275906 0.08627451 0.01960784 0.83137255
v 0.02829082 -0.01029715 0.00267445 0.08627451 0.01960784 0.83137255
v 0.02499992 -0.01346070 0.00265565 0.08627451 0.01960784 0.83137255
v 0.01956151 -0.00888995 0.00276493 0.08627451 0.01960784 0.83137255
v 0.01956151 -0.00749569 0.00320911 0.08627451 0.01960784 0.83137255
v 0.01956151 -0.00748511 0.00321381 0.08627451 0.01960784 0.83137255
v 0.01956151 -0.00624132 0.00398466 0.08627451 0.01960784 0.83137255
v 0.01956151 -0.00623309 0.00399171 0.08627451 0.01960784 0.83137255
v 0.01956151 -0.00521502 0.00504223 0.08627451 0.01960784 0.83137255
v 0.01956151 -0.00520796 0.00505164 0.08627451 0.01960784 0.83137255
v 0.01956151 -0.00447674 0.00631837 0.08627451 0.01960784 0.83137255
v 0.01956151 -0.00447321 0.00632895 0.08627451 0.01960784 0.83137255
v 0.01956151 -0.00407233 0.00773669 0.08627451 0.01960784 0.83137255
v 0.01956151 -0.00407115 0.00774727 0.08627451 0.01960784 0.83137255
v 0.02000076 -0.01346070 0.00265565 0.08627451 0.01960784 0.83137255
v 0.01956151 -0.01035946 0.00267210 0.08627451 0.01960784 0.83137255
v 0.01956151 -0.00890053 0.00276258 0.08627451 0.01960784 0.83137255
v 0.01956151 -0.01000560 0.01465909 0.08627451 0.01960784 0.83137255
v 0.01956151 -0.01018194 0.01464851 0.08627451 0.01960784 0.83137255
v 0.01956151 -0.01072272 0.01461561 0.08627451 0.01960784 0.83137255
v 0.02829082 -0.01072272 0.01461561 0.08627451 0.01960784 0.83137255
v 0.02829082 -0.01039237 0.00267445 0.08627451 0.01960784 0.83137255
v 0.02829082 -0.01174667 0.00292709 0.08627451 0.01960784 0.83137255
v 0.02829082 -0.01183836 0.00295059 0.08627451 0.01960784 0.83137255
v 0.02829082 -0.01309038 0.00352638 0.08627451 0.01960784 0.83137255
v 0.02829082 -0.01317503 0.00356986 0.08627451 0.01960784 0.83137255
v 0.02829082 -0.01424718 0.00443354 0.08627451 0.01960784 0.83137255
v 0.02829082 -0.01431889 0.00449700 0.08627451 0.01960784 0.83137255
v 0.02829082 -0.01514886 0.00559687 0.08627451 0.01960784 0.83137255
v 0.02829082 -0.01520294 0.00567443 0.08627451 0.01960784 0.83137255
v 0.02499992 -0.01519589 0.00566033 0.08627451 0.01960784 0.83137255
v 0.02000076 -0.01519589 0.00566033 0.08627451 0.01960784 0.83137255
v 0.01956151 -0.01519589 0.00566268 0.08627451 0.01960784 0.83137255
v 0.01956151 -0.01519001 0.00565328 0.08627451 0.01960784 0.83137255
v 0.01956151 -0.01430831 0.00448525 0.08627451 0.01960784 0.83137255
v 0.01956151 -0.01430008 0.00447820 0.08627451 0.01960784 0.83137255
v 0.01956151 -0.01315974 0.00356046 0.08627451 0.01960784 0.83137255
v 0.01956151 -0.01315034 0.00355576 0.08627451 0.01960784 0.83137255
v 0.01956151 -0.01182073 0.00294354 0.08627451 0.01960784 0.83137255
v 0.01956151 -0.01180897 0.00294119 0.08627451 0.01960784 0.83137255
v 0.01956151 -0.01037121 0.00267210 0.08627451 0.01960784 0.83137255
v 0.01956151 -0.01128701 0.01447695 0.08627451 0.01960784 0.83137255
v 0.02829082 -0.01153036 0.01441702 0.08627451 0.01960784 0.83137255
v 0.02829082 -0.01582484 0.00722553 0.08627451 0.01960784 0.83137255
v 0.01956151 -0.01582484 0.00722553 0.08627451 0.01960784 0.83137255
v 0.01956151 -0.01539221 0.00614916 0.08627451 0.01960784 0.83137255
v 0.01956151 -0.01520059 0.00567325 0.08627451 0.01960784 0.83137255
v 0.01956151 -0.01212756 0.01427013 0.08627451 0.01960784 0.83137255
v 0.02829082 -0.01212756 0.01427013 0.08627451 0.01960784 0.83137255
v 0.02829082 -0.01600000 0.00865913 0.08627451 0.01960784 0.83137255
v 0.01956151 -0.01585305 0.00745467 0.08627451 0.01960784 0.83137255
v 0.01956151 -0.01264248 0.01399987 0.08627451 0.01960784 0.83137255
v 0.02829082 -0.01340780 0.01359799 0.08627451 0.01960784 0.83137255
v 0.02829082 -0.01592594 0.00926900 0.08627451 0.01960784 0.83137255
v 0.01956151 -0.01600000 0.00865913 0.08627451 0.01960784 0.83137255
v 0.01956151 -0.01340780 0.01359799 0.08627451 0.01960784 0.83137255
v 0.01956151 -0.01378046 0.01326779 0.08627451 0.01960784 0.83137255
v 0.02829082 -0.01440471 0.01271433 0.08627451 0.01960784 0.83137255
v 0.01956151 -0.01589537 0.00951811 0.08627451 0.01960784 0.83137255
v 0.02829082 -0.01582484 0.01009508 0.08627451 0.01960784 0.83137255
v 0.01956151 -0.01582484 0.01009508 0.08627451 0.01960784 0.83137255
v 0.01956151 -0.01445761 0.01266733 0.08627451 0.01960784 0.83137255
v 0.02829082 -0.01449053 0.01263795 0.08627451 0.01960784 0.83137255
v 0.02829082 -0.01560735 0.01066969 0.08627451 0.01960784 0.83137255
v 0.01956151 -0.01531227 0.01144759 0.08627451 0.01960784 0.83137255
v 0.01956151 -0.01449053 0.01263795 0.08627451 0.01960784 0.83137255
v 0.02829082 -0.01489846 0.01204806 0.08627451 0.01960784 0.83137255
v 0.02829082 -0.01531227 0.01144759 0.08627451 0.01960784 0.83137255
v 0.01956151 -0.01489846 0.01204806 0.08627451 0.01960784 0.83137255
f 1 2 32
f 1 32 3
f 1 3 35
f 1 35 4
f 1 4 5
f 1 5 6
f 1 6 7
f 1 7 8
f 1 8 9
f 1 9 10
f 1 10 11
f 1 11 12
f 1 12 13
f 1 13 14
f 1 14 15
f 1 15 16
f 1 16 17
f 1 17 18
f 1 18 2
f 2 18 19
f 2 19 20
f 2 20 21
f 2 21 22
f 2 22 23
f 2 23 24
f 2 24 25
f 2 25 26
f 2 26 27
f 2 27 28
f 2 28 29
f 2 29 30
f 2 30 31
f 2 31 64
f 2 64 32
f 3 32 33
f 3 33 34
f 3 34 35
f 4 35 34
f 4 34 33
f 4 33 67
f 4 67 89
f 4 89 95
f 4 95 99
f 4 99 104
f 4 104 109
f 4 109 113
f 4 113 114
f 4 114 110
f 4 110 106
f 4 106 100
f 4 100 96
f 4 96 90
f 4 90 76
f 4 76 75
f 4 75 74
f 4 74 73
f 4 73 72
f 4 72 71
f 4 71 70
f 4 70 69
f 4 69 68
f 4 68 48
f 4 48 47
f 4 47 46
f 4 46 45
f 4 45 44
f 4 44 43
f 4 43 42
f 4 42 41
f 4 41 40
f 4 40 39
f 4 39 38
f 4 38 37
f 4 37 36
f 4 36 16
f 4 16 15
f 4 15 14
f 4 14 13
f 4 13 12
f 4 12 11
f 4 11 10
f 4 10 9
f 4 9 8
f 4 8 7
f 4 7 6
f 4 6 5
f 16 36 17
f 17 36 37
f 17 37 38
f 17 38 39
f 17 39 40
f 17 40 41
f 17 41 42
f 17 42 43
f 17 43 44
f 17 44 45
f 17 45 46
f 17 46 47
f 17 47 48
f 17 48 68
f 17 68 49
f 17 49 61
f 17 61 18
f 18 50 51
f 18 51 52
f 18 52 53
f 18 53 54
f 18 54 55
f 18 55 56
f 18 56 57
f 18 57 58
f 18 58 59
f 18 59 60
f 18 60 19
f 18 61 87
f 18 87 62
f 18 62 63
f 18 63 50
f 19 60 59
f 19 59 58
f 19 58 57
f 19 57 56
f 19 56 55
f 19 55 54
f 19 54 53
f 19 53 52
f 19 52 51
f 19 51 50
f 19 50 63
f 19 63 62
f 19 62 87
f 19 87 86
f 19 86 85
f 19 85 84
f 19 84 83
f 19 83 82
f 19 82 81
f 19 81 80
f 19 80 79
f 19 79 93
f 19 93 92
f 19 92 91
f 19 91 97
f 19 97 101
f 19 101 105
f 19 105 107
f 19 107 111
f 19 111 115
f 19 115 112
f 19 112 108
f 19 108 103
f 19 103 102
f 19 102 98
f 19 98 94
f 19 94 88
f 19 88 66
f 19 66 65
f 19 65 64
f 19 64 31
f 19 31 30
f 19 30 29
f 19 29 28
f 19 28 27
f 19 27 26
f 19 26 25
f 19 25 24
f 19 24 23
f 19 23 22
f 19 22 21
f 19 21 20
f 32 64 65
f 32 65 66
f 32 66 33
f 33 66 67
f 49 68 69
f 49 69 70
f 49 70 71
f 49 71 72
f 49 72 73
f 49 73 74
f 49 74 75
f 49 75 76
f 49 76 77
f 49 77 78
f 49 78 61
f 61 78 79
f 61 79 80
f 61 80 81
f 61 81 82
f 61 82 83
f 61 83 84
f 61 84 85
f 61 85 86
f 61 86 87
f 66 88 67
f 67 88 89
f 76 90 91
f 76 91 78
f 76 78 77
f 78 91 92
f 78 92 93
f 78 93 79
f 88 94 95
f 88 95 89
f 90 96 97
f 90 97 91
f 94 98 95
f 95 98 99
f 96 100 101
f 96 101 97
f 98 102 99
f 99 102 103
f 99 103 104
f 100 105 101
f 100 106 107
f 100 107 105
f 103 108 104
f 104 108 109
f 106 110 107
f 107 110 111
f 108 112 109
f 109 112 115
f 109 115 113
f 110 114 111
f 111 114 113
f 111 113 115