# https://github.com/mikedh/trimesh
v 0.07500000 -0.00400000 0.00866088 0.56470588 0.92549020 0.07058824
v 0.07500000 -0.00417502 0.01009549 0.56470588 0.92549020 0.07058824
v 0.07500000 -0.00417502 0.00722510 0.56470588 0.92549020 0.07058824
v 0.02829539 -0.00406695 0.00780106 0.56470588 0.92549020 0.07058824
v 0.02829539 -0.00402467 0.00917701 0.56470588 0.92549020 0.07058824
v 0.02829539 -0.00403641 0.00927086 0.56470588 0.92549020 0.07058824
v 0.02829539 -0.00433007 0.01061749 0.56470588 0.92549020 0.07058824
v 0.07500000 -0.00468833 0.01144799 0.56470588 0.92549020 0.07058824
v 0.07500000 -0.00468833 0.00587261 0.56470588 0.92549020 0.07058824
v 0.02829539 -0.00448865 0.00629255 0.56470588 0.92549020 0.07058824
v 0.02829539 -0.00445576 0.00638170 0.56470588 0.92549020 0.07058824
v 0.02829539 -0.00407870 0.00770604 0.56470588 0.92549020 0.07058824
v 0.02829539 -0.00436414 0.01070664 0.56470588 0.92549020 0.07058824
v 0.02829539 -0.00497847 0.01193948 0.56470588 0.92549020 0.07058824
v 0.02829539 -0.00503250 0.01201808 0.56470588 0.92549020 0.07058824
v 0.07500000 -0.00550940 0.01263861 0.56470588 0.92549020 0.07058824
v 0.07500000 -0.00550940 0.00468199 0.56470588 0.92549020 0.07058824
v 0.02829539 -0.00523219 0.00502099 0.56470588 0.92549020 0.07058824
v 0.02829539 -0.00517815 0.00509958 0.56470588 0.92549020 0.07058824
v 0.02829539 -0.00592874 0.01306324 0.56470588 0.92549020 0.07058824
v 0.07500000 -0.00659240 0.01359814 0.56470588 0.92549020 0.07058824
v 0.07500000 -0.00659240 0.00372245 0.56470588 0.92549020 0.07058824
v 0.02829539 -0.00619068 0.00403213 0.56470588 0.92549020 0.07058824
v 0.02829539 -0.00600039 0.01312658 0.56470588 0.92549020 0.07058824
v 0.02829539 -0.00712451 0.01392307 0.56470588 0.92549020 0.07058824
v 0.02829539 -0.00720908 0.01396764 0.56470588 0.92549020 0.07058824
v 0.07500000 -0.00787275 0.01427028 0.56470588 0.92549020 0.07058824
v 0.07500000 -0.00787275 0.00305031 0.56470588 0.92549020 0.07058824
v 0.02829539 -0.00751801 0.00319928 0.56470588 0.92549020 0.07058824
v 0.02829539 -0.00743344 0.00324386 0.56470588 0.92549020 0.07058824
v 0.02829539 -0.00626233 0.00396879 0.56470588 0.92549020 0.07058824
v 0.02829539 -0.00849295 0.01446500 0.56470588 0.92549020 0.07058824
v 0.07500000 -0.00927760 0.01461632 0.56470588 0.92549020 0.07058824
v 0.07500000 -0.00927760 0.00270427 0.56470588 0.92549020 0.07058824
v 0.02829539 -0.00883007 0.00278169 0.56470588 0.92549020 0.07058824
v 0.02829539 -0.00858575 0.01448729 0.56470588 0.92549020 0.07058824
v 0.07500000 -0.01072240 0.01461632 0.56470588 0.92549020 0.07058824
v 0.02829539 -0.00995301 0.01465738 0.56470588 0.92549020 0.07058824
v 0.07500000 -0.01072240 0.00270427 0.56470588 0.92549020 0.07058824
v 0.02829539 -0.01029718 0.00267494 0.56470588 0.92549020 0.07058824
v 0.02829539 -0.00892287 0.00275940 0.56470588 0.92549020 0.07058824
v 0.07500000 -0.01212725 0.01427028 0.56470588 0.92549020 0.07058824
v 0.02829539 -0.01004699 0.01465738 0.56470588 0.92549020 0.07058824
v 0.02829539 -0.01060846 0.01462336 0.56470588 0.92549020 0.07058824
v 0.02829539 -0.01072240 0.01461632 0.56470588 0.92549020 0.07058824
v 0.07500000 -0.01212725 0.00305031 0.56470588 0.92549020 0.07058824
v 0.02829539 -0.01174667 0.00292714 0.56470588 0.92549020 0.07058824
v 0.02829539 -0.01039233 0.00267494 0.56470588 0.92549020 0.07058824
v 0.07500000 -0.01340760 0.01359814 0.56470588 0.92549020 0.07058824
v 0.02829539 -0.01212725 0.01427028 0.56470588 0.92549020 0.07058824
v 0.07500000 -0.01340760 0.00372245 0.56470588 0.92549020 0.07058824
v 0.02829539 -0.01317502 0.00356996 0.56470588 0.92549020 0.07058824
v 0.02829539 -0.01309045 0.00352656 0.56470588 0.92549020 0.07058824
v 0.02829539 -0.01183829 0.00295060 0.56470588 0.92549020 0.07058824
v 0.07500000 -0.01449060 0.01263861 0.56470588 0.92549020 0.07058824
v 0.02829539 -0.01340760 0.01359814 0.56470588 0.92549020 0.07058824
v 0.07500000 -0.01449060 0.00468199 0.56470588 0.92549020 0.07058824
v 0.02829539 -0.01431911 0.00449665 0.56470588 0.92549020 0.07058824
v 0.02829539 -0.01424746 0.00443448 0.56470588 0.92549020 0.07058824
v 0.07500000 -0.01531167 0.01144799 0.56470588 0.92549020 0.07058824
v 0.02829539 -0.01449060 0.01263861 0.56470588 0.92549020 0.07058824
v 0.07500000 -0.01531167 0.00587261 0.56470588 0.92549020 0.07058824
v 0.02829539 -0.01520360 0.00567436 0.56470588 0.92549020 0.07058824
v 0.02829539 -0.01514957 0.00559695 0.56470588 0.92549020 0.07058824
v 0.07500000 -0.01582498 0.01009549 0.56470588 0.92549020 0.07058824
v 0.02829539 -0.01531167 0.01144799 0.56470588 0.92549020 0.07058824
v 0.02829539 -0.01560767 0.01067027 0.56470588 0.92549020 0.07058824
v 0.07500000 -0.01582498 0.00722510 0.56470588 0.92549020 0.07058824
v 0.02829539 -0.01582498 0.00722510 0.56470588 0.92549020 0.07058824
v 0.07500000 -0.01600000 0.00866088 0.56470588 0.92549020 0.07058824
v 0.02829539 -0.01582498 0.01009549 0.56470588 0.92549020 0.07058824
v 0.02829539 -0.01591190 0.00938347 0.56470588 0.92549020 0.07058824
v 0.02829539 -0.01591308 0.00794768 0.56470588 0.92549020 0.07058824
v 0.02829539 -0.01600000 0.00866088 0.56470588 0.92549020 0.07058824
f 1 2 8
f 1 8 16
f 1 16 21
f 1 21 27
f 1 27 33
f 1 33 37
f 1 37 42
f 1 42 49
f 1 49 55
f 1 55 60
f 1 60 65
f 1 65 70
f 1 70 68
f 1 68 62
f 1 62 57
f 1 57 51
f 1 51 46
f 1 46 39
f 1 39 34
f 1 34 28
f 1 28 22
f 1 22 17
f 1 17 9
f 1 9 3
f 1 3 4
f 1 4 5
f 1 5 2
f 2 5 6
f 2 6 7
f 2 7 8
f 3 9 10
f 3 10 11
f 3 11 12
f 3 12 4
f 4 12 11
f 4 11 10
f 4 10 19
f 4 19 18
f 4 18 23
f 4 23 31
f 4 31 30
f 4 30 29
f 4 29 35
f 4 35 41
f 4 41 40
f 4 40 48
f 4 48 47
f 4 47 54
f 4 54 53
f 4 53 52
f 4 52 59
f 4 59 58
f 4 58 64
f 4 64 63
f 4 63 69
f 4 69 73
f 4 73 74
f 4 74 72
f 4 72 71
f 4 71 67
f 4 67 66
f 4 66 61
f 4 61 56
f 4 56 50
f 4 50 45
f 4 45 44
f 4 44 43
f 4 43 38
f 4 38 36
f 4 36 32
f 4 32 26
f 4 26 25
f 4 25 24
f 4 24 20
f 4 20 15
f 4 15 14
f 4 14 13
f 4 13 7
f 4 7 6
f 4 6 5
f 7 13 8
f 8 13 14
f 8 14 15
f 8 15 16
f 9 17 18
f 9 18 19
f 9 19 10
f 15 20 16
f 16 20 21
f 17 22 23
f 17 23 18
f 20 24 21
f 21 24 25
f 21 25 26
f 21 26 27
f 22 28 29
f 22 29 30
f 22 30 31
f 22 31 23
f 26 32 27
f 27 32 33
f 28 34 35
f 28 35 29
f 32 36 33
f 33 36 38
f 33 38 43
f 33 43 37
f 34 39 48
f 34 48 40
f 34 40 41
f 34 41 35
f 37 43 44
f 37 44 45
f 37 45 50
f 37 50 42
f 39 46 47
f 39 47 48
f 42 50 56
f 42 56 49
f 46 51 52
f 46 52 53
f 46 53 54
f 46 54 47
f 49 56 61
f 49 61 55
f 51 57 58
f 51 58 59
f 51 59 52
f 55 61 66
f 55 66 60
f 57 62 63
f 57 63 64
f 57 64 58
f 60 66 67
f 60 67 65
f 62 68 69
f 62 69 63
f 65 67 71
f 65 71 72
f 65 72 70
f 68 70 73
f 68 73 69
f 70 72 74
f 70 74 73