# https://github.com/mikedh/trimesh
v -0.01773328 0.01600000 0.00866102 0.38039216 0.78823529 0.52549020
v -0.01773328 0.01582498 0.01009522 0.38039216 0.78823529 0.52549020
v -0.01773328 0.01582498 0.00722448 0.38039216 0.78823529 0.52549020
v -0.03404791 0.01600000 0.00866102 0.38039216 0.78823529 0.52549020
v -0.03404791 0.01582498 0.01009522 0.38039216 0.78823529 0.52549020
v -0.03404791 0.01580149 0.01015829 0.38039216 0.78823529 0.52549020
v -0.01773328 0.01539272 0.01123628 0.38039216 0.78823529 0.52549020
v -0.01773328 0.01527525 0.00580663 0.38039216 0.78823529 0.52549020
v -0.03404791 0.01531049 0.00586853 0.38039216 0.78823529 0.52549020
v -0.03404791 0.01582498 0.00722448 0.38039216 0.78823529 0.52549020
v -0.03404791 0.01531637 0.01143599 0.38039216 0.78823529 0.52549020
v -0.01773328 0.01531167 0.01144767 0.38039216 0.78823529 0.52549020
v -0.01773328 0.01471143 0.00498909 0.38039216 0.78823529 0.52549020
v -0.03404791 0.01453406 0.00474383 0.38039216 0.78823529 0.52549020
v -0.03404791 0.01531167 0.01144767 0.38039216 0.78823529 0.52549020
v -0.03404791 0.01530462 0.01145818 0.38039216 0.78823529 0.52549020
v -0.03404791 0.01526703 0.01151307 0.38039216 0.78823529 0.52549020
v -0.01773328 0.01518363 0.01163454 0.38039216 0.78823529 0.52549020
v -0.01773328 0.01444362 0.00463171 0.38039216 0.78823529 0.52549020
v -0.03404791 0.01448825 0.00467959 0.38039216 0.78823529 0.52549020
v -0.03404791 0.01449060 0.01263895 0.38039216 0.78823529 0.52549020
v -0.01773328 0.01449060 0.01263895 0.38039216 0.78823529 0.52549020
v -0.01773328 0.01370125 0.00397300 0.38039216 0.78823529 0.52549020
v -0.03404791 0.01346515 0.00377329 0.38039216 0.78823529 0.52549020
v -0.03404791 0.01340760 0.01359781 0.38039216 0.78823529 0.52549020
v -0.01773328 0.01340760 0.01359781 0.38039216 0.78823529 0.52549020
v -0.01773328 0.01335591 0.00368803 0.38039216 0.78823529 0.52549020
v -0.03404791 0.01340525 0.00372073 0.38039216 0.78823529 0.52549020
v -0.03404791 0.01342404 0.00373708 0.38039216 0.78823529 0.52549020
v -0.03404791 0.01339702 0.01360365 0.38039216 0.78823529 0.52549020
v -0.01773328 0.01212725 0.01426936 0.38039216 0.78823529 0.52549020
v -0.03404791 0.01333712 0.01363518 0.38039216 0.78823529 0.52549020
v -0.01773328 0.01247729 0.00322787 0.38039216 0.78823529 0.52549020
v -0.03404791 0.01219538 0.00308539 0.38039216 0.78823529 0.52549020
v -0.01773328 0.01072240 0.01461623 0.38039216 0.78823529 0.52549020
v -0.03404791 0.01212725 0.01426936 0.38039216 0.78823529 0.52549020
v -0.03404791 0.01206147 0.01428571 0.38039216 0.78823529 0.52549020
v -0.01773328 0.01207557 0.00303166 0.38039216 0.78823529 0.52549020
v -0.03404791 0.01212373 0.00304918 0.38039216 0.78823529 0.52549020
v -0.01773328 0.01049569 0.01463025 0.38039216 0.78823529 0.52549020
v -0.03404791 0.01072240 0.01461623 0.38039216 0.78823529 0.52549020
v -0.01773328 0.01111120 0.00279457 0.38039216 0.78823529 0.52549020
v -0.03404791 0.01079757 0.00272216 0.38039216 0.78823529 0.52549020
v -0.01773328 0.00950431 0.01463025 0.38039216 0.78823529 0.52549020
v -0.03404791 0.00928935 0.01461623 0.38039216 0.78823529 0.52549020
v -0.01773328 0.01067424 0.00269881 0.38039216 0.78823529 0.52549020
v -0.03404791 0.01074471 0.00270932 0.38039216 0.78823529 0.52549020
v -0.01773328 0.00908497 0.01458236 0.38039216 0.78823529 0.52549020
v -0.03404791 0.00926703 0.01461390 0.38039216 0.78823529 0.52549020
v -0.01773328 0.00968403 0.00269881 0.38039216 0.78823529 0.52549020
v -0.03404791 0.01072005 0.00270465 0.38039216 0.78823529 0.52549020
v -0.01773328 0.00812177 0.01434527 0.38039216 0.78823529 0.52549020
v -0.03404791 0.00921417 0.01460105 0.38039216 0.78823529 0.52549020
v -0.01773328 0.00923649 0.00271048 0.38039216 0.78823529 0.52549020
v -0.03404791 0.00927526 0.00270465 0.38039216 0.78823529 0.52549020
v -0.01773328 0.00772357 0.01420512 0.38039216 0.78823529 0.52549020
v -0.03404791 0.00788684 0.01427403 0.38039216 0.78823529 0.52549020
v -0.01773328 0.00827330 0.00294757 0.38039216 0.78823529 0.52549020
v -0.03404791 0.00789507 0.00304451 0.38039216 0.78823529 0.52549020
v -0.01773328 0.00684495 0.01374496 0.38039216 0.78823529 0.52549020
v -0.03404791 0.00786453 0.01426586 0.38039216 0.78823529 0.52549020
v -0.03404791 0.00781637 0.01424133 0.38039216 0.78823529 0.52549020
v -0.01773328 0.00784103 0.00306320 0.38039216 0.78823529 0.52549020
v -0.03404791 0.00787157 0.00305152 0.38039216 0.78823529 0.52549020
v -0.01773328 0.00648786 0.01351956 0.38039216 0.78823529 0.52549020
v -0.03404791 0.00660650 0.01360598 0.38039216 0.78823529 0.52549020
v -0.01773328 0.00696241 0.00352452 0.38039216 0.78823529 0.52549020
v -0.03404791 0.00661237 0.00371256 0.38039216 0.78823529 0.52549020
v -0.01773328 0.00574550 0.01286202 0.38039216 0.78823529 0.52549020
v -0.03404791 0.00658653 0.01359314 0.38039216 0.78823529 0.52549020
v -0.03404791 0.00654542 0.01355693 0.38039216 0.78823529 0.52549020
v -0.01773328 0.00657009 0.00373825 0.38039216 0.78823529 0.52549020
v -0.03404791 0.00659123 0.00372424 0.38039216 0.78823529 0.52549020
v -0.01773328 0.00544714 0.01256420 0.38039216 0.78823529 0.52549020
v -0.03404791 0.00552232 0.01265063 0.38039216 0.78823529 0.52549020
v -0.03404791 0.00550587 0.01263428 0.38039216 0.78823529 0.52549020
v -0.01773328 0.00582655 0.00439696 0.38039216 0.78823529 0.52549020
v -0.03404791 0.00552702 0.00466675 0.38039216 0.78823529 0.52549020
v -0.01773328 0.00488332 0.01174666 0.38039216 0.78823529 0.52549020
v -0.03404791 0.00472944 0.01150957 0.38039216 0.78823529 0.52549020
v -0.01773328 0.00549648 0.00469711 0.38039216 0.78823529 0.52549020
v -0.03404791 0.00550940 0.00468310 0.38039216 0.78823529 0.52549020
v -0.01773328 0.00465897 0.01139044 0.38039216 0.78823529 0.52549020
v -0.03404791 0.00468598 0.01144534 0.38039216 0.78823529 0.52549020
v -0.01773328 0.00493266 0.00551465 0.38039216 0.78823529 0.52549020
v -0.03404791 0.00470125 0.00585218 0.38039216 0.78823529 0.52549020
v -0.01773328 0.00430658 0.01046195 0.38039216 0.78823529 0.52549020
v -0.03404791 0.00418207 0.01011625 0.38039216 0.78823529 0.52549020
v -0.01773328 0.00468129 0.00588488 0.38039216 0.78823529 0.52549020
v -0.03404791 0.00468716 0.00587320 0.38039216 0.78823529 0.52549020
v -0.01773328 0.00416797 0.01006369 0.38039216 0.78823529 0.52549020
v -0.03404791 0.00417502 0.01009406 0.38039216 0.78823529 0.52549020
v -0.01773328 0.00433007 0.00681221 0.38039216 0.78823529 0.52549020
v -0.03404791 0.00418324 0.00720229 0.38039216 0.78823529 0.52549020
v -0.01773328 0.00404816 0.00907914 0.38039216 0.78823529 0.52549020
v -0.03404791 0.00400000 0.00866102 0.38039216 0.78823529 0.52549020
v -0.01773328 0.00417385 0.00723149 0.38039216 0.78823529 0.52549020
v -0.03404791 0.00417502 0.00722565 0.38039216 0.78823529 0.52549020
v -0.01773328 0.00400000 0.00866102 0.38039216 0.78823529 0.52549020
f 1 2 7
f 1 7 12
f 1 12 18
f 1 18 22
f 1 22 26
f 1 26 31
f 1 31 35
f 1 35 40
f 1 40 44
f 1 44 48
f 1 48 52
f 1 52 56
f 1 56 60
f 1 60 65
f 1 65 69
f 1 69 74
f 1 74 79
f 1 79 83
f 1 83 87
f 1 87 91
f 1 91 95
f 1 95 99
f 1 99 97
f 1 97 93
f 1 93 89
f 1 89 85
f 1 85 81
f 1 81 77
f 1 77 72
f 1 72 67
f 1 67 63
f 1 63 58
f 1 58 54
f 1 54 50
f 1 50 46
f 1 46 42
f 1 42 38
f 1 38 33
f 1 33 27
f 1 27 23
f 1 23 19
f 1 19 13
f 1 13 8
f 1 8 3
f 1 3 10
f 1 10 4
f 1 4 5
f 1 5 2
f 2 5 6
f 2 6 7
f 3 8 9
f 3 9 10
f 4 10 9
f 4 9 14
f 4 14 20
f 4 20 24
f 4 24 29
f 4 29 28
f 4 28 34
f 4 34 39
f 4 39 43
f 4 43 47
f 4 47 51
f 4 51 55
f 4 55 59
f 4 59 64
f 4 64 68
f 4 68 73
f 4 73 78
f 4 78 82
f 4 82 86
f 4 86 90
f 4 90 94
f 4 94 98
f 4 98 96
f 4 96 92
f 4 92 88
f 4 88 84
f 4 84 80
f 4 80 76
f 4 76 75
f 4 75 71
f 4 71 70
f 4 70 66
f 4 66 62
f 4 62 61
f 4 61 57
f 4 57 53
f 4 53 49
f 4 49 45
f 4 45 41
f 4 41 37
f 4 37 36
f 4 36 32
f 4 32 30
f 4 30 25
f 4 25 21
f 4 21 17
f 4 17 16
f 4 16 15
f 4 15 11
f 4 11 6
f 4 6 5
f 6 11 7
f 7 11 12
f 8 13 9
f 9 13 14
f 11 15 12
f 12 15 16
f 12 16 17
f 12 17 18
f 13 19 20
f 13 20 14
f 17 21 18
f 18 21 22
f 19 23 20
f 20 23 24
f 21 25 26
f 21 26 22
f 23 27 28
f 23 28 29
f 23 29 24
f 25 30 26
f 26 30 32
f 26 32 31
f 27 33 34
f 27 34 28
f 31 32 36
f 31 36 37
f 31 37 35
f 33 38 39
f 33 39 34
f 35 37 41
f 35 41 40
f 38 42 43
f 38 43 39
f 40 41 45
f 40 45 44
f 42 46 47
f 42 47 43
f 44 45 49
f 44 49 48
f 46 50 55
f 46 55 51
f 46 51 47
f 48 49 53
f 48 53 52
f 50 54 55
f 52 53 57
f 52 57 56
f 54 58 55
f 55 58 59
f 56 57 61
f 56 61 62
f 56 62 60
f 58 63 59
f 59 63 64
f 60 62 66
f 60 66 65
f 63 67 68
f 63 68 64
f 65 66 70
f 65 70 71
f 65 71 69
f 67 72 68
f 68 72 73
f 69 71 75
f 69 75 76
f 69 76 74
f 72 77 78
f 72 78 73
f 74 76 80
f 74 80 79
f 77 81 78
f 78 81 82
f 79 80 84
f 79 84 83
f 81 85 86
f 81 86 82
f 83 84 87
f 84 88 87
f 85 89 86
f 86 89 90
f 87 88 91
f 88 92 91
f 89 93 94
f 89 94 90
f 91 92 96
f 91 96 95
f 93 97 94
f 94 97 98
f 95 96 99
f 96 98 97
f 96 97 99