# https://github.com/mikedh/trimesh
v 0.07500000 0.01599882 0.00865913 0.94117647 0.52156863 0.41176471
v 0.07500000 0.01582485 0.01009508 0.94117647 0.52156863 0.41176471
v 0.07500000 0.01582485 0.00722553 0.94117647 0.52156863 0.41176471
v -0.01773327 0.01597179 0.00843586 0.94117647 0.52156863 0.41176471
v -0.01773327 0.01599882 0.00865913 0.94117647 0.52156863 0.41176471
v -0.01773327 0.01585306 0.00987064 0.94117647 0.52156863 0.41176471
v 0.07500000 0.01531232 0.01144759 0.94117647 0.52156863 0.41176471
v -0.01773327 0.01582485 0.01009508 0.94117647 0.52156863 0.41176471
v 0.07500000 0.01531232 0.00587302 0.94117647 0.52156863 0.41176471
v -0.01773327 0.01582485 0.00722553 0.94117647 0.52156863 0.41176471
v 0.07500000 0.01449062 0.01263795 0.94117647 0.52156863 0.41176471
v -0.01773327 0.01531232 0.01144759 0.94117647 0.52156863 0.41176471
v 0.07500000 0.01449062 0.00468266 0.94117647 0.52156863 0.41176471
v 0.02500246 0.01346085 0.00265565 0.94117647 0.52156863 0.41176471
v 0.02500246 0.01519594 0.00566033 0.94117647 0.52156863 0.41176471
v -0.01773327 0.01527587 0.00580604 0.94117647 0.52156863 0.41176471
v 0.07500000 0.01340795 0.01359799 0.94117647 0.52156863 0.41176471
v -0.01773327 0.01449062 0.01263795 0.94117647 0.52156863 0.41176471
v -0.01773327 0.01432017 0.01278953 0.94117647 0.52156863 0.41176471
v 0.07500000 0.01340795 0.00372262 0.94117647 0.52156863 0.41176471
v 0.07500000 0.01212663 0.00305048 0.94117647 0.52156863 0.41176471
v 0.07500000 0.01072304 0.00270500 0.94117647 0.52156863 0.41176471
v 0.02500246 0.00399195 0.00265565 0.94117647 0.52156863 0.41176471
v 0.02000089 0.01346085 0.00265565 0.94117647 0.52156863 0.41176471
v 0.02000089 0.01519594 0.00566033 0.94117647 0.52156863 0.41176471
v -0.01773327 0.01471162 0.00498936 0.94117647 0.52156863 0.41176471
v 0.07500000 0.01212663 0.01427013 0.94117647 0.52156863 0.41176471
v -0.01773327 0.01340795 0.01359799 0.94117647 0.52156863 0.41176471
v 0.07500000 0.00927714 0.00270500 0.94117647 0.52156863 0.41176471
v 0.07500000 0.00787355 0.00305048 0.94117647 0.52156863 0.41176471
v 0.07500000 0.00659222 0.00372262 0.94117647 0.52156863 0.41176471
v 0.07500000 0.00550956 0.00468266 0.94117647 0.52156863 0.41176471
v 0.07500000 0.00468786 0.00587302 0.94117647 0.52156863 0.41176471
v 0.07500000 0.00417533 0.00722553 0.94117647 0.52156863 0.41176471
v 0.07500000 0.00400018 0.00865913 0.94117647 0.52156863 0.41176471
v 0.02500246 0.00399195 0.01466026 0.94117647 0.52156863 0.41176471
v 0.02000089 0.00399195 0.00265565 0.94117647 0.52156863 0.41176471
v -0.01773327 0.01067484 0.00269913 0.94117647 0.52156863 0.41176471
v -0.01773327 0.01111214 0.00279431 0.94117647 0.52156863 0.41176471
v -0.01773327 0.01207490 0.00303167 0.94117647 0.52156863 0.41176471
v -0.01773327 0.01247811 0.00322791 0.94117647 0.52156863 0.41176471
v -0.01773327 0.01335623 0.00368854 0.94117647 0.52156863 0.41176471
v -0.01773327 0.01370066 0.00397291 0.94117647 0.52156863 0.41176471
v -0.01773327 0.01444360 0.00463096 0.94117647 0.52156863 0.41176471
v 0.07500000 0.01072304 0.01461561 0.94117647 0.52156863 0.41176471
v -0.01773327 0.01212663 0.01427013 0.94117647 0.52156863 0.41176471
v -0.01773327 0.01094287 0.01456155 0.94117647 0.52156863 0.41176471
v 0.07500000 0.00417533 0.01009508 0.94117647 0.52156863 0.41176471
v 0.07500000 0.00468786 0.01144759 0.94117647 0.52156863 0.41176471
v 0.07500000 0.00550956 0.01263795 0.94117647 0.52156863 0.41176471
v 0.07500000 0.00659222 0.01359799 0.94117647 0.52156863 0.41176471
v 0.07500000 0.00787355 0.01427013 0.94117647 0.52156863 0.41176471
v 0.07500000 0.00927714 0.01461561 0.94117647 0.52156863 0.41176471
v 0.02500246 0.00999891 0.01466026 0.94117647 0.52156863 0.41176471
v 0.02000089 0.00399195 0.01466026 0.94117647 0.52156863 0.41176471
v -0.01773327 0.00400018 0.00865913 0.94117647 0.52156863 0.41176471
v -0.01773327 0.00417298 0.00723141 0.94117647 0.52156863 0.41176471
v -0.01773327 0.00432933 0.00681308 0.94117647 0.52156863 0.41176471
v -0.01773327 0.00468199 0.00588477 0.94117647 0.52156863 0.41176471
v -0.01773327 0.00493237 0.00551462 0.94117647 0.52156863 0.41176471
v -0.01773327 0.00549545 0.00469794 0.94117647 0.52156863 0.41176471
v -0.01773327 0.00582695 0.00439712 0.94117647 0.52156863 0.41176471
v -0.01773327 0.00656989 0.00373907 0.94117647 0.52156863 0.41176471
v -0.01773327 0.00696252 0.00352403 0.94117647 0.52156863 0.41176471
v -0.01773327 0.00784064 0.00306340 0.94117647 0.52156863 0.41176471
v -0.01773327 0.00827323 0.00294707 0.94117647 0.52156863 0.41176471
v -0.01773327 0.00923599 0.00270970 0.94117647 0.52156863 0.41176471
v -0.01773327 0.00968387 0.00269913 0.94117647 0.52156863 0.41176471
v -0.01773327 0.01072304 0.01461561 0.94117647 0.52156863 0.41176471
v -0.01773327 0.01049616 0.01462971 0.94117647 0.52156863 0.41176471
v 0.02000089 0.00999891 0.01466026 0.94117647 0.52156863 0.41176471
v -0.01773327 0.00950402 0.01462971 0.94117647 0.52156863 0.41176471
v -0.01773327 0.00908553 0.01458271 0.94117647 0.52156863 0.41176471
v -0.01773327 0.00812159 0.01434534 0.94117647 0.52156863 0.41176471
v -0.01773327 0.00772309 0.01420550 0.94117647 0.52156863 0.41176471
v -0.01773327 0.00684496 0.01374487 0.94117647 0.52156863 0.41176471
v -0.01773327 0.00648760 0.01352043 0.94117647 0.52156863 0.41176471
v -0.01773327 0.00574467 0.01286239 0.94117647 0.52156863 0.41176471
v -0.01773327 0.00544726 0.01256392 0.94117647 0.52156863 0.41176471
v -0.01773327 0.00488300 0.01174724 0.94117647 0.52156863 0.41176471
v -0.01773327 0.00465848 0.01139001 0.94117647 0.52156863 0.41176471
v -0.01773327 0.00430699 0.01046170 0.94117647 0.52156863 0.41176471
v -0.01773327 0.00416710 0.01006335 0.94117647 0.52156863 0.41176471
v -0.01773327 0.00404837 0.00907863 0.94117647 0.52156863 0.41176471
f 1 2 7
f 1 7 11
f 1 11 17
f 1 17 27
f 1 27 45
f 1 45 53
f 1 53 52
f 1 52 51
f 1 51 50
f 1 50 49
f 1 49 48
f 1 48 35
f 1 35 34
f 1 34 33
f 1 33 32
f 1 32 31
f 1 31 30
f 1 30 29
f 1 29 22
f 1 22 21
f 1 21 20
f 1 20 13
f 1 13 9
f 1 9 3
f 1 3 4
f 1 4 5
f 1 5 6
f 1 6 2
f 2 6 8
f 2 8 12
f 2 12 7
f 3 9 10
f 3 10 4
f 4 10 16
f 4 16 26
f 4 26 44
f 4 44 43
f 4 43 42
f 4 42 41
f 4 41 40
f 4 40 39
f 4 39 38
f 4 38 68
f 4 68 67
f 4 67 66
f 4 66 65
f 4 65 64
f 4 64 63
f 4 63 62
f 4 62 61
f 4 61 60
f 4 60 59
f 4 59 58
f 4 58 57
f 4 57 56
f 4 56 84
f 4 84 83
f 4 83 82
f 4 82 81
f 4 81 80
f 4 80 79
f 4 79 78
f 4 78 77
f 4 77 76
f 4 76 75
f 4 75 74
f 4 74 73
f 4 73 72
f 4 72 70
f 4 70 69
f 4 69 47
f 4 47 46
f 4 46 28
f 4 28 19
f 4 19 18
f 4 18 12
f 4 12 8
f 4 8 6
f 4 6 5
f 7 12 18
f 7 18 11
f 9 13 14
f 9 14 15
f 9 15 16
f 9 16 10
f 11 18 19
f 11 19 17
f 13 20 14
f 14 20 21
f 14 21 22
f 14 22 29
f 14 29 23
f 14 23 37
f 14 37 24
f 14 24 25
f 14 25 15
f 15 25 16
f 16 25 24
f 16 24 26
f 17 19 28
f 17 28 46
f 17 46 27
f 23 29 30
f 23 30 31
f 23 31 32
f 23 32 33
f 23 33 34
f 23 34 35
f 23 35 36
f 23 36 55
f 23 55 37
f 24 37 68
f 24 68 38
f 24 38 39
f 24 39 40
f 24 40 41
f 24 41 42
f 24 42 43
f 24 43 44
f 24 44 26
f 27 46 47
f 27 47 45
f 35 48 36
f 36 48 49
f 36 49 50
f 36 50 51
f 36 51 52
f 36 52 53
f 36 53 45
f 36 45 54
f 36 54 71
f 36 71 55
f 37 55 56
f 37 56 57
f 37 57 58
f 37 58 59
f 37 59 60
f 37 60 61
f 37 61 62
f 37 62 63
f 37 63 64
f 37 64 65
f 37 65 66
f 37 66 67
f 37 67 68
f 45 47 69
f 45 69 70
f 45 70 54
f 54 70 71
f 55 71 70
f 55 70 72
f 55 72 73
f 55 73 74
f 55 74 75
f 55 75 76
f 55 76 77
f 55 77 78
f 55 78 79
f 55 79 80
f 55 80 81
f 55 81 82
f 55 82 83
f 55 83 84
f 55 84 56