# https://github.com/mikedh/trimesh
v -0.03404791 0.00599994 -0.00866299 0.43529412 0.89019608 0.96078431
v -0.03404791 0.00582844 -0.01007405 0.43529412 0.89019608 0.96078431
v -0.03404791 0.00599759 -0.00863964 0.43529412 0.89019608 0.96078431
v -0.01773220 0.00595883 -0.00826966 0.43529412 0.89019608 0.96078431
v -0.01773220 0.00599876 -0.00872368 0.43529412 0.89019608 0.96078431
v -0.01773220 0.00599876 -0.00872484 0.43529412 0.89019608 0.96078431
v -0.01773220 0.00587895 -0.00971107 0.43529412 0.89019608 0.96078431
v -0.03404791 0.00582374 -0.01009855 0.43529412 0.89019608 0.96078431
v 0.01998168 0.00576736 -0.01031331 0.43529412 0.89019608 0.96078431
v -0.01773220 0.00580730 -0.01016275 0.43529412 0.89019608 0.96078431
v -0.03404791 0.00582609 -0.00722859 0.43529412 0.89019608 0.96078431
v -0.01773220 0.00583901 -0.00728461 0.43529412 0.89019608 0.96078431
v 0.01998168 0.00586838 -0.00741416 0.43529412 0.89019608 0.96078431
v 0.01998168 0.00599524 -0.00886840 0.43529412 0.89019608 0.96078431
v -0.03404791 0.00533980 -0.01137656 0.43529412 0.89019608 0.96078431
v 0.01998168 0.00519532 -0.01165901 0.43529412 0.89019608 0.96078431
v -0.03404791 0.00531043 -0.01145126 0.43529412 0.89019608 0.96078431
v -0.01773220 0.00545491 -0.01109178 0.43529412 0.89019608 0.96078431
v -0.03404791 0.00581787 -0.00720408 0.43529412 0.89019608 0.96078431
v 0.01998168 0.00539148 -0.00603111 0.43529412 0.89019608 0.96078431
v 0.01998168 0.00449055 -0.01263706 0.43529412 0.89019608 0.96078431
v -0.01773220 0.00449055 -0.01263823 0.43529412 0.89019608 0.96078431
v -0.03404791 0.00449055 -0.01263823 0.43529412 0.89019608 0.96078431
v -0.03404791 0.00450229 -0.01262189 0.43529412 0.89019608 0.96078431
v -0.03404791 0.00453401 -0.01257637 0.43529412 0.89019608 0.96078431
v -0.03404791 0.00531396 -0.00587588 0.43529412 0.89019608 0.96078431
v -0.01773220 0.00533745 -0.00592257 0.43529412 0.89019608 0.96078431
v 0.01998168 0.00459509 -0.00480446 0.43529412 0.89019608 0.96078431
v 0.01998168 0.00438953 -0.01272810 0.43529412 0.89019608 0.96078431
v -0.03404791 0.00345806 -0.01355209 0.43529412 0.89019608 0.96078431
v -0.03404791 0.00529986 -0.00585488 0.43529412 0.89019608 0.96078431
v -0.01773220 0.00508726 -0.00553742 0.43529412 0.89019608 0.96078431
v 0.01998168 0.00352618 -0.00380656 0.43529412 0.89019608 0.96078431
v -0.01773220 0.00452344 -0.00472043 0.43529412 0.89019608 0.96078431
v 0.01998168 0.00340755 -0.01359644 0.43529412 0.89019608 0.96078431
v -0.03404791 0.00340755 -0.01359644 0.43529412 0.89019608 0.96078431
v -0.03404791 0.00449290 -0.00468541 0.43529412 0.89019608 0.96078431
v -0.01773220 0.00344513 -0.00374938 0.43529412 0.89019608 0.96078431
v -0.03404791 0.00338758 -0.00371203 0.43529412 0.89019608 0.96078431
v -0.01773220 0.00304341 -0.00352645 0.43529412 0.89019608 0.96078431
v 0.01998168 0.00224702 -0.00309812 0.43529412 0.89019608 0.96078431
v -0.03404791 0.00447410 -0.00466791 0.43529412 0.89019608 0.96078431
v 0.01998168 0.00264757 -0.01399677 0.43529412 0.89019608 0.96078431
v -0.03404791 0.00212721 -0.01426987 0.43529412 0.89019608 0.96078431
v -0.03404791 0.00340990 -0.00372487 0.43529412 0.89019608 0.96078431
v -0.03404791 0.00333942 -0.00368635 0.43529412 0.89019608 0.96078431
v -0.01773220 0.00216480 -0.00306544 0.43529412 0.89019608 0.96078431
v 0.01998168 0.00083395 -0.00271880 0.43529412 0.89019608 0.96078431
v 0.01998168 0.00212721 -0.01426987 0.43529412 0.89019608 0.96078431
v -0.03404791 0.00072236 -0.01461651 0.43529412 0.89019608 0.96078431
v -0.03404791 0.00212956 -0.00305260 0.43529412 0.89019608 0.96078431
v -0.03404791 0.00210489 -0.00304560 0.43529412 0.89019608 0.96078431
v -0.01773220 0.00172079 -0.00294639 0.43529412 0.89019608 0.96078431
v 0.01998168 -0.00062610 -0.00269312 0.43529412 0.89019608 0.96078431
v -0.01773220 0.00075760 -0.00270946 0.43529412 0.89019608 0.96078431
v -0.03404791 0.00069887 -0.00270479 0.43529412 0.89019608 0.96078431
v 0.01998168 0.00072236 -0.01461651 0.43529412 0.89019608 0.96078431
v -0.03404791 -0.00072125 -0.01461651 0.43529412 0.89019608 0.96078431
v -0.03404791 0.00072471 -0.00270596 0.43529412 0.89019608 0.96078431
v -0.01773220 -0.00069188 -0.00270129 0.43529412 0.89019608 0.96078431
v -0.01773220 -0.00113941 -0.00280400 0.43529412 0.89019608 0.96078431
v 0.01998168 -0.00205092 -0.00302225 0.43529412 0.89019608 0.96078431
v -0.03404791 -0.00072007 -0.00270479 0.43529412 0.89019608 0.96078431
v 0.01998168 -0.00072242 -0.01461651 0.43529412 0.89019608 0.96078431
v -0.03404791 -0.00212610 -0.01426987 0.43529412 0.89019608 0.96078431
v -0.01773220 -0.00072242 -0.01461651 0.43529412 0.89019608 0.96078431
v -0.03404791 -0.00074474 -0.00271063 0.43529412 0.89019608 0.96078431
v -0.03404791 -0.00079760 -0.00272347 0.43529412 0.89019608 0.96078431
v -0.03404791 -0.00212492 -0.00305143 0.43529412 0.89019608 0.96078431
v -0.01773220 -0.00210260 -0.00304209 0.43529412 0.89019608 0.96078431
v 0.01998168 -0.00335358 -0.00368635 0.43529412 0.89019608 0.96078431
v -0.01773220 -0.00251255 -0.00324984 0.43529412 0.89019608 0.96078431
v 0.01998168 -0.00155523 -0.01441110 0.43529412 0.89019608 0.96078431
v -0.03404791 -0.00334653 -0.01362795 0.43529412 0.89019608 0.96078431
v 0.01998168 -0.00212610 -0.01426987 0.43529412 0.89019608 0.96078431
v 0.01998168 -0.00276744 -0.01393374 0.43529412 0.89019608 0.96078431
v 0.01998168 -0.00289430 -0.01386721 0.43529412 0.89019608 0.96078431
v -0.01773220 -0.00340761 -0.01359644 0.43529412 0.89019608 0.96078431
v -0.03404791 -0.00219540 -0.00308761 0.43529412 0.89019608 0.96078431
v 0.01998168 -0.00445772 -0.00464573 0.43529412 0.89019608 0.96078431
v -0.01773220 -0.00339116 -0.00371203 0.43529412 0.89019608 0.96078431
v -0.03404791 -0.00340526 -0.00372253 0.43529412 0.89019608 0.96078431
v -0.03404791 -0.00340643 -0.01359644 0.43529412 0.89019608 0.96078431
v 0.01998168 -0.00340761 -0.01359644 0.43529412 0.89019608 0.96078431
v -0.01773220 -0.00357793 -0.01344705 0.43529412 0.89019608 0.96078431
v -0.03404791 -0.00341583 -0.01358827 0.43529412 0.89019608 0.96078431
v 0.01998168 -0.00342758 -0.01358010 0.43529412 0.89019608 0.96078431
v 0.01998168 -0.00529640 -0.00584320 0.43529412 0.89019608 0.96078431
v -0.01773220 -0.00373768 -0.00401315 0.43529412 0.89019608 0.96078431
v -0.01773220 -0.00448004 -0.00467024 0.43529412 0.89019608 0.96078431
v -0.03404791 -0.00342523 -0.00373887 0.43529412 0.89019608 0.96078431
v 0.01998168 -0.00449061 -0.01263706 0.43529412 0.89019608 0.96078431
v -0.01773220 -0.00448944 -0.01263823 0.43529412 0.89019608 0.96078431
v -0.03404791 -0.00448944 -0.01263823 0.43529412 0.89019608 0.96078431
v 0.01998168 -0.00582146 -0.00720874 0.43529412 0.89019608 0.96078431
v -0.03404791 -0.00450353 -0.00470292 0.43529412 0.89019608 0.96078431
v -0.03404791 -0.00531167 -0.00587238 0.43529412 0.89019608 0.96078431
v -0.03404791 -0.00448826 -0.00468191 0.43529412 0.89019608 0.96078431
v 0.01998168 -0.00462217 -0.01245616 0.43529412 0.89019608 0.96078431
v -0.01773220 -0.00449061 -0.01263706 0.43529412 0.89019608 0.96078431
v -0.03404791 -0.00450118 -0.01262189 0.43529412 0.89019608 0.96078431
v -0.01773220 -0.00471144 -0.01233127 0.43529412 0.89019608 0.96078431
v 0.01998168 -0.00600000 -0.00865949 0.43529412 0.89019608 0.96078431
v -0.01773220 -0.00582381 -0.00722042 0.43529412 0.89019608 0.96078431
v -0.03404791 -0.00582851 -0.00724959 0.43529412 0.89019608 0.96078431
v -0.03404791 -0.00582381 -0.00722508 0.43529412 0.89019608 0.96078431
v 0.01998168 -0.00519538 -0.01165901 0.43529412 0.89019608 0.96078431
v -0.03404791 -0.00453290 -0.01257637 0.43529412 0.89019608 0.96078431
v -0.03404791 -0.00531050 -0.01145126 0.43529412 0.89019608 0.96078431
v 0.01998168 -0.00590838 -0.00970056 0.43529412 0.89019608 0.96078431
v -0.01773220 -0.00600000 -0.00865949 0.43529412 0.89019608 0.96078431
v -0.03404791 -0.00599882 -0.00865949 0.43529412 0.89019608 0.96078431
v 0.01998168 -0.00563704 -0.01071130 0.43529412 0.89019608 0.96078431
v -0.03404791 -0.00531754 -0.01143492 0.43529412 0.89019608 0.96078431
v -0.01773220 -0.00597063 -0.00898628 0.43529412 0.89019608 0.96078431
v -0.01773220 -0.00585082 -0.00997017 0.43529412 0.89019608 0.96078431
v -0.01773220 -0.00576625 -0.01028880 0.43529412 0.89019608 0.96078431
v -0.03404791 -0.00599060 -0.00873185 0.43529412 0.89019608 0.96078431
v -0.03404791 -0.00580266 -0.01015691 0.43529412 0.89019608 0.96078431
v -0.03404791 -0.00582498 -0.01008805 0.43529412 0.89019608 0.96078431
v -0.03404791 -0.00582028 -0.01010556 0.43529412 0.89019608 0.96078431
f 1 2 8
f 1 8 15
f 1 15 17
f 1 17 25
f 1 25 24
f 1 24 23
f 1 23 30
f 1 30 36
f 1 36 44
f 1 44 50
f 1 50 58
f 1 58 65
f 1 65 74
f 1 74 83
f 1 83 86
f 1 86 94
f 1 94 101
f 1 101 108
f 1 108 109
f 1 109 114
f 1 114 119
f 1 119 121
f 1 121 120
f 1 120 118
f 1 118 112
f 1 112 105
f 1 105 106
f 1 106 97
f 1 97 96
f 1 96 98
f 1 98 91
f 1 91 82
f 1 82 79
f 1 79 69
f 1 69 68
f 1 68 67
f 1 67 63
f 1 63 56
f 1 56 59
f 1 59 52
f 1 52 51
f 1 51 46
f 1 46 39
f 1 39 45
f 1 45 42
f 1 42 37
f 1 37 31
f 1 31 26
f 1 26 19
f 1 19 11
f 1 11 3
f 1 3 4
f 1 4 5
f 1 5 6
f 1 6 7
f 1 7 2
f 2 7 9
f 2 9 10
f 2 10 8
f 3 11 4
f 4 11 12
f 4 12 13
f 4 13 5
f 5 13 14
f 5 14 6
f 6 14 7
f 7 14 9
f 8 10 15
f 9 16 17
f 9 17 18
f 9 18 15
f 9 15 10
f 9 14 13
f 9 13 20
f 9 20 28
f 9 28 33
f 9 33 41
f 9 41 48
f 9 48 54
f 9 54 62
f 9 62 71
f 9 71 80
f 9 80 88
f 9 88 95
f 9 95 103
f 9 103 110
f 9 110 113
f 9 113 107
f 9 107 99
f 9 99 92
f 9 92 87
f 9 87 84
f 9 84 77
f 9 77 76
f 9 76 75
f 9 75 73
f 9 73 64
f 9 64 57
f 9 57 49
f 9 49 43
f 9 43 35
f 9 35 29
f 9 29 21
f 9 21 16
f 11 19 12
f 12 19 13
f 13 19 20
f 15 18 17
f 16 21 22
f 16 22 23
f 16 23 24
f 16 24 25
f 16 25 17
f 19 26 27
f 19 27 20
f 20 27 28
f 21 29 22
f 22 29 23
f 23 29 30
f 26 31 32
f 26 32 27
f 27 32 28
f 28 32 34
f 28 34 33
f 29 35 30
f 30 35 36
f 31 37 32
f 32 37 34
f 33 38 39
f 33 39 40
f 33 40 41
f 33 34 37
f 33 37 42
f 33 42 38
f 35 43 36
f 36 43 44
f 38 42 45
f 38 45 39
f 39 46 40
f 40 47 41
f 40 46 47
f 41 47 48
f 43 49 44
f 44 49 57
f 44 57 50
f 46 51 47
f 47 51 52
f 47 52 53
f 47 53 48
f 48 53 55
f 48 55 56
f 48 56 54
f 50 57 64
f 50 64 66
f 50 66 58
f 52 59 53
f 53 59 55
f 54 60 61
f 54 61 62
f 54 56 63
f 54 63 60
f 55 59 56
f 58 66 65
f 60 63 61
f 61 63 67
f 61 67 68
f 61 68 69
f 61 69 70
f 61 70 62
f 62 70 72
f 62 72 71
f 64 73 66
f 65 66 73
f 65 73 75
f 65 75 76
f 65 76 77
f 65 77 78
f 65 78 74
f 69 79 72
f 69 72 70
f 71 72 81
f 71 81 80
f 72 79 82
f 72 82 81
f 74 78 83
f 77 84 78
f 78 85 86
f 78 86 83
f 78 84 87
f 78 87 85
f 80 81 89
f 80 89 90
f 80 90 88
f 81 82 91
f 81 91 89
f 85 87 92
f 85 92 93
f 85 93 94
f 85 94 86
f 88 90 96
f 88 96 97
f 88 97 95
f 89 91 90
f 90 91 98
f 90 98 96
f 92 99 100
f 92 100 94
f 92 94 93
f 94 100 99
f 94 99 102
f 94 102 101
f 95 97 104
f 95 104 105
f 95 105 103
f 97 106 104
f 99 107 102
f 101 102 108
f 102 109 108
f 102 107 109
f 103 105 111
f 103 111 110
f 104 106 105
f 105 112 111
f 107 113 109
f 109 113 114
f 110 111 115
f 110 115 116
f 110 116 117
f 110 117 113
f 111 112 115
f 112 118 115
f 113 117 114
f 114 117 119
f 115 118 116
f 116 118 120
f 116 120 117
f 117 120 121
f 117 121 119