# https://github.com/mikedh/trimesh
v -0.03404791 -0.00400044 0.00866825 0.11764706 0.63921569 0.14117647
v -0.03404791 -0.00400162 0.00864478 0.11764706 0.63921569 0.14117647
v -0.03404791 -0.00417193 0.01007992 0.11764706 0.63921569 0.14117647
v 0.01956066 -0.00402746 0.00921977 0.11764706 0.63921569 0.14117647
v 0.01956066 -0.00402628 0.00920804 0.11764706 0.63921569 0.14117647
v 0.01956066 -0.00407209 0.00774944 0.11764706 0.63921569 0.14117647
v -0.01772815 -0.00402276 0.00837254 0.11764706 0.63921569 0.14117647
v -0.03404791 -0.00416606 0.00728827 0.11764706 0.63921569 0.14117647
v -0.03404791 -0.00417781 0.01010456 0.11764706 0.63921569 0.14117647
v -0.01772815 -0.00422714 0.01027002 0.11764706 0.63921569 0.14117647
v 0.01956066 -0.00434107 0.01064904 0.11764706 0.63921569 0.14117647
v 0.01956066 -0.00407327 0.00773770 0.11764706 0.63921569 0.14117647
v -0.03404791 -0.00417311 0.00723429 0.11764706 0.63921569 0.14117647
v -0.01772815 -0.00414257 0.00738801 0.11764706 0.63921569 0.14117647
v -0.03404791 -0.00419660 0.01015619 0.11764706 0.63921569 0.14117647
v 0.01956066 -0.00434577 0.01065960 0.11764706 0.63921569 0.14117647
v -0.03404791 -0.00468170 0.01143408 0.11764706 0.63921569 0.14117647
v 0.01956066 -0.00447380 0.00632956 0.11764706 0.63921569 0.14117647
v -0.03404791 -0.00418015 0.00721082 0.11764706 0.63921569 0.14117647
v -0.01772815 -0.00426942 0.00694210 0.11764706 0.63921569 0.14117647
v -0.01772815 -0.00478507 0.01161245 0.11764706 0.63921569 0.14117647
v 0.01956066 -0.00499649 0.01196918 0.11764706 0.63921569 0.14117647
v -0.03404791 -0.00469345 0.01145638 0.11764706 0.63921569 0.14117647
v 0.01956066 -0.00447732 0.00631899 0.11764706 0.63921569 0.14117647
v -0.03404791 -0.00468405 0.00588012 0.11764706 0.63921569 0.14117647
v -0.01772815 -0.00462062 0.00601390 0.11764706 0.63921569 0.14117647
v 0.01956066 -0.00500354 0.01197974 0.11764706 0.63921569 0.14117647
v -0.03404791 -0.00472399 0.01150214 0.11764706 0.63921569 0.14117647
v 0.01956066 -0.00520909 0.00505284 0.11764706 0.63921569 0.14117647
v -0.01772815 -0.00485202 0.00561258 0.11764706 0.63921569 0.14117647
v -0.03404791 -0.00469697 0.00585900 0.11764706 0.63921569 0.14117647
v -0.01772815 -0.00534887 0.01242917 0.11764706 0.63921569 0.14117647
v 0.01956066 -0.00595495 0.01308983 0.11764706 0.63921569 0.14117647
v -0.03404791 -0.00550156 0.01262631 0.11764706 0.63921569 0.14117647
v 0.01956066 -0.00521496 0.00504345 0.11764706 0.63921569 0.14117647
v -0.01772815 -0.00541582 0.00479585 0.11764706 0.63921569 0.14117647
v -0.03404791 -0.00550509 0.00468907 0.11764706 0.63921569 0.14117647
v -0.01772815 -0.00565073 0.01278121 0.11764706 0.63921569 0.14117647
v -0.03404791 -0.00551801 0.01264626 0.11764706 0.63921569 0.14117647
v -0.01772815 -0.00639307 0.01343952 0.11764706 0.63921569 0.14117647
v 0.01956066 -0.00596435 0.01309804 0.11764706 0.63921569 0.14117647
v 0.01956066 -0.00623450 0.00399203 0.11764706 0.63921569 0.14117647
v -0.01772815 -0.00573883 0.00446376 0.11764706 0.63921569 0.14117647
v -0.03404791 -0.00552271 0.00467029 0.11764706 0.63921569 0.14117647
v -0.03404791 -0.00658101 0.01358855 0.11764706 0.63921569 0.14117647
v -0.01772815 -0.00677129 0.01370706 0.11764706 0.63921569 0.14117647
v 0.01956066 -0.00715773 0.01394293 0.11764706 0.63921569 0.14117647
v 0.01956066 -0.00624273 0.00398382 0.11764706 0.63921569 0.14117647
v -0.03404791 -0.00654459 0.00376438 0.11764706 0.63921569 0.14117647
v -0.03404791 -0.00660215 0.01360263 0.11764706 0.63921569 0.14117647
v -0.03404791 -0.00665031 0.01362844 0.11764706 0.63921569 0.14117647
v -0.03404791 -0.00786130 0.01426446 0.11764706 0.63921569 0.14117647
v -0.01772815 -0.00764988 0.01416823 0.11764706 0.63921569 0.14117647
v 0.01956066 -0.00716830 0.01394880 0.11764706 0.63921569 0.14117647
v 0.01956066 -0.00748661 0.00321403 0.11764706 0.63921569 0.14117647
v -0.01772815 -0.00687465 0.00356138 0.11764706 0.63921569 0.14117647
v -0.03404791 -0.00660802 0.00371393 0.11764706 0.63921569 0.14117647
v -0.03404791 -0.00658570 0.00372801 0.11764706 0.63921569 0.14117647
v -0.03404791 -0.00788597 0.01427384 0.11764706 0.63921569 0.14117647
v 0.01956066 -0.00853317 0.01447685 0.11764706 0.63921569 0.14117647
v 0.01956066 -0.00749601 0.00320934 0.11764706 0.63921569 0.14117647
v -0.01772815 -0.00775442 0.00310021 0.11764706 0.63921569 0.14117647
v -0.03404791 -0.00786718 0.00305444 0.11764706 0.63921569 0.14117647
v -0.03404791 -0.00926493 0.01461297 0.11764706 0.63921569 0.14117647
v 0.01956066 -0.00854374 0.01447920 0.11764706 0.63921569 0.14117647
v 0.01956066 -0.00890081 0.00276225 0.11764706 0.63921569 0.14117647
v -0.01772815 -0.00819489 0.00296057 0.11764706 0.63921569 0.14117647
v -0.03404791 -0.00789184 0.00304623 0.11764706 0.63921569 0.14117647
v -0.03404791 -0.00928960 0.01461532 0.11764706 0.63921569 0.14117647
v -0.01772815 -0.00950455 0.01462940 0.11764706 0.63921569 0.14117647
v 0.01956066 -0.00999552 0.01465991 0.11764706 0.63921569 0.14117647
v 0.01956066 -0.01035964 0.00267190 0.11764706 0.63921569 0.14117647
v -0.01772815 -0.00915804 0.00272236 0.11764706 0.63921569 0.14117647
v -0.03404791 -0.00921795 0.00271884 0.11764706 0.63921569 0.14117647
v -0.03404791 -0.01072142 0.01461532 0.11764706 0.63921569 0.14117647
v -0.01772815 -0.01049472 0.01462940 0.11764706 0.63921569 0.14117647
v 0.01956066 -0.01000492 0.01465991 0.11764706 0.63921569 0.14117647
v 0.01956066 -0.01037139 0.00267190 0.11764706 0.63921569 0.14117647
v -0.01772815 -0.00962083 0.00269419 0.11764706 0.63921569 0.14117647
v -0.03404791 -0.00927080 0.00270593 0.11764706 0.63921569 0.14117647
v -0.03404791 -0.01212622 0.01426915 0.11764706 0.63921569 0.14117647
v -0.01772815 -0.01212739 0.01427032 0.11764706 0.63921569 0.14117647
v -0.01772815 -0.01072142 0.01461649 0.11764706 0.63921569 0.14117647
v 0.01956066 -0.01058634 0.01462471 0.11764706 0.63921569 0.14117647
v 0.01956066 -0.01180908 0.00294179 0.11764706 0.63921569 0.14117647
v -0.01772815 -0.01061101 0.00269419 0.11764706 0.63921569 0.14117647
v -0.03404791 -0.00929665 0.00270476 0.11764706 0.63921569 0.14117647
v -0.03404791 -0.01213679 0.01426446 0.11764706 0.63921569 0.14117647
v -0.01772815 -0.01340769 0.01359793 0.11764706 0.63921569 0.14117647
v 0.01956066 -0.01212739 0.01427032 0.11764706 0.63921569 0.14117647
v 0.01956066 -0.01072142 0.01461649 0.11764706 0.63921569 0.14117647
v 0.01956066 -0.01182083 0.00294414 0.11764706 0.63921569 0.14117647
v -0.01772815 -0.01106675 0.00277986 0.11764706 0.63921569 0.14117647
v -0.03404791 -0.01071554 0.00270476 0.11764706 0.63921569 0.14117647
v -0.03404791 -0.01340769 0.01359676 0.11764706 0.63921569 0.14117647
v -0.03404791 -0.01345820 0.01355217 0.11764706 0.63921569 0.14117647
v -0.03404791 -0.01448948 0.01263805 0.11764706 0.63921569 0.14117647
v 0.01956066 -0.01445777 0.01266738 0.11764706 0.63921569 0.14117647
v 0.01956066 -0.01340769 0.01359793 0.11764706 0.63921569 0.14117647
v 0.01956066 -0.01314928 0.00355551 0.11764706 0.63921569 0.14117647
v -0.01772815 -0.01202990 0.00301689 0.11764706 0.63921569 0.14117647
v -0.03404791 -0.01079307 0.00272236 0.11764706 0.63921569 0.14117647
v -0.03404791 -0.01074021 0.00270945 0.11764706 0.63921569 0.14117647
v -0.03404791 -0.01531169 0.01144699 0.11764706 0.63921569 0.14117647
v -0.01772815 -0.01531169 0.01144817 0.11764706 0.63921569 0.14117647
v -0.01772815 -0.01461869 0.01245147 0.11764706 0.63921569 0.14117647
v 0.01956066 -0.01448948 0.01263805 0.11764706 0.63921569 0.14117647
v 0.01956066 -0.01315986 0.00356138 0.11764706 0.63921569 0.14117647
v -0.03404791 -0.01340299 0.00371979 0.11764706 0.63921569 0.14117647
v -0.01772815 -0.01244923 0.00321051 0.11764706 0.63921569 0.14117647
v -0.03404791 -0.01214384 0.00306031 0.11764706 0.63921569 0.14117647
v -0.03404791 -0.01212035 0.00304975 0.11764706 0.63921569 0.14117647
v -0.03404791 -0.01531639 0.01143526 0.11764706 0.63921569 0.14117647
v -0.01772815 -0.01539274 0.01123577 0.11764706 0.63921569 0.14117647
v 0.01956066 -0.01531169 0.01144817 0.11764706 0.63921569 0.14117647
v 0.01956066 -0.01429803 0.00447785 0.11764706 0.63921569 0.14117647
v -0.01772815 -0.01368959 0.00396152 0.11764706 0.63921569 0.14117647
v -0.03404791 -0.01342296 0.00373622 0.11764706 0.63921569 0.14117647
v -0.03404791 -0.01582499 0.01009517 0.11764706 0.63921569 0.14117647
v 0.01956066 -0.01582499 0.01009517 0.11764706 0.63921569 0.14117647
v 0.01956066 -0.01555131 0.01081685 0.11764706 0.63921569 0.14117647
v 0.01956066 -0.01430742 0.00448606 0.11764706 0.63921569 0.14117647
v -0.01772815 -0.01443193 0.00461983 0.11764706 0.63921569 0.14117647
v -0.03404791 -0.01346407 0.00377260 0.11764706 0.63921569 0.14117647
v -0.03404791 -0.01600000 0.00866121 0.11764706 0.63921569 0.14117647
v 0.01956066 -0.01600000 0.00866121 0.11764706 0.63921569 0.14117647
v 0.01956066 -0.01518954 0.00565247 0.11764706 0.63921569 0.14117647
v -0.01772815 -0.01471148 0.00498947 0.11764706 0.63921569 0.14117647
v -0.03404791 -0.01450123 0.00469963 0.11764706 0.63921569 0.14117647
v -0.03404791 -0.01448596 0.00467968 0.11764706 0.63921569 0.14117647
v -0.03404791 -0.01582499 0.00722608 0.11764706 0.63921569 0.14117647
v -0.01772815 -0.01582499 0.00722490 0.11764706 0.63921569 0.14117647
v 0.01956066 -0.01585318 0.00745490 0.11764706 0.63921569 0.14117647
v 0.01956066 -0.01519541 0.00566303 0.11764706 0.63921569 0.14117647
v -0.01772815 -0.01527528 0.00580620 0.11764706 0.63921569 0.14117647
v -0.03404791 -0.01531052 0.00586956 0.11764706 0.63921569 0.14117647
v -0.03404791 -0.01453294 0.00474539 0.11764706 0.63921569 0.14117647
v 0.01956066 -0.01582499 0.00722490 0.11764706 0.63921569 0.14117647
v 0.01956066 -0.01520011 0.00567360 0.11764706 0.63921569 0.14117647
f 1 2 8
f 1 8 13
f 1 13 19
f 1 19 25
f 1 25 31
f 1 31 37
f 1 37 44
f 1 44 49
f 1 49 58
f 1 58 57
f 1 57 63
f 1 63 68
f 1 68 74
f 1 74 80
f 1 80 87
f 1 87 94
f 1 94 103
f 1 103 102
f 1 102 112
f 1 112 111
f 1 111 109
f 1 109 118
f 1 118 124
f 1 124 130
f 1 130 129
f 1 129 137
f 1 137 136
f 1 136 131
f 1 131 125
f 1 125 119
f 1 119 113
f 1 113 104
f 1 104 97
f 1 97 96
f 1 96 95
f 1 95 88
f 1 88 81
f 1 81 75
f 1 75 69
f 1 69 64
f 1 64 59
f 1 59 52
f 1 52 51
f 1 51 50
f 1 50 45
f 1 45 39
f 1 39 34
f 1 34 28
f 1 28 23
f 1 23 17
f 1 17 15
f 1 15 9
f 1 9 3
f 1 3 4
f 1 4 5
f 1 5 6
f 1 6 7
f 1 7 2
f 2 7 8
f 3 9 10
f 3 10 11
f 3 11 4
f 4 11 16
f 4 16 22
f 4 22 27
f 4 27 33
f 4 33 41
f 4 41 47
f 4 47 54
f 4 54 60
f 4 60 65
f 4 65 71
f 4 71 77
f 4 77 84
f 4 84 91
f 4 91 90
f 4 90 99
f 4 99 98
f 4 98 107
f 4 107 115
f 4 115 121
f 4 121 120
f 4 120 126
f 4 126 133
f 4 133 138
f 4 138 139
f 4 139 134
f 4 134 127
f 4 127 122
f 4 122 116
f 4 116 108
f 4 108 100
f 4 100 92
f 4 92 85
f 4 85 78
f 4 78 72
f 4 72 66
f 4 66 61
f 4 61 55
f 4 55 48
f 4 48 42
f 4 42 35
f 4 35 29
f 4 29 24
f 4 24 18
f 4 18 12
f 4 12 6
f 4 6 5
f 6 12 7
f 7 12 8
f 8 12 14
f 8 14 13
f 9 15 10
f 10 15 11
f 11 15 17
f 11 17 16
f 12 18 14
f 13 14 18
f 13 18 20
f 13 20 19
f 16 21 22
f 16 17 21
f 17 23 21
f 18 24 20
f 19 20 26
f 19 26 25
f 20 24 26
f 21 27 22
f 21 23 28
f 21 28 27
f 24 29 30
f 24 30 26
f 25 26 30
f 25 30 31
f 27 28 32
f 27 32 33
f 28 34 32
f 29 35 30
f 30 36 31
f 30 35 36
f 31 36 37
f 32 38 33
f 32 34 39
f 32 39 38
f 33 38 40
f 33 40 41
f 35 42 36
f 36 43 44
f 36 44 37
f 36 42 43
f 38 39 40
f 39 45 40
f 40 45 46
f 40 46 47
f 40 47 41
f 42 48 43
f 43 48 49
f 43 49 44
f 45 50 46
f 46 50 51
f 46 51 52
f 46 52 53
f 46 53 54
f 46 54 47
f 48 55 56
f 48 56 57
f 48 57 58
f 48 58 49
f 52 59 60
f 52 60 53
f 53 60 54
f 55 61 62
f 55 62 56
f 56 62 57
f 57 62 63
f 59 64 60
f 60 64 65
f 61 66 62
f 62 67 68
f 62 68 63
f 62 66 67
f 64 69 70
f 64 70 71
f 64 71 65
f 66 72 73
f 66 73 67
f 67 73 68
f 68 73 74
f 69 75 76
f 69 76 70
f 70 76 77
f 70 77 71
f 72 78 86
f 72 86 79
f 72 79 73
f 73 79 80
f 73 80 74
f 75 81 82
f 75 82 83
f 75 83 76
f 76 83 77
f 77 83 84
f 78 85 86
f 79 86 94
f 79 94 87
f 79 87 80
f 81 88 82
f 82 89 99
f 82 99 90
f 82 90 91
f 82 91 83
f 82 88 89
f 83 91 84
f 85 92 93
f 85 93 86
f 86 93 94
f 88 95 89
f 89 95 96
f 89 96 97
f 89 97 98
f 89 98 99
f 92 100 101
f 92 101 93
f 93 101 102
f 93 102 103
f 93 103 94
f 97 104 105
f 97 105 106
f 97 106 107
f 97 107 98
f 100 108 109
f 100 109 110
f 100 110 101
f 101 110 111
f 101 111 112
f 101 112 102
f 104 113 105
f 105 114 115
f 105 115 106
f 105 113 114
f 106 115 107
f 108 116 117
f 108 117 109
f 109 117 118
f 109 111 110
f 113 119 114
f 114 119 120
f 114 120 121
f 114 121 115
f 116 122 117
f 117 123 124
f 117 124 118
f 117 122 123
f 119 125 126
f 119 126 120
f 122 127 128
f 122 128 123
f 123 128 129
f 123 129 130
f 123 130 124
f 125 131 132
f 125 132 133
f 125 133 126
f 127 134 135
f 127 135 136
f 127 136 128
f 128 136 137
f 128 137 129
f 131 136 132
f 132 136 138
f 132 138 133
f 134 139 135
f 135 139 136
f 136 139 138