# https://github.com/mikedh/trimesh
v 0.02499990 0.01346149 0.00265565 0.77647059 0.86666667 0.97647059
v 0.02502955 0.00083546 -0.00271908 0.77647059 0.86666667 0.97647059
v 0.02502955 0.00224802 -0.00309779 0.77647059 0.86666667 0.97647059
v 0.02502955 0.00352617 -0.00380789 0.77647059 0.86666667 0.97647059
v 0.02502955 0.00459612 -0.00480540 0.77647059 0.86666667 0.97647059
v 0.02502955 0.00539200 -0.00602946 0.77647059 0.86666667 0.97647059
v 0.02502955 0.00586637 -0.00741245 0.77647059 0.86666667 0.97647059
v 0.02502955 0.00599550 -0.00886983 0.77647059 0.86666667 0.97647059
v 0.02502955 0.00576623 -0.01031369 0.77647059 0.86666667 0.97647059
v 0.02502955 0.00519435 -0.01165948 0.77647059 0.86666667 0.97647059
v 0.02000046 0.01346149 0.00265565 0.77647059 0.86666667 0.97647059
v 0.02499990 -0.01346139 0.00265565 0.77647059 0.86666667 0.97647059
v 0.02502955 -0.00062453 -0.00269372 0.77647059 0.86666667 0.97647059
v 0.02502955 0.00513110 -0.01174909 0.77647059 0.86666667 0.97647059
v 0.01998168 0.00519435 -0.01165948 0.77647059 0.86666667 0.97647059
v 0.01998168 0.00576623 -0.01031369 0.77647059 0.86666667 0.97647059
v 0.01998168 0.00599550 -0.00886814 0.77647059 0.86666667 0.97647059
v 0.01998168 0.00586637 -0.00741245 0.77647059 0.86666667 0.97647059
v 0.01998168 0.00539200 -0.00602946 0.77647059 0.86666667 0.97647059
v 0.01998168 0.00459612 -0.00480371 0.77647059 0.86666667 0.97647059
v 0.01998168 0.00352617 -0.00380619 0.77647059 0.86666667 0.97647059
v 0.01998168 0.00224538 -0.00309779 0.77647059 0.86666667 0.97647059
v 0.01998168 0.00083546 -0.00271908 0.77647059 0.86666667 0.97647059
v 0.01998168 -0.00062453 -0.00269372 0.77647059 0.86666667 0.97647059
v 0.02000046 -0.01346139 0.00265565 0.77647059 0.86666667 0.97647059
v 0.02502955 -0.00519425 -0.01165948 0.77647059 0.86666667 0.97647059
v 0.02502955 -0.00563699 -0.01071100 0.77647059 0.86666667 0.97647059
v 0.02502955 -0.00590843 -0.00969996 0.77647059 0.86666667 0.97647059
v 0.02502955 -0.00599804 -0.00866019 0.77647059 0.86666667 0.97647059
v 0.02502955 -0.00581883 -0.00720788 0.77647059 0.86666667 0.97647059
v 0.02502955 -0.00529703 -0.00584348 0.77647059 0.86666667 0.97647059
v 0.02502955 -0.00445635 -0.00464647 0.77647059 0.86666667 0.97647059
v 0.02502955 -0.00335213 -0.00368616 0.77647059 0.86666667 0.97647059
v 0.02502955 -0.00205026 -0.00302340 0.77647059 0.86666667 0.97647059
v 0.01998168 0.00505468 -0.01185391 0.77647059 0.86666667 0.97647059
v 0.02502955 0.00449071 -0.01263839 0.77647059 0.86666667 0.97647059
v 0.01998168 0.00449071 -0.01263839 0.77647059 0.86666667 0.97647059
v 0.01998168 -0.00205026 -0.00302340 0.77647059 0.86666667 0.97647059
v 0.01998168 -0.00335213 -0.00368616 0.77647059 0.86666667 0.97647059
v 0.01998168 -0.00445635 -0.00464647 0.77647059 0.86666667 0.97647059
v 0.01998168 -0.00529703 -0.00584348 0.77647059 0.86666667 0.97647059
v 0.01998168 -0.00582147 -0.00720788 0.77647059 0.86666667 0.97647059
v 0.01998168 -0.00599804 -0.00866019 0.77647059 0.86666667 0.97647059
v 0.01998168 -0.00590843 -0.00970166 0.77647059 0.86666667 0.97647059
v 0.01998168 -0.00563699 -0.01071100 0.77647059 0.86666667 0.97647059
v 0.01998168 -0.00519425 -0.01165948 0.77647059 0.86666667 0.97647059
v 0.02502955 -0.00513100 -0.01174909 0.77647059 0.86666667 0.97647059
v 0.02502955 0.00340758 -0.01359702 0.77647059 0.86666667 0.97647059
v 0.01998168 0.00340758 -0.01359702 0.77647059 0.86666667 0.97647059
v 0.01998168 -0.00508093 -0.01181841 0.77647059 0.86666667 0.97647059
v 0.02502955 -0.00449061 -0.01263839 0.77647059 0.86666667 0.97647059
v 0.01998168 -0.00449061 -0.01263839 0.77647059 0.86666667 0.97647059
v 0.02502955 0.00282516 -0.01390304 0.77647059 0.86666667 0.97647059
v 0.01998168 0.00212679 -0.01426992 0.77647059 0.86666667 0.97647059
v 0.02502955 -0.00349971 -0.01351587 0.77647059 0.86666667 0.97647059
v 0.01998168 -0.00340747 -0.01359702 0.77647059 0.86666667 0.97647059
v 0.02502955 0.00212679 -0.01426992 0.77647059 0.86666667 0.97647059
v 0.01998168 0.00072214 -0.01461651 0.77647059 0.86666667 0.97647059
v 0.02502955 -0.00340747 -0.01359702 0.77647059 0.86666667 0.97647059
v 0.01998168 -0.00212669 -0.01426992 0.77647059 0.86666667 0.97647059
v 0.02502955 -0.00282506 -0.01390304 0.77647059 0.86666667 0.97647059
v 0.02502955 0.00072214 -0.01461651 0.77647059 0.86666667 0.97647059
v 0.01998168 -0.00072204 -0.01461651 0.77647059 0.86666667 0.97647059
v 0.02502955 -0.00212669 -0.01426992 0.77647059 0.86666667 0.97647059
v 0.02502955 -0.00072204 -0.01461651 0.77647059 0.86666667 0.97647059
f 1 2 3
f 1 3 4
f 1 4 5
f 1 5 6
f 1 6 7
f 1 7 8
f 1 8 9
f 1 9 10
f 1 10 15
f 1 15 11
f 1 11 25
f 1 25 12
f 1 12 13
f 1 13 2
f 2 13 34
f 2 34 33
f 2 33 32
f 2 32 31
f 2 31 30
f 2 30 29
f 2 29 28
f 2 28 27
f 2 27 26
f 2 26 47
f 2 47 51
f 2 51 55
f 2 55 59
f 2 59 61
f 2 61 64
f 2 64 65
f 2 65 62
f 2 62 57
f 2 57 53
f 2 53 48
f 2 48 36
f 2 36 14
f 2 14 10
f 2 10 9
f 2 9 8
f 2 8 7
f 2 7 6
f 2 6 5
f 2 5 4
f 2 4 3
f 10 14 15
f 11 15 16
f 11 16 17
f 11 17 18
f 11 18 19
f 11 19 20
f 11 20 21
f 11 21 22
f 11 22 23
f 11 23 24
f 11 24 25
f 12 25 46
f 12 46 26
f 12 26 27
f 12 27 28
f 12 28 29
f 12 29 30
f 12 30 31
f 12 31 32
f 12 32 33
f 12 33 34
f 12 34 13
f 14 35 15
f 14 36 37
f 14 37 35
f 15 35 37
f 15 37 49
f 15 49 54
f 15 54 58
f 15 58 63
f 15 63 60
f 15 60 56
f 15 56 52
f 15 52 50
f 15 50 46
f 15 46 45
f 15 45 44
f 15 44 43
f 15 43 42
f 15 42 41
f 15 41 40
f 15 40 39
f 15 39 38
f 15 38 24
f 15 24 23
f 15 23 22
f 15 22 21
f 15 21 20
f 15 20 19
f 15 19 18
f 15 18 17
f 15 17 16
f 24 38 25
f 25 38 39
f 25 39 40
f 25 40 41
f 25 41 42
f 25 42 43
f 25 43 44
f 25 44 45
f 25 45 46
f 26 46 47
f 36 48 49
f 36 49 37
f 46 50 47
f 47 50 52
f 47 52 51
f 48 53 49
f 49 53 54
f 51 52 55
f 52 56 55
f 53 57 54
f 54 57 62
f 54 62 58
f 55 56 59
f 56 60 61
f 56 61 59
f 58 62 65
f 58 65 63
f 60 63 65
f 60 65 64
f 60 64 61