# https://github.com/mikedh/trimesh
v -0.03500196 0.01999609 0.01565738 0.54509804 0.71372549 0.60000000
v -0.03500196 0.01999609 -0.00041646 0.54509804 0.71372549 0.60000000
v -0.07500000 0.01999609 0.01565738 0.54509804 0.71372549 0.60000000
v -0.03500196 0.01992169 0.01632590 0.54509804 0.71372549 0.60000000
v -0.03404791 0.01599843 0.00865795 0.54509804 0.71372549 0.60000000
v -0.03500196 0.01994127 -0.00100096 0.54509804 0.71372549 0.60000000
v -0.07500000 0.01999609 -0.00041646 0.54509804 0.71372549 0.60000000
v -0.03404791 0.01599843 0.00864699 0.54509804 0.71372549 0.60000000
v -0.07500000 0.01992169 0.01632590 0.54509804 0.71372549 0.60000000
v -0.03500196 0.01970243 0.01696155 0.54509804 0.71372549 0.60000000
v -0.03404791 0.01582616 0.01008268 0.54509804 0.71372549 0.60000000
v -0.03404791 0.01599060 0.00872371 0.54509804 0.71372549 0.60000000
v -0.03500196 0.01976899 -0.00156355 0.54509804 0.71372549 0.60000000
v -0.07500000 0.01994127 -0.00100096 0.54509804 0.71372549 0.60000000
v -0.03404791 0.01582224 0.00722227 0.54509804 0.71372549 0.60000000
v -0.07500000 0.01970243 0.01696155 0.54509804 0.71372549 0.60000000
v -0.03500196 0.01934221 0.01752779 0.54509804 0.71372549 0.60000000
v -0.03404791 0.01530540 0.01145626 0.54509804 0.71372549 0.60000000
v -0.03404791 0.01531715 0.01143434 0.54509804 0.71372549 0.60000000
v -0.03404791 0.01582224 0.01009364 0.54509804 0.71372549 0.60000000
v -0.03500196 0.01949100 -0.00208229 0.54509804 0.71372549 0.60000000
v -0.07500000 0.01976899 -0.00156355 0.54509804 0.71372549 0.60000000
v -0.03404791 0.01581441 0.00719669 0.54509804 0.71372549 0.60000000
v -0.03404791 0.01530932 0.00586695 0.54509804 0.71372549 0.60000000
v -0.07500000 0.01934221 0.01752779 0.54509804 0.71372549 0.60000000
v -0.03500196 0.01886844 0.01800269 0.54509804 0.71372549 0.60000000
v -0.03404791 0.01449100 0.01263623 0.54509804 0.71372549 0.60000000
v -0.03500196 0.01911903 -0.00253528 0.54509804 0.71372549 0.60000000
v -0.07500000 0.01949100 -0.00208229 0.54509804 0.71372549 0.60000000
v -0.03404791 0.00530932 -0.01144895 0.54509804 0.71372549 0.60000000
v -0.03404791 0.00450274 -0.01262161 0.54509804 0.71372549 0.60000000
v -0.03404791 0.00449099 -0.01263623 0.54509804 0.71372549 0.60000000
v -0.07500000 0.01886844 0.01800269 0.54509804 0.71372549 0.60000000
v -0.03500196 0.01830071 0.01836070 0.54509804 0.71372549 0.60000000
v -0.03404791 0.01340642 0.01359700 0.54509804 0.71372549 0.60000000
v -0.03404791 0.01447925 0.01264719 0.54509804 0.71372549 0.60000000
v -0.03500196 0.00387627 -0.01777985 0.54509804 0.71372549 0.60000000
v -0.07500000 0.01911903 -0.00253528 0.54509804 0.71372549 0.60000000
v -0.03404791 0.00447925 -0.01264719 0.54509804 0.71372549 0.60000000
v -0.07500000 0.01830071 0.01836070 0.54509804 0.71372549 0.60000000
v -0.03500196 0.01766641 0.01858354 0.54509804 0.71372549 0.60000000
v -0.03404791 0.01212608 0.01426918 0.54509804 0.71372549 0.60000000
v -0.03500196 0.00342208 -0.01815247 0.54509804 0.71372549 0.60000000
v -0.07500000 0.00387627 -0.01777985 0.54509804 0.71372549 0.60000000
v -0.03404791 0.00345732 -0.01355317 0.54509804 0.71372549 0.60000000
v -0.03404791 0.00340642 -0.01359700 0.54509804 0.71372549 0.60000000
v -0.07500000 0.01766641 0.01858354 0.54509804 0.71372549 0.60000000
v -0.03500196 0.01699687 0.01866026 0.54509804 0.71372549 0.60000000
v -0.03404791 0.01072044 0.01461623 0.54509804 0.71372549 0.60000000
v -0.03500196 0.00290525 -0.01843011 0.54509804 0.71372549 0.60000000
v -0.07500000 0.00342208 -0.01815247 0.54509804 0.71372549 0.60000000
v -0.03404791 0.00219655 -0.01423265 0.54509804 0.71372549 0.60000000
v -0.07500000 0.01699687 0.01866026 0.54509804 0.71372549 0.60000000
v -0.03500196 -0.01699687 0.01866026 0.54509804 0.71372549 0.60000000
v -0.03404791 -0.01072044 0.01461623 0.54509804 0.71372549 0.60000000
v -0.03500196 0.00234143 -0.01860181 0.54509804 0.71372549 0.60000000
v -0.07500000 0.00290525 -0.01843011 0.54509804 0.71372549 0.60000000
v -0.03404791 0.00212608 -0.01426918 0.54509804 0.71372549 0.60000000
v -0.07500000 -0.01699687 0.01866026 0.54509804 0.71372549 0.60000000
v -0.03500196 -0.01766641 0.01858354 0.54509804 0.71372549 0.60000000
v -0.03404791 -0.01212608 0.01426918 0.54509804 0.71372549 0.60000000
v -0.03500196 0.00175411 -0.01866026 0.54509804 0.71372549 0.60000000
v -0.07500000 0.00234143 -0.01860181 0.54509804 0.71372549 0.60000000
v -0.03404791 0.00072044 -0.01461623 0.54509804 0.71372549 0.60000000
v -0.07500000 -0.01766641 0.01858354 0.54509804 0.71372549 0.60000000
v -0.03500196 -0.01830071 0.01836070 0.54509804 0.71372549 0.60000000
v -0.03404791 -0.01219656 0.01423265 0.54509804 0.71372549 0.60000000
v -0.03500196 -0.00175411 -0.01866026 0.54509804 0.71372549 0.60000000
v -0.07500000 0.00175411 -0.01866026 0.54509804 0.71372549 0.60000000
v -0.03404791 -0.00072044 -0.01461623 0.54509804 0.71372549 0.60000000
v -0.07500000 -0.01830071 0.01836070 0.54509804 0.71372549 0.60000000
v -0.03500196 -0.01886844 0.01800269 0.54509804 0.71372549 0.60000000
v -0.03404791 -0.01340642 0.01359700 0.54509804 0.71372549 0.60000000
v -0.03500196 -0.00234143 -0.01860181 0.54509804 0.71372549 0.60000000
v -0.07500000 -0.00175411 -0.01866026 0.54509804 0.71372549 0.60000000
v -0.03404791 -0.00211433 -0.01427283 0.54509804 0.71372549 0.60000000
v -0.07500000 -0.01886844 0.01800269 0.54509804 0.71372549 0.60000000
v -0.03500196 -0.01934221 0.01752779 0.54509804 0.71372549 0.60000000
v -0.03404791 -0.01449100 0.01263623 0.54509804 0.71372549 0.60000000
v -0.03404791 -0.01447925 0.01264719 0.54509804 0.71372549 0.60000000
v -0.03404791 -0.01345732 0.01355317 0.54509804 0.71372549 0.60000000
v -0.03500196 -0.00290525 -0.01843011 0.54509804 0.71372549 0.60000000
v -0.07500000 -0.00234143 -0.01860181 0.54509804 0.71372549 0.60000000
v -0.03404791 -0.00212608 -0.01426918 0.54509804 0.71372549 0.60000000
v -0.07500000 -0.01934221 0.01752779 0.54509804 0.71372549 0.60000000
v -0.03500196 -0.01970243 0.01696155 0.54509804 0.71372549 0.60000000
v -0.03404791 -0.01530932 0.01144530 0.54509804 0.71372549 0.60000000
v -0.03500196 -0.00342208 -0.01815247 0.54509804 0.71372549 0.60000000
v -0.07500000 -0.00290525 -0.01843011 0.54509804 0.71372549 0.60000000
v -0.03404791 -0.00340642 -0.01359700 0.54509804 0.71372549 0.60000000
v -0.07500000 -0.01970243 0.01696155 0.54509804 0.71372549 0.60000000
v -0.03500196 -0.01992169 0.01632590 0.54509804 0.71372549 0.60000000
v -0.03404791 -0.01582616 0.01008268 0.54509804 0.71372549 0.60000000
v -0.03404791 -0.01582224 0.01009364 0.54509804 0.71372549 0.60000000
v -0.03404791 -0.01534064 0.01137224 0.54509804 0.71372549 0.60000000
v -0.03500196 -0.00387627 -0.01777985 0.54509804 0.71372549 0.60000000
v -0.07500000 -0.00342208 -0.01815247 0.54509804 0.71372549 0.60000000
v -0.03404791 -0.00449099 -0.01263623 0.54509804 0.71372549 0.60000000
v -0.07500000 -0.01992169 0.01632590 0.54509804 0.71372549 0.60000000
v -0.03500196 -0.01999609 0.01565738 0.54509804 0.71372549 0.60000000
v -0.03404791 -0.01599843 0.00865795 0.54509804 0.71372549 0.60000000
v -0.03500196 -0.01911903 -0.00253528 0.54509804 0.71372549 0.60000000
v -0.07500000 -0.00387627 -0.01777985 0.54509804 0.71372549 0.60000000
v -0.03404791 -0.00450274 -0.01262161 0.54509804 0.71372549 0.60000000
v -0.03500196 -0.01949100 -0.00208229 0.54509804 0.71372549 0.60000000
v -0.07500000 -0.01999609 0.01565738 0.54509804 0.71372549 0.60000000
v -0.03500196 -0.01999609 -0.00041646 0.54509804 0.71372549 0.60000000
v -0.03404791 -0.01599843 0.00864699 0.54509804 0.71372549 0.60000000
v -0.07500000 -0.01911903 -0.00253528 0.54509804 0.71372549 0.60000000
v -0.03404791 -0.00530932 -0.01144895 0.54509804 0.71372549 0.60000000
v -0.03404791 -0.01530932 0.00586695 0.54509804 0.71372549 0.60000000
v -0.03500196 -0.01976899 -0.00156355 0.54509804 0.71372549 0.60000000
v -0.07500000 -0.01949100 -0.00208229 0.54509804 0.71372549 0.60000000
v -0.07500000 -0.01999609 -0.00041646 0.54509804 0.71372549 0.60000000
v -0.03500196 -0.01994127 -0.00100096 0.54509804 0.71372549 0.60000000
v -0.03404791 -0.01582224 0.00722227 0.54509804 0.71372549 0.60000000
v -0.03404791 -0.01581441 0.00719669 0.54509804 0.71372549 0.60000000
v -0.07500000 -0.01976899 -0.00156355 0.54509804 0.71372549 0.60000000
v -0.07500000 -0.01994127 -0.00100096 0.54509804 0.71372549 0.60000000
f 1 2 7
f 1 7 3
f 1 3 9
f 1 9 4
f 1 4 5
f 1 5 8
f 1 8 2
f 2 6 14
f 2 14 7
f 2 8 6
f 3 7 14
f 3 14 22
f 3 22 29
f 3 29 38
f 3 38 44
f 3 44 51
f 3 51 57
f 3 57 63
f 3 63 69
f 3 69 75
f 3 75 83
f 3 83 89
f 3 89 97
f 3 97 103
f 3 103 109
f 3 109 113
f 3 113 118
f 3 118 119
f 3 119 114
f 3 114 106
f 3 106 99
f 3 99 91
f 3 91 85
f 3 85 77
f 3 77 71
f 3 71 65
f 3 65 59
f 3 59 53
f 3 53 47
f 3 47 40
f 3 40 33
f 3 33 25
f 3 25 16
f 3 16 9
f 4 9 16
f 4 16 10
f 4 10 11
f 4 11 12
f 4 12 5
f 5 12 11
f 5 11 20
f 5 20 19
f 5 19 18
f 5 18 27
f 5 27 36
f 5 36 35
f 5 35 42
f 5 42 49
f 5 49 55
f 5 55 61
f 5 61 67
f 5 67 73
f 5 73 81
f 5 81 80
f 5 80 79
f 5 79 87
f 5 87 95
f 5 95 94
f 5 94 93
f 5 93 101
f 5 101 108
f 5 108 116
f 5 116 117
f 5 117 111
f 5 111 110
f 5 110 104
f 5 104 98
f 5 98 90
f 5 90 84
f 5 84 76
f 5 76 70
f 5 70 64
f 5 64 58
f 5 58 52
f 5 52 46
f 5 46 45
f 5 45 39
f 5 39 32
f 5 32 31
f 5 31 30
f 5 30 24
f 5 24 23
f 5 23 15
f 5 15 8
f 6 13 22
f 6 22 14
f 6 8 15
f 6 15 23
f 6 23 13
f 10 16 25
f 10 25 17
f 10 17 18
f 10 18 19
f 10 19 20
f 10 20 11
f 13 21 29
f 13 29 22
f 13 23 24
f 13 24 21
f 17 25 33
f 17 33 26
f 17 26 27
f 17 27 18
f 21 28 38
f 21 38 29
f 21 24 30
f 21 30 31
f 21 31 32
f 21 32 28
f 26 33 40
f 26 40 34
f 26 34 35
f 26 35 36
f 26 36 27
f 28 37 44
f 28 44 38
f 28 32 37
f 32 39 37
f 34 40 47
f 34 47 41
f 34 41 42
f 34 42 35
f 37 43 51
f 37 51 44
f 37 39 45
f 37 45 46
f 37 46 43
f 41 47 53
f 41 53 48
f 41 48 49
f 41 49 42
f 43 50 57
f 43 57 51
f 43 46 50
f 46 52 50
f 48 53 59
f 48 59 54
f 48 54 55
f 48 55 49
f 50 56 63
f 50 63 57
f 50 52 58
f 50 58 56
f 54 59 65
f 54 65 60
f 54 60 55
f 55 60 61
f 56 62 69
f 56 69 63
f 56 58 64
f 56 64 62
f 60 66 61
f 60 65 71
f 60 71 66
f 61 66 67
f 62 68 75
f 62 75 69
f 62 64 70
f 62 70 68
f 66 72 73
f 66 73 67
f 66 71 77
f 66 77 72
f 68 74 83
f 68 83 75
f 68 70 74
f 70 76 74
f 72 78 79
f 72 79 80
f 72 80 81
f 72 81 73
f 72 77 85
f 72 85 78
f 74 82 89
f 74 89 83
f 74 76 82
f 76 84 82
f 78 86 87
f 78 87 79
f 78 85 91
f 78 91 86
f 82 88 97
f 82 97 89
f 82 84 90
f 82 90 88
f 86 92 93
f 86 93 94
f 86 94 95
f 86 95 87
f 86 91 99
f 86 99 92
f 88 96 103
f 88 103 97
f 88 90 96
f 90 98 96
f 92 100 101
f 92 101 93
f 92 99 106
f 92 106 100
f 96 102 109
f 96 109 103
f 96 98 102
f 98 104 105
f 98 105 102
f 100 107 108
f 100 108 101
f 100 106 114
f 100 114 107
f 102 105 113
f 102 113 109
f 104 110 105
f 105 111 112
f 105 112 118
f 105 118 113
f 105 110 111
f 107 115 108
f 107 114 119
f 107 119 115
f 108 115 116
f 111 117 112
f 112 117 116
f 112 116 115
f 112 115 119
f 112 119 118