# https://github.com/mikedh/trimesh

o geometry_0
v -0.03500196 0.01999609 0.01565738 0.54509804 0.71372549 0.60000000
v -0.03500196 0.01999609 -0.00041646 0.54509804 0.71372549 0.60000000
v -0.07500000 0.01999609 0.01565738 0.54509804 0.71372549 0.60000000
v -0.03500196 0.01992169 0.01632590 0.54509804 0.71372549 0.60000000
v -0.03404791 0.01599843 0.00865795 0.54509804 0.71372549 0.60000000
v -0.03500196 0.01994127 -0.00100096 0.54509804 0.71372549 0.60000000
v -0.07500000 0.01999609 -0.00041646 0.54509804 0.71372549 0.60000000
v -0.03404791 0.01599843 0.00864699 0.54509804 0.71372549 0.60000000
v -0.07500000 0.01992169 0.01632590 0.54509804 0.71372549 0.60000000
v -0.03500196 0.01970243 0.01696155 0.54509804 0.71372549 0.60000000
v -0.03404791 0.01582616 0.01008268 0.54509804 0.71372549 0.60000000
v -0.03404791 0.01599060 0.00872371 0.54509804 0.71372549 0.60000000
v -0.03500196 0.01976899 -0.00156355 0.54509804 0.71372549 0.60000000
v -0.07500000 0.01994127 -0.00100096 0.54509804 0.71372549 0.60000000
v -0.03404791 0.01582224 0.00722227 0.54509804 0.71372549 0.60000000
v -0.07500000 0.01970243 0.01696155 0.54509804 0.71372549 0.60000000
v -0.03500196 0.01934221 0.01752779 0.54509804 0.71372549 0.60000000
v -0.03404791 0.01530540 0.01145626 0.54509804 0.71372549 0.60000000
v -0.03404791 0.01531715 0.01143434 0.54509804 0.71372549 0.60000000
v -0.03404791 0.01582224 0.01009364 0.54509804 0.71372549 0.60000000
v -0.03500196 0.01949100 -0.00208229 0.54509804 0.71372549 0.60000000
v -0.07500000 0.01976899 -0.00156355 0.54509804 0.71372549 0.60000000
v -0.03404791 0.01581441 0.00719669 0.54509804 0.71372549 0.60000000
v -0.03404791 0.01530932 0.00586695 0.54509804 0.71372549 0.60000000
v -0.07500000 0.01934221 0.01752779 0.54509804 0.71372549 0.60000000
v -0.03500196 0.01886844 0.01800269 0.54509804 0.71372549 0.60000000
v -0.03404791 0.01449100 0.01263623 0.54509804 0.71372549 0.60000000
v -0.03500196 0.01911903 -0.00253528 0.54509804 0.71372549 0.60000000
v -0.07500000 0.01949100 -0.00208229 0.54509804 0.71372549 0.60000000
v -0.03404791 0.00530932 -0.01144895 0.54509804 0.71372549 0.60000000
v -0.03404791 0.00450274 -0.01262161 0.54509804 0.71372549 0.60000000
v -0.03404791 0.00449099 -0.01263623 0.54509804 0.71372549 0.60000000
v -0.07500000 0.01886844 0.01800269 0.54509804 0.71372549 0.60000000
v -0.03500196 0.01830071 0.01836070 0.54509804 0.71372549 0.60000000
v -0.03404791 0.01340642 0.01359700 0.54509804 0.71372549 0.60000000
v -0.03404791 0.01447925 0.01264719 0.54509804 0.71372549 0.60000000
v -0.03500196 0.00387627 -0.01777985 0.54509804 0.71372549 0.60000000
v -0.07500000 0.01911903 -0.00253528 0.54509804 0.71372549 0.60000000
v -0.03404791 0.00447925 -0.01264719 0.54509804 0.71372549 0.60000000
v -0.07500000 0.01830071 0.01836070 0.54509804 0.71372549 0.60000000
v -0.03500196 0.01766641 0.01858354 0.54509804 0.71372549 0.60000000
v -0.03404791 0.01212608 0.01426918 0.54509804 0.71372549 0.60000000
v -0.03500196 0.00342208 -0.01815247 0.54509804 0.71372549 0.60000000
v -0.07500000 0.00387627 -0.01777985 0.54509804 0.71372549 0.60000000
v -0.03404791 0.00345732 -0.01355317 0.54509804 0.71372549 0.60000000
v -0.03404791 0.00340642 -0.01359700 0.54509804 0.71372549 0.60000000
v -0.07500000 0.01766641 0.01858354 0.54509804 0.71372549 0.60000000
v -0.03500196 0.01699687 0.01866026 0.54509804 0.71372549 0.60000000
v -0.03404791 0.01072044 0.01461623 0.54509804 0.71372549 0.60000000
v -0.03500196 0.00290525 -0.01843011 0.54509804 0.71372549 0.60000000
v -0.07500000 0.00342208 -0.01815247 0.54509804 0.71372549 0.60000000
v -0.03404791 0.00219655 -0.01423265 0.54509804 0.71372549 0.60000000
v -0.07500000 0.01699687 0.01866026 0.54509804 0.71372549 0.60000000
v -0.03500196 -0.01699687 0.01866026 0.54509804 0.71372549 0.60000000
v -0.03404791 -0.01072044 0.01461623 0.54509804 0.71372549 0.60000000
v -0.03500196 0.00234143 -0.01860181 0.54509804 0.71372549 0.60000000
v -0.07500000 0.00290525 -0.01843011 0.54509804 0.71372549 0.60000000
v -0.03404791 0.00212608 -0.01426918 0.54509804 0.71372549 0.60000000
v -0.07500000 -0.01699687 0.01866026 0.54509804 0.71372549 0.60000000
v -0.03500196 -0.01766641 0.01858354 0.54509804 0.71372549 0.60000000
v -0.03404791 -0.01212608 0.01426918 0.54509804 0.71372549 0.60000000
v -0.03500196 0.00175411 -0.01866026 0.54509804 0.71372549 0.60000000
v -0.07500000 0.00234143 -0.01860181 0.54509804 0.71372549 0.60000000
v -0.03404791 0.00072044 -0.01461623 0.54509804 0.71372549 0.60000000
v -0.07500000 -0.01766641 0.01858354 0.54509804 0.71372549 0.60000000
v -0.03500196 -0.01830071 0.01836070 0.54509804 0.71372549 0.60000000
v -0.03404791 -0.01219656 0.01423265 0.54509804 0.71372549 0.60000000
v -0.03500196 -0.00175411 -0.01866026 0.54509804 0.71372549 0.60000000
v -0.07500000 0.00175411 -0.01866026 0.54509804 0.71372549 0.60000000
v -0.03404791 -0.00072044 -0.01461623 0.54509804 0.71372549 0.60000000
v -0.07500000 -0.01830071 0.01836070 0.54509804 0.71372549 0.60000000
v -0.03500196 -0.01886844 0.01800269 0.54509804 0.71372549 0.60000000
v -0.03404791 -0.01340642 0.01359700 0.54509804 0.71372549 0.60000000
v -0.03500196 -0.00234143 -0.01860181 0.54509804 0.71372549 0.60000000
v -0.07500000 -0.00175411 -0.01866026 0.54509804 0.71372549 0.60000000
v -0.03404791 -0.00211433 -0.01427283 0.54509804 0.71372549 0.60000000
v -0.07500000 -0.01886844 0.01800269 0.54509804 0.71372549 0.60000000
v -0.03500196 -0.01934221 0.01752779 0.54509804 0.71372549 0.60000000
v -0.03404791 -0.01449100 0.01263623 0.54509804 0.71372549 0.60000000
v -0.03404791 -0.01447925 0.01264719 0.54509804 0.71372549 0.60000000
v -0.03404791 -0.01345732 0.01355317 0.54509804 0.71372549 0.60000000
v -0.03500196 -0.00290525 -0.01843011 0.54509804 0.71372549 0.60000000
v -0.07500000 -0.00234143 -0.01860181 0.54509804 0.71372549 0.60000000
v -0.03404791 -0.00212608 -0.01426918 0.54509804 0.71372549 0.60000000
v -0.07500000 -0.01934221 0.01752779 0.54509804 0.71372549 0.60000000
v -0.03500196 -0.01970243 0.01696155 0.54509804 0.71372549 0.60000000
v -0.03404791 -0.01530932 0.01144530 0.54509804 0.71372549 0.60000000
v -0.03500196 -0.00342208 -0.01815247 0.54509804 0.71372549 0.60000000
v -0.07500000 -0.00290525 -0.01843011 0.54509804 0.71372549 0.60000000
v -0.03404791 -0.00340642 -0.01359700 0.54509804 0.71372549 0.60000000
v -0.07500000 -0.01970243 0.01696155 0.54509804 0.71372549 0.60000000
v -0.03500196 -0.01992169 0.01632590 0.54509804 0.71372549 0.60000000
v -0.03404791 -0.01582616 0.01008268 0.54509804 0.71372549 0.60000000
v -0.03404791 -0.01582224 0.01009364 0.54509804 0.71372549 0.60000000
v -0.03404791 -0.01534064 0.01137224 0.54509804 0.71372549 0.60000000
v -0.03500196 -0.00387627 -0.01777985 0.54509804 0.71372549 0.60000000
v -0.07500000 -0.00342208 -0.01815247 0.54509804 0.71372549 0.60000000
v -0.03404791 -0.00449099 -0.01263623 0.54509804 0.71372549 0.60000000
v -0.07500000 -0.01992169 0.01632590 0.54509804 0.71372549 0.60000000
v -0.03500196 -0.01999609 0.01565738 0.54509804 0.71372549 0.60000000
v -0.03404791 -0.01599843 0.00865795 0.54509804 0.71372549 0.60000000
v -0.03500196 -0.01911903 -0.00253528 0.54509804 0.71372549 0.60000000
v -0.07500000 -0.00387627 -0.01777985 0.54509804 0.71372549 0.60000000
v -0.03404791 -0.00450274 -0.01262161 0.54509804 0.71372549 0.60000000
v -0.03500196 -0.01949100 -0.00208229 0.54509804 0.71372549 0.60000000
v -0.07500000 -0.01999609 0.01565738 0.54509804 0.71372549 0.60000000
v -0.03500196 -0.01999609 -0.00041646 0.54509804 0.71372549 0.60000000
v -0.03404791 -0.01599843 0.00864699 0.54509804 0.71372549 0.60000000
v -0.07500000 -0.01911903 -0.00253528 0.54509804 0.71372549 0.60000000
v -0.03404791 -0.00530932 -0.01144895 0.54509804 0.71372549 0.60000000
v -0.03404791 -0.01530932 0.00586695 0.54509804 0.71372549 0.60000000
v -0.03500196 -0.01976899 -0.00156355 0.54509804 0.71372549 0.60000000
v -0.07500000 -0.01949100 -0.00208229 0.54509804 0.71372549 0.60000000
v -0.07500000 -0.01999609 -0.00041646 0.54509804 0.71372549 0.60000000
v -0.03500196 -0.01994127 -0.00100096 0.54509804 0.71372549 0.60000000
v -0.03404791 -0.01582224 0.00722227 0.54509804 0.71372549 0.60000000
v -0.03404791 -0.01581441 0.00719669 0.54509804 0.71372549 0.60000000
v -0.07500000 -0.01976899 -0.00156355 0.54509804 0.71372549 0.60000000
v -0.07500000 -0.01994127 -0.00100096 0.54509804 0.71372549 0.60000000
f 1 2 7
f 1 7 3
f 1 3 9
f 1 9 4
f 1 4 5
f 1 5 8
f 1 8 2
f 2 6 14
f 2 14 7
f 2 8 6
f 3 7 14
f 3 14 22
f 3 22 29
f 3 29 38
f 3 38 44
f 3 44 51
f 3 51 57
f 3 57 63
f 3 63 69
f 3 69 75
f 3 75 83
f 3 83 89
f 3 89 97
f 3 97 103
f 3 103 109
f 3 109 113
f 3 113 118
f 3 118 119
f 3 119 114
f 3 114 106
f 3 106 99
f 3 99 91
f 3 91 85
f 3 85 77
f 3 77 71
f 3 71 65
f 3 65 59
f 3 59 53
f 3 53 47
f 3 47 40
f 3 40 33
f 3 33 25
f 3 25 16
f 3 16 9
f 4 9 16
f 4 16 10
f 4 10 11
f 4 11 12
f 4 12 5
f 5 12 11
f 5 11 20
f 5 20 19
f 5 19 18
f 5 18 27
f 5 27 36
f 5 36 35
f 5 35 42
f 5 42 49
f 5 49 55
f 5 55 61
f 5 61 67
f 5 67 73
f 5 73 81
f 5 81 80
f 5 80 79
f 5 79 87
f 5 87 95
f 5 95 94
f 5 94 93
f 5 93 101
f 5 101 108
f 5 108 116
f 5 116 117
f 5 117 111
f 5 111 110
f 5 110 104
f 5 104 98
f 5 98 90
f 5 90 84
f 5 84 76
f 5 76 70
f 5 70 64
f 5 64 58
f 5 58 52
f 5 52 46
f 5 46 45
f 5 45 39
f 5 39 32
f 5 32 31
f 5 31 30
f 5 30 24
f 5 24 23
f 5 23 15
f 5 15 8
f 6 13 22
f 6 22 14
f 6 8 15
f 6 15 23
f 6 23 13
f 10 16 25
f 10 25 17
f 10 17 18
f 10 18 19
f 10 19 20
f 10 20 11
f 13 21 29
f 13 29 22
f 13 23 24
f 13 24 21
f 17 25 33
f 17 33 26
f 17 26 27
f 17 27 18
f 21 28 38
f 21 38 29
f 21 24 30
f 21 30 31
f 21 31 32
f 21 32 28
f 26 33 40
f 26 40 34
f 26 34 35
f 26 35 36
f 26 36 27
f 28 37 44
f 28 44 38
f 28 32 37
f 32 39 37
f 34 40 47
f 34 47 41
f 34 41 42
f 34 42 35
f 37 43 51
f 37 51 44
f 37 39 45
f 37 45 46
f 37 46 43
f 41 47 53
f 41 53 48
f 41 48 49
f 41 49 42
f 43 50 57
f 43 57 51
f 43 46 50
f 46 52 50
f 48 53 59
f 48 59 54
f 48 54 55
f 48 55 49
f 50 56 63
f 50 63 57
f 50 52 58
f 50 58 56
f 54 59 65
f 54 65 60
f 54 60 55
f 55 60 61
f 56 62 69
f 56 69 63
f 56 58 64
f 56 64 62
f 60 66 61
f 60 65 71
f 60 71 66
f 61 66 67
f 62 68 75
f 62 75 69
f 62 64 70
f 62 70 68
f 66 72 73
f 66 73 67
f 66 71 77
f 66 77 72
f 68 74 83
f 68 83 75
f 68 70 74
f 70 76 74
f 72 78 79
f 72 79 80
f 72 80 81
f 72 81 73
f 72 77 85
f 72 85 78
f 74 82 89
f 74 89 83
f 74 76 82
f 76 84 82
f 78 86 87
f 78 87 79
f 78 85 91
f 78 91 86
f 82 88 97
f 82 97 89
f 82 84 90
f 82 90 88
f 86 92 93
f 86 93 94
f 86 94 95
f 86 95 87
f 86 91 99
f 86 99 92
f 88 96 103
f 88 103 97
f 88 90 96
f 90 98 96
f 92 100 101
f 92 101 93
f 92 99 106
f 92 106 100
f 96 102 109
f 96 109 103
f 96 98 102
f 98 104 105
f 98 105 102
f 100 107 108
f 100 108 101
f 100 106 114
f 100 114 107
f 102 105 113
f 102 113 109
f 104 110 105
f 105 111 112
f 105 112 118
f 105 118 113
f 105 110 111
f 107 115 108
f 107 114 119
f 107 119 115
f 108 115 116
f 111 117 112
f 112 117 116
f 112 116 115
f 112 115 119
f 112 119 118

o geometry_1
v 0.07499511 0.00600000 -0.00865949 0.54117647 0.42352941 0.64313725
v 0.07499511 0.00582498 -0.00722509 0.54117647 0.42352941 0.64313725
v 0.07499511 0.00582498 -0.01009505 0.54117647 0.42352941 0.64313725
v 0.02503005 0.00599530 -0.00886957 0.54117647 0.42352941 0.64313725
v 0.02503005 0.00586844 -0.00741416 0.54117647 0.42352941 0.64313725
v 0.02503005 0.00539272 -0.00603111 0.54117647 0.42352941 0.64313725
v 0.07499511 0.00531167 -0.00587238 0.54117647 0.42352941 0.64313725
v 0.07499511 0.00531167 -0.01144776 0.54117647 0.42352941 0.64313725
v 0.02503005 0.00576625 -0.01031447 0.54117647 0.42352941 0.64313725
v 0.02503005 0.00459632 -0.00480446 0.54117647 0.42352941 0.64313725
v 0.07499511 0.00449060 -0.00468191 0.54117647 0.42352941 0.64313725
v 0.07499511 0.00449060 -0.01263823 0.54117647 0.42352941 0.64313725
v 0.02503005 0.00519538 -0.01166017 0.54117647 0.42352941 0.64313725
v 0.02503005 0.00352623 -0.00380773 0.54117647 0.42352941 0.64313725
v 0.07499511 0.00340760 -0.00372253 0.54117647 0.42352941 0.64313725
v 0.07499511 0.00340760 -0.01359761 0.54117647 0.42352941 0.64313725
v 0.02503005 0.00389976 -0.01316227 0.54117647 0.42352941 0.64313725
v 0.02503005 0.00439898 -0.01271993 0.54117647 0.42352941 0.64313725
v 0.02503005 0.00449060 -0.01263823 0.54117647 0.42352941 0.64313725
v 0.02503005 0.00224824 -0.00309812 0.54117647 0.42352941 0.64313725
v 0.07499511 0.00212725 -0.00305027 0.54117647 0.42352941 0.64313725
v 0.07499511 0.00212725 -0.01426987 0.54117647 0.42352941 0.64313725
v 0.02503005 0.00282615 -0.01390340 0.54117647 0.42352941 0.64313725
v 0.02503005 0.00340760 -0.01359761 0.54117647 0.42352941 0.64313725
v 0.02503005 0.00083516 -0.00271997 0.54117647 0.42352941 0.64313725
v 0.07499511 0.00072240 -0.00270480 0.54117647 0.42352941 0.64313725
v 0.07499511 0.00072240 -0.01461534 0.54117647 0.42352941 0.64313725
v 0.02503005 0.00137079 -0.01445661 0.54117647 0.42352941 0.64313725
v 0.02503005 0.00148943 -0.01442744 0.54117647 0.42352941 0.64313725
v 0.02503005 0.00212725 -0.01426987 0.54117647 0.42352941 0.64313725
v 0.02503005 -0.00062608 -0.00269313 0.54117647 0.42352941 0.64313725
v 0.07499511 -0.00072240 -0.00270480 0.54117647 0.42352941 0.64313725
v 0.07499511 -0.00072240 -0.01461534 0.54117647 0.42352941 0.64313725
v 0.02503005 0.00072240 -0.01461534 0.54117647 0.42352941 0.64313725
v 0.02503005 -0.00205090 -0.00302226 0.54117647 0.42352941 0.64313725
v 0.07499511 -0.00212725 -0.00305027 0.54117647 0.42352941 0.64313725
v 0.07499511 -0.00212725 -0.01426987 0.54117647 0.42352941 0.64313725
v 0.02503005 -0.00136022 -0.01445895 0.54117647 0.42352941 0.64313725
v 0.02503005 -0.00072240 -0.01461534 0.54117647 0.42352941 0.64313725
v 0.02503005 -0.00335356 -0.00368635 0.54117647 0.42352941 0.64313725
v 0.07499511 -0.00340760 -0.00372253 0.54117647 0.42352941 0.64313725
v 0.07499511 -0.00340760 -0.01359761 0.54117647 0.42352941 0.64313725
v 0.02503005 -0.00282615 -0.01390340 0.54117647 0.42352941 0.64313725
v 0.02503005 -0.00212725 -0.01426987 0.54117647 0.42352941 0.64313725
v 0.02503005 -0.00147886 -0.01442977 0.54117647 0.42352941 0.64313725
v 0.02503005 -0.00445771 -0.00464573 0.54117647 0.42352941 0.64313725
v 0.07499511 -0.00449060 -0.00468191 0.54117647 0.42352941 0.64313725
v 0.07499511 -0.00449060 -0.01263823 0.54117647 0.42352941 0.64313725
v 0.02503005 -0.00340760 -0.01359761 0.54117647 0.42352941 0.64313725
v 0.02503005 -0.00529640 -0.00584321 0.54117647 0.42352941 0.64313725
v 0.07499511 -0.00531167 -0.00587238 0.54117647 0.42352941 0.64313725
v 0.07499511 -0.00531167 -0.01144776 0.54117647 0.42352941 0.64313725
v 0.02503005 -0.00519538 -0.01165901 0.54117647 0.42352941 0.64313725
v 0.02503005 -0.00513077 -0.01174888 0.54117647 0.42352941 0.64313725
v 0.02503005 -0.00449060 -0.01263823 0.54117647 0.42352941 0.64313725
v 0.02503005 -0.00582028 -0.00720875 0.54117647 0.42352941 0.64313725
v 0.07499511 -0.00582498 -0.00722509 0.54117647 0.42352941 0.64313725
v 0.07499511 -0.00582498 -0.01009505 0.54117647 0.42352941 0.64313725
v 0.02503005 -0.00563704 -0.01071130 0.54117647 0.42352941 0.64313725
v 0.02503005 -0.00600000 -0.00865949 0.54117647 0.42352941 0.64313725
v 0.07499511 -0.00600000 -0.00865949 0.54117647 0.42352941 0.64313725
v 0.02503005 -0.00590838 -0.00970057 0.54117647 0.42352941 0.64313725
f 120 121 126
f 120 126 130
f 120 130 134
f 120 134 140
f 120 140 145
f 120 145 151
f 120 151 155
f 120 155 160
f 120 160 166
f 120 166 170
f 120 170 176
f 120 176 180
f 120 180 177
f 120 177 171
f 120 171 167
f 120 167 161
f 120 161 156
f 120 156 152
f 120 152 146
f 120 146 141
f 120 141 135
f 120 135 131
f 120 131 127
f 120 127 122
f 120 122 123
f 120 123 124
f 120 124 121
f 121 124 125
f 121 125 126
f 122 127 128
f 122 128 123
f 123 128 132
f 123 132 138
f 123 138 137
f 123 137 136
f 123 136 143
f 123 143 142
f 123 142 149
f 123 149 148
f 123 148 147
f 123 147 153
f 123 153 158
f 123 158 157
f 123 157 164
f 123 164 163
f 123 163 162
f 123 162 168
f 123 168 174
f 123 174 173
f 123 173 172
f 123 172 178
f 123 178 181
f 123 181 179
f 123 179 175
f 123 175 169
f 123 169 165
f 123 165 159
f 123 159 154
f 123 154 150
f 123 150 144
f 123 144 139
f 123 139 133
f 123 133 129
f 123 129 125
f 123 125 124
f 125 129 126
f 126 129 130
f 127 131 132
f 127 132 128
f 129 133 130
f 130 133 134
f 131 135 136
f 131 136 137
f 131 137 138
f 131 138 132
f 133 139 134
f 134 139 140
f 135 141 142
f 135 142 143
f 135 143 136
f 139 144 140
f 140 144 145
f 141 146 147
f 141 147 148
f 141 148 149
f 141 149 142
f 144 150 145
f 145 150 151
f 146 152 158
f 146 158 153
f 146 153 147
f 150 154 151
f 151 154 155
f 152 156 157
f 152 157 158
f 154 159 155
f 155 159 160
f 156 161 162
f 156 162 163
f 156 163 164
f 156 164 157
f 159 165 160
f 160 165 166
f 161 167 174
f 161 174 168
f 161 168 162
f 165 169 166
f 166 169 170
f 167 171 172
f 167 172 173
f 167 173 174
f 169 175 170
f 170 175 176
f 171 177 178
f 171 178 172
f 175 179 176
f 176 179 180
f 177 180 181
f 177 181 178
f 179 181 180

o geometry_2
v -0.03404791 0.00599994 -0.00866299 0.43529412 0.89019608 0.96078431
v -0.03404791 0.00582844 -0.01007405 0.43529412 0.89019608 0.96078431
v -0.03404791 0.00599759 -0.00863964 0.43529412 0.89019608 0.96078431
v -0.01773220 0.00595883 -0.00826966 0.43529412 0.89019608 0.96078431
v -0.01773220 0.00599876 -0.00872368 0.43529412 0.89019608 0.96078431
v -0.01773220 0.00599876 -0.00872484 0.43529412 0.89019608 0.96078431
v -0.01773220 0.00587895 -0.00971107 0.43529412 0.89019608 0.96078431
v -0.03404791 0.00582374 -0.01009855 0.43529412 0.89019608 0.96078431
v 0.01998168 0.00576736 -0.01031331 0.43529412 0.89019608 0.96078431
v -0.01773220 0.00580730 -0.01016275 0.43529412 0.89019608 0.96078431
v -0.03404791 0.00582609 -0.00722859 0.43529412 0.89019608 0.96078431
v -0.01773220 0.00583901 -0.00728461 0.43529412 0.89019608 0.96078431
v 0.01998168 0.00586838 -0.00741416 0.43529412 0.89019608 0.96078431
v 0.01998168 0.00599524 -0.00886840 0.43529412 0.89019608 0.96078431
v -0.03404791 0.00533980 -0.01137656 0.43529412 0.89019608 0.96078431
v 0.01998168 0.00519532 -0.01165901 0.43529412 0.89019608 0.96078431
v -0.03404791 0.00531043 -0.01145126 0.43529412 0.89019608 0.96078431
v -0.01773220 0.00545491 -0.01109178 0.43529412 0.89019608 0.96078431
v -0.03404791 0.00581787 -0.00720408 0.43529412 0.89019608 0.96078431
v 0.01998168 0.00539148 -0.00603111 0.43529412 0.89019608 0.96078431
v 0.01998168 0.00449055 -0.01263706 0.43529412 0.89019608 0.96078431
v -0.01773220 0.00449055 -0.01263823 0.43529412 0.89019608 0.96078431
v -0.03404791 0.00449055 -0.01263823 0.43529412 0.89019608 0.96078431
v -0.03404791 0.00450229 -0.01262189 0.43529412 0.89019608 0.96078431
v -0.03404791 0.00453401 -0.01257637 0.43529412 0.89019608 0.96078431
v -0.03404791 0.00531396 -0.00587588 0.43529412 0.89019608 0.96078431
v -0.01773220 0.00533745 -0.00592257 0.43529412 0.89019608 0.96078431
v 0.01998168 0.00459509 -0.00480446 0.43529412 0.89019608 0.96078431
v 0.01998168 0.00438953 -0.01272810 0.43529412 0.89019608 0.96078431
v -0.03404791 0.00345806 -0.01355209 0.43529412 0.89019608 0.96078431
v -0.03404791 0.00529986 -0.00585488 0.43529412 0.89019608 0.96078431
v -0.01773220 0.00508726 -0.00553742 0.43529412 0.89019608 0.96078431
v 0.01998168 0.00352618 -0.00380656 0.43529412 0.89019608 0.96078431
v -0.01773220 0.00452344 -0.00472043 0.43529412 0.89019608 0.96078431
v 0.01998168 0.00340755 -0.01359644 0.43529412 0.89019608 0.96078431
v -0.03404791 0.00340755 -0.01359644 0.43529412 0.89019608 0.96078431
v -0.03404791 0.00449290 -0.00468541 0.43529412 0.89019608 0.96078431
v -0.01773220 0.00344513 -0.00374938 0.43529412 0.89019608 0.96078431
v -0.03404791 0.00338758 -0.00371203 0.43529412 0.89019608 0.96078431
v -0.01773220 0.00304341 -0.00352645 0.43529412 0.89019608 0.96078431
v 0.01998168 0.00224702 -0.00309812 0.43529412 0.89019608 0.96078431
v -0.03404791 0.00447410 -0.00466791 0.43529412 0.89019608 0.96078431
v 0.01998168 0.00264757 -0.01399677 0.43529412 0.89019608 0.96078431
v -0.03404791 0.00212721 -0.01426987 0.43529412 0.89019608 0.96078431
v -0.03404791 0.00340990 -0.00372487 0.43529412 0.89019608 0.96078431
v -0.03404791 0.00333942 -0.00368635 0.43529412 0.89019608 0.96078431
v -0.01773220 0.00216480 -0.00306544 0.43529412 0.89019608 0.96078431
v 0.01998168 0.00083395 -0.00271880 0.43529412 0.89019608 0.96078431
v 0.01998168 0.00212721 -0.01426987 0.43529412 0.89019608 0.96078431
v -0.03404791 0.00072236 -0.01461651 0.43529412 0.89019608 0.96078431
v -0.03404791 0.00212956 -0.00305260 0.43529412 0.89019608 0.96078431
v -0.03404791 0.00210489 -0.00304560 0.43529412 0.89019608 0.96078431
v -0.01773220 0.00172079 -0.00294639 0.43529412 0.89019608 0.96078431
v 0.01998168 -0.00062610 -0.00269312 0.43529412 0.89019608 0.96078431
v -0.01773220 0.00075760 -0.00270946 0.43529412 0.89019608 0.96078431
v -0.03404791 0.00069887 -0.00270479 0.43529412 0.89019608 0.96078431
v 0.01998168 0.00072236 -0.01461651 0.43529412 0.89019608 0.96078431
v -0.03404791 -0.00072125 -0.01461651 0.43529412 0.89019608 0.96078431
v -0.03404791 0.00072471 -0.00270596 0.43529412 0.89019608 0.96078431
v -0.01773220 -0.00069188 -0.00270129 0.43529412 0.89019608 0.96078431
v -0.01773220 -0.00113941 -0.00280400 0.43529412 0.89019608 0.96078431
v 0.01998168 -0.00205092 -0.00302225 0.43529412 0.89019608 0.96078431
v -0.03404791 -0.00072007 -0.00270479 0.43529412 0.89019608 0.96078431
v 0.01998168 -0.00072242 -0.01461651 0.43529412 0.89019608 0.96078431
v -0.03404791 -0.00212610 -0.01426987 0.43529412 0.89019608 0.96078431
v -0.01773220 -0.00072242 -0.01461651 0.43529412 0.89019608 0.96078431
v -0.03404791 -0.00074474 -0.00271063 0.43529412 0.89019608 0.96078431
v -0.03404791 -0.00079760 -0.00272347 0.43529412 0.89019608 0.96078431
v -0.03404791 -0.00212492 -0.00305143 0.43529412 0.89019608 0.96078431
v -0.01773220 -0.00210260 -0.00304209 0.43529412 0.89019608 0.96078431
v 0.01998168 -0.00335358 -0.00368635 0.43529412 0.89019608 0.96078431
v -0.01773220 -0.00251255 -0.00324984 0.43529412 0.89019608 0.96078431
v 0.01998168 -0.00155523 -0.01441110 0.43529412 0.89019608 0.96078431
v -0.03404791 -0.00334653 -0.01362795 0.43529412 0.89019608 0.96078431
v 0.01998168 -0.00212610 -0.01426987 0.43529412 0.89019608 0.96078431
v 0.01998168 -0.00276744 -0.01393374 0.43529412 0.89019608 0.96078431
v 0.01998168 -0.00289430 -0.01386721 0.43529412 0.89019608 0.96078431
v -0.01773220 -0.00340761 -0.01359644 0.43529412 0.89019608 0.96078431
v -0.03404791 -0.00219540 -0.00308761 0.43529412 0.89019608 0.96078431
v 0.01998168 -0.00445772 -0.00464573 0.43529412 0.89019608 0.96078431
v -0.01773220 -0.00339116 -0.00371203 0.43529412 0.89019608 0.96078431
v -0.03404791 -0.00340526 -0.00372253 0.43529412 0.89019608 0.96078431
v -0.03404791 -0.00340643 -0.01359644 0.43529412 0.89019608 0.96078431
v 0.01998168 -0.00340761 -0.01359644 0.43529412 0.89019608 0.96078431
v -0.01773220 -0.00357793 -0.01344705 0.43529412 0.89019608 0.96078431
v -0.03404791 -0.00341583 -0.01358827 0.43529412 0.89019608 0.96078431
v 0.01998168 -0.00342758 -0.01358010 0.43529412 0.89019608 0.96078431
v 0.01998168 -0.00529640 -0.00584320 0.43529412 0.89019608 0.96078431
v -0.01773220 -0.00373768 -0.00401315 0.43529412 0.89019608 0.96078431
v -0.01773220 -0.00448004 -0.00467024 0.43529412 0.89019608 0.96078431
v -0.03404791 -0.00342523 -0.00373887 0.43529412 0.89019608 0.96078431
v 0.01998168 -0.00449061 -0.01263706 0.43529412 0.89019608 0.96078431
v -0.01773220 -0.00448944 -0.01263823 0.43529412 0.89019608 0.96078431
v -0.03404791 -0.00448944 -0.01263823 0.43529412 0.89019608 0.96078431
v 0.01998168 -0.00582146 -0.00720874 0.43529412 0.89019608 0.96078431
v -0.03404791 -0.00450353 -0.00470292 0.43529412 0.89019608 0.96078431
v -0.03404791 -0.00531167 -0.00587238 0.43529412 0.89019608 0.96078431
v -0.03404791 -0.00448826 -0.00468191 0.43529412 0.89019608 0.96078431
v 0.01998168 -0.00462217 -0.01245616 0.43529412 0.89019608 0.96078431
v -0.01773220 -0.00449061 -0.01263706 0.43529412 0.89019608 0.96078431
v -0.03404791 -0.00450118 -0.01262189 0.43529412 0.89019608 0.96078431
v -0.01773220 -0.00471144 -0.01233127 0.43529412 0.89019608 0.96078431
v 0.01998168 -0.00600000 -0.00865949 0.43529412 0.89019608 0.96078431
v -0.01773220 -0.00582381 -0.00722042 0.43529412 0.89019608 0.96078431
v -0.03404791 -0.00582851 -0.00724959 0.43529412 0.89019608 0.96078431
v -0.03404791 -0.00582381 -0.00722508 0.43529412 0.89019608 0.96078431
v 0.01998168 -0.00519538 -0.01165901 0.43529412 0.89019608 0.96078431
v -0.03404791 -0.00453290 -0.01257637 0.43529412 0.89019608 0.96078431
v -0.03404791 -0.00531050 -0.01145126 0.43529412 0.89019608 0.96078431
v 0.01998168 -0.00590838 -0.00970056 0.43529412 0.89019608 0.96078431
v -0.01773220 -0.00600000 -0.00865949 0.43529412 0.89019608 0.96078431
v -0.03404791 -0.00599882 -0.00865949 0.43529412 0.89019608 0.96078431
v 0.01998168 -0.00563704 -0.01071130 0.43529412 0.89019608 0.96078431
v -0.03404791 -0.00531754 -0.01143492 0.43529412 0.89019608 0.96078431
v -0.01773220 -0.00597063 -0.00898628 0.43529412 0.89019608 0.96078431
v -0.01773220 -0.00585082 -0.00997017 0.43529412 0.89019608 0.96078431
v -0.01773220 -0.00576625 -0.01028880 0.43529412 0.89019608 0.96078431
v -0.03404791 -0.00599060 -0.00873185 0.43529412 0.89019608 0.96078431
v -0.03404791 -0.00580266 -0.01015691 0.43529412 0.89019608 0.96078431
v -0.03404791 -0.00582498 -0.01008805 0.43529412 0.89019608 0.96078431
v -0.03404791 -0.00582028 -0.01010556 0.43529412 0.89019608 0.96078431
f 182 183 189
f 182 189 196
f 182 196 198
f 182 198 206
f 182 206 205
f 182 205 204
f 182 204 211
f 182 211 217
f 182 217 225
f 182 225 231
f 182 231 239
f 182 239 246
f 182 246 255
f 182 255 264
f 182 264 267
f 182 267 275
f 182 275 282
f 182 282 289
f 182 289 290
f 182 290 295
f 182 295 300
f 182 300 302
f 182 302 301
f 182 301 299
f 182 299 293
f 182 293 286
f 182 286 287
f 182 287 278
f 182 278 277
f 182 277 279
f 182 279 272
f 182 272 263
f 182 263 260
f 182 260 250
f 182 250 249
f 182 249 248
f 182 248 244
f 182 244 237
f 182 237 240
f 182 240 233
f 182 233 232
f 182 232 227
f 182 227 220
f 182 220 226
f 182 226 223
f 182 223 218
f 182 218 212
f 182 212 207
f 182 207 200
f 182 200 192
f 182 192 184
f 182 184 185
f 182 185 186
f 182 186 187
f 182 187 188
f 182 188 183
f 183 188 190
f 183 190 191
f 183 191 189
f 184 192 185
f 185 192 193
f 185 193 194
f 185 194 186
f 186 194 195
f 186 195 187
f 187 195 188
f 188 195 190
f 189 191 196
f 190 197 198
f 190 198 199
f 190 199 196
f 190 196 191
f 190 195 194
f 190 194 201
f 190 201 209
f 190 209 214
f 190 214 222
f 190 222 229
f 190 229 235
f 190 235 243
f 190 243 252
f 190 252 261
f 190 261 269
f 190 269 276
f 190 276 284
f 190 284 291
f 190 291 294
f 190 294 288
f 190 288 280
f 190 280 273
f 190 273 268
f 190 268 265
f 190 265 258
f 190 258 257
f 190 257 256
f 190 256 254
f 190 254 245
f 190 245 238
f 190 238 230
f 190 230 224
f 190 224 216
f 190 216 210
f 190 210 202
f 190 202 197
f 192 200 193
f 193 200 194
f 194 200 201
f 196 199 198
f 197 202 203
f 197 203 204
f 197 204 205
f 197 205 206
f 197 206 198
f 200 207 208
f 200 208 201
f 201 208 209
f 202 210 203
f 203 210 204
f 204 210 211
f 207 212 213
f 207 213 208
f 208 213 209
f 209 213 215
f 209 215 214
f 210 216 211
f 211 216 217
f 212 218 213
f 213 218 215
f 214 219 220
f 214 220 221
f 214 221 222
f 214 215 218
f 214 218 223
f 214 223 219
f 216 224 217
f 217 224 225
f 219 223 226
f 219 226 220
f 220 227 221
f 221 228 222
f 221 227 228
f 222 228 229
f 224 230 225
f 225 230 238
f 225 238 231
f 227 232 228
f 228 232 233
f 228 233 234
f 228 234 229
f 229 234 236
f 229 236 237
f 229 237 235
f 231 238 245
f 231 245 247
f 231 247 239
f 233 240 234
f 234 240 236
f 235 241 242
f 235 242 243
f 235 237 244
f 235 244 241
f 236 240 237
f 239 247 246
f 241 244 242
f 242 244 248
f 242 248 249
f 242 249 250
f 242 250 251
f 242 251 243
f 243 251 253
f 243 253 252
f 245 254 247
f 246 247 254
f 246 254 256
f 246 256 257
f 246 257 258
f 246 258 259
f 246 259 255
f 250 260 253
f 250 253 251
f 252 253 262
f 252 262 261
f 253 260 263
f 253 263 262
f 255 259 264
f 258 265 259
f 259 266 267
f 259 267 264
f 259 265 268
f 259 268 266
f 261 262 270
f 261 270 271
f 261 271 269
f 262 263 272
f 262 272 270
f 266 268 273
f 266 273 274
f 266 274 275
f 266 275 267
f 269 271 277
f 269 277 278
f 269 278 276
f 270 272 271
f 271 272 279
f 271 279 277
f 273 280 281
f 273 281 275
f 273 275 274
f 275 281 280
f 275 280 283
f 275 283 282
f 276 278 285
f 276 285 286
f 276 286 284
f 278 287 285
f 280 288 283
f 282 283 289
f 283 290 289
f 283 288 290
f 284 286 292
f 284 292 291
f 285 287 286
f 286 293 292
f 288 294 290
f 290 294 295
f 291 292 296
f 291 296 297
f 291 297 298
f 291 298 294
f 292 293 296
f 293 299 296
f 294 298 295
f 295 298 300
f 296 299 297
f 297 299 301
f 297 301 298
f 298 301 302
f 298 302 300

o geometry_3
v -0.01773328 0.01600000 0.00866102 0.38039216 0.78823529 0.52549020
v -0.01773328 0.01582498 0.01009522 0.38039216 0.78823529 0.52549020
v -0.01773328 0.01582498 0.00722448 0.38039216 0.78823529 0.52549020
v -0.03404791 0.01600000 0.00866102 0.38039216 0.78823529 0.52549020
v -0.03404791 0.01582498 0.01009522 0.38039216 0.78823529 0.52549020
v -0.03404791 0.01580149 0.01015829 0.38039216 0.78823529 0.52549020
v -0.01773328 0.01539272 0.01123628 0.38039216 0.78823529 0.52549020
v -0.01773328 0.01527525 0.00580663 0.38039216 0.78823529 0.52549020
v -0.03404791 0.01531049 0.00586853 0.38039216 0.78823529 0.52549020
v -0.03404791 0.01582498 0.00722448 0.38039216 0.78823529 0.52549020
v -0.03404791 0.01531637 0.01143599 0.38039216 0.78823529 0.52549020
v -0.01773328 0.01531167 0.01144767 0.38039216 0.78823529 0.52549020
v -0.01773328 0.01471143 0.00498909 0.38039216 0.78823529 0.52549020
v -0.03404791 0.01453406 0.00474383 0.38039216 0.78823529 0.52549020
v -0.03404791 0.01531167 0.01144767 0.38039216 0.78823529 0.52549020
v -0.03404791 0.01530462 0.01145818 0.38039216 0.78823529 0.52549020
v -0.03404791 0.01526703 0.01151307 0.38039216 0.78823529 0.52549020
v -0.01773328 0.01518363 0.01163454 0.38039216 0.78823529 0.52549020
v -0.01773328 0.01444362 0.00463171 0.38039216 0.78823529 0.52549020
v -0.03404791 0.01448825 0.00467959 0.38039216 0.78823529 0.52549020
v -0.03404791 0.01449060 0.01263895 0.38039216 0.78823529 0.52549020
v -0.01773328 0.01449060 0.01263895 0.38039216 0.78823529 0.52549020
v -0.01773328 0.01370125 0.00397300 0.38039216 0.78823529 0.52549020
v -0.03404791 0.01346515 0.00377329 0.38039216 0.78823529 0.52549020
v -0.03404791 0.01340760 0.01359781 0.38039216 0.78823529 0.52549020
v -0.01773328 0.01340760 0.01359781 0.38039216 0.78823529 0.52549020
v -0.01773328 0.01335591 0.00368803 0.38039216 0.78823529 0.52549020
v -0.03404791 0.01340525 0.00372073 0.38039216 0.78823529 0.52549020
v -0.03404791 0.01342404 0.00373708 0.38039216 0.78823529 0.52549020
v -0.03404791 0.01339702 0.01360365 0.38039216 0.78823529 0.52549020
v -0.01773328 0.01212725 0.01426936 0.38039216 0.78823529 0.52549020
v -0.03404791 0.01333712 0.01363518 0.38039216 0.78823529 0.52549020
v -0.01773328 0.01247729 0.00322787 0.38039216 0.78823529 0.52549020
v -0.03404791 0.01219538 0.00308539 0.38039216 0.78823529 0.52549020
v -0.01773328 0.01072240 0.01461623 0.38039216 0.78823529 0.52549020
v -0.03404791 0.01212725 0.01426936 0.38039216 0.78823529 0.52549020
v -0.03404791 0.01206147 0.01428571 0.38039216 0.78823529 0.52549020
v -0.01773328 0.01207557 0.00303166 0.38039216 0.78823529 0.52549020
v -0.03404791 0.01212373 0.00304918 0.38039216 0.78823529 0.52549020
v -0.01773328 0.01049569 0.01463025 0.38039216 0.78823529 0.52549020
v -0.03404791 0.01072240 0.01461623 0.38039216 0.78823529 0.52549020
v -0.01773328 0.01111120 0.00279457 0.38039216 0.78823529 0.52549020
v -0.03404791 0.01079757 0.00272216 0.38039216 0.78823529 0.52549020
v -0.01773328 0.00950431 0.01463025 0.38039216 0.78823529 0.52549020
v -0.03404791 0.00928935 0.01461623 0.38039216 0.78823529 0.52549020
v -0.01773328 0.01067424 0.00269881 0.38039216 0.78823529 0.52549020
v -0.03404791 0.01074471 0.00270932 0.38039216 0.78823529 0.52549020
v -0.01773328 0.00908497 0.01458236 0.38039216 0.78823529 0.52549020
v -0.03404791 0.00926703 0.01461390 0.38039216 0.78823529 0.52549020
v -0.01773328 0.00968403 0.00269881 0.38039216 0.78823529 0.52549020
v -0.03404791 0.01072005 0.00270465 0.38039216 0.78823529 0.52549020
v -0.01773328 0.00812177 0.01434527 0.38039216 0.78823529 0.52549020
v -0.03404791 0.00921417 0.01460105 0.38039216 0.78823529 0.52549020
v -0.01773328 0.00923649 0.00271048 0.38039216 0.78823529 0.52549020
v -0.03404791 0.00927526 0.00270465 0.38039216 0.78823529 0.52549020
v -0.01773328 0.00772357 0.01420512 0.38039216 0.78823529 0.52549020
v -0.03404791 0.00788684 0.01427403 0.38039216 0.78823529 0.52549020
v -0.01773328 0.00827330 0.00294757 0.38039216 0.78823529 0.52549020
v -0.03404791 0.00789507 0.00304451 0.38039216 0.78823529 0.52549020
v -0.01773328 0.00684495 0.01374496 0.38039216 0.78823529 0.52549020
v -0.03404791 0.00786453 0.01426586 0.38039216 0.78823529 0.52549020
v -0.03404791 0.00781637 0.01424133 0.38039216 0.78823529 0.52549020
v -0.01773328 0.00784103 0.00306320 0.38039216 0.78823529 0.52549020
v -0.03404791 0.00787157 0.00305152 0.38039216 0.78823529 0.52549020
v -0.01773328 0.00648786 0.01351956 0.38039216 0.78823529 0.52549020
v -0.03404791 0.00660650 0.01360598 0.38039216 0.78823529 0.52549020
v -0.01773328 0.00696241 0.00352452 0.38039216 0.78823529 0.52549020
v -0.03404791 0.00661237 0.00371256 0.38039216 0.78823529 0.52549020
v -0.01773328 0.00574550 0.01286202 0.38039216 0.78823529 0.52549020
v -0.03404791 0.00658653 0.01359314 0.38039216 0.78823529 0.52549020
v -0.03404791 0.00654542 0.01355693 0.38039216 0.78823529 0.52549020
v -0.01773328 0.00657009 0.00373825 0.38039216 0.78823529 0.52549020
v -0.03404791 0.00659123 0.00372424 0.38039216 0.78823529 0.52549020
v -0.01773328 0.00544714 0.01256420 0.38039216 0.78823529 0.52549020
v -0.03404791 0.00552232 0.01265063 0.38039216 0.78823529 0.52549020
v -0.03404791 0.00550587 0.01263428 0.38039216 0.78823529 0.52549020
v -0.01773328 0.00582655 0.00439696 0.38039216 0.78823529 0.52549020
v -0.03404791 0.00552702 0.00466675 0.38039216 0.78823529 0.52549020
v -0.01773328 0.00488332 0.01174666 0.38039216 0.78823529 0.52549020
v -0.03404791 0.00472944 0.01150957 0.38039216 0.78823529 0.52549020
v -0.01773328 0.00549648 0.00469711 0.38039216 0.78823529 0.52549020
v -0.03404791 0.00550940 0.00468310 0.38039216 0.78823529 0.52549020
v -0.01773328 0.00465897 0.01139044 0.38039216 0.78823529 0.52549020
v -0.03404791 0.00468598 0.01144534 0.38039216 0.78823529 0.52549020
v -0.01773328 0.00493266 0.00551465 0.38039216 0.78823529 0.52549020
v -0.03404791 0.00470125 0.00585218 0.38039216 0.78823529 0.52549020
v -0.01773328 0.00430658 0.01046195 0.38039216 0.78823529 0.52549020
v -0.03404791 0.00418207 0.01011625 0.38039216 0.78823529 0.52549020
v -0.01773328 0.00468129 0.00588488 0.38039216 0.78823529 0.52549020
v -0.03404791 0.00468716 0.00587320 0.38039216 0.78823529 0.52549020
v -0.01773328 0.00416797 0.01006369 0.38039216 0.78823529 0.52549020
v -0.03404791 0.00417502 0.01009406 0.38039216 0.78823529 0.52549020
v -0.01773328 0.00433007 0.00681221 0.38039216 0.78823529 0.52549020
v -0.03404791 0.00418324 0.00720229 0.38039216 0.78823529 0.52549020
v -0.01773328 0.00404816 0.00907914 0.38039216 0.78823529 0.52549020
v -0.03404791 0.00400000 0.00866102 0.38039216 0.78823529 0.52549020
v -0.01773328 0.00417385 0.00723149 0.38039216 0.78823529 0.52549020
v -0.03404791 0.00417502 0.00722565 0.38039216 0.78823529 0.52549020
v -0.01773328 0.00400000 0.00866102 0.38039216 0.78823529 0.52549020
f 303 304 309
f 303 309 314
f 303 314 320
f 303 320 324
f 303 324 328
f 303 328 333
f 303 333 337
f 303 337 342
f 303 342 346
f 303 346 350
f 303 350 354
f 303 354 358
f 303 358 362
f 303 362 367
f 303 367 371
f 303 371 376
f 303 376 381
f 303 381 385
f 303 385 389
f 303 389 393
f 303 393 397
f 303 397 401
f 303 401 399
f 303 399 395
f 303 395 391
f 303 391 387
f 303 387 383
f 303 383 379
f 303 379 374
f 303 374 369
f 303 369 365
f 303 365 360
f 303 360 356
f 303 356 352
f 303 352 348
f 303 348 344
f 303 344 340
f 303 340 335
f 303 335 329
f 303 329 325
f 303 325 321
f 303 321 315
f 303 315 310
f 303 310 305
f 303 305 312
f 303 312 306
f 303 306 307
f 303 307 304
f 304 307 308
f 304 308 309
f 305 310 311
f 305 311 312
f 306 312 311
f 306 311 316
f 306 316 322
f 306 322 326
f 306 326 331
f 306 331 330
f 306 330 336
f 306 336 341
f 306 341 345
f 306 345 349
f 306 349 353
f 306 353 357
f 306 357 361
f 306 361 366
f 306 366 370
f 306 370 375
f 306 375 380
f 306 380 384
f 306 384 388
f 306 388 392
f 306 392 396
f 306 396 400
f 306 400 398
f 306 398 394
f 306 394 390
f 306 390 386
f 306 386 382
f 306 382 378
f 306 378 377
f 306 377 373
f 306 373 372
f 306 372 368
f 306 368 364
f 306 364 363
f 306 363 359
f 306 359 355
f 306 355 351
f 306 351 347
f 306 347 343
f 306 343 339
f 306 339 338
f 306 338 334
f 306 334 332
f 306 332 327
f 306 327 323
f 306 323 319
f 306 319 318
f 306 318 317
f 306 317 313
f 306 313 308
f 306 308 307
f 308 313 309
f 309 313 314
f 310 315 311
f 311 315 316
f 313 317 314
f 314 317 318
f 314 318 319
f 314 319 320
f 315 321 322
f 315 322 316
f 319 323 320
f 320 323 324
f 321 325 322
f 322 325 326
f 323 327 328
f 323 328 324
f 325 329 330
f 325 330 331
f 325 331 326
f 327 332 328
f 328 332 334
f 328 334 333
f 329 335 336
f 329 336 330
f 333 334 338
f 333 338 339
f 333 339 337
f 335 340 341
f 335 341 336
f 337 339 343
f 337 343 342
f 340 344 345
f 340 345 341
f 342 343 347
f 342 347 346
f 344 348 349
f 344 349 345
f 346 347 351
f 346 351 350
f 348 352 357
f 348 357 353
f 348 353 349
f 350 351 355
f 350 355 354
f 352 356 357
f 354 355 359
f 354 359 358
f 356 360 357
f 357 360 361
f 358 359 363
f 358 363 364
f 358 364 362
f 360 365 361
f 361 365 366
f 362 364 368
f 362 368 367
f 365 369 370
f 365 370 366
f 367 368 372
f 367 372 373
f 367 373 371
f 369 374 370
f 370 374 375
f 371 373 377
f 371 377 378
f 371 378 376
f 374 379 380
f 374 380 375
f 376 378 382
f 376 382 381
f 379 383 380
f 380 383 384
f 381 382 386
f 381 386 385
f 383 387 388
f 383 388 384
f 385 386 389
f 386 390 389
f 387 391 388
f 388 391 392
f 389 390 393
f 390 394 393
f 391 395 396
f 391 396 392
f 393 394 398
f 393 398 397
f 395 399 396
f 396 399 400
f 397 398 401
f 398 400 399
f 398 399 401

o geometry_4
v 0.07500000 -0.00400000 0.00866088 0.56470588 0.92549020 0.07058824
v 0.07500000 -0.00417502 0.01009549 0.56470588 0.92549020 0.07058824
v 0.07500000 -0.00417502 0.00722510 0.56470588 0.92549020 0.07058824
v 0.02829539 -0.00406695 0.00780106 0.56470588 0.92549020 0.07058824
v 0.02829539 -0.00402467 0.00917701 0.56470588 0.92549020 0.07058824
v 0.02829539 -0.00403641 0.00927086 0.56470588 0.92549020 0.07058824
v 0.02829539 -0.00433007 0.01061749 0.56470588 0.92549020 0.07058824
v 0.07500000 -0.00468833 0.01144799 0.56470588 0.92549020 0.07058824
v 0.07500000 -0.00468833 0.00587261 0.56470588 0.92549020 0.07058824
v 0.02829539 -0.00448865 0.00629255 0.56470588 0.92549020 0.07058824
v 0.02829539 -0.00445576 0.00638170 0.56470588 0.92549020 0.07058824
v 0.02829539 -0.00407870 0.00770604 0.56470588 0.92549020 0.07058824
v 0.02829539 -0.00436414 0.01070664 0.56470588 0.92549020 0.07058824
v 0.02829539 -0.00497847 0.01193948 0.56470588 0.92549020 0.07058824
v 0.02829539 -0.00503250 0.01201808 0.56470588 0.92549020 0.07058824
v 0.07500000 -0.00550940 0.01263861 0.56470588 0.92549020 0.07058824
v 0.07500000 -0.00550940 0.00468199 0.56470588 0.92549020 0.07058824
v 0.02829539 -0.00523219 0.00502099 0.56470588 0.92549020 0.07058824
v 0.02829539 -0.00517815 0.00509958 0.56470588 0.92549020 0.07058824
v 0.02829539 -0.00592874 0.01306324 0.56470588 0.92549020 0.07058824
v 0.07500000 -0.00659240 0.01359814 0.56470588 0.92549020 0.07058824
v 0.07500000 -0.00659240 0.00372245 0.56470588 0.92549020 0.07058824
v 0.02829539 -0.00619068 0.00403213 0.56470588 0.92549020 0.07058824
v 0.02829539 -0.00600039 0.01312658 0.56470588 0.92549020 0.07058824
v 0.02829539 -0.00712451 0.01392307 0.56470588 0.92549020 0.07058824
v 0.02829539 -0.00720908 0.01396764 0.56470588 0.92549020 0.07058824
v 0.07500000 -0.00787275 0.01427028 0.56470588 0.92549020 0.07058824
v 0.07500000 -0.00787275 0.00305031 0.56470588 0.92549020 0.07058824
v 0.02829539 -0.00751801 0.00319928 0.56470588 0.92549020 0.07058824
v 0.02829539 -0.00743344 0.00324386 0.56470588 0.92549020 0.07058824
v 0.02829539 -0.00626233 0.00396879 0.56470588 0.92549020 0.07058824
v 0.02829539 -0.00849295 0.01446500 0.56470588 0.92549020 0.07058824
v 0.07500000 -0.00927760 0.01461632 0.56470588 0.92549020 0.07058824
v 0.07500000 -0.00927760 0.00270427 0.56470588 0.92549020 0.07058824
v 0.02829539 -0.00883007 0.00278169 0.56470588 0.92549020 0.07058824
v 0.02829539 -0.00858575 0.01448729 0.56470588 0.92549020 0.07058824
v 0.07500000 -0.01072240 0.01461632 0.56470588 0.92549020 0.07058824
v 0.02829539 -0.00995301 0.01465738 0.56470588 0.92549020 0.07058824
v 0.07500000 -0.01072240 0.00270427 0.56470588 0.92549020 0.07058824
v 0.02829539 -0.01029718 0.00267494 0.56470588 0.92549020 0.07058824
v 0.02829539 -0.00892287 0.00275940 0.56470588 0.92549020 0.07058824
v 0.07500000 -0.01212725 0.01427028 0.56470588 0.92549020 0.07058824
v 0.02829539 -0.01004699 0.01465738 0.56470588 0.92549020 0.07058824
v 0.02829539 -0.01060846 0.01462336 0.56470588 0.92549020 0.07058824
v 0.02829539 -0.01072240 0.01461632 0.56470588 0.92549020 0.07058824
v 0.07500000 -0.01212725 0.00305031 0.56470588 0.92549020 0.07058824
v 0.02829539 -0.01174667 0.00292714 0.56470588 0.92549020 0.07058824
v 0.02829539 -0.01039233 0.00267494 0.56470588 0.92549020 0.07058824
v 0.07500000 -0.01340760 0.01359814 0.56470588 0.92549020 0.07058824
v 0.02829539 -0.01212725 0.01427028 0.56470588 0.92549020 0.07058824
v 0.07500000 -0.01340760 0.00372245 0.56470588 0.92549020 0.07058824
v 0.02829539 -0.01317502 0.00356996 0.56470588 0.92549020 0.07058824
v 0.02829539 -0.01309045 0.00352656 0.56470588 0.92549020 0.07058824
v 0.02829539 -0.01183829 0.00295060 0.56470588 0.92549020 0.07058824
v 0.07500000 -0.01449060 0.01263861 0.56470588 0.92549020 0.07058824
v 0.02829539 -0.01340760 0.01359814 0.56470588 0.92549020 0.07058824
v 0.07500000 -0.01449060 0.00468199 0.56470588 0.92549020 0.07058824
v 0.02829539 -0.01431911 0.00449665 0.56470588 0.92549020 0.07058824
v 0.02829539 -0.01424746 0.00443448 0.56470588 0.92549020 0.07058824
v 0.07500000 -0.01531167 0.01144799 0.56470588 0.92549020 0.07058824
v 0.02829539 -0.01449060 0.01263861 0.56470588 0.92549020 0.07058824
v 0.07500000 -0.01531167 0.00587261 0.56470588 0.92549020 0.07058824
v 0.02829539 -0.01520360 0.00567436 0.56470588 0.92549020 0.07058824
v 0.02829539 -0.01514957 0.00559695 0.56470588 0.92549020 0.07058824
v 0.07500000 -0.01582498 0.01009549 0.56470588 0.92549020 0.07058824
v 0.02829539 -0.01531167 0.01144799 0.56470588 0.92549020 0.07058824
v 0.02829539 -0.01560767 0.01067027 0.56470588 0.92549020 0.07058824
v 0.07500000 -0.01582498 0.00722510 0.56470588 0.92549020 0.07058824
v 0.02829539 -0.01582498 0.00722510 0.56470588 0.92549020 0.07058824
v 0.07500000 -0.01600000 0.00866088 0.56470588 0.92549020 0.07058824
v 0.02829539 -0.01582498 0.01009549 0.56470588 0.92549020 0.07058824
v 0.02829539 -0.01591190 0.00938347 0.56470588 0.92549020 0.07058824
v 0.02829539 -0.01591308 0.00794768 0.56470588 0.92549020 0.07058824
v 0.02829539 -0.01600000 0.00866088 0.56470588 0.92549020 0.07058824
f 402 403 409
f 402 409 417
f 402 417 422
f 402 422 428
f 402 428 434
f 402 434 438
f 402 438 443
f 402 443 450
f 402 450 456
f 402 456 461
f 402 461 466
f 402 466 471
f 402 471 469
f 402 469 463
f 402 463 458
f 402 458 452
f 402 452 447
f 402 447 440
f 402 440 435
f 402 435 429
f 402 429 423
f 402 423 418
f 402 418 410
f 402 410 404
f 402 404 405
f 402 405 406
f 402 406 403
f 403 406 407
f 403 407 408
f 403 408 409
f 404 410 411
f 404 411 412
f 404 412 413
f 404 413 405
f 405 413 412
f 405 412 411
f 405 411 420
f 405 420 419
f 405 419 424
f 405 424 432
f 405 432 431
f 405 431 430
f 405 430 436
f 405 436 442
f 405 442 441
f 405 441 449
f 405 449 448
f 405 448 455
f 405 455 454
f 405 454 453
f 405 453 460
f 405 460 459
f 405 459 465
f 405 465 464
f 405 464 470
f 405 470 474
f 405 474 475
f 405 475 473
f 405 473 472
f 405 472 468
f 405 468 467
f 405 467 462
f 405 462 457
f 405 457 451
f 405 451 446
f 405 446 445
f 405 445 444
f 405 444 439
f 405 439 437
f 405 437 433
f 405 433 427
f 405 427 426
f 405 426 425
f 405 425 421
f 405 421 416
f 405 416 415
f 405 415 414
f 405 414 408
f 405 408 407
f 405 407 406
f 408 414 409
f 409 414 415
f 409 415 416
f 409 416 417
f 410 418 419
f 410 419 420
f 410 420 411
f 416 421 417
f 417 421 422
f 418 423 424
f 418 424 419
f 421 425 422
f 422 425 426
f 422 426 427
f 422 427 428
f 423 429 430
f 423 430 431
f 423 431 432
f 423 432 424
f 427 433 428
f 428 433 434
f 429 435 436
f 429 436 430
f 433 437 434
f 434 437 439
f 434 439 444
f 434 444 438
f 435 440 449
f 435 449 441
f 435 441 442
f 435 442 436
f 438 444 445
f 438 445 446
f 438 446 451
f 438 451 443
f 440 447 448
f 440 448 449
f 443 451 457
f 443 457 450
f 447 452 453
f 447 453 454
f 447 454 455
f 447 455 448
f 450 457 462
f 450 462 456
f 452 458 459
f 452 459 460
f 452 460 453
f 456 462 467
f 456 467 461
f 458 463 464
f 458 464 465
f 458 465 459
f 461 467 468
f 461 468 466
f 463 469 470
f 463 470 464
f 466 468 472
f 466 472 473
f 466 473 471
f 469 471 474
f 469 474 470
f 471 473 475
f 471 475 474

o geometry_5
v 0.02499992 -0.00399004 0.01466026 0.08627451 0.01960784 0.83137255
v 0.02000076 -0.00399004 0.01466026 0.08627451 0.01960784 0.83137255
v 0.02499992 -0.00999972 0.01466026 0.08627451 0.01960784 0.83137255
v 0.02829082 -0.00995270 0.01465674 0.08627451 0.01960784 0.83137255
v 0.02829082 -0.00858547 0.01448752 0.08627451 0.01960784 0.83137255
v 0.02829082 -0.00849377 0.01446520 0.08627451 0.01960784 0.83137255
v 0.02829082 -0.00720884 0.01396696 0.08627451 0.01960784 0.83137255
v 0.02829082 -0.00712420 0.01392231 0.08627451 0.01960784 0.83137255
v 0.02829082 -0.00600032 0.01312678 0.08627451 0.01960784 0.83137255
v 0.02829082 -0.00592861 0.01306333 0.08627451 0.01960784 0.83137255
v 0.02829082 -0.00503280 0.01201751 0.08627451 0.01960784 0.83137255
v 0.02829082 -0.00497872 0.01193878 0.08627451 0.01960784 0.83137255
v 0.02829082 -0.00436388 0.01070612 0.08627451 0.01960784 0.83137255
v 0.02829082 -0.00433096 0.01061681 0.08627451 0.01960784 0.83137255
v 0.02829082 -0.00403588 0.00927135 0.08627451 0.01960784 0.83137255
v 0.02829082 -0.00402413 0.00917734 0.08627451 0.01960784 0.83137255
v 0.02499992 -0.00399004 0.00265565 0.08627451 0.01960784 0.83137255
v 0.02000076 -0.00399004 0.00265565 0.08627451 0.01960784 0.83137255
v 0.01956151 -0.00402648 0.00920907 0.08627451 0.01960784 0.83137255
v 0.01956151 -0.00402766 0.00922082 0.08627451 0.01960784 0.83137255
v 0.01956151 -0.00434037 0.01064971 0.08627451 0.01960784 0.83137255
v 0.01956151 -0.00434389 0.01066029 0.08627451 0.01960784 0.83137255
v 0.01956151 -0.00499635 0.01196933 0.08627451 0.01960784 0.83137255
v 0.01956151 -0.00500341 0.01197873 0.08627451 0.01960784 0.83137255
v 0.01956151 -0.00595447 0.01309035 0.08627451 0.01960784 0.83137255
v 0.01956151 -0.00596387 0.01309741 0.08627451 0.01960784 0.83137255
v 0.01956151 -0.00715711 0.01394346 0.08627451 0.01960784 0.83137255
v 0.01956151 -0.00716769 0.01394816 0.08627451 0.01960784 0.83137255
v 0.01956151 -0.00853139 0.01447695 0.08627451 0.01960784 0.83137255
v 0.01956151 -0.00854315 0.01447930 0.08627451 0.01960784 0.83137255
v 0.01956151 -0.00999502 0.01465909 0.08627451 0.01960784 0.83137255
v 0.02000076 -0.00999972 0.01466026 0.08627451 0.01960784 0.83137255
v 0.02829082 -0.01060868 0.01462266 0.08627451 0.01960784 0.83137255
v 0.02829082 -0.01010788 0.01465321 0.08627451 0.01960784 0.83137255
v 0.02829082 -0.01004674 0.01465674 0.08627451 0.01960784 0.83137255
v 0.02829082 -0.00406645 0.00780132 0.08627451 0.01960784 0.83137255
v 0.02829082 -0.00407821 0.00770614 0.08627451 0.01960784 0.83137255
v 0.02829082 -0.00445557 0.00638183 0.08627451 0.01960784 0.83137255
v 0.02829082 -0.00448967 0.00629252 0.08627451 0.01960784 0.83137255
v 0.02829082 -0.00517740 0.00509981 0.08627451 0.01960784 0.83137255
v 0.02829082 -0.00523147 0.00502108 0.08627451 0.01960784 0.83137255
v 0.02829082 -0.00619077 0.00403167 0.08627451 0.01960784 0.83137255
v 0.02829082 -0.00626248 0.00396939 0.08627451 0.01960784 0.83137255
v 0.02829082 -0.00743338 0.00324436 0.08627451 0.01960784 0.83137255
v 0.02829082 -0.00751802 0.00319971 0.08627451 0.01960784 0.83137255
v 0.02829082 -0.00883117 0.00278138 0.08627451 0.01960784 0.83137255
v 0.02829082 -0.00892287 0.00275906 0.08627451 0.01960784 0.83137255
v 0.02829082 -0.01029715 0.00267445 0.08627451 0.01960784 0.83137255
v 0.02499992 -0.01346070 0.00265565 0.08627451 0.01960784 0.83137255
v 0.01956151 -0.00888995 0.00276493 0.08627451 0.01960784 0.83137255
v 0.01956151 -0.00749569 0.00320911 0.08627451 0.01960784 0.83137255
v 0.01956151 -0.00748511 0.00321381 0.08627451 0.01960784 0.83137255
v 0.01956151 -0.00624132 0.00398466 0.08627451 0.01960784 0.83137255
v 0.01956151 -0.00623309 0.00399171 0.08627451 0.01960784 0.83137255
v 0.01956151 -0.00521502 0.00504223 0.08627451 0.01960784 0.83137255
v 0.01956151 -0.00520796 0.00505164 0.08627451 0.01960784 0.83137255
v 0.01956151 -0.00447674 0.00631837 0.08627451 0.01960784 0.83137255
v 0.01956151 -0.00447321 0.00632895 0.08627451 0.01960784 0.83137255
v 0.01956151 -0.00407233 0.00773669 0.08627451 0.01960784 0.83137255
v 0.01956151 -0.00407115 0.00774727 0.08627451 0.01960784 0.83137255
v 0.02000076 -0.01346070 0.00265565 0.08627451 0.01960784 0.83137255
v 0.01956151 -0.01035946 0.00267210 0.08627451 0.01960784 0.83137255
v 0.01956151 -0.00890053 0.00276258 0.08627451 0.01960784 0.83137255
v 0.01956151 -0.01000560 0.01465909 0.08627451 0.01960784 0.83137255
v 0.01956151 -0.01018194 0.01464851 0.08627451 0.01960784 0.83137255
v 0.01956151 -0.01072272 0.01461561 0.08627451 0.01960784 0.83137255
v 0.02829082 -0.01072272 0.01461561 0.08627451 0.01960784 0.83137255
v 0.02829082 -0.01039237 0.00267445 0.08627451 0.01960784 0.83137255
v 0.02829082 -0.01174667 0.00292709 0.08627451 0.01960784 0.83137255
v 0.02829082 -0.01183836 0.00295059 0.08627451 0.01960784 0.83137255
v 0.02829082 -0.01309038 0.00352638 0.08627451 0.01960784 0.83137255
v 0.02829082 -0.01317503 0.00356986 0.08627451 0.01960784 0.83137255
v 0.02829082 -0.01424718 0.00443354 0.08627451 0.01960784 0.83137255
v 0.02829082 -0.01431889 0.00449700 0.08627451 0.01960784 0.83137255
v 0.02829082 -0.01514886 0.00559687 0.08627451 0.01960784 0.83137255
v 0.02829082 -0.01520294 0.00567443 0.08627451 0.01960784 0.83137255
v 0.02499992 -0.01519589 0.00566033 0.08627451 0.01960784 0.83137255
v 0.02000076 -0.01519589 0.00566033 0.08627451 0.01960784 0.83137255
v 0.01956151 -0.01519589 0.00566268 0.08627451 0.01960784 0.83137255
v 0.01956151 -0.01519001 0.00565328 0.08627451 0.01960784 0.83137255
v 0.01956151 -0.01430831 0.00448525 0.08627451 0.01960784 0.83137255
v 0.01956151 -0.01430008 0.00447820 0.08627451 0.01960784 0.83137255
v 0.01956151 -0.01315974 0.00356046 0.08627451 0.01960784 0.83137255
v 0.01956151 -0.01315034 0.00355576 0.08627451 0.01960784 0.83137255
v 0.01956151 -0.01182073 0.00294354 0.08627451 0.01960784 0.83137255
v 0.01956151 -0.01180897 0.00294119 0.08627451 0.01960784 0.83137255
v 0.01956151 -0.01037121 0.00267210 0.08627451 0.01960784 0.83137255
v 0.01956151 -0.01128701 0.01447695 0.08627451 0.01960784 0.83137255
v 0.02829082 -0.01153036 0.01441702 0.08627451 0.01960784 0.83137255
v 0.02829082 -0.01582484 0.00722553 0.08627451 0.01960784 0.83137255
v 0.01956151 -0.01582484 0.00722553 0.08627451 0.01960784 0.83137255
v 0.01956151 -0.01539221 0.00614916 0.08627451 0.01960784 0.83137255
v 0.01956151 -0.01520059 0.00567325 0.08627451 0.01960784 0.83137255
v 0.01956151 -0.01212756 0.01427013 0.08627451 0.01960784 0.83137255
v 0.02829082 -0.01212756 0.01427013 0.08627451 0.01960784 0.83137255
v 0.02829082 -0.01600000 0.00865913 0.08627451 0.01960784 0.83137255
v 0.01956151 -0.01585305 0.00745467 0.08627451 0.01960784 0.83137255
v 0.01956151 -0.01264248 0.01399987 0.08627451 0.01960784 0.83137255
v 0.02829082 -0.01340780 0.01359799 0.08627451 0.01960784 0.83137255
v 0.02829082 -0.01592594 0.00926900 0.08627451 0.01960784 0.83137255
v 0.01956151 -0.01600000 0.00865913 0.08627451 0.01960784 0.83137255
v 0.01956151 -0.01340780 0.01359799 0.08627451 0.01960784 0.83137255
v 0.01956151 -0.01378046 0.01326779 0.08627451 0.01960784 0.83137255
v 0.02829082 -0.01440471 0.01271433 0.08627451 0.01960784 0.83137255
v 0.01956151 -0.01589537 0.00951811 0.08627451 0.01960784 0.83137255
v 0.02829082 -0.01582484 0.01009508 0.08627451 0.01960784 0.83137255
v 0.01956151 -0.01582484 0.01009508 0.08627451 0.01960784 0.83137255
v 0.01956151 -0.01445761 0.01266733 0.08627451 0.01960784 0.83137255
v 0.02829082 -0.01449053 0.01263795 0.08627451 0.01960784 0.83137255
v 0.02829082 -0.01560735 0.01066969 0.08627451 0.01960784 0.83137255
v 0.01956151 -0.01531227 0.01144759 0.08627451 0.01960784 0.83137255
v 0.01956151 -0.01449053 0.01263795 0.08627451 0.01960784 0.83137255
v 0.02829082 -0.01489846 0.01204806 0.08627451 0.01960784 0.83137255
v 0.02829082 -0.01531227 0.01144759 0.08627451 0.01960784 0.83137255
v 0.01956151 -0.01489846 0.01204806 0.08627451 0.01960784 0.83137255
f 476 477 507
f 476 507 478
f 476 478 510
f 476 510 479
f 476 479 480
f 476 480 481
f 476 481 482
f 476 482 483
f 476 483 484
f 476 484 485
f 476 485 486
f 476 486 487
f 476 487 488
f 476 488 489
f 476 489 490
f 476 490 491
f 476 491 492
f 476 492 493
f 476 493 477
f 477 493 494
f 477 494 495
f 477 495 496
f 477 496 497
f 477 497 498
f 477 498 499
f 477 499 500
f 477 500 501
f 477 501 502
f 477 502 503
f 477 503 504
f 477 504 505
f 477 505 506
f 477 506 539
f 477 539 507
f 478 507 508
f 478 508 509
f 478 509 510
f 479 510 509
f 479 509 508
f 479 508 542
f 479 542 564
f 479 564 570
f 479 570 574
f 479 574 579
f 479 579 584
f 479 584 588
f 479 588 589
f 479 589 585
f 479 585 581
f 479 581 575
f 479 575 571
f 479 571 565
f 479 565 551
f 479 551 550
f 479 550 549
f 479 549 548
f 479 548 547
f 479 547 546
f 479 546 545
f 479 545 544
f 479 544 543
f 479 543 523
f 479 523 522
f 479 522 521
f 479 521 520
f 479 520 519
f 479 519 518
f 479 518 517
f 479 517 516
f 479 516 515
f 479 515 514
f 479 514 513
f 479 513 512
f 479 512 511
f 479 511 491
f 479 491 490
f 479 490 489
f 479 489 488
f 479 488 487
f 479 487 486
f 479 486 485
f 479 485 484
f 479 484 483
f 479 483 482
f 479 482 481
f 479 481 480
f 491 511 492
f 492 511 512
f 492 512 513
f 492 513 514
f 492 514 515
f 492 515 516
f 492 516 517
f 492 517 518
f 492 518 519
f 492 519 520
f 492 520 521
f 492 521 522
f 492 522 523
f 492 523 543
f 492 543 524
f 492 524 536
f 492 536 493
f 493 525 526
f 493 526 527
f 493 527 528
f 493 528 529
f 493 529 530
f 493 530 531
f 493 531 532
f 493 532 533
f 493 533 534
f 493 534 535
f 493 535 494
f 493 536 562
f 493 562 537
f 493 537 538
f 493 538 525
f 494 535 534
f 494 534 533
f 494 533 532
f 494 532 531
f 494 531 530
f 494 530 529
f 494 529 528
f 494 528 527
f 494 527 526
f 494 526 525
f 494 525 538
f 494 538 537
f 494 537 562
f 494 562 561
f 494 561 560
f 494 560 559
f 494 559 558
f 494 558 557
f 494 557 556
f 494 556 555
f 494 555 554
f 494 554 568
f 494 568 567
f 494 567 566
f 494 566 572
f 494 572 576
f 494 576 580
f 494 580 582
f 494 582 586
f 494 586 590
f 494 590 587
f 494 587 583
f 494 583 578
f 494 578 577
f 494 577 573
f 494 573 569
f 494 569 563
f 494 563 541
f 494 541 540
f 494 540 539
f 494 539 506
f 494 506 505
f 494 505 504
f 494 504 503
f 494 503 502
f 494 502 501
f 494 501 500
f 494 500 499
f 494 499 498
f 494 498 497
f 494 497 496
f 494 496 495
f 507 539 540
f 507 540 541
f 507 541 508
f 508 541 542
f 524 543 544
f 524 544 545
f 524 545 546
f 524 546 547
f 524 547 548
f 524 548 549
f 524 549 550
f 524 550 551
f 524 551 552
f 524 552 553
f 524 553 536
f 536 553 554
f 536 554 555
f 536 555 556
f 536 556 557
f 536 557 558
f 536 558 559
f 536 559 560
f 536 560 561
f 536 561 562
f 541 563 542
f 542 563 564
f 551 565 566
f 551 566 553
f 551 553 552
f 553 566 567
f 553 567 568
f 553 568 554
f 563 569 570
f 563 570 564
f 565 571 572
f 565 572 566
f 569 573 570
f 570 573 574
f 571 575 576
f 571 576 572
f 573 577 574
f 574 577 578
f 574 578 579
f 575 580 576
f 575 581 582
f 575 582 580
f 578 583 579
f 579 583 584
f 581 585 582
f 582 585 586
f 583 587 584
f 584 587 590
f 584 590 588
f 585 589 586
f 586 589 588
f 586 588 590

o geometry_6
v 0.02499990 0.01346149 0.00265565 0.77647059 0.86666667 0.97647059
v 0.02502955 0.00083546 -0.00271908 0.77647059 0.86666667 0.97647059
v 0.02502955 0.00224802 -0.00309779 0.77647059 0.86666667 0.97647059
v 0.02502955 0.00352617 -0.00380789 0.77647059 0.86666667 0.97647059
v 0.02502955 0.00459612 -0.00480540 0.77647059 0.86666667 0.97647059
v 0.02502955 0.00539200 -0.00602946 0.77647059 0.86666667 0.97647059
v 0.02502955 0.00586637 -0.00741245 0.77647059 0.86666667 0.97647059
v 0.02502955 0.00599550 -0.00886983 0.77647059 0.86666667 0.97647059
v 0.02502955 0.00576623 -0.01031369 0.77647059 0.86666667 0.97647059
v 0.02502955 0.00519435 -0.01165948 0.77647059 0.86666667 0.97647059
v 0.02000046 0.01346149 0.00265565 0.77647059 0.86666667 0.97647059
v 0.02499990 -0.01346139 0.00265565 0.77647059 0.86666667 0.97647059
v 0.02502955 -0.00062453 -0.00269372 0.77647059 0.86666667 0.97647059
v 0.02502955 0.00513110 -0.01174909 0.77647059 0.86666667 0.97647059
v 0.01998168 0.00519435 -0.01165948 0.77647059 0.86666667 0.97647059
v 0.01998168 0.00576623 -0.01031369 0.77647059 0.86666667 0.97647059
v 0.01998168 0.00599550 -0.00886814 0.77647059 0.86666667 0.97647059
v 0.01998168 0.00586637 -0.00741245 0.77647059 0.86666667 0.97647059
v 0.01998168 0.00539200 -0.00602946 0.77647059 0.86666667 0.97647059
v 0.01998168 0.00459612 -0.00480371 0.77647059 0.86666667 0.97647059
v 0.01998168 0.00352617 -0.00380619 0.77647059 0.86666667 0.97647059
v 0.01998168 0.00224538 -0.00309779 0.77647059 0.86666667 0.97647059
v 0.01998168 0.00083546 -0.00271908 0.77647059 0.86666667 0.97647059
v 0.01998168 -0.00062453 -0.00269372 0.77647059 0.86666667 0.97647059
v 0.02000046 -0.01346139 0.00265565 0.77647059 0.86666667 0.97647059
v 0.02502955 -0.00519425 -0.01165948 0.77647059 0.86666667 0.97647059
v 0.02502955 -0.00563699 -0.01071100 0.77647059 0.86666667 0.97647059
v 0.02502955 -0.00590843 -0.00969996 0.77647059 0.86666667 0.97647059
v 0.02502955 -0.00599804 -0.00866019 0.77647059 0.86666667 0.97647059
v 0.02502955 -0.00581883 -0.00720788 0.77647059 0.86666667 0.97647059
v 0.02502955 -0.00529703 -0.00584348 0.77647059 0.86666667 0.97647059
v 0.02502955 -0.00445635 -0.00464647 0.77647059 0.86666667 0.97647059
v 0.02502955 -0.00335213 -0.00368616 0.77647059 0.86666667 0.97647059
v 0.02502955 -0.00205026 -0.00302340 0.77647059 0.86666667 0.97647059
v 0.01998168 0.00505468 -0.01185391 0.77647059 0.86666667 0.97647059
v 0.02502955 0.00449071 -0.01263839 0.77647059 0.86666667 0.97647059
v 0.01998168 0.00449071 -0.01263839 0.77647059 0.86666667 0.97647059
v 0.01998168 -0.00205026 -0.00302340 0.77647059 0.86666667 0.97647059
v 0.01998168 -0.00335213 -0.00368616 0.77647059 0.86666667 0.97647059
v 0.01998168 -0.00445635 -0.00464647 0.77647059 0.86666667 0.97647059
v 0.01998168 -0.00529703 -0.00584348 0.77647059 0.86666667 0.97647059
v 0.01998168 -0.00582147 -0.00720788 0.77647059 0.86666667 0.97647059
v 0.01998168 -0.00599804 -0.00866019 0.77647059 0.86666667 0.97647059
v 0.01998168 -0.00590843 -0.00970166 0.77647059 0.86666667 0.97647059
v 0.01998168 -0.00563699 -0.01071100 0.77647059 0.86666667 0.97647059
v 0.01998168 -0.00519425 -0.01165948 0.77647059 0.86666667 0.97647059
v 0.02502955 -0.00513100 -0.01174909 0.77647059 0.86666667 0.97647059
v 0.02502955 0.00340758 -0.01359702 0.77647059 0.86666667 0.97647059
v 0.01998168 0.00340758 -0.01359702 0.77647059 0.86666667 0.97647059
v 0.01998168 -0.00508093 -0.01181841 0.77647059 0.86666667 0.97647059
v 0.02502955 -0.00449061 -0.01263839 0.77647059 0.86666667 0.97647059
v 0.01998168 -0.00449061 -0.01263839 0.77647059 0.86666667 0.97647059
v 0.02502955 0.00282516 -0.01390304 0.77647059 0.86666667 0.97647059
v 0.01998168 0.00212679 -0.01426992 0.77647059 0.86666667 0.97647059
v 0.02502955 -0.00349971 -0.01351587 0.77647059 0.86666667 0.97647059
v 0.01998168 -0.00340747 -0.01359702 0.77647059 0.86666667 0.97647059
v 0.02502955 0.00212679 -0.01426992 0.77647059 0.86666667 0.97647059
v 0.01998168 0.00072214 -0.01461651 0.77647059 0.86666667 0.97647059
v 0.02502955 -0.00340747 -0.01359702 0.77647059 0.86666667 0.97647059
v 0.01998168 -0.00212669 -0.01426992 0.77647059 0.86666667 0.97647059
v 0.02502955 -0.00282506 -0.01390304 0.77647059 0.86666667 0.97647059
v 0.02502955 0.00072214 -0.01461651 0.77647059 0.86666667 0.97647059
v 0.01998168 -0.00072204 -0.01461651 0.77647059 0.86666667 0.97647059
v 0.02502955 -0.00212669 -0.01426992 0.77647059 0.86666667 0.97647059
v 0.02502955 -0.00072204 -0.01461651 0.77647059 0.86666667 0.97647059
f 591 592 593
f 591 593 594
f 591 594 595
f 591 595 596
f 591 596 597
f 591 597 598
f 591 598 599
f 591 599 600
f 591 600 605
f 591 605 601
f 591 601 615
f 591 615 602
f 591 602 603
f 591 603 592
f 592 603 624
f 592 624 623
f 592 623 622
f 592 622 621
f 592 621 620
f 592 620 619
f 592 619 618
f 592 618 617
f 592 617 616
f 592 616 637
f 592 637 641
f 592 641 645
f 592 645 649
f 592 649 651
f 592 651 654
f 592 654 655
f 592 655 652
f 592 652 647
f 592 647 643
f 592 643 638
f 592 638 626
f 592 626 604
f 592 604 600
f 592 600 599
f 592 599 598
f 592 598 597
f 592 597 596
f 592 596 595
f 592 595 594
f 592 594 593
f 600 604 605
f 601 605 606
f 601 606 607
f 601 607 608
f 601 608 609
f 601 609 610
f 601 610 611
f 601 611 612
f 601 612 613
f 601 613 614
f 601 614 615
f 602 615 636
f 602 636 616
f 602 616 617
f 602 617 618
f 602 618 619
f 602 619 620
f 602 620 621
f 602 621 622
f 602 622 623
f 602 623 624
f 602 624 603
f 604 625 605
f 604 626 627
f 604 627 625
f 605 625 627
f 605 627 639
f 605 639 644
f 605 644 648
f 605 648 653
f 605 653 650
f 605 650 646
f 605 646 642
f 605 642 640
f 605 640 636
f 605 636 635
f 605 635 634
f 605 634 633
f 605 633 632
f 605 632 631
f 605 631 630
f 605 630 629
f 605 629 628
f 605 628 614
f 605 614 613
f 605 613 612
f 605 612 611
f 605 611 610
f 605 610 609
f 605 609 608
f 605 608 607
f 605 607 606
f 614 628 615
f 615 628 629
f 615 629 630
f 615 630 631
f 615 631 632
f 615 632 633
f 615 633 634
f 615 634 635
f 615 635 636
f 616 636 637
f 626 638 639
f 626 639 627
f 636 640 637
f 637 640 642
f 637 642 641
f 638 643 639
f 639 643 644
f 641 642 645
f 642 646 645
f 643 647 644
f 644 647 652
f 644 652 648
f 645 646 649
f 646 650 651
f 646 651 649
f 648 652 655
f 648 655 653
f 650 653 655
f 650 655 654
f 650 654 651

o geometry_7
v 0.02000000 -0.00399004 0.00265565 0.79607843 0.45882353 0.78039216
v 0.02000000 0.00399077 0.00265565 0.79607843 0.45882353 0.78039216
v 0.02500000 -0.00399004 0.00265565 0.79607843 0.45882353 0.78039216
v 0.02000000 -0.00399004 0.01466026 0.79607843 0.45882353 0.78039216
v 0.02500000 0.00399077 0.00265565 0.79607843 0.45882353 0.78039216
v 0.02000000 0.00399077 0.01466026 0.79607843 0.45882353 0.78039216
v 0.02500000 -0.00399004 0.01466026 0.79607843 0.45882353 0.78039216
v 0.02500000 0.00399077 0.01466026 0.79607843 0.45882353 0.78039216
f 656 657 660
f 656 660 658
f 656 658 662
f 656 662 659
f 656 659 661
f 656 661 657
f 657 661 663
f 657 663 660
f 658 660 663
f 658 663 662
f 659 662 663
f 659 663 661

o geometry_8
v -0.03404791 -0.00400044 0.00866825 0.11764706 0.63921569 0.14117647
v -0.03404791 -0.00400162 0.00864478 0.11764706 0.63921569 0.14117647
v -0.03404791 -0.00417193 0.01007992 0.11764706 0.63921569 0.14117647
v 0.01956066 -0.00402746 0.00921977 0.11764706 0.63921569 0.14117647
v 0.01956066 -0.00402628 0.00920804 0.11764706 0.63921569 0.14117647
v 0.01956066 -0.00407209 0.00774944 0.11764706 0.63921569 0.14117647
v -0.01772815 -0.00402276 0.00837254 0.11764706 0.63921569 0.14117647
v -0.03404791 -0.00416606 0.00728827 0.11764706 0.63921569 0.14117647
v -0.03404791 -0.00417781 0.01010456 0.11764706 0.63921569 0.14117647
v -0.01772815 -0.00422714 0.01027002 0.11764706 0.63921569 0.14117647
v 0.01956066 -0.00434107 0.01064904 0.11764706 0.63921569 0.14117647
v 0.01956066 -0.00407327 0.00773770 0.11764706 0.63921569 0.14117647
v -0.03404791 -0.00417311 0.00723429 0.11764706 0.63921569 0.14117647
v -0.01772815 -0.00414257 0.00738801 0.11764706 0.63921569 0.14117647
v -0.03404791 -0.00419660 0.01015619 0.11764706 0.63921569 0.14117647
v 0.01956066 -0.00434577 0.01065960 0.11764706 0.63921569 0.14117647
v -0.03404791 -0.00468170 0.01143408 0.11764706 0.63921569 0.14117647
v 0.01956066 -0.00447380 0.00632956 0.11764706 0.63921569 0.14117647
v -0.03404791 -0.00418015 0.00721082 0.11764706 0.63921569 0.14117647
v -0.01772815 -0.00426942 0.00694210 0.11764706 0.63921569 0.14117647
v -0.01772815 -0.00478507 0.01161245 0.11764706 0.63921569 0.14117647
v 0.01956066 -0.00499649 0.01196918 0.11764706 0.63921569 0.14117647
v -0.03404791 -0.00469345 0.01145638 0.11764706 0.63921569 0.14117647
v 0.01956066 -0.00447732 0.00631899 0.11764706 0.63921569 0.14117647
v -0.03404791 -0.00468405 0.00588012 0.11764706 0.63921569 0.14117647
v -0.01772815 -0.00462062 0.00601390 0.11764706 0.63921569 0.14117647
v 0.01956066 -0.00500354 0.01197974 0.11764706 0.63921569 0.14117647
v -0.03404791 -0.00472399 0.01150214 0.11764706 0.63921569 0.14117647
v 0.01956066 -0.00520909 0.00505284 0.11764706 0.63921569 0.14117647
v -0.01772815 -0.00485202 0.00561258 0.11764706 0.63921569 0.14117647
v -0.03404791 -0.00469697 0.00585900 0.11764706 0.63921569 0.14117647
v -0.01772815 -0.00534887 0.01242917 0.11764706 0.63921569 0.14117647
v 0.01956066 -0.00595495 0.01308983 0.11764706 0.63921569 0.14117647
v -0.03404791 -0.00550156 0.01262631 0.11764706 0.63921569 0.14117647
v 0.01956066 -0.00521496 0.00504345 0.11764706 0.63921569 0.14117647
v -0.01772815 -0.00541582 0.00479585 0.11764706 0.63921569 0.14117647
v -0.03404791 -0.00550509 0.00468907 0.11764706 0.63921569 0.14117647
v -0.01772815 -0.00565073 0.01278121 0.11764706 0.63921569 0.14117647
v -0.03404791 -0.00551801 0.01264626 0.11764706 0.63921569 0.14117647
v -0.01772815 -0.00639307 0.01343952 0.11764706 0.63921569 0.14117647
v 0.01956066 -0.00596435 0.01309804 0.11764706 0.63921569 0.14117647
v 0.01956066 -0.00623450 0.00399203 0.11764706 0.63921569 0.14117647
v -0.01772815 -0.00573883 0.00446376 0.11764706 0.63921569 0.14117647
v -0.03404791 -0.00552271 0.00467029 0.11764706 0.63921569 0.14117647
v -0.03404791 -0.00658101 0.01358855 0.11764706 0.63921569 0.14117647
v -0.01772815 -0.00677129 0.01370706 0.11764706 0.63921569 0.14117647
v 0.01956066 -0.00715773 0.01394293 0.11764706 0.63921569 0.14117647
v 0.01956066 -0.00624273 0.00398382 0.11764706 0.63921569 0.14117647
v -0.03404791 -0.00654459 0.00376438 0.11764706 0.63921569 0.14117647
v -0.03404791 -0.00660215 0.01360263 0.11764706 0.63921569 0.14117647
v -0.03404791 -0.00665031 0.01362844 0.11764706 0.63921569 0.14117647
v -0.03404791 -0.00786130 0.01426446 0.11764706 0.63921569 0.14117647
v -0.01772815 -0.00764988 0.01416823 0.11764706 0.63921569 0.14117647
v 0.01956066 -0.00716830 0.01394880 0.11764706 0.63921569 0.14117647
v 0.01956066 -0.00748661 0.00321403 0.11764706 0.63921569 0.14117647
v -0.01772815 -0.00687465 0.00356138 0.11764706 0.63921569 0.14117647
v -0.03404791 -0.00660802 0.00371393 0.11764706 0.63921569 0.14117647
v -0.03404791 -0.00658570 0.00372801 0.11764706 0.63921569 0.14117647
v -0.03404791 -0.00788597 0.01427384 0.11764706 0.63921569 0.14117647
v 0.01956066 -0.00853317 0.01447685 0.11764706 0.63921569 0.14117647
v 0.01956066 -0.00749601 0.00320934 0.11764706 0.63921569 0.14117647
v -0.01772815 -0.00775442 0.00310021 0.11764706 0.63921569 0.14117647
v -0.03404791 -0.00786718 0.00305444 0.11764706 0.63921569 0.14117647
v -0.03404791 -0.00926493 0.01461297 0.11764706 0.63921569 0.14117647
v 0.01956066 -0.00854374 0.01447920 0.11764706 0.63921569 0.14117647
v 0.01956066 -0.00890081 0.00276225 0.11764706 0.63921569 0.14117647
v -0.01772815 -0.00819489 0.00296057 0.11764706 0.63921569 0.14117647
v -0.03404791 -0.00789184 0.00304623 0.11764706 0.63921569 0.14117647
v -0.03404791 -0.00928960 0.01461532 0.11764706 0.63921569 0.14117647
v -0.01772815 -0.00950455 0.01462940 0.11764706 0.63921569 0.14117647
v 0.01956066 -0.00999552 0.01465991 0.11764706 0.63921569 0.14117647
v 0.01956066 -0.01035964 0.00267190 0.11764706 0.63921569 0.14117647
v -0.01772815 -0.00915804 0.00272236 0.11764706 0.63921569 0.14117647
v -0.03404791 -0.00921795 0.00271884 0.11764706 0.63921569 0.14117647
v -0.03404791 -0.01072142 0.01461532 0.11764706 0.63921569 0.14117647
v -0.01772815 -0.01049472 0.01462940 0.11764706 0.63921569 0.14117647
v 0.01956066 -0.01000492 0.01465991 0.11764706 0.63921569 0.14117647
v 0.01956066 -0.01037139 0.00267190 0.11764706 0.63921569 0.14117647
v -0.01772815 -0.00962083 0.00269419 0.11764706 0.63921569 0.14117647
v -0.03404791 -0.00927080 0.00270593 0.11764706 0.63921569 0.14117647
v -0.03404791 -0.01212622 0.01426915 0.11764706 0.63921569 0.14117647
v -0.01772815 -0.01212739 0.01427032 0.11764706 0.63921569 0.14117647
v -0.01772815 -0.01072142 0.01461649 0.11764706 0.63921569 0.14117647
v 0.01956066 -0.01058634 0.01462471 0.11764706 0.63921569 0.14117647
v 0.01956066 -0.01180908 0.00294179 0.11764706 0.63921569 0.14117647
v -0.01772815 -0.01061101 0.00269419 0.11764706 0.63921569 0.14117647
v -0.03404791 -0.00929665 0.00270476 0.11764706 0.63921569 0.14117647
v -0.03404791 -0.01213679 0.01426446 0.11764706 0.63921569 0.14117647
v -0.01772815 -0.01340769 0.01359793 0.11764706 0.63921569 0.14117647
v 0.01956066 -0.01212739 0.01427032 0.11764706 0.63921569 0.14117647
v 0.01956066 -0.01072142 0.01461649 0.11764706 0.63921569 0.14117647
v 0.01956066 -0.01182083 0.00294414 0.11764706 0.63921569 0.14117647
v -0.01772815 -0.01106675 0.00277986 0.11764706 0.63921569 0.14117647
v -0.03404791 -0.01071554 0.00270476 0.11764706 0.63921569 0.14117647
v -0.03404791 -0.01340769 0.01359676 0.11764706 0.63921569 0.14117647
v -0.03404791 -0.01345820 0.01355217 0.11764706 0.63921569 0.14117647
v -0.03404791 -0.01448948 0.01263805 0.11764706 0.63921569 0.14117647
v 0.01956066 -0.01445777 0.01266738 0.11764706 0.63921569 0.14117647
v 0.01956066 -0.01340769 0.01359793 0.11764706 0.63921569 0.14117647
v 0.01956066 -0.01314928 0.00355551 0.11764706 0.63921569 0.14117647
v -0.01772815 -0.01202990 0.00301689 0.11764706 0.63921569 0.14117647
v -0.03404791 -0.01079307 0.00272236 0.11764706 0.63921569 0.14117647
v -0.03404791 -0.01074021 0.00270945 0.11764706 0.63921569 0.14117647
v -0.03404791 -0.01531169 0.01144699 0.11764706 0.63921569 0.14117647
v -0.01772815 -0.01531169 0.01144817 0.11764706 0.63921569 0.14117647
v -0.01772815 -0.01461869 0.01245147 0.11764706 0.63921569 0.14117647
v 0.01956066 -0.01448948 0.01263805 0.11764706 0.63921569 0.14117647
v 0.01956066 -0.01315986 0.00356138 0.11764706 0.63921569 0.14117647
v -0.03404791 -0.01340299 0.00371979 0.11764706 0.63921569 0.14117647
v -0.01772815 -0.01244923 0.00321051 0.11764706 0.63921569 0.14117647
v -0.03404791 -0.01214384 0.00306031 0.11764706 0.63921569 0.14117647
v -0.03404791 -0.01212035 0.00304975 0.11764706 0.63921569 0.14117647
v -0.03404791 -0.01531639 0.01143526 0.11764706 0.63921569 0.14117647
v -0.01772815 -0.01539274 0.01123577 0.11764706 0.63921569 0.14117647
v 0.01956066 -0.01531169 0.01144817 0.11764706 0.63921569 0.14117647
v 0.01956066 -0.01429803 0.00447785 0.11764706 0.63921569 0.14117647
v -0.01772815 -0.01368959 0.00396152 0.11764706 0.63921569 0.14117647
v -0.03404791 -0.01342296 0.00373622 0.11764706 0.63921569 0.14117647
v -0.03404791 -0.01582499 0.01009517 0.11764706 0.63921569 0.14117647
v 0.01956066 -0.01582499 0.01009517 0.11764706 0.63921569 0.14117647
v 0.01956066 -0.01555131 0.01081685 0.11764706 0.63921569 0.14117647
v 0.01956066 -0.01430742 0.00448606 0.11764706 0.63921569 0.14117647
v -0.01772815 -0.01443193 0.00461983 0.11764706 0.63921569 0.14117647
v -0.03404791 -0.01346407 0.00377260 0.11764706 0.63921569 0.14117647
v -0.03404791 -0.01600000 0.00866121 0.11764706 0.63921569 0.14117647
v 0.01956066 -0.01600000 0.00866121 0.11764706 0.63921569 0.14117647
v 0.01956066 -0.01518954 0.00565247 0.11764706 0.63921569 0.14117647
v -0.01772815 -0.01471148 0.00498947 0.11764706 0.63921569 0.14117647
v -0.03404791 -0.01450123 0.00469963 0.11764706 0.63921569 0.14117647
v -0.03404791 -0.01448596 0.00467968 0.11764706 0.63921569 0.14117647
v -0.03404791 -0.01582499 0.00722608 0.11764706 0.63921569 0.14117647
v -0.01772815 -0.01582499 0.00722490 0.11764706 0.63921569 0.14117647
v 0.01956066 -0.01585318 0.00745490 0.11764706 0.63921569 0.14117647
v 0.01956066 -0.01519541 0.00566303 0.11764706 0.63921569 0.14117647
v -0.01772815 -0.01527528 0.00580620 0.11764706 0.63921569 0.14117647
v -0.03404791 -0.01531052 0.00586956 0.11764706 0.63921569 0.14117647
v -0.03404791 -0.01453294 0.00474539 0.11764706 0.63921569 0.14117647
v 0.01956066 -0.01582499 0.00722490 0.11764706 0.63921569 0.14117647
v 0.01956066 -0.01520011 0.00567360 0.11764706 0.63921569 0.14117647
f 664 665 671
f 664 671 676
f 664 676 682
f 664 682 688
f 664 688 694
f 664 694 700
f 664 700 707
f 664 707 712
f 664 712 721
f 664 721 720
f 664 720 726
f 664 726 731
f 664 731 737
f 664 737 743
f 664 743 750
f 664 750 757
f 664 757 766
f 664 766 765
f 664 765 775
f 664 775 774
f 664 774 772
f 664 772 781
f 664 781 787
f 664 787 793
f 664 793 792
f 664 792 800
f 664 800 799
f 664 799 794
f 664 794 788
f 664 788 782
f 664 782 776
f 664 776 767
f 664 767 760
f 664 760 759
f 664 759 758
f 664 758 751
f 664 751 744
f 664 744 738
f 664 738 732
f 664 732 727
f 664 727 722
f 664 722 715
f 664 715 714
f 664 714 713
f 664 713 708
f 664 708 702
f 664 702 697
f 664 697 691
f 664 691 686
f 664 686 680
f 664 680 678
f 664 678 672
f 664 672 666
f 664 666 667
f 664 667 668
f 664 668 669
f 664 669 670
f 664 670 665
f 665 670 671
f 666 672 673
f 666 673 674
f 666 674 667
f 667 674 679
f 667 679 685
f 667 685 690
f 667 690 696
f 667 696 704
f 667 704 710
f 667 710 717
f 667 717 723
f 667 723 728
f 667 728 734
f 667 734 740
f 667 740 747
f 667 747 754
f 667 754 753
f 667 753 762
f 667 762 761
f 667 761 770
f 667 770 778
f 667 778 784
f 667 784 783
f 667 783 789
f 667 789 796
f 667 796 801
f 667 801 802
f 667 802 797
f 667 797 790
f 667 790 785
f 667 785 779
f 667 779 771
f 667 771 763
f 667 763 755
f 667 755 748
f 667 748 741
f 667 741 735
f 667 735 729
f 667 729 724
f 667 724 718
f 667 718 711
f 667 711 705
f 667 705 698
f 667 698 692
f 667 692 687
f 667 687 681
f 667 681 675
f 667 675 669
f 667 669 668
f 669 675 670
f 670 675 671
f 671 675 677
f 671 677 676
f 672 678 673
f 673 678 674
f 674 678 680
f 674 680 679
f 675 681 677
f 676 677 681
f 676 681 683
f 676 683 682
f 679 684 685
f 679 680 684
f 680 686 684
f 681 687 683
f 682 683 689
f 682 689 688
f 683 687 689
f 684 690 685
f 684 686 691
f 684 691 690
f 687 692 693
f 687 693 689
f 688 689 693
f 688 693 694
f 690 691 695
f 690 695 696
f 691 697 695
f 692 698 693
f 693 699 694
f 693 698 699
f 694 699 700
f 695 701 696
f 695 697 702
f 695 702 701
f 696 701 703
f 696 703 704
f 698 705 699
f 699 706 707
f 699 707 700
f 699 705 706
f 701 702 703
f 702 708 703
f 703 708 709
f 703 709 710
f 703 710 704
f 705 711 706
f 706 711 712
f 706 712 707
f 708 713 709
f 709 713 714
f 709 714 715
f 709 715 716
f 709 716 717
f 709 717 710
f 711 718 719
f 711 719 720
f 711 720 721
f 711 721 712
f 715 722 723
f 715 723 716
f 716 723 717
f 718 724 725
f 718 725 719
f 719 725 720
f 720 725 726
f 722 727 723
f 723 727 728
f 724 729 725
f 725 730 731
f 725 731 726
f 725 729 730
f 727 732 733
f 727 733 734
f 727 734 728
f 729 735 736
f 729 736 730
f 730 736 731
f 731 736 737
f 732 738 739
f 732 739 733
f 733 739 740
f 733 740 734
f 735 741 749
f 735 749 742
f 735 742 736
f 736 742 743
f 736 743 737
f 738 744 745
f 738 745 746
f 738 746 739
f 739 746 740
f 740 746 747
f 741 748 749
f 742 749 757
f 742 757 750
f 742 750 743
f 744 751 745
f 745 752 762
f 745 762 753
f 745 753 754
f 745 754 746
f 745 751 752
f 746 754 747
f 748 755 756
f 748 756 749
f 749 756 757
f 751 758 752
f 752 758 759
f 752 759 760
f 752 760 761
f 752 761 762
f 755 763 764
f 755 764 756
f 756 764 765
f 756 765 766
f 756 766 757
f 760 767 768
f 760 768 769
f 760 769 770
f 760 770 761
f 763 771 772
f 763 772 773
f 763 773 764
f 764 773 774
f 764 774 775
f 764 775 765
f 767 776 768
f 768 777 778
f 768 778 769
f 768 776 777
f 769 778 770
f 771 779 780
f 771 780 772
f 772 780 781
f 772 774 773
f 776 782 777
f 777 782 783
f 777 783 784
f 777 784 778
f 779 785 780
f 780 786 787
f 780 787 781
f 780 785 786
f 782 788 789
f 782 789 783
f 785 790 791
f 785 791 786
f 786 791 792
f 786 792 793
f 786 793 787
f 788 794 795
f 788 795 796
f 788 796 789
f 790 797 798
f 790 798 799
f 790 799 791
f 791 799 800
f 791 800 792
f 794 799 795
f 795 799 801
f 795 801 796
f 797 802 798
f 798 802 799
f 799 802 801

o geometry_9
v 0.07500000 0.01599882 0.00865913 0.94117647 0.52156863 0.41176471
v 0.07500000 0.01582485 0.01009508 0.94117647 0.52156863 0.41176471
v 0.07500000 0.01582485 0.00722553 0.94117647 0.52156863 0.41176471
v -0.01773327 0.01597179 0.00843586 0.94117647 0.52156863 0.41176471
v -0.01773327 0.01599882 0.00865913 0.94117647 0.52156863 0.41176471
v -0.01773327 0.01585306 0.00987064 0.94117647 0.52156863 0.41176471
v 0.07500000 0.01531232 0.01144759 0.94117647 0.52156863 0.41176471
v -0.01773327 0.01582485 0.01009508 0.94117647 0.52156863 0.41176471
v 0.07500000 0.01531232 0.00587302 0.94117647 0.52156863 0.41176471
v -0.01773327 0.01582485 0.00722553 0.94117647 0.52156863 0.41176471
v 0.07500000 0.01449062 0.01263795 0.94117647 0.52156863 0.41176471
v -0.01773327 0.01531232 0.01144759 0.94117647 0.52156863 0.41176471
v 0.07500000 0.01449062 0.00468266 0.94117647 0.52156863 0.41176471
v 0.02500246 0.01346085 0.00265565 0.94117647 0.52156863 0.41176471
v 0.02500246 0.01519594 0.00566033 0.94117647 0.52156863 0.41176471
v -0.01773327 0.01527587 0.00580604 0.94117647 0.52156863 0.41176471
v 0.07500000 0.01340795 0.01359799 0.94117647 0.52156863 0.41176471
v -0.01773327 0.01449062 0.01263795 0.94117647 0.52156863 0.41176471
v -0.01773327 0.01432017 0.01278953 0.94117647 0.52156863 0.41176471
v 0.07500000 0.01340795 0.00372262 0.94117647 0.52156863 0.41176471
v 0.07500000 0.01212663 0.00305048 0.94117647 0.52156863 0.41176471
v 0.07500000 0.01072304 0.00270500 0.94117647 0.52156863 0.41176471
v 0.02500246 0.00399195 0.00265565 0.94117647 0.52156863 0.41176471
v 0.02000089 0.01346085 0.00265565 0.94117647 0.52156863 0.41176471
v 0.02000089 0.01519594 0.00566033 0.94117647 0.52156863 0.41176471
v -0.01773327 0.01471162 0.00498936 0.94117647 0.52156863 0.41176471
v 0.07500000 0.01212663 0.01427013 0.94117647 0.52156863 0.41176471
v -0.01773327 0.01340795 0.01359799 0.94117647 0.52156863 0.41176471
v 0.07500000 0.00927714 0.00270500 0.94117647 0.52156863 0.41176471
v 0.07500000 0.00787355 0.00305048 0.94117647 0.52156863 0.41176471
v 0.07500000 0.00659222 0.00372262 0.94117647 0.52156863 0.41176471
v 0.07500000 0.00550956 0.00468266 0.94117647 0.52156863 0.41176471
v 0.07500000 0.00468786 0.00587302 0.94117647 0.52156863 0.41176471
v 0.07500000 0.00417533 0.00722553 0.94117647 0.52156863 0.41176471
v 0.07500000 0.00400018 0.00865913 0.94117647 0.52156863 0.41176471
v 0.02500246 0.00399195 0.01466026 0.94117647 0.52156863 0.41176471
v 0.02000089 0.00399195 0.00265565 0.94117647 0.52156863 0.41176471
v -0.01773327 0.01067484 0.00269913 0.94117647 0.52156863 0.41176471
v -0.01773327 0.01111214 0.00279431 0.94117647 0.52156863 0.41176471
v -0.01773327 0.01207490 0.00303167 0.94117647 0.52156863 0.41176471
v -0.01773327 0.01247811 0.00322791 0.94117647 0.52156863 0.41176471
v -0.01773327 0.01335623 0.00368854 0.94117647 0.52156863 0.41176471
v -0.01773327 0.01370066 0.00397291 0.94117647 0.52156863 0.41176471
v -0.01773327 0.01444360 0.00463096 0.94117647 0.52156863 0.41176471
v 0.07500000 0.01072304 0.01461561 0.94117647 0.52156863 0.41176471
v -0.01773327 0.01212663 0.01427013 0.94117647 0.52156863 0.41176471
v -0.01773327 0.01094287 0.01456155 0.94117647 0.52156863 0.41176471
v 0.07500000 0.00417533 0.01009508 0.94117647 0.52156863 0.41176471
v 0.07500000 0.00468786 0.01144759 0.94117647 0.52156863 0.41176471
v 0.07500000 0.00550956 0.01263795 0.94117647 0.52156863 0.41176471
v 0.07500000 0.00659222 0.01359799 0.94117647 0.52156863 0.41176471
v 0.07500000 0.00787355 0.01427013 0.94117647 0.52156863 0.41176471
v 0.07500000 0.00927714 0.01461561 0.94117647 0.52156863 0.41176471
v 0.02500246 0.00999891 0.01466026 0.94117647 0.52156863 0.41176471
v 0.02000089 0.00399195 0.01466026 0.94117647 0.52156863 0.41176471
v -0.01773327 0.00400018 0.00865913 0.94117647 0.52156863 0.41176471
v -0.01773327 0.00417298 0.00723141 0.94117647 0.52156863 0.41176471
v -0.01773327 0.00432933 0.00681308 0.94117647 0.52156863 0.41176471
v -0.01773327 0.00468199 0.00588477 0.94117647 0.52156863 0.41176471
v -0.01773327 0.00493237 0.00551462 0.94117647 0.52156863 0.41176471
v -0.01773327 0.00549545 0.00469794 0.94117647 0.52156863 0.41176471
v -0.01773327 0.00582695 0.00439712 0.94117647 0.52156863 0.41176471
v -0.01773327 0.00656989 0.00373907 0.94117647 0.52156863 0.41176471
v -0.01773327 0.00696252 0.00352403 0.94117647 0.52156863 0.41176471
v -0.01773327 0.00784064 0.00306340 0.94117647 0.52156863 0.41176471
v -0.01773327 0.00827323 0.00294707 0.94117647 0.52156863 0.41176471
v -0.01773327 0.00923599 0.00270970 0.94117647 0.52156863 0.41176471
v -0.01773327 0.00968387 0.00269913 0.94117647 0.52156863 0.41176471
v -0.01773327 0.01072304 0.01461561 0.94117647 0.52156863 0.41176471
v -0.01773327 0.01049616 0.01462971 0.94117647 0.52156863 0.41176471
v 0.02000089 0.00999891 0.01466026 0.94117647 0.52156863 0.41176471
v -0.01773327 0.00950402 0.01462971 0.94117647 0.52156863 0.41176471
v -0.01773327 0.00908553 0.01458271 0.94117647 0.52156863 0.41176471
v -0.01773327 0.00812159 0.01434534 0.94117647 0.52156863 0.41176471
v -0.01773327 0.00772309 0.01420550 0.94117647 0.52156863 0.41176471
v -0.01773327 0.00684496 0.01374487 0.94117647 0.52156863 0.41176471
v -0.01773327 0.00648760 0.01352043 0.94117647 0.52156863 0.41176471
v -0.01773327 0.00574467 0.01286239 0.94117647 0.52156863 0.41176471
v -0.01773327 0.00544726 0.01256392 0.94117647 0.52156863 0.41176471
v -0.01773327 0.00488300 0.01174724 0.94117647 0.52156863 0.41176471
v -0.01773327 0.00465848 0.01139001 0.94117647 0.52156863 0.41176471
v -0.01773327 0.00430699 0.01046170 0.94117647 0.52156863 0.41176471
v -0.01773327 0.00416710 0.01006335 0.94117647 0.52156863 0.41176471
v -0.01773327 0.00404837 0.00907863 0.94117647 0.52156863 0.41176471
f 803 804 809
f 803 809 813
f 803 813 819
f 803 819 829
f 803 829 847
f 803 847 855
f 803 855 854
f 803 854 853
f 803 853 852
f 803 852 851
f 803 851 850
f 803 850 837
f 803 837 836
f 803 836 835
f 803 835 834
f 803 834 833
f 803 833 832
f 803 832 831
f 803 831 824
f 803 824 823
f 803 823 822
f 803 822 815
f 803 815 811
f 803 811 805
f 803 805 806
f 803 806 807
f 803 807 808
f 803 808 804
f 804 808 810
f 804 810 814
f 804 814 809
f 805 811 812
f 805 812 806
f 806 812 818
f 806 818 828
f 806 828 846
f 806 846 845
f 806 845 844
f 806 844 843
f 806 843 842
f 806 842 841
f 806 841 840
f 806 840 870
f 806 870 869
f 806 869 868
f 806 868 867
f 806 867 866
f 806 866 865
f 806 865 864
f 806 864 863
f 806 863 862
f 806 862 861
f 806 861 860
f 806 860 859
f 806 859 858
f 806 858 886
f 806 886 885
f 806 885 884
f 806 884 883
f 806 883 882
f 806 882 881
f 806 881 880
f 806 880 879
f 806 879 878
f 806 878 877
f 806 877 876
f 806 876 875
f 806 875 874
f 806 874 872
f 806 872 871
f 806 871 849
f 806 849 848
f 806 848 830
f 806 830 821
f 806 821 820
f 806 820 814
f 806 814 810
f 806 810 808
f 806 808 807
f 809 814 820
f 809 820 813
f 811 815 816
f 811 816 817
f 811 817 818
f 811 818 812
f 813 820 821
f 813 821 819
f 815 822 816
f 816 822 823
f 816 823 824
f 816 824 831
f 816 831 825
f 816 825 839
f 816 839 826
f 816 826 827
f 816 827 817
f 817 827 818
f 818 827 826
f 818 826 828
f 819 821 830
f 819 830 848
f 819 848 829
f 825 831 832
f 825 832 833
f 825 833 834
f 825 834 835
f 825 835 836
f 825 836 837
f 825 837 838
f 825 838 857
f 825 857 839
f 826 839 870
f 826 870 840
f 826 840 841
f 826 841 842
f 826 842 843
f 826 843 844
f 826 844 845
f 826 845 846
f 826 846 828
f 829 848 849
f 829 849 847
f 837 850 838
f 838 850 851
f 838 851 852
f 838 852 853
f 838 853 854
f 838 854 855
f 838 855 847
f 838 847 856
f 838 856 873
f 838 873 857
f 839 857 858
f 839 858 859
f 839 859 860
f 839 860 861
f 839 861 862
f 839 862 863
f 839 863 864
f 839 864 865
f 839 865 866
f 839 866 867
f 839 867 868
f 839 868 869
f 839 869 870
f 847 849 871
f 847 871 872
f 847 872 856
f 856 872 873
f 857 873 872
f 857 872 874
f 857 874 875
f 857 875 876
f 857 876 877
f 857 877 878
f 857 878 879
f 857 879 880
f 857 880 881
f 857 881 882
f 857 882 883
f 857 883 884
f 857 884 885
f 857 885 886
f 857 886 858