# https://github.com/mikedh/trimesh
v 0.00000000 0.00949970 -0.00700030
v 0.00000000 -0.00699210 -0.00765810
v 0.00000000 -0.00746390 -0.00840900
v 0.00000000 0.00826850 -0.00550010
v 0.00000000 -0.00669930 -0.00682110
v 0.00000000 0.01099990 -0.00823150
v 0.00000000 -0.00809100 -0.00903600
v 0.00000000 -0.00884180 -0.00950780
v 0.00000000 0.00735360 -0.00378850
v 0.00000000 -0.00660000 -0.00594000
v 0.00000000 0.01271150 -0.00914640
v 0.00000000 -0.00967880 -0.00980070
v 0.00000000 0.00679030 -0.00193130
v 0.00000000 0.01456860 -0.00970970
v 0.00000000 0.00660000 -0.00000000
v 0.00000000 -0.00660000 0.00594000
v 0.00000000 0.00679030 0.00193140
v 0.00000000 0.00735360 0.00378860
v 0.00000000 -0.00669930 0.00682120
v 0.00000000 0.00826850 0.00550020
v 0.00000000 -0.00699210 0.00765820
v 0.00000000 0.00949970 0.00700040
v 0.00000000 -0.00746390 0.00840910
v 0.00000000 0.01099990 0.00823160
v 0.00000000 -0.00809100 0.00903610
v 0.00000000 0.01650000 0.00990000
v 0.00000000 -0.01056000 0.00990000
v 0.00000000 -0.00967880 0.00980080
v 0.00000000 0.01456860 0.00970980
v 0.00000000 -0.00884180 0.00950790
v 0.00000000 0.01271150 0.00914650
v 0.00000000 -0.01056000 -0.00990000
v 0.00000000 0.01650000 -0.00990000
v 0.07500000 0.00679030 -0.00193130
v 0.07500000 0.00660000 -0.00000000
v 0.07500000 0.00735360 -0.00378850
v 0.07500000 0.00826850 -0.00550010
v 0.07500000 0.00949970 -0.00700030
v 0.07500000 0.01099990 -0.00823150
v 0.07500000 0.01271150 -0.00914640
v 0.07500000 0.01456860 -0.00970970
v -0.07500000 0.01843140 -0.00970970
v -0.07500000 0.01650000 -0.00990000
v 0.07500000 0.01650000 -0.00990000
v 0.07500000 0.01843140 -0.00970970
v 0.07500000 0.02028860 -0.00914640
v -0.07500000 0.02028860 -0.00914640
v 0.07500000 0.02200020 -0.00823150
v -0.07500000 0.02200020 -0.00823150
v 0.07500000 0.02350040 -0.00700030
v -0.07500000 0.02350040 -0.00700030
v 0.07500000 0.02473160 -0.00550010
v -0.07500000 0.02473160 -0.00550010
v 0.07500000 0.02564640 -0.00378850
v -0.07500000 0.02564640 -0.00378850
v 0.07500000 0.02620980 -0.00193130
v -0.07500000 0.02620980 -0.00193130
v 0.07500000 0.02640000 -0.00000000
v -0.07500000 0.02640000 -0.00000000
v 0.07500000 0.02620980 0.00193140
v -0.07500000 0.02620980 0.00193140
v 0.07500000 0.02564640 0.00378860
v -0.07500000 0.02564640 0.00378860
v 0.07500000 0.02473160 0.00550020
v -0.07500000 0.02473160 0.00550020
v 0.07500000 0.02350040 0.00700040
v -0.07500000 0.02350040 0.00700040
v 0.07500000 0.02200020 0.00823160
v -0.07500000 0.02200020 0.00823160
v 0.07500000 0.02028860 0.00914650
v -0.07500000 0.02028860 0.00914650
v 0.07500000 0.01843140 0.00970980
v -0.07500000 0.01843140 0.00970980
v -0.07500000 0.01650000 0.00990000
v 0.07500000 0.01650000 0.00990000
v 0.07500000 0.01456860 0.00970980
v 0.07500000 0.01271150 0.00914650
v 0.07500000 0.01099990 0.00823160
v 0.07500000 0.00949970 0.00700040
v 0.07500000 0.00826850 0.00550020
v 0.07500000 0.00735360 0.00378860
v 0.07500000 0.00679030 0.00193140
v 0.07500000 -0.01056000 -0.00990000
v 0.07500000 -0.00967880 -0.00980070
v 0.07500000 -0.00884180 -0.00950780
v 0.07500000 -0.00809100 -0.00903600
v 0.07500000 -0.00746390 -0.00840900
v 0.07500000 -0.00699210 -0.00765810
v 0.07500000 -0.00669930 -0.00682110
v 0.07500000 -0.00660000 -0.00594000
v 0.07500000 -0.00660000 0.00594000
v 0.07500000 -0.00669930 0.00682120
v 0.07500000 -0.00699210 0.00765820
v 0.07500000 -0.00746390 0.00840910
v 0.07500000 -0.00809100 0.00903610
v 0.07500000 -0.00884180 0.00950790
v 0.07500000 -0.00967880 0.00980080
v 0.07500000 -0.01056000 0.00990000
v -0.07500000 -0.02244000 -0.00990000
v 0.07500000 -0.02244000 -0.00990000
v 0.07500000 -0.02640000 -0.00594000
v -0.07500000 -0.02640000 -0.00594000
v -0.07500000 -0.02630070 -0.00682110
v 0.07500000 -0.02630070 -0.00682110
v -0.07500000 -0.02600780 -0.00765810
v 0.07500000 -0.02600780 -0.00765810
v 0.07500000 -0.02553600 -0.00840900
v -0.07500000 -0.02553600 -0.00840900
v 0.07500000 -0.02490900 -0.00903600
v -0.07500000 -0.02490900 -0.00903600
v 0.07500000 -0.02415820 -0.00950780
v -0.07500000 -0.02415820 -0.00950780
v -0.07500000 -0.02332120 -0.00980070
v 0.07500000 -0.02332120 -0.00980070
v -0.07500000 -0.02640000 0.00594000
v 0.07500000 -0.02640000 0.00594000
v 0.07500000 -0.02332120 0.00980080
v -0.07500000 -0.02244000 0.00990000
v -0.07500000 -0.02332120 0.00980080
v 0.07500000 -0.02244000 0.00990000
v 0.07500000 -0.02415820 0.00950790
v -0.07500000 -0.02415820 0.00950790
v 0.07500000 -0.02490900 0.00903610
v -0.07500000 -0.02490900 0.00903610
v 0.07500000 -0.02553600 0.00840910
v -0.07500000 -0.02553600 0.00840910
v -0.07500000 -0.02600780 0.00765820
v 0.07500000 -0.02600780 0.00765820
v 0.07500000 -0.02630070 0.00682120
v -0.07500000 -0.02630070 0.00682120
f 1 2 3
f 4 5 2
f 4 2 1
f 6 7 8
f 6 3 7
f 6 1 3
f 9 10 5
f 9 5 4
f 11 8 12
f 11 6 8
f 13 10 9
f 14 11 12
f 15 16 10
f 15 10 13
f 17 16 15
f 18 19 16
f 18 16 17
f 20 21 19
f 20 19 18
f 22 23 21
f 22 21 20
f 24 25 23
f 24 23 22
f 26 27 28
f 26 28 29
f 29 28 30
f 29 30 25
f 29 25 31
f 31 25 24
f 32 33 12
f 12 33 14
f 34 35 15
f 34 15 13
f 36 13 9
f 36 34 13
f 37 9 4
f 37 36 9
f 38 4 1
f 38 37 4
f 39 1 6
f 39 38 1
f 40 6 11
f 40 39 6
f 41 11 14
f 41 40 11
f 42 33 43
f 44 41 14
f 44 14 33
f 45 33 42
f 45 44 33
f 46 45 42
f 46 42 47
f 48 46 47
f 48 47 49
f 50 48 49
f 50 49 51
f 52 50 51
f 52 51 53
f 54 52 53
f 54 53 55
f 56 54 55
f 56 55 57
f 58 56 57
f 58 57 59
f 60 58 59
f 60 59 61
f 62 60 61
f 62 61 63
f 64 62 63
f 64 63 65
f 66 64 65
f 66 65 67
f 68 66 67
f 68 67 69
f 70 69 71
f 70 68 69
f 72 71 73
f 72 70 71
f 26 73 74
f 26 72 73
f 75 72 26
f 76 26 29
f 76 75 26
f 77 29 31
f 77 76 29
f 78 31 24
f 78 77 31
f 79 24 22
f 79 78 24
f 80 22 20
f 80 79 22
f 81 20 18
f 81 80 20
f 82 18 17
f 82 81 18
f 35 82 17
f 35 17 15
f 40 38 39
f 34 36 37
f 34 37 38
f 44 40 41
f 44 38 40
f 45 38 44
f 46 38 45
f 80 35 34
f 80 81 82
f 80 82 35
f 80 34 38
f 79 80 38
f 50 46 48
f 78 79 38
f 75 76 77
f 75 77 78
f 75 38 46
f 75 46 50
f 75 78 38
f 58 50 52
f 58 52 54
f 58 54 56
f 60 50 58
f 70 72 75
f 70 75 50
f 62 50 60
f 68 70 50
f 66 62 64
f 66 68 50
f 66 50 62
f 83 32 12
f 84 83 12
f 85 12 8
f 85 8 7
f 85 84 12
f 86 85 7
f 87 7 3
f 87 86 7
f 88 3 2
f 88 2 5
f 88 87 3
f 89 88 5
f 90 5 10
f 90 89 5
f 91 10 16
f 91 90 10
f 92 16 19
f 92 91 16
f 93 19 21
f 93 21 23
f 93 92 19
f 94 93 23
f 95 23 25
f 95 94 23
f 96 25 30
f 96 30 28
f 96 95 25
f 97 96 28
f 98 28 27
f 98 97 28
f 32 99 43
f 33 32 43
f 83 100 32
f 100 99 32
f 101 102 103
f 104 103 105
f 104 101 103
f 106 104 105
f 107 105 108
f 107 106 105
f 109 108 110
f 109 107 108
f 111 110 112
f 111 112 113
f 111 109 110
f 114 113 99
f 114 111 113
f 100 114 99
f 101 115 102
f 101 116 115
f 117 118 119
f 117 120 118
f 121 119 122
f 121 117 119
f 123 122 124
f 123 121 122
f 125 124 126
f 125 126 127
f 125 123 124
f 128 125 127
f 129 127 130
f 129 128 127
f 116 130 115
f 116 129 130
f 27 74 118
f 27 26 74
f 120 98 27
f 118 120 27
f 100 101 104
f 100 104 106
f 100 106 107
f 100 107 109
f 100 109 111
f 100 111 114
f 116 101 100
f 123 125 128
f 123 128 129
f 87 84 85
f 87 85 86
f 117 121 123
f 120 129 116
f 120 116 100
f 120 123 129
f 120 117 123
f 90 100 83
f 90 83 84
f 90 87 88
f 90 88 89
f 90 120 100
f 90 84 87
f 98 90 91
f 98 120 90
f 97 98 91
f 92 97 91
f 94 92 93
f 94 95 96
f 94 96 97
f 94 97 92
f 99 103 102
f 99 105 103
f 99 108 105
f 99 110 108
f 99 112 110
f 99 113 112
f 115 99 102
f 124 127 126
f 119 124 122
f 119 127 124
f 118 130 127
f 118 115 130
f 118 99 115
f 118 127 119
f 47 42 43
f 49 47 43
f 53 51 49
f 55 53 49
f 57 55 49
f 74 43 99
f 74 99 118
f 61 59 57
f 69 73 71
f 69 74 73
f 65 63 61
f 65 49 43
f 65 43 74
f 65 57 49
f 65 61 57
f 67 74 69
f 67 65 74