# https://github.com/mikedh/trimesh
v -0.05569164 -0.04099651 0.05000000 0.94117647 0.52156863 0.41176471
v -0.07329083 -0.04099651 0.05000000 0.94117647 0.52156863 0.41176471
v -0.05569164 -0.05545210 0.05000000 0.94117647 0.52156863 0.41176471
v -0.05569164 -0.04099651 -0.00000000 0.94117647 0.52156863 0.41176471
v -0.07329083 -0.04599618 0.05000000 0.94117647 0.52156863 0.41176471
v -0.07329083 -0.04099651 -0.00000000 0.94117647 0.52156863 0.41176471
v -0.05569164 -0.05545210 -0.00000000 0.94117647 0.52156863 0.41176471
v -0.07329083 -0.04599618 -0.00000000 0.94117647 0.52156863 0.41176471
f 1 2 5
f 1 5 3
f 1 3 7
f 1 7 4
f 1 4 6
f 1 6 2
f 2 6 8
f 2 8 5
f 3 5 8
f 3 8 7
f 4 7 8
f 4 8 6