# https://github.com/mikedh/trimesh
v -0.09143053 -0.08044130 0.05000000 0.56470588 0.92549020 0.07058824
v -0.09298291 -0.07795757 0.05000000 0.56470588 0.92549020 0.07058824
v -0.09807730 -0.08044130 0.05000000 0.56470588 0.92549020 0.07058824
v -0.09143053 -0.08044130 -0.00000000 0.56470588 0.92549020 0.07058824
v -0.09298096 -0.07795757 0.00022514 0.56470588 0.92549020 0.07058824
v -0.09807730 -0.07795757 0.05000000 0.56470588 0.92549020 0.07058824
v -0.09807730 -0.08044130 -0.00000000 0.56470588 0.92549020 0.07058824
v -0.09298096 -0.07795757 -0.00000000 0.56470588 0.92549020 0.07058824
v -0.09807730 -0.07795757 -0.00000000 0.56470588 0.92549020 0.07058824
f 1 2 6
f 1 6 3
f 1 3 7
f 1 7 4
f 1 4 8
f 1 8 5
f 1 5 2
f 2 5 8
f 2 8 9
f 2 9 6
f 3 6 9
f 3 9 7
f 4 7 9
f 4 9 8