# https://github.com/mikedh/trimesh
v -0.05387170 -0.05747548 -0.00000000 0.11764706 0.63921569 0.14117647
v -0.05569093 -0.05545092 -0.00000000 0.11764706 0.63921569 0.14117647
v -0.04849640 -0.05747548 -0.00000000 0.11764706 0.63921569 0.14117647
v -0.05387170 -0.05747548 0.05000000 0.11764706 0.63921569 0.14117647
v -0.05569093 -0.04099671 -0.00000000 0.11764706 0.63921569 0.14117647
v -0.05569093 -0.05545092 0.05000000 0.11764706 0.63921569 0.14117647
v -0.04849640 -0.04099671 -0.00000000 0.11764706 0.63921569 0.14117647
v -0.04849640 -0.05747548 0.05000000 0.11764706 0.63921569 0.14117647
v -0.05569093 -0.04099671 0.05000000 0.11764706 0.63921569 0.14117647
v -0.04849640 -0.04099671 0.05000000 0.11764706 0.63921569 0.14117647
f 1 2 5
f 1 5 7
f 1 7 3
f 1 3 8
f 1 8 4
f 1 4 6
f 1 6 2
f 2 6 9
f 2 9 5
f 3 7 10
f 3 10 8
f 4 8 10
f 4 10 9
f 4 9 6
f 5 9 10
f 5 10 7