# https://github.com/mikedh/trimesh

o geometry_0
v -0.05349603 -0.06814120 -0.00000000 0.54509804 0.71372549 0.60000000
v -0.05387228 -0.05747548 -0.00000000 0.54509804 0.71372549 0.60000000
v -0.04849693 -0.06814120 -0.00000000 0.54509804 0.71372549 0.60000000
v -0.05349603 -0.06814120 0.05000000 0.54509804 0.71372549 0.60000000
v -0.04849693 -0.05747548 -0.00000000 0.54509804 0.71372549 0.60000000
v -0.05387228 -0.05747548 0.05000000 0.54509804 0.71372549 0.60000000
v -0.04849693 -0.06814120 0.05000000 0.54509804 0.71372549 0.60000000
v -0.04849693 -0.05747548 0.05000000 0.54509804 0.71372549 0.60000000
f 1 2 5
f 1 5 3
f 1 3 7
f 1 7 4
f 1 4 6
f 1 6 2
f 2 6 8
f 2 8 5
f 3 5 8
f 3 8 7
f 4 7 8
f 4 8 6

o geometry_1
v -0.09807730 -0.06814120 -0.00000000 0.54117647 0.42352941 0.64313725
v -0.09807730 -0.05747548 -0.00000000 0.54117647 0.42352941 0.64313725
v -0.09307776 -0.06814120 -0.00000000 0.54117647 0.42352941 0.64313725
v -0.09807730 -0.06814120 0.05000000 0.54117647 0.42352941 0.64313725
v -0.09270152 -0.05747548 -0.00000000 0.54117647 0.42352941 0.64313725
v -0.09807730 -0.05747548 0.05000000 0.54117647 0.42352941 0.64313725
v -0.09307776 -0.06814120 0.05000000 0.54117647 0.42352941 0.64313725
v -0.09270152 -0.05747548 0.05000000 0.54117647 0.42352941 0.64313725
f 9 10 13
f 9 13 11
f 9 11 15
f 9 15 12
f 9 12 14
f 9 14 10
f 10 14 16
f 10 16 13
f 11 13 16
f 11 16 15
f 12 15 16
f 12 16 14

o geometry_2
v -0.05469299 -0.08001869 0.05000000 0.43529412 0.89019608 0.96078431
v -0.07286188 -0.09029480 0.05000000 0.43529412 0.89019608 0.96078431
v -0.05469299 -0.09529451 0.05000000 0.43529412 0.89019608 0.96078431
v -0.05469299 -0.08001869 -0.00000000 0.43529412 0.89019608 0.96078431
v -0.07286188 -0.09529451 0.05000000 0.43529412 0.89019608 0.96078431
v -0.07286188 -0.09029480 -0.00000000 0.43529412 0.89019608 0.96078431
v -0.05469299 -0.09529451 -0.00000000 0.43529412 0.89019608 0.96078431
v -0.07286188 -0.09529451 -0.00000000 0.43529412 0.89019608 0.96078431
f 17 18 21
f 17 21 19
f 17 19 23
f 17 23 20
f 17 20 22
f 17 22 18
f 18 22 24
f 18 24 21
f 19 21 24
f 19 24 23
f 20 23 24
f 20 24 22

o geometry_3
v -0.05469299 -0.09529335 -0.00000000 0.38039216 0.78823529 0.52549020
v -0.05469299 -0.08001744 -0.00000000 0.38039216 0.78823529 0.52549020
v -0.04849640 -0.09529335 -0.00000000 0.38039216 0.78823529 0.52549020
v -0.05469299 -0.09529335 0.05000000 0.38039216 0.78823529 0.52549020
v -0.05349625 -0.06814386 -0.00000000 0.38039216 0.78823529 0.52549020
v -0.05469299 -0.08001744 0.05000000 0.38039216 0.78823529 0.52549020
v -0.04849640 -0.06814386 -0.00000000 0.38039216 0.78823529 0.52549020
v -0.04849640 -0.09529335 0.05000000 0.38039216 0.78823529 0.52549020
v -0.05349625 -0.06814386 0.05000000 0.38039216 0.78823529 0.52549020
v -0.04849640 -0.06814386 0.05000000 0.38039216 0.78823529 0.52549020
f 25 26 29
f 25 29 31
f 25 31 27
f 25 27 32
f 25 32 28
f 25 28 30
f 25 30 26
f 26 30 33
f 26 33 29
f 27 31 34
f 27 34 32
f 28 32 34
f 28 34 33
f 28 33 30
f 29 33 34
f 29 34 31

o geometry_4
v -0.09143053 -0.08044130 0.05000000 0.56470588 0.92549020 0.07058824
v -0.09298291 -0.07795757 0.05000000 0.56470588 0.92549020 0.07058824
v -0.09807730 -0.08044130 0.05000000 0.56470588 0.92549020 0.07058824
v -0.09143053 -0.08044130 -0.00000000 0.56470588 0.92549020 0.07058824
v -0.09298096 -0.07795757 0.00022514 0.56470588 0.92549020 0.07058824
v -0.09807730 -0.07795757 0.05000000 0.56470588 0.92549020 0.07058824
v -0.09807730 -0.08044130 -0.00000000 0.56470588 0.92549020 0.07058824
v -0.09298096 -0.07795757 -0.00000000 0.56470588 0.92549020 0.07058824
v -0.09807730 -0.07795757 -0.00000000 0.56470588 0.92549020 0.07058824
f 35 36 40
f 35 40 37
f 35 37 41
f 35 41 38
f 35 38 42
f 35 42 39
f 35 39 36
f 36 39 42
f 36 42 43
f 36 43 40
f 37 40 43
f 37 43 41
f 38 41 43
f 38 43 42

o geometry_5
v -0.09028526 -0.05510753 0.05000000 0.08627451 0.01960784 0.83137255
v -0.09807730 -0.05510753 0.05000000 0.08627451 0.01960784 0.83137255
v -0.09270159 -0.05747548 0.05000000 0.08627451 0.01960784 0.83137255
v -0.09028526 -0.05510753 -0.00000000 0.08627451 0.01960784 0.83137255
v -0.09807730 -0.05747548 0.05000000 0.08627451 0.01960784 0.83137255
v -0.09807730 -0.05510753 -0.00000000 0.08627451 0.01960784 0.83137255
v -0.09270159 -0.05747548 -0.00000000 0.08627451 0.01960784 0.83137255
v -0.09807730 -0.05747548 -0.00000000 0.08627451 0.01960784 0.83137255
f 44 45 48
f 44 48 46
f 44 46 50
f 44 50 47
f 44 47 49
f 44 49 45
f 45 49 51
f 45 51 48
f 46 48 51
f 46 51 50
f 47 50 51
f 47 51 49

o geometry_6
v -0.07550869 -0.09529601 -0.00000000 0.77647059 0.86666667 0.97647059
v -0.07550869 -0.08971485 -0.00000000 0.77647059 0.86666667 0.97647059
v -0.07286188 -0.09529601 -0.00000000 0.77647059 0.86666667 0.97647059
v -0.07550869 -0.09529601 0.05000000 0.77647059 0.86666667 0.97647059
v -0.07286188 -0.09029613 -0.00000000 0.77647059 0.86666667 0.97647059
v -0.07550869 -0.08971485 0.05000000 0.77647059 0.86666667 0.97647059
v -0.07286188 -0.09529601 0.05000000 0.77647059 0.86666667 0.97647059
v -0.07286188 -0.09029613 0.05000000 0.77647059 0.86666667 0.97647059
f 52 53 56
f 52 56 54
f 52 54 58
f 52 58 55
f 52 55 57
f 52 57 53
f 53 57 59
f 53 59 56
f 54 56 59
f 54 59 58
f 55 58 59
f 55 59 57

o geometry_7
v -0.09807730 -0.07795733 -0.00000000 0.79607843 0.45882353 0.78039216
v -0.09807730 -0.06814120 -0.00000000 0.79607843 0.45882353 0.78039216
v -0.09298033 -0.07795733 -0.00000000 0.79607843 0.45882353 0.78039216
v -0.09807730 -0.07795733 0.05000000 0.79607843 0.45882353 0.78039216
v -0.09307762 -0.06814120 -0.00000000 0.79607843 0.45882353 0.78039216
v -0.09807730 -0.06814120 0.05000000 0.79607843 0.45882353 0.78039216
v -0.09298033 -0.07795733 0.00022514 0.79607843 0.45882353 0.78039216
v -0.09298283 -0.07795733 0.05000000 0.79607843 0.45882353 0.78039216
v -0.09307762 -0.06814120 0.05000000 0.79607843 0.45882353 0.78039216
v -0.09298183 -0.07795253 0.05000000 0.79607843 0.45882353 0.78039216
f 60 61 64
f 60 64 62
f 60 62 66
f 60 66 67
f 60 67 63
f 60 63 65
f 60 65 61
f 61 65 68
f 61 68 64
f 62 64 68
f 62 68 66
f 63 67 69
f 63 69 68
f 63 68 65
f 66 68 69
f 66 69 67

o geometry_8
v -0.05387170 -0.05747548 -0.00000000 0.11764706 0.63921569 0.14117647
v -0.05569093 -0.05545092 -0.00000000 0.11764706 0.63921569 0.14117647
v -0.04849640 -0.05747548 -0.00000000 0.11764706 0.63921569 0.14117647
v -0.05387170 -0.05747548 0.05000000 0.11764706 0.63921569 0.14117647
v -0.05569093 -0.04099671 -0.00000000 0.11764706 0.63921569 0.14117647
v -0.05569093 -0.05545092 0.05000000 0.11764706 0.63921569 0.14117647
v -0.04849640 -0.04099671 -0.00000000 0.11764706 0.63921569 0.14117647
v -0.04849640 -0.05747548 0.05000000 0.11764706 0.63921569 0.14117647
v -0.05569093 -0.04099671 0.05000000 0.11764706 0.63921569 0.14117647
v -0.04849640 -0.04099671 0.05000000 0.11764706 0.63921569 0.14117647
f 70 71 74
f 70 74 76
f 70 76 72
f 70 72 77
f 70 77 73
f 70 73 75
f 70 75 71
f 71 75 78
f 71 78 74
f 72 76 79
f 72 79 77
f 73 77 79
f 73 79 78
f 73 78 75
f 74 78 79
f 74 79 76

o geometry_9
v -0.05569164 -0.04099651 0.05000000 0.94117647 0.52156863 0.41176471
v -0.07329083 -0.04099651 0.05000000 0.94117647 0.52156863 0.41176471
v -0.05569164 -0.05545210 0.05000000 0.94117647 0.52156863 0.41176471
v -0.05569164 -0.04099651 -0.00000000 0.94117647 0.52156863 0.41176471
v -0.07329083 -0.04599618 0.05000000 0.94117647 0.52156863 0.41176471
v -0.07329083 -0.04099651 -0.00000000 0.94117647 0.52156863 0.41176471
v -0.05569164 -0.05545210 -0.00000000 0.94117647 0.52156863 0.41176471
v -0.07329083 -0.04599618 -0.00000000 0.94117647 0.52156863 0.41176471
f 80 81 84
f 80 84 82
f 80 82 86
f 80 86 83
f 80 83 85
f 80 85 81
f 81 85 87
f 81 87 84
f 82 84 87
f 82 87 86
f 83 86 87
f 83 87 85

o geometry_10
v -0.07550869 -0.08971386 0.05000000 0.26274510 0.77254902 0.45490196
v -0.09142999 -0.08044275 0.05000000 0.26274510 0.77254902 0.45490196
v -0.07550869 -0.09529456 0.05000000 0.26274510 0.77254902 0.45490196
v -0.07550869 -0.08971386 -0.00000000 0.26274510 0.77254902 0.45490196
v -0.09807730 -0.08044275 0.05000000 0.26274510 0.77254902 0.45490196
v -0.09142999 -0.08044275 -0.00000000 0.26274510 0.77254902 0.45490196
v -0.09807730 -0.09529456 0.05000000 0.26274510 0.77254902 0.45490196
v -0.07550869 -0.09529456 -0.00000000 0.26274510 0.77254902 0.45490196
v -0.09807730 -0.08044275 -0.00000000 0.26274510 0.77254902 0.45490196
v -0.09807730 -0.09529456 -0.00000000 0.26274510 0.77254902 0.45490196
f 88 89 92
f 88 92 94
f 88 94 90
f 88 90 95
f 88 95 91
f 88 91 93
f 88 93 89
f 89 93 96
f 89 96 92
f 90 94 97
f 90 97 95
f 91 95 97
f 91 97 96
f 91 96 93
f 92 96 97
f 92 97 94

o geometry_11
v -0.07329325 -0.04099510 0.05000000 0.56470588 0.01568627 0.61568627
v -0.09807730 -0.04099510 0.05000000 0.56470588 0.01568627 0.61568627
v -0.07329325 -0.04599579 0.05000000 0.56470588 0.01568627 0.61568627
v -0.07329325 -0.04099510 -0.00000000 0.56470588 0.01568627 0.61568627
v -0.09807730 -0.05510753 0.05000000 0.56470588 0.01568627 0.61568627
v -0.09807730 -0.04099510 -0.00000000 0.56470588 0.01568627 0.61568627
v -0.09028422 -0.05510753 0.05000000 0.56470588 0.01568627 0.61568627
v -0.07329325 -0.04599579 -0.00000000 0.56470588 0.01568627 0.61568627
v -0.09807730 -0.05510753 -0.00000000 0.56470588 0.01568627 0.61568627
v -0.09028422 -0.05510753 -0.00000000 0.56470588 0.01568627 0.61568627
f 98 99 102
f 98 102 104
f 98 104 100
f 98 100 105
f 98 105 101
f 98 101 103
f 98 103 99
f 99 103 106
f 99 106 102
f 100 104 107
f 100 107 105
f 101 105 107
f 101 107 106
f 101 106 103
f 102 106 107
f 102 107 104