# https://github.com/mikedh/trimesh
v -0.02864062 -0.02175201 0.01847662
v -0.02738384 -0.02175201 0.01847662
v -0.02864062 -0.02175201 0.02202991
v -0.02864062 -0.00000825 0.01847662
v -0.02864021 -0.01893401 -0.01261037
v -0.02863979 -0.02080274 -0.00067770
v -0.02671316 -0.02175201 0.02175096
v -0.02759776 -0.02080274 -0.00067770
v -0.02838232 -0.02175201 0.02275523
v -0.02864062 -0.00000825 0.02202991
v -0.02863979 -0.00000825 0.01546731
v -0.02864021 -0.01078222 -0.01261037
v -0.02760908 -0.01893401 -0.01261037
v -0.02511516 -0.01714827 0.00047302
v -0.02475722 -0.01640545 0.00047302
v -0.02671316 -0.02175201 0.02178234
v -0.02838232 -0.00000825 0.02275523
v -0.02765595 -0.02175201 0.02301327
v -0.02850916 -0.00000825 0.01509070
v -0.02841498 -0.00793230 -0.01261037
v -0.02860421 -0.00890924 -0.01261037
v -0.02863728 -0.00984573 -0.01261037
v -0.02760908 -0.00989043 -0.01261037
v -0.02436367 -0.01508585 -0.00001516
v -0.02515828 -0.01708655 -0.00014767
v -0.02436367 -0.01508585 0.00008596
v -0.02671316 -0.02174775 0.02301327
v -0.02671902 -0.02175201 0.02301327
v -0.02765595 -0.00000825 0.02301327
v -0.02838232 -0.00000825 0.01472805
v -0.02783388 -0.00793654 -0.01261037
v -0.02786654 -0.00000825 0.01472805
v -0.02763503 -0.00895392 -0.01261037
v -0.02436367 -0.01489217 -0.00001516
v -0.02436367 -0.01489217 0.00008596
v -0.02671316 -0.01893613 0.02301327
v -0.02737378 -0.00000825 0.02301327
v -0.02760908 -0.00000825 0.01546731
v -0.02737378 -0.00000825 0.02175444
f 1 2 7
f 1 7 16
f 1 16 28
f 1 28 18
f 1 18 9
f 1 9 3
f 1 3 10
f 1 10 4
f 1 4 12
f 1 12 5
f 1 5 6
f 1 6 8
f 1 8 2
f 2 8 7
f 3 9 17
f 3 17 10
f 4 11 12
f 4 10 17
f 4 17 29
f 4 29 37
f 4 37 39
f 4 39 38
f 4 38 32
f 4 32 30
f 4 30 19
f 4 19 11
f 5 12 22
f 5 22 21
f 5 21 20
f 5 20 31
f 5 31 33
f 5 33 23
f 5 23 13
f 5 13 8
f 5 8 6
f 7 14 15
f 7 15 16
f 7 8 14
f 8 13 14
f 9 18 29
f 9 29 17
f 11 19 20
f 11 20 21
f 11 21 22
f 11 22 12
f 13 23 34
f 13 34 24
f 13 24 15
f 13 15 25
f 13 25 14
f 14 25 15
f 15 24 26
f 15 26 27
f 15 27 16
f 16 27 28
f 18 28 27
f 18 27 36
f 18 36 37
f 18 37 29
f 19 30 20
f 20 30 32
f 20 32 31
f 23 33 34
f 24 34 35
f 24 35 26
f 26 35 36
f 26 36 27
f 31 32 38
f 31 38 34
f 31 34 33
f 34 38 39
f 34 39 37
f 34 37 35
f 35 37 36

