# https://github.com/mikedh/trimesh
v -0.02765633 0.02301597 0.01988641
v -0.02765633 0.02301597 -0.00000369
v -0.02838269 0.02275680 0.01988641
v -0.02758657 0.02301372 0.01988641
v -0.02758657 0.02301372 -0.00000369
v -0.02838269 0.02275680 -0.00000369
v -0.02864052 0.02202884 0.01988641
v -0.02758657 0.02111382 0.01988641
v -0.02758657 0.02111382 -0.00000369
v -0.02864052 0.02202884 -0.00000369
v -0.02864062 0.01259917 0.01988447
v -0.02864052 0.01259917 0.01988641
v -0.02760948 0.01259917 0.01988641
v -0.02760948 -0.00000825 0.01988447
v -0.02760948 0.01546819 -0.00000369
v -0.02760948 -0.00000825 0.01546681
v -0.02864052 0.01546819 -0.00000369
v -0.02864062 0.01259917 0.01078050
v -0.02864062 -0.00000825 0.01988447
v -0.02786732 0.01473347 -0.00000369
v -0.02786721 -0.00000825 0.01473087
v -0.02838269 0.01473347 -0.00000369
v -0.02838279 -0.00000825 0.01473087
v -0.02864062 -0.00000825 0.01546681
v -0.02864062 0.01171797 0.01078050
f 1 2 6
f 1 6 3
f 1 3 7
f 1 7 12
f 1 12 13
f 1 13 8
f 1 8 4
f 1 4 5
f 1 5 2
f 2 5 9
f 2 9 15
f 2 15 20
f 2 20 22
f 2 22 17
f 2 17 10
f 2 10 6
f 3 6 10
f 3 10 7
f 4 8 9
f 4 9 5
f 7 10 18
f 7 18 11
f 7 11 19
f 7 19 12
f 8 13 14
f 8 14 16
f 8 16 9
f 9 16 15
f 10 17 25
f 10 25 18
f 11 18 25
f 11 25 24
f 11 24 19
f 12 19 14
f 12 14 13
f 14 19 24
f 14 24 23
f 14 23 21
f 14 21 16
f 15 16 21
f 15 21 20
f 17 22 23
f 17 23 24
f 17 24 25
f 20 21 23
f 20 23 22

