# https://github.com/mikedh/trimesh
v 0.06515574 0.01751444 0.02301113
v 0.06588219 0.01751444 0.02274978
v 0.06588219 0.02275464 0.02079879
v 0.06515574 0.02301597 0.02079879
v 0.06488658 0.01751444 0.02301113
v 0.06515633 -0.02202361 0.02301113
v 0.06614003 0.01751444 0.02202437
v 0.06614003 0.02202921 0.02079879
v 0.06588219 -0.02202361 0.02274978
v 0.06588219 0.02275464 -0.01751357
v 0.06515633 0.02301597 0.00000027
v 0.06515574 0.02301597 0.00000027
v 0.06378736 0.02301147 0.02079879
v 0.06422145 -0.01826132 0.02301113
v 0.06422145 -0.02202361 0.02301113
v 0.06515633 -0.02275356 0.02274978
v 0.06579645 -0.02266794 0.02266869
v 0.06614003 -0.00000847 0.02202437
v 0.06614063 0.00000054 -0.00068010
v 0.06614063 0.02202471 -0.01751808
v 0.06614003 0.02202921 -0.01751357
v 0.06614003 -0.02202361 0.02201985
v 0.06515633 0.02301597 -0.01751357
v 0.06614063 0.02202471 -0.02176699
v 0.06610848 0.02211481 -0.02176699
v 0.06378736 0.02301147 0.00000027
v 0.06056591 0.01860483 -0.02197877
v 0.06005739 -0.00000396 -0.02197877
v 0.06378736 0.02196614 0.02079879
v 0.06005739 -0.01860825 -0.02197877
v 0.06422145 -0.02275356 0.02274978
v 0.06422145 -0.02301489 0.02201985
v 0.06515633 -0.02301037 0.02201985
v 0.06588219 -0.02275356 0.02201985
v 0.06614063 -0.02108642 -0.00068010
v 0.06613944 -0.02202813 -0.01767578
v 0.06614003 -0.02202361 -0.01767578
v 0.06614063 -0.02109093 -0.01767578
v 0.06509381 0.02301147 -0.01751357
v 0.06442391 0.02211481 -0.02176699
v 0.06614063 0.01860483 -0.02202833
v 0.06588101 0.01860483 -0.02275376
v 0.06515574 0.01860483 -0.02301059
v 0.06056591 0.01860483 -0.02301059
v 0.06005739 -0.00000396 -0.02301059
v 0.06005739 -0.01860825 -0.02301059
v 0.06421549 -0.02301037 0.01189094
v 0.06438521 -0.02301037 -0.02134796
v 0.06515633 -0.02301037 -0.02134796
v 0.06421549 -0.02301037 -0.00067559
v 0.06566664 -0.02283015 0.01893342
v 0.06588219 -0.02275356 0.01893342
v 0.06613944 -0.02202813 -0.02134796
v 0.06614063 -0.02109093 -0.02134796
v 0.06614063 -0.00000396 -0.02202833
v 0.06588279 -0.00000396 -0.02275376
v 0.06515574 -0.01860825 -0.02301059
v 0.06588160 -0.02275356 -0.02134796
v 0.06588279 -0.01860825 -0.02275376
v 0.06613944 -0.01860825 -0.02202833
f 1 2 3
f 1 3 4
f 1 4 5
f 1 5 14
f 1 14 15
f 1 15 6
f 1 6 2
f 2 7 8
f 2 8 3
f 2 6 9
f 2 9 18
f 2 18 7
f 3 10 23
f 3 23 11
f 3 11 4
f 3 8 21
f 3 21 10
f 4 11 23
f 4 23 12
f 4 12 26
f 4 26 13
f 4 13 5
f 5 13 14
f 6 15 31
f 6 31 16
f 6 16 17
f 6 17 9
f 7 18 35
f 7 35 19
f 7 19 8
f 8 20 24
f 8 24 21
f 8 19 20
f 9 17 22
f 9 22 18
f 10 21 24
f 10 24 25
f 10 25 23
f 12 23 26
f 13 26 44
f 13 44 27
f 13 27 28
f 13 28 30
f 13 30 29
f 13 29 15
f 13 15 14
f 15 29 30
f 15 30 31
f 16 31 32
f 16 32 33
f 16 33 17
f 17 33 34
f 17 34 22
f 18 22 35
f 19 35 38
f 19 38 54
f 19 54 55
f 19 55 41
f 19 41 24
f 19 24 20
f 22 34 36
f 22 36 53
f 22 53 37
f 22 37 54
f 22 54 38
f 22 38 35
f 23 39 26
f 23 25 40
f 23 40 39
f 24 41 42
f 24 42 25
f 25 42 43
f 25 43 44
f 25 44 40
f 26 39 44
f 27 44 45
f 27 45 28
f 28 45 46
f 28 46 30
f 30 46 50
f 30 50 47
f 30 47 32
f 30 32 31
f 32 48 49
f 32 49 33
f 32 47 50
f 32 50 48
f 33 49 51
f 33 51 34
f 34 51 52
f 34 52 53
f 34 53 36
f 37 53 54
f 39 40 44
f 41 55 59
f 41 59 56
f 41 56 42
f 42 56 43
f 43 56 59
f 43 59 57
f 43 57 46
f 43 46 45
f 43 45 44
f 46 57 49
f 46 49 48
f 46 48 50
f 49 57 58
f 49 58 51
f 51 58 52
f 52 58 53
f 53 59 60
f 53 60 54
f 53 58 59
f 54 60 55
f 55 60 59
f 57 59 58

