# https://github.com/mikedh/trimesh
v -0.02763862 -0.02203038 -0.02301550
v -0.02763862 -0.02275733 -0.02274855
v -0.02827879 -0.02266985 -0.02266641
v -0.02837157 -0.02203038 -0.02274855
v -0.02763862 -0.01893642 -0.02301550
v -0.01859285 -0.02203038 -0.02301550
v 0.04795629 -0.02275686 -0.02275677
v 0.02379708 -0.02301555 -0.02202984
v -0.02763862 -0.02301507 -0.02202164
v -0.02837157 -0.02275733 -0.02202164
v -0.02863136 -0.02203038 -0.02202164
v -0.02837157 -0.01893642 -0.02274855
v -0.01859285 -0.01893642 -0.02301550
v 0.02379708 -0.01861505 -0.02125363
v 0.03890122 -0.01861551 -0.02301139
v 0.06514791 -0.02202991 -0.02301139
v 0.06514791 -0.02275639 -0.02275677
v 0.04827173 -0.02275686 -0.02275677
v 0.02765661 -0.02301555 -0.02202984
v 0.02379708 -0.02301555 -0.02015709
v -0.02764791 -0.02301507 -0.01661283
v -0.02764791 -0.02301507 0.01848068
v -0.02837157 -0.02275591 0.01848068
v -0.02863136 -0.02202991 0.01848068
v -0.02863136 -0.02203038 -0.02171772
v -0.02863136 -0.01893642 -0.02202164
v 0.04264942 -0.01828104 -0.00327771
v 0.04919951 -0.01823661 -0.00420997
v 0.04795629 -0.01861551 -0.02301139
v 0.06514791 -0.01861597 -0.02301139
v 0.06587157 -0.02202991 -0.02275677
v 0.06578808 -0.02267078 -0.02267052
v 0.06514791 -0.02301414 -0.02202984
v 0.04795629 -0.02301507 -0.02202984
v 0.03046777 -0.02301555 -0.02108936
v 0.02390841 -0.02301555 -0.02015709
v 0.06487885 -0.02301321 0.01894064
v 0.03890122 -0.02301321 0.01894064
v 0.02558769 -0.02136565 0.01894064
v -0.02863136 -0.02080571 0.01848068
v -0.02863136 -0.01893642 -0.02171772
v 0.04264942 -0.01827590 0.00327690
v 0.04919951 -0.01824830 -0.00140907
v 0.06613136 -0.01861597 -0.02134809
v 0.06613136 -0.01861597 -0.02202984
v 0.06587157 -0.01861597 -0.02275677
v 0.06613136 -0.02202991 -0.02202984
v 0.06587157 -0.02275639 -0.02202984
v 0.06514791 -0.02301414 -0.02134809
v 0.06437786 -0.02301461 -0.02134809
v 0.06437786 -0.02301461 -0.01768064
v 0.06507369 -0.02301273 -0.00068625
v 0.06587157 -0.02275639 -0.02134809
v 0.06613136 -0.02202991 -0.02134809
v 0.06487885 -0.02171602 0.01894064
v 0.02558769 -0.02009887 0.01894064
v -0.02863136 -0.01893689 -0.00068216
v -0.00046418 -0.02010777 0.01848068
v 0.04546057 -0.01830864 0.00514965
v 0.04639762 -0.01830771 0.00514965
v 0.04919951 -0.01828526 0.00327690
v 0.04919951 -0.01834653 0.00421327
v 0.04733467 -0.01835682 0.00514965
v 0.03796418 -0.02009841 0.01894064
f 1 2 3
f 1 3 4
f 1 4 12
f 1 12 5
f 1 5 13
f 1 13 6
f 1 6 18
f 1 18 7
f 1 7 2
f 2 8 9
f 2 9 3
f 2 7 8
f 3 10 11
f 3 11 4
f 3 9 10
f 4 11 26
f 4 26 12
f 5 12 14
f 5 14 15
f 5 15 29
f 5 29 13
f 6 13 30
f 6 30 16
f 6 16 17
f 6 17 18
f 7 18 19
f 7 19 8
f 8 19 35
f 8 35 36
f 8 36 20
f 8 20 22
f 8 22 21
f 8 21 9
f 9 21 10
f 10 21 22
f 10 22 23
f 10 23 24
f 10 24 25
f 10 25 11
f 11 25 24
f 11 24 40
f 11 40 57
f 11 57 41
f 11 41 26
f 12 26 27
f 12 27 28
f 12 28 14
f 13 29 30
f 14 28 15
f 15 28 29
f 16 30 46
f 16 46 31
f 16 31 32
f 16 32 17
f 17 32 33
f 17 33 34
f 17 34 18
f 18 34 19
f 19 34 35
f 20 36 22
f 22 36 35
f 22 35 37
f 22 37 38
f 22 38 39
f 22 39 23
f 23 39 24
f 24 39 56
f 24 56 40
f 26 41 42
f 26 42 27
f 27 42 28
f 28 42 43
f 28 43 44
f 28 44 45
f 28 45 46
f 28 46 30
f 28 30 29
f 31 46 45
f 31 45 47
f 31 47 32
f 32 47 48
f 32 48 33
f 33 48 53
f 33 53 49
f 33 49 51
f 33 51 50
f 33 50 34
f 34 50 51
f 34 51 35
f 35 51 37
f 37 51 49
f 37 49 52
f 37 52 53
f 37 53 54
f 37 54 44
f 37 44 55
f 37 55 64
f 37 64 56
f 37 56 39
f 37 39 38
f 40 56 58
f 40 58 57
f 41 57 42
f 42 59 60
f 42 60 61
f 42 61 43
f 42 57 59
f 43 61 44
f 44 54 47
f 44 47 45
f 44 61 62
f 44 62 55
f 47 54 53
f 47 53 48
f 49 53 52
f 55 62 63
f 55 63 64
f 56 64 60
f 56 60 59
f 56 59 58
f 57 58 59
f 60 63 62
f 60 62 61
f 60 64 63

