# https://github.com/mikedh/trimesh
v 0.07500000 0.02127250 0.00240830
v -0.07500000 0.02078870 0.00196440
v -0.07500000 0.02127250 0.00240830
v 0.07500000 0.02078870 0.00196440
v 0.07500000 0.02164310 0.00295030
v -0.07500000 0.02164310 0.00295030
v 0.07500000 0.02188130 0.00356220
v -0.07500000 0.02188130 0.00356220
v 0.07500000 0.02197470 0.00421210
v -0.07500000 0.02197470 0.00421210
v 0.07500000 0.02191850 0.00486630
v -0.07500000 0.02191850 0.00486630
v -0.07500000 0.02171560 0.00549070
v 0.07500000 0.02171560 0.00549070
v 0.07500000 0.02137660 0.00605300
v -0.07500000 0.02137660 0.00605300
v 0.07500000 0.02091900 0.00652390
v -0.07500000 0.02091900 0.00652390
v -0.07500000 0.02036660 0.00687880
v 0.07500000 0.02036660 0.00687880
v 0.07500000 0.01974820 0.00709950
v -0.07500000 0.01974820 0.00709950
v 0.07500000 0.01909590 0.00717430
v -0.07500000 0.01909590 0.00717430
v -0.07500000 0.01067960 -0.00538030
v 0.07500000 0.01067960 -0.00538030
v -0.07500000 0.01454100 -0.01726430
v 0.07500000 0.01454100 -0.01726430
v 0.07500000 0.01068080 -0.02080710
v -0.07500000 0.01010910 -0.02048420
v -0.07500000 0.01068080 -0.02080710
v 0.07500000 0.01010910 -0.02048420
v 0.07500000 0.01131080 -0.02099210
v -0.07500000 0.01131080 -0.02099210
v 0.07500000 0.01196630 -0.02102950
v -0.07500000 0.01196630 -0.02102950
v 0.07500000 0.01261330 -0.02091760
v -0.07500000 0.01261330 -0.02091760
v 0.07500000 0.01321810 -0.02066200
v -0.07500000 0.01321810 -0.02066200
v -0.07500000 0.01374930 -0.02027610
v 0.07500000 0.01374930 -0.02027610
v 0.07500000 0.01417930 -0.01977980
v -0.07500000 0.01417930 -0.01977980
v -0.07500000 0.01448570 -0.01919910
v 0.07500000 0.01448570 -0.01919910
v 0.07500000 0.01465260 -0.01856410
v -0.07500000 0.01465260 -0.01856410
v 0.07500000 0.01467130 -0.01790780
v -0.07500000 0.01467130 -0.01790780
v -0.07500000 0.00000000 -0.01313950
v 0.07500000 0.00000000 -0.01313950
v -0.07500000 -0.01010910 -0.02048420
v 0.07500000 -0.01010910 -0.02048420
v 0.07500000 -0.01467130 -0.01790780
v -0.07500000 -0.01454100 -0.01726430
v -0.07500000 -0.01467130 -0.01790780
v 0.07500000 -0.01454100 -0.01726430
v 0.07500000 -0.01465260 -0.01856410
v -0.07500000 -0.01465260 -0.01856410
v 0.07500000 -0.01448570 -0.01919910
v -0.07500000 -0.01448570 -0.01919910
v 0.07500000 -0.01417930 -0.01977980
v -0.07500000 -0.01417930 -0.01977980
v -0.07500000 -0.01374930 -0.02027610
v 0.07500000 -0.01374930 -0.02027610
v 0.07500000 -0.01321810 -0.02066200
v -0.07500000 -0.01321810 -0.02066200
v -0.07500000 -0.01261330 -0.02091760
v 0.07500000 -0.01261330 -0.02091760
v 0.07500000 -0.01196630 -0.02102950
v -0.07500000 -0.01196630 -0.02102950
v 0.07500000 -0.01131080 -0.02099210
v -0.07500000 -0.01131080 -0.02099210
v -0.07500000 -0.01068080 -0.02080710
v 0.07500000 -0.01068080 -0.02080710
v -0.07500000 -0.01067960 -0.00538030
v 0.07500000 -0.01067960 -0.00538030
v -0.07500000 -0.02078870 0.00196440
v 0.07500000 -0.02078870 0.00196440
v 0.07500000 -0.01974820 0.00709950
v -0.07500000 -0.01909590 0.00717430
v -0.07500000 -0.01974820 0.00709950
v 0.07500000 -0.01909590 0.00717430
v 0.07500000 -0.02036660 0.00687880
v -0.07500000 -0.02036660 0.00687880
v 0.07500000 -0.02091900 0.00652390
v -0.07500000 -0.02091900 0.00652390
v 0.07500000 -0.02137660 0.00605300
v -0.07500000 -0.02137660 0.00605300
v -0.07500000 -0.02171560 0.00549070
v 0.07500000 -0.02171560 0.00549070
v 0.07500000 -0.02191850 0.00486630
v -0.07500000 -0.02191850 0.00486630
v -0.07500000 -0.02197470 0.00421210
v 0.07500000 -0.02197470 0.00421210
v 0.07500000 -0.02188130 0.00356220
v -0.07500000 -0.02188130 0.00356220
v -0.07500000 -0.02164310 0.00295030
v 0.07500000 -0.02164310 0.00295030
v -0.07500000 -0.02127250 0.00240830
v 0.07500000 -0.02127250 0.00240830
v -0.07500000 -0.00660040 0.00717430
v 0.07500000 -0.00660040 0.00717430
v -0.07500000 -0.00273900 0.01905830
v 0.07500000 -0.00273900 0.01905830
v 0.07500000 0.00273900 0.01905830
v -0.07500000 0.00273900 0.01905830
v -0.07500000 0.00246630 0.01965550
v 0.07500000 0.00246630 0.01965550
v 0.07500000 0.00206530 0.02017550
v -0.07500000 0.00206530 0.02017550
v 0.07500000 0.00155700 0.02059110
v -0.07500000 0.00155700 0.02059110
v 0.07500000 0.00096780 0.02088080
v -0.07500000 0.00096780 0.02088080
v 0.07500000 0.00032830 0.02102950
v -0.07500000 0.00032830 0.02102950
v 0.07500000 -0.00032830 0.02102950
v -0.07500000 -0.00032830 0.02102950
v 0.07500000 -0.00096780 0.02088080
v -0.07500000 -0.00096780 0.02088080
v -0.07500000 -0.00155700 0.02059110
v 0.07500000 -0.00155700 0.02059110
v 0.07500000 -0.00206530 0.02017550
v -0.07500000 -0.00206530 0.02017550
v -0.07500000 -0.00246630 0.01965550
v 0.07500000 -0.00246630 0.01965550
v -0.07500000 0.00660040 0.00717430
v 0.07500000 0.00660040 0.00717430
f 1 2 3
f 1 4 2
f 5 3 6
f 5 1 3
f 7 6 8
f 7 5 6
f 9 8 10
f 9 7 8
f 11 10 12
f 11 12 13
f 11 9 10
f 14 11 13
f 15 13 16
f 15 14 13
f 17 16 18
f 17 18 19
f 17 15 16
f 20 17 19
f 21 19 22
f 21 20 19
f 23 22 24
f 23 21 22
f 4 25 2
f 4 26 25
f 26 27 25
f 26 28 27
f 29 30 31
f 29 32 30
f 33 31 34
f 33 29 31
f 35 34 36
f 35 33 34
f 37 36 38
f 37 35 36
f 39 38 40
f 39 40 41
f 39 37 38
f 42 39 41
f 43 41 44
f 43 44 45
f 43 42 41
f 46 43 45
f 47 45 48
f 47 46 45
f 49 48 50
f 49 47 48
f 28 50 27
f 28 49 50
f 32 51 30
f 32 52 51
f 52 53 51
f 52 54 53
f 55 56 57
f 55 58 56
f 59 57 60
f 59 55 57
f 61 60 62
f 61 59 60
f 63 62 64
f 63 64 65
f 63 61 62
f 66 63 65
f 67 65 68
f 67 68 69
f 67 66 65
f 70 67 69
f 71 69 72
f 71 70 69
f 73 72 74
f 73 74 75
f 73 71 72
f 76 73 75
f 54 75 53
f 54 76 75
f 58 77 56
f 58 78 77
f 78 79 77
f 78 80 79
f 81 82 83
f 81 84 82
f 85 83 86
f 85 81 83
f 87 86 88
f 87 85 86
f 89 88 90
f 89 90 91
f 89 87 88
f 92 89 91
f 93 91 94
f 93 94 95
f 93 92 91
f 96 93 95
f 97 95 98
f 97 98 99
f 97 96 95
f 100 99 101
f 100 97 99
f 102 100 101
f 80 101 79
f 80 102 101
f 84 103 82
f 84 104 103
f 104 105 103
f 104 106 105
f 107 108 109
f 110 107 109
f 111 109 112
f 111 110 109
f 113 112 114
f 113 111 112
f 115 114 116
f 115 113 114
f 117 116 118
f 117 115 116
f 119 118 120
f 119 117 118
f 121 120 122
f 121 122 123
f 121 119 120
f 124 121 123
f 125 123 126
f 125 126 127
f 125 124 123
f 128 127 105
f 128 125 127
f 106 128 105
f 107 129 108
f 107 130 129
f 130 24 129
f 130 23 24
f 54 58 55
f 54 55 59
f 54 59 61
f 54 61 63
f 54 63 66
f 54 66 67
f 54 67 70
f 54 70 71
f 54 71 73
f 54 73 76
f 97 100 102
f 96 97 102
f 89 92 93
f 87 89 93
f 52 78 58
f 52 58 54
f 81 85 87
f 84 87 93
f 84 81 87
f 84 93 96
f 84 102 80
f 84 80 78
f 84 96 102
f 35 32 29
f 35 29 33
f 37 32 35
f 42 32 37
f 42 37 39
f 28 32 42
f 28 52 32
f 28 42 43
f 28 43 46
f 28 46 47
f 28 47 49
f 104 84 78
f 26 78 52
f 26 52 28
f 130 104 78
f 130 78 26
f 124 125 128
f 124 128 106
f 117 119 121
f 107 106 104
f 107 104 130
f 115 121 124
f 115 117 121
f 111 124 106
f 111 107 110
f 111 113 115
f 111 106 107
f 111 115 124
f 4 130 26
f 7 4 1
f 7 1 5
f 23 130 4
f 11 4 7
f 11 7 9
f 21 23 4
f 21 4 11
f 17 11 14
f 17 14 15
f 17 20 21
f 17 21 11
f 53 57 56
f 53 60 57
f 53 62 60
f 53 64 62
f 53 65 64
f 53 68 65
f 53 69 68
f 53 72 69
f 53 74 72
f 53 75 74
f 98 101 99
f 95 101 98
f 90 94 91
f 88 94 90
f 51 56 77
f 51 53 56
f 83 88 86
f 82 94 88
f 82 88 83
f 82 95 94
f 82 79 101
f 82 77 79
f 82 101 95
f 36 31 30
f 36 34 31
f 38 36 30
f 41 38 30
f 41 40 38
f 27 41 30
f 27 30 51
f 27 44 41
f 27 45 44
f 27 48 45
f 27 50 48
f 103 77 82
f 25 51 77
f 25 27 51
f 25 77 103
f 129 25 103
f 123 127 126
f 123 105 127
f 118 122 120
f 108 103 105
f 108 129 103
f 116 123 122
f 116 122 118
f 112 105 123
f 112 109 108
f 112 116 114
f 112 108 105
f 112 123 116
f 2 25 129
f 8 3 2
f 8 6 3
f 24 2 129
f 12 8 2
f 12 10 8
f 22 2 24
f 22 12 2
f 18 13 12
f 18 16 13
f 18 22 19
f 18 12 22