# https://github.com/mikedh/trimesh
mtllib ../material.mtl
usemtl material_0
v 0.07500000 -0.01010910 -0.02048420
v 0.07500000 -0.01131080 -0.02099210
v 0.07500000 -0.01068080 -0.02080710
v 0.07500000 -0.02188130 0.00356220
v 0.07500000 -0.02164310 0.00295030
v 0.07500000 -0.02127250 0.00240830
v 0.07500000 -0.02137660 0.00605300
v 0.07500000 -0.02171560 0.00549070
v 0.07500000 -0.02191850 0.00486630
v 0.07500000 -0.01974820 0.00709950
v 0.07500000 -0.02036660 0.00687880
v 0.07500000 -0.02091900 0.00652390
v 0.07500000 0.01196630 -0.02102950
v 0.07500000 0.01068080 -0.02080710
v 0.07500000 0.01131080 -0.02099210
v 0.07500000 0.01374930 -0.02027610
v 0.07500000 0.01261330 -0.02091760
v 0.07500000 0.01321810 -0.02066200
v 0.07500000 0.01454100 -0.01726430
v 0.07500000 0.01465260 -0.01856410
v 0.07500000 0.01467130 -0.01790780
v 0.07500000 -0.00155700 0.02059110
v 0.07500000 -0.00206530 0.02017550
v 0.07500000 -0.00246630 0.01965550
v 0.07500000 0.00032830 0.02102950
v 0.07500000 -0.00032830 0.02102950
v 0.07500000 -0.00096780 0.02088080
v 0.07500000 0.00206530 0.02017550
v 0.07500000 0.00273900 0.01905830
v 0.07500000 0.00246630 0.01965550
v 0.07500000 0.00155700 0.02059110
v 0.07500000 0.00096780 0.02088080
v 0.07500000 0.02188130 0.00356220
v 0.07500000 0.02127250 0.00240830
v 0.07500000 0.02164310 0.00295030
v 0.07500000 0.02191850 0.00486630
v 0.07500000 0.02197470 0.00421210
v 0.07500000 0.02091900 0.00652390
v 0.07500000 0.02171560 0.00549070
v 0.07500000 0.02137660 0.00605300
v 0.07500000 0.02036660 0.00687880
v 0.07500000 0.01974820 0.00709950
v -0.07500000 -0.01010910 -0.02048420
v -0.07500000 -0.01068080 -0.02080710
v -0.07500000 -0.01131080 -0.02099210
v -0.07500000 -0.02188130 0.00356220
v -0.07500000 -0.02127250 0.00240830
v -0.07500000 -0.02164310 0.00295030
v -0.07500000 -0.02137660 0.00605300
v -0.07500000 -0.02191850 0.00486630
v -0.07500000 -0.02171560 0.00549070
v -0.07500000 -0.01974820 0.00709950
v -0.07500000 -0.02091900 0.00652390
v -0.07500000 -0.02036660 0.00687880
v -0.07500000 0.01196630 -0.02102950
v -0.07500000 0.01131080 -0.02099210
v -0.07500000 0.01068080 -0.02080710
v -0.07500000 0.01374930 -0.02027610
v -0.07500000 0.01321810 -0.02066200
v -0.07500000 0.01261330 -0.02091760
v -0.07500000 0.01454100 -0.01726430
v -0.07500000 0.01467130 -0.01790780
v -0.07500000 0.01465260 -0.01856410
v -0.07500000 -0.00155700 0.02059110
v -0.07500000 -0.00246630 0.01965550
v -0.07500000 -0.00206530 0.02017550
v -0.07500000 0.00032830 0.02102950
v -0.07500000 -0.00096780 0.02088080
v -0.07500000 -0.00032830 0.02102950
v -0.07500000 0.00206530 0.02017550
v -0.07500000 0.00246630 0.01965550
v -0.07500000 0.00273900 0.01905830
v -0.07500000 0.00096780 0.02088080
v -0.07500000 0.00155700 0.02059110
v -0.07500000 0.02188130 0.00356220
v -0.07500000 0.02164310 0.00295030
v -0.07500000 0.02127250 0.00240830
v -0.07500000 0.02191850 0.00486630
v -0.07500000 0.02197470 0.00421210
v -0.07500000 0.02091900 0.00652390
v -0.07500000 0.02137660 0.00605300
v -0.07500000 0.02171560 0.00549070
v -0.07500000 0.01974820 0.00709950
v -0.07500000 0.02036660 0.00687880
v -0.07500000 0.02188130 0.00356220
v -0.07500000 0.02127250 0.00240830
v -0.07500000 0.02078870 0.00196440
v -0.07500000 0.02191850 0.00486630
v -0.07500000 0.01974820 0.00709950
v -0.07500000 0.01909590 0.00717430
v -0.07500000 0.00660040 0.00717430
v -0.07500000 0.01067960 -0.00538030
v -0.07500000 -0.00660040 0.00717430
v -0.07500000 0.00273900 0.01905830
v -0.07500000 -0.00273900 0.01905830
v -0.07500000 0.00206530 0.02017550
v -0.07500000 -0.00155700 0.02059110
v -0.07500000 0.00096780 0.02088080
v -0.07500000 -0.00096780 0.02088080
v -0.07500000 0.00032830 0.02102950
v -0.07500000 -0.00246630 0.01965550
v -0.07500000 -0.01067960 -0.00538030
v -0.07500000 -0.01909590 0.00717430
v -0.07500000 -0.02078870 0.00196440
v -0.07500000 -0.02127250 0.00240830
v -0.07500000 -0.02197470 0.00421210
v -0.07500000 -0.02191850 0.00486630
v -0.07500000 -0.02091900 0.00652390
v -0.07500000 -0.01974820 0.00709950
v -0.07500000 -0.02137660 0.00605300
v -0.07500000 -0.02188130 0.00356220
v -0.07500000 0.00000000 -0.01313950
v -0.07500000 -0.01454100 -0.01726430
v -0.07500000 -0.01010910 -0.02048420
v -0.07500000 -0.01467130 -0.01790780
v -0.07500000 -0.01465260 -0.01856410
v -0.07500000 -0.01448570 -0.01919910
v -0.07500000 -0.01417930 -0.01977980
v -0.07500000 -0.01374930 -0.02027610
v -0.07500000 -0.01321810 -0.02066200
v -0.07500000 -0.01261330 -0.02091760
v -0.07500000 -0.01196630 -0.02102950
v -0.07500000 -0.01131080 -0.02099210
v -0.07500000 0.01454100 -0.01726430
v -0.07500000 0.01010910 -0.02048420
v -0.07500000 0.01374930 -0.02027610
v -0.07500000 0.01261330 -0.02091760
v -0.07500000 0.01196630 -0.02102950
v -0.07500000 0.01068080 -0.02080710
v -0.07500000 0.01417930 -0.01977980
v -0.07500000 0.01448570 -0.01919910
v -0.07500000 0.01465260 -0.01856410
v -0.07500000 0.02091900 0.00652390
v -0.07500000 0.02171560 0.00549070
v 0.07500000 0.02091900 0.00652390
v 0.07500000 0.02191850 0.00486630
v 0.07500000 0.02171560 0.00549070
v 0.07500000 0.01974820 0.00709950
v 0.07500000 0.02078870 0.00196440
v 0.07500000 0.02188130 0.00356220
v 0.07500000 0.02127250 0.00240830
v 0.07500000 0.01909590 0.00717430
v 0.07500000 0.00660040 0.00717430
v 0.07500000 0.01067960 -0.00538030
v 0.07500000 -0.01067960 -0.00538030
v 0.07500000 0.00000000 -0.01313950
v 0.07500000 0.01454100 -0.01726430
v 0.07500000 0.01010910 -0.02048420
v 0.07500000 0.01374930 -0.02027610
v 0.07500000 0.01417930 -0.01977980
v 0.07500000 0.01448570 -0.01919910
v 0.07500000 0.01465260 -0.01856410
v 0.07500000 0.01261330 -0.02091760
v 0.07500000 0.01196630 -0.02102950
v 0.07500000 0.01068080 -0.02080710
v 0.07500000 -0.01454100 -0.01726430
v 0.07500000 -0.01010910 -0.02048420
v 0.07500000 -0.01467130 -0.01790780
v 0.07500000 -0.01465260 -0.01856410
v 0.07500000 -0.01448570 -0.01919910
v 0.07500000 -0.01417930 -0.01977980
v 0.07500000 -0.01374930 -0.02027610
v 0.07500000 -0.01321810 -0.02066200
v 0.07500000 -0.01261330 -0.02091760
v 0.07500000 -0.01196630 -0.02102950
v 0.07500000 -0.01131080 -0.02099210
v 0.07500000 -0.00660040 0.00717430
v 0.07500000 -0.01909590 0.00717430
v 0.07500000 -0.02078870 0.00196440
v 0.07500000 -0.02127250 0.00240830
v 0.07500000 -0.02197470 0.00421210
v 0.07500000 -0.02188130 0.00356220
v 0.07500000 -0.02191850 0.00486630
v 0.07500000 -0.02091900 0.00652390
v 0.07500000 -0.02137660 0.00605300
v 0.07500000 -0.01974820 0.00709950
v 0.07500000 0.00273900 0.01905830
v 0.07500000 -0.00273900 0.01905830
v 0.07500000 0.00206530 0.02017550
v 0.07500000 -0.00155700 0.02059110
v 0.07500000 -0.00246630 0.01965550
v 0.07500000 0.00096780 0.02088080
v 0.07500000 -0.00096780 0.02088080
v 0.07500000 0.00032830 0.02102950
v 0.07500000 0.00273900 0.01905830
v -0.07500000 0.00273900 0.01905830
v -0.07500000 0.00246630 0.01965550
v 0.07500000 0.00246630 0.01965550
v -0.07500000 0.00660040 0.00717430
v 0.07500000 0.00660040 0.00717430
v 0.07500000 0.00206530 0.02017550
v -0.07500000 0.00206530 0.02017550
v 0.07500000 0.00155700 0.02059110
v -0.07500000 0.00155700 0.02059110
v 0.07500000 -0.00273900 0.01905830
v 0.07500000 -0.00246630 0.01965550
v -0.07500000 -0.00273900 0.01905830
v -0.07500000 -0.00246630 0.01965550
v 0.07500000 -0.00660040 0.00717430
v -0.07500000 -0.00660040 0.00717430
v 0.07500000 -0.00206530 0.02017550
v -0.07500000 -0.00206530 0.02017550
v -0.07500000 -0.00155700 0.02059110
v 0.07500000 -0.00155700 0.02059110
v 0.07500000 -0.01467130 -0.01790780
v 0.07500000 -0.01454100 -0.01726430
v -0.07500000 -0.01454100 -0.01726430
v -0.07500000 -0.01467130 -0.01790780
v -0.07500000 -0.01067960 -0.00538030
v 0.07500000 -0.01067960 -0.00538030
v 0.07500000 -0.01465260 -0.01856410
v -0.07500000 -0.01465260 -0.01856410
v 0.07500000 -0.01448570 -0.01919910
v -0.07500000 -0.01448570 -0.01919910
v 0.07500000 0.01454100 -0.01726430
v -0.07500000 0.01467130 -0.01790780
v -0.07500000 0.01454100 -0.01726430
v 0.07500000 0.01467130 -0.01790780
v 0.07500000 0.01067960 -0.00538030
v -0.07500000 0.01067960 -0.00538030
v -0.07500000 0.01465260 -0.01856410
v 0.07500000 0.01465260 -0.01856410
v -0.07500000 0.01448570 -0.01919910
v 0.07500000 0.01448570 -0.01919910
v 0.07500000 -0.02078870 0.00196440
v -0.07500000 -0.02127250 0.00240830
v -0.07500000 -0.02078870 0.00196440
v 0.07500000 -0.02127250 0.00240830
v 0.07500000 -0.01067960 -0.00538030
v -0.07500000 -0.01067960 -0.00538030
v 0.07500000 -0.02164310 0.00295030
v -0.07500000 -0.02164310 0.00295030
v 0.07500000 -0.02188130 0.00356220
v -0.07500000 -0.02188130 0.00356220
v 0.07500000 -0.01010910 -0.02048420
v -0.07500000 -0.01068080 -0.02080710
v -0.07500000 -0.01010910 -0.02048420
v 0.07500000 -0.01068080 -0.02080710
v 0.07500000 0.00000000 -0.01313950
v -0.07500000 0.00000000 -0.01313950
v 0.07500000 -0.01131080 -0.02099210
v -0.07500000 -0.01131080 -0.02099210
v -0.07500000 -0.01196630 -0.02102950
v 0.07500000 -0.01196630 -0.02102950
v 0.07500000 0.01068080 -0.02080710
v 0.07500000 0.01010910 -0.02048420
v -0.07500000 0.01010910 -0.02048420
v -0.07500000 0.01068080 -0.02080710
v -0.07500000 0.00000000 -0.01313950
v 0.07500000 0.00000000 -0.01313950
v 0.07500000 0.01131080 -0.02099210
v -0.07500000 0.01131080 -0.02099210
v 0.07500000 0.01196630 -0.02102950
v -0.07500000 0.01196630 -0.02102950
v 0.07500000 0.02127250 0.00240830
v 0.07500000 0.02078870 0.00196440
v -0.07500000 0.02078870 0.00196440
v -0.07500000 0.02127250 0.00240830
v -0.07500000 0.01067960 -0.00538030
v 0.07500000 0.01067960 -0.00538030
v 0.07500000 0.02164310 0.00295030
v -0.07500000 0.02164310 0.00295030
v 0.07500000 0.02188130 0.00356220
v -0.07500000 0.02188130 0.00356220
v 0.07500000 0.01909590 0.00717430
v -0.07500000 0.01974820 0.00709950
v -0.07500000 0.01909590 0.00717430
v 0.07500000 0.01974820 0.00709950
v 0.07500000 0.00660040 0.00717430
v -0.07500000 0.00660040 0.00717430
v -0.07500000 0.02036660 0.00687880
v 0.07500000 0.02036660 0.00687880
v 0.07500000 0.02091900 0.00652390
v -0.07500000 0.02091900 0.00652390
v 0.07500000 -0.01974820 0.00709950
v 0.07500000 -0.01909590 0.00717430
v -0.07500000 -0.01909590 0.00717430
v -0.07500000 -0.01974820 0.00709950
v -0.07500000 -0.00660040 0.00717430
v 0.07500000 -0.00660040 0.00717430
v 0.07500000 -0.02036660 0.00687880
v -0.07500000 -0.02036660 0.00687880
v 0.07500000 -0.02091900 0.00652390
v -0.07500000 -0.02091900 0.00652390
v 0.07500000 -0.00032830 0.02102950
v -0.07500000 0.00032830 0.02102950
v -0.07500000 -0.00032830 0.02102950
v 0.07500000 0.00032830 0.02102950
v -0.07500000 0.00096780 0.02088080
v 0.07500000 0.00096780 0.02088080
v 0.07500000 -0.00096780 0.02088080
v -0.07500000 -0.00096780 0.02088080
v -0.07500000 -0.00155700 0.02059110
v 0.07500000 -0.00155700 0.02059110
v -0.07500000 0.00155700 0.02059110
v 0.07500000 0.00155700 0.02059110
v 0.07500000 -0.01321810 -0.02066200
v -0.07500000 -0.01374930 -0.02027610
v -0.07500000 -0.01321810 -0.02066200
v 0.07500000 -0.01374930 -0.02027610
v -0.07500000 -0.01261330 -0.02091760
v 0.07500000 -0.01261330 -0.02091760
v 0.07500000 -0.01417930 -0.01977980
v -0.07500000 -0.01417930 -0.01977980
v -0.07500000 -0.01448570 -0.01919910
v 0.07500000 -0.01448570 -0.01919910
v 0.07500000 -0.01196630 -0.02102950
v -0.07500000 -0.01196630 -0.02102950
v 0.07500000 0.01321810 -0.02066200
v -0.07500000 0.01321810 -0.02066200
v -0.07500000 0.01374930 -0.02027610
v 0.07500000 0.01374930 -0.02027610
v -0.07500000 0.01261330 -0.02091760
v 0.07500000 0.01261330 -0.02091760
v 0.07500000 0.01417930 -0.01977980
v -0.07500000 0.01417930 -0.01977980
v -0.07500000 0.01448570 -0.01919910
v 0.07500000 0.01448570 -0.01919910
v -0.07500000 0.01196630 -0.02102950
v 0.07500000 0.01196630 -0.02102950
v 0.07500000 0.02191850 0.00486630
v -0.07500000 0.02191850 0.00486630
v -0.07500000 0.02171560 0.00549070
v 0.07500000 0.02171560 0.00549070
v 0.07500000 0.02137660 0.00605300
v -0.07500000 0.02137660 0.00605300
v -0.07500000 0.02197470 0.00421210
v 0.07500000 0.02197470 0.00421210
v -0.07500000 0.02188130 0.00356220
v 0.07500000 0.02188130 0.00356220
v 0.07500000 0.02091900 0.00652390
v -0.07500000 0.02091900 0.00652390
v 0.07500000 -0.02191850 0.00486630
v -0.07500000 -0.02171560 0.00549070
v -0.07500000 -0.02191850 0.00486630
v 0.07500000 -0.02171560 0.00549070
v 0.07500000 -0.02137660 0.00605300
v -0.07500000 -0.02137660 0.00605300
v -0.07500000 -0.02197470 0.00421210
v 0.07500000 -0.02197470 0.00421210
v 0.07500000 -0.02188130 0.00356220
v -0.07500000 -0.02188130 0.00356220
v -0.07500000 -0.02091900 0.00652390
v 0.07500000 -0.02091900 0.00652390
vt 0.00000000 0.00000000
vt 0.00000000 0.00000000
vt 0.00000000 0.00000000
vt 0.00000000 0.00000000
vt 0.00000000 0.00000000
vt 0.00000000 0.00000000
vt 0.00000000 0.00000000
vt 0.00000000 0.00000000
vt 0.00000000 0.00000000
vt 0.00000000 0.00000000
vt 0.00000000 0.00000000
vt 0.00000000 0.00000000
vt 0.00000000 0.00000000
vt 0.00000000 0.00000000
vt 0.00000000 0.00000000
vt 0.00000000 0.00000000
vt 0.00000000 0.00000000
vt 0.00000000 0.00000000
vt 0.00000000 0.00000000
vt 0.00000000 0.00000000
vt 0.00000000 0.00000000
vt 0.00000000 0.00000000
vt 0.00000000 0.00000000
vt 0.00000000 0.00000000
vt 0.00000000 0.00000000
vt 0.00000000 0.00000000
vt 0.00000000 0.00000000
vt 0.00000000 0.00000000
vt 0.00000000 0.00000000
vt 0.00000000 0.00000000
vt 0.00000000 0.00000000
vt 0.00000000 0.00000000
vt 0.00000000 0.00000000
vt 0.00000000 0.00000000
vt 0.00000000 0.00000000
vt 0.00000000 0.00000000
vt 0.00000000 0.00000000
vt 0.00000000 0.00000000
vt 0.00000000 0.00000000
vt 0.00000000 0.00000000
vt 0.00000000 0.00000000
vt 0.00000000 0.00000000
vt 0.00000000 0.00000000
vt 0.00000000 0.00000000
vt 0.00000000 0.00000000
vt 0.00000000 0.00000000
vt 0.00000000 0.00000000
vt 0.00000000 0.00000000
vt 0.00000000 0.00000000
vt 0.00000000 0.00000000
vt 0.00000000 0.00000000
vt 0.00000000 0.00000000
vt 0.00000000 0.00000000
vt 0.00000000 0.00000000
vt 0.00000000 0.00000000
vt 0.00000000 0.00000000
vt 0.00000000 0.00000000
vt 0.00000000 0.00000000
vt 0.00000000 0.00000000
vt 0.00000000 0.00000000
vt 0.00000000 0.00000000
vt 0.00000000 0.00000000
vt 0.00000000 0.00000000
vt 0.00000000 0.00000000
vt 0.00000000 0.00000000
vt 0.00000000 0.00000000
vt 0.00000000 0.00000000
vt 0.00000000 0.00000000
vt 0.00000000 0.00000000
vt 0.00000000 0.00000000
vt 0.00000000 0.00000000
vt 0.00000000 0.00000000
vt 0.00000000 0.00000000
vt 0.00000000 0.00000000
vt 0.00000000 0.00000000
vt 0.00000000 0.00000000
vt 0.00000000 0.00000000
vt 0.00000000 0.00000000
vt 0.00000000 0.00000000
vt 0.00000000 0.00000000
vt 0.00000000 0.00000000
vt 0.00000000 0.00000000
vt 0.00000000 0.00000000
vt 0.00000000 0.00000000
vt 0.28732035 0.86730826
vt 0.28152183 0.86458313
vt 0.27829108 0.86422932
vt 0.29126582 0.87219900
vt 0.28907090 0.88678992
vt 0.28667501 0.88889134
vt 0.23660743 0.92365867
vt 0.21640402 0.86422914
vt 0.18371382 0.96038848
vt 0.25573134 0.97991407
vt 0.23378183 0.99515599
vt 0.25628424 0.98606700
vt 0.24298011 0.99773729
vt 0.25393996 0.99182177
vt 0.24618429 0.99720728
vt 0.25181046 0.99417055
vt 0.23661301 0.99668431
vt 0.13082092 0.92365879
vt 0.13364623 0.99515581
vt 0.11169671 0.97991377
vt 0.11105046 0.98295987
vt 0.11348796 0.99182159
vt 0.11561760 0.99417055
vt 0.12444796 0.99773753
vt 0.13081482 0.99668431
vt 0.12124357 0.99720746
vt 0.11197025 0.98907280
vt 0.15102436 0.86422902
vt 0.08075292 0.88889122
vt 0.08913730 0.86422890
vt 0.07835751 0.88678938
vt 0.07652187 0.88422400
vt 0.07534203 0.88132775
vt 0.07487923 0.87825137
vt 0.07515737 0.87515432
vt 0.07616241 0.87219846
vt 0.07784165 0.86953682
vt 0.08010834 0.86730808
vt 0.08284370 0.86562747
vt 0.19728008 0.80797380
vt 0.17014855 0.80797398
vt 0.18534011 0.79864252
vt 0.17892084 0.79934657
vt 0.17600264 0.80071831
vt 0.17149927 0.80514669
vt 0.18850784 0.79934680
vt 0.19142604 0.80071807
vt 0.19394335 0.80268556
vt 0.29208648 0.88132799
vt 0.29227054 0.87515479
vt 0.99263430 0.80395937
vt 0.99758452 0.81180596
vt 0.99657959 0.80885023
vt 0.98683560 0.80123466
vt 0.99198890 0.82554275
vt 0.99740028 0.81797922
vt 0.99438506 0.82344145
vt 0.98360497 0.80088061
vt 0.92171806 0.80088061
vt 0.94192129 0.86031044
vt 0.83613485 0.86031044
vt 0.88902807 0.89704019
vt 0.96104568 0.91656578
vt 0.93909574 0.93180788
vt 0.95712471 0.93082273
vt 0.95925432 0.92847341
vt 0.96077186 0.92572457
vt 0.96159852 0.92271864
vt 0.95149833 0.93385941
vt 0.94829392 0.93438911
vt 0.94192719 0.93333638
vt 0.81701034 0.91656578
vt 0.83896035 0.93180788
vt 0.81636506 0.91961193
vt 0.81645763 0.92271864
vt 0.81728429 0.92572457
vt 0.81880182 0.92847341
vt 0.82093149 0.93082273
vt 0.82356232 0.93264949
vt 0.82655776 0.93385941
vt 0.82976216 0.93438911
vt 0.83300871 0.93421209
vt 0.85633808 0.80088061
vt 0.79445112 0.80088061
vt 0.78606719 0.82554275
vt 0.78367108 0.82344145
vt 0.78019321 0.81490272
vt 0.78065580 0.81797922
vt 0.78047156 0.81180596
vt 0.78542185 0.80395937
vt 0.78315544 0.80618852
vt 0.79122049 0.80123466
vt 0.90259355 0.74462515
vt 0.87546253 0.74462515
vt 0.89925689 0.73933673
vt 0.88131672 0.73736936
vt 0.87681311 0.74179822
vt 0.89382130 0.73599803
vt 0.88423479 0.73599803
vt 0.89065403 0.73529410
vt 0.04106325 0.68969131
vt 0.78985506 0.68969131
vt 0.78985500 0.68659526
vt 0.04106317 0.68659526
vt 0.78985482 0.74886876
vt 0.04106306 0.74886876
vt 0.04106302 0.68364519
vt 0.78985482 0.68364519
vt 0.04106280 0.68099546
vt 0.78985465 0.68099546
vt 0.03623222 0.66324860
vt 0.03623218 0.66634476
vt 0.78502417 0.66324860
vt 0.78502417 0.66634476
vt 0.03623207 0.60407239
vt 0.78502417 0.60407239
vt 0.03623211 0.66929525
vt 0.78502411 0.66929525
vt 0.78502387 0.67194569
vt 0.03623188 0.67194569
vt 0.03140149 0.53274840
vt 0.03140156 0.53584462
vt 0.78019321 0.53584456
vt 0.78019315 0.53274840
vt 0.78019303 0.59502262
vt 0.03140126 0.59502262
vt 0.03140130 0.52979881
vt 0.78019303 0.52979881
vt 0.03140097 0.52714932
vt 0.78019267 0.52714932
vt 0.76570046 0.45892152
vt 0.01690873 0.45582533
vt 0.01690881 0.45892155
vt 0.76570040 0.45582533
vt 0.76570028 0.51809955
vt 0.01690851 0.51809955
vt 0.01690855 0.45287576
vt 0.76570028 0.45287576
vt 0.01690821 0.45022625
vt 0.76569992 0.45022625
vt 0.02174036 0.43700236
vt 0.77053142 0.44009903
vt 0.77053142 0.43700236
vt 0.02174028 0.44009903
vt 0.02173984 0.37782806
vt 0.77053094 0.37782806
vt 0.02173984 0.44304979
vt 0.77053094 0.44304979
vt 0.02173913 0.44570136
vt 0.77053022 0.44570136
vt 0.00241553 0.36460641
vt 0.75120771 0.36770290
vt 0.75120771 0.36460641
vt 0.00241557 0.36770290
vt 0.00241553 0.30542988
vt 0.75120771 0.30542988
vt 0.00241553 0.37065306
vt 0.75120771 0.37065306
vt 0.75120765 0.37330317
vt 0.00241546 0.37330317
vt 0.01207785 0.23410572
vt 0.01207793 0.23720212
vt 0.76086956 0.23720212
vt 0.76086944 0.23410572
vt 0.76086926 0.29638010
vt 0.01207763 0.29638010
vt 0.01207763 0.23115605
vt 0.76086926 0.23115605
vt 0.01207729 0.22850680
vt 0.76086891 0.22850679
vt 0.00241602 0.15718293
vt 0.00241605 0.16027932
vt 0.75120771 0.16027932
vt 0.75120759 0.15718293
vt 0.75120741 0.21945702
vt 0.00241579 0.21945702
vt 0.00241576 0.15423332
vt 0.75120741 0.15423332
vt 0.00241546 0.15158372
vt 0.75120711 0.15158373
vt 0.00241605 0.13383597
vt 0.75120765 0.13693249
vt 0.75120771 0.13383597
vt 0.00241602 0.13693249
vt 0.00241583 0.07466064
vt 0.75120753 0.07466064
vt 0.75120753 0.13988286
vt 0.00241579 0.13988286
vt 0.00241546 0.14253393
vt 0.75120711 0.14253394
vt 0.00241598 0.00786179
vt 0.00241605 0.01095811
vt 0.75120771 0.01095811
vt 0.75120765 0.00786179
vt 0.75120753 0.07013575
vt 0.00241576 0.07013575
vt 0.00241579 0.00491220
vt 0.75120753 0.00491219
vt 0.00241546 0.00226245
vt 0.75120711 0.00226244
vt 0.85062367 0.04751131
vt 0.85469812 0.76244295
vt 0.85062367 0.76244295
vt 0.85469812 0.04751131
vt 0.85866523 0.76244307
vt 0.85866523 0.04751149
vt 0.84665394 0.04751149
vt 0.84665394 0.76244307
vt 0.84299517 0.76244342
vt 0.84299517 0.04751184
vt 0.86231881 0.76244342
vt 0.86231881 0.04751184
vt 0.00724641 0.78315961
vt 0.77053136 0.78697568
vt 0.77053136 0.78315961
vt 0.00724641 0.78697568
vt 0.77053124 0.77944261
vt 0.00724638 0.77944261
vt 0.00724645 0.79069310
vt 0.77053142 0.79069310
vt 0.77053136 0.79411763
vt 0.00724641 0.79411763
vt 0.00724638 0.77601808
vt 0.77053124 0.77601808
vt 0.83054096 0.02941176
vt 0.83054096 0.74434334
vt 0.82646680 0.74434346
vt 0.82646680 0.02941180
vt 0.83450890 0.74434364
vt 0.83450890 0.02941198
vt 0.82249755 0.02941198
vt 0.82249755 0.74434364
vt 0.81884056 0.74434388
vt 0.81884056 0.02941230
vt 0.83816427 0.74434388
vt 0.83816427 0.02941230
vt 0.80638486 0.01583714
vt 0.80638486 0.73076922
vt 0.80231088 0.73076922
vt 0.80231088 0.01583714
vt 0.79834241 0.01583710
vt 0.79834241 0.73076922
vt 0.81035340 0.73076922
vt 0.81035340 0.01583714
vt 0.81400967 0.73076922
vt 0.81400967 0.01583710
vt 0.79468602 0.01583714
vt 0.79468602 0.73076922
vt 0.04106280 0.76053548
vt 0.80434775 0.76435137
vt 0.80434775 0.76053548
vt 0.04106280 0.76435137
vt 0.04106284 0.76806843
vt 0.80434781 0.76806843
vt 0.80434781 0.75681835
vt 0.04106284 0.75681835
vt 0.04106280 0.75339365
vt 0.80434781 0.75339365
vt 0.80434775 0.77149320
vt 0.04106280 0.77149320
f 255/255 257/257 258/258
f 255/255 256/256 257/257
f 261/261 258/258 262/262
f 261/261 255/255 258/258
f 263/263 262/262 264/264
f 263/263 261/261 262/262
f 328/328 329/329 327/327
f 328/328 330/330 329/329
f 321/321 327/327 322/322
f 321/321 322/322 323/323
f 321/321 328/328 327/327
f 324/324 321/321 323/323
f 325/325 323/323 326/326
f 325/325 324/324 323/323
f 331/331 326/326 332/332
f 273/273 274/274 271/271
f 331/331 325/325 326/326
f 272/272 273/273 271/271
f 268/268 271/271 266/266
f 268/268 272/272 271/271
f 265/265 266/266 267/267
f 265/265 268/268 266/266
f 256/256 259/259 257/257
f 256/256 260/260 259/259
f 219/219 217/217 220/220
f 219/219 215/215 217/217
f 245/245 247/247 248/248
f 245/245 246/246 247/247
f 251/251 248/248 252/252
f 251/251 245/245 248/248
f 253/253 252/252 254/254
f 253/253 251/251 252/252
f 314/314 319/319 313/313
f 314/314 320/320 319/319
f 309/309 313/313 310/310
f 309/309 310/310 311/311
f 309/309 314/314 313/313
f 312/312 309/309 311/311
f 315/315 311/311 316/316
f 315/315 316/316 317/317
f 315/315 312/312 311/311
f 318/318 315/315 317/317
f 222/222 223/223 221/221
f 222/222 224/224 223/223
f 218/218 221/221 216/216
f 218/218 222/222 221/221
f 215/215 216/216 217/217
f 215/215 218/218 216/216
f 246/246 249/249 247/247
f 246/246 250/250 249/249
f 239/239 237/237 240/240
f 239/239 235/235 237/237
f 205/205 207/207 208/208
f 205/205 206/206 207/207
f 211/211 208/208 212/212
f 211/211 205/205 208/208
f 213/213 212/212 214/214
f 213/213 211/211 212/212
f 303/303 305/305 304/304
f 303/303 304/304 298/298
f 303/303 306/306 305/305
f 300/300 303/303 298/298
f 297/297 298/298 299/299
f 297/297 299/299 301/301
f 297/297 300/300 298/298
f 302/302 297/297 301/301
f 307/307 301/301 308/308
f 307/307 302/302 301/301
f 241/241 243/243 242/242
f 241/241 242/242 236/236
f 241/241 244/244 243/243
f 238/238 241/241 236/236
f 235/235 236/236 237/237
f 235/235 238/238 236/236
f 206/206 209/209 207/207
f 206/206 210/210 209/209
f 229/229 227/227 230/230
f 229/229 225/225 227/227
f 275/275 277/277 278/278
f 275/275 276/276 277/277
f 281/281 278/278 282/282
f 281/281 275/275 278/278
f 283/283 282/282 284/284
f 283/283 281/281 282/282
f 337/337 343/343 338/338
f 337/337 338/338 334/334
f 337/337 344/344 343/343
f 336/336 337/337 334/334
f 333/333 334/334 335/335
f 333/333 335/335 339/339
f 333/333 336/336 334/334
f 340/340 333/333 339/339
f 341/341 339/339 342/342
f 233/233 234/234 232/232
f 341/341 340/340 339/339
f 231/231 232/232 226/226
f 231/231 233/233 232/232
f 228/228 231/231 226/226
f 225/225 226/226 227/227
f 225/225 228/228 226/226
f 276/276 279/279 277/277
f 276/276 280/280 279/279
f 199/199 197/197 200/200
f 199/199 195/195 197/197
f 185/185 186/186 187/187
f 188/188 185/185 187/187
f 191/191 187/187 192/192
f 191/191 188/188 187/187
f 193/193 192/192 194/194
f 193/193 191/191 192/192
f 290/290 295/295 289/289
f 290/290 296/296 295/295
f 288/288 289/289 286/286
f 288/288 290/290 289/289
f 285/285 286/286 287/287
f 285/285 288/288 286/286
f 291/291 287/287 292/292
f 291/291 292/292 293/293
f 291/291 285/285 287/287
f 294/294 291/291 293/293
f 201/201 203/203 202/202
f 201/201 202/202 198/198
f 201/201 204/204 203/203
f 196/196 198/198 197/197
f 196/196 201/201 198/198
f 195/195 196/196 197/197
f 185/185 189/189 186/186
f 185/185 190/190 189/189
f 269/269 267/267 270/270
f 269/269 265/265 267/267
f 157/157 156/156 158/158
f 157/157 158/158 159/159
f 157/157 159/159 160/160
f 157/157 160/160 161/161
f 157/157 161/161 162/162
f 157/157 162/162 163/163
f 157/157 163/163 164/164
f 157/157 164/164 165/165
f 157/157 165/165 166/166
f 1/1 2/2 3/3
f 4/4 5/5 6/6
f 171/171 172/172 170/170
f 7/7 8/8 9/9
f 174/174 175/175 173/173
f 146/146 145/145 156/156
f 146/146 156/156 157/157
f 10/10 11/11 12/12
f 168/168 174/174 173/173
f 168/168 176/176 174/174
f 168/168 173/173 171/171
f 168/168 170/170 169/169
f 168/168 169/169 145/145
f 168/168 171/171 170/170
f 154/154 148/148 155/155
f 13/13 14/14 15/15
f 153/153 148/148 154/154
f 149/149 148/148 153/153
f 16/16 17/17 18/18
f 147/147 148/148 149/149
f 147/147 146/146 148/148
f 147/147 149/149 150/150
f 147/147 150/150 151/151
f 147/147 151/151 152/152
f 19/19 20/20 21/21
f 167/167 168/168 145/145
f 144/144 145/145 146/146
f 144/144 146/146 147/147
f 143/143 167/167 145/145
f 143/143 145/145 144/144
f 22/22 23/23 24/24
f 180/180 181/181 178/178
f 25/25 26/26 27/27
f 177/177 178/178 167/167
f 177/177 167/167 143/143
f 182/182 183/183 180/180
f 182/182 184/184 183/183
f 179/179 180/180 178/178
f 28/28 29/29 30/30
f 28/28 31/31 32/32
f 179/179 178/178 177/177
f 179/179 182/182 180/180
f 139/139 143/143 144/144
f 140/140 139/139 141/141
f 33/33 34/34 35/35
f 142/142 143/143 139/139
f 136/136 139/139 140/140
f 36/36 33/33 37/37
f 138/138 142/142 139/139
f 138/138 139/139 136/136
f 135/135 136/136 137/137
f 38/38 39/39 40/40
f 38/38 41/41 42/42
f 135/135 138/138 136/136
f 114/114 115/115 113/113
f 114/114 116/116 115/115
f 114/114 117/117 116/116
f 114/114 118/118 117/117
f 114/114 119/119 118/118
f 114/114 120/120 119/119
f 114/114 121/121 120/120
f 114/114 122/122 121/121
f 114/114 123/123 122/122
f 43/43 44/44 45/45
f 46/46 47/47 48/48
f 106/106 105/105 111/111
f 49/49 50/50 51/51
f 108/108 107/107 110/110
f 112/112 113/113 102/102
f 112/112 114/114 113/113
f 52/52 53/53 54/54
f 103/103 107/107 108/108
f 103/103 108/108 109/109
f 103/103 106/106 107/107
f 103/103 104/104 105/105
f 103/103 102/102 104/104
f 103/103 105/105 106/106
f 128/128 129/129 125/125
f 55/55 56/56 57/57
f 127/127 128/128 125/125
f 126/126 127/127 125/125
f 58/58 59/59 60/60
f 124/124 126/126 125/125
f 124/124 125/125 112/112
f 124/124 130/130 126/126
f 124/124 131/131 130/130
f 124/124 132/132 131/131
f 61/61 62/62 63/63
f 93/93 102/102 103/103
f 92/92 112/112 102/102
f 92/92 124/124 112/112
f 92/92 102/102 93/93
f 91/91 92/92 93/93
f 64/64 65/65 66/66
f 97/97 95/95 101/101
f 67/67 68/68 69/69
f 94/94 93/93 95/95
f 94/94 91/91 93/93
f 98/98 97/97 99/99
f 98/98 99/99 100/100
f 96/96 95/95 97/97
f 70/70 71/71 72/72
f 70/70 73/73 74/74
f 96/96 94/94 95/95
f 96/96 97/97 98/98
f 87/87 92/92 91/91
f 85/85 86/86 87/87
f 75/75 76/76 77/77
f 90/90 87/87 91/91
f 88/88 85/85 87/87
f 78/78 79/79 75/75
f 89/89 87/87 90/90
f 89/89 88/88 87/87
f 133/133 134/134 88/88
f 80/80 81/81 82/82
f 80/80 83/83 84/84
f 133/133 88/88 89/89
