# https://github.com/mikedh/trimesh
v 0.02500000 -0.02511605 -0.00995042
v 0.02500000 -0.02557985 -0.00965898
v 0.02500000 -0.02596725 -0.00927164
v 0.02500000 -0.02459905 -0.01013134
v 0.02500000 -0.02405465 -0.01019267
v 0.02500000 -0.02625865 -0.00880781
v 0.02500000 -0.02643955 -0.00829077
v 0.02500000 -0.02650095 -0.00774643
v 0.02500000 -0.00856185 -0.01019267
v 0.02500000 -0.00801745 -0.01013134
v 0.02500000 -0.00750045 -0.00995042
v 0.02500000 -0.00703665 -0.00965898
v 0.02500000 -0.00664925 -0.00927164
v 0.02500000 -0.00635785 -0.00880781
v 0.02500000 -0.00617695 -0.00829077
v 0.02500000 -0.00611555 -0.00774643
v 0.02500000 -0.02650095 0.00774643
v 0.02500000 -0.02643955 0.00829077
v 0.02500000 -0.02625865 0.00880781
v 0.02500000 -0.02596725 0.00927163
v 0.02500000 -0.02557985 0.00965897
v 0.02500000 -0.02511605 0.00995041
v 0.02500000 -0.02459905 0.01013133
v 0.02500000 -0.02405465 0.01019267
v 0.02500000 -0.00856185 0.01019267
v 0.02500000 -0.00664925 0.00927163
v 0.02500000 -0.00801745 0.01013133
v 0.02500000 -0.00750045 0.00995041
v 0.02500000 -0.00703665 0.00965897
v 0.02500000 -0.00611555 0.00774643
v 0.02500000 -0.00617695 0.00829077
v 0.02500000 -0.00635785 0.00880781
v 0.02500000 0.00635785 -0.00880781
v 0.02500000 0.00617695 -0.00829077
v 0.02500000 0.00611565 -0.00774643
v 0.02500000 0.00703665 -0.00965898
v 0.02500000 0.00750045 -0.00995042
v 0.02500000 0.00801755 -0.01013134
v 0.02500000 0.00664935 -0.00927164
v 0.02500000 0.00856185 -0.01019267
v 0.02500000 0.02405475 -0.01019267
v 0.02500000 0.02459905 -0.01013134
v 0.02500000 0.02511605 -0.00995042
v 0.02500000 0.02557995 -0.00965898
v 0.02500000 0.02596725 -0.00927164
v 0.02500000 0.02625865 -0.00880781
v 0.02500000 0.02643965 -0.00829077
v 0.02500000 0.02650095 -0.00774643
v 0.02500000 0.00611565 0.00774643
v 0.02500000 0.00617695 0.00829077
v 0.02500000 0.00635785 0.00880781
v 0.02500000 0.00664935 0.00927163
v 0.02500000 0.00703665 0.00965897
v 0.02500000 0.00750045 0.00995041
v 0.02500000 0.00801755 0.01013133
v 0.02500000 0.00856185 0.01019267
v 0.02500000 0.02650095 0.00774643
v 0.02500000 0.02643965 0.00829077
v 0.02500000 0.02625865 0.00880781
v 0.02500000 0.02405475 0.01019267
v 0.02500000 0.02459905 0.01013133
v 0.02500000 0.02596725 0.00927163
v 0.02500000 0.02557995 0.00965897
v 0.02500000 0.02511605 0.00995041
v 0.07500000 -0.02511605 -0.00995042
v 0.07500000 -0.02557985 -0.00965898
v 0.07500000 -0.02596725 -0.00927164
v 0.07500000 -0.02459905 -0.01013134
v 0.07500000 -0.02405465 -0.01019267
v 0.07500000 -0.02625865 -0.00880781
v 0.07500000 -0.02643955 -0.00829077
v 0.07500000 -0.02650095 -0.00774643
v 0.07500000 -0.00856185 -0.01019267
v 0.07500000 -0.00801745 -0.01013134
v 0.07500000 -0.00750045 -0.00995042
v 0.07500000 -0.00703665 -0.00965898
v 0.07500000 -0.00664925 -0.00927164
v 0.07500000 -0.00635785 -0.00880781
v 0.07500000 -0.00617695 -0.00829077
v 0.07500000 -0.00611555 -0.00774643
v 0.07500000 -0.02650095 0.00774643
v 0.07500000 -0.02643955 0.00829077
v 0.07500000 -0.02625865 0.00880781
v 0.07500000 -0.02596725 0.00927163
v 0.07500000 -0.02557985 0.00965897
v 0.07500000 -0.02511605 0.00995041
v 0.07500000 -0.02459905 0.01013133
v 0.07500000 -0.02405465 0.01019267
v 0.07500000 -0.00856185 0.01019267
v 0.07500000 -0.00664925 0.00927163
v 0.07500000 -0.00801745 0.01013133
v 0.07500000 -0.00750045 0.00995041
v 0.07500000 -0.00703665 0.00965897
v 0.07500000 -0.00611555 0.00774643
v 0.07500000 -0.00617695 0.00829077
v 0.07500000 -0.00635785 0.00880781
v 0.07500000 0.00635785 -0.00880781
v 0.07500000 0.00617695 -0.00829077
v 0.07500000 0.00611565 -0.00774643
v 0.07500000 0.00703665 -0.00965898
v 0.07500000 0.00750045 -0.00995042
v 0.07500000 0.00801755 -0.01013134
v 0.07500000 0.00664935 -0.00927164
v 0.07500000 0.00856185 -0.01019267
v 0.07500000 0.02405475 -0.01019267
v 0.07500000 0.02459905 -0.01013134
v 0.07500000 0.02511605 -0.00995042
v 0.07500000 0.02557995 -0.00965898
v 0.07500000 0.02596725 -0.00927164
v 0.07500000 0.02625865 -0.00880781
v 0.07500000 0.02643965 -0.00829077
v 0.07500000 0.02650095 -0.00774643
v 0.07500000 0.00611565 0.00774643
v 0.07500000 0.00617695 0.00829077
v 0.07500000 0.00635785 0.00880781
v 0.07500000 0.00664935 0.00927163
v 0.07500000 0.00703665 0.00965897
v 0.07500000 0.00750045 0.00995041
v 0.07500000 0.00801755 0.01013133
v 0.07500000 0.00856185 0.01019267
v 0.07500000 0.02650095 0.00774643
v 0.07500000 0.02643965 0.00829077
v 0.07500000 0.02625865 0.00880781
v 0.07500000 0.02405475 0.01019267
v 0.07500000 0.02459905 0.01013133
v 0.07500000 0.02596725 0.00927163
v 0.07500000 0.02557995 0.00965897
v 0.07500000 0.02511605 0.00995041
f 65 1 4
f 66 2 1
f 67 3 2
f 70 6 3
f 68 4 5
f 71 7 6
f 72 8 7
f 69 5 9
f 73 9 10
f 74 10 11
f 75 11 12
f 76 12 13
f 77 13 14
f 78 14 15
f 79 15 16
f 80 16 30
f 81 17 8
f 82 18 17
f 83 19 18
f 84 20 19
f 85 21 20
f 86 22 21
f 87 23 22
f 88 24 23
f 89 25 24
f 90 26 29
f 91 27 25
f 92 28 27
f 93 29 28
f 94 30 31
f 95 31 32
f 96 32 26
f 97 33 39
f 98 34 33
f 99 35 34
f 100 36 37
f 101 37 38
f 102 38 40
f 103 39 36
f 104 40 41
f 105 41 42
f 106 42 43
f 107 43 44
f 108 44 45
f 109 45 46
f 110 46 47
f 111 47 48
f 112 48 57
f 113 49 35
f 114 50 49
f 115 51 50
f 116 52 51
f 117 53 52
f 118 54 53
f 119 55 54
f 120 56 55
f 124 60 56
f 121 57 58
f 122 58 59
f 125 61 60
f 123 59 62
f 126 62 63
f 127 63 64
f 128 64 61
f 65 66 1
f 66 67 2
f 67 70 3
f 65 4 68
f 68 5 69
f 70 71 6
f 71 72 7
f 69 9 73
f 72 81 8
f 73 10 74
f 74 11 75
f 75 12 76
f 76 13 77
f 77 14 78
f 78 15 79
f 79 16 80
f 65 67 66
f 65 68 67
f 67 68 72
f 68 69 72
f 67 72 70
f 70 72 71
f 69 73 72
f 72 73 81
f 73 74 76
f 74 75 76
f 73 76 78
f 76 77 78
f 73 78 79
f 73 79 80
f 73 80 94
f 81 82 17
f 82 83 18
f 83 84 19
f 84 85 20
f 85 86 21
f 86 87 22
f 87 88 23
f 88 89 24
f 80 30 94
f 89 91 25
f 90 29 93
f 91 92 27
f 92 93 28
f 94 31 95
f 95 32 96
f 90 96 26
f 73 94 81
f 81 83 82
f 81 84 83
f 81 88 84
f 84 86 85
f 84 88 86
f 86 88 87
f 81 94 88
f 88 94 89
f 89 94 91
f 92 94 93
f 91 94 92
f 90 94 95
f 90 93 94
f 90 95 96
f 97 39 103
f 97 98 33
f 98 99 34
f 100 37 101
f 101 38 102
f 100 103 36
f 102 40 104
f 99 113 35
f 104 41 105
f 105 42 106
f 106 43 107
f 107 44 108
f 108 45 109
f 109 46 110
f 110 47 111
f 111 48 112
f 100 104 103
f 100 101 104
f 101 102 104
f 97 103 104
f 97 104 98
f 98 104 99
f 99 104 113
f 106 107 109
f 107 108 109
f 105 106 112
f 106 109 110
f 106 110 112
f 110 111 112
f 104 105 121
f 105 112 121
f 113 114 49
f 114 115 50
f 115 116 51
f 116 117 52
f 117 118 53
f 118 119 54
f 119 120 55
f 112 57 121
f 120 124 56
f 121 58 122
f 122 59 123
f 124 125 60
f 125 128 61
f 123 62 126
f 126 63 127
f 127 64 128
f 113 115 114
f 113 119 115
f 115 119 116
f 113 120 119
f 116 118 117
f 116 119 118
f 104 121 113
f 113 121 120
f 120 121 124
f 121 122 128
f 121 125 124
f 121 128 125
f 122 123 127
f 122 127 128
f 123 126 127
f 5 4 30
f 2 30 1
f 4 1 30
f 3 30 2
f 6 30 3
f 7 30 6
f 8 30 7
f 9 5 30
f 9 30 10
f 10 30 11
f 11 30 12
f 12 30 13
f 13 30 14
f 14 30 15
f 16 15 30
f 17 18 8
f 18 19 8
f 20 8 19
f 21 8 20
f 22 8 21
f 23 8 22
f 8 23 24
f 8 24 25
f 8 29 26
f 8 25 27
f 8 28 29
f 8 27 28
f 8 31 30
f 8 32 31
f 8 26 32
f 33 57 39
f 34 57 33
f 35 57 34
f 42 41 43
f 43 41 44
f 44 41 45
f 45 41 46
f 46 41 47
f 48 47 41
f 37 57 38
f 36 57 37
f 40 38 57
f 39 57 36
f 57 41 40
f 48 41 57
f 35 49 56
f 56 60 35
f 49 50 56
f 50 51 56
f 52 56 51
f 53 56 52
f 54 56 53
f 55 56 54
f 57 35 58
f 58 35 59
f 59 35 62
f 62 35 63
f 64 35 61
f 63 35 64
f 60 61 35