# https://github.com/mikedh/trimesh
v -0.07085319 0.06251974 -0.00567660 0.24313725 0.41960784 0.55686275
v -0.07085319 0.06251974 0.00088105 0.24313725 0.41960784 0.55686275
v -0.07085319 0.06523269 -0.00567660 0.24313725 0.41960784 0.55686275
v -0.06313904 0.06251974 -0.00567660 0.24313725 0.41960784 0.55686275
v -0.07085319 0.06523269 0.00088105 0.24313725 0.41960784 0.55686275
v -0.06503439 0.06251974 0.00088105 0.24313725 0.41960784 0.55686275
v -0.05841043 0.06523269 -0.00567660 0.24313725 0.41960784 0.55686275
v -0.06350569 0.06251974 -0.00339528 0.24313725 0.41960784 0.55686275
v -0.06208540 0.06523269 0.00088105 0.24313725 0.41960784 0.55686275
v -0.06410377 0.06251974 -0.00110691 0.24313725 0.41960784 0.55686275
v -0.06346184 0.06389335 0.00088105 0.24313725 0.41960784 0.55686275
v -0.06396247 0.06251974 -0.00148692 0.24313725 0.41960784 0.55686275
f 1 2 5
f 1 5 3
f 1 3 7
f 1 7 4
f 1 4 8
f 1 8 12
f 1 12 10
f 1 10 6
f 1 6 2
f 2 6 11
f 2 11 9
f 2 9 5
f 3 5 9
f 3 9 7
f 4 7 8
f 6 10 7
f 6 7 11
f 7 9 11
f 7 10 12
f 7 12 8