# https://github.com/mikedh/trimesh
v 0.03572605 0.05552239 -0.00730630 0.27058824 0.36862745 0.19607843
v 0.03572746 0.05541927 -0.00730630 0.27058824 0.36862745 0.19607843
v 0.03848707 0.05552239 -0.00462707 0.27058824 0.36862745 0.19607843
v 0.03856873 0.05823011 -0.00462707 0.27058824 0.36862745 0.19607843
v 0.03587248 0.05823011 -0.00730630 0.27058824 0.36862745 0.19607843
v 0.03849411 0.05541927 -0.00462707 0.27058824 0.36862745 0.19607843
v 0.04853994 0.05541927 -0.00730630 0.27058824 0.36862745 0.19607843
v 0.03902773 0.06093929 -0.00462707 0.27058824 0.36862745 0.19607843
v 0.03822237 0.07046932 -0.00730630 0.27058824 0.36862745 0.19607843
v 0.04597321 0.05541927 -0.00462707 0.27058824 0.36862745 0.19607843
v 0.05010841 0.06035149 -0.00730630 0.27058824 0.36862745 0.19607843
v 0.05010841 0.06330375 -0.00462707 0.27058824 0.36862745 0.19607843
v 0.03990489 0.06353504 -0.00462707 0.27058824 0.36862745 0.19607843
v 0.04160430 0.06635324 -0.00462707 0.27058824 0.36862745 0.19607843
v 0.04415975 0.07046932 -0.00462707 0.27058824 0.36862745 0.19607843
v 0.05010841 0.07046932 -0.00730630 0.27058824 0.36862745 0.19607843
v 0.05010841 0.07046932 -0.00462707 0.27058824 0.36862745 0.19607843
f 1 2 3
f 1 3 4
f 1 4 5
f 1 5 9
f 1 9 16
f 1 16 11
f 1 11 7
f 1 7 2
f 2 6 3
f 2 7 10
f 2 10 6
f 3 6 10
f 3 10 12
f 3 12 17
f 3 17 15
f 3 15 14
f 3 14 13
f 3 13 8
f 3 8 4
f 4 8 5
f 5 8 9
f 7 11 12
f 7 12 10
f 8 13 9
f 9 13 14
f 9 14 15
f 9 15 17
f 9 17 16
f 11 16 17
f 11 17 12