# https://github.com/mikedh/trimesh
v -0.08273959 -0.07988876 -0.01218822 0.38039216 0.78823529 0.52549020
v -0.08253714 -0.07988876 -0.01489587 0.38039216 0.78823529 0.52549020
v -0.08188933 -0.08188955 -0.01489587 0.38039216 0.78823529 0.52549020
v -0.08199459 -0.08199485 -0.01218822 0.38039216 0.78823529 0.52549020
v -0.08273959 -0.07988876 -0.00737907 0.38039216 0.78823529 0.52549020
v -0.08273959 -0.01489950 -0.01218822 0.38039216 0.78823529 0.52549020
v -0.08179215 -0.07988876 -0.01668190 0.38039216 0.78823529 0.52549020
v -0.08160590 -0.08160604 -0.01653799 0.38039216 0.78823529 0.52549020
v -0.08253714 0.00001328 -0.01489587 0.38039216 0.78823529 0.52549020
v -0.07988918 -0.08253758 -0.01489587 0.38039216 0.78823529 0.52549020
v -0.07988918 -0.08273198 -0.01218822 0.38039216 0.78823529 0.52549020
v -0.08199459 -0.08199485 -0.00737907 0.38039216 0.78823529 0.52549020
v -0.08035885 -0.08256998 -0.00737907 0.38039216 0.78823529 0.52549020
v -0.08273959 -0.01489950 -0.00737907 0.38039216 0.78823529 0.52549020
v -0.07988918 -0.07988876 -0.01711459 0.38039216 0.78823529 0.52549020
v -0.08179215 0.00001328 -0.01668190 0.38039216 0.78823529 0.52549020
v -0.08085281 0.00001328 -0.01689634 0.38039216 0.78823529 0.52549020
v -0.07988918 -0.08179234 -0.01668190 0.38039216 0.78823529 0.52549020
v -0.08220513 0.00001328 -0.01218822 0.38039216 0.78823529 0.52549020
v -0.00001304 -0.08253758 -0.01489587 0.38039216 0.78823529 0.52549020
v -0.07718454 -0.08274009 -0.01218822 0.38039216 0.78823529 0.52549020
v -0.07988918 -0.08273198 -0.00737907 0.38039216 0.78823529 0.52549020
v -0.08150873 0.00001328 -0.00737907 0.38039216 0.78823529 0.52549020
v -0.00001304 -0.07988876 -0.01711459 0.38039216 0.78823529 0.52549020
v -0.07988918 0.00001328 -0.01711459 0.38039216 0.78823529 0.52549020
v -0.00001304 -0.08179234 -0.01668190 0.38039216 0.78823529 0.52549020
v -0.00001304 -0.08237558 -0.01355396 0.38039216 0.78823529 0.52549020
v -0.01489669 -0.08274009 -0.00737907 0.38039216 0.78823529 0.52549020
v -0.01489669 -0.08274009 -0.01218822 0.38039216 0.78823529 0.52549020
v -0.07718454 -0.08274009 -0.00737907 0.38039216 0.78823529 0.52549020
v -0.07031765 0.00001328 -0.00737907 0.38039216 0.78823529 0.52549020
v -0.00001304 0.00000518 -0.01711459 0.38039216 0.78823529 0.52549020
v -0.00002113 0.00001328 -0.01711459 0.38039216 0.78823529 0.52549020
v -0.00001304 -0.08220546 -0.01218822 0.38039216 0.78823529 0.52549020
v -0.00001304 -0.08150883 -0.00737907 0.38039216 0.78823529 0.52549020
v -0.00001304 0.00001328 -0.00788610 0.38039216 0.78823529 0.52549020
v -0.00001304 -0.07032222 -0.00737907 0.38039216 0.78823529 0.52549020
f 1 2 3
f 1 3 4
f 1 4 12
f 1 12 5
f 1 5 14
f 1 14 6
f 1 6 9
f 1 9 2
f 2 7 8
f 2 8 3
f 2 9 16
f 2 16 7
f 3 8 10
f 3 10 11
f 3 11 4
f 4 11 13
f 4 13 12
f 5 12 13
f 5 13 22
f 5 22 30
f 5 30 28
f 5 28 35
f 5 35 37
f 5 37 31
f 5 31 23
f 5 23 14
f 6 14 9
f 7 15 8
f 7 16 17
f 7 17 15
f 8 15 18
f 8 18 10
f 9 14 19
f 9 19 23
f 9 23 31
f 9 31 36
f 9 36 33
f 9 33 25
f 9 25 17
f 9 17 16
f 10 20 29
f 10 29 21
f 10 21 11
f 10 18 26
f 10 26 20
f 11 22 13
f 11 21 30
f 11 30 22
f 14 23 19
f 15 24 26
f 15 26 18
f 15 17 25
f 15 25 33
f 15 33 32
f 15 32 24
f 20 27 28
f 20 28 29
f 20 26 24
f 20 24 32
f 20 32 36
f 20 36 37
f 20 37 35
f 20 35 34
f 20 34 27
f 21 29 28
f 21 28 30
f 27 34 28
f 28 34 35
f 31 37 36
f 32 33 36