# https://github.com/mikedh/trimesh
v -0.06297139 -0.04963719 -0.00567660 0.94509804 0.72941176 0.25098039
v -0.06297139 -0.03932919 -0.00567660 0.94509804 0.72941176 0.25098039
v -0.05921597 -0.04782642 -0.00567660 0.94509804 0.72941176 0.25098039
v -0.06297139 -0.04953569 0.00630989 0.94509804 0.72941176 0.25098039
v -0.06093799 -0.03870377 -0.00567660 0.94509804 0.72941176 0.25098039
v -0.06297139 -0.03994479 0.01218719 0.94509804 0.72941176 0.25098039
v -0.06093799 -0.03921895 0.01218719 0.94509804 0.72941176 0.25098039
v -0.05921597 -0.03848766 -0.00567660 0.94509804 0.72941176 0.25098039
v -0.05921597 -0.04711913 0.00412262 0.94509804 0.72941176 0.25098039
v -0.06297139 -0.04951167 0.00664433 0.94509804 0.72941176 0.25098039
v -0.05921597 -0.03888277 0.01218719 0.94509804 0.72941176 0.25098039
v -0.06297139 -0.04002556 0.01448148 0.94509804 0.72941176 0.25098039
v -0.06297139 -0.04005394 0.01489396 0.94509804 0.72941176 0.25098039
v -0.06093799 -0.03940778 0.01489396 0.94509804 0.72941176 0.25098039
v -0.05921597 -0.04687245 0.00673129 0.94509804 0.72941176 0.25098039
v -0.05921597 -0.04555721 0.01489396 0.94509804 0.72941176 0.25098039
v -0.06297139 -0.04766924 0.01489396 0.94509804 0.72941176 0.25098039
v -0.05921597 -0.03895154 0.01317268 0.94509804 0.72941176 0.25098039
v -0.06297139 -0.04033991 0.01630531 0.94509804 0.72941176 0.25098039
v -0.05921597 -0.03912836 0.01489396 0.94509804 0.72941176 0.25098039
v -0.06292360 -0.04036283 0.01648814 0.94509804 0.72941176 0.25098039
v -0.05921597 -0.04508242 0.01566318 0.94509804 0.72941176 0.25098039
v -0.06172216 -0.04631252 0.01646807 0.94509804 0.72941176 0.25098039
v -0.06297139 -0.04756664 0.01521502 0.94509804 0.72941176 0.25098039
v -0.06297139 -0.04037593 0.01644578 0.94509804 0.72941176 0.25098039
v -0.05921597 -0.03938486 0.01553163 0.94509804 0.72941176 0.25098039
v -0.06297139 -0.04044797 0.01650375 0.94509804 0.72941176 0.25098039
v -0.06093799 -0.04011179 0.01664421 0.94509804 0.72941176 0.25098039
v -0.05921597 -0.04439587 0.01669773 0.94509804 0.72941176 0.25098039
v -0.06297139 -0.04689538 0.01656618 0.94509804 0.72941176 0.25098039
v -0.05921597 -0.04000046 0.01666874 0.94509804 0.72941176 0.25098039
v -0.06297139 -0.04136373 0.01671333 0.94509804 0.72941176 0.25098039
v -0.06093799 -0.04198041 0.01707676 0.94509804 0.72941176 0.25098039
v -0.05921597 -0.04303479 0.01696974 0.94509804 0.72941176 0.25098039
v -0.06297139 -0.04657775 0.01665982 0.94509804 0.72941176 0.25098039
v -0.05921597 -0.04068045 0.01682481 0.94509804 0.72941176 0.25098039
v -0.06297139 -0.04188327 0.01683150 0.94509804 0.72941176 0.25098039
v -0.06297139 -0.04401385 0.01706562 0.94509804 0.72941176 0.25098039
v -0.05921597 -0.04198041 0.01710129 0.94509804 0.72941176 0.25098039
v -0.06297139 -0.04471459 0.01698089 0.94509804 0.72941176 0.25098039
f 1 2 5
f 1 5 8
f 1 8 3
f 1 3 4
f 1 4 10
f 1 10 17
f 1 17 24
f 1 24 30
f 1 30 35
f 1 35 40
f 1 40 38
f 1 38 37
f 1 37 32
f 1 32 27
f 1 27 25
f 1 25 19
f 1 19 13
f 1 13 12
f 1 12 6
f 1 6 2
f 2 6 7
f 2 7 5
f 3 8 11
f 3 11 18
f 3 18 20
f 3 20 26
f 3 26 31
f 3 31 36
f 3 36 39
f 3 39 34
f 3 34 29
f 3 29 22
f 3 22 16
f 3 16 15
f 3 15 9
f 3 9 10
f 3 10 4
f 5 7 11
f 5 11 8
f 6 12 7
f 7 12 13
f 7 13 14
f 7 14 11
f 9 15 10
f 10 15 16
f 10 16 17
f 11 14 18
f 13 19 14
f 14 20 18
f 14 19 21
f 14 21 20
f 16 22 23
f 16 23 24
f 16 24 17
f 19 25 21
f 20 21 26
f 21 25 27
f 21 27 28
f 21 28 26
f 22 29 23
f 23 30 24
f 23 29 30
f 26 28 31
f 27 32 33
f 27 33 28
f 28 33 31
f 29 34 35
f 29 35 30
f 31 33 36
f 32 37 33
f 33 38 39
f 33 39 36
f 33 37 38
f 34 39 40
f 34 40 35
f 38 40 39