# https://github.com/mikedh/trimesh
v 0.05290478 -0.04730319 -0.00404457 0.61176471 0.12156863 0.84705882
v 0.05290478 -0.03890383 -0.00404457 0.61176471 0.12156863 0.84705882
v 0.05822931 -0.04677285 -0.00404457 0.61176471 0.12156863 0.84705882
v 0.05822931 -0.04683169 0.00406282 0.61176471 0.12156863 0.84705882
v 0.05290478 -0.04712585 0.00406282 0.61176471 0.12156863 0.84705882
v 0.05552143 -0.03859347 -0.00404457 0.61176471 0.12156863 0.84705882
v 0.05290478 -0.03891236 0.01218678 0.61176471 0.12156863 0.84705882
v 0.05552143 -0.03859689 0.01218678 0.61176471 0.12156863 0.84705882
v 0.05822931 -0.03868471 -0.00404457 0.61176471 0.12156863 0.84705882
v 0.05290478 -0.04712158 0.00413739 0.61176471 0.12156863 0.84705882
v 0.05822931 -0.04525942 0.01489407 0.61176471 0.12156863 0.84705882
v 0.05290478 -0.04569341 0.01515092 0.61176471 0.12156863 0.84705882
v 0.05290478 -0.04687431 0.00687990 0.61176471 0.12156863 0.84705882
v 0.05821315 -0.03868385 -0.00404457 0.61176471 0.12156863 0.84705882
v 0.05290478 -0.03913916 0.01480293 0.61176471 0.12156863 0.84705882
v 0.05552143 -0.03889190 0.01489407 0.61176471 0.12156863 0.84705882
v 0.05822931 -0.03896863 0.01489407 0.61176471 0.12156863 0.84705882
v 0.05822931 -0.03868897 0.01218678 0.61176471 0.12156863 0.84705882
v 0.05822931 -0.04415525 0.01668167 0.61176471 0.12156863 0.84705882
v 0.05290478 -0.04466172 0.01663403 0.61176471 0.12156863 0.84705882
v 0.05290478 -0.03914940 0.01489407 0.61176471 0.12156863 0.84705882
v 0.05290478 -0.03997134 0.01661953 0.61176471 0.12156863 0.84705882
v 0.05552143 -0.03990654 0.01668167 0.61176471 0.12156863 0.84705882
v 0.05822931 -0.03993724 0.01668167 0.61176471 0.12156863 0.84705882
v 0.05822931 -0.04198016 0.01711459 0.61176471 0.12156863 0.84705882
v 0.05290478 -0.04446731 0.01667339 0.61176471 0.12156863 0.84705882
v 0.05290478 -0.04000545 0.01667960 0.61176471 0.12156863 0.84705882
v 0.05290478 -0.04190939 0.01709802 0.61176471 0.12156863 0.84705882
v 0.05552143 -0.04198016 0.01711459 0.61176471 0.12156863 0.84705882
v 0.05290478 -0.04198016 0.01711252 0.61176471 0.12156863 0.84705882
f 1 2 6
f 1 6 14
f 1 14 9
f 1 9 3
f 1 3 4
f 1 4 5
f 1 5 10
f 1 10 13
f 1 13 12
f 1 12 20
f 1 20 26
f 1 26 30
f 1 30 28
f 1 28 27
f 1 27 22
f 1 22 21
f 1 21 15
f 1 15 7
f 1 7 2
f 2 7 8
f 2 8 6
f 3 9 18
f 3 18 17
f 3 17 24
f 3 24 25
f 3 25 19
f 3 19 11
f 3 11 4
f 4 10 5
f 4 11 12
f 4 12 13
f 4 13 10
f 6 8 14
f 7 15 8
f 8 15 16
f 8 16 17
f 8 17 18
f 8 18 14
f 9 14 18
f 11 19 12
f 12 19 20
f 15 21 16
f 16 21 22
f 16 22 23
f 16 23 24
f 16 24 17
f 19 25 26
f 19 26 20
f 22 27 23
f 23 28 29
f 23 29 25
f 23 25 24
f 23 27 28
f 25 29 26
f 26 29 30
f 28 30 29