# https://github.com/mikedh/trimesh
v 0.03850330 0.05599949 -0.00462707 0.07843137 0.08627451 0.67058824
v 0.04600722 0.05599949 -0.00462707 0.07843137 0.08627451 0.67058824
v 0.03861687 0.05599949 -0.00195586 0.07843137 0.08627451 0.67058824
v 0.03856900 0.05823052 -0.00462707 0.07843137 0.08627451 0.67058824
v 0.04649160 0.05599949 -0.00368341 0.07843137 0.08627451 0.67058824
v 0.04987777 0.06315153 -0.00462707 0.07843137 0.08627451 0.67058824
v 0.04648380 0.05599949 -0.00195586 0.07843137 0.08627451 0.67058824
v 0.03867366 0.05762849 -0.00195586 0.07843137 0.08627451 0.67058824
v 0.03869482 0.05823052 -0.00195586 0.07843137 0.08627451 0.67058824
v 0.03902776 0.06093892 -0.00462707 0.07843137 0.08627451 0.67058824
v 0.04987777 0.06327760 -0.00401784 0.07843137 0.08627451 0.67058824
v 0.04987777 0.07046932 -0.00462707 0.07843137 0.08627451 0.67058824
v 0.04987777 0.06329036 -0.00396476 0.07843137 0.08627451 0.67058824
v 0.04987777 0.06377906 -0.00195586 0.07843137 0.08627451 0.67058824
v 0.03921371 0.06093892 -0.00195586 0.07843137 0.08627451 0.67058824
v 0.03990409 0.06353400 -0.00462707 0.07843137 0.08627451 0.67058824
v 0.04416103 0.07046932 -0.00462707 0.07843137 0.08627451 0.67058824
v 0.04987777 0.07046932 -0.00195586 0.07843137 0.08627451 0.67058824
v 0.04010786 0.06343484 -0.00195586 0.07843137 0.08627451 0.67058824
v 0.04073254 0.06478904 -0.00195586 0.07843137 0.08627451 0.67058824
v 0.04160441 0.06635430 -0.00462707 0.07843137 0.08627451 0.67058824
v 0.04425790 0.07046932 -0.00195586 0.07843137 0.08627451 0.67058824
f 1 2 5
f 1 5 7
f 1 7 3
f 1 3 4
f 1 4 10
f 1 10 16
f 1 16 21
f 1 21 17
f 1 17 12
f 1 12 6
f 1 6 2
f 2 6 5
f 3 7 14
f 3 14 18
f 3 18 22
f 3 22 20
f 3 20 19
f 3 19 15
f 3 15 9
f 3 9 8
f 3 8 4
f 4 8 9
f 4 9 10
f 5 6 7
f 6 11 7
f 6 12 18
f 6 18 14
f 6 14 13
f 6 13 11
f 7 11 13
f 7 13 14
f 9 15 10
f 10 15 16
f 12 17 22
f 12 22 18
f 15 19 16
f 16 19 20
f 16 20 21
f 17 21 22
f 20 22 21