# https://github.com/mikedh/trimesh
v 0.07989594 0.07989365 0.01711459 0.69411765 0.05882353 0.66666667
v 0.08179295 0.07989365 0.01668192 0.69411765 0.05882353 0.66666667
v 0.08161206 0.08161258 0.01653610 0.69411765 0.05882353 0.66666667
v 0.07989594 0.08179128 0.01668192 0.69411765 0.05882353 0.66666667
v 0.07316454 0.07989365 0.01711459 0.69411765 0.05882353 0.66666667
v 0.07989594 0.03927337 0.01711459 0.69411765 0.05882353 0.66666667
v 0.08253807 0.07989365 0.01489384 0.69411765 0.05882353 0.66666667
v 0.08179295 0.04198366 0.01668192 0.69411765 0.05882353 0.66666667
v 0.08189418 0.08189339 0.01489384 0.69411765 0.05882353 0.66666667
v 0.07989594 0.08253587 0.01489384 0.69411765 0.05882353 0.66666667
v 0.07316454 0.08179128 0.01668192 0.69411765 0.05882353 0.66666667
v 0.07316454 0.07718762 0.01711459 0.69411765 0.05882353 0.66666667
v 0.07718820 0.03927337 0.01711459 0.69411765 0.05882353 0.66666667
v 0.08179389 0.03927337 0.01667953 0.69411765 0.05882353 0.66666667
v 0.08273865 0.07989365 0.01218542 0.69411765 0.05882353 0.66666667
v 0.08253807 0.04198366 0.01489384 0.69411765 0.05882353 0.66666667
v 0.08199447 0.08199125 0.01218542 0.69411765 0.05882353 0.66666667
v 0.07989594 0.08273584 0.01218542 0.69411765 0.05882353 0.66666667
v 0.07718820 0.08274009 0.01218542 0.69411765 0.05882353 0.66666667
v 0.07316454 0.08264224 0.01350258 0.69411765 0.05882353 0.66666667
v 0.07316454 0.08253587 0.01489384 0.69411765 0.05882353 0.66666667
v 0.07316454 0.05552233 0.01701898 0.69411765 0.05882353 0.66666667
v 0.07496783 0.03927337 0.01668192 0.69411765 0.05882353 0.66666667
v 0.08253807 0.03927337 0.01489145 0.69411765 0.05882353 0.66666667
v 0.08273865 0.07989365 -0.00730656 0.69411765 0.05882353 0.66666667
v 0.08259150 0.08031062 -0.00730656 0.69411765 0.05882353 0.66666667
v 0.08273865 0.04198366 0.01218542 0.69411765 0.05882353 0.66666667
v 0.08031115 0.08259117 -0.00730656 0.69411765 0.05882353 0.66666667
v 0.08199447 0.08199125 -0.00730656 0.69411765 0.05882353 0.66666667
v 0.07989594 0.08273584 -0.00730656 0.69411765 0.05882353 0.66666667
v 0.07316454 0.08274009 0.01218542 0.69411765 0.05882353 0.66666667
v 0.07718820 0.08274009 -0.00730656 0.69411765 0.05882353 0.66666667
v 0.07316454 0.05420761 0.01696160 0.69411765 0.05882353 0.66666667
v 0.07316454 0.04739998 0.01606756 0.69411765 0.05882353 0.66666667
v 0.07316454 0.04475777 0.01536954 0.69411765 0.05882353 0.66666667
v 0.07380562 0.03927337 0.01489384 0.69411765 0.05882353 0.66666667
v 0.07316454 0.05281630 0.01689945 0.69411765 0.05882353 0.66666667
v 0.07316454 0.05149732 0.01677037 0.69411765 0.05882353 0.66666667
v 0.07316454 0.05019962 0.01664128 0.69411765 0.05882353 0.66666667
v 0.08273865 0.03927337 0.01218303 0.69411765 0.05882353 0.66666667
v 0.08273865 0.03927337 -0.00730656 0.69411765 0.05882353 0.66666667
v 0.07316454 0.08274009 -0.00730656 0.69411765 0.05882353 0.66666667
v 0.07316454 0.04310266 0.01376314 0.69411765 0.05882353 0.66666667
v 0.07351039 0.03927337 0.01218542 0.69411765 0.05882353 0.66666667
v 0.07316454 0.03927337 -0.00730656 0.69411765 0.05882353 0.66666667
v 0.07316454 0.04273675 0.01218542 0.69411765 0.05882353 0.66666667
v 0.07316454 0.03927337 -0.00568581 0.69411765 0.05882353 0.66666667
f 1 2 3
f 1 3 4
f 1 4 11
f 1 11 5
f 1 5 12
f 1 12 13
f 1 13 6
f 1 6 8
f 1 8 2
f 2 7 3
f 2 8 16
f 2 16 7
f 3 9 10
f 3 10 4
f 3 7 9
f 4 10 21
f 4 21 11
f 5 11 21
f 5 21 20
f 5 20 31
f 5 31 42
f 5 42 45
f 5 45 47
f 5 47 46
f 5 46 43
f 5 43 35
f 5 35 34
f 5 34 39
f 5 39 38
f 5 38 37
f 5 37 33
f 5 33 22
f 5 22 12
f 6 13 23
f 6 23 36
f 6 36 44
f 6 44 47
f 6 47 45
f 6 45 41
f 6 41 40
f 6 40 24
f 6 24 14
f 6 14 8
f 7 15 9
f 7 16 27
f 7 27 15
f 8 14 16
f 9 15 17
f 9 17 18
f 9 18 10
f 10 18 19
f 10 19 20
f 10 20 21
f 12 22 13
f 13 22 23
f 14 24 16
f 15 25 26
f 15 26 17
f 15 27 40
f 15 40 41
f 15 41 25
f 16 24 40
f 16 40 27
f 17 28 18
f 17 26 29
f 17 29 28
f 18 28 30
f 18 30 32
f 18 32 19
f 19 31 20
f 19 32 42
f 19 42 31
f 22 33 23
f 23 34 35
f 23 35 36
f 23 33 37
f 23 37 38
f 23 38 39
f 23 39 34
f 25 41 45
f 25 45 42
f 25 42 32
f 25 32 30
f 25 30 28
f 25 28 29
f 25 29 26
f 35 43 36
f 36 43 44
f 43 46 44
f 44 46 47