# https://github.com/mikedh/trimesh
v -0.07718803 0.04084488 0.01711459 0.08627451 0.01960784 0.83137255
v -0.07588803 0.04084488 0.01686250 0.08627451 0.01960784 0.83137255
v -0.07989606 0.04084488 0.01711459 0.08627451 0.01960784 0.83137255
v -0.07718803 0.00001328 0.01711459 0.08627451 0.01960784 0.83137255
v -0.07495755 0.04084488 0.01668179 0.08627451 0.01960784 0.83137255
v -0.08179301 0.04084488 0.01668179 0.08627451 0.01960784 0.83137255
v -0.08083506 0.00001328 0.01690042 0.08627451 0.01960784 0.83137255
v -0.07989606 0.00001328 0.01711459 0.08627451 0.01960784 0.83137255
v -0.07496798 0.00001328 0.01668179 0.08627451 0.01960784 0.83137255
v -0.07422038 0.04084488 0.01559979 0.08627451 0.01960784 0.83137255
v -0.08253776 0.04084488 0.01489482 0.08627451 0.01960784 0.83137255
v -0.08179301 0.00001328 0.01668179 0.08627451 0.01960784 0.83137255
v -0.07380631 0.00001328 0.01489482 0.08627451 0.01960784 0.83137255
v -0.07368408 0.04084488 0.01477435 0.08627451 0.01960784 0.83137255
v -0.08262210 0.04084488 0.01375927 0.08627451 0.01960784 0.83137255
v -0.08253776 0.00001328 0.01489482 0.08627451 0.01960784 0.83137255
v -0.07365660 0.00001328 0.01352726 0.08627451 0.01960784 0.83137255
v -0.07350689 0.04084488 0.01323500 0.08627451 0.01960784 0.83137255
v -0.08273864 0.04084488 0.01218647 0.08627451 0.01960784 0.83137255
v -0.08273864 0.01489747 0.01218647 0.08627451 0.01960784 0.83137255
v -0.08273864 0.01489747 -0.00567660 0.08627451 0.01960784 0.83137255
v -0.08148980 0.00001328 -0.00567660 0.08627451 0.01960784 0.83137255
v -0.07351068 0.00001328 0.01218647 0.08627451 0.01960784 0.83137255
v -0.07339319 0.04084488 0.01218647 0.08627451 0.01960784 0.83137255
v -0.08273864 0.04084488 -0.00567660 0.08627451 0.01960784 0.83137255
v -0.07317905 0.00001328 -0.00567660 0.08627451 0.01960784 0.83137255
v -0.07305966 0.04084488 -0.00567660 0.08627451 0.01960784 0.83137255
f 1 2 5
f 1 5 10
f 1 10 14
f 1 14 18
f 1 18 24
f 1 24 27
f 1 27 25
f 1 25 19
f 1 19 15
f 1 15 11
f 1 11 6
f 1 6 3
f 1 3 8
f 1 8 4
f 1 4 2
f 2 4 5
f 3 6 7
f 3 7 8
f 4 8 7
f 4 7 12
f 4 12 16
f 4 16 22
f 4 22 26
f 4 26 23
f 4 23 17
f 4 17 13
f 4 13 9
f 4 9 5
f 5 9 10
f 6 11 16
f 6 16 12
f 6 12 7
f 9 13 10
f 10 13 14
f 11 15 16
f 13 17 18
f 13 18 14
f 15 19 20
f 15 20 16
f 16 20 21
f 16 21 22
f 17 23 18
f 18 23 24
f 19 25 21
f 19 21 20
f 21 25 27
f 21 27 26
f 21 26 22
f 23 26 27
f 23 27 24