# https://github.com/mikedh/trimesh
v 0.04935957 0.04932364 0.00948045 0.96078431 0.29019608 0.23921569
v 0.04925209 0.04932364 0.00677108 0.96078431 0.29019608 0.23921569
v 0.04671171 0.05645976 0.00677108 0.96078431 0.29019608 0.23921569
v 0.04656315 0.05645976 0.00810938 0.96078431 0.29019608 0.23921569
v 0.04642090 0.05645976 0.00886045 0.96078431 0.29019608 0.23921569
v 0.04512700 0.05645976 0.01489543 0.96078431 0.29019608 0.23921569
v 0.04773166 0.04932364 0.01489543 0.96078431 0.29019608 0.23921569
v 0.04657579 0.05645976 0.00602001 0.96078431 0.29019608 0.23921569
v 0.04847239 0.04932364 0.00424065 0.96078431 0.29019608 0.23921569
v 0.04633239 0.05645976 0.00479638 0.96078431 0.29019608 0.23921569
v 0.04446425 0.05645976 0.01606235 0.96078431 0.29019608 0.23921569
v 0.04679600 0.04932364 0.01658154 0.96078431 0.29019608 0.23921569
v 0.04001146 0.04932364 0.00424065 0.96078431 0.29019608 0.23921569
v 0.04607003 0.05645976 0.00424065 0.96078431 0.29019608 0.23921569
v 0.04408493 0.05645976 0.01668109 0.96078431 0.29019608 0.23921569
v 0.04273097 0.05645976 0.01696463 0.96078431 0.29019608 0.23921569
v 0.04197970 0.05645976 0.01711459 0.96078431 0.29019608 0.23921569
v 0.04468763 0.04932364 0.01698479 0.96078431 0.29019608 0.23921569
v 0.03969220 0.05010467 0.00424065 0.96078431 0.29019608 0.23921569
v 0.04001146 0.04932364 0.01218731 0.96078431 0.29019608 0.23921569
v 0.03863011 0.05645976 0.00424065 0.96078431 0.29019608 0.23921569
v 0.04197970 0.05552086 0.01711459 0.96078431 0.29019608 0.23921569
v 0.04062575 0.05645976 0.01683105 0.96078431 0.29019608 0.23921569
v 0.03990715 0.05552086 0.01668109 0.96078431 0.29019608 0.23921569
v 0.04197970 0.05281311 0.01711207 0.96078431 0.29019608 0.23921569
v 0.04197970 0.05010467 0.01696463 0.96078431 0.29019608 0.23921569
v 0.04198814 0.04932364 0.01686634 0.96078431 0.29019608 0.23921569
v 0.03964057 0.05028281 0.00424065 0.96078431 0.29019608 0.23921569
v 0.03969220 0.05010467 0.01218731 0.96078431 0.29019608 0.23921569
v 0.04011578 0.04932364 0.01489543 0.96078431 0.29019608 0.23921569
v 0.03860271 0.05569900 0.00424065 0.96078431 0.29019608 0.23921569
v 0.03863011 0.05645976 0.01218731 0.96078431 0.29019608 0.23921569
v 0.03991874 0.05645976 0.01668109 0.96078431 0.29019608 0.23921569
v 0.03925599 0.05645976 0.01551543 0.96078431 0.29019608 0.23921569
v 0.03889247 0.05552086 0.01489543 0.96078431 0.29019608 0.23921569
v 0.04000619 0.05281311 0.01667983 0.96078431 0.29019608 0.23921569
v 0.04029068 0.05010467 0.01653239 0.96078431 0.29019608 0.23921569
v 0.04041818 0.04932364 0.01643410 0.96078431 0.29019608 0.23921569
v 0.03891776 0.05281311 0.00424065 0.96078431 0.29019608 0.23921569
v 0.03891776 0.05281311 0.01218731 0.96078431 0.29019608 0.23921569
v 0.03982286 0.05010467 0.01489543 0.96078431 0.29019608 0.23921569
v 0.03859744 0.05552086 0.00424065 0.96078431 0.29019608 0.23921569
v 0.03859744 0.05552086 0.01218731 0.96078431 0.29019608 0.23921569
v 0.03872705 0.05645976 0.01312614 0.96078431 0.29019608 0.23921569
v 0.03892092 0.05645976 0.01489543 0.96078431 0.29019608 0.23921569
v 0.03915273 0.05281311 0.01489543 0.96078431 0.29019608 0.23921569
v 0.03889669 0.05299055 0.00424065 0.96078431 0.29019608 0.23921569
f 1 2 3
f 1 3 4
f 1 4 5
f 1 5 6
f 1 6 7
f 1 7 12
f 1 12 18
f 1 18 27
f 1 27 38
f 1 38 30
f 1 30 20
f 1 20 13
f 1 13 9
f 1 9 2
f 2 8 3
f 2 9 10
f 2 10 8
f 3 8 10
f 3 10 14
f 3 14 21
f 3 21 32
f 3 32 44
f 3 44 45
f 3 45 34
f 3 34 33
f 3 33 23
f 3 23 17
f 3 17 16
f 3 16 15
f 3 15 11
f 3 11 6
f 3 6 5
f 3 5 4
f 6 11 12
f 6 12 7
f 9 13 19
f 9 19 28
f 9 28 39
f 9 39 47
f 9 47 42
f 9 42 31
f 9 31 21
f 9 21 14
f 9 14 10
f 11 15 12
f 12 15 16
f 12 16 17
f 12 17 18
f 13 20 29
f 13 29 19
f 17 22 18
f 17 23 24
f 17 24 22
f 18 22 25
f 18 25 26
f 18 26 27
f 19 29 28
f 20 30 29
f 21 31 32
f 22 24 25
f 23 33 24
f 24 33 34
f 24 34 35
f 24 35 36
f 24 36 25
f 25 36 26
f 26 36 37
f 26 37 27
f 27 37 38
f 28 29 40
f 28 40 39
f 29 30 41
f 29 41 40
f 30 38 41
f 31 42 43
f 31 43 32
f 32 43 44
f 34 45 35
f 35 45 44
f 35 44 43
f 35 43 46
f 35 46 36
f 36 46 37
f 37 46 38
f 38 46 41
f 39 40 47
f 40 41 46
f 40 46 43
f 40 43 47
f 42 47 43