# https://github.com/mikedh/trimesh
v -0.01489807 0.08273875 -0.00567681 0.61176471 0.61568627 0.94117647
v -0.00001958 0.08148936 -0.00567681 0.61176471 0.61568627 0.94117647
v -0.00001958 0.08152954 -0.00786035 0.61176471 0.61568627 0.94117647
v -0.01489807 0.08273875 -0.00786035 0.61176471 0.61568627 0.94117647
v -0.06691384 0.08273875 -0.00567681 0.61176471 0.61568627 0.94117647
v -0.00001958 0.07318016 -0.00567681 0.61176471 0.61568627 0.94117647
v -0.00001958 0.06908515 -0.00786035 0.61176471 0.61568627 0.94117647
v -0.06691384 0.08273875 -0.00786035 0.61176471 0.61568627 0.94117647
v -0.06691384 0.06905971 -0.00567681 0.61176471 0.61568627 0.94117647
v -0.04287382 0.06905971 -0.00567681 0.61176471 0.61568627 0.94117647
v -0.03668536 0.06905971 -0.00786035 0.61176471 0.61568627 0.94117647
v -0.06691384 0.06905971 -0.00786035 0.61176471 0.61568627 0.94117647
f 1 2 3
f 1 3 4
f 1 4 8
f 1 8 5
f 1 5 9
f 1 9 10
f 1 10 6
f 1 6 2
f 2 6 7
f 2 7 3
f 3 7 11
f 3 11 12
f 3 12 8
f 3 8 4
f 5 8 12
f 5 12 9
f 6 10 7
f 7 10 11
f 9 12 11
f 9 11 10