# https://github.com/mikedh/trimesh
v -0.00001304 -0.08148824 -0.00404457 0.77647059 0.86666667 0.97647059
v -0.00001304 -0.08253780 0.01489407 0.77647059 0.86666667 0.97647059
v -0.00001304 -0.07347274 -0.00404457 0.77647059 0.86666667 0.97647059
v 0.01489861 -0.08273919 -0.00404457 0.77647059 0.86666667 0.97647059
v -0.00001304 -0.08216950 0.01577855 0.77647059 0.86666667 0.97647059
v 0.01489861 -0.08273919 0.01218678 0.77647059 0.86666667 0.97647059
v 0.03925931 -0.08253871 0.01488372 0.77647059 0.86666667 0.97647059
v 0.03925931 -0.08253780 0.01489407 0.77647059 0.86666667 0.97647059
v -0.00001304 -0.07351175 0.01218678 0.77647059 0.86666667 0.97647059
v 0.03925931 -0.07347274 -0.00404457 0.77647059 0.86666667 0.97647059
v 0.03925931 -0.08273919 -0.00404457 0.77647059 0.86666667 0.97647059
v -0.00001304 -0.08179304 0.01668167 0.77647059 0.86666667 0.97647059
v 0.03925931 -0.08179666 0.01667339 0.77647059 0.86666667 0.97647059
v 0.03925931 -0.08273919 0.01218678 0.77647059 0.86666667 0.97647059
v -0.00001304 -0.07366052 0.01355389 0.77647059 0.86666667 0.97647059
v 0.03925931 -0.07351265 0.01219921 0.77647059 0.86666667 0.97647059
v 0.03925931 -0.07351175 0.01218678 0.77647059 0.86666667 0.97647059
v -0.00001304 -0.07989621 0.01711459 0.77647059 0.86666667 0.97647059
v 0.03656068 -0.08179304 0.01668167 0.77647059 0.86666667 0.97647059
v 0.03925931 -0.07989621 0.01711459 0.77647059 0.86666667 0.97647059
v -0.00001304 -0.07380657 0.01489407 0.77647059 0.86666667 0.97647059
v 0.03925931 -0.07380657 0.01489407 0.77647059 0.86666667 0.97647059
v -0.00001304 -0.07718839 0.01711459 0.77647059 0.86666667 0.97647059
v 0.03925931 -0.07718839 0.01711459 0.77647059 0.86666667 0.97647059
v -0.00001304 -0.07439258 0.01579720 0.77647059 0.86666667 0.97647059
v 0.03925931 -0.07496771 0.01668167 0.77647059 0.86666667 0.97647059
v -0.00001304 -0.07496771 0.01668167 0.77647059 0.86666667 0.97647059
v 0.03925931 -0.07497769 0.01668375 0.77647059 0.86666667 0.97647059
f 1 2 5
f 1 5 12
f 1 12 18
f 1 18 23
f 1 23 27
f 1 27 25
f 1 25 21
f 1 21 15
f 1 15 9
f 1 9 3
f 1 3 10
f 1 10 11
f 1 11 4
f 1 4 2
f 2 4 6
f 2 6 7
f 2 7 8
f 2 8 5
f 3 9 17
f 3 17 10
f 4 11 14
f 4 14 6
f 5 8 13
f 5 13 12
f 6 14 7
f 7 14 11
f 7 11 10
f 7 10 17
f 7 17 16
f 7 16 22
f 7 22 26
f 7 26 28
f 7 28 24
f 7 24 20
f 7 20 13
f 7 13 8
f 9 15 16
f 9 16 17
f 12 13 19
f 12 19 20
f 12 20 18
f 13 20 19
f 15 21 16
f 16 21 22
f 18 20 24
f 18 24 23
f 21 25 22
f 22 25 26
f 23 24 28
f 23 28 27
f 25 27 26
f 26 27 28