# https://github.com/mikedh/trimesh
v -0.04703088 -0.05677440 -0.00567660 0.23529412 0.93333333 0.61176471
v -0.04825057 -0.05186153 -0.00567660 0.23529412 0.93333333 0.61176471
v -0.03830649 -0.05677440 -0.00567660 0.23529412 0.93333333 0.61176471
v -0.04662659 -0.05677440 0.00263139 0.23529412 0.93333333 0.61176471
v -0.04825057 -0.05080469 0.00406365 0.23529412 0.93333333 0.61176471
v -0.04825057 -0.03961128 -0.00567660 0.23529412 0.93333333 0.61176471
v -0.03827524 -0.05552098 -0.00567660 0.23529412 0.93333333 0.61176471
v -0.03859066 -0.05552098 0.01218647 0.23529412 0.93333333 0.61176471
v -0.03863656 -0.05677440 0.01218647 0.23529412 0.93333333 0.61176471
v -0.04651331 -0.05677440 0.00370670 0.23529412 0.93333333 0.61176471
v -0.04825057 -0.04859020 0.01489482 0.23529412 0.93333333 0.61176471
v -0.04781503 -0.03979106 -0.00567660 0.23529412 0.93333333 0.61176471
v -0.04825057 -0.04056899 0.01489482 0.23529412 0.93333333 0.61176471
v -0.03844223 -0.05329809 -0.00567660 0.23529412 0.93333333 0.61176471
v -0.03892268 -0.05281251 0.01218647 0.23529412 0.93333333 0.61176471
v -0.03915705 -0.05281251 0.01489482 0.23529412 0.93333333 0.61176471
v -0.03888558 -0.05552098 0.01489482 0.23529412 0.93333333 0.61176471
v -0.03892366 -0.05677440 0.01489482 0.23529412 0.93333333 0.61176471
v -0.03876546 -0.05677440 0.01344025 0.23529412 0.93333333 0.61176471
v -0.03850082 -0.05281251 -0.00567660 0.23529412 0.93333333 0.61176471
v -0.04514714 -0.05677440 0.01489482 0.23529412 0.93333333 0.61176471
v -0.04825057 -0.04719060 0.01669072 0.23529412 0.93333333 0.61176471
v -0.04732481 -0.04008341 -0.00567660 0.23529412 0.93333333 0.61176471
v -0.04825057 -0.04102936 0.01643862 0.23529412 0.93333333 0.61176471
v -0.04707970 -0.04129146 0.01489482 0.23529412 0.93333333 0.61176471
v -0.03969610 -0.05010405 0.01218647 0.23529412 0.93333333 0.61176471
v -0.03982891 -0.05010405 0.01489482 0.23529412 0.93333333 0.61176471
v -0.03882210 -0.05090886 -0.00567660 0.23529412 0.93333333 0.61176471
v -0.03904768 -0.05010405 -0.00567660 0.23529412 0.93333333 0.61176471
v -0.04054081 -0.04858852 0.01633823 0.23529412 0.93333333 0.61176471
v -0.04029374 -0.05010405 0.01653009 0.23529412 0.93333333 0.61176471
v -0.04000957 -0.05281251 0.01667956 0.23529412 0.93333333 0.61176471
v -0.03990313 -0.05552098 0.01668179 0.23529412 0.93333333 0.61176471
v -0.03937189 -0.05677440 0.01572249 0.23529412 0.93333333 0.61176471
v -0.04460223 -0.05677440 0.01585412 0.23529412 0.93333333 0.61176471
v -0.04409541 -0.05677440 0.01668179 0.23529412 0.93333333 0.61176471
v -0.04825057 -0.04468881 0.01705213 0.23529412 0.93333333 0.61176471
v -0.04472234 -0.04210804 -0.00567660 0.23529412 0.93333333 0.61176471
v -0.04700353 -0.04120745 0.01218647 0.23529412 0.93333333 0.61176471
v -0.04510026 -0.04256169 0.01218647 0.23529412 0.93333333 0.61176471
v -0.04825057 -0.04200219 0.01672641 0.23529412 0.93333333 0.61176471
v -0.04757090 -0.04200891 0.01664164 0.23529412 0.93333333 0.61176471
v -0.04553580 -0.04293133 0.01652563 0.23529412 0.93333333 0.61176471
v -0.04519108 -0.04264570 0.01489482 0.23529412 0.93333333 0.61176471
v -0.04045585 -0.04843226 0.01489482 0.23529412 0.93333333 0.61176471
v -0.03952814 -0.04844906 -0.00567660 0.23529412 0.93333333 0.61176471
v -0.04293333 -0.04553562 0.01652563 0.23529412 0.93333333 0.61176471
v -0.04201050 -0.04757201 0.01664164 0.23529412 0.93333333 0.61176471
v -0.04129372 -0.04707971 0.01489482 0.23529412 0.93333333 0.61176471
v -0.04264720 -0.04519286 0.01489482 0.23529412 0.93333333 0.61176471
v -0.04198022 -0.05010405 0.01696289 0.23529412 0.93333333 0.61176471
v -0.04198022 -0.05281251 0.01711236 0.23529412 0.93333333 0.61176471
v -0.04198022 -0.05552098 0.01711459 0.23529412 0.93333333 0.61176471
v -0.04198022 -0.05677440 0.01711459 0.23529412 0.93333333 0.61176471
v -0.04086404 -0.05677440 0.01688035 0.23529412 0.93333333 0.61176471
v -0.03991875 -0.05677440 0.01668179 0.23529412 0.93333333 0.61176471
v -0.04298215 -0.05677440 0.01691381 0.23529412 0.93333333 0.61176471
v -0.04739610 -0.04468881 0.01710567 0.23529412 0.93333333 0.61176471
v -0.04435614 -0.04242895 -0.00567660 0.23529412 0.93333333 0.61176471
v -0.04374678 -0.04374622 0.01218647 0.23529412 0.93333333 0.61176471
v -0.04465496 -0.04465520 0.01675541 0.23529412 0.93333333 0.61176471
v -0.04383760 -0.04383863 0.01489482 0.23529412 0.93333333 0.61176471
v -0.03979181 -0.04781732 -0.00567660 0.23529412 0.93333333 0.61176471
v -0.04008379 -0.04732502 -0.00567660 0.23529412 0.93333333 0.61176471
v -0.04120876 -0.04700410 0.01218647 0.23529412 0.93333333 0.61176471
v -0.04256322 -0.04510045 0.01218647 0.23529412 0.93333333 0.61176471
v -0.04468719 -0.04739727 0.01710567 0.23529412 0.93333333 0.61176471
v -0.04242943 -0.04435613 -0.00567660 0.23529412 0.93333333 0.61176471
v -0.04210815 -0.04472241 -0.00567660 0.23529412 0.93333333 0.61176471
f 1 2 6
f 1 6 12
f 1 12 23
f 1 23 38
f 1 38 59
f 1 59 68
f 1 68 69
f 1 69 64
f 1 64 63
f 1 63 46
f 1 46 29
f 1 29 28
f 1 28 20
f 1 20 14
f 1 14 7
f 1 7 3
f 1 3 9
f 1 9 19
f 1 19 18
f 1 18 34
f 1 34 56
f 1 56 55
f 1 55 54
f 1 54 57
f 1 57 36
f 1 36 35
f 1 35 21
f 1 21 10
f 1 10 4
f 1 4 5
f 1 5 2
f 2 5 11
f 2 11 22
f 2 22 37
f 2 37 41
f 2 41 24
f 2 24 13
f 2 13 6
f 3 7 8
f 3 8 9
f 4 10 11
f 4 11 5
f 6 13 12
f 7 14 8
f 8 15 16
f 8 16 17
f 8 17 18
f 8 18 19
f 8 19 9
f 8 14 20
f 8 20 15
f 10 21 11
f 11 21 22
f 12 13 23
f 13 24 25
f 13 25 23
f 15 26 27
f 15 27 16
f 15 20 28
f 15 28 29
f 15 29 26
f 16 27 30
f 16 30 31
f 16 31 32
f 16 32 17
f 17 32 33
f 17 33 34
f 17 34 18
f 21 35 22
f 22 35 36
f 22 36 37
f 23 25 39
f 23 39 40
f 23 40 38
f 24 41 42
f 24 42 43
f 24 43 25
f 25 44 40
f 25 40 39
f 25 43 44
f 26 45 27
f 26 29 46
f 26 46 45
f 27 45 30
f 30 47 48
f 30 48 31
f 30 45 49
f 30 49 50
f 30 50 47
f 31 48 51
f 31 51 32
f 32 51 52
f 32 52 33
f 33 52 53
f 33 53 54
f 33 54 55
f 33 55 56
f 33 56 34
f 36 57 37
f 37 54 58
f 37 58 41
f 37 57 54
f 38 40 60
f 38 60 59
f 40 44 60
f 41 58 61
f 41 61 42
f 42 61 43
f 43 61 47
f 43 47 62
f 43 62 44
f 44 62 60
f 45 46 63
f 45 63 64
f 45 64 49
f 47 50 62
f 47 61 48
f 48 61 51
f 49 64 65
f 49 65 66
f 49 66 50
f 50 66 60
f 50 60 62
f 51 61 67
f 51 67 52
f 52 67 58
f 52 58 53
f 53 58 54
f 58 67 61
f 59 60 68
f 60 66 69
f 60 69 68
f 64 69 66
f 64 66 65