# https://github.com/mikedh/trimesh
v 0.07989574 0.00001328 0.01711459 0.20784314 0.16078431 0.65098039
v 0.08179323 0.00001328 0.01668167 0.20784314 0.16078431 0.65098039
v 0.07718871 0.00001328 0.01711459 0.20784314 0.16078431 0.65098039
v 0.07989574 -0.07084984 0.01711459 0.20784314 0.16078431 0.65098039
v 0.08054163 -0.07084984 0.01696752 0.20784314 0.16078431 0.65098039
v 0.08253769 0.00001328 0.01489407 0.20784314 0.16078431 0.65098039
v 0.08179323 -0.07084984 0.01668167 0.20784314 0.16078431 0.65098039
v 0.07496780 0.00001328 0.01668167 0.20784314 0.16078431 0.65098039
v 0.07296504 -0.05552021 0.01701931 0.20784314 0.16078431 0.65098039
v 0.07718871 -0.07084984 0.01711459 0.20784314 0.16078431 0.65098039
v 0.08273959 -0.01490016 0.01218678 0.20784314 0.16078431 0.65098039
v 0.08273959 -0.01490016 -0.00404457 0.20784314 0.16078431 0.65098039
v 0.08148895 -0.00000059 -0.00404457 0.20784314 0.16078431 0.65098039
v 0.08148895 0.00001328 -0.00272095 0.20784314 0.16078431 0.65098039
v 0.08253769 -0.07084984 0.01489407 0.20784314 0.16078431 0.65098039
v 0.08260658 -0.07084984 0.01397438 0.20784314 0.16078431 0.65098039
v 0.07439271 0.00001328 0.01579720 0.20784314 0.16078431 0.65098039
v 0.07296504 -0.05280805 0.01689917 0.20784314 0.16078431 0.65098039
v 0.07296504 -0.05703237 0.01700067 0.20784314 0.16078431 0.65098039
v 0.07296504 -0.05822544 0.01698410 0.20784314 0.16078431 0.65098039
v 0.07493526 -0.07084984 0.01668167 0.20784314 0.16078431 0.65098039
v 0.08273959 -0.07084984 0.01218678 0.20784314 0.16078431 0.65098039
v 0.08273959 -0.07084984 -0.00404457 0.20784314 0.16078431 0.65098039
v 0.08139613 0.00001328 -0.00404457 0.20784314 0.16078431 0.65098039
v 0.07380614 0.00001328 0.01489407 0.20784314 0.16078431 0.65098039
v 0.07296504 -0.05019299 0.01664232 0.20784314 0.16078431 0.65098039
v 0.07296504 -0.06106246 0.01669410 0.20784314 0.16078431 0.65098039
v 0.07394202 -0.07084984 0.01553620 0.20784314 0.16078431 0.65098039
v 0.07296504 -0.06641050 0.01579512 0.20784314 0.16078431 0.65098039
v 0.07297174 -0.07084984 -0.00404457 0.20784314 0.16078431 0.65098039
v 0.07347314 0.00001328 -0.00404457 0.20784314 0.16078431 0.65098039
v 0.07365974 0.00001328 0.01355389 0.20784314 0.16078431 0.65098039
v 0.07296504 -0.04607272 0.01581169 0.20784314 0.16078431 0.65098039
v 0.07351046 0.00001328 0.01218678 0.20784314 0.16078431 0.65098039
v 0.07354587 -0.07084984 0.01507635 0.20784314 0.16078431 0.65098039
v 0.07296504 -0.06887988 0.01468279 0.20784314 0.16078431 0.65098039
v 0.07297174 -0.07084984 0.00947741 0.20784314 0.16078431 0.65098039
v 0.07296504 -0.06994116 -0.00404457 0.20784314 0.16078431 0.65098039
v 0.07296504 -0.04320795 -0.00404457 0.20784314 0.16078431 0.65098039
v 0.07296504 -0.04316633 0.01475529 0.20784314 0.16078431 0.65098039
v 0.07298035 -0.07084984 0.01218678 0.20784314 0.16078431 0.65098039
v 0.07296504 -0.06993423 0.01218678 0.20784314 0.16078431 0.65098039
v 0.07296504 -0.06994116 0.00947741 0.20784314 0.16078431 0.65098039
f 1 2 6
f 1 6 14
f 1 14 24
f 1 24 31
f 1 31 34
f 1 34 32
f 1 32 25
f 1 25 17
f 1 17 8
f 1 8 3
f 1 3 10
f 1 10 4
f 1 4 5
f 1 5 2
f 2 5 7
f 2 7 15
f 2 15 6
f 3 8 9
f 3 9 10
f 4 10 21
f 4 21 28
f 4 28 35
f 4 35 41
f 4 41 37
f 4 37 30
f 4 30 23
f 4 23 22
f 4 22 16
f 4 16 15
f 4 15 7
f 4 7 5
f 6 11 12
f 6 12 13
f 6 13 14
f 6 15 16
f 6 16 11
f 8 17 18
f 8 18 9
f 9 18 26
f 9 26 33
f 9 33 40
f 9 40 39
f 9 39 38
f 9 38 43
f 9 43 42
f 9 42 36
f 9 36 29
f 9 29 27
f 9 27 20
f 9 20 19
f 9 19 10
f 10 19 20
f 10 20 21
f 11 16 22
f 11 22 23
f 11 23 12
f 12 23 30
f 12 30 38
f 12 38 39
f 12 39 31
f 12 31 24
f 12 24 13
f 13 24 14
f 17 25 18
f 18 25 26
f 20 27 21
f 21 27 29
f 21 29 28
f 25 32 26
f 26 32 34
f 26 34 33
f 28 29 35
f 29 36 35
f 30 37 43
f 30 43 38
f 31 39 40
f 31 40 34
f 33 34 40
f 35 36 41
f 36 42 41
f 37 41 42
f 37 42 43