# https://github.com/mikedh/trimesh
v -0.03391639 0.05425383 -0.00786035 0.80392157 0.70196078 0.09803922
v -0.03838909 0.05425383 -0.00567681 0.80392157 0.70196078 0.09803922
v -0.03392275 0.05281096 -0.00786035 0.80392157 0.70196078 0.09803922
v -0.05232863 0.05425383 -0.00786035 0.80392157 0.70196078 0.09803922
v -0.03849932 0.05281096 -0.00567681 0.80392157 0.70196078 0.09803922
v -0.03404994 0.05010262 -0.00786035 0.80392157 0.70196078 0.09803922
v -0.04710767 0.05425383 -0.00567681 0.80392157 0.70196078 0.09803922
v -0.05556974 0.05007272 -0.00786035 0.80392157 0.70196078 0.09803922
v -0.05556974 0.04571425 -0.00567681 0.80392157 0.70196078 0.09803922
v -0.03904622 0.05010262 -0.00567681 0.80392157 0.70196078 0.09803922
v -0.03490420 0.04739426 -0.00786035 0.80392157 0.70196078 0.09803922
v -0.05556974 0.03389635 -0.00786035 0.80392157 0.70196078 0.09803922
v -0.05556974 0.03988103 -0.00567681 0.80392157 0.70196078 0.09803922
v -0.03978813 0.04780679 -0.00567681 0.80392157 0.70196078 0.09803922
v -0.03672508 0.04468591 -0.00786035 0.80392157 0.70196078 0.09803922
v -0.05552099 0.03389436 -0.00786035 0.80392157 0.70196078 0.09803922
v -0.05552099 0.03827874 -0.00567681 0.80392157 0.70196078 0.09803922
v -0.05556974 0.03827874 -0.00568066 0.80392157 0.70196078 0.09803922
v -0.04210079 0.04471381 -0.00567681 0.80392157 0.70196078 0.09803922
v -0.03935358 0.04197955 -0.00786035 0.80392157 0.70196078 0.09803922
v -0.05281194 0.03392226 -0.00786035 0.80392157 0.70196078 0.09803922
v -0.05010289 0.03405578 -0.00786035 0.80392157 0.70196078 0.09803922
v -0.05281194 0.03849796 -0.00567681 0.80392157 0.70196078 0.09803922
v -0.04471658 0.04210312 -0.00567681 0.80392157 0.70196078 0.09803922
v -0.04197997 0.03935291 -0.00786035 0.80392157 0.70196078 0.09803922
v -0.04739595 0.03491871 -0.00786035 0.80392157 0.70196078 0.09803922
v -0.05010289 0.03904601 -0.00567681 0.80392157 0.70196078 0.09803922
v -0.04468902 0.03672826 -0.00786035 0.80392157 0.70196078 0.09803922
v -0.04780506 0.03978736 -0.00567681 0.80392157 0.70196078 0.09803922
f 1 2 3
f 1 3 6
f 1 6 11
f 1 11 15
f 1 15 20
f 1 20 25
f 1 25 28
f 1 28 26
f 1 26 22
f 1 22 21
f 1 21 16
f 1 16 12
f 1 12 8
f 1 8 4
f 1 4 7
f 1 7 2
f 2 5 6
f 2 6 3
f 2 7 9
f 2 9 13
f 2 13 17
f 2 17 23
f 2 23 27
f 2 27 29
f 2 29 24
f 2 24 19
f 2 19 14
f 2 14 10
f 2 10 5
f 4 8 9
f 4 9 7
f 5 10 6
f 6 10 11
f 8 12 18
f 8 18 13
f 8 13 9
f 10 14 11
f 11 14 15
f 12 16 17
f 12 17 18
f 13 18 17
f 14 19 15
f 15 19 20
f 16 21 17
f 17 21 22
f 17 22 23
f 19 24 25
f 19 25 20
f 22 26 27
f 22 27 23
f 24 28 25
f 24 29 28
f 26 28 29
f 26 29 27