# https://github.com/mikedh/trimesh
v -0.03830344 0.05650808 -0.00567660 0.86274510 0.11372549 0.51372549
v -0.04709920 0.05650808 -0.00567660 0.86274510 0.11372549 0.51372549
v -0.03833270 0.05791348 -0.00567660 0.86274510 0.11372549 0.51372549
v -0.03863158 0.05650808 0.01218647 0.86274510 0.11372549 0.51372549
v -0.04894572 0.06107900 -0.00567660 0.86274510 0.11372549 0.51372549
v -0.04650878 0.05650808 0.00378032 0.86274510 0.11372549 0.51372549
v -0.03834315 0.05822980 -0.00567660 0.86274510 0.11372549 0.51372549
v -0.03869218 0.05822980 0.01218647 0.86274510 0.11372549 0.51372549
v -0.03897224 0.05822980 0.01489482 0.86274510 0.11372549 0.51372549
v -0.03892208 0.05650808 0.01489482 0.86274510 0.11372549 0.51372549
v -0.04897811 0.06123253 -0.00567660 0.86274510 0.11372549 0.51372549
v -0.04802403 0.06123253 0.00388071 0.86274510 0.11372549 0.51372549
v -0.04512938 0.05650808 0.01489482 0.86274510 0.11372549 0.51372549
v -0.03858246 0.06030392 -0.00567660 0.86274510 0.11372549 0.51372549
v -0.03921782 0.06093749 0.01218647 0.86274510 0.11372549 0.51372549
v -0.03940801 0.06093749 0.01489482 0.86274510 0.11372549 0.51372549
v -0.03870368 0.06093749 -0.00567660 0.86274510 0.11372549 0.51372549
v -0.04011129 0.06093749 0.01664387 0.86274510 0.11372549 0.51372549
v -0.03993887 0.05822980 0.01668179 0.86274510 0.11372549 0.51372549
v -0.03991901 0.05650808 0.01668179 0.86274510 0.11372549 0.51372549
v -0.03878623 0.06123253 -0.00567660 0.86274510 0.11372549 0.51372549
v -0.04647429 0.06123253 0.01489482 0.86274510 0.11372549 0.51372549
v -0.04408647 0.05650808 0.01668179 0.86274510 0.11372549 0.51372549
v -0.03932336 0.06123253 0.01218647 0.86274510 0.11372549 0.51372549
v -0.03950101 0.06123253 0.01489482 0.86274510 0.11372549 0.51372549
v -0.04014891 0.06123253 0.01661933 0.86274510 0.11372549 0.51372549
v -0.04196617 0.06123253 0.01704097 0.86274510 0.11372549 0.51372549
v -0.04197975 0.06093749 0.01707444 0.86274510 0.11372549 0.51372549
v -0.04197975 0.05822980 0.01711459 0.86274510 0.11372549 0.51372549
v -0.04197975 0.05650808 0.01711459 0.86274510 0.11372549 0.51372549
v -0.04542825 0.06123253 0.01661933 0.86274510 0.11372549 0.51372549
v -0.04478035 0.06123253 0.01676880 0.86274510 0.11372549 0.51372549
f 1 2 5
f 1 5 11
f 1 11 21
f 1 21 17
f 1 17 14
f 1 14 7
f 1 7 3
f 1 3 4
f 1 4 10
f 1 10 20
f 1 20 30
f 1 30 23
f 1 23 13
f 1 13 6
f 1 6 2
f 2 6 5
f 3 7 4
f 4 8 9
f 4 9 10
f 4 7 8
f 5 6 12
f 5 12 11
f 6 13 12
f 7 14 8
f 8 15 16
f 8 16 9
f 8 14 17
f 8 17 15
f 9 16 18
f 9 18 19
f 9 19 10
f 10 19 20
f 11 12 22
f 11 22 31
f 11 31 32
f 11 32 27
f 11 27 26
f 11 26 25
f 11 25 24
f 11 24 21
f 12 13 22
f 13 23 22
f 15 24 25
f 15 25 16
f 15 17 21
f 15 21 24
f 16 25 26
f 16 26 18
f 18 26 27
f 18 27 28
f 18 28 19
f 19 28 29
f 19 29 20
f 20 29 30
f 22 23 31
f 23 30 32
f 23 32 31
f 27 32 28
f 28 32 29
f 29 32 30