# https://github.com/mikedh/trimesh
v -0.06098141 -0.06284719 -0.00737812 0.97647059 0.87450980 0.33725490
v -0.06024332 -0.06295096 -0.00737812 0.97647059 0.87450980 0.33725490
v -0.07031444 -0.06284719 -0.00737812 0.97647059 0.87450980 0.33725490
v -0.06446830 -0.06284719 -0.00567676 0.97647059 0.87450980 0.33725490
v -0.05535495 -0.06428218 -0.00737812 0.97647059 0.87450980 0.33725490
v -0.07031444 -0.06690881 -0.00737812 0.97647059 0.87450980 0.33725490
v -0.07031444 -0.06284719 -0.00567676 0.97647059 0.87450980 0.33725490
v -0.05535495 -0.06623168 -0.00567676 0.97647059 0.87450980 0.33725490
v -0.05535495 -0.06690881 -0.00737812 0.97647059 0.87450980 0.33725490
v -0.07031444 -0.06690881 -0.00567676 0.97647059 0.87450980 0.33725490
v -0.05535495 -0.06690881 -0.00567676 0.97647059 0.87450980 0.33725490
f 1 2 5
f 1 5 9
f 1 9 6
f 1 6 3
f 1 3 7
f 1 7 4
f 1 4 2
f 2 4 5
f 3 6 10
f 3 10 7
f 4 7 10
f 4 10 11
f 4 11 8
f 4 8 5
f 5 8 11
f 5 11 9
f 6 9 11
f 6 11 10