# https://github.com/mikedh/trimesh
v 0.04987843 0.06315305 -0.00462741 0.69411765 0.77647059 0.77647059
v 0.05011003 0.06035114 -0.00730630 0.69411765 0.77647059 0.77647059
v 0.04987843 0.06327982 -0.00401831 0.69411765 0.77647059 0.77647059
v 0.04987843 0.07046932 -0.00462741 0.69411765 0.77647059 0.77647059
v 0.05569916 0.06271627 -0.00730630 0.69411765 0.77647059 0.77647059
v 0.05656144 0.06638778 -0.00195638 0.69411765 0.77647059 0.77647059
v 0.04987843 0.06378098 -0.00195638 0.69411765 0.77647059 0.77647059
v 0.04987843 0.06329270 -0.00396489 0.69411765 0.77647059 0.77647059
v 0.05011003 0.07046833 -0.00730630 0.69411765 0.77647059 0.77647059
v 0.04987843 0.07046932 -0.00195638 0.69411765 0.77647059 0.77647059
v 0.05656144 0.07046932 -0.00462741 0.69411765 0.77647059 0.77647059
v 0.05569916 0.07046833 -0.00730630 0.69411765 0.77647059 0.77647059
v 0.05656144 0.06564496 -0.00462741 0.69411765 0.77647059 0.77647059
v 0.05656144 0.07046932 -0.00195638 0.69411765 0.77647059 0.77647059
f 1 2 3
f 1 3 8
f 1 8 7
f 1 7 10
f 1 10 4
f 1 4 9
f 1 9 2
f 2 5 6
f 2 6 7
f 2 7 8
f 2 8 3
f 2 9 12
f 2 12 5
f 4 10 14
f 4 14 11
f 4 11 12
f 4 12 9
f 5 12 11
f 5 11 13
f 5 13 6
f 6 14 10
f 6 10 7
f 6 13 11
f 6 11 14