# https://github.com/mikedh/trimesh
v -0.07718733 0.07031740 0.01711459 0.94117647 0.52156863 0.41176471
v -0.07085319 0.05914692 0.01701643 0.94117647 0.52156863 0.41176471
v -0.07085319 0.06364454 0.01675988 0.94117647 0.52156863 0.41176471
v -0.07085319 0.06431385 0.01667956 0.94117647 0.52156863 0.41176471
v -0.07085319 0.06556880 0.01652340 0.94117647 0.52156863 0.41176471
v -0.07493594 0.07031740 0.01668179 0.94117647 0.52156863 0.41176471
v -0.07989598 0.07031740 0.01711459 0.94117647 0.52156863 0.41176471
v -0.07718733 0.04084488 0.01711459 0.94117647 0.52156863 0.41176471
v -0.07085319 0.05643797 0.01699412 0.94117647 0.52156863 0.41176471
v -0.07085319 0.06689875 0.01505767 0.94117647 0.52156863 0.41176471
v -0.07354671 0.07031740 0.01507329 0.94117647 0.52156863 0.41176471
v -0.07423900 0.07031740 0.01587643 0.94117647 0.52156863 0.41176471
v -0.08179365 0.07031740 0.01668179 0.94117647 0.52156863 0.41176471
v -0.07989598 0.04084488 0.01711459 0.94117647 0.52156863 0.41176471
v -0.07588769 0.04084488 0.01686250 0.94117647 0.52156863 0.41176471
v -0.07085319 0.05016322 0.01681342 0.94117647 0.52156863 0.41176471
v -0.07085319 0.05281448 0.01694058 0.94117647 0.52156863 0.41176471
v -0.07085319 0.06767769 0.01218647 0.94117647 0.52156863 0.41176471
v -0.07326631 0.07031740 0.01218647 0.94117647 0.52156863 0.41176471
v -0.08253713 0.07031740 0.01489482 0.94117647 0.52156863 0.41176471
v -0.08179365 0.04084488 0.01668179 0.94117647 0.52156863 0.41176471
v -0.07495805 0.04084488 0.01668179 0.94117647 0.52156863 0.41176471
v -0.07085319 0.04739657 0.01653455 0.94117647 0.52156863 0.41176471
v -0.07085319 0.06802099 -0.00567660 0.94117647 0.52156863 0.41176471
v -0.07141517 0.06892687 -0.00567660 0.94117647 0.52156863 0.41176471
v -0.07191315 0.06945769 -0.00567660 0.94117647 0.52156863 0.41176471
v -0.07273575 0.07031740 -0.00567660 0.94117647 0.52156863 0.41176471
v -0.08273959 0.07031740 0.01218647 0.94117647 0.52156863 0.41176471
v -0.08262207 0.04084488 0.01375927 0.94117647 0.52156863 0.41176471
v -0.08253713 0.04084488 0.01489482 0.94117647 0.52156863 0.41176471
v -0.07422039 0.04084488 0.01559979 0.94117647 0.52156863 0.41176471
v -0.07085319 0.04495591 0.01541686 0.94117647 0.52156863 0.41176471
v -0.07085319 0.04578389 0.01600805 0.94117647 0.52156863 0.41176471
v -0.07085319 0.04682535 0.01641408 0.94117647 0.52156863 0.41176471
v -0.07085319 0.04399811 -0.00567660 0.94117647 0.52156863 0.41176471
v -0.08273959 0.07031740 -0.00567660 0.94117647 0.52156863 0.41176471
v -0.08273959 0.04084488 0.01218647 0.94117647 0.52156863 0.41176471
v -0.07368401 0.04084488 0.01477435 0.94117647 0.52156863 0.41176471
v -0.07085319 0.04475974 0.01487474 0.94117647 0.52156863 0.41176471
v -0.07085319 0.04426930 0.01218647 0.94117647 0.52156863 0.41176471
v -0.07306037 0.04084488 -0.00567660 0.94117647 0.52156863 0.41176471
v -0.08273959 0.04084488 -0.00567660 0.94117647 0.52156863 0.41176471
v -0.07350716 0.04084488 0.01323500 0.94117647 0.52156863 0.41176471
v -0.07085319 0.04432988 0.01317477 0.94117647 0.52156863 0.41176471
v -0.07339313 0.04084488 0.01218647 0.94117647 0.52156863 0.41176471
f 1 2 3
f 1 3 4
f 1 4 5
f 1 5 6
f 1 6 12
f 1 12 11
f 1 11 19
f 1 19 27
f 1 27 36
f 1 36 28
f 1 28 20
f 1 20 13
f 1 13 7
f 1 7 14
f 1 14 8
f 1 8 2
f 2 9 17
f 2 17 16
f 2 16 23
f 2 23 34
f 2 34 33
f 2 33 32
f 2 32 39
f 2 39 44
f 2 44 40
f 2 40 35
f 2 35 24
f 2 24 18
f 2 18 10
f 2 10 5
f 2 5 4
f 2 4 3
f 2 8 9
f 5 10 11
f 5 11 12
f 5 12 6
f 7 13 21
f 7 21 14
f 8 14 21
f 8 21 30
f 8 30 29
f 8 29 37
f 8 37 42
f 8 42 41
f 8 41 45
f 8 45 43
f 8 43 38
f 8 38 31
f 8 31 22
f 8 22 15
f 8 15 16
f 8 16 17
f 8 17 9
f 10 18 11
f 11 18 19
f 13 20 30
f 13 30 21
f 15 22 16
f 16 22 23
f 18 24 25
f 18 25 19
f 19 25 26
f 19 26 27
f 20 28 29
f 20 29 30
f 22 31 32
f 22 32 33
f 22 33 34
f 22 34 23
f 24 35 41
f 24 41 42
f 24 42 36
f 24 36 27
f 24 27 26
f 24 26 25
f 28 36 42
f 28 42 37
f 28 37 29
f 31 38 32
f 32 38 39
f 35 40 41
f 38 43 44
f 38 44 39
f 40 44 45
f 40 45 41
f 43 45 44