# https://github.com/mikedh/trimesh
v 0.05569939 0.03572447 -0.00730630 0.25882353 0.45490196 0.68235294
v 0.05822954 0.03588009 -0.00730630 0.25882353 0.45490196 0.68235294
v 0.05822954 0.03856715 -0.00462707 0.25882353 0.45490196 0.68235294
v 0.05569939 0.03848588 -0.00462707 0.25882353 0.45490196 0.68235294
v 0.05569939 0.04828655 -0.00730630 0.25882353 0.45490196 0.68235294
v 0.07050350 0.03671872 -0.00730630 0.25882353 0.45490196 0.68235294
v 0.06093792 0.03903055 -0.00462707 0.25882353 0.45490196 0.68235294
v 0.05569939 0.04573090 -0.00462707 0.25882353 0.45490196 0.68235294
v 0.06590692 0.05338745 -0.00462707 0.25882353 0.45490196 0.68235294
v 0.06276091 0.05338745 -0.00730630 0.25882353 0.45490196 0.68235294
v 0.07050350 0.04416778 -0.00462707 0.25882353 0.45490196 0.68235294
v 0.06635325 0.04161732 -0.00462707 0.25882353 0.45490196 0.68235294
v 0.06352314 0.03990376 -0.00462707 0.25882353 0.45490196 0.68235294
v 0.07050350 0.05338745 -0.00730630 0.25882353 0.45490196 0.68235294
v 0.07050350 0.05338745 -0.00462707 0.25882353 0.45490196 0.68235294
f 1 2 3
f 1 3 4
f 1 4 8
f 1 8 5
f 1 5 10
f 1 10 14
f 1 14 6
f 1 6 2
f 2 6 3
f 3 7 13
f 3 13 12
f 3 12 11
f 3 11 15
f 3 15 9
f 3 9 8
f 3 8 4
f 3 6 7
f 5 9 10
f 5 8 9
f 6 11 12
f 6 12 13
f 6 13 7
f 6 14 15
f 6 15 11
f 9 15 14
f 9 14 10