# https://github.com/mikedh/trimesh
v 0.07050350 0.06145934 -0.00462707 0.07450980 0.51764706 0.30588235
v 0.07050350 0.05338918 -0.00462707 0.07450980 0.51764706 0.30588235
v 0.07050350 0.06145934 -0.00730630 0.07450980 0.51764706 0.30588235
v 0.06457461 0.06145934 -0.00462707 0.07450980 0.51764706 0.30588235
v 0.07050350 0.05338918 -0.00730630 0.07450980 0.51764706 0.30588235
v 0.06590748 0.05338918 -0.00462707 0.07450980 0.51764706 0.30588235
v 0.06049960 0.06145934 -0.00730630 0.07450980 0.51764706 0.30588235
v 0.06275990 0.05338918 -0.00730630 0.07450980 0.51764706 0.30588235
f 1 2 5
f 1 5 3
f 1 3 7
f 1 7 4
f 1 4 6
f 1 6 2
f 2 6 8
f 2 8 5
f 3 5 8
f 3 8 7
f 4 7 6
f 6 7 8