# https://github.com/mikedh/trimesh
v 0.06906277 0.05010347 0.01711411 0.05490196 0.43137255 0.30980392
v 0.07050350 0.05154438 0.01700070 0.05490196 0.43137255 0.30980392
v 0.07050350 0.05425221 0.01702086 0.05490196 0.43137255 0.30980392
v 0.06906277 0.05281282 0.01702086 0.05490196 0.43137255 0.30980392
v 0.06420340 0.04524496 0.01704858 0.05490196 0.43137255 0.30980392
v 0.06420340 0.04468782 0.01704480 0.05490196 0.43137255 0.30980392
v 0.06635462 0.04468782 0.01697928 0.05490196 0.43137255 0.30980392
v 0.06906277 0.04739717 0.01693013 0.05490196 0.43137255 0.30980392
v 0.07050350 0.04883198 0.01678270 0.05490196 0.43137255 0.30980392
v 0.07050350 0.05606557 0.01695407 0.05490196 0.43137255 0.30980392
v 0.06906277 0.05606557 0.01690367 0.05490196 0.43137255 0.30980392
v 0.06420340 0.04769482 0.01664030 0.05490196 0.43137255 0.30980392
v 0.06749684 0.05606557 0.01647144 0.05490196 0.43137255 0.30980392
v 0.06420340 0.04234481 0.01678017 0.05490196 0.43137255 0.30980392
v 0.06887466 0.04492441 0.01651429 0.05490196 0.43137255 0.30980392
v 0.06635462 0.04274014 0.01654705 0.05490196 0.43137255 0.30980392
v 0.06784715 0.04320875 0.01635929 0.05490196 0.43137255 0.30980392
v 0.07050350 0.04739717 0.01661258 0.05490196 0.43137255 0.30980392
v 0.07050350 0.05606557 0.00424065 0.05490196 0.43137255 0.30980392
v 0.06420340 0.04793599 0.01653697 0.05490196 0.43137255 0.30980392
v 0.06718662 0.05606557 0.01489502 0.05490196 0.43137255 0.30980392
v 0.06420340 0.04852823 0.01577837 0.05490196 0.43137255 0.30980392
v 0.06420340 0.04200595 0.01670457 0.05490196 0.43137255 0.30980392
v 0.07050350 0.04592267 0.01630637 0.05490196 0.43137255 0.30980392
v 0.07050350 0.04680035 0.01650169 0.05490196 0.43137255 0.30980392
v 0.06420340 0.04072530 0.01532347 0.05490196 0.43137255 0.30980392
v 0.06467829 0.04085810 0.01489502 0.05490196 0.43137255 0.30980392
v 0.07050350 0.04468477 0.01487990 0.05490196 0.43137255 0.30980392
v 0.06620475 0.05606557 0.00424065 0.05490196 0.43137255 0.30980392
v 0.07050350 0.04426807 0.00424065 0.05490196 0.43137255 0.30980392
v 0.06420340 0.04875719 0.01489502 0.05490196 0.43137255 0.30980392
v 0.06420340 0.04061693 0.01489502 0.05490196 0.43137255 0.30980392
v 0.06420340 0.04051466 0.01325560 0.05490196 0.43137255 0.30980392
v 0.06477636 0.04073904 0.01218701 0.05490196 0.43137255 0.30980392
v 0.07050350 0.04426959 0.01218701 0.05490196 0.43137255 0.30980392
v 0.06420340 0.04988978 0.00424065 0.05490196 0.43137255 0.30980392
v 0.07050350 0.04426807 0.01077189 0.05490196 0.43137255 0.30980392
v 0.06477636 0.04073904 0.00424065 0.05490196 0.43137255 0.30980392
v 0.06420340 0.04047345 0.01218701 0.05490196 0.43137255 0.30980392
v 0.06468754 0.04069783 0.00424065 0.05490196 0.43137255 0.30980392
v 0.06420340 0.04047345 0.00424065 0.05490196 0.43137255 0.30980392
f 1 2 3
f 1 3 4
f 1 4 5
f 1 5 6
f 1 6 7
f 1 7 8
f 1 8 2
f 2 8 9
f 2 9 18
f 2 18 25
f 2 25 24
f 2 24 28
f 2 28 35
f 2 35 37
f 2 37 30
f 2 30 19
f 2 19 10
f 2 10 3
f 3 10 11
f 3 11 4
f 4 11 5
f 5 12 20
f 5 20 22
f 5 22 31
f 5 31 36
f 5 36 41
f 5 41 39
f 5 39 33
f 5 33 32
f 5 32 26
f 5 26 23
f 5 23 14
f 5 14 6
f 5 11 13
f 5 13 12
f 6 14 7
f 7 15 8
f 7 14 16
f 7 16 17
f 7 17 15
f 8 15 18
f 8 18 9
f 10 19 29
f 10 29 21
f 10 21 13
f 10 13 11
f 12 13 20
f 13 21 22
f 13 22 20
f 14 23 16
f 15 24 25
f 15 25 18
f 15 17 24
f 16 23 26
f 16 26 17
f 17 26 27
f 17 27 28
f 17 28 24
f 19 30 38
f 19 38 40
f 19 40 41
f 19 41 36
f 19 36 29
f 21 29 31
f 21 31 22
f 26 32 27
f 27 32 33
f 27 33 34
f 27 34 35
f 27 35 28
f 29 36 31
f 30 37 34
f 30 34 38
f 33 39 34
f 34 39 40
f 34 40 38
f 34 37 35
f 39 41 40