# https://github.com/mikedh/trimesh
v 0.05551903 -0.03826958 -0.00575335 0.14509804 0.98039216 0.47450980
v 0.05281243 -0.03848345 -0.00575335 0.14509804 0.98039216 0.47450980
v 0.05551903 -0.03859486 -0.00404664 0.14509804 0.98039216 0.47450980
v 0.05803333 -0.03832131 -0.00575335 0.14509804 0.98039216 0.47450980
v 0.05010583 -0.03901861 -0.00575335 0.14509804 0.98039216 0.47450980
v 0.05281243 -0.03891615 -0.00404664 0.14509804 0.98039216 0.47450980
v 0.05822853 -0.03868538 -0.00404664 0.14509804 0.98039216 0.47450980
v 0.05822853 -0.03832728 -0.00575335 0.14509804 0.98039216 0.47450980
v 0.05010583 -0.03967513 -0.00404664 0.14509804 0.98039216 0.47450980
v 0.05279786 -0.03892013 -0.00404664 0.14509804 0.98039216 0.47450980
v 0.04779254 -0.03976366 -0.00575335 0.14509804 0.98039216 0.47450980
v 0.06092057 -0.03919866 -0.00404664 0.14509804 0.98039216 0.47450980
v 0.06039906 -0.03857795 -0.00575335 0.14509804 0.98039216 0.47450980
v 0.05009417 -0.03967911 -0.00404664 0.14509804 0.98039216 0.47450980
v 0.04470720 -0.04208634 -0.00575335 0.14509804 0.98039216 0.47450980
v 0.04510343 -0.04255983 -0.00404664 0.14509804 0.98039216 0.47450980
v 0.04699426 -0.04121396 -0.00404664 0.14509804 0.98039216 0.47450980
v 0.04700591 -0.04120601 -0.00404664 0.14509804 0.98039216 0.47450980
v 0.04835776 -0.04040028 -0.00404664 0.14509804 0.98039216 0.47450980
v 0.06093805 -0.03920263 -0.00404664 0.14509804 0.98039216 0.47450980
v 0.06093805 -0.03868140 -0.00575335 0.14509804 0.98039216 0.47450980
v 0.04375741 -0.04373858 -0.00404664 0.14509804 0.98039216 0.47450980
v 0.04208800 -0.04470346 -0.00575335 0.14509804 0.98039216 0.47450980
v 0.06342031 -0.04009092 -0.00404664 0.14509804 0.98039216 0.47450980
v 0.06373205 -0.03951697 -0.00575335 0.14509804 0.98039216 0.47450980
v 0.06310857 -0.03929415 -0.00575335 0.14509804 0.98039216 0.47450980
v 0.04374284 -0.04375350 -0.00404664 0.14509804 0.98039216 0.47450980
v 0.03976598 -0.04778909 -0.00575335 0.14509804 0.98039216 0.47450980
v 0.04256290 -0.04509936 -0.00404664 0.14509804 0.98039216 0.47450980
v 0.06344362 -0.04009987 -0.00404664 0.14509804 0.98039216 0.47450980
v 0.06407001 -0.03967712 -0.00575335 0.14509804 0.98039216 0.47450980
v 0.06478963 -0.04073351 -0.00404664 0.14509804 0.98039216 0.47450980
v 0.03957078 -0.04843069 -0.00575335 0.14509804 0.98039216 0.47450980
v 0.04036907 -0.04843069 -0.00404664 0.14509804 0.98039216 0.47450980
v 0.04040111 -0.04835509 -0.00404664 0.14509804 0.98039216 0.47450980
v 0.04120523 -0.04700823 -0.00404664 0.14509804 0.98039216 0.47450980
v 0.04121688 -0.04698933 -0.00404664 0.14509804 0.98039216 0.47450980
v 0.06804105 -0.04200477 -0.00575335 0.14509804 0.98039216 0.47450980
v 0.06635125 -0.04177897 -0.00404664 0.14509804 0.98039216 0.47450980
v 0.05100026 -0.04843069 -0.00575335 0.14509804 0.98039216 0.47450980
v 0.05069726 -0.04843069 -0.00404664 0.14509804 0.98039216 0.47450980
v 0.06862665 -0.04243349 -0.00575335 0.14509804 0.98039216 0.47450980
v 0.06805562 -0.04303331 -0.00404664 0.14509804 0.98039216 0.47450980
v 0.06933171 -0.04828247 -0.00404664 0.14509804 0.98039216 0.47450980
v 0.05099152 -0.04843069 -0.00569588 0.14509804 0.98039216 0.47450980
v 0.06933171 -0.04828247 -0.00575335 0.14509804 0.98039216 0.47450980
v 0.05070017 -0.04843069 -0.00406267 0.14509804 0.98039216 0.47450980
v 0.06933171 -0.04418222 -0.00404664 0.14509804 0.98039216 0.47450980
v 0.06909281 -0.04285427 -0.00575335 0.14509804 0.98039216 0.47450980
v 0.06933171 -0.04329891 -0.00575335 0.14509804 0.98039216 0.47450980
v 0.06933171 -0.04394050 -0.00442971 0.14509804 0.98039216 0.47450980
f 1 2 3
f 1 3 4
f 1 4 8
f 1 8 13
f 1 13 21
f 1 21 26
f 1 26 25
f 1 25 31
f 1 31 38
f 1 38 42
f 1 42 49
f 1 49 50
f 1 50 46
f 1 46 40
f 1 40 33
f 1 33 28
f 1 28 23
f 1 23 15
f 1 15 11
f 1 11 5
f 1 5 2
f 2 5 6
f 2 6 3
f 3 6 10
f 3 10 9
f 3 9 14
f 3 14 19
f 3 19 18
f 3 18 17
f 3 17 16
f 3 16 22
f 3 22 27
f 3 27 29
f 3 29 37
f 3 37 36
f 3 36 35
f 3 35 34
f 3 34 41
f 3 41 44
f 3 44 48
f 3 48 43
f 3 43 39
f 3 39 32
f 3 32 30
f 3 30 24
f 3 24 20
f 3 20 12
f 3 12 7
f 3 7 8
f 3 8 4
f 5 9 10
f 5 10 6
f 5 11 9
f 7 12 13
f 7 13 8
f 9 11 14
f 11 15 16
f 11 16 17
f 11 17 18
f 11 18 19
f 11 19 14
f 12 20 21
f 12 21 13
f 15 22 16
f 15 23 22
f 20 24 25
f 20 25 26
f 20 26 21
f 22 23 27
f 23 28 29
f 23 29 27
f 24 30 25
f 25 30 32
f 25 32 31
f 28 33 34
f 28 34 35
f 28 35 36
f 28 36 37
f 28 37 29
f 31 32 38
f 32 39 38
f 33 40 45
f 33 45 47
f 33 47 41
f 33 41 34
f 38 39 42
f 39 43 42
f 40 44 45
f 40 46 44
f 41 47 44
f 42 43 48
f 42 48 49
f 44 46 50
f 44 50 51
f 44 51 48
f 44 47 45
f 48 51 49
f 49 51 50