# https://github.com/mikedh/trimesh
v 0.05656288 0.06564595 -0.00462620 0.12941176 0.05098039 0.72549020
v 0.05602872 0.06587694 0.00406183 0.12941176 0.05098039 0.72549020
v 0.05602872 0.06640257 -0.00195530 0.12941176 0.05098039 0.72549020
v 0.05656288 0.07046853 -0.00462620 0.12941176 0.05098039 0.72549020
v 0.06356223 0.06244347 -0.00462620 0.12941176 0.05098039 0.72549020
v 0.06306633 0.06303667 0.00406183 0.12941176 0.05098039 0.72549020
v 0.06312442 0.06303667 0.00423978 0.12941176 0.05098039 0.72549020
v 0.05602872 0.06591152 0.00423978 0.12941176 0.05098039 0.72549020
v 0.05602872 0.07046932 -0.00195530 0.12941176 0.05098039 0.72549020
v 0.06751248 0.07046853 -0.00462620 0.12941176 0.05098039 0.72549020
v 0.07050350 0.06244347 -0.00462620 0.12941176 0.05098039 0.72549020
v 0.06510804 0.06244347 -0.00195530 0.12941176 0.05098039 0.72549020
v 0.07050350 0.06303667 0.00423978 0.12941176 0.05098039 0.72549020
v 0.05602872 0.07046932 0.00423978 0.12941176 0.05098039 0.72549020
v 0.06748556 0.07046932 -0.00195530 0.12941176 0.05098039 0.72549020
v 0.06748556 0.07046932 0.00228152 0.12941176 0.05098039 0.72549020
v 0.06748273 0.07046932 0.00423978 0.12941176 0.05098039 0.72549020
v 0.07050350 0.06748447 0.00423978 0.12941176 0.05098039 0.72549020
v 0.07050350 0.06751118 -0.00462620 0.12941176 0.05098039 0.72549020
v 0.07050350 0.06244347 -0.00195530 0.12941176 0.05098039 0.72549020
f 1 2 3
f 1 3 9
f 1 9 4
f 1 4 10
f 1 10 19
f 1 19 11
f 1 11 5
f 1 5 2
f 2 5 6
f 2 6 7
f 2 7 8
f 2 8 14
f 2 14 9
f 2 9 3
f 4 9 15
f 4 15 10
f 5 7 6
f 5 11 20
f 5 20 12
f 5 12 7
f 7 12 20
f 7 20 13
f 7 13 18
f 7 18 17
f 7 17 14
f 7 14 8
f 9 14 17
f 9 17 16
f 9 16 15
f 10 15 16
f 10 16 17
f 10 17 18
f 10 18 19
f 11 19 18
f 11 18 13
f 11 13 20