# https://github.com/mikedh/trimesh
v -0.08273959 0.01489698 -0.01218763 0.43529412 0.89019608 0.96078431
v -0.08253714 0.00001328 -0.01489524 0.43529412 0.89019608 0.96078431
v -0.08273959 0.01489698 -0.00786035 0.43529412 0.89019608 0.96078431
v -0.08273959 0.07988968 -0.01218763 0.43529412 0.89019608 0.96078431
v -0.08179215 0.00001328 -0.01668159 0.43529412 0.89019608 0.96078431
v -0.08220513 0.00001328 -0.01218763 0.43529412 0.89019608 0.96078431
v -0.08253714 0.07988968 -0.01489524 0.43529412 0.89019608 0.96078431
v -0.08152493 0.00001328 -0.00786035 0.43529412 0.89019608 0.96078431
v -0.08273959 0.07988968 -0.00786035 0.43529412 0.89019608 0.96078431
v -0.08199459 0.08199510 -0.01218763 0.43529412 0.89019608 0.96078431
v -0.08188933 0.08188982 -0.01489524 0.43529412 0.89019608 0.96078431
v -0.08085281 0.00001328 -0.01689628 0.43529412 0.89019608 0.96078431
v -0.08179215 0.07988968 -0.01668159 0.43529412 0.89019608 0.96078431
v -0.08160590 0.08160641 -0.01653756 0.43529412 0.89019608 0.96078431
v -0.06907870 0.00001328 -0.00786035 0.43529412 0.89019608 0.96078431
v -0.08199459 0.08199510 -0.00786035 0.43529412 0.89019608 0.96078431
v -0.08114433 0.08229471 -0.00786035 0.43529412 0.89019608 0.96078431
v -0.07988918 0.08273199 -0.01218763 0.43529412 0.89019608 0.96078431
v -0.07988918 0.08253765 -0.01489524 0.43529412 0.89019608 0.96078431
v -0.07988918 0.00001328 -0.01711459 0.43529412 0.89019608 0.96078431
v -0.07988918 0.07988968 -0.01711459 0.43529412 0.89019608 0.96078431
v -0.07988918 0.08179265 -0.01668159 0.43529412 0.89019608 0.96078431
v -0.00001304 0.00001328 -0.00788571 0.43529412 0.89019608 0.96078431
v -0.00001304 0.06907916 -0.00786035 0.43529412 0.89019608 0.96078431
v -0.07988918 0.08273199 -0.00786035 0.43529412 0.89019608 0.96078431
v -0.07718454 0.08274009 -0.01218763 0.43529412 0.89019608 0.96078431
v -0.00001304 0.08253765 -0.01489524 0.43529412 0.89019608 0.96078431
v -0.00002113 0.00001328 -0.01711459 0.43529412 0.89019608 0.96078431
v -0.00001304 0.08085331 -0.01689628 0.43529412 0.89019608 0.96078431
v -0.00001304 0.07988968 -0.01711459 0.43529412 0.89019608 0.96078431
v -0.00001304 0.08179265 -0.01668159 0.43529412 0.89019608 0.96078431
v -0.00001304 0.00135751 -0.01711459 0.43529412 0.89019608 0.96078431
v -0.00001304 0.08152542 -0.00786035 0.43529412 0.89019608 0.96078431
v -0.07718454 0.08274009 -0.00786035 0.43529412 0.89019608 0.96078431
v -0.01489669 0.08274009 -0.01218763 0.43529412 0.89019608 0.96078431
v -0.01489669 0.08274009 -0.00786035 0.43529412 0.89019608 0.96078431
v -0.00001304 0.08220564 -0.01218763 0.43529412 0.89019608 0.96078431
f 1 2 3
f 1 3 9
f 1 9 4
f 1 4 7
f 1 7 2
f 2 5 12
f 2 12 20
f 2 20 28
f 2 28 23
f 2 23 15
f 2 15 8
f 2 8 6
f 2 6 3
f 2 7 13
f 2 13 5
f 3 6 8
f 3 8 15
f 3 15 24
f 3 24 33
f 3 33 36
f 3 36 34
f 3 34 25
f 3 25 17
f 3 17 16
f 3 16 9
f 4 9 16
f 4 16 10
f 4 10 11
f 4 11 7
f 5 13 12
f 7 11 14
f 7 14 13
f 10 16 17
f 10 17 18
f 10 18 11
f 11 18 19
f 11 19 14
f 12 13 21
f 12 21 20
f 13 14 21
f 14 19 22
f 14 22 21
f 15 23 24
f 17 25 18
f 18 25 34
f 18 34 26
f 18 26 19
f 19 26 35
f 19 35 27
f 19 27 31
f 19 31 22
f 20 21 30
f 20 30 32
f 20 32 28
f 21 22 29
f 21 29 30
f 22 31 29
f 23 28 32
f 23 32 30
f 23 30 29
f 23 29 31
f 23 31 27
f 23 27 37
f 23 37 33
f 23 33 24
f 26 34 36
f 26 36 35
f 27 35 36
f 27 36 37
f 33 37 36