# https://github.com/mikedh/trimesh
v 0.06378060 -0.07084841 -0.00404664 0.64313725 0.42352941 0.60392157
v 0.06378060 -0.06359766 -0.00404664 0.64313725 0.42352941 0.60392157
v 0.06771182 -0.07084841 -0.00404664 0.64313725 0.42352941 0.60392157
v 0.06378060 -0.07084841 0.01674838 0.64313725 0.42352941 0.60392157
v 0.06647816 -0.05614687 -0.00404664 0.64313725 0.42352941 0.60392157
v 0.06378060 -0.06205915 0.00135510 0.64313725 0.42352941 0.60392157
v 0.06591569 -0.05614687 0.00135510 0.64313725 0.42352941 0.60392157
v 0.07063691 -0.06750224 -0.00404664 0.64313725 0.42352941 0.60392157
v 0.06771182 -0.07084841 0.00947841 0.64313725 0.42352941 0.60392157
v 0.06433166 -0.07084841 0.01668210 0.64313725 0.42352941 0.60392157
v 0.06378060 -0.06906522 0.01707356 0.64313725 0.42352941 0.60392157
v 0.07063691 -0.05614687 -0.00404664 0.64313725 0.42352941 0.60392157
v 0.06602979 -0.05614687 0.00343874 0.64313725 0.42352941 0.60392157
v 0.06378060 -0.06422084 0.01489464 0.64313725 0.42352941 0.60392157
v 0.07063691 -0.06750224 0.00947841 0.64313725 0.42352941 0.60392157
v 0.07063691 -0.06748785 0.01218756 0.64313725 0.42352941 0.60392157
v 0.06769504 -0.07084841 0.01218756 0.64313725 0.42352941 0.60392157
v 0.06638821 -0.06911416 0.01675045 0.64313725 0.42352941 0.60392157
v 0.06557942 -0.07084841 0.01652676 0.64313725 0.42352941 0.60392157
v 0.06378060 -0.06892850 0.01709220 0.64313725 0.42352941 0.60392157
v 0.07063691 -0.05614687 0.01697828 0.64313725 0.42352941 0.60392157
v 0.06718157 -0.05614687 0.01489464 0.64313725 0.42352941 0.60392157
v 0.06378060 -0.06474184 0.01594475 0.64313725 0.42352941 0.60392157
v 0.06740643 -0.05614687 0.01609802 0.64313725 0.42352941 0.60392157
v 0.07063691 -0.06701003 0.01501684 0.64313725 0.42352941 0.60392157
v 0.06691175 -0.07084841 0.01505827 0.64313725 0.42352941 0.60392157
v 0.06911664 -0.06638685 0.01674838 0.64313725 0.42352941 0.60392157
v 0.06635465 -0.06635375 0.01711291 0.64313725 0.42352941 0.60392157
v 0.06825012 -0.06824632 0.01653712 0.64313725 0.42352941 0.60392157
v 0.06906227 -0.06093800 0.01707149 0.64313725 0.42352941 0.60392157
v 0.06906227 -0.05614687 0.01690579 0.64313725 0.42352941 0.60392157
v 0.06378060 -0.06627748 0.01679395 0.64313725 0.42352941 0.60392157
v 0.07063691 -0.05665491 0.01698864 0.64313725 0.42352941 0.60392157
v 0.06749502 -0.05614687 0.01647291 0.64313725 0.42352941 0.60392157
v 0.06378060 -0.06580109 0.01670695 0.64313725 0.42352941 0.60392157
v 0.07063691 -0.06567732 0.01655161 0.64313725 0.42352941 0.60392157
v 0.07063691 -0.06458065 0.01668831 0.64313725 0.42352941 0.60392157
v 0.06906227 -0.06364516 0.01708806 0.64313725 0.42352941 0.60392157
v 0.07063691 -0.05936351 0.01702178 0.64313725 0.42352941 0.60392157
v 0.06868775 -0.05614687 0.01680430 0.64313725 0.42352941 0.60392157
v 0.06378060 -0.06605584 0.01676702 0.64313725 0.42352941 0.60392157
v 0.07063691 -0.06364516 0.01680016 0.64313725 0.42352941 0.60392157
v 0.07063691 -0.06224049 0.01687472 0.64313725 0.42352941 0.60392157
f 1 2 5
f 1 5 12
f 1 12 8
f 1 8 3
f 1 3 9
f 1 9 17
f 1 17 26
f 1 26 19
f 1 19 10
f 1 10 4
f 1 4 11
f 1 11 20
f 1 20 32
f 1 32 41
f 1 41 35
f 1 35 23
f 1 23 14
f 1 14 6
f 1 6 2
f 2 6 7
f 2 7 5
f 3 8 15
f 3 15 9
f 4 10 11
f 5 7 13
f 5 13 22
f 5 22 24
f 5 24 34
f 5 34 40
f 5 40 31
f 5 31 21
f 5 21 12
f 6 13 7
f 6 14 13
f 8 12 21
f 8 21 33
f 8 33 39
f 8 39 43
f 8 43 42
f 8 42 37
f 8 37 36
f 8 36 25
f 8 25 16
f 8 16 15
f 9 15 16
f 9 16 17
f 10 18 11
f 10 19 18
f 11 18 20
f 13 14 22
f 14 23 24
f 14 24 22
f 16 25 17
f 17 25 26
f 18 27 28
f 18 28 20
f 18 19 29
f 18 29 27
f 19 26 29
f 20 28 30
f 20 30 31
f 20 31 32
f 21 31 30
f 21 30 33
f 23 34 24
f 23 35 34
f 25 36 29
f 25 29 26
f 27 29 36
f 27 36 37
f 27 37 38
f 27 38 28
f 28 38 30
f 30 39 33
f 30 38 39
f 31 40 41
f 31 41 32
f 34 35 41
f 34 41 40
f 37 42 38
f 38 43 39
f 38 42 43