# https://github.com/mikedh/trimesh
v -0.08273959 -0.07989625 -0.00567660 0.54117647 0.42352941 0.64313725
v -0.08273959 -0.07312317 -0.00567660 0.54117647 0.42352941 0.64313725
v -0.08199459 -0.08199454 -0.00567660 0.54117647 0.42352941 0.64313725
v -0.08273959 -0.07989625 0.01218647 0.54117647 0.42352941 0.64313725
v -0.08273959 -0.07312317 0.01218647 0.54117647 0.42352941 0.64313725
v -0.04023453 -0.07312317 -0.00567660 0.54117647 0.42352941 0.64313725
v -0.08114433 -0.08229577 -0.00567660 0.54117647 0.42352941 0.64313725
v -0.08199459 -0.08199454 0.01218647 0.54117647 0.42352941 0.64313725
v -0.08253714 -0.07989625 0.01489482 0.54117647 0.42352941 0.64313725
v -0.08188933 -0.08189381 0.01489482 0.54117647 0.42352941 0.64313725
v -0.08253714 -0.07312317 0.01489482 0.54117647 0.42352941 0.64313725
v -0.00001304 -0.07318059 -0.00567660 0.54117647 0.42352941 0.64313725
v -0.04318211 -0.07312317 0.01367896 0.54117647 0.42352941 0.64313725
v -0.07988918 -0.08273915 -0.00567660 0.54117647 0.42352941 0.64313725
v -0.07988918 -0.08273915 0.01218647 0.54117647 0.42352941 0.64313725
v -0.08216465 -0.07312317 0.01578942 0.54117647 0.42352941 0.64313725
v -0.08160590 -0.08161234 0.01653678 0.54117647 0.42352941 0.64313725
v -0.08179215 -0.07989625 0.01668179 0.54117647 0.42352941 0.64313725
v -0.07988918 -0.08253770 0.01489482 0.54117647 0.42352941 0.64313725
v -0.00001304 -0.07351101 0.01218647 0.54117647 0.42352941 0.64313725
v -0.00001304 -0.08148902 -0.00567660 0.54117647 0.42352941 0.64313725
v -0.04475307 -0.07312317 0.01535439 0.54117647 0.42352941 0.64313725
v -0.07718454 -0.08274009 -0.00567660 0.54117647 0.42352941 0.64313725
v -0.07718454 -0.08274009 0.01218647 0.54117647 0.42352941 0.64313725
v -0.08179215 -0.07312317 0.01668179 0.54117647 0.42352941 0.64313725
v -0.07988918 -0.08179308 0.01668179 0.54117647 0.42352941 0.64313725
v -0.07988918 -0.07989625 0.01711459 0.54117647 0.42352941 0.64313725
v -0.07718454 -0.08253864 0.01489482 0.54117647 0.42352941 0.64313725
v -0.00001304 -0.07380660 0.01489482 0.54117647 0.42352941 0.64313725
v -0.04739294 -0.07312317 0.01606829 0.54117647 0.42352941 0.64313725
v -0.05019476 -0.07312317 0.01663940 0.54117647 0.42352941 0.64313725
v -0.00001304 -0.08253864 0.01489482 0.54117647 0.42352941 0.64313725
v -0.01489669 -0.08274009 -0.00567660 0.54117647 0.42352941 0.64313725
v -0.01489669 -0.08274009 0.01218647 0.54117647 0.42352941 0.64313725
v -0.07988918 -0.07312317 0.01711459 0.54117647 0.42352941 0.64313725
v -0.00001304 -0.08216963 0.01578050 0.54117647 0.42352941 0.64313725
v -0.00001304 -0.08179308 0.01668179 0.54117647 0.42352941 0.64313725
v -0.00001304 -0.07989625 0.01711459 0.54117647 0.42352941 0.64313725
v -0.00001304 -0.07496823 0.01668179 0.54117647 0.42352941 0.64313725
v -0.05144991 -0.07312317 0.01676434 0.54117647 0.42352941 0.64313725
v -0.05281032 -0.07312317 0.01689819 0.54117647 0.42352941 0.64313725
v -0.07718454 -0.07312317 0.01711459 0.54117647 0.42352941 0.64313725
v -0.00001304 -0.07718890 0.01711459 0.54117647 0.42352941 0.64313725
v -0.00001304 -0.07608845 0.01690042 0.54117647 0.42352941 0.64313725
v -0.05551497 -0.07312317 0.01701866 0.54117647 0.42352941 0.64313725
f 1 2 6
f 1 6 12
f 1 12 21
f 1 21 33
f 1 33 23
f 1 23 14
f 1 14 7
f 1 7 3
f 1 3 8
f 1 8 4
f 1 4 5
f 1 5 2
f 2 5 11
f 2 11 16
f 2 16 25
f 2 25 35
f 2 35 42
f 2 42 45
f 2 45 41
f 2 41 40
f 2 40 31
f 2 31 30
f 2 30 22
f 2 22 13
f 2 13 6
f 3 7 8
f 4 9 11
f 4 11 5
f 4 8 10
f 4 10 9
f 6 13 12
f 7 14 15
f 7 15 8
f 8 15 10
f 9 16 11
f 9 10 17
f 9 17 18
f 9 18 16
f 10 15 19
f 10 19 17
f 12 20 29
f 12 29 39
f 12 39 44
f 12 44 43
f 12 43 38
f 12 38 37
f 12 37 36
f 12 36 32
f 12 32 21
f 12 13 22
f 12 22 20
f 14 23 24
f 14 24 15
f 15 24 28
f 15 28 19
f 16 18 25
f 17 19 26
f 17 26 27
f 17 27 18
f 18 27 35
f 18 35 25
f 19 28 26
f 20 22 30
f 20 30 31
f 20 31 29
f 21 32 33
f 23 33 34
f 23 34 24
f 24 34 32
f 24 32 28
f 26 28 36
f 26 36 37
f 26 37 38
f 26 38 27
f 27 38 43
f 27 43 42
f 27 42 35
f 28 32 36
f 29 31 40
f 29 40 41
f 29 41 39
f 32 34 33
f 39 41 45
f 39 45 44
f 42 43 45
f 43 44 45