# https://github.com/mikedh/trimesh
v -0.00001304 -0.08253758 -0.01489511 0.56470588 0.92549020 0.07058824
v 0.07988829 -0.08253758 -0.01489511 0.56470588 0.92549020 0.07058824
v 0.01489961 -0.08274009 -0.01218832 0.56470588 0.92549020 0.07058824
v 0.01489961 -0.08274009 -0.00775669 0.56470588 0.92549020 0.07058824
v -0.00001304 -0.08237558 -0.01355408 0.56470588 0.92549020 0.07058824
v -0.00001304 -0.08179234 -0.01668224 0.56470588 0.92549020 0.07058824
v 0.07988829 -0.08273198 -0.01218832 0.56470588 0.92549020 0.07058824
v 0.07718279 -0.08274009 -0.01218832 0.56470588 0.92549020 0.07058824
v 0.07988829 -0.08179234 -0.01668224 0.56470588 0.92549020 0.07058824
v 0.08160554 -0.08160604 -0.01653751 0.56470588 0.92549020 0.07058824
v 0.08188906 -0.08188955 -0.01489511 0.56470588 0.92549020 0.07058824
v -0.00001304 -0.08220546 -0.01218832 0.56470588 0.92549020 0.07058824
v 0.07718279 -0.08274009 -0.00775669 0.56470588 0.92549020 0.07058824
v -0.00001304 -0.08152503 -0.00775669 0.56470588 0.92549020 0.07058824
v -0.00001304 -0.07988876 -0.01711459 0.56470588 0.92549020 0.07058824
v 0.07988829 -0.08273198 -0.00775669 0.56470588 0.92549020 0.07058824
v 0.08199436 -0.08199485 -0.01218832 0.56470588 0.92549020 0.07058824
v 0.07988829 -0.07988876 -0.01711459 0.56470588 0.92549020 0.07058824
v 0.08179185 -0.07988876 -0.01668224 0.56470588 0.92549020 0.07058824
v 0.08253709 -0.07988876 -0.01489511 0.56470588 0.92549020 0.07058824
v 0.08273959 -0.07988876 -0.01218832 0.56470588 0.92549020 0.07058824
v -0.00001304 -0.06935018 -0.00775669 0.56470588 0.92549020 0.07058824
v -0.00001304 0.00000518 -0.01711459 0.56470588 0.92549020 0.07058824
v 0.08199436 -0.08199485 -0.00775669 0.56470588 0.92549020 0.07058824
v 0.07988829 0.00001328 -0.01711459 0.56470588 0.92549020 0.07058824
v 0.08179185 0.00001328 -0.01668224 0.56470588 0.92549020 0.07058824
v 0.08253709 0.00001328 -0.01489511 0.56470588 0.92549020 0.07058824
v 0.08273959 -0.07988876 -0.00775669 0.56470588 0.92549020 0.07058824
v 0.08273959 -0.01489950 -0.01218832 0.56470588 0.92549020 0.07058824
v 0.06934980 0.00001328 -0.00775669 0.56470588 0.92549020 0.07058824
v -0.00001304 0.00001328 -0.00788585 0.56470588 0.92549020 0.07058824
v -0.00000493 0.00001328 -0.01711459 0.56470588 0.92549020 0.07058824
v 0.08237508 0.00001328 -0.01355500 0.56470588 0.92549020 0.07058824
v 0.08273959 -0.01489950 -0.00775669 0.56470588 0.92549020 0.07058824
v 0.08152454 0.00001328 -0.00775669 0.56470588 0.92549020 0.07058824
v 0.08220497 0.00001328 -0.01218832 0.56470588 0.92549020 0.07058824
f 1 2 8
f 1 8 3
f 1 3 4
f 1 4 5
f 1 5 12
f 1 12 14
f 1 14 22
f 1 22 31
f 1 31 23
f 1 23 15
f 1 15 6
f 1 6 9
f 1 9 2
f 2 7 8
f 2 9 10
f 2 10 11
f 2 11 7
f 3 8 13
f 3 13 4
f 4 12 5
f 4 13 16
f 4 16 24
f 4 24 28
f 4 28 34
f 4 34 35
f 4 35 30
f 4 30 22
f 4 22 14
f 4 14 12
f 6 15 18
f 6 18 9
f 7 16 13
f 7 13 8
f 7 11 17
f 7 17 24
f 7 24 16
f 9 18 10
f 10 18 19
f 10 19 20
f 10 20 11
f 11 20 21
f 11 21 17
f 15 23 32
f 15 32 25
f 15 25 18
f 17 21 28
f 17 28 24
f 18 25 26
f 18 26 19
f 19 26 27
f 19 27 20
f 20 27 29
f 20 29 21
f 21 29 34
f 21 34 28
f 22 30 31
f 23 31 32
f 25 32 31
f 25 31 30
f 25 30 35
f 25 35 36
f 25 36 33
f 25 33 27
f 25 27 26
f 27 33 34
f 27 34 29
f 33 36 34
f 34 36 35