# https://github.com/mikedh/trimesh
v 0.05909114 -0.07084899 -0.00404664 0.80392157 0.56862745 0.40392157
v 0.05909114 -0.06638944 -0.00404664 0.80392157 0.56862745 0.40392157
v 0.06378014 -0.07084899 -0.00404664 0.80392157 0.56862745 0.40392157
v 0.05909114 -0.07084899 0.01701203 0.80392157 0.56862745 0.40392157
v 0.06378014 -0.06359857 -0.00404664 0.80392157 0.56862745 0.40392157
v 0.05909114 -0.06592817 -0.00221536 0.80392157 0.56862745 0.40392157
v 0.06378014 -0.06205813 0.00135615 0.80392157 0.56862745 0.40392157
v 0.06378014 -0.07084899 0.01674716 0.80392157 0.56862745 0.40392157
v 0.05915127 -0.07084899 0.01701410 0.80392157 0.56862745 0.40392157
v 0.06093828 -0.06906241 0.01707203 0.80392157 0.56862745 0.40392157
v 0.05909114 -0.06906241 0.01698720 0.80392157 0.56862745 0.40392157
v 0.05909114 -0.06577326 -0.00140629 0.80392157 0.56862745 0.40392157
v 0.05909114 -0.06550132 0.00135615 0.80392157 0.56862745 0.40392157
v 0.05909114 -0.06646259 0.01218656 0.80392157 0.56862745 0.40392157
v 0.05909114 -0.06679048 0.01489519 0.80392157 0.56862745 0.40392157
v 0.06378014 -0.06422163 0.01489519 0.80392157 0.56862745 0.40392157
v 0.06378014 -0.07076465 0.01676372 0.80392157 0.56862745 0.40392157
v 0.06364611 -0.07084899 0.01676372 0.80392157 0.56862745 0.40392157
v 0.06364611 -0.06906241 0.01709066 0.80392157 0.56862745 0.40392157
v 0.06378014 -0.06892816 0.01709273 0.80392157 0.56862745 0.40392157
v 0.06378014 -0.06627929 0.01679269 0.80392157 0.56862745 0.40392157
v 0.06378014 -0.06605725 0.01676579 0.80392157 0.56862745 0.40392157
v 0.05909114 -0.06843074 0.01685063 0.80392157 0.56862745 0.40392157
v 0.05909114 -0.06705553 0.01600017 0.80392157 0.56862745 0.40392157
v 0.05909114 -0.06732318 0.01655472 0.80392157 0.56862745 0.40392157
v 0.06378014 -0.06474401 0.01594637 0.80392157 0.56862745 0.40392157
v 0.06378014 -0.06906499 0.01707410 0.80392157 0.56862745 0.40392157
v 0.06378014 -0.06580166 0.01670785 0.80392157 0.56862745 0.40392157
f 1 2 5
f 1 5 3
f 1 3 8
f 1 8 18
f 1 18 9
f 1 9 4
f 1 4 11
f 1 11 23
f 1 23 25
f 1 25 24
f 1 24 15
f 1 15 14
f 1 14 13
f 1 13 12
f 1 12 6
f 1 6 2
f 2 6 7
f 2 7 5
f 3 5 7
f 3 7 16
f 3 16 26
f 3 26 28
f 3 28 22
f 3 22 21
f 3 21 20
f 3 20 27
f 3 27 17
f 3 17 8
f 4 9 10
f 4 10 11
f 6 12 7
f 7 12 13
f 7 13 14
f 7 14 15
f 7 15 16
f 8 17 18
f 9 19 10
f 9 18 19
f 10 19 20
f 10 20 21
f 10 21 22
f 10 22 11
f 11 22 23
f 15 24 16
f 16 24 25
f 16 25 26
f 17 27 19
f 17 19 18
f 19 27 20
f 22 28 23
f 23 28 25
f 25 28 26