# https://github.com/mikedh/trimesh
v -0.03894151 -0.06690921 -0.00737812 0.81960784 0.09411765 0.83529412
v -0.04162846 -0.06690921 -0.00567676 0.81960784 0.09411765 0.83529412
v -0.03889001 -0.07318051 -0.00567676 0.81960784 0.09411765 0.83529412
v -0.03889001 -0.07016650 -0.00737812 0.81960784 0.09411765 0.83529412
v -0.08273959 -0.06690921 -0.00737812 0.81960784 0.09411765 0.83529412
v -0.08273959 -0.06690921 -0.00567676 0.81960784 0.09411765 0.83529412
v -0.03889001 -0.08274009 -0.00567676 0.81960784 0.09411765 0.83529412
v -0.03889001 -0.08274009 -0.00737812 0.81960784 0.09411765 0.83529412
v -0.08273959 -0.07989499 -0.00737812 0.81960784 0.09411765 0.83529412
v -0.08273959 -0.07989499 -0.00567676 0.81960784 0.09411765 0.83529412
v -0.07718542 -0.08274009 -0.00567676 0.81960784 0.09411765 0.83529412
v -0.07718542 -0.08274009 -0.00737812 0.81960784 0.09411765 0.83529412
v -0.08257219 -0.08036608 -0.00737812 0.81960784 0.09411765 0.83529412
v -0.08199273 -0.08199473 -0.00567676 0.81960784 0.09411765 0.83529412
v -0.07989383 -0.08273854 -0.00567676 0.81960784 0.09411765 0.83529412
v -0.07989383 -0.08273854 -0.00737812 0.81960784 0.09411765 0.83529412
v -0.08199273 -0.08199473 -0.00737812 0.81960784 0.09411765 0.83529412
v -0.08036598 -0.08257273 -0.00737812 0.81960784 0.09411765 0.83529412
f 1 2 3
f 1 3 4
f 1 4 8
f 1 8 12
f 1 12 16
f 1 16 18
f 1 18 17
f 1 17 13
f 1 13 9
f 1 9 5
f 1 5 6
f 1 6 2
f 2 6 10
f 2 10 14
f 2 14 15
f 2 15 11
f 2 11 7
f 2 7 3
f 3 7 8
f 3 8 4
f 5 9 10
f 5 10 6
f 7 11 12
f 7 12 8
f 9 13 10
f 10 13 14
f 11 15 16
f 11 16 12
f 13 17 14
f 14 17 18
f 14 18 15
f 15 18 16