# https://github.com/mikedh/trimesh
v 0.05646990 0.07046932 0.01694841 0.94117647 0.79607843 0.62745098
v 0.05421703 0.07046932 0.01702120 0.94117647 0.79607843 0.62745098
v 0.05646990 0.06906201 0.01691667 0.94117647 0.79607843 0.62745098
v 0.05646990 0.07046932 0.00424290 0.94117647 0.79607843 0.62745098
v 0.05150911 0.07046932 0.01700253 0.94117647 0.79607843 0.62745098
v 0.05010388 0.06906201 0.01711079 0.94117647 0.79607843 0.62745098
v 0.04465599 0.06361309 0.01706040 0.94117647 0.79607843 0.62745098
v 0.04468964 0.06361309 0.01705666 0.94117647 0.79607843 0.62745098
v 0.05646990 0.06748129 0.01648364 0.94117647 0.79607843 0.62745098
v 0.05646990 0.06587363 0.00424290 0.94117647 0.79607843 0.62745098
v 0.05602766 0.07046862 -0.00195399 0.94117647 0.79607843 0.62745098
v 0.04426182 0.07046932 0.00424290 0.94117647 0.79607843 0.62745098
v 0.04879158 0.07046932 0.01678788 0.94117647 0.79607843 0.62745098
v 0.04739756 0.06906201 0.01693347 0.94117647 0.79607843 0.62745098
v 0.04468804 0.06635585 0.01698200 0.94117647 0.79607843 0.62745098
v 0.04185193 0.06361309 0.01675428 0.94117647 0.79607843 0.62745098
v 0.04010220 0.06341135 0.00424104 0.94117647 0.79607843 0.62745098
v 0.04957351 0.06341135 0.00424104 0.94117647 0.79607843 0.62745098
v 0.04712036 0.06361309 0.01664043 0.94117647 0.79607843 0.62745098
v 0.04719567 0.06361309 0.01661989 0.94117647 0.79607843 0.62745098
v 0.04811380 0.06361309 0.01520693 0.94117647 0.79607843 0.62745098
v 0.05646990 0.06715312 0.01489335 0.94117647 0.79607843 0.62745098
v 0.05003017 0.06361309 0.00670486 0.94117647 0.79607843 0.62745098
v 0.04960075 0.06341135 -0.00195399 0.94117647 0.79607843 0.62745098
v 0.05602766 0.06640214 -0.00195399 0.94117647 0.79607843 0.62745098
v 0.04819231 0.06361309 0.01489335 0.94117647 0.79607843 0.62745098
v 0.04426022 0.07046862 -0.00195399 0.94117647 0.79607843 0.62745098
v 0.04426182 0.07046932 0.00947853 0.94117647 0.79607843 0.62745098
v 0.04739756 0.07046932 0.01662363 0.94117647 0.79607843 0.62745098
v 0.04492198 0.06887755 0.01651724 0.94117647 0.79607843 0.62745098
v 0.04184553 0.06375471 0.01673562 0.94117647 0.79607843 0.62745098
v 0.04320589 0.06785091 0.01636045 0.94117647 0.79607843 0.62745098
v 0.04273001 0.06635585 0.01654897 0.94117647 0.79607843 0.62745098
v 0.04159236 0.06361309 0.01669269 0.94117647 0.79607843 0.62745098
v 0.04055405 0.06361309 0.01586581 0.94117647 0.79607843 0.62745098
v 0.04031050 0.06361309 0.01489335 0.94117647 0.79607843 0.62745098
v 0.04027846 0.06361309 0.01438192 0.94117647 0.79607843 0.62745098
v 0.04019353 0.06361309 0.01218687 0.94117647 0.79607843 0.62745098
v 0.04011181 0.06343691 0.00424104 0.94117647 0.79607843 0.62745098
v 0.04010861 0.06343691 -0.00195399 0.94117647 0.79607843 0.62745098
v 0.04010220 0.06341135 -0.00195399 0.94117647 0.79607843 0.62745098
v 0.04073352 0.06479103 -0.00195399 0.94117647 0.79607843 0.62745098
v 0.04073192 0.06479103 0.00135537 0.94117647 0.79607843 0.62745098
v 0.04073031 0.06479103 0.00947853 0.94117647 0.79607843 0.62745098
v 0.04073031 0.06479103 0.01218687 0.94117647 0.79607843 0.62745098
v 0.04426343 0.07046932 0.01218687 0.94117647 0.79607843 0.62745098
v 0.04675183 0.07046932 0.01650417 0.94117647 0.79607843 0.62745098
v 0.04588818 0.07046932 0.01631565 0.94117647 0.79607843 0.62745098
v 0.04467202 0.07046932 0.01488215 0.94117647 0.79607843 0.62745098
v 0.04085048 0.06469154 0.01489335 0.94117647 0.79607843 0.62745098
f 1 2 3
f 1 3 9
f 1 9 22
f 1 22 10
f 1 10 4
f 1 4 12
f 1 12 28
f 1 28 46
f 1 46 49
f 1 49 48
f 1 48 47
f 1 47 29
f 1 29 13
f 1 13 5
f 1 5 2
f 2 5 6
f 2 6 3
f 3 6 7
f 3 7 8
f 3 8 9
f 4 10 25
f 4 25 11
f 4 11 27
f 4 27 12
f 5 13 14
f 5 14 6
f 6 14 15
f 6 15 7
f 7 15 16
f 7 16 17
f 7 17 18
f 7 18 8
f 8 18 19
f 8 19 9
f 9 20 21
f 9 21 22
f 9 19 20
f 10 23 18
f 10 18 24
f 10 24 25
f 10 22 21
f 10 21 26
f 10 26 23
f 11 25 24
f 11 24 41
f 11 41 40
f 11 40 42
f 11 42 27
f 12 27 28
f 13 29 14
f 14 29 30
f 14 30 15
f 15 31 16
f 15 30 32
f 15 32 33
f 15 33 31
f 16 31 34
f 16 34 17
f 17 34 35
f 17 35 36
f 17 36 37
f 17 37 38
f 17 38 39
f 17 39 40
f 17 40 41
f 17 41 24
f 17 24 18
f 18 23 26
f 18 26 21
f 18 21 20
f 18 20 19
f 27 42 43
f 27 43 44
f 27 44 45
f 27 45 28
f 28 45 46
f 29 47 30
f 30 47 48
f 30 48 32
f 31 33 34
f 32 48 49
f 32 49 50
f 32 50 35
f 32 35 34
f 32 34 33
f 35 50 36
f 36 50 45
f 36 45 37
f 37 45 38
f 38 45 40
f 38 40 39
f 40 45 44
f 40 44 43
f 40 43 42
f 45 50 46
f 46 50 49