# https://github.com/mikedh/trimesh
v 0.05599258 -0.03423901 -0.00775669 0.69411765 0.37647059 0.17647059
v 0.05599258 -0.03827874 -0.00575335 0.69411765 0.37647059 0.17647059
v 0.05599258 -0.05133686 -0.00775669 0.69411765 0.37647059 0.17647059
v 0.05551975 -0.03423901 -0.00775669 0.69411765 0.37647059 0.17647059
v 0.05551975 -0.03827026 -0.00575335 0.69411765 0.37647059 0.17647059
v 0.05599258 -0.04750695 -0.00575335 0.69411765 0.37647059 0.17647059
v 0.04606515 -0.05588950 -0.00575335 0.69411765 0.37647059 0.17647059
v 0.04985423 -0.05588950 -0.00775669 0.69411765 0.37647059 0.17647059
v 0.05281265 -0.03437465 -0.00775669 0.69411765 0.37647059 0.17647059
v 0.05281265 -0.03848221 -0.00575335 0.69411765 0.37647059 0.17647059
v 0.03826974 -0.05588950 -0.00575335 0.69411765 0.37647059 0.17647059
v 0.03423572 -0.05588950 -0.00775669 0.69411765 0.37647059 0.17647059
v 0.05010342 -0.03499990 -0.00775669 0.69411765 0.37647059 0.17647059
v 0.05010342 -0.03901843 -0.00575335 0.69411765 0.37647059 0.17647059
v 0.03826122 -0.05552071 -0.00575335 0.69411765 0.37647059 0.17647059
v 0.03423359 -0.05552071 -0.00775669 0.69411765 0.37647059 0.17647059
v 0.04468923 -0.03758355 -0.00775669 0.69411765 0.37647059 0.17647059
v 0.04778823 -0.03976237 -0.00575335 0.69411765 0.37647059 0.17647059
v 0.03848272 -0.05281201 -0.00575335 0.69411765 0.37647059 0.17647059
v 0.03437629 -0.05281201 -0.00775669 0.69411765 0.37647059 0.17647059
v 0.04198001 -0.03996372 -0.00775669 0.69411765 0.37647059 0.17647059
v 0.04470628 -0.04208744 -0.00575335 0.69411765 0.37647059 0.17647059
v 0.03901946 -0.05010332 -0.00575335 0.69411765 0.37647059 0.17647059
v 0.03501739 -0.05010332 -0.00775669 0.69411765 0.37647059 0.17647059
v 0.03996300 -0.04198147 -0.00775669 0.69411765 0.37647059 0.17647059
v 0.04208651 -0.04470500 -0.00575335 0.69411765 0.37647059 0.17647059
v 0.03976279 -0.04778884 -0.00575335 0.69411765 0.37647059 0.17647059
v 0.03759030 -0.04468805 -0.00775669 0.69411765 0.37647059 0.17647059
f 1 2 6
f 1 6 3
f 1 3 8
f 1 8 12
f 1 12 16
f 1 16 20
f 1 20 24
f 1 24 28
f 1 28 25
f 1 25 21
f 1 21 17
f 1 17 13
f 1 13 9
f 1 9 4
f 1 4 5
f 1 5 2
f 2 5 10
f 2 10 14
f 2 14 18
f 2 18 22
f 2 22 26
f 2 26 27
f 2 27 23
f 2 23 19
f 2 19 15
f 2 15 11
f 2 11 7
f 2 7 6
f 3 6 7
f 3 7 8
f 4 9 5
f 5 9 10
f 7 11 12
f 7 12 8
f 9 13 14
f 9 14 10
f 11 15 12
f 12 15 16
f 13 17 18
f 13 18 14
f 15 19 20
f 15 20 16
f 17 21 22
f 17 22 18
f 19 23 20
f 20 23 24
f 21 25 26
f 21 26 22
f 23 27 24
f 24 27 28
f 25 28 26
f 26 28 27