# https://github.com/mikedh/trimesh
v -0.06313867 0.06251974 -0.00567660 0.66666667 0.78431373 0.27843137
v -0.06394138 0.06109665 -0.00567660 0.66666667 0.78431373 0.27843137
v -0.07085319 0.06251974 -0.00567660 0.66666667 0.78431373 0.27843137
v -0.06350567 0.06251974 0.00677033 0.66666667 0.78431373 0.27843137
v -0.06566915 0.05822270 0.00677033 0.66666667 0.78431373 0.27843137
v -0.06573635 0.05822270 -0.00567660 0.66666667 0.78431373 0.27843137
v -0.07085319 0.06251974 0.01682010 0.66666667 0.78431373 0.27843137
v -0.07085319 0.05822270 -0.00567660 0.66666667 0.78431373 0.27843137
v -0.06539730 0.06251974 0.01489525 0.66666667 0.78431373 0.27843137
v -0.06705936 0.05822270 0.01489525 0.66666667 0.78431373 0.27843137
v -0.07085319 0.05914773 0.01701615 0.66666667 0.78431373 0.27843137
v -0.07031780 0.06251974 0.01691812 0.66666667 0.78431373 0.27843137
v -0.07085319 0.05822270 0.01697159 0.66666667 0.78431373 0.27843137
v -0.06545997 0.06251974 0.01502446 0.66666667 0.78431373 0.27843137
v -0.06743995 0.05822270 0.01651043 0.66666667 0.78431373 0.27843137
v -0.06906729 0.05822270 0.01694486 0.66666667 0.78431373 0.27843137
v -0.06906275 0.06093764 0.01707185 0.66666667 0.78431373 0.27843137
v -0.06906275 0.06251974 0.01708298 0.66666667 0.78431373 0.27843137
v -0.06982771 0.06251974 0.01698273 0.66666667 0.78431373 0.27843137
v -0.06659193 0.06251974 0.01671539 0.66666667 0.78431373 0.27843137
v -0.06743995 0.05822986 0.01651266 0.66666667 0.78431373 0.27843137
v -0.06906275 0.05822986 0.01694486 0.66666667 0.78431373 0.27843137
v -0.06738105 0.06251974 0.01688916 0.66666667 0.78431373 0.27843137
f 1 2 6
f 1 6 8
f 1 8 3
f 1 3 7
f 1 7 12
f 1 12 19
f 1 19 18
f 1 18 23
f 1 23 20
f 1 20 14
f 1 14 9
f 1 9 4
f 1 4 5
f 1 5 2
f 2 5 6
f 3 8 13
f 3 13 11
f 3 11 7
f 4 9 10
f 4 10 5
f 5 10 15
f 5 15 16
f 5 16 13
f 5 13 8
f 5 8 6
f 7 11 12
f 9 14 15
f 9 15 10
f 11 13 16
f 11 16 17
f 11 17 18
f 11 18 19
f 11 19 12
f 14 20 15
f 15 20 21
f 15 21 16
f 16 22 17
f 16 21 22
f 17 22 23
f 17 23 18
f 20 23 22
f 20 22 21