# https://github.com/mikedh/trimesh
v 0.06420278 0.06171538 0.00424190 0.46274510 0.27450980 0.58431373
v 0.05647065 0.06587299 0.00424190 0.46274510 0.27450980 0.58431373
v 0.06420278 0.07046847 0.00424190 0.46274510 0.27450980 0.58431373
v 0.06420278 0.06379933 0.01489565 0.46274510 0.27450980 0.58431373
v 0.05647065 0.06715318 0.01489565 0.46274510 0.27450980 0.58431373
v 0.05647065 0.07046847 0.00424190 0.46274510 0.27450980 0.58431373
v 0.06420278 0.07046847 0.01676078 0.46274510 0.27450980 0.58431373
v 0.06420278 0.06420035 0.01568924 0.46274510 0.27450980 0.58431373
v 0.05647065 0.06748136 0.01648535 0.46274510 0.27450980 0.58431373
v 0.05647065 0.07046847 0.01695068 0.46274510 0.27450980 0.58431373
v 0.06364568 0.07046847 0.01682995 0.46274510 0.27450980 0.58431373
v 0.06420278 0.06943507 0.01695194 0.46274510 0.27450980 0.58431373
v 0.06420278 0.06487644 0.01659350 0.46274510 0.27450980 0.58431373
v 0.05647065 0.06906232 0.01691673 0.46274510 0.27450980 0.58431373
v 0.06093735 0.06906232 0.01707268 0.46274510 0.27450980 0.58431373
v 0.05822977 0.07046847 0.01696703 0.46274510 0.27450980 0.58431373
v 0.06364568 0.06906232 0.01708903 0.46274510 0.27450980 0.58431373
v 0.06420278 0.06907260 0.01701860 0.46274510 0.27450980 0.58431373
v 0.06420278 0.06629115 0.01684630 0.46274510 0.27450980 0.58431373
f 1 2 6
f 1 6 3
f 1 3 7
f 1 7 12
f 1 12 18
f 1 18 19
f 1 19 13
f 1 13 8
f 1 8 4
f 1 4 5
f 1 5 2
f 2 5 9
f 2 9 14
f 2 14 10
f 2 10 6
f 3 6 10
f 3 10 16
f 3 16 11
f 3 11 7
f 4 8 9
f 4 9 5
f 7 11 12
f 8 13 9
f 9 13 14
f 10 14 15
f 10 15 16
f 11 16 17
f 11 17 12
f 12 17 18
f 13 19 14
f 14 19 15
f 15 17 16
f 15 19 17
f 17 19 18