# https://github.com/mikedh/trimesh
v 0.03929765 0.08273889 -0.00559072 0.31764706 0.66666667 0.12941176
v 0.03929765 0.07327998 -0.00559072 0.31764706 0.66666667 0.12941176
v 0.03929765 0.08273889 -0.00730656 0.31764706 0.66666667 0.12941176
v 0.01489778 0.08273889 -0.00559072 0.31764706 0.66666667 0.12941176
v 0.03927841 0.07327998 -0.00559072 0.31764706 0.66666667 0.12941176
v 0.03929765 0.07046933 -0.00725013 0.31764706 0.66666667 0.12941176
v 0.03929765 0.07046933 -0.00730656 0.31764706 0.66666667 0.12941176
v 0.01489778 0.08273889 -0.00730656 0.31764706 0.66666667 0.12941176
v -0.00001304 0.08150894 -0.00730656 0.31764706 0.66666667 0.12941176
v -0.00001304 0.08148971 -0.00559072 0.31764706 0.66666667 0.12941176
v -0.00001304 0.07328118 -0.00559072 0.31764706 0.66666667 0.12941176
v 0.03822022 0.07046933 -0.00730656 0.31764706 0.66666667 0.12941176
v -0.00001304 0.07050656 -0.00730656 0.31764706 0.66666667 0.12941176
f 1 2 6
f 1 6 7
f 1 7 3
f 1 3 8
f 1 8 4
f 1 4 10
f 1 10 11
f 1 11 5
f 1 5 2
f 2 5 6
f 3 7 12
f 3 12 13
f 3 13 9
f 3 9 8
f 4 8 9
f 4 9 10
f 5 11 6
f 6 12 7
f 6 11 13
f 6 13 12
f 9 13 11
f 9 11 10