# https://github.com/mikedh/trimesh
v 0.03848573 0.05552006 -0.00462707 0.96078431 0.23137255 0.94901961
v 0.03854208 0.05474096 -0.00462707 0.96078431 0.23137255 0.94901961
v 0.03859939 0.05552006 -0.00195586 0.96078431 0.23137255 0.94901961
v 0.03850292 0.05599807 -0.00462707 0.96078431 0.23137255 0.94901961
v 0.03876559 0.05281183 -0.00462707 0.96078431 0.23137255 0.94901961
v 0.03866912 0.05491943 -0.00195586 0.96078431 0.23137255 0.94901961
v 0.03861659 0.05599807 -0.00195586 0.96078431 0.23137255 0.94901961
v 0.04600685 0.05599807 -0.00462707 0.96078431 0.23137255 0.94901961
v 0.03891556 0.05281183 -0.00195586 0.96078431 0.23137255 0.94901961
v 0.03887831 0.05214447 -0.00462707 0.96078431 0.23137255 0.94901961
v 0.04648349 0.05599807 -0.00195586 0.96078431 0.23137255 0.94901961
v 0.04649208 0.05599807 -0.00368341 0.96078431 0.23137255 0.94901961
v 0.04788284 0.05064214 -0.00462707 0.96078431 0.23137255 0.94901961
v 0.03908463 0.05220966 -0.00195586 0.96078431 0.23137255 0.94901961
v 0.03945142 0.05010360 -0.00462707 0.96078431 0.23137255 0.94901961
v 0.04648540 0.05599807 -0.00224296 0.96078431 0.23137255 0.94901961
v 0.04824199 0.05068870 -0.00195586 0.96078431 0.23137255 0.94901961
v 0.04824294 0.05068715 -0.00195847 0.96078431 0.23137255 0.94901961
v 0.04824294 0.04997324 -0.00403117 0.96078431 0.23137255 0.94901961
v 0.04824294 0.04992047 -0.00417603 0.96078431 0.23137255 0.94901961
v 0.04824294 0.04959300 -0.00462707 0.96078431 0.23137255 0.94901961
v 0.03968735 0.05010360 -0.00195586 0.96078431 0.23137255 0.94901961
v 0.03961953 0.04952316 -0.00462707 0.96078431 0.23137255 0.94901961
v 0.04824294 0.05008032 -0.00195586 0.96078431 0.23137255 0.94901961
v 0.04824294 0.04014447 -0.00462707 0.96078431 0.23137255 0.94901961
v 0.04040756 0.04834520 -0.00195586 0.96078431 0.23137255 0.94901961
v 0.04018309 0.04815585 -0.00462707 0.96078431 0.23137255 0.94901961
v 0.04824294 0.04046263 -0.00195586 0.96078431 0.23137255 0.94901961
v 0.04815411 0.04018017 -0.00462707 0.96078431 0.23137255 0.94901961
v 0.04101983 0.04729295 -0.00195586 0.96078431 0.23137255 0.94901961
v 0.04080491 0.04710671 -0.00462707 0.96078431 0.23137255 0.94901961
v 0.04119750 0.04699186 -0.00195586 0.96078431 0.23137255 0.94901961
v 0.04728967 0.04102290 -0.00195586 0.96078431 0.23137255 0.94901961
v 0.04698878 0.04120138 -0.00195586 0.96078431 0.23137255 0.94901961
v 0.04710245 0.04080872 -0.00462707 0.96078431 0.23137255 0.94901961
v 0.04149838 0.04656972 -0.00195586 0.96078431 0.23137255 0.94901961
v 0.04239339 0.04496030 -0.00462707 0.96078431 0.23137255 0.94901961
v 0.04255195 0.04509222 -0.00195586 0.96078431 0.23137255 0.94901961
v 0.04508892 0.04255626 -0.00195586 0.96078431 0.23137255 0.94901961
v 0.04495806 0.04239641 -0.00462707 0.96078431 0.23137255 0.94901961
v 0.04327502 0.04395306 -0.00462707 0.96078431 0.23137255 0.94901961
v 0.04347179 0.04403842 -0.00195586 0.96078431 0.23137255 0.94901961
v 0.04403630 0.04347504 -0.00195586 0.96078431 0.23137255 0.94901961
v 0.04395034 0.04327794 -0.00462707 0.96078431 0.23137255 0.94901961
v 0.04373542 0.04373888 -0.00195586 0.96078431 0.23137255 0.94901961
f 1 2 3
f 1 3 7
f 1 7 4
f 1 4 8
f 1 8 13
f 1 13 21
f 1 21 25
f 1 25 29
f 1 29 35
f 1 35 40
f 1 40 44
f 1 44 41
f 1 41 37
f 1 37 31
f 1 31 27
f 1 27 23
f 1 23 15
f 1 15 10
f 1 10 5
f 1 5 2
f 2 5 3
f 3 5 6
f 3 6 9
f 3 9 14
f 3 14 22
f 3 22 26
f 3 26 30
f 3 30 32
f 3 32 36
f 3 36 38
f 3 38 42
f 3 42 45
f 3 45 43
f 3 43 39
f 3 39 34
f 3 34 33
f 3 33 28
f 3 28 24
f 3 24 17
f 3 17 11
f 3 11 7
f 4 7 11
f 4 11 16
f 4 16 12
f 4 12 8
f 5 9 6
f 5 10 9
f 8 12 13
f 9 10 14
f 10 15 14
f 11 17 18
f 11 18 16
f 12 18 19
f 12 19 20
f 12 20 21
f 12 21 13
f 12 16 18
f 14 15 22
f 15 23 22
f 17 24 18
f 18 24 28
f 18 28 25
f 18 25 21
f 18 21 20
f 18 20 19
f 22 23 26
f 23 27 26
f 25 28 29
f 26 27 30
f 27 31 32
f 27 32 30
f 28 33 29
f 29 33 34
f 29 34 35
f 31 36 32
f 31 37 38
f 31 38 36
f 34 39 35
f 35 39 40
f 37 41 42
f 37 42 38
f 39 43 40
f 40 43 44
f 41 45 42
f 41 44 45
f 43 45 44