# https://github.com/mikedh/trimesh
v 0.04788738 -0.06089692 -0.00135384 0.21960784 0.94901961 0.44705882
v 0.04788283 -0.06089692 -0.00138906 0.21960784 0.94901961 0.44705882
v 0.04728835 -0.05244427 -0.00404457 0.21960784 0.94901961 0.44705882
v 0.04746952 -0.05244427 0.00677012 0.21960784 0.94901961 0.44705882
v 0.04783549 -0.06089692 0.00689854 0.21960784 0.94901961 0.44705882
v 0.04719914 -0.06089692 -0.00404457 0.21960784 0.94901961 0.44705882
v 0.03901672 -0.05244427 -0.00404457 0.21960784 0.94901961 0.44705882
v 0.04582356 -0.05244427 0.01553827 0.21960784 0.94901961 0.44705882
v 0.04744676 -0.06089692 0.00953127 0.21960784 0.94901961 0.44705882
v 0.03919697 -0.06089692 -0.00404457 0.21960784 0.94901961 0.44705882
v 0.03891293 -0.05281329 -0.00404457 0.21960784 0.94901961 0.44705882
v 0.03892204 -0.05281329 0.01218678 0.21960784 0.94901961 0.44705882
v 0.03902764 -0.05244427 0.01218678 0.21960784 0.94901961 0.44705882
v 0.04495871 -0.05244427 0.01656775 0.21960784 0.94901961 0.44705882
v 0.04483581 -0.06089692 0.01671896 0.21960784 0.94901961 0.44705882
v 0.04628785 -0.06089692 0.01489407 0.21960784 0.94901961 0.44705882
v 0.03868352 -0.05822941 -0.00404457 0.21960784 0.94901961 0.44705882
v 0.03919697 -0.06089692 -0.00400521 0.21960784 0.94901961 0.44705882
v 0.03858975 -0.05550562 -0.00404457 0.21960784 0.94901961 0.44705882
v 0.03859066 -0.05552134 0.01218678 0.21960784 0.94901961 0.44705882
v 0.03915782 -0.05281329 0.01489407 0.21960784 0.94901961 0.44705882
v 0.03924886 -0.05244427 0.01489407 0.21960784 0.94901961 0.44705882
v 0.03904585 -0.05244427 0.01255548 0.21960784 0.94901961 0.44705882
v 0.04484856 -0.05244427 0.01661539 0.21960784 0.94901961 0.44705882
v 0.04479302 -0.06089692 0.01672932 0.21960784 0.94901961 0.44705882
v 0.03868261 -0.05821286 -0.00404457 0.21960784 0.94901961 0.44705882
v 0.03868898 -0.05822941 0.01218678 0.21960784 0.94901961 0.44705882
v 0.03921427 -0.06089692 0.01218678 0.21960784 0.94901961 0.44705882
v 0.03858793 -0.05552134 -0.00404457 0.21960784 0.94901961 0.44705882
v 0.03896847 -0.05822941 0.01489407 0.21960784 0.94901961 0.44705882
v 0.03888562 -0.05552134 0.01489407 0.21960784 0.94901961 0.44705882
v 0.04000902 -0.05281329 0.01667960 0.21960784 0.94901961 0.44705882
v 0.03931168 -0.05244427 0.01511778 0.21960784 0.94901961 0.44705882
v 0.04471837 -0.05244427 0.01664646 0.21960784 0.94901961 0.44705882
v 0.04234868 -0.05244427 0.01708767 0.21960784 0.94901961 0.44705882
v 0.04197998 -0.05822941 0.01711459 0.21960784 0.94901961 0.44705882
v 0.04197998 -0.06089692 0.01707731 0.21960784 0.94901961 0.44705882
v 0.03940453 -0.06089692 0.01489407 0.21960784 0.94901961 0.44705882
v 0.04011007 -0.06089692 0.01664646 0.21960784 0.94901961 0.44705882
v 0.03993710 -0.05822941 0.01668167 0.21960784 0.94901961 0.44705882
v 0.03990342 -0.05552134 0.01668167 0.21960784 0.94901961 0.44705882
v 0.04004817 -0.05244427 0.01665889 0.21960784 0.94901961 0.44705882
v 0.04197998 -0.05281329 0.01711252 0.21960784 0.94901961 0.44705882
v 0.04027758 -0.05244427 0.01671896 0.21960784 0.94901961 0.44705882
v 0.04197998 -0.05244427 0.01709181 0.21960784 0.94901961 0.44705882
v 0.04197998 -0.05552134 0.01711459 0.21960784 0.94901961 0.44705882
f 1 2 3
f 1 3 4
f 1 4 5
f 1 5 9
f 1 9 16
f 1 16 15
f 1 15 25
f 1 25 37
f 1 37 39
f 1 39 38
f 1 38 28
f 1 28 18
f 1 18 10
f 1 10 6
f 1 6 2
f 2 6 3
f 3 6 10
f 3 10 17
f 3 17 26
f 3 26 29
f 3 29 19
f 3 19 11
f 3 11 7
f 3 7 13
f 3 13 23
f 3 23 22
f 3 22 33
f 3 33 42
f 3 42 44
f 3 44 45
f 3 45 35
f 3 35 34
f 3 34 24
f 3 24 14
f 3 14 8
f 3 8 4
f 4 8 9
f 4 9 5
f 7 11 12
f 7 12 13
f 8 14 15
f 8 15 16
f 8 16 9
f 10 18 17
f 11 19 20
f 11 20 12
f 12 20 21
f 12 21 22
f 12 22 23
f 12 23 13
f 14 24 15
f 15 24 25
f 17 18 27
f 17 27 26
f 18 28 27
f 19 29 20
f 20 27 30
f 20 30 31
f 20 31 21
f 20 29 26
f 20 26 27
f 21 31 32
f 21 32 33
f 21 33 22
f 24 34 25
f 25 35 36
f 25 36 37
f 25 34 35
f 27 28 38
f 27 38 30
f 30 38 39
f 30 39 40
f 30 40 31
f 31 40 41
f 31 41 32
f 32 42 33
f 32 41 43
f 32 43 44
f 32 44 42
f 35 45 43
f 35 43 46
f 35 46 36
f 36 46 41
f 36 41 40
f 36 40 37
f 37 40 39
f 41 46 43
f 43 45 44