# https://github.com/mikedh/trimesh
v 0.07050350 0.07064005 -0.00730656 0.97647059 0.60392157 0.73725490
v 0.07050350 0.08273891 -0.00730656 0.97647059 0.60392157 0.73725490
v 0.07316428 0.07064005 -0.00730656 0.97647059 0.60392157 0.73725490
v 0.07050350 0.07064005 -0.00604917 0.97647059 0.60392157 0.73725490
v 0.07316428 0.08273891 -0.00730656 0.97647059 0.60392157 0.73725490
v 0.07050350 0.08273891 0.01218542 0.97647059 0.60392157 0.73725490
v 0.07316428 0.07064005 -0.00411527 0.97647059 0.60392157 0.73725490
v 0.07316428 0.07066018 0.00947701 0.97647059 0.60392157 0.73725490
v 0.07316428 0.07066729 0.01198223 0.97647059 0.60392157 0.73725490
v 0.07316428 0.07066847 0.01218542 0.97647059 0.60392157 0.73725490
v 0.07050350 0.07354780 0.01507551 0.97647059 0.60392157 0.73725490
v 0.07316428 0.08273891 0.01218542 0.97647059 0.60392157 0.73725490
v 0.07050350 0.08264533 0.01345477 0.97647059 0.60392157 0.73725490
v 0.07316428 0.07180196 0.01483408 0.97647059 0.60392157 0.73725490
v 0.07050350 0.07493594 0.01668192 0.97647059 0.60392157 0.73725490
v 0.07316428 0.08264179 0.01350258 0.97647059 0.60392157 0.73725490
v 0.07050350 0.08253756 0.01489384 0.97647059 0.60392157 0.73725490
v 0.07316428 0.07342936 0.01596716 0.97647059 0.60392157 0.73725490
v 0.07316428 0.07463865 0.01672734 0.97647059 0.60392157 0.73725490
v 0.07050350 0.07718753 0.01711459 0.97647059 0.60392157 0.73725490
v 0.07316428 0.08253756 0.01489384 0.97647059 0.60392157 0.73725490
v 0.07050350 0.08179374 0.01668192 0.97647059 0.60392157 0.73725490
v 0.07316428 0.07718753 0.01711459 0.97647059 0.60392157 0.73725490
v 0.07050350 0.07989630 0.01711459 0.97647059 0.60392157 0.73725490
v 0.07316428 0.08179374 0.01668192 0.97647059 0.60392157 0.73725490
v 0.07316428 0.07989630 0.01711459 0.97647059 0.60392157 0.73725490
f 1 2 5
f 1 5 3
f 1 3 7
f 1 7 4
f 1 4 11
f 1 11 15
f 1 15 20
f 1 20 24
f 1 24 22
f 1 22 17
f 1 17 13
f 1 13 6
f 1 6 2
f 2 6 12
f 2 12 5
f 3 5 12
f 3 12 16
f 3 16 21
f 3 21 25
f 3 25 26
f 3 26 23
f 3 23 19
f 3 19 18
f 3 18 14
f 3 14 10
f 3 10 9
f 3 9 8
f 3 8 7
f 4 7 8
f 4 8 9
f 4 9 10
f 4 10 11
f 6 13 12
f 10 14 11
f 11 14 15
f 12 13 16
f 13 17 16
f 14 18 15
f 15 19 20
f 15 18 19
f 16 17 21
f 17 22 25
f 17 25 21
f 19 23 20
f 20 23 26
f 20 26 24
f 22 24 26
f 22 26 25