# https://github.com/mikedh/trimesh
v -0.05535348 -0.03548829 -0.00737812 0.16078431 0.61960784 0.57647059
v -0.05444675 -0.03549209 -0.00737812 0.16078431 0.61960784 0.57647059
v -0.05535348 -0.04962253 -0.00737812 0.16078431 0.61960784 0.57647059
v -0.05535348 -0.03829498 -0.00567676 0.16078431 0.61960784 0.57647059
v -0.05329678 -0.03844520 -0.00567676 0.16078431 0.61960784 0.57647059
v -0.05281229 -0.03850225 -0.00567676 0.16078431 0.61960784 0.57647059
v -0.05090542 -0.03882361 -0.00567676 0.16078431 0.61960784 0.57647059
v -0.05227525 -0.03602643 -0.00737812 0.16078431 0.61960784 0.57647059
v -0.04967178 -0.05491266 -0.00737812 0.16078431 0.61960784 0.57647059
v -0.05535348 -0.04749089 -0.00567676 0.16078431 0.61960784 0.57647059
v -0.05010375 -0.03904800 -0.00567676 0.16078431 0.61960784 0.57647059
v -0.04578605 -0.03768648 -0.00737812 0.16078431 0.61960784 0.57647059
v -0.04725706 -0.05491266 -0.00567676 0.16078431 0.61960784 0.57647059
v -0.03547727 -0.05491266 -0.00737812 0.16078431 0.61960784 0.57647059
v -0.04844593 -0.03952909 -0.00567676 0.16078431 0.61960784 0.57647059
v -0.04732517 -0.04008244 -0.00567676 0.16078431 0.61960784 0.57647059
v -0.04472365 -0.04210760 -0.00567676 0.16078431 0.61960784 0.57647059
v -0.04278759 -0.04009955 -0.00737812 0.16078431 0.61960784 0.57647059
v -0.04781356 -0.03979150 -0.00567676 0.16078431 0.61960784 0.57647059
v -0.03832201 -0.05491266 -0.00567676 0.16078431 0.61960784 0.57647059
v -0.03547921 -0.05443537 -0.00737812 0.16078431 0.61960784 0.57647059
v -0.04435784 -0.04242896 -0.00567676 0.16078431 0.61960784 0.57647059
v -0.04242956 -0.04435713 -0.00567676 0.16078431 0.61960784 0.57647059
v -0.04010046 -0.04278835 -0.00737812 0.16078431 0.61960784 0.57647059
v -0.03844264 -0.05329824 -0.00567676 0.16078431 0.61960784 0.57647059
v -0.03602987 -0.05227711 -0.00737812 0.16078431 0.61960784 0.57647059
v -0.03882207 -0.05090799 -0.00567676 0.16078431 0.61960784 0.57647059
v -0.03850102 -0.05281144 -0.00567676 0.16078431 0.61960784 0.57647059
v -0.04210851 -0.04472413 -0.00567676 0.16078431 0.61960784 0.57647059
v -0.03768962 -0.04578900 -0.00737812 0.16078431 0.61960784 0.57647059
v -0.03904778 -0.05010363 -0.00567676 0.16078431 0.61960784 0.57647059
v -0.04008489 -0.04732356 -0.00567676 0.16078431 0.61960784 0.57647059
v -0.03979108 -0.04781416 -0.00567676 0.16078431 0.61960784 0.57647059
v -0.03952839 -0.04844928 -0.00567676 0.16078431 0.61960784 0.57647059
f 1 2 8
f 1 8 12
f 1 12 18
f 1 18 24
f 1 24 30
f 1 30 26
f 1 26 21
f 1 21 14
f 1 14 9
f 1 9 3
f 1 3 10
f 1 10 4
f 1 4 2
f 2 4 5
f 2 5 6
f 2 6 7
f 2 7 8
f 3 9 10
f 4 10 13
f 4 13 20
f 4 20 25
f 4 25 28
f 4 28 27
f 4 27 31
f 4 31 34
f 4 34 33
f 4 33 32
f 4 32 29
f 4 29 23
f 4 23 22
f 4 22 17
f 4 17 16
f 4 16 19
f 4 19 15
f 4 15 11
f 4 11 7
f 4 7 6
f 4 6 5
f 7 11 12
f 7 12 8
f 9 13 10
f 9 14 20
f 9 20 13
f 11 15 12
f 12 16 17
f 12 17 18
f 12 15 19
f 12 19 16
f 14 21 20
f 17 22 18
f 18 22 23
f 18 23 24
f 20 21 25
f 21 26 27
f 21 27 28
f 21 28 25
f 23 29 24
f 24 29 30
f 26 30 27
f 27 30 31
f 29 32 30
f 30 32 33
f 30 33 34
f 30 34 31