# https://github.com/mikedh/trimesh
v 0.03859639 0.05552072 0.00135408 0.00784314 0.76862745 0.14509804
v 0.03859639 0.05552072 0.00424065 0.00784314 0.76862745 0.14509804
v 0.03862872 0.05642132 0.00135408 0.00784314 0.76862745 0.14509804
v 0.03863112 0.05642132 -0.00195586 0.00784314 0.76862745 0.14509804
v 0.03859998 0.05552072 -0.00195586 0.00784314 0.76862745 0.14509804
v 0.03866943 0.05491866 -0.00195586 0.00784314 0.76862745 0.14509804
v 0.03891609 0.05281229 -0.00195586 0.00784314 0.76862745 0.14509804
v 0.03891729 0.05281229 0.00424065 0.00784314 0.76862745 0.14509804
v 0.03862872 0.05642132 0.00424065 0.00784314 0.76862745 0.14509804
v 0.04650142 0.05642132 -0.00195586 0.00784314 0.76862745 0.14509804
v 0.03908492 0.05221023 -0.00195586 0.00784314 0.76862745 0.14509804
v 0.03968720 0.05010386 -0.00195586 0.00784314 0.76862745 0.14509804
v 0.03969199 0.05010386 0.00424065 0.00784314 0.76862745 0.14509804
v 0.04606677 0.05642132 0.00424065 0.00784314 0.76862745 0.14509804
v 0.05082750 0.04827612 -0.00135538 0.00784314 0.76862745 0.14509804
v 0.05082750 0.04812188 -0.00195586 0.00784314 0.76862745 0.14509804
v 0.04648585 0.05642132 -0.00110972 0.00784314 0.76862745 0.14509804
v 0.04040801 0.04834412 -0.00195586 0.00784314 0.76862745 0.14509804
v 0.04036371 0.04846022 0.00424065 0.00784314 0.76862745 0.14509804
v 0.05082750 0.04729259 0.00424065 0.00784314 0.76862745 0.14509804
v 0.05082750 0.04750489 0.00331809 0.00784314 0.76862745 0.14509804
v 0.05082750 0.03947911 -0.00195586 0.00784314 0.76862745 0.14509804
v 0.04046309 0.04825622 0.00424065 0.00784314 0.76862745 0.14509804
v 0.04041160 0.04834578 0.00424065 0.00784314 0.76862745 0.14509804
v 0.04101986 0.04729259 -0.00195586 0.00784314 0.76862745 0.14509804
v 0.04119827 0.04699239 0.00424065 0.00784314 0.76862745 0.14509804
v 0.05082750 0.03948574 0.00424065 0.00784314 0.76862745 0.14509804
v 0.05028150 0.03964165 0.00424065 0.00784314 0.76862745 0.14509804
v 0.05010429 0.03968643 -0.00195586 0.00784314 0.76862745 0.14509804
v 0.04119827 0.04699239 -0.00195586 0.00784314 0.76862745 0.14509804
v 0.04255249 0.04509168 0.00424065 0.00784314 0.76862745 0.14509804
v 0.05010429 0.03969306 0.00424065 0.00784314 0.76862745 0.14509804
v 0.04845911 0.04035980 0.00424065 0.00784314 0.76862745 0.14509804
v 0.04834297 0.04040459 -0.00195586 0.00784314 0.76862745 0.14509804
v 0.04255249 0.04509168 -0.00195586 0.00784314 0.76862745 0.14509804
v 0.04347327 0.04403849 -0.00195586 0.00784314 0.76862745 0.14509804
v 0.04373669 0.04373829 0.00424065 0.00784314 0.76862745 0.14509804
v 0.04834297 0.04040790 0.00424065 0.00784314 0.76862745 0.14509804
v 0.04825436 0.04045932 0.00424065 0.00784314 0.76862745 0.14509804
v 0.04698874 0.04120236 0.00424065 0.00784314 0.76862745 0.14509804
v 0.04728928 0.04102323 -0.00195586 0.00784314 0.76862745 0.14509804
v 0.04373669 0.04373829 -0.00195586 0.00784314 0.76862745 0.14509804
v 0.04403723 0.04347458 -0.00195586 0.00784314 0.76862745 0.14509804
v 0.04499992 0.04263369 0.00424065 0.00784314 0.76862745 0.14509804
v 0.04508852 0.04255574 -0.00195586 0.00784314 0.76862745 0.14509804
v 0.04698874 0.04120236 -0.00195586 0.00784314 0.76862745 0.14509804
v 0.04508852 0.04255740 0.00424065 0.00784314 0.76862745 0.14509804
f 1 2 9
f 1 9 3
f 1 3 4
f 1 4 5
f 1 5 6
f 1 6 7
f 1 7 2
f 2 7 8
f 2 8 13
f 2 13 19
f 2 19 24
f 2 24 23
f 2 23 26
f 2 26 31
f 2 31 37
f 2 37 44
f 2 44 47
f 2 47 40
f 2 40 39
f 2 39 38
f 2 38 33
f 2 33 32
f 2 32 28
f 2 28 27
f 2 27 20
f 2 20 14
f 2 14 9
f 3 9 14
f 3 14 17
f 3 17 10
f 3 10 4
f 4 10 16
f 4 16 22
f 4 22 29
f 4 29 34
f 4 34 41
f 4 41 46
f 4 46 45
f 4 45 43
f 4 43 42
f 4 42 36
f 4 36 35
f 4 35 30
f 4 30 25
f 4 25 18
f 4 18 12
f 4 12 11
f 4 11 7
f 4 7 6
f 4 6 5
f 7 11 8
f 8 11 12
f 8 12 13
f 10 15 16
f 10 17 15
f 12 18 19
f 12 19 13
f 14 15 17
f 14 20 21
f 14 21 15
f 15 21 20
f 15 20 27
f 15 27 22
f 15 22 16
f 18 23 24
f 18 24 19
f 18 25 26
f 18 26 23
f 22 27 28
f 22 28 29
f 25 30 26
f 26 30 35
f 26 35 31
f 28 32 29
f 29 32 33
f 29 33 34
f 31 35 36
f 31 36 37
f 33 38 34
f 34 38 39
f 34 39 40
f 34 40 41
f 36 42 37
f 37 42 43
f 37 43 44
f 40 45 46
f 40 46 41
f 40 47 45
f 43 45 44
f 44 45 47