# https://github.com/mikedh/trimesh
v 0.06647829 -0.05614531 -0.00404457 0.56470588 0.26274510 0.52156863
v 0.06378060 -0.04981465 -0.00404457 0.56470588 0.26274510 0.52156863
v 0.07296409 -0.05614531 -0.00404457 0.56470588 0.26274510 0.52156863
v 0.06591556 -0.05614531 0.00135540 0.56470588 0.26274510 0.52156863
v 0.06378060 -0.04025798 -0.00404457 0.56470588 0.26274510 0.52156863
v 0.06378060 -0.05037616 0.00380993 0.56470588 0.26274510 0.52156863
v 0.07296409 -0.04321333 -0.00404457 0.56470588 0.26274510 0.52156863
v 0.07296409 -0.05614531 0.01701054 0.56470588 0.26274510 0.52156863
v 0.06602973 -0.05614531 0.00343709 0.56470588 0.26274510 0.52156863
v 0.06378060 -0.05037616 0.00397771 0.56470588 0.26274510 0.52156863
v 0.06378060 -0.04025643 -0.00337345 0.56470588 0.26274510 0.52156863
v 0.07296409 -0.04317289 0.01475486 0.56470588 0.26274510 0.52156863
v 0.07296409 -0.05552003 0.01701883 0.56470588 0.26274510 0.52156863
v 0.06906272 -0.05010396 0.01711411 0.56470588 0.26274510 0.52156863
v 0.07177121 -0.05614531 0.01701054 0.56470588 0.26274510 0.52156863
v 0.06718215 -0.05614531 0.01489571 0.56470588 0.26274510 0.52156863
v 0.06378060 -0.04835564 0.01489571 0.56470588 0.26274510 0.52156863
v 0.06378060 -0.04026887 0.01218641 0.56470588 0.26274510 0.52156863
v 0.06378060 -0.04039175 0.01489571 0.56470588 0.26274510 0.52156863
v 0.06378060 -0.04185543 0.01673713 0.56470588 0.26274510 0.52156863
v 0.06635514 -0.04272959 0.01655071 0.56470588 0.26274510 0.52156863
v 0.06785546 -0.04320400 0.01636429 0.56470588 0.26274510 0.52156863
v 0.07296409 -0.04607535 0.01581124 0.56470588 0.26274510 0.52156863
v 0.07296409 -0.05432700 0.01696704 0.56470588 0.26274510 0.52156863
v 0.06378060 -0.04468790 0.01705818 0.56470588 0.26274510 0.52156863
v 0.07114555 -0.05614531 0.01700226 0.56470588 0.26274510 0.52156863
v 0.07296409 -0.05281199 0.01689869 0.56470588 0.26274510 0.52156863
v 0.06906272 -0.04739748 0.01693390 0.56470588 0.26274510 0.52156863
v 0.06635514 -0.04468790 0.01698361 0.56470588 0.26274510 0.52156863
v 0.06740779 -0.05614531 0.01609916 0.56470588 0.26274510 0.52156863
v 0.06749588 -0.05614531 0.01647199 0.56470588 0.26274510 0.52156863
v 0.06378060 -0.04727460 0.01663149 0.56470588 0.26274510 0.52156863
v 0.06887934 -0.04491965 0.01652171 0.56470588 0.26274510 0.52156863
v 0.07296409 -0.05019418 0.01664184 0.56470588 0.26274510 0.52156863
v 0.06378060 -0.04679397 0.01671434 0.56470588 0.26274510 0.52156863
v 0.06868787 -0.05614531 0.01680548 0.56470588 0.26274510 0.52156863
v 0.06906272 -0.05614531 0.01690490 0.56470588 0.26274510 0.52156863
f 1 2 5
f 1 5 7
f 1 7 3
f 1 3 8
f 1 8 15
f 1 15 26
f 1 26 37
f 1 37 36
f 1 36 31
f 1 31 30
f 1 30 16
f 1 16 9
f 1 9 4
f 1 4 2
f 2 4 6
f 2 6 10
f 2 10 17
f 2 17 32
f 2 32 35
f 2 35 25
f 2 25 20
f 2 20 19
f 2 19 18
f 2 18 11
f 2 11 5
f 3 7 12
f 3 12 23
f 3 23 34
f 3 34 27
f 3 27 24
f 3 24 13
f 3 13 8
f 4 9 10
f 4 10 6
f 5 11 7
f 7 11 12
f 8 13 14
f 8 14 15
f 9 16 17
f 9 17 10
f 11 18 12
f 12 18 19
f 12 19 20
f 12 20 21
f 12 21 22
f 12 22 23
f 13 24 14
f 14 25 26
f 14 26 15
f 14 24 27
f 14 27 28
f 14 28 29
f 14 29 25
f 16 30 17
f 17 30 31
f 17 31 32
f 20 25 29
f 20 29 21
f 21 29 22
f 22 29 33
f 22 33 23
f 23 33 34
f 25 35 31
f 25 31 36
f 25 36 37
f 25 37 26
f 27 34 28
f 28 34 33
f 28 33 29
f 31 35 32