# https://github.com/mikedh/trimesh
v -0.06026346 0.06523269 0.00677226 0.13333333 0.81960784 0.18823529
v -0.06350620 0.06251974 0.00677226 0.13333333 0.81960784 0.18823529
v -0.06026449 0.06523269 0.00414265 0.13333333 0.81960784 0.18823529
v -0.06275254 0.06523269 0.01489450 0.13333333 0.81960784 0.18823529
v -0.06539712 0.06251974 0.01489450 0.13333333 0.81960784 0.18823529
v -0.06395509 0.06251974 0.00418553 0.13333333 0.81960784 0.18823529
v -0.06027486 0.06523269 0.00406326 0.13333333 0.81960784 0.18823529
v -0.06284273 0.06523269 0.01507393 0.13333333 0.81960784 0.18823529
v -0.06546036 0.06251974 0.01502471 0.13333333 0.81960784 0.18823529
v -0.06503635 0.06251974 0.00088105 0.13333333 0.81960784 0.18823529
v -0.06208491 0.06523269 0.00088105 0.13333333 0.81960784 0.18823529
v -0.06346163 0.06389335 0.00088105 0.13333333 0.81960784 0.18823529
v -0.06441538 0.06441230 0.01653482 0.13333333 0.81960784 0.18823529
v -0.06404010 0.06523269 0.01663804 0.13333333 0.81960784 0.18823529
v -0.06659034 0.06251974 0.01671585 0.13333333 0.81960784 0.18823529
v -0.07085319 0.06251974 0.00088105 0.13333333 0.81960784 0.18823529
v -0.07085319 0.06523269 0.00088105 0.13333333 0.81960784 0.18823529
v -0.06460509 0.06523269 0.01676666 0.13333333 0.81960784 0.18823529
v -0.06738133 0.06251974 0.01688893 0.13333333 0.81960784 0.18823529
v -0.07085319 0.06251974 0.01682065 0.13333333 0.81960784 0.18823529
v -0.07085319 0.06523269 0.01656499 0.13333333 0.81960784 0.18823529
v -0.06632081 0.06523269 0.01697309 0.13333333 0.81960784 0.18823529
v -0.06906283 0.06251974 0.01708266 0.13333333 0.81960784 0.18823529
v -0.07031826 0.06251974 0.01691910 0.13333333 0.81960784 0.18823529
v -0.07085319 0.06364635 0.01676031 0.13333333 0.81960784 0.18823529
v -0.07085319 0.06431589 0.01667932 0.13333333 0.81960784 0.18823529
v -0.06984346 0.06523269 0.01675396 0.13333333 0.81960784 0.18823529
v -0.06747567 0.06523269 0.01710330 0.13333333 0.81960784 0.18823529
v -0.06906283 0.06364635 0.01708901 0.13333333 0.81960784 0.18823529
v -0.06909186 0.06523269 0.01689211 0.13333333 0.81960784 0.18823529
f 1 2 3
f 1 3 7
f 1 7 11
f 1 11 17
f 1 17 21
f 1 21 27
f 1 27 30
f 1 30 28
f 1 28 22
f 1 22 18
f 1 18 14
f 1 14 8
f 1 8 4
f 1 4 5
f 1 5 2
f 2 6 7
f 2 7 3
f 2 5 9
f 2 9 15
f 2 15 19
f 2 19 23
f 2 23 24
f 2 24 20
f 2 20 16
f 2 16 10
f 2 10 6
f 4 8 9
f 4 9 5
f 6 10 7
f 7 10 12
f 7 12 11
f 8 13 9
f 8 14 13
f 9 13 15
f 10 16 17
f 10 17 11
f 10 11 12
f 13 14 15
f 14 18 15
f 15 18 19
f 16 20 25
f 16 25 26
f 16 26 21
f 16 21 17
f 18 22 19
f 19 22 23
f 20 24 25
f 21 26 27
f 22 28 23
f 23 28 29
f 23 29 24
f 24 29 25
f 25 29 30
f 25 30 26
f 26 30 27
f 28 30 29