# https://github.com/mikedh/trimesh
v 0.04985437 -0.05588950 -0.00775669 0.82745098 0.62745098 0.87058824
v 0.05599258 -0.06620612 -0.00575335 0.82745098 0.62745098 0.87058824
v 0.05599258 -0.06339692 -0.00775669 0.82745098 0.62745098 0.87058824
v 0.03423621 -0.05588950 -0.00775669 0.82745098 0.62745098 0.87058824
v 0.04606537 -0.05588950 -0.00575335 0.82745098 0.62745098 0.87058824
v 0.05599258 -0.06931898 -0.00575335 0.82745098 0.62745098 0.87058824
v 0.05599258 -0.06931898 -0.00775669 0.82745098 0.62745098 0.87058824
v 0.03423834 -0.05784819 -0.00775669 0.82745098 0.62745098 0.87058824
v 0.03827014 -0.05588950 -0.00575335 0.82745098 0.62745098 0.87058824
v 0.04329232 -0.06931898 -0.00575335 0.82745098 0.62745098 0.87058824
v 0.03679203 -0.06931898 -0.00775669 0.82745098 0.62745098 0.87058824
v 0.03428520 -0.06051016 -0.00775669 0.82745098 0.62745098 0.87058824
v 0.03831699 -0.05803485 -0.00575335 0.82745098 0.62745098 0.87058824
v 0.04286421 -0.06908630 -0.00575335 0.82745098 0.62745098 0.87058824
v 0.04244038 -0.06861832 -0.00575335 0.82745098 0.62745098 0.87058824
v 0.04201228 -0.06803729 -0.00575335 0.82745098 0.62745098 0.87058824
v 0.03968010 -0.06406602 -0.00575335 0.82745098 0.62745098 0.87058824
v 0.03951823 -0.06372687 -0.00575335 0.82745098 0.62745098 0.87058824
v 0.03929459 -0.06310246 -0.00575335 0.82745098 0.62745098 0.87058824
v 0.03457273 -0.06292762 -0.00775669 0.82745098 0.62745098 0.87058824
v 0.03857897 -0.06039579 -0.00575335 0.82745098 0.62745098 0.87058824
v 0.03832338 -0.05823072 -0.00575335 0.82745098 0.62745098 0.87058824
v 0.03868333 -0.06093870 -0.00575335 0.82745098 0.62745098 0.87058824
f 1 2 3
f 1 3 7
f 1 7 11
f 1 11 20
f 1 20 12
f 1 12 8
f 1 8 4
f 1 4 9
f 1 9 5
f 1 5 2
f 2 6 7
f 2 7 3
f 2 5 9
f 2 9 13
f 2 13 22
f 2 22 21
f 2 21 23
f 2 23 19
f 2 19 18
f 2 18 17
f 2 17 16
f 2 16 15
f 2 15 14
f 2 14 10
f 2 10 6
f 4 8 9
f 6 10 11
f 6 11 7
f 8 12 9
f 9 12 13
f 10 14 11
f 11 14 15
f 11 15 16
f 11 16 17
f 11 17 18
f 11 18 19
f 11 19 20
f 12 20 21
f 12 21 22
f 12 22 13
f 19 23 20
f 20 23 21