# https://github.com/mikedh/trimesh
v -0.06691273 0.05442449 -0.00786035 0.01568627 0.29803922 0.65882353
v -0.06106524 0.05442449 -0.00786035 0.01568627 0.29803922 0.65882353
v -0.06691273 0.05442449 -0.00567681 0.01568627 0.29803922 0.65882353
v -0.06691273 0.06905971 -0.00786035 0.01568627 0.29803922 0.65882353
v -0.06580786 0.05442449 -0.00567681 0.01568627 0.29803922 0.65882353
v -0.05556975 0.06097137 -0.00786035 0.01568627 0.29803922 0.65882353
v -0.05556975 0.06533644 -0.00567724 0.01568627 0.29803922 0.65882353
v -0.06691273 0.06905971 -0.00567681 0.01568627 0.29803922 0.65882353
v -0.05556975 0.06905971 -0.00786035 0.01568627 0.29803922 0.65882353
v -0.05556975 0.06611003 -0.00567681 0.01568627 0.29803922 0.65882353
v -0.05556975 0.06905971 -0.00567681 0.01568627 0.29803922 0.65882353
f 1 2 5
f 1 5 3
f 1 3 8
f 1 8 4
f 1 4 9
f 1 9 6
f 1 6 2
f 2 6 7
f 2 7 5
f 3 5 10
f 3 10 11
f 3 11 8
f 4 8 11
f 4 11 9
f 5 7 10
f 6 9 11
f 6 11 10
f 6 10 7