# https://github.com/mikedh/trimesh
v -0.06395290 -0.05555395 -0.00737812 0.09803922 0.01568627 0.92941176
v -0.06592084 -0.05555395 -0.00567676 0.09803922 0.01568627 0.92941176
v -0.06098090 -0.06284647 -0.00737812 0.09803922 0.01568627 0.92941176
v -0.07031353 -0.05555395 -0.00737812 0.09803922 0.01568627 0.92941176
v -0.06447002 -0.06284647 -0.00567676 0.09803922 0.01568627 0.92941176
v -0.07031353 -0.05555395 -0.00567676 0.09803922 0.01568627 0.92941176
v -0.07031353 -0.06284647 -0.00737812 0.09803922 0.01568627 0.92941176
v -0.07031353 -0.06284647 -0.00567676 0.09803922 0.01568627 0.92941176
f 1 2 3
f 1 3 7
f 1 7 4
f 1 4 6
f 1 6 2
f 2 5 3
f 2 6 8
f 2 8 5
f 3 5 8
f 3 8 7
f 4 7 8
f 4 8 6