# https://github.com/mikedh/trimesh
v -0.03828168 0.05552066 -0.00567660 0.72156863 0.49803922 0.95294118
v -0.03849826 0.05281238 -0.00567660 0.72156863 0.49803922 0.95294118
v -0.03830345 0.05650808 -0.00567660 0.72156863 0.49803922 0.95294118
v -0.03859681 0.05552066 0.01218647 0.72156863 0.49803922 0.95294118
v -0.03904488 0.05010484 -0.00567660 0.72156863 0.49803922 0.95294118
v -0.03891768 0.05281238 0.01218647 0.72156863 0.49803922 0.95294118
v -0.04709984 0.05650808 -0.00567660 0.72156863 0.49803922 0.95294118
v -0.03863119 0.05650808 0.01218647 0.72156863 0.49803922 0.95294118
v -0.03892227 0.05650808 0.01489482 0.72156863 0.49803922 0.95294118
v -0.03889247 0.05552066 0.01489482 0.72156863 0.49803922 0.95294118
v -0.03915260 0.05281238 0.01489482 0.72156863 0.49803922 0.95294118
v -0.03942420 0.04903105 -0.00567660 0.72156863 0.49803922 0.95294118
v -0.03969235 0.05010484 0.01218647 0.72156863 0.49803922 0.95294118
v -0.03982299 0.05010484 0.01489482 0.72156863 0.49803922 0.95294118
v -0.04943760 0.04903105 -0.00567660 0.72156863 0.49803922 0.95294118
v -0.04998766 0.04903105 0.00135530 0.72156863 0.49803922 0.95294118
v -0.04650852 0.05650808 0.00378032 0.72156863 0.49803922 0.95294118
v -0.03991925 0.05650808 0.01668179 0.72156863 0.49803922 0.95294118
v -0.03990779 0.05552066 0.01668179 0.72156863 0.49803922 0.95294118
v -0.04000634 0.05281238 0.01667956 0.72156863 0.49803922 0.95294118
v -0.04029054 0.05010484 0.01653232 0.72156863 0.49803922 0.95294118
v -0.04046587 0.04903105 0.01639623 0.72156863 0.49803922 0.95294118
v -0.04032836 0.04903105 0.01591658 0.72156863 0.49803922 0.95294118
v -0.04017824 0.04903105 0.01391767 0.72156863 0.49803922 0.95294118
v -0.04022637 0.04903105 0.01489482 0.72156863 0.49803922 0.95294118
v -0.04793754 0.04903105 0.01489482 0.72156863 0.49803922 0.95294118
v -0.04512993 0.05650808 0.01489482 0.72156863 0.49803922 0.95294118
v -0.04197969 0.05650808 0.01711459 0.72156863 0.49803922 0.95294118
v -0.04197969 0.05552066 0.01711459 0.72156863 0.49803922 0.95294118
v -0.04197969 0.05281238 0.01711236 0.72156863 0.49803922 0.95294118
v -0.04197969 0.05010484 0.01696289 0.72156863 0.49803922 0.95294118
v -0.04199115 0.04903105 0.01682903 0.72156863 0.49803922 0.95294118
v -0.04101708 0.04903105 0.01657917 0.72156863 0.49803922 0.95294118
v -0.04769115 0.04903105 0.01549271 0.72156863 0.49803922 0.95294118
v -0.04408711 0.05650808 0.01668179 0.72156863 0.49803922 0.95294118
v -0.04582324 0.04903105 0.01686696 0.72156863 0.49803922 0.95294118
v -0.04468759 0.04903105 0.01700305 0.72156863 0.49803922 0.95294118
v -0.04305460 0.04903105 0.01702089 0.72156863 0.49803922 0.95294118
v -0.04690273 0.04903105 0.01661040 0.72156863 0.49803922 0.95294118
f 1 2 5
f 1 5 12
f 1 12 15
f 1 15 7
f 1 7 3
f 1 3 4
f 1 4 2
f 2 4 6
f 2 6 5
f 3 7 17
f 3 17 27
f 3 27 35
f 3 35 28
f 3 28 18
f 3 18 9
f 3 9 8
f 3 8 4
f 4 8 9
f 4 9 10
f 4 10 11
f 4 11 6
f 5 6 13
f 5 13 12
f 6 11 14
f 6 14 13
f 7 15 16
f 7 16 17
f 9 18 10
f 10 18 19
f 10 19 20
f 10 20 11
f 11 20 21
f 11 21 22
f 11 22 23
f 11 23 14
f 12 13 24
f 12 24 25
f 12 25 23
f 12 23 22
f 12 22 33
f 12 33 32
f 12 32 38
f 12 38 37
f 12 37 36
f 12 36 39
f 12 39 34
f 12 34 26
f 12 26 16
f 12 16 15
f 13 14 24
f 14 25 24
f 14 23 25
f 16 26 27
f 16 27 17
f 18 28 19
f 19 28 29
f 19 29 30
f 19 30 20
f 20 30 31
f 20 31 21
f 21 31 32
f 21 32 33
f 21 33 22
f 26 34 27
f 27 34 35
f 28 36 37
f 28 37 29
f 28 35 36
f 29 37 30
f 30 37 38
f 30 38 31
f 31 38 32
f 34 39 35
f 35 39 36