# https://github.com/mikedh/trimesh
v -0.05445548 -0.07077862 0.01701757 0.21176471 0.51764706 0.02352941
v -0.05453003 -0.07077862 0.01702202 0.21176471 0.51764706 0.02352941
v -0.05445548 -0.07312317 0.01697091 0.21176471 0.51764706 0.02352941
v -0.05445548 -0.07077862 -0.00567660 0.21176471 0.51764706 0.02352941
v -0.05823023 -0.07077862 0.01697091 0.21176471 0.51764706 0.02352941
v -0.05823023 -0.07177143 0.01698425 0.21176471 0.51764706 0.02352941
v -0.05552202 -0.07177143 0.01701979 0.21176471 0.51764706 0.02352941
v -0.05552202 -0.07312317 0.01701979 0.21176471 0.51764706 0.02352941
v -0.05445548 -0.07312317 -0.00567660 0.21176471 0.51764706 0.02352941
v -0.06791741 -0.07077862 -0.00567660 0.21176471 0.51764706 0.02352941
v -0.06364513 -0.07077862 0.01677761 0.21176471 0.51764706 0.02352941
v -0.05823023 -0.07312317 0.01698425 0.21176471 0.51764706 0.02352941
v -0.06999725 -0.07312317 -0.00567660 0.21176471 0.51764706 0.02352941
v -0.06920153 -0.07166563 -0.00567660 0.21176471 0.51764706 0.02352941
v -0.06762072 -0.07077862 0.01218723 0.21176471 0.51764706 0.02352941
v -0.06106625 -0.07312317 0.01669540 0.21176471 0.51764706 0.02352941
v -0.06528832 -0.07077862 0.01657542 0.21176471 0.51764706 0.02352941
v -0.06999725 -0.07272981 -0.00567660 0.21176471 0.51764706 0.02352941
v -0.06999725 -0.07312317 0.01245830 0.21176471 0.51764706 0.02352941
v -0.06999725 -0.07302541 0.01218723 0.21176471 0.51764706 0.02352941
v -0.06694215 -0.07077862 0.01504455 0.21176471 0.51764706 0.02352941
v -0.06561238 -0.07077862 0.01653543 0.21176471 0.51764706 0.02352941
v -0.06550588 -0.07100537 0.01650654 0.21176471 0.51764706 0.02352941
v -0.06484405 -0.07312317 0.01610661 0.21176471 0.51764706 0.02352941
v -0.06997291 -0.07312317 0.01252273 0.21176471 0.51764706 0.02352941
v -0.06898700 -0.07312317 0.01478682 0.21176471 0.51764706 0.02352941
v -0.06647810 -0.07077862 0.01576222 0.21176471 0.51764706 0.02352941
v -0.06864162 -0.07312317 0.01510454 0.21176471 0.51764706 0.02352941
v -0.06639442 -0.07312317 0.01586442 0.21176471 0.51764706 0.02352941
f 1 2 3
f 1 3 9
f 1 9 4
f 1 4 10
f 1 10 15
f 1 15 21
f 1 21 27
f 1 27 22
f 1 22 17
f 1 17 11
f 1 11 5
f 1 5 2
f 2 5 6
f 2 6 7
f 2 7 8
f 2 8 3
f 3 8 12
f 3 12 16
f 3 16 24
f 3 24 29
f 3 29 28
f 3 28 26
f 3 26 25
f 3 25 19
f 3 19 13
f 3 13 9
f 4 9 13
f 4 13 18
f 4 18 14
f 4 14 10
f 5 11 6
f 6 12 8
f 6 8 7
f 6 11 12
f 10 14 15
f 11 16 12
f 11 17 16
f 13 19 20
f 13 20 18
f 14 18 20
f 14 20 15
f 15 20 21
f 16 17 22
f 16 22 23
f 16 23 24
f 19 25 21
f 19 21 20
f 21 25 26
f 21 26 27
f 22 27 28
f 22 28 29
f 22 29 23
f 23 29 24
f 26 28 27