# https://github.com/mikedh/trimesh
v 0.05806352 0.03868798 0.00406232 0.48627451 0.35294118 0.93725490
v 0.05806352 0.03868798 0.00424065 0.48627451 0.35294118 0.93725490
v 0.05806352 0.03868972 -0.00195586 0.48627451 0.35294118 0.93725490
v 0.05823035 0.03869493 0.00406232 0.48627451 0.35294118 0.93725490
v 0.05823035 0.03869493 0.00424065 0.48627451 0.35294118 0.93725490
v 0.05806352 0.04581253 0.00424065 0.48627451 0.35294118 0.93725490
v 0.05823035 0.03869666 -0.00195586 0.48627451 0.35294118 0.93725490
v 0.05806352 0.04619619 -0.00195586 0.48627451 0.35294118 0.93725490
v 0.06093850 0.03921746 -0.00195586 0.48627451 0.35294118 0.93725490
v 0.06093850 0.03922093 0.00424065 0.48627451 0.35294118 0.93725490
v 0.06615998 0.05642298 0.00424065 0.48627451 0.35294118 0.93725490
v 0.06610884 0.05642298 0.00406232 0.48627451 0.35294118 0.93725490
v 0.05806352 0.04661804 0.00154514 0.48627451 0.35294118 0.93725490
v 0.05806352 0.04621008 -0.00192735 0.48627451 0.35294118 0.93725490
v 0.06662149 0.05642298 -0.00195586 0.48627451 0.35294118 0.93725490
v 0.06287098 0.03991013 -0.00195586 0.48627451 0.35294118 0.93725490
v 0.06342260 0.04011150 0.00424065 0.48627451 0.35294118 0.93725490
v 0.07050228 0.05642298 0.00424065 0.48627451 0.35294118 0.93725490
v 0.06591888 0.05642298 0.00225541 0.48627451 0.35294118 0.93725490
v 0.06590670 0.05642298 0.00135408 0.48627451 0.35294118 0.93725490
v 0.05806352 0.04661804 0.00151906 0.48627451 0.35294118 0.93725490
v 0.05806352 0.04657290 -0.00115461 0.48627451 0.35294118 0.93725490
v 0.07050228 0.05642298 -0.00195586 0.48627451 0.35294118 0.93725490
v 0.06342260 0.04010803 -0.00195586 0.48627451 0.35294118 0.93725490
v 0.06468657 0.04069654 0.00424065 0.48627451 0.35294118 0.93725490
v 0.07050228 0.04426923 0.00424065 0.48627451 0.35294118 0.93725490
v 0.05806352 0.04657637 -0.00099630 0.48627451 0.35294118 0.93725490
v 0.07050228 0.04426576 -0.00195586 0.48627451 0.35294118 0.93725490
v 0.06477546 0.04073993 -0.00195586 0.48627451 0.35294118 0.93725490
v 0.06477546 0.04073820 0.00406232 0.48627451 0.35294118 0.93725490
v 0.06477546 0.04073820 0.00424065 0.48627451 0.35294118 0.93725490
f 1 2 6
f 1 6 13
f 1 13 21
f 1 21 27
f 1 27 22
f 1 22 14
f 1 14 8
f 1 8 3
f 1 3 7
f 1 7 4
f 1 4 5
f 1 5 2
f 2 5 10
f 2 10 17
f 2 17 25
f 2 25 31
f 2 31 26
f 2 26 18
f 2 18 11
f 2 11 6
f 3 8 15
f 3 15 23
f 3 23 28
f 3 28 29
f 3 29 24
f 3 24 16
f 3 16 9
f 3 9 7
f 4 7 9
f 4 9 5
f 5 9 10
f 6 11 12
f 6 12 13
f 8 14 15
f 9 16 10
f 10 16 17
f 11 18 23
f 11 23 15
f 11 15 20
f 11 20 19
f 11 19 12
f 12 19 13
f 13 19 20
f 13 20 21
f 14 22 15
f 15 22 20
f 16 24 17
f 17 24 25
f 18 26 28
f 18 28 23
f 20 22 27
f 20 27 21
f 24 29 25
f 25 29 30
f 25 30 31
f 26 31 28
f 28 31 30
f 28 30 29