# https://github.com/mikedh/trimesh
v -0.08273825 0.01489915 -0.00786035 0.31372549 0.36078431 0.56862745
v -0.08152829 0.00001328 -0.00786035 0.31372549 0.36078431 0.56862745
v -0.08273825 0.01489915 -0.00567681 0.31372549 0.36078431 0.56862745
v -0.08273825 0.03647830 -0.00786035 0.31372549 0.36078431 0.56862745
v -0.06908509 0.00001328 -0.00786035 0.31372549 0.36078431 0.56862745
v -0.08148952 0.00001328 -0.00567681 0.31372549 0.36078431 0.56862745
v -0.08273825 0.03647830 -0.00567681 0.31372549 0.36078431 0.56862745
v -0.06908108 0.03647830 -0.00786035 0.31372549 0.36078431 0.56862745
v -0.07318024 0.00001328 -0.00567681 0.31372549 0.36078431 0.56862745
v -0.07318024 0.03647830 -0.00567681 0.31372549 0.36078431 0.56862745
f 1 2 3
f 1 3 7
f 1 7 4
f 1 4 8
f 1 8 5
f 1 5 2
f 2 5 9
f 2 9 6
f 2 6 3
f 3 6 9
f 3 9 10
f 3 10 7
f 4 7 10
f 4 10 8
f 5 8 9
f 8 10 9