# https://github.com/mikedh/trimesh
v 0.03930070 0.07046949 -0.00730624 0.05098039 0.19607843 0.01568627
v 0.03930070 0.07046949 -0.00725012 0.05098039 0.19607843 0.01568627
v 0.03930070 0.07217028 -0.00730624 0.05098039 0.19607843 0.01568627
v 0.07050350 0.07046949 -0.00730624 0.05098039 0.19607843 0.01568627
v 0.03930070 0.07217028 -0.00648865 0.05098039 0.19607843 0.01568627
v 0.04425221 0.07046949 -0.00406266 0.05098039 0.19607843 0.01568627
v 0.04425221 0.07047565 -0.00404895 0.05098039 0.19607843 0.01568627
v 0.07050350 0.07217028 -0.00730624 0.05098039 0.19607843 0.01568627
v 0.07050350 0.07046949 -0.00605275 0.05098039 0.19607843 0.01568627
v 0.04389177 0.07217028 -0.00404895 0.05098039 0.19607843 0.01568627
v 0.04661037 0.07046949 -0.00404895 0.05098039 0.19607843 0.01568627
v 0.07050350 0.07217028 -0.00585026 0.05098039 0.19607843 0.01568627
v 0.06908005 0.07216928 -0.00404895 0.05098039 0.19607843 0.01568627
v 0.06748555 0.07046949 -0.00404895 0.05098039 0.19607843 0.01568627
v 0.06738474 0.07217028 -0.00404895 0.05098039 0.19607843 0.01568627
v 0.06908005 0.07217028 -0.00406266 0.05098039 0.19607843 0.01568627
f 1 2 5
f 1 5 3
f 1 3 8
f 1 8 4
f 1 4 9
f 1 9 14
f 1 14 11
f 1 11 6
f 1 6 2
f 2 6 7
f 2 7 5
f 3 5 10
f 3 10 15
f 3 15 16
f 3 16 12
f 3 12 8
f 4 8 12
f 4 12 9
f 5 7 10
f 6 11 7
f 7 11 14
f 7 14 13
f 7 13 15
f 7 15 10
f 9 12 13
f 9 13 14
f 12 16 13
f 13 16 15