# https://github.com/mikedh/trimesh
v 0.04388979 0.07217028 -0.00404895 0.72941176 0.16862745 0.51764706
v 0.04425228 0.07047565 -0.00404895 0.72941176 0.16862745 0.51764706
v 0.04426215 0.07046949 0.01218564 0.72941176 0.16862745 0.51764706
v 0.04390705 0.07217028 0.01218564 0.72941176 0.16862745 0.51764706
v 0.06738525 0.07217028 -0.00404895 0.72941176 0.16862745 0.51764706
v 0.04425722 0.07046949 -0.00281346 0.72941176 0.16862745 0.51764706
v 0.04660972 0.07046949 -0.00404895 0.72941176 0.16862745 0.51764706
v 0.04467149 0.07046949 0.01488143 0.72941176 0.16862745 0.51764706
v 0.04452847 0.07217028 0.01455554 0.72941176 0.16862745 0.51764706
v 0.06908181 0.07217028 -0.00170998 0.72941176 0.16862745 0.51764706
v 0.06907934 0.07216928 -0.00404895 0.72941176 0.16862745 0.51764706
v 0.06748635 0.07046949 -0.00404895 0.72941176 0.16862745 0.51764706
v 0.04588966 0.07046949 0.01631492 0.72941176 0.16862745 0.51764706
v 0.04491562 0.07217028 0.01498868 0.72941176 0.16862745 0.51764706
v 0.06908181 0.07217028 0.00947747 0.72941176 0.16862745 0.51764706
v 0.06748635 0.07046949 0.00947747 0.72941176 0.16862745 0.51764706
v 0.04675028 0.07046949 0.01650468 0.72941176 0.16862745 0.51764706
v 0.04597844 0.07061850 0.01629636 0.72941176 0.16862745 0.51764706
v 0.04722374 0.07217028 0.01609629 0.72941176 0.16862745 0.51764706
v 0.06906948 0.07217028 0.01184325 0.72941176 0.16862745 0.51764706
v 0.06747648 0.07046949 0.01218564 0.72941176 0.16862745 0.51764706
v 0.04739636 0.07046949 0.01662431 0.72941176 0.16862745 0.51764706
v 0.04739636 0.07103142 0.01650056 0.72941176 0.16862745 0.51764706
v 0.04739636 0.07217028 0.01613754 0.72941176 0.16862745 0.51764706
v 0.06906701 0.07217028 0.01218564 0.72941176 0.16862745 0.51764706
v 0.06742223 0.07046949 0.01295498 0.72941176 0.16862745 0.51764706
v 0.04879454 0.07046949 0.01678932 0.72941176 0.16862745 0.51764706
v 0.05018779 0.07217028 0.01664494 0.72941176 0.16862745 0.51764706
v 0.06836669 0.07217028 0.01402133 0.72941176 0.16862745 0.51764706
v 0.06707207 0.07046949 0.01498456 0.72941176 0.16862745 0.51764706
v 0.05151200 0.07046949 0.01700383 0.72941176 0.16862745 0.51764706
v 0.05281402 0.07217028 0.01690276 0.72941176 0.16862745 0.51764706
v 0.06787596 0.07217028 0.01457823 0.72941176 0.16862745 0.51764706
v 0.06645558 0.07046949 0.01594366 0.72941176 0.16862745 0.51764706
v 0.05421961 0.07046949 0.01702239 0.72941176 0.16862745 0.51764706
v 0.05552162 0.07217028 0.01701827 0.72941176 0.16862745 0.51764706
v 0.05321350 0.07217028 0.01692132 0.72941176 0.16862745 0.51764706
v 0.06722496 0.07217028 0.01518050 0.72941176 0.16862745 0.51764706
v 0.06574786 0.07046949 0.01657275 0.72941176 0.16862745 0.51764706
v 0.05822922 0.07046949 0.01696670 0.72941176 0.16862745 0.51764706
v 0.05822922 0.07177118 0.01698526 0.72941176 0.16862745 0.51764706
v 0.05552162 0.07177118 0.01701827 0.72941176 0.16862745 0.51764706
v 0.05592110 0.07217028 0.01701414 0.72941176 0.16862745 0.51764706
v 0.06648024 0.07217028 0.01543420 0.72941176 0.16862745 0.51764706
v 0.06549880 0.07100178 0.01650262 0.72941176 0.16862745 0.51764706
v 0.06364442 0.07141587 0.01665525 0.72941176 0.16862745 0.51764706
v 0.06364442 0.07046949 0.01683057 0.72941176 0.16862745 0.51764706
v 0.05822922 0.07217028 0.01698526 0.72941176 0.16862745 0.51764706
v 0.06364442 0.07217028 0.01636855 0.72941176 0.16862745 0.51764706
v 0.06105271 0.07217028 0.01669444 0.72941176 0.16862745 0.51764706
v 0.05867308 0.07217028 0.01693989 0.72941176 0.16862745 0.51764706
f 1 2 3
f 1 3 4
f 1 4 9
f 1 9 14
f 1 14 19
f 1 19 24
f 1 24 28
f 1 28 32
f 1 32 37
f 1 37 36
f 1 36 43
f 1 43 48
f 1 48 51
f 1 51 50
f 1 50 49
f 1 49 44
f 1 44 38
f 1 38 33
f 1 33 29
f 1 29 25
f 1 25 20
f 1 20 15
f 1 15 10
f 1 10 5
f 1 5 11
f 1 11 12
f 1 12 7
f 1 7 2
f 2 6 3
f 2 7 6
f 3 8 4
f 3 6 7
f 3 7 12
f 3 12 16
f 3 16 21
f 3 21 26
f 3 26 30
f 3 30 34
f 3 34 39
f 3 39 47
f 3 47 40
f 3 40 35
f 3 35 31
f 3 31 27
f 3 27 22
f 3 22 17
f 3 17 13
f 3 13 8
f 4 8 9
f 5 10 11
f 8 13 9
f 9 13 14
f 10 15 16
f 10 16 12
f 10 12 11
f 13 17 18
f 13 18 14
f 14 18 19
f 15 20 21
f 15 21 16
f 17 22 23
f 17 23 18
f 18 23 24
f 18 24 19
f 20 25 21
f 21 25 26
f 22 27 28
f 22 28 23
f 23 28 24
f 25 29 30
f 25 30 26
f 27 31 32
f 27 32 28
f 29 33 34
f 29 34 30
f 31 35 36
f 31 36 37
f 31 37 32
f 33 38 34
f 34 38 39
f 35 40 41
f 35 41 42
f 35 42 36
f 36 42 43
f 38 44 45
f 38 45 39
f 39 45 46
f 39 46 47
f 40 47 41
f 41 48 43
f 41 43 42
f 41 47 48
f 44 49 45
f 45 49 46
f 46 49 50
f 46 50 51
f 46 51 48
f 46 48 47