# https://github.com/mikedh/trimesh
v 0.03925931 -0.08274009 -0.00404457 0.25098039 0.46274510 0.24313725
v 0.03925931 -0.08274009 0.01218678 0.25098039 0.46274510 0.24313725
v 0.03925931 -0.07347339 -0.00404457 0.25098039 0.46274510 0.24313725
v 0.07720241 -0.08274009 -0.00404457 0.25098039 0.46274510 0.24313725
v 0.03925931 -0.08253933 0.01488372 0.25098039 0.46274510 0.24313725
v 0.07718538 -0.08274009 0.01218678 0.25098039 0.46274510 0.24313725
v 0.03925931 -0.07347339 -0.00403421 0.25098039 0.46274510 0.24313725
v 0.04269823 -0.07315725 -0.00404457 0.25098039 0.46274510 0.24313725
v 0.07989226 -0.08273915 -0.00404457 0.25098039 0.46274510 0.24313725
v 0.07989226 -0.08273915 0.01218678 0.25098039 0.46274510 0.24313725
v 0.03925931 -0.08253839 0.01489407 0.25098039 0.46274510 0.24313725
v 0.07989226 -0.08253839 0.01489407 0.25098039 0.46274510 0.24313725
v 0.03925931 -0.07351091 0.01218678 0.25098039 0.46274510 0.24313725
v 0.04277059 -0.07315725 0.01218678 0.25098039 0.46274510 0.24313725
v 0.08273959 -0.07315725 -0.00404457 0.25098039 0.46274510 0.24313725
v 0.07990503 -0.08273539 -0.00404457 0.25098039 0.46274510 0.24313725
v 0.08199477 -0.08199428 0.01218678 0.25098039 0.46274510 0.24313725
v 0.08189262 -0.08189391 0.01489407 0.25098039 0.46274510 0.24313725
v 0.03927208 -0.08179354 0.01668167 0.25098039 0.46274510 0.24313725
v 0.03925931 -0.08179634 0.01667339 0.25098039 0.46274510 0.24313725
v 0.08161172 -0.08161248 0.01653668 0.25098039 0.46274510 0.24313725
v 0.07989226 -0.08179354 0.01668167 0.25098039 0.46274510 0.24313725
v 0.03925931 -0.07380642 0.01489407 0.25098039 0.46274510 0.24313725
v 0.04287699 -0.07315725 0.01472215 0.25098039 0.46274510 0.24313725
v 0.08273959 -0.07315725 0.01218678 0.25098039 0.46274510 0.24313725
v 0.08273959 -0.07989573 -0.00404457 0.25098039 0.46274510 0.24313725
v 0.08199477 -0.08199428 -0.00404457 0.25098039 0.46274510 0.24313725
v 0.08273959 -0.07989573 0.01218678 0.25098039 0.46274510 0.24313725
v 0.08253529 -0.07989573 0.01489407 0.25098039 0.46274510 0.24313725
v 0.03925931 -0.07989573 0.01711459 0.25098039 0.46274510 0.24313725
v 0.08179048 -0.07989573 0.01668167 0.25098039 0.46274510 0.24313725
v 0.07989226 -0.07989573 0.01711459 0.25098039 0.46274510 0.24313725
v 0.03925931 -0.07496781 0.01668167 0.25098039 0.46274510 0.24313725
v 0.04562217 -0.07315725 0.01571227 0.25098039 0.46274510 0.24313725
v 0.08253529 -0.07315725 0.01489407 0.25098039 0.46274510 0.24313725
v 0.08215650 -0.07315725 0.01580755 0.25098039 0.46274510 0.24313725
v 0.03925931 -0.07718833 0.01711459 0.25098039 0.46274510 0.24313725
v 0.08179048 -0.07315725 0.01668167 0.25098039 0.46274510 0.24313725
v 0.08082009 -0.07315725 0.01690331 0.25098039 0.46274510 0.24313725
v 0.07989226 -0.07315725 0.01711459 0.25098039 0.46274510 0.24313725
v 0.03925931 -0.07497719 0.01668375 0.25098039 0.46274510 0.24313725
v 0.05281497 -0.07315725 0.01689917 0.25098039 0.46274510 0.24313725
v 0.05142749 -0.07315725 0.01676246 0.25098039 0.46274510 0.24313725
v 0.05020173 -0.07315725 0.01664025 0.25098039 0.46274510 0.24313725
v 0.05552185 -0.07315725 0.01701931 0.25098039 0.46274510 0.24313725
v 0.07718538 -0.07315725 0.01711459 0.25098039 0.46274510 0.24313725
f 1 2 5
f 1 5 11
f 1 11 20
f 1 20 30
f 1 30 37
f 1 37 41
f 1 41 33
f 1 33 23
f 1 23 13
f 1 13 7
f 1 7 3
f 1 3 8
f 1 8 15
f 1 15 26
f 1 26 27
f 1 27 16
f 1 16 9
f 1 9 4
f 1 4 6
f 1 6 2
f 2 6 5
f 3 7 8
f 4 9 10
f 4 10 6
f 5 6 12
f 5 12 11
f 6 10 12
f 7 13 14
f 7 14 8
f 8 14 24
f 8 24 34
f 8 34 44
f 8 44 43
f 8 43 42
f 8 42 45
f 8 45 46
f 8 46 40
f 8 40 39
f 8 39 38
f 8 38 36
f 8 36 35
f 8 35 25
f 8 25 15
f 9 16 10
f 10 16 17
f 10 17 18
f 10 18 12
f 11 19 20
f 11 12 22
f 11 22 19
f 12 18 21
f 12 21 22
f 13 23 24
f 13 24 14
f 15 25 28
f 15 28 26
f 16 27 17
f 17 27 26
f 17 26 28
f 17 28 18
f 18 28 29
f 18 29 21
f 19 30 20
f 19 22 32
f 19 32 30
f 21 29 31
f 21 31 32
f 21 32 22
f 23 33 34
f 23 34 24
f 25 35 29
f 25 29 28
f 29 35 36
f 29 36 31
f 30 32 40
f 30 40 46
f 30 46 37
f 31 38 39
f 31 39 32
f 31 36 38
f 32 39 40
f 33 41 42
f 33 42 43
f 33 43 44
f 33 44 34
f 37 45 41
f 37 46 45
f 41 45 42