# https://github.com/mikedh/trimesh
v 0.05280734 -0.06906697 0.01702278 0.81176471 0.39607843 0.87843137
v 0.04197965 -0.06089692 0.01707871 0.81176471 0.39607843 0.87843137
v 0.05010375 -0.06906210 0.01711392 0.81176471 0.39607843 0.87843137
v 0.05280734 -0.07084984 0.01694200 0.81176471 0.39607843 0.87843137
v 0.05280734 -0.06728897 0.01659195 0.81176471 0.39607843 0.87843137
v 0.04483781 -0.06089692 0.01672037 0.81176471 0.39607843 0.87843137
v 0.04479384 -0.06089692 0.01672865 0.81176471 0.39607843 0.87843137
v 0.04197965 -0.06093881 0.01707664 0.81176471 0.39607843 0.87843137
v 0.04468858 -0.06635369 0.01697928 0.81176471 0.39607843 0.87843137
v 0.04011019 -0.06089692 0.01664580 0.81176471 0.39607843 0.87843137
v 0.04011286 -0.06093881 0.01664580 0.81176471 0.39607843 0.87843137
v 0.04739483 -0.06906210 0.01693164 0.81176471 0.39607843 0.87843137
v 0.05016371 -0.07084984 0.01681151 0.81176471 0.39607843 0.87843137
v 0.05280734 -0.07084984 -0.00404457 0.81176471 0.39607843 0.87843137
v 0.05280734 -0.06670247 0.01489554 0.81176471 0.39607843 0.87843137
v 0.04628754 -0.06089692 0.01489554 0.81176471 0.39607843 0.87843137
v 0.04631153 -0.06173380 0.01646767 0.81176471 0.39607843 0.87843137
v 0.04036203 -0.06291654 0.01648838 0.81176471 0.39607843 0.87843137
v 0.04185040 -0.06375050 0.01673901 0.81176471 0.39607843 0.87843137
v 0.04273916 -0.06635369 0.01654845 0.81176471 0.39607843 0.87843137
v 0.04320953 -0.06784819 0.01635996 0.81176471 0.39607843 0.87843137
v 0.04492309 -0.06887504 0.01651531 0.81176471 0.39607843 0.87843137
v 0.03940531 -0.06089692 0.01489554 0.81176471 0.39607843 0.87843137
v 0.04739483 -0.07084984 0.01653602 0.81176471 0.39607843 0.87843137
v 0.04425685 -0.07084984 -0.00404457 0.81176471 0.39607843 0.87843137
v 0.05280734 -0.06589969 -0.00404457 0.81176471 0.39607843 0.87843137
v 0.05280734 -0.06533560 0.00966340 0.81176471 0.39607843 0.87843137
v 0.04744679 -0.06089692 0.00953291 0.81176471 0.39607843 0.87843137
v 0.03941197 -0.06093881 0.01489554 0.81176471 0.39607843 0.87843137
v 0.04016882 -0.06332670 0.01489554 0.81176471 0.39607843 0.87843137
v 0.04085771 -0.06468090 0.01489554 0.81176471 0.39607843 0.87843137
v 0.04432747 -0.07084984 0.01317842 0.81176471 0.39607843 0.87843137
v 0.04475653 -0.07084984 0.01487690 0.81176471 0.39607843 0.87843137
v 0.04495373 -0.07084984 0.01541958 0.81176471 0.39607843 0.87843137
v 0.04578653 -0.07084984 0.01601612 0.81176471 0.39607843 0.87843137
v 0.04598374 -0.07060726 0.01629368 0.81176471 0.39607843 0.87843137
v 0.04680587 -0.07084984 0.01641382 0.81176471 0.39607843 0.87843137
v 0.03921477 -0.06089692 0.01218626 0.81176471 0.39607843 0.87843137
v 0.04073778 -0.06477930 -0.00404457 0.81176471 0.39607843 0.87843137
v 0.04425552 -0.07084984 -0.00303169 0.81176471 0.39607843 0.87843137
v 0.05280734 -0.06585487 -0.00403835 0.81176471 0.39607843 0.87843137
v 0.04719895 -0.06089692 -0.00404457 0.81176471 0.39607843 0.87843137
v 0.04783588 -0.06089692 0.00689819 0.81176471 0.39607843 0.87843137
v 0.05280734 -0.06526643 -0.00135393 0.81176471 0.39607843 0.87843137
v 0.03922276 -0.06093881 0.01218626 0.81176471 0.39607843 0.87843137
v 0.04010886 -0.06342510 0.01218626 0.81176471 0.39607843 0.87843137
v 0.04073778 -0.06477930 0.01218626 0.81176471 0.39607843 0.87843137
v 0.04426618 -0.07084984 0.01218626 0.81176471 0.39607843 0.87843137
v 0.03919611 -0.06089692 -0.00404457 0.81176471 0.39607843 0.87843137
v 0.04009420 -0.06342510 -0.00404457 0.81176471 0.39607843 0.87843137
v 0.04788252 -0.06089692 -0.00138914 0.81176471 0.39607843 0.87843137
v 0.05280734 -0.06532585 -0.00166048 0.81176471 0.39607843 0.87843137
v 0.04788651 -0.06089692 -0.00135393 0.81176471 0.39607843 0.87843137
v 0.03920411 -0.06093881 -0.00404457 0.81176471 0.39607843 0.87843137
v 0.04008887 -0.06341048 -0.00404457 0.81176471 0.39607843 0.87843137
f 1 2 3
f 1 3 4
f 1 4 14
f 1 14 26
f 1 26 41
f 1 41 52
f 1 52 44
f 1 44 27
f 1 27 15
f 1 15 5
f 1 5 6
f 1 6 7
f 1 7 2
f 2 8 9
f 2 9 3
f 2 7 6
f 2 6 16
f 2 16 28
f 2 28 43
f 2 43 53
f 2 53 51
f 2 51 42
f 2 42 49
f 2 49 38
f 2 38 23
f 2 23 10
f 2 10 11
f 2 11 8
f 3 9 12
f 3 12 13
f 3 13 4
f 4 13 24
f 4 24 37
f 4 37 35
f 4 35 34
f 4 34 33
f 4 33 32
f 4 32 48
f 4 48 40
f 4 40 25
f 4 25 14
f 5 15 16
f 5 16 17
f 5 17 6
f 6 17 16
f 8 11 18
f 8 18 19
f 8 19 9
f 9 19 20
f 9 20 21
f 9 21 22
f 9 22 12
f 10 23 11
f 11 23 18
f 12 22 24
f 12 24 13
f 14 25 39
f 14 39 50
f 14 50 55
f 14 55 54
f 14 54 49
f 14 49 42
f 14 42 26
f 15 27 16
f 16 27 28
f 18 23 29
f 18 29 30
f 18 30 31
f 18 31 21
f 18 21 20
f 18 20 19
f 21 31 32
f 21 32 33
f 21 33 34
f 21 34 35
f 21 35 36
f 21 36 22
f 22 36 37
f 22 37 24
f 23 38 29
f 25 40 39
f 26 42 41
f 27 43 28
f 27 44 43
f 29 38 45
f 29 45 30
f 30 45 46
f 30 46 47
f 30 47 31
f 31 47 32
f 32 47 48
f 35 37 36
f 38 49 54
f 38 54 45
f 39 40 47
f 39 47 50
f 40 48 47
f 41 51 52
f 41 42 51
f 43 44 53
f 44 52 51
f 44 51 53
f 45 54 46
f 46 54 55
f 46 55 50
f 46 50 47