# https://github.com/mikedh/trimesh
v -0.06418997 0.03984587 -0.00567660 0.91764706 0.71372549 0.99607843
v -0.06796054 0.04200282 -0.00567660 0.91764706 0.71372549 0.99607843
v -0.06418997 0.05025647 -0.00567660 0.91764706 0.71372549 0.99607843
v -0.06418997 0.04046651 0.01218609 0.91764706 0.71372549 0.99607843
v -0.06477633 0.04073815 0.01218609 0.91764706 0.71372549 0.99607843
v -0.07085255 0.04399787 -0.00567660 0.91764706 0.71372549 0.99607843
v -0.07085255 0.04426952 0.01218609 0.91764706 0.71372549 0.99607843
v -0.06573642 0.05822228 -0.00567660 0.91764706 0.71372549 0.99607843
v -0.06418997 0.05097966 -0.00220311 0.91764706 0.71372549 0.99607843
v -0.06418997 0.04061043 0.01489438 0.91764706 0.71372549 0.99607843
v -0.06467784 0.04085868 0.01489438 0.91764706 0.71372549 0.99607843
v -0.07085255 0.04433068 0.01317437 0.91764706 0.71372549 0.99607843
v -0.07085255 0.05822228 -0.00567660 0.91764706 0.71372549 0.99607843
v -0.06418997 0.05102103 -0.00129068 0.91764706 0.71372549 0.99607843
v -0.06566924 0.05822228 0.00676950 0.91764706 0.71372549 0.99607843
v -0.06418997 0.04200102 0.01670586 0.91764706 0.71372549 0.99607843
v -0.06635474 0.04274040 0.01654746 0.91764706 0.71372549 0.99607843
v -0.06784705 0.04320993 0.01635784 0.91764706 0.71372549 0.99607843
v -0.07085255 0.04475884 0.01487430 0.91764706 0.71372549 0.99607843
v -0.07085255 0.05822228 0.01697133 0.91764706 0.71372549 0.99607843
v -0.06418997 0.05085732 0.00895800 0.91764706 0.71372549 0.99607843
v -0.06705980 0.05822228 0.01489438 0.91764706 0.71372549 0.99607843
v -0.06418997 0.04791422 0.01653854 0.91764706 0.71372549 0.99607843
v -0.06418997 0.04875074 0.01489438 0.91764706 0.71372549 0.99607843
v -0.06418997 0.04468868 0.01704495 0.91764706 0.71372549 0.99607843
v -0.06635474 0.04468868 0.01698026 0.91764706 0.71372549 0.99607843
v -0.07060470 0.04598393 0.01629314 0.91764706 0.71372549 0.99607843
v -0.07085255 0.04578245 0.01600759 0.91764706 0.71372549 0.99607843
v -0.07085255 0.04495493 0.01541641 0.91764706 0.71372549 0.99607843
v -0.06887497 0.04492434 0.01651400 0.91764706 0.71372549 0.99607843
v -0.07085255 0.05643771 0.01699364 0.91764706 0.71372549 0.99607843
v -0.06906282 0.05010356 0.01711411 0.91764706 0.71372549 0.99607843
v -0.06906738 0.05822228 0.01694456 0.91764706 0.71372549 0.99607843
v -0.06744071 0.05822228 0.01651177 0.91764706 0.71372549 0.99607843
v -0.06418997 0.04730437 0.01668801 0.91764706 0.71372549 0.99607843
v -0.06906282 0.04739792 0.01693118 0.91764706 0.71372549 0.99607843
v -0.07085255 0.04682585 0.01641584 0.91764706 0.71372549 0.99607843
v -0.07085255 0.04739792 0.01653408 0.91764706 0.71372549 0.99607843
v -0.07085255 0.05281280 0.01694233 0.91764706 0.71372549 0.99607843
v -0.07085255 0.05016113 0.01681294 0.91764706 0.71372549 0.99607843
f 1 2 6
f 1 6 13
f 1 13 8
f 1 8 3
f 1 3 9
f 1 9 14
f 1 14 21
f 1 21 24
f 1 24 23
f 1 23 35
f 1 35 25
f 1 25 16
f 1 16 10
f 1 10 4
f 1 4 5
f 1 5 2
f 2 5 7
f 2 7 6
f 3 8 9
f 4 10 5
f 5 10 11
f 5 11 12
f 5 12 7
f 6 7 12
f 6 12 19
f 6 19 29
f 6 29 28
f 6 28 37
f 6 37 38
f 6 38 40
f 6 40 39
f 6 39 31
f 6 31 20
f 6 20 13
f 8 14 9
f 8 13 20
f 8 20 33
f 8 33 34
f 8 34 22
f 8 22 15
f 8 15 14
f 10 16 17
f 10 17 18
f 10 18 11
f 11 18 12
f 12 18 19
f 14 15 21
f 15 22 23
f 15 23 24
f 15 24 21
f 16 25 26
f 16 26 17
f 17 26 18
f 18 27 28
f 18 28 29
f 18 29 19
f 18 26 30
f 18 30 27
f 20 31 32
f 20 32 33
f 22 34 23
f 23 34 35
f 25 33 32
f 25 32 26
f 25 35 34
f 25 34 33
f 26 32 36
f 26 36 30
f 27 30 37
f 27 37 28
f 30 36 38
f 30 38 37
f 31 39 32
f 32 39 40
f 32 40 36
f 36 40 38