# https://github.com/mikedh/trimesh
v -0.05601036 0.03828826 -0.00567660 0.65098039 0.43137255 0.89411765
v -0.05791034 0.03833313 -0.00567660 0.65098039 0.43137255 0.89411765
v -0.05601036 0.04573719 -0.00567660 0.65098039 0.43137255 0.89411765
v -0.05601036 0.03860985 0.01218647 0.65098039 0.43137255 0.89411765
v -0.05822980 0.03834435 -0.00567660 0.65098039 0.43137255 0.89411765
v -0.06418997 0.05025565 -0.00567660 0.65098039 0.43137255 0.89411765
v -0.06418997 0.05098110 -0.00220304 0.65098039 0.43137255 0.89411765
v -0.05601036 0.04651499 -0.00118573 0.65098039 0.43137255 0.89411765
v -0.05601036 0.03890152 0.01489482 0.65098039 0.43137255 0.89411765
v -0.05822980 0.03897507 0.01489482 0.65098039 0.43137255 0.89411765
v -0.05822980 0.03869461 0.01218647 0.65098039 0.43137255 0.89411765
v -0.06029953 0.03858492 -0.00567660 0.65098039 0.43137255 0.89411765
v -0.06418997 0.03984511 -0.00567660 0.65098039 0.43137255 0.89411765
v -0.06418997 0.05102099 -0.00129059 0.65098039 0.43137255 0.89411765
v -0.05601036 0.04650750 -0.00069716 0.65098039 0.43137255 0.89411765
v -0.05601036 0.03990992 0.01668179 0.65098039 0.43137255 0.89411765
v -0.05822980 0.03994108 0.01668179 0.65098039 0.43137255 0.89411765
v -0.06093766 0.04011434 0.01664387 0.65098039 0.43137255 0.89411765
v -0.06291371 0.04036239 0.01648770 0.65098039 0.43137255 0.89411765
v -0.06093766 0.03941133 0.01489482 0.65098039 0.43137255 0.89411765
v -0.06093766 0.03922062 0.01218647 0.65098039 0.43137255 0.89411765
v -0.06093766 0.03870583 -0.00567660 0.65098039 0.43137255 0.89411765
v -0.06409709 0.03972669 -0.00567660 0.65098039 0.43137255 0.89411765
v -0.06418997 0.04046710 0.01218647 0.65098039 0.43137255 0.89411765
v -0.06418997 0.05085770 0.00895831 0.65098039 0.43137255 0.89411765
v -0.05601036 0.04647011 0.00141999 0.65098039 0.43137255 0.89411765
v -0.05601036 0.04198031 0.01711459 0.65098039 0.43137255 0.89411765
v -0.05822980 0.04198031 0.01711459 0.65098039 0.43137255 0.89411765
v -0.06093766 0.04198031 0.01707667 0.65098039 0.43137255 0.89411765
v -0.06374800 0.04185068 0.01673757 0.65098039 0.43137255 0.89411765
v -0.06418997 0.04200026 0.01670410 0.65098039 0.43137255 0.89411765
v -0.06418997 0.04061044 0.01489482 0.65098039 0.43137255 0.89411765
v -0.06332285 0.04017044 0.01489482 0.65098039 0.43137255 0.89411765
v -0.06300578 0.03929167 -0.00567660 0.65098039 0.43137255 0.89411765
v -0.06371197 0.03954471 -0.00567660 0.65098039 0.43137255 0.89411765
v -0.06418997 0.04874867 0.01489482 0.65098039 0.43137255 0.89411765
v -0.05601036 0.04511270 0.01489482 0.65098039 0.43137255 0.89411765
v -0.05601036 0.04591917 0.01163989 0.65098039 0.43137255 0.89411765
v -0.05601036 0.04620711 0.00947812 0.65098039 0.43137255 0.89411765
v -0.06418997 0.04730276 0.01668625 0.65098039 0.43137255 0.89411765
v -0.06364552 0.04468765 0.01706105 0.65098039 0.43137255 0.89411765
v -0.05601036 0.04407813 0.01668179 0.65098039 0.43137255 0.89411765
v -0.06418997 0.04468765 0.01704543 0.65098039 0.43137255 0.89411765
v -0.06418997 0.04791353 0.01653901 0.65098039 0.43137255 0.89411765
f 1 2 5
f 1 5 12
f 1 12 22
f 1 22 34
f 1 34 35
f 1 35 23
f 1 23 13
f 1 13 6
f 1 6 3
f 1 3 8
f 1 8 15
f 1 15 26
f 1 26 39
f 1 39 38
f 1 38 37
f 1 37 42
f 1 42 27
f 1 27 16
f 1 16 9
f 1 9 4
f 1 4 2
f 2 4 5
f 3 6 7
f 3 7 8
f 4 9 10
f 4 10 11
f 4 11 5
f 5 11 12
f 6 13 24
f 6 24 32
f 6 32 31
f 6 31 43
f 6 43 40
f 6 40 44
f 6 44 36
f 6 36 25
f 6 25 14
f 6 14 7
f 7 14 8
f 8 14 15
f 9 16 17
f 9 17 10
f 10 17 18
f 10 18 19
f 10 19 20
f 10 20 11
f 11 20 21
f 11 21 22
f 11 22 12
f 13 23 24
f 14 25 15
f 15 25 26
f 16 27 28
f 16 28 17
f 17 28 29
f 17 29 18
f 18 29 19
f 19 29 30
f 19 30 31
f 19 31 32
f 19 32 33
f 19 33 20
f 20 33 21
f 21 33 34
f 21 34 22
f 23 35 24
f 24 33 32
f 24 35 33
f 25 36 37
f 25 37 38
f 25 38 39
f 25 39 26
f 27 40 41
f 27 41 28
f 27 42 40
f 28 41 29
f 29 41 43
f 29 43 30
f 30 43 31
f 33 35 34
f 36 44 37
f 37 44 42
f 40 43 41
f 40 42 44