# https://github.com/mikedh/trimesh
v 0.07718279 0.08274009 -0.00730656 0.54509804 0.71372549 0.60000000
v 0.07988829 0.08273199 -0.00730656 0.54509804 0.71372549 0.60000000
v 0.07718279 0.08274009 -0.01218850 0.54509804 0.71372549 0.60000000
v 0.01489961 0.08274009 -0.00730656 0.54509804 0.71372549 0.60000000
v 0.08030950 0.08258623 -0.00730656 0.54509804 0.71372549 0.60000000
v 0.07988829 0.08273199 -0.01218850 0.54509804 0.71372549 0.60000000
v 0.07988829 0.08253765 -0.01489588 0.54509804 0.71372549 0.60000000
v 0.01489961 0.08274009 -0.01218850 0.54509804 0.71372549 0.60000000
v -0.00001304 0.08253765 -0.01489588 0.54509804 0.71372549 0.60000000
v -0.00001304 0.08220564 -0.01218850 0.54509804 0.71372549 0.60000000
v -0.00001304 0.08150923 -0.00730656 0.54509804 0.71372549 0.60000000
v 0.08199436 0.08199510 -0.00730656 0.54509804 0.71372549 0.60000000
v 0.08199436 0.08199510 -0.01218850 0.54509804 0.71372549 0.60000000
v 0.08188906 0.08188982 -0.01489588 0.54509804 0.71372549 0.60000000
v 0.08160554 0.08160641 -0.01653759 0.54509804 0.71372549 0.60000000
v 0.07988829 0.08179265 -0.01668160 0.54509804 0.71372549 0.60000000
v -0.00001304 0.08179265 -0.01668160 0.54509804 0.71372549 0.60000000
v -0.00001304 0.07050436 -0.00730656 0.54509804 0.71372549 0.60000000
v 0.08273959 0.07988968 -0.00730656 0.54509804 0.71372549 0.60000000
v 0.08273959 0.07988968 -0.01218850 0.54509804 0.71372549 0.60000000
v 0.08253709 0.07988968 -0.01489588 0.54509804 0.71372549 0.60000000
v 0.07988829 0.07988968 -0.01711363 0.54509804 0.71372549 0.60000000
v 0.08179185 0.07988968 -0.01668160 0.54509804 0.71372549 0.60000000
v -0.00001304 0.08085331 -0.01689570 0.54509804 0.71372549 0.60000000
v -0.00001304 0.00001328 -0.00788548 0.54509804 0.71372549 0.60000000
v 0.07050004 0.00001328 -0.00730656 0.54509804 0.71372549 0.60000000
v 0.08273959 0.01489698 -0.00730656 0.54509804 0.71372549 0.60000000
v 0.08273959 0.01489698 -0.01218850 0.54509804 0.71372549 0.60000000
v 0.08253709 0.00001328 -0.01489588 0.54509804 0.71372549 0.60000000
v 0.08082792 0.00001328 -0.01690050 0.54509804 0.71372549 0.60000000
v 0.07988829 0.00001328 -0.01711363 0.54509804 0.71372549 0.60000000
v -0.00001304 0.07988968 -0.01711363 0.54509804 0.71372549 0.60000000
v 0.08179185 0.00001328 -0.01668160 0.54509804 0.71372549 0.60000000
v -0.00001304 0.00135751 -0.01711363 0.54509804 0.71372549 0.60000000
v -0.00000493 0.00001328 -0.01711363 0.54509804 0.71372549 0.60000000
v 0.08150835 0.00001328 -0.00730656 0.54509804 0.71372549 0.60000000
v 0.08237508 0.00001328 -0.01355467 0.54509804 0.71372549 0.60000000
v 0.08220497 0.00001328 -0.01218850 0.54509804 0.71372549 0.60000000
f 1 2 6
f 1 6 3
f 1 3 8
f 1 8 4
f 1 4 11
f 1 11 18
f 1 18 26
f 1 26 36
f 1 36 27
f 1 27 19
f 1 19 12
f 1 12 5
f 1 5 2
f 2 5 6
f 3 6 7
f 3 7 9
f 3 9 8
f 4 8 9
f 4 9 10
f 4 10 11
f 5 12 13
f 5 13 6
f 6 13 14
f 6 14 7
f 7 14 15
f 7 15 16
f 7 16 17
f 7 17 9
f 9 17 24
f 9 24 32
f 9 32 34
f 9 34 25
f 9 25 18
f 9 18 11
f 9 11 10
f 12 19 20
f 12 20 13
f 13 20 14
f 14 20 21
f 14 21 15
f 15 22 16
f 15 21 23
f 15 23 22
f 16 22 24
f 16 24 17
f 18 25 26
f 19 27 28
f 19 28 20
f 20 28 29
f 20 29 21
f 21 29 33
f 21 33 23
f 22 23 30
f 22 30 31
f 22 31 35
f 22 35 34
f 22 34 32
f 22 32 24
f 23 33 30
f 25 34 35
f 25 35 31
f 25 31 30
f 25 30 33
f 25 33 29
f 25 29 37
f 25 37 38
f 25 38 36
f 25 36 26
f 27 37 29
f 27 29 28
f 27 36 38
f 27 38 37