# https://github.com/mikedh/trimesh
v 0.05656210 0.03851650 -0.00462707 0.85882353 0.97254902 0.96078431
v 0.05822980 0.03856787 -0.00462707 0.85882353 0.97254902 0.96078431
v 0.05656210 0.03863326 -0.00195586 0.85882353 0.97254902 0.96078431
v 0.05656210 0.04576407 -0.00462707 0.85882353 0.97254902 0.96078431
v 0.05822980 0.03869632 -0.00195586 0.85882353 0.97254902 0.96078431
v 0.06093775 0.03903026 -0.00462707 0.85882353 0.97254902 0.96078431
v 0.05656210 0.04620894 -0.00195586 0.85882353 0.97254902 0.96078431
v 0.06465582 0.05029920 -0.00462707 0.85882353 0.97254902 0.96078431
v 0.06093775 0.03921708 -0.00195586 0.85882353 0.97254902 0.96078431
v 0.06352289 0.03990366 -0.00462707 0.85882353 0.97254902 0.96078431
v 0.06434130 0.05019645 -0.00195586 0.85882353 0.97254902 0.96078431
v 0.06465582 0.05042064 -0.00195717 0.85882353 0.97254902 0.96078431
v 0.06465582 0.05044399 -0.00263700 0.85882353 0.97254902 0.96078431
v 0.06465582 0.04065212 -0.00462707 0.85882353 0.97254902 0.96078431
v 0.06287007 0.03990950 -0.00195586 0.85882353 0.97254902 0.96078431
v 0.06342148 0.04010800 -0.00195586 0.85882353 0.97254902 0.96078431
v 0.06465582 0.04068365 -0.00195586 0.85882353 0.97254902 0.96078431
v 0.06465582 0.05030621 -0.00195586 0.85882353 0.97254902 0.96078431
f 1 2 3
f 1 3 7
f 1 7 4
f 1 4 8
f 1 8 14
f 1 14 10
f 1 10 6
f 1 6 2
f 2 5 3
f 2 6 5
f 3 5 9
f 3 9 15
f 3 15 16
f 3 16 17
f 3 17 18
f 3 18 11
f 3 11 7
f 4 7 8
f 5 6 9
f 6 10 9
f 7 11 12
f 7 12 13
f 7 13 8
f 8 13 12
f 8 12 18
f 8 18 17
f 8 17 14
f 9 10 15
f 10 16 15
f 10 14 17
f 10 17 16
f 11 18 12