# https://github.com/mikedh/trimesh
v 0.06378059 -0.05037550 0.00381011 0.14901961 0.86666667 0.16078431
v 0.06378059 -0.05037550 0.00397582 0.14901961 0.86666667 0.16078431
v 0.05823037 -0.04683211 0.00406282 0.14901961 0.86666667 0.16078431
v 0.05823037 -0.04677260 -0.00404457 0.14901961 0.86666667 0.16078431
v 0.06378059 -0.04981584 -0.00404457 0.14901961 0.86666667 0.16078431
v 0.06378059 -0.04835545 0.01489407 0.14901961 0.86666667 0.16078431
v 0.05823037 -0.04525956 0.01489407 0.14901961 0.86666667 0.16078431
v 0.05823037 -0.03868438 -0.00404457 0.14901961 0.86666667 0.16078431
v 0.06378059 -0.04025808 -0.00404457 0.14901961 0.86666667 0.16078431
v 0.06378059 -0.04727275 0.01662988 0.14901961 0.86666667 0.16078431
v 0.06172188 -0.04631251 0.01646832 0.14901961 0.86666667 0.16078431
v 0.05823037 -0.04415626 0.01668167 0.14901961 0.86666667 0.16078431
v 0.06093838 -0.03920170 -0.00404457 0.14901961 0.86666667 0.16078431
v 0.05823037 -0.03868896 0.01218677 0.14901961 0.86666667 0.16078431
v 0.06344427 -0.04009899 -0.00404457 0.14901961 0.86666667 0.16078431
v 0.06378059 -0.04025693 -0.00337344 0.14901961 0.86666667 0.16078431
v 0.06378059 -0.04679320 0.01671481 0.14901961 0.86666667 0.16078431
v 0.05823037 -0.04198056 0.01711459 0.14901961 0.86666667 0.16078431
v 0.06093838 -0.03921886 0.01218677 0.14901961 0.86666667 0.16078431
v 0.06343612 -0.04011043 0.01218677 0.14901961 0.86666667 0.16078431
v 0.05823037 -0.03896936 0.01489407 0.14901961 0.86666667 0.16078431
v 0.06093838 -0.03940771 0.01489407 0.14901961 0.86666667 0.16078431
v 0.06378059 -0.04026838 0.01218677 0.14901961 0.86666667 0.16078431
v 0.06378059 -0.04468731 0.01705866 0.14901961 0.86666667 0.16078431
v 0.06364585 -0.04468731 0.01706280 0.14901961 0.86666667 0.16078431
v 0.05823037 -0.03993647 0.01668167 0.14901961 0.86666667 0.16078431
v 0.06093838 -0.04198056 0.01707730 0.14901961 0.86666667 0.16078431
v 0.06333777 -0.04017109 0.01489407 0.14901961 0.86666667 0.16078431
v 0.06292321 -0.04036222 0.01648903 0.14901961 0.86666667 0.16078431
v 0.06093838 -0.04011158 0.01664438 0.14901961 0.86666667 0.16078431
v 0.06378059 -0.04039198 0.01489407 0.14901961 0.86666667 0.16078431
v 0.06378059 -0.04185466 0.01673760 0.14901961 0.86666667 0.16078431
f 1 2 3
f 1 3 4
f 1 4 5
f 1 5 9
f 1 9 16
f 1 16 23
f 1 23 31
f 1 31 32
f 1 32 24
f 1 24 17
f 1 17 10
f 1 10 6
f 1 6 2
f 2 6 7
f 2 7 3
f 3 7 12
f 3 12 18
f 3 18 26
f 3 26 21
f 3 21 14
f 3 14 8
f 3 8 4
f 4 8 13
f 4 13 15
f 4 15 9
f 4 9 5
f 6 10 11
f 6 11 7
f 7 11 12
f 8 14 13
f 9 15 16
f 10 17 18
f 10 18 12
f 10 12 11
f 13 14 19
f 13 19 20
f 13 20 15
f 14 21 22
f 14 22 19
f 15 20 23
f 15 23 16
f 17 24 25
f 17 25 18
f 18 25 27
f 18 27 26
f 19 22 28
f 19 28 20
f 20 28 23
f 21 29 22
f 21 26 30
f 21 30 29
f 22 29 28
f 23 28 31
f 24 32 27
f 24 27 25
f 26 27 30
f 27 32 29
f 27 29 30
f 28 29 31
f 29 32 31