# https://github.com/mikedh/trimesh
v 0.08273841 -0.07085007 0.01218678 0.41176471 0.06274510 0.69019608
v 0.08260601 -0.07085007 0.01397438 0.41176471 0.06274510 0.69019608
v 0.08273841 -0.07315631 0.01218678 0.41176471 0.06274510 0.69019608
v 0.08273841 -0.07085007 -0.00404457 0.41176471 0.06274510 0.69019608
v 0.08263557 -0.07315631 0.01357253 0.41176471 0.06274510 0.69019608
v 0.08253745 -0.07085007 0.01489407 0.41176471 0.06274510 0.69019608
v 0.08253745 -0.07315631 0.01489407 0.41176471 0.06274510 0.69019608
v 0.08273841 -0.07315631 -0.00404457 0.41176471 0.06274510 0.69019608
v 0.07297210 -0.07085007 -0.00404457 0.41176471 0.06274510 0.69019608
v 0.08204690 -0.07085007 0.01607269 0.41176471 0.06274510 0.69019608
v 0.08179275 -0.07315631 0.01668167 0.41176471 0.06274510 0.69019608
v 0.07066587 -0.07315631 -0.00404457 0.41176471 0.06274510 0.69019608
v 0.07066351 -0.07315631 -0.00382914 0.41176471 0.06274510 0.69019608
v 0.07297210 -0.07085007 0.00947741 0.41176471 0.06274510 0.69019608
v 0.08179275 -0.07085007 0.01668167 0.41176471 0.06274510 0.69019608
v 0.08082226 -0.07315631 0.01690331 0.41176471 0.06274510 0.69019608
v 0.07066587 -0.07315631 0.00947741 0.41176471 0.06274510 0.69019608
v 0.07298037 -0.07085007 0.01218678 0.41176471 0.06274510 0.69019608
v 0.08054093 -0.07085007 0.01696752 0.41176471 0.06274510 0.69019608
v 0.07989552 -0.07315631 0.01711459 0.41176471 0.06274510 0.69019608
v 0.07067414 -0.07315631 0.01218678 0.41176471 0.06274510 0.69019608
v 0.07354659 -0.07085007 0.01507635 0.41176471 0.06274510 0.69019608
v 0.07989552 -0.07085007 0.01711459 0.41176471 0.06274510 0.69019608
v 0.07718738 -0.07315631 0.01711459 0.41176471 0.06274510 0.69019608
v 0.07076871 -0.07315631 0.01243120 0.41176471 0.06274510 0.69019608
v 0.07195197 -0.07315631 0.01507843 0.41176471 0.06274510 0.69019608
v 0.07394258 -0.07085007 0.01553620 0.41176471 0.06274510 0.69019608
v 0.07180657 -0.07315631 0.01482986 0.41176471 0.06274510 0.69019608
v 0.07718738 -0.07085007 0.01711459 0.41176471 0.06274510 0.69019608
v 0.07569678 -0.07315631 0.01693024 0.41176471 0.06274510 0.69019608
v 0.07364706 -0.07315631 0.01619283 0.41176471 0.06274510 0.69019608
v 0.07493553 -0.07085007 0.01668167 0.41176471 0.06274510 0.69019608
v 0.07464119 -0.07315631 0.01672725 0.41176471 0.06274510 0.69019608
f 1 2 3
f 1 3 8
f 1 8 4
f 1 4 9
f 1 9 14
f 1 14 18
f 1 18 22
f 1 22 27
f 1 27 32
f 1 32 29
f 1 29 23
f 1 23 19
f 1 19 15
f 1 15 10
f 1 10 6
f 1 6 2
f 2 5 3
f 2 6 7
f 2 7 5
f 3 5 7
f 3 7 11
f 3 11 16
f 3 16 20
f 3 20 24
f 3 24 30
f 3 30 33
f 3 33 31
f 3 31 26
f 3 26 28
f 3 28 25
f 3 25 21
f 3 21 17
f 3 17 13
f 3 13 12
f 3 12 8
f 4 8 12
f 4 12 9
f 6 10 7
f 7 10 11
f 9 12 13
f 9 13 14
f 10 15 11
f 11 15 16
f 13 17 14
f 14 17 21
f 14 21 18
f 15 19 16
f 16 19 20
f 18 21 22
f 19 23 20
f 20 23 29
f 20 29 24
f 21 25 22
f 22 26 27
f 22 25 28
f 22 28 26
f 24 29 30
f 26 31 32
f 26 32 27
f 29 32 30
f 30 32 33
f 31 33 32