# https://github.com/mikedh/trimesh
v -0.07718731 -0.04171499 0.01711459 0.58431373 0.01960784 0.82745098
v -0.06999877 -0.05104085 0.01703874 0.58431373 0.01960784 0.82745098
v -0.06999877 -0.04832952 0.01683796 0.58431373 0.01960784 0.82745098
v -0.06999877 -0.04739749 0.01673087 0.58431373 0.01960784 0.82745098
v -0.07495118 -0.04171499 0.01668179 0.58431373 0.01960784 0.82745098
v -0.07989610 -0.04171499 0.01711459 0.58431373 0.01960784 0.82745098
v -0.07718731 -0.07056528 0.01711459 0.58431373 0.01960784 0.82745098
v -0.06999877 -0.05374936 0.01702089 0.58431373 0.01960784 0.82745098
v -0.06999877 -0.04620564 0.01651224 0.58431373 0.01960784 0.82745098
v -0.07361549 -0.04171499 0.01472080 0.58431373 0.01960784 0.82745098
v -0.06999877 -0.04559558 0.01637839 0.58431373 0.01960784 0.82745098
v -0.06999877 -0.04456471 0.01489035 0.58431373 0.01960784 0.82745098
v -0.08160843 -0.04171499 0.01672418 0.58431373 0.01960784 0.82745098
v -0.07989610 -0.07056528 0.01711459 0.58431373 0.01960784 0.82745098
v -0.07493621 -0.07056528 0.01668179 0.58431373 0.01960784 0.82745098
v -0.06999877 -0.06597578 0.01663494 0.58431373 0.01960784 0.82745098
v -0.06999877 -0.06364573 0.01691827 0.58431373 0.01960784 0.82745098
v -0.06999877 -0.06097676 0.01694950 0.58431373 0.01960784 0.82745098
v -0.07332490 -0.04171499 0.01218647 0.58431373 0.01960784 0.82745098
v -0.06999877 -0.04425404 0.01218647 0.58431373 0.01960784 0.82745098
v -0.08179300 -0.04171499 0.01668179 0.58431373 0.01960784 0.82745098
v -0.08179300 -0.07056528 0.01668179 0.58431373 0.01960784 0.82745098
v -0.07354565 -0.07056528 0.01507552 0.58431373 0.01960784 0.82745098
v -0.06999877 -0.06643614 0.01622445 0.58431373 0.01960784 0.82745098
v -0.07277741 -0.04171499 -0.00567660 0.58431373 0.01960784 0.82745098
v -0.06999877 -0.04398856 -0.00567660 0.58431373 0.01960784 0.82745098
v -0.08246522 -0.04171499 0.01506883 0.58431373 0.01960784 0.82745098
v -0.08220706 -0.07056528 0.01568903 0.58431373 0.01960784 0.82745098
v -0.07326130 -0.07056528 0.01218647 0.58431373 0.01960784 0.82745098
v -0.06999877 -0.06762236 0.01218647 0.58431373 0.01960784 0.82745098
v -0.06999877 -0.06730603 0.01487697 0.58431373 0.01960784 0.82745098
v -0.06999877 -0.06730321 0.01489482 0.58431373 0.01960784 0.82745098
v -0.08273959 -0.04171499 -0.00567660 0.58431373 0.01960784 0.82745098
v -0.06999877 -0.06794715 -0.00567660 0.58431373 0.01960784 0.82745098
v -0.08253755 -0.04171499 0.01489482 0.58431373 0.01960784 0.82745098
v -0.08253755 -0.07056528 0.01489482 0.58431373 0.01960784 0.82745098
v -0.07271879 -0.07056528 -0.00567660 0.58431373 0.01960784 0.82745098
v -0.08273959 -0.04171499 0.01218647 0.58431373 0.01960784 0.82745098
v -0.08273959 -0.07056528 -0.00567660 0.58431373 0.01960784 0.82745098
v -0.08273959 -0.07056528 0.01218647 0.58431373 0.01960784 0.82745098
f 1 2 3
f 1 3 4
f 1 4 5
f 1 5 10
f 1 10 19
f 1 19 25
f 1 25 33
f 1 33 38
f 1 38 35
f 1 35 27
f 1 27 21
f 1 21 13
f 1 13 6
f 1 6 14
f 1 14 7
f 1 7 2
f 2 8 18
f 2 18 17
f 2 17 16
f 2 16 24
f 2 24 32
f 2 32 31
f 2 31 30
f 2 30 34
f 2 34 26
f 2 26 20
f 2 20 12
f 2 12 11
f 2 11 9
f 2 9 4
f 2 4 3
f 2 7 8
f 4 9 5
f 5 9 11
f 5 11 12
f 5 12 10
f 6 13 14
f 7 14 22
f 7 22 28
f 7 28 36
f 7 36 40
f 7 40 39
f 7 39 37
f 7 37 29
f 7 29 23
f 7 23 15
f 7 15 16
f 7 16 17
f 7 17 18
f 7 18 8
f 10 12 20
f 10 20 19
f 13 21 22
f 13 22 14
f 15 23 24
f 15 24 16
f 19 20 25
f 20 26 25
f 21 27 28
f 21 28 22
f 23 29 30
f 23 30 31
f 23 31 32
f 23 32 24
f 25 26 34
f 25 34 37
f 25 37 39
f 25 39 33
f 27 35 36
f 27 36 28
f 29 37 30
f 30 37 34
f 33 39 40
f 33 40 38
f 35 38 40
f 35 40 36