# https://github.com/mikedh/trimesh
v -0.06999808 -0.05677269 -0.00567660 0.72156863 0.86274510 0.97254902
v -0.06999808 -0.04398692 -0.00567660 0.72156863 0.86274510 0.97254902
v -0.06591620 -0.05677269 -0.00567660 0.72156863 0.86274510 0.97254902
v -0.06999808 -0.05677269 0.01693118 0.72156863 0.86274510 0.97254902
v -0.06860100 -0.04246021 -0.00567660 0.72156863 0.86274510 0.97254902
v -0.06999808 -0.04425503 0.01218609 0.72156863 0.86274510 0.97254902
v -0.06297208 -0.04963609 -0.00567660 0.72156863 0.86274510 0.97254902
v -0.06579445 -0.05677269 0.00676950 0.72156863 0.86274510 0.97254902
v -0.06906257 -0.05677269 0.01691556 0.72156863 0.86274510 0.97254902
v -0.06906257 -0.05010401 0.01711411 0.72156863 0.86274510 0.97254902
v -0.06999808 -0.05374830 0.01702041 0.72156863 0.86274510 0.97254902
v -0.06372118 -0.03954341 -0.00567660 0.72156863 0.86274510 0.97254902
v -0.06635507 -0.04178736 0.01218609 0.72156863 0.86274510 0.97254902
v -0.06479083 -0.04073028 0.01218609 0.72156863 0.86274510 0.97254902
v -0.06999808 -0.04456242 0.01488992 0.72156863 0.86274510 0.97254902
v -0.06798466 -0.04308694 0.01489438 0.72156863 0.86274510 0.97254902
v -0.06635507 -0.04195643 0.01489438 0.72156863 0.86274510 0.97254902
v -0.06297208 -0.03932823 -0.00567660 0.72156863 0.86274510 0.97254902
v -0.06297208 -0.04953533 0.00630994 0.72156863 0.86274510 0.97254902
v -0.06297208 -0.04951142 0.00664457 0.72156863 0.86274510 0.97254902
v -0.06297208 -0.04767049 0.01489438 0.72156863 0.86274510 0.97254902
v -0.06297208 -0.04756803 0.01521563 0.72156863 0.86274510 0.97254902
v -0.06599118 -0.05677269 0.00802326 0.72156863 0.86274510 0.97254902
v -0.06297208 -0.04471612 0.01698026 0.72156863 0.86274510 0.97254902
v -0.06297208 -0.04401424 0.01706503 0.72156863 0.86274510 0.97254902
v -0.06747838 -0.05677269 0.01648500 0.72156863 0.86274510 0.97254902
v -0.06635507 -0.04468880 0.01698249 0.72156863 0.86274510 0.97254902
v -0.06906257 -0.04739726 0.01693564 0.72156863 0.86274510 0.97254902
v -0.06999808 -0.05103984 0.01703826 0.72156863 0.86274510 0.97254902
v -0.06333872 -0.04017014 0.01489438 0.72156863 0.86274510 0.97254902
v -0.06297208 -0.04002499 0.01448167 0.72156863 0.86274510 0.97254902
v -0.06297208 -0.03994472 0.01218609 0.72156863 0.86274510 0.97254902
v -0.06469246 -0.04084982 0.01489438 0.72156863 0.86274510 0.97254902
v -0.06999808 -0.04559560 0.01637792 0.72156863 0.86274510 0.97254902
v -0.06785534 -0.04320307 0.01636453 0.72156863 0.86274510 0.97254902
v -0.06714407 -0.05677269 0.01489438 0.72156863 0.86274510 0.97254902
v -0.06297208 -0.04689689 0.01656754 0.72156863 0.86274510 0.97254902
v -0.06297208 -0.04657925 0.01665901 0.72156863 0.86274510 0.97254902
v -0.06297208 -0.04188300 0.01683302 0.72156863 0.86274510 0.97254902
v -0.06375489 -0.04184543 0.01673932 0.72156863 0.86274510 0.97254902
v -0.06635507 -0.04273003 0.01655193 0.72156863 0.86274510 0.97254902
v -0.06887959 -0.04491934 0.01652069 0.72156863 0.86274510 0.97254902
v -0.06999808 -0.04620355 0.01651177 0.72156863 0.86274510 0.97254902
v -0.06999808 -0.04739726 0.01673040 0.72156863 0.86274510 0.97254902
v -0.06999808 -0.04832797 0.01683748 0.72156863 0.86274510 0.97254902
v -0.06297208 -0.04037507 0.01644484 0.72156863 0.86274510 0.97254902
v -0.06297208 -0.04034092 0.01630430 0.72156863 0.86274510 0.97254902
v -0.06297208 -0.04005402 0.01489438 0.72156863 0.86274510 0.97254902
v -0.06297208 -0.04044850 0.01650285 0.72156863 0.86274510 0.97254902
f 1 2 5
f 1 5 12
f 1 12 18
f 1 18 7
f 1 7 3
f 1 3 8
f 1 8 23
f 1 23 36
f 1 36 26
f 1 26 9
f 1 9 4
f 1 4 11
f 1 11 29
f 1 29 45
f 1 45 44
f 1 44 43
f 1 43 34
f 1 34 15
f 1 15 6
f 1 6 2
f 2 6 5
f 3 7 8
f 4 9 10
f 4 10 11
f 5 6 13
f 5 13 14
f 5 14 12
f 6 15 16
f 6 16 17
f 6 17 13
f 7 18 32
f 7 32 31
f 7 31 48
f 7 48 47
f 7 47 46
f 7 46 49
f 7 49 39
f 7 39 25
f 7 25 24
f 7 24 38
f 7 38 37
f 7 37 22
f 7 22 21
f 7 21 20
f 7 20 19
f 7 19 8
f 8 19 20
f 8 20 21
f 8 21 22
f 8 22 23
f 9 24 25
f 9 25 10
f 9 26 24
f 10 25 27
f 10 27 28
f 10 28 29
f 10 29 11
f 12 14 30
f 12 30 31
f 12 31 32
f 12 32 18
f 13 17 14
f 14 17 33
f 14 33 30
f 15 34 35
f 15 35 16
f 16 35 17
f 17 35 33
f 22 26 36
f 22 36 23
f 22 37 26
f 24 26 38
f 25 39 27
f 26 37 38
f 27 39 40
f 27 40 41
f 27 41 35
f 27 35 42
f 27 42 28
f 28 42 43
f 28 43 44
f 28 44 45
f 28 45 29
f 30 33 46
f 30 46 47
f 30 47 48
f 30 48 31
f 33 35 46
f 34 43 42
f 34 42 35
f 35 41 49
f 35 49 46
f 39 49 40
f 40 49 41