# https://github.com/mikedh/trimesh
v 0.03930070 0.07217028 -0.00730656 0.09019608 0.57254902 0.92549020
v 0.03930070 0.07217028 -0.00648663 0.09019608 0.57254902 0.92549020
v 0.03930070 0.08274009 -0.00730656 0.09019608 0.57254902 0.92549020
v 0.07050350 0.07217028 -0.00730656 0.09019608 0.57254902 0.92549020
v 0.03930070 0.07350910 0.01218542 0.09019608 0.57254902 0.92549020
v 0.04390705 0.07217028 0.01218542 0.09019608 0.57254902 0.92549020
v 0.03930070 0.08274009 0.01218542 0.09019608 0.57254902 0.92549020
v 0.07050350 0.08274009 -0.00730656 0.09019608 0.57254902 0.92549020
v 0.07050350 0.07217028 -0.00584837 0.09019608 0.57254902 0.92549020
v 0.03930070 0.07380500 0.01489384 0.09019608 0.57254902 0.92549020
v 0.04453018 0.07217028 0.01455439 0.09019608 0.57254902 0.92549020
v 0.03930070 0.08254041 0.01486754 0.09019608 0.57254902 0.92549020
v 0.07050350 0.08274009 0.01218542 0.09019608 0.57254902 0.92549020
v 0.07050350 0.07326699 0.01218542 0.09019608 0.57254902 0.92549020
v 0.06906783 0.07217028 0.01218542 0.09019608 0.57254902 0.92549020
v 0.03930070 0.07381742 0.01491296 0.09019608 0.57254902 0.92549020
v 0.04491506 0.07217028 0.01498946 0.09019608 0.57254902 0.92549020
v 0.04722435 0.07217028 0.01609625 0.09019608 0.57254902 0.92549020
v 0.03930070 0.08253834 0.01489384 0.09019608 0.57254902 0.92549020
v 0.07050350 0.08253834 0.01489384 0.09019608 0.57254902 0.92549020
v 0.07050350 0.07332079 0.01274240 0.09019608 0.57254902 0.92549020
v 0.06836833 0.07217028 0.01402131 0.09019608 0.57254902 0.92549020
v 0.07050350 0.07354738 0.01507551 0.09019608 0.57254902 0.92549020
v 0.03930070 0.07496793 0.01668192 0.09019608 0.57254902 0.92549020
v 0.04739846 0.07217028 0.01613689 0.09019608 0.57254902 0.92549020
v 0.03930070 0.08179340 0.01668192 0.09019608 0.57254902 0.92549020
v 0.07050350 0.08179340 0.01668192 0.09019608 0.57254902 0.92549020
v 0.06787654 0.07217028 0.01457829 0.09019608 0.57254902 0.92549020
v 0.07050350 0.07493585 0.01668192 0.09019608 0.57254902 0.92549020
v 0.06722591 0.07217028 0.01518070 0.09019608 0.57254902 0.92549020
v 0.03930070 0.07718825 0.01711459 0.09019608 0.57254902 0.92549020
v 0.05019037 0.07217028 0.01664367 0.09019608 0.57254902 0.92549020
v 0.05048972 0.07217028 0.01667474 0.09019608 0.57254902 0.92549020
v 0.05281428 0.07217028 0.01690423 0.09019608 0.57254902 0.92549020
v 0.03930070 0.07989589 0.01711459 0.09019608 0.57254902 0.92549020
v 0.07050350 0.07989589 0.01711459 0.09019608 0.57254902 0.92549020
v 0.06647753 0.07217028 0.01543409 0.09019608 0.57254902 0.92549020
v 0.07050350 0.07718825 0.01711459 0.09019608 0.57254902 0.92549020
v 0.05822704 0.07217028 0.01698551 0.09019608 0.57254902 0.92549020
v 0.06105255 0.07217028 0.01669626 0.09019608 0.57254902 0.92549020
v 0.06364591 0.07217028 0.01636876 0.09019608 0.57254902 0.92549020
v 0.05552066 0.07217028 0.01701898 0.09019608 0.57254902 0.92549020
v 0.05591776 0.07217028 0.01701419 0.09019608 0.57254902 0.92549020
f 1 2 5
f 1 5 10
f 1 10 16
f 1 16 24
f 1 24 31
f 1 31 35
f 1 35 26
f 1 26 19
f 1 19 12
f 1 12 7
f 1 7 3
f 1 3 8
f 1 8 4
f 1 4 9
f 1 9 15
f 1 15 22
f 1 22 28
f 1 28 30
f 1 30 37
f 1 37 41
f 1 41 40
f 1 40 39
f 1 39 43
f 1 43 42
f 1 42 34
f 1 34 33
f 1 33 32
f 1 32 25
f 1 25 18
f 1 18 17
f 1 17 11
f 1 11 6
f 1 6 2
f 2 6 5
f 3 7 13
f 3 13 8
f 4 8 13
f 4 13 20
f 4 20 27
f 4 27 36
f 4 36 38
f 4 38 29
f 4 29 23
f 4 23 21
f 4 21 14
f 4 14 9
f 5 6 11
f 5 11 10
f 7 12 13
f 9 14 15
f 10 11 17
f 10 17 18
f 10 18 16
f 12 19 20
f 12 20 13
f 14 21 15
f 15 21 23
f 15 23 22
f 16 18 24
f 18 25 24
f 19 26 27
f 19 27 20
f 22 23 28
f 23 29 30
f 23 30 28
f 24 25 32
f 24 32 33
f 24 33 34
f 24 34 31
f 26 35 36
f 26 36 27
f 29 37 30
f 29 38 39
f 29 39 40
f 29 40 41
f 29 41 37
f 31 34 42
f 31 42 38
f 31 38 36
f 31 36 35
f 38 42 43
f 38 43 39