# https://github.com/mikedh/trimesh
v 0.06270023 -0.06407231 -0.00575335 0.61568627 0.01176471 0.34509804
v 0.06933591 -0.06407231 -0.00575335 0.61568627 0.01176471 0.34509804
v 0.06335048 -0.06407231 -0.00404664 0.61568627 0.01176471 0.34509804
v 0.06554938 -0.05686729 -0.00575335 0.61568627 0.01176471 0.34509804
v 0.06933591 -0.06407231 -0.00404664 0.61568627 0.01176471 0.34509804
v 0.06933591 -0.05686729 -0.00575335 0.61568627 0.01176471 0.34509804
v 0.06645363 -0.05686729 -0.00404664 0.61568627 0.01176471 0.34509804
v 0.06933591 -0.05686729 -0.00404664 0.61568627 0.01176471 0.34509804
f 1 2 5
f 1 5 3
f 1 3 4
f 1 4 6
f 1 6 2
f 2 6 8
f 2 8 5
f 3 5 8
f 3 8 7
f 3 7 4
f 4 7 8
f 4 8 6