# https://github.com/mikedh/trimesh
v 0.06933462 -0.06407231 -0.00404664 0.90588235 0.77254902 0.32941176
v 0.06933462 -0.06825794 -0.00404664 0.90588235 0.77254902 0.32941176
v 0.06933462 -0.06407231 -0.00575335 0.90588235 0.77254902 0.32941176
v 0.06334886 -0.06407231 -0.00404664 0.90588235 0.77254902 0.32941176
v 0.06878435 -0.06877921 -0.00404664 0.90588235 0.77254902 0.32941176
v 0.06826896 -0.06931847 -0.00405299 0.90588235 0.77254902 0.32941176
v 0.06915120 -0.06914796 -0.00575335 0.90588235 0.77254902 0.32941176
v 0.06933462 -0.06889323 -0.00575335 0.90588235 0.77254902 0.32941176
v 0.06270042 -0.06407231 -0.00575335 0.90588235 0.77254902 0.32941176
v 0.05614114 -0.06619851 -0.00575335 0.90588235 0.77254902 0.32941176
v 0.05614114 -0.06654157 -0.00459728 0.90588235 0.77254902 0.32941176
v 0.05614114 -0.06671619 -0.00405031 0.90588235 0.77254902 0.32941176
v 0.05821433 -0.06666072 -0.00404664 0.90588235 0.77254902 0.32941176
v 0.06686488 -0.06931847 -0.00404664 0.90588235 0.77254902 0.32941176
v 0.06891352 -0.06931847 -0.00575335 0.90588235 0.77254902 0.32941176
v 0.06902074 -0.06924195 -0.00575335 0.90588235 0.77254902 0.32941176
v 0.05614114 -0.06931847 -0.00575335 0.90588235 0.77254902 0.32941176
v 0.05614114 -0.06910534 -0.00404664 0.90588235 0.77254902 0.32941176
v 0.05614114 -0.06931847 -0.00404664 0.90588235 0.77254902 0.32941176
f 1 2 8
f 1 8 3
f 1 3 9
f 1 9 4
f 1 4 13
f 1 13 18
f 1 18 19
f 1 19 14
f 1 14 5
f 1 5 2
f 2 5 6
f 2 6 7
f 2 7 8
f 3 8 7
f 3 7 16
f 3 16 15
f 3 15 17
f 3 17 10
f 3 10 9
f 4 9 10
f 4 10 11
f 4 11 12
f 4 12 13
f 5 14 6
f 6 15 16
f 6 16 7
f 6 14 19
f 6 19 17
f 6 17 15
f 10 17 19
f 10 19 18
f 10 18 12
f 10 12 11
f 12 18 13