# https://github.com/mikedh/trimesh
v -0.07085319 0.07268053 -0.00567660 0.79607843 0.45882353 0.78039216
v -0.07085319 0.08274009 -0.00567660 0.79607843 0.45882353 0.78039216
v -0.06959116 0.07211692 -0.00567660 0.79607843 0.45882353 0.78039216
v -0.06900869 0.07211692 0.01218647 0.79607843 0.45882353 0.78039216
v -0.07085319 0.07298104 0.01218647 0.79607843 0.45882353 0.78039216
v -0.07085319 0.08274009 0.01218647 0.79607843 0.45882353 0.78039216
v -0.01490084 0.08274009 -0.00567660 0.79607843 0.45882353 0.78039216
v -0.04283194 0.07211692 -0.00567660 0.79607843 0.45882353 0.78039216
v -0.06877986 0.07211692 0.01277543 0.79607843 0.45882353 0.78039216
v -0.07085319 0.07354672 0.01507552 0.79607843 0.45882353 0.78039216
v -0.07085319 0.08253835 0.01489482 0.79607843 0.45882353 0.78039216
v -0.01490084 0.08274009 0.01218647 0.79607843 0.45882353 0.78039216
v -0.00001997 0.08253835 0.01489482 0.79607843 0.45882353 0.78039216
v -0.00001997 0.08149019 -0.00567660 0.79607843 0.45882353 0.78039216
v -0.04396223 0.07211692 0.01259919 0.79607843 0.45882353 0.78039216
v -0.00001997 0.07318070 -0.00567660 0.79607843 0.45882353 0.78039216
v -0.06771892 0.07211692 0.01464941 0.79607843 0.45882353 0.78039216
v -0.07085319 0.07394187 0.01553286 0.79607843 0.45882353 0.78039216
v -0.06648463 0.07211692 0.01541016 0.79607843 0.45882353 0.78039216
v -0.07085319 0.08179383 0.01668179 0.79607843 0.45882353 0.78039216
v -0.00001997 0.08179383 0.01668179 0.79607843 0.45882353 0.78039216
v -0.04454470 0.07211692 0.01483904 0.79607843 0.45882353 0.78039216
v -0.00001997 0.07351137 0.01218647 0.79607843 0.45882353 0.78039216
v -0.07085319 0.07493597 0.01668179 0.79607843 0.45882353 0.78039216
v -0.06432807 0.07211692 0.01627576 0.79607843 0.45882353 0.78039216
v -0.07085319 0.07989608 0.01711459 0.79607843 0.45882353 0.78039216
v -0.00001997 0.07989608 0.01711459 0.79607843 0.45882353 0.78039216
v -0.04739468 0.07211692 0.01615306 0.79607843 0.45882353 0.78039216
v -0.00001997 0.07380669 0.01489482 0.79607843 0.45882353 0.78039216
v -0.07085319 0.07718830 0.01711459 0.79607843 0.45882353 0.78039216
v -0.06364159 0.07211692 0.01638954 0.79607843 0.45882353 0.78039216
v -0.06104819 0.07211692 0.01669518 0.79607843 0.45882353 0.78039216
v -0.06086096 0.07211692 0.01671526 0.79607843 0.45882353 0.78039216
v -0.05822595 0.07211692 0.01698520 0.79607843 0.45882353 0.78039216
v -0.00001997 0.07718830 0.01711459 0.79607843 0.45882353 0.78039216
v -0.05018223 0.07211692 0.01664387 0.79607843 0.45882353 0.78039216
v -0.00001997 0.07438173 0.01578050 0.79607843 0.45882353 0.78039216
v -0.05281031 0.07211692 0.01690265 0.79607843 0.45882353 0.78039216
v -0.05246360 0.07211692 0.01686919 0.79607843 0.45882353 0.78039216
v -0.05787924 0.07211692 0.01698966 0.79607843 0.45882353 0.78039216
v -0.05551466 0.07211692 0.01701866 0.79607843 0.45882353 0.78039216
v -0.00001997 0.07496821 0.01668179 0.79607843 0.45882353 0.78039216
f 1 2 7
f 1 7 14
f 1 14 16
f 1 16 8
f 1 8 3
f 1 3 4
f 1 4 5
f 1 5 10
f 1 10 18
f 1 18 24
f 1 24 30
f 1 30 26
f 1 26 20
f 1 20 11
f 1 11 6
f 1 6 2
f 2 6 12
f 2 12 7
f 3 8 15
f 3 15 22
f 3 22 28
f 3 28 36
f 3 36 39
f 3 39 38
f 3 38 41
f 3 41 40
f 3 40 34
f 3 34 33
f 3 33 32
f 3 32 31
f 3 31 25
f 3 25 19
f 3 19 17
f 3 17 9
f 3 9 4
f 4 9 5
f 5 9 10
f 6 11 13
f 6 13 12
f 7 12 13
f 7 13 14
f 8 16 15
f 9 17 10
f 10 17 19
f 10 19 18
f 11 20 21
f 11 21 13
f 13 21 27
f 13 27 35
f 13 35 42
f 13 42 37
f 13 37 29
f 13 29 23
f 13 23 16
f 13 16 14
f 15 16 22
f 16 23 22
f 18 19 24
f 19 25 24
f 20 26 27
f 20 27 21
f 22 23 28
f 23 29 28
f 24 25 31
f 24 31 32
f 24 32 33
f 24 33 34
f 24 34 30
f 26 30 35
f 26 35 27
f 28 29 36
f 29 37 38
f 29 38 39
f 29 39 36
f 30 34 40
f 30 40 41
f 30 41 35
f 35 41 42
f 37 42 38
f 38 42 41