# https://github.com/mikedh/trimesh
v 0.04269766 -0.07315631 -0.00404458 0.71372549 0.28627451 0.18039216
v 0.04277020 -0.07315631 0.01218651 0.71372549 0.28627451 0.18039216
v 0.04426672 -0.07085007 0.01218651 0.71372549 0.28627451 0.18039216
v 0.04425598 -0.07085007 -0.00303207 0.71372549 0.28627451 0.18039216
v 0.04425867 -0.07085007 -0.00404458 0.71372549 0.28627451 0.18039216
v 0.07014288 -0.07315631 -0.00404458 0.71372549 0.28627451 0.18039216
v 0.04287498 -0.07315631 0.01472088 0.71372549 0.28627451 0.18039216
v 0.04432852 -0.07085007 0.01317840 0.71372549 0.28627451 0.18039216
v 0.06771136 -0.07085007 -0.00404458 0.71372549 0.28627451 0.18039216
v 0.07014288 -0.07315631 0.00947893 0.71372549 0.28627451 0.18039216
v 0.04562085 -0.07315631 0.01571277 0.71372549 0.28627451 0.18039216
v 0.04680840 -0.07085007 0.01641390 0.71372549 0.28627451 0.18039216
v 0.04578743 -0.07085007 0.01601591 0.71372549 0.28627451 0.18039216
v 0.04495453 -0.07085007 0.01541995 0.71372549 0.28627451 0.18039216
v 0.04475840 -0.07085007 0.01487554 0.71372549 0.28627451 0.18039216
v 0.06771136 -0.07085007 0.00947893 0.71372549 0.28627451 0.18039216
v 0.07013751 -0.07315631 0.01218651 0.71372549 0.28627451 0.18039216
v 0.05020177 -0.07315631 0.01664073 0.71372549 0.28627451 0.18039216
v 0.04739680 -0.07085007 0.01653763 0.71372549 0.28627451 0.18039216
v 0.06769524 -0.07085007 0.01218651 0.71372549 0.28627451 0.18039216
v 0.06900907 -0.07315631 0.01480955 0.71372549 0.28627451 0.18039216
v 0.06691071 -0.07085007 0.01505701 0.71372549 0.28627451 0.18039216
v 0.05142693 -0.07315631 0.01676240 0.71372549 0.28627451 0.18039216
v 0.05016684 -0.07085007 0.01681189 0.71372549 0.28627451 0.18039216
v 0.06557808 -0.07085007 0.01652731 0.71372549 0.28627451 0.18039216
v 0.06638948 -0.07315631 0.01587980 0.71372549 0.28627451 0.18039216
v 0.05281330 -0.07315631 0.01689850 0.71372549 0.28627451 0.18039216
v 0.05281330 -0.07085007 0.01694181 0.71372549 0.28627451 0.18039216
v 0.06432874 -0.07085007 0.01668197 0.71372549 0.28627451 0.18039216
v 0.06106433 -0.07315631 0.01669641 0.71372549 0.28627451 0.18039216
v 0.06550554 -0.07100540 0.01650669 0.71372549 0.28627451 0.18039216
v 0.05413787 -0.07315631 0.01695830 0.71372549 0.28627451 0.18039216
v 0.05552155 -0.07315631 0.01702017 0.71372549 0.28627451 0.18039216
v 0.05552155 -0.07177143 0.01702017 0.71372549 0.28627451 0.18039216
v 0.05644042 -0.07085007 0.01699542 0.71372549 0.28627451 0.18039216
v 0.06364362 -0.07085007 0.01676446 0.71372549 0.28627451 0.18039216
v 0.05822711 -0.07315631 0.01698511 0.71372549 0.28627451 0.18039216
v 0.05914867 -0.07085007 0.01701398 0.71372549 0.28627451 0.18039216
f 1 2 3
f 1 3 4
f 1 4 5
f 1 5 9
f 1 9 6
f 1 6 10
f 1 10 17
f 1 17 21
f 1 21 26
f 1 26 30
f 1 30 37
f 1 37 33
f 1 33 32
f 1 32 27
f 1 27 23
f 1 23 18
f 1 18 11
f 1 11 7
f 1 7 2
f 2 7 3
f 3 8 15
f 3 15 14
f 3 14 13
f 3 13 12
f 3 12 19
f 3 19 24
f 3 24 28
f 3 28 35
f 3 35 38
f 3 38 36
f 3 36 29
f 3 29 25
f 3 25 22
f 3 22 20
f 3 20 16
f 3 16 9
f 3 9 5
f 3 5 4
f 3 7 8
f 6 9 16
f 6 16 10
f 7 11 12
f 7 12 13
f 7 13 14
f 7 14 15
f 7 15 8
f 10 16 17
f 11 18 19
f 11 19 12
f 16 20 17
f 17 20 22
f 17 22 21
f 18 23 19
f 19 23 24
f 21 25 26
f 21 22 25
f 23 27 24
f 24 27 28
f 25 29 30
f 25 30 31
f 25 31 26
f 26 31 30
f 27 32 28
f 28 32 33
f 28 33 34
f 28 34 35
f 29 36 30
f 30 36 37
f 33 37 38
f 33 38 34
f 34 38 35
f 36 38 37