# https://github.com/mikedh/trimesh
v -0.06691273 0.03660940 -0.00786035 0.28627451 0.61568627 0.42745098
v -0.06593556 0.03427424 -0.00786035 0.28627451 0.61568627 0.42745098
v -0.06691273 0.04153894 -0.00567681 0.28627451 0.61568627 0.42745098
v -0.06691273 0.05442448 -0.00786035 0.28627451 0.61568627 0.42745098
v -0.06351483 0.03398687 -0.00786035 0.28627451 0.61568627 0.42745098
v -0.06030016 0.03858483 -0.00567681 0.28627451 0.61568627 0.42745098
v -0.06093865 0.03870742 -0.00567681 0.28627451 0.61568627 0.42745098
v -0.06300515 0.03929221 -0.00567681 0.28627451 0.61568627 0.42745098
v -0.06371138 0.03954542 -0.00567681 0.28627451 0.61568627 0.42745098
v -0.06409670 0.03972830 -0.00567681 0.28627451 0.61568627 0.42745098
v -0.06691273 0.05442448 -0.00567681 0.28627451 0.61568627 0.42745098
v -0.06106524 0.05442448 -0.00786035 0.28627451 0.61568627 0.42745098
v -0.06087314 0.03392055 -0.00786035 0.28627451 0.61568627 0.42745098
v -0.05791053 0.03833363 -0.00567681 0.28627451 0.61568627 0.42745098
v -0.05823033 0.03834569 -0.00567681 0.28627451 0.61568627 0.42745098
v -0.06580786 0.05442448 -0.00567681 0.28627451 0.61568627 0.42745098
v -0.05853458 0.05250733 -0.00786035 0.28627451 0.61568627 0.42745098
v -0.05818591 0.03389845 -0.00786035 0.28627451 0.61568627 0.42745098
v -0.05556975 0.03827937 -0.00568066 0.28627451 0.61568627 0.42745098
v -0.05556975 0.03988102 -0.00567681 0.28627451 0.61568627 0.42745098
v -0.05556975 0.05007370 -0.00786035 0.28627451 0.61568627 0.42745098
v -0.05556975 0.04571288 -0.00567681 0.28627451 0.61568627 0.42745098
v -0.05556975 0.03389644 -0.00786035 0.28627451 0.61568627 0.42745098
f 1 2 3
f 1 3 11
f 1 11 4
f 1 4 12
f 1 12 17
f 1 17 21
f 1 21 23
f 1 23 18
f 1 18 13
f 1 13 5
f 1 5 2
f 2 5 6
f 2 6 7
f 2 7 8
f 2 8 9
f 2 9 10
f 2 10 3
f 3 10 9
f 3 9 8
f 3 8 7
f 3 7 6
f 3 6 15
f 3 15 14
f 3 14 20
f 3 20 22
f 3 22 16
f 3 16 11
f 4 11 16
f 4 16 12
f 5 13 14
f 5 14 15
f 5 15 6
f 12 16 17
f 13 18 19
f 13 19 14
f 14 19 20
f 16 21 17
f 16 22 21
f 18 23 19
f 19 23 21
f 19 21 22
f 19 22 20