# https://github.com/mikedh/trimesh
v -0.06410190 -0.06164107 -0.00135335 0.56470588 0.18039216 0.14117647
v -0.06448113 -0.06164107 -0.00323767 0.56470588 0.18039216 0.14117647
v -0.06591610 -0.05677487 -0.00567660 0.56470588 0.18039216 0.14117647
v -0.06579431 -0.05677487 0.00676971 0.56470588 0.18039216 0.14117647
v -0.06431028 -0.06164107 0.00713277 0.56470588 0.18039216 0.14117647
v -0.06453712 -0.06164107 -0.00343145 0.56470588 0.18039216 0.14117647
v -0.06530887 -0.06164107 -0.00567660 0.56470588 0.18039216 0.14117647
v -0.06999877 -0.05677487 -0.00567660 0.56470588 0.18039216 0.14117647
v -0.06599056 -0.05677487 0.00802370 0.56470588 0.18039216 0.14117647
v -0.06456021 -0.06164107 0.00947815 0.56470588 0.18039216 0.14117647
v -0.06999877 -0.06164107 -0.00567660 0.56470588 0.18039216 0.14117647
v -0.06999877 -0.05677487 0.01693079 0.56470588 0.18039216 0.14117647
v -0.06714385 -0.05677487 0.01489501 0.56470588 0.18039216 0.14117647
v -0.06747863 -0.05677487 0.01648532 0.56470588 0.18039216 0.14117647
v -0.06585780 -0.06164107 0.01489501 0.56470588 0.18039216 0.14117647
v -0.06999877 -0.06164107 0.01692188 0.56470588 0.18039216 0.14117647
v -0.06999877 -0.05822973 0.01695751 0.56470588 0.18039216 0.14117647
v -0.06906252 -0.06093747 0.01707334 0.56470588 0.18039216 0.14117647
v -0.06949544 -0.05677487 0.01692411 0.56470588 0.18039216 0.14117647
v -0.06906252 -0.05677487 0.01691742 0.56470588 0.18039216 0.14117647
v -0.06686043 -0.06164107 0.01667465 0.56470588 0.18039216 0.14117647
v -0.06906252 -0.06164107 0.01707779 0.56470588 0.18039216 0.14117647
v -0.06999877 -0.06097843 0.01695083 0.56470588 0.18039216 0.14117647
f 1 2 3
f 1 3 4
f 1 4 5
f 1 5 10
f 1 10 15
f 1 15 21
f 1 21 22
f 1 22 16
f 1 16 11
f 1 11 7
f 1 7 6
f 1 6 2
f 2 6 3
f 3 6 7
f 3 7 11
f 3 11 8
f 3 8 12
f 3 12 19
f 3 19 20
f 3 20 14
f 3 14 13
f 3 13 9
f 3 9 4
f 4 9 10
f 4 10 5
f 8 11 16
f 8 16 23
f 8 23 17
f 8 17 12
f 9 13 10
f 10 13 14
f 10 14 15
f 12 17 18
f 12 18 19
f 14 20 21
f 14 21 15
f 16 22 23
f 17 22 18
f 17 23 22
f 18 22 21
f 18 21 20
f 18 20 19