# https://github.com/mikedh/trimesh
v 0.07050277 0.06303580 0.00423978 0.12941176 0.05490196 0.29803922
v 0.06312343 0.06303580 0.00423978 0.12941176 0.05490196 0.29803922
v 0.07050277 0.05642315 0.00423978 0.12941176 0.05490196 0.29803922
v 0.07050277 0.06303580 -0.00195530 0.12941176 0.05490196 0.29803922
v 0.06616108 0.05642315 0.00423978 0.12941176 0.05490196 0.29803922
v 0.06306518 0.06303580 0.00406183 0.12941176 0.05490196 0.29803922
v 0.07050277 0.05589997 -0.00195530 0.12941176 0.05490196 0.29803922
v 0.07050277 0.06244069 -0.00462620 0.12941176 0.05490196 0.29803922
v 0.06433354 0.06303580 -0.00195530 0.12941176 0.05490196 0.29803922
v 0.06614652 0.05642315 0.00418943 0.12941176 0.05490196 0.29803922
v 0.06663289 0.05589997 -0.00195530 0.12941176 0.05490196 0.29803922
v 0.06590843 0.05642315 0.00135360 0.12941176 0.05490196 0.29803922
v 0.06592008 0.05642315 0.00225461 0.12941176 0.05490196 0.29803922
v 0.06611084 0.05642315 0.00406183 0.12941176 0.05490196 0.29803922
v 0.06356393 0.06244069 -0.00462620 0.12941176 0.05490196 0.29803922
v 0.06620477 0.05589997 -0.00462620 0.12941176 0.05490196 0.29803922
v 0.07050277 0.05589997 -0.00462620 0.12941176 0.05490196 0.29803922
f 1 2 5
f 1 5 3
f 1 3 7
f 1 7 17
f 1 17 8
f 1 8 4
f 1 4 9
f 1 9 6
f 1 6 2
f 2 6 5
f 3 5 11
f 3 11 7
f 4 8 15
f 4 15 9
f 5 10 11
f 5 6 10
f 6 12 13
f 6 13 14
f 6 14 10
f 6 9 15
f 6 15 16
f 6 16 12
f 7 11 16
f 7 16 17
f 8 17 16
f 8 16 15
f 10 14 11
f 11 14 16
f 12 16 13
f 13 16 14