# https://github.com/mikedh/trimesh
v -0.03896808 -0.06170661 -0.00567660 0.12941176 0.71372549 0.39215686
v -0.03949716 -0.06170661 0.01218371 0.12941176 0.71372549 0.39215686
v -0.03954416 -0.06371297 -0.00567660 0.12941176 0.71372549 0.39215686
v -0.04810801 -0.06170661 -0.00567660 0.12941176 0.71372549 0.39215686
v -0.03952748 -0.06170661 0.01305598 0.12941176 0.71372549 0.39215686
v -0.04246699 -0.06859252 -0.00567660 0.12941176 0.71372549 0.39215686
v -0.04017026 -0.06332667 0.01489198 0.12941176 0.71372549 0.39215686
v -0.04010962 -0.06342514 0.01218371 0.12941176 0.71372549 0.39215686
v -0.04073876 -0.06477842 0.01218371 0.12941176 0.71372549 0.39215686
v -0.05445396 -0.06609215 -0.00567660 0.12941176 0.71372549 0.39215686
v -0.05445396 -0.06574878 0.00135509 0.12941176 0.71372549 0.39215686
v -0.04835208 -0.06170661 0.00135732 0.12941176 0.71372549 0.39215686
v -0.03965634 -0.06170661 0.01489198 0.12941176 0.71372549 0.39215686
v -0.04399815 -0.07030432 -0.00567660 0.12941176 0.71372549 0.39215686
v -0.04426799 -0.07030432 0.01218594 0.12941176 0.71372549 0.39215686
v -0.04085852 -0.06468080 0.01489198 0.12941176 0.71372549 0.39215686
v -0.04036279 -0.06291682 0.01648705 0.12941176 0.71372549 0.39215686
v -0.05445396 -0.07030432 -0.00567660 0.12941176 0.71372549 0.39215686
v -0.05445396 -0.06641953 0.00947767 0.12941176 0.71372549 0.39215686
v -0.04678758 -0.06170661 0.01489198 0.12941176 0.71372549 0.39215686
v -0.03978217 -0.06170661 0.01551216 0.12941176 0.71372549 0.39215686
v -0.04134971 -0.06541887 0.01489421 0.12941176 0.71372549 0.39215686
v -0.04197430 -0.06635472 0.01489421 0.12941176 0.71372549 0.39215686
v -0.04464245 -0.07030432 0.01488306 0.12941176 0.71372549 0.39215686
v -0.04320983 -0.06784855 0.01635989 0.12941176 0.71372549 0.39215686
v -0.04021119 -0.06170661 0.01658297 0.12941176 0.71372549 0.39215686
v -0.04194549 -0.06170661 0.01698453 0.12941176 0.71372549 0.39215686
v -0.04184998 -0.06375000 0.01673690 0.12941176 0.71372549 0.39215686
v -0.04242000 -0.06541887 0.01661644 0.12941176 0.71372549 0.39215686
v -0.04273987 -0.06635472 0.01654728 0.12941176 0.71372549 0.39215686
v -0.05445396 -0.07030432 0.01700238 0.12941176 0.71372549 0.39215686
v -0.05445396 -0.06666696 0.01218594 0.12941176 0.71372549 0.39215686
v -0.05445396 -0.06700864 0.01489421 0.12941176 0.71372549 0.39215686
v -0.05445396 -0.06719379 0.01584902 0.12941176 0.71372549 0.39215686
v -0.04630398 -0.06170661 0.01644243 0.12941176 0.71372549 0.39215686
v -0.04579915 -0.07030432 0.01633312 0.12941176 0.71372549 0.39215686
v -0.04468793 -0.06635472 0.01698007 0.12941176 0.71372549 0.39215686
v -0.04492442 -0.06887529 0.01651382 0.12941176 0.71372549 0.39215686
v -0.04274897 -0.06170661 0.01707376 0.12941176 0.71372549 0.39215686
v -0.04366766 -0.06541887 0.01689306 0.12941176 0.71372549 0.39215686
v -0.05405374 -0.07030432 0.01702245 0.12941176 0.71372549 0.39215686
v -0.05445396 -0.06906213 0.01694884 0.12941176 0.71372549 0.39215686
v -0.05445396 -0.06742102 0.01651605 0.12941176 0.71372549 0.39215686
v -0.04626456 -0.06170661 0.01647589 0.12941176 0.71372549 0.39215686
v -0.04656927 -0.07030432 0.01650489 0.12941176 0.71372549 0.39215686
v -0.04739549 -0.06906213 0.01693099 0.12941176 0.71372549 0.39215686
v -0.05010306 -0.06906213 0.01711392 0.12941176 0.71372549 0.39215686
v -0.05281214 -0.06906213 0.01702469 0.12941176 0.71372549 0.39215686
v -0.04476372 -0.06170661 0.01682614 0.12941176 0.71372549 0.39215686
v -0.05134466 -0.07030432 0.01701576 0.12941176 0.71372549 0.39215686
v -0.05445396 -0.06836445 0.01677929 0.12941176 0.71372549 0.39215686
v -0.04550353 -0.06170661 0.01669898 0.12941176 0.71372549 0.39215686
v -0.04739549 -0.07030432 0.01665659 0.12941176 0.71372549 0.39215686
v -0.04863406 -0.07030432 0.01680160 0.12941176 0.71372549 0.39215686
f 1 2 3
f 1 3 6
f 1 6 14
f 1 14 18
f 1 18 10
f 1 10 4
f 1 4 12
f 1 12 20
f 1 20 35
f 1 35 44
f 1 44 52
f 1 52 49
f 1 49 39
f 1 39 27
f 1 27 26
f 1 26 21
f 1 21 13
f 1 13 5
f 1 5 2
f 2 5 3
f 3 5 7
f 3 7 8
f 3 8 9
f 3 9 6
f 4 10 11
f 4 11 12
f 5 13 7
f 6 9 15
f 6 15 14
f 7 16 9
f 7 9 8
f 7 13 17
f 7 17 16
f 9 16 15
f 10 18 31
f 10 31 42
f 10 42 51
f 10 51 43
f 10 43 34
f 10 34 33
f 10 33 32
f 10 32 19
f 10 19 11
f 11 19 20
f 11 20 12
f 13 21 17
f 14 15 24
f 14 24 36
f 14 36 45
f 14 45 53
f 14 53 54
f 14 54 50
f 14 50 41
f 14 41 31
f 14 31 18
f 15 16 22
f 15 22 23
f 15 23 24
f 16 17 25
f 16 25 22
f 17 26 27
f 17 27 28
f 17 28 29
f 17 29 30
f 17 30 25
f 17 21 26
f 19 32 20
f 20 32 33
f 20 33 34
f 20 34 35
f 22 25 23
f 23 25 24
f 24 25 36
f 25 30 37
f 25 37 38
f 25 38 36
f 27 39 37
f 27 37 40
f 27 40 28
f 28 40 29
f 29 40 37
f 29 37 30
f 31 41 42
f 34 43 35
f 35 43 44
f 36 38 45
f 37 46 38
f 37 39 47
f 37 47 46
f 38 46 45
f 39 48 47
f 39 49 42
f 39 42 48
f 41 50 47
f 41 47 48
f 41 48 42
f 42 49 51
f 43 51 52
f 43 52 44
f 45 46 53
f 46 47 50
f 46 50 54
f 46 54 53
f 49 52 51