# https://github.com/mikedh/trimesh
v 0.07050350 0.07046844 -0.00605258 0.18039216 0.78823529 0.05490196
v 0.07050350 0.07046844 -0.00730630 0.18039216 0.78823529 0.05490196
v 0.06751253 0.07046844 -0.00462707 0.18039216 0.78823529 0.05490196
v 0.07050350 0.06751153 -0.00462707 0.18039216 0.78823529 0.05490196
v 0.07050350 0.06146012 -0.00730630 0.18039216 0.78823529 0.05490196
v 0.05569939 0.07046844 -0.00730630 0.18039216 0.78823529 0.05490196
v 0.05569939 0.07046844 -0.00462707 0.18039216 0.78823529 0.05490196
v 0.07050350 0.06146012 -0.00462707 0.18039216 0.78823529 0.05490196
v 0.06049884 0.06146012 -0.00730630 0.18039216 0.78823529 0.05490196
v 0.05569939 0.06271591 -0.00730630 0.18039216 0.78823529 0.05490196
v 0.05569939 0.06567900 -0.00462707 0.18039216 0.78823529 0.05490196
v 0.06457374 0.06146012 -0.00462707 0.18039216 0.78823529 0.05490196
v 0.05902800 0.06180406 -0.00730630 0.18039216 0.78823529 0.05490196
f 1 2 6
f 1 6 7
f 1 7 3
f 1 3 4
f 1 4 8
f 1 8 5
f 1 5 2
f 2 5 9
f 2 9 13
f 2 13 10
f 2 10 6
f 3 7 11
f 3 11 12
f 3 12 8
f 3 8 4
f 5 8 12
f 5 12 9
f 6 10 11
f 6 11 7
f 9 12 13
f 10 13 12
f 10 12 11