# https://github.com/mikedh/trimesh
v -0.03889000 -0.07016599 -0.00737812 0.13725490 0.19607843 0.36862745
v -0.03889000 -0.08273886 -0.00737812 0.13725490 0.19607843 0.36862745
v -0.03889000 -0.07318027 -0.00567676 0.13725490 0.19607843 0.36862745
v -0.00001304 -0.07318027 -0.00567676 0.13725490 0.19607843 0.36862745
v -0.00001304 -0.07032353 -0.00737812 0.13725490 0.19607843 0.36862745
v -0.03889000 -0.08273886 -0.00567676 0.13725490 0.19607843 0.36862745
v -0.01489634 -0.08273886 -0.00737812 0.13725490 0.19607843 0.36862745
v -0.00001304 -0.08148834 -0.00567676 0.13725490 0.19607843 0.36862745
v -0.00001304 -0.08151050 -0.00737812 0.13725490 0.19607843 0.36862745
v -0.01489634 -0.08273886 -0.00567676 0.13725490 0.19607843 0.36862745
f 1 2 6
f 1 6 3
f 1 3 4
f 1 4 5
f 1 5 9
f 1 9 7
f 1 7 2
f 2 7 10
f 2 10 6
f 3 6 10
f 3 10 8
f 3 8 4
f 4 8 9
f 4 9 5
f 7 9 10
f 8 10 9