# https://github.com/mikedh/trimesh
v 0.05909114 -0.07084930 0.01701078 0.06666667 0.69411765 0.45098039
v 0.05909114 -0.07028086 0.01700459 0.06666667 0.69411765 0.45098039
v 0.05281297 -0.06906252 0.01702522 0.06666667 0.69411765 0.45098039
v 0.05644249 -0.07084930 0.01699428 0.06666667 0.69411765 0.45098039
v 0.05909114 -0.07084930 -0.00404457 0.06666667 0.69411765 0.45098039
v 0.05909114 -0.06906252 0.01698809 0.06666667 0.69411765 0.45098039
v 0.05909114 -0.06843122 0.01684989 0.06666667 0.69411765 0.45098039
v 0.05280929 -0.06728942 0.01659206 0.06666667 0.69411765 0.45098039
v 0.05280929 -0.06906690 0.01702315 0.06666667 0.69411765 0.45098039
v 0.05280929 -0.07084930 0.01694065 0.06666667 0.69411765 0.45098039
v 0.05280929 -0.07084930 -0.00404457 0.06666667 0.69411765 0.45098039
v 0.05909114 -0.06638919 -0.00404457 0.06666667 0.69411765 0.45098039
v 0.05909114 -0.06732385 0.01655494 0.06666667 0.69411765 0.45098039
v 0.05909114 -0.06705657 0.01600009 0.06666667 0.69411765 0.45098039
v 0.05280929 -0.06670348 0.01489452 0.06666667 0.69411765 0.45098039
v 0.05280929 -0.06590000 -0.00404457 0.06666667 0.69411765 0.45098039
v 0.05281666 -0.06585518 -0.00404457 0.06666667 0.69411765 0.45098039
v 0.05909114 -0.06592843 -0.00221502 0.06666667 0.69411765 0.45098039
v 0.05909114 -0.06679148 0.01489452 0.06666667 0.69411765 0.45098039
v 0.05280929 -0.06533593 0.00966368 0.06666667 0.69411765 0.45098039
v 0.05280929 -0.06585464 -0.00403839 0.06666667 0.69411765 0.45098039
v 0.05280929 -0.06532555 -0.00166017 0.06666667 0.69411765 0.45098039
v 0.05280929 -0.06526597 -0.00135284 0.06666667 0.69411765 0.45098039
v 0.05909114 -0.06577320 -0.00140647 0.06666667 0.69411765 0.45098039
v 0.05909114 -0.06646298 0.01218628 0.06666667 0.69411765 0.45098039
v 0.05909114 -0.06550155 0.00135540 0.06666667 0.69411765 0.45098039
f 1 2 3
f 1 3 4
f 1 4 10
f 1 10 11
f 1 11 5
f 1 5 12
f 1 12 18
f 1 18 24
f 1 24 26
f 1 26 25
f 1 25 19
f 1 19 14
f 1 14 13
f 1 13 7
f 1 7 6
f 1 6 2
f 2 6 3
f 3 6 7
f 3 7 8
f 3 8 9
f 3 9 10
f 3 10 4
f 5 11 16
f 5 16 17
f 5 17 12
f 7 13 8
f 8 13 14
f 8 14 15
f 8 15 20
f 8 20 23
f 8 23 22
f 8 22 21
f 8 21 16
f 8 16 11
f 8 11 10
f 8 10 9
f 12 17 18
f 14 19 20
f 14 20 15
f 16 21 17
f 17 21 22
f 17 22 18
f 18 22 23
f 18 23 24
f 19 25 20
f 20 25 26
f 20 26 23
f 23 26 24