# https://github.com/mikedh/trimesh
v 0.04824390 0.04014358 -0.00462707 0.69411765 0.28235294 0.37647059
v 0.04952468 0.03961771 -0.00462707 0.69411765 0.28235294 0.37647059
v 0.04834404 0.04040413 -0.00195586 0.69411765 0.28235294 0.37647059
v 0.04824390 0.04046269 -0.00195586 0.69411765 0.28235294 0.37647059
v 0.04824390 0.04959374 -0.00462707 0.69411765 0.28235294 0.37647059
v 0.05010523 0.03945039 -0.00462707 0.69411765 0.28235294 0.37647059
v 0.05010523 0.03968703 -0.00195586 0.69411765 0.28235294 0.37647059
v 0.04824390 0.05008137 -0.00195586 0.69411765 0.28235294 0.37647059
v 0.04824390 0.04992121 -0.00417603 0.69411765 0.28235294 0.37647059
v 0.05656128 0.04576444 -0.00462707 0.69411765 0.28235294 0.37647059
v 0.05214733 0.03887790 -0.00462707 0.69411765 0.28235294 0.37647059
v 0.05281256 0.03891615 -0.00195586 0.69411765 0.28235294 0.37647059
v 0.05221165 0.03908467 -0.00195586 0.69411765 0.28235294 0.37647059
v 0.04856145 0.05035864 -0.00195586 0.69411765 0.28235294 0.37647059
v 0.04824390 0.05068731 -0.00195847 0.69411765 0.28235294 0.37647059
v 0.04824390 0.04997380 -0.00403117 0.69411765 0.28235294 0.37647059
v 0.05656128 0.03851697 -0.00462707 0.69411765 0.28235294 0.37647059
v 0.05656128 0.04620903 -0.00195586 0.69411765 0.28235294 0.37647059
v 0.05281256 0.03876436 -0.00462707 0.69411765 0.28235294 0.37647059
v 0.05552070 0.03859346 -0.00195586 0.69411765 0.28235294 0.37647059
v 0.05656128 0.03863290 -0.00195586 0.69411765 0.28235294 0.37647059
v 0.05552070 0.03847872 -0.00462707 0.69411765 0.28235294 0.37647059
v 0.05474066 0.03853489 -0.00462707 0.69411765 0.28235294 0.37647059
f 1 2 3
f 1 3 4
f 1 4 8
f 1 8 15
f 1 15 16
f 1 16 9
f 1 9 5
f 1 5 10
f 1 10 17
f 1 17 22
f 1 22 23
f 1 23 19
f 1 19 11
f 1 11 6
f 1 6 2
f 2 6 7
f 2 7 3
f 3 7 13
f 3 13 12
f 3 12 20
f 3 20 21
f 3 21 18
f 3 18 14
f 3 14 8
f 3 8 4
f 5 9 10
f 6 11 12
f 6 12 13
f 6 13 7
f 8 14 15
f 9 16 10
f 10 16 15
f 10 15 18
f 10 18 21
f 10 21 17
f 11 19 12
f 12 19 20
f 14 18 15
f 17 21 20
f 17 20 22
f 19 23 20
f 20 23 22