# https://github.com/mikedh/trimesh
v -0.03942564 0.04902927 -0.00567660 0.58823529 0.57254902 0.65098039
v -0.03978769 0.04780720 -0.00567660 0.58823529 0.57254902 0.65098039
v -0.04943816 0.04902927 -0.00567660 0.58823529 0.57254902 0.65098039
v -0.04017897 0.04902927 0.01391767 0.58823529 0.57254902 0.65098039
v -0.04210127 0.04471468 -0.00567660 0.58823529 0.57254902 0.65098039
v -0.04045335 0.04842192 0.01489482 0.58823529 0.57254902 0.65098039
v -0.04128462 0.04706828 0.01489482 0.58823529 0.57254902 0.65098039
v -0.04119857 0.04699145 0.01218647 0.58823529 0.57254902 0.65098039
v -0.04255262 0.04509151 0.01218647 0.58823529 0.57254902 0.65098039
v -0.05601036 0.04573675 -0.00567660 0.58823529 0.57254902 0.65098039
v -0.05601036 0.04651567 -0.00118573 0.58823529 0.57254902 0.65098039
v -0.04998855 0.04902927 0.00135530 0.58823529 0.57254902 0.65098039
v -0.04022605 0.04902927 0.01489482 0.58823529 0.57254902 0.65098039
v -0.04471683 0.04210319 -0.00567660 0.58823529 0.57254902 0.65098039
v -0.04373620 0.04373682 0.01218647 0.58823529 0.57254902 0.65098039
v -0.04032834 0.04902927 0.01591658 0.58823529 0.57254902 0.65098039
v -0.04053940 0.04858297 0.01634046 0.58823529 0.57254902 0.65098039
v -0.04263867 0.04518308 0.01489482 0.58823529 0.57254902 0.65098039
v -0.05601036 0.03828859 -0.00567660 0.58823529 0.57254902 0.65098039
v -0.05601036 0.04650725 -0.00069716 0.58823529 0.57254902 0.65098039
v -0.05601036 0.04647041 0.00141999 0.58823529 0.57254902 0.65098039
v -0.05601036 0.04620621 0.00947812 0.58823529 0.57254902 0.65098039
v -0.04793636 0.04902927 0.01489482 0.58823529 0.57254902 0.65098039
v -0.04780648 0.03978643 -0.00567660 0.58823529 0.57254902 0.65098039
v -0.04509026 0.04255686 0.01218647 0.58823529 0.57254902 0.65098039
v -0.04382875 0.04382840 0.01489482 0.58823529 0.57254902 0.65098039
v -0.04518280 0.04264212 0.01489482 0.58823529 0.57254902 0.65098039
v -0.04046634 0.04902927 0.01639623 0.58823529 0.57254902 0.65098039
v -0.04101673 0.04902927 0.01657917 0.58823529 0.57254902 0.65098039
v -0.04200711 0.04756616 0.01664387 0.58823529 0.57254902 0.65098039
v -0.04292766 0.04552939 0.01652786 0.58823529 0.57254902 0.65098039
v -0.05552004 0.03827701 -0.00567660 0.58823529 0.57254902 0.65098039
v -0.05552004 0.03859068 0.01218647 0.58823529 0.57254902 0.65098039
v -0.05601036 0.03860963 0.01218647 0.58823529 0.57254902 0.65098039
v -0.05601036 0.04591885 0.01163989 0.58823529 0.57254902 0.65098039
v -0.04769283 0.04902927 0.01549271 0.58823529 0.57254902 0.65098039
v -0.05010383 0.03904540 -0.00567660 0.58823529 0.57254902 0.65098039
v -0.04699145 0.04120217 0.01218647 0.58823529 0.57254902 0.65098039
v -0.04706613 0.04128849 0.01489482 0.58823529 0.57254902 0.65098039
v -0.04841856 0.04044957 0.01489482 0.58823529 0.57254902 0.65098039
v -0.05010383 0.03969170 0.01218647 0.58823529 0.57254902 0.65098039
v -0.04553024 0.04293053 0.01652786 0.58823529 0.57254902 0.65098039
v -0.04857930 0.04053588 0.01634269 0.58823529 0.57254902 0.65098039
v -0.04199087 0.04902927 0.01682903 0.58823529 0.57254902 0.65098039
v -0.04465189 0.04465153 0.01675541 0.58823529 0.57254902 0.65098039
v -0.05281193 0.03849700 -0.00567660 0.58823529 0.57254902 0.65098039
v -0.05281193 0.03891699 0.01218647 0.58823529 0.57254902 0.65098039
v -0.05281193 0.03915172 0.01489482 0.58823529 0.57254902 0.65098039
v -0.05552004 0.03888541 0.01489482 0.58823529 0.57254902 0.65098039
v -0.05601036 0.03890225 0.01489482 0.58823529 0.57254902 0.65098039
v -0.05601036 0.04511361 0.01489482 0.58823529 0.57254902 0.65098039
v -0.04690378 0.04902927 0.01661040 0.58823529 0.57254902 0.65098039
v -0.05010383 0.03982327 0.01489482 0.58823529 0.57254902 0.65098039
v -0.04756619 0.04200846 0.01664610 0.58823529 0.57254902 0.65098039
v -0.05010383 0.04029062 0.01653455 0.58823529 0.57254902 0.65098039
v -0.04305431 0.04902927 0.01702089 0.58823529 0.57254902 0.65098039
v -0.04468923 0.04739564 0.01710567 0.58823529 0.57254902 0.65098039
v -0.04739734 0.04468732 0.01710567 0.58823529 0.57254902 0.65098039
v -0.05010383 0.04198004 0.01696735 0.58823529 0.57254902 0.65098039
v -0.05281193 0.04000537 0.01667956 0.58823529 0.57254902 0.65098039
v -0.05552004 0.03990327 0.01668179 0.58823529 0.57254902 0.65098039
v -0.05601036 0.03990958 0.01668179 0.58823529 0.57254902 0.65098039
v -0.05601036 0.04407681 0.01668179 0.58823529 0.57254902 0.65098039
v -0.04582411 0.04902927 0.01686696 0.58823529 0.57254902 0.65098039
v -0.04468923 0.04902927 0.01700305 0.58823529 0.57254902 0.65098039
v -0.05281193 0.04198004 0.01711236 0.58823529 0.57254902 0.65098039
v -0.05601036 0.04198004 0.01711459 0.58823529 0.57254902 0.65098039
v -0.05552004 0.04198004 0.01711459 0.58823529 0.57254902 0.65098039
f 1 2 5
f 1 5 14
f 1 14 24
f 1 24 37
f 1 37 46
f 1 46 32
f 1 32 19
f 1 19 10
f 1 10 3
f 1 3 12
f 1 12 23
f 1 23 36
f 1 36 52
f 1 52 64
f 1 64 65
f 1 65 56
f 1 56 44
f 1 44 29
f 1 29 28
f 1 28 16
f 1 16 13
f 1 13 4
f 1 4 2
f 2 4 6
f 2 6 7
f 2 7 8
f 2 8 9
f 2 9 5
f 3 10 11
f 3 11 12
f 4 13 6
f 5 9 15
f 5 15 14
f 6 13 16
f 6 16 17
f 6 17 7
f 7 18 9
f 7 9 8
f 7 17 18
f 9 18 15
f 10 19 34
f 10 34 50
f 10 50 62
f 10 62 67
f 10 67 63
f 10 63 51
f 10 51 35
f 10 35 22
f 10 22 21
f 10 21 20
f 10 20 11
f 11 20 12
f 12 20 21
f 12 21 22
f 12 22 23
f 14 15 25
f 14 25 24
f 15 18 26
f 15 26 27
f 15 27 25
f 16 28 17
f 17 28 29
f 17 29 30
f 17 30 31
f 17 31 18
f 18 31 26
f 19 32 33
f 19 33 34
f 22 35 23
f 23 35 36
f 24 25 38
f 24 38 39
f 24 39 40
f 24 40 41
f 24 41 37
f 25 27 39
f 25 39 38
f 26 31 42
f 26 42 27
f 27 42 43
f 27 43 39
f 29 44 30
f 30 44 45
f 30 45 31
f 31 45 42
f 32 46 33
f 33 47 48
f 33 48 49
f 33 49 50
f 33 50 34
f 33 46 47
f 35 51 36
f 36 51 52
f 37 41 47
f 37 47 46
f 39 43 40
f 40 43 53
f 40 53 41
f 41 53 47
f 42 45 54
f 42 54 43
f 43 54 55
f 43 55 48
f 43 48 53
f 44 56 45
f 45 56 57
f 45 57 58
f 45 58 59
f 45 59 54
f 47 53 48
f 48 55 60
f 48 60 49
f 49 60 61
f 49 61 62
f 49 62 50
f 51 63 52
f 52 63 64
f 54 59 55
f 55 59 60
f 56 65 57
f 57 66 58
f 57 65 67
f 57 67 68
f 57 68 66
f 58 66 59
f 59 66 60
f 60 66 61
f 61 66 68
f 61 68 67
f 61 67 62
f 63 67 65
f 63 65 64