# https://github.com/mikedh/trimesh
v 0.04636157 -0.05824329 -0.00404664 0.08235294 0.54901961 0.58431373
v 0.04600057 -0.05824329 -0.00575335 0.08235294 0.54901961 0.58431373
v 0.03868647 -0.05824329 -0.00404664 0.08235294 0.54901961 0.58431373
v 0.05552075 -0.06673111 -0.00404664 0.08235294 0.54901961 0.58431373
v 0.05613985 -0.06671593 -0.00405031 0.08235294 0.54901961 0.58431373
v 0.05613985 -0.06654138 -0.00459728 0.08235294 0.54901961 0.58431373
v 0.05613985 -0.06619771 -0.00575335 0.08235294 0.54901961 0.58431373
v 0.03832374 -0.05824329 -0.00575335 0.08235294 0.54901961 0.58431373
v 0.03857835 -0.06039533 -0.00575335 0.08235294 0.54901961 0.58431373
v 0.03920094 -0.06092223 -0.00404664 0.08235294 0.54901961 0.58431373
v 0.05613985 -0.06910540 -0.00404664 0.08235294 0.54901961 0.58431373
v 0.05613985 -0.06931898 -0.00575335 0.08235294 0.54901961 0.58431373
v 0.03868299 -0.06093849 -0.00575335 0.08235294 0.54901961 0.58431373
v 0.03920443 -0.06093849 -0.00404664 0.08235294 0.54901961 0.58431373
v 0.05613985 -0.06931898 -0.00404664 0.08235294 0.54901961 0.58431373
v 0.04329049 -0.06931898 -0.00575335 0.08235294 0.54901961 0.58431373
v 0.03929511 -0.06310354 -0.00575335 0.08235294 0.54901961 0.58431373
v 0.04009384 -0.06342445 -0.00404664 0.08235294 0.54901961 0.58431373
v 0.04430371 -0.06931898 -0.00404664 0.08235294 0.54901961 0.58431373
v 0.04392354 -0.06931898 -0.00446730 0.08235294 0.54901961 0.58431373
v 0.04286322 -0.06908697 -0.00575335 0.08235294 0.54901961 0.58431373
v 0.03951834 -0.06372693 -0.00575335 0.08235294 0.54901961 0.58431373
v 0.03967878 -0.06406627 -0.00575335 0.08235294 0.54901961 0.58431373
v 0.04073910 -0.06477747 -0.00404664 0.08235294 0.54901961 0.58431373
v 0.04303413 -0.06803751 -0.00404664 0.08235294 0.54901961 0.58431373
v 0.04419036 -0.06931898 -0.00404764 0.08235294 0.54901961 0.58431373
v 0.04244119 -0.06861862 -0.00575335 0.08235294 0.54901961 0.58431373
v 0.04201217 -0.06803751 -0.00575335 0.08235294 0.54901961 0.58431373
v 0.04179244 -0.06635383 -0.00404664 0.08235294 0.54901961 0.58431373
f 1 2 8
f 1 8 3
f 1 3 10
f 1 10 14
f 1 14 18
f 1 18 24
f 1 24 29
f 1 29 25
f 1 25 19
f 1 19 15
f 1 15 11
f 1 11 4
f 1 4 5
f 1 5 6
f 1 6 7
f 1 7 2
f 2 7 12
f 2 12 16
f 2 16 21
f 2 21 27
f 2 27 28
f 2 28 23
f 2 23 22
f 2 22 17
f 2 17 13
f 2 13 9
f 2 9 8
f 3 8 9
f 3 9 10
f 4 11 5
f 5 11 15
f 5 15 12
f 5 12 7
f 5 7 6
f 9 13 10
f 10 13 14
f 12 15 19
f 12 19 26
f 12 26 20
f 12 20 16
f 13 17 14
f 14 17 18
f 16 20 21
f 17 22 18
f 18 22 23
f 18 23 24
f 19 25 26
f 20 26 21
f 21 26 25
f 21 25 27
f 23 28 24
f 24 28 29
f 25 29 28
f 25 28 27