# https://github.com/mikedh/trimesh
v 0.06933591 -0.03928331 -0.00775669 0.67058824 0.20784314 0.12549020
v 0.08273959 -0.03928331 -0.00775669 0.67058824 0.20784314 0.12549020
v 0.06933591 -0.03928331 -0.00763613 0.67058824 0.20784314 0.12549020
v 0.06933591 -0.03665225 -0.00775669 0.67058824 0.20784314 0.12549020
v 0.08273959 -0.03928331 -0.00405063 0.67058824 0.20784314 0.12549020
v 0.08273959 -0.01489604 -0.00775669 0.67058824 0.20784314 0.12549020
v 0.06933591 -0.03899482 -0.00764121 0.67058824 0.20784314 0.12549020
v 0.07347143 -0.03928331 -0.00404664 0.67058824 0.20784314 0.12549020
v 0.07347273 0.00000943 -0.00404664 0.67058824 0.20784314 0.12549020
v 0.06935166 0.00000943 -0.00775669 0.67058824 0.20784314 0.12549020
v 0.08060754 -0.03928331 -0.00404664 0.67058824 0.20784314 0.12549020
v 0.08273959 -0.03926792 -0.00404664 0.67058824 0.20784314 0.12549020
v 0.08152465 0.00000943 -0.00775669 0.67058824 0.20784314 0.12549020
v 0.08273959 -0.01489604 -0.00404664 0.67058824 0.20784314 0.12549020
v 0.08139607 0.00000943 -0.00404664 0.67058824 0.20784314 0.12549020
v 0.08148923 0.00000943 -0.00406262 0.67058824 0.20784314 0.12549020
v 0.08148923 0.00000174 -0.00404664 0.67058824 0.20784314 0.12549020
f 1 2 5
f 1 5 11
f 1 11 8
f 1 8 3
f 1 3 7
f 1 7 4
f 1 4 10
f 1 10 13
f 1 13 6
f 1 6 2
f 2 6 14
f 2 14 12
f 2 12 5
f 3 8 9
f 3 9 10
f 3 10 7
f 4 7 10
f 5 12 11
f 6 13 14
f 8 11 12
f 8 12 14
f 8 14 17
f 8 17 15
f 8 15 9
f 9 15 16
f 9 16 13
f 9 13 10
f 13 16 14
f 14 16 17
f 15 17 16