# https://github.com/mikedh/trimesh
v 0.07050350 0.03671778 -0.00730656 0.11764706 0.63921569 0.14117647
v 0.07050350 0.03926953 -0.00724341 0.11764706 0.63921569 0.14117647
v 0.07050350 0.03926953 -0.00730656 0.11764706 0.63921569 0.14117647
v 0.07050590 0.00001328 -0.00730656 0.11764706 0.63921569 0.14117647
v 0.07328105 0.03926953 -0.00559072 0.11764706 0.63921569 0.14117647
v 0.07328105 0.00002096 -0.00559072 0.11764706 0.63921569 0.14117647
v 0.08273959 0.03926953 -0.00730656 0.11764706 0.63921569 0.14117647
v 0.08150832 0.00001328 -0.00730656 0.11764706 0.63921569 0.14117647
v 0.07327985 0.00001328 -0.00559543 0.11764706 0.63921569 0.14117647
v 0.08273959 0.03926953 -0.00559072 0.11764706 0.63921569 0.14117647
v 0.07351222 0.00001328 -0.00559072 0.11764706 0.63921569 0.14117647
v 0.08273959 0.01489722 -0.00730656 0.11764706 0.63921569 0.14117647
v 0.08148915 0.00001328 -0.00559072 0.11764706 0.63921569 0.14117647
v 0.08273959 0.01489722 -0.00559072 0.11764706 0.63921569 0.14117647
f 1 2 3
f 1 3 7
f 1 7 12
f 1 12 8
f 1 8 4
f 1 4 2
f 2 5 10
f 2 10 7
f 2 7 3
f 2 4 6
f 2 6 5
f 4 8 13
f 4 13 11
f 4 11 9
f 4 9 6
f 5 6 11
f 5 11 13
f 5 13 14
f 5 14 10
f 6 9 11
f 7 10 14
f 7 14 12
f 8 12 14
f 8 14 13