# https://github.com/mikedh/trimesh
v 0.05082870 0.03947970 -0.00195586 0.49411765 0.63921569 0.36470588
v 0.05221178 0.03908431 -0.00195586 0.49411765 0.63921569 0.36470588
v 0.05082870 0.03948445 0.00424065 0.49411765 0.63921569 0.36470588
v 0.05082870 0.04812159 -0.00195586 0.49411765 0.63921569 0.36470588
v 0.05281303 0.03891553 -0.00195586 0.49411765 0.63921569 0.36470588
v 0.05281303 0.03891742 0.00424065 0.49411765 0.63921569 0.36470588
v 0.05082870 0.04729097 0.00424065 0.49411765 0.63921569 0.36470588
v 0.05082870 0.04827710 -0.00135538 0.49411765 0.63921569 0.36470588
v 0.05806352 0.04657223 -0.00115461 0.49411765 0.63921569 0.36470588
v 0.05806352 0.04619580 -0.00195586 0.49411765 0.63921569 0.36470588
v 0.05491918 0.03866426 -0.00195586 0.49411765 0.63921569 0.36470588
v 0.05552113 0.03859029 0.00406232 0.49411765 0.63921569 0.36470588
v 0.05552113 0.03859029 0.00424065 0.49411765 0.63921569 0.36470588
v 0.05299150 0.03889562 0.00424065 0.49411765 0.63921569 0.36470588
v 0.05806352 0.04581178 0.00424065 0.49411765 0.63921569 0.36470588
v 0.05806352 0.04661680 0.00154514 0.49411765 0.63921569 0.36470588
v 0.05082870 0.04750431 0.00331809 0.49411765 0.63921569 0.36470588
v 0.05806210 0.04661775 0.00154150 0.49411765 0.63921569 0.36470588
v 0.05806352 0.04657508 -0.00099630 0.49411765 0.63921569 0.36470588
v 0.05806352 0.03868985 -0.00195586 0.49411765 0.63921569 0.36470588
v 0.05552113 0.03859314 -0.00195586 0.49411765 0.63921569 0.36470588
v 0.05806352 0.03868891 0.00389613 0.49411765 0.63921569 0.36470588
v 0.05806352 0.03868891 0.00424065 0.49411765 0.63921569 0.36470588
v 0.05806352 0.04661680 0.00151906 0.49411765 0.63921569 0.36470588
f 1 2 3
f 1 3 7
f 1 7 17
f 1 17 8
f 1 8 4
f 1 4 10
f 1 10 20
f 1 20 21
f 1 21 11
f 1 11 5
f 1 5 2
f 2 5 6
f 2 6 3
f 3 6 14
f 3 14 13
f 3 13 23
f 3 23 15
f 3 15 7
f 4 8 9
f 4 9 10
f 5 11 12
f 5 12 13
f 5 13 14
f 5 14 6
f 7 15 16
f 7 16 17
f 8 18 19
f 8 19 9
f 8 17 18
f 9 19 24
f 9 24 16
f 9 16 15
f 9 15 23
f 9 23 22
f 9 22 20
f 9 20 10
f 11 21 12
f 12 22 23
f 12 23 13
f 12 21 20
f 12 20 22
f 16 24 18
f 16 18 17
f 18 24 19