# https://github.com/mikedh/trimesh
v 0.05099775 -0.04843264 -0.00575335 0.07843137 0.40392157 0.23137255
v 0.05098777 -0.04843264 -0.00569588 0.07843137 0.40392157 0.23137255
v 0.04636054 -0.05824329 -0.00404664 0.07843137 0.40392157 0.23137255
v 0.04599893 -0.05824329 -0.00575335 0.07843137 0.40392157 0.23137255
v 0.03957118 -0.04843264 -0.00575335 0.07843137 0.40392157 0.23137255
v 0.05069724 -0.04843264 -0.00404664 0.07843137 0.40392157 0.23137255
v 0.03868588 -0.05824329 -0.00404664 0.07843137 0.40392157 0.23137255
v 0.03832428 -0.05824329 -0.00575335 0.07843137 0.40392157 0.23137255
v 0.03901880 -0.05010472 -0.00575335 0.07843137 0.40392157 0.23137255
v 0.03967343 -0.05010472 -0.00404664 0.07843137 0.40392157 0.23137255
v 0.03967716 -0.05009512 -0.00404664 0.07843137 0.40392157 0.23137255
v 0.04036795 -0.04843264 -0.00404664 0.07843137 0.40392157 0.23137255
v 0.03868339 -0.05822888 -0.00404664 0.07843137 0.40392157 0.23137255
v 0.03832303 -0.05822888 -0.00575335 0.07843137 0.40392157 0.23137255
v 0.03848139 -0.05281310 -0.00575335 0.07843137 0.40392157 0.23137255
v 0.03891406 -0.05281310 -0.00404664 0.07843137 0.40392157 0.23137255
v 0.03891781 -0.05279773 -0.00404664 0.07843137 0.40392157 0.23137255
v 0.03858738 -0.05552051 -0.00404664 0.07843137 0.40392157 0.23137255
v 0.03831555 -0.05803296 -0.00575335 0.07843137 0.40392157 0.23137255
v 0.03826069 -0.05552051 -0.00575335 0.07843137 0.40392157 0.23137255
f 1 2 3
f 1 3 4
f 1 4 8
f 1 8 14
f 1 14 19
f 1 19 20
f 1 20 15
f 1 15 9
f 1 9 5
f 1 5 12
f 1 12 6
f 1 6 2
f 2 6 3
f 3 6 12
f 3 12 11
f 3 11 10
f 3 10 17
f 3 17 16
f 3 16 18
f 3 18 13
f 3 13 7
f 3 7 8
f 3 8 4
f 5 9 10
f 5 10 11
f 5 11 12
f 7 13 8
f 8 13 14
f 9 15 16
f 9 16 17
f 9 17 10
f 13 18 19
f 13 19 14
f 15 20 18
f 15 18 16
f 18 20 19