# https://github.com/mikedh/trimesh
v -0.04825155 -0.05186310 -0.00567660 0.53333333 0.58823529 0.72941176
v -0.05486548 -0.04758574 -0.00567660 0.53333333 0.58823529 0.72941176
v -0.04825155 -0.03960988 -0.00567660 0.53333333 0.58823529 0.72941176
v -0.04825155 -0.05080469 0.00406347 0.53333333 0.58823529 0.72941176
v -0.05486548 -0.04678564 0.00406347 0.53333333 0.58823529 0.72941176
v -0.05486548 -0.03833025 -0.00567660 0.53333333 0.58823529 0.72941176
v -0.04844773 -0.03952908 -0.00567660 0.53333333 0.58823529 0.72941176
v -0.04843478 -0.04045635 0.01489444 0.53333333 0.58823529 0.72941176
v -0.04825155 -0.04056895 0.01489444 0.53333333 0.58823529 0.72941176
v -0.04825155 -0.04858984 0.01489444 0.53333333 0.58823529 0.72941176
v -0.05486548 -0.04522650 0.01489444 0.53333333 0.58823529 0.72941176
v -0.05486548 -0.04647964 0.00630551 0.53333333 0.58823529 0.72941176
v -0.05329730 -0.03844417 -0.00567660 0.53333333 0.58823529 0.72941176
v -0.05486548 -0.03867599 0.01218614 0.53333333 0.58823529 0.72941176
v -0.05010462 -0.03904822 -0.00567660 0.53333333 0.58823529 0.72941176
v -0.05010462 -0.03969599 0.01218614 0.53333333 0.58823529 0.72941176
v -0.05010462 -0.03982845 0.01489444 0.53333333 0.58823529 0.72941176
v -0.04859083 -0.04054113 0.01633782 0.53333333 0.58823529 0.72941176
v -0.04825155 -0.04102993 0.01643821 0.53333333 0.58823529 0.72941176
v -0.04825155 -0.04718833 0.01669030 0.53333333 0.58823529 0.72941176
v -0.05161387 -0.04609681 0.01630659 0.53333333 0.58823529 0.72941176
v -0.05486548 -0.04421180 0.01667022 0.53333333 0.58823529 0.72941176
v -0.05281235 -0.03850246 -0.00567660 0.53333333 0.58823529 0.72941176
v -0.05486548 -0.03895682 0.01489444 0.53333333 0.58823529 0.72941176
v -0.05281235 -0.03915817 0.01489444 0.53333333 0.58823529 0.72941176
v -0.05281235 -0.03892370 0.01218614 0.53333333 0.58823529 0.72941176
v -0.05090619 -0.03882303 -0.00567660 0.53333333 0.58823529 0.72941176
v -0.05010462 -0.04029341 0.01652968 0.53333333 0.58823529 0.72941176
v -0.04825155 -0.04200224 0.01672823 0.53333333 0.58823529 0.72941176
v -0.04825155 -0.04468868 0.01705394 0.53333333 0.58823529 0.72941176
v -0.05486548 -0.04197972 0.01711417 0.53333333 0.58823529 0.72941176
v -0.05486548 -0.03993178 0.01668138 0.53333333 0.58823529 0.72941176
v -0.05281235 -0.04000993 0.01667915 0.53333333 0.58823529 0.72941176
v -0.05010462 -0.04197972 0.01696247 0.53333333 0.58823529 0.72941176
v -0.05281235 -0.04197972 0.01711194 0.53333333 0.58823529 0.72941176
f 1 2 6
f 1 6 13
f 1 13 23
f 1 23 27
f 1 27 15
f 1 15 7
f 1 7 3
f 1 3 9
f 1 9 19
f 1 19 29
f 1 29 30
f 1 30 20
f 1 20 10
f 1 10 4
f 1 4 5
f 1 5 2
f 2 5 12
f 2 12 11
f 2 11 22
f 2 22 31
f 2 31 32
f 2 32 24
f 2 24 14
f 2 14 6
f 3 7 8
f 3 8 9
f 4 10 11
f 4 11 12
f 4 12 5
f 6 14 13
f 7 15 16
f 7 16 8
f 8 16 17
f 8 17 18
f 8 18 9
f 9 18 19
f 10 20 21
f 10 21 11
f 11 21 22
f 13 14 23
f 14 24 25
f 14 25 26
f 14 26 23
f 15 27 26
f 15 26 16
f 16 26 17
f 17 25 18
f 17 26 25
f 18 28 19
f 18 25 28
f 19 28 29
f 20 30 31
f 20 31 22
f 20 22 21
f 23 26 27
f 24 32 33
f 24 33 25
f 25 33 28
f 28 33 34
f 28 34 29
f 29 34 30
f 30 34 35
f 30 35 31
f 31 35 32
f 32 35 33
f 33 35 34