# https://github.com/mikedh/trimesh
v -0.05601036 0.07211692 0.01701253 0.85490196 0.00784314 0.35686275
v -0.05823039 0.07211692 0.01698353 0.85490196 0.00784314 0.35686275
v -0.06364536 0.06906239 0.01708837 0.85490196 0.00784314 0.35686275
v -0.06093860 0.06906239 0.01707276 0.85490196 0.00784314 0.35686275
v -0.05601036 0.07177124 0.01701253 0.85490196 0.00784314 0.35686275
v -0.05601036 0.07211692 -0.00567660 0.85490196 0.00784314 0.35686275
v -0.06105483 0.07211692 0.01669576 0.85490196 0.00784314 0.35686275
v -0.06364536 0.07141545 0.01665561 0.85490196 0.00784314 0.35686275
v -0.06635356 0.06635489 0.01711291 0.85490196 0.00784314 0.35686275
v -0.06638262 0.06911293 0.01674707 0.85490196 0.00784314 0.35686275
v -0.06747520 0.06523362 0.01710176 0.85490196 0.00784314 0.35686275
v -0.05601036 0.06906239 0.01690768 0.85490196 0.00784314 0.35686275
v -0.05601036 0.07128203 0.01700584 0.85490196 0.00784314 0.35686275
v -0.05601036 0.06532526 -0.00567660 0.85490196 0.00784314 0.35686275
v -0.06959208 0.07211692 -0.00567660 0.85490196 0.00784314 0.35686275
v -0.06364536 0.07211692 0.01639014 0.85490196 0.00784314 0.35686275
v -0.06549925 0.07100104 0.01650391 0.85490196 0.00784314 0.35686275
v -0.06911262 0.06638387 0.01674707 0.85490196 0.00784314 0.35686275
v -0.06909083 0.06523362 0.01689207 0.85490196 0.00784314 0.35686275
v -0.06824234 0.06824434 0.01653738 0.85490196 0.00784314 0.35686275
v -0.06632015 0.06523362 0.01697238 0.85490196 0.00784314 0.35686275
v -0.05601036 0.06749368 0.01647714 0.85490196 0.00784314 0.35686275
v -0.05601036 0.06876927 0.01682961 0.85490196 0.00784314 0.35686275
v -0.05841055 0.06523362 -0.00567660 0.85490196 0.00784314 0.35686275
v -0.05601036 0.06585827 0.00406293 0.85490196 0.00784314 0.35686275
v -0.06026300 0.06523362 0.00676885 0.85490196 0.00784314 0.35686275
v -0.07085174 0.06802265 -0.00567660 0.85490196 0.00784314 0.35686275
v -0.07085174 0.06767899 0.01218738 0.85490196 0.00784314 0.35686275
v -0.06901092 0.07211692 0.01218738 0.85490196 0.00784314 0.35686275
v -0.06432967 0.07211692 0.01627414 0.85490196 0.00784314 0.35686275
v -0.06648433 0.07211692 0.01540861 0.85490196 0.00784314 0.35686275
v -0.06984343 0.06523362 0.01675376 0.85490196 0.00784314 0.35686275
v -0.07085174 0.06556986 0.01652399 0.85490196 0.00784314 0.35686275
v -0.06460282 0.06523362 0.01676714 0.85490196 0.00784314 0.35686275
v -0.05601036 0.06742428 0.01618268 0.85490196 0.00784314 0.35686275
v -0.06403909 0.06523362 0.01663776 0.85490196 0.00784314 0.35686275
v -0.07085174 0.06523362 -0.00567660 0.85490196 0.00784314 0.35686275
v -0.05601036 0.06717968 0.01489553 0.85490196 0.00784314 0.35686275
v -0.06275327 0.06523362 0.01489553 0.85490196 0.00784314 0.35686275
v -0.07085174 0.06690003 0.01505838 0.85490196 0.00784314 0.35686275
v -0.06878427 0.07211692 0.01277407 0.85490196 0.00784314 0.35686275
v -0.06772510 0.07211692 0.01465015 0.85490196 0.00784314 0.35686275
v -0.07085174 0.06523362 0.01656414 0.85490196 0.00784314 0.35686275
v -0.06284336 0.06523362 0.01507399 0.85490196 0.00784314 0.35686275
f 1 2 3
f 1 3 4
f 1 4 5
f 1 5 13
f 1 13 12
f 1 12 23
f 1 23 22
f 1 22 35
f 1 35 38
f 1 38 25
f 1 25 14
f 1 14 6
f 1 6 15
f 1 15 29
f 1 29 41
f 1 41 42
f 1 42 31
f 1 31 30
f 1 30 16
f 1 16 7
f 1 7 2
f 2 7 8
f 2 8 3
f 3 9 4
f 3 8 10
f 3 10 9
f 4 9 11
f 4 11 12
f 4 12 13
f 4 13 5
f 6 14 24
f 6 24 37
f 6 37 27
f 6 27 15
f 7 16 8
f 8 16 17
f 8 17 10
f 9 10 18
f 9 18 19
f 9 19 11
f 10 17 20
f 10 20 18
f 11 19 32
f 11 32 43
f 11 43 37
f 11 37 24
f 11 24 26
f 11 26 39
f 11 39 44
f 11 44 36
f 11 36 34
f 11 34 21
f 11 21 22
f 11 22 23
f 11 23 12
f 14 25 26
f 14 26 24
f 15 27 28
f 15 28 29
f 16 30 17
f 17 30 31
f 17 31 20
f 18 32 19
f 18 20 33
f 18 33 32
f 20 31 33
f 21 34 22
f 22 34 36
f 22 36 35
f 25 38 39
f 25 39 26
f 27 37 43
f 27 43 33
f 27 33 40
f 27 40 28
f 28 40 29
f 29 40 41
f 31 42 33
f 32 33 43
f 33 42 40
f 35 36 44
f 35 44 38
f 38 44 39
f 40 42 41