# https://github.com/mikedh/trimesh
v 0.05290478 -0.04197997 0.01711291 0.57254902 0.58823529 0.56862745
v 0.05290478 -0.04000639 0.01668002 0.57254902 0.58823529 0.56862745
v 0.05281233 -0.04000905 0.01668002 0.57254902 0.58823529 0.56862745
v 0.05281233 -0.04197997 0.01711083 0.57254902 0.58823529 0.56862745
v 0.04739479 -0.04468783 0.01710462 0.57254902 0.58823529 0.56862745
v 0.04468806 -0.04739569 0.01710462 0.57254902 0.58823529 0.56862745
v 0.04197997 -0.05244295 0.01709219 0.57254902 0.58823529 0.56862745
v 0.04234839 -0.05244295 0.01708805 0.57254902 0.58823529 0.56862745
v 0.05290478 -0.04446781 0.01667381 0.57254902 0.58823529 0.56862745
v 0.05290478 -0.03997193 0.01661996 0.57254902 0.58823529 0.56862745
v 0.05290478 -0.03914884 0.01489463 0.57254902 0.58823529 0.56862745
v 0.05281233 -0.03915812 0.01489463 0.57254902 0.58823529 0.56862745
v 0.05010424 -0.04029269 0.01652882 0.57254902 0.58823529 0.56862745
v 0.05010424 -0.04197997 0.01696171 0.57254902 0.58823529 0.56862745
v 0.04465543 -0.04465602 0.01675458 0.57254902 0.58823529 0.56862745
v 0.04197997 -0.05010356 0.01696378 0.57254902 0.58823529 0.56862745
v 0.04027790 -0.05244295 0.01671937 0.57254902 0.58823529 0.56862745
v 0.04471933 -0.05244295 0.01664688 0.57254902 0.58823529 0.56862745
v 0.05290478 -0.04466265 0.01663445 0.57254902 0.58823529 0.56862745
v 0.05290478 -0.03913956 0.01480350 0.57254902 0.58823529 0.56862745
v 0.05281233 -0.03892352 0.01218755 0.57254902 0.58823529 0.56862745
v 0.05010424 -0.03982746 0.01489463 0.57254902 0.58823529 0.56862745
v 0.04858977 -0.04054187 0.01633827 0.57254902 0.58823529 0.56862745
v 0.04757016 -0.04200913 0.01664067 0.57254902 0.58823529 0.56862745
v 0.04553638 -0.04293163 0.01652675 0.57254902 0.58823529 0.56862745
v 0.04293297 -0.04553611 0.01652675 0.57254902 0.58823529 0.56862745
v 0.04200988 -0.04757065 0.01664274 0.57254902 0.58823529 0.56862745
v 0.04029421 -0.05010356 0.01653089 0.57254902 0.58823529 0.56862745
v 0.04004814 -0.05244295 0.01665931 0.57254902 0.58823529 0.56862745
v 0.04484984 -0.05244295 0.01661581 0.57254902 0.58823529 0.56862745
v 0.04495996 -0.05244295 0.01656818 0.57254902 0.58823529 0.56862745
v 0.04608969 -0.05159334 0.01629892 0.57254902 0.58823529 0.56862745
v 0.04582459 -0.05244295 0.01553671 0.57254902 0.58823529 0.56862745
v 0.05290478 -0.04569251 0.01514939 0.57254902 0.58823529 0.56862745
v 0.05290478 -0.03891291 0.01218755 0.57254902 0.58823529 0.56862745
v 0.05010424 -0.03969624 0.01218755 0.57254902 0.58823529 0.56862745
v 0.05290478 -0.03890363 -0.00404664 0.57254902 0.58823529 0.56862745
v 0.05281233 -0.03891556 -0.00404664 0.57254902 0.58823529 0.56862745
v 0.05279602 -0.03891954 -0.00404664 0.57254902 0.58823529 0.56862745
v 0.05010424 -0.03967371 -0.00404664 0.57254902 0.58823529 0.56862745
v 0.04843344 -0.04045704 0.01489463 0.57254902 0.58823529 0.56862745
v 0.04707939 -0.04129207 0.01489463 0.57254902 0.58823529 0.56862745
v 0.04519243 -0.04264666 0.01489463 0.57254902 0.58823529 0.56862745
v 0.04383838 -0.04383822 0.01489463 0.57254902 0.58823529 0.56862745
v 0.04264747 -0.04519149 0.01489463 0.57254902 0.58823529 0.56862745
v 0.04054164 -0.04858858 0.01633827 0.57254902 0.58823529 0.56862745
v 0.03931266 -0.05244295 0.01511832 0.57254902 0.58823529 0.56862745
v 0.04746956 -0.05244295 0.00676925 0.57254902 0.58823529 0.56862745
v 0.05290478 -0.04687347 0.00687903 0.57254902 0.58823529 0.56862745
v 0.04835730 -0.04041330 0.01218755 0.57254902 0.58823529 0.56862745
v 0.05009337 -0.03967769 -0.00404664 0.57254902 0.58823529 0.56862745
v 0.05290478 -0.04730291 -0.00404664 0.57254902 0.58823529 0.56862745
v 0.04700326 -0.04120724 0.01218755 0.57254902 0.58823529 0.56862745
v 0.04510134 -0.04256183 0.01218755 0.57254902 0.58823529 0.56862745
v 0.04374730 -0.04374677 0.01218755 0.57254902 0.58823529 0.56862745
v 0.04129343 -0.04707891 0.01489463 0.57254902 0.58823529 0.56862745
v 0.04256319 -0.04510137 0.01218755 0.57254902 0.58823529 0.56862745
v 0.04045599 -0.04843351 0.01489463 0.57254902 0.58823529 0.56862745
v 0.03982927 -0.05010356 0.01489463 0.57254902 0.58823529 0.56862745
v 0.03924877 -0.05244295 0.01489463 0.57254902 0.58823529 0.56862745
v 0.04728739 -0.05244295 -0.00404664 0.57254902 0.58823529 0.56862745
v 0.05290478 -0.04712530 0.00406424 0.57254902 0.58823529 0.56862745
v 0.05290478 -0.04712133 0.00413674 0.57254902 0.58823529 0.56862745
v 0.04835594 -0.04040005 -0.00404664 0.57254902 0.58823529 0.56862745
v 0.04700190 -0.04120591 -0.00404664 0.57254902 0.58823529 0.56862745
v 0.04510134 -0.04255918 -0.00404664 0.57254902 0.58823529 0.56862745
v 0.04374730 -0.04374677 -0.00135406 0.57254902 0.58823529 0.56862745
v 0.04256047 -0.04510137 -0.00404664 0.57254902 0.58823529 0.56862745
v 0.04120914 -0.04700336 0.01218755 0.57254902 0.58823529 0.56862745
v 0.04121458 -0.04699011 -0.00404664 0.57254902 0.58823529 0.56862745
v 0.04041384 -0.04835796 0.01218755 0.57254902 0.58823529 0.56862745
v 0.03969604 -0.05010356 0.01218755 0.57254902 0.58823529 0.56862745
v 0.03904621 -0.05244295 0.01255416 0.57254902 0.58823529 0.56862745
v 0.03901766 -0.05244295 -0.00404664 0.57254902 0.58823529 0.56862745
v 0.04375545 -0.04374014 -0.00404664 0.57254902 0.58823529 0.56862745
v 0.04374050 -0.04375472 -0.00404664 0.57254902 0.58823529 0.56862745
v 0.04120235 -0.04700867 -0.00404664 0.57254902 0.58823529 0.56862745
v 0.04040025 -0.04835530 -0.00404664 0.57254902 0.58823529 0.56862745
v 0.03967701 -0.05009295 -0.00404664 0.57254902 0.58823529 0.56862745
v 0.03902853 -0.05244295 0.01218755 0.57254902 0.58823529 0.56862745
v 0.03967293 -0.05010356 -0.00404664 0.57254902 0.58823529 0.56862745
f 1 2 3
f 1 3 4
f 1 4 5
f 1 5 6
f 1 6 7
f 1 7 8
f 1 8 9
f 1 9 19
f 1 19 34
f 1 34 49
f 1 49 63
f 1 63 62
f 1 62 52
f 1 52 37
f 1 37 35
f 1 35 20
f 1 20 11
f 1 11 10
f 1 10 2
f 2 10 3
f 3 10 11
f 3 11 12
f 3 12 13
f 3 13 14
f 3 14 4
f 4 14 5
f 5 14 15
f 5 15 6
f 6 15 16
f 6 16 7
f 7 16 17
f 7 17 29
f 7 29 47
f 7 47 60
f 7 60 73
f 7 73 80
f 7 80 74
f 7 74 61
f 7 61 48
f 7 48 33
f 7 33 31
f 7 31 30
f 7 30 18
f 7 18 8
f 8 18 9
f 9 18 19
f 11 20 12
f 12 20 21
f 12 21 22
f 12 22 23
f 12 23 13
f 13 24 14
f 13 23 24
f 14 24 15
f 15 24 25
f 15 25 26
f 15 26 27
f 15 27 16
f 16 27 28
f 16 28 17
f 17 28 29
f 18 30 19
f 19 30 31
f 19 31 32
f 19 32 33
f 19 33 34
f 20 35 21
f 21 36 22
f 21 35 37
f 21 37 38
f 21 38 39
f 21 39 40
f 21 40 36
f 22 41 23
f 22 36 41
f 23 41 42
f 23 42 43
f 23 43 25
f 23 25 24
f 25 43 44
f 25 44 26
f 26 44 45
f 26 45 46
f 26 46 27
f 27 46 28
f 28 46 47
f 28 47 29
f 31 33 32
f 33 48 34
f 34 48 49
f 36 50 41
f 36 40 51
f 36 51 50
f 37 52 61
f 37 61 74
f 37 74 81
f 37 81 79
f 37 79 78
f 37 78 77
f 37 77 70
f 37 70 68
f 37 68 76
f 37 76 75
f 37 75 66
f 37 66 65
f 37 65 64
f 37 64 51
f 37 51 40
f 37 40 39
f 37 39 38
f 41 50 53
f 41 53 42
f 42 53 54
f 42 54 43
f 43 54 55
f 43 55 44
f 44 55 45
f 45 56 46
f 45 55 57
f 45 57 56
f 46 56 58
f 46 58 59
f 46 59 60
f 46 60 47
f 48 61 52
f 48 52 62
f 48 62 63
f 48 63 49
f 50 51 64
f 50 64 53
f 53 64 65
f 53 65 66
f 53 66 54
f 54 66 55
f 55 66 67
f 55 67 68
f 55 68 57
f 56 57 69
f 56 69 58
f 57 68 70
f 57 70 69
f 58 69 71
f 58 71 72
f 58 72 59
f 59 72 73
f 59 73 60
f 66 75 67
f 67 75 76
f 67 76 68
f 69 70 77
f 69 77 78
f 69 78 71
f 71 78 79
f 71 79 72
f 72 80 73
f 72 79 81
f 72 81 80
f 74 80 81