# https://github.com/mikedh/trimesh
v 0.05003123 0.06361116 0.00670574 0.87058824 0.29019608 0.84705882
v 0.04642034 0.05646168 0.00885994 0.87058824 0.29019608 0.84705882
v 0.04656321 0.05646168 0.00810765 0.87058824 0.29019608 0.84705882
v 0.04671055 0.05646168 0.00677294 0.87058824 0.29019608 0.84705882
v 0.04650070 0.05642298 -0.00195586 0.87058824 0.29019608 0.84705882
v 0.04960038 0.06341133 -0.00195586 0.87058824 0.29019608 0.84705882
v 0.04987608 0.06361116 0.00432567 0.87058824 0.29019608 0.84705882
v 0.04819062 0.06361116 0.01489506 0.87058824 0.29019608 0.84705882
v 0.04512667 0.05646168 0.01489506 0.87058824 0.29019608 0.84705882
v 0.04606650 0.05642298 0.00424167 0.87058824 0.29019608 0.84705882
v 0.04648619 0.05642298 -0.00110837 0.87058824 0.29019608 0.84705882
v 0.03863153 0.05642298 -0.00195586 0.87058824 0.29019608 0.84705882
v 0.04010044 0.06341133 -0.00195586 0.87058824 0.29019608 0.84705882
v 0.04982027 0.06361116 0.00424167 0.87058824 0.29019608 0.84705882
v 0.04811137 0.06361116 0.01520494 0.87058824 0.29019608 0.84705882
v 0.04446365 0.05646168 0.01606176 0.87058824 0.29019608 0.84705882
v 0.03862930 0.05642298 0.00424167 0.87058824 0.29019608 0.84705882
v 0.04408637 0.05646168 0.01667965 0.87058824 0.29019608 0.84705882
v 0.04273131 0.05646168 0.01696339 0.87058824 0.29019608 0.84705882
v 0.04198012 0.05646168 0.01711459 0.87058824 0.29019608 0.84705882
v 0.03862930 0.05642298 0.00135571 0.87058824 0.29019608 0.84705882
v 0.03869515 0.05822988 -0.00195586 0.87058824 0.29019608 0.84705882
v 0.04019309 0.06361116 0.00424167 0.87058824 0.29019608 0.84705882
v 0.03921530 0.06093741 -0.00195586 0.87058824 0.29019608 0.84705882
v 0.03921865 0.06093741 0.01218644 0.87058824 0.29019608 0.84705882
v 0.04011272 0.06343526 0.01218644 0.87058824 0.29019608 0.84705882
v 0.04019309 0.06361116 0.01218644 0.87058824 0.29019608 0.84705882
v 0.04719275 0.06361116 0.01661805 0.87058824 0.29019608 0.84705882
v 0.03863042 0.05646168 0.01218644 0.87058824 0.29019608 0.84705882
v 0.04062617 0.05646168 0.01683085 0.87058824 0.29019608 0.84705882
v 0.03991962 0.05646168 0.01667965 0.87058824 0.29019608 0.84705882
v 0.03925660 0.05646168 0.01551481 0.87058824 0.29019608 0.84705882
v 0.03892174 0.05646168 0.01489506 0.87058824 0.29019608 0.84705882
v 0.03872864 0.05646168 0.01312540 0.87058824 0.29019608 0.84705882
v 0.04711796 0.06361116 0.01664045 0.87058824 0.29019608 0.84705882
v 0.04465229 0.06361116 0.01706233 0.87058824 0.29019608 0.84705882
v 0.04198012 0.05823058 0.01711459 0.87058824 0.29019608 0.84705882
v 0.04468800 0.06361116 0.01705673 0.87058824 0.29019608 0.84705882
v 0.03863042 0.05646168 0.00424167 0.87058824 0.29019608 0.84705882
v 0.03869292 0.05822988 0.00135571 0.87058824 0.29019608 0.84705882
v 0.03869292 0.05823058 0.00424167 0.87058824 0.29019608 0.84705882
v 0.03869292 0.05823058 0.01218644 0.87058824 0.29019608 0.84705882
v 0.03940840 0.06093741 0.01489506 0.87058824 0.29019608 0.84705882
v 0.04017300 0.06333675 0.01489506 0.87058824 0.29019608 0.84705882
v 0.04027792 0.06361116 0.01438171 0.87058824 0.29019608 0.84705882
v 0.03897309 0.05823058 0.01489506 0.87058824 0.29019608 0.84705882
v 0.03993971 0.05823058 0.01667965 0.87058824 0.29019608 0.84705882
v 0.04198012 0.06093741 0.01707539 0.87058824 0.29019608 0.84705882
v 0.04185287 0.06361116 0.01675245 0.87058824 0.29019608 0.84705882
v 0.04036387 0.06292231 0.01648551 0.87058824 0.29019608 0.84705882
v 0.04055250 0.06361116 0.01586576 0.87058824 0.29019608 0.84705882
v 0.04031029 0.06361116 0.01489506 0.87058824 0.29019608 0.84705882
v 0.04011272 0.06093741 0.01664231 0.87058824 0.29019608 0.84705882
v 0.04175799 0.06361116 0.01673192 0.87058824 0.29019608 0.84705882
v 0.04159280 0.06361116 0.01669458 0.87058824 0.29019608 0.84705882
f 1 2 3
f 1 3 4
f 1 4 5
f 1 5 6
f 1 6 7
f 1 7 14
f 1 14 23
f 1 23 27
f 1 27 45
f 1 45 52
f 1 52 51
f 1 51 55
f 1 55 54
f 1 54 49
f 1 49 36
f 1 36 38
f 1 38 35
f 1 35 28
f 1 28 15
f 1 15 8
f 1 8 9
f 1 9 2
f 2 10 3
f 2 9 10
f 3 10 4
f 4 10 11
f 4 11 5
f 5 11 10
f 5 10 17
f 5 17 21
f 5 21 12
f 5 12 22
f 5 22 24
f 5 24 13
f 5 13 6
f 6 13 23
f 6 23 14
f 6 14 7
f 8 15 9
f 9 15 16
f 9 16 10
f 10 16 18
f 10 18 19
f 10 19 20
f 10 20 17
f 12 21 40
f 12 40 22
f 13 24 25
f 13 25 26
f 13 26 27
f 13 27 23
f 15 28 18
f 15 18 16
f 17 29 39
f 17 39 21
f 17 20 30
f 17 30 31
f 17 31 32
f 17 32 33
f 17 33 34
f 17 34 29
f 18 28 35
f 18 35 19
f 19 35 20
f 20 36 37
f 20 37 30
f 20 35 38
f 20 38 36
f 21 39 40
f 22 40 24
f 24 40 41
f 24 41 42
f 24 42 25
f 25 43 44
f 25 44 26
f 25 42 43
f 26 44 45
f 26 45 27
f 29 34 46
f 29 46 42
f 29 42 41
f 29 41 39
f 30 37 47
f 30 47 31
f 31 47 32
f 32 47 46
f 32 46 33
f 33 46 34
f 36 48 37
f 36 49 48
f 37 48 47
f 39 41 40
f 42 46 43
f 43 46 50
f 43 50 44
f 44 50 51
f 44 51 52
f 44 52 45
f 46 47 53
f 46 53 50
f 47 48 53
f 48 49 54
f 48 54 55
f 48 55 50
f 48 50 53
f 50 55 51