# https://github.com/mikedh/trimesh
v 0.04001070 0.04932364 0.00424065 0.58431373 0.06274510 0.48235294
v 0.04036354 0.04846106 0.00424065 0.58431373 0.06274510 0.48235294
v 0.04001070 0.04932364 0.01218731 0.58431373 0.06274510 0.48235294
v 0.04847230 0.04932364 0.00424065 0.58431373 0.06274510 0.48235294
v 0.04041187 0.04834549 0.00424065 0.58431373 0.06274510 0.48235294
v 0.04041187 0.04834549 0.01218731 0.58431373 0.06274510 0.48235294
v 0.04045376 0.04842219 0.01489543 0.58431373 0.06274510 0.48235294
v 0.04011543 0.04932364 0.01489543 0.58431373 0.06274510 0.48235294
v 0.04925209 0.04932364 0.00677108 0.58431373 0.06274510 0.48235294
v 0.05646990 0.04624841 0.00769605 0.58431373 0.06274510 0.48235294
v 0.05646990 0.04568947 0.00424065 0.58431373 0.06274510 0.48235294
v 0.04046343 0.04825619 0.00424065 0.58431373 0.06274510 0.48235294
v 0.04119810 0.04699122 0.01218731 0.58431373 0.06274510 0.48235294
v 0.04053915 0.04858294 0.01634085 0.58431373 0.06274510 0.48235294
v 0.04128349 0.04706791 0.01489543 0.58431373 0.06274510 0.48235294
v 0.04041832 0.04932364 0.01643410 0.58431373 0.06274510 0.48235294
v 0.04936003 0.04932364 0.00948045 0.58431373 0.06274510 0.48235294
v 0.05646990 0.04638920 0.00948045 0.58431373 0.06274510 0.48235294
v 0.05646990 0.04634928 0.00866512 0.58431373 0.06274510 0.48235294
v 0.05646990 0.03862707 0.00424065 0.58431373 0.06274510 0.48235294
v 0.04119810 0.04699122 0.00424065 0.58431373 0.06274510 0.48235294
v 0.04255305 0.04509061 0.01218731 0.58431373 0.06274510 0.48235294
v 0.04263844 0.04518306 0.01489543 0.58431373 0.06274510 0.48235294
v 0.04292683 0.04552977 0.01652735 0.58431373 0.06274510 0.48235294
v 0.04200688 0.04756592 0.01664455 0.58431373 0.06274510 0.48235294
v 0.04198916 0.04932364 0.01686634 0.58431373 0.06274510 0.48235294
v 0.05646990 0.04618748 0.01118169 0.58431373 0.06274510 0.48235294
v 0.04773280 0.04932364 0.01489543 0.58431373 0.06274510 0.48235294
v 0.05646990 0.03862707 0.01218731 0.58431373 0.06274510 0.48235294
v 0.05552095 0.03859029 0.00424065 0.58431373 0.06274510 0.48235294
v 0.04255305 0.04509061 0.00424065 0.58431373 0.06274510 0.48235294
v 0.04373561 0.04373844 0.01218731 0.58431373 0.06274510 0.48235294
v 0.04382744 0.04382984 0.01489543 0.58431373 0.06274510 0.48235294
v 0.04553040 0.04293049 0.01652861 0.58431373 0.06274510 0.48235294
v 0.04465234 0.04465144 0.01675670 0.58431373 0.06274510 0.48235294
v 0.04468778 0.04739571 0.01710703 0.58431373 0.06274510 0.48235294
v 0.04468778 0.04932364 0.01698479 0.58431373 0.06274510 0.48235294
v 0.05646990 0.04514314 0.01489543 0.58431373 0.06274510 0.48235294
v 0.04679674 0.04932364 0.01658154 0.58431373 0.06274510 0.48235294
v 0.05646990 0.03872583 0.01313622 0.58431373 0.06274510 0.48235294
v 0.05552095 0.03859029 0.01218731 0.58431373 0.06274510 0.48235294
v 0.05281266 0.03891704 0.00424065 0.58431373 0.06274510 0.48235294
v 0.04373561 0.04373844 0.00424065 0.58431373 0.06274510 0.48235294
v 0.04509056 0.04255646 0.01218731 0.58431373 0.06274510 0.48235294
v 0.04518240 0.04264262 0.01489543 0.58431373 0.06274510 0.48235294
v 0.04858025 0.04053608 0.01634463 0.58431373 0.06274510 0.48235294
v 0.04756524 0.04200803 0.01664707 0.58431373 0.06274510 0.48235294
v 0.05010436 0.04197966 0.01696715 0.58431373 0.06274510 0.48235294
v 0.04739768 0.04468716 0.01710703 0.58431373 0.06274510 0.48235294
v 0.05281266 0.04197966 0.01711207 0.58431373 0.06274510 0.48235294
v 0.05552095 0.04197966 0.01711459 0.58431373 0.06274510 0.48235294
v 0.05646990 0.04197966 0.01711459 0.58431373 0.06274510 0.48235294
v 0.05646990 0.04274242 0.01696211 0.58431373 0.06274510 0.48235294
v 0.05646990 0.04409250 0.01668109 0.58431373 0.06274510 0.48235294
v 0.05646990 0.04448018 0.01605605 0.58431373 0.06274510 0.48235294
v 0.05646990 0.03891704 0.01489543 0.58431373 0.06274510 0.48235294
v 0.05552095 0.03888553 0.01489543 0.58431373 0.06274510 0.48235294
v 0.05281266 0.03915134 0.01489543 0.58431373 0.06274510 0.48235294
v 0.05281266 0.03891704 0.01218731 0.58431373 0.06274510 0.48235294
v 0.05028159 0.03964093 0.00424065 0.58431373 0.06274510 0.48235294
v 0.04509056 0.04255646 0.00424065 0.58431373 0.06274510 0.48235294
v 0.04699007 0.04120219 0.01218731 0.58431373 0.06274510 0.48235294
v 0.04706579 0.04128834 0.01489543 0.58431373 0.06274510 0.48235294
v 0.04841913 0.04044888 0.01489543 0.58431373 0.06274510 0.48235294
v 0.05010436 0.03982375 0.01489543 0.58431373 0.06274510 0.48235294
v 0.05010436 0.04029023 0.01653491 0.58431373 0.06274510 0.48235294
v 0.05281266 0.04000551 0.01667983 0.58431373 0.06274510 0.48235294
v 0.05552095 0.03990360 0.01668109 0.58431373 0.06274510 0.48235294
v 0.05646990 0.04063064 0.01683357 0.58431373 0.06274510 0.48235294
v 0.05646990 0.03925535 0.01552047 0.58431373 0.06274510 0.48235294
v 0.05646990 0.03991620 0.01668109 0.58431373 0.06274510 0.48235294
v 0.05010436 0.03969242 0.01218731 0.58431373 0.06274510 0.48235294
v 0.05010436 0.03969242 0.00424065 0.58431373 0.06274510 0.48235294
v 0.04699007 0.04120219 0.00424065 0.58431373 0.06274510 0.48235294
v 0.04834341 0.04040685 0.01218731 0.58431373 0.06274510 0.48235294
v 0.04845941 0.04035957 0.00424065 0.58431373 0.06274510 0.48235294
v 0.04834341 0.04040685 0.00424065 0.58431373 0.06274510 0.48235294
f 1 2 3
f 1 3 8
f 1 8 16
f 1 16 26
f 1 26 37
f 1 37 39
f 1 39 28
f 1 28 17
f 1 17 9
f 1 9 4
f 1 4 11
f 1 11 20
f 1 20 30
f 1 30 42
f 1 42 60
f 1 60 73
f 1 73 76
f 1 76 77
f 1 77 74
f 1 74 61
f 1 61 43
f 1 43 31
f 1 31 21
f 1 21 12
f 1 12 5
f 1 5 2
f 2 5 6
f 2 6 3
f 3 6 7
f 3 7 8
f 4 9 10
f 4 10 11
f 5 12 6
f 6 12 13
f 6 13 7
f 7 14 8
f 7 13 15
f 7 15 14
f 8 14 16
f 9 17 18
f 9 18 19
f 9 19 10
f 10 19 18
f 10 18 27
f 10 27 38
f 10 38 55
f 10 55 54
f 10 54 53
f 10 53 52
f 10 52 69
f 10 69 71
f 10 71 70
f 10 70 56
f 10 56 40
f 10 40 29
f 10 29 20
f 10 20 11
f 12 21 13
f 13 22 15
f 13 21 31
f 13 31 22
f 14 15 23
f 14 23 24
f 14 24 25
f 14 25 16
f 15 22 23
f 16 25 26
f 17 27 18
f 17 28 27
f 20 29 41
f 20 41 30
f 22 32 23
f 22 31 43
f 22 43 32
f 23 32 33
f 23 33 24
f 24 33 34
f 24 34 35
f 24 35 25
f 25 35 26
f 26 35 36
f 26 36 37
f 27 28 39
f 27 39 38
f 29 40 41
f 30 41 59
f 30 59 42
f 32 43 61
f 32 61 44
f 32 44 45
f 32 45 33
f 33 45 34
f 34 45 46
f 34 46 47
f 34 47 35
f 35 47 48
f 35 48 49
f 35 49 36
f 36 49 50
f 36 50 51
f 36 51 52
f 36 52 37
f 37 52 53
f 37 53 54
f 37 54 39
f 38 39 55
f 39 54 55
f 40 56 41
f 41 56 57
f 41 57 58
f 41 58 59
f 42 59 60
f 44 61 74
f 44 74 62
f 44 62 63
f 44 63 45
f 45 63 46
f 46 63 64
f 46 64 65
f 46 65 58
f 46 58 66
f 46 66 47
f 47 66 48
f 48 66 67
f 48 67 50
f 48 50 49
f 50 67 68
f 50 68 51
f 51 68 69
f 51 69 52
f 56 70 57
f 57 68 67
f 57 67 58
f 57 70 71
f 57 71 68
f 58 67 66
f 58 65 59
f 59 65 72
f 59 72 60
f 60 72 73
f 62 74 77
f 62 77 75
f 62 75 64
f 62 64 63
f 64 75 72
f 64 72 65
f 68 71 69
f 72 75 76
f 72 76 73
f 75 77 76