# https://github.com/mikedh/trimesh
v -0.08273959 0.07031740 -0.00567660 0.15686275 0.10980392 0.65490196
v -0.08273959 0.07989586 -0.00567660 0.15686275 0.10980392 0.65490196
v -0.07273575 0.07031740 -0.00567660 0.15686275 0.10980392 0.65490196
v -0.08273959 0.07031740 0.01218647 0.15686275 0.10980392 0.65490196
v -0.08199494 0.08199468 -0.00567660 0.15686275 0.10980392 0.65490196
v -0.08273959 0.07989586 0.01218647 0.15686275 0.10980392 0.65490196
v -0.07161878 0.07161974 -0.00567660 0.15686275 0.10980392 0.65490196
v -0.07085319 0.07298045 0.01218647 0.15686275 0.10980392 0.65490196
v -0.07326631 0.07031740 0.01218647 0.15686275 0.10980392 0.65490196
v -0.08253713 0.07031740 0.01489482 0.15686275 0.10980392 0.65490196
v -0.08074417 0.08243852 -0.00567660 0.15686275 0.10980392 0.65490196
v -0.08199494 0.08199468 0.01218647 0.15686275 0.10980392 0.65490196
v -0.08253713 0.07989586 0.01489482 0.15686275 0.10980392 0.65490196
v -0.08189372 0.08189375 0.01489482 0.15686275 0.10980392 0.65490196
v -0.07085319 0.07268010 -0.00567660 0.15686275 0.10980392 0.65490196
v -0.07085319 0.07354711 0.01507552 0.15686275 0.10980392 0.65490196
v -0.07354671 0.07031740 0.01507329 0.15686275 0.10980392 0.65490196
v -0.08179365 0.07031740 0.01668179 0.15686275 0.10980392 0.65490196
v -0.07989598 0.08273887 -0.00567660 0.15686275 0.10980392 0.65490196
v -0.07989598 0.08273887 0.01218647 0.15686275 0.10980392 0.65490196
v -0.08179365 0.07989586 0.01668179 0.15686275 0.10980392 0.65490196
v -0.08161215 0.08161165 0.01653678 0.15686275 0.10980392 0.65490196
v -0.07989598 0.08253824 0.01489482 0.15686275 0.10980392 0.65490196
v -0.07085319 0.08274009 -0.00567660 0.15686275 0.10980392 0.65490196
v -0.07085319 0.07394110 0.01553286 0.15686275 0.10980392 0.65490196
v -0.07085319 0.07493578 0.01668179 0.15686275 0.10980392 0.65490196
v -0.07423900 0.07031740 0.01587643 0.15686275 0.10980392 0.65490196
v -0.07989598 0.07031740 0.01711459 0.15686275 0.10980392 0.65490196
v -0.07718733 0.08274009 -0.00567660 0.15686275 0.10980392 0.65490196
v -0.07718733 0.08274009 0.01218647 0.15686275 0.10980392 0.65490196
v -0.07989598 0.07989586 0.01711459 0.15686275 0.10980392 0.65490196
v -0.07989598 0.08179283 0.01668179 0.15686275 0.10980392 0.65490196
v -0.07085319 0.08253824 0.01489482 0.15686275 0.10980392 0.65490196
v -0.07085319 0.08274009 0.01218647 0.15686275 0.10980392 0.65490196
v -0.07493594 0.07031740 0.01668179 0.15686275 0.10980392 0.65490196
v -0.07085319 0.07718782 0.01711459 0.15686275 0.10980392 0.65490196
v -0.07718733 0.07031740 0.01711459 0.15686275 0.10980392 0.65490196
v -0.07085319 0.07989586 0.01711459 0.15686275 0.10980392 0.65490196
v -0.07085319 0.08179283 0.01668179 0.15686275 0.10980392 0.65490196
f 1 2 5
f 1 5 11
f 1 11 19
f 1 19 29
f 1 29 24
f 1 24 15
f 1 15 7
f 1 7 3
f 1 3 9
f 1 9 17
f 1 17 27
f 1 27 35
f 1 35 37
f 1 37 28
f 1 28 18
f 1 18 10
f 1 10 4
f 1 4 6
f 1 6 2
f 2 6 12
f 2 12 5
f 3 7 8
f 3 8 9
f 4 10 13
f 4 13 6
f 5 12 11
f 6 13 14
f 6 14 12
f 7 15 8
f 8 16 17
f 8 17 9
f 8 15 24
f 8 24 34
f 8 34 33
f 8 33 39
f 8 39 38
f 8 38 36
f 8 36 26
f 8 26 25
f 8 25 16
f 10 18 21
f 10 21 13
f 11 12 20
f 11 20 19
f 12 14 20
f 13 21 22
f 13 22 14
f 14 22 23
f 14 23 20
f 16 25 17
f 17 25 26
f 17 26 27
f 18 28 31
f 18 31 21
f 19 20 30
f 19 30 29
f 20 23 30
f 21 31 22
f 22 31 32
f 22 32 23
f 23 32 39
f 23 39 33
f 23 33 34
f 23 34 30
f 24 29 30
f 24 30 34
f 26 35 27
f 26 36 35
f 28 37 36
f 28 36 38
f 28 38 31
f 31 38 39
f 31 39 32
f 35 36 37