# https://github.com/mikedh/trimesh
v 0.06933505 -0.04828314 -0.00404664 0.85882353 0.72549020 0.26666667
v 0.06933505 -0.05686729 -0.00404664 0.85882353 0.72549020 0.26666667
v 0.06933505 -0.04828314 -0.00575335 0.85882353 0.72549020 0.26666667
v 0.06208255 -0.04828314 -0.00404664 0.85882353 0.72549020 0.26666667
v 0.06645321 -0.05686729 -0.00404664 0.85882353 0.72549020 0.26666667
v 0.06933505 -0.05686729 -0.00575335 0.85882353 0.72549020 0.26666667
v 0.06043604 -0.04828314 -0.00575335 0.85882353 0.72549020 0.26666667
v 0.06112862 -0.04828314 -0.00474212 0.85882353 0.72549020 0.26666667
v 0.06554894 -0.05686729 -0.00575335 0.85882353 0.72549020 0.26666667
f 1 2 6
f 1 6 3
f 1 3 7
f 1 7 8
f 1 8 4
f 1 4 5
f 1 5 2
f 2 5 9
f 2 9 6
f 3 6 9
f 3 9 7
f 4 8 5
f 5 8 7
f 5 7 9