# https://github.com/mikedh/trimesh
v 0.05599389 -0.05133582 -0.00775669 0.49019608 0.22352941 0.25098039
v 0.06131372 -0.05544898 -0.00775669 0.49019608 0.22352941 0.25098039
v 0.06553249 -0.05544898 -0.00575335 0.49019608 0.22352941 0.25098039
v 0.05599389 -0.04750712 -0.00575335 0.49019608 0.22352941 0.25098039
v 0.05599389 -0.03423954 -0.00775669 0.49019608 0.22352941 0.25098039
v 0.06933591 -0.05544898 -0.00775669 0.49019608 0.22352941 0.25098039
v 0.06933591 -0.05544898 -0.00575335 0.49019608 0.22352941 0.25098039
v 0.05599389 -0.03828002 -0.00575335 0.49019608 0.22352941 0.25098039
v 0.05784466 -0.03424162 -0.00775669 0.49019608 0.22352941 0.25098039
v 0.06933591 -0.03665428 -0.00775669 0.49019608 0.22352941 0.25098039
v 0.06933591 -0.04330053 -0.00575335 0.49019608 0.22352941 0.25098039
v 0.05803405 -0.03832155 -0.00575335 0.49019608 0.22352941 0.25098039
v 0.06050915 -0.03428522 -0.00775669 0.49019608 0.22352941 0.25098039
v 0.06293331 -0.03456759 -0.00775669 0.49019608 0.22352941 0.25098039
v 0.06310833 -0.03929534 -0.00575335 0.49019608 0.22352941 0.25098039
v 0.06373396 -0.03951750 -0.00575335 0.49019608 0.22352941 0.25098039
v 0.06407224 -0.03967738 -0.00575335 0.49019608 0.22352941 0.25098039
v 0.06804285 -0.04200491 -0.00575335 0.49019608 0.22352941 0.25098039
v 0.06862669 -0.04243471 -0.00575335 0.49019608 0.22352941 0.25098039
v 0.06909297 -0.04285412 -0.00575335 0.49019608 0.22352941 0.25098039
v 0.05822997 -0.03832778 -0.00575335 0.49019608 0.22352941 0.25098039
v 0.06040074 -0.03857901 -0.00575335 0.49019608 0.22352941 0.25098039
v 0.06093886 -0.03868075 -0.00575335 0.49019608 0.22352941 0.25098039
f 1 2 3
f 1 3 4
f 1 4 8
f 1 8 5
f 1 5 9
f 1 9 13
f 1 13 14
f 1 14 10
f 1 10 6
f 1 6 2
f 2 6 7
f 2 7 3
f 3 7 11
f 3 11 20
f 3 20 19
f 3 19 18
f 3 18 17
f 3 17 16
f 3 16 15
f 3 15 23
f 3 23 22
f 3 22 21
f 3 21 12
f 3 12 8
f 3 8 4
f 5 8 9
f 6 10 11
f 6 11 7
f 8 12 13
f 8 13 9
f 10 14 15
f 10 15 16
f 10 16 17
f 10 17 18
f 10 18 19
f 10 19 20
f 10 20 11
f 12 21 13
f 13 21 22
f 13 22 14
f 14 22 23
f 14 23 15