# https://github.com/mikedh/trimesh
v 0.07989600 0.03926953 0.01711459 0.09411765 0.97254902 0.46666667
v 0.08179326 0.03926953 0.01668120 0.09411765 0.97254902 0.46666667
v 0.07718852 0.03926953 0.01711459 0.09411765 0.97254902 0.46666667
v 0.07989600 0.00001328 0.01711459 0.09411765 0.97254902 0.46666667
v 0.08253774 0.03926953 0.01489429 0.09411765 0.97254902 0.46666667
v 0.08179326 0.00001328 0.01668120 0.09411765 0.97254902 0.46666667
v 0.07496810 0.03926953 0.01668120 0.09411765 0.97254902 0.46666667
v 0.07718852 0.00001328 0.01711459 0.09411765 0.97254902 0.46666667
v 0.08273959 0.03926953 0.01218725 0.09411765 0.97254902 0.46666667
v 0.08253774 0.00001328 0.01489429 0.09411765 0.97254902 0.46666667
v 0.07380603 0.03926953 0.01489429 0.09411765 0.97254902 0.46666667
v 0.07439216 0.00001328 0.01579663 0.09411765 0.97254902 0.46666667
v 0.07496810 0.00001328 0.01668120 0.09411765 0.97254902 0.46666667
v 0.08273959 0.03926953 -0.00559072 0.09411765 0.97254902 0.46666667
v 0.08273959 0.01489722 0.01218725 0.09411765 0.97254902 0.46666667
v 0.08148956 0.00001328 -0.00559072 0.09411765 0.97254902 0.46666667
v 0.08273959 0.01489722 -0.00559072 0.09411765 0.97254902 0.46666667
v 0.07351065 0.03926953 0.01218725 0.09411765 0.97254902 0.46666667
v 0.07365973 0.00001328 0.01355411 0.09411765 0.97254902 0.46666667
v 0.07380603 0.00001328 0.01489429 0.09411765 0.97254902 0.46666667
v 0.07328009 0.03926953 -0.00559072 0.09411765 0.97254902 0.46666667
v 0.07351250 0.00001328 -0.00559072 0.09411765 0.97254902 0.46666667
v 0.07351065 0.00001328 0.01218725 0.09411765 0.97254902 0.46666667
v 0.07328009 0.00002096 -0.00559072 0.09411765 0.97254902 0.46666667
v 0.07337732 0.00001328 -0.00481951 0.09411765 0.97254902 0.46666667
f 1 2 5
f 1 5 9
f 1 9 14
f 1 14 21
f 1 21 18
f 1 18 11
f 1 11 7
f 1 7 3
f 1 3 8
f 1 8 4
f 1 4 6
f 1 6 2
f 2 6 10
f 2 10 5
f 3 7 13
f 3 13 8
f 4 8 13
f 4 13 12
f 4 12 20
f 4 20 19
f 4 19 23
f 4 23 25
f 4 25 22
f 4 22 16
f 4 16 10
f 4 10 6
f 5 10 15
f 5 15 9
f 7 11 12
f 7 12 13
f 9 15 17
f 9 17 14
f 10 16 17
f 10 17 15
f 11 18 19
f 11 19 20
f 11 20 12
f 14 17 16
f 14 16 22
f 14 22 24
f 14 24 21
f 18 21 24
f 18 24 23
f 18 23 19
f 22 25 24
f 23 24 25