# https://github.com/mikedh/trimesh
v 0.07026225 -0.02286516 -0.01676385 1.62352941 1.27058823 1.92941175
v 0.07026225 -0.02286516 0.01676388 1.62352941 1.27058823 1.92941175
v 0.07026225 -0.02283384 -0.01711812 1.62352941 1.27058823 1.92941175
v 0.07525398 -0.02286516 -0.01676385 1.62352941 1.27058823 1.92941175
v 0.07525398 -0.02286516 0.01676388 1.62352941 1.27058823 1.92941175
v 0.07026225 -0.02283384 0.01711818 1.62352941 1.27058823 1.92941175
v 0.07026225 -0.02282937 -0.01715916 1.62352941 1.27058823 1.92941175
v 0.07525398 -0.02282937 -0.01715916 1.62352941 1.27058823 1.92941175
v 0.07560747 -0.02280249 -0.01715916 1.62352941 1.27058823 1.92941175
v 0.07561176 -0.02283384 -0.01676385 1.62352941 1.27058823 1.92941175
v 0.07561176 -0.02283384 0.01676388 1.62352941 1.27058823 1.92941175
v 0.07560747 -0.02280249 0.01715919 1.62352941 1.27058823 1.92941175
v 0.07525398 -0.02282937 0.01715919 1.62352941 1.27058823 1.92941175
v 0.07026225 -0.02282937 0.01715919 1.62352941 1.27058823 1.92941175
v 0.07026225 -0.02274432 -0.01747989 1.62352941 1.27058823 1.92941175
v 0.07525398 -0.02272641 -0.01754328 1.62352941 1.27058823 1.92941175
v 0.07596093 -0.02275329 -0.01676385 1.62352941 1.27058823 1.92941175
v 0.07559022 -0.02269956 -0.01754328 1.62352941 1.27058823 1.92941175
v 0.07591782 -0.02261901 -0.01754328 1.62352941 1.27058823 1.92941175
v 0.07595232 -0.02271747 -0.01715916 1.62352941 1.27058823 1.92941175
v 0.07578852 -0.02279355 0.00000003 1.62352941 1.27058823 1.92941175
v 0.07596093 -0.02275329 0.01676388 1.62352941 1.27058823 1.92941175
v 0.07595232 -0.02271747 0.01715919 1.62352941 1.27058823 1.92941175
v 0.07591782 -0.02261901 0.01754334 1.62352941 1.27058823 1.92941175
v 0.07559022 -0.02269956 0.01754334 1.62352941 1.27058823 1.92941175
v 0.07525398 -0.02272641 0.01754334 1.62352941 1.27058823 1.92941175
v 0.07026225 -0.02272641 0.01754334 1.62352941 1.27058823 1.92941175
v 0.07026225 -0.02272641 -0.01754328 1.62352941 1.27058823 1.92941175
v 0.07026225 -0.02257425 -0.01786776 1.62352941 1.27058823 1.92941175
v 0.07525398 -0.02255637 -0.01790505 1.62352941 1.27058823 1.92941175
v 0.07556436 -0.02253399 -0.01790505 1.62352941 1.27058823 1.92941175
v 0.07627560 -0.02258322 -0.01715916 1.62352941 1.27058823 1.92941175
v 0.07629285 -0.02261454 -0.01676385 1.62352941 1.27058823 1.92941175
v 0.07586610 -0.02245791 -0.01790505 1.62352941 1.27058823 1.92941175
v 0.07615491 -0.02234154 -0.01790505 1.62352941 1.27058823 1.92941175
v 0.07623252 -0.02248923 -0.01754328 1.62352941 1.27058823 1.92941175
v 0.07629285 -0.02261454 0.01676388 1.62352941 1.27058823 1.92941175
v 0.07627560 -0.02258322 0.01715919 1.62352941 1.27058823 1.92941175
v 0.07623252 -0.02248923 0.01754334 1.62352941 1.27058823 1.92941175
v 0.07615491 -0.02234154 0.01790508 1.62352941 1.27058823 1.92941175
v 0.07586610 -0.02245791 0.01790508 1.62352941 1.27058823 1.92941175
v 0.07556436 -0.02253399 0.01790508 1.62352941 1.27058823 1.92941175
v 0.07525398 -0.02255637 0.01790508 1.62352941 1.27058823 1.92941175
v 0.07026225 -0.02256084 0.01789389 1.62352941 1.27058823 1.92941175
v 0.07026225 -0.02256084 -0.01789386 1.62352941 1.27058823 1.92941175
v 0.07026225 -0.02253399 -0.01793862 1.62352941 1.27058823 1.92941175
v 0.07026225 -0.02233707 -0.01822206 1.62352941 1.27058823 1.92941175
v 0.07525398 -0.02232813 -0.01823325 1.62352941 1.27058823 1.92941175
v 0.07552986 -0.02230575 -0.01823325 1.62352941 1.27058823 1.92941175
v 0.07579713 -0.02224308 -0.01823325 1.62352941 1.27058823 1.92941175
v 0.07657737 -0.02239974 -0.01715916 1.62352941 1.27058823 1.92941175
v 0.07659891 -0.02242659 -0.01676385 1.62352941 1.27058823 1.92941175
v 0.07644804 -0.02252055 0.00000003 1.62352941 1.27058823 1.92941175
v 0.07605147 -0.02213568 -0.01823325 1.62352941 1.27058823 1.92941175
v 0.07641786 -0.02218044 -0.01790505 1.62352941 1.27058823 1.92941175
v 0.07651701 -0.02231469 -0.01754328 1.62352941 1.27058823 1.92941175
v 0.07659891 -0.02242659 0.01676388 1.62352941 1.27058823 1.92941175
v 0.07657737 -0.02239974 0.01715919 1.62352941 1.27058823 1.92941175
v 0.07651701 -0.02231469 0.01754334 1.62352941 1.27058823 1.92941175
v 0.07641786 -0.02218044 0.01790508 1.62352941 1.27058823 1.92941175
v 0.07605147 -0.02213568 0.01823328 1.62352941 1.27058823 1.92941175
v 0.07579713 -0.02224308 0.01823328 1.62352941 1.27058823 1.92941175
v 0.07552986 -0.02230575 0.01823328 1.62352941 1.27058823 1.92941175
v 0.07525398 -0.02232813 0.01823328 1.62352941 1.27058823 1.92941175
v 0.07026225 -0.02233707 0.01822209 1.62352941 1.27058823 1.92941175
v 0.07026225 -0.02253399 0.01793865 1.62352941 1.27058823 1.92941175
v 0.07026225 -0.02230128 -0.01825935 1.62352941 1.27058823 1.92941175
v 0.07026225 -0.02205513 -0.01850550 1.62352941 1.27058823 1.92941175
v 0.07525398 -0.02204616 -0.01851294 1.62352941 1.27058823 1.92941175
v 0.07548675 -0.02202828 -0.01851294 1.62352941 1.27058823 1.92941175
v 0.07571091 -0.02197458 -0.01851294 1.62352941 1.27058823 1.92941175
v 0.07677564 -0.02209539 -0.01754328 1.62352941 1.27058823 1.92941175
v 0.07684893 -0.02216700 -0.01715916 1.62352941 1.27058823 1.92941175
v 0.07687050 -0.02219385 -0.01676385 1.62352941 1.27058823 1.92941175
v 0.07673685 -0.02231022 0.00000003 1.62352941 1.27058823 1.92941175
v 0.07592214 -0.02188506 -0.01851294 1.62352941 1.27058823 1.92941175
v 0.07612044 -0.02176422 -0.01851294 1.62352941 1.27058823 1.92941175
v 0.07628424 -0.02199246 -0.01823325 1.62352941 1.27058823 1.92941175
v 0.07649544 -0.02181345 -0.01823325 1.62352941 1.27058823 1.92941175
v 0.07665495 -0.02197905 -0.01790505 1.62352941 1.27058823 1.92941175
v 0.07687050 -0.02219385 0.01676388 1.62352941 1.27058823 1.92941175
v 0.07684893 -0.02216700 0.01715919 1.62352941 1.27058823 1.92941175
v 0.07677564 -0.02209539 0.01754334 1.62352941 1.27058823 1.92941175
v 0.07665495 -0.02197905 0.01790508 1.62352941 1.27058823 1.92941175
v 0.07649544 -0.02181345 0.01823328 1.62352941 1.27058823 1.92941175
v 0.07628424 -0.02199246 0.01823328 1.62352941 1.27058823 1.92941175
v 0.07612044 -0.02176422 0.01851300 1.62352941 1.27058823 1.92941175
v 0.07592214 -0.02188506 0.01851300 1.62352941 1.27058823 1.92941175
v 0.07571091 -0.02197458 0.01851300 1.62352941 1.27058823 1.92941175
v 0.07548675 -0.02202828 0.01851300 1.62352941 1.27058823 1.92941175
v 0.07525398 -0.02204616 0.01851300 1.62352941 1.27058823 1.92941175
v 0.07026225 -0.02205513 0.01850553 1.62352941 1.27058823 1.92941175
v 0.07026225 -0.02230128 0.01825938 1.62352941 1.27058823 1.92941175
v 0.07026225 -0.02203722 -0.01852041 1.62352941 1.27058823 1.92941175
v 0.07026225 -0.02173290 -0.01873299 1.62352941 1.27058823 1.92941175
v 0.07525398 -0.02171949 -0.01874043 1.62352941 1.27058823 1.92941175
v 0.07543503 -0.02170605 -0.01874043 1.62352941 1.27058823 1.92941175
v 0.07560747 -0.02166576 -0.01874043 1.62352941 1.27058823 1.92941175
v 0.08596599 -0.01290756 -0.01754328 1.62352941 1.27058823 1.92941175
v 0.08603928 -0.01297917 -0.01715916 1.62352941 1.27058823 1.92941175
v 0.08605650 -0.01299705 -0.01686081 1.62352941 1.27058823 1.92941175
v 0.10443288 0.00537864 -0.01686081 1.62352941 1.27058823 1.92941175
v 0.11362755 0.01456203 -0.01676385 1.62352941 1.27058823 1.92941175
v 0.07577556 -0.02159418 -0.01874043 1.62352941 1.27058823 1.92941175
v 0.07592646 -0.02150019 -0.01874043 1.62352941 1.27058823 1.92941175
v 0.07606440 -0.02138382 -0.01874043 1.62352941 1.27058823 1.92941175
v 0.07629285 -0.02161653 -0.01851294 1.62352941 1.27058823 1.92941175
v 0.08568579 -0.01262559 -0.01823325 1.62352941 1.27058823 1.92941175
v 0.10418286 0.00562926 -0.01798710 1.62352941 1.27058823 1.92941175
v 0.10422168 0.00558900 -0.01790505 1.62352941 1.27058823 1.92941175
v 0.10425183 0.00555765 -0.01781553 1.62352941 1.27058823 1.92941175
v 0.10434237 0.00546816 -0.01754328 1.62352941 1.27058823 1.92941175
v 0.08605650 -0.01299705 0.01686084 1.62352941 1.27058823 1.92941175
v 0.08603928 -0.01297917 0.01715919 1.62352941 1.27058823 1.92941175
v 0.11362755 0.01456203 0.01676388 1.62352941 1.27058823 1.92941175
v 0.10443288 0.00537864 0.01686084 1.62352941 1.27058823 1.92941175
v 0.08596599 -0.01290756 0.01754334 1.62352941 1.27058823 1.92941175
v 0.08568579 -0.01262559 0.01823328 1.62352941 1.27058823 1.92941175
v 0.10434237 0.00546816 0.01754334 1.62352941 1.27058823 1.92941175
v 0.10425183 0.00555765 0.01781559 1.62352941 1.27058823 1.92941175
v 0.10422168 0.00558900 0.01790508 1.62352941 1.27058823 1.92941175
v 0.10418286 0.00562926 0.01798713 1.62352941 1.27058823 1.92941175
v 0.07629285 -0.02161653 0.01851300 1.62352941 1.27058823 1.92941175
v 0.07606440 -0.02138382 0.01874049 1.62352941 1.27058823 1.92941175
v 0.07592646 -0.02150019 0.01874049 1.62352941 1.27058823 1.92941175
v 0.07577556 -0.02159418 0.01874049 1.62352941 1.27058823 1.92941175
v 0.07560747 -0.02166576 0.01874049 1.62352941 1.27058823 1.92941175
v 0.07543503 -0.02170605 0.01874049 1.62352941 1.27058823 1.92941175
v 0.07525398 -0.02171949 0.01874049 1.62352941 1.27058823 1.92941175
v 0.07026225 -0.02173290 0.01873302 1.62352941 1.27058823 1.92941175
v 0.07026225 -0.02203722 0.01852044 1.62352941 1.27058823 1.92941175
v 0.07026225 -0.02170605 -0.01874790 1.62352941 1.27058823 1.92941175
v 0.07026225 -0.02166129 -0.01877028 1.62352941 1.27058823 1.92941175
v 0.07525398 -0.02135697 -0.01891200 1.62352941 1.27058823 1.92941175
v 0.07537899 -0.02134803 -0.01891200 1.62352941 1.27058823 1.92941175
v 0.07549539 -0.02132118 -0.01891200 1.62352941 1.27058823 1.92941175
v 0.07561176 -0.02127195 -0.01891200 1.62352941 1.27058823 1.92941175
v 0.10441566 0.00539655 -0.01715916 1.62352941 1.27058823 1.92941175
v 0.11360166 0.01458888 -0.01715916 1.62352941 1.27058823 1.92941175
v 0.11383446 0.01485741 -0.01715916 1.62352941 1.27058823 1.92941175
v 0.11386032 0.01483503 -0.01676385 1.62352941 1.27058823 1.92941175
v 0.07571523 -0.02120928 -0.01891200 1.62352941 1.27058823 1.92941175
v 0.07581006 -0.02112873 -0.01891200 1.62352941 1.27058823 1.92941175
v 0.08519007 -0.01213332 -0.01878519 1.62352941 1.27058823 1.92941175
v 0.08525472 -0.01219596 -0.01874043 1.62352941 1.27058823 1.92941175
v 0.08531076 -0.01225416 -0.01868451 1.62352941 1.27058823 1.92941175
v 0.10368714 0.00612156 -0.01868451 1.62352941 1.27058823 1.92941175
v 0.11304990 0.01513935 -0.01851294 1.62352941 1.27058823 1.92941175
v 0.10405785 0.00575010 -0.01823325 1.62352941 1.27058823 1.92941175
v 0.10410096 0.00570981 -0.01815120 1.62352941 1.27058823 1.92941175
v 0.11341200 0.01478130 -0.01790505 1.62352941 1.27058823 1.92941175
v 0.11353272 0.01466049 -0.01754328 1.62352941 1.27058823 1.92941175
v 0.10441566 0.00539655 0.01715919 1.62352941 1.27058823 1.92941175
v 0.11386032 0.01483503 0.01676388 1.62352941 1.27058823 1.92941175
v 0.11383446 0.01485741 0.01715919 1.62352941 1.27058823 1.92941175
v 0.11360166 0.01458888 0.01715919 1.62352941 1.27058823 1.92941175
v 0.10410096 0.00570981 0.01815123 1.62352941 1.27058823 1.92941175
v 0.10405785 0.00575010 0.01823328 1.62352941 1.27058823 1.92941175
v 0.11304990 0.01513935 0.01851300 1.62352941 1.27058823 1.92941175
v 0.11353272 0.01466049 0.01754334 1.62352941 1.27058823 1.92941175
v 0.11341200 0.01478130 0.01790508 1.62352941 1.27058823 1.92941175
v 0.08531076 -0.01225416 0.01868454 1.62352941 1.27058823 1.92941175
v 0.10368714 0.00612156 0.01868454 1.62352941 1.27058823 1.92941175
v 0.08525472 -0.01219596 0.01874049 1.62352941 1.27058823 1.92941175
v 0.08519007 -0.01213332 0.01878525 1.62352941 1.27058823 1.92941175
v 0.07581006 -0.02112873 0.01891203 1.62352941 1.27058823 1.92941175
v 0.07571523 -0.02120928 0.01891203 1.62352941 1.27058823 1.92941175
v 0.07561176 -0.02127195 0.01891203 1.62352941 1.27058823 1.92941175
v 0.07549539 -0.02132118 0.01891203 1.62352941 1.27058823 1.92941175
v 0.07537899 -0.02134803 0.01891203 1.62352941 1.27058823 1.92941175
v 0.07525398 -0.02135697 0.01891203 1.62352941 1.27058823 1.92941175
v 0.07026225 -0.02166129 0.01877031 1.62352941 1.27058823 1.92941175
v 0.07026225 -0.02170605 0.01874793 1.62352941 1.27058823 1.92941175
v 0.07026225 -0.02135697 -0.01891200 1.62352941 1.27058823 1.92941175
v 0.07026225 -0.02103921 -0.01899777 1.62352941 1.27058823 1.92941175
v 0.07525398 -0.02097210 -0.01901268 1.62352941 1.27058823 1.92941175
v 0.07531863 -0.02096763 -0.01901268 1.62352941 1.27058823 1.92941175
v 0.07537899 -0.02095419 -0.01901268 1.62352941 1.27058823 1.92941175
v 0.07543503 -0.02093181 -0.01901268 1.62352941 1.27058823 1.92941175
v 0.11374824 0.01491558 -0.01754328 1.62352941 1.27058823 1.92941175
v 0.11401980 0.01515723 -0.01715916 1.62352941 1.27058823 1.92941175
v 0.11404998 0.01514382 -0.01676385 1.62352941 1.27058823 1.92941175
v 0.11395515 0.01498719 0.00000003 1.62352941 1.27058823 1.92941175
v 0.07548675 -0.02089602 -0.01901268 1.62352941 1.27058823 1.92941175
v 0.07553418 -0.02085573 -0.01901268 1.62352941 1.27058823 1.92941175
v 0.08500041 -0.01194087 -0.01891200 1.62352941 1.27058823 1.92941175
v 0.10337247 0.00643482 -0.01891200 1.62352941 1.27058823 1.92941175
v 0.10356645 0.00624687 -0.01878519 1.62352941 1.27058823 1.92941175
v 0.10363110 0.00617973 -0.01874043 1.62352941 1.27058823 1.92941175
v 0.11282145 0.01537206 -0.01874043 1.62352941 1.27058823 1.92941175
v 0.11293782 0.01550631 -0.01874043 1.62352941 1.27058823 1.92941175
v 0.11320077 0.01531389 -0.01851294 1.62352941 1.27058823 1.92941175
v 0.11342925 0.01514829 -0.01823325 1.62352941 1.27058823 1.92941175
v 0.11324820 0.01494243 -0.01823325 1.62352941 1.27058823 1.92941175
v 0.11361459 0.01501404 -0.01790505 1.62352941 1.27058823 1.92941175
v 0.11404998 0.01514382 0.01676388 1.62352941 1.27058823 1.92941175
v 0.11401980 0.01515723 0.01715919 1.62352941 1.27058823 1.92941175
v 0.11374824 0.01491558 0.01754334 1.62352941 1.27058823 1.92941175
v 0.11324820 0.01494243 0.01823328 1.62352941 1.27058823 1.92941175
v 0.11342925 0.01514829 0.01823328 1.62352941 1.27058823 1.92941175
v 0.11320077 0.01531389 0.01851300 1.62352941 1.27058823 1.92941175
v 0.11293782 0.01550631 0.01874049 1.62352941 1.27058823 1.92941175
v 0.11282145 0.01537206 0.01874049 1.62352941 1.27058823 1.92941175
v 0.11361459 0.01501404 0.01790508 1.62352941 1.27058823 1.92941175
v 0.10363110 0.00617973 0.01874049 1.62352941 1.27058823 1.92941175
v 0.08500041 -0.01194087 0.01891203 1.62352941 1.27058823 1.92941175
v 0.10356645 0.00624687 0.01878525 1.62352941 1.27058823 1.92941175
v 0.10337247 0.00643482 0.01891203 1.62352941 1.27058823 1.92941175
v 0.07553418 -0.02085573 0.01901274 1.62352941 1.27058823 1.92941175
v 0.07548675 -0.02089602 0.01901274 1.62352941 1.27058823 1.92941175
v 0.07543503 -0.02093181 0.01901274 1.62352941 1.27058823 1.92941175
v 0.07537899 -0.02095419 0.01901274 1.62352941 1.27058823 1.92941175
v 0.07531863 -0.02096763 0.01901274 1.62352941 1.27058823 1.92941175
v 0.07525398 -0.02097210 0.01901274 1.62352941 1.27058823 1.92941175
v 0.07026225 -0.02103921 0.01899783 1.62352941 1.27058823 1.92941175
v 0.07026225 -0.02135697 0.01891203 1.62352941 1.27058823 1.92941175
v 0.07026225 -0.02097210 -0.01901268 1.62352941 1.27058823 1.92941175
v 0.07026225 -0.02093628 -0.01901643 1.62352941 1.27058823 1.92941175
v 0.07026225 -0.02064093 -0.01904253 1.62352941 1.27058823 1.92941175
v 0.07525398 -0.02057826 -0.01904625 1.62352941 1.27058823 1.92941175
v 0.11392497 0.01520646 -0.01754328 1.62352941 1.27058823 1.92941175
v 0.11405430 0.01551528 -0.01754328 1.62352941 1.27058823 1.92941175
v 0.11415345 0.01548393 -0.01715916 1.62352941 1.27058823 1.92941175
v 0.11418792 0.01547499 -0.01676385 1.62352941 1.27058823 1.92941175
v 0.08465556 -0.01159629 -0.01902387 1.62352941 1.27058823 1.92941175
v 0.08472453 -0.01166787 -0.01901268 1.62352941 1.27058823 1.92941175
v 0.10310088 0.00670782 -0.01901268 1.62352941 1.27058823 1.92941175
v 0.11256279 0.01562715 -0.01891200 1.62352941 1.27058823 1.92941175
v 0.11264469 0.01572114 -0.01891200 1.62352941 1.27058823 1.92941175
v 0.11332149 0.01551078 -0.01851294 1.62352941 1.27058823 1.92941175
v 0.11270937 0.01582407 -0.01891200 1.62352941 1.27058823 1.92941175
v 0.11302836 0.01565847 -0.01874043 1.62352941 1.27058823 1.92941175
v 0.11357151 0.01538547 -0.01823325 1.62352941 1.27058823 1.92941175
v 0.11377410 0.01528254 -0.01790505 1.62352941 1.27058823 1.92941175
v 0.11418792 0.01547499 0.01676388 1.62352941 1.27058823 1.92941175
v 0.11415345 0.01548393 0.01715919 1.62352941 1.27058823 1.92941175
v 0.11405430 0.01551528 0.01754334 1.62352941 1.27058823 1.92941175
v 0.11392497 0.01520646 0.01754334 1.62352941 1.27058823 1.92941175
v 0.11357151 0.01538547 0.01823328 1.62352941 1.27058823 1.92941175
v 0.11332149 0.01551078 0.01851300 1.62352941 1.27058823 1.92941175
v 0.11302836 0.01565847 0.01874049 1.62352941 1.27058823 1.92941175
v 0.11270937 0.01582407 0.01891203 1.62352941 1.27058823 1.92941175
v 0.11264469 0.01572114 0.01891203 1.62352941 1.27058823 1.92941175
v 0.11256279 0.01562715 0.01891203 1.62352941 1.27058823 1.92941175
v 0.11377410 0.01528254 0.01790508 1.62352941 1.27058823 1.92941175
v 0.08472453 -0.01166787 0.01901274 1.62352941 1.27058823 1.92941175
v 0.10310088 0.00670782 0.01901274 1.62352941 1.27058823 1.92941175
v 0.07525398 -0.02057826 0.01904631 1.62352941 1.27058823 1.92941175
v 0.08465556 -0.01159629 0.01902393 1.62352941 1.27058823 1.92941175
v 0.07026225 -0.02095866 0.01901646 1.62352941 1.27058823 1.92941175
v 0.07026225 -0.02059170 -0.01904625 1.62352941 1.27058823 1.92941175
v 0.08451762 -0.01145754 -0.01903881 1.62352941 1.27058823 1.92941175
v 0.07026225 -0.01516311 -0.01905000 1.62352941 1.27058823 1.92941175
v 0.11201103 0.01617762 -0.01904625 1.62352941 1.27058823 1.92941175
v 0.11389479 0.01556898 -0.01790505 1.62352941 1.27058823 1.92941175
v 0.11396808 0.01586883 -0.01790505 1.62352941 1.27058823 1.92941175
v 0.11413188 0.01584198 -0.01754328 1.62352941 1.27058823 1.92941175
v 0.11423535 0.01582854 -0.01715916 1.62352941 1.27058823 1.92941175
v 0.11426982 0.01582407 -0.01676385 1.62352941 1.27058823 1.92941175
v 0.10303191 0.00677943 -0.01902387 1.62352941 1.27058823 1.92941175
v 0.11229123 0.01590015 -0.01901268 1.62352941 1.27058823 1.92941175
v 0.11233434 0.01594491 -0.01901268 1.62352941 1.27058823 1.92941175
v 0.11309733 0.01582407 -0.01874043 1.62352941 1.27058823 1.92941175
v 0.11340771 0.01572561 -0.01851294 1.62352941 1.27058823 1.92941175
v 0.11367927 0.01564059 -0.01823325 1.62352941 1.27058823 1.92941175
v 0.11236452 0.01599861 -0.01901268 1.62352941 1.27058823 1.92941175
v 0.11239038 0.01605678 -0.01901268 1.62352941 1.27058823 1.92941175
v 0.11275680 0.01593594 -0.01891200 1.62352941 1.27058823 1.92941175
v 0.11426982 0.01582407 0.01676388 1.62352941 1.27058823 1.92941175
v 0.11423535 0.01582854 0.01715919 1.62352941 1.27058823 1.92941175
v 0.11413188 0.01584198 0.01754334 1.62352941 1.27058823 1.92941175
v 0.11396808 0.01586883 0.01790508 1.62352941 1.27058823 1.92941175
v 0.11389479 0.01556898 0.01790508 1.62352941 1.27058823 1.92941175
v 0.11367927 0.01564059 0.01823328 1.62352941 1.27058823 1.92941175
v 0.11340771 0.01572561 0.01851300 1.62352941 1.27058823 1.92941175
v 0.11309733 0.01582407 0.01874049 1.62352941 1.27058823 1.92941175
v 0.11275680 0.01593594 0.01891203 1.62352941 1.27058823 1.92941175
v 0.11239038 0.01605678 0.01901274 1.62352941 1.27058823 1.92941175
v 0.11236452 0.01599861 0.01901274 1.62352941 1.27058823 1.92941175
v 0.11233434 0.01594491 0.01901274 1.62352941 1.27058823 1.92941175
v 0.11229123 0.01590015 0.01901274 1.62352941 1.27058823 1.92941175
v 0.10303191 0.00677943 0.01902393 1.62352941 1.27058823 1.92941175
v 0.07026225 -0.02059170 0.01904631 1.62352941 1.27058823 1.92941175
v 0.07026225 -0.02064093 0.01904256 1.62352941 1.27058823 1.92941175
v 0.10282071 0.00698976 0.01905003 1.62352941 1.27058823 1.92941175
v 0.11201103 0.01617762 0.01905003 1.62352941 1.27058823 1.92941175
v 0.07026225 -0.00683454 -0.01905000 1.62352941 1.27058823 1.92941175
v 0.11201103 0.02056791 -0.01904625 1.62352941 1.27058823 1.92941175
v 0.11240763 0.01617762 -0.01901268 1.62352941 1.27058823 1.92941175
v 0.11240331 0.01611945 -0.01901268 1.62352941 1.27058823 1.92941175
v 0.11373963 0.01590462 -0.01823325 1.62352941 1.27058823 1.92941175
v 0.11376117 0.01617762 -0.01823325 1.62352941 1.27058823 1.92941175
v 0.11398965 0.01617762 -0.01790505 1.62352941 1.27058823 1.92941175
v 0.11416206 0.01617762 -0.01754328 1.62352941 1.27058823 1.92941175
v 0.11426121 0.01617762 -0.01715916 1.62352941 1.27058823 1.92941175
v 0.11429568 0.01617762 -0.01676385 1.62352941 1.27058823 1.92941175
v 0.11428275 0.01599861 0.00000003 1.62352941 1.27058823 1.92941175
v 0.11314044 0.01599861 -0.01874043 1.62352941 1.27058823 1.92941175
v 0.11346372 0.01594938 -0.01851294 1.62352941 1.27058823 1.92941175
v 0.11278266 0.01605678 -0.01891200 1.62352941 1.27058823 1.92941175
v 0.11429568 0.01617762 0.01676388 1.62352941 1.27058823 1.92941175
v 0.11426121 0.01617762 0.01715919 1.62352941 1.27058823 1.92941175
v 0.11416206 0.01617762 0.01754334 1.62352941 1.27058823 1.92941175
v 0.11373963 0.01590462 0.01823328 1.62352941 1.27058823 1.92941175
v 0.11398965 0.01617762 0.01790508 1.62352941 1.27058823 1.92941175
v 0.11376117 0.01617762 0.01823328 1.62352941 1.27058823 1.92941175
v 0.11346372 0.01594938 0.01851300 1.62352941 1.27058823 1.92941175
v 0.11314044 0.01599861 0.01874049 1.62352941 1.27058823 1.92941175
v 0.11278266 0.01605678 0.01891203 1.62352941 1.27058823 1.92941175
v 0.11240331 0.01611945 0.01901274 1.62352941 1.27058823 1.92941175
v 0.09471234 0.01538100 0.01905003 1.62352941 1.27058823 1.92941175
v 0.07026225 0.01295538 0.01904631 1.62352941 1.27058823 1.92941175
v 0.11240763 0.01617762 0.01901274 1.62352941 1.27058823 1.92941175
v 0.11201103 0.02056791 0.01905003 1.62352941 1.27058823 1.92941175
v 0.07026225 0.01295538 -0.01904625 1.62352941 1.27058823 1.92941175
v 0.07848699 0.02056791 -0.01904625 1.62352941 1.27058823 1.92941175
v 0.09524685 0.02076483 -0.01903134 1.62352941 1.27058823 1.92941175
v 0.11201103 0.02096175 -0.01901268 1.62352941 1.27058823 1.92941175
v 0.11240763 0.02056791 -0.01901268 1.62352941 1.27058823 1.92941175
v 0.11279559 0.01617762 -0.01891200 1.62352941 1.27058823 1.92941175
v 0.11348097 0.01617762 -0.01851294 1.62352941 1.27058823 1.92941175
v 0.11376117 0.02056791 -0.01823325 1.62352941 1.27058823 1.92941175
v 0.11398965 0.02056791 -0.01790505 1.62352941 1.27058823 1.92941175
v 0.11416206 0.02056791 -0.01754328 1.62352941 1.27058823 1.92941175
v 0.11426121 0.02056791 -0.01715916 1.62352941 1.27058823 1.92941175
v 0.11429568 0.02056791 -0.01676385 1.62352941 1.27058823 1.92941175
v 0.11315337 0.01617762 -0.01874043 1.62352941 1.27058823 1.92941175
v 0.11429568 0.02056791 0.01676388 1.62352941 1.27058823 1.92941175
v 0.11426121 0.02056791 0.01715919 1.62352941 1.27058823 1.92941175
v 0.11416206 0.02056791 0.01754334 1.62352941 1.27058823 1.92941175
v 0.11398965 0.02056791 0.01790508 1.62352941 1.27058823 1.92941175
v 0.11348097 0.01617762 0.01851300 1.62352941 1.27058823 1.92941175
v 0.11376117 0.02056791 0.01823328 1.62352941 1.27058823 1.92941175
v 0.11315337 0.01617762 0.01874049 1.62352941 1.27058823 1.92941175
v 0.11279559 0.01617762 0.01891203 1.62352941 1.27058823 1.92941175
v 0.09524685 0.02056791 0.01905003 1.62352941 1.27058823 1.92941175
v 0.07026225 0.01331340 0.01901646 1.62352941 1.27058823 1.92941175
v 0.07848699 0.02056791 0.01904631 1.62352941 1.27058823 1.92941175
v 0.07823265 0.02087223 0.01901274 1.62352941 1.27058823 1.92941175
v 0.11240763 0.02056791 0.01901274 1.62352941 1.27058823 1.92941175
v 0.11240763 0.02095728 0.01897917 1.62352941 1.27058823 1.92941175
v 0.11201103 0.02096175 0.01901274 1.62352941 1.27058823 1.92941175
v 0.07026225 0.01331340 -0.01901643 1.62352941 1.27058823 1.92941175
v 0.07848699 0.02096175 -0.01901268 1.62352941 1.27058823 1.92941175
v 0.11240763 0.02095728 -0.01897914 1.62352941 1.27058823 1.92941175
v 0.11201103 0.02134662 -0.01891200 1.62352941 1.27058823 1.92941175
v 0.11279559 0.02056791 -0.01891200 1.62352941 1.27058823 1.92941175
v 0.11348097 0.02056791 -0.01851294 1.62352941 1.27058823 1.92941175
v 0.11348097 0.02087223 -0.01848684 1.62352941 1.27058823 1.92941175
v 0.11376117 0.02082300 -0.01821087 1.62352941 1.27058823 1.92941175
v 0.11398965 0.02076483 -0.01788639 1.62352941 1.27058823 1.92941175
v 0.11416206 0.02070219 -0.01753209 1.62352941 1.27058823 1.92941175
v 0.11426121 0.02063505 -0.01715169 1.62352941 1.27058823 1.92941175
v 0.11426121 0.02070219 -0.01713678 1.62352941 1.27058823 1.92941175
v 0.11426121 0.02076483 -0.01710693 1.62352941 1.27058823 1.92941175
v 0.11426121 0.02082300 -0.01706592 1.62352941 1.27058823 1.92941175
v 0.11426121 0.02087223 -0.01701744 1.62352941 1.27058823 1.92941175
v 0.11426121 0.02091252 -0.01696149 1.62352941 1.27058823 1.92941175
v 0.11426121 0.02093937 -0.01689810 1.62352941 1.27058823 1.92941175
v 0.11426121 0.02095728 -0.01683096 1.62352941 1.27058823 1.92941175
v 0.11426121 0.02096175 -0.01676385 1.62352941 1.27058823 1.92941175
v 0.11315337 0.02056791 -0.01874043 1.62352941 1.27058823 1.92941175
v 0.11426121 0.02096175 0.01676388 1.62352941 1.27058823 1.92941175
v 0.11426121 0.02095728 0.01683102 1.62352941 1.27058823 1.92941175
v 0.11426121 0.02093937 0.01689813 1.62352941 1.27058823 1.92941175
v 0.11426121 0.02091252 0.01696155 1.62352941 1.27058823 1.92941175
v 0.11426121 0.02087223 0.01701747 1.62352941 1.27058823 1.92941175
v 0.11426121 0.02082300 0.01706598 1.62352941 1.27058823 1.92941175
v 0.11426121 0.02076483 0.01710699 1.62352941 1.27058823 1.92941175
v 0.11426121 0.02070219 0.01713681 1.62352941 1.27058823 1.92941175
v 0.11426121 0.02063505 0.01715175 1.62352941 1.27058823 1.92941175
v 0.11416206 0.02070219 0.01753215 1.62352941 1.27058823 1.92941175
v 0.11398965 0.02076483 0.01788645 1.62352941 1.27058823 1.92941175
v 0.11376117 0.02082300 0.01821090 1.62352941 1.27058823 1.92941175
v 0.11348097 0.02056791 0.01851300 1.62352941 1.27058823 1.92941175
v 0.11348097 0.02087223 0.01848687 1.62352941 1.27058823 1.92941175
v 0.11315337 0.02056791 0.01874049 1.62352941 1.27058823 1.92941175
v 0.11279559 0.02056791 0.01891203 1.62352941 1.27058823 1.92941175
v 0.07848699 0.02096175 0.01901274 1.62352941 1.27058823 1.92941175
v 0.07026225 0.01335369 0.01901274 1.62352941 1.27058823 1.92941175
v 0.07841802 0.02095728 0.01901274 1.62352941 1.27058823 1.92941175
v 0.07835334 0.02093937 0.01901274 1.62352941 1.27058823 1.92941175
v 0.07828869 0.02091252 0.01901274 1.62352941 1.27058823 1.92941175
v 0.07798695 0.02116761 0.01891203 1.62352941 1.27058823 1.92941175
v 0.11279559 0.02093937 0.01887849 1.62352941 1.27058823 1.92941175
v 0.11240763 0.02133768 0.01887849 1.62352941 1.27058823 1.92941175
v 0.11201103 0.02134662 0.01891203 1.62352941 1.27058823 1.92941175
v 0.07026225 0.01333578 -0.01901268 1.62352941 1.27058823 1.92941175
v 0.07809903 0.02096175 -0.01897914 1.62352941 1.27058823 1.92941175
v 0.07848699 0.02134662 -0.01891200 1.62352941 1.27058823 1.92941175
v 0.11279559 0.02093937 -0.01887843 1.62352941 1.27058823 1.92941175
v 0.11240763 0.02133768 -0.01887843 1.62352941 1.27058823 1.92941175
v 0.09524685 0.02153010 -0.01882623 1.62352941 1.27058823 1.92941175
v 0.11201103 0.02170914 -0.01874043 1.62352941 1.27058823 1.92941175
v 0.11315337 0.02091252 -0.01871061 1.62352941 1.27058823 1.92941175
v 0.11348097 0.02116761 -0.01840851 1.62352941 1.27058823 1.92941175
v 0.11376117 0.02106915 -0.01814373 1.62352941 1.27058823 1.92941175
v 0.11398965 0.02095728 -0.01783791 1.62352941 1.27058823 1.92941175
v 0.11416206 0.02083197 -0.01749855 1.62352941 1.27058823 1.92941175
v 0.11416206 0.02095728 -0.01743885 1.62352941 1.27058823 1.92941175
v 0.11416206 0.02106915 -0.01736055 1.62352941 1.27058823 1.92941175
v 0.11416206 0.02116761 -0.01726359 1.62352941 1.27058823 1.92941175
v 0.11416206 0.02124369 -0.01715169 1.62352941 1.27058823 1.92941175
v 0.11416206 0.02130186 -0.01702863 1.62352941 1.27058823 1.92941175
v 0.11416206 0.02133768 -0.01689810 1.62352941 1.27058823 1.92941175
v 0.11416206 0.02134662 -0.01676385 1.62352941 1.27058823 1.92941175
v 0.11416206 0.02134662 0.01676388 1.62352941 1.27058823 1.92941175
v 0.11416206 0.02133768 0.01689813 1.62352941 1.27058823 1.92941175
v 0.11416206 0.02130186 0.01702866 1.62352941 1.27058823 1.92941175
v 0.11416206 0.02124369 0.01715175 1.62352941 1.27058823 1.92941175
v 0.11416206 0.02116761 0.01726362 1.62352941 1.27058823 1.92941175
v 0.11416206 0.02106915 0.01736058 1.62352941 1.27058823 1.92941175
v 0.11416206 0.02095728 0.01743891 1.62352941 1.27058823 1.92941175
v 0.11416206 0.02083197 0.01749858 1.62352941 1.27058823 1.92941175
v 0.11398965 0.02095728 0.01783797 1.62352941 1.27058823 1.92941175
v 0.11376117 0.02106915 0.01814376 1.62352941 1.27058823 1.92941175
v 0.11348097 0.02116761 0.01840857 1.62352941 1.27058823 1.92941175
v 0.11315337 0.02091252 0.01871064 1.62352941 1.27058823 1.92941175
v 0.07848699 0.02134662 0.01891203 1.62352941 1.27058823 1.92941175
v 0.07026225 0.01369827 0.01891950 1.62352941 1.27058823 1.92941175
v 0.07835334 0.02133768 0.01891203 1.62352941 1.27058823 1.92941175
v 0.07821972 0.02130186 0.01891203 1.62352941 1.27058823 1.92941175
v 0.07809903 0.02124369 0.01891203 1.62352941 1.27058823 1.92941175
v 0.07791798 0.02155695 0.01874049 1.62352941 1.27058823 1.92941175
v 0.07775418 0.02144061 0.01874049 1.62352941 1.27058823 1.92941175
v 0.07026225 0.01372065 0.01891203 1.62352941 1.27058823 1.92941175
v 0.11279559 0.02130186 0.01878150 1.62352941 1.27058823 1.92941175
v 0.11279559 0.02164200 0.01862115 1.62352941 1.27058823 1.92941175
v 0.11240763 0.02169123 0.01871064 1.62352941 1.27058823 1.92941175
v 0.11201103 0.02170914 0.01874049 1.62352941 1.27058823 1.92941175
v 0.09524685 0.02153010 0.01882626 1.62352941 1.27058823 1.92941175
v 0.07026225 0.01338948 -0.01900149 1.62352941 1.27058823 1.92941175
v 0.07811628 0.02134662 -0.01887843 1.62352941 1.27058823 1.92941175
v 0.07026225 0.01369827 -0.01891947 1.62352941 1.27058823 1.92941175
v 0.07814643 0.02170914 -0.01871061 1.62352941 1.27058823 1.92941175
v 0.07848699 0.02170914 -0.01874043 1.62352941 1.27058823 1.92941175
v 0.11279559 0.02130186 -0.01878147 1.62352941 1.27058823 1.92941175
v 0.11240763 0.02169123 -0.01871061 1.62352941 1.27058823 1.92941175
v 0.11279559 0.02164200 -0.01862109 1.62352941 1.27058823 1.92941175
v 0.09524685 0.02187471 -0.01862856 1.62352941 1.27058823 1.92941175
v 0.11201103 0.02203581 -0.01851294 1.62352941 1.27058823 1.92941175
v 0.11240763 0.02201346 -0.01848684 1.62352941 1.27058823 1.92941175
v 0.11315337 0.02124369 -0.01862109 1.62352941 1.27058823 1.92941175
v 0.11315337 0.02155695 -0.01847565 1.62352941 1.27058823 1.92941175
v 0.11348097 0.02144061 -0.01827798 1.62352941 1.27058823 1.92941175
v 0.11376117 0.02130186 -0.01803558 1.62352941 1.27058823 1.92941175
v 0.11398965 0.02113629 -0.01775214 1.62352941 1.27058823 1.92941175
v 0.11398965 0.02130186 -0.01763652 1.62352941 1.27058823 1.92941175
v 0.11398965 0.02144061 -0.01749855 1.62352941 1.27058823 1.92941175
v 0.11398965 0.02155695 -0.01733445 1.62352941 1.27058823 1.92941175
v 0.11398965 0.02164200 -0.01715169 1.62352941 1.27058823 1.92941175
v 0.11398965 0.02169123 -0.01696149 1.62352941 1.27058823 1.92941175
v 0.11398965 0.02170914 -0.01676385 1.62352941 1.27058823 1.92941175
v 0.11407584 0.02153010 0.00000003 1.62352941 1.27058823 1.92941175
v 0.11398965 0.02170914 0.01676388 1.62352941 1.27058823 1.92941175
v 0.11398965 0.02169123 0.01696155 1.62352941 1.27058823 1.92941175
v 0.11398965 0.02164200 0.01715175 1.62352941 1.27058823 1.92941175
v 0.11398965 0.02155695 0.01733448 1.62352941 1.27058823 1.92941175
v 0.11398965 0.02144061 0.01749858 1.62352941 1.27058823 1.92941175
v 0.11398965 0.02130186 0.01763658 1.62352941 1.27058823 1.92941175
v 0.11398965 0.02113629 0.01775217 1.62352941 1.27058823 1.92941175
v 0.11376117 0.02130186 0.01803561 1.62352941 1.27058823 1.92941175
v 0.11348097 0.02144061 0.01827804 1.62352941 1.27058823 1.92941175
v 0.11315337 0.02155695 0.01847571 1.62352941 1.27058823 1.92941175
v 0.11315337 0.02124369 0.01862115 1.62352941 1.27058823 1.92941175
v 0.07848699 0.02170914 0.01874049 1.62352941 1.27058823 1.92941175
v 0.07828869 0.02169123 0.01874049 1.62352941 1.27058823 1.92941175
v 0.07809903 0.02164200 0.01874049 1.62352941 1.27058823 1.92941175
v 0.07775418 0.02183892 0.01851300 1.62352941 1.27058823 1.92941175
v 0.07754295 0.02169123 0.01851300 1.62352941 1.27058823 1.92941175
v 0.07761192 0.02130186 0.01874049 1.62352941 1.27058823 1.92941175
v 0.07026225 0.01375647 0.01889712 1.62352941 1.27058823 1.92941175
v 0.11279559 0.02194632 0.01840857 1.62352941 1.27058823 1.92941175
v 0.11240763 0.02201346 0.01848687 1.62352941 1.27058823 1.92941175
v 0.11201103 0.02203581 0.01851300 1.62352941 1.27058823 1.92941175
v 0.09524685 0.02187471 0.01862859 1.62352941 1.27058823 1.92941175
v 0.07775418 0.02134662 -0.01878147 1.62352941 1.27058823 1.92941175
v 0.07781022 0.02170914 -0.01862109 1.62352941 1.27058823 1.92941175
v 0.07026225 0.01372065 -0.01891200 1.62352941 1.27058823 1.92941175
v 0.07788780 0.02203581 -0.01840851 1.62352941 1.27058823 1.92941175
v 0.07818522 0.02203581 -0.01848684 1.62352941 1.27058823 1.92941175
v 0.07848699 0.02203581 -0.01851294 1.62352941 1.27058823 1.92941175
v 0.11279559 0.02194632 -0.01840851 1.62352941 1.27058823 1.92941175
v 0.09524685 0.02217903 -0.01837122 1.62352941 1.27058823 1.92941175
v 0.11201103 0.02231778 -0.01823325 1.62352941 1.27058823 1.92941175
v 0.11240763 0.02229093 -0.01821087 1.62352941 1.27058823 1.92941175
v 0.11315337 0.02183892 -0.01827798 1.62352941 1.27058823 1.92941175
v 0.11348097 0.02169123 -0.01810272 1.62352941 1.27058823 1.92941175
v 0.11376117 0.02151222 -0.01788639 1.62352941 1.27058823 1.92941175
v 0.11376117 0.02169123 -0.01770738 1.62352941 1.27058823 1.92941175
v 0.11376117 0.02183892 -0.01749855 1.62352941 1.27058823 1.92941175
v 0.11376117 0.02194632 -0.01726359 1.62352941 1.27058823 1.92941175
v 0.11376117 0.02201346 -0.01701744 1.62352941 1.27058823 1.92941175
v 0.11376117 0.02203581 -0.01676385 1.62352941 1.27058823 1.92941175
v 0.11387757 0.02187471 0.00000003 1.62352941 1.27058823 1.92941175
v 0.11376117 0.02203581 0.01676388 1.62352941 1.27058823 1.92941175
v 0.11376117 0.02201346 0.01701747 1.62352941 1.27058823 1.92941175
v 0.11376117 0.02194632 0.01726362 1.62352941 1.27058823 1.92941175
v 0.11376117 0.02183892 0.01749858 1.62352941 1.27058823 1.92941175
v 0.11376117 0.02169123 0.01770744 1.62352941 1.27058823 1.92941175
v 0.11376117 0.02151222 0.01788645 1.62352941 1.27058823 1.92941175
v 0.11348097 0.02169123 0.01810275 1.62352941 1.27058823 1.92941175
v 0.11315337 0.02183892 0.01827804 1.62352941 1.27058823 1.92941175
v 0.07848699 0.02203581 0.01851300 1.62352941 1.27058823 1.92941175
v 0.07823265 0.02201346 0.01851300 1.62352941 1.27058823 1.92941175
v 0.07798695 0.02194632 0.01851300 1.62352941 1.27058823 1.92941175
v 0.07761192 0.02208504 0.01823328 1.62352941 1.27058823 1.92941175
v 0.07736190 0.02190603 0.01823328 1.62352941 1.27058823 1.92941175
v 0.07736190 0.02151222 0.01851300 1.62352941 1.27058823 1.92941175
v 0.07026225 0.01409658 0.01873677 1.62352941 1.27058823 1.92941175
v 0.07026225 0.01404288 0.01876287 1.62352941 1.27058823 1.92941175
v 0.11315337 0.02208504 0.01803561 1.62352941 1.27058823 1.92941175
v 0.11279559 0.02221035 0.01814376 1.62352941 1.27058823 1.92941175
v 0.11240763 0.02229093 0.01821090 1.62352941 1.27058823 1.92941175
v 0.11201103 0.02231778 0.01823328 1.62352941 1.27058823 1.92941175
v 0.09524685 0.02217903 0.01837128 1.62352941 1.27058823 1.92941175
v 0.07741362 0.02134662 -0.01862109 1.62352941 1.27058823 1.92941175
v 0.07749984 0.02170914 -0.01847565 1.62352941 1.27058823 1.92941175
v 0.07026225 0.01375647 -0.01889709 1.62352941 1.27058823 1.92941175
v 0.07026225 0.01404288 -0.01876281 1.62352941 1.27058823 1.92941175
v 0.07761192 0.02203581 -0.01827798 1.62352941 1.27058823 1.92941175
v 0.07775418 0.02231778 -0.01803558 1.62352941 1.27058823 1.92941175
v 0.07798695 0.02231778 -0.01814373 1.62352941 1.27058823 1.92941175
v 0.07823265 0.02231778 -0.01821087 1.62352941 1.27058823 1.92941175
v 0.07848699 0.02231778 -0.01823325 1.62352941 1.27058823 1.92941175
v 0.11279559 0.02221035 -0.01814373 1.62352941 1.27058823 1.92941175
v 0.11315337 0.02208504 -0.01803558 1.62352941 1.27058823 1.92941175
v 0.09524685 0.02243412 -0.01806915 1.62352941 1.27058823 1.92941175
v 0.11201103 0.02254602 -0.01790505 1.62352941 1.27058823 1.92941175
v 0.11240763 0.02251467 -0.01788639 1.62352941 1.27058823 1.92941175
v 0.11279559 0.02242518 -0.01783791 1.62352941 1.27058823 1.92941175
v 0.11348097 0.02190603 -0.01788639 1.62352941 1.27058823 1.92941175
v 0.11348097 0.02208504 -0.01763652 1.62352941 1.27058823 1.92941175
v 0.11348097 0.02221035 -0.01736055 1.62352941 1.27058823 1.92941175
v 0.11348097 0.02229093 -0.01706592 1.62352941 1.27058823 1.92941175
v 0.11348097 0.02231778 -0.01676385 1.62352941 1.27058823 1.92941175
v 0.11362323 0.02217903 0.00000003 1.62352941 1.27058823 1.92941175
v 0.11348097 0.02231778 0.01676388 1.62352941 1.27058823 1.92941175
v 0.11348097 0.02229093 0.01706598 1.62352941 1.27058823 1.92941175
v 0.11348097 0.02221035 0.01736058 1.62352941 1.27058823 1.92941175
v 0.11348097 0.02208504 0.01763658 1.62352941 1.27058823 1.92941175
v 0.11348097 0.02190603 0.01788645 1.62352941 1.27058823 1.92941175
v 0.07848699 0.02231778 0.01823328 1.62352941 1.27058823 1.92941175
v 0.07818522 0.02229093 0.01823328 1.62352941 1.27058823 1.92941175
v 0.07788780 0.02221035 0.01823328 1.62352941 1.27058823 1.92941175
v 0.07781022 0.02242518 0.01790508 1.62352941 1.27058823 1.92941175
v 0.07749984 0.02228196 0.01790508 1.62352941 1.27058823 1.92941175
v 0.07721535 0.02208504 0.01790508 1.62352941 1.27058823 1.92941175
v 0.07714635 0.02169123 0.01823328 1.62352941 1.27058823 1.92941175
v 0.07026225 0.01440987 0.01852044 1.62352941 1.27058823 1.92941175
v 0.11315337 0.02228196 0.01775217 1.62352941 1.27058823 1.92941175
v 0.11279559 0.02242518 0.01783797 1.62352941 1.27058823 1.92941175
v 0.11240763 0.02251467 0.01788645 1.62352941 1.27058823 1.92941175
v 0.11201103 0.02254602 0.01790508 1.62352941 1.27058823 1.92941175
v 0.09524685 0.02243412 0.01806918 1.62352941 1.27058823 1.92941175
v 0.07026225 0.01409658 -0.01873671 1.62352941 1.27058823 1.92941175
v 0.07721535 0.02170914 -0.01827798 1.62352941 1.27058823 1.92941175
v 0.07026225 0.01440987 -0.01852041 1.62352941 1.27058823 1.92941175
v 0.07736190 0.02203581 -0.01810272 1.62352941 1.27058823 1.92941175
v 0.07754295 0.02231778 -0.01788639 1.62352941 1.27058823 1.92941175
v 0.07775418 0.02254602 -0.01763652 1.62352941 1.27058823 1.92941175
v 0.07791798 0.02254602 -0.01775214 1.62352941 1.27058823 1.92941175
v 0.07809903 0.02254602 -0.01783791 1.62352941 1.27058823 1.92941175
v 0.07828869 0.02254602 -0.01788639 1.62352941 1.27058823 1.92941175
v 0.07848699 0.02254602 -0.01790505 1.62352941 1.27058823 1.92941175
v 0.11315337 0.02228196 -0.01775214 1.62352941 1.27058823 1.92941175
v 0.09524685 0.02263104 -0.01772604 1.62352941 1.27058823 1.92941175
v 0.11201103 0.02271606 -0.01754328 1.62352941 1.27058823 1.92941175
v 0.11240763 0.02268027 -0.01753209 1.62352941 1.27058823 1.92941175
v 0.11279559 0.02258628 -0.01749855 1.62352941 1.27058823 1.92941175
v 0.11315337 0.02242518 -0.01743885 1.62352941 1.27058823 1.92941175
v 0.11315337 0.02251467 -0.01710693 1.62352941 1.27058823 1.92941175
v 0.11315337 0.02254602 -0.01676385 1.62352941 1.27058823 1.92941175
v 0.11331717 0.02243412 0.00000003 1.62352941 1.27058823 1.92941175
v 0.11315337 0.02254602 0.01676388 1.62352941 1.27058823 1.92941175
v 0.11315337 0.02251467 0.01710699 1.62352941 1.27058823 1.92941175
v 0.11315337 0.02242518 0.01743891 1.62352941 1.27058823 1.92941175
v 0.07848699 0.02254602 0.01790508 1.62352941 1.27058823 1.92941175
v 0.07814643 0.02251467 0.01790508 1.62352941 1.27058823 1.92941175
v 0.07775418 0.02258628 0.01754334 1.62352941 1.27058823 1.92941175
v 0.07741362 0.02242518 0.01754334 1.62352941 1.27058823 1.92941175
v 0.07710756 0.02221035 0.01754334 1.62352941 1.27058823 1.92941175
v 0.07696962 0.02183892 0.01790508 1.62352941 1.27058823 1.92941175
v 0.07026225 0.01467837 0.01825194 1.62352941 1.27058823 1.92941175
v 0.11279559 0.02258628 0.01749858 1.62352941 1.27058823 1.92941175
v 0.11240763 0.02268027 0.01753215 1.62352941 1.27058823 1.92941175
v 0.11201103 0.02271606 0.01754334 1.62352941 1.27058823 1.92941175
v 0.09524685 0.02263104 0.01772607 1.62352941 1.27058823 1.92941175
v 0.07696962 0.02170914 -0.01803558 1.62352941 1.27058823 1.92941175
v 0.07026225 0.01467837 -0.01825188 1.62352941 1.27058823 1.92941175
v 0.07714635 0.02203581 -0.01788639 1.62352941 1.27058823 1.92941175
v 0.07736190 0.02231778 -0.01770738 1.62352941 1.27058823 1.92941175
v 0.07761192 0.02254602 -0.01749855 1.62352941 1.27058823 1.92941175
v 0.07798695 0.02271606 -0.01736055 1.62352941 1.27058823 1.92941175
v 0.07809903 0.02271606 -0.01743885 1.62352941 1.27058823 1.92941175
v 0.07821972 0.02271606 -0.01749855 1.62352941 1.27058823 1.92941175
v 0.07835334 0.02271606 -0.01753209 1.62352941 1.27058823 1.92941175
v 0.07848699 0.02271606 -0.01754328 1.62352941 1.27058823 1.92941175
v 0.11201103 0.02281902 -0.01715916 1.62352941 1.27058823 1.92941175
v 0.11240763 0.02278320 -0.01715169 1.62352941 1.27058823 1.92941175
v 0.11279559 0.02268027 -0.01713678 1.62352941 1.27058823 1.92941175
v 0.11279559 0.02271606 -0.01676385 1.62352941 1.27058823 1.92941175
v 0.11279559 0.02271606 0.01676388 1.62352941 1.27058823 1.92941175
v 0.11279559 0.02268027 0.01713681 1.62352941 1.27058823 1.92941175
v 0.07848699 0.02271606 0.01754334 1.62352941 1.27058823 1.92941175
v 0.07811628 0.02268027 0.01754334 1.62352941 1.27058823 1.92941175
v 0.07809903 0.02278320 0.01715919 1.62352941 1.27058823 1.92941175
v 0.07771968 0.02268027 0.01715919 1.62352941 1.27058823 1.92941175
v 0.07736190 0.02251467 0.01715919 1.62352941 1.27058823 1.92941175
v 0.07704291 0.02229093 0.01715919 1.62352941 1.27058823 1.92941175
v 0.07676271 0.02201346 0.01715919 1.62352941 1.27058823 1.92941175
v 0.07684461 0.02194632 0.01754334 1.62352941 1.27058823 1.92941175
v 0.07026225 0.01491111 0.01793121 1.62352941 1.27058823 1.92941175
v 0.07026225 0.01472760 0.01819227 1.62352941 1.27058823 1.92941175
v 0.07026225 0.01470522 0.01822209 1.62352941 1.27058823 1.92941175
v 0.11240763 0.02278320 0.01715175 1.62352941 1.27058823 1.92941175
v 0.11201103 0.02281902 0.01715919 1.62352941 1.27058823 1.92941175
v 0.07026225 0.01470522 -0.01822206 1.62352941 1.27058823 1.92941175
v 0.07696962 0.02203581 -0.01763652 1.62352941 1.27058823 1.92941175
v 0.07026225 0.01472760 -0.01819221 1.62352941 1.27058823 1.92941175
v 0.07721535 0.02231778 -0.01749855 1.62352941 1.27058823 1.92941175
v 0.07749984 0.02254602 -0.01733445 1.62352941 1.27058823 1.92941175
v 0.07781022 0.02271606 -0.01715169 1.62352941 1.27058823 1.92941175
v 0.07788780 0.02271606 -0.01726359 1.62352941 1.27058823 1.92941175
v 0.07823265 0.02281902 -0.01706592 1.62352941 1.27058823 1.92941175
v 0.07828869 0.02281902 -0.01710693 1.62352941 1.27058823 1.92941175
v 0.07835334 0.02281902 -0.01713678 1.62352941 1.27058823 1.92941175
v 0.07841802 0.02281902 -0.01715169 1.62352941 1.27058823 1.92941175
v 0.07848699 0.02281902 -0.01715916 1.62352941 1.27058823 1.92941175
v 0.11201103 0.02285481 -0.01676385 1.62352941 1.27058823 1.92941175
v 0.11240763 0.02281902 -0.01676385 1.62352941 1.27058823 1.92941175
v 0.11240763 0.02281902 0.01676388 1.62352941 1.27058823 1.92941175
v 0.07848699 0.02281902 0.01715919 1.62352941 1.27058823 1.92941175
v 0.07809039 0.02281902 0.01676388 1.62352941 1.27058823 1.92941175
v 0.07770675 0.02271606 0.01676388 1.62352941 1.27058823 1.92941175
v 0.07734465 0.02254602 0.01676388 1.62352941 1.27058823 1.92941175
v 0.07701705 0.02231778 0.01676388 1.62352941 1.27058823 1.92941175
v 0.07673685 0.02203581 0.01676388 1.62352941 1.27058823 1.92941175
v 0.07026225 0.01519752 0.01717038 1.62352941 1.27058823 1.92941175
v 0.07026225 0.01509906 0.01753587 1.62352941 1.27058823 1.92941175
v 0.07026225 0.01494690 0.01786035 1.62352941 1.27058823 1.92941175
v 0.07026225 0.01492899 0.01789764 1.62352941 1.27058823 1.92941175
v 0.11201103 0.02285481 0.01676388 1.62352941 1.27058823 1.92941175
v 0.07684461 0.02203581 -0.01736055 1.62352941 1.27058823 1.92941175
v 0.07710756 0.02231778 -0.01726359 1.62352941 1.27058823 1.92941175
v 0.07026225 0.01491111 -0.01793115 1.62352941 1.27058823 1.92941175
v 0.07026225 0.01492899 -0.01789758 1.62352941 1.27058823 1.92941175
v 0.07026225 0.01493796 -0.01787895 1.62352941 1.27058823 1.92941175
v 0.07741362 0.02254602 -0.01715169 1.62352941 1.27058823 1.92941175
v 0.07775418 0.02271606 -0.01702863 1.62352941 1.27058823 1.92941175
v 0.07811628 0.02281902 -0.01689810 1.62352941 1.27058823 1.92941175
v 0.07814643 0.02281902 -0.01696149 1.62352941 1.27058823 1.92941175
v 0.07818522 0.02281902 -0.01701744 1.62352941 1.27058823 1.92941175
v 0.07848699 0.02285481 -0.01676385 1.62352941 1.27058823 1.92941175
v 0.07848699 0.02285481 0.01676388 1.62352941 1.27058823 1.92941175
v 0.07809039 0.02281902 -0.01676385 1.62352941 1.27058823 1.92941175
v 0.07770675 0.02271606 -0.01676385 1.62352941 1.27058823 1.92941175
v 0.07734465 0.02254602 -0.01676385 1.62352941 1.27058823 1.92941175
v 0.07718085 0.02243412 0.00000003 1.62352941 1.27058823 1.92941175
v 0.07701705 0.02231778 -0.01676385 1.62352941 1.27058823 1.92941175
v 0.07687911 0.02217903 0.00000003 1.62352941 1.27058823 1.92941175
v 0.07673685 0.02203581 -0.01676385 1.62352941 1.27058823 1.92941175
v 0.07026225 0.01523331 0.01677135 1.62352941 1.27058823 1.92941175
v 0.07026225 0.01520199 0.01712937 1.62352941 1.27058823 1.92941175
v 0.07676271 0.02203581 -0.01706592 1.62352941 1.27058823 1.92941175
v 0.07026225 0.01509906 -0.01753584 1.62352941 1.27058823 1.92941175
v 0.07704291 0.02231778 -0.01701744 1.62352941 1.27058823 1.92941175
v 0.07736190 0.02254602 -0.01696149 1.62352941 1.27058823 1.92941175
v 0.07771968 0.02271606 -0.01689810 1.62352941 1.27058823 1.92941175
v 0.07809903 0.02281902 -0.01683096 1.62352941 1.27058823 1.92941175
v 0.07026225 0.01520199 -0.01712931 1.62352941 1.27058823 1.92941175
v 0.07026225 0.01523331 -0.01677129 1.62352941 1.27058823 1.92941175
v 0.07026225 0.01519752 -0.01717035 1.62352941 1.27058823 1.92941175
f 1 2 6
f 1 6 14
f 1 14 27
f 1 27 44
f 1 44 66
f 1 66 65
f 1 65 93
f 1 93 92
f 1 92 131
f 1 131 130
f 1 130 173
f 1 173 172
f 1 172 216
f 1 216 215
f 1 215 250
f 1 250 284
f 1 284 283
f 1 283 312
f 1 312 337
f 1 337 380
f 1 380 420
f 1 420 426
f 1 426 472
f 1 472 511
f 1 511 510
f 1 510 550
f 1 550 584
f 1 584 615
f 1 615 614
f 1 614 613
f 1 613 642
f 1 642 641
f 1 641 640
f 1 640 639
f 1 639 664
f 1 664 663
f 1 663 672
f 1 672 671
f 1 671 673
f 1 673 666
f 1 666 648
f 1 648 647
f 1 647 646
f 1 646 620
f 1 620 618
f 1 618 590
f 1 590 558
f 1 558 556
f 1 556 520
f 1 520 519
f 1 519 479
f 1 479 434
f 1 434 432
f 1 432 388
f 1 388 343
f 1 343 315
f 1 315 287
f 1 287 253
f 1 253 251
f 1 251 219
f 1 219 218
f 1 218 217
f 1 217 175
f 1 175 174
f 1 174 133
f 1 133 132
f 1 132 95
f 1 95 94
f 1 94 68
f 1 68 67
f 1 67 47
f 1 47 46
f 1 46 45
f 1 45 29
f 1 29 28
f 1 28 15
f 1 15 7
f 1 7 3
f 1 3 4
f 1 4 5
f 1 5 2
f 2 5 6
f 3 7 8
f 3 8 4
f 4 8 9
f 4 9 10
f 4 10 11
f 4 11 5
f 5 11 12
f 5 12 13
f 5 13 6
f 6 13 14
f 7 15 8
f 8 15 16
f 8 16 9
f 9 17 10
f 9 16 18
f 9 18 19
f 9 19 20
f 9 20 17
f 10 17 21
f 10 21 11
f 11 21 22
f 11 22 12
f 12 22 23
f 12 23 24
f 12 24 25
f 12 25 26
f 12 26 13
f 13 26 27
f 13 27 14
f 15 28 16
f 16 28 29
f 16 29 30
f 16 30 31
f 16 31 18
f 17 22 21
f 17 20 32
f 17 32 33
f 17 33 37
f 17 37 22
f 18 31 19
f 19 31 34
f 19 34 35
f 19 35 36
f 19 36 20
f 20 36 32
f 22 37 38
f 22 38 23
f 23 38 39
f 23 39 24
f 24 39 40
f 24 40 41
f 24 41 42
f 24 42 25
f 25 42 26
f 26 42 43
f 26 43 27
f 27 43 44
f 29 45 30
f 30 45 46
f 30 46 47
f 30 47 48
f 30 48 31
f 31 48 49
f 31 49 50
f 31 50 34
f 32 36 51
f 32 51 33
f 33 51 52
f 33 52 53
f 33 53 37
f 34 50 35
f 35 50 54
f 35 54 55
f 35 55 36
f 36 55 56
f 36 56 51
f 37 53 57
f 37 57 58
f 37 58 38
f 38 58 39
f 39 58 59
f 39 59 60
f 39 60 40
f 40 60 61
f 40 61 62
f 40 62 41
f 41 62 42
f 42 62 63
f 42 63 64
f 42 64 43
f 43 64 65
f 43 65 66
f 43 66 44
f 47 67 48
f 48 67 68
f 48 68 69
f 48 69 70
f 48 70 49
f 49 70 50
f 50 70 71
f 50 71 54
f 51 56 72
f 51 72 73
f 51 73 74
f 51 74 52
f 52 74 75
f 52 75 57
f 52 57 53
f 54 71 76
f 54 76 77
f 54 77 78
f 54 78 55
f 55 78 79
f 55 79 80
f 55 80 72
f 55 72 56
f 57 75 81
f 57 81 82
f 57 82 58
f 58 82 83
f 58 83 59
f 59 83 60
f 60 83 84
f 60 84 85
f 60 85 86
f 60 86 61
f 61 86 87
f 61 87 88
f 61 88 89
f 61 89 62
f 62 89 90
f 62 90 63
f 63 90 64
f 64 90 91
f 64 91 92
f 64 92 93
f 64 93 65
f 68 94 69
f 69 94 95
f 69 95 96
f 69 96 97
f 69 97 70
f 70 97 98
f 70 98 71
f 71 98 76
f 72 80 99
f 72 99 100
f 72 100 73
f 73 100 74
f 74 81 75
f 74 100 101
f 74 101 102
f 74 102 103
f 74 103 115
f 74 115 81
f 76 98 104
f 76 104 77
f 77 104 105
f 77 105 106
f 77 106 107
f 77 107 79
f 77 79 78
f 79 107 108
f 79 108 80
f 80 108 109
f 80 109 110
f 80 110 111
f 80 111 112
f 80 112 99
f 81 113 114
f 81 114 82
f 81 115 116
f 81 116 113
f 82 114 117
f 82 117 83
f 83 117 84
f 84 118 85
f 84 117 119
f 84 119 120
f 84 120 121
f 84 121 122
f 84 122 118
f 85 123 87
f 85 87 86
f 85 118 123
f 87 123 124
f 87 124 125
f 87 125 126
f 87 126 88
f 88 126 127
f 88 127 89
f 89 127 90
f 90 127 128
f 90 128 91
f 91 128 129
f 91 129 130
f 91 130 131
f 91 131 92
f 95 132 96
f 96 132 133
f 96 133 134
f 96 134 135
f 96 135 97
f 97 135 136
f 97 136 98
f 98 136 137
f 98 137 104
f 99 112 138
f 99 138 100
f 100 138 102
f 100 102 101
f 102 138 103
f 103 138 139
f 103 139 140
f 103 140 141
f 103 141 154
f 103 154 115
f 104 137 142
f 104 142 105
f 105 142 106
f 106 142 143
f 106 143 144
f 106 144 145
f 106 145 146
f 106 146 107
f 107 146 147
f 107 147 148
f 107 148 108
f 108 148 149
f 108 149 150
f 108 150 109
f 109 150 194
f 109 194 151
f 109 151 110
f 110 151 111
f 111 151 152
f 111 152 112
f 112 152 138
f 113 116 153
f 113 153 114
f 114 153 119
f 114 119 117
f 115 154 155
f 115 155 156
f 115 156 153
f 115 153 116
f 118 122 157
f 118 157 158
f 118 158 159
f 118 159 123
f 119 153 160
f 119 160 120
f 120 160 161
f 120 161 121
f 121 161 122
f 122 161 199
f 122 199 157
f 123 162 124
f 123 159 163
f 123 163 162
f 124 162 164
f 124 164 165
f 124 165 166
f 124 166 167
f 124 167 125
f 125 167 126
f 126 167 168
f 126 168 127
f 127 168 169
f 127 169 128
f 128 169 170
f 128 170 129
f 129 170 171
f 129 171 172
f 129 172 173
f 129 173 130
f 133 174 134
f 134 174 175
f 134 175 176
f 134 176 177
f 134 177 135
f 135 177 178
f 135 178 136
f 136 178 179
f 136 179 137
f 137 179 142
f 138 152 139
f 139 152 140
f 140 152 180
f 140 180 181
f 140 181 141
f 141 181 182
f 141 182 183
f 141 183 154
f 142 179 184
f 142 184 185
f 142 185 143
f 143 185 226
f 143 226 186
f 143 186 144
f 144 186 187
f 144 187 188
f 144 188 189
f 144 189 145
f 145 189 147
f 145 147 146
f 147 189 190
f 147 190 148
f 148 190 191
f 148 191 192
f 148 192 193
f 148 193 194
f 148 194 149
f 149 194 150
f 151 194 193
f 151 193 195
f 151 195 152
f 152 195 180
f 153 156 160
f 154 183 196
f 154 196 197
f 154 197 155
f 155 198 160
f 155 160 156
f 155 197 198
f 157 199 158
f 158 199 159
f 159 199 200
f 159 200 201
f 159 201 202
f 159 202 203
f 159 203 163
f 160 198 204
f 160 204 161
f 161 204 200
f 161 200 199
f 162 163 205
f 162 205 164
f 163 203 205
f 164 205 165
f 165 206 166
f 165 205 207
f 165 207 208
f 165 208 206
f 166 209 210
f 166 210 167
f 166 206 246
f 166 246 209
f 167 210 211
f 167 211 168
f 168 211 169
f 169 211 212
f 169 212 170
f 170 212 213
f 170 213 171
f 171 213 214
f 171 214 215
f 171 215 216
f 171 216 172
f 175 217 176
f 176 217 218
f 176 218 219
f 176 219 220
f 176 220 177
f 177 220 178
f 178 220 179
f 179 220 184
f 180 195 221
f 180 221 181
f 181 221 222
f 181 222 223
f 181 223 224
f 181 224 182
f 182 196 183
f 182 224 235
f 182 235 196
f 184 220 185
f 185 220 225
f 185 225 226
f 186 226 227
f 186 227 187
f 187 227 261
f 187 261 228
f 187 228 188
f 188 228 190
f 188 190 189
f 190 228 229
f 190 229 191
f 191 230 192
f 191 229 231
f 191 231 232
f 191 232 230
f 192 230 193
f 193 230 233
f 193 233 195
f 195 233 234
f 195 234 221
f 196 235 197
f 197 235 236
f 197 236 237
f 197 237 238
f 197 238 198
f 198 238 204
f 200 239 240
f 200 240 201
f 200 204 239
f 201 240 202
f 202 240 241
f 202 241 242
f 202 242 243
f 202 243 203
f 203 207 205
f 203 243 244
f 203 244 207
f 204 238 245
f 204 245 239
f 206 208 247
f 206 247 246
f 207 244 208
f 208 244 281
f 208 281 247
f 209 248 210
f 209 246 249
f 209 249 248
f 210 248 211
f 211 248 212
f 212 248 213
f 213 248 214
f 214 248 250
f 214 250 215
f 219 251 220
f 220 252 225
f 220 251 253
f 220 253 254
f 220 254 252
f 221 234 255
f 221 255 222
f 222 255 256
f 222 256 257
f 222 257 258
f 222 258 223
f 223 258 224
f 224 258 259
f 224 259 269
f 224 269 235
f 225 252 260
f 225 260 227
f 225 227 226
f 227 260 261
f 228 261 262
f 228 262 229
f 229 262 231
f 230 232 263
f 230 263 264
f 230 264 265
f 230 265 233
f 231 262 266
f 231 266 267
f 231 267 268
f 231 268 232
f 232 268 263
f 233 265 234
f 234 265 255
f 235 269 270
f 235 270 236
f 236 270 237
f 237 270 271
f 237 271 272
f 237 272 273
f 237 273 238
f 238 273 245
f 239 245 274
f 239 274 240
f 240 274 275
f 240 275 276
f 240 276 241
f 241 276 277
f 241 277 242
f 242 277 278
f 242 278 279
f 242 279 280
f 242 280 243
f 243 280 244
f 244 280 281
f 245 273 274
f 246 247 282
f 246 282 249
f 247 281 282
f 248 283 284
f 248 284 250
f 248 249 285
f 248 285 283
f 249 282 286
f 249 286 285
f 252 254 260
f 253 287 288
f 253 288 254
f 254 288 319
f 254 319 289
f 254 289 290
f 254 290 267
f 254 267 266
f 254 266 262
f 254 262 261
f 254 261 260
f 255 265 256
f 256 265 291
f 256 291 292
f 256 292 293
f 256 293 294
f 256 294 257
f 257 294 258
f 258 294 295
f 258 295 259
f 259 295 296
f 259 296 297
f 259 297 269
f 263 268 298
f 263 298 299
f 263 299 264
f 264 299 265
f 265 299 291
f 267 290 300
f 267 300 268
f 268 300 298
f 269 297 301
f 269 301 302
f 269 302 270
f 270 302 303
f 270 303 271
f 271 303 272
f 272 304 274
f 272 274 273
f 272 303 305
f 272 305 306
f 272 306 304
f 274 304 307
f 274 307 275
f 275 307 276
f 276 307 308
f 276 308 277
f 277 308 309
f 277 309 278
f 278 309 310
f 278 310 286
f 278 286 279
f 279 286 280
f 280 286 281
f 281 286 282
f 283 285 311
f 283 311 312
f 285 286 314
f 285 314 336
f 285 336 311
f 286 310 313
f 286 313 340
f 286 340 314
f 287 315 316
f 287 316 288
f 288 316 317
f 288 317 318
f 288 318 319
f 289 320 290
f 289 319 347
f 289 347 320
f 290 320 300
f 291 299 292
f 292 299 321
f 292 321 348
f 292 348 322
f 292 322 323
f 292 323 293
f 293 323 324
f 293 324 294
f 294 324 325
f 294 325 295
f 295 325 326
f 295 326 296
f 296 301 297
f 296 326 328
f 296 328 301
f 298 300 320
f 298 320 327
f 298 327 321
f 298 321 299
f 301 328 329
f 301 329 302
f 302 329 330
f 302 330 303
f 303 330 331
f 303 331 305
f 304 306 307
f 305 331 333
f 305 333 306
f 306 332 307
f 306 333 375
f 306 375 332
f 307 332 308
f 308 332 334
f 308 334 335
f 308 335 309
f 309 335 310
f 310 335 313
f 311 336 312
f 312 336 338
f 312 338 339
f 312 339 337
f 313 335 378
f 313 378 340
f 314 340 341
f 314 341 342
f 314 342 379
f 314 379 336
f 315 343 316
f 316 344 317
f 316 343 344
f 317 344 318
f 318 345 319
f 318 344 390
f 318 390 346
f 318 346 345
f 319 345 347
f 320 347 362
f 320 362 327
f 321 327 362
f 321 362 348
f 322 348 349
f 322 349 350
f 322 350 323
f 323 350 351
f 323 351 352
f 323 352 324
f 324 352 325
f 325 352 353
f 325 353 326
f 326 353 354
f 326 354 355
f 326 355 356
f 326 356 357
f 326 357 358
f 326 358 359
f 326 359 360
f 326 360 361
f 326 361 363
f 326 363 328
f 328 363 364
f 328 364 365
f 328 365 366
f 328 366 367
f 328 367 368
f 328 368 369
f 328 369 370
f 328 370 371
f 328 371 329
f 329 371 372
f 329 372 330
f 330 372 331
f 331 372 373
f 331 373 374
f 331 374 333
f 332 375 377
f 332 377 334
f 333 374 376
f 333 376 375
f 334 377 378
f 334 378 335
f 336 379 338
f 337 339 380
f 338 379 381
f 338 381 382
f 338 382 383
f 338 383 339
f 339 383 384
f 339 384 380
f 340 378 341
f 341 378 385
f 341 385 386
f 341 386 387
f 341 387 342
f 342 387 419
f 342 419 379
f 343 388 389
f 343 389 344
f 344 389 390
f 345 391 347
f 345 346 392
f 345 392 391
f 346 390 393
f 346 393 394
f 346 394 392
f 347 391 395
f 347 395 362
f 348 362 349
f 349 362 395
f 349 395 396
f 349 396 350
f 350 396 397
f 350 397 398
f 350 398 351
f 351 398 352
f 352 398 399
f 352 399 354
f 352 354 353
f 354 399 400
f 354 400 355
f 355 400 401
f 355 401 356
f 356 401 402
f 356 402 357
f 357 402 358
f 358 402 403
f 358 403 404
f 358 404 359
f 359 404 405
f 359 405 360
f 360 405 406
f 360 406 361
f 361 406 407
f 361 407 363
f 363 407 408
f 363 408 364
f 364 408 365
f 365 408 409
f 365 409 366
f 366 409 410
f 366 410 411
f 366 411 367
f 367 411 412
f 367 412 368
f 368 412 369
f 369 412 413
f 369 413 414
f 369 414 370
f 370 414 372
f 370 372 371
f 372 414 415
f 372 415 373
f 373 415 374
f 374 415 416
f 374 416 417
f 374 417 376
f 375 376 377
f 376 418 377
f 376 417 418
f 377 418 378
f 378 418 385
f 379 419 381
f 380 384 420
f 381 419 421
f 381 421 422
f 381 422 382
f 382 422 383
f 383 422 423
f 383 423 384
f 384 423 424
f 384 424 425
f 384 425 426
f 384 426 420
f 385 418 427
f 385 427 386
f 386 427 428
f 386 428 429
f 386 429 430
f 386 430 387
f 387 430 431
f 387 431 419
f 388 432 389
f 389 433 390
f 389 432 434
f 389 434 433
f 390 433 435
f 390 435 436
f 390 436 393
f 391 392 437
f 391 437 395
f 392 394 438
f 392 438 439
f 392 439 437
f 393 436 394
f 394 436 440
f 394 440 441
f 394 441 442
f 394 442 438
f 395 437 443
f 395 443 396
f 396 443 444
f 396 444 445
f 396 445 446
f 396 446 397
f 397 446 398
f 398 446 447
f 398 447 400
f 398 400 399
f 400 447 448
f 400 448 401
f 401 448 402
f 402 448 449
f 402 449 450
f 402 450 403
f 403 450 404
f 404 450 451
f 404 451 405
f 405 451 452
f 405 452 453
f 405 453 406
f 406 453 454
f 406 454 407
f 407 454 455
f 407 455 408
f 408 455 456
f 408 456 457
f 408 457 409
f 409 457 458
f 409 458 410
f 410 458 411
f 411 458 459
f 411 459 460
f 411 460 412
f 412 460 413
f 413 415 414
f 413 460 461
f 413 461 415
f 415 461 462
f 415 462 416
f 416 462 417
f 417 462 463
f 417 463 464
f 417 464 465
f 417 465 418
f 418 465 427
f 419 431 466
f 419 466 421
f 421 466 467
f 421 467 468
f 421 468 422
f 422 468 424
f 422 424 423
f 424 468 469
f 424 469 470
f 424 470 425
f 425 471 426
f 425 470 471
f 426 471 472
f 427 465 464
f 427 464 428
f 428 473 474
f 428 474 429
f 428 464 473
f 429 474 430
f 430 474 475
f 430 475 476
f 430 476 466
f 430 466 431
f 433 477 478
f 433 478 435
f 433 434 477
f 434 479 477
f 435 478 480
f 435 480 481
f 435 481 436
f 436 481 482
f 436 482 440
f 437 439 444
f 437 444 443
f 438 442 439
f 439 442 483
f 439 483 444
f 440 482 441
f 441 482 484
f 441 484 485
f 441 485 442
f 442 485 486
f 442 486 483
f 444 483 487
f 444 487 488
f 444 488 445
f 445 488 446
f 446 448 447
f 446 488 489
f 446 489 448
f 448 489 449
f 449 489 490
f 449 490 450
f 450 490 491
f 450 491 451
f 451 491 492
f 451 492 493
f 451 493 452
f 452 493 453
f 453 455 454
f 453 493 494
f 453 494 495
f 453 495 455
f 455 495 496
f 455 496 497
f 455 497 456
f 456 497 457
f 457 497 498
f 457 498 499
f 457 499 458
f 458 499 500
f 458 500 459
f 459 500 501
f 459 501 460
f 460 462 461
f 460 501 462
f 462 501 502
f 462 502 463
f 463 502 464
f 464 502 503
f 464 503 473
f 466 476 504
f 466 504 505
f 466 505 467
f 467 505 468
f 468 505 506
f 468 506 469
f 469 506 507
f 469 507 470
f 470 507 508
f 470 508 509
f 470 509 510
f 470 510 471
f 471 510 511
f 471 511 472
f 473 503 512
f 473 512 513
f 473 513 514
f 473 514 474
f 474 514 515
f 474 515 475
f 475 504 476
f 475 515 516
f 475 516 504
f 477 517 518
f 477 518 478
f 477 479 519
f 477 519 520
f 477 520 517
f 478 518 480
f 480 521 522
f 480 522 523
f 480 523 524
f 480 524 481
f 480 518 521
f 481 524 525
f 481 525 482
f 482 525 484
f 483 486 526
f 483 526 527
f 483 527 487
f 484 525 485
f 485 528 529
f 485 529 486
f 485 525 528
f 486 529 530
f 486 530 531
f 486 531 526
f 487 527 488
f 488 527 532
f 488 532 490
f 488 490 489
f 490 532 533
f 490 533 491
f 491 533 492
f 492 533 534
f 492 534 535
f 492 535 493
f 493 535 536
f 493 536 494
f 494 536 537
f 494 537 496
f 494 496 495
f 496 537 538
f 496 538 497
f 497 538 539
f 497 539 498
f 498 539 540
f 498 540 541
f 498 541 499
f 499 541 500
f 500 541 542
f 500 542 502
f 500 502 501
f 502 542 512
f 502 512 503
f 504 516 543
f 504 543 505
f 505 543 544
f 505 544 545
f 505 545 506
f 506 545 507
f 507 545 546
f 507 546 547
f 507 547 548
f 507 548 508
f 508 549 509
f 508 548 549
f 509 549 550
f 509 550 510
f 512 541 551
f 512 551 552
f 512 552 513
f 512 542 541
f 513 552 514
f 514 552 553
f 514 553 554
f 514 554 515
f 515 554 555
f 515 555 543
f 515 543 516
f 517 520 556
f 517 556 518
f 518 557 521
f 518 556 558
f 518 558 557
f 521 559 522
f 521 557 559
f 522 560 561
f 522 561 562
f 522 562 563
f 522 563 523
f 522 559 560
f 523 563 524
f 524 563 564
f 524 564 565
f 524 565 525
f 525 565 528
f 526 531 527
f 527 531 566
f 527 566 533
f 527 533 532
f 528 565 529
f 529 565 567
f 529 567 568
f 529 568 530
f 530 568 569
f 530 569 570
f 530 570 531
f 531 570 566
f 533 566 571
f 533 571 534
f 534 571 535
f 535 571 572
f 535 572 573
f 535 573 536
f 536 573 574
f 536 574 538
f 536 538 537
f 538 574 575
f 538 575 539
f 539 575 576
f 539 576 577
f 539 577 540
f 540 577 541
f 541 577 551
f 543 555 578
f 543 578 544
f 544 578 579
f 544 579 546
f 544 546 545
f 546 579 580
f 546 580 547
f 547 580 581
f 547 581 548
f 548 581 582
f 548 582 583
f 548 583 549
f 549 583 584
f 549 584 550
f 551 577 585
f 551 585 552
f 552 585 553
f 553 585 586
f 553 586 587
f 553 587 554
f 554 578 555
f 554 587 588
f 554 588 578
f 557 589 559
f 557 558 589
f 558 590 589
f 559 591 592
f 559 592 560
f 559 589 591
f 560 592 593
f 560 593 561
f 561 593 594
f 561 594 562
f 562 594 595
f 562 595 596
f 562 596 563
f 563 596 564
f 564 596 597
f 564 597 565
f 565 597 598
f 565 598 567
f 566 570 571
f 567 598 568
f 568 598 629
f 568 629 599
f 568 599 600
f 568 600 569
f 569 600 570
f 570 600 601
f 570 601 572
f 570 572 571
f 572 601 602
f 572 602 573
f 573 602 603
f 573 603 575
f 573 575 574
f 575 603 576
f 576 603 604
f 576 604 585
f 576 585 577
f 578 588 605
f 578 605 579
f 579 605 606
f 579 606 580
f 580 606 607
f 580 607 608
f 580 608 609
f 580 609 581
f 581 609 610
f 581 610 582
f 582 610 611
f 582 611 612
f 582 612 583
f 583 612 613
f 583 613 614
f 583 614 615
f 583 615 584
f 585 604 616
f 585 616 586
f 586 616 587
f 587 605 588
f 587 616 617
f 587 617 633
f 587 633 605
f 589 590 591
f 590 618 591
f 591 619 592
f 591 618 620
f 591 620 619
f 592 621 593
f 592 619 621
f 593 622 623
f 593 623 624
f 593 624 594
f 593 621 622
f 594 624 625
f 594 625 626
f 594 626 595
f 595 626 596
f 596 626 627
f 596 627 597
f 597 627 628
f 597 628 629
f 597 629 598
f 599 629 654
f 599 654 630
f 599 630 631
f 599 631 600
f 600 631 602
f 600 602 601
f 602 631 632
f 602 632 603
f 603 632 616
f 603 616 604
f 605 633 607
f 605 607 606
f 607 633 634
f 607 634 635
f 607 635 608
f 608 635 609
f 609 636 637
f 609 637 610
f 609 635 636
f 610 637 611
f 611 637 638
f 611 638 639
f 611 639 640
f 611 640 612
f 612 640 641
f 612 641 642
f 612 642 613
f 616 632 617
f 617 632 643
f 617 643 655
f 617 655 633
f 619 644 645
f 619 645 621
f 619 620 646
f 619 646 647
f 619 647 648
f 619 648 644
f 621 645 649
f 621 649 622
f 622 649 623
f 623 650 651
f 623 651 652
f 623 652 653
f 623 653 624
f 623 649 650
f 624 653 625
f 625 653 654
f 625 654 626
f 626 654 627
f 627 654 628
f 628 654 629
f 630 654 655
f 630 655 643
f 630 643 632
f 630 632 631
f 633 655 634
f 634 656 657
f 634 657 635
f 634 655 654
f 634 654 656
f 635 657 658
f 635 658 636
f 636 658 659
f 636 659 637
f 637 659 660
f 637 660 661
f 637 661 638
f 638 661 662
f 638 662 672
f 638 672 663
f 638 663 664
f 638 664 639
f 644 665 645
f 644 648 666
f 644 666 665
f 645 667 668
f 645 668 649
f 645 665 667
f 649 668 650
f 650 669 651
f 650 668 669
f 651 670 654
f 651 654 652
f 651 669 670
f 652 654 653
f 654 670 656
f 656 670 669
f 656 669 657
f 657 669 668
f 657 668 658
f 658 668 660
f 658 660 659
f 660 668 667
f 660 667 665
f 660 665 662
f 660 662 661
f 662 665 671
f 662 671 672
f 665 666 673
f 665 673 671