# https://github.com/mikedh/trimesh
v -0.07469790 0.01537365 0.01676352 1.14117648 2.36470587 1.57647060
v -0.07469790 0.01537365 0.00795438 1.14117648 2.36470587 1.57647060
v -0.07469790 0.01533246 0.01717083 1.14117648 2.36470587 1.57647060
v 0.00000000 0.01519773 0.01715997 1.14117648 2.36470587 1.57647060
v 0.00000000 0.01521645 0.01696227 1.14117648 2.36470587 1.57647060
v 0.00000000 0.01523142 0.01676352 1.14117648 2.36470587 1.57647060
v -0.07469790 -0.02286516 0.00795438 1.14117648 2.36470587 1.57647060
v 0.00000000 0.01523142 0.01024953 1.14117648 2.36470587 1.57647060
v -0.01596909 0.01523142 0.00795438 1.14117648 2.36470587 1.57647060
v -0.07469790 0.01522767 0.01754559 1.14117648 2.36470587 1.57647060
v 0.00000000 0.01509666 0.01754559 1.14117648 2.36470587 1.57647060
v -0.07469790 -0.02286516 0.01671462 1.14117648 2.36470587 1.57647060
v -0.01743147 -0.02286516 0.00795438 1.14117648 2.36470587 1.57647060
v 0.00000000 0.01521645 0.01006380 1.14117648 2.36470587 1.57647060
v 0.00000000 0.01520148 0.00988239 1.14117648 2.36470587 1.57647060
v 0.00000000 0.01516029 0.00970209 1.14117648 2.36470587 1.57647060
v 0.00000000 0.01511538 0.00952503 1.14117648 2.36470587 1.57647060
v 0.00000000 0.01496940 0.00918615 1.14117648 2.36470587 1.57647060
v 0.00000000 0.01487208 0.00902865 1.14117648 2.36470587 1.57647060
v 0.00000000 0.01477101 0.00887439 1.14117648 2.36470587 1.57647060
v -0.01563276 0.01520520 0.00795438 1.14117648 2.36470587 1.57647060
v -0.07469790 0.01520895 0.01758795 1.14117648 2.36470587 1.57647060
v 0.00000000 0.01492824 0.01790619 1.14117648 2.36470587 1.57647060
v -0.05643291 -0.02286516 0.01676352 1.14117648 2.36470587 1.57647060
v -0.07469790 -0.02286141 0.01677111 1.14117648 2.36470587 1.57647060
v -0.01704393 -0.02283147 0.00795438 1.14117648 2.36470587 1.57647060
v 0.00000000 -0.02257320 0.01060038 1.14117648 2.36470587 1.57647060
v 0.00000000 -0.02273415 0.01095339 1.14117648 2.36470587 1.57647060
v 0.00000000 -0.02278281 0.01113804 1.14117648 2.36470587 1.57647060
v 0.00000000 -0.02283147 0.01132812 1.14117648 2.36470587 1.57647060
v 0.00000000 -0.02286516 0.01171374 1.14117648 2.36470587 1.57647060
v 0.00000000 0.01452771 0.00859851 1.14117648 2.36470587 1.57647060
v -0.01560351 0.01520148 0.00795438 1.14117648 2.36470587 1.57647060
v 0.00000000 0.01424325 0.00836604 1.14117648 2.36470587 1.57647060
v 0.00000000 0.01408605 0.00826830 1.14117648 2.36470587 1.57647060
v 0.00000000 0.01400370 0.00822483 1.14117648 2.36470587 1.57647060
v 0.00000000 0.01392135 0.00818247 1.14117648 2.36470587 1.57647060
v 0.00000000 0.01375290 0.00811080 1.14117648 2.36470587 1.57647060
v 0.00000000 0.01357698 0.00805215 1.14117648 2.36470587 1.57647060
v -0.07469790 0.01505550 0.01790619 1.14117648 2.36470587 1.57647060
v 0.00000000 0.01469991 0.01823313 1.14117648 2.36470587 1.57647060
v 0.00000000 -0.02286516 0.01676352 1.14117648 2.36470587 1.57647060
v -0.03761949 -0.02283897 0.01706112 1.14117648 2.36470587 1.57647060
v -0.05643291 -0.02284269 0.01701117 1.14117648 2.36470587 1.57647060
v -0.07469790 -0.02282772 0.01715889 1.14117648 2.36470587 1.57647060
v -0.01667103 -0.02273415 0.00795438 1.14117648 2.36470587 1.57647060
v 0.00000000 -0.02160750 0.00967383 1.14117648 2.36470587 1.57647060
v 0.00000000 -0.02169360 0.00972054 1.14117648 2.36470587 1.57647060
v 0.00000000 -0.02177595 0.00976833 1.14117648 2.36470587 1.57647060
v 0.00000000 -0.02185827 0.00982266 1.14117648 2.36470587 1.57647060
v 0.00000000 -0.02193690 0.00987696 1.14117648 2.36470587 1.57647060
v 0.00000000 -0.02209035 0.00999861 1.14117648 2.36470587 1.57647060
v 0.00000000 -0.02235612 0.01027887 1.14117648 2.36470587 1.57647060
v 0.00000000 -0.02246466 0.01043745 1.14117648 2.36470587 1.57647060
v -0.01527447 0.01512285 0.00795438 1.14117648 2.36470587 1.57647060
v 0.00000000 0.01339734 0.00800868 1.14117648 2.36470587 1.57647060
v 0.00000000 0.01321392 0.00797937 1.14117648 2.36470587 1.57647060
v 0.00000000 0.01303050 0.00796524 1.14117648 2.36470587 1.57647060
v -0.07469790 0.01499559 0.01799091 1.14117648 2.36470587 1.57647060
v 0.00000000 0.01441542 0.01851447 1.14117648 2.36470587 1.57647060
v -0.07469790 0.01481967 0.01823313 1.14117648 2.36470587 1.57647060
v 0.00000000 -0.02284644 0.01696227 1.14117648 2.36470587 1.57647060
v -0.05643291 -0.02282772 0.01715997 1.14117648 2.36470587 1.57647060
v 0.00000000 -0.02282772 0.01715997 1.14117648 2.36470587 1.57647060
v -0.07469790 -0.02272668 0.01754340 1.14117648 2.36470587 1.57647060
v -0.05643291 -0.02281650 0.01720884 1.14117648 2.36470587 1.57647060
v -0.01661985 -0.02271168 0.00795438 1.14117648 2.36470587 1.57647060
v 0.00000000 -0.02124816 0.00952830 1.14117648 2.36470587 1.57647060
v 0.00000000 -0.02134176 0.00956088 1.14117648 2.36470587 1.57647060
v 0.00000000 -0.02143158 0.00959346 1.14117648 2.36470587 1.57647060
v 0.00000000 -0.02152140 0.00963366 1.14117648 2.36470587 1.57647060
v -0.01524522 0.01511538 0.00795438 1.14117648 2.36470587 1.57647060
v 0.00000000 0.01284711 0.00796632 1.14117648 2.36470587 1.57647060
v -0.01531104 -0.02143158 0.00795438 1.14117648 2.36470587 1.57647060
v -0.01524522 -0.02124816 0.00795438 1.14117648 2.36470587 1.57647060
v -0.01520136 -0.02107599 0.00795438 1.14117648 2.36470587 1.57647060
v -0.01516479 -0.02088510 0.00795438 1.14117648 2.36470587 1.57647060
v -0.01515018 -0.02069046 0.00795438 1.14117648 2.36470587 1.57647060
v -0.01368780 0.01281717 0.00795438 1.14117648 2.36470587 1.57647060
v -0.01368048 0.01303050 0.00795438 1.14117648 2.36470587 1.57647060
v -0.01369512 0.01321392 0.00795438 1.14117648 2.36470587 1.57647060
v -0.01372434 0.01339734 0.00795438 1.14117648 2.36470587 1.57647060
v -0.01376823 0.01357698 0.00795438 1.14117648 2.36470587 1.57647060
v -0.01382673 0.01375290 0.00795438 1.14117648 2.36470587 1.57647060
v -0.01389984 0.01392135 0.00795438 1.14117648 2.36470587 1.57647060
v -0.01398759 0.01408980 0.00795438 1.14117648 2.36470587 1.57647060
v -0.01408995 0.01424700 0.00795438 1.14117648 2.36470587 1.57647060
v -0.01432392 0.01453521 0.00795438 1.14117648 2.36470587 1.57647060
v -0.01459446 0.01477101 0.00795438 1.14117648 2.36470587 1.57647060
v -0.01460910 0.01478226 0.00795438 1.14117648 2.36470587 1.57647060
v -0.01490157 0.01496940 0.00795438 1.14117648 2.36470587 1.57647060
v -0.01492350 0.01498062 0.00795438 1.14117648 2.36470587 1.57647060
v 0.00000000 0.01425447 0.01862853 1.14117648 2.36470587 1.57647060
v -0.07469790 0.01469616 0.01835262 1.14117648 2.36470587 1.57647060
v -0.07469790 0.01452771 0.01851447 1.14117648 2.36470587 1.57647060
v 0.00000000 -0.02272668 0.01754559 1.14117648 2.36470587 1.57647060
v -0.01881339 -0.02281650 0.01720884 1.14117648 2.36470587 1.57647060
v -0.07469790 -0.02255448 0.01791054 1.14117648 2.36470587 1.57647060
v -0.05643291 -0.02272668 0.01754559 1.14117648 2.36470587 1.57647060
v -0.05643291 -0.02255823 0.01790619 1.14117648 2.36470587 1.57647060
v -0.03761949 -0.02275287 0.01744890 1.14117648 2.36470587 1.57647060
v -0.01632006 -0.02257320 0.00795438 1.14117648 2.36470587 1.57647060
v 0.00000000 -0.02106102 0.00947940 1.14117648 2.36470587 1.57647060
v 0.00000000 -0.00468525 0.00873210 1.14117648 2.36470587 1.57647060
v -0.01539147 -0.02160750 0.00795438 1.14117648 2.36470587 1.57647060
v 0.00000000 -0.02067549 0.00943053 1.14117648 2.36470587 1.57647060
v 0.00000000 0.01408980 0.01874367 1.14117648 2.36470587 1.57647060
v -0.07469790 0.01432935 0.01865025 1.14117648 2.36470587 1.57647060
v 0.00000000 -0.02255823 0.01790619 1.14117648 2.36470587 1.57647060
v -0.01881339 -0.02262186 0.01777152 1.14117648 2.36470587 1.57647060
v -0.07469790 -0.02232615 0.01823640 1.14117648 2.36470587 1.57647060
v -0.05643291 -0.02232990 0.01823313 1.14117648 2.36470587 1.57647060
v -0.01881339 -0.02241600 0.01811040 1.14117648 2.36470587 1.57647060
v -0.01627620 -0.02254701 0.00795438 1.14117648 2.36470587 1.57647060
v 0.00000000 -0.02096745 0.00946311 1.14117648 2.36470587 1.57647060
v -0.01549383 -0.02179092 0.00795438 1.14117648 2.36470587 1.57647060
v 0.00000000 -0.02077281 0.00943815 1.14117648 2.36470587 1.57647060
v -0.01559619 -0.02193690 0.00795438 1.14117648 2.36470587 1.57647060
v 0.00000000 0.01373046 0.01891203 1.14117648 2.36470587 1.57647060
v -0.07469790 0.01419084 0.01874367 1.14117648 2.36470587 1.57647060
v 0.00000000 -0.02232990 0.01823313 1.14117648 2.36470587 1.57647060
v -0.07469790 -0.02204169 0.01851663 1.14117648 2.36470587 1.57647060
v -0.05643291 -0.02208288 0.01847970 1.14117648 2.36470587 1.57647060
v -0.01881339 -0.02215398 0.01840911 1.14117648 2.36470587 1.57647060
v -0.01599834 -0.02235612 0.00795438 1.14117648 2.36470587 1.57647060
v 0.00000000 -0.02087013 0.00944682 1.14117648 2.36470587 1.57647060
v -0.01572048 -0.02209035 0.00795438 1.14117648 2.36470587 1.57647060
v 0.00000000 0.01334493 0.01901520 1.14117648 2.36470587 1.57647060
v -0.07469790 0.01382028 0.01891203 1.14117648 2.36470587 1.57647060
v 0.00000000 -0.02204544 0.01851447 1.14117648 2.36470587 1.57647060
v -0.01881339 -0.02208288 0.01847970 1.14117648 2.36470587 1.57647060
v -0.07469790 -0.02172729 0.01873932 1.14117648 2.36470587 1.57647060
v -0.05643291 -0.02204544 0.01851447 1.14117648 2.36470587 1.57647060
v -0.03761949 -0.02196684 0.01857204 1.14117648 2.36470587 1.57647060
v -0.05643291 -0.02192565 0.01860027 1.14117648 2.36470587 1.57647060
v -0.01596177 -0.02232615 0.00795438 1.14117648 2.36470587 1.57647060
v 0.00000000 0.01314654 0.01903260 1.14117648 2.36470587 1.57647060
v -0.07469790 0.01342353 0.01901520 1.14117648 2.36470587 1.57647060
v 0.00000000 -0.02188449 0.01862853 1.14117648 2.36470587 1.57647060
v -0.05643291 -0.02171979 0.01874367 1.14117648 2.36470587 1.57647060
v -0.05643291 -0.02136045 0.01891203 1.14117648 2.36470587 1.57647060
v -0.07469790 -0.02136045 0.01891095 1.14117648 2.36470587 1.57647060
v 0.00000000 -0.02171979 0.01874367 1.14117648 2.36470587 1.57647060
v 0.00000000 0.01294815 0.01904889 1.14117648 2.36470587 1.57647060
v -0.07469790 0.01307169 0.01904454 1.14117648 2.36470587 1.57647060
v -0.05643291 -0.02097492 0.01901520 1.14117648 2.36470587 1.57647060
v -0.07469790 -0.02098242 0.01901304 1.14117648 2.36470587 1.57647060
v 0.00000000 -0.02136045 0.01891203 1.14117648 2.36470587 1.57647060
v 0.00000000 -0.00366714 0.01904997 1.14117648 2.36470587 1.57647060
v -0.07469790 0.01301553 0.01904889 1.14117648 2.36470587 1.57647060
v -0.05643291 -0.02092626 0.01901955 1.14117648 2.36470587 1.57647060
v -0.07469790 -0.02097117 0.01901520 1.14117648 2.36470587 1.57647060
v 0.00000000 -0.02097492 0.01901520 1.14117648 2.36470587 1.57647060
v 0.00000000 -0.00396285 0.01904997 1.14117648 2.36470587 1.57647060
v -0.07469790 -0.02058564 0.01904889 1.14117648 2.36470587 1.57647060
v -0.01881339 -0.02092626 0.01901955 1.14117648 2.36470587 1.57647060
v -0.01881339 -0.02072790 0.01903695 1.14117648 2.36470587 1.57647060
v 0.00000000 -0.02077656 0.01903260 1.14117648 2.36470587 1.57647060
v 0.00000000 -0.02057817 0.01904889 1.14117648 2.36470587 1.57647060
v -0.01881339 -0.02062683 0.01904562 1.14117648 2.36470587 1.57647060
f 1 2 7
f 1 7 12
f 1 12 25
f 1 25 45
f 1 45 65
f 1 65 98
f 1 98 111
f 1 111 122
f 1 122 132
f 1 132 142
f 1 142 147
f 1 147 152
f 1 152 155
f 1 155 150
f 1 150 145
f 1 145 138
f 1 138 129
f 1 129 120
f 1 120 108
f 1 108 95
f 1 95 94
f 1 94 61
f 1 61 59
f 1 59 40
f 1 40 22
f 1 22 10
f 1 10 3
f 1 3 4
f 1 4 5
f 1 5 6
f 1 6 8
f 1 8 2
f 2 8 9
f 2 9 21
f 2 21 33
f 2 33 55
f 2 55 72
f 2 72 92
f 2 92 91
f 2 91 90
f 2 90 89
f 2 89 88
f 2 88 87
f 2 87 86
f 2 86 85
f 2 85 84
f 2 84 83
f 2 83 82
f 2 82 81
f 2 81 80
f 2 80 79
f 2 79 78
f 2 78 77
f 2 77 76
f 2 76 75
f 2 75 74
f 2 74 105
f 2 105 116
f 2 116 118
f 2 118 127
f 2 127 136
f 2 136 125
f 2 125 114
f 2 114 102
f 2 102 67
f 2 67 46
f 2 46 26
f 2 26 13
f 2 13 7
f 3 10 11
f 3 11 4
f 4 11 23
f 4 23 41
f 4 41 60
f 4 60 93
f 4 93 107
f 4 107 119
f 4 119 128
f 4 128 137
f 4 137 144
f 4 144 149
f 4 149 154
f 4 154 159
f 4 159 158
f 4 158 153
f 4 153 148
f 4 148 143
f 4 143 139
f 4 139 130
f 4 130 121
f 4 121 109
f 4 109 96
f 4 96 64
f 4 64 62
f 4 62 42
f 4 42 31
f 4 31 30
f 4 30 29
f 4 29 28
f 4 28 27
f 4 27 54
f 4 54 53
f 4 53 52
f 4 52 51
f 4 51 50
f 4 50 49
f 4 49 48
f 4 48 47
f 4 47 71
f 4 71 70
f 4 70 69
f 4 69 68
f 4 68 103
f 4 103 115
f 4 115 126
f 4 126 117
f 4 117 106
f 4 106 104
f 4 104 73
f 4 73 58
f 4 58 57
f 4 57 56
f 4 56 39
f 4 39 38
f 4 38 37
f 4 37 36
f 4 36 35
f 4 35 34
f 4 34 32
f 4 32 20
f 4 20 19
f 4 19 18
f 4 18 17
f 4 17 16
f 4 16 15
f 4 15 14
f 4 14 8
f 4 8 6
f 4 6 5
f 7 13 31
f 7 31 42
f 7 42 24
f 7 24 12
f 8 14 9
f 9 14 15
f 9 15 16
f 9 16 17
f 9 17 18
f 9 18 19
f 9 19 20
f 9 20 21
f 10 22 11
f 11 22 23
f 12 24 25
f 13 26 27
f 13 27 28
f 13 28 29
f 13 29 30
f 13 30 31
f 20 32 21
f 21 32 34
f 21 34 35
f 21 35 36
f 21 36 37
f 21 37 38
f 21 38 39
f 21 39 33
f 22 40 23
f 23 40 41
f 24 42 43
f 24 43 44
f 24 44 45
f 24 45 25
f 26 46 47
f 26 47 48
f 26 48 49
f 26 49 50
f 26 50 51
f 26 51 52
f 26 52 53
f 26 53 54
f 26 54 27
f 33 39 56
f 33 56 57
f 33 57 58
f 33 58 55
f 40 59 41
f 41 59 61
f 41 61 60
f 42 62 43
f 43 63 45
f 43 45 44
f 43 62 64
f 43 64 63
f 45 63 66
f 45 66 65
f 46 67 68
f 46 68 69
f 46 69 70
f 46 70 71
f 46 71 47
f 55 58 72
f 58 73 74
f 58 74 75
f 58 75 76
f 58 76 77
f 58 77 78
f 58 78 79
f 58 79 80
f 58 80 81
f 58 81 82
f 58 82 83
f 58 83 84
f 58 84 85
f 58 85 86
f 58 86 87
f 58 87 88
f 58 88 89
f 58 89 90
f 58 90 91
f 58 91 92
f 58 92 72
f 60 61 94
f 60 94 95
f 60 95 93
f 63 64 97
f 63 97 66
f 64 96 97
f 65 66 99
f 65 99 100
f 65 100 98
f 66 97 101
f 66 101 99
f 67 102 103
f 67 103 68
f 73 104 74
f 74 104 106
f 74 106 105
f 93 95 107
f 95 108 107
f 96 109 110
f 96 110 99
f 96 99 101
f 96 101 97
f 98 100 112
f 98 112 111
f 99 110 100
f 100 113 112
f 100 110 109
f 100 109 113
f 102 114 103
f 103 114 115
f 105 106 116
f 106 117 118
f 106 118 116
f 107 108 120
f 107 120 119
f 109 121 113
f 111 112 123
f 111 123 122
f 112 124 123
f 112 113 121
f 112 121 124
f 114 125 126
f 114 126 115
f 117 126 127
f 117 127 118
f 119 120 129
f 119 129 128
f 121 130 131
f 121 131 124
f 122 123 133
f 122 133 134
f 122 134 135
f 122 135 132
f 123 124 131
f 123 131 130
f 123 130 133
f 125 136 126
f 126 136 127
f 128 129 138
f 128 138 137
f 130 139 134
f 130 134 133
f 132 140 141
f 132 141 142
f 132 135 134
f 132 134 143
f 132 143 140
f 134 139 143
f 137 138 145
f 137 145 144
f 140 143 148
f 140 148 141
f 141 146 147
f 141 147 142
f 141 148 153
f 141 153 146
f 144 145 150
f 144 150 149
f 146 151 152
f 146 152 147
f 146 153 156
f 146 156 151
f 149 150 155
f 149 155 154
f 151 155 152
f 151 156 157
f 151 157 155
f 153 158 157
f 153 157 156
f 154 155 159
f 155 157 160
f 155 160 159
f 157 158 160
f 158 159 160