# https://github.com/mikedh/trimesh
v 0.07026222 0.01523481 0.01635282 1.69411764 2.77647060 0.21176472
v 0.07026222 0.01523481 0.00795381 1.69411764 2.77647060 0.21176472
v 0.05543397 0.01523481 0.01676340 1.69411764 2.77647060 0.21176472
v 0.07026222 0.01523109 0.01677318 1.69411764 2.77647060 0.21176472
v 0.07026222 -0.02286516 0.00795381 1.69411764 2.77647060 0.21176472
v 0.01596993 0.01523481 0.00795381 1.69411764 2.77647060 0.21176472
v 0.03695370 0.01520871 0.01706106 1.69411764 2.77647060 0.21176472
v 0.07026222 0.01520124 0.01713057 1.69411764 2.77647060 0.21176472
v 0.00000000 0.01523481 0.01676340 1.69411764 2.77647060 0.21176472
v 0.07026222 -0.02286516 0.01676340 1.69411764 2.77647060 0.21176472
v 0.01743489 -0.02286516 0.00795381 1.69411764 2.77647060 0.21176472
v 0.01559856 0.01520496 0.00795381 1.69411764 2.77647060 0.21176472
v 0.00000000 0.01464930 0.00873483 1.69411764 2.77647060 0.21176472
v 0.00000000 0.01477236 0.00887388 1.69411764 2.77647060 0.21176472
v 0.00000000 0.01497003 0.00918564 1.69411764 2.77647060 0.21176472
v 0.00000000 0.01511547 0.00952455 1.69411764 2.77647060 0.21176472
v 0.00000000 0.01516023 0.00970161 1.69411764 2.77647060 0.21176472
v 0.00000000 0.01520496 0.00988302 1.69411764 2.77647060 0.21176472
v 0.00000000 0.01523481 0.01025016 1.69411764 2.77647060 0.21176472
v 0.07026222 0.01519752 0.01716969 1.69411764 2.77647060 0.21176472
v 0.00000000 0.01519752 0.01716099 1.69411764 2.77647060 0.21176472
v 0.07026222 -0.02283159 0.01714686 1.69411764 2.77647060 0.21176472
v 0.00000000 -0.02286516 0.01676340 1.69411764 2.77647060 0.21176472
v 0.00000000 -0.02286516 0.01171338 1.69411764 2.77647060 0.21176472
v 0.00000000 -0.02283159 0.01132773 1.69411764 2.77647060 0.21176472
v 0.00000000 -0.02273463 0.01095297 1.69411764 2.77647060 0.21176472
v 0.01704285 -0.02283159 0.00795381 1.69411764 2.77647060 0.21176472
v 0.01524090 0.01511547 0.00795381 1.69411764 2.77647060 0.21176472
v 0.00000000 0.01303071 0.00796575 1.69411764 2.77647060 0.21176472
v 0.00000000 0.01312395 0.00797226 1.69411764 2.77647060 0.21176472
v 0.00000000 0.01321719 0.00797988 1.69411764 2.77647060 0.21176472
v 0.00000000 0.01330668 0.00799401 1.69411764 2.77647060 0.21176472
v 0.00000000 0.01339620 0.00800919 1.69411764 2.77647060 0.21176472
v 0.00000000 0.01357521 0.00805266 1.69411764 2.77647060 0.21176472
v 0.00000000 0.01366470 0.00808197 1.69411764 2.77647060 0.21176472
v 0.00000000 0.01375050 0.00811023 1.69411764 2.77647060 0.21176472
v 0.00000000 0.01383627 0.00814608 1.69411764 2.77647060 0.21176472
v 0.00000000 0.01392204 0.00818301 1.69411764 2.77647060 0.21176472
v 0.00000000 0.01408614 0.00826773 1.69411764 2.77647060 0.21176472
v 0.00000000 0.01416447 0.00831663 1.69411764 2.77647060 0.21176472
v 0.00000000 0.01424277 0.00836658 1.69411764 2.77647060 0.21176472
v 0.00000000 0.01438449 0.00848172 1.69411764 2.77647060 0.21176472
v 0.00000000 0.01452621 0.00859905 1.69411764 2.77647060 0.21176472
v 0.05543397 0.01509681 0.01754553 1.69411764 2.77647060 0.21176472
v 0.07026222 0.01510800 0.01749774 1.69411764 2.77647060 0.21176472
v 0.01848030 0.01518633 0.01720878 1.69411764 2.77647060 0.21176472
v 0.00000000 0.01509681 0.01754553 1.69411764 2.77647060 0.21176472
v 0.03762084 -0.02283906 0.01706106 1.69411764 2.77647060 0.21176472
v 0.07026222 -0.02281296 0.01722399 1.69411764 2.77647060 0.21176472
v 0.05643813 -0.02281668 0.01720878 1.69411764 2.77647060 0.21176472
v 0.01881729 -0.02281668 0.01720878 1.69411764 2.77647060 0.21176472
v 0.00000000 -0.02282787 0.01716099 1.69411764 2.77647060 0.21176472
v 0.00000000 -0.02257425 0.01059996 1.69411764 2.77647060 0.21176472
v 0.01667145 -0.02273463 0.00795381 1.69411764 2.77647060 0.21176472
v 0.00000000 -0.02235795 0.01027842 1.69411764 2.77647060 0.21176472
v 0.00000000 -0.02208945 0.00999924 1.69411764 2.77647060 0.21176472
v 0.00000000 -0.02201484 0.00993732 1.69411764 2.77647060 0.21176472
v 0.00000000 -0.02193654 0.00987648 1.69411764 2.77647060 0.21176472
v 0.00000000 -0.02185821 0.00982218 1.69411764 2.77647060 0.21176472
v 0.00000000 -0.02177616 0.00976788 1.69411764 2.77647060 0.21176472
v 0.00000000 -0.02169411 0.00972117 1.69411764 2.77647060 0.21176472
v 0.00000000 -0.02160834 0.00967335 1.69411764 2.77647060 0.21176472
v 0.01521339 0.01510428 0.00795381 1.69411764 2.77647060 0.21176472
v 0.01490391 0.01497003 0.00795381 1.69411764 2.77647060 0.21176472
v 0.01459440 0.01477236 0.00795381 1.69411764 2.77647060 0.21176472
v 0.01458066 0.01476117 0.00795381 1.69411764 2.77647060 0.21176472
v 0.01431930 0.01452996 0.00795381 1.69411764 2.77647060 0.21176472
v 0.01430553 0.01451502 0.00795381 1.69411764 2.77647060 0.21176472
v 0.01407858 0.01423905 0.00795381 1.69411764 2.77647060 0.21176472
v 0.01398228 0.01408614 0.00795381 1.69411764 2.77647060 0.21176472
v 0.01389975 0.01392579 0.00795381 1.69411764 2.77647060 0.21176472
v 0.01383099 0.01375050 0.00795381 1.69411764 2.77647060 0.21176472
v 0.01376910 0.01357893 0.00795381 1.69411764 2.77647060 0.21176472
v 0.01372782 0.01339620 0.00795381 1.69411764 2.77647060 0.21176472
v 0.01370031 0.01321719 0.00795381 1.69411764 2.77647060 0.21176472
v 0.01368654 0.01303071 0.00795381 1.69411764 2.77647060 0.21176472
v 0.00000000 0.01284798 0.00796575 1.69411764 2.77647060 0.21176472
v 0.05543397 0.01503342 0.01768131 1.69411764 2.77647060 0.21176472
v 0.07026222 0.01494765 0.01786164 1.69411764 2.77647060 0.21176472
v 0.07026222 0.01508190 0.01757160 1.69411764 2.77647060 0.21176472
v 0.07026222 0.01508937 0.01755420 1.69411764 2.77647060 0.21176472
v 0.07026222 0.01509681 0.01753575 1.69411764 2.77647060 0.21176472
v 0.00000000 0.01492527 0.01790616 1.69411764 2.77647060 0.21176472
v 0.01848030 0.01503342 0.01768131 1.69411764 2.77647060 0.21176472
v 0.07026222 -0.02272716 0.01754553 1.69411764 2.77647060 0.21176472
v 0.00000000 -0.02272716 0.01754553 1.69411764 2.77647060 0.21176472
v 0.01632069 -0.02257425 0.00795381 1.69411764 2.77647060 0.21176472
v 0.00000000 -0.02143305 0.00959406 1.69411764 2.77647060 0.21176472
v 0.00000000 -0.02125032 0.00952890 1.69411764 2.77647060 0.21176472
v 0.00000000 -0.02115336 0.00950391 1.69411764 2.77647060 0.21176472
v 0.01368654 0.01282185 0.00795381 1.69411764 2.77647060 0.21176472
v 0.01514463 -0.02067597 0.00795381 1.69411764 2.77647060 0.21176472
v 0.01516524 -0.02086992 0.00795381 1.69411764 2.77647060 0.21176472
v 0.01519275 -0.02104518 0.00795381 1.69411764 2.77647060 0.21176472
v 0.01524090 -0.02123166 0.00795381 1.69411764 2.77647060 0.21176472
v 0.01530969 -0.02143305 0.00795381 1.69411764 2.77647060 0.21176472
v 0.00000000 -0.02067597 0.00943005 1.69411764 2.77647060 0.21176472
v 0.03695370 0.01497003 0.01781601 1.69411764 2.77647060 0.21176472
v 0.07026222 0.01492155 0.01791486 1.69411764 2.77647060 0.21176472
v 0.01848030 0.01494765 0.01786164 1.69411764 2.77647060 0.21176472
v 0.00000000 0.01481337 0.01807020 1.69411764 2.77647060 0.21176472
v 0.01848030 0.01489917 0.01794744 1.69411764 2.77647060 0.21176472
v 0.07026222 -0.02256306 0.01789422 1.69411764 2.77647060 0.21176472
v 0.05643813 -0.02266377 0.01768131 1.69411764 2.77647060 0.21176472
v 0.00000000 -0.02255562 0.01790616 1.69411764 2.77647060 0.21176472
v 0.01881729 -0.02266377 0.01768131 1.69411764 2.77647060 0.21176472
v 0.01599744 -0.02235795 0.00795381 1.69411764 2.77647060 0.21176472
v 0.00000000 -0.02106012 0.00948000 1.69411764 2.77647060 0.21176472
v 0.00000000 -0.02086992 0.00944634 1.69411764 2.77647060 0.21176472
v 0.01539222 -0.02160834 0.00795381 1.69411764 2.77647060 0.21176472
v 0.01547475 -0.02176125 0.00795381 1.69411764 2.77647060 0.21176472
v 0.01559166 -0.02193654 0.00795381 1.69411764 2.77647060 0.21176472
v 0.01571547 -0.02208945 0.00795381 1.69411764 2.77647060 0.21176472
v 0.07026222 0.01491036 0.01793115 1.69411764 2.77647060 0.21176472
v 0.00000000 0.01469778 0.01823313 1.69411764 2.77647060 0.21176472
v 0.01848030 0.01472760 0.01819185 1.69411764 2.77647060 0.21176472
v 0.07026222 0.01472760 0.01819293 1.69411764 2.77647060 0.21176472
v 0.05543397 0.01489917 0.01794744 1.69411764 2.77647060 0.21176472
v 0.01881729 -0.02257800 0.01786164 1.69411764 2.77647060 0.21176472
v 0.03762084 -0.02260038 0.01781601 1.69411764 2.77647060 0.21176472
v 0.07026222 -0.02254815 0.01791702 1.69411764 2.77647060 0.21176472
v 0.05643813 -0.02252952 0.01794744 1.69411764 2.77647060 0.21176472
v 0.05643813 -0.02255562 0.01790616 1.69411764 2.77647060 0.21176472
v 0.00000000 -0.02244372 0.01807020 1.69411764 2.77647060 0.21176472
v 0.01881729 -0.02252952 0.01794744 1.69411764 2.77647060 0.21176472
v 0.00000000 0.01441806 0.01851447 1.69411764 2.77647060 0.21176472
v 0.01848030 0.01466421 0.01826790 1.69411764 2.77647060 0.21176472
v 0.05543397 0.01469778 0.01823313 1.69411764 2.77647060 0.21176472
v 0.07026222 0.01470522 0.01822443 1.69411764 2.77647060 0.21176472
v 0.07026222 -0.02253324 0.01793874 1.69411764 2.77647060 0.21176472
v 0.07026222 -0.02233557 0.01822227 1.69411764 2.77647060 0.21176472
v 0.05643813 -0.02235795 0.01819185 1.69411764 2.77647060 0.21176472
v 0.00000000 -0.02232813 0.01823313 1.69411764 2.77647060 0.21176472
v 0.01881729 -0.02235795 0.01819185 1.69411764 2.77647060 0.21176472
v 0.00000000 0.01408986 0.01874367 1.69411764 2.77647060 0.21176472
v 0.03695370 0.01433601 0.01857204 1.69411764 2.77647060 0.21176472
v 0.05543397 0.01441806 0.01851447 1.69411764 2.77647060 0.21176472
v 0.05543397 0.01466421 0.01826790 1.69411764 2.77647060 0.21176472
v 0.07026222 0.01469031 0.01823964 1.69411764 2.77647060 0.21176472
v 0.07026222 -0.02232066 0.01824183 1.69411764 2.77647060 0.21176472
v 0.05643813 -0.02232813 0.01823313 1.69411764 2.77647060 0.21176472
v 0.00000000 -0.02204841 0.01851447 1.69411764 2.77647060 0.21176472
v 0.07026222 -0.02230200 0.01826136 1.69411764 2.77647060 0.21176472
v 0.01881729 -0.02229456 0.01826790 1.69411764 2.77647060 0.21176472
v 0.00000000 0.01391085 0.01882731 1.69411764 2.77647060 0.21176472
v 0.01848030 0.01395561 0.01880667 1.69411764 2.77647060 0.21176472
v 0.05543397 0.01408986 0.01874367 1.69411764 2.77647060 0.21176472
v 0.07026222 0.01413090 0.01871544 1.69411764 2.77647060 0.21176472
v 0.07026222 0.01439196 0.01853184 1.69411764 2.77647060 0.21176472
v 0.07026222 0.01442178 0.01850796 1.69411764 2.77647060 0.21176472
v 0.07026222 0.01445163 0.01847970 1.69411764 2.77647060 0.21176472
v 0.00000000 -0.02172021 0.01874367 1.69411764 2.77647060 0.21176472
v 0.05643813 -0.02204841 0.01851447 1.69411764 2.77647060 0.21176472
v 0.07026222 -0.02177616 0.01870566 1.69411764 2.77647060 0.21176472
v 0.07026222 -0.02205588 0.01850577 1.69411764 2.77647060 0.21176472
v 0.00000000 0.01372812 0.01891203 1.69411764 2.77647060 0.21176472
v 0.07026222 0.01373931 0.01890771 1.69411764 2.77647060 0.21176472
v 0.07026222 0.01408242 0.01874694 1.69411764 2.77647060 0.21176472
v 0.00000000 -0.02154120 0.01882731 1.69411764 2.77647060 0.21176472
v 0.05643813 -0.02172021 0.01874367 1.69411764 2.77647060 0.21176472
v 0.07026222 -0.02170902 0.01874910 1.69411764 2.77647060 0.21176472
v 0.01881729 -0.02158596 0.01880667 1.69411764 2.77647060 0.21176472
v 0.07026222 -0.02203722 0.01852209 1.69411764 2.77647060 0.21176472
v 0.07026222 -0.02173140 0.01873608 1.69411764 2.77647060 0.21176472
v 0.00000000 0.01334397 0.01901523 1.69411764 2.77647060 0.21176472
v 0.07026222 0.01370202 0.01891965 1.69411764 2.77647060 0.21176472
v 0.05543397 0.01372812 0.01891203 1.69411764 2.77647060 0.21176472
v 0.07026222 0.01372065 0.01891422 1.69411764 2.77647060 0.21176472
v 0.00000000 -0.02135847 0.01891203 1.69411764 2.77647060 0.21176472
v 0.07026222 -0.02135847 0.01891203 1.69411764 2.77647060 0.21176472
v 0.00000000 0.01314633 0.01903263 1.69411764 2.77647060 0.21176472
v 0.01848030 0.01329549 0.01901958 1.69411764 2.77647060 0.21176472
v 0.05543397 0.01334397 0.01901523 1.69411764 2.77647060 0.21176472
v 0.07026222 0.01339248 0.01900221 1.69411764 2.77647060 0.21176472
v 0.00000000 -0.02097432 0.01901523 1.69411764 2.77647060 0.21176472
v 0.07026222 -0.02134728 0.01891530 1.69411764 2.77647060 0.21176472
v 0.00000000 0.01294866 0.01904892 1.69411764 2.77647060 0.21176472
v 0.01848030 0.01294866 0.01905000 1.69411764 2.77647060 0.21176472
v 0.05543397 0.01329549 0.01901958 1.69411764 2.77647060 0.21176472
v 0.07026222 0.01331415 0.01901742 1.69411764 2.77647060 0.21176472
v 0.07026222 0.01333278 0.01901523 1.69411764 2.77647060 0.21176472
v 0.07026222 0.01335516 0.01901199 1.69411764 2.77647060 0.21176472
v 0.00000000 -0.02077668 0.01903263 1.69411764 2.77647060 0.21176472
v 0.07026222 -0.02097432 0.01901523 1.69411764 2.77647060 0.21176472
v 0.01881729 -0.02092584 0.01901958 1.69411764 2.77647060 0.21176472
v 0.00000000 -0.02057901 0.01904892 1.69411764 2.77647060 0.21176472
v 0.01797822 0.00037299 0.01905000 1.69411764 2.77647060 0.21176472
v 0.05543397 0.01294866 0.01905000 1.69411764 2.77647060 0.21176472
v 0.07026222 0.01299714 0.01904565 1.69411764 2.77647060 0.21176472
v 0.01881729 -0.02057901 0.01905000 1.69411764 2.77647060 0.21176472
v 0.07026222 -0.02057901 0.01905000 1.69411764 2.77647060 0.21176472
v 0.05643813 -0.02092584 0.01901958 1.69411764 2.77647060 0.21176472
v 0.07026222 0.01212447 0.01905000 1.69411764 2.77647060 0.21176472
v 0.07026222 0.01295613 0.01904892 1.69411764 2.77647060 0.21176472
f 1 2 6
f 1 6 19
f 1 19 9
f 1 9 3
f 1 3 4
f 1 4 8
f 1 8 20
f 1 20 45
f 1 45 82
f 1 82 81
f 1 81 80
f 1 80 79
f 1 79 99
f 1 99 114
f 1 114 117
f 1 117 129
f 1 129 139
f 1 139 151
f 1 151 150
f 1 150 149
f 1 149 148
f 1 148 158
f 1 158 157
f 1 157 168
f 1 168 166
f 1 166 174
f 1 174 182
f 1 182 181
f 1 181 180
f 1 180 189
f 1 189 194
f 1 194 193
f 1 193 191
f 1 191 184
f 1 184 176
f 1 176 170
f 1 170 161
f 1 161 164
f 1 164 154
f 1 154 163
f 1 163 155
f 1 155 143
f 1 143 140
f 1 140 131
f 1 131 130
f 1 130 121
f 1 121 103
f 1 103 85
f 1 85 49
f 1 49 22
f 1 22 10
f 1 10 5
f 1 5 2
f 2 5 11
f 2 11 27
f 2 27 54
f 2 54 87
f 2 87 107
f 2 107 113
f 2 113 112
f 2 112 111
f 2 111 110
f 2 110 96
f 2 96 95
f 2 95 94
f 2 94 93
f 2 93 92
f 2 92 91
f 2 91 76
f 2 76 75
f 2 75 74
f 2 74 73
f 2 73 72
f 2 72 71
f 2 71 70
f 2 70 69
f 2 69 68
f 2 68 67
f 2 67 66
f 2 66 65
f 2 65 64
f 2 64 63
f 2 63 28
f 2 28 12
f 2 12 6
f 3 7 8
f 3 8 4
f 3 9 7
f 5 10 23
f 5 23 24
f 5 24 11
f 6 12 13
f 6 13 14
f 6 14 15
f 6 15 16
f 6 16 17
f 6 17 18
f 6 18 19
f 7 20 8
f 7 9 21
f 7 21 20
f 9 19 18
f 9 18 17
f 9 17 16
f 9 16 15
f 9 15 14
f 9 14 13
f 9 13 43
f 9 43 42
f 9 42 41
f 9 41 40
f 9 40 39
f 9 39 38
f 9 38 37
f 9 37 36
f 9 36 35
f 9 35 34
f 9 34 33
f 9 33 32
f 9 32 31
f 9 31 30
f 9 30 29
f 9 29 77
f 9 77 97
f 9 97 109
f 9 109 108
f 9 108 90
f 9 90 89
f 9 89 88
f 9 88 62
f 9 62 61
f 9 61 60
f 9 60 59
f 9 59 58
f 9 58 57
f 9 57 56
f 9 56 55
f 9 55 53
f 9 53 26
f 9 26 25
f 9 25 24
f 9 24 23
f 9 23 52
f 9 52 86
f 9 86 105
f 9 105 124
f 9 124 133
f 9 133 142
f 9 142 152
f 9 152 159
f 9 159 169
f 9 169 175
f 9 175 183
f 9 183 186
f 9 186 177
f 9 177 171
f 9 171 165
f 9 165 156
f 9 156 145
f 9 145 135
f 9 135 126
f 9 126 115
f 9 115 101
f 9 101 83
f 9 83 47
f 9 47 21
f 10 22 23
f 11 24 25
f 11 25 26
f 11 26 27
f 12 28 29
f 12 29 30
f 12 30 31
f 12 31 32
f 12 32 33
f 12 33 34
f 12 34 35
f 12 35 36
f 12 36 37
f 12 37 38
f 12 38 39
f 12 39 40
f 12 40 41
f 12 41 42
f 12 42 43
f 12 43 13
f 20 44 45
f 20 21 46
f 20 46 47
f 20 47 44
f 21 47 46
f 22 48 23
f 22 49 50
f 22 50 51
f 22 51 52
f 22 52 48
f 23 48 52
f 26 53 27
f 27 53 55
f 27 55 56
f 27 56 57
f 27 57 58
f 27 58 59
f 27 59 60
f 27 60 61
f 27 61 62
f 27 62 54
f 28 63 29
f 29 63 64
f 29 64 65
f 29 65 66
f 29 66 67
f 29 67 68
f 29 68 69
f 29 69 70
f 29 70 71
f 29 71 72
f 29 72 73
f 29 73 74
f 29 74 75
f 29 75 76
f 29 76 91
f 29 91 77
f 44 78 79
f 44 79 80
f 44 80 81
f 44 81 82
f 44 82 45
f 44 47 84
f 44 84 78
f 47 83 100
f 47 100 84
f 49 51 50
f 49 85 86
f 49 86 51
f 51 86 52
f 54 62 88
f 54 88 89
f 54 89 90
f 54 90 87
f 77 91 92
f 77 92 93
f 77 93 94
f 77 94 95
f 77 95 96
f 77 96 97
f 78 98 79
f 78 84 98
f 79 98 100
f 79 100 99
f 83 101 102
f 83 102 99
f 83 99 100
f 84 100 98
f 85 103 104
f 85 104 106
f 85 106 86
f 86 106 119
f 86 119 105
f 87 90 108
f 87 108 109
f 87 109 107
f 96 110 97
f 97 110 111
f 97 111 112
f 97 112 113
f 97 113 109
f 99 102 118
f 99 118 114
f 101 115 116
f 101 116 117
f 101 117 118
f 101 118 102
f 103 119 120
f 103 120 104
f 103 121 122
f 103 122 123
f 103 123 105
f 103 105 119
f 104 120 106
f 105 123 122
f 105 122 125
f 105 125 124
f 106 120 119
f 107 109 113
f 114 118 117
f 115 126 127
f 115 127 138
f 115 138 128
f 115 128 129
f 115 129 116
f 116 129 117
f 121 130 122
f 122 130 131
f 122 131 132
f 122 132 124
f 122 124 125
f 124 132 134
f 124 134 133
f 126 135 136
f 126 136 137
f 126 137 138
f 126 138 127
f 128 138 129
f 129 138 139
f 131 140 141
f 131 141 132
f 132 141 133
f 132 133 134
f 133 141 140
f 133 140 143
f 133 143 144
f 133 144 142
f 135 145 146
f 135 146 147
f 135 147 148
f 135 148 136
f 136 148 137
f 137 148 149
f 137 149 150
f 137 150 151
f 137 151 138
f 138 151 139
f 142 144 143
f 142 143 153
f 142 153 154
f 142 154 152
f 143 155 153
f 145 156 157
f 145 157 146
f 146 157 147
f 147 157 158
f 147 158 148
f 152 154 164
f 152 164 160
f 152 160 161
f 152 161 162
f 152 162 159
f 153 155 163
f 153 163 154
f 156 165 166
f 156 166 168
f 156 168 167
f 156 167 157
f 157 167 168
f 159 162 169
f 160 164 161
f 161 170 162
f 162 170 169
f 165 171 172
f 165 172 179
f 165 179 173
f 165 173 166
f 166 173 174
f 169 170 176
f 169 176 175
f 171 177 178
f 171 178 172
f 172 178 188
f 172 188 179
f 173 179 180
f 173 180 181
f 173 181 182
f 173 182 174
f 175 176 184
f 175 184 192
f 175 192 185
f 175 185 183
f 177 186 187
f 177 187 178
f 178 187 190
f 178 190 191
f 178 191 193
f 178 193 188
f 179 188 189
f 179 189 180
f 183 185 190
f 183 190 186
f 184 191 192
f 185 192 191
f 185 191 190
f 186 190 187
f 188 193 194
f 188 194 189