# https://github.com/mikedh/trimesh
v 0.07025670 0.01523481 0.00795126 2.32941177 2.60000001 2.92941177
v 0.07025670 -0.02286516 0.00795126 2.32941177 2.60000001 2.92941177
v 0.07025670 0.01523481 -0.00705093 2.32941177 2.60000001 2.92941177
v 0.01596750 0.01523481 0.00795126 2.32941177 2.60000001 2.92941177
v 0.07025670 -0.02286516 -0.00705093 2.32941177 2.60000001 2.92941177
v 0.01742967 -0.02286516 0.00795126 2.32941177 2.60000001 2.92941177
v 0.01596750 0.01523481 -0.00705093 2.32941177 2.60000001 2.92941177
v 0.01560195 0.01520496 0.00795126 2.32941177 2.60000001 2.92941177
v 0.01742967 -0.02286516 -0.00705093 2.32941177 2.60000001 2.92941177
v 0.01704753 -0.02283159 0.00795126 2.32941177 2.60000001 2.92941177
v 0.01560195 0.01520496 -0.00705093 2.32941177 2.60000001 2.92941177
v 0.01528626 0.01512666 -0.00705093 2.32941177 2.60000001 2.92941177
v 0.01524195 0.01511547 0.00795126 2.32941177 2.60000001 2.92941177
v 0.01704753 -0.02283159 -0.00705093 2.32941177 2.60000001 2.92941177
v 0.01667091 -0.02273463 0.00795126 2.32941177 2.60000001 2.92941177
v 0.01524195 0.01511547 -0.00705093 2.32941177 2.60000001 2.92941177
v 0.01521426 0.01510428 0.00795126 2.32941177 2.60000001 2.92941177
v 0.01667091 -0.02273463 -0.00705093 2.32941177 2.60000001 2.92941177
v 0.01631643 -0.02257425 0.00795126 2.32941177 2.60000001 2.92941177
v 0.01660443 -0.02270478 -0.00705093 2.32941177 2.60000001 2.92941177
v 0.01490409 0.01497003 -0.00705093 2.32941177 2.60000001 2.92941177
v 0.01490409 0.01497003 0.00795126 2.32941177 2.60000001 2.92941177
v 0.01599519 -0.02235795 0.00795126 2.32941177 2.60000001 2.92941177
v 0.01631643 -0.02257425 -0.00705093 2.32941177 2.60000001 2.92941177
v 0.01462161 0.01479102 -0.00705093 2.32941177 2.60000001 2.92941177
v 0.01459392 0.01477236 0.00795126 2.32941177 2.60000001 2.92941177
v 0.01599519 -0.02235795 -0.00705093 2.32941177 2.60000001 2.92941177
v 0.01571826 -0.02208945 0.00795126 2.32941177 2.60000001 2.92941177
v 0.01459392 0.01477236 -0.00705093 2.32941177 2.60000001 2.92941177
v 0.01457730 0.01476117 0.00795126 2.32941177 2.60000001 2.92941177
v 0.01571826 -0.02208945 -0.00705093 2.32941177 2.60000001 2.92941177
v 0.01560750 -0.02195145 0.00795126 2.32941177 2.60000001 2.92941177
v 0.01569609 -0.02206707 -0.00705093 2.32941177 2.60000001 2.92941177
v 0.01433916 0.01454859 -0.00705093 2.32941177 2.60000001 2.92941177
v 0.01431699 0.01452996 0.00795126 2.32941177 2.60000001 2.92941177
v 0.01558533 -0.02192160 0.00795126 2.32941177 2.60000001 2.92941177
v 0.01559640 -0.02193654 -0.00705093 2.32941177 2.60000001 2.92941177
v 0.01431699 0.01452621 -0.00705093 2.32941177 2.60000001 2.92941177
v 0.01410099 0.01426515 -0.00705093 2.32941177 2.60000001 2.92941177
v 0.01407885 0.01423905 0.00795126 2.32941177 2.60000001 2.92941177
v 0.01547457 -0.02176125 0.00795126 2.32941177 2.60000001 2.92941177
v 0.01548564 -0.02177616 -0.00705093 2.32941177 2.60000001 2.92941177
v 0.01408437 0.01424277 -0.00705093 2.32941177 2.60000001 2.92941177
v 0.01398468 0.01408614 -0.00705093 2.32941177 2.60000001 2.92941177
v 0.01398468 0.01408614 0.00795126 2.32941177 2.60000001 2.92941177
v 0.01539147 -0.02160834 0.00795126 2.32941177 2.60000001 2.92941177
v 0.01540257 -0.02163072 -0.00705093 2.32941177 2.60000001 2.92941177
v 0.01390161 0.01392204 -0.00705093 2.32941177 2.60000001 2.92941177
v 0.01390161 0.01392579 0.00795126 2.32941177 2.60000001 2.92941177
v 0.01539147 -0.02160834 -0.00705093 2.32941177 2.60000001 2.92941177
v 0.01530840 -0.02143305 0.00795126 2.32941177 2.60000001 2.92941177
v 0.01382406 0.01373931 -0.00705093 2.32941177 2.60000001 2.92941177
v 0.01382961 0.01375050 0.00795126 2.32941177 2.60000001 2.92941177
v 0.01530840 -0.02143305 -0.00705093 2.32941177 2.60000001 2.92941177
v 0.01524747 -0.02125032 0.00795126 2.32941177 2.60000001 2.92941177
v 0.01376868 0.01357521 -0.00705093 2.32941177 2.60000001 2.92941177
v 0.01376868 0.01357893 0.00795126 2.32941177 2.60000001 2.92941177
v 0.01524747 -0.02125032 -0.00705093 2.32941177 2.60000001 2.92941177
v 0.01524195 -0.02123166 0.00795126 2.32941177 2.60000001 2.92941177
v 0.01372437 0.01338873 -0.00705093 2.32941177 2.60000001 2.92941177
v 0.01372437 0.01339620 0.00795126 2.32941177 2.60000001 2.92941177
v 0.01520316 -0.02108622 -0.00705093 2.32941177 2.60000001 2.92941177
v 0.01519209 -0.02104518 0.00795126 2.32941177 2.60000001 2.92941177
v 0.01369668 0.01321719 -0.00705093 2.32941177 2.60000001 2.92941177
v 0.01369668 0.01321719 0.00795126 2.32941177 2.60000001 2.92941177
v 0.01519764 -0.02106012 -0.00705093 2.32941177 2.60000001 2.92941177
v 0.01516440 -0.02086992 0.00795126 2.32941177 2.60000001 2.92941177
v 0.01516440 -0.02086992 -0.00705093 2.32941177 2.60000001 2.92941177
v 0.01368561 0.01304190 -0.00705093 2.32941177 2.60000001 2.92941177
v 0.01368006 0.01303071 0.00795126 2.32941177 2.60000001 2.92941177
v 0.01514778 -0.02067597 0.00795126 2.32941177 2.60000001 2.92941177
v 0.01514778 -0.02070207 -0.00705093 2.32941177 2.60000001 2.92941177
v 0.01368561 0.01284798 -0.00705093 2.32941177 2.60000001 2.92941177
v 0.01368561 0.01282185 0.00795126 2.32941177 2.60000001 2.92941177
v 0.01377423 0.01072965 -0.00705093 2.32941177 2.60000001 2.92941177
f 1 2 5
f 1 5 3
f 1 3 7
f 1 7 4
f 1 4 8
f 1 8 13
f 1 13 17
f 1 17 22
f 1 22 26
f 1 26 30
f 1 30 35
f 1 35 40
f 1 40 45
f 1 45 49
f 1 49 53
f 1 53 57
f 1 57 61
f 1 61 65
f 1 65 70
f 1 70 74
f 1 74 71
f 1 71 67
f 1 67 63
f 1 63 59
f 1 59 55
f 1 55 51
f 1 51 46
f 1 46 41
f 1 41 36
f 1 36 32
f 1 32 28
f 1 28 23
f 1 23 19
f 1 19 15
f 1 15 10
f 1 10 6
f 1 6 2
f 2 6 9
f 2 9 5
f 3 5 9
f 3 9 14
f 3 14 18
f 3 18 20
f 3 20 24
f 3 24 27
f 3 27 31
f 3 31 33
f 3 33 37
f 3 37 42
f 3 42 47
f 3 47 50
f 3 50 54
f 3 54 58
f 3 58 62
f 3 62 66
f 3 66 68
f 3 68 72
f 3 72 75
f 3 75 73
f 3 73 69
f 3 69 64
f 3 64 60
f 3 60 56
f 3 56 52
f 3 52 48
f 3 48 44
f 3 44 43
f 3 43 39
f 3 39 38
f 3 38 34
f 3 34 29
f 3 29 25
f 3 25 21
f 3 21 16
f 3 16 12
f 3 12 11
f 3 11 7
f 4 7 11
f 4 11 8
f 6 10 14
f 6 14 9
f 8 11 12
f 8 12 13
f 10 15 18
f 10 18 14
f 12 16 13
f 13 16 17
f 15 19 20
f 15 20 18
f 16 21 17
f 17 21 22
f 19 23 27
f 19 27 24
f 19 24 20
f 21 25 22
f 22 25 26
f 23 28 31
f 23 31 27
f 25 29 30
f 25 30 26
f 28 32 33
f 28 33 31
f 29 34 30
f 30 34 35
f 32 36 37
f 32 37 33
f 34 38 35
f 35 38 39
f 35 39 40
f 36 41 42
f 36 42 37
f 39 43 40
f 40 43 44
f 40 44 45
f 41 46 47
f 41 47 42
f 44 48 49
f 44 49 45
f 46 50 47
f 46 51 54
f 46 54 50
f 48 52 49
f 49 52 53
f 51 55 58
f 51 58 54
f 52 56 57
f 52 57 53
f 55 59 58
f 56 60 61
f 56 61 57
f 58 59 62
f 59 63 62
f 60 64 61
f 61 64 65
f 62 63 66
f 63 67 68
f 63 68 66
f 64 69 70
f 64 70 65
f 67 71 72
f 67 72 68
f 69 73 70
f 70 73 74
f 71 74 75
f 71 75 72
f 73 75 74