# https://github.com/mikedh/trimesh
v -0.05979200 -0.00145644 0.02557680 1.12941176 1.85098040 0.14117648
v -0.06270776 -0.00145644 0.02527640 1.12941176 1.85098040 0.14117648
v -0.05979200 -0.00437208 0.02528608 1.12941176 1.85098040 0.14117648
v -0.05917596 -0.00437208 0.02504382 1.12941176 1.85098040 0.14117648
v -0.05917596 -0.00145644 0.02528608 1.12941176 1.85098040 0.14117648
v -0.05979200 0.00145426 0.02549928 1.12941176 1.85098040 0.14117648
v -0.06270776 0.00145426 0.02541206 1.12941176 1.85098040 0.14117648
v -0.06488016 -0.00145644 0.02402146 1.12941176 1.85098040 0.14117648
v -0.06456450 -0.00437208 0.02371622 1.12941176 1.85098040 0.14117648
v -0.06270776 -0.00437208 0.02478218 1.12941176 1.85098040 0.14117648
v -0.06505124 0.00145426 0.02413776 1.12941176 1.85098040 0.14117648
v -0.05979200 -0.00728770 0.02463198 1.12941176 1.85098040 0.14117648
v -0.05917596 -0.00728770 0.02445754 1.12941176 1.85098040 0.14117648
v -0.05917596 0.00145426 0.02518434 1.12941176 1.85098040 0.14117648
v -0.05979200 0.00437482 0.02505352 1.12941176 1.85098040 0.14117648
v -0.06270776 0.00437482 0.02518434 1.12941176 1.85098040 0.14117648
v -0.06507312 0.00437482 0.02407960 1.12941176 1.85098040 0.14117648
v -0.06594978 -0.00145644 0.02303302 1.12941176 1.85098040 0.14117648
v -0.06594978 -0.00418460 0.02248066 1.12941176 1.85098040 0.14117648
v -0.06594978 0.00145426 0.02333344 1.12941176 1.85098040 0.14117648
v -0.06594978 -0.00437208 0.02244190 1.12941176 1.85098040 0.14117648
v -0.06429594 -0.00614810 0.02345456 1.12941176 1.85098040 0.14117648
v -0.06275682 -0.00718904 0.02395848 1.12941176 1.85098040 0.14117648
v -0.06181784 -0.00941894 0.02363384 1.12941176 1.85098040 0.14117648
v -0.06594978 0.00437482 0.02334798 1.12941176 1.85098040 0.14117648
v -0.05979200 -0.00981360 0.02376952 1.12941176 1.85098040 0.14117648
v -0.05917596 -0.00971494 0.02372106 1.12941176 1.85098040 0.14117648
v -0.05917596 0.00437482 0.02473372 1.12941176 1.85098040 0.14117648
v -0.05917596 0.00514444 0.02455444 1.12941176 1.85098040 0.14117648
v -0.05917596 0.00723126 0.02397302 1.12941176 1.85098040 0.14117648
v -0.05959372 0.00745820 0.02409900 1.12941176 1.85098040 0.14117648
v -0.06043458 0.00952528 0.02367744 1.12941176 1.85098040 0.14117648
v -0.06270776 0.00729046 0.02457382 1.12941176 1.85098040 0.14117648
v -0.06450216 0.00930328 0.02354662 1.12941176 1.85098040 0.14117648
v -0.06485362 0.00729046 0.02382766 1.12941176 1.85098040 0.14117648
v -0.06594978 0.00729046 0.02298458 1.12941176 1.85098040 0.14117648
v -0.06594978 -0.00707558 0.02166182 1.12941176 1.85098040 0.14117648
v -0.06594978 -0.00727784 0.02157460 1.12941176 1.85098040 0.14117648
v -0.06376212 -0.00809186 0.02301850 1.12941176 1.85098040 0.14117648
v -0.06275682 -0.01031682 0.02248066 1.12941176 1.85098040 0.14117648
v -0.06149954 -0.01481114 0.02059584 1.12941176 1.85098040 0.14117648
v -0.05979200 -0.01312392 0.02206882 1.12941176 1.85098040 0.14117648
v -0.05979200 -0.01126896 0.02314448 1.12941176 1.85098040 0.14117648
v -0.05917596 -0.01071642 0.02329468 1.12941176 1.85098040 0.14117648
v -0.05917596 0.00787260 0.02376952 1.12941176 1.85098040 0.14117648
v -0.06270776 0.00974730 0.02375014 1.12941176 1.85098040 0.14117648
v -0.05917596 0.00968810 0.02295550 1.12941176 1.85098040 0.14117648
v -0.05959372 0.01038370 0.02279076 1.12941176 1.85098040 0.14117648
v -0.06083774 0.01490762 0.02066852 1.12941176 1.85098040 0.14117648
v -0.06270776 0.01312174 0.02206882 1.12941176 1.85098040 0.14117648
v -0.06270776 0.01120758 0.02312994 1.12941176 1.85098040 0.14117648
v -0.06594978 0.00769500 0.02287314 1.12941176 1.85098040 0.14117648
v -0.06462882 0.01495696 0.02068306 1.12941176 1.85098040 0.14117648
v -0.06561092 0.01293426 0.02110460 1.12941176 1.85098040 0.14117648
v -0.06553466 0.01025050 0.02238860 1.12941176 1.85098040 0.14117648
v -0.06594978 0.01024064 0.02207366 1.12941176 1.85098040 0.14117648
v -0.06594978 0.00984102 0.02222386 1.12941176 1.85098040 0.14117648
v -0.06594978 -0.01265524 0.01847846 1.12941176 1.85098040 0.14117648
v -0.06256586 -0.01284764 0.02102708 1.12941176 1.85098040 0.14117648
v -0.05979200 -0.01654276 0.01955412 1.12941176 1.85098040 0.14117648
v -0.05979200 -0.01508246 0.02079450 1.12941176 1.85098040 0.14117648
v -0.06594978 -0.01297590 0.01822650 1.12941176 1.85098040 0.14117648
v -0.06150618 -0.01773170 0.01775166 1.12941176 1.85098040 0.14117648
v -0.05979200 -0.01808690 0.01809568 1.12941176 1.85098040 0.14117648
v -0.05917596 -0.01506766 0.02077512 1.12941176 1.85098040 0.14117648
v -0.05917596 -0.01314364 0.02191376 1.12941176 1.85098040 0.14117648
v -0.05917596 0.01266292 0.02103676 1.12941176 1.85098040 0.14117648
v -0.05983644 0.01305266 0.02125480 1.12941176 1.85098040 0.14117648
v -0.05917596 0.01370388 0.02029060 1.12941176 1.85098040 0.14117648
v -0.05917596 0.01456228 0.01958318 1.12941176 1.85098040 0.14117648
v -0.05984174 0.01592884 0.01888062 1.12941176 1.85098040 0.14117648
v -0.06079066 0.01786766 0.01788734 1.12941176 1.85098040 0.14117648
v -0.06270776 0.01816366 0.01816836 1.12941176 1.85098040 0.14117648
v -0.06270776 0.01656524 0.01962680 1.12941176 1.85098040 0.14117648
v -0.06270776 0.01510988 0.02080904 1.12941176 1.85098040 0.14117648
v -0.06503268 0.01802060 0.01800362 1.12941176 1.85098040 0.14117648
v -0.06594978 0.01771966 0.01772260 1.12941176 1.85098040 0.14117648
v -0.06594978 0.01631856 0.01880794 1.12941176 1.85098040 0.14117648
v -0.06594978 0.01416268 0.02022760 1.12941176 1.85098040 0.14117648
v -0.06594978 0.01323520 0.02072182 1.12941176 1.85098040 0.14117648
v -0.06594978 0.01269746 0.02096894 1.12941176 1.85098040 0.14117648
v -0.05917596 -0.01610862 0.01988844 1.12941176 1.85098040 0.14117648
v -0.05917596 -0.01807210 0.01807146 1.12941176 1.85098040 0.14117648
v -0.06594978 -0.01536860 0.01587654 1.12941176 1.85098040 0.14117648
v -0.06594978 -0.01706076 0.01368162 1.12941176 1.85098040 0.14117648
v -0.06120246 -0.02039080 0.01453924 1.12941176 1.85098040 0.14117648
v -0.06005460 -0.01970506 0.01603158 1.12941176 1.85098040 0.14117648
v -0.06594978 -0.01561528 0.01560036 1.12941176 1.85098040 0.14117648
v -0.05925818 -0.02075586 0.01505284 1.12941176 1.85098040 0.14117648
v -0.05917596 -0.02071146 0.01510130 1.12941176 1.85098040 0.14117648
v -0.05917596 0.01559830 0.01854630 1.12941176 1.85098040 0.14117648
v -0.05997170 0.01873594 0.01576026 1.12941176 1.85098040 0.14117648
v -0.06109770 0.02052676 0.01474758 1.12941176 1.85098040 0.14117648
v -0.06270776 0.01962394 0.01650642 1.12941176 1.85098040 0.14117648
v -0.05917596 0.01660964 0.01747064 1.12941176 1.85098040 0.14117648
v -0.05917596 0.01746804 0.01647736 1.12941176 1.85098040 0.14117648
v -0.06502604 0.02075862 0.01503346 1.12941176 1.85098040 0.14117648
v -0.06594978 0.02056128 0.01478150 1.12941176 1.85098040 0.14117648
v -0.06594978 0.01912074 0.01631746 1.12941176 1.85098040 0.14117648
v -0.06594978 -0.01795370 0.01238308 1.12941176 1.85098040 0.14117648
v -0.06594978 -0.01807704 0.01216990 1.12941176 1.85098040 0.14117648
v -0.06594978 -0.01905878 0.01020756 1.12941176 1.85098040 0.14117648
v -0.06594978 -0.01918704 0.00994106 1.12941176 1.85098040 0.14117648
v -0.06594978 -0.02006026 0.00784306 1.12941176 1.85098040 0.14117648
v -0.06168324 -0.02087920 0.01259628 1.12941176 1.85098040 0.14117648
v -0.05992530 -0.02288216 0.01040620 1.12941176 1.85098040 0.14117648
v -0.06005460 -0.02144162 0.01339090 1.12941176 1.85098040 0.14117648
v -0.05917596 -0.02354324 0.00969396 1.12941176 1.85098040 0.14117648
v -0.05917596 -0.02075586 0.01504800 1.12941176 1.85098040 0.14117648
v -0.05917596 0.01857314 0.01501408 1.12941176 1.85098040 0.14117648
v -0.06065738 0.02096090 0.01312442 1.12941176 1.85098040 0.14117648
v -0.06123364 0.02334372 0.00878788 1.12941176 1.85098040 0.14117648
v -0.06270776 0.02302798 0.01089074 1.12941176 1.85098040 0.14117648
v -0.06270776 0.02191304 0.01312442 1.12941176 1.85098040 0.14117648
v -0.06270776 0.02075862 0.01504800 1.12941176 1.85098040 0.14117648
v -0.06562484 0.02303292 0.01111362 1.12941176 1.85098040 0.14117648
v -0.06584832 0.02154796 0.01336668 1.12941176 1.85098040 0.14117648
v -0.06594978 0.02143944 0.01347328 1.12941176 1.85098040 0.14117648
v -0.06594978 -0.02062266 0.00638462 1.12941176 1.85098040 0.14117648
v -0.06098628 -0.02316336 0.00795934 1.12941176 1.85098040 0.14117648
v -0.05917596 -0.02370110 0.00919488 1.12941176 1.85098040 0.14117648
v -0.05917596 0.01955980 0.01311956 1.12941176 1.85098040 0.14117648
v -0.05917596 0.01957460 0.01309050 1.12941176 1.85098040 0.14117648
v -0.05917596 0.02225344 0.00437382 1.12941176 1.85098040 0.14117648
v -0.06107382 0.02349172 0.00729068 1.12941176 1.85098040 0.14117648
v -0.06270776 0.02474480 0.00437382 1.12941176 1.85098040 0.14117648
v -0.06270776 0.02423174 0.00729068 1.12941176 1.85098040 0.14117648
v -0.06270776 0.02361012 0.00943230 1.12941176 1.85098040 0.14117648
v -0.05917596 0.02065996 0.01012518 1.12941176 1.85098040 0.14117648
v -0.05917596 0.02164170 0.00733430 1.12941176 1.85098040 0.14117648
v -0.05917596 0.02169596 0.00711626 1.12941176 1.85098040 0.14117648
v -0.06562484 0.02371866 0.00965518 1.12941176 1.85098040 0.14117648
v -0.06594978 0.02367426 0.00954860 1.12941176 1.85098040 0.14117648
v -0.06594978 0.02271224 0.01134620 1.12941176 1.85098040 0.14117648
v -0.06594978 -0.02068186 0.00616174 1.12941176 1.85098040 0.14117648
v -0.06594978 -0.02122948 0.00404920 1.12941176 1.85098040 0.14117648
v -0.05992530 -0.02390338 0.00710656 1.12941176 1.85098040 0.14117648
v -0.05917596 -0.02408590 0.00715018 1.12941176 1.85098040 0.14117648
v -0.05917596 0.02228304 0.00409280 1.12941176 1.85098040 0.14117648
v -0.06087820 0.02368412 0.00437382 1.12941176 1.85098040 0.14117648
v -0.06270776 0.02488786 0.00145696 1.12941176 1.85098040 0.14117648
v -0.06562484 0.02567722 0.00145696 1.12941176 1.85098040 0.14117648
v -0.06562484 0.02530228 0.00437382 1.12941176 1.85098040 0.14117648
v -0.06562484 0.02456226 0.00729068 1.12941176 1.85098040 0.14117648
v -0.06594978 0.02435506 0.00763470 1.12941176 1.85098040 0.14117648
v -0.06594978 -0.02164388 0.00117594 1.12941176 1.85098040 0.14117648
v -0.05979200 -0.02439178 0.00437382 1.12941176 1.85098040 0.14117648
v -0.06128734 -0.02336564 0.00601154 1.12941176 1.85098040 0.14117648
v -0.05917596 -0.02458912 0.00437382 1.12941176 1.85098040 0.14117648
v -0.05917596 0.02238664 0.00145696 1.12941176 1.85098040 0.14117648
v -0.06087622 0.02369400 0.00145696 1.12941176 1.85098040 0.14117648
v -0.06270776 0.02464614 -0.00145506 1.12941176 1.85098040 0.14117648
v -0.06562484 0.02566242 -0.00145506 1.12941176 1.85098040 0.14117648
v -0.06594978 0.02557854 -0.00145506 1.12941176 1.85098040 0.14117648
v -0.06594978 0.02555882 0.00145696 1.12941176 1.85098040 0.14117648
v -0.06594978 0.02516908 0.00434476 1.12941176 1.85098040 0.14117648
v -0.06594978 0.02507534 0.00481474 1.12941176 1.85098040 0.14117648
v -0.06594978 0.02444880 0.00729068 1.12941176 1.85098040 0.14117648
v -0.06594978 -0.02165374 -0.00143568 1.12941176 1.85098040 0.14117648
v -0.05979200 -0.02447564 0.00145696 1.12941176 1.85098040 0.14117648
v -0.05917596 -0.02472232 0.00145696 1.12941176 1.85098040 0.14117648
v -0.05917596 0.02238664 0.00117594 1.12941176 1.85098040 0.14117648
v -0.05917596 0.02230770 -0.00145506 1.12941176 1.85098040 0.14117648
v -0.06562484 0.02529734 -0.00437192 1.12941176 1.85098040 0.14117648
v -0.05917596 0.02198210 -0.00419748 1.12941176 1.85098040 0.14117648
v -0.06258774 0.02406892 -0.00412966 1.12941176 1.85098040 0.14117648
v -0.06594978 0.02523320 -0.00437192 1.12941176 1.85098040 0.14117648
v -0.06594978 -0.02162908 -0.00178938 1.12941176 1.85098040 0.14117648
v -0.05917596 -0.02452498 -0.00125640 1.12941176 1.85098040 0.14117648
v -0.06348626 0.02382226 -0.00728878 1.12941176 1.85098040 0.14117648
v -0.06562484 0.02456226 -0.00728878 1.12941176 1.85098040 0.14117648
v -0.06594978 0.02452774 -0.00728878 1.12941176 1.85098040 0.14117648
v -0.05917596 0.02183904 -0.00475470 1.12941176 1.85098040 0.14117648
v -0.06594978 -0.02127880 -0.00437192 1.12941176 1.85098040 0.14117648
v -0.05917596 -0.02417964 -0.00424110 1.12941176 1.85098040 0.14117648
v -0.06394582 0.02348678 -0.00908154 1.12941176 1.85098040 0.14117648
v -0.06562484 0.02371372 -0.00964844 1.12941176 1.85098040 0.14117648
v -0.06594978 0.02370386 -0.00962420 1.12941176 1.85098040 0.14117648
v -0.05917596 0.02084742 -0.00735176 1.12941176 1.85098040 0.14117648
v -0.06594978 -0.02122948 -0.00466748 1.12941176 1.85098040 0.14117648
v -0.05917596 -0.02415990 -0.00437192 1.12941176 1.85098040 0.14117648
v -0.06562484 0.02302798 -0.01110686 1.12941176 1.85098040 0.14117648
v -0.05917596 0.01940688 -0.01012812 1.12941176 1.85098040 0.14117648
v -0.05917596 0.01915526 -0.01056904 1.12941176 1.85098040 0.14117648
v -0.06428134 0.02034422 -0.01450342 1.12941176 1.85098040 0.14117648
v -0.06594978 0.02302798 -0.01108264 1.12941176 1.85098040 0.14117648
v -0.06594978 -0.02076080 -0.00646508 1.12941176 1.85098040 0.14117648
v -0.05917596 -0.02402178 -0.00495336 1.12941176 1.85098040 0.14117648
v -0.06540204 0.02154304 -0.01336962 1.12941176 1.85098040 0.14117648
v -0.06594978 0.02102010 -0.01447434 1.12941176 1.85098040 0.14117648
v -0.05917596 0.01800086 -0.01223582 1.12941176 1.85098040 0.14117648
v -0.05917596 0.01776898 -0.01254592 1.12941176 1.85098040 0.14117648
v -0.05917596 0.01642710 -0.01407702 1.12941176 1.85098040 0.14117648
v -0.05917596 0.01527762 -0.01528834 1.12941176 1.85098040 0.14117648
v -0.05917596 0.01498162 -0.01559844 1.12941176 1.85098040 0.14117648
v -0.06426478 0.01738912 -0.01742028 1.12941176 1.85098040 0.14117648
v -0.06594978 0.01793672 -0.01792904 1.12941176 1.85098040 0.14117648
v -0.06594978 0.01833140 -0.01752688 1.12941176 1.85098040 0.14117648
v -0.06594978 0.02069942 -0.01495888 1.12941176 1.85098040 0.14117648
v -0.05917596 -0.02348404 -0.00664920 1.12941176 1.85098040 0.14117648
v -0.06594978 -0.01908838 -0.01058842 1.12941176 1.85098040 0.14117648
v -0.05917596 0.01335854 -0.01703266 1.12941176 1.85098040 0.14117648
v -0.05917596 0.01220906 -0.01792904 1.12941176 1.85098040 0.14117648
v -0.06594978 0.01564762 -0.01974602 1.12941176 1.85098040 0.14117648
v -0.05917596 -0.02274896 -0.00823362 1.12941176 1.85098040 0.14117648
v -0.06594978 -0.01811156 -0.01254108 1.12941176 1.85098040 0.14117648
v -0.05917596 0.01175024 -0.01824398 1.12941176 1.85098040 0.14117648
v -0.06594978 0.01456722 -0.02045828 1.12941176 1.85098040 0.14117648
v -0.05917596 -0.02170308 -0.00998276 1.12941176 1.85098040 0.14117648
v -0.06594978 -0.01693248 -0.01421270 1.12941176 1.85098040 0.14117648
v -0.05917596 -0.01998626 -0.01267674 1.12941176 1.85098040 0.14117648
v -0.05917596 -0.02060294 -0.01179974 1.12941176 1.85098040 0.14117648
v -0.05917596 0.01023076 -0.01912098 1.12941176 1.85098040 0.14117648
v -0.06594978 0.01360028 -0.02097188 1.12941176 1.85098040 0.14117648
v -0.06594978 -0.01541794 -0.01612174 1.12941176 1.85098040 0.14117648
v -0.05917596 -0.01930052 -0.01347136 1.12941176 1.85098040 0.14117648
v -0.05917596 0.00769006 -0.02034198 1.12941176 1.85098040 0.14117648
v -0.06594978 0.01003342 -0.02266288 1.12941176 1.85098040 0.14117648
v -0.06594978 -0.01282298 -0.01861706 1.12941176 1.85098040 0.14117648
v -0.05917596 -0.01790436 -0.01495402 1.12941176 1.85098040 0.14117648
v -0.05917596 0.00599298 -0.02097672 1.12941176 1.85098040 0.14117648
v -0.06594978 0.00843502 -0.02318616 1.12941176 1.85098040 0.14117648
v -0.06594978 -0.01279338 -0.01864128 1.12941176 1.85098040 0.14117648
v -0.05917596 -0.01635528 -0.01641246 1.12941176 1.85098040 0.14117648
v -0.05917596 -0.01724822 -0.01557906 1.12941176 1.85098040 0.14117648
v -0.05917596 0.00439950 -0.02138856 1.12941176 1.85098040 0.14117648
v -0.06594978 0.00729046 -0.02349142 1.12941176 1.85098040 0.14117648
v -0.06594978 -0.01020828 -0.02039528 1.12941176 1.85098040 0.14117648
v -0.05917596 -0.01481606 -0.01763346 1.12941176 1.85098040 0.14117648
v -0.05917596 0.00145426 -0.02180042 1.12941176 1.85098040 0.14117648
v -0.06594978 0.00437482 -0.02388874 1.12941176 1.85098040 0.14117648
v -0.06594978 -0.00730250 -0.02197968 1.12941176 1.85098040 0.14117648
v -0.05917596 -0.01304992 -0.01877212 1.12941176 1.85098040 0.14117648
v -0.05917596 -0.01357286 -0.01846202 1.12941176 1.85098040 0.14117648
v -0.05917596 0.00067972 -0.02184402 1.12941176 1.85098040 0.14117648
v -0.05917596 -0.00145644 -0.02191186 1.12941176 1.85098040 0.14117648
v -0.06594978 0.00145426 -0.02392266 1.12941176 1.85098040 0.14117648
v -0.06594978 -0.00699170 -0.02212990 1.12941176 1.85098040 0.14117648
v -0.05917596 -0.01108148 -0.01979446 1.12941176 1.85098040 0.14117648
v -0.05917596 -0.00223592 -0.02190702 1.12941176 1.85098040 0.14117648
v -0.05917596 -0.00437208 -0.02173742 1.12941176 1.85098040 0.14117648
v -0.06594978 -0.00145644 -0.02363194 1.12941176 1.85098040 0.14117648
v -0.06594978 -0.00437208 -0.02303596 1.12941176 1.85098040 0.14117648
v -0.05917596 -0.00780078 -0.02107362 1.12941176 1.85098040 0.14117648
v -0.05917596 -0.01065722 -0.01996406 1.12941176 1.85098040 0.14117648
v -0.05917596 -0.00508742 -0.02166474 1.12941176 1.85098040 0.14117648
v -0.06594978 -0.00253192 -0.02341390 1.12941176 1.85098040 0.14117648
v -0.05917596 -0.00722850 -0.02121898 1.12941176 1.85098040 0.14117648
f 1 2 3
f 1 3 4
f 1 4 5
f 1 5 6
f 1 6 7
f 1 7 2
f 2 8 9
f 2 9 10
f 2 10 3
f 2 7 11
f 2 11 8
f 3 10 12
f 3 12 13
f 3 13 4
f 4 13 27
f 4 27 44
f 4 44 66
f 4 66 65
f 4 65 82
f 4 82 83
f 4 83 90
f 4 90 109
f 4 109 108
f 4 108 121
f 4 121 138
f 4 138 149
f 4 149 161
f 4 161 169
f 4 169 175
f 4 175 181
f 4 181 188
f 4 188 200
f 4 200 205
f 4 205 209
f 4 209 212
f 4 212 211
f 4 211 216
f 4 216 220
f 4 220 225
f 4 225 224
f 4 224 229
f 4 229 234
f 4 234 233
f 4 233 239
f 4 239 245
f 4 245 244
f 4 244 248
f 4 248 246
f 4 246 241
f 4 241 240
f 4 240 236
f 4 236 235
f 4 235 230
f 4 230 226
f 4 226 221
f 4 221 217
f 4 217 213
f 4 213 207
f 4 207 203
f 4 203 202
f 4 202 195
f 4 195 194
f 4 194 193
f 4 193 192
f 4 192 191
f 4 191 184
f 4 184 183
f 4 183 179
f 4 179 173
f 4 173 165
f 4 165 163
f 4 163 162
f 4 162 150
f 4 150 139
f 4 139 124
f 4 124 131
f 4 131 130
f 4 130 129
f 4 129 123
f 4 123 122
f 4 122 110
f 4 110 96
f 4 96 95
f 4 95 91
f 4 91 70
f 4 70 69
f 4 69 67
f 4 67 47
f 4 47 45
f 4 45 30
f 4 30 29
f 4 29 28
f 4 28 14
f 4 14 5
f 5 14 6
f 6 14 15
f 6 15 16
f 6 16 7
f 7 16 17
f 7 17 11
f 8 18 19
f 8 19 9
f 8 11 20
f 8 20 18
f 9 19 21
f 9 21 22
f 9 22 10
f 10 22 23
f 10 23 24
f 10 24 12
f 11 17 25
f 11 25 20
f 12 24 26
f 12 26 27
f 12 27 13
f 14 28 15
f 15 28 29
f 15 29 30
f 15 30 31
f 15 31 32
f 15 32 33
f 15 33 16
f 16 33 34
f 16 34 35
f 16 35 17
f 17 35 36
f 17 36 25
f 18 20 25
f 18 25 36
f 18 36 52
f 18 52 57
f 18 57 56
f 18 56 81
f 18 81 80
f 18 80 79
f 18 79 78
f 18 78 77
f 18 77 99
f 18 99 98
f 18 98 118
f 18 118 134
f 18 134 133
f 18 133 145
f 18 145 158
f 18 158 157
f 18 157 156
f 18 156 155
f 18 155 154
f 18 154 167
f 18 167 172
f 18 172 178
f 18 178 186
f 18 186 190
f 18 190 199
f 18 199 198
f 18 198 197
f 18 197 204
f 18 204 208
f 18 208 214
f 18 214 218
f 18 218 222
f 18 222 227
f 18 227 231
f 18 231 237
f 18 237 242
f 18 242 247
f 18 247 243
f 18 243 238
f 18 238 232
f 18 232 228
f 18 228 223
f 18 223 219
f 18 219 215
f 18 215 210
f 18 210 206
f 18 206 201
f 18 201 187
f 18 187 180
f 18 180 174
f 18 174 168
f 18 168 159
f 18 159 146
f 18 146 136
f 18 136 135
f 18 135 119
f 18 119 104
f 18 104 103
f 18 103 102
f 18 102 101
f 18 101 100
f 18 100 85
f 18 85 88
f 18 88 84
f 18 84 62
f 18 62 58
f 18 58 38
f 18 38 37
f 18 37 21
f 18 21 19
f 21 37 22
f 22 37 38
f 22 38 39
f 22 39 23
f 23 39 24
f 24 39 40
f 24 40 41
f 24 41 42
f 24 42 43
f 24 43 26
f 26 43 44
f 26 44 27
f 30 45 31
f 31 45 32
f 32 46 33
f 32 45 47
f 32 47 48
f 32 48 49
f 32 49 50
f 32 50 51
f 32 51 46
f 33 46 34
f 34 52 36
f 34 36 35
f 34 46 51
f 34 51 53
f 34 53 54
f 34 54 55
f 34 55 56
f 34 56 57
f 34 57 52
f 38 58 39
f 39 58 40
f 40 58 59
f 40 59 41
f 41 60 61
f 41 61 42
f 41 59 58
f 41 58 62
f 41 62 63
f 41 63 64
f 41 64 60
f 42 61 65
f 42 65 66
f 42 66 43
f 43 66 44
f 47 67 68
f 47 68 48
f 48 68 49
f 49 68 69
f 49 69 70
f 49 70 71
f 49 71 72
f 49 72 73
f 49 73 74
f 49 74 75
f 49 75 50
f 50 75 53
f 50 53 51
f 53 75 74
f 53 74 76
f 53 76 77
f 53 77 78
f 53 78 79
f 53 79 80
f 53 80 54
f 54 80 81
f 54 81 55
f 55 81 56
f 60 82 65
f 60 65 61
f 60 64 83
f 60 83 82
f 62 84 63
f 63 85 86
f 63 86 87
f 63 87 64
f 63 84 88
f 63 88 85
f 64 87 89
f 64 89 90
f 64 90 83
f 67 69 68
f 70 91 71
f 71 91 72
f 72 92 93
f 72 93 94
f 72 94 73
f 72 91 95
f 72 95 96
f 72 96 92
f 73 76 74
f 73 94 97
f 73 97 76
f 76 97 98
f 76 98 99
f 76 99 77
f 85 100 86
f 86 100 101
f 86 101 102
f 86 102 103
f 86 103 104
f 86 104 105
f 86 105 106
f 86 106 107
f 86 107 89
f 86 89 87
f 89 107 108
f 89 108 109
f 89 109 90
f 92 96 110
f 92 110 93
f 93 111 112
f 93 112 113
f 93 113 114
f 93 114 115
f 93 115 94
f 93 110 111
f 94 115 97
f 97 115 114
f 97 114 116
f 97 116 117
f 97 117 118
f 97 118 98
f 104 119 120
f 104 120 106
f 104 106 105
f 106 120 108
f 106 108 107
f 108 120 121
f 110 122 111
f 111 122 123
f 111 123 112
f 112 124 125
f 112 125 126
f 112 126 127
f 112 127 128
f 112 128 113
f 112 123 129
f 112 129 130
f 112 130 131
f 112 131 124
f 113 116 114
f 113 128 132
f 113 132 116
f 116 132 133
f 116 133 134
f 116 134 118
f 116 118 117
f 119 135 120
f 120 136 137
f 120 137 121
f 120 135 136
f 121 137 138
f 124 139 140
f 124 140 125
f 125 140 126
f 126 141 142
f 126 142 143
f 126 143 127
f 126 140 141
f 127 143 144
f 127 144 128
f 128 144 132
f 132 144 133
f 133 144 145
f 136 146 147
f 136 147 148
f 136 148 137
f 137 147 149
f 137 149 138
f 137 148 147
f 139 150 140
f 140 151 141
f 140 150 151
f 141 151 152
f 141 152 153
f 141 153 142
f 142 154 155
f 142 155 143
f 142 153 154
f 143 155 156
f 143 156 157
f 143 157 158
f 143 158 144
f 144 158 145
f 146 159 160
f 146 160 147
f 147 160 161
f 147 161 149
f 150 162 151
f 151 162 163
f 151 163 152
f 152 164 153
f 152 163 165
f 152 165 166
f 152 166 164
f 153 164 167
f 153 167 154
f 159 168 160
f 160 169 161
f 160 168 169
f 164 166 170
f 164 170 171
f 164 171 172
f 164 172 167
f 165 170 166
f 165 173 170
f 168 174 175
f 168 175 169
f 170 173 176
f 170 176 171
f 171 176 177
f 171 177 178
f 171 178 172
f 173 179 176
f 174 180 181
f 174 181 175
f 176 182 177
f 176 179 183
f 176 183 184
f 176 184 185
f 176 185 182
f 177 182 186
f 177 186 178
f 180 187 188
f 180 188 181
f 182 185 189
f 182 189 190
f 182 190 186
f 184 191 185
f 185 191 192
f 185 192 193
f 185 193 194
f 185 194 195
f 185 195 196
f 185 196 197
f 185 197 198
f 185 198 199
f 185 199 189
f 187 200 188
f 187 201 200
f 189 199 190
f 195 202 196
f 196 202 203
f 196 203 204
f 196 204 197
f 200 201 205
f 201 206 205
f 203 207 204
f 204 207 208
f 205 206 209
f 206 210 211
f 206 211 212
f 206 212 209
f 207 213 208
f 208 213 214
f 210 215 211
f 211 215 216
f 213 217 214
f 214 217 218
f 215 219 220
f 215 220 216
f 217 221 218
f 218 221 222
f 219 223 224
f 219 224 225
f 219 225 220
f 221 226 227
f 221 227 222
f 223 228 229
f 223 229 224
f 226 230 227
f 227 230 231
f 228 232 233
f 228 233 234
f 228 234 229
f 230 235 231
f 231 235 236
f 231 236 237
f 232 238 239
f 232 239 233
f 236 240 237
f 237 240 241
f 237 241 242
f 238 243 244
f 238 244 245
f 238 245 239
f 241 246 242
f 242 246 247
f 243 247 246
f 243 246 248
f 243 248 244