# https://github.com/mikedh/trimesh
v -0.04056412 -0.00145748 0.02639626 0.76078432 1.57647058 1.05098040
v -0.04056412 -0.00101070 0.02637206 0.76078432 1.57647058 1.05098040
v -0.04229184 0.00145654 0.02577184 0.76078432 1.57647058 1.05098040
v -0.04520790 0.00145654 0.02481828 0.76078432 1.57647058 1.05098040
v -0.04229184 -0.00145748 0.02579604 0.76078432 1.57647058 1.05098040
v -0.04229184 -0.00437148 0.02534588 0.76078432 1.57647058 1.05098040
v -0.04056412 -0.00729044 0.02539428 0.76078432 1.57647058 1.05098040
v -0.04056412 0.00145654 0.02617360 0.76078432 1.57647058 1.05098040
v -0.04520790 0.00437054 0.02466338 0.76078432 1.57647058 1.05098040
v -0.04595024 0.00145654 0.02432456 0.76078432 1.57647058 1.05098040
v -0.04549472 -0.00172554 0.02433424 0.76078432 1.57647058 1.05098040
v -0.04595024 0.00437054 0.02423742 0.76078432 1.57647058 1.05098040
v -0.04496116 -0.00437148 0.02421806 0.76078432 1.57647058 1.05098040
v -0.04438544 -0.00729044 0.02380178 0.76078432 1.57647058 1.05098040
v -0.04056412 -0.01017466 0.02472146 0.76078432 1.57647058 1.05098040
v -0.04056412 0.00667890 0.02539428 0.76078432 1.57647058 1.05098040
v -0.04549734 0.00757246 0.02400508 0.76078432 1.57647058 1.05098040
v -0.04595024 0.00802918 0.02374370 0.76078432 1.57647058 1.05098040
v -0.04595024 -0.00145748 0.02405348 0.76078432 1.57647058 1.05098040
v -0.04595024 -0.00172554 0.02401476 0.76078432 1.57647058 1.05098040
v -0.04595024 -0.00217232 0.02393732 0.76078432 1.57647058 1.05098040
v -0.04595024 -0.00437148 0.02347264 0.76078432 1.57647058 1.05098040
v -0.04595024 -0.00728548 0.02245130 0.76078432 1.57647058 1.05098040
v -0.04394572 -0.00904778 0.02347264 0.76078432 1.57647058 1.05098040
v -0.04056412 -0.01291990 0.02372434 0.76078432 1.57647058 1.05098040
v -0.04056412 0.00728950 0.02525876 0.76078432 1.57647058 1.05098040
v -0.04471758 0.00961276 0.02368560 0.76078432 1.57647058 1.05098040
v -0.04595024 0.00905678 0.02345810 0.76078432 1.57647058 1.05098040
v -0.04595024 -0.01000588 0.02110564 0.76078432 1.57647058 1.05098040
v -0.04429158 -0.01252276 0.02100400 0.76078432 1.57647058 1.05098040
v -0.04358774 -0.01446874 0.02030698 0.76078432 1.57647058 1.05098040
v -0.04056412 -0.01606224 0.02122182 0.76078432 1.57647058 1.05098040
v -0.04056412 0.00949860 0.02467306 0.76078432 1.57647058 1.05098040
v -0.04056412 0.01009430 0.02446492 0.76078432 1.57647058 1.05098040
v -0.04520790 0.01312248 0.02188496 0.76078432 1.57647058 1.05098040
v -0.04549734 0.01043186 0.02307572 0.76078432 1.57647058 1.05098040
v -0.04595024 0.00977162 0.02317252 0.76078432 1.57647058 1.05098040
v -0.04595024 -0.01302910 0.01885968 0.76078432 1.57647058 1.05098040
v -0.04595024 -0.01337660 0.01854988 0.76078432 1.57647058 1.05098040
v -0.04595024 -0.01596296 0.01595540 0.76078432 1.57647058 1.05098040
v -0.04360990 -0.01738274 0.01733494 0.76078432 1.57647058 1.05098040
v -0.04056412 -0.01898122 0.01838532 0.76078432 1.57647058 1.05098040
v -0.04056412 -0.01867840 0.01868058 0.76078432 1.57647058 1.05098040
v -0.04056412 0.01498904 0.02170586 0.76078432 1.57647058 1.05098040
v -0.04595024 0.01312248 0.02153160 0.76078432 1.57647058 1.05098040
v -0.04520790 0.01502874 0.02074746 0.76078432 1.57647058 1.05098040
v -0.04595024 0.01488478 0.02063612 0.76078432 1.57647058 1.05098040
v -0.04595024 -0.01633032 0.01553912 0.76078432 1.57647058 1.05098040
v -0.04595024 -0.01853940 0.01262518 0.76078432 1.57647058 1.05098040
v -0.04056412 -0.02158248 0.01516156 0.76078432 1.57647058 1.05098040
v -0.04056412 0.01553510 0.02134282 0.76078432 1.57647058 1.05098040
v -0.04520790 0.01648824 0.01960994 0.76078432 1.57647058 1.05098040
v -0.04595024 0.01565920 0.02003106 0.76078432 1.57647058 1.05098040
v -0.04595024 -0.01888690 0.01202980 0.76078432 1.57647058 1.05098040
v -0.04056412 -0.02416388 0.00982254 0.76078432 1.57647058 1.05098040
v -0.04056412 0.01846400 0.01846760 0.76078432 1.57647058 1.05098040
v -0.04520790 0.01815622 0.01815298 0.76078432 1.57647058 1.05098040
v -0.04595024 0.01804204 0.01803196 0.76078432 1.57647058 1.05098040
v -0.04595024 -0.02099670 0.00700056 0.76078432 1.57647058 1.05098040
v -0.04056412 -0.02437238 0.00922234 0.76078432 1.57647058 1.05098040
v -0.04056412 0.02161628 0.01311890 0.76078432 1.57647058 1.05098040
v -0.04520790 0.02207300 0.01312374 0.76078432 1.57647058 1.05098040
v -0.04520790 0.02081208 0.01511316 0.76078432 1.57647058 1.05098040
v -0.04520790 0.01961570 0.01657014 0.76078432 1.57647058 1.05098040
v -0.04595024 0.01892568 0.01707354 0.76078432 1.57647058 1.05098040
v -0.04595024 -0.02112080 0.00652620 0.76078432 1.57647058 1.05098040
v -0.04056412 -0.02480426 0.00729100 0.76078432 1.57647058 1.05098040
v -0.04056412 0.02249992 0.01021946 0.76078432 1.57647058 1.05098040
v -0.04338212 0.02356226 0.00934334 0.76078432 1.57647058 1.05098040
v -0.04520790 0.02376084 0.00977414 0.76078432 1.57647058 1.05098040
v -0.04520790 0.02313038 0.01123112 0.76078432 1.57647058 1.05098040
v -0.04595024 0.02150210 0.01383528 0.76078432 1.57647058 1.05098040
v -0.04595024 0.02075250 0.01502604 0.76078432 1.57647058 1.05098040
v -0.04595024 -0.02155270 0.00437220 0.76078432 1.57647058 1.05098040
v -0.04056412 -0.02493830 0.00639066 0.76078432 1.57647058 1.05098040
v -0.04595024 -0.02166688 0.00363162 0.76078432 1.57647058 1.05098040
v -0.04056412 0.02278288 0.00760078 0.76078432 1.57647058 1.05098040
v -0.04520790 0.02520046 0.00437220 0.76078432 1.57647058 1.05098040
v -0.04520790 0.02458986 0.00729100 0.76078432 1.57647058 1.05098040
v -0.04595024 0.02373104 0.00968702 0.76078432 1.57647058 1.05098040
v -0.04595024 0.02304102 0.01102782 0.76078432 1.57647058 1.05098040
v -0.04056412 -0.02516170 0.00437220 0.76078432 1.57647058 1.05098040
v -0.04595024 -0.02179594 0.00146308 0.76078432 1.57647058 1.05098040
v -0.04056412 0.02280770 0.00729100 0.76078432 1.57647058 1.05098040
v -0.04277636 0.02410336 0.00437220 0.76078432 1.57647058 1.05098040
v -0.04520790 0.02544370 0.00146308 0.76078432 1.57647058 1.05098040
v -0.04595024 0.02545364 0.00146308 0.76078432 1.57647058 1.05098040
v -0.04595024 0.02515578 0.00437220 0.76078432 1.57647058 1.05098040
v -0.04595024 0.02446576 0.00732004 0.76078432 1.57647058 1.05098040
v -0.04595024 0.02428208 0.00803158 0.76078432 1.57647058 1.05098040
v -0.04056412 -0.02526098 0.00146308 0.76078432 1.57647058 1.05098040
v -0.04595024 -0.02182572 0.00071766 0.76078432 1.57647058 1.05098040
v -0.04056412 0.02293180 0.00437220 0.76078432 1.57647058 1.05098040
v -0.04280218 0.02417286 0.00146308 0.76078432 1.57647058 1.05098040
v -0.04520790 0.02532456 -0.00145570 0.76078432 1.57647058 1.05098040
v -0.04595024 0.02538414 -0.00145570 0.76078432 1.57647058 1.05098040
v -0.04056412 -0.02508722 0.00089192 0.76078432 1.57647058 1.05098040
v -0.04595024 -0.02160234 -0.00219630 0.76078432 1.57647058 1.05098040
v -0.04595024 -0.02120024 -0.00437450 0.76078432 1.57647058 1.05098040
v -0.04595024 -0.02105626 -0.00509088 0.76078432 1.57647058 1.05098040
v -0.04595024 -0.02068396 -0.00656722 0.76078432 1.57647058 1.05098040
v -0.04056412 0.02289210 0.00146308 0.76078432 1.57647058 1.05098040
v -0.04056412 0.02271834 -0.00145570 0.76078432 1.57647058 1.05098040
v -0.04520790 0.02483310 -0.00437450 0.76078432 1.57647058 1.05098040
v -0.04595024 0.02494728 -0.00437450 0.76078432 1.57647058 1.05098040
v -0.04056412 0.02245028 -0.00437450 0.76078432 1.57647058 1.05098040
v -0.04056412 -0.02441210 -0.00106848 0.76078432 1.57647058 1.05098040
v -0.04595024 -0.01998896 -0.00845016 0.76078432 1.57647058 1.05098040
v -0.04513252 0.02398422 -0.00724004 0.76078432 1.57647058 1.05098040
v -0.04595024 0.02368140 -0.00919560 0.76078432 1.57647058 1.05098040
v -0.04056412 0.02177514 -0.00730298 0.76078432 1.57647058 1.05098040
v -0.04056412 -0.02422842 -0.00147022 0.76078432 1.57647058 1.05098040
v -0.04595024 -0.01915000 -0.01024112 0.76078432 1.57647058 1.05098040
v -0.04595024 0.02361190 -0.00937952 0.76078432 1.57647058 1.05098040
v -0.04056412 0.01879660 -0.01299050 0.76078432 1.57647058 1.05098040
v -0.04056412 -0.02135412 -0.00745302 0.76078432 1.57647058 1.05098040
v -0.04595024 -0.01880250 -0.01090428 0.76078432 1.57647058 1.05098040
v -0.04056412 -0.01856422 -0.01278720 0.76078432 1.57647058 1.05098040
v -0.04595024 0.02351758 -0.00954410 0.76078432 1.57647058 1.05098040
v -0.04595024 0.01975470 -0.01525100 0.76078432 1.57647058 1.05098040
v -0.04595024 0.02039012 -0.01457334 0.76078432 1.57647058 1.05098040
v -0.04595024 0.02080712 -0.01401668 0.76078432 1.57647058 1.05098040
v -0.04056412 0.01602160 -0.01589962 0.76078432 1.57647058 1.05098040
v -0.04595024 -0.01797348 -0.01235156 0.76078432 1.57647058 1.05098040
v -0.04595024 -0.01654874 -0.01420546 0.76078432 1.57647058 1.05098040
v -0.04056412 -0.01824652 -0.01318412 0.76078432 1.57647058 1.05098040
v -0.04595024 0.01819096 -0.01688224 0.76078432 1.57647058 1.05098040
v -0.04056412 0.01328630 -0.01833920 0.76078432 1.57647058 1.05098040
v -0.04595024 -0.01545662 -0.01544946 0.76078432 1.57647058 1.05098040
v -0.04056412 -0.01582894 -0.01582702 0.76078432 1.57647058 1.05098040
v -0.04595024 0.01741654 -0.01756474 0.76078432 1.57647058 1.05098040
v -0.04056412 0.01288916 -0.01861512 0.76078432 1.57647058 1.05098040
v -0.04595024 0.01571878 -0.01882326 0.76078432 1.57647058 1.05098040
v -0.04595024 0.01575352 -0.01879906 0.76078432 1.57647058 1.05098040
v -0.04595024 -0.01351560 -0.01727430 0.76078432 1.57647058 1.05098040
v -0.04056412 -0.01278586 -0.01856188 0.76078432 1.57647058 1.05098040
v -0.04595024 0.01412526 -0.01988332 0.76078432 1.57647058 1.05098040
v -0.04056412 0.00747814 -0.02136450 0.76078432 1.57647058 1.05098040
v -0.04595024 -0.01242346 -0.01817948 0.76078432 1.57647058 1.05098040
v -0.04056412 -0.01225964 -0.01886682 0.76078432 1.57647058 1.05098040
v -0.04595024 0.01316220 -0.02036736 0.76078432 1.57647058 1.05098040
v -0.04056412 0.00714058 -0.02151454 0.76078432 1.57647058 1.05098040
v -0.04595024 -0.00791594 -0.02069166 0.76078432 1.57647058 1.05098040
v -0.04056412 -0.00711670 -0.02150486 0.76078432 1.57647058 1.05098040
v -0.04595024 -0.00691814 -0.02121444 0.76078432 1.57647058 1.05098040
v -0.04595024 0.01259130 -0.02061422 0.76078432 1.57647058 1.05098040
v -0.04056412 0.00437054 -0.02212444 0.76078432 1.57647058 1.05098040
v -0.04595024 0.00667394 -0.02264722 0.76078432 1.57647058 1.05098040
v -0.04595024 0.00756750 -0.02241972 0.76078432 1.57647058 1.05098040
v -0.04595024 0.01022336 -0.02152422 0.76078432 1.57647058 1.05098040
v -0.04595024 0.01116658 -0.02119508 0.76078432 1.57647058 1.05098040
v -0.04595024 -0.00578132 -0.02167428 0.76078432 1.57647058 1.05098040
v -0.04595024 -0.00437148 -0.02221642 0.76078432 1.57647058 1.05098040
v -0.04056412 -0.00662028 -0.02163556 0.76078432 1.57647058 1.05098040
v -0.04595024 0.00437054 -0.02298604 0.76078432 1.57647058 1.05098040
v -0.04595024 0.00540806 -0.02291828 0.76078432 1.57647058 1.05098040
v -0.04056412 0.00145654 -0.02229386 0.76078432 1.57647058 1.05098040
v -0.04595024 -0.00335382 -0.02244392 0.76078432 1.57647058 1.05098040
v -0.04056412 -0.00437148 -0.02211960 0.76078432 1.57647058 1.05098040
v -0.04595024 0.00320394 -0.02305382 0.76078432 1.57647058 1.05098040
v -0.04056412 -0.00076744 -0.02229386 0.76078432 1.57647058 1.05098040
v -0.04595024 -0.00129862 -0.02286504 0.76078432 1.57647058 1.05098040
v -0.04056412 -0.00367152 -0.02219706 0.76078432 1.57647058 1.05098040
v -0.04056412 -0.00145748 -0.02228902 0.76078432 1.57647058 1.05098040
v -0.04595024 0.00145654 -0.02303444 0.76078432 1.57647058 1.05098040
v -0.04595024 -0.00005756 -0.02294248 0.76078432 1.57647058 1.05098040
f 1 2 3
f 1 3 4
f 1 4 5
f 1 5 6
f 1 6 7
f 1 7 15
f 1 15 25
f 1 25 32
f 1 32 43
f 1 43 42
f 1 42 50
f 1 50 55
f 1 55 60
f 1 60 67
f 1 67 75
f 1 75 82
f 1 82 91
f 1 91 97
f 1 97 107
f 1 107 112
f 1 112 116
f 1 116 118
f 1 118 126
f 1 126 130
f 1 130 136
f 1 136 140
f 1 140 144
f 1 144 154
f 1 154 159
f 1 159 163
f 1 163 164
f 1 164 161
f 1 161 157
f 1 157 147
f 1 147 142
f 1 142 138
f 1 138 132
f 1 132 128
f 1 128 123
f 1 123 115
f 1 115 111
f 1 111 106
f 1 106 103
f 1 103 102
f 1 102 93
f 1 93 84
f 1 84 77
f 1 77 68
f 1 68 61
f 1 61 56
f 1 56 51
f 1 51 44
f 1 44 34
f 1 34 33
f 1 33 26
f 1 26 16
f 1 16 8
f 1 8 2
f 2 8 3
f 3 8 9
f 3 9 4
f 4 10 11
f 4 11 5
f 4 9 12
f 4 12 10
f 5 11 13
f 5 13 6
f 6 13 14
f 6 14 7
f 7 14 15
f 8 16 9
f 9 16 17
f 9 17 18
f 9 18 12
f 10 12 18
f 10 18 28
f 10 28 37
f 10 37 45
f 10 45 47
f 10 47 53
f 10 53 58
f 10 58 65
f 10 65 73
f 10 73 72
f 10 72 81
f 10 81 80
f 10 80 90
f 10 90 89
f 10 89 88
f 10 88 87
f 10 87 96
f 10 96 105
f 10 105 110
f 10 110 114
f 10 114 119
f 10 119 122
f 10 122 121
f 10 121 120
f 10 120 127
f 10 127 131
f 10 131 134
f 10 134 133
f 10 133 137
f 10 137 141
f 10 141 146
f 10 146 151
f 10 151 150
f 10 150 149
f 10 149 148
f 10 148 156
f 10 156 155
f 10 155 160
f 10 160 165
f 10 165 166
f 10 166 162
f 10 162 158
f 10 158 153
f 10 153 152
f 10 152 145
f 10 145 143
f 10 143 139
f 10 139 135
f 10 135 129
f 10 129 125
f 10 125 124
f 10 124 117
f 10 117 113
f 10 113 108
f 10 108 101
f 10 101 100
f 10 100 99
f 10 99 98
f 10 98 92
f 10 92 83
f 10 83 76
f 10 76 74
f 10 74 66
f 10 66 59
f 10 59 54
f 10 54 49
f 10 49 48
f 10 48 40
f 10 40 39
f 10 39 38
f 10 38 29
f 10 29 23
f 10 23 22
f 10 22 21
f 10 21 20
f 10 20 19
f 10 19 11
f 11 19 20
f 11 20 21
f 11 21 13
f 13 22 14
f 13 21 22
f 14 22 23
f 14 23 24
f 14 24 15
f 15 24 25
f 16 26 17
f 17 26 27
f 17 27 18
f 18 27 28
f 23 29 24
f 24 29 30
f 24 30 25
f 25 31 32
f 25 30 31
f 26 33 27
f 27 33 34
f 27 34 35
f 27 35 36
f 27 36 28
f 28 36 37
f 29 38 30
f 30 38 31
f 31 38 39
f 31 39 40
f 31 40 41
f 31 41 42
f 31 42 43
f 31 43 32
f 34 44 35
f 35 45 36
f 35 44 46
f 35 46 47
f 35 47 45
f 36 45 37
f 40 48 41
f 41 48 49
f 41 49 50
f 41 50 42
f 44 51 46
f 46 51 52
f 46 52 47
f 47 52 53
f 49 54 50
f 50 54 55
f 51 56 57
f 51 57 52
f 52 57 58
f 52 58 53
f 54 59 55
f 55 59 60
f 56 61 62
f 56 62 63
f 56 63 64
f 56 64 57
f 57 64 58
f 58 64 65
f 59 66 60
f 60 66 67
f 61 68 69
f 61 69 70
f 61 70 71
f 61 71 62
f 62 72 73
f 62 73 63
f 62 71 72
f 63 73 64
f 64 73 65
f 66 74 67
f 67 74 76
f 67 76 75
f 68 77 78
f 68 78 79
f 68 79 69
f 69 79 70
f 70 79 80
f 70 80 71
f 71 80 81
f 71 81 72
f 75 76 82
f 76 83 82
f 77 84 85
f 77 85 78
f 78 85 86
f 78 86 87
f 78 87 88
f 78 88 79
f 79 88 89
f 79 89 90
f 79 90 80
f 82 83 92
f 82 92 91
f 84 93 85
f 85 94 86
f 85 93 94
f 86 95 96
f 86 96 87
f 86 94 95
f 91 92 98
f 91 98 99
f 91 99 100
f 91 100 101
f 91 101 97
f 93 102 94
f 94 102 103
f 94 103 95
f 95 104 105
f 95 105 96
f 95 103 106
f 95 106 104
f 97 101 107
f 101 108 107
f 104 109 110
f 104 110 105
f 104 106 111
f 104 111 109
f 107 108 112
f 108 113 112
f 109 111 110
f 110 111 114
f 111 115 114
f 112 113 116
f 113 117 118
f 113 118 116
f 114 115 119
f 115 120 121
f 115 121 122
f 115 122 119
f 115 123 120
f 117 124 118
f 118 124 125
f 118 125 126
f 120 123 127
f 123 128 127
f 125 129 126
f 126 129 130
f 127 128 131
f 128 132 133
f 128 133 134
f 128 134 131
f 129 135 130
f 130 135 136
f 132 137 133
f 132 138 137
f 135 139 136
f 136 139 140
f 137 138 141
f 138 142 141
f 139 143 140
f 140 143 145
f 140 145 144
f 141 142 146
f 142 147 148
f 142 148 149
f 142 149 150
f 142 150 151
f 142 151 146
f 144 145 152
f 144 152 153
f 144 153 154
f 147 155 156
f 147 156 148
f 147 157 155
f 153 158 154
f 154 158 159
f 155 157 160
f 157 161 160
f 158 162 159
f 159 162 163
f 160 161 164
f 160 164 165
f 162 166 163
f 163 166 165
f 163 165 164