# https://github.com/mikedh/trimesh
v -0.04056412 -0.02467530 -0.00029542 1.55294118 1.73333334 1.95294118
v -0.04056412 -0.02440924 -0.00107078 1.55294118 1.73333334 1.95294118
v -0.03910200 -0.02770712 -0.02770590 1.55294118 1.73333334 1.95294118
v -0.03850694 -0.03017588 -0.02770590 1.55294118 1.73333334 1.95294118
v -0.03851118 -0.03017588 -0.00146000 1.55294118 1.73333334 1.95294118
v -0.03851118 -0.03017588 -0.00029542 1.55294118 1.73333334 1.95294118
v -0.04056412 0.02278814 -0.00029542 1.55294118 1.73333334 1.95294118
v -0.04056412 -0.02422980 -0.00147532 1.55294118 1.73333334 1.95294118
v -0.03850694 -0.02770712 -0.03017910 1.55294118 1.73333334 1.95294118
v -0.03831142 -0.02984176 -0.02984198 1.55294118 1.73333334 1.95294118
v -0.04056412 -0.02135266 -0.00745756 1.55294118 1.73333334 1.95294118
v -0.04056412 -0.01856216 -0.01279318 1.55294118 1.73333334 1.95294118
v -0.04056412 -0.01824660 -0.01318852 1.55294118 1.73333334 1.95294118
v -0.04056412 -0.01582734 -0.01583334 1.55294118 1.73333334 1.95294118
v -0.04056412 -0.01278932 -0.01856396 1.55294118 1.73333334 1.95294118
v -0.04056412 -0.01226340 -0.01886736 1.55294118 1.73333334 1.95294118
v -0.04056412 -0.00711550 -0.02150912 1.55294118 1.73333334 1.95294118
v -0.04056412 -0.00662050 -0.02163784 1.55294118 1.73333334 1.95294118
v -0.04056412 -0.00437448 -0.02211898 1.55294118 1.73333334 1.95294118
v -0.04056412 -0.00366912 -0.02219560 1.55294118 1.73333334 1.95294118
v -0.04056412 -0.00145404 -0.02229062 1.55294118 1.73333334 1.95294118
v -0.03645826 -0.03139480 -0.02770590 1.55294118 1.73333334 1.95294118
v -0.03769086 -0.03066468 -0.00029542 1.55294118 1.73333334 1.95294118
v -0.03850694 0.03017588 -0.00029542 1.55294118 1.73333334 1.95294118
v -0.03850694 0.03017588 -0.02770590 1.55294118 1.73333334 1.95294118
v -0.03910200 0.02770712 -0.02770590 1.55294118 1.73333334 1.95294118
v -0.04056412 0.02276958 -0.00060494 1.55294118 1.73333334 1.95294118
v -0.03645826 -0.02770712 -0.03139884 1.55294118 1.73333334 1.95294118
v -0.04056412 -0.00076724 -0.02229368 1.55294118 1.73333334 1.95294118
v -0.03850694 0.02770712 -0.03017910 1.55294118 1.73333334 1.95294118
v -0.03645826 -0.03028106 -0.03028022 1.55294118 1.73333334 1.95294118
v -0.03529366 -0.03148142 -0.00029542 1.55294118 1.73333334 1.95294118
v -0.03645826 -0.03139480 -0.00029542 1.55294118 1.73333334 1.95294118
v -0.03353824 -0.03159898 -0.02770590 1.55294118 1.73333334 1.95294118
v -0.03353824 -0.03160516 -0.02479138 1.55294118 1.73333334 1.95294118
v -0.03727432 0.03091218 -0.00029542 1.55294118 1.73333334 1.95294118
v -0.03645826 0.03139480 -0.02770590 1.55294118 1.73333334 1.95294118
v -0.03831142 0.02984176 -0.02984198 1.55294118 1.73333334 1.95294118
v -0.04056412 0.00145404 -0.02229368 1.55294118 1.73333334 1.95294118
v -0.04056412 0.00437448 -0.02212818 1.55294118 1.73333334 1.95294118
v -0.04056412 0.00714024 -0.02151832 1.55294118 1.73333334 1.95294118
v -0.04056412 0.00747436 -0.02136508 1.55294118 1.73333334 1.95294118
v -0.04056412 0.01288832 -0.01861606 1.55294118 1.73333334 1.95294118
v -0.04056412 0.01328432 -0.01834024 1.55294118 1.73333334 1.95294118
v -0.04056412 0.01601914 -0.01590382 1.55294118 1.73333334 1.95294118
v -0.04056412 0.01879728 -0.01299238 1.55294118 1.73333334 1.95294118
v -0.04056412 0.02177342 -0.00730434 1.55294118 1.73333334 1.95294118
v -0.04056412 0.02244784 -0.00437756 1.55294118 1.73333334 1.95294118
v -0.04056412 0.02254064 -0.00340300 1.55294118 1.73333334 1.95294118
v -0.04056412 0.02271390 -0.00146000 1.55294118 1.73333334 1.95294118
v -0.03353824 -0.02770712 -0.03160416 1.55294118 1.73333334 1.95294118
v -0.03645826 0.02770712 -0.03139884 1.55294118 1.73333334 1.95294118
v -0.03353824 -0.03038006 -0.03038442 1.55294118 1.73333334 1.95294118
v -0.03353824 -0.03160516 -0.00029542 1.55294118 1.73333334 1.95294118
v -0.00437638 -0.03159898 -0.02770590 1.55294118 1.73333334 1.95294118
v -0.00437638 -0.03160516 -0.02479138 1.55294118 1.73333334 1.95294118
v -0.03645826 0.03139480 -0.00029542 1.55294118 1.73333334 1.95294118
v -0.03353824 0.03159898 -0.02770590 1.55294118 1.73333334 1.95294118
v -0.03645826 0.03028106 -0.03028022 1.55294118 1.73333334 1.95294118
v -0.03353824 0.03160516 -0.02479138 1.55294118 1.73333334 1.95294118
v -0.00437638 -0.02770712 -0.03160416 1.55294118 1.73333334 1.95294118
v -0.03353824 0.02770712 -0.03160416 1.55294118 1.73333334 1.95294118
v 0.00285778 -0.03038006 -0.03038442 1.55294118 1.73333334 1.95294118
v -0.00437638 -0.03160516 -0.00029542 1.55294118 1.73333334 1.95294118
v -0.00146060 -0.03157422 -0.02770590 1.55294118 1.73333334 1.95294118
v 0.00285778 -0.03153710 -0.02770590 1.55294118 1.73333334 1.95294118
v -0.03353824 0.03160516 -0.00029542 1.55294118 1.73333334 1.95294118
v -0.03353824 0.03038006 -0.03038442 1.55294118 1.73333334 1.95294118
v -0.00437638 0.03159898 -0.02770590 1.55294118 1.73333334 1.95294118
v -0.00437638 0.03160516 -0.02479138 1.55294118 1.73333334 1.95294118
v 0.00285778 -0.02770712 -0.03153674 1.55294118 1.73333334 1.95294118
v 0.00285778 -0.02898790 -0.03098510 1.55294118 1.73333334 1.95294118
v -0.00437638 0.02770712 -0.03160416 1.55294118 1.73333334 1.95294118
v -0.00146060 -0.03131436 -0.00029542 1.55294118 1.73333334 1.95294118
v 0.00285778 -0.02913022 -0.00029542 1.55294118 1.73333334 1.95294118
v 0.00227548 -0.02951384 -0.00029542 1.55294118 1.73333334 1.95294118
v 0.00139564 -0.03008926 -0.00029542 1.55294118 1.73333334 1.95294118
v -0.00437638 0.03160516 -0.00029542 1.55294118 1.73333334 1.95294118
v 0.00285778 0.03038006 -0.03038442 1.55294118 1.73333334 1.95294118
v -0.00146060 0.03158042 -0.02770590 1.55294118 1.73333334 1.95294118
v 0.00285778 0.02770712 -0.03153674 1.55294118 1.73333334 1.95294118
v 0.00285778 0.02890746 -0.00029542 1.55294118 1.73333334 1.95294118
v -0.00146060 0.03131436 -0.00029542 1.55294118 1.73333334 1.95294118
v 0.00285778 0.03153710 -0.02770590 1.55294118 1.73333334 1.95294118
v 0.00285778 0.03098642 -0.02899000 1.55294118 1.73333334 1.95294118
v 0.00285778 0.02913022 -0.00029848 1.55294118 1.73333334 1.95294118
v 0.00285352 0.02913022 -0.00029542 1.55294118 1.73333334 1.95294118
v 0.00025654 0.03057806 -0.00029542 1.55294118 1.73333334 1.95294118
v 0.00139564 0.03008926 -0.00029542 1.55294118 1.73333334 1.95294118
v 0.00197794 0.02971182 -0.00029542 1.55294118 1.73333334 1.95294118
f 1 2 3
f 1 3 4
f 1 4 5
f 1 5 6
f 1 6 23
f 1 23 33
f 1 33 32
f 1 32 54
f 1 54 64
f 1 64 74
f 1 74 77
f 1 77 76
f 1 76 75
f 1 75 82
f 1 82 87
f 1 87 90
f 1 90 89
f 1 89 88
f 1 88 83
f 1 83 78
f 1 78 67
f 1 67 57
f 1 57 36
f 1 36 24
f 1 24 7
f 1 7 27
f 1 27 50
f 1 50 49
f 1 49 48
f 1 48 47
f 1 47 46
f 1 46 45
f 1 45 44
f 1 44 43
f 1 43 42
f 1 42 41
f 1 41 40
f 1 40 39
f 1 39 29
f 1 29 21
f 1 21 20
f 1 20 19
f 1 19 18
f 1 18 17
f 1 17 16
f 1 16 15
f 1 15 14
f 1 14 13
f 1 13 12
f 1 12 11
f 1 11 8
f 1 8 2
f 2 8 3
f 3 9 10
f 3 10 4
f 3 8 11
f 3 11 12
f 3 12 13
f 3 13 14
f 3 14 15
f 3 15 16
f 3 16 17
f 3 17 18
f 3 18 19
f 3 19 20
f 3 20 21
f 3 21 9
f 4 10 22
f 4 22 23
f 4 23 5
f 5 23 6
f 7 24 25
f 7 25 26
f 7 26 27
f 9 28 10
f 9 21 29
f 9 29 39
f 9 39 30
f 9 30 52
f 9 52 28
f 10 28 31
f 10 31 22
f 22 32 33
f 22 33 23
f 22 31 34
f 22 34 35
f 22 35 32
f 24 36 25
f 25 36 37
f 25 37 38
f 25 38 26
f 26 38 30
f 26 30 39
f 26 39 40
f 26 40 41
f 26 41 42
f 26 42 43
f 26 43 44
f 26 44 45
f 26 45 46
f 26 46 47
f 26 47 48
f 26 48 49
f 26 49 50
f 26 50 27
f 28 51 31
f 28 52 62
f 28 62 51
f 30 38 52
f 31 53 34
f 31 51 53
f 32 35 54
f 34 53 63
f 34 63 55
f 34 55 56
f 34 56 35
f 35 56 64
f 35 64 54
f 36 57 37
f 37 58 59
f 37 59 38
f 37 57 67
f 37 67 60
f 37 60 58
f 38 59 52
f 51 61 63
f 51 63 53
f 51 62 73
f 51 73 61
f 52 59 62
f 55 63 65
f 55 65 56
f 56 65 66
f 56 66 64
f 58 68 59
f 58 60 70
f 58 70 69
f 58 69 79
f 58 79 68
f 59 68 62
f 60 67 78
f 60 78 70
f 61 71 72
f 61 72 63
f 61 73 81
f 61 81 71
f 62 68 79
f 62 79 73
f 63 66 65
f 63 72 71
f 63 71 81
f 63 81 79
f 63 79 85
f 63 85 84
f 63 84 86
f 63 86 82
f 63 82 75
f 63 75 66
f 64 66 74
f 66 75 76
f 66 76 77
f 66 77 74
f 69 70 80
f 69 80 79
f 70 78 80
f 73 79 81
f 78 83 84
f 78 84 80
f 79 80 85
f 80 84 85
f 82 86 87
f 83 88 84
f 84 88 89
f 84 89 90
f 84 90 86
f 86 90 87