# https://github.com/mikedh/trimesh
v 0.04558416 0.01895958 -0.00029542 1.22352942 1.23137254 1.88235294
v 0.04558416 0.01895958 -0.02911108 1.22352942 1.23137254 1.88235294
v 0.02390492 0.01895958 -0.00029542 1.22352942 1.23137254 1.88235294
v 0.04558416 -0.02911104 -0.00029542 1.22352942 1.23137254 1.88235294
v 0.02390492 0.01895958 -0.02910192 1.22352942 1.23137254 1.88235294
v 0.04558416 -0.02770738 -0.03152972 1.22352942 1.23137254 1.88235294
v 0.02390492 -0.02770738 -0.03152972 1.22352942 1.23137254 1.88235294
v 0.02390492 -0.02910116 -0.00029542 1.22352942 1.23137254 1.88235294
v 0.02390492 -0.03153286 -0.02770760 1.22352942 1.23137254 1.88235294
v 0.04558416 -0.03152792 -0.02770760 1.22352942 1.23137254 1.88235294
v 0.04558416 -0.03038126 -0.03038308 1.22352942 1.23137254 1.88235294
v 0.02390492 -0.02957070 -0.03073166 1.22352942 1.23137254 1.88235294
v 0.02390492 -0.03038126 -0.03038308 1.22352942 1.23137254 1.88235294
v 0.04558416 -0.03052954 -0.03003756 1.22352942 1.23137254 1.88235294
f 1 2 5
f 1 5 3
f 1 3 8
f 1 8 4
f 1 4 10
f 1 10 14
f 1 14 11
f 1 11 6
f 1 6 2
f 2 6 7
f 2 7 5
f 3 5 7
f 3 7 12
f 3 12 13
f 3 13 9
f 3 9 8
f 4 8 9
f 4 9 10
f 6 11 12
f 6 12 7
f 9 13 11
f 9 11 14
f 9 14 10
f 11 13 12