# https://github.com/mikedh/trimesh
v 0.02425962 -0.02770744 0.03153226 0.62745098 0.72156862 1.13725490
v 0.00287922 -0.02770744 0.03153850 0.62745098 0.72156862 1.13725490
v 0.02425962 -0.03038520 0.03038244 0.62745098 0.72156862 1.13725490
v 0.02425962 -0.01947214 0.02911106 0.62745098 0.72156862 1.13725490
v 0.00287922 -0.01947214 0.02913600 0.62745098 0.72156862 1.13725490
v 0.00287922 -0.03038520 0.03038244 0.62745098 0.72156862 1.13725490
v 0.00287922 -0.03097934 0.02901136 0.62745098 0.72156862 1.13725490
v 0.02425962 -0.03059426 0.02989632 0.62745098 0.72156862 1.13725490
v 0.02425962 -0.01947214 -0.00029230 0.62745098 0.72156862 1.13725490
v 0.00287922 -0.01947214 -0.00029230 0.62745098 0.72156862 1.13725490
v 0.00287922 -0.03153804 0.02770572 0.62745098 0.72156862 1.13725490
v 0.02425962 -0.03153214 0.02770572 0.62745098 0.72156862 1.13725490
v 0.02425962 -0.02910360 -0.00029230 0.62745098 0.72156862 1.13725490
v 0.00287922 -0.02913432 -0.00029230 0.62745098 0.72156862 1.13725490
f 1 2 3
f 1 3 8
f 1 8 12
f 1 12 13
f 1 13 9
f 1 9 4
f 1 4 5
f 1 5 2
f 2 6 3
f 2 5 10
f 2 10 14
f 2 14 11
f 2 11 7
f 2 7 6
f 3 6 7
f 3 7 8
f 4 9 10
f 4 10 5
f 7 11 12
f 7 12 8
f 9 13 14
f 9 14 10
f 11 14 12
f 12 14 13