# https://github.com/mikedh/trimesh
v -0.05252790 -0.02435458 -0.00145518 0.87058824 1.78039216 1.92156862
v -0.05252790 -0.02428126 -0.00437104 0.87058824 1.78039216 1.92156862
v -0.04595024 -0.02182816 0.00071214 0.87058824 1.78039216 1.92156862
v -0.04595024 -0.02179884 0.00145578 0.87058824 1.78039216 1.92156862
v -0.04595024 -0.02166690 0.00363290 0.87058824 1.78039216 1.92156862
v -0.05252790 -0.02412490 0.00145578 0.87058824 1.78039216 1.92156862
v -0.05252790 -0.02388056 -0.00728690 0.87058824 1.78039216 1.92156862
v -0.05205532 -0.02368998 -0.00728690 0.87058824 1.78039216 1.92156862
v -0.04595024 -0.02160338 -0.00219882 0.87058824 1.78039216 1.92156862
v -0.04595024 -0.02154962 0.00437164 0.87058824 1.78039216 1.92156862
v -0.05252790 -0.02379750 0.00340296 0.87058824 1.78039216 1.92156862
v -0.05252790 -0.02348964 -0.00917046 0.87058824 1.78039216 1.92156862
v -0.05232122 -0.02346032 -0.00910196 0.87058824 1.78039216 1.92156862
v -0.04595024 -0.02105608 -0.00509022 0.87058824 1.78039216 1.92156862
v -0.04595024 -0.02119778 -0.00437104 0.87058824 1.78039216 1.92156862
v -0.05252790 -0.02370464 0.00392154 0.87058824 1.78039216 1.92156862
v -0.04595024 -0.02111960 0.00652918 0.87058824 1.78039216 1.92156862
v -0.05252790 -0.02341144 -0.00935636 0.87058824 1.78039216 1.92156862
v -0.05218794 -0.02062116 -0.01487986 0.87058824 1.78039216 1.92156862
v -0.05160976 -0.02111960 -0.01312350 0.87058824 1.78039216 1.92156862
v -0.04595024 -0.01914540 -0.01024188 0.87058824 1.78039216 1.92156862
v -0.04595024 -0.01999078 -0.00845128 0.87058824 1.78039216 1.92156862
v -0.04595024 -0.02068470 -0.00656772 0.87058824 1.78039216 1.92156862
v -0.05252790 -0.02328928 0.00570236 0.87058824 1.78039216 1.92156862
v -0.04595024 -0.02099254 0.00699884 0.87058824 1.78039216 1.92156862
v -0.05252790 -0.02065536 -0.01491900 0.87058824 1.78039216 1.92156862
v -0.04990096 -0.01719072 -0.01710590 0.87058824 1.78039216 1.92156862
v -0.04595024 -0.01655058 -0.01420472 0.87058824 1.78039216 1.92156862
v -0.04595024 -0.01797260 -0.01235050 0.87058824 1.78039216 1.92156862
v -0.04595024 -0.01880332 -0.01090726 0.87058824 1.78039216 1.92156862
v -0.05252790 -0.02043058 -0.01520276 0.87058824 1.78039216 1.92156862
v -0.05184542 -0.01794816 -0.01796696 0.87058824 1.78039216 1.92156862
v -0.05252790 -0.02327950 0.00572684 0.87058824 1.78039216 1.92156862
v -0.04595024 -0.01888640 0.01202822 0.87058824 1.78039216 1.92156862
v -0.04595024 -0.01545596 -0.01544738 0.87058824 1.78039216 1.92156862
v -0.04991898 -0.01429294 -0.02013916 0.87058824 1.78039216 1.92156862
v -0.05252790 -0.01802146 -0.01803544 0.87058824 1.78039216 1.92156862
v -0.05186344 -0.01499662 -0.02073114 0.87058824 1.78039216 1.92156862
v -0.05252790 -0.02260514 0.00727282 0.87058824 1.78039216 1.92156862
v -0.04595024 -0.01853944 0.01262508 0.87058824 1.78039216 1.92156862
v -0.05252790 -0.02096322 0.01035012 0.87058824 1.78039216 1.92156862
v -0.04595024 -0.01351596 -0.01727224 0.87058824 1.78039216 1.92156862
v -0.04595024 -0.01242136 -0.01817732 0.87058824 1.78039216 1.92156862
v -0.05095110 -0.01324230 -0.02144054 0.87058824 1.78039216 1.92156862
v -0.04950756 -0.00887364 -0.02339260 0.87058824 1.78039216 1.92156862
v -0.04917210 -0.01234806 -0.02089260 0.87058824 1.78039216 1.92156862
v -0.05252790 -0.01750348 -0.01851000 0.87058824 1.78039216 1.92156862
v -0.05252790 -0.01503082 -0.02075560 0.87058824 1.78039216 1.92156862
v -0.05252790 -0.01440534 -0.02114210 0.87058824 1.78039216 1.92156862
v -0.05104124 -0.01093580 -0.02291314 0.87058824 1.78039216 1.92156862
v -0.04595024 -0.01633068 0.01553604 0.87058824 1.78039216 1.92156862
v -0.05252790 -0.02007874 0.01149984 0.87058824 1.78039216 1.92156862
v -0.04595024 -0.00791586 -0.02068712 0.87058824 1.78039216 1.92156862
v -0.05104124 -0.00947958 -0.02365190 0.87058824 1.78039216 1.92156862
v -0.05104124 -0.00729036 -0.02445424 0.87058824 1.78039216 1.92156862
v -0.04914506 -0.00729036 -0.02369104 0.87058824 1.78039216 1.92156862
v -0.04595024 -0.00437302 -0.02221842 0.87058824 1.78039216 1.92156862
v -0.04595024 -0.00578038 -0.02167538 0.87058824 1.78039216 1.92156862
v -0.04595024 -0.00691898 -0.02121550 0.87058824 1.78039216 1.92156862
v -0.05252790 -0.01100422 -0.02301100 0.87058824 1.78039216 1.92156862
v -0.05252790 -0.01886686 0.01305072 0.87058824 1.78039216 1.92156862
v -0.04595024 -0.01596418 0.01595680 0.87058824 1.78039216 1.92156862
v -0.05252790 -0.00954800 -0.02367146 0.87058824 1.78039216 1.92156862
v -0.05252790 -0.00729036 -0.02443956 0.87058824 1.78039216 1.92156862
v -0.05104124 -0.00437302 -0.02522724 0.87058824 1.78039216 1.92156862
v -0.04858234 -0.00437302 -0.02413134 0.87058824 1.78039216 1.92156862
v -0.04595024 -0.00335172 -0.02244348 0.87058824 1.78039216 1.92156862
v -0.05252790 -0.01844660 0.01351060 0.87058824 1.78039216 1.92156862
v -0.04595024 -0.01337914 0.01854976 0.87058824 1.78039216 1.92156862
v -0.05252790 -0.00437302 -0.02510004 0.87058824 1.78039216 1.92156862
v -0.05104124 -0.00145568 -0.02561864 0.87058824 1.78039216 1.92156862
v -0.04792174 -0.00129932 -0.02419496 0.87058824 1.78039216 1.92156862
v -0.04595024 -0.00129932 -0.02286422 0.87058824 1.78039216 1.92156862
v -0.05252790 -0.01594952 0.01581492 0.87058824 1.78039216 1.92156862
v -0.04595024 -0.01303218 0.01885798 0.87058824 1.78039216 1.92156862
v -0.05252790 -0.00145568 -0.02538380 0.87058824 1.78039216 1.92156862
v -0.05104124 0.00145676 -0.02565288 0.87058824 1.78039216 1.92156862
v -0.04812520 0.00145676 -0.02455210 0.87058824 1.78039216 1.92156862
v -0.04595024 -0.00005810 -0.02294250 0.87058824 1.78039216 1.92156862
v -0.05252790 -0.01267058 0.01843722 0.87058824 1.78039216 1.92156862
v -0.04595024 -0.01000246 0.02110358 0.87058824 1.78039216 1.92156862
v -0.05252790 0.00145676 -0.02530552 0.87058824 1.78039216 1.92156862
v -0.05104124 0.00437410 -0.02532998 0.87058824 1.78039216 1.92156862
v -0.04812520 0.00437410 -0.02445424 0.87058824 1.78039216 1.92156862
v -0.04652906 0.00437410 -0.02345620 0.87058824 1.78039216 1.92156862
v -0.04595024 0.00320618 -0.02305014 0.87058824 1.78039216 1.92156862
v -0.04595024 0.00145676 -0.02303546 0.87058824 1.78039216 1.92156862
v -0.05252790 -0.01168836 0.01898518 0.87058824 1.78039216 1.92156862
v -0.04595024 -0.00728548 0.02244898 0.87058824 1.78039216 1.92156862
v -0.05252790 0.00444250 -0.02482606 0.87058824 1.78039216 1.92156862
v -0.05252790 0.00617728 -0.02446892 0.87058824 1.78039216 1.92156862
v -0.05104124 0.00729142 -0.02463526 0.87058824 1.78039216 1.92156862
v -0.04883988 0.00956862 -0.02366658 0.87058824 1.78039216 1.92156862
v -0.04797066 0.00719858 -0.02393076 0.87058824 1.78039216 1.92156862
v -0.04659666 0.00616750 -0.02339750 0.87058824 1.78039216 1.92156862
v -0.04595024 0.00437410 -0.02298654 0.87058824 1.78039216 1.92156862
v -0.05252790 -0.00681636 0.02102530 0.87058824 1.78039216 1.92156862
v -0.04595024 -0.00437302 0.02347148 0.87058824 1.78039216 1.92156862
v -0.05252790 0.00729142 -0.02419984 0.87058824 1.78039216 1.92156862
v -0.05252790 0.00888448 -0.02376932 0.87058824 1.78039216 1.92156862
v -0.05104124 0.00974454 -0.02375952 0.87058824 1.78039216 1.92156862
v -0.05104124 0.01120076 -0.02309416 0.87058824 1.78039216 1.92156862
v -0.04812520 0.01312122 -0.02172430 0.87058824 1.78039216 1.92156862
v -0.04797066 0.01040912 -0.02291314 0.87058824 1.78039216 1.92156862
v -0.04689606 0.00811238 -0.02318712 0.87058824 1.78039216 1.92156862
v -0.04595024 0.00667082 -0.02264896 0.87058824 1.78039216 1.92156862
v -0.04595024 0.00541006 -0.02291804 0.87058824 1.78039216 1.92156862
v -0.05252790 -0.00587322 0.02126992 0.87058824 1.78039216 1.92156862
v -0.04595024 -0.00217402 0.02394116 0.87058824 1.78039216 1.92156862
v -0.05252790 -0.00437302 0.02161238 0.87058824 1.78039216 1.92156862
v -0.05252790 0.00934872 -0.02360298 0.87058824 1.78039216 1.92156862
v -0.05252790 0.01461164 -0.02051588 0.87058824 1.78039216 1.92156862
v -0.05104124 0.01312122 -0.02194446 0.87058824 1.78039216 1.92156862
v -0.04812520 0.01493904 -0.02067734 0.87058824 1.78039216 1.92156862
v -0.04666170 0.01458720 -0.02041804 0.87058824 1.78039216 1.92156862
v -0.04631594 0.01312122 -0.02078496 0.87058824 1.78039216 1.92156862
v -0.04595024 0.01116654 -0.02119592 0.87058824 1.78039216 1.92156862
v -0.04595024 0.01022342 -0.02152372 0.87058824 1.78039216 1.92156862
v -0.04595024 0.00756508 -0.02241902 0.87058824 1.78039216 1.92156862
v -0.04595024 -0.00172446 0.02401454 0.87058824 1.78039216 1.92156862
v -0.05252790 -0.00294124 0.02181296 0.87058824 1.78039216 1.92156862
v -0.04595024 -0.00145568 0.02405368 0.87058824 1.78039216 1.92156862
v -0.05252790 0.01466540 -0.02048164 0.87058824 1.78039216 1.92156862
v -0.05104124 0.01499280 -0.02072136 0.87058824 1.78039216 1.92156862
v -0.04812520 0.01640016 -0.01956186 0.87058824 1.78039216 1.92156862
v -0.04595024 0.01575512 -0.01880356 0.87058824 1.78039216 1.92156862
v -0.04595024 0.01412298 -0.01987988 0.87058824 1.78039216 1.92156862
v -0.04637582 0.01777820 -0.01776148 0.87058824 1.78039216 1.92156862
v -0.04595024 0.01316520 -0.02036422 0.87058824 1.78039216 1.92156862
v -0.04595024 0.01258856 -0.02061372 0.87058824 1.78039216 1.92156862
v -0.05252790 -0.00145568 0.02190104 0.87058824 1.78039216 1.92156862
v -0.04595024 0.00145676 0.02432764 0.87058824 1.78039216 1.92156862
v -0.05104124 0.01796878 -0.01798652 0.87058824 1.78039216 1.92156862
v -0.05104124 0.01644902 -0.01944446 0.87058824 1.78039216 1.92156862
v -0.05252790 0.01760716 -0.01761960 0.87058824 1.78039216 1.92156862
v -0.04812520 0.01811048 -0.01810394 0.87058824 1.78039216 1.92156862
v -0.04595024 0.01741658 -0.01756578 0.87058824 1.78039216 1.92156862
v -0.04639256 0.02061246 -0.01483094 0.87058824 1.78039216 1.92156862
v -0.04595024 0.01975730 -0.01525168 0.87058824 1.78039216 1.92156862
v -0.04595024 0.01818868 -0.01688084 0.87058824 1.78039216 1.92156862
v -0.05252790 -0.00002390 0.02190592 0.87058824 1.78039216 1.92156862
v -0.04595024 0.00437410 0.02423470 0.87058824 1.78039216 1.92156862
v -0.05024220 0.02072974 -0.01501686 0.87058824 1.78039216 1.92156862
v -0.04812520 0.01957160 -0.01655306 0.87058824 1.78039216 1.92156862
v -0.05252790 0.01996742 -0.01397478 0.87058824 1.78039216 1.92156862
v -0.05218666 0.02021176 -0.01419494 0.87058824 1.78039216 1.92156862
v -0.04812520 0.02207356 -0.01312350 0.87058824 1.78039216 1.92156862
v -0.04812520 0.02314864 -0.01126928 0.87058824 1.78039216 1.92156862
v -0.04605518 0.02364218 -0.00944444 0.87058824 1.78039216 1.92156862
v -0.04595024 0.02352002 -0.00954718 0.87058824 1.78039216 1.92156862
v -0.04595024 0.02080792 -0.01401880 0.87058824 1.78039216 1.92156862
v -0.04595024 0.02039256 -0.01457654 0.87058824 1.78039216 1.92156862
v -0.04812520 0.02079816 -0.01509512 0.87058824 1.78039216 1.92156862
v -0.05252790 0.00145676 0.02180318 0.87058824 1.78039216 1.92156862
v -0.04595024 0.00731586 0.02383842 0.87058824 1.78039216 1.92156862
v -0.05252790 0.00288854 0.02163684 0.87058824 1.78039216 1.92156862
v -0.05114490 0.02128682 -0.01318220 0.87058824 1.78039216 1.92156862
v -0.05007286 0.02360798 -0.00946890 0.87058824 1.78039216 1.92156862
v -0.05252790 0.02050006 -0.01302076 0.87058824 1.78039216 1.92156862
v -0.05104316 0.02263554 -0.01034462 0.87058824 1.78039216 1.92156862
v -0.04812520 0.02377412 -0.00981136 0.87058824 1.78039216 1.92156862
v -0.04812520 0.02462930 -0.00728690 0.87058824 1.78039216 1.92156862
v -0.04595024 0.02494692 -0.00437104 0.87058824 1.78039216 1.92156862
v -0.04595024 0.02368128 -0.00919492 0.87058824 1.78039216 1.92156862
v -0.04595024 0.02361286 -0.00937594 0.87058824 1.78039216 1.92156862
v -0.04595024 0.00802442 0.02374056 0.87058824 1.78039216 1.92156862
v -0.05252790 0.00437410 0.02134330 0.87058824 1.78039216 1.92156862
v -0.04666298 0.00873788 0.02332960 0.87058824 1.78039216 1.92156862
v -0.05197998 0.02294340 -0.00728690 0.87058824 1.78039216 1.92156862
v -0.05052164 0.02392562 -0.00728690 0.87058824 1.78039216 1.92156862
v -0.04812520 0.02527922 -0.00437104 0.87058824 1.78039216 1.92156862
v -0.05252790 0.02077372 -0.01237986 0.87058824 1.78039216 1.92156862
v -0.05252790 0.02155558 -0.01024678 0.87058824 1.78039216 1.92156862
v -0.04595024 0.02538184 -0.00145518 0.87058824 1.78039216 1.92156862
v -0.04595024 0.00906040 0.02346170 0.87058824 1.78039216 1.92156862
v -0.05252790 0.00541984 0.02108890 0.87058824 1.78039216 1.92156862
v -0.05252790 0.00651444 0.02072196 0.87058824 1.78039216 1.92156862
v -0.04595024 0.00977386 0.02317304 0.87058824 1.78039216 1.92156862
v -0.04679048 0.01471914 0.02051160 0.87058824 1.78039216 1.92156862
v -0.05252790 0.00906528 0.01969456 0.87058824 1.78039216 1.92156862
v -0.05252790 0.00722790 0.02044310 0.87058824 1.78039216 1.92156862
v -0.05252790 0.02252802 -0.00726732 0.87058824 1.78039216 1.92156862
v -0.05252790 0.02268928 -0.00647966 0.87058824 1.78039216 1.92156862
v -0.05077660 0.02420416 -0.00437104 0.87058824 1.78039216 1.92156862
v -0.04812520 0.02555776 -0.00145518 0.87058824 1.78039216 1.92156862
v -0.04595024 0.02545024 0.00145578 0.87058824 1.78039216 1.92156862
v -0.04595024 0.01312122 0.02152922 0.87058824 1.78039216 1.92156862
v -0.04595024 0.01565738 0.02003214 0.87058824 1.78039216 1.92156862
v -0.04709372 0.01786616 0.01784524 0.87058824 1.78039216 1.92156862
v -0.05252790 0.01462630 0.01636776 0.87058824 1.78039216 1.92156862
v -0.05252790 0.01254458 0.01795288 0.87058824 1.78039216 1.92156862
v -0.05252790 0.01149884 0.01855954 0.87058824 1.78039216 1.92156862
v -0.04595024 0.01488530 0.02063390 0.87058824 1.78039216 1.92156862
v -0.05252790 0.02293852 -0.00437104 0.87058824 1.78039216 1.92156862
v -0.05252790 0.02296782 -0.00387690 0.87058824 1.78039216 1.92156862
v -0.05076180 0.02429700 -0.00145518 0.87058824 1.78039216 1.92156862
v -0.04812520 0.02546492 0.00145578 0.87058824 1.78039216 1.92156862
v -0.04595024 0.02515216 0.00437164 0.87058824 1.78039216 1.92156862
v -0.04595024 0.01804208 0.01803116 0.87058824 1.78039216 1.92156862
v -0.04705380 0.02066132 0.01489514 0.87058824 1.78039216 1.92156862
v -0.05252790 0.01765604 0.01331002 0.87058824 1.78039216 1.92156862
v -0.05252790 0.01552544 0.01557030 0.87058824 1.78039216 1.92156862
v -0.05252790 0.02293852 -0.00145518 0.87058824 1.78039216 1.92156862
v -0.05252790 0.02290430 -0.00094148 0.87058824 1.78039216 1.92156862
v -0.05055190 0.02419438 0.00145578 0.87058824 1.78039216 1.92156862
v -0.04812520 0.02501046 0.00437164 0.87058824 1.78039216 1.92156862
v -0.04595024 0.02446804 0.00732174 0.87058824 1.78039216 1.92156862
v -0.04595024 0.01892656 0.01707226 0.87058824 1.78039216 1.92156862
v -0.04595024 0.02074928 0.01502234 0.87058824 1.78039216 1.92156862
v -0.04595024 0.02150672 0.01383350 0.87058824 1.78039216 1.92156862
v -0.04743820 0.02367150 0.00951842 0.87058824 1.78039216 1.92156862
v -0.04829646 0.02274792 0.01037948 0.87058824 1.78039216 1.92156862
v -0.04806596 0.02122818 0.01302626 0.87058824 1.78039216 1.92156862
v -0.05252790 0.01827664 0.01251256 0.87058824 1.78039216 1.92156862
v -0.05252790 0.02265998 0.00145578 0.87058824 1.78039216 1.92156862
v -0.05252790 0.02212732 0.00437164 0.87058824 1.78039216 1.92156862
v -0.05020936 0.02391096 0.00437164 0.87058824 1.78039216 1.92156862
v -0.04986812 0.02359332 0.00652918 0.87058824 1.78039216 1.92156862
v -0.04829646 0.02408198 0.00741960 0.87058824 1.78039216 1.92156862
v -0.04595024 0.02428234 0.00803114 0.87058824 1.78039216 1.92156862
v -0.04595024 0.02304112 0.01102528 0.87058824 1.78039216 1.92156862
v -0.04595024 0.02373014 0.00968966 0.87058824 1.78039216 1.92156862
v -0.04938200 0.02319262 0.00847634 0.87058824 1.78039216 1.92156862
v -0.04978312 0.02065156 0.01198908 0.87058824 1.78039216 1.92156862
v -0.05252790 0.02100340 0.00769356 0.87058824 1.78039216 1.92156862
v -0.05252790 0.02133568 0.00694992 0.87058824 1.78039216 1.92156862
f 1 2 3
f 1 3 4
f 1 4 5
f 1 5 6
f 1 6 11
f 1 11 16
f 1 16 24
f 1 24 33
f 1 33 39
f 1 39 41
f 1 41 52
f 1 52 61
f 1 61 68
f 1 68 74
f 1 74 80
f 1 80 88
f 1 88 97
f 1 97 108
f 1 108 110
f 1 110 121
f 1 121 131
f 1 131 141
f 1 141 154
f 1 154 156
f 1 156 167
f 1 167 176
f 1 176 177
f 1 177 181
f 1 181 180
f 1 180 192
f 1 192 191
f 1 191 190
f 1 190 202
f 1 202 201
f 1 201 214
f 1 214 225
f 1 225 226
f 1 226 216
f 1 216 215
f 1 215 204
f 1 204 203
f 1 203 195
f 1 195 194
f 1 194 183
f 1 183 182
f 1 182 173
f 1 173 172
f 1 172 159
f 1 159 145
f 1 145 135
f 1 135 123
f 1 123 112
f 1 112 111
f 1 111 100
f 1 100 99
f 1 99 91
f 1 91 90
f 1 90 82
f 1 82 76
f 1 76 70
f 1 70 64
f 1 64 63
f 1 63 60
f 1 60 49
f 1 49 48
f 1 48 47
f 1 47 37
f 1 37 31
f 1 31 26
f 1 26 18
f 1 18 12
f 1 12 7
f 1 7 2
f 2 7 8
f 2 8 9
f 2 9 3
f 3 9 15
f 3 15 14
f 3 14 23
f 3 23 22
f 3 22 21
f 3 21 30
f 3 30 29
f 3 29 28
f 3 28 35
f 3 35 42
f 3 42 43
f 3 43 53
f 3 53 59
f 3 59 58
f 3 58 57
f 3 57 67
f 3 67 73
f 3 73 79
f 3 79 87
f 3 87 86
f 3 86 96
f 3 96 107
f 3 107 106
f 3 106 119
f 3 119 118
f 3 118 117
f 3 117 130
f 3 130 129
f 3 129 127
f 3 127 126
f 3 126 137
f 3 137 140
f 3 140 139
f 3 139 152
f 3 152 151
f 3 151 150
f 3 150 165
f 3 165 164
f 3 164 163
f 3 163 174
f 3 174 186
f 3 186 198
f 3 198 207
f 3 207 220
f 3 220 222
f 3 222 221
f 3 221 210
f 3 210 209
f 3 209 208
f 3 208 199
f 3 199 188
f 3 188 193
f 3 193 187
f 3 187 178
f 3 178 175
f 3 175 166
f 3 166 155
f 3 155 142
f 3 142 132
f 3 132 122
f 3 122 120
f 3 120 109
f 3 109 98
f 3 98 89
f 3 89 81
f 3 81 75
f 3 75 69
f 3 69 62
f 3 62 51
f 3 51 40
f 3 40 34
f 3 34 25
f 3 25 17
f 3 17 10
f 3 10 5
f 3 5 4
f 5 10 6
f 6 10 11
f 7 12 13
f 7 13 8
f 8 13 14
f 8 14 15
f 8 15 9
f 10 16 11
f 10 17 16
f 12 18 13
f 13 18 19
f 13 19 20
f 13 20 21
f 13 21 22
f 13 22 23
f 13 23 14
f 16 17 24
f 17 25 24
f 18 26 19
f 19 27 28
f 19 28 29
f 19 29 30
f 19 30 21
f 19 21 20
f 19 26 31
f 19 31 32
f 19 32 27
f 24 25 33
f 25 34 33
f 27 35 28
f 27 32 36
f 27 36 35
f 31 37 32
f 32 37 38
f 32 38 36
f 33 34 39
f 34 40 41
f 34 41 39
f 35 36 42
f 36 43 42
f 36 38 44
f 36 44 45
f 36 45 46
f 36 46 43
f 37 47 38
f 38 47 48
f 38 48 49
f 38 49 50
f 38 50 44
f 40 51 41
f 41 51 52
f 43 46 45
f 43 45 53
f 44 50 45
f 45 50 54
f 45 54 55
f 45 55 56
f 45 56 57
f 45 57 58
f 45 58 59
f 45 59 53
f 49 60 50
f 50 60 54
f 51 61 52
f 51 62 61
f 54 60 63
f 54 63 55
f 55 63 64
f 55 64 65
f 55 65 56
f 56 65 66
f 56 66 57
f 57 66 67
f 61 62 68
f 62 69 68
f 64 70 65
f 65 70 71
f 65 71 66
f 66 72 73
f 66 73 67
f 66 71 72
f 68 69 74
f 69 75 74
f 70 76 71
f 71 76 77
f 71 77 78
f 71 78 72
f 72 78 73
f 73 78 79
f 74 75 80
f 75 81 80
f 76 82 77
f 77 82 83
f 77 83 84
f 77 84 78
f 78 84 85
f 78 85 86
f 78 86 87
f 78 87 79
f 80 81 88
f 81 89 88
f 82 90 83
f 83 90 91
f 83 91 92
f 83 92 93
f 83 93 94
f 83 94 84
f 84 94 95
f 84 95 85
f 85 95 96
f 85 96 86
f 88 89 97
f 89 98 97
f 91 99 92
f 92 99 100
f 92 100 101
f 92 101 93
f 93 101 102
f 93 102 103
f 93 103 104
f 93 104 105
f 93 105 94
f 94 105 95
f 95 105 106
f 95 106 107
f 95 107 96
f 97 98 108
f 98 109 110
f 98 110 108
f 100 111 101
f 101 111 102
f 102 111 112
f 102 112 113
f 102 113 114
f 102 114 103
f 103 114 115
f 103 115 104
f 104 115 105
f 105 115 116
f 105 116 117
f 105 117 118
f 105 118 119
f 105 119 106
f 109 120 110
f 110 120 122
f 110 122 121
f 112 123 113
f 113 123 124
f 113 124 114
f 114 124 125
f 114 125 115
f 115 126 127
f 115 127 116
f 115 125 128
f 115 128 126
f 116 127 129
f 116 129 130
f 116 130 117
f 121 122 132
f 121 132 131
f 123 133 134
f 123 134 124
f 123 135 133
f 124 134 136
f 124 136 125
f 125 136 128
f 126 128 137
f 128 138 139
f 128 139 140
f 128 140 137
f 128 136 138
f 131 132 141
f 132 142 141
f 133 136 134
f 133 135 143
f 133 143 144
f 133 144 136
f 135 145 146
f 135 146 143
f 136 144 138
f 138 147 148
f 138 148 149
f 138 149 150
f 138 150 151
f 138 151 152
f 138 152 139
f 138 144 153
f 138 153 147
f 141 142 154
f 142 155 156
f 142 156 154
f 143 153 144
f 143 146 157
f 143 157 158
f 143 158 148
f 143 148 147
f 143 147 153
f 145 159 146
f 146 159 160
f 146 160 158
f 146 158 157
f 148 158 161
f 148 161 149
f 149 161 162
f 149 162 163
f 149 163 164
f 149 164 165
f 149 165 150
f 155 166 156
f 156 166 168
f 156 168 167
f 158 160 169
f 158 169 170
f 158 170 171
f 158 171 162
f 158 162 161
f 159 172 160
f 160 173 169
f 160 172 173
f 162 171 163
f 163 171 174
f 166 175 168
f 167 168 176
f 168 177 176
f 168 175 178
f 168 178 179
f 168 179 180
f 168 180 181
f 168 181 177
f 169 173 182
f 169 182 183
f 169 183 184
f 169 184 170
f 170 184 171
f 171 184 185
f 171 185 174
f 174 185 186
f 178 187 179
f 179 188 189
f 179 189 190
f 179 190 191
f 179 191 192
f 179 192 180
f 179 187 193
f 179 193 188
f 183 194 184
f 184 194 195
f 184 195 196
f 184 196 185
f 185 196 197
f 185 197 186
f 186 197 198
f 188 199 189
f 189 199 200
f 189 200 201
f 189 201 202
f 189 202 190
f 195 203 196
f 196 203 204
f 196 204 205
f 196 205 197
f 197 205 206
f 197 206 198
f 198 206 207
f 199 208 200
f 200 209 210
f 200 210 211
f 200 211 212
f 200 212 213
f 200 213 214
f 200 214 201
f 200 208 209
f 204 215 205
f 205 215 216
f 205 216 217
f 205 217 206
f 206 217 218
f 206 218 219
f 206 219 211
f 206 211 220
f 206 220 207
f 210 221 211
f 211 221 222
f 211 222 220
f 211 219 223
f 211 223 212
f 212 223 213
f 213 223 224
f 213 224 214
f 214 224 223
f 214 223 225
f 216 226 218
f 216 218 217
f 218 226 223
f 218 223 219
f 223 226 225