# https://github.com/mikedh/trimesh
v 0.04558416 0.02911154 -0.00029542 1.34117648 0.41568628 0.25098040
v 0.02479196 0.02910416 -0.00029542 1.34117648 0.41568628 0.25098040
v 0.04558416 0.01895958 -0.00029542 1.34117648 0.41568628 0.25098040
v 0.04558416 0.03153260 -0.02770760 1.34117648 0.41568628 0.25098040
v 0.02390492 0.03153260 -0.02770760 1.34117648 0.41568628 0.25098040
v 0.02390492 0.02910292 -0.00029542 1.34117648 0.41568628 0.25098040
v 0.02390492 0.01895958 -0.00029542 1.34117648 0.41568628 0.25098040
v 0.04558416 0.01895958 -0.02911108 1.34117648 0.41568628 0.25098040
v 0.04558416 0.03138490 -0.02805312 1.34117648 0.41568628 0.25098040
v 0.02390492 0.03038546 -0.03038308 1.34117648 0.41568628 0.25098040
v 0.02390492 0.01895958 -0.02910192 1.34117648 0.41568628 0.25098040
v 0.02390492 0.02770716 -0.03152972 1.34117648 0.41568628 0.25098040
v 0.04558416 0.02733174 -0.03143188 1.34117648 0.41568628 0.25098040
v 0.04558416 0.03038546 -0.03038308 1.34117648 0.41568628 0.25098040
v 0.04558416 0.03004082 -0.03053292 1.34117648 0.41568628 0.25098040
v 0.03937494 0.02770716 -0.03153278 1.34117648 0.41568628 0.25098040
v 0.02390492 0.02852196 -0.03118114 1.34117648 0.41568628 0.25098040
v 0.04229068 0.02770716 -0.03153278 1.34117648 0.41568628 0.25098040
v 0.04558416 0.02770716 -0.03152972 1.34117648 0.41568628 0.25098040
f 1 2 6
f 1 6 7
f 1 7 3
f 1 3 8
f 1 8 13
f 1 13 19
f 1 19 15
f 1 15 14
f 1 14 9
f 1 9 4
f 1 4 5
f 1 5 2
f 2 5 6
f 3 7 11
f 3 11 8
f 4 9 5
f 5 9 10
f 5 10 17
f 5 17 12
f 5 12 11
f 5 11 7
f 5 7 6
f 8 11 12
f 8 12 13
f 9 14 10
f 10 14 15
f 10 15 16
f 10 16 17
f 12 17 16
f 12 16 13
f 13 16 18
f 13 18 19
f 15 19 18
f 15 18 16