# https://github.com/mikedh/trimesh
v 0.04558416 -0.03152926 -0.02770590 0.17254902 0.03921568 1.66274510
v 0.05220844 -0.03129414 -0.00029542 0.17254902 0.03921568 1.66274510
v 0.05104546 -0.03108996 -0.00029542 0.17254902 0.03921568 1.66274510
v 0.04558416 -0.02911006 -0.00029542 0.17254902 0.03921568 1.66274510
v 0.04558416 -0.03038462 -0.03038442 0.17254902 0.03921568 1.66274510
v 0.05395930 -0.03160350 -0.02770590 0.17254902 0.03921568 1.66274510
v 0.05395930 -0.03159732 -0.00029542 0.17254902 0.03921568 1.66274510
v 0.04558416 0.02911172 -0.00029542 0.17254902 0.03921568 1.66274510
v 0.08312314 -0.03038462 -0.03038442 0.17254902 0.03921568 1.66274510
v 0.04558416 -0.02805204 -0.03138350 0.17254902 0.03921568 1.66274510
v 0.05395930 -0.02770554 -0.03160110 0.17254902 0.03921568 1.66274510
v 0.08312314 -0.03159732 -0.02770590 0.17254902 0.03921568 1.66274510
v 0.08312314 -0.03159732 -0.00029542 0.17254902 0.03921568 1.66274510
v 0.05104546 0.03109162 -0.00029542 0.17254902 0.03921568 1.66274510
v 0.04558416 0.03153092 -0.02770590 0.17254902 0.03921568 1.66274510
v 0.08312314 -0.02770554 -0.03160110 0.17254902 0.03921568 1.66274510
v 0.08604124 -0.03033512 -0.03033540 0.17254902 0.03921568 1.66274510
v 0.04558416 -0.02770554 -0.03153062 0.17254902 0.03921568 1.66274510
v 0.05395930 -0.02479136 -0.03160416 0.17254902 0.03921568 1.66274510
v 0.08604124 -0.03150450 -0.02770590 0.17254902 0.03921568 1.66274510
v 0.08604124 -0.03150450 -0.00029542 0.17254902 0.03921568 1.66274510
v 0.05279632 0.03140098 -0.00029542 0.17254902 0.03921568 1.66274510
v 0.04558416 0.03138242 -0.02805220 0.17254902 0.03921568 1.66274510
v 0.05395930 0.03160516 -0.00029542 0.17254902 0.03921568 1.66274510
v 0.05395930 0.03160516 -0.02479138 0.17254902 0.03921568 1.66274510
v 0.05395930 0.03159898 -0.02770590 0.17254902 0.03921568 1.66274510
v 0.08604124 -0.02770554 -0.03150610 0.17254902 0.03921568 1.66274510
v 0.08312314 -0.02479136 -0.03160416 0.17254902 0.03921568 1.66274510
v 0.08803066 -0.02991438 -0.02991246 0.17254902 0.03921568 1.66274510
v 0.04558416 0.02770722 -0.03153062 0.17254902 0.03921568 1.66274510
v 0.05395930 0.02770722 -0.03160416 0.17254902 0.03921568 1.66274510
v 0.08829904 -0.03028562 -0.02770590 0.17254902 0.03921568 1.66274510
v 0.08829904 -0.03028562 -0.00029542 0.17254902 0.03921568 1.66274510
v 0.04558416 0.03038010 -0.03038442 0.17254902 0.03921568 1.66274510
v 0.08312314 0.03160516 -0.00029542 0.17254902 0.03921568 1.66274510
v 0.08312314 0.03160516 -0.02479138 0.17254902 0.03921568 1.66274510
v 0.08312314 0.03159898 -0.02770590 0.17254902 0.03921568 1.66274510
v 0.08829904 -0.02770554 -0.03028942 0.17254902 0.03921568 1.66274510
v 0.08604124 0.02770722 -0.03150610 0.17254902 0.03921568 1.66274510
v 0.08312314 0.02770722 -0.03160416 0.17254902 0.03921568 1.66274510
v 0.08909990 -0.02770554 -0.02770590 0.17254902 0.03921568 1.66274510
v 0.04558416 0.03003980 -0.03053152 0.17254902 0.03921568 1.66274510
v 0.08909990 -0.02770554 -0.00029542 0.17254902 0.03921568 1.66274510
v 0.08312314 0.03038010 -0.03038442 0.17254902 0.03921568 1.66274510
v 0.08604124 0.03150618 -0.00029542 0.17254902 0.03921568 1.66274510
v 0.08604124 0.03150618 -0.02770590 0.17254902 0.03921568 1.66274510
v 0.08604124 0.03033678 -0.03033540 0.17254902 0.03921568 1.66274510
v 0.08829904 0.02770722 -0.03028942 0.17254902 0.03921568 1.66274510
v 0.08803066 0.02990986 -0.02991246 0.17254902 0.03921568 1.66274510
v 0.08909990 0.02770722 -0.02770590 0.17254902 0.03921568 1.66274510
v 0.08909990 0.02770722 -0.00029542 0.17254902 0.03921568 1.66274510
v 0.08740018 0.03077608 -0.00029542 0.17254902 0.03921568 1.66274510
v 0.08829904 0.03028728 -0.02770590 0.17254902 0.03921568 1.66274510
v 0.08861852 0.02926020 -0.00029542 0.17254902 0.03921568 1.66274510
v 0.08829904 0.03028728 -0.00029542 0.17254902 0.03921568 1.66274510
f 1 2 3
f 1 3 4
f 1 4 8
f 1 8 15
f 1 15 23
f 1 23 34
f 1 34 42
f 1 42 30
f 1 30 18
f 1 18 10
f 1 10 5
f 1 5 6
f 1 6 7
f 1 7 2
f 2 7 13
f 2 13 21
f 2 21 33
f 2 33 43
f 2 43 51
f 2 51 54
f 2 54 55
f 2 55 52
f 2 52 45
f 2 45 35
f 2 35 24
f 2 24 22
f 2 22 14
f 2 14 8
f 2 8 4
f 2 4 3
f 5 9 6
f 5 10 11
f 5 11 16
f 5 16 9
f 6 12 13
f 6 13 7
f 6 9 12
f 8 14 15
f 9 16 17
f 9 17 12
f 10 18 11
f 11 18 19
f 11 19 28
f 11 28 16
f 12 17 20
f 12 20 21
f 12 21 13
f 14 22 15
f 15 22 24
f 15 24 25
f 15 25 26
f 15 26 23
f 16 27 17
f 16 28 27
f 17 29 20
f 17 27 29
f 18 30 31
f 18 31 19
f 19 31 40
f 19 40 28
f 20 29 32
f 20 32 33
f 20 33 21
f 23 26 34
f 24 35 36
f 24 36 25
f 25 36 37
f 25 37 26
f 26 37 44
f 26 44 34
f 27 38 29
f 27 28 40
f 27 40 39
f 27 39 48
f 27 48 38
f 29 38 41
f 29 41 32
f 30 42 31
f 31 42 34
f 31 34 44
f 31 44 40
f 32 41 43
f 32 43 33
f 35 45 46
f 35 46 36
f 36 46 37
f 37 46 47
f 37 47 44
f 38 48 50
f 38 50 41
f 39 40 47
f 39 47 49
f 39 49 48
f 40 44 47
f 41 50 51
f 41 51 43
f 45 52 46
f 46 52 53
f 46 53 49
f 46 49 47
f 48 49 50
f 49 53 50
f 50 53 54
f 50 54 51
f 52 55 53
f 53 55 54