# https://github.com/mikedh/trimesh
v 0.00377046 0.02911148 -0.00029542 1.38823530 0.11764706 1.33333334
v 0.02390492 0.02910140 -0.00029542 1.38823530 0.11764706 1.33333334
v 0.00285778 0.02913168 -0.00029848 1.38823530 0.11764706 1.33333334
v 0.00285778 0.02890958 -0.00029542 1.38823530 0.11764706 1.33333334
v 0.02390492 0.03152944 -0.02770658 1.38823530 0.11764706 1.33333334
v 0.02390492 -0.02002998 -0.00029542 1.38823530 0.11764706 1.33333334
v 0.00285778 0.03153954 -0.02770658 1.38823530 0.11764706 1.33333334
v 0.00285778 -0.02002998 -0.00029542 1.38823530 0.11764706 1.33333334
v 0.02390492 0.03038356 -0.03038256 1.38823530 0.11764706 1.33333334
v 0.02390492 -0.02002998 -0.02912256 1.38823530 0.11764706 1.33333334
v 0.00285778 0.03038356 -0.03038256 1.38823530 0.11764706 1.33333334
v 0.00285778 -0.02002998 -0.02914702 1.38823530 0.11764706 1.33333334
v 0.02390492 0.02852088 -0.03118382 1.38823530 0.11764706 1.33333334
v 0.00285778 0.02770816 -0.03153858 1.38823530 0.11764706 1.33333334
v 0.02390492 0.02770816 -0.03153246 1.38823530 0.11764706 1.33333334
f 1 2 3
f 1 3 4
f 1 4 8
f 1 8 6
f 1 6 2
f 2 5 3
f 2 6 10
f 2 10 15
f 2 15 13
f 2 13 9
f 2 9 5
f 3 5 7
f 3 7 11
f 3 11 14
f 3 14 12
f 3 12 8
f 3 8 4
f 5 9 7
f 6 8 12
f 6 12 10
f 7 9 11
f 9 13 14
f 9 14 11
f 10 12 15
f 12 14 15
f 13 15 14