# https://github.com/mikedh/trimesh
v 0.04228998 0.02770696 0.03153278 1.35686274 0.71372550 0.87058824
v 0.04582092 0.02770696 0.03152966 1.35686274 0.71372550 0.87058824
v 0.04582092 0.02826898 0.03128976 1.35686274 0.71372550 0.87058824
v 0.04582092 0.03038424 0.03038314 1.35686274 0.71372550 0.87058824
v 0.03937322 0.02770696 0.03153278 1.35686274 0.71372550 0.87058824
v 0.04582092 -0.02066290 0.02914006 1.35686274 0.71372550 0.87058824
v 0.04582092 0.03153382 0.02770692 1.35686274 0.71372550 0.87058824
v 0.02426172 0.03132434 0.02819606 1.35686274 0.71372550 0.87058824
v 0.02426172 0.03038424 0.03038314 1.35686274 0.71372550 0.87058824
v 0.02426172 0.02770696 0.03152966 1.35686274 0.71372550 0.87058824
v 0.02426172 -0.02066290 0.02913382 1.35686274 0.71372550 0.87058824
v 0.04582092 -0.02066290 -0.00029230 1.35686274 0.71372550 0.87058824
v 0.02426172 0.03152872 0.02770692 1.35686274 0.71372550 0.87058824
v 0.04582092 0.02911712 -0.00029230 1.35686274 0.71372550 0.87058824
v 0.02426172 -0.02066290 -0.00029230 1.35686274 0.71372550 0.87058824
v 0.02426172 0.02910180 -0.00029230 1.35686274 0.71372550 0.87058824
f 1 2 3
f 1 3 4
f 1 4 9
f 1 9 5
f 1 5 6
f 1 6 2
f 2 6 12
f 2 12 14
f 2 14 7
f 2 7 4
f 2 4 3
f 4 7 8
f 4 8 9
f 5 9 10
f 5 10 6
f 6 11 15
f 6 15 12
f 6 10 11
f 7 13 8
f 7 14 13
f 8 13 16
f 8 16 15
f 8 15 11
f 8 11 10
f 8 10 9
f 12 15 16
f 12 16 14
f 13 14 16