# https://github.com/mikedh/trimesh
v -0.06594978 0.00437168 0.02334640 1.09019608 1.42745098 1.20000000
v -0.06594978 0.00729124 0.02298244 1.09019608 1.42745098 1.20000000
v -0.08603988 0.00145712 0.02148832 1.09019608 1.42745098 1.20000000
v -0.08603988 -0.00145742 0.02148352 1.09019608 1.42745098 1.20000000
v -0.06594978 0.00145712 0.02333202 1.09019608 1.42745098 1.20000000
v -0.06594978 0.00769188 0.02287230 1.09019608 1.42745098 1.20000000
v -0.08767628 0.00618452 0.02053534 1.09019608 1.42745098 1.20000000
v -0.08603988 0.00437168 0.02108606 1.09019608 1.42745098 1.20000000
v -0.08793012 0.00437168 0.02075084 1.09019608 1.42745098 1.20000000
v -0.08813864 0.00145712 0.02095196 1.09019608 1.42745098 1.20000000
v -0.08813638 -0.00145742 0.02094718 1.09019608 1.42745098 1.20000000
v -0.08793466 -0.00437198 0.02075084 1.09019608 1.42745098 1.20000000
v -0.08603988 -0.00437198 0.02108606 1.09019608 1.42745098 1.20000000
v -0.06594978 -0.00145742 0.02303032 1.09019608 1.42745098 1.20000000
v -0.06594978 0.00984024 0.02222102 1.09019608 1.42745098 1.20000000
v -0.06594978 0.01024086 0.02207256 1.09019608 1.42745098 1.20000000
v -0.06594978 0.01269970 0.02097112 1.09019608 1.42745098 1.20000000
v -0.08603988 0.00781708 0.02004208 1.09019608 1.42745098 1.20000000
v -0.08603988 0.01020580 0.01891190 1.09019608 1.42745098 1.20000000
v -0.08776468 0.01197858 0.01771948 1.09019608 1.42745098 1.20000000
v -0.08809784 0.01020580 0.01818880 1.09019608 1.42745098 1.20000000
v -0.08824744 0.00721112 0.01908430 1.09019608 1.42745098 1.20000000
v -0.08873246 0.00437168 0.01895500 1.09019608 1.42745098 1.20000000
v -0.08894098 0.00145712 0.01895500 1.09019608 1.42745098 1.20000000
v -0.08893872 -0.00145742 0.01895500 1.09019608 1.42745098 1.20000000
v -0.08873700 -0.00437198 0.01895500 1.09019608 1.42745098 1.20000000
v -0.08824970 -0.00721142 0.01908430 1.09019608 1.42745098 1.20000000
v -0.08768082 -0.00618482 0.02054012 1.09019608 1.42745098 1.20000000
v -0.06594978 -0.00437198 0.02244608 1.09019608 1.42745098 1.20000000
v -0.06594978 0.01323554 0.02072210 1.09019608 1.42745098 1.20000000
v -0.08822024 0.01302020 0.01600986 1.09019608 1.42745098 1.20000000
v -0.06594978 0.01416200 0.02022884 1.09019608 1.42745098 1.20000000
v -0.06594978 0.01632036 0.01880656 1.09019608 1.42745098 1.20000000
v -0.06594978 0.01771754 0.01772428 1.09019608 1.42745098 1.20000000
v -0.08790066 0.01501832 0.01501858 1.09019608 1.42745098 1.20000000
v -0.08890018 0.01020580 0.01603860 1.09019608 1.42745098 1.20000000
v -0.08910416 0.00729124 0.01603860 1.09019608 1.42745098 1.20000000
v -0.08910416 -0.00729156 0.01603860 1.09019608 1.42745098 1.20000000
v -0.08889792 -0.01020610 0.01603860 1.09019608 1.42745098 1.20000000
v -0.08809558 -0.01020610 0.01818400 1.09019608 1.42745098 1.20000000
v -0.08776014 -0.01196886 0.01771470 1.09019608 1.42745098 1.20000000
v -0.08603988 -0.01020610 0.01890234 1.09019608 1.42745098 1.20000000
v -0.08603988 -0.00781738 0.02003730 1.09019608 1.42745098 1.20000000
v -0.08603988 -0.00636010 0.02060238 1.09019608 1.42745098 1.20000000
v -0.06594978 -0.00707622 0.02166072 1.09019608 1.42745098 1.20000000
v -0.08900218 0.01312036 0.01312218 1.09019608 1.42745098 1.20000000
v -0.08822024 0.01600988 0.01301684 1.09019608 1.42745098 1.20000000
v -0.06594978 0.01911974 0.01632114 1.09019608 1.42745098 1.20000000
v -0.06594978 0.02056200 0.01478392 1.09019608 1.42745098 1.20000000
v -0.08776694 0.01771754 0.01197766 1.09019608 1.42745098 1.20000000
v -0.08910416 0.01603992 0.00728936 1.09019608 1.42745098 1.20000000
v -0.08910416 -0.01604022 0.00728936 1.09019608 1.42745098 1.20000000
v -0.08899990 -0.01312066 0.01312218 1.09019608 1.42745098 1.20000000
v -0.08821570 -0.01301550 0.01600508 1.09019608 1.42745098 1.20000000
v -0.08789614 -0.01501362 0.01501378 1.09019608 1.42745098 1.20000000
v -0.08603988 -0.01358138 0.01668988 1.09019608 1.42745098 1.20000000
v -0.08603988 -0.01212410 0.01782006 1.09019608 1.42745098 1.20000000
v -0.06594978 -0.00727652 0.02157930 1.09019608 1.42745098 1.20000000
v -0.08890244 0.01603992 0.01020578 1.09019608 1.42745098 1.20000000
v -0.08810012 0.01818828 0.01020578 1.09019608 1.42745098 1.20000000
v -0.06594978 0.02143836 0.01347178 1.09019608 1.42745098 1.20000000
v -0.06594978 0.02271036 0.01134552 1.09019608 1.42745098 1.20000000
v -0.06594978 0.02367186 0.00954970 1.09019608 1.42745098 1.20000000
v -0.08768082 0.02053696 0.00618792 1.09019608 1.42745098 1.20000000
v -0.08894098 0.01895448 0.00145654 1.09019608 1.42745098 1.20000000
v -0.08910416 0.01603992 -0.00728790 1.09019608 1.42745098 1.20000000
v -0.08910416 -0.01604022 -0.00728790 1.09019608 1.42745098 1.20000000
v -0.08894098 -0.01895478 0.00145654 1.09019608 1.42745098 1.20000000
v -0.08873700 -0.01895478 0.00437294 1.09019608 1.42745098 1.20000000
v -0.08889792 -0.01604022 0.01020578 1.09019608 1.42745098 1.20000000
v -0.08821570 -0.01600518 0.01301684 1.09019608 1.42745098 1.20000000
v -0.08776014 -0.01771284 0.01197286 1.09019608 1.42745098 1.20000000
v -0.08603988 -0.01668624 0.01358192 1.09019608 1.42745098 1.20000000
v -0.08603988 -0.01522896 0.01522928 1.09019608 1.42745098 1.20000000
v -0.06594978 -0.01297544 0.01822710 1.09019608 1.42745098 1.20000000
v -0.06594978 -0.01265494 0.01847612 1.09019608 1.42745098 1.20000000
v -0.08824970 0.01908468 0.00721274 1.09019608 1.42745098 1.20000000
v -0.08873472 0.01895448 0.00437294 1.09019608 1.42745098 1.20000000
v -0.06594978 0.02435292 0.00763894 1.09019608 1.42745098 1.20000000
v -0.06594978 0.02444808 0.00728936 1.09019608 1.42745098 1.20000000
v -0.06594978 0.02507906 0.00481832 1.09019608 1.42745098 1.20000000
v -0.06594978 0.02516920 0.00434900 1.09019608 1.42745098 1.20000000
v -0.08793466 0.02074728 0.00437294 1.09019608 1.42745098 1.20000000
v -0.08894098 0.01895448 -0.00145508 1.09019608 1.42745098 1.20000000
v -0.08813864 0.02095260 0.00145654 1.09019608 1.42745098 1.20000000
v -0.08890244 0.01603992 -0.01020432 1.09019608 1.42745098 1.20000000
v -0.08900218 0.01312036 -0.01312074 1.09019608 1.42745098 1.20000000
v -0.08910416 0.00729124 -0.01603714 1.09019608 1.42745098 1.20000000
v -0.08889792 -0.01604022 -0.01020432 1.09019608 1.42745098 1.20000000
v -0.08873700 -0.01895478 -0.00437150 1.09019608 1.42745098 1.20000000
v -0.08894098 -0.01895478 -0.00145508 1.09019608 1.42745098 1.20000000
v -0.08910416 -0.00729156 -0.01603714 1.09019608 1.42745098 1.20000000
v -0.08899990 -0.01312066 -0.01312074 1.09019608 1.42745098 1.20000000
v -0.08814092 -0.02095290 0.00145654 1.09019608 1.42745098 1.20000000
v -0.08793466 -0.02075260 0.00437294 1.09019608 1.42745098 1.20000000
v -0.08824744 -0.01908498 0.00720796 1.09019608 1.42745098 1.20000000
v -0.08809558 -0.01818358 0.01020578 1.09019608 1.42745098 1.20000000
v -0.08767628 -0.02053726 0.00617834 1.09019608 1.42745098 1.20000000
v -0.08603988 -0.01889970 0.01020578 1.09019608 1.42745098 1.20000000
v -0.08603988 -0.01782302 0.01212132 1.09019608 1.42745098 1.20000000
v -0.06594978 -0.01561958 0.01559802 1.09019608 1.42745098 1.20000000
v -0.06594978 -0.01536918 0.01587578 1.09019608 1.42745098 1.20000000
v -0.06594978 0.02555980 0.00145654 1.09019608 1.42745098 1.20000000
v -0.08603988 0.02149346 0.00145654 1.09019608 1.42745098 1.20000000
v -0.08873472 0.01895448 -0.00437150 1.09019608 1.42745098 1.20000000
v -0.08813864 0.02095260 -0.00145508 1.09019608 1.42745098 1.20000000
v -0.08824970 0.01908468 -0.00721128 1.09019608 1.42745098 1.20000000
v -0.08810012 0.01818828 -0.01020432 1.09019608 1.42745098 1.20000000
v -0.08822024 0.01600988 -0.01302016 1.09019608 1.42745098 1.20000000
v -0.08822024 0.01302020 -0.01601320 1.09019608 1.42745098 1.20000000
v -0.08890018 0.01020580 -0.01603714 1.09019608 1.42745098 1.20000000
v -0.08894098 0.00145712 -0.01895356 1.09019608 1.42745098 1.20000000
v -0.08821570 -0.01600518 -0.01301538 1.09019608 1.42745098 1.20000000
v -0.08809558 -0.01818358 -0.01020432 1.09019608 1.42745098 1.20000000
v -0.08824744 -0.01908498 -0.00720650 1.09019608 1.42745098 1.20000000
v -0.08793466 -0.02075260 -0.00437150 1.09019608 1.42745098 1.20000000
v -0.08814092 -0.02095290 -0.00145508 1.09019608 1.42745098 1.20000000
v -0.08893872 -0.00145742 -0.01895356 1.09019608 1.42745098 1.20000000
v -0.08873700 -0.00437198 -0.01895356 1.09019608 1.42745098 1.20000000
v -0.08889792 -0.01020610 -0.01603714 1.09019608 1.42745098 1.20000000
v -0.08821570 -0.01301550 -0.01600842 1.09019608 1.42745098 1.20000000
v -0.07729352 -0.02499924 -0.00145508 1.09019608 1.42745098 1.20000000
v -0.07437656 -0.02558014 -0.00145508 1.09019608 1.42745098 1.20000000
v -0.08603988 -0.02003648 0.00781134 1.09019608 1.42745098 1.20000000
v -0.07437656 -0.02445338 0.00083398 1.09019608 1.42745098 1.20000000
v -0.06594978 -0.01807842 0.01216920 1.09019608 1.42745098 1.20000000
v -0.06594978 -0.01795322 0.01238470 1.09019608 1.42745098 1.20000000
v -0.06594978 -0.01706182 0.01367770 1.09019608 1.42745098 1.20000000
v -0.06594978 0.02557984 -0.00145508 1.09019608 1.42745098 1.20000000
v -0.08603988 0.02149346 -0.00145508 1.09019608 1.42745098 1.20000000
v -0.08793466 0.02074728 -0.00437150 1.09019608 1.42745098 1.20000000
v -0.08768082 0.02053696 -0.00618648 1.09019608 1.42745098 1.20000000
v -0.08776694 0.01771754 -0.01197620 1.09019608 1.42745098 1.20000000
v -0.08790066 0.01501832 -0.01502190 1.09019608 1.42745098 1.20000000
v -0.08776468 0.01197858 -0.01771804 1.09019608 1.42745098 1.20000000
v -0.08809784 0.01020580 -0.01819214 1.09019608 1.42745098 1.20000000
v -0.08824744 0.00721112 -0.01908764 1.09019608 1.42745098 1.20000000
v -0.08873246 0.00437168 -0.01895356 1.09019608 1.42745098 1.20000000
v -0.08813864 0.00145712 -0.02095052 1.09019608 1.42745098 1.20000000
v -0.08789614 -0.01501362 -0.01501234 1.09019608 1.42745098 1.20000000
v -0.08776014 -0.01771284 -0.01197140 1.09019608 1.42745098 1.20000000
v -0.08767628 -0.02053726 -0.00617690 1.09019608 1.42745098 1.20000000
v -0.08813638 -0.00145742 -0.02095052 1.09019608 1.42745098 1.20000000
v -0.08793466 -0.00437198 -0.02074938 1.09019608 1.42745098 1.20000000
v -0.08824970 -0.00721142 -0.01908286 1.09019608 1.42745098 1.20000000
v -0.08809558 -0.01020610 -0.01818256 1.09019608 1.42745098 1.20000000
v -0.08776014 -0.01196886 -0.01771324 1.09019608 1.42745098 1.20000000
v -0.07755644 -0.02428812 -0.00459658 1.09019608 1.42745098 1.20000000
v -0.07437656 -0.02532976 -0.00437150 1.09019608 1.42745098 1.20000000
v -0.07145960 -0.02438828 -0.00437150 1.09019608 1.42745098 1.20000000
v -0.07117856 -0.02422302 -0.00127790 1.09019608 1.42745098 1.20000000
v -0.06594978 -0.02122834 0.00404730 1.09019608 1.42745098 1.20000000
v -0.06594978 -0.02062240 0.00638426 1.09019608 1.42745098 1.20000000
v -0.06594978 -0.02006152 0.00784008 1.09019608 1.42745098 1.20000000
v -0.06594978 -0.01918514 0.00993760 1.09019608 1.42745098 1.20000000
v -0.06594978 -0.01905996 0.01020578 1.09019608 1.42745098 1.20000000
v -0.06594978 0.02523430 -0.00437150 1.09019608 1.42745098 1.20000000
v -0.06854262 0.02474354 -0.00437150 1.09019608 1.42745098 1.20000000
v -0.06854262 0.02423274 -0.00728790 1.09019608 1.42745098 1.20000000
v -0.06854262 0.02360676 -0.00942374 1.09019608 1.42745098 1.20000000
v -0.06854262 0.02302584 -0.01087956 1.09019608 1.42745098 1.20000000
v -0.06854262 0.01962052 -0.01650166 1.09019608 1.42745098 1.20000000
v -0.07046234 0.01786278 -0.01789044 1.09019608 1.42745098 1.20000000
v -0.06854262 0.02190910 -0.01312074 1.09019608 1.42745098 1.20000000
v -0.06854262 0.02075730 -0.01504106 1.09019608 1.42745098 1.20000000
v -0.07042154 0.01491818 -0.02067754 1.09019608 1.42745098 1.20000000
v -0.07082724 0.00953476 -0.02368016 1.09019608 1.42745098 1.20000000
v -0.08767628 0.00618452 -0.02053388 1.09019608 1.42745098 1.20000000
v -0.08793012 0.00437168 -0.02074938 1.09019608 1.42745098 1.20000000
v -0.07145960 0.00145712 -0.02550470 1.09019608 1.42745098 1.20000000
v -0.07145960 -0.00145742 -0.02556696 1.09019608 1.42745098 1.20000000
v -0.07437656 -0.01801332 -0.01799578 1.09019608 1.42745098 1.20000000
v -0.07437656 -0.01947060 -0.01647772 1.09019608 1.42745098 1.20000000
v -0.07594270 -0.02050220 -0.01469148 1.09019608 1.42745098 1.20000000
v -0.07625320 -0.02358702 -0.00929444 1.09019608 1.42745098 1.20000000
v -0.07684476 -0.02395760 -0.00728790 1.09019608 1.42745098 1.20000000
v -0.07145960 -0.00437198 -0.02527964 1.09019608 1.42745098 1.20000000
v -0.08768082 -0.00618482 -0.02053866 1.09019608 1.42745098 1.20000000
v -0.07343824 -0.00948498 -0.02361790 1.09019608 1.42745098 1.20000000
v -0.07361728 -0.01502364 -0.02073502 1.09019608 1.42745098 1.20000000
v -0.07437656 -0.02464868 -0.00728790 1.09019608 1.42745098 1.20000000
v -0.07220074 -0.02366716 -0.00956262 1.09019608 1.42745098 1.20000000
v -0.07132134 -0.02390752 -0.00712030 1.09019608 1.42745098 1.20000000
v -0.06995918 -0.02336668 -0.00603324 1.09019608 1.42745098 1.20000000
v -0.06594978 -0.02162896 -0.00179030 1.09019608 1.42745098 1.20000000
v -0.06594978 -0.02165400 -0.00143594 1.09019608 1.42745098 1.20000000
v -0.06594978 -0.02164400 0.00117400 1.09019608 1.42745098 1.20000000
v -0.06594978 0.02452820 -0.00728790 1.09019608 1.42745098 1.20000000
v -0.06594978 0.02370190 -0.00962488 1.09019608 1.42745098 1.20000000
v -0.06594978 0.02303086 -0.01108548 1.09019608 1.42745098 1.20000000
v -0.06622628 0.02075730 -0.01503148 1.09019608 1.42745098 1.20000000
v -0.06854262 0.01816324 -0.01817776 1.09019608 1.42745098 1.20000000
v -0.06854262 0.01312036 -0.02208068 1.09019608 1.42745098 1.20000000
v -0.06854262 0.01658078 -0.01963358 1.09019608 1.42745098 1.20000000
v -0.06854262 0.01512350 -0.02081642 1.09019608 1.42745098 1.20000000
v -0.06854262 0.01122240 -0.02313422 1.09019608 1.42745098 1.20000000
v -0.06854262 0.00976512 -0.02375678 1.09019608 1.42745098 1.20000000
v -0.06854262 0.00729124 -0.02457568 1.09019608 1.42745098 1.20000000
v -0.07145960 0.00437168 -0.02505456 1.09019608 1.42745098 1.20000000
v -0.07166358 0.00746652 -0.02410158 1.09019608 1.42745098 1.20000000
v -0.06854262 0.00437168 -0.02518386 1.09019608 1.42745098 1.20000000
v -0.06854262 0.00145712 -0.02541852 1.09019608 1.42745098 1.20000000
v -0.06854262 -0.00145742 -0.02527484 1.09019608 1.42745098 1.20000000
v -0.07145960 -0.01809344 -0.01810114 1.09019608 1.42745098 1.20000000
v -0.07145960 -0.01654602 -0.01955696 1.09019608 1.42745098 1.20000000
v -0.07198088 -0.02075760 -0.01505064 1.09019608 1.42745098 1.20000000
v -0.07437656 -0.02073758 -0.01501712 1.09019608 1.42745098 1.20000000
v -0.07437656 -0.02197450 -0.01312074 1.09019608 1.42745098 1.20000000
v -0.07437656 -0.02310628 -0.01122914 1.09019608 1.42745098 1.20000000
v -0.07437656 -0.02377232 -0.00977332 1.09019608 1.42745098 1.20000000
v -0.06854262 -0.00437198 -0.02477680 1.09019608 1.42745098 1.20000000
v -0.07145960 -0.00729156 -0.02463314 1.09019608 1.42745098 1.20000000
v -0.07145960 -0.00980048 -0.02377594 1.09019608 1.42745098 1.20000000
v -0.07145960 -0.01125776 -0.02313902 1.09019608 1.42745098 1.20000000
v -0.07145960 -0.01508874 -0.02079248 1.09019608 1.42745098 1.20000000
v -0.07145960 -0.01312066 -0.02206152 1.09019608 1.42745098 1.20000000
v -0.07118988 -0.02144368 -0.01339848 1.09019608 1.42745098 1.20000000
v -0.07003624 -0.02039704 -0.01455260 1.09019608 1.42745098 1.20000000
v -0.07132134 -0.02288092 -0.01040546 1.09019608 1.42745098 1.20000000
v -0.07025610 -0.02315636 -0.00797750 1.09019608 1.42745098 1.20000000
v -0.06594978 -0.02122834 -0.00466362 1.09019608 1.42745098 1.20000000
v -0.06594978 -0.02127842 -0.00437150 1.09019608 1.42745098 1.20000000
v -0.06594978 0.02102272 -0.01447598 1.09019608 1.42745098 1.20000000
v -0.06594978 0.02069720 -0.01495966 1.09019608 1.42745098 1.20000000
v -0.06621042 0.01801802 -0.01800536 1.09019608 1.42745098 1.20000000
v -0.06660932 0.01496826 -0.02068712 1.09019608 1.42745098 1.20000000
v -0.06673852 0.00931442 -0.02355086 1.09019608 1.42745098 1.20000000
v -0.06638948 0.00729124 -0.02382862 1.09019608 1.42745098 1.20000000
v -0.06618096 0.00437168 -0.02407764 1.09019608 1.42745098 1.20000000
v -0.06619908 0.00145712 -0.02414468 1.09019608 1.42745098 1.20000000
v -0.06637134 -0.00145742 -0.02402016 1.09019608 1.42745098 1.20000000
v -0.06668864 -0.00437198 -0.02371368 1.09019608 1.42745098 1.20000000
v -0.06974614 -0.01481332 -0.02060092 1.09019608 1.42745098 1.20000000
v -0.06973706 -0.01774290 -0.01776114 1.09019608 1.42745098 1.20000000
v -0.07118988 -0.01971598 -0.01603236 1.09019608 1.42745098 1.20000000
v -0.06695156 -0.00615478 -0.02345508 1.09019608 1.42745098 1.20000000
v -0.06849050 -0.00719140 -0.02395792 1.09019608 1.42745098 1.20000000
v -0.06942882 -0.00941488 -0.02363706 1.09019608 1.42745098 1.20000000
v -0.06956254 -0.02087780 -0.01260832 1.09019608 1.42745098 1.20000000
v -0.06594978 -0.01693162 -0.01421260 1.09019608 1.42745098 1.20000000
v -0.06594978 -0.01811348 -0.01254128 1.09019608 1.42745098 1.20000000
v -0.06594978 -0.01909000 -0.01058744 1.09019608 1.42745098 1.20000000
v -0.06594978 -0.02076262 -0.00646422 1.09019608 1.42745098 1.20000000
v -0.06594978 0.01833352 -0.01752648 1.09019608 1.42745098 1.20000000
v -0.06594978 0.01793288 -0.01792874 1.09019608 1.42745098 1.20000000
v -0.06594978 0.01456762 -0.02046204 1.09019608 1.42745098 1.20000000
v -0.06594978 0.01360112 -0.02096966 1.09019608 1.42745098 1.20000000
v -0.06594978 0.01564932 -0.01974372 1.09019608 1.42745098 1.20000000
v -0.06594978 0.01003554 -0.02266492 1.09019608 1.42745098 1.20000000
v -0.06594978 0.00843304 -0.02318212 1.09019608 1.42745098 1.20000000
v -0.06594978 0.00729124 -0.02349340 1.09019608 1.42745098 1.20000000
v -0.06594978 0.00437168 -0.02388608 1.09019608 1.42745098 1.20000000
v -0.06594978 0.00145712 -0.02391960 1.09019608 1.42745098 1.20000000
v -0.06594978 -0.00145742 -0.02363226 1.09019608 1.42745098 1.20000000
v -0.06594978 -0.00437198 -0.02303846 1.09019608 1.42745098 1.20000000
v -0.06594978 -0.01541926 -0.01612334 1.09019608 1.42745098 1.20000000
v -0.06849050 -0.01031628 -0.02248294 1.09019608 1.42745098 1.20000000
v -0.06868088 -0.01285024 -0.02102714 1.09019608 1.42745098 1.20000000
v -0.06706262 -0.01169344 -0.02043810 1.09019608 1.42745098 1.20000000
v -0.06594978 -0.01282520 -0.01861834 1.09019608 1.42745098 1.20000000
v -0.06594978 -0.00699108 -0.02212856 1.09019608 1.42745098 1.20000000
v -0.06594978 -0.00730658 -0.02198012 1.09019608 1.42745098 1.20000000
v -0.06748418 -0.00810282 -0.02302408 1.09019608 1.42745098 1.20000000
v -0.06594978 -0.01020610 -0.02039500 1.09019608 1.42745098 1.20000000
v -0.06594978 -0.01279014 -0.01864228 1.09019608 1.42745098 1.20000000
f 1 2 3
f 1 3 4
f 1 4 5
f 1 5 14
f 1 14 29
f 1 29 45
f 1 45 58
f 1 58 76
f 1 76 75
f 1 75 102
f 1 102 101
f 1 101 128
f 1 128 127
f 1 127 126
f 1 126 156
f 1 156 155
f 1 155 154
f 1 154 153
f 1 153 152
f 1 152 187
f 1 187 186
f 1 186 185
f 1 185 222
f 1 222 221
f 1 221 243
f 1 243 242
f 1 242 241
f 1 241 240
f 1 240 256
f 1 256 260
f 1 260 265
f 1 265 264
f 1 264 262
f 1 262 261
f 1 261 255
f 1 255 254
f 1 254 253
f 1 253 252
f 1 252 251
f 1 251 250
f 1 250 249
f 1 249 247
f 1 247 246
f 1 246 248
f 1 248 245
f 1 245 244
f 1 244 224
f 1 224 223
f 1 223 190
f 1 190 189
f 1 189 188
f 1 188 157
f 1 157 129
f 1 129 103
f 1 103 82
f 1 82 81
f 1 81 80
f 1 80 79
f 1 79 63
f 1 63 62
f 1 62 61
f 1 61 49
f 1 49 48
f 1 48 34
f 1 34 33
f 1 33 32
f 1 32 30
f 1 30 17
f 1 17 16
f 1 16 15
f 1 15 6
f 1 6 2
f 2 6 7
f 2 7 8
f 2 8 3
f 3 8 9
f 3 9 10
f 3 10 4
f 4 11 12
f 4 12 13
f 4 13 14
f 4 14 5
f 4 10 11
f 6 15 7
f 7 9 8
f 7 15 16
f 7 16 17
f 7 17 18
f 7 18 19
f 7 19 20
f 7 20 21
f 7 21 22
f 7 22 9
f 9 23 10
f 9 22 23
f 10 24 25
f 10 25 11
f 10 23 24
f 11 25 26
f 11 26 12
f 12 26 27
f 12 27 28
f 12 28 13
f 13 28 29
f 13 29 14
f 17 30 18
f 18 30 19
f 19 30 20
f 20 31 21
f 20 30 32
f 20 32 33
f 20 33 34
f 20 34 35
f 20 35 31
f 21 31 36
f 21 36 22
f 22 36 23
f 23 36 24
f 24 36 37
f 24 37 38
f 24 38 25
f 25 38 26
f 26 38 39
f 26 39 27
f 27 39 40
f 27 40 28
f 28 40 41
f 28 41 42
f 28 42 43
f 28 43 44
f 28 44 29
f 29 44 45
f 31 46 36
f 31 35 47
f 31 47 46
f 34 48 35
f 35 48 49
f 35 49 50
f 35 50 47
f 36 46 37
f 37 46 51
f 37 51 66
f 37 66 88
f 37 88 92
f 37 92 67
f 37 67 52
f 37 52 38
f 38 52 53
f 38 53 39
f 39 53 54
f 39 54 40
f 40 54 41
f 41 54 55
f 41 55 56
f 41 56 57
f 41 57 42
f 42 57 58
f 42 58 43
f 43 58 45
f 43 45 44
f 46 47 59
f 46 59 51
f 47 50 60
f 47 60 59
f 49 61 50
f 50 61 62
f 50 62 63
f 50 63 64
f 50 64 60
f 51 59 65
f 51 65 84
f 51 84 66
f 52 67 91
f 52 91 68
f 52 68 69
f 52 69 70
f 52 70 53
f 53 70 71
f 53 71 54
f 54 71 55
f 55 71 72
f 55 72 73
f 55 73 74
f 55 74 56
f 56 75 76
f 56 76 57
f 56 74 75
f 57 76 58
f 59 60 77
f 59 77 78
f 59 78 65
f 60 64 77
f 63 79 64
f 64 79 80
f 64 80 81
f 64 81 82
f 64 82 83
f 64 83 77
f 65 78 85
f 65 85 106
f 65 106 84
f 66 84 86
f 66 86 87
f 66 87 88
f 67 89 90
f 67 90 91
f 67 92 93
f 67 93 89
f 68 91 117
f 68 117 94
f 68 94 69
f 69 94 95
f 69 95 96
f 69 96 70
f 70 96 97
f 70 97 71
f 71 97 72
f 72 97 98
f 72 98 99
f 72 99 100
f 72 100 73
f 73 101 74
f 73 100 101
f 74 101 102
f 74 102 75
f 77 83 78
f 78 83 85
f 82 103 83
f 83 103 104
f 83 104 85
f 84 105 86
f 84 106 105
f 85 104 130
f 85 130 106
f 86 105 107
f 86 107 108
f 86 108 109
f 86 109 87
f 87 110 111
f 87 111 88
f 87 109 110
f 88 111 112
f 88 112 92
f 89 113 114
f 89 114 115
f 89 115 90
f 89 93 113
f 90 115 116
f 90 116 117
f 90 117 91
f 92 118 119
f 92 119 120
f 92 120 93
f 92 112 118
f 93 120 121
f 93 121 113
f 94 117 122
f 94 122 95
f 95 122 98
f 95 98 96
f 96 98 97
f 98 122 123
f 98 123 124
f 98 124 99
f 99 124 123
f 99 123 125
f 99 125 100
f 100 125 126
f 100 126 127
f 100 127 128
f 100 128 101
f 103 129 104
f 104 129 130
f 105 106 131
f 105 131 107
f 106 130 131
f 107 131 132
f 107 132 108
f 108 133 109
f 108 132 133
f 109 134 110
f 109 133 134
f 110 135 136
f 110 136 111
f 110 134 135
f 111 136 137
f 111 137 138
f 111 138 112
f 112 138 139
f 112 139 143
f 112 143 118
f 113 121 140
f 113 140 141
f 113 141 114
f 114 141 142
f 114 142 115
f 115 142 116
f 116 142 122
f 116 122 117
f 118 143 119
f 119 143 144
f 119 144 145
f 119 145 120
f 120 145 146
f 120 146 121
f 121 146 147
f 121 147 140
f 122 148 149
f 122 149 123
f 122 142 148
f 123 149 150
f 123 150 151
f 123 151 152
f 123 152 153
f 123 153 154
f 123 154 155
f 123 155 156
f 123 156 125
f 125 156 126
f 129 157 158
f 129 158 130
f 130 158 131
f 131 158 132
f 132 158 159
f 132 159 160
f 132 160 161
f 132 161 133
f 133 162 163
f 133 163 134
f 133 161 164
f 133 164 165
f 133 165 162
f 134 163 166
f 134 166 135
f 135 166 167
f 135 167 168
f 135 168 136
f 136 168 137
f 137 168 169
f 137 169 138
f 138 169 139
f 139 169 170
f 139 170 171
f 139 171 143
f 140 172 173
f 140 173 174
f 140 174 141
f 140 147 172
f 141 174 175
f 141 175 142
f 142 175 176
f 142 176 148
f 143 171 144
f 144 171 177
f 144 177 178
f 144 178 145
f 145 178 146
f 146 178 147
f 147 178 179
f 147 179 180
f 147 180 172
f 148 176 149
f 149 176 181
f 149 181 182
f 149 182 183
f 149 183 150
f 150 183 184
f 150 184 185
f 150 185 186
f 150 186 187
f 150 187 151
f 151 187 152
f 157 188 159
f 157 159 158
f 159 188 160
f 160 188 189
f 160 189 161
f 161 189 190
f 161 190 164
f 162 165 191
f 162 191 192
f 162 192 163
f 163 192 166
f 164 190 191
f 164 191 165
f 166 193 167
f 166 192 194
f 166 194 195
f 166 195 193
f 167 193 196
f 167 196 197
f 167 197 198
f 167 198 199
f 167 199 200
f 167 200 168
f 168 200 199
f 168 199 169
f 169 199 170
f 170 201 202
f 170 202 171
f 170 199 201
f 171 202 203
f 171 203 177
f 172 204 173
f 172 180 205
f 172 205 204
f 173 204 206
f 173 206 207
f 173 207 174
f 174 207 208
f 174 208 209
f 174 209 175
f 175 209 210
f 175 210 181
f 175 181 176
f 177 203 211
f 177 211 212
f 177 212 178
f 178 212 179
f 179 212 213
f 179 213 214
f 179 214 180
f 180 215 205
f 180 214 216
f 180 216 215
f 181 210 182
f 182 209 206
f 182 206 217
f 182 217 218
f 182 218 219
f 182 219 220
f 182 220 183
f 182 210 209
f 183 220 184
f 184 220 221
f 184 221 222
f 184 222 185
f 190 223 191
f 191 223 224
f 191 224 225
f 191 225 192
f 192 225 194
f 193 195 226
f 193 226 196
f 194 225 226
f 194 226 195
f 196 226 227
f 196 227 197
f 197 227 198
f 198 227 201
f 198 201 199
f 201 227 228
f 201 228 229
f 201 229 202
f 202 229 230
f 202 230 203
f 203 230 231
f 203 231 232
f 203 232 211
f 204 205 233
f 204 233 234
f 204 234 235
f 204 235 206
f 205 215 233
f 206 235 218
f 206 218 217
f 206 209 208
f 206 208 207
f 211 232 236
f 211 236 237
f 211 237 238
f 211 238 212
f 212 238 213
f 213 238 214
f 214 238 216
f 215 216 233
f 216 238 233
f 218 239 219
f 218 235 234
f 218 234 240
f 218 240 241
f 218 241 242
f 218 242 239
f 219 239 220
f 220 239 243
f 220 243 221
f 224 244 225
f 225 244 245
f 225 245 226
f 226 246 247
f 226 247 227
f 226 245 248
f 226 248 246
f 227 249 250
f 227 250 251
f 227 251 228
f 227 247 249
f 228 251 229
f 229 251 252
f 229 252 230
f 230 252 253
f 230 253 231
f 231 254 255
f 231 255 232
f 231 253 254
f 232 255 236
f 233 256 234
f 233 238 257
f 233 257 258
f 233 258 259
f 233 259 260
f 233 260 256
f 234 256 240
f 236 255 261
f 236 261 262
f 236 262 263
f 236 263 237
f 237 263 238
f 238 263 257
f 239 242 243
f 257 259 258
f 257 263 259
f 259 264 265
f 259 265 260
f 259 263 264
f 262 264 263