# https://github.com/mikedh/trimesh
v 0.02390492 -0.02003110 -0.00029542 0.52549020 1.54509804 0.90980392
v 0.00285778 -0.02003110 -0.00029542 0.52549020 1.54509804 0.90980392
v 0.02390492 -0.02910360 -0.00029542 0.52549020 1.54509804 0.90980392
v 0.02390492 -0.02003110 -0.02912256 0.52549020 1.54509804 0.90980392
v 0.00285778 -0.02913514 -0.00029542 0.52549020 1.54509804 0.90980392
v 0.00285778 -0.02003110 -0.02914702 0.52549020 1.54509804 0.90980392
v 0.02390492 -0.03153254 -0.02770658 0.52549020 1.54509804 0.90980392
v 0.02390492 -0.02770774 -0.03153246 0.52549020 1.54509804 0.90980392
v 0.00285778 -0.02619022 -0.03118994 0.52549020 1.54509804 0.90980392
v 0.00285778 -0.02301884 -0.03019294 0.52549020 1.54509804 0.90980392
v 0.00285778 -0.03153930 -0.02770658 0.52549020 1.54509804 0.90980392
v 0.02390492 -0.03038454 -0.03038256 0.52549020 1.54509804 0.90980392
v 0.00285778 -0.02770774 -0.03153858 0.52549020 1.54509804 0.90980392
v 0.00285778 -0.03038454 -0.03038256 0.52549020 1.54509804 0.90980392
v 0.00285778 -0.02899206 -0.03098504 0.52549020 1.54509804 0.90980392
f 1 2 5
f 1 5 3
f 1 3 7
f 1 7 12
f 1 12 8
f 1 8 4
f 1 4 6
f 1 6 2
f 2 6 10
f 2 10 9
f 2 9 13
f 2 13 15
f 2 15 14
f 2 14 11
f 2 11 5
f 3 5 7
f 4 8 9
f 4 9 10
f 4 10 6
f 5 11 7
f 7 11 12
f 8 12 13
f 8 13 9
f 11 14 12
f 12 14 15
f 12 15 13