# https://github.com/mikedh/trimesh
v 0.04582092 -0.02770772 0.03152966 1.88235294 1.04313726 0.82352942
v 0.03645644 -0.02770772 0.03153278 1.88235294 1.04313726 0.82352942
v 0.04582092 -0.02982298 0.03062616 1.88235294 1.04313726 0.82352942
v 0.04582092 -0.02709486 0.03136764 1.88235294 1.04313726 0.82352942
v 0.02426172 -0.02770772 0.03153278 1.88235294 1.04313726 0.82352942
v 0.02426172 -0.03038478 0.03038314 1.88235294 1.04313726 0.82352942
v 0.04582092 -0.03038478 0.03038314 1.88235294 1.04313726 0.82352942
v 0.04582092 -0.02407838 0.03032706 1.88235294 1.04313726 0.82352942
v 0.02426172 -0.02066396 0.02913382 1.88235294 1.04313726 0.82352942
v 0.02426172 -0.03153286 0.02770690 1.88235294 1.04313726 0.82352942
v 0.04582092 -0.03153178 0.02770690 1.88235294 1.04313726 0.82352942
v 0.04582092 -0.02066396 0.02914006 1.88235294 1.04313726 0.82352942
v 0.02426172 -0.02066396 -0.00029230 1.88235294 1.04313726 0.82352942
v 0.02426172 -0.02910370 -0.00029230 1.88235294 1.04313726 0.82352942
v 0.04582092 -0.02911542 -0.00029230 1.88235294 1.04313726 0.82352942
v 0.04582092 -0.02066396 -0.00029230 1.88235294 1.04313726 0.82352942
f 1 2 3
f 1 3 7
f 1 7 11
f 1 11 15
f 1 15 16
f 1 16 12
f 1 12 8
f 1 8 4
f 1 4 2
f 2 4 5
f 2 5 3
f 3 5 6
f 3 6 7
f 4 8 9
f 4 9 5
f 5 9 13
f 5 13 14
f 5 14 10
f 5 10 6
f 6 10 7
f 7 10 11
f 8 12 9
f 9 12 16
f 9 16 13
f 10 14 15
f 10 15 11
f 13 16 15
f 13 15 14