# https://github.com/mikedh/trimesh
v -0.05687448 -0.02563724 0.00145438 1.08235294 0.84705882 1.28627450
v -0.05395876 -0.02502346 0.00145438 1.08235294 0.84705882 1.28627450
v -0.05687448 -0.02533272 0.00437112 1.08235294 0.84705882 1.28627450
v -0.05917530 -0.02459048 0.00437112 1.08235294 0.84705882 1.28627450
v -0.05917530 -0.02471894 0.00145438 1.08235294 0.84705882 1.28627450
v -0.05687448 -0.02559918 -0.00145738 1.08235294 0.84705882 1.28627450
v -0.05395876 -0.02520426 -0.00145738 1.08235294 0.84705882 1.28627450
v -0.05252856 -0.02412420 0.00145438 1.08235294 0.84705882 1.28627450
v -0.05252856 -0.02380064 0.00340384 1.08235294 0.84705882 1.28627450
v -0.05252856 -0.02370548 0.00392468 1.08235294 0.84705882 1.28627450
v -0.05369262 -0.02428596 0.00459434 1.08235294 0.84705882 1.28627450
v -0.05441488 -0.02395766 0.00728784 1.08235294 0.84705882 1.28627450
v -0.05252856 -0.02435734 -0.00145738 1.08235294 0.84705882 1.28627450
v -0.05687448 -0.02464758 0.00728784 1.08235294 0.84705882 1.28627450
v -0.05904126 -0.02366266 0.00956468 1.08235294 0.84705882 1.28627450
v -0.05917530 -0.02370074 0.00919264 1.08235294 0.84705882 1.28627450
v -0.05917530 -0.02408612 0.00715392 1.08235294 0.84705882 1.28627450
v -0.05917530 -0.02452386 -0.00125400 1.08235294 0.84705882 1.28627450
v -0.05917530 -0.02417654 -0.00424018 1.08235294 0.84705882 1.28627450
v -0.05687448 -0.02520902 -0.00437410 1.08235294 0.84705882 1.28627450
v -0.05395876 -0.02502346 -0.00437410 1.08235294 0.84705882 1.28627450
v -0.05252856 -0.02428120 -0.00437410 1.08235294 0.84705882 1.28627450
v -0.05252856 -0.02328202 0.00572530 1.08235294 0.84705882 1.28627450
v -0.05254352 -0.02329630 0.00571042 1.08235294 0.84705882 1.28627450
v -0.05501026 -0.02358178 0.00928690 1.08235294 0.84705882 1.28627450
v -0.05687448 -0.02376734 0.00976806 1.08235294 0.84705882 1.28627450
v -0.05687448 -0.02310598 0.01122642 1.08235294 0.84705882 1.28627450
v -0.05917530 -0.02075552 0.01505090 1.08235294 0.84705882 1.28627450
v -0.05917530 -0.02354372 0.00969364 1.08235294 0.84705882 1.28627450
v -0.05917530 -0.02415750 -0.00437410 1.08235294 0.84705882 1.28627450
v -0.05873282 -0.02366742 -0.00729084 1.08235294 0.84705882 1.28627450
v -0.05687448 -0.02443346 -0.00729084 1.08235294 0.84705882 1.28627450
v -0.05395876 -0.02445726 -0.00729084 1.08235294 0.84705882 1.28627450
v -0.05252856 -0.02388154 -0.00729084 1.08235294 0.84705882 1.28627450
v -0.05252856 -0.02260640 0.00727296 1.08235294 0.84705882 1.28627450
v -0.05295670 -0.02294896 0.00728784 1.08235294 0.84705882 1.28627450
v -0.05252856 -0.02096012 0.01034842 1.08235294 0.84705882 1.28627450
v -0.05383578 -0.02200688 0.01034842 1.08235294 0.84705882 1.28627450
v -0.05473438 -0.02103150 0.01312130 1.08235294 0.84705882 1.28627450
v -0.05531868 -0.02049384 0.01468384 1.08235294 0.84705882 1.28627450
v -0.05687448 -0.02196882 0.01312130 1.08235294 0.84705882 1.28627450
v -0.05687448 -0.02073174 0.01501122 1.08235294 0.84705882 1.28627450
v -0.05917530 -0.02071270 0.01510050 1.08235294 0.84705882 1.28627450
v -0.05917530 -0.02401952 -0.00494952 1.08235294 0.84705882 1.28627450
v -0.05917530 -0.02348662 -0.00664598 1.08235294 0.84705882 1.28627450
v -0.05838406 -0.02337242 -0.00883352 1.08235294 0.84705882 1.28627450
v -0.05687448 -0.02363888 -0.00943870 1.08235294 0.84705882 1.28627450
v -0.05395876 -0.02370074 -0.00964208 1.08235294 0.84705882 1.28627450
v -0.05252856 -0.02349138 -0.00917084 1.08235294 0.84705882 1.28627450
v -0.05252856 -0.02007990 0.01149924 1.08235294 0.84705882 1.28627450
v -0.05687448 -0.01946612 0.01646958 1.08235294 0.84705882 1.28627450
v -0.05252856 -0.01886660 0.01305186 1.08235294 0.84705882 1.28627450
v -0.05252856 -0.01844790 0.01350822 1.08235294 0.84705882 1.28627450
v -0.05530242 -0.01762476 0.01761544 1.08235294 0.84705882 1.28627450
v -0.05687448 -0.01800540 0.01798748 1.08235294 0.84705882 1.28627450
v -0.05917530 -0.01807202 0.01807180 1.08235294 0.84705882 1.28627450
v -0.05917530 -0.02274914 -0.00823332 1.08235294 0.84705882 1.28627450
v -0.05917530 -0.02170238 -0.00998434 1.08235294 0.84705882 1.28627450
v -0.05917530 -0.02060328 -0.01179986 1.08235294 0.84705882 1.28627450
v -0.05871462 -0.02086020 -0.01229590 1.08235294 0.84705882 1.28627450
v -0.05795070 -0.02008466 -0.01424038 1.08235294 0.84705882 1.28627450
v -0.05693694 -0.02141214 -0.01320862 1.08235294 0.84705882 1.28627450
v -0.05687448 -0.02288712 -0.01089706 1.08235294 0.84705882 1.28627450
v -0.05395876 -0.02310598 -0.01110044 1.08235294 0.84705882 1.28627450
v -0.05252856 -0.02341526 -0.00935438 1.08235294 0.84705882 1.28627450
v -0.05252856 -0.01594996 0.01581480 1.08235294 0.84705882 1.28627450
v -0.05252856 -0.01267170 0.01843886 1.08235294 0.84705882 1.28627450
v -0.05569022 -0.01426562 0.02024942 1.08235294 0.84705882 1.28627450
v -0.05763448 -0.01502214 0.02073554 1.08235294 0.84705882 1.28627450
v -0.05917530 -0.01610696 0.01988732 1.08235294 0.84705882 1.28627450
v -0.05917530 -0.01998474 -0.01267786 1.08235294 0.84705882 1.28627450
v -0.05917530 -0.01929958 -0.01347152 1.08235294 0.84705882 1.28627450
v -0.05600646 -0.02072222 -0.01498444 1.08235294 0.84705882 1.28627450
v -0.05917530 -0.01790550 -0.01494972 1.08235294 0.84705882 1.28627450
v -0.05878098 -0.01814340 -0.01520270 1.08235294 0.84705882 1.28627450
v -0.05797934 -0.01705856 -0.01714720 1.08235294 0.84705882 1.28627450
v -0.05603510 -0.01795782 -0.01793590 1.08235294 0.84705882 1.28627450
v -0.05395876 -0.02203068 -0.01312430 1.08235294 0.84705882 1.28627450
v -0.05252856 -0.02065562 -0.01491996 1.08235294 0.84705882 1.28627450
v -0.05252856 -0.01168678 0.01898452 1.08235294 0.84705882 1.28627450
v -0.05513390 -0.01232436 0.02072562 1.08235294 0.84705882 1.28627450
v -0.05685430 -0.01036406 0.02268498 1.08235294 0.84705882 1.28627450
v -0.05674694 -0.01322838 0.02132088 1.08235294 0.84705882 1.28627450
v -0.05917530 -0.01506496 0.02077522 1.08235294 0.84705882 1.28627450
v -0.05781342 -0.00949336 0.02361754 1.08235294 0.84705882 1.28627450
v -0.05917530 -0.01071616 0.02329512 1.08235294 0.84705882 1.28627450
v -0.05917530 -0.01314274 0.02191612 1.08235294 0.84705882 1.28627450
v -0.05395876 -0.01963740 -0.01656186 1.08235294 0.84705882 1.28627450
v -0.05395876 -0.02080312 -0.01510350 1.08235294 0.84705882 1.28627450
v -0.05395876 -0.01817670 -0.01817896 1.08235294 0.84705882 1.28627450
v -0.05917530 -0.01724888 -0.01557970 1.08235294 0.84705882 1.28627450
v -0.05917530 -0.01635438 -0.01641306 1.08235294 0.84705882 1.28627450
v -0.05917530 -0.01481280 -0.01763332 1.08235294 0.84705882 1.28627450
v -0.05868598 -0.01511254 -0.01785654 1.08235294 0.84705882 1.28627450
v -0.05570976 -0.01486514 -0.02061452 1.08235294 0.84705882 1.28627450
v -0.05395876 -0.01656374 -0.01963732 1.08235294 0.84705882 1.28627450
v -0.05252856 -0.02043198 -0.01520270 1.08235294 0.84705882 1.28627450
v -0.05252856 -0.00681460 0.02102820 1.08235294 0.84705882 1.28627450
v -0.05734362 -0.00729040 0.02394494 1.08235294 0.84705882 1.28627450
v -0.05917530 -0.00729040 0.02446082 1.08235294 0.84705882 1.28627450
v -0.05917530 -0.00971222 0.02372172 1.08235294 0.84705882 1.28627450
v -0.05252856 -0.01801968 -0.01803510 1.08235294 0.84705882 1.28627450
v -0.05252856 -0.01503166 -0.02075342 1.08235294 0.84705882 1.28627450
v -0.05917530 -0.01357096 -0.01846170 1.08235294 0.84705882 1.28627450
v -0.05917530 -0.01304758 -0.01877422 1.08235294 0.84705882 1.28627450
v -0.05626544 -0.01312370 -0.02110560 1.08235294 0.84705882 1.28627450
v -0.05556530 -0.00905562 -0.02343700 1.08235294 0.84705882 1.28627450
v -0.05395876 -0.01107300 -0.02309970 1.08235294 0.84705882 1.28627450
v -0.05395876 -0.01312370 -0.02202824 1.08235294 0.84705882 1.28627450
v -0.05395876 -0.01510778 -0.02080302 1.08235294 0.84705882 1.28627450
v -0.05252856 -0.00587728 0.02126630 1.08235294 0.84705882 1.28627450
v -0.05708400 -0.00437374 0.02422272 1.08235294 0.84705882 1.28627450
v -0.05917530 -0.00437374 0.02504614 1.08235294 0.84705882 1.28627450
v -0.05252856 -0.00437374 0.02160858 1.08235294 0.84705882 1.28627450
v -0.05252856 -0.01440360 -0.02114530 1.08235294 0.84705882 1.28627450
v -0.05917530 -0.01108252 -0.01979110 1.08235294 0.84705882 1.28627450
v -0.05581060 -0.00729040 -0.02365526 1.08235294 0.84705882 1.28627450
v -0.05395876 -0.00437374 -0.02497970 1.08235294 0.84705882 1.28627450
v -0.05395876 -0.00729040 -0.02441918 1.08235294 0.84705882 1.28627450
v -0.05395876 -0.00961706 -0.02368998 1.08235294 0.84705882 1.28627450
v -0.05917530 -0.01065430 -0.01995976 1.08235294 0.84705882 1.28627450
v -0.05917530 -0.00779950 -0.02107584 1.08235294 0.84705882 1.28627450
v -0.05917530 -0.00722854 -0.02121970 1.08235294 0.84705882 1.28627450
v -0.05252856 -0.01100640 -0.02301040 1.08235294 0.84705882 1.28627450
v -0.05252856 -0.00954570 -0.02367014 1.08235294 0.84705882 1.28627450
v -0.05709506 -0.00145710 0.02431696 1.08235294 0.84705882 1.28627450
v -0.05917530 -0.00145710 0.02528922 1.08235294 0.84705882 1.28627450
v -0.05252856 -0.00294160 0.02181196 1.08235294 0.84705882 1.28627450
v -0.05252856 -0.00145710 0.02190124 1.08235294 0.84705882 1.28627450
v -0.05602468 -0.00437374 -0.02388840 1.08235294 0.84705882 1.28627450
v -0.05917530 -0.00508744 -0.02166614 1.08235294 0.84705882 1.28627450
v -0.05395876 -0.00145710 -0.02515828 1.08235294 0.84705882 1.28627450
v -0.05252856 -0.00145710 -0.02538646 1.08235294 0.84705882 1.28627450
v -0.05252856 -0.00437374 -0.02509874 1.08235294 0.84705882 1.28627450
v -0.05252856 -0.00729040 -0.02443902 1.08235294 0.84705882 1.28627450
v -0.05917530 0.00145480 0.02518008 1.08235294 0.84705882 1.28627450
v -0.05252856 -0.00002970 0.02190620 1.08235294 0.84705882 1.28627450
v -0.05601818 -0.00145710 -0.02392312 1.08235294 0.84705882 1.28627450
v -0.05917530 -0.00437374 -0.02174054 1.08235294 0.84705882 1.28627450
v -0.05917530 -0.00223266 -0.02190424 1.08235294 0.84705882 1.28627450
v -0.05252856 0.00145480 -0.02530708 1.08235294 0.84705882 1.28627450
v -0.05395876 0.00145480 -0.02497474 1.08235294 0.84705882 1.28627450
v -0.05917530 0.00437144 0.02473364 1.08235294 0.84705882 1.28627450
v -0.05252856 0.00145480 0.02180204 1.08235294 0.84705882 1.28627450
v -0.05252856 0.00288696 0.02163338 1.08235294 0.84705882 1.28627450
v -0.05917530 -0.00145710 -0.02190920 1.08235294 0.84705882 1.28627450
v -0.05917530 0.00067924 -0.02184472 1.08235294 0.84705882 1.28627450
v -0.05917530 0.00145480 -0.02180006 1.08235294 0.84705882 1.28627450
v -0.05252856 0.00444282 -0.02482592 1.08235294 0.84705882 1.28627450
v -0.05419886 0.00451894 -0.02425548 1.08235294 0.84705882 1.28627450
v -0.05344602 0.00728810 -0.02393304 1.08235294 0.84705882 1.28627450
v -0.05252856 0.00617472 -0.02446878 1.08235294 0.84705882 1.28627450
v -0.05917530 0.00440000 -0.02138836 1.08235294 0.84705882 1.28627450
v -0.05917530 0.00514700 0.02455506 1.08235294 0.84705882 1.28627450
v -0.05252856 0.00437144 0.02134568 1.08235294 0.84705882 1.28627450
v -0.05917530 0.00599392 -0.02097664 1.08235294 0.84705882 1.28627450
v -0.05287472 0.00925316 -0.02356598 1.08235294 0.84705882 1.28627450
v -0.05252856 0.00888202 -0.02376936 1.08235294 0.84705882 1.28627450
v -0.05252856 0.00728810 -0.02420092 1.08235294 0.84705882 1.28627450
v -0.05917530 0.00723100 0.02397470 1.08235294 0.84705882 1.28627450
v -0.05801578 0.00660294 0.02362252 1.08235294 0.84705882 1.28627450
v -0.05252856 0.00542296 0.02108774 1.08235294 0.84705882 1.28627450
v -0.05917530 0.00768778 -0.02034170 1.08235294 0.84705882 1.28627450
v -0.05252856 0.00934832 -0.02360566 1.08235294 0.84705882 1.28627450
v -0.05917530 0.01022854 -0.01912144 1.08235294 0.84705882 1.28627450
v -0.05917530 0.01175110 -0.01824344 1.08235294 0.84705882 1.28627450
v -0.05257280 0.01465824 -0.02047564 1.08235294 0.84705882 1.28627450
v -0.05252856 0.01461066 -0.02052028 1.08235294 0.84705882 1.28627450
v -0.05917530 0.00787334 0.02377132 1.08235294 0.84705882 1.28627450
v -0.05848948 0.00854422 0.02322568 1.08235294 0.84705882 1.28627450
v -0.05252856 0.00651254 0.02072562 1.08235294 0.84705882 1.28627450
v -0.05917530 0.01220786 -0.01792598 1.08235294 0.84705882 1.28627450
v -0.05917530 0.01335930 -0.01703310 1.08235294 0.84705882 1.28627450
v -0.05917530 0.01498178 -0.01559458 1.08235294 0.84705882 1.28627450
v -0.05259232 0.01759392 -0.01760356 1.08235294 0.84705882 1.28627450
v -0.05252856 0.01760820 -0.01761844 1.08235294 0.84705882 1.28627450
v -0.05252856 0.01466776 -0.02048060 1.08235294 0.84705882 1.28627450
v -0.05917530 0.00968614 0.02295782 1.08235294 0.84705882 1.28627450
v -0.05252856 0.00722624 0.02044288 1.08235294 0.84705882 1.28627450
v -0.05252856 0.00906760 0.01969386 1.08235294 0.84705882 1.28627450
v -0.05252856 0.01149892 0.01856288 1.08235294 0.84705882 1.28627450
v -0.05917530 0.01527678 -0.01528704 1.08235294 0.84705882 1.28627450
v -0.05917530 0.01642822 -0.01407670 1.08235294 0.84705882 1.28627450
v -0.05917530 0.01776996 -0.01254392 1.08235294 0.84705882 1.28627450
v -0.05917530 0.01799836 -0.01223638 1.08235294 0.84705882 1.28627450
v -0.05917530 0.01915454 -0.01056968 1.08235294 0.84705882 1.28627450
v -0.05252856 0.01996340 -0.01397748 1.08235294 0.84705882 1.28627450
v -0.05917530 0.01266464 0.02103814 1.08235294 0.84705882 1.28627450
v -0.05252856 0.01254568 0.01795274 1.08235294 0.84705882 1.28627450
v -0.05917530 0.01940672 -0.01012820 1.08235294 0.84705882 1.28627450
v -0.05252856 0.02050106 -0.01302012 1.08235294 0.84705882 1.28627450
v -0.05917530 0.01370188 0.02028910 1.08235294 0.84705882 1.28627450
v -0.05252856 0.01462494 0.01637038 1.08235294 0.84705882 1.28627450
v -0.05917530 0.02084364 -0.00735036 1.08235294 0.84705882 1.28627450
v -0.05252856 0.02077226 -0.01238022 1.08235294 0.84705882 1.28627450
v -0.05917530 0.01455832 0.01957976 1.08235294 0.84705882 1.28627450
v -0.05252856 0.01552420 0.01557174 1.08235294 0.84705882 1.28627450
v -0.05917530 0.02097210 -0.00702298 1.08235294 0.84705882 1.28627450
v -0.05917530 0.02183806 -0.00475606 1.08235294 0.84705882 1.28627450
v -0.05252856 0.02155734 -0.01024724 1.08235294 0.84705882 1.28627450
v -0.05917530 0.01559556 0.01854304 1.08235294 0.84705882 1.28627450
v -0.05252856 0.01765578 0.01330980 1.08235294 0.84705882 1.28627450
v -0.05917530 0.01660902 0.01747158 1.08235294 0.84705882 1.28627450
v -0.05252856 0.02252796 -0.00727100 1.08235294 0.84705882 1.28627450
v -0.05917530 0.02198080 -0.00419554 1.08235294 0.84705882 1.28627450
v -0.05252856 0.01827908 0.01251612 1.08235294 0.84705882 1.28627450
v -0.05917530 0.01747022 0.01647950 1.08235294 0.84705882 1.28627450
v -0.05252856 0.02268974 -0.00648228 1.08235294 0.84705882 1.28627450
v -0.05917530 0.02230910 -0.00145738 1.08235294 0.84705882 1.28627450
v -0.05917530 0.01856930 0.01501618 1.08235294 0.84705882 1.28627450
v -0.05252856 0.02100064 0.00769460 1.08235294 0.84705882 1.28627450
v -0.05252856 0.02293716 -0.00437410 1.08235294 0.84705882 1.28627450
v -0.05252856 0.02297046 -0.00387806 1.08235294 0.84705882 1.28627450
v -0.05917530 0.02238522 0.00117660 1.08235294 0.84705882 1.28627450
v -0.05917530 0.01955898 0.01312130 1.08235294 0.84705882 1.28627450
v -0.05252856 0.02133846 0.00695054 1.08235294 0.84705882 1.28627450
v -0.05917530 0.01957324 0.01309154 1.08235294 0.84705882 1.28627450
v -0.05917530 0.02238998 0.00145438 1.08235294 0.84705882 1.28627450
v -0.05252856 0.02294190 -0.00145738 1.08235294 0.84705882 1.28627450
v -0.05252856 0.02212830 0.00437112 1.08235294 0.84705882 1.28627450
v -0.05917530 0.02164298 0.00733248 1.08235294 0.84705882 1.28627450
v -0.05917530 0.02065808 0.01012520 1.08235294 0.84705882 1.28627450
v -0.05917530 0.02228530 0.00409334 1.08235294 0.84705882 1.28627450
v -0.05252856 0.02290384 -0.00094150 1.08235294 0.84705882 1.28627450
v -0.05252856 0.02266118 0.00145438 1.08235294 0.84705882 1.28627450
v -0.05917530 0.02225200 0.00437112 1.08235294 0.84705882 1.28627450
v -0.05917530 0.02169532 0.00711422 1.08235294 0.84705882 1.28627450
f 1 2 3
f 1 3 4
f 1 4 5
f 1 5 6
f 1 6 7
f 1 7 2
f 2 8 9
f 2 9 10
f 2 10 11
f 2 11 12
f 2 12 3
f 2 7 13
f 2 13 8
f 3 12 14
f 3 14 15
f 3 15 16
f 3 16 17
f 3 17 4
f 4 17 16
f 4 16 29
f 4 29 28
f 4 28 43
f 4 43 56
f 4 56 70
f 4 70 84
f 4 84 87
f 4 87 86
f 4 86 101
f 4 101 100
f 4 100 113
f 4 113 127
f 4 127 136
f 4 136 143
f 4 143 154
f 4 154 160
f 4 160 169
f 4 169 178
f 4 178 188
f 4 188 192
f 4 192 196
f 4 196 201
f 4 201 203
f 4 203 207
f 4 207 210
f 4 210 215
f 4 215 217
f 4 217 222
f 4 222 221
f 4 221 227
f 4 227 226
f 4 226 223
f 4 223 218
f 4 218 214
f 4 214 209
f 4 209 205
f 4 205 199
f 4 199 198
f 4 198 194
f 4 194 190
f 4 190 186
f 4 186 185
f 4 185 184
f 4 184 183
f 4 183 182
f 4 182 174
f 4 174 173
f 4 173 172
f 4 172 166
f 4 166 165
f 4 165 163
f 4 163 156
f 4 156 153
f 4 153 148
f 4 148 147
f 4 147 146
f 4 146 140
f 4 140 139
f 4 139 131
f 4 131 123
f 4 123 122
f 4 122 121
f 4 121 116
f 4 116 105
f 4 105 104
f 4 104 93
f 4 93 92
f 4 92 91
f 4 91 74
f 4 74 72
f 4 72 71
f 4 71 59
f 4 59 58
f 4 58 57
f 4 57 45
f 4 45 44
f 4 44 30
f 4 30 19
f 4 19 18
f 4 18 5
f 5 18 6
f 6 19 20
f 6 20 21
f 6 21 7
f 6 18 19
f 7 21 22
f 7 22 13
f 8 13 22
f 8 22 34
f 8 34 49
f 8 49 65
f 8 65 79
f 8 79 97
f 8 97 102
f 8 102 103
f 8 103 115
f 8 115 124
f 8 124 125
f 8 125 135
f 8 135 134
f 8 134 133
f 8 133 141
f 8 141 149
f 8 149 152
f 8 152 159
f 8 159 158
f 8 158 164
f 8 164 168
f 8 168 177
f 8 177 176
f 8 176 187
f 8 187 191
f 8 191 195
f 8 195 200
f 8 200 204
f 8 204 208
f 8 208 212
f 8 212 213
f 8 213 219
f 8 219 224
f 8 224 225
f 8 225 220
f 8 220 216
f 8 216 211
f 8 211 206
f 8 206 202
f 8 202 197
f 8 197 193
f 8 193 189
f 8 189 181
f 8 181 180
f 8 180 179
f 8 179 171
f 8 171 162
f 8 162 155
f 8 155 145
f 8 145 144
f 8 144 137
f 8 137 129
f 8 129 128
f 8 128 114
f 8 114 111
f 8 111 98
f 8 98 80
f 8 80 67
f 8 67 66
f 8 66 53
f 8 53 52
f 8 52 50
f 8 50 37
f 8 37 35
f 8 35 23
f 8 23 10
f 8 10 9
f 10 23 24
f 10 24 11
f 11 24 12
f 12 24 23
f 12 23 25
f 12 25 14
f 14 25 26
f 14 26 15
f 15 26 27
f 15 27 28
f 15 28 29
f 15 29 16
f 19 30 20
f 20 30 31
f 20 31 32
f 20 32 33
f 20 33 21
f 21 33 34
f 21 34 22
f 23 35 36
f 23 36 25
f 25 36 35
f 25 35 37
f 25 37 38
f 25 38 39
f 25 39 40
f 25 40 27
f 25 27 26
f 27 40 41
f 27 41 28
f 28 42 43
f 28 41 42
f 30 44 31
f 31 44 45
f 31 45 46
f 31 46 32
f 32 46 47
f 32 47 48
f 32 48 33
f 33 48 49
f 33 49 34
f 37 50 40
f 37 40 39
f 37 39 38
f 40 51 42
f 40 42 41
f 40 50 52
f 40 52 53
f 40 53 54
f 40 54 55
f 40 55 51
f 42 51 43
f 43 51 56
f 45 57 46
f 46 57 58
f 46 58 59
f 46 59 60
f 46 60 61
f 46 61 62
f 46 62 63
f 46 63 47
f 47 63 64
f 47 64 48
f 48 64 49
f 49 64 65
f 51 55 56
f 53 66 54
f 54 67 68
f 54 68 69
f 54 69 55
f 54 66 67
f 55 69 70
f 55 70 56
f 59 71 60
f 60 71 72
f 60 72 61
f 61 73 62
f 61 72 74
f 61 74 75
f 61 75 76
f 61 76 77
f 61 77 73
f 62 73 63
f 63 73 78
f 63 78 64
f 64 78 79
f 64 79 65
f 67 80 68
f 68 81 82
f 68 82 83
f 68 83 69
f 68 80 81
f 69 84 70
f 69 83 85
f 69 85 86
f 69 86 87
f 69 87 84
f 73 88 89
f 73 89 78
f 73 77 90
f 73 90 88
f 74 91 75
f 75 91 76
f 76 91 92
f 76 92 93
f 76 93 94
f 76 94 95
f 76 95 77
f 77 95 96
f 77 96 90
f 78 89 79
f 79 89 97
f 80 98 81
f 81 98 82
f 82 98 85
f 82 85 83
f 85 99 100
f 85 100 101
f 85 101 86
f 85 98 99
f 88 97 89
f 88 90 102
f 88 102 97
f 90 96 103
f 90 103 102
f 93 104 95
f 93 95 94
f 95 104 105
f 95 105 106
f 95 106 107
f 95 107 108
f 95 108 109
f 95 109 110
f 95 110 96
f 96 110 103
f 98 111 99
f 99 112 113
f 99 113 100
f 99 111 114
f 99 114 112
f 103 110 115
f 105 116 106
f 106 116 107
f 107 117 118
f 107 118 119
f 107 119 120
f 107 120 108
f 107 116 121
f 107 121 122
f 107 122 123
f 107 123 117
f 108 124 109
f 108 120 125
f 108 125 124
f 109 124 115
f 109 115 110
f 112 126 127
f 112 127 113
f 112 114 128
f 112 128 129
f 112 129 126
f 117 130 118
f 117 123 131
f 117 131 130
f 118 132 133
f 118 133 134
f 118 134 119
f 118 130 132
f 119 134 135
f 119 135 120
f 120 135 125
f 126 136 127
f 126 129 137
f 126 137 136
f 130 138 132
f 130 131 139
f 130 139 140
f 130 140 138
f 132 141 133
f 132 138 142
f 132 142 141
f 136 137 144
f 136 144 145
f 136 145 143
f 138 140 146
f 138 146 147
f 138 147 148
f 138 148 142
f 141 142 149
f 142 150 151
f 142 151 152
f 142 152 149
f 142 148 153
f 142 153 150
f 143 145 155
f 143 155 154
f 150 153 156
f 150 156 151
f 151 157 158
f 151 158 159
f 151 159 152
f 151 156 157
f 154 155 161
f 154 161 160
f 155 162 161
f 156 163 157
f 157 164 158
f 157 163 165
f 157 165 166
f 157 166 167
f 157 167 168
f 157 168 164
f 160 161 169
f 161 170 169
f 161 162 171
f 161 171 170
f 166 172 167
f 167 172 173
f 167 173 174
f 167 174 175
f 167 175 176
f 167 176 177
f 167 177 168
f 169 170 178
f 170 171 179
f 170 179 180
f 170 180 181
f 170 181 178
f 174 182 175
f 175 182 183
f 175 183 184
f 175 184 185
f 175 185 186
f 175 186 187
f 175 187 176
f 178 181 189
f 178 189 188
f 186 190 187
f 187 190 191
f 188 189 192
f 189 193 192
f 190 194 191
f 191 194 195
f 192 193 196
f 193 197 196
f 194 198 195
f 195 198 199
f 195 199 200
f 196 197 201
f 197 202 203
f 197 203 201
f 199 204 200
f 199 205 204
f 202 206 207
f 202 207 203
f 204 205 208
f 205 209 208
f 206 210 207
f 206 211 210
f 208 209 212
f 209 213 212
f 209 214 213
f 210 211 215
f 211 216 217
f 211 217 215
f 213 214 218
f 213 218 219
f 216 220 221
f 216 221 222
f 216 222 217
f 218 223 219
f 219 223 224
f 220 225 226
f 220 226 227
f 220 227 221
f 223 226 225
f 223 225 224