# https://github.com/mikedh/trimesh
v -0.01823767 -0.01477733 0.04999511 0.94117647 0.52156863 0.41176471
v -0.02285805 -0.01136972 0.04999511 0.94117647 0.52156863 0.41176471
v -0.03439399 -0.01477733 0.04999511 0.94117647 0.52156863 0.41176471
v -0.01823767 -0.01477733 0.00000489 0.94117647 0.52156863 0.41176471
v -0.02285805 -0.01136972 0.00000489 0.94117647 0.52156863 0.41176471
v -0.02285963 -0.01136872 0.04999511 0.94117647 0.52156863 0.41176471
v -0.03439399 -0.01477733 0.00000489 0.94117647 0.52156863 0.41176471
v -0.03439399 -0.01136872 0.04999511 0.94117647 0.52156863 0.41176471
v -0.02285963 -0.01136872 0.00000489 0.94117647 0.52156863 0.41176471
v -0.03439399 -0.01136872 0.00000489 0.94117647 0.52156863 0.41176471
f 1 2 6
f 1 6 8
f 1 8 3
f 1 3 7
f 1 7 4
f 1 4 5
f 1 5 2
f 2 5 9
f 2 9 6
f 3 8 10
f 3 10 7
f 4 7 10
f 4 10 9
f 4 9 5
f 6 9 10
f 6 10 8