# https://github.com/mikedh/trimesh
v 0.01881160 -0.00290766 0.04999511 0.08627451 0.01960784 0.83137255
v 0.01881160 -0.00920962 0.04999511 0.08627451 0.01960784 0.83137255
v 0.01881160 -0.00290766 0.00000489 0.08627451 0.01960784 0.83137255
v 0.01266326 -0.00290766 0.04999511 0.08627451 0.01960784 0.83137255
v 0.00914831 -0.00920962 0.04999511 0.08627451 0.01960784 0.83137255
v 0.01881160 -0.00920962 0.00000489 0.08627451 0.01960784 0.83137255
v 0.01266043 -0.00290766 0.00000489 0.08627451 0.01960784 0.83137255
v 0.01266043 -0.00290766 0.04994616 0.08627451 0.01960784 0.83137255
v 0.00914831 -0.00920962 0.00000489 0.08627451 0.01960784 0.83137255
f 1 2 6
f 1 6 3
f 1 3 7
f 1 7 8
f 1 8 4
f 1 4 5
f 1 5 2
f 2 5 9
f 2 9 6
f 3 6 9
f 3 9 7
f 4 8 5
f 5 8 7
f 5 7 9