# https://github.com/mikedh/trimesh
v 0.01881100 0.00275620 0.04999511 0.38039216 0.78823529 0.52549020
v 0.01381162 0.00275620 0.04999511 0.38039216 0.78823529 0.52549020
v 0.01881100 -0.00290766 0.04999511 0.38039216 0.78823529 0.52549020
v 0.01881100 0.00275620 0.00000489 0.38039216 0.78823529 0.52549020
v 0.01266037 -0.00290766 0.04994616 0.38039216 0.78823529 0.52549020
v 0.01266158 -0.00290489 0.04999511 0.38039216 0.78823529 0.52549020
v 0.01381162 0.00275620 0.00000489 0.38039216 0.78823529 0.52549020
v 0.01266278 -0.00290766 0.04999511 0.38039216 0.78823529 0.52549020
v 0.01881100 -0.00290766 0.00000489 0.38039216 0.78823529 0.52549020
v 0.01266037 -0.00290766 0.00000489 0.38039216 0.78823529 0.52549020
f 1 2 6
f 1 6 8
f 1 8 3
f 1 3 9
f 1 9 4
f 1 4 7
f 1 7 2
f 2 5 6
f 2 7 10
f 2 10 5
f 3 8 5
f 3 5 10
f 3 10 9
f 4 9 10
f 4 10 7
f 5 8 6