# https://github.com/mikedh/trimesh
v 0.01381190 0.00275620 0.00000489 0.11764706 0.63921569 0.14117647
v 0.01174409 0.01346869 0.00000489 0.11764706 0.63921569 0.14117647
v 0.01881091 0.00275620 0.00000489 0.11764706 0.63921569 0.14117647
v 0.01381190 0.00275620 0.04999511 0.11764706 0.63921569 0.14117647
v 0.01881091 0.01346869 0.00000489 0.11764706 0.63921569 0.14117647
v 0.01174409 0.01346869 0.04999511 0.11764706 0.63921569 0.14117647
v 0.01881091 0.00275620 0.04999511 0.11764706 0.63921569 0.14117647
v 0.01881091 0.01346869 0.04999511 0.11764706 0.63921569 0.14117647
f 1 2 5
f 1 5 3
f 1 3 7
f 1 7 4
f 1 4 6
f 1 6 2
f 2 6 8
f 2 8 5
f 3 5 8
f 3 8 7
f 4 7 8
f 4 8 6