# https://github.com/mikedh/trimesh
v 0.05165151 0.00512446 0.00164839 0.26274510 0.77254902 0.45490196
v 0.05165151 -0.00520287 0.00164839 0.26274510 0.77254902 0.45490196
v 0.05165151 0.00512446 -0.00572536 0.26274510 0.77254902 0.45490196
v -0.00219451 0.00512446 0.00164839 0.26274510 0.77254902 0.45490196
v 0.05165151 -0.00520287 -0.00572536 0.26274510 0.77254902 0.45490196
v -0.00219451 -0.00520287 0.00164839 0.26274510 0.77254902 0.45490196
v 0.05161437 -0.00000079 -0.00572752 0.26274510 0.77254902 0.45490196
v 0.05161437 0.00512446 -0.00572680 0.26274510 0.77254902 0.45490196
v -0.00220512 0.00512446 0.00153721 0.26274510 0.77254902 0.45490196
v 0.05161437 -0.00520287 -0.00572752 0.26274510 0.77254902 0.45490196
v -0.00227410 -0.00520287 0.00008383 0.26274510 0.77254902 0.45490196
v 0.04793726 0.00512446 -0.00572752 0.26274510 0.77254902 0.45490196
v -0.00255532 0.00512446 -0.00572752 0.26274510 0.77254902 0.45490196
v -0.00255532 -0.00520287 -0.00572752 0.26274510 0.77254902 0.45490196
f 1 2 5
f 1 5 3
f 1 3 8
f 1 8 12
f 1 12 13
f 1 13 9
f 1 9 4
f 1 4 6
f 1 6 2
f 2 6 11
f 2 11 14
f 2 14 10
f 2 10 5
f 3 5 10
f 3 10 7
f 3 7 8
f 4 9 6
f 6 9 11
f 7 10 14
f 7 14 13
f 7 13 12
f 7 12 8
f 9 13 14
f 9 14 11