# https://github.com/mikedh/trimesh
v -0.00280365 0.01200332 -0.00572752 0.08627451 0.01960784 0.83137255
v -0.00280365 0.01200332 -0.01009796 0.08627451 0.01960784 0.83137255
v -0.01188310 0.01200332 -0.00572752 0.08627451 0.01960784 0.83137255
v -0.00280365 0.00521597 -0.00572752 0.08627451 0.01960784 0.83137255
v -0.00280365 0.01198208 -0.01032875 0.08627451 0.01960784 0.83137255
v -0.01188772 0.01198140 -0.01033720 0.08627451 0.01960784 0.83137255
v -0.01150441 0.01198414 -0.01030736 0.08627451 0.01960784 0.83137255
v -0.02382586 0.01198688 -0.01027753 0.08627451 0.01960784 0.83137255
v -0.01188310 0.01200332 -0.01009796 0.08627451 0.01960784 0.83137255
v -0.04845492 0.01200195 -0.00572752 0.08627451 0.01960784 0.83137255
v -0.00280365 0.00502208 -0.00999101 0.08627451 0.01960784 0.83137255
v -0.02121656 0.00500427 -0.00572752 0.08627451 0.01960784 0.83137255
v -0.00280365 0.01198071 -0.01033720 0.08627451 0.01960784 0.83137255
v -0.00280365 0.01197866 -0.01034621 0.08627451 0.01960784 0.83137255
v -0.01188772 0.01191631 -0.01056968 0.08627451 0.01960784 0.83137255
v -0.03613808 0.01192453 -0.01054097 0.08627451 0.01960784 0.83137255
v -0.04845492 0.01198140 -0.01033720 0.08627451 0.01960784 0.83137255
v -0.03613808 0.01199510 -0.01018746 0.08627451 0.01960784 0.83137255
v -0.04845492 0.01200195 -0.01009796 0.08627451 0.01960784 0.83137255
v -0.04851034 0.01199852 -0.00572752 0.08627451 0.01960784 0.83137255
v -0.00280365 0.00502003 -0.01003773 0.08627451 0.01960784 0.83137255
v -0.02100874 0.00500427 -0.01000452 0.08627451 0.01960784 0.83137255
v -0.04998356 0.00500427 -0.00572752 0.08627451 0.01960784 0.83137255
v -0.00280365 0.01192316 -0.01054435 0.08627451 0.01960784 0.83137255
v -0.00280365 0.01191837 -0.01056124 0.08627451 0.01960784 0.83137255
v -0.00280365 0.01191563 -0.01056968 0.08627451 0.01960784 0.83137255
v -0.00280365 0.01191220 -0.01057756 0.08627451 0.01960784 0.83137255
v -0.00280365 0.01186698 -0.01067100 0.08627451 0.01960784 0.83137255
v -0.02382586 0.01183684 -0.01073349 0.08627451 0.01960784 0.83137255
v -0.04845492 0.01191631 -0.01056968 0.08627451 0.01960784 0.83137255
v -0.04871816 0.01195947 -0.01033720 0.08627451 0.01960784 0.83137255
v -0.04872278 0.01198140 -0.01009796 0.08627451 0.01960784 0.83137255
v -0.04872278 0.01198140 -0.00572752 0.08627451 0.01960784 0.83137255
v -0.00280365 0.00502003 -0.01014919 0.08627451 0.01960784 0.83137255
v -0.02100412 0.00500427 -0.01014919 0.08627451 0.01960784 0.83137255
v -0.04998356 0.01056186 -0.00572752 0.08627451 0.01960784 0.83137255
v -0.04998356 0.00500427 -0.01009796 0.08627451 0.01960784 0.83137255
v -0.00280365 0.01180943 -0.01078809 0.08627451 0.01960784 0.83137255
v -0.01188772 0.01181012 -0.01078809 0.08627451 0.01960784 0.83137255
v -0.01188772 0.01182382 -0.01075994 0.08627451 0.01960784 0.83137255
v -0.04845492 0.01181012 -0.01078809 0.08627451 0.01960784 0.83137255
v -0.04868122 0.01179094 -0.01078809 0.08627451 0.01960784 0.83137255
v -0.04870431 0.01189507 -0.01056968 0.08627451 0.01960784 0.83137255
v -0.04894446 0.01183478 -0.01056968 0.08627451 0.01960784 0.83137255
v -0.04897217 0.01189507 -0.01033720 0.08627451 0.01960784 0.83137255
v -0.04897679 0.01191631 -0.01009796 0.08627451 0.01960784 0.83137255
v -0.04897679 0.01191631 -0.00572752 0.08627451 0.01960784 0.83137255
v -0.00280365 0.00502893 -0.01026008 0.08627451 0.01960784 0.83137255
v -0.02101797 0.00500427 -0.01026008 0.08627451 0.01960784 0.83137255
v -0.02103645 0.00500427 -0.01037041 0.08627451 0.01960784 0.83137255
v -0.02106416 0.00500427 -0.01047793 0.08627451 0.01960784 0.83137255
v -0.02110110 0.00500427 -0.01058488 0.08627451 0.01960784 0.83137255
v -0.02115190 0.00500427 -0.01068677 0.08627451 0.01960784 0.83137255
v -0.02121194 0.00500427 -0.01078696 0.08627451 0.01960784 0.83137255
v -0.02127660 0.00500427 -0.01088378 0.08627451 0.01960784 0.83137255
v -0.02143361 0.00500427 -0.01105772 0.08627451 0.01960784 0.83137255
v -0.02161373 0.00500427 -0.01120014 0.08627451 0.01960784 0.83137255
v -0.02182155 0.00500427 -0.01131948 0.08627451 0.01960784 0.83137255
v -0.02204784 0.00500427 -0.01140673 0.08627451 0.01960784 0.83137255
v -0.02206632 0.00500427 -0.01141123 0.08627451 0.01960784 0.83137255
v -0.02228337 0.00500427 -0.01146020 0.08627451 0.01960784 0.83137255
v -0.04998356 0.01056186 -0.01009796 0.08627451 0.01960784 0.83137255
v -0.04995585 0.01081192 -0.00572752 0.08627451 0.01960784 0.83137255
v -0.04995585 0.00500427 -0.01033720 0.08627451 0.01960784 0.83137255
v -0.00280365 0.01180464 -0.01079484 0.08627451 0.01960784 0.83137255
v -0.00280365 0.01166625 -0.01098511 0.08627451 0.01960784 0.83137255
v -0.04845492 0.01166625 -0.01098511 0.08627451 0.01960784 0.83137255
v -0.04865813 0.01164912 -0.01098511 0.08627451 0.01960784 0.83137255
v -0.04890751 0.01173407 -0.01078809 0.08627451 0.01960784 0.83137255
v -0.04911533 0.01164295 -0.01078809 0.08627451 0.01960784 0.83137255
v -0.04917075 0.01173407 -0.01056968 0.08627451 0.01960784 0.83137255
v -0.04920770 0.01179094 -0.01033720 0.08627451 0.01960784 0.83137255
v -0.04921694 0.01181012 -0.01009796 0.08627451 0.01960784 0.83137255
v -0.04921694 0.01181012 -0.00572752 0.08627451 0.01960784 0.83137255
v -0.00280365 0.00504675 -0.01036985 0.08627451 0.01960784 0.83137255
v -0.02230646 0.00500427 -0.01146189 0.08627451 0.01960784 0.83137255
v -0.02253276 0.00500427 -0.01147766 0.08627451 0.01960784 0.83137255
v -0.04995585 0.01081192 -0.01009796 0.08627451 0.01960784 0.83137255
v -0.04993276 0.01080918 -0.01033720 0.08627451 0.01960784 0.83137255
v -0.04995585 0.01056186 -0.01033720 0.08627451 0.01960784 0.83137255
v -0.04990505 0.01100238 -0.00572752 0.08627451 0.01960784 0.83137255
v -0.04990505 0.00500427 -0.01050889 0.08627451 0.01960784 0.83137255
v -0.00280365 0.01150799 -0.01113653 0.08627451 0.01960784 0.83137255
v -0.01188772 0.01155458 -0.01109206 0.08627451 0.01960784 0.83137255
v -0.03613808 0.01155526 -0.01109150 0.08627451 0.01960784 0.83137255
v -0.04845492 0.01148812 -0.01115511 0.08627451 0.01960784 0.83137255
v -0.04862580 0.01147442 -0.01115511 0.08627451 0.01960784 0.83137255
v -0.04879206 0.01143263 -0.01115511 0.08627451 0.01960784 0.83137255
v -0.04885671 0.01159911 -0.01098511 0.08627451 0.01960784 0.83137255
v -0.04903682 0.01151826 -0.01098511 0.08627451 0.01960784 0.83137255
v -0.04920770 0.01140796 -0.01098511 0.08627451 0.01960784 0.83137255
v -0.04930468 0.01151826 -0.01078809 0.08627451 0.01960784 0.83137255
v -0.04937857 0.01159911 -0.01056968 0.08627451 0.01960784 0.83137255
v -0.04942013 0.01164912 -0.01033720 0.08627451 0.01960784 0.83137255
v -0.04943861 0.01166625 -0.01009796 0.08627451 0.01960784 0.83137255
v -0.04943861 0.01166625 -0.00572752 0.08627451 0.01960784 0.83137255
v -0.00280365 0.00507415 -0.01047849 0.08627451 0.01960784 0.83137255
v -0.04845492 0.00500427 -0.01147766 0.08627451 0.01960784 0.83137255
v -0.00280365 0.00645875 -0.01147766 0.08627451 0.01960784 0.83137255
v -0.00280365 0.00624157 -0.01146133 0.08627451 0.01960784 0.83137255
v -0.00280365 0.00622719 -0.01146020 0.08627451 0.01960784 0.83137255
v -0.00280365 0.00600179 -0.01140673 0.08627451 0.01960784 0.83137255
v -0.00280365 0.00578803 -0.01131948 0.08627451 0.01960784 0.83137255
v -0.00280365 0.00559826 -0.01120408 0.08627451 0.01960784 0.83137255
v -0.00280365 0.00559209 -0.01120014 0.08627451 0.01960784 0.83137255
v -0.00280365 0.00542630 -0.01105941 0.08627451 0.01960784 0.83137255
v -0.00280365 0.00541808 -0.01105209 0.08627451 0.01960784 0.83137255
v -0.00280365 0.00527694 -0.01088491 0.08627451 0.01960784 0.83137255
v -0.00280365 0.00520980 -0.01078528 0.08627451 0.01960784 0.83137255
v -0.00280365 0.00515568 -0.01068620 0.08627451 0.01960784 0.83137255
v -0.00280365 0.00511115 -0.01058488 0.08627451 0.01960784 0.83137255
v -0.04988658 0.01105513 -0.01009796 0.08627451 0.01960784 0.83137255
v -0.04986349 0.01104760 -0.01033720 0.08627451 0.01960784 0.83137255
v -0.04980345 0.01102567 -0.01056968 0.08627451 0.01960784 0.83137255
v -0.04986349 0.01079753 -0.01056968 0.08627451 0.01960784 0.83137255
v -0.04988658 0.01056186 -0.01056968 0.08627451 0.01960784 0.83137255
v -0.04988658 0.01105513 -0.00572752 0.08627451 0.01960784 0.83137255
v -0.04988658 0.00500427 -0.01056968 0.08627451 0.01960784 0.83137255
v -0.00280365 0.01148812 -0.01115511 0.08627451 0.01960784 0.83137255
v -0.03613808 0.01146277 -0.01117256 0.08627451 0.01960784 0.83137255
v -0.04845492 0.01128190 -0.01129302 0.08627451 0.01960784 0.83137255
v -0.04858423 0.01127163 -0.01129302 0.08627451 0.01960784 0.83137255
v -0.04871816 0.01123943 -0.01129302 0.08627451 0.01960784 0.83137255
v -0.04883824 0.01118599 -0.01129302 0.08627451 0.01960784 0.83137255
v -0.04894446 0.01136412 -0.01115511 0.08627451 0.01960784 0.83137255
v -0.04908762 0.01127163 -0.01115511 0.08627451 0.01960784 0.83137255
v -0.04935086 0.01127163 -0.01098511 0.08627451 0.01960784 0.83137255
v -0.04946632 0.01136412 -0.01078809 0.08627451 0.01960784 0.83137255
v -0.04955406 0.01143263 -0.01056968 0.08627451 0.01960784 0.83137255
v -0.04960486 0.01147442 -0.01033720 0.08627451 0.01960784 0.83137255
v -0.04962334 0.01148812 -0.01009796 0.08627451 0.01960784 0.83137255
v -0.04962334 0.01148812 -0.00572752 0.08627451 0.01960784 0.83137255
v -0.04852882 0.00500427 -0.01147259 0.08627451 0.01960784 0.83137255
v -0.04845492 0.01056186 -0.01147766 0.08627451 0.01960784 0.83137255
v -0.00280365 0.01056254 -0.01147766 0.08627451 0.01960784 0.83137255
v -0.04977574 0.01128190 -0.01009796 0.08627451 0.01960784 0.83137255
v -0.04975265 0.01127163 -0.01033720 0.08627451 0.01960784 0.83137255
v -0.04969261 0.01123943 -0.01056968 0.08627451 0.01960784 0.83137255
v -0.04959563 0.01118599 -0.01078809 0.08627451 0.01960784 0.83137255
v -0.04969261 0.01098936 -0.01078809 0.08627451 0.01960784 0.83137255
v -0.04975265 0.01077904 -0.01078809 0.08627451 0.01960784 0.83137255
v -0.04977574 0.01056186 -0.01078809 0.08627451 0.01960784 0.83137255
v -0.04980807 0.00500427 -0.01073067 0.08627451 0.01960784 0.83137255
v -0.04977574 0.01128190 -0.00572752 0.08627451 0.01960784 0.83137255
v -0.00280365 0.01146551 -0.01117031 0.08627451 0.01960784 0.83137255
v -0.01188772 0.01146346 -0.01117200 0.08627451 0.01960784 0.83137255
v -0.02382586 0.01133397 -0.01125868 0.08627451 0.01960784 0.83137255
v -0.00280365 0.01128259 -0.01129302 0.08627451 0.01960784 0.83137255
v -0.04845492 0.01105513 -0.01139491 0.08627451 0.01960784 0.83137255
v -0.01188310 0.01128259 -0.01129302 0.08627451 0.01960784 0.83137255
v -0.00280365 0.01127437 -0.01129696 0.08627451 0.01960784 0.83137255
v -0.03613808 0.01125450 -0.01130597 0.08627451 0.01960784 0.83137255
v -0.04854729 0.01104760 -0.01139491 0.08627451 0.01960784 0.83137255
v -0.04871816 0.01098936 -0.01139491 0.08627451 0.01960784 0.83137255
v -0.04863504 0.01102567 -0.01139491 0.08627451 0.01960784 0.83137255
v -0.04879206 0.01094003 -0.01139491 0.08627451 0.01960784 0.83137255
v -0.04894446 0.01111405 -0.01129302 0.08627451 0.01960784 0.83137255
v -0.04920770 0.01115721 -0.01115511 0.08627451 0.01960784 0.83137255
v -0.04930468 0.01102567 -0.01115511 0.08627451 0.01960784 0.83137255
v -0.04946632 0.01111405 -0.01098511 0.08627451 0.01960784 0.83137255
v -0.04872278 0.00500427 -0.01145683 0.08627451 0.01960784 0.83137255
v -0.04872278 0.01056186 -0.01145683 0.08627451 0.01960784 0.83137255
v -0.04871816 0.01060570 -0.01145683 0.08627451 0.01960784 0.83137255
v -0.04870431 0.01064818 -0.01145683 0.08627451 0.01960784 0.83137255
v -0.04868122 0.01068723 -0.01145683 0.08627451 0.01960784 0.83137255
v -0.04865813 0.01072286 -0.01145683 0.08627451 0.01960784 0.83137255
v -0.04862580 0.01075437 -0.01145683 0.08627451 0.01960784 0.83137255
v -0.04858423 0.01077904 -0.01145683 0.08627451 0.01960784 0.83137255
v -0.04854729 0.01079753 -0.01145683 0.08627451 0.01960784 0.83137255
v -0.04850111 0.01080918 -0.01145683 0.08627451 0.01960784 0.83137255
v -0.04845492 0.01081192 -0.01145683 0.08627451 0.01960784 0.83137255
v -0.03613808 0.01059406 -0.01147540 0.08627451 0.01960784 0.83137255
v -0.00280365 0.01057145 -0.01147709 0.08627451 0.01960784 0.83137255
v -0.01188310 0.01056254 -0.01147766 0.08627451 0.01960784 0.83137255
v -0.04955406 0.01094003 -0.01098511 0.08627451 0.01960784 0.83137255
v -0.04960486 0.01075437 -0.01098511 0.08627451 0.01960784 0.83137255
v -0.04962334 0.01056186 -0.01098511 0.08627451 0.01960784 0.83137255
v -0.04966490 0.00500427 -0.01093332 0.08627451 0.01960784 0.83137255
v -0.04977574 0.00500427 -0.01078809 0.08627451 0.01960784 0.83137255
v -0.01188772 0.01114351 -0.01135550 0.08627451 0.01960784 0.83137255
v -0.01188772 0.01105513 -0.01139491 0.08627451 0.01960784 0.83137255
v -0.02382586 0.01087358 -0.01144163 0.08627451 0.01960784 0.83137255
v -0.00280365 0.01117708 -0.01134031 0.08627451 0.01960784 0.83137255
v -0.04885671 0.01087906 -0.01139491 0.08627451 0.01960784 0.83137255
v -0.04903682 0.01102567 -0.01129302 0.08627451 0.01960784 0.83137255
v -0.04911533 0.01092222 -0.01129302 0.08627451 0.01960784 0.83137255
v -0.04937857 0.01087906 -0.01115511 0.08627451 0.01960784 0.83137255
v -0.04891213 0.00500427 -0.01141123 0.08627451 0.01960784 0.83137255
v -0.04897679 0.01056186 -0.01139491 0.08627451 0.01960784 0.83137255
v -0.04897217 0.01064818 -0.01139491 0.08627451 0.01960784 0.83137255
v -0.04894446 0.01073108 -0.01139491 0.08627451 0.01960784 0.83137255
v -0.04890751 0.01080918 -0.01139491 0.08627451 0.01960784 0.83137255
v -0.01188310 0.01081260 -0.01145683 0.08627451 0.01960784 0.83137255
v -0.00280365 0.01080301 -0.01145795 0.08627451 0.01960784 0.83137255
v -0.03613808 0.01078177 -0.01145964 0.08627451 0.01960784 0.83137255
v -0.02382586 0.01074957 -0.01146246 0.08627451 0.01960784 0.83137255
v -0.01150441 0.01065640 -0.01147034 0.08627451 0.01960784 0.83137255
v -0.01188772 0.01059474 -0.01147540 0.08627451 0.01960784 0.83137255
v -0.01188310 0.01059474 -0.01147540 0.08627451 0.01960784 0.83137255
v -0.00280365 0.01069614 -0.01146696 0.08627451 0.01960784 0.83137255
v -0.04942013 0.01072286 -0.01115511 0.08627451 0.01960784 0.83137255
v -0.04943861 0.01056186 -0.01115511 0.08627451 0.01960784 0.83137255
v -0.04962334 0.00500427 -0.01098511 0.08627451 0.01960784 0.83137255
v -0.00280365 0.01105445 -0.01139491 0.08627451 0.01960784 0.83137255
v -0.00280365 0.01096059 -0.01141911 0.08627451 0.01960784 0.83137255
v -0.01188310 0.01096538 -0.01141799 0.08627451 0.01960784 0.83137255
v -0.00280365 0.01083932 -0.01145007 0.08627451 0.01960784 0.83137255
v -0.00280365 0.01081260 -0.01145683 0.08627451 0.01960784 0.83137255
v -0.04917075 0.01080918 -0.01129302 0.08627451 0.01960784 0.83137255
v -0.04920770 0.01068723 -0.01129302 0.08627451 0.01960784 0.83137255
v -0.04897679 0.00500427 -0.01139491 0.08627451 0.01960784 0.83137255
v -0.04904144 0.00500427 -0.01136789 0.08627451 0.01960784 0.83137255
v -0.04921694 0.01056186 -0.01129302 0.08627451 0.01960784 0.83137255
v -0.04927697 0.00500427 -0.01125699 0.08627451 0.01960784 0.83137255
v -0.04943861 0.00500427 -0.01115511 0.08627451 0.01960784 0.83137255
v -0.04921694 0.00500427 -0.01129302 0.08627451 0.01960784 0.83137255
f 1 2 9
f 1 9 3
f 1 3 10
f 1 10 20
f 1 20 33
f 1 33 47
f 1 47 74
f 1 74 96
f 1 96 132
f 1 132 144
f 1 144 117
f 1 117 81
f 1 81 63
f 1 63 36
f 1 36 23
f 1 23 12
f 1 12 4
f 1 4 11
f 1 11 21
f 1 21 34
f 1 34 48
f 1 48 75
f 1 75 97
f 1 97 111
f 1 111 110
f 1 110 109
f 1 109 108
f 1 108 107
f 1 107 106
f 1 106 105
f 1 105 104
f 1 104 103
f 1 103 102
f 1 102 101
f 1 101 100
f 1 100 99
f 1 99 135
f 1 135 173
f 1 173 200
f 1 200 194
f 1 194 208
f 1 208 207
f 1 207 205
f 1 205 204
f 1 204 183
f 1 183 151
f 1 151 148
f 1 148 145
f 1 145 119
f 1 119 83
f 1 83 66
f 1 66 65
f 1 65 38
f 1 38 28
f 1 28 27
f 1 27 26
f 1 26 25
f 1 25 24
f 1 24 14
f 1 14 13
f 1 13 5
f 1 5 2
f 2 5 6
f 2 6 7
f 2 7 8
f 2 8 9
f 3 9 19
f 3 19 10
f 4 12 11
f 5 13 6
f 6 13 14
f 6 14 15
f 6 15 16
f 6 16 17
f 6 17 8
f 6 8 7
f 8 17 9
f 9 17 18
f 9 18 19
f 10 19 20
f 11 12 21
f 12 22 21
f 12 23 37
f 12 37 64
f 12 64 82
f 12 82 118
f 12 118 143
f 12 143 179
f 12 179 178
f 12 178 203
f 12 203 215
f 12 215 214
f 12 214 216
f 12 216 212
f 12 212 211
f 12 211 188
f 12 188 161
f 12 161 133
f 12 133 98
f 12 98 77
f 12 77 76
f 12 76 61
f 12 61 60
f 12 60 59
f 12 59 58
f 12 58 57
f 12 57 56
f 12 56 55
f 12 55 54
f 12 54 53
f 12 53 52
f 12 52 51
f 12 51 50
f 12 50 49
f 12 49 35
f 12 35 22
f 14 24 15
f 15 24 25
f 15 25 26
f 15 26 27
f 15 27 28
f 15 28 29
f 15 29 30
f 15 30 16
f 16 30 17
f 17 30 31
f 17 31 32
f 17 32 19
f 17 19 18
f 19 32 20
f 20 32 33
f 21 22 35
f 21 35 34
f 23 36 62
f 23 62 37
f 28 38 39
f 28 39 40
f 28 40 29
f 29 41 30
f 29 40 39
f 29 39 41
f 30 41 42
f 30 42 43
f 30 43 31
f 31 43 44
f 31 44 45
f 31 45 32
f 32 45 46
f 32 46 47
f 32 47 33
f 34 35 49
f 34 49 50
f 34 50 51
f 34 51 52
f 34 52 53
f 34 53 54
f 34 54 55
f 34 55 56
f 34 56 57
f 34 57 58
f 34 58 59
f 34 59 60
f 34 60 61
f 34 61 48
f 36 63 78
f 36 78 62
f 37 62 80
f 37 80 64
f 38 65 39
f 39 65 66
f 39 66 67
f 39 67 41
f 41 67 68
f 41 68 42
f 42 68 69
f 42 69 44
f 42 44 43
f 44 69 70
f 44 70 71
f 44 71 72
f 44 72 45
f 45 72 46
f 46 72 73
f 46 73 74
f 46 74 47
f 48 61 76
f 48 76 77
f 48 77 75
f 62 78 79
f 62 79 80
f 63 81 78
f 64 80 82
f 66 83 84
f 66 84 85
f 66 85 67
f 67 85 86
f 67 86 87
f 67 87 68
f 68 87 88
f 68 88 89
f 68 89 69
f 69 89 70
f 70 90 91
f 70 91 92
f 70 92 93
f 70 93 71
f 70 89 90
f 71 93 72
f 72 93 94
f 72 94 95
f 72 95 73
f 73 95 96
f 73 96 74
f 75 77 97
f 77 98 134
f 77 134 174
f 77 174 135
f 77 135 99
f 77 99 100
f 77 100 101
f 77 101 102
f 77 102 103
f 77 103 104
f 77 104 105
f 77 105 106
f 77 106 107
f 77 107 108
f 77 108 109
f 77 109 110
f 77 110 111
f 77 111 97
f 78 81 112
f 78 112 79
f 79 112 113
f 79 113 114
f 79 114 115
f 79 115 116
f 79 116 80
f 80 116 82
f 81 117 112
f 82 116 118
f 83 119 86
f 83 86 85
f 83 85 84
f 86 119 120
f 86 120 121
f 86 121 122
f 86 122 87
f 87 122 123
f 87 123 88
f 88 123 124
f 88 124 125
f 88 125 90
f 88 90 89
f 90 125 91
f 91 125 126
f 91 126 127
f 91 127 92
f 92 127 128
f 92 128 129
f 92 129 93
f 93 129 130
f 93 130 94
f 94 130 95
f 95 130 131
f 95 131 132
f 95 132 96
f 98 133 134
f 112 117 144
f 112 144 136
f 112 136 113
f 113 136 137
f 113 137 114
f 114 137 138
f 114 138 139
f 114 139 140
f 114 140 141
f 114 141 115
f 115 141 142
f 115 142 116
f 116 142 143
f 116 143 118
f 119 145 146
f 119 146 120
f 120 147 121
f 120 146 148
f 120 148 147
f 121 149 122
f 121 147 150
f 121 150 151
f 121 151 152
f 121 152 149
f 122 153 123
f 122 149 153
f 123 154 124
f 123 153 155
f 123 155 154
f 124 154 156
f 124 156 157
f 124 157 126
f 124 126 125
f 126 158 127
f 126 157 158
f 127 158 159
f 127 159 160
f 127 160 128
f 128 160 139
f 128 139 129
f 129 139 138
f 129 138 137
f 129 137 130
f 130 137 136
f 130 136 131
f 131 136 144
f 131 144 132
f 133 161 162
f 133 162 134
f 134 162 163
f 134 163 164
f 134 164 165
f 134 165 166
f 134 166 167
f 134 167 168
f 134 168 169
f 134 169 170
f 134 170 171
f 134 171 172
f 134 172 173
f 134 173 174
f 135 174 173
f 139 160 175
f 139 175 140
f 140 175 141
f 141 175 176
f 141 176 142
f 142 176 177
f 142 177 178
f 142 178 179
f 142 179 143
f 145 148 146
f 147 148 150
f 148 151 150
f 149 171 170
f 149 170 153
f 149 152 180
f 149 180 181
f 149 181 182
f 149 182 171
f 151 183 181
f 151 181 180
f 151 180 152
f 153 170 155
f 154 155 169
f 154 169 168
f 154 168 167
f 154 167 156
f 155 170 169
f 156 184 157
f 156 167 184
f 157 184 185
f 157 185 158
f 158 185 186
f 158 186 159
f 159 187 175
f 159 175 160
f 159 186 187
f 161 188 162
f 162 188 189
f 162 189 190
f 162 190 163
f 163 190 164
f 164 190 191
f 164 191 192
f 164 192 165
f 165 192 166
f 166 192 184
f 166 184 167
f 171 182 193
f 171 193 194
f 171 194 195
f 171 195 172
f 172 195 196
f 172 196 197
f 172 197 198
f 172 198 173
f 173 198 199
f 173 199 200
f 175 187 176
f 176 187 201
f 176 201 202
f 176 202 177
f 177 203 178
f 177 202 215
f 177 215 203
f 181 183 204
f 181 204 205
f 181 205 206
f 181 206 182
f 182 206 205
f 182 205 207
f 182 207 208
f 182 208 193
f 184 192 186
f 184 186 185
f 186 209 187
f 186 192 209
f 187 209 210
f 187 210 201
f 188 211 189
f 189 211 212
f 189 212 213
f 189 213 190
f 190 213 210
f 190 210 209
f 190 209 191
f 191 209 192
f 193 208 194
f 194 200 197
f 194 197 196
f 194 196 195
f 197 200 199
f 197 199 198
f 201 210 202
f 202 210 213
f 202 213 214
f 202 214 215
f 212 216 213
f 213 216 214