# https://github.com/mikedh/trimesh
v -0.02100575 0.00500261 -0.01000494 0.20784314 0.16078431 0.65098039
v -0.02100575 0.00500261 -0.01014962 0.20784314 0.16078431 0.65098039
v -0.02121294 0.00500261 -0.00572752 0.20784314 0.16078431 0.65098039
v -0.02098872 -0.00521427 -0.00572752 0.20784314 0.16078431 0.65098039
v -0.02098872 -0.00501782 -0.01003083 0.20784314 0.16078431 0.65098039
v -0.02101426 0.00500261 -0.01026052 0.20784314 0.16078431 0.65098039
v -0.02098872 -0.00501782 -0.01014962 0.20784314 0.16078431 0.65098039
v -0.02098872 -0.00502615 -0.01026052 0.20784314 0.16078431 0.65098039
v -0.02098872 -0.00504612 -0.01037086 0.20784314 0.16078431 0.65098039
v -0.02098872 -0.00507276 -0.01047895 0.20784314 0.16078431 0.65098039
v -0.02098872 -0.00510939 -0.01058479 0.20784314 0.16078431 0.65098039
v -0.02098872 -0.00515434 -0.01068781 0.20784314 0.16078431 0.65098039
v -0.02098872 -0.00520927 -0.01078690 0.20784314 0.16078431 0.65098039
v -0.02098872 -0.00526921 -0.01087866 0.20784314 0.16078431 0.65098039
v -0.02098872 -0.00527420 -0.01088541 0.20784314 0.16078431 0.65098039
v -0.02098872 -0.00541737 -0.01105262 0.20784314 0.16078431 0.65098039
v -0.02098872 -0.00542403 -0.01105937 0.20784314 0.16078431 0.65098039
v -0.02098872 -0.00559051 -0.01120068 0.20784314 0.16078431 0.65098039
v -0.02098872 -0.00560217 -0.01120799 0.20784314 0.16078431 0.65098039
v -0.02098872 -0.00578696 -0.01132002 0.20784314 0.16078431 0.65098039
v -0.02098872 -0.00600005 -0.01140728 0.20784314 0.16078431 0.65098039
v -0.02098872 -0.00602336 -0.01141291 0.20784314 0.16078431 0.65098039
v -0.02098872 -0.00622647 -0.01146077 0.20784314 0.16078431 0.65098039
v -0.04998356 0.00500261 -0.00572752 0.20784314 0.16078431 0.65098039
v -0.02098872 -0.01200166 -0.00572752 0.20784314 0.16078431 0.65098039
v -0.02103413 0.00500261 -0.01037086 0.20784314 0.16078431 0.65098039
v -0.02098872 -0.00623978 -0.01146189 0.20784314 0.16078431 0.65098039
v -0.02127537 0.00500261 -0.01088429 0.20784314 0.16078431 0.65098039
v -0.02120726 0.00500261 -0.01078746 0.20784314 0.16078431 0.65098039
v -0.02115049 0.00500261 -0.01068725 0.20784314 0.16078431 0.65098039
v -0.02110225 0.00500261 -0.01058535 0.20784314 0.16078431 0.65098039
v -0.02106251 0.00500261 -0.01047839 0.20784314 0.16078431 0.65098039
v -0.04998356 0.00500261 -0.01009839 0.20784314 0.16078431 0.65098039
v -0.04998356 -0.01056160 -0.00572752 0.20784314 0.16078431 0.65098039
v -0.02098872 -0.01200166 -0.01010571 0.20784314 0.16078431 0.65098039
v -0.04845946 -0.01200166 -0.00572752 0.20784314 0.16078431 0.65098039
v -0.02098872 -0.00625477 -0.01146302 0.20784314 0.16078431 0.65098039
v -0.02142580 0.00500261 -0.01105262 0.20784314 0.16078431 0.65098039
v -0.04998356 -0.01056160 -0.01009839 0.20784314 0.16078431 0.65098039
v -0.04995802 0.00500261 -0.01033765 0.20784314 0.16078431 0.65098039
v -0.04996369 -0.01075805 -0.00572752 0.20784314 0.16078431 0.65098039
v -0.02098872 -0.01199833 -0.01015131 0.20784314 0.16078431 0.65098039
v -0.04845946 -0.01200166 -0.01009839 0.20784314 0.16078431 0.65098039
v -0.03613892 -0.01199999 -0.01012823 0.20784314 0.16078431 0.65098039
v -0.04851622 -0.01199833 -0.00572752 0.20784314 0.16078431 0.65098039
v -0.02098872 -0.00645787 -0.01147822 0.20784314 0.16078431 0.65098039
v -0.02161028 0.00500261 -0.01120068 0.20784314 0.16078431 0.65098039
v -0.04995802 -0.01056160 -0.01033765 0.20784314 0.16078431 0.65098039
v -0.04993531 -0.01081299 -0.01033427 0.20784314 0.16078431 0.65098039
v -0.04995802 -0.01081299 -0.01009839 0.20784314 0.16078431 0.65098039
v -0.04994099 0.00500261 -0.01039901 0.20784314 0.16078431 0.65098039
v -0.04995802 -0.01081299 -0.00572752 0.20784314 0.16078431 0.65098039
v -0.02382406 -0.01198667 -0.01027797 0.20784314 0.16078431 0.65098039
v -0.02098872 -0.01198168 -0.01033089 0.20784314 0.16078431 0.65098039
v -0.04872341 -0.01198001 -0.01009839 0.20784314 0.16078431 0.65098039
v -0.04871773 -0.01198001 -0.01014005 0.20784314 0.16078431 0.65098039
v -0.04870638 -0.01198001 -0.01018002 0.20784314 0.16078431 0.65098039
v -0.04868651 -0.01198001 -0.01021774 0.20784314 0.16078431 0.65098039
v -0.04866097 -0.01198001 -0.01025208 0.20784314 0.16078431 0.65098039
v -0.04862691 -0.01198001 -0.01028192 0.20784314 0.16078431 0.65098039
v -0.04859002 -0.01198001 -0.01030556 0.20784314 0.16078431 0.65098039
v -0.04854744 -0.01198001 -0.01032358 0.20784314 0.16078431 0.65098039
v -0.04850487 -0.01198001 -0.01033427 0.20784314 0.16078431 0.65098039
v -0.04845946 -0.01198001 -0.01033765 0.20784314 0.16078431 0.65098039
v -0.04872341 -0.01198001 -0.00572752 0.20784314 0.16078431 0.65098039
v -0.02098872 -0.01056160 -0.01147822 0.20784314 0.16078431 0.65098039
v -0.02252701 0.00500261 -0.01147822 0.20784314 0.16078431 0.65098039
v -0.02230563 0.00500261 -0.01146245 0.20784314 0.16078431 0.65098039
v -0.02228293 0.00500261 -0.01146077 0.20784314 0.16078431 0.65098039
v -0.02206439 0.00500261 -0.01141179 0.20784314 0.16078431 0.65098039
v -0.02204452 0.00500261 -0.01140728 0.20784314 0.16078431 0.65098039
v -0.02181747 0.00500261 -0.01132002 0.20784314 0.16078431 0.65098039
v -0.04988990 -0.01056160 -0.01057015 0.20784314 0.16078431 0.65098039
v -0.04986720 -0.01081299 -0.01056284 0.20784314 0.16078431 0.65098039
v -0.04980476 -0.01105438 -0.01054201 0.20784314 0.16078431 0.65098039
v -0.04986720 -0.01105438 -0.01032358 0.20784314 0.16078431 0.65098039
v -0.04988990 -0.01105438 -0.01009839 0.20784314 0.16078431 0.65098039
v -0.04994383 -0.01086460 -0.00572752 0.20784314 0.16078431 0.65098039
v -0.04988990 0.00500261 -0.01057015 0.20784314 0.16078431 0.65098039
v -0.02098872 -0.01197835 -0.01034497 0.20784314 0.16078431 0.65098039
v -0.04877734 -0.01196669 -0.00572752 0.20784314 0.16078431 0.65098039
v -0.04892492 -0.01193007 -0.00572752 0.20784314 0.16078431 0.65098039
v -0.04897884 -0.01191509 -0.01009839 0.20784314 0.16078431 0.65098039
v -0.04897033 -0.01191509 -0.01018002 0.20784314 0.16078431 0.65098039
v -0.04894763 -0.01191509 -0.01025940 0.20784314 0.16078431 0.65098039
v -0.04891073 -0.01191509 -0.01033427 0.20784314 0.16078431 0.65098039
v -0.04885680 -0.01191509 -0.01040183 0.20784314 0.16078431 0.65098039
v -0.04879436 -0.01191509 -0.01045981 0.20784314 0.16078431 0.65098039
v -0.04871773 -0.01191509 -0.01050710 0.20784314 0.16078431 0.65098039
v -0.04863543 -0.01191509 -0.01054201 0.20784314 0.16078431 0.65098039
v -0.04854744 -0.01191509 -0.01056284 0.20784314 0.16078431 0.65098039
v -0.04845946 -0.01191509 -0.01057015 0.20784314 0.16078431 0.65098039
v -0.02382406 -0.01196503 -0.01039620 0.20784314 0.16078431 0.65098039
v -0.02098872 -0.01056993 -0.01147765 0.20784314 0.16078431 0.65098039
v -0.04845946 -0.01056160 -0.01147822 0.20784314 0.16078431 0.65098039
v -0.04845946 0.00500261 -0.01147822 0.20784314 0.16078431 0.65098039
v -0.04986152 0.00500261 -0.01062758 0.20784314 0.16078431 0.65098039
v -0.04977921 -0.01056160 -0.01078858 0.20784314 0.16078431 0.65098039
v -0.04975651 -0.01081299 -0.01077789 0.20784314 0.16078431 0.65098039
v -0.04969975 -0.01105438 -0.01074692 0.20784314 0.16078431 0.65098039
v -0.04969975 -0.01128246 -0.01050710 0.20784314 0.16078431 0.65098039
v -0.04975651 -0.01128246 -0.01030556 0.20784314 0.16078431 0.65098039
v -0.04977921 -0.01128246 -0.01009839 0.20784314 0.16078431 0.65098039
v -0.04986720 -0.01110433 -0.00572752 0.20784314 0.16078431 0.65098039
v -0.04988990 -0.01105438 -0.00572752 0.20784314 0.16078431 0.65098039
v -0.02098872 -0.01196669 -0.01038944 0.20784314 0.16078431 0.65098039
v -0.04897884 -0.01191509 -0.00572752 0.20784314 0.16078431 0.65098039
v -0.04903277 -0.01189344 -0.00572752 0.20784314 0.16078431 0.65098039
v -0.04922009 -0.01181020 -0.01009839 0.20784314 0.16078431 0.65098039
v -0.04920874 -0.01181020 -0.01021774 0.20784314 0.16078431 0.65098039
v -0.04917468 -0.01181020 -0.01033427 0.20784314 0.16078431 0.65098039
v -0.04911792 -0.01181020 -0.01044349 0.20784314 0.16078431 0.65098039
v -0.04904129 -0.01181020 -0.01054201 0.20784314 0.16078431 0.65098039
v -0.04894763 -0.01181020 -0.01062701 0.20784314 0.16078431 0.65098039
v -0.04883977 -0.01181020 -0.01069570 0.20784314 0.16078431 0.65098039
v -0.04859002 -0.01181020 -0.01077789 0.20784314 0.16078431 0.65098039
v -0.04871773 -0.01181020 -0.01074692 0.20784314 0.16078431 0.65098039
v -0.04845946 -0.01181020 -0.01078858 0.20784314 0.16078431 0.65098039
v -0.02098872 -0.01188678 -0.01063095 0.20784314 0.16078431 0.65098039
v -0.02098872 -0.01191509 -0.01057015 0.20784314 0.16078431 0.65098039
v -0.02098872 -0.01193007 -0.01051949 0.20784314 0.16078431 0.65098039
v -0.02098872 -0.01064651 -0.01147146 0.20784314 0.16078431 0.65098039
v -0.03613892 -0.01065650 -0.01147090 0.20784314 0.16078431 0.65098039
v -0.03613892 -0.01059324 -0.01147597 0.20784314 0.16078431 0.65098039
v -0.04845946 -0.01081299 -0.01145739 0.20784314 0.16078431 0.65098039
v -0.04871773 -0.01081299 -0.01143712 0.20784314 0.16078431 0.65098039
v -0.04872341 -0.01056160 -0.01145739 0.20784314 0.16078431 0.65098039
v -0.04852758 0.00500261 -0.01147315 0.20784314 0.16078431 0.65098039
v -0.04977921 0.00500261 -0.01078858 0.20784314 0.16078431 0.65098039
v -0.04962595 -0.01056160 -0.01098562 0.20784314 0.16078431 0.65098039
v -0.04960892 -0.01081299 -0.01097211 0.20784314 0.16078431 0.65098039
v -0.04955500 -0.01105438 -0.01093214 0.20784314 0.16078431 0.65098039
v -0.04946985 -0.01128246 -0.01086684 0.20784314 0.16078431 0.65098039
v -0.04960041 -0.01128246 -0.01069570 0.20784314 0.16078431 0.65098039
v -0.04946985 -0.01148723 -0.01062701 0.20784314 0.16078431 0.65098039
v -0.04955500 -0.01148723 -0.01045981 0.20784314 0.16078431 0.65098039
v -0.04960892 -0.01148723 -0.01028192 0.20784314 0.16078431 0.65098039
v -0.04977921 -0.01128246 -0.00572752 0.20784314 0.16078431 0.65098039
v -0.04962595 -0.01148723 -0.01009839 0.20784314 0.16078431 0.65098039
v -0.04922009 -0.01181020 -0.00572752 0.20784314 0.16078431 0.65098039
v -0.04926834 -0.01177857 -0.00572752 0.20784314 0.16078431 0.65098039
v -0.04943863 -0.01166537 -0.01009839 0.20784314 0.16078431 0.65098039
v -0.04942160 -0.01166537 -0.01025208 0.20784314 0.16078431 0.65098039
v -0.04937903 -0.01166537 -0.01040183 0.20784314 0.16078431 0.65098039
v -0.04930524 -0.01166537 -0.01054201 0.20784314 0.16078431 0.65098039
v -0.04920874 -0.01166537 -0.01066867 0.20784314 0.16078431 0.65098039
v -0.04894763 -0.01166537 -0.01086684 0.20784314 0.16078431 0.65098039
v -0.04908670 -0.01166537 -0.01077789 0.20784314 0.16078431 0.65098039
v -0.04879436 -0.01166537 -0.01093214 0.20784314 0.16078431 0.65098039
v -0.04862691 -0.01166537 -0.01097211 0.20784314 0.16078431 0.65098039
v -0.04845946 -0.01166537 -0.01098562 0.20784314 0.16078431 0.65098039
v -0.02098872 -0.01167036 -0.01097999 0.20784314 0.16078431 0.65098039
v -0.02382406 -0.01181020 -0.01078858 0.20784314 0.16078431 0.65098039
v -0.02382406 -0.01183684 -0.01073398 0.20784314 0.16078431 0.65098039
v -0.02098872 -0.01183351 -0.01074073 0.20784314 0.16078431 0.65098039
v -0.02098872 -0.01075639 -0.01146245 0.20784314 0.16078431 0.65098039
v -0.02382406 -0.01074973 -0.01146302 0.20784314 0.16078431 0.65098039
v -0.04845946 -0.01105438 -0.01139546 0.20784314 0.16078431 0.65098039
v -0.02098872 -0.01081299 -0.01145739 0.20784314 0.16078431 0.65098039
v -0.02382406 -0.01087292 -0.01144219 0.20784314 0.16078431 0.65098039
v -0.04870638 -0.01105438 -0.01137576 0.20784314 0.16078431 0.65098039
v -0.04894763 -0.01105438 -0.01131721 0.20784314 0.16078431 0.65098039
v -0.04897033 -0.01081299 -0.01137576 0.20784314 0.16078431 0.65098039
v -0.04897884 -0.01056160 -0.01139546 0.20784314 0.16078431 0.65098039
v -0.04879152 0.00500261 -0.01144106 0.20784314 0.16078431 0.65098039
v -0.04872341 0.00500261 -0.01145739 0.20784314 0.16078431 0.65098039
v -0.04962595 0.00500261 -0.01098562 0.20784314 0.16078431 0.65098039
v -0.04943863 -0.01056160 -0.01115564 0.20784314 0.16078431 0.65098039
v -0.04942160 -0.01081299 -0.01113931 0.20784314 0.16078431 0.65098039
v -0.04937903 -0.01105438 -0.01109202 0.20784314 0.16078431 0.65098039
v -0.04930524 -0.01128246 -0.01101377 0.20784314 0.16078431 0.65098039
v -0.04920874 -0.01148723 -0.01090793 0.20784314 0.16078431 0.65098039
v -0.04935348 -0.01148723 -0.01077789 0.20784314 0.16078431 0.65098039
v -0.04962595 -0.01148723 -0.00572752 0.20784314 0.16078431 0.65098039
v -0.04958622 -0.01152552 -0.00572752 0.20784314 0.16078431 0.65098039
v -0.04943863 -0.01166537 -0.00572752 0.20784314 0.16078431 0.65098039
v -0.04904129 -0.01148723 -0.01101377 0.20784314 0.16078431 0.65098039
v -0.04866097 -0.01148723 -0.01113931 0.20784314 0.16078431 0.65098039
v -0.04885680 -0.01148723 -0.01109202 0.20784314 0.16078431 0.65098039
v -0.04845946 -0.01148723 -0.01115564 0.20784314 0.16078431 0.65098039
v -0.03613892 -0.01151054 -0.01113425 0.20784314 0.16078431 0.65098039
v -0.02098872 -0.01149389 -0.01115057 0.20784314 0.16078431 0.65098039
v -0.02098872 -0.01166037 -0.01099069 0.20784314 0.16078431 0.65098039
v -0.02382406 -0.01166537 -0.01098562 0.20784314 0.16078431 0.65098039
v -0.02098872 -0.01180521 -0.01079421 0.20784314 0.16078431 0.65098039
v -0.02098872 -0.01181187 -0.01078183 0.20784314 0.16078431 0.65098039
v -0.04845946 -0.01128246 -0.01129356 0.20784314 0.16078431 0.65098039
v -0.04868651 -0.01128246 -0.01127555 0.20784314 0.16078431 0.65098039
v -0.02098872 -0.01105438 -0.01139546 0.20784314 0.16078431 0.65098039
v -0.02098872 -0.01127580 -0.01129694 0.20784314 0.16078431 0.65098039
v -0.03613892 -0.01125416 -0.01130651 0.20784314 0.16078431 0.65098039
v -0.02098872 -0.01086626 -0.01144388 0.20784314 0.16078431 0.65098039
v -0.04891073 -0.01128246 -0.01122150 0.20784314 0.16078431 0.65098039
v -0.04917468 -0.01105438 -0.01122150 0.20784314 0.16078431 0.65098039
v -0.04920874 -0.01081299 -0.01127555 0.20784314 0.16078431 0.65098039
v -0.04904412 0.00500261 -0.01136844 0.20784314 0.16078431 0.65098039
v -0.04897884 0.00500261 -0.01139546 0.20784314 0.16078431 0.65098039
v -0.04922009 -0.01056160 -0.01129356 0.20784314 0.16078431 0.65098039
v -0.04915765 0.00500261 -0.01132059 0.20784314 0.16078431 0.65098039
v -0.04943863 0.00500261 -0.01115564 0.20784314 0.16078431 0.65098039
v -0.04938187 0.00500261 -0.01119167 0.20784314 0.16078431 0.65098039
v -0.04911792 -0.01128246 -0.01113368 0.20784314 0.16078431 0.65098039
v -0.03613892 -0.01146226 -0.01117309 0.20784314 0.16078431 0.65098039
v -0.02098872 -0.01148224 -0.01115958 0.20784314 0.16078431 0.65098039
v -0.02382406 -0.01128246 -0.01129356 0.20784314 0.16078431 0.65098039
v -0.02382406 -0.01133407 -0.01125922 0.20784314 0.16078431 0.65098039
v -0.02098872 -0.01128746 -0.01128962 0.20784314 0.16078431 0.65098039
v -0.04922009 0.00500261 -0.01129356 0.20784314 0.16078431 0.65098039
v -0.02382406 -0.01143729 -0.01118998 0.20784314 0.16078431 0.65098039
v -0.02098872 -0.01132741 -0.01126316 0.20784314 0.16078431 0.65098039
f 1 2 6
f 1 6 26
f 1 26 32
f 1 32 31
f 1 31 30
f 1 30 29
f 1 29 28
f 1 28 38
f 1 38 47
f 1 47 72
f 1 72 71
f 1 71 70
f 1 70 69
f 1 69 68
f 1 68 67
f 1 67 96
f 1 96 128
f 1 128 166
f 1 166 165
f 1 165 197
f 1 197 196
f 1 196 199
f 1 199 208
f 1 208 201
f 1 201 200
f 1 200 167
f 1 167 129
f 1 129 97
f 1 97 79
f 1 79 51
f 1 51 40
f 1 40 33
f 1 33 24
f 1 24 3
f 1 3 4
f 1 4 5
f 1 5 7
f 1 7 2
f 2 7 8
f 2 8 9
f 2 9 10
f 2 10 11
f 2 11 12
f 2 12 13
f 2 13 14
f 2 14 15
f 2 15 16
f 2 16 17
f 2 17 18
f 2 18 19
f 2 19 20
f 2 20 21
f 2 21 22
f 2 22 23
f 2 23 6
f 3 24 34
f 3 34 41
f 3 41 52
f 3 52 78
f 3 78 105
f 3 105 104
f 3 104 138
f 3 138 174
f 3 174 175
f 3 175 176
f 3 176 141
f 3 141 140
f 3 140 108
f 3 108 107
f 3 107 82
f 3 82 81
f 3 81 65
f 3 65 45
f 3 45 36
f 3 36 25
f 3 25 4
f 4 25 35
f 4 35 42
f 4 42 54
f 4 54 80
f 4 80 106
f 4 106 121
f 4 121 120
f 4 120 119
f 4 119 155
f 4 155 186
f 4 186 185
f 4 185 152
f 4 152 183
f 4 183 182
f 4 182 204
f 4 204 210
f 4 210 207
f 4 207 190
f 4 190 189
f 4 189 192
f 4 192 159
f 4 159 156
f 4 156 122
f 4 122 94
f 4 94 66
f 4 66 46
f 4 46 37
f 4 37 27
f 4 27 23
f 4 23 22
f 4 22 21
f 4 21 20
f 4 20 19
f 4 19 18
f 4 18 17
f 4 17 16
f 4 16 15
f 4 15 14
f 4 14 13
f 4 13 12
f 4 12 11
f 4 11 10
f 4 10 9
f 4 9 8
f 4 8 7
f 4 7 5
f 6 23 26
f 23 27 28
f 23 28 29
f 23 29 30
f 23 30 31
f 23 31 32
f 23 32 26
f 24 33 39
f 24 39 34
f 25 36 43
f 25 43 35
f 27 37 38
f 27 38 28
f 33 40 48
f 33 48 39
f 34 39 41
f 35 43 44
f 35 44 42
f 36 45 43
f 37 46 38
f 38 46 47
f 39 48 49
f 39 49 50
f 39 50 41
f 40 51 48
f 41 50 52
f 42 53 54
f 42 44 53
f 43 45 55
f 43 55 56
f 43 56 57
f 43 57 58
f 43 58 59
f 43 59 60
f 43 60 61
f 43 61 62
f 43 62 63
f 43 63 64
f 43 64 44
f 44 64 53
f 45 65 55
f 46 66 95
f 46 95 96
f 46 96 67
f 46 67 68
f 46 68 69
f 46 69 70
f 46 70 71
f 46 71 72
f 46 72 47
f 48 51 73
f 48 73 49
f 49 73 74
f 49 74 75
f 49 75 76
f 49 76 77
f 49 77 50
f 50 77 78
f 50 78 52
f 51 79 73
f 53 64 54
f 54 64 80
f 55 65 81
f 55 81 82
f 55 82 83
f 55 83 84
f 55 84 56
f 56 84 57
f 57 84 85
f 57 85 86
f 57 86 58
f 58 86 59
f 59 86 87
f 59 87 88
f 59 88 60
f 60 88 61
f 61 88 89
f 61 89 90
f 61 90 62
f 62 90 63
f 63 90 91
f 63 91 92
f 63 92 64
f 64 92 93
f 64 93 80
f 66 94 95
f 73 79 97
f 73 97 98
f 73 98 74
f 74 98 99
f 74 99 100
f 74 100 75
f 75 100 101
f 75 101 76
f 76 101 102
f 76 102 103
f 76 103 77
f 77 103 104
f 77 104 105
f 77 105 78
f 80 93 106
f 82 107 83
f 83 107 108
f 83 108 109
f 83 109 110
f 83 110 84
f 84 110 85
f 85 110 111
f 85 111 86
f 86 111 112
f 86 112 113
f 86 113 87
f 87 113 88
f 88 113 114
f 88 114 115
f 88 115 89
f 89 115 90
f 90 116 91
f 90 115 117
f 90 117 116
f 91 116 92
f 92 116 118
f 92 118 119
f 92 119 120
f 92 120 121
f 92 121 93
f 93 121 106
f 94 122 123
f 94 123 124
f 94 124 95
f 95 125 126
f 95 126 127
f 95 127 128
f 95 128 96
f 95 124 123
f 95 123 125
f 97 129 98
f 98 129 167
f 98 167 130
f 98 130 131
f 98 131 99
f 99 131 100
f 100 131 132
f 100 132 133
f 100 133 134
f 100 134 101
f 101 134 135
f 101 135 136
f 101 136 137
f 101 137 102
f 102 137 103
f 103 138 104
f 103 137 139
f 103 139 174
f 103 174 138
f 108 140 109
f 109 140 141
f 109 141 142
f 109 142 110
f 110 142 143
f 110 143 144
f 110 144 111
f 111 144 112
f 112 144 145
f 112 145 146
f 112 146 113
f 113 146 114
f 114 147 115
f 114 146 148
f 114 148 147
f 115 147 149
f 115 149 117
f 116 117 149
f 116 149 150
f 116 150 118
f 118 150 151
f 118 151 152
f 118 152 153
f 118 153 154
f 118 154 119
f 119 154 155
f 122 156 123
f 123 156 157
f 123 157 125
f 125 158 126
f 125 157 156
f 125 156 159
f 125 159 192
f 125 192 160
f 125 160 158
f 126 161 162
f 126 162 163
f 126 163 164
f 126 164 127
f 126 158 161
f 127 164 165
f 127 165 166
f 127 166 128
f 130 167 200
f 130 200 168
f 130 168 131
f 131 168 169
f 131 169 170
f 131 170 132
f 132 170 133
f 133 135 134
f 133 170 171
f 133 171 172
f 133 172 173
f 133 173 135
f 135 173 146
f 135 146 145
f 135 145 144
f 135 144 136
f 136 144 137
f 137 144 143
f 137 143 142
f 137 142 139
f 139 142 175
f 139 175 174
f 141 176 142
f 142 176 175
f 146 172 148
f 146 173 172
f 147 148 172
f 147 172 177
f 147 177 149
f 149 178 150
f 149 177 179
f 149 179 178
f 150 178 180
f 150 180 151
f 151 180 181
f 151 181 182
f 151 182 183
f 151 183 184
f 151 184 152
f 152 184 183
f 152 185 153
f 153 185 186
f 153 186 155
f 153 155 154
f 158 187 188
f 158 188 161
f 158 160 189
f 158 189 190
f 158 190 191
f 158 191 187
f 160 192 189
f 161 188 193
f 161 193 162
f 162 193 194
f 162 194 195
f 162 195 163
f 163 195 164
f 164 196 197
f 164 197 165
f 164 195 198
f 164 198 199
f 164 199 196
f 168 200 201
f 168 201 198
f 168 198 195
f 168 195 169
f 169 195 170
f 170 195 194
f 170 194 202
f 170 202 171
f 171 202 172
f 172 202 177
f 177 202 179
f 178 188 180
f 178 179 193
f 178 193 188
f 179 202 193
f 180 187 203
f 180 203 204
f 180 204 182
f 180 182 181
f 180 188 187
f 187 191 190
f 187 190 205
f 187 205 206
f 187 206 203
f 190 207 205
f 193 202 194
f 198 201 208
f 198 208 199
f 203 206 209
f 203 209 204
f 204 209 206
f 204 206 210
f 205 207 210
f 205 210 206