# https://github.com/mikedh/trimesh
v -0.00280542 -0.00502013 -0.01003773 0.11764706 0.63921569 0.14117647
v -0.00280542 -0.00521633 -0.00572752 0.11764706 0.63921569 0.14117647
v -0.00280542 -0.00502013 -0.01014919 0.11764706 0.63921569 0.14117647
v -0.02098872 -0.00502013 -0.01003773 0.11764706 0.63921569 0.14117647
v -0.02098872 -0.00502081 -0.01001972 0.11764706 0.63921569 0.14117647
v -0.00280542 -0.01200332 -0.00572752 0.11764706 0.63921569 0.14117647
v -0.02098872 -0.00521633 -0.00572752 0.11764706 0.63921569 0.14117647
v -0.00280542 -0.00502901 -0.01026008 0.11764706 0.63921569 0.14117647
v -0.01187838 -0.00502355 -0.01020435 0.11764706 0.63921569 0.14117647
v -0.02098872 -0.00502013 -0.01014919 0.11764706 0.63921569 0.14117647
v -0.00280542 -0.01200332 -0.01009796 0.11764706 0.63921569 0.14117647
v -0.02098872 -0.01200332 -0.00572752 0.11764706 0.63921569 0.14117647
v -0.00280542 -0.00504747 -0.01037041 0.11764706 0.63921569 0.14117647
v -0.01188016 -0.00504679 -0.01036985 0.11764706 0.63921569 0.14117647
v -0.02098872 -0.00502901 -0.01026008 0.11764706 0.63921569 0.14117647
v -0.01150279 -0.01198350 -0.01030736 0.11764706 0.63921569 0.14117647
v -0.00280542 -0.01198144 -0.01032875 0.11764706 0.63921569 0.14117647
v -0.02098872 -0.01200332 -0.01009796 0.11764706 0.63921569 0.14117647
v -0.00280542 -0.00507482 -0.01047849 0.11764706 0.63921569 0.14117647
v -0.01188372 -0.00504679 -0.01036985 0.11764706 0.63921569 0.14117647
v -0.02098872 -0.00504747 -0.01037041 0.11764706 0.63921569 0.14117647
v -0.02098872 -0.01198555 -0.01028485 0.11764706 0.63921569 0.14117647
v -0.02098872 -0.01198008 -0.01033720 0.11764706 0.63921569 0.14117647
v -0.00280542 -0.01198008 -0.01033720 0.11764706 0.63921569 0.14117647
v -0.00280542 -0.00511173 -0.01058488 0.11764706 0.63921569 0.14117647
v -0.01188016 -0.00509259 -0.01053084 0.11764706 0.63921569 0.14117647
v -0.02098872 -0.00507482 -0.01047849 0.11764706 0.63921569 0.14117647
v -0.02098872 -0.01197871 -0.01034452 0.11764706 0.63921569 0.14117647
v -0.00280542 -0.01197803 -0.01034621 0.11764706 0.63921569 0.14117647
v -0.00280542 -0.00515685 -0.01068733 0.11764706 0.63921569 0.14117647
v -0.01188016 -0.00515617 -0.01068677 0.11764706 0.63921569 0.14117647
v -0.01188016 -0.00511105 -0.01058375 0.11764706 0.63921569 0.14117647
v -0.01190152 -0.00509259 -0.01053084 0.11764706 0.63921569 0.14117647
v -0.02098872 -0.00511173 -0.01058432 0.11764706 0.63921569 0.14117647
v -0.02098872 -0.01196230 -0.01040306 0.11764706 0.63921569 0.14117647
v -0.01150279 -0.01197256 -0.01036647 0.11764706 0.63921569 0.14117647
v -0.00280542 -0.01192265 -0.01054435 0.11764706 0.63921569 0.14117647
v -0.00280542 -0.00521086 -0.01078640 0.11764706 0.63921569 0.14117647
v -0.01188016 -0.00521017 -0.01078528 0.11764706 0.63921569 0.14117647
v -0.01188372 -0.00515617 -0.01068677 0.11764706 0.63921569 0.14117647
v -0.01188372 -0.00511105 -0.01058375 0.11764706 0.63921569 0.14117647
v -0.02098872 -0.00515685 -0.01068733 0.11764706 0.63921569 0.14117647
v -0.02098872 -0.01193359 -0.01050495 0.11764706 0.63921569 0.14117647
v -0.01188194 -0.01193974 -0.01048355 0.11764706 0.63921569 0.14117647
v -0.01188016 -0.01193974 -0.01048355 0.11764706 0.63921569 0.14117647
v -0.00280542 -0.01191787 -0.01056124 0.11764706 0.63921569 0.14117647
v -0.02098872 -0.01191718 -0.01056293 0.11764706 0.63921569 0.14117647
v -0.00280542 -0.00527238 -0.01087984 0.11764706 0.63921569 0.14117647
v -0.01191576 -0.00524094 -0.01083256 0.11764706 0.63921569 0.14117647
v -0.02098872 -0.00521086 -0.01078640 0.11764706 0.63921569 0.14117647
v -0.01188372 -0.00521017 -0.01078528 0.11764706 0.63921569 0.14117647
v -0.00280542 -0.01191513 -0.01056968 0.11764706 0.63921569 0.14117647
v -0.02098872 -0.01191513 -0.01056968 0.11764706 0.63921569 0.14117647
v -0.00280542 -0.00541868 -0.01105209 0.11764706 0.63921569 0.14117647
v -0.01188016 -0.00527443 -0.01088266 0.11764706 0.63921569 0.14117647
v -0.02098872 -0.00527102 -0.01087816 0.11764706 0.63921569 0.14117647
v -0.00280542 -0.01191171 -0.01057756 0.11764706 0.63921569 0.14117647
v -0.02098872 -0.01191240 -0.01057644 0.11764706 0.63921569 0.14117647
v -0.01188016 -0.00534485 -0.01096541 0.11764706 0.63921569 0.14117647
v -0.00280542 -0.00559232 -0.01120014 0.11764706 0.63921569 0.14117647
v -0.02098872 -0.00541868 -0.01105209 0.11764706 0.63921569 0.14117647
v -0.01188194 -0.00527443 -0.01088266 0.11764706 0.63921569 0.14117647
v -0.02098872 -0.00527648 -0.01088491 0.11764706 0.63921569 0.14117647
v -0.00280542 -0.01186659 -0.01067100 0.11764706 0.63921569 0.14117647
v -0.02098872 -0.01187958 -0.01064398 0.11764706 0.63921569 0.14117647
v -0.01188194 -0.00534485 -0.01096541 0.11764706 0.63921569 0.14117647
v -0.00280542 -0.00578852 -0.01131948 0.11764706 0.63921569 0.14117647
v -0.01178048 -0.00569008 -0.01125981 0.11764706 0.63921569 0.14117647
v -0.01188016 -0.00559505 -0.01120183 0.11764706 0.63921569 0.14117647
v -0.02098872 -0.00559232 -0.01120014 0.11764706 0.63921569 0.14117647
v -0.01150279 -0.01182284 -0.01076051 0.11764706 0.63921569 0.14117647
v -0.00280542 -0.01185087 -0.01070309 0.11764706 0.63921569 0.14117647
v -0.02098872 -0.01181259 -0.01078134 0.11764706 0.63921569 0.14117647
v -0.00280542 -0.00600249 -0.01140673 0.11764706 0.63921569 0.14117647
v -0.01188372 -0.00600181 -0.01140673 0.11764706 0.63921569 0.14117647
v -0.02098872 -0.00578852 -0.01131948 0.11764706 0.63921569 0.14117647
v -0.01188194 -0.00559505 -0.01120183 0.11764706 0.63921569 0.14117647
v -0.00280542 -0.01180917 -0.01078809 0.11764706 0.63921569 0.14117647
v -0.02098872 -0.01180507 -0.01079372 0.11764706 0.63921569 0.14117647
v -0.01188194 -0.01180917 -0.01078809 0.11764706 0.63921569 0.14117647
v -0.00280542 -0.00601411 -0.01140954 0.11764706 0.63921569 0.14117647
v -0.02098872 -0.00601343 -0.01140954 0.11764706 0.63921569 0.14117647
v -0.02098872 -0.00600181 -0.01140673 0.11764706 0.63921569 0.14117647
v -0.00280542 -0.00621305 -0.01145683 0.11764706 0.63921569 0.14117647
v -0.01188016 -0.00611324 -0.01143319 0.11764706 0.63921569 0.14117647
v -0.00280542 -0.01180439 -0.01079484 0.11764706 0.63921569 0.14117647
v -0.02098872 -0.01177772 -0.01083143 0.11764706 0.63921569 0.14117647
v -0.02098872 -0.00622740 -0.01146020 0.11764706 0.63921569 0.14117647
v -0.00280542 -0.00622809 -0.01146020 0.11764706 0.63921569 0.14117647
v -0.01188372 -0.00622740 -0.01146020 0.11764706 0.63921569 0.14117647
v -0.00280542 -0.01174286 -0.01087928 0.11764706 0.63921569 0.14117647
v -0.02098872 -0.01166971 -0.01097948 0.11764706 0.63921569 0.14117647
v -0.02098872 -0.00625611 -0.01146246 0.11764706 0.63921569 0.14117647
v -0.00280542 -0.00624244 -0.01146133 0.11764706 0.63921569 0.14117647
v -0.01176268 -0.00634362 -0.01146921 0.11764706 0.63921569 0.14117647
v -0.00280542 -0.01166561 -0.01098511 0.11764706 0.63921569 0.14117647
v -0.01188194 -0.01166561 -0.01098511 0.11764706 0.63921569 0.14117647
v -0.02098872 -0.01166014 -0.01099018 0.11764706 0.63921569 0.14117647
v -0.01188194 -0.00645642 -0.01147766 0.11764706 0.63921569 0.14117647
v -0.02098872 -0.00645915 -0.01147766 0.11764706 0.63921569 0.14117647
v -0.00280542 -0.00644206 -0.01147653 0.11764706 0.63921569 0.14117647
v -0.01188016 -0.00645642 -0.01147766 0.11764706 0.63921569 0.14117647
v -0.00280542 -0.01150769 -0.01113653 0.11764706 0.63921569 0.14117647
v -0.02098872 -0.01152684 -0.01111796 0.11764706 0.63921569 0.14117647
v -0.02098872 -0.01056225 -0.01147766 0.11764706 0.63921569 0.14117647
v -0.00280542 -0.00645847 -0.01147766 0.11764706 0.63921569 0.14117647
v -0.00280542 -0.01148787 -0.01115511 0.11764706 0.63921569 0.14117647
v -0.01188194 -0.01148787 -0.01115511 0.11764706 0.63921569 0.14117647
v -0.02098872 -0.01149265 -0.01115004 0.11764706 0.63921569 0.14117647
v -0.02098872 -0.01064633 -0.01147090 0.11764706 0.63921569 0.14117647
v -0.00280542 -0.01056225 -0.01147766 0.11764706 0.63921569 0.14117647
v -0.00280542 -0.01057113 -0.01147709 0.11764706 0.63921569 0.14117647
v -0.01150279 -0.01059301 -0.01147540 0.11764706 0.63921569 0.14117647
v -0.00280542 -0.01146531 -0.01117031 0.11764706 0.63921569 0.14117647
v -0.02098872 -0.01148172 -0.01115905 0.11764706 0.63921569 0.14117647
v -0.02098872 -0.01133952 -0.01125474 0.11764706 0.63921569 0.14117647
v -0.02098872 -0.01075708 -0.01146189 0.11764706 0.63921569 0.14117647
v -0.01150279 -0.01065590 -0.01147034 0.11764706 0.63921569 0.14117647
v -0.00280542 -0.01069624 -0.01146696 0.11764706 0.63921569 0.14117647
v -0.00280542 -0.01128210 -0.01129302 0.11764706 0.63921569 0.14117647
v -0.02098872 -0.01128825 -0.01128908 0.11764706 0.63921569 0.14117647
v -0.02098872 -0.01081245 -0.01145683 0.11764706 0.63921569 0.14117647
v -0.00280542 -0.01080288 -0.01145795 0.11764706 0.63921569 0.14117647
v -0.00280542 -0.01127390 -0.01129696 0.11764706 0.63921569 0.14117647
v -0.01188194 -0.01128210 -0.01129302 0.11764706 0.63921569 0.14117647
v -0.02098872 -0.01127526 -0.01129640 0.11764706 0.63921569 0.14117647
v -0.02098872 -0.01081929 -0.01145514 0.11764706 0.63921569 0.14117647
v -0.00280542 -0.01081245 -0.01145683 0.11764706 0.63921569 0.14117647
v -0.01188016 -0.01113922 -0.01135719 0.11764706 0.63921569 0.14117647
v -0.00280542 -0.01107975 -0.01138365 0.11764706 0.63921569 0.14117647
v -0.02098872 -0.01105445 -0.01139491 0.11764706 0.63921569 0.14117647
v -0.01188194 -0.01108248 -0.01138252 0.11764706 0.63921569 0.14117647
v -0.01188194 -0.01113922 -0.01135719 0.11764706 0.63921569 0.14117647
v -0.01188194 -0.01084185 -0.01144951 0.11764706 0.63921569 0.14117647
v -0.01188016 -0.01084185 -0.01144951 0.11764706 0.63921569 0.14117647
v -0.00280542 -0.01083911 -0.01145007 0.11764706 0.63921569 0.14117647
v -0.01188016 -0.01108248 -0.01138252 0.11764706 0.63921569 0.14117647
v -0.00280542 -0.01105445 -0.01139491 0.11764706 0.63921569 0.14117647
v -0.01150279 -0.01090337 -0.01143375 0.11764706 0.63921569 0.14117647
v -0.00280542 -0.01096011 -0.01141911 0.11764706 0.63921569 0.14117647
f 1 2 6
f 1 6 11
f 1 11 17
f 1 17 24
f 1 24 29
f 1 29 37
f 1 37 46
f 1 46 52
f 1 52 57
f 1 57 64
f 1 64 72
f 1 72 78
f 1 78 86
f 1 86 91
f 1 91 96
f 1 96 103
f 1 103 107
f 1 107 114
f 1 114 120
f 1 120 124
f 1 124 130
f 1 130 138
f 1 138 140
f 1 140 136
f 1 136 128
f 1 128 123
f 1 123 119
f 1 119 112
f 1 112 111
f 1 111 106
f 1 106 101
f 1 101 94
f 1 94 89
f 1 89 84
f 1 84 81
f 1 81 74
f 1 74 67
f 1 67 60
f 1 60 54
f 1 54 48
f 1 48 38
f 1 38 30
f 1 30 25
f 1 25 19
f 1 19 13
f 1 13 8
f 1 8 3
f 1 3 10
f 1 10 4
f 1 4 5
f 1 5 2
f 2 5 7
f 2 7 12
f 2 12 6
f 3 8 9
f 3 9 10
f 4 10 15
f 4 15 21
f 4 21 27
f 4 27 34
f 4 34 42
f 4 42 50
f 4 50 56
f 4 56 63
f 4 63 61
f 4 61 70
f 4 70 76
f 4 76 83
f 4 83 82
f 4 82 88
f 4 88 93
f 4 93 100
f 4 100 105
f 4 105 110
f 4 110 117
f 4 117 122
f 4 122 127
f 4 127 131
f 4 131 126
f 4 126 121
f 4 121 116
f 4 116 115
f 4 115 109
f 4 109 104
f 4 104 98
f 4 98 92
f 4 92 87
f 4 87 79
f 4 79 73
f 4 73 65
f 4 65 58
f 4 58 53
f 4 53 47
f 4 47 43
f 4 43 35
f 4 35 28
f 4 28 23
f 4 23 22
f 4 22 18
f 4 18 12
f 4 12 7
f 4 7 5
f 6 12 18
f 6 18 11
f 8 13 14
f 8 14 20
f 8 20 15
f 8 15 9
f 9 15 10
f 11 16 17
f 11 18 16
f 13 19 14
f 14 19 27
f 14 27 20
f 15 20 21
f 16 18 22
f 16 22 23
f 16 23 17
f 17 23 24
f 19 25 26
f 19 26 33
f 19 33 27
f 20 27 21
f 23 28 24
f 24 28 29
f 25 30 31
f 25 31 32
f 25 32 26
f 26 32 41
f 26 41 33
f 27 33 34
f 28 35 44
f 28 44 45
f 28 45 36
f 28 36 29
f 29 36 37
f 30 38 31
f 31 39 51
f 31 51 40
f 31 40 41
f 31 41 32
f 31 38 39
f 33 41 34
f 34 41 40
f 34 40 42
f 35 43 44
f 36 45 37
f 37 45 44
f 37 44 43
f 37 43 47
f 37 47 46
f 38 48 49
f 38 49 50
f 38 50 51
f 38 51 39
f 40 51 50
f 40 50 42
f 46 47 53
f 46 53 52
f 48 54 55
f 48 55 56
f 48 56 49
f 49 56 50
f 52 53 58
f 52 58 57
f 54 59 55
f 54 60 70
f 54 70 61
f 54 61 66
f 54 66 59
f 55 59 66
f 55 66 62
f 55 62 56
f 56 62 63
f 57 58 64
f 58 65 64
f 60 67 68
f 60 68 69
f 60 69 77
f 60 77 70
f 61 63 62
f 61 62 66
f 64 71 72
f 64 65 73
f 64 73 71
f 67 74 75
f 67 75 83
f 67 83 76
f 67 76 68
f 68 76 70
f 68 70 77
f 68 77 69
f 71 78 72
f 71 73 78
f 73 79 80
f 73 80 78
f 74 81 75
f 75 82 83
f 75 81 84
f 75 84 85
f 75 85 82
f 78 80 86
f 79 87 86
f 79 86 80
f 82 85 84
f 82 84 88
f 84 89 90
f 84 90 88
f 86 87 91
f 87 92 91
f 88 90 93
f 89 94 90
f 90 94 95
f 90 95 93
f 91 92 97
f 91 97 96
f 92 98 97
f 93 95 99
f 93 99 100
f 94 101 95
f 95 101 102
f 95 102 99
f 96 97 103
f 97 98 104
f 97 104 103
f 99 102 106
f 99 106 111
f 99 111 105
f 99 105 100
f 101 106 102
f 103 104 108
f 103 108 107
f 104 109 108
f 105 111 112
f 105 112 113
f 105 113 110
f 107 108 114
f 108 109 115
f 108 115 116
f 108 116 114
f 110 113 118
f 110 118 117
f 112 119 118
f 112 118 113
f 114 116 120
f 116 121 120
f 117 118 119
f 117 119 123
f 117 123 122
f 120 121 125
f 120 125 126
f 120 126 124
f 121 126 125
f 122 123 128
f 122 128 127
f 124 129 130
f 124 126 129
f 126 131 132
f 126 132 133
f 126 133 129
f 127 134 131
f 127 128 135
f 127 135 134
f 128 136 135
f 129 137 130
f 129 133 132
f 129 132 137
f 130 137 138
f 131 134 139
f 131 139 138
f 131 138 137
f 131 137 132
f 134 135 139
f 135 136 140
f 135 140 139
f 138 139 140