# https://github.com/mikedh/trimesh
v 0.05161644 0.00573684 0.01014621 0.67058824 0.20784314 0.12549020
v 0.05161644 -0.00512446 0.01014621 0.67058824 0.20784314 0.12549020
v 0.05161644 0.00573684 0.00577635 0.67058824 0.20784314 0.12549020
v 0.05159020 0.00573684 0.01038600 0.67058824 0.20784314 0.12549020
v 0.05161644 -0.00512446 0.00577635 0.67058824 0.20784314 0.12549020
v 0.05159020 -0.00512446 0.01038600 0.67058824 0.20784314 0.12549020
v -0.00200077 0.00573684 0.00577635 0.67058824 0.20784314 0.12549020
v 0.05153772 0.00573684 0.01056557 0.67058824 0.20784314 0.12549020
v 0.05155871 0.00000000 0.01050253 0.67058824 0.20784314 0.12549020
v 0.05157445 -0.00512446 0.01044567 0.67058824 0.20784314 0.12549020
v -0.00200077 -0.00512446 0.00577635 0.67058824 0.20784314 0.12549020
v -0.00178559 -0.00512446 0.01021488 0.67058824 0.20784314 0.12549020
v -0.00180134 0.00573684 0.00988276 0.67058824 0.20784314 0.12549020
v 0.05152197 0.00573684 0.01061849 0.67058824 0.20784314 0.12549020
v 0.05152197 -0.00512446 0.01061849 0.67058824 0.20784314 0.12549020
v -0.00177509 -0.00512446 0.01032352 0.67058824 0.20784314 0.12549020
v -0.00177509 0.00573684 0.01032352 0.67058824 0.20784314 0.12549020
v -0.00178559 0.00573684 0.01020644 0.67058824 0.20784314 0.12549020
v 0.05141175 0.00573684 0.01083633 0.67058824 0.20784314 0.12549020
v 0.05141175 -0.00512446 0.01083633 0.67058824 0.20784314 0.12549020
v -0.00174885 -0.00512446 0.01044680 0.67058824 0.20784314 0.12549020
v -0.00174885 0.00573684 0.01043835 0.67058824 0.20784314 0.12549020
v 0.05125955 0.00573684 0.01103391 0.67058824 0.20784314 0.12549020
v 0.05125955 -0.00512446 0.01103391 0.67058824 0.20784314 0.12549020
v -0.00171736 -0.00512446 0.01055994 0.67058824 0.20784314 0.12549020
v -0.00171736 0.00573684 0.01055206 0.67058824 0.20784314 0.12549020
v 0.05107061 0.00573684 0.01120391 0.67058824 0.20784314 0.12549020
v 0.05107061 -0.00512446 0.01120391 0.67058824 0.20784314 0.12549020
v -0.00167538 -0.00512446 0.01066239 0.67058824 0.20784314 0.12549020
v -0.00167538 0.00573684 0.01066239 0.67058824 0.20784314 0.12549020
v 0.05090266 0.00573684 0.01131030 0.67058824 0.20784314 0.12549020
v 0.05090791 -0.00512446 0.01130636 0.67058824 0.20784314 0.12549020
v -0.00162289 -0.00512446 0.01076878 0.67058824 0.20784314 0.12549020
v -0.00162289 0.00573684 0.01076878 0.67058824 0.20784314 0.12549020
v 0.05085018 0.00573684 0.01134182 0.67058824 0.20784314 0.12549020
v 0.05085018 -0.00512446 0.01134182 0.67058824 0.20784314 0.12549020
v -0.00155991 -0.00512446 0.01087123 0.67058824 0.20784314 0.12549020
v -0.00155991 0.00573684 0.01087123 0.67058824 0.20784314 0.12549020
v 0.05079769 0.00573684 0.01136490 0.67058824 0.20784314 0.12549020
v 0.05079245 -0.00512446 0.01136772 0.67058824 0.20784314 0.12549020
v -0.00155466 -0.00512446 0.01087911 0.67058824 0.20784314 0.12549020
v -0.00148644 0.00573684 0.01096805 0.67058824 0.20784314 0.12549020
v 0.05066649 0.00573684 0.01142007 0.67058824 0.20784314 0.12549020
v 0.05060876 -0.00512446 0.01144371 0.67058824 0.20784314 0.12549020
v -0.00148119 -0.00512446 0.01097593 0.67058824 0.20784314 0.12549020
v -0.00140771 0.00573684 0.01105924 0.67058824 0.20784314 0.12549020
v 0.05060876 0.00573684 0.01144371 0.67058824 0.20784314 0.12549020
v 0.05054578 -0.00512446 0.01145947 0.67058824 0.20784314 0.12549020
v -0.00140771 -0.00512446 0.01105924 0.67058824 0.20784314 0.12549020
v -0.00123976 -0.00512446 0.01120391 0.67058824 0.20784314 0.12549020
v -0.00121877 0.00573684 0.01122080 0.67058824 0.20784314 0.12549020
v 0.05041457 0.00573684 0.01149156 0.67058824 0.20784314 0.12549020
v 0.05035683 -0.00512446 0.01150563 0.67058824 0.20784314 0.12549020
v -0.00121877 -0.00512446 0.01122080 0.67058824 0.20784314 0.12549020
v -0.00120827 0.00573684 0.01122812 0.67058824 0.20784314 0.12549020
v 0.05035683 0.00573684 0.01150563 0.67058824 0.20784314 0.12549020
v 0.05028861 -0.00512446 0.01151126 0.67058824 0.20784314 0.12549020
v -0.00102983 -0.00512446 0.01133619 0.67058824 0.20784314 0.12549020
v -0.00100359 0.00573684 0.01135195 0.67058824 0.20784314 0.12549020
v 0.05029386 0.00573684 0.01151070 0.67058824 0.20784314 0.12549020
v 0.05008917 0.00573684 0.01152702 0.67058824 0.20784314 0.12549020
v 0.05008917 -0.00512446 0.01152702 0.67058824 0.20784314 0.12549020
v -0.00100359 -0.00512446 0.01135195 0.67058824 0.20784314 0.12549020
v -0.00076741 0.00573684 0.01144821 0.67058824 0.20784314 0.12549020
v -0.00026357 0.00573684 0.01152702 0.67058824 0.20784314 0.12549020
v -0.00026357 -0.00512446 0.01152702 0.67058824 0.20784314 0.12549020
v -0.00076741 -0.00512446 0.01144821 0.67058824 0.20784314 0.12549020
v -0.00055748 -0.00512446 0.01149831 0.67058824 0.20784314 0.12549020
v -0.00052074 0.00573684 0.01150675 0.67058824 0.20784314 0.12549020
v -0.00049450 0.00573684 0.01150901 0.67058824 0.20784314 0.12549020
v -0.00052074 -0.00512446 0.01150675 0.67058824 0.20784314 0.12549020
f 1 2 5
f 1 5 3
f 1 3 7
f 1 7 13
f 1 13 18
f 1 18 17
f 1 17 22
f 1 22 26
f 1 26 30
f 1 30 34
f 1 34 38
f 1 38 42
f 1 42 46
f 1 46 51
f 1 51 55
f 1 55 59
f 1 59 64
f 1 64 69
f 1 69 70
f 1 70 65
f 1 65 61
f 1 61 60
f 1 60 56
f 1 56 52
f 1 52 47
f 1 47 43
f 1 43 39
f 1 39 35
f 1 35 31
f 1 31 27
f 1 27 23
f 1 23 19
f 1 19 14
f 1 14 8
f 1 8 4
f 1 4 6
f 1 6 2
f 2 6 10
f 2 10 15
f 2 15 20
f 2 20 24
f 2 24 28
f 2 28 32
f 2 32 36
f 2 36 40
f 2 40 44
f 2 44 48
f 2 48 53
f 2 53 57
f 2 57 62
f 2 62 66
f 2 66 71
f 2 71 68
f 2 68 67
f 2 67 63
f 2 63 58
f 2 58 54
f 2 54 50
f 2 50 49
f 2 49 45
f 2 45 41
f 2 41 37
f 2 37 33
f 2 33 29
f 2 29 25
f 2 25 21
f 2 21 16
f 2 16 12
f 2 12 11
f 2 11 5
f 3 5 11
f 3 11 7
f 4 8 9
f 4 9 10
f 4 10 6
f 7 11 12
f 7 12 13
f 8 14 9
f 9 14 15
f 9 15 10
f 12 16 17
f 12 17 18
f 12 18 13
f 14 19 20
f 14 20 15
f 16 21 17
f 17 21 22
f 19 23 24
f 19 24 20
f 21 25 26
f 21 26 22
f 23 27 28
f 23 28 24
f 25 29 30
f 25 30 26
f 27 31 28
f 28 31 32
f 29 33 34
f 29 34 30
f 31 35 36
f 31 36 32
f 33 37 38
f 33 38 34
f 35 39 40
f 35 40 36
f 37 41 38
f 38 41 45
f 38 45 42
f 39 43 40
f 40 43 44
f 42 45 46
f 43 47 44
f 44 47 48
f 45 49 46
f 46 50 51
f 46 49 50
f 47 52 48
f 48 52 53
f 50 54 51
f 51 54 55
f 52 56 53
f 53 56 57
f 54 58 55
f 55 58 59
f 56 60 57
f 57 60 61
f 57 61 62
f 58 63 59
f 59 63 67
f 59 67 64
f 61 65 66
f 61 66 62
f 64 67 68
f 64 68 69
f 65 70 66
f 66 70 71
f 68 71 69
f 69 71 70