# https://github.com/mikedh/trimesh
v -0.02157037 -0.00553374 0.00167910 0.79607843 0.45882353 0.78039216
v -0.02157037 -0.00553374 0.00164880 0.79607843 0.45882353 0.78039216
v -0.02176960 -0.00553374 0.00577635 0.79607843 0.45882353 0.78039216
v -0.00967611 -0.00555211 0.00164880 0.79607843 0.45882353 0.78039216
v -0.05037958 -0.00553374 0.00164880 0.79607843 0.45882353 0.78039216
v -0.00967611 -0.00574019 0.00577635 0.79607843 0.45882353 0.78039216
v -0.04600839 -0.00553374 0.00577635 0.79607843 0.45882353 0.78039216
v -0.00967611 -0.01200269 0.00164880 0.79607843 0.45882353 0.78039216
v -0.05037958 -0.00958609 0.00164880 0.79607843 0.45882353 0.78039216
v -0.05037958 -0.00553374 0.00575938 0.79607843 0.45882353 0.78039216
v -0.00967611 -0.01200269 0.00577635 0.79607843 0.45882353 0.78039216
v -0.04998111 -0.00553374 0.00577554 0.79607843 0.45882353 0.78039216
v -0.04998111 -0.00960256 0.00577635 0.79607843 0.45882353 0.78039216
v -0.04845896 -0.01200269 0.00164880 0.79607843 0.45882353 0.78039216
v -0.05037958 -0.00958609 0.00575938 0.79607843 0.45882353 0.78039216
v -0.04988946 -0.01105530 0.00164880 0.79607843 0.45882353 0.78039216
v -0.05029590 -0.00553374 0.00576301 0.79607843 0.45882353 0.78039216
v -0.04845896 -0.01200269 0.00577635 0.79607843 0.45882353 0.78039216
v -0.04998111 -0.01056261 0.00577635 0.79607843 0.45882353 0.78039216
v -0.04857054 -0.01199382 0.00164880 0.79607843 0.45882353 0.78039216
v -0.04988946 -0.01105530 0.00577635 0.79607843 0.45882353 0.78039216
v -0.04990540 -0.01100274 0.00577635 0.79607843 0.45882353 0.78039216
v -0.04994525 -0.01086532 0.00577635 0.79607843 0.45882353 0.78039216
v -0.04995720 -0.01081276 0.00577635 0.79607843 0.45882353 0.78039216
v -0.04996517 -0.01075893 0.00577635 0.79607843 0.45882353 0.78039216
v -0.04997713 -0.01061644 0.00577635 0.79607843 0.45882353 0.78039216
v -0.04982571 -0.01118702 0.00164880 0.79607843 0.45882353 0.78039216
v -0.04851475 -0.01199825 0.00577635 0.79607843 0.45882353 0.78039216
v -0.04872195 -0.01198116 0.00577635 0.79607843 0.45882353 0.78039216
v -0.04872195 -0.01198116 0.00164880 0.79607843 0.45882353 0.78039216
v -0.04986555 -0.01110406 0.00577635 0.79607843 0.45882353 0.78039216
v -0.04977789 -0.01128265 0.00164880 0.79607843 0.45882353 0.78039216
v -0.04977789 -0.01128265 0.00577635 0.79607843 0.45882353 0.78039216
v -0.04877773 -0.01196722 0.00577635 0.79607843 0.45882353 0.78039216
v -0.04882954 -0.01195392 0.00164880 0.79607843 0.45882353 0.78039216
v -0.04974601 -0.01132698 0.00577635 0.79607843 0.45882353 0.78039216
v -0.04969023 -0.01140234 0.00164880 0.79607843 0.45882353 0.78039216
v -0.04892517 -0.01192986 0.00577635 0.79607843 0.45882353 0.78039216
v -0.04897697 -0.01191593 0.00164880 0.79607843 0.45882353 0.78039216
v -0.04962648 -0.01148846 0.00577635 0.79607843 0.45882353 0.78039216
v -0.04962648 -0.01148846 0.00164880 0.79607843 0.45882353 0.78039216
v -0.04897697 -0.01191593 0.00577635 0.79607843 0.45882353 0.78039216
v -0.04903276 -0.01189313 0.00577635 0.79607843 0.45882353 0.78039216
v -0.04908057 -0.01187160 0.00164880 0.79607843 0.45882353 0.78039216
v -0.04949498 -0.01161322 0.00577635 0.79607843 0.45882353 0.78039216
v -0.04954678 -0.01156319 0.00164880 0.79607843 0.45882353 0.78039216
v -0.04922003 -0.01181017 0.00577635 0.79607843 0.45882353 0.78039216
v -0.04912042 -0.01185450 0.00164880 0.79607843 0.45882353 0.78039216
v -0.04943521 -0.01166578 0.00164880 0.79607843 0.45882353 0.78039216
v -0.04947904 -0.01162779 0.00577635 0.79607843 0.45882353 0.78039216
v -0.04922003 -0.01181017 0.00164880 0.79607843 0.45882353 0.78039216
v -0.04926785 -0.01177914 0.00577635 0.79607843 0.45882353 0.78039216
v -0.04934755 -0.01172658 0.00164880 0.79607843 0.45882353 0.78039216
v -0.04939138 -0.01169681 0.00577635 0.79607843 0.45882353 0.78039216
v -0.04943521 -0.01166578 0.00577635 0.79607843 0.45882353 0.78039216
f 1 2 5
f 1 5 10
f 1 10 17
f 1 17 12
f 1 12 7
f 1 7 3
f 1 3 4
f 1 4 2
f 2 4 8
f 2 8 14
f 2 14 20
f 2 20 30
f 2 30 35
f 2 35 39
f 2 39 44
f 2 44 48
f 2 48 51
f 2 51 53
f 2 53 49
f 2 49 46
f 2 46 41
f 2 41 37
f 2 37 32
f 2 32 27
f 2 27 16
f 2 16 9
f 2 9 5
f 3 6 4
f 3 7 13
f 3 13 19
f 3 19 26
f 3 26 25
f 3 25 24
f 3 24 23
f 3 23 22
f 3 22 21
f 3 21 31
f 3 31 33
f 3 33 36
f 3 36 40
f 3 40 45
f 3 45 50
f 3 50 55
f 3 55 54
f 3 54 52
f 3 52 47
f 3 47 43
f 3 43 42
f 3 42 38
f 3 38 34
f 3 34 29
f 3 29 28
f 3 28 18
f 3 18 11
f 3 11 6
f 4 6 11
f 4 11 8
f 5 9 15
f 5 15 10
f 7 12 13
f 8 11 18
f 8 18 14
f 9 16 21
f 9 21 15
f 10 15 17
f 12 17 13
f 13 17 19
f 14 18 28
f 14 28 20
f 15 21 22
f 15 22 23
f 15 23 24
f 15 24 25
f 15 25 26
f 15 26 19
f 15 19 17
f 16 27 21
f 20 28 29
f 20 29 30
f 21 27 31
f 27 32 33
f 27 33 31
f 29 34 30
f 30 34 35
f 32 36 33
f 32 37 36
f 34 38 35
f 35 38 39
f 36 37 41
f 36 41 40
f 38 42 39
f 39 43 44
f 39 42 43
f 40 41 45
f 41 46 45
f 43 47 48
f 43 48 44
f 45 49 50
f 45 46 49
f 47 51 48
f 47 52 51
f 49 53 54
f 49 54 55
f 49 55 50
f 51 52 53
f 52 54 53