# https://github.com/mikedh/trimesh
v 0.05008949 0.01200269 0.00577635 0.61176471 0.61568627 0.94117647
v 0.05008949 0.01200269 0.00164880 0.61176471 0.61568627 0.94117647
v -0.00967611 0.01200269 0.00577635 0.61176471 0.61568627 0.94117647
v 0.05014638 0.01199825 0.00577635 0.61176471 0.61568627 0.94117647
v -0.00967611 0.01200269 0.00164880 0.61176471 0.61568627 0.94117647
v 0.05020328 0.01199382 0.00164880 0.61176471 0.61568627 0.94117647
v -0.00967611 0.00574019 0.00577635 0.61176471 0.61568627 0.94117647
v 0.05035500 0.01198116 0.00577635 0.61176471 0.61568627 0.94117647
v -0.00967611 0.00555211 0.00164880 0.61176471 0.61568627 0.94117647
v 0.05035500 0.01198116 0.00164880 0.61176471 0.61568627 0.94117647
v -0.00967611 0.00556287 0.00189609 0.61176471 0.61568627 0.94117647
v -0.00199521 0.00553374 0.00577635 0.61176471 0.61568627 0.94117647
v 0.05041189 0.01196722 0.00577635 0.61176471 0.61568627 0.94117647
v -0.00967611 0.00555717 0.00177123 0.61176471 0.61568627 0.94117647
v -0.00219751 0.00553374 0.00164880 0.61176471 0.61568627 0.94117647
v -0.00219751 0.00553374 0.00167910 0.61176471 0.61568627 0.94117647
v 0.05046247 0.01195392 0.00164880 0.61176471 0.61568627 0.94117647
v 0.04895157 0.00553374 0.00577635 0.61176471 0.61568627 0.94117647
v 0.05055729 0.01192986 0.00577635 0.61176471 0.61568627 0.94117647
v 0.05490664 0.00553374 0.00164880 0.61176471 0.61568627 0.94117647
v 0.05060786 0.01191593 0.00164880 0.61176471 0.61568627 0.94117647
v 0.05161302 0.00553374 0.00577554 0.61176471 0.61568627 0.94117647
v 0.05161302 0.00959876 0.00577635 0.61176471 0.61568627 0.94117647
v 0.05060786 0.01191593 0.00577635 0.61176471 0.61568627 0.94117647
v 0.05490664 0.00946640 0.00164880 0.61176471 0.61568627 0.94117647
v 0.05490664 0.00553374 0.00564543 0.61176471 0.61568627 0.94117647
v 0.05066476 0.01189313 0.00577635 0.61176471 0.61568627 0.94117647
v 0.05075326 0.01185450 0.00164880 0.61176471 0.61568627 0.94117647
v 0.05161302 0.01056261 0.00577635 0.61176471 0.61568627 0.94117647
v 0.05490664 0.00946640 0.00564543 0.61176471 0.61568627 0.94117647
v 0.05085441 0.01181017 0.00164880 0.61176471 0.61568627 0.94117647
v 0.05085441 0.01181017 0.00577635 0.61176471 0.61568627 0.94117647
v 0.05159405 0.01075893 0.00577635 0.61176471 0.61568627 0.94117647
v 0.05106935 0.01166578 0.00577635 0.61176471 0.61568627 0.94117647
v 0.05112625 0.01161322 0.00577635 0.61176471 0.61568627 0.94117647
v 0.05125900 0.01148846 0.00577635 0.61176471 0.61568627 0.94117647
v 0.05137912 0.01132698 0.00577635 0.61176471 0.61568627 0.94117647
v 0.05141072 0.01128265 0.00577635 0.61176471 0.61568627 0.94117647
v 0.05143601 0.01123389 0.00577635 0.61176471 0.61568627 0.94117647
v 0.05152451 0.01105530 0.00577635 0.61176471 0.61568627 0.94117647
v 0.05157509 0.01086532 0.00577635 0.61176471 0.61568627 0.94117647
v 0.05158773 0.01081276 0.00577635 0.61176471 0.61568627 0.94117647
f 1 2 5
f 1 5 3
f 1 3 7
f 1 7 12
f 1 12 18
f 1 18 23
f 1 23 29
f 1 29 33
f 1 33 42
f 1 42 41
f 1 41 40
f 1 40 39
f 1 39 38
f 1 38 37
f 1 37 36
f 1 36 35
f 1 35 34
f 1 34 32
f 1 32 27
f 1 27 24
f 1 24 19
f 1 19 13
f 1 13 8
f 1 8 4
f 1 4 6
f 1 6 2
f 2 6 10
f 2 10 17
f 2 17 21
f 2 21 28
f 2 28 31
f 2 31 25
f 2 25 20
f 2 20 15
f 2 15 9
f 2 9 5
f 3 5 9
f 3 9 14
f 3 14 11
f 3 11 7
f 4 8 6
f 6 8 10
f 7 11 12
f 8 13 10
f 9 15 16
f 9 16 12
f 9 12 14
f 10 13 17
f 11 14 12
f 12 16 15
f 12 15 20
f 12 20 26
f 12 26 22
f 12 22 18
f 13 19 17
f 17 19 21
f 18 22 23
f 19 24 21
f 20 25 30
f 20 30 26
f 21 24 27
f 21 27 28
f 22 26 23
f 23 26 30
f 23 30 29
f 25 31 32
f 25 32 30
f 27 32 28
f 28 32 31
f 29 30 33
f 30 32 34
f 30 34 35
f 30 35 36
f 30 36 37
f 30 37 38
f 30 38 39
f 30 39 40
f 30 40 41
f 30 41 42
f 30 42 33