# https://github.com/mikedh/trimesh
v -0.02177043 0.00572982 0.00577665 0.43529412 0.98823529 0.10196078
v -0.02198194 0.00572982 0.01020618 0.43529412 0.98823529 0.10196078
v -0.02157019 0.00554031 0.00164976 0.43529412 0.98823529 0.10196078
v -0.04998310 0.00572982 0.00577665 0.43529412 0.98823529 0.10196078
v -0.02198194 -0.00572563 0.01020618 0.43529412 0.98823529 0.10196078
v -0.02157019 -0.00553164 0.00167974 0.43529412 0.98823529 0.10196078
v -0.02199322 0.00572982 0.01032318 0.43529412 0.98823529 0.10196078
v -0.02157019 -0.00553164 0.00164976 0.43529412 0.98823529 0.10196078
v -0.05038074 0.00554031 0.00164976 0.43529412 0.98823529 0.10196078
v -0.04998310 0.00572982 0.01014527 0.43529412 0.98823529 0.10196078
v -0.02177043 -0.00572563 0.00577665 0.43529412 0.98823529 0.10196078
v -0.02199322 -0.00572563 0.01032125 0.43529412 0.98823529 0.10196078
v -0.02201578 0.00572982 0.01043535 0.43529412 0.98823529 0.10196078
v -0.02201578 -0.00572563 0.01043825 0.43529412 0.98823529 0.10196078
v -0.05038074 -0.00553164 0.00164976 0.43529412 0.98823529 0.10196078
v -0.05038074 0.00554031 0.00576021 0.43529412 0.98823529 0.10196078
v -0.04998310 -0.00572563 0.01014527 0.43529412 0.98823529 0.10196078
v -0.04997746 0.00572982 0.01020135 0.43529412 0.98823529 0.10196078
v -0.04998310 -0.00572563 0.00577665 0.43529412 0.98823529 0.10196078
v -0.02204962 0.00572982 0.01055138 0.43529412 0.98823529 0.10196078
v -0.02204680 -0.00572563 0.01054848 0.43529412 0.98823529 0.10196078
v -0.05038074 -0.00553164 0.00576021 0.43529412 0.98823529 0.10196078
v -0.04997746 -0.00572563 0.01020135 0.43529412 0.98823529 0.10196078
v -0.04995772 0.00572982 0.01038507 0.43529412 0.98823529 0.10196078
v -0.02209192 0.00572982 0.01065871 0.43529412 0.98823529 0.10196078
v -0.02209192 -0.00572563 0.01066161 0.43529412 0.98823529 0.10196078
v -0.04995772 -0.00572563 0.01038507 0.43529412 0.98823529 0.10196078
v -0.04992388 0.00000097 0.01050207 0.43529412 0.98823529 0.10196078
v -0.04990414 0.00572982 0.01056492 0.43529412 0.98823529 0.10196078
v -0.02214550 0.00572982 0.01076797 0.43529412 0.98823529 0.10196078
v -0.02214550 -0.00572563 0.01077184 0.43529412 0.98823529 0.10196078
v -0.04990414 -0.00572563 0.01056492 0.43529412 0.98823529 0.10196078
v -0.04988721 0.00572982 0.01061810 0.43529412 0.98823529 0.10196078
v -0.02220755 0.00572982 0.01087047 0.43529412 0.98823529 0.10196078
v -0.02220755 -0.00572563 0.01087047 0.43529412 0.98823529 0.10196078
v -0.04988721 -0.00572563 0.01061810 0.43529412 0.98823529 0.10196078
v -0.04986465 0.00572982 0.01066838 0.43529412 0.98823529 0.10196078
v -0.02228087 0.00572982 0.01096716 0.43529412 0.98823529 0.10196078
v -0.02228369 -0.00572563 0.01097103 0.43529412 0.98823529 0.10196078
v -0.04986465 -0.00572563 0.01066838 0.43529412 0.98823529 0.10196078
v -0.04977723 0.00572982 0.01083566 0.43529412 0.98823529 0.10196078
v -0.02235983 0.00572982 0.01105419 0.43529412 0.98823529 0.10196078
v -0.02236265 -0.00572563 0.01105806 0.43529412 0.98823529 0.10196078
v -0.04977723 -0.00572563 0.01083566 0.43529412 0.98823529 0.10196078
v -0.04965878 0.00572982 0.01098747 0.43529412 0.98823529 0.10196078
v -0.02253750 0.00572982 0.01121083 0.43529412 0.98823529 0.10196078
v -0.02237111 -0.00572563 0.01106579 0.43529412 0.98823529 0.10196078
v -0.04965878 -0.00572563 0.01098747 0.43529412 0.98823529 0.10196078
v -0.04962212 0.00572982 0.01103388 0.43529412 0.98823529 0.10196078
v -0.02254878 0.00572982 0.01122050 0.43529412 0.98823529 0.10196078
v -0.02254878 -0.00572563 0.01122050 0.43529412 0.98823529 0.10196078
v -0.04962212 -0.00572563 0.01103388 0.43529412 0.98823529 0.10196078
v -0.04958264 0.00572982 0.01107256 0.43529412 0.98823529 0.10196078
v -0.02276311 0.00572982 0.01135104 0.43529412 0.98823529 0.10196078
v -0.02276311 -0.00572563 0.01135104 0.43529412 0.98823529 0.10196078
v -0.04958264 -0.00572563 0.01107256 0.43529412 0.98823529 0.10196078
v -0.04943599 0.00572982 0.01120310 0.43529412 0.98823529 0.10196078
v -0.02299718 0.00572982 0.01144773 0.43529412 0.98823529 0.10196078
v -0.02299718 -0.00572563 0.01144773 0.43529412 0.98823529 0.10196078
v -0.04943599 -0.00572563 0.01120310 0.43529412 0.98823529 0.10196078
v -0.04926960 0.00572982 0.01130946 0.43529412 0.98823529 0.10196078
v -0.02322280 0.00572982 0.01150091 0.43529412 0.98823529 0.10196078
v -0.02324818 -0.00572563 0.01150671 0.43529412 0.98823529 0.10196078
v -0.04926960 -0.00572563 0.01130946 0.43529412 0.98823529 0.10196078
v -0.04921884 0.00572982 0.01134137 0.43529412 0.98823529 0.10196078
v -0.02324818 0.00572982 0.01150671 0.43529412 0.98823529 0.10196078
v -0.02350481 -0.00572563 0.01152702 0.43529412 0.98823529 0.10196078
v -0.04921884 -0.00572563 0.01134137 0.43529412 0.98823529 0.10196078
v -0.04897631 0.00572982 0.01144290 0.43529412 0.98823529 0.10196078
v -0.02350481 0.00572982 0.01152702 0.43529412 0.98823529 0.10196078
v -0.04845741 -0.00572563 0.01152702 0.43529412 0.98823529 0.10196078
v -0.04897631 -0.00572563 0.01144290 0.43529412 0.98823529 0.10196078
v -0.04878172 0.00572982 0.01149124 0.43529412 0.98823529 0.10196078
v -0.04845741 0.00572982 0.01152702 0.43529412 0.98823529 0.10196078
v -0.04866327 -0.00572563 0.01151058 0.43529412 0.98823529 0.10196078
v -0.04878172 -0.00572563 0.01149124 0.43529412 0.98823529 0.10196078
v -0.04872250 0.00572982 0.01150478 0.43529412 0.98823529 0.10196078
v -0.04866327 0.00572982 0.01151058 0.43529412 0.98823529 0.10196078
v -0.04872250 -0.00572563 0.01150478 0.43529412 0.98823529 0.10196078
f 1 2 3
f 1 3 9
f 1 9 4
f 1 4 10
f 1 10 18
f 1 18 24
f 1 24 29
f 1 29 33
f 1 33 37
f 1 37 41
f 1 41 45
f 1 45 49
f 1 49 53
f 1 53 57
f 1 57 61
f 1 61 65
f 1 65 69
f 1 69 73
f 1 73 77
f 1 77 78
f 1 78 74
f 1 74 70
f 1 70 66
f 1 66 62
f 1 62 58
f 1 58 54
f 1 54 50
f 1 50 46
f 1 46 42
f 1 42 38
f 1 38 34
f 1 34 30
f 1 30 25
f 1 25 20
f 1 20 13
f 1 13 7
f 1 7 2
f 2 5 6
f 2 6 3
f 2 7 5
f 3 6 8
f 3 8 15
f 3 15 9
f 4 9 16
f 4 16 10
f 5 11 6
f 5 7 12
f 5 12 14
f 5 14 21
f 5 21 26
f 5 26 31
f 5 31 35
f 5 35 39
f 5 39 43
f 5 43 47
f 5 47 51
f 5 51 55
f 5 55 59
f 5 59 63
f 5 63 67
f 5 67 71
f 5 71 75
f 5 75 79
f 5 79 76
f 5 76 72
f 5 72 68
f 5 68 64
f 5 64 60
f 5 60 56
f 5 56 52
f 5 52 48
f 5 48 44
f 5 44 40
f 5 40 36
f 5 36 32
f 5 32 27
f 5 27 23
f 5 23 17
f 5 17 19
f 5 19 11
f 6 11 8
f 7 13 14
f 7 14 12
f 8 11 19
f 8 19 15
f 9 15 22
f 9 22 16
f 10 16 22
f 10 22 17
f 10 17 23
f 10 23 18
f 13 20 21
f 13 21 14
f 15 19 17
f 15 17 22
f 18 23 27
f 18 27 24
f 20 25 21
f 21 25 26
f 24 28 29
f 24 27 28
f 25 30 31
f 25 31 26
f 27 32 28
f 28 32 29
f 29 32 36
f 29 36 33
f 30 34 31
f 31 34 35
f 33 36 40
f 33 40 37
f 34 38 39
f 34 39 35
f 37 40 44
f 37 44 41
f 38 42 43
f 38 43 39
f 41 44 48
f 41 48 45
f 42 46 47
f 42 47 43
f 45 48 52
f 45 52 49
f 46 50 51
f 46 51 47
f 49 52 56
f 49 56 53
f 50 54 55
f 50 55 51
f 53 56 60
f 53 60 57
f 54 58 59
f 54 59 55
f 57 60 64
f 57 64 61
f 58 62 59
f 59 62 63
f 61 64 68
f 61 68 65
f 62 66 63
f 63 66 70
f 63 70 67
f 65 68 72
f 65 72 69
f 67 70 74
f 67 74 71
f 69 72 76
f 69 76 73
f 71 74 78
f 71 78 75
f 73 76 79
f 73 79 77
f 75 78 77
f 75 77 79