# https://github.com/mikedh/trimesh
v -0.02120428 -0.01200332 -0.00572752 0.31372549 0.36078431 0.56862745
v -0.02120428 -0.00521685 -0.00572752 0.31372549 0.36078431 0.56862745
v -0.00947289 -0.01200332 -0.00572752 0.31372549 0.36078431 0.56862745
v -0.02120428 -0.01200332 0.00164839 0.31372549 0.36078431 0.56862745
v -0.02120428 -0.00546248 -0.00031760 0.31372549 0.36078431 0.56862745
v -0.00219160 -0.00520287 0.00164839 0.31372549 0.36078431 0.56862745
v -0.00227004 -0.00520287 0.00008383 0.31372549 0.36078431 0.56862745
v -0.00254817 -0.00520287 -0.00572752 0.31372549 0.36078431 0.56862745
v -0.00947289 -0.01200332 0.00164839 0.31372549 0.36078431 0.56862745
v 0.05008970 -0.01200265 -0.00572752 0.31372549 0.36078431 0.56862745
v -0.02120428 -0.00555234 0.00164839 0.31372549 0.36078431 0.56862745
v 0.05165151 -0.00520287 0.00164839 0.31372549 0.36078431 0.56862745
v 0.05160872 -0.00520287 -0.00572752 0.31372549 0.36078431 0.56862745
v 0.05008970 -0.01200265 0.00164839 0.31372549 0.36078431 0.56862745
v 0.05029651 -0.01198601 -0.00572752 0.31372549 0.36078431 0.56862745
v 0.05165151 -0.00960026 0.00164839 0.31372549 0.36078431 0.56862745
v 0.05165151 -0.00520287 -0.00572536 0.31372549 0.36078431 0.56862745
v 0.05160872 -0.01056282 -0.00572752 0.31372549 0.36078431 0.56862745
v 0.05019667 -0.01199400 0.00164839 0.31372549 0.36078431 0.56862745
v 0.05034644 -0.01198135 -0.00572752 0.31372549 0.36078431 0.56862745
v 0.05034644 -0.01198135 0.00164839 0.31372549 0.36078431 0.56862745
v 0.05160872 -0.01056282 0.00164839 0.31372549 0.36078431 0.56862745
v 0.05165151 -0.00960026 -0.00572536 0.31372549 0.36078431 0.56862745
v 0.05159446 -0.01075852 -0.00572752 0.31372549 0.36078431 0.56862745
v 0.05061031 -0.01191612 -0.00572752 0.31372549 0.36078431 0.56862745
v 0.05046054 -0.01195406 0.00164839 0.31372549 0.36078431 0.56862745
v 0.05158733 -0.01081244 0.00164839 0.31372549 0.36078431 0.56862745
v 0.05158733 -0.01081244 -0.00572752 0.31372549 0.36078431 0.56862745
v 0.05061031 -0.01191612 0.00164839 0.31372549 0.36078431 0.56862745
v 0.05079573 -0.01183291 -0.00572752 0.31372549 0.36078431 0.56862745
v 0.05071015 -0.01187152 0.00164839 0.31372549 0.36078431 0.56862745
v 0.05155880 -0.01091362 0.00164839 0.31372549 0.36078431 0.56862745
v 0.05153741 -0.01100282 -0.00572752 0.31372549 0.36078431 0.56862745
v 0.05084565 -0.01181028 -0.00572752 0.31372549 0.36078431 0.56862745
v 0.05084565 -0.01181028 0.00164839 0.31372549 0.36078431 0.56862745
v 0.05151601 -0.01105541 0.00164839 0.31372549 0.36078431 0.56862745
v 0.05151601 -0.01105541 -0.00572752 0.31372549 0.36078431 0.56862745
v 0.05093836 -0.01174970 0.00164839 0.31372549 0.36078431 0.56862745
v 0.05106672 -0.01166516 -0.00572752 0.31372549 0.36078431 0.56862745
v 0.05140903 -0.01128307 0.00164839 0.31372549 0.36078431 0.56862745
v 0.05140903 -0.01128307 -0.00572752 0.31372549 0.36078431 0.56862745
v 0.05106672 -0.01166516 0.00164839 0.31372549 0.36078431 0.56862745
v 0.05125214 -0.01148876 -0.00572752 0.31372549 0.36078431 0.56862745
v 0.05125214 -0.01148876 0.00164839 0.31372549 0.36078431 0.56862745
v 0.05128780 -0.01144416 -0.00572752 0.31372549 0.36078431 0.56862745
f 1 2 8
f 1 8 13
f 1 13 18
f 1 18 24
f 1 24 28
f 1 28 33
f 1 33 37
f 1 37 41
f 1 41 45
f 1 45 43
f 1 43 39
f 1 39 34
f 1 34 30
f 1 30 25
f 1 25 20
f 1 20 15
f 1 15 10
f 1 10 3
f 1 3 9
f 1 9 4
f 1 4 11
f 1 11 5
f 1 5 2
f 2 5 6
f 2 6 7
f 2 7 8
f 3 10 14
f 3 14 9
f 4 9 14
f 4 14 19
f 4 19 21
f 4 21 26
f 4 26 29
f 4 29 31
f 4 31 35
f 4 35 38
f 4 38 42
f 4 42 44
f 4 44 40
f 4 40 36
f 4 36 32
f 4 32 27
f 4 27 22
f 4 22 16
f 4 16 12
f 4 12 6
f 4 6 11
f 5 11 6
f 6 12 17
f 6 17 13
f 6 13 8
f 6 8 7
f 10 15 14
f 12 16 23
f 12 23 17
f 13 17 23
f 13 23 18
f 14 15 19
f 15 20 21
f 15 21 19
f 16 22 18
f 16 18 23
f 18 22 24
f 20 25 26
f 20 26 21
f 22 27 24
f 24 27 28
f 25 29 26
f 25 30 31
f 25 31 29
f 27 32 33
f 27 33 28
f 30 34 35
f 30 35 31
f 32 36 33
f 33 36 37
f 34 38 35
f 34 39 38
f 36 40 41
f 36 41 37
f 38 39 42
f 39 43 44
f 39 44 42
f 40 44 45
f 40 45 41
f 43 45 44