# https://github.com/mikedh/trimesh
v -0.02120428 0.00528402 -0.00572752 0.56470588 0.01568627 0.61568627
v -0.02120428 0.01200265 -0.00572752 0.56470588 0.01568627 0.61568627
v -0.01691109 0.00521602 -0.00572752 0.56470588 0.01568627 0.61568627
v -0.02120428 0.00521669 -0.00572247 0.56470588 0.01568627 0.61568627
v -0.02120428 0.01200265 0.00164839 0.56470588 0.01568627 0.61568627
v 0.05008970 0.01200265 -0.00572752 0.56470588 0.01568627 0.61568627
v -0.00254817 0.00512513 -0.00572752 0.56470588 0.01568627 0.61568627
v -0.02120428 0.00555199 0.00164839 0.56470588 0.01568627 0.61568627
v -0.00254817 0.00512513 -0.00563366 0.56470588 0.01568627 0.61568627
v -0.00227004 0.00512513 0.00008383 0.56470588 0.01568627 0.61568627
v -0.00219873 0.00512513 0.00153721 0.56470588 0.01568627 0.61568627
v -0.00219160 0.00512513 0.00164839 0.56470588 0.01568627 0.61568627
v 0.05008970 0.01200265 0.00164839 0.56470588 0.01568627 0.61568627
v 0.05029651 0.01198514 -0.00572752 0.56470588 0.01568627 0.61568627
v 0.04792884 0.00512513 -0.00572752 0.56470588 0.01568627 0.61568627
v 0.05165151 0.00512513 0.00164839 0.56470588 0.01568627 0.61568627
v 0.05023946 0.01198985 0.00164839 0.56470588 0.01568627 0.61568627
v 0.05034644 0.01198043 0.00164839 0.56470588 0.01568627 0.61568627
v 0.05034644 0.01198043 -0.00572752 0.56470588 0.01568627 0.61568627
v 0.05160872 0.00960174 -0.00572752 0.56470588 0.01568627 0.61568627
v 0.05160872 0.00512513 -0.00572608 0.56470588 0.01568627 0.61568627
v 0.05165151 0.00512513 -0.00572536 0.56470588 0.01568627 0.61568627
v 0.05165151 0.00960040 0.00164839 0.56470588 0.01568627 0.61568627
v 0.05048194 0.01194811 0.00002390 0.56470588 0.01568627 0.61568627
v 0.05061031 0.01191512 0.00164839 0.56470588 0.01568627 0.61568627
v 0.05061031 0.01191579 -0.00572752 0.56470588 0.01568627 0.61568627
v 0.05160872 0.01056184 -0.00572752 0.56470588 0.01568627 0.61568627
v 0.05165151 0.00960040 -0.00572536 0.56470588 0.01568627 0.61568627
v 0.05160872 0.01056184 0.00164839 0.56470588 0.01568627 0.61568627
v 0.05061031 0.01191579 0.00002390 0.56470588 0.01568627 0.61568627
v 0.05071015 0.01187069 0.00164839 0.56470588 0.01568627 0.61568627
v 0.05079573 0.01183231 -0.00572752 0.56470588 0.01568627 0.61568627
v 0.05159446 0.01075843 -0.00572752 0.56470588 0.01568627 0.61568627
v 0.05158733 0.01081229 0.00164839 0.56470588 0.01568627 0.61568627
v 0.05084565 0.01180942 0.00164839 0.56470588 0.01568627 0.61568627
v 0.05084565 0.01180942 -0.00572752 0.56470588 0.01568627 0.61568627
v 0.05158733 0.01081229 -0.00572752 0.56470588 0.01568627 0.61568627
v 0.05153741 0.01100216 -0.00572752 0.56470588 0.01568627 0.61568627
v 0.05155880 0.01091396 0.00164839 0.56470588 0.01568627 0.61568627
v 0.05089557 0.01177845 -0.00572752 0.56470588 0.01568627 0.61568627
v 0.05106672 0.01166534 0.00164839 0.56470588 0.01568627 0.61568627
v 0.05151601 0.01105467 -0.00572752 0.56470588 0.01568627 0.61568627
v 0.05151601 0.01105467 0.00164839 0.56470588 0.01568627 0.61568627
v 0.05106672 0.01166534 -0.00572752 0.56470588 0.01568627 0.61568627
v 0.05125214 0.01148759 0.00164839 0.56470588 0.01568627 0.61568627
v 0.05140903 0.01128224 -0.00572752 0.56470588 0.01568627 0.61568627
v 0.05140903 0.01128224 0.00164839 0.56470588 0.01568627 0.61568627
v 0.05125214 0.01148759 -0.00572752 0.56470588 0.01568627 0.61568627
v 0.05128780 0.01144316 -0.00572752 0.56470588 0.01568627 0.61568627
f 1 2 6
f 1 6 14
f 1 14 19
f 1 19 26
f 1 26 32
f 1 32 36
f 1 36 40
f 1 40 44
f 1 44 48
f 1 48 49
f 1 49 46
f 1 46 42
f 1 42 38
f 1 38 37
f 1 37 33
f 1 33 27
f 1 27 20
f 1 20 15
f 1 15 7
f 1 7 3
f 1 3 4
f 1 4 8
f 1 8 5
f 1 5 2
f 2 5 13
f 2 13 6
f 3 7 4
f 4 7 9
f 4 9 10
f 4 10 11
f 4 11 12
f 4 12 8
f 5 8 12
f 5 12 16
f 5 16 23
f 5 23 29
f 5 29 34
f 5 34 39
f 5 39 43
f 5 43 47
f 5 47 45
f 5 45 41
f 5 41 35
f 5 35 31
f 5 31 25
f 5 25 18
f 5 18 17
f 5 17 13
f 6 13 14
f 7 15 21
f 7 21 22
f 7 22 16
f 7 16 12
f 7 12 11
f 7 11 10
f 7 10 9
f 13 17 14
f 14 17 18
f 14 18 19
f 15 20 21
f 16 22 28
f 16 28 23
f 18 24 19
f 18 25 24
f 19 24 26
f 20 27 28
f 20 28 22
f 20 22 21
f 23 28 27
f 23 27 29
f 24 25 30
f 24 30 26
f 25 31 30
f 26 30 32
f 27 33 29
f 29 33 34
f 30 31 32
f 31 35 32
f 32 35 36
f 33 37 34
f 34 37 38
f 34 38 39
f 35 40 36
f 35 41 40
f 38 42 43
f 38 43 39
f 40 41 44
f 41 45 48
f 41 48 44
f 42 46 47
f 42 47 43
f 45 49 48
f 45 47 49
f 46 49 47