# https://github.com/mikedh/trimesh
v -0.00967611 0.01200269 0.00577635 0.69411765 0.05882353 0.66666667
v -0.00967611 0.00573983 0.00577635 0.69411765 0.05882353 0.66666667
v -0.00967611 0.01200269 0.00164880 0.69411765 0.05882353 0.66666667
v -0.04845896 0.01200269 0.00577635 0.69411765 0.05882353 0.66666667
v -0.00967611 0.00561333 0.00300121 0.69411765 0.05882353 0.66666667
v -0.02176960 0.00554186 0.00577635 0.69411765 0.05882353 0.66666667
v -0.00967611 0.00555198 0.00164880 0.69411765 0.05882353 0.66666667
v -0.04845896 0.01200269 0.00164880 0.69411765 0.05882353 0.66666667
v -0.04851475 0.01199826 0.00577635 0.69411765 0.05882353 0.66666667
v -0.02175765 0.00554186 0.00559209 0.69411765 0.05882353 0.66666667
v -0.04739904 0.00554186 0.00577635 0.69411765 0.05882353 0.66666667
v -0.02157037 0.00554186 0.00164880 0.69411765 0.05882353 0.66666667
v -0.04857054 0.01199383 0.00164880 0.69411765 0.05882353 0.66666667
v -0.04872195 0.01198118 0.00577635 0.69411765 0.05882353 0.66666667
v -0.04998111 0.00959862 0.00577635 0.69411765 0.05882353 0.66666667
v -0.04998111 0.00554186 0.00577554 0.69411765 0.05882353 0.66666667
v -0.05037958 0.00554186 0.00164880 0.69411765 0.05882353 0.66666667
v -0.04872195 0.01198118 0.00164880 0.69411765 0.05882353 0.66666667
v -0.04877773 0.01196727 0.00577635 0.69411765 0.05882353 0.66666667
v -0.04998111 0.01056252 0.00577635 0.69411765 0.05882353 0.66666667
v -0.05037958 0.00554186 0.00575938 0.69411765 0.05882353 0.66666667
v -0.05037958 0.00958597 0.00164880 0.69411765 0.05882353 0.66666667
v -0.04882954 0.01195399 0.00164880 0.69411765 0.05882353 0.66666667
v -0.04892517 0.01192995 0.00577635 0.69411765 0.05882353 0.66666667
v -0.04997713 0.01061628 0.00577635 0.69411765 0.05882353 0.66666667
v -0.05037958 0.00958597 0.00575938 0.69411765 0.05882353 0.66666667
v -0.04988946 0.01105523 0.00164880 0.69411765 0.05882353 0.66666667
v -0.04897697 0.01191604 0.00164880 0.69411765 0.05882353 0.66666667
v -0.04897697 0.01191604 0.00577635 0.69411765 0.05882353 0.66666667
v -0.04996517 0.01075859 0.00577635 0.69411765 0.05882353 0.66666667
v -0.04995720 0.01081299 0.00577635 0.69411765 0.05882353 0.66666667
v -0.04994525 0.01086485 0.00577635 0.69411765 0.05882353 0.66666667
v -0.04990540 0.01100273 0.00577635 0.69411765 0.05882353 0.66666667
v -0.04988946 0.01105523 0.00577635 0.69411765 0.05882353 0.66666667
v -0.04985758 0.01112290 0.00577635 0.69411765 0.05882353 0.66666667
v -0.04982571 0.01118742 0.00164880 0.69411765 0.05882353 0.66666667
v -0.04908057 0.01187176 0.00164880 0.69411765 0.05882353 0.66666667
v -0.04903276 0.01189327 0.00577635 0.69411765 0.05882353 0.66666667
v -0.04977789 0.01128292 0.00577635 0.69411765 0.05882353 0.66666667
v -0.04977789 0.01128292 0.00164880 0.69411765 0.05882353 0.66666667
v -0.04912042 0.01185469 0.00164880 0.69411765 0.05882353 0.66666667
v -0.04916824 0.01183318 0.00577635 0.69411765 0.05882353 0.66666667
v -0.04974601 0.01132719 0.00577635 0.69411765 0.05882353 0.66666667
v -0.04962648 0.01148848 0.00164880 0.69411765 0.05882353 0.66666667
v -0.04922003 0.01180978 0.00164880 0.69411765 0.05882353 0.66666667
v -0.04922003 0.01180978 0.00577635 0.69411765 0.05882353 0.66666667
v -0.04962648 0.01148848 0.00577635 0.69411765 0.05882353 0.66666667
v -0.04957068 0.01154161 0.00577635 0.69411765 0.05882353 0.66666667
v -0.04947904 0.01162763 0.00577635 0.69411765 0.05882353 0.66666667
v -0.04954678 0.01156311 0.00164880 0.69411765 0.05882353 0.66666667
v -0.04934755 0.01172629 0.00164880 0.69411765 0.05882353 0.66666667
v -0.04926785 0.01177879 0.00577635 0.69411765 0.05882353 0.66666667
v -0.04943521 0.01166621 0.00164880 0.69411765 0.05882353 0.66666667
v -0.04943521 0.01166621 0.00577635 0.69411765 0.05882353 0.66666667
v -0.04939138 0.01169720 0.00577635 0.69411765 0.05882353 0.66666667
f 1 2 5
f 1 5 7
f 1 7 3
f 1 3 8
f 1 8 4
f 1 4 9
f 1 9 14
f 1 14 19
f 1 19 24
f 1 24 29
f 1 29 38
f 1 38 42
f 1 42 46
f 1 46 52
f 1 52 55
f 1 55 54
f 1 54 49
f 1 49 48
f 1 48 47
f 1 47 43
f 1 43 39
f 1 39 35
f 1 35 34
f 1 34 33
f 1 33 32
f 1 32 31
f 1 31 30
f 1 30 25
f 1 25 20
f 1 20 15
f 1 15 11
f 1 11 6
f 1 6 2
f 2 6 5
f 3 7 12
f 3 12 17
f 3 17 22
f 3 22 27
f 3 27 36
f 3 36 40
f 3 40 44
f 3 44 50
f 3 50 53
f 3 53 51
f 3 51 45
f 3 45 41
f 3 41 37
f 3 37 28
f 3 28 23
f 3 23 18
f 3 18 13
f 3 13 8
f 4 8 13
f 4 13 9
f 5 6 7
f 6 10 7
f 6 11 16
f 6 16 21
f 6 21 17
f 6 17 12
f 6 12 10
f 7 10 12
f 9 13 14
f 11 15 16
f 13 18 14
f 14 18 19
f 15 20 26
f 15 26 21
f 15 21 16
f 17 21 26
f 17 26 22
f 18 23 19
f 19 23 24
f 20 25 26
f 22 26 34
f 22 34 27
f 23 28 24
f 24 28 29
f 25 30 26
f 26 30 31
f 26 31 32
f 26 32 33
f 26 33 34
f 27 34 35
f 27 35 36
f 28 37 38
f 28 38 29
f 35 39 36
f 36 39 40
f 37 41 38
f 38 41 42
f 39 43 40
f 40 43 44
f 41 45 42
f 42 45 46
f 43 47 44
f 44 47 48
f 44 48 49
f 44 49 50
f 45 51 52
f 45 52 46
f 49 53 50
f 49 54 53
f 51 55 52
f 51 53 55
f 53 54 55