# https://github.com/mikedh/trimesh
v -0.08125000 -0.08125050 -0.01562500
v -0.06164200 -0.06062600 -0.01562500
v -0.06164200 -0.05063900 -0.01562500
v -0.05085800 -0.06062600 -0.01562500
v -0.05085800 -0.05063900 -0.01562500
v -0.08125000 -0.08125050 0.01562500
v -0.06164200 -0.06062600 0.01562500
v -0.06164200 -0.05063900 0.01562500
v -0.05085800 -0.06062600 0.01562500
v -0.05085800 -0.05063900 0.01562500
v -0.06164200 0.05187400 -0.01562500
v -0.08125000 0.08125050 -0.01562500
v -0.06164200 0.06186100 -0.01562500
v -0.05085800 0.05187400 -0.01562500
v -0.05085800 0.06186100 -0.01562500
v -0.06164200 0.05187400 0.01562500
v -0.08125000 0.08125050 0.01562500
v -0.06164200 0.06186100 0.01562500
v -0.05085800 0.05187400 0.01562500
v -0.05085800 0.06186100 0.01562500
v 0.05085800 -0.06062600 -0.01562500
v 0.05085800 -0.05063900 -0.01562500
v 0.08125000 -0.08125050 -0.01562500
v 0.06164200 -0.06062600 -0.01562500
v 0.06164200 -0.05063900 -0.01562500
v 0.05085800 -0.06062600 0.01562500
v 0.05085800 -0.05063900 0.01562500
v 0.08125000 -0.08125050 0.01562500
v 0.06164200 -0.06062600 0.01562500
v 0.06164200 -0.05063900 0.01562500
v 0.05085800 0.05187400 -0.01562500
v 0.05085800 0.06186100 -0.01562500
v 0.06164200 0.05187400 -0.01562500
v 0.06164200 0.06186100 -0.01562500
v 0.08125000 0.08125050 -0.01562500
v 0.05085800 0.05187400 0.01562500
v 0.05085800 0.06186100 0.01562500
v 0.06164200 0.05187400 0.01562500
v 0.06164200 0.06186100 0.01562500
v 0.08125000 0.08125050 0.01562500
f 1 3 2
f 1 11 3
f 14 5 3
f 1 2 23
f 23 2 4
f 5 21 4
f 1 23 6
f 14 21 5
f 6 9 7
f 1 6 17
f 6 7 17
f 17 7 8
f 10 16 8
f 6 26 9
f 9 36 10
f 1 12 11
f 14 3 11
f 1 17 12
f 12 13 11
f 12 35 13
f 15 31 14
f 35 15 13
f 17 8 16
f 10 19 16
f 17 16 18
f 17 18 20
f 10 36 19
f 12 17 40
f 17 20 37
f 19 37 20
f 23 4 21
f 21 14 22
f 23 21 24
f 22 33 25
f 35 24 25
f 23 24 35
f 23 35 28
f 6 23 28
f 6 29 26
f 9 26 27
f 6 28 29
f 9 27 36
f 28 30 29
f 36 27 30
f 28 38 30
f 14 31 22
f 15 32 31
f 35 32 15
f 12 40 35
f 22 31 33
f 35 25 33
f 35 34 32
f 35 33 34
f 19 36 37
f 17 37 39
f 17 39 40
f 28 35 40
f 36 30 38
f 28 40 38
f 40 39 38
f 11 13 18
f 14 11 16
f 19 15 14
f 20 13 15
f 11 18 16
f 16 19 14
f 19 20 15
f 20 18 13
f 36 33 31
f 37 31 32
f 39 32 34
f 38 34 33
f 37 36 31
f 36 38 33
f 39 37 32
f 38 39 34
f 2 3 8
f 4 2 7
f 5 4 9
f 3 5 10
f 2 8 7
f 7 9 4
f 9 10 5
f 3 10 8
f 24 21 26
f 21 22 27
f 30 22 25
f 29 25 24
f 21 27 26
f 26 29 24
f 30 27 22
f 29 30 25