# https://github.com/mikedh/trimesh
v -0.00613984 -0.08302120 0.02860349 0.79607843 0.45882353 0.78039216
v -0.00613984 -0.07388628 0.02860349 0.79607843 0.45882353 0.78039216
v -0.00068478 -0.08302120 0.02860349 0.79607843 0.45882353 0.78039216
v -0.01887436 -0.09201723 0.02860558 0.79607843 0.45882353 0.78039216
v -0.00158663 -0.07388628 0.02860349 0.79607843 0.45882353 0.78039216
v -0.01887436 -0.08705090 0.02860558 0.79607843 0.45882353 0.78039216
v -0.01078350 -0.07382752 0.03012600 0.79607843 0.45882353 0.78039216
v 0.00751720 -0.08704555 0.02860558 0.79607843 0.45882353 0.78039216
v 0.00751720 -0.09201189 0.02860558 0.79607843 0.45882353 0.78039216
v -0.01110651 -0.09201723 0.02860558 0.79607843 0.45882353 0.78039216
v -0.01887436 -0.09201723 0.03573439 0.79607843 0.45882353 0.78039216
v -0.01887695 -0.09201189 0.03725900 0.79607843 0.45882353 0.78039216
v -0.01110651 -0.09201901 0.04286738 0.79607843 0.45882353 0.78039216
v -0.00158405 -0.07388628 0.03725900 0.79607843 0.45882353 0.78039216
v -0.00614243 -0.07382752 0.03012600 0.79607843 0.45882353 0.78039216
v -0.00613468 -0.07382752 0.03953963 0.79607843 0.45882353 0.78039216
v -0.01887695 -0.08705090 0.03725900 0.79607843 0.45882353 0.78039216
v -0.01078608 -0.07382752 0.03953963 0.79607843 0.45882353 0.78039216
v 0.00752237 -0.08705090 0.03953963 0.79607843 0.45882353 0.78039216
v 0.00752237 -0.09201367 0.03953963 0.79607843 0.45882353 0.78039216
v 0.00751720 -0.09201723 0.03012810 0.79607843 0.45882353 0.78039216
v -0.00614243 -0.09201901 0.04286738 0.79607843 0.45882353 0.78039216
v -0.01887436 -0.09201367 0.04999828 0.79607843 0.45882353 0.78039216
v -0.01887695 -0.09201189 0.03953963 0.79607843 0.45882353 0.78039216
v -0.01110651 -0.09201901 0.04438780 0.79607843 0.45882353 0.78039216
v -0.00158405 -0.07388628 0.03953963 0.79607843 0.45882353 0.78039216
v -0.00613468 -0.07382752 0.04286738 0.79607843 0.45882353 0.78039216
v -0.01887695 -0.08705090 0.03953963 0.79607843 0.45882353 0.78039216
v -0.01078608 -0.07382752 0.04286738 0.79607843 0.45882353 0.78039216
v 0.00752237 -0.08705090 0.04286947 0.79607843 0.45882353 0.78039216
v 0.00752237 -0.09201367 0.04286947 0.79607843 0.45882353 0.78039216
v 0.00751978 -0.09201723 0.03725690 0.79607843 0.45882353 0.78039216
v -0.00614243 -0.09201901 0.04438780 0.79607843 0.45882353 0.78039216
v -0.01887436 -0.08705090 0.04999828 0.79607843 0.45882353 0.78039216
v 0.00751720 -0.09201367 0.04999828 0.79607843 0.45882353 0.78039216
v -0.00158663 -0.07388806 0.04999828 0.79607843 0.45882353 0.78039216
v -0.00614243 -0.07383108 0.04999828 0.79607843 0.45882353 0.78039216
v -0.01078608 -0.07383108 0.04999828 0.79607843 0.45882353 0.78039216
v 0.00751720 -0.08705090 0.04999828 0.79607843 0.45882353 0.78039216
v 0.00751978 -0.09201723 0.03953963 0.79607843 0.45882353 0.78039216
f 1 2 5
f 1 5 3
f 1 3 10
f 1 10 4
f 1 4 6
f 1 6 2
f 2 6 7
f 2 7 15
f 2 15 5
f 3 5 8
f 3 8 9
f 3 9 10
f 4 11 24
f 4 24 12
f 4 12 17
f 4 17 6
f 4 10 22
f 4 22 13
f 4 13 25
f 4 25 11
f 5 14 8
f 5 15 16
f 5 16 14
f 6 17 7
f 7 18 29
f 7 29 27
f 7 27 16
f 7 16 15
f 7 17 18
f 8 19 20
f 8 20 9
f 8 14 19
f 9 20 21
f 9 21 10
f 10 21 22
f 11 23 24
f 11 25 23
f 12 24 28
f 12 28 17
f 13 22 33
f 13 33 25
f 14 16 27
f 14 27 26
f 14 26 30
f 14 30 19
f 17 28 29
f 17 29 18
f 19 30 31
f 19 31 20
f 20 31 40
f 20 40 32
f 20 32 21
f 21 32 22
f 22 32 40
f 22 40 33
f 23 34 28
f 23 28 24
f 23 25 33
f 23 33 35
f 23 35 39
f 23 39 36
f 23 36 37
f 23 37 38
f 23 38 34
f 26 27 36
f 26 36 30
f 27 29 38
f 27 38 37
f 27 37 36
f 28 34 29
f 29 34 38
f 30 39 35
f 30 35 31
f 30 36 39
f 31 35 40
f 33 40 35