# https://github.com/mikedh/trimesh
v -0.03370534 -0.09201723 0.01073762 0.31372549 0.36078431 0.56862745
v -0.03370534 -0.08447498 0.00231001 0.31372549 0.36078431 0.56862745
v -0.03370367 -0.08301852 -0.00000000 0.31372549 0.36078431 0.56862745
v -0.02584186 -0.09201723 0.01073762 0.31372549 0.36078431 0.56862745
v -0.03370534 -0.09201723 0.04999795 0.31372549 0.36078431 0.56862745
v -0.03370534 -0.07382930 0.00231001 0.31372549 0.36078431 0.56862745
v -0.02708109 -0.08301852 -0.00000000 0.31372549 0.36078431 0.56862745
v -0.03370367 -0.07382930 -0.00000000 0.31372549 0.36078431 0.56862745
v -0.01699336 -0.09201723 0.01146194 0.31372549 0.36078431 0.56862745
v -0.01887979 -0.09201723 0.04999795 0.31372549 0.36078431 0.56862745
v -0.03370534 -0.07383286 0.04999795 0.31372549 0.36078431 0.56862745
v -0.03370534 -0.07382930 0.03725376 0.31372549 0.36078431 0.56862745
v -0.02795072 -0.07382930 -0.00000000 0.31372549 0.36078431 0.56862745
v -0.01699336 -0.08676116 0.01146194 0.31372549 0.36078431 0.56862745
v -0.01662043 -0.09201723 0.01290570 0.31372549 0.36078431 0.56862745
v -0.01887979 -0.08704782 0.04999795 0.31372549 0.36078431 0.56862745
v -0.01662043 -0.09201723 0.01362513 0.31372549 0.36078431 0.56862745
v -0.03370367 -0.07382930 0.04666508 0.31372549 0.36078431 0.56862745
v -0.02794905 -0.07383286 0.04999795 0.31372549 0.36078431 0.56862745
v -0.01662043 -0.08662406 0.01290570 0.31372549 0.36078431 0.56862745
v -0.02794905 -0.07382930 0.02147524 0.31372549 0.36078431 0.56862745
v -0.01662043 -0.08662406 0.01362513 0.31372549 0.36078431 0.56862745
v -0.02794905 -0.07382930 0.04666508 0.31372549 0.36078431 0.56862745
f 1 2 3
f 1 3 7
f 1 7 4
f 1 4 9
f 1 9 15
f 1 15 17
f 1 17 10
f 1 10 5
f 1 5 11
f 1 11 12
f 1 12 6
f 1 6 2
f 2 6 8
f 2 8 3
f 3 8 13
f 3 13 7
f 4 7 9
f 5 10 16
f 5 16 19
f 5 19 11
f 6 12 18
f 6 18 23
f 6 23 21
f 6 21 13
f 6 13 8
f 7 13 14
f 7 14 9
f 9 14 20
f 9 20 15
f 10 17 22
f 10 22 16
f 11 18 12
f 11 19 23
f 11 23 18
f 13 20 14
f 13 21 20
f 15 20 22
f 15 22 17
f 16 22 19
f 19 22 23
f 20 21 23
f 20 23 22