# https://github.com/mikedh/trimesh
v 0.02142200 -0.04859445 0.01754825 0.11764706 0.63921569 0.14117647
v 0.02142200 -0.05383245 0.01754825 0.11764706 0.63921569 0.14117647
v 0.02142200 -0.04859445 0.01682661 0.11764706 0.63921569 0.14117647
v 0.00094546 -0.04859445 0.01754825 0.11764706 0.63921569 0.14117647
v 0.02142200 -0.05383245 0.01682661 0.11764706 0.63921569 0.14117647
v 0.00322241 -0.05383245 0.01754825 0.11764706 0.63921569 0.14117647
v 0.00094546 -0.04859445 0.01682661 0.11764706 0.63921569 0.14117647
v 0.00322241 -0.05383245 0.01682661 0.11764706 0.63921569 0.14117647
f 1 2 5
f 1 5 3
f 1 3 7
f 1 7 4
f 1 4 6
f 1 6 2
f 2 6 8
f 2 8 5
f 3 5 8
f 3 8 7
f 4 7 8
f 4 8 6