# https://github.com/mikedh/trimesh
v -0.00616885 -0.04540241 0.01145953 0.25098039 0.46274510 0.24313725
v -0.00616885 -0.04540241 0.01218086 0.25098039 0.46274510 0.24313725
v -0.00616885 -0.04040775 0.01145953 0.25098039 0.46274510 0.24313725
v -0.00613915 -0.04539586 -0.00000000 0.25098039 0.46274510 0.24313725
v -0.00613915 -0.07386285 0.01754624 0.25098039 0.46274510 0.24313725
v -0.00613644 -0.04539586 0.01899262 0.25098039 0.46274510 0.24313725
v -0.00616885 -0.04040775 0.01218086 0.25098039 0.46274510 0.24313725
v -0.00613915 -0.07386285 0.01826943 0.25098039 0.46274510 0.24313725
v -0.00614185 -0.04040447 0.01073448 0.25098039 0.46274510 0.24313725
v -0.00613915 -0.04040447 -0.00000000 0.25098039 0.46274510 0.24313725
v -0.00037845 -0.07190628 -0.00000000 0.25098039 0.46274510 0.24313725
v -0.00568542 -0.07386285 0.01073448 0.25098039 0.46274510 0.24313725
v 0.01562619 -0.07388579 -0.00000000 0.25098039 0.46274510 0.24313725
v 0.01562349 -0.07388579 0.01362724 0.25098039 0.46274510 0.24313725
v -0.00566381 -0.07386285 0.01899076 0.25098039 0.46274510 0.24313725
v 0.00193069 -0.04998086 0.01899262 0.25098039 0.46274510 0.24313725
v -0.00613644 -0.04040775 0.01899262 0.25098039 0.46274510 0.24313725
v -0.00613644 -0.04040447 0.01826943 0.25098039 0.46274510 0.24313725
v -0.00614185 -0.04040447 0.01145767 0.25098039 0.46274510 0.24313725
v 0.01562349 -0.07388579 0.01609985 0.25098039 0.46274510 0.24313725
v 0.02141930 -0.04040447 -0.00000000 0.25098039 0.46274510 0.24313725
v 0.02141930 -0.07388579 -0.00000000 0.25098039 0.46274510 0.24313725
v -0.00156678 -0.07386285 0.01899076 0.25098039 0.46274510 0.24313725
v 0.00193069 -0.04040775 0.01899262 0.25098039 0.46274510 0.24313725
v 0.00596831 -0.06831103 0.01899076 0.25098039 0.46274510 0.24313725
v 0.02141660 -0.07385957 0.01898890 0.25098039 0.46274510 0.24313725
v 0.00193880 -0.04040447 0.01898890 0.25098039 0.46274510 0.24313725
v 0.02141120 -0.07388579 0.01609985 0.25098039 0.46274510 0.24313725
v 0.02141930 -0.04040447 0.01826943 0.25098039 0.46274510 0.24313725
v 0.02142200 -0.04040775 0.01145953 0.25098039 0.46274510 0.24313725
v 0.02141930 -0.07388579 0.01073262 0.25098039 0.46274510 0.24313725
v 0.02142200 -0.05008246 0.01145953 0.25098039 0.46274510 0.24313725
v 0.02142200 -0.05196693 0.01218086 0.25098039 0.46274510 0.24313725
v 0.02142200 -0.05197348 0.01610171 0.25098039 0.46274510 0.24313725
v 0.02141660 -0.04040447 0.01898890 0.25098039 0.46274510 0.24313725
v 0.02141660 -0.07388579 0.01486355 0.25098039 0.46274510 0.24313725
v 0.02141930 -0.07386285 0.01362539 0.25098039 0.46274510 0.24313725
v 0.02142200 -0.05197348 0.01682491 0.25098039 0.46274510 0.24313725
v 0.02141930 -0.05010540 0.01826943 0.25098039 0.46274510 0.24313725
v 0.02142200 -0.04717873 0.01682491 0.25098039 0.46274510 0.24313725
v 0.02142200 -0.04040775 0.01218086 0.25098039 0.46274510 0.24313725
f 1 2 7
f 1 7 3
f 1 3 10
f 1 10 4
f 1 4 5
f 1 5 8
f 1 8 2
f 2 6 17
f 2 17 7
f 2 8 6
f 3 7 19
f 3 19 9
f 3 9 10
f 4 10 21
f 4 21 22
f 4 22 13
f 4 13 11
f 4 11 12
f 4 12 5
f 5 12 13
f 5 13 14
f 5 14 20
f 5 20 8
f 6 8 15
f 6 15 16
f 6 16 24
f 6 24 17
f 7 17 18
f 7 18 19
f 8 20 15
f 9 19 18
f 9 18 27
f 9 27 35
f 9 35 29
f 9 29 21
f 9 21 10
f 11 13 12
f 13 22 31
f 13 31 36
f 13 36 28
f 13 28 20
f 13 20 14
f 15 20 28
f 15 28 23
f 15 23 16
f 16 23 25
f 16 25 26
f 16 26 35
f 16 35 24
f 17 24 35
f 17 35 27
f 17 27 18
f 21 29 41
f 21 41 30
f 21 30 32
f 21 32 22
f 22 32 33
f 22 33 34
f 22 34 38
f 22 38 31
f 23 28 26
f 23 26 25
f 26 28 36
f 26 36 31
f 26 31 37
f 26 37 38
f 26 38 39
f 26 39 29
f 26 29 35
f 29 39 38
f 29 38 40
f 29 40 41
f 30 41 40
f 30 40 38
f 30 38 34
f 30 34 33
f 30 33 32
f 31 38 37