# https://github.com/mikedh/trimesh
v -0.03370339 -0.05788567 0.03725574 0.56470588 0.01568627 0.61568627
v -0.03370339 -0.05788567 0.03954003 0.56470588 0.01568627 0.61568627
v -0.03370339 -0.04933038 0.03725574 0.56470588 0.01568627 0.61568627
v -0.02187194 -0.06861259 0.02860456 0.56470588 0.01568627 0.61568627
v -0.02187194 -0.06861464 0.03725467 0.56470588 0.01568627 0.61568627
v -0.03370339 -0.04933038 0.03954003 0.56470588 0.01568627 0.61568627
v -0.02187194 -0.06861464 0.03954003 0.56470588 0.01568627 0.61568627
v -0.01382275 -0.04933038 0.03725574 0.56470588 0.01568627 0.61568627
v -0.02187194 -0.05629437 0.02860456 0.56470588 0.01568627 0.61568627
v -0.01358735 -0.07019158 0.02860456 0.56470588 0.01568627 0.61568627
v -0.01349635 -0.07027976 0.03012564 0.56470588 0.01568627 0.61568627
v -0.01382275 -0.04933038 0.03954003 0.56470588 0.01568627 0.61568627
v -0.01349635 -0.07027976 0.03573360 0.56470588 0.01568627 0.61568627
v -0.01349635 -0.07027771 0.03725360 0.56470588 0.01568627 0.61568627
v -0.01352602 -0.07024900 0.03954003 0.56470588 0.01568627 0.61568627
v -0.01349635 -0.06061302 0.03012564 0.56470588 0.01568627 0.61568627
v -0.01358735 -0.06050639 0.02860456 0.56470588 0.01568627 0.61568627
v -0.01541716 -0.05629437 0.02860456 0.56470588 0.01568627 0.61568627
v -0.01352602 -0.06058021 0.03954003 0.56470588 0.01568627 0.61568627
v -0.01349635 -0.06061507 0.03725360 0.56470588 0.01568627 0.61568627
v -0.01349635 -0.06061302 0.03240993 0.56470588 0.01568627 0.61568627
f 1 2 6
f 1 6 3
f 1 3 9
f 1 9 4
f 1 4 5
f 1 5 7
f 1 7 2
f 2 7 15
f 2 15 19
f 2 19 12
f 2 12 6
f 3 6 12
f 3 12 8
f 3 8 18
f 3 18 9
f 4 10 11
f 4 11 5
f 4 9 18
f 4 18 17
f 4 17 10
f 5 11 13
f 5 13 7
f 7 13 14
f 7 14 15
f 8 16 17
f 8 17 18
f 8 12 21
f 8 21 16
f 10 17 16
f 10 16 11
f 11 16 21
f 11 21 20
f 11 20 14
f 11 14 13
f 12 19 20
f 12 20 21
f 14 20 19
f 14 19 15