# https://github.com/mikedh/trimesh
v -0.01329499 -0.04871371 0.01610322 0.43529412 0.89019608 0.96078431
v -0.01499935 -0.05788328 0.01610322 0.43529412 0.89019608 0.96078431
v -0.01329499 -0.04871371 0.01486552 0.43529412 0.89019608 0.96078431
v -0.03370534 -0.04871371 0.01610322 0.43529412 0.89019608 0.96078431
v -0.01499935 -0.05788328 0.01486552 0.43529412 0.89019608 0.96078431
v -0.03370534 -0.05788328 0.01610322 0.43529412 0.89019608 0.96078431
v -0.03370534 -0.04871371 0.01486552 0.43529412 0.89019608 0.96078431
v -0.03370534 -0.05788328 0.01486552 0.43529412 0.89019608 0.96078431
f 1 2 5
f 1 5 3
f 1 3 7
f 1 7 4
f 1 4 6
f 1 6 2
f 2 6 8
f 2 8 5
f 3 5 8
f 3 8 7
f 4 7 8
f 4 8 6