# https://github.com/mikedh/trimesh
v -0.03370534 -0.07382752 0.03954036 0.38039216 0.78823529 0.52549020
v -0.02794887 -0.07382752 0.03954036 0.38039216 0.78823529 0.52549020
v -0.03370534 -0.07382752 0.04439121 0.38039216 0.78823529 0.52549020
v -0.03370534 -0.05157515 0.03954036 0.38039216 0.78823529 0.52549020
v -0.01242118 -0.07129794 0.03954036 0.38039216 0.78823529 0.52549020
v -0.02794470 -0.07382752 0.04287084 0.38039216 0.78823529 0.52549020
v -0.03370117 -0.07382752 0.04999968 0.38039216 0.78823529 0.52549020
v -0.03370326 -0.06014963 0.04999968 0.38039216 0.78823529 0.52549020
v -0.03370534 -0.05788801 0.04439121 0.38039216 0.78823529 0.52549020
v -0.03370534 -0.04871371 0.04287084 0.38039216 0.78823529 0.52549020
v -0.02262783 -0.05157515 0.03954036 0.38039216 0.78823529 0.52549020
v -0.01242118 -0.06177702 0.03954036 0.38039216 0.78823529 0.52549020
v -0.01242118 -0.07129794 0.04286879 0.38039216 0.78823529 0.52549020
v -0.02794470 -0.07382752 0.04999968 0.38039216 0.78823529 0.52549020
v -0.03370326 -0.05107120 0.04999968 0.38039216 0.78823529 0.52549020
v -0.03370534 -0.04871371 0.04439018 0.38039216 0.78823529 0.52549020
v -0.01329830 -0.04871371 0.04287084 0.38039216 0.78823529 0.52549020
v -0.01496711 -0.05157760 0.03954036 0.38039216 0.78823529 0.52549020
v -0.01242118 -0.06177702 0.04286879 0.38039216 0.78823529 0.52549020
v -0.01300245 -0.07074975 0.04999968 0.38039216 0.78823529 0.52549020
v -0.01481086 -0.05107120 0.04999968 0.38039216 0.78823529 0.52549020
v -0.01329830 -0.04871371 0.04439018 0.38039216 0.78823529 0.52549020
v -0.01300245 -0.06119932 0.04999968 0.38039216 0.78823529 0.52549020
f 1 2 6
f 1 6 14
f 1 14 7
f 1 7 3
f 1 3 9
f 1 9 16
f 1 16 10
f 1 10 4
f 1 4 11
f 1 11 18
f 1 18 12
f 1 12 5
f 1 5 2
f 2 5 6
f 3 7 8
f 3 8 15
f 3 15 9
f 4 10 17
f 4 17 11
f 5 12 19
f 5 19 13
f 5 13 14
f 5 14 6
f 7 14 20
f 7 20 23
f 7 23 21
f 7 21 15
f 7 15 8
f 9 15 16
f 10 16 22
f 10 22 17
f 11 17 18
f 12 18 17
f 12 17 22
f 12 22 19
f 13 19 23
f 13 23 20
f 13 20 14
f 15 21 22
f 15 22 16
f 19 22 23
f 21 23 22