# https://github.com/mikedh/trimesh
v -0.00614545 -0.04540189 0.02299341 0.56470588 0.92549020 0.07058824
v -0.00614545 -0.04540189 0.02527619 0.56470588 0.92549020 0.07058824
v -0.00614545 -0.04040743 0.02299341 0.56470588 0.92549020 0.07058824
v -0.00613735 -0.04540189 0.01899301 0.56470588 0.92549020 0.07058824
v 0.00080039 -0.07063160 0.03573473 0.56470588 0.92549020 0.07058824
v -0.00613735 -0.04540189 0.03573473 0.56470588 0.92549020 0.07058824
v -0.00614545 -0.04040743 0.02527619 0.56470588 0.92549020 0.07058824
v 0.00080039 -0.07063160 0.03954003 0.56470588 0.92549020 0.07058824
v -0.00613735 -0.04040447 0.01899301 0.56470588 0.92549020 0.07058824
v 0.00310217 -0.05318354 0.01899301 0.56470588 0.92549020 0.07058824
v 0.00100007 -0.07047478 0.03012332 0.56470588 0.92549020 0.07058824
v 0.00751145 -0.06823201 0.03012332 0.56470588 0.92549020 0.07058824
v 0.00753034 -0.06823201 0.03240610 0.56470588 0.92549020 0.07058824
v -0.00613735 -0.04040447 0.03573473 0.56470588 0.92549020 0.07058824
v 0.00753034 -0.06823201 0.03573272 0.56470588 0.92549020 0.07058824
v 0.00751415 -0.06823201 0.03954003 0.56470588 0.92549020 0.07058824
v 0.00080039 -0.06110425 0.03954003 0.56470588 0.92549020 0.07058824
v 0.02141930 -0.04040447 0.01899301 0.56470588 0.92549020 0.07058824
v 0.02142200 -0.05318354 0.01899301 0.56470588 0.92549020 0.07058824
v 0.02142200 -0.05637313 0.02527820 0.56470588 0.92549020 0.07058824
v 0.02141930 -0.04040447 0.03573473 0.56470588 0.92549020 0.07058824
v 0.00309138 -0.05637609 0.03954003 0.56470588 0.92549020 0.07058824
v 0.02142200 -0.05637313 0.03240409 0.56470588 0.92549020 0.07058824
v 0.02141930 -0.05477537 0.03573473 0.56470588 0.92549020 0.07058824
v 0.00751415 -0.05637609 0.03954003 0.56470588 0.92549020 0.07058824
v 0.02142200 -0.04733399 0.01899301 0.56470588 0.92549020 0.07058824
v 0.02142200 -0.04799971 0.03240409 0.56470588 0.92549020 0.07058824
v 0.02142200 -0.04733399 0.02023597 0.56470588 0.92549020 0.07058824
f 1 2 7
f 1 7 3
f 1 3 9
f 1 9 4
f 1 4 5
f 1 5 8
f 1 8 2
f 2 6 14
f 2 14 7
f 2 8 6
f 3 7 14
f 3 14 9
f 4 9 18
f 4 18 26
f 4 26 19
f 4 19 10
f 4 10 11
f 4 11 5
f 5 11 12
f 5 12 13
f 5 13 15
f 5 15 8
f 6 8 17
f 6 17 14
f 8 15 16
f 8 16 25
f 8 25 22
f 8 22 17
f 9 14 21
f 9 21 18
f 10 19 11
f 11 19 12
f 12 19 20
f 12 20 13
f 13 20 23
f 13 23 15
f 14 17 22
f 14 22 25
f 14 25 21
f 15 23 16
f 16 23 24
f 16 24 21
f 16 21 25
f 18 21 28
f 18 28 26
f 19 26 28
f 19 28 27
f 19 27 23
f 19 23 20
f 21 24 23
f 21 23 27
f 21 27 28