# https://github.com/mikedh/trimesh
v -0.00614824 -0.07382752 0.02023484 0.26274510 0.77254902 0.45490196
v -0.00157378 -0.07386491 0.01827381 0.26274510 0.77254902 0.45490196
v -0.00614824 -0.07382752 0.01486552 0.26274510 0.77254902 0.45490196
v -0.01078605 -0.07382752 0.02023484 0.26274510 0.77254902 0.45490196
v -0.00615141 -0.07382930 0.03012365 0.26274510 0.77254902 0.45490196
v -0.00158645 -0.07388628 0.02860022 0.26274510 0.77254902 0.45490196
v -0.00157378 -0.07386669 0.01899519 0.26274510 0.77254902 0.45490196
v 0.00939985 -0.08676420 0.01827231 0.26274510 0.77254902 0.45490196
v -0.00157378 -0.07386491 0.01610667 0.26274510 0.77254902 0.45490196
v 0.00939985 -0.08676420 0.01682954 0.26274510 0.77254902 0.45490196
v 0.00377998 -0.08647930 0.01610517 0.26274510 0.77254902 0.45490196
v -0.00614824 -0.08247453 0.01486552 0.26274510 0.77254902 0.45490196
v -0.01078605 -0.07382752 0.01486552 0.26274510 0.77254902 0.45490196
v -0.02296349 -0.08630835 0.01682954 0.26274510 0.77254902 0.45490196
v -0.01078605 -0.07382930 0.03012365 0.26274510 0.77254902 0.45490196
v -0.00615141 -0.09201901 0.03012365 0.26274510 0.77254902 0.45490196
v 0.00751811 -0.08705268 0.02860172 0.26274510 0.77254902 0.45490196
v 0.00939985 -0.09201723 0.01827231 0.26274510 0.77254902 0.45490196
v 0.00939985 -0.09201723 0.01682954 0.26274510 0.77254902 0.45490196
v 0.00377998 -0.09201723 0.01610517 0.26274510 0.77254902 0.45490196
v -0.01129292 -0.08247453 0.01486552 0.26274510 0.77254902 0.45490196
v -0.02296349 -0.08630835 0.01610517 0.26274510 0.77254902 0.45490196
v -0.02296349 -0.09201723 0.01682954 0.26274510 0.77254902 0.45490196
v -0.01887689 -0.08704733 0.02860172 0.26274510 0.77254902 0.45490196
v -0.01110601 -0.08221277 0.03012365 0.26274510 0.77254902 0.45490196
v -0.00070894 -0.09201901 0.02860022 0.26274510 0.77254902 0.45490196
v 0.00751811 -0.09201723 0.02860172 0.26274510 0.77254902 0.45490196
v -0.01110601 -0.09201901 0.03012365 0.26274510 0.77254902 0.45490196
v -0.00070894 -0.09201901 0.02527558 0.26274510 0.77254902 0.45490196
v -0.00614824 -0.09201901 0.02147001 0.26274510 0.77254902 0.45490196
v -0.02296349 -0.09201723 0.01610517 0.26274510 0.77254902 0.45490196
v -0.01887689 -0.09201901 0.02860172 0.26274510 0.77254902 0.45490196
v -0.01110601 -0.09201901 0.02147001 0.26274510 0.77254902 0.45490196
v -0.01887689 -0.09201901 0.02299044 0.26274510 0.77254902 0.45490196
f 1 2 9
f 1 9 3
f 1 3 13
f 1 13 4
f 1 4 15
f 1 15 5
f 1 5 2
f 2 6 7
f 2 7 8
f 2 8 10
f 2 10 9
f 2 5 6
f 3 9 10
f 3 10 11
f 3 11 20
f 3 20 12
f 3 12 21
f 3 21 13
f 4 13 22
f 4 22 14
f 4 14 15
f 5 15 25
f 5 25 28
f 5 28 16
f 5 16 27
f 5 27 17
f 5 17 6
f 6 17 8
f 6 8 7
f 8 17 27
f 8 27 18
f 8 18 19
f 8 19 10
f 10 19 20
f 10 20 11
f 12 20 31
f 12 31 21
f 13 21 22
f 14 22 31
f 14 31 23
f 14 23 32
f 14 32 24
f 14 24 15
f 15 24 25
f 16 26 27
f 16 28 32
f 16 32 34
f 16 34 33
f 16 33 30
f 16 30 29
f 16 29 26
f 18 27 26
f 18 26 29
f 18 29 19
f 19 29 30
f 19 30 20
f 20 30 33
f 20 33 31
f 21 31 22
f 23 31 34
f 23 34 32
f 24 32 28
f 24 28 25
f 31 33 34