# https://github.com/mikedh/trimesh
v -0.00614609 -0.04040624 0.01290336 0.94117647 0.52156863 0.41176471
v -0.01113406 -0.04678507 0.01362488 0.94117647 0.52156863 0.41176471
v -0.00614609 -0.04539960 0.01290336 0.94117647 0.52156863 0.41176471
v -0.00614609 -0.04040624 0.00461053 0.94117647 0.52156863 0.41176471
v -0.03370534 -0.04040624 0.01290336 0.94117647 0.52156863 0.41176471
v -0.01480826 -0.05106357 0.01362488 0.94117647 0.52156863 0.41176471
v -0.03370534 -0.04678507 0.01362488 0.94117647 0.52156863 0.41176471
v -0.01481366 -0.05848106 0.00461053 0.94117647 0.52156863 0.41176471
v -0.00614609 -0.04539960 0.01217917 0.94117647 0.52156863 0.41176471
v -0.00614609 -0.04040801 -0.00000000 0.94117647 0.52156863 0.41176471
v -0.03370534 -0.04040624 0.00461053 0.94117647 0.52156863 0.41176471
v -0.03370534 -0.05106357 0.01362488 0.94117647 0.52156863 0.41176471
v -0.03370534 -0.05848106 0.00461053 0.94117647 0.52156863 0.41176471
v -0.01481366 -0.05848106 0.00230860 0.94117647 0.52156863 0.41176471
v -0.00614609 -0.04539783 -0.00000000 0.94117647 0.52156863 0.41176471
v -0.03370534 -0.04040801 -0.00000000 0.94117647 0.52156863 0.41176471
v -0.03370534 -0.05848106 0.00230860 0.94117647 0.52156863 0.41176471
v -0.01535049 -0.05276754 -0.00000000 0.94117647 0.52156863 0.41176471
v -0.03370534 -0.05276754 -0.00000000 0.94117647 0.52156863 0.41176471
f 1 2 3
f 1 3 9
f 1 9 15
f 1 15 10
f 1 10 4
f 1 4 11
f 1 11 5
f 1 5 7
f 1 7 2
f 2 6 3
f 2 7 12
f 2 12 6
f 3 6 8
f 3 8 14
f 3 14 9
f 4 10 16
f 4 16 11
f 5 11 16
f 5 16 19
f 5 19 17
f 5 17 13
f 5 13 12
f 5 12 7
f 6 12 13
f 6 13 8
f 8 13 17
f 8 17 14
f 9 14 15
f 10 15 18
f 10 18 19
f 10 19 16
f 14 17 19
f 14 19 18
f 14 18 15