# https://github.com/mikedh/trimesh
v -0.02584275 -0.08446727 0.01145915 0.43529412 0.98823529 0.10196078
v -0.02584275 -0.08446727 0.01073575 0.43529412 0.98823529 0.10196078
v -0.02584275 -0.09201901 0.01145915 0.43529412 0.98823529 0.10196078
v 0.01015205 -0.08648900 0.01145915 0.43529412 0.98823529 0.10196078
v -0.02584275 -0.09201901 0.01073575 0.43529412 0.98823529 0.10196078
v 0.01015205 -0.08648900 0.01073575 0.43529412 0.98823529 0.10196078
v -0.01790811 -0.09201901 0.01145915 0.43529412 0.98823529 0.10196078
v 0.01015205 -0.09201827 0.01145915 0.43529412 0.98823529 0.10196078
v -0.01790811 -0.09201901 0.01073575 0.43529412 0.98823529 0.10196078
v 0.01015205 -0.09201827 0.01073575 0.43529412 0.98823529 0.10196078
f 1 2 5
f 1 5 3
f 1 3 7
f 1 7 8
f 1 8 4
f 1 4 6
f 1 6 2
f 2 6 10
f 2 10 9
f 2 9 5
f 3 5 9
f 3 9 7
f 4 8 10
f 4 10 6
f 7 9 10
f 7 10 8