# https://github.com/mikedh/trimesh
v 0.01562660 -0.07388579 0.01899262 0.67843137 0.35686275 0.43529412
v 0.02141766 -0.07388579 0.01899262 0.67843137 0.35686275 0.43529412
v 0.01562660 -0.07388579 0.02023400 0.67843137 0.35686275 0.43529412
v 0.00055161 -0.07082478 0.02023400 0.67843137 0.35686275 0.43529412
v 0.00133795 -0.07021362 0.01899262 0.67843137 0.35686275 0.43529412
v 0.02141766 -0.05319052 0.01899262 0.67843137 0.35686275 0.43529412
v 0.02142200 -0.05318789 0.02860797 0.67843137 0.35686275 0.43529412
v 0.02142200 -0.07388579 0.02861100 0.67843137 0.35686275 0.43529412
v 0.00055161 -0.07082478 0.02527538 0.67843137 0.35686275 0.43529412
v 0.01563095 -0.07388579 0.04286708 0.67843137 0.35686275 0.43529412
v 0.00055161 -0.06133748 0.02023400 0.67843137 0.35686275 0.43529412
v -0.00076908 -0.04708948 0.02860797 0.67843137 0.35686275 0.43529412
v 0.00133795 -0.06044567 0.01899262 0.67843137 0.35686275 0.43529412
v 0.00309525 -0.05319052 0.01899262 0.67843137 0.35686275 0.43529412
v 0.00848445 -0.05159313 0.02023400 0.67843137 0.35686275 0.43529412
v 0.02141766 -0.05159575 0.02023400 0.67843137 0.35686275 0.43529412
v 0.02142200 -0.04708948 0.02860797 0.67843137 0.35686275 0.43529412
v 0.02142200 -0.07388579 0.03725510 0.67843137 0.35686275 0.43529412
v 0.01563312 -0.07388579 0.04999968 0.67843137 0.35686275 0.43529412
v 0.00056248 -0.07080904 0.04286708 0.67843137 0.35686275 0.43529412
v 0.00055161 -0.07081953 0.03012554 0.67843137 0.35686275 0.43529412
v -0.00076908 -0.04708948 0.03012554 0.67843137 0.35686275 0.43529412
v 0.00268253 -0.05159313 0.02023400 0.67843137 0.35686275 0.43529412
v 0.02142200 -0.04708948 0.03012554 0.67843137 0.35686275 0.43529412
v 0.02142200 -0.05638005 0.04999968 0.67843137 0.35686275 0.43529412
v 0.02141766 -0.07388579 0.04999968 0.67843137 0.35686275 0.43529412
v 0.00080359 -0.07062805 0.04999968 0.67843137 0.35686275 0.43529412
v -0.00038243 -0.04733079 0.04286708 0.67843137 0.35686275 0.43529412
v 0.02141766 -0.04733079 0.04286708 0.67843137 0.35686275 0.43529412
v 0.02142200 -0.04799965 0.04438769 0.67843137 0.35686275 0.43529412
v 0.02142200 -0.04873408 0.04999968 0.67843137 0.35686275 0.43529412
v 0.00080359 -0.06110403 0.04999968 0.67843137 0.35686275 0.43529412
v 0.00105991 -0.04873408 0.04999968 0.67843137 0.35686275 0.43529412
f 1 2 8
f 1 8 18
f 1 18 26
f 1 26 19
f 1 19 10
f 1 10 3
f 1 3 9
f 1 9 4
f 1 4 5
f 1 5 13
f 1 13 14
f 1 14 6
f 1 6 2
f 2 6 17
f 2 17 7
f 2 7 8
f 3 10 9
f 4 11 13
f 4 13 5
f 4 9 22
f 4 22 12
f 4 12 11
f 6 14 23
f 6 23 15
f 6 15 16
f 6 16 17
f 7 17 24
f 7 24 30
f 7 30 31
f 7 31 25
f 7 25 18
f 7 18 8
f 9 10 19
f 9 19 20
f 9 20 21
f 9 21 22
f 11 12 13
f 12 23 13
f 12 22 24
f 12 24 17
f 12 17 15
f 12 15 23
f 13 23 14
f 15 17 16
f 18 25 26
f 19 26 25
f 19 25 31
f 19 31 33
f 19 33 32
f 19 32 27
f 19 27 20
f 20 27 28
f 20 28 22
f 20 22 21
f 22 28 29
f 22 29 24
f 24 29 30
f 27 32 28
f 28 32 33
f 28 33 31
f 28 31 29
f 29 31 30