# https://github.com/mikedh/trimesh
v -0.03369994 -0.05849179 0.03012552 0.61176471 0.61568627 0.94117647
v -0.03370534 -0.05850596 0.03573549 0.61176471 0.61568627 0.94117647
v -0.03369994 -0.04939762 0.03012552 0.61176471 0.61568627 0.94117647
v -0.01480793 -0.05849179 0.03012552 0.61176471 0.61568627 0.94117647
v -0.03370534 -0.05850596 0.03725858 0.61176471 0.61568627 0.94117647
v -0.03370534 -0.04901132 0.03573549 0.61176471 0.61568627 0.94117647
v -0.01479714 -0.05850596 0.03573549 0.61176471 0.61568627 0.94117647
v -0.03369994 -0.04040447 0.03013135 0.61176471 0.61568627 0.94117647
v -0.01387979 -0.04939762 0.03012552 0.61176471 0.61568627 0.94117647
v -0.00614707 -0.04539634 0.03013135 0.61176471 0.61568627 0.94117647
v 0.02141660 -0.04872425 0.03573938 0.61176471 0.61568627 0.94117647
v -0.03370534 -0.05106867 0.04999579 0.61176471 0.61568627 0.94117647
v -0.01479714 -0.05850596 0.03725858 0.61176471 0.61568627 0.94117647
v -0.03370534 -0.04040447 0.04286661 0.61176471 0.61568627 0.94117647
v -0.00614707 -0.04040447 0.03013135 0.61176471 0.61568627 0.94117647
v 0.02141660 -0.04040447 0.03573938 0.61176471 0.61568627 0.94117647
v 0.02142200 -0.04732964 0.03954420 0.61176471 0.61568627 0.94117647
v 0.02141660 -0.04872425 0.04999579 0.61176471 0.61568627 0.94117647
v -0.03370534 -0.04040447 0.04999579 0.61176471 0.61568627 0.94117647
v -0.01480793 -0.05106867 0.04999579 0.61176471 0.61568627 0.94117647
v 0.02141660 -0.04040447 0.04999579 0.61176471 0.61568627 0.94117647
v 0.02142200 -0.04040801 0.03954420 0.61176471 0.61568627 0.94117647
v 0.02142200 -0.04732964 0.04286661 0.61176471 0.61568627 0.94117647
v 0.02142200 -0.04040801 0.04286661 0.61176471 0.61568627 0.94117647
f 1 2 6
f 1 6 3
f 1 3 9
f 1 9 4
f 1 4 7
f 1 7 2
f 2 5 12
f 2 12 19
f 2 19 14
f 2 14 6
f 2 7 13
f 2 13 5
f 3 6 8
f 3 8 15
f 3 15 9
f 4 9 10
f 4 10 11
f 4 11 7
f 5 13 20
f 5 20 12
f 6 14 8
f 7 11 18
f 7 18 13
f 8 14 19
f 8 19 21
f 8 21 16
f 8 16 15
f 9 15 10
f 10 15 16
f 10 16 11
f 11 16 22
f 11 22 17
f 11 17 23
f 11 23 18
f 12 20 18
f 12 18 21
f 12 21 19
f 13 18 20
f 16 21 24
f 16 24 22
f 17 22 24
f 17 24 23
f 18 23 24
f 18 24 21