# https://github.com/mikedh/trimesh
v -0.01331162 -0.06082383 0.01362266 0.54509804 0.71372549 0.60000000
v -0.01331162 -0.06082383 0.01290126 0.54509804 0.71372549 0.60000000
v -0.03370130 -0.08134682 0.01073438 0.54509804 0.71372549 0.60000000
v -0.01661642 -0.08662032 0.01362266 0.54509804 0.71372549 0.60000000
v -0.00573358 -0.06419191 0.01362266 0.54509804 0.71372549 0.60000000
v 0.00105761 -0.06083299 0.01073438 0.54509804 0.71372549 0.60000000
v -0.01328337 -0.06085742 0.01073438 0.54509804 0.71372549 0.60000000
v -0.03370130 -0.08134682 0.00793411 0.54509804 0.71372549 0.60000000
v 0.00105761 -0.06083299 0.00793144 0.54509804 0.71372549 0.60000000
v 0.00104954 -0.06084215 0.00461245 0.54509804 0.71372549 0.60000000
v -0.03370534 -0.08295604 0.00793411 0.54509804 0.71372549 0.60000000
v -0.03370534 -0.08647680 0.01073438 0.54509804 0.71372549 0.60000000
v -0.01661642 -0.09201291 0.01362266 0.54509804 0.71372549 0.60000000
v -0.00157736 -0.07386864 0.01362266 0.54509804 0.71372549 0.60000000
v 0.00308729 -0.08613480 0.01362266 0.54509804 0.71372549 0.60000000
v 0.00751791 -0.08704781 0.01073438 0.54509804 0.71372549 0.60000000
v -0.01290003 -0.06131545 0.00793544 0.54509804 0.71372549 0.60000000
v -0.03370534 -0.08302322 -0.00000000 0.54509804 0.71372549 0.60000000
v 0.00079128 -0.06111697 0.00231089 0.54509804 0.71372549 0.60000000
v -0.03370534 -0.08295604 0.00461111 0.54509804 0.71372549 0.60000000
v 0.00751791 -0.08704781 -0.00000000 0.54509804 0.71372549 0.60000000
v -0.03370534 -0.09201901 0.01073438 0.54509804 0.71372549 0.60000000
v 0.00308729 -0.09201291 0.01362266 0.54509804 0.71372549 0.60000000
v 0.00751791 -0.08705087 0.01073438 0.54509804 0.71372549 0.60000000
v -0.01211317 -0.06202388 0.00461245 0.54509804 0.71372549 0.60000000
v -0.03370534 -0.09201596 -0.00000000 0.54509804 0.71372549 0.60000000
v -0.00614920 -0.06417359 -0.00000000 0.54509804 0.71372549 0.60000000
v -0.00038698 -0.06223763 -0.00000000 0.54509804 0.71372549 0.60000000
v 0.00751791 -0.09201596 -0.00000000 0.54509804 0.71372549 0.60000000
v -0.02187020 -0.09201901 0.01073438 0.54509804 0.71372549 0.60000000
v -0.03370534 -0.09201901 0.00461111 0.54509804 0.71372549 0.60000000
v 0.00751791 -0.09201596 0.01073305 0.54509804 0.71372549 0.60000000
v -0.00614920 -0.09201901 0.01073038 0.54509804 0.71372549 0.60000000
v -0.01111649 -0.09201901 -0.00000000 0.54509804 0.71372549 0.60000000
v -0.00070980 -0.09201901 -0.00000000 0.54509804 0.71372549 0.60000000
v -0.00070980 -0.09201901 0.00230689 0.54509804 0.71372549 0.60000000
f 1 2 8
f 1 8 3
f 1 3 4
f 1 4 13
f 1 13 23
f 1 23 15
f 1 15 14
f 1 14 5
f 1 5 6
f 1 6 9
f 1 9 2
f 2 7 8
f 2 9 10
f 2 10 7
f 3 8 20
f 3 20 11
f 3 11 12
f 3 12 4
f 4 12 22
f 4 22 13
f 5 14 6
f 6 14 15
f 6 15 16
f 6 16 21
f 6 21 9
f 7 17 18
f 7 18 8
f 7 10 19
f 7 19 17
f 8 18 20
f 9 21 10
f 10 21 19
f 11 20 18
f 11 18 26
f 11 26 31
f 11 31 22
f 11 22 12
f 13 22 30
f 13 30 23
f 15 23 24
f 15 24 16
f 16 24 32
f 16 32 29
f 16 29 21
f 17 19 25
f 17 25 18
f 18 25 27
f 18 27 28
f 18 28 21
f 18 21 29
f 18 29 35
f 18 35 34
f 18 34 26
f 19 21 28
f 19 28 25
f 22 31 34
f 22 34 35
f 22 35 36
f 22 36 33
f 22 33 30
f 23 32 24
f 23 30 33
f 23 33 32
f 25 28 27
f 26 34 31
f 29 32 36
f 29 36 35
f 32 33 36