# https://github.com/mikedh/trimesh
v 0.00133222 -0.06043547 0.02023435 0.77647059 0.86666667 0.97647059
v 0.00079509 -0.06111039 0.04999968 0.77647059 0.86666667 0.97647059
v 0.00105329 -0.06083732 0.03573433 0.77647059 0.86666667 0.97647059
v 0.00133222 -0.07021639 0.02023435 0.77647059 0.86666667 0.97647059
v 0.00133222 -0.06043547 0.01899284 0.77647059 0.86666667 0.97647059
v -0.01495065 -0.05803523 0.02023435 0.77647059 0.86666667 0.97647059
v 0.00079509 -0.07062755 0.04999968 0.77647059 0.86666667 0.97647059
v -0.01299498 -0.06119262 0.04999968 0.77647059 0.86666667 0.97647059
v 0.00105329 -0.07042895 0.03573433 0.77647059 0.86666667 0.97647059
v -0.00158455 -0.07388424 0.04999968 0.77647059 0.86666667 0.97647059
v -0.00158455 -0.07388579 0.04286700 0.77647059 0.86666667 0.97647059
v 0.00133222 -0.07021639 0.01899284 0.77647059 0.86666667 0.97647059
v -0.00614936 -0.06416693 0.01486593 0.77647059 0.86666667 0.97647059
v -0.01352095 -0.06058131 0.01486593 0.77647059 0.86666667 0.97647059
v -0.01495065 -0.05803523 0.01899627 0.77647059 0.86666667 0.97647059
v -0.01495065 -0.06933822 0.02023435 0.77647059 0.86666667 0.97647059
v -0.01299498 -0.07074857 0.04999968 0.77647059 0.86666667 0.97647059
v -0.00614617 -0.07388424 0.04999968 0.77647059 0.86666667 0.97647059
v -0.00613661 -0.07388579 0.04286700 0.77647059 0.86666667 0.97647059
v -0.00158455 -0.07388579 0.01899284 0.77647059 0.86666667 0.97647059
v -0.00614936 -0.07382373 0.01486593 0.77647059 0.86666667 0.97647059
v -0.01352095 -0.07024587 0.01486593 0.77647059 0.86666667 0.97647059
v -0.01495065 -0.06933822 0.01899627 0.77647059 0.86666667 0.97647059
v -0.01077155 -0.07386096 0.01899627 0.77647059 0.86666667 0.97647059
v -0.01078430 -0.07382683 0.04999968 0.77647059 0.86666667 0.97647059
v -0.00614617 -0.07388579 0.03573433 0.77647059 0.86666667 0.97647059
v -0.00614617 -0.07388579 0.01899284 0.77647059 0.86666667 0.97647059
v -0.00569511 -0.07386096 0.01610744 0.77647059 0.86666667 0.97647059
v -0.01078589 -0.07382373 0.01486593 0.77647059 0.86666667 0.97647059
v -0.01076995 -0.07386096 0.01610744 0.77647059 0.86666667 0.97647059
f 1 2 3
f 1 3 9
f 1 9 4
f 1 4 12
f 1 12 5
f 1 5 15
f 1 15 6
f 1 6 2
f 2 7 9
f 2 9 3
f 2 6 8
f 2 8 17
f 2 17 25
f 2 25 18
f 2 18 10
f 2 10 7
f 4 9 7
f 4 7 10
f 4 10 11
f 4 11 20
f 4 20 12
f 5 12 21
f 5 21 13
f 5 13 14
f 5 14 15
f 6 15 23
f 6 23 16
f 6 16 17
f 6 17 8
f 10 18 19
f 10 19 11
f 11 19 26
f 11 26 27
f 11 27 20
f 12 20 21
f 13 21 29
f 13 29 22
f 13 22 14
f 14 22 23
f 14 23 15
f 16 23 24
f 16 24 25
f 16 25 17
f 18 25 24
f 18 24 19
f 19 24 26
f 20 27 30
f 20 30 28
f 20 28 21
f 21 28 30
f 21 30 29
f 22 29 23
f 23 29 30
f 23 30 24
f 24 30 27
f 24 27 26