# https://github.com/mikedh/trimesh
v -0.03370534 -0.06015839 0.02299060 0.08627451 0.01960784 0.83137255
v -0.02187342 -0.06861247 0.02299060 0.08627451 0.01960784 0.83137255
v -0.03370534 -0.06015839 0.02527407 0.08627451 0.01960784 0.83137255
v -0.03370534 -0.04788423 0.01362921 0.08627451 0.01960784 0.83137255
v -0.01347562 -0.07029676 0.02299060 0.08627451 0.01960784 0.83137255
v -0.01300084 -0.07075124 0.02527407 0.08627451 0.01960784 0.83137255
v -0.02187342 -0.06861247 0.02527407 0.08627451 0.01960784 0.83137255
v -0.03370534 -0.04678513 0.01290625 0.08627451 0.01960784 0.83137255
v -0.03370534 -0.05947517 0.02860237 0.08627451 0.01960784 0.83137255
v -0.01114215 -0.04678513 0.01290625 0.08627451 0.01960784 0.83137255
v -0.00615419 -0.04539790 0.01290625 0.08627451 0.01960784 0.83137255
v -0.01300084 -0.07075124 0.02860237 0.08627451 0.01960784 0.83137255
v -0.00614609 -0.04539790 0.02023358 0.08627451 0.01960784 0.83137255
v -0.00614609 -0.04540088 0.02147053 0.08627451 0.01960784 0.83137255
v -0.02055967 -0.06831839 0.02860237 0.08627451 0.01960784 0.83137255
v -0.03370534 -0.04040744 0.01290625 0.08627451 0.01960784 0.83137255
v -0.03369994 -0.05628484 0.03012244 0.08627451 0.01960784 0.83137255
v -0.03370534 -0.05107159 0.02860237 0.08627451 0.01960784 0.83137255
v -0.00615419 -0.04040744 0.01290625 0.08627451 0.01960784 0.83137255
v -0.01542063 -0.05628484 0.03012244 0.08627451 0.01960784 0.83137255
v -0.00614609 -0.04540088 0.02860069 0.08627451 0.01960784 0.83137255
v -0.00614879 -0.04540088 0.03012244 0.08627451 0.01960784 0.83137255
v -0.00614609 -0.04040447 0.02023358 0.08627451 0.01960784 0.83137255
v -0.03370534 -0.04040447 0.01486785 0.08627451 0.01960784 0.83137255
v -0.03369994 -0.04040447 0.03012244 0.08627451 0.01960784 0.83137255
v -0.03370534 -0.04040744 0.02860069 0.08627451 0.01960784 0.83137255
v -0.00615419 -0.04040447 0.01486785 0.08627451 0.01960784 0.83137255
v -0.00614879 -0.04040447 0.01827199 0.08627451 0.01960784 0.83137255
v -0.00614609 -0.04040744 0.02860069 0.08627451 0.01960784 0.83137255
v -0.00614879 -0.04040447 0.03012244 0.08627451 0.01960784 0.83137255
v -0.00614609 -0.04040447 0.02299060 0.08627451 0.01960784 0.83137255
v -0.03370534 -0.04040447 0.02299060 0.08627451 0.01960784 0.83137255
f 1 2 7
f 1 7 3
f 1 3 9
f 1 9 18
f 1 18 26
f 1 26 32
f 1 32 24
f 1 24 16
f 1 16 8
f 1 8 4
f 1 4 2
f 2 5 6
f 2 6 12
f 2 12 7
f 2 4 8
f 2 8 5
f 3 7 9
f 5 8 10
f 5 10 11
f 5 11 6
f 6 11 13
f 6 13 14
f 6 14 21
f 6 21 12
f 7 15 9
f 7 12 15
f 8 16 19
f 8 19 11
f 8 11 10
f 9 15 17
f 9 17 25
f 9 25 18
f 11 19 23
f 11 23 13
f 12 20 17
f 12 17 15
f 12 21 22
f 12 22 20
f 13 23 31
f 13 31 29
f 13 29 21
f 13 21 14
f 16 24 27
f 16 27 19
f 17 20 22
f 17 22 30
f 17 30 25
f 18 25 26
f 19 27 28
f 19 28 23
f 21 29 30
f 21 30 22
f 23 28 27
f 23 27 24
f 23 24 32
f 23 32 25
f 23 25 30
f 23 30 31
f 25 32 26
f 29 31 30