# https://github.com/mikedh/trimesh
v -0.01887436 -0.09201596 0.01362528 0.67058824 0.20784314 0.12549020
v -0.01887436 -0.09201596 0.01610322 0.67058824 0.20784314 0.12549020
v -0.01887436 -0.08704819 0.01362528 0.67058824 0.20784314 0.12549020
v 0.00751791 -0.09201596 0.01362528 0.67058824 0.20784314 0.12549020
v -0.01110600 -0.09201901 0.01362552 0.67058824 0.20784314 0.12549020
v -0.01110600 -0.09201901 0.01486522 0.67058824 0.20784314 0.12549020
v 0.00751791 -0.09201596 0.01610322 0.67058824 0.20784314 0.12549020
v -0.01887436 -0.08704514 0.01610322 0.67058824 0.20784314 0.12549020
v -0.01887436 -0.08704514 0.01486498 0.67058824 0.20784314 0.12549020
v -0.01161494 -0.06240477 0.01362552 0.67058824 0.20784314 0.12549020
v -0.01110600 -0.08220866 0.01362528 0.67058824 0.20784314 0.12549020
v -0.00614583 -0.09201901 0.01362552 0.67058824 0.20784314 0.12549020
v 0.00751791 -0.08704819 0.01362528 0.67058824 0.20784314 0.12549020
v -0.00614583 -0.09201901 0.01486522 0.67058824 0.20784314 0.12549020
v 0.00751791 -0.08704819 0.01610322 0.67058824 0.20784314 0.12549020
v -0.01129201 -0.08247736 0.01610322 0.67058824 0.20784314 0.12549020
v -0.00614324 -0.06417265 0.01610298 0.67058824 0.20784314 0.12549020
v -0.01161494 -0.06240477 0.01486522 0.67058824 0.20784314 0.12549020
v 0.00105935 -0.06082620 0.01486522 0.67058824 0.20784314 0.12549020
v -0.00038479 -0.06223073 0.01362552 0.67058824 0.20784314 0.12549020
v -0.00614583 -0.08135984 0.01362528 0.67058824 0.20784314 0.12549020
v -0.00161192 -0.08135984 0.01362528 0.67058824 0.20784314 0.12549020
v 0.00105935 -0.06082620 0.01610298 0.67058824 0.20784314 0.12549020
v -0.00218544 -0.07950647 0.01610322 0.67058824 0.20784314 0.12549020
v -0.00614066 -0.07950647 0.01610322 0.67058824 0.20784314 0.12549020
f 1 2 8
f 1 8 9
f 1 9 3
f 1 3 11
f 1 11 21
f 1 21 22
f 1 22 13
f 1 13 4
f 1 4 12
f 1 12 5
f 1 5 6
f 1 6 2
f 2 6 14
f 2 14 7
f 2 7 15
f 2 15 24
f 2 24 25
f 2 25 16
f 2 16 8
f 3 9 10
f 3 10 11
f 4 7 14
f 4 14 12
f 4 13 15
f 4 15 7
f 5 12 14
f 5 14 6
f 8 16 17
f 8 17 18
f 8 18 10
f 8 10 9
f 10 18 23
f 10 23 19
f 10 19 20
f 10 20 21
f 10 21 11
f 13 22 20
f 13 20 19
f 13 19 23
f 13 23 15
f 15 23 24
f 16 25 17
f 17 25 23
f 17 23 18
f 20 22 21
f 23 25 24