# https://github.com/mikedh/trimesh
v 0.02142200 -0.07388621 0.04999968 0.54117647 0.42352941 0.64313725
v 0.01563512 -0.07388621 0.04999968 0.54117647 0.42352941 0.64313725
v 0.02142200 -0.09201723 0.04999968 0.54117647 0.42352941 0.64313725
v 0.02142200 -0.07386488 0.01899948 0.54117647 0.42352941 0.64313725
v 0.00752165 -0.08704995 0.04999968 0.54117647 0.42352941 0.64313725
v 0.01562615 -0.07386488 0.01899948 0.54117647 0.42352941 0.64313725
v 0.00309628 -0.08614002 0.01362560 0.54117647 0.42352941 0.64313725
v 0.00752165 -0.09201723 0.04999968 0.54117647 0.42352941 0.64313725
v 0.02142200 -0.09201901 0.04666669 0.54117647 0.42352941 0.64313725
v 0.02142200 -0.07386488 0.01755079 0.54117647 0.42352941 0.64313725
v 0.02141662 -0.07386310 0.01145744 0.54117647 0.42352941 0.64313725
v 0.01562256 -0.07386310 0.01145744 0.54117647 0.42352941 0.64313725
v 0.00309628 -0.08614002 0.01290614 0.54117647 0.42352941 0.64313725
v 0.00309628 -0.09201723 0.01362560 0.54117647 0.42352941 0.64313725
v 0.00752165 -0.09201901 0.04666669 0.54117647 0.42352941 0.64313725
v 0.02142200 -0.09201901 -0.00000000 0.54117647 0.42352941 0.64313725
v 0.02142200 -0.07388621 -0.00000000 0.54117647 0.42352941 0.64313725
v 0.02141662 -0.07386310 0.01073799 0.54117647 0.42352941 0.64313725
v 0.01562256 -0.07386310 0.01073799 0.54117647 0.42352941 0.64313725
v 0.01563333 -0.07388621 -0.00000000 0.54117647 0.42352941 0.64313725
v 0.00310166 -0.08614002 0.01146234 0.54117647 0.42352941 0.64313725
v 0.00309628 -0.09201723 0.01290614 0.54117647 0.42352941 0.64313725
v 0.00560764 -0.09201901 0.01899459 0.54117647 0.42352941 0.64313725
v 0.00752524 -0.09201901 -0.00000000 0.54117647 0.42352941 0.64313725
v 0.00752524 -0.08704995 -0.00000000 0.54117647 0.42352941 0.64313725
v 0.00310166 -0.09201546 0.01146234 0.54117647 0.42352941 0.64313725
v 0.00560764 -0.09201901 0.01828003 0.54117647 0.42352941 0.64313725
f 1 2 5
f 1 5 8
f 1 8 3
f 1 3 9
f 1 9 16
f 1 16 17
f 1 17 10
f 1 10 4
f 1 4 6
f 1 6 2
f 2 6 7
f 2 7 5
f 3 8 15
f 3 15 9
f 4 10 18
f 4 18 11
f 4 11 12
f 4 12 6
f 5 7 14
f 5 14 8
f 6 12 7
f 7 12 19
f 7 19 13
f 7 13 22
f 7 22 14
f 8 14 15
f 9 15 23
f 9 23 27
f 9 27 24
f 9 24 16
f 10 17 18
f 11 18 19
f 11 19 12
f 13 19 20
f 13 20 21
f 13 21 26
f 13 26 22
f 14 22 27
f 14 27 23
f 14 23 15
f 16 24 25
f 16 25 20
f 16 20 17
f 17 20 19
f 17 19 18
f 20 25 21
f 21 25 24
f 21 24 26
f 22 26 24
f 22 24 27