# https://github.com/mikedh/trimesh

o geometry_0
v -0.01331162 -0.06082383 0.01362266 0.54509804 0.71372549 0.60000000
v -0.01331162 -0.06082383 0.01290126 0.54509804 0.71372549 0.60000000
v -0.03370130 -0.08134682 0.01073438 0.54509804 0.71372549 0.60000000
v -0.01661642 -0.08662032 0.01362266 0.54509804 0.71372549 0.60000000
v -0.00573358 -0.06419191 0.01362266 0.54509804 0.71372549 0.60000000
v 0.00105761 -0.06083299 0.01073438 0.54509804 0.71372549 0.60000000
v -0.01328337 -0.06085742 0.01073438 0.54509804 0.71372549 0.60000000
v -0.03370130 -0.08134682 0.00793411 0.54509804 0.71372549 0.60000000
v 0.00105761 -0.06083299 0.00793144 0.54509804 0.71372549 0.60000000
v 0.00104954 -0.06084215 0.00461245 0.54509804 0.71372549 0.60000000
v -0.03370534 -0.08295604 0.00793411 0.54509804 0.71372549 0.60000000
v -0.03370534 -0.08647680 0.01073438 0.54509804 0.71372549 0.60000000
v -0.01661642 -0.09201291 0.01362266 0.54509804 0.71372549 0.60000000
v -0.00157736 -0.07386864 0.01362266 0.54509804 0.71372549 0.60000000
v 0.00308729 -0.08613480 0.01362266 0.54509804 0.71372549 0.60000000
v 0.00751791 -0.08704781 0.01073438 0.54509804 0.71372549 0.60000000
v -0.01290003 -0.06131545 0.00793544 0.54509804 0.71372549 0.60000000
v -0.03370534 -0.08302322 -0.00000000 0.54509804 0.71372549 0.60000000
v 0.00079128 -0.06111697 0.00231089 0.54509804 0.71372549 0.60000000
v -0.03370534 -0.08295604 0.00461111 0.54509804 0.71372549 0.60000000
v 0.00751791 -0.08704781 -0.00000000 0.54509804 0.71372549 0.60000000
v -0.03370534 -0.09201901 0.01073438 0.54509804 0.71372549 0.60000000
v 0.00308729 -0.09201291 0.01362266 0.54509804 0.71372549 0.60000000
v 0.00751791 -0.08705087 0.01073438 0.54509804 0.71372549 0.60000000
v -0.01211317 -0.06202388 0.00461245 0.54509804 0.71372549 0.60000000
v -0.03370534 -0.09201596 -0.00000000 0.54509804 0.71372549 0.60000000
v -0.00614920 -0.06417359 -0.00000000 0.54509804 0.71372549 0.60000000
v -0.00038698 -0.06223763 -0.00000000 0.54509804 0.71372549 0.60000000
v 0.00751791 -0.09201596 -0.00000000 0.54509804 0.71372549 0.60000000
v -0.02187020 -0.09201901 0.01073438 0.54509804 0.71372549 0.60000000
v -0.03370534 -0.09201901 0.00461111 0.54509804 0.71372549 0.60000000
v 0.00751791 -0.09201596 0.01073305 0.54509804 0.71372549 0.60000000
v -0.00614920 -0.09201901 0.01073038 0.54509804 0.71372549 0.60000000
v -0.01111649 -0.09201901 -0.00000000 0.54509804 0.71372549 0.60000000
v -0.00070980 -0.09201901 -0.00000000 0.54509804 0.71372549 0.60000000
v -0.00070980 -0.09201901 0.00230689 0.54509804 0.71372549 0.60000000
f 1 2 8
f 1 8 3
f 1 3 4
f 1 4 13
f 1 13 23
f 1 23 15
f 1 15 14
f 1 14 5
f 1 5 6
f 1 6 9
f 1 9 2
f 2 7 8
f 2 9 10
f 2 10 7
f 3 8 20
f 3 20 11
f 3 11 12
f 3 12 4
f 4 12 22
f 4 22 13
f 5 14 6
f 6 14 15
f 6 15 16
f 6 16 21
f 6 21 9
f 7 17 18
f 7 18 8
f 7 10 19
f 7 19 17
f 8 18 20
f 9 21 10
f 10 21 19
f 11 20 18
f 11 18 26
f 11 26 31
f 11 31 22
f 11 22 12
f 13 22 30
f 13 30 23
f 15 23 24
f 15 24 16
f 16 24 32
f 16 32 29
f 16 29 21
f 17 19 25
f 17 25 18
f 18 25 27
f 18 27 28
f 18 28 21
f 18 21 29
f 18 29 35
f 18 35 34
f 18 34 26
f 19 21 28
f 19 28 25
f 22 31 34
f 22 34 35
f 22 35 36
f 22 36 33
f 22 33 30
f 23 32 24
f 23 30 33
f 23 33 32
f 25 28 27
f 26 34 31
f 29 32 36
f 29 36 35
f 32 33 36

o geometry_1
v 0.02142200 -0.07388621 0.04999968 0.54117647 0.42352941 0.64313725
v 0.01563512 -0.07388621 0.04999968 0.54117647 0.42352941 0.64313725
v 0.02142200 -0.09201723 0.04999968 0.54117647 0.42352941 0.64313725
v 0.02142200 -0.07386488 0.01899948 0.54117647 0.42352941 0.64313725
v 0.00752165 -0.08704995 0.04999968 0.54117647 0.42352941 0.64313725
v 0.01562615 -0.07386488 0.01899948 0.54117647 0.42352941 0.64313725
v 0.00309628 -0.08614002 0.01362560 0.54117647 0.42352941 0.64313725
v 0.00752165 -0.09201723 0.04999968 0.54117647 0.42352941 0.64313725
v 0.02142200 -0.09201901 0.04666669 0.54117647 0.42352941 0.64313725
v 0.02142200 -0.07386488 0.01755079 0.54117647 0.42352941 0.64313725
v 0.02141662 -0.07386310 0.01145744 0.54117647 0.42352941 0.64313725
v 0.01562256 -0.07386310 0.01145744 0.54117647 0.42352941 0.64313725
v 0.00309628 -0.08614002 0.01290614 0.54117647 0.42352941 0.64313725
v 0.00309628 -0.09201723 0.01362560 0.54117647 0.42352941 0.64313725
v 0.00752165 -0.09201901 0.04666669 0.54117647 0.42352941 0.64313725
v 0.02142200 -0.09201901 -0.00000000 0.54117647 0.42352941 0.64313725
v 0.02142200 -0.07388621 -0.00000000 0.54117647 0.42352941 0.64313725
v 0.02141662 -0.07386310 0.01073799 0.54117647 0.42352941 0.64313725
v 0.01562256 -0.07386310 0.01073799 0.54117647 0.42352941 0.64313725
v 0.01563333 -0.07388621 -0.00000000 0.54117647 0.42352941 0.64313725
v 0.00310166 -0.08614002 0.01146234 0.54117647 0.42352941 0.64313725
v 0.00309628 -0.09201723 0.01290614 0.54117647 0.42352941 0.64313725
v 0.00560764 -0.09201901 0.01899459 0.54117647 0.42352941 0.64313725
v 0.00752524 -0.09201901 -0.00000000 0.54117647 0.42352941 0.64313725
v 0.00752524 -0.08704995 -0.00000000 0.54117647 0.42352941 0.64313725
v 0.00310166 -0.09201546 0.01146234 0.54117647 0.42352941 0.64313725
v 0.00560764 -0.09201901 0.01828003 0.54117647 0.42352941 0.64313725
f 37 38 41
f 37 41 44
f 37 44 39
f 37 39 45
f 37 45 52
f 37 52 53
f 37 53 46
f 37 46 40
f 37 40 42
f 37 42 38
f 38 42 43
f 38 43 41
f 39 44 51
f 39 51 45
f 40 46 54
f 40 54 47
f 40 47 48
f 40 48 42
f 41 43 50
f 41 50 44
f 42 48 43
f 43 48 55
f 43 55 49
f 43 49 58
f 43 58 50
f 44 50 51
f 45 51 59
f 45 59 63
f 45 63 60
f 45 60 52
f 46 53 54
f 47 54 55
f 47 55 48
f 49 55 56
f 49 56 57
f 49 57 62
f 49 62 58
f 50 58 63
f 50 63 59
f 50 59 51
f 52 60 61
f 52 61 56
f 52 56 53
f 53 56 55
f 53 55 54
f 56 61 57
f 57 61 60
f 57 60 62
f 58 62 60
f 58 60 63

o geometry_2
v -0.01329499 -0.04871371 0.01610322 0.43529412 0.89019608 0.96078431
v -0.01499935 -0.05788328 0.01610322 0.43529412 0.89019608 0.96078431
v -0.01329499 -0.04871371 0.01486552 0.43529412 0.89019608 0.96078431
v -0.03370534 -0.04871371 0.01610322 0.43529412 0.89019608 0.96078431
v -0.01499935 -0.05788328 0.01486552 0.43529412 0.89019608 0.96078431
v -0.03370534 -0.05788328 0.01610322 0.43529412 0.89019608 0.96078431
v -0.03370534 -0.04871371 0.01486552 0.43529412 0.89019608 0.96078431
v -0.03370534 -0.05788328 0.01486552 0.43529412 0.89019608 0.96078431
f 64 65 68
f 64 68 66
f 64 66 70
f 64 70 67
f 64 67 69
f 64 69 65
f 65 69 71
f 65 71 68
f 66 68 71
f 66 71 70
f 67 70 71
f 67 71 69

o geometry_3
v -0.03370534 -0.07382752 0.03954036 0.38039216 0.78823529 0.52549020
v -0.02794887 -0.07382752 0.03954036 0.38039216 0.78823529 0.52549020
v -0.03370534 -0.07382752 0.04439121 0.38039216 0.78823529 0.52549020
v -0.03370534 -0.05157515 0.03954036 0.38039216 0.78823529 0.52549020
v -0.01242118 -0.07129794 0.03954036 0.38039216 0.78823529 0.52549020
v -0.02794470 -0.07382752 0.04287084 0.38039216 0.78823529 0.52549020
v -0.03370117 -0.07382752 0.04999968 0.38039216 0.78823529 0.52549020
v -0.03370326 -0.06014963 0.04999968 0.38039216 0.78823529 0.52549020
v -0.03370534 -0.05788801 0.04439121 0.38039216 0.78823529 0.52549020
v -0.03370534 -0.04871371 0.04287084 0.38039216 0.78823529 0.52549020
v -0.02262783 -0.05157515 0.03954036 0.38039216 0.78823529 0.52549020
v -0.01242118 -0.06177702 0.03954036 0.38039216 0.78823529 0.52549020
v -0.01242118 -0.07129794 0.04286879 0.38039216 0.78823529 0.52549020
v -0.02794470 -0.07382752 0.04999968 0.38039216 0.78823529 0.52549020
v -0.03370326 -0.05107120 0.04999968 0.38039216 0.78823529 0.52549020
v -0.03370534 -0.04871371 0.04439018 0.38039216 0.78823529 0.52549020
v -0.01329830 -0.04871371 0.04287084 0.38039216 0.78823529 0.52549020
v -0.01496711 -0.05157760 0.03954036 0.38039216 0.78823529 0.52549020
v -0.01242118 -0.06177702 0.04286879 0.38039216 0.78823529 0.52549020
v -0.01300245 -0.07074975 0.04999968 0.38039216 0.78823529 0.52549020
v -0.01481086 -0.05107120 0.04999968 0.38039216 0.78823529 0.52549020
v -0.01329830 -0.04871371 0.04439018 0.38039216 0.78823529 0.52549020
v -0.01300245 -0.06119932 0.04999968 0.38039216 0.78823529 0.52549020
f 72 73 77
f 72 77 85
f 72 85 78
f 72 78 74
f 72 74 80
f 72 80 87
f 72 87 81
f 72 81 75
f 72 75 82
f 72 82 89
f 72 89 83
f 72 83 76
f 72 76 73
f 73 76 77
f 74 78 79
f 74 79 86
f 74 86 80
f 75 81 88
f 75 88 82
f 76 83 90
f 76 90 84
f 76 84 85
f 76 85 77
f 78 85 91
f 78 91 94
f 78 94 92
f 78 92 86
f 78 86 79
f 80 86 87
f 81 87 93
f 81 93 88
f 82 88 89
f 83 89 88
f 83 88 93
f 83 93 90
f 84 90 94
f 84 94 91
f 84 91 85
f 86 92 93
f 86 93 87
f 90 93 94
f 92 94 93

o geometry_4
v -0.00614545 -0.04540189 0.02299341 0.56470588 0.92549020 0.07058824
v -0.00614545 -0.04540189 0.02527619 0.56470588 0.92549020 0.07058824
v -0.00614545 -0.04040743 0.02299341 0.56470588 0.92549020 0.07058824
v -0.00613735 -0.04540189 0.01899301 0.56470588 0.92549020 0.07058824
v 0.00080039 -0.07063160 0.03573473 0.56470588 0.92549020 0.07058824
v -0.00613735 -0.04540189 0.03573473 0.56470588 0.92549020 0.07058824
v -0.00614545 -0.04040743 0.02527619 0.56470588 0.92549020 0.07058824
v 0.00080039 -0.07063160 0.03954003 0.56470588 0.92549020 0.07058824
v -0.00613735 -0.04040447 0.01899301 0.56470588 0.92549020 0.07058824
v 0.00310217 -0.05318354 0.01899301 0.56470588 0.92549020 0.07058824
v 0.00100007 -0.07047478 0.03012332 0.56470588 0.92549020 0.07058824
v 0.00751145 -0.06823201 0.03012332 0.56470588 0.92549020 0.07058824
v 0.00753034 -0.06823201 0.03240610 0.56470588 0.92549020 0.07058824
v -0.00613735 -0.04040447 0.03573473 0.56470588 0.92549020 0.07058824
v 0.00753034 -0.06823201 0.03573272 0.56470588 0.92549020 0.07058824
v 0.00751415 -0.06823201 0.03954003 0.56470588 0.92549020 0.07058824
v 0.00080039 -0.06110425 0.03954003 0.56470588 0.92549020 0.07058824
v 0.02141930 -0.04040447 0.01899301 0.56470588 0.92549020 0.07058824
v 0.02142200 -0.05318354 0.01899301 0.56470588 0.92549020 0.07058824
v 0.02142200 -0.05637313 0.02527820 0.56470588 0.92549020 0.07058824
v 0.02141930 -0.04040447 0.03573473 0.56470588 0.92549020 0.07058824
v 0.00309138 -0.05637609 0.03954003 0.56470588 0.92549020 0.07058824
v 0.02142200 -0.05637313 0.03240409 0.56470588 0.92549020 0.07058824
v 0.02141930 -0.05477537 0.03573473 0.56470588 0.92549020 0.07058824
v 0.00751415 -0.05637609 0.03954003 0.56470588 0.92549020 0.07058824
v 0.02142200 -0.04733399 0.01899301 0.56470588 0.92549020 0.07058824
v 0.02142200 -0.04799971 0.03240409 0.56470588 0.92549020 0.07058824
v 0.02142200 -0.04733399 0.02023597 0.56470588 0.92549020 0.07058824
f 95 96 101
f 95 101 97
f 95 97 103
f 95 103 98
f 95 98 99
f 95 99 102
f 95 102 96
f 96 100 108
f 96 108 101
f 96 102 100
f 97 101 108
f 97 108 103
f 98 103 112
f 98 112 120
f 98 120 113
f 98 113 104
f 98 104 105
f 98 105 99
f 99 105 106
f 99 106 107
f 99 107 109
f 99 109 102
f 100 102 111
f 100 111 108
f 102 109 110
f 102 110 119
f 102 119 116
f 102 116 111
f 103 108 115
f 103 115 112
f 104 113 105
f 105 113 106
f 106 113 114
f 106 114 107
f 107 114 117
f 107 117 109
f 108 111 116
f 108 116 119
f 108 119 115
f 109 117 110
f 110 117 118
f 110 118 115
f 110 115 119
f 112 115 122
f 112 122 120
f 113 120 122
f 113 122 121
f 113 121 117
f 113 117 114
f 115 118 117
f 115 117 121
f 115 121 122

o geometry_5
v -0.03370534 -0.06015839 0.02299060 0.08627451 0.01960784 0.83137255
v -0.02187342 -0.06861247 0.02299060 0.08627451 0.01960784 0.83137255
v -0.03370534 -0.06015839 0.02527407 0.08627451 0.01960784 0.83137255
v -0.03370534 -0.04788423 0.01362921 0.08627451 0.01960784 0.83137255
v -0.01347562 -0.07029676 0.02299060 0.08627451 0.01960784 0.83137255
v -0.01300084 -0.07075124 0.02527407 0.08627451 0.01960784 0.83137255
v -0.02187342 -0.06861247 0.02527407 0.08627451 0.01960784 0.83137255
v -0.03370534 -0.04678513 0.01290625 0.08627451 0.01960784 0.83137255
v -0.03370534 -0.05947517 0.02860237 0.08627451 0.01960784 0.83137255
v -0.01114215 -0.04678513 0.01290625 0.08627451 0.01960784 0.83137255
v -0.00615419 -0.04539790 0.01290625 0.08627451 0.01960784 0.83137255
v -0.01300084 -0.07075124 0.02860237 0.08627451 0.01960784 0.83137255
v -0.00614609 -0.04539790 0.02023358 0.08627451 0.01960784 0.83137255
v -0.00614609 -0.04540088 0.02147053 0.08627451 0.01960784 0.83137255
v -0.02055967 -0.06831839 0.02860237 0.08627451 0.01960784 0.83137255
v -0.03370534 -0.04040744 0.01290625 0.08627451 0.01960784 0.83137255
v -0.03369994 -0.05628484 0.03012244 0.08627451 0.01960784 0.83137255
v -0.03370534 -0.05107159 0.02860237 0.08627451 0.01960784 0.83137255
v -0.00615419 -0.04040744 0.01290625 0.08627451 0.01960784 0.83137255
v -0.01542063 -0.05628484 0.03012244 0.08627451 0.01960784 0.83137255
v -0.00614609 -0.04540088 0.02860069 0.08627451 0.01960784 0.83137255
v -0.00614879 -0.04540088 0.03012244 0.08627451 0.01960784 0.83137255
v -0.00614609 -0.04040447 0.02023358 0.08627451 0.01960784 0.83137255
v -0.03370534 -0.04040447 0.01486785 0.08627451 0.01960784 0.83137255
v -0.03369994 -0.04040447 0.03012244 0.08627451 0.01960784 0.83137255
v -0.03370534 -0.04040744 0.02860069 0.08627451 0.01960784 0.83137255
v -0.00615419 -0.04040447 0.01486785 0.08627451 0.01960784 0.83137255
v -0.00614879 -0.04040447 0.01827199 0.08627451 0.01960784 0.83137255
v -0.00614609 -0.04040744 0.02860069 0.08627451 0.01960784 0.83137255
v -0.00614879 -0.04040447 0.03012244 0.08627451 0.01960784 0.83137255
v -0.00614609 -0.04040447 0.02299060 0.08627451 0.01960784 0.83137255
v -0.03370534 -0.04040447 0.02299060 0.08627451 0.01960784 0.83137255
f 123 124 129
f 123 129 125
f 123 125 131
f 123 131 140
f 123 140 148
f 123 148 154
f 123 154 146
f 123 146 138
f 123 138 130
f 123 130 126
f 123 126 124
f 124 127 128
f 124 128 134
f 124 134 129
f 124 126 130
f 124 130 127
f 125 129 131
f 127 130 132
f 127 132 133
f 127 133 128
f 128 133 135
f 128 135 136
f 128 136 143
f 128 143 134
f 129 137 131
f 129 134 137
f 130 138 141
f 130 141 133
f 130 133 132
f 131 137 139
f 131 139 147
f 131 147 140
f 133 141 145
f 133 145 135
f 134 142 139
f 134 139 137
f 134 143 144
f 134 144 142
f 135 145 153
f 135 153 151
f 135 151 143
f 135 143 136
f 138 146 149
f 138 149 141
f 139 142 144
f 139 144 152
f 139 152 147
f 140 147 148
f 141 149 150
f 141 150 145
f 143 151 152
f 143 152 144
f 145 150 149
f 145 149 146
f 145 146 154
f 145 154 147
f 145 147 152
f 145 152 153
f 147 154 148
f 151 153 152

o geometry_6
v 0.00133222 -0.06043547 0.02023435 0.77647059 0.86666667 0.97647059
v 0.00079509 -0.06111039 0.04999968 0.77647059 0.86666667 0.97647059
v 0.00105329 -0.06083732 0.03573433 0.77647059 0.86666667 0.97647059
v 0.00133222 -0.07021639 0.02023435 0.77647059 0.86666667 0.97647059
v 0.00133222 -0.06043547 0.01899284 0.77647059 0.86666667 0.97647059
v -0.01495065 -0.05803523 0.02023435 0.77647059 0.86666667 0.97647059
v 0.00079509 -0.07062755 0.04999968 0.77647059 0.86666667 0.97647059
v -0.01299498 -0.06119262 0.04999968 0.77647059 0.86666667 0.97647059
v 0.00105329 -0.07042895 0.03573433 0.77647059 0.86666667 0.97647059
v -0.00158455 -0.07388424 0.04999968 0.77647059 0.86666667 0.97647059
v -0.00158455 -0.07388579 0.04286700 0.77647059 0.86666667 0.97647059
v 0.00133222 -0.07021639 0.01899284 0.77647059 0.86666667 0.97647059
v -0.00614936 -0.06416693 0.01486593 0.77647059 0.86666667 0.97647059
v -0.01352095 -0.06058131 0.01486593 0.77647059 0.86666667 0.97647059
v -0.01495065 -0.05803523 0.01899627 0.77647059 0.86666667 0.97647059
v -0.01495065 -0.06933822 0.02023435 0.77647059 0.86666667 0.97647059
v -0.01299498 -0.07074857 0.04999968 0.77647059 0.86666667 0.97647059
v -0.00614617 -0.07388424 0.04999968 0.77647059 0.86666667 0.97647059
v -0.00613661 -0.07388579 0.04286700 0.77647059 0.86666667 0.97647059
v -0.00158455 -0.07388579 0.01899284 0.77647059 0.86666667 0.97647059
v -0.00614936 -0.07382373 0.01486593 0.77647059 0.86666667 0.97647059
v -0.01352095 -0.07024587 0.01486593 0.77647059 0.86666667 0.97647059
v -0.01495065 -0.06933822 0.01899627 0.77647059 0.86666667 0.97647059
v -0.01077155 -0.07386096 0.01899627 0.77647059 0.86666667 0.97647059
v -0.01078430 -0.07382683 0.04999968 0.77647059 0.86666667 0.97647059
v -0.00614617 -0.07388579 0.03573433 0.77647059 0.86666667 0.97647059
v -0.00614617 -0.07388579 0.01899284 0.77647059 0.86666667 0.97647059
v -0.00569511 -0.07386096 0.01610744 0.77647059 0.86666667 0.97647059
v -0.01078589 -0.07382373 0.01486593 0.77647059 0.86666667 0.97647059
v -0.01076995 -0.07386096 0.01610744 0.77647059 0.86666667 0.97647059
f 155 156 157
f 155 157 163
f 155 163 158
f 155 158 166
f 155 166 159
f 155 159 169
f 155 169 160
f 155 160 156
f 156 161 163
f 156 163 157
f 156 160 162
f 156 162 171
f 156 171 179
f 156 179 172
f 156 172 164
f 156 164 161
f 158 163 161
f 158 161 164
f 158 164 165
f 158 165 174
f 158 174 166
f 159 166 175
f 159 175 167
f 159 167 168
f 159 168 169
f 160 169 177
f 160 177 170
f 160 170 171
f 160 171 162
f 164 172 173
f 164 173 165
f 165 173 180
f 165 180 181
f 165 181 174
f 166 174 175
f 167 175 183
f 167 183 176
f 167 176 168
f 168 176 177
f 168 177 169
f 170 177 178
f 170 178 179
f 170 179 171
f 172 179 178
f 172 178 173
f 173 178 180
f 174 181 184
f 174 184 182
f 174 182 175
f 175 182 184
f 175 184 183
f 176 183 177
f 177 183 184
f 177 184 178
f 178 184 181
f 178 181 180

o geometry_7
v -0.00613984 -0.08302120 0.02860349 0.79607843 0.45882353 0.78039216
v -0.00613984 -0.07388628 0.02860349 0.79607843 0.45882353 0.78039216
v -0.00068478 -0.08302120 0.02860349 0.79607843 0.45882353 0.78039216
v -0.01887436 -0.09201723 0.02860558 0.79607843 0.45882353 0.78039216
v -0.00158663 -0.07388628 0.02860349 0.79607843 0.45882353 0.78039216
v -0.01887436 -0.08705090 0.02860558 0.79607843 0.45882353 0.78039216
v -0.01078350 -0.07382752 0.03012600 0.79607843 0.45882353 0.78039216
v 0.00751720 -0.08704555 0.02860558 0.79607843 0.45882353 0.78039216
v 0.00751720 -0.09201189 0.02860558 0.79607843 0.45882353 0.78039216
v -0.01110651 -0.09201723 0.02860558 0.79607843 0.45882353 0.78039216
v -0.01887436 -0.09201723 0.03573439 0.79607843 0.45882353 0.78039216
v -0.01887695 -0.09201189 0.03725900 0.79607843 0.45882353 0.78039216
v -0.01110651 -0.09201901 0.04286738 0.79607843 0.45882353 0.78039216
v -0.00158405 -0.07388628 0.03725900 0.79607843 0.45882353 0.78039216
v -0.00614243 -0.07382752 0.03012600 0.79607843 0.45882353 0.78039216
v -0.00613468 -0.07382752 0.03953963 0.79607843 0.45882353 0.78039216
v -0.01887695 -0.08705090 0.03725900 0.79607843 0.45882353 0.78039216
v -0.01078608 -0.07382752 0.03953963 0.79607843 0.45882353 0.78039216
v 0.00752237 -0.08705090 0.03953963 0.79607843 0.45882353 0.78039216
v 0.00752237 -0.09201367 0.03953963 0.79607843 0.45882353 0.78039216
v 0.00751720 -0.09201723 0.03012810 0.79607843 0.45882353 0.78039216
v -0.00614243 -0.09201901 0.04286738 0.79607843 0.45882353 0.78039216
v -0.01887436 -0.09201367 0.04999828 0.79607843 0.45882353 0.78039216
v -0.01887695 -0.09201189 0.03953963 0.79607843 0.45882353 0.78039216
v -0.01110651 -0.09201901 0.04438780 0.79607843 0.45882353 0.78039216
v -0.00158405 -0.07388628 0.03953963 0.79607843 0.45882353 0.78039216
v -0.00613468 -0.07382752 0.04286738 0.79607843 0.45882353 0.78039216
v -0.01887695 -0.08705090 0.03953963 0.79607843 0.45882353 0.78039216
v -0.01078608 -0.07382752 0.04286738 0.79607843 0.45882353 0.78039216
v 0.00752237 -0.08705090 0.04286947 0.79607843 0.45882353 0.78039216
v 0.00752237 -0.09201367 0.04286947 0.79607843 0.45882353 0.78039216
v 0.00751978 -0.09201723 0.03725690 0.79607843 0.45882353 0.78039216
v -0.00614243 -0.09201901 0.04438780 0.79607843 0.45882353 0.78039216
v -0.01887436 -0.08705090 0.04999828 0.79607843 0.45882353 0.78039216
v 0.00751720 -0.09201367 0.04999828 0.79607843 0.45882353 0.78039216
v -0.00158663 -0.07388806 0.04999828 0.79607843 0.45882353 0.78039216
v -0.00614243 -0.07383108 0.04999828 0.79607843 0.45882353 0.78039216
v -0.01078608 -0.07383108 0.04999828 0.79607843 0.45882353 0.78039216
v 0.00751720 -0.08705090 0.04999828 0.79607843 0.45882353 0.78039216
v 0.00751978 -0.09201723 0.03953963 0.79607843 0.45882353 0.78039216
f 185 186 189
f 185 189 187
f 185 187 194
f 185 194 188
f 185 188 190
f 185 190 186
f 186 190 191
f 186 191 199
f 186 199 189
f 187 189 192
f 187 192 193
f 187 193 194
f 188 195 208
f 188 208 196
f 188 196 201
f 188 201 190
f 188 194 206
f 188 206 197
f 188 197 209
f 188 209 195
f 189 198 192
f 189 199 200
f 189 200 198
f 190 201 191
f 191 202 213
f 191 213 211
f 191 211 200
f 191 200 199
f 191 201 202
f 192 203 204
f 192 204 193
f 192 198 203
f 193 204 205
f 193 205 194
f 194 205 206
f 195 207 208
f 195 209 207
f 196 208 212
f 196 212 201
f 197 206 217
f 197 217 209
f 198 200 211
f 198 211 210
f 198 210 214
f 198 214 203
f 201 212 213
f 201 213 202
f 203 214 215
f 203 215 204
f 204 215 224
f 204 224 216
f 204 216 205
f 205 216 206
f 206 216 224
f 206 224 217
f 207 218 212
f 207 212 208
f 207 209 217
f 207 217 219
f 207 219 223
f 207 223 220
f 207 220 221
f 207 221 222
f 207 222 218
f 210 211 220
f 210 220 214
f 211 213 222
f 211 222 221
f 211 221 220
f 212 218 213
f 213 218 222
f 214 223 219
f 214 219 215
f 214 220 223
f 215 219 224
f 217 224 219

o geometry_8
v 0.02142200 -0.04859445 0.01754825 0.11764706 0.63921569 0.14117647
v 0.02142200 -0.05383245 0.01754825 0.11764706 0.63921569 0.14117647
v 0.02142200 -0.04859445 0.01682661 0.11764706 0.63921569 0.14117647
v 0.00094546 -0.04859445 0.01754825 0.11764706 0.63921569 0.14117647
v 0.02142200 -0.05383245 0.01682661 0.11764706 0.63921569 0.14117647
v 0.00322241 -0.05383245 0.01754825 0.11764706 0.63921569 0.14117647
v 0.00094546 -0.04859445 0.01682661 0.11764706 0.63921569 0.14117647
v 0.00322241 -0.05383245 0.01682661 0.11764706 0.63921569 0.14117647
f 225 226 229
f 225 229 227
f 225 227 231
f 225 231 228
f 225 228 230
f 225 230 226
f 226 230 232
f 226 232 229
f 227 229 232
f 227 232 231
f 228 231 232
f 228 232 230

o geometry_9
v -0.00614609 -0.04040624 0.01290336 0.94117647 0.52156863 0.41176471
v -0.01113406 -0.04678507 0.01362488 0.94117647 0.52156863 0.41176471
v -0.00614609 -0.04539960 0.01290336 0.94117647 0.52156863 0.41176471
v -0.00614609 -0.04040624 0.00461053 0.94117647 0.52156863 0.41176471
v -0.03370534 -0.04040624 0.01290336 0.94117647 0.52156863 0.41176471
v -0.01480826 -0.05106357 0.01362488 0.94117647 0.52156863 0.41176471
v -0.03370534 -0.04678507 0.01362488 0.94117647 0.52156863 0.41176471
v -0.01481366 -0.05848106 0.00461053 0.94117647 0.52156863 0.41176471
v -0.00614609 -0.04539960 0.01217917 0.94117647 0.52156863 0.41176471
v -0.00614609 -0.04040801 -0.00000000 0.94117647 0.52156863 0.41176471
v -0.03370534 -0.04040624 0.00461053 0.94117647 0.52156863 0.41176471
v -0.03370534 -0.05106357 0.01362488 0.94117647 0.52156863 0.41176471
v -0.03370534 -0.05848106 0.00461053 0.94117647 0.52156863 0.41176471
v -0.01481366 -0.05848106 0.00230860 0.94117647 0.52156863 0.41176471
v -0.00614609 -0.04539783 -0.00000000 0.94117647 0.52156863 0.41176471
v -0.03370534 -0.04040801 -0.00000000 0.94117647 0.52156863 0.41176471
v -0.03370534 -0.05848106 0.00230860 0.94117647 0.52156863 0.41176471
v -0.01535049 -0.05276754 -0.00000000 0.94117647 0.52156863 0.41176471
v -0.03370534 -0.05276754 -0.00000000 0.94117647 0.52156863 0.41176471
f 233 234 235
f 233 235 241
f 233 241 247
f 233 247 242
f 233 242 236
f 233 236 243
f 233 243 237
f 233 237 239
f 233 239 234
f 234 238 235
f 234 239 244
f 234 244 238
f 235 238 240
f 235 240 246
f 235 246 241
f 236 242 248
f 236 248 243
f 237 243 248
f 237 248 251
f 237 251 249
f 237 249 245
f 237 245 244
f 237 244 239
f 238 244 245
f 238 245 240
f 240 245 249
f 240 249 246
f 241 246 247
f 242 247 250
f 242 250 251
f 242 251 248
f 246 249 251
f 246 251 250
f 246 250 247

o geometry_10
v -0.00614824 -0.07382752 0.02023484 0.26274510 0.77254902 0.45490196
v -0.00157378 -0.07386491 0.01827381 0.26274510 0.77254902 0.45490196
v -0.00614824 -0.07382752 0.01486552 0.26274510 0.77254902 0.45490196
v -0.01078605 -0.07382752 0.02023484 0.26274510 0.77254902 0.45490196
v -0.00615141 -0.07382930 0.03012365 0.26274510 0.77254902 0.45490196
v -0.00158645 -0.07388628 0.02860022 0.26274510 0.77254902 0.45490196
v -0.00157378 -0.07386669 0.01899519 0.26274510 0.77254902 0.45490196
v 0.00939985 -0.08676420 0.01827231 0.26274510 0.77254902 0.45490196
v -0.00157378 -0.07386491 0.01610667 0.26274510 0.77254902 0.45490196
v 0.00939985 -0.08676420 0.01682954 0.26274510 0.77254902 0.45490196
v 0.00377998 -0.08647930 0.01610517 0.26274510 0.77254902 0.45490196
v -0.00614824 -0.08247453 0.01486552 0.26274510 0.77254902 0.45490196
v -0.01078605 -0.07382752 0.01486552 0.26274510 0.77254902 0.45490196
v -0.02296349 -0.08630835 0.01682954 0.26274510 0.77254902 0.45490196
v -0.01078605 -0.07382930 0.03012365 0.26274510 0.77254902 0.45490196
v -0.00615141 -0.09201901 0.03012365 0.26274510 0.77254902 0.45490196
v 0.00751811 -0.08705268 0.02860172 0.26274510 0.77254902 0.45490196
v 0.00939985 -0.09201723 0.01827231 0.26274510 0.77254902 0.45490196
v 0.00939985 -0.09201723 0.01682954 0.26274510 0.77254902 0.45490196
v 0.00377998 -0.09201723 0.01610517 0.26274510 0.77254902 0.45490196
v -0.01129292 -0.08247453 0.01486552 0.26274510 0.77254902 0.45490196
v -0.02296349 -0.08630835 0.01610517 0.26274510 0.77254902 0.45490196
v -0.02296349 -0.09201723 0.01682954 0.26274510 0.77254902 0.45490196
v -0.01887689 -0.08704733 0.02860172 0.26274510 0.77254902 0.45490196
v -0.01110601 -0.08221277 0.03012365 0.26274510 0.77254902 0.45490196
v -0.00070894 -0.09201901 0.02860022 0.26274510 0.77254902 0.45490196
v 0.00751811 -0.09201723 0.02860172 0.26274510 0.77254902 0.45490196
v -0.01110601 -0.09201901 0.03012365 0.26274510 0.77254902 0.45490196
v -0.00070894 -0.09201901 0.02527558 0.26274510 0.77254902 0.45490196
v -0.00614824 -0.09201901 0.02147001 0.26274510 0.77254902 0.45490196
v -0.02296349 -0.09201723 0.01610517 0.26274510 0.77254902 0.45490196
v -0.01887689 -0.09201901 0.02860172 0.26274510 0.77254902 0.45490196
v -0.01110601 -0.09201901 0.02147001 0.26274510 0.77254902 0.45490196
v -0.01887689 -0.09201901 0.02299044 0.26274510 0.77254902 0.45490196
f 252 253 260
f 252 260 254
f 252 254 264
f 252 264 255
f 252 255 266
f 252 266 256
f 252 256 253
f 253 257 258
f 253 258 259
f 253 259 261
f 253 261 260
f 253 256 257
f 254 260 261
f 254 261 262
f 254 262 271
f 254 271 263
f 254 263 272
f 254 272 264
f 255 264 273
f 255 273 265
f 255 265 266
f 256 266 276
f 256 276 279
f 256 279 267
f 256 267 278
f 256 278 268
f 256 268 257
f 257 268 259
f 257 259 258
f 259 268 278
f 259 278 269
f 259 269 270
f 259 270 261
f 261 270 271
f 261 271 262
f 263 271 282
f 263 282 272
f 264 272 273
f 265 273 282
f 265 282 274
f 265 274 283
f 265 283 275
f 265 275 266
f 266 275 276
f 267 277 278
f 267 279 283
f 267 283 285
f 267 285 284
f 267 284 281
f 267 281 280
f 267 280 277
f 269 278 277
f 269 277 280
f 269 280 270
f 270 280 281
f 270 281 271
f 271 281 284
f 271 284 282
f 272 282 273
f 274 282 285
f 274 285 283
f 275 283 279
f 275 279 276
f 282 284 285

o geometry_11
v -0.03370339 -0.05788567 0.03725574 0.56470588 0.01568627 0.61568627
v -0.03370339 -0.05788567 0.03954003 0.56470588 0.01568627 0.61568627
v -0.03370339 -0.04933038 0.03725574 0.56470588 0.01568627 0.61568627
v -0.02187194 -0.06861259 0.02860456 0.56470588 0.01568627 0.61568627
v -0.02187194 -0.06861464 0.03725467 0.56470588 0.01568627 0.61568627
v -0.03370339 -0.04933038 0.03954003 0.56470588 0.01568627 0.61568627
v -0.02187194 -0.06861464 0.03954003 0.56470588 0.01568627 0.61568627
v -0.01382275 -0.04933038 0.03725574 0.56470588 0.01568627 0.61568627
v -0.02187194 -0.05629437 0.02860456 0.56470588 0.01568627 0.61568627
v -0.01358735 -0.07019158 0.02860456 0.56470588 0.01568627 0.61568627
v -0.01349635 -0.07027976 0.03012564 0.56470588 0.01568627 0.61568627
v -0.01382275 -0.04933038 0.03954003 0.56470588 0.01568627 0.61568627
v -0.01349635 -0.07027976 0.03573360 0.56470588 0.01568627 0.61568627
v -0.01349635 -0.07027771 0.03725360 0.56470588 0.01568627 0.61568627
v -0.01352602 -0.07024900 0.03954003 0.56470588 0.01568627 0.61568627
v -0.01349635 -0.06061302 0.03012564 0.56470588 0.01568627 0.61568627
v -0.01358735 -0.06050639 0.02860456 0.56470588 0.01568627 0.61568627
v -0.01541716 -0.05629437 0.02860456 0.56470588 0.01568627 0.61568627
v -0.01352602 -0.06058021 0.03954003 0.56470588 0.01568627 0.61568627
v -0.01349635 -0.06061507 0.03725360 0.56470588 0.01568627 0.61568627
v -0.01349635 -0.06061302 0.03240993 0.56470588 0.01568627 0.61568627
f 286 287 291
f 286 291 288
f 286 288 294
f 286 294 289
f 286 289 290
f 286 290 292
f 286 292 287
f 287 292 300
f 287 300 304
f 287 304 297
f 287 297 291
f 288 291 297
f 288 297 293
f 288 293 303
f 288 303 294
f 289 295 296
f 289 296 290
f 289 294 303
f 289 303 302
f 289 302 295
f 290 296 298
f 290 298 292
f 292 298 299
f 292 299 300
f 293 301 302
f 293 302 303
f 293 297 306
f 293 306 301
f 295 302 301
f 295 301 296
f 296 301 306
f 296 306 305
f 296 305 299
f 296 299 298
f 297 304 305
f 297 305 306
f 299 305 304
f 299 304 300

o geometry_12
v -0.03369994 -0.05849179 0.03012552 0.61176471 0.61568627 0.94117647
v -0.03370534 -0.05850596 0.03573549 0.61176471 0.61568627 0.94117647
v -0.03369994 -0.04939762 0.03012552 0.61176471 0.61568627 0.94117647
v -0.01480793 -0.05849179 0.03012552 0.61176471 0.61568627 0.94117647
v -0.03370534 -0.05850596 0.03725858 0.61176471 0.61568627 0.94117647
v -0.03370534 -0.04901132 0.03573549 0.61176471 0.61568627 0.94117647
v -0.01479714 -0.05850596 0.03573549 0.61176471 0.61568627 0.94117647
v -0.03369994 -0.04040447 0.03013135 0.61176471 0.61568627 0.94117647
v -0.01387979 -0.04939762 0.03012552 0.61176471 0.61568627 0.94117647
v -0.00614707 -0.04539634 0.03013135 0.61176471 0.61568627 0.94117647
v 0.02141660 -0.04872425 0.03573938 0.61176471 0.61568627 0.94117647
v -0.03370534 -0.05106867 0.04999579 0.61176471 0.61568627 0.94117647
v -0.01479714 -0.05850596 0.03725858 0.61176471 0.61568627 0.94117647
v -0.03370534 -0.04040447 0.04286661 0.61176471 0.61568627 0.94117647
v -0.00614707 -0.04040447 0.03013135 0.61176471 0.61568627 0.94117647
v 0.02141660 -0.04040447 0.03573938 0.61176471 0.61568627 0.94117647
v 0.02142200 -0.04732964 0.03954420 0.61176471 0.61568627 0.94117647
v 0.02141660 -0.04872425 0.04999579 0.61176471 0.61568627 0.94117647
v -0.03370534 -0.04040447 0.04999579 0.61176471 0.61568627 0.94117647
v -0.01480793 -0.05106867 0.04999579 0.61176471 0.61568627 0.94117647
v 0.02141660 -0.04040447 0.04999579 0.61176471 0.61568627 0.94117647
v 0.02142200 -0.04040801 0.03954420 0.61176471 0.61568627 0.94117647
v 0.02142200 -0.04732964 0.04286661 0.61176471 0.61568627 0.94117647
v 0.02142200 -0.04040801 0.04286661 0.61176471 0.61568627 0.94117647
f 307 308 312
f 307 312 309
f 307 309 315
f 307 315 310
f 307 310 313
f 307 313 308
f 308 311 318
f 308 318 325
f 308 325 320
f 308 320 312
f 308 313 319
f 308 319 311
f 309 312 314
f 309 314 321
f 309 321 315
f 310 315 316
f 310 316 317
f 310 317 313
f 311 319 326
f 311 326 318
f 312 320 314
f 313 317 324
f 313 324 319
f 314 320 325
f 314 325 327
f 314 327 322
f 314 322 321
f 315 321 316
f 316 321 322
f 316 322 317
f 317 322 328
f 317 328 323
f 317 323 329
f 317 329 324
f 318 326 324
f 318 324 327
f 318 327 325
f 319 324 326
f 322 327 330
f 322 330 328
f 323 328 330
f 323 330 329
f 324 329 330
f 324 330 327

o geometry_13
v 0.01562660 -0.07388579 0.01899262 0.67843137 0.35686275 0.43529412
v 0.02141766 -0.07388579 0.01899262 0.67843137 0.35686275 0.43529412
v 0.01562660 -0.07388579 0.02023400 0.67843137 0.35686275 0.43529412
v 0.00055161 -0.07082478 0.02023400 0.67843137 0.35686275 0.43529412
v 0.00133795 -0.07021362 0.01899262 0.67843137 0.35686275 0.43529412
v 0.02141766 -0.05319052 0.01899262 0.67843137 0.35686275 0.43529412
v 0.02142200 -0.05318789 0.02860797 0.67843137 0.35686275 0.43529412
v 0.02142200 -0.07388579 0.02861100 0.67843137 0.35686275 0.43529412
v 0.00055161 -0.07082478 0.02527538 0.67843137 0.35686275 0.43529412
v 0.01563095 -0.07388579 0.04286708 0.67843137 0.35686275 0.43529412
v 0.00055161 -0.06133748 0.02023400 0.67843137 0.35686275 0.43529412
v -0.00076908 -0.04708948 0.02860797 0.67843137 0.35686275 0.43529412
v 0.00133795 -0.06044567 0.01899262 0.67843137 0.35686275 0.43529412
v 0.00309525 -0.05319052 0.01899262 0.67843137 0.35686275 0.43529412
v 0.00848445 -0.05159313 0.02023400 0.67843137 0.35686275 0.43529412
v 0.02141766 -0.05159575 0.02023400 0.67843137 0.35686275 0.43529412
v 0.02142200 -0.04708948 0.02860797 0.67843137 0.35686275 0.43529412
v 0.02142200 -0.07388579 0.03725510 0.67843137 0.35686275 0.43529412
v 0.01563312 -0.07388579 0.04999968 0.67843137 0.35686275 0.43529412
v 0.00056248 -0.07080904 0.04286708 0.67843137 0.35686275 0.43529412
v 0.00055161 -0.07081953 0.03012554 0.67843137 0.35686275 0.43529412
v -0.00076908 -0.04708948 0.03012554 0.67843137 0.35686275 0.43529412
v 0.00268253 -0.05159313 0.02023400 0.67843137 0.35686275 0.43529412
v 0.02142200 -0.04708948 0.03012554 0.67843137 0.35686275 0.43529412
v 0.02142200 -0.05638005 0.04999968 0.67843137 0.35686275 0.43529412
v 0.02141766 -0.07388579 0.04999968 0.67843137 0.35686275 0.43529412
v 0.00080359 -0.07062805 0.04999968 0.67843137 0.35686275 0.43529412
v -0.00038243 -0.04733079 0.04286708 0.67843137 0.35686275 0.43529412
v 0.02141766 -0.04733079 0.04286708 0.67843137 0.35686275 0.43529412
v 0.02142200 -0.04799965 0.04438769 0.67843137 0.35686275 0.43529412
v 0.02142200 -0.04873408 0.04999968 0.67843137 0.35686275 0.43529412
v 0.00080359 -0.06110403 0.04999968 0.67843137 0.35686275 0.43529412
v 0.00105991 -0.04873408 0.04999968 0.67843137 0.35686275 0.43529412
f 331 332 338
f 331 338 348
f 331 348 356
f 331 356 349
f 331 349 340
f 331 340 333
f 331 333 339
f 331 339 334
f 331 334 335
f 331 335 343
f 331 343 344
f 331 344 336
f 331 336 332
f 332 336 347
f 332 347 337
f 332 337 338
f 333 340 339
f 334 341 343
f 334 343 335
f 334 339 352
f 334 352 342
f 334 342 341
f 336 344 353
f 336 353 345
f 336 345 346
f 336 346 347
f 337 347 354
f 337 354 360
f 337 360 361
f 337 361 355
f 337 355 348
f 337 348 338
f 339 340 349
f 339 349 350
f 339 350 351
f 339 351 352
f 341 342 343
f 342 353 343
f 342 352 354
f 342 354 347
f 342 347 345
f 342 345 353
f 343 353 344
f 345 347 346
f 348 355 356
f 349 356 355
f 349 355 361
f 349 361 363
f 349 363 362
f 349 362 357
f 349 357 350
f 350 357 358
f 350 358 352
f 350 352 351
f 352 358 359
f 352 359 354
f 354 359 360
f 357 362 358
f 358 362 363
f 358 363 361
f 358 361 359
f 359 361 360

o geometry_14
v -0.01391548 -0.04945769 0.04667205 0.69411765 0.05882353 0.66666667
v -0.01427966 -0.05944815 0.04667205 0.69411765 0.05882353 0.66666667
v -0.01391548 -0.04945769 0.04438934 0.69411765 0.05882353 0.66666667
v -0.03370534 -0.04945769 0.04667205 0.69411765 0.05882353 0.66666667
v -0.01427966 -0.05944815 0.04438934 0.69411765 0.05882353 0.66666667
v -0.03370534 -0.05944815 0.04667205 0.69411765 0.05882353 0.66666667
v -0.03370534 -0.04945769 0.04438934 0.69411765 0.05882353 0.66666667
v -0.03367822 -0.05944815 0.04438934 0.69411765 0.05882353 0.66666667
v -0.03370534 -0.05944815 0.04439135 0.69411765 0.05882353 0.66666667
v -0.03370534 -0.05941099 0.04438934 0.69411765 0.05882353 0.66666667
f 364 365 368
f 364 368 366
f 364 366 370
f 364 370 367
f 364 367 369
f 364 369 365
f 365 369 372
f 365 372 371
f 365 371 368
f 366 368 371
f 366 371 373
f 366 373 370
f 367 370 373
f 367 373 372
f 367 372 369
f 371 372 373

o geometry_15
v -0.01887436 -0.09201596 0.01362528 0.67058824 0.20784314 0.12549020
v -0.01887436 -0.09201596 0.01610322 0.67058824 0.20784314 0.12549020
v -0.01887436 -0.08704819 0.01362528 0.67058824 0.20784314 0.12549020
v 0.00751791 -0.09201596 0.01362528 0.67058824 0.20784314 0.12549020
v -0.01110600 -0.09201901 0.01362552 0.67058824 0.20784314 0.12549020
v -0.01110600 -0.09201901 0.01486522 0.67058824 0.20784314 0.12549020
v 0.00751791 -0.09201596 0.01610322 0.67058824 0.20784314 0.12549020
v -0.01887436 -0.08704514 0.01610322 0.67058824 0.20784314 0.12549020
v -0.01887436 -0.08704514 0.01486498 0.67058824 0.20784314 0.12549020
v -0.01161494 -0.06240477 0.01362552 0.67058824 0.20784314 0.12549020
v -0.01110600 -0.08220866 0.01362528 0.67058824 0.20784314 0.12549020
v -0.00614583 -0.09201901 0.01362552 0.67058824 0.20784314 0.12549020
v 0.00751791 -0.08704819 0.01362528 0.67058824 0.20784314 0.12549020
v -0.00614583 -0.09201901 0.01486522 0.67058824 0.20784314 0.12549020
v 0.00751791 -0.08704819 0.01610322 0.67058824 0.20784314 0.12549020
v -0.01129201 -0.08247736 0.01610322 0.67058824 0.20784314 0.12549020
v -0.00614324 -0.06417265 0.01610298 0.67058824 0.20784314 0.12549020
v -0.01161494 -0.06240477 0.01486522 0.67058824 0.20784314 0.12549020
v 0.00105935 -0.06082620 0.01486522 0.67058824 0.20784314 0.12549020
v -0.00038479 -0.06223073 0.01362552 0.67058824 0.20784314 0.12549020
v -0.00614583 -0.08135984 0.01362528 0.67058824 0.20784314 0.12549020
v -0.00161192 -0.08135984 0.01362528 0.67058824 0.20784314 0.12549020
v 0.00105935 -0.06082620 0.01610298 0.67058824 0.20784314 0.12549020
v -0.00218544 -0.07950647 0.01610322 0.67058824 0.20784314 0.12549020
v -0.00614066 -0.07950647 0.01610322 0.67058824 0.20784314 0.12549020
f 374 375 381
f 374 381 382
f 374 382 376
f 374 376 384
f 374 384 394
f 374 394 395
f 374 395 386
f 374 386 377
f 374 377 385
f 374 385 378
f 374 378 379
f 374 379 375
f 375 379 387
f 375 387 380
f 375 380 388
f 375 388 397
f 375 397 398
f 375 398 389
f 375 389 381
f 376 382 383
f 376 383 384
f 377 380 387
f 377 387 385
f 377 386 388
f 377 388 380
f 378 385 387
f 378 387 379
f 381 389 390
f 381 390 391
f 381 391 383
f 381 383 382
f 383 391 396
f 383 396 392
f 383 392 393
f 383 393 394
f 383 394 384
f 386 395 393
f 386 393 392
f 386 392 396
f 386 396 388
f 388 396 397
f 389 398 390
f 390 398 396
f 390 396 391
f 393 395 394
f 396 398 397

o geometry_16
v -0.03370534 -0.09201723 0.01073762 0.31372549 0.36078431 0.56862745
v -0.03370534 -0.08447498 0.00231001 0.31372549 0.36078431 0.56862745
v -0.03370367 -0.08301852 -0.00000000 0.31372549 0.36078431 0.56862745
v -0.02584186 -0.09201723 0.01073762 0.31372549 0.36078431 0.56862745
v -0.03370534 -0.09201723 0.04999795 0.31372549 0.36078431 0.56862745
v -0.03370534 -0.07382930 0.00231001 0.31372549 0.36078431 0.56862745
v -0.02708109 -0.08301852 -0.00000000 0.31372549 0.36078431 0.56862745
v -0.03370367 -0.07382930 -0.00000000 0.31372549 0.36078431 0.56862745
v -0.01699336 -0.09201723 0.01146194 0.31372549 0.36078431 0.56862745
v -0.01887979 -0.09201723 0.04999795 0.31372549 0.36078431 0.56862745
v -0.03370534 -0.07383286 0.04999795 0.31372549 0.36078431 0.56862745
v -0.03370534 -0.07382930 0.03725376 0.31372549 0.36078431 0.56862745
v -0.02795072 -0.07382930 -0.00000000 0.31372549 0.36078431 0.56862745
v -0.01699336 -0.08676116 0.01146194 0.31372549 0.36078431 0.56862745
v -0.01662043 -0.09201723 0.01290570 0.31372549 0.36078431 0.56862745
v -0.01887979 -0.08704782 0.04999795 0.31372549 0.36078431 0.56862745
v -0.01662043 -0.09201723 0.01362513 0.31372549 0.36078431 0.56862745
v -0.03370367 -0.07382930 0.04666508 0.31372549 0.36078431 0.56862745
v -0.02794905 -0.07383286 0.04999795 0.31372549 0.36078431 0.56862745
v -0.01662043 -0.08662406 0.01290570 0.31372549 0.36078431 0.56862745
v -0.02794905 -0.07382930 0.02147524 0.31372549 0.36078431 0.56862745
v -0.01662043 -0.08662406 0.01362513 0.31372549 0.36078431 0.56862745
v -0.02794905 -0.07382930 0.04666508 0.31372549 0.36078431 0.56862745
f 399 400 401
f 399 401 405
f 399 405 402
f 399 402 407
f 399 407 413
f 399 413 415
f 399 415 408
f 399 408 403
f 399 403 409
f 399 409 410
f 399 410 404
f 399 404 400
f 400 404 406
f 400 406 401
f 401 406 411
f 401 411 405
f 402 405 407
f 403 408 414
f 403 414 417
f 403 417 409
f 404 410 416
f 404 416 421
f 404 421 419
f 404 419 411
f 404 411 406
f 405 411 412
f 405 412 407
f 407 412 418
f 407 418 413
f 408 415 420
f 408 420 414
f 409 416 410
f 409 417 421
f 409 421 416
f 411 418 412
f 411 419 418
f 413 418 420
f 413 420 415
f 414 420 417
f 417 420 421
f 418 419 421
f 418 421 420

o geometry_17
v -0.02584275 -0.08446727 0.01145915 0.43529412 0.98823529 0.10196078
v -0.02584275 -0.08446727 0.01073575 0.43529412 0.98823529 0.10196078
v -0.02584275 -0.09201901 0.01145915 0.43529412 0.98823529 0.10196078
v 0.01015205 -0.08648900 0.01145915 0.43529412 0.98823529 0.10196078
v -0.02584275 -0.09201901 0.01073575 0.43529412 0.98823529 0.10196078
v 0.01015205 -0.08648900 0.01073575 0.43529412 0.98823529 0.10196078
v -0.01790811 -0.09201901 0.01145915 0.43529412 0.98823529 0.10196078
v 0.01015205 -0.09201827 0.01145915 0.43529412 0.98823529 0.10196078
v -0.01790811 -0.09201901 0.01073575 0.43529412 0.98823529 0.10196078
v 0.01015205 -0.09201827 0.01073575 0.43529412 0.98823529 0.10196078
f 422 423 426
f 422 426 424
f 422 424 428
f 422 428 429
f 422 429 425
f 422 425 427
f 422 427 423
f 423 427 431
f 423 431 430
f 423 430 426
f 424 426 430
f 424 430 428
f 425 429 431
f 425 431 427
f 428 430 431
f 428 431 429

o geometry_18
v -0.03370534 -0.07386310 0.01074037 0.20784314 0.16078431 0.65098039
v -0.02795965 -0.07386310 0.01074037 0.20784314 0.16078431 0.65098039
v -0.03370534 -0.07386310 0.01362769 0.20784314 0.16078431 0.65098039
v -0.03370534 -0.07382380 0.00793819 0.20784314 0.16078431 0.65098039
v -0.03369994 -0.07382380 -0.00000000 0.20784314 0.16078431 0.65098039
v -0.01079274 -0.07382708 -0.00000000 0.20784314 0.16078431 0.65098039
v -0.02795965 -0.07386310 0.01362769 0.20784314 0.16078431 0.65098039
v -0.00614763 -0.07382708 -0.00000000 0.20784314 0.16078431 0.65098039
v -0.03369725 -0.07385655 0.01899594 0.20784314 0.16078431 0.65098039
v -0.03370534 -0.07382053 0.03954003 0.20784314 0.16078431 0.65098039
v -0.03370534 -0.05847659 0.00793819 0.20784314 0.16078431 0.65098039
v -0.03369994 -0.05277133 -0.00000000 0.20784314 0.16078431 0.65098039
v -0.02795965 -0.07385655 0.01899594 0.20784314 0.16078431 0.65098039
v -0.00614763 -0.07382708 0.00460965 0.20784314 0.16078431 0.65098039
v -0.00614763 -0.06415892 -0.00000000 0.20784314 0.16078431 0.65098039
v -0.02794077 -0.07382053 0.03954003 0.20784314 0.16078431 0.65098039
v -0.03370534 -0.05788379 0.03954003 0.20784314 0.16078431 0.65098039
v -0.03370534 -0.04040447 0.01074037 0.20784314 0.16078431 0.65098039
v -0.01534343 -0.05277133 -0.00000000 0.20784314 0.16078431 0.65098039
v -0.00614763 -0.06415892 0.00460965 0.20784314 0.16078431 0.65098039
v -0.01300199 -0.07074519 0.02299406 0.20784314 0.16078431 0.65098039
v -0.01421587 -0.04040447 0.01074037 0.20784314 0.16078431 0.65098039
v -0.02187408 -0.06860653 0.03954003 0.20784314 0.16078431 0.65098039
v -0.03370534 -0.04040447 0.01146026 0.20784314 0.16078431 0.65098039
v -0.02187408 -0.05788379 0.03954003 0.20784314 0.16078431 0.65098039
v -0.01421587 -0.04040447 0.01146026 0.20784314 0.16078431 0.65098039
v -0.01267020 -0.04798637 0.02147299 0.20784314 0.16078431 0.65098039
v -0.01300199 -0.06118839 0.02299406 0.20784314 0.16078431 0.65098039
f 432 433 438
f 432 438 434
f 432 434 441
f 432 441 448
f 432 448 455
f 432 455 449
f 432 449 442
f 432 442 435
f 432 435 436
f 432 436 437
f 432 437 439
f 432 439 433
f 433 439 445
f 433 445 438
f 434 438 444
f 434 444 440
f 434 440 441
f 435 442 443
f 435 443 436
f 436 443 450
f 436 450 446
f 436 446 439
f 436 439 437
f 438 445 444
f 439 446 451
f 439 451 445
f 440 444 447
f 440 447 441
f 441 447 454
f 441 454 456
f 441 456 448
f 442 449 443
f 443 449 453
f 443 453 450
f 444 445 447
f 445 451 459
f 445 459 452
f 445 452 447
f 446 450 453
f 446 453 457
f 446 457 451
f 447 452 454
f 448 456 457
f 448 457 455
f 449 455 457
f 449 457 453
f 451 457 458
f 451 458 459
f 452 459 456
f 452 456 454
f 456 459 458
f 456 458 457

o geometry_19
v -0.00616885 -0.04540241 0.01145953 0.25098039 0.46274510 0.24313725
v -0.00616885 -0.04540241 0.01218086 0.25098039 0.46274510 0.24313725
v -0.00616885 -0.04040775 0.01145953 0.25098039 0.46274510 0.24313725
v -0.00613915 -0.04539586 -0.00000000 0.25098039 0.46274510 0.24313725
v -0.00613915 -0.07386285 0.01754624 0.25098039 0.46274510 0.24313725
v -0.00613644 -0.04539586 0.01899262 0.25098039 0.46274510 0.24313725
v -0.00616885 -0.04040775 0.01218086 0.25098039 0.46274510 0.24313725
v -0.00613915 -0.07386285 0.01826943 0.25098039 0.46274510 0.24313725
v -0.00614185 -0.04040447 0.01073448 0.25098039 0.46274510 0.24313725
v -0.00613915 -0.04040447 -0.00000000 0.25098039 0.46274510 0.24313725
v -0.00037845 -0.07190628 -0.00000000 0.25098039 0.46274510 0.24313725
v -0.00568542 -0.07386285 0.01073448 0.25098039 0.46274510 0.24313725
v 0.01562619 -0.07388579 -0.00000000 0.25098039 0.46274510 0.24313725
v 0.01562349 -0.07388579 0.01362724 0.25098039 0.46274510 0.24313725
v -0.00566381 -0.07386285 0.01899076 0.25098039 0.46274510 0.24313725
v 0.00193069 -0.04998086 0.01899262 0.25098039 0.46274510 0.24313725
v -0.00613644 -0.04040775 0.01899262 0.25098039 0.46274510 0.24313725
v -0.00613644 -0.04040447 0.01826943 0.25098039 0.46274510 0.24313725
v -0.00614185 -0.04040447 0.01145767 0.25098039 0.46274510 0.24313725
v 0.01562349 -0.07388579 0.01609985 0.25098039 0.46274510 0.24313725
v 0.02141930 -0.04040447 -0.00000000 0.25098039 0.46274510 0.24313725
v 0.02141930 -0.07388579 -0.00000000 0.25098039 0.46274510 0.24313725
v -0.00156678 -0.07386285 0.01899076 0.25098039 0.46274510 0.24313725
v 0.00193069 -0.04040775 0.01899262 0.25098039 0.46274510 0.24313725
v 0.00596831 -0.06831103 0.01899076 0.25098039 0.46274510 0.24313725
v 0.02141660 -0.07385957 0.01898890 0.25098039 0.46274510 0.24313725
v 0.00193880 -0.04040447 0.01898890 0.25098039 0.46274510 0.24313725
v 0.02141120 -0.07388579 0.01609985 0.25098039 0.46274510 0.24313725
v 0.02141930 -0.04040447 0.01826943 0.25098039 0.46274510 0.24313725
v 0.02142200 -0.04040775 0.01145953 0.25098039 0.46274510 0.24313725
v 0.02141930 -0.07388579 0.01073262 0.25098039 0.46274510 0.24313725
v 0.02142200 -0.05008246 0.01145953 0.25098039 0.46274510 0.24313725
v 0.02142200 -0.05196693 0.01218086 0.25098039 0.46274510 0.24313725
v 0.02142200 -0.05197348 0.01610171 0.25098039 0.46274510 0.24313725
v 0.02141660 -0.04040447 0.01898890 0.25098039 0.46274510 0.24313725
v 0.02141660 -0.07388579 0.01486355 0.25098039 0.46274510 0.24313725
v 0.02141930 -0.07386285 0.01362539 0.25098039 0.46274510 0.24313725
v 0.02142200 -0.05197348 0.01682491 0.25098039 0.46274510 0.24313725
v 0.02141930 -0.05010540 0.01826943 0.25098039 0.46274510 0.24313725
v 0.02142200 -0.04717873 0.01682491 0.25098039 0.46274510 0.24313725
v 0.02142200 -0.04040775 0.01218086 0.25098039 0.46274510 0.24313725
f 460 461 466
f 460 466 462
f 460 462 469
f 460 469 463
f 460 463 464
f 460 464 467
f 460 467 461
f 461 465 476
f 461 476 466
f 461 467 465
f 462 466 478
f 462 478 468
f 462 468 469
f 463 469 480
f 463 480 481
f 463 481 472
f 463 472 470
f 463 470 471
f 463 471 464
f 464 471 472
f 464 472 473
f 464 473 479
f 464 479 467
f 465 467 474
f 465 474 475
f 465 475 483
f 465 483 476
f 466 476 477
f 466 477 478
f 467 479 474
f 468 478 477
f 468 477 486
f 468 486 494
f 468 494 488
f 468 488 480
f 468 480 469
f 470 472 471
f 472 481 490
f 472 490 495
f 472 495 487
f 472 487 479
f 472 479 473
f 474 479 487
f 474 487 482
f 474 482 475
f 475 482 484
f 475 484 485
f 475 485 494
f 475 494 483
f 476 483 494
f 476 494 486
f 476 486 477
f 480 488 500
f 480 500 489
f 480 489 491
f 480 491 481
f 481 491 492
f 481 492 493
f 481 493 497
f 481 497 490
f 482 487 485
f 482 485 484
f 485 487 495
f 485 495 490
f 485 490 496
f 485 496 497
f 485 497 498
f 485 498 488
f 485 488 494
f 488 498 497
f 488 497 499
f 488 499 500
f 489 500 499
f 489 499 497
f 489 497 493
f 489 493 492
f 489 492 491
f 490 497 496