# https://github.com/mikedh/trimesh
v -0.01800332 -0.01488690 -0.01215562
v -0.01800332 -0.01503926 -0.01193802
v -0.01800332 -0.01473276 -0.01230976
v -0.01800332 -0.01469906 -0.01234346
v -0.01800332 -0.01468370 -0.01235421
v -0.01800332 -0.01446446 -0.01250377
v -0.01800332 -0.01459859 -0.01241382
v -0.01800332 -0.01455121 -0.01244699
v -0.01800332 -0.01452048 -0.01246849
v -0.01800332 -0.01448144 -0.01249584
v -0.01800332 -0.01515154 -0.01169726
v -0.01800332 -0.01515638 -0.01167915
v -0.01800332 -0.01516386 -0.01165121
v -0.01800332 -0.01520796 -0.01148669
v -0.01800332 -0.01522030 -0.01144066
v -0.01800332 -0.01522193 -0.01142198
v -0.01800332 -0.01522444 -0.01139318
v -0.01800332 -0.01522772 -0.01135582
v -0.01800332 -0.01523098 -0.01131847
v -0.01800332 -0.01523602 -0.01126086
v -0.01800332 -0.01523930 -0.01122350
v -0.01800332 -0.01524181 -0.01119470
v -0.01800332 -0.01524344 -0.01117602
v -0.01800332 -0.01440427 -0.01253183
v -0.01800332 -0.01428389 -0.01258797
v -0.01800332 -0.01424068 -0.01260810
v -0.01800332 -0.01406635 -0.01265483
v -0.01800332 -0.01398410 -0.01267686
v -0.01800332 -0.01400220 -0.01267201
v -0.01800332 -0.01393662 -0.01268102
v -0.01800332 -0.01380428 -0.01269258
v -0.01800332 -0.01373812 -0.01269838
v -0.01800332 -0.01371944 -0.01270001
v -0.01254218 -0.01505330 -0.01190792
v -0.01254218 -0.01490594 -0.01212842
v -0.01254218 -0.01488690 -0.01215562
v -0.01254218 -0.01486342 -0.01217910
v -0.01254218 -0.01498214 -0.01201962
v -0.01254218 -0.01502022 -0.01196522
v -0.01254218 -0.01503926 -0.01193802
v -0.01254218 -0.01494404 -0.01207402
v -0.01254218 -0.01469906 -0.01234346
v -0.01254218 -0.01472254 -0.01231998
v -0.01254218 -0.01467186 -0.01236250
v -0.01254218 -0.01445136 -0.01250988
v -0.01254218 -0.01456306 -0.01243870
v -0.01254218 -0.01461746 -0.01240060
v -0.01254218 -0.01450864 -0.01247678
v -0.01254218 -0.01448144 -0.01249584
v -0.01254218 -0.01481646 -0.01222606
v -0.01254218 -0.01476950 -0.01227302
v -0.01254218 -0.01508136 -0.01184772
v -0.01254218 -0.01510944 -0.01178754
v -0.01254218 -0.01513750 -0.01172734
v -0.01254218 -0.01515154 -0.01169726
v -0.01254218 -0.01516012 -0.01166518
v -0.01254218 -0.01519450 -0.01153688
v -0.01254218 -0.01517732 -0.01160102
v -0.01254218 -0.01521170 -0.01147272
v -0.01254218 -0.01522030 -0.01144066
v -0.01254218 -0.01522318 -0.01140758
v -0.01254218 -0.01522898 -0.01134142
v -0.01254218 -0.01523476 -0.01127526
v -0.01254218 -0.01524056 -0.01120910
v -0.01254218 -0.01524344 -0.01117602
v -0.01254218 -0.01439116 -0.01253794
v -0.01254218 -0.01433098 -0.01256600
v -0.01254218 -0.01427078 -0.01259408
v -0.01254218 -0.01424068 -0.01260810
v -0.01254218 -0.01420862 -0.01261670
v -0.01254218 -0.01414446 -0.01263388
v -0.01254218 -0.01408032 -0.01265108
v -0.01254218 -0.01401616 -0.01266826
v -0.01254218 -0.01398410 -0.01267686
v -0.01254218 -0.01395102 -0.01267976
v -0.01254218 -0.01388484 -0.01268554
v -0.01254218 -0.01381868 -0.01269132
v -0.01254218 -0.01375252 -0.01269712
v -0.01254218 -0.01371944 -0.01270000
v -0.00963746 -0.01524344 -0.01033424
v -0.01155146 -0.01524344 -0.00907158
v -0.01161890 -0.01524344 -0.00780892
v -0.01136154 -0.01522156 -0.00755156
v -0.01111158 -0.01515652 -0.00730160
v -0.01087618 -0.01505020 -0.00706620
v -0.01066212 -0.01490568 -0.00685214
v -0.01047554 -0.01472706 -0.00666556
v -0.01039426 -0.01462654 -0.00658428
v -0.01032180 -0.01451950 -0.00651182
v -0.01025868 -0.01440672 -0.00644868
v -0.01020532 -0.01428898 -0.00639534
v -0.01016216 -0.01416714 -0.00635216
v -0.01243058 -0.01092544 -0.01270000
v -0.01012946 -0.01404210 -0.00631946
v -0.01010748 -0.01391472 -0.00629748
v -0.01009636 -0.01378592 -0.00628638
v -0.01161892 -0.01524344 -0.00000002
v -0.01220740 -0.00533744 -0.01270000
v -0.00960840 -0.00260992 -0.00579842
v -0.00382800 -0.01524344 -0.00865070
v -0.00012868 -0.01523250 -0.00768024
v -0.00012498 -0.01518904 -0.00742658
v -0.00011770 -0.01510336 -0.00718390
v -0.00010702 -0.01497794 -0.00695916
v -0.00009328 -0.01481638 -0.00675884
v -0.00003156 -0.01446312 -0.00648024
v -0.00048796 -0.00260992 -0.00579842
v -0.01149022 -0.01523250 0.00012868
v -0.01012946 -0.01404210 0.00631944
v -0.01010748 -0.01391472 0.00629746
v -0.01009636 -0.01378592 0.00628636
v -0.01800332 -0.01524344 0.01117599
v -0.01800332 -0.01524181 0.01119467
v -0.01800332 -0.01523930 0.01122348
v -0.01800332 -0.01523602 0.01126082
v -0.01800332 -0.01523276 0.01129817
v -0.01800332 -0.01522772 0.01135578
v -0.01800332 -0.01522444 0.01139314
v -0.01800332 -0.01522193 0.01142194
v -0.01800332 -0.01522030 0.01144062
v -0.01800332 -0.01515154 0.01169722
v -0.01800332 -0.01513139 0.01174043
v -0.01800332 -0.01509111 0.01182683
v -0.01800332 -0.01507526 0.01186081
v -0.01800332 -0.01505941 0.01189479
v -0.01800332 -0.01503926 0.01193799
v -0.01800332 -0.01501193 0.01197704
v -0.01800332 -0.01493575 0.01208584
v -0.01800332 -0.01488690 0.01215560
v -0.01800332 -0.01469906 0.01234344
v -0.01800332 -0.01468370 0.01235419
v -0.01800332 -0.01466002 0.01237077
v -0.01800332 -0.01462930 0.01239228
v -0.01800332 -0.01455121 0.01244697
v -0.01800332 -0.01452048 0.01246847
v -0.01800332 -0.01449680 0.01248505
v -0.01800332 -0.01448144 0.01249580
v -0.01800332 -0.01443825 0.01251595
v -0.01800332 -0.01431787 0.01257209
v -0.01800332 -0.01425767 0.01260015
v -0.01800332 -0.01424068 0.01260808
v -0.01800332 -0.01422258 0.01261294
v -0.01800332 -0.01415843 0.01263012
v -0.01800332 -0.01412222 0.01263983
v -0.01800332 -0.01406635 0.01265480
v -0.01800332 -0.01403013 0.01266450
v -0.01800332 -0.01398410 0.01267684
v -0.01800332 -0.01396542 0.01267848
v -0.01800332 -0.01389925 0.01268426
v -0.01800332 -0.01380428 0.01269256
v -0.01800332 -0.01373812 0.01269835
v -0.01800332 -0.01371944 0.01269998
v -0.01161892 -0.01524344 0.00780890
v -0.01136156 -0.01522156 0.00755154
v -0.01087620 -0.01505020 0.00706618
v -0.01066212 -0.01490568 0.00685212
v -0.01047554 -0.01472706 0.00666554
v -0.01032180 -0.01451950 0.00651180
v -0.01039428 -0.01462654 0.00658426
v -0.01111158 -0.01515652 0.00730158
v -0.01025868 -0.01440672 0.00644866
v -0.01020534 -0.01428898 0.00639532
v -0.01016216 -0.01416714 0.00635214
v -0.01254218 -0.01524344 0.01117600
v -0.01254218 -0.01524056 0.01120908
v -0.01254218 -0.01523476 0.01127522
v -0.01254218 -0.01522898 0.01134138
v -0.01254218 -0.01522318 0.01140754
v -0.01254218 -0.01522030 0.01144062
v -0.01254218 -0.01521170 0.01147270
v -0.01254218 -0.01519450 0.01153686
v -0.01254218 -0.01517732 0.01160100
v -0.01254218 -0.01516012 0.01166516
v -0.01254218 -0.01515154 0.01169722
v -0.01254218 -0.01513750 0.01172732
v -0.01254218 -0.01510944 0.01178752
v -0.01254218 -0.01508136 0.01184770
v -0.01254218 -0.01505330 0.01190790
v -0.01254218 -0.01503926 0.01193800
v -0.01254218 -0.01502022 0.01196520
v -0.01254218 -0.01498214 0.01201960
v -0.01254218 -0.01494404 0.01207400
v -0.01254218 -0.01490594 0.01212840
v -0.01254218 -0.01488690 0.01215560
v -0.01254218 -0.01486342 0.01217908
v -0.01254218 -0.01481646 0.01222604
v -0.01254218 -0.01476950 0.01227300
v -0.01254218 -0.01472254 0.01231996
v -0.01254218 -0.01469906 0.01234344
v -0.01254218 -0.01467186 0.01236248
v -0.01254218 -0.01461746 0.01240058
v -0.01254218 -0.01456306 0.01243868
v -0.01254218 -0.01450864 0.01247676
v -0.01254218 -0.01448144 0.01249580
v -0.01254218 -0.01445136 0.01250984
v -0.01254218 -0.01439116 0.01253792
v -0.01254218 -0.01433098 0.01256598
v -0.01254218 -0.01427078 0.01259404
v -0.01254218 -0.01424068 0.01260808
v -0.01254218 -0.01420862 0.01261668
v -0.01254218 -0.01414446 0.01263386
v -0.01254218 -0.01408032 0.01265106
v -0.01254218 -0.01401616 0.01266824
v -0.01254218 -0.01398410 0.01267684
v -0.01254218 -0.01395102 0.01267974
v -0.01254218 -0.01388484 0.01268552
v -0.01254218 -0.01381868 0.01269130
v -0.01254218 -0.01375252 0.01269710
v -0.01254218 -0.01371944 0.01269998
v -0.01265378 -0.01092544 0.01269998
v -0.00960840 -0.00260992 0.00048794
v -0.00960840 -0.00260992 0.00579840
v -0.01287696 -0.00533744 0.01269998
v -0.00001636 -0.01410462 0.00633580
v -0.00000556 -0.01385032 0.00629190
v -0.00389546 -0.01524344 0.00822980
v -0.00004064 -0.01467680 0.00662490
v -0.00003622 -0.01457302 0.00654804
v -0.00003156 -0.01446312 0.00648024
v -0.00002668 -0.01434784 0.00642200
v -0.00480420 -0.00819792 0.00604238
v -0.01198422 0.00025054 -0.01270000
v -0.01800332 0.00863254 -0.01270001
v -0.01800332 0.00865036 -0.01269846
v -0.01800332 0.00871652 -0.01269266
v -0.01800332 0.00884886 -0.01268110
v -0.01800332 0.00889720 -0.01267686
v -0.01800332 0.00897862 -0.01265505
v -0.01800332 0.00903782 -0.01263918
v -0.01800332 0.00915378 -0.01260810
v -0.01800332 0.00919777 -0.01258760
v -0.01800332 0.00931815 -0.01253146
v -0.01800332 0.00937835 -0.01250340
v -0.01800332 0.00939456 -0.01249584
v -0.01800332 0.00940921 -0.01248557
v -0.01800332 0.00943431 -0.01246799
v -0.01800332 0.00954311 -0.01239181
v -0.01800332 0.00959751 -0.01235371
v -0.01800332 0.00961216 -0.01234346
v -0.01800332 0.00964647 -0.01230915
v -0.01800332 0.00980000 -0.01215562
v -0.01800332 0.00995236 -0.01193802
v -0.01800332 0.01002902 -0.01177365
v -0.01800332 0.01006464 -0.01169726
v -0.01800332 0.01006927 -0.01167998
v -0.01800332 0.01007721 -0.01165038
v -0.01800332 0.01008646 -0.01161582
v -0.01800332 0.01010233 -0.01155662
v -0.01800332 0.01011159 -0.01152208
v -0.01800332 0.01012877 -0.01145793
v -0.01800332 0.01013340 -0.01144066
v -0.01800332 0.01015654 -0.01117602
v -0.01220740 0.00583854 -0.01270000
v -0.01231900 0.00863254 -0.01270000
v -0.01231900 0.00866562 -0.01269712
v -0.01231900 0.00873178 -0.01269132
v -0.01231900 0.00879796 -0.01268554
v -0.01231900 0.00886412 -0.01267976
v -0.01231900 0.00889720 -0.01267686
v -0.01231900 0.00892926 -0.01266826
v -0.01231900 0.00899342 -0.01265108
v -0.01231900 0.00905756 -0.01263388
v -0.01231900 0.00912172 -0.01261670
v -0.01231900 0.00915378 -0.01260810
v -0.01231900 0.00918388 -0.01259408
v -0.01231900 0.00924408 -0.01256600
v -0.01231900 0.00930426 -0.01253794
v -0.01231900 0.00936446 -0.01250988
v -0.01231900 0.00939456 -0.01249584
v -0.01231900 0.00942176 -0.01247678
v -0.01231900 0.00947616 -0.01243870
v -0.01231900 0.00953056 -0.01240060
v -0.01231900 0.00958496 -0.01236250
v -0.01231900 0.00961216 -0.01234346
v -0.01231900 0.00963564 -0.01231998
v -0.01231900 0.00968260 -0.01227302
v -0.01231900 0.00972956 -0.01222606
v -0.01231900 0.00977652 -0.01217910
v -0.01231900 0.00980000 -0.01215562
v -0.01231900 0.00981906 -0.01212842
v -0.01231900 0.00985714 -0.01207402
v -0.01231900 0.00989524 -0.01201962
v -0.01231900 0.00993332 -0.01196522
v -0.01231900 0.00995236 -0.01193802
v -0.01231900 0.00996640 -0.01190792
v -0.01231900 0.00999448 -0.01184772
v -0.01231900 0.01002254 -0.01178754
v -0.01231900 0.01005060 -0.01172734
v -0.01231900 0.01006464 -0.01169726
v -0.01231900 0.01007324 -0.01166518
v -0.01231900 0.01009042 -0.01160102
v -0.01231900 0.01010762 -0.01153688
v -0.01231900 0.01012480 -0.01147272
v -0.01231900 0.01013340 -0.01144066
v -0.01231900 0.01013630 -0.01140758
v -0.01231900 0.01014208 -0.01134142
v -0.01231900 0.01014786 -0.01127526
v -0.01231900 0.01015366 -0.01120910
v -0.01231900 0.01015654 -0.01117602
v -0.01064300 0.01015654 -0.00683302
v -0.01039804 0.01013674 -0.00658804
v -0.00912046 0.00856608 -0.00531046
v -0.01015942 0.01007780 -0.00634944
v -0.00912004 0.00868906 -0.00531006
v -0.00914894 0.00893312 -0.00533894
v -0.00912956 0.00881168 -0.00531958
v -0.00917804 0.00905262 -0.00536806
v -0.00921668 0.00916938 -0.00540670
v -0.00926460 0.00928264 -0.00545462
v -0.00993340 0.00998126 -0.00612342
v -0.00972584 0.00984968 -0.00591584
v -0.00938702 0.00949574 -0.00557704
v -0.00954212 0.00968642 -0.00573214
v -0.00932152 0.00939166 -0.00551152
v -0.00000968 0.00887240 -0.00532926
v -0.00001932 0.00911100 -0.00538736
v -0.00001454 0.00899288 -0.00535350
v -0.00002396 0.00922602 -0.00543066
v -0.00002844 0.00933716 -0.00548308
v -0.00003276 0.00944370 -0.00554428
v -0.01265378 0.00025054 0.01269998
v -0.00912046 0.00856608 0.00531044
v -0.01015944 0.01007780 0.00634942
v -0.00912004 0.00868906 0.00531004
v -0.00914894 0.00893312 0.00533892
v -0.00912956 0.00881168 0.00531956
v -0.00917804 0.00905262 0.00536804
v -0.00921668 0.00916938 0.00540668
v -0.00926462 0.00928264 0.00545460
v -0.00932152 0.00939166 0.00551152
v -0.00972584 0.00984968 0.00591582
v -0.00993340 0.00998126 0.00612340
v -0.00938704 0.00949574 0.00557702
v -0.00954212 0.00968642 0.00573210
v -0.01800332 0.00863254 0.01269998
v -0.01800332 0.00868088 0.01269576
v -0.01800332 0.00871652 0.01269264
v -0.01800332 0.00877758 0.01268730
v -0.01800332 0.00887938 0.01267840
v -0.01800332 0.00889720 0.01267684
v -0.01800332 0.00894406 0.01266427
v -0.01800332 0.00897862 0.01265502
v -0.01800332 0.00903782 0.01263916
v -0.01800332 0.00907236 0.01262989
v -0.01800332 0.00913651 0.01261271
v -0.01800332 0.00915378 0.01260808
v -0.01800332 0.00916999 0.01260052
v -0.01800332 0.00923019 0.01257246
v -0.01800332 0.01015654 0.01117599
v -0.01800332 0.01015499 0.01119381
v -0.01800332 0.01015232 0.01122434
v -0.01800332 0.01014920 0.01125996
v -0.01800332 0.01014609 0.01129559
v -0.01800332 0.01014074 0.01135664
v -0.01800332 0.01012877 0.01145790
v -0.01800332 0.01013496 0.01142280
v -0.01800332 0.01013340 0.01144062
v -0.01800332 0.01010233 0.01155660
v -0.01800332 0.01011159 0.01152206
v -0.01800332 0.01007721 0.01165036
v -0.01800332 0.01008646 0.01161580
v -0.01800332 0.01006927 0.01167995
v -0.01800332 0.01006464 0.01169722
v -0.01800332 0.01005708 0.01171343
v -0.01800332 0.01002902 0.01177363
v -0.01800332 0.01000311 0.01182918
v -0.01800332 0.00940921 0.01248555
v -0.01800332 0.00939456 0.01249580
v -0.01800332 0.00946361 0.01244747
v -0.01800332 0.00957241 0.01237127
v -0.01800332 0.00961216 0.01234344
v -0.01800332 0.00995236 0.01193799
v -0.01800332 0.00992453 0.01197775
v -0.01800332 0.00980000 0.01215560
v -0.01243060 0.00583854 0.01269998
v -0.01039804 0.01013674 0.00658802
v -0.01064300 0.01015654 0.00683298
v -0.01231900 0.00863254 0.01269998
v -0.01231900 0.00866562 0.01269710
v -0.01231900 0.00873178 0.01269130
v -0.01231900 0.00879796 0.01268552
v -0.01231900 0.00886412 0.01267974
v -0.01231900 0.00889720 0.01267684
v -0.01231900 0.00892926 0.01266824
v -0.01231900 0.00899342 0.01265106
v -0.01231900 0.00905756 0.01263386
v -0.01231900 0.00912172 0.01261668
v -0.01231900 0.00915378 0.01260808
v -0.01231900 0.00918388 0.01259404
v -0.01231900 0.00924408 0.01256598
v -0.01231900 0.00930426 0.01253792
v -0.01231900 0.01015654 0.01117600
v -0.01231900 0.01015366 0.01120908
v -0.01231900 0.01014786 0.01127522
v -0.01231900 0.01014208 0.01134138
v -0.01231900 0.01013630 0.01140754
v -0.01231900 0.01013340 0.01144062
v -0.01231900 0.01012480 0.01147270
v -0.01231900 0.01009042 0.01160100
v -0.01231900 0.01010762 0.01153686
v -0.01231900 0.01007324 0.01166516
v -0.01231900 0.01006464 0.01169722
v -0.01231900 0.01005060 0.01172732
v -0.01231900 0.01002254 0.01178752
v -0.01231900 0.00999448 0.01184770
v -0.01231900 0.00968260 0.01227300
v -0.01231900 0.00972956 0.01222604
v -0.01231900 0.00939456 0.01249580
v -0.01231900 0.00942176 0.01247676
v -0.01231900 0.00953056 0.01240058
v -0.01231900 0.00947616 0.01243868
v -0.01231900 0.00936446 0.01250984
v -0.01231900 0.00958496 0.01236248
v -0.01231900 0.00963564 0.01231996
v -0.01231900 0.00961216 0.01234344
v -0.01231900 0.00985714 0.01207400
v -0.01231900 0.00995236 0.01193800
v -0.01231900 0.00993332 0.01196520
v -0.01231900 0.00989524 0.01201960
v -0.01231900 0.00977652 0.01217908
v -0.01231900 0.00980000 0.01215560
v -0.01231900 0.00981906 0.01212840
v -0.01231900 0.00996640 0.01190790
v -0.00965826 0.01015654 0.01009024
v -0.00044638 -0.00254344 0.01270000
v -0.00000020 0.00862758 0.00531024
v -0.00000476 0.00875038 0.00531480
v -0.00003276 0.00944370 0.00554428
v -0.00007754 0.00959108 0.00565456
v -0.00009186 0.00976806 0.00582396
v -0.00010378 0.00991548 0.00601962
v -0.00011302 0.01002954 0.00623640
v -0.00433674 0.01015654 0.00791874
v -0.00011930 0.01010726 0.00646872
v -0.00012248 0.01014664 0.00671050
v -0.00000000 -0.01488690 -0.01215562
v -0.00000000 -0.01496308 -0.01204682
v -0.00000000 -0.01503926 -0.01193802
v -0.00000000 -0.01469906 -0.01234346
v -0.00000000 -0.01459026 -0.01241964
v -0.00000000 -0.01448144 -0.01249584
v -0.00000000 -0.01479298 -0.01224954
v -0.00000000 -0.01509540 -0.01181762
v -0.00000000 -0.01515154 -0.01169724
v -0.00000000 -0.01518592 -0.01156894
v -0.00000000 -0.01522030 -0.01144066
v -0.00000000 -0.01523186 -0.01130832
v -0.00000000 -0.01524344 -0.01117600
v -0.00000000 -0.01436106 -0.01255196
v -0.00000000 -0.01424068 -0.01260810
v -0.00000000 -0.01411238 -0.01264248
v -0.00000000 -0.01398410 -0.01267686
v -0.00000000 -0.01385176 -0.01268842
v -0.00000000 -0.01371944 -0.01270000
v -0.00000000 -0.01524344 -0.00780892
v -0.00000000 -0.01522156 -0.00755156
v -0.00000000 -0.01515652 -0.00730158
v -0.00000000 -0.01505020 -0.00706620
v -0.00000000 -0.01490568 -0.00685214
v -0.00000000 -0.01472706 -0.00666556
v 0.00004064 -0.01467680 -0.00662492
v -0.00000000 -0.01462654 -0.00658428
v 0.00003624 -0.01457302 -0.00654804
v -0.00000000 -0.01451950 -0.00651182
v -0.00000000 -0.01440672 -0.00644868
v 0.00002668 -0.01434784 -0.00642202
v -0.00000000 -0.01428898 -0.00639534
v 0.00002158 -0.01422806 -0.00637376
v -0.00000000 -0.01416714 -0.00635216
v 0.00389546 -0.01524344 -0.00822980
v 0.00001636 -0.01410462 -0.00633582
v -0.00000000 -0.01404210 -0.00631946
v 0.00001100 -0.01397840 -0.00630848
v -0.00000000 -0.01391472 -0.00629748
v 0.00000556 -0.01385032 -0.00629192
v -0.00000000 -0.01378592 -0.00628636
v 0.00480420 -0.00819792 -0.00604240
v 0.01254218 -0.01505330 -0.01190792
v 0.01254218 -0.01490594 -0.01212842
v 0.01254218 -0.01488690 -0.01215562
v 0.01254218 -0.01486342 -0.01217910
v 0.01254218 -0.01498214 -0.01201960
v 0.01254218 -0.01502022 -0.01196520
v 0.01254218 -0.01503926 -0.01193800
v 0.01254218 -0.01494404 -0.01207402
v 0.01254218 -0.01469906 -0.01234346
v 0.01254218 -0.01472254 -0.01231998
v 0.01254218 -0.01467186 -0.01236250
v 0.01254218 -0.01445136 -0.01250986
v 0.01254218 -0.01456306 -0.01243868
v 0.01254218 -0.01461746 -0.01240060
v 0.01254218 -0.01450864 -0.01247678
v 0.01254218 -0.01448144 -0.01249582
v 0.01254218 -0.01481646 -0.01222606
v 0.01254218 -0.01476950 -0.01227302
v 0.01254218 -0.01508136 -0.01184772
v 0.01254218 -0.01510944 -0.01178754
v 0.01254218 -0.01513750 -0.01172734
v 0.01254218 -0.01515154 -0.01169724
v 0.01254218 -0.01516012 -0.01166516
v 0.01254218 -0.01519450 -0.01153688
v 0.01254218 -0.01517732 -0.01160102
v 0.01254218 -0.01521170 -0.01147272
v 0.01254218 -0.01522030 -0.01144064
v 0.01254218 -0.01522318 -0.01140756
v 0.01254218 -0.01522898 -0.01134140
v 0.01254218 -0.01523476 -0.01127524
v 0.01254218 -0.01524056 -0.01120908
v 0.01254218 -0.01524344 -0.01117600
v 0.01254218 -0.01439116 -0.01253792
v 0.01254220 -0.01433098 -0.01256600
v 0.01254220 -0.01427078 -0.01259406
v 0.01254220 -0.01424068 -0.01260810
v 0.01254220 -0.01420862 -0.01261670
v 0.01254220 -0.01414446 -0.01263388
v 0.01254220 -0.01408032 -0.01265106
v 0.01254220 -0.01401616 -0.01266826
v 0.01254220 -0.01398410 -0.01267686
v 0.01254220 -0.01395102 -0.01267974
v 0.01254220 -0.01388484 -0.01268554
v 0.01254220 -0.01381868 -0.01269132
v 0.01254220 -0.01375252 -0.01269710
v 0.01254220 -0.01371944 -0.01270000
v 0.01111160 -0.01515652 -0.00730158
v 0.01066212 -0.01490568 -0.00685212
v 0.01039428 -0.01462654 -0.00658428
v 0.01032182 -0.01451950 -0.00651182
v 0.01047556 -0.01472706 -0.00666556
v 0.01087620 -0.01505020 -0.00706620
v 0.01025868 -0.01440672 -0.00644868
v 0.01020534 -0.01428898 -0.00639534
v 0.01016216 -0.01416714 -0.00635216
v 0.01136156 -0.01522156 -0.00755156
v 0.01161892 -0.01524344 -0.00780892
v 0.01265378 -0.01092544 -0.01270000
v 0.01800332 -0.01488690 -0.01215561
v 0.01800332 -0.01503926 -0.01193800
v 0.01800332 -0.01493575 -0.01208586
v 0.01800332 -0.01469906 -0.01234346
v 0.01800332 -0.01471232 -0.01233020
v 0.01800332 -0.01468370 -0.01235421
v 0.01800332 -0.01466002 -0.01237079
v 0.01800332 -0.01459859 -0.01241380
v 0.01800332 -0.01462930 -0.01239230
v 0.01800332 -0.01448144 -0.01249582
v 0.01800332 -0.01482668 -0.01221583
v 0.01800332 -0.01507526 -0.01186083
v 0.01800332 -0.01505941 -0.01189481
v 0.01800332 -0.01509111 -0.01182685
v 0.01800332 -0.01513139 -0.01174045
v 0.01800332 -0.01515154 -0.01169724
v 0.01800332 -0.01515638 -0.01167913
v 0.01800332 -0.01517357 -0.01161499
v 0.01800332 -0.01516386 -0.01165120
v 0.01800332 -0.01522030 -0.01144064
v 0.01800332 -0.01522193 -0.01142196
v 0.01800332 -0.01522444 -0.01139316
v 0.01800332 -0.01522772 -0.01135580
v 0.01800332 -0.01523098 -0.01131845
v 0.01800332 -0.01523602 -0.01126084
v 0.01800332 -0.01523930 -0.01122348
v 0.01800332 -0.01524181 -0.01119468
v 0.01800332 -0.01524344 -0.01117600
v 0.01800332 -0.01443825 -0.01251597
v 0.01800332 -0.01435185 -0.01255625
v 0.01800332 -0.01431787 -0.01257211
v 0.01800332 -0.01428389 -0.01258795
v 0.01800332 -0.01424068 -0.01260810
v 0.01800332 -0.01422258 -0.01261295
v 0.01800332 -0.01415843 -0.01263013
v 0.01800332 -0.01398410 -0.01267685
v 0.01800332 -0.01396542 -0.01267848
v 0.01800332 -0.01389925 -0.01268428
v 0.01800332 -0.01376692 -0.01269584
v 0.01800332 -0.01371944 -0.01270000
v 0.01010748 -0.01391472 -0.00629748
v 0.01009636 -0.01378592 -0.00628636
v 0.01012946 -0.01404210 -0.00631946
v 0.01149024 -0.01523250 -0.00012868
v 0.01287696 -0.00533744 -0.01270000
v 0.00960842 -0.00260992 -0.00579842
v 0.00960842 -0.00260992 -0.00048796
v -0.00000000 -0.01404210 0.00631946
v 0.00001098 -0.01397840 0.00630846
v -0.00000000 -0.01391472 0.00629746
v -0.00000000 -0.01378592 0.00628636
v -0.00000000 -0.01505020 0.00706618
v -0.00000000 -0.01490568 0.00685212
v 0.00010704 -0.01497794 0.00695916
v -0.00000000 -0.01472706 0.00666554
v -0.00000000 -0.01451950 0.00651180
v -0.00000000 -0.01462654 0.00658426
v 0.00009328 -0.01481638 0.00675884
v -0.00000000 -0.01515652 0.00730158
v 0.00011770 -0.01510336 0.00718388
v 0.00012498 -0.01518904 0.00742656
v -0.00000000 -0.01522156 0.00755154
v 0.00012868 -0.01523250 0.00768022
v -0.00000000 -0.01524344 0.00780890
v -0.00000000 -0.01440672 0.00644868
v -0.00000000 -0.01428898 0.00639532
v 0.00002158 -0.01422806 0.00637374
v -0.00000000 -0.01416714 0.00635214
v 0.00382800 -0.01524344 0.00865068
v -0.00000000 -0.01524344 0.01117600
v -0.00000000 -0.01523186 0.01130832
v -0.00000000 -0.01522030 0.01144062
v -0.00000000 -0.01518592 0.01156892
v -0.00000000 -0.01515154 0.01169722
v -0.00000000 -0.01509540 0.01181762
v -0.00000000 -0.01503926 0.01193800
v -0.00000000 -0.01496308 0.01204680
v -0.00000000 -0.01488690 0.01215560
v -0.00000000 -0.01479298 0.01224952
v -0.00000000 -0.01469906 0.01234344
v -0.00000000 -0.01459026 0.01241962
v -0.00000000 -0.01448144 0.01249582
v -0.00000000 -0.01436106 0.01255196
v -0.00000000 -0.01424068 0.01260808
v -0.00000000 -0.01411238 0.01264246
v -0.00000000 -0.01398410 0.01267684
v -0.00000000 -0.01385176 0.01268842
v -0.00000000 -0.01371944 0.01270000
v 0.00048796 -0.00260992 0.00579840
v 0.01161892 -0.01524344 0.00000000
v 0.01010748 -0.01391472 0.00629746
v 0.01009636 -0.01378592 0.00628636
v 0.01012946 -0.01404210 0.00631946
v 0.01066212 -0.01490568 0.00685212
v 0.01032182 -0.01451950 0.00651180
v 0.01039428 -0.01462654 0.00658428
v 0.01047554 -0.01472706 0.00666554
v 0.01087618 -0.01505020 0.00706618
v 0.01111158 -0.01515652 0.00730158
v 0.01025868 -0.01440672 0.00644868
v 0.01020532 -0.01428898 0.00639532
v 0.01016216 -0.01416714 0.00635214
v 0.01136156 -0.01522156 0.00755154
v 0.01161892 -0.01524344 0.00780892
v 0.01155146 -0.01524344 0.00907156
v 0.00963746 -0.01524344 0.01033422
v 0.01254218 -0.01524344 0.01117600
v 0.01254218 -0.01524056 0.01120908
v 0.01254218 -0.01523476 0.01127524
v 0.01254218 -0.01522898 0.01134140
v 0.01254218 -0.01522318 0.01140756
v 0.01254218 -0.01522030 0.01144064
v 0.01254218 -0.01521170 0.01147270
v 0.01254218 -0.01519450 0.01153686
v 0.01254218 -0.01517732 0.01160100
v 0.01254218 -0.01516012 0.01166516
v 0.01254218 -0.01515154 0.01169724
v 0.01254218 -0.01513750 0.01172732
v 0.01254218 -0.01510944 0.01178752
v 0.01254218 -0.01508136 0.01184772
v 0.01254218 -0.01505330 0.01190790
v 0.01254218 -0.01503926 0.01193800
v 0.01254218 -0.01502022 0.01196520
v 0.01254218 -0.01498214 0.01201960
v 0.01254218 -0.01494404 0.01207400
v 0.01254218 -0.01490594 0.01212840
v 0.01254218 -0.01488690 0.01215560
v 0.01254218 -0.01486342 0.01217908
v 0.01254218 -0.01481646 0.01222604
v 0.01254218 -0.01476950 0.01227300
v 0.01254218 -0.01472254 0.01231996
v 0.01254218 -0.01469906 0.01234344
v 0.01254218 -0.01467186 0.01236250
v 0.01254218 -0.01461746 0.01240058
v 0.01254218 -0.01456306 0.01243868
v 0.01254218 -0.01450864 0.01247678
v 0.01254218 -0.01448144 0.01249582
v 0.01254218 -0.01445136 0.01250986
v 0.01254218 -0.01439116 0.01253792
v 0.01254218 -0.01433098 0.01256598
v 0.01254218 -0.01427078 0.01259406
v 0.01254218 -0.01424068 0.01260810
v 0.01254218 -0.01420862 0.01261668
v 0.01254218 -0.01414446 0.01263388
v 0.01254218 -0.01408032 0.01265106
v 0.01254218 -0.01401616 0.01266826
v 0.01254218 -0.01398410 0.01267684
v 0.01254218 -0.01395102 0.01267974
v 0.01254218 -0.01388484 0.01268552
v 0.01254218 -0.01381868 0.01269132
v 0.01254218 -0.01375252 0.01269710
v 0.01254218 -0.01371944 0.01270000
v 0.01243058 -0.01092544 0.01270000
v 0.01800332 -0.01524344 0.01117600
v 0.01800332 -0.01524181 0.01119468
v 0.01800332 -0.01523930 0.01122348
v 0.01800332 -0.01523602 0.01126084
v 0.01800332 -0.01523276 0.01129819
v 0.01800332 -0.01522772 0.01135580
v 0.01800332 -0.01522444 0.01139316
v 0.01800332 -0.01522193 0.01142196
v 0.01800332 -0.01522030 0.01144064
v 0.01800332 -0.01520796 0.01148667
v 0.01800332 -0.01516386 0.01165119
v 0.01800332 -0.01515638 0.01167913
v 0.01800332 -0.01515154 0.01169724
v 0.01800332 -0.01513139 0.01174043
v 0.01800332 -0.01509111 0.01182684
v 0.01800332 -0.01507526 0.01186083
v 0.01800332 -0.01505941 0.01189480
v 0.01800332 -0.01504719 0.01192101
v 0.01800332 -0.01503926 0.01193800
v 0.01800332 -0.01499043 0.01200776
v 0.01800332 -0.01496892 0.01203847
v 0.01800332 -0.01493575 0.01208585
v 0.01800332 -0.01488690 0.01215561
v 0.01800332 -0.01469906 0.01234345
v 0.01800332 -0.01468370 0.01235421
v 0.01800332 -0.01462930 0.01239229
v 0.01800332 -0.01459859 0.01241380
v 0.01800332 -0.01452048 0.01246848
v 0.01800332 -0.01448144 0.01249582
v 0.01800332 -0.01443825 0.01251597
v 0.01800332 -0.01431787 0.01257209
v 0.01800332 -0.01424068 0.01260810
v 0.01800332 -0.01419465 0.01262042
v 0.01800332 -0.01415843 0.01263013
v 0.01800332 -0.01412222 0.01263983
v 0.01800332 -0.01406635 0.01265480
v 0.01800332 -0.01400220 0.01267201
v 0.01800332 -0.01398410 0.01267685
v 0.01800332 -0.01396542 0.01267849
v 0.01800332 -0.01389925 0.01268427
v 0.01800332 -0.01386190 0.01268754
v 0.01800332 -0.01380428 0.01269258
v 0.01800332 -0.01373812 0.01269836
v 0.01800332 -0.01371944 0.01270000
v 0.00960840 -0.00260992 0.00579840
v 0.01220740 -0.00533744 0.01270000
v 0.00044638 -0.00254344 -0.01270000
v -0.00000000 0.00863254 -0.01270000
v -0.00000000 0.00876486 -0.01268842
v -0.00000000 0.00889720 -0.01267686
v -0.00000000 0.00902548 -0.01264248
v -0.00000000 0.00915378 -0.01260810
v -0.00000000 0.00927416 -0.01255196
v -0.00000000 0.00939456 -0.01249584
v -0.00000000 0.00950336 -0.01241964
v -0.00000000 0.00961216 -0.01234346
v -0.00000000 0.00970608 -0.01224954
v -0.00000000 0.00980000 -0.01215562
v -0.00000000 0.00987618 -0.01204682
v -0.00000000 0.00995236 -0.01193802
v -0.00000000 0.01000850 -0.01181762
v -0.00000000 0.01006464 -0.01169724
v -0.00000000 0.01009902 -0.01156894
v -0.00000000 0.01013340 -0.01144066
v -0.00000000 0.01014498 -0.01130832
v -0.00000000 0.01015654 -0.01117600
v -0.00000000 0.01015654 -0.00683300
v 0.00012248 0.01014664 -0.00671052
v -0.00000000 0.01013674 -0.00658804
v 0.00011930 0.01010726 -0.00646874
v 0.00433674 0.01015654 -0.00791876
v -0.00000000 0.00856608 -0.00531046
v 0.00000020 0.00862758 -0.00531026
v -0.00000000 0.00868906 -0.00531006
v 0.00000476 0.00875038 -0.00531482
v -0.00000000 0.00881168 -0.00531958
v -0.00000000 0.00893312 -0.00533894
v -0.00000000 0.00905262 -0.00536804
v -0.00000000 0.00916938 -0.00540670
v -0.00000000 0.00928264 -0.00545462
v -0.00000000 0.00949574 -0.00557704
v 0.00007754 0.00959108 -0.00565458
v -0.00000000 0.00968642 -0.00573214
v 0.00010378 0.00991548 -0.00601962
v 0.00011302 0.01002954 -0.00623642
v -0.00000000 0.01007780 -0.00634944
v -0.00000000 0.00998126 -0.00612342
v -0.00000000 0.00984968 -0.00591584
v 0.00009186 0.00976806 -0.00582398
v -0.00000000 0.00939166 -0.00551152
v 0.01265378 0.00025054 -0.01270000
v 0.01243060 0.00583854 -0.01270000
v 0.00965826 0.01015654 -0.01009026
v 0.01231900 0.00863254 -0.01270000
v 0.01231900 0.00866562 -0.01269710
v 0.01231900 0.00873178 -0.01269132
v 0.01231900 0.00879796 -0.01268554
v 0.01231900 0.00886412 -0.01267974
v 0.01231900 0.00889720 -0.01267686
v 0.01231900 0.00892926 -0.01266826
v 0.01231900 0.00899342 -0.01265106
v 0.01231900 0.00905756 -0.01263388
v 0.01231900 0.00912172 -0.01261670
v 0.01231900 0.00915378 -0.01260810
v 0.01231900 0.00918388 -0.01259406
v 0.01231900 0.00924408 -0.01256600
v 0.01231900 0.00930426 -0.01253792
v 0.01231900 0.00936446 -0.01250986
v 0.01231900 0.00939456 -0.01249582
v 0.01231900 0.00942176 -0.01247678
v 0.01231900 0.00947616 -0.01243868
v 0.01231900 0.00953056 -0.01240060
v 0.01231900 0.00958496 -0.01236250
v 0.01231900 0.00961216 -0.01234346
v 0.01231900 0.00963564 -0.01231998
v 0.01231900 0.00968260 -0.01227302
v 0.01231900 0.00972956 -0.01222606
v 0.01231900 0.00977652 -0.01217910
v 0.01231900 0.00980000 -0.01215562
v 0.01231900 0.00981906 -0.01212842
v 0.01231900 0.00985714 -0.01207402
v 0.01231900 0.00989524 -0.01201960
v 0.01231900 0.00993332 -0.01196520
v 0.01231900 0.00995236 -0.01193800
v 0.01231900 0.00996640 -0.01190792
v 0.01231900 0.00999448 -0.01184772
v 0.01231900 0.01002254 -0.01178754
v 0.01231900 0.01005060 -0.01172734
v 0.01231900 0.01006464 -0.01169724
v 0.01231900 0.01007324 -0.01166516
v 0.01231900 0.01009042 -0.01160102
v 0.01231900 0.01010762 -0.01153688
v 0.01231900 0.01012480 -0.01147272
v 0.01231900 0.01013340 -0.01144064
v 0.01231900 0.01013630 -0.01140756
v 0.01231900 0.01014208 -0.01134140
v 0.01231900 0.01014786 -0.01127524
v 0.01231900 0.01015366 -0.01120908
v 0.01231900 0.01015654 -0.01117600
v 0.01064300 0.01015654 -0.00683300
v 0.01039804 0.01013674 -0.00658804
v 0.01800332 0.00863254 -0.01270000
v 0.01800332 0.00868088 -0.01269576
v 0.01800332 0.00881322 -0.01268420
v 0.01800332 0.00887938 -0.01267840
v 0.01800332 0.00889720 -0.01267685
v 0.01800332 0.00907236 -0.01262991
v 0.01800332 0.00913651 -0.01261273
v 0.01800332 0.00915378 -0.01260810
v 0.01800332 0.00919777 -0.01258758
v 0.01800332 0.00923019 -0.01257247
v 0.01800332 0.00926260 -0.01255735
v 0.01800332 0.00935057 -0.01251634
v 0.01800332 0.00937835 -0.01250338
v 0.01800332 0.00939456 -0.01249582
v 0.01800332 0.00940921 -0.01248557
v 0.01800332 0.00943431 -0.01246799
v 0.01800332 0.00951381 -0.01241231
v 0.01800332 0.00954311 -0.01239180
v 0.01800332 0.00957241 -0.01237128
v 0.01800332 0.00959751 -0.01235371
v 0.01800332 0.00961216 -0.01234346
v 0.01800332 0.00962481 -0.01233081
v 0.01800332 0.00974039 -0.01221522
v 0.01800332 0.00980000 -0.01215561
v 0.01800332 0.00990403 -0.01200705
v 0.01800332 0.00995236 -0.01193800
v 0.01800332 0.00997288 -0.01189403
v 0.01800332 0.01002902 -0.01177365
v 0.01800332 0.01005708 -0.01171345
v 0.01800332 0.01006464 -0.01169724
v 0.01800332 0.01006927 -0.01167996
v 0.01800332 0.01007721 -0.01165037
v 0.01800332 0.01010233 -0.01155662
v 0.01800332 0.01013340 -0.01144064
v 0.01800332 0.01015654 -0.01117600
v 0.00912046 0.00856608 -0.00531046
v 0.00912006 0.00868906 -0.00531006
v 0.00912958 0.00881168 -0.00531956
v 0.00914894 0.00893312 -0.00533894
v 0.00917804 0.00905262 -0.00536804
v 0.00921668 0.00916938 -0.00540668
v 0.00926462 0.00928264 -0.00545462
v 0.00938704 0.00949574 -0.00557704
v 0.00954212 0.00968642 -0.00573212
v 0.00993342 0.00998126 -0.00612340
v 0.00972584 0.00984968 -0.00591584
v 0.00932152 0.00939166 -0.00551152
v 0.01015944 0.01007780 -0.00634944
v -0.00000000 0.00856608 0.00531044
v -0.00000000 0.00868906 0.00531004
v -0.00000000 0.00881168 0.00531956
v 0.00000968 0.00887240 0.00532924
v -0.00000000 0.00893312 0.00533892
v 0.00001454 0.00899288 0.00535348
v -0.00000000 0.00905262 0.00536804
v 0.00001932 0.00911100 0.00538736
v -0.00000000 0.00916938 0.00540668
v 0.00002396 0.00922602 0.00543064
v -0.00000000 0.00928264 0.00545460
v 0.00002846 0.00933716 0.00548306
v -0.00000000 0.00939166 0.00551152
v -0.00000000 0.00949574 0.00557702
v -0.00000000 0.00968642 0.00573210
v -0.00000000 0.00984968 0.00591582
v -0.00000000 0.00998126 0.00612340
v -0.00000000 0.01007780 0.00634942
v -0.00000000 0.01013674 0.00658802
v -0.00000000 0.01015654 0.00683300
v -0.00000000 0.00863254 0.01270000
v -0.00000000 0.00876486 0.01268842
v -0.00000000 0.00889720 0.01267684
v -0.00000000 0.00902548 0.01264246
v -0.00000000 0.00915378 0.01260808
v -0.00000000 0.00927416 0.01255196
v -0.00000000 0.01015654 0.01117600
v -0.00000000 0.01014498 0.01130832
v -0.00000000 0.01013340 0.01144062
v -0.00000000 0.01009902 0.01156892
v -0.00000000 0.01006464 0.01169722
v -0.00000000 0.01000850 0.01181762
v -0.00000000 0.00970608 0.01224952
v -0.00000000 0.00939456 0.01249582
v -0.00000000 0.00950336 0.01241962
v -0.00000000 0.00961216 0.01234344
v -0.00000000 0.00995236 0.01193800
v -0.00000000 0.00987618 0.01204680
v -0.00000000 0.00980000 0.01215560
v 0.01198422 0.00025054 0.01270000
v 0.00912046 0.00856608 0.00531046
v 0.00912004 0.00868906 0.00531004
v 0.00912956 0.00881168 0.00531956
v 0.00914894 0.00893312 0.00533894
v 0.00917804 0.00905262 0.00536804
v 0.00921668 0.00916938 0.00540668
v 0.00926462 0.00928264 0.00545460
v 0.00932152 0.00939166 0.00551152
v 0.00938704 0.00949574 0.00557704
v 0.00954212 0.00968642 0.00573212
v 0.00972584 0.00984968 0.00591582
v 0.00993340 0.00998126 0.00612340
v 0.01015944 0.01007780 0.00634942
v 0.01220740 0.00583854 0.01270000
v 0.01039804 0.01013674 0.00658802
v 0.01064300 0.01015654 0.00683300
v 0.01231900 0.00863254 0.01270000
v 0.01231900 0.00866562 0.01269710
v 0.01231900 0.00873178 0.01269132
v 0.01231900 0.00879796 0.01268552
v 0.01231900 0.00886412 0.01267974
v 0.01231900 0.00889720 0.01267684
v 0.01231900 0.00892926 0.01266826
v 0.01231900 0.00899342 0.01265106
v 0.01231900 0.00905756 0.01263388
v 0.01231900 0.00912172 0.01261668
v 0.01231900 0.00915378 0.01260810
v 0.01231900 0.00918388 0.01259406
v 0.01231900 0.00924408 0.01256598
v 0.01231900 0.00930426 0.01253792
v 0.01231900 0.01015654 0.01117600
v 0.01231900 0.01015366 0.01120908
v 0.01231900 0.01014786 0.01127524
v 0.01231900 0.01014208 0.01134140
v 0.01231900 0.01013630 0.01140756
v 0.01231900 0.01013340 0.01144064
v 0.01231900 0.01012480 0.01147270
v 0.01231900 0.01009042 0.01160100
v 0.01231900 0.01010762 0.01153686
v 0.01231900 0.01007324 0.01166516
v 0.01231900 0.01006464 0.01169724
v 0.01231900 0.01005060 0.01172732
v 0.01231900 0.01002254 0.01178752
v 0.01231900 0.00999448 0.01184772
v 0.01231900 0.00968260 0.01227300
v 0.01231900 0.00972956 0.01222604
v 0.01231900 0.00939456 0.01249582
v 0.01231900 0.00942176 0.01247678
v 0.01231900 0.00953056 0.01240058
v 0.01231900 0.00947616 0.01243868
v 0.01231900 0.00936446 0.01250986
v 0.01231900 0.00958496 0.01236250
v 0.01231900 0.00963564 0.01231996
v 0.01231900 0.00961216 0.01234344
v 0.01231900 0.00985714 0.01207400
v 0.01231900 0.00995236 0.01193800
v 0.01231900 0.00993332 0.01196520
v 0.01231900 0.00989524 0.01201960
v 0.01231900 0.00977652 0.01217908
v 0.01231900 0.00980000 0.01215560
v 0.01231900 0.00981906 0.01212840
v 0.01231900 0.00996640 0.01190790
v 0.01800332 0.00863254 0.01270000
v 0.01800332 0.00871652 0.01269266
v 0.01800332 0.00877758 0.01268732
v 0.01800332 0.00884886 0.01268108
v 0.01800332 0.00887938 0.01267841
v 0.01800332 0.00891447 0.01267223
v 0.01800332 0.00889720 0.01267685
v 0.01800332 0.00897862 0.01265503
v 0.01800332 0.00903782 0.01263916
v 0.01800332 0.00907236 0.01262991
v 0.01800332 0.00910692 0.01262065
v 0.01800332 0.00915378 0.01260810
v 0.01800332 0.00926260 0.01255735
v 0.01800332 0.00931815 0.01253144
v 0.01800332 0.01015654 0.01117600
v 0.01800332 0.01015499 0.01119382
v 0.01800332 0.01015232 0.01122434
v 0.01800332 0.01014920 0.01125998
v 0.01800332 0.01014609 0.01129561
v 0.01800332 0.01014074 0.01135666
v 0.01800332 0.01012877 0.01145791
v 0.01800332 0.01013496 0.01142282
v 0.01800332 0.01013340 0.01144064
v 0.01800332 0.01010233 0.01155660
v 0.01800332 0.01011159 0.01152206
v 0.01800332 0.01007721 0.01165036
v 0.01800332 0.01008646 0.01161580
v 0.01800332 0.01006927 0.01167996
v 0.01800332 0.01006464 0.01169724
v 0.01800332 0.01000311 0.01182919
v 0.01800332 0.00998800 0.01186161
v 0.01800332 0.00939456 0.01249582
v 0.01800332 0.00954311 0.01239179
v 0.01800332 0.00951381 0.01241231
v 0.01800332 0.00937835 0.01250338
v 0.01800332 0.00959751 0.01235371
v 0.01800332 0.00961216 0.01234345
v 0.01800332 0.00995236 0.01193800
v 0.01800332 0.00980000 0.01215561
f 40 2 1
f 43 3 4
f 44 5 7
f 42 4 5
f 46 7 8
f 48 8 9
f 48 9 10
f 49 10 6
f 36 1 3
f 55 11 2
f 55 12 11
f 56 13 12
f 57 14 13
f 60 16 15
f 60 15 14
f 61 17 16
f 62 18 17
f 62 19 18
f 63 20 19
f 63 21 20
f 64 22 21
f 65 23 22
f 45 6 24
f 66 24 25
f 68 25 26
f 69 26 27
f 73 27 29
f 74 29 28
f 74 28 30
f 75 30 31
f 78 31 32
f 79 32 33
f 35 41 1
f 36 35 1
f 39 40 1
f 39 1 38
f 40 34 2
f 38 1 41
f 43 4 42
f 44 42 5
f 45 49 6
f 46 47 7
f 44 7 47
f 46 8 48
f 48 10 49
f 36 3 37
f 50 37 3
f 51 50 3
f 51 3 43
f 54 2 53
f 52 53 2
f 34 52 2
f 54 55 2
f 56 12 55
f 56 58 13
f 57 13 58
f 57 59 14
f 59 60 14
f 60 61 16
f 61 62 17
f 62 63 19
f 63 64 21
f 64 65 22
f 45 24 66
f 66 25 67
f 67 25 68
f 69 68 26
f 69 27 70
f 70 27 71
f 72 27 73
f 71 27 72
f 73 29 74
f 74 30 75
f 75 31 76
f 76 31 77
f 77 31 78
f 78 32 79
f 81 82 23
f 65 80 23
f 80 81 23
f 82 97 23
f 97 153 23
f 82 83 97
f 83 108 97
f 83 84 154
f 84 85 160
f 85 86 155
f 86 87 156
f 87 88 157
f 88 89 158
f 89 90 158
f 90 91 162
f 91 92 163
f 92 94 109
f 94 95 110
f 95 96 111
f 79 33 223
f 79 223 93
f 96 99 211
f 36 37 436
f 50 436 37
f 36 436 35
f 38 41 437
f 39 38 438
f 39 438 40
f 40 438 34
f 35 437 41
f 43 42 439
f 44 47 439
f 44 439 42
f 46 440 47
f 46 48 440
f 48 49 441
f 45 441 49
f 51 43 442
f 51 442 50
f 52 443 53
f 34 438 52
f 54 53 443
f 56 55 444
f 54 444 55
f 56 445 58
f 57 58 445
f 57 446 59
f 60 446 61
f 59 446 60
f 61 446 62
f 62 447 63
f 63 447 64
f 64 448 65
f 45 66 449
f 66 67 449
f 67 68 450
f 69 450 68
f 69 70 450
f 70 71 450
f 71 72 451
f 72 73 451
f 73 74 452
f 74 75 452
f 75 76 452
f 76 77 453
f 77 78 453
f 78 79 454
f 65 448 80
f 79 93 454
f 80 100 81
f 81 100 82
f 82 101 83
f 83 102 84
f 84 103 85
f 85 104 86
f 86 105 87
f 87 460 88
f 88 462 89
f 89 106 90
f 90 465 91
f 91 467 92
f 82 100 455
f 93 98 454
f 35 436 437
f 38 437 438
f 43 439 442
f 47 440 439
f 48 441 440
f 50 442 436
f 52 438 443
f 54 443 444
f 56 444 445
f 57 445 446
f 62 446 447
f 64 447 448
f 45 449 441
f 67 450 449
f 71 451 450
f 73 452 451
f 76 453 452
f 78 454 453
f 80 448 100
f 82 455 101
f 83 101 456
f 83 456 102
f 84 102 457
f 84 457 103
f 85 103 458
f 85 458 104
f 86 104 459
f 86 459 105
f 87 105 460
f 88 460 461
f 88 461 462
f 89 462 463
f 89 464 106
f 89 463 464
f 90 106 465
f 91 465 466
f 91 466 467
f 92 467 468
f 92 468 469
f 92 469 94
f 94 472 95
f 95 474 96
f 94 469 471
f 94 471 472
f 95 472 473
f 95 473 474
f 96 474 475
f 96 475 476
f 96 476 107
f 98 735 454
f 96 107 99
f 153 164 23
f 164 112 23
f 83 154 108
f 97 108 153
f 86 156 155
f 87 157 156
f 88 159 157
f 88 158 159
f 84 160 154
f 85 155 160
f 90 161 158
f 90 162 161
f 91 163 162
f 92 109 163
f 94 110 109
f 95 111 110
f 108 154 153
f 96 211 111
f 164 113 112
f 165 114 113
f 165 115 114
f 166 116 115
f 167 117 116
f 167 118 117
f 168 119 118
f 169 120 119
f 174 121 120
f 175 122 121
f 176 123 122
f 177 124 123
f 177 125 124
f 179 126 125
f 180 127 126
f 182 128 127
f 184 129 128
f 189 130 129
f 189 131 130
f 190 132 131
f 190 133 132
f 192 134 133
f 193 135 134
f 193 136 135
f 194 137 136
f 195 138 137
f 197 139 138
f 198 140 139
f 199 141 140
f 199 142 141
f 200 143 142
f 201 144 143
f 202 145 144
f 202 146 145
f 204 147 146
f 204 148 147
f 205 149 148
f 207 150 149
f 208 151 150
f 209 152 151
f 164 165 113
f 165 166 115
f 166 167 116
f 167 168 118
f 168 169 119
f 169 170 120
f 170 171 120
f 171 172 120
f 172 173 120
f 173 174 120
f 174 175 121
f 175 176 122
f 176 177 123
f 177 178 125
f 178 179 125
f 179 180 126
f 180 181 127
f 181 182 127
f 182 183 128
f 183 184 128
f 184 185 129
f 185 186 129
f 186 187 129
f 187 188 129
f 188 189 129
f 189 190 131
f 190 191 133
f 191 192 133
f 192 193 134
f 193 194 136
f 194 195 137
f 195 196 138
f 196 197 138
f 197 198 139
f 198 199 140
f 199 200 142
f 200 201 143
f 201 202 144
f 202 203 146
f 203 204 146
f 204 205 148
f 205 206 149
f 206 207 149
f 207 208 150
f 208 209 151
f 209 210 152
f 210 213 152
f 111 211 212
f 213 321 152
f 321 375 152
f 109 214 163
f 109 110 583
f 110 111 215
f 111 221 586
f 214 603 163
f 109 583 214
f 110 584 583
f 110 585 584
f 110 215 585
f 111 586 215
f 155 156 587
f 157 159 217
f 159 158 218
f 158 161 219
f 156 157 588
f 155 594 160
f 160 597 154
f 154 599 153
f 161 162 220
f 162 163 601
f 153 599 216
f 153 216 605
f 153 605 164
f 164 605 165
f 165 605 166
f 166 606 167
f 167 606 168
f 168 607 169
f 169 607 170
f 170 607 171
f 171 608 172
f 172 608 173
f 173 609 174
f 174 609 175
f 175 610 176
f 176 610 177
f 177 611 178
f 178 611 179
f 179 611 180
f 180 611 181
f 181 612 182
f 182 612 183
f 183 613 184
f 184 613 185
f 185 613 186
f 186 614 187
f 187 614 188
f 188 615 189
f 189 615 190
f 190 615 191
f 191 616 192
f 192 616 193
f 193 617 194
f 194 617 195
f 195 618 196
f 196 618 197
f 197 619 198
f 198 619 199
f 199 619 200
f 200 619 201
f 201 620 202
f 202 620 203
f 203 621 204
f 204 621 205
f 205 621 206
f 206 622 207
f 207 622 208
f 208 623 209
f 209 623 210
f 155 587 595
f 156 588 589
f 156 589 587
f 157 590 593
f 157 217 590
f 158 591 218
f 158 219 591
f 159 592 217
f 159 218 592
f 157 593 588
f 160 594 596
f 160 596 597
f 155 595 594
f 154 597 598
f 154 598 599
f 161 220 600
f 161 600 219
f 162 601 220
f 163 602 601
f 163 603 602
f 216 599 604
f 216 604 605
f 166 605 606
f 168 606 607
f 171 607 608
f 173 608 609
f 175 609 610
f 177 610 611
f 181 611 612
f 183 612 613
f 186 613 614
f 188 614 615
f 191 615 616
f 193 616 617
f 195 617 618
f 197 618 619
f 201 619 620
f 203 620 621
f 206 621 622
f 208 622 623
f 210 623 425
f 111 212 221
f 221 212 624
f 221 624 586
f 210 425 213
f 93 223 98
f 98 223 222
f 99 302 211
f 222 223 253
f 254 223 224
f 255 224 225
f 256 225 226
f 258 226 227
f 259 227 228
f 261 228 229
f 262 229 230
f 264 230 231
f 266 231 232
f 268 232 233
f 269 233 234
f 269 234 235
f 270 235 236
f 271 236 237
f 272 237 238
f 274 238 239
f 274 239 240
f 275 240 241
f 279 241 242
f 284 242 243
f 288 243 244
f 289 244 245
f 290 245 246
f 291 246 247
f 291 247 248
f 292 248 249
f 293 249 250
f 294 250 251
f 294 251 252
f 253 223 254
f 254 224 255
f 255 225 256
f 256 226 257
f 257 226 258
f 258 227 259
f 259 228 260
f 260 228 261
f 261 229 262
f 262 230 263
f 263 230 264
f 264 231 265
f 265 231 266
f 266 232 267
f 267 232 268
f 268 233 269
f 269 235 270
f 270 236 271
f 271 237 272
f 272 238 273
f 273 238 274
f 274 240 275
f 275 241 276
f 276 241 277
f 277 241 278
f 278 241 279
f 279 242 280
f 280 242 281
f 281 242 282
f 282 242 283
f 283 242 284
f 284 243 285
f 285 243 286
f 286 243 287
f 287 243 288
f 288 244 289
f 289 245 290
f 290 246 291
f 291 248 292
f 292 249 293
f 293 250 294
f 294 252 295
f 295 252 296
f 296 252 297
f 297 252 298
f 298 252 299
f 299 252 349
f 299 349 300
f 300 376 301
f 301 323 303
f 302 304 324
f 306 305 325
f 304 306 326
f 309 314 330
f 305 307 325
f 307 308 328
f 309 329 308
f 313 311 334
f 310 303 332
f 310 331 311
f 313 333 312
f 312 330 314
f 98 222 735
f 222 736 735
f 99 107 302
f 222 253 736
f 253 254 736
f 254 255 736
f 255 256 737
f 256 257 737
f 257 258 738
f 258 259 738
f 259 260 738
f 260 261 739
f 261 262 739
f 262 263 740
f 263 264 740
f 264 265 740
f 265 266 740
f 266 267 741
f 267 268 741
f 268 269 742
f 269 270 742
f 270 271 743
f 271 272 743
f 272 273 744
f 273 274 744
f 274 275 744
f 275 276 745
f 276 277 745
f 277 278 746
f 278 279 746
f 279 280 746
f 280 281 747
f 281 282 747
f 282 283 748
f 283 284 748
f 284 285 748
f 285 286 748
f 286 287 749
f 287 288 749
f 289 290 750
f 288 289 750
f 290 291 751
f 291 292 751
f 292 293 752
f 293 294 752
f 294 295 752
f 295 296 752
f 296 297 753
f 297 298 753
f 298 299 754
f 299 300 754
f 300 301 755
f 301 303 757
f 255 737 736
f 257 738 737
f 260 739 738
f 262 740 739
f 266 741 740
f 268 742 741
f 270 743 742
f 272 744 743
f 275 745 744
f 277 746 745
f 280 747 746
f 282 748 747
f 286 749 748
f 288 750 749
f 290 751 750
f 292 752 751
f 296 753 752
f 298 754 753
f 301 756 755
f 301 757 756
f 303 758 757
f 303 774 758
f 300 759 754
f 300 755 759
f 309 319 314
f 302 761 304
f 304 764 306
f 306 315 305
f 307 316 308
f 305 317 307
f 309 308 318
f 313 312 771
f 310 311 775
f 310 774 303
f 313 776 311
f 312 314 320
f 107 760 302
f 302 760 761
f 304 761 762
f 304 762 763
f 304 763 764
f 306 764 315
f 305 315 765
f 305 765 317
f 309 768 319
f 309 318 768
f 307 317 766
f 307 766 316
f 308 316 767
f 308 767 318
f 312 320 769
f 312 769 770
f 313 771 777
f 312 770 771
f 311 772 775
f 310 775 773
f 310 773 774
f 313 777 776
f 311 776 772
f 314 778 320
f 314 319 778
f 211 322 212
f 375 378 152
f 378 335 152
f 211 302 322
f 300 377 376
f 301 376 323
f 302 324 322
f 304 326 324
f 306 325 326
f 309 330 329
f 307 327 325
f 307 328 327
f 308 329 328
f 310 332 331
f 311 331 334
f 303 323 332
f 312 333 330
f 313 334 333
f 300 349 377
f 379 336 335
f 380 337 336
f 380 338 337
f 382 339 338
f 383 340 339
f 384 341 340
f 385 343 342
f 385 342 341
f 386 344 343
f 387 345 344
f 388 346 345
f 388 347 346
f 389 348 347
f 408 368 348
f 392 349 350
f 393 350 351
f 393 351 352
f 394 352 353
f 395 353 354
f 396 354 356
f 397 356 357
f 397 357 355
f 398 355 359
f 399 358 361
f 400 359 358
f 399 361 360
f 401 360 362
f 402 362 363
f 402 363 364
f 403 364 365
f 404 365 366
f 405 366 372
f 421 374 371
f 408 367 368
f 411 369 367
f 413 370 369
f 415 371 370
f 417 372 373
f 418 373 374
f 378 379 335
f 379 380 336
f 380 381 338
f 381 382 338
f 382 383 339
f 383 384 340
f 384 385 341
f 385 386 343
f 386 387 344
f 387 388 345
f 389 390 348
f 390 391 348
f 388 389 347
f 391 412 348
f 408 348 412
f 392 350 393
f 393 352 394
f 394 353 395
f 395 354 396
f 397 355 398
f 396 356 397
f 400 358 399
f 398 359 400
f 399 360 401
f 401 362 402
f 403 365 404
f 405 404 366
f 405 372 423
f 402 364 403
f 407 420 371
f 406 407 371
f 420 421 371
f 408 409 367
f 409 411 367
f 411 410 369
f 410 413 369
f 415 370 413
f 414 371 415
f 406 371 414
f 416 419 374
f 423 372 417
f 418 417 373
f 418 374 419
f 422 374 421
f 416 374 422
f 377 349 433
f 424 349 392
f 433 349 424
f 212 322 624
f 213 425 321
f 425 375 321
f 329 330 890
f 322 324 426
f 324 326 427
f 326 325 882
f 325 327 884
f 327 328 886
f 329 888 328
f 330 333 428
f 334 429 333
f 334 331 430
f 331 332 431
f 332 323 432
f 322 878 624
f 323 895 432
f 322 426 878
f 324 879 426
f 324 427 879
f 326 880 427
f 326 881 880
f 326 882 881
f 325 883 882
f 325 884 883
f 327 885 884
f 327 886 885
f 328 887 886
f 328 888 887
f 329 889 888
f 329 890 889
f 330 428 890
f 333 891 428
f 333 429 891
f 334 892 429
f 334 430 892
f 331 893 430
f 331 431 893
f 332 894 431
f 332 432 894
f 376 377 435
f 323 376 434
f 377 433 897
f 375 898 378
f 424 392 904
f 378 898 379
f 379 899 380
f 380 899 381
f 381 900 382
f 382 900 383
f 383 900 384
f 384 901 385
f 385 901 386
f 386 902 387
f 387 902 388
f 388 902 389
f 389 902 390
f 390 903 391
f 391 903 412
f 392 393 904
f 393 394 904
f 394 395 905
f 395 396 905
f 397 398 906
f 396 397 906
f 398 400 906
f 400 399 907
f 399 401 907
f 401 402 908
f 402 403 908
f 403 404 909
f 405 423 914
f 405 909 404
f 406 910 407
f 406 414 910
f 408 412 911
f 408 911 409
f 409 912 411
f 411 912 410
f 415 413 913
f 410 913 413
f 414 415 913
f 416 422 915
f 423 417 914
f 418 914 417
f 418 419 914
f 416 915 419
f 422 421 916
f 407 916 420
f 420 916 421
f 433 424 904
f 425 898 375
f 323 434 895
f 376 896 434
f 376 435 896
f 377 897 435
f 379 898 899
f 381 899 900
f 384 900 901
f 386 901 902
f 390 902 903
f 412 903 911
f 394 905 904
f 396 906 905
f 400 907 906
f 401 908 907
f 403 909 908
f 405 914 909
f 407 910 916
f 409 911 912
f 410 912 913
f 414 913 910
f 419 915 914
f 422 916 915
f 436 479 437
f 438 437 482
f 442 439 487
f 439 440 491
f 440 441 492
f 436 442 494
f 438 496 443
f 443 498 444
f 444 500 445
f 445 501 446
f 446 506 447
f 447 508 448
f 449 489 441
f 449 450 511
f 450 451 515
f 451 452 517
f 452 453 520
f 453 454 522
f 100 448 470
f 100 470 455
f 101 455 533
f 101 533 456
f 103 457 529
f 102 456 524
f 102 524 457
f 103 529 458
f 104 458 525
f 104 525 459
f 105 459 528
f 105 528 460
f 460 528 461
f 461 526 462
f 462 526 463
f 106 464 530
f 463 527 464
f 106 530 465
f 465 530 466
f 466 531 467
f 467 531 468
f 468 532 469
f 454 735 535
f 436 481 480
f 436 494 481
f 436 480 479
f 437 485 482
f 438 482 483
f 438 483 484
f 438 484 478
f 437 479 485
f 439 486 487
f 439 491 488
f 439 488 486
f 440 490 491
f 440 492 490
f 441 493 492
f 441 489 493
f 442 487 495
f 442 495 494
f 443 496 497
f 438 478 496
f 443 497 498
f 444 499 500
f 444 498 499
f 445 500 502
f 445 502 501
f 446 501 503
f 446 504 505
f 446 503 504
f 446 505 506
f 447 506 507
f 447 507 508
f 448 508 509
f 449 510 489
f 449 511 510
f 450 512 511
f 450 513 512
f 450 514 513
f 450 515 514
f 451 516 515
f 451 517 516
f 452 518 517
f 452 519 518
f 452 520 519
f 453 521 520
f 453 522 521
f 454 523 522
f 448 509 534
f 454 535 523
f 448 534 470
f 470 534 455
f 455 534 533
f 456 533 524
f 457 524 529
f 458 529 525
f 459 525 528
f 461 528 526
f 464 527 530
f 463 526 527
f 466 530 531
f 468 531 532
f 473 576 474
f 474 576 475
f 475 577 476
f 469 532 471
f 471 578 472
f 472 578 473
f 473 578 576
f 475 576 577
f 532 578 471
f 476 577 477
f 535 735 580
f 107 476 477
f 577 581 477
f 107 477 581
f 484 548 478
f 480 538 479
f 480 481 536
f 482 485 537
f 483 482 537
f 483 537 484
f 479 538 485
f 487 486 540
f 488 541 486
f 490 543 491
f 490 492 543
f 488 491 544
f 492 493 543
f 489 545 493
f 494 546 481
f 495 546 494
f 495 487 546
f 478 548 496
f 496 549 497
f 498 497 550
f 498 551 499
f 500 499 552
f 500 553 502
f 501 502 555
f 501 555 503
f 504 556 505
f 503 555 504
f 505 558 506
f 506 559 507
f 507 560 508
f 508 562 509
f 489 510 564
f 510 511 565
f 511 512 567
f 513 567 512
f 513 514 569
f 514 515 570
f 515 516 570
f 517 518 570
f 516 517 570
f 518 519 572
f 519 520 573
f 520 521 573
f 521 522 574
f 522 523 574
f 523 535 575
f 484 537 548
f 480 536 538
f 481 546 536
f 485 538 537
f 486 539 540
f 488 544 542
f 488 542 541
f 486 541 539
f 489 564 545
f 491 543 544
f 493 545 543
f 487 540 546
f 496 548 547
f 496 547 549
f 497 549 550
f 498 550 551
f 499 551 552
f 500 552 554
f 500 554 553
f 502 553 555
f 504 555 556
f 505 557 558
f 505 556 557
f 506 558 559
f 507 559 560
f 508 560 561
f 508 561 562
f 509 562 563
f 510 565 564
f 513 568 567
f 511 566 565
f 511 567 566
f 513 569 568
f 514 570 569
f 518 571 570
f 518 572 571
f 519 573 572
f 521 574 573
f 523 575 574
f 535 580 575
f 534 579 533
f 576 578 628
f 576 626 577
f 524 633 529
f 533 634 524
f 526 631 527
f 527 630 530
f 525 632 528
f 528 631 526
f 525 529 629
f 530 635 531
f 531 637 532
f 532 637 578
f 534 625 579
f 533 579 638
f 577 627 582
f 509 563 689
f 509 689 534
f 580 779 575
f 779 780 575
f 577 582 581
f 214 628 603
f 214 583 628
f 584 585 626
f 215 627 585
f 215 586 627
f 583 584 628
f 586 624 627
f 584 626 628
f 585 627 626
f 628 637 603
f 588 593 629
f 588 629 589
f 587 633 595
f 587 589 633
f 217 631 590
f 593 590 632
f 218 630 592
f 218 591 630
f 219 635 591
f 217 592 631
f 594 595 634
f 594 634 596
f 596 638 597
f 597 638 598
f 598 639 599
f 219 600 635
f 220 636 600
f 220 601 636
f 601 602 636
f 602 603 637
f 604 641 605
f 605 644 606
f 606 646 607
f 607 649 608
f 608 651 609
f 609 653 610
f 610 655 611
f 611 659 612
f 612 661 613
f 613 664 614
f 614 666 615
f 615 669 616
f 616 671 617
f 617 673 618
f 618 675 619
f 619 679 620
f 620 681 621
f 621 684 622
f 622 686 623
f 599 639 604
f 589 629 633
f 590 631 632
f 591 635 630
f 592 630 631
f 593 632 629
f 595 633 634
f 596 634 638
f 598 638 639
f 600 636 635
f 602 637 636
f 604 639 640
f 604 640 641
f 605 641 642
f 605 642 643
f 605 643 644
f 606 644 645
f 606 645 646
f 607 646 647
f 607 647 648
f 607 648 649
f 608 649 650
f 608 650 651
f 609 651 652
f 609 652 653
f 610 653 654
f 610 654 655
f 611 655 656
f 611 656 657
f 611 657 658
f 611 658 659
f 612 659 660
f 612 660 661
f 613 661 662
f 613 662 663
f 613 663 664
f 614 664 665
f 614 665 666
f 615 666 667
f 615 667 668
f 615 668 669
f 616 669 670
f 616 670 671
f 617 671 672
f 617 672 673
f 618 673 674
f 618 674 675
f 619 675 676
f 619 676 677
f 619 677 678
f 619 678 679
f 620 679 680
f 620 680 681
f 621 681 682
f 621 682 683
f 621 683 684
f 622 684 685
f 622 685 686
f 623 686 687
f 623 687 688
f 623 688 734
f 627 624 733
f 425 623 734
f 576 628 626
f 577 626 627
f 527 631 630
f 528 632 631
f 525 629 632
f 529 633 629
f 524 634 633
f 531 635 636
f 530 630 635
f 531 636 637
f 578 637 628
f 533 638 634
f 579 625 638
f 625 639 638
f 534 689 625
f 625 689 639
f 640 689 641
f 641 689 642
f 639 689 640
f 642 690 643
f 643 692 644
f 644 693 645
f 645 695 646
f 646 696 647
f 647 698 648
f 648 699 649
f 649 699 650
f 650 699 651
f 651 700 652
f 652 702 653
f 653 702 654
f 654 703 655
f 655 704 656
f 656 706 657
f 657 708 658
f 658 708 659
f 659 709 660
f 660 710 661
f 661 711 662
f 662 712 663
f 663 712 664
f 664 712 665
f 665 712 666
f 666 712 667
f 667 713 668
f 668 714 669
f 669 715 670
f 670 716 671
f 671 717 672
f 672 718 673
f 673 718 674
f 674 719 675
f 675 719 676
f 676 720 677
f 677 721 678
f 678 722 679
f 679 723 680
f 680 725 681
f 681 725 682
f 682 727 683
f 683 728 684
f 684 729 685
f 685 730 686
f 686 731 687
f 642 689 690
f 643 690 691
f 643 691 692
f 644 692 693
f 645 693 694
f 645 694 695
f 646 695 696
f 647 696 697
f 647 697 698
f 648 698 699
f 651 699 700
f 652 700 701
f 652 701 702
f 654 702 703
f 655 703 704
f 656 704 705
f 656 705 706
f 657 706 707
f 657 707 708
f 659 708 709
f 660 709 710
f 661 710 711
f 662 711 712
f 667 712 713
f 668 713 714
f 669 714 715
f 670 715 716
f 671 716 717
f 672 717 718
f 674 718 719
f 676 719 720
f 677 720 721
f 678 721 722
f 679 722 723
f 680 723 724
f 680 724 725
f 682 725 726
f 682 726 727
f 683 727 728
f 684 728 729
f 685 729 730
f 686 730 731
f 687 731 732
f 582 627 733
f 687 732 980
f 687 980 688
f 580 735 779
f 735 780 779
f 107 581 865
f 735 736 780
f 736 737 783
f 737 738 785
f 738 739 788
f 739 740 790
f 740 741 794
f 741 742 796
f 742 743 798
f 743 744 800
f 744 745 803
f 745 746 805
f 746 747 808
f 747 748 810
f 748 749 814
f 749 750 816
f 750 751 818
f 751 752 820
f 752 753 824
f 753 754 826
f 755 756 828
f 756 757 829
f 757 758 829
f 758 774 877
f 754 759 781
f 780 736 782
f 736 783 782
f 737 784 783
f 737 785 784
f 738 786 785
f 738 787 786
f 738 788 787
f 739 789 788
f 739 790 789
f 740 791 790
f 740 792 791
f 740 793 792
f 740 794 793
f 741 795 794
f 741 796 795
f 742 797 796
f 742 798 797
f 743 799 798
f 743 800 799
f 744 801 800
f 744 802 801
f 744 803 802
f 745 804 803
f 745 805 804
f 746 806 805
f 746 807 806
f 746 808 807
f 747 809 808
f 747 810 809
f 748 811 810
f 748 812 811
f 748 813 812
f 748 814 813
f 749 815 814
f 749 816 815
f 750 818 817
f 750 817 816
f 751 819 818
f 751 820 819
f 752 821 820
f 752 822 821
f 752 823 822
f 752 824 823
f 753 825 824
f 753 826 825
f 754 827 826
f 754 781 827
f 759 755 828
f 758 877 829
f 756 829 828
f 107 865 760
f 760 865 761
f 761 866 762
f 762 866 763
f 763 867 764
f 315 764 867
f 315 867 765
f 317 765 868
f 316 766 869
f 316 869 767
f 317 868 766
f 318 767 870
f 318 870 768
f 319 768 871
f 319 871 778
f 769 872 770
f 771 873 777
f 770 873 771
f 775 874 773
f 775 772 874
f 776 777 875
f 772 776 875
f 320 778 876
f 320 876 769
f 774 773 877
f 761 865 866
f 763 866 867
f 765 867 868
f 766 868 869
f 767 869 870
f 768 870 871
f 778 871 876
f 872 873 770
f 772 875 874
f 773 874 877
f 777 873 875
f 769 876 872
f 780 782 575
f 782 830 575
f 581 582 865
f 781 759 864
f 827 781 864
f 759 828 864
f 782 783 830
f 783 784 831
f 784 785 831
f 785 786 832
f 786 787 833
f 787 788 834
f 788 789 834
f 789 790 834
f 790 791 835
f 791 792 836
f 792 793 837
f 793 794 838
f 794 795 840
f 795 796 841
f 796 797 842
f 797 798 844
f 798 799 845
f 799 800 846
f 800 801 847
f 801 802 849
f 802 803 851
f 803 804 851
f 804 805 851
f 805 806 852
f 806 807 852
f 807 808 853
f 808 809 853
f 809 810 853
f 810 811 854
f 811 812 854
f 812 813 855
f 813 814 856
f 814 815 856
f 815 816 857
f 816 817 858
f 817 818 860
f 818 819 861
f 819 820 862
f 820 821 862
f 821 822 862
f 822 823 863
f 823 824 863
f 824 825 863
f 825 826 863
f 826 827 863
f 783 831 830
f 785 832 831
f 786 833 832
f 787 834 833
f 790 835 834
f 791 836 835
f 792 837 836
f 793 838 837
f 794 839 838
f 794 840 839
f 795 841 840
f 796 842 841
f 797 843 842
f 797 844 843
f 798 845 844
f 799 846 845
f 800 847 846
f 801 848 847
f 801 849 848
f 802 850 849
f 802 851 850
f 805 852 851
f 807 853 852
f 810 854 853
f 812 855 854
f 813 856 855
f 815 857 856
f 816 858 857
f 817 860 859
f 817 859 858
f 818 861 860
f 819 862 861
f 822 863 862
f 827 864 863
f 582 918 865
f 828 933 864
f 865 918 866
f 866 920 867
f 867 920 868
f 869 922 870
f 868 922 869
f 870 924 871
f 871 924 876
f 872 876 926
f 872 927 873
f 874 930 877
f 873 928 875
f 874 875 929
f 829 877 932
f 828 829 933
f 624 918 733
f 425 917 898
f 425 734 917
f 624 878 918
f 426 918 878
f 426 879 919
f 427 919 879
f 427 880 919
f 880 881 920
f 881 882 921
f 882 883 921
f 883 884 922
f 884 885 922
f 885 886 923
f 886 887 923
f 887 888 924
f 888 889 924
f 889 890 925
f 428 925 890
f 428 891 925
f 429 926 891
f 429 892 926
f 430 927 892
f 430 893 927
f 431 928 893
f 431 894 928
f 432 929 894
f 432 895 929
f 426 919 918
f 880 920 919
f 881 921 920
f 883 922 921
f 885 923 922
f 887 924 923
f 889 925 924
f 891 926 925
f 926 892 927
f 893 928 927
f 894 929 928
f 895 930 929
f 433 933 897
f 433 904 933
f 434 930 895
f 434 896 930
f 435 932 896
f 435 897 932
f 898 935 899
f 899 937 900
f 900 940 901
f 901 942 902
f 902 946 903
f 903 968 911
f 904 905 950
f 905 906 952
f 906 907 956
f 907 908 957
f 908 909 959
f 909 914 961
f 910 963 916
f 911 965 912
f 912 966 913
f 910 913 970
f 915 975 914
f 915 916 978
f 917 931 898
f 930 896 932
f 897 933 932
f 931 934 898
f 933 904 948
f 898 934 935
f 899 935 936
f 899 936 937
f 900 937 938
f 900 938 939
f 900 939 940
f 901 940 941
f 901 941 942
f 902 942 943
f 902 943 944
f 902 944 945
f 902 945 946
f 903 946 947
f 903 947 968
f 904 949 948
f 904 950 949
f 905 951 950
f 905 952 951
f 906 954 953
f 906 953 952
f 906 956 954
f 907 955 956
f 907 957 955
f 908 958 957
f 908 959 958
f 909 960 959
f 914 979 961
f 909 961 960
f 910 962 963
f 910 970 962
f 911 968 964
f 911 964 965
f 912 965 967
f 912 967 966
f 913 969 971
f 913 966 969
f 913 971 970
f 915 978 972
f 914 973 979
f 914 974 973
f 914 975 974
f 915 972 975
f 916 977 978
f 916 963 976
f 916 976 977
f 582 733 918
f 688 980 734
f 734 980 917
f 866 918 919
f 866 919 920
f 868 920 921
f 868 921 922
f 870 922 923
f 870 923 924
f 876 924 925
f 876 925 926
f 872 926 927
f 873 927 928
f 875 928 929
f 874 929 930
f 877 930 932
f 829 932 933
f 933 948 864
f 948 994 864
f 917 980 931
f 931 980 934
f 934 981 935
f 935 981 936
f 936 982 937
f 937 983 938
f 938 984 939
f 939 985 940
f 940 987 941
f 941 988 942
f 942 989 943
f 943 991 944
f 944 992 945
f 945 992 946
f 946 992 947
f 947 993 968
f 948 949 995
f 949 950 997
f 950 951 998
f 951 952 999
f 953 954 1000
f 952 953 1001
f 956 955 1003
f 954 956 1004
f 955 957 1005
f 957 958 1007
f 958 959 1008
f 959 960 1008
f 961 1009 960
f 979 973 1010
f 961 979 1010
f 962 970 1018
f 970 971 1018
f 962 1018 963
f 964 1013 965
f 966 1012 969
f 965 1013 967
f 967 1013 966
f 964 968 1014
f 971 969 1015
f 978 977 1017
f 974 1017 973
f 974 975 1017
f 972 978 1017
f 972 1017 975
f 963 1018 976
f 976 1018 977
f 934 980 981
f 936 981 982
f 937 982 983
f 938 983 984
f 939 984 986
f 939 986 985
f 940 985 987
f 941 987 988
f 942 988 989
f 943 989 990
f 943 990 991
f 944 991 992
f 947 992 993
f 968 993 1014
f 948 995 994
f 949 996 995
f 949 997 996
f 950 998 997
f 951 999 998
f 952 1001 999
f 953 1002 1001
f 953 1000 1002
f 954 1004 1000
f 955 1006 1003
f 956 1003 1004
f 955 1005 1006
f 957 1007 1005
f 958 1008 1007
f 960 1009 1008
f 961 1010 1009
f 971 1016 1018
f 964 1014 1011
f 964 1011 1013
f 966 1013 1012
f 971 1015 1016
f 969 1012 1015
f 977 1018 1017
f 973 1017 1010
f 1 369 3
f 8 7 371
f 4 371 5
f 4 3 371
f 7 5 371
f 12 348 11
f 12 13 348
f 11 348 2
f 14 15 344
f 16 344 15
f 16 17 344
f 21 22 338
f 22 23 338
f 19 342 18
f 19 20 341
f 17 18 343
f 21 339 20
f 14 345 13
f 2 369 1
f 10 9 371
f 8 371 9
f 6 10 371
f 24 6 371
f 25 24 371
f 26 25 371
f 26 371 27
f 27 371 29
f 29 371 28
f 28 371 30
f 30 371 31
f 31 371 32
f 32 371 33
f 152 23 112
f 120 121 137
f 113 152 112
f 113 114 152
f 152 114 115
f 116 152 115
f 116 117 152
f 118 152 117
f 118 119 152
f 152 119 120
f 127 128 126
f 122 123 133
f 126 128 129
f 121 122 136
f 133 123 124
f 125 132 124
f 126 131 125
f 126 129 131
f 122 133 134
f 131 132 125
f 124 132 133
f 131 129 130
f 120 137 138
f 120 138 139
f 122 134 135
f 121 136 137
f 135 136 122
f 120 139 140
f 120 141 142
f 120 140 141
f 120 142 143
f 120 143 144
f 120 144 145
f 120 145 146
f 120 146 147
f 120 147 148
f 120 148 149
f 120 149 150
f 120 150 151
f 120 151 152
f 23 152 335
f 33 349 223
f 243 224 223
f 225 224 243
f 227 226 241
f 230 238 231
f 231 237 232
f 226 225 242
f 241 228 227
f 229 228 241
f 229 241 230
f 232 236 233
f 233 235 234
f 236 235 233
f 232 237 236
f 231 238 237
f 230 240 238
f 240 230 241
f 238 240 239
f 226 242 241
f 225 243 242
f 243 223 244
f 246 245 223
f 223 245 244
f 246 223 247
f 248 247 223
f 248 223 249
f 223 250 249
f 250 223 251
f 223 252 251
f 223 349 252
f 23 335 336
f 23 336 337
f 23 337 338
f 21 338 339
f 20 339 340
f 20 340 341
f 19 341 342
f 18 342 343
f 17 343 344
f 14 344 345
f 2 368 367
f 2 367 369
f 13 345 346
f 13 346 347
f 13 347 348
f 2 348 368
f 33 350 349
f 33 352 351
f 33 351 350
f 33 353 352
f 33 354 353
f 33 356 354
f 33 358 359
f 33 357 356
f 33 355 357
f 33 359 355
f 33 361 358
f 33 360 361
f 33 362 360
f 33 364 363
f 33 363 362
f 33 371 374
f 33 374 373
f 33 366 365
f 33 373 372
f 33 372 366
f 33 365 364
f 3 370 371
f 3 369 370
f 546 540 542
f 539 541 540
f 544 546 542
f 546 544 543
f 541 542 540
f 545 538 543
f 538 545 564
f 537 564 565
f 537 565 566
f 566 567 537
f 537 567 568
f 568 569 548
f 547 569 570
f 536 543 538
f 546 543 536
f 537 538 564
f 537 568 548
f 547 570 549
f 548 569 547
f 551 550 570
f 550 549 570
f 554 552 570
f 551 570 552
f 554 570 553
f 555 570 571
f 555 553 570
f 557 575 558
f 557 556 575
f 555 575 556
f 558 575 559
f 560 559 575
f 560 575 561
f 562 575 563
f 562 561 575
f 555 571 572
f 555 572 573
f 555 573 574
f 555 574 575
f 563 575 689
f 689 575 830
f 691 690 832
f 689 832 690
f 691 833 692
f 692 834 693
f 694 693 834
f 694 834 695
f 696 695 835
f 696 835 697
f 697 835 698
f 698 836 699
f 700 699 840
f 700 841 701
f 701 841 702
f 702 842 703
f 703 845 704
f 704 845 705
f 706 705 845
f 706 845 707
f 707 845 708
f 708 845 709
f 710 709 845
f 710 845 711
f 711 845 712
f 712 851 713
f 714 713 851
f 714 851 715
f 716 715 851
f 717 716 851
f 717 851 718
f 718 851 719
f 719 851 720
f 720 851 721
f 721 851 722
f 722 851 723
f 724 723 851
f 724 851 725
f 725 851 726
f 726 851 727
f 728 727 851
f 728 851 729
f 730 729 851
f 730 851 731
f 731 851 732
f 689 830 831
f 689 831 832
f 691 832 833
f 692 833 834
f 695 834 835
f 698 835 836
f 699 836 837
f 699 837 838
f 699 838 839
f 699 839 840
f 700 840 841
f 702 841 842
f 703 842 843
f 703 844 845
f 703 843 844
f 712 845 846
f 712 846 847
f 712 847 848
f 712 848 849
f 712 849 850
f 712 850 851
f 732 851 852
f 732 852 853
f 732 853 854
f 732 854 855
f 732 855 856
f 732 856 857
f 732 857 858
f 732 858 859
f 732 859 860
f 732 860 861
f 732 861 862
f 732 862 863
f 732 863 864
f 732 864 980
f 864 994 980
f 980 1008 981
f 982 981 1017
f 982 1017 983
f 984 983 1017
f 984 1017 986
f 986 1017 985
f 987 985 1017
f 988 987 1018
f 988 1018 989
f 989 1018 990
f 991 990 1018
f 980 994 995
f 980 995 996
f 980 996 997
f 980 997 998
f 980 998 999
f 980 1001 1002
f 980 999 1001
f 980 1002 1000
f 980 1000 1004
f 1017 981 1010
f 980 1003 1006
f 980 1006 1005
f 980 1004 1003
f 980 1005 1007
f 980 1007 1008
f 1008 1009 981
f 1010 981 1009
f 1018 987 1017
f 1015 1018 1016
f 991 1018 992
f 993 992 1013
f 993 1013 1014
f 1014 1013 1011
f 1013 992 1012
f 1015 992 1018
f 992 1015 1012

