# https://github.com/mikedh/trimesh
v -0.05841226 -0.10036381 -0.01106718 1.22941176 0.14117647 1.25294118
v -0.06244269 -0.10036381 -0.00851514 1.22941176 0.14117647 1.25294118
v -0.05833502 -0.10977077 -0.00851514 1.22941176 0.14117647 1.25294118
v -0.05833502 -0.10524975 -0.01106718 1.22941176 0.14117647 1.25294118
v -0.12410939 -0.10036381 -0.01106718 1.22941176 0.14117647 1.25294118
v -0.12410939 -0.10036381 -0.00851514 1.22941176 0.14117647 1.25294118
v -0.05833502 -0.12411014 -0.00851514 1.22941176 0.14117647 1.25294118
v -0.05833502 -0.12411014 -0.01106718 1.22941176 0.14117647 1.25294118
v -0.12410939 -0.11984248 -0.01106718 1.22941176 0.14117647 1.25294118
v -0.12410939 -0.11984248 -0.00851514 1.22941176 0.14117647 1.25294118
v -0.11577813 -0.12411014 -0.00851514 1.22941176 0.14117647 1.25294118
v -0.11577813 -0.12411014 -0.01106718 1.22941176 0.14117647 1.25294118
v -0.12385829 -0.12054912 -0.01106718 1.22941176 0.14117647 1.25294118
v -0.12298909 -0.12299209 -0.00851514 1.22941176 0.14117647 1.25294118
v -0.11984074 -0.12410781 -0.00851514 1.22941176 0.14117647 1.25294118
v -0.11984074 -0.12410781 -0.01106718 1.22941176 0.14117647 1.25294118
v -0.12298909 -0.12299209 -0.01106718 1.22941176 0.14117647 1.25294118
v -0.12054897 -0.12385910 -0.01106718 1.22941176 0.14117647 1.25294118
f 1 2 3
f 1 3 4
f 1 4 8
f 1 8 12
f 1 12 16
f 1 16 18
f 1 18 17
f 1 17 13
f 1 13 9
f 1 9 5
f 1 5 6
f 1 6 2
f 2 6 10
f 2 10 14
f 2 14 15
f 2 15 11
f 2 11 7
f 2 7 3
f 3 7 8
f 3 8 4
f 5 9 10
f 5 10 6
f 7 11 12
f 7 12 8
f 9 13 10
f 10 13 14
f 11 15 16
f 11 16 12
f 13 17 14
f 14 17 18
f 14 18 15
f 15 18 16