# https://github.com/mikedh/trimesh
v -0.11578205 0.06126732 0.02567188 0.12941177 0.02941176 1.24705882
v -0.11383204 0.06126732 0.02529375 0.12941177 0.02941176 1.24705882
v -0.11984409 0.06126732 0.02567188 0.12941177 0.02941176 1.24705882
v -0.11578205 0.00001992 0.02567188 0.12941177 0.02941176 1.24705882
v -0.11243633 0.06126732 0.02502268 0.12941177 0.02941176 1.24705882
v -0.12268951 0.06126732 0.02502268 0.12941177 0.02941176 1.24705882
v -0.12125259 0.00001992 0.02535063 0.12941177 0.02941176 1.24705882
v -0.11984409 0.00001992 0.02567188 0.12941177 0.02941176 1.24705882
v -0.11245197 0.00001992 0.02502268 0.12941177 0.02941176 1.24705882
v -0.11133057 0.06126732 0.02339968 0.12941177 0.02941176 1.24705882
v -0.12380664 0.06126732 0.02234223 0.12941177 0.02941176 1.24705882
v -0.12268951 0.00001992 0.02502268 0.12941177 0.02941176 1.24705882
v -0.11070947 0.00001992 0.02234223 0.12941177 0.02941176 1.24705882
v -0.11052612 0.06126732 0.02216153 0.12941177 0.02941176 1.24705882
v -0.12393315 0.06126732 0.02063890 0.12941177 0.02941176 1.24705882
v -0.12380664 0.00001992 0.02234223 0.12941177 0.02941176 1.24705882
v -0.11048490 0.00001992 0.02029089 0.12941177 0.02941176 1.24705882
v -0.11026034 0.06126732 0.01985250 0.12941177 0.02941176 1.24705882
v -0.12410796 0.06126732 0.01827971 0.12941177 0.02941176 1.24705882
v -0.12410796 0.02234621 0.01827971 0.12941177 0.02941176 1.24705882
v -0.12410796 0.02234621 -0.00851490 0.12941177 0.02941176 1.24705882
v -0.12223470 0.00001992 -0.00851490 0.12941177 0.02941176 1.24705882
v -0.11026602 0.00001992 0.01827971 0.12941177 0.02941176 1.24705882
v -0.11008978 0.06126732 0.01827971 0.12941177 0.02941176 1.24705882
v -0.12410796 0.06126732 -0.00851490 0.12941177 0.02941176 1.24705882
v -0.10976857 0.00001992 -0.00851490 0.12941177 0.02941176 1.24705882
v -0.10958949 0.06126732 -0.00851490 0.12941177 0.02941176 1.24705882
f 1 2 5
f 1 5 10
f 1 10 14
f 1 14 18
f 1 18 24
f 1 24 27
f 1 27 25
f 1 25 19
f 1 19 15
f 1 15 11
f 1 11 6
f 1 6 3
f 1 3 8
f 1 8 4
f 1 4 2
f 2 4 5
f 3 6 7
f 3 7 8
f 4 8 7
f 4 7 12
f 4 12 16
f 4 16 22
f 4 22 26
f 4 26 23
f 4 23 17
f 4 17 13
f 4 13 9
f 4 9 5
f 5 9 10
f 6 11 16
f 6 16 12
f 6 12 7
f 9 13 10
f 10 13 14
f 11 15 16
f 13 17 18
f 13 18 14
f 15 19 20
f 15 20 16
f 16 20 21
f 16 21 22
f 17 23 18
f 18 23 24
f 19 25 21
f 19 21 20
f 21 25 27
f 21 27 26
f 21 26 22
f 23 26 27
f 23 27 24