# https://github.com/mikedh/trimesh
v -0.05087458 0.08138075 -0.01179052 1.20588235 1.05294117 0.14705883
v -0.05758364 0.08138075 -0.00851521 1.20588235 1.05294117 0.14705883
v -0.05088413 0.07921644 -0.01179052 1.20588235 1.05294117 0.14705883
v -0.07849295 0.08138075 -0.01179052 1.20588235 1.05294117 0.14705883
v -0.05774898 0.07921644 -0.00851521 1.20588235 1.05294117 0.14705883
v -0.05107491 0.07515393 -0.01179052 1.20588235 1.05294117 0.14705883
v -0.07066150 0.08138075 -0.00851521 1.20588235 1.05294117 0.14705883
v -0.08335461 0.07510908 -0.01179052 1.20588235 1.05294117 0.14705883
v -0.08335461 0.06857137 -0.00851521 1.20588235 1.05294117 0.14705883
v -0.05856933 0.07515393 -0.00851521 1.20588235 1.05294117 0.14705883
v -0.05235630 0.07109139 -0.01179052 1.20588235 1.05294117 0.14705883
v -0.08335461 0.05084453 -0.01179052 1.20588235 1.05294117 0.14705883
v -0.08335461 0.05982154 -0.00851521 1.20588235 1.05294117 0.14705883
v -0.05968219 0.07171019 -0.00851521 1.20588235 1.05294117 0.14705883
v -0.05508762 0.06702887 -0.01179052 1.20588235 1.05294117 0.14705883
v -0.08328149 0.05084154 -0.01179052 1.20588235 1.05294117 0.14705883
v -0.08328149 0.05741811 -0.00851521 1.20588235 1.05294117 0.14705883
v -0.08335461 0.05741811 -0.00852099 1.20588235 1.05294117 0.14705883
v -0.06315118 0.06707072 -0.00851521 1.20588235 1.05294117 0.14705883
v -0.05903037 0.06296932 -0.01179052 1.20588235 1.05294117 0.14705883
v -0.07921791 0.05088339 -0.01179052 1.20588235 1.05294117 0.14705883
v -0.07515433 0.05108367 -0.01179052 1.20588235 1.05294117 0.14705883
v -0.07921791 0.05774694 -0.00851521 1.20588235 1.05294117 0.14705883
v -0.06707487 0.06315468 -0.00851521 1.20588235 1.05294117 0.14705883
v -0.06296995 0.05902937 -0.01179052 1.20588235 1.05294117 0.14705883
v -0.07109393 0.05237807 -0.01179052 1.20588235 1.05294117 0.14705883
v -0.07515433 0.05856902 -0.00851521 1.20588235 1.05294117 0.14705883
v -0.06703353 0.05509239 -0.01179052 1.20588235 1.05294117 0.14705883
v -0.07170759 0.05968104 -0.00851521 1.20588235 1.05294117 0.14705883
f 1 2 3
f 1 3 6
f 1 6 11
f 1 11 15
f 1 15 20
f 1 20 25
f 1 25 28
f 1 28 26
f 1 26 22
f 1 22 21
f 1 21 16
f 1 16 12
f 1 12 8
f 1 8 4
f 1 4 7
f 1 7 2
f 2 5 6
f 2 6 3
f 2 7 9
f 2 9 13
f 2 13 17
f 2 17 23
f 2 23 27
f 2 27 29
f 2 29 24
f 2 24 19
f 2 19 14
f 2 14 10
f 2 10 5
f 4 8 9
f 4 9 7
f 5 10 6
f 6 10 11
f 8 12 18
f 8 18 13
f 8 13 9
f 10 14 11
f 11 14 15
f 12 16 17
f 12 17 18
f 13 18 17
f 14 19 15
f 15 19 20
f 16 21 17
f 17 21 22
f 17 22 23
f 19 24 25
f 19 25 20
f 22 26 27
f 22 27 23
f 24 28 25
f 24 29 28
f 26 28 29
f 26 29 27