# https://github.com/mikedh/trimesh
v 0.10575525 0.09218901 -0.00694060 0.11176470 0.77647059 0.45882353
v 0.10575525 0.08008377 -0.00694060 0.11176470 0.77647059 0.45882353
v 0.10575525 0.09218901 -0.01095945 0.11176470 0.77647059 0.45882353
v 0.09686192 0.09218901 -0.00694060 0.11176470 0.77647059 0.45882353
v 0.10575525 0.08008377 -0.01095945 0.11176470 0.77647059 0.45882353
v 0.09886122 0.08008377 -0.00694060 0.11176470 0.77647059 0.45882353
v 0.09074940 0.09218901 -0.01095945 0.11176470 0.77647059 0.45882353
v 0.09413985 0.08008377 -0.01095945 0.11176470 0.77647059 0.45882353
f 1 2 5
f 1 5 3
f 1 3 7
f 1 7 4
f 1 4 6
f 1 6 2
f 2 6 8
f 2 8 5
f 3 5 8
f 3 8 7
f 4 7 6
f 6 7 8