# https://github.com/mikedh/trimesh
v -0.09039519 0.09784904 0.01015839 0.19999999 1.22941176 0.28235294
v -0.09525930 0.09377961 0.01015839 0.19999999 1.22941176 0.28235294
v -0.09039673 0.09784904 0.00621398 0.19999999 1.22941176 0.28235294
v -0.09412881 0.09784904 0.02234175 0.19999999 1.22941176 0.28235294
v -0.09809568 0.09377961 0.02234175 0.19999999 1.22941176 0.28235294
v -0.09593264 0.09377961 0.00627829 0.19999999 1.22941176 0.28235294
v -0.09041229 0.09784904 0.00609489 0.19999999 1.22941176 0.28235294
v -0.09426409 0.09784904 0.02261089 0.19999999 1.22941176 0.28235294
v -0.09819054 0.09377961 0.02253707 0.19999999 1.22941176 0.28235294
v -0.09755453 0.09377961 0.00132157 0.19999999 1.22941176 0.28235294
v -0.09312737 0.09784904 0.00132157 0.19999999 1.22941176 0.28235294
v -0.09519245 0.09584002 0.00132157 0.19999999 1.22941176 0.28235294
v -0.09662307 0.09661845 0.02480223 0.19999999 1.22941176 0.28235294
v -0.09606015 0.09784904 0.02495706 0.19999999 1.22941176 0.28235294
v -0.09988551 0.09377961 0.02507377 0.19999999 1.22941176 0.28235294
v -0.10627978 0.09377961 0.00132157 0.19999999 1.22941176 0.28235294
v -0.10627978 0.09784904 0.00132157 0.19999999 1.22941176 0.28235294
v -0.09690764 0.09784904 0.02514999 0.19999999 1.22941176 0.28235294
v -0.10107199 0.09377961 0.02533340 0.19999999 1.22941176 0.28235294
v -0.10627978 0.09377961 0.02523097 0.19999999 1.22941176 0.28235294
v -0.10627978 0.09784904 0.02484749 0.19999999 1.22941176 0.28235294
v -0.09948121 0.09784904 0.02545964 0.19999999 1.22941176 0.28235294
v -0.10359425 0.09377961 0.02562399 0.19999999 1.22941176 0.28235294
v -0.10547739 0.09377961 0.02537865 0.19999999 1.22941176 0.28235294
v -0.10627978 0.09546952 0.02514047 0.19999999 1.22941176 0.28235294
v -0.10627978 0.09647384 0.02501898 0.19999999 1.22941176 0.28235294
v -0.10476519 0.09784904 0.02513094 0.19999999 1.22941176 0.28235294
v -0.10121351 0.09784904 0.02565495 0.19999999 1.22941176 0.28235294
v -0.10359425 0.09546952 0.02563352 0.19999999 1.22941176 0.28235294
v -0.10363779 0.09784904 0.02533816 0.19999999 1.22941176 0.28235294
f 1 2 3
f 1 3 7
f 1 7 11
f 1 11 17
f 1 17 21
f 1 21 27
f 1 27 30
f 1 30 28
f 1 28 22
f 1 22 18
f 1 18 14
f 1 14 8
f 1 8 4
f 1 4 5
f 1 5 2
f 2 6 7
f 2 7 3
f 2 5 9
f 2 9 15
f 2 15 19
f 2 19 23
f 2 23 24
f 2 24 20
f 2 20 16
f 2 16 10
f 2 10 6
f 4 8 9
f 4 9 5
f 6 10 7
f 7 10 12
f 7 12 11
f 8 13 9
f 8 14 13
f 9 13 15
f 10 16 17
f 10 17 11
f 10 11 12
f 13 14 15
f 14 18 15
f 15 18 19
f 16 20 25
f 16 25 26
f 16 26 21
f 16 21 17
f 18 22 19
f 19 22 23
f 20 24 25
f 21 26 27
f 22 28 23
f 23 28 29
f 23 29 24
f 24 29 25
f 25 29 30
f 25 30 26
f 26 30 27
f 28 30 29