# https://github.com/mikedh/trimesh
v -0.05845212 -0.09255992 -0.00851490 0.19411764 1.07058823 0.58823529
v -0.05924574 -0.09255992 0.01827557 0.19411764 1.07058823 0.58823529
v -0.05931624 -0.09556945 -0.00851490 0.19411764 1.07058823 0.58823529
v -0.07216201 -0.09255992 -0.00851490 0.19411764 1.07058823 0.58823529
v -0.05929122 -0.09255992 0.01958397 0.19411764 1.07058823 0.58823529
v -0.06370049 -0.10288878 -0.00851490 0.19411764 1.07058823 0.58823529
v -0.06025539 -0.09499001 0.02233797 0.19411764 1.07058823 0.58823529
v -0.06016443 -0.09513771 0.01827557 0.19411764 1.07058823 0.58823529
v -0.06110814 -0.09716763 0.01827557 0.19411764 1.07058823 0.58823529
v -0.08168094 -0.09913822 -0.00851490 0.19411764 1.07058823 0.58823529
v -0.08168094 -0.09862317 0.00203264 0.19411764 1.07058823 0.58823529
v -0.07252812 -0.09255992 0.00203598 0.19411764 1.07058823 0.58823529
v -0.05948451 -0.09255992 0.02233797 0.19411764 1.07058823 0.58823529
v -0.06599722 -0.10545648 -0.00851490 0.19411764 1.07058823 0.58823529
v -0.06640198 -0.10545648 0.01827891 0.19411764 1.07058823 0.58823529
v -0.06128778 -0.09702120 0.02233797 0.19411764 1.07058823 0.58823529
v -0.06054419 -0.09437523 0.02473057 0.19411764 1.07058823 0.58823529
v -0.08168094 -0.10545648 -0.00851490 0.19411764 1.07058823 0.58823529
v -0.08168094 -0.09962930 0.01421651 0.19411764 1.07058823 0.58823529
v -0.07018137 -0.09255992 0.02233797 0.19411764 1.07058823 0.58823529
v -0.05967325 -0.09255992 0.02326824 0.19411764 1.07058823 0.58823529
v -0.06202456 -0.09812830 0.02234132 0.19411764 1.07058823 0.58823529
v -0.06296145 -0.09953208 0.02234132 0.19411764 1.07058823 0.58823529
v -0.06696368 -0.10545648 0.02232459 0.19411764 1.07058823 0.58823529
v -0.06481474 -0.10177282 0.02453983 0.19411764 1.07058823 0.58823529
v -0.06031678 -0.09255992 0.02487445 0.19411764 1.07058823 0.58823529
v -0.06291824 -0.09255992 0.02547680 0.19411764 1.07058823 0.58823529
v -0.06277497 -0.09562500 0.02510535 0.19411764 1.07058823 0.58823529
v -0.06363000 -0.09812830 0.02492466 0.19411764 1.07058823 0.58823529
v -0.06410980 -0.09953208 0.02482092 0.19411764 1.07058823 0.58823529
v -0.08168094 -0.10545648 0.02550357 0.19411764 1.07058823 0.58823529
v -0.08168094 -0.10000044 0.01827891 0.19411764 1.07058823 0.58823529
v -0.08168094 -0.10051296 0.02234132 0.19411764 1.07058823 0.58823529
v -0.08168094 -0.10079069 0.02377353 0.19411764 1.07058823 0.58823529
v -0.06945597 -0.09255992 0.02466365 0.19411764 1.07058823 0.58823529
v -0.06869872 -0.10545648 0.02449968 0.19411764 1.07058823 0.58823529
v -0.06703190 -0.09953208 0.02547010 0.19411764 1.07058823 0.58823529
v -0.06738663 -0.10331294 0.02477073 0.19411764 1.07058823 0.58823529
v -0.06412345 -0.09255992 0.02561064 0.19411764 1.07058823 0.58823529
v -0.06550149 -0.09812830 0.02533959 0.19411764 1.07058823 0.58823529
v -0.08108061 -0.10545648 0.02553368 0.19411764 1.07058823 0.58823529
v -0.08168094 -0.10359319 0.02542326 0.19411764 1.07058823 0.58823529
v -0.08168094 -0.10113153 0.02477407 0.19411764 1.07058823 0.58823529
v -0.06939684 -0.09255992 0.02471383 0.19411764 1.07058823 0.58823529
v -0.06985391 -0.10545648 0.02475734 0.19411764 1.07058823 0.58823529
v -0.07109324 -0.10359319 0.02539648 0.19411764 1.07058823 0.58823529
v -0.07515459 -0.10359319 0.02567088 0.19411764 1.07058823 0.58823529
v -0.07921821 -0.10359319 0.02553703 0.19411764 1.07058823 0.58823529
v -0.06714558 -0.09255992 0.02523921 0.19411764 1.07058823 0.58823529
v -0.07701699 -0.10545648 0.02552364 0.19411764 1.07058823 0.58823529
v -0.08168094 -0.10254667 0.02516893 0.19411764 1.07058823 0.58823529
v -0.06825529 -0.09255992 0.02504847 0.19411764 1.07058823 0.58823529
v -0.07109324 -0.10545648 0.02498488 0.19411764 1.07058823 0.58823529
v -0.07295109 -0.10545648 0.02520240 0.19411764 1.07058823 0.58823529
f 1 2 3
f 1 3 6
f 1 6 14
f 1 14 18
f 1 18 10
f 1 10 4
f 1 4 12
f 1 12 20
f 1 20 35
f 1 35 44
f 1 44 52
f 1 52 49
f 1 49 39
f 1 39 27
f 1 27 26
f 1 26 21
f 1 21 13
f 1 13 5
f 1 5 2
f 2 5 3
f 3 5 7
f 3 7 8
f 3 8 9
f 3 9 6
f 4 10 11
f 4 11 12
f 5 13 7
f 6 9 15
f 6 15 14
f 7 16 9
f 7 9 8
f 7 13 17
f 7 17 16
f 9 16 15
f 10 18 31
f 10 31 42
f 10 42 51
f 10 51 43
f 10 43 34
f 10 34 33
f 10 33 32
f 10 32 19
f 10 19 11
f 11 19 20
f 11 20 12
f 13 21 17
f 14 15 24
f 14 24 36
f 14 36 45
f 14 45 53
f 14 53 54
f 14 54 50
f 14 50 41
f 14 41 31
f 14 31 18
f 15 16 22
f 15 22 23
f 15 23 24
f 16 17 25
f 16 25 22
f 17 26 27
f 17 27 28
f 17 28 29
f 17 29 30
f 17 30 25
f 17 21 26
f 19 32 20
f 20 32 33
f 20 33 34
f 20 34 35
f 22 25 23
f 23 25 24
f 24 25 36
f 25 30 37
f 25 37 38
f 25 38 36
f 27 39 37
f 27 37 40
f 27 40 28
f 28 40 29
f 29 40 37
f 29 37 30
f 31 41 42
f 34 43 35
f 35 43 44
f 36 38 45
f 37 46 38
f 37 39 47
f 37 47 46
f 38 46 45
f 39 48 47
f 39 49 42
f 39 42 48
f 41 50 47
f 41 47 48
f 41 48 42
f 42 49 51
f 43 51 52
f 43 52 44
f 45 46 53
f 46 47 50
f 46 50 54
f 46 54 53
f 49 52 51