# https://github.com/mikedh/trimesh
v 0.08470485 0.10570398 0.02542262 1.41176470 1.19411764 0.94117647
v 0.08132554 0.10570398 0.02553180 1.41176470 1.19411764 0.94117647
v 0.08470485 0.10359301 0.02537501 1.41176470 1.19411764 0.94117647
v 0.08470485 0.10570398 0.00636435 1.41176470 1.19411764 0.94117647
v 0.07726366 0.10570398 0.02550379 1.41176470 1.19411764 0.94117647
v 0.07515582 0.10359301 0.02566619 1.41176470 1.19411764 0.94117647
v 0.06698398 0.09541964 0.02559060 1.41176470 1.19411764 0.94117647
v 0.06703446 0.09541964 0.02558499 1.41176470 1.19411764 0.94117647
v 0.08470485 0.10122193 0.02472546 1.41176470 1.19411764 0.94117647
v 0.08470485 0.09881044 0.00636435 1.41176470 1.19411764 0.94117647
v 0.08404149 0.10570293 -0.00293099 1.41176470 1.19411764 0.94117647
v 0.06639273 0.10570398 0.00636435 1.41176470 1.19411764 0.94117647
v 0.07318737 0.10570398 0.02518182 1.41176470 1.19411764 0.94117647
v 0.07109634 0.10359301 0.02540020 1.41176470 1.19411764 0.94117647
v 0.06703206 0.09953377 0.02547300 1.41176470 1.19411764 0.94117647
v 0.06277790 0.09541964 0.02513142 1.41176470 1.19411764 0.94117647
v 0.06015330 0.09511703 0.00636156 1.41176470 1.19411764 0.94117647
v 0.07436027 0.09511703 0.00636156 1.41176470 1.19411764 0.94117647
v 0.07068054 0.09541964 0.02496065 1.41176470 1.19411764 0.94117647
v 0.07079351 0.09541964 0.02492983 1.41176470 1.19411764 0.94117647
v 0.07217070 0.09541964 0.02281040 1.41176470 1.19411764 0.94117647
v 0.08470485 0.10072968 0.02234002 1.41176470 1.19411764 0.94117647
v 0.07504526 0.09541964 0.01005729 1.41176470 1.19411764 0.94117647
v 0.07440112 0.09511703 -0.00293099 1.41176470 1.19411764 0.94117647
v 0.08404149 0.09960321 -0.00293099 1.41176470 1.19411764 0.94117647
v 0.07228846 0.09541964 0.02234002 1.41176470 1.19411764 0.94117647
v 0.06639033 0.10570293 -0.00293099 1.41176470 1.19411764 0.94117647
v 0.06639273 0.10570398 0.01421780 1.41176470 1.19411764 0.94117647
v 0.07109634 0.10570398 0.02493545 1.41176470 1.19411764 0.94117647
v 0.06738297 0.10331632 0.02477586 1.41176470 1.19411764 0.94117647
v 0.06276830 0.09563207 0.02510343 1.41176470 1.19411764 0.94117647
v 0.06480883 0.10177637 0.02454067 1.41176470 1.19411764 0.94117647
v 0.06409502 0.09953377 0.02482346 1.41176470 1.19411764 0.94117647
v 0.06238854 0.09541964 0.02503904 1.41176470 1.19411764 0.94117647
v 0.06083107 0.09541964 0.02379872 1.41176470 1.19411764 0.94117647
v 0.06046575 0.09541964 0.02234002 1.41176470 1.19411764 0.94117647
v 0.06041769 0.09541964 0.02157288 1.41176470 1.19411764 0.94117647
v 0.06029029 0.09541964 0.01828031 1.41176470 1.19411764 0.94117647
v 0.06016771 0.09515536 0.00636156 1.41176470 1.19411764 0.94117647
v 0.06016292 0.09515536 -0.00293099 1.41176470 1.19411764 0.94117647
v 0.06015330 0.09511703 -0.00293099 1.41176470 1.19411764 0.94117647
v 0.06110028 0.09718654 -0.00293099 1.41176470 1.19411764 0.94117647
v 0.06109788 0.09718654 0.00203306 1.41176470 1.19411764 0.94117647
v 0.06109547 0.09718654 0.01421780 1.41176470 1.19411764 0.94117647
v 0.06109547 0.09718654 0.01828031 1.41176470 1.19411764 0.94117647
v 0.06639515 0.10570398 0.01828031 1.41176470 1.19411764 0.94117647
v 0.07012775 0.10570398 0.02475625 1.41176470 1.19411764 0.94117647
v 0.06883227 0.10570398 0.02447348 1.41176470 1.19411764 0.94117647
v 0.06700803 0.10570398 0.02232323 1.41176470 1.19411764 0.94117647
v 0.06127572 0.09703731 0.02234002 1.41176470 1.19411764 0.94117647
f 1 2 3
f 1 3 9
f 1 9 22
f 1 22 10
f 1 10 4
f 1 4 12
f 1 12 28
f 1 28 46
f 1 46 49
f 1 49 48
f 1 48 47
f 1 47 29
f 1 29 13
f 1 13 5
f 1 5 2
f 2 5 6
f 2 6 3
f 3 6 7
f 3 7 8
f 3 8 9
f 4 10 25
f 4 25 11
f 4 11 27
f 4 27 12
f 5 13 14
f 5 14 6
f 6 14 15
f 6 15 7
f 7 15 16
f 7 16 17
f 7 17 18
f 7 18 8
f 8 18 19
f 8 19 9
f 9 20 21
f 9 21 22
f 9 19 20
f 10 23 18
f 10 18 24
f 10 24 25
f 10 22 21
f 10 21 26
f 10 26 23
f 11 25 24
f 11 24 41
f 11 41 40
f 11 40 42
f 11 42 27
f 12 27 28
f 13 29 14
f 14 29 30
f 14 30 15
f 15 31 16
f 15 30 32
f 15 32 33
f 15 33 31
f 16 31 34
f 16 34 17
f 17 34 35
f 17 35 36
f 17 36 37
f 17 37 38
f 17 38 39
f 17 39 40
f 17 40 41
f 17 41 24
f 17 24 18
f 18 23 26
f 18 26 21
f 18 21 20
f 18 20 19
f 27 42 43
f 27 43 44
f 27 44 45
f 27 45 28
f 28 45 46
f 29 47 30
f 30 47 48
f 30 48 32
f 31 33 34
f 32 48 49
f 32 49 50
f 32 50 35
f 32 35 34
f 32 34 33
f 35 50 36
f 36 50 45
f 36 45 37
f 37 45 38
f 38 45 40
f 38 40 39
f 40 45 44
f 40 44 43
f 40 43 42
f 45 50 46
f 46 50 49