# https://github.com/mikedh/trimesh
v -0.09027045 -0.09763224 -0.00202994 1.14705882 1.11764706 1.35294117
v -0.09057176 -0.09763224 -0.00270516 1.14705882 1.11764706 1.35294117
v -0.09522246 -0.09522306 -0.00851490 1.14705882 1.11764706 1.35294117
v -0.09796299 -0.09246211 -0.00851490 1.14705882 1.11764706 1.35294117
v -0.09680537 -0.09246211 -0.00514873 1.14705882 1.11764706 1.35294117
v -0.09672174 -0.09246211 -0.00485457 1.14705882 1.11764706 1.35294117
v -0.09615375 -0.09246211 -0.00202994 1.14705882 1.11764706 1.35294117
v -0.09033821 -0.09763224 0.01421592 1.14705882 1.11764706 1.35294117
v -0.09225702 -0.09763224 -0.00628861 1.14705882 1.11764706 1.35294117
v -0.09330940 -0.09763224 -0.00851490 1.14705882 1.11764706 1.35294117
v -0.10499816 -0.09246211 -0.00851490 1.14705882 1.11764706 1.35294117
v -0.09646657 -0.09246211 0.01069934 1.14705882 1.11764706 1.35294117
v -0.09683997 -0.09246211 0.01421592 1.14705882 1.11764706 1.35294117
v -0.09878618 -0.09246211 0.02234219 1.14705882 1.11764706 1.35294117
v -0.09435027 -0.09763224 0.02234219 1.14705882 1.11764706 1.35294117
v -0.10499816 -0.09763224 -0.00851490 1.14705882 1.11764706 1.35294117
v -0.10499816 -0.09246211 0.02538411 1.14705882 1.11764706 1.35294117
v -0.10028979 -0.09246211 0.02500971 1.14705882 1.11764706 1.35294117
v -0.09662227 -0.09661847 0.02480247 1.14705882 1.11764706 1.35294117
v -0.09615951 -0.09763224 0.02492949 1.14705882 1.11764706 1.35294117
v -0.10499816 -0.09763224 0.02511335 1.14705882 1.11764706 1.35294117
v -0.10499816 -0.09546903 0.02537742 1.14705882 1.11764706 1.35294117
v -0.10359401 -0.09546903 0.02563482 1.14705882 1.11764706 1.35294117
v -0.10359401 -0.09246211 0.02561475 1.14705882 1.11764706 1.35294117
v -0.09947382 -0.09763224 0.02543091 1.14705882 1.11764706 1.35294117
v -0.10363581 -0.09763224 0.02536405 1.14705882 1.11764706 1.35294117
f 1 2 3
f 1 3 4
f 1 4 5
f 1 5 6
f 1 6 7
f 1 7 8
f 1 8 15
f 1 15 20
f 1 20 25
f 1 25 26
f 1 26 21
f 1 21 16
f 1 16 10
f 1 10 9
f 1 9 2
f 2 9 3
f 3 10 16
f 3 16 11
f 3 11 4
f 3 9 10
f 4 11 17
f 4 17 24
f 4 24 18
f 4 18 14
f 4 14 13
f 4 13 12
f 4 12 7
f 4 7 6
f 4 6 5
f 7 12 8
f 8 12 13
f 8 13 14
f 8 14 15
f 11 16 21
f 11 21 22
f 11 22 17
f 14 18 15
f 15 18 19
f 15 19 20
f 17 22 23
f 17 23 24
f 18 24 20
f 18 20 19
f 20 24 25
f 21 26 22
f 22 26 23
f 23 26 25
f 23 25 24