# https://github.com/mikedh/trimesh
v -0.06057471 0.09693818 -0.00850487 0.19999999 0.44705883 0.85294117
v -0.06322717 0.09693818 -0.00851490 0.19999999 0.44705883 0.85294117
v -0.06079958 0.09755091 -0.00851490 0.19999999 0.44705883 0.85294117
v -0.06425740 0.10817538 -0.00851490 0.19999999 0.44705883 0.85294117
v -0.06098313 0.09693818 0.01827891 0.19999999 0.44705883 0.85294117
v -0.07988998 0.09693818 -0.00851490 0.19999999 0.44705883 0.85294117
v -0.08401325 0.10817538 -0.00851490 0.19999999 0.44705883 0.85294117
v -0.06595307 0.10817538 0.01889797 0.19999999 0.44705883 0.85294117
v -0.06122406 0.09693818 0.02234132 0.19999999 0.44705883 0.85294117
v -0.08401325 0.09798873 -0.00851490 0.19999999 0.44705883 0.85294117
v -0.07734537 0.09693818 0.00607161 0.19999999 0.44705883 0.85294117
v -0.08401325 0.10817538 0.02552029 0.19999999 0.44705883 0.85294117
v -0.06682269 0.10817538 0.02225766 0.19999999 0.44705883 0.85294117
v -0.06127224 0.09703718 0.02234132 0.19999999 0.44705883 0.85294117
v -0.06480580 0.10177848 0.02454318 0.19999999 0.44705883 0.85294117
v -0.06409450 0.09953214 0.02482426 0.19999999 0.44705883 0.85294117
v -0.06321341 0.09693818 0.02501166 0.19999999 0.44705883 0.85294117
v -0.08401325 0.09878739 0.00609504 0.19999999 0.44705883 0.85294117
v -0.07373609 0.09693818 0.02234132 0.19999999 0.44705883 0.85294117
v -0.08401325 0.10765616 0.02552029 0.19999999 0.44705883 0.85294117
v -0.07515639 0.10359359 0.02567088 0.19999999 0.44705883 0.85294117
v -0.08328129 0.10817538 0.02552699 0.19999999 0.44705883 0.85294117
v -0.07109508 0.10817538 0.02423197 0.19999999 0.44705883 0.85294117
v -0.06896806 0.10592683 0.02444613 0.19999999 0.44705883 0.85294117
v -0.06738255 0.10331637 0.02477742 0.19999999 0.44705883 0.85294117
v -0.06703378 0.09953214 0.02547345 0.19999999 0.44705883 0.85294117
v -0.06703378 0.09693818 0.02555041 0.19999999 0.44705883 0.85294117
v -0.08401325 0.10076972 0.02234132 0.19999999 0.44705883 0.85294117
v -0.07295595 0.09693818 0.02465026 0.19999999 0.44705883 0.85294117
v -0.08401325 0.10692240 0.02551026 0.19999999 0.44705883 0.85294117
v -0.07921770 0.10359359 0.02553703 0.19999999 0.44705883 0.85294117
v -0.07109508 0.10359359 0.02539983 0.19999999 0.44705883 0.85294117
v -0.07921770 0.10817538 0.02535633 0.19999999 0.44705883 0.85294117
v -0.08276272 0.10817538 0.02550691 0.19999999 0.44705883 0.85294117
v -0.07528029 0.10817538 0.02496816 0.19999999 0.44705883 0.85294117
v -0.07109508 0.10654617 0.02475065 0.19999999 0.44705883 0.85294117
v -0.08401325 0.10359359 0.02536302 0.19999999 0.44705883 0.85294117
v -0.07098495 0.09693818 0.02512878 0.19999999 0.44705883 0.85294117
v -0.08401325 0.10113603 0.02427548 0.19999999 0.44705883 0.85294117
v -0.08401325 0.10124053 0.02471383 0.19999999 0.44705883 0.85294117
v -0.08401325 0.10315356 0.02524590 0.19999999 0.44705883 0.85294117
f 1 2 3
f 1 3 4
f 1 4 5
f 1 5 9
f 1 9 17
f 1 17 27
f 1 27 38
f 1 38 29
f 1 29 19
f 1 19 11
f 1 11 6
f 1 6 2
f 2 6 10
f 2 10 7
f 2 7 4
f 2 4 3
f 4 7 12
f 4 12 22
f 4 22 34
f 4 34 33
f 4 33 35
f 4 35 23
f 4 23 13
f 4 13 8
f 4 8 9
f 4 9 5
f 6 11 10
f 7 10 18
f 7 18 28
f 7 28 39
f 7 39 40
f 7 40 41
f 7 41 37
f 7 37 30
f 7 30 20
f 7 20 12
f 8 13 14
f 8 14 9
f 9 14 15
f 9 15 16
f 9 16 17
f 10 11 18
f 11 19 18
f 12 20 21
f 12 21 22
f 13 23 24
f 13 24 15
f 13 15 14
f 15 24 25
f 15 25 26
f 15 26 16
f 16 26 17
f 17 26 27
f 18 19 28
f 19 29 28
f 20 30 21
f 21 31 27
f 21 27 26
f 21 26 32
f 21 32 33
f 21 33 34
f 21 34 22
f 21 30 31
f 23 35 36
f 23 36 24
f 24 36 25
f 25 36 32
f 25 32 26
f 27 31 37
f 27 37 38
f 28 29 39
f 29 40 39
f 29 38 40
f 30 37 31
f 32 35 33
f 32 36 35
f 37 41 38
f 38 41 40