# https://github.com/mikedh/trimesh
v 0.10575525 0.10570266 -0.00907887 0.27058824 1.18235293 0.08235294
v 0.10575525 0.10570266 -0.01095945 0.27058824 1.18235293 0.08235294
v 0.10126879 0.10570266 -0.00694060 0.27058824 1.18235293 0.08235294
v 0.10575525 0.10126730 -0.00694060 0.27058824 1.18235293 0.08235294
v 0.10575525 0.09219018 -0.01095945 0.27058824 1.18235293 0.08235294
v 0.08354908 0.10570266 -0.01095945 0.27058824 1.18235293 0.08235294
v 0.08354908 0.10570266 -0.00694060 0.27058824 1.18235293 0.08235294
v 0.10575525 0.09219018 -0.00694060 0.27058824 1.18235293 0.08235294
v 0.09074826 0.09219018 -0.01095945 0.27058824 1.18235293 0.08235294
v 0.08354908 0.09407387 -0.01095945 0.27058824 1.18235293 0.08235294
v 0.08354908 0.09851850 -0.00694060 0.27058824 1.18235293 0.08235294
v 0.09686061 0.09219018 -0.00694060 0.27058824 1.18235293 0.08235294
v 0.08854200 0.09270609 -0.01095945 0.27058824 1.18235293 0.08235294
f 1 2 6
f 1 6 7
f 1 7 3
f 1 3 4
f 1 4 8
f 1 8 5
f 1 5 2
f 2 5 9
f 2 9 13
f 2 13 10
f 2 10 6
f 3 7 11
f 3 11 12
f 3 12 8
f 3 8 4
f 5 8 12
f 5 12 9
f 6 10 11
f 6 11 7
f 9 12 13
f 10 13 12
f 10 12 11