# https://github.com/mikedh/trimesh
v -0.09470800 0.09377961 -0.00851490 1.00000000 1.17647060 0.41764705
v -0.09591207 0.09164498 -0.00851490 1.00000000 1.17647060 0.41764705
v -0.10627978 0.09377961 -0.00851490 1.00000000 1.17647060 0.41764705
v -0.09525850 0.09377961 0.01015550 1.00000000 1.17647060 0.41764705
v -0.09850372 0.08733405 0.01015550 1.00000000 1.17647060 0.41764705
v -0.09860452 0.08733405 -0.00851490 1.00000000 1.17647060 0.41764705
v -0.10627978 0.09377961 0.02523015 1.00000000 1.17647060 0.41764705
v -0.10627978 0.08733405 -0.00851490 1.00000000 1.17647060 0.41764705
v -0.09809595 0.09377961 0.02234288 1.00000000 1.17647060 0.41764705
v -0.10058904 0.08733405 0.02234288 1.00000000 1.17647060 0.41764705
v -0.10627978 0.08872160 0.02552423 1.00000000 1.17647060 0.41764705
v -0.10547670 0.09377961 0.02537718 1.00000000 1.17647060 0.41764705
v -0.10627978 0.08733405 0.02545739 1.00000000 1.17647060 0.41764705
v -0.09818996 0.09377961 0.02253669 1.00000000 1.17647060 0.41764705
v -0.10115992 0.08733405 0.02476564 1.00000000 1.17647060 0.41764705
v -0.10360094 0.08733405 0.02541729 1.00000000 1.17647060 0.41764705
v -0.10359413 0.09140646 0.02560777 1.00000000 1.17647060 0.41764705
v -0.10359413 0.09377961 0.02562447 1.00000000 1.17647060 0.41764705
v -0.10474157 0.09377961 0.02547410 1.00000000 1.17647060 0.41764705
v -0.09988789 0.09377961 0.02507309 1.00000000 1.17647060 0.41764705
v -0.10115992 0.08734479 0.02476899 1.00000000 1.17647060 0.41764705
v -0.10359413 0.08734479 0.02541729 1.00000000 1.17647060 0.41764705
v -0.10107157 0.09377961 0.02533374 1.00000000 1.17647060 0.41764705
f 1 2 6
f 1 6 8
f 1 8 3
f 1 3 7
f 1 7 12
f 1 12 19
f 1 19 18
f 1 18 23
f 1 23 20
f 1 20 14
f 1 14 9
f 1 9 4
f 1 4 5
f 1 5 2
f 2 5 6
f 3 8 13
f 3 13 11
f 3 11 7
f 4 9 10
f 4 10 5
f 5 10 15
f 5 15 16
f 5 16 13
f 5 13 8
f 5 8 6
f 7 11 12
f 9 14 15
f 9 15 10
f 11 13 16
f 11 16 17
f 11 17 18
f 11 18 19
f 11 19 12
f 14 20 15
f 15 20 21
f 15 21 16
f 16 22 17
f 16 21 22
f 17 22 23
f 17 23 18
f 20 23 22
f 20 22 21