# https://github.com/mikedh/trimesh
v 0.08327854 -0.05740437 -0.00863002 0.21764706 1.47058824 0.71176470
v 0.07921865 -0.05772518 -0.00863002 0.21764706 1.47058824 0.71176470
v 0.08327854 -0.05789229 -0.00606996 0.21764706 1.47058824 0.71176470
v 0.08705000 -0.05748196 -0.00863002 0.21764706 1.47058824 0.71176470
v 0.07515874 -0.05852791 -0.00863002 0.21764706 1.47058824 0.71176470
v 0.07921865 -0.05837422 -0.00606996 0.21764706 1.47058824 0.71176470
v 0.08734280 -0.05802807 -0.00606996 0.21764706 1.47058824 0.71176470
v 0.08734280 -0.05749092 -0.00863002 0.21764706 1.47058824 0.71176470
v 0.07515874 -0.05951270 -0.00606996 0.21764706 1.47058824 0.71176470
v 0.07919679 -0.05838019 -0.00606996 0.21764706 1.47058824 0.71176470
v 0.07168881 -0.05964549 -0.00863002 0.21764706 1.47058824 0.71176470
v 0.09138085 -0.05879799 -0.00606996 0.21764706 1.47058824 0.71176470
v 0.09059859 -0.05786692 -0.00863002 0.21764706 1.47058824 0.71176470
v 0.07514126 -0.05951866 -0.00606996 0.21764706 1.47058824 0.71176470
v 0.06706080 -0.06312951 -0.00863002 0.21764706 1.47058824 0.71176470
v 0.06765514 -0.06383975 -0.00606996 0.21764706 1.47058824 0.71176470
v 0.07049139 -0.06182094 -0.00606996 0.21764706 1.47058824 0.71176470
v 0.07050887 -0.06180902 -0.00606996 0.21764706 1.47058824 0.71176470
v 0.07253664 -0.06060042 -0.00606996 0.21764706 1.47058824 0.71176470
v 0.09140708 -0.05880395 -0.00606996 0.21764706 1.47058824 0.71176470
v 0.09140708 -0.05802210 -0.00863002 0.21764706 1.47058824 0.71176470
v 0.06563611 -0.06560787 -0.00606996 0.21764706 1.47058824 0.71176470
v 0.06313200 -0.06705519 -0.00863002 0.21764706 1.47058824 0.71176470
v 0.09513046 -0.06013638 -0.00606996 0.21764706 1.47058824 0.71176470
v 0.09559808 -0.05927545 -0.00863002 0.21764706 1.47058824 0.71176470
v 0.09466286 -0.05894122 -0.00863002 0.21764706 1.47058824 0.71176470
v 0.06561426 -0.06563025 -0.00606996 0.21764706 1.47058824 0.71176470
v 0.05964897 -0.07168363 -0.00863002 0.21764706 1.47058824 0.71176470
v 0.06384435 -0.06764904 -0.00606996 0.21764706 1.47058824 0.71176470
v 0.09516543 -0.06014981 -0.00606996 0.21764706 1.47058824 0.71176470
v 0.09610501 -0.05951568 -0.00863002 0.21764706 1.47058824 0.71176470
v 0.09718445 -0.06110027 -0.00606996 0.21764706 1.47058824 0.71176470
v 0.05935617 -0.07264603 -0.00863002 0.21764706 1.47058824 0.71176470
v 0.06055360 -0.07264603 -0.00606996 0.21764706 1.47058824 0.71176470
v 0.06060166 -0.07253264 -0.00606996 0.21764706 1.47058824 0.71176470
v 0.06180785 -0.07051235 -0.00606996 0.21764706 1.47058824 0.71176470
v 0.06182532 -0.07048400 -0.00606996 0.21764706 1.47058824 0.71176470
v 0.10206158 -0.06300715 -0.00863002 0.21764706 1.47058824 0.71176470
v 0.09952688 -0.06266845 -0.00606996 0.21764706 1.47058824 0.71176470
v 0.07650039 -0.07264603 -0.00863002 0.21764706 1.47058824 0.71176470
v 0.07604589 -0.07264603 -0.00606996 0.21764706 1.47058824 0.71176470
v 0.10293997 -0.06365023 -0.00863002 0.21764706 1.47058824 0.71176470
v 0.10208343 -0.06454997 -0.00606996 0.21764706 1.47058824 0.71176470
v 0.10399757 -0.07242371 -0.00606996 0.21764706 1.47058824 0.71176470
v 0.07648728 -0.07264603 -0.00854382 0.21764706 1.47058824 0.71176470
v 0.10399757 -0.07242371 -0.00863002 0.21764706 1.47058824 0.71176470
v 0.07605026 -0.07264603 -0.00609400 0.21764706 1.47058824 0.71176470
v 0.10399757 -0.06627333 -0.00606996 0.21764706 1.47058824 0.71176470
v 0.10363922 -0.06428140 -0.00863002 0.21764706 1.47058824 0.71176470
v 0.10399757 -0.06494837 -0.00863002 0.21764706 1.47058824 0.71176470
v 0.10399757 -0.06591075 -0.00664456 0.21764706 1.47058824 0.71176470
f 1 2 3
f 1 3 4
f 1 4 8
f 1 8 13
f 1 13 21
f 1 21 26
f 1 26 25
f 1 25 31
f 1 31 38
f 1 38 42
f 1 42 49
f 1 49 50
f 1 50 46
f 1 46 40
f 1 40 33
f 1 33 28
f 1 28 23
f 1 23 15
f 1 15 11
f 1 11 5
f 1 5 2
f 2 5 6
f 2 6 3
f 3 6 10
f 3 10 9
f 3 9 14
f 3 14 19
f 3 19 18
f 3 18 17
f 3 17 16
f 3 16 22
f 3 22 27
f 3 27 29
f 3 29 37
f 3 37 36
f 3 36 35
f 3 35 34
f 3 34 41
f 3 41 44
f 3 44 48
f 3 48 43
f 3 43 39
f 3 39 32
f 3 32 30
f 3 30 24
f 3 24 20
f 3 20 12
f 3 12 7
f 3 7 8
f 3 8 4
f 5 9 10
f 5 10 6
f 5 11 9
f 7 12 13
f 7 13 8
f 9 11 14
f 11 15 16
f 11 16 17
f 11 17 18
f 11 18 19
f 11 19 14
f 12 20 21
f 12 21 13
f 15 22 16
f 15 23 22
f 20 24 25
f 20 25 26
f 20 26 21
f 22 23 27
f 23 28 29
f 23 29 27
f 24 30 25
f 25 30 32
f 25 32 31
f 28 33 34
f 28 34 35
f 28 35 36
f 28 36 37
f 28 37 29
f 31 32 38
f 32 39 38
f 33 40 45
f 33 45 47
f 33 47 41
f 33 41 34
f 38 39 42
f 39 43 42
f 40 44 45
f 40 46 44
f 41 47 44
f 42 43 48
f 42 48 49
f 44 46 50
f 44 50 51
f 44 51 48
f 44 47 45
f 48 51 49
f 49 51 50