# https://github.com/mikedh/trimesh
v 0.06404649 -0.10973447 -0.00606687 1.07058823 0.42941177 0.27058824
v 0.06415530 -0.10973447 0.01827976 1.07058823 0.42941177 0.27058824
v 0.06640008 -0.10627511 0.01827976 1.07058823 0.42941177 0.27058824
v 0.06638397 -0.10627511 -0.00454811 1.07058823 0.42941177 0.27058824
v 0.06638800 -0.10627511 -0.00606687 1.07058823 0.42941177 0.27058824
v 0.10521432 -0.10973447 -0.00606687 1.07058823 0.42941177 0.27058824
v 0.06431247 -0.10973447 0.02208132 1.07058823 0.42941177 0.27058824
v 0.06649278 -0.10627511 0.01976760 1.07058823 0.42941177 0.27058824
v 0.10156704 -0.10627511 -0.00606687 1.07058823 0.42941177 0.27058824
v 0.10521432 -0.10973447 0.01421839 1.07058823 0.42941177 0.27058824
v 0.06843127 -0.10973447 0.02356916 1.07058823 0.42941177 0.27058824
v 0.07021260 -0.10627511 0.02462085 1.07058823 0.42941177 0.27058824
v 0.06868114 -0.10627511 0.02402387 1.07058823 0.42941177 0.27058824
v 0.06743180 -0.10627511 0.02312992 1.07058823 0.42941177 0.27058824
v 0.06713760 -0.10627511 0.02231331 1.07058823 0.42941177 0.27058824
v 0.10156704 -0.10627511 0.01421839 1.07058823 0.42941177 0.27058824
v 0.10520626 -0.10973447 0.01827976 1.07058823 0.42941177 0.27058824
v 0.07530265 -0.10973447 0.02496109 1.07058823 0.42941177 0.27058824
v 0.07109520 -0.10627511 0.02480645 1.07058823 0.42941177 0.27058824
v 0.10154286 -0.10627511 0.01827976 1.07058823 0.42941177 0.27058824
v 0.10351361 -0.10973447 0.02221433 1.07058823 0.42941177 0.27058824
v 0.10036607 -0.10627511 0.02258552 1.07058823 0.42941177 0.27058824
v 0.07714040 -0.10973447 0.02514360 1.07058823 0.42941177 0.27058824
v 0.07525026 -0.10627511 0.02521784 1.07058823 0.42941177 0.27058824
v 0.09836712 -0.10627511 0.02479096 1.07058823 0.42941177 0.27058824
v 0.09958422 -0.10973447 0.02381970 1.07058823 0.42941177 0.27058824
v 0.07921995 -0.10973447 0.02534775 1.07058823 0.42941177 0.27058824
v 0.07921995 -0.10627511 0.02541272 1.07058823 0.42941177 0.27058824
v 0.09649311 -0.10627511 0.02502295 1.07058823 0.42941177 0.27058824
v 0.09159649 -0.10973447 0.02504461 1.07058823 0.42941177 0.27058824
v 0.09825831 -0.10650810 0.02476003 1.07058823 0.42941177 0.27058824
v 0.08120680 -0.10973447 0.02543745 1.07058823 0.42941177 0.27058824
v 0.08328233 -0.10973447 0.02553026 1.07058823 0.42941177 0.27058824
v 0.08328233 -0.10765714 0.02553026 1.07058823 0.42941177 0.27058824
v 0.08466063 -0.10627511 0.02549313 1.07058823 0.42941177 0.27058824
v 0.09546543 -0.10627511 0.02514669 1.07058823 0.42941177 0.27058824
v 0.08734066 -0.10973447 0.02547767 1.07058823 0.42941177 0.27058824
v 0.08872300 -0.10627511 0.02552097 1.07058823 0.42941177 0.27058824
f 1 2 3
f 1 3 4
f 1 4 5
f 1 5 9
f 1 9 6
f 1 6 10
f 1 10 17
f 1 17 21
f 1 21 26
f 1 26 30
f 1 30 37
f 1 37 33
f 1 33 32
f 1 32 27
f 1 27 23
f 1 23 18
f 1 18 11
f 1 11 7
f 1 7 2
f 2 7 3
f 3 8 15
f 3 15 14
f 3 14 13
f 3 13 12
f 3 12 19
f 3 19 24
f 3 24 28
f 3 28 35
f 3 35 38
f 3 38 36
f 3 36 29
f 3 29 25
f 3 25 22
f 3 22 20
f 3 20 16
f 3 16 9
f 3 9 5
f 3 5 4
f 3 7 8
f 6 9 16
f 6 16 10
f 7 11 12
f 7 12 13
f 7 13 14
f 7 14 15
f 7 15 8
f 10 16 17
f 11 18 19
f 11 19 12
f 16 20 17
f 17 20 22
f 17 22 21
f 18 23 19
f 19 23 24
f 21 25 26
f 21 22 25
f 23 27 24
f 24 27 28
f 25 29 30
f 25 30 31
f 25 31 26
f 26 31 30
f 27 32 28
f 28 32 33
f 28 33 34
f 28 34 35
f 29 36 30
f 30 36 37
f 33 37 38
f 33 38 34
f 34 38 35
f 36 38 37