# https://github.com/mikedh/trimesh
v -0.05551788 -0.09400716 -0.01106718 0.27647060 1.41176470 1.10588235
v -0.05886806 -0.09400716 -0.00851514 0.27647060 1.41176470 1.10588235
v -0.05587068 -0.09553721 -0.01106718 0.27647060 1.41176470 1.10588235
v -0.07774644 -0.09400716 -0.01106718 0.27647060 1.41176470 1.10588235
v -0.05931510 -0.09557019 -0.00851514 0.27647060 1.41176470 1.10588235
v -0.07272387 -0.09400716 -0.00851514 0.27647060 1.41176470 1.10588235
v -0.05773966 -0.09953127 -0.01106718 0.27647060 1.41176470 1.10588235
v -0.08303022 -0.09642325 -0.01106718 0.27647060 1.41176470 1.10588235
v -0.06244174 -0.10036381 -0.00851514 0.27647060 1.41176470 1.10588235
v -0.08303022 -0.09934772 -0.00851514 0.27647060 1.41176470 1.10588235
v -0.05840754 -0.10036381 -0.01106718 0.27647060 1.41176470 1.10588235
v -0.08303022 -0.10036381 -0.01106718 0.27647060 1.41176470 1.10588235
v -0.08303022 -0.10036381 -0.00851514 0.27647060 1.41176470 1.10588235
f 1 2 3
f 1 3 7
f 1 7 11
f 1 11 12
f 1 12 8
f 1 8 4
f 1 4 6
f 1 6 2
f 2 5 3
f 2 6 10
f 2 10 13
f 2 13 9
f 2 9 5
f 3 5 7
f 4 8 6
f 5 9 7
f 6 8 10
f 7 9 11
f 8 12 13
f 8 13 10
f 9 13 12
f 9 12 11