# https://github.com/mikedh/trimesh
v 0.08863671 -0.10627349 -0.00606996 1.20588235 0.85294117 0.60588235
v 0.08863671 -0.09958416 -0.00606996 1.20588235 0.85294117 0.60588235
v 0.09567021 -0.10627349 -0.00606996 1.20588235 0.85294117 0.60588235
v 0.08863671 -0.10627349 0.02551805 1.20588235 0.85294117 0.60588235
v 0.09567021 -0.09539785 -0.00606996 1.20588235 0.85294117 0.60588235
v 0.08863671 -0.09889225 -0.00332304 1.20588235 0.85294117 0.60588235
v 0.09567021 -0.09308720 0.00203422 1.20588235 0.85294117 0.60588235
v 0.09567021 -0.10627349 0.02512074 1.20588235 0.85294117 0.60588235
v 0.08872690 -0.10627349 0.02552115 1.20588235 0.85294117 0.60588235
v 0.09140742 -0.10359362 0.02560804 1.20588235 0.85294117 0.60588235
v 0.08863671 -0.10359362 0.02548080 1.20588235 0.85294117 0.60588235
v 0.08863671 -0.09865989 -0.00210943 1.20588235 0.85294117 0.60588235
v 0.08863671 -0.09825198 0.00203422 1.20588235 0.85294117 0.60588235
v 0.08863671 -0.09969389 0.01827984 1.20588235 0.85294117 0.60588235
v 0.08863671 -0.10018572 0.02234279 1.20588235 0.85294117 0.60588235
v 0.09567021 -0.09633245 0.02234279 1.20588235 0.85294117 0.60588235
v 0.09567021 -0.10614698 0.02514558 1.20588235 0.85294117 0.60588235
v 0.09546917 -0.10627349 0.02514558 1.20588235 0.85294117 0.60588235
v 0.09546917 -0.10359362 0.02563599 1.20588235 0.85294117 0.60588235
v 0.09567021 -0.10339224 0.02563910 1.20588235 0.85294117 0.60588235
v 0.09567021 -0.09941894 0.02518903 1.20588235 0.85294117 0.60588235
v 0.09567021 -0.09908587 0.02514868 1.20588235 0.85294117 0.60588235
v 0.08863671 -0.10264611 0.02527594 1.20588235 0.85294117 0.60588235
v 0.08863671 -0.10058330 0.02400026 1.20588235 0.85294117 0.60588235
v 0.08863671 -0.10098477 0.02483208 1.20588235 0.85294117 0.60588235
v 0.09567021 -0.09711601 0.02391956 1.20588235 0.85294117 0.60588235
v 0.09567021 -0.10359749 0.02561115 1.20588235 0.85294117 0.60588235
v 0.09567021 -0.09870249 0.02506178 1.20588235 0.85294117 0.60588235
f 1 2 5
f 1 5 3
f 1 3 8
f 1 8 18
f 1 18 9
f 1 9 4
f 1 4 11
f 1 11 23
f 1 23 25
f 1 25 24
f 1 24 15
f 1 15 14
f 1 14 13
f 1 13 12
f 1 12 6
f 1 6 2
f 2 6 7
f 2 7 5
f 3 5 7
f 3 7 16
f 3 16 26
f 3 26 28
f 3 28 22
f 3 22 21
f 3 21 20
f 3 20 27
f 3 27 17
f 3 17 8
f 4 9 10
f 4 10 11
f 6 12 7
f 7 12 13
f 7 13 14
f 7 14 15
f 7 15 16
f 8 17 18
f 9 19 10
f 9 18 19
f 10 19 20
f 10 20 21
f 10 21 22
f 10 22 11
f 11 22 23
f 15 24 16
f 16 24 25
f 16 25 26
f 17 27 19
f 17 19 18
f 19 27 20
f 22 28 23
f 23 28 25
f 25 28 26