# https://github.com/mikedh/trimesh
v -0.08401554 0.10817538 0.02551880 1.28235294 0.01176471 0.53529413
v -0.08734559 0.10817538 0.02547530 1.28235294 0.01176471 0.53529413
v -0.09546804 0.10359359 0.02563255 1.28235294 0.01176471 0.53529413
v -0.09140790 0.10359359 0.02560914 1.28235294 0.01176471 0.53529413
v -0.08401554 0.10765686 0.02551880 1.28235294 0.01176471 0.53529413
v -0.08401554 0.10817538 -0.00851490 1.28235294 0.01176471 0.53529413
v -0.09158224 0.10817538 0.02504364 1.28235294 0.01176471 0.53529413
v -0.09546804 0.10712318 0.02498342 1.28235294 0.01176471 0.53529413
v -0.09953034 0.09953233 0.02566936 1.28235294 0.01176471 0.53529413
v -0.09957393 0.10366939 0.02512060 1.28235294 0.01176471 0.53529413
v -0.10121280 0.09785043 0.02565264 1.28235294 0.01176471 0.53529413
v -0.08401554 0.10359359 0.02536152 1.28235294 0.01176471 0.53529413
v -0.08401554 0.10692304 0.02550876 1.28235294 0.01176471 0.53529413
v -0.08401554 0.09798789 -0.00851490 1.28235294 0.01176471 0.53529413
v -0.10438812 0.10817538 -0.00851490 1.28235294 0.01176471 0.53529413
v -0.09546804 0.10817538 0.02458521 1.28235294 0.01176471 0.53529413
v -0.09824887 0.10650156 0.02475587 1.28235294 0.01176471 0.53529413
v -0.10366893 0.09957580 0.02512060 1.28235294 0.01176471 0.53529413
v -0.10363625 0.09785043 0.02533810 1.28235294 0.01176471 0.53529413
v -0.10236351 0.10236651 0.02480607 1.28235294 0.01176471 0.53529413
v -0.09948022 0.09785043 0.02545857 1.28235294 0.01176471 0.53529413
v -0.08401554 0.10124052 0.02471571 1.28235294 0.01176471 0.53529413
v -0.08401554 0.10315390 0.02524441 1.28235294 0.01176471 0.53529413
v -0.08761582 0.09785043 -0.00851490 1.28235294 0.01176471 0.53529413
v -0.08401554 0.09878740 0.00609440 1.28235294 0.01176471 0.53529413
v -0.09039450 0.09785043 0.01015327 1.28235294 0.01176471 0.53529413
v -0.10627761 0.10203397 -0.00851490 1.28235294 0.01176471 0.53529413
v -0.10627761 0.10151848 0.01828107 1.28235294 0.01176471 0.53529413
v -0.10351638 0.10817538 0.01828107 1.28235294 0.01176471 0.53529413
v -0.09649451 0.10817538 0.02441121 1.28235294 0.01176471 0.53529413
v -0.09972649 0.10817538 0.02311291 1.28235294 0.01176471 0.53529413
v -0.10476515 0.09785043 0.02513064 1.28235294 0.01176471 0.53529413
v -0.10627761 0.09835479 0.02478598 1.28235294 0.01176471 0.53529413
v -0.09690423 0.09785043 0.02515071 1.28235294 0.01176471 0.53529413
v -0.08401554 0.10113642 0.02427402 1.28235294 0.01176471 0.53529413
v -0.09605864 0.09785043 0.02495664 1.28235294 0.01176471 0.53529413
v -0.10627761 0.09785043 -0.00851490 1.28235294 0.01176471 0.53529413
v -0.08401554 0.10076952 0.02234329 1.28235294 0.01176471 0.53529413
v -0.09412990 0.09785043 0.02234329 1.28235294 0.01176471 0.53529413
v -0.10627761 0.10035004 0.02258757 1.28235294 0.01176471 0.53529413
v -0.10317640 0.10817538 0.01916111 1.28235294 0.01176471 0.53529413
v -0.10158765 0.10817538 0.02197523 1.28235294 0.01176471 0.53529413
v -0.10627761 0.09785043 0.02484621 1.28235294 0.01176471 0.53529413
v -0.09426504 0.09785043 0.02261099 1.28235294 0.01176471 0.53529413
f 1 2 3
f 1 3 4
f 1 4 5
f 1 5 13
f 1 13 12
f 1 12 23
f 1 23 22
f 1 22 35
f 1 35 38
f 1 38 25
f 1 25 14
f 1 14 6
f 1 6 15
f 1 15 29
f 1 29 41
f 1 41 42
f 1 42 31
f 1 31 30
f 1 30 16
f 1 16 7
f 1 7 2
f 2 7 8
f 2 8 3
f 3 9 4
f 3 8 10
f 3 10 9
f 4 9 11
f 4 11 12
f 4 12 13
f 4 13 5
f 6 14 24
f 6 24 37
f 6 37 27
f 6 27 15
f 7 16 8
f 8 16 17
f 8 17 10
f 9 10 18
f 9 18 19
f 9 19 11
f 10 17 20
f 10 20 18
f 11 19 32
f 11 32 43
f 11 43 37
f 11 37 24
f 11 24 26
f 11 26 39
f 11 39 44
f 11 44 36
f 11 36 34
f 11 34 21
f 11 21 22
f 11 22 23
f 11 23 12
f 14 25 26
f 14 26 24
f 15 27 28
f 15 28 29
f 16 30 17
f 17 30 31
f 17 31 20
f 18 32 19
f 18 20 33
f 18 33 32
f 20 31 33
f 21 34 22
f 22 34 36
f 22 36 35
f 25 38 39
f 25 39 26
f 27 37 43
f 27 43 33
f 27 33 40
f 27 40 28
f 28 40 29
f 29 40 41
f 31 42 33
f 32 33 43
f 33 42 40
f 35 36 44
f 35 44 38
f 38 44 39
f 40 42 41