# https://github.com/mikedh/trimesh
v 0.05789458 0.08328108 0.00203112 0.01176471 1.15294118 0.21764706
v 0.05789458 0.08328108 0.00636098 0.01176471 1.15294118 0.21764706
v 0.05794308 0.08463198 0.00203112 0.01176471 1.15294118 0.21764706
v 0.05794668 0.08463198 -0.00293379 0.01176471 1.15294118 0.21764706
v 0.05789997 0.08328108 -0.00293379 0.01176471 1.15294118 0.21764706
v 0.05800414 0.08237799 -0.00293379 0.01176471 1.15294118 0.21764706
v 0.05837414 0.07921844 -0.00293379 0.01176471 1.15294118 0.21764706
v 0.05837594 0.07921844 0.00636098 0.01176471 1.15294118 0.21764706
v 0.05794308 0.08463198 0.00636098 0.01176471 1.15294118 0.21764706
v 0.06975213 0.08463198 -0.00293379 0.01176471 1.15294118 0.21764706
v 0.05862738 0.07831535 -0.00293379 0.01176471 1.15294118 0.21764706
v 0.05953080 0.07515579 -0.00293379 0.01176471 1.15294118 0.21764706
v 0.05953799 0.07515579 0.00636098 0.01176471 1.15294118 0.21764706
v 0.06910015 0.08463198 0.00636098 0.01176471 1.15294118 0.21764706
v 0.07624125 0.07241418 -0.00203307 0.01176471 1.15294118 0.21764706
v 0.07624125 0.07218282 -0.00293379 0.01176471 1.15294118 0.21764706
v 0.06972878 0.08463198 -0.00166458 0.01176471 1.15294118 0.21764706
v 0.06061202 0.07251618 -0.00293379 0.01176471 1.15294118 0.21764706
v 0.06054556 0.07269033 0.00636098 0.01176471 1.15294118 0.21764706
v 0.07624125 0.07093889 0.00636098 0.01176471 1.15294118 0.21764706
v 0.07624125 0.07125734 0.00497714 0.01176471 1.15294118 0.21764706
v 0.07624125 0.05921866 -0.00293379 0.01176471 1.15294118 0.21764706
v 0.06069463 0.07238433 0.00636098 0.01176471 1.15294118 0.21764706
v 0.06061740 0.07251867 0.00636098 0.01176471 1.15294118 0.21764706
v 0.06152979 0.07093889 -0.00293379 0.01176471 1.15294118 0.21764706
v 0.06179740 0.07048859 0.00636098 0.01176471 1.15294118 0.21764706
v 0.07624125 0.05922861 0.00636098 0.01176471 1.15294118 0.21764706
v 0.07542225 0.05946248 0.00636098 0.01176471 1.15294118 0.21764706
v 0.07515644 0.05952965 -0.00293379 0.01176471 1.15294118 0.21764706
v 0.06179740 0.07048859 -0.00293379 0.01176471 1.15294118 0.21764706
v 0.06382873 0.06763752 0.00636098 0.01176471 1.15294118 0.21764706
v 0.07515644 0.05953959 0.00636098 0.01176471 1.15294118 0.21764706
v 0.07268866 0.06053970 0.00636098 0.01176471 1.15294118 0.21764706
v 0.07251446 0.06060688 -0.00293379 0.01176471 1.15294118 0.21764706
v 0.06382873 0.06763752 -0.00293379 0.01176471 1.15294118 0.21764706
v 0.06520990 0.06605774 -0.00293379 0.01176471 1.15294118 0.21764706
v 0.06560504 0.06560743 0.00636098 0.01176471 1.15294118 0.21764706
v 0.07251446 0.06061185 0.00636098 0.01176471 1.15294118 0.21764706
v 0.07238154 0.06068898 0.00636098 0.01176471 1.15294118 0.21764706
v 0.07048311 0.06180354 0.00636098 0.01176471 1.15294118 0.21764706
v 0.07093392 0.06153485 -0.00293379 0.01176471 1.15294118 0.21764706
v 0.06560504 0.06560743 -0.00293379 0.01176471 1.15294118 0.21764706
v 0.06605585 0.06521187 -0.00293379 0.01176471 1.15294118 0.21764706
v 0.06749988 0.06395054 0.00636098 0.01176471 1.15294118 0.21764706
v 0.06763278 0.06383361 -0.00293379 0.01176471 1.15294118 0.21764706
v 0.07048311 0.06180354 -0.00293379 0.01176471 1.15294118 0.21764706
v 0.06763278 0.06383610 0.00636098 0.01176471 1.15294118 0.21764706
f 1 2 9
f 1 9 3
f 1 3 4
f 1 4 5
f 1 5 6
f 1 6 7
f 1 7 2
f 2 7 8
f 2 8 13
f 2 13 19
f 2 19 24
f 2 24 23
f 2 23 26
f 2 26 31
f 2 31 37
f 2 37 44
f 2 44 47
f 2 47 40
f 2 40 39
f 2 39 38
f 2 38 33
f 2 33 32
f 2 32 28
f 2 28 27
f 2 27 20
f 2 20 14
f 2 14 9
f 3 9 14
f 3 14 17
f 3 17 10
f 3 10 4
f 4 10 16
f 4 16 22
f 4 22 29
f 4 29 34
f 4 34 41
f 4 41 46
f 4 46 45
f 4 45 43
f 4 43 42
f 4 42 36
f 4 36 35
f 4 35 30
f 4 30 25
f 4 25 18
f 4 18 12
f 4 12 11
f 4 11 7
f 4 7 6
f 4 6 5
f 7 11 8
f 8 11 12
f 8 12 13
f 10 15 16
f 10 17 15
f 12 18 19
f 12 19 13
f 14 15 17
f 14 20 21
f 14 21 15
f 15 21 20
f 15 20 27
f 15 27 22
f 15 22 16
f 18 23 24
f 18 24 19
f 18 25 26
f 18 26 23
f 22 27 28
f 22 28 29
f 25 30 26
f 26 30 35
f 26 35 31
f 28 32 29
f 29 32 33
f 29 33 34
f 31 35 36
f 31 36 37
f 33 38 34
f 34 38 39
f 34 39 40
f 34 40 41
f 36 42 37
f 37 42 43
f 37 43 44
f 40 45 46
f 40 46 41
f 40 47 45
f 43 45 44
f 44 45 47