# https://github.com/mikedh/trimesh
v 0.08399083 -0.10397847 -0.01163504 1.48235293 0.32352941 0.99411765
v 0.10400387 -0.10397847 -0.01163504 1.48235293 0.32352941 0.99411765
v 0.08399083 -0.10397847 -0.00863002 1.48235293 0.32352941 0.99411765
v 0.08399083 -0.09509724 -0.01163504 1.48235293 0.32352941 0.99411765
v 0.10400387 -0.10397847 -0.00912008 1.48235293 0.32352941 0.99411765
v 0.10400387 -0.08317550 -0.01163504 1.48235293 0.32352941 0.99411765
v 0.10337104 -0.10397847 -0.00863002 1.48235293 0.32352941 0.99411765
v 0.08399083 -0.09930874 -0.00863002 1.48235293 0.32352941 0.99411765
v 0.09197058 -0.08317550 -0.01163504 1.48235293 0.32352941 0.99411765
v 0.10400387 -0.10333901 -0.00863002 1.48235293 0.32352941 0.99411765
v 0.10372566 -0.10372187 -0.00863002 1.48235293 0.32352941 0.99411765
v 0.10400387 -0.08317550 -0.00863002 1.48235293 0.32352941 0.99411765
v 0.09829873 -0.08317550 -0.00863002 1.48235293 0.32352941 0.99411765
f 1 2 5
f 1 5 7
f 1 7 3
f 1 3 8
f 1 8 4
f 1 4 9
f 1 9 6
f 1 6 2
f 2 6 12
f 2 12 10
f 2 10 5
f 3 7 11
f 3 11 10
f 3 10 12
f 3 12 13
f 3 13 8
f 4 8 9
f 5 10 11
f 5 11 7
f 6 9 13
f 6 13 12
f 8 13 9