# https://github.com/mikedh/trimesh
v 0.10400387 -0.05892497 -0.01163504 1.00588236 0.31176471 0.18823530
v 0.12410939 -0.05892497 -0.01163504 1.00588236 0.31176471 0.18823530
v 0.10400387 -0.05892497 -0.01145420 1.00588236 0.31176471 0.18823530
v 0.10400387 -0.05497837 -0.01163504 1.00588236 0.31176471 0.18823530
v 0.12410939 -0.05892497 -0.00607595 1.00588236 0.31176471 0.18823530
v 0.12410939 -0.02234406 -0.01163504 1.00588236 0.31176471 0.18823530
v 0.10400387 -0.05849223 -0.01146182 1.00588236 0.31176471 0.18823530
v 0.11020715 -0.05892497 -0.00606996 1.00588236 0.31176471 0.18823530
v 0.11020910 0.00001414 -0.00606996 1.00588236 0.31176471 0.18823530
v 0.10402749 0.00001414 -0.01163504 1.00588236 0.31176471 0.18823530
v 0.12091131 -0.05892497 -0.00606996 1.00588236 0.31176471 0.18823530
v 0.12410939 -0.05890188 -0.00606996 1.00588236 0.31176471 0.18823530
v 0.12228698 0.00001414 -0.01163504 1.00588236 0.31176471 0.18823530
v 0.12410939 -0.02234406 -0.00606996 1.00588236 0.31176471 0.18823530
v 0.12209411 0.00001414 -0.00606996 1.00588236 0.31176471 0.18823530
v 0.12223384 0.00001414 -0.00609393 1.00588236 0.31176471 0.18823530
v 0.12223384 0.00000261 -0.00606996 1.00588236 0.31176471 0.18823530
f 1 2 5
f 1 5 11
f 1 11 8
f 1 8 3
f 1 3 7
f 1 7 4
f 1 4 10
f 1 10 13
f 1 13 6
f 1 6 2
f 2 6 14
f 2 14 12
f 2 12 5
f 3 8 9
f 3 9 10
f 3 10 7
f 4 7 10
f 5 12 11
f 6 13 14
f 8 11 12
f 8 12 14
f 8 14 17
f 8 17 15
f 8 15 9
f 9 15 16
f 9 16 13
f 9 13 10
f 13 16 14
f 14 16 17
f 15 17 16