# https://github.com/mikedh/trimesh
v 0.10575525 0.08138097 0.02553138 1.18823529 0.33529412 0.51764706
v 0.10575525 0.07732071 0.02550045 1.18823529 0.33529412 0.51764706
v 0.10974642 0.08328194 0.02552829 1.18823529 0.33529412 0.51764706
v 0.10765727 0.08328194 0.02552829 1.18823529 0.33529412 0.51764706
v 0.10765727 0.08734220 0.02547879 1.18823529 0.33529412 0.51764706
v 0.10575525 0.08734220 0.02545095 1.18823529 0.33529412 0.51764706
v 0.10974642 0.07922169 0.02535195 1.18823529 0.33529412 0.51764706
v 0.10575525 0.07325238 0.02517252 1.18823529 0.33529412 0.51764706
v 0.10974642 0.08536857 0.02550354 1.18823529 0.33529412 0.51764706
v 0.10974642 0.08734220 0.02547879 1.18823529 0.33529412 0.51764706
v 0.10575525 0.09546673 0.02523749 1.18823529 0.33529412 0.51764706
v 0.10974642 0.07529461 0.02496214 1.18823529 0.33529412 0.51764706
v 0.10575525 0.07109713 0.02491884 1.18823529 0.33529412 0.51764706
v 0.10974642 0.08967906 0.02524058 1.18823529 0.33529412 0.51764706
v 0.10575525 0.09859869 0.02485386 1.18823529 0.33529412 0.51764706
v 0.10974642 0.09158406 0.02504568 1.18823529 0.33529412 0.51764706
v 0.10575525 0.07020114 0.02475177 1.18823529 0.33529412 0.51764706
v 0.10974642 0.07109713 0.02410210 1.18823529 0.33529412 0.51764706
v 0.10650465 0.09824756 0.02475488 1.18823529 0.33529412 0.51764706
v 0.10974642 0.09958348 0.02382367 1.18823529 0.33529412 0.51764706
v 0.10974642 0.10304642 0.02265117 1.18823529 0.33529412 0.51764706
v 0.10575525 0.09968439 0.02388864 1.18823529 0.33529412 0.51764706
v 0.10974642 0.09751301 0.02414852 1.18823529 0.33529412 0.51764706
v 0.10575525 0.06888538 0.02445788 1.18823529 0.33529412 0.51764706
v 0.10974642 0.06713375 0.02305335 1.18823529 0.33529412 0.51764706
v 0.10974642 0.10351460 0.02221496 1.18823529 0.33529412 0.51764706
v 0.10575525 0.10058443 0.02248720 1.18823529 0.33529412 0.51764706
v 0.10575525 0.06702882 0.02232015 1.18823529 0.33529412 0.51764706
v 0.10974642 0.06465563 0.02064646 1.18823529 0.33529412 0.51764706
v 0.10974642 0.10506846 0.01864487 1.18823529 0.33529412 0.51764706
v 0.10974642 0.10520973 0.01827981 1.18823529 0.33529412 0.51764706
v 0.10575525 0.10114544 0.01923266 1.18823529 0.33529412 0.51764706
v 0.10575525 0.06640323 0.01827981 1.18823529 0.33529412 0.51764706
v 0.10974642 0.06410270 0.01827981 1.18823529 0.33529412 0.51764706
v 0.10974642 0.10521780 0.01454574 1.18823529 0.33529412 0.51764706
v 0.10575525 0.10122617 0.01421781 1.18823529 0.33529412 0.51764706
v 0.10575525 0.10122213 0.01535319 1.18823529 0.33529412 0.51764706
v 0.10575525 0.10121001 0.01827981 1.18823529 0.33529412 0.51764706
v 0.10575525 0.06639112 -0.00607361 1.18823529 0.33529412 0.51764706
v 0.10974642 0.06398969 -0.00607361 1.18823529 0.33529412 0.51764706
v 0.10974642 0.10521780 -0.00607361 1.18823529 0.33529412 0.51764706
v 0.10575525 0.10122617 -0.00607361 1.18823529 0.33529412 0.51764706
f 1 2 3
f 1 3 4
f 1 4 5
f 1 5 6
f 1 6 11
f 1 11 15
f 1 15 22
f 1 22 27
f 1 27 32
f 1 32 38
f 1 38 37
f 1 37 36
f 1 36 42
f 1 42 39
f 1 39 33
f 1 33 28
f 1 28 24
f 1 24 17
f 1 17 13
f 1 13 8
f 1 8 2
f 2 7 3
f 2 8 7
f 3 9 4
f 3 7 12
f 3 12 18
f 3 18 25
f 3 25 29
f 3 29 34
f 3 34 40
f 3 40 41
f 3 41 35
f 3 35 31
f 3 31 30
f 3 30 26
f 3 26 21
f 3 21 20
f 3 20 23
f 3 23 16
f 3 16 14
f 3 14 10
f 3 10 9
f 4 9 5
f 5 10 11
f 5 11 6
f 5 9 10
f 7 8 12
f 8 13 12
f 10 14 11
f 11 14 16
f 11 16 15
f 12 13 17
f 12 17 18
f 15 19 20
f 15 20 21
f 15 21 22
f 15 16 19
f 16 23 19
f 17 24 18
f 18 24 25
f 19 23 20
f 21 26 22
f 22 26 27
f 24 28 29
f 24 29 25
f 26 30 27
f 27 30 31
f 27 31 32
f 28 33 34
f 28 34 29
f 31 35 36
f 31 36 37
f 31 37 38
f 31 38 32
f 33 39 40
f 33 40 34
f 35 41 42
f 35 42 36
f 39 42 41
f 39 41 40