# https://github.com/mikedh/trimesh
v -0.10036910 0.08163674 -0.01179052 0.02352940 0.44705883 0.98823530
v -0.09159786 0.08163674 -0.01179052 0.02352940 0.44705883 0.98823530
v -0.10036910 0.08163674 -0.00851521 0.02352940 0.44705883 0.98823530
v -0.10036910 0.10358956 -0.01179052 0.02352940 0.44705883 0.98823530
v -0.09871179 0.08163674 -0.00851521 0.02352940 0.44705883 0.98823530
v -0.08335463 0.09145705 -0.01179052 0.02352940 0.44705883 0.98823530
v -0.08335463 0.09800466 -0.00851586 0.02352940 0.44705883 0.98823530
v -0.10036910 0.10358956 -0.00851521 0.02352940 0.44705883 0.98823530
v -0.08335463 0.10358956 -0.01179052 0.02352940 0.44705883 0.98823530
v -0.08335463 0.09916505 -0.00851521 0.02352940 0.44705883 0.98823530
v -0.08335463 0.10358956 -0.00851521 0.02352940 0.44705883 0.98823530
f 1 2 5
f 1 5 3
f 1 3 8
f 1 8 4
f 1 4 9
f 1 9 6
f 1 6 2
f 2 6 7
f 2 7 5
f 3 5 10
f 3 10 11
f 3 11 8
f 4 8 11
f 4 11 9
f 5 7 10
f 6 9 11
f 6 11 10
f 6 10 7