# https://github.com/mikedh/trimesh
v 0.10400387 -0.10397847 -0.00911942 0.00588236 1.01176470 0.40000000
v 0.10400387 -0.10859559 -0.00606996 0.00588236 1.01176470 0.40000000
v 0.10400387 -0.10397847 -0.01163504 0.00588236 1.01176470 0.40000000
v 0.10240257 -0.10397847 -0.00607976 0.00588236 1.01176470 0.40000000
v 0.10400387 -0.12411014 -0.00606996 0.00588236 1.01176470 0.40000000
v 0.10029397 -0.10397847 -0.00606996 0.00588236 1.01176470 0.40000000
v 0.10400387 -0.12411014 -0.01163504 0.00588236 1.01176470 0.40000000
v 0.05893812 -0.10397847 -0.01163504 0.00588236 1.01176470 0.40000000
v 0.05893812 -0.12411014 -0.00606996 0.00588236 1.01176470 0.40000000
v 0.06645495 -0.10397847 -0.00606996 0.00588236 1.01176470 0.40000000
v 0.06149226 -0.12411014 -0.01163504 0.00588236 1.01176470 0.40000000
v 0.05893812 -0.10787041 -0.01163504 0.00588236 1.01176470 0.40000000
v 0.05893812 -0.10397847 -0.01146018 0.00588236 1.01176470 0.40000000
v 0.05893812 -0.11031790 -0.00606996 0.00588236 1.01176470 0.40000000
v 0.05893812 -0.12411014 -0.01162307 0.00588236 1.01176470 0.40000000
v 0.06628733 -0.10397847 -0.00607160 0.00588236 1.01176470 0.40000000
v 0.05893812 -0.11020755 -0.00607050 0.00588236 1.01176470 0.40000000
f 1 2 5
f 1 5 7
f 1 7 3
f 1 3 8
f 1 8 13
f 1 13 16
f 1 16 10
f 1 10 6
f 1 6 4
f 1 4 2
f 2 4 6
f 2 6 10
f 2 10 14
f 2 14 9
f 2 9 5
f 3 7 11
f 3 11 12
f 3 12 8
f 5 9 15
f 5 15 11
f 5 11 7
f 8 12 15
f 8 15 9
f 8 9 14
f 8 14 17
f 8 17 13
f 10 16 17
f 10 17 14
f 11 15 12
f 13 17 16