# https://github.com/mikedh/trimesh
v -0.09147211 -0.09427078 -0.01106718 1.46470589 1.31176470 0.50588235
v -0.09036498 -0.09442644 -0.01106718 1.46470589 1.31176470 0.50588235
v -0.10547166 -0.09427078 -0.01106718 1.46470589 1.31176470 0.50588235
v -0.09670245 -0.09427078 -0.00851514 1.46470589 1.31176470 0.50588235
v -0.08303242 -0.09642327 -0.01106718 1.46470589 1.31176470 0.50588235
v -0.10547166 -0.10036322 -0.01106718 1.46470589 1.31176470 0.50588235
v -0.10547166 -0.09427078 -0.00851514 1.46470589 1.31176470 0.50588235
v -0.08303242 -0.09934752 -0.00851514 1.46470589 1.31176470 0.50588235
v -0.08303242 -0.10036322 -0.01106718 1.46470589 1.31176470 0.50588235
v -0.10547166 -0.10036322 -0.00851514 1.46470589 1.31176470 0.50588235
v -0.08303242 -0.10036322 -0.00851514 1.46470589 1.31176470 0.50588235
f 1 2 5
f 1 5 9
f 1 9 6
f 1 6 3
f 1 3 7
f 1 7 4
f 1 4 2
f 2 4 5
f 3 6 10
f 3 10 7
f 4 7 10
f 4 10 11
f 4 11 8
f 4 8 5
f 5 8 11
f 5 11 9
f 6 9 11
f 6 11 10