# https://github.com/mikedh/trimesh
v -0.05745516 0.08476212 -0.00851490 1.29411765 0.17058824 0.77058823
v -0.07064880 0.08476212 -0.00851490 1.29411765 0.17058824 0.77058823
v -0.05749905 0.08687022 -0.00851490 1.29411765 0.17058824 0.77058823
v -0.05794737 0.08476212 0.01827971 1.29411765 0.17058824 0.77058823
v -0.07341858 0.09161850 -0.00851490 1.29411765 0.17058824 0.77058823
v -0.06976317 0.08476212 0.00567048 1.29411765 0.17058824 0.77058823
v -0.05751473 0.08734470 -0.00851490 1.29411765 0.17058824 0.77058823
v -0.05803827 0.08734470 0.01827971 1.29411765 0.17058824 0.77058823
v -0.05845836 0.08734470 0.02234223 1.29411765 0.17058824 0.77058823
v -0.05838312 0.08476212 0.02234223 1.29411765 0.17058824 0.77058823
v -0.07346717 0.09184879 -0.00851490 1.29411765 0.17058824 0.77058823
v -0.07203605 0.09184879 0.00582107 1.29411765 0.17058824 0.77058823
v -0.06769407 0.08476212 0.02234223 1.29411765 0.17058824 0.77058823
v -0.05787369 0.09045588 -0.00851490 1.29411765 0.17058824 0.77058823
v -0.05882673 0.09140624 0.01827971 1.29411765 0.17058824 0.77058823
v -0.05911202 0.09140624 0.02234223 1.29411765 0.17058824 0.77058823
v -0.05805552 0.09140624 -0.00851490 1.29411765 0.17058824 0.77058823
v -0.06016694 0.09140624 0.02496581 1.29411765 0.17058824 0.77058823
v -0.05990831 0.08734470 0.02502268 1.29411765 0.17058824 0.77058823
v -0.05987851 0.08476212 0.02502268 1.29411765 0.17058824 0.77058823
v -0.05817934 0.09184879 -0.00851490 1.29411765 0.17058824 0.77058823
v -0.06971144 0.09184879 0.02234223 1.29411765 0.17058824 0.77058823
v -0.06612971 0.08476212 0.02502268 1.29411765 0.17058824 0.77058823
v -0.05898504 0.09184879 0.01827971 1.29411765 0.17058824 0.77058823
v -0.05925152 0.09184879 0.02234223 1.29411765 0.17058824 0.77058823
v -0.06022337 0.09184879 0.02492900 1.29411765 0.17058824 0.77058823
v -0.06294925 0.09184879 0.02556145 1.29411765 0.17058824 0.77058823
v -0.06296963 0.09140624 0.02561166 1.29411765 0.17058824 0.77058823
v -0.06296963 0.08734470 0.02567188 1.29411765 0.17058824 0.77058823
v -0.06296963 0.08476212 0.02567188 1.29411765 0.17058824 0.77058823
v -0.06814238 0.09184879 0.02492900 1.29411765 0.17058824 0.77058823
v -0.06717052 0.09184879 0.02515320 1.29411765 0.17058824 0.77058823
f 1 2 5
f 1 5 11
f 1 11 21
f 1 21 17
f 1 17 14
f 1 14 7
f 1 7 3
f 1 3 4
f 1 4 10
f 1 10 20
f 1 20 30
f 1 30 23
f 1 23 13
f 1 13 6
f 1 6 2
f 2 6 5
f 3 7 4
f 4 8 9
f 4 9 10
f 4 7 8
f 5 6 12
f 5 12 11
f 6 13 12
f 7 14 8
f 8 15 16
f 8 16 9
f 8 14 17
f 8 17 15
f 9 16 18
f 9 18 19
f 9 19 10
f 10 19 20
f 11 12 22
f 11 22 31
f 11 31 32
f 11 32 27
f 11 27 26
f 11 26 25
f 11 25 24
f 11 24 21
f 12 13 22
f 13 23 22
f 15 24 25
f 15 25 16
f 15 17 21
f 15 21 24
f 16 25 26
f 16 26 18
f 18 26 27
f 18 27 28
f 18 28 19
f 19 28 29
f 19 29 20
f 20 29 30
f 22 23 31
f 23 30 32
f 23 32 31
f 27 32 28
f 28 32 29
f 29 32 30