# https://github.com/mikedh/trimesh
v 0.07504685 0.09541674 0.01005861 1.30588236 0.43529412 1.27058823
v 0.06963051 0.08469252 0.01328991 1.30588236 0.43529412 1.27058823
v 0.06984482 0.08469252 0.01216147 1.30588236 0.43529412 1.27058823
v 0.07006582 0.08469252 0.01015941 1.30588236 0.43529412 1.27058823
v 0.06975105 0.08463447 -0.00293379 1.30588236 0.43529412 1.27058823
v 0.07440057 0.09511700 -0.00293379 1.30588236 0.43529412 1.27058823
v 0.07481412 0.09541674 0.00648851 1.30588236 0.43529412 1.27058823
v 0.07228593 0.09541674 0.02234259 1.30588236 0.43529412 1.27058823
v 0.06769000 0.08469252 0.02234259 1.30588236 0.43529412 1.27058823
v 0.06909975 0.08463447 0.00636251 1.30588236 0.43529412 1.27058823
v 0.06972929 0.08463447 -0.00166256 1.30588236 0.43529412 1.27058823
v 0.05794729 0.08463447 -0.00293379 1.30588236 0.43529412 1.27058823
v 0.06015066 0.09511700 -0.00293379 1.30588236 0.43529412 1.27058823
v 0.07473040 0.09541674 0.00636251 1.30588236 0.43529412 1.27058823
v 0.07216706 0.09541674 0.02280741 1.30588236 0.43529412 1.27058823
v 0.06669548 0.08469252 0.02409264 1.30588236 0.43529412 1.27058823
v 0.05794395 0.08463447 0.00636251 1.30588236 0.43529412 1.27058823
v 0.06612956 0.08469252 0.02501947 1.30588236 0.43529412 1.27058823
v 0.06409697 0.08469252 0.02544508 1.30588236 0.43529412 1.27058823
v 0.06297018 0.08469252 0.02567188 1.30588236 0.43529412 1.27058823
v 0.05794395 0.08463447 0.00203357 1.30588236 0.43529412 1.27058823
v 0.05804272 0.08734482 -0.00293379 1.30588236 0.43529412 1.27058823
v 0.06028964 0.09541674 0.00636251 1.30588236 0.43529412 1.27058823
v 0.05882295 0.09140611 -0.00293379 1.30588236 0.43529412 1.27058823
v 0.05882798 0.09140611 0.01827966 1.30588236 0.43529412 1.27058823
v 0.06016908 0.09515289 0.01827966 1.30588236 0.43529412 1.27058823
v 0.06028964 0.09541674 0.01827966 1.30588236 0.43529412 1.27058823
v 0.07078912 0.09541674 0.02492707 1.30588236 0.43529412 1.27058823
v 0.05794563 0.08469252 0.01827966 1.30588236 0.43529412 1.27058823
v 0.06093926 0.08469252 0.02524628 1.30588236 0.43529412 1.27058823
v 0.05987943 0.08469252 0.02501947 1.30588236 0.43529412 1.27058823
v 0.05888490 0.08469252 0.02327221 1.30588236 0.43529412 1.27058823
v 0.05838261 0.08469252 0.02234259 1.30588236 0.43529412 1.27058823
v 0.05809296 0.08469252 0.01968810 1.30588236 0.43529412 1.27058823
v 0.07067694 0.09541674 0.02496068 1.30588236 0.43529412 1.27058823
v 0.06697844 0.09541674 0.02559350 1.30588236 0.43529412 1.27058823
v 0.06297018 0.08734587 0.02567188 1.30588236 0.43529412 1.27058823
v 0.06703200 0.09541674 0.02558509 1.30588236 0.43529412 1.27058823
v 0.05794563 0.08469252 0.00636251 1.30588236 0.43529412 1.27058823
v 0.05803938 0.08734482 0.00203357 1.30588236 0.43529412 1.27058823
v 0.05803938 0.08734587 0.00636251 1.30588236 0.43529412 1.27058823
v 0.05803938 0.08734587 0.01827966 1.30588236 0.43529412 1.27058823
v 0.05911260 0.09140611 0.02234259 1.30588236 0.43529412 1.27058823
v 0.06025950 0.09500512 0.02234259 1.30588236 0.43529412 1.27058823
v 0.06041688 0.09541674 0.02157257 1.30588236 0.43529412 1.27058823
v 0.05845964 0.08734587 0.02234259 1.30588236 0.43529412 1.27058823
v 0.05990957 0.08734587 0.02501947 1.30588236 0.43529412 1.27058823
v 0.06297018 0.09140611 0.02561309 1.30588236 0.43529412 1.27058823
v 0.06277931 0.09541674 0.02512867 1.30588236 0.43529412 1.27058823
v 0.06054581 0.09438346 0.02472826 1.30588236 0.43529412 1.27058823
v 0.06082875 0.09541674 0.02379864 1.30588236 0.43529412 1.27058823
v 0.06046543 0.09541674 0.02234259 1.30588236 0.43529412 1.27058823
v 0.06016908 0.09140611 0.02496347 1.30588236 0.43529412 1.27058823
v 0.06263699 0.09541674 0.02509788 1.30588236 0.43529412 1.27058823
v 0.06238920 0.09541674 0.02504187 1.30588236 0.43529412 1.27058823
f 1 2 3
f 1 3 4
f 1 4 5
f 1 5 6
f 1 6 7
f 1 7 14
f 1 14 23
f 1 23 27
f 1 27 45
f 1 45 52
f 1 52 51
f 1 51 55
f 1 55 54
f 1 54 49
f 1 49 36
f 1 36 38
f 1 38 35
f 1 35 28
f 1 28 15
f 1 15 8
f 1 8 9
f 1 9 2
f 2 10 3
f 2 9 10
f 3 10 4
f 4 10 11
f 4 11 5
f 5 11 10
f 5 10 17
f 5 17 21
f 5 21 12
f 5 12 22
f 5 22 24
f 5 24 13
f 5 13 6
f 6 13 23
f 6 23 14
f 6 14 7
f 8 15 9
f 9 15 16
f 9 16 10
f 10 16 18
f 10 18 19
f 10 19 20
f 10 20 17
f 12 21 40
f 12 40 22
f 13 24 25
f 13 25 26
f 13 26 27
f 13 27 23
f 15 28 18
f 15 18 16
f 17 29 39
f 17 39 21
f 17 20 30
f 17 30 31
f 17 31 32
f 17 32 33
f 17 33 34
f 17 34 29
f 18 28 35
f 18 35 19
f 19 35 20
f 20 36 37
f 20 37 30
f 20 35 38
f 20 38 36
f 21 39 40
f 22 40 24
f 24 40 41
f 24 41 42
f 24 42 25
f 25 43 44
f 25 44 26
f 25 42 43
f 26 44 45
f 26 45 27
f 29 34 46
f 29 46 42
f 29 42 41
f 29 41 39
f 30 37 47
f 30 47 31
f 31 47 32
f 32 47 46
f 32 46 33
f 33 46 34
f 36 48 37
f 36 49 48
f 37 48 47
f 39 41 40
f 42 46 43
f 43 46 50
f 43 50 44
f 44 50 51
f 44 51 52
f 44 52 45
f 46 47 53
f 46 53 50
f 47 48 53
f 48 49 54
f 48 54 55
f 48 55 50
f 48 50 53
f 50 55 51