# https://github.com/mikedh/trimesh
v 0.11984361 0.00001992 0.02567188 0.31176471 0.24117647 0.97647058
v 0.12268984 0.00001992 0.02502251 0.31176471 0.24117647 0.97647058
v 0.11578306 0.00001992 0.02567188 0.31176471 0.24117647 0.97647058
v 0.11984361 -0.10627476 0.02567188 0.31176471 0.24117647 0.97647058
v 0.12081245 -0.10627476 0.02545128 0.31176471 0.24117647 0.97647058
v 0.12380653 0.00001992 0.02234110 0.31176471 0.24117647 0.97647058
v 0.12268984 -0.10627476 0.02502251 0.31176471 0.24117647 0.97647058
v 0.11245170 0.00001992 0.02502251 0.31176471 0.24117647 0.97647058
v 0.10944756 -0.08328031 0.02552897 0.31176471 0.24117647 0.97647058
v 0.11578306 -0.10627476 0.02567188 0.31176471 0.24117647 0.97647058
v 0.12410939 -0.02235024 0.01828017 0.31176471 0.24117647 0.97647058
v 0.12410939 -0.02235024 -0.00606685 0.31176471 0.24117647 0.97647058
v 0.12223343 -0.00000088 -0.00606685 0.31176471 0.24117647 0.97647058
v 0.12223343 0.00001992 -0.00408143 0.31176471 0.24117647 0.97647058
v 0.12380653 -0.10627476 0.02234110 0.31176471 0.24117647 0.97647058
v 0.12390987 -0.10627476 0.02096157 0.31176471 0.24117647 0.97647058
v 0.11158907 0.00001992 0.02369580 0.31176471 0.24117647 0.97647058
v 0.10944756 -0.07921208 0.02534876 0.31176471 0.24117647 0.97647058
v 0.10944756 -0.08554855 0.02550101 0.31176471 0.24117647 0.97647058
v 0.10944756 -0.08733816 0.02547615 0.31176471 0.24117647 0.97647058
v 0.11240289 -0.10627476 0.02502251 0.31176471 0.24117647 0.97647058
v 0.12410939 -0.10627476 0.01828017 0.31176471 0.24117647 0.97647058
v 0.12410939 -0.10627476 -0.00606685 0.31176471 0.24117647 0.97647058
v 0.12209419 0.00001992 -0.00606685 0.31176471 0.24117647 0.97647058
v 0.11070921 0.00001992 0.02234110 0.31176471 0.24117647 0.97647058
v 0.10944756 -0.07528949 0.02496348 0.31176471 0.24117647 0.97647058
v 0.10944756 -0.09159369 0.02504115 0.31176471 0.24117647 0.97647058
v 0.11091303 -0.10627476 0.02330430 0.31176471 0.24117647 0.97647058
v 0.10944756 -0.09961575 0.02369268 0.31176471 0.24117647 0.97647058
v 0.10945761 -0.10627476 -0.00606685 0.31176471 0.24117647 0.97647058
v 0.11020971 0.00001992 -0.00606685 0.31176471 0.24117647 0.97647058
v 0.11048961 0.00001992 0.02033084 0.31176471 0.24117647 0.97647058
v 0.10944756 -0.06910908 0.02371753 0.31176471 0.24117647 0.97647058
v 0.11026569 0.00001992 0.01828017 0.31176471 0.24117647 0.97647058
v 0.11031880 -0.10627476 0.02261452 0.31176471 0.24117647 0.97647058
v 0.10944756 -0.10331982 0.02202418 0.31176471 0.24117647 0.97647058
v 0.10945761 -0.10627476 0.01421612 0.31176471 0.24117647 0.97647058
v 0.10944756 -0.10491174 -0.00606685 0.31176471 0.24117647 0.97647058
v 0.10944756 -0.06481193 -0.00606685 0.31176471 0.24117647 0.97647058
v 0.10944756 -0.06474950 0.02213293 0.31176471 0.24117647 0.97647058
v 0.10947052 -0.10627476 0.01828017 0.31176471 0.24117647 0.97647058
v 0.10944756 -0.10490135 0.01828017 0.31176471 0.24117647 0.97647058
v 0.10944756 -0.10491174 0.01421612 0.31176471 0.24117647 0.97647058
f 1 2 6
f 1 6 14
f 1 14 24
f 1 24 31
f 1 31 34
f 1 34 32
f 1 32 25
f 1 25 17
f 1 17 8
f 1 8 3
f 1 3 10
f 1 10 4
f 1 4 5
f 1 5 2
f 2 5 7
f 2 7 15
f 2 15 6
f 3 8 9
f 3 9 10
f 4 10 21
f 4 21 28
f 4 28 35
f 4 35 41
f 4 41 37
f 4 37 30
f 4 30 23
f 4 23 22
f 4 22 16
f 4 16 15
f 4 15 7
f 4 7 5
f 6 11 12
f 6 12 13
f 6 13 14
f 6 15 16
f 6 16 11
f 8 17 18
f 8 18 9
f 9 18 26
f 9 26 33
f 9 33 40
f 9 40 39
f 9 39 38
f 9 38 43
f 9 43 42
f 9 42 36
f 9 36 29
f 9 29 27
f 9 27 20
f 9 20 19
f 9 19 10
f 10 19 20
f 10 20 21
f 11 16 22
f 11 22 23
f 11 23 12
f 12 23 30
f 12 30 38
f 12 38 39
f 12 39 31
f 12 31 24
f 12 24 13
f 13 24 14
f 17 25 18
f 18 25 26
f 20 27 21
f 21 27 29
f 21 29 28
f 25 32 26
f 26 32 34
f 26 34 33
f 28 29 35
f 29 36 35
f 30 37 43
f 30 43 38
f 31 39 40
f 31 40 34
f 33 34 40
f 35 36 41
f 36 42 41
f 37 41 42
f 37 42 43