# https://github.com/mikedh/trimesh
v -0.08882340 -0.07173972 -0.00851490 0.39411765 0.02941176 1.13529413
v -0.08882340 -0.05773110 -0.00851490 0.39411765 0.02941176 1.13529413
v -0.08229982 -0.07137957 -0.00851490 0.39411765 0.02941176 1.13529413
v -0.08882340 -0.07068025 0.00618582 0.39411765 0.02941176 1.13529413
v -0.08734371 -0.05751389 -0.00851490 0.39411765 0.02941176 1.13529413
v -0.08882340 -0.05832390 0.01827971 0.39411765 0.02941176 1.13529413
v -0.08734371 -0.05803382 0.01827971 0.39411765 0.02941176 1.13529413
v -0.08229982 -0.05749566 -0.00851490 0.39411765 0.02941176 1.13529413
v -0.08229982 -0.07017854 0.00609548 0.39411765 0.02941176 1.13529413
v -0.08882340 -0.07030887 0.01009441 0.39411765 0.02941176 1.13529413
v -0.08328204 -0.05742418 -0.00851490 0.39411765 0.02941176 1.13529413
v -0.08328204 -0.05789506 0.01827971 0.39411765 0.02941176 1.13529413
v -0.08882340 -0.05842622 0.01975881 0.39411765 0.02941176 1.13529413
v -0.08882340 -0.05869248 0.02234223 0.39411765 0.02941176 1.13529413
v -0.08734371 -0.05845282 0.02234223 0.39411765 0.02941176 1.13529413
v -0.08229982 -0.05801278 0.01827971 0.39411765 0.02941176 1.13529413
v -0.08229982 -0.06972027 0.00945860 0.39411765 0.02941176 1.13529413
v -0.08229982 -0.06784097 0.02234223 0.39411765 0.02941176 1.13529413
v -0.08882340 -0.06833707 0.02234223 0.39411765 0.02941176 1.13529413
v -0.08328204 -0.05833791 0.02234223 0.39411765 0.02941176 1.13529413
v -0.08229982 -0.05843461 0.02234223 0.39411765 0.02941176 1.13529413
v -0.08882340 -0.05907646 0.02329929 0.39411765 0.02941176 1.13529413
v -0.08734371 -0.05990471 0.02502268 0.39411765 0.02941176 1.13529413
v -0.08229982 -0.06631482 0.02500262 0.39411765 0.02941176 1.13529413
v -0.08882340 -0.06762375 0.02349673 0.39411765 0.02941176 1.13529413
v -0.08328204 -0.05985986 0.02502268 0.39411765 0.02941176 1.13529413
v -0.08229982 -0.05989770 0.02502268 0.39411765 0.02941176 1.13529413
v -0.08882340 -0.06000000 0.02500262 0.39411765 0.02941176 1.13529413
v -0.08882340 -0.06102164 0.02523686 0.39411765 0.02941176 1.13529413
v -0.08882340 -0.06296963 0.02565181 0.39411765 0.02941176 1.13529413
v -0.08734371 -0.06296963 0.02567188 0.39411765 0.02941176 1.13529413
v -0.08229982 -0.06296963 0.02566854 0.39411765 0.02941176 1.13529413
v -0.08882340 -0.06455182 0.02545437 0.39411765 0.02941176 1.13529413
v -0.08882340 -0.06659511 0.02504612 0.39411765 0.02941176 1.13529413
v -0.08328204 -0.06296963 0.02567188 0.39411765 0.02941176 1.13529413
f 1 2 5
f 1 5 11
f 1 11 8
f 1 8 3
f 1 3 4
f 1 4 10
f 1 10 19
f 1 19 25
f 1 25 34
f 1 34 33
f 1 33 30
f 1 30 29
f 1 29 28
f 1 28 22
f 1 22 14
f 1 14 13
f 1 13 6
f 1 6 2
f 2 6 7
f 2 7 5
f 3 8 16
f 3 16 21
f 3 21 27
f 3 27 32
f 3 32 24
f 3 24 18
f 3 18 17
f 3 17 9
f 3 9 4
f 4 9 10
f 5 7 12
f 5 12 11
f 6 13 7
f 7 13 14
f 7 14 15
f 7 15 12
f 8 11 12
f 8 12 16
f 9 17 10
f 10 17 18
f 10 18 19
f 12 15 20
f 12 20 21
f 12 21 16
f 14 22 15
f 15 22 23
f 15 23 20
f 18 24 19
f 19 24 25
f 20 23 26
f 20 26 27
f 20 27 21
f 22 28 23
f 23 28 29
f 23 29 30
f 23 30 31
f 23 31 26
f 24 32 33
f 24 33 34
f 24 34 25
f 26 31 35
f 26 35 32
f 26 32 27
f 30 33 31
f 31 33 35
f 32 35 33