# https://github.com/mikedh/trimesh
v -0.12410737 0.02234872 -0.01179052 0.47058824 0.54117646 0.85294117
v -0.12229244 0.00001992 -0.01179052 0.47058824 0.54117646 0.85294117
v -0.12410737 0.02234872 -0.00851521 0.47058824 0.54117646 0.85294117
v -0.12410737 0.05471745 -0.01179052 0.47058824 0.54117646 0.85294117
v -0.10362763 0.00001992 -0.01179052 0.47058824 0.54117646 0.85294117
v -0.12223428 0.00001992 -0.00851521 0.47058824 0.54117646 0.85294117
v -0.12410737 0.05471745 -0.00851521 0.47058824 0.54117646 0.85294117
v -0.10362162 0.05471745 -0.01179052 0.47058824 0.54117646 0.85294117
v -0.10977036 0.00001992 -0.00851521 0.47058824 0.54117646 0.85294117
v -0.10977036 0.05471745 -0.00851521 0.47058824 0.54117646 0.85294117
f 1 2 3
f 1 3 7
f 1 7 4
f 1 4 8
f 1 8 5
f 1 5 2
f 2 5 9
f 2 9 6
f 2 6 3
f 3 6 9
f 3 9 10
f 3 10 7
f 4 7 10
f 4 10 8
f 5 8 9
f 8 10 9