# https://github.com/mikedh/trimesh
v 0.06583469 0.10825542 -0.00607343 1.09411764 0.25294118 0.77647059
v 0.06637842 0.10571348 -0.00607343 1.09411764 0.25294118 0.77647059
v 0.06639323 0.10570423 0.01827846 1.09411764 0.25294118 0.77647059
v 0.06586058 0.10825542 0.01827846 1.09411764 0.25294118 0.77647059
v 0.10107787 0.10825542 -0.00607343 1.09411764 0.25294118 0.77647059
v 0.06638583 0.10570423 -0.00422019 1.09411764 0.25294118 0.77647059
v 0.06991458 0.10570423 -0.00607343 1.09411764 0.25294118 0.77647059
v 0.06700723 0.10570423 0.02232214 1.09411764 0.25294118 0.77647059
v 0.06679271 0.10825542 0.02183331 1.09411764 0.25294118 0.77647059
v 0.10362271 0.10825542 -0.00256497 1.09411764 0.25294118 0.77647059
v 0.10361901 0.10825392 -0.00607343 1.09411764 0.25294118 0.77647059
v 0.10122953 0.10570423 -0.00607343 1.09411764 0.25294118 0.77647059
v 0.06883449 0.10570423 0.02447238 1.09411764 0.25294118 0.77647059
v 0.06737343 0.10825542 0.02248302 1.09411764 0.25294118 0.77647059
v 0.10362271 0.10825542 0.01421620 1.09411764 0.25294118 0.77647059
v 0.10122953 0.10570423 0.01421620 1.09411764 0.25294118 0.77647059
v 0.07012542 0.10570423 0.02475702 1.09411764 0.25294118 0.77647059
v 0.06896766 0.10592775 0.02444454 1.09411764 0.25294118 0.77647059
v 0.07083561 0.10825542 0.02414443 1.09411764 0.25294118 0.77647059
v 0.10360422 0.10825542 0.01776487 1.09411764 0.25294118 0.77647059
v 0.10121472 0.10570423 0.01827846 1.09411764 0.25294118 0.77647059
v 0.07109454 0.10570423 0.02493646 1.09411764 0.25294118 0.77647059
v 0.07109454 0.10654713 0.02475084 1.09411764 0.25294118 0.77647059
v 0.07109454 0.10825542 0.02420631 1.09411764 0.25294118 0.77647059
v 0.10360052 0.10825542 0.01827846 1.09411764 0.25294118 0.77647059
v 0.10113334 0.10570423 0.01943247 1.09411764 0.25294118 0.77647059
v 0.07319181 0.10570423 0.02518398 1.09411764 0.25294118 0.77647059
v 0.07528169 0.10825542 0.02496741 1.09411764 0.25294118 0.77647059
v 0.10255003 0.10825542 0.02103200 1.09411764 0.25294118 0.77647059
v 0.10060811 0.10570423 0.02247684 1.09411764 0.25294118 0.77647059
v 0.07726800 0.10570423 0.02550575 1.09411764 0.25294118 0.77647059
v 0.07922103 0.10825542 0.02535414 1.09411764 0.25294118 0.77647059
v 0.10181394 0.10825542 0.02186734 1.09411764 0.25294118 0.77647059
v 0.09968337 0.10570423 0.02391549 1.09411764 0.25294118 0.77647059
v 0.08132942 0.10570423 0.02553358 1.09411764 0.25294118 0.77647059
v 0.08328243 0.10825542 0.02552740 1.09411764 0.25294118 0.77647059
v 0.07982025 0.10825542 0.02538198 1.09411764 0.25294118 0.77647059
v 0.10083744 0.10825542 0.02277075 1.09411764 0.25294118 0.77647059
v 0.09862179 0.10570423 0.02485913 1.09411764 0.25294118 0.77647059
v 0.08734383 0.10570423 0.02545005 1.09411764 0.25294118 0.77647059
v 0.08734383 0.10765677 0.02547789 1.09411764 0.25294118 0.77647059
v 0.08328243 0.10765677 0.02552740 1.09411764 0.25294118 0.77647059
v 0.08388165 0.10825542 0.02552121 1.09411764 0.25294118 0.77647059
v 0.09972036 0.10825542 0.02315130 1.09411764 0.25294118 0.77647059
v 0.09824820 0.10650267 0.02475393 1.09411764 0.25294118 0.77647059
v 0.09546663 0.10712381 0.02498288 1.09411764 0.25294118 0.77647059
v 0.09546663 0.10570423 0.02524585 1.09411764 0.25294118 0.77647059
v 0.08734383 0.10825542 0.02547789 1.09411764 0.25294118 0.77647059
v 0.09546663 0.10825542 0.02455283 1.09411764 0.25294118 0.77647059
v 0.09157907 0.10825542 0.02504166 1.09411764 0.25294118 0.77647059
v 0.08800962 0.10825542 0.02540983 1.09411764 0.25294118 0.77647059
f 1 2 3
f 1 3 4
f 1 4 9
f 1 9 14
f 1 14 19
f 1 19 24
f 1 24 28
f 1 28 32
f 1 32 37
f 1 37 36
f 1 36 43
f 1 43 48
f 1 48 51
f 1 51 50
f 1 50 49
f 1 49 44
f 1 44 38
f 1 38 33
f 1 33 29
f 1 29 25
f 1 25 20
f 1 20 15
f 1 15 10
f 1 10 5
f 1 5 11
f 1 11 12
f 1 12 7
f 1 7 2
f 2 6 3
f 2 7 6
f 3 8 4
f 3 6 7
f 3 7 12
f 3 12 16
f 3 16 21
f 3 21 26
f 3 26 30
f 3 30 34
f 3 34 39
f 3 39 47
f 3 47 40
f 3 40 35
f 3 35 31
f 3 31 27
f 3 27 22
f 3 22 17
f 3 17 13
f 3 13 8
f 4 8 9
f 5 10 11
f 8 13 9
f 9 13 14
f 10 15 16
f 10 16 12
f 10 12 11
f 13 17 18
f 13 18 14
f 14 18 19
f 15 20 21
f 15 21 16
f 17 22 23
f 17 23 18
f 18 23 24
f 18 24 19
f 20 25 21
f 21 25 26
f 22 27 28
f 22 28 23
f 23 28 24
f 25 29 30
f 25 30 26
f 27 31 32
f 27 32 28
f 29 33 34
f 29 34 30
f 31 35 36
f 31 36 37
f 31 37 32
f 33 38 34
f 34 38 39
f 35 40 41
f 35 41 42
f 35 42 36
f 36 42 43
f 38 44 45
f 38 45 39
f 39 45 46
f 39 46 47
f 40 47 41
f 41 48 43
f 41 43 42
f 41 47 48
f 44 49 45
f 45 49 46
f 46 49 50
f 46 50 51
f 46 51 48
f 46 48 47