# https://github.com/mikedh/trimesh
v 0.07403936 0.07398546 0.01422067 1.44117646 0.43529412 0.35882354
v 0.07387813 0.07398546 0.01015662 1.44117646 0.43529412 0.35882354
v 0.07006756 0.08468964 0.01015662 1.44117646 0.43529412 0.35882354
v 0.06984472 0.08468964 0.01216407 1.44117646 0.43529412 0.35882354
v 0.06963135 0.08468964 0.01329068 1.44117646 0.43529412 0.35882354
v 0.06769050 0.08468964 0.02234314 1.44117646 0.43529412 0.35882354
v 0.07159749 0.07398546 0.02234314 1.44117646 0.43529412 0.35882354
v 0.06986368 0.08468964 0.00903002 1.44117646 0.43529412 0.35882354
v 0.07270858 0.07398546 0.00636098 1.44117646 0.43529412 0.35882354
v 0.06949859 0.08468964 0.00719457 1.44117646 0.43529412 0.35882354
v 0.06669638 0.08468964 0.02409352 1.44117646 0.43529412 0.35882354
v 0.07019400 0.07398546 0.02487231 1.44117646 0.43529412 0.35882354
v 0.06001719 0.07398546 0.00636098 1.44117646 0.43529412 0.35882354
v 0.06910505 0.08468964 0.00636098 1.44117646 0.43529412 0.35882354
v 0.06612740 0.08468964 0.02502164 1.44117646 0.43529412 0.35882354
v 0.06409645 0.08468964 0.02544695 1.44117646 0.43529412 0.35882354
v 0.06296955 0.08468964 0.02567188 1.44117646 0.43529412 0.35882354
v 0.06703144 0.07398546 0.02547718 1.44117646 0.43529412 0.35882354
v 0.05953830 0.07515700 0.00636098 1.44117646 0.43529412 0.35882354
v 0.06001719 0.07398546 0.01828096 1.44117646 0.43529412 0.35882354
v 0.05794517 0.08468964 0.00636098 1.44117646 0.43529412 0.35882354
v 0.06296955 0.08328129 0.02567188 1.44117646 0.43529412 0.35882354
v 0.06093863 0.08468964 0.02524658 1.44117646 0.43529412 0.35882354
v 0.05986073 0.08328129 0.02502164 1.44117646 0.43529412 0.35882354
v 0.06296955 0.07921967 0.02566811 1.44117646 0.43529412 0.35882354
v 0.06296955 0.07515700 0.02544695 1.44117646 0.43529412 0.35882354
v 0.06298221 0.07398546 0.02529951 1.44117646 0.43529412 0.35882354
v 0.05946085 0.07542421 0.00636098 1.44117646 0.43529412 0.35882354
v 0.05953830 0.07515700 0.01828096 1.44117646 0.43529412 0.35882354
v 0.06017367 0.07398546 0.02234314 1.44117646 0.43529412 0.35882354
v 0.05790406 0.08354850 0.00636098 1.44117646 0.43529412 0.35882354
v 0.05794517 0.08468964 0.01828096 1.44117646 0.43529412 0.35882354
v 0.05987811 0.08468964 0.02502164 1.44117646 0.43529412 0.35882354
v 0.05888398 0.08468964 0.02327315 1.44117646 0.43529412 0.35882354
v 0.05833870 0.08328129 0.02234314 1.44117646 0.43529412 0.35882354
v 0.06000928 0.07921967 0.02501974 1.44117646 0.43529412 0.35882354
v 0.06043602 0.07515700 0.02479859 1.44117646 0.43529412 0.35882354
v 0.06062727 0.07398546 0.02465115 1.44117646 0.43529412 0.35882354
v 0.05837664 0.07921967 0.00636098 1.44117646 0.43529412 0.35882354
v 0.05837664 0.07921967 0.01828096 1.44117646 0.43529412 0.35882354
v 0.05973429 0.07515700 0.02234314 1.44117646 0.43529412 0.35882354
v 0.05789616 0.08328129 0.00636098 1.44117646 0.43529412 0.35882354
v 0.05789616 0.08328129 0.01828096 1.44117646 0.43529412 0.35882354
v 0.05809057 0.08468964 0.01968921 1.44117646 0.43529412 0.35882354
v 0.05838138 0.08468964 0.02234314 1.44117646 0.43529412 0.35882354
v 0.05872909 0.07921967 0.02234314 1.44117646 0.43529412 0.35882354
v 0.05834503 0.07948582 0.00636098 1.44117646 0.43529412 0.35882354
f 1 2 3
f 1 3 4
f 1 4 5
f 1 5 6
f 1 6 7
f 1 7 12
f 1 12 18
f 1 18 27
f 1 27 38
f 1 38 30
f 1 30 20
f 1 20 13
f 1 13 9
f 1 9 2
f 2 8 3
f 2 9 10
f 2 10 8
f 3 8 10
f 3 10 14
f 3 14 21
f 3 21 32
f 3 32 44
f 3 44 45
f 3 45 34
f 3 34 33
f 3 33 23
f 3 23 17
f 3 17 16
f 3 16 15
f 3 15 11
f 3 11 6
f 3 6 5
f 3 5 4
f 6 11 12
f 6 12 7
f 9 13 19
f 9 19 28
f 9 28 39
f 9 39 47
f 9 47 42
f 9 42 31
f 9 31 21
f 9 21 14
f 9 14 10
f 11 15 12
f 12 15 16
f 12 16 17
f 12 17 18
f 13 20 29
f 13 29 19
f 17 22 18
f 17 23 24
f 17 24 22
f 18 22 25
f 18 25 26
f 18 26 27
f 19 29 28
f 20 30 29
f 21 31 32
f 22 24 25
f 23 33 24
f 24 33 34
f 24 34 35
f 24 35 36
f 24 36 25
f 25 36 26
f 26 36 37
f 26 37 27
f 27 37 38
f 28 29 40
f 28 40 39
f 29 30 41
f 29 41 40
f 30 38 41
f 31 42 43
f 31 43 32
f 32 43 44
f 34 45 35
f 35 45 44
f 35 44 43
f 35 43 46
f 35 46 36
f 36 46 37
f 37 46 38
f 38 46 41
f 39 40 47
f 40 41 46
f 40 46 43
f 40 43 47
f 42 47 43