# https://github.com/mikedh/trimesh
v 0.09567090 -0.10627262 -0.00606996 0.96470587 0.63529411 0.90588236
v 0.09567090 -0.09539649 -0.00606996 0.96470587 0.63529411 0.90588236
v 0.10156773 -0.10627262 -0.00606996 0.96470587 0.63529411 0.90588236
v 0.09567090 -0.10627262 0.02512257 0.96470587 0.63529411 0.90588236
v 0.09971724 -0.08422030 -0.00606996 0.96470587 0.63529411 0.90588236
v 0.09567090 -0.09308872 0.00203265 0.96470587 0.63529411 0.90588236
v 0.09887353 -0.08422030 0.00203265 0.96470587 0.63529411 0.90588236
v 0.10595536 -0.10125336 -0.00606996 0.96470587 0.63529411 0.90588236
v 0.10156773 -0.10627262 0.01421761 0.96470587 0.63529411 0.90588236
v 0.09649749 -0.10627262 0.02502315 0.96470587 0.63529411 0.90588236
v 0.09567090 -0.10359783 0.02561034 0.96470587 0.63529411 0.90588236
v 0.10595536 -0.08422030 -0.00606996 0.96470587 0.63529411 0.90588236
v 0.09904469 -0.08422030 0.00515811 0.96470587 0.63529411 0.90588236
v 0.09567090 -0.09633126 0.02234196 0.96470587 0.63529411 0.90588236
v 0.10595536 -0.10125336 0.01421761 0.96470587 0.63529411 0.90588236
v 0.10595536 -0.10123177 0.01828134 0.96470587 0.63529411 0.90588236
v 0.10154256 -0.10627262 0.01828134 0.96470587 0.63529411 0.90588236
v 0.09958232 -0.10367124 0.02512568 0.96470587 0.63529411 0.90588236
v 0.09836913 -0.10627262 0.02479014 0.96470587 0.63529411 0.90588236
v 0.09567090 -0.10339275 0.02563830 0.96470587 0.63529411 0.90588236
v 0.10595536 -0.08422030 0.02546742 0.96470587 0.63529411 0.90588236
v 0.10077235 -0.08422030 0.02234196 0.96470587 0.63529411 0.90588236
v 0.09567090 -0.09711276 0.02391713 0.96470587 0.63529411 0.90588236
v 0.10110964 -0.08422030 0.02414703 0.96470587 0.63529411 0.90588236
v 0.10595536 -0.10051504 0.02252526 0.96470587 0.63529411 0.90588236
v 0.10036763 -0.10627262 0.02258741 0.96470587 0.63529411 0.90588236
v 0.10367496 -0.09958027 0.02512257 0.96470587 0.63529411 0.90588236
v 0.09953197 -0.09953063 0.02566936 0.96470587 0.63529411 0.90588236
v 0.10237518 -0.10236948 0.02480568 0.96470587 0.63529411 0.90588236
v 0.10359340 -0.09140700 0.02560724 0.96470587 0.63529411 0.90588236
v 0.10359340 -0.08422030 0.02535868 0.96470587 0.63529411 0.90588236
v 0.09567090 -0.09941622 0.02519092 0.96470587 0.63529411 0.90588236
v 0.10595536 -0.08498237 0.02548296 0.96470587 0.63529411 0.90588236
v 0.10124253 -0.08422030 0.02470937 0.96470587 0.63529411 0.90588236
v 0.09567090 -0.09870164 0.02506043 0.96470587 0.63529411 0.90588236
v 0.10595536 -0.09851598 0.02482742 0.96470587 0.63529411 0.90588236
v 0.10595536 -0.09687097 0.02503247 0.96470587 0.63529411 0.90588236
v 0.10359340 -0.09546774 0.02563209 0.96470587 0.63529411 0.90588236
v 0.10595536 -0.08904526 0.02553267 0.96470587 0.63529411 0.90588236
v 0.10303163 -0.08422030 0.02520645 0.96470587 0.63529411 0.90588236
v 0.09567090 -0.09908376 0.02515053 0.96470587 0.63529411 0.90588236
v 0.10595536 -0.09546774 0.02520024 0.96470587 0.63529411 0.90588236
v 0.10595536 -0.09336074 0.02531208 0.96470587 0.63529411 0.90588236
f 1 2 5
f 1 5 12
f 1 12 8
f 1 8 3
f 1 3 9
f 1 9 17
f 1 17 26
f 1 26 19
f 1 19 10
f 1 10 4
f 1 4 11
f 1 11 20
f 1 20 32
f 1 32 41
f 1 41 35
f 1 35 23
f 1 23 14
f 1 14 6
f 1 6 2
f 2 6 7
f 2 7 5
f 3 8 15
f 3 15 9
f 4 10 11
f 5 7 13
f 5 13 22
f 5 22 24
f 5 24 34
f 5 34 40
f 5 40 31
f 5 31 21
f 5 21 12
f 6 13 7
f 6 14 13
f 8 12 21
f 8 21 33
f 8 33 39
f 8 39 43
f 8 43 42
f 8 42 37
f 8 37 36
f 8 36 25
f 8 25 16
f 8 16 15
f 9 15 16
f 9 16 17
f 10 18 11
f 10 19 18
f 11 18 20
f 13 14 22
f 14 23 24
f 14 24 22
f 16 25 17
f 17 25 26
f 18 27 28
f 18 28 20
f 18 19 29
f 18 29 27
f 19 26 29
f 20 28 30
f 20 30 31
f 20 31 32
f 21 31 30
f 21 30 33
f 23 34 24
f 23 35 34
f 25 36 29
f 25 29 26
f 27 29 36
f 27 36 37
f 27 37 38
f 27 38 28
f 28 38 30
f 30 39 33
f 30 38 39
f 31 40 41
f 31 41 32
f 34 35 41
f 34 41 40
f 37 42 38
f 38 43 39
f 38 42 43