# https://github.com/mikedh/trimesh
v -0.07237732 -0.07779465 -0.00851490 0.80000000 0.88235293 1.09411764
v -0.08229822 -0.07137861 -0.00851490 0.80000000 0.88235293 1.09411764
v -0.07237732 -0.05941482 -0.00851490 0.80000000 0.88235293 1.09411764
v -0.07237732 -0.07620704 0.00609520 0.80000000 0.88235293 1.09411764
v -0.08229822 -0.07017846 0.00609520 0.80000000 0.88235293 1.09411764
v -0.08229822 -0.05749538 -0.00851490 0.80000000 0.88235293 1.09411764
v -0.07267160 -0.05929362 -0.00851490 0.80000000 0.88235293 1.09411764
v -0.07265217 -0.06068453 0.02234166 0.80000000 0.88235293 1.09411764
v -0.07237732 -0.06085343 0.02234166 0.80000000 0.88235293 1.09411764
v -0.07237732 -0.07288476 0.02234166 0.80000000 0.88235293 1.09411764
v -0.08229822 -0.06783975 0.02234166 0.80000000 0.88235293 1.09411764
v -0.08229822 -0.06971946 0.00945827 0.80000000 0.88235293 1.09411764
v -0.07994595 -0.05766625 -0.00851490 0.80000000 0.88235293 1.09411764
v -0.08229822 -0.05801399 0.01827921 0.80000000 0.88235293 1.09411764
v -0.07515693 -0.05857233 -0.00851490 0.80000000 0.88235293 1.09411764
v -0.07515693 -0.05954399 0.01827921 0.80000000 0.88235293 1.09411764
v -0.07515693 -0.05974268 0.02234166 0.80000000 0.88235293 1.09411764
v -0.07288625 -0.06081169 0.02450673 0.80000000 0.88235293 1.09411764
v -0.07237732 -0.06154490 0.02465732 0.80000000 0.88235293 1.09411764
v -0.07237732 -0.07078250 0.02503545 0.80000000 0.88235293 1.09411764
v -0.07742080 -0.06914522 0.02445989 0.80000000 0.88235293 1.09411764
v -0.08229822 -0.06631770 0.02500533 0.80000000 0.88235293 1.09411764
v -0.07921852 -0.05775369 -0.00851490 0.80000000 0.88235293 1.09411764
v -0.08229822 -0.05843523 0.02234166 0.80000000 0.88235293 1.09411764
v -0.07921852 -0.05873726 0.02234166 0.80000000 0.88235293 1.09411764
v -0.07921852 -0.05838555 0.01827921 0.80000000 0.88235293 1.09411764
v -0.07635928 -0.05823454 -0.00851490 0.80000000 0.88235293 1.09411764
v -0.07515693 -0.06044012 0.02479452 0.80000000 0.88235293 1.09411764
v -0.07237732 -0.06300336 0.02509235 0.80000000 0.88235293 1.09411764
v -0.07237732 -0.06703302 0.02558091 0.80000000 0.88235293 1.09411764
v -0.08229822 -0.06296958 0.02567126 0.80000000 0.88235293 1.09411764
v -0.08229822 -0.05989767 0.02502207 0.80000000 0.88235293 1.09411764
v -0.07921852 -0.06001489 0.02501872 0.80000000 0.88235293 1.09411764
v -0.07515693 -0.06296958 0.02544371 0.80000000 0.88235293 1.09411764
v -0.07921852 -0.06296958 0.02566791 0.80000000 0.88235293 1.09411764
f 1 2 6
f 1 6 13
f 1 13 23
f 1 23 27
f 1 27 15
f 1 15 7
f 1 7 3
f 1 3 9
f 1 9 19
f 1 19 29
f 1 29 30
f 1 30 20
f 1 20 10
f 1 10 4
f 1 4 5
f 1 5 2
f 2 5 12
f 2 12 11
f 2 11 22
f 2 22 31
f 2 31 32
f 2 32 24
f 2 24 14
f 2 14 6
f 3 7 8
f 3 8 9
f 4 10 11
f 4 11 12
f 4 12 5
f 6 14 13
f 7 15 16
f 7 16 8
f 8 16 17
f 8 17 18
f 8 18 9
f 9 18 19
f 10 20 21
f 10 21 11
f 11 21 22
f 13 14 23
f 14 24 25
f 14 25 26
f 14 26 23
f 15 27 26
f 15 26 16
f 16 26 17
f 17 25 18
f 17 26 25
f 18 28 19
f 18 25 28
f 19 28 29
f 20 30 31
f 20 31 22
f 20 22 21
f 23 26 27
f 24 32 33
f 24 33 25
f 25 33 28
f 28 33 34
f 28 34 29
f 29 34 30
f 30 34 35
f 30 35 31
f 31 35 32
f 32 35 33
f 33 35 34