# https://github.com/mikedh/trimesh
v -0.08303022 -0.05323243 -0.01106718 0.24117647 0.92941176 0.86470589
v -0.08167013 -0.05323813 -0.01106718 0.24117647 0.92941176 0.86470589
v -0.08303022 -0.07443379 -0.01106718 0.24117647 0.92941176 0.86470589
v -0.08303022 -0.05744247 -0.00851514 0.24117647 0.92941176 0.86470589
v -0.07994517 -0.05766780 -0.00851514 0.24117647 0.92941176 0.86470589
v -0.07921844 -0.05775338 -0.00851514 0.24117647 0.92941176 0.86470589
v -0.07635813 -0.05823541 -0.00851514 0.24117647 0.92941176 0.86470589
v -0.07841288 -0.05403964 -0.01106718 0.24117647 0.92941176 0.86470589
v -0.07450767 -0.08236899 -0.01106718 0.24117647 0.92941176 0.86470589
v -0.08303022 -0.07123633 -0.00851514 0.24117647 0.92941176 0.86470589
v -0.07515563 -0.05857200 -0.00851514 0.24117647 0.92941176 0.86470589
v -0.06867908 -0.05652972 -0.01106718 0.24117647 0.92941176 0.86470589
v -0.07088559 -0.08236899 -0.00851514 0.24117647 0.92941176 0.86470589
v -0.05321590 -0.08236899 -0.01106718 0.24117647 0.92941176 0.86470589
v -0.07266889 -0.05929364 -0.00851514 0.24117647 0.92941176 0.86470589
v -0.07098775 -0.06012366 -0.00851514 0.24117647 0.92941176 0.86470589
v -0.06708547 -0.06316140 -0.00851514 0.24117647 0.92941176 0.86470589
v -0.06418139 -0.06014932 -0.01106718 0.24117647 0.92941176 0.86470589
v -0.07172034 -0.05968725 -0.00851514 0.24117647 0.92941176 0.86470589
v -0.05748301 -0.08236899 -0.00851514 0.24117647 0.92941176 0.86470589
v -0.05321881 -0.08165306 -0.01106718 0.24117647 0.92941176 0.86470589
v -0.06653676 -0.06364344 -0.00851514 0.24117647 0.92941176 0.86470589
v -0.06364434 -0.06653570 -0.00851514 0.24117647 0.92941176 0.86470589
v -0.06015069 -0.06418253 -0.01106718 0.24117647 0.92941176 0.86470589
v -0.05766396 -0.07994736 -0.00851514 0.24117647 0.92941176 0.86470589
v -0.05404481 -0.07841566 -0.01106718 0.24117647 0.92941176 0.86470589
v -0.05823311 -0.07636198 -0.00851514 0.24117647 0.92941176 0.86470589
v -0.05775153 -0.07921716 -0.00851514 0.24117647 0.92941176 0.86470589
v -0.06316277 -0.06708620 -0.00851514 0.24117647 0.92941176 0.86470589
v -0.05653443 -0.06868350 -0.01106718 0.24117647 0.92941176 0.86470589
v -0.05857167 -0.07515545 -0.00851514 0.24117647 0.92941176 0.86470589
v -0.06012733 -0.07098534 -0.00851514 0.24117647 0.92941176 0.86470589
v -0.05968662 -0.07172124 -0.00851514 0.24117647 0.92941176 0.86470589
v -0.05929258 -0.07267392 -0.00851514 0.24117647 0.92941176 0.86470589
f 1 2 8
f 1 8 12
f 1 12 18
f 1 18 24
f 1 24 30
f 1 30 26
f 1 26 21
f 1 21 14
f 1 14 9
f 1 9 3
f 1 3 10
f 1 10 4
f 1 4 2
f 2 4 5
f 2 5 6
f 2 6 7
f 2 7 8
f 3 9 10
f 4 10 13
f 4 13 20
f 4 20 25
f 4 25 28
f 4 28 27
f 4 27 31
f 4 31 34
f 4 34 33
f 4 33 32
f 4 32 29
f 4 29 23
f 4 23 22
f 4 22 17
f 4 17 16
f 4 16 19
f 4 19 15
f 4 15 11
f 4 11 7
f 4 7 6
f 4 6 5
f 7 11 12
f 7 12 8
f 9 13 10
f 9 14 20
f 9 20 13
f 11 15 12
f 12 16 17
f 12 17 18
f 12 15 19
f 12 19 16
f 14 21 20
f 17 22 18
f 18 22 23
f 18 23 24
f 20 21 25
f 21 26 27
f 21 27 28
f 21 28 25
f 23 29 24
f 24 29 30
f 26 30 27
f 27 30 31
f 29 32 30
f 30 32 33
f 30 33 34
f 30 34 31