# https://github.com/mikedh/trimesh
v 0.10400387 -0.12411014 -0.01163504 0.65294118 1.48235293 0.15294117
v 0.11578063 -0.12411014 -0.01163504 0.65294118 1.48235293 0.15294117
v 0.10400387 -0.12411014 -0.00606996 0.65294118 1.48235293 0.15294117
v 0.10400387 -0.05892497 -0.01163504 0.65294118 1.48235293 0.15294117
v 0.11984267 -0.12410376 -0.01163504 0.65294118 1.48235293 0.15294117
v 0.11580425 -0.12411014 -0.00606996 0.65294118 1.48235293 0.15294117
v 0.10400387 -0.06627552 -0.00606996 0.65294118 1.48235293 0.15294117
v 0.10400387 -0.05892497 -0.01145420 0.65294118 1.48235293 0.15294117
v 0.12410939 -0.05892497 -0.01163504 0.65294118 1.48235293 0.15294117
v 0.12184614 -0.12339550 -0.01163504 0.65294118 1.48235293 0.15294117
v 0.11986234 -0.12409737 -0.00606996 0.65294118 1.48235293 0.15294117
v 0.11984267 -0.12410376 -0.00606996 0.65294118 1.48235293 0.15294117
v 0.11020715 -0.05892497 -0.00606996 0.65294118 1.48235293 0.15294117
v 0.12410939 -0.11984145 -0.01163504 0.65294118 1.48235293 0.15294117
v 0.12410939 -0.05892497 -0.00607595 0.65294118 1.48235293 0.15294117
v 0.12299152 -0.12298715 -0.01163504 0.65294118 1.48235293 0.15294117
v 0.12299152 -0.12298715 -0.00606996 0.65294118 1.48235293 0.15294117
v 0.12091131 -0.05892497 -0.00606996 0.65294118 1.48235293 0.15294117
v 0.12410939 -0.11984145 -0.00606996 0.65294118 1.48235293 0.15294117
v 0.12339891 -0.12184500 -0.01163504 0.65294118 1.48235293 0.15294117
v 0.12410939 -0.05893134 -0.00606996 0.65294118 1.48235293 0.15294117
f 1 2 6
f 1 6 3
f 1 3 7
f 1 7 8
f 1 8 4
f 1 4 9
f 1 9 14
f 1 14 20
f 1 20 16
f 1 16 10
f 1 10 5
f 1 5 2
f 2 5 6
f 3 6 12
f 3 12 11
f 3 11 17
f 3 17 19
f 3 19 21
f 3 21 18
f 3 18 13
f 3 13 7
f 4 8 13
f 4 13 18
f 4 18 15
f 4 15 9
f 5 10 11
f 5 11 12
f 5 12 6
f 7 13 8
f 9 15 21
f 9 21 19
f 9 19 14
f 10 16 17
f 10 17 11
f 14 19 20
f 15 18 21
f 16 20 17
f 17 20 19