# https://github.com/mikedh/trimesh
v 0.06001605 0.07398546 0.00636098 0.87647060 0.09411765 0.72352941
v 0.06054531 0.07269159 0.00636098 0.87647060 0.09411765 0.72352941
v 0.06001605 0.07398546 0.01828096 0.87647060 0.09411765 0.72352941
v 0.07270845 0.07398546 0.00636098 0.87647060 0.09411765 0.72352941
v 0.06061781 0.07251824 0.00636098 0.87647060 0.09411765 0.72352941
v 0.06061781 0.07251824 0.01828096 0.87647060 0.09411765 0.72352941
v 0.06068064 0.07263328 0.02234314 0.87647060 0.09411765 0.72352941
v 0.06017314 0.07398546 0.02234314 0.87647060 0.09411765 0.72352941
v 0.07387813 0.07398546 0.01015662 0.87647060 0.09411765 0.72352941
v 0.08470485 0.06937261 0.01154408 0.87647060 0.09411765 0.72352941
v 0.08470485 0.06853421 0.00636098 0.87647060 0.09411765 0.72352941
v 0.06069515 0.07238428 0.00636098 0.87647060 0.09411765 0.72352941
v 0.06179715 0.07048683 0.01828096 0.87647060 0.09411765 0.72352941
v 0.06080873 0.07287441 0.02451127 0.87647060 0.09411765 0.72352941
v 0.06192523 0.07060186 0.02234314 0.87647060 0.09411765 0.72352941
v 0.06062748 0.07398546 0.02465115 0.87647060 0.09411765 0.72352941
v 0.07404004 0.07398546 0.01422067 0.87647060 0.09411765 0.72352941
v 0.08470485 0.06958380 0.01422067 0.87647060 0.09411765 0.72352941
v 0.08470485 0.06952392 0.01299768 0.87647060 0.09411765 0.72352941
v 0.08470485 0.05794060 0.00636098 0.87647060 0.09411765 0.72352941
v 0.06179715 0.07048683 0.00636098 0.87647060 0.09411765 0.72352941
v 0.06382957 0.06763592 0.01828096 0.87647060 0.09411765 0.72352941
v 0.06395766 0.06777459 0.02234314 0.87647060 0.09411765 0.72352941
v 0.06439024 0.06829465 0.02479103 0.87647060 0.09411765 0.72352941
v 0.06301032 0.07134888 0.02496683 0.87647060 0.09411765 0.72352941
v 0.06298374 0.07398546 0.02529951 0.87647060 0.09411765 0.72352941
v 0.08470485 0.06928122 0.01677253 0.87647060 0.09411765 0.72352941
v 0.07159920 0.07398546 0.02234314 0.87647060 0.09411765 0.72352941
v 0.08470485 0.05794060 0.01828096 0.87647060 0.09411765 0.72352941
v 0.08328142 0.05788543 0.00636098 0.87647060 0.09411765 0.72352941
v 0.06382957 0.06763592 0.00636098 0.87647060 0.09411765 0.72352941
v 0.06560341 0.06560766 0.01828096 0.87647060 0.09411765 0.72352941
v 0.06574116 0.06574476 0.02234314 0.87647060 0.09411765 0.72352941
v 0.06829560 0.06439574 0.02479291 0.87647060 0.09411765 0.72352941
v 0.06697851 0.06697716 0.02513505 0.87647060 0.09411765 0.72352941
v 0.06703167 0.07109356 0.02566054 0.87647060 0.09411765 0.72352941
v 0.06703167 0.07398546 0.02547718 0.87647060 0.09411765 0.72352941
v 0.08470485 0.06771471 0.02234314 0.87647060 0.09411765 0.72352941
v 0.07019511 0.07398546 0.02487231 0.87647060 0.09411765 0.72352941
v 0.08470485 0.05808875 0.01970433 0.87647060 0.09411765 0.72352941
v 0.08328142 0.05788543 0.01828096 0.87647060 0.09411765 0.72352941
v 0.07921899 0.05837556 0.00636098 0.87647060 0.09411765 0.72352941
v 0.06560341 0.06560766 0.00636098 0.87647060 0.09411765 0.72352941
v 0.06763584 0.06383469 0.01828096 0.87647060 0.09411765 0.72352941
v 0.06777360 0.06396393 0.02234314 0.87647060 0.09411765 0.72352941
v 0.07287038 0.06080412 0.02451694 0.87647060 0.09411765 0.72352941
v 0.07134786 0.06301205 0.02497060 0.87647060 0.09411765 0.72352941
v 0.07515654 0.06296949 0.02545073 0.87647060 0.09411765 0.72352941
v 0.07109652 0.06703074 0.02566054 0.87647060 0.09411765 0.72352941
v 0.07921899 0.06296949 0.02566811 0.87647060 0.09411765 0.72352941
v 0.08328142 0.06296949 0.02567188 0.87647060 0.09411765 0.72352941
v 0.08470485 0.06296949 0.02567188 0.87647060 0.09411765 0.72352941
v 0.08470485 0.06411363 0.02544316 0.87647060 0.09411765 0.72352941
v 0.08470485 0.06613875 0.02502164 0.87647060 0.09411765 0.72352941
v 0.08470485 0.06672027 0.02408407 0.87647060 0.09411765 0.72352941
v 0.08470485 0.05837556 0.02234314 0.87647060 0.09411765 0.72352941
v 0.08328142 0.05832830 0.02234314 0.87647060 0.09411765 0.72352941
v 0.07921899 0.05872701 0.02234314 0.87647060 0.09411765 0.72352941
v 0.07921899 0.05837556 0.01828096 0.87647060 0.09411765 0.72352941
v 0.07542239 0.05946140 0.00636098 0.87647060 0.09411765 0.72352941
v 0.06763584 0.06383469 0.00636098 0.87647060 0.09411765 0.72352941
v 0.07048511 0.06180328 0.01828096 0.87647060 0.09411765 0.72352941
v 0.07059869 0.06193251 0.02234314 0.87647060 0.09411765 0.72352941
v 0.07262869 0.06067332 0.02234314 0.87647060 0.09411765 0.72352941
v 0.07515654 0.05973563 0.02234314 0.87647060 0.09411765 0.72352941
v 0.07515654 0.06043535 0.02480236 0.87647060 0.09411765 0.72352941
v 0.07921899 0.06000827 0.02501974 0.87647060 0.09411765 0.72352941
v 0.08328142 0.05985540 0.02502164 0.87647060 0.09411765 0.72352941
v 0.08470485 0.06094596 0.02525035 0.87647060 0.09411765 0.72352941
v 0.08470485 0.05888303 0.02328070 0.87647060 0.09411765 0.72352941
v 0.08470485 0.05987430 0.02502164 0.87647060 0.09411765 0.72352941
v 0.07515654 0.05953863 0.01828096 0.87647060 0.09411765 0.72352941
v 0.07515654 0.05953863 0.00636098 0.87647060 0.09411765 0.72352941
v 0.07048511 0.06180328 0.00636098 0.87647060 0.09411765 0.72352941
v 0.07251512 0.06061028 0.01828096 0.87647060 0.09411765 0.72352941
v 0.07268911 0.06053935 0.00636098 0.87647060 0.09411765 0.72352941
v 0.07251512 0.06061028 0.00636098 0.87647060 0.09411765 0.72352941
f 1 2 3
f 1 3 8
f 1 8 16
f 1 16 26
f 1 26 37
f 1 37 39
f 1 39 28
f 1 28 17
f 1 17 9
f 1 9 4
f 1 4 11
f 1 11 20
f 1 20 30
f 1 30 42
f 1 42 60
f 1 60 73
f 1 73 76
f 1 76 77
f 1 77 74
f 1 74 61
f 1 61 43
f 1 43 31
f 1 31 21
f 1 21 12
f 1 12 5
f 1 5 2
f 2 5 6
f 2 6 3
f 3 6 7
f 3 7 8
f 4 9 10
f 4 10 11
f 5 12 6
f 6 12 13
f 6 13 7
f 7 14 8
f 7 13 15
f 7 15 14
f 8 14 16
f 9 17 18
f 9 18 19
f 9 19 10
f 10 19 18
f 10 18 27
f 10 27 38
f 10 38 55
f 10 55 54
f 10 54 53
f 10 53 52
f 10 52 69
f 10 69 71
f 10 71 70
f 10 70 56
f 10 56 40
f 10 40 29
f 10 29 20
f 10 20 11
f 12 21 13
f 13 22 15
f 13 21 31
f 13 31 22
f 14 15 23
f 14 23 24
f 14 24 25
f 14 25 16
f 15 22 23
f 16 25 26
f 17 27 18
f 17 28 27
f 20 29 41
f 20 41 30
f 22 32 23
f 22 31 43
f 22 43 32
f 23 32 33
f 23 33 24
f 24 33 34
f 24 34 35
f 24 35 25
f 25 35 26
f 26 35 36
f 26 36 37
f 27 28 39
f 27 39 38
f 29 40 41
f 30 41 59
f 30 59 42
f 32 43 61
f 32 61 44
f 32 44 45
f 32 45 33
f 33 45 34
f 34 45 46
f 34 46 47
f 34 47 35
f 35 47 48
f 35 48 49
f 35 49 36
f 36 49 50
f 36 50 51
f 36 51 52
f 36 52 37
f 37 52 53
f 37 53 54
f 37 54 39
f 38 39 55
f 39 54 55
f 40 56 41
f 41 56 57
f 41 57 58
f 41 58 59
f 42 59 60
f 44 61 74
f 44 74 62
f 44 62 63
f 44 63 45
f 45 63 46
f 46 63 64
f 46 64 65
f 46 65 58
f 46 58 66
f 46 66 47
f 47 66 48
f 48 66 67
f 48 67 50
f 48 50 49
f 50 67 68
f 50 68 51
f 51 68 69
f 51 69 52
f 56 70 57
f 57 68 67
f 57 67 58
f 57 70 71
f 57 71 68
f 58 67 66
f 58 65 59
f 59 65 72
f 59 72 60
f 60 72 73
f 62 74 77
f 62 77 75
f 62 75 64
f 62 64 63
f 64 75 72
f 64 72 65
f 68 71 69
f 72 75 76
f 72 76 73
f 75 77 76