# https://github.com/mikedh/trimesh
v 0.09630417 0.09257307 0.00636285 0.69411765 0.41176470 0.87647060
v 0.08470597 0.09880949 0.00636285 0.69411765 0.41176470 0.87647060
v 0.09630417 0.10570271 0.00636285 0.69411765 0.41176470 0.87647060
v 0.09630417 0.09569900 0.02234348 0.69411765 0.41176470 0.87647060
v 0.08470597 0.10072977 0.02234348 0.69411765 0.41176470 0.87647060
v 0.08470597 0.10570271 0.00636285 0.69411765 0.41176470 0.87647060
v 0.09630417 0.10570271 0.02514117 0.69411765 0.41176470 0.87647060
v 0.09630417 0.09630052 0.02353386 0.69411765 0.41176470 0.87647060
v 0.08470597 0.10122204 0.02472803 0.69411765 0.41176470 0.87647060
v 0.08470597 0.10570271 0.02542602 0.69411765 0.41176470 0.87647060
v 0.09546852 0.10570271 0.02524493 0.69411765 0.41176470 0.87647060
v 0.09630417 0.10415261 0.02542791 0.69411765 0.41176470 0.87647060
v 0.09630417 0.09731466 0.02489025 0.69411765 0.41176470 0.87647060
v 0.08470597 0.10359348 0.02537510 0.69411765 0.41176470 0.87647060
v 0.09140603 0.10359348 0.02560902 0.69411765 0.41176470 0.87647060
v 0.08734465 0.10570271 0.02545055 0.69411765 0.41176470 0.87647060
v 0.09546852 0.10359348 0.02563355 0.69411765 0.41176470 0.87647060
v 0.09630417 0.10360890 0.02552790 0.69411765 0.41176470 0.87647060
v 0.09630417 0.09943672 0.02526945 0.69411765 0.41176470 0.87647060
f 1 2 6
f 1 6 3
f 1 3 7
f 1 7 12
f 1 12 18
f 1 18 19
f 1 19 13
f 1 13 8
f 1 8 4
f 1 4 5
f 1 5 2
f 2 5 9
f 2 9 14
f 2 14 10
f 2 10 6
f 3 6 10
f 3 10 16
f 3 16 11
f 3 11 7
f 4 8 9
f 4 9 5
f 7 11 12
f 8 13 9
f 9 13 14
f 10 14 15
f 10 15 16
f 11 16 17
f 11 17 12
f 12 17 18
f 13 19 14
f 14 19 15
f 15 17 16
f 15 19 17
f 17 19 18