# https://github.com/mikedh/trimesh
v -0.05913846 0.07354390 -0.00851490 0.88235293 0.85882353 0.97647058
v -0.05968154 0.07171080 -0.00851490 0.88235293 0.85882353 0.97647058
v -0.07415724 0.07354390 -0.00851490 0.88235293 0.85882353 0.97647058
v -0.06026845 0.07354390 0.02087651 0.88235293 0.85882353 0.97647058
v -0.06315191 0.06707202 -0.00851490 0.88235293 0.85882353 0.97647058
v -0.06068002 0.07263288 0.02234223 0.88235293 0.85882353 0.97647058
v -0.06192693 0.07060242 0.02234223 0.88235293 0.85882353 0.97647058
v -0.06179785 0.07048717 0.01827971 0.88235293 0.85882353 0.97647058
v -0.06382893 0.06763727 0.01827971 0.88235293 0.85882353 0.97647058
v -0.08401554 0.06860513 -0.00851490 0.88235293 0.85882353 0.97647058
v -0.08401554 0.06977350 -0.00177860 0.88235293 0.85882353 0.97647058
v -0.07498283 0.07354390 0.00203295 0.88235293 0.85882353 0.97647058
v -0.06033907 0.07354390 0.02234223 0.88235293 0.85882353 0.97647058
v -0.06707525 0.06315478 -0.00851490 0.88235293 0.85882353 0.97647058
v -0.06560430 0.06560523 0.01827971 0.88235293 0.85882353 0.97647058
v -0.06049251 0.07354390 0.02387487 0.88235293 0.85882353 0.97647058
v -0.06080910 0.07287446 0.02451069 0.88235293 0.85882353 0.97647058
v -0.06395800 0.06777462 0.02234223 0.88235293 0.85882353 0.97647058
v -0.08401554 0.05743288 -0.00851490 0.88235293 0.85882353 0.97647058
v -0.08401554 0.06976087 -0.00104574 0.88235293 0.85882353 0.97647058
v -0.08401554 0.06970561 0.00212999 0.88235293 0.85882353 0.97647058
v -0.08401554 0.06930931 0.01421718 0.88235293 0.85882353 0.97647058
v -0.07190454 0.07354390 0.02234223 0.88235293 0.85882353 0.97647058
v -0.07170972 0.05967964 -0.00851490 0.88235293 0.85882353 0.97647058
v -0.06763539 0.06383529 0.01827971 0.88235293 0.85882353 0.97647058
v -0.06574312 0.06574260 0.02234223 0.88235293 0.85882353 0.97647058
v -0.06777420 0.06396318 0.02234223 0.88235293 0.85882353 0.97647058
v -0.06069951 0.07354390 0.02459435 0.88235293 0.85882353 0.97647058
v -0.06152510 0.07354390 0.02486875 0.88235293 0.85882353 0.97647058
v -0.06301066 0.07134924 0.02496581 0.88235293 0.85882353 0.97647058
v -0.06439149 0.06829409 0.02479179 0.88235293 0.85882353 0.97647058
v -0.08328006 0.05741552 -0.00851490 0.88235293 0.85882353 0.97647058
v -0.08328006 0.05788602 0.01827971 0.88235293 0.85882353 0.97647058
v -0.08401554 0.05791444 0.01827971 0.88235293 0.85882353 0.97647058
v -0.08401554 0.06887827 0.01745983 0.88235293 0.85882353 0.97647058
v -0.07153925 0.07354390 0.02323906 0.88235293 0.85882353 0.97647058
v -0.07515574 0.05856810 -0.00851490 0.88235293 0.85882353 0.97647058
v -0.07048717 0.06180326 0.01827971 0.88235293 0.85882353 0.97647058
v -0.07059920 0.06193273 0.02234223 0.88235293 0.85882353 0.97647058
v -0.07262784 0.06067435 0.02234223 0.88235293 0.85882353 0.97647058
v -0.07515574 0.05953755 0.01827971 0.88235293 0.85882353 0.97647058
v -0.06829536 0.06439580 0.02479179 0.88235293 0.85882353 0.97647058
v -0.07286895 0.06080382 0.02451403 0.88235293 0.85882353 0.97647058
v -0.06298630 0.07354390 0.02524354 0.88235293 0.85882353 0.97647058
v -0.06697783 0.06697730 0.02513311 0.88235293 0.85882353 0.97647058
v -0.07921789 0.05774550 -0.00851490 0.88235293 0.85882353 0.97647058
v -0.07921789 0.05837548 0.01827971 0.88235293 0.85882353 0.97647058
v -0.07921789 0.05872758 0.02234223 0.88235293 0.85882353 0.97647058
v -0.08328006 0.05832811 0.02234223 0.88235293 0.85882353 0.97647058
v -0.08401554 0.05835337 0.02234223 0.88235293 0.85882353 0.97647058
v -0.08401554 0.06767041 0.02234223 0.88235293 0.85882353 0.97647058
v -0.07035567 0.07354390 0.02491560 0.88235293 0.85882353 0.97647058
v -0.07515574 0.05973491 0.02234223 0.88235293 0.85882353 0.97647058
v -0.07134928 0.06301269 0.02496915 0.88235293 0.85882353 0.97647058
v -0.07515574 0.06043593 0.02480182 0.88235293 0.85882353 0.97647058
v -0.06458147 0.07354390 0.02553134 0.88235293 0.85882353 0.97647058
v -0.06703385 0.07109346 0.02565850 0.88235293 0.85882353 0.97647058
v -0.07109601 0.06703098 0.02565850 0.88235293 0.85882353 0.97647058
v -0.07515574 0.06297006 0.02545102 0.88235293 0.85882353 0.97647058
v -0.07921789 0.06000805 0.02501934 0.88235293 0.85882353 0.97647058
v -0.08328006 0.05985490 0.02502268 0.88235293 0.85882353 0.97647058
v -0.08401554 0.05986437 0.02502268 0.88235293 0.85882353 0.97647058
v -0.08401554 0.06611522 0.02502268 0.88235293 0.85882353 0.97647058
v -0.06873617 0.07354390 0.02530044 0.88235293 0.85882353 0.97647058
v -0.06703385 0.07354390 0.02550457 0.88235293 0.85882353 0.97647058
v -0.07921789 0.06297006 0.02566854 0.88235293 0.85882353 0.97647058
v -0.08401554 0.06297006 0.02567188 0.88235293 0.85882353 0.97647058
v -0.08328006 0.06297006 0.02567188 0.88235293 0.85882353 0.97647058
f 1 2 5
f 1 5 14
f 1 14 24
f 1 24 37
f 1 37 46
f 1 46 32
f 1 32 19
f 1 19 10
f 1 10 3
f 1 3 12
f 1 12 23
f 1 23 36
f 1 36 52
f 1 52 64
f 1 64 65
f 1 65 56
f 1 56 44
f 1 44 29
f 1 29 28
f 1 28 16
f 1 16 13
f 1 13 4
f 1 4 2
f 2 4 6
f 2 6 7
f 2 7 8
f 2 8 9
f 2 9 5
f 3 10 11
f 3 11 12
f 4 13 6
f 5 9 15
f 5 15 14
f 6 13 16
f 6 16 17
f 6 17 7
f 7 18 9
f 7 9 8
f 7 17 18
f 9 18 15
f 10 19 34
f 10 34 50
f 10 50 62
f 10 62 67
f 10 67 63
f 10 63 51
f 10 51 35
f 10 35 22
f 10 22 21
f 10 21 20
f 10 20 11
f 11 20 12
f 12 20 21
f 12 21 22
f 12 22 23
f 14 15 25
f 14 25 24
f 15 18 26
f 15 26 27
f 15 27 25
f 16 28 17
f 17 28 29
f 17 29 30
f 17 30 31
f 17 31 18
f 18 31 26
f 19 32 33
f 19 33 34
f 22 35 23
f 23 35 36
f 24 25 38
f 24 38 39
f 24 39 40
f 24 40 41
f 24 41 37
f 25 27 39
f 25 39 38
f 26 31 42
f 26 42 27
f 27 42 43
f 27 43 39
f 29 44 30
f 30 44 45
f 30 45 31
f 31 45 42
f 32 46 33
f 33 47 48
f 33 48 49
f 33 49 50
f 33 50 34
f 33 46 47
f 35 51 36
f 36 51 52
f 37 41 47
f 37 47 46
f 39 43 40
f 40 43 53
f 40 53 41
f 41 53 47
f 42 45 54
f 42 54 43
f 43 54 55
f 43 55 48
f 43 48 53
f 44 56 45
f 45 56 57
f 45 57 58
f 45 58 59
f 45 59 54
f 47 53 48
f 48 55 60
f 48 60 49
f 49 60 61
f 49 61 62
f 49 62 50
f 51 63 52
f 52 63 64
f 54 59 55
f 55 59 60
f 56 65 57
f 57 66 58
f 57 65 67
f 57 67 68
f 57 68 66
f 58 66 59
f 59 66 60
f 60 66 61
f 61 66 68
f 61 68 67
f 61 67 62
f 63 67 65
f 63 65 64