# https://github.com/mikedh/trimesh
v -0.12410939 -0.10036381 -0.01106718 1.01764705 0.53529413 0.65294118
v -0.10547166 -0.10036381 -0.01106718 1.01764705 0.53529413 0.65294118
v -0.12410939 -0.10036381 -0.00851514 1.01764705 0.53529413 0.65294118
v -0.12410939 -0.02234435 -0.01106718 1.01764705 0.53529413 0.65294118
v -0.10547166 -0.10036381 -0.00851514 1.01764705 0.53529413 0.65294118
v -0.10547166 -0.05675545 -0.01106718 1.01764705 0.53529413 0.65294118
v -0.12410939 -0.02234435 -0.00851514 1.01764705 0.53529413 0.65294118
v -0.12226677 0.00001992 -0.01106718 1.01764705 0.53529413 0.65294118
v -0.10547166 -0.06597235 -0.00851514 1.01764705 0.53529413 0.65294118
v -0.10548442 0.00001992 -0.01106718 1.01764705 0.53529413 0.65294118
v -0.12223392 0.00001992 -0.00851514 1.01764705 0.53529413 0.65294118
v -0.10976986 0.00001992 -0.00851514 1.01764705 0.53529413 0.65294118
f 1 2 5
f 1 5 3
f 1 3 7
f 1 7 4
f 1 4 8
f 1 8 10
f 1 10 6
f 1 6 2
f 2 6 9
f 2 9 5
f 3 5 9
f 3 9 12
f 3 12 11
f 3 11 7
f 4 7 8
f 6 10 9
f 7 11 8
f 8 11 12
f 8 12 10
f 9 10 12