# https://github.com/mikedh/trimesh
v -0.12410939 0.02234547 -0.01828145 0.65294118 1.33529412 1.44117646
v -0.12380571 0.00001992 -0.02234286 0.65294118 1.33529412 1.44117646
v -0.12410939 0.02234547 -0.01179052 0.65294118 1.33529412 1.44117646
v -0.12410939 0.11983452 -0.01828145 0.65294118 1.33529412 1.44117646
v -0.12268822 0.00001992 -0.02502239 0.65294118 1.33529412 1.44117646
v -0.12330769 0.00001992 -0.01828145 0.65294118 1.33529412 1.44117646
v -0.12380571 0.11983452 -0.02234286 0.65294118 1.33529412 1.44117646
v -0.12228739 0.00001992 -0.01179052 0.65294118 1.33529412 1.44117646
v -0.12410939 0.11983452 -0.01179052 0.65294118 1.33529412 1.44117646
v -0.12299189 0.12299265 -0.01828145 0.65294118 1.33529412 1.44117646
v -0.12283400 0.12283473 -0.02234286 0.65294118 1.33529412 1.44117646
v -0.12127921 0.00001992 -0.02534442 0.65294118 1.33529412 1.44117646
v -0.12268822 0.11983452 -0.02502239 0.65294118 1.33529412 1.44117646
v -0.12240885 0.12240961 -0.02480634 0.65294118 1.33529412 1.44117646
v -0.10361805 0.00001992 -0.01179052 0.65294118 1.33529412 1.44117646
v -0.12299189 0.12299265 -0.01179052 0.65294118 1.33529412 1.44117646
v -0.12171650 0.12344206 -0.01179052 0.65294118 1.33529412 1.44117646
v -0.11983377 0.12409799 -0.01828145 0.65294118 1.33529412 1.44117646
v -0.11983377 0.12380647 -0.02234286 0.65294118 1.33529412 1.44117646
v -0.11983377 0.00001992 -0.02567188 0.65294118 1.33529412 1.44117646
v -0.11983377 0.11983452 -0.02567188 0.65294118 1.33529412 1.44117646
v -0.11983377 0.12268897 -0.02502239 0.65294118 1.33529412 1.44117646
v -0.00001956 0.00001992 -0.01182857 0.65294118 1.33529412 1.44117646
v -0.00001956 0.10361874 -0.01179052 0.65294118 1.33529412 1.44117646
v -0.11983377 0.12409799 -0.01179052 0.65294118 1.33529412 1.44117646
v -0.11577681 0.12411014 -0.01828145 0.65294118 1.33529412 1.44117646
v -0.00001956 0.12380647 -0.02234286 0.65294118 1.33529412 1.44117646
v -0.00003170 0.00001992 -0.02567188 0.65294118 1.33529412 1.44117646
v -0.00001956 0.12127996 -0.02534442 0.65294118 1.33529412 1.44117646
v -0.00001956 0.11983452 -0.02567188 0.65294118 1.33529412 1.44117646
v -0.00001956 0.12268897 -0.02502239 0.65294118 1.33529412 1.44117646
v -0.00001956 0.00203626 -0.02567188 0.65294118 1.33529412 1.44117646
v -0.00001956 0.12228813 -0.01179052 0.65294118 1.33529412 1.44117646
v -0.11577681 0.12411014 -0.01179052 0.65294118 1.33529412 1.44117646
v -0.02234503 0.12411014 -0.01828145 0.65294118 1.33529412 1.44117646
v -0.02234503 0.12411014 -0.01179052 0.65294118 1.33529412 1.44117646
v -0.00001956 0.12330846 -0.01828145 0.65294118 1.33529412 1.44117646
f 1 2 3
f 1 3 9
f 1 9 4
f 1 4 7
f 1 7 2
f 2 5 12
f 2 12 20
f 2 20 28
f 2 28 23
f 2 23 15
f 2 15 8
f 2 8 6
f 2 6 3
f 2 7 13
f 2 13 5
f 3 6 8
f 3 8 15
f 3 15 24
f 3 24 33
f 3 33 36
f 3 36 34
f 3 34 25
f 3 25 17
f 3 17 16
f 3 16 9
f 4 9 16
f 4 16 10
f 4 10 11
f 4 11 7
f 5 13 12
f 7 11 14
f 7 14 13
f 10 16 17
f 10 17 18
f 10 18 11
f 11 18 19
f 11 19 14
f 12 13 21
f 12 21 20
f 13 14 21
f 14 19 22
f 14 22 21
f 15 23 24
f 17 25 18
f 18 25 34
f 18 34 26
f 18 26 19
f 19 26 35
f 19 35 27
f 19 27 31
f 19 31 22
f 20 21 30
f 20 30 32
f 20 32 28
f 21 22 29
f 21 29 30
f 22 31 29
f 23 28 32
f 23 32 30
f 23 30 29
f 23 29 31
f 23 31 27
f 23 27 37
f 23 37 33
f 23 33 24
f 26 34 36
f 26 36 35
f 27 35 36
f 27 36 37
f 33 37 36