# https://github.com/mikedh/trimesh
v 0.08484432 0.09846892 -0.00693930 0.19411764 0.07647059 1.08823530
v 0.08404308 0.09881541 0.00609275 0.19411764 0.07647059 1.08823530
v 0.08404308 0.09960385 -0.00293295 0.19411764 0.07647059 1.08823530
v 0.08484432 0.10570280 -0.00693930 0.19411764 0.07647059 1.08823530
v 0.09534334 0.09366521 -0.00693930 0.19411764 0.07647059 1.08823530
v 0.09459950 0.09455500 0.00609275 0.19411764 0.07647059 1.08823530
v 0.09468663 0.09455500 0.00635967 0.19411764 0.07647059 1.08823530
v 0.08404308 0.09886728 0.00635967 0.19411764 0.07647059 1.08823530
v 0.08404308 0.10570398 -0.00293295 0.19411764 0.07647059 1.08823530
v 0.10126872 0.10570280 -0.00693930 0.19411764 0.07647059 1.08823530
v 0.10575525 0.09366521 -0.00693930 0.19411764 0.07647059 1.08823530
v 0.09766206 0.09366521 -0.00293295 0.19411764 0.07647059 1.08823530
v 0.10575525 0.09455500 0.00635967 0.19411764 0.07647059 1.08823530
v 0.08404308 0.10570398 0.00635967 0.19411764 0.07647059 1.08823530
v 0.10122834 0.10570398 -0.00293295 0.19411764 0.07647059 1.08823530
v 0.10122834 0.10570398 0.00342228 0.19411764 0.07647059 1.08823530
v 0.10122410 0.10570398 0.00635967 0.19411764 0.07647059 1.08823530
v 0.10575525 0.10122671 0.00635967 0.19411764 0.07647059 1.08823530
v 0.10575525 0.10126677 -0.00693930 0.19411764 0.07647059 1.08823530
v 0.10575525 0.09366521 -0.00293295 0.19411764 0.07647059 1.08823530
f 1 2 3
f 1 3 9
f 1 9 4
f 1 4 10
f 1 10 19
f 1 19 11
f 1 11 5
f 1 5 2
f 2 5 6
f 2 6 7
f 2 7 8
f 2 8 14
f 2 14 9
f 2 9 3
f 4 9 15
f 4 15 10
f 5 7 6
f 5 11 20
f 5 20 12
f 5 12 7
f 7 12 20
f 7 20 13
f 7 13 18
f 7 18 17
f 7 17 14
f 7 14 8
f 9 14 17
f 9 17 16
f 9 16 15
f 10 15 16
f 10 16 17
f 10 17 18
f 10 18 19
f 11 19 18
f 11 18 13
f 11 13 20