# https://github.com/mikedh/trimesh
v 0.11984391 0.11984048 0.02567188 1.04117648 0.08823529 1.00000000
v 0.12268943 0.11984048 0.02502288 1.04117648 0.08823529 1.00000000
v 0.12241809 0.12241887 0.02480415 1.04117648 0.08823529 1.00000000
v 0.11984391 0.12268692 0.02502288 1.04117648 0.08823529 1.00000000
v 0.10974681 0.11984048 0.02567188 1.04117648 0.08823529 1.00000000
v 0.11984391 0.05891006 0.02567188 1.04117648 0.08823529 1.00000000
v 0.12380711 0.11984048 0.02234076 1.04117648 0.08823529 1.00000000
v 0.12268943 0.06297549 0.02502288 1.04117648 0.08823529 1.00000000
v 0.12284127 0.12284008 0.02234076 1.04117648 0.08823529 1.00000000
v 0.11984391 0.12380380 0.02234076 1.04117648 0.08823529 1.00000000
v 0.10974681 0.12268692 0.02502288 1.04117648 0.08823529 1.00000000
v 0.10974681 0.11578143 0.02567188 1.04117648 0.08823529 1.00000000
v 0.11578230 0.05891006 0.02567188 1.04117648 0.08823529 1.00000000
v 0.12269083 0.05891006 0.02501930 1.04117648 0.08823529 1.00000000
v 0.12410797 0.11984048 0.01827813 1.04117648 0.08823529 1.00000000
v 0.12380711 0.06297549 0.02234076 1.04117648 0.08823529 1.00000000
v 0.12299171 0.12298687 0.01827813 1.04117648 0.08823529 1.00000000
v 0.11984391 0.12410376 0.01827813 1.04117648 0.08823529 1.00000000
v 0.11578230 0.12411014 0.01827813 1.04117648 0.08823529 1.00000000
v 0.10974681 0.12396336 0.02025387 1.04117648 0.08823529 1.00000000
v 0.10974681 0.12380380 0.02234076 1.04117648 0.08823529 1.00000000
v 0.10974681 0.08328349 0.02552847 1.04117648 0.08823529 1.00000000
v 0.11245174 0.05891006 0.02502288 1.04117648 0.08823529 1.00000000
v 0.12380711 0.05891006 0.02233718 1.04117648 0.08823529 1.00000000
v 0.12410797 0.11984048 -0.01095984 1.04117648 0.08823529 1.00000000
v 0.12388725 0.12046593 -0.01095984 1.04117648 0.08823529 1.00000000
v 0.12410797 0.06297549 0.01827813 1.04117648 0.08823529 1.00000000
v 0.12046672 0.12388676 -0.01095984 1.04117648 0.08823529 1.00000000
v 0.12299171 0.12298687 -0.01095984 1.04117648 0.08823529 1.00000000
v 0.11984391 0.12410376 -0.01095984 1.04117648 0.08823529 1.00000000
v 0.10974681 0.12411014 0.01827813 1.04117648 0.08823529 1.00000000
v 0.11578230 0.12411014 -0.01095984 1.04117648 0.08823529 1.00000000
v 0.10974681 0.08131141 0.02544240 1.04117648 0.08823529 1.00000000
v 0.10974681 0.07109997 0.02410134 1.04117648 0.08823529 1.00000000
v 0.10974681 0.06713666 0.02305431 1.04117648 0.08823529 1.00000000
v 0.11070843 0.05891006 0.02234076 1.04117648 0.08823529 1.00000000
v 0.10974681 0.07922445 0.02534918 1.04117648 0.08823529 1.00000000
v 0.10974681 0.07724598 0.02515555 1.04117648 0.08823529 1.00000000
v 0.10974681 0.07529943 0.02496192 1.04117648 0.08823529 1.00000000
v 0.12410797 0.05891006 0.01827454 1.04117648 0.08823529 1.00000000
v 0.12410797 0.05891006 -0.01095984 1.04117648 0.08823529 1.00000000
v 0.10974681 0.12411014 -0.01095984 1.04117648 0.08823529 1.00000000
v 0.10974681 0.06465399 0.02064471 1.04117648 0.08823529 1.00000000
v 0.11026558 0.05891006 0.01827813 1.04117648 0.08823529 1.00000000
v 0.10974681 0.05891006 -0.01095984 1.04117648 0.08823529 1.00000000
v 0.10974681 0.06410512 0.01827813 1.04117648 0.08823529 1.00000000
v 0.10974681 0.05891006 -0.00852872 1.04117648 0.08823529 1.00000000
f 1 2 3
f 1 3 4
f 1 4 11
f 1 11 5
f 1 5 12
f 1 12 13
f 1 13 6
f 1 6 8
f 1 8 2
f 2 7 3
f 2 8 16
f 2 16 7
f 3 9 10
f 3 10 4
f 3 7 9
f 4 10 21
f 4 21 11
f 5 11 21
f 5 21 20
f 5 20 31
f 5 31 42
f 5 42 45
f 5 45 47
f 5 47 46
f 5 46 43
f 5 43 35
f 5 35 34
f 5 34 39
f 5 39 38
f 5 38 37
f 5 37 33
f 5 33 22
f 5 22 12
f 6 13 23
f 6 23 36
f 6 36 44
f 6 44 47
f 6 47 45
f 6 45 41
f 6 41 40
f 6 40 24
f 6 24 14
f 6 14 8
f 7 15 9
f 7 16 27
f 7 27 15
f 8 14 16
f 9 15 17
f 9 17 18
f 9 18 10
f 10 18 19
f 10 19 20
f 10 20 21
f 12 22 13
f 13 22 23
f 14 24 16
f 15 25 26
f 15 26 17
f 15 27 40
f 15 40 41
f 15 41 25
f 16 24 40
f 16 40 27
f 17 28 18
f 17 26 29
f 17 29 28
f 18 28 30
f 18 30 32
f 18 32 19
f 19 31 20
f 19 32 42
f 19 42 31
f 22 33 23
f 23 34 35
f 23 35 36
f 23 33 37
f 23 37 38
f 23 38 39
f 23 39 34
f 25 41 45
f 25 45 42
f 25 42 32
f 25 32 30
f 25 30 28
f 25 28 29
f 25 29 26
f 35 43 36
f 36 43 44
f 43 46 44
f 44 46 47