# https://github.com/mikedh/trimesh
v 0.05775495 0.08399924 -0.00694060 0.11764706 0.12941177 1.00588236
v 0.06901083 0.08399924 -0.00694060 0.11764706 0.12941177 1.00588236
v 0.05792530 0.08399924 -0.00293379 0.11764706 0.12941177 1.00588236
v 0.05785350 0.08734578 -0.00694060 0.11764706 0.12941177 1.00588236
v 0.06973740 0.08399924 -0.00552511 0.11764706 0.12941177 1.00588236
v 0.07481666 0.09472729 -0.00694060 0.11764706 0.12941177 1.00588236
v 0.06972570 0.08399924 -0.00293379 0.11764706 0.12941177 1.00588236
v 0.05801049 0.08644273 -0.00293379 0.11764706 0.12941177 1.00588236
v 0.05804223 0.08734578 -0.00293379 0.11764706 0.12941177 1.00588236
v 0.05854164 0.09140838 -0.00694060 0.11764706 0.12941177 1.00588236
v 0.07481666 0.09491640 -0.00602676 0.11764706 0.12941177 1.00588236
v 0.07481666 0.10570398 -0.00694060 0.11764706 0.12941177 1.00588236
v 0.07481666 0.09493554 -0.00594714 0.11764706 0.12941177 1.00588236
v 0.07481666 0.09566859 -0.00293379 0.11764706 0.12941177 1.00588236
v 0.05882056 0.09140838 -0.00293379 0.11764706 0.12941177 1.00588236
v 0.05985614 0.09530100 -0.00694060 0.11764706 0.12941177 1.00588236
v 0.06624154 0.10570398 -0.00694060 0.11764706 0.12941177 1.00588236
v 0.07481666 0.10570398 -0.00293379 0.11764706 0.12941177 1.00588236
v 0.06016179 0.09515226 -0.00293379 0.11764706 0.12941177 1.00588236
v 0.06109881 0.09718356 -0.00293379 0.11764706 0.12941177 1.00588236
v 0.06240661 0.09953145 -0.00694060 0.11764706 0.12941177 1.00588236
v 0.06638685 0.10570398 -0.00293379 0.11764706 0.12941177 1.00588236
f 1 2 5
f 1 5 7
f 1 7 3
f 1 3 4
f 1 4 10
f 1 10 16
f 1 16 21
f 1 21 17
f 1 17 12
f 1 12 6
f 1 6 2
f 2 6 5
f 3 7 14
f 3 14 18
f 3 18 22
f 3 22 20
f 3 20 19
f 3 19 15
f 3 15 9
f 3 9 8
f 3 8 4
f 4 8 9
f 4 9 10
f 5 6 7
f 6 11 7
f 6 12 18
f 6 18 14
f 6 14 13
f 6 13 11
f 7 11 13
f 7 13 14
f 9 15 10
f 10 15 16
f 12 17 22
f 12 22 18
f 15 19 16
f 16 19 20
f 16 20 21
f 17 21 22
f 20 22 21