# https://github.com/mikedh/trimesh
v -0.08401554 0.05743239 -0.00851490 0.97647058 0.64705883 1.34117647
v -0.08686551 0.05749970 -0.00851490 0.97647058 0.64705883 1.34117647
v -0.08401554 0.06860579 -0.00851490 0.97647058 0.64705883 1.34117647
v -0.08401554 0.05791478 0.01827971 0.97647058 0.64705883 1.34117647
v -0.08734470 0.05751652 -0.00851490 0.97647058 0.64705883 1.34117647
v -0.09628496 0.07538348 -0.00851490 0.97647058 0.64705883 1.34117647
v -0.09628496 0.07647165 -0.00330456 0.97647058 0.64705883 1.34117647
v -0.08401554 0.06977248 -0.00177860 0.97647058 0.64705883 1.34117647
v -0.08401554 0.05835228 0.02234223 0.97647058 0.64705883 1.34117647
v -0.08734470 0.05846261 0.02234223 0.97647058 0.64705883 1.34117647
v -0.08734470 0.05804191 0.01827971 0.97647058 0.64705883 1.34117647
v -0.09044929 0.05787738 -0.00851490 0.97647058 0.64705883 1.34117647
v -0.09628496 0.05976767 -0.00851490 0.97647058 0.64705883 1.34117647
v -0.09628496 0.07653149 -0.00193589 0.97647058 0.64705883 1.34117647
v -0.08401554 0.06976125 -0.00104574 0.97647058 0.64705883 1.34117647
v -0.08401554 0.05986488 0.02502268 0.97647058 0.64705883 1.34117647
v -0.08734470 0.05991162 0.02502268 0.97647058 0.64705883 1.34117647
v -0.09140649 0.06017151 0.02496581 0.97647058 0.64705883 1.34117647
v -0.09437056 0.06054358 0.02473155 0.97647058 0.64705883 1.34117647
v -0.09140649 0.05911700 0.02234223 0.97647058 0.64705883 1.34117647
v -0.09140649 0.05883093 0.01827971 0.97647058 0.64705883 1.34117647
v -0.09140649 0.05805874 -0.00851490 0.97647058 0.64705883 1.34117647
v -0.09614563 0.05959003 -0.00851490 0.97647058 0.64705883 1.34117647
v -0.09628496 0.06070065 0.01827971 0.97647058 0.64705883 1.34117647
v -0.09628496 0.07628655 0.01343747 0.97647058 0.64705883 1.34117647
v -0.08401554 0.06970516 0.00212999 0.97647058 0.64705883 1.34117647
v -0.08401554 0.06297047 0.02567188 0.97647058 0.64705883 1.34117647
v -0.08734470 0.06297047 0.02567188 0.97647058 0.64705883 1.34117647
v -0.09140649 0.06297047 0.02561500 0.97647058 0.64705883 1.34117647
v -0.09562200 0.06277602 0.02510636 0.97647058 0.64705883 1.34117647
v -0.09628496 0.06300039 0.02505615 0.97647058 0.64705883 1.34117647
v -0.09628496 0.06091566 0.02234223 0.97647058 0.64705883 1.34117647
v -0.09498428 0.06025566 0.02234223 0.97647058 0.64705883 1.34117647
v -0.09450867 0.05893751 -0.00851490 0.97647058 0.64705883 1.34117647
v -0.09556796 0.05931706 -0.00851490 0.97647058 0.64705883 1.34117647
v -0.09628496 0.07312301 0.02234223 0.97647058 0.64705883 1.34117647
v -0.08401554 0.06766905 0.02234223 0.97647058 0.64705883 1.34117647
v -0.08401554 0.06887875 0.01745983 0.97647058 0.64705883 1.34117647
v -0.08401554 0.06931067 0.01421718 0.97647058 0.64705883 1.34117647
v -0.09628496 0.07095414 0.02502937 0.97647058 0.64705883 1.34117647
v -0.09546828 0.06703148 0.02559158 0.97647058 0.64705883 1.34117647
v -0.08401554 0.06611720 0.02502268 0.97647058 0.64705883 1.34117647
v -0.09628496 0.06703148 0.02556815 0.97647058 0.64705883 1.34117647
v -0.09628496 0.07187030 0.02480851 0.97647058 0.64705883 1.34117647
f 1 2 5
f 1 5 12
f 1 12 22
f 1 22 34
f 1 34 35
f 1 35 23
f 1 23 13
f 1 13 6
f 1 6 3
f 1 3 8
f 1 8 15
f 1 15 26
f 1 26 39
f 1 39 38
f 1 38 37
f 1 37 42
f 1 42 27
f 1 27 16
f 1 16 9
f 1 9 4
f 1 4 2
f 2 4 5
f 3 6 7
f 3 7 8
f 4 9 10
f 4 10 11
f 4 11 5
f 5 11 12
f 6 13 24
f 6 24 32
f 6 32 31
f 6 31 43
f 6 43 40
f 6 40 44
f 6 44 36
f 6 36 25
f 6 25 14
f 6 14 7
f 7 14 8
f 8 14 15
f 9 16 17
f 9 17 10
f 10 17 18
f 10 18 19
f 10 19 20
f 10 20 11
f 11 20 21
f 11 21 22
f 11 22 12
f 13 23 24
f 14 25 15
f 15 25 26
f 16 27 28
f 16 28 17
f 17 28 29
f 17 29 18
f 18 29 19
f 19 29 30
f 19 30 31
f 19 31 32
f 19 32 33
f 19 33 20
f 20 33 21
f 21 33 34
f 21 34 22
f 23 35 24
f 24 33 32
f 24 35 33
f 25 36 37
f 25 37 38
f 25 38 39
f 25 39 26
f 27 40 41
f 27 41 28
f 27 42 40
f 28 41 29
f 29 41 43
f 29 43 30
f 30 43 31
f 33 35 34
f 36 44 37
f 37 44 42
f 40 43 41
f 40 42 44