# https://github.com/mikedh/trimesh
v -0.00001956 -0.12223236 -0.00606685 1.16470589 1.30000001 1.46470589
v -0.00001956 -0.12380670 0.02234110 1.16470589 1.30000001 1.46470589
v -0.00001956 -0.11020911 -0.00606685 1.16470589 1.30000001 1.46470589
v 0.02234791 -0.12410878 -0.00606685 1.16470589 1.30000001 1.46470589
v -0.00001956 -0.12325425 0.02366782 1.16470589 1.30000001 1.46470589
v 0.02234791 -0.12410878 0.01828017 1.16470589 1.30000001 1.46470589
v 0.05888897 -0.12380806 0.02232558 1.16470589 1.30000001 1.46470589
v 0.05888897 -0.12380670 0.02234110 1.16470589 1.30000001 1.46470589
v -0.00001956 -0.11026763 0.01828017 1.16470589 1.30000001 1.46470589
v 0.05888897 -0.11020911 -0.00606685 1.16470589 1.30000001 1.46470589
v 0.05888897 -0.12410878 -0.00606685 1.16470589 1.30000001 1.46470589
v -0.00001956 -0.12268956 0.02502251 1.16470589 1.30000001 1.46470589
v 0.05888897 -0.12269499 0.02501009 1.16470589 1.30000001 1.46470589
v 0.05888897 -0.12410878 0.01828017 1.16470589 1.30000001 1.46470589
v -0.00001956 -0.11049078 0.02033084 1.16470589 1.30000001 1.46470589
v 0.05888897 -0.11026897 0.01829881 1.16470589 1.30000001 1.46470589
v 0.05888897 -0.11026763 0.01828017 1.16470589 1.30000001 1.46470589
v -0.00001956 -0.11984431 0.02567188 1.16470589 1.30000001 1.46470589
v 0.05484102 -0.12268956 0.02502251 1.16470589 1.30000001 1.46470589
v 0.05888897 -0.11984431 0.02567188 1.16470589 1.30000001 1.46470589
v -0.00001956 -0.11070985 0.02234110 1.16470589 1.30000001 1.46470589
v 0.05888897 -0.11070985 0.02234110 1.16470589 1.30000001 1.46470589
v -0.00001956 -0.11578258 0.02567188 1.16470589 1.30000001 1.46470589
v 0.05888897 -0.11578258 0.02567188 1.16470589 1.30000001 1.46470589
v -0.00001956 -0.11158887 0.02369580 1.16470589 1.30000001 1.46470589
v 0.05888897 -0.11245157 0.02502251 1.16470589 1.30000001 1.46470589
v -0.00001956 -0.11245157 0.02502251 1.16470589 1.30000001 1.46470589
v 0.05888897 -0.11246654 0.02502563 1.16470589 1.30000001 1.46470589
f 1 2 5
f 1 5 12
f 1 12 18
f 1 18 23
f 1 23 27
f 1 27 25
f 1 25 21
f 1 21 15
f 1 15 9
f 1 9 3
f 1 3 10
f 1 10 11
f 1 11 4
f 1 4 2
f 2 4 6
f 2 6 7
f 2 7 8
f 2 8 5
f 3 9 17
f 3 17 10
f 4 11 14
f 4 14 6
f 5 8 13
f 5 13 12
f 6 14 7
f 7 14 11
f 7 11 10
f 7 10 17
f 7 17 16
f 7 16 22
f 7 22 26
f 7 26 28
f 7 28 24
f 7 24 20
f 7 20 13
f 7 13 8
f 9 15 16
f 9 16 17
f 12 13 19
f 12 19 20
f 12 20 18
f 13 20 19
f 15 21 16
f 16 21 22
f 18 20 24
f 18 24 23
f 21 25 22
f 22 25 26
f 23 24 28
f 23 28 27
f 25 27 26
f 26 27 28