# https://github.com/mikedh/trimesh
v -0.11578285 0.00001992 0.02567188 0.39411765 1.15882353 0.68235294
v -0.11245195 0.00001992 0.02502268 0.39411765 1.15882353 0.68235294
v -0.11984371 0.00001992 0.02567188 0.39411765 1.15882353 0.68235294
v -0.11578285 -0.06257248 0.02567188 0.39411765 1.15882353 0.68235294
v -0.11242709 -0.06257248 0.02502268 0.39411765 1.15882353 0.68235294
v -0.11070970 0.00001992 0.02234223 0.39411765 1.15882353 0.68235294
v -0.11042298 -0.06257248 0.02208120 0.39411765 1.15882353 0.68235294
v -0.12125244 0.00001992 0.02535063 0.39411765 1.15882353 0.68235294
v -0.12241248 -0.06257248 0.02508627 0.39411765 1.15882353 0.68235294
v -0.11984371 -0.06257248 0.02567188 0.39411765 1.15882353 0.68235294
v -0.11048589 0.00001992 0.02029089 0.39411765 1.15882353 0.68235294
v -0.10998705 -0.06257248 0.01827971 0.39411765 1.15882353 0.68235294
v -0.12269041 0.00001992 0.02502268 0.39411765 1.15882353 0.68235294
v -0.12269041 -0.06257248 0.02502268 0.39411765 1.15882353 0.68235294
v -0.11026645 0.00001992 0.01827971 0.39411765 1.15882353 0.68235294
v -0.10916493 -0.06257248 -0.00851490 0.39411765 1.15882353 0.68235294
v -0.12380658 0.00001992 0.02234223 0.39411765 1.15882353 0.68235294
v -0.12369832 -0.06257248 0.02260325 0.39411765 1.15882353 0.68235294
v -0.10976908 0.00001992 -0.00851490 0.39411765 1.15882353 0.68235294
v -0.12410793 -0.06257248 -0.00851490 0.39411765 1.15882353 0.68235294
v -0.12223401 0.00001992 -0.00851490 0.39411765 1.15882353 0.68235294
v -0.12410793 -0.02234938 -0.00851490 0.39411765 1.15882353 0.68235294
v -0.12410793 -0.02234938 0.01827971 0.39411765 1.15882353 0.68235294
v -0.12407867 -0.06257248 0.01867792 0.39411765 1.15882353 0.68235294
v -0.12380658 -0.06257248 0.02234223 0.39411765 1.15882353 0.68235294
v -0.12410793 -0.06257248 0.01827971 0.39411765 1.15882353 0.68235294
f 1 2 6
f 1 6 11
f 1 11 15
f 1 15 19
f 1 19 21
f 1 21 17
f 1 17 13
f 1 13 8
f 1 8 3
f 1 3 10
f 1 10 4
f 1 4 5
f 1 5 2
f 2 5 7
f 2 7 6
f 3 8 9
f 3 9 10
f 4 10 9
f 4 9 14
f 4 14 18
f 4 18 25
f 4 25 24
f 4 24 26
f 4 26 20
f 4 20 16
f 4 16 12
f 4 12 7
f 4 7 5
f 6 7 12
f 6 12 11
f 8 13 9
f 9 13 14
f 11 12 15
f 12 16 15
f 13 17 18
f 13 18 14
f 15 16 19
f 16 20 22
f 16 22 21
f 16 21 19
f 17 21 22
f 17 22 23
f 17 23 24
f 17 24 25
f 17 25 18
f 20 26 23
f 20 23 22
f 23 26 24