# https://github.com/mikedh/trimesh
v -0.09445708 -0.07445578 -0.00851490 1.41764706 1.09411764 0.37647058
v -0.09445708 -0.05899378 -0.00851490 1.41764706 1.09411764 0.37647058
v -0.08882395 -0.07173963 -0.00851490 1.41764706 1.09411764 0.37647058
v -0.09445708 -0.07430354 0.00946484 1.41764706 1.09411764 0.37647058
v -0.09140698 -0.05805565 -0.00851490 1.41764706 1.09411764 0.37647058
v -0.09445708 -0.05991718 0.01828079 1.41764706 1.09411764 0.37647058
v -0.09140698 -0.05882843 0.01828079 1.41764706 1.09411764 0.37647058
v -0.08882395 -0.05773149 -0.00851490 1.41764706 1.09411764 0.37647058
v -0.08882395 -0.07067869 0.00618393 1.41764706 1.09411764 0.37647058
v -0.09445708 -0.07426750 0.00996650 1.41764706 1.09411764 0.37647058
v -0.08882395 -0.05832415 0.01828079 1.41764706 1.09411764 0.37647058
v -0.09445708 -0.06003834 0.02172222 1.41764706 1.09411764 0.37647058
v -0.09445708 -0.06008091 0.02234094 1.41764706 1.09411764 0.37647058
v -0.09140698 -0.05911167 0.02234094 1.41764706 1.09411764 0.37647058
v -0.08882395 -0.07030868 0.01009693 1.41764706 1.09411764 0.37647058
v -0.08882395 -0.06833581 0.02234094 1.41764706 1.09411764 0.37647058
v -0.09445708 -0.07150386 0.02234094 1.41764706 1.09411764 0.37647058
v -0.08882395 -0.05842731 0.01975902 1.41764706 1.09411764 0.37647058
v -0.09445708 -0.06050986 0.02445796 1.41764706 1.09411764 0.37647058
v -0.08882395 -0.05869254 0.02234094 1.41764706 1.09411764 0.37647058
v -0.09438540 -0.06054425 0.02473221 1.41764706 1.09411764 0.37647058
v -0.08882395 -0.06762363 0.02349477 1.41764706 1.09411764 0.37647058
v -0.09258324 -0.06946878 0.02470211 1.41764706 1.09411764 0.37647058
v -0.09445708 -0.07134996 0.02282253 1.41764706 1.09411764 0.37647058
v -0.09445708 -0.06056389 0.02466867 1.41764706 1.09411764 0.37647058
v -0.08882395 -0.05907729 0.02329744 1.41764706 1.09411764 0.37647058
v -0.09445708 -0.06067195 0.02475563 1.41764706 1.09411764 0.37647058
v -0.09140698 -0.06016768 0.02496631 1.41764706 1.09411764 0.37647058
v -0.08882395 -0.06659380 0.02504660 1.41764706 1.09411764 0.37647058
v -0.09445708 -0.07034307 0.02484927 1.41764706 1.09411764 0.37647058
v -0.08882395 -0.06000069 0.02500311 1.41764706 1.09411764 0.37647058
v -0.09445708 -0.06204560 0.02506999 1.41764706 1.09411764 0.37647058
v -0.09140698 -0.06297062 0.02561514 1.41764706 1.09411764 0.37647058
v -0.08882395 -0.06455219 0.02545461 1.41764706 1.09411764 0.37647058
v -0.09445708 -0.06986663 0.02498973 1.41764706 1.09411764 0.37647058
v -0.08882395 -0.06102067 0.02523722 1.41764706 1.09411764 0.37647058
v -0.09445708 -0.06282491 0.02524725 1.41764706 1.09411764 0.37647058
v -0.09445708 -0.06602078 0.02559843 1.41764706 1.09411764 0.37647058
v -0.08882395 -0.06297062 0.02565194 1.41764706 1.09411764 0.37647058
v -0.09445708 -0.06707188 0.02547133 1.41764706 1.09411764 0.37647058
f 1 2 5
f 1 5 8
f 1 8 3
f 1 3 4
f 1 4 10
f 1 10 17
f 1 17 24
f 1 24 30
f 1 30 35
f 1 35 40
f 1 40 38
f 1 38 37
f 1 37 32
f 1 32 27
f 1 27 25
f 1 25 19
f 1 19 13
f 1 13 12
f 1 12 6
f 1 6 2
f 2 6 7
f 2 7 5
f 3 8 11
f 3 11 18
f 3 18 20
f 3 20 26
f 3 26 31
f 3 31 36
f 3 36 39
f 3 39 34
f 3 34 29
f 3 29 22
f 3 22 16
f 3 16 15
f 3 15 9
f 3 9 10
f 3 10 4
f 5 7 11
f 5 11 8
f 6 12 7
f 7 12 13
f 7 13 14
f 7 14 11
f 9 15 10
f 10 15 16
f 10 16 17
f 11 14 18
f 13 19 14
f 14 20 18
f 14 19 21
f 14 21 20
f 16 22 23
f 16 23 24
f 16 24 17
f 19 25 21
f 20 21 26
f 21 25 27
f 21 27 28
f 21 28 26
f 22 29 23
f 23 30 24
f 23 29 30
f 26 28 31
f 27 32 33
f 27 33 28
f 28 33 31
f 29 34 35
f 29 35 30
f 31 33 36
f 32 37 33
f 33 38 39
f 33 39 36
f 33 37 38
f 34 39 40
f 34 40 35
f 38 40 39