# https://github.com/mikedh/trimesh
v -0.12410939 0.05472960 -0.01179052 0.84705882 0.02352940 0.92352941
v -0.10362390 0.05472960 -0.01179052 0.84705882 0.02352940 0.92352941
v -0.12410939 0.05472960 -0.00851521 0.84705882 0.02352940 0.92352941
v -0.12410939 0.11983796 -0.01179052 0.84705882 0.02352940 0.92352941
v -0.10977000 0.05472960 -0.00851521 0.84705882 0.02352940 0.92352941
v -0.10037076 0.05491299 -0.01179052 0.84705882 0.02352940 0.92352941
v -0.12410939 0.11983796 -0.00851521 0.84705882 0.02352940 0.92352941
v -0.12344016 0.12172614 -0.01179052 0.84705882 0.02352940 0.92352941
v -0.10037076 0.06230951 -0.00851521 0.84705882 0.02352940 0.92352941
v -0.10037076 0.12411014 -0.01179052 0.84705882 0.02352940 0.92352941
v -0.12299171 0.12298945 -0.00851521 0.84705882 0.02352940 0.92352941
v -0.12299171 0.12298945 -0.01179052 0.84705882 0.02352940 0.92352941
v -0.10037076 0.12411014 -0.00851521 0.84705882 0.02352940 0.92352941
v -0.11578134 0.12411014 -0.01179052 0.84705882 0.02352940 0.92352941
v -0.12111417 0.12365506 -0.00851521 0.84705882 0.02352940 0.92352941
v -0.12172528 0.12343773 -0.01179052 0.84705882 0.02352940 0.92352941
v -0.11578134 0.12411014 -0.00851521 0.84705882 0.02352940 0.92352941
v -0.11984313 0.12410335 -0.01179052 0.84705882 0.02352940 0.92352941
v -0.11984313 0.12410335 -0.00851521 0.84705882 0.02352940 0.92352941
f 1 2 5
f 1 5 3
f 1 3 7
f 1 7 4
f 1 4 8
f 1 8 12
f 1 12 16
f 1 16 18
f 1 18 14
f 1 14 10
f 1 10 6
f 1 6 2
f 2 6 5
f 3 5 9
f 3 9 13
f 3 13 17
f 3 17 19
f 3 19 15
f 3 15 11
f 3 11 7
f 4 7 8
f 5 6 9
f 6 10 13
f 6 13 9
f 7 11 8
f 8 11 12
f 10 14 17
f 10 17 13
f 11 15 12
f 12 15 16
f 14 18 19
f 14 19 17
f 15 19 18
f 15 18 16