# https://github.com/mikedh/trimesh
v 0.07183107 -0.09134538 -0.00203076 0.32941176 1.42352941 0.67058823
v 0.07182425 -0.09134538 -0.00208359 0.32941176 1.42352941 0.67058823
v 0.07093252 -0.07866640 -0.00606685 0.32941176 1.42352941 0.67058823
v 0.07120428 -0.07866640 0.01015518 0.32941176 1.42352941 0.67058823
v 0.07175323 -0.09134538 0.01034781 0.32941176 1.42352941 0.67058823
v 0.07079871 -0.09134538 -0.00606685 0.32941176 1.42352941 0.67058823
v 0.05852508 -0.07866640 -0.00606685 0.32941176 1.42352941 0.67058823
v 0.06873534 -0.07866640 0.02330740 0.32941176 1.42352941 0.67058823
v 0.07117014 -0.09134538 0.01429690 0.32941176 1.42352941 0.67058823
v 0.05879545 -0.09134538 -0.00606685 0.32941176 1.42352941 0.67058823
v 0.05836939 -0.07921993 -0.00606685 0.32941176 1.42352941 0.67058823
v 0.05838306 -0.07921993 0.01828017 0.32941176 1.42352941 0.67058823
v 0.05854146 -0.07866640 0.01828017 0.32941176 1.42352941 0.67058823
v 0.06743806 -0.07866640 0.02485162 0.32941176 1.42352941 0.67058823
v 0.06725371 -0.09134538 0.02507844 0.32941176 1.42352941 0.67058823
v 0.06943178 -0.09134538 0.02234110 0.32941176 1.42352941 0.67058823
v 0.05802528 -0.08734411 -0.00606685 0.32941176 1.42352941 0.67058823
v 0.05879545 -0.09134538 -0.00600782 0.32941176 1.42352941 0.67058823
v 0.05788462 -0.08325843 -0.00606685 0.32941176 1.42352941 0.67058823
v 0.05788599 -0.08328201 0.01828017 0.32941176 1.42352941 0.67058823
v 0.05873673 -0.07921993 0.02234110 0.32941176 1.42352941 0.67058823
v 0.05887329 -0.07866640 0.02234110 0.32941176 1.42352941 0.67058823
v 0.05856878 -0.07866640 0.01883322 0.32941176 1.42352941 0.67058823
v 0.06727284 -0.07866640 0.02492309 0.32941176 1.42352941 0.67058823
v 0.06718953 -0.09134538 0.02509398 0.32941176 1.42352941 0.67058823
v 0.05802391 -0.08731929 -0.00606685 0.32941176 1.42352941 0.67058823
v 0.05803347 -0.08734411 0.01828017 0.32941176 1.42352941 0.67058823
v 0.05882141 -0.09134538 0.01828017 0.32941176 1.42352941 0.67058823
v 0.05788190 -0.08328201 -0.00606685 0.32941176 1.42352941 0.67058823
v 0.05845270 -0.08734411 0.02234110 0.32941176 1.42352941 0.67058823
v 0.05832843 -0.08328201 0.02234110 0.32941176 1.42352941 0.67058823
v 0.06001353 -0.07921993 0.02501940 0.32941176 1.42352941 0.67058823
v 0.05896752 -0.07866640 0.02267667 0.32941176 1.42352941 0.67058823
v 0.06707755 -0.07866640 0.02496969 0.32941176 1.42352941 0.67058823
v 0.06352302 -0.07866640 0.02563150 0.32941176 1.42352941 0.67058823
v 0.06296997 -0.08734411 0.02567188 0.32941176 1.42352941 0.67058823
v 0.06296997 -0.09134538 0.02561596 0.32941176 1.42352941 0.67058823
v 0.05910680 -0.09134538 0.02234110 0.32941176 1.42352941 0.67058823
v 0.06016510 -0.09134538 0.02496969 0.32941176 1.42352941 0.67058823
v 0.05990565 -0.08734411 0.02502251 0.32941176 1.42352941 0.67058823
v 0.05985513 -0.08328201 0.02502251 0.32941176 1.42352941 0.67058823
v 0.06007226 -0.07866640 0.02498834 0.32941176 1.42352941 0.67058823
v 0.06296997 -0.07921993 0.02566878 0.32941176 1.42352941 0.67058823
v 0.06041637 -0.07866640 0.02507844 0.32941176 1.42352941 0.67058823
v 0.06296997 -0.07866640 0.02563771 0.32941176 1.42352941 0.67058823
v 0.06296997 -0.08328201 0.02567188 0.32941176 1.42352941 0.67058823
f 1 2 3
f 1 3 4
f 1 4 5
f 1 5 9
f 1 9 16
f 1 16 15
f 1 15 25
f 1 25 37
f 1 37 39
f 1 39 38
f 1 38 28
f 1 28 18
f 1 18 10
f 1 10 6
f 1 6 2
f 2 6 3
f 3 6 10
f 3 10 17
f 3 17 26
f 3 26 29
f 3 29 19
f 3 19 11
f 3 11 7
f 3 7 13
f 3 13 23
f 3 23 22
f 3 22 33
f 3 33 42
f 3 42 44
f 3 44 45
f 3 45 35
f 3 35 34
f 3 34 24
f 3 24 14
f 3 14 8
f 3 8 4
f 4 8 9
f 4 9 5
f 7 11 12
f 7 12 13
f 8 14 15
f 8 15 16
f 8 16 9
f 10 18 17
f 11 19 20
f 11 20 12
f 12 20 21
f 12 21 22
f 12 22 23
f 12 23 13
f 14 24 15
f 15 24 25
f 17 18 27
f 17 27 26
f 18 28 27
f 19 29 20
f 20 27 30
f 20 30 31
f 20 31 21
f 20 29 26
f 20 26 27
f 21 31 32
f 21 32 33
f 21 33 22
f 24 34 25
f 25 35 36
f 25 36 37
f 25 34 35
f 27 28 38
f 27 38 30
f 30 38 39
f 30 39 40
f 30 40 31
f 31 40 41
f 31 41 32
f 32 42 33
f 32 41 43
f 32 43 44
f 32 44 42
f 35 45 43
f 35 43 46
f 35 46 36
f 36 46 41
f 36 41 40
f 36 40 37
f 37 40 39
f 41 46 43
f 43 45 44