# https://github.com/mikedh/trimesh
v 0.05888897 -0.12411014 -0.00606685 0.37647058 0.69411765 0.36470588
v 0.05888897 -0.12411014 0.01828017 0.37647058 0.69411765 0.36470588
v 0.05888897 -0.11021008 -0.00606685 0.37647058 0.69411765 0.36470588
v 0.11580361 -0.12411014 -0.00606685 0.37647058 0.69411765 0.36470588
v 0.05888897 -0.12380899 0.02232558 0.37647058 0.69411765 0.36470588
v 0.11577807 -0.12411014 0.01828017 0.37647058 0.69411765 0.36470588
v 0.05888897 -0.11021008 -0.00605131 0.37647058 0.69411765 0.36470588
v 0.06404734 -0.10973587 -0.00606685 0.37647058 0.69411765 0.36470588
v 0.11983839 -0.12410873 -0.00606685 0.37647058 0.69411765 0.36470588
v 0.11983839 -0.12410873 0.01828017 0.37647058 0.69411765 0.36470588
v 0.05888897 -0.12380758 0.02234110 0.37647058 0.69411765 0.36470588
v 0.11983839 -0.12380758 0.02234110 0.37647058 0.69411765 0.36470588
v 0.05888897 -0.11026637 0.01828017 0.37647058 0.69411765 0.36470588
v 0.06415588 -0.10973587 0.01828017 0.37647058 0.69411765 0.36470588
v 0.12410939 -0.10973587 -0.00606685 0.37647058 0.69411765 0.36470588
v 0.11985755 -0.12410309 -0.00606685 0.37647058 0.69411765 0.36470588
v 0.12299215 -0.12299142 0.01828017 0.37647058 0.69411765 0.36470588
v 0.12283893 -0.12284086 0.02234110 0.37647058 0.69411765 0.36470588
v 0.05890812 -0.12269031 0.02502251 0.37647058 0.69411765 0.36470588
v 0.05888897 -0.12269451 0.02501009 0.37647058 0.69411765 0.36470588
v 0.12241758 -0.12241872 0.02480502 0.37647058 0.69411765 0.36470588
v 0.11983839 -0.12269031 0.02502251 0.37647058 0.69411765 0.36470588
v 0.05888897 -0.11070963 0.02234110 0.37647058 0.69411765 0.36470588
v 0.06431548 -0.10973587 0.02208322 0.37647058 0.69411765 0.36470588
v 0.12410939 -0.10973587 0.01828017 0.37647058 0.69411765 0.36470588
v 0.12410939 -0.11984359 -0.00606685 0.37647058 0.69411765 0.36470588
v 0.12299215 -0.12299142 -0.00606685 0.37647058 0.69411765 0.36470588
v 0.12410939 -0.11984359 0.01828017 0.37647058 0.69411765 0.36470588
v 0.12380294 -0.11984359 0.02234110 0.37647058 0.69411765 0.36470588
v 0.05888897 -0.11984359 0.02567188 0.37647058 0.69411765 0.36470588
v 0.12268572 -0.11984359 0.02502251 0.37647058 0.69411765 0.36470588
v 0.11983839 -0.11984359 0.02567188 0.37647058 0.69411765 0.36470588
v 0.05888897 -0.11245171 0.02502251 0.37647058 0.69411765 0.36470588
v 0.06843325 -0.10973587 0.02356841 0.37647058 0.69411765 0.36470588
v 0.12380294 -0.10973587 0.02234110 0.37647058 0.69411765 0.36470588
v 0.12323475 -0.10973587 0.02371132 0.37647058 0.69411765 0.36470588
v 0.05888897 -0.11578249 0.02567188 0.37647058 0.69411765 0.36470588
v 0.12268572 -0.10973587 0.02502251 0.37647058 0.69411765 0.36470588
v 0.12123013 -0.10973587 0.02535497 0.37647058 0.69411765 0.36470588
v 0.11983839 -0.10973587 0.02567188 0.37647058 0.69411765 0.36470588
v 0.05888897 -0.11246578 0.02502563 0.37647058 0.69411765 0.36470588
v 0.07922245 -0.10973587 0.02534876 0.37647058 0.69411765 0.36470588
v 0.07714124 -0.10973587 0.02514369 0.37647058 0.69411765 0.36470588
v 0.07530259 -0.10973587 0.02496037 0.37647058 0.69411765 0.36470588
v 0.08328278 -0.10973587 0.02552897 0.37647058 0.69411765 0.36470588
v 0.11577807 -0.10973587 0.02567188 0.37647058 0.69411765 0.36470588
f 1 2 5
f 1 5 11
f 1 11 20
f 1 20 30
f 1 30 37
f 1 37 41
f 1 41 33
f 1 33 23
f 1 23 13
f 1 13 7
f 1 7 3
f 1 3 8
f 1 8 15
f 1 15 26
f 1 26 27
f 1 27 16
f 1 16 9
f 1 9 4
f 1 4 6
f 1 6 2
f 2 6 5
f 3 7 8
f 4 9 10
f 4 10 6
f 5 6 12
f 5 12 11
f 6 10 12
f 7 13 14
f 7 14 8
f 8 14 24
f 8 24 34
f 8 34 44
f 8 44 43
f 8 43 42
f 8 42 45
f 8 45 46
f 8 46 40
f 8 40 39
f 8 39 38
f 8 38 36
f 8 36 35
f 8 35 25
f 8 25 15
f 9 16 10
f 10 16 17
f 10 17 18
f 10 18 12
f 11 19 20
f 11 12 22
f 11 22 19
f 12 18 21
f 12 21 22
f 13 23 24
f 13 24 14
f 15 25 28
f 15 28 26
f 16 27 17
f 17 27 26
f 17 26 28
f 17 28 18
f 18 28 29
f 18 29 21
f 19 30 20
f 19 22 32
f 19 32 30
f 21 29 31
f 21 31 32
f 21 32 22
f 23 33 34
f 23 34 24
f 25 35 29
f 25 29 28
f 29 35 36
f 29 36 31
f 30 32 40
f 30 40 46
f 30 46 37
f 31 38 39
f 31 39 32
f 31 36 38
f 32 39 40
f 33 41 42
f 33 42 43
f 33 43 44
f 33 44 34
f 37 45 41
f 37 46 45
f 41 45 42