# https://github.com/mikedh/trimesh
v 0.08399083 -0.07700373 -0.01163504 0.73529412 0.33529412 0.37647058
v 0.09197058 -0.08317347 -0.01163504 0.73529412 0.33529412 0.37647058
v 0.09829873 -0.08317347 -0.00863002 0.73529412 0.33529412 0.37647058
v 0.08399083 -0.07126068 -0.00863002 0.73529412 0.33529412 0.37647058
v 0.08399083 -0.05135931 -0.01163504 0.73529412 0.33529412 0.37647058
v 0.10400387 -0.08317347 -0.01163504 0.73529412 0.33529412 0.37647058
v 0.10400387 -0.08317347 -0.00863002 0.73529412 0.33529412 0.37647058
v 0.08399083 -0.05742003 -0.00863002 0.73529412 0.33529412 0.37647058
v 0.08676699 -0.05136243 -0.01163504 0.73529412 0.33529412 0.37647058
v 0.10400387 -0.05498142 -0.01163504 0.73529412 0.33529412 0.37647058
v 0.10400387 -0.06495079 -0.00863002 0.73529412 0.33529412 0.37647058
v 0.08705107 -0.05748233 -0.00863002 0.73529412 0.33529412 0.37647058
v 0.09076372 -0.05142783 -0.01163504 0.73529412 0.33529412 0.37647058
v 0.09439997 -0.05185138 -0.01163504 0.73529412 0.33529412 0.37647058
v 0.09466250 -0.05894301 -0.00863002 0.73529412 0.33529412 0.37647058
v 0.09560094 -0.05927625 -0.00863002 0.73529412 0.33529412 0.37647058
v 0.09610836 -0.05951607 -0.00863002 0.73529412 0.33529412 0.37647058
v 0.10206428 -0.06300736 -0.00863002 0.73529412 0.33529412 0.37647058
v 0.10294004 -0.06365207 -0.00863002 0.73529412 0.33529412 0.37647058
v 0.10363946 -0.06428118 -0.00863002 0.73529412 0.33529412 0.37647058
v 0.08734496 -0.05749167 -0.00863002 0.73529412 0.33529412 0.37647058
v 0.09060111 -0.05786851 -0.00863002 0.73529412 0.33529412 0.37647058
v 0.09140829 -0.05802112 -0.00863002 0.73529412 0.33529412 0.37647058
f 1 2 3
f 1 3 4
f 1 4 8
f 1 8 5
f 1 5 9
f 1 9 13
f 1 13 14
f 1 14 10
f 1 10 6
f 1 6 2
f 2 6 7
f 2 7 3
f 3 7 11
f 3 11 20
f 3 20 19
f 3 19 18
f 3 18 17
f 3 17 16
f 3 16 15
f 3 15 23
f 3 23 22
f 3 22 21
f 3 21 12
f 3 12 8
f 3 8 4
f 5 8 9
f 6 10 11
f 6 11 7
f 8 12 13
f 8 13 9
f 10 14 15
f 10 15 16
f 10 16 17
f 10 17 18
f 10 18 19
f 10 19 20
f 10 20 11
f 12 21 13
f 13 21 22
f 13 22 14
f 14 22 23
f 14 23 15