# https://github.com/mikedh/trimesh
v -0.10036910 0.05491410 -0.01179052 0.42941177 0.92352941 0.64117647
v -0.09890334 0.05141136 -0.01179052 0.42941177 0.92352941 0.64117647
v -0.10036910 0.06230841 -0.00851521 0.42941177 0.92352941 0.64117647
v -0.10036910 0.08163672 -0.01179052 0.42941177 0.92352941 0.64117647
v -0.09527224 0.05098031 -0.01179052 0.42941177 0.92352941 0.64117647
v -0.09045024 0.05787725 -0.00851521 0.42941177 0.92352941 0.64117647
v -0.09140798 0.05806113 -0.00851521 0.42941177 0.92352941 0.64117647
v -0.09450772 0.05893832 -0.00851521 0.42941177 0.92352941 0.64117647
v -0.09556707 0.05931813 -0.00851521 0.42941177 0.92352941 0.64117647
v -0.09614505 0.05959245 -0.00851521 0.42941177 0.92352941 0.64117647
v -0.10036910 0.08163672 -0.00851521 0.42941177 0.92352941 0.64117647
v -0.09159786 0.08163672 -0.01179052 0.42941177 0.92352941 0.64117647
v -0.09130971 0.05088083 -0.01179052 0.42941177 0.92352941 0.64117647
v -0.08686579 0.05750044 -0.00851521 0.42941177 0.92352941 0.64117647
v -0.08734549 0.05751854 -0.00851521 0.42941177 0.92352941 0.64117647
v -0.09871179 0.08163672 -0.00851521 0.42941177 0.92352941 0.64117647
v -0.08780187 0.07876100 -0.01179052 0.42941177 0.92352941 0.64117647
v -0.08727886 0.05084767 -0.01179052 0.42941177 0.92352941 0.64117647
v -0.08335463 0.05741905 -0.00852099 0.42941177 0.92352941 0.64117647
v -0.08335463 0.05982153 -0.00851521 0.42941177 0.92352941 0.64117647
v -0.08335463 0.07511055 -0.01179052 0.42941177 0.92352941 0.64117647
v -0.08335463 0.06856932 -0.00851521 0.42941177 0.92352941 0.64117647
v -0.08335463 0.05084466 -0.01179052 0.42941177 0.92352941 0.64117647
f 1 2 3
f 1 3 11
f 1 11 4
f 1 4 12
f 1 12 17
f 1 17 21
f 1 21 23
f 1 23 18
f 1 18 13
f 1 13 5
f 1 5 2
f 2 5 6
f 2 6 7
f 2 7 8
f 2 8 9
f 2 9 10
f 2 10 3
f 3 10 9
f 3 9 8
f 3 8 7
f 3 7 6
f 3 6 15
f 3 15 14
f 3 14 20
f 3 20 22
f 3 22 16
f 3 16 11
f 4 11 16
f 4 16 12
f 5 13 14
f 5 14 15
f 5 15 6
f 12 16 17
f 13 18 19
f 13 19 14
f 14 19 20
f 16 21 17
f 16 22 21
f 18 23 19
f 19 23 21
f 19 21 22
f 19 22 20