# https://github.com/mikedh/trimesh
v 0.07624305 0.05921955 -0.00293379 0.74117648 0.95882354 0.54705882
v 0.07831767 0.05862646 -0.00293379 0.74117648 0.95882354 0.54705882
v 0.07624305 0.05922667 0.00636098 0.74117648 0.95882354 0.54705882
v 0.07624305 0.07218239 -0.00293379 0.74117648 0.95882354 0.54705882
v 0.07921955 0.05837329 -0.00293379 0.74117648 0.95882354 0.54705882
v 0.07921955 0.05837613 0.00636098 0.74117648 0.95882354 0.54705882
v 0.07624305 0.07093646 0.00636098 0.74117648 0.95882354 0.54705882
v 0.07624305 0.07241565 -0.00203307 0.74117648 0.95882354 0.54705882
v 0.08709528 0.06985835 -0.00173191 0.74117648 0.95882354 0.54705882
v 0.08709528 0.06929370 -0.00293379 0.74117648 0.95882354 0.54705882
v 0.08237877 0.05799639 -0.00293379 0.74117648 0.95882354 0.54705882
v 0.08328170 0.05788543 0.00609348 0.74117648 0.95882354 0.54705882
v 0.08328170 0.05788543 0.00636098 0.74117648 0.95882354 0.54705882
v 0.07948725 0.05834343 0.00636098 0.74117648 0.95882354 0.54705882
v 0.08709528 0.06871767 0.00636098 0.74117648 0.95882354 0.54705882
v 0.08709528 0.06992520 0.00231771 0.74117648 0.95882354 0.54705882
v 0.07624305 0.07125647 0.00497714 0.74117648 0.95882354 0.54705882
v 0.08709315 0.06992662 0.00231225 0.74117648 0.95882354 0.54705882
v 0.08709528 0.06986262 -0.00149445 0.74117648 0.95882354 0.54705882
v 0.08709528 0.05803477 -0.00293379 0.74117648 0.95882354 0.54705882
v 0.08328170 0.05788971 -0.00293379 0.74117648 0.95882354 0.54705882
v 0.08709528 0.05803337 0.00584419 0.74117648 0.95882354 0.54705882
v 0.08709528 0.05803337 0.00636098 0.74117648 0.95882354 0.54705882
v 0.08709528 0.06992520 0.00227859 0.74117648 0.95882354 0.54705882
f 1 2 3
f 1 3 7
f 1 7 17
f 1 17 8
f 1 8 4
f 1 4 10
f 1 10 20
f 1 20 21
f 1 21 11
f 1 11 5
f 1 5 2
f 2 5 6
f 2 6 3
f 3 6 14
f 3 14 13
f 3 13 23
f 3 23 15
f 3 15 7
f 4 8 9
f 4 9 10
f 5 11 12
f 5 12 13
f 5 13 14
f 5 14 6
f 7 15 16
f 7 16 17
f 8 18 19
f 8 19 9
f 8 17 18
f 9 19 24
f 9 24 16
f 9 16 15
f 9 15 23
f 9 23 22
f 9 22 20
f 9 20 10
f 11 21 12
f 12 22 23
f 12 23 13
f 12 21 20
f 12 20 22
f 16 24 18
f 16 18 17
f 18 24 19