# https://github.com/mikedh/trimesh
v -0.05746041 -0.08516232 -0.00851490 0.30588235 0.63529411 0.55882353
v -0.05750763 -0.08734487 -0.00851490 0.30588235 0.63529411 0.55882353
v -0.07054663 -0.08516232 -0.00851490 0.30588235 0.63529411 0.55882353
v -0.05795466 -0.08516232 0.01827971 0.30588235 0.63529411 0.55882353
v -0.05805941 -0.09140655 -0.00851490 0.30588235 0.63529411 0.55882353
v -0.05803433 -0.08734487 0.01827971 0.30588235 0.63529411 0.55882353
v -0.07216212 -0.09255936 -0.00851490 0.30588235 0.63529411 0.55882353
v -0.07253096 -0.09255936 0.00203295 0.30588235 0.63529411 0.55882353
v -0.06994027 -0.08516232 0.00394708 0.30588235 0.63529411 0.55882353
v -0.05814792 -0.08516232 0.02016038 0.30588235 0.63529411 0.55882353
v -0.05845332 -0.09255936 -0.00851490 0.30588235 0.63529411 0.55882353
v -0.05883247 -0.09140655 0.01827971 0.30588235 0.63529411 0.55882353
v -0.05845332 -0.08734487 0.02234223 0.30588235 0.63529411 0.55882353
v -0.05911722 -0.09140655 0.02234223 0.30588235 0.63529411 0.55882353
v -0.07018369 -0.09255936 0.02234223 0.30588235 0.63529411 0.55882353
v -0.06976913 -0.08516232 0.00556005 0.30588235 0.63529411 0.55882353
v -0.05838545 -0.08516232 0.02234223 0.30588235 0.63529411 0.55882353
v -0.05924409 -0.09255936 0.01827971 0.30588235 0.63529411 0.55882353
v -0.05928983 -0.09255936 0.01958814 0.30588235 0.63529411 0.55882353
v -0.05967046 -0.09255936 0.02327253 0.30588235 0.63529411 0.55882353
v -0.05990505 -0.08734487 0.02502268 0.30588235 0.63529411 0.55882353
v -0.06016913 -0.09140655 0.02496915 0.30588235 0.63529411 0.55882353
v -0.06031371 -0.09255936 0.02487544 0.30588235 0.63529411 0.55882353
v -0.05948310 -0.09255936 0.02234223 0.30588235 0.63529411 0.55882353
v -0.06945489 -0.09255936 0.02466797 0.30588235 0.63529411 0.55882353
v -0.06771989 -0.08516232 0.02234223 0.30588235 0.63529411 0.55882353
v -0.05905821 -0.08516232 0.02358373 0.30588235 0.63529411 0.55882353
v -0.05987849 -0.08516232 0.02502268 0.30588235 0.63529411 0.55882353
v -0.06296931 -0.08734487 0.02567188 0.30588235 0.63529411 0.55882353
v -0.06296931 -0.09140655 0.02561500 0.30588235 0.63529411 0.55882353
v -0.06291620 -0.09255936 0.02547780 0.30588235 0.63529411 0.55882353
v -0.06939587 -0.09255936 0.02471482 0.30588235 0.63529411 0.55882353
v -0.06614275 -0.08516232 0.02502268 0.30588235 0.63529411 0.55882353
v -0.06690404 -0.08516232 0.02378118 0.30588235 0.63529411 0.55882353
v -0.06129629 -0.08516232 0.02532052 0.30588235 0.63529411 0.55882353
v -0.06296931 -0.08516232 0.02567188 0.30588235 0.63529411 0.55882353
v -0.06412303 -0.09255936 0.02560831 0.30588235 0.63529411 0.55882353
v -0.06825101 -0.09255936 0.02504946 0.30588235 0.63529411 0.55882353
v -0.06447267 -0.08516232 0.02537072 0.30588235 0.63529411 0.55882353
v -0.06714303 -0.09255936 0.02524020 0.30588235 0.63529411 0.55882353
f 1 2 5
f 1 5 11
f 1 11 7
f 1 7 3
f 1 3 9
f 1 9 16
f 1 16 26
f 1 26 34
f 1 34 33
f 1 33 39
f 1 39 36
f 1 36 35
f 1 35 28
f 1 28 27
f 1 27 17
f 1 17 10
f 1 10 4
f 1 4 2
f 2 4 6
f 2 6 5
f 3 7 8
f 3 8 9
f 4 10 6
f 5 6 12
f 5 12 11
f 6 10 13
f 6 13 14
f 6 14 12
f 7 11 18
f 7 18 19
f 7 19 24
f 7 24 20
f 7 20 23
f 7 23 31
f 7 31 37
f 7 37 40
f 7 40 38
f 7 38 32
f 7 32 25
f 7 25 15
f 7 15 8
f 8 15 16
f 8 16 9
f 10 17 13
f 11 12 18
f 12 14 19
f 12 19 18
f 13 20 14
f 13 17 21
f 13 21 22
f 13 22 23
f 13 23 20
f 14 20 24
f 14 24 19
f 15 25 26
f 15 26 16
f 17 27 21
f 21 28 29
f 21 29 30
f 21 30 22
f 21 27 28
f 22 30 31
f 22 31 23
f 25 32 33
f 25 33 34
f 25 34 26
f 28 35 29
f 29 36 37
f 29 37 30
f 29 35 36
f 30 37 31
f 32 38 33
f 33 38 39
f 36 39 38
f 36 38 40
f 36 40 37