# https://github.com/mikedh/trimesh
v 0.09971743 -0.08421796 -0.00606685 0.84705882 0.39411765 0.78235294
v 0.09567090 -0.07472197 -0.00606685 0.84705882 0.39411765 0.78235294
v 0.10944613 -0.08421796 -0.00606685 0.84705882 0.39411765 0.78235294
v 0.09887334 -0.08421796 0.00203310 0.84705882 0.39411765 0.78235294
v 0.09567090 -0.06038697 -0.00606685 0.84705882 0.39411765 0.78235294
v 0.09567090 -0.07556424 0.00571490 0.84705882 0.39411765 0.78235294
v 0.10944613 -0.06482000 -0.00606685 0.84705882 0.39411765 0.78235294
v 0.10944613 -0.08421796 0.02551581 0.84705882 0.39411765 0.78235294
v 0.09904459 -0.08421796 0.00515563 0.84705882 0.39411765 0.78235294
v 0.09567090 -0.07556424 0.00596657 0.84705882 0.39411765 0.78235294
v 0.09567090 -0.06038465 -0.00506018 0.84705882 0.39411765 0.78235294
v 0.10944613 -0.06475934 0.02213229 0.84705882 0.39411765 0.78235294
v 0.10944613 -0.08328004 0.02552824 0.84705882 0.39411765 0.78235294
v 0.10359408 -0.07515594 0.02567116 0.84705882 0.39411765 0.78235294
v 0.10765682 -0.08421796 0.02551581 0.84705882 0.39411765 0.78235294
v 0.10077322 -0.08421796 0.02234356 0.84705882 0.39411765 0.78235294
v 0.09567090 -0.07253346 0.02234356 0.84705882 0.39411765 0.78235294
v 0.09567090 -0.06040330 0.01827961 0.84705882 0.39411765 0.78235294
v 0.09567090 -0.06058762 0.02234356 0.84705882 0.39411765 0.78235294
v 0.09567090 -0.06278314 0.02510569 0.84705882 0.39411765 0.78235294
v 0.09953271 -0.06409439 0.02482607 0.84705882 0.39411765 0.78235294
v 0.10178319 -0.06480600 0.02454643 0.84705882 0.39411765 0.78235294
v 0.10944613 -0.06911302 0.02371686 0.84705882 0.39411765 0.78235294
v 0.10944613 -0.08149050 0.02545056 0.84705882 0.39411765 0.78235294
v 0.09567090 -0.06703185 0.02558727 0.84705882 0.39411765 0.78235294
v 0.10671833 -0.08421796 0.02550339 0.84705882 0.39411765 0.78235294
v 0.10944613 -0.07921799 0.02534804 0.84705882 0.39411765 0.78235294
v 0.10359408 -0.07109622 0.02540085 0.84705882 0.39411765 0.78235294
v 0.09953271 -0.06703185 0.02547542 0.84705882 0.39411765 0.78235294
v 0.10111168 -0.08421796 0.02414874 0.84705882 0.39411765 0.78235294
v 0.10124382 -0.08421796 0.02470798 0.84705882 0.39411765 0.78235294
v 0.09567090 -0.07091190 0.02494723 0.84705882 0.39411765 0.78235294
v 0.10331901 -0.06737947 0.02478256 0.84705882 0.39411765 0.78235294
v 0.10944613 -0.07529127 0.02496276 0.84705882 0.39411765 0.78235294
v 0.09567090 -0.07019095 0.02507151 0.84705882 0.39411765 0.78235294
v 0.10303181 -0.08421796 0.02520822 0.84705882 0.39411765 0.78235294
v 0.10359408 -0.08421796 0.02535735 0.84705882 0.39411765 0.78235294
f 1 2 5
f 1 5 7
f 1 7 3
f 1 3 8
f 1 8 15
f 1 15 26
f 1 26 37
f 1 37 36
f 1 36 31
f 1 31 30
f 1 30 16
f 1 16 9
f 1 9 4
f 1 4 2
f 2 4 6
f 2 6 10
f 2 10 17
f 2 17 32
f 2 32 35
f 2 35 25
f 2 25 20
f 2 20 19
f 2 19 18
f 2 18 11
f 2 11 5
f 3 7 12
f 3 12 23
f 3 23 34
f 3 34 27
f 3 27 24
f 3 24 13
f 3 13 8
f 4 9 10
f 4 10 6
f 5 11 7
f 7 11 12
f 8 13 14
f 8 14 15
f 9 16 17
f 9 17 10
f 11 18 12
f 12 18 19
f 12 19 20
f 12 20 21
f 12 21 22
f 12 22 23
f 13 24 14
f 14 25 26
f 14 26 15
f 14 24 27
f 14 27 28
f 14 28 29
f 14 29 25
f 16 30 17
f 17 30 31
f 17 31 32
f 20 25 29
f 20 29 21
f 21 29 22
f 22 29 33
f 22 33 23
f 23 33 34
f 25 35 31
f 25 31 36
f 25 36 37
f 25 37 26
f 27 34 28
f 28 34 33
f 28 33 29
f 31 35 32