# https://github.com/mikedh/trimesh
v 0.09698458 0.06097970 -0.00694060 0.38823530 0.55882353 0.87647060
v 0.09720956 0.06108492 -0.00694060 0.38823530 0.55882353 0.87647060
v 0.09716490 0.06110955 -0.00293379 0.38823530 0.55882353 0.87647060
v 0.09698458 0.06102671 -0.00293379 0.38823530 0.55882353 0.87647060
v 0.09698458 0.07544964 -0.00694060 0.38823530 0.55882353 0.87647060
v 0.09953208 0.06242601 -0.00694060 0.38823530 0.55882353 0.87647060
v 0.10575440 0.06625229 -0.00694060 0.38823530 0.55882353 0.87647060
v 0.10575440 0.06640005 -0.00293379 0.38823530 0.55882353 0.87647060
v 0.09698458 0.07545860 -0.00293379 0.38823530 0.55882353 0.87647060
v 0.09698458 0.07566681 -0.00395550 0.38823530 0.55882353 0.87647060
v 0.09930626 0.08384996 -0.00694060 0.38823530 0.55882353 0.87647060
v 0.10575440 0.08384996 -0.00694060 0.38823530 0.55882353 0.87647060
v 0.10575440 0.08384996 -0.00293379 0.38823530 0.55882353 0.87647060
v 0.09994849 0.08384996 -0.00293379 0.38823530 0.55882353 0.87647060
v 0.09698458 0.07563099 -0.00293575 0.38823530 0.55882353 0.87647060
f 1 2 3
f 1 3 4
f 1 4 9
f 1 9 15
f 1 15 10
f 1 10 5
f 1 5 11
f 1 11 12
f 1 12 7
f 1 7 6
f 1 6 2
f 2 6 3
f 3 6 7
f 3 7 8
f 3 8 13
f 3 13 14
f 3 14 9
f 3 9 4
f 5 10 11
f 7 12 13
f 7 13 8
f 9 14 15
f 10 15 11
f 11 14 13
f 11 13 12
f 11 15 14