# https://github.com/mikedh/trimesh
v 0.10400193 -0.09610846 -0.00606996 1.35882353 1.15882353 0.49411764
v 0.10400193 -0.10238691 -0.00606996 1.35882353 1.15882353 0.49411764
v 0.10400193 -0.09610846 -0.00863002 1.35882353 1.15882353 0.49411764
v 0.09502329 -0.09610846 -0.00606996 1.35882353 1.15882353 0.49411764
v 0.10317652 -0.10316881 -0.00606996 1.35882353 1.15882353 0.49411764
v 0.10240344 -0.10397770 -0.00607949 1.35882353 1.15882353 0.49411764
v 0.10372680 -0.10372194 -0.00863002 1.35882353 1.15882353 0.49411764
v 0.10400193 -0.10333984 -0.00863002 1.35882353 1.15882353 0.49411764
v 0.09405063 -0.09610846 -0.00863002 1.35882353 1.15882353 0.49411764
v 0.08421171 -0.09929777 -0.00863002 1.35882353 1.15882353 0.49411764
v 0.08421171 -0.09981235 -0.00689592 1.35882353 1.15882353 0.49411764
v 0.08421171 -0.10007428 -0.00607546 1.35882353 1.15882353 0.49411764
v 0.08732149 -0.09999108 -0.00606996 1.35882353 1.15882353 0.49411764
v 0.10029732 -0.10397770 -0.00606996 1.35882353 1.15882353 0.49411764
v 0.10337028 -0.10397770 -0.00863002 1.35882353 1.15882353 0.49411764
v 0.10353111 -0.10386292 -0.00863002 1.35882353 1.15882353 0.49411764
v 0.08421171 -0.10397770 -0.00863002 1.35882353 1.15882353 0.49411764
v 0.08421171 -0.10365801 -0.00606996 1.35882353 1.15882353 0.49411764
v 0.08421171 -0.10397770 -0.00606996 1.35882353 1.15882353 0.49411764
f 1 2 8
f 1 8 3
f 1 3 9
f 1 9 4
f 1 4 13
f 1 13 18
f 1 18 19
f 1 19 14
f 1 14 5
f 1 5 2
f 2 5 6
f 2 6 7
f 2 7 8
f 3 8 7
f 3 7 16
f 3 16 15
f 3 15 17
f 3 17 10
f 3 10 9
f 4 9 10
f 4 10 11
f 4 11 12
f 4 12 13
f 5 14 6
f 6 15 16
f 6 16 7
f 6 14 19
f 6 19 17
f 6 17 15
f 10 17 19
f 10 19 18
f 10 18 12
f 10 12 11
f 12 18 13