# https://github.com/mikedh/trimesh
v 0.07481765 0.09472958 -0.00694112 1.04117648 1.16470589 1.16470589
v 0.07516504 0.09052671 -0.01095945 1.04117648 1.16470589 1.16470589
v 0.07481765 0.09491973 -0.00602746 1.04117648 1.16470589 1.16470589
v 0.07481765 0.10570398 -0.00694112 1.04117648 1.16470589 1.16470589
v 0.08354874 0.09407440 -0.01095945 1.04117648 1.16470589 1.16470589
v 0.08484216 0.09958167 -0.00293457 1.04117648 1.16470589 1.16470589
v 0.07481765 0.09567147 -0.00293457 1.04117648 1.16470589 1.16470589
v 0.07481765 0.09493905 -0.00594734 1.04117648 1.16470589 1.16470589
v 0.07516504 0.10570249 -0.01095945 1.04117648 1.16470589 1.16470589
v 0.07481765 0.10570398 -0.00293457 1.04117648 1.16470589 1.16470589
v 0.08484216 0.10570398 -0.00694112 1.04117648 1.16470589 1.16470589
v 0.08354874 0.10570249 -0.01095945 1.04117648 1.16470589 1.16470589
v 0.08484216 0.09846744 -0.00694112 1.04117648 1.16470589 1.16470589
v 0.08484216 0.10570398 -0.00293457 1.04117648 1.16470589 1.16470589
f 1 2 3
f 1 3 8
f 1 8 7
f 1 7 10
f 1 10 4
f 1 4 9
f 1 9 2
f 2 5 6
f 2 6 7
f 2 7 8
f 2 8 3
f 2 9 12
f 2 12 5
f 4 10 14
f 4 14 11
f 4 11 12
f 4 12 9
f 5 12 11
f 5 11 13
f 5 13 6
f 6 14 10
f 6 10 7
f 6 13 11
f 6 11 14