# https://github.com/mikedh/trimesh
v -0.10499816 -0.10968475 0.01868796 0.05294118 0.42352941 0.17647059
v -0.10499816 -0.10953807 0.01827971 0.05294118 0.42352941 0.17647059
v -0.11031847 -0.10585215 0.02261328 0.05294118 0.42352941 0.17647059
v -0.10774062 -0.10968475 0.02221171 0.05294118 0.42352941 0.17647059
v -0.10499816 -0.10968475 -0.00851490 0.05294118 0.42352941 0.17647059
v -0.10989195 -0.10585215 0.01827971 0.05294118 0.42352941 0.17647059
v -0.10499816 -0.10909464 -0.00851490 0.05294118 0.42352941 0.17647059
v -0.10907819 -0.10585215 -0.00851490 0.05294118 0.42352941 0.17647059
v -0.11240432 -0.10585215 0.02502268 0.05294118 0.42352941 0.17647059
v -0.11014823 -0.10968475 0.02391839 0.05294118 0.42352941 0.17647059
v -0.12410939 -0.10968475 -0.00851490 0.05294118 0.42352941 0.17647059
v -0.12410939 -0.10585215 -0.00851490 0.05294118 0.42352941 0.17647059
v -0.11578096 -0.10585215 0.02567188 0.05294118 0.42352941 0.17647059
v -0.11197218 -0.10968475 0.02508962 0.05294118 0.42352941 0.17647059
v -0.12410939 -0.10968475 0.01827971 0.05294118 0.42352941 0.17647059
v -0.12410939 -0.10585215 0.01827971 0.05294118 0.42352941 0.17647059
v -0.11984415 -0.10585215 0.02567188 0.05294118 0.42352941 0.17647059
v -0.11578096 -0.10968475 0.02567188 0.05294118 0.42352941 0.17647059
v -0.12395785 -0.10968475 0.02031431 0.05294118 0.42352941 0.17647059
v -0.12380632 -0.10585215 0.02234223 0.05294118 0.42352941 0.17647059
v -0.11984415 -0.10968475 0.02567188 0.05294118 0.42352941 0.17647059
v -0.12268950 -0.10585215 0.02502268 0.05294118 0.42352941 0.17647059
v -0.12380632 -0.10968475 0.02234223 0.05294118 0.42352941 0.17647059
v -0.12331059 -0.10585215 0.02353354 0.05294118 0.42352941 0.17647059
v -0.12268950 -0.10968475 0.02502268 0.05294118 0.42352941 0.17647059
f 1 2 3
f 1 3 4
f 1 4 10
f 1 10 14
f 1 14 18
f 1 18 21
f 1 21 25
f 1 25 23
f 1 23 19
f 1 19 15
f 1 15 11
f 1 11 5
f 1 5 7
f 1 7 2
f 2 6 3
f 2 7 8
f 2 8 6
f 3 9 4
f 3 6 8
f 3 8 12
f 3 12 16
f 3 16 20
f 3 20 24
f 3 24 22
f 3 22 17
f 3 17 13
f 3 13 9
f 4 9 10
f 5 11 12
f 5 12 8
f 5 8 7
f 9 13 14
f 9 14 10
f 11 15 16
f 11 16 12
f 13 17 21
f 13 21 18
f 13 18 14
f 15 19 16
f 16 19 20
f 17 22 25
f 17 25 21
f 19 23 20
f 20 23 24
f 22 24 25
f 23 25 24