# https://github.com/mikedh/trimesh
v -0.08168322 -0.10616793 0.02552636 0.31764707 0.77647059 0.03529412
v -0.08179504 -0.10616793 0.02553303 0.31764707 0.77647059 0.03529412
v -0.08168322 -0.10968475 0.02545636 0.31764707 0.77647059 0.03529412
v -0.08168322 -0.10616793 -0.00851490 0.31764707 0.77647059 0.03529412
v -0.08734535 -0.10616793 0.02545636 0.31764707 0.77647059 0.03529412
v -0.08734535 -0.10765714 0.02547637 0.31764707 0.77647059 0.03529412
v -0.08328303 -0.10765714 0.02552968 0.31764707 0.77647059 0.03529412
v -0.08328303 -0.10968475 0.02552968 0.31764707 0.77647059 0.03529412
v -0.08168322 -0.10968475 -0.00851490 0.31764707 0.77647059 0.03529412
v -0.10187611 -0.10616793 -0.00851490 0.31764707 0.77647059 0.03529412
v -0.09546769 -0.10616793 0.02516641 0.31764707 0.77647059 0.03529412
v -0.08734535 -0.10968475 0.02547637 0.31764707 0.77647059 0.03529412
v -0.10499587 -0.10968475 -0.00851490 0.31764707 0.77647059 0.03529412
v -0.10380229 -0.10749844 -0.00851490 0.31764707 0.77647059 0.03529412
v -0.10143108 -0.10616793 0.01828085 0.31764707 0.77647059 0.03529412
v -0.09159938 -0.10968475 0.02504310 0.31764707 0.77647059 0.03529412
v -0.09793248 -0.10616793 0.02486313 0.31764707 0.77647059 0.03529412
v -0.10499587 -0.10909472 -0.00851490 0.31764707 0.77647059 0.03529412
v -0.10499587 -0.10968475 0.01868745 0.31764707 0.77647059 0.03529412
v -0.10499587 -0.10953811 0.01828085 0.31764707 0.77647059 0.03529412
v -0.10041323 -0.10616793 0.02256682 0.31764707 0.77647059 0.03529412
v -0.09841857 -0.10616793 0.02480314 0.31764707 0.77647059 0.03529412
v -0.09825882 -0.10650805 0.02475981 0.31764707 0.77647059 0.03529412
v -0.09726608 -0.10968475 0.02415992 0.31764707 0.77647059 0.03529412
v -0.10495936 -0.10968475 0.01878410 0.31764707 0.77647059 0.03529412
v -0.10348050 -0.10968475 0.02218023 0.31764707 0.77647059 0.03529412
v -0.09971715 -0.10616793 0.02364333 0.31764707 0.77647059 0.03529412
v -0.10296243 -0.10968475 0.02265681 0.31764707 0.77647059 0.03529412
v -0.09959163 -0.10968475 0.02379663 0.31764707 0.77647059 0.03529412
f 1 2 3
f 1 3 9
f 1 9 4
f 1 4 10
f 1 10 15
f 1 15 21
f 1 21 27
f 1 27 22
f 1 22 17
f 1 17 11
f 1 11 5
f 1 5 2
f 2 5 6
f 2 6 7
f 2 7 8
f 2 8 3
f 3 8 12
f 3 12 16
f 3 16 24
f 3 24 29
f 3 29 28
f 3 28 26
f 3 26 25
f 3 25 19
f 3 19 13
f 3 13 9
f 4 9 13
f 4 13 18
f 4 18 14
f 4 14 10
f 5 11 6
f 6 12 8
f 6 8 7
f 6 11 12
f 10 14 15
f 11 16 12
f 11 17 16
f 13 19 20
f 13 20 18
f 14 18 20
f 14 20 15
f 15 20 21
f 16 17 22
f 16 22 23
f 16 23 24
f 19 25 21
f 19 21 20
f 21 25 26
f 21 26 27
f 22 27 28
f 22 28 29
f 22 29 23
f 23 29 24
f 26 28 27