# https://github.com/mikedh/trimesh
v 0.12410762 -0.10627511 0.01828017 0.61764706 0.09411765 1.03529412
v 0.12390901 -0.10627511 0.02096157 0.61764706 0.09411765 1.03529412
v 0.12410762 -0.10973447 0.01828017 0.61764706 0.09411765 1.03529412
v 0.12410762 -0.10627511 -0.00606685 0.61764706 0.09411765 1.03529412
v 0.12395336 -0.10973447 0.02035879 0.61764706 0.09411765 1.03529412
v 0.12380617 -0.10627511 0.02234110 0.61764706 0.09411765 1.03529412
v 0.12380617 -0.10973447 0.02234110 0.61764706 0.09411765 1.03529412
v 0.12410762 -0.10973447 -0.00606685 0.61764706 0.09411765 1.03529412
v 0.10945815 -0.10627511 -0.00606685 0.61764706 0.09411765 1.03529412
v 0.12307035 -0.10627511 0.02410904 0.61764706 0.09411765 1.03529412
v 0.12268912 -0.10973447 0.02502251 0.61764706 0.09411765 1.03529412
v 0.10599881 -0.10973447 -0.00606685 0.61764706 0.09411765 1.03529412
v 0.10599527 -0.10973447 -0.00574371 0.61764706 0.09411765 1.03529412
v 0.10945815 -0.10627511 0.01421612 0.61764706 0.09411765 1.03529412
v 0.12268912 -0.10627511 0.02502251 0.61764706 0.09411765 1.03529412
v 0.12123339 -0.10973447 0.02535497 0.61764706 0.09411765 1.03529412
v 0.10599881 -0.10973447 0.01421612 0.61764706 0.09411765 1.03529412
v 0.10947055 -0.10627511 0.01828017 0.61764706 0.09411765 1.03529412
v 0.12081139 -0.10627511 0.02545128 0.61764706 0.09411765 1.03529412
v 0.11984328 -0.10973447 0.02567188 0.61764706 0.09411765 1.03529412
v 0.10601121 -0.10973447 0.01828017 0.61764706 0.09411765 1.03529412
v 0.11031988 -0.10627511 0.02261452 0.61764706 0.09411765 1.03529412
v 0.11984328 -0.10627511 0.02567188 0.61764706 0.09411765 1.03529412
v 0.11578107 -0.10973447 0.02567188 0.61764706 0.09411765 1.03529412
v 0.10615306 -0.10973447 0.01864680 0.61764706 0.09411765 1.03529412
v 0.10792796 -0.10973447 0.02261764 0.61764706 0.09411765 1.03529412
v 0.11091387 -0.10627511 0.02330430 0.61764706 0.09411765 1.03529412
v 0.10770985 -0.10973447 0.02224479 0.61764706 0.09411765 1.03529412
v 0.11578107 -0.10627511 0.02567188 0.61764706 0.09411765 1.03529412
v 0.11354517 -0.10973447 0.02539536 0.61764706 0.09411765 1.03529412
v 0.11047059 -0.10973447 0.02428924 0.61764706 0.09411765 1.03529412
v 0.11240330 -0.10627511 0.02502251 0.61764706 0.09411765 1.03529412
v 0.11196178 -0.10973447 0.02509087 0.61764706 0.09411765 1.03529412
f 1 2 3
f 1 3 8
f 1 8 4
f 1 4 9
f 1 9 14
f 1 14 18
f 1 18 22
f 1 22 27
f 1 27 32
f 1 32 29
f 1 29 23
f 1 23 19
f 1 19 15
f 1 15 10
f 1 10 6
f 1 6 2
f 2 5 3
f 2 6 7
f 2 7 5
f 3 5 7
f 3 7 11
f 3 11 16
f 3 16 20
f 3 20 24
f 3 24 30
f 3 30 33
f 3 33 31
f 3 31 26
f 3 26 28
f 3 28 25
f 3 25 21
f 3 21 17
f 3 17 13
f 3 13 12
f 3 12 8
f 4 8 12
f 4 12 9
f 6 10 7
f 7 10 11
f 9 12 13
f 9 13 14
f 10 15 11
f 11 15 16
f 13 17 14
f 14 17 21
f 14 21 18
f 15 19 16
f 16 19 20
f 18 21 22
f 19 23 20
f 20 23 29
f 20 29 24
f 21 25 22
f 22 26 27
f 22 25 28
f 22 28 26
f 24 29 30
f 26 31 32
f 26 32 27
f 29 32 30
f 30 32 33
f 31 33 32