# https://github.com/mikedh/trimesh
v 0.07921101 -0.10360046 0.02553417 1.21764706 0.59411764 1.31764706
v 0.06296947 -0.09134538 0.02561807 1.21764706 0.59411764 1.31764706
v 0.07515563 -0.10359315 0.02567088 1.21764706 0.59411764 1.31764706
v 0.07921101 -0.10627476 0.02541300 1.21764706 0.59411764 1.31764706
v 0.07921101 -0.10093346 0.02488793 1.21764706 0.59411764 1.31764706
v 0.06725671 -0.09134538 0.02508055 1.21764706 0.59411764 1.31764706
v 0.06719076 -0.09134538 0.02509298 1.21764706 0.59411764 1.31764706
v 0.06296947 -0.09140822 0.02561496 1.21764706 0.59411764 1.31764706
v 0.06703287 -0.09953054 0.02546892 1.21764706 0.59411764 1.31764706
v 0.06016528 -0.09134538 0.02496870 1.21764706 0.59411764 1.31764706
v 0.06016929 -0.09140822 0.02496870 1.21764706 0.59411764 1.31764706
v 0.07109224 -0.10359315 0.02539746 1.21764706 0.59411764 1.31764706
v 0.07524557 -0.10627476 0.02521727 1.21764706 0.59411764 1.31764706
v 0.07921101 -0.10627476 -0.00606685 1.21764706 0.59411764 1.31764706
v 0.07921101 -0.10005370 0.02234331 1.21764706 0.59411764 1.31764706
v 0.06943131 -0.09134538 0.02234331 1.21764706 0.59411764 1.31764706
v 0.06946729 -0.09260070 0.02470150 1.21764706 0.59411764 1.31764706
v 0.06054305 -0.09437481 0.02473257 1.21764706 0.59411764 1.31764706
v 0.06277560 -0.09562575 0.02510851 1.21764706 0.59411764 1.31764706
v 0.06410874 -0.09953054 0.02482267 1.21764706 0.59411764 1.31764706
v 0.06481430 -0.10177229 0.02453994 1.21764706 0.59411764 1.31764706
v 0.06738463 -0.10331256 0.02477296 1.21764706 0.59411764 1.31764706
v 0.05910796 -0.09134538 0.02234331 1.21764706 0.59411764 1.31764706
v 0.07109224 -0.10627476 0.02480403 1.21764706 0.59411764 1.31764706
v 0.06638527 -0.10627476 -0.00606685 1.21764706 0.59411764 1.31764706
v 0.07921101 -0.09884953 -0.00606685 1.21764706 0.59411764 1.31764706
v 0.07921101 -0.09800340 0.01449510 1.21764706 0.59411764 1.31764706
v 0.07117018 -0.09134538 0.01429937 1.21764706 0.59411764 1.31764706
v 0.05911795 -0.09140822 0.02234331 1.21764706 0.59411764 1.31764706
v 0.06025323 -0.09499005 0.02234331 1.21764706 0.59411764 1.31764706
v 0.06128657 -0.09702135 0.02234331 1.21764706 0.59411764 1.31764706
v 0.06649120 -0.10627476 0.01976763 1.21764706 0.59411764 1.31764706
v 0.06713479 -0.10627476 0.02231535 1.21764706 0.59411764 1.31764706
v 0.06743059 -0.10627476 0.02312937 1.21764706 0.59411764 1.31764706
v 0.06867980 -0.10627476 0.02402418 1.21764706 0.59411764 1.31764706
v 0.06897561 -0.10591089 0.02444052 1.21764706 0.59411764 1.31764706
v 0.07020880 -0.10627476 0.02462073 1.21764706 0.59411764 1.31764706
v 0.05882216 -0.09134538 0.01827939 1.21764706 0.59411764 1.31764706
v 0.06110667 -0.09716895 -0.00606685 1.21764706 0.59411764 1.31764706
v 0.06638328 -0.10627476 -0.00454754 1.21764706 0.59411764 1.31764706
v 0.07921101 -0.09878230 -0.00605752 1.21764706 0.59411764 1.31764706
v 0.07079842 -0.09134538 -0.00606685 1.21764706 0.59411764 1.31764706
v 0.07175382 -0.09134538 0.01034729 1.21764706 0.59411764 1.31764706
v 0.07921101 -0.09789965 -0.00203090 1.21764706 0.59411764 1.31764706
v 0.05883414 -0.09140822 0.01827939 1.21764706 0.59411764 1.31764706
v 0.06016329 -0.09513765 0.01827939 1.21764706 0.59411764 1.31764706
v 0.06110667 -0.09716895 0.01827939 1.21764706 0.59411764 1.31764706
v 0.06639927 -0.10627476 0.01827939 1.21764706 0.59411764 1.31764706
v 0.05879416 -0.09134538 -0.00606685 1.21764706 0.59411764 1.31764706
v 0.06014130 -0.09513765 -0.00606685 1.21764706 0.59411764 1.31764706
v 0.07182378 -0.09134538 -0.00208371 1.21764706 0.59411764 1.31764706
v 0.07921101 -0.09798878 -0.00249072 1.21764706 0.59411764 1.31764706
v 0.07182977 -0.09134538 -0.00203090 1.21764706 0.59411764 1.31764706
v 0.05880617 -0.09140822 -0.00606685 1.21764706 0.59411764 1.31764706
v 0.06013330 -0.09511572 -0.00606685 1.21764706 0.59411764 1.31764706
f 1 2 3
f 1 3 4
f 1 4 14
f 1 14 26
f 1 26 41
f 1 41 52
f 1 52 44
f 1 44 27
f 1 27 15
f 1 15 5
f 1 5 6
f 1 6 7
f 1 7 2
f 2 8 9
f 2 9 3
f 2 7 6
f 2 6 16
f 2 16 28
f 2 28 43
f 2 43 53
f 2 53 51
f 2 51 42
f 2 42 49
f 2 49 38
f 2 38 23
f 2 23 10
f 2 10 11
f 2 11 8
f 3 9 12
f 3 12 13
f 3 13 4
f 4 13 24
f 4 24 37
f 4 37 35
f 4 35 34
f 4 34 33
f 4 33 32
f 4 32 48
f 4 48 40
f 4 40 25
f 4 25 14
f 5 15 16
f 5 16 17
f 5 17 6
f 6 17 16
f 8 11 18
f 8 18 19
f 8 19 9
f 9 19 20
f 9 20 21
f 9 21 22
f 9 22 12
f 10 23 11
f 11 23 18
f 12 22 24
f 12 24 13
f 14 25 39
f 14 39 50
f 14 50 55
f 14 55 54
f 14 54 49
f 14 49 42
f 14 42 26
f 15 27 16
f 16 27 28
f 18 23 29
f 18 29 30
f 18 30 31
f 18 31 21
f 18 21 20
f 18 20 19
f 21 31 32
f 21 32 33
f 21 33 34
f 21 34 35
f 21 35 36
f 21 36 22
f 22 36 37
f 22 37 24
f 23 38 29
f 25 40 39
f 26 42 41
f 27 43 28
f 27 44 43
f 29 38 45
f 29 45 30
f 30 45 46
f 30 46 47
f 30 47 31
f 31 47 32
f 32 47 48
f 35 37 36
f 38 49 54
f 38 54 45
f 39 40 47
f 39 47 50
f 40 48 47
f 41 51 52
f 41 42 51
f 43 44 53
f 44 52 51
f 44 51 53
f 45 54 46
f 46 54 55
f 46 55 50
f 46 50 47