# https://github.com/mikedh/trimesh
v 0.08470597 0.05794013 0.00636098 0.67647059 0.80000000 1.34117647
v 0.08470597 0.06853487 0.00636098 0.67647059 0.80000000 1.34117647
v 0.08734465 0.05804266 0.00636098 0.67647059 0.80000000 1.34117647
v 0.08470597 0.05794013 0.01828096 0.67647059 0.80000000 1.34117647
v 0.09630417 0.07483449 0.00636098 0.67647059 0.80000000 1.34117647
v 0.08470597 0.06937173 0.01154408 0.67647059 0.80000000 1.34117647
v 0.08761149 0.05809393 0.00636098 0.67647059 0.80000000 1.34117647
v 0.08734465 0.05804266 0.01828096 0.67647059 0.80000000 1.34117647
v 0.08734465 0.05846274 0.02234314 0.67647059 0.80000000 1.34117647
v 0.08470597 0.05808897 0.01970433 0.67647059 0.80000000 1.34117647
v 0.09630417 0.06070872 0.00636098 0.67647059 0.80000000 1.34117647
v 0.08470597 0.06952389 0.01299768 0.67647059 0.80000000 1.34117647
v 0.08470597 0.06958343 0.01422067 0.67647059 0.80000000 1.34117647
v 0.09630417 0.07313595 0.02234314 0.67647059 0.80000000 1.34117647
v 0.09140603 0.05883156 0.00636098 0.67647059 0.80000000 1.34117647
v 0.09140603 0.05883156 0.01828096 0.67647059 0.80000000 1.34117647
v 0.09140603 0.05911769 0.02234314 0.67647059 0.80000000 1.34117647
v 0.09437056 0.06054333 0.02473054 0.67647059 0.80000000 1.34117647
v 0.09140603 0.06017121 0.02496494 0.67647059 0.80000000 1.34117647
v 0.08734465 0.05991155 0.02502164 0.67647059 0.80000000 1.34117647
v 0.08470597 0.05837509 0.02234314 0.67647059 0.80000000 1.34117647
v 0.09513243 0.06016625 0.00636098 0.67647059 0.80000000 1.34117647
v 0.09630417 0.06070872 0.01828096 0.67647059 0.80000000 1.34117647
v 0.08470597 0.06928077 0.01677253 0.67647059 0.80000000 1.34117647
v 0.09630417 0.07279360 0.02366821 0.67647059 0.80000000 1.34117647
v 0.09165126 0.05891922 0.00636098 0.67647059 0.80000000 1.34117647
v 0.09513243 0.06016625 0.01828096 0.67647059 0.80000000 1.34117647
v 0.09498483 0.06025555 0.02234314 0.67647059 0.80000000 1.34117647
v 0.09630417 0.06108745 0.02298582 0.67647059 0.80000000 1.34117647
v 0.09630417 0.06300760 0.02505756 0.67647059 0.80000000 1.34117647
v 0.09562179 0.06277442 0.02510670 0.67647059 0.80000000 1.34117647
v 0.09140603 0.06296957 0.02561329 0.67647059 0.80000000 1.34117647
v 0.09630417 0.06092538 0.02234314 0.67647059 0.80000000 1.34117647
v 0.08734465 0.06296957 0.02567188 0.67647059 0.80000000 1.34117647
v 0.08470597 0.06094687 0.02525035 0.67647059 0.80000000 1.34117647
v 0.08470597 0.05987515 0.02502164 0.67647059 0.80000000 1.34117647
v 0.08470597 0.05888283 0.02328070 0.67647059 0.80000000 1.34117647
v 0.09630417 0.06077157 0.01988391 0.67647059 0.80000000 1.34117647
v 0.08470597 0.06771455 0.02234314 0.67647059 0.80000000 1.34117647
v 0.08470597 0.06672057 0.02408407 0.67647059 0.80000000 1.34117647
v 0.08470597 0.06614170 0.02502164 0.67647059 0.80000000 1.34117647
v 0.09630417 0.07190217 0.02480614 0.67647059 0.80000000 1.34117647
v 0.09630417 0.06351701 0.02516909 0.67647059 0.80000000 1.34117647
v 0.09630417 0.06703149 0.02556792 0.67647059 0.80000000 1.34117647
v 0.09546852 0.06703149 0.02559439 0.67647059 0.80000000 1.34117647
v 0.08470597 0.06296957 0.02567188 0.67647059 0.80000000 1.34117647
v 0.08470597 0.06411405 0.02544316 0.67647059 0.80000000 1.34117647
v 0.09630417 0.07153997 0.02495927 0.67647059 0.80000000 1.34117647
v 0.09630417 0.06786505 0.02557359 0.67647059 0.80000000 1.34117647
f 1 2 5
f 1 5 11
f 1 11 22
f 1 22 26
f 1 26 15
f 1 15 7
f 1 7 3
f 1 3 8
f 1 8 4
f 1 4 10
f 1 10 21
f 1 21 37
f 1 37 36
f 1 36 35
f 1 35 46
f 1 46 47
f 1 47 41
f 1 41 40
f 1 40 39
f 1 39 24
f 1 24 13
f 1 13 12
f 1 12 6
f 1 6 2
f 2 6 5
f 3 7 8
f 4 8 9
f 4 9 10
f 5 6 12
f 5 12 13
f 5 13 14
f 5 14 25
f 5 25 42
f 5 42 48
f 5 48 49
f 5 49 44
f 5 44 43
f 5 43 30
f 5 30 29
f 5 29 33
f 5 33 38
f 5 38 23
f 5 23 11
f 7 15 16
f 7 16 8
f 8 16 17
f 8 17 9
f 9 17 18
f 9 18 19
f 9 19 20
f 9 20 21
f 9 21 10
f 11 23 27
f 11 27 22
f 13 24 14
f 14 24 25
f 15 26 16
f 16 27 28
f 16 28 17
f 16 26 27
f 17 28 18
f 18 29 30
f 18 30 31
f 18 31 32
f 18 32 19
f 18 28 33
f 18 33 29
f 19 32 20
f 20 32 34
f 20 34 35
f 20 35 36
f 20 36 37
f 20 37 21
f 22 27 26
f 23 38 28
f 23 28 27
f 24 39 25
f 25 39 40
f 25 40 41
f 25 41 42
f 28 38 33
f 30 43 31
f 31 43 32
f 32 44 45
f 32 45 34
f 32 43 44
f 34 46 35
f 34 45 46
f 41 47 48
f 41 48 42
f 44 49 45
f 45 49 46
f 46 49 48
f 46 48 47