# https://github.com/mikedh/trimesh
v 0.05358907 0.08328358 -0.01095945 0.40588236 0.55294118 0.29411764
v 0.05359119 0.08312891 -0.01095945 0.40588236 0.55294118 0.29411764
v 0.05773060 0.08328358 -0.00694060 0.40588236 0.55294118 0.29411764
v 0.05785310 0.08734517 -0.00694060 0.40588236 0.55294118 0.29411764
v 0.05380872 0.08734517 -0.01095945 0.40588236 0.55294118 0.29411764
v 0.05774116 0.08312891 -0.00694060 0.40588236 0.55294118 0.29411764
v 0.07280991 0.08312891 -0.01095945 0.40588236 0.55294118 0.29411764
v 0.05854159 0.09140893 -0.00694060 0.40588236 0.55294118 0.29411764
v 0.05733355 0.10570398 -0.01095945 0.40588236 0.55294118 0.29411764
v 0.06895982 0.08312891 -0.00694060 0.40588236 0.55294118 0.29411764
v 0.07516262 0.09052723 -0.01095945 0.40588236 0.55294118 0.29411764
v 0.07516262 0.09495563 -0.00694060 0.40588236 0.55294118 0.29411764
v 0.05985733 0.09530256 -0.00694060 0.40588236 0.55294118 0.29411764
v 0.06240645 0.09952986 -0.00694060 0.40588236 0.55294118 0.29411764
v 0.06623962 0.10570398 -0.00694060 0.40588236 0.55294118 0.29411764
v 0.07516262 0.10570398 -0.01095945 0.40588236 0.55294118 0.29411764
v 0.07516262 0.10570398 -0.00694060 0.40588236 0.55294118 0.29411764
f 1 2 3
f 1 3 4
f 1 4 5
f 1 5 9
f 1 9 16
f 1 16 11
f 1 11 7
f 1 7 2
f 2 6 3
f 2 7 10
f 2 10 6
f 3 6 10
f 3 10 12
f 3 12 17
f 3 17 15
f 3 15 14
f 3 14 13
f 3 13 8
f 3 8 4
f 4 8 5
f 5 8 9
f 7 11 12
f 7 12 10
f 8 13 9
f 9 13 14
f 9 14 15
f 9 15 17
f 9 17 16
f 11 16 17
f 11 17 12