# https://github.com/mikedh/trimesh
v 0.07935717 -0.06296995 0.02566936 0.85882353 0.88235293 0.85294117
v 0.07935717 -0.06000959 0.02502003 0.85882353 0.88235293 0.85294117
v 0.07921849 -0.06001357 0.02502003 0.85882353 0.88235293 0.85294117
v 0.07921849 -0.06296995 0.02566625 0.85882353 0.88235293 0.85294117
v 0.07109219 -0.06703175 0.02565693 0.85882353 0.88235293 0.85294117
v 0.06703209 -0.07109353 0.02565693 0.85882353 0.88235293 0.85294117
v 0.06296995 -0.07866443 0.02563829 0.85882353 0.88235293 0.85294117
v 0.06352258 -0.07866443 0.02563208 0.85882353 0.88235293 0.85294117
v 0.07935717 -0.06670172 0.02501072 0.85882353 0.88235293 0.85294117
v 0.07935717 -0.05995790 0.02492994 0.85882353 0.88235293 0.85294117
v 0.07935717 -0.05872326 0.02234195 0.85882353 0.88235293 0.85294117
v 0.07921849 -0.05873718 0.02234195 0.85882353 0.88235293 0.85294117
v 0.07515636 -0.06043904 0.02479323 0.85882353 0.88235293 0.85294117
v 0.07515636 -0.06296995 0.02544257 0.85882353 0.88235293 0.85294117
v 0.06698315 -0.06698403 0.02513187 0.85882353 0.88235293 0.85294117
v 0.06296995 -0.07515534 0.02544567 0.85882353 0.88235293 0.85294117
v 0.06041685 -0.07866443 0.02507906 0.85882353 0.88235293 0.85294117
v 0.06707900 -0.07866443 0.02497032 0.85882353 0.88235293 0.85294117
v 0.07935717 -0.06699397 0.02495167 0.85882353 0.88235293 0.85294117
v 0.07935717 -0.05870934 0.02220525 0.85882353 0.88235293 0.85294117
v 0.07921849 -0.05838528 0.01828133 0.85882353 0.88235293 0.85294117
v 0.07515636 -0.05974119 0.02234195 0.85882353 0.88235293 0.85294117
v 0.07288465 -0.06081280 0.02450740 0.85882353 0.88235293 0.85294117
v 0.07135524 -0.06301369 0.02496101 0.85882353 0.88235293 0.85294117
v 0.06830457 -0.06439744 0.02479012 0.85882353 0.88235293 0.85294117
v 0.06439945 -0.06830417 0.02479012 0.85882353 0.88235293 0.85294117
v 0.06301482 -0.07135598 0.02496411 0.85882353 0.88235293 0.85294117
v 0.06044131 -0.07515534 0.02479633 0.85882353 0.88235293 0.85294117
v 0.06007221 -0.07866443 0.02498897 0.85882353 0.88235293 0.85294117
v 0.06727476 -0.07866443 0.02492372 0.85882353 0.88235293 0.85294117
v 0.06743994 -0.07866443 0.02485227 0.85882353 0.88235293 0.85294117
v 0.06913453 -0.07739001 0.02444838 0.85882353 0.88235293 0.85294117
v 0.06873688 -0.07866443 0.02330506 0.85882353 0.88235293 0.85294117
v 0.07935717 -0.06853877 0.02272409 0.85882353 0.88235293 0.85294117
v 0.07935717 -0.05836937 0.01828133 0.85882353 0.88235293 0.85294117
v 0.07515636 -0.05954436 0.01828133 0.85882353 0.88235293 0.85294117
v 0.07935717 -0.05835545 -0.00606996 0.85882353 0.88235293 0.85294117
v 0.07921849 -0.05837334 -0.00606996 0.85882353 0.88235293 0.85294117
v 0.07919403 -0.05837931 -0.00606996 0.85882353 0.88235293 0.85294117
v 0.07515636 -0.05951057 -0.00606996 0.85882353 0.88235293 0.85294117
v 0.07265016 -0.06068556 0.02234195 0.85882353 0.88235293 0.85294117
v 0.07061908 -0.06193811 0.02234195 0.85882353 0.88235293 0.85294117
v 0.06778864 -0.06396999 0.02234195 0.85882353 0.88235293 0.85294117
v 0.06575757 -0.06575733 0.02234195 0.85882353 0.88235293 0.85294117
v 0.06397121 -0.06778724 0.02234195 0.85882353 0.88235293 0.85294117
v 0.06081246 -0.07288287 0.02450740 0.85882353 0.88235293 0.85294117
v 0.05896899 -0.07866443 0.02267748 0.85882353 0.88235293 0.85294117
v 0.07120434 -0.07866443 0.01015387 0.85882353 0.88235293 0.85294117
v 0.07935717 -0.07031021 0.01031855 0.85882353 0.88235293 0.85294117
v 0.07253595 -0.06061995 0.01828133 0.85882353 0.88235293 0.85294117
v 0.07514005 -0.05951654 -0.00606996 0.85882353 0.88235293 0.85294117
v 0.07935717 -0.07095436 -0.00606996 0.85882353 0.88235293 0.85294117
v 0.07050489 -0.06181086 0.01828133 0.85882353 0.88235293 0.85294117
v 0.06765201 -0.06384275 0.01828133 0.85882353 0.88235293 0.85294117
v 0.06562095 -0.06562015 0.01828133 0.85882353 0.88235293 0.85294117
v 0.06194015 -0.07061837 0.02234195 0.85882353 0.88235293 0.85294117
v 0.06384479 -0.06765206 0.01828133 0.85882353 0.88235293 0.85294117
v 0.06068398 -0.07265026 0.02234195 0.85882353 0.88235293 0.85294117
v 0.05974390 -0.07515534 0.02234195 0.85882353 0.88235293 0.85294117
v 0.05887316 -0.07866443 0.02234195 0.85882353 0.88235293 0.85294117
v 0.07093109 -0.07866443 -0.00606996 0.85882353 0.88235293 0.85294117
v 0.07935717 -0.07068795 0.00609636 0.85882353 0.88235293 0.85294117
v 0.07935717 -0.07068199 0.00620511 0.85882353 0.88235293 0.85294117
v 0.07253391 -0.06060008 -0.00606996 0.85882353 0.88235293 0.85294117
v 0.07050285 -0.06180886 -0.00606996 0.85882353 0.88235293 0.85294117
v 0.06765201 -0.06383877 -0.00606996 0.85882353 0.88235293 0.85294117
v 0.06562095 -0.06562015 -0.00203109 0.85882353 0.88235293 0.85294117
v 0.06384070 -0.06765206 -0.00606996 0.85882353 0.88235293 0.85294117
v 0.06181371 -0.07050504 0.01828133 0.85882353 0.88235293 0.85294117
v 0.06182187 -0.07048517 -0.00606996 0.85882353 0.88235293 0.85294117
v 0.06062076 -0.07253694 0.01828133 0.85882353 0.88235293 0.85294117
v 0.05954406 -0.07515534 0.01828133 0.85882353 0.88235293 0.85294117
v 0.05856931 -0.07866443 0.01883124 0.85882353 0.88235293 0.85294117
v 0.05852649 -0.07866443 -0.00606996 0.85882353 0.88235293 0.85294117
v 0.06563318 -0.06561021 -0.00606996 0.85882353 0.88235293 0.85294117
v 0.06561075 -0.06563208 -0.00606996 0.85882353 0.88235293 0.85294117
v 0.06180352 -0.07051301 -0.00606996 0.85882353 0.88235293 0.85294117
v 0.06060037 -0.07253295 -0.00606996 0.85882353 0.88235293 0.85294117
v 0.05951551 -0.07513942 -0.00606996 0.85882353 0.88235293 0.85294117
v 0.05854279 -0.07866443 0.01828133 0.85882353 0.88235293 0.85294117
v 0.05950940 -0.07515534 -0.00606996 0.85882353 0.88235293 0.85294117
f 1 2 3
f 1 3 4
f 1 4 5
f 1 5 6
f 1 6 7
f 1 7 8
f 1 8 9
f 1 9 19
f 1 19 34
f 1 34 49
f 1 49 63
f 1 63 62
f 1 62 52
f 1 52 37
f 1 37 35
f 1 35 20
f 1 20 11
f 1 11 10
f 1 10 2
f 2 10 3
f 3 10 11
f 3 11 12
f 3 12 13
f 3 13 14
f 3 14 4
f 4 14 5
f 5 14 15
f 5 15 6
f 6 15 16
f 6 16 7
f 7 16 17
f 7 17 29
f 7 29 47
f 7 47 60
f 7 60 73
f 7 73 80
f 7 80 74
f 7 74 61
f 7 61 48
f 7 48 33
f 7 33 31
f 7 31 30
f 7 30 18
f 7 18 8
f 8 18 9
f 9 18 19
f 11 20 12
f 12 20 21
f 12 21 22
f 12 22 23
f 12 23 13
f 13 24 14
f 13 23 24
f 14 24 15
f 15 24 25
f 15 25 26
f 15 26 27
f 15 27 16
f 16 27 28
f 16 28 17
f 17 28 29
f 18 30 19
f 19 30 31
f 19 31 32
f 19 32 33
f 19 33 34
f 20 35 21
f 21 36 22
f 21 35 37
f 21 37 38
f 21 38 39
f 21 39 40
f 21 40 36
f 22 41 23
f 22 36 41
f 23 41 42
f 23 42 43
f 23 43 25
f 23 25 24
f 25 43 44
f 25 44 26
f 26 44 45
f 26 45 46
f 26 46 27
f 27 46 28
f 28 46 47
f 28 47 29
f 31 33 32
f 33 48 34
f 34 48 49
f 36 50 41
f 36 40 51
f 36 51 50
f 37 52 61
f 37 61 74
f 37 74 81
f 37 81 79
f 37 79 78
f 37 78 77
f 37 77 70
f 37 70 68
f 37 68 76
f 37 76 75
f 37 75 66
f 37 66 65
f 37 65 64
f 37 64 51
f 37 51 40
f 37 40 39
f 37 39 38
f 41 50 53
f 41 53 42
f 42 53 54
f 42 54 43
f 43 54 55
f 43 55 44
f 44 55 45
f 45 56 46
f 45 55 57
f 45 57 56
f 46 56 58
f 46 58 59
f 46 59 60
f 46 60 47
f 48 61 52
f 48 52 62
f 48 62 63
f 48 63 49
f 50 51 64
f 50 64 53
f 53 64 65
f 53 65 66
f 53 66 54
f 54 66 55
f 55 66 67
f 55 67 68
f 55 68 57
f 56 57 69
f 56 69 58
f 57 68 70
f 57 70 69
f 58 69 71
f 58 71 72
f 58 72 59
f 59 72 73
f 59 73 60
f 66 75 67
f 67 75 76
f 67 76 68
f 69 70 77
f 69 77 78
f 69 78 71
f 71 78 79
f 71 79 72
f 72 80 73
f 72 79 81
f 72 81 80
f 74 80 81