# https://github.com/mikedh/trimesh
v 0.08398887 -0.05135852 -0.01163504 1.04117648 0.56470588 0.26470589
v 0.08398887 -0.05741811 -0.00863002 1.04117648 0.56470588 0.26470589
v 0.08398887 -0.07700529 -0.01163504 1.04117648 0.56470588 0.26470589
v 0.08327962 -0.05135852 -0.01163504 1.04117648 0.56470588 0.26470589
v 0.08327962 -0.05740539 -0.00863002 1.04117648 0.56470588 0.26470589
v 0.08398887 -0.07126043 -0.00863002 1.04117648 0.56470588 0.26470589
v 0.06909772 -0.08383425 -0.00863002 1.04117648 0.56470588 0.26470589
v 0.07478134 -0.08383425 -0.01163504 1.04117648 0.56470588 0.26470589
v 0.07921897 -0.05156197 -0.01163504 1.04117648 0.56470588 0.26470589
v 0.07921897 -0.05772332 -0.00863002 1.04117648 0.56470588 0.26470589
v 0.05740461 -0.08383425 -0.00863002 1.04117648 0.56470588 0.26470589
v 0.05135358 -0.08383425 -0.01163504 1.04117648 0.56470588 0.26470589
v 0.07515513 -0.05249985 -0.01163504 1.04117648 0.56470588 0.26470589
v 0.07515513 -0.05852765 -0.00863002 1.04117648 0.56470588 0.26470589
v 0.05739183 -0.08328107 -0.00863002 1.04117648 0.56470588 0.26470589
v 0.05135038 -0.08328107 -0.01163504 1.04117648 0.56470588 0.26470589
v 0.06703385 -0.05637533 -0.01163504 1.04117648 0.56470588 0.26470589
v 0.07168235 -0.05964356 -0.00863002 1.04117648 0.56470588 0.26470589
v 0.05772408 -0.07921802 -0.00863002 1.04117648 0.56470588 0.26470589
v 0.05156443 -0.07921802 -0.01163504 1.04117648 0.56470588 0.26470589
v 0.06297001 -0.05994558 -0.01163504 1.04117648 0.56470588 0.26470589
v 0.06705942 -0.06313116 -0.00863002 1.04117648 0.56470588 0.26470589
v 0.05852919 -0.07515498 -0.00863002 1.04117648 0.56470588 0.26470589
v 0.05252609 -0.07515498 -0.01163504 1.04117648 0.56470588 0.26470589
v 0.05994450 -0.06297221 -0.01163504 1.04117648 0.56470588 0.26470589
v 0.06312977 -0.06705750 -0.00863002 1.04117648 0.56470588 0.26470589
v 0.05964419 -0.07168326 -0.00863002 1.04117648 0.56470588 0.26470589
v 0.05638545 -0.06703207 -0.01163504 1.04117648 0.56470588 0.26470589
f 1 2 6
f 1 6 3
f 1 3 8
f 1 8 12
f 1 12 16
f 1 16 20
f 1 20 24
f 1 24 28
f 1 28 25
f 1 25 21
f 1 21 17
f 1 17 13
f 1 13 9
f 1 9 4
f 1 4 5
f 1 5 2
f 2 5 10
f 2 10 14
f 2 14 18
f 2 18 22
f 2 22 26
f 2 26 27
f 2 27 23
f 2 23 19
f 2 19 15
f 2 15 11
f 2 11 7
f 2 7 6
f 3 6 7
f 3 7 8
f 4 9 5
f 5 9 10
f 7 11 12
f 7 12 8
f 9 13 14
f 9 14 10
f 11 15 12
f 12 15 16
f 13 17 18
f 13 18 14
f 15 19 20
f 15 20 16
f 17 21 22
f 17 22 18
f 19 23 20
f 20 23 24
f 21 25 26
f 21 26 22
f 23 27 24
f 24 27 28
f 25 28 26
f 26 28 27