# https://github.com/mikedh/trimesh
v -0.07054632 -0.08516160 -0.00851490 0.35294118 1.39999999 0.91764706
v -0.07237586 -0.07779230 -0.00851490 0.35294118 1.39999999 0.91764706
v -0.05745973 -0.08516160 -0.00851490 0.35294118 1.39999999 0.91764706
v -0.06993989 -0.08516160 0.00394708 0.35294118 1.39999999 0.91764706
v -0.07237586 -0.07620704 0.00609548 0.35294118 1.39999999 0.91764706
v -0.07237586 -0.05941692 -0.00851490 0.35294118 1.39999999 0.91764706
v -0.05741286 -0.08328147 -0.00851490 0.35294118 1.39999999 0.91764706
v -0.05788599 -0.08328147 0.01827971 0.35294118 1.39999999 0.91764706
v -0.05795484 -0.08516160 0.01827971 0.35294118 1.39999999 0.91764706
v -0.06976997 -0.08516160 0.00556005 0.35294118 1.39999999 0.91764706
v -0.07237586 -0.07288530 0.02234223 0.35294118 1.39999999 0.91764706
v -0.07172254 -0.05968659 -0.00851490 0.35294118 1.39999999 0.91764706
v -0.07237586 -0.06085348 0.02234223 0.35294118 1.39999999 0.91764706
v -0.05766335 -0.07994714 -0.00851490 0.35294118 1.39999999 0.91764706
v -0.05838402 -0.07921876 0.01827971 0.35294118 1.39999999 0.91764706
v -0.05873557 -0.07921876 0.02234223 0.35294118 1.39999999 0.91764706
v -0.05832837 -0.08328147 0.02234223 0.35294118 1.39999999 0.91764706
v -0.05838549 -0.08516160 0.02234223 0.35294118 1.39999999 0.91764706
v -0.05814819 -0.08516160 0.02016038 0.35294118 1.39999999 0.91764706
v -0.05775123 -0.07921876 -0.00851490 0.35294118 1.39999999 0.91764706
v -0.06772071 -0.08516160 0.02234223 0.35294118 1.39999999 0.91764706
v -0.07237586 -0.07078590 0.02503608 0.35294118 1.39999999 0.91764706
v -0.07098722 -0.06012511 -0.00851490 0.35294118 1.39999999 0.91764706
v -0.07237586 -0.06154404 0.02465793 0.35294118 1.39999999 0.91764706
v -0.07061955 -0.06193719 0.02234223 0.35294118 1.39999999 0.91764706
v -0.05954415 -0.07515607 0.01827971 0.35294118 1.39999999 0.91764706
v -0.05974337 -0.07515607 0.02234223 0.35294118 1.39999999 0.91764706
v -0.05823315 -0.07636329 -0.00851490 0.35294118 1.39999999 0.91764706
v -0.05857152 -0.07515607 -0.00851490 0.35294118 1.39999999 0.91764706
v -0.06081121 -0.07288278 0.02450734 0.35294118 1.39999999 0.91764706
v -0.06044061 -0.07515607 0.02479514 0.35294118 1.39999999 0.91764706
v -0.06001436 -0.07921876 0.02501934 0.35294118 1.39999999 0.91764706
v -0.05985469 -0.08328147 0.02502268 0.35294118 1.39999999 0.91764706
v -0.05905784 -0.08516160 0.02358373 0.35294118 1.39999999 0.91764706
v -0.06690335 -0.08516160 0.02378118 0.35294118 1.39999999 0.91764706
v -0.06614312 -0.08516160 0.02502268 0.35294118 1.39999999 0.91764706
v -0.07237586 -0.06703322 0.02557819 0.35294118 1.39999999 0.91764706
v -0.06708351 -0.06316206 -0.00851490 0.35294118 1.39999999 0.91764706
v -0.07050529 -0.06181117 0.01827971 0.35294118 1.39999999 0.91764706
v -0.06765039 -0.06384254 0.01827971 0.35294118 1.39999999 0.91764706
v -0.07237586 -0.06300329 0.02508962 0.35294118 1.39999999 0.91764706
v -0.07135635 -0.06301336 0.02496246 0.35294118 1.39999999 0.91764706
v -0.06830370 -0.06439699 0.02478844 0.35294118 1.39999999 0.91764706
v -0.06778662 -0.06396855 0.02234223 0.35294118 1.39999999 0.91764706
v -0.06068378 -0.07264839 0.02234223 0.35294118 1.39999999 0.91764706
v -0.05929221 -0.07267359 -0.00851490 0.35294118 1.39999999 0.91764706
v -0.06440000 -0.06830343 0.02478844 0.35294118 1.39999999 0.91764706
v -0.06301575 -0.07135801 0.02496246 0.35294118 1.39999999 0.91764706
v -0.06194058 -0.07061956 0.02234223 0.35294118 1.39999999 0.91764706
v -0.06397080 -0.06778929 0.02234223 0.35294118 1.39999999 0.91764706
v -0.06297033 -0.07515607 0.02544434 0.35294118 1.39999999 0.91764706
v -0.06297033 -0.07921876 0.02566854 0.35294118 1.39999999 0.91764706
v -0.06297033 -0.08328147 0.02567188 0.35294118 1.39999999 0.91764706
v -0.06297033 -0.08516160 0.02567188 0.35294118 1.39999999 0.91764706
v -0.06129606 -0.08516160 0.02532052 0.35294118 1.39999999 0.91764706
v -0.05987813 -0.08516160 0.02502268 0.35294118 1.39999999 0.91764706
v -0.06447322 -0.08516160 0.02537072 0.35294118 1.39999999 0.91764706
v -0.07109415 -0.06703322 0.02565850 0.35294118 1.39999999 0.91764706
v -0.06653421 -0.06364343 -0.00851490 0.35294118 1.39999999 0.91764706
v -0.06562017 -0.06561933 0.01827971 0.35294118 1.39999999 0.91764706
v -0.06698244 -0.06698280 0.02513311 0.35294118 1.39999999 0.91764706
v -0.06575640 -0.06575795 0.02234223 0.35294118 1.39999999 0.91764706
v -0.05968771 -0.07172598 -0.00851490 0.35294118 1.39999999 0.91764706
v -0.06012568 -0.07098753 -0.00851490 0.35294118 1.39999999 0.91764706
v -0.06181314 -0.07050615 0.01827971 0.35294118 1.39999999 0.91764706
v -0.06384483 -0.06765067 0.01827971 0.35294118 1.39999999 0.91764706
v -0.06703079 -0.07109591 0.02565850 0.35294118 1.39999999 0.91764706
v -0.06364414 -0.06653420 -0.00851490 0.35294118 1.39999999 0.91764706
v -0.06316222 -0.06708361 -0.00851490 0.35294118 1.39999999 0.91764706
f 1 2 6
f 1 6 12
f 1 12 23
f 1 23 38
f 1 38 59
f 1 59 68
f 1 68 69
f 1 69 64
f 1 64 63
f 1 63 46
f 1 46 29
f 1 29 28
f 1 28 20
f 1 20 14
f 1 14 7
f 1 7 3
f 1 3 9
f 1 9 19
f 1 19 18
f 1 18 34
f 1 34 56
f 1 56 55
f 1 55 54
f 1 54 57
f 1 57 36
f 1 36 35
f 1 35 21
f 1 21 10
f 1 10 4
f 1 4 5
f 1 5 2
f 2 5 11
f 2 11 22
f 2 22 37
f 2 37 41
f 2 41 24
f 2 24 13
f 2 13 6
f 3 7 8
f 3 8 9
f 4 10 11
f 4 11 5
f 6 13 12
f 7 14 8
f 8 15 16
f 8 16 17
f 8 17 18
f 8 18 19
f 8 19 9
f 8 14 20
f 8 20 15
f 10 21 11
f 11 21 22
f 12 13 23
f 13 24 25
f 13 25 23
f 15 26 27
f 15 27 16
f 15 20 28
f 15 28 29
f 15 29 26
f 16 27 30
f 16 30 31
f 16 31 32
f 16 32 17
f 17 32 33
f 17 33 34
f 17 34 18
f 21 35 22
f 22 35 36
f 22 36 37
f 23 25 39
f 23 39 40
f 23 40 38
f 24 41 42
f 24 42 43
f 24 43 25
f 25 44 40
f 25 40 39
f 25 43 44
f 26 45 27
f 26 29 46
f 26 46 45
f 27 45 30
f 30 47 48
f 30 48 31
f 30 45 49
f 30 49 50
f 30 50 47
f 31 48 51
f 31 51 32
f 32 51 52
f 32 52 33
f 33 52 53
f 33 53 54
f 33 54 55
f 33 55 56
f 33 56 34
f 36 57 37
f 37 54 58
f 37 58 41
f 37 57 54
f 38 40 60
f 38 60 59
f 40 44 60
f 41 58 61
f 41 61 42
f 42 61 43
f 43 61 47
f 43 47 62
f 43 62 44
f 44 62 60
f 45 46 63
f 45 63 64
f 45 64 49
f 47 50 62
f 47 61 48
f 48 61 51
f 49 64 65
f 49 65 66
f 49 66 50
f 50 66 60
f 50 60 62
f 51 61 67
f 51 67 52
f 52 67 58
f 52 58 53
f 53 58 54
f 58 67 61
f 59 60 68
f 60 66 69
f 60 69 68
f 64 69 66
f 64 66 65