# https://github.com/mikedh/trimesh
v 0.07935717 -0.07095479 -0.00606685 0.91764706 0.18235294 1.27058823
v 0.07935717 -0.05835575 -0.00606685 0.91764706 0.18235294 1.27058823
v 0.08734396 -0.07015927 -0.00606685 0.91764706 0.18235294 1.27058823
v 0.08734396 -0.07024753 0.00609423 0.91764706 0.18235294 1.27058823
v 0.07935717 -0.07068877 0.00609423 0.91764706 0.18235294 1.27058823
v 0.08328215 -0.05789021 -0.00606685 0.91764706 0.18235294 1.27058823
v 0.07935717 -0.05836854 0.01828017 0.91764706 0.18235294 1.27058823
v 0.08328215 -0.05789534 0.01828017 0.91764706 0.18235294 1.27058823
v 0.08734396 -0.05802706 -0.00606685 0.91764706 0.18235294 1.27058823
v 0.07935717 -0.07068237 0.00620609 0.91764706 0.18235294 1.27058823
v 0.08734396 -0.06788913 0.02234110 0.91764706 0.18235294 1.27058823
v 0.07935717 -0.06854011 0.02272638 0.91764706 0.18235294 1.27058823
v 0.07935717 -0.07031147 0.01031985 0.91764706 0.18235294 1.27058823
v 0.08731973 -0.05802578 -0.00606685 0.91764706 0.18235294 1.27058823
v 0.07935717 -0.05870874 0.02220440 0.91764706 0.18235294 1.27058823
v 0.08328215 -0.05833785 0.02234110 0.91764706 0.18235294 1.27058823
v 0.08734396 -0.05845294 0.02234110 0.91764706 0.18235294 1.27058823
v 0.08734396 -0.05803346 0.01828017 0.91764706 0.18235294 1.27058823
v 0.08734396 -0.06623287 0.02502251 0.91764706 0.18235294 1.27058823
v 0.07935717 -0.06699258 0.02495105 0.91764706 0.18235294 1.27058823
v 0.07935717 -0.05872410 0.02234110 0.91764706 0.18235294 1.27058823
v 0.07935717 -0.05995701 0.02492930 0.91764706 0.18235294 1.27058823
v 0.08328215 -0.05985981 0.02502251 0.91764706 0.18235294 1.27058823
v 0.08734396 -0.05990586 0.02502251 0.91764706 0.18235294 1.27058823
v 0.08734396 -0.06297024 0.02567188 0.91764706 0.18235294 1.27058823
v 0.07935717 -0.06670097 0.02501009 0.91764706 0.18235294 1.27058823
v 0.07935717 -0.06000817 0.02501940 0.91764706 0.18235294 1.27058823
v 0.07935717 -0.06286409 0.02564703 0.91764706 0.18235294 1.27058823
v 0.08328215 -0.06297024 0.02567188 0.91764706 0.18235294 1.27058823
v 0.07935717 -0.06297024 0.02566878 0.91764706 0.18235294 1.27058823
f 1 2 6
f 1 6 14
f 1 14 9
f 1 9 3
f 1 3 4
f 1 4 5
f 1 5 10
f 1 10 13
f 1 13 12
f 1 12 20
f 1 20 26
f 1 26 30
f 1 30 28
f 1 28 27
f 1 27 22
f 1 22 21
f 1 21 15
f 1 15 7
f 1 7 2
f 2 7 8
f 2 8 6
f 3 9 18
f 3 18 17
f 3 17 24
f 3 24 25
f 3 25 19
f 3 19 11
f 3 11 4
f 4 10 5
f 4 11 12
f 4 12 13
f 4 13 10
f 6 8 14
f 7 15 8
f 8 15 16
f 8 16 17
f 8 17 18
f 8 18 14
f 9 14 18
f 11 19 12
f 12 19 20
f 15 21 16
f 16 21 22
f 16 22 23
f 16 23 24
f 16 24 17
f 19 25 26
f 19 26 20
f 22 27 23
f 23 28 29
f 23 29 25
f 23 25 24
f 23 27 28
f 25 29 26
f 26 29 30
f 28 30 29