# https://github.com/mikedh/trimesh
v 0.09405034 -0.09610846 -0.00863002 0.92352941 0.01764706 0.51764706
v 0.10400387 -0.09610846 -0.00863002 0.92352941 0.01764706 0.51764706
v 0.09502572 -0.09610846 -0.00606996 0.92352941 0.01764706 0.51764706
v 0.09832407 -0.08530093 -0.00863002 0.92352941 0.01764706 0.51764706
v 0.10400387 -0.09610846 -0.00606996 0.92352941 0.01764706 0.51764706
v 0.10400387 -0.08530093 -0.00863002 0.92352941 0.01764706 0.51764706
v 0.09968045 -0.08530093 -0.00606996 0.92352941 0.01764706 0.51764706
v 0.10400387 -0.08530093 -0.00606996 0.92352941 0.01764706 0.51764706
f 1 2 5
f 1 5 3
f 1 3 4
f 1 4 6
f 1 6 2
f 2 6 8
f 2 8 5
f 3 5 8
f 3 8 7
f 3 7 4
f 4 7 8
f 4 8 6