# https://github.com/mikedh/trimesh
v 0.07478155 -0.08383425 -0.01163504 1.24117647 0.94117647 1.30588236
v 0.08398887 -0.09930918 -0.00863002 1.24117647 0.94117647 1.30588236
v 0.08398887 -0.09509538 -0.01163504 1.24117647 0.94117647 1.30588236
v 0.05135432 -0.08383425 -0.01163504 1.24117647 0.94117647 1.30588236
v 0.06909806 -0.08383425 -0.00863002 1.24117647 0.94117647 1.30588236
v 0.08398887 -0.10397847 -0.00863002 1.24117647 0.94117647 1.30588236
v 0.08398887 -0.10397847 -0.01163504 1.24117647 0.94117647 1.30588236
v 0.05135751 -0.08677229 -0.01163504 1.24117647 0.94117647 1.30588236
v 0.05740521 -0.08383425 -0.00863002 1.24117647 0.94117647 1.30588236
v 0.06493848 -0.10397847 -0.00863002 1.24117647 0.94117647 1.30588236
v 0.05518805 -0.10397847 -0.01163504 1.24117647 0.94117647 1.30588236
v 0.05142780 -0.09076524 -0.01163504 1.24117647 0.94117647 1.30588236
v 0.05747549 -0.08705227 -0.00863002 1.24117647 0.94117647 1.30588236
v 0.06429631 -0.10362945 -0.00863002 1.24117647 0.94117647 1.30588236
v 0.06366057 -0.10292748 -0.00863002 1.24117647 0.94117647 1.30588236
v 0.06301842 -0.10205594 -0.00863002 1.24117647 0.94117647 1.30588236
v 0.05952015 -0.09609903 -0.00863002 1.24117647 0.94117647 1.30588236
v 0.05927735 -0.09559031 -0.00863002 1.24117647 0.94117647 1.30588236
v 0.05894188 -0.09465369 -0.00863002 1.24117647 0.94117647 1.30588236
v 0.05185910 -0.09439143 -0.01163504 1.24117647 0.94117647 1.30588236
v 0.05786845 -0.09059368 -0.00863002 1.24117647 0.94117647 1.30588236
v 0.05748507 -0.08734608 -0.00863002 1.24117647 0.94117647 1.30588236
v 0.05802500 -0.09140805 -0.00863002 1.24117647 0.94117647 1.30588236
f 1 2 3
f 1 3 7
f 1 7 11
f 1 11 20
f 1 20 12
f 1 12 8
f 1 8 4
f 1 4 9
f 1 9 5
f 1 5 2
f 2 6 7
f 2 7 3
f 2 5 9
f 2 9 13
f 2 13 22
f 2 22 21
f 2 21 23
f 2 23 19
f 2 19 18
f 2 18 17
f 2 17 16
f 2 16 15
f 2 15 14
f 2 14 10
f 2 10 6
f 4 8 9
f 6 10 11
f 6 11 7
f 8 12 9
f 9 12 13
f 10 14 11
f 11 14 15
f 11 15 16
f 11 16 17
f 11 17 18
f 11 18 19
f 11 19 20
f 12 20 21
f 12 21 22
f 12 22 13
f 19 23 20
f 20 23 21