# https://github.com/mikedh/trimesh
v 0.07236585 0.06021537 -0.00694060 1.04117648 0.42352941 0.56470588
v 0.07428702 0.05942657 -0.00694060 1.04117648 0.42352941 0.56470588
v 0.07251606 0.06060620 -0.00293379 1.04117648 0.42352941 0.56470588
v 0.07236585 0.06069404 -0.00293379 1.04117648 0.42352941 0.56470588
v 0.07236585 0.07439061 -0.00694060 1.04117648 0.42352941 0.56470588
v 0.07515785 0.05917559 -0.00694060 1.04117648 0.42352941 0.56470588
v 0.07515785 0.05953054 -0.00293379 1.04117648 0.42352941 0.56470588
v 0.07236585 0.07512205 -0.00293379 1.04117648 0.42352941 0.56470588
v 0.07236585 0.07488182 -0.00626404 1.04117648 0.42352941 0.56470588
v 0.08484192 0.06864666 -0.00694060 1.04117648 0.42352941 0.56470588
v 0.07822100 0.05831685 -0.00694060 1.04117648 0.42352941 0.56470588
v 0.07921884 0.05837422 -0.00293379 1.04117648 0.42352941 0.56470588
v 0.07831747 0.05862701 -0.00293379 1.04117648 0.42352941 0.56470588
v 0.07284217 0.07553796 -0.00293379 1.04117648 0.42352941 0.56470588
v 0.07236585 0.07603097 -0.00293770 1.04117648 0.42352941 0.56470588
v 0.07236585 0.07496070 -0.00604675 1.04117648 0.42352941 0.56470588
v 0.08484192 0.05777545 -0.00694060 1.04117648 0.42352941 0.56470588
v 0.08484192 0.06931355 -0.00293379 1.04117648 0.42352941 0.56470588
v 0.07921884 0.05814654 -0.00694060 1.04117648 0.42352941 0.56470588
v 0.08328105 0.05789019 -0.00293379 1.04117648 0.42352941 0.56470588
v 0.08484192 0.05794935 -0.00293379 1.04117648 0.42352941 0.56470588
v 0.08328105 0.05771808 -0.00694060 1.04117648 0.42352941 0.56470588
v 0.08211099 0.05780234 -0.00694060 1.04117648 0.42352941 0.56470588
f 1 2 3
f 1 3 4
f 1 4 8
f 1 8 15
f 1 15 16
f 1 16 9
f 1 9 5
f 1 5 10
f 1 10 17
f 1 17 22
f 1 22 23
f 1 23 19
f 1 19 11
f 1 11 6
f 1 6 2
f 2 6 7
f 2 7 3
f 3 7 13
f 3 13 12
f 3 12 20
f 3 20 21
f 3 21 18
f 3 18 14
f 3 14 8
f 3 8 4
f 5 9 10
f 6 11 12
f 6 12 13
f 6 13 7
f 8 14 15
f 9 16 10
f 10 16 15
f 10 15 18
f 10 18 21
f 10 21 17
f 11 19 12
f 12 19 20
f 14 18 15
f 17 21 20
f 17 20 22
f 19 23 20
f 20 23 22