# https://github.com/mikedh/trimesh
v 0.08484315 0.05777475 -0.00694060 1.28823530 1.45882353 1.44117646
v 0.08734470 0.05785180 -0.00694060 1.28823530 1.45882353 1.44117646
v 0.08484315 0.05794989 -0.00293379 1.28823530 1.45882353 1.44117646
v 0.08484315 0.06864610 -0.00694060 1.28823530 1.45882353 1.44117646
v 0.08734470 0.05804448 -0.00293379 1.28823530 1.45882353 1.44117646
v 0.09140662 0.05854539 -0.00694060 1.28823530 1.45882353 1.44117646
v 0.08484315 0.06931341 -0.00293379 1.28823530 1.45882353 1.44117646
v 0.09698373 0.07544880 -0.00694060 1.28823530 1.45882353 1.44117646
v 0.09140662 0.05882562 -0.00293379 1.28823530 1.45882353 1.44117646
v 0.09528433 0.05985549 -0.00694060 1.28823530 1.45882353 1.44117646
v 0.09651195 0.07529467 -0.00293379 1.28823530 1.45882353 1.44117646
v 0.09698373 0.07563096 -0.00293575 1.28823530 1.45882353 1.44117646
v 0.09698373 0.07566599 -0.00395550 1.28823530 1.45882353 1.44117646
v 0.09698373 0.06097818 -0.00694060 1.28823530 1.45882353 1.44117646
v 0.09430511 0.05986425 -0.00293379 1.28823530 1.45882353 1.44117646
v 0.09513222 0.06016200 -0.00293379 1.28823530 1.45882353 1.44117646
v 0.09698373 0.06102548 -0.00293379 1.28823530 1.45882353 1.44117646
v 0.09698373 0.07545931 -0.00293379 1.28823530 1.45882353 1.44117646
f 1 2 3
f 1 3 7
f 1 7 4
f 1 4 8
f 1 8 14
f 1 14 10
f 1 10 6
f 1 6 2
f 2 5 3
f 2 6 5
f 3 5 9
f 3 9 15
f 3 15 16
f 3 16 17
f 3 17 18
f 3 18 11
f 3 11 7
f 4 7 8
f 5 6 9
f 6 10 9
f 7 11 12
f 7 12 13
f 7 13 8
f 8 13 12
f 8 12 18
f 8 18 17
f 8 17 14
f 9 10 15
f 10 16 15
f 10 14 17
f 10 17 16
f 11 18 12