# https://github.com/mikedh/trimesh
v 0.11984400 0.05890429 0.02567188 0.14117647 1.45882353 0.70000001
v 0.12268989 0.05890429 0.02502180 0.14117647 1.45882353 0.70000001
v 0.11578278 0.05890429 0.02567188 0.14117647 1.45882353 0.70000001
v 0.11984400 0.00001992 0.02567188 0.14117647 1.45882353 0.70000001
v 0.12380661 0.05890429 0.02234143 0.14117647 1.45882353 0.70000001
v 0.12268989 0.00001992 0.02502180 0.14117647 1.45882353 0.70000001
v 0.11245215 0.05890429 0.02502180 0.14117647 1.45882353 0.70000001
v 0.11578278 0.00001992 0.02567188 0.14117647 1.45882353 0.70000001
v 0.12410939 0.05890429 0.01828088 0.14117647 1.45882353 0.70000001
v 0.12380661 0.00001992 0.02234143 0.14117647 1.45882353 0.70000001
v 0.11070904 0.05890429 0.02234143 0.14117647 1.45882353 0.70000001
v 0.11158824 0.00001992 0.02369494 0.14117647 1.45882353 0.70000001
v 0.11245215 0.00001992 0.02502180 0.14117647 1.45882353 0.70000001
v 0.12410939 0.05890429 -0.00838608 0.14117647 1.45882353 0.70000001
v 0.12410939 0.02234583 0.01828088 0.14117647 1.45882353 0.70000001
v 0.12223434 0.00001992 -0.00838608 0.14117647 1.45882353 0.70000001
v 0.12410939 0.02234583 -0.00838608 0.14117647 1.45882353 0.70000001
v 0.11026597 0.05890429 0.01828088 0.14117647 1.45882353 0.70000001
v 0.11048960 0.00001992 0.02033116 0.14117647 1.45882353 0.70000001
v 0.11070904 0.00001992 0.02234143 0.14117647 1.45882353 0.70000001
v 0.10992014 0.05890429 -0.00838608 0.14117647 1.45882353 0.70000001
v 0.11026875 0.00001992 -0.00838608 0.14117647 1.45882353 0.70000001
v 0.11026597 0.00001992 0.01828088 0.14117647 1.45882353 0.70000001
v 0.10992014 0.00003144 -0.00838608 0.14117647 1.45882353 0.70000001
v 0.11006598 0.00001992 -0.00722927 0.14117647 1.45882353 0.70000001
f 1 2 5
f 1 5 9
f 1 9 14
f 1 14 21
f 1 21 18
f 1 18 11
f 1 11 7
f 1 7 3
f 1 3 8
f 1 8 4
f 1 4 6
f 1 6 2
f 2 6 10
f 2 10 5
f 3 7 13
f 3 13 8
f 4 8 13
f 4 13 12
f 4 12 20
f 4 20 19
f 4 19 23
f 4 23 25
f 4 25 22
f 4 22 16
f 4 16 10
f 4 10 6
f 5 10 15
f 5 15 9
f 7 11 12
f 7 12 13
f 9 15 17
f 9 17 14
f 10 16 17
f 10 17 15
f 11 18 19
f 11 19 20
f 11 20 12
f 14 17 16
f 14 16 22
f 14 22 24
f 14 24 21
f 18 21 24
f 18 24 23
f 18 23 19
f 22 25 24
f 23 24 25