# https://github.com/mikedh/trimesh
v -0.05503397 0.10358956 -0.01179052 0.54705882 0.65294118 1.33529412
v -0.06432036 0.10358956 -0.00851521 0.54705882 0.65294118 1.33529412
v -0.05488758 0.10355261 -0.01179052 0.54705882 0.65294118 1.33529412
v -0.08335463 0.10358956 -0.01179052 0.54705882 0.65294118 1.33529412
v -0.06369342 0.10289607 -0.00851521 0.54705882 0.65294118 1.33529412
v -0.08335463 0.10358956 -0.00851521 0.54705882 0.65294118 1.33529412
v -0.05141234 0.09890040 -0.01179052 0.54705882 0.65294118 1.33529412
v -0.08335463 0.09145687 -0.01179052 0.54705882 0.65294118 1.33529412
v -0.06299328 0.10194825 -0.00851521 0.54705882 0.65294118 1.33529412
v -0.08335463 0.09916561 -0.00851521 0.54705882 0.65294118 1.33529412
v -0.05097952 0.09527430 -0.01179052 0.54705882 0.65294118 1.33529412
v -0.05958806 0.09615474 -0.00851521 0.54705882 0.65294118 1.33529412
v -0.05931754 0.09557865 -0.00851521 0.54705882 0.65294118 1.33529412
v -0.05893566 0.09451777 -0.00851521 0.54705882 0.65294118 1.33529412
v -0.05805731 0.09140688 -0.00851521 0.54705882 0.65294118 1.33529412
v -0.05787590 0.09045687 -0.00851521 0.54705882 0.65294118 1.33529412
v -0.08252400 0.08810034 -0.01179052 0.54705882 0.65294118 1.33529412
v -0.08335463 0.09800475 -0.00851586 0.54705882 0.65294118 1.33529412
v -0.08328142 0.09800693 -0.00851521 0.54705882 0.65294118 1.33529412
v -0.05088087 0.09131122 -0.01179052 0.54705882 0.65294118 1.33529412
v -0.05751629 0.08734599 -0.00851521 0.54705882 0.65294118 1.33529412
v -0.05750037 0.08687206 -0.00851521 0.54705882 0.65294118 1.33529412
v -0.07849184 0.08138075 -0.01179052 0.54705882 0.65294118 1.33529412
v -0.07065981 0.08138075 -0.00851521 0.54705882 0.65294118 1.33529412
v -0.05084904 0.08727860 -0.01179052 0.54705882 0.65294118 1.33529412
v -0.05742399 0.08328293 -0.00851521 0.54705882 0.65294118 1.33529412
v -0.05087450 0.08138075 -0.01179052 0.54705882 0.65294118 1.33529412
v -0.05758311 0.08138075 -0.00851521 0.54705882 0.65294118 1.33529412
v -0.05084586 0.08328293 -0.01179052 0.54705882 0.65294118 1.33529412
f 1 2 3
f 1 3 7
f 1 7 11
f 1 11 20
f 1 20 25
f 1 25 29
f 1 29 27
f 1 27 23
f 1 23 17
f 1 17 8
f 1 8 4
f 1 4 6
f 1 6 2
f 2 5 3
f 2 6 10
f 2 10 19
f 2 19 24
f 2 24 28
f 2 28 26
f 2 26 22
f 2 22 21
f 2 21 16
f 2 16 15
f 2 15 14
f 2 14 13
f 2 13 12
f 2 12 9
f 2 9 5
f 3 5 7
f 4 8 18
f 4 18 10
f 4 10 6
f 5 9 7
f 7 9 12
f 7 12 13
f 7 13 14
f 7 14 15
f 7 15 16
f 7 16 11
f 8 17 18
f 10 18 19
f 11 16 21
f 11 21 22
f 11 22 20
f 17 23 18
f 18 23 24
f 18 24 19
f 20 22 26
f 20 26 25
f 23 27 28
f 23 28 24
f 25 26 29
f 26 28 27
f 26 27 29