# https://github.com/mikedh/trimesh
v 0.10359415 0.07515521 0.02567116 0.08235294 0.64705883 0.46470588
v 0.10575525 0.07731657 0.02550105 0.08235294 0.64705883 0.46470588
v 0.10575525 0.08137832 0.02553129 0.08235294 0.64705883 0.46470588
v 0.10359415 0.07921923 0.02553129 0.08235294 0.64705883 0.46470588
v 0.09630510 0.06786744 0.02557287 0.08235294 0.64705883 0.46470588
v 0.09630510 0.06703173 0.02556720 0.08235294 0.64705883 0.46470588
v 0.09953193 0.06703173 0.02546892 0.08235294 0.64705883 0.46470588
v 0.10359415 0.07109576 0.02539520 0.08235294 0.64705883 0.46470588
v 0.10575525 0.07324797 0.02517405 0.08235294 0.64705883 0.46470588
v 0.10575525 0.08409835 0.02543111 0.08235294 0.64705883 0.46470588
v 0.10359415 0.08409835 0.02535551 0.08235294 0.64705883 0.46470588
v 0.09630510 0.07154223 0.02496045 0.08235294 0.64705883 0.46470588
v 0.10124526 0.08409835 0.02470716 0.08235294 0.64705883 0.46470588
v 0.09630510 0.06351721 0.02517026 0.08235294 0.64705883 0.46470588
v 0.10331199 0.06738661 0.02477144 0.08235294 0.64705883 0.46470588
v 0.09953193 0.06411021 0.02482058 0.08235294 0.64705883 0.46470588
v 0.10177072 0.06481312 0.02453893 0.08235294 0.64705883 0.46470588
v 0.10575525 0.07109576 0.02491887 0.08235294 0.64705883 0.46470588
v 0.10575525 0.08409835 0.00636098 0.08235294 0.64705883 0.46470588
v 0.09630510 0.07190399 0.02480546 0.08235294 0.64705883 0.46470588
v 0.10077993 0.08409835 0.02234253 0.08235294 0.64705883 0.46470588
v 0.09630510 0.07279234 0.02366755 0.08235294 0.64705883 0.46470588
v 0.09630510 0.06300892 0.02505685 0.08235294 0.64705883 0.46470588
v 0.10575525 0.06888400 0.02445956 0.08235294 0.64705883 0.46470588
v 0.10575525 0.07020052 0.02475253 0.08235294 0.64705883 0.46470588
v 0.09630510 0.06108795 0.02298521 0.08235294 0.64705883 0.46470588
v 0.09701743 0.06128715 0.02234253 0.08235294 0.64705883 0.46470588
v 0.10575525 0.06702716 0.02231985 0.08235294 0.64705883 0.46470588
v 0.09930713 0.08409835 0.00636098 0.08235294 0.64705883 0.46470588
v 0.10575525 0.06640211 0.00636098 0.08235294 0.64705883 0.46470588
v 0.09630510 0.07313578 0.02234253 0.08235294 0.64705883 0.46470588
v 0.09630510 0.06092540 0.02234253 0.08235294 0.64705883 0.46470588
v 0.09630510 0.06077199 0.01988340 0.08235294 0.64705883 0.46470588
v 0.09716454 0.06110856 0.01828052 0.08235294 0.64705883 0.46470588
v 0.10575525 0.06640438 0.01828052 0.08235294 0.64705883 0.46470588
v 0.09630510 0.07483467 0.00636098 0.08235294 0.64705883 0.46470588
v 0.10575525 0.06640211 0.01615783 0.08235294 0.64705883 0.46470588
v 0.09716454 0.06110856 0.00636098 0.08235294 0.64705883 0.46470588
v 0.09630510 0.06071018 0.01828052 0.08235294 0.64705883 0.46470588
v 0.09703131 0.06104674 0.00636098 0.08235294 0.64705883 0.46470588
v 0.09630510 0.06071018 0.00636098 0.08235294 0.64705883 0.46470588
f 1 2 3
f 1 3 4
f 1 4 5
f 1 5 6
f 1 6 7
f 1 7 8
f 1 8 2
f 2 8 9
f 2 9 18
f 2 18 25
f 2 25 24
f 2 24 28
f 2 28 35
f 2 35 37
f 2 37 30
f 2 30 19
f 2 19 10
f 2 10 3
f 3 10 11
f 3 11 4
f 4 11 5
f 5 12 20
f 5 20 22
f 5 22 31
f 5 31 36
f 5 36 41
f 5 41 39
f 5 39 33
f 5 33 32
f 5 32 26
f 5 26 23
f 5 23 14
f 5 14 6
f 5 11 13
f 5 13 12
f 6 14 7
f 7 15 8
f 7 14 16
f 7 16 17
f 7 17 15
f 8 15 18
f 8 18 9
f 10 19 29
f 10 29 21
f 10 21 13
f 10 13 11
f 12 13 20
f 13 21 22
f 13 22 20
f 14 23 16
f 15 24 25
f 15 25 18
f 15 17 24
f 16 23 26
f 16 26 17
f 17 26 27
f 17 27 28
f 17 28 24
f 19 30 38
f 19 38 40
f 19 40 41
f 19 41 36
f 19 36 29
f 21 29 31
f 21 31 22
f 26 32 27
f 27 32 33
f 27 33 34
f 27 34 35
f 27 35 28
f 29 36 31
f 30 37 34
f 30 34 38
f 33 39 34
f 34 39 40
f 34 40 38
f 34 37 35
f 39 41 40