# https://github.com/mikedh/trimesh
v -0.09615285 -0.09246161 -0.00203002 0.84705882 0.27058824 0.21176470
v -0.09672169 -0.09246161 -0.00485650 0.84705882 0.27058824 0.21176470
v -0.09887415 -0.08516230 -0.00851490 0.84705882 0.27058824 0.21176470
v -0.09869146 -0.08516230 0.01015457 0.84705882 0.27058824 0.21176470
v -0.09646542 -0.09246161 0.01069916 0.84705882 0.27058824 0.21176470
v -0.09680568 -0.09246161 -0.00514718 0.84705882 0.27058824 0.21176470
v -0.09796331 -0.09246161 -0.00851490 0.84705882 0.27058824 0.21176470
v -0.10499816 -0.08516230 -0.00851490 0.84705882 0.27058824 0.21176470
v -0.09898584 -0.08516230 0.01203555 0.84705882 0.27058824 0.21176470
v -0.09684032 -0.09246161 0.01421723 0.84705882 0.27058824 0.21176470
v -0.10499816 -0.09246161 -0.00851490 0.84705882 0.27058824 0.21176470
v -0.10499816 -0.08516230 0.02539619 0.84705882 0.27058824 0.21176470
v -0.10071578 -0.08516230 0.02234252 0.84705882 0.27058824 0.21176470
v -0.10121795 -0.08516230 0.02472798 0.84705882 0.27058824 0.21176470
v -0.09878670 -0.09246161 0.02234252 0.84705882 0.27058824 0.21176470
v -0.10499816 -0.09246161 0.02538282 0.84705882 0.27058824 0.21176470
v -0.10499816 -0.08734459 0.02543626 0.84705882 0.27058824 0.21176470
v -0.10359378 -0.09140621 0.02561001 0.84705882 0.27058824 0.21176470
v -0.10424316 -0.08516230 0.02538616 0.84705882 0.27058824 0.21176470
v -0.10359378 -0.08516230 0.02537613 0.84705882 0.27058824 0.21176470
v -0.10029064 -0.09246161 0.02501197 0.84705882 0.27058824 0.21176470
v -0.10359378 -0.09246161 0.02561669 0.84705882 0.27058824 0.21176470
v -0.10499816 -0.09146765 0.02542625 0.84705882 0.27058824 0.21176470
f 1 2 3
f 1 3 4
f 1 4 5
f 1 5 10
f 1 10 15
f 1 15 21
f 1 21 22
f 1 22 16
f 1 16 11
f 1 11 7
f 1 7 6
f 1 6 2
f 2 6 3
f 3 6 7
f 3 7 11
f 3 11 8
f 3 8 12
f 3 12 19
f 3 19 20
f 3 20 14
f 3 14 13
f 3 13 9
f 3 9 4
f 4 9 10
f 4 10 5
f 8 11 16
f 8 16 23
f 8 23 17
f 8 17 12
f 9 13 10
f 10 13 14
f 10 14 15
f 12 17 18
f 12 18 19
f 14 20 21
f 14 21 15
f 16 22 23
f 17 22 18
f 17 23 22
f 18 22 21
f 18 21 20
f 18 20 19