# https://github.com/mikedh/trimesh
v 0.07281071 0.08312891 -0.01095945 0.76470588 0.33529412 0.14117647
v 0.06896079 0.08312891 -0.00694060 0.76470588 0.33529412 0.14117647
v 0.07182513 0.07596533 -0.00694060 0.76470588 0.33529412 0.14117647
v 0.07606224 0.07499202 -0.01095945 0.76470588 0.33529412 0.14117647
v 0.05358971 0.08312891 -0.01095945 0.76470588 0.33529412 0.14117647
v 0.05774102 0.08312891 -0.00694060 0.76470588 0.33529412 0.14117647
v 0.07214851 0.07499202 -0.00694060 0.76470588 0.33529412 0.14117647
v 0.05562465 0.07499202 -0.01095945 0.76470588 0.33529412 0.14117647
v 0.05359629 0.08203136 -0.01095945 0.76470588 0.33529412 0.14117647
v 0.05781361 0.08211180 -0.00694060 0.76470588 0.33529412 0.14117647
v 0.05922598 0.07499202 -0.00694060 0.76470588 0.33529412 0.14117647
v 0.05533866 0.07588170 -0.01095945 0.76470588 0.33529412 0.14117647
v 0.05446968 0.07884462 -0.01095945 0.76470588 0.33529412 0.14117647
v 0.05831741 0.07821937 -0.00694060 0.76470588 0.33529412 0.14117647
v 0.05814801 0.07921896 -0.00694060 0.76470588 0.33529412 0.14117647
v 0.05917758 0.07515690 -0.00694060 0.76470588 0.33529412 0.14117647
f 1 2 3
f 1 3 4
f 1 4 8
f 1 8 12
f 1 12 13
f 1 13 9
f 1 9 5
f 1 5 6
f 1 6 2
f 2 6 10
f 2 10 15
f 2 15 14
f 2 14 16
f 2 16 11
f 2 11 7
f 2 7 3
f 3 7 4
f 4 7 11
f 4 11 8
f 5 9 6
f 6 9 10
f 8 11 12
f 9 13 14
f 9 14 15
f 9 15 10
f 11 16 12
f 12 16 13
f 13 16 14