# https://github.com/mikedh/trimesh
v 0.08354908 0.05358670 -0.01095945 0.38823530 0.68235294 1.02352941
v 0.08734431 0.05382014 -0.01095945 0.38823530 0.68235294 1.02352941
v 0.08734431 0.05785073 -0.00694060 0.38823530 0.68235294 1.02352941
v 0.08354908 0.05772882 -0.00694060 0.38823530 0.68235294 1.02352941
v 0.08354908 0.07242983 -0.01095945 0.38823530 0.68235294 1.02352941
v 0.10575525 0.05507808 -0.01095945 0.38823530 0.68235294 1.02352941
v 0.09140688 0.05854582 -0.00694060 0.38823530 0.68235294 1.02352941
v 0.08354908 0.06859635 -0.00694060 0.38823530 0.68235294 1.02352941
v 0.09886038 0.08008118 -0.00694060 0.38823530 0.68235294 1.02352941
v 0.09414137 0.08008118 -0.01095945 0.38823530 0.68235294 1.02352941
v 0.10575525 0.06625167 -0.00694060 0.38823530 0.68235294 1.02352941
v 0.09952988 0.06242598 -0.00694060 0.38823530 0.68235294 1.02352941
v 0.09528471 0.05985564 -0.00694060 0.38823530 0.68235294 1.02352941
v 0.10575525 0.08008118 -0.01095945 0.38823530 0.68235294 1.02352941
v 0.10575525 0.08008118 -0.00694060 0.38823530 0.68235294 1.02352941
f 1 2 3
f 1 3 4
f 1 4 8
f 1 8 5
f 1 5 10
f 1 10 14
f 1 14 6
f 1 6 2
f 2 6 3
f 3 7 13
f 3 13 12
f 3 12 11
f 3 11 15
f 3 15 9
f 3 9 8
f 3 8 4
f 3 6 7
f 5 9 10
f 5 8 9
f 6 11 12
f 6 12 13
f 6 13 7
f 6 14 15
f 6 15 11
f 9 15 14
f 9 14 10