# https://github.com/mikedh/trimesh
v 0.07649662 -0.07264896 -0.00863002 0.11764706 0.60588235 0.34705883
v 0.07648166 -0.07264896 -0.00854382 0.11764706 0.60588235 0.34705883
v 0.06954081 -0.08736494 -0.00606996 0.11764706 0.60588235 0.34705883
v 0.06899840 -0.08736494 -0.00863002 0.11764706 0.60588235 0.34705883
v 0.05935677 -0.07264896 -0.00863002 0.11764706 0.60588235 0.34705883
v 0.07604586 -0.07264896 -0.00606996 0.11764706 0.60588235 0.34705883
v 0.05802882 -0.08736494 -0.00606996 0.11764706 0.60588235 0.34705883
v 0.05748642 -0.08736494 -0.00863002 0.11764706 0.60588235 0.34705883
v 0.05852820 -0.07515708 -0.00863002 0.11764706 0.60588235 0.34705883
v 0.05951015 -0.07515708 -0.00606996 0.11764706 0.60588235 0.34705883
v 0.05951574 -0.07514268 -0.00606996 0.11764706 0.60588235 0.34705883
v 0.06055192 -0.07264896 -0.00606996 0.11764706 0.60588235 0.34705883
v 0.05802508 -0.08734332 -0.00606996 0.11764706 0.60588235 0.34705883
v 0.05748454 -0.08734332 -0.00863002 0.11764706 0.60588235 0.34705883
v 0.05772208 -0.07921965 -0.00863002 0.11764706 0.60588235 0.34705883
v 0.05837109 -0.07921965 -0.00606996 0.11764706 0.60588235 0.34705883
v 0.05837671 -0.07919660 -0.00606996 0.11764706 0.60588235 0.34705883
v 0.05788107 -0.08328077 -0.00606996 0.11764706 0.60588235 0.34705883
v 0.05747332 -0.08704944 -0.00863002 0.11764706 0.60588235 0.34705883
v 0.05739103 -0.08328077 -0.00863002 0.11764706 0.60588235 0.34705883
f 1 2 3
f 1 3 4
f 1 4 8
f 1 8 14
f 1 14 19
f 1 19 20
f 1 20 15
f 1 15 9
f 1 9 5
f 1 5 12
f 1 12 6
f 1 6 2
f 2 6 3
f 3 6 12
f 3 12 11
f 3 11 10
f 3 10 17
f 3 17 16
f 3 16 18
f 3 18 13
f 3 13 7
f 3 7 8
f 3 8 4
f 5 9 10
f 5 10 11
f 5 11 12
f 7 13 8
f 8 13 14
f 9 15 16
f 9 16 17
f 9 17 10
f 13 18 19
f 13 19 14
f 15 20 18
f 15 18 16
f 18 20 19