# https://github.com/mikedh/trimesh
v 0.10944579 -0.10491732 -0.00606685 1.26470587 1.04705883 0.44117648
v 0.10595637 -0.10125443 -0.00606685 1.26470587 1.04705883 0.44117648
v 0.10944579 -0.08422030 -0.00606685 1.26470587 1.04705883 0.44117648
v 0.10944579 -0.10491732 0.01421752 1.26470587 1.04705883 0.44117648
v 0.10595637 -0.08422030 -0.00606685 1.26470587 1.04705883 0.44117648
v 0.10595637 -0.10125443 0.01421752 1.26470587 1.04705883 0.44117648
v 0.10944579 -0.08422030 0.02551516 1.26470587 1.04705883 0.44117648
v 0.10944579 -0.10490922 0.01732346 1.26470587 1.04705883 0.44117648
v 0.10595637 -0.08422030 0.02546566 1.26470587 1.04705883 0.44117648
v 0.10944579 -0.10490517 0.01827936 1.26470587 1.04705883 0.44117648
v 0.10595637 -0.10123214 0.01827936 1.26470587 1.04705883 0.44117648
v 0.10765719 -0.08422030 0.02551516 1.26470587 1.04705883 0.44117648
v 0.10595637 -0.08904611 0.02553063 1.26470587 1.04705883 0.44117648
v 0.10944579 -0.08555540 0.02549970 1.26470587 1.04705883 0.44117648
v 0.10595637 -0.08498409 0.02548113 1.26470587 1.04705883 0.44117648
v 0.10671848 -0.08422030 0.02550279 1.26470587 1.04705883 0.44117648
v 0.10944579 -0.10332898 0.02202255 1.26470587 1.04705883 0.44117648
v 0.10595637 -0.10051496 0.02252680 1.26470587 1.04705883 0.44117648
v 0.10595637 -0.09336135 0.02531100 1.26470587 1.04705883 0.44117648
v 0.10944579 -0.08734431 0.02547804 1.26470587 1.04705883 0.44117648
v 0.10944579 -0.09961544 0.02369307 1.26470587 1.04705883 0.44117648
v 0.10595637 -0.09851535 0.02482839 1.26470587 1.04705883 0.44117648
v 0.10595637 -0.09546832 0.02519962 1.26470587 1.04705883 0.44117648
v 0.10944579 -0.09159676 0.02504185 1.26470587 1.04705883 0.44117648
v 0.10650498 -0.09826008 0.02475725 1.26470587 1.04705883 0.44117648
v 0.10595637 -0.09687231 0.02503257 1.26470587 1.04705883 0.44117648
f 1 2 5
f 1 5 3
f 1 3 7
f 1 7 14
f 1 14 20
f 1 20 24
f 1 24 21
f 1 21 17
f 1 17 10
f 1 10 8
f 1 8 4
f 1 4 6
f 1 6 2
f 2 6 11
f 2 11 18
f 2 18 22
f 2 22 26
f 2 26 23
f 2 23 19
f 2 19 13
f 2 13 15
f 2 15 9
f 2 9 5
f 3 5 9
f 3 9 16
f 3 16 12
f 3 12 7
f 4 8 6
f 6 8 10
f 6 10 11
f 7 12 13
f 7 13 14
f 9 15 16
f 10 17 18
f 10 18 11
f 12 16 13
f 13 16 15
f 13 19 20
f 13 20 14
f 17 21 22
f 17 22 18
f 19 23 20
f 20 23 24
f 21 24 25
f 21 25 22
f 22 25 24
f 22 24 26
f 23 26 24