# https://github.com/mikedh/trimesh
v -0.12410939 0.10547610 -0.00851490 0.23529412 0.16470588 0.98235294
v -0.12410939 0.11984379 -0.00851490 0.23529412 0.16470588 0.98235294
v -0.10910363 0.10547610 -0.00851490 0.23529412 0.16470588 0.98235294
v -0.12410939 0.10547610 0.01827971 0.23529412 0.16470588 0.98235294
v -0.12299241 0.12299202 -0.00851490 0.23529412 0.16470588 0.98235294
v -0.12410939 0.11984379 0.01827971 0.23529412 0.16470588 0.98235294
v -0.10742817 0.10742961 -0.00851490 0.23529412 0.16470588 0.98235294
v -0.10627978 0.10947068 0.01827971 0.23529412 0.16470588 0.98235294
v -0.10989947 0.10547610 0.01827971 0.23529412 0.16470588 0.98235294
v -0.12380569 0.10547610 0.02234223 0.23529412 0.16470588 0.98235294
v -0.12111626 0.12365778 -0.00851490 0.23529412 0.16470588 0.98235294
v -0.12299241 0.12299202 0.01827971 0.23529412 0.16470588 0.98235294
v -0.12380569 0.11984379 0.02234223 0.23529412 0.16470588 0.98235294
v -0.12284058 0.12284063 0.02234223 0.23529412 0.16470588 0.98235294
v -0.10627978 0.10902015 -0.00851490 0.23529412 0.16470588 0.98235294
v -0.10627978 0.11032066 0.02261328 0.23529412 0.16470588 0.98235294
v -0.11032006 0.10547610 0.02260993 0.23529412 0.16470588 0.98235294
v -0.12269047 0.10547610 0.02502268 0.23529412 0.16470588 0.98235294
v -0.11984397 0.12410831 -0.00851490 0.23529412 0.16470588 0.98235294
v -0.11984397 0.12410831 0.01827971 0.23529412 0.16470588 0.98235294
v -0.12269047 0.11984379 0.02502268 0.23529412 0.16470588 0.98235294
v -0.12241822 0.12241747 0.02480517 0.23529412 0.16470588 0.98235294
v -0.11984397 0.12380736 0.02234223 0.23529412 0.16470588 0.98235294
v -0.10627978 0.12411014 -0.00851490 0.23529412 0.16470588 0.98235294
v -0.10627978 0.11091165 0.02329929 0.23529412 0.16470588 0.98235294
v -0.10627978 0.11240367 0.02502268 0.23529412 0.16470588 0.98235294
v -0.11135850 0.10547610 0.02381465 0.23529412 0.16470588 0.98235294
v -0.11984397 0.10547610 0.02567188 0.23529412 0.16470588 0.98235294
v -0.11578099 0.12411014 -0.00851490 0.23529412 0.16470588 0.98235294
v -0.11578099 0.12411014 0.01827971 0.23529412 0.16470588 0.98235294
v -0.11984397 0.11984379 0.02567188 0.23529412 0.16470588 0.98235294
v -0.11984397 0.12268925 0.02502268 0.23529412 0.16470588 0.98235294
v -0.10627978 0.12380736 0.02234223 0.23529412 0.16470588 0.98235294
v -0.10627978 0.12411014 0.01827971 0.23529412 0.16470588 0.98235294
v -0.11240391 0.10547610 0.02502268 0.23529412 0.16470588 0.98235294
v -0.10627978 0.11578173 0.02567188 0.23529412 0.16470588 0.98235294
v -0.11578099 0.10547610 0.02567188 0.23529412 0.16470588 0.98235294
v -0.10627978 0.11984379 0.02567188 0.23529412 0.16470588 0.98235294
v -0.10627978 0.12268925 0.02502268 0.23529412 0.16470588 0.98235294
f 1 2 5
f 1 5 11
f 1 11 19
f 1 19 29
f 1 29 24
f 1 24 15
f 1 15 7
f 1 7 3
f 1 3 9
f 1 9 17
f 1 17 27
f 1 27 35
f 1 35 37
f 1 37 28
f 1 28 18
f 1 18 10
f 1 10 4
f 1 4 6
f 1 6 2
f 2 6 12
f 2 12 5
f 3 7 8
f 3 8 9
f 4 10 13
f 4 13 6
f 5 12 11
f 6 13 14
f 6 14 12
f 7 15 8
f 8 16 17
f 8 17 9
f 8 15 24
f 8 24 34
f 8 34 33
f 8 33 39
f 8 39 38
f 8 38 36
f 8 36 26
f 8 26 25
f 8 25 16
f 10 18 21
f 10 21 13
f 11 12 20
f 11 20 19
f 12 14 20
f 13 21 22
f 13 22 14
f 14 22 23
f 14 23 20
f 16 25 17
f 17 25 26
f 17 26 27
f 18 28 31
f 18 31 21
f 19 20 30
f 19 30 29
f 20 23 30
f 21 31 22
f 22 31 32
f 22 32 23
f 23 32 39
f 23 39 33
f 23 33 34
f 23 34 30
f 24 29 30
f 24 30 34
f 26 35 27
f 26 36 35
f 28 37 36
f 28 36 38
f 28 38 31
f 31 38 39
f 31 39 32
f 35 36 37