# https://github.com/mikedh/trimesh
v 0.10575416 0.09455370 0.00635967 0.19411764 0.08235294 0.44705883
v 0.09468514 0.09455370 0.00635967 0.19411764 0.08235294 0.44705883
v 0.10575416 0.08463472 0.00635967 0.19411764 0.08235294 0.44705883
v 0.10575416 0.09455370 -0.00293295 0.19411764 0.08235294 0.44705883
v 0.09924162 0.08463472 0.00635967 0.19411764 0.08235294 0.44705883
v 0.09459777 0.09455370 0.00609275 0.19411764 0.08235294 0.44705883
v 0.10575416 0.08384996 -0.00293295 0.19411764 0.08235294 0.44705883
v 0.10575416 0.09366104 -0.00693930 0.19411764 0.08235294 0.44705883
v 0.09650031 0.09455370 -0.00293295 0.19411764 0.08235294 0.44705883
v 0.09921978 0.08463472 0.00628414 0.19411764 0.08235294 0.44705883
v 0.09994934 0.08384996 -0.00293295 0.19411764 0.08235294 0.44705883
v 0.09886264 0.08463472 0.00203040 0.19411764 0.08235294 0.44705883
v 0.09888012 0.08463472 0.00338192 0.19411764 0.08235294 0.44705883
v 0.09916626 0.08463472 0.00609275 0.19411764 0.08235294 0.44705883
v 0.09534590 0.09366104 -0.00693930 0.19411764 0.08235294 0.44705883
v 0.09930715 0.08384996 -0.00693930 0.19411764 0.08235294 0.44705883
v 0.10575416 0.08384996 -0.00693930 0.19411764 0.08235294 0.44705883
f 1 2 5
f 1 5 3
f 1 3 7
f 1 7 17
f 1 17 8
f 1 8 4
f 1 4 9
f 1 9 6
f 1 6 2
f 2 6 5
f 3 5 11
f 3 11 7
f 4 8 15
f 4 15 9
f 5 10 11
f 5 6 10
f 6 12 13
f 6 13 14
f 6 14 10
f 6 9 15
f 6 15 16
f 6 16 12
f 7 11 16
f 7 16 17
f 8 17 16
f 8 16 15
f 10 14 11
f 11 14 16
f 12 16 13
f 13 16 14