# https://github.com/mikedh/trimesh
v -0.05817934 0.09184879 -0.00851490 0.40588236 1.19411764 0.27647060
v -0.07346711 0.09184879 -0.00851490 0.40588236 1.19411764 0.27647060
v -0.05893598 0.09451894 -0.00851490 0.40588236 1.19411764 0.27647060
v -0.05898486 0.09184879 0.01827907 0.40588236 1.19411764 0.27647060
v -0.07927999 0.09640713 -0.00851490 0.40588236 1.19411764 0.27647060
v -0.07203674 0.09184879 0.00581863 0.40588236 1.19411764 0.27647060
v -0.05931641 0.09558033 -0.00851490 0.40588236 1.19411764 0.27647060
v -0.06025796 0.09500506 0.02234241 0.40588236 1.19411764 0.27647060
v -0.05925266 0.09184879 0.02234241 0.40588236 1.19411764 0.27647060
v -0.07988997 0.09693708 -0.00851490 0.40588236 1.19411764 0.27647060
v -0.06971158 0.09184879 0.02234241 0.40588236 1.19411764 0.27647060
v -0.05958633 0.09615561 -0.00851490 0.40588236 1.19411764 0.27647060
v -0.06098271 0.09693708 0.01827907 0.40588236 1.19411764 0.27647060
v -0.06016656 0.09515349 0.01827907 0.40588236 1.19411764 0.27647060
v -0.06122287 0.09693708 0.02234241 0.40588236 1.19411764 0.27647060
v -0.06054488 0.09438397 0.02472967 0.40588236 1.19411764 0.27647060
v -0.06022395 0.09184879 0.02493000 0.40588236 1.19411764 0.27647060
v -0.07734378 0.09693708 0.00607237 0.40588236 1.19411764 0.27647060
v -0.06322710 0.09693708 -0.00851490 0.40588236 1.19411764 0.27647060
v -0.06814307 0.09184879 0.02492665 0.40588236 1.19411764 0.27647060
v -0.06946717 0.09259989 0.02470296 0.40588236 1.19411764 0.27647060
v -0.07295702 0.09693708 0.02464955 0.40588236 1.19411764 0.27647060
v -0.07373492 0.09693708 0.02234241 0.40588236 1.19411764 0.27647060
v -0.06056400 0.09692811 -0.00851490 0.40588236 1.19411764 0.27647060
v -0.06057675 0.09693708 -0.00850488 0.40588236 1.19411764 0.27647060
v -0.06321222 0.09693708 0.02501013 0.40588236 1.19411764 0.27647060
v -0.06276801 0.09563014 0.02510696 0.40588236 1.19411764 0.27647060
v -0.06294867 0.09184879 0.02556104 0.40588236 1.19411764 0.27647060
v -0.06717177 0.09184879 0.02515370 0.40588236 1.19411764 0.27647060
v -0.07092942 0.09571581 0.02495337 0.40588236 1.19411764 0.27647060
v -0.07098255 0.09693708 0.02512699 0.40588236 1.19411764 0.27647060
v -0.06703362 0.09693708 0.02555101 0.40588236 1.19411764 0.27647060
v -0.06703362 0.09546927 0.02559443 0.40588236 1.19411764 0.27647060
f 1 2 5
f 1 5 10
f 1 10 19
f 1 19 24
f 1 24 12
f 1 12 7
f 1 7 3
f 1 3 4
f 1 4 9
f 1 9 17
f 1 17 28
f 1 28 29
f 1 29 20
f 1 20 11
f 1 11 6
f 1 6 2
f 2 6 5
f 3 7 8
f 3 8 4
f 4 8 9
f 5 6 10
f 6 11 10
f 7 12 13
f 7 13 14
f 7 14 8
f 8 14 13
f 8 13 15
f 8 15 16
f 8 16 9
f 9 16 17
f 10 18 23
f 10 23 22
f 10 22 31
f 10 31 32
f 10 32 26
f 10 26 15
f 10 15 13
f 10 13 25
f 10 25 19
f 10 11 18
f 11 20 21
f 11 21 22
f 11 22 23
f 11 23 18
f 12 24 13
f 13 24 25
f 15 26 16
f 16 26 27
f 16 27 28
f 16 28 17
f 19 25 24
f 20 29 30
f 20 30 22
f 20 22 21
f 22 30 31
f 26 32 27
f 27 32 28
f 28 32 33
f 28 33 29
f 29 33 31
f 29 31 30
f 31 33 32