# https://github.com/mikedh/trimesh
v 0.09567088 -0.07556325 0.00571516 0.22352942 1.30000001 0.24117647
v 0.09567088 -0.07556325 0.00596373 0.22352942 1.30000001 0.24117647
v 0.08734555 -0.07024817 0.00609423 0.22352942 1.30000001 0.24117647
v 0.08734555 -0.07015890 -0.00606685 0.22352942 1.30000001 0.24117647
v 0.09567088 -0.07472376 -0.00606685 0.22352942 1.30000001 0.24117647
v 0.09567088 -0.07253318 0.02234110 0.22352942 1.30000001 0.24117647
v 0.08734555 -0.06788934 0.02234110 0.22352942 1.30000001 0.24117647
v 0.08734555 -0.05802657 -0.00606685 0.22352942 1.30000001 0.24117647
v 0.09567088 -0.06038712 -0.00606685 0.22352942 1.30000001 0.24117647
v 0.09567088 -0.07090913 0.02494482 0.22352942 1.30000001 0.24117647
v 0.09258282 -0.06946877 0.02470248 0.22352942 1.30000001 0.24117647
v 0.08734555 -0.06623439 0.02502251 0.22352942 1.30000001 0.24117647
v 0.09140757 -0.05880255 -0.00606685 0.22352942 1.30000001 0.24117647
v 0.08734555 -0.05803344 0.01828015 0.22352942 1.30000001 0.24117647
v 0.09516640 -0.06014849 -0.00606685 0.22352942 1.30000001 0.24117647
v 0.09567088 -0.06038540 -0.00506016 0.22352942 1.30000001 0.24117647
v 0.09567088 -0.07018980 0.02507222 0.22352942 1.30000001 0.24117647
v 0.08734555 -0.06297084 0.02567188 0.22352942 1.30000001 0.24117647
v 0.09140757 -0.05882829 0.01828015 0.22352942 1.30000001 0.24117647
v 0.09515418 -0.06016565 0.01828015 0.22352942 1.30000001 0.24117647
v 0.08734555 -0.05845404 0.02234110 0.22352942 1.30000001 0.24117647
v 0.09140757 -0.05911156 0.02234110 0.22352942 1.30000001 0.24117647
v 0.09567088 -0.06040257 0.01828015 0.22352942 1.30000001 0.24117647
v 0.09567088 -0.06703096 0.02558799 0.22352942 1.30000001 0.24117647
v 0.09546878 -0.06703096 0.02559420 0.22352942 1.30000001 0.24117647
v 0.08734555 -0.05990471 0.02502251 0.22352942 1.30000001 0.24117647
v 0.09140757 -0.06297084 0.02561595 0.22352942 1.30000001 0.24117647
v 0.09500665 -0.06025664 0.02234110 0.22352942 1.30000001 0.24117647
v 0.09438481 -0.06054333 0.02473354 0.22352942 1.30000001 0.24117647
v 0.09140757 -0.06016737 0.02496657 0.22352942 1.30000001 0.24117647
v 0.09567088 -0.06058797 0.02234110 0.22352942 1.30000001 0.24117647
v 0.09567088 -0.06278199 0.02510640 0.22352942 1.30000001 0.24117647
f 1 2 3
f 1 3 4
f 1 4 5
f 1 5 9
f 1 9 16
f 1 16 23
f 1 23 31
f 1 31 32
f 1 32 24
f 1 24 17
f 1 17 10
f 1 10 6
f 1 6 2
f 2 6 7
f 2 7 3
f 3 7 12
f 3 12 18
f 3 18 26
f 3 26 21
f 3 21 14
f 3 14 8
f 3 8 4
f 4 8 13
f 4 13 15
f 4 15 9
f 4 9 5
f 6 10 11
f 6 11 7
f 7 11 12
f 8 14 13
f 9 15 16
f 10 17 18
f 10 18 12
f 10 12 11
f 13 14 19
f 13 19 20
f 13 20 15
f 14 21 22
f 14 22 19
f 15 20 23
f 15 23 16
f 17 24 25
f 17 25 18
f 18 25 27
f 18 27 26
f 19 22 28
f 19 28 20
f 20 28 23
f 21 29 22
f 21 26 30
f 21 30 29
f 22 29 28
f 23 28 31
f 24 32 27
f 24 27 25
f 26 27 30
f 27 32 29
f 27 29 30
f 28 29 31
f 29 32 31