# https://github.com/mikedh/trimesh
v -0.12410939 -0.11983314 -0.01828233 0.57058824 1.18235293 0.78823530
v -0.12380571 -0.11983314 -0.02234381 0.57058824 1.18235293 0.78823530
v -0.12283400 -0.12283433 -0.02234381 0.57058824 1.18235293 0.78823530
v -0.12299189 -0.12299227 -0.01828233 0.57058824 1.18235293 0.78823530
v -0.12410939 -0.11983314 -0.01106860 0.57058824 1.18235293 0.78823530
v -0.12410939 -0.02234925 -0.01828233 0.57058824 1.18235293 0.78823530
v -0.12268822 -0.11983314 -0.02502285 0.57058824 1.18235293 0.78823530
v -0.12240885 -0.12240906 -0.02480698 0.57058824 1.18235293 0.78823530
v -0.12380571 0.00001992 -0.02234381 0.57058824 1.18235293 0.78823530
v -0.11983377 -0.12380637 -0.02234381 0.57058824 1.18235293 0.78823530
v -0.11983377 -0.12409797 -0.01828233 0.57058824 1.18235293 0.78823530
v -0.12299189 -0.12299227 -0.01106860 0.57058824 1.18235293 0.78823530
v -0.12053828 -0.12385497 -0.01106860 0.57058824 1.18235293 0.78823530
v -0.12410939 -0.02234925 -0.01106860 0.57058824 1.18235293 0.78823530
v -0.11983377 -0.11983314 -0.02567188 0.57058824 1.18235293 0.78823530
v -0.12268822 0.00001992 -0.02502285 0.57058824 1.18235293 0.78823530
v -0.12127921 0.00001992 -0.02534451 0.57058824 1.18235293 0.78823530
v -0.11983377 -0.12268851 -0.02502285 0.57058824 1.18235293 0.78823530
v -0.12330769 0.00001992 -0.01828233 0.57058824 1.18235293 0.78823530
v -0.00001956 -0.12380637 -0.02234381 0.57058824 1.18235293 0.78823530
v -0.11577681 -0.12411014 -0.01828233 0.57058824 1.18235293 0.78823530
v -0.11983377 -0.12409797 -0.01106860 0.57058824 1.18235293 0.78823530
v -0.12226310 0.00001992 -0.01106860 0.57058824 1.18235293 0.78823530
v -0.00001956 -0.11983314 -0.02567188 0.57058824 1.18235293 0.78823530
v -0.11983377 0.00001992 -0.02567188 0.57058824 1.18235293 0.78823530
v -0.00001956 -0.12268851 -0.02502285 0.57058824 1.18235293 0.78823530
v -0.00001956 -0.12356337 -0.02033094 0.57058824 1.18235293 0.78823530
v -0.02234503 -0.12411014 -0.01106860 0.57058824 1.18235293 0.78823530
v -0.02234503 -0.12411014 -0.01828233 0.57058824 1.18235293 0.78823530
v -0.11577681 -0.12411014 -0.01106860 0.57058824 1.18235293 0.78823530
v -0.10547647 0.00001992 -0.01106860 0.57058824 1.18235293 0.78823530
v -0.00001956 0.00000777 -0.02567188 0.57058824 1.18235293 0.78823530
v -0.00003170 0.00001992 -0.02567188 0.57058824 1.18235293 0.78823530
v -0.00001956 -0.12330819 -0.01828233 0.57058824 1.18235293 0.78823530
v -0.00001956 -0.12226325 -0.01106860 0.57058824 1.18235293 0.78823530
v -0.00001956 0.00001992 -0.01182915 0.57058824 1.18235293 0.78823530
v -0.00001956 -0.10548333 -0.01106860 0.57058824 1.18235293 0.78823530
f 1 2 3
f 1 3 4
f 1 4 12
f 1 12 5
f 1 5 14
f 1 14 6
f 1 6 9
f 1 9 2
f 2 7 8
f 2 8 3
f 2 9 16
f 2 16 7
f 3 8 10
f 3 10 11
f 3 11 4
f 4 11 13
f 4 13 12
f 5 12 13
f 5 13 22
f 5 22 30
f 5 30 28
f 5 28 35
f 5 35 37
f 5 37 31
f 5 31 23
f 5 23 14
f 6 14 9
f 7 15 8
f 7 16 17
f 7 17 15
f 8 15 18
f 8 18 10
f 9 14 19
f 9 19 23
f 9 23 31
f 9 31 36
f 9 36 33
f 9 33 25
f 9 25 17
f 9 17 16
f 10 20 29
f 10 29 21
f 10 21 11
f 10 18 26
f 10 26 20
f 11 22 13
f 11 21 30
f 11 30 22
f 14 23 19
f 15 24 26
f 15 26 18
f 15 17 25
f 15 25 33
f 15 33 32
f 15 32 24
f 20 27 28
f 20 28 29
f 20 26 24
f 20 24 32
f 20 32 36
f 20 36 37
f 20 37 35
f 20 35 34
f 20 34 27
f 21 29 28
f 21 28 30
f 27 34 28
f 28 34 35
f 31 37 36
f 32 33 36