# https://github.com/mikedh/trimesh
v -0.12410939 -0.11984438 -0.00851490 0.81176471 0.63529411 0.96470587
v -0.12410939 -0.10968475 -0.00851490 0.81176471 0.63529411 0.96470587
v -0.12299189 -0.12299181 -0.00851490 0.81176471 0.63529411 0.96470587
v -0.12410939 -0.11984438 0.01827971 0.81176471 0.63529411 0.96470587
v -0.12410939 -0.10968475 0.01827971 0.81176471 0.63529411 0.96470587
v -0.06035179 -0.10968475 -0.00851490 0.81176471 0.63529411 0.96470587
v -0.12171650 -0.12344366 -0.00851490 0.81176471 0.63529411 0.96470587
v -0.12299189 -0.12299181 0.01827971 0.81176471 0.63529411 0.96470587
v -0.12380571 -0.11984438 0.02234223 0.81176471 0.63529411 0.96470587
v -0.12283400 -0.12284071 0.02234223 0.81176471 0.63529411 0.96470587
v -0.12380571 -0.10968475 0.02234223 0.81176471 0.63529411 0.96470587
v -0.00001956 -0.10977089 -0.00851490 0.81176471 0.63529411 0.96470587
v -0.06477317 -0.10968475 0.02051844 0.81176471 0.63529411 0.96470587
v -0.11983377 -0.12410873 -0.00851490 0.81176471 0.63529411 0.96470587
v -0.11983377 -0.12410873 0.01827971 0.81176471 0.63529411 0.96470587
v -0.12324698 -0.10968475 0.02368413 0.81176471 0.63529411 0.96470587
v -0.12240885 -0.12241851 0.02480517 0.81176471 0.63529411 0.96470587
v -0.12268822 -0.11984438 0.02502268 0.81176471 0.63529411 0.96470587
v -0.11983377 -0.12380655 0.02234223 0.81176471 0.63529411 0.96470587
v -0.00001956 -0.11026652 0.01827971 0.81176471 0.63529411 0.96470587
v -0.00001956 -0.12223353 -0.00851490 0.81176471 0.63529411 0.96470587
v -0.06712960 -0.10968475 0.02303159 0.81176471 0.63529411 0.96470587
v -0.11577681 -0.12411014 -0.00851490 0.81176471 0.63529411 0.96470587
v -0.11577681 -0.12411014 0.01827971 0.81176471 0.63529411 0.96470587
v -0.12268822 -0.10968475 0.02502268 0.81176471 0.63529411 0.96470587
v -0.11983377 -0.12268962 0.02502268 0.81176471 0.63529411 0.96470587
v -0.11983377 -0.11984438 0.02567188 0.81176471 0.63529411 0.96470587
v -0.11577681 -0.12380796 0.02234223 0.81176471 0.63529411 0.96470587
v -0.00001956 -0.11070990 0.02234223 0.81176471 0.63529411 0.96470587
v -0.07108941 -0.10968475 0.02410243 0.81176471 0.63529411 0.96470587
v -0.07529214 -0.10968475 0.02495910 0.81176471 0.63529411 0.96470587
v -0.00001956 -0.12380796 0.02234223 0.81176471 0.63529411 0.96470587
v -0.02234503 -0.12411014 -0.00851490 0.81176471 0.63529411 0.96470587
v -0.02234503 -0.12411014 0.01827971 0.81176471 0.63529411 0.96470587
v -0.11983377 -0.10968475 0.02567188 0.81176471 0.63529411 0.96470587
v -0.00001956 -0.12325444 0.02367075 0.81176471 0.63529411 0.96470587
v -0.00001956 -0.12268962 0.02502268 0.81176471 0.63529411 0.96470587
v -0.00001956 -0.11984438 0.02567188 0.81176471 0.63529411 0.96470587
v -0.00001956 -0.11245234 0.02502268 0.81176471 0.63529411 0.96470587
v -0.07717487 -0.10968475 0.02514651 0.81176471 0.63529411 0.96470587
v -0.07921548 -0.10968475 0.02534729 0.81176471 0.63529411 0.96470587
v -0.11577681 -0.10968475 0.02567188 0.81176471 0.63529411 0.96470587
v -0.00001956 -0.11578335 0.02567188 0.81176471 0.63529411 0.96470587
v -0.00001956 -0.11413268 0.02535063 0.81176471 0.63529411 0.96470587
v -0.08327245 -0.10968475 0.02552799 0.81176471 0.63529411 0.96470587
f 1 2 6
f 1 6 12
f 1 12 21
f 1 21 33
f 1 33 23
f 1 23 14
f 1 14 7
f 1 7 3
f 1 3 8
f 1 8 4
f 1 4 5
f 1 5 2
f 2 5 11
f 2 11 16
f 2 16 25
f 2 25 35
f 2 35 42
f 2 42 45
f 2 45 41
f 2 41 40
f 2 40 31
f 2 31 30
f 2 30 22
f 2 22 13
f 2 13 6
f 3 7 8
f 4 9 11
f 4 11 5
f 4 8 10
f 4 10 9
f 6 13 12
f 7 14 15
f 7 15 8
f 8 15 10
f 9 16 11
f 9 10 17
f 9 17 18
f 9 18 16
f 10 15 19
f 10 19 17
f 12 20 29
f 12 29 39
f 12 39 44
f 12 44 43
f 12 43 38
f 12 38 37
f 12 37 36
f 12 36 32
f 12 32 21
f 12 13 22
f 12 22 20
f 14 23 24
f 14 24 15
f 15 24 28
f 15 28 19
f 16 18 25
f 17 19 26
f 17 26 27
f 17 27 18
f 18 27 35
f 18 35 25
f 19 28 26
f 20 22 30
f 20 30 31
f 20 31 29
f 21 32 33
f 23 33 34
f 23 34 24
f 24 34 32
f 24 32 28
f 26 28 36
f 26 36 37
f 26 37 38
f 26 38 27
f 27 38 43
f 27 43 42
f 27 42 35
f 28 32 36
f 29 31 40
f 29 40 41
f 29 41 39
f 32 34 33
f 39 41 45
f 39 45 44
f 42 43 45
f 43 44 45