# https://github.com/mikedh/trimesh
v -0.09592935 -0.08333093 -0.01106718 0.14705883 0.02352940 1.39411764
v -0.09888126 -0.08333093 -0.00851514 0.14705883 0.02352940 1.39411764
v -0.09147135 -0.09426971 -0.01106718 0.14705883 0.02352940 1.39411764
v -0.10547029 -0.08333093 -0.01106718 0.14705883 0.02352940 1.39411764
v -0.09670503 -0.09426971 -0.00851514 0.14705883 0.02352940 1.39411764
v -0.10547029 -0.08333093 -0.00851514 0.14705883 0.02352940 1.39411764
v -0.10547029 -0.09426971 -0.01106718 0.14705883 0.02352940 1.39411764
v -0.10547029 -0.09426971 -0.00851514 0.14705883 0.02352940 1.39411764
f 1 2 3
f 1 3 7
f 1 7 4
f 1 4 6
f 1 6 2
f 2 5 3
f 2 6 8
f 2 8 5
f 3 5 8
f 3 8 7
f 4 7 8
f 4 8 6