# https://github.com/mikedh/trimesh
v -0.00001956 0.10992185 -0.00838608 0.44117648 0.17647059 0.47647059
v -0.00001956 0.11026773 0.01828088 0.44117648 0.17647059 0.47647059
v -0.00001956 0.12223483 -0.00838608 0.44117648 0.17647059 0.47647059
v 0.05891761 0.10992045 -0.00838608 0.44117648 0.17647059 0.47647059
v 0.05894648 0.10992045 -0.00836941 0.44117648 0.17647059 0.47647059
v 0.05894648 0.11026356 0.01828088 0.44117648 0.17647059 0.47647059
v -0.00001956 0.11048582 0.02029116 0.44117648 0.17647059 0.47647059
v -0.00001956 0.12380732 0.02234143 0.44117648 0.17647059 0.47647059
v 0.02234667 0.12411014 -0.00838608 0.44117648 0.17647059 0.47647059
v 0.05894648 0.10992045 -0.00838608 0.44117648 0.17647059 0.47647059
v 0.05894648 0.11070669 0.02233811 0.44117648 0.17647059 0.47647059
v -0.00001956 0.11070947 0.02234143 0.44117648 0.17647059 0.47647059
v 0.02234667 0.12411014 0.01828088 0.44117648 0.17647059 0.47647059
v -0.00001956 0.12269047 0.02502180 0.44117648 0.17647059 0.47647059
v 0.05894648 0.12380732 0.02234143 0.44117648 0.17647059 0.47647059
v 0.05894648 0.12411014 -0.00838608 0.44117648 0.17647059 0.47647059
v 0.05894648 0.11072613 0.02236810 0.44117648 0.17647059 0.47647059
v -0.00001956 0.11245140 0.02502180 0.44117648 0.17647059 0.47647059
v 0.05894648 0.12411014 0.01828088 0.44117648 0.17647059 0.47647059
v -0.00001956 0.11984419 0.02567188 0.44117648 0.17647059 0.47647059
v 0.05894648 0.12269047 0.02502180 0.44117648 0.17647059 0.47647059
v 0.05894648 0.11245140 0.02502180 0.44117648 0.17647059 0.47647059
v -0.00001956 0.11578247 0.02567188 0.44117648 0.17647059 0.47647059
v 0.05894648 0.11248474 0.02502848 0.44117648 0.17647059 0.47647059
v 0.05894648 0.11984419 0.02567188 0.44117648 0.17647059 0.47647059
v 0.05894648 0.11578247 0.02567188 0.44117648 0.17647059 0.47647059
f 1 2 7
f 1 7 12
f 1 12 18
f 1 18 23
f 1 23 20
f 1 20 14
f 1 14 8
f 1 8 3
f 1 3 9
f 1 9 16
f 1 16 10
f 1 10 4
f 1 4 5
f 1 5 6
f 1 6 2
f 2 6 7
f 3 8 9
f 4 10 5
f 5 10 16
f 5 16 19
f 5 19 15
f 5 15 21
f 5 21 25
f 5 25 26
f 5 26 24
f 5 24 22
f 5 22 17
f 5 17 11
f 5 11 6
f 6 11 12
f 6 12 7
f 8 13 9
f 8 14 21
f 8 21 15
f 8 15 19
f 8 19 13
f 9 13 19
f 9 19 16
f 11 17 12
f 12 17 18
f 14 20 25
f 14 25 21
f 17 22 18
f 18 22 24
f 18 24 23
f 20 23 26
f 20 26 25
f 23 24 26