# https://github.com/mikedh/trimesh
v 0.06954236 -0.08736494 -0.00606996 0.12352941 0.82352941 0.87647060
v 0.06900085 -0.08736494 -0.00863002 0.12352941 0.82352941 0.87647060
v 0.05802971 -0.08736494 -0.00606996 0.12352941 0.82352941 0.87647060
v 0.08328112 -0.10009667 -0.00606996 0.12352941 0.82352941 0.87647060
v 0.08420978 -0.10007390 -0.00607546 0.12352941 0.82352941 0.87647060
v 0.08420978 -0.09981207 -0.00689592 0.12352941 0.82352941 0.87647060
v 0.08420978 -0.09929657 -0.00863002 0.12352941 0.82352941 0.87647060
v 0.05748561 -0.08736494 -0.00863002 0.12352941 0.82352941 0.87647060
v 0.05786752 -0.09059299 -0.00863002 0.12352941 0.82352941 0.87647060
v 0.05880141 -0.09138335 -0.00606996 0.12352941 0.82352941 0.87647060
v 0.08420978 -0.10365810 -0.00606996 0.12352941 0.82352941 0.87647060
v 0.08420978 -0.10397847 -0.00863002 0.12352941 0.82352941 0.87647060
v 0.05802449 -0.09140773 -0.00863002 0.12352941 0.82352941 0.87647060
v 0.05880664 -0.09140773 -0.00606996 0.12352941 0.82352941 0.87647060
v 0.08420978 -0.10397847 -0.00606996 0.12352941 0.82352941 0.87647060
v 0.06493573 -0.10397847 -0.00863002 0.12352941 0.82352941 0.87647060
v 0.05894267 -0.09465531 -0.00863002 0.12352941 0.82352941 0.87647060
v 0.06014076 -0.09513667 -0.00606996 0.12352941 0.82352941 0.87647060
v 0.06645557 -0.10397847 -0.00606996 0.12352941 0.82352941 0.87647060
v 0.06588531 -0.10397847 -0.00670095 0.12352941 0.82352941 0.87647060
v 0.06429483 -0.10363045 -0.00863002 0.12352941 0.82352941 0.87647060
v 0.05927751 -0.09559039 -0.00863002 0.12352941 0.82352941 0.87647060
v 0.05951817 -0.09609940 -0.00863002 0.12352941 0.82352941 0.87647060
v 0.06110865 -0.09716621 -0.00606996 0.12352941 0.82352941 0.87647060
v 0.06455119 -0.10205626 -0.00606996 0.12352941 0.82352941 0.87647060
v 0.06628554 -0.10397847 -0.00607146 0.12352941 0.82352941 0.87647060
v 0.06366178 -0.10292793 -0.00863002 0.12352941 0.82352941 0.87647060
v 0.06301825 -0.10205626 -0.00863002 0.12352941 0.82352941 0.87647060
v 0.06268866 -0.09953075 -0.00606996 0.12352941 0.82352941 0.87647060
f 1 2 8
f 1 8 3
f 1 3 10
f 1 10 14
f 1 14 18
f 1 18 24
f 1 24 29
f 1 29 25
f 1 25 19
f 1 19 15
f 1 15 11
f 1 11 4
f 1 4 5
f 1 5 6
f 1 6 7
f 1 7 2
f 2 7 12
f 2 12 16
f 2 16 21
f 2 21 27
f 2 27 28
f 2 28 23
f 2 23 22
f 2 22 17
f 2 17 13
f 2 13 9
f 2 9 8
f 3 8 9
f 3 9 10
f 4 11 5
f 5 11 15
f 5 15 12
f 5 12 7
f 5 7 6
f 9 13 10
f 10 13 14
f 12 15 19
f 12 19 26
f 12 26 20
f 12 20 16
f 13 17 14
f 14 17 18
f 16 20 21
f 17 22 18
f 18 22 23
f 18 23 24
f 19 25 26
f 20 26 21
f 21 26 25
f 21 25 27
f 23 28 24
f 24 28 29
f 25 29 28
f 25 28 27