# https://github.com/mikedh/trimesh
v 0.08863671 -0.10627395 0.02551617 0.10000001 1.04117648 0.67647059
v 0.08863671 -0.10542129 0.02550688 0.10000001 1.04117648 0.67647059
v 0.07921945 -0.10359378 0.02553783 0.10000001 1.04117648 0.67647059
v 0.08466373 -0.10627395 0.02549142 0.10000001 1.04117648 0.67647059
v 0.08863671 -0.10627395 -0.00606685 0.10000001 1.04117648 0.67647059
v 0.08863671 -0.10359378 0.02548214 0.10000001 1.04117648 0.67647059
v 0.08863671 -0.10264683 0.02527483 0.10000001 1.04117648 0.67647059
v 0.07921393 -0.10093413 0.02488809 0.10000001 1.04117648 0.67647059
v 0.07921393 -0.10360035 0.02553473 0.10000001 1.04117648 0.67647059
v 0.07921393 -0.10627395 0.02541098 0.10000001 1.04117648 0.67647059
v 0.07921393 -0.10627395 -0.00606685 0.10000001 1.04117648 0.67647059
v 0.08863671 -0.09958379 -0.00606685 0.10000001 1.04117648 0.67647059
v 0.08863671 -0.10098577 0.02483241 0.10000001 1.04117648 0.67647059
v 0.08863671 -0.10058486 0.02400014 0.10000001 1.04117648 0.67647059
v 0.07921393 -0.10005522 0.02234178 0.10000001 1.04117648 0.67647059
v 0.07921393 -0.09885000 -0.00606685 0.10000001 1.04117648 0.67647059
v 0.07922499 -0.09878277 -0.00606685 0.10000001 1.04117648 0.67647059
v 0.08863671 -0.09889265 -0.00332253 0.10000001 1.04117648 0.67647059
v 0.08863671 -0.10018722 0.02234178 0.10000001 1.04117648 0.67647059
v 0.07921393 -0.09800390 0.01449552 0.10000001 1.04117648 0.67647059
v 0.07921393 -0.09878196 -0.00605759 0.10000001 1.04117648 0.67647059
v 0.07921393 -0.09798832 -0.00249026 0.10000001 1.04117648 0.67647059
v 0.07921393 -0.09789896 -0.00202926 0.10000001 1.04117648 0.67647059
v 0.08863671 -0.09865980 -0.00210970 0.10000001 1.04117648 0.67647059
v 0.08863671 -0.09969447 0.01827942 0.10000001 1.04117648 0.67647059
v 0.08863671 -0.09825233 0.00203310 0.10000001 1.04117648 0.67647059
f 1 2 3
f 1 3 4
f 1 4 10
f 1 10 11
f 1 11 5
f 1 5 12
f 1 12 18
f 1 18 24
f 1 24 26
f 1 26 25
f 1 25 19
f 1 19 14
f 1 14 13
f 1 13 7
f 1 7 6
f 1 6 2
f 2 6 3
f 3 6 7
f 3 7 8
f 3 8 9
f 3 9 10
f 3 10 4
f 5 11 16
f 5 16 17
f 5 17 12
f 7 13 8
f 8 13 14
f 8 14 15
f 8 15 20
f 8 20 23
f 8 23 22
f 8 22 21
f 8 21 16
f 8 16 11
f 8 11 10
f 8 10 9
f 12 17 18
f 14 19 20
f 14 20 15
f 16 21 17
f 17 21 22
f 17 22 18
f 18 22 23
f 18 23 24
f 19 25 20
f 20 25 26
f 20 26 23
f 23 26 24