# https://github.com/mikedh/trimesh
v -0.06034508 -0.10968435 -0.00851490 0.03529412 0.10000001 1.01764705
v -0.08168320 -0.10968435 -0.00851490 0.03529412 0.10000001 1.01764705
v -0.06599347 -0.10545649 -0.00851490 0.03529412 0.10000001 1.01764705
v -0.06640080 -0.10545649 0.01827855 0.03529412 0.10000001 1.01764705
v -0.06696063 -0.10545649 0.02232474 0.03529412 0.10000001 1.01764705
v -0.06477982 -0.10968435 0.02051829 0.03529412 0.10000001 1.01764705
v -0.08168320 -0.10545649 -0.00851490 0.03529412 0.10000001 1.01764705
v -0.08168320 -0.10968435 0.02545770 0.03529412 0.10000001 1.01764705
v -0.06869650 -0.10545649 0.02449780 0.03529412 0.10000001 1.01764705
v -0.06714237 -0.10968435 0.02303132 0.03529412 0.10000001 1.01764705
v -0.08168320 -0.10545649 0.02550435 0.03529412 0.10000001 1.01764705
v -0.07921830 -0.10968435 0.02534770 0.03529412 0.10000001 1.01764705
v -0.07701870 -0.10545649 0.02552102 0.03529412 0.10000001 1.01764705
v -0.08168320 -0.10605870 0.02553102 0.03529412 0.10000001 1.01764705
v -0.06985376 -0.10545649 0.02475444 0.03529412 0.10000001 1.01764705
v -0.07109248 -0.10968435 0.02410119 0.03529412 0.10000001 1.01764705
v -0.08107951 -0.10545649 0.02553435 0.03529412 0.10000001 1.01764705
v -0.07717954 -0.10968435 0.02514774 0.03529412 0.10000001 1.01764705
v -0.07295160 -0.10545649 0.02520440 0.03529412 0.10000001 1.01764705
v -0.07529743 -0.10968435 0.02496109 0.03529412 0.10000001 1.01764705
v -0.07109248 -0.10545649 0.02498442 0.03529412 0.10000001 1.01764705
f 1 2 7
f 1 7 3
f 1 3 4
f 1 4 5
f 1 5 6
f 1 6 10
f 1 10 16
f 1 16 20
f 1 20 18
f 1 18 12
f 1 12 8
f 1 8 2
f 2 8 14
f 2 14 11
f 2 11 7
f 3 7 11
f 3 11 17
f 3 17 13
f 3 13 19
f 3 19 21
f 3 21 15
f 3 15 9
f 3 9 5
f 3 5 4
f 5 9 6
f 6 9 10
f 8 12 13
f 8 13 14
f 9 15 16
f 9 16 10
f 11 14 17
f 12 18 19
f 12 19 13
f 13 17 14
f 15 20 16
f 15 21 20
f 18 20 19
f 19 20 21