# https://github.com/mikedh/trimesh
v 0.02500000 -0.02490900 -0.00903600
v 0.02500000 -0.02415820 -0.00950780
v 0.02500000 -0.02332120 -0.00980070
v 0.02500000 -0.02553600 -0.00840900
v 0.02500000 -0.02600780 -0.00765810
v 0.02500000 -0.02244000 -0.00990000
v 0.02500000 -0.02630070 -0.00682110
v 0.02500000 -0.02640000 -0.00594000
v 0.02500000 -0.01056000 -0.00990000
v 0.02500000 -0.00967880 -0.00980070
v 0.02500000 -0.00884180 -0.00950780
v 0.02500000 -0.00809100 -0.00903600
v 0.02500000 -0.00746390 -0.00840900
v 0.02500000 -0.00699210 -0.00765810
v 0.02500000 -0.00669930 -0.00682110
v 0.02500000 -0.00660000 -0.00594000
v 0.02500000 -0.02640000 0.00594000
v 0.02500000 -0.02630070 0.00682120
v 0.02500000 -0.02600780 0.00765820
v 0.02500000 -0.02553600 0.00840910
v 0.02500000 -0.02490900 0.00903610
v 0.02500000 -0.02415820 0.00950790
v 0.02500000 -0.02332120 0.00980080
v 0.02500000 -0.02244000 0.00990000
v 0.02500000 -0.00669930 0.00682120
v 0.02500000 -0.01056000 0.00990000
v 0.02500000 -0.00699210 0.00765820
v 0.02500000 -0.00746390 0.00840910
v 0.02500000 -0.00967880 0.00980080
v 0.02500000 -0.00884180 0.00950790
v 0.02500000 -0.00809100 0.00903610
v 0.02500000 -0.00660000 0.00594000
v 0.02500000 0.01271150 -0.00914640
v 0.02500000 0.01099990 -0.00823150
v 0.02500000 0.00949970 -0.00700030
v 0.02500000 0.00826850 -0.00550010
v 0.02500000 0.00735360 -0.00378850
v 0.02500000 0.00679030 -0.00193130
v 0.02500000 0.01456860 -0.00970970
v 0.02500000 0.01650000 -0.00990000
v 0.02500000 0.01843140 -0.00970970
v 0.02500000 0.02028860 -0.00914640
v 0.02500000 0.02200020 -0.00823150
v 0.02500000 0.02350040 -0.00700030
v 0.02500000 0.02473160 -0.00550010
v 0.02500000 0.02564640 -0.00378850
v 0.02500000 0.02620980 -0.00193130
v 0.02500000 0.00660000 0.00000000
v 0.02500000 0.00679030 0.00193140
v 0.02500000 0.00735360 0.00378860
v 0.02500000 0.00826850 0.00550020
v 0.02500000 0.00949970 0.00700040
v 0.02500000 0.01099990 0.00823160
v 0.02500000 0.01271150 0.00914650
v 0.02500000 0.02640000 0.00000000
v 0.02500000 0.02620980 0.00193140
v 0.02500000 0.02564640 0.00378860
v 0.02500000 0.01456860 0.00970980
v 0.02500000 0.01650000 0.00990000
v 0.02500000 0.01843140 0.00970980
v 0.02500000 0.02473160 0.00550020
v 0.02500000 0.02350040 0.00700040
v 0.02500000 0.02200020 0.00823160
v 0.02500000 0.02028860 0.00914650
v 0.07500000 -0.02490900 -0.00903600
v 0.07500000 -0.02415820 -0.00950780
v 0.07500000 -0.02332120 -0.00980070
v 0.07500000 -0.02553600 -0.00840900
v 0.07500000 -0.02600780 -0.00765810
v 0.07500000 -0.02244000 -0.00990000
v 0.07500000 -0.02630070 -0.00682110
v 0.07500000 -0.02640000 -0.00594000
v 0.07500000 -0.01056000 -0.00990000
v 0.07500000 -0.00967880 -0.00980070
v 0.07500000 -0.00884180 -0.00950780
v 0.07500000 -0.00809100 -0.00903600
v 0.07500000 -0.00746390 -0.00840900
v 0.07500000 -0.00699210 -0.00765810
v 0.07500000 -0.00669930 -0.00682110
v 0.07500000 -0.00660000 -0.00594000
v 0.07500000 -0.02640000 0.00594000
v 0.07500000 -0.02630070 0.00682120
v 0.07500000 -0.02600780 0.00765820
v 0.07500000 -0.02553600 0.00840910
v 0.07500000 -0.02490900 0.00903610
v 0.07500000 -0.02415820 0.00950790
v 0.07500000 -0.02332120 0.00980080
v 0.07500000 -0.02244000 0.00990000
v 0.07500000 -0.00669930 0.00682120
v 0.07500000 -0.01056000 0.00990000
v 0.07500000 -0.00699210 0.00765820
v 0.07500000 -0.00746390 0.00840910
v 0.07500000 -0.00967880 0.00980080
v 0.07500000 -0.00884180 0.00950790
v 0.07500000 -0.00809100 0.00903610
v 0.07500000 -0.00660000 0.00594000
v 0.07500000 0.01271150 -0.00914640
v 0.07500000 0.01099990 -0.00823150
v 0.07500000 0.00949970 -0.00700030
v 0.07500000 0.00826850 -0.00550010
v 0.07500000 0.00735360 -0.00378850
v 0.07500000 0.00679030 -0.00193130
v 0.07500000 0.01456860 -0.00970970
v 0.07500000 0.01650000 -0.00990000
v 0.07500000 0.01843140 -0.00970970
v 0.07500000 0.02028860 -0.00914640
v 0.07500000 0.02200020 -0.00823150
v 0.07500000 0.02350040 -0.00700030
v 0.07500000 0.02473160 -0.00550010
v 0.07500000 0.02564640 -0.00378850
v 0.07500000 0.02620980 -0.00193130
v 0.07500000 0.00660000 -0.00000000
v 0.07500000 0.00679030 0.00193140
v 0.07500000 0.00735360 0.00378860
v 0.07500000 0.00826850 0.00550020
v 0.07500000 0.00949970 0.00700040
v 0.07500000 0.01099990 0.00823160
v 0.07500000 0.01271150 0.00914650
v 0.07500000 0.02640000 -0.00000000
v 0.07500000 0.02620980 0.00193140
v 0.07500000 0.02564640 0.00378860
v 0.07500000 0.01456860 0.00970980
v 0.07500000 0.01650000 0.00990000
v 0.07500000 0.01843140 0.00970980
v 0.07500000 0.02473160 0.00550020
v 0.07500000 0.02350040 0.00700040
v 0.07500000 0.02200020 0.00823160
v 0.07500000 0.02028860 0.00914650
f 66 2 3
f 65 1 2
f 68 4 1
f 69 5 4
f 67 3 6
f 71 7 5
f 72 8 7
f 70 6 9
f 73 9 10
f 74 10 11
f 75 11 12
f 76 12 13
f 77 13 14
f 78 14 15
f 79 15 16
f 80 16 32
f 81 17 8
f 82 18 17
f 83 19 18
f 84 20 19
f 85 21 20
f 86 22 21
f 87 23 22
f 88 24 23
f 90 26 24
f 96 32 25
f 89 25 27
f 93 29 26
f 91 27 28
f 92 28 31
f 95 31 30
f 94 30 29
f 98 34 33
f 100 36 35
f 99 35 34
f 101 37 36
f 102 38 37
f 112 48 38
f 97 33 39
f 103 39 40
f 104 40 41
f 105 41 42
f 106 42 43
f 107 43 44
f 108 44 45
f 109 45 46
f 110 46 47
f 111 47 55
f 113 49 48
f 114 50 49
f 115 51 50
f 116 52 51
f 117 53 52
f 118 54 53
f 119 55 56
f 120 56 57
f 121 57 61
f 122 58 54
f 123 59 58
f 124 60 59
f 128 64 60
f 126 62 63
f 125 61 62
f 127 63 64
f 65 68 1
f 65 2 66
f 66 3 67
f 68 69 4
f 67 6 70
f 69 71 5
f 71 72 7
f 70 9 73
f 72 81 8
f 73 10 74
f 74 11 75
f 75 12 76
f 76 13 77
f 77 14 78
f 78 15 79
f 79 16 80
f 66 67 70
f 65 66 70
f 65 70 68
f 69 70 71
f 70 72 71
f 68 70 69
f 70 81 72
f 70 80 88
f 70 73 80
f 74 75 77
f 75 76 77
f 73 74 80
f 74 77 80
f 77 78 80
f 78 79 80
f 81 82 17
f 82 83 18
f 83 84 19
f 84 85 20
f 85 86 21
f 86 87 22
f 87 88 23
f 88 90 24
f 80 32 96
f 89 96 25
f 89 27 91
f 90 93 26
f 91 28 92
f 93 94 29
f 94 95 30
f 92 31 95
f 70 88 81
f 82 85 83
f 81 88 82
f 83 85 84
f 82 88 85
f 85 87 86
f 85 88 87
f 80 90 88
f 80 96 90
f 90 96 93
f 89 93 96
f 89 91 92
f 89 92 93
f 92 94 93
f 92 95 94
f 97 98 33
f 98 99 34
f 99 100 35
f 100 101 36
f 101 102 37
f 102 112 38
f 97 39 103
f 103 40 104
f 104 41 105
f 105 42 106
f 106 43 107
f 107 44 108
f 108 45 109
f 109 46 110
f 110 47 111
f 111 55 119
f 97 104 99
f 97 99 98
f 99 102 100
f 100 102 101
f 99 115 102
f 97 103 104
f 99 104 105
f 99 105 106
f 106 107 108
f 99 106 123
f 108 109 119
f 109 110 119
f 106 108 123
f 110 111 119
f 108 119 120
f 108 120 121
f 112 113 48
f 113 114 49
f 114 115 50
f 115 116 51
f 116 117 52
f 117 118 53
f 119 56 120
f 120 57 121
f 121 61 125
f 118 122 54
f 122 123 58
f 123 124 59
f 124 128 60
f 125 62 126
f 126 63 127
f 127 64 128
f 102 115 112
f 99 116 115
f 112 115 113
f 113 115 114
f 99 117 116
f 99 123 117
f 108 121 126
f 108 126 127
f 108 127 128
f 108 128 123
f 117 123 118
f 118 123 122
f 123 128 124
f 121 125 126
f 4 32 1
f 1 32 2
f 2 32 3
f 6 3 32
f 4 5 32
f 5 7 32
f 7 8 32
f 11 15 12
f 12 14 13
f 12 15 14
f 11 16 15
f 9 6 32
f 10 9 32
f 10 32 11
f 16 11 32
f 18 8 17
f 8 18 19
f 19 20 8
f 21 8 20
f 22 8 21
f 23 8 22
f 8 23 24
f 8 25 32
f 8 24 26
f 8 27 25
f 8 28 27
f 8 26 29
f 8 29 30
f 8 30 31
f 8 31 28
f 36 64 35
f 37 64 36
f 41 56 42
f 42 55 43
f 43 47 44
f 44 46 45
f 34 64 33
f 33 63 39
f 39 62 40
f 35 64 34
f 40 61 41
f 44 47 46
f 43 55 47
f 57 41 61
f 42 56 55
f 56 41 57
f 38 64 37
f 38 48 64
f 49 64 48
f 50 64 49
f 64 50 51
f 60 51 52
f 53 58 52
f 53 54 58
f 63 33 64
f 61 40 62
f 62 39 63
f 64 51 60
f 52 58 59
f 60 52 59