# https://github.com/mikedh/trimesh
v 0.07500000 -0.02139690 -0.00196715
v -0.07500000 -0.02159660 -0.00001365
v -0.07500000 -0.02139690 -0.00196715
v 0.07500000 -0.02159660 -0.00001365
v 0.07500000 -0.02080150 -0.00388465
v -0.07500000 -0.02080150 -0.00388465
v 0.07500000 -0.01979590 -0.00576975
v -0.07500000 -0.01979590 -0.00576975
v 0.07500000 -0.01836990 -0.00758505
v -0.07500000 -0.01836990 -0.00758505
v -0.07500000 -0.01651430 -0.00929265
v 0.07500000 -0.01651430 -0.00929265
v -0.07500000 -0.01423140 -0.01084425
v 0.07500000 -0.01423140 -0.01084425
v 0.07500000 -0.01154270 -0.01218375
v -0.07500000 -0.01154270 -0.01218375
v -0.07500000 -0.00849440 -0.01325245
v 0.07500000 -0.00849440 -0.01325245
v 0.07500000 -0.00516000 -0.01399615
v -0.07500000 -0.00516000 -0.01399615
v 0.07500000 -0.00163780 -0.01437205
v -0.07500000 -0.00163780 -0.01437205
v -0.07500000 0.00195510 -0.01435475
v 0.07500000 0.00195510 -0.01435475
v -0.07500000 0.00514420 -0.01399985
v 0.07500000 0.00514420 -0.01399985
v 0.07500000 0.00819780 -0.01333715
v -0.07500000 0.00819780 -0.01333715
v 0.07500000 0.01103490 -0.01239405
v -0.07500000 0.01103490 -0.01239405
v -0.07500000 0.01358980 -0.01120835
v 0.07500000 0.01358980 -0.01120835
v 0.07500000 0.01581440 -0.00982455
v -0.07500000 0.01581440 -0.00982455
v 0.07500000 0.01768000 -0.00828935
v -0.07500000 0.01768000 -0.00828935
v 0.07500000 0.01917530 -0.00664685
v -0.07500000 0.01917530 -0.00664685
v 0.07500000 0.02030260 -0.00493535
v -0.07500000 0.02030260 -0.00493535
v 0.07500000 0.02107280 -0.00318565
v -0.07500000 0.02107280 -0.00318565
v 0.07500000 0.02150020 -0.00141985
v -0.07500000 0.02150020 -0.00141985
v 0.07500000 0.02159660 0.00034675
v -0.07500000 0.02159660 0.00034675
v -0.07500000 0.02132360 0.00229675
v 0.07500000 0.02132360 0.00229675
v 0.07500000 0.02103600 0.00326535
v -0.07500000 0.02103600 0.00326535
v -0.07500000 0.02064950 0.00421845
v 0.07500000 0.02064950 0.00421845
v -0.07500000 0.01956510 0.00609275
v 0.07500000 0.01956510 0.00609275
v 0.07500000 0.01805820 0.00789085
v -0.07500000 0.01805820 0.00789085
v 0.07500000 0.01612100 0.00957295
v -0.07500000 0.01612100 0.00957295
v 0.07500000 0.01375890 0.01108885
v -0.07500000 0.01375890 0.01108885
v 0.07500000 0.01099760 0.01238145
v -0.07500000 0.01099760 0.01238145
v 0.07500000 0.00788870 0.01339255
v -0.07500000 0.00788870 0.01339255
v -0.07500000 0.00451050 0.01406935
v 0.07500000 0.00451050 0.01406935
v 0.07500000 0.00274740 0.01426965
v -0.07500000 0.00274740 0.01426965
v 0.07500000 0.00096550 0.01437205
v -0.07500000 0.00096550 0.01437205
v 0.07500000 -0.00262660 0.01427925
v -0.07500000 -0.00262660 0.01427925
v 0.07500000 -0.00579450 0.01385785
v -0.07500000 -0.00579450 0.01385785
v 0.07500000 -0.00880880 0.01313345
v -0.07500000 -0.00880880 0.01313345
v -0.07500000 -0.01159140 0.01213585
v 0.07500000 -0.01159140 0.01213585
v 0.07500000 -0.01408000 0.01090455
v -0.07500000 -0.01408000 0.01090455
v 0.07500000 -0.01623090 0.00948505
v -0.07500000 -0.01623090 0.00948505
v 0.07500000 -0.01801890 0.00792375
v -0.07500000 -0.01801890 0.00792375
v -0.07500000 -0.01943620 0.00626375
v 0.07500000 -0.01943620 0.00626375
v -0.07500000 -0.02048720 0.00454205
v 0.07500000 -0.02048720 0.00454205
v 0.07500000 -0.02118410 0.00278725
v -0.07500000 -0.02118410 0.00278725
v 0.07500000 -0.02149320 0.00139355
v -0.07500000 -0.02149320 0.00139355
f 1 2 3
f 1 4 2
f 5 3 6
f 5 1 3
f 7 6 8
f 7 5 6
f 9 8 10
f 9 10 11
f 9 7 8
f 12 11 13
f 12 9 11
f 14 12 13
f 15 14 13
f 15 13 16
f 15 16 17
f 18 15 17
f 19 18 17
f 19 17 20
f 21 20 22
f 21 22 23
f 21 19 20
f 24 23 25
f 24 21 23
f 26 24 25
f 27 26 25
f 27 25 28
f 29 28 30
f 29 30 31
f 29 27 28
f 32 29 31
f 33 31 34
f 33 32 31
f 35 34 36
f 35 33 34
f 37 36 38
f 37 35 36
f 39 38 40
f 39 37 38
f 41 40 42
f 41 39 40
f 43 42 44
f 43 41 42
f 45 44 46
f 45 46 47
f 45 43 44
f 48 45 47
f 49 47 50
f 49 50 51
f 49 48 47
f 52 51 53
f 52 49 51
f 54 52 53
f 55 53 56
f 55 54 53
f 57 56 58
f 57 55 56
f 59 58 60
f 59 57 58
f 61 60 62
f 61 59 60
f 63 62 64
f 63 64 65
f 63 61 62
f 66 63 65
f 67 65 68
f 67 66 65
f 69 68 70
f 69 67 68
f 71 70 72
f 71 69 70
f 73 72 74
f 73 71 72
f 75 74 76
f 75 76 77
f 75 73 74
f 78 75 77
f 79 77 80
f 79 78 77
f 81 80 82
f 81 79 80
f 83 82 84
f 83 84 85
f 83 81 82
f 86 85 87
f 86 83 85
f 88 86 87
f 89 87 90
f 89 88 87
f 91 90 92
f 91 92 2
f 91 89 90
f 4 91 2
f 91 4 1
f 89 1 5
f 89 91 1
f 88 5 7
f 88 89 5
f 86 7 9
f 86 88 7
f 83 9 12
f 83 86 9
f 81 12 14
f 81 83 12
f 79 14 15
f 79 81 14
f 78 79 15
f 75 15 18
f 75 78 15
f 73 18 19
f 73 75 18
f 71 19 21
f 71 73 19
f 69 71 21
f 69 21 24
f 67 69 24
f 67 24 26
f 66 67 26
f 63 26 27
f 63 66 26
f 61 27 29
f 61 29 32
f 61 63 27
f 48 41 43
f 48 43 45
f 49 41 48
f 59 32 33
f 59 61 32
f 52 41 49
f 52 39 41
f 54 37 39
f 54 39 52
f 57 59 33
f 57 33 35
f 55 37 54
f 55 35 37
f 55 57 35
f 92 3 2
f 90 6 3
f 90 3 92
f 87 8 6
f 87 6 90
f 85 10 8
f 85 8 87
f 84 11 10
f 84 10 85
f 82 13 11
f 82 11 84
f 80 16 13
f 80 13 82
f 77 16 80
f 76 17 16
f 76 16 77
f 74 20 17
f 74 17 76
f 72 22 20
f 72 20 74
f 70 22 72
f 70 23 22
f 68 23 70
f 68 25 23
f 65 25 68
f 64 28 25
f 64 25 65
f 62 30 28
f 62 31 30
f 62 28 64
f 47 44 42
f 47 46 44
f 50 47 42
f 60 34 31
f 60 31 62
f 51 50 42
f 51 42 40
f 53 40 38
f 53 51 40
f 58 34 60
f 58 36 34
f 56 53 38
f 56 38 36
f 56 36 58