# https://github.com/mikedh/trimesh
v 0.00000574 0.02405455 -0.01019267 0.54117647 0.42352941 0.64313725
v 0.00000574 0.00856205 -0.01019067 0.54117647 0.42352941 0.64313725
v 0.00000574 0.02459731 -0.01013081 0.54117647 0.42352941 0.64313725
v 0.07499266 0.02405455 -0.01019267 0.54117647 0.42352941 0.64313725
v 0.07499266 0.00856205 -0.01019267 0.54117647 0.42352941 0.64313725
v 0.00000574 0.00801929 -0.01013081 0.54117647 0.42352941 0.64313725
v 0.00000574 0.02511413 -0.00994923 0.54117647 0.42352941 0.64313725
v 0.07499266 0.02459731 -0.01013081 0.54117647 0.42352941 0.64313725
v 0.07499266 0.00801929 -0.01013081 0.54117647 0.42352941 0.64313725
v 0.00000574 0.00750048 -0.00994923 0.54117647 0.42352941 0.64313725
v 0.00000574 0.02534759 -0.00980356 0.54117647 0.42352941 0.64313725
v 0.07499266 0.02511413 -0.00994923 0.54117647 0.42352941 0.64313725
v 0.07499266 0.00750048 -0.00994923 0.54117647 0.42352941 0.64313725
v 0.00000574 0.00703754 -0.00965789 0.54117647 0.42352941 0.64313725
v 0.00000574 0.02557906 -0.00965789 0.54117647 0.42352941 0.64313725
v 0.07499266 0.02557906 -0.00965789 0.54117647 0.42352941 0.64313725
v 0.07499266 0.00703754 -0.00965789 0.54117647 0.42352941 0.64313725
v 0.00000574 0.00665043 -0.00927078 0.54117647 0.42352941 0.64313725
v 0.00000574 0.02596617 -0.00927078 0.54117647 0.42352941 0.64313725
v 0.07499266 0.02596617 -0.00927078 0.54117647 0.42352941 0.64313725
v 0.07499266 0.00665043 -0.00927078 0.54117647 0.42352941 0.64313725
v 0.00000574 0.00635909 -0.00880584 0.54117647 0.42352941 0.64313725
v 0.00000574 0.02611184 -0.00903931 0.54117647 0.42352941 0.64313725
v 0.07499266 0.02625751 -0.00880584 0.54117647 0.42352941 0.64313725
v 0.07499266 0.00635909 -0.00880584 0.54117647 0.42352941 0.64313725
v 0.00000574 0.00617751 -0.00828903 0.54117647 0.42352941 0.64313725
v 0.00000574 0.02625751 -0.00880584 0.54117647 0.42352941 0.64313725
v 0.07499266 0.02643909 -0.00828903 0.54117647 0.42352941 0.64313725
v 0.07499266 0.00617751 -0.00828903 0.54117647 0.42352941 0.64313725
v 0.00000574 0.00611565 -0.00774627 0.54117647 0.42352941 0.64313725
v 0.00000574 0.02643909 -0.00828903 0.54117647 0.42352941 0.64313725
v 0.07499266 0.02650095 -0.00774627 0.54117647 0.42352941 0.64313725
v 0.07499266 0.00611565 -0.00774627 0.54117647 0.42352941 0.64313725
v 0.07499266 0.00611565 0.00774627 0.54117647 0.42352941 0.64313725
v 0.00000574 0.00611765 0.00774627 0.54117647 0.42352941 0.64313725
v 0.00000574 0.02650095 -0.00774627 0.54117647 0.42352941 0.64313725
v 0.07499266 0.02650095 0.00774627 0.54117647 0.42352941 0.64313725
v 0.07499266 0.00617751 0.00828903 0.54117647 0.42352941 0.64313725
v 0.00000574 0.00617751 0.00828903 0.54117647 0.42352941 0.64313725
v 0.00000574 0.02650095 0.00774627 0.54117647 0.42352941 0.64313725
v 0.07499266 0.02643909 0.00828903 0.54117647 0.42352941 0.64313725
v 0.07499266 0.00635909 0.00880584 0.54117647 0.42352941 0.64313725
v 0.00000574 0.00635909 0.00880584 0.54117647 0.42352941 0.64313725
v 0.00000574 0.02643909 0.00828903 0.54117647 0.42352941 0.64313725
v 0.07499266 0.02625751 0.00880584 0.54117647 0.42352941 0.64313725
v 0.07499266 0.00665043 0.00927078 0.54117647 0.42352941 0.64313725
v 0.00000574 0.00665043 0.00927078 0.54117647 0.42352941 0.64313725
v 0.00000574 0.02625751 0.00880584 0.54117647 0.42352941 0.64313725
v 0.07499266 0.02596617 0.00927078 0.54117647 0.42352941 0.64313725
v 0.00000574 0.02611184 0.00903931 0.54117647 0.42352941 0.64313725
v 0.07499266 0.00703754 0.00965789 0.54117647 0.42352941 0.64313725
v 0.00000574 0.00703754 0.00965789 0.54117647 0.42352941 0.64313725
v 0.07499266 0.02557906 0.00965789 0.54117647 0.42352941 0.64313725
v 0.00000574 0.02596617 0.00927078 0.54117647 0.42352941 0.64313725
v 0.07499266 0.00750048 0.00994923 0.54117647 0.42352941 0.64313725
v 0.00000574 0.00750048 0.00994923 0.54117647 0.42352941 0.64313725
v 0.07499266 0.02511413 0.00994923 0.54117647 0.42352941 0.64313725
v 0.00000574 0.02557906 0.00965789 0.54117647 0.42352941 0.64313725
v 0.00000574 0.02534759 0.00980356 0.54117647 0.42352941 0.64313725
v 0.07499266 0.00801929 0.01013081 0.54117647 0.42352941 0.64313725
v 0.00000574 0.00801929 0.01013081 0.54117647 0.42352941 0.64313725
v 0.07499266 0.02459731 0.01013081 0.54117647 0.42352941 0.64313725
v 0.00000574 0.02511413 0.00994923 0.54117647 0.42352941 0.64313725
v 0.07499266 0.00856205 0.01019267 0.54117647 0.42352941 0.64313725
v 0.00000574 0.00856205 0.01019067 0.54117647 0.42352941 0.64313725
v 0.07499266 0.02405455 0.01019267 0.54117647 0.42352941 0.64313725
v 0.00000574 0.02459731 0.01013081 0.54117647 0.42352941 0.64313725
v 0.00000574 0.02405455 0.01019267 0.54117647 0.42352941 0.64313725
f 1 2 6
f 1 6 10
f 1 10 14
f 1 14 18
f 1 18 22
f 1 22 26
f 1 26 30
f 1 30 35
f 1 35 39
f 1 39 43
f 1 43 47
f 1 47 52
f 1 52 56
f 1 56 61
f 1 61 65
f 1 65 68
f 1 68 67
f 1 67 63
f 1 63 59
f 1 59 58
f 1 58 54
f 1 54 50
f 1 50 48
f 1 48 44
f 1 44 40
f 1 40 36
f 1 36 31
f 1 31 27
f 1 27 23
f 1 23 19
f 1 19 15
f 1 15 11
f 1 11 7
f 1 7 3
f 1 3 8
f 1 8 4
f 1 4 5
f 1 5 2
f 2 5 6
f 3 7 12
f 3 12 8
f 4 8 12
f 4 12 16
f 4 16 20
f 4 20 24
f 4 24 28
f 4 28 32
f 4 32 37
f 4 37 41
f 4 41 45
f 4 45 49
f 4 49 53
f 4 53 57
f 4 57 62
f 4 62 66
f 4 66 64
f 4 64 60
f 4 60 55
f 4 55 51
f 4 51 46
f 4 46 42
f 4 42 38
f 4 38 34
f 4 34 33
f 4 33 29
f 4 29 25
f 4 25 21
f 4 21 17
f 4 17 13
f 4 13 9
f 4 9 5
f 5 9 6
f 6 9 13
f 6 13 10
f 7 11 12
f 10 13 17
f 10 17 14
f 11 15 16
f 11 16 12
f 14 17 21
f 14 21 18
f 15 19 20
f 15 20 16
f 18 21 25
f 18 25 22
f 19 23 20
f 20 23 24
f 22 25 29
f 22 29 26
f 23 27 24
f 24 27 31
f 24 31 28
f 26 29 33
f 26 33 30
f 28 31 36
f 28 36 32
f 30 33 34
f 30 34 35
f 32 36 40
f 32 40 37
f 34 38 39
f 34 39 35
f 37 40 44
f 37 44 41
f 38 42 43
f 38 43 39
f 41 44 48
f 41 48 45
f 42 46 47
f 42 47 43
f 45 48 50
f 45 50 49
f 46 51 52
f 46 52 47
f 49 50 54
f 49 54 58
f 49 58 53
f 51 55 56
f 51 56 52
f 53 58 59
f 53 59 57
f 55 60 61
f 55 61 56
f 57 59 63
f 57 63 67
f 57 67 62
f 60 64 61
f 61 64 65
f 62 67 68
f 62 68 66
f 64 66 68
f 64 68 65