# https://github.com/mikedh/trimesh
v 0.00000575 0.02650095 0.00774627 0.54509804 0.71372549 0.60000000
v 0.00000575 0.02650095 -0.00774627 0.54509804 0.71372549 0.60000000
v -0.07499266 0.02650095 0.00774627 0.54509804 0.71372549 0.60000000
v 0.00000575 0.02643869 0.00828903 0.54509804 0.71372549 0.60000000
v 0.00000575 0.02643869 -0.00828903 0.54509804 0.71372549 0.60000000
v -0.07499266 0.02650095 -0.00774627 0.54509804 0.71372549 0.60000000
v -0.07499266 0.02643869 0.00828903 0.54509804 0.71372549 0.60000000
v 0.00000575 0.02625711 0.00880584 0.54509804 0.71372549 0.60000000
v 0.00000575 0.02625711 -0.00880584 0.54509804 0.71372549 0.60000000
v -0.07499266 0.02643869 -0.00828903 0.54509804 0.71372549 0.60000000
v -0.07499266 0.02625711 0.00880584 0.54509804 0.71372549 0.60000000
v 0.00000575 0.02611184 0.00903931 0.54509804 0.71372549 0.60000000
v 0.00000575 0.02611184 -0.00903931 0.54509804 0.71372549 0.60000000
v -0.07499266 0.02625711 -0.00880584 0.54509804 0.71372549 0.60000000
v -0.07499266 0.02596657 0.00927078 0.54509804 0.71372549 0.60000000
v 0.00000575 0.02596657 0.00927078 0.54509804 0.71372549 0.60000000
v 0.00000575 0.02596657 -0.00927078 0.54509804 0.71372549 0.60000000
v -0.07499266 0.02596657 -0.00927078 0.54509804 0.71372549 0.60000000
v -0.07499266 0.02557746 0.00965789 0.54509804 0.71372549 0.60000000
v 0.00000575 0.02557746 0.00965789 0.54509804 0.71372549 0.60000000
v 0.00000575 0.02557746 -0.00965789 0.54509804 0.71372549 0.60000000
v -0.07499266 0.02557746 -0.00965789 0.54509804 0.71372549 0.60000000
v -0.07499266 0.02511572 0.00994923 0.54509804 0.71372549 0.60000000
v 0.00000575 0.02511572 0.00994923 0.54509804 0.71372549 0.60000000
v 0.00000575 0.02511572 -0.00994923 0.54509804 0.71372549 0.60000000
v -0.07499266 0.02511572 -0.00994923 0.54509804 0.71372549 0.60000000
v -0.07499266 0.02459691 0.01013081 0.54509804 0.71372549 0.60000000
v 0.00000575 0.02459691 0.01013081 0.54509804 0.71372549 0.60000000
v 0.00000575 0.02459691 -0.01013081 0.54509804 0.71372549 0.60000000
v -0.07499266 0.02459691 -0.01013081 0.54509804 0.71372549 0.60000000
v -0.07499266 0.02405215 0.01019267 0.54509804 0.71372549 0.60000000
v 0.00000575 0.02405215 0.01019267 0.54509804 0.71372549 0.60000000
v 0.00000575 0.02405215 -0.01019267 0.54509804 0.71372549 0.60000000
v -0.07499266 0.02405215 -0.01019267 0.54509804 0.71372549 0.60000000
v -0.07499266 -0.02405215 0.01019267 0.54509804 0.71372549 0.60000000
v 0.00000575 -0.02405215 0.01019267 0.54509804 0.71372549 0.60000000
v 0.00000575 -0.02405215 -0.01019267 0.54509804 0.71372549 0.60000000
v -0.07499266 -0.02405215 -0.01019267 0.54509804 0.71372549 0.60000000
v -0.07499266 -0.02459691 0.01013081 0.54509804 0.71372549 0.60000000
v 0.00000575 -0.02459691 0.01013081 0.54509804 0.71372549 0.60000000
v 0.00000575 -0.02459691 -0.01013081 0.54509804 0.71372549 0.60000000
v -0.07499266 -0.02459691 -0.01013081 0.54509804 0.71372549 0.60000000
v -0.07499266 -0.02511572 0.00994923 0.54509804 0.71372549 0.60000000
v 0.00000575 -0.02511572 0.00994923 0.54509804 0.71372549 0.60000000
v 0.00000575 -0.02511572 -0.00994923 0.54509804 0.71372549 0.60000000
v -0.07499266 -0.02511572 -0.00994923 0.54509804 0.71372549 0.60000000
v -0.07499266 -0.02557746 0.00965789 0.54509804 0.71372549 0.60000000
v 0.00000575 -0.02557746 0.00965789 0.54509804 0.71372549 0.60000000
v 0.00000575 -0.02557746 -0.00965789 0.54509804 0.71372549 0.60000000
v -0.07499266 -0.02557746 -0.00965789 0.54509804 0.71372549 0.60000000
v -0.07499266 -0.02596657 0.00927078 0.54509804 0.71372549 0.60000000
v 0.00000575 -0.02596657 0.00927078 0.54509804 0.71372549 0.60000000
v 0.00000575 -0.02596657 -0.00927078 0.54509804 0.71372549 0.60000000
v -0.07499266 -0.02596657 -0.00927078 0.54509804 0.71372549 0.60000000
v -0.07499266 -0.02625711 0.00880584 0.54509804 0.71372549 0.60000000
v 0.00000575 -0.02611184 0.00903931 0.54509804 0.71372549 0.60000000
v 0.00000575 -0.02611184 -0.00903931 0.54509804 0.71372549 0.60000000
v -0.07499266 -0.02625711 -0.00880584 0.54509804 0.71372549 0.60000000
v -0.07499266 -0.02643869 0.00828903 0.54509804 0.71372549 0.60000000
v 0.00000575 -0.02625711 0.00880584 0.54509804 0.71372549 0.60000000
v 0.00000575 -0.02625711 -0.00880584 0.54509804 0.71372549 0.60000000
v -0.07499266 -0.02643869 -0.00828903 0.54509804 0.71372549 0.60000000
v -0.07499266 -0.02650095 0.00774627 0.54509804 0.71372549 0.60000000
v 0.00000575 -0.02643869 0.00828903 0.54509804 0.71372549 0.60000000
v 0.00000575 -0.02643869 -0.00828903 0.54509804 0.71372549 0.60000000
v -0.07499266 -0.02650095 -0.00774627 0.54509804 0.71372549 0.60000000
v 0.00000575 -0.02650095 0.00774627 0.54509804 0.71372549 0.60000000
v 0.00000575 -0.02650095 -0.00774627 0.54509804 0.71372549 0.60000000
f 1 2 6
f 1 6 3
f 1 3 7
f 1 7 4
f 1 4 8
f 1 8 12
f 1 12 16
f 1 16 20
f 1 20 24
f 1 24 28
f 1 28 32
f 1 32 36
f 1 36 40
f 1 40 44
f 1 44 48
f 1 48 52
f 1 52 56
f 1 56 60
f 1 60 64
f 1 64 67
f 1 67 68
f 1 68 65
f 1 65 61
f 1 61 57
f 1 57 53
f 1 53 49
f 1 49 45
f 1 45 41
f 1 41 37
f 1 37 33
f 1 33 29
f 1 29 25
f 1 25 21
f 1 21 17
f 1 17 13
f 1 13 9
f 1 9 5
f 1 5 2
f 2 5 10
f 2 10 6
f 3 6 10
f 3 10 14
f 3 14 18
f 3 18 22
f 3 22 26
f 3 26 30
f 3 30 34
f 3 34 38
f 3 38 42
f 3 42 46
f 3 46 50
f 3 50 54
f 3 54 58
f 3 58 62
f 3 62 66
f 3 66 63
f 3 63 59
f 3 59 55
f 3 55 51
f 3 51 47
f 3 47 43
f 3 43 39
f 3 39 35
f 3 35 31
f 3 31 27
f 3 27 23
f 3 23 19
f 3 19 15
f 3 15 11
f 3 11 7
f 4 7 11
f 4 11 8
f 5 9 14
f 5 14 10
f 8 11 12
f 9 13 14
f 11 15 12
f 12 15 16
f 13 17 18
f 13 18 14
f 15 19 20
f 15 20 16
f 17 21 22
f 17 22 18
f 19 23 24
f 19 24 20
f 21 25 26
f 21 26 22
f 23 27 28
f 23 28 24
f 25 29 30
f 25 30 26
f 27 31 32
f 27 32 28
f 29 33 34
f 29 34 30
f 31 35 36
f 31 36 32
f 33 37 38
f 33 38 34
f 35 39 40
f 35 40 36
f 37 41 42
f 37 42 38
f 39 43 44
f 39 44 40
f 41 45 46
f 41 46 42
f 43 47 48
f 43 48 44
f 45 49 50
f 45 50 46
f 47 51 52
f 47 52 48
f 49 53 54
f 49 54 50
f 51 55 56
f 51 56 52
f 53 57 54
f 54 57 58
f 55 59 64
f 55 64 60
f 55 60 56
f 57 61 58
f 58 61 65
f 58 65 62
f 59 63 67
f 59 67 64
f 62 65 68
f 62 68 66
f 63 66 68
f 63 68 67