# https://github.com/mikedh/trimesh
v 0.07499266 -0.00611555 0.00774627 0.43529412 0.89019608 0.96078431
v 0.07499266 -0.00611555 -0.00774627 0.43529412 0.89019608 0.96078431
v 0.00000574 -0.00611555 0.00774627 0.43529412 0.89019608 0.96078431
v 0.07499266 -0.00617741 0.00828903 0.43529412 0.89019608 0.96078431
v 0.07499266 -0.00617741 -0.00828903 0.43529412 0.89019608 0.96078431
v 0.00000574 -0.00617741 -0.00828903 0.43529412 0.89019608 0.96078431
v 0.00000574 -0.00611755 -0.00774627 0.43529412 0.89019608 0.96078431
v 0.00000574 -0.00617741 0.00828903 0.43529412 0.89019608 0.96078431
v 0.07499266 -0.00635899 0.00880584 0.43529412 0.89019608 0.96078431
v 0.07499266 -0.00635899 -0.00880584 0.43529412 0.89019608 0.96078431
v 0.00000574 -0.00635899 -0.00880584 0.43529412 0.89019608 0.96078431
v 0.00000574 -0.00635899 0.00880584 0.43529412 0.89019608 0.96078431
v 0.07499266 -0.00665033 0.00927078 0.43529412 0.89019608 0.96078431
v 0.07499266 -0.00665033 -0.00927078 0.43529412 0.89019608 0.96078431
v 0.00000574 -0.00665033 -0.00927078 0.43529412 0.89019608 0.96078431
v 0.00000574 -0.00665033 0.00927078 0.43529412 0.89019608 0.96078431
v 0.07499266 -0.00703744 0.00965789 0.43529412 0.89019608 0.96078431
v 0.07499266 -0.00703744 -0.00965789 0.43529412 0.89019608 0.96078431
v 0.00000574 -0.00703744 -0.00965789 0.43529412 0.89019608 0.96078431
v 0.00000574 -0.00703744 0.00965789 0.43529412 0.89019608 0.96078431
v 0.07499266 -0.00750238 0.00994923 0.43529412 0.89019608 0.96078431
v 0.07499266 -0.00750238 -0.00994923 0.43529412 0.89019608 0.96078431
v 0.00000574 -0.00750238 -0.00994923 0.43529412 0.89019608 0.96078431
v 0.00000574 -0.00750238 0.00994923 0.43529412 0.89019608 0.96078431
v 0.07499266 -0.00801920 0.01013081 0.43529412 0.89019608 0.96078431
v 0.07499266 -0.00801920 -0.01013081 0.43529412 0.89019608 0.96078431
v 0.00000574 -0.00801920 -0.01013081 0.43529412 0.89019608 0.96078431
v 0.00000574 -0.00801920 0.01013081 0.43529412 0.89019608 0.96078431
v 0.07499266 -0.00856196 0.01019267 0.43529412 0.89019608 0.96078431
v 0.07499266 -0.00856196 -0.01019267 0.43529412 0.89019608 0.96078431
v 0.00000574 -0.00856196 -0.01019067 0.43529412 0.89019608 0.96078431
v 0.00000574 -0.00856196 0.01019267 0.43529412 0.89019608 0.96078431
v 0.07499266 -0.02405454 0.01019267 0.43529412 0.89019608 0.96078431
v 0.07499266 -0.02405454 -0.01019267 0.43529412 0.89019608 0.96078431
v 0.00000574 -0.02405454 -0.01019267 0.43529412 0.89019608 0.96078431
v 0.00000574 -0.02405454 0.01019267 0.43529412 0.89019608 0.96078431
v 0.07499266 -0.02459730 0.01013081 0.43529412 0.89019608 0.96078431
v 0.07499266 -0.02459730 -0.01013081 0.43529412 0.89019608 0.96078431
v 0.00000574 -0.02459730 -0.01013081 0.43529412 0.89019608 0.96078431
v 0.00000574 -0.02459730 0.01013081 0.43529412 0.89019608 0.96078431
v 0.07499266 -0.02511412 0.00994923 0.43529412 0.89019608 0.96078431
v 0.07499266 -0.02511412 -0.00994923 0.43529412 0.89019608 0.96078431
v 0.00000574 -0.02511412 -0.00994923 0.43529412 0.89019608 0.96078431
v 0.00000574 -0.02511412 0.00994923 0.43529412 0.89019608 0.96078431
v 0.07499266 -0.02557906 0.00965789 0.43529412 0.89019608 0.96078431
v 0.00000574 -0.02534759 0.00980356 0.43529412 0.89019608 0.96078431
v 0.07499266 -0.02557906 -0.00965789 0.43529412 0.89019608 0.96078431
v 0.00000574 -0.02534759 -0.00980356 0.43529412 0.89019608 0.96078431
v 0.07499266 -0.02596617 0.00927078 0.43529412 0.89019608 0.96078431
v 0.00000574 -0.02557906 0.00965789 0.43529412 0.89019608 0.96078431
v 0.07499266 -0.02596617 -0.00927078 0.43529412 0.89019608 0.96078431
v 0.00000574 -0.02557906 -0.00965789 0.43529412 0.89019608 0.96078431
v 0.07499266 -0.02625751 0.00880584 0.43529412 0.89019608 0.96078431
v 0.00000574 -0.02596617 0.00927078 0.43529412 0.89019608 0.96078431
v 0.00000574 -0.02611184 0.00903931 0.43529412 0.89019608 0.96078431
v 0.07499266 -0.02625751 -0.00880584 0.43529412 0.89019608 0.96078431
v 0.00000574 -0.02611184 -0.00903931 0.43529412 0.89019608 0.96078431
v 0.00000574 -0.02596617 -0.00927078 0.43529412 0.89019608 0.96078431
v 0.07499266 -0.02643909 0.00828903 0.43529412 0.89019608 0.96078431
v 0.00000574 -0.02625751 0.00880584 0.43529412 0.89019608 0.96078431
v 0.07499266 -0.02643909 -0.00828903 0.43529412 0.89019608 0.96078431
v 0.00000574 -0.02625751 -0.00880584 0.43529412 0.89019608 0.96078431
v 0.07499266 -0.02650095 0.00774627 0.43529412 0.89019608 0.96078431
v 0.00000574 -0.02643909 0.00828903 0.43529412 0.89019608 0.96078431
v 0.07499266 -0.02650095 -0.00774627 0.43529412 0.89019608 0.96078431
v 0.00000574 -0.02643909 -0.00828903 0.43529412 0.89019608 0.96078431
v 0.00000574 -0.02650095 0.00774627 0.43529412 0.89019608 0.96078431
v 0.00000574 -0.02650095 -0.00774627 0.43529412 0.89019608 0.96078431
f 1 2 3
f 1 3 8
f 1 8 4
f 1 4 9
f 1 9 13
f 1 13 17
f 1 17 21
f 1 21 25
f 1 25 29
f 1 29 33
f 1 33 37
f 1 37 41
f 1 41 45
f 1 45 49
f 1 49 53
f 1 53 59
f 1 59 63
f 1 63 65
f 1 65 61
f 1 61 56
f 1 56 51
f 1 51 47
f 1 47 42
f 1 42 38
f 1 38 34
f 1 34 30
f 1 30 26
f 1 26 22
f 1 22 18
f 1 18 14
f 1 14 10
f 1 10 5
f 1 5 2
f 2 5 6
f 2 6 7
f 2 7 3
f 3 7 6
f 3 6 11
f 3 11 15
f 3 15 19
f 3 19 23
f 3 23 27
f 3 27 31
f 3 31 35
f 3 35 39
f 3 39 43
f 3 43 48
f 3 48 52
f 3 52 58
f 3 58 57
f 3 57 62
f 3 62 66
f 3 66 68
f 3 68 67
f 3 67 64
f 3 64 60
f 3 60 55
f 3 55 54
f 3 54 50
f 3 50 46
f 3 46 44
f 3 44 40
f 3 40 36
f 3 36 32
f 3 32 28
f 3 28 24
f 3 24 20
f 3 20 16
f 3 16 12
f 3 12 8
f 4 8 12
f 4 12 9
f 5 10 11
f 5 11 6
f 9 12 16
f 9 16 13
f 10 14 15
f 10 15 11
f 13 16 20
f 13 20 17
f 14 18 19
f 14 19 15
f 17 20 24
f 17 24 21
f 18 22 23
f 18 23 19
f 21 24 28
f 21 28 25
f 22 26 27
f 22 27 23
f 25 28 32
f 25 32 29
f 26 30 27
f 27 30 31
f 29 32 36
f 29 36 33
f 30 34 35
f 30 35 31
f 33 36 40
f 33 40 37
f 34 38 39
f 34 39 35
f 37 40 44
f 37 44 41
f 38 42 43
f 38 43 39
f 41 44 46
f 41 46 45
f 42 47 48
f 42 48 43
f 45 46 50
f 45 50 54
f 45 54 49
f 47 51 58
f 47 58 52
f 47 52 48
f 49 54 55
f 49 55 53
f 51 56 57
f 51 57 58
f 53 55 60
f 53 60 64
f 53 64 59
f 56 61 66
f 56 66 62
f 56 62 57
f 59 64 67
f 59 67 63
f 61 65 68
f 61 68 66
f 63 67 68
f 63 68 65