# https://github.com/mikedh/trimesh

o geometry_0
v 0.00000575 0.02650095 0.00774627 0.54509804 0.71372549 0.60000000
v 0.00000575 0.02650095 -0.00774627 0.54509804 0.71372549 0.60000000
v -0.07499266 0.02650095 0.00774627 0.54509804 0.71372549 0.60000000
v 0.00000575 0.02643869 0.00828903 0.54509804 0.71372549 0.60000000
v 0.00000575 0.02643869 -0.00828903 0.54509804 0.71372549 0.60000000
v -0.07499266 0.02650095 -0.00774627 0.54509804 0.71372549 0.60000000
v -0.07499266 0.02643869 0.00828903 0.54509804 0.71372549 0.60000000
v 0.00000575 0.02625711 0.00880584 0.54509804 0.71372549 0.60000000
v 0.00000575 0.02625711 -0.00880584 0.54509804 0.71372549 0.60000000
v -0.07499266 0.02643869 -0.00828903 0.54509804 0.71372549 0.60000000
v -0.07499266 0.02625711 0.00880584 0.54509804 0.71372549 0.60000000
v 0.00000575 0.02611184 0.00903931 0.54509804 0.71372549 0.60000000
v 0.00000575 0.02611184 -0.00903931 0.54509804 0.71372549 0.60000000
v -0.07499266 0.02625711 -0.00880584 0.54509804 0.71372549 0.60000000
v -0.07499266 0.02596657 0.00927078 0.54509804 0.71372549 0.60000000
v 0.00000575 0.02596657 0.00927078 0.54509804 0.71372549 0.60000000
v 0.00000575 0.02596657 -0.00927078 0.54509804 0.71372549 0.60000000
v -0.07499266 0.02596657 -0.00927078 0.54509804 0.71372549 0.60000000
v -0.07499266 0.02557746 0.00965789 0.54509804 0.71372549 0.60000000
v 0.00000575 0.02557746 0.00965789 0.54509804 0.71372549 0.60000000
v 0.00000575 0.02557746 -0.00965789 0.54509804 0.71372549 0.60000000
v -0.07499266 0.02557746 -0.00965789 0.54509804 0.71372549 0.60000000
v -0.07499266 0.02511572 0.00994923 0.54509804 0.71372549 0.60000000
v 0.00000575 0.02511572 0.00994923 0.54509804 0.71372549 0.60000000
v 0.00000575 0.02511572 -0.00994923 0.54509804 0.71372549 0.60000000
v -0.07499266 0.02511572 -0.00994923 0.54509804 0.71372549 0.60000000
v -0.07499266 0.02459691 0.01013081 0.54509804 0.71372549 0.60000000
v 0.00000575 0.02459691 0.01013081 0.54509804 0.71372549 0.60000000
v 0.00000575 0.02459691 -0.01013081 0.54509804 0.71372549 0.60000000
v -0.07499266 0.02459691 -0.01013081 0.54509804 0.71372549 0.60000000
v -0.07499266 0.02405215 0.01019267 0.54509804 0.71372549 0.60000000
v 0.00000575 0.02405215 0.01019267 0.54509804 0.71372549 0.60000000
v 0.00000575 0.02405215 -0.01019267 0.54509804 0.71372549 0.60000000
v -0.07499266 0.02405215 -0.01019267 0.54509804 0.71372549 0.60000000
v -0.07499266 -0.02405215 0.01019267 0.54509804 0.71372549 0.60000000
v 0.00000575 -0.02405215 0.01019267 0.54509804 0.71372549 0.60000000
v 0.00000575 -0.02405215 -0.01019267 0.54509804 0.71372549 0.60000000
v -0.07499266 -0.02405215 -0.01019267 0.54509804 0.71372549 0.60000000
v -0.07499266 -0.02459691 0.01013081 0.54509804 0.71372549 0.60000000
v 0.00000575 -0.02459691 0.01013081 0.54509804 0.71372549 0.60000000
v 0.00000575 -0.02459691 -0.01013081 0.54509804 0.71372549 0.60000000
v -0.07499266 -0.02459691 -0.01013081 0.54509804 0.71372549 0.60000000
v -0.07499266 -0.02511572 0.00994923 0.54509804 0.71372549 0.60000000
v 0.00000575 -0.02511572 0.00994923 0.54509804 0.71372549 0.60000000
v 0.00000575 -0.02511572 -0.00994923 0.54509804 0.71372549 0.60000000
v -0.07499266 -0.02511572 -0.00994923 0.54509804 0.71372549 0.60000000
v -0.07499266 -0.02557746 0.00965789 0.54509804 0.71372549 0.60000000
v 0.00000575 -0.02557746 0.00965789 0.54509804 0.71372549 0.60000000
v 0.00000575 -0.02557746 -0.00965789 0.54509804 0.71372549 0.60000000
v -0.07499266 -0.02557746 -0.00965789 0.54509804 0.71372549 0.60000000
v -0.07499266 -0.02596657 0.00927078 0.54509804 0.71372549 0.60000000
v 0.00000575 -0.02596657 0.00927078 0.54509804 0.71372549 0.60000000
v 0.00000575 -0.02596657 -0.00927078 0.54509804 0.71372549 0.60000000
v -0.07499266 -0.02596657 -0.00927078 0.54509804 0.71372549 0.60000000
v -0.07499266 -0.02625711 0.00880584 0.54509804 0.71372549 0.60000000
v 0.00000575 -0.02611184 0.00903931 0.54509804 0.71372549 0.60000000
v 0.00000575 -0.02611184 -0.00903931 0.54509804 0.71372549 0.60000000
v -0.07499266 -0.02625711 -0.00880584 0.54509804 0.71372549 0.60000000
v -0.07499266 -0.02643869 0.00828903 0.54509804 0.71372549 0.60000000
v 0.00000575 -0.02625711 0.00880584 0.54509804 0.71372549 0.60000000
v 0.00000575 -0.02625711 -0.00880584 0.54509804 0.71372549 0.60000000
v -0.07499266 -0.02643869 -0.00828903 0.54509804 0.71372549 0.60000000
v -0.07499266 -0.02650095 0.00774627 0.54509804 0.71372549 0.60000000
v 0.00000575 -0.02643869 0.00828903 0.54509804 0.71372549 0.60000000
v 0.00000575 -0.02643869 -0.00828903 0.54509804 0.71372549 0.60000000
v -0.07499266 -0.02650095 -0.00774627 0.54509804 0.71372549 0.60000000
v 0.00000575 -0.02650095 0.00774627 0.54509804 0.71372549 0.60000000
v 0.00000575 -0.02650095 -0.00774627 0.54509804 0.71372549 0.60000000
f 1 2 6
f 1 6 3
f 1 3 7
f 1 7 4
f 1 4 8
f 1 8 12
f 1 12 16
f 1 16 20
f 1 20 24
f 1 24 28
f 1 28 32
f 1 32 36
f 1 36 40
f 1 40 44
f 1 44 48
f 1 48 52
f 1 52 56
f 1 56 60
f 1 60 64
f 1 64 67
f 1 67 68
f 1 68 65
f 1 65 61
f 1 61 57
f 1 57 53
f 1 53 49
f 1 49 45
f 1 45 41
f 1 41 37
f 1 37 33
f 1 33 29
f 1 29 25
f 1 25 21
f 1 21 17
f 1 17 13
f 1 13 9
f 1 9 5
f 1 5 2
f 2 5 10
f 2 10 6
f 3 6 10
f 3 10 14
f 3 14 18
f 3 18 22
f 3 22 26
f 3 26 30
f 3 30 34
f 3 34 38
f 3 38 42
f 3 42 46
f 3 46 50
f 3 50 54
f 3 54 58
f 3 58 62
f 3 62 66
f 3 66 63
f 3 63 59
f 3 59 55
f 3 55 51
f 3 51 47
f 3 47 43
f 3 43 39
f 3 39 35
f 3 35 31
f 3 31 27
f 3 27 23
f 3 23 19
f 3 19 15
f 3 15 11
f 3 11 7
f 4 7 11
f 4 11 8
f 5 9 14
f 5 14 10
f 8 11 12
f 9 13 14
f 11 15 12
f 12 15 16
f 13 17 18
f 13 18 14
f 15 19 20
f 15 20 16
f 17 21 22
f 17 22 18
f 19 23 24
f 19 24 20
f 21 25 26
f 21 26 22
f 23 27 28
f 23 28 24
f 25 29 30
f 25 30 26
f 27 31 32
f 27 32 28
f 29 33 34
f 29 34 30
f 31 35 36
f 31 36 32
f 33 37 38
f 33 38 34
f 35 39 40
f 35 40 36
f 37 41 42
f 37 42 38
f 39 43 44
f 39 44 40
f 41 45 46
f 41 46 42
f 43 47 48
f 43 48 44
f 45 49 50
f 45 50 46
f 47 51 52
f 47 52 48
f 49 53 54
f 49 54 50
f 51 55 56
f 51 56 52
f 53 57 54
f 54 57 58
f 55 59 64
f 55 64 60
f 55 60 56
f 57 61 58
f 58 61 65
f 58 65 62
f 59 63 67
f 59 67 64
f 62 65 68
f 62 68 66
f 63 66 68
f 63 68 67

o geometry_1
v 0.00000574 0.02405455 -0.01019267 0.54117647 0.42352941 0.64313725
v 0.00000574 0.00856205 -0.01019067 0.54117647 0.42352941 0.64313725
v 0.00000574 0.02459731 -0.01013081 0.54117647 0.42352941 0.64313725
v 0.07499266 0.02405455 -0.01019267 0.54117647 0.42352941 0.64313725
v 0.07499266 0.00856205 -0.01019267 0.54117647 0.42352941 0.64313725
v 0.00000574 0.00801929 -0.01013081 0.54117647 0.42352941 0.64313725
v 0.00000574 0.02511413 -0.00994923 0.54117647 0.42352941 0.64313725
v 0.07499266 0.02459731 -0.01013081 0.54117647 0.42352941 0.64313725
v 0.07499266 0.00801929 -0.01013081 0.54117647 0.42352941 0.64313725
v 0.00000574 0.00750048 -0.00994923 0.54117647 0.42352941 0.64313725
v 0.00000574 0.02534759 -0.00980356 0.54117647 0.42352941 0.64313725
v 0.07499266 0.02511413 -0.00994923 0.54117647 0.42352941 0.64313725
v 0.07499266 0.00750048 -0.00994923 0.54117647 0.42352941 0.64313725
v 0.00000574 0.00703754 -0.00965789 0.54117647 0.42352941 0.64313725
v 0.00000574 0.02557906 -0.00965789 0.54117647 0.42352941 0.64313725
v 0.07499266 0.02557906 -0.00965789 0.54117647 0.42352941 0.64313725
v 0.07499266 0.00703754 -0.00965789 0.54117647 0.42352941 0.64313725
v 0.00000574 0.00665043 -0.00927078 0.54117647 0.42352941 0.64313725
v 0.00000574 0.02596617 -0.00927078 0.54117647 0.42352941 0.64313725
v 0.07499266 0.02596617 -0.00927078 0.54117647 0.42352941 0.64313725
v 0.07499266 0.00665043 -0.00927078 0.54117647 0.42352941 0.64313725
v 0.00000574 0.00635909 -0.00880584 0.54117647 0.42352941 0.64313725
v 0.00000574 0.02611184 -0.00903931 0.54117647 0.42352941 0.64313725
v 0.07499266 0.02625751 -0.00880584 0.54117647 0.42352941 0.64313725
v 0.07499266 0.00635909 -0.00880584 0.54117647 0.42352941 0.64313725
v 0.00000574 0.00617751 -0.00828903 0.54117647 0.42352941 0.64313725
v 0.00000574 0.02625751 -0.00880584 0.54117647 0.42352941 0.64313725
v 0.07499266 0.02643909 -0.00828903 0.54117647 0.42352941 0.64313725
v 0.07499266 0.00617751 -0.00828903 0.54117647 0.42352941 0.64313725
v 0.00000574 0.00611565 -0.00774627 0.54117647 0.42352941 0.64313725
v 0.00000574 0.02643909 -0.00828903 0.54117647 0.42352941 0.64313725
v 0.07499266 0.02650095 -0.00774627 0.54117647 0.42352941 0.64313725
v 0.07499266 0.00611565 -0.00774627 0.54117647 0.42352941 0.64313725
v 0.07499266 0.00611565 0.00774627 0.54117647 0.42352941 0.64313725
v 0.00000574 0.00611765 0.00774627 0.54117647 0.42352941 0.64313725
v 0.00000574 0.02650095 -0.00774627 0.54117647 0.42352941 0.64313725
v 0.07499266 0.02650095 0.00774627 0.54117647 0.42352941 0.64313725
v 0.07499266 0.00617751 0.00828903 0.54117647 0.42352941 0.64313725
v 0.00000574 0.00617751 0.00828903 0.54117647 0.42352941 0.64313725
v 0.00000574 0.02650095 0.00774627 0.54117647 0.42352941 0.64313725
v 0.07499266 0.02643909 0.00828903 0.54117647 0.42352941 0.64313725
v 0.07499266 0.00635909 0.00880584 0.54117647 0.42352941 0.64313725
v 0.00000574 0.00635909 0.00880584 0.54117647 0.42352941 0.64313725
v 0.00000574 0.02643909 0.00828903 0.54117647 0.42352941 0.64313725
v 0.07499266 0.02625751 0.00880584 0.54117647 0.42352941 0.64313725
v 0.07499266 0.00665043 0.00927078 0.54117647 0.42352941 0.64313725
v 0.00000574 0.00665043 0.00927078 0.54117647 0.42352941 0.64313725
v 0.00000574 0.02625751 0.00880584 0.54117647 0.42352941 0.64313725
v 0.07499266 0.02596617 0.00927078 0.54117647 0.42352941 0.64313725
v 0.00000574 0.02611184 0.00903931 0.54117647 0.42352941 0.64313725
v 0.07499266 0.00703754 0.00965789 0.54117647 0.42352941 0.64313725
v 0.00000574 0.00703754 0.00965789 0.54117647 0.42352941 0.64313725
v 0.07499266 0.02557906 0.00965789 0.54117647 0.42352941 0.64313725
v 0.00000574 0.02596617 0.00927078 0.54117647 0.42352941 0.64313725
v 0.07499266 0.00750048 0.00994923 0.54117647 0.42352941 0.64313725
v 0.00000574 0.00750048 0.00994923 0.54117647 0.42352941 0.64313725
v 0.07499266 0.02511413 0.00994923 0.54117647 0.42352941 0.64313725
v 0.00000574 0.02557906 0.00965789 0.54117647 0.42352941 0.64313725
v 0.00000574 0.02534759 0.00980356 0.54117647 0.42352941 0.64313725
v 0.07499266 0.00801929 0.01013081 0.54117647 0.42352941 0.64313725
v 0.00000574 0.00801929 0.01013081 0.54117647 0.42352941 0.64313725
v 0.07499266 0.02459731 0.01013081 0.54117647 0.42352941 0.64313725
v 0.00000574 0.02511413 0.00994923 0.54117647 0.42352941 0.64313725
v 0.07499266 0.00856205 0.01019267 0.54117647 0.42352941 0.64313725
v 0.00000574 0.00856205 0.01019067 0.54117647 0.42352941 0.64313725
v 0.07499266 0.02405455 0.01019267 0.54117647 0.42352941 0.64313725
v 0.00000574 0.02459731 0.01013081 0.54117647 0.42352941 0.64313725
v 0.00000574 0.02405455 0.01019267 0.54117647 0.42352941 0.64313725
f 69 70 74
f 69 74 78
f 69 78 82
f 69 82 86
f 69 86 90
f 69 90 94
f 69 94 98
f 69 98 103
f 69 103 107
f 69 107 111
f 69 111 115
f 69 115 120
f 69 120 124
f 69 124 129
f 69 129 133
f 69 133 136
f 69 136 135
f 69 135 131
f 69 131 127
f 69 127 126
f 69 126 122
f 69 122 118
f 69 118 116
f 69 116 112
f 69 112 108
f 69 108 104
f 69 104 99
f 69 99 95
f 69 95 91
f 69 91 87
f 69 87 83
f 69 83 79
f 69 79 75
f 69 75 71
f 69 71 76
f 69 76 72
f 69 72 73
f 69 73 70
f 70 73 74
f 71 75 80
f 71 80 76
f 72 76 80
f 72 80 84
f 72 84 88
f 72 88 92
f 72 92 96
f 72 96 100
f 72 100 105
f 72 105 109
f 72 109 113
f 72 113 117
f 72 117 121
f 72 121 125
f 72 125 130
f 72 130 134
f 72 134 132
f 72 132 128
f 72 128 123
f 72 123 119
f 72 119 114
f 72 114 110
f 72 110 106
f 72 106 102
f 72 102 101
f 72 101 97
f 72 97 93
f 72 93 89
f 72 89 85
f 72 85 81
f 72 81 77
f 72 77 73
f 73 77 74
f 74 77 81
f 74 81 78
f 75 79 80
f 78 81 85
f 78 85 82
f 79 83 84
f 79 84 80
f 82 85 89
f 82 89 86
f 83 87 88
f 83 88 84
f 86 89 93
f 86 93 90
f 87 91 88
f 88 91 92
f 90 93 97
f 90 97 94
f 91 95 92
f 92 95 99
f 92 99 96
f 94 97 101
f 94 101 98
f 96 99 104
f 96 104 100
f 98 101 102
f 98 102 103
f 100 104 108
f 100 108 105
f 102 106 107
f 102 107 103
f 105 108 112
f 105 112 109
f 106 110 111
f 106 111 107
f 109 112 116
f 109 116 113
f 110 114 115
f 110 115 111
f 113 116 118
f 113 118 117
f 114 119 120
f 114 120 115
f 117 118 122
f 117 122 126
f 117 126 121
f 119 123 124
f 119 124 120
f 121 126 127
f 121 127 125
f 123 128 129
f 123 129 124
f 125 127 131
f 125 131 135
f 125 135 130
f 128 132 129
f 129 132 133
f 130 135 136
f 130 136 134
f 132 134 136
f 132 136 133

o geometry_2
v 0.07499266 -0.00611555 0.00774627 0.43529412 0.89019608 0.96078431
v 0.07499266 -0.00611555 -0.00774627 0.43529412 0.89019608 0.96078431
v 0.00000574 -0.00611555 0.00774627 0.43529412 0.89019608 0.96078431
v 0.07499266 -0.00617741 0.00828903 0.43529412 0.89019608 0.96078431
v 0.07499266 -0.00617741 -0.00828903 0.43529412 0.89019608 0.96078431
v 0.00000574 -0.00617741 -0.00828903 0.43529412 0.89019608 0.96078431
v 0.00000574 -0.00611755 -0.00774627 0.43529412 0.89019608 0.96078431
v 0.00000574 -0.00617741 0.00828903 0.43529412 0.89019608 0.96078431
v 0.07499266 -0.00635899 0.00880584 0.43529412 0.89019608 0.96078431
v 0.07499266 -0.00635899 -0.00880584 0.43529412 0.89019608 0.96078431
v 0.00000574 -0.00635899 -0.00880584 0.43529412 0.89019608 0.96078431
v 0.00000574 -0.00635899 0.00880584 0.43529412 0.89019608 0.96078431
v 0.07499266 -0.00665033 0.00927078 0.43529412 0.89019608 0.96078431
v 0.07499266 -0.00665033 -0.00927078 0.43529412 0.89019608 0.96078431
v 0.00000574 -0.00665033 -0.00927078 0.43529412 0.89019608 0.96078431
v 0.00000574 -0.00665033 0.00927078 0.43529412 0.89019608 0.96078431
v 0.07499266 -0.00703744 0.00965789 0.43529412 0.89019608 0.96078431
v 0.07499266 -0.00703744 -0.00965789 0.43529412 0.89019608 0.96078431
v 0.00000574 -0.00703744 -0.00965789 0.43529412 0.89019608 0.96078431
v 0.00000574 -0.00703744 0.00965789 0.43529412 0.89019608 0.96078431
v 0.07499266 -0.00750238 0.00994923 0.43529412 0.89019608 0.96078431
v 0.07499266 -0.00750238 -0.00994923 0.43529412 0.89019608 0.96078431
v 0.00000574 -0.00750238 -0.00994923 0.43529412 0.89019608 0.96078431
v 0.00000574 -0.00750238 0.00994923 0.43529412 0.89019608 0.96078431
v 0.07499266 -0.00801920 0.01013081 0.43529412 0.89019608 0.96078431
v 0.07499266 -0.00801920 -0.01013081 0.43529412 0.89019608 0.96078431
v 0.00000574 -0.00801920 -0.01013081 0.43529412 0.89019608 0.96078431
v 0.00000574 -0.00801920 0.01013081 0.43529412 0.89019608 0.96078431
v 0.07499266 -0.00856196 0.01019267 0.43529412 0.89019608 0.96078431
v 0.07499266 -0.00856196 -0.01019267 0.43529412 0.89019608 0.96078431
v 0.00000574 -0.00856196 -0.01019067 0.43529412 0.89019608 0.96078431
v 0.00000574 -0.00856196 0.01019267 0.43529412 0.89019608 0.96078431
v 0.07499266 -0.02405454 0.01019267 0.43529412 0.89019608 0.96078431
v 0.07499266 -0.02405454 -0.01019267 0.43529412 0.89019608 0.96078431
v 0.00000574 -0.02405454 -0.01019267 0.43529412 0.89019608 0.96078431
v 0.00000574 -0.02405454 0.01019267 0.43529412 0.89019608 0.96078431
v 0.07499266 -0.02459730 0.01013081 0.43529412 0.89019608 0.96078431
v 0.07499266 -0.02459730 -0.01013081 0.43529412 0.89019608 0.96078431
v 0.00000574 -0.02459730 -0.01013081 0.43529412 0.89019608 0.96078431
v 0.00000574 -0.02459730 0.01013081 0.43529412 0.89019608 0.96078431
v 0.07499266 -0.02511412 0.00994923 0.43529412 0.89019608 0.96078431
v 0.07499266 -0.02511412 -0.00994923 0.43529412 0.89019608 0.96078431
v 0.00000574 -0.02511412 -0.00994923 0.43529412 0.89019608 0.96078431
v 0.00000574 -0.02511412 0.00994923 0.43529412 0.89019608 0.96078431
v 0.07499266 -0.02557906 0.00965789 0.43529412 0.89019608 0.96078431
v 0.00000574 -0.02534759 0.00980356 0.43529412 0.89019608 0.96078431
v 0.07499266 -0.02557906 -0.00965789 0.43529412 0.89019608 0.96078431
v 0.00000574 -0.02534759 -0.00980356 0.43529412 0.89019608 0.96078431
v 0.07499266 -0.02596617 0.00927078 0.43529412 0.89019608 0.96078431
v 0.00000574 -0.02557906 0.00965789 0.43529412 0.89019608 0.96078431
v 0.07499266 -0.02596617 -0.00927078 0.43529412 0.89019608 0.96078431
v 0.00000574 -0.02557906 -0.00965789 0.43529412 0.89019608 0.96078431
v 0.07499266 -0.02625751 0.00880584 0.43529412 0.89019608 0.96078431
v 0.00000574 -0.02596617 0.00927078 0.43529412 0.89019608 0.96078431
v 0.00000574 -0.02611184 0.00903931 0.43529412 0.89019608 0.96078431
v 0.07499266 -0.02625751 -0.00880584 0.43529412 0.89019608 0.96078431
v 0.00000574 -0.02611184 -0.00903931 0.43529412 0.89019608 0.96078431
v 0.00000574 -0.02596617 -0.00927078 0.43529412 0.89019608 0.96078431
v 0.07499266 -0.02643909 0.00828903 0.43529412 0.89019608 0.96078431
v 0.00000574 -0.02625751 0.00880584 0.43529412 0.89019608 0.96078431
v 0.07499266 -0.02643909 -0.00828903 0.43529412 0.89019608 0.96078431
v 0.00000574 -0.02625751 -0.00880584 0.43529412 0.89019608 0.96078431
v 0.07499266 -0.02650095 0.00774627 0.43529412 0.89019608 0.96078431
v 0.00000574 -0.02643909 0.00828903 0.43529412 0.89019608 0.96078431
v 0.07499266 -0.02650095 -0.00774627 0.43529412 0.89019608 0.96078431
v 0.00000574 -0.02643909 -0.00828903 0.43529412 0.89019608 0.96078431
v 0.00000574 -0.02650095 0.00774627 0.43529412 0.89019608 0.96078431
v 0.00000574 -0.02650095 -0.00774627 0.43529412 0.89019608 0.96078431
f 137 138 139
f 137 139 144
f 137 144 140
f 137 140 145
f 137 145 149
f 137 149 153
f 137 153 157
f 137 157 161
f 137 161 165
f 137 165 169
f 137 169 173
f 137 173 177
f 137 177 181
f 137 181 185
f 137 185 189
f 137 189 195
f 137 195 199
f 137 199 201
f 137 201 197
f 137 197 192
f 137 192 187
f 137 187 183
f 137 183 178
f 137 178 174
f 137 174 170
f 137 170 166
f 137 166 162
f 137 162 158
f 137 158 154
f 137 154 150
f 137 150 146
f 137 146 141
f 137 141 138
f 138 141 142
f 138 142 143
f 138 143 139
f 139 143 142
f 139 142 147
f 139 147 151
f 139 151 155
f 139 155 159
f 139 159 163
f 139 163 167
f 139 167 171
f 139 171 175
f 139 175 179
f 139 179 184
f 139 184 188
f 139 188 194
f 139 194 193
f 139 193 198
f 139 198 202
f 139 202 204
f 139 204 203
f 139 203 200
f 139 200 196
f 139 196 191
f 139 191 190
f 139 190 186
f 139 186 182
f 139 182 180
f 139 180 176
f 139 176 172
f 139 172 168
f 139 168 164
f 139 164 160
f 139 160 156
f 139 156 152
f 139 152 148
f 139 148 144
f 140 144 148
f 140 148 145
f 141 146 147
f 141 147 142
f 145 148 152
f 145 152 149
f 146 150 151
f 146 151 147
f 149 152 156
f 149 156 153
f 150 154 155
f 150 155 151
f 153 156 160
f 153 160 157
f 154 158 159
f 154 159 155
f 157 160 164
f 157 164 161
f 158 162 163
f 158 163 159
f 161 164 168
f 161 168 165
f 162 166 163
f 163 166 167
f 165 168 172
f 165 172 169
f 166 170 171
f 166 171 167
f 169 172 176
f 169 176 173
f 170 174 175
f 170 175 171
f 173 176 180
f 173 180 177
f 174 178 179
f 174 179 175
f 177 180 182
f 177 182 181
f 178 183 184
f 178 184 179
f 181 182 186
f 181 186 190
f 181 190 185
f 183 187 194
f 183 194 188
f 183 188 184
f 185 190 191
f 185 191 189
f 187 192 193
f 187 193 194
f 189 191 196
f 189 196 200
f 189 200 195
f 192 197 202
f 192 202 198
f 192 198 193
f 195 200 203
f 195 203 199
f 197 201 204
f 197 204 202
f 199 203 204
f 199 204 201