# https://github.com/mikedh/trimesh
v 0.02500000 -0.01907570 -0.01233170
v 0.02500000 -0.01953170 -0.01187570
v 0.02500000 -0.01852960 -0.01267480
v 0.02500000 -0.01792090 -0.01288780
v 0.02500000 -0.01987480 -0.01132960
v 0.02500000 -0.02008780 -0.01072090
v 0.02500000 -0.02016000 -0.01008000
v 0.02500000 -0.01728000 -0.01296000
v 0.02500000 -0.02016000 0.01008000
v 0.02500000 -0.02008780 0.01072090
v 0.02500000 -0.01987480 0.01132960
v 0.02500000 -0.01953170 0.01187570
v 0.02500000 -0.01907570 0.01233170
v 0.02500000 -0.01852960 0.01267480
v 0.02500000 -0.01792090 0.01288780
v 0.02500000 -0.01728000 0.01296000
v 0.02500000 0.01728000 -0.01296000
v 0.02500000 0.01792090 -0.01288780
v 0.02500000 0.01852960 -0.01267480
v 0.02500000 0.01907570 -0.01233170
v 0.02500000 0.01953170 -0.01187570
v 0.02500000 0.01987480 -0.01132960
v 0.02500000 0.02008780 -0.01072090
v 0.02500000 0.02016000 -0.01008000
v 0.02500000 0.01728000 0.01296000
v 0.02500000 0.02016000 0.01008000
v 0.02500000 0.02008780 0.01072090
v 0.02500000 0.01987480 0.01132960
v 0.02500000 0.01792090 0.01288780
v 0.02500000 0.01852960 0.01267480
v 0.02500000 0.01953170 0.01187570
v 0.02500000 0.01907570 0.01233170
v 0.07500000 -0.01907570 -0.01233170
v 0.07500000 -0.01953170 -0.01187570
v 0.07500000 -0.01852960 -0.01267480
v 0.07500000 -0.01792090 -0.01288780
v 0.07500000 -0.01987480 -0.01132960
v 0.07500000 -0.02008780 -0.01072090
v 0.07500000 -0.02016000 -0.01008000
v 0.07500000 -0.01728000 -0.01296000
v 0.07500000 -0.02016000 0.01008000
v 0.07500000 -0.02008780 0.01072090
v 0.07500000 -0.01987480 0.01132960
v 0.07500000 -0.01953170 0.01187570
v 0.07500000 -0.01907570 0.01233170
v 0.07500000 -0.01852960 0.01267480
v 0.07500000 -0.01792090 0.01288780
v 0.07500000 -0.01728000 0.01296000
v 0.07500000 0.01728000 -0.01296000
v 0.07500000 0.01792090 -0.01288780
v 0.07500000 0.01852960 -0.01267480
v 0.07500000 0.01907570 -0.01233170
v 0.07500000 0.01953170 -0.01187570
v 0.07500000 0.01987480 -0.01132960
v 0.07500000 0.02008780 -0.01072090
v 0.07500000 0.02016000 -0.01008000
v 0.07500000 0.01728000 0.01296000
v 0.07500000 0.02016000 0.01008000
v 0.07500000 0.02008780 0.01072090
v 0.07500000 0.01987480 0.01132960
v 0.07500000 0.01792090 0.01288780
v 0.07500000 0.01852960 0.01267480
v 0.07500000 0.01953170 0.01187570
v 0.07500000 0.01907570 0.01233170
f 37 5 2
f 34 2 1
f 35 3 4
f 33 1 3
f 36 4 8
f 38 6 5
f 39 7 6
f 40 8 17
f 41 9 7
f 42 10 9
f 43 11 10
f 44 12 11
f 45 13 12
f 46 14 13
f 47 15 14
f 48 16 15
f 49 17 18
f 50 18 19
f 51 19 20
f 52 20 21
f 53 21 22
f 54 22 23
f 55 23 24
f 56 24 26
f 57 25 16
f 58 26 27
f 59 27 28
f 61 29 25
f 64 32 30
f 62 30 29
f 63 31 32
f 60 28 31
f 33 34 1
f 34 37 2
f 33 3 35
f 35 4 36
f 37 38 5
f 38 39 6
f 36 8 40
f 39 41 7
f 33 35 34
f 34 35 39
f 35 36 40
f 35 40 39
f 34 38 37
f 34 39 38
f 39 40 41
f 41 42 9
f 42 43 10
f 43 44 11
f 44 45 12
f 45 46 13
f 46 47 14
f 47 48 15
f 48 57 16
f 40 48 41
f 41 43 42
f 41 44 43
f 41 47 44
f 44 46 45
f 41 48 47
f 44 47 46
f 40 57 48
f 40 17 49
f 49 18 50
f 50 19 51
f 51 20 52
f 52 21 53
f 53 22 54
f 54 23 55
f 55 24 56
f 40 49 57
f 49 50 51
f 49 51 54
f 51 52 54
f 52 53 54
f 49 54 55
f 49 55 56
f 49 56 57
f 56 26 58
f 57 61 25
f 58 27 59
f 59 28 60
f 61 62 29
f 62 64 30
f 60 31 63
f 63 32 64
f 56 58 57
f 57 58 59
f 59 60 63
f 57 59 64
f 57 64 61
f 61 64 62
f 59 63 64
f 2 16 1
f 1 16 3
f 16 2 5
f 5 6 16
f 16 6 7
f 3 30 4
f 4 30 8
f 7 9 16
f 9 10 16
f 10 11 16
f 12 16 11
f 13 16 12
f 14 16 13
f 15 16 14
f 16 25 3
f 17 8 30
f 17 19 18
f 17 20 19
f 17 21 20
f 17 22 21
f 17 23 22
f 17 24 23
f 17 26 24
f 25 29 3
f 29 30 3
f 17 27 26
f 17 28 27
f 17 31 28
f 17 30 32
f 17 32 31