# https://github.com/mikedh/trimesh
v -0.07393225 0.01523657 0.01676382 0.38039216 0.78823529 0.52549020
v -0.07393225 0.01523657 -0.01676388 0.38039216 0.78823529 0.52549020
v -0.07451423 0.01523657 0.01735307 0.38039216 0.78823529 0.52549020
v -0.02400498 0.01523284 0.01676382 0.38039216 0.78823529 0.52549020
v -0.07432024 0.01523657 -0.01715920 0.38039216 0.78823529 0.52549020
v -0.02400498 0.01523284 -0.01676388 0.38039216 0.78823529 0.52549020
v -0.07472587 0.01523657 0.01755446 0.38039216 0.78823529 0.52549020
v -0.02400498 0.01520300 0.01712558 0.38039216 0.78823529 0.52549020
v -0.07512267 0.01523657 0.01790503 0.38039216 0.78823529 0.52549020
v -0.07554594 0.01523657 0.01823322 0.38039216 0.78823529 0.52549020
v -0.07599565 0.01523657 0.01851293 0.38039216 0.78823529 0.52549020
v -0.07645419 0.01523657 0.01874042 0.38039216 0.78823529 0.52549020
v -0.07692154 0.01523657 0.01891198 0.38039216 0.78823529 0.52549020
v -0.07738889 0.01523657 0.01901267 0.38039216 0.78823529 0.52549020
v -0.07787388 0.01523657 0.01904997 0.38039216 0.78823529 0.52549020
v -0.07471705 0.01523657 -0.01754333 0.38039216 0.78823529 0.52549020
v -0.02400498 0.01522911 -0.01682728 0.38039216 0.78823529 0.52549020
v -0.07787388 0.01523657 -0.01905003 0.38039216 0.78823529 0.52549020
v -0.07738889 0.01523657 -0.01901274 0.38039216 0.78823529 0.52549020
v -0.07712435 0.01523657 -0.01895679 0.38039216 0.78823529 0.52549020
v -0.07692154 0.01523657 -0.01891204 0.38039216 0.78823529 0.52549020
v -0.07645419 0.01523657 -0.01874049 0.38039216 0.78823529 0.52549020
v -0.07624256 0.01523657 -0.01863606 0.38039216 0.78823529 0.52549020
v -0.07599565 0.01523657 -0.01851299 0.38039216 0.78823529 0.52549020
v -0.07554594 0.01523657 -0.01823328 0.38039216 0.78823529 0.52549020
v -0.07512267 0.01523657 -0.01790509 0.38039216 0.78823529 0.52549020
v -0.02400498 0.01519927 0.01715914 0.38039216 0.78823529 0.52549020
v -0.07806787 0.01523657 0.01904997 0.38039216 0.78823529 0.52549020
v -0.02400498 0.01294658 0.01904997 0.38039216 0.78823529 0.52549020
v -0.02400498 0.01327852 0.01902013 0.38039216 0.78823529 0.52549020
v -0.02400498 0.01334565 0.01901267 0.38039216 0.78823529 0.52549020
v -0.02400498 0.01337922 0.01900521 0.38039216 0.78823529 0.52549020
v -0.02400498 0.01372980 0.01891198 0.38039216 0.78823529 0.52549020
v -0.02400498 0.01396850 0.01880010 0.38039216 0.78823529 0.52549020
v -0.02400498 0.01409158 0.01874042 0.38039216 0.78823529 0.52549020
v -0.02400498 0.01441605 0.01851293 0.38039216 0.78823529 0.52549020
v -0.02400498 0.01469950 0.01823322 0.38039216 0.78823529 0.52549020
v -0.02400498 0.01492701 0.01790503 0.38039216 0.78823529 0.52549020
v -0.02400498 0.01503890 0.01766634 0.38039216 0.78823529 0.52549020
v -0.02400498 0.01509484 0.01754327 0.38039216 0.78823529 0.52549020
v -0.02400498 0.01520300 -0.01712564 0.38039216 0.78823529 0.52549020
v -0.11106466 0.01523657 -0.01905003 0.38039216 0.78823529 0.52549020
v -0.02400498 0.01519927 -0.01715920 0.38039216 0.78823529 0.52549020
v -0.02400498 0.01514705 -0.01735686 0.38039216 0.78823529 0.52549020
v -0.02400498 0.01511349 -0.01747993 0.38039216 0.78823529 0.52549020
v -0.02400498 0.01509484 -0.01754333 0.38039216 0.78823529 0.52549020
v -0.02400498 0.01507992 -0.01757690 0.38039216 0.78823529 0.52549020
v -0.02400498 0.01503890 -0.01766641 0.38039216 0.78823529 0.52549020
v -0.02400498 0.01492701 -0.01790509 0.38039216 0.78823529 0.52549020
v -0.02400498 0.01469950 -0.01823328 0.38039216 0.78823529 0.52549020
v -0.02400498 0.01441605 -0.01851299 0.38039216 0.78823529 0.52549020
v -0.02400498 0.01430789 -0.01859131 0.38039216 0.78823529 0.52549020
v -0.02400498 0.01409158 -0.01874049 0.38039216 0.78823529 0.52549020
v -0.02400498 0.01403190 -0.01877032 0.38039216 0.78823529 0.52549020
v -0.02400498 0.01372980 -0.01891204 0.38039216 0.78823529 0.52549020
v -0.02400498 0.01337922 -0.01900528 0.38039216 0.78823529 0.52549020
v -0.02400498 0.01334565 -0.01901274 0.38039216 0.78823529 0.52549020
v -0.02400498 0.01327852 -0.01902019 0.38039216 0.78823529 0.52549020
v -0.02400498 0.01294658 -0.01904630 0.38039216 0.78823529 0.52549020
v -0.03695856 0.01294658 -0.01905003 0.38039216 0.78823529 0.52549020
v -0.11108230 0.01523657 0.01904624 0.38039216 0.78823529 0.52549020
v -0.08523687 0.00590880 0.01904997 0.38039216 0.78823529 0.52549020
v -0.02400498 -0.02057891 0.01904997 0.38039216 0.78823529 0.52549020
v -0.10281988 0.00699039 -0.01905003 0.38039216 0.78823529 0.52549020
v -0.10303150 0.00677780 -0.01902392 0.38039216 0.78823529 0.52549020
v -0.11159374 0.01523657 -0.01901646 0.38039216 0.78823529 0.52549020
v -0.02400498 -0.02061247 -0.01904630 0.38039216 0.78823529 0.52549020
v -0.03662348 0.00456614 -0.01905003 0.38039216 0.78823529 0.52549020
v -0.11159374 0.01523657 0.01901640 0.38039216 0.78823529 0.52549020
v -0.10303150 0.00677780 0.01902386 0.38039216 0.78823529 0.52549020
v -0.08444325 -0.01138541 0.01904997 0.38039216 0.78823529 0.52549020
v -0.03762872 -0.02087355 0.01902386 0.38039216 0.78823529 0.52549020
v -0.02400498 -0.02091084 0.01902013 0.38039216 0.78823529 0.52549020
v -0.07524613 -0.02057891 0.01904997 0.38039216 0.78823529 0.52549020
v -0.09363157 -0.00219937 -0.01905003 0.38039216 0.78823529 0.52549020
v -0.08444325 -0.01138541 -0.01905003 0.38039216 0.78823529 0.52549020
v -0.07524613 -0.02057891 -0.01905003 0.38039216 0.78823529 0.52549020
v -0.08464607 -0.01159800 -0.01902392 0.38039216 0.78823529 0.52549020
v -0.11163783 0.01523657 -0.01901274 0.38039216 0.78823529 0.52549020
v -0.07552830 -0.02085863 -0.01901274 0.38039216 0.78823529 0.52549020
v -0.09391374 -0.00248282 -0.01901274 0.38039216 0.78823529 0.52549020
v -0.02400498 -0.02091084 -0.01902019 0.38039216 0.78823529 0.52549020
v -0.03762872 -0.02057891 -0.01905003 0.38039216 0.78823529 0.52549020
v -0.11163783 0.01523657 0.01901267 0.38039216 0.78823529 0.52549020
v -0.09391374 -0.00248282 0.01901267 0.38039216 0.78823529 0.52549020
v -0.07552830 -0.02085863 0.01901267 0.38039216 0.78823529 0.52549020
v -0.08464607 -0.01159800 0.01902386 0.38039216 0.78823529 0.52549020
v -0.05644624 -0.02082506 0.01902759 0.38039216 0.78823529 0.52549020
v -0.07524613 -0.02097425 0.01901267 0.38039216 0.78823529 0.52549020
v -0.02400498 -0.02097425 0.01901267 0.38039216 0.78823529 0.52549020
v -0.07548421 -0.02089965 0.01901267 0.38039216 0.78823529 0.52549020
v -0.07543131 -0.02092949 0.01901267 0.38039216 0.78823529 0.52549020
v -0.07536958 -0.02095560 0.01901267 0.38039216 0.78823529 0.52549020
v -0.07530785 -0.02097052 0.01901267 0.38039216 0.78823529 0.52549020
v -0.07524613 -0.02097425 -0.01901274 0.38039216 0.78823529 0.52549020
v -0.07530785 -0.02097052 -0.01901274 0.38039216 0.78823529 0.52549020
v -0.07536958 -0.02095560 -0.01901274 0.38039216 0.78823529 0.52549020
v -0.07543131 -0.02092949 -0.01901274 0.38039216 0.78823529 0.52549020
v -0.07548421 -0.02089965 -0.01901274 0.38039216 0.78823529 0.52549020
v -0.03762872 -0.02087355 -0.01902392 0.38039216 0.78823529 0.52549020
v -0.05644624 -0.02082506 -0.01902765 0.38039216 0.78823529 0.52549020
v -0.11216691 0.01523657 -0.01891204 0.38039216 0.78823529 0.52549020
v -0.07580166 -0.02113089 -0.01891204 0.38039216 0.78823529 0.52549020
v -0.10337541 0.00643841 -0.01891204 0.38039216 0.78823529 0.52549020
v -0.02400498 -0.02097425 -0.01901274 0.38039216 0.78823529 0.52549020
v -0.11217572 0.01523657 0.01890825 0.38039216 0.78823529 0.52549020
v -0.10337541 0.00643841 0.01891198 0.38039216 0.78823529 0.52549020
v -0.07580166 -0.02113089 0.01891198 0.38039216 0.78823529 0.52549020
v -0.07524613 -0.02135840 0.01891198 0.38039216 0.78823529 0.52549020
v -0.05644624 -0.02102273 0.01900149 0.38039216 0.78823529 0.52549020
v -0.02400498 -0.02100781 0.01900521 0.38039216 0.78823529 0.52549020
v -0.07570466 -0.02120921 0.01891198 0.38039216 0.78823529 0.52549020
v -0.07560766 -0.02127261 0.01891198 0.38039216 0.78823529 0.52549020
v -0.07549303 -0.02132110 0.01891198 0.38039216 0.78823529 0.52549020
v -0.07536958 -0.02135094 0.01891198 0.38039216 0.78823529 0.52549020
v -0.07524613 -0.02135840 -0.01891204 0.38039216 0.78823529 0.52549020
v -0.02400498 -0.02100781 -0.01900528 0.38039216 0.78823529 0.52549020
v -0.05644624 -0.02102273 -0.01900155 0.38039216 0.78823529 0.52549020
v -0.07536958 -0.02135094 -0.01891204 0.38039216 0.78823529 0.52549020
v -0.07549303 -0.02132110 -0.01891204 0.38039216 0.78823529 0.52549020
v -0.07560766 -0.02127261 -0.01891204 0.38039216 0.78823529 0.52549020
v -0.07570466 -0.02120921 -0.01891204 0.38039216 0.78823529 0.52549020
v -0.10363112 0.00618107 -0.01874049 0.38039216 0.78823529 0.52549020
v -0.11267835 0.01523657 -0.01874049 0.38039216 0.78823529 0.52549020
v -0.07591629 -0.02150385 -0.01874049 0.38039216 0.78823529 0.52549020
v -0.07605738 -0.02138450 -0.01874049 0.38039216 0.78823529 0.52549020
v -0.08518396 -0.01213133 -0.01878524 0.38039216 0.78823529 0.52549020
v -0.11267835 0.01523657 0.01874042 0.38039216 0.78823529 0.52549020
v -0.10363112 0.00618107 0.01874042 0.38039216 0.78823529 0.52549020
v -0.08518396 -0.01213133 0.01878518 0.38039216 0.78823529 0.52549020
v -0.07605738 -0.02138450 0.01874042 0.38039216 0.78823529 0.52549020
v -0.07591629 -0.02150385 0.01874042 0.38039216 0.78823529 0.52549020
v -0.07524613 -0.02172017 0.01874042 0.38039216 0.78823529 0.52549020
v -0.05644624 -0.02149639 0.01884858 0.38039216 0.78823529 0.52549020
v -0.02400498 -0.02135840 0.01891198 0.38039216 0.78823529 0.52549020
v -0.07576639 -0.02159709 0.01874042 0.38039216 0.78823529 0.52549020
v -0.07559885 -0.02166422 0.01874042 0.38039216 0.78823529 0.52549020
v -0.07543131 -0.02170525 0.01874042 0.38039216 0.78823529 0.52549020
v -0.07524613 -0.02172017 -0.01874049 0.38039216 0.78823529 0.52549020
v -0.02400498 -0.02135840 -0.01891204 0.38039216 0.78823529 0.52549020
v -0.05644624 -0.02149639 -0.01884864 0.38039216 0.78823529 0.52549020
v -0.07543131 -0.02170525 -0.01874049 0.38039216 0.78823529 0.52549020
v -0.07559885 -0.02166422 -0.01874049 0.38039216 0.78823529 0.52549020
v -0.07576639 -0.02159709 -0.01874049 0.38039216 0.78823529 0.52549020
v -0.08530742 -0.01225441 -0.01868454 0.38039216 0.78823529 0.52549020
v -0.09467209 -0.00323994 -0.01851299 0.38039216 0.78823529 0.52549020
v -0.11304870 0.01513960 -0.01851299 0.38039216 0.78823529 0.52549020
v -0.11295170 0.01523657 -0.01860623 0.38039216 0.78823529 0.52549020
v -0.07591629 -0.02188800 -0.01851299 0.38039216 0.78823529 0.52549020
v -0.07611028 -0.02176493 -0.01851299 0.38039216 0.78823529 0.52549020
v -0.07628665 -0.02161574 -0.01851299 0.38039216 0.78823529 0.52549020
v -0.11302225 0.01523657 0.01857260 0.38039216 0.78823529 0.52549020
v -0.11304870 0.01513960 0.01851293 0.38039216 0.78823529 0.52549020
v -0.09467209 -0.00323994 0.01851293 0.38039216 0.78823529 0.52549020
v -0.08530742 -0.01225441 0.01868448 0.38039216 0.78823529 0.52549020
v -0.07628665 -0.02161574 0.01851293 0.38039216 0.78823529 0.52549020
v -0.07591629 -0.02188800 0.01851293 0.38039216 0.78823529 0.52549020
v -0.07611028 -0.02176493 0.01851293 0.38039216 0.78823529 0.52549020
v -0.07524613 -0.02204838 0.01851293 0.38039216 0.78823529 0.52549020
v -0.05644624 -0.02176120 0.01871432 0.38039216 0.78823529 0.52549020
v -0.02400498 -0.02175001 0.01872178 0.38039216 0.78823529 0.52549020
v -0.02400498 -0.02172017 0.01874042 0.38039216 0.78823529 0.52549020
v -0.05644624 -0.02167541 0.01876280 0.38039216 0.78823529 0.52549020
v -0.03762872 -0.02163066 0.01878518 0.38039216 0.78823529 0.52549020
v -0.07570466 -0.02197378 0.01851293 0.38039216 0.78823529 0.52549020
v -0.07547539 -0.02202973 0.01851293 0.38039216 0.78823529 0.52549020
v -0.07524613 -0.02204838 -0.01851299 0.38039216 0.78823529 0.52549020
v -0.05644624 -0.02167541 -0.01876286 0.38039216 0.78823529 0.52549020
v -0.02400498 -0.02172017 -0.01874049 0.38039216 0.78823529 0.52549020
v -0.02400498 -0.02175001 -0.01872184 0.38039216 0.78823529 0.52549020
v -0.05644624 -0.02176120 -0.01871438 0.38039216 0.78823529 0.52549020
v -0.03762872 -0.02163066 -0.01878524 0.38039216 0.78823529 0.52549020
v -0.07547539 -0.02202973 -0.01851299 0.38039216 0.78823529 0.52549020
v -0.07570466 -0.02197378 -0.01851299 0.38039216 0.78823529 0.52549020
v -0.11325152 0.01494193 -0.01823328 0.38039216 0.78823529 0.52549020
v -0.07648946 -0.02181714 -0.01823328 0.38039216 0.78823529 0.52549020
v -0.11331325 0.01523657 -0.01837500 0.38039216 0.78823529 0.52549020
v -0.11312807 0.01523657 -0.01851299 0.38039216 0.78823529 0.52549020
v -0.07579284 -0.02224232 -0.01823328 0.38039216 0.78823529 0.52549020
v -0.07603974 -0.02213789 -0.01823328 0.38039216 0.78823529 0.52549020
v -0.07627783 -0.02199243 -0.01823328 0.38039216 0.78823529 0.52549020
v -0.11312807 0.01523657 0.01851293 0.38039216 0.78823529 0.52549020
v -0.11331325 0.01523657 0.01837494 0.38039216 0.78823529 0.52549020
v -0.11325152 0.01494193 0.01823322 0.38039216 0.78823529 0.52549020
v -0.07648946 -0.02181714 0.01823322 0.38039216 0.78823529 0.52549020
v -0.07579284 -0.02224232 0.01823322 0.38039216 0.78823529 0.52549020
v -0.07627783 -0.02199243 0.01823322 0.38039216 0.78823529 0.52549020
v -0.07603974 -0.02213789 0.01823322 0.38039216 0.78823529 0.52549020
v -0.07524613 -0.02232810 0.01823322 0.38039216 0.78823529 0.52549020
v -0.02400498 -0.02204838 0.01851293 0.38039216 0.78823529 0.52549020
v -0.05644624 -0.02200735 0.01854276 0.38039216 0.78823529 0.52549020
v -0.02400498 -0.02177239 0.01870686 0.38039216 0.78823529 0.52549020
v -0.07551948 -0.02230572 0.01823322 0.38039216 0.78823529 0.52549020
v -0.07524613 -0.02232810 -0.01823328 0.38039216 0.78823529 0.52549020
v -0.05644624 -0.02200735 -0.01854283 0.38039216 0.78823529 0.52549020
v -0.02400498 -0.02201854 -0.01853537 0.38039216 0.78823529 0.52549020
v -0.02400498 -0.02204838 -0.01851299 0.38039216 0.78823529 0.52549020
v -0.02400498 -0.02177239 -0.01870692 0.38039216 0.78823529 0.52549020
v -0.02400498 -0.02183206 -0.01866590 0.38039216 0.78823529 0.52549020
v -0.07551948 -0.02230572 -0.01823328 0.38039216 0.78823529 0.52549020
v -0.10422193 0.00558806 -0.01790509 0.38039216 0.78823529 0.52549020
v -0.11341024 0.01478155 -0.01790509 0.38039216 0.78823529 0.52549020
v -0.11361305 0.01501652 -0.01790509 0.38039216 0.78823529 0.52549020
v -0.11342788 0.01515078 -0.01823328 0.38039216 0.78823529 0.52549020
v -0.07641010 -0.02217891 -0.01790509 0.38039216 0.78823529 0.52549020
v -0.07664818 -0.02197751 -0.01790509 0.38039216 0.78823529 0.52549020
v -0.11348079 0.01523657 -0.01823328 0.38039216 0.78823529 0.52549020
v -0.07586338 -0.02245863 -0.01790509 0.38039216 0.78823529 0.52549020
v -0.07614555 -0.02234302 -0.01790509 0.38039216 0.78823529 0.52549020
v -0.07555475 -0.02253323 -0.01790509 0.38039216 0.78823529 0.52549020
v -0.11348079 0.01523657 0.01823322 0.38039216 0.78823529 0.52549020
v -0.11342788 0.01515078 0.01823322 0.38039216 0.78823529 0.52549020
v -0.11361305 0.01501652 0.01790503 0.38039216 0.78823529 0.52549020
v -0.11341024 0.01478155 0.01790503 0.38039216 0.78823529 0.52549020
v -0.10422193 0.00558806 0.01790503 0.38039216 0.78823529 0.52549020
v -0.07664818 -0.02197751 0.01790503 0.38039216 0.78823529 0.52549020
v -0.07641010 -0.02217891 0.01790503 0.38039216 0.78823529 0.52549020
v -0.07614555 -0.02234302 0.01790503 0.38039216 0.78823529 0.52549020
v -0.07586338 -0.02245863 0.01790503 0.38039216 0.78823529 0.52549020
v -0.07555475 -0.02253323 0.01790503 0.38039216 0.78823529 0.52549020
v -0.07524613 -0.02255560 0.01790503 0.38039216 0.78823529 0.52549020
v -0.05644624 -0.02252950 0.01794605 0.38039216 0.78823529 0.52549020
v -0.05644624 -0.02235793 0.01819220 0.38039216 0.78823529 0.52549020
v -0.02400498 -0.02232810 0.01823322 0.38039216 0.78823529 0.52549020
v -0.07524613 -0.02255560 -0.01790509 0.38039216 0.78823529 0.52549020
v -0.02400498 -0.02232810 -0.01823328 0.38039216 0.78823529 0.52549020
v -0.02400498 -0.02235047 -0.01820345 0.38039216 0.78823529 0.52549020
v -0.05644624 -0.02235793 -0.01819226 0.38039216 0.78823529 0.52549020
v -0.05644624 -0.02252950 -0.01794611 0.38039216 0.78823529 0.52549020
v -0.08587176 -0.01281758 -0.01781558 0.38039216 0.78823529 0.52549020
v -0.07677163 -0.02209686 -0.01754333 0.38039216 0.78823529 0.52549020
v -0.09514826 -0.00372106 -0.01754333 0.38039216 0.78823529 0.52549020
v -0.11352487 0.01466221 -0.01754333 0.38039216 0.78823529 0.52549020
v -0.11374532 0.01491582 -0.01754333 0.38039216 0.78823529 0.52549020
v -0.11386878 0.01523657 -0.01768505 0.38039216 0.78823529 0.52549020
v -0.11374532 0.01523657 -0.01790509 0.38039216 0.78823529 0.52549020
v -0.07650710 -0.02231691 -0.01754333 0.38039216 0.78823529 0.52549020
v -0.07622492 -0.02249220 -0.01754333 0.38039216 0.78823529 0.52549020
v -0.07591629 -0.02261901 -0.01754333 0.38039216 0.78823529 0.52549020
v -0.07524613 -0.02272717 -0.01754333 0.38039216 0.78823529 0.52549020
v -0.07558121 -0.02269733 -0.01754333 0.38039216 0.78823529 0.52549020
v -0.11374532 0.01523657 0.01790503 0.38039216 0.78823529 0.52549020
v -0.11377178 0.01523657 0.01786028 0.38039216 0.78823529 0.52549020
v -0.11386878 0.01523657 0.01768499 0.38039216 0.78823529 0.52549020
v -0.11374532 0.01491582 0.01754327 0.38039216 0.78823529 0.52549020
v -0.11352487 0.01466221 0.01754327 0.38039216 0.78823529 0.52549020
v -0.09514826 -0.00372106 0.01754327 0.38039216 0.78823529 0.52549020
v -0.07677163 -0.02209686 0.01754327 0.38039216 0.78823529 0.52549020
v -0.08587176 -0.01281758 0.01781552 0.38039216 0.78823529 0.52549020
v -0.07650710 -0.02231691 0.01754327 0.38039216 0.78823529 0.52549020
v -0.07622492 -0.02249220 0.01754327 0.38039216 0.78823529 0.52549020
v -0.07591629 -0.02261901 0.01754327 0.38039216 0.78823529 0.52549020
v -0.07558121 -0.02269733 0.01754327 0.38039216 0.78823529 0.52549020
v -0.07524613 -0.02272717 0.01754327 0.38039216 0.78823529 0.52549020
v -0.05644624 -0.02266376 0.01768126 0.38039216 0.78823529 0.52549020
v -0.02400498 -0.02258544 0.01784909 0.38039216 0.78823529 0.52549020
v -0.02400498 -0.02255560 0.01790503 0.38039216 0.78823529 0.52549020
v -0.02400498 -0.02252204 0.01795724 0.38039216 0.78823529 0.52549020
v -0.02400498 -0.02236539 0.01818101 0.38039216 0.78823529 0.52549020
v -0.02400498 -0.02255560 -0.01790509 0.38039216 0.78823529 0.52549020
v -0.02400498 -0.02258544 -0.01784915 0.38039216 0.78823529 0.52549020
v -0.02400498 -0.02248101 -0.01801697 0.38039216 0.78823529 0.52549020
v -0.07656882 -0.02239896 -0.01715920 0.38039216 0.78823529 0.52549020
v -0.07684218 -0.02216772 -0.01715920 0.38039216 0.78823529 0.52549020
v -0.11360423 0.01458761 -0.01715920 0.38039216 0.78823529 0.52549020
v -0.11383350 0.01485615 -0.01715920 0.38039216 0.78823529 0.52549020
v -0.11392168 0.01520300 -0.01754333 0.38039216 0.78823529 0.52549020
v -0.11393932 0.01523657 -0.01754333 0.38039216 0.78823529 0.52549020
v -0.07594274 -0.02271971 -0.01715920 0.38039216 0.78823529 0.52549020
v -0.07626901 -0.02258171 -0.01715920 0.38039216 0.78823529 0.52549020
v -0.07559885 -0.02280176 -0.01715920 0.38039216 0.78823529 0.52549020
v -0.07524613 -0.02282786 -0.01715920 0.38039216 0.78823529 0.52549020
v -0.02400498 -0.02272717 -0.01754333 0.38039216 0.78823529 0.52549020
v -0.05644624 -0.02281668 -0.01720769 0.38039216 0.78823529 0.52549020
v -0.11393932 0.01523657 0.01754327 0.38039216 0.78823529 0.52549020
v -0.11392168 0.01520300 0.01754327 0.38039216 0.78823529 0.52549020
v -0.11360423 0.01458761 0.01715914 0.38039216 0.78823529 0.52549020
v -0.11383350 0.01485615 0.01715914 0.38039216 0.78823529 0.52549020
v -0.07684218 -0.02216772 0.01715914 0.38039216 0.78823529 0.52549020
v -0.07656882 -0.02239896 0.01715914 0.38039216 0.78823529 0.52549020
v -0.07626901 -0.02258171 0.01715914 0.38039216 0.78823529 0.52549020
v -0.07594274 -0.02271971 0.01715914 0.38039216 0.78823529 0.52549020
v -0.07559885 -0.02280176 0.01715914 0.38039216 0.78823529 0.52549020
v -0.07524613 -0.02282786 0.01715914 0.38039216 0.78823529 0.52549020
v -0.05644624 -0.02281668 0.01720762 0.38039216 0.78823529 0.52549020
v -0.02400498 -0.02272717 0.01754327 0.38039216 0.78823529 0.52549020
v -0.07628665 -0.02261528 -0.01676388 0.38039216 0.78823529 0.52549020
v -0.07659527 -0.02242507 -0.01676388 0.38039216 0.78823529 0.52549020
v -0.07686863 -0.02219383 -0.01676388 0.38039216 0.78823529 0.52549020
v -0.10443356 0.00537920 -0.01686085 0.38039216 0.78823529 0.52549020
v -0.11362187 0.01456524 -0.01676388 0.38039216 0.78823529 0.52549020
v -0.11385996 0.01483750 -0.01676388 0.38039216 0.78823529 0.52549020
v -0.11401868 0.01515824 -0.01715920 0.38039216 0.78823529 0.52549020
v -0.11404513 0.01523657 -0.01715920 0.38039216 0.78823529 0.52549020
v -0.07595156 -0.02275327 -0.01676388 0.38039216 0.78823529 0.52549020
v -0.07524613 -0.02286516 -0.01676388 0.38039216 0.78823529 0.52549020
v -0.07560766 -0.02283532 -0.01676388 0.38039216 0.78823529 0.52549020
v -0.02400498 -0.02282786 -0.01715920 0.38039216 0.78823529 0.52549020
v -0.02400498 -0.02283532 -0.01709580 0.38039216 0.78823529 0.52549020
v -0.03762872 -0.02283905 -0.01705851 0.38039216 0.78823529 0.52549020
v -0.05644624 -0.02284278 -0.01701002 0.38039216 0.78823529 0.52549020
v -0.02400498 -0.02281295 -0.01721887 0.38039216 0.78823529 0.52549020
v -0.11402750 0.01523657 0.01724119 0.38039216 0.78823529 0.52549020
v -0.11401868 0.01515824 0.01715914 0.38039216 0.78823529 0.52549020
v -0.11385996 0.01483750 0.01676382 0.38039216 0.78823529 0.52549020
v -0.11362187 0.01456524 0.01676382 0.38039216 0.78823529 0.52549020
v -0.10443356 0.00537920 0.01686079 0.38039216 0.78823529 0.52549020
v -0.07686863 -0.02219383 0.01676382 0.38039216 0.78823529 0.52549020
v -0.07659527 -0.02242507 0.01676382 0.38039216 0.78823529 0.52549020
v -0.07628665 -0.02261528 0.01676382 0.38039216 0.78823529 0.52549020
v -0.07595156 -0.02275327 0.01676382 0.38039216 0.78823529 0.52549020
v -0.07560766 -0.02283532 0.01676382 0.38039216 0.78823529 0.52549020
v -0.07524613 -0.02286516 0.01676382 0.38039216 0.78823529 0.52549020
v -0.05644624 -0.02284278 0.01700996 0.38039216 0.78823529 0.52549020
v -0.03762872 -0.02283905 0.01705845 0.38039216 0.78823529 0.52549020
v -0.02400498 -0.02283532 0.01709574 0.38039216 0.78823529 0.52549020
v -0.02400498 -0.02282786 0.01715914 0.38039216 0.78823529 0.52549020
v -0.02400498 -0.02282041 0.01719271 0.38039216 0.78823529 0.52549020
v -0.10443356 0.00537174 -0.01676388 0.38039216 0.78823529 0.52549020
v -0.11374532 0.01469950 -0.00000003 0.38039216 0.78823529 0.52549020
v -0.11395695 0.01499041 -0.00000003 0.38039216 0.78823529 0.52549020
v -0.11404513 0.01514333 -0.01676388 0.38039216 0.78823529 0.52549020
v -0.11408041 0.01523657 -0.01676388 0.38039216 0.78823529 0.52549020
v -0.11405395 0.01523657 -0.01706224 0.38039216 0.78823529 0.52549020
v -0.07578402 -0.02279430 -0.00000003 0.38039216 0.78823529 0.52549020
v -0.07543131 -0.02285024 -0.00000003 0.38039216 0.78823529 0.52549020
v -0.02400498 -0.02286516 -0.01676388 0.38039216 0.78823529 0.52549020
v -0.11404513 0.01523657 0.01715914 0.38039216 0.78823529 0.52549020
v -0.11407159 0.01523657 0.01686824 0.38039216 0.78823529 0.52549020
v -0.11408041 0.01523657 0.01676382 0.38039216 0.78823529 0.52549020
v -0.11404513 0.01514333 0.01676382 0.38039216 0.78823529 0.52549020
v -0.10443356 0.00537174 0.01676382 0.38039216 0.78823529 0.52549020
v -0.02400498 -0.02286516 0.01676382 0.38039216 0.78823529 0.52549020
f 1 2 5
f 1 5 16
f 1 16 26
f 1 26 25
f 1 25 24
f 1 24 23
f 1 23 22
f 1 22 21
f 1 21 20
f 1 20 19
f 1 19 18
f 1 18 42
f 1 42 66
f 1 66 79
f 1 79 102
f 1 102 124
f 1 124 148
f 1 148 178
f 1 178 177
f 1 177 207
f 1 207 236
f 1 236 235
f 1 235 268
f 1 268 294
f 1 294 324
f 1 324 323
f 1 323 330
f 1 330 329
f 1 329 328
f 1 328 303
f 1 303 275
f 1 275 244
f 1 244 243
f 1 243 242
f 1 242 211
f 1 211 183
f 1 183 182
f 1 182 152
f 1 152 128
f 1 128 106
f 1 106 84
f 1 84 69
f 1 69 61
f 1 61 28
f 1 28 15
f 1 15 14
f 1 14 13
f 1 13 12
f 1 12 11
f 1 11 10
f 1 10 9
f 1 9 7
f 1 7 3
f 1 3 4
f 1 4 6
f 1 6 2
f 2 6 5
f 3 7 4
f 4 8 27
f 4 27 40
f 4 40 39
f 4 39 38
f 4 38 37
f 4 37 36
f 4 36 35
f 4 35 34
f 4 34 33
f 4 33 32
f 4 32 31
f 4 31 30
f 4 30 29
f 4 29 63
f 4 63 73
f 4 73 90
f 4 90 111
f 4 111 135
f 4 135 162
f 4 162 161
f 4 161 192
f 4 192 190
f 4 190 224
f 4 224 259
f 4 259 258
f 4 258 257
f 4 257 256
f 4 256 286
f 4 286 318
f 4 318 317
f 4 317 316
f 4 316 333
f 4 333 327
f 4 327 299
f 4 299 298
f 4 298 302
f 4 302 273
f 4 273 261
f 4 261 260
f 4 260 262
f 4 262 227
f 4 227 226
f 4 226 197
f 4 197 196
f 4 196 199
f 4 199 198
f 4 198 170
f 4 170 169
f 4 169 140
f 4 140 117
f 4 117 105
f 4 105 82
f 4 82 67
f 4 67 59
f 4 59 58
f 4 58 57
f 4 57 56
f 4 56 55
f 4 55 54
f 4 54 53
f 4 53 52
f 4 52 51
f 4 51 50
f 4 50 49
f 4 49 48
f 4 48 47
f 4 47 46
f 4 46 45
f 4 45 44
f 4 44 43
f 4 43 41
f 4 41 17
f 4 17 6
f 4 7 9
f 4 9 10
f 4 10 11
f 4 11 12
f 4 12 13
f 4 13 14
f 4 14 15
f 4 15 8
f 5 6 16
f 6 17 18
f 6 18 19
f 6 19 20
f 6 20 21
f 6 21 22
f 6 22 23
f 6 23 24
f 6 24 25
f 6 25 26
f 6 26 16
f 8 15 27
f 15 28 62
f 15 62 71
f 15 71 74
f 15 74 63
f 15 63 29
f 15 29 30
f 15 30 31
f 15 31 32
f 15 32 33
f 15 33 34
f 15 34 35
f 15 35 36
f 15 36 37
f 15 37 38
f 15 38 39
f 15 39 40
f 15 40 27
f 17 41 18
f 18 41 43
f 18 43 44
f 18 44 45
f 18 45 46
f 18 46 47
f 18 47 48
f 18 48 49
f 18 49 50
f 18 50 51
f 18 51 52
f 18 52 53
f 18 53 54
f 18 54 55
f 18 55 56
f 18 56 57
f 18 57 58
f 18 58 59
f 18 59 60
f 18 60 68
f 18 68 83
f 18 83 77
f 18 77 76
f 18 76 75
f 18 75 64
f 18 64 42
f 28 61 62
f 42 64 65
f 42 65 66
f 59 67 68
f 59 68 60
f 61 69 70
f 61 70 71
f 61 71 62
f 63 72 73
f 63 74 72
f 64 75 65
f 65 75 76
f 65 76 77
f 65 77 78
f 65 78 66
f 66 78 80
f 66 80 81
f 66 81 79
f 67 82 83
f 67 83 68
f 69 84 85
f 69 85 86
f 69 86 87
f 69 87 70
f 70 87 74
f 70 74 71
f 72 88 89
f 72 89 73
f 72 74 88
f 73 89 90
f 74 87 86
f 74 86 91
f 74 91 92
f 74 92 93
f 74 93 94
f 74 94 89
f 74 89 88
f 77 95 96
f 77 96 97
f 77 97 98
f 77 98 99
f 77 99 80
f 77 80 78
f 77 83 100
f 77 100 101
f 77 101 95
f 79 81 103
f 79 103 104
f 79 104 102
f 80 99 103
f 80 103 81
f 82 100 83
f 82 105 95
f 82 95 100
f 84 106 107
f 84 107 108
f 84 108 85
f 85 108 86
f 86 108 91
f 89 94 115
f 89 115 109
f 89 109 110
f 89 110 111
f 89 111 90
f 91 108 112
f 91 112 113
f 91 113 92
f 92 113 114
f 92 114 93
f 93 114 115
f 93 115 94
f 95 116 119
f 95 119 96
f 95 101 100
f 95 105 117
f 95 117 118
f 95 118 116
f 96 119 120
f 96 120 97
f 97 120 121
f 97 121 98
f 98 121 99
f 99 121 122
f 99 122 103
f 102 123 124
f 102 104 123
f 103 122 125
f 103 125 126
f 103 126 127
f 103 127 104
f 104 127 123
f 106 128 107
f 107 128 129
f 107 129 130
f 107 130 108
f 108 131 132
f 108 132 112
f 108 130 131
f 109 115 133
f 109 133 134
f 109 134 135
f 109 135 110
f 110 135 111
f 112 132 113
f 113 132 136
f 113 136 114
f 114 136 137
f 114 137 138
f 114 138 115
f 115 138 133
f 116 139 119
f 116 118 140
f 116 140 141
f 116 141 139
f 117 140 118
f 119 139 142
f 119 142 120
f 120 143 144
f 120 144 121
f 120 142 143
f 121 144 125
f 121 125 122
f 123 145 146
f 123 146 147
f 123 147 124
f 123 127 126
f 123 126 145
f 124 147 148
f 125 144 149
f 125 149 150
f 125 150 151
f 125 151 126
f 126 151 145
f 128 152 153
f 128 153 129
f 129 153 154
f 129 154 155
f 129 155 131
f 129 131 130
f 131 156 158
f 131 158 132
f 131 155 156
f 132 157 136
f 132 158 157
f 133 138 159
f 133 159 160
f 133 160 161
f 133 161 162
f 133 162 164
f 133 164 163
f 133 163 134
f 134 163 164
f 134 164 135
f 135 164 162
f 136 157 165
f 136 165 137
f 137 165 138
f 138 165 166
f 138 166 159
f 139 167 142
f 139 141 168
f 139 168 172
f 139 172 169
f 139 169 170
f 139 170 171
f 139 171 167
f 140 169 172
f 140 172 141
f 141 172 168
f 142 167 173
f 142 173 174
f 142 174 143
f 143 174 144
f 144 174 149
f 145 151 146
f 146 175 147
f 146 151 176
f 146 176 175
f 147 175 177
f 147 177 178
f 147 178 148
f 149 174 179
f 149 179 180
f 149 180 181
f 149 181 150
f 150 181 176
f 150 176 151
f 152 182 153
f 153 182 183
f 153 183 184
f 153 184 154
f 154 184 185
f 154 185 156
f 154 156 155
f 156 185 158
f 157 186 165
f 157 158 187
f 157 187 188
f 157 188 186
f 158 185 187
f 159 166 189
f 159 189 224
f 159 224 190
f 159 190 191
f 159 191 160
f 160 191 192
f 160 192 161
f 165 186 166
f 166 193 189
f 166 186 193
f 167 194 173
f 167 171 195
f 167 195 196
f 167 196 197
f 167 197 226
f 167 226 194
f 170 198 171
f 171 198 199
f 171 199 195
f 173 194 200
f 173 200 179
f 173 179 174
f 175 201 202
f 175 202 203
f 175 203 204
f 175 204 177
f 175 176 201
f 176 181 205
f 176 205 206
f 176 206 201
f 177 204 207
f 179 208 209
f 179 209 180
f 179 200 210
f 179 210 208
f 180 209 181
f 181 209 205
f 183 211 212
f 183 212 184
f 184 212 213
f 184 213 214
f 184 214 215
f 184 215 185
f 185 216 217
f 185 217 187
f 185 215 216
f 186 188 218
f 186 218 219
f 186 219 220
f 186 220 193
f 187 218 188
f 187 217 218
f 189 193 220
f 189 220 221
f 189 221 222
f 189 222 223
f 189 223 224
f 190 192 191
f 194 225 210
f 194 210 200
f 194 226 227
f 194 227 228
f 194 228 229
f 194 229 225
f 195 199 196
f 201 230 231
f 201 231 232
f 201 232 233
f 201 233 202
f 201 206 230
f 202 233 234
f 202 234 203
f 203 234 235
f 203 235 236
f 203 236 207
f 203 207 204
f 205 237 231
f 205 231 206
f 205 209 238
f 205 238 237
f 206 231 230
f 208 239 209
f 208 210 239
f 209 239 238
f 210 225 240
f 210 240 241
f 210 241 239
f 211 242 213
f 211 213 212
f 213 242 243
f 213 243 244
f 213 244 245
f 213 245 214
f 214 245 246
f 214 246 215
f 215 246 247
f 215 247 248
f 215 248 249
f 215 249 216
f 216 248 217
f 216 249 248
f 217 248 250
f 217 250 251
f 217 251 218
f 218 251 252
f 218 252 219
f 219 252 220
f 220 253 254
f 220 254 221
f 220 252 253
f 221 254 255
f 221 255 256
f 221 256 257
f 221 257 222
f 222 257 258
f 222 258 223
f 223 258 259
f 223 259 224
f 225 229 260
f 225 260 261
f 225 261 240
f 227 262 228
f 228 262 229
f 229 262 260
f 231 237 263
f 231 263 264
f 231 264 265
f 231 265 232
f 232 265 233
f 233 265 234
f 234 265 266
f 234 266 267
f 234 267 235
f 235 267 268
f 237 238 263
f 238 239 269
f 238 269 270
f 238 270 263
f 239 241 271
f 239 271 269
f 240 272 271
f 240 271 241
f 240 261 273
f 240 273 274
f 240 274 272
f 244 275 276
f 244 276 245
f 245 277 246
f 245 276 278
f 245 278 277
f 246 277 247
f 247 277 248
f 248 279 280
f 248 280 250
f 248 277 279
f 250 280 251
f 251 281 282
f 251 282 252
f 251 280 281
f 252 282 283
f 252 283 253
f 253 283 254
f 254 283 284
f 254 284 285
f 254 285 286
f 254 286 255
f 255 286 256
f 263 270 287
f 263 287 288
f 263 288 289
f 263 289 264
f 264 289 265
f 265 290 291
f 265 291 292
f 265 292 266
f 265 289 290
f 266 292 293
f 266 293 267
f 267 293 268
f 268 293 294
f 269 295 287
f 269 287 270
f 269 271 297
f 269 297 295
f 271 272 296
f 271 296 297
f 272 274 298
f 272 298 299
f 272 299 300
f 272 300 301
f 272 301 296
f 273 302 274
f 274 302 298
f 275 303 304
f 275 304 276
f 276 304 278
f 277 278 305
f 277 305 306
f 277 306 307
f 277 307 308
f 277 308 279
f 278 304 305
f 279 308 309
f 279 309 280
f 280 309 310
f 280 310 281
f 281 310 282
f 282 310 311
f 282 311 312
f 282 312 283
f 283 312 313
f 283 313 284
f 284 313 314
f 284 314 315
f 284 315 316
f 284 316 317
f 284 317 318
f 284 318 285
f 285 318 286
f 287 310 309
f 287 309 288
f 287 295 311
f 287 311 310
f 288 309 308
f 288 308 289
f 289 308 332
f 289 332 319
f 289 319 290
f 290 319 291
f 291 306 320
f 291 320 292
f 291 319 332
f 291 332 306
f 292 320 305
f 292 305 321
f 292 321 322
f 292 322 293
f 293 322 323
f 293 323 324
f 293 324 294
f 295 297 325
f 295 325 311
f 296 313 326
f 296 326 297
f 296 301 300
f 296 300 327
f 296 327 333
f 296 333 313
f 297 326 312
f 297 312 325
f 299 327 300
f 303 328 304
f 304 328 329
f 304 329 330
f 304 330 331
f 304 331 305
f 305 320 306
f 305 331 321
f 306 332 307
f 307 332 308
f 311 325 312
f 312 326 313
f 313 333 315
f 313 315 314
f 315 333 316
f 321 331 322
f 322 331 330
f 322 330 323